<?xml version="1.0" standalone="no"?>
<!DOCTYPE svg PUBLIC "-//W3C//DTD SVG 20010904//EN"
 "http://www.w3.org/TR/2001/REC-SVG-20010904/DTD/svg10.dtd">
<svg version="1.0" xmlns="http://www.w3.org/2000/svg"
 width="240.000000pt" height="240.000000pt" viewBox="0 0 240.000000 240.000000"
 preserveAspectRatio="xMidYMid meet">
<metadata>
Created by potrace 1.11, written by Peter Selinger 2001-2013
</metadata>
<g transform="translate(0.000000,240.000000) scale(0.100000,-0.100000)"
fill="#000000" stroke="none">
<path d="M1240 2145 c0 -6 -32 -10 -73 -11 -88 -1 -147 -9 -218 -30 -30 -9
-58 -17 -64 -18 -5 -1 -20 -8 -33 -15 -12 -6 -33 -9 -45 -6 -17 5 -19 4 -7 -4
12 -9 12 -11 -2 -16 -10 -4 -22 -3 -29 1 -7 4 -9 3 -6 -3 3 -5 -7 -17 -24 -27
-16 -9 -29 -14 -29 -11 0 4 -6 0 -13 -7 -8 -7 -26 -22 -41 -33 -62 -45 -160
-137 -182 -170 -9 -14 -23 -25 -31 -25 -8 0 -11 -5 -7 -12 4 -6 -1 -17 -11
-25 -11 -7 -16 -13 -12 -13 4 0 -8 -25 -28 -55 -19 -30 -32 -55 -29 -55 4 0 2
-6 -4 -12 -26 -33 -68 -178 -85 -298 -2 -8 -6 -20 -9 -25 -4 -6 -3 -17 2 -25
4 -7 4 -23 0 -36 -5 -12 -7 -24 -4 -26 2 -3 6 -31 10 -64 3 -32 9 -81 15 -107
5 -27 7 -53 3 -58 -3 -5 -1 -9 4 -9 16 0 33 -72 20 -87 -8 -10 -7 -12 5 -8 11
5 18 -4 28 -32 7 -21 12 -40 13 -43 0 -3 8 -14 18 -25 10 -10 16 -25 13 -33
-3 -8 0 -10 7 -6 8 5 9 2 5 -10 -4 -10 -3 -15 3 -11 5 3 14 -4 20 -16 26 -48
197 -229 217 -229 6 0 13 -3 15 -7 5 -12 58 -47 102 -67 30 -14 36 -20 25 -28
-11 -8 -10 -9 3 -4 24 7 80 -13 71 -27 -3 -5 -2 -8 3 -5 10 7 147 -26 140 -33
-6 -5 12 -6 179 -12 66 -2 136 0 155 4 19 4 51 10 70 12 19 2 42 7 50 10 8 3
49 18 90 34 41 15 81 27 87 27 7 -1 10 2 7 7 -3 5 8 14 23 21 56 25 152 99
226 173 32 32 127 163 127 174 0 6 3 11 8 11 7 0 29 45 52 112 8 20 17 35 22
32 4 -3 5 2 2 10 -7 20 14 58 28 50 7 -4 8 -3 4 5 -4 6 -12 9 -17 6 -5 -4 -5
5 1 20 6 15 10 37 10 51 0 13 3 24 8 24 4 0 7 29 7 65 0 36 4 65 8 65 5 0 5 5
2 11 -4 6 -9 43 -11 82 -4 73 -18 156 -34 192 -14 33 -43 130 -41 134 2 2 -4
8 -13 13 -9 5 -16 13 -16 18 0 10 -56 106 -75 127 -5 7 -16 19 -23 28 -7 8
-10 20 -6 27 4 6 3 8 -3 5 -6 -4 -36 20 -67 52 -31 33 -56 57 -56 53 0 -3 -12
5 -27 19 -38 34 -81 62 -127 83 -30 14 -35 20 -25 28 10 7 7 7 -9 3 -13 -4
-28 -2 -35 3 -11 9 -83 36 -99 37 -3 0 -10 3 -14 8 -4 4 -19 7 -34 7 -15 0
-30 3 -33 6 -6 6 -56 14 -117 17 -14 1 -28 7 -32 12 -5 7 -8 7 -8 0z"/>
<path d="M1110 240 c0 -5 5 -10 11 -10 5 0 7 5 4 10 -3 6 -8 10 -11 10 -2 0
-4 -4 -4 -10z"/>
</g>
</svg>
