<?xml version="1.0" encoding="utf-8"?>
<!-- generated at drububu.com  -->
<!DOCTYPE svg PUBLIC "-//W3C//DTD SVG 1.1//EN" "http://www.w3.org/Graphics/SVG/1.1/DTD/svg11.dtd">
<svg version="1.1" preserveAspectRatio="xMinYMin meet" xmlns="http://www.w3.org/2000/svg" xmlns:xlink="http://www.w3.org/1999/xlink" x="0px" y="0px" width="96px" height="96px" viewBox="0 0 96 96">
<path d="M0 0h96v96h-96v-96z" fill="transparent"/>
<path d="M55 30h1v1h-1v-1z" fill="rgb(82,98,41)"/>
<path d="M53 31h2v1h-2v-1z" fill="rgb(82,98,41)"/>
<path d="M55 31h1v1h-1v-1z" fill="rgb(164,213,65)"/>
<path d="M56 31h2v1h-2v-1z" fill="rgb(16,16,16)"/>
<path d="M45 32h4v1h-4v-1z" fill="rgb(115,172,49)"/>
<path d="M49 32h4v1h-4v-1z" fill="rgb(82,98,41)"/>
<path d="M53 32h1v2h-3v-1h2v-1z" fill="rgb(164,213,65)"/>
<path d="M54 32h2v1h-1v1h-1v-2z" fill="rgb(115,172,49)"/>
<path d="M56 32h1v2h-1v-2z" fill="rgb(82,98,41)"/>
<path d="M57 32h1v2h-1v-2z" fill="rgb(115,172,49)"/>
<path d="M58 32h1v4h-1v-4z" fill="rgb(16,16,16)"/>
<path d="M43 33h2v1h-2v-1z" fill="rgb(115,172,49)"/>
<path d="M45 33h6v1h1v1h-5v1h-5v-1h1v-1h2v-1z" fill="rgb(189,255,115)"/>
<path d="M55 33h1v3h1v5h-1v1h-1v1h-3v-2h1v-1h1v-4h-1v-1h1v-1h1v-1z" fill="rgb(164,213,65)"/>
<path d="M42 34h1v1h-1v-1z" fill="rgb(115,172,49)"/>
<path d="M52 34h2v1h-2v-1z" fill="rgb(115,172,49)"/>
<path d="M56 34h1v2h-1v-2z" fill="rgb(115,172,49)"/>
<path d="M57 34h1v4h-1v-4z" fill="rgb(82,98,41)"/>
<path d="M31 35h2v1h-2v-1z" fill="rgb(24,74,74)"/>
<path d="M41 35h1v1h-1v-1z" fill="rgb(115,172,49)"/>
<path d="M47 35h1v1h-1v-1z" fill="rgb(24,74,74)"/>
<path d="M48 35h1v1h-1v-1z" fill="rgb(16,16,16)"/>
<path d="M49 35h3v1h-3v-1z" fill="rgb(115,172,49)"/>
<path d="M52 35h1v1h1v4h-1v1h-1v1h-1v-3h-1v-3h2v-1z" fill="rgb(189,255,115)"/>
<path d="M30 36h1v4h-1v-4z" fill="rgb(57,148,148)"/>
<path d="M31 36h2v1h1v1h2v-1h5v1h-3v1h-1v1h-1v2h3v-1h1v-1h1v-2h1v1h1v4h-1v-1h-1v1h-1v2h1
	v1h-1v1h-6v-1h-1v-1h1v-2h-1v-1h-1v1h-1v-3h1v-1h-1v-3z" fill="rgb(131,238,197)"/>
<path d="M33 36h2v1h-2v-1z" fill="rgb(24,74,74)"/>
<path d="M36 36h9v1h-9v-1z" fill="rgb(49,115,115)"/>
<path d="M45 36h2v1h-2v-1z" fill="rgb(24,74,74)"/>
<path d="M47 36h1v2h-1v1h-3v-1h1v-1h2v-1z" fill="rgb(131,238,197)"/>
<path d="M48 36h1v6h-1v1h-1v-1h-1v-1h-2v1h-1v-3h-1v-1h-1v-1h3v2h3v-1h1v-2z" fill="rgb(98,213,180)"/>
<path d="M49 36h1v3h-1v-3z" fill="rgb(16,16,16)"/>
<path d="M58 36h1v1h1v2h1v2h1v5h-1v2h-1v1h-2v-1h-1v-1h1v-1h1v-2h1v-4h-1v-2h-1v-2z" fill="rgb(115,172,49)"/>
<path d="M59 36h1v1h-1v-1z" fill="rgb(16,16,16)"/>
<path d="M34 37h2v1h-2v-1z" fill="rgb(49,115,115)"/>
<path d="M44 37h1v1h-1v-1z" fill="rgb(24,74,74)"/>
<path d="M60 37h1v2h-1v-2z" fill="rgb(16,16,16)"/>
<path d="M32 38h1v1h-1v-1z" fill="rgb(57,148,148)"/>
<path d="M38 38h3v2h-1v1h-1v1h-3v-2h1v-1h1v-1z" fill="rgb(57,148,148)"/>
<path d="M57 38h1v2h1v4h-1v2h-1v1h-2v-1h-1v-1h-1v-2h2v-1h1v-1h1v-3z" fill="rgb(115,172,49)"/>
<path d="M58 38h1v2h-1v-2z" fill="rgb(82,98,41)"/>
<path d="M31 39h1v1h-1v-1z" fill="rgb(49,115,115)"/>
<path d="M49 39h1v3h1v5h1v-2h1v1h1v1h1v1h2v1h1v1h1v1h1v2h1v4h-1v2h-1v-1h-1v-1h1v-3h-1v-1
	h-1v1h-1v3h1v1h-1v1h-1v-1h-2v-3h-2v-2h-1v2h1v4h-1v2h-2v-1h1v-4h-1v-1h-3v1h-1v1
	h-3v-1h-2v-1h5v-1h-9v-1h8v-1h2v-1h1v-1h2v-1h-2v-1h1v-1h1v-5h1v-3z" fill="rgb(57,148,148)"/>
<path d="M50 39h1v3h-1v-3z" fill="rgb(16,16,16)"/>
<path d="M61 39h1v2h-1v-2z" fill="rgb(16,16,16)"/>
<path d="M30 40h1v2h-1v-2z" fill="rgb(49,115,115)"/>
<path d="M59 40h1v4h-1v-4z" fill="rgb(82,98,41)"/>
<path d="M44 41h2v1h-2v-1z" fill="rgb(57,148,148)"/>
<path d="M62 41h1v5h-1v-5z" fill="rgb(16,16,16)"/>
<path d="M29 42h1v1h-1v-1z" fill="rgb(49,115,115)"/>
<path d="M30 42h1v1h-1v-1z" fill="rgb(24,74,74)"/>
<path d="M32 42h1v1h-1v-1z" fill="rgb(98,213,180)"/>
<path d="M41 42h1v1h-1v-1z" fill="rgb(98,213,180)"/>
<path d="M43 42h1v1h-1v-1z" fill="rgb(49,115,115)"/>
<path d="M44 42h2v1h-2v-1z" fill="rgb(205,205,205)"/>
<path d="M46 42h1v1h-1v-1z" fill="rgb(24,74,74)"/>
<path d="M51 42h1v3h-1v-3z" fill="rgb(16,16,16)"/>
<path d="M29 43h1v2h-1v-2z" fill="rgb(24,74,74)"/>
<path d="M30 43h1v3h-1v-3z" fill="rgb(238,32,57)"/>
<path d="M31 43h1v2h-1v-2z" fill="rgb(57,148,148)"/>
<path d="M32 43h1v2h-1v-2z" fill="rgb(131,238,197)"/>
<path d="M33 43h1v2h-1v-2z" fill="rgb(98,213,180)"/>
<path d="M37 43h2v2h-1v1h-2v-2h1v-1z" fill="rgb(57,148,148)"/>
<path d="M40 43h1v2h-1v-2z" fill="rgb(98,213,180)"/>
<path d="M41 43h1v2h-1v-2z" fill="rgb(131,238,197)"/>
<path d="M42 43h1v2h-1v-2z" fill="rgb(49,115,115)"/>
<path d="M43 43h1v2h-1v-2z" fill="rgb(238,32,57)"/>
<path d="M44 43h1v2h1v1h-2v-3z" fill="rgb(172,0,49)"/>
<path d="M45 43h1v1h1v3h-1v-2h-1v-2z" fill="rgb(255,255,255)"/>
<path d="M46 43h1v1h-1v-1z" fill="rgb(205,205,205)"/>
<path d="M47 43h1v2h-1v-2z" fill="rgb(24,74,74)"/>
<path d="M52 43h1v2h-1v-2z" fill="rgb(24,74,74)"/>
<path d="M58 44h1v2h-1v-2z" fill="rgb(82,98,41)"/>
<path d="M28 45h1v3h-1v-3z" fill="rgb(49,115,115)"/>
<path d="M29 45h1v1h-1v-1z" fill="rgb(205,205,205)"/>
<path d="M31 45h1v2h-1v-2z" fill="rgb(255,255,255)"/>
<path d="M32 45h1v3h-1v-3z" fill="rgb(57,148,148)"/>
<path d="M41 45h1v3h-1v-3z" fill="rgb(57,148,148)"/>
<path d="M42 45h1v1h-1v-1z" fill="rgb(238,32,57)"/>
<path d="M43 45h1v2h-1v-2z" fill="rgb(255,255,255)"/>
<path d="M47 45h1v2h-1v-2z" fill="rgb(205,205,205)"/>
<path d="M51 45h1v1h-1v-1z" fill="rgb(24,74,74)"/>
<path d="M53 45h1v1h-1v-1z" fill="rgb(24,74,74)"/>
<path d="M29 46h1v1h-1v-1z" fill="rgb(255,255,255)"/>
<path d="M30 46h1v1h1v1h-2v-2z" fill="rgb(172,0,49)"/>
<path d="M33 46h1v1h6v-1h1v2h5v1h-2v1h-5v1h-5v-1h-2v-1h-2v-1h3v-2z" fill="rgb(98,213,180)"/>
<path d="M42 46h1v1h1v1h-2v-2z" fill="rgb(172,0,49)"/>
<path d="M44 46h2v2h-2v-2z" fill="rgb(255,106,98)"/>
<path d="M51 46h1v1h-1v-1z" fill="rgb(49,115,115)"/>
<path d="M54 46h1v1h-1v-1z" fill="rgb(24,74,74)"/>
<path d="M57 46h1v1h-1v-1z" fill="rgb(82,98,41)"/>
<path d="M61 46h1v2h-1v-2z" fill="rgb(16,16,16)"/>
<path d="M29 47h1v1h-1v-1z" fill="rgb(98,213,180)"/>
<path d="M46 47h1v1h-1v-1z" fill="rgb(205,205,205)"/>
<path d="M55 47h2v1h-2v-1z" fill="rgb(24,74,74)"/>
<path d="M28 48h1v2h-1v-2z" fill="rgb(24,74,74)"/>
<path d="M29 48h1v1h-1v-1z" fill="rgb(16,16,16)"/>
<path d="M48 48h1v1h-1v-1z" fill="rgb(24,74,74)"/>
<path d="M57 48h1v1h-1v-1z" fill="rgb(24,74,74)"/>
<path d="M60 48h1v1h-1v-1z" fill="rgb(16,16,16)"/>
<path d="M29 49h1v1h-1v-1z" fill="rgb(57,148,148)"/>
<path d="M30 49h1v1h-1v-1z" fill="rgb(16,16,16)"/>
<path d="M31 49h1v1h-1v-1z" fill="rgb(24,74,74)"/>
<path d="M34 49h1v1h-1v-1z" fill="rgb(57,148,148)"/>
<path d="M37 49h1v1h-1v-1z" fill="rgb(49,115,115)"/>
<path d="M44 49h1v1h-1v-1z" fill="rgb(49,115,115)"/>
<path d="M45 49h1v1h-1v-1z" fill="rgb(24,74,74)"/>
<path d="M46 49h2v1h-2v-1z" fill="rgb(16,16,16)"/>
<path d="M50 49h1v1h-1v-1z" fill="rgb(49,115,115)"/>
<path d="M54 49h2v1h1v2h-2v-1h-1v-2z" fill="rgb(24,74,74)"/>
<path d="M58 49h1v1h-1v-1z" fill="rgb(24,74,74)"/>
<path d="M59 49h1v1h-1v-1z" fill="rgb(16,16,16)"/>
<path d="M29 50h1v1h-1v-1z" fill="rgb(24,74,74)"/>
<path d="M30 50h1v1h-1v-1z" fill="rgb(57,148,148)"/>
<path d="M31 50h1v1h-1v-1z" fill="rgb(255,255,255)"/>
<path d="M32 50h2v1h-2v-1z" fill="rgb(172,0,49)"/>
<path d="M39 50h1v1h-1v-1z" fill="rgb(49,115,115)"/>
<path d="M40 50h1v1h-1v-1z" fill="rgb(24,74,74)"/>
<path d="M41 50h3v1h-3v-1z" fill="rgb(16,16,16)"/>
<path d="M44 50h1v1h-1v-1z" fill="rgb(255,255,255)"/>
<path d="M45 50h1v1h-1v-1z" fill="rgb(49,115,115)"/>
<path d="M50 50h1v1h-1v-1z" fill="rgb(24,74,74)"/>
<path d="M59 50h1v1h-1v-1z" fill="rgb(24,74,74)"/>
<path d="M30 51h1v1h-1v-1z" fill="rgb(24,74,74)"/>
<path d="M31 51h2v1h-2v-1z" fill="rgb(57,148,148)"/>
<path d="M33 51h1v1h-1v-1z" fill="rgb(49,115,115)"/>
<path d="M34 51h10v1h-7v1h-1v-1h-2v-1z" fill="rgb(172,0,49)"/>
<path d="M44 51h1v1h-1v-1z" fill="rgb(49,115,115)"/>
<path d="M49 51h1v1h-1v-1z" fill="rgb(24,74,74)"/>
<path d="M60 51h1v2h-1v-2z" fill="rgb(24,74,74)"/>
<path d="M31 52h2v1h-2v-1z" fill="rgb(16,16,16)"/>
<path d="M33 52h2v1h-2v-1z" fill="rgb(57,148,148)"/>
<path d="M35 52h1v1h-1v-1z" fill="rgb(49,115,115)"/>
<path d="M37 52h1v1h-1v-1z" fill="rgb(238,32,57)"/>
<path d="M38 52h4v1h-4v-1z" fill="rgb(255,106,98)"/>
<path d="M42 52h1v1h-1v-1z" fill="rgb(49,115,115)"/>
<path d="M47 52h2v1h-2v-1z" fill="rgb(16,16,16)"/>
<path d="M54 52h1v1h-1v-1z" fill="rgb(49,115,115)"/>
<path d="M33 53h2v1h-2v-1z" fill="rgb(16,16,16)"/>
<path d="M44 53h3v1h-3v-1z" fill="rgb(16,16,16)"/>
<path d="M50 53h1v1h-1v-1z" fill="rgb(49,115,115)"/>
<path d="M53 53h1v1h-1v-1z" fill="rgb(24,74,74)"/>
<path d="M57 53h1v1h1v3h-1v1h-1v-1h-1v-3h1v-1z" fill="rgb(24,74,74)"/>
<path d="M61 53h1v4h-1v-4z" fill="rgb(16,16,16)"/>
<path d="M33 54h1v1h-1v-1z" fill="rgb(24,74,74)"/>
<path d="M34 54h1v1h-1v-1z" fill="rgb(57,148,148)"/>
<path d="M35 54h9v1h-9v-1z" fill="rgb(16,16,16)"/>
<path d="M50 54h1v1h-1v-1z" fill="rgb(24,74,74)"/>
<path d="M53 54h1v1h-1v-1z" fill="rgb(16,16,16)"/>
<path d="M33 55h1v1h-1v-1z" fill="rgb(57,148,148)"/>
<path d="M34 55h3v1h1v2h1v2h-1v-1h-1v1h-1v-1h-1v-1h1v-2h-2v-1z" fill="rgb(98,213,180)"/>
<path d="M37 55h1v1h-1v-1z" fill="rgb(57,148,148)"/>
<path d="M38 55h1v1h-1v-1z" fill="rgb(24,74,74)"/>
<path d="M45 55h1v1h-1v-1z" fill="rgb(24,74,74)"/>
<path d="M46 55h2v1h1v4h-1v1h-1v-1h-1v1h-1v-3h1v1h2v-2h-1v-1h-1v-1z" fill="rgb(98,213,180)"/>
<path d="M51 55h1v4h-1v-4z" fill="rgb(24,74,74)"/>
<path d="M52 55h1v3h-1v-3z" fill="rgb(16,16,16)"/>
<path d="M34 56h1v2h-1v-2z" fill="rgb(49,115,115)"/>
<path d="M35 56h1v2h-1v-2z" fill="rgb(57,148,148)"/>
<path d="M38 56h1v1h2v3h-1v1h-1v-3h-1v-2z" fill="rgb(57,148,148)"/>
<path d="M39 56h1v1h-1v-1z" fill="rgb(24,74,74)"/>
<path d="M40 56h1v1h-1v-1z" fill="rgb(16,16,16)"/>
<path d="M44 56h1v2h-1v-2z" fill="rgb(24,74,74)"/>
<path d="M45 56h2v1h1v2h-2v-1h-1v-2z" fill="rgb(57,148,148)"/>
<path d="M41 57h3v1h-2v2h-1v-3z" fill="rgb(16,16,16)"/>
<path d="M60 57h1v2h-1v-2z" fill="rgb(16,16,16)"/>
<path d="M34 58h1v1h-1v-1z" fill="rgb(57,148,148)"/>
<path d="M44 58h1v2h-1v-2z" fill="rgb(57,148,148)"/>
<path d="M53 58h1v1h-1v-1z" fill="rgb(16,16,16)"/>
<path d="M54 58h1v1h-1v-1z" fill="rgb(49,115,115)"/>
<path d="M56 58h1v1h-1v-1z" fill="rgb(49,115,115)"/>
<path d="M57 58h1v1h-1v-1z" fill="rgb(57,148,148)"/>
<path d="M58 58h1v1h-1v-1z" fill="rgb(49,115,115)"/>
<path d="M35 59h1v1h-1v-1z" fill="rgb(49,115,115)"/>
<path d="M37 59h1v1h-1v-1z" fill="rgb(57,148,148)"/>
<path d="M50 59h1v2h-1v-2z" fill="rgb(16,16,16)"/>
<path d="M53 59h1v1h-1v-1z" fill="rgb(24,74,74)"/>
<path d="M54 59h1v1h-1v-1z" fill="rgb(205,205,205)"/>
<path d="M55 59h1v1h-1v-1z" fill="rgb(24,74,74)"/>
<path d="M56 59h1v1h-1v-1z" fill="rgb(205,205,205)"/>
<path d="M57 59h1v1h-1v-1z" fill="rgb(24,74,74)"/>
<path d="M58 59h1v1h-1v-1z" fill="rgb(205,205,205)"/>
<path d="M59 59h1v1h-1v-1z" fill="rgb(24,74,74)"/>
<path d="M34 60h1v1h-1v-1z" fill="rgb(24,74,74)"/>
<path d="M35 60h1v1h-1v-1z" fill="rgb(255,255,255)"/>
<path d="M36 60h1v1h-1v-1z" fill="rgb(24,74,74)"/>
<path d="M37 60h1v1h-1v-1z" fill="rgb(255,255,255)"/>
<path d="M38 60h1v1h-1v-1z" fill="rgb(24,74,74)"/>
<path d="M40 60h1v1h-1v-1z" fill="rgb(16,16,16)"/>
<path d="M44 60h1v1h-1v-1z" fill="rgb(24,74,74)"/>
<path d="M46 60h1v1h-1v-1z" fill="rgb(57,148,148)"/>
<path d="M54 60h5v1h-5v-1z" fill="rgb(16,16,16)"/>
<path d="M35 61h5v1h-5v-1z" fill="rgb(16,16,16)"/>
<path d="M43 61h1v1h-1v-1z" fill="rgb(24,74,74)"/>
<path d="M44 61h1v1h-1v-1z" fill="rgb(255,255,255)"/>
<path d="M45 61h1v1h-1v-1z" fill="rgb(24,74,74)"/>
<path d="M46 61h1v1h-1v-1z" fill="rgb(255,255,255)"/>
<path d="M47 61h1v1h-1v-1z" fill="rgb(24,74,74)"/>
<path d="M48 61h1v1h-1v-1z" fill="rgb(255,255,255)"/>
<path d="M49 61h1v1h-1v-1z" fill="rgb(16,16,16)"/>
<path d="M44 62h5v1h-5v-1z" fill="rgb(16,16,16)"/>
</svg>
