<?xml version="1.0" encoding="utf-8"?>
<!-- generated at drububu.com  -->
<!DOCTYPE svg PUBLIC "-//W3C//DTD SVG 1.1//EN" "http://www.w3.org/Graphics/SVG/1.1/DTD/svg11.dtd">
<svg version="1.1" preserveAspectRatio="xMinYMin meet" xmlns="http://www.w3.org/2000/svg" xmlns:xlink="http://www.w3.org/1999/xlink" x="0px" y="0px" width="96px" height="96px" viewBox="0 0 96 96">
<path d="M0 0h96v96h-96v-96z" fill="transparent"/>
<path d="M34 33h3v1h-2v1h-1v2h-1v-3h1v-1z" fill="rgb(123,57,74)"/>
<path d="M46 33h3v1h-3v-1z" fill="rgb(123,57,74)"/>
<path d="M35 34h2v2h-2v-2z" fill="rgb(255,180,57)"/>
<path d="M37 34h1v1h-1v-1z" fill="rgb(123,57,74)"/>
<path d="M44 34h2v1h-2v-1z" fill="rgb(123,57,74)"/>
<path d="M46 34h2v1h-1v1h-2v-1h1v-1z" fill="rgb(255,180,57)"/>
<path d="M48 34h1v3h-1v1h-3v1h-2v1h-2v1h-3v-2h-1v-1h5v-1h1v1h1v-1h2v-1h2v-2z" fill="rgb(255,65,65)"/>
<path d="M49 34h1v1h-1v-1z" fill="rgb(123,57,74)"/>
<path d="M34 35h1v1h1v1h1v1h-2v-1h-1v-2z" fill="rgb(255,65,65)"/>
<path d="M37 35h1v2h1v1h-2v-1h-1v-1h1v-1z" fill="rgb(255,123,65)"/>
<path d="M38 35h1v2h-1v-2z" fill="rgb(123,57,74)"/>
<path d="M41 35h3v1h-3v-1z" fill="rgb(24,90,65)"/>
<path d="M44 35h1v1h-1v-1z" fill="rgb(255,65,65)"/>
<path d="M47 35h1v1h-1v-1z" fill="rgb(255,123,65)"/>
<path d="M49 35h1v2h-1v-2z" fill="rgb(0,0,0)"/>
<path d="M39 36h2v1h-2v-1z" fill="rgb(24,90,65)"/>
<path d="M41 36h1v1h-1v-1z" fill="rgb(106,213,49)"/>
<path d="M42 36h2v1h-2v-1z" fill="rgb(123,57,74)"/>
<path d="M44 36h1v1h-1v-1z" fill="rgb(255,180,57)"/>
<path d="M45 36h1v1h-1v-1z" fill="rgb(255,123,65)"/>
<path d="M34 37h1v1h-1v-1z" fill="rgb(123,57,74)"/>
<path d="M39 37h3v1h-3v-1z" fill="rgb(123,57,74)"/>
<path d="M43 37h1v1h-1v-1z" fill="rgb(255,123,65)"/>
<path d="M48 37h1v1h-1v-1z" fill="rgb(0,0,0)"/>
<path d="M49 37h2v1h-2v-1z" fill="rgb(24,90,65)"/>
<path d="M35 38h1v1h-1v-1z" fill="rgb(0,0,0)"/>
<path d="M36 38h1v1h-1v-1z" fill="rgb(123,57,74)"/>
<path d="M45 38h1v1h-1v-1z" fill="rgb(123,57,74)"/>
<path d="M46 38h2v1h-2v-1z" fill="rgb(0,0,0)"/>
<path d="M48 38h2v1h2v2h-1v-1h-4v1h-1v1h-1v4h1v1h-1v1h-1v-1h-1v-1h-1v-1h-1v-1h1v-1h2v-1
	h-3v-1h3v-1h2v-1h2v-1z" fill="rgb(106,213,49)"/>
<path d="M50 38h1v1h-1v-1z" fill="rgb(49,172,65)"/>
<path d="M51 38h1v1h-1v-1z" fill="rgb(32,123,74)"/>
<path d="M36 39h1v1h-1v-1z" fill="rgb(0,0,0)"/>
<path d="M37 39h1v1h-1v-1z" fill="rgb(123,57,74)"/>
<path d="M43 39h1v1h-1v-1z" fill="rgb(123,57,74)"/>
<path d="M44 39h2v1h-2v-1z" fill="rgb(0,0,0)"/>
<path d="M52 39h1v1h-1v-1z" fill="rgb(32,123,74)"/>
<path d="M35 40h1v2h-1v-2z" fill="rgb(24,90,65)"/>
<path d="M36 40h1v1h-1v-1z" fill="rgb(106,213,49)"/>
<path d="M37 40h1v2h-1v-2z" fill="rgb(0,0,0)"/>
<path d="M41 40h1v1h-1v-1z" fill="rgb(123,57,74)"/>
<path d="M42 40h2v1h-2v-1z" fill="rgb(0,0,0)"/>
<path d="M47 40h4v1h-4v-1z" fill="rgb(74,197,41)"/>
<path d="M52 40h1v1h-1v-1z" fill="rgb(74,197,41)"/>
<path d="M53 40h1v1h-1v-1z" fill="rgb(32,123,74)"/>
<path d="M36 41h1v1h1v1h3v-1h3v1h-2v1h-5v-1h-1v-2z" fill="rgb(172,246,65)"/>
<path d="M38 41h3v1h-1v1h-2v-2z" fill="rgb(123,57,74)"/>
<path d="M46 41h1v1h-1v-1z" fill="rgb(74,197,41)"/>
<path d="M47 41h4v1h-4v-1z" fill="rgb(246,238,139)"/>
<path d="M51 41h1v1h-1v-1z" fill="rgb(74,197,41)"/>
<path d="M52 41h1v1h1v4h-1v2h-1v1h-1v1h-2v1h-3v-1h-1v-1h-1v-1h2v-2h1v1h4v-1h1v-5z" fill="rgb(49,172,65)"/>
<path d="M53 41h1v1h-1v-1z" fill="rgb(24,90,65)"/>
<path d="M34 42h1v3h-1v-3z" fill="rgb(24,90,65)"/>
<path d="M35 42h1v1h-1v-1z" fill="rgb(106,213,49)"/>
<path d="M40 42h1v1h-1v-1z" fill="rgb(49,172,65)"/>
<path d="M45 42h1v4h-1v-4z" fill="rgb(74,197,41)"/>
<path d="M46 42h1v3h-1v-3z" fill="rgb(246,238,139)"/>
<path d="M47 42h1v1h-1v-1z" fill="rgb(230,205,148)"/>
<path d="M48 42h1v2h-2v-1h1v-1z" fill="rgb(82,98,74)"/>
<path d="M49 42h1v1h1v2h-1v1h-2v-1h-1v-1h2v-2z" fill="rgb(0,0,0)"/>
<path d="M50 42h1v1h-1v-1z" fill="rgb(230,205,148)"/>
<path d="M51 42h1v2h-1v-2z" fill="rgb(246,238,139)"/>
<path d="M54 42h1v4h-1v-4z" fill="rgb(0,0,0)"/>
<path d="M35 43h1v2h-1v-2z" fill="rgb(74,197,41)"/>
<path d="M36 43h1v1h-1v-1z" fill="rgb(106,213,49)"/>
<path d="M36 44h4v1h-4v-1z" fill="rgb(49,172,65)"/>
<path d="M40 44h1v1h-1v-1z" fill="rgb(74,197,41)"/>
<path d="M51 44h1v2h-1v-2z" fill="rgb(230,205,148)"/>
<path d="M35 45h1v1h-1v-1z" fill="rgb(32,123,74)"/>
<path d="M36 45h3v2h-3v-2z" fill="rgb(172,246,65)"/>
<path d="M39 45h1v1h2v1h-1v1h-1v-1h-1v-2z" fill="rgb(106,213,49)"/>
<path d="M40 45h1v1h-1v-1z" fill="rgb(49,172,65)"/>
<path d="M41 45h1v1h-1v-1z" fill="rgb(32,123,74)"/>
<path d="M46 45h1v1h-1v-1z" fill="rgb(230,205,148)"/>
<path d="M47 45h1v1h-1v-1z" fill="rgb(123,131,74)"/>
<path d="M50 45h1v1h-1v-1z" fill="rgb(123,131,74)"/>
<path d="M34 46h1v3h-1v-3z" fill="rgb(32,123,74)"/>
<path d="M35 46h1v2h-1v-2z" fill="rgb(106,213,49)"/>
<path d="M42 46h1v1h-1v-1z" fill="rgb(32,123,74)"/>
<path d="M47 46h4v1h-4v-1z" fill="rgb(230,205,148)"/>
<path d="M53 46h1v1h-1v-1z" fill="rgb(24,90,65)"/>
<path d="M36 47h1v2h-1v-2z" fill="rgb(49,172,65)"/>
<path d="M37 47h2v1h-2v-1z" fill="rgb(24,90,65)"/>
<path d="M39 47h1v1h-1v-1z" fill="rgb(32,123,74)"/>
<path d="M41 47h1v1h-1v-1z" fill="rgb(74,197,41)"/>
<path d="M42 47h1v3h-1v1h-2v-1h1v-2h1v-1z" fill="rgb(49,172,65)"/>
<path d="M43 47h1v1h-1v-1z" fill="rgb(32,123,74)"/>
<path d="M45 47h1v1h-1v-1z" fill="rgb(74,197,41)"/>
<path d="M53 47h1v1h-1v-1z" fill="rgb(0,0,0)"/>
<path d="M35 48h1v1h-1v-1z" fill="rgb(24,90,65)"/>
<path d="M37 48h2v1h1v1h-4v-1h1v-1z" fill="rgb(106,213,49)"/>
<path d="M39 48h1v1h-1v-1z" fill="rgb(49,172,65)"/>
<path d="M40 48h1v1h-1v-1z" fill="rgb(32,123,74)"/>
<path d="M43 48h1v2h-1v-2z" fill="rgb(24,90,65)"/>
<path d="M52 48h1v1h-1v-1z" fill="rgb(0,0,0)"/>
<path d="M53 48h1v1h-1v-1z" fill="rgb(32,123,74)"/>
<path d="M54 48h1v2h-1v-2z" fill="rgb(24,90,65)"/>
<path d="M35 49h1v1h-1v-1z" fill="rgb(0,0,0)"/>
<path d="M40 49h1v1h-1v-1z" fill="rgb(24,90,65)"/>
<path d="M44 49h1v1h-1v-1z" fill="rgb(32,123,74)"/>
<path d="M51 49h1v1h-1v-1z" fill="rgb(0,0,0)"/>
<path d="M52 49h2v1h-1v1h-1v1h-1v2h1v1h2v1h-1v1h-2v1h-2v-1h-1v-4h1v-2h2v-1h1v-1z" fill="rgb(49,172,65)"/>
<path d="M61 49h2v1h-2v-1z" fill="rgb(123,131,74)"/>
<path d="M36 50h1v1h-1v-1z" fill="rgb(0,0,0)"/>
<path d="M37 50h1v1h-1v-1z" fill="rgb(32,123,74)"/>
<path d="M38 50h2v1h-2v-1z" fill="rgb(24,90,65)"/>
<path d="M42 50h1v1h-1v-1z" fill="rgb(24,90,65)"/>
<path d="M43 50h2v1h4v1h-1v1h-2v-1h-2v-1h-1v-1z" fill="rgb(0,0,0)"/>
<path d="M45 50h1v1h-1v-1z" fill="rgb(32,123,74)"/>
<path d="M49 50h1v1h-1v-1z" fill="rgb(0,0,0)"/>
<path d="M50 50h1v1h-1v-1z" fill="rgb(24,90,65)"/>
<path d="M53 50h2v2h-1v-1h-1v-1z" fill="rgb(106,213,49)"/>
<path d="M55 50h1v2h-1v-2z" fill="rgb(24,90,65)"/>
<path d="M60 50h1v1h-1v-1z" fill="rgb(123,131,74)"/>
<path d="M61 50h1v1h1v2h-1v1h-1v-1h-1v-2h1v-1z" fill="rgb(246,238,139)"/>
<path d="M62 50h1v1h-1v-1z" fill="rgb(230,205,148)"/>
<path d="M63 50h1v2h-1v-2z" fill="rgb(123,131,74)"/>
<path d="M38 51h4v1h-4v-1z" fill="rgb(0,0,0)"/>
<path d="M42 51h1v1h-1v-1z" fill="rgb(123,131,74)"/>
<path d="M43 51h1v1h-1v-1z" fill="rgb(32,123,74)"/>
<path d="M52 51h2v1h-2v-1z" fill="rgb(246,238,139)"/>
<path d="M59 51h1v1h-1v-1z" fill="rgb(123,131,74)"/>
<path d="M37 52h1v1h-1v-1z" fill="rgb(82,98,74)"/>
<path d="M38 52h1v1h-1v-1z" fill="rgb(123,131,74)"/>
<path d="M39 52h6v1h2v1h-2v1h-1v1h-1v-1h-2v-1h-1v-1h-1v-1z" fill="rgb(230,205,148)"/>
<path d="M45 52h1v1h-1v-1z" fill="rgb(123,131,74)"/>
<path d="M48 52h1v1h-1v-1z" fill="rgb(32,123,74)"/>
<path d="M51 52h1v2h-1v-2z" fill="rgb(230,205,148)"/>
<path d="M52 52h2v2h-2v-2z" fill="rgb(106,213,49)"/>
<path d="M54 52h1v1h-1v-1z" fill="rgb(246,238,139)"/>
<path d="M55 52h1v2h-1v-2z" fill="rgb(0,0,0)"/>
<path d="M59 52h1v5h-1v-5z" fill="rgb(82,98,74)"/>
<path d="M63 52h1v2h-1v-2z" fill="rgb(82,98,74)"/>
<path d="M36 53h1v2h-1v-2z" fill="rgb(82,98,74)"/>
<path d="M37 53h2v1h-1v1h-1v-2z" fill="rgb(246,238,139)"/>
<path d="M39 53h1v3h1v1h-2v-4z" fill="rgb(123,131,74)"/>
<path d="M47 53h1v1h-1v-1z" fill="rgb(32,123,74)"/>
<path d="M54 53h1v1h-1v-1z" fill="rgb(230,205,148)"/>
<path d="M60 53h1v1h1v2h-1v1h-1v-4z" fill="rgb(230,205,148)"/>
<path d="M62 53h1v1h-1v-1z" fill="rgb(230,205,148)"/>
<path d="M38 54h1v2h-2v-1h1v-1z" fill="rgb(230,205,148)"/>
<path d="M40 54h1v1h2v2h-2v-1h-1v-2z" fill="rgb(246,238,139)"/>
<path d="M45 54h1v1h-1v-1z" fill="rgb(123,131,74)"/>
<path d="M46 54h1v1h-1v-1z" fill="rgb(82,98,74)"/>
<path d="M47 54h1v1h-1v-1z" fill="rgb(123,131,74)"/>
<path d="M52 54h2v1h-2v-1z" fill="rgb(230,205,148)"/>
<path d="M54 54h1v2h-1v-2z" fill="rgb(0,0,0)"/>
<path d="M62 54h1v2h-1v-2z" fill="rgb(82,98,74)"/>
<path d="M36 55h1v1h-1v-1z" fill="rgb(0,0,0)"/>
<path d="M44 55h1v1h-1v-1z" fill="rgb(123,131,74)"/>
<path d="M45 55h1v2h-2v-1h1v-1z" fill="rgb(246,238,139)"/>
<path d="M46 55h1v3h-3v-1h2v-2z" fill="rgb(230,205,148)"/>
<path d="M47 55h1v1h-1v-1z" fill="rgb(82,98,74)"/>
<path d="M37 56h2v2h-1v-1h-1v-1z" fill="rgb(0,0,0)"/>
<path d="M43 56h1v2h-1v-2z" fill="rgb(82,98,74)"/>
<path d="M47 56h1v2h-1v-2z" fill="rgb(0,0,0)"/>
<path d="M53 56h1v1h-1v-1z" fill="rgb(0,0,0)"/>
<path d="M61 56h1v1h-1v-1z" fill="rgb(82,98,74)"/>
<path d="M39 57h2v1h3v2h-3v-1h-1v-1h-1v-1z" fill="rgb(246,238,139)"/>
<path d="M41 57h2v1h-2v-1z" fill="rgb(123,131,74)"/>
<path d="M48 57h1v1h-1v-1z" fill="rgb(32,123,74)"/>
<path d="M51 57h2v2h-1v-1h-1v-1z" fill="rgb(0,0,0)"/>
<path d="M59 57h1v1h-1v-1z" fill="rgb(123,131,74)"/>
<path d="M60 57h1v2h-1v-2z" fill="rgb(82,98,74)"/>
<path d="M39 58h1v1h-1v-1z" fill="rgb(82,98,74)"/>
<path d="M44 58h3v1h-3v-1z" fill="rgb(0,0,0)"/>
<path d="M47 58h1v2h-2v1h-1v1h-3v-1h-1v-1h3v-1h3v-1z" fill="rgb(230,205,148)"/>
<path d="M48 58h1v1h1v1h1v2h-1v-1h-1v-1h-1v-2z" fill="rgb(49,172,65)"/>
<path d="M49 58h2v1h-2v-1z" fill="rgb(0,0,0)"/>
<path d="M51 58h1v1h-1v-1z" fill="rgb(230,205,148)"/>
<path d="M58 58h1v1h-1v-1z" fill="rgb(32,123,74)"/>
<path d="M59 58h1v1h-1v-1z" fill="rgb(230,205,148)"/>
<path d="M38 59h1v1h-1v-1z" fill="rgb(82,98,74)"/>
<path d="M39 59h1v2h-1v-2z" fill="rgb(246,238,139)"/>
<path d="M40 59h1v2h-1v-2z" fill="rgb(123,131,74)"/>
<path d="M50 59h1v1h-1v-1z" fill="rgb(230,205,148)"/>
<path d="M51 59h1v1h-1v-1z" fill="rgb(49,172,65)"/>
<path d="M52 59h1v1h-1v-1z" fill="rgb(230,205,148)"/>
<path d="M57 59h1v1h-1v-1z" fill="rgb(32,123,74)"/>
<path d="M58 59h2v1h-1v1h-1v1h-1v-2h1v-1z" fill="rgb(49,172,65)"/>
<path d="M60 59h1v2h-1v-2z" fill="rgb(32,123,74)"/>
<path d="M38 60h1v2h-1v-2z" fill="rgb(0,0,0)"/>
<path d="M46 60h3v1h-3v-1z" fill="rgb(82,98,74)"/>
<path d="M51 60h1v1h-1v-1z" fill="rgb(230,205,148)"/>
<path d="M52 60h1v1h-1v-1z" fill="rgb(0,0,0)"/>
<path d="M53 60h1v1h-1v-1z" fill="rgb(49,172,65)"/>
<path d="M54 60h1v1h-1v-1z" fill="rgb(32,123,74)"/>
<path d="M55 60h1v1h-1v-1z" fill="rgb(24,90,65)"/>
<path d="M56 60h1v1h-1v-1z" fill="rgb(32,123,74)"/>
<path d="M59 60h1v1h-1v-1z" fill="rgb(230,205,148)"/>
<path d="M39 61h2v1h-2v-1z" fill="rgb(230,205,148)"/>
<path d="M41 61h1v1h-1v-1z" fill="rgb(123,131,74)"/>
<path d="M45 61h1v1h-1v-1z" fill="rgb(82,98,74)"/>
<path d="M46 61h1v1h-1v-1z" fill="rgb(230,205,148)"/>
<path d="M47 61h2v1h-1v1h-2v-1h1v-1z" fill="rgb(246,238,139)"/>
<path d="M49 61h1v1h-1v-1z" fill="rgb(82,98,74)"/>
<path d="M51 61h1v1h-1v-1z" fill="rgb(0,0,0)"/>
<path d="M52 61h2v1h-2v-1z" fill="rgb(32,123,74)"/>
<path d="M54 61h1v1h-1v-1z" fill="rgb(49,172,65)"/>
<path d="M55 61h1v1h-1v-1z" fill="rgb(230,205,148)"/>
<path d="M56 61h1v1h-1v-1z" fill="rgb(24,90,65)"/>
<path d="M58 61h1v1h-1v-1z" fill="rgb(230,205,148)"/>
<path d="M59 61h1v2h-1v-2z" fill="rgb(32,123,74)"/>
<path d="M39 62h3v2h-1v-1h-2v-1z" fill="rgb(0,0,0)"/>
<path d="M42 62h3v1h-3v-1z" fill="rgb(123,131,74)"/>
<path d="M45 62h1v1h-1v-1z" fill="rgb(0,0,0)"/>
<path d="M48 62h1v1h-1v-1z" fill="rgb(230,205,148)"/>
<path d="M49 62h1v1h-1v-1z" fill="rgb(0,0,0)"/>
<path d="M50 62h1v1h-1v-1z" fill="rgb(24,90,65)"/>
<path d="M51 62h1v1h-1v-1z" fill="rgb(230,205,148)"/>
<path d="M52 62h1v1h-1v-1z" fill="rgb(24,90,65)"/>
<path d="M53 62h1v1h-1v-1z" fill="rgb(49,172,65)"/>
<path d="M54 62h1v1h-1v-1z" fill="rgb(230,205,148)"/>
<path d="M55 62h1v1h-1v-1z" fill="rgb(49,172,65)"/>
<path d="M56 62h1v1h-1v-1z" fill="rgb(230,205,148)"/>
<path d="M57 62h1v2h-1v-2z" fill="rgb(24,90,65)"/>
<path d="M58 62h1v1h-1v-1z" fill="rgb(49,172,65)"/>
<path d="M42 63h4v1h-2v1h-1v-1h-1v-1z" fill="rgb(246,238,139)"/>
<path d="M46 63h3v1h-3v-1z" fill="rgb(0,0,0)"/>
<path d="M49 63h1v2h-1v-2z" fill="rgb(32,123,74)"/>
<path d="M50 63h3v3h-3v-3z" fill="rgb(49,172,65)"/>
<path d="M53 63h1v3h-1v-3z" fill="rgb(24,90,65)"/>
<path d="M54 63h1v1h1v1h-2v-2z" fill="rgb(49,172,65)"/>
<path d="M55 63h1v1h-1v-1z" fill="rgb(230,205,148)"/>
<path d="M56 63h1v1h-1v-1z" fill="rgb(49,172,65)"/>
<path d="M58 63h1v1h-1v-1z" fill="rgb(0,0,0)"/>
<path d="M42 64h1v1h-1v-1z" fill="rgb(0,0,0)"/>
<path d="M44 64h4v1h-1v1h-2v-1h-1v-1z" fill="rgb(230,205,148)"/>
<path d="M48 64h1v1h-1v-1z" fill="rgb(82,98,74)"/>
<path d="M56 64h1v1h-1v-1z" fill="rgb(230,205,148)"/>
<path d="M57 64h1v1h-1v-1z" fill="rgb(32,123,74)"/>
<path d="M43 65h1v1h-1v-1z" fill="rgb(0,0,0)"/>
<path d="M44 65h1v1h-1v-1z" fill="rgb(82,98,74)"/>
<path d="M47 65h1v1h-1v-1z" fill="rgb(82,98,74)"/>
<path d="M48 65h2v1h2v1h-5v-1h1v-1z" fill="rgb(230,205,148)"/>
<path d="M54 65h2v1h-2v-1z" fill="rgb(230,205,148)"/>
<path d="M56 65h1v1h-1v-1z" fill="rgb(0,0,0)"/>
<path d="M45 66h2v1h-2v-1z" fill="rgb(82,98,74)"/>
<path d="M52 66h1v2h-2v-1h1v-1z" fill="rgb(24,90,65)"/>
<path d="M53 66h1v1h-1v-1z" fill="rgb(230,205,148)"/>
<path d="M54 66h1v1h-1v-1z" fill="rgb(32,123,74)"/>
<path d="M55 66h1v1h-1v-1z" fill="rgb(0,0,0)"/>
<path d="M47 67h1v1h-1v-1z" fill="rgb(32,123,74)"/>
<path d="M48 67h3v1h-3v-1z" fill="rgb(82,98,74)"/>
<path d="M53 67h1v1h-1v-1z" fill="rgb(32,123,74)"/>
</svg>
