<?xml version="1.0" encoding="utf-8"?>
<!-- generated at drububu.com  -->
<!DOCTYPE svg PUBLIC "-//W3C//DTD SVG 1.1//EN" "http://www.w3.org/Graphics/SVG/1.1/DTD/svg11.dtd">
<svg version="1.1" preserveAspectRatio="xMinYMin meet" xmlns="http://www.w3.org/2000/svg" xmlns:xlink="http://www.w3.org/1999/xlink" x="0px" y="0px" width="96px" height="96px" viewBox="0 0 96 96">
<path d="M0 0h96v96h-96v-96z" fill="transparent"/>
<path d="M45 33h6v1h-6v-1z" fill="rgb(16,16,16)"/>
<path d="M42 34h3v1h-3v-1z" fill="rgb(131,16,16)"/>
<path d="M45 34h1v1h-1v-1z" fill="rgb(213,49,65)"/>
<path d="M46 34h4v1h3v1h2v1h1v1h1v1h1v1h1v1h1v2h-1v3h-1v3h-1v2h-1v1h-1v1h-1v1h-1v1h-2v1
	h-3v1h-8v-1h-3v-1h2v-1h1v-2h-1v-1h-1v-2h-1v2h-2v-2h-1v-3h1v-3h1v-2h1v-1h1v-1h1
	v-1h1v-1h1v-1h2v-1h3v-1z" fill="rgb(255,82,32)"/>
<path d="M50 34h1v1h-1v-1z" fill="rgb(213,49,65)"/>
<path d="M51 34h3v1h-3v-1z" fill="rgb(16,16,16)"/>
<path d="M40 35h2v1h-2v-1z" fill="rgb(131,16,16)"/>
<path d="M42 35h1v1h-1v-1z" fill="rgb(238,65,49)"/>
<path d="M53 35h1v1h-1v-1z" fill="rgb(213,49,65)"/>
<path d="M54 35h2v1h-2v-1z" fill="rgb(16,16,16)"/>
<path d="M39 36h1v1h-1v-1z" fill="rgb(131,16,16)"/>
<path d="M40 36h1v1h-1v-1z" fill="rgb(238,65,49)"/>
<path d="M55 36h1v1h-1v-1z" fill="rgb(213,49,65)"/>
<path d="M56 36h1v1h-1v-1z" fill="rgb(16,16,16)"/>
<path d="M38 37h1v1h-1v-1z" fill="rgb(131,16,16)"/>
<path d="M39 37h1v1h-1v-1z" fill="rgb(238,65,49)"/>
<path d="M56 37h1v1h-1v-1z" fill="rgb(213,49,65)"/>
<path d="M57 37h1v1h-1v-1z" fill="rgb(16,16,16)"/>
<path d="M37 38h1v1h-1v-1z" fill="rgb(131,16,16)"/>
<path d="M38 38h1v1h-1v-1z" fill="rgb(238,65,49)"/>
<path d="M57 38h1v1h-1v-1z" fill="rgb(213,49,65)"/>
<path d="M58 38h1v1h-1v-1z" fill="rgb(16,16,16)"/>
<path d="M36 39h1v1h-1v-1z" fill="rgb(131,16,16)"/>
<path d="M37 39h1v1h-1v-1z" fill="rgb(238,65,49)"/>
<path d="M58 39h1v1h-1v-1z" fill="rgb(213,49,65)"/>
<path d="M59 39h1v1h-1v-1z" fill="rgb(16,16,16)"/>
<path d="M35 40h1v2h-1v-2z" fill="rgb(131,16,16)"/>
<path d="M36 40h1v1h-1v-1z" fill="rgb(238,65,49)"/>
<path d="M39 40h3v1h-3v-1z" fill="rgb(255,131,90)"/>
<path d="M59 40h1v1h-1v-1z" fill="rgb(213,49,65)"/>
<path d="M60 40h1v2h-1v-2z" fill="rgb(16,16,16)"/>
<path d="M38 41h1v3h-1v-3z" fill="rgb(255,131,90)"/>
<path d="M39 41h3v3h-3v-3z" fill="rgb(255,172,156)"/>
<path d="M42 41h1v3h-1v-3z" fill="rgb(255,131,90)"/>
<path d="M34 42h1v3h-1v-3z" fill="rgb(131,16,16)"/>
<path d="M35 42h1v1h-1v-1z" fill="rgb(238,65,49)"/>
<path d="M60 42h1v3h1v3h-1v2h-1v1h-1v1h-1v1h-2v-1h1v-2h1v-3h1v-3h1v-2z" fill="rgb(213,49,65)"/>
<path d="M61 42h1v3h-1v-3z" fill="rgb(16,16,16)"/>
<path d="M59 43h1v1h-1v-1z" fill="rgb(238,65,49)"/>
<path d="M39 44h3v1h-3v-1z" fill="rgb(255,131,90)"/>
<path d="M52 44h1v1h-1v-1z" fill="rgb(131,16,16)"/>
<path d="M33 45h1v6h-1v-6z" fill="rgb(131,16,16)"/>
<path d="M34 45h1v1h-1v-1z" fill="rgb(238,65,49)"/>
<path d="M53 45h1v2h-1v-2z" fill="rgb(131,16,16)"/>
<path d="M62 45h1v6h-1v-6z" fill="rgb(16,16,16)"/>
<path d="M58 46h1v1h-1v-1z" fill="rgb(238,65,49)"/>
<path d="M41 47h1v1h-1v-1z" fill="rgb(238,65,49)"/>
<path d="M43 47h1v1h-1v-1z" fill="rgb(255,172,156)"/>
<path d="M44 47h1v2h-2v-1h1v-1z" fill="rgb(255,131,90)"/>
<path d="M50 47h2v1h-2v-1z" fill="rgb(131,16,16)"/>
<path d="M52 47h1v4h-1v-4z" fill="rgb(213,49,65)"/>
<path d="M41 48h1v1h-1v-1z" fill="rgb(213,49,65)"/>
<path d="M48 48h2v1h-2v-1z" fill="rgb(131,16,16)"/>
<path d="M50 48h2v1h-2v-1z" fill="rgb(222,213,213)"/>
<path d="M61 48h1v3h-1v3h-1v2h-1v1h-1v1h-1v1h-1v1h-2v1h-3v1h-6v-1h-3v-1h-2v-1h6v-1h3v-1
	h2v-1h1v-1h2v-1h2v-1h2v-1h1v-1h1v-1h1v-2z" fill="rgb(180,172,189)"/>
<path d="M34 49h1v1h-1v-1z" fill="rgb(238,65,49)"/>
<path d="M37 49h1v1h-1v-1z" fill="rgb(213,49,65)"/>
<path d="M41 49h1v2h-1v-2z" fill="rgb(131,16,16)"/>
<path d="M47 49h1v1h-1v-1z" fill="rgb(131,16,16)"/>
<path d="M48 49h2v1h-2v-1z" fill="rgb(222,213,213)"/>
<path d="M50 49h2v3h-1v1h-5v-2h1v1h1v-2h2v-1z" fill="rgb(255,255,255)"/>
<path d="M57 49h1v1h-1v-1z" fill="rgb(238,65,49)"/>
<path d="M34 50h1v1h-1v-1z" fill="rgb(213,49,65)"/>
<path d="M37 50h1v1h1v1h-4v2h-1v-3h3v-1z" fill="rgb(131,16,16)"/>
<path d="M45 50h2v1h-2v-1z" fill="rgb(131,16,16)"/>
<path d="M47 50h1v2h-1v-2z" fill="rgb(16,16,16)"/>
<path d="M41 51h1v1h-1v-1z" fill="rgb(213,49,65)"/>
<path d="M42 51h2v1h-2v-1z" fill="rgb(131,16,16)"/>
<path d="M45 51h1v2h-1v-2z" fill="rgb(222,213,213)"/>
<path d="M52 51h1v1h-1v-1z" fill="rgb(238,65,49)"/>
<path d="M56 51h1v1h-1v-1z" fill="rgb(238,65,49)"/>
<path d="M61 51h1v3h-1v-3z" fill="rgb(16,16,16)"/>
<path d="M35 52h2v1h-2v-1z" fill="rgb(222,213,213)"/>
<path d="M37 52h1v1h-1v-1z" fill="rgb(16,16,16)"/>
<path d="M38 52h1v1h-1v-1z" fill="rgb(180,172,189)"/>
<path d="M39 52h1v1h-1v-1z" fill="rgb(131,16,16)"/>
<path d="M42 52h2v1h-2v-1z" fill="rgb(213,49,65)"/>
<path d="M44 52h1v1h-1v-1z" fill="rgb(131,16,16)"/>
<path d="M51 52h1v1h-1v-1z" fill="rgb(213,49,65)"/>
<path d="M55 52h1v1h-1v-1z" fill="rgb(238,65,49)"/>
<path d="M35 53h1v1h-1v-1z" fill="rgb(213,49,65)"/>
<path d="M36 53h3v1h-3v-1z" fill="rgb(255,255,255)"/>
<path d="M39 53h1v1h-1v-1z" fill="rgb(213,49,65)"/>
<path d="M45 53h1v1h-1v-1z" fill="rgb(238,65,49)"/>
<path d="M46 53h4v1h-4v-1z" fill="rgb(213,49,65)"/>
<path d="M50 53h1v1h-1v-1z" fill="rgb(238,65,49)"/>
<path d="M54 53h1v1h-1v-1z" fill="rgb(238,65,49)"/>
<path d="M55 53h1v1h-1v-1z" fill="rgb(213,49,65)"/>
<path d="M35 54h1v2h-1v-2z" fill="rgb(131,16,16)"/>
<path d="M36 54h3v1h-3v-1z" fill="rgb(238,65,49)"/>
<path d="M53 54h1v1h-1v-1z" fill="rgb(238,65,49)"/>
<path d="M60 54h1v2h-1v-2z" fill="rgb(16,16,16)"/>
<path d="M36 55h1v1h-1v-1z" fill="rgb(213,49,65)"/>
<path d="M51 55h1v1h-1v-1z" fill="rgb(238,65,49)"/>
<path d="M36 56h1v1h-1v-1z" fill="rgb(16,16,16)"/>
<path d="M37 56h2v1h-2v-1z" fill="rgb(255,255,255)"/>
<path d="M39 56h1v1h-1v-1z" fill="rgb(238,65,49)"/>
<path d="M48 56h1v1h-1v-1z" fill="rgb(238,65,49)"/>
<path d="M49 56h2v1h-2v-1z" fill="rgb(222,213,213)"/>
<path d="M59 56h1v1h-1v-1z" fill="rgb(16,16,16)"/>
<path d="M37 57h1v1h-1v-1z" fill="rgb(16,16,16)"/>
<path d="M38 57h1v1h-1v-1z" fill="rgb(222,213,213)"/>
<path d="M39 57h7v1h-7v-1z" fill="rgb(255,255,255)"/>
<path d="M46 57h3v1h-3v-1z" fill="rgb(222,213,213)"/>
<path d="M58 57h1v1h-1v-1z" fill="rgb(16,16,16)"/>
<path d="M38 58h1v1h-1v-1z" fill="rgb(16,16,16)"/>
<path d="M39 58h7v1h-7v-1z" fill="rgb(222,213,213)"/>
<path d="M57 58h1v1h-1v-1z" fill="rgb(16,16,16)"/>
<path d="M39 59h1v1h-1v-1z" fill="rgb(16,16,16)"/>
<path d="M56 59h1v1h-1v-1z" fill="rgb(16,16,16)"/>
<path d="M40 60h2v1h-2v-1z" fill="rgb(16,16,16)"/>
<path d="M54 60h2v1h-2v-1z" fill="rgb(16,16,16)"/>
<path d="M42 61h3v1h-3v-1z" fill="rgb(16,16,16)"/>
<path d="M51 61h3v1h-3v-1z" fill="rgb(16,16,16)"/>
<path d="M45 62h6v1h-6v-1z" fill="rgb(16,16,16)"/>
</svg>
