<?xml version="1.0" encoding="utf-8"?>
<!-- generated at drububu.com  -->
<!DOCTYPE svg PUBLIC "-//W3C//DTD SVG 1.1//EN" "http://www.w3.org/Graphics/SVG/1.1/DTD/svg11.dtd">
<svg version="1.1" preserveAspectRatio="xMinYMin meet" xmlns="http://www.w3.org/2000/svg" xmlns:xlink="http://www.w3.org/1999/xlink" x="0px" y="0px" width="96px" height="96px" viewBox="0 0 96 96">
<path d="M0 0h96v96h-96v-96z" fill="transparent"/>
<path d="M43 25h10v1h-10v-1z" fill="rgb(90,82,82)"/>
<path d="M40 26h3v1h-3v-1z" fill="rgb(90,82,82)"/>
<path d="M43 26h1v1h-1v-1z" fill="rgb(205,205,222)"/>
<path d="M44 26h8v1h3v1h1v1h-1v1h1v1h1v-1h1v2h1v1h1v2h1v2h1v4h1v7h-1v3h-2v1h-3v1h-6v1
	h-11v-1h-3v-1h-3v-1h-2v-1h-1v-1h-1v-1h-1v-5h1v-4h1v-2h1v-2h1v-2h1v-1h1v-2h2v-1h2
	v-1h2v-1h3v-1z" fill="rgb(238,238,238)"/>
<path d="M52 26h1v1h-1v-1z" fill="rgb(205,205,222)"/>
<path d="M53 26h3v1h-3v-1z" fill="rgb(16,16,16)"/>
<path d="M38 27h2v1h-2v-1z" fill="rgb(90,82,82)"/>
<path d="M40 27h1v1h-1v-1z" fill="rgb(205,205,222)"/>
<path d="M55 27h1v1h-1v-1z" fill="rgb(205,205,222)"/>
<path d="M56 27h2v1h-2v-1z" fill="rgb(16,16,16)"/>
<path d="M36 28h2v1h-2v-1z" fill="rgb(90,82,82)"/>
<path d="M38 28h1v1h-1v-1z" fill="rgb(205,205,222)"/>
<path d="M56 28h1v1h-1v-1z" fill="rgb(205,205,222)"/>
<path d="M57 28h1v1h-1v-1z" fill="rgb(238,238,238)"/>
<path d="M58 28h2v1h-2v-1z" fill="rgb(16,16,16)"/>
<path d="M35 29h1v1h-1v-1z" fill="rgb(90,82,82)"/>
<path d="M36 29h1v1h-1v-1z" fill="rgb(205,205,222)"/>
<path d="M40 29h5v1h1v1h1v3h-1v1h-1v1h-5v-1h-1v-1h-1v-3h1v-1h1v-1z" fill="rgb(255,255,255)"/>
<path d="M55 29h1v1h-1v-1z" fill="rgb(205,205,222)"/>
<path d="M56 29h1v1h-1v-1z" fill="rgb(238,238,238)"/>
<path d="M57 29h1v1h-1v-1z" fill="rgb(205,205,222)"/>
<path d="M58 29h1v1h-1v-1z" fill="rgb(238,238,238)"/>
<path d="M59 29h1v1h1v1h1v1h1v1h1v1h1v2h1v2h1v2h1v3h1v3h-1v1h-1v1h-1v1h-2v1h-2v-2h1v-7
	h-1v-4h-1v-2h-1v-2h-1v-1h-1v-2h1v-1z" fill="rgb(205,205,222)"/>
<path d="M60 29h1v1h-1v-1z" fill="rgb(16,16,16)"/>
<path d="M34 30h1v1h-1v-1z" fill="rgb(90,82,82)"/>
<path d="M56 30h1v1h-1v-1z" fill="rgb(205,205,222)"/>
<path d="M61 30h1v1h-1v-1z" fill="rgb(16,16,16)"/>
<path d="M33 31h1v1h-1v-1z" fill="rgb(90,82,82)"/>
<path d="M34 31h1v1h-1v-1z" fill="rgb(205,205,222)"/>
<path d="M62 31h1v1h-1v-1z" fill="rgb(16,16,16)"/>
<path d="M32 32h1v1h-1v-1z" fill="rgb(90,82,82)"/>
<path d="M33 32h1v1h-1v-1z" fill="rgb(205,205,222)"/>
<path d="M63 32h1v1h-1v-1z" fill="rgb(16,16,16)"/>
<path d="M31 33h1v1h-1v-1z" fill="rgb(90,82,82)"/>
<path d="M32 33h1v2h-1v2h-1v2h-1v4h-1v4h-1v-1h-1v-3h1v-3h1v-2h1v-2h1v-2h1v-1z" fill="rgb(205,205,222)"/>
<path d="M64 33h1v1h-1v-1z" fill="rgb(16,16,16)"/>
<path d="M30 34h1v2h-1v-2z" fill="rgb(90,82,82)"/>
<path d="M65 34h1v2h-1v-2z" fill="rgb(16,16,16)"/>
<path d="M29 36h1v2h-1v-2z" fill="rgb(90,82,82)"/>
<path d="M54 36h3v1h-3v-1z" fill="rgb(90,82,82)"/>
<path d="M57 36h1v1h-1v-1z" fill="rgb(205,205,222)"/>
<path d="M66 36h1v2h-1v-2z" fill="rgb(16,16,16)"/>
<path d="M35 37h2v1h-2v-1z" fill="rgb(90,82,82)"/>
<path d="M53 37h1v1h-1v-1z" fill="rgb(90,82,82)"/>
<path d="M54 37h3v1h1v1h-2v1h-2v1h-2v1h-1v1h-1v-2h1v-1h1v-1h1v-1h1v-1z" fill="rgb(205,205,222)"/>
<path d="M57 37h1v1h-1v-1z" fill="rgb(90,82,82)"/>
<path d="M58 37h1v1h-1v-1z" fill="rgb(205,205,222)"/>
<path d="M28 38h1v2h-1v-2z" fill="rgb(90,82,82)"/>
<path d="M34 38h1v1h-1v-1z" fill="rgb(90,82,82)"/>
<path d="M37 38h1v1h-1v-1z" fill="rgb(90,82,82)"/>
<path d="M52 38h1v1h-1v-1z" fill="rgb(90,82,82)"/>
<path d="M58 38h1v1h-1v-1z" fill="rgb(90,82,82)"/>
<path d="M59 38h1v1h-1v-1z" fill="rgb(205,205,222)"/>
<path d="M67 38h1v2h-1v-2z" fill="rgb(16,16,16)"/>
<path d="M33 39h1v1h-1v-1z" fill="rgb(90,82,82)"/>
<path d="M37 39h1v1h-1v-1z" fill="rgb(205,205,222)"/>
<path d="M38 39h1v2h-1v-2z" fill="rgb(90,82,82)"/>
<path d="M51 39h1v1h-1v-1z" fill="rgb(90,82,82)"/>
<path d="M58 39h1v1h-1v-1z" fill="rgb(205,205,222)"/>
<path d="M59 39h1v2h-1v-2z" fill="rgb(90,82,82)"/>
<path d="M60 39h1v2h-1v-2z" fill="rgb(205,205,222)"/>
<path d="M27 40h1v3h-1v-3z" fill="rgb(16,16,16)"/>
<path d="M32 40h1v2h-1v-2z" fill="rgb(90,82,82)"/>
<path d="M50 40h1v1h-1v-1z" fill="rgb(90,82,82)"/>
<path d="M68 40h1v3h-1v-3z" fill="rgb(16,16,16)"/>
<path d="M38 41h1v1h-1v-1z" fill="rgb(205,205,222)"/>
<path d="M39 41h1v2h-1v-2z" fill="rgb(90,82,82)"/>
<path d="M49 41h1v2h-1v-2z" fill="rgb(90,82,82)"/>
<path d="M59 41h1v1h-1v-1z" fill="rgb(205,205,222)"/>
<path d="M60 41h1v1h-1v-1z" fill="rgb(90,82,82)"/>
<path d="M31 42h1v2h-1v-2z" fill="rgb(90,82,82)"/>
<path d="M45 42h1v2h-1v-2z" fill="rgb(164,156,156)"/>
<path d="M48 42h1v1h-1v-1z" fill="rgb(205,205,222)"/>
<path d="M26 43h1v10h-1v-10z" fill="rgb(16,16,16)"/>
<path d="M39 43h1v1h-1v-1z" fill="rgb(205,205,222)"/>
<path d="M40 43h1v2h-1v-2z" fill="rgb(90,82,82)"/>
<path d="M46 43h2v2h1v1h-1v1h-1v-3h-1v-1z" fill="rgb(205,205,222)"/>
<path d="M48 43h1v2h-1v-2z" fill="rgb(90,82,82)"/>
<path d="M49 43h1v1h-1v-1z" fill="rgb(205,205,222)"/>
<path d="M69 43h1v10h-1v-10z" fill="rgb(16,16,16)"/>
<path d="M46 44h1v3h-1v-3z" fill="rgb(90,82,82)"/>
<path d="M37 45h1v3h-1v-3z" fill="rgb(16,16,16)"/>
<path d="M27 46h1v1h-1v-1z" fill="rgb(213,131,148)"/>
<path d="M52 46h1v3h-1v-3z" fill="rgb(16,16,16)"/>
<path d="M68 46h1v1h-1v-1z" fill="rgb(213,131,148)"/>
<path d="M27 47h1v1h1v5h1v2h1v2h1v1h1v1h2v1h2v1h1v1h1v1h2v1h2v1h9v-1h3v-1h1v-1h1v-1h1v-1
	h1v-2h1v-3h1v-2h1v-2h1v-1h2v-1h2v-1h1v-1h1v6h-1v3h-1v2h-1v2h-1v2h-1v1h-1v1h-1
	v1h-1v1h-1v1h-2v1h-2v1h-3v1h-10v-1h-3v-1h-2v-1h-2v-1h-1v-1h-1v-1h-1v-1h-1v-1h-1
	v-2h-1v-2h-1v-2h-1v-3h-1v-6z" fill="rgb(197,41,65)"/>
<path d="M28 47h1v1h-1v-1z" fill="rgb(213,131,148)"/>
<path d="M67 47h1v1h-1v-1z" fill="rgb(213,131,148)"/>
<path d="M29 48h1v1h-1v-1z" fill="rgb(246,164,139)"/>
<path d="M37 48h1v1h-1v-1z" fill="rgb(164,156,156)"/>
<path d="M66 48h1v1h-1v-1z" fill="rgb(213,131,148)"/>
<path d="M29 49h1v1h1v1h2v1h3v1h3v1h13v-1h6v-1h2v1h-1v1h-1v2h-4v1h-15v-1h-4v-1h-2v1h-1
	v-2h-2v-3h-1v-2z" fill="rgb(255,82,32)"/>
<path d="M30 49h1v1h-1v-1z" fill="rgb(246,164,139)"/>
<path d="M52 49h1v1h-1v-1z" fill="rgb(164,156,156)"/>
<path d="M64 49h1v1h-1v-1z" fill="rgb(213,131,148)"/>
<path d="M31 50h1v1h-1v-1z" fill="rgb(246,164,139)"/>
<path d="M62 50h1v1h-1v-1z" fill="rgb(213,131,148)"/>
<path d="M29 51h1v2h-1v-2z" fill="rgb(230,57,49)"/>
<path d="M33 51h1v1h-1v-1z" fill="rgb(246,164,139)"/>
<path d="M60 51h1v1h-1v-1z" fill="rgb(246,164,139)"/>
<path d="M61 51h1v2h-1v1h-2v-1h1v-1h1v-1z" fill="rgb(230,57,49)"/>
<path d="M36 52h1v1h-1v-1z" fill="rgb(246,164,139)"/>
<path d="M57 52h1v1h-1v-1z" fill="rgb(246,164,139)"/>
<path d="M27 53h1v3h-1v-3z" fill="rgb(16,16,16)"/>
<path d="M39 53h1v1h-1v-1z" fill="rgb(246,164,139)"/>
<path d="M51 53h1v1h-1v-1z" fill="rgb(246,164,139)"/>
<path d="M68 53h1v3h-1v-3z" fill="rgb(16,16,16)"/>
<path d="M30 54h2v2h2v1h1v2h-2v-1h-1v-1h-1v-2h-1v-1z" fill="rgb(230,57,49)"/>
<path d="M58 54h1v1h-1v-1z" fill="rgb(230,57,49)"/>
<path d="M59 54h1v1h-1v-1z" fill="rgb(197,41,65)"/>
<path d="M60 54h1v1h-1v-1z" fill="rgb(131,16,16)"/>
<path d="M33 55h1v1h-1v-1z" fill="rgb(131,16,16)"/>
<path d="M34 55h1v1h-1v-1z" fill="rgb(197,41,65)"/>
<path d="M58 55h2v1h-2v-1z" fill="rgb(131,16,16)"/>
<path d="M28 56h1v2h-1v-2z" fill="rgb(16,16,16)"/>
<path d="M34 56h1v1h-1v-1z" fill="rgb(16,16,16)"/>
<path d="M35 56h4v1h-4v-1z" fill="rgb(131,16,16)"/>
<path d="M54 56h4v1h-4v-1z" fill="rgb(131,16,16)"/>
<path d="M58 56h1v2h-4v1h-17v-1h-1v1h-1v-2h3v1h15v-1h4v-1z" fill="rgb(205,205,222)"/>
<path d="M59 56h1v2h-1v-2z" fill="rgb(16,16,16)"/>
<path d="M67 56h1v2h-1v-2z" fill="rgb(16,16,16)"/>
<path d="M35 57h1v2h-1v-2z" fill="rgb(16,16,16)"/>
<path d="M39 57h15v1h-15v-1z" fill="rgb(131,16,16)"/>
<path d="M29 58h1v2h-1v-2z" fill="rgb(16,16,16)"/>
<path d="M37 58h1v1h17v-1h3v1h-1v1h-1v2h-2v-2h-1v3h-2v1h-1v-3h-1v3h-5v-1h-3v-1h-2v-1h-1
	v-1h-1v-2z" fill="rgb(255,255,255)"/>
<path d="M58 58h1v2h-1v-2z" fill="rgb(16,16,16)"/>
<path d="M66 58h1v2h-1v-2z" fill="rgb(16,16,16)"/>
<path d="M35 59h1v1h-1v-1z" fill="rgb(230,57,49)"/>
<path d="M36 59h1v1h-1v-1z" fill="rgb(16,16,16)"/>
<path d="M57 59h1v1h-1v-1z" fill="rgb(205,205,222)"/>
<path d="M30 60h1v2h-1v-2z" fill="rgb(16,16,16)"/>
<path d="M37 60h1v1h-1v-1z" fill="rgb(16,16,16)"/>
<path d="M53 60h1v1h-1v-1z" fill="rgb(164,156,156)"/>
<path d="M56 60h1v1h-1v-1z" fill="rgb(205,205,222)"/>
<path d="M57 60h1v1h-1v-1z" fill="rgb(16,16,16)"/>
<path d="M65 60h1v2h-1v-2z" fill="rgb(16,16,16)"/>
<path d="M38 61h1v1h-1v-1z" fill="rgb(16,16,16)"/>
<path d="M49 61h1v1h-1v-1z" fill="rgb(164,156,156)"/>
<path d="M53 61h1v2h-1v-2z" fill="rgb(90,82,82)"/>
<path d="M56 61h1v1h-1v-1z" fill="rgb(16,16,16)"/>
<path d="M31 62h1v1h-1v-1z" fill="rgb(16,16,16)"/>
<path d="M39 62h2v1h-2v-1z" fill="rgb(16,16,16)"/>
<path d="M49 62h1v2h-1v-2z" fill="rgb(90,82,82)"/>
<path d="M54 62h1v1h-1v-1z" fill="rgb(205,205,222)"/>
<path d="M55 62h1v1h-1v-1z" fill="rgb(16,16,16)"/>
<path d="M64 62h1v1h-1v-1z" fill="rgb(16,16,16)"/>
<path d="M32 63h1v1h-1v-1z" fill="rgb(16,16,16)"/>
<path d="M41 63h2v1h-2v-1z" fill="rgb(16,16,16)"/>
<path d="M43 63h1v1h-1v-1z" fill="rgb(205,205,222)"/>
<path d="M51 63h1v1h-1v-1z" fill="rgb(205,205,222)"/>
<path d="M52 63h3v1h-3v-1z" fill="rgb(16,16,16)"/>
<path d="M63 63h1v1h-1v-1z" fill="rgb(16,16,16)"/>
<path d="M33 64h1v1h-1v-1z" fill="rgb(16,16,16)"/>
<path d="M43 64h9v1h-9v-1z" fill="rgb(16,16,16)"/>
<path d="M62 64h1v1h-1v-1z" fill="rgb(16,16,16)"/>
<path d="M34 65h1v1h-1v-1z" fill="rgb(16,16,16)"/>
<path d="M61 65h1v1h-1v-1z" fill="rgb(16,16,16)"/>
<path d="M35 66h1v1h-1v-1z" fill="rgb(16,16,16)"/>
<path d="M60 66h1v1h-1v-1z" fill="rgb(16,16,16)"/>
<path d="M36 67h2v1h-2v-1z" fill="rgb(16,16,16)"/>
<path d="M58 67h2v1h-2v-1z" fill="rgb(16,16,16)"/>
<path d="M38 68h2v1h-2v-1z" fill="rgb(16,16,16)"/>
<path d="M56 68h2v1h-2v-1z" fill="rgb(16,16,16)"/>
<path d="M40 69h3v1h-3v-1z" fill="rgb(16,16,16)"/>
<path d="M53 69h3v1h-3v-1z" fill="rgb(16,16,16)"/>
<path d="M43 70h10v1h-10v-1z" fill="rgb(16,16,16)"/>
</svg>
