<?xml version="1.0" encoding="utf-8"?>
<!-- generated at drububu.com  -->
<!DOCTYPE svg PUBLIC "-//W3C//DTD SVG 1.1//EN" "http://www.w3.org/Graphics/SVG/1.1/DTD/svg11.dtd">
<svg version="1.1" preserveAspectRatio="xMinYMin meet" xmlns="http://www.w3.org/2000/svg" xmlns:xlink="http://www.w3.org/1999/xlink" x="0px" y="0px" width="96px" height="96px" viewBox="0 0 96 96">
<path d="M0 0h96v96h-96v-96z" fill="transparent"/>
<path d="M54 30h2v1h-2v-1z" fill="rgb(148,49,49)"/>
<path d="M57 30h2v1h-2v-1z" fill="rgb(148,49,49)"/>
<path d="M52 31h1v1h-1v-1z" fill="rgb(148,49,49)"/>
<path d="M53 31h3v1h1v-1h2v2h2v1h-1v2h-2v-1h1v-1h-1v-1h-4v2h-2v-1h1v-3z" fill="rgb(16,16,16)"/>
<path d="M56 31h1v1h-1v-1z" fill="rgb(148,49,49)"/>
<path d="M59 31h1v1h1v1h-2v-2z" fill="rgb(148,49,49)"/>
<path d="M34 32h2v1h-2v-1z" fill="rgb(148,49,49)"/>
<path d="M36 32h2v1h-2v-1z" fill="rgb(16,16,16)"/>
<path d="M38 32h2v1h-2v-1z" fill="rgb(148,49,49)"/>
<path d="M51 32h1v1h-1v-1z" fill="rgb(148,49,49)"/>
<path d="M52 32h1v1h-1v-1z" fill="rgb(255,213,172)"/>
<path d="M61 32h1v1h-1v-1z" fill="rgb(16,16,16)"/>
<path d="M32 33h2v1h-2v-1z" fill="rgb(148,49,49)"/>
<path d="M34 33h2v1h-2v-1z" fill="rgb(255,180,139)"/>
<path d="M36 33h1v1h-1v-1z" fill="rgb(238,131,98)"/>
<path d="M37 33h1v1h-1v-1z" fill="rgb(148,49,49)"/>
<path d="M38 33h2v1h2v1h2v1h1v1h-1v1h-1v1h-1v-1h-1v-2h-1v-1h-1v-1h-1v-1z" fill="rgb(238,131,98)"/>
<path d="M40 33h2v1h-2v-1z" fill="rgb(148,49,49)"/>
<path d="M49 33h1v1h-1v-1z" fill="rgb(148,49,49)"/>
<path d="M50 33h1v1h-1v-1z" fill="rgb(238,131,98)"/>
<path d="M51 33h1v1h-1v-1z" fill="rgb(255,213,172)"/>
<path d="M52 33h1v1h-1v-1z" fill="rgb(148,49,49)"/>
<path d="M54 33h1v1h-1v-1z" fill="rgb(230,156,0)"/>
<path d="M55 33h3v1h-1v1h-3v-1h1v-1z" fill="rgb(255,205,74)"/>
<path d="M61 33h1v2h-1v-2z" fill="rgb(255,213,172)"/>
<path d="M62 33h1v1h-1v-1z" fill="rgb(148,49,49)"/>
<path d="M65 33h4v1h-4v-1z" fill="rgb(148,49,49)"/>
<path d="M31 34h1v1h-1v-1z" fill="rgb(148,49,49)"/>
<path d="M32 34h4v2h-2v-1h-2v-1z" fill="rgb(255,213,172)"/>
<path d="M36 34h1v2h-1v-2z" fill="rgb(148,49,49)"/>
<path d="M37 34h2v1h-2v-1z" fill="rgb(255,180,139)"/>
<path d="M42 34h1v1h-1v-1z" fill="rgb(148,49,49)"/>
<path d="M43 34h1v1h-1v-1z" fill="rgb(16,16,16)"/>
<path d="M48 34h1v1h-1v-1z" fill="rgb(148,49,49)"/>
<path d="M49 34h1v1h-1v-1z" fill="rgb(255,180,139)"/>
<path d="M50 34h1v3h-1v-1h-1v-1h1v-1z" fill="rgb(255,213,172)"/>
<path d="M51 34h1v1h-1v-1z" fill="rgb(238,131,98)"/>
<path d="M57 34h2v1h-2v-1z" fill="rgb(230,156,0)"/>
<path d="M60 34h1v1h-1v-1z" fill="rgb(148,49,49)"/>
<path d="M62 34h1v1h-1v-1z" fill="rgb(16,16,16)"/>
<path d="M63 34h1v1h-1v-1z" fill="rgb(148,49,49)"/>
<path d="M64 34h1v1h-1v-1z" fill="rgb(238,131,98)"/>
<path d="M65 34h3v1h2v1h1v1h1v2h-1v5h-1v1h-5v2h-1v1h-1v-1h-2v-1h-3v-2h-1v-3h1v-2h1v-1h1
	v-1h1v2h2v1h1v1h2v1h2v-1h1v-1h-1v-1h-2v-1h1v-2h-1v-1h-1v-1z" fill="rgb(255,213,172)"/>
<path d="M68 34h1v1h-1v-1z" fill="rgb(255,180,139)"/>
<path d="M69 34h1v1h-1v-1z" fill="rgb(238,131,98)"/>
<path d="M70 34h1v1h-1v-1z" fill="rgb(148,49,49)"/>
<path d="M30 35h1v2h-1v-2z" fill="rgb(148,49,49)"/>
<path d="M31 35h3v1h1v1h-1v1h-1v1h-2v-1h-1v-1h1v-2z" fill="rgb(255,230,205)"/>
<path d="M37 35h2v1h1v1h1v2h1v1h-1v1h-1v1h-1v-2h1v-2h-3v-1h-1v-1h1v-1z" fill="rgb(255,213,172)"/>
<path d="M39 35h1v1h-1v-1z" fill="rgb(255,180,139)"/>
<path d="M44 35h1v1h-1v-1z" fill="rgb(16,16,16)"/>
<path d="M48 35h1v1h-1v-1z" fill="rgb(16,16,16)"/>
<path d="M51 35h1v3h-2v-1h1v-2z" fill="rgb(148,49,49)"/>
<path d="M52 35h2v2h-1v-1h-1v-1z" fill="rgb(255,230,205)"/>
<path d="M54 35h1v1h-1v-1z" fill="rgb(148,49,49)"/>
<path d="M55 35h2v1h-2v-1z" fill="rgb(230,156,0)"/>
<path d="M57 35h1v1h-1v-1z" fill="rgb(148,49,49)"/>
<path d="M60 35h1v1h-1v-1z" fill="rgb(238,131,98)"/>
<path d="M61 35h1v1h-1v-1z" fill="rgb(148,49,49)"/>
<path d="M62 35h1v1h-1v-1z" fill="rgb(238,131,98)"/>
<path d="M63 35h1v1h-1v-1z" fill="rgb(255,213,172)"/>
<path d="M64 35h2v1h1v2h-4v1h-2v-2h1v-1h2v-1z" fill="rgb(255,230,205)"/>
<path d="M70 35h1v1h-1v-1z" fill="rgb(255,180,139)"/>
<path d="M71 35h1v1h-1v-1z" fill="rgb(148,49,49)"/>
<path d="M35 36h1v1h-1v-1z" fill="rgb(238,131,98)"/>
<path d="M40 36h1v1h-1v-1z" fill="rgb(255,180,139)"/>
<path d="M45 36h1v1h-1v-1z" fill="rgb(16,16,16)"/>
<path d="M46 36h4v1h-4v-1z" fill="rgb(148,49,49)"/>
<path d="M52 36h1v1h1v1h-2v-2z" fill="rgb(255,213,172)"/>
<path d="M54 36h2v1h-1v1h-1v-2z" fill="rgb(16,16,16)"/>
<path d="M56 36h1v1h-1v-1z" fill="rgb(148,49,49)"/>
<path d="M57 36h3v1h-2v1h-2v-1h1v-1z" fill="rgb(255,230,205)"/>
<path d="M60 36h1v1h-1v-1z" fill="rgb(148,49,49)"/>
<path d="M61 36h1v1h-1v-1z" fill="rgb(255,213,172)"/>
<path d="M71 36h1v1h-1v-1z" fill="rgb(255,180,139)"/>
<path d="M72 36h1v1h-1v-1z" fill="rgb(148,49,49)"/>
<path d="M29 37h1v4h-1v-4z" fill="rgb(148,49,49)"/>
<path d="M34 37h1v3h1v1h-1v1h1v1h3v1h-1v2h-1v-2h-4v-2h-3v-4h1v1h2v-1h1v-1z" fill="rgb(255,213,172)"/>
<path d="M35 37h2v1h-1v1h-1v-2z" fill="rgb(148,49,49)"/>
<path d="M44 37h2v1h-2v-1z" fill="rgb(148,49,49)"/>
<path d="M46 37h4v1h1v1h1v1h1v4h-2v1h-2v1h-1v2h2v1h1v1h-1v1h-5v-1h-3v-1h1v-1h2v-2h-1v-1
	h-2v-1h-2v-2h1v-1h1v2h1v1h2v-1h2v-1h1v-2h-1v-1h-3v-1h2v-1z" fill="rgb(255,213,172)"/>
<path d="M55 37h1v1h-1v-1z" fill="rgb(238,131,98)"/>
<path d="M58 37h1v1h-1v-1z" fill="rgb(255,213,172)"/>
<path d="M59 37h1v1h-1v-1z" fill="rgb(148,49,49)"/>
<path d="M72 37h1v1h-1v-1z" fill="rgb(16,16,16)"/>
<path d="M36 38h1v2h-1v-2z" fill="rgb(255,213,172)"/>
<path d="M37 38h1v1h-1v-1z" fill="rgb(238,131,98)"/>
<path d="M38 38h1v1h-1v-1z" fill="rgb(148,49,49)"/>
<path d="M39 38h1v1h-1v-1z" fill="rgb(255,180,139)"/>
<path d="M41 38h1v1h-1v-1z" fill="rgb(255,180,139)"/>
<path d="M43 38h1v1h-1v-1z" fill="rgb(148,49,49)"/>
<path d="M51 38h1v1h-1v-1z" fill="rgb(255,180,139)"/>
<path d="M52 38h1v1h-1v-1z" fill="rgb(16,16,16)"/>
<path d="M53 38h1v1h-1v-1z" fill="rgb(238,131,98)"/>
<path d="M54 38h1v2h-1v-2z" fill="rgb(255,213,172)"/>
<path d="M55 38h1v1h-1v-1z" fill="rgb(148,49,49)"/>
<path d="M56 38h2v1h-1v1h-1v-2z" fill="rgb(255,213,172)"/>
<path d="M58 38h1v1h-1v-1z" fill="rgb(148,49,49)"/>
<path d="M63 38h2v1h-1v1h-1v-2z" fill="rgb(238,131,98)"/>
<path d="M65 38h1v1h-1v-1z" fill="rgb(255,180,139)"/>
<path d="M72 38h1v5h-1v-5z" fill="rgb(148,49,49)"/>
<path d="M73 38h1v2h-1v-2z" fill="rgb(16,16,16)"/>
<path d="M35 39h1v1h-1v-1z" fill="rgb(238,131,98)"/>
<path d="M37 39h1v1h-1v-1z" fill="rgb(148,49,49)"/>
<path d="M38 39h1v2h-1v-2z" fill="rgb(255,255,255)"/>
<path d="M39 39h1v1h-1v-1z" fill="rgb(238,131,98)"/>
<path d="M42 39h1v1h-1v-1z" fill="rgb(148,49,49)"/>
<path d="M43 39h1v1h-1v-1z" fill="rgb(255,213,172)"/>
<path d="M44 39h3v1h1v2h-1v1h-2v1h-2v-1h-1v-2h1v-1h1v-1z" fill="rgb(255,230,205)"/>
<path d="M52 39h1v1h-1v-1z" fill="rgb(255,180,139)"/>
<path d="M53 39h1v1h-1v-1z" fill="rgb(16,16,16)"/>
<path d="M55 39h1v1h-1v-1z" fill="rgb(238,131,98)"/>
<path d="M57 39h1v1h-1v-1z" fill="rgb(148,49,49)"/>
<path d="M64 39h2v2h-2v-2z" fill="rgb(255,255,255)"/>
<path d="M66 39h2v1h-2v-1z" fill="rgb(238,131,98)"/>
<path d="M71 39h1v3h-1v-3z" fill="rgb(255,180,139)"/>
<path d="M36 40h1v2h-1v-2z" fill="rgb(16,16,16)"/>
<path d="M37 40h1v1h-1v-1z" fill="rgb(222,222,222)"/>
<path d="M41 40h1v1h-1v-1z" fill="rgb(148,49,49)"/>
<path d="M42 40h1v1h-1v-1z" fill="rgb(255,213,172)"/>
<path d="M53 40h1v2h1v2h1v2h-1v1h-1v-3h-1v-4z" fill="rgb(255,180,139)"/>
<path d="M54 40h1v1h-1v-1z" fill="rgb(16,16,16)"/>
<path d="M55 40h1v1h-1v-1z" fill="rgb(255,180,139)"/>
<path d="M56 40h1v1h-1v-1z" fill="rgb(238,131,98)"/>
<path d="M57 40h1v1h-1v-1z" fill="rgb(16,16,16)"/>
<path d="M66 40h2v1h-2v-1z" fill="rgb(16,16,16)"/>
<path d="M68 40h1v1h-1v-1z" fill="rgb(148,49,49)"/>
<path d="M73 40h1v3h-1v-3z" fill="rgb(238,131,98)"/>
<path d="M74 40h1v9h-1v-9z" fill="rgb(16,16,16)"/>
<path d="M29 41h1v2h-1v-2z" fill="rgb(16,16,16)"/>
<path d="M35 41h1v1h-1v-1z" fill="rgb(148,49,49)"/>
<path d="M37 41h1v1h-1v-1z" fill="rgb(255,255,255)"/>
<path d="M38 41h1v1h-1v-1z" fill="rgb(222,222,222)"/>
<path d="M40 41h1v1h-1v-1z" fill="rgb(148,49,49)"/>
<path d="M54 41h1v1h-1v-1z" fill="rgb(238,131,98)"/>
<path d="M55 41h1v1h-1v-1z" fill="rgb(16,16,16)"/>
<path d="M56 41h1v1h-1v-1z" fill="rgb(148,49,49)"/>
<path d="M66 41h1v1h-1v-1z" fill="rgb(222,222,222)"/>
<path d="M67 41h1v1h-1v-1z" fill="rgb(255,255,255)"/>
<path d="M30 42h3v1h-3v-1z" fill="rgb(148,49,49)"/>
<path d="M36 42h1v1h-1v-1z" fill="rgb(222,222,222)"/>
<path d="M37 42h1v1h-1v-1z" fill="rgb(148,49,49)"/>
<path d="M38 42h1v1h-1v-1z" fill="rgb(238,131,98)"/>
<path d="M39 42h1v2h-1v-2z" fill="rgb(16,16,16)"/>
<path d="M55 42h1v2h-1v-2z" fill="rgb(238,131,98)"/>
<path d="M56 42h1v2h-1v-2z" fill="rgb(16,16,16)"/>
<path d="M71 42h1v1h-1v-1z" fill="rgb(238,131,98)"/>
<path d="M29 43h1v1h-1v-1z" fill="rgb(148,49,49)"/>
<path d="M30 43h1v1h-1v-1z" fill="rgb(255,255,255)"/>
<path d="M31 43h1v1h-1v-1z" fill="rgb(16,16,16)"/>
<path d="M32 43h1v1h-1v-1z" fill="rgb(222,222,222)"/>
<path d="M71 43h1v1h2v1h-3v-2z" fill="rgb(222,222,222)"/>
<path d="M72 43h1v1h-1v-1z" fill="rgb(16,16,16)"/>
<path d="M73 43h1v1h-1v-1z" fill="rgb(148,49,49)"/>
<path d="M30 44h5v1h-5v-1z" fill="rgb(148,49,49)"/>
<path d="M35 44h1v1h-1v-1z" fill="rgb(255,180,139)"/>
<path d="M36 44h1v2h-1v-2z" fill="rgb(16,16,16)"/>
<path d="M38 44h1v2h-1v-2z" fill="rgb(16,16,16)"/>
<path d="M39 44h1v5h-1v-2h-1v-1h1v-2z" fill="rgb(255,213,172)"/>
<path d="M40 44h1v2h-1v-2z" fill="rgb(238,131,98)"/>
<path d="M41 44h1v1h-1v-1z" fill="rgb(148,49,49)"/>
<path d="M51 44h1v1h-1v-1z" fill="rgb(238,131,98)"/>
<path d="M52 44h2v1h-2v-1z" fill="rgb(148,49,49)"/>
<path d="M56 44h1v2h-1v-2z" fill="rgb(238,131,98)"/>
<path d="M57 44h1v2h1v1h-3v-1h1v-2z" fill="rgb(16,16,16)"/>
<path d="M70 44h1v1h1v3h-1v2h-1v1h-1v1h-1v-1h-1v-1h-1v-1h-1v-2h2v1h3v-4z" fill="rgb(238,131,98)"/>
<path d="M29 45h1v1h-1v-1z" fill="rgb(148,49,49)"/>
<path d="M30 45h1v1h-1v-1z" fill="rgb(238,131,98)"/>
<path d="M31 45h1v2h-1v-2z" fill="rgb(255,213,172)"/>
<path d="M32 45h1v1h-1v-1z" fill="rgb(238,131,98)"/>
<path d="M33 45h2v1h2v1h-1v1h-1v-1h-1v-1h-1v-1z" fill="rgb(255,180,139)"/>
<path d="M35 45h1v1h-1v-1z" fill="rgb(148,49,49)"/>
<path d="M41 45h1v1h1v2h-2v-3z" fill="rgb(255,255,255)"/>
<path d="M42 45h1v1h-1v-1z" fill="rgb(222,222,222)"/>
<path d="M43 45h1v1h-1v-1z" fill="rgb(238,131,98)"/>
<path d="M49 45h2v1h-2v-1z" fill="rgb(238,131,98)"/>
<path d="M51 45h1v1h-1v-1z" fill="rgb(222,222,222)"/>
<path d="M52 45h1v4h-2v-1h-1v-1h1v-1h1v-1z" fill="rgb(255,255,255)"/>
<path d="M53 45h1v2h-1v-2z" fill="rgb(238,131,98)"/>
<path d="M65 45h4v1h1v2h-3v-1h-2v-2z" fill="rgb(148,49,49)"/>
<path d="M69 45h1v1h-1v-1z" fill="rgb(255,180,139)"/>
<path d="M72 45h1v3h-1v-3z" fill="rgb(148,49,49)"/>
<path d="M73 45h1v4h-1v2h-1v1h-1v1h-2v-1h1v-1h1v-1h1v-2h1v-3z" fill="rgb(238,131,98)"/>
<path d="M27 46h1v1h-1v-1z" fill="rgb(148,49,49)"/>
<path d="M28 46h1v1h-1v-1z" fill="rgb(238,131,98)"/>
<path d="M29 46h2v1h1v2h-1v1h-3v-1h-1v-2h2v-1z" fill="rgb(255,230,205)"/>
<path d="M32 46h1v1h-1v-1z" fill="rgb(148,49,49)"/>
<path d="M33 46h1v1h-1v-1z" fill="rgb(255,213,172)"/>
<path d="M37 46h1v1h-1v-1z" fill="rgb(16,16,16)"/>
<path d="M40 46h1v2h-1v-2z" fill="rgb(222,222,222)"/>
<path d="M43 46h1v2h-1v-2z" fill="rgb(16,16,16)"/>
<path d="M44 46h1v1h-1v-1z" fill="rgb(148,49,49)"/>
<path d="M48 46h1v1h-1v-1z" fill="rgb(238,131,98)"/>
<path d="M49 46h1v2h-1v-2z" fill="rgb(16,16,16)"/>
<path d="M50 46h1v1h-1v-1z" fill="rgb(222,222,222)"/>
<path d="M55 46h1v1h-1v-1z" fill="rgb(148,49,49)"/>
<path d="M59 46h2v1h-2v-1z" fill="rgb(148,49,49)"/>
<path d="M26 47h1v1h-1v-1z" fill="rgb(238,131,98)"/>
<path d="M32 47h1v3h-1v1h-2v2h1v1h1v1h2v-1h1v-1h1v4h-1v1h-1v1h-1v1h-2v1h-5v-1h-2v-1h-1
	v-1h-1v-4h1v-2h1v1h2v-1h1v-2h-1v-2h1v1h1v1h3v-1h1v-2z" fill="rgb(255,213,172)"/>
<path d="M33 47h1v1h-1v-1z" fill="rgb(238,131,98)"/>
<path d="M34 47h1v2h-1v-2z" fill="rgb(255,213,172)"/>
<path d="M36 47h1v1h-1v-1z" fill="rgb(148,49,49)"/>
<path d="M37 47h1v1h-1v-1z" fill="rgb(238,131,98)"/>
<path d="M38 47h1v2h-1v-2z" fill="rgb(16,16,16)"/>
<path d="M44 47h1v1h-1v-1z" fill="rgb(255,255,255)"/>
<path d="M48 47h1v1h-1v-1z" fill="rgb(255,255,255)"/>
<path d="M53 47h1v1h-1v-1z" fill="rgb(222,222,222)"/>
<path d="M54 47h1v1h-1v-1z" fill="rgb(148,49,49)"/>
<path d="M55 47h1v1h-1v-1z" fill="rgb(255,180,139)"/>
<path d="M56 47h4v1h2v4h1v1h1v-1h1v-1h2v1h1v3h-1v-1h-2v1h-1v1h-1v2h1v-2h1v-1h2v3h-1v1h-1
	v1h-2v1h-3v-4h-1v2h-1v1h-2v-1h-1v-1h-1v-1h-1v-1h-1v-4h1v2h2v1h1v1h1v1h1v-1h1
	v-1h1v-1h1v-1h-4v-3h-1v-1h-2v-1h2v-1z" fill="rgb(255,213,172)"/>
<path d="M60 47h1v1h-1v-1z" fill="rgb(255,180,139)"/>
<path d="M61 47h2v4h-1v-3h-1v-1z" fill="rgb(148,49,49)"/>
<path d="M64 47h1v1h-1v-1z" fill="rgb(255,180,139)"/>
<path d="M25 48h1v1h-1v-1z" fill="rgb(238,131,98)"/>
<path d="M33 48h1v1h1v1h-2v-2z" fill="rgb(148,49,49)"/>
<path d="M35 48h1v1h-1v-1z" fill="rgb(238,131,98)"/>
<path d="M36 48h2v7h-1v2h-1v-9z" fill="rgb(255,180,139)"/>
<path d="M40 48h2v1h-2v-1z" fill="rgb(238,131,98)"/>
<path d="M42 48h1v1h-1v-1z" fill="rgb(222,222,222)"/>
<path d="M50 48h1v1h-1v-1z" fill="rgb(222,222,222)"/>
<path d="M53 48h1v2h-1v-2z" fill="rgb(148,49,49)"/>
<path d="M63 48h1v1h-1v-1z" fill="rgb(238,131,98)"/>
<path d="M64 48h1v1h-1v-1z" fill="rgb(148,49,49)"/>
<path d="M71 48h1v2h-1v-2z" fill="rgb(148,49,49)"/>
<path d="M24 49h1v1h-1v-1z" fill="rgb(238,131,98)"/>
<path d="M25 49h1v1h-1v-1z" fill="rgb(148,49,49)"/>
<path d="M35 49h1v2h-3v-1h2v-1z" fill="rgb(255,213,172)"/>
<path d="M38 49h1v3h1v7h-1v2h-1v1h-1v1h-2v1h-7v-1h-2v-1h-1v-1h7v-1h2v-1h1v-1h1v-1h1v-2h1
	v-6z" fill="rgb(238,131,98)"/>
<path d="M39 49h1v3h-1v-3z" fill="rgb(16,16,16)"/>
<path d="M40 49h1v1h1v1h3v1h5v-1h1v-1h1v2h-1v2h-1v1h-2v1h-4v-1h-2v-1h-1v-2h-1v-3z" fill="rgb(255,213,172)"/>
<path d="M41 49h1v1h-1v-1z" fill="rgb(148,49,49)"/>
<path d="M51 49h2v1h-2v-1z" fill="rgb(238,131,98)"/>
<path d="M54 49h2v1h1v3h-3v1h-1v-4h1v-1z" fill="rgb(255,230,205)"/>
<path d="M63 49h2v1h-2v-1z" fill="rgb(222,222,222)"/>
<path d="M65 49h1v1h-1v-1z" fill="rgb(148,49,49)"/>
<path d="M73 49h1v2h-1v-2z" fill="rgb(16,16,16)"/>
<path d="M23 50h1v1h-1v-1z" fill="rgb(148,49,49)"/>
<path d="M24 50h1v1h1v1h-2v-2z" fill="rgb(255,255,255)"/>
<path d="M25 50h1v1h-1v-1z" fill="rgb(222,222,222)"/>
<path d="M26 50h1v1h-1v-1z" fill="rgb(148,49,49)"/>
<path d="M32 50h1v2h-3v-1h2v-1z" fill="rgb(148,49,49)"/>
<path d="M42 50h2v1h-2v-1z" fill="rgb(148,49,49)"/>
<path d="M44 50h1v1h-1v-1z" fill="rgb(238,131,98)"/>
<path d="M50 50h1v1h-1v-1z" fill="rgb(148,49,49)"/>
<path d="M52 50h1v1h-1v-1z" fill="rgb(16,16,16)"/>
<path d="M63 50h1v1h-1v-1z" fill="rgb(16,16,16)"/>
<path d="M64 50h1v1h-1v-1z" fill="rgb(255,255,255)"/>
<path d="M65 50h1v1h-1v-1z" fill="rgb(238,131,98)"/>
<path d="M66 50h1v1h-1v-1z" fill="rgb(148,49,49)"/>
<path d="M70 50h1v1h-1v-1z" fill="rgb(148,49,49)"/>
<path d="M23 51h1v1h-1v-1z" fill="rgb(238,131,98)"/>
<path d="M26 51h1v1h-1v-1z" fill="rgb(16,16,16)"/>
<path d="M33 51h1v1h-1v-1z" fill="rgb(238,131,98)"/>
<path d="M34 51h2v1h-2v-1z" fill="rgb(148,49,49)"/>
<path d="M45 51h1v1h-1v-1z" fill="rgb(238,131,98)"/>
<path d="M46 51h4v1h-4v-1z" fill="rgb(148,49,49)"/>
<path d="M52 51h1v1h-1v-1z" fill="rgb(148,49,49)"/>
<path d="M62 51h1v1h-1v-1z" fill="rgb(238,131,98)"/>
<path d="M63 51h1v1h-1v-1z" fill="rgb(255,255,255)"/>
<path d="M64 51h1v1h-1v-1z" fill="rgb(255,180,139)"/>
<path d="M67 51h1v1h-1v-1z" fill="rgb(16,16,16)"/>
<path d="M69 51h1v1h-1v-1z" fill="rgb(16,16,16)"/>
<path d="M72 51h1v1h-1v-1z" fill="rgb(16,16,16)"/>
<path d="M22 52h1v1h-1v-1z" fill="rgb(148,49,49)"/>
<path d="M24 52h1v1h-1v-1z" fill="rgb(238,131,98)"/>
<path d="M25 52h1v1h-1v-1z" fill="rgb(222,222,222)"/>
<path d="M30 52h1v1h-1v-1z" fill="rgb(255,255,255)"/>
<path d="M31 52h1v1h-1v-1z" fill="rgb(16,16,16)"/>
<path d="M32 52h2v2h-3v-1h1v-1z" fill="rgb(255,255,255)"/>
<path d="M34 52h1v1h-1v-1z" fill="rgb(222,222,222)"/>
<path d="M35 52h1v1h-1v-1z" fill="rgb(238,131,98)"/>
<path d="M40 52h1v7h-1v-7z" fill="rgb(16,16,16)"/>
<path d="M51 52h1v6h-1v-6z" fill="rgb(16,16,16)"/>
<path d="M63 52h1v1h-1v-1z" fill="rgb(238,131,98)"/>
<path d="M68 52h1v1h-1v-1z" fill="rgb(16,16,16)"/>
<path d="M71 52h1v1h-1v-1z" fill="rgb(16,16,16)"/>
<path d="M22 53h1v1h-1v-1z" fill="rgb(238,131,98)"/>
<path d="M34 53h1v1h-1v-1z" fill="rgb(238,131,98)"/>
<path d="M54 53h1v1h-1v-1z" fill="rgb(238,131,98)"/>
<path d="M55 53h5v1h-5v-1z" fill="rgb(148,49,49)"/>
<path d="M60 53h1v1h-1v-1z" fill="rgb(238,131,98)"/>
<path d="M68 53h1v2h1v5h-1v2h-1v1h-1v1h-2v1h-4v-2h-1v-1h-1v-1h5v-1h2v-1h1v-2h1v-4z" fill="rgb(238,131,98)"/>
<path d="M69 53h2v1h-1v1h-1v-2z" fill="rgb(16,16,16)"/>
<path d="M21 54h1v4h-1v-4z" fill="rgb(148,49,49)"/>
<path d="M32 54h2v1h-2v-1z" fill="rgb(238,131,98)"/>
<path d="M41 54h1v1h-1v-1z" fill="rgb(255,180,139)"/>
<path d="M50 54h1v1h-1v-1z" fill="rgb(255,180,139)"/>
<path d="M55 54h1v1h-1v-1z" fill="rgb(238,131,98)"/>
<path d="M56 54h2v1h1v1h-2v-1h-1v-1z" fill="rgb(255,255,255)"/>
<path d="M58 54h1v1h-1v-1z" fill="rgb(16,16,16)"/>
<path d="M59 54h1v1h-1v-1z" fill="rgb(255,255,255)"/>
<path d="M65 54h1v1h-1v-1z" fill="rgb(148,49,49)"/>
<path d="M66 54h1v1h-1v-1z" fill="rgb(238,131,98)"/>
<path d="M24 55h2v1h-2v-1z" fill="rgb(148,49,49)"/>
<path d="M26 55h1v1h-1v-1z" fill="rgb(238,131,98)"/>
<path d="M41 55h1v1h7v-1h2v3h1v2h-1v1h-7v-1h-2v-1h-1v-4z" fill="rgb(238,131,98)"/>
<path d="M42 55h2v1h-2v-1z" fill="rgb(255,180,139)"/>
<path d="M48 55h1v1h-1v-1z" fill="rgb(255,180,139)"/>
<path d="M56 55h1v1h-1v-1z" fill="rgb(238,131,98)"/>
<path d="M64 55h1v1h-1v-1z" fill="rgb(148,49,49)"/>
<path d="M67 55h1v2h-1v-2z" fill="rgb(255,180,139)"/>
<path d="M70 55h1v1h-1v-1z" fill="rgb(148,49,49)"/>
<path d="M27 56h1v1h-1v-1z" fill="rgb(238,131,98)"/>
<path d="M28 56h1v1h-1v-1z" fill="rgb(148,49,49)"/>
<path d="M52 56h1v2h-1v-2z" fill="rgb(238,131,98)"/>
<path d="M57 56h1v1h-1v-1z" fill="rgb(255,180,139)"/>
<path d="M63 56h1v1h-1v-1z" fill="rgb(148,49,49)"/>
<path d="M70 56h1v4h-1v-4z" fill="rgb(16,16,16)"/>
<path d="M29 57h1v1h-1v-1z" fill="rgb(148,49,49)"/>
<path d="M35 57h1v1h-1v-1z" fill="rgb(255,180,139)"/>
<path d="M53 57h1v1h-1v-1z" fill="rgb(255,180,139)"/>
<path d="M59 57h1v2h-1v-2z" fill="rgb(238,131,98)"/>
<path d="M63 57h1v1h-1v-1z" fill="rgb(238,131,98)"/>
<path d="M22 58h1v2h-1v-2z" fill="rgb(148,49,49)"/>
<path d="M34 58h1v1h-1v-1z" fill="rgb(255,180,139)"/>
<path d="M52 58h1v2h1v2h-1v-1h-2v-1h1v-2z" fill="rgb(16,16,16)"/>
<path d="M53 58h1v2h-1v-2z" fill="rgb(238,131,98)"/>
<path d="M54 58h1v1h-1v-1z" fill="rgb(255,180,139)"/>
<path d="M66 58h1v1h-1v-1z" fill="rgb(255,180,139)"/>
<path d="M23 59h1v1h-1v-1z" fill="rgb(255,180,139)"/>
<path d="M33 59h1v1h-1v-1z" fill="rgb(255,180,139)"/>
<path d="M39 59h1v2h-1v-2z" fill="rgb(16,16,16)"/>
<path d="M41 59h1v1h-1v-1z" fill="rgb(16,16,16)"/>
<path d="M54 59h1v1h-1v-1z" fill="rgb(148,49,49)"/>
<path d="M55 59h1v1h-1v-1z" fill="rgb(255,180,139)"/>
<path d="M58 59h1v1h-1v-1z" fill="rgb(255,180,139)"/>
<path d="M59 59h1v1h-1v-1z" fill="rgb(148,49,49)"/>
<path d="M65 59h1v1h-1v-1z" fill="rgb(255,180,139)"/>
<path d="M23 60h1v1h-1v-1z" fill="rgb(148,49,49)"/>
<path d="M24 60h2v1h-2v-1z" fill="rgb(255,180,139)"/>
<path d="M31 60h1v1h-1v-1z" fill="rgb(255,180,139)"/>
<path d="M42 60h1v1h-1v-1z" fill="rgb(16,16,16)"/>
<path d="M43 60h1v1h-1v-1z" fill="rgb(148,49,49)"/>
<path d="M54 60h1v1h-1v-1z" fill="rgb(255,180,139)"/>
<path d="M55 60h1v1h-1v-1z" fill="rgb(148,49,49)"/>
<path d="M56 60h1v1h-1v-1z" fill="rgb(238,131,98)"/>
<path d="M57 60h1v2h-1v-2z" fill="rgb(255,180,139)"/>
<path d="M58 60h1v1h-1v-1z" fill="rgb(238,131,98)"/>
<path d="M59 60h1v1h-1v-1z" fill="rgb(255,180,139)"/>
<path d="M63 60h1v1h-1v-1z" fill="rgb(255,180,139)"/>
<path d="M69 60h1v2h-1v-2z" fill="rgb(16,16,16)"/>
<path d="M24 61h1v1h-1v-1z" fill="rgb(148,49,49)"/>
<path d="M38 61h1v1h-1v-1z" fill="rgb(16,16,16)"/>
<path d="M44 61h1v1h-1v-1z" fill="rgb(148,49,49)"/>
<path d="M45 61h5v1h-5v-1z" fill="rgb(16,16,16)"/>
<path d="M50 61h1v1h-1v-1z" fill="rgb(148,49,49)"/>
<path d="M54 61h1v1h-1v-1z" fill="rgb(238,131,98)"/>
<path d="M55 61h1v1h-1v-1z" fill="rgb(255,180,139)"/>
<path d="M56 61h1v1h-1v-1z" fill="rgb(148,49,49)"/>
<path d="M58 61h1v1h1v1h-3v-1h1v-1z" fill="rgb(148,49,49)"/>
<path d="M25 62h1v1h-1v-1z" fill="rgb(148,49,49)"/>
<path d="M37 62h1v1h-1v-1z" fill="rgb(16,16,16)"/>
<path d="M54 62h1v1h-1v-1z" fill="rgb(16,16,16)"/>
<path d="M55 62h2v1h3v2h-2v-1h-2v-1h-1v-1z" fill="rgb(238,131,98)"/>
<path d="M68 62h1v1h-1v-1z" fill="rgb(16,16,16)"/>
<path d="M26 63h1v1h-1v-1z" fill="rgb(16,16,16)"/>
<path d="M27 63h1v1h-1v-1z" fill="rgb(148,49,49)"/>
<path d="M35 63h1v1h-1v-1z" fill="rgb(148,49,49)"/>
<path d="M36 63h1v1h-1v-1z" fill="rgb(16,16,16)"/>
<path d="M55 63h1v1h-1v-1z" fill="rgb(16,16,16)"/>
<path d="M60 63h1v2h-1v-2z" fill="rgb(148,49,49)"/>
<path d="M67 63h1v1h-1v-1z" fill="rgb(16,16,16)"/>
<path d="M28 64h7v1h-7v-1z" fill="rgb(16,16,16)"/>
<path d="M56 64h2v1h-2v-1z" fill="rgb(16,16,16)"/>
<path d="M65 64h1v1h-1v-1z" fill="rgb(148,49,49)"/>
<path d="M66 64h1v1h-1v-1z" fill="rgb(16,16,16)"/>
<path d="M58 65h7v1h-7v-1z" fill="rgb(16,16,16)"/>
</svg>
