<?xml version="1.0" encoding="utf-8"?>
<!-- generated at drububu.com  -->
<!DOCTYPE svg PUBLIC "-//W3C//DTD SVG 1.1//EN" "http://www.w3.org/Graphics/SVG/1.1/DTD/svg11.dtd">
<svg version="1.1" preserveAspectRatio="xMinYMin meet" xmlns="http://www.w3.org/2000/svg" xmlns:xlink="http://www.w3.org/1999/xlink" x="0px" y="0px" width="96px" height="96px" viewBox="0 0 96 96">
<path d="M0 0h96v96h-96v-96z" fill="transparent"/>
<path d="M30 15h4v1h-4v-1z" fill="rgb(82,98,41)"/>
<path d="M59 15h3v1h-3v-1z" fill="rgb(82,98,41)"/>
<path d="M62 15h1v1h-1v-1z" fill="rgb(16,16,16)"/>
<path d="M28 16h2v1h-2v-1z" fill="rgb(16,16,16)"/>
<path d="M30 16h4v1h3v1h1v1h2v1h1v1h1v1h1v2h1v4h-1v-1h-1v-1h-1v-1h-1v-1h-1v-1h-1v-1h-1
	v-1h-1v-1h-1v-1h-1v-1h-2v-1h-2v-1z" fill="rgb(156,213,74)"/>
<path d="M34 16h3v1h-3v-1z" fill="rgb(82,98,41)"/>
<path d="M48 16h2v5h-1v-4h-1v-1z" fill="rgb(82,98,41)"/>
<path d="M57 16h2v1h-2v-1z" fill="rgb(82,98,41)"/>
<path d="M59 16h2v1h-1v1h-1v1h-1v1h-1v1h-1v1h-1v1h-1v2h-1v1h-1v2h-2v-2h1v-2h1v-2h1v-1h1
	v-1h1v-1h1v-1h1v-1h2v-1z" fill="rgb(156,213,74)"/>
<path d="M61 16h1v1h-1v-1z" fill="rgb(16,16,16)"/>
<path d="M30 17h2v1h-2v-1z" fill="rgb(16,16,16)"/>
<path d="M37 17h1v1h-1v-1z" fill="rgb(82,98,41)"/>
<path d="M47 17h1v2h-1v-2z" fill="rgb(82,98,41)"/>
<path d="M48 17h1v3h-1v3h-1v3h-1v3h-1v-5h1v-2h1v-3h1v-2z" fill="rgb(156,213,74)"/>
<path d="M56 17h1v1h-1v-1z" fill="rgb(82,98,41)"/>
<path d="M60 17h1v1h-1v-1z" fill="rgb(16,16,16)"/>
<path d="M32 18h2v1h-2v-1z" fill="rgb(16,16,16)"/>
<path d="M38 18h2v1h-2v-1z" fill="rgb(82,98,41)"/>
<path d="M55 18h1v1h-1v-1z" fill="rgb(82,98,41)"/>
<path d="M59 18h1v1h-1v-1z" fill="rgb(16,16,16)"/>
<path d="M34 19h1v1h-1v-1z" fill="rgb(16,16,16)"/>
<path d="M40 19h1v1h-1v-1z" fill="rgb(82,98,41)"/>
<path d="M46 19h1v3h-1v-3z" fill="rgb(82,98,41)"/>
<path d="M54 19h1v1h-1v-1z" fill="rgb(82,98,41)"/>
<path d="M58 19h1v1h-1v-1z" fill="rgb(16,16,16)"/>
<path d="M35 20h1v1h-1v-1z" fill="rgb(16,16,16)"/>
<path d="M41 20h1v1h-1v-1z" fill="rgb(82,98,41)"/>
<path d="M48 20h1v1h-1v-1z" fill="rgb(115,172,49)"/>
<path d="M53 20h1v1h-1v-1z" fill="rgb(82,98,41)"/>
<path d="M57 20h1v2h-1v-2z" fill="rgb(16,16,16)"/>
<path d="M36 21h1v1h-1v-1z" fill="rgb(16,16,16)"/>
<path d="M42 21h1v1h-1v-1z" fill="rgb(82,98,41)"/>
<path d="M48 21h1v4h-1v-4z" fill="rgb(82,98,41)"/>
<path d="M52 21h1v1h-1v-1z" fill="rgb(82,98,41)"/>
<path d="M56 21h1v1h-1v-1z" fill="rgb(115,172,49)"/>
<path d="M22 22h10v1h-10v-1z" fill="rgb(82,98,41)"/>
<path d="M37 22h1v1h-1v-1z" fill="rgb(16,16,16)"/>
<path d="M43 22h1v2h-1v-2z" fill="rgb(82,98,41)"/>
<path d="M45 22h1v2h-1v-2z" fill="rgb(82,98,41)"/>
<path d="M51 22h1v2h-1v-2z" fill="rgb(82,98,41)"/>
<path d="M55 22h1v2h-1v2h-1v4h-1v2h1v-1h1v-1h1v-1h1v1h2v-1h2v1h-1v1h-2v1h-1v1h-2v1h-1v1
	h-1v1h1v-1h1v-1h2v-1h1v-1h2v-1h2v1h2v1h2v1h-3v1h-2v1h-3v1h-2v1h-4v1h-2v1h-1v1
	h-1v2h-2v-1h-1v-1h-2v-1h-3v-1h-2v-1h-3v-1h-5v-1h3v-1h2v-1h2v1h2v1h2v1h1v-2h-1v-2
	h-1v-1h-1v-1h2v-2h1v-1h-1v-1h-1v-2h1v1h1v1h1v1h1v-1h1v2h1v-3h1v-3h1v2h1v4h1v-1
	h2v-2h1v-1h1v-2h1v-1z" fill="rgb(115,172,49)"/>
<path d="M56 22h1v2h-1v-2z" fill="rgb(16,16,16)"/>
<path d="M20 23h2v1h-2v-1z" fill="rgb(82,98,41)"/>
<path d="M22 23h10v1h3v1h2v1h1v1h2v1h1v3h-3v-1h-1v-1h-1v-1h-1v-1h-2v-1h-3v-1h-3v-1h-5v-1
	z" fill="rgb(156,213,74)"/>
<path d="M32 23h3v1h-3v-1z" fill="rgb(82,98,41)"/>
<path d="M38 23h1v2h-1v-2z" fill="rgb(16,16,16)"/>
<path d="M65 23h6v1h-6v-1z" fill="rgb(82,98,41)"/>
<path d="M19 24h8v1h-8v-1z" fill="rgb(16,16,16)"/>
<path d="M35 24h2v1h-2v-1z" fill="rgb(82,98,41)"/>
<path d="M39 24h1v1h-1v-1z" fill="rgb(115,172,49)"/>
<path d="M44 24h1v3h-1v-3z" fill="rgb(82,98,41)"/>
<path d="M50 24h1v2h-1v3h-1v-4h1v-1z" fill="rgb(82,98,41)"/>
<path d="M55 24h1v2h-1v-2z" fill="rgb(16,16,16)"/>
<path d="M62 24h3v1h-3v-1z" fill="rgb(82,98,41)"/>
<path d="M65 24h6v1h-3v1h-2v1h-2v1h-1v1h-4v1h-2v-1h1v-1h1v-1h1v-1h2v-1h3v-1z" fill="rgb(156,213,74)"/>
<path d="M71 24h2v1h-2v-1z" fill="rgb(16,16,16)"/>
<path d="M27 25h3v1h-3v-1z" fill="rgb(16,16,16)"/>
<path d="M37 25h2v1h-2v-1z" fill="rgb(82,98,41)"/>
<path d="M39 25h1v2h-1v-2z" fill="rgb(16,16,16)"/>
<path d="M60 25h2v1h-2v-1z" fill="rgb(82,98,41)"/>
<path d="M68 25h3v1h-3v-1z" fill="rgb(16,16,16)"/>
<path d="M30 26h3v1h-3v-1z" fill="rgb(16,16,16)"/>
<path d="M38 26h1v1h-1v-1z" fill="rgb(115,172,49)"/>
<path d="M54 26h1v3h1v1h-1v1h-1v1h-1v-2h1v-4z" fill="rgb(16,16,16)"/>
<path d="M58 26h2v1h-2v-1z" fill="rgb(82,98,41)"/>
<path d="M66 26h2v1h-2v-1z" fill="rgb(16,16,16)"/>
<path d="M33 27h2v1h-2v-1z" fill="rgb(16,16,16)"/>
<path d="M40 27h1v1h-1v-1z" fill="rgb(82,98,41)"/>
<path d="M57 27h1v1h-1v-1z" fill="rgb(16,16,16)"/>
<path d="M58 27h1v1h-1v-1z" fill="rgb(115,172,49)"/>
<path d="M64 27h2v1h-2v-1z" fill="rgb(16,16,16)"/>
<path d="M23 28h9v1h-9v-1z" fill="rgb(82,98,41)"/>
<path d="M35 28h1v1h-1v-1z" fill="rgb(16,16,16)"/>
<path d="M41 28h1v1h-1v-1z" fill="rgb(82,98,41)"/>
<path d="M56 28h1v1h-1v-1z" fill="rgb(16,16,16)"/>
<path d="M57 28h1v1h-1v-1z" fill="rgb(115,172,49)"/>
<path d="M63 28h1v2h-2v1h-2v-1h1v-1h2v-1z" fill="rgb(16,16,16)"/>
<path d="M20 29h3v1h-3v-1z" fill="rgb(82,98,41)"/>
<path d="M23 29h9v1h-2v1h-10v-1h3v-1z" fill="rgb(156,213,74)"/>
<path d="M32 29h3v1h-3v-1z" fill="rgb(82,98,41)"/>
<path d="M35 29h1v1h-1v-1z" fill="transparent"/>
<path d="M36 29h1v1h-1v-1z" fill="rgb(16,16,16)"/>
<path d="M42 29h1v1h-1v-1z" fill="rgb(82,98,41)"/>
<path d="M64 29h7v1h-7v-1z" fill="rgb(82,98,41)"/>
<path d="M18 30h2v1h-2v-1z" fill="rgb(82,98,41)"/>
<path d="M30 30h5v1h3v1h1v2h-2v-1h-4v-1h-4v-1h1v-1z" fill="rgb(115,172,49)"/>
<path d="M35 30h2v1h-2v-1z" fill="rgb(82,98,41)"/>
<path d="M37 30h1v1h-1v-1z" fill="rgb(16,16,16)"/>
<path d="M43 30h1v1h-1v-1z" fill="rgb(16,16,16)"/>
<path d="M62 30h9v1h3v1h2v1h2v1h-4v-1h-10v-1h-2v-2z" fill="rgb(156,213,74)"/>
<path d="M71 30h3v1h-3v-1z" fill="rgb(82,98,41)"/>
<path d="M17 31h12v1h-12v-1z" fill="rgb(16,16,16)"/>
<path d="M38 31h1v1h-1v-1z" fill="rgb(16,16,16)"/>
<path d="M58 31h2v1h-2v-1z" fill="rgb(16,16,16)"/>
<path d="M74 31h2v1h-2v-1z" fill="rgb(82,98,41)"/>
<path d="M29 32h4v1h-4v-1z" fill="rgb(16,16,16)"/>
<path d="M39 32h1v1h1v2h-1v-1h-1v-2z" fill="rgb(16,16,16)"/>
<path d="M57 32h1v1h-1v-1z" fill="rgb(16,16,16)"/>
<path d="M76 32h2v1h-2v-1z" fill="rgb(82,98,41)"/>
<path d="M28 33h9v1h-9v-1z" fill="rgb(82,98,41)"/>
<path d="M55 33h2v1h-2v-1z" fill="rgb(82,98,41)"/>
<path d="M66 33h8v1h-8v-1z" fill="rgb(16,16,16)"/>
<path d="M78 33h1v1h-1v-1z" fill="rgb(82,98,41)"/>
<path d="M25 34h3v1h-3v-1z" fill="rgb(82,98,41)"/>
<path d="M28 34h7v1h-2v1h-3v1h-3v1h-4v1h-2v1h-2v-1h1v-1h2v-1h1v-1h2v-1h3v-1z" fill="rgb(156,213,74)"/>
<path d="M37 34h2v1h-2v-1z" fill="rgb(82,98,41)"/>
<path d="M39 34h1v1h-1v-1z" fill="rgb(115,172,49)"/>
<path d="M54 34h1v1h-1v-1z" fill="rgb(82,98,41)"/>
<path d="M63 34h3v1h-3v-1z" fill="rgb(16,16,16)"/>
<path d="M74 34h6v1h-6v-1z" fill="rgb(16,16,16)"/>
<path d="M23 35h2v1h-2v-1z" fill="rgb(82,98,41)"/>
<path d="M39 35h2v1h-2v-1z" fill="rgb(82,98,41)"/>
<path d="M41 35h1v2h-1v-2z" fill="rgb(16,16,16)"/>
<path d="M53 35h1v1h-1v-1z" fill="rgb(82,98,41)"/>
<path d="M61 35h2v1h-2v-1z" fill="rgb(16,16,16)"/>
<path d="M22 36h1v1h-1v-1z" fill="rgb(82,98,41)"/>
<path d="M58 36h7v1h-7v-1z" fill="rgb(82,98,41)"/>
<path d="M20 37h2v1h-2v-1z" fill="rgb(82,98,41)"/>
<path d="M27 37h8v1h3v1h2v1h-3v-1h-3v-1h-7v-1z" fill="rgb(16,16,16)"/>
<path d="M56 37h2v1h-2v-1z" fill="rgb(82,98,41)"/>
<path d="M58 37h2v1h2v1h2v1h4v1h2v-1h1v1h1v1h1v1h1v1h-2v-1h-2v-1h-3v-1h-4v-1h-4v-1h-2v-1
	h1v-1z" fill="rgb(115,172,49)"/>
<path d="M60 37h5v1h3v1h2v2h-2v-1h-4v-1h-2v-1h-2v-1z" fill="rgb(156,213,74)"/>
<path d="M65 37h3v1h-3v-1z" fill="rgb(82,98,41)"/>
<path d="M19 38h1v1h-1v-1z" fill="rgb(82,98,41)"/>
<path d="M23 38h4v1h-4v-1z" fill="rgb(16,16,16)"/>
<path d="M32 38h2v1h-2v-1z" fill="rgb(115,65,16)"/>
<path d="M52 38h5v1h-5v-1z" fill="rgb(16,16,16)"/>
<path d="M68 38h2v1h-2v-1z" fill="rgb(82,98,41)"/>
<path d="M18 39h1v1h-1v-1z" fill="rgb(82,98,41)"/>
<path d="M21 39h2v1h-2v-1z" fill="rgb(16,16,16)"/>
<path d="M30 39h2v1h-2v-1z" fill="rgb(115,65,16)"/>
<path d="M32 39h5v1h1v1h-2v1h-1v1h-1v1h-2v-1h-3v-2h1v-1h2v-1z" fill="rgb(230,172,90)"/>
<path d="M50 39h2v1h-2v-1z" fill="rgb(16,16,16)"/>
<path d="M52 39h2v1h2v1h1v1h1v3h1v2h-1v1h-2v1h-2v1h-4v-1h-1v-1h-1v-5h1v-2h1v-1h2v-1z" fill="rgb(255,222,106)"/>
<path d="M54 39h3v1h2v1h1v1h-1v1h-1v-1h-1v-1h-1v-1h-2v-1z" fill="rgb(230,172,90)"/>
<path d="M57 39h2v1h-2v-1z" fill="rgb(16,16,16)"/>
<path d="M70 39h1v1h-1v-1z" fill="rgb(82,98,41)"/>
<path d="M17 40h4v1h-4v-1z" fill="rgb(16,16,16)"/>
<path d="M29 40h1v1h-1v-1z" fill="rgb(115,65,16)"/>
<path d="M38 40h3v1h-3v-1z" fill="rgb(115,65,16)"/>
<path d="M41 40h2v1h-2v-1z" fill="rgb(16,16,16)"/>
<path d="M49 40h1v1h-1v-1z" fill="rgb(115,65,16)"/>
<path d="M59 40h4v1h-2v1h-1v-1h-1v-1z" fill="rgb(16,16,16)"/>
<path d="M71 40h1v1h-1v-1z" fill="rgb(82,98,41)"/>
<path d="M28 41h1v2h-1v-2z" fill="rgb(115,65,16)"/>
<path d="M36 41h2v1h-2v-1z" fill="rgb(115,65,16)"/>
<path d="M38 41h1v1h-1v-1z" fill="rgb(230,172,90)"/>
<path d="M39 41h1v1h2v1h2v2h1v7h-1v-1h-1v1h-3v1h-3v-1h2v-1h3v-1h2v-2h-1v-1h-2v-2h-1v-2
	h-3v-1h2v-1z" fill="rgb(255,222,106)"/>
<path d="M40 41h3v1h2v1h1v1h1v1h-1v7h1v2h1v2h-1v1h-1v1h-2v1h-6v-1h3v-1h1v-1h1v-2h1v-2h1
	v-7h-1v-2h-2v-1h-2v-1z" fill="rgb(230,172,90)"/>
<path d="M43 41h2v1h-2v-1z" fill="rgb(16,16,16)"/>
<path d="M48 41h1v2h-1v-2z" fill="rgb(115,65,16)"/>
<path d="M63 41h4v1h-4v-1z" fill="rgb(16,16,16)"/>
<path d="M72 41h1v1h-1v-1z" fill="rgb(82,98,41)"/>
<path d="M35 42h1v1h-1v-1z" fill="rgb(115,65,16)"/>
<path d="M36 42h1v1h-1v-1z" fill="rgb(230,172,90)"/>
<path d="M45 42h1v1h-1v-1z" fill="rgb(16,16,16)"/>
<path d="M59 42h2v1h-2v-1z" fill="rgb(115,65,16)"/>
<path d="M61 42h1v2h-1v-2z" fill="rgb(16,16,16)"/>
<path d="M67 42h3v1h-3v-1z" fill="rgb(16,16,16)"/>
<path d="M73 42h1v1h-1v-1z" fill="rgb(82,98,41)"/>
<path d="M27 43h1v2h-1v-2z" fill="rgb(115,65,16)"/>
<path d="M28 43h1v1h1v2h-3v-1h1v-2z" fill="rgb(230,172,90)"/>
<path d="M29 43h2v2h-1v-1h-1v-1z" fill="rgb(255,255,255)"/>
<path d="M31 43h1v1h-1v-1z" fill="rgb(16,16,16)"/>
<path d="M34 43h1v1h-1v-1z" fill="rgb(164,106,32)"/>
<path d="M35 43h1v1h-1v-1z" fill="rgb(255,222,106)"/>
<path d="M36 43h4v2h1v2h-3v-1h-1v1h1v4h1v1h-2v1h-3v-2h1v-4h-1v1h-1v-2h1v-1h1v-1h1v-1z" fill="rgb(255,238,164)"/>
<path d="M46 43h1v1h-1v-1z" fill="rgb(16,16,16)"/>
<path d="M47 43h1v2h-1v-2z" fill="rgb(115,65,16)"/>
<path d="M58 43h1v1h-1v-1z" fill="rgb(115,65,16)"/>
<path d="M59 43h1v1h-1v-1z" fill="rgb(16,16,16)"/>
<path d="M60 43h1v2h-2v-1h1v-1z" fill="rgb(255,255,255)"/>
<path d="M70 43h2v1h-2v-1z" fill="rgb(16,16,16)"/>
<path d="M74 43h1v1h-1v-1z" fill="rgb(82,98,41)"/>
<path d="M31 44h2v1h-1v3h-1v-1h-1v1h-4v-2h4v-1h1v-1z" fill="rgb(255,222,106)"/>
<path d="M33 44h1v1h-1v-1z" fill="rgb(164,106,32)"/>
<path d="M34 44h1v1h-1v-1z" fill="rgb(255,222,106)"/>
<path d="M52 44h1v1h-1v-1z" fill="rgb(230,172,90)"/>
<path d="M53 44h2v2h-1v-1h-1v-1z" fill="rgb(164,106,32)"/>
<path d="M58 44h1v1h-1v-1z" fill="rgb(230,172,90)"/>
<path d="M61 44h1v1h-1v-1z" fill="rgb(164,106,32)"/>
<path d="M62 44h1v2h-1v-2z" fill="rgb(16,16,16)"/>
<path d="M72 44h2v1h-2v-1z" fill="rgb(16,16,16)"/>
<path d="M74 44h1v1h-1v-1z" fill="rgb(115,172,49)"/>
<path d="M75 44h1v1h-1v-1z" fill="rgb(82,98,41)"/>
<path d="M25 45h2v1h-2v-1z" fill="rgb(115,65,16)"/>
<path d="M32 45h1v3h1v1h-2v-4z" fill="rgb(164,106,32)"/>
<path d="M33 45h1v1h-1v-1z" fill="rgb(255,222,106)"/>
<path d="M46 45h1v2h-1v-2z" fill="rgb(115,65,16)"/>
<path d="M47 45h1v3h1v1h1v1h5v1h2v1h3v-1h1v-2h1v-2h-1v1h-2v1h-3v-1h2v-1h1v-1h2v-1h1v1h1
	v6h-1v2h-1v1h-1v1h-2v1h-6v-1h-2v-1h-1v-1h-1v-2h-1v-7z" fill="rgb(230,172,90)"/>
<path d="M49 45h1v2h-1v-2z" fill="rgb(164,106,32)"/>
<path d="M50 45h2v1h-2v-1z" fill="rgb(230,172,90)"/>
<path d="M52 45h1v1h-1v-1z" fill="rgb(16,16,16)"/>
<path d="M53 45h1v1h-1v-1z" fill="rgb(255,255,255)"/>
<path d="M59 45h2v1h-2v-1z" fill="rgb(164,106,32)"/>
<path d="M74 45h1v1h-1v-1z" fill="rgb(16,16,16)"/>
<path d="M75 45h1v1h-1v-1z" fill="rgb(115,172,49)"/>
<path d="M76 45h1v1h-1v-1z" fill="rgb(82,98,41)"/>
<path d="M24 46h1v1h-1v-1z" fill="rgb(115,65,16)"/>
<path d="M25 46h1v1h-1v-1z" fill="rgb(255,238,164)"/>
<path d="M37 46h1v1h-1v-1z" fill="rgb(230,172,90)"/>
<path d="M50 46h3v1h-3v-1z" fill="rgb(255,255,255)"/>
<path d="M53 46h1v1h-1v-1z" fill="rgb(230,172,90)"/>
<path d="M63 46h1v6h-1v-6z" fill="rgb(16,16,16)"/>
<path d="M75 46h2v1h-2v-1z" fill="rgb(16,16,16)"/>
<path d="M25 47h1v1h-1v-1z" fill="rgb(16,16,16)"/>
<path d="M30 47h1v1h-1v-1z" fill="rgb(164,106,32)"/>
<path d="M34 47h1v4h-1v-4z" fill="rgb(230,172,90)"/>
<path d="M38 47h4v1h-4v-1z" fill="rgb(164,106,32)"/>
<path d="M42 47h1v1h-1v-1z" fill="rgb(230,172,90)"/>
<path d="M46 47h1v5h-1v-5z" fill="rgb(16,16,16)"/>
<path d="M50 47h1v1h-1v-1z" fill="rgb(164,106,32)"/>
<path d="M51 47h2v1h-2v-1z" fill="rgb(230,172,90)"/>
<path d="M61 47h1v2h-1v-2z" fill="rgb(115,65,16)"/>
<path d="M26 48h3v1h-3v-1z" fill="rgb(16,16,16)"/>
<path d="M29 48h1v2h-1v-2z" fill="rgb(115,65,16)"/>
<path d="M30 48h1v4h-1v1h-2v-1h1v-1h1v-3z" fill="rgb(255,222,106)"/>
<path d="M31 48h1v1h-1v-1z" fill="rgb(230,172,90)"/>
<path d="M38 48h1v1h1v-1h3v2h-1v1h-3v-1h-1v-2z" fill="rgb(255,255,255)"/>
<path d="M39 48h1v1h-1v-1z" fill="rgb(16,16,16)"/>
<path d="M43 48h1v2h-1v-2z" fill="rgb(230,172,90)"/>
<path d="M59 48h1v1h1v2h-1v-1h-1v-2z" fill="rgb(115,65,16)"/>
<path d="M60 48h1v1h-1v-1z" fill="rgb(16,16,16)"/>
<path d="M27 49h1v1h-1v-1z" fill="rgb(115,65,16)"/>
<path d="M28 49h1v1h-1v-1z" fill="rgb(164,106,32)"/>
<path d="M31 49h1v1h-1v-1z" fill="rgb(164,106,32)"/>
<path d="M32 49h1v1h1v1h-2v-2z" fill="rgb(255,255,255)"/>
<path d="M33 49h1v1h-1v-1z" fill="rgb(16,16,16)"/>
<path d="M54 49h1v1h-1v-1z" fill="rgb(164,106,32)"/>
<path d="M55 49h1v1h1v1h-2v-2z" fill="rgb(115,65,16)"/>
<path d="M56 49h3v1h-3v-1z" fill="rgb(16,16,16)"/>
<path d="M28 50h1v2h-1v-2z" fill="rgb(115,65,16)"/>
<path d="M29 50h1v1h-1v-1z" fill="rgb(230,172,90)"/>
<path d="M31 50h1v2h-1v-2z" fill="rgb(115,65,16)"/>
<path d="M38 50h1v1h-1v-1z" fill="rgb(255,222,106)"/>
<path d="M57 50h3v1h-3v-1z" fill="rgb(164,106,32)"/>
<path d="M32 51h2v1h-2v-1z" fill="rgb(230,172,90)"/>
<path d="M43 51h1v1h-1v-1z" fill="rgb(164,106,32)"/>
<path d="M57 51h1v1h-1v-1z" fill="rgb(115,65,16)"/>
<path d="M58 51h1v1h-1v-1z" fill="rgb(16,16,16)"/>
<path d="M59 51h1v1h-1v-1z" fill="rgb(115,65,16)"/>
<path d="M27 52h1v1h-1v-1z" fill="rgb(115,65,16)"/>
<path d="M30 52h1v2h-2v-1h1v-1z" fill="rgb(230,172,90)"/>
<path d="M31 52h3v1h-3v-1z" fill="rgb(255,222,106)"/>
<path d="M40 52h1v1h-1v-1z" fill="rgb(230,172,90)"/>
<path d="M41 52h1v1h-1v-1z" fill="rgb(164,106,32)"/>
<path d="M42 52h1v1h-1v-1z" fill="rgb(115,65,16)"/>
<path d="M43 52h1v2h-1v-2z" fill="rgb(255,222,106)"/>
<path d="M47 52h1v2h-1v-2z" fill="rgb(16,16,16)"/>
<path d="M62 52h1v2h-1v-2z" fill="rgb(16,16,16)"/>
<path d="M28 53h1v1h-1v-1z" fill="rgb(115,65,16)"/>
<path d="M31 53h3v1h1v1h-1v1h-1v-2h-2v-1z" fill="rgb(16,16,16)"/>
<path d="M34 53h5v1h-5v-1z" fill="rgb(115,65,16)"/>
<path d="M39 53h2v1h-2v-1z" fill="rgb(164,106,32)"/>
<path d="M41 53h1v1h-1v-1z" fill="rgb(255,255,255)"/>
<path d="M42 53h1v1h-1v-1z" fill="rgb(16,16,16)"/>
<path d="M29 54h2v1h-2v-1z" fill="rgb(115,65,16)"/>
<path d="M31 54h2v1h-2v-1z" fill="rgb(230,172,90)"/>
<path d="M35 54h1v1h-1v-1z" fill="rgb(255,255,255)"/>
<path d="M36 54h2v2h-1v-1h-1v-1z" fill="rgb(16,16,16)"/>
<path d="M38 54h1v1h-1v-1z" fill="rgb(164,106,32)"/>
<path d="M39 54h2v1h1v1h-1v1h-3v-2h1v-1z" fill="rgb(230,172,90)"/>
<path d="M41 54h1v1h-1v-1z" fill="rgb(16,16,16)"/>
<path d="M42 54h1v1h-1v-1z" fill="rgb(164,106,32)"/>
<path d="M48 54h1v1h1v1h-2v-2z" fill="rgb(16,16,16)"/>
<path d="M61 54h1v1h-1v-1z" fill="rgb(16,16,16)"/>
<path d="M31 55h2v1h-2v-1z" fill="rgb(115,65,16)"/>
<path d="M34 55h1v1h-1v-1z" fill="rgb(230,172,90)"/>
<path d="M35 55h1v1h-1v-1z" fill="rgb(16,16,16)"/>
<path d="M36 55h1v1h-1v-1z" fill="rgb(115,65,16)"/>
<path d="M42 55h1v1h-1v-1z" fill="rgb(115,65,16)"/>
<path d="M60 55h1v1h-1v-1z" fill="rgb(16,16,16)"/>
<path d="M34 56h1v1h-1v-1z" fill="rgb(16,16,16)"/>
<path d="M35 56h2v1h1v1h-2v-1h-1v-1z" fill="rgb(230,172,90)"/>
<path d="M37 56h1v1h-1v-1z" fill="rgb(115,65,16)"/>
<path d="M41 56h1v1h-1v-1z" fill="rgb(164,106,32)"/>
<path d="M47 56h1v1h-1v-1z" fill="rgb(16,16,16)"/>
<path d="M48 56h2v1h2v1h3v2h-2v1h-3v1h-5v-1h-1v-2h2v-1h1v-1h1v-1z" fill="rgb(139,115,65)"/>
<path d="M50 56h2v1h-2v-1z" fill="rgb(16,16,16)"/>
<path d="M58 56h2v1h-2v-1z" fill="rgb(16,16,16)"/>
<path d="M35 57h1v1h-1v-1z" fill="rgb(16,16,16)"/>
<path d="M38 57h1v1h-1v-1z" fill="rgb(164,106,32)"/>
<path d="M39 57h2v1h-2v-1z" fill="rgb(115,65,16)"/>
<path d="M46 57h1v1h-1v-1z" fill="rgb(16,16,16)"/>
<path d="M52 57h6v1h-2v1h-1v-1h-3v-1z" fill="rgb(16,16,16)"/>
<path d="M36 58h2v1h-2v-1z" fill="rgb(16,16,16)"/>
<path d="M44 58h2v1h-2v-1z" fill="rgb(16,16,16)"/>
<path d="M38 59h6v1h-6v-1z" fill="rgb(16,16,16)"/>
<path d="M55 59h1v1h-1v-1z" fill="rgb(82,65,16)"/>
<path d="M56 59h1v3h-1v-3z" fill="rgb(16,16,16)"/>
<path d="M38 60h1v1h-1v-1z" fill="rgb(82,65,16)"/>
<path d="M39 60h5v1h1v1h-4v-1h-2v-1z" fill="rgb(180,156,74)"/>
<path d="M53 60h2v1h-2v-1z" fill="rgb(82,65,16)"/>
<path d="M55 60h1v2h1v4h-1v1h-2v1h-3v1h-7v-3h1v-3h5v-1h3v-1h2v-1z" fill="rgb(139,115,65)"/>
<path d="M37 61h1v3h-1v-3z" fill="rgb(82,65,16)"/>
<path d="M38 61h1v1h2v1h4v3h-1v3h-1v-1h-3v-1h-2v-1h-1v-2h1v-3z" fill="rgb(180,156,74)"/>
<path d="M39 61h2v1h-2v-1z" fill="rgb(139,115,65)"/>
<path d="M50 61h3v1h-3v-1z" fill="rgb(82,65,16)"/>
<path d="M41 62h4v1h-4v-1z" fill="rgb(139,115,65)"/>
<path d="M45 62h5v1h-5v-1z" fill="rgb(82,65,16)"/>
<path d="M57 62h1v3h-1v-3z" fill="rgb(16,16,16)"/>
<path d="M36 64h1v2h1v1h-2v-3z" fill="rgb(82,65,16)"/>
<path d="M57 65h1v1h-1v-1z" fill="rgb(82,65,16)"/>
<path d="M58 65h1v5h-1v-5z" fill="rgb(16,16,16)"/>
<path d="M56 66h1v1h-1v-1z" fill="rgb(82,65,16)"/>
<path d="M57 66h1v3h-2v1h-2v1h-1v1h-1v2h-1v1h-1v1h-4v-1h-4v-1h-2v-1h-1v-1h-1v-2h1v1h2v-1
	h10v-1h3v-1h2v-1h1v-1z" fill="rgb(139,115,65)"/>
<path d="M36 67h1v3h1v2h-1v-1h-1v-4z" fill="rgb(16,16,16)"/>
<path d="M37 67h1v1h2v1h3v1h-2v1h-2v-1h-1v-1h-1v-2z" fill="rgb(180,156,74)"/>
<path d="M38 67h2v1h-2v-1z" fill="rgb(139,115,65)"/>
<path d="M54 67h2v1h-2v-1z" fill="rgb(82,65,16)"/>
<path d="M40 68h3v1h-3v-1z" fill="rgb(139,115,65)"/>
<path d="M51 68h3v1h-3v-1z" fill="rgb(82,65,16)"/>
<path d="M37 69h1v1h-1v-1z" fill="rgb(139,115,65)"/>
<path d="M43 69h8v1h-8v-1z" fill="rgb(82,65,16)"/>
<path d="M56 69h2v1h-2v-1z" fill="rgb(82,65,16)"/>
<path d="M54 70h2v1h-2v-1z" fill="rgb(82,65,16)"/>
<path d="M56 70h3v1h1v1h-2v1h-1v-1h-1v-2z" fill="rgb(139,115,65)"/>
<path d="M59 70h1v1h-1v-1z" fill="rgb(16,16,16)"/>
<path d="M35 71h1v1h-1v-1z" fill="rgb(82,65,16)"/>
<path d="M36 71h1v1h1v1h1v1h-3v-1h-1v-1h1v-1z" fill="rgb(180,156,74)"/>
<path d="M53 71h1v1h-1v-1z" fill="rgb(82,65,16)"/>
<path d="M54 71h2v1h1v1h-1v1h-2v1h-1v1h-1v-2h1v-2h1v-1z" fill="rgb(180,156,74)"/>
<path d="M60 71h1v2h-1v-2z" fill="rgb(16,16,16)"/>
<path d="M34 72h1v2h-1v-2z" fill="rgb(82,65,16)"/>
<path d="M38 72h1v1h-1v-1z" fill="rgb(16,16,16)"/>
<path d="M52 72h1v2h-1v-2z" fill="rgb(82,65,16)"/>
<path d="M58 72h2v1h-2v-1z" fill="rgb(82,65,16)"/>
<path d="M35 73h1v1h-1v-1z" fill="rgb(139,115,65)"/>
<path d="M39 73h1v1h-1v-1z" fill="rgb(16,16,16)"/>
<path d="M56 73h1v1h-1v-1z" fill="rgb(139,115,65)"/>
<path d="M57 73h1v1h-1v-1z" fill="rgb(82,65,16)"/>
<path d="M58 73h3v5h-1v1h-6v-1h2v-1h1v-1h1v-3z" fill="rgb(139,115,65)"/>
<path d="M61 73h1v6h-1v-6z" fill="rgb(16,16,16)"/>
<path d="M34 74h1v2h-1v-2z" fill="rgb(16,16,16)"/>
<path d="M35 74h1v1h3v1h-1v1h-2v-1h-1v-2z" fill="rgb(180,156,74)"/>
<path d="M36 74h3v1h-3v-1z" fill="rgb(139,115,65)"/>
<path d="M39 74h1v1h-1v-1z" fill="rgb(82,65,16)"/>
<path d="M40 74h2v1h-2v-1z" fill="rgb(16,16,16)"/>
<path d="M51 74h1v2h-1v-2z" fill="rgb(82,65,16)"/>
<path d="M54 74h2v1h-2v-1z" fill="rgb(139,115,65)"/>
<path d="M56 74h2v2h-1v1h-1v1h-2v-1h-1v-1h1v-1h2v-1z" fill="rgb(180,156,74)"/>
<path d="M39 75h3v1h2v1h-1v1h-6v-1h1v-1h1v-1z" fill="rgb(139,115,65)"/>
<path d="M42 75h4v1h-1v2h-1v-2h-2v-1z" fill="rgb(16,16,16)"/>
<path d="M50 75h1v1h-1v-1z" fill="rgb(16,16,16)"/>
<path d="M53 75h1v1h-1v-1z" fill="rgb(139,115,65)"/>
<path d="M35 76h1v2h-1v-2z" fill="rgb(16,16,16)"/>
<path d="M46 76h4v1h-4v-1z" fill="rgb(16,16,16)"/>
<path d="M51 76h1v1h-1v-1z" fill="rgb(16,16,16)"/>
<path d="M52 76h1v1h-1v-1z" fill="rgb(82,65,16)"/>
<path d="M36 77h1v1h-1v-1z" fill="rgb(82,65,16)"/>
<path d="M43 77h1v1h-1v-1z" fill="rgb(82,65,16)"/>
<path d="M52 77h1v2h-1v-2z" fill="rgb(16,16,16)"/>
<path d="M53 77h1v1h-1v-1z" fill="rgb(139,115,65)"/>
<path d="M34 78h1v2h-1v-2z" fill="rgb(16,16,16)"/>
<path d="M35 78h2v1h6v-1h2v3h-2v1h-3v-1h-1v-1h-2v1h-1v-2h-1v-1z" fill="rgb(139,115,65)"/>
<path d="M37 78h6v1h-6v-1z" fill="rgb(82,65,16)"/>
<path d="M45 78h1v3h-1v-3z" fill="rgb(16,16,16)"/>
<path d="M53 78h1v1h-1v-1z" fill="rgb(82,65,16)"/>
<path d="M60 78h1v1h-1v-1z" fill="rgb(82,65,16)"/>
<path d="M35 79h1v2h1v1h-2v-3z" fill="rgb(82,65,16)"/>
<path d="M51 79h1v3h-1v-3z" fill="rgb(16,16,16)"/>
<path d="M52 79h2v1h6v-1h2v2h-1v2h-1v-1h-1v-1h-2v1h-1v1h-2v-1h-2v-3z" fill="rgb(139,115,65)"/>
<path d="M54 79h6v1h-6v-1z" fill="rgb(82,65,16)"/>
<path d="M62 79h1v2h-1v-2z" fill="rgb(16,16,16)"/>
<path d="M33 80h1v1h-1v-1z" fill="rgb(16,16,16)"/>
<path d="M34 80h1v2h-2v-1h1v-1z" fill="rgb(205,205,205)"/>
<path d="M37 80h2v1h-2v-1z" fill="rgb(82,65,16)"/>
<path d="M32 81h1v1h3v1h-4v-2z" fill="rgb(16,16,16)"/>
<path d="M37 81h2v2h-1v-1h-1v-1z" fill="rgb(205,205,205)"/>
<path d="M39 81h1v2h-1v-2z" fill="rgb(82,65,16)"/>
<path d="M43 81h2v1h-2v-1z" fill="rgb(16,16,16)"/>
<path d="M57 81h2v1h-2v-1z" fill="rgb(82,65,16)"/>
<path d="M61 81h1v2h-1v-2z" fill="rgb(82,65,16)"/>
<path d="M62 81h1v1h1v1h-2v-2z" fill="rgb(205,205,205)"/>
<path d="M63 81h1v1h-1v-1z" fill="rgb(16,16,16)"/>
<path d="M36 82h2v1h-2v-1z" fill="rgb(255,255,255)"/>
<path d="M40 82h3v1h-3v-1z" fill="rgb(16,16,16)"/>
<path d="M52 82h2v1h-2v-1z" fill="rgb(16,16,16)"/>
<path d="M56 82h1v2h-1v-2z" fill="rgb(82,65,16)"/>
<path d="M57 82h1v1h2v1h-3v-2z" fill="rgb(255,255,255)"/>
<path d="M58 82h1v1h-1v-1z" fill="rgb(205,205,205)"/>
<path d="M59 82h1v1h-1v-1z" fill="rgb(82,65,16)"/>
<path d="M64 82h1v2h-5v-1h4v-1z" fill="rgb(16,16,16)"/>
<path d="M36 83h4v1h-4v-1z" fill="rgb(16,16,16)"/>
<path d="M54 83h2v1h-2v-1z" fill="rgb(16,16,16)"/>
<path d="M56 84h4v1h-4v-1z" fill="rgb(16,16,16)"/>
</svg>
