<?xml version="1.0" encoding="utf-8"?>
<!-- generated at drububu.com  -->
<!DOCTYPE svg PUBLIC "-//W3C//DTD SVG 1.1//EN" "http://www.w3.org/Graphics/SVG/1.1/DTD/svg11.dtd">
<svg version="1.1" preserveAspectRatio="xMinYMin meet" xmlns="http://www.w3.org/2000/svg" xmlns:xlink="http://www.w3.org/1999/xlink" x="0px" y="0px" width="96px" height="96px" viewBox="0 0 96 96">
<path d="M0 0h96v96h-96v-96z" fill="transparent"/>
<path d="M40 27h1v1h-1v-1z" fill="rgb(139,131,106)"/>
<path d="M41 27h1v1h-1v-1z" fill="rgb(82,82,57)"/>
<path d="M39 28h1v2h-1v-2z" fill="rgb(82,82,57)"/>
<path d="M40 28h2v2h-2v-2z" fill="rgb(255,255,255)"/>
<path d="M42 28h1v1h-1v-1z" fill="rgb(82,82,57)"/>
<path d="M46 28h4v1h-4v-1z" fill="rgb(16,16,16)"/>
<path d="M50 28h1v1h-1v-1z" fill="rgb(82,82,57)"/>
<path d="M55 28h2v1h-2v-1z" fill="rgb(139,131,106)"/>
<path d="M42 29h1v2h-1v1h-1v-2h1v-1z" fill="rgb(197,197,213)"/>
<path d="M43 29h1v1h-1v-1z" fill="rgb(82,82,57)"/>
<path d="M44 29h2v1h-2v-1z" fill="rgb(139,131,106)"/>
<path d="M46 29h1v1h-1v-1z" fill="rgb(230,230,238)"/>
<path d="M47 29h2v1h1v2h-1v1h-1v3h-1v2h-2v1h-1v2h-1v1h-2v1h-1v1h-1v1h-1v-1h-1v-2h1v-1h1
	v-1h1v-4h1v-2h1v-2h1v-1h2v-1h2v-1z" fill="rgb(255,255,255)"/>
<path d="M49 29h2v3h1v-1h1v1h2v3h-1v1h-1v-1h-1v-1h-3v1h-1v-2h1v-1h1v-2h-1v-1z" fill="rgb(230,230,238)"/>
<path d="M51 29h1v1h-1v-1z" fill="rgb(139,131,106)"/>
<path d="M52 29h1v1h-1v-1z" fill="rgb(82,82,57)"/>
<path d="M53 29h2v1h-2v-1z" fill="rgb(139,131,106)"/>
<path d="M55 29h2v1h-1v1h-1v1h-2v-2h2v-1z" fill="rgb(255,255,255)"/>
<path d="M57 29h1v2h-1v-2z" fill="rgb(16,16,16)"/>
<path d="M40 30h1v1h-1v-1z" fill="rgb(16,16,16)"/>
<path d="M43 30h1v1h-1v-1z" fill="rgb(139,131,106)"/>
<path d="M44 30h1v1h-1v-1z" fill="rgb(230,230,238)"/>
<path d="M51 30h1v1h-1v-1z" fill="rgb(197,197,213)"/>
<path d="M52 30h1v1h-1v-1z" fill="rgb(139,131,106)"/>
<path d="M56 30h1v1h-1v-1z" fill="rgb(197,197,213)"/>
<path d="M40 31h1v1h-1v-1z" fill="rgb(82,82,57)"/>
<path d="M42 31h1v1h-1v-1z" fill="rgb(139,131,106)"/>
<path d="M51 31h1v1h-1v-1z" fill="rgb(139,131,106)"/>
<path d="M55 31h1v2h-1v-2z" fill="rgb(197,197,213)"/>
<path d="M56 31h1v2h-1v-2z" fill="rgb(16,16,16)"/>
<path d="M41 32h1v1h-1v-1z" fill="rgb(139,131,106)"/>
<path d="M41 33h1v1h-1v-1z" fill="rgb(82,82,57)"/>
<path d="M55 33h1v1h-1v-1z" fill="rgb(82,82,57)"/>
<path d="M28 34h3v1h-3v-1z" fill="rgb(82,82,57)"/>
<path d="M40 34h1v1h-1v-1z" fill="rgb(82,82,57)"/>
<path d="M49 34h3v1h-3v-1z" fill="rgb(16,16,16)"/>
<path d="M55 34h1v2h1v2h2v2h-1v1h-2v-1h-1v-3h-1v-2h1v-1z" fill="rgb(197,197,213)"/>
<path d="M56 34h1v2h-1v-2z" fill="rgb(82,82,57)"/>
<path d="M27 35h1v1h-1v-1z" fill="rgb(82,82,57)"/>
<path d="M28 35h2v1h1v1h-1v1h-2v-3z" fill="rgb(255,255,255)"/>
<path d="M30 35h1v1h-1v-1z" fill="rgb(197,197,213)"/>
<path d="M31 35h1v2h-1v-2z" fill="rgb(82,82,57)"/>
<path d="M40 35h1v1h-1v-1z" fill="rgb(16,16,16)"/>
<path d="M48 35h1v1h-1v-1z" fill="rgb(16,16,16)"/>
<path d="M49 35h3v5h-1v-4h-2v-1z" fill="rgb(148,106,90)"/>
<path d="M52 35h1v1h-1v-1z" fill="rgb(16,16,16)"/>
<path d="M23 36h2v1h-1v1h-2v-1h1v-1z" fill="rgb(82,82,57)"/>
<path d="M25 36h2v1h-2v-1z" fill="rgb(16,16,16)"/>
<path d="M27 36h1v1h-1v-1z" fill="rgb(197,197,213)"/>
<path d="M39 36h1v1h-1v-1z" fill="rgb(82,82,57)"/>
<path d="M47 36h1v1h1v1h-1v1h-1v1h-1v-2h1v-2z" fill="rgb(16,16,16)"/>
<path d="M48 36h1v1h-1v-1z" fill="rgb(148,106,90)"/>
<path d="M49 36h2v1h-2v-1z" fill="rgb(16,16,16)"/>
<path d="M52 36h1v1h-1v-1z" fill="rgb(197,197,213)"/>
<path d="M53 36h1v1h-1v-1z" fill="rgb(139,131,106)"/>
<path d="M57 36h1v1h1v1h-2v-2z" fill="rgb(82,82,57)"/>
<path d="M24 37h2v1h1v2h-1v1h-1v-1h-2v-2h1v-1z" fill="rgb(255,255,255)"/>
<path d="M26 37h2v1h-2v-1z" fill="rgb(82,82,57)"/>
<path d="M30 37h1v1h-1v-1z" fill="rgb(197,197,213)"/>
<path d="M31 37h1v1h-1v-1z" fill="rgb(16,16,16)"/>
<path d="M39 37h1v2h-1v-2z" fill="rgb(16,16,16)"/>
<path d="M49 37h1v1h-1v-1z" fill="rgb(139,131,106)"/>
<path d="M50 37h1v1h-1v-1z" fill="rgb(230,230,238)"/>
<path d="M52 37h1v3h-1v-3z" fill="rgb(16,16,16)"/>
<path d="M53 37h1v4h-1v1h-3v-1h2v-1h1v-3z" fill="rgb(197,197,213)"/>
<path d="M54 37h1v1h-1v-1z" fill="rgb(139,131,106)"/>
<path d="M22 38h1v1h-1v-1z" fill="rgb(16,16,16)"/>
<path d="M27 38h3v2h-1v1h-2v-3z" fill="rgb(197,197,213)"/>
<path d="M30 38h1v1h-1v-1z" fill="rgb(16,16,16)"/>
<path d="M45 38h1v3h1v1h2v1h1v2h-2v-1h-1v1h-1v-1h-2v-1h-3v-1h2v-1h1v-2h1v-1z" fill="rgb(230,230,238)"/>
<path d="M48 38h1v1h-1v-1z" fill="rgb(255,255,255)"/>
<path d="M49 38h1v2h-2v-1h1v-1z" fill="rgb(16,16,16)"/>
<path d="M50 38h1v2h-1v-2z" fill="rgb(255,255,255)"/>
<path d="M54 38h1v3h-1v-3z" fill="rgb(82,82,57)"/>
<path d="M59 38h1v1h-1v-1z" fill="rgb(82,82,57)"/>
<path d="M22 39h1v1h-1v-1z" fill="rgb(82,82,57)"/>
<path d="M30 39h1v1h-1v-1z" fill="rgb(82,82,57)"/>
<path d="M39 39h1v1h-1v-1z" fill="rgb(82,82,57)"/>
<path d="M47 39h1v1h-1v-1z" fill="rgb(139,131,106)"/>
<path d="M59 39h1v1h-1v-1z" fill="rgb(16,16,16)"/>
<path d="M23 40h2v1h-2v-1z" fill="rgb(82,82,57)"/>
<path d="M26 40h1v1h-1v-1z" fill="rgb(230,230,238)"/>
<path d="M29 40h1v1h-1v-1z" fill="rgb(230,230,238)"/>
<path d="M30 40h1v2h-1v-2z" fill="rgb(16,16,16)"/>
<path d="M38 40h1v1h-1v-1z" fill="rgb(82,82,57)"/>
<path d="M46 40h4v1h-4v-1z" fill="rgb(148,106,90)"/>
<path d="M50 40h2v1h-2v-1z" fill="rgb(16,16,16)"/>
<path d="M55 40h1v1h-1v-1z" fill="rgb(139,131,106)"/>
<path d="M58 40h1v1h-1v-1z" fill="rgb(16,16,16)"/>
<path d="M25 41h1v1h-1v-1z" fill="rgb(82,82,57)"/>
<path d="M26 41h1v1h-1v-1z" fill="rgb(16,16,16)"/>
<path d="M27 41h2v1h-2v-1z" fill="rgb(230,230,238)"/>
<path d="M29 41h1v1h1v2h1v2h1v3h-1v-1h-1v-1h-1v-2h-1v-1h-1v-2h1v-1z" fill="rgb(255,255,255)"/>
<path d="M37 41h1v1h-1v-1z" fill="rgb(139,131,106)"/>
<path d="M47 41h3v1h-3v-1z" fill="rgb(16,16,16)"/>
<path d="M53 41h1v1h-1v-1z" fill="rgb(139,131,106)"/>
<path d="M54 41h2v2h-1v2h-2v-1h-1v-1h1v-1h1v-1z" fill="rgb(197,197,213)"/>
<path d="M56 41h1v1h-1v-1z" fill="rgb(82,82,57)"/>
<path d="M57 41h1v1h-1v-1z" fill="rgb(16,16,16)"/>
<path d="M27 42h1v2h-1v-2z" fill="rgb(82,82,57)"/>
<path d="M31 42h1v2h-1v-2z" fill="rgb(82,82,57)"/>
<path d="M36 42h1v1h-1v-1z" fill="rgb(82,82,57)"/>
<path d="M49 42h1v1h-1v-1z" fill="rgb(139,131,106)"/>
<path d="M50 42h1v2h-1v-2z" fill="rgb(82,82,57)"/>
<path d="M51 42h2v1h-2v-1z" fill="rgb(16,16,16)"/>
<path d="M56 42h1v1h-1v-1z" fill="rgb(16,16,16)"/>
<path d="M36 43h1v1h-1v-1z" fill="rgb(16,16,16)"/>
<path d="M40 43h1v1h-1v-1z" fill="rgb(230,230,238)"/>
<path d="M41 43h1v1h-1v-1z" fill="rgb(197,197,213)"/>
<path d="M42 43h2v2h-1v1h-2v-2h1v-1z" fill="rgb(16,16,16)"/>
<path d="M51 43h1v1h-1v-1z" fill="rgb(139,131,106)"/>
<path d="M55 43h1v2h-1v-2z" fill="rgb(16,16,16)"/>
<path d="M28 44h1v1h-1v-1z" fill="rgb(16,16,16)"/>
<path d="M32 44h1v1h-1v-1z" fill="rgb(82,82,57)"/>
<path d="M36 44h1v1h-1v-1z" fill="rgb(82,82,57)"/>
<path d="M37 44h1v1h-1v-1z" fill="rgb(197,197,213)"/>
<path d="M39 44h1v2h-1v1h-1v-2h1v-1z" fill="rgb(230,230,238)"/>
<path d="M40 44h1v2h2v1h-2v1h-2v-2h1v-2z" fill="rgb(197,197,213)"/>
<path d="M44 44h1v1h-1v-1z" fill="rgb(139,131,106)"/>
<path d="M45 44h1v1h1v2h-2v-3z" fill="rgb(197,197,213)"/>
<path d="M47 44h1v1h-1v-1z" fill="rgb(139,131,106)"/>
<path d="M50 44h1v1h-1v-1z" fill="rgb(139,131,106)"/>
<path d="M51 44h1v1h-1v-1z" fill="rgb(197,197,213)"/>
<path d="M52 44h1v1h-1v-1z" fill="rgb(16,16,16)"/>
<path d="M29 45h1v1h-1v-1z" fill="rgb(82,82,57)"/>
<path d="M32 45h1v1h-1v-1z" fill="rgb(16,16,16)"/>
<path d="M37 45h1v1h-1v-1z" fill="rgb(82,82,57)"/>
<path d="M43 45h1v1h-1v-1z" fill="rgb(197,197,213)"/>
<path d="M44 45h1v1h-1v-1z" fill="rgb(82,82,57)"/>
<path d="M47 45h1v1h-1v-1z" fill="rgb(82,82,57)"/>
<path d="M48 45h4v1h-4v-1z" fill="rgb(16,16,16)"/>
<path d="M52 45h1v1h2v1h2v1h1v1h-1v1h-2v-1h-1v-1h-1v1h-3v1h-2v1h-1v1h-1v2h-4v-2h2v-1h-5
	v1h-2v-1h-2v-1h3v-1h3v-1h2v-1h2v1h2v-1h1v-1h4v-1z" fill="rgb(148,106,90)"/>
<path d="M53 45h2v1h-2v-1z" fill="rgb(16,16,16)"/>
<path d="M29 46h1v1h-1v-1z" fill="rgb(16,16,16)"/>
<path d="M33 46h1v1h3v-1h1v1h1v1h-4v2h-1v-2h-1v-2z" fill="rgb(16,16,16)"/>
<path d="M43 46h2v1h-2v-1z" fill="rgb(16,16,16)"/>
<path d="M47 46h1v1h-1v-1z" fill="rgb(16,16,16)"/>
<path d="M55 46h2v1h-2v-1z" fill="rgb(82,57,16)"/>
<path d="M30 47h1v1h-1v-1z" fill="rgb(82,82,57)"/>
<path d="M41 47h2v1h-2v-1z" fill="rgb(16,16,16)"/>
<path d="M45 47h2v1h-2v-1z" fill="rgb(16,16,16)"/>
<path d="M57 47h2v1h-2v-1z" fill="rgb(82,57,16)"/>
<path d="M30 48h1v1h-1v-1z" fill="rgb(16,16,16)"/>
<path d="M31 48h1v1h-1v-1z" fill="rgb(197,197,213)"/>
<path d="M33 48h1v2h-1v-2z" fill="rgb(230,230,238)"/>
<path d="M35 48h4v1h-1v1h-3v-2z" fill="rgb(197,156,74)"/>
<path d="M39 48h2v1h-2v-1z" fill="rgb(16,16,16)"/>
<path d="M53 48h1v1h-1v-1z" fill="rgb(82,57,16)"/>
<path d="M58 48h1v1h2v1h1v2h-1v-1h-1v1h-1v-1h-1v-1h-1v-1h1v-1z" fill="rgb(197,156,74)"/>
<path d="M59 48h2v1h-2v-1z" fill="rgb(82,57,16)"/>
<path d="M29 49h1v2h-1v-2z" fill="rgb(16,16,16)"/>
<path d="M30 49h2v2h-2v-2z" fill="rgb(197,156,74)"/>
<path d="M32 49h1v1h-1v-1z" fill="rgb(82,57,16)"/>
<path d="M50 49h4v1h-4v-1z" fill="rgb(205,172,139)"/>
<path d="M54 49h1v1h-1v-1z" fill="rgb(82,57,16)"/>
<path d="M61 49h1v1h-1v-1z" fill="rgb(82,57,16)"/>
<path d="M32 50h1v2h-2v-1h1v-1z" fill="rgb(148,106,90)"/>
<path d="M33 50h2v1h-1v1h-1v-2z" fill="rgb(82,57,16)"/>
<path d="M48 50h6v1h1v2h1v3h-1v1h-2v1h-5v-1h-1v-2h-1v-2h1v-2h1v-1z" fill="rgb(246,213,180)"/>
<path d="M54 50h1v1h-1v-1z" fill="rgb(205,172,139)"/>
<path d="M55 50h1v2h-1v-2z" fill="rgb(82,57,16)"/>
<path d="M56 50h1v1h-1v-1z" fill="rgb(16,16,16)"/>
<path d="M57 50h1v1h-1v-1z" fill="rgb(148,106,90)"/>
<path d="M62 50h1v2h-1v-2z" fill="rgb(82,57,16)"/>
<path d="M30 51h1v1h-1v-1z" fill="rgb(16,16,16)"/>
<path d="M34 51h2v2h-3v-1h1v-1z" fill="rgb(230,230,238)"/>
<path d="M36 51h1v1h-1v-1z" fill="rgb(16,16,16)"/>
<path d="M39 51h3v1h-3v-1z" fill="rgb(82,57,16)"/>
<path d="M42 51h1v1h-1v-1z" fill="rgb(16,16,16)"/>
<path d="M43 51h1v1h-1v-1z" fill="rgb(82,57,16)"/>
<path d="M56 51h1v1h-1v-1z" fill="transparent"/>
<path d="M57 51h2v1h-2v-1z" fill="rgb(16,16,16)"/>
<path d="M60 51h1v1h-1v-1z" fill="rgb(148,106,90)"/>
<path d="M31 52h2v1h-2v-1z" fill="rgb(16,16,16)"/>
<path d="M36 52h3v1h-3v-1z" fill="rgb(82,57,16)"/>
<path d="M41 52h1v1h-1v-1z" fill="rgb(16,16,16)"/>
<path d="M46 52h1v1h-1v-1z" fill="rgb(205,172,139)"/>
<path d="M55 52h1v1h-1v-1z" fill="rgb(205,172,139)"/>
<path d="M56 52h1v2h1v1h-1v2h-1v-5z" fill="rgb(82,57,16)"/>
<path d="M59 52h1v1h-1v-1z" fill="rgb(16,16,16)"/>
<path d="M60 52h1v1h-1v-1z" fill="rgb(255,255,255)"/>
<path d="M61 52h1v1h-1v-1z" fill="rgb(148,106,90)"/>
<path d="M62 52h1v1h-1v-1z" fill="rgb(16,16,16)"/>
<path d="M33 53h3v1h-3v-1z" fill="rgb(16,16,16)"/>
<path d="M41 53h1v1h-1v-1z" fill="rgb(82,57,16)"/>
<path d="M60 53h2v1h-2v-1z" fill="rgb(16,16,16)"/>
<path d="M40 54h1v2h-1v-2z" fill="rgb(82,57,16)"/>
<path d="M41 54h1v1h-1v-1z" fill="rgb(148,106,90)"/>
<path d="M42 54h3v1h1v2h1v3h-2v1h-4v-1h-1v-4h1v1h1v1h2v-1h1v-1h-1v-1h-2v-1z" fill="rgb(197,156,74)"/>
<path d="M45 54h1v1h-1v-1z" fill="rgb(82,57,16)"/>
<path d="M41 55h1v1h-1v-1z" fill="rgb(197,156,74)"/>
<path d="M42 55h2v1h1v1h-1v1h-2v-1h-1v-1h1v-1z" fill="rgb(222,189,106)"/>
<path d="M46 55h1v2h-1v-2z" fill="rgb(82,57,16)"/>
<path d="M57 55h1v2h1v3h-1v2h-2v1h-2v-1h-2v-1h2v-1h1v-1h1v-2h1v-2z" fill="rgb(148,106,90)"/>
<path d="M58 55h1v2h-1v-2z" fill="rgb(82,57,16)"/>
<path d="M38 56h1v1h-1v-1z" fill="rgb(16,16,16)"/>
<path d="M39 56h1v2h-1v-2z" fill="rgb(82,57,16)"/>
<path d="M55 56h1v1h-1v-1z" fill="rgb(205,172,139)"/>
<path d="M35 57h2v1h-2v-1z" fill="rgb(16,16,16)"/>
<path d="M37 57h1v1h-1v-1z" fill="rgb(82,57,16)"/>
<path d="M38 57h1v1h-1v-1z" fill="rgb(148,106,90)"/>
<path d="M47 57h1v4h-1v-4z" fill="rgb(82,57,16)"/>
<path d="M53 57h2v2h-1v1h-2v1h-4v-3h5v-1z" fill="rgb(205,172,139)"/>
<path d="M55 57h1v2h-1v-2z" fill="rgb(82,57,16)"/>
<path d="M59 57h1v3h-1v-3z" fill="rgb(82,57,16)"/>
<path d="M34 58h1v2h-1v-2z" fill="rgb(16,16,16)"/>
<path d="M35 58h3v3h-1v-1h-2v-2z" fill="rgb(148,106,90)"/>
<path d="M38 58h1v2h-1v-2z" fill="rgb(82,57,16)"/>
<path d="M39 58h1v2h1v1h4v-1h2v1h-1v2h-1v1h-2v-1h-1v1h-1v-1h-1v-1h-1v-4z" fill="rgb(148,106,90)"/>
<path d="M54 59h1v1h-1v-1z" fill="rgb(16,16,16)"/>
<path d="M35 60h2v1h-2v-1z" fill="rgb(16,16,16)"/>
<path d="M38 60h1v2h-2v-1h1v-1z" fill="rgb(16,16,16)"/>
<path d="M52 60h1v1h-1v-1z" fill="rgb(16,16,16)"/>
<path d="M53 60h1v1h-1v-1z" fill="rgb(82,57,16)"/>
<path d="M58 60h1v2h-1v-2z" fill="rgb(82,57,16)"/>
<path d="M46 61h5v1h-4v1h-1v-2z" fill="rgb(16,16,16)"/>
<path d="M51 61h1v1h-1v-1z" fill="rgb(82,57,16)"/>
<path d="M39 62h1v1h-1v-1z" fill="rgb(82,57,16)"/>
<path d="M52 62h1v1h-1v-1z" fill="rgb(16,16,16)"/>
<path d="M53 62h1v1h-1v-1z" fill="rgb(82,57,16)"/>
<path d="M56 62h1v1h-1v-1z" fill="rgb(82,57,16)"/>
<path d="M57 62h1v1h-1v-1z" fill="rgb(230,230,238)"/>
<path d="M58 62h1v1h-1v-1z" fill="rgb(255,255,255)"/>
<path d="M59 62h1v1h-1v-1z" fill="rgb(16,16,16)"/>
<path d="M40 63h1v2h-1v-2z" fill="rgb(16,16,16)"/>
<path d="M42 63h1v1h-1v-1z" fill="rgb(230,230,238)"/>
<path d="M45 63h1v1h-1v-1z" fill="rgb(16,16,16)"/>
<path d="M54 63h5v1h-5v-1z" fill="rgb(16,16,16)"/>
<path d="M59 63h1v1h-1v-1z" fill="rgb(82,57,16)"/>
<path d="M41 64h1v1h-1v-1z" fill="rgb(230,230,238)"/>
<path d="M42 64h2v1h-2v-1z" fill="rgb(255,255,255)"/>
<path d="M44 64h1v1h-1v-1z" fill="rgb(16,16,16)"/>
<path d="M41 65h3v1h-3v-1z" fill="rgb(16,16,16)"/>
</svg>
