<?xml version="1.0" encoding="utf-8"?>
<!-- generated at drububu.com  -->
<!DOCTYPE svg PUBLIC "-//W3C//DTD SVG 1.1//EN" "http://www.w3.org/Graphics/SVG/1.1/DTD/svg11.dtd">
<svg version="1.1" preserveAspectRatio="xMinYMin meet" xmlns="http://www.w3.org/2000/svg" xmlns:xlink="http://www.w3.org/1999/xlink" x="0px" y="0px" width="96px" height="96px" viewBox="0 0 96 96">
<path d="M0 0h96v96h-96v-96z" fill="transparent"/>
<path d="M20 22h2v1h-2v-1z" fill="rgb(139,139,106)"/>
<path d="M22 22h1v1h-1v-1z" fill="rgb(82,74,57)"/>
<path d="M19 23h1v1h-1v-1z" fill="rgb(139,139,106)"/>
<path d="M20 23h1v1h-1v-1z" fill="rgb(230,230,230)"/>
<path d="M21 23h2v1h1v2h-1v1h-2v-1h-1v-2h1v-1z" fill="rgb(255,255,255)"/>
<path d="M23 23h1v1h-1v-1z" fill="rgb(82,74,57)"/>
<path d="M18 24h1v1h-1v-1z" fill="rgb(139,139,106)"/>
<path d="M19 24h1v1h-1v-1z" fill="rgb(197,197,205)"/>
<path d="M24 24h1v2h-1v-2z" fill="rgb(82,74,57)"/>
<path d="M16 25h1v1h-1v-1z" fill="rgb(139,139,106)"/>
<path d="M17 25h2v1h-2v-1z" fill="rgb(82,74,57)"/>
<path d="M19 25h1v1h-1v-1z" fill="rgb(230,230,230)"/>
<path d="M15 26h1v1h-1v-1z" fill="rgb(139,139,106)"/>
<path d="M16 26h2v4h-2v-1h1v-2h-1v-1z" fill="rgb(230,230,230)"/>
<path d="M18 26h1v1h-1v-1z" fill="rgb(139,139,106)"/>
<path d="M19 26h1v1h1v1h2v1h2v1h2v1h3v-1h1v1h2v3h-3v-1h-4v-1h-4v-1h-6v-1h2v-3h1v-1z" fill="rgb(197,197,205)"/>
<path d="M20 26h1v1h-1v-1z" fill="rgb(230,230,230)"/>
<path d="M23 26h2v1h1v1h1v1h1v1h2v1h-3v-1h-2v-1h-2v-1h-2v-1h2v-1z" fill="rgb(230,230,230)"/>
<path d="M25 26h1v1h-1v-1z" fill="rgb(16,16,16)"/>
<path d="M38 26h3v1h-3v-1z" fill="rgb(82,74,57)"/>
<path d="M14 27h1v3h-1v-3z" fill="rgb(139,139,106)"/>
<path d="M15 27h2v2h-2v-2z" fill="rgb(255,255,255)"/>
<path d="M26 27h1v1h-1v-1z" fill="rgb(16,16,16)"/>
<path d="M37 27h1v1h-1v-1z" fill="rgb(82,74,57)"/>
<path d="M38 27h1v1h1v1h1v1h-1v1h-1v-2h-1v-2z" fill="rgb(197,197,205)"/>
<path d="M39 27h2v1h1v1h-2v-1h-1v-1z" fill="rgb(230,230,230)"/>
<path d="M41 27h2v1h-2v-1z" fill="rgb(82,74,57)"/>
<path d="M27 28h1v1h-1v-1z" fill="rgb(82,74,57)"/>
<path d="M28 28h1v1h-1v-1z" fill="rgb(16,16,16)"/>
<path d="M37 28h1v1h-1v-1z" fill="rgb(16,16,16)"/>
<path d="M42 28h1v1h-1v-1z" fill="rgb(197,197,205)"/>
<path d="M43 28h8v1h-8v-1z" fill="rgb(82,74,57)"/>
<path d="M57 28h3v1h-3v-1z" fill="rgb(139,139,106)"/>
<path d="M15 29h1v1h-1v-1z" fill="rgb(197,197,205)"/>
<path d="M28 29h1v1h-1v-1z" fill="rgb(197,197,205)"/>
<path d="M29 29h1v1h-1v-1z" fill="rgb(82,74,57)"/>
<path d="M30 29h1v1h-1v-1z" fill="rgb(16,16,16)"/>
<path d="M33 29h3v1h-3v-1z" fill="rgb(90,65,16)"/>
<path d="M38 29h1v1h-1v-1z" fill="rgb(82,74,57)"/>
<path d="M41 29h2v1h-2v-1z" fill="rgb(139,139,106)"/>
<path d="M43 29h1v1h-1v-1z" fill="rgb(230,230,230)"/>
<path d="M44 29h5v1h1v1h1v2h-1v1h-1v1h-1v1h-2v1h-7v-1h-1v-3h1v-1h1v-1h1v-1h3v-1z" fill="rgb(255,255,255)"/>
<path d="M49 29h1v1h-1v-1z" fill="rgb(230,230,230)"/>
<path d="M50 29h1v1h-1v-1z" fill="rgb(197,197,205)"/>
<path d="M51 29h2v1h-2v-1z" fill="rgb(82,74,57)"/>
<path d="M54 29h2v1h-2v-1z" fill="rgb(82,74,57)"/>
<path d="M56 29h1v1h-1v-1z" fill="rgb(139,139,106)"/>
<path d="M57 29h1v1h-1v-1z" fill="rgb(230,230,230)"/>
<path d="M58 29h2v1h-1v1h-2v1h-3v-1h1v-1h3v-1z" fill="rgb(255,255,255)"/>
<path d="M60 29h1v2h-1v-2z" fill="rgb(82,74,57)"/>
<path d="M15 30h1v1h-1v-1z" fill="rgb(139,139,106)"/>
<path d="M31 30h2v1h-2v-1z" fill="rgb(16,16,16)"/>
<path d="M33 30h3v2h1v3h-3v-4h-1v-1z" fill="rgb(197,156,74)"/>
<path d="M36 30h1v1h-1v-1z" fill="rgb(90,65,16)"/>
<path d="M38 30h1v1h-1v-1z" fill="rgb(16,16,16)"/>
<path d="M40 30h1v1h-1v-1z" fill="rgb(139,139,106)"/>
<path d="M50 30h3v1h1v1h3v-1h2v1h-1v1h-1v1h-3v1h-1v2h-1v1h-1v-1h-1v1h-2v1h-1v1h-1v1h-1v1
	h-1v1h-1v-2h-4v1h-1v-4h-1v-3h1v1h1v1h7v-1h2v-1h1v-1h1v-1h1v-2h-1v-1z" fill="rgb(230,230,230)"/>
<path d="M53 30h1v1h-1v-1z" fill="rgb(82,74,57)"/>
<path d="M54 30h1v1h-1v-1z" fill="rgb(230,230,230)"/>
<path d="M59 30h1v1h-1v-1z" fill="rgb(230,230,230)"/>
<path d="M16 31h1v1h-1v-1z" fill="rgb(139,139,106)"/>
<path d="M17 31h2v1h-2v-1z" fill="rgb(82,74,57)"/>
<path d="M19 31h2v1h-2v-1z" fill="rgb(16,16,16)"/>
<path d="M21 31h1v1h-1v-1z" fill="rgb(82,74,57)"/>
<path d="M33 31h1v1h-1v-1z" fill="rgb(90,65,16)"/>
<path d="M36 31h1v1h-1v-1z" fill="rgb(148,106,82)"/>
<path d="M37 31h1v1h-1v-1z" fill="rgb(90,65,16)"/>
<path d="M38 31h1v1h-1v-1z" fill="transparent"/>
<path d="M39 31h1v1h-1v-1z" fill="rgb(16,16,16)"/>
<path d="M59 31h1v1h-1v-1z" fill="rgb(82,74,57)"/>
<path d="M22 32h3v1h-3v-1z" fill="rgb(16,16,16)"/>
<path d="M25 32h1v1h-1v-1z" fill="rgb(82,74,57)"/>
<path d="M33 32h1v2h-1v-2z" fill="rgb(16,16,16)"/>
<path d="M37 32h1v1h-1v-1z" fill="rgb(148,106,82)"/>
<path d="M38 32h1v1h-1v-1z" fill="rgb(16,16,16)"/>
<path d="M58 32h1v2h-1v-2z" fill="rgb(16,16,16)"/>
<path d="M26 33h3v1h-3v-1z" fill="rgb(16,16,16)"/>
<path d="M29 33h1v1h-1v-1z" fill="rgb(82,74,57)"/>
<path d="M37 33h1v2h-1v-2z" fill="rgb(16,16,16)"/>
<path d="M57 33h1v1h-1v-1z" fill="rgb(82,74,57)"/>
<path d="M30 34h3v1h-3v-1z" fill="rgb(16,16,16)"/>
<path d="M33 34h1v1h2v3h-2v-1h-2v-1h-1v-1h2v-1z" fill="rgb(148,106,82)"/>
<path d="M54 34h3v1h-1v2h1v-2h1v3h1v1h-2v-1h-1v1h-2v-1h-2v-1h1v-2h1v-1z" fill="rgb(197,197,205)"/>
<path d="M57 34h1v1h-1v-1z" fill="rgb(16,16,16)"/>
<path d="M30 35h1v1h1v1h-2v-2z" fill="rgb(90,65,16)"/>
<path d="M36 35h1v1h-1v-1z" fill="rgb(139,139,106)"/>
<path d="M56 35h1v2h-1v-2z" fill="rgb(139,139,106)"/>
<path d="M58 35h1v1h-1v-1z" fill="rgb(16,16,16)"/>
<path d="M36 36h1v2h-1v-2z" fill="rgb(82,74,57)"/>
<path d="M58 36h1v2h-1v-2z" fill="rgb(230,230,230)"/>
<path d="M59 36h1v3h-1v-3z" fill="rgb(16,16,16)"/>
<path d="M32 37h1v1h-1v-1z" fill="rgb(16,16,16)"/>
<path d="M33 37h1v1h-1v-1z" fill="rgb(90,65,16)"/>
<path d="M50 37h1v1h-1v-1z" fill="rgb(197,197,205)"/>
<path d="M34 38h2v2h-1v-1h-1v-1z" fill="rgb(90,65,16)"/>
<path d="M36 38h1v1h1v4h-1v-3h-1v-2z" fill="rgb(16,16,16)"/>
<path d="M37 38h1v1h-1v-1z" fill="rgb(197,197,205)"/>
<path d="M48 38h1v1h-1v-1z" fill="rgb(197,197,205)"/>
<path d="M49 38h1v1h-1v-1z" fill="rgb(139,139,106)"/>
<path d="M50 38h1v1h-1v-1z" fill="rgb(82,74,57)"/>
<path d="M51 38h1v1h-1v-1z" fill="rgb(139,139,106)"/>
<path d="M52 38h2v1h2v1h1v1h-1v1h-2v1h-1v1h-3v2h-1v1h-2v1h-3v1h-1v-2h1v-1h1v-1h1v-1h3v-2
	h1v-2h1v-1h1v-1z" fill="rgb(230,230,230)"/>
<path d="M56 38h1v1h-1v-1z" fill="rgb(139,139,106)"/>
<path d="M47 39h1v1h-1v-1z" fill="rgb(197,197,205)"/>
<path d="M48 39h1v1h-1v-1z" fill="rgb(139,139,106)"/>
<path d="M49 39h1v1h-1v-1z" fill="rgb(82,74,57)"/>
<path d="M50 39h1v1h-1v-1z" fill="rgb(197,197,205)"/>
<path d="M56 39h1v1h-1v-1z" fill="rgb(197,197,205)"/>
<path d="M57 39h1v1h-1v-1z" fill="rgb(82,74,57)"/>
<path d="M58 39h1v3h-1v-3z" fill="rgb(16,16,16)"/>
<path d="M36 40h1v1h-1v-1z" fill="rgb(90,65,16)"/>
<path d="M46 40h1v1h-1v-1z" fill="rgb(139,139,106)"/>
<path d="M47 40h1v1h-1v-1z" fill="rgb(82,74,57)"/>
<path d="M48 40h1v1h-1v-1z" fill="rgb(230,230,230)"/>
<path d="M49 40h1v1h-1v-1z" fill="rgb(139,139,106)"/>
<path d="M57 40h1v1h-1v-1z" fill="rgb(197,197,205)"/>
<path d="M39 41h4v2h-1v2h-1v3h-1v1h-3v-2h1v-5h1v-1z" fill="rgb(255,255,255)"/>
<path d="M45 41h1v1h-1v-1z" fill="rgb(82,74,57)"/>
<path d="M46 41h1v2h-1v-2z" fill="rgb(16,16,16)"/>
<path d="M47 41h1v2h-1v-2z" fill="rgb(197,57,16)"/>
<path d="M48 41h1v2h-1v-2z" fill="rgb(255,255,255)"/>
<path d="M49 41h1v1h-1v-1z" fill="rgb(197,197,205)"/>
<path d="M56 41h1v1h-1v-1z" fill="rgb(197,197,205)"/>
<path d="M57 41h1v1h-1v-1z" fill="rgb(139,139,106)"/>
<path d="M44 42h1v1h1v1h-3v-1h1v-1z" fill="rgb(82,74,57)"/>
<path d="M45 42h1v1h-1v-1z" fill="rgb(230,230,230)"/>
<path d="M54 42h3v1h-3v-1z" fill="rgb(139,139,106)"/>
<path d="M57 42h1v1h-1v-1z" fill="rgb(16,16,16)"/>
<path d="M37 43h1v2h-1v-2z" fill="rgb(139,139,106)"/>
<path d="M42 43h1v1h-1v-1z" fill="rgb(230,230,230)"/>
<path d="M46 43h2v1h-2v-1z" fill="rgb(139,139,106)"/>
<path d="M48 43h1v1h-1v-1z" fill="rgb(197,197,205)"/>
<path d="M53 43h1v2h-1v-2z" fill="rgb(139,139,106)"/>
<path d="M54 43h1v1h-1v-1z" fill="rgb(82,74,57)"/>
<path d="M55 43h2v1h-2v-1z" fill="rgb(16,16,16)"/>
<path d="M57 43h1v1h-1v-1z" fill="rgb(90,65,16)"/>
<path d="M36 44h1v3h-1v-3z" fill="rgb(82,74,57)"/>
<path d="M42 44h2v1h-2v-1z" fill="rgb(139,139,106)"/>
<path d="M44 44h2v1h-1v1h-1v1h-1v2h1v-1h2v1h-1v1h-1v1h-1v1h-5v-2h2v1h1v-3h1v-2h1v-1h1v-1
	z" fill="rgb(197,197,205)"/>
<path d="M50 44h2v2h-1v1h-2v-1h1v-2z" fill="rgb(255,255,255)"/>
<path d="M52 44h1v1h-1v-1z" fill="rgb(197,197,205)"/>
<path d="M54 44h1v1h-1v-1z" fill="rgb(16,16,16)"/>
<path d="M55 44h3v1h4v1h-1v2h1v1h2v1h-4v1h-2v1h2v-1h2v1h1v1h1v1h1v2h-4v1h-3v-1h-1v-1h-1
	v-1h-1v-1h-1v-1h-1v-2h-1v-1h-1v-1h2v-1h1v-2h1v-1z" fill="rgb(148,106,82)"/>
<path d="M58 44h3v1h-3v-1z" fill="rgb(16,16,16)"/>
<path d="M61 44h1v1h-1v-1z" fill="rgb(90,65,16)"/>
<path d="M37 45h1v2h-1v-2z" fill="rgb(197,197,205)"/>
<path d="M41 45h1v1h-1v-1z" fill="rgb(230,230,230)"/>
<path d="M42 45h1v1h-1v-1z" fill="rgb(82,74,57)"/>
<path d="M52 45h1v2h-1v-2z" fill="rgb(139,139,106)"/>
<path d="M53 45h1v2h-1v-2z" fill="rgb(16,16,16)"/>
<path d="M62 45h6v1h-6v-1z" fill="rgb(90,65,16)"/>
<path d="M41 46h1v2h-1v-2z" fill="rgb(82,74,57)"/>
<path d="M51 46h1v1h-1v-1z" fill="rgb(230,230,230)"/>
<path d="M61 46h4v1h2v1h1v3h-1v1h-1v-1h-1v-1h-1v-1h-2v-1h-1v-2z" fill="rgb(197,156,74)"/>
<path d="M65 46h3v1h2v1h2v1h1v1h-5v-2h-1v-1h-2v-1z" fill="rgb(222,189,106)"/>
<path d="M68 46h1v1h-1v-1z" fill="rgb(148,106,82)"/>
<path d="M69 46h1v1h-1v-1z" fill="rgb(90,65,16)"/>
<path d="M36 47h1v3h1v2h-1v-1h-1v-4z" fill="rgb(16,16,16)"/>
<path d="M47 47h1v1h-1v-1z" fill="rgb(197,197,205)"/>
<path d="M48 47h5v1h-5v-1z" fill="rgb(16,16,16)"/>
<path d="M70 47h2v1h-2v-1z" fill="rgb(90,65,16)"/>
<path d="M40 48h1v2h-1v-2z" fill="rgb(82,74,57)"/>
<path d="M46 48h1v1h-1v-1z" fill="rgb(16,16,16)"/>
<path d="M47 48h1v1h-1v-1z" fill="rgb(90,65,16)"/>
<path d="M48 48h3v1h-3v-1z" fill="rgb(230,148,82)"/>
<path d="M72 48h1v1h-1v-1z" fill="rgb(90,65,16)"/>
<path d="M37 49h1v1h-1v-1z" fill="rgb(197,197,205)"/>
<path d="M38 49h2v1h-2v-1z" fill="rgb(230,230,230)"/>
<path d="M45 49h1v1h-1v-1z" fill="rgb(82,74,57)"/>
<path d="M46 49h1v3h-1v-3z" fill="rgb(148,106,82)"/>
<path d="M47 49h1v1h4v1h1v1h-1v1h-5v-4z" fill="rgb(230,148,82)"/>
<path d="M48 49h4v1h-4v-1z" fill="rgb(189,115,57)"/>
<path d="M73 49h1v1h-1v-1z" fill="rgb(16,16,16)"/>
<path d="M40 50h1v1h-1v-1z" fill="rgb(16,16,16)"/>
<path d="M44 50h1v1h-1v-1z" fill="rgb(82,74,57)"/>
<path d="M52 50h1v1h-1v-1z" fill="rgb(189,115,57)"/>
<path d="M60 50h1v1h-1v-1z" fill="rgb(90,65,16)"/>
<path d="M61 50h4v1h-2v1h-1v-1h-1v-1z" fill="rgb(16,16,16)"/>
<path d="M68 50h1v1h-1v-1z" fill="rgb(148,106,82)"/>
<path d="M69 50h3v1h-3v-1z" fill="rgb(90,65,16)"/>
<path d="M72 50h2v2h-1v-1h-1v-1z" fill="rgb(197,156,74)"/>
<path d="M74 50h1v3h-1v1h-3v-1h2v-1h1v-2z" fill="rgb(16,16,16)"/>
<path d="M43 51h1v1h-1v-1z" fill="rgb(16,16,16)"/>
<path d="M58 51h2v1h-2v-1z" fill="rgb(90,65,16)"/>
<path d="M63 51h2v1h1v2h-1v-1h-1v-1h-1v-1z" fill="transparent"/>
<path d="M65 51h1v1h-1v-1z" fill="rgb(16,16,16)"/>
<path d="M67 51h1v1h-1v-1z" fill="rgb(148,106,82)"/>
<path d="M68 51h1v1h2v1h-3v-2z" fill="rgb(90,65,16)"/>
<path d="M69 51h3v1h1v1h-2v-1h-2v-1z" fill="rgb(148,106,82)"/>
<path d="M72 51h1v1h-1v-1z" fill="rgb(16,16,16)"/>
<path d="M38 52h5v1h-5v-1z" fill="rgb(16,16,16)"/>
<path d="M45 52h1v3h-1v-3z" fill="rgb(148,106,82)"/>
<path d="M46 52h1v1h5v-1h2v1h1v2h-1v1h-6v-1h-2v-3z" fill="rgb(246,197,148)"/>
<path d="M63 52h1v1h-1v-1z" fill="rgb(16,16,16)"/>
<path d="M66 52h1v1h1v1h-2v-2z" fill="rgb(16,16,16)"/>
<path d="M67 52h1v1h-1v-1z" fill="rgb(255,255,255)"/>
<path d="M64 53h1v1h-1v-1z" fill="rgb(16,16,16)"/>
<path d="M55 54h1v2h-1v-2z" fill="rgb(230,148,82)"/>
<path d="M65 54h1v2h-1v-2z" fill="rgb(16,16,16)"/>
<path d="M45 55h1v2h-1v-2z" fill="rgb(90,65,16)"/>
<path d="M46 55h1v1h-1v-1z" fill="rgb(189,115,57)"/>
<path d="M47 55h1v2h-1v-2z" fill="rgb(230,148,82)"/>
<path d="M54 55h1v1h-1v-1z" fill="rgb(189,115,57)"/>
<path d="M56 55h1v3h-2v1h-6v-1h-2v-1h7v-1h2v-1z" fill="rgb(246,197,148)"/>
<path d="M66 55h1v1h-1v-1z" fill="rgb(90,65,16)"/>
<path d="M72 55h2v1h-2v-1z" fill="rgb(90,65,16)"/>
<path d="M44 56h1v1h-1v-1z" fill="rgb(148,106,82)"/>
<path d="M46 56h1v1h-1v-1z" fill="rgb(246,197,148)"/>
<path d="M48 56h6v1h-6v-1z" fill="rgb(189,115,57)"/>
<path d="M57 56h1v1h-1v-1z" fill="rgb(230,148,82)"/>
<path d="M61 56h4v1h1v1h1v1h1v2h-1v2h-1v1h-4v-1h-2v-2h1v1h2v-1h1v-3h-1v-1h-2v-1z" fill="rgb(197,156,74)"/>
<path d="M65 56h1v1h-1v-1z" fill="rgb(148,106,82)"/>
<path d="M66 56h1v1h-1v-1z" fill="rgb(16,16,16)"/>
<path d="M67 56h2v1h-2v-1z" fill="rgb(90,65,16)"/>
<path d="M72 56h1v1h-1v-1z" fill="rgb(16,16,16)"/>
<path d="M73 56h1v2h3v1h-1v1h-4v-1h-1v-1h1v-1h1v-1z" fill="rgb(197,156,74)"/>
<path d="M74 56h1v1h-1v-1z" fill="rgb(16,16,16)"/>
<path d="M43 57h1v2h-1v-2z" fill="rgb(148,106,82)"/>
<path d="M44 57h2v2h1v1h1v2h-1v1h-3v-1h-1v-3h1v-2z" fill="rgb(197,156,74)"/>
<path d="M46 57h1v2h-1v-2z" fill="rgb(90,65,16)"/>
<path d="M57 57h1v1h-1v-1z" fill="rgb(189,115,57)"/>
<path d="M58 57h1v1h-1v-1z" fill="rgb(230,148,82)"/>
<path d="M59 57h1v1h-1v-1z" fill="rgb(90,65,16)"/>
<path d="M60 57h1v1h-1v-1z" fill="rgb(197,156,74)"/>
<path d="M61 57h2v1h1v3h-1v1h-2v-1h-1v-3h1v-1z" fill="rgb(222,189,106)"/>
<path d="M66 57h1v1h-1v-1z" fill="rgb(148,106,82)"/>
<path d="M67 57h1v1h-1v-1z" fill="rgb(16,16,16)"/>
<path d="M68 57h1v1h2v1h1v1h3v1h-2v1h-3v-1h-1v-2h-1v-2z" fill="rgb(148,106,82)"/>
<path d="M69 57h1v1h-1v-1z" fill="rgb(90,65,16)"/>
<path d="M70 57h2v1h-2v-1z" fill="rgb(16,16,16)"/>
<path d="M74 57h3v1h-3v-1z" fill="rgb(90,65,16)"/>
<path d="M77 57h1v2h-1v-2z" fill="rgb(16,16,16)"/>
<path d="M47 58h2v1h-2v-1z" fill="rgb(189,115,57)"/>
<path d="M55 58h2v1h-2v-1z" fill="rgb(189,115,57)"/>
<path d="M57 58h1v1h-1v-1z" fill="rgb(230,148,82)"/>
<path d="M58 58h1v1h-1v-1z" fill="rgb(90,65,16)"/>
<path d="M59 58h1v1h-1v-1z" fill="rgb(148,106,82)"/>
<path d="M67 58h1v1h-1v-1z" fill="rgb(90,65,16)"/>
<path d="M42 59h1v4h-1v-4z" fill="rgb(90,65,16)"/>
<path d="M47 59h1v1h-1v-1z" fill="rgb(90,65,16)"/>
<path d="M48 59h1v1h-1v-1z" fill="rgb(230,148,82)"/>
<path d="M49 59h6v1h-6v-1z" fill="rgb(189,115,57)"/>
<path d="M55 59h1v1h-1v-1z" fill="rgb(246,197,148)"/>
<path d="M56 59h1v1h-1v-1z" fill="rgb(230,148,82)"/>
<path d="M57 59h1v1h-1v-1z" fill="rgb(246,197,148)"/>
<path d="M58 59h1v2h-1v-2z" fill="rgb(16,16,16)"/>
<path d="M59 59h1v2h-1v-2z" fill="rgb(197,156,74)"/>
<path d="M68 59h1v1h-1v-1z" fill="rgb(16,16,16)"/>
<path d="M76 59h1v1h-1v-1z" fill="rgb(16,16,16)"/>
<path d="M48 60h1v1h-1v-1z" fill="rgb(90,65,16)"/>
<path d="M49 60h5v1h1v1h-3v-1h-3v-1z" fill="rgb(230,148,82)"/>
<path d="M54 60h1v1h-1v-1z" fill="rgb(246,197,148)"/>
<path d="M55 60h1v1h-1v-1z" fill="rgb(230,148,82)"/>
<path d="M56 60h1v1h-1v-1z" fill="rgb(246,197,148)"/>
<path d="M57 60h1v1h-1v-1z" fill="rgb(230,148,82)"/>
<path d="M68 60h1v1h-1v-1z" fill="rgb(90,65,16)"/>
<path d="M75 60h1v1h-1v-1z" fill="rgb(16,16,16)"/>
<path d="M48 61h1v1h1v2h-1v1h-1v1h-3v-1h-1v-2h3v-1h1v-1z" fill="rgb(148,106,82)"/>
<path d="M49 61h1v1h-1v-1z" fill="rgb(16,16,16)"/>
<path d="M50 61h2v1h-2v-1z" fill="rgb(189,115,57)"/>
<path d="M55 61h1v1h-1v-1z" fill="rgb(246,197,148)"/>
<path d="M56 61h1v1h-1v-1z" fill="rgb(230,148,82)"/>
<path d="M57 61h1v1h-1v-1z" fill="rgb(189,115,57)"/>
<path d="M58 61h1v1h-1v-1z" fill="rgb(90,65,16)"/>
<path d="M59 61h1v1h-1v-1z" fill="rgb(148,106,82)"/>
<path d="M67 61h2v6h-1v-1h-2v1h-1v-1h-1v-1h-1v-1h3v-1h1v-2z" fill="rgb(148,106,82)"/>
<path d="M69 61h1v1h-1v-1z" fill="rgb(90,65,16)"/>
<path d="M73 61h2v1h-2v-1z" fill="rgb(16,16,16)"/>
<path d="M43 62h1v1h-1v-1z" fill="rgb(148,106,82)"/>
<path d="M50 62h2v1h-1v1h-1v-2z" fill="rgb(16,16,16)"/>
<path d="M52 62h5v1h-5v-1z" fill="rgb(189,115,57)"/>
<path d="M57 62h2v1h1v1h-6v-1h3v-1z" fill="rgb(230,148,82)"/>
<path d="M59 62h1v1h-1v-1z" fill="rgb(16,16,16)"/>
<path d="M69 62h4v1h-3v3h-1v-4z" fill="rgb(16,16,16)"/>
<path d="M43 63h1v1h-1v-1z" fill="rgb(90,65,16)"/>
<path d="M52 63h2v1h-2v-1z" fill="rgb(16,16,16)"/>
<path d="M60 63h1v1h-1v-1z" fill="rgb(16,16,16)"/>
<path d="M61 63h1v1h-1v-1z" fill="rgb(148,106,82)"/>
<path d="M42 64h1v2h-1v-2z" fill="rgb(82,74,57)"/>
<path d="M43 64h1v1h-1v-1z" fill="rgb(16,16,16)"/>
<path d="M49 64h1v1h-1v-1z" fill="rgb(16,16,16)"/>
<path d="M54 64h6v1h-6v-1z" fill="rgb(16,16,16)"/>
<path d="M61 64h1v1h-1v-1z" fill="rgb(16,16,16)"/>
<path d="M62 64h1v1h-1v-1z" fill="rgb(90,65,16)"/>
<path d="M43 65h2v1h-2v-1z" fill="rgb(255,255,255)"/>
<path d="M48 65h1v1h-1v-1z" fill="rgb(16,16,16)"/>
<path d="M63 65h1v1h-1v-1z" fill="rgb(90,65,16)"/>
<path d="M42 66h5v1h-5v-1z" fill="rgb(16,16,16)"/>
<path d="M64 66h1v1h-1v-1z" fill="rgb(90,65,16)"/>
<path d="M66 66h2v1h-2v-1z" fill="rgb(197,197,205)"/>
<path d="M69 66h1v1h-1v-1z" fill="rgb(90,65,16)"/>
<path d="M65 67h1v1h-1v-1z" fill="rgb(16,16,16)"/>
<path d="M66 67h2v1h-2v-1z" fill="rgb(255,255,255)"/>
<path d="M68 67h1v1h-1v-1z" fill="rgb(197,197,205)"/>
<path d="M69 67h1v1h-1v-1z" fill="rgb(16,16,16)"/>
<path d="M66 68h3v1h-3v-1z" fill="rgb(16,16,16)"/>
</svg>
