<?xml version="1.0" encoding="utf-8"?>
<!-- generated at drububu.com  -->
<!DOCTYPE svg PUBLIC "-//W3C//DTD SVG 1.1//EN" "http://www.w3.org/Graphics/SVG/1.1/DTD/svg11.dtd">
<svg version="1.1" preserveAspectRatio="xMinYMin meet" xmlns="http://www.w3.org/2000/svg" xmlns:xlink="http://www.w3.org/1999/xlink" x="0px" y="0px" width="96px" height="96px" viewBox="0 0 96 96">
<path d="M0 0h96v96h-96v-96z" fill="transparent"/>
<path d="M25 11h1v1h-1v-1z" fill="rgb(115,98,98)"/>
<path d="M24 12h1v2h-1v-2z" fill="rgb(115,98,98)"/>
<path d="M25 12h1v4h-1v1h-2v-1h1v-2h1v-2z" fill="rgb(255,255,255)"/>
<path d="M26 12h1v2h-1v-2z" fill="rgb(115,98,98)"/>
<path d="M30 12h1v1h-1v-1z" fill="rgb(115,98,98)"/>
<path d="M29 13h1v1h-1v-1z" fill="rgb(115,98,98)"/>
<path d="M30 13h1v4h-1v1h-1v-2h1v-3z" fill="rgb(213,205,205)"/>
<path d="M31 13h1v3h-1v-3z" fill="rgb(41,41,41)"/>
<path d="M23 14h1v2h-1v-2z" fill="rgb(115,98,98)"/>
<path d="M26 14h1v2h-1v-2z" fill="rgb(213,205,205)"/>
<path d="M27 14h2v1h-1v1h-1v-2z" fill="rgb(115,98,98)"/>
<path d="M29 14h1v2h-1v2h-1v-1h-1v-1h1v-1h1v-1z" fill="rgb(255,255,255)"/>
<path d="M33 14h2v1h-2v-1z" fill="rgb(115,98,98)"/>
<path d="M32 15h1v1h-1v-1z" fill="rgb(115,98,98)"/>
<path d="M33 15h1v3h-1v-3z" fill="rgb(213,205,205)"/>
<path d="M34 15h1v3h-1v-3z" fill="rgb(41,41,41)"/>
<path d="M22 16h1v1h-1v-1z" fill="rgb(115,98,98)"/>
<path d="M25 16h1v1h-1v-1z" fill="rgb(213,205,205)"/>
<path d="M26 16h1v1h-1v-1z" fill="rgb(115,98,98)"/>
<path d="M31 16h1v1h-1v-1z" fill="rgb(115,98,98)"/>
<path d="M32 16h1v2h-1v1h-1v-2h1v-1z" fill="rgb(255,255,255)"/>
<path d="M22 17h1v1h-1v-1z" fill="rgb(98,57,24)"/>
<path d="M23 17h1v1h-1v-1z" fill="rgb(41,41,41)"/>
<path d="M24 17h2v1h-2v-1z" fill="rgb(164,123,115)"/>
<path d="M26 17h2v1h-2v-1z" fill="rgb(98,57,24)"/>
<path d="M30 17h1v1h-1v-1z" fill="rgb(115,98,98)"/>
<path d="M21 18h1v1h-1v-1z" fill="rgb(98,57,24)"/>
<path d="M22 18h1v1h-1v-1z" fill="rgb(164,123,115)"/>
<path d="M23 18h5v1h3v3h-1v1h-1v1h-1v1h-1v1h-1v-3h-1v-1h-1v-1h-3v-1h1v-1h1v-1z" fill="rgb(205,164,131)"/>
<path d="M28 18h1v1h-1v-1z" fill="rgb(164,123,115)"/>
<path d="M29 18h1v1h-1v-1z" fill="rgb(98,57,24)"/>
<path d="M30 18h1v1h-1v-1z" fill="rgb(41,41,41)"/>
<path d="M32 18h1v2h-1v-2z" fill="rgb(213,205,205)"/>
<path d="M33 18h1v1h-1v-1z" fill="rgb(115,98,98)"/>
<path d="M20 19h1v1h-1v-1z" fill="rgb(98,57,24)"/>
<path d="M21 19h1v1h-1v-1z" fill="rgb(164,123,115)"/>
<path d="M31 19h1v1h-1v-1z" fill="rgb(98,57,24)"/>
<path d="M33 19h1v1h-1v-1z" fill="rgb(41,41,41)"/>
<path d="M19 20h1v2h-1v-2z" fill="rgb(98,57,24)"/>
<path d="M20 20h1v2h-1v-2z" fill="rgb(131,90,57)"/>
<path d="M31 20h1v2h-1v-2z" fill="rgb(164,123,115)"/>
<path d="M32 20h1v2h-1v-2z" fill="rgb(41,41,41)"/>
<path d="M21 21h3v1h-3v-1z" fill="rgb(115,123,32)"/>
<path d="M18 22h1v2h-1v-2z" fill="rgb(98,57,24)"/>
<path d="M19 22h1v5h1v1h4v-1h1v2h1v2h-3v1h-2v-1h-2v-1h-1v-2h-1v-4h1v-2z" fill="rgb(164,123,115)"/>
<path d="M20 22h1v1h-1v-1z" fill="rgb(115,123,32)"/>
<path d="M21 22h3v1h1v2h-1v1h-1v1h-2v-1h-1v-3h1v-1z" fill="rgb(238,255,148)"/>
<path d="M24 22h1v1h-1v-1z" fill="rgb(115,123,32)"/>
<path d="M30 22h1v3h-1v-1h-1v-1h1v-1z" fill="rgb(164,123,115)"/>
<path d="M31 22h1v3h-1v-3z" fill="rgb(41,41,41)"/>
<path d="M25 23h1v3h-1v-3z" fill="rgb(115,123,32)"/>
<path d="M17 24h1v1h-1v-1z" fill="rgb(98,57,24)"/>
<path d="M28 24h2v1h-2v-1z" fill="rgb(115,123,32)"/>
<path d="M17 25h1v3h-1v-3z" fill="rgb(41,41,41)"/>
<path d="M24 25h1v1h-1v-1z" fill="rgb(197,205,115)"/>
<path d="M27 25h1v2h-1v-2z" fill="rgb(115,123,32)"/>
<path d="M28 25h1v1h-1v-1z" fill="rgb(197,205,115)"/>
<path d="M29 25h1v1h-1v-1z" fill="rgb(238,255,148)"/>
<path d="M30 25h1v2h-1v-2z" fill="rgb(41,41,41)"/>
<path d="M20 26h1v1h-1v-1z" fill="rgb(115,123,32)"/>
<path d="M23 26h1v1h-1v-1z" fill="rgb(197,205,115)"/>
<path d="M24 26h1v1h-1v-1z" fill="rgb(115,123,32)"/>
<path d="M25 26h1v1h-1v-1z" fill="rgb(205,164,131)"/>
<path d="M26 26h1v1h-1v-1z" fill="rgb(164,123,115)"/>
<path d="M28 26h1v2h-2v-1h1v-1z" fill="rgb(238,255,148)"/>
<path d="M29 26h1v1h-1v-1z" fill="rgb(197,205,115)"/>
<path d="M21 27h3v1h-3v-1z" fill="rgb(115,123,32)"/>
<path d="M24 27h1v1h-1v-1z" fill="rgb(205,164,131)"/>
<path d="M26 27h1v1h-1v-1z" fill="rgb(115,123,32)"/>
<path d="M29 27h1v2h-1v1h-1v-2h1v-1z" fill="rgb(41,41,41)"/>
<path d="M53 27h6v1h-6v-1z" fill="rgb(131,90,57)"/>
<path d="M59 27h1v1h-1v-1z" fill="rgb(90,74,41)"/>
<path d="M18 28h1v1h-1v-1z" fill="rgb(98,57,24)"/>
<path d="M26 28h1v1h-1v-1z" fill="rgb(41,41,41)"/>
<path d="M27 28h1v1h-1v-1z" fill="rgb(197,205,115)"/>
<path d="M30 28h1v1h-1v-1z" fill="rgb(90,74,41)"/>
<path d="M50 28h2v1h-2v-1z" fill="rgb(131,90,57)"/>
<path d="M52 28h1v1h-1v-1z" fill="rgb(164,123,115)"/>
<path d="M53 28h3v1h3v1h1v1h1v1h-1v1h-1v1h-2v1h-5v-1h-2v-1h-1v-3h1v-1h3v-1z" fill="rgb(238,197,164)"/>
<path d="M56 28h4v1h2v1h1v1h1v1h1v1h1v1h1v4h-1v1h-1v1h-1v1h-1v1h-1v2h-1v3h-1v-1h-2v1h-2
	v-1h-2v-1h-3v1h-1v2h1v1h1v1h-1v2h1v1h1v-1h2v1h-1v1h-1v1h-3v-1h-2v-1h-2v-1h-1v-1
	h-1v-2h-1v-2h1v-2h-1v-2h2v-4h-1v-2h1v-1h1v2h1v1h1v1h3v-4h-1v-2h2v1h5v-1h2v1h1
	v-1h1v-1h1v-1h-1v-1h-1v-1h-1v-1h-3v-1z" fill="rgb(205,164,131)"/>
<path d="M60 28h1v1h-1v-1z" fill="rgb(131,90,57)"/>
<path d="M61 28h1v1h-1v-1z" fill="rgb(98,57,24)"/>
<path d="M18 29h1v1h-1v-1z" fill="rgb(41,41,41)"/>
<path d="M27 29h1v1h-1v-1z" fill="rgb(98,57,24)"/>
<path d="M29 29h2v1h-1v1h-1v-2z" fill="rgb(238,230,180)"/>
<path d="M31 29h1v1h-1v-1z" fill="rgb(90,74,41)"/>
<path d="M48 29h1v1h-1v-1z" fill="rgb(131,90,57)"/>
<path d="M49 29h1v1h-1v-1z" fill="rgb(164,123,115)"/>
<path d="M62 29h1v1h-1v-1z" fill="rgb(131,90,57)"/>
<path d="M63 29h1v1h-1v-1z" fill="rgb(98,57,24)"/>
<path d="M19 30h1v1h-1v-1z" fill="rgb(41,41,41)"/>
<path d="M27 30h1v1h-1v-1z" fill="rgb(41,41,41)"/>
<path d="M28 30h1v1h1v1h-2v1h-2v-1h1v-1h1v-1z" fill="rgb(189,180,106)"/>
<path d="M30 30h1v2h-1v-2z" fill="rgb(90,74,41)"/>
<path d="M31 30h1v3h-1v-3z" fill="rgb(238,230,180)"/>
<path d="M32 30h1v1h1v1h-1v1h-1v-3z" fill="rgb(90,74,41)"/>
<path d="M47 30h1v1h-1v-1z" fill="rgb(131,90,57)"/>
<path d="M48 30h1v3h-1v-1h-1v-1h1v-1z" fill="rgb(205,164,131)"/>
<path d="M63 30h1v1h-1v-1z" fill="rgb(164,123,115)"/>
<path d="M64 30h1v1h-1v-1z" fill="rgb(98,57,24)"/>
<path d="M20 31h2v1h-2v-1z" fill="rgb(41,41,41)"/>
<path d="M24 31h2v1h-2v-1z" fill="rgb(98,57,24)"/>
<path d="M26 31h1v1h-1v-1z" fill="rgb(90,74,41)"/>
<path d="M45 31h2v1h-2v-1z" fill="rgb(131,90,57)"/>
<path d="M64 31h1v1h-1v-1z" fill="rgb(164,123,115)"/>
<path d="M65 31h1v1h-1v-1z" fill="rgb(98,57,24)"/>
<path d="M22 32h4v1h-4v-1z" fill="rgb(41,41,41)"/>
<path d="M28 32h2v1h-2v-1z" fill="rgb(90,74,41)"/>
<path d="M30 32h1v2h-3v-1h2v-1z" fill="rgb(189,180,106)"/>
<path d="M33 32h1v2h-2v-1h1v-1z" fill="rgb(238,230,180)"/>
<path d="M34 32h1v2h-1v-2z" fill="rgb(90,74,41)"/>
<path d="M43 32h1v1h-1v-1z" fill="rgb(90,74,41)"/>
<path d="M44 32h1v1h-1v-1z" fill="rgb(98,57,24)"/>
<path d="M45 32h1v2h-1v3h-1v2h-1v1h1v2h-2v-1h-1v-1h-1v-1h1v-2h1v-3h1v-1h2v-1z" fill="rgb(164,123,115)"/>
<path d="M46 32h1v1h-1v-1z" fill="rgb(98,57,24)"/>
<path d="M47 32h1v1h-1v-1z" fill="rgb(115,98,98)"/>
<path d="M60 32h1v1h-1v-1z" fill="rgb(205,164,131)"/>
<path d="M61 32h1v1h-1v-1z" fill="rgb(238,197,164)"/>
<path d="M65 32h1v1h-1v-1z" fill="rgb(164,123,115)"/>
<path d="M66 32h1v2h-1v-2z" fill="rgb(41,41,41)"/>
<path d="M26 33h2v1h-2v-1z" fill="rgb(41,41,41)"/>
<path d="M31 33h1v1h-1v-1z" fill="rgb(90,74,41)"/>
<path d="M42 33h1v1h-1v-1z" fill="rgb(90,74,41)"/>
<path d="M46 33h1v1h-1v-1z" fill="rgb(205,164,131)"/>
<path d="M47 33h1v1h1v1h-2v-2z" fill="rgb(41,41,41)"/>
<path d="M48 33h1v1h-1v-1z" fill="rgb(115,98,98)"/>
<path d="M49 33h1v1h-1v-1z" fill="rgb(205,164,131)"/>
<path d="M59 33h1v1h-1v-1z" fill="rgb(205,164,131)"/>
<path d="M60 33h1v1h-1v-1z" fill="rgb(238,197,164)"/>
<path d="M28 34h1v1h-1v-1z" fill="rgb(41,41,41)"/>
<path d="M29 34h2v1h-2v-1z" fill="rgb(90,74,41)"/>
<path d="M31 34h2v2h-3v-1h1v-1z" fill="rgb(189,180,106)"/>
<path d="M33 34h1v2h-1v-2z" fill="rgb(90,74,41)"/>
<path d="M34 34h1v2h-1v-2z" fill="rgb(238,230,180)"/>
<path d="M35 34h1v1h1v1h1v2h-1v-1h-1v-1h-1v-2z" fill="rgb(90,74,41)"/>
<path d="M41 34h1v3h-1v-3z" fill="rgb(90,74,41)"/>
<path d="M45 34h1v2h-1v-2z" fill="rgb(98,57,24)"/>
<path d="M46 34h1v1h-1v-1z" fill="rgb(164,123,115)"/>
<path d="M49 34h1v1h-1v-1z" fill="rgb(115,98,98)"/>
<path d="M59 34h1v1h-1v-1z" fill="rgb(238,197,164)"/>
<path d="M67 34h1v2h-1v-2z" fill="rgb(41,41,41)"/>
<path d="M29 35h1v1h-1v-1z" fill="rgb(41,41,41)"/>
<path d="M46 35h2v1h-1v1h-1v-2z" fill="rgb(115,98,98)"/>
<path d="M48 35h1v1h-1v-1z" fill="rgb(213,205,205)"/>
<path d="M49 35h1v2h-1v-2z" fill="rgb(41,41,41)"/>
<path d="M30 36h1v1h-1v-1z" fill="rgb(41,41,41)"/>
<path d="M31 36h2v1h-2v-1z" fill="rgb(90,74,41)"/>
<path d="M33 36h3v1h-1v1h-3v-1h1v-1z" fill="rgb(189,180,106)"/>
<path d="M47 36h1v1h1v1h2v1h-1v1h-1v-1h-1v-1h-1v-2z" fill="rgb(41,41,41)"/>
<path d="M48 36h1v1h-1v-1z" fill="rgb(255,255,255)"/>
<path d="M50 36h1v2h-1v-2z" fill="rgb(115,98,98)"/>
<path d="M67 36h1v5h-1v-1h-2v-1h1v-1h1v-2z" fill="rgb(164,123,115)"/>
<path d="M68 36h1v5h-1v-5z" fill="rgb(41,41,41)"/>
<path d="M31 37h1v1h-1v-1z" fill="rgb(41,41,41)"/>
<path d="M35 37h1v1h-1v-1z" fill="rgb(90,74,41)"/>
<path d="M36 37h1v1h1v1h-1v1h-3v-1h1v-1h1v-1z" fill="rgb(189,180,106)"/>
<path d="M40 37h1v2h-1v-2z" fill="rgb(90,74,41)"/>
<path d="M46 37h1v1h-1v-1z" fill="rgb(164,123,115)"/>
<path d="M49 37h1v1h-1v-1z" fill="rgb(213,205,205)"/>
<path d="M57 37h2v1h-2v-1z" fill="rgb(115,98,98)"/>
<path d="M59 37h4v1h-1v3h-2v1h-5v-1h4v-1h1v-2h-1v-1z" fill="rgb(41,41,41)"/>
<path d="M32 38h1v1h-1v-1z" fill="rgb(41,41,41)"/>
<path d="M33 38h2v1h-2v-1z" fill="rgb(90,74,41)"/>
<path d="M38 38h1v1h-1v-1z" fill="rgb(90,74,41)"/>
<path d="M47 38h1v1h-1v-1z" fill="rgb(115,98,98)"/>
<path d="M55 38h1v1h-1v-1z" fill="rgb(115,98,98)"/>
<path d="M56 38h1v2h-1v-2z" fill="rgb(41,41,41)"/>
<path d="M57 38h2v1h-2v-1z" fill="rgb(213,205,205)"/>
<path d="M59 38h1v2h-1v-2z" fill="rgb(115,98,98)"/>
<path d="M62 38h1v1h-1v-1z" fill="rgb(115,98,98)"/>
<path d="M33 39h1v1h-1v-1z" fill="rgb(41,41,41)"/>
<path d="M37 39h1v1h-1v-1z" fill="rgb(90,74,41)"/>
<path d="M38 39h1v1h1v2h-1v1h-3v-2h1v-1h1v-1z" fill="rgb(189,180,106)"/>
<path d="M39 39h1v1h-1v-1z" fill="rgb(90,74,41)"/>
<path d="M43 39h2v1h-2v-1z" fill="rgb(98,57,24)"/>
<path d="M48 39h1v1h-1v-1z" fill="rgb(164,123,115)"/>
<path d="M50 39h1v1h-1v-1z" fill="rgb(115,98,98)"/>
<path d="M54 39h1v1h-1v-1z" fill="rgb(115,98,98)"/>
<path d="M55 39h1v1h-1v-1z" fill="rgb(213,205,205)"/>
<path d="M57 39h2v1h-1v1h-2v-1h1v-1z" fill="rgb(255,255,255)"/>
<path d="M62 39h1v1h-1v-1z" fill="rgb(164,123,115)"/>
<path d="M34 40h1v1h-1v-1z" fill="rgb(41,41,41)"/>
<path d="M35 40h2v1h-2v-1z" fill="rgb(90,74,41)"/>
<path d="M40 40h1v2h-1v-2z" fill="rgb(90,74,41)"/>
<path d="M44 40h1v2h-1v-2z" fill="rgb(41,41,41)"/>
<path d="M53 40h1v1h-1v-1z" fill="rgb(115,98,98)"/>
<path d="M54 40h1v1h-1v-1z" fill="rgb(41,41,41)"/>
<path d="M55 40h1v1h-1v-1z" fill="rgb(115,98,98)"/>
<path d="M58 40h1v1h-1v-1z" fill="rgb(115,98,98)"/>
<path d="M64 40h3v1h-3v-1z" fill="rgb(98,57,24)"/>
<path d="M35 41h1v2h-1v-2z" fill="rgb(41,41,41)"/>
<path d="M41 41h1v2h-1v-2z" fill="rgb(98,57,24)"/>
<path d="M54 41h1v1h-1v-1z" fill="rgb(115,98,98)"/>
<path d="M60 41h1v1h-1v-1z" fill="rgb(115,98,98)"/>
<path d="M63 41h1v1h-1v-1z" fill="rgb(164,123,115)"/>
<path d="M64 41h3v1h2v2h-1v1h-2v1h-4v-2h1v-2h1v-1z" fill="rgb(205,164,131)"/>
<path d="M67 41h2v1h-2v-1z" fill="rgb(98,57,24)"/>
<path d="M39 42h1v1h-1v-1z" fill="rgb(90,74,41)"/>
<path d="M40 42h1v1h1v2h-1v1h-2v-1h-1v-1h1v-1h1v-1z" fill="rgb(189,180,106)"/>
<path d="M42 42h2v1h-2v-1z" fill="rgb(41,41,41)"/>
<path d="M44 42h1v1h-1v-1z" fill="rgb(164,123,115)"/>
<path d="M62 42h1v2h-1v-2z" fill="rgb(164,123,115)"/>
<path d="M69 42h1v1h-1v-1z" fill="rgb(98,57,24)"/>
<path d="M36 43h1v1h1v1h1v1h-1v1h-1v-2h-2v-1h1v-1z" fill="rgb(41,41,41)"/>
<path d="M37 43h2v1h-2v-1z" fill="rgb(90,74,41)"/>
<path d="M42 43h1v2h-1v-2z" fill="rgb(90,74,41)"/>
<path d="M45 43h2v1h-2v-1z" fill="rgb(164,123,115)"/>
<path d="M69 43h1v1h-1v-1z" fill="rgb(164,123,115)"/>
<path d="M70 43h1v1h-1v-1z" fill="rgb(98,57,24)"/>
<path d="M61 44h1v4h-2v-1h1v-3z" fill="rgb(98,57,24)"/>
<path d="M68 44h1v1h-1v-1z" fill="rgb(164,123,115)"/>
<path d="M69 44h1v1h-1v-1z" fill="rgb(205,164,131)"/>
<path d="M70 44h1v1h-1v-1z" fill="rgb(131,90,57)"/>
<path d="M71 44h1v1h-1v-1z" fill="rgb(98,57,24)"/>
<path d="M34 45h1v1h-1v-1z" fill="rgb(41,41,41)"/>
<path d="M35 45h2v2h-1v-1h-1v-1z" fill="rgb(164,123,115)"/>
<path d="M41 45h1v1h-1v-1z" fill="rgb(90,74,41)"/>
<path d="M42 45h1v2h-1v1h-3v-1h2v-1h1v-1z" fill="rgb(189,180,106)"/>
<path d="M43 45h1v2h-1v-2z" fill="rgb(90,74,41)"/>
<path d="M51 45h3v1h-3v-1z" fill="rgb(98,57,24)"/>
<path d="M66 45h1v1h-1v-1z" fill="rgb(131,90,57)"/>
<path d="M67 45h1v2h-1v-2z" fill="rgb(90,74,41)"/>
<path d="M68 45h2v1h-2v-1z" fill="rgb(98,57,24)"/>
<path d="M70 45h2v2h-2v-2z" fill="rgb(205,164,131)"/>
<path d="M72 45h1v1h-1v-1z" fill="rgb(98,57,24)"/>
<path d="M33 46h1v1h-1v-1z" fill="rgb(41,41,41)"/>
<path d="M34 46h1v1h-1v-1z" fill="rgb(189,180,106)"/>
<path d="M35 46h1v1h-1v-1z" fill="rgb(90,74,41)"/>
<path d="M38 46h1v1h-1v-1z" fill="rgb(189,180,106)"/>
<path d="M39 46h2v1h-2v-1z" fill="rgb(90,74,41)"/>
<path d="M50 46h1v2h-1v-2z" fill="rgb(98,57,24)"/>
<path d="M51 46h2v1h-2v-1z" fill="rgb(238,197,164)"/>
<path d="M53 46h1v1h-1v-1z" fill="rgb(205,164,131)"/>
<path d="M54 46h2v1h-2v-1z" fill="rgb(98,57,24)"/>
<path d="M58 46h2v1h-2v-1z" fill="rgb(98,57,24)"/>
<path d="M62 46h4v1h-2v1h-1v-1h-1v-1z" fill="rgb(90,74,41)"/>
<path d="M66 46h1v1h-1v-1z" fill="rgb(238,230,180)"/>
<path d="M68 46h1v1h-1v-1z" fill="rgb(189,180,106)"/>
<path d="M69 46h1v1h-1v-1z" fill="rgb(131,90,57)"/>
<path d="M72 46h1v3h-2v-2h1v-1z" fill="rgb(164,123,115)"/>
<path d="M73 46h1v1h-1v-1z" fill="rgb(98,57,24)"/>
<path d="M32 47h1v1h-1v-1z" fill="rgb(41,41,41)"/>
<path d="M33 47h1v1h1v1h-2v-2z" fill="rgb(189,180,106)"/>
<path d="M34 47h1v1h-1v-1z" fill="rgb(90,74,41)"/>
<path d="M35 47h1v1h-1v-1z" fill="rgb(189,180,106)"/>
<path d="M36 47h1v1h-1v-1z" fill="rgb(41,41,41)"/>
<path d="M37 47h1v1h-1v-1z" fill="rgb(90,74,41)"/>
<path d="M38 47h1v1h-1v-1z" fill="rgb(41,41,41)"/>
<path d="M42 47h1v1h-1v-1z" fill="rgb(90,74,41)"/>
<path d="M51 47h1v1h-1v-1z" fill="rgb(205,164,131)"/>
<path d="M52 47h1v1h-1v-1z" fill="rgb(41,41,41)"/>
<path d="M53 47h3v1h-3v-1z" fill="rgb(164,123,115)"/>
<path d="M56 47h2v1h-2v-1z" fill="rgb(131,90,57)"/>
<path d="M58 47h2v1h2v3h-3v-1h-1v-1h-1v-1h1v-1z" fill="rgb(164,123,115)"/>
<path d="M62 47h1v1h-1v-1z" fill="rgb(238,230,180)"/>
<path d="M64 47h2v1h-2v-1z" fill="rgb(238,230,180)"/>
<path d="M66 47h1v2h-1v-2z" fill="rgb(90,74,41)"/>
<path d="M67 47h1v2h-1v-2z" fill="rgb(238,230,180)"/>
<path d="M68 47h1v2h-1v-2z" fill="rgb(90,74,41)"/>
<path d="M69 47h1v3h-2v-1h1v-2z" fill="rgb(189,180,106)"/>
<path d="M70 47h1v2h-1v-2z" fill="rgb(90,74,41)"/>
<path d="M73 47h1v2h-1v-2z" fill="rgb(41,41,41)"/>
<path d="M31 48h1v2h-1v-2z" fill="rgb(41,41,41)"/>
<path d="M32 48h1v1h-1v-1z" fill="rgb(90,74,41)"/>
<path d="M35 48h1v1h-1v-1z" fill="rgb(41,41,41)"/>
<path d="M37 48h1v1h-1v-1z" fill="rgb(98,57,24)"/>
<path d="M38 48h1v1h-1v-1z" fill="rgb(164,123,115)"/>
<path d="M39 48h1v1h-1v-1z" fill="rgb(41,41,41)"/>
<path d="M40 48h2v1h-2v-1z" fill="rgb(90,74,41)"/>
<path d="M42 48h1v1h1v2h1v1h1v1h2v1h2v1h3v-1h1v1h1v1h1v1h-1v1h-1v2h-1v-1h-1v-1h-4v1h-1v1
	h-1v-2h-1v-2h-1v-2h-1v-1h-1v-1h-1v-1h-1v-1h-1v-1h3v-1z" fill="rgb(164,123,115)"/>
<path d="M51 48h1v1h-1v-1z" fill="rgb(41,41,41)"/>
<path d="M52 48h1v1h-1v-1z" fill="rgb(90,74,41)"/>
<path d="M53 48h2v1h-2v-1z" fill="rgb(98,57,24)"/>
<path d="M55 48h2v2h-2v-2z" fill="rgb(205,164,131)"/>
<path d="M62 48h1v1h-1v-1z" fill="rgb(98,57,24)"/>
<path d="M63 48h1v1h-1v-1z" fill="rgb(189,180,106)"/>
<path d="M64 48h1v1h-1v-1z" fill="rgb(90,74,41)"/>
<path d="M65 48h1v1h-1v-1z" fill="rgb(189,180,106)"/>
<path d="M32 49h1v1h1v1h-2v-2z" fill="rgb(189,180,106)"/>
<path d="M33 49h1v1h-1v-1z" fill="rgb(90,74,41)"/>
<path d="M34 49h1v2h-1v-2z" fill="rgb(41,41,41)"/>
<path d="M38 49h1v1h-1v-1z" fill="rgb(41,41,41)"/>
<path d="M52 49h1v1h-1v-1z" fill="rgb(98,57,24)"/>
<path d="M53 49h2v1h-2v-1z" fill="rgb(238,197,164)"/>
<path d="M57 49h1v1h-1v-1z" fill="rgb(98,57,24)"/>
<path d="M62 49h1v1h-1v-1z" fill="rgb(131,90,57)"/>
<path d="M63 49h4v1h-4v-1z" fill="rgb(41,41,41)"/>
<path d="M67 49h1v1h-1v-1z" fill="rgb(90,74,41)"/>
<path d="M70 49h1v1h-1v-1z" fill="rgb(131,90,57)"/>
<path d="M71 49h1v1h-1v-1z" fill="rgb(98,57,24)"/>
<path d="M72 49h1v1h-1v-1z" fill="rgb(41,41,41)"/>
<path d="M30 50h1v1h-1v-1z" fill="rgb(41,41,41)"/>
<path d="M31 50h1v1h-1v-1z" fill="rgb(90,74,41)"/>
<path d="M39 50h1v1h-1v-1z" fill="rgb(41,41,41)"/>
<path d="M51 50h1v1h-1v-1z" fill="rgb(98,57,24)"/>
<path d="M52 50h2v1h-2v-1z" fill="rgb(205,164,131)"/>
<path d="M54 50h2v1h-2v-1z" fill="rgb(41,41,41)"/>
<path d="M56 50h1v1h-1v-1z" fill="rgb(98,57,24)"/>
<path d="M57 50h2v2h-1v-1h-1v-1z" fill="rgb(205,164,131)"/>
<path d="M62 50h1v1h-1v-1z" fill="rgb(41,41,41)"/>
<path d="M68 50h3v1h-3v-1z" fill="rgb(41,41,41)"/>
<path d="M29 51h1v1h-1v-1z" fill="rgb(98,57,24)"/>
<path d="M30 51h1v1h-1v-1z" fill="rgb(131,90,57)"/>
<path d="M31 51h1v1h1v1h-2v-2z" fill="rgb(189,180,106)"/>
<path d="M32 51h1v1h-1v-1z" fill="rgb(90,74,41)"/>
<path d="M33 51h1v2h-1v-2z" fill="rgb(41,41,41)"/>
<path d="M40 51h1v1h-1v-1z" fill="rgb(41,41,41)"/>
<path d="M51 51h1v1h-1v-1z" fill="rgb(41,41,41)"/>
<path d="M52 51h1v1h-1v-1z" fill="rgb(164,123,115)"/>
<path d="M53 51h1v1h-1v-1z" fill="rgb(41,41,41)"/>
<path d="M54 51h1v1h-1v-1z" fill="rgb(90,74,41)"/>
<path d="M55 51h1v2h-1v-2z" fill="rgb(98,57,24)"/>
<path d="M56 51h2v2h-2v-2z" fill="rgb(238,197,164)"/>
<path d="M59 51h1v1h-1v-1z" fill="rgb(98,57,24)"/>
<path d="M60 51h2v1h-2v-1z" fill="rgb(41,41,41)"/>
<path d="M28 52h1v2h-1v-2z" fill="rgb(98,57,24)"/>
<path d="M29 52h1v1h1v1h1v2h1v1h1v2h-2v-1h-1v-2h-1v2h1v1h-2v-4h-1v-1h1v-2z" fill="rgb(164,123,115)"/>
<path d="M30 52h1v1h-1v-1z" fill="rgb(90,74,41)"/>
<path d="M41 52h1v1h-1v-1z" fill="rgb(41,41,41)"/>
<path d="M52 52h1v1h-1v-1z" fill="rgb(41,41,41)"/>
<path d="M58 52h2v1h-1v2h-1v1h-1v1h-1v-1h-1v-1h2v-2h1v-1z" fill="rgb(41,41,41)"/>
<path d="M27 53h1v1h-1v-1z" fill="rgb(131,90,57)"/>
<path d="M31 53h1v1h-1v-1z" fill="rgb(90,74,41)"/>
<path d="M32 53h1v3h-1v-3z" fill="rgb(41,41,41)"/>
<path d="M42 53h1v1h-1v-1z" fill="rgb(41,41,41)"/>
<path d="M54 53h1v2h-1v-2z" fill="rgb(41,41,41)"/>
<path d="M55 53h2v2h-2v-2z" fill="rgb(164,123,115)"/>
<path d="M27 54h1v1h1v4h-1v-2h-1v-3z" fill="rgb(98,57,24)"/>
<path d="M43 54h1v1h-1v-1z" fill="rgb(131,90,57)"/>
<path d="M43 55h1v1h-1v-1z" fill="rgb(41,41,41)"/>
<path d="M30 56h1v2h-1v-2z" fill="rgb(98,57,24)"/>
<path d="M33 56h1v1h-1v-1z" fill="rgb(41,41,41)"/>
<path d="M44 56h1v1h-1v-1z" fill="rgb(98,57,24)"/>
<path d="M34 57h1v2h-1v-2z" fill="rgb(41,41,41)"/>
<path d="M44 57h1v1h-1v-1z" fill="rgb(41,41,41)"/>
<path d="M55 57h1v1h-1v-1z" fill="rgb(41,41,41)"/>
<path d="M31 58h1v1h-1v-1z" fill="rgb(98,57,24)"/>
<path d="M45 58h1v1h-1v-1z" fill="rgb(98,57,24)"/>
<path d="M48 58h2v1h-2v-1z" fill="rgb(98,57,24)"/>
<path d="M50 58h1v1h-1v-1z" fill="rgb(41,41,41)"/>
<path d="M51 58h1v1h-1v-1z" fill="rgb(98,57,24)"/>
<path d="M54 58h1v2h-1v-2z" fill="rgb(41,41,41)"/>
<path d="M29 59h2v1h-2v-1z" fill="rgb(98,57,24)"/>
<path d="M32 59h2v1h-2v-1z" fill="rgb(41,41,41)"/>
<path d="M45 59h1v1h-1v-1z" fill="rgb(41,41,41)"/>
<path d="M47 59h1v1h-1v-1z" fill="rgb(98,57,24)"/>
<path d="M48 59h4v1h1v1h-1v1h-1v-1h-4v-1h1v-1z" fill="rgb(189,180,106)"/>
<path d="M52 59h1v1h-1v-1z" fill="rgb(41,41,41)"/>
<path d="M46 60h1v1h-1v-1z" fill="rgb(41,41,41)"/>
<path d="M53 60h1v4h-1v-4z" fill="rgb(41,41,41)"/>
<path d="M47 61h1v4h-1v-4z" fill="rgb(41,41,41)"/>
<path d="M48 61h1v1h-1v-1z" fill="rgb(90,74,41)"/>
<path d="M49 61h2v1h-2v-1z" fill="rgb(238,230,180)"/>
<path d="M52 61h1v1h-1v-1z" fill="rgb(90,74,41)"/>
<path d="M48 62h1v1h3v2h-3v-1h-1v-2z" fill="rgb(238,230,180)"/>
<path d="M49 62h3v1h-3v-1z" fill="rgb(90,74,41)"/>
<path d="M52 62h1v2h-1v-2z" fill="rgb(189,180,106)"/>
<path d="M48 64h1v1h-1v-1z" fill="rgb(90,74,41)"/>
<path d="M52 64h1v1h-1v-1z" fill="rgb(90,74,41)"/>
<path d="M47 65h1v1h-1v-1z" fill="rgb(90,74,41)"/>
<path d="M48 65h1v1h2v1h-1v1h-1v-1h-1v-2z" fill="rgb(238,230,180)"/>
<path d="M49 65h3v1h-3v-1z" fill="rgb(90,74,41)"/>
<path d="M52 65h1v2h-1v-2z" fill="rgb(41,41,41)"/>
<path d="M46 66h1v2h-1v-2z" fill="rgb(41,41,41)"/>
<path d="M47 66h1v1h-1v-1z" fill="rgb(189,180,106)"/>
<path d="M51 66h1v1h-1v-1z" fill="rgb(189,180,106)"/>
<path d="M47 67h1v1h-1v-1z" fill="rgb(90,74,41)"/>
<path d="M48 67h1v1h-1v-1z" fill="rgb(189,180,106)"/>
<path d="M50 67h1v1h-1v-1z" fill="rgb(189,180,106)"/>
<path d="M51 67h1v1h-1v-1z" fill="rgb(90,74,41)"/>
<path d="M44 68h2v2h-1v-1h-1v-1z" fill="rgb(41,41,41)"/>
<path d="M46 68h2v1h2v1h-3v-1h-1v-1z" fill="rgb(189,180,106)"/>
<path d="M48 68h2v1h-2v-1z" fill="rgb(90,74,41)"/>
<path d="M50 68h1v1h-1v-1z" fill="rgb(41,41,41)"/>
<path d="M43 69h1v1h-1v-1z" fill="rgb(41,41,41)"/>
<path d="M44 69h1v2h1v1h-2v-1h-1v-1h1v-1z" fill="rgb(164,123,115)"/>
<path d="M46 69h1v1h-1v-1z" fill="rgb(90,74,41)"/>
<path d="M50 69h1v1h-1v-1z" fill="rgb(90,74,41)"/>
<path d="M42 70h1v1h-1v-1z" fill="rgb(98,57,24)"/>
<path d="M45 70h1v1h-1v-1z" fill="rgb(90,74,41)"/>
<path d="M46 70h1v1h-1v-1z" fill="rgb(189,180,106)"/>
<path d="M47 70h2v1h-2v-1z" fill="rgb(90,74,41)"/>
<path d="M49 70h1v2h-1v-2z" fill="rgb(41,41,41)"/>
<path d="M42 71h1v1h-1v-1z" fill="rgb(115,123,32)"/>
<path d="M43 71h1v3h-2v-2h1v-1z" fill="rgb(197,205,115)"/>
<path d="M46 71h1v1h-1v-1z" fill="rgb(90,74,41)"/>
<path d="M47 71h2v1h-2v-1z" fill="rgb(189,180,106)"/>
<path d="M50 71h1v1h-1v-1z" fill="rgb(98,57,24)"/>
<path d="M41 72h1v2h-1v-2z" fill="rgb(41,41,41)"/>
<path d="M44 72h1v2h-1v-2z" fill="rgb(115,123,32)"/>
<path d="M45 72h1v1h3v1h1v1h-1v1h-3v1h-1v-2h-1v-1h1v-2z" fill="rgb(205,164,131)"/>
<path d="M46 72h1v1h-1v-1z" fill="rgb(164,123,115)"/>
<path d="M47 72h1v1h-1v-1z" fill="rgb(98,57,24)"/>
<path d="M48 72h1v1h-1v-1z" fill="rgb(41,41,41)"/>
<path d="M49 72h2v2h1v2h-2v1h-1v-2h1v-1h-1v-2z" fill="rgb(164,123,115)"/>
<path d="M51 72h1v2h-1v-2z" fill="rgb(98,57,24)"/>
<path d="M42 74h2v1h-2v-1z" fill="rgb(115,123,32)"/>
<path d="M52 74h1v1h-1v-1z" fill="rgb(98,57,24)"/>
<path d="M43 75h1v1h-1v-1z" fill="rgb(41,41,41)"/>
<path d="M44 75h1v1h-1v-1z" fill="rgb(164,123,115)"/>
<path d="M52 75h1v1h-1v-1z" fill="rgb(115,98,98)"/>
<path d="M53 75h1v1h-1v-1z" fill="rgb(41,41,41)"/>
<path d="M44 76h1v2h-1v-2z" fill="rgb(41,41,41)"/>
<path d="M46 76h1v1h-1v-1z" fill="rgb(164,123,115)"/>
<path d="M47 76h2v1h-2v-1z" fill="rgb(115,98,98)"/>
<path d="M50 76h1v1h-1v-1z" fill="rgb(115,98,98)"/>
<path d="M51 76h1v1h-1v-1z" fill="rgb(41,41,41)"/>
<path d="M52 76h1v1h-1v-1z" fill="rgb(213,205,205)"/>
<path d="M53 76h1v1h-1v-1z" fill="rgb(255,255,255)"/>
<path d="M54 76h1v1h-1v-1z" fill="rgb(115,98,98)"/>
<path d="M45 77h1v1h-1v-1z" fill="rgb(164,123,115)"/>
<path d="M46 77h1v1h-1v-1z" fill="rgb(213,205,205)"/>
<path d="M47 77h2v1h1v1h-2v-1h-1v-1z" fill="rgb(255,255,255)"/>
<path d="M49 77h1v1h-1v-1z" fill="rgb(115,98,98)"/>
<path d="M50 77h1v1h-1v-1z" fill="rgb(213,205,205)"/>
<path d="M51 77h1v1h-1v-1z" fill="rgb(255,255,255)"/>
<path d="M52 77h1v1h-1v-1z" fill="rgb(41,41,41)"/>
<path d="M53 77h1v1h-1v-1z" fill="rgb(213,205,205)"/>
<path d="M54 77h1v1h-1v-1z" fill="rgb(255,255,255)"/>
<path d="M55 77h1v2h-2v1h-7v-1h6v-1h2v-1z" fill="rgb(41,41,41)"/>
<path d="M45 78h1v1h-1v-1z" fill="rgb(41,41,41)"/>
<path d="M46 78h1v1h-1v-1z" fill="rgb(115,98,98)"/>
<path d="M47 78h1v1h-1v-1z" fill="rgb(213,205,205)"/>
<path d="M50 78h1v1h-1v-1z" fill="rgb(115,98,98)"/>
<path d="M51 78h1v1h-1v-1z" fill="rgb(213,205,205)"/>
<path d="M52 78h1v1h-1v-1z" fill="rgb(255,255,255)"/>
</svg>
