<?xml version="1.0" encoding="utf-8"?>
<!-- generated at drububu.com  -->
<!DOCTYPE svg PUBLIC "-//W3C//DTD SVG 1.1//EN" "http://www.w3.org/Graphics/SVG/1.1/DTD/svg11.dtd">
<svg version="1.1" preserveAspectRatio="xMinYMin meet" xmlns="http://www.w3.org/2000/svg" xmlns:xlink="http://www.w3.org/1999/xlink" x="0px" y="0px" width="96px" height="96px" viewBox="0 0 96 96">
<path d="M0 0h96v96h-96v-96z" fill="transparent"/>
<path d="M48 18h1v1h-1v-1z" fill="rgb(90,65,16)"/>
<path d="M49 18h2v1h-2v-1z" fill="rgb(16,16,16)"/>
<path d="M47 19h1v1h-1v-1z" fill="rgb(90,65,16)"/>
<path d="M48 19h3v5h-1v-1h-1v-1h-1v-3z" fill="rgb(205,180,123)"/>
<path d="M51 19h1v5h-1v-5z" fill="rgb(16,16,16)"/>
<path d="M47 20h1v2h-1v-2z" fill="rgb(16,16,16)"/>
<path d="M43 21h1v1h-1v-1z" fill="rgb(90,65,16)"/>
<path d="M44 21h1v1h-1v-1z" fill="rgb(16,16,16)"/>
<path d="M53 21h1v1h-1v-1z" fill="rgb(90,65,16)"/>
<path d="M54 21h1v1h-1v-1z" fill="rgb(16,16,16)"/>
<path d="M42 22h1v5h-1v-5z" fill="rgb(90,65,16)"/>
<path d="M43 22h2v1h1v3h-1v-1h-1v1h-1v-4z" fill="rgb(205,180,123)"/>
<path d="M45 22h1v1h-1v-1z" fill="rgb(16,16,16)"/>
<path d="M47 22h1v1h-1v-1z" fill="rgb(90,65,16)"/>
<path d="M48 22h1v1h1v5h1v-2h2v-1h1v2h-1v3h-1v1h-1v1h-1v1h-4v-1h-1v-2h-1v-5h1v1h1v2h1v-4
	h1v-2z" fill="rgb(238,213,156)"/>
<path d="M52 22h1v2h-1v-2z" fill="rgb(90,65,16)"/>
<path d="M53 22h2v4h-1v-1h-1v1h-2v-1h1v-1h1v-2z" fill="rgb(205,180,123)"/>
<path d="M55 22h1v1h-1v-1z" fill="rgb(16,16,16)"/>
<path d="M46 23h1v3h-1v-3z" fill="rgb(16,16,16)"/>
<path d="M47 23h1v1h-1v-1z" fill="rgb(205,180,123)"/>
<path d="M55 23h1v2h-1v-2z" fill="rgb(164,139,115)"/>
<path d="M56 23h1v2h-1v-2z" fill="rgb(16,16,16)"/>
<path d="M50 24h1v1h-1v-1z" fill="rgb(164,139,115)"/>
<path d="M51 24h1v1h-1v-1z" fill="rgb(90,65,16)"/>
<path d="M40 25h2v1h-2v-1z" fill="rgb(16,16,16)"/>
<path d="M50 25h1v2h-1v-2z" fill="rgb(90,65,16)"/>
<path d="M55 25h1v2h-1v-2z" fill="rgb(16,16,16)"/>
<path d="M56 25h1v1h-1v-1z" fill="transparent"/>
<path d="M57 25h2v1h-2v-1z" fill="rgb(90,65,16)"/>
<path d="M39 26h1v4h-1v-4z" fill="rgb(90,65,16)"/>
<path d="M40 26h2v2h1v1h1v1h1v1h-2v4h-1v-2h-1v-3h-1v-4z" fill="rgb(205,180,123)"/>
<path d="M43 26h1v1h-1v-1z" fill="rgb(164,139,115)"/>
<path d="M46 26h1v1h-1v-1z" fill="rgb(90,65,16)"/>
<path d="M54 26h1v1h-1v-1z" fill="rgb(164,139,115)"/>
<path d="M56 26h1v1h-1v-1z" fill="rgb(90,65,16)"/>
<path d="M57 26h2v3h-1v2h-1v3h-1v2h-1v1h-1v1h-1v1h-1v-1h-2v-1h1v-1h3v-3h-2v-1h1v-1h1v-2
	h1v-1h1v-1h1v-1z" fill="rgb(164,139,115)"/>
<path d="M59 26h1v3h-1v-3z" fill="rgb(16,16,16)"/>
<path d="M42 27h1v1h-1v-1z" fill="rgb(164,139,115)"/>
<path d="M43 27h1v2h-1v-2z" fill="rgb(90,65,16)"/>
<path d="M46 27h1v1h-1v-1z" fill="rgb(205,180,123)"/>
<path d="M50 27h1v1h-1v-1z" fill="rgb(205,180,123)"/>
<path d="M53 27h1v4h-1v1h-1v1h-2v-1h1v-1h1v-1h1v-3z" fill="rgb(205,180,123)"/>
<path d="M54 27h2v1h-1v1h-1v-2z" fill="rgb(90,65,16)"/>
<path d="M58 29h1v2h-1v-2z" fill="rgb(16,16,16)"/>
<path d="M40 30h1v1h-1v-1z" fill="rgb(90,65,16)"/>
<path d="M40 31h1v2h-1v-2z" fill="rgb(16,16,16)"/>
<path d="M43 31h1v2h-1v-2z" fill="rgb(164,139,115)"/>
<path d="M44 31h1v1h-1v-1z" fill="rgb(90,65,16)"/>
<path d="M57 31h1v3h-1v-3z" fill="rgb(16,16,16)"/>
<path d="M44 32h1v1h-1v-1z" fill="rgb(222,205,222)"/>
<path d="M45 32h1v1h-1v-1z" fill="rgb(90,65,16)"/>
<path d="M41 33h1v2h-1v-2z" fill="rgb(16,16,16)"/>
<path d="M43 33h2v3h-1v-1h-1v-2z" fill="rgb(255,246,255)"/>
<path d="M45 33h1v2h-1v-2z" fill="rgb(16,16,16)"/>
<path d="M46 33h1v1h-1v-1z" fill="rgb(90,65,16)"/>
<path d="M47 33h3v3h1v1h-4v1h-2v-1h-1v-1h3v-3z" fill="rgb(205,180,123)"/>
<path d="M50 33h2v1h-2v-1z" fill="rgb(90,65,16)"/>
<path d="M52 33h1v1h-1v-1z" fill="rgb(222,205,222)"/>
<path d="M53 33h1v3h-2v-2h1v-1z" fill="rgb(255,246,255)"/>
<path d="M59 33h5v1h-5v-1z" fill="rgb(90,65,16)"/>
<path d="M35 34h3v1h-3v-1z" fill="rgb(164,139,115)"/>
<path d="M38 34h2v1h-2v-1z" fill="rgb(90,65,16)"/>
<path d="M46 34h1v1h-1v-1z" fill="rgb(255,246,255)"/>
<path d="M50 34h1v1h-1v-1z" fill="rgb(255,246,255)"/>
<path d="M51 34h1v1h-1v-1z" fill="rgb(16,16,16)"/>
<path d="M56 34h1v2h-1v-2z" fill="rgb(16,16,16)"/>
<path d="M57 34h2v1h-2v-1z" fill="rgb(90,65,16)"/>
<path d="M59 34h5v2h-1v2h-1v1h-3v-1h-1v-3h1v-1z" fill="rgb(205,180,123)"/>
<path d="M64 34h1v1h-1v-1z" fill="rgb(90,65,16)"/>
<path d="M34 35h1v1h-1v-1z" fill="rgb(90,65,16)"/>
<path d="M35 35h5v1h-2v1h-1v-1h-2v-1z" fill="rgb(205,180,123)"/>
<path d="M40 35h2v1h-2v-1z" fill="rgb(90,65,16)"/>
<path d="M42 35h1v2h-1v-2z" fill="rgb(16,16,16)"/>
<path d="M43 35h1v1h-1v-1z" fill="rgb(205,180,123)"/>
<path d="M45 35h1v1h-1v-1z" fill="rgb(98,74,115)"/>
<path d="M46 35h1v1h-1v-1z" fill="rgb(16,16,16)"/>
<path d="M50 35h1v1h-1v-1z" fill="rgb(16,16,16)"/>
<path d="M51 35h1v1h-1v-1z" fill="rgb(98,74,115)"/>
<path d="M57 35h1v3h-3v-1h1v-1h1v-1z" fill="rgb(164,139,115)"/>
<path d="M64 35h1v2h-1v-2z" fill="rgb(16,16,16)"/>
<path d="M33 36h1v4h-1v-4z" fill="rgb(16,16,16)"/>
<path d="M34 36h1v4h-1v-4z" fill="rgb(164,139,115)"/>
<path d="M35 36h2v1h1v1h1v1h1v3h-1v4h-2v-2h1v-1h-1v-1h-1v-2h-1v-4z" fill="rgb(16,16,16)"/>
<path d="M38 36h2v1h-2v-1z" fill="rgb(238,213,156)"/>
<path d="M40 36h2v1h1v1h-1v1h-1v1h-1v-2h-2v-1h2v-1z" fill="rgb(205,180,123)"/>
<path d="M43 36h1v1h-1v-1z" fill="rgb(164,139,115)"/>
<path d="M55 36h1v1h-1v-1z" fill="rgb(16,16,16)"/>
<path d="M63 36h1v1h-1v-1z" fill="rgb(164,139,115)"/>
<path d="M43 37h1v1h-1v-1z" fill="rgb(16,16,16)"/>
<path d="M44 37h1v1h-1v-1z" fill="rgb(164,139,115)"/>
<path d="M47 37h3v1h-3v-1z" fill="rgb(90,65,16)"/>
<path d="M54 37h1v1h-1v-1z" fill="rgb(16,16,16)"/>
<path d="M63 37h1v2h-1v-2z" fill="rgb(16,16,16)"/>
<path d="M39 38h1v1h-1v-1z" fill="rgb(164,139,115)"/>
<path d="M42 38h3v1h-3v-1z" fill="rgb(139,32,0)"/>
<path d="M45 38h2v1h-2v-1z" fill="rgb(16,16,16)"/>
<path d="M47 38h2v1h-2v-1z" fill="rgb(205,180,123)"/>
<path d="M49 38h1v1h1v1h-3v-1h1v-1z" fill="rgb(164,139,115)"/>
<path d="M50 38h2v1h-2v-1z" fill="rgb(90,65,16)"/>
<path d="M53 38h1v1h-1v-1z" fill="rgb(16,16,16)"/>
<path d="M54 38h5v1h-5v-1z" fill="rgb(139,32,0)"/>
<path d="M62 38h1v1h-1v-1z" fill="rgb(164,139,115)"/>
<path d="M41 39h1v1h-1v-1z" fill="rgb(139,32,0)"/>
<path d="M42 39h2v2h-1v1h-2v-2h1v-1z" fill="rgb(255,148,90)"/>
<path d="M44 39h2v2h-1v1h-1v1h-1v1h-3v-2h3v-1h1v-2z" fill="rgb(230,98,74)"/>
<path d="M46 39h1v1h1v4h-1v2h-1v1h-1v1h-2v-1h-1v-2h-1v2h-1v-1h-1v-1h1v-1h3v-1h1v-1h1v-1
	h1v-2z" fill="rgb(189,49,74)"/>
<path d="M47 39h1v1h-1v-1z" fill="rgb(16,16,16)"/>
<path d="M51 39h2v1h-2v-1z" fill="rgb(16,16,16)"/>
<path d="M53 39h1v1h-1v-1z" fill="rgb(139,32,0)"/>
<path d="M54 39h1v1h-1v-1z" fill="rgb(230,98,74)"/>
<path d="M55 39h2v1h1v3h-3v-1h-1v-2h1v-1z" fill="rgb(255,148,90)"/>
<path d="M57 39h2v1h1v1h1v2h-1v1h-4v-1h2v-3h-1v-1z" fill="rgb(230,98,74)"/>
<path d="M59 39h1v1h-1v-1z" fill="rgb(139,32,0)"/>
<path d="M60 39h2v1h-2v-1z" fill="rgb(164,139,115)"/>
<path d="M62 39h1v1h-1v-1z" fill="rgb(16,16,16)"/>
<path d="M34 40h1v2h-1v-2z" fill="rgb(16,16,16)"/>
<path d="M35 40h1v2h-1v-2z" fill="rgb(164,139,115)"/>
<path d="M40 40h1v2h-1v-2z" fill="rgb(139,32,0)"/>
<path d="M48 40h3v1h-2v3h-1v-4z" fill="rgb(16,16,16)"/>
<path d="M51 40h1v2h-1v1h-2v-2h2v-1z" fill="rgb(164,156,164)"/>
<path d="M52 40h1v4h-1v-1h-1v-1h1v-2z" fill="rgb(139,32,0)"/>
<path d="M53 40h1v2h-1v-2z" fill="rgb(230,98,74)"/>
<path d="M60 40h1v1h-1v-1z" fill="rgb(139,32,0)"/>
<path d="M61 40h1v1h-1v-1z" fill="rgb(16,16,16)"/>
<path d="M61 41h1v1h-1v-1z" fill="rgb(139,32,0)"/>
<path d="M35 42h1v1h-1v-1z" fill="rgb(16,16,16)"/>
<path d="M36 42h1v1h-1v-1z" fill="rgb(164,139,115)"/>
<path d="M39 42h1v3h-1v-3z" fill="rgb(139,32,0)"/>
<path d="M53 42h1v1h2v1h4v-1h1v-1h1v3h-1v1h-1v1h-3v-1h-2v-1h-1v-1h-1v-2z" fill="rgb(189,49,74)"/>
<path d="M54 42h1v1h-1v-1z" fill="rgb(230,98,74)"/>
<path d="M62 42h1v3h-1v-3z" fill="rgb(16,16,16)"/>
<path d="M36 43h1v1h-1v-1z" fill="rgb(16,16,16)"/>
<path d="M37 43h1v1h-1v-1z" fill="rgb(164,139,115)"/>
<path d="M49 43h1v2h1v1h-1v1h-3v-1h1v-2h1v-1z" fill="rgb(197,180,197)"/>
<path d="M50 43h1v1h-1v-1z" fill="rgb(139,32,0)"/>
<path d="M51 43h1v1h-1v-1z" fill="rgb(230,98,74)"/>
<path d="M63 43h2v1h-2v-1z" fill="rgb(90,65,16)"/>
<path d="M47 44h1v2h-1v-2z" fill="rgb(16,16,16)"/>
<path d="M50 44h1v1h-1v-1z" fill="rgb(16,16,16)"/>
<path d="M51 44h1v1h-1v-1z" fill="rgb(189,49,74)"/>
<path d="M52 44h1v1h-1v-1z" fill="rgb(230,98,74)"/>
<path d="M53 44h1v1h-1v-1z" fill="rgb(139,32,0)"/>
<path d="M63 44h2v1h-2v-1z" fill="rgb(205,180,123)"/>
<path d="M65 44h1v1h-1v-1z" fill="rgb(90,65,16)"/>
<path d="M41 45h1v2h-1v-2z" fill="rgb(139,32,0)"/>
<path d="M51 45h1v1h-1v-1z" fill="rgb(16,16,16)"/>
<path d="M52 45h2v1h-2v-1z" fill="rgb(189,49,74)"/>
<path d="M54 45h1v1h2v1h-1v1h-1v-1h-3v-1h2v-1z" fill="rgb(16,16,16)"/>
<path d="M61 45h1v1h1v1h-3v-1h1v-1z" fill="rgb(16,16,16)"/>
<path d="M62 45h3v2h-2v-1h-1v-1z" fill="rgb(164,139,115)"/>
<path d="M65 45h1v2h-1v-2z" fill="rgb(16,16,16)"/>
<path d="M36 46h1v1h1v1h-1v3h-1v-5z" fill="rgb(16,16,16)"/>
<path d="M37 46h1v1h-1v-1z" fill="rgb(164,139,115)"/>
<path d="M38 46h1v2h-1v-2z" fill="rgb(139,32,0)"/>
<path d="M39 46h1v1h-1v-1z" fill="rgb(16,16,16)"/>
<path d="M46 46h1v1h-1v-1z" fill="rgb(16,16,16)"/>
<path d="M50 46h2v1h-2v-1z" fill="rgb(164,156,164)"/>
<path d="M39 47h1v1h-1v-1z" fill="rgb(189,49,74)"/>
<path d="M40 47h2v1h3v-1h1v1h2v-1h4v1h1v1h1v1h-2v1h-5v-1h-4v-1h-2v-1h-1v-1z" fill="rgb(16,16,16)"/>
<path d="M42 47h1v1h-1v-1z" fill="rgb(139,32,0)"/>
<path d="M46 47h2v1h-2v-1z" fill="rgb(164,156,164)"/>
<path d="M52 47h3v1h-1v1h-1v-1h-1v-1z" fill="rgb(164,156,164)"/>
<path d="M57 47h3v1h-3v-1z" fill="rgb(16,16,16)"/>
<path d="M63 47h2v1h-2v-1z" fill="rgb(16,16,16)"/>
<path d="M37 48h2v1h-1v1h-1v-2z" fill="rgb(205,180,123)"/>
<path d="M39 48h2v1h-2v-1z" fill="rgb(139,32,0)"/>
<path d="M54 48h1v1h-1v-1z" fill="rgb(16,16,16)"/>
<path d="M38 49h2v1h-1v1h-2v-1h1v-1z" fill="rgb(164,139,115)"/>
<path d="M40 49h1v1h-1v-1z" fill="rgb(16,16,16)"/>
<path d="M41 49h1v1h-1v-1z" fill="transparent"/>
<path d="M42 49h1v1h-1v-1z" fill="rgb(98,74,115)"/>
<path d="M39 50h1v1h-1v-1z" fill="rgb(16,16,16)"/>
<path d="M40 50h1v1h-1v-1z" fill="transparent"/>
<path d="M41 50h1v1h-1v-1z" fill="rgb(98,74,115)"/>
<path d="M42 50h4v1h8v1h1v1h1v1h1v1h-2v-1h-1v-1h-1v-1h-1v1h1v2h-1v-1h-1v-1h-1v1h1v2h1v2
	h-4v-6h-1v4h-1v-2h-1v3h-1v-1h-2v-1h1v-2h-1v1h-1v2h-2v-2h1v-2h1v-1h1v-1z" fill="rgb(197,180,197)"/>
<path d="M46 50h1v1h-1v-1z" fill="rgb(164,156,164)"/>
<path d="M52 50h2v1h-2v-1z" fill="rgb(164,156,164)"/>
<path d="M54 50h1v1h-1v-1z" fill="rgb(98,74,115)"/>
<path d="M37 51h2v1h-2v-1z" fill="rgb(16,16,16)"/>
<path d="M39 51h1v1h-1v-1z" fill="transparent"/>
<path d="M40 51h1v1h-1v-1z" fill="rgb(98,74,115)"/>
<path d="M54 51h1v1h-1v-1z" fill="rgb(164,156,164)"/>
<path d="M55 51h1v1h-1v-1z" fill="rgb(98,74,115)"/>
<path d="M39 52h1v2h-1v-2z" fill="rgb(98,74,115)"/>
<path d="M43 52h1v1h-1v-1z" fill="rgb(164,156,164)"/>
<path d="M47 52h1v1h-1v-1z" fill="rgb(164,156,164)"/>
<path d="M52 52h1v1h-1v-1z" fill="rgb(164,156,164)"/>
<path d="M55 52h1v1h-1v-1z" fill="rgb(16,16,16)"/>
<path d="M56 52h1v1h-1v-1z" fill="rgb(98,74,115)"/>
<path d="M42 53h1v2h-1v-2z" fill="rgb(98,74,115)"/>
<path d="M47 53h1v3h-1v-3z" fill="rgb(98,74,115)"/>
<path d="M50 53h1v1h-1v-1z" fill="rgb(164,156,164)"/>
<path d="M53 53h1v1h-1v-1z" fill="rgb(98,74,115)"/>
<path d="M56 53h2v2h-1v-1h-1v-1z" fill="rgb(16,16,16)"/>
<path d="M38 54h1v2h-1v-2z" fill="rgb(98,74,115)"/>
<path d="M41 54h1v1h-1v-1z" fill="rgb(164,156,164)"/>
<path d="M45 54h1v1h-1v-1z" fill="rgb(164,156,164)"/>
<path d="M51 54h1v2h-1v-2z" fill="rgb(98,74,115)"/>
<path d="M53 54h1v1h-1v-1z" fill="rgb(16,16,16)"/>
<path d="M54 54h1v1h-1v-1z" fill="rgb(164,156,164)"/>
<path d="M41 55h1v1h2v1h-3v-2z" fill="rgb(16,16,16)"/>
<path d="M45 55h1v1h-1v-1z" fill="rgb(98,74,115)"/>
<path d="M52 55h2v2h-1v-1h-1v-1z" fill="rgb(164,156,164)"/>
<path d="M54 55h3v1h-2v1h-1v-2z" fill="rgb(16,16,16)"/>
<path d="M39 56h2v1h-2v-1z" fill="rgb(98,74,115)"/>
<path d="M45 56h1v1h1v-1h1v2h-2v1h-1v-1h-1v-1h1v-1z" fill="rgb(16,16,16)"/>
<path d="M46 56h1v1h-1v-1z" fill="rgb(164,156,164)"/>
<path d="M52 56h1v1h1v1h-1v1h-5v-1h4v-2z" fill="rgb(16,16,16)"/>
<path d="M55 56h1v2h-1v1h1v1h1v1h1v2h-1v3h-1v1h-2v-3h1v-2h1v-1h-1v-1h-1v-1h-1v-1h1v-1h1
	v-1z" fill="rgb(164,139,115)"/>
<path d="M56 56h1v1h-1v-1z" fill="rgb(90,65,16)"/>
<path d="M40 57h1v4h-1v-4z" fill="rgb(16,16,16)"/>
<path d="M41 57h3v1h1v1h-1v1h-1v-1h-2v-2z" fill="rgb(164,139,115)"/>
<path d="M56 57h1v1h1v1h1v1h-1v1h-1v-1h-1v-1h-1v-1h1v-1z" fill="rgb(205,180,123)"/>
<path d="M57 57h1v1h-1v-1z" fill="rgb(90,65,16)"/>
<path d="M58 58h1v1h-1v-1z" fill="rgb(90,65,16)"/>
<path d="M41 59h2v1h1v2h-1v1h-2v-4z" fill="rgb(205,180,123)"/>
<path d="M44 59h1v3h-1v-3z" fill="rgb(16,16,16)"/>
<path d="M53 59h1v1h-1v-1z" fill="rgb(16,16,16)"/>
<path d="M59 59h1v2h-1v-2z" fill="rgb(16,16,16)"/>
<path d="M54 60h1v1h-1v-1z" fill="rgb(16,16,16)"/>
<path d="M58 60h1v1h-1v-1z" fill="rgb(164,139,115)"/>
<path d="M39 61h1v2h-1v-2z" fill="rgb(90,65,16)"/>
<path d="M40 61h1v2h2v1h-1v1h-1v3h-1v2h-1v-1h-2v-2h1v-3h1v-1h1v-2z" fill="rgb(164,139,115)"/>
<path d="M55 61h1v1h-1v-1z" fill="rgb(16,16,16)"/>
<path d="M58 61h1v2h-1v-2z" fill="rgb(16,16,16)"/>
<path d="M43 62h1v2h-1v-2z" fill="rgb(16,16,16)"/>
<path d="M54 62h1v2h-1v-2z" fill="rgb(16,16,16)"/>
<path d="M38 63h1v1h-1v-1z" fill="rgb(90,65,16)"/>
<path d="M57 63h1v3h-1v-3z" fill="rgb(16,16,16)"/>
<path d="M37 64h1v3h-1v-3z" fill="rgb(90,65,16)"/>
<path d="M42 64h1v1h-1v-1z" fill="rgb(16,16,16)"/>
<path d="M53 64h1v3h-1v-3z" fill="rgb(16,16,16)"/>
<path d="M41 65h1v3h-1v-3z" fill="rgb(16,16,16)"/>
<path d="M56 66h2v1h-2v-1z" fill="rgb(98,74,115)"/>
<path d="M36 67h1v3h-1v-3z" fill="rgb(90,65,16)"/>
<path d="M52 67h1v1h-1v-1z" fill="rgb(98,74,115)"/>
<path d="M53 67h1v1h2v-1h1v1h1v1h-1v1h-3v-1h-1v-2z" fill="rgb(197,180,197)"/>
<path d="M54 67h2v1h-2v-1z" fill="rgb(98,74,115)"/>
<path d="M57 67h1v1h-1v-1z" fill="rgb(164,156,164)"/>
<path d="M58 67h1v1h-1v-1z" fill="rgb(98,74,115)"/>
<path d="M59 67h1v1h-1v-1z" fill="rgb(16,16,16)"/>
<path d="M40 68h1v7h-1v-7z" fill="rgb(16,16,16)"/>
<path d="M52 68h1v2h-1v-2z" fill="rgb(16,16,16)"/>
<path d="M58 68h2v3h-4v-1h3v-1h-1v-1z" fill="rgb(164,156,164)"/>
<path d="M60 68h1v3h-1v-3z" fill="rgb(16,16,16)"/>
<path d="M37 69h2v1h-2v-1z" fill="rgb(98,74,115)"/>
<path d="M53 69h1v1h-1v-1z" fill="rgb(164,156,164)"/>
<path d="M57 69h1v1h-1v-1z" fill="rgb(222,205,222)"/>
<path d="M58 69h1v1h-1v-1z" fill="rgb(197,180,197)"/>
<path d="M35 70h1v1h-1v-1z" fill="rgb(98,74,115)"/>
<path d="M36 70h3v4h-1v1h-3v-1h2v-2h-2v-1h1v-1z" fill="rgb(197,180,197)"/>
<path d="M39 70h1v1h-1v-1z" fill="rgb(98,74,115)"/>
<path d="M53 70h3v1h-3v-1z" fill="rgb(16,16,16)"/>
<path d="M34 71h1v1h-1v-1z" fill="rgb(98,74,115)"/>
<path d="M39 71h1v4h-1v1h-4v-1h3v-1h1v-3z" fill="rgb(164,156,164)"/>
<path d="M56 71h4v1h-4v-1z" fill="rgb(16,16,16)"/>
<path d="M33 72h1v2h-1v-2z" fill="rgb(98,74,115)"/>
<path d="M34 72h1v2h-1v-2z" fill="rgb(197,180,197)"/>
<path d="M35 72h2v2h-2v-2z" fill="rgb(222,205,222)"/>
<path d="M33 74h1v1h-1v-1z" fill="rgb(16,16,16)"/>
<path d="M34 74h1v1h-1v-1z" fill="rgb(164,156,164)"/>
<path d="M34 75h1v1h-1v-1z" fill="rgb(16,16,16)"/>
<path d="M39 75h1v1h-1v-1z" fill="rgb(16,16,16)"/>
<path d="M35 76h4v1h-4v-1z" fill="rgb(16,16,16)"/>
</svg>
