<?xml version="1.0" encoding="utf-8"?>
<!-- generated at drububu.com  -->
<!DOCTYPE svg PUBLIC "-//W3C//DTD SVG 1.1//EN" "http://www.w3.org/Graphics/SVG/1.1/DTD/svg11.dtd">
<svg version="1.1" preserveAspectRatio="xMinYMin meet" xmlns="http://www.w3.org/2000/svg" xmlns:xlink="http://www.w3.org/1999/xlink" x="0px" y="0px" width="96px" height="96px" viewBox="0 0 96 96">
<path d="M0 0h96v96h-96v-96z" fill="transparent"/>
<path d="M39 24h5v1h-5v-1z" fill="rgb(205,82,49)"/>
<path d="M44 24h3v1h-3v-1z" fill="rgb(16,16,16)"/>
<path d="M37 25h2v1h-2v-1z" fill="rgb(205,82,49)"/>
<path d="M39 25h3v2h-1v2h-2v1h-3v-1h-1v-2h2v-1h2v-1z" fill="rgb(255,205,180)"/>
<path d="M42 25h4v1h2v1h2v2h1v2h1v2h-1v1h-2v1h-6v-2h-1v1h-2v1h-2v1h-5v-1h-1v-1h-1v-1h1
	v-1h1v2h1v1h1v-1h1v1h1v-2h-1v-1h-1v-2h-1v-2h1v1h1v1h3v-1h2v-2h1v-2z" fill="rgb(255,164,156)"/>
<path d="M46 25h1v1h-1v-1z" fill="rgb(238,115,106)"/>
<path d="M47 25h2v1h-2v-1z" fill="rgb(16,16,16)"/>
<path d="M35 26h2v1h-2v-1z" fill="rgb(205,82,49)"/>
<path d="M48 26h1v1h-1v-1z" fill="rgb(238,115,106)"/>
<path d="M49 26h1v1h-1v-1z" fill="rgb(16,16,16)"/>
<path d="M34 27h1v1h-1v-1z" fill="rgb(123,24,16)"/>
<path d="M50 27h1v1h-1v-1z" fill="rgb(16,16,16)"/>
<path d="M33 28h1v1h-1v-1z" fill="rgb(123,24,16)"/>
<path d="M50 28h1v1h-1v-1z" fill="rgb(238,115,106)"/>
<path d="M51 28h1v2h-1v-2z" fill="rgb(16,16,16)"/>
<path d="M33 29h1v1h-1v-1z" fill="rgb(16,16,16)"/>
<path d="M45 29h2v1h-2v-1z" fill="rgb(123,24,16)"/>
<path d="M32 30h1v2h-1v-2z" fill="rgb(16,16,16)"/>
<path d="M33 30h1v1h-1v-1z" fill="rgb(123,24,16)"/>
<path d="M34 30h1v2h-1v-2z" fill="rgb(238,115,106)"/>
<path d="M44 30h1v1h-1v-1z" fill="rgb(123,24,16)"/>
<path d="M45 30h2v2h-1v-1h-1v-1z" fill="rgb(16,16,16)"/>
<path d="M47 30h1v2h-1v-2z" fill="rgb(123,24,16)"/>
<path d="M51 30h1v1h-1v-1z" fill="rgb(238,115,106)"/>
<path d="M52 30h1v3h-1v-3z" fill="rgb(16,16,16)"/>
<path d="M61 30h7v1h-7v-1z" fill="rgb(205,82,49)"/>
<path d="M33 31h1v1h-1v-1z" fill="rgb(255,255,255)"/>
<path d="M44 31h1v1h-1v-1z" fill="rgb(16,16,16)"/>
<path d="M45 31h1v1h-1v-1z" fill="rgb(255,255,255)"/>
<path d="M59 31h2v1h-2v-1z" fill="rgb(205,82,49)"/>
<path d="M61 31h1v1h-1v-1z" fill="rgb(255,164,156)"/>
<path d="M62 31h1v1h1v1h1v3h-1v1h-1v1h-1v1h-2v1h-4v-1h-1v-4h1v-1h2v-1h2v-1h2v-1z" fill="rgb(255,205,180)"/>
<path d="M63 31h1v1h-1v-1z" fill="rgb(255,164,156)"/>
<path d="M64 31h1v1h-1v-1z" fill="rgb(255,205,180)"/>
<path d="M65 31h1v1h-1v-1z" fill="rgb(255,164,156)"/>
<path d="M66 31h1v1h-1v-1z" fill="rgb(255,205,180)"/>
<path d="M67 31h1v1h-1v-1z" fill="rgb(238,115,106)"/>
<path d="M68 31h2v1h-2v-1z" fill="rgb(205,82,49)"/>
<path d="M31 32h1v1h-1v-1z" fill="rgb(16,16,16)"/>
<path d="M33 32h1v1h-1v-1z" fill="rgb(123,24,16)"/>
<path d="M34 32h2v1h1v1h-4v-1h1v-1z" fill="rgb(255,205,180)"/>
<path d="M45 32h1v1h-1v-1z" fill="rgb(16,16,16)"/>
<path d="M46 32h1v1h-1v-1z" fill="rgb(123,24,16)"/>
<path d="M57 32h2v1h-2v-1z" fill="rgb(205,82,49)"/>
<path d="M59 32h1v1h-1v-1z" fill="rgb(255,164,156)"/>
<path d="M64 32h1v1h-1v-1z" fill="rgb(255,164,156)"/>
<path d="M65 32h1v1h-1v-1z" fill="rgb(255,205,180)"/>
<path d="M66 32h1v1h-1v-1z" fill="rgb(255,164,156)"/>
<path d="M67 32h1v1h-1v-1z" fill="rgb(255,205,180)"/>
<path d="M68 32h1v1h2v1h1v2h1v1h1v2h-1v1h-3v-1h-2v-1h-1v-1h-2v1h1v1h-1v1h2v1h1v4h-1v-1
	h-1v-2h-1v-1h-2v-1h-3v-1h2v-1h1v-1h1v-1h1v-3h1v1h1v-1h1v-1z" fill="rgb(255,164,156)"/>
<path d="M69 32h1v1h-1v-1z" fill="rgb(238,115,106)"/>
<path d="M70 32h1v1h-1v-1z" fill="rgb(205,82,49)"/>
<path d="M30 33h1v4h-1v-4z" fill="rgb(16,16,16)"/>
<path d="M42 33h1v1h-1v-1z" fill="rgb(255,164,148)"/>
<path d="M51 33h2v3h1v3h1v2h-2v1h-2v1h2v3h1v2h1v1h2v1h3v2h-1v1h-1v1h-2v-1h-2v-1h-2v-1h-2
	v-1h-1v1h-1v-3h1v-4h-1v1h-1v1h-1v1h-2v1h-3v-2h1v-2h3v-1h1v-1h1v-5h-1v-1h-2v-1
	h5v-1h2v-1z" fill="rgb(238,115,106)"/>
<path d="M53 33h1v3h-1v-3z" fill="rgb(16,16,16)"/>
<path d="M56 33h1v1h-1v-1z" fill="rgb(205,82,49)"/>
<path d="M57 33h1v1h-1v-1z" fill="rgb(255,164,156)"/>
<path d="M66 33h1v1h-1v-1z" fill="rgb(255,205,180)"/>
<path d="M71 33h1v1h-1v-1z" fill="rgb(123,24,16)"/>
<path d="M31 34h1v1h-1v-1z" fill="rgb(238,115,106)"/>
<path d="M34 34h1v1h-1v-1z" fill="rgb(205,82,49)"/>
<path d="M36 34h1v1h-1v-1z" fill="rgb(205,82,49)"/>
<path d="M40 34h3v1h-3v-1z" fill="rgb(238,115,106)"/>
<path d="M55 34h1v1h-1v-1z" fill="rgb(205,82,49)"/>
<path d="M72 34h1v1h-1v-1z" fill="rgb(123,24,16)"/>
<path d="M31 35h1v1h-1v-1z" fill="rgb(123,24,16)"/>
<path d="M32 35h1v1h-1v-1z" fill="rgb(238,115,106)"/>
<path d="M38 35h1v1h-1v-1z" fill="rgb(238,115,106)"/>
<path d="M39 35h5v1h-5v-1z" fill="rgb(16,16,16)"/>
<path d="M54 35h1v1h-1v-1z" fill="rgb(205,82,49)"/>
<path d="M72 35h1v1h-1v-1z" fill="rgb(238,115,106)"/>
<path d="M73 35h1v2h-1v-2z" fill="rgb(123,24,16)"/>
<path d="M31 36h1v1h-1v-1z" fill="rgb(238,115,106)"/>
<path d="M32 36h1v1h-1v-1z" fill="rgb(16,16,16)"/>
<path d="M33 36h4v1h-4v-1z" fill="rgb(238,115,106)"/>
<path d="M37 36h2v1h-2v-1z" fill="rgb(16,16,16)"/>
<path d="M39 36h5v1h2v2h-1v-1h-4v1h-2v1h-1v-1h-3v-1h2v-1h2v-1z" fill="rgb(123,24,16)"/>
<path d="M44 36h2v1h-2v-1z" fill="rgb(16,16,16)"/>
<path d="M54 36h1v3h-1v-3z" fill="rgb(16,16,16)"/>
<path d="M31 37h1v2h-1v-2z" fill="rgb(16,16,16)"/>
<path d="M32 37h1v1h1v1h1v1h-2v-1h-1v-2z" fill="rgb(238,115,106)"/>
<path d="M33 37h4v1h-2v1h-1v-1h-1v-1z" fill="rgb(16,16,16)"/>
<path d="M46 37h1v5h-1v-2h-1v-1h1v-2z" fill="rgb(16,16,16)"/>
<path d="M65 37h1v1h-1v-1z" fill="rgb(238,115,106)"/>
<path d="M66 37h1v1h-1v-1z" fill="rgb(255,164,148)"/>
<path d="M74 37h1v3h-1v-3z" fill="rgb(123,24,16)"/>
<path d="M41 38h4v1h-4v-1z" fill="rgb(16,16,16)"/>
<path d="M66 38h2v1h-2v-1z" fill="rgb(238,115,106)"/>
<path d="M32 39h1v1h-1v-1z" fill="rgb(16,16,16)"/>
<path d="M35 39h3v1h-3v-1z" fill="rgb(16,16,16)"/>
<path d="M39 39h2v1h-2v-1z" fill="rgb(16,16,16)"/>
<path d="M41 39h4v1h1v2h-1v1h-2v-1h-1v2h-1v2h-1v3h-1v3h-1v3h-1v6h-1v3h-1v-6h1v-4h1v-4h1
	v-2h1v-4h-1v-1h-1v-1h1v-1h1v-1h2v-1z" fill="rgb(230,74,24)"/>
<path d="M55 39h1v2h-1v-2z" fill="rgb(16,16,16)"/>
<path d="M65 39h2v1h-2v-1z" fill="rgb(255,164,148)"/>
<path d="M67 39h1v1h-1v-1z" fill="rgb(123,24,16)"/>
<path d="M68 39h2v1h3v-1h1v1h1v8h-1v3h-1v5h1v4h1v2h1v2h-3v-1h-2v-1h-1v-1h-1v-2h1v-4h1v-9
	h-1v-4h-1v-2h-1v-1z" fill="rgb(238,115,106)"/>
<path d="M25 40h5v1h-5v-1z" fill="rgb(123,24,16)"/>
<path d="M33 40h1v1h-1v-1z" fill="rgb(123,24,16)"/>
<path d="M34 40h1v1h-1v-1z" fill="rgb(16,16,16)"/>
<path d="M35 40h3v1h-1v1h-3v-1h1v-1z" fill="rgb(230,74,24)"/>
<path d="M38 40h1v1h-1v-1z" fill="rgb(16,16,16)"/>
<path d="M56 40h7v1h-7v-1z" fill="rgb(123,24,16)"/>
<path d="M67 40h1v1h-1v-1z" fill="rgb(238,115,106)"/>
<path d="M68 40h1v2h-1v-2z" fill="rgb(123,24,16)"/>
<path d="M75 40h1v8h-1v-8z" fill="rgb(123,24,16)"/>
<path d="M23 41h2v1h-2v-1z" fill="rgb(123,24,16)"/>
<path d="M25 41h5v2h-1v1h-2v1h-1v-1h-2v1h-1v-3h2v-1z" fill="rgb(255,164,156)"/>
<path d="M30 41h3v1h-3v-1z" fill="rgb(123,24,16)"/>
<path d="M33 41h1v1h-1v-1z" fill="rgb(16,16,16)"/>
<path d="M37 41h1v1h-1v-1z" fill="rgb(156,32,16)"/>
<path d="M43 41h1v1h-1v-1z" fill="rgb(156,32,16)"/>
<path d="M53 41h3v1h-3v-1z" fill="rgb(123,24,16)"/>
<path d="M56 41h5v1h1v2h-2v1h-4v-1h-1v-1h-1v-1h2v-1z" fill="rgb(255,205,180)"/>
<path d="M61 41h1v1h-1v-1z" fill="rgb(255,164,156)"/>
<path d="M62 41h1v1h-1v-1z" fill="rgb(238,115,106)"/>
<path d="M63 41h1v1h-1v-1z" fill="rgb(123,24,16)"/>
<path d="M64 41h1v1h-1v-1z" fill="rgb(16,16,16)"/>
<path d="M22 42h1v1h-1v-1z" fill="rgb(123,24,16)"/>
<path d="M30 42h2v1h-1v1h-1v1h-1v1h-1v1h-1v-3h2v-1h1v-1z" fill="rgb(238,115,106)"/>
<path d="M32 42h1v1h-1v-1z" fill="rgb(16,16,16)"/>
<path d="M33 42h3v1h-1v1h-1v2h-1v2h-1v2h-1v2h-1v2h-1v3h-1v3h1v-3h1v-3h1v-2h1v-2h1v-2h1
	v-2h1v-2h1v-1h2v1h1v4h-1v2h-1v4h-1v4h-1v4h-1v2h-1v1h-3v1h-5v-1h-1v-1h-1v-2h-1v-3
	h1v-2h1v-2h1v-2h1v-2h1v-2h1v-1h1v-2h1v-1h1v-1h1v-1h1v-1z" fill="rgb(255,131,82)"/>
<path d="M36 42h1v1h-1v-1z" fill="rgb(156,32,16)"/>
<path d="M42 42h1v1h2v1h-3v-2z" fill="rgb(16,16,16)"/>
<path d="M45 42h1v1h-1v-1z" fill="rgb(16,16,16)"/>
<path d="M51 42h2v1h-2v-1z" fill="rgb(123,24,16)"/>
<path d="M53 42h1v1h-1v-1z" fill="rgb(238,115,106)"/>
<path d="M62 42h2v1h1v2h1v2h-2v-1h-2v1h-1v2h-1v-1h-1v1h-2v-1h-1v-2h-1v1h-1v-1h-1v-3h2v1
	h1v1h4v-1h2v-2z" fill="rgb(255,164,156)"/>
<path d="M64 42h1v1h-1v-1z" fill="rgb(238,115,106)"/>
<path d="M65 42h1v2h-1v-2z" fill="rgb(16,16,16)"/>
<path d="M68 42h1v4h1v9h-1v3h-1v2h-1v2h-1v1h-1v-1h-1v-3h-1v-4h1v-1h1v-1h1v-2h1v-2h1v-7z" fill="rgb(238,115,106)"/>
<path d="M69 42h1v4h-1v-4z" fill="rgb(123,24,16)"/>
<path d="M21 43h1v3h-1v-3z" fill="rgb(123,24,16)"/>
<path d="M22 43h1v1h-1v-1z" fill="rgb(205,82,49)"/>
<path d="M31 43h1v1h-1v-1z" fill="rgb(16,16,16)"/>
<path d="M35 43h1v1h-1v-1z" fill="rgb(230,74,24)"/>
<path d="M22 44h1v3h-1v-3z" fill="rgb(238,115,106)"/>
<path d="M24 44h2v1h-2v-1z" fill="rgb(156,32,16)"/>
<path d="M30 44h1v1h-1v-1z" fill="rgb(16,16,16)"/>
<path d="M34 44h1v2h-1v-2z" fill="rgb(230,74,24)"/>
<path d="M41 44h1v2h-1v-2z" fill="rgb(16,16,16)"/>
<path d="M48 44h1v4h-1v2h-2v1h-2v1h-1v2h-1v3h-4v-2h1v-3h1v-3h1v-1h3v-1h2v-1h1v-1h1v-1z" fill="rgb(230,213,115)"/>
<path d="M65 44h1v1h-1v-1z" fill="rgb(238,115,106)"/>
<path d="M66 44h1v4h-1v-4z" fill="rgb(16,16,16)"/>
<path d="M23 45h1v1h-1v-1z" fill="rgb(123,24,16)"/>
<path d="M24 45h2v2h-2v-2z" fill="rgb(255,255,255)"/>
<path d="M26 45h1v1h-1v-1z" fill="rgb(156,32,16)"/>
<path d="M29 45h1v1h-1v-1z" fill="rgb(156,32,16)"/>
<path d="M67 45h1v1h-1v-1z" fill="rgb(255,164,148)"/>
<path d="M21 46h1v1h-1v-1z" fill="rgb(16,16,16)"/>
<path d="M23 46h1v1h-1v-1z" fill="rgb(16,16,16)"/>
<path d="M26 46h1v1h-1v-1z" fill="rgb(16,16,16)"/>
<path d="M28 46h1v1h-1v-1z" fill="rgb(156,32,16)"/>
<path d="M33 46h1v2h-1v-2z" fill="rgb(230,74,24)"/>
<path d="M40 46h1v3h-1v-3z" fill="rgb(16,16,16)"/>
<path d="M55 46h1v2h-1v-2z" fill="rgb(255,164,148)"/>
<path d="M62 46h2v1h-2v-1z" fill="rgb(156,32,16)"/>
<path d="M67 46h1v3h-1v2h-1v2h-1v1h-1v1h-1v-1h-1v-3h-1v-1h3v-1h2v-1h1v-2z" fill="rgb(255,164,156)"/>
<path d="M70 46h1v9h-1v-9z" fill="rgb(16,16,16)"/>
<path d="M22 47h1v1h-1v-1z" fill="rgb(16,16,16)"/>
<path d="M23 47h1v1h-1v-1z" fill="rgb(238,115,106)"/>
<path d="M24 47h2v1h-2v-1z" fill="rgb(156,32,16)"/>
<path d="M26 47h1v1h-1v-1z" fill="rgb(238,115,106)"/>
<path d="M27 47h1v2h-1v-2z" fill="rgb(156,32,16)"/>
<path d="M28 47h1v1h-1v-1z" fill="rgb(230,74,24)"/>
<path d="M54 47h1v1h-1v-1z" fill="rgb(16,16,16)"/>
<path d="M61 47h1v1h-1v-1z" fill="rgb(156,32,16)"/>
<path d="M62 47h2v2h-2v-2z" fill="rgb(255,255,255)"/>
<path d="M64 47h1v1h1v1h-2v-2z" fill="rgb(16,16,16)"/>
<path d="M65 47h1v1h-1v-1z" fill="rgb(205,82,49)"/>
<path d="M23 48h4v1h-4v-1z" fill="rgb(16,16,16)"/>
<path d="M32 48h1v2h-1v-2z" fill="rgb(230,74,24)"/>
<path d="M55 48h2v1h-2v-1z" fill="rgb(16,16,16)"/>
<path d="M59 48h1v1h-1v-1z" fill="rgb(255,164,148)"/>
<path d="M61 48h1v1h-1v-1z" fill="rgb(16,16,16)"/>
<path d="M74 48h1v3h-1v-3z" fill="rgb(123,24,16)"/>
<path d="M26 49h1v1h-1v-1z" fill="rgb(156,32,16)"/>
<path d="M39 49h1v3h-1v-3z" fill="rgb(16,16,16)"/>
<path d="M57 49h4v2h-1v-1h-3v-1z" fill="rgb(16,16,16)"/>
<path d="M61 49h1v1h-1v-1z" fill="rgb(238,115,106)"/>
<path d="M62 49h2v1h-2v-1z" fill="rgb(16,16,16)"/>
<path d="M25 50h1v2h-1v-2z" fill="rgb(156,32,16)"/>
<path d="M26 50h1v1h-1v-1z" fill="rgb(230,74,24)"/>
<path d="M31 50h1v2h-1v-2z" fill="rgb(230,74,24)"/>
<path d="M46 50h2v1h-1v2h-1v1h-1v1h-1v1h-2v-2h1v-2h1v-1h2v-1z" fill="rgb(255,255,164)"/>
<path d="M49 50h1v1h2v1h2v1h2v1h2v-1h1v-1h1v-1h1v3h1v3h-1v-1h-1v1h1v1h1v1h1v4h-1v1h-1v1
	h-1v-2h-1v-1h-1v-2h-1v-1h-4v-1h-1v1h-1v1h-1v1h-1v1h-1v1h-2v-1h1v-1h1v-2h1v-3h1
	v-4h-1v2h-1v2h-1v1h-1v1h-1v1h-2v1h-1v-4h2v-1h1v-1h1v-1h1v-2h2v-1z" fill="rgb(255,164,156)"/>
<path d="M61 51h1v3h-1v-3z" fill="rgb(16,16,16)"/>
<path d="M73 51h1v5h-1v-5z" fill="rgb(123,24,16)"/>
<path d="M24 52h1v2h-1v-2z" fill="rgb(156,32,16)"/>
<path d="M25 52h1v1h-1v-1z" fill="rgb(230,74,24)"/>
<path d="M30 52h1v2h-1v-2z" fill="rgb(230,74,24)"/>
<path d="M38 52h1v1h-1v-1z" fill="rgb(156,32,16)"/>
<path d="M49 52h1v4h-1v3h-1v2h-1v1h-1v1h-2v-1h-1v-3h2v-1h1v-1h1v-1h1v-2h1v-2z" fill="rgb(255,255,164)"/>
<path d="M38 53h1v2h-1v-2z" fill="rgb(16,16,16)"/>
<path d="M23 54h1v2h-1v-2z" fill="rgb(16,16,16)"/>
<path d="M24 54h1v1h-1v-1z" fill="rgb(230,74,24)"/>
<path d="M29 54h1v3h-1v-3z" fill="rgb(230,74,24)"/>
<path d="M62 54h1v4h-1v-4z" fill="rgb(16,16,16)"/>
<path d="M37 55h1v1h-1v-1z" fill="rgb(156,32,16)"/>
<path d="M69 55h1v4h-1v-4z" fill="rgb(16,16,16)"/>
<path d="M22 56h1v3h-1v-3z" fill="rgb(16,16,16)"/>
<path d="M23 56h1v1h-1v-1z" fill="rgb(230,74,24)"/>
<path d="M37 56h1v5h-1v-5z" fill="rgb(16,16,16)"/>
<path d="M60 56h1v1h-1v-1z" fill="rgb(156,32,16)"/>
<path d="M74 56h1v4h-1v-4z" fill="rgb(123,24,16)"/>
<path d="M28 57h1v3h-1v-3z" fill="rgb(230,74,24)"/>
<path d="M38 57h4v3h-4v-3z" fill="rgb(238,115,106)"/>
<path d="M61 57h1v1h-1v-1z" fill="rgb(156,32,16)"/>
<path d="M52 58h1v1h-1v-1z" fill="rgb(238,115,106)"/>
<path d="M62 58h1v1h-1v-1z" fill="rgb(123,24,16)"/>
<path d="M68 58h1v1h-1v-1z" fill="rgb(205,82,49)"/>
<path d="M21 59h1v7h-1v-7z" fill="rgb(16,16,16)"/>
<path d="M51 59h1v1h-1v-1z" fill="rgb(123,24,16)"/>
<path d="M52 59h1v1h-1v-1z" fill="rgb(255,164,156)"/>
<path d="M53 59h4v1h1v1h-5v1h-1v1h-1v-2h1v-1h1v-1z" fill="rgb(255,205,180)"/>
<path d="M63 59h1v2h-1v-2z" fill="rgb(16,16,16)"/>
<path d="M68 59h1v2h-1v-2z" fill="rgb(16,16,16)"/>
<path d="M38 60h5v2h1v2h-6v-1h-1v-2h1v-1z" fill="rgb(230,213,115)"/>
<path d="M50 60h1v1h-1v-1z" fill="rgb(123,24,16)"/>
<path d="M51 60h1v1h-1v-1z" fill="rgb(238,115,106)"/>
<path d="M67 60h1v1h-1v-1z" fill="rgb(205,82,49)"/>
<path d="M75 60h1v2h-1v-2z" fill="rgb(123,24,16)"/>
<path d="M36 61h1v4h-1v-4z" fill="rgb(16,16,16)"/>
<path d="M49 61h1v2h-2v-1h1v-1z" fill="rgb(238,115,106)"/>
<path d="M50 61h1v1h-1v-1z" fill="rgb(16,16,16)"/>
<path d="M53 61h5v1h1v1h1v2h-1v1h-1v-2h-1v-1h-3v1h-1v2h-1v-1h-1v-2h1v-1h1v-1z" fill="rgb(255,255,164)"/>
<path d="M63 61h1v1h-1v-1z" fill="rgb(123,24,16)"/>
<path d="M67 61h1v2h-1v-2z" fill="rgb(16,16,16)"/>
<path d="M69 61h1v1h-1v-1z" fill="rgb(16,16,16)"/>
<path d="M22 62h1v2h-1v-2z" fill="rgb(255,164,148)"/>
<path d="M34 62h1v2h-1v-2z" fill="rgb(255,164,148)"/>
<path d="M50 62h1v1h-1v-1z" fill="rgb(156,32,16)"/>
<path d="M63 62h1v1h-1v-1z" fill="rgb(205,82,49)"/>
<path d="M64 62h1v3h1v1h-1v2h-1v-6z" fill="rgb(16,16,16)"/>
<path d="M66 62h1v1h-1v-1z" fill="rgb(205,82,49)"/>
<path d="M70 62h1v1h-1v-1z" fill="rgb(16,16,16)"/>
<path d="M76 62h1v2h-1v-2z" fill="rgb(123,24,16)"/>
<path d="M37 63h1v1h6v-1h4v1h-1v1h-3v1h-6v-1h-1v-2z" fill="rgb(238,115,106)"/>
<path d="M48 63h1v3h-1v1h-2v1h-8v-1h-1v-1h-1v-1h2v1h6v-1h3v-1h1v-1z" fill="rgb(230,213,115)"/>
<path d="M49 63h1v5h-1v-5z" fill="rgb(16,16,16)"/>
<path d="M50 63h1v4h1v1h1v1h5v-1h1v-1h1v-2h1v-1h1v-1h2v4h-1v3h-1v2h-1v1h-2v-1h-2v-1h-4v1
	h-1v-1h-1v-3h-1v-5z" fill="rgb(238,115,106)"/>
<path d="M54 63h3v2h1v1h-5v-2h1v-1z" fill="rgb(255,164,156)"/>
<path d="M65 63h1v2h-1v-2z" fill="rgb(205,82,49)"/>
<path d="M66 63h1v2h-1v-2z" fill="rgb(16,16,16)"/>
<path d="M71 63h2v1h-2v-1z" fill="rgb(16,16,16)"/>
<path d="M22 64h1v1h-1v-1z" fill="rgb(230,74,24)"/>
<path d="M23 64h1v1h1v1h5v-1h3v-1h1v2h-1v1h-2v1h-5v-1h-2v-1h-1v-2z" fill="rgb(255,164,148)"/>
<path d="M34 64h1v3h-1v1h-1v1h-2v1h-4v-1h-2v-1h-2v-2h1v1h2v1h5v-1h2v-1h1v-2z" fill="rgb(230,74,24)"/>
<path d="M35 64h1v1h-1v-1z" fill="rgb(156,32,16)"/>
<path d="M57 64h1v1h-1v-1z" fill="rgb(238,115,106)"/>
<path d="M73 64h3v1h-3v-1z" fill="rgb(16,16,16)"/>
<path d="M22 65h1v1h-1v-1z" fill="rgb(156,32,16)"/>
<path d="M35 65h1v1h1v1h-1v1h-1v-3z" fill="rgb(16,16,16)"/>
<path d="M51 65h1v1h2v1h3v-1h2v-1h1v2h-1v1h-1v1h-5v-1h-1v-1h-1v-2z" fill="rgb(230,213,115)"/>
<path d="M22 66h1v2h-1v-2z" fill="rgb(16,16,16)"/>
<path d="M48 66h1v2h1v2h-7v-1h-3v-1h6v-1h2v-1z" fill="rgb(205,82,49)"/>
<path d="M54 66h3v1h-3v-1z" fill="rgb(238,115,106)"/>
<path d="M34 67h1v1h-1v-1z" fill="rgb(156,32,16)"/>
<path d="M36 67h1v1h1v1h2v1h1v2h-2v1h-2v-1h-1v-1h-1v-1h-1v-1h1v-1h1v-1z" fill="rgb(205,82,49)"/>
<path d="M37 67h1v1h-1v-1z" fill="rgb(16,16,16)"/>
<path d="M63 67h1v1h-1v-1z" fill="rgb(205,82,49)"/>
<path d="M23 68h1v1h-1v-1z" fill="rgb(16,16,16)"/>
<path d="M24 68h1v1h-1v-1z" fill="rgb(156,32,16)"/>
<path d="M33 68h1v1h-1v-1z" fill="rgb(156,32,16)"/>
<path d="M34 68h1v1h-1v-1z" fill="rgb(16,16,16)"/>
<path d="M38 68h2v1h-2v-1z" fill="rgb(16,16,16)"/>
<path d="M50 68h1v3h-8v-1h7v-2z" fill="rgb(16,16,16)"/>
<path d="M63 68h1v3h-1v-3z" fill="rgb(16,16,16)"/>
<path d="M24 69h2v1h-2v-1z" fill="rgb(16,16,16)"/>
<path d="M26 69h1v1h-1v-1z" fill="rgb(156,32,16)"/>
<path d="M31 69h1v1h-1v-1z" fill="rgb(156,32,16)"/>
<path d="M32 69h2v1h-2v-1z" fill="rgb(16,16,16)"/>
<path d="M40 69h3v1h-1v2h-1v-2h-1v-1z" fill="rgb(16,16,16)"/>
<path d="M26 70h6v1h-1v2h-1v-2h-4v-1z" fill="rgb(16,16,16)"/>
<path d="M32 70h3v1h-3v-1z" fill="rgb(123,24,16)"/>
<path d="M62 70h1v1h-1v-1z" fill="rgb(205,82,49)"/>
<path d="M31 71h1v1h-1v-1z" fill="rgb(123,24,16)"/>
<path d="M32 71h3v1h1v1h-5v-1h1v-1z" fill="rgb(197,197,197)"/>
<path d="M35 71h1v1h-1v-1z" fill="rgb(123,24,16)"/>
<path d="M51 71h1v3h-1v-3z" fill="rgb(16,16,16)"/>
<path d="M53 71h4v1h-4v-1z" fill="rgb(123,24,16)"/>
<path d="M62 71h1v2h-1v-2z" fill="rgb(16,16,16)"/>
<path d="M36 72h1v1h-1v-1z" fill="rgb(123,24,16)"/>
<path d="M39 72h2v1h-2v-1z" fill="rgb(16,16,16)"/>
<path d="M52 72h1v1h-1v-1z" fill="rgb(123,24,16)"/>
<path d="M53 72h3v1h-1v1h-3v-1h1v-1z" fill="rgb(255,255,255)"/>
<path d="M56 72h1v1h2v1h-2v1h-4v-1h2v-1h1v-1z" fill="rgb(197,197,197)"/>
<path d="M57 72h2v1h-2v-1z" fill="rgb(123,24,16)"/>
<path d="M61 72h1v1h-1v-1z" fill="rgb(205,82,49)"/>
<path d="M31 73h8v1h-8v-1z" fill="rgb(16,16,16)"/>
<path d="M59 73h1v1h-1v-1z" fill="rgb(123,24,16)"/>
<path d="M60 73h2v1h-2v-1z" fill="rgb(16,16,16)"/>
<path d="M52 74h1v1h-1v-1z" fill="rgb(16,16,16)"/>
<path d="M57 74h3v1h-3v-1z" fill="rgb(16,16,16)"/>
<path d="M53 75h4v1h-4v-1z" fill="rgb(16,16,16)"/>
</svg>
