<?xml version="1.0" encoding="utf-8"?>
<!-- generated at drububu.com  -->
<!DOCTYPE svg PUBLIC "-//W3C//DTD SVG 1.1//EN" "http://www.w3.org/Graphics/SVG/1.1/DTD/svg11.dtd">
<svg version="1.1" preserveAspectRatio="xMinYMin meet" xmlns="http://www.w3.org/2000/svg" xmlns:xlink="http://www.w3.org/1999/xlink" x="0px" y="0px" width="96px" height="96px" viewBox="0 0 96 96">
<path d="M0 0h96v96h-96v-96z" fill="transparent"/>
<path d="M31 21h4v1h-4v-1z" fill="rgb(238,213,106)"/>
<path d="M29 22h2v1h-2v-1z" fill="rgb(238,213,106)"/>
<path d="M31 22h4v1h1v3h-1v1h-1v1h-4v-1h-1v-1h-1v-1h1v-2h2v-1z" fill="rgb(246,238,148)"/>
<path d="M35 22h1v1h-1v-1z" fill="rgb(238,213,106)"/>
<path d="M36 22h1v1h-1v-1z" fill="rgb(197,180,41)"/>
<path d="M28 23h1v2h-1v-2z" fill="rgb(238,213,106)"/>
<path d="M36 23h1v1h1v2h1v1h1v4h-1v1h-2v1h-1v3h-1v-1h-1v-1h-2v1h-3v-1h-2v-1h4v-1h1v-2h-1
	v-1h-1v-1h4v2h1v1h2v-1h1v-2h-1v-1h-2v-1h1v-3z" fill="rgb(238,213,106)"/>
<path d="M37 23h1v1h-1v-1z" fill="rgb(197,180,41)"/>
<path d="M27 24h1v2h-2v-1h1v-1z" fill="rgb(197,180,41)"/>
<path d="M38 24h1v2h-1v-2z" fill="rgb(197,180,41)"/>
<path d="M52 25h3v1h-3v-1z" fill="rgb(238,213,106)"/>
<path d="M55 25h1v1h-1v-1z" fill="rgb(197,180,41)"/>
<path d="M25 26h1v1h-1v-1z" fill="rgb(197,180,41)"/>
<path d="M26 26h3v1h1v1h-2v-1h-2v-1z" fill="rgb(238,213,106)"/>
<path d="M39 26h1v1h-1v-1z" fill="rgb(197,180,41)"/>
<path d="M51 26h1v1h-1v-1z" fill="rgb(238,213,106)"/>
<path d="M52 26h3v1h1v1h2v1h1v3h-1v1h-3v-1h-1v-2h-1v1h-1v-1h-1v-3h1v-1z" fill="rgb(246,238,148)"/>
<path d="M55 26h1v1h-1v-1z" fill="rgb(238,213,106)"/>
<path d="M56 26h1v1h1v1h-2v-2z" fill="rgb(197,180,41)"/>
<path d="M24 27h1v1h-1v-1z" fill="rgb(238,213,106)"/>
<path d="M25 27h3v1h2v1h1v1h1v2h-1v1h-4v-1h-2v-1h-1v-3h1v-1z" fill="rgb(246,238,148)"/>
<path d="M34 27h1v1h-1v-1z" fill="rgb(238,213,106)"/>
<path d="M35 27h2v1h1v2h-1v1h-2v-1h-1v-2h1v-1z" fill="rgb(246,238,148)"/>
<path d="M40 27h1v4h-1v-4z" fill="rgb(197,180,41)"/>
<path d="M50 27h1v1h-1v-1z" fill="rgb(197,180,41)"/>
<path d="M23 28h1v3h-1v-3z" fill="rgb(238,213,106)"/>
<path d="M49 28h1v3h-1v-3z" fill="rgb(197,180,41)"/>
<path d="M50 28h1v2h1v1h1v-1h1v2h1v1h2v1h-3v-1h-2v1h-1v-3h-1v-3z" fill="rgb(238,213,106)"/>
<path d="M58 28h1v1h-1v-1z" fill="rgb(197,180,41)"/>
<path d="M59 29h1v3h-1v-3z" fill="rgb(197,180,41)"/>
<path d="M24 31h1v1h-1v-1z" fill="rgb(238,213,106)"/>
<path d="M39 31h1v1h-1v-1z" fill="rgb(197,180,41)"/>
<path d="M50 31h1v3h-1v-3z" fill="rgb(197,180,41)"/>
<path d="M25 32h2v1h-2v-1z" fill="rgb(238,213,106)"/>
<path d="M37 32h2v1h-2v-1z" fill="rgb(197,180,41)"/>
<path d="M58 32h1v1h-1v-1z" fill="rgb(197,180,41)"/>
<path d="M71 32h4v1h-4v-1z" fill="rgb(197,180,41)"/>
<path d="M26 33h1v1h-1v-1z" fill="rgb(197,180,41)"/>
<path d="M36 33h1v2h-1v-2z" fill="rgb(197,180,41)"/>
<path d="M47 33h3v1h-3v-1z" fill="rgb(90,41,82)"/>
<path d="M52 33h2v1h-2v-1z" fill="rgb(197,180,41)"/>
<path d="M57 33h1v1h-1v-1z" fill="rgb(197,180,41)"/>
<path d="M69 33h2v1h-2v-1z" fill="rgb(238,213,106)"/>
<path d="M71 33h3v1h1v1h1v3h1v1h1v2h-1v1h-2v-1h-1v-2h-1v1h-1v2h-1v1h-3v-1h-1v-3h1v-1h1
	v-1h-1v-2h1v-1h2v-1z" fill="rgb(246,238,148)"/>
<path d="M74 33h1v1h-1v-1z" fill="rgb(238,213,106)"/>
<path d="M75 33h2v1h-2v-1z" fill="rgb(197,180,41)"/>
<path d="M27 34h2v1h-2v-1z" fill="rgb(197,180,41)"/>
<path d="M32 34h2v1h-2v-1z" fill="rgb(197,180,41)"/>
<path d="M46 34h1v1h-1v-1z" fill="rgb(90,41,82)"/>
<path d="M47 34h3v1h-1v1h-2v-2z" fill="rgb(222,156,213)"/>
<path d="M50 34h2v1h1v1h-2v-1h-1v-1z" fill="rgb(90,41,82)"/>
<path d="M54 34h3v1h-3v-1z" fill="rgb(197,180,41)"/>
<path d="M68 34h1v1h-1v-1z" fill="rgb(238,213,106)"/>
<path d="M75 34h2v1h1v3h-2v-3h-1v-1z" fill="rgb(238,213,106)"/>
<path d="M77 34h1v1h-1v-1z" fill="rgb(197,180,41)"/>
<path d="M29 35h3v1h-3v-1z" fill="rgb(197,180,41)"/>
<path d="M34 35h1v1h-1v-1z" fill="rgb(197,180,41)"/>
<path d="M45 35h1v1h-1v-1z" fill="rgb(90,41,82)"/>
<path d="M46 35h1v1h-1v-1z" fill="rgb(189,123,180)"/>
<path d="M49 35h1v2h-1v1h3v1h2v1h2v1h1v4h1v1h1v2h-1v2h-1v1h-1v1h-3v1h2v1h1v2h-1v1h-3v-1
	h-3v1h-1v-1h-1v1h-1v-2h1v-3h-1v-1h-6v1h-1v3h1v1h-2v1h-1v-2h-2v-1h-1v-1h-1v-2h-1
	v-3h1v-3h1v-2h1v1h8v-3h1v1h1v-1h1v-1h1v-2h-1v-1h2v-1h1v-1z" fill="rgb(189,123,180)"/>
<path d="M50 35h1v1h1v1h-2v-2z" fill="rgb(148,82,139)"/>
<path d="M65 35h3v2h1v1h-1v1h-1v3h1v1h3v-1h1v-2h1v-1h1v2h1v1h2v-1h1v-1h1v4h-1v1h-1v1h-3
	v-1h-1v1h-1v1h-1v1h-4v-1h-1v-1h-1v-2h-1v-1h-2v-1h2v-2h-1v-3h1v2h2v-1h1v-2h-2v-1
	z" fill="rgb(238,213,106)"/>
<path d="M78 35h1v3h-1v-3z" fill="rgb(197,180,41)"/>
<path d="M36 36h1v1h-1v-1z" fill="rgb(148,82,139)"/>
<path d="M37 36h2v1h-2v-1z" fill="rgb(90,41,82)"/>
<path d="M43 36h2v1h-2v-1z" fill="rgb(90,41,82)"/>
<path d="M45 36h1v1h-1v-1z" fill="rgb(16,16,16)"/>
<path d="M46 36h1v1h-1v-1z" fill="rgb(90,41,82)"/>
<path d="M47 36h1v1h-1v-1z" fill="rgb(148,82,139)"/>
<path d="M52 36h1v2h-2v-1h1v-1z" fill="rgb(16,16,16)"/>
<path d="M64 36h1v1h-1v-1z" fill="rgb(238,213,106)"/>
<path d="M65 36h2v2h-1v1h-2v-2h1v-1z" fill="rgb(246,238,148)"/>
<path d="M35 37h1v1h-1v-1z" fill="rgb(148,82,139)"/>
<path d="M36 37h3v1h-1v1h-1v1h-1v-3z" fill="rgb(189,123,180)"/>
<path d="M39 37h2v1h-1v1h-2v-1h1v-1z" fill="rgb(16,16,16)"/>
<path d="M41 37h2v1h-2v-1z" fill="rgb(90,41,82)"/>
<path d="M43 37h3v1h1v2h-1v1h-1v1h-1v-1h-1v1h-1v-1h-1v-1h-1v-1h1v-1h2v-1z" fill="rgb(222,156,213)"/>
<path d="M49 37h1v1h-1v-1z" fill="rgb(148,82,139)"/>
<path d="M50 37h1v1h-1v-1z" fill="rgb(90,41,82)"/>
<path d="M35 38h1v2h-1v-2z" fill="rgb(90,41,82)"/>
<path d="M40 38h1v1h-1v-1z" fill="rgb(189,123,180)"/>
<path d="M52 38h1v1h-1v-1z" fill="rgb(148,82,139)"/>
<path d="M53 38h2v1h-2v-1z" fill="rgb(90,41,82)"/>
<path d="M77 38h1v1h-1v-1z" fill="rgb(197,180,41)"/>
<path d="M37 39h1v1h-1v-1z" fill="rgb(16,16,16)"/>
<path d="M38 39h2v1h-2v-1z" fill="rgb(189,123,180)"/>
<path d="M54 39h1v1h-1v-1z" fill="rgb(148,82,139)"/>
<path d="M55 39h1v1h-1v-1z" fill="rgb(16,16,16)"/>
<path d="M78 39h1v1h-1v-1z" fill="rgb(197,180,41)"/>
<path d="M35 40h2v1h-1v1h-1v-2z" fill="rgb(16,16,16)"/>
<path d="M37 40h3v1h-3v-1z" fill="rgb(148,82,139)"/>
<path d="M40 40h1v1h-1v-1z" fill="rgb(189,123,180)"/>
<path d="M48 40h4v1h-4v-1z" fill="rgb(148,82,139)"/>
<path d="M56 40h1v1h-1v-1z" fill="rgb(16,16,16)"/>
<path d="M58 40h2v1h-2v-1z" fill="rgb(90,41,82)"/>
<path d="M63 40h1v2h-1v-2z" fill="rgb(197,180,41)"/>
<path d="M79 40h1v4h-1v-4z" fill="rgb(197,180,41)"/>
<path d="M36 41h1v1h-1v-1z" fill="rgb(148,82,139)"/>
<path d="M37 41h1v1h-1v-1z" fill="rgb(222,222,222)"/>
<path d="M38 41h3v2h1v1h-6v-1h1v-1h1v-1z" fill="rgb(255,255,255)"/>
<path d="M41 41h1v1h-1v-1z" fill="rgb(148,82,139)"/>
<path d="M47 41h1v1h-1v-1z" fill="rgb(148,82,139)"/>
<path d="M48 41h3v1h1v1h1v1h-6v-1h1v-2z" fill="rgb(255,255,255)"/>
<path d="M51 41h1v1h-1v-1z" fill="rgb(222,222,222)"/>
<path d="M52 41h1v1h-1v-1z" fill="rgb(90,41,82)"/>
<path d="M57 41h1v1h-1v-1z" fill="rgb(90,41,82)"/>
<path d="M58 41h2v1h1v1h-2v-1h-1v-1z" fill="rgb(189,123,180)"/>
<path d="M60 41h1v1h-1v-1z" fill="rgb(148,82,139)"/>
<path d="M34 42h1v1h-1v-1z" fill="rgb(90,41,82)"/>
<path d="M35 42h1v2h-1v-2z" fill="rgb(148,82,139)"/>
<path d="M36 42h1v1h-1v-1z" fill="rgb(222,222,222)"/>
<path d="M39 42h1v1h-1v-1z" fill="rgb(16,16,16)"/>
<path d="M41 42h1v1h-1v-1z" fill="rgb(222,222,222)"/>
<path d="M42 42h1v2h-1v-2z" fill="rgb(148,82,139)"/>
<path d="M46 42h1v2h-1v-2z" fill="rgb(148,82,139)"/>
<path d="M47 42h1v1h-1v-1z" fill="rgb(222,222,222)"/>
<path d="M49 42h1v1h-1v-1z" fill="rgb(16,16,16)"/>
<path d="M52 42h1v1h-1v-1z" fill="rgb(222,222,222)"/>
<path d="M53 42h1v1h-1v-1z" fill="rgb(90,41,82)"/>
<path d="M57 42h1v1h-1v-1z" fill="rgb(16,16,16)"/>
<path d="M58 42h1v1h2v1h-1v1h-1v1h-1v-1h-1v-2h1v-1z" fill="rgb(148,82,139)"/>
<path d="M61 42h1v1h-1v-1z" fill="rgb(148,82,139)"/>
<path d="M33 43h1v2h-1v-2z" fill="rgb(90,41,82)"/>
<path d="M53 43h1v1h-1v-1z" fill="rgb(148,82,139)"/>
<path d="M61 43h1v2h-1v-2z" fill="rgb(16,16,16)"/>
<path d="M62 43h2v1h-2v-1z" fill="rgb(197,180,41)"/>
<path d="M60 44h1v1h-1v-1z" fill="rgb(90,41,82)"/>
<path d="M64 44h1v2h-1v-2z" fill="rgb(197,180,41)"/>
<path d="M78 44h1v1h-1v-1z" fill="rgb(197,180,41)"/>
<path d="M32 45h1v2h-1v-2z" fill="rgb(90,41,82)"/>
<path d="M37 45h2v1h-2v-1z" fill="rgb(148,82,139)"/>
<path d="M39 45h11v1h-11v-1z" fill="rgb(90,41,82)"/>
<path d="M50 45h1v1h-1v-1z" fill="rgb(148,82,139)"/>
<path d="M53 45h2v1h-1v1h-1v-2z" fill="rgb(148,82,139)"/>
<path d="M59 45h2v1h-1v1h-1v-2z" fill="rgb(16,16,16)"/>
<path d="M73 45h1v1h-1v-1z" fill="rgb(197,180,41)"/>
<path d="M77 45h1v1h-1v-1z" fill="rgb(197,180,41)"/>
<path d="M35 46h2v1h-2v-1z" fill="rgb(90,41,82)"/>
<path d="M37 46h2v1h-2v-1z" fill="rgb(255,255,255)"/>
<path d="M39 46h1v1h-1v-1z" fill="rgb(148,82,139)"/>
<path d="M40 46h3v1h-2v1h-2v-1h1v-1z" fill="rgb(213,57,32)"/>
<path d="M43 46h4v1h2v1h-1v1h-8v-1h1v-1h2v-1z" fill="rgb(255,98,74)"/>
<path d="M47 46h1v1h-1v-1z" fill="rgb(213,57,32)"/>
<path d="M48 46h1v1h-1v-1z" fill="rgb(148,82,139)"/>
<path d="M49 46h2v2h-1v-1h-1v-1z" fill="rgb(255,255,255)"/>
<path d="M51 46h2v1h-2v-1z" fill="rgb(90,41,82)"/>
<path d="M65 46h1v1h-1v-1z" fill="rgb(197,180,41)"/>
<path d="M72 46h1v1h-1v-1z" fill="rgb(197,180,41)"/>
<path d="M74 46h3v1h-3v-1z" fill="rgb(197,180,41)"/>
<path d="M29 47h3v1h-3v-1z" fill="rgb(90,41,82)"/>
<path d="M32 47h1v1h-1v-1z" fill="rgb(16,16,16)"/>
<path d="M36 47h1v1h-1v-1z" fill="rgb(148,82,139)"/>
<path d="M37 47h1v1h-1v-1z" fill="rgb(222,222,222)"/>
<path d="M38 47h1v1h-1v-1z" fill="rgb(148,82,139)"/>
<path d="M49 47h1v1h-1v-1z" fill="rgb(148,82,139)"/>
<path d="M51 47h1v1h-1v-1z" fill="rgb(148,82,139)"/>
<path d="M59 47h1v1h-1v-1z" fill="rgb(90,41,82)"/>
<path d="M66 47h1v1h-1v-1z" fill="rgb(197,180,41)"/>
<path d="M71 47h1v1h-1v-1z" fill="rgb(197,180,41)"/>
<path d="M28 48h1v3h-1v-3z" fill="rgb(90,41,82)"/>
<path d="M29 48h2v1h-2v-1z" fill="rgb(189,123,180)"/>
<path d="M31 48h1v3h1v2h1v1h1v1h2v2h1v1h2v1h1v1h-1v1h-2v2h-1v-1h-1v-2h-1v-1h-1v-2h-1v-3
	h-1v-2h-1v-1h-2v-2h2v-1z" fill="rgb(148,82,139)"/>
<path d="M37 48h1v1h-1v-1z" fill="rgb(148,82,139)"/>
<path d="M38 48h2v1h-2v-1z" fill="rgb(90,41,82)"/>
<path d="M48 48h2v1h-2v-1z" fill="rgb(90,41,82)"/>
<path d="M50 48h1v1h-1v-1z" fill="rgb(148,82,139)"/>
<path d="M58 48h2v6h-1v3h-1v2h-1v1h-1v1h1v-1h1v3h-2v1h-2v-1h-2v1h-5v1h-4v-1h-4v-1h1v-1h1
	v-1h3v1h2v1h3v-2h-2v-1h-2v-1h3v-2h1v-1h2v1h1v1h3v-1h1v-1h1v-2h1v-1h1v-1h-1v-1
	h1v-1h-1v-2z" fill="rgb(148,82,139)"/>
<path d="M60 48h1v1h-1v-1z" fill="rgb(90,41,82)"/>
<path d="M67 48h4v1h-4v-1z" fill="rgb(197,180,41)"/>
<path d="M40 49h1v1h-1v-1z" fill="rgb(148,82,139)"/>
<path d="M41 49h6v1h-6v-1z" fill="rgb(90,41,82)"/>
<path d="M47 49h1v1h-1v-1z" fill="rgb(148,82,139)"/>
<path d="M60 49h1v3h-1v-3z" fill="rgb(16,16,16)"/>
<path d="M21 50h1v1h-1v-1z" fill="rgb(197,180,41)"/>
<path d="M22 50h3v1h-3v-1z" fill="rgb(238,213,106)"/>
<path d="M57 50h1v1h-1v-1z" fill="rgb(148,82,139)"/>
<path d="M58 50h1v1h-1v-1z" fill="rgb(189,123,180)"/>
<path d="M20 51h1v1h-1v-1z" fill="rgb(197,180,41)"/>
<path d="M21 51h4v1h1v2h-1v1h1v1h1v3h-1v-1h-2v-1h-3v1h-1v2h-2v-1h-1v-1h-1v-2h1v-2h1v-1h2
	v-1h1v-1z" fill="rgb(246,238,148)"/>
<path d="M25 51h1v1h-1v-1z" fill="rgb(238,213,106)"/>
<path d="M29 51h2v1h-2v-1z" fill="rgb(90,41,82)"/>
<path d="M40 51h6v1h1v2h-2v-2h-4v3h-1v-1h-1v-2h1v-1z" fill="rgb(246,238,148)"/>
<path d="M56 51h1v1h-1v-1z" fill="rgb(148,82,139)"/>
<path d="M57 51h1v1h-1v-1z" fill="rgb(189,123,180)"/>
<path d="M18 52h2v1h-2v-1z" fill="rgb(238,213,106)"/>
<path d="M26 52h1v1h-1v-1z" fill="rgb(238,213,106)"/>
<path d="M31 52h1v2h-1v-2z" fill="rgb(16,16,16)"/>
<path d="M41 52h1v1h-1v-1z" fill="rgb(213,205,106)"/>
<path d="M42 52h2v1h1v1h-1v1h-2v-1h-1v-1h1v-1z" fill="rgb(189,123,180)"/>
<path d="M44 52h1v1h-1v-1z" fill="rgb(213,205,106)"/>
<path d="M53 52h2v1h-2v-1z" fill="rgb(90,41,82)"/>
<path d="M55 52h1v1h1v1h-2v-2z" fill="rgb(148,82,139)"/>
<path d="M56 52h1v1h-1v-1z" fill="rgb(189,123,180)"/>
<path d="M57 52h1v1h-1v-1z" fill="rgb(148,82,139)"/>
<path d="M58 52h1v1h-1v-1z" fill="rgb(189,123,180)"/>
<path d="M60 52h1v2h-1v-2z" fill="rgb(90,41,82)"/>
<path d="M17 53h1v1h-1v-1z" fill="rgb(238,213,106)"/>
<path d="M26 53h1v1h-1v-1z" fill="rgb(197,180,41)"/>
<path d="M57 53h1v1h-1v-1z" fill="rgb(189,123,180)"/>
<path d="M16 54h1v2h-1v-2z" fill="rgb(238,213,106)"/>
<path d="M25 54h2v1h2v2h1v1h1v1h-2v1h-1v2h-1v1h-4v-1h-1v-1h-4v-1h2v-2h1v-1h3v1h2v1h1v-3
	h-1v-1h-1v-1z" fill="rgb(238,213,106)"/>
<path d="M27 54h2v1h-2v-1z" fill="rgb(197,180,41)"/>
<path d="M32 54h1v3h-1v-3z" fill="rgb(16,16,16)"/>
<path d="M39 54h1v1h-1v-1z" fill="rgb(213,205,106)"/>
<path d="M41 54h1v1h2v-1h3v1h-1v2h-1v-1h-1v1h-1v-1h-1v1h-1v-1h-1v-1h1v-1z" fill="rgb(213,205,106)"/>
<path d="M56 54h1v2h-1v-2z" fill="rgb(90,41,82)"/>
<path d="M59 54h1v1h-1v-1z" fill="rgb(90,41,82)"/>
<path d="M29 55h1v2h-1v-2z" fill="rgb(197,180,41)"/>
<path d="M59 55h1v2h-1v-2z" fill="rgb(16,16,16)"/>
<path d="M15 56h1v2h1v1h1v1h-2v-1h-1v-3z" fill="rgb(238,213,106)"/>
<path d="M38 56h2v1h1v1h1v1h-2v-1h-2v-2z" fill="rgb(246,238,148)"/>
<path d="M40 56h1v1h-1v-1z" fill="rgb(189,123,180)"/>
<path d="M42 56h1v1h-1v-1z" fill="rgb(148,82,139)"/>
<path d="M44 56h1v1h-1v-1z" fill="rgb(189,123,180)"/>
<path d="M47 56h1v1h-1v-1z" fill="rgb(148,82,139)"/>
<path d="M51 56h1v1h-1v-1z" fill="rgb(16,16,16)"/>
<path d="M55 56h1v1h-1v-1z" fill="rgb(90,41,82)"/>
<path d="M30 57h1v1h-1v-1z" fill="rgb(197,180,41)"/>
<path d="M31 57h1v3h-1v-3z" fill="rgb(90,41,82)"/>
<path d="M32 57h1v2h-1v-2z" fill="rgb(189,123,180)"/>
<path d="M33 57h1v1h-1v-1z" fill="rgb(90,41,82)"/>
<path d="M41 57h1v1h-1v-1z" fill="rgb(148,82,139)"/>
<path d="M42 57h1v1h-1v-1z" fill="rgb(189,123,180)"/>
<path d="M43 57h3v1h-2v1h-2v-1h1v-1z" fill="rgb(148,82,139)"/>
<path d="M46 57h2v1h-1v1h-3v-1h2v-1z" fill="rgb(246,238,148)"/>
<path d="M52 57h3v1h-3v-1z" fill="rgb(16,16,16)"/>
<path d="M58 57h1v1h-1v-1z" fill="rgb(90,41,82)"/>
<path d="M33 58h1v1h-1v-1z" fill="rgb(16,16,16)"/>
<path d="M47 58h1v1h-1v-1z" fill="rgb(213,205,106)"/>
<path d="M58 58h1v4h-1v-2h-1v-1h1v-1z" fill="rgb(16,16,16)"/>
<path d="M29 59h1v1h-1v-1z" fill="rgb(197,180,41)"/>
<path d="M32 59h2v1h-2v-1z" fill="rgb(148,82,139)"/>
<path d="M34 59h1v1h-1v-1z" fill="rgb(90,41,82)"/>
<path d="M41 59h1v1h2v-1h1v2h3v2h-2v-1h-2v-1h-3v-2z" fill="rgb(213,205,106)"/>
<path d="M42 59h2v1h-2v-1z" fill="rgb(246,238,148)"/>
<path d="M17 60h1v1h-1v-1z" fill="rgb(197,180,41)"/>
<path d="M28 60h1v2h-1v-2z" fill="rgb(197,180,41)"/>
<path d="M32 60h1v1h-1v-1z" fill="rgb(90,41,82)"/>
<path d="M33 60h2v1h-2v-1z" fill="rgb(16,16,16)"/>
<path d="M35 60h1v1h-1v-1z" fill="rgb(189,123,180)"/>
<path d="M40 60h1v1h-1v-1z" fill="rgb(246,238,148)"/>
<path d="M45 60h2v1h-2v-1z" fill="rgb(189,123,180)"/>
<path d="M56 60h1v1h-1v-1z" fill="rgb(90,41,82)"/>
<path d="M18 61h4v1h-4v-1z" fill="rgb(197,180,41)"/>
<path d="M35 61h1v1h-1v-1z" fill="rgb(16,16,16)"/>
<path d="M38 61h3v1h-1v1h-2v-2z" fill="rgb(213,205,106)"/>
<path d="M48 61h1v2h-1v-2z" fill="rgb(189,123,180)"/>
<path d="M60 61h1v1h-1v-1z" fill="rgb(197,180,41)"/>
<path d="M61 61h3v1h-3v-1z" fill="rgb(238,213,106)"/>
<path d="M22 62h1v1h-1v-1z" fill="rgb(197,180,41)"/>
<path d="M27 62h1v1h-1v-1z" fill="rgb(197,180,41)"/>
<path d="M33 62h2v1h-2v-1z" fill="rgb(197,180,41)"/>
<path d="M35 62h1v1h-1v-1z" fill="transparent"/>
<path d="M36 62h1v1h-1v-1z" fill="rgb(16,16,16)"/>
<path d="M54 62h1v1h-1v-1z" fill="rgb(90,41,82)"/>
<path d="M58 62h2v1h-2v-1z" fill="rgb(197,180,41)"/>
<path d="M60 62h1v1h-1v-1z" fill="rgb(238,213,106)"/>
<path d="M61 62h3v1h2v1h1v3h-1v1h-2v1h-2v-1h-2v-1h-1v-1h2v-1h-1v-2h1v-1z" fill="rgb(246,238,148)"/>
<path d="M64 62h3v1h1v1h1v4h-1v2h-1v1h-4v1h-1v1h-4v-1h-1v-1h-1v-3h2v-2h1v1h1v1h2v1h2v-1
	h2v-1h1v-3h-1v-1h-2v-1z" fill="rgb(238,213,106)"/>
<path d="M67 62h1v1h-1v-1z" fill="rgb(197,180,41)"/>
<path d="M23 63h4v1h-4v-1z" fill="rgb(197,180,41)"/>
<path d="M30 63h3v1h-3v-1z" fill="rgb(197,180,41)"/>
<path d="M33 63h2v1h1v2h-1v2h-1v1h-1v1h-4v-1h3v-1h1v-2h-1v-1h-1v-1h2v-1z" fill="rgb(238,213,106)"/>
<path d="M35 63h1v1h-1v-1z" fill="rgb(197,180,41)"/>
<path d="M36 63h1v1h-1v-1z" fill="transparent"/>
<path d="M37 63h2v1h-2v-1z" fill="rgb(16,16,16)"/>
<path d="M52 63h1v1h-1v-1z" fill="rgb(16,16,16)"/>
<path d="M53 63h1v1h-1v-1z" fill="rgb(90,41,82)"/>
<path d="M56 63h1v1h-1v-1z" fill="rgb(90,41,82)"/>
<path d="M57 63h3v2h1v1h-2v-1h-1v-1h-1v-1z" fill="rgb(238,213,106)"/>
<path d="M68 63h1v1h-1v-1z" fill="rgb(197,180,41)"/>
<path d="M28 64h1v1h-1v-1z" fill="rgb(238,213,106)"/>
<path d="M29 64h2v1h1v1h1v2h-1v1h-3v-1h-1v-3h1v-1z" fill="rgb(246,238,148)"/>
<path d="M36 64h1v2h-1v-2z" fill="rgb(197,180,41)"/>
<path d="M39 64h3v1h-3v-1z" fill="rgb(16,16,16)"/>
<path d="M42 64h1v1h-1v-1z" fill="rgb(90,41,82)"/>
<path d="M47 64h1v1h-1v-1z" fill="rgb(90,41,82)"/>
<path d="M48 64h4v1h-4v-1z" fill="rgb(16,16,16)"/>
<path d="M53 64h3v1h-3v-1z" fill="rgb(16,16,16)"/>
<path d="M57 64h1v1h1v1h-1v1h-1v-3z" fill="rgb(197,180,41)"/>
<path d="M69 64h1v4h-1v-4z" fill="rgb(197,180,41)"/>
<path d="M27 65h1v3h-1v-3z" fill="rgb(238,213,106)"/>
<path d="M39 65h1v1h-1v-1z" fill="rgb(90,41,82)"/>
<path d="M40 65h3v1h-3v-1z" fill="rgb(148,82,139)"/>
<path d="M43 65h5v1h-1v1h-1v-1h-3v-1z" fill="rgb(16,16,16)"/>
<path d="M35 66h1v2h-1v-2z" fill="rgb(197,180,41)"/>
<path d="M40 66h1v1h-1v-1z" fill="rgb(16,16,16)"/>
<path d="M41 66h2v2h-1v-1h-1v-1z" fill="rgb(90,41,82)"/>
<path d="M43 66h2v1h-2v-1z" fill="rgb(148,82,139)"/>
<path d="M45 66h1v1h-1v-1z" fill="rgb(90,41,82)"/>
<path d="M43 67h3v1h-3v-1z" fill="rgb(16,16,16)"/>
<path d="M56 67h1v1h-1v-1z" fill="rgb(197,180,41)"/>
<path d="M57 67h1v1h-1v-1z" fill="rgb(246,238,148)"/>
<path d="M27 68h1v1h-1v-1z" fill="rgb(197,180,41)"/>
<path d="M28 68h1v1h-1v-1z" fill="rgb(238,213,106)"/>
<path d="M34 68h1v1h-1v-1z" fill="rgb(197,180,41)"/>
<path d="M55 68h1v3h-1v-3z" fill="rgb(197,180,41)"/>
<path d="M58 68h1v1h-1v-1z" fill="rgb(246,238,148)"/>
<path d="M68 68h1v2h-1v-2z" fill="rgb(197,180,41)"/>
<path d="M28 69h1v1h-1v-1z" fill="rgb(197,180,41)"/>
<path d="M33 69h1v1h-1v-1z" fill="rgb(197,180,41)"/>
<path d="M57 69h1v1h-1v-1z" fill="rgb(246,238,148)"/>
<path d="M58 69h1v1h-1v-1z" fill="rgb(238,213,106)"/>
<path d="M59 69h1v1h-1v-1z" fill="rgb(246,238,148)"/>
<path d="M29 70h4v1h-4v-1z" fill="rgb(197,180,41)"/>
<path d="M58 70h1v1h-1v-1z" fill="rgb(246,238,148)"/>
<path d="M67 70h1v1h-1v-1z" fill="rgb(197,180,41)"/>
<path d="M56 71h1v1h-1v-1z" fill="rgb(197,180,41)"/>
<path d="M59 71h1v1h-1v-1z" fill="rgb(246,238,148)"/>
<path d="M63 71h4v1h-4v-1z" fill="rgb(197,180,41)"/>
<path d="M57 72h1v1h-1v-1z" fill="rgb(197,180,41)"/>
<path d="M62 72h1v1h-1v-1z" fill="rgb(197,180,41)"/>
<path d="M58 73h4v1h-4v-1z" fill="rgb(197,180,41)"/>
</svg>
