<?xml version="1.0" encoding="utf-8"?>
<!-- generated at drububu.com  -->
<!DOCTYPE svg PUBLIC "-//W3C//DTD SVG 1.1//EN" "http://www.w3.org/Graphics/SVG/1.1/DTD/svg11.dtd">
<svg version="1.1" preserveAspectRatio="xMinYMin meet" xmlns="http://www.w3.org/2000/svg" xmlns:xlink="http://www.w3.org/1999/xlink" x="0px" y="0px" width="96px" height="96px" viewBox="0 0 96 96">
<path d="M0 0h96v96h-96v-96z" fill="transparent"/>
<path d="M45 29h2v1h-2v-1z" fill="rgb(74,106,82)"/>
<path d="M44 30h1v1h-1v-1z" fill="rgb(74,106,82)"/>
<path d="M45 30h2v2h-1v1h-1v1h-1v1h-1v-3h1v-1h1v-1z" fill="rgb(180,230,82)"/>
<path d="M47 30h1v2h-1v-2z" fill="rgb(57,74,65)"/>
<path d="M43 31h1v1h-1v-1z" fill="rgb(74,106,82)"/>
<path d="M42 32h1v1h-1v-1z" fill="rgb(74,106,82)"/>
<path d="M46 32h2v4h1v3h-2v1h-1v1h-1v1h-1v1h-2v-2h-1v-2h-1v-1h-1v-1h1v-1h1v-1h1v-1h1v1h1
	v-1h1v-1h1v-1z" fill="rgb(131,197,74)"/>
<path d="M48 32h1v1h-1v-1z" fill="rgb(57,74,65)"/>
<path d="M41 33h1v2h-1v-2z" fill="rgb(74,106,82)"/>
<path d="M42 33h1v1h-1v-1z" fill="rgb(106,139,90)"/>
<path d="M48 33h1v3h-1v-3z" fill="rgb(0,0,0)"/>
<path d="M40 35h1v1h-1v-1z" fill="rgb(74,106,82)"/>
<path d="M39 36h1v1h-1v-1z" fill="rgb(74,106,82)"/>
<path d="M49 36h1v2h-1v-2z" fill="rgb(0,0,0)"/>
<path d="M38 37h1v1h1v1h-2v-2z" fill="rgb(74,106,82)"/>
<path d="M49 38h1v2h-3v-1h2v-1z" fill="rgb(106,139,90)"/>
<path d="M50 38h1v2h-1v-2z" fill="rgb(0,0,0)"/>
<path d="M37 39h1v2h-1v-2z" fill="rgb(57,74,65)"/>
<path d="M38 39h1v1h-1v-1z" fill="rgb(131,197,74)"/>
<path d="M39 39h1v3h-1v1h-2v-2h1v-1h1v-1z" fill="rgb(180,230,82)"/>
<path d="M40 39h1v1h-1v-1z" fill="rgb(74,106,82)"/>
<path d="M40 40h1v1h-1v-1z" fill="rgb(106,139,90)"/>
<path d="M46 40h1v1h-1v-1z" fill="rgb(74,106,82)"/>
<path d="M47 40h3v1h1v2h-2v-1h-2v-2z" fill="rgb(131,197,74)"/>
<path d="M50 40h1v1h-1v-1z" fill="rgb(106,139,90)"/>
<path d="M51 40h1v1h-1v-1z" fill="rgb(57,74,65)"/>
<path d="M36 41h1v1h-1v-1z" fill="rgb(57,74,65)"/>
<path d="M40 41h1v2h-2v-1h1v-1z" fill="rgb(131,197,74)"/>
<path d="M41 41h1v2h-1v-2z" fill="rgb(106,139,90)"/>
<path d="M45 41h1v1h-1v-1z" fill="rgb(57,74,65)"/>
<path d="M46 41h1v1h-1v-1z" fill="rgb(106,139,90)"/>
<path d="M51 41h1v2h-1v-2z" fill="rgb(0,0,0)"/>
<path d="M36 42h1v1h-1v-1z" fill="rgb(74,106,82)"/>
<path d="M44 42h1v1h-1v-1z" fill="rgb(57,74,65)"/>
<path d="M45 42h1v1h-1v-1z" fill="rgb(106,139,90)"/>
<path d="M46 42h1v1h1v1h2v1h-3v-1h-1v-2z" fill="rgb(255,255,255)"/>
<path d="M47 42h2v1h1v1h-2v-1h-1v-1z" fill="rgb(0,0,0)"/>
<path d="M35 43h1v2h-1v-2z" fill="rgb(57,74,65)"/>
<path d="M36 43h1v1h-1v-1z" fill="rgb(131,197,74)"/>
<path d="M37 43h1v1h-1v-1z" fill="rgb(106,139,90)"/>
<path d="M38 43h1v1h-1v-1z" fill="rgb(131,197,74)"/>
<path d="M39 43h1v1h-1v-1z" fill="rgb(106,139,90)"/>
<path d="M40 43h1v1h-1v-1z" fill="rgb(74,106,82)"/>
<path d="M41 43h1v1h-1v-1z" fill="rgb(57,74,65)"/>
<path d="M42 43h2v1h-2v-1z" fill="rgb(106,139,90)"/>
<path d="M44 43h1v1h1v1h1v1h6v1h1v1h2v1h-3v-1h-3v-1h-3v1h-2v-1h-1v-2h-1v-1h1v-1z" fill="rgb(131,197,74)"/>
<path d="M45 43h1v1h-1v-1z" fill="rgb(74,106,82)"/>
<path d="M50 43h1v1h-1v-1z" fill="rgb(255,255,255)"/>
<path d="M51 43h1v1h-1v-1z" fill="rgb(57,74,65)"/>
<path d="M52 43h1v1h-1v-1z" fill="rgb(0,0,0)"/>
<path d="M36 44h1v1h1v2h-1v1h-1v-4z" fill="rgb(180,230,82)"/>
<path d="M37 44h1v1h-1v-1z" fill="rgb(131,197,74)"/>
<path d="M38 44h2v1h-2v-1z" fill="rgb(74,106,82)"/>
<path d="M40 44h1v3h-1v3h1v-2h1v-2h1v1h1v1h1v3h-2v1h-1v-1h-3v-1h-3v-1h-1v-1h-1v-1h1v-2h1
	v3h1v-1h1v-2h2v-1z" fill="rgb(131,197,74)"/>
<path d="M41 44h1v2h-1v-2z" fill="rgb(106,164,74)"/>
<path d="M42 44h1v1h-1v-1z" fill="rgb(57,74,65)"/>
<path d="M46 44h1v1h-1v-1z" fill="rgb(74,106,82)"/>
<path d="M50 44h1v1h-1v-1z" fill="rgb(106,164,74)"/>
<path d="M51 44h1v1h-1v-1z" fill="rgb(74,106,82)"/>
<path d="M52 44h1v1h-1v-1z" fill="rgb(57,74,65)"/>
<path d="M34 45h1v2h-1v-2z" fill="rgb(57,74,65)"/>
<path d="M42 45h2v2h-1v-1h-1v-1z" fill="rgb(74,106,82)"/>
<path d="M47 45h2v1h-2v-1z" fill="rgb(74,106,82)"/>
<path d="M49 45h2v1h-2v-1z" fill="rgb(57,74,65)"/>
<path d="M51 45h1v1h-1v-1z" fill="rgb(106,164,74)"/>
<path d="M52 45h1v1h-1v-1z" fill="rgb(106,139,90)"/>
<path d="M53 45h1v1h-1v-1z" fill="rgb(0,0,0)"/>
<path d="M41 46h1v2h-1v-2z" fill="rgb(57,74,65)"/>
<path d="M53 46h1v1h-1v-1z" fill="rgb(106,164,74)"/>
<path d="M54 46h1v1h-1v-1z" fill="rgb(57,74,65)"/>
<path d="M33 47h1v2h-1v-2z" fill="rgb(57,74,65)"/>
<path d="M40 47h1v1h-1v-1z" fill="rgb(106,164,74)"/>
<path d="M44 47h1v1h-1v-1z" fill="rgb(74,106,82)"/>
<path d="M47 47h1v1h-1v-1z" fill="rgb(106,164,74)"/>
<path d="M48 47h1v1h3v1h3v1h1v1h-1v1h-1v1h-2v1h1v1h1v1h1v4h-1v2h-1v1h-3v1h-2v-1h-1v-1h-1
	v-1h-1v-2h-1v-2h-1v-1h1v-1h-1v-1h-1v-1h-1v-1h3v-1h2v1h1v-2h-1v-1h1v-1h1v-1z" fill="rgb(106,139,90)"/>
<path d="M49 47h1v1h-1v-1z" fill="rgb(106,164,74)"/>
<path d="M54 47h1v1h-1v-1z" fill="rgb(106,164,74)"/>
<path d="M55 47h2v1h-2v-1z" fill="rgb(57,74,65)"/>
<path d="M34 48h1v1h-1v-1z" fill="rgb(106,164,74)"/>
<path d="M40 48h1v2h-1v-2z" fill="rgb(74,106,82)"/>
<path d="M45 48h1v1h-1v-1z" fill="rgb(57,74,65)"/>
<path d="M46 48h1v1h-1v-1z" fill="rgb(106,164,74)"/>
<path d="M52 48h1v1h-1v-1z" fill="rgb(106,164,74)"/>
<path d="M56 48h1v2h-2v-1h1v-1z" fill="rgb(106,164,74)"/>
<path d="M57 48h1v2h-1v-2z" fill="rgb(57,74,65)"/>
<path d="M33 49h1v1h-1v-1z" fill="rgb(0,0,0)"/>
<path d="M34 49h1v1h-1v-1z" fill="rgb(106,139,90)"/>
<path d="M35 49h1v2h-1v-2z" fill="rgb(106,164,74)"/>
<path d="M45 49h1v1h-1v-1z" fill="rgb(74,106,82)"/>
<path d="M34 50h1v1h-1v-1z" fill="rgb(57,74,65)"/>
<path d="M36 50h3v1h-3v-1z" fill="rgb(74,106,82)"/>
<path d="M45 50h1v1h-1v-1z" fill="rgb(106,164,74)"/>
<path d="M46 50h1v2h-1v-2z" fill="rgb(57,74,65)"/>
<path d="M56 50h1v1h-1v-1z" fill="rgb(0,0,0)"/>
<path d="M34 51h1v1h-1v-1z" fill="rgb(0,0,0)"/>
<path d="M35 51h1v1h-1v-1z" fill="rgb(74,106,82)"/>
<path d="M36 51h3v1h1v2h-3v-1h-1v-2z" fill="rgb(131,197,74)"/>
<path d="M39 51h1v1h-1v-1z" fill="rgb(74,106,82)"/>
<path d="M40 51h1v1h-1v-1z" fill="rgb(57,74,65)"/>
<path d="M41 51h1v1h-1v-1z" fill="rgb(106,164,74)"/>
<path d="M43 51h1v1h-1v-1z" fill="rgb(106,164,74)"/>
<path d="M55 51h1v1h-1v-1z" fill="rgb(0,0,0)"/>
<path d="M35 52h1v1h-1v-1z" fill="rgb(0,0,0)"/>
<path d="M40 52h1v1h-1v-1z" fill="rgb(74,106,82)"/>
<path d="M45 52h1v1h-1v-1z" fill="rgb(74,106,82)"/>
<path d="M54 52h1v1h-1v-1z" fill="rgb(0,0,0)"/>
<path d="M36 53h1v3h-1v-3z" fill="rgb(0,0,0)"/>
<path d="M40 53h1v1h-1v-1z" fill="rgb(106,164,74)"/>
<path d="M41 53h1v3h-1v-3z" fill="rgb(74,106,82)"/>
<path d="M44 53h1v1h-1v-1z" fill="rgb(57,74,65)"/>
<path d="M52 53h1v1h-1v-1z" fill="rgb(57,74,65)"/>
<path d="M53 53h1v1h-1v-1z" fill="rgb(0,0,0)"/>
<path d="M37 54h1v1h-1v-1z" fill="rgb(74,106,82)"/>
<path d="M38 54h1v1h-1v-1z" fill="rgb(106,139,90)"/>
<path d="M39 54h1v1h-1v-1z" fill="rgb(74,106,82)"/>
<path d="M40 54h1v1h-1v-1z" fill="rgb(57,74,65)"/>
<path d="M42 54h1v1h-1v-1z" fill="rgb(0,0,0)"/>
<path d="M53 54h1v1h-1v-1z" fill="rgb(57,74,65)"/>
<path d="M37 55h3v1h2v2h-4v-2h-1v-1z" fill="rgb(106,164,74)"/>
<path d="M40 55h1v1h-1v-1z" fill="rgb(106,139,90)"/>
<path d="M42 55h1v2h-1v-2z" fill="rgb(57,74,65)"/>
<path d="M43 55h1v1h-1v-1z" fill="rgb(0,0,0)"/>
<path d="M54 55h1v1h-1v-1z" fill="rgb(0,0,0)"/>
<path d="M37 56h1v2h-1v-2z" fill="rgb(0,0,0)"/>
<path d="M55 56h1v1h-1v-1z" fill="rgb(0,0,0)"/>
<path d="M42 57h1v2h1v2h1v1h1v1h1v1h-2v-1h-3v-1h-1v-1h-1v-1h-1v-2h3v-1z" fill="rgb(106,139,90)"/>
<path d="M43 57h1v2h-1v-2z" fill="rgb(57,74,65)"/>
<path d="M55 57h1v3h-1v-3z" fill="rgb(57,74,65)"/>
<path d="M56 57h2v1h-2v-1z" fill="rgb(0,0,0)"/>
<path d="M38 58h1v2h-1v-2z" fill="rgb(0,0,0)"/>
<path d="M56 58h2v2h-2v-2z" fill="rgb(106,139,90)"/>
<path d="M58 58h2v1h-2v-1z" fill="rgb(0,0,0)"/>
<path d="M44 59h1v2h-1v-2z" fill="rgb(57,74,65)"/>
<path d="M58 59h1v2h1v-1h1v3h-1v-1h-2v-1h-2v-1h2v-1z" fill="rgb(74,106,82)"/>
<path d="M59 59h1v2h-1v-2z" fill="rgb(106,139,90)"/>
<path d="M60 59h3v1h-3v-1z" fill="rgb(0,0,0)"/>
<path d="M39 60h1v1h-1v-1z" fill="rgb(0,0,0)"/>
<path d="M54 60h1v2h-1v-2z" fill="rgb(57,74,65)"/>
<path d="M55 60h1v1h2v1h-2v1h-2v-1h1v-2z" fill="rgb(106,139,90)"/>
<path d="M61 60h2v2h-1v1h-1v-3z" fill="rgb(106,139,90)"/>
<path d="M63 60h1v2h-1v-2z" fill="rgb(0,0,0)"/>
<path d="M40 61h1v1h-1v-1z" fill="rgb(0,0,0)"/>
<path d="M45 61h1v1h-1v-1z" fill="rgb(57,74,65)"/>
<path d="M41 62h1v1h-1v-1z" fill="rgb(57,74,65)"/>
<path d="M46 62h1v1h-1v-1z" fill="rgb(57,74,65)"/>
<path d="M53 62h1v1h-1v-1z" fill="rgb(57,74,65)"/>
<path d="M56 62h2v1h2v1h-3v-1h-1v-1z" fill="rgb(74,106,82)"/>
<path d="M58 62h2v1h-2v-1z" fill="rgb(106,139,90)"/>
<path d="M62 62h1v1h-1v-1z" fill="rgb(0,0,0)"/>
<path d="M42 63h1v1h-1v-1z" fill="rgb(0,0,0)"/>
<path d="M43 63h2v1h-2v-1z" fill="rgb(57,74,65)"/>
<path d="M47 63h1v1h2v-1h3v1h-2v1h-4v-2z" fill="rgb(57,74,65)"/>
<path d="M53 63h1v1h-1v-1z" fill="rgb(106,139,90)"/>
<path d="M54 63h2v2h-4v-1h2v-1z" fill="rgb(74,106,82)"/>
<path d="M56 63h1v1h-1v-1z" fill="rgb(106,139,90)"/>
<path d="M60 63h2v1h-2v-1z" fill="rgb(0,0,0)"/>
<path d="M44 64h3v1h-3v-1z" fill="rgb(0,0,0)"/>
<path d="M51 64h1v1h-1v-1z" fill="rgb(106,139,90)"/>
<path d="M56 64h3v1h-3v-1z" fill="rgb(0,0,0)"/>
<path d="M59 64h1v1h-1v-1z" fill="rgb(57,74,65)"/>
<path d="M47 65h9v1h-9v-1z" fill="rgb(0,0,0)"/>
</svg>
