<?xml version="1.0" encoding="utf-8"?>
<!-- generated at drububu.com  -->
<!DOCTYPE svg PUBLIC "-//W3C//DTD SVG 1.1//EN" "http://www.w3.org/Graphics/SVG/1.1/DTD/svg11.dtd">
<svg version="1.1" preserveAspectRatio="xMinYMin meet" xmlns="http://www.w3.org/2000/svg" xmlns:xlink="http://www.w3.org/1999/xlink" x="0px" y="0px" width="96px" height="96px" viewBox="0 0 96 96">
<path d="M0 0h96v96h-96v-96z" fill="transparent"/>
<path d="M65 14h4v1h-4v-1z" fill="rgb(238,213,106)"/>
<path d="M69 14h1v1h-1v-1z" fill="rgb(197,180,41)"/>
<path d="M53 15h3v1h-3v-1z" fill="rgb(238,213,106)"/>
<path d="M64 15h1v1h-1v-1z" fill="rgb(238,213,106)"/>
<path d="M65 15h4v1h1v2h1v-1h2v1h1v2h-1v1h-2v1h1v1h1v1h1v2h-1v1h-3v-1h-1v-2h1v-1h-1v-1
	h-1v-2h-2v1h-2v-1h-1v-3h1v-1h1v-1z" fill="rgb(246,238,148)"/>
<path d="M69 15h1v1h-1v-1z" fill="rgb(238,213,106)"/>
<path d="M70 15h1v1h-1v-1z" fill="rgb(197,180,41)"/>
<path d="M52 16h1v1h-1v-1z" fill="rgb(238,213,106)"/>
<path d="M53 16h3v1h1v1h1v2h-1v1h-3v-1h-1v1h-3v-1h-1v-2h3v-1h1v-1z" fill="rgb(246,238,148)"/>
<path d="M56 16h1v1h-1v-1z" fill="rgb(238,213,106)"/>
<path d="M63 16h1v1h-1v-1z" fill="rgb(238,213,106)"/>
<path d="M70 16h1v2h-1v-2z" fill="rgb(238,213,106)"/>
<path d="M71 16h3v1h-3v-1z" fill="rgb(197,180,41)"/>
<path d="M49 17h3v1h-3v-1z" fill="rgb(238,213,106)"/>
<path d="M57 17h1v1h-1v-1z" fill="rgb(238,213,106)"/>
<path d="M62 17h1v3h1v1h-3v-1h1v-3z" fill="rgb(238,213,106)"/>
<path d="M73 17h1v1h-1v-1z" fill="rgb(238,213,106)"/>
<path d="M74 17h1v1h-1v-1z" fill="rgb(197,180,41)"/>
<path d="M48 18h1v2h1v1h3v-1h1v1h3v1h-1v1h-2v-1h-2v1h-2v-1h-1v-1h-1v-3z" fill="rgb(238,213,106)"/>
<path d="M58 18h1v2h-1v-2z" fill="rgb(238,213,106)"/>
<path d="M74 18h1v3h-1v1h-1v1h-1v-1h-1v-1h2v-1h1v-2z" fill="rgb(238,213,106)"/>
<path d="M75 18h1v3h-1v-3z" fill="rgb(197,180,41)"/>
<path d="M57 20h1v1h-1v-1z" fill="rgb(238,213,106)"/>
<path d="M66 20h2v2h1v1h1v1h-1v2h1v1h3v-1h1v-2h-1v-1h2v1h1v3h-1v1h-1v1h-3v1h-2v2h-1v-1
	h-1v-1h-1v-1h-1v1h-2v-1h-1v-2h-1v-1h3v-1h1v-3h-1v-1h2v-1z" fill="rgb(238,213,106)"/>
<path d="M16 21h2v1h1v2h1v-1h1v2h-1v2h-1v-2h-1v-1h-1v-1h-3v-1h2v-1z" fill="rgb(238,213,106)"/>
<path d="M18 21h1v1h-1v-1z" fill="rgb(197,180,41)"/>
<path d="M22 21h3v1h-3v-1z" fill="rgb(238,213,106)"/>
<path d="M25 21h2v1h-2v-1z" fill="rgb(197,180,41)"/>
<path d="M48 21h1v1h-1v-1z" fill="rgb(197,180,41)"/>
<path d="M57 21h1v1h-1v-1z" fill="rgb(197,180,41)"/>
<path d="M60 21h1v1h-1v-1z" fill="rgb(238,213,106)"/>
<path d="M61 21h3v1h1v3h-1v1h-3v-1h-1v-3h1v-1z" fill="rgb(246,238,148)"/>
<path d="M74 21h1v2h-2v-1h1v-1z" fill="rgb(197,180,41)"/>
<path d="M19 22h2v1h-1v1h-1v-2z" fill="rgb(197,180,41)"/>
<path d="M21 22h1v1h-1v-1z" fill="rgb(238,213,106)"/>
<path d="M22 22h3v1h1v1h1v3h-1v1h-1v1h-3v1h-1v1h2v1h1v2h-1v1h-4v-1h-1v-3h1v-1h-1v-1h-1v1
	h-3v-1h-1v-5h1v-1h3v1h1v1h1v2h1v-2h1v-2h1v-1z" fill="rgb(246,238,148)"/>
<path d="M25 22h2v1h1v2h1v2h1v1h4v1h-2v1h-3v2h-1v1h-2v3h-1v1h-4v-1h-2v-1h4v-1h1v-2h-1v-1
	h-2v-1h1v-1h3v-1h1v-1h1v-3h-1v-1h-1v-1z" fill="rgb(238,213,106)"/>
<path d="M27 22h1v1h-1v-1z" fill="rgb(197,180,41)"/>
<path d="M43 22h2v1h-2v-1z" fill="rgb(98,49,123)"/>
<path d="M45 22h1v1h-1v-1z" fill="rgb(16,16,16)"/>
<path d="M49 22h1v1h-1v-1z" fill="rgb(197,180,41)"/>
<path d="M52 22h2v1h-2v-1z" fill="rgb(197,180,41)"/>
<path d="M56 22h1v1h-1v-1z" fill="rgb(197,180,41)"/>
<path d="M59 22h1v3h-1v-3z" fill="rgb(238,213,106)"/>
<path d="M13 23h1v1h-1v-1z" fill="rgb(238,213,106)"/>
<path d="M28 23h1v2h-1v-2z" fill="rgb(197,180,41)"/>
<path d="M42 23h1v2h-1v-2z" fill="rgb(98,49,123)"/>
<path d="M43 23h2v4h-1v3h-1v1h-4v1h-2v-2h1v-1h1v-2h1v-1h4v-1h-1v-2z" fill="rgb(189,139,205)"/>
<path d="M45 23h1v2h-1v-2z" fill="rgb(164,106,180)"/>
<path d="M46 23h1v2h-1v-2z" fill="rgb(16,16,16)"/>
<path d="M50 23h2v1h-2v-1z" fill="rgb(197,180,41)"/>
<path d="M54 23h2v1h-2v-1z" fill="rgb(197,180,41)"/>
<path d="M75 23h1v1h-1v-1z" fill="rgb(197,180,41)"/>
<path d="M12 24h1v5h-1v-5z" fill="rgb(238,213,106)"/>
<path d="M76 24h1v3h-1v-3z" fill="rgb(197,180,41)"/>
<path d="M29 25h1v2h-1v-2z" fill="rgb(197,180,41)"/>
<path d="M40 25h2v1h-2v-1z" fill="rgb(98,49,123)"/>
<path d="M42 25h1v1h-1v-1z" fill="rgb(139,82,172)"/>
<path d="M43 25h1v1h-1v-1z" fill="rgb(164,106,180)"/>
<path d="M45 25h1v1h-1v-1z" fill="rgb(139,82,172)"/>
<path d="M46 25h1v1h-1v-1z" fill="rgb(98,49,123)"/>
<path d="M47 25h1v1h-1v-1z" fill="rgb(16,16,16)"/>
<path d="M59 25h1v1h-1v-1z" fill="rgb(197,180,41)"/>
<path d="M60 25h1v1h-1v-1z" fill="rgb(238,213,106)"/>
<path d="M36 26h3v1h-1v1h-1v1h-1v-3z" fill="rgb(139,82,172)"/>
<path d="M39 26h1v1h-1v-1z" fill="rgb(98,49,123)"/>
<path d="M45 26h1v2h1v1h1v2h-4v1h-1v2h2v1h-3v-1h-2v-1h-3v-1h2v-1h4v-1h1v-3h1v-1z" fill="rgb(164,106,180)"/>
<path d="M46 26h1v1h2v1h1v1h2v1h-2v3h1v1h1v1h1v1h2v1h-2v1h-3v-1h-1v-1h-1v1h-3v2h-1v-2h-4
	v-3h2v1h1v1h3v-1h1v-2h-1v-1h-2v-1h4v-2h-1v-1h-1v-2z" fill="rgb(139,82,172)"/>
<path d="M47 26h1v1h-1v-1z" fill="rgb(98,49,123)"/>
<path d="M48 26h1v1h-1v-1z" fill="rgb(16,16,16)"/>
<path d="M60 26h1v1h-1v-1z" fill="rgb(197,180,41)"/>
<path d="M30 27h2v1h-2v-1z" fill="rgb(197,180,41)"/>
<path d="M35 27h1v2h-1v-2z" fill="rgb(98,49,123)"/>
<path d="M38 27h1v1h-1v-1z" fill="rgb(98,49,123)"/>
<path d="M49 27h2v1h-2v-1z" fill="rgb(16,16,16)"/>
<path d="M51 27h1v1h-1v-1z" fill="rgb(98,49,123)"/>
<path d="M61 27h1v2h-1v-2z" fill="rgb(197,180,41)"/>
<path d="M75 27h1v1h-1v-1z" fill="rgb(197,180,41)"/>
<path d="M37 28h1v1h-1v-1z" fill="rgb(16,16,16)"/>
<path d="M38 28h1v1h-1v-1z" fill="rgb(164,106,180)"/>
<path d="M50 28h2v1h-2v-1z" fill="rgb(164,106,180)"/>
<path d="M52 28h1v2h-1v-2z" fill="rgb(16,16,16)"/>
<path d="M74 28h1v1h-1v-1z" fill="rgb(197,180,41)"/>
<path d="M12 29h1v1h-1v-1z" fill="rgb(197,180,41)"/>
<path d="M13 29h1v1h-1v-1z" fill="rgb(238,213,106)"/>
<path d="M17 29h1v1h1v1h-1v1h-2v-1h-2v-1h3v-1z" fill="rgb(238,213,106)"/>
<path d="M32 29h2v1h-2v-1z" fill="rgb(197,180,41)"/>
<path d="M36 29h2v1h-2v-1z" fill="rgb(98,49,123)"/>
<path d="M62 29h1v1h-1v-1z" fill="rgb(197,180,41)"/>
<path d="M65 29h1v1h-1v-1z" fill="rgb(197,180,41)"/>
<path d="M71 29h3v1h-3v-1z" fill="rgb(197,180,41)"/>
<path d="M13 30h1v1h-1v-1z" fill="rgb(197,180,41)"/>
<path d="M29 30h3v1h-2v1h-1v-2z" fill="rgb(197,180,41)"/>
<path d="M36 30h1v3h-1v-3z" fill="rgb(16,16,16)"/>
<path d="M50 30h1v1h-1v-1z" fill="rgb(98,49,123)"/>
<path d="M51 30h1v1h-1v-1z" fill="rgb(16,16,16)"/>
<path d="M63 30h2v1h-2v-1z" fill="rgb(197,180,41)"/>
<path d="M66 30h1v1h-1v-1z" fill="rgb(197,180,41)"/>
<path d="M69 30h2v1h-1v1h-1v-2z" fill="rgb(197,180,41)"/>
<path d="M14 31h2v1h-2v-1z" fill="rgb(197,180,41)"/>
<path d="M50 31h1v2h-1v-2z" fill="rgb(16,16,16)"/>
<path d="M16 32h2v3h-1v-2h-1v-1z" fill="rgb(197,180,41)"/>
<path d="M28 32h1v1h-1v-1z" fill="rgb(197,180,41)"/>
<path d="M43 32h3v1h-1v1h-2v-2z" fill="rgb(189,139,205)"/>
<path d="M57 32h3v1h-3v-1z" fill="rgb(98,49,123)"/>
<path d="M60 32h1v1h-1v-1z" fill="rgb(16,16,16)"/>
<path d="M67 32h3v1h-3v-1z" fill="rgb(98,49,123)"/>
<path d="M26 33h2v1h-1v2h-1v-3z" fill="rgb(197,180,41)"/>
<path d="M37 33h1v1h-1v-1z" fill="rgb(16,16,16)"/>
<path d="M38 33h2v2h-2v-2z" fill="rgb(189,139,205)"/>
<path d="M45 33h1v1h-1v-1z" fill="rgb(164,106,180)"/>
<path d="M46 33h1v2h-1v-2z" fill="rgb(98,49,123)"/>
<path d="M51 33h1v1h-1v-1z" fill="rgb(16,16,16)"/>
<path d="M56 33h1v2h-1v-2z" fill="rgb(98,49,123)"/>
<path d="M57 33h2v1h-2v-1z" fill="rgb(189,139,205)"/>
<path d="M59 33h2v1h-2v-1z" fill="rgb(164,106,180)"/>
<path d="M61 33h2v1h-2v-1z" fill="rgb(98,49,123)"/>
<path d="M63 33h3v1h-3v-1z" fill="rgb(16,16,16)"/>
<path d="M66 33h1v1h-1v-1z" fill="rgb(98,49,123)"/>
<path d="M67 33h3v1h1v1h-4v-2z" fill="rgb(164,106,180)"/>
<path d="M70 33h1v1h-1v-1z" fill="rgb(98,49,123)"/>
<path d="M18 34h1v1h-1v-1z" fill="rgb(238,213,106)"/>
<path d="M37 34h1v1h-1v-1z" fill="rgb(98,49,123)"/>
<path d="M45 34h1v1h-1v-1z" fill="rgb(139,82,172)"/>
<path d="M52 34h1v1h-1v-1z" fill="rgb(98,49,123)"/>
<path d="M53 34h1v1h-1v-1z" fill="rgb(16,16,16)"/>
<path d="M57 34h2v1h-2v-1z" fill="rgb(164,106,180)"/>
<path d="M59 34h3v1h2v1h2v1h1v1h1v2h1v1h-1v2h1v2h-1v2h-1v1h-1v-5h-1v-1h-1v1h1v1h-1v2h-3
	v1h-2v1h-1v-1h-1v2h1v1h2v1h1v1h-5v-1h-2v-1h-1v-1h-1v-2h-1v-5h1v-2h1v-2h1v-1h1
	v-1h2v-1h2v-1z" fill="rgb(213,164,222)"/>
<path d="M62 34h5v1h2v1h2v1h1v1h1v2h1v1h-1v1h-1v1h-3v-1h-1v-1h1v-1h-1v-2h-1v-1h-1v-1h-2
	v-1h-2v-1z" fill="rgb(189,139,205)"/>
<path d="M71 34h1v3h-1v-1h-1v-1h1v-1z" fill="rgb(16,16,16)"/>
<path d="M18 35h1v1h-1v-1z" fill="rgb(197,180,41)"/>
<path d="M36 35h1v2h-1v-2z" fill="rgb(98,49,123)"/>
<path d="M37 35h1v1h1v1h-2v-2z" fill="rgb(139,82,172)"/>
<path d="M38 35h1v1h-1v-1z" fill="rgb(98,49,123)"/>
<path d="M39 35h1v1h-1v-1z" fill="rgb(16,16,16)"/>
<path d="M43 35h3v1h-3v-1z" fill="rgb(98,49,123)"/>
<path d="M53 35h1v1h-1v-1z" fill="rgb(98,49,123)"/>
<path d="M54 35h1v1h-1v-1z" fill="rgb(16,16,16)"/>
<path d="M55 35h1v1h-1v-1z" fill="rgb(139,82,172)"/>
<path d="M56 35h1v1h-1v-1z" fill="rgb(164,106,180)"/>
<path d="M69 35h1v1h-1v-1z" fill="rgb(139,82,172)"/>
<path d="M19 36h2v1h-2v-1z" fill="rgb(197,180,41)"/>
<path d="M25 36h1v1h-1v-1z" fill="rgb(197,180,41)"/>
<path d="M39 36h1v1h-1v-1z" fill="rgb(98,49,123)"/>
<path d="M48 36h1v1h-1v-1z" fill="rgb(16,16,16)"/>
<path d="M21 37h4v1h-4v-1z" fill="rgb(197,180,41)"/>
<path d="M37 37h2v1h-2v-1z" fill="rgb(98,49,123)"/>
<path d="M40 37h1v1h-1v-1z" fill="rgb(16,16,16)"/>
<path d="M41 37h1v1h-1v-1z" fill="rgb(98,49,123)"/>
<path d="M42 37h2v3h-2v-3z" fill="rgb(164,106,180)"/>
<path d="M45 37h1v1h-1v-1z" fill="rgb(98,49,123)"/>
<path d="M46 37h2v1h-2v-1z" fill="rgb(16,16,16)"/>
<path d="M48 37h1v1h1v1h-1v2h-3v-1h-1v-1h1v-1h2v-1z" fill="transparent"/>
<path d="M49 37h1v1h-1v-1z" fill="rgb(16,16,16)"/>
<path d="M53 37h1v1h-1v-1z" fill="rgb(98,49,123)"/>
<path d="M72 37h1v1h-1v-1z" fill="rgb(16,16,16)"/>
<path d="M41 38h1v2h-1v-2z" fill="rgb(16,16,16)"/>
<path d="M45 38h1v1h-1v-1z" fill="rgb(16,16,16)"/>
<path d="M50 38h1v1h-1v-1z" fill="rgb(98,49,123)"/>
<path d="M51 38h2v1h-2v-1z" fill="rgb(16,16,16)"/>
<path d="M73 38h1v2h-1v-2z" fill="rgb(16,16,16)"/>
<path d="M44 39h1v1h1v1h-2v-2z" fill="rgb(16,16,16)"/>
<path d="M49 39h1v4h-1v-1h-3v-1h3v-2z" fill="rgb(98,49,123)"/>
<path d="M50 39h2v1h-1v2h-1v-3z" fill="rgb(164,106,180)"/>
<path d="M52 39h1v1h-1v-1z" fill="rgb(98,49,123)"/>
<path d="M38 40h6v1h-6v-1z" fill="rgb(98,49,123)"/>
<path d="M51 40h1v2h-1v-2z" fill="rgb(139,82,172)"/>
<path d="M54 40h1v1h-1v-1z" fill="rgb(139,82,172)"/>
<path d="M55 40h2v1h-2v-1z" fill="rgb(98,49,123)"/>
<path d="M74 40h1v2h-1v-2z" fill="rgb(16,16,16)"/>
<path d="M35 41h1v1h-1v-1z" fill="rgb(139,82,172)"/>
<path d="M36 41h2v1h-2v-1z" fill="rgb(98,49,123)"/>
<path d="M38 41h8v1h3v1h1v2h-2v-1h-4v1h-1v2h-1v2h1v-2h1v-2h4v1h1v2h-1v3h1v1h1v1h-2v1h2v1
	h1v2h-4v1h-2v-1h-4v-1h-3v1h-1v2h1v1h1v1h2v1h2v1h3v1h-3v1h-4v1h-5v-1h-2v-1h1v-1
	h1v-4h-1v-1h-1v1h-1v1h-3v1h-2v2h-1v-1h-1v-3h2v-1h2v-2h-2v-2h1v-2h1v-2h-2v-2h2
	v1h1v5h1v1h2v1h3v-1h2v-1h1v-1h1v-1h1v-2h1v-4h-1v-1h-1v-1h-6v-1h2v-1h3v-1z" fill="rgb(189,139,205)"/>
<path d="M53 41h1v1h-1v-1z" fill="rgb(139,82,172)"/>
<path d="M73 41h1v1h-1v-1z" fill="rgb(139,82,172)"/>
<path d="M75 41h1v1h-1v-1z" fill="rgb(98,49,123)"/>
<path d="M33 42h2v1h-2v-1z" fill="rgb(139,82,172)"/>
<path d="M50 42h1v2h-1v-2z" fill="rgb(139,82,172)"/>
<path d="M52 42h1v2h-1v-2z" fill="rgb(139,82,172)"/>
<path d="M64 42h1v1h-1v-1z" fill="rgb(189,139,205)"/>
<path d="M68 42h1v1h-1v-1z" fill="rgb(164,106,180)"/>
<path d="M72 42h1v1h-1v-1z" fill="rgb(139,82,172)"/>
<path d="M73 42h2v2h-1v-1h-1v-1z" fill="rgb(98,49,123)"/>
<path d="M75 42h1v3h1v1h-1v4h-1v-8z" fill="rgb(16,16,16)"/>
<path d="M76 42h1v1h-1v-1z" fill="rgb(98,49,123)"/>
<path d="M32 43h1v1h-1v-1z" fill="rgb(139,82,172)"/>
<path d="M56 43h1v2h-1v1h-2v-2h2v-1z" fill="rgb(189,139,205)"/>
<path d="M65 43h1v1h-1v-1z" fill="rgb(164,106,180)"/>
<path d="M69 43h1v1h-1v-1z" fill="rgb(139,82,172)"/>
<path d="M70 43h1v1h-1v-1z" fill="rgb(98,49,123)"/>
<path d="M71 43h1v2h-1v-2z" fill="rgb(16,16,16)"/>
<path d="M72 43h2v1h-2v-1z" fill="rgb(222,222,222)"/>
<path d="M76 43h1v2h-1v-2z" fill="rgb(164,106,180)"/>
<path d="M77 43h1v2h-1v-2z" fill="rgb(16,16,16)"/>
<path d="M15 44h2v1h-2v-1z" fill="rgb(238,213,106)"/>
<path d="M31 44h1v1h-1v-1z" fill="rgb(139,82,172)"/>
<path d="M32 44h1v1h-1v-1z" fill="rgb(189,139,205)"/>
<path d="M33 44h6v1h1v1h1v4h-1v2h-1v1h-1v1h-1v1h-2v1h-3v-1h-2v-1h-1v-5h1v-2h1v-1h1v-1h1
	v-1z" fill="rgb(213,164,222)"/>
<path d="M44 44h4v1h-4v-1z" fill="rgb(139,82,172)"/>
<path d="M50 44h1v4h-1v-4z" fill="rgb(98,49,123)"/>
<path d="M53 44h1v1h-1v-1z" fill="rgb(139,82,172)"/>
<path d="M64 44h1v1h-1v-1z" fill="rgb(164,106,180)"/>
<path d="M65 44h1v1h-1v-1z" fill="rgb(139,82,172)"/>
<path d="M69 44h1v1h-1v-1z" fill="rgb(164,106,180)"/>
<path d="M70 44h1v1h-1v-1z" fill="rgb(255,255,255)"/>
<path d="M72 44h2v1h-1v1h-2v-1h1v-1z" fill="rgb(255,255,255)"/>
<path d="M74 44h1v1h-1v-1z" fill="rgb(139,82,172)"/>
<path d="M14 45h1v1h-1v-1z" fill="rgb(238,213,106)"/>
<path d="M15 45h2v1h1v1h1v2h-1v1h1v2h-2v-1h-1v1h-2v-1h-1v-4h1v-1h1v-1z" fill="rgb(246,238,148)"/>
<path d="M17 45h1v1h-1v-1z" fill="rgb(238,213,106)"/>
<path d="M18 45h1v1h-1v-1z" fill="rgb(197,180,41)"/>
<path d="M20 45h2v1h-2v-1z" fill="rgb(197,180,41)"/>
<path d="M30 45h1v2h-4v-1h3v-1z" fill="rgb(98,49,123)"/>
<path d="M31 45h1v1h-1v-1z" fill="rgb(189,139,205)"/>
<path d="M43 45h1v1h-1v-1z" fill="rgb(139,82,172)"/>
<path d="M48 45h1v1h-1v-1z" fill="rgb(139,82,172)"/>
<path d="M49 45h1v1h-1v-1z" fill="rgb(16,16,16)"/>
<path d="M53 45h1v1h-1v-1z" fill="rgb(98,49,123)"/>
<path d="M64 45h2v2h-1v-1h-1v-1z" fill="rgb(98,49,123)"/>
<path d="M68 45h2v1h1v1h1v1h-4v1h-1v1h-2v1h-1v1h-1v1h-2v1h-1v1h-3v2h-1v1h-1v-1h-1v-2h1
	v-2h-1v1h-1v-2h-1v-2h-1v-3h1v2h1v1h1v1h2v1h5v-1h2v-1h1v-1h2v-1h1v-1h1v-2z" fill="rgb(189,139,205)"/>
<path d="M70 45h1v1h-1v-1z" fill="rgb(164,106,180)"/>
<path d="M73 45h1v1h-1v-1z" fill="rgb(139,82,172)"/>
<path d="M74 45h1v3h-3v-1h-1v-1h3v-1z" fill="rgb(164,106,180)"/>
<path d="M13 46h1v1h-1v-1z" fill="rgb(238,213,106)"/>
<path d="M18 46h1v1h-1v-1z" fill="rgb(238,213,106)"/>
<path d="M19 46h1v1h-1v-1z" fill="rgb(197,180,41)"/>
<path d="M20 46h2v1h-2v-1z" fill="rgb(238,213,106)"/>
<path d="M22 46h1v1h-1v-1z" fill="rgb(197,180,41)"/>
<path d="M43 46h1v1h-1v-1z" fill="rgb(16,16,16)"/>
<path d="M49 46h1v4h1v2h1v2h1v3h1v1h1v1h2v1h-3v2h2v1h1v1h-1v1h-2v-1h-1v1h1v1h1v3h-1v2h-1
	v1h-2v1h-1v1h-3v-1h-1v-1h-7v-1h4v-1h6v-1h2v-1h1v-5h-1v-1h1v-2h-1v-1h-1v-1h-3
	v-1h4v1h1v-3h-1v-2h-1v-1h-1v-1h-1v-3h1v-2z" fill="rgb(164,106,180)"/>
<path d="M61 46h1v1h-1v-1z" fill="rgb(139,82,172)"/>
<path d="M62 46h1v1h-1v-1z" fill="rgb(98,49,123)"/>
<path d="M63 46h1v2h-1v-2z" fill="rgb(16,16,16)"/>
<path d="M64 46h1v2h-1v-2z" fill="rgb(222,222,222)"/>
<path d="M80 46h1v1h-1v-1z" fill="rgb(197,180,41)"/>
<path d="M81 46h3v1h-3v-1z" fill="rgb(238,213,106)"/>
<path d="M85 46h2v1h-2v-1z" fill="rgb(197,180,41)"/>
<path d="M12 47h1v4h-1v-4z" fill="rgb(238,213,106)"/>
<path d="M19 47h1v2h2v-2h1v1h2v1h-2v1h-1v1h-1v2h-1v1h-4v-1h-1v-1h1v-1h1v1h2v-2h-1v-1h1
	v-2z" fill="rgb(238,213,106)"/>
<path d="M20 47h2v2h-2v-2z" fill="rgb(246,238,148)"/>
<path d="M23 47h1v1h-1v-1z" fill="rgb(197,180,41)"/>
<path d="M26 47h1v1h-1v-1z" fill="rgb(139,82,172)"/>
<path d="M27 47h2v2h-1v-1h-1v-1z" fill="rgb(164,106,180)"/>
<path d="M29 47h1v2h-1v-2z" fill="rgb(139,82,172)"/>
<path d="M42 47h1v2h-1v-2z" fill="rgb(16,16,16)"/>
<path d="M57 47h1v2h-1v-2z" fill="rgb(139,82,172)"/>
<path d="M59 47h2v1h-2v-1z" fill="rgb(98,49,123)"/>
<path d="M61 47h2v1h-2v-1z" fill="rgb(222,222,222)"/>
<path d="M65 47h1v1h-1v-1z" fill="rgb(164,106,180)"/>
<path d="M78 47h1v1h1v-1h1v2h-1v1h-1v-1h-1v-2z" fill="rgb(238,213,106)"/>
<path d="M79 47h1v1h-1v-1z" fill="rgb(197,180,41)"/>
<path d="M81 47h3v2h1v-1h3v1h1v2h-1v1h-2v-1h-1v1h-1v1h-4v-1h-1v-2h1v-1h1v-2z" fill="rgb(246,238,148)"/>
<path d="M84 47h1v1h-1v-1z" fill="rgb(197,180,41)"/>
<path d="M85 47h3v1h-3v-1z" fill="rgb(238,213,106)"/>
<path d="M25 48h1v3h-1v-3z" fill="rgb(139,82,172)"/>
<path d="M50 48h1v2h-1v-2z" fill="rgb(16,16,16)"/>
<path d="M58 48h1v1h-1v-1z" fill="rgb(98,49,123)"/>
<path d="M59 48h2v1h-2v-1z" fill="rgb(222,222,222)"/>
<path d="M61 48h3v1h-1v1h-3v-1h1v-1z" fill="rgb(255,255,255)"/>
<path d="M64 48h1v1h-1v-1z" fill="rgb(164,106,180)"/>
<path d="M65 48h1v1h-1v-1z" fill="rgb(213,164,222)"/>
<path d="M68 48h1v1h-1v-1z" fill="rgb(139,82,172)"/>
<path d="M69 48h6v1h-6v-1z" fill="rgb(98,49,123)"/>
<path d="M77 48h1v1h-1v-1z" fill="rgb(197,180,41)"/>
<path d="M84 48h1v1h-1v-1z" fill="rgb(238,213,106)"/>
<path d="M88 48h1v1h-1v-1z" fill="rgb(238,213,106)"/>
<path d="M23 49h2v1h-2v-1z" fill="rgb(197,180,41)"/>
<path d="M58 49h1v1h-1v-1z" fill="rgb(164,106,180)"/>
<path d="M59 49h1v1h-1v-1z" fill="rgb(98,49,123)"/>
<path d="M63 49h1v1h-1v-1z" fill="rgb(164,106,180)"/>
<path d="M67 49h1v1h-1v-1z" fill="rgb(98,49,123)"/>
<path d="M68 49h4v1h1v1h1v1h-2v-1h-3v1h-1v1h-1v2h1v1h1v1h-2v1h-8v-1h1v-1h-1v1h-2v-2h3v-1
	h1v1h1v1h1v-1h1v-3h1v-1h2v-1h1v-1z" fill="rgb(164,106,180)"/>
<path d="M72 49h1v1h-1v-1z" fill="rgb(139,82,172)"/>
<path d="M73 49h1v1h-1v-1z" fill="rgb(255,255,255)"/>
<path d="M74 49h1v1h-1v-1z" fill="rgb(164,106,180)"/>
<path d="M78 49h1v1h-1v-1z" fill="rgb(197,180,41)"/>
<path d="M89 49h1v2h-1v-2z" fill="rgb(238,213,106)"/>
<path d="M22 50h1v1h-1v-1z" fill="rgb(197,180,41)"/>
<path d="M26 50h1v1h-1v-1z" fill="rgb(164,106,180)"/>
<path d="M27 50h1v2h-1v-2z" fill="rgb(139,82,172)"/>
<path d="M51 50h1v1h-1v-1z" fill="rgb(98,49,123)"/>
<path d="M60 50h1v1h-1v-1z" fill="rgb(98,49,123)"/>
<path d="M61 50h1v1h-1v-1z" fill="rgb(139,82,172)"/>
<path d="M62 50h1v1h-1v-1z" fill="rgb(164,106,180)"/>
<path d="M65 50h2v1h-2v-1z" fill="rgb(98,49,123)"/>
<path d="M73 50h1v1h-1v-1z" fill="rgb(139,82,172)"/>
<path d="M74 50h1v1h-1v-1z" fill="rgb(98,49,123)"/>
<path d="M77 50h1v3h-1v-3z" fill="rgb(197,180,41)"/>
<path d="M78 50h1v2h1v1h4v-1h1v-1h1v1h2v-1h1v2h-1v1h-2v1h-1v1h-4v-1h-1v-1h-1v-1h-1v-3z" fill="rgb(238,213,106)"/>
<path d="M13 51h1v1h-1v-1z" fill="rgb(238,213,106)"/>
<path d="M21 51h1v2h-1v-2z" fill="rgb(197,180,41)"/>
<path d="M26 51h1v1h-1v-1z" fill="rgb(98,49,123)"/>
<path d="M51 51h1v1h-1v-1z" fill="rgb(16,16,16)"/>
<path d="M64 51h1v1h-1v-1z" fill="rgb(98,49,123)"/>
<path d="M69 51h3v1h-3v-1z" fill="rgb(213,205,106)"/>
<path d="M74 51h1v1h-1v-1z" fill="rgb(16,16,16)"/>
<path d="M89 51h1v2h-1v-2z" fill="rgb(197,180,41)"/>
<path d="M14 52h1v1h-1v-1z" fill="rgb(197,180,41)"/>
<path d="M26 52h1v2h-1v-2z" fill="rgb(16,16,16)"/>
<path d="M52 52h1v2h-1v-2z" fill="rgb(16,16,16)"/>
<path d="M63 52h1v1h-1v-1z" fill="rgb(98,49,123)"/>
<path d="M68 52h1v1h-1v-1z" fill="rgb(213,205,106)"/>
<path d="M69 52h3v2h-1v-1h-2v-1z" fill="rgb(189,139,205)"/>
<path d="M72 52h1v2h-1v-2z" fill="rgb(213,205,106)"/>
<path d="M73 52h1v1h-1v-1z" fill="rgb(98,49,123)"/>
<path d="M15 53h1v1h-1v-1z" fill="rgb(197,180,41)"/>
<path d="M20 53h1v1h-1v-1z" fill="rgb(197,180,41)"/>
<path d="M48 53h1v1h-1v-1z" fill="rgb(164,106,180)"/>
<path d="M49 53h2v2h-1v-1h-1v-1z" fill="rgb(139,82,172)"/>
<path d="M54 53h1v2h-1v2h-1v-3h1v-1z" fill="rgb(16,16,16)"/>
<path d="M61 53h2v1h-2v-1z" fill="rgb(98,49,123)"/>
<path d="M63 53h1v2h-2v-1h1v-1z" fill="rgb(255,255,255)"/>
<path d="M67 53h1v2h-1v-2z" fill="rgb(213,205,106)"/>
<path d="M68 53h1v2h-1v-2z" fill="rgb(189,139,205)"/>
<path d="M69 53h2v1h-1v1h-1v-2z" fill="rgb(164,106,180)"/>
<path d="M73 53h1v1h-1v-1z" fill="rgb(16,16,16)"/>
<path d="M78 53h1v1h-1v-1z" fill="rgb(197,180,41)"/>
<path d="M88 53h1v1h-1v-1z" fill="rgb(197,180,41)"/>
<path d="M16 54h4v1h-4v-1z" fill="rgb(197,180,41)"/>
<path d="M25 54h1v4h-1v1h-1v1h-1v-2h1v-1h1v-3z" fill="rgb(139,82,172)"/>
<path d="M61 54h1v1h-1v-1z" fill="rgb(139,82,172)"/>
<path d="M70 54h1v1h-1v-1z" fill="rgb(189,139,205)"/>
<path d="M71 54h1v1h-1v-1z" fill="rgb(213,205,106)"/>
<path d="M72 54h1v1h-1v-1z" fill="rgb(16,16,16)"/>
<path d="M79 54h1v1h-1v-1z" fill="rgb(197,180,41)"/>
<path d="M86 54h2v1h-2v-1z" fill="rgb(197,180,41)"/>
<path d="M51 55h1v1h-1v-1z" fill="rgb(139,82,172)"/>
<path d="M62 55h1v1h-1v-1z" fill="rgb(139,82,172)"/>
<path d="M68 55h3v1h-3v-1z" fill="rgb(213,205,106)"/>
<path d="M71 55h1v1h-1v-1z" fill="rgb(16,16,16)"/>
<path d="M80 55h1v1h-1v-1z" fill="rgb(197,180,41)"/>
<path d="M85 55h1v1h-1v-1z" fill="rgb(197,180,41)"/>
<path d="M26 56h2v2h-2v-2z" fill="rgb(164,106,180)"/>
<path d="M38 56h1v1h-1v-1z" fill="rgb(164,106,180)"/>
<path d="M39 56h2v1h4v1h-2v1h-4v-1h-1v-1h1v-1z" fill="rgb(213,164,222)"/>
<path d="M51 56h1v2h-1v-2z" fill="rgb(98,49,123)"/>
<path d="M59 56h1v1h-1v-1z" fill="rgb(98,49,123)"/>
<path d="M69 56h2v1h-2v-1z" fill="rgb(16,16,16)"/>
<path d="M81 56h4v1h-4v-1z" fill="rgb(197,180,41)"/>
<path d="M37 57h1v1h-1v-1z" fill="rgb(164,106,180)"/>
<path d="M54 57h1v1h-1v-1z" fill="rgb(16,16,16)"/>
<path d="M56 57h1v1h-1v-1z" fill="rgb(164,106,180)"/>
<path d="M57 57h1v1h-1v-1z" fill="rgb(98,49,123)"/>
<path d="M58 57h1v1h-1v-1z" fill="rgb(16,16,16)"/>
<path d="M67 57h2v1h-2v-1z" fill="rgb(16,16,16)"/>
<path d="M25 58h1v1h-1v-1z" fill="rgb(164,106,180)"/>
<path d="M32 58h1v1h-1v-1z" fill="rgb(139,82,172)"/>
<path d="M37 58h1v1h-1v-1z" fill="rgb(139,82,172)"/>
<path d="M38 58h1v1h-1v-1z" fill="rgb(189,139,205)"/>
<path d="M43 58h2v1h-2v-1z" fill="rgb(164,106,180)"/>
<path d="M45 58h1v1h-1v-1z" fill="rgb(139,82,172)"/>
<path d="M46 58h4v1h-1v2h-1v-2h-2v-1z" fill="rgb(98,49,123)"/>
<path d="M55 58h3v1h-3v-1z" fill="rgb(16,16,16)"/>
<path d="M58 58h1v1h2v3h-1v2h-1v1h2v3h-1v2h-3v-1h-1v2h-1v1h-2v-1h1v-2h1v-3h1v-1h1v-1h1
	v-3h-1v-2h1v-1z" fill="rgb(139,82,172)"/>
<path d="M59 58h8v1h-5v1h-1v-1h-2v-1z" fill="rgb(16,16,16)"/>
<path d="M75 58h4v1h-4v-1z" fill="rgb(238,213,106)"/>
<path d="M79 58h2v1h-2v-1z" fill="rgb(197,180,41)"/>
<path d="M31 59h2v2h-3v1h-4v-1h2v-1h3v-1z" fill="rgb(213,164,222)"/>
<path d="M33 59h1v2h-1v-2z" fill="rgb(139,82,172)"/>
<path d="M38 59h3v1h-1v1h-1v-1h-1v-1z" fill="rgb(164,106,180)"/>
<path d="M41 59h2v1h-2v-1z" fill="rgb(98,49,123)"/>
<path d="M43 59h1v2h-1v-2z" fill="rgb(16,16,16)"/>
<path d="M44 59h1v1h-1v-1z" fill="rgb(139,82,172)"/>
<path d="M45 59h3v2h-1v1h-1v-2h-1v-1z" fill="rgb(222,222,222)"/>
<path d="M49 59h1v1h-1v-1z" fill="rgb(164,106,180)"/>
<path d="M50 59h1v1h1v2h-1v1h-1v1h-2v-1h-1v-1h1v-1h1v-1h1v-1z" fill="rgb(189,139,205)"/>
<path d="M74 59h1v1h-1v-1z" fill="rgb(238,213,106)"/>
<path d="M75 59h4v1h1v3h-1v1h-4v1h2v1h1v2h1v2h-1v1h-1v-1h-1v-1h-1v-1h-1v-1h-1v1h-1v1h-3
	v-1h-1v-1h-1v-3h1v-1h1v-1h2v1h2v-2h1v-1h1v-1z" fill="rgb(246,238,148)"/>
<path d="M79 59h2v1h1v1h1v4h-1v1h-1v1h-2v1h-1v-2h-1v-1h-2v-1h4v-1h1v-3h-1v-1z" fill="rgb(238,213,106)"/>
<path d="M81 59h1v1h-1v-1z" fill="rgb(197,180,41)"/>
<path d="M23 60h1v2h-1v-2z" fill="rgb(98,49,123)"/>
<path d="M40 60h1v1h-1v-1z" fill="rgb(98,49,123)"/>
<path d="M41 60h2v1h1v-1h2v2h-4v-1h-1v-1z" fill="rgb(255,255,255)"/>
<path d="M54 60h2v1h1v2h-1v-1h-2v-2z" fill="rgb(139,82,172)"/>
<path d="M56 60h1v1h-1v-1z" fill="rgb(98,49,123)"/>
<path d="M61 60h1v2h-1v-2z" fill="rgb(98,49,123)"/>
<path d="M73 60h1v1h-1v-1z" fill="rgb(238,213,106)"/>
<path d="M82 60h1v1h-1v-1z" fill="rgb(197,180,41)"/>
<path d="M30 61h1v1h-1v-1z" fill="rgb(98,49,123)"/>
<path d="M31 61h1v2h-1v-2z" fill="rgb(16,16,16)"/>
<path d="M32 61h1v1h-1v-1z" fill="rgb(98,49,123)"/>
<path d="M33 61h1v2h-1v-2z" fill="rgb(164,106,180)"/>
<path d="M41 61h1v1h-1v-1z" fill="rgb(164,106,180)"/>
<path d="M47 61h1v1h-1v-1z" fill="rgb(139,82,172)"/>
<path d="M57 61h1v1h-1v-1z" fill="rgb(98,49,123)"/>
<path d="M68 61h4v1h-4v-1z" fill="rgb(197,180,41)"/>
<path d="M83 61h1v4h-1v-4z" fill="rgb(197,180,41)"/>
<path d="M24 62h1v1h-1v-1z" fill="rgb(98,49,123)"/>
<path d="M26 62h2v2h-1v-1h-1v-1z" fill="rgb(98,49,123)"/>
<path d="M28 62h2v1h-2v-1z" fill="rgb(139,82,172)"/>
<path d="M30 62h1v1h-1v-1z" fill="rgb(222,222,222)"/>
<path d="M32 62h1v1h-1v-1z" fill="rgb(222,222,222)"/>
<path d="M43 62h4v1h-4v-1z" fill="rgb(164,106,180)"/>
<path d="M57 62h1v2h-1v-2z" fill="rgb(16,16,16)"/>
<path d="M60 62h1v1h-1v-1z" fill="rgb(98,49,123)"/>
<path d="M67 62h1v1h-1v-1z" fill="rgb(197,180,41)"/>
<path d="M68 62h1v1h-1v-1z" fill="rgb(238,213,106)"/>
<path d="M71 62h1v1h-1v-1z" fill="rgb(238,213,106)"/>
<path d="M72 62h1v1h-1v-1z" fill="rgb(197,180,41)"/>
<path d="M24 63h1v1h-1v-1z" fill="rgb(16,16,16)"/>
<path d="M25 63h1v1h-1v-1z" fill="rgb(164,106,180)"/>
<path d="M26 63h1v1h-1v-1z" fill="rgb(139,82,172)"/>
<path d="M28 63h4v1h-4v-1z" fill="rgb(255,255,255)"/>
<path d="M32 63h1v1h-1v-1z" fill="rgb(164,106,180)"/>
<path d="M46 63h2v1h-1v1h-1v-2z" fill="rgb(16,16,16)"/>
<path d="M50 63h1v1h-1v-1z" fill="rgb(164,106,180)"/>
<path d="M51 63h1v1h-1v-1z" fill="rgb(139,82,172)"/>
<path d="M60 63h1v2h-2v-1h1v-1z" fill="rgb(16,16,16)"/>
<path d="M66 63h1v3h-1v-3z" fill="rgb(197,180,41)"/>
<path d="M67 63h1v1h-1v-1z" fill="rgb(238,213,106)"/>
<path d="M73 63h1v1h-1v-1z" fill="rgb(238,213,106)"/>
<path d="M25 64h2v2h-1v-1h-1v-1z" fill="rgb(16,16,16)"/>
<path d="M27 64h1v1h-1v-1z" fill="rgb(164,106,180)"/>
<path d="M28 64h1v1h-1v-1z" fill="rgb(98,49,123)"/>
<path d="M29 64h1v1h-1v-1z" fill="rgb(139,82,172)"/>
<path d="M30 64h2v1h-2v-1z" fill="rgb(164,106,180)"/>
<path d="M43 64h3v1h-3v-1z" fill="rgb(98,49,123)"/>
<path d="M47 64h1v1h1v2h-2v-3z" fill="rgb(255,255,255)"/>
<path d="M48 64h2v1h-2v-1z" fill="rgb(16,16,16)"/>
<path d="M50 64h1v1h-1v-1z" fill="rgb(139,82,172)"/>
<path d="M51 64h1v2h-1v-2z" fill="rgb(98,49,123)"/>
<path d="M53 64h1v1h-1v-1z" fill="rgb(98,49,123)"/>
<path d="M56 64h1v1h-1v-1z" fill="rgb(16,16,16)"/>
<path d="M27 65h3v5h-1v-2h-1v-2h-1v-1z" fill="rgb(189,139,205)"/>
<path d="M30 65h2v1h-1v1h-1v-2z" fill="rgb(16,16,16)"/>
<path d="M32 65h2v1h-2v-1z" fill="rgb(98,49,123)"/>
<path d="M39 65h1v1h-1v-1z" fill="rgb(164,106,180)"/>
<path d="M40 65h3v1h-3v-1z" fill="rgb(98,49,123)"/>
<path d="M43 65h3v1h-3v-1z" fill="rgb(222,222,222)"/>
<path d="M46 65h1v4h-1v-4z" fill="rgb(164,32,0)"/>
<path d="M49 65h1v1h-1v-1z" fill="rgb(98,49,123)"/>
<path d="M50 65h1v1h-1v-1z" fill="rgb(16,16,16)"/>
<path d="M54 65h2v1h-2v-1z" fill="rgb(98,49,123)"/>
<path d="M61 65h1v2h-1v-2z" fill="rgb(16,16,16)"/>
<path d="M82 65h1v1h-1v-1z" fill="rgb(197,180,41)"/>
<path d="M27 66h1v2h-1v-2z" fill="rgb(16,16,16)"/>
<path d="M31 66h1v1h-1v-1z" fill="rgb(222,222,222)"/>
<path d="M32 66h1v2h-1v-2z" fill="rgb(16,16,16)"/>
<path d="M33 66h1v1h2v1h-3v-2z" fill="rgb(222,222,222)"/>
<path d="M34 66h5v1h-5v-1z" fill="rgb(98,49,123)"/>
<path d="M39 66h4v1h-1v1h-1v1h-5v1h-2v-2h2v-1h3v-1z" fill="rgb(164,32,0)"/>
<path d="M43 66h3v1h-3v-1z" fill="rgb(255,255,255)"/>
<path d="M49 66h1v2h-1v1h-2v-2h2v-1z" fill="rgb(222,222,222)"/>
<path d="M50 66h1v2h-1v-2z" fill="rgb(164,32,0)"/>
<path d="M51 66h1v2h-1v-2z" fill="rgb(16,16,16)"/>
<path d="M65 66h1v1h-1v-1z" fill="rgb(197,180,41)"/>
<path d="M66 66h1v1h1v1h1v1h3v-1h1v-1h1v1h1v1h1v1h1v1h-1v1h1v1h1v1h-2v1h-4v-1h-2v-1h-1
	v-2h-1v-1h-1v-1h-4v-1h2v-1h1v-1z" fill="rgb(238,213,106)"/>
<path d="M81 66h1v1h-1v-1z" fill="rgb(197,180,41)"/>
<path d="M30 67h1v1h-1v-1z" fill="rgb(98,49,123)"/>
<path d="M31 67h1v1h1v1h-1v1h-1v-3z" fill="rgb(255,255,255)"/>
<path d="M42 67h4v1h-4v-1z" fill="rgb(222,98,32)"/>
<path d="M61 67h1v1h-1v-1z" fill="rgb(98,49,123)"/>
<path d="M63 67h2v1h-2v-1z" fill="rgb(197,180,41)"/>
<path d="M79 67h2v1h-1v1h-1v-2z" fill="rgb(197,180,41)"/>
<path d="M27 68h1v1h-1v-1z" fill="rgb(98,49,123)"/>
<path d="M28 68h1v1h-1v-1z" fill="rgb(164,106,180)"/>
<path d="M30 68h1v2h-1v-2z" fill="rgb(16,16,16)"/>
<path d="M33 68h1v1h-1v-1z" fill="rgb(98,49,123)"/>
<path d="M41 68h5v1h-5v-1z" fill="rgb(98,49,123)"/>
<path d="M49 68h1v1h-1v-1z" fill="rgb(98,49,123)"/>
<path d="M50 68h1v1h-1v-1z" fill="rgb(16,16,16)"/>
<path d="M57 68h1v1h-1v-1z" fill="rgb(16,16,16)"/>
<path d="M60 68h1v1h-1v-1z" fill="rgb(98,49,123)"/>
<path d="M28 69h1v1h-1v-1z" fill="rgb(98,49,123)"/>
<path d="M32 69h1v1h-1v-1z" fill="rgb(222,222,222)"/>
<path d="M33 69h1v1h1v1h-4v-1h2v-1z" fill="rgb(16,16,16)"/>
<path d="M36 69h4v1h-4v-1z" fill="rgb(98,49,123)"/>
<path d="M40 69h1v1h-1v-1z" fill="rgb(164,106,180)"/>
<path d="M41 69h5v1h-3v1h-4v1h-6v-1h3v-1h5v-1z" fill="rgb(189,139,205)"/>
<path d="M46 69h1v1h-1v-1z" fill="rgb(98,49,123)"/>
<path d="M47 69h2v1h-2v-1z" fill="rgb(16,16,16)"/>
<path d="M56 69h1v1h3v1h-4v-2z" fill="rgb(16,16,16)"/>
<path d="M60 69h1v1h-1v-1z" fill="rgb(16,16,16)"/>
<path d="M64 69h3v1h-3v-1z" fill="rgb(197,180,41)"/>
<path d="M79 69h1v3h-1v-1h-1v-1h1v-1z" fill="rgb(238,213,106)"/>
<path d="M80 69h1v3h-1v-3z" fill="rgb(197,180,41)"/>
<path d="M29 70h1v1h-1v-1z" fill="rgb(16,16,16)"/>
<path d="M30 70h1v1h-1v-1z" fill="rgb(164,106,180)"/>
<path d="M35 70h1v1h-1v-1z" fill="rgb(98,49,123)"/>
<path d="M67 70h1v1h-1v-1z" fill="rgb(197,180,41)"/>
<path d="M30 71h1v1h-1v-1z" fill="rgb(16,16,16)"/>
<path d="M31 71h2v1h6v1h-1v1h-2v-1h-2v1h-1v-1h-2v-2z" fill="rgb(164,106,180)"/>
<path d="M55 71h1v1h-1v-1z" fill="rgb(16,16,16)"/>
<path d="M68 71h1v2h-1v-2z" fill="rgb(197,180,41)"/>
<path d="M76 71h1v1h-1v-1z" fill="rgb(246,238,148)"/>
<path d="M77 71h1v1h-1v-1z" fill="rgb(238,213,106)"/>
<path d="M78 71h1v1h-1v-1z" fill="rgb(246,238,148)"/>
<path d="M30 72h1v2h-1v-2z" fill="rgb(98,49,123)"/>
<path d="M39 72h1v1h-1v-1z" fill="rgb(189,139,205)"/>
<path d="M40 72h5v1h-5v-1z" fill="rgb(213,205,106)"/>
<path d="M45 72h1v1h-1v-1z" fill="rgb(189,139,205)"/>
<path d="M51 72h2v1h-2v-1z" fill="rgb(139,82,172)"/>
<path d="M53 72h2v1h-2v-1z" fill="rgb(16,16,16)"/>
<path d="M77 72h1v1h-1v-1z" fill="rgb(246,238,148)"/>
<path d="M78 72h1v1h-1v-1z" fill="rgb(238,213,106)"/>
<path d="M79 72h1v1h-1v-1z" fill="rgb(197,180,41)"/>
<path d="M31 73h2v1h1v1h-2v-1h-1v-1z" fill="rgb(189,139,205)"/>
<path d="M34 73h2v1h-2v-1z" fill="rgb(98,49,123)"/>
<path d="M38 73h1v1h-1v-1z" fill="rgb(189,139,205)"/>
<path d="M39 73h1v1h1v1h-2v-2z" fill="rgb(213,205,106)"/>
<path d="M40 73h1v1h-1v-1z" fill="rgb(172,156,16)"/>
<path d="M41 73h3v1h-1v1h-1v-1h-1v-1z" fill="rgb(164,106,180)"/>
<path d="M44 73h1v1h-1v-1z" fill="rgb(172,156,16)"/>
<path d="M45 73h1v2h-2v-1h1v-1z" fill="rgb(213,205,106)"/>
<path d="M46 73h1v1h-1v-1z" fill="rgb(189,139,205)"/>
<path d="M50 73h3v1h-2v2h-1v-3z" fill="rgb(16,16,16)"/>
<path d="M69 73h1v1h-1v-1z" fill="rgb(197,180,41)"/>
<path d="M78 73h1v1h-1v-1z" fill="rgb(197,180,41)"/>
<path d="M31 74h1v1h-1v-1z" fill="rgb(98,49,123)"/>
<path d="M34 74h1v1h-1v-1z" fill="rgb(164,106,180)"/>
<path d="M35 74h3v1h-3v-1z" fill="rgb(16,16,16)"/>
<path d="M38 74h1v1h-1v-1z" fill="rgb(98,49,123)"/>
<path d="M41 74h1v1h-1v-1z" fill="rgb(189,139,205)"/>
<path d="M43 74h1v1h-1v-1z" fill="rgb(189,139,205)"/>
<path d="M46 74h1v1h-1v-1z" fill="rgb(164,106,180)"/>
<path d="M47 74h1v1h2v1h-2v1h-4v-1h2v-1h1v-1z" fill="rgb(139,82,172)"/>
<path d="M48 74h2v1h-2v-1z" fill="rgb(98,49,123)"/>
<path d="M70 74h2v1h-2v-1z" fill="rgb(197,180,41)"/>
<path d="M76 74h2v1h-2v-1z" fill="rgb(197,180,41)"/>
<path d="M32 75h3v1h-3v-1z" fill="rgb(16,16,16)"/>
<path d="M39 75h6v1h-1v1h-2v-1h-3v-1z" fill="rgb(16,16,16)"/>
<path d="M45 75h1v1h-1v-1z" fill="rgb(98,49,123)"/>
<path d="M72 75h4v1h-4v-1z" fill="rgb(197,180,41)"/>
<path d="M48 76h2v1h-2v-1z" fill="rgb(16,16,16)"/>
<path d="M44 77h4v1h-4v-1z" fill="rgb(16,16,16)"/>
</svg>
