<?xml version="1.0" encoding="utf-8"?>
<!-- generated at drububu.com  -->
<!DOCTYPE svg PUBLIC "-//W3C//DTD SVG 1.1//EN" "http://www.w3.org/Graphics/SVG/1.1/DTD/svg11.dtd">
<svg version="1.1" preserveAspectRatio="xMinYMin meet" xmlns="http://www.w3.org/2000/svg" xmlns:xlink="http://www.w3.org/1999/xlink" x="0px" y="0px" width="96px" height="96px" viewBox="0 0 96 96">
<path d="M0 0h96v96h-96v-96z" fill="transparent"/>
<path d="M50 21h1v1h-1v-1z" fill="rgb(90,90,123)"/>
<path d="M51 21h3v1h-3v-1z" fill="rgb(16,16,16)"/>
<path d="M49 22h1v4h-1v-4z" fill="rgb(90,90,123)"/>
<path d="M50 22h2v1h-1v2h-1v-3z" fill="rgb(189,189,205)"/>
<path d="M52 22h1v1h-1v-1z" fill="rgb(90,90,123)"/>
<path d="M53 22h1v1h2v1h1v4h-3v-1h-2v-4h1v-1z" fill="rgb(189,189,205)"/>
<path d="M54 22h2v1h-2v-1z" fill="rgb(16,16,16)"/>
<path d="M51 23h1v4h-1v-4z" fill="rgb(90,90,123)"/>
<path d="M56 23h1v1h-1v-1z" fill="rgb(16,16,16)"/>
<path d="M57 24h1v5h-1v-5z" fill="rgb(16,16,16)"/>
<path d="M39 25h3v1h-3v-1z" fill="rgb(90,90,123)"/>
<path d="M42 25h1v1h-1v-1z" fill="rgb(16,16,16)"/>
<path d="M50 25h1v2h-1v1h-1v1h-3v-1h2v-1h1v-1h1v-1z" fill="rgb(230,230,238)"/>
<path d="M38 26h1v1h-1v-1z" fill="rgb(90,90,123)"/>
<path d="M39 26h4v1h-1v1h-2v1h-3v-1h1v-1h1v-1z" fill="rgb(189,189,205)"/>
<path d="M43 26h1v2h-1v-2z" fill="rgb(16,16,16)"/>
<path d="M48 26h1v1h-1v-1z" fill="rgb(90,90,123)"/>
<path d="M69 26h2v1h-2v-1z" fill="rgb(131,131,172)"/>
<path d="M37 27h1v1h-1v-1z" fill="rgb(90,90,123)"/>
<path d="M42 27h1v1h1v1h2v1h3v-1h1v-1h1v-1h3v1h3v1h1v2h1v1h1v1h2v1h3v3h-1v1h-1v1h-1v-3
	h-1v-1h-2v1h-1v1h-1v-1h-2v-1h-2v-1h-7v1h-2v1h-1v1h-1v1h-1v-1h-3v1h-1v-2h1v-2h1
	v-5h1v-1h2v-1z" fill="rgb(131,131,172)"/>
<path d="M44 27h4v1h-4v-1z" fill="rgb(131,131,172)"/>
<path d="M50 27h1v1h-1v-1z" fill="rgb(90,90,123)"/>
<path d="M66 27h2v1h-2v-1z" fill="rgb(57,57,82)"/>
<path d="M68 27h1v1h-1v-1z" fill="rgb(131,131,172)"/>
<path d="M69 27h2v3h-1v3h-1v-2h-1v-3h1v-1z" fill="rgb(189,189,205)"/>
<path d="M71 27h1v3h-1v-3z" fill="rgb(16,16,16)"/>
<path d="M36 28h1v6h-1v-6z" fill="rgb(90,90,123)"/>
<path d="M44 28h2v1h-2v-1z" fill="rgb(16,16,16)"/>
<path d="M49 28h1v1h-1v-1z" fill="rgb(90,90,123)"/>
<path d="M58 28h3v1h-3v-1z" fill="rgb(57,57,82)"/>
<path d="M64 28h2v1h-2v-1z" fill="rgb(57,57,82)"/>
<path d="M66 28h2v5h1v1h1v1h1v2h1v2h1v2h-4v-1h-2v-1h-1v-1h-1v-1h1v-3h-1v-1h-3v-1h-2v-1
	h-1v-2h2v1h3v-1h2v-1z" fill="rgb(131,131,172)"/>
<path d="M37 29h2v5h-1v2h-1v2h-1v1h-1v1h-1v1h-4v-1h2v-1h1v-1h1v-1h1v-1h1v-2h1v-5z" fill="rgb(230,230,238)"/>
<path d="M46 29h3v1h-3v-1z" fill="rgb(16,16,16)"/>
<path d="M58 29h1v2h-1v-2z" fill="rgb(16,16,16)"/>
<path d="M61 29h3v1h-3v-1z" fill="rgb(57,57,82)"/>
<path d="M70 30h1v5h-1v-5z" fill="rgb(16,16,16)"/>
<path d="M59 31h1v1h-1v-1z" fill="rgb(16,16,16)"/>
<path d="M68 31h1v2h-1v-2z" fill="rgb(57,57,82)"/>
<path d="M60 32h2v1h-2v-1z" fill="rgb(16,16,16)"/>
<path d="M62 33h3v1h-3v-1z" fill="rgb(16,16,16)"/>
<path d="M69 33h1v1h-1v-1z" fill="rgb(57,57,82)"/>
<path d="M28 34h2v1h-2v-1z" fill="rgb(16,16,16)"/>
<path d="M35 34h1v2h-1v-2z" fill="rgb(90,90,123)"/>
<path d="M46 34h3v1h-3v-1z" fill="rgb(90,90,123)"/>
<path d="M49 34h2v3h-1v-1h-1v-2z" fill="rgb(57,57,82)"/>
<path d="M51 34h2v1h-2v-1z" fill="rgb(90,90,123)"/>
<path d="M65 34h1v3h-1v-3z" fill="rgb(16,16,16)"/>
<path d="M27 35h1v4h-1v-4z" fill="rgb(57,57,82)"/>
<path d="M28 35h2v1h1v1h2v1h-1v1h-1v1h-3v-5z" fill="rgb(131,131,172)"/>
<path d="M30 35h1v1h-1v-1z" fill="rgb(16,16,16)"/>
<path d="M44 35h2v1h-2v-1z" fill="rgb(90,90,123)"/>
<path d="M46 35h2v1h1v1h2v-2h1v3h-1v1h-5v-1h-3v-1h1v-1h2v-1z" fill="rgb(230,230,238)"/>
<path d="M48 35h1v1h-1v-1z" fill="rgb(189,189,205)"/>
<path d="M52 35h1v1h2v1h2v1h-2v1h-2v1h-3v-1h1v-1h1v-3z" fill="rgb(189,189,205)"/>
<path d="M53 35h2v1h-2v-1z" fill="rgb(90,90,123)"/>
<path d="M59 35h1v1h-1v-1z" fill="rgb(90,90,123)"/>
<path d="M60 35h1v1h-1v-1z" fill="rgb(16,16,16)"/>
<path d="M71 35h1v2h-1v-2z" fill="rgb(57,57,82)"/>
<path d="M31 36h2v1h-2v-1z" fill="rgb(16,16,16)"/>
<path d="M34 36h1v1h-1v-1z" fill="rgb(90,90,123)"/>
<path d="M43 36h1v1h-1v-1z" fill="rgb(90,90,123)"/>
<path d="M49 36h1v1h-1v-1z" fill="rgb(189,189,205)"/>
<path d="M55 36h2v1h-2v-1z" fill="rgb(90,90,123)"/>
<path d="M58 36h1v1h-1v-1z" fill="rgb(90,90,123)"/>
<path d="M59 36h2v2h-1v1h-1v1h-1v1h-4v1h-4v-1h3v-1h2v-1h2v-1h1v-1h1v-1z" fill="rgb(189,189,205)"/>
<path d="M61 36h1v3h1v1h-1v2h-1v-6z" fill="rgb(16,16,16)"/>
<path d="M33 37h1v1h-1v-1z" fill="rgb(90,90,123)"/>
<path d="M38 37h1v1h-1v-1z" fill="rgb(90,90,123)"/>
<path d="M39 37h2v1h-2v-1z" fill="rgb(16,16,16)"/>
<path d="M42 37h1v1h-1v-1z" fill="rgb(90,90,123)"/>
<path d="M57 37h1v1h-1v-1z" fill="rgb(90,90,123)"/>
<path d="M64 37h1v1h-1v-1z" fill="rgb(16,16,16)"/>
<path d="M72 37h1v2h-1v-2z" fill="rgb(57,57,82)"/>
<path d="M22 38h3v1h-3v-1z" fill="rgb(90,90,123)"/>
<path d="M25 38h2v1h-2v-1z" fill="rgb(16,16,16)"/>
<path d="M32 38h1v1h-1v-1z" fill="rgb(90,90,123)"/>
<path d="M36 38h1v1h-1v-1z" fill="rgb(131,131,172)"/>
<path d="M37 38h1v1h-1v-1z" fill="rgb(90,90,123)"/>
<path d="M38 38h3v1h1v1h-3v3h-1v1h-1v1h-1v2h-1v2h-1v2h-1v1h-1v1h-1v1h-1v1h-1v1h-1v1h-2v1
	h-4v-1h3v-1h2v-1h1v-1h1v-1h1v-1h1v-1h1v-2h1v-2h1v-2h1v-2h1v-2h1v-2h1v-1z" fill="rgb(230,230,238)"/>
<path d="M41 38h2v1h-2v-1z" fill="rgb(16,16,16)"/>
<path d="M43 38h3v1h-3v-1z" fill="rgb(57,57,82)"/>
<path d="M55 38h2v1h-2v-1z" fill="rgb(90,90,123)"/>
<path d="M60 38h1v4h-1v1h-1v4h1v2h1v1h-1v1h-2v1h-1v-3h-1v-2h-1v-1h-2v1h-1v1h-1v1h-2v-1
	h-2v-1h-1v-1h1v-3h-1v-2h-1v-1h-1v-1h2v1h1v1h1v1h2v1h4v-1h2v-1h2v-1h1v-1h1v-1z" fill="rgb(131,131,172)"/>
<path d="M63 38h1v1h-1v-1z" fill="rgb(16,16,16)"/>
<path d="M64 38h1v1h1v1h1v1h2v1h4v1h-2v1h-2v1h-2v1h-2v1h-1v1h-2v-1h-1v-1h-1v-3h1v-1h1v-2
	h1v-1h1v-1z" fill="rgb(131,131,172)"/>
<path d="M65 38h1v1h-1v-1z" fill="rgb(57,57,82)"/>
<path d="M21 39h1v5h-1v-5z" fill="rgb(90,90,123)"/>
<path d="M22 39h3v2h-1v2h-2v-4z" fill="rgb(189,189,205)"/>
<path d="M25 39h1v2h-1v-2z" fill="rgb(90,90,123)"/>
<path d="M26 39h1v1h1v1h1v1h-2v1h-1v1h-1v2h-1v3h-1v5h1v1h1v1h-3v-1h-1v-5h1v-2h1v-3h1v-2
	h1v-2h1v-2z" fill="rgb(131,131,172)"/>
<path d="M27 39h1v1h-1v-1z" fill="rgb(16,16,16)"/>
<path d="M31 39h1v1h-1v-1z" fill="rgb(90,90,123)"/>
<path d="M35 39h1v1h-1v-1z" fill="rgb(57,57,82)"/>
<path d="M36 39h1v2h-1v-2z" fill="rgb(90,90,123)"/>
<path d="M42 39h1v1h1v4h-1v1h-3v1h-2v1h-1v1h-1v1h-1v-2h1v-2h1v-1h1v-1h5v-2h-1v-2z" fill="rgb(189,189,205)"/>
<path d="M43 39h1v1h-1v-1z" fill="rgb(16,16,16)"/>
<path d="M46 39h2v2h-1v-1h-1v-1z" fill="rgb(57,57,82)"/>
<path d="M48 39h2v1h-2v-1z" fill="rgb(90,90,123)"/>
<path d="M53 39h2v1h-2v-1z" fill="rgb(90,90,123)"/>
<path d="M66 39h1v1h-1v-1z" fill="rgb(57,57,82)"/>
<path d="M73 39h1v2h-1v-2z" fill="rgb(57,57,82)"/>
<path d="M28 40h2v1h-2v-1z" fill="rgb(16,16,16)"/>
<path d="M34 40h1v1h-1v-1z" fill="rgb(57,57,82)"/>
<path d="M35 40h1v1h-1v-1z" fill="rgb(189,189,205)"/>
<path d="M39 40h1v1h-1v-1z" fill="rgb(131,131,172)"/>
<path d="M40 40h2v1h-2v-1z" fill="rgb(90,90,123)"/>
<path d="M44 40h1v1h-1v-1z" fill="rgb(16,16,16)"/>
<path d="M48 40h2v1h-2v-1z" fill="rgb(189,189,205)"/>
<path d="M50 40h3v1h-3v-1z" fill="rgb(90,90,123)"/>
<path d="M67 40h2v1h-2v-1z" fill="rgb(57,57,82)"/>
<path d="M24 41h1v2h-1v-2z" fill="rgb(90,90,123)"/>
<path d="M29 41h1v1h4v-1h1v2h-1v2h-1v2h-1v2h-1v2h-1v1h-1v1h-1v1h-1v1h-3v-1h-1v-5h1v-3h1
	v-2h1v-1h1v-1h2v-1z" fill="rgb(189,189,205)"/>
<path d="M30 41h4v1h-4v-1z" fill="rgb(57,57,82)"/>
<path d="M35 41h1v2h-1v-2z" fill="rgb(90,90,123)"/>
<path d="M39 41h3v2h-3v-2z" fill="rgb(16,16,16)"/>
<path d="M42 41h1v2h-1v-2z" fill="rgb(90,90,123)"/>
<path d="M44 41h1v2h1v3h-1v1h-1v1h-2v1h-2v1h-2v1h-2v-2h1v-1h1v-1h2v-1h2v-1h1v-1h1v-3z" fill="rgb(131,131,172)"/>
<path d="M45 41h1v2h-1v-2z" fill="rgb(16,16,16)"/>
<path d="M48 41h2v1h-2v-1z" fill="rgb(57,57,82)"/>
<path d="M54 41h2v1h-2v-1z" fill="rgb(90,90,123)"/>
<path d="M69 41h4v1h-4v-1z" fill="rgb(57,57,82)"/>
<path d="M73 41h2v1h-2v-1z" fill="rgb(16,16,16)"/>
<path d="M50 42h2v1h-2v-1z" fill="rgb(57,57,82)"/>
<path d="M52 42h2v1h-2v-1z" fill="rgb(90,90,123)"/>
<path d="M60 42h1v1h-1v-1z" fill="rgb(16,16,16)"/>
<path d="M73 42h2v2h-2v1h-1v1h-1v1h-3v1h-4v-1h1v-1h2v-1h2v-1h2v-1h2v-1z" fill="rgb(189,189,205)"/>
<path d="M75 42h1v2h-1v-2z" fill="rgb(16,16,16)"/>
<path d="M22 43h1v2h-1v3h-1v2h-1v1h-1v3h-1v-4h1v-2h1v-2h1v-2h1v-1z" fill="rgb(230,230,238)"/>
<path d="M23 43h1v2h-1v-2z" fill="rgb(90,90,123)"/>
<path d="M34 43h1v2h-1v-2z" fill="rgb(90,90,123)"/>
<path d="M46 43h1v3h-1v-3z" fill="rgb(16,16,16)"/>
<path d="M59 43h1v3h1v1h1v1h1v1h-1v1h-1v-1h-1v-2h-1v-4z" fill="rgb(16,16,16)"/>
<path d="M20 44h1v2h-1v-2z" fill="rgb(131,131,172)"/>
<path d="M73 44h2v1h-2v-1z" fill="rgb(16,16,16)"/>
<path d="M22 45h1v3h-1v-3z" fill="rgb(90,90,123)"/>
<path d="M33 45h1v2h-1v-2z" fill="rgb(90,90,123)"/>
<path d="M40 45h1v1h-1v-1z" fill="rgb(16,16,16)"/>
<path d="M41 45h1v1h-1v-1z" fill="rgb(57,57,82)"/>
<path d="M72 45h1v1h-1v-1z" fill="rgb(16,16,16)"/>
<path d="M73 45h2v2h-3v-1h1v-1z" fill="rgb(131,131,172)"/>
<path d="M75 45h1v2h-1v-2z" fill="rgb(57,57,82)"/>
<path d="M19 46h1v2h-1v-2z" fill="rgb(131,131,172)"/>
<path d="M38 46h2v1h-2v-1z" fill="rgb(16,16,16)"/>
<path d="M45 46h1v1h-1v-1z" fill="rgb(16,16,16)"/>
<path d="M53 46h2v1h-2v-1z" fill="rgb(57,57,82)"/>
<path d="M71 46h1v1h4v1h-8v-1h3v-1z" fill="rgb(16,16,16)"/>
<path d="M32 47h1v2h-1v-2z" fill="rgb(90,90,123)"/>
<path d="M37 47h1v1h-1v-1z" fill="rgb(16,16,16)"/>
<path d="M44 47h1v1h-1v-1z" fill="rgb(57,57,82)"/>
<path d="M45 47h1v2h1v1h1v1h1v1h1v2h-1v2h-1v1h-1v-1h-3v1h-2v2h-1v2h-1v-1h-6v1h-2v1h-2v1
	h-1v1h-1v2h-2v1h-1v-4h1v-1h1v-1h1v-1h3v-1h1v-2h1v-1h1v-2h1v-1h1v-1h2v-1h2v-1h2
	v-1h2v-1h1v-1z" fill="rgb(131,131,172)"/>
<path d="M46 47h1v1h2v1h1v1h-1v1h-1v-1h-1v-1h-1v-2z" fill="rgb(16,16,16)"/>
<path d="M52 47h1v1h-1v-1z" fill="rgb(57,57,82)"/>
<path d="M53 47h2v2h-1v1h-1v1h-1v1h-2v-2h1v-1h1v-1h1v-1z" fill="rgb(189,189,205)"/>
<path d="M55 47h1v2h-1v-2z" fill="rgb(57,57,82)"/>
<path d="M18 48h1v2h-1v-2z" fill="rgb(131,131,172)"/>
<path d="M21 48h1v2h-1v-2z" fill="rgb(90,90,123)"/>
<path d="M36 48h1v1h-1v-1z" fill="rgb(16,16,16)"/>
<path d="M42 48h2v1h-2v-1z" fill="rgb(57,57,82)"/>
<path d="M51 48h1v1h-1v-1z" fill="rgb(57,57,82)"/>
<path d="M63 48h1v1h-1v-1z" fill="rgb(189,189,205)"/>
<path d="M64 48h4v1h-4v-1z" fill="rgb(57,57,82)"/>
<path d="M68 48h3v1h-1v1h-3v-1h1v-1z" fill="rgb(189,189,205)"/>
<path d="M71 48h4v1h-1v1h-2v1h-1v1h-1v2h-1v2h1v2h2v1h2v1h-1v1h-1v-1h-4v1h-1v1h-1v1h-2v-1
	h-2v-1h1v-1h1v-1h4v-1h-1v-1h-1v-1h-3v-1h-4v-1h-1v-2h2v-1h2v-1h2v-1h3v1h3v-1h1
	v-1z" fill="rgb(131,131,172)"/>
<path d="M75 48h1v2h-2v-1h1v-1z" fill="rgb(189,189,205)"/>
<path d="M76 48h1v2h-1v-2z" fill="rgb(16,16,16)"/>
<path d="M31 49h1v2h-1v-2z" fill="rgb(90,90,123)"/>
<path d="M34 49h1v2h-1v-2z" fill="rgb(189,189,205)"/>
<path d="M35 49h1v2h-1v-2z" fill="rgb(16,16,16)"/>
<path d="M40 49h2v1h-2v-1z" fill="rgb(57,57,82)"/>
<path d="M50 49h1v1h-1v-1z" fill="rgb(57,57,82)"/>
<path d="M54 49h2v9h1v1h3v-1h1v-1h1v-1h1v4h-1v1h-1v1h-1v1h-1v2h-1v1h-3v-5h-1v-1h-1v-1h-1
	v-1h-3v-2h1v-2h1v-2h1v-1h1v-1h1v-1z" fill="rgb(131,131,172)"/>
<path d="M56 49h1v4h1v1h1v2h-2v2h-1v-9z" fill="rgb(16,16,16)"/>
<path d="M62 49h2v1h-2v-1z" fill="rgb(57,57,82)"/>
<path d="M17 50h1v4h-1v-4z" fill="rgb(90,90,123)"/>
<path d="M20 50h1v5h-1v-5z" fill="rgb(90,90,123)"/>
<path d="M38 50h2v1h-2v-1z" fill="rgb(57,57,82)"/>
<path d="M49 50h1v1h-1v-1z" fill="rgb(57,57,82)"/>
<path d="M60 50h2v1h-2v-1z" fill="rgb(57,57,82)"/>
<path d="M72 50h2v1h-1v2h-1v4h1v1h1v1h-2v-1h-2v-2h-1v-2h1v-2h1v-1h1v-1z" fill="rgb(189,189,205)"/>
<path d="M74 50h2v1h-2v-1z" fill="rgb(16,16,16)"/>
<path d="M76 50h1v2h-1v-2z" fill="rgb(57,57,82)"/>
<path d="M19 51h1v5h-1v-5z" fill="rgb(189,189,205)"/>
<path d="M30 51h1v1h-1v-1z" fill="rgb(90,90,123)"/>
<path d="M33 51h1v2h-1v2h-1v1h-1v1h-2v1h-1v1h-1v2h-1v1h-1v1h-1v1h-1v2h2v1h-4v-1h-1v-2h-1
	v-1h2v-1h-2v-1h-1v-1h-1v-1h2v1h4v-2h3v-1h2v-1h1v-1h1v-1h1v-1h1v-1h1v-1z" fill="rgb(189,189,205)"/>
<path d="M34 51h1v2h-1v-2z" fill="rgb(16,16,16)"/>
<path d="M35 51h1v1h-1v-1z" fill="rgb(131,131,172)"/>
<path d="M36 51h2v1h-2v-1z" fill="rgb(57,57,82)"/>
<path d="M49 51h1v1h-1v-1z" fill="rgb(16,16,16)"/>
<path d="M58 51h2v1h-2v-1z" fill="rgb(57,57,82)"/>
<path d="M73 51h1v2h-1v-2z" fill="rgb(16,16,16)"/>
<path d="M74 51h2v1h1v7h-1v3h-1v-1h-1v-1h1v-2h-1v-1h-1v-4h1v-2z" fill="rgb(131,131,172)"/>
<path d="M29 52h1v1h-1v-1z" fill="rgb(90,90,123)"/>
<path d="M35 52h1v1h-1v-1z" fill="rgb(57,57,82)"/>
<path d="M50 52h1v2h-1v-2z" fill="rgb(16,16,16)"/>
<path d="M57 52h1v1h-1v-1z" fill="rgb(57,57,82)"/>
<path d="M77 52h1v7h-1v-7z" fill="rgb(57,57,82)"/>
<path d="M28 53h1v1h-1v-1z" fill="rgb(90,90,123)"/>
<path d="M33 53h1v2h-1v-2z" fill="rgb(16,16,16)"/>
<path d="M34 53h1v1h-1v-1z" fill="rgb(57,57,82)"/>
<path d="M72 53h1v4h-1v-4z" fill="rgb(16,16,16)"/>
<path d="M14 54h1v3h-1v-3z" fill="rgb(16,16,16)"/>
<path d="M15 54h1v1h-1v-1z" fill="rgb(57,57,82)"/>
<path d="M18 54h1v2h-1v-2z" fill="rgb(90,90,123)"/>
<path d="M27 54h1v1h-1v-1z" fill="rgb(90,90,123)"/>
<path d="M49 54h1v2h-1v-2z" fill="rgb(16,16,16)"/>
<path d="M15 55h1v1h2v1h2v1h2v1h1v1h-4v-1h-3v-2h-1v-2z" fill="rgb(230,230,238)"/>
<path d="M16 55h2v1h-2v-1z" fill="rgb(57,57,82)"/>
<path d="M20 55h1v1h-1v-1z" fill="rgb(131,131,172)"/>
<path d="M21 55h1v1h-1v-1z" fill="rgb(90,90,123)"/>
<path d="M25 55h2v1h-2v-1z" fill="rgb(90,90,123)"/>
<path d="M32 55h1v1h-1v-1z" fill="rgb(16,16,16)"/>
<path d="M33 55h1v1h-1v-1z" fill="rgb(57,57,82)"/>
<path d="M59 55h2v1h-2v-1z" fill="rgb(90,90,123)"/>
<path d="M61 55h2v1h-2v-1z" fill="rgb(57,57,82)"/>
<path d="M18 56h2v1h-2v-1z" fill="rgb(57,57,82)"/>
<path d="M20 56h2v1h-2v-1z" fill="rgb(230,230,238)"/>
<path d="M22 56h3v1h-3v-1z" fill="rgb(90,90,123)"/>
<path d="M31 56h1v1h-1v-1z" fill="rgb(16,16,16)"/>
<path d="M32 56h1v1h-1v-1z" fill="rgb(57,57,82)"/>
<path d="M44 56h3v1h1v2h-1v1h-1v2h-3v-1h-2v-2h1v-2h2v-1z" fill="rgb(189,189,205)"/>
<path d="M48 56h1v4h-2v-1h1v-3z" fill="rgb(16,16,16)"/>
<path d="M57 56h2v1h-2v-1z" fill="rgb(90,90,123)"/>
<path d="M59 56h3v1h-1v1h-1v1h-1v-1h-2v-1h2v-1z" fill="rgb(189,189,205)"/>
<path d="M63 56h1v4h-1v-4z" fill="rgb(57,57,82)"/>
<path d="M64 56h2v1h1v1h1v1h-4v-3z" fill="rgb(189,189,205)"/>
<path d="M15 57h1v2h-1v-2z" fill="rgb(16,16,16)"/>
<path d="M20 57h2v1h-2v-1z" fill="rgb(57,57,82)"/>
<path d="M29 57h1v1h-1v-1z" fill="rgb(90,90,123)"/>
<path d="M30 57h1v1h-1v-1z" fill="rgb(16,16,16)"/>
<path d="M31 57h1v2h-1v-2z" fill="rgb(255,255,255)"/>
<path d="M73 57h1v1h-1v-1z" fill="rgb(16,16,16)"/>
<path d="M22 58h1v1h-1v-1z" fill="rgb(90,90,123)"/>
<path d="M28 58h1v1h-1v-1z" fill="rgb(16,16,16)"/>
<path d="M29 58h1v1h-1v-1z" fill="rgb(189,189,205)"/>
<path d="M30 58h1v2h-1v-2z" fill="rgb(172,57,41)"/>
<path d="M49 58h1v1h-1v-1z" fill="rgb(57,57,82)"/>
<path d="M50 58h2v1h-2v-1z" fill="rgb(16,16,16)"/>
<path d="M57 58h2v1h-2v-1z" fill="rgb(16,16,16)"/>
<path d="M74 58h1v2h-1v-2z" fill="rgb(16,16,16)"/>
<path d="M16 59h1v1h-1v-1z" fill="rgb(16,16,16)"/>
<path d="M27 59h1v2h-1v-2z" fill="rgb(16,16,16)"/>
<path d="M28 59h1v1h-1v-1z" fill="rgb(255,255,255)"/>
<path d="M29 59h1v1h-1v-1z" fill="rgb(16,16,16)"/>
<path d="M49 59h1v1h1v1h1v2h1v3h-1v3h-2v-1h-1v-1h-2v-1h1v-1h1v-4h-1v-1h1v-1z" fill="rgb(131,131,172)"/>
<path d="M50 59h2v1h1v1h1v1h1v4h3v1h-5v-1h1v-3h-2v-2h-1v-1h-1v-1z" fill="rgb(57,57,82)"/>
<path d="M52 59h1v1h-1v-1z" fill="rgb(16,16,16)"/>
<path d="M76 59h1v3h-1v-3z" fill="rgb(57,57,82)"/>
<path d="M17 60h1v1h-1v-1z" fill="rgb(16,16,16)"/>
<path d="M34 60h6v1h-6v-1z" fill="rgb(16,16,16)"/>
<path d="M46 60h1v2h-1v-2z" fill="rgb(16,16,16)"/>
<path d="M47 60h1v1h1v4h-1v1h-1v1h-1v-1h-4v-3h4v-1h1v-2z" fill="rgb(189,189,205)"/>
<path d="M53 60h1v1h-1v-1z" fill="rgb(16,16,16)"/>
<path d="M62 60h1v1h-1v-1z" fill="rgb(57,57,82)"/>
<path d="M68 60h1v1h-1v-1z" fill="rgb(57,57,82)"/>
<path d="M69 60h2v1h1v1h-1v1h-2v-1h-1v-1h1v-1z" fill="rgb(16,16,16)"/>
<path d="M71 60h1v1h-1v-1z" fill="rgb(57,57,82)"/>
<path d="M73 60h1v1h-1v-1z" fill="rgb(16,16,16)"/>
<path d="M18 61h1v1h-1v-1z" fill="rgb(16,16,16)"/>
<path d="M21 61h1v1h-1v-1z" fill="rgb(57,57,82)"/>
<path d="M26 61h1v1h-1v-1z" fill="rgb(16,16,16)"/>
<path d="M32 61h2v1h-2v-1z" fill="rgb(16,16,16)"/>
<path d="M34 61h6v1h1v1h-1v1h-5v1h-1v-4z" fill="rgb(90,90,123)"/>
<path d="M40 61h3v1h-1v4h-1v-2h-1v-1h1v-1h-1v-1z" fill="rgb(16,16,16)"/>
<path d="M54 61h1v1h-1v-1z" fill="rgb(16,16,16)"/>
<path d="M61 61h1v1h-1v-1z" fill="rgb(57,57,82)"/>
<path d="M67 61h1v1h-1v-1z" fill="rgb(57,57,82)"/>
<path d="M72 61h3v1h-3v-1z" fill="rgb(57,57,82)"/>
<path d="M18 62h1v2h-1v-2z" fill="rgb(90,90,123)"/>
<path d="M19 62h2v1h-2v-1z" fill="rgb(16,16,16)"/>
<path d="M25 62h1v1h-1v-1z" fill="rgb(16,16,16)"/>
<path d="M30 62h2v1h-2v-1z" fill="rgb(16,16,16)"/>
<path d="M32 62h1v1h-1v-1z" fill="rgb(189,189,205)"/>
<path d="M33 62h1v3h-1v-3z" fill="rgb(57,57,82)"/>
<path d="M42 62h1v1h-1v-1z" fill="rgb(131,131,172)"/>
<path d="M43 62h3v1h-3v-1z" fill="rgb(16,16,16)"/>
<path d="M60 62h1v1h-1v-1z" fill="rgb(57,57,82)"/>
<path d="M62 62h2v1h-2v-1z" fill="rgb(16,16,16)"/>
<path d="M66 62h1v1h-1v-1z" fill="rgb(57,57,82)"/>
<path d="M67 62h1v1h4v-1h3v3h-1v-1h-3v1h-1v-1h-3v1h-1v-2h1v-1z" fill="rgb(131,131,172)"/>
<path d="M68 62h1v1h-1v-1z" fill="rgb(57,57,82)"/>
<path d="M71 62h1v1h-1v-1z" fill="rgb(57,57,82)"/>
<path d="M75 62h1v3h-1v-3z" fill="rgb(16,16,16)"/>
<path d="M24 63h1v1h-1v-1z" fill="rgb(16,16,16)"/>
<path d="M29 63h1v1h-1v-1z" fill="rgb(16,16,16)"/>
<path d="M30 63h1v1h-1v-1z" fill="rgb(57,57,82)"/>
<path d="M31 63h2v2h-1v-1h-1v-1z" fill="rgb(255,255,255)"/>
<path d="M53 63h1v3h-1v-3z" fill="rgb(16,16,16)"/>
<path d="M59 63h1v2h-1v-2z" fill="rgb(57,57,82)"/>
<path d="M64 63h2v3h-1v-2h-1v-1z" fill="rgb(16,16,16)"/>
<path d="M19 64h1v2h-1v-2z" fill="rgb(90,90,123)"/>
<path d="M23 64h1v1h-1v-1z" fill="rgb(57,57,82)"/>
<path d="M24 64h1v1h-1v-1z" fill="rgb(90,90,123)"/>
<path d="M28 64h1v2h-1v-2z" fill="rgb(16,16,16)"/>
<path d="M29 64h2v1h1v2h-1v1h-1v1h-6v-1h2v-1h2v-1h1v-2z" fill="rgb(90,90,123)"/>
<path d="M31 64h1v1h-1v-1z" fill="rgb(57,57,82)"/>
<path d="M35 64h5v1h-5v-1z" fill="rgb(16,16,16)"/>
<path d="M40 64h1v2h-1v1h-2v-1h-3v-1h5v-1z" fill="rgb(57,57,82)"/>
<path d="M67 64h1v1h-1v-1z" fill="rgb(57,57,82)"/>
<path d="M68 64h1v2h-1v1h-1v-2h1v-1z" fill="rgb(189,189,205)"/>
<path d="M69 64h1v1h-1v-1z" fill="rgb(57,57,82)"/>
<path d="M71 64h1v3h-1v-3z" fill="rgb(57,57,82)"/>
<path d="M72 64h1v1h1v1h-1v1h-1v-3z" fill="rgb(189,189,205)"/>
<path d="M73 64h1v1h-1v-1z" fill="rgb(57,57,82)"/>
<path d="M23 65h1v1h-1v-1z" fill="rgb(16,16,16)"/>
<path d="M24 65h1v1h-1v-1z" fill="rgb(57,57,82)"/>
<path d="M32 65h1v1h-1v-1z" fill="rgb(57,57,82)"/>
<path d="M33 65h2v1h-2v-1z" fill="rgb(16,16,16)"/>
<path d="M58 65h1v1h-1v-1z" fill="rgb(57,57,82)"/>
<path d="M66 65h1v1h-1v-1z" fill="rgb(57,57,82)"/>
<path d="M69 65h2v1h-1v1h-1v-2z" fill="rgb(16,16,16)"/>
<path d="M74 65h1v2h-1v-2z" fill="rgb(16,16,16)"/>
<path d="M20 66h1v1h-1v-1z" fill="rgb(16,16,16)"/>
<path d="M26 66h2v1h-2v-1z" fill="rgb(16,16,16)"/>
<path d="M32 66h1v1h-1v-1z" fill="rgb(16,16,16)"/>
<path d="M40 66h1v2h-1v-2z" fill="rgb(16,16,16)"/>
<path d="M41 66h1v1h-1v-1z" fill="rgb(189,189,205)"/>
<path d="M42 66h4v1h-4v-1z" fill="rgb(90,90,123)"/>
<path d="M52 66h1v3h-1v-3z" fill="rgb(16,16,16)"/>
<path d="M66 66h1v1h-1v-1z" fill="rgb(16,16,16)"/>
<path d="M68 66h1v1h-1v-1z" fill="rgb(131,131,172)"/>
<path d="M73 66h1v1h-1v-1z" fill="rgb(131,131,172)"/>
<path d="M20 67h1v2h-2v-1h1v-1z" fill="rgb(90,90,123)"/>
<path d="M21 67h5v1h-5v-1z" fill="rgb(16,16,16)"/>
<path d="M31 67h1v1h-1v-1z" fill="rgb(16,16,16)"/>
<path d="M41 67h1v1h-1v-1z" fill="rgb(90,90,123)"/>
<path d="M42 67h4v1h1v1h-2v1h-1v1h-2v-1h-1v-1h-1v-1h2v-1z" fill="rgb(189,189,205)"/>
<path d="M46 67h3v1h-3v-1z" fill="rgb(57,57,82)"/>
<path d="M67 67h2v1h-2v-1z" fill="rgb(16,16,16)"/>
<path d="M72 67h2v1h-2v-1z" fill="rgb(16,16,16)"/>
<path d="M21 68h2v2h-1v-1h-1v-1z" fill="rgb(131,131,172)"/>
<path d="M23 68h1v1h-1v-1z" fill="rgb(57,57,82)"/>
<path d="M30 68h1v1h-1v-1z" fill="rgb(57,57,82)"/>
<path d="M39 68h1v3h-1v-3z" fill="rgb(16,16,16)"/>
<path d="M47 68h2v1h1v1h1v1h-1v1h-2v-1h-1v-1h-1v-1h1v-1z" fill="rgb(131,131,172)"/>
<path d="M49 68h1v1h-1v-1z" fill="rgb(57,57,82)"/>
<path d="M19 69h1v1h-1v-1z" fill="rgb(16,16,16)"/>
<path d="M20 69h2v1h-1v1h-2v-1h1v-1z" fill="rgb(255,255,255)"/>
<path d="M23 69h1v1h-1v-1z" fill="rgb(90,90,123)"/>
<path d="M24 69h6v1h-6v-1z" fill="rgb(16,16,16)"/>
<path d="M40 69h1v1h-1v-1z" fill="rgb(90,90,123)"/>
<path d="M45 69h1v1h-1v-1z" fill="rgb(90,90,123)"/>
<path d="M50 69h1v1h-1v-1z" fill="rgb(57,57,82)"/>
<path d="M51 69h1v2h-1v-2z" fill="rgb(16,16,16)"/>
<path d="M18 70h1v1h-1v-1z" fill="rgb(16,16,16)"/>
<path d="M21 70h2v1h-2v-1z" fill="rgb(90,90,123)"/>
<path d="M23 70h2v1h-1v1h-2v-1h1v-1z" fill="rgb(255,255,255)"/>
<path d="M25 70h1v1h-1v-1z" fill="rgb(90,90,123)"/>
<path d="M26 70h2v1h-2v-1z" fill="rgb(131,131,172)"/>
<path d="M28 70h1v1h-1v-1z" fill="rgb(57,57,82)"/>
<path d="M40 70h1v1h1v1h-1v1h-2v-2h1v-1z" fill="rgb(230,230,238)"/>
<path d="M41 70h1v1h-1v-1z" fill="rgb(90,90,123)"/>
<path d="M44 70h1v1h-1v-1z" fill="rgb(90,90,123)"/>
<path d="M45 70h1v1h1v2h-1v1h-1v-1h-1v-2h1v-1z" fill="rgb(255,255,255)"/>
<path d="M46 70h1v1h-1v-1z" fill="rgb(90,90,123)"/>
<path d="M19 71h3v1h-3v-1z" fill="rgb(16,16,16)"/>
<path d="M24 71h1v1h-1v-1z" fill="rgb(230,230,238)"/>
<path d="M25 71h3v1h-3v-1z" fill="rgb(57,57,82)"/>
<path d="M38 71h1v2h2v1h-3v-3z" fill="rgb(16,16,16)"/>
<path d="M42 71h1v2h-1v-2z" fill="rgb(57,57,82)"/>
<path d="M43 71h1v1h-1v-1z" fill="rgb(131,131,172)"/>
<path d="M47 71h1v1h-1v-1z" fill="rgb(90,90,123)"/>
<path d="M50 71h1v1h-1v-1z" fill="rgb(16,16,16)"/>
<path d="M22 72h3v1h-3v-1z" fill="rgb(16,16,16)"/>
<path d="M41 72h1v1h-1v-1z" fill="rgb(16,16,16)"/>
<path d="M43 72h1v1h-1v-1z" fill="rgb(16,16,16)"/>
<path d="M47 72h3v1h-3v-1z" fill="rgb(16,16,16)"/>
<path d="M44 73h1v1h-1v-1z" fill="rgb(16,16,16)"/>
<path d="M46 73h1v1h-1v-1z" fill="rgb(16,16,16)"/>
<path d="M45 74h1v1h-1v-1z" fill="rgb(16,16,16)"/>
</svg>
