<?xml version="1.0" encoding="utf-8"?>
<!-- generated at drububu.com  -->
<!DOCTYPE svg PUBLIC "-//W3C//DTD SVG 1.1//EN" "http://www.w3.org/Graphics/SVG/1.1/DTD/svg11.dtd">
<svg version="1.1" preserveAspectRatio="xMinYMin meet" xmlns="http://www.w3.org/2000/svg" xmlns:xlink="http://www.w3.org/1999/xlink" x="0px" y="0px" width="96px" height="96px" viewBox="0 0 96 96">
<path d="M0 0h96v96h-96v-96z" fill="transparent"/>
<path d="M40 18h1v1h-1v-1z" fill="rgb(139,139,148)"/>
<path d="M41 18h2v1h-2v-1z" fill="rgb(16,16,16)"/>
<path d="M39 19h1v1h-1v-1z" fill="rgb(139,139,148)"/>
<path d="M40 19h1v1h-1v-1z" fill="rgb(197,197,189)"/>
<path d="M41 19h1v1h-1v-1z" fill="rgb(82,82,90)"/>
<path d="M42 19h1v3h-1v6h-1v2h-1v-1h-1v-1h-1v-3h1v-2h1v-2h1v-1h1v-1z" fill="rgb(139,139,148)"/>
<path d="M43 19h1v3h-1v-3z" fill="rgb(16,16,16)"/>
<path d="M24 20h1v1h-1v-1z" fill="rgb(82,82,90)"/>
<path d="M25 20h2v1h-2v-1z" fill="rgb(16,16,16)"/>
<path d="M38 20h1v1h-1v-1z" fill="rgb(139,139,148)"/>
<path d="M39 20h1v1h-1v-1z" fill="rgb(197,197,189)"/>
<path d="M40 20h1v1h-1v-1z" fill="rgb(82,82,90)"/>
<path d="M23 21h1v2h-1v-2z" fill="rgb(82,82,90)"/>
<path d="M24 21h2v1h-1v1h-1v-2z" fill="rgb(230,230,222)"/>
<path d="M26 21h1v1h-1v-1z" fill="rgb(197,197,189)"/>
<path d="M27 21h2v1h-2v-1z" fill="rgb(16,16,16)"/>
<path d="M37 21h1v1h-1v-1z" fill="rgb(82,82,90)"/>
<path d="M38 21h1v2h-1v2h-1v3h1v1h2v1h1v-2h1v-1h1v-2h2v1h2v1h-1v1h3v2h-1v3h-1v-1h-1v-3
	h-2v1h-1v1h-1v1h1v-1h1v-1h1v2h-1v1h-1v1h5v1h-2v1h-1v1h1v1h1v2h-2v-1h-1v-2h-3v1
	h-1v-3h1v-1h-1v-1h-1v1h-1v1h-1v1h-1v-1h-1v1h-1v4h3v-1h2v2h-1v1h-1v1h-1v1h-1v1h-3
	v-2h1v-6h-1v-2h-2v-1h-1v-1h1v-1h2v-1h1v-3h-1v-1h-4v1h-2v-1h1v-2h4v-1h4v2h1v-2
	h1v-2h1v-1z" fill="rgb(197,197,189)"/>
<path d="M39 21h1v2h-1v-2z" fill="rgb(82,82,90)"/>
<path d="M25 22h1v2h-1v-2z" fill="rgb(197,197,189)"/>
<path d="M26 22h3v1h1v1h-3v1h-1v-3z" fill="rgb(139,139,148)"/>
<path d="M29 22h1v1h-1v-1z" fill="rgb(16,16,16)"/>
<path d="M36 22h1v2h-1v2h-1v-2h-4v-1h5v-1z" fill="rgb(82,82,90)"/>
<path d="M42 22h1v4h-1v-4z" fill="rgb(16,16,16)"/>
<path d="M24 23h1v1h-1v-1z" fill="rgb(82,82,90)"/>
<path d="M30 23h1v1h-1v-1z" fill="rgb(16,16,16)"/>
<path d="M38 23h1v2h-1v-2z" fill="rgb(82,82,90)"/>
<path d="M25 24h1v1h-1v-1z" fill="rgb(16,16,16)"/>
<path d="M27 24h4v1h-4v-1z" fill="rgb(82,82,90)"/>
<path d="M43 24h2v1h-2v-1z" fill="rgb(82,82,90)"/>
<path d="M50 24h2v1h-2v-1z" fill="rgb(139,139,148)"/>
<path d="M22 25h5v1h-5v-1z" fill="rgb(82,82,90)"/>
<path d="M37 25h1v3h-1v-3z" fill="rgb(82,82,90)"/>
<path d="M45 25h2v1h-2v-1z" fill="rgb(82,82,90)"/>
<path d="M49 25h1v1h-1v-1z" fill="rgb(139,139,148)"/>
<path d="M50 25h2v1h-1v1h-1v1h-2v-1h1v-1h1v-1z" fill="rgb(230,230,222)"/>
<path d="M52 25h1v2h-1v-2z" fill="rgb(16,16,16)"/>
<path d="M21 26h1v1h-1v-1z" fill="rgb(16,16,16)"/>
<path d="M22 26h5v1h-1v1h-2v-1h-2v-1z" fill="rgb(230,230,222)"/>
<path d="M34 26h1v2h-1v-2z" fill="rgb(82,82,90)"/>
<path d="M42 26h1v1h-1v-1z" fill="rgb(82,82,90)"/>
<path d="M47 26h1v1h-1v-1z" fill="rgb(82,82,90)"/>
<path d="M48 26h1v1h-1v-1z" fill="rgb(139,139,148)"/>
<path d="M51 26h1v2h3v2h-1v2h1v2h-3v1h-2v1h-1v1h1v-1h2v-1h3v1h1v2h-3v1h4v1h2v2h1v6h-1v2
	h-1v-2h-1v-1h-1v-1h-4v1h-1v2h-1v-1h-1v-5h-1v-2h-1v-1h1v-2h-1v-2h1v-1h1v-1h-1v-2
	h1v-2h1v-2h1v-2z" fill="rgb(139,139,148)"/>
<path d="M22 27h2v1h-2v-1z" fill="rgb(16,16,16)"/>
<path d="M28 27h4v1h1v3h-1v1h-2v-1h-1v-1h-1v-1h-2v-1h2v-1z" fill="rgb(139,139,148)"/>
<path d="M46 27h2v1h-2v-1z" fill="rgb(139,139,148)"/>
<path d="M50 27h1v1h-1v-1z" fill="rgb(82,82,90)"/>
<path d="M52 27h1v1h-1v-1z" fill="rgb(82,82,90)"/>
<path d="M53 27h2v1h-2v-1z" fill="rgb(16,16,16)"/>
<path d="M24 28h2v1h-2v-1z" fill="rgb(16,16,16)"/>
<path d="M38 28h1v1h-1v-1z" fill="rgb(82,82,90)"/>
<path d="M49 28h1v2h-1v-2z" fill="rgb(82,82,90)"/>
<path d="M55 28h1v2h-1v-2z" fill="rgb(16,16,16)"/>
<path d="M25 29h1v2h-1v-2z" fill="rgb(82,82,90)"/>
<path d="M26 29h2v1h-2v-1z" fill="rgb(16,16,16)"/>
<path d="M44 29h2v1h-2v-1z" fill="rgb(82,82,90)"/>
<path d="M16 30h3v1h-3v-1z" fill="rgb(115,90,49)"/>
<path d="M26 30h2v1h-2v-1z" fill="rgb(197,197,189)"/>
<path d="M28 30h1v1h-1v-1z" fill="rgb(16,16,16)"/>
<path d="M43 30h1v1h-1v-1z" fill="rgb(82,82,90)"/>
<path d="M45 30h1v3h-1v-3z" fill="rgb(16,16,16)"/>
<path d="M48 30h1v2h-1v-2z" fill="rgb(82,82,90)"/>
<path d="M54 30h1v2h-1v-2z" fill="rgb(16,16,16)"/>
<path d="M16 31h1v1h-1v-1z" fill="rgb(16,16,16)"/>
<path d="M17 31h2v1h-2v-1z" fill="rgb(255,238,197)"/>
<path d="M19 31h3v1h-3v-1z" fill="rgb(115,90,49)"/>
<path d="M24 31h1v1h-1v-1z" fill="rgb(82,82,90)"/>
<path d="M25 31h4v1h1v1h-1v1h-1v-1h-3v-2z" fill="rgb(230,230,222)"/>
<path d="M29 31h1v1h-1v-1z" fill="rgb(82,82,90)"/>
<path d="M42 31h1v1h-1v-1z" fill="rgb(139,139,148)"/>
<path d="M17 32h1v1h-1v-1z" fill="rgb(16,16,16)"/>
<path d="M18 32h1v1h-1v-1z" fill="rgb(180,164,115)"/>
<path d="M19 32h3v2h-1v-1h-2v-1z" fill="rgb(255,238,197)"/>
<path d="M22 32h3v1h-2v1h-1v-2z" fill="rgb(115,90,49)"/>
<path d="M44 32h1v2h-2v-1h1v-1z" fill="rgb(139,139,148)"/>
<path d="M46 32h1v1h-1v-1z" fill="rgb(139,139,148)"/>
<path d="M55 32h1v2h-1v-2z" fill="rgb(16,16,16)"/>
<path d="M18 33h1v1h-1v-1z" fill="rgb(16,16,16)"/>
<path d="M19 33h2v2h-1v-1h-1v-1z" fill="rgb(180,164,115)"/>
<path d="M23 33h2v3h-1v-1h-2v-1h1v-1z" fill="rgb(255,238,197)"/>
<path d="M25 33h3v1h-2v3h-1v-4z" fill="rgb(115,90,49)"/>
<path d="M39 33h1v1h-1v-1z" fill="rgb(139,139,148)"/>
<path d="M45 33h2v1h-2v-1z" fill="rgb(82,82,90)"/>
<path d="M47 33h1v1h-1v-1z" fill="rgb(16,16,16)"/>
<path d="M19 34h1v1h-1v-1z" fill="rgb(16,16,16)"/>
<path d="M21 34h1v1h-1v-1z" fill="rgb(115,90,49)"/>
<path d="M26 34h2v1h1v2h-1v1h-1v-1h-1v-3z" fill="rgb(255,238,197)"/>
<path d="M28 34h2v1h1v1h-1v1h-1v-2h-1v-1z" fill="rgb(115,90,49)"/>
<path d="M38 34h1v1h-1v-1z" fill="rgb(16,16,16)"/>
<path d="M39 34h1v1h-1v-1z" fill="rgb(197,197,189)"/>
<path d="M40 34h1v1h-1v-1z" fill="rgb(139,139,148)"/>
<path d="M48 34h1v1h-1v-1z" fill="rgb(16,16,16)"/>
<path d="M52 34h3v1h-3v-1z" fill="rgb(16,16,16)"/>
<path d="M20 35h1v1h-1v-1z" fill="rgb(16,16,16)"/>
<path d="M21 35h3v1h1v1h-1v1h-2v-2h-1v-1z" fill="rgb(180,164,115)"/>
<path d="M31 35h1v2h-1v-2z" fill="rgb(16,16,16)"/>
<path d="M35 35h1v1h-1v-1z" fill="rgb(139,139,148)"/>
<path d="M37 35h1v1h-1v-1z" fill="rgb(16,16,16)"/>
<path d="M38 35h2v2h-1v-1h-1v-1z" fill="rgb(255,255,255)"/>
<path d="M46 35h1v1h-1v-1z" fill="rgb(139,139,148)"/>
<path d="M47 35h1v1h-1v-1z" fill="rgb(16,16,16)"/>
<path d="M50 35h1v1h-1v-1z" fill="rgb(82,82,90)"/>
<path d="M51 35h1v1h-1v-1z" fill="rgb(16,16,16)"/>
<path d="M55 35h1v1h-1v-1z" fill="rgb(82,82,90)"/>
<path d="M21 36h1v2h-1v-2z" fill="rgb(16,16,16)"/>
<path d="M30 36h1v1h1v2h-1v1h-1v-1h-1v-2h1v-1z" fill="rgb(255,238,197)"/>
<path d="M34 36h1v1h-1v-1z" fill="rgb(139,139,148)"/>
<path d="M35 36h1v2h-1v-2z" fill="rgb(197,197,189)"/>
<path d="M36 36h1v1h1v1h-2v-2z" fill="rgb(16,16,16)"/>
<path d="M37 36h1v1h-1v-1z" fill="rgb(164,49,16)"/>
<path d="M38 36h1v2h-1v-2z" fill="rgb(230,82,57)"/>
<path d="M45 36h1v1h-1v-1z" fill="rgb(139,139,148)"/>
<path d="M46 36h1v1h-1v-1z" fill="rgb(16,16,16)"/>
<path d="M49 36h1v1h-1v-1z" fill="rgb(82,82,90)"/>
<path d="M56 36h1v2h-1v-2z" fill="rgb(82,82,90)"/>
<path d="M24 37h1v1h-1v-1z" fill="rgb(115,90,49)"/>
<path d="M25 37h2v1h1v1h-1v1h-1v1h-1v-1h-1v-2h1v-1z" fill="rgb(180,164,115)"/>
<path d="M28 37h1v2h-1v-2z" fill="rgb(115,90,49)"/>
<path d="M32 37h1v2h-1v-2z" fill="rgb(16,16,16)"/>
<path d="M34 37h1v2h-1v-2z" fill="rgb(82,82,90)"/>
<path d="M39 37h1v1h-1v-1z" fill="rgb(139,139,148)"/>
<path d="M41 37h2v1h-2v-1z" fill="rgb(16,16,16)"/>
<path d="M43 37h1v2h-1v-2z" fill="rgb(139,139,148)"/>
<path d="M46 37h1v1h-1v-1z" fill="rgb(82,82,90)"/>
<path d="M22 38h1v1h-1v-1z" fill="rgb(16,16,16)"/>
<path d="M23 38h1v1h-1v-1z" fill="rgb(115,90,49)"/>
<path d="M35 38h1v2h-1v-2z" fill="rgb(16,16,16)"/>
<path d="M36 38h1v1h-1v-1z" fill="rgb(255,255,255)"/>
<path d="M37 38h1v1h-1v-1z" fill="rgb(230,82,57)"/>
<path d="M38 38h1v1h-1v-1z" fill="rgb(139,139,148)"/>
<path d="M39 38h1v1h-1v-1z" fill="rgb(197,197,189)"/>
<path d="M40 38h1v1h-1v-1z" fill="rgb(16,16,16)"/>
<path d="M41 38h2v1h-1v1h-1v-2z" fill="rgb(82,82,90)"/>
<path d="M47 38h1v2h-1v-2z" fill="rgb(16,16,16)"/>
<path d="M53 38h1v1h-1v-1z" fill="rgb(82,82,90)"/>
<path d="M54 38h3v1h-3v-1z" fill="rgb(16,16,16)"/>
<path d="M57 38h1v1h-1v-1z" fill="rgb(82,82,90)"/>
<path d="M23 39h1v1h-1v-1z" fill="rgb(16,16,16)"/>
<path d="M27 39h1v1h-1v-1z" fill="rgb(115,90,49)"/>
<path d="M28 39h2v1h1v1h-2v1h-2v-2h1v-1z" fill="rgb(180,164,115)"/>
<path d="M31 39h1v2h-1v-2z" fill="rgb(16,16,16)"/>
<path d="M32 39h1v4h-2v1h-1v1h1v-1h1v1h1v1h-5v-1h-1v-2h2v-1h2v-1h1v-2z" fill="rgb(139,139,148)"/>
<path d="M34 39h1v1h-1v-1z" fill="rgb(139,139,148)"/>
<path d="M36 39h1v1h-1v-1z" fill="rgb(139,139,148)"/>
<path d="M39 39h1v1h-1v-1z" fill="rgb(82,82,90)"/>
<path d="M40 39h1v1h-1v-1z" fill="rgb(164,49,16)"/>
<path d="M42 39h1v1h-1v-1z" fill="rgb(139,139,148)"/>
<path d="M43 39h1v1h-1v-1z" fill="rgb(16,16,16)"/>
<path d="M44 39h1v1h-1v-1z" fill="rgb(82,82,90)"/>
<path d="M57 39h2v1h-2v-1z" fill="rgb(16,16,16)"/>
<path d="M23 40h1v1h-1v-1z" fill="rgb(82,82,90)"/>
<path d="M24 40h1v1h-1v-1z" fill="rgb(16,16,16)"/>
<path d="M26 40h1v2h-1v-2z" fill="rgb(115,90,49)"/>
<path d="M39 40h1v1h-1v-1z" fill="rgb(16,16,16)"/>
<path d="M40 40h1v1h-1v-1z" fill="rgb(197,197,189)"/>
<path d="M41 40h1v3h-1v-3z" fill="rgb(164,49,16)"/>
<path d="M42 40h1v3h-1v-3z" fill="rgb(82,82,90)"/>
<path d="M43 40h2v2h-1v2h-1v1h-1v1h-1v1h-1v-2h1v-1h1v-1h1v-3z" fill="rgb(139,139,148)"/>
<path d="M45 40h2v1h-1v1h-1v-2z" fill="rgb(16,16,16)"/>
<path d="M50 40h1v1h-1v-1z" fill="rgb(82,82,90)"/>
<path d="M51 40h3v1h1v3h-1v1h-3v-1h-1v-3h1v-1z" fill="rgb(197,197,189)"/>
<path d="M59 40h1v2h-1v-2z" fill="rgb(16,16,16)"/>
<path d="M71 40h3v1h-3v-1z" fill="rgb(82,82,90)"/>
<path d="M24 41h1v2h1v2h-1v-1h-1v-3z" fill="rgb(82,82,90)"/>
<path d="M25 41h1v1h-1v-1z" fill="rgb(16,16,16)"/>
<path d="M29 41h1v1h-1v-1z" fill="rgb(115,90,49)"/>
<path d="M30 41h1v1h-1v-1z" fill="rgb(16,16,16)"/>
<path d="M38 41h1v1h-1v-1z" fill="rgb(82,82,90)"/>
<path d="M39 41h1v1h-1v-1z" fill="rgb(197,197,189)"/>
<path d="M40 41h1v1h-1v-1z" fill="rgb(255,255,255)"/>
<path d="M46 41h1v2h-1v3h1v-3h1v5h1v2h1v1h-1v1h-1v-3h-1v-1h-1v-1h-2v1h-1v1h-1v1h-1v-1h-2
	v-1h2v-1h1v-1h1v-1h1v-1h1v-2h1v-1z" fill="rgb(139,139,148)"/>
<path d="M47 41h1v2h-1v-2z" fill="rgb(82,82,90)"/>
<path d="M49 41h1v1h-1v-1z" fill="rgb(82,82,90)"/>
<path d="M70 41h1v1h-1v-1z" fill="rgb(82,82,90)"/>
<path d="M71 41h3v1h2v1h1v1h-1v1h-1v1h-1v-2h-1v-1h-1v-1h-1v-1z" fill="rgb(197,197,189)"/>
<path d="M74 41h3v1h-3v-1z" fill="rgb(82,82,90)"/>
<path d="M25 42h1v1h-1v-1z" fill="rgb(197,197,189)"/>
<path d="M26 42h3v1h-3v-1z" fill="rgb(82,82,90)"/>
<path d="M37 42h1v1h-1v-1z" fill="rgb(139,139,148)"/>
<path d="M38 42h1v1h-1v-1z" fill="rgb(16,16,16)"/>
<path d="M39 42h1v1h1v1h-1v1h-1v-1h-1v-1h1v-1z" fill="rgb(164,49,16)"/>
<path d="M40 42h1v1h-1v-1z" fill="rgb(230,230,222)"/>
<path d="M44 42h1v2h-1v-2z" fill="rgb(16,16,16)"/>
<path d="M49 42h1v1h-1v-1z" fill="rgb(16,16,16)"/>
<path d="M60 42h1v1h1v1h-1v3h-1v-5z" fill="rgb(16,16,16)"/>
<path d="M71 42h1v1h-1v-1z" fill="rgb(82,82,90)"/>
<path d="M76 42h1v1h-1v-1z" fill="rgb(139,139,148)"/>
<path d="M77 42h1v1h-1v-1z" fill="rgb(16,16,16)"/>
<path d="M26 43h1v1h-1v-1z" fill="rgb(197,197,189)"/>
<path d="M31 43h1v1h-1v-1z" fill="rgb(82,82,90)"/>
<path d="M36 43h1v1h-1v-1z" fill="rgb(139,139,148)"/>
<path d="M37 43h1v1h-1v-1z" fill="rgb(16,16,16)"/>
<path d="M41 43h1v1h-1v-1z" fill="rgb(16,16,16)"/>
<path d="M46 43h1v3h-1v-3z" fill="rgb(82,82,90)"/>
<path d="M48 43h1v5h-1v-5z" fill="rgb(16,16,16)"/>
<path d="M62 43h1v1h-1v-1z" fill="rgb(82,82,90)"/>
<path d="M72 43h1v1h-1v-1z" fill="rgb(82,82,90)"/>
<path d="M77 43h1v2h-2v-1h1v-1z" fill="rgb(139,139,148)"/>
<path d="M78 43h1v1h-1v-1z" fill="rgb(16,16,16)"/>
<path d="M23 44h1v2h-1v-2z" fill="rgb(82,82,90)"/>
<path d="M24 44h1v1h2v5h-2v-2h-1v-4z" fill="rgb(197,197,189)"/>
<path d="M26 44h1v1h-1v-1z" fill="rgb(16,16,16)"/>
<path d="M30 44h1v1h-1v-1z" fill="rgb(82,82,90)"/>
<path d="M35 44h2v1h-2v-1z" fill="rgb(16,16,16)"/>
<path d="M37 44h2v1h-1v1h-2v-1h1v-1z" fill="rgb(230,82,57)"/>
<path d="M40 44h1v1h-1v-1z" fill="rgb(16,16,16)"/>
<path d="M43 44h1v1h-1v-1z" fill="rgb(16,16,16)"/>
<path d="M61 44h2v2h-1v1h-1v-3z" fill="rgb(139,139,148)"/>
<path d="M63 44h1v1h-1v-1z" fill="rgb(82,82,90)"/>
<path d="M73 44h1v2h-1v-2z" fill="rgb(82,82,90)"/>
<path d="M78 44h1v1h-1v-1z" fill="rgb(82,82,90)"/>
<path d="M79 44h1v1h-1v-1z" fill="rgb(16,16,16)"/>
<path d="M27 45h1v1h-1v-1z" fill="rgb(16,16,16)"/>
<path d="M33 45h2v1h-2v-1z" fill="rgb(16,16,16)"/>
<path d="M35 45h1v1h-1v-1z" fill="rgb(164,49,16)"/>
<path d="M38 45h1v1h-1v-1z" fill="rgb(164,49,16)"/>
<path d="M39 45h1v1h-1v-1z" fill="rgb(16,16,16)"/>
<path d="M42 45h1v1h-1v-1z" fill="rgb(16,16,16)"/>
<path d="M63 45h1v1h-1v-1z" fill="rgb(16,16,16)"/>
<path d="M75 45h1v1h-1v-1z" fill="rgb(139,139,148)"/>
<path d="M76 45h2v1h1v1h1v3h-2v-1h-3v-3h1v-1z" fill="rgb(197,197,189)"/>
<path d="M78 45h1v1h-1v-1z" fill="rgb(139,139,148)"/>
<path d="M79 45h1v1h-1v-1z" fill="rgb(82,82,90)"/>
<path d="M80 45h1v2h-1v-2z" fill="rgb(16,16,16)"/>
<path d="M21 46h2v2h1v2h1v1h2v1h-1v1h-2v1h-2v1h-1v1h-2v1h-2v-1h-1v-1h-2v-2h1v-1h3v-1h2
	v-1h1v-1h1v-2h-1v-1z" fill="rgb(139,139,148)"/>
<path d="M23 46h1v2h-1v-2z" fill="rgb(16,16,16)"/>
<path d="M27 46h1v4h-1v-4z" fill="rgb(82,82,90)"/>
<path d="M28 46h5v1h-5v-1z" fill="rgb(16,16,16)"/>
<path d="M33 46h1v1h-1v-1z" fill="rgb(139,139,148)"/>
<path d="M34 46h2v1h-2v-1z" fill="rgb(115,32,16)"/>
<path d="M36 46h2v1h-2v-1z" fill="rgb(16,16,16)"/>
<path d="M38 46h1v1h-1v-1z" fill="rgb(82,82,90)"/>
<path d="M39 46h1v1h-1v-1z" fill="rgb(197,197,189)"/>
<path d="M41 46h1v1h-1v-1z" fill="rgb(16,16,16)"/>
<path d="M52 46h4v1h-4v-1z" fill="rgb(82,82,90)"/>
<path d="M62 46h1v1h-1v-1z" fill="rgb(16,16,16)"/>
<path d="M74 46h1v5h-1v-5z" fill="rgb(82,82,90)"/>
<path d="M79 46h1v1h-1v-1z" fill="rgb(139,139,148)"/>
<path d="M18 47h3v1h-3v-1z" fill="rgb(139,139,148)"/>
<path d="M21 47h1v2h-1v1h-1v1h-2v1h-3v-1h-1v-1h1v-1h3v-1h3v-1z" fill="rgb(197,197,189)"/>
<path d="M28 47h5v1h1v1h-1v1h-1v4h-2v-2h-1v-2h-1v-3z" fill="rgb(197,197,189)"/>
<path d="M33 47h1v1h-1v-1z" fill="rgb(82,82,90)"/>
<path d="M34 47h1v1h-1v-1z" fill="rgb(139,139,148)"/>
<path d="M35 47h3v1h-3v-1z" fill="rgb(197,197,189)"/>
<path d="M38 47h1v1h-1v-1z" fill="rgb(139,139,148)"/>
<path d="M39 47h1v1h-1v-1z" fill="rgb(82,82,90)"/>
<path d="M40 47h1v1h-1v-1z" fill="rgb(16,16,16)"/>
<path d="M44 47h2v1h1v1h1v3h-1v1h-1v1h-1v-1h-1v-1h-1v-1h-1v-2h1v-1h1v-1z" fill="rgb(197,197,189)"/>
<path d="M51 47h1v2h-1v-2z" fill="rgb(82,82,90)"/>
<path d="M52 47h2v1h1v3h-1v2h-1v2h-1v1h-1v1h-2v1h-3v-1h-1v-1h1v-2h2v-1h1v-1h1v-1h1v-2h1
	v-2z" fill="rgb(197,197,189)"/>
<path d="M54 47h2v1h1v7h-1v4h-1v2h-1v1h-6v-1h-3v-4h1v1h3v-1h2v-1h1v-1h1v-2h1v-2h1v-3h-1
	v-1z" fill="rgb(139,139,148)"/>
<path d="M56 47h1v1h-1v-1z" fill="rgb(82,82,90)"/>
<path d="M60 47h1v1h-1v-1z" fill="rgb(82,82,90)"/>
<path d="M61 47h1v1h-1v-1z" fill="rgb(16,16,16)"/>
<path d="M80 47h1v3h1v2h-1v-1h-3v-1h2v-3z" fill="rgb(139,139,148)"/>
<path d="M81 47h1v2h-1v-2z" fill="rgb(16,16,16)"/>
<path d="M15 48h3v1h-3v-1z" fill="rgb(139,139,148)"/>
<path d="M24 48h1v2h-1v-2z" fill="rgb(16,16,16)"/>
<path d="M34 48h5v1h-5v-1z" fill="rgb(16,16,16)"/>
<path d="M49 48h1v2h-1v-2z" fill="rgb(16,16,16)"/>
<path d="M57 48h1v2h-1v-2z" fill="rgb(82,82,90)"/>
<path d="M59 48h1v2h-1v-2z" fill="rgb(16,16,16)"/>
<path d="M60 48h1v2h1v3h1v2h-2v-1h-2v-3h1v-3z" fill="rgb(197,197,189)"/>
<path d="M61 48h1v1h-1v-1z" fill="rgb(82,82,90)"/>
<path d="M62 48h1v3h-1v-3z" fill="rgb(16,16,16)"/>
<path d="M63 48h2v1h-2v-1z" fill="rgb(82,82,90)"/>
<path d="M13 49h2v1h-2v-1z" fill="rgb(139,139,148)"/>
<path d="M33 49h1v1h-1v-1z" fill="rgb(139,139,148)"/>
<path d="M34 49h2v1h-2v-1z" fill="rgb(82,82,90)"/>
<path d="M36 49h3v1h-3v-1z" fill="rgb(139,139,148)"/>
<path d="M39 49h1v1h-1v-1z" fill="rgb(16,16,16)"/>
<path d="M40 49h1v1h-1v-1z" fill="rgb(82,82,90)"/>
<path d="M50 49h1v2h-1v-2z" fill="rgb(82,82,90)"/>
<path d="M61 49h1v1h-1v-1z" fill="rgb(139,139,148)"/>
<path d="M63 49h2v2h-1v1h-1v-3z" fill="rgb(139,139,148)"/>
<path d="M65 49h1v2h-1v-2z" fill="rgb(16,16,16)"/>
<path d="M75 49h3v1h-3v-1z" fill="rgb(139,139,148)"/>
<path d="M81 49h1v1h-1v-1z" fill="rgb(82,82,90)"/>
<path d="M12 50h2v1h-2v-1z" fill="rgb(16,16,16)"/>
<path d="M25 50h1v1h-1v-1z" fill="rgb(16,16,16)"/>
<path d="M26 50h1v1h-1v-1z" fill="rgb(82,82,90)"/>
<path d="M27 50h1v1h-1v-1z" fill="rgb(139,139,148)"/>
<path d="M28 50h1v2h-1v-2z" fill="rgb(82,82,90)"/>
<path d="M32 50h1v1h-1v-1z" fill="rgb(139,139,148)"/>
<path d="M33 50h1v1h-1v-1z" fill="rgb(82,82,90)"/>
<path d="M34 50h2v1h-2v-1z" fill="rgb(139,139,148)"/>
<path d="M36 50h4v1h-4v-1z" fill="rgb(82,82,90)"/>
<path d="M40 50h1v1h-1v-1z" fill="rgb(16,16,16)"/>
<path d="M41 50h1v1h-1v-1z" fill="rgb(82,82,90)"/>
<path d="M57 50h2v1h-1v4h-1v-5z" fill="rgb(16,16,16)"/>
<path d="M59 50h1v1h-1v-1z" fill="rgb(139,139,148)"/>
<path d="M75 50h3v1h2v2h-1v2h-1v1h-1v-1h-1v-1h-2v-1h-1v-1h1v-1h1v-1z" fill="rgb(197,197,189)"/>
<path d="M82 50h1v7h-1v-7z" fill="rgb(16,16,16)"/>
<path d="M11 51h1v1h-1v-1z" fill="rgb(82,82,90)"/>
<path d="M12 51h2v2h-3v-1h1v-1z" fill="rgb(230,230,222)"/>
<path d="M14 51h1v2h-1v-2z" fill="rgb(16,16,16)"/>
<path d="M27 51h1v1h-1v-1z" fill="rgb(16,16,16)"/>
<path d="M32 51h1v1h-1v-1z" fill="rgb(82,82,90)"/>
<path d="M33 51h1v1h-1v-1z" fill="rgb(139,139,148)"/>
<path d="M34 51h1v1h-1v-1z" fill="rgb(82,82,90)"/>
<path d="M35 51h1v1h-1v-1z" fill="rgb(115,90,49)"/>
<path d="M36 51h6v1h-4v1h-2v1h-1v1h-2v-1h1v-2h2v-1z" fill="rgb(180,164,115)"/>
<path d="M42 51h1v1h-1v-1z" fill="rgb(16,16,16)"/>
<path d="M49 51h1v1h-1v-1z" fill="rgb(82,82,90)"/>
<path d="M58 51h1v3h-1v-3z" fill="rgb(139,139,148)"/>
<path d="M62 51h1v1h-1v-1z" fill="rgb(82,82,90)"/>
<path d="M64 51h1v3h-1v-1h-1v-1h1v-1z" fill="rgb(16,16,16)"/>
<path d="M73 51h1v1h-1v-1z" fill="rgb(82,82,90)"/>
<path d="M80 51h1v1h-1v-1z" fill="rgb(82,82,90)"/>
<path d="M10 52h1v1h-1v-1z" fill="rgb(82,82,90)"/>
<path d="M26 52h1v1h-1v-1z" fill="rgb(16,16,16)"/>
<path d="M29 52h1v2h-1v-2z" fill="rgb(82,82,90)"/>
<path d="M32 52h1v3h-1v-3z" fill="rgb(16,16,16)"/>
<path d="M33 52h1v1h-1v-1z" fill="rgb(82,82,90)"/>
<path d="M38 52h4v1h1v1h-1v1h-3v1h-5v-1h1v-1h1v-1h2v-1z" fill="rgb(230,213,172)"/>
<path d="M42 52h1v1h-1v-1z" fill="rgb(180,164,115)"/>
<path d="M43 52h1v1h-1v-1z" fill="rgb(16,16,16)"/>
<path d="M47 52h1v1h-1v-1z" fill="rgb(139,139,148)"/>
<path d="M48 52h1v1h-1v-1z" fill="rgb(82,82,90)"/>
<path d="M62 52h1v1h-1v-1z" fill="rgb(139,139,148)"/>
<path d="M71 52h1v1h-1v-1z" fill="rgb(16,16,16)"/>
<path d="M72 52h1v1h1v1h-3v-1h1v-1z" fill="rgb(82,82,90)"/>
<path d="M80 52h1v3h1v2h-1v3h-1v2h-1v-4h-1v-3h1v-2h1v-1z" fill="rgb(139,139,148)"/>
<path d="M81 52h1v3h-1v-3z" fill="rgb(82,82,90)"/>
<path d="M10 53h4v2h-1v-1h-3v-1z" fill="rgb(16,16,16)"/>
<path d="M24 53h1v1h-1v-1z" fill="rgb(82,82,90)"/>
<path d="M25 53h1v1h-1v-1z" fill="rgb(16,16,16)"/>
<path d="M33 53h1v1h-1v-1z" fill="rgb(115,90,49)"/>
<path d="M43 53h1v1h-1v-1z" fill="rgb(180,164,115)"/>
<path d="M44 53h1v1h-1v-1z" fill="rgb(16,16,16)"/>
<path d="M46 53h2v1h-2v-1z" fill="rgb(82,82,90)"/>
<path d="M63 53h1v2h-1v-2z" fill="rgb(82,82,90)"/>
<path d="M69 53h2v1h-2v-1z" fill="rgb(16,16,16)"/>
<path d="M11 54h1v2h1v1h-2v-3z" fill="rgb(82,82,90)"/>
<path d="M12 54h1v1h-1v-1z" fill="rgb(197,197,189)"/>
<path d="M22 54h2v1h-2v-1z" fill="rgb(16,16,16)"/>
<path d="M30 54h1v1h-1v-1z" fill="rgb(16,16,16)"/>
<path d="M31 54h1v1h-1v-1z" fill="rgb(82,82,90)"/>
<path d="M42 54h1v1h-1v-1z" fill="rgb(180,164,115)"/>
<path d="M43 54h1v1h-1v-1z" fill="rgb(115,90,49)"/>
<path d="M44 54h1v2h-1v1h-1v1h-1v2h-1v1h-7v-1h-1v-1h-1v-2h1v-1h1v1h5v-1h3v-1h2v-1z" fill="rgb(230,213,172)"/>
<path d="M45 54h1v2h-1v-2z" fill="rgb(82,82,90)"/>
<path d="M58 54h2v1h-2v-1z" fill="rgb(82,82,90)"/>
<path d="M60 54h1v1h-1v-1z" fill="rgb(16,16,16)"/>
<path d="M64 54h1v1h-1v-1z" fill="rgb(139,139,148)"/>
<path d="M65 54h4v1h-4v-1z" fill="rgb(16,16,16)"/>
<path d="M69 54h5v1h2v1h1v1h-4v-1h-3v-1h-1v-1z" fill="rgb(197,197,189)"/>
<path d="M74 54h2v1h-2v-1z" fill="rgb(82,82,90)"/>
<path d="M12 55h1v1h-1v-1z" fill="rgb(255,255,255)"/>
<path d="M13 55h2v4h-1v-3h-1v-1z" fill="rgb(82,82,90)"/>
<path d="M15 55h1v1h-1v-1z" fill="rgb(16,16,16)"/>
<path d="M21 55h1v1h-1v-1z" fill="rgb(16,16,16)"/>
<path d="M31 55h1v1h-1v-1z" fill="rgb(16,16,16)"/>
<path d="M32 55h2v1h-2v-1z" fill="rgb(115,90,49)"/>
<path d="M39 55h1v1h-1v-1z" fill="rgb(180,164,115)"/>
<path d="M40 55h2v1h-2v-1z" fill="rgb(115,90,49)"/>
<path d="M56 55h1v4h-1v-4z" fill="rgb(16,16,16)"/>
<path d="M57 55h3v1h1v1h1v2h1v6h-1v2h-1v1h-2v1h-4v-1h-1v-1h-1v-2h-1v-2h2v-1h1v1h2v-1h1
	v-3h-1v-4z" fill="rgb(197,197,189)"/>
<path d="M60 55h1v1h-1v-1z" fill="rgb(139,139,148)"/>
<path d="M61 55h2v1h-2v-1z" fill="rgb(16,16,16)"/>
<path d="M63 55h1v1h-1v-1z" fill="rgb(139,139,148)"/>
<path d="M64 55h1v2h-1v-2z" fill="rgb(82,82,90)"/>
<path d="M65 55h1v1h2v1h2v1h1v2h1v8h-1v2h-1v1h-1v1h-2v-2h1v-6h-1v-3h-1v-2h-1v-4z" fill="rgb(139,139,148)"/>
<path d="M66 55h2v1h-2v-1z" fill="rgb(82,82,90)"/>
<path d="M68 55h2v1h-2v-1z" fill="rgb(139,139,148)"/>
<path d="M76 55h1v1h-1v-1z" fill="rgb(139,139,148)"/>
<path d="M15 56h1v1h-1v-1z" fill="rgb(197,197,189)"/>
<path d="M16 56h1v1h-1v-1z" fill="rgb(82,82,90)"/>
<path d="M19 56h2v1h-2v-1z" fill="rgb(16,16,16)"/>
<path d="M31 56h1v3h-1v-3z" fill="rgb(115,90,49)"/>
<path d="M32 56h1v1h-1v-1z" fill="rgb(180,164,115)"/>
<path d="M34 56h5v1h-5v-1z" fill="rgb(115,90,49)"/>
<path d="M44 56h1v4h-1v-4z" fill="rgb(82,82,90)"/>
<path d="M61 56h2v1h1v2h1v2h1v3h1v6h-1v4h1v1h-2v1h-1v1h-1v-1h-1v-1h-2v-1h-2v-1h-1v-1h-1
	v-1h-1v-1h-1v-2h1v1h4v-1h2v-1h1v-2h1v-6h-1v-2h-1v-1z" fill="rgb(139,139,148)"/>
<path d="M63 56h1v1h-1v-1z" fill="rgb(16,16,16)"/>
<path d="M68 56h2v1h-2v-1z" fill="rgb(82,82,90)"/>
<path d="M70 56h3v1h4v1h1v4h1v2h-1v1h-1v2h-1v1h-1v1h-1v1h-2v-2h1v-8h-1v-2h-1v-1h-1v-1z" fill="rgb(139,139,148)"/>
<path d="M77 56h1v2h-1v-2z" fill="rgb(82,82,90)"/>
<path d="M15 57h1v1h-1v-1z" fill="rgb(255,255,255)"/>
<path d="M16 57h3v1h-3v-1z" fill="rgb(16,16,16)"/>
<path d="M43 57h1v1h-1v-1z" fill="rgb(139,139,148)"/>
<path d="M64 57h1v1h-1v-1z" fill="rgb(16,16,16)"/>
<path d="M70 57h1v1h-1v-1z" fill="rgb(82,82,90)"/>
<path d="M81 57h1v3h-1v-3z" fill="rgb(16,16,16)"/>
<path d="M15 58h1v1h-1v-1z" fill="rgb(16,16,16)"/>
<path d="M30 58h1v1h-1v-1z" fill="rgb(16,16,16)"/>
<path d="M42 58h1v2h-1v-2z" fill="rgb(139,139,148)"/>
<path d="M43 58h1v2h-1v-2z" fill="rgb(255,255,255)"/>
<path d="M64 58h1v1h-1v-1z" fill="rgb(82,82,90)"/>
<path d="M71 58h1v2h-1v-2z" fill="rgb(82,82,90)"/>
<path d="M78 58h1v4h-1v-4z" fill="rgb(82,82,90)"/>
<path d="M28 59h1v1h-1v-1z" fill="rgb(16,16,16)"/>
<path d="M29 59h1v1h-1v-1z" fill="rgb(82,82,90)"/>
<path d="M30 59h2v4h-1v1h-1v1h-2v1h-3v-3h1v-1h1v-1h1v1h2v-1h1v-1h-1v-1z" fill="rgb(197,197,189)"/>
<path d="M32 59h1v1h-1v-1z" fill="rgb(115,90,49)"/>
<path d="M55 59h1v2h-1v-2z" fill="rgb(16,16,16)"/>
<path d="M56 59h2v3h-1v1h-2v-2h1v-2z" fill="rgb(230,230,222)"/>
<path d="M65 59h1v1h-1v-1z" fill="rgb(16,16,16)"/>
<path d="M27 60h1v1h-1v-1z" fill="rgb(16,16,16)"/>
<path d="M28 60h1v1h-1v-1z" fill="rgb(197,197,189)"/>
<path d="M29 60h2v1h-1v1h-2v-1h1v-1z" fill="rgb(230,230,222)"/>
<path d="M32 60h1v3h-1v-3z" fill="rgb(16,16,16)"/>
<path d="M33 60h1v1h-1v-1z" fill="rgb(115,90,49)"/>
<path d="M41 60h1v1h-1v-1z" fill="rgb(115,90,49)"/>
<path d="M42 60h3v1h-3v-1z" fill="rgb(16,16,16)"/>
<path d="M65 60h1v1h-1v-1z" fill="rgb(82,82,90)"/>
<path d="M72 60h1v8h-1v-8z" fill="rgb(82,82,90)"/>
<path d="M80 60h1v2h-1v-2z" fill="rgb(16,16,16)"/>
<path d="M26 61h1v1h-1v-1z" fill="rgb(82,82,90)"/>
<path d="M33 61h1v1h7v-1h4v2h-3v1h-7v-1h-2v-2z" fill="rgb(230,213,172)"/>
<path d="M34 61h7v1h-7v-1z" fill="rgb(115,90,49)"/>
<path d="M45 61h2v1h-2v-1z" fill="rgb(16,16,16)"/>
<path d="M47 61h1v1h-1v-1z" fill="rgb(82,82,90)"/>
<path d="M54 61h1v1h-1v-1z" fill="rgb(16,16,16)"/>
<path d="M66 61h1v2h-1v-2z" fill="rgb(16,16,16)"/>
<path d="M25 62h1v1h-1v-1z" fill="rgb(82,82,90)"/>
<path d="M45 62h1v2h-1v-2z" fill="rgb(139,139,148)"/>
<path d="M46 62h2v1h-1v1h-1v-2z" fill="rgb(255,255,255)"/>
<path d="M48 62h2v1h-2v-1z" fill="rgb(82,82,90)"/>
<path d="M50 62h1v1h-1v-1z" fill="rgb(197,197,189)"/>
<path d="M51 62h1v1h-1v-1z" fill="rgb(255,255,255)"/>
<path d="M52 62h2v1h-2v-1z" fill="rgb(16,16,16)"/>
<path d="M79 62h1v2h-1v-2z" fill="rgb(16,16,16)"/>
<path d="M24 63h1v2h-1v-2z" fill="rgb(82,82,90)"/>
<path d="M31 63h2v2h-1v1h-1v1h-1v2h-1v2h1v-2h1v-2h1v-1h2v2h1v1h1v1h1v1h-1v1h-4v1h3v1h-3
	v1h-3v-1h-2v-1h-1v-1h2v-1h-2v-1h-1v-1h-1v-4h1v1h3v-1h2v-1h1v-1z" fill="rgb(139,139,148)"/>
<path d="M33 63h1v1h-1v-1z" fill="rgb(115,90,49)"/>
<path d="M34 63h1v1h7v-1h3v2h2v1h-3v1h-8v-1h-1v-1h-1v-2z" fill="rgb(180,164,115)"/>
<path d="M47 63h2v1h-2v-1z" fill="rgb(16,16,16)"/>
<path d="M49 63h1v1h-1v-1z" fill="rgb(139,139,148)"/>
<path d="M50 63h1v1h-1v-1z" fill="rgb(255,255,255)"/>
<path d="M51 63h1v1h-1v-1z" fill="rgb(16,16,16)"/>
<path d="M66 63h1v1h-1v-1z" fill="rgb(82,82,90)"/>
<path d="M33 64h1v2h-1v-2z" fill="rgb(16,16,16)"/>
<path d="M45 64h2v1h-2v-1z" fill="rgb(16,16,16)"/>
<path d="M47 64h2v1h-2v-1z" fill="rgb(180,164,115)"/>
<path d="M49 64h2v1h-2v-1z" fill="rgb(16,16,16)"/>
<path d="M51 64h1v2h-1v-2z" fill="rgb(82,82,90)"/>
<path d="M67 64h1v5h-1v-5z" fill="rgb(16,16,16)"/>
<path d="M78 64h1v1h-1v-1z" fill="rgb(82,82,90)"/>
<path d="M23 65h1v2h-1v-2z" fill="rgb(82,82,90)"/>
<path d="M32 65h1v1h-1v-1z" fill="rgb(82,82,90)"/>
<path d="M34 65h1v1h-1v-1z" fill="rgb(115,90,49)"/>
<path d="M47 65h2v1h-2v-1z" fill="rgb(115,90,49)"/>
<path d="M49 65h2v5h-1v1h-3v1h-5v-1h-3v-1h-2v-1h-1v-1h8v-1h3v-1h2v-1z" fill="rgb(180,164,115)"/>
<path d="M52 65h1v1h-1v-1z" fill="rgb(139,139,148)"/>
<path d="M77 65h1v1h-1v-1z" fill="rgb(82,82,90)"/>
<path d="M78 65h1v1h-1v-1z" fill="rgb(16,16,16)"/>
<path d="M31 66h1v1h-1v-1z" fill="rgb(82,82,90)"/>
<path d="M34 66h1v2h-1v-2z" fill="rgb(16,16,16)"/>
<path d="M35 66h1v1h-1v-1z" fill="rgb(115,90,49)"/>
<path d="M44 66h3v1h-3v-1z" fill="rgb(115,90,49)"/>
<path d="M51 66h1v4h-1v-4z" fill="rgb(16,16,16)"/>
<path d="M52 66h1v2h-1v-2z" fill="rgb(82,82,90)"/>
<path d="M77 66h1v1h-1v-1z" fill="rgb(16,16,16)"/>
<path d="M23 67h1v2h-1v-2z" fill="rgb(16,16,16)"/>
<path d="M30 67h1v2h-1v-2z" fill="rgb(82,82,90)"/>
<path d="M35 67h1v1h-1v-1z" fill="rgb(180,164,115)"/>
<path d="M36 67h8v1h-8v-1z" fill="rgb(115,90,49)"/>
<path d="M53 67h1v1h-1v-1z" fill="rgb(139,139,148)"/>
<path d="M76 67h1v1h-1v-1z" fill="rgb(16,16,16)"/>
<path d="M35 68h1v1h-1v-1z" fill="rgb(16,16,16)"/>
<path d="M52 68h1v2h-1v-2z" fill="rgb(139,139,148)"/>
<path d="M53 68h1v2h-1v-2z" fill="rgb(82,82,90)"/>
<path d="M71 68h1v2h-1v-2z" fill="rgb(82,82,90)"/>
<path d="M75 68h1v1h-1v-1z" fill="rgb(16,16,16)"/>
<path d="M24 69h1v1h-1v-1z" fill="rgb(16,16,16)"/>
<path d="M29 69h1v2h-1v-2z" fill="rgb(82,82,90)"/>
<path d="M36 69h1v1h-1v-1z" fill="rgb(16,16,16)"/>
<path d="M67 69h1v1h-1v-1z" fill="rgb(82,82,90)"/>
<path d="M74 69h1v1h-1v-1z" fill="rgb(16,16,16)"/>
<path d="M25 70h1v1h-1v-1z" fill="rgb(16,16,16)"/>
<path d="M37 70h1v1h-1v-1z" fill="rgb(16,16,16)"/>
<path d="M38 70h1v1h-1v-1z" fill="rgb(115,90,49)"/>
<path d="M50 70h2v1h-2v-1z" fill="rgb(115,90,49)"/>
<path d="M52 70h1v1h-1v-1z" fill="rgb(82,82,90)"/>
<path d="M53 70h1v1h1v1h1v1h-2v-1h-1v-2z" fill="rgb(139,139,148)"/>
<path d="M54 70h1v1h-1v-1z" fill="rgb(82,82,90)"/>
<path d="M66 70h1v1h-1v-1z" fill="rgb(82,82,90)"/>
<path d="M70 70h1v1h-1v-1z" fill="rgb(82,82,90)"/>
<path d="M71 70h1v1h-1v-1z" fill="rgb(139,139,148)"/>
<path d="M72 70h2v1h-2v-1z" fill="rgb(16,16,16)"/>
<path d="M25 71h1v1h-1v-1z" fill="rgb(82,82,90)"/>
<path d="M26 71h1v1h-1v-1z" fill="rgb(16,16,16)"/>
<path d="M27 71h1v1h-1v-1z" fill="rgb(82,82,90)"/>
<path d="M36 71h2v1h-2v-1z" fill="rgb(82,82,90)"/>
<path d="M38 71h1v1h-1v-1z" fill="rgb(16,16,16)"/>
<path d="M39 71h3v1h-3v-1z" fill="rgb(115,90,49)"/>
<path d="M47 71h1v1h-1v-1z" fill="rgb(115,90,49)"/>
<path d="M48 71h2v1h-2v-1z" fill="rgb(82,82,90)"/>
<path d="M50 71h2v1h1v1h1v1h1v1h-8v-1h-4v-1h5v-1h2v-1z" fill="rgb(139,139,148)"/>
<path d="M52 71h1v1h-1v-1z" fill="rgb(16,16,16)"/>
<path d="M55 71h1v1h-1v-1z" fill="rgb(82,82,90)"/>
<path d="M64 71h1v2h-1v-2z" fill="rgb(82,82,90)"/>
<path d="M66 71h1v1h3v1h-3v1h-1v-3z" fill="rgb(16,16,16)"/>
<path d="M69 71h1v1h-1v-1z" fill="rgb(82,82,90)"/>
<path d="M70 71h2v1h-2v-1z" fill="rgb(16,16,16)"/>
<path d="M23 72h1v1h-1v-1z" fill="rgb(82,82,90)"/>
<path d="M24 72h1v1h-1v-1z" fill="rgb(139,139,148)"/>
<path d="M25 72h1v1h-1v-1z" fill="rgb(197,197,189)"/>
<path d="M32 72h1v1h-1v-1z" fill="rgb(82,82,90)"/>
<path d="M33 72h1v1h-1v-1z" fill="rgb(16,16,16)"/>
<path d="M34 72h1v1h-1v-1z" fill="rgb(82,82,90)"/>
<path d="M35 72h1v2h-1v-2z" fill="rgb(16,16,16)"/>
<path d="M39 72h1v1h-1v-1z" fill="rgb(16,16,16)"/>
<path d="M40 72h8v1h-8v-1z" fill="rgb(82,82,90)"/>
<path d="M53 72h1v1h-1v-1z" fill="rgb(16,16,16)"/>
<path d="M56 72h1v1h-1v-1z" fill="rgb(82,82,90)"/>
<path d="M22 73h1v1h-1v-1z" fill="rgb(82,82,90)"/>
<path d="M23 73h1v1h-1v-1z" fill="rgb(255,255,255)"/>
<path d="M24 73h1v1h-1v-1z" fill="rgb(197,197,189)"/>
<path d="M25 73h2v1h-2v-1z" fill="rgb(82,82,90)"/>
<path d="M40 73h3v1h-3v-1z" fill="rgb(16,16,16)"/>
<path d="M54 73h2v2h-1v-1h-1v-1z" fill="rgb(16,16,16)"/>
<path d="M56 73h1v1h1v1h-2v-2z" fill="rgb(139,139,148)"/>
<path d="M57 73h1v1h-1v-1z" fill="rgb(82,82,90)"/>
<path d="M63 73h1v1h-1v-1z" fill="rgb(82,82,90)"/>
<path d="M22 74h2v1h-2v-1z" fill="rgb(16,16,16)"/>
<path d="M24 74h1v1h-1v-1z" fill="rgb(82,82,90)"/>
<path d="M25 74h4v1h-3v1h-2v-1h1v-1z" fill="rgb(255,255,255)"/>
<path d="M32 74h1v1h-1v-1z" fill="rgb(82,82,90)"/>
<path d="M33 74h2v1h-2v-1z" fill="rgb(16,16,16)"/>
<path d="M43 74h2v1h-2v-1z" fill="rgb(82,82,90)"/>
<path d="M45 74h2v1h-2v-1z" fill="rgb(16,16,16)"/>
<path d="M58 74h2v1h2v1h1v1h-1v1h-1v-1h-1v-1h-3v1h-1v1h-1v-2h1v-1h2v-1z" fill="rgb(197,197,189)"/>
<path d="M67 74h1v2h-1v-2z" fill="rgb(16,16,16)"/>
<path d="M23 75h1v1h-1v-1z" fill="rgb(82,82,90)"/>
<path d="M26 75h1v1h-1v-1z" fill="rgb(197,197,189)"/>
<path d="M27 75h1v1h-1v-1z" fill="rgb(82,82,90)"/>
<path d="M28 75h4v1h-4v-1z" fill="rgb(16,16,16)"/>
<path d="M47 75h2v1h-2v-1z" fill="rgb(82,82,90)"/>
<path d="M49 75h6v3h-1v-2h-5v-1z" fill="rgb(16,16,16)"/>
<path d="M55 75h1v1h-1v-1z" fill="rgb(139,139,148)"/>
<path d="M65 75h2v1h-2v-1z" fill="rgb(82,82,90)"/>
<path d="M23 76h4v1h-4v-1z" fill="rgb(16,16,16)"/>
<path d="M57 76h2v1h-2v-1z" fill="rgb(139,139,148)"/>
<path d="M59 76h1v1h-1v-1z" fill="rgb(82,82,90)"/>
<path d="M64 76h1v1h-1v-1z" fill="rgb(82,82,90)"/>
<path d="M65 76h1v1h1v1h1v1h-2v-1h-2v-1h1v-1z" fill="rgb(255,255,255)"/>
<path d="M66 76h1v1h-1v-1z" fill="rgb(197,197,189)"/>
<path d="M67 76h1v1h-1v-1z" fill="rgb(82,82,90)"/>
<path d="M68 76h1v1h-1v-1z" fill="rgb(16,16,16)"/>
<path d="M56 77h1v1h-1v-1z" fill="rgb(139,139,148)"/>
<path d="M57 77h3v1h1v1h-3v-1h-1v-1z" fill="rgb(255,255,255)"/>
<path d="M60 77h1v1h-1v-1z" fill="rgb(82,82,90)"/>
<path d="M62 77h1v1h-1v-1z" fill="rgb(139,139,148)"/>
<path d="M63 77h1v1h-1v-1z" fill="rgb(82,82,90)"/>
<path d="M67 77h1v1h-1v-1z" fill="rgb(197,197,189)"/>
<path d="M68 77h1v1h-1v-1z" fill="rgb(82,82,90)"/>
<path d="M55 78h2v1h-2v-1z" fill="rgb(16,16,16)"/>
<path d="M57 78h1v1h-1v-1z" fill="rgb(197,197,189)"/>
<path d="M61 78h1v1h-1v-1z" fill="rgb(82,82,90)"/>
<path d="M62 78h3v1h-3v-1z" fill="rgb(16,16,16)"/>
<path d="M65 78h1v1h-1v-1z" fill="rgb(197,197,189)"/>
<path d="M68 78h1v1h-1v-1z" fill="rgb(197,197,189)"/>
<path d="M69 78h1v2h-5v-1h4v-1z" fill="rgb(16,16,16)"/>
<path d="M57 79h2v1h-2v-1z" fill="rgb(16,16,16)"/>
<path d="M59 79h2v1h-2v-1z" fill="rgb(197,197,189)"/>
<path d="M61 79h1v2h-3v-1h2v-1z" fill="rgb(16,16,16)"/>
</svg>
