<?xml version="1.0" encoding="utf-8"?>
<!-- generated at drububu.com  -->
<!DOCTYPE svg PUBLIC "-//W3C//DTD SVG 1.1//EN" "http://www.w3.org/Graphics/SVG/1.1/DTD/svg11.dtd">
<svg version="1.1" preserveAspectRatio="xMinYMin meet" xmlns="http://www.w3.org/2000/svg" xmlns:xlink="http://www.w3.org/1999/xlink" x="0px" y="0px" width="96px" height="96px" viewBox="0 0 96 96">
<path d="M0 0h96v96h-96v-96z" fill="transparent"/>
<path d="M44 26h4v1h-4v-1z" fill="rgb(255,172,172)"/>
<path d="M48 26h4v1h-4v-1z" fill="rgb(230,115,123)"/>
<path d="M42 27h2v1h-2v-1z" fill="rgb(255,172,172)"/>
<path d="M44 27h5v1h1v4h-1v1h-2v1h-5v-1h-1v-1h-1v-2h1v-1h1v-1h2v-1z" fill="rgb(255,230,230)"/>
<path d="M49 27h3v1h2v1h2v2h-1v3h1v2h1v1h1v2h1v1h1v1h1v1h2v2h-3v-1h-1v-1h-1v-1h-1v-1h-1
	v1h1v1h1v1h1v1h1v1h1v1h-1v4h-1v2h-1v2h-1v2h-1v1h-2v1h-1v-4h-1v-1h2v-1h-2v-1h1
	v-2h-1v-1h-1v1h-1v-1h-1v-1h-2v-1h-3v1h-2v1h-1v1h-1v-1h-1v-1h-1v-2h-1v1h-1v1h2v1
	h-1v2h-3v1h3v1h2v2h-1v4h-2v-1h-2v-1h-1v-2h-1v-1h-1v-2h-1v-4h1v-1h1v-1h1v-1h-2
	v-1h-1v-1h1v-1h1v-1h1v-1h-1v-2h1v1h1v-1h1v-2h1v-2h1v-1h1v-1h1v-1h1v2h1v1h1v1h5
	v-1h2v-1h1v-4h-1v-1z" fill="rgb(255,213,213)"/>
<path d="M52 27h2v1h-2v-1z" fill="rgb(230,115,123)"/>
<path d="M40 28h2v1h-2v-1z" fill="rgb(255,172,172)"/>
<path d="M54 28h2v1h-2v-1z" fill="rgb(230,115,123)"/>
<path d="M39 29h1v1h-1v-1z" fill="rgb(230,115,123)"/>
<path d="M40 29h1v1h-1v-1z" fill="rgb(255,213,213)"/>
<path d="M56 29h1v1h-1v-1z" fill="rgb(139,65,65)"/>
<path d="M38 30h1v1h-1v-1z" fill="rgb(230,115,123)"/>
<path d="M56 30h1v1h1v1h1v1h1v1h1v1h1v2h-1v1h1v1h-1v1h-1v-1h-1v-1h-1v-1h-1v-1h-1v-2h-1
	v-3h1v-1z" fill="rgb(255,172,172)"/>
<path d="M57 30h1v1h-1v-1z" fill="rgb(16,16,16)"/>
<path d="M37 31h1v1h-1v-1z" fill="rgb(230,115,123)"/>
<path d="M58 31h1v1h-1v-1z" fill="rgb(16,16,16)"/>
<path d="M36 32h1v1h-1v-1z" fill="rgb(230,115,123)"/>
<path d="M59 32h1v1h-1v-1z" fill="rgb(16,16,16)"/>
<path d="M35 33h1v2h-1v-2z" fill="rgb(230,115,123)"/>
<path d="M60 33h1v1h-1v-1z" fill="rgb(16,16,16)"/>
<path d="M34 34h1v1h-1v-1z" fill="rgb(139,65,65)"/>
<path d="M41 34h1v1h-1v-1z" fill="rgb(255,255,255)"/>
<path d="M47 34h1v1h-1v-1z" fill="rgb(255,255,255)"/>
<path d="M61 34h1v1h-1v-1z" fill="rgb(16,16,16)"/>
<path d="M33 35h1v1h-1v-1z" fill="rgb(139,65,65)"/>
<path d="M34 35h1v1h-1v-1z" fill="rgb(230,115,123)"/>
<path d="M41 35h1v2h-1v-2z" fill="rgb(16,16,16)"/>
<path d="M47 35h1v2h-1v-2z" fill="rgb(16,16,16)"/>
<path d="M62 35h1v1h-1v-1z" fill="rgb(139,65,65)"/>
<path d="M32 36h1v1h-1v-1z" fill="rgb(139,65,65)"/>
<path d="M33 36h1v1h-1v-1z" fill="rgb(255,213,213)"/>
<path d="M34 36h1v1h-1v-1z" fill="rgb(255,172,172)"/>
<path d="M62 36h1v1h2v1h2v1h-3v-1h-2v-2z" fill="rgb(255,213,213)"/>
<path d="M63 36h2v1h-2v-1z" fill="rgb(139,65,65)"/>
<path d="M30 37h2v1h-2v-1z" fill="rgb(139,65,65)"/>
<path d="M33 37h1v1h-1v-1z" fill="rgb(255,172,172)"/>
<path d="M61 37h1v1h-1v-1z" fill="rgb(230,115,123)"/>
<path d="M65 37h5v1h-5v-1z" fill="rgb(139,65,65)"/>
<path d="M28 38h2v1h-2v-1z" fill="rgb(139,65,65)"/>
<path d="M30 38h1v1h-1v-1z" fill="rgb(255,213,213)"/>
<path d="M31 38h1v1h-1v-1z" fill="rgb(230,115,123)"/>
<path d="M42 38h5v1h-5v-1z" fill="rgb(16,16,16)"/>
<path d="M58 38h1v1h-1v-1z" fill="rgb(230,115,123)"/>
<path d="M62 38h2v1h-2v-1z" fill="rgb(230,115,123)"/>
<path d="M67 38h2v2h-2v-2z" fill="rgb(255,131,90)"/>
<path d="M69 38h1v1h2v2h-3v-3z" fill="rgb(238,90,49)"/>
<path d="M70 38h2v1h-2v-1z" fill="rgb(139,65,65)"/>
<path d="M26 39h2v1h-2v-1z" fill="rgb(139,65,65)"/>
<path d="M28 39h2v1h-2v-1z" fill="rgb(255,213,213)"/>
<path d="M30 39h1v1h-1v-1z" fill="rgb(230,115,123)"/>
<path d="M31 39h1v1h-1v-1z" fill="rgb(255,213,213)"/>
<path d="M32 39h1v1h-1v-1z" fill="rgb(255,172,172)"/>
<path d="M42 39h1v1h-1v-1z" fill="rgb(255,172,172)"/>
<path d="M43 39h1v1h-1v-1z" fill="rgb(139,65,65)"/>
<path d="M44 39h2v1h-2v-1z" fill="rgb(238,90,49)"/>
<path d="M46 39h1v1h-1v-1z" fill="rgb(139,65,65)"/>
<path d="M59 39h1v1h-1v-1z" fill="rgb(139,65,65)"/>
<path d="M61 39h3v1h2v2h-3v-1h-2v-2z" fill="rgb(255,213,213)"/>
<path d="M64 39h2v1h-2v-1z" fill="rgb(139,65,65)"/>
<path d="M66 39h1v1h-1v-1z" fill="rgb(255,172,172)"/>
<path d="M72 39h1v2h-1v-2z" fill="rgb(139,65,65)"/>
<path d="M25 40h1v1h-1v-1z" fill="rgb(139,65,65)"/>
<path d="M26 40h2v1h-2v-1z" fill="rgb(255,131,90)"/>
<path d="M28 40h2v1h-2v-1z" fill="rgb(139,65,65)"/>
<path d="M30 40h1v1h-1v-1z" fill="rgb(255,213,213)"/>
<path d="M31 40h1v1h-1v-1z" fill="rgb(230,115,123)"/>
<path d="M43 40h1v1h-1v-1z" fill="rgb(255,172,172)"/>
<path d="M44 40h2v1h-2v-1z" fill="rgb(139,65,65)"/>
<path d="M46 40h1v1h-1v-1z" fill="rgb(255,172,172)"/>
<path d="M56 40h1v1h-1v-1z" fill="rgb(255,172,172)"/>
<path d="M60 40h1v1h-1v-1z" fill="rgb(139,65,65)"/>
<path d="M66 40h3v1h-3v-1z" fill="rgb(16,16,16)"/>
<path d="M24 41h1v1h1v1h-2v-2z" fill="rgb(139,65,65)"/>
<path d="M25 41h1v1h-1v-1z" fill="rgb(238,90,49)"/>
<path d="M26 41h2v1h-2v-1z" fill="rgb(139,65,65)"/>
<path d="M28 41h1v2h-1v-2z" fill="rgb(255,131,90)"/>
<path d="M29 41h1v1h-1v-1z" fill="rgb(255,213,213)"/>
<path d="M30 41h1v1h-1v-1z" fill="rgb(139,65,65)"/>
<path d="M57 41h1v1h-1v-1z" fill="rgb(255,172,172)"/>
<path d="M61 41h2v1h-2v-1z" fill="rgb(139,65,65)"/>
<path d="M66 41h1v1h-1v-1z" fill="rgb(255,172,172)"/>
<path d="M67 41h2v3h-2v-1h-1v-1h1v-1z" fill="rgb(255,131,90)"/>
<path d="M69 41h3v1h-3v-1z" fill="rgb(16,16,16)"/>
<path d="M26 42h2v2h-2v1h-2v-2h2v-1z" fill="rgb(238,90,49)"/>
<path d="M29 42h1v1h-1v-1z" fill="rgb(139,65,65)"/>
<path d="M34 42h1v1h-1v-1z" fill="rgb(255,172,172)"/>
<path d="M44 42h2v1h-2v-1z" fill="rgb(255,172,172)"/>
<path d="M58 42h1v1h-1v-1z" fill="rgb(230,115,123)"/>
<path d="M63 42h2v1h-2v-1z" fill="rgb(16,16,16)"/>
<path d="M65 42h1v1h-1v-1z" fill="rgb(255,172,172)"/>
<path d="M69 42h3v1h1v2h-3v-1h-1v-2z" fill="rgb(238,90,49)"/>
<path d="M72 42h1v1h-1v-1z" fill="rgb(139,65,65)"/>
<path d="M23 43h1v2h-1v-2z" fill="rgb(139,65,65)"/>
<path d="M28 43h1v1h-1v-1z" fill="rgb(16,16,16)"/>
<path d="M29 43h2v1h1v1h-1v1h-2v-1h-1v-1h1v-1z" fill="rgb(255,131,90)"/>
<path d="M33 43h1v1h-1v-1z" fill="rgb(230,115,123)"/>
<path d="M59 43h1v1h-1v-1z" fill="rgb(230,115,123)"/>
<path d="M63 43h1v1h-1v-1z" fill="rgb(255,172,172)"/>
<path d="M64 43h1v1h2v3h-3v-1h-2v-1h1v-1h1v-1z" fill="rgb(255,131,90)"/>
<path d="M65 43h2v1h-2v-1z" fill="rgb(16,16,16)"/>
<path d="M73 43h1v2h-1v-2z" fill="rgb(139,65,65)"/>
<path d="M26 44h2v1h-2v-1z" fill="rgb(16,16,16)"/>
<path d="M32 44h1v1h-1v-1z" fill="rgb(139,65,65)"/>
<path d="M60 44h1v1h-1v-1z" fill="rgb(139,65,65)"/>
<path d="M61 44h2v1h-2v-1z" fill="rgb(255,172,172)"/>
<path d="M67 44h2v1h-2v-1z" fill="rgb(16,16,16)"/>
<path d="M69 44h1v1h-1v-1z" fill="rgb(139,65,65)"/>
<path d="M24 45h1v1h-1v-1z" fill="rgb(139,65,65)"/>
<path d="M25 45h1v1h-1v-1z" fill="rgb(16,16,16)"/>
<path d="M26 45h3v1h1v1h-2v1h-3v-2h1v-1z" fill="rgb(238,90,49)"/>
<path d="M31 45h1v1h-1v-1z" fill="rgb(16,16,16)"/>
<path d="M37 45h1v2h-2v-1h1v-1z" fill="rgb(255,172,172)"/>
<path d="M61 45h1v1h-1v-1z" fill="rgb(16,16,16)"/>
<path d="M67 45h2v1h1v2h-4v-1h1v-2z" fill="rgb(238,90,49)"/>
<path d="M69 45h1v1h-1v-1z" fill="rgb(16,16,16)"/>
<path d="M70 45h3v1h-3v-1z" fill="rgb(139,65,65)"/>
<path d="M24 46h1v2h-1v-2z" fill="rgb(16,16,16)"/>
<path d="M30 46h1v1h-1v-1z" fill="rgb(16,16,16)"/>
<path d="M44 46h3v1h-3v-1z" fill="rgb(115,106,74)"/>
<path d="M53 46h1v1h1v1h-2v-2z" fill="rgb(255,172,172)"/>
<path d="M60 46h2v1h2v1h2v1h1v5h-1v3h-1v2h-1v1h-1v1h-1v1h-1v1h-1v1h-2v1h-2v1h-5v1h-6v-1
	h-4v-1h-2v-1h-2v-1h-1v-1h-1v-1h-1v-1h-1v-2h-1v-2h-1v-3h1v1h1v2h1v1h2v1h3v2h1v1
	h1v1h2v1h5v-1h2v-1h1v-1h1v-2h2v-1h2v-1h1v-2h1v-2h1v-2h1v-4z" fill="rgb(255,172,172)"/>
<path d="M62 46h2v1h-2v-1z" fill="rgb(16,16,16)"/>
<path d="M70 46h1v2h-1v-2z" fill="rgb(16,16,16)"/>
<path d="M28 47h2v1h-2v-1z" fill="rgb(16,16,16)"/>
<path d="M38 47h1v1h-1v-1z" fill="rgb(230,115,123)"/>
<path d="M42 47h2v1h-2v-1z" fill="rgb(115,106,74)"/>
<path d="M44 47h2v1h-2v-1z" fill="rgb(230,222,189)"/>
<path d="M46 47h1v1h-1v-1z" fill="rgb(172,164,115)"/>
<path d="M47 47h2v1h-2v-1z" fill="rgb(115,106,74)"/>
<path d="M52 47h1v1h-1v-1z" fill="rgb(230,115,123)"/>
<path d="M64 47h2v1h-2v-1z" fill="rgb(16,16,16)"/>
<path d="M25 48h3v1h-3v-1z" fill="rgb(16,16,16)"/>
<path d="M29 48h1v5h-1v-5z" fill="rgb(230,115,123)"/>
<path d="M37 48h2v1h1v2h-2v-1h-1v-2z" fill="rgb(255,230,230)"/>
<path d="M39 48h1v1h-1v-1z" fill="rgb(230,115,123)"/>
<path d="M41 48h1v1h-1v-1z" fill="rgb(115,106,74)"/>
<path d="M42 48h4v1h1v2h1v4h-6v-1h-2v-3h1v-2h1v-1z" fill="rgb(255,255,255)"/>
<path d="M46 48h2v1h1v3h1v1h1v1h-2v1h-1v-4h-1v-2h-1v-1z" fill="rgb(230,222,189)"/>
<path d="M48 48h1v1h-1v-1z" fill="rgb(172,164,115)"/>
<path d="M49 48h1v1h-1v-1z" fill="rgb(115,106,74)"/>
<path d="M51 48h1v1h-1v-1z" fill="rgb(230,115,123)"/>
<path d="M66 48h4v1h-2v5h-1v-5h-1v-1z" fill="rgb(16,16,16)"/>
<path d="M40 49h1v2h-1v-2z" fill="rgb(230,115,123)"/>
<path d="M49 49h1v1h-1v-1z" fill="rgb(172,164,115)"/>
<path d="M50 49h1v1h-1v-1z" fill="rgb(230,115,123)"/>
<path d="M51 49h2v2h-1v1h-2v-2h1v-1z" fill="rgb(255,230,230)"/>
<path d="M34 50h2v1h-2v-1z" fill="rgb(230,115,123)"/>
<path d="M36 50h1v1h-1v-1z" fill="rgb(139,65,65)"/>
<path d="M37 50h1v1h-1v-1z" fill="rgb(255,213,213)"/>
<path d="M49 50h1v2h-1v-2z" fill="rgb(230,115,123)"/>
<path d="M30 51h1v2h-1v-2z" fill="rgb(255,172,172)"/>
<path d="M37 51h3v1h-3v-1z" fill="rgb(139,65,65)"/>
<path d="M54 51h1v1h-1v-1z" fill="rgb(139,65,65)"/>
<path d="M55 51h2v1h-2v-1z" fill="rgb(230,115,123)"/>
<path d="M39 52h1v1h-1v-1z" fill="rgb(115,106,74)"/>
<path d="M50 52h4v1h-4v-1z" fill="rgb(139,65,65)"/>
<path d="M30 53h1v3h-1v-3z" fill="rgb(139,65,65)"/>
<path d="M39 53h1v1h-1v-1z" fill="rgb(139,65,65)"/>
<path d="M51 53h1v1h-1v-1z" fill="rgb(16,16,16)"/>
<path d="M38 54h1v4h-1v-4z" fill="rgb(139,65,65)"/>
<path d="M39 54h1v1h-1v-1z" fill="rgb(255,131,90)"/>
<path d="M40 54h2v1h-2v-1z" fill="rgb(139,65,65)"/>
<path d="M49 54h2v1h-2v-1z" fill="rgb(139,65,65)"/>
<path d="M51 54h1v3h-1v2h-1v1h-1v1h-2v1h-3v-1h-2v-1h3v-1h2v-1h1v-2h1v-1h2v-1z" fill="rgb(255,131,90)"/>
<path d="M52 54h1v4h-1v-4z" fill="rgb(16,16,16)"/>
<path d="M66 54h1v3h-1v-3z" fill="rgb(16,16,16)"/>
<path d="M39 55h2v1h7v2h-1v1h-2v1h-4v-1h-1v-2h-1v-2z" fill="rgb(255,172,172)"/>
<path d="M41 55h1v1h-1v-1z" fill="rgb(255,131,90)"/>
<path d="M42 55h7v1h-7v-1z" fill="rgb(139,65,65)"/>
<path d="M31 56h1v2h-1v-2z" fill="rgb(139,65,65)"/>
<path d="M67 56h3v1h-3v-1z" fill="rgb(139,65,65)"/>
<path d="M39 57h1v1h-1v-1z" fill="rgb(255,131,90)"/>
<path d="M51 57h1v1h-1v-1z" fill="rgb(238,90,49)"/>
<path d="M65 57h1v2h-1v-2z" fill="rgb(16,16,16)"/>
<path d="M66 57h4v1h-1v1h-1v1h-2v1h-2v-1h1v-1h1v-2z" fill="rgb(255,172,172)"/>
<path d="M70 57h1v1h-1v-1z" fill="rgb(139,65,65)"/>
<path d="M32 58h1v2h-1v-2z" fill="rgb(139,65,65)"/>
<path d="M39 58h1v2h-1v-2z" fill="rgb(139,65,65)"/>
<path d="M51 58h1v2h-1v-2z" fill="rgb(16,16,16)"/>
<path d="M69 58h1v1h-1v-1z" fill="rgb(16,16,16)"/>
<path d="M40 59h1v1h-1v-1z" fill="rgb(255,131,90)"/>
<path d="M50 59h1v1h-1v-1z" fill="rgb(238,90,49)"/>
<path d="M64 59h1v1h-1v-1z" fill="rgb(16,16,16)"/>
<path d="M68 59h1v1h-1v-1z" fill="rgb(16,16,16)"/>
<path d="M33 60h1v1h-1v-1z" fill="rgb(139,65,65)"/>
<path d="M40 60h1v1h-1v-1z" fill="rgb(139,65,65)"/>
<path d="M41 60h1v1h-1v-1z" fill="rgb(238,90,49)"/>
<path d="M49 60h1v1h-1v-1z" fill="rgb(238,90,49)"/>
<path d="M50 60h1v1h-1v-1z" fill="rgb(16,16,16)"/>
<path d="M63 60h1v1h-1v-1z" fill="rgb(16,16,16)"/>
<path d="M66 60h2v1h-2v-1z" fill="rgb(16,16,16)"/>
<path d="M34 61h1v1h-1v-1z" fill="rgb(139,65,65)"/>
<path d="M41 61h2v1h-2v-1z" fill="rgb(139,65,65)"/>
<path d="M43 61h1v1h-1v-1z" fill="rgb(238,90,49)"/>
<path d="M47 61h1v1h-1v-1z" fill="rgb(238,90,49)"/>
<path d="M48 61h2v1h-2v-1z" fill="rgb(16,16,16)"/>
<path d="M62 61h1v1h-1v-1z" fill="rgb(16,16,16)"/>
<path d="M63 61h1v1h-1v-1z" fill="rgb(255,172,172)"/>
<path d="M64 61h2v1h-2v-1z" fill="rgb(139,65,65)"/>
<path d="M35 62h1v1h-1v-1z" fill="rgb(139,65,65)"/>
<path d="M43 62h1v1h-1v-1z" fill="rgb(139,65,65)"/>
<path d="M44 62h4v1h-4v-1z" fill="rgb(16,16,16)"/>
<path d="M61 62h1v1h-1v-1z" fill="rgb(16,16,16)"/>
<path d="M62 62h2v1h-2v-1z" fill="rgb(139,65,65)"/>
<path d="M36 63h1v1h-1v-1z" fill="rgb(139,65,65)"/>
<path d="M60 63h1v1h-1v-1z" fill="rgb(16,16,16)"/>
<path d="M35 64h4v1h-4v-1z" fill="rgb(16,16,16)"/>
<path d="M58 64h2v1h-2v-1z" fill="rgb(16,16,16)"/>
<path d="M33 65h2v1h-2v-1z" fill="rgb(16,16,16)"/>
<path d="M35 65h4v1h1v1h-2v1h-5v-2h2v-1z" fill="rgb(139,65,65)"/>
<path d="M39 65h2v1h4v1h-5v-1h-1v-1z" fill="rgb(16,16,16)"/>
<path d="M56 65h2v1h-2v-1z" fill="rgb(16,16,16)"/>
<path d="M58 65h2v2h-1v2h-1v-1h-2v-2h2v-1z" fill="rgb(139,65,65)"/>
<path d="M60 65h2v1h-2v-1z" fill="rgb(16,16,16)"/>
<path d="M32 66h1v2h-1v-2z" fill="rgb(16,16,16)"/>
<path d="M51 66h5v2h-1v-1h-4v-1z" fill="rgb(16,16,16)"/>
<path d="M60 66h2v1h-1v1h1v-1h1v2h-4v-2h1v-1z" fill="rgb(238,90,49)"/>
<path d="M62 66h1v1h-1v-1z" fill="rgb(16,16,16)"/>
<path d="M38 67h2v1h-2v-1z" fill="rgb(16,16,16)"/>
<path d="M45 67h6v1h-6v-1z" fill="rgb(16,16,16)"/>
<path d="M61 67h1v1h-1v-1z" fill="rgb(255,172,172)"/>
<path d="M63 67h1v2h-1v-2z" fill="rgb(16,16,16)"/>
<path d="M33 68h5v1h-5v-1z" fill="rgb(16,16,16)"/>
<path d="M56 68h2v1h-2v-1z" fill="rgb(16,16,16)"/>
<path d="M58 69h5v1h-5v-1z" fill="rgb(16,16,16)"/>
</svg>
