<?xml version="1.0" encoding="utf-8"?>
<!-- generated at drububu.com  -->
<!DOCTYPE svg PUBLIC "-//W3C//DTD SVG 1.1//EN" "http://www.w3.org/Graphics/SVG/1.1/DTD/svg11.dtd">
<svg version="1.1" preserveAspectRatio="xMinYMin meet" xmlns="http://www.w3.org/2000/svg" xmlns:xlink="http://www.w3.org/1999/xlink" x="0px" y="0px" width="96px" height="96px" viewBox="0 0 96 96">
<path d="M0 0h96v96h-96v-96z" fill="transparent"/>
<path d="M45 28h3v1h2v1h-3v-1h-2v-1z" fill="rgb(32,65,82)"/>
<path d="M50 28h4v1h-4v-1z" fill="rgb(32,65,82)"/>
<path d="M38 29h4v1h-4v-1z" fill="rgb(32,65,82)"/>
<path d="M44 29h1v1h-1v-1z" fill="rgb(32,65,82)"/>
<path d="M45 29h2v1h-2v-1z" fill="rgb(65,123,148)"/>
<path d="M50 29h4v1h3v1h3v1h1v1h-4v-1h-2v-1h-6v-1h1v-1z" fill="rgb(90,164,205)"/>
<path d="M54 29h3v1h-3v-1z" fill="rgb(32,65,82)"/>
<path d="M36 30h2v1h-2v-1z" fill="rgb(90,164,205)"/>
<path d="M38 30h4v1h-1v1h-4v1h-2v-1h1v-1h2v-1z" fill="rgb(148,213,246)"/>
<path d="M42 30h2v1h-2v-1z" fill="rgb(32,65,82)"/>
<path d="M44 30h1v1h-1v-1z" fill="rgb(65,123,148)"/>
<path d="M45 30h2v1h-2v-1z" fill="rgb(32,65,82)"/>
<path d="M47 30h2v1h1v1h-2v1h-1v1h-1v1h-2v-1h-1v-1h1v-1h1v-1h2v-1z" fill="rgb(148,213,246)"/>
<path d="M57 30h3v1h-3v-1z" fill="rgb(32,65,82)"/>
<path d="M35 31h1v1h-1v-1z" fill="rgb(90,164,205)"/>
<path d="M41 31h3v1h-1v1h-2v-2z" fill="rgb(90,164,205)"/>
<path d="M44 31h1v1h-1v-1z" fill="rgb(32,65,82)"/>
<path d="M50 31h1v1h-1v-1z" fill="rgb(32,65,82)"/>
<path d="M51 31h3v1h-3v-1z" fill="rgb(16,16,16)"/>
<path d="M54 31h1v1h-1v-1z" fill="rgb(32,65,82)"/>
<path d="M60 31h1v1h-1v-1z" fill="rgb(32,65,82)"/>
<path d="M30 32h1v1h-1v-1z" fill="rgb(32,65,82)"/>
<path d="M34 32h1v2h-1v-2z" fill="rgb(90,164,205)"/>
<path d="M37 32h4v1h-4v-1z" fill="rgb(32,65,82)"/>
<path d="M43 32h1v1h-1v-1z" fill="rgb(32,65,82)"/>
<path d="M48 32h1v1h-1v-1z" fill="rgb(32,65,82)"/>
<path d="M49 32h1v1h-1v-1z" fill="rgb(16,16,16)"/>
<path d="M50 32h4v1h-1v2h-1v-1h-4v-1h2v-1z" fill="rgb(90,164,205)"/>
<path d="M54 32h1v1h2v1h1v1h1v3h-2v-1h-1v-1h-1v-1h-2v-2h1v-1z" fill="rgb(148,213,246)"/>
<path d="M55 32h2v1h-2v-1z" fill="rgb(32,65,82)"/>
<path d="M61 32h1v2h1v1h-2v-3z" fill="rgb(32,65,82)"/>
<path d="M29 33h1v2h-1v-2z" fill="rgb(16,16,16)"/>
<path d="M30 33h1v1h2v2h-2v-1h-1v-2z" fill="rgb(148,213,246)"/>
<path d="M31 33h2v1h-2v-1z" fill="rgb(32,65,82)"/>
<path d="M35 33h2v1h-2v-1z" fill="rgb(32,65,82)"/>
<path d="M37 33h4v2h-2v1h-4v1h-2v-2h2v-1h2v-1z" fill="rgb(90,164,205)"/>
<path d="M41 33h2v1h-2v-1z" fill="rgb(32,65,82)"/>
<path d="M47 33h1v1h-1v-1z" fill="rgb(32,65,82)"/>
<path d="M57 33h1v1h-1v-1z" fill="rgb(32,65,82)"/>
<path d="M58 33h3v1h-3v-1z" fill="rgb(16,16,16)"/>
<path d="M33 34h2v1h-2v-1z" fill="rgb(32,65,82)"/>
<path d="M41 34h2v1h1v1h1v2h-1v3h-1v-3h-1v-1h-1v-1h-2v-1h2v-1z" fill="rgb(65,123,148)"/>
<path d="M43 34h1v1h-1v-1z" fill="rgb(32,65,82)"/>
<path d="M46 34h1v1h-1v-1z" fill="rgb(32,65,82)"/>
<path d="M47 34h1v1h-1v-1z" fill="rgb(90,164,205)"/>
<path d="M48 34h4v1h-4v-1z" fill="rgb(16,16,16)"/>
<path d="M58 34h1v1h-1v-1z" fill="rgb(32,65,82)"/>
<path d="M59 34h2v1h2v1h1v2h-1v-1h-2v-1h-1v-1h-1v-1z" fill="rgb(65,123,148)"/>
<path d="M30 35h1v1h-1v-1z" fill="rgb(16,16,16)"/>
<path d="M44 35h2v3h-1v-2h-1v-1z" fill="rgb(32,65,82)"/>
<path d="M46 35h2v1h-2v-1z" fill="rgb(16,16,16)"/>
<path d="M48 35h1v1h1v2h-2v1h-2v-3h2v-1z" fill="rgb(90,164,205)"/>
<path d="M49 35h3v1h3v1h1v2h-2v-1h-4v-2h-1v-1z" fill="rgb(65,123,148)"/>
<path d="M52 35h2v1h-2v-1z" fill="rgb(16,16,16)"/>
<path d="M54 35h1v1h-1v-1z" fill="rgb(32,65,82)"/>
<path d="M59 35h1v1h-1v-1z" fill="rgb(32,65,82)"/>
<path d="M63 35h1v1h-1v-1z" fill="rgb(32,65,82)"/>
<path d="M31 36h2v1h-2v-1z" fill="rgb(16,16,16)"/>
<path d="M35 36h1v1h-1v-1z" fill="rgb(65,123,148)"/>
<path d="M36 36h1v1h-1v-1z" fill="rgb(32,65,82)"/>
<path d="M37 36h3v1h-3v-1z" fill="rgb(16,16,16)"/>
<path d="M40 36h1v1h-1v-1z" fill="rgb(32,65,82)"/>
<path d="M55 36h1v1h-1v-1z" fill="rgb(32,65,82)"/>
<path d="M59 36h1v5h-1v-1h-2v-2h2v-2z" fill="rgb(65,123,148)"/>
<path d="M60 36h1v4h-1v-4z" fill="rgb(16,16,16)"/>
<path d="M64 36h1v3h-2v-1h1v-2z" fill="rgb(32,65,82)"/>
<path d="M31 37h1v1h-1v-1z" fill="rgb(32,65,82)"/>
<path d="M32 37h1v1h-1v-1z" fill="rgb(65,123,148)"/>
<path d="M33 37h2v1h-2v-1z" fill="rgb(16,16,16)"/>
<path d="M35 37h1v1h-1v-1z" fill="rgb(32,65,82)"/>
<path d="M36 37h4v2h-3v1h-1v-3z" fill="rgb(65,123,148)"/>
<path d="M40 37h2v1h-1v1h-1v-2z" fill="rgb(16,16,16)"/>
<path d="M56 37h1v3h-3v-1h2v-2z" fill="rgb(32,65,82)"/>
<path d="M61 37h2v1h-2v-1z" fill="rgb(32,65,82)"/>
<path d="M30 38h1v1h1v1h-2v-2z" fill="rgb(32,65,82)"/>
<path d="M31 38h1v1h-1v-1z" fill="rgb(65,123,148)"/>
<path d="M32 38h2v1h-2v-1z" fill="rgb(32,65,82)"/>
<path d="M34 38h2v2h-3v1h-1v-2h2v-1z" fill="rgb(90,164,205)"/>
<path d="M41 38h1v2h1v1h-3v-2h1v-1z" fill="rgb(32,65,82)"/>
<path d="M42 38h1v2h-1v-2z" fill="rgb(16,16,16)"/>
<path d="M44 38h1v3h-1v-3z" fill="rgb(32,65,82)"/>
<path d="M45 38h1v1h2v2h1v1h5v2h-5v-1h-2v-1h-1v-1h-1v-3z" fill="rgb(65,123,148)"/>
<path d="M48 38h1v1h-1v-1z" fill="rgb(65,123,148)"/>
<path d="M49 38h5v1h-5v-1z" fill="rgb(32,65,82)"/>
<path d="M61 38h2v1h2v1h-1v1h-2v-1h-1v-2z" fill="rgb(65,123,148)"/>
<path d="M37 39h3v1h-3v-1z" fill="rgb(16,16,16)"/>
<path d="M48 39h1v2h-1v-2z" fill="rgb(32,65,82)"/>
<path d="M49 39h5v1h3v1h2v1h2v1h1v1h1v1h1v1h1v1h1v1h1v1h2v-1h2v1h-1v1h-1v1h-3v-1h-1v-2
	h-1v-1h-2v-1h-1v-1h-1v-1h-1v-1h-1v-1h-4v-1h-5v-2z" fill="rgb(65,123,148)"/>
<path d="M65 39h1v1h-1v-1z" fill="rgb(32,65,82)"/>
<path d="M66 39h1v1h-1v-1z" fill="rgb(16,16,16)"/>
<path d="M28 40h2v1h-2v-1z" fill="rgb(90,164,205)"/>
<path d="M30 40h2v1h-1v1h-1v1h-2v-2h2v-1z" fill="rgb(148,213,246)"/>
<path d="M33 40h4v1h-4v-1z" fill="rgb(16,16,16)"/>
<path d="M37 40h3v1h1v1h-2v1h-6v1h-1v1h-1v1h-1v2h-4v-1h2v-1h1v-1h1v-2h1v-1h6v-2z" fill="rgb(65,123,148)"/>
<path d="M57 40h2v1h-2v-1z" fill="rgb(32,65,82)"/>
<path d="M60 40h2v1h-1v1h-2v-1h1v-1z" fill="rgb(32,65,82)"/>
<path d="M64 40h2v1h1v1h-1v1h-1v-1h-1v-2z" fill="rgb(90,164,205)"/>
<path d="M66 40h1v1h-1v-1z" fill="rgb(32,65,82)"/>
<path d="M67 40h1v2h-1v-2z" fill="rgb(16,16,16)"/>
<path d="M27 41h1v2h-1v-2z" fill="rgb(90,164,205)"/>
<path d="M31 41h2v1h-2v-1z" fill="rgb(16,16,16)"/>
<path d="M33 41h4v1h-4v-1z" fill="rgb(90,164,205)"/>
<path d="M41 41h4v1h1v1h1v2h-1v4h1v1h4v-1h1v-4h5v1h-3v2h1v1h-1v1h-1v1h-1v1h-2v1h-2v1h-1
	v-1h-1v-1h-1v-1h-6v1h-1v-1h-1v-1h-1v-3h-1v-1h1v-2h1v-1h2v-1h2v-1z" fill="rgb(16,16,16)"/>
<path d="M45 41h1v1h-1v-1z" fill="rgb(32,65,82)"/>
<path d="M49 41h1v1h-1v-1z" fill="rgb(32,65,82)"/>
<path d="M50 41h4v1h-4v-1z" fill="rgb(16,16,16)"/>
<path d="M61 41h1v1h-1v-1z" fill="rgb(65,123,148)"/>
<path d="M62 41h2v1h-2v-1z" fill="rgb(32,65,82)"/>
<path d="M30 42h1v1h-1v-1z" fill="rgb(16,16,16)"/>
<path d="M46 42h1v1h-1v-1z" fill="rgb(32,65,82)"/>
<path d="M54 42h3v1h-3v-1z" fill="rgb(16,16,16)"/>
<path d="M57 42h1v1h-1v-1z" fill="rgb(32,65,82)"/>
<path d="M61 42h1v1h-1v-1z" fill="rgb(32,65,82)"/>
<path d="M62 42h2v2h-1v-1h-1v-1z" fill="rgb(65,123,148)"/>
<path d="M64 42h1v3h-1v-3z" fill="rgb(16,16,16)"/>
<path d="M66 42h1v1h-1v-1z" fill="rgb(32,65,82)"/>
<path d="M28 43h1v1h-1v-1z" fill="rgb(65,123,148)"/>
<path d="M29 43h1v1h-1v-1z" fill="rgb(16,16,16)"/>
<path d="M33 43h4v1h-4v-1z" fill="rgb(32,65,82)"/>
<path d="M47 43h2v1h-2v-1z" fill="rgb(32,65,82)"/>
<path d="M54 43h4v1h1v1h1v1h1v2h-1v-1h-1v-1h-2v-1h-3v-2z" fill="rgb(90,164,205)"/>
<path d="M58 43h1v1h-1v-1z" fill="rgb(32,65,82)"/>
<path d="M62 43h1v1h-1v-1z" fill="rgb(32,65,82)"/>
<path d="M65 43h1v1h-1v-1z" fill="rgb(32,65,82)"/>
<path d="M66 43h1v2h-1v1h-1v-2h1v-1z" fill="rgb(65,123,148)"/>
<path d="M67 43h1v2h-1v-2z" fill="rgb(16,16,16)"/>
<path d="M29 44h1v1h-1v-1z" fill="rgb(32,65,82)"/>
<path d="M32 44h1v1h-1v-1z" fill="rgb(32,65,82)"/>
<path d="M33 44h3v1h-1v1h-1v1h-1v1h-1v1h-1v-3h1v-1h1v-1z" fill="rgb(90,164,205)"/>
<path d="M38 44h1v1h-1v-1z" fill="rgb(180,180,180)"/>
<path d="M39 44h1v1h1v1h1v2h-1v1h-1v1h-1v-1h-1v-1h-1v-2h1v-1h1v-1z" fill="rgb(255,255,255)"/>
<path d="M40 44h1v1h-1v-1z" fill="rgb(180,180,180)"/>
<path d="M47 44h1v1h-1v-1z" fill="rgb(180,180,180)"/>
<path d="M48 44h1v1h2v1h1v2h-1v1h-1v1h-2v-1h-1v-1h-1v-2h1v-1h1v-1z" fill="rgb(255,255,255)"/>
<path d="M49 44h5v1h-5v-1z" fill="rgb(32,65,82)"/>
<path d="M59 44h1v1h-1v-1z" fill="rgb(32,65,82)"/>
<path d="M63 44h1v1h-1v-1z" fill="rgb(32,65,82)"/>
<path d="M28 45h1v1h-1v-1z" fill="rgb(32,65,82)"/>
<path d="M31 45h1v1h-1v-1z" fill="rgb(32,65,82)"/>
<path d="M35 45h1v1h-1v-1z" fill="rgb(32,65,82)"/>
<path d="M37 45h1v1h-1v-1z" fill="rgb(180,180,180)"/>
<path d="M41 45h1v1h-1v-1z" fill="rgb(180,180,180)"/>
<path d="M46 45h1v1h-1v-1z" fill="rgb(180,180,180)"/>
<path d="M51 45h1v1h-1v-1z" fill="rgb(180,180,180)"/>
<path d="M60 45h1v1h-1v-1z" fill="rgb(32,65,82)"/>
<path d="M64 45h1v1h-1v-1z" fill="rgb(32,65,82)"/>
<path d="M66 45h1v3h-1v-1h-1v-1h1v-1z" fill="rgb(16,16,16)"/>
<path d="M26 46h2v1h-2v-1z" fill="rgb(32,65,82)"/>
<path d="M30 46h1v2h-1v-2z" fill="rgb(32,65,82)"/>
<path d="M34 46h1v1h-1v-1z" fill="rgb(32,65,82)"/>
<path d="M54 46h1v2h-1v-2z" fill="rgb(32,65,82)"/>
<path d="M55 46h2v2h-2v-2z" fill="rgb(65,123,148)"/>
<path d="M57 46h2v1h-2v-1z" fill="rgb(16,16,16)"/>
<path d="M61 46h1v2h-1v-2z" fill="rgb(32,65,82)"/>
<path d="M25 47h1v1h-1v-1z" fill="rgb(16,16,16)"/>
<path d="M33 47h1v1h-1v-1z" fill="rgb(32,65,82)"/>
<path d="M34 47h1v3h-1v1h-1v-3h1v-1z" fill="rgb(65,123,148)"/>
<path d="M35 47h1v3h1v1h-3v-1h1v-3z" fill="rgb(32,65,82)"/>
<path d="M39 47h1v1h-1v-1z" fill="rgb(16,16,16)"/>
<path d="M48 47h1v1h-1v-1z" fill="rgb(16,16,16)"/>
<path d="M57 47h2v1h-2v-1z" fill="rgb(32,65,82)"/>
<path d="M59 47h1v1h-1v-1z" fill="rgb(16,16,16)"/>
<path d="M62 47h2v1h-2v-1z" fill="rgb(16,16,16)"/>
<path d="M69 47h2v1h-2v-1z" fill="rgb(32,65,82)"/>
<path d="M26 48h3v1h-3v-1z" fill="rgb(16,16,16)"/>
<path d="M29 48h1v4h-1v-4z" fill="rgb(90,164,205)"/>
<path d="M30 48h1v1h1v3h1v1h1v2h-2v-1h-1v-2h-1v-4z" fill="rgb(148,213,246)"/>
<path d="M32 48h1v3h1v2h-1v-1h-1v-4z" fill="rgb(32,65,82)"/>
<path d="M37 48h1v1h-1v-1z" fill="rgb(180,180,180)"/>
<path d="M41 48h1v1h-1v-1z" fill="rgb(180,180,180)"/>
<path d="M46 48h1v1h-1v-1z" fill="rgb(180,180,180)"/>
<path d="M51 48h1v1h-1v-1z" fill="rgb(180,180,180)"/>
<path d="M55 48h2v1h-2v-1z" fill="rgb(32,65,82)"/>
<path d="M57 48h3v1h1v-1h3v2h-1v1h-3v-1h-2v1h-1v1h-1v-1h-2v-1h1v-1h2v-1z" fill="rgb(65,123,148)"/>
<path d="M60 48h1v1h-1v-1z" fill="rgb(16,16,16)"/>
<path d="M64 48h1v2h-1v-2z" fill="rgb(16,16,16)"/>
<path d="M67 48h2v1h-2v-1z" fill="rgb(32,65,82)"/>
<path d="M71 48h1v1h-1v-1z" fill="rgb(16,16,16)"/>
<path d="M38 49h1v1h-1v-1z" fill="rgb(180,180,180)"/>
<path d="M40 49h1v1h-1v-1z" fill="rgb(180,180,180)"/>
<path d="M47 49h1v1h-1v-1z" fill="rgb(180,180,180)"/>
<path d="M50 49h1v1h-1v-1z" fill="rgb(180,180,180)"/>
<path d="M54 49h1v1h-1v-1z" fill="rgb(32,65,82)"/>
<path d="M70 49h1v1h-1v-1z" fill="rgb(16,16,16)"/>
<path d="M53 50h1v4h-1v-4z" fill="rgb(32,65,82)"/>
<path d="M58 50h2v1h-2v-1z" fill="rgb(16,16,16)"/>
<path d="M63 50h1v1h-1v-1z" fill="rgb(16,16,16)"/>
<path d="M64 50h1v1h-1v-1z" fill="rgb(32,65,82)"/>
<path d="M65 50h1v1h3v1h-4v-2z" fill="rgb(16,16,16)"/>
<path d="M69 50h1v1h-1v-1z" fill="rgb(16,16,16)"/>
<path d="M34 51h3v1h1v1h-4v-2z" fill="rgb(65,123,148)"/>
<path d="M37 51h1v1h-1v-1z" fill="rgb(32,65,82)"/>
<path d="M39 51h6v1h-6v-1z" fill="rgb(32,65,82)"/>
<path d="M52 51h1v3h-1v-1h-2v-1h2v-1z" fill="rgb(65,123,148)"/>
<path d="M54 51h2v1h1v1h1v1h1v1h3v-1h3v1h1v2h-1v-1h-3v1h-4v-1h-2v-1h-1v-1h-1v-3z" fill="rgb(90,164,205)"/>
<path d="M57 51h1v2h-1v-2z" fill="rgb(16,16,16)"/>
<path d="M58 51h2v1h3v-1h2v1h-1v1h-2v1h-3v-1h-1v-2z" fill="rgb(65,123,148)"/>
<path d="M60 51h3v1h-3v-1z" fill="rgb(16,16,16)"/>
<path d="M30 52h1v2h-1v-2z" fill="rgb(90,164,205)"/>
<path d="M38 52h1v1h-1v-1z" fill="rgb(32,65,82)"/>
<path d="M39 52h3v1h1v1h-3v1h-1v1h-5v-2h4v-1h1v-1z" fill="rgb(90,164,205)"/>
<path d="M42 52h3v1h2v1h1v4h-1v1h-3v-2h1v-2h-1v-1h-1v-1h-1v-1z" fill="rgb(65,123,148)"/>
<path d="M45 52h1v1h-1v-1z" fill="rgb(32,65,82)"/>
<path d="M64 52h1v2h-3v-1h2v-1z" fill="rgb(16,16,16)"/>
<path d="M34 53h4v1h-4v-1z" fill="rgb(32,65,82)"/>
<path d="M48 53h2v1h2v3h-1v-1h-1v1h-1v-3h-1v-1z" fill="rgb(65,123,148)"/>
<path d="M50 53h2v1h-2v-1z" fill="rgb(16,16,16)"/>
<path d="M58 53h1v1h-1v-1z" fill="rgb(32,65,82)"/>
<path d="M31 54h1v1h-1v-1z" fill="rgb(90,164,205)"/>
<path d="M40 54h1v1h1v1h-1v1h-1v-1h-1v-1h1v-1z" fill="rgb(32,65,82)"/>
<path d="M41 54h2v1h-2v-1z" fill="rgb(16,16,16)"/>
<path d="M43 54h1v1h-1v-1z" fill="rgb(32,65,82)"/>
<path d="M48 54h1v2h-1v-2z" fill="rgb(32,65,82)"/>
<path d="M52 54h1v1h-1v-1z" fill="rgb(32,65,82)"/>
<path d="M53 54h1v1h1v1h1v1h-1v2h-1v1h-2v-1h1v-5z" fill="rgb(65,123,148)"/>
<path d="M54 54h1v1h-1v-1z" fill="rgb(32,65,82)"/>
<path d="M59 54h3v1h-3v-1z" fill="rgb(16,16,16)"/>
<path d="M65 54h1v1h-1v-1z" fill="rgb(16,16,16)"/>
<path d="M32 55h2v1h-2v-1z" fill="rgb(16,16,16)"/>
<path d="M42 55h2v2h-1v1h-1v-1h-1v-1h1v-1z" fill="rgb(65,123,148)"/>
<path d="M44 55h1v2h-1v-2z" fill="rgb(16,16,16)"/>
<path d="M52 55h1v4h-1v-4z" fill="rgb(16,16,16)"/>
<path d="M55 55h1v1h-1v-1z" fill="rgb(32,65,82)"/>
<path d="M66 55h1v2h-1v-2z" fill="rgb(16,16,16)"/>
<path d="M32 56h1v1h-1v-1z" fill="rgb(32,65,82)"/>
<path d="M33 56h1v1h1v1h-1v2h1v1h-2v-2h-1v-2h1v-1z" fill="rgb(65,123,148)"/>
<path d="M34 56h5v1h-1v2h1v2h2v1h-4v-1h1v-1h-2v-1h-1v1h-1v-2h1v-1h-1v-1z" fill="rgb(16,16,16)"/>
<path d="M39 56h1v1h1v1h1v1h1v1h-1v1h-3v-2h-1v-2h1v-1z" fill="rgb(65,123,148)"/>
<path d="M48 56h1v2h-1v-2z" fill="rgb(16,16,16)"/>
<path d="M50 56h1v1h1v2h-1v2h-1v1h-3v-1h1v-2h1v-2h1v-1z" fill="rgb(148,213,246)"/>
<path d="M56 56h2v1h-2v-1z" fill="rgb(32,65,82)"/>
<path d="M62 56h3v1h-3v-1z" fill="rgb(32,65,82)"/>
<path d="M31 57h1v2h-1v-2z" fill="rgb(32,65,82)"/>
<path d="M36 57h1v2h-1v-2z" fill="rgb(32,65,82)"/>
<path d="M41 57h1v1h-1v-1z" fill="rgb(32,65,82)"/>
<path d="M43 57h1v1h-1v-1z" fill="rgb(16,16,16)"/>
<path d="M55 57h1v2h-1v-2z" fill="rgb(32,65,82)"/>
<path d="M56 57h2v1h1v2h-1v1h-2v1h-4v-1h2v-1h1v-1h1v-2z" fill="rgb(90,164,205)"/>
<path d="M58 57h4v1h-2v2h-1v-2h-1v-1z" fill="rgb(32,65,82)"/>
<path d="M62 57h1v1h-1v-1z" fill="rgb(65,123,148)"/>
<path d="M63 57h1v1h-1v-1z" fill="rgb(16,16,16)"/>
<path d="M65 57h1v1h-1v-1z" fill="rgb(32,65,82)"/>
<path d="M42 58h2v1h-2v-1z" fill="rgb(32,65,82)"/>
<path d="M47 58h1v1h-1v-1z" fill="rgb(16,16,16)"/>
<path d="M48 58h1v1h-1v-1z" fill="rgb(32,65,82)"/>
<path d="M60 58h2v1h-1v1h-1v-2z" fill="rgb(65,123,148)"/>
<path d="M62 58h1v1h-1v-1z" fill="rgb(16,16,16)"/>
<path d="M32 59h1v2h-1v-2z" fill="rgb(32,65,82)"/>
<path d="M35 59h1v1h-1v-1z" fill="transparent"/>
<path d="M43 59h1v1h4v1h-1v1h1v1h-5v-1h-2v-1h1v-1h1v-1z" fill="rgb(90,164,205)"/>
<path d="M44 59h2v1h-2v-1z" fill="rgb(32,65,82)"/>
<path d="M46 59h1v1h-1v-1z" fill="rgb(16,16,16)"/>
<path d="M47 59h1v1h-1v-1z" fill="rgb(32,65,82)"/>
<path d="M51 59h1v1h2v1h-3v-2z" fill="rgb(32,65,82)"/>
<path d="M54 59h1v1h-1v-1z" fill="rgb(32,65,82)"/>
<path d="M61 59h1v1h-1v-1z" fill="rgb(16,16,16)"/>
<path d="M35 60h1v1h-1v-1z" fill="rgb(16,16,16)"/>
<path d="M36 60h2v1h-1v1h-1v-2z" fill="transparent"/>
<path d="M58 60h1v1h-1v-1z" fill="rgb(32,65,82)"/>
<path d="M59 60h2v1h-2v-1z" fill="rgb(16,16,16)"/>
<path d="M33 61h3v1h-3v-1z" fill="rgb(32,65,82)"/>
<path d="M50 61h1v1h-1v-1z" fill="rgb(32,65,82)"/>
<path d="M51 61h1v1h-1v-1z" fill="rgb(65,123,148)"/>
<path d="M56 61h2v2h-1v-1h-1v-1z" fill="rgb(16,16,16)"/>
<path d="M34 62h3v1h-3v-1z" fill="rgb(16,16,16)"/>
<path d="M37 62h4v1h2v3h-3v-1h-1v-1h-2v-2z" fill="rgb(115,41,41)"/>
<path d="M41 62h2v1h-2v-1z" fill="rgb(16,16,16)"/>
<path d="M48 62h2v1h-2v-1z" fill="rgb(32,65,82)"/>
<path d="M50 62h6v1h-6v-1z" fill="rgb(16,16,16)"/>
<path d="M56 62h1v1h-1v-1z" fill="rgb(115,41,41)"/>
<path d="M33 63h1v1h-1v-1z" fill="rgb(115,41,41)"/>
<path d="M34 63h3v1h2v1h1v2h-6v-1h2v-2h-2v-1z" fill="rgb(172,41,65)"/>
<path d="M43 63h5v1h-4v2h-1v-3z" fill="rgb(16,16,16)"/>
<path d="M52 63h1v1h-1v-1z" fill="rgb(115,41,41)"/>
<path d="M53 63h5v1h1v1h1v1h-2v-1h-4v1h-2v-2h1v-1z" fill="rgb(172,41,65)"/>
<path d="M58 63h1v1h-1v-1z" fill="rgb(16,16,16)"/>
<path d="M32 64h1v2h-1v-2z" fill="rgb(115,41,41)"/>
<path d="M33 64h1v2h-1v-2z" fill="rgb(172,41,65)"/>
<path d="M34 64h2v2h-2v-2z" fill="rgb(222,74,106)"/>
<path d="M51 64h1v3h-1v-3z" fill="rgb(115,41,41)"/>
<path d="M59 64h1v1h-1v-1z" fill="rgb(16,16,16)"/>
<path d="M54 65h2v2h-2v-2z" fill="rgb(255,131,131)"/>
<path d="M56 65h2v1h2v2h-1v1h-6v-1h-1v-2h2v1h2v-2z" fill="rgb(222,74,106)"/>
<path d="M60 65h1v3h-1v-3z" fill="rgb(16,16,16)"/>
<path d="M33 66h1v1h-1v-1z" fill="rgb(115,41,41)"/>
<path d="M40 66h3v1h-3v-1z" fill="rgb(16,16,16)"/>
<path d="M34 67h6v1h-6v-1z" fill="rgb(16,16,16)"/>
<path d="M51 67h1v1h-1v-1z" fill="rgb(16,16,16)"/>
<path d="M52 68h1v1h-1v-1z" fill="rgb(16,16,16)"/>
<path d="M59 68h1v1h-1v-1z" fill="rgb(16,16,16)"/>
<path d="M53 69h6v1h-6v-1z" fill="rgb(16,16,16)"/>
</svg>
