<?xml version="1.0" encoding="utf-8"?>
<!-- generated at drububu.com  -->
<!DOCTYPE svg PUBLIC "-//W3C//DTD SVG 1.1//EN" "http://www.w3.org/Graphics/SVG/1.1/DTD/svg11.dtd">
<svg version="1.1" preserveAspectRatio="xMinYMin meet" xmlns="http://www.w3.org/2000/svg" xmlns:xlink="http://www.w3.org/1999/xlink" x="0px" y="0px" width="96px" height="96px" viewBox="0 0 96 96">
<path d="M0 0h96v96h-96v-96z" fill="transparent"/>
<path d="M23 19h2v1h-2v-1z" fill="rgb(156,123,115)"/>
<path d="M25 19h1v1h-1v-1z" fill="rgb(82,65,16)"/>
<path d="M32 19h2v1h-2v-1z" fill="rgb(106,106,82)"/>
<path d="M34 19h3v1h-3v-1z" fill="rgb(82,65,16)"/>
<path d="M37 19h3v1h-3v-1z" fill="rgb(16,16,16)"/>
<path d="M47 19h8v1h-8v-1z" fill="rgb(156,123,115)"/>
<path d="M22 20h1v1h-1v-1z" fill="rgb(156,123,115)"/>
<path d="M23 20h3v1h2v2h-1v2h-1v-1h-1v-1h-1v-1h-1v-2z" fill="rgb(222,205,148)"/>
<path d="M26 20h1v1h-1v-1z" fill="rgb(156,123,115)"/>
<path d="M27 20h1v1h-1v-1z" fill="rgb(82,65,16)"/>
<path d="M30 20h2v1h-2v-1z" fill="rgb(106,106,82)"/>
<path d="M32 20h2v1h1v3h-1v2h-1v1h-2v1h-3v-1h-1v-2h1v-2h1v-1h1v-1h2v-1z" fill="rgb(164,172,123)"/>
<path d="M34 20h4v1h1v4h-1v2h-1v1h-1v1h-1v1h-2v1h-2v1h-5v1h-1v-2h1v-3h1v-1h1v1h3v-1h2v-1
	h1v-2h1v-3h-1v-1z" fill="rgb(139,148,98)"/>
<path d="M38 20h2v1h3v3h-1v3h-3v1h-2v-1h1v-2h1v-4h-1v-1z" fill="rgb(106,106,82)"/>
<path d="M40 20h1v1h-1v-1z" fill="rgb(82,65,16)"/>
<path d="M41 20h2v1h-2v-1z" fill="rgb(16,16,16)"/>
<path d="M45 20h1v1h-1v-1z" fill="rgb(82,65,16)"/>
<path d="M46 20h1v1h-1v-1z" fill="rgb(156,123,115)"/>
<path d="M47 20h6v1h-2v1h-1v1h-1v1h-4v-3h2v-1z" fill="rgb(255,255,148)"/>
<path d="M53 20h2v2h-1v2h-1v1h-1v1h-1v1h-1v-1h-2v-1h2v-1h1v-1h2v-1h-2v-1h2v-1z" fill="rgb(222,205,148)"/>
<path d="M55 20h1v2h-1v-2z" fill="rgb(82,65,16)"/>
<path d="M22 21h1v1h-1v-1z" fill="rgb(82,65,16)"/>
<path d="M28 21h2v1h-1v1h-1v-2z" fill="rgb(106,106,82)"/>
<path d="M43 21h1v2h-1v-2z" fill="rgb(16,16,16)"/>
<path d="M44 21h1v1h-1v-1z" fill="rgb(82,65,16)"/>
<path d="M23 22h1v1h-1v-1z" fill="rgb(82,65,16)"/>
<path d="M44 22h1v1h-1v-1z" fill="rgb(197,164,123)"/>
<path d="M50 22h1v1h-1v-1z" fill="rgb(222,205,148)"/>
<path d="M51 22h1v1h-1v-1z" fill="rgb(82,65,16)"/>
<path d="M52 22h1v1h-1v-1z" fill="rgb(156,123,115)"/>
<path d="M54 22h1v1h-1v-1z" fill="rgb(82,65,16)"/>
<path d="M24 23h1v1h-1v-1z" fill="rgb(82,65,16)"/>
<path d="M27 23h1v2h-1v-2z" fill="rgb(106,106,82)"/>
<path d="M43 23h1v1h-1v-1z" fill="rgb(156,123,115)"/>
<path d="M44 23h1v1h3v1h-1v1h-1v1h-2v-1h-1v-2h1v-1z" fill="rgb(222,205,148)"/>
<path d="M49 23h1v1h-1v-1z" fill="rgb(82,65,16)"/>
<path d="M50 23h1v1h-1v-1z" fill="rgb(156,123,115)"/>
<path d="M54 23h1v1h-1v-1z" fill="rgb(16,16,16)"/>
<path d="M25 24h1v1h1v3h-1v-2h-1v-2z" fill="rgb(106,106,82)"/>
<path d="M42 24h1v2h-1v-2z" fill="rgb(82,65,16)"/>
<path d="M48 24h1v1h-1v-1z" fill="rgb(82,65,16)"/>
<path d="M49 24h1v1h-1v-1z" fill="rgb(156,123,115)"/>
<path d="M53 24h1v1h-1v-1z" fill="rgb(16,16,16)"/>
<path d="M47 25h1v1h-1v-1z" fill="rgb(82,65,16)"/>
<path d="M52 25h1v1h-1v-1z" fill="rgb(16,16,16)"/>
<path d="M42 26h1v1h-1v-1z" fill="rgb(16,16,16)"/>
<path d="M43 26h1v1h-1v-1z" fill="rgb(82,65,16)"/>
<path d="M46 26h1v1h-1v-1z" fill="rgb(82,65,16)"/>
<path d="M47 26h1v1h1v-1h1v2h1v1h1v1h-2v1h-1v1h-1v2h-1v4h1v2h1v1h1v1h3v-1h2v-1h2v-2h-1
	v-2h2v1h2v-1h2v1h1v1h1v1h1v1h1v2h1v1h1v5h-1v-2h-1v3h-1v2h-1v1h-1v1h-1v1h-1v-2h-1
	v-1h-2v1h-1v-2h-1v-1h3v-1h2v-1h2v-1h1v-2h-1v-2h-4v1h-3v1h-2v1h-5v-1h-1v-1h-1
	v-1h-2v-1h-2v-1h-3v-2h1v-3h1v-1h-1v-1h1v-3h-1v1h-1v-2h1v-1h1v-1h2v1h2v-1h1v-1z" fill="rgb(156,123,115)"/>
<path d="M48 26h1v1h-1v-1z" fill="rgb(82,65,16)"/>
<path d="M51 26h1v1h-1v-1z" fill="rgb(16,16,16)"/>
<path d="M52 26h3v1h-3v-1z" fill="rgb(82,65,16)"/>
<path d="M39 27h3v1h-3v-1z" fill="rgb(16,16,16)"/>
<path d="M44 27h1v1h-1v-1z" fill="rgb(82,65,16)"/>
<path d="M45 27h1v1h-1v-1z" fill="rgb(16,16,16)"/>
<path d="M50 27h1v1h-1v-1z" fill="rgb(16,16,16)"/>
<path d="M51 27h1v1h-1v-1z" fill="rgb(156,123,115)"/>
<path d="M52 27h2v1h-2v-1z" fill="rgb(197,164,123)"/>
<path d="M54 27h1v1h-1v-1z" fill="rgb(156,123,115)"/>
<path d="M55 27h2v1h-2v-1z" fill="rgb(82,65,16)"/>
<path d="M25 28h1v3h-1v-3z" fill="rgb(82,65,16)"/>
<path d="M36 28h1v1h-1v-1z" fill="rgb(106,106,82)"/>
<path d="M37 28h1v1h-1v-1z" fill="rgb(16,16,16)"/>
<path d="M38 28h1v1h-1v-1z" fill="rgb(82,65,16)"/>
<path d="M39 28h1v3h-2v-2h1v-1z" fill="rgb(255,255,255)"/>
<path d="M40 28h1v1h-1v-1z" fill="rgb(82,65,16)"/>
<path d="M51 28h1v1h-1v-1z" fill="rgb(82,65,16)"/>
<path d="M52 28h1v1h-1v-1z" fill="rgb(16,16,16)"/>
<path d="M53 28h1v1h-1v-1z" fill="rgb(156,123,115)"/>
<path d="M54 28h3v1h-3v-1z" fill="rgb(197,164,123)"/>
<path d="M57 28h1v2h-1v-2z" fill="rgb(16,16,16)"/>
<path d="M35 29h1v1h-1v-1z" fill="rgb(106,106,82)"/>
<path d="M36 29h1v1h-1v-1z" fill="rgb(82,65,16)"/>
<path d="M37 29h1v1h-1v-1z" fill="rgb(189,24,24)"/>
<path d="M52 29h1v1h-1v-1z" fill="rgb(82,65,16)"/>
<path d="M53 29h2v1h-2v-1z" fill="rgb(16,16,16)"/>
<path d="M55 29h1v1h-1v-1z" fill="rgb(82,65,16)"/>
<path d="M56 29h1v1h-1v-1z" fill="rgb(156,123,115)"/>
<path d="M33 30h2v1h-1v1h-2v1h-3v-1h2v-1h2v-1z" fill="rgb(106,106,82)"/>
<path d="M35 30h1v1h-1v-1z" fill="rgb(16,16,16)"/>
<path d="M36 30h1v2h-1v-2z" fill="rgb(189,24,24)"/>
<path d="M37 30h1v2h-1v-2z" fill="rgb(16,16,16)"/>
<path d="M41 30h1v3h-1v1h-2v1h-2v1h-3v1h-2v1h-5v-2h-1v-1h-1v-1h1v-1h3v1h4v-1h2v-1h4v-1h2
	v-1z" fill="rgb(197,164,123)"/>
<path d="M50 30h2v1h-2v-1z" fill="rgb(82,65,16)"/>
<path d="M52 30h3v1h-1v1h-1v1h-2v1h-1v2h1v1h1v1h2v-3h1v-1h3v1h-2v1h-1v2h1v1h-1v1h-2v1h-3
	v-1h-1v-2h-1v-4h1v-2h1v-1h2v-1z" fill="rgb(156,123,115)"/>
<path d="M55 30h1v1h-1v-1z" fill="rgb(197,164,123)"/>
<path d="M56 30h2v1h-2v-1z" fill="rgb(82,65,16)"/>
<path d="M24 31h1v4h-1v-4z" fill="rgb(82,65,16)"/>
<path d="M34 31h1v1h-1v-1z" fill="rgb(16,16,16)"/>
<path d="M35 31h1v1h-1v-1z" fill="rgb(82,65,16)"/>
<path d="M38 31h1v1h-1v-1z" fill="rgb(156,123,115)"/>
<path d="M49 31h1v1h-1v-1z" fill="rgb(82,65,16)"/>
<path d="M54 31h1v1h-1v-1z" fill="rgb(197,164,123)"/>
<path d="M55 31h3v1h2v1h1v1h-7v3h-3v-3h1v-1h1v-1h2v-1z" fill="rgb(213,189,131)"/>
<path d="M58 31h1v1h-1v-1z" fill="rgb(156,123,115)"/>
<path d="M59 31h1v1h-1v-1z" fill="rgb(82,65,16)"/>
<path d="M26 32h1v1h-1v-1z" fill="rgb(106,106,82)"/>
<path d="M27 32h2v1h-2v-1z" fill="rgb(82,65,16)"/>
<path d="M32 32h2v1h-2v-1z" fill="rgb(16,16,16)"/>
<path d="M34 32h1v1h-1v-1z" fill="rgb(156,123,115)"/>
<path d="M45 32h1v3h-1v-3z" fill="rgb(82,65,16)"/>
<path d="M48 32h1v2h-1v-2z" fill="rgb(82,65,16)"/>
<path d="M60 32h1v1h-1v-1z" fill="rgb(156,123,115)"/>
<path d="M61 32h1v1h-1v-1z" fill="rgb(82,65,16)"/>
<path d="M25 33h1v1h-1v-1z" fill="rgb(156,123,115)"/>
<path d="M29 33h1v1h-1v-1z" fill="rgb(156,123,115)"/>
<path d="M30 33h1v1h-1v-1z" fill="rgb(82,65,16)"/>
<path d="M31 33h1v1h-1v-1z" fill="rgb(16,16,16)"/>
<path d="M32 33h1v1h-1v-1z" fill="rgb(156,123,115)"/>
<path d="M51 33h1v1h-1v-1z" fill="rgb(197,164,123)"/>
<path d="M61 33h1v2h-4v-1h3v-1z" fill="rgb(197,164,123)"/>
<path d="M62 33h1v1h-1v-1z" fill="rgb(82,65,16)"/>
<path d="M39 34h3v1h-3v-1z" fill="rgb(82,65,16)"/>
<path d="M47 34h1v4h-1v-4z" fill="rgb(82,65,16)"/>
<path d="M50 34h1v2h-1v-2z" fill="rgb(197,164,123)"/>
<path d="M54 34h1v1h-1v-1z" fill="rgb(197,164,123)"/>
<path d="M62 34h1v1h-1v-1z" fill="rgb(16,16,16)"/>
<path d="M25 35h1v1h-1v-1z" fill="rgb(82,65,16)"/>
<path d="M31 35h1v1h-1v-1z" fill="rgb(156,123,115)"/>
<path d="M37 35h2v1h-2v-1z" fill="rgb(16,16,16)"/>
<path d="M39 35h1v3h-1v-1h-1v-1h1v-1z" fill="rgb(255,255,255)"/>
<path d="M40 35h1v3h-1v-3z" fill="rgb(16,16,16)"/>
<path d="M44 35h1v2h-1v-2z" fill="rgb(82,65,16)"/>
<path d="M56 35h2v1h-2v-1z" fill="rgb(16,16,16)"/>
<path d="M58 35h2v1h-2v-1z" fill="rgb(156,123,115)"/>
<path d="M60 35h2v1h-2v-1z" fill="rgb(16,16,16)"/>
<path d="M25 36h1v1h-1v-1z" fill="rgb(16,16,16)"/>
<path d="M26 36h1v1h-1v-1z" fill="rgb(156,123,115)"/>
<path d="M30 36h1v1h-1v-1z" fill="rgb(82,65,16)"/>
<path d="M34 36h1v1h-1v-1z" fill="rgb(82,65,16)"/>
<path d="M35 36h2v1h-2v-1z" fill="rgb(16,16,16)"/>
<path d="M37 36h1v1h-1v-1z" fill="rgb(106,106,82)"/>
<path d="M55 36h1v2h-1v-2z" fill="rgb(82,65,16)"/>
<path d="M58 36h2v1h-2v-1z" fill="rgb(16,16,16)"/>
<path d="M62 36h1v1h-1v-1z" fill="rgb(16,16,16)"/>
<path d="M24 37h2v1h-2v-1z" fill="rgb(82,65,16)"/>
<path d="M26 37h1v1h-1v-1z" fill="rgb(16,16,16)"/>
<path d="M32 37h1v1h-1v-1z" fill="rgb(82,65,16)"/>
<path d="M33 37h1v1h-1v-1z" fill="rgb(16,16,16)"/>
<path d="M34 37h4v2h-1v1h-2v1h-3v-1h-1v-1h1v-1h2v-1z" fill="rgb(189,24,24)"/>
<path d="M38 37h1v1h-1v-1z" fill="rgb(16,16,16)"/>
<path d="M43 37h1v1h-1v-1z" fill="rgb(82,65,16)"/>
<path d="M52 37h2v1h-2v-1z" fill="rgb(197,164,123)"/>
<path d="M63 37h1v1h-1v-1z" fill="rgb(16,16,16)"/>
<path d="M22 38h2v1h-2v-1z" fill="rgb(82,65,16)"/>
<path d="M24 38h3v1h-3v-1z" fill="rgb(213,189,131)"/>
<path d="M27 38h5v1h-1v1h-1v-1h-1v1h-1v-1h-1v-1z" fill="rgb(16,16,16)"/>
<path d="M38 38h1v1h-1v-1z" fill="rgb(82,65,16)"/>
<path d="M39 38h1v1h-1v-1z" fill="rgb(16,16,16)"/>
<path d="M42 38h1v1h-1v-1z" fill="rgb(16,16,16)"/>
<path d="M48 38h1v1h-1v-1z" fill="rgb(82,65,16)"/>
<path d="M56 38h1v1h-1v-1z" fill="rgb(82,65,16)"/>
<path d="M64 38h1v1h-1v-1z" fill="rgb(82,65,16)"/>
<path d="M21 39h1v1h-1v-1z" fill="rgb(82,65,16)"/>
<path d="M22 39h2v1h-2v-1z" fill="rgb(213,189,131)"/>
<path d="M24 39h1v1h-1v-1z" fill="rgb(197,164,123)"/>
<path d="M25 39h3v1h1v2h1v1h1v1h-2v1h-2v-1h-1v-2h1v-2h-2v-1z" fill="rgb(156,123,115)"/>
<path d="M29 39h1v1h-1v-1z" fill="rgb(156,123,115)"/>
<path d="M37 39h1v1h-1v-1z" fill="rgb(82,65,16)"/>
<path d="M38 39h2v1h-1v1h-1v1h-2v1h-4v-1h3v-1h2v-1h1v-1z" fill="rgb(197,164,123)"/>
<path d="M48 39h1v1h-1v-1z" fill="rgb(16,16,16)"/>
<path d="M55 39h1v1h-1v-1z" fill="rgb(82,65,16)"/>
<path d="M56 39h1v1h-1v-1z" fill="rgb(16,16,16)"/>
<path d="M65 39h1v1h-1v-1z" fill="rgb(82,65,16)"/>
<path d="M21 40h1v1h1v1h-2v-2z" fill="rgb(16,16,16)"/>
<path d="M22 40h2v1h-2v-1z" fill="rgb(156,123,115)"/>
<path d="M24 40h1v1h-1v-1z" fill="rgb(82,65,16)"/>
<path d="M25 40h1v1h-1v-1z" fill="rgb(16,16,16)"/>
<path d="M26 40h1v1h-1v-1z" fill="rgb(82,65,16)"/>
<path d="M29 40h1v2h-1v-2z" fill="rgb(16,16,16)"/>
<path d="M30 40h1v2h-1v-2z" fill="rgb(156,123,115)"/>
<path d="M31 40h1v1h-1v-1z" fill="rgb(16,16,16)"/>
<path d="M35 40h2v1h-2v-1z" fill="rgb(82,65,16)"/>
<path d="M39 40h1v1h-1v-1z" fill="rgb(156,123,115)"/>
<path d="M40 40h1v1h-1v-1z" fill="rgb(16,16,16)"/>
<path d="M41 40h1v1h-1v-1z" fill="rgb(82,65,16)"/>
<path d="M42 40h1v1h2v2h-1v1h-1v1h-7v1h-1v-1h-3v-1h4v-1h3v-1h1v-1h2v-1z" fill="rgb(222,205,148)"/>
<path d="M49 40h1v1h-1v-1z" fill="rgb(16,16,16)"/>
<path d="M53 40h1v1h-1v-1z" fill="rgb(82,65,16)"/>
<path d="M54 40h1v1h-1v-1z" fill="rgb(16,16,16)"/>
<path d="M66 40h1v2h-1v-2z" fill="rgb(82,65,16)"/>
<path d="M20 41h1v1h-1v-1z" fill="rgb(82,65,16)"/>
<path d="M23 41h1v1h-1v-1z" fill="rgb(82,65,16)"/>
<path d="M24 41h2v1h-1v1h-1v1h-2v-1h1v-1h1v-1z" fill="rgb(156,123,115)"/>
<path d="M26 41h1v1h-1v-1z" fill="rgb(16,16,16)"/>
<path d="M31 41h1v1h-1v-1z" fill="rgb(82,65,16)"/>
<path d="M32 41h2v1h-2v-1z" fill="rgb(16,16,16)"/>
<path d="M34 41h1v1h-1v-1z" fill="rgb(82,65,16)"/>
<path d="M38 41h1v1h-1v-1z" fill="rgb(156,123,115)"/>
<path d="M39 41h1v1h-1v-1z" fill="rgb(16,16,16)"/>
<path d="M50 41h3v1h-3v-1z" fill="rgb(16,16,16)"/>
<path d="M76 41h1v1h-1v-1z" fill="rgb(82,65,16)"/>
<path d="M77 41h1v1h-1v-1z" fill="rgb(16,16,16)"/>
<path d="M19 42h1v1h-1v-1z" fill="rgb(82,65,16)"/>
<path d="M20 42h1v1h-1v-1z" fill="rgb(156,123,115)"/>
<path d="M21 42h1v1h-1v-1z" fill="rgb(197,164,123)"/>
<path d="M22 42h1v1h-1v-1z" fill="rgb(213,189,131)"/>
<path d="M25 42h1v2h-1v-2z" fill="rgb(16,16,16)"/>
<path d="M30 42h1v1h-1v-1z" fill="rgb(16,16,16)"/>
<path d="M31 42h1v1h-1v-1z" fill="rgb(156,123,115)"/>
<path d="M36 42h3v1h-3v-1z" fill="rgb(16,16,16)"/>
<path d="M45 42h1v1h2v1h1v1h1v2h-1v2h-1v3h1v1h1v1h-1v1h-3v-1h-1v-2h-1v-1h-1v-1h-1v-3h1
	v-3h1v-1h1v-1z" fill="rgb(255,255,148)"/>
<path d="M46 42h1v1h-1v-1z" fill="rgb(222,205,148)"/>
<path d="M59 42h4v1h-4v-1z" fill="rgb(82,65,16)"/>
<path d="M67 42h1v1h-1v-1z" fill="rgb(82,65,16)"/>
<path d="M75 42h1v2h-1v-2z" fill="rgb(82,65,16)"/>
<path d="M76 42h1v1h1v2h1v3h-1v1h-1v1h-1v4h-1v1h-3v-1h-2v-1h1v-4h1v4h1v-1h1v-2h-1v-1h1
	v-2h1v-3h1v-2z" fill="rgb(197,164,123)"/>
<path d="M77 42h1v1h-1v-1z" fill="rgb(156,123,115)"/>
<path d="M78 42h1v1h-1v-1z" fill="rgb(16,16,16)"/>
<path d="M18 43h1v1h-1v-1z" fill="rgb(16,16,16)"/>
<path d="M19 43h1v1h-1v-1z" fill="rgb(156,123,115)"/>
<path d="M20 43h2v1h-1v1h-2v-1h1v-1z" fill="rgb(213,189,131)"/>
<path d="M24 43h1v3h-1v2h-1v1h-1v1h-1v1h-3v-1h-1v-2h1v-1h3v-1h2v-2h1v-1z" fill="rgb(197,164,123)"/>
<path d="M31 43h5v1h-5v-1z" fill="rgb(16,16,16)"/>
<path d="M56 43h3v1h-3v-1z" fill="rgb(82,65,16)"/>
<path d="M59 43h4v1h1v2h-1v1h-2v1h-2v1h-4v-1h-2v1h-1v-1h-1v-2h3v-1h2v-1h3v-1z" fill="rgb(197,164,123)"/>
<path d="M68 43h1v2h-1v-2z" fill="rgb(82,65,16)"/>
<path d="M78 43h1v1h-1v-1z" fill="rgb(82,65,16)"/>
<path d="M18 44h1v1h-1v-1z" fill="rgb(82,65,16)"/>
<path d="M21 44h1v1h-1v-1z" fill="rgb(197,164,123)"/>
<path d="M22 44h1v1h-1v-1z" fill="rgb(82,65,16)"/>
<path d="M25 44h1v1h1v1h2v1h-2v1h-1v2h-1v2h-1v4h-1v2h-1v1h-1v1h-1v1h-2v-1h-1v-1h-2v-1h-1
	v-1h-1v-3h1v-2h1v-2h1v-2h1v2h1v1h3v-1h1v-1h1v-1h1v-2h1v-2z" fill="rgb(156,123,115)"/>
<path d="M26 44h1v1h-1v-1z" fill="rgb(16,16,16)"/>
<path d="M29 44h1v1h-1v-1z" fill="rgb(82,65,16)"/>
<path d="M30 44h1v2h-1v-2z" fill="rgb(16,16,16)"/>
<path d="M31 44h1v1h2v1h-3v-2z" fill="rgb(82,65,16)"/>
<path d="M54 44h2v1h-2v-1z" fill="rgb(82,65,16)"/>
<path d="M74 44h1v3h-1v-3z" fill="rgb(82,65,16)"/>
<path d="M78 44h1v1h-1v-1z" fill="rgb(156,123,115)"/>
<path d="M79 44h1v4h-1v-4z" fill="rgb(16,16,16)"/>
<path d="M17 45h1v1h-1v-1z" fill="rgb(82,65,16)"/>
<path d="M18 45h2v1h-2v-1z" fill="rgb(197,164,123)"/>
<path d="M20 45h2v1h-2v-1z" fill="rgb(82,65,16)"/>
<path d="M22 45h1v1h-1v-1z" fill="rgb(156,123,115)"/>
<path d="M27 45h2v1h-2v-1z" fill="rgb(16,16,16)"/>
<path d="M29 45h1v1h-1v-1z" fill="rgb(156,123,115)"/>
<path d="M34 45h1v1h-1v-1z" fill="rgb(156,123,115)"/>
<path d="M36 45h1v1h-1v-1z" fill="rgb(156,123,115)"/>
<path d="M37 45h3v1h-3v-1z" fill="rgb(16,16,16)"/>
<path d="M40 45h3v1h-3v-1z" fill="rgb(82,65,16)"/>
<path d="M50 45h1v1h-1v-1z" fill="rgb(106,106,82)"/>
<path d="M51 45h3v1h-3v-1z" fill="rgb(82,65,16)"/>
<path d="M68 45h1v3h-1v-3z" fill="rgb(16,16,16)"/>
<path d="M17 46h1v1h-1v-1z" fill="rgb(16,16,16)"/>
<path d="M18 46h1v1h-1v-1z" fill="rgb(82,65,16)"/>
<path d="M19 46h2v1h-2v-1z" fill="rgb(156,123,115)"/>
<path d="M29 46h1v1h-1v-1z" fill="rgb(16,16,16)"/>
<path d="M30 46h1v2h-1v-2z" fill="rgb(82,65,16)"/>
<path d="M31 46h1v1h1v1h-1v2h-2v-2h1v-2z" fill="rgb(222,205,148)"/>
<path d="M32 46h1v1h-1v-1z" fill="rgb(16,16,16)"/>
<path d="M33 46h1v1h-1v-1z" fill="rgb(255,255,148)"/>
<path d="M34 46h1v1h-1v-1z" fill="rgb(222,205,148)"/>
<path d="M35 46h1v1h-1v-1z" fill="rgb(82,65,16)"/>
<path d="M36 46h4v3h-3v1h-1v1h-3v-3h1v-1h2v-1z" fill="rgb(139,148,98)"/>
<path d="M40 46h1v1h-1v-1z" fill="rgb(255,255,148)"/>
<path d="M41 46h1v1h-1v-1z" fill="rgb(222,205,148)"/>
<path d="M42 46h1v1h-1v-1z" fill="rgb(16,16,16)"/>
<path d="M50 46h1v1h-1v-1z" fill="rgb(82,65,16)"/>
<path d="M66 46h1v3h-1v-3z" fill="rgb(82,65,16)"/>
<path d="M16 47h1v1h-1v-1z" fill="rgb(82,65,16)"/>
<path d="M17 47h1v1h-1v-1z" fill="rgb(156,123,115)"/>
<path d="M27 47h1v1h-1v-1z" fill="rgb(82,65,16)"/>
<path d="M28 47h1v1h-1v-1z" fill="rgb(16,16,16)"/>
<path d="M29 47h1v1h-1v-1z" fill="transparent"/>
<path d="M33 47h1v1h-1v-1z" fill="rgb(16,16,16)"/>
<path d="M40 47h1v1h-1v-1z" fill="rgb(222,205,148)"/>
<path d="M41 47h1v1h-1v-1z" fill="rgb(16,16,16)"/>
<path d="M49 47h1v1h-1v-1z" fill="rgb(82,65,16)"/>
<path d="M50 47h1v1h-1v-1z" fill="rgb(106,106,82)"/>
<path d="M73 47h1v2h-1v-2z" fill="rgb(82,65,16)"/>
<path d="M15 48h1v2h-1v-2z" fill="rgb(82,65,16)"/>
<path d="M26 48h1v1h-1v-1z" fill="rgb(82,65,16)"/>
<path d="M27 48h1v1h-1v-1z" fill="rgb(16,16,16)"/>
<path d="M28 48h1v4h-1v6h-1v1h-1v1h-1v1h-1v-5h1v-4h1v-2h1v-1h1v-1z" fill="transparent"/>
<path d="M29 48h1v2h-1v-2z" fill="rgb(82,65,16)"/>
<path d="M32 48h1v2h-1v-2z" fill="rgb(82,65,16)"/>
<path d="M40 48h1v2h1v1h1v1h1v3h-2v-2h-1v2h-2v-1h-1v-1h-1v1h-4v-1h2v-1h1v-1h1v1h2v-1h1
	v-3z" fill="rgb(148,106,139)"/>
<path d="M41 48h1v2h-1v-2z" fill="rgb(82,65,16)"/>
<path d="M49 48h1v1h-1v-1z" fill="rgb(106,106,82)"/>
<path d="M50 48h1v2h-1v1h-1v-2h1v-1z" fill="rgb(255,255,255)"/>
<path d="M51 48h1v1h-1v-1z" fill="rgb(16,16,16)"/>
<path d="M53 48h1v1h-1v-1z" fill="rgb(106,106,82)"/>
<path d="M54 48h1v1h-1v-1z" fill="rgb(16,16,16)"/>
<path d="M67 48h1v1h-1v-1z" fill="rgb(16,16,16)"/>
<path d="M71 48h1v1h-1v-1z" fill="rgb(82,65,16)"/>
<path d="M78 48h2v1h-2v-1z" fill="rgb(82,65,16)"/>
<path d="M80 48h1v1h-1v-1z" fill="rgb(16,16,16)"/>
<path d="M26 49h1v1h-1v-1z" fill="rgb(16,16,16)"/>
<path d="M37 49h1v1h-1v-1z" fill="rgb(82,65,16)"/>
<path d="M38 49h2v2h-1v-1h-1v-1z" fill="rgb(16,16,16)"/>
<path d="M48 49h1v2h-1v-2z" fill="rgb(106,106,82)"/>
<path d="M51 49h1v1h-1v-1z" fill="rgb(156,123,115)"/>
<path d="M52 49h1v1h-1v-1z" fill="rgb(106,106,82)"/>
<path d="M53 49h2v3h-1v1h-1v1h-1v-4h1v-1z" fill="rgb(255,255,255)"/>
<path d="M55 49h1v1h-1v-1z" fill="rgb(16,16,16)"/>
<path d="M65 49h1v2h-1v-2z" fill="rgb(82,65,16)"/>
<path d="M66 49h1v1h-1v-1z" fill="rgb(16,16,16)"/>
<path d="M70 49h1v4h-1v-1h-1v-1h1v-2z" fill="rgb(82,65,16)"/>
<path d="M72 49h1v1h-1v-1z" fill="rgb(82,65,16)"/>
<path d="M77 49h1v1h-1v-1z" fill="rgb(82,65,16)"/>
<path d="M78 49h2v1h-1v1h-1v1h-1v-2h1v-1z" fill="rgb(197,164,123)"/>
<path d="M80 49h1v1h-1v-1z" fill="rgb(82,65,16)"/>
<path d="M14 50h1v1h-1v-1z" fill="rgb(16,16,16)"/>
<path d="M25 50h1v2h-1v-2z" fill="rgb(16,16,16)"/>
<path d="M29 50h1v3h-1v-3z" fill="rgb(156,123,115)"/>
<path d="M30 50h1v3h-1v-3z" fill="rgb(255,255,148)"/>
<path d="M31 50h1v2h-1v-2z" fill="rgb(82,65,16)"/>
<path d="M32 50h1v1h3v1h-1v1h-2v-1h-1v-2z" fill="rgb(222,180,213)"/>
<path d="M36 50h1v1h-1v-1z" fill="rgb(82,65,16)"/>
<path d="M37 50h1v1h1v1h-2v-2z" fill="rgb(16,16,16)"/>
<path d="M38 50h1v1h-1v-1z" fill="rgb(255,255,255)"/>
<path d="M42 50h1v1h-1v-1z" fill="rgb(82,65,16)"/>
<path d="M50 50h1v2h-1v-2z" fill="rgb(16,16,16)"/>
<path d="M51 50h1v4h-1v-4z" fill="rgb(106,106,82)"/>
<path d="M55 50h1v2h-1v-2z" fill="rgb(205,205,205)"/>
<path d="M56 50h1v1h-1v-1z" fill="rgb(82,65,16)"/>
<path d="M72 50h2v2h-1v1h-1v-3z" fill="rgb(156,123,115)"/>
<path d="M76 50h1v2h-1v-2z" fill="rgb(82,65,16)"/>
<path d="M79 50h2v3h-1v1h-1v-1h-1v-2h1v-1z" fill="rgb(156,123,115)"/>
<path d="M81 50h1v3h-1v-3z" fill="rgb(16,16,16)"/>
<path d="M13 51h1v2h-1v-2z" fill="rgb(16,16,16)"/>
<path d="M14 51h1v1h-1v-1z" fill="rgb(82,65,16)"/>
<path d="M43 51h1v1h-1v-1z" fill="rgb(82,65,16)"/>
<path d="M48 51h1v1h-1v-1z" fill="rgb(16,16,16)"/>
<path d="M49 51h1v1h-1v-1z" fill="rgb(205,205,205)"/>
<path d="M56 51h1v1h-1v-1z" fill="rgb(16,16,16)"/>
<path d="M58 51h1v1h-1v-1z" fill="rgb(16,16,16)"/>
<path d="M59 51h1v1h-1v-1z" fill="rgb(106,106,82)"/>
<path d="M64 51h1v1h-1v-1z" fill="rgb(82,65,16)"/>
<path d="M65 51h1v1h-1v-1z" fill="rgb(16,16,16)"/>
<path d="M24 52h1v4h-1v-4z" fill="rgb(16,16,16)"/>
<path d="M28 52h1v8h-1v-8z" fill="rgb(82,65,16)"/>
<path d="M31 52h1v1h-1v-1z" fill="rgb(16,16,16)"/>
<path d="M32 52h1v1h-1v-1z" fill="rgb(148,106,139)"/>
<path d="M44 52h1v2h-1v-2z" fill="rgb(82,65,16)"/>
<path d="M49 52h1v1h-1v-1z" fill="rgb(16,16,16)"/>
<path d="M50 52h1v1h-1v-1z" fill="rgb(156,123,115)"/>
<path d="M54 52h2v1h-2v-1z" fill="rgb(16,16,16)"/>
<path d="M56 52h1v1h-1v-1z" fill="rgb(156,123,115)"/>
<path d="M57 52h1v1h-1v-1z" fill="rgb(106,106,82)"/>
<path d="M58 52h2v1h-1v1h-1v2h-1v-3h1v-1z" fill="rgb(255,255,255)"/>
<path d="M60 52h1v1h-1v-1z" fill="rgb(106,106,82)"/>
<path d="M63 52h1v1h-1v-1z" fill="rgb(82,65,16)"/>
<path d="M64 52h1v1h-1v-1z" fill="rgb(16,16,16)"/>
<path d="M65 52h4v1h-4v-1z" fill="rgb(82,65,16)"/>
<path d="M69 52h1v1h-1v-1z" fill="rgb(197,164,123)"/>
<path d="M76 52h1v1h1v1h1v4h-1v3h-1v2h-1v2h-1v1h-1v1h-1v1h-1v1h-1v-4h-1v-2h-1v-2h-1v-1
	h-1v-1h-1v-3h-1v-3h5v1h2v1h3v-1h1v-2z" fill="rgb(156,123,115)"/>
<path d="M77 52h1v1h-1v-1z" fill="rgb(16,16,16)"/>
<path d="M13 53h1v1h-1v-1z" fill="rgb(82,65,16)"/>
<path d="M29 53h1v1h1v2h1v1h3v1h6v-1h4v-1h1v1h1v3h-1v2h-1v1h-1v1h-1v1h-3v1h-4v-1h-3v-1
	h-1v-1h-1v-1h-1v-2h-1v-7z" fill="rgb(255,255,148)"/>
<path d="M30 53h1v1h-1v-1z" fill="rgb(156,123,115)"/>
<path d="M31 53h1v1h-1v-1z" fill="rgb(255,255,148)"/>
<path d="M32 53h1v1h-1v-1z" fill="rgb(16,16,16)"/>
<path d="M37 53h1v1h-1v-1z" fill="rgb(82,65,16)"/>
<path d="M41 53h1v3h-8v-1h7v-2z" fill="rgb(82,65,16)"/>
<path d="M50 53h1v1h-1v-1z" fill="rgb(16,16,16)"/>
<path d="M53 53h1v1h3v2h-1v-1h-4v-1h1v-1z" fill="rgb(16,16,16)"/>
<path d="M54 53h2v1h-2v-1z" fill="rgb(156,123,115)"/>
<path d="M56 53h1v1h-1v-1z" fill="rgb(106,106,82)"/>
<path d="M59 53h1v1h-1v-1z" fill="rgb(205,205,205)"/>
<path d="M60 53h1v1h1v1h-3v-1h1v-1z" fill="rgb(16,16,16)"/>
<path d="M62 53h2v1h-2v-1z" fill="rgb(16,16,16)"/>
<path d="M64 53h1v1h-1v-1z" fill="rgb(82,65,16)"/>
<path d="M78 53h1v1h-1v-1z" fill="rgb(16,16,16)"/>
<path d="M80 53h1v1h-1v-1z" fill="rgb(82,65,16)"/>
<path d="M12 54h1v4h-1v-4z" fill="rgb(16,16,16)"/>
<path d="M31 54h1v2h-1v-2z" fill="rgb(82,65,16)"/>
<path d="M32 54h1v1h-1v-1z" fill="rgb(222,180,213)"/>
<path d="M33 54h4v1h-4v-1z" fill="rgb(16,16,16)"/>
<path d="M37 54h2v1h-2v-1z" fill="rgb(222,180,213)"/>
<path d="M44 54h1v1h-1v-1z" fill="rgb(222,180,213)"/>
<path d="M45 54h1v1h2v1h-3v-2z" fill="rgb(82,65,16)"/>
<path d="M49 54h2v1h-2v-1z" fill="rgb(82,65,16)"/>
<path d="M51 54h1v1h-1v-1z" fill="rgb(156,123,115)"/>
<path d="M58 54h1v1h-1v-1z" fill="rgb(205,205,205)"/>
<path d="M62 54h2v2h1v1h-1v1h-3v-1h-3v-1h1v-1h3v-1z" fill="rgb(156,123,115)"/>
<path d="M64 54h1v2h-1v-2z" fill="rgb(16,16,16)"/>
<path d="M79 54h1v1h-1v-1z" fill="rgb(82,65,16)"/>
<path d="M80 54h1v1h-1v-1z" fill="rgb(16,16,16)"/>
<path d="M32 55h1v1h-1v-1z" fill="rgb(255,255,255)"/>
<path d="M33 55h1v1h-1v-1z" fill="rgb(222,180,213)"/>
<path d="M42 55h1v1h-1v-1z" fill="rgb(255,255,255)"/>
<path d="M43 55h1v1h-1v-1z" fill="rgb(222,180,213)"/>
<path d="M44 55h1v1h-1v-1z" fill="rgb(255,255,255)"/>
<path d="M48 55h1v1h-1v-1z" fill="rgb(156,123,115)"/>
<path d="M49 55h6v5h-1v2h-1v3h-1v1h-1v1h-2v1h-4v1h-7v-1h-3v-1h-2v-1h-1v-1h-1v-2h1v1h1v1
	h3v1h4v-1h3v-1h1v-1h1v-1h1v-2h1v-3h-1v-1h3v-1z" fill="rgb(222,205,148)"/>
<path d="M55 55h1v1h-1v-1z" fill="rgb(82,65,16)"/>
<path d="M58 55h1v1h-1v-1z" fill="rgb(16,16,16)"/>
<path d="M79 55h1v3h-1v-3z" fill="rgb(16,16,16)"/>
<path d="M23 56h1v1h-1v-1z" fill="rgb(82,65,16)"/>
<path d="M32 56h2v1h-2v-1z" fill="rgb(82,65,16)"/>
<path d="M34 56h8v1h-1v1h-6v-1h-1v-1z" fill="rgb(222,205,148)"/>
<path d="M42 56h2v1h-2v-1z" fill="rgb(82,65,16)"/>
<path d="M44 56h1v1h-1v-1z" fill="rgb(156,123,115)"/>
<path d="M55 56h1v3h-1v-3z" fill="rgb(16,16,16)"/>
<path d="M56 56h1v1h1v1h-2v-2z" fill="rgb(156,123,115)"/>
<path d="M57 56h1v1h-1v-1z" fill="rgb(16,16,16)"/>
<path d="M65 56h1v2h-1v-2z" fill="rgb(16,16,16)"/>
<path d="M13 57h1v1h-1v-1z" fill="rgb(82,65,16)"/>
<path d="M23 57h1v5h-1v-5z" fill="rgb(16,16,16)"/>
<path d="M58 57h3v1h-3v-1z" fill="rgb(82,65,16)"/>
<path d="M64 57h1v1h-1v-1z" fill="rgb(82,65,16)"/>
<path d="M12 58h1v1h-1v-1z" fill="rgb(106,106,82)"/>
<path d="M13 58h1v2h-1v2h-1v-3h1v-1z" fill="rgb(255,255,255)"/>
<path d="M14 58h1v1h-1v-1z" fill="rgb(82,65,16)"/>
<path d="M22 58h1v1h-1v-1z" fill="rgb(82,65,16)"/>
<path d="M27 58h1v1h-1v-1z" fill="rgb(16,16,16)"/>
<path d="M56 58h2v1h-2v-1z" fill="rgb(82,65,16)"/>
<path d="M58 58h6v1h1v1h1v4h-1v3h-1v1h-1v1h-3v-1h-2v-1h-2v-2h-1v-3h1v-2h1v-1h1v-1z" fill="rgb(197,164,123)"/>
<path d="M64 58h1v1h-1v-1z" fill="rgb(156,123,115)"/>
<path d="M65 58h1v1h-1v-1z" fill="rgb(82,65,16)"/>
<path d="M78 58h1v1h-1v-1z" fill="rgb(82,65,16)"/>
<path d="M11 59h1v2h-1v-2z" fill="rgb(16,16,16)"/>
<path d="M14 59h1v1h-1v-1z" fill="rgb(205,205,205)"/>
<path d="M15 59h2v1h-2v-1z" fill="rgb(82,65,16)"/>
<path d="M21 59h1v1h-1v-1z" fill="rgb(82,65,16)"/>
<path d="M22 59h1v1h-1v-1z" fill="rgb(205,205,205)"/>
<path d="M26 59h1v1h-1v-1z" fill="rgb(16,16,16)"/>
<path d="M27 59h1v1h1v3h1v3h-2v1h-3v-1h-1v-3h1v-2h1v-1h1v-1z" fill="rgb(197,164,123)"/>
<path d="M55 59h1v1h-1v-1z" fill="rgb(82,65,16)"/>
<path d="M56 59h1v1h-1v-1z" fill="rgb(156,123,115)"/>
<path d="M65 59h1v1h-1v-1z" fill="rgb(156,123,115)"/>
<path d="M66 59h1v1h-1v-1z" fill="rgb(16,16,16)"/>
<path d="M78 59h1v2h-1v-2z" fill="rgb(16,16,16)"/>
<path d="M13 60h1v1h-1v-1z" fill="rgb(205,205,205)"/>
<path d="M14 60h1v1h-1v-1z" fill="rgb(106,106,82)"/>
<path d="M15 60h1v2h-1v-2z" fill="rgb(255,255,255)"/>
<path d="M16 60h1v1h1v2h-1v1h-1v-4z" fill="rgb(205,205,205)"/>
<path d="M17 60h1v1h-1v-1z" fill="rgb(82,65,16)"/>
<path d="M20 60h1v1h1v1h-3v1h-1v-2h2v-1z" fill="rgb(16,16,16)"/>
<path d="M21 60h1v1h-1v-1z" fill="rgb(205,205,205)"/>
<path d="M22 60h1v2h-1v-2z" fill="rgb(255,255,255)"/>
<path d="M25 60h1v1h-1v-1z" fill="rgb(16,16,16)"/>
<path d="M29 60h1v1h-1v-1z" fill="rgb(156,123,115)"/>
<path d="M54 60h1v2h-1v-2z" fill="rgb(82,65,16)"/>
<path d="M55 60h1v2h-1v-2z" fill="rgb(156,123,115)"/>
<path d="M66 60h1v1h1v1h-1v2h-1v-4z" fill="rgb(156,123,115)"/>
<path d="M67 60h1v1h-1v-1z" fill="rgb(16,16,16)"/>
<path d="M11 61h1v1h-1v-1z" fill="rgb(106,106,82)"/>
<path d="M13 61h2v1h-1v1h-2v-1h1v-1z" fill="rgb(16,16,16)"/>
<path d="M24 61h1v1h-1v-1z" fill="rgb(82,65,16)"/>
<path d="M29 61h1v2h-1v-2z" fill="rgb(82,65,16)"/>
<path d="M68 61h1v2h-1v-2z" fill="rgb(16,16,16)"/>
<path d="M77 61h1v1h-1v-1z" fill="rgb(82,65,16)"/>
<path d="M15 62h1v1h-1v-1z" fill="rgb(106,106,82)"/>
<path d="M22 62h1v1h-1v-1z" fill="rgb(16,16,16)"/>
<path d="M23 62h1v2h-1v-2z" fill="rgb(82,65,16)"/>
<path d="M24 62h1v1h-1v-1z" fill="rgb(156,123,115)"/>
<path d="M30 62h1v1h-1v-1z" fill="rgb(222,205,148)"/>
<path d="M53 62h2v3h1v1h-2v-3h-1v-1z" fill="rgb(156,123,115)"/>
<path d="M67 62h1v1h-1v-1z" fill="rgb(82,65,16)"/>
<path d="M77 62h1v1h-1v-1z" fill="rgb(16,16,16)"/>
<path d="M15 63h1v1h-1v-1z" fill="rgb(16,16,16)"/>
<path d="M17 63h1v2h-2v-1h1v-1z" fill="rgb(16,16,16)"/>
<path d="M30 63h1v1h-1v-1z" fill="rgb(82,65,16)"/>
<path d="M53 63h1v2h-1v-2z" fill="rgb(82,65,16)"/>
<path d="M67 63h2v1h-1v1h-1v2h-1v-3h1v-1z" fill="rgb(197,164,123)"/>
<path d="M69 63h1v1h-1v-1z" fill="rgb(16,16,16)"/>
<path d="M76 63h1v2h-1v-2z" fill="rgb(16,16,16)"/>
<path d="M22 64h1v1h-1v-1z" fill="rgb(16,16,16)"/>
<path d="M23 64h1v2h-1v-2z" fill="rgb(156,123,115)"/>
<path d="M30 64h1v1h-1v-1z" fill="rgb(16,16,16)"/>
<path d="M65 64h1v3h-1v-3z" fill="rgb(82,65,16)"/>
<path d="M68 64h1v1h1v4h-1v1h-2v-5h1v-1z" fill="rgb(156,123,115)"/>
<path d="M69 64h1v1h-1v-1z" fill="rgb(82,65,16)"/>
<path d="M21 65h2v1h-1v2h-1v-3z" fill="rgb(82,65,16)"/>
<path d="M30 65h1v2h1v2h-1v3h1v1h1v1h-1v1h-1v1h-2v-1h-1v-1h-3v-3h-1v-5h1v1h3v-1h2v-1z" fill="rgb(156,123,115)"/>
<path d="M31 65h1v1h-1v-1z" fill="rgb(16,16,16)"/>
<path d="M52 65h1v1h-1v-1z" fill="rgb(82,65,16)"/>
<path d="M53 65h1v6h-1v-6z" fill="rgb(16,16,16)"/>
<path d="M70 65h1v4h-1v-4z" fill="rgb(16,16,16)"/>
<path d="M75 65h1v1h-1v-1z" fill="rgb(16,16,16)"/>
<path d="M22 66h1v1h-1v-1z" fill="rgb(197,164,123)"/>
<path d="M23 66h1v5h-1v-5z" fill="rgb(82,65,16)"/>
<path d="M31 66h1v1h-1v-1z" fill="rgb(82,65,16)"/>
<path d="M32 66h1v1h-1v-1z" fill="rgb(16,16,16)"/>
<path d="M51 66h1v1h-1v-1z" fill="rgb(82,65,16)"/>
<path d="M52 66h1v5h1v2h-8v-1h-4v-1h-2v-1h5v-1h4v-1h2v-1h1v-1z" fill="rgb(222,205,148)"/>
<path d="M54 66h2v1h-2v-1z" fill="rgb(82,65,16)"/>
<path d="M74 66h1v1h-1v-1z" fill="rgb(16,16,16)"/>
<path d="M22 67h1v3h-1v-3z" fill="rgb(156,123,115)"/>
<path d="M32 67h1v2h-1v-2z" fill="rgb(82,65,16)"/>
<path d="M33 67h1v1h-1v-1z" fill="rgb(16,16,16)"/>
<path d="M34 67h1v1h-1v-1z" fill="rgb(82,65,16)"/>
<path d="M49 67h2v1h-2v-1z" fill="rgb(82,65,16)"/>
<path d="M54 67h1v1h2v1h1v1h-3v-1h-1v-2z" fill="rgb(197,164,123)"/>
<path d="M55 67h1v1h-1v-1z" fill="rgb(156,123,115)"/>
<path d="M56 67h2v1h-2v-1z" fill="rgb(82,65,16)"/>
<path d="M64 67h2v3h1v1h2v1h-1v1h1v1h-1v2h-1v-1h-2v-1h-2v1h-2v2h-1v-1h-1v-1h-1v-2h1v-5h1
	v1h3v-1h1v-1z" fill="rgb(156,123,115)"/>
<path d="M66 67h1v3h-1v-3z" fill="rgb(82,65,16)"/>
<path d="M73 67h1v1h-1v-1z" fill="rgb(16,16,16)"/>
<path d="M21 68h1v2h-1v-2z" fill="rgb(16,16,16)"/>
<path d="M33 68h1v1h-1v-1z" fill="rgb(197,164,123)"/>
<path d="M34 68h1v1h1v3h-1v1h-2v-1h-1v-3h2v-1z" fill="rgb(156,123,115)"/>
<path d="M35 68h2v1h-2v-1z" fill="rgb(82,65,16)"/>
<path d="M37 68h1v1h-1v-1z" fill="rgb(156,123,115)"/>
<path d="M45 68h4v1h-4v-1z" fill="rgb(82,65,16)"/>
<path d="M57 68h1v1h-1v-1z" fill="rgb(156,123,115)"/>
<path d="M58 68h1v5h-1v-5z" fill="rgb(82,65,16)"/>
<path d="M72 68h1v1h-1v-1z" fill="rgb(16,16,16)"/>
<path d="M31 69h1v3h-1v-3z" fill="rgb(82,65,16)"/>
<path d="M36 69h2v1h1v1h-2v-1h-1v-1z" fill="rgb(16,16,16)"/>
<path d="M38 69h7v1h-5v1h-1v-1h-1v-1z" fill="rgb(82,65,16)"/>
<path d="M54 69h1v1h3v3h-3v-2h-1v-2z" fill="rgb(156,123,115)"/>
<path d="M69 69h1v1h-1v-1z" fill="rgb(82,65,16)"/>
<path d="M70 69h1v1h-1v-1z" fill="rgb(156,123,115)"/>
<path d="M71 69h1v1h-1v-1z" fill="rgb(16,16,16)"/>
<path d="M22 70h1v2h-1v-2z" fill="rgb(16,16,16)"/>
<path d="M36 70h1v1h-1v-1z" fill="rgb(82,65,16)"/>
<path d="M67 70h1v1h-1v-1z" fill="rgb(82,65,16)"/>
<path d="M68 70h3v1h-1v1h-1v-1h-1v-1z" fill="rgb(16,16,16)"/>
<path d="M23 71h1v1h-1v-1z" fill="rgb(156,123,115)"/>
<path d="M24 71h1v1h-1v-1z" fill="rgb(82,65,16)"/>
<path d="M36 71h1v1h-1v-1z" fill="rgb(16,16,16)"/>
<path d="M40 71h1v1h-1v-1z" fill="rgb(16,16,16)"/>
<path d="M41 71h1v1h-1v-1z" fill="rgb(82,65,16)"/>
<path d="M54 71h1v2h2v1h-11v-1h8v-2z" fill="rgb(16,16,16)"/>
<path d="M23 72h2v1h-2v-1z" fill="rgb(16,16,16)"/>
<path d="M32 72h1v1h-1v-1z" fill="rgb(82,65,16)"/>
<path d="M35 72h1v1h-1v-1z" fill="rgb(16,16,16)"/>
<path d="M42 72h3v1h-3v-1z" fill="rgb(16,16,16)"/>
<path d="M45 72h1v1h-1v-1z" fill="rgb(82,65,16)"/>
<path d="M68 72h1v1h-1v-1z" fill="rgb(16,16,16)"/>
<path d="M24 73h1v1h-1v-1z" fill="rgb(82,65,16)"/>
<path d="M33 73h2v3h-1v-2h-1v-1z" fill="rgb(16,16,16)"/>
<path d="M57 73h1v1h-1v-1z" fill="rgb(82,65,16)"/>
<path d="M69 73h1v1h-1v-1z" fill="rgb(82,65,16)"/>
<path d="M23 74h2v1h-2v-1z" fill="rgb(106,106,82)"/>
<path d="M25 74h2v1h-1v1h-2v1h-2v-1h1v-1h2v-1z" fill="rgb(255,255,255)"/>
<path d="M27 74h1v1h-1v-1z" fill="rgb(82,65,16)"/>
<path d="M32 74h2v1h-2v-1z" fill="rgb(106,106,82)"/>
<path d="M57 74h1v2h-1v-2z" fill="rgb(16,16,16)"/>
<path d="M63 74h2v1h-2v-1z" fill="rgb(106,106,82)"/>
<path d="M68 74h1v2h-1v-2z" fill="rgb(82,65,16)"/>
<path d="M69 74h1v1h2v1h1v1h-4v-3z" fill="rgb(205,205,205)"/>
<path d="M70 74h1v1h-1v-1z" fill="rgb(82,65,16)"/>
<path d="M71 74h1v1h-1v-1z" fill="rgb(16,16,16)"/>
<path d="M22 75h1v1h-1v-1z" fill="rgb(106,106,82)"/>
<path d="M26 75h2v1h-2v-1z" fill="rgb(205,205,205)"/>
<path d="M28 75h1v1h-1v-1z" fill="rgb(82,65,16)"/>
<path d="M31 75h1v1h-1v-1z" fill="rgb(82,65,16)"/>
<path d="M32 75h2v1h1v1h-3v-2z" fill="rgb(205,205,205)"/>
<path d="M58 75h1v1h-1v-1z" fill="rgb(82,65,16)"/>
<path d="M61 75h1v2h-1v-2z" fill="rgb(82,65,16)"/>
<path d="M62 75h1v1h-1v-1z" fill="rgb(106,106,82)"/>
<path d="M63 75h1v1h1v2h-4v-1h1v-1h1v-1z" fill="rgb(255,255,255)"/>
<path d="M64 75h1v1h-1v-1z" fill="rgb(205,205,205)"/>
<path d="M65 75h1v1h-1v-1z" fill="rgb(106,106,82)"/>
<path d="M66 75h1v1h-1v-1z" fill="rgb(82,65,16)"/>
<path d="M72 75h1v1h-1v-1z" fill="rgb(16,16,16)"/>
<path d="M21 76h1v1h-1v-1z" fill="rgb(106,106,82)"/>
<path d="M24 76h2v1h-2v-1z" fill="rgb(205,205,205)"/>
<path d="M26 76h1v1h-1v-1z" fill="rgb(106,106,82)"/>
<path d="M27 76h5v1h-5v-1z" fill="rgb(16,16,16)"/>
<path d="M35 76h1v2h-4v-1h3v-1z" fill="rgb(16,16,16)"/>
<path d="M56 76h1v1h-1v-1z" fill="rgb(106,106,82)"/>
<path d="M57 76h1v2h-2v-1h1v-1z" fill="rgb(255,255,255)"/>
<path d="M58 76h2v1h-1v1h-1v-2z" fill="rgb(205,205,205)"/>
<path d="M65 76h2v2h-1v1h-3v-1h2v-2z" fill="rgb(205,205,205)"/>
<path d="M67 76h1v1h-1v-1z" fill="rgb(82,65,16)"/>
<path d="M68 76h1v1h4v1h-6v-1h1v-1z" fill="rgb(16,16,16)"/>
<path d="M73 76h1v1h-1v-1z" fill="rgb(16,16,16)"/>
<path d="M22 77h5v1h-5v-1z" fill="rgb(16,16,16)"/>
<path d="M55 77h1v1h-1v-1z" fill="rgb(106,106,82)"/>
<path d="M59 77h2v1h-2v-1z" fill="rgb(16,16,16)"/>
<path d="M56 78h3v1h-3v-1z" fill="rgb(16,16,16)"/>
<path d="M61 78h2v1h-2v-1z" fill="rgb(16,16,16)"/>
<path d="M66 78h1v1h-1v-1z" fill="rgb(16,16,16)"/>
<path d="M63 79h3v1h-3v-1z" fill="rgb(16,16,16)"/>
</svg>
