<?xml version="1.0" encoding="utf-8"?>
<!-- generated at drububu.com  -->
<!DOCTYPE svg PUBLIC "-//W3C//DTD SVG 1.1//EN" "http://www.w3.org/Graphics/SVG/1.1/DTD/svg11.dtd">
<svg version="1.1" preserveAspectRatio="xMinYMin meet" xmlns="http://www.w3.org/2000/svg" xmlns:xlink="http://www.w3.org/1999/xlink" x="0px" y="0px" width="96px" height="96px" viewBox="0 0 96 96">
<path d="M0 0h96v96h-96v-96z" fill="transparent"/>
<path d="M44 31h2v1h-1v4h-2v-1h1v-4z" fill="rgb(57,82,98)"/>
<path d="M45 32h1v1h-1v-1z" fill="rgb(189,222,255)"/>
<path d="M46 32h1v2h-1v-2z" fill="rgb(57,82,98)"/>
<path d="M45 33h1v1h-1v-1z" fill="rgb(164,197,238)"/>
<path d="M39 34h1v2h-1v-2z" fill="rgb(57,82,98)"/>
<path d="M40 34h1v1h-1v-1z" fill="rgb(106,148,180)"/>
<path d="M45 34h3v1h-3v-1z" fill="rgb(106,148,180)"/>
<path d="M48 34h2v1h-2v-1z" fill="rgb(57,82,98)"/>
<path d="M40 35h1v1h-1v-1z" fill="rgb(164,197,238)"/>
<path d="M41 35h1v1h1v1h-1v1h-1v1h-1v-3h1v-1z" fill="rgb(57,82,98)"/>
<path d="M45 35h3v1h1v1h-1v1h-3v-1h-1v-1h1v-1z" fill="rgb(189,222,255)"/>
<path d="M48 35h2v1h2v1h1v2h3v2h-3v1h-1v-2h-1v-1h-4v1h-1v6h-5v1h-2v1h-2v-1h1v-3h-1v-1h5
	v-1h1v-1h-1v-4h1v-1h1v1h1v1h3v-1h1v-1h-1v-1z" fill="rgb(164,197,238)"/>
<path d="M50 35h2v1h-2v-1z" fill="rgb(57,82,98)"/>
<path d="M52 36h1v1h-1v-1z" fill="rgb(57,82,98)"/>
<path d="M53 37h1v1h-1v-1z" fill="rgb(57,82,98)"/>
<path d="M57 37h4v1h-4v-1z" fill="rgb(57,82,98)"/>
<path d="M41 38h1v1h-1v-1z" fill="rgb(255,255,255)"/>
<path d="M53 38h1v1h-1v-1z" fill="rgb(106,148,180)"/>
<path d="M54 38h3v1h-3v-1z" fill="rgb(57,82,98)"/>
<path d="M57 38h3v1h-2v1h-2v-1h1v-1z" fill="rgb(189,222,255)"/>
<path d="M60 38h1v1h-1v-1z" fill="rgb(16,16,16)"/>
<path d="M39 39h1v3h1v1h-4v1h-2v-1h1v-1h2v-1h1v-2z" fill="rgb(57,82,98)"/>
<path d="M40 39h2v1h-1v2h-1v-3z" fill="rgb(255,115,115)"/>
<path d="M47 39h1v2h-2v-1h1v-1z" fill="rgb(106,148,180)"/>
<path d="M48 39h2v1h-2v-1z" fill="rgb(57,82,98)"/>
<path d="M50 39h1v1h1v1h-2v-2z" fill="rgb(106,148,180)"/>
<path d="M58 39h2v1h-2v-1z" fill="rgb(16,16,16)"/>
<path d="M41 40h1v2h-1v-2z" fill="rgb(16,16,16)"/>
<path d="M48 40h2v1h1v2h-1v1h-1v-3h-1v-1z" fill="rgb(255,255,255)"/>
<path d="M56 40h2v1h-2v-1z" fill="rgb(16,16,16)"/>
<path d="M42 41h1v1h-1v-1z" fill="rgb(106,148,180)"/>
<path d="M46 41h1v4h-1v-4z" fill="rgb(57,82,98)"/>
<path d="M47 41h2v4h-2v-1h1v-2h-1v-1z" fill="rgb(255,115,115)"/>
<path d="M51 41h1v4h-1v-4z" fill="rgb(57,82,98)"/>
<path d="M53 41h2v1h-1v1h2v1h-1v1h1v1h-2v3h-2v-1h-1v1h-3v2h1v3h1v4h-1v2h-1v1h-1v1h-1v1
	h-2v1h-4v1h-4v-1h-2v-1h2v-1h1v1h2v-1h2v-1h1v-1h1v-1h1v-1h2v-2h1v-5h-1v-1h-1v-1
	h-2v-1h1v-1h-3v-1h5v-1h1v1h1v1h2v-1h1v-1h1v-3h1v-1z" fill="rgb(106,148,180)"/>
<path d="M55 41h1v1h-1v-1z" fill="rgb(16,16,16)"/>
<path d="M41 42h1v1h-1v-1z" fill="rgb(106,148,180)"/>
<path d="M47 42h1v2h-1v-2z" fill="rgb(16,16,16)"/>
<path d="M54 42h2v1h-2v-1z" fill="rgb(57,82,98)"/>
<path d="M50 43h1v2h-1v1h-2v-1h1v-1h1v-1z" fill="rgb(213,213,213)"/>
<path d="M56 43h2v1h-2v-1z" fill="rgb(57,82,98)"/>
<path d="M35 44h1v3h-1v-3z" fill="rgb(16,16,16)"/>
<path d="M36 44h1v1h-1v-1z" fill="rgb(164,197,238)"/>
<path d="M37 44h1v1h-1v-1z" fill="rgb(189,222,255)"/>
<path d="M55 44h3v2h-2v-1h-1v-1z" fill="rgb(164,197,238)"/>
<path d="M58 44h2v1h-2v-1z" fill="rgb(57,82,98)"/>
<path d="M36 45h1v2h-1v-2z" fill="rgb(106,148,180)"/>
<path d="M37 45h1v1h-1v-1z" fill="rgb(16,16,16)"/>
<path d="M47 45h1v1h-1v-1z" fill="rgb(57,82,98)"/>
<path d="M50 45h1v1h-1v-1z" fill="rgb(57,82,98)"/>
<path d="M58 45h2v1h-2v-1z" fill="rgb(189,222,255)"/>
<path d="M60 45h1v1h-1v-1z" fill="rgb(16,16,16)"/>
<path d="M37 46h1v1h-1v-1z" fill="rgb(57,82,98)"/>
<path d="M48 46h2v1h-2v-1z" fill="rgb(57,82,98)"/>
<path d="M54 46h2v1h-1v1h-1v-2z" fill="rgb(57,82,98)"/>
<path d="M56 46h4v1h-4v-1z" fill="rgb(16,16,16)"/>
<path d="M60 46h1v1h-1v-1z" fill="rgb(57,82,98)"/>
<path d="M35 47h2v2h-1v-1h-1v-1z" fill="rgb(57,82,98)"/>
<path d="M39 47h1v1h-1v-1z" fill="rgb(106,148,180)"/>
<path d="M40 47h1v1h-1v-1z" fill="rgb(57,82,98)"/>
<path d="M41 47h2v1h-2v-1z" fill="rgb(16,16,16)"/>
<path d="M43 47h1v1h-1v-1z" fill="rgb(57,82,98)"/>
<path d="M37 48h2v1h-2v-1z" fill="rgb(16,16,16)"/>
<path d="M39 48h1v1h-1v-1z" fill="rgb(57,82,98)"/>
<path d="M41 48h2v1h-2v-1z" fill="rgb(57,82,98)"/>
<path d="M51 48h1v1h-1v-1z" fill="rgb(16,16,16)"/>
<path d="M54 48h1v1h-1v-1z" fill="rgb(164,197,238)"/>
<path d="M55 48h1v1h-1v-1z" fill="rgb(57,82,98)"/>
<path d="M43 49h1v1h-1v-1z" fill="rgb(16,16,16)"/>
<path d="M44 49h1v1h-1v-1z" fill="rgb(57,82,98)"/>
<path d="M48 49h1v2h-1v-2z" fill="rgb(57,82,98)"/>
<path d="M49 49h2v1h-2v-1z" fill="rgb(16,16,16)"/>
<path d="M51 49h1v1h1v1h2v1h-1v1h-2v1h-2v-3h-1v-1h2v-1z" fill="transparent"/>
<path d="M52 49h1v1h-1v-1z" fill="rgb(16,16,16)"/>
<path d="M53 49h1v2h-1v-2z" fill="rgb(57,82,98)"/>
<path d="M54 49h2v2h-1v-1h-1v-1z" fill="rgb(189,222,255)"/>
<path d="M56 49h1v1h-1v-1z" fill="rgb(106,148,180)"/>
<path d="M43 50h1v1h-1v-1z" fill="rgb(57,82,98)"/>
<path d="M44 50h2v1h1v2h-1v-1h-3v-1h1v-1z" fill="rgb(222,197,74)"/>
<path d="M54 50h1v1h-1v-1z" fill="rgb(16,16,16)"/>
<path d="M56 50h1v1h-1v-1z" fill="rgb(57,82,98)"/>
<path d="M41 51h1v1h-1v-1z" fill="rgb(156,131,74)"/>
<path d="M42 51h1v1h-1v-1z" fill="rgb(57,82,98)"/>
<path d="M49 51h1v1h-1v-1z" fill="rgb(57,82,98)"/>
<path d="M55 51h2v1h-2v-1z" fill="rgb(16,16,16)"/>
<path d="M40 52h1v1h-1v-1z" fill="rgb(156,131,74)"/>
<path d="M41 52h3v1h2v3h-2v-1h-2v-1h-2v-1h1v-1z" fill="rgb(255,255,172)"/>
<path d="M44 52h2v1h-2v-1z" fill="rgb(156,131,74)"/>
<path d="M49 52h1v2h-1v-2z" fill="rgb(16,16,16)"/>
<path d="M54 52h6v1h-6v-1z" fill="rgb(156,131,74)"/>
<path d="M39 53h1v2h-1v-2z" fill="rgb(156,131,74)"/>
<path d="M46 53h1v1h-1v-1z" fill="rgb(156,131,74)"/>
<path d="M52 53h2v1h-2v-1z" fill="rgb(156,131,74)"/>
<path d="M54 53h2v1h-2v-1z" fill="rgb(222,197,74)"/>
<path d="M56 53h4v1h-4v-1z" fill="rgb(255,255,172)"/>
<path d="M60 53h1v1h-1v-1z" fill="rgb(156,131,74)"/>
<path d="M40 54h2v1h-2v-1z" fill="rgb(222,197,74)"/>
<path d="M46 54h1v2h-1v-2z" fill="rgb(222,197,74)"/>
<path d="M50 54h2v1h-1v3h-1v-4z" fill="rgb(16,16,16)"/>
<path d="M52 54h2v1h-2v-1z" fill="rgb(222,197,74)"/>
<path d="M54 54h4v1h-4v-1z" fill="rgb(156,131,74)"/>
<path d="M58 54h3v1h-3v-1z" fill="rgb(222,197,74)"/>
<path d="M61 54h1v1h-1v-1z" fill="rgb(156,131,74)"/>
<path d="M38 55h1v1h-1v-1z" fill="rgb(156,131,74)"/>
<path d="M39 55h3v1h2v2h-3v-1h-2v-2z" fill="rgb(255,255,172)"/>
<path d="M42 55h1v1h-1v-1z" fill="rgb(222,197,74)"/>
<path d="M43 55h1v1h-1v-1z" fill="rgb(156,131,74)"/>
<path d="M51 55h1v1h-1v-1z" fill="rgb(222,197,74)"/>
<path d="M52 55h2v1h-2v-1z" fill="rgb(156,131,74)"/>
<path d="M54 55h1v1h3v1h-3v1h2v1h-4v-1h-2v-1h1v-1h2v-1z" fill="rgb(222,197,74)"/>
<path d="M55 55h6v1h-1v1h-2v-1h-3v-1z" fill="rgb(255,255,172)"/>
<path d="M61 55h1v1h-1v-1z" fill="rgb(16,16,16)"/>
<path d="M36 56h3v1h-3v-1z" fill="rgb(16,16,16)"/>
<path d="M44 56h1v1h-1v-1z" fill="rgb(156,131,74)"/>
<path d="M45 56h1v1h-1v-1z" fill="rgb(222,197,74)"/>
<path d="M51 56h1v1h-1v-1z" fill="rgb(156,131,74)"/>
<path d="M60 56h1v1h-1v-1z" fill="rgb(156,131,74)"/>
<path d="M34 57h2v1h-2v-1z" fill="rgb(16,16,16)"/>
<path d="M36 57h3v1h1v3h-1v1h-3v-2h-1v2h1v1h-2v-1h-1v-2h1v-2h2v-1z" fill="rgb(164,197,238)"/>
<path d="M39 57h1v1h-1v-1z" fill="rgb(16,16,16)"/>
<path d="M40 57h1v1h-1v-1z" fill="rgb(156,131,74)"/>
<path d="M44 57h1v1h-1v-1z" fill="rgb(222,197,74)"/>
<path d="M45 57h1v1h-1v-1z" fill="rgb(156,131,74)"/>
<path d="M55 57h3v1h-3v-1z" fill="rgb(255,255,172)"/>
<path d="M58 57h1v1h-1v-1z" fill="rgb(222,197,74)"/>
<path d="M59 57h1v1h-1v-1z" fill="rgb(16,16,16)"/>
<path d="M33 58h1v2h-1v-2z" fill="rgb(16,16,16)"/>
<path d="M40 58h1v3h-1v-3z" fill="rgb(16,16,16)"/>
<path d="M41 58h1v1h-1v-1z" fill="rgb(156,131,74)"/>
<path d="M42 58h2v1h-2v-1z" fill="rgb(222,197,74)"/>
<path d="M49 58h1v2h-1v-2z" fill="rgb(16,16,16)"/>
<path d="M50 58h1v1h-1v-1z" fill="rgb(57,82,98)"/>
<path d="M51 58h2v1h-2v-1z" fill="rgb(16,16,16)"/>
<path d="M57 58h2v1h-2v-1z" fill="rgb(16,16,16)"/>
<path d="M36 59h1v1h-1v-1z" fill="rgb(57,82,98)"/>
<path d="M37 59h1v1h-1v-1z" fill="rgb(106,148,180)"/>
<path d="M41 59h1v1h-1v-1z" fill="rgb(222,197,74)"/>
<path d="M42 59h1v1h-1v-1z" fill="rgb(156,131,74)"/>
<path d="M53 59h3v1h-3v-1z" fill="rgb(16,16,16)"/>
<path d="M56 59h1v1h-1v-1z" fill="rgb(156,131,74)"/>
<path d="M32 60h1v3h-1v-3z" fill="rgb(16,16,16)"/>
<path d="M35 60h1v1h-1v-1z" fill="rgb(57,82,98)"/>
<path d="M41 60h1v1h-1v-1z" fill="rgb(164,197,238)"/>
<path d="M48 60h1v1h-1v-1z" fill="rgb(16,16,16)"/>
<path d="M35 61h1v1h-1v-1z" fill="rgb(16,16,16)"/>
<path d="M39 61h1v1h-1v-1z" fill="rgb(57,82,98)"/>
<path d="M40 61h1v1h-1v-1z" fill="rgb(164,197,238)"/>
<path d="M47 61h1v1h-1v-1z" fill="rgb(16,16,16)"/>
<path d="M33 62h1v1h-1v-1z" fill="rgb(106,148,180)"/>
<path d="M37 62h1v1h-1v-1z" fill="rgb(16,16,16)"/>
<path d="M38 62h1v1h-1v-1z" fill="rgb(57,82,98)"/>
<path d="M46 62h1v1h-1v-1z" fill="rgb(57,82,98)"/>
<path d="M33 63h1v1h-1v-1z" fill="rgb(16,16,16)"/>
<path d="M44 63h1v1h-1v-1z" fill="rgb(16,16,16)"/>
<path d="M45 63h1v1h-1v-1z" fill="rgb(57,82,98)"/>
<path d="M34 64h2v1h-2v-1z" fill="rgb(16,16,16)"/>
<path d="M40 64h1v2h-1v-2z" fill="rgb(57,82,98)"/>
<path d="M41 64h3v1h-3v-1z" fill="rgb(16,16,16)"/>
<path d="M36 65h4v1h-4v-1z" fill="rgb(16,16,16)"/>
</svg>
