<?xml version="1.0" encoding="utf-8"?>
<!-- generated at drububu.com  -->
<!DOCTYPE svg PUBLIC "-//W3C//DTD SVG 1.1//EN" "http://www.w3.org/Graphics/SVG/1.1/DTD/svg11.dtd">
<svg version="1.1" preserveAspectRatio="xMinYMin meet" xmlns="http://www.w3.org/2000/svg" xmlns:xlink="http://www.w3.org/1999/xlink" x="0px" y="0px" width="96px" height="96px" viewBox="0 0 96 96">
<path d="M0 0h96v96h-96v-96z" fill="transparent"/>
<path d="M35 25h1v1h-1v-1z" fill="rgb(106,131,156)"/>
<path d="M36 25h1v2h-1v-2z" fill="rgb(32,65,90)"/>
<path d="M62 25h2v1h-2v-1z" fill="rgb(123,98,32)"/>
<path d="M34 26h1v1h-1v-1z" fill="rgb(106,131,156)"/>
<path d="M35 26h1v1h-1v-1z" fill="rgb(164,205,230)"/>
<path d="M45 26h1v1h-1v-1z" fill="rgb(123,98,32)"/>
<path d="M46 26h1v1h-1v-1z" fill="rgb(16,16,16)"/>
<path d="M61 26h1v1h-1v-1z" fill="rgb(123,98,32)"/>
<path d="M62 26h1v1h-1v-1z" fill="rgb(222,197,82)"/>
<path d="M63 26h1v3h-1v-3z" fill="rgb(16,16,16)"/>
<path d="M33 27h1v1h-1v-1z" fill="rgb(106,131,156)"/>
<path d="M34 27h1v2h-1v2h-1v5h-1v2h-1v3h1v-3h1v4h2v1h1v1h-1v1h-2v1h-2v1h-2v1h-5v-1h1v-1
	h2v-1h2v-1h1v-1h1v-1h-1v-3h-1v-4h1v-2h1v-2h1v-2h1v-1h1v-1z" fill="rgb(164,205,230)"/>
<path d="M35 27h1v1h-1v-1z" fill="rgb(131,172,205)"/>
<path d="M36 27h1v1h-1v-1z" fill="rgb(16,16,16)"/>
<path d="M44 27h1v2h-1v-2z" fill="rgb(123,98,32)"/>
<path d="M45 27h1v2h1v2h-1v1h-1v-1h-1v-2h1v-2z" fill="rgb(222,197,82)"/>
<path d="M46 27h1v2h-1v-2z" fill="rgb(123,98,32)"/>
<path d="M60 27h1v1h-1v-1z" fill="rgb(123,98,32)"/>
<path d="M61 27h1v1h-1v-1z" fill="rgb(222,197,82)"/>
<path d="M62 27h1v2h-1v4h-1v3h2v2h-1v1h-2v1h-2v-1h-2v-1h1v-1h1v-2h-1v1h-1v-2h1v-2h1v-1h1
	v-1h1v-1h1v-1h1v-1z" fill="rgb(255,255,172)"/>
<path d="M32 28h1v1h-1v-1z" fill="rgb(106,131,156)"/>
<path d="M35 28h1v1h-1v-1z" fill="rgb(32,65,90)"/>
<path d="M39 28h2v1h-2v-1z" fill="rgb(74,106,131)"/>
<path d="M41 28h1v1h-1v-1z" fill="rgb(32,65,90)"/>
<path d="M59 28h1v2h-1v-2z" fill="rgb(123,98,32)"/>
<path d="M60 28h1v1h-1v-1z" fill="rgb(222,197,82)"/>
<path d="M31 29h1v2h-1v-2z" fill="rgb(106,131,156)"/>
<path d="M34 29h1v3h-1v2h-1v-3h1v-2z" fill="rgb(131,172,205)"/>
<path d="M35 29h1v2h-1v-2z" fill="rgb(16,16,16)"/>
<path d="M37 29h1v1h-1v-1z" fill="rgb(74,106,131)"/>
<path d="M38 29h1v1h-1v-1z" fill="rgb(106,131,156)"/>
<path d="M39 29h1v2h-1v2h-1v2h1v2h-1v1h-1v1h-1v1h-1v1h-1v-2h1v-2h-1v1h-1v-2h1v-2h1v-2h1
	v-1h1v-1h2v-1z" fill="rgb(164,205,230)"/>
<path d="M40 29h1v1h-1v-1z" fill="rgb(131,172,205)"/>
<path d="M41 29h1v1h-1v-1z" fill="rgb(16,16,16)"/>
<path d="M43 29h1v2h-1v-2z" fill="rgb(123,98,32)"/>
<path d="M47 29h1v2h-1v-2z" fill="rgb(16,16,16)"/>
<path d="M62 29h1v1h-1v-1z" fill="rgb(123,98,32)"/>
<path d="M36 30h1v1h-1v-1z" fill="rgb(74,106,131)"/>
<path d="M40 30h1v1h-1v-1z" fill="rgb(32,65,90)"/>
<path d="M48 30h2v1h-2v-1z" fill="rgb(74,106,131)"/>
<path d="M50 30h1v2h-1v-2z" fill="rgb(16,16,16)"/>
<path d="M58 30h1v1h-1v-1z" fill="rgb(123,98,32)"/>
<path d="M62 30h1v3h-1v-3z" fill="rgb(16,16,16)"/>
<path d="M30 31h1v1h-1v-1z" fill="rgb(74,106,131)"/>
<path d="M35 31h1v1h-1v-1z" fill="rgb(32,65,90)"/>
<path d="M39 31h1v1h1v1h2v-1h1v2h-1v1h-1v1h-2v-1h-2v-2h1v-2z" fill="rgb(131,172,205)"/>
<path d="M40 31h1v1h-1v-1z" fill="rgb(16,16,16)"/>
<path d="M42 31h1v1h-1v-1z" fill="rgb(123,98,32)"/>
<path d="M43 31h2v1h-2v-1z" fill="rgb(32,65,90)"/>
<path d="M46 31h2v1h-2v-1z" fill="rgb(74,106,131)"/>
<path d="M48 31h2v1h-1v1h-1v2h-1v-1h-1v-2h2v-1z" fill="rgb(164,205,230)"/>
<path d="M57 31h1v1h-1v-1z" fill="rgb(123,98,32)"/>
<path d="M30 32h1v1h-1v-1z" fill="rgb(106,131,156)"/>
<path d="M34 32h1v1h-1v-1z" fill="rgb(32,65,90)"/>
<path d="M41 32h1v1h-1v-1z" fill="rgb(32,65,90)"/>
<path d="M42 32h1v1h-1v-1z" fill="rgb(74,106,131)"/>
<path d="M44 32h1v1h-1v-1z" fill="rgb(16,16,16)"/>
<path d="M45 32h1v1h-1v-1z" fill="rgb(74,106,131)"/>
<path d="M49 32h1v1h-1v-1z" fill="rgb(16,16,16)"/>
<path d="M56 32h1v1h-1v-1z" fill="rgb(123,98,32)"/>
<path d="M29 33h1v1h-1v-1z" fill="rgb(74,106,131)"/>
<path d="M34 33h1v1h-1v-1z" fill="rgb(106,131,156)"/>
<path d="M44 33h1v1h-1v-1z" fill="rgb(74,106,131)"/>
<path d="M45 33h1v1h1v3h3v1h-2v1h-3v-1h1v-1h-2v1h-2v-1h1v-1h1v-2h1v-1z" fill="rgb(131,172,205)"/>
<path d="M48 33h1v1h-1v-1z" fill="rgb(74,106,131)"/>
<path d="M55 33h1v1h-1v-1z" fill="rgb(32,65,90)"/>
<path d="M56 33h1v1h-1v-1z" fill="rgb(106,131,156)"/>
<path d="M61 33h1v1h-1v-1z" fill="rgb(123,98,32)"/>
<path d="M29 34h1v1h-1v-1z" fill="rgb(106,131,156)"/>
<path d="M33 34h1v1h-1v-1z" fill="rgb(32,65,90)"/>
<path d="M43 34h1v1h-1v-1z" fill="rgb(74,106,131)"/>
<path d="M48 34h1v1h-1v-1z" fill="rgb(16,16,16)"/>
<path d="M54 34h1v1h-1v-1z" fill="rgb(74,106,131)"/>
<path d="M55 34h1v1h-1v-1z" fill="rgb(106,131,156)"/>
<path d="M61 34h1v2h-1v-2z" fill="rgb(16,16,16)"/>
<path d="M66 34h7v1h-7v-1z" fill="rgb(123,98,32)"/>
<path d="M28 35h1v3h-1v-3z" fill="rgb(74,106,131)"/>
<path d="M33 35h1v1h-1v-1z" fill="rgb(106,131,156)"/>
<path d="M39 35h1v1h-1v-1z" fill="rgb(106,131,156)"/>
<path d="M42 35h1v1h-1v-1z" fill="rgb(74,106,131)"/>
<path d="M43 35h1v1h-1v-1z" fill="rgb(106,131,156)"/>
<path d="M47 35h1v1h-1v-1z" fill="rgb(16,16,16)"/>
<path d="M48 35h1v1h-1v-1z" fill="rgb(32,65,90)"/>
<path d="M54 35h1v1h-1v-1z" fill="rgb(106,131,156)"/>
<path d="M55 35h1v1h-1v-1z" fill="rgb(131,172,205)"/>
<path d="M57 35h1v1h-1v-1z" fill="rgb(222,197,82)"/>
<path d="M62 35h4v1h-4v-1z" fill="rgb(123,98,32)"/>
<path d="M66 35h6v1h-1v1h-1v1h-1v1h-1v1h-1v1h-1v1h-1v1h-1v1h-1v2h2v1h2v1h1v1h2v1h-7v-1
	h-1v-1h-3v-1h1v-1h1v-1h-4v-1h1v-1h2v-1h2v-1h-1v-1h2v-1h2v-1h-2v-2h3v-1z" fill="rgb(222,197,82)"/>
<path d="M72 35h1v1h-1v-1z" fill="rgb(16,16,16)"/>
<path d="M32 36h1v2h-1v-2z" fill="rgb(106,131,156)"/>
<path d="M35 36h1v1h-1v-1z" fill="rgb(106,131,156)"/>
<path d="M39 36h1v2h-1v-2z" fill="rgb(74,106,131)"/>
<path d="M40 36h3v1h-1v1h2v-1h2v1h-1v1h2v1h-2v1h-1v1h2v1h-1v2h-1v1h-1v1h-2v1h-5v-1h-2v1
	h-1v1h-1v1h-1v1h-1v1h-2v-1h1v-3h1v-1h2v-1h2v-1h2v-1h1v-1h1v-1h1v-1h1v-5z" fill="rgb(106,131,156)"/>
<path d="M47 36h2v1h-2v-1z" fill="rgb(106,131,156)"/>
<path d="M49 36h2v1h-2v-1z" fill="rgb(32,65,90)"/>
<path d="M53 36h1v1h-1v-1z" fill="rgb(74,106,131)"/>
<path d="M54 36h1v1h2v1h-1v1h-1v1h4v1h-2v1h-2v1h-2v1h-2v-1h-1v-2h1v-1h1v-2h1v-1h1v-1z" fill="rgb(131,172,205)"/>
<path d="M55 36h2v1h-2v-1z" fill="rgb(222,197,82)"/>
<path d="M57 36h1v1h-1v-1z" fill="rgb(131,172,205)"/>
<path d="M68 36h1v1h-1v-1z" fill="rgb(123,98,32)"/>
<path d="M71 36h1v1h-1v-1z" fill="rgb(16,16,16)"/>
<path d="M34 37h1v1h-1v-1z" fill="rgb(106,131,156)"/>
<path d="M38 37h1v2h-1v-2z" fill="rgb(32,65,90)"/>
<path d="M50 37h1v1h-1v-1z" fill="rgb(16,16,16)"/>
<path d="M52 37h1v1h-1v-1z" fill="rgb(74,106,131)"/>
<path d="M66 37h1v1h-1v-1z" fill="rgb(123,98,32)"/>
<path d="M70 37h1v1h-1v-1z" fill="rgb(16,16,16)"/>
<path d="M27 38h1v1h-1v-1z" fill="rgb(74,106,131)"/>
<path d="M28 38h1v1h-1v-1z" fill="rgb(106,131,156)"/>
<path d="M31 38h1v3h-1v-3z" fill="rgb(106,131,156)"/>
<path d="M33 38h1v1h-1v-1z" fill="rgb(106,131,156)"/>
<path d="M34 38h1v1h-1v-1z" fill="rgb(131,172,205)"/>
<path d="M37 38h1v1h-1v-1z" fill="rgb(131,172,205)"/>
<path d="M39 38h1v3h-1v1h-1v-3h1v-1z" fill="rgb(255,255,255)"/>
<path d="M48 38h1v1h-1v-1z" fill="rgb(32,65,90)"/>
<path d="M49 38h1v1h-1v-1z" fill="rgb(16,16,16)"/>
<path d="M50 38h1v1h-1v-1z" fill="transparent"/>
<path d="M51 38h1v1h-1v-1z" fill="rgb(32,65,90)"/>
<path d="M62 38h1v1h-1v-1z" fill="rgb(222,197,82)"/>
<path d="M63 38h2v1h-2v-1z" fill="rgb(123,98,32)"/>
<path d="M69 38h1v1h-1v-1z" fill="rgb(16,16,16)"/>
<path d="M27 39h1v1h-1v-1z" fill="rgb(32,65,90)"/>
<path d="M28 39h2v1h-1v1h-1v-2z" fill="rgb(131,172,205)"/>
<path d="M33 39h1v2h-1v-2z" fill="rgb(32,65,90)"/>
<path d="M36 39h1v1h-1v-1z" fill="rgb(106,131,156)"/>
<path d="M37 39h1v1h-1v-1z" fill="rgb(16,16,16)"/>
<path d="M47 39h1v1h-1v-1z" fill="rgb(16,16,16)"/>
<path d="M48 39h2v2h-1v-1h-1v-1z" fill="transparent"/>
<path d="M50 39h1v1h-1v-1z" fill="rgb(32,65,90)"/>
<path d="M51 39h1v1h-1v-1z" fill="rgb(106,131,156)"/>
<path d="M55 39h3v1h-3v-1z" fill="rgb(222,197,82)"/>
<path d="M60 39h1v1h-1v-1z" fill="rgb(222,197,82)"/>
<path d="M61 39h2v1h-2v-1z" fill="rgb(123,98,32)"/>
<path d="M68 39h1v1h-1v-1z" fill="rgb(16,16,16)"/>
<path d="M27 40h1v1h-1v-1z" fill="rgb(16,16,16)"/>
<path d="M29 40h1v1h-1v-1z" fill="rgb(106,131,156)"/>
<path d="M35 40h1v1h1v1h1v1h-2v-1h-1v-2z" fill="rgb(16,16,16)"/>
<path d="M36 40h1v1h-1v-1z" fill="rgb(255,255,255)"/>
<path d="M37 40h1v2h-1v-2z" fill="rgb(32,65,90)"/>
<path d="M45 40h2v1h1v1h-2v-1h-1v-1z" fill="rgb(131,172,205)"/>
<path d="M47 40h1v1h-1v-1z" fill="rgb(106,131,156)"/>
<path d="M48 40h1v1h-1v-1z" fill="rgb(16,16,16)"/>
<path d="M50 40h1v1h-1v-1z" fill="rgb(74,106,131)"/>
<path d="M59 40h2v1h-2v-1z" fill="rgb(123,98,32)"/>
<path d="M67 40h1v1h-1v-1z" fill="rgb(16,16,16)"/>
<path d="M28 41h1v1h-1v-1z" fill="rgb(32,65,90)"/>
<path d="M29 41h1v1h-1v-1z" fill="rgb(74,106,131)"/>
<path d="M33 41h1v1h-1v-1z" fill="rgb(106,131,156)"/>
<path d="M34 41h1v1h-1v-1z" fill="rgb(32,65,90)"/>
<path d="M44 41h2v1h-2v-1z" fill="rgb(32,65,90)"/>
<path d="M48 41h2v2h-1v-1h-1v-1z" fill="rgb(32,65,90)"/>
<path d="M57 41h2v1h-2v-1z" fill="rgb(74,106,131)"/>
<path d="M59 41h3v1h-2v1h-2v1h-1v1h4v1h-1v1h-1v1h3v1h-7v-1h-6v2h-1v-1h-1v-2h-1v-1h-1v-1
	h1v-1h1v-1h1v1h2v-1h1v2h2v-1h2v-1h2v-1h2v-1z" fill="rgb(106,131,156)"/>
<path d="M66 41h1v1h-1v-1z" fill="rgb(16,16,16)"/>
<path d="M29 42h1v2h-1v-2z" fill="rgb(16,16,16)"/>
<path d="M30 42h1v1h-1v-1z" fill="rgb(106,131,156)"/>
<path d="M35 42h1v1h-1v-1z" fill="rgb(156,156,156)"/>
<path d="M46 42h1v1h-1v-1z" fill="rgb(16,16,16)"/>
<path d="M47 42h1v1h-1v-1z" fill="rgb(32,65,90)"/>
<path d="M48 42h1v1h-1v-1z" fill="rgb(131,172,205)"/>
<path d="M55 42h2v1h-2v-1z" fill="rgb(74,106,131)"/>
<path d="M65 42h1v1h-1v-1z" fill="rgb(16,16,16)"/>
<path d="M36 43h1v1h-1v-1z" fill="rgb(131,172,205)"/>
<path d="M45 43h1v1h-1v-1z" fill="rgb(74,106,131)"/>
<path d="M46 43h1v1h-1v-1z" fill="rgb(32,65,90)"/>
<path d="M48 43h2v1h-2v-1z" fill="rgb(16,16,16)"/>
<path d="M53 43h2v1h-2v-1z" fill="rgb(74,106,131)"/>
<path d="M64 43h1v1h-1v-1z" fill="rgb(16,16,16)"/>
<path d="M27 44h2v1h-2v-1z" fill="rgb(74,106,131)"/>
<path d="M35 44h1v1h-1v-1z" fill="rgb(131,172,205)"/>
<path d="M45 44h1v1h-1v-1z" fill="rgb(32,65,90)"/>
<path d="M51 44h2v1h-2v-1z" fill="rgb(74,106,131)"/>
<path d="M63 44h1v1h-1v-1z" fill="rgb(16,16,16)"/>
<path d="M24 45h3v1h-3v-1z" fill="rgb(74,106,131)"/>
<path d="M33 45h1v1h-1v-1z" fill="rgb(131,172,205)"/>
<path d="M44 45h1v1h-1v-1z" fill="rgb(74,106,131)"/>
<path d="M49 45h2v1h-2v-1z" fill="rgb(74,106,131)"/>
<path d="M63 45h1v1h-1v-1z" fill="rgb(123,98,32)"/>
<path d="M64 45h1v1h-1v-1z" fill="rgb(16,16,16)"/>
<path d="M23 46h1v2h-1v-2z" fill="rgb(74,106,131)"/>
<path d="M24 46h1v1h-1v-1z" fill="rgb(131,172,205)"/>
<path d="M31 46h1v1h-1v-1z" fill="rgb(131,172,205)"/>
<path d="M36 46h2v1h-2v-1z" fill="rgb(32,65,90)"/>
<path d="M38 46h1v1h-1v-1z" fill="rgb(74,106,131)"/>
<path d="M43 46h1v1h-1v-1z" fill="rgb(32,65,90)"/>
<path d="M44 46h1v1h1v2h-1v-1h-1v-2z" fill="rgb(106,131,156)"/>
<path d="M45 46h1v1h-1v-1z" fill="rgb(32,65,90)"/>
<path d="M65 46h2v1h-2v-1z" fill="rgb(123,98,32)"/>
<path d="M29 47h1v1h-1v-1z" fill="rgb(131,172,205)"/>
<path d="M34 47h1v1h-1v-1z" fill="rgb(74,106,131)"/>
<path d="M35 47h1v1h-1v-1z" fill="rgb(16,16,16)"/>
<path d="M41 47h1v1h-1v-1z" fill="rgb(32,65,90)"/>
<path d="M42 47h1v1h-1v-1z" fill="rgb(16,16,16)"/>
<path d="M43 47h1v1h1v1h-2v-2z" fill="rgb(222,197,82)"/>
<path d="M46 47h1v1h-1v-1z" fill="rgb(32,65,90)"/>
<path d="M67 47h1v1h-1v-1z" fill="rgb(123,98,32)"/>
<path d="M23 48h1v3h-1v-3z" fill="rgb(32,65,90)"/>
<path d="M24 48h1v3h-1v-3z" fill="rgb(131,172,205)"/>
<path d="M25 48h2v1h1v1h1v1h-2v1h-1v-1h-1v-3z" fill="rgb(16,16,16)"/>
<path d="M27 48h1v1h-1v-1z" fill="rgb(74,106,131)"/>
<path d="M28 48h1v1h-1v-1z" fill="rgb(131,172,205)"/>
<path d="M33 48h1v1h-1v-1z" fill="rgb(74,106,131)"/>
<path d="M34 48h1v1h-1v-1z" fill="rgb(16,16,16)"/>
<path d="M36 48h4v1h-4v-1z" fill="rgb(16,16,16)"/>
<path d="M40 48h1v1h-1v-1z" fill="rgb(123,98,32)"/>
<path d="M41 48h1v1h1v2h-3v-1h-2v-1h3v-1z" fill="rgb(222,197,82)"/>
<path d="M42 48h1v1h-1v-1z" fill="rgb(123,98,32)"/>
<path d="M46 48h1v1h-1v-1z" fill="rgb(16,16,16)"/>
<path d="M49 48h3v2h-1v-1h-2v-1z" fill="rgb(32,65,90)"/>
<path d="M52 48h2v1h-1v1h-1v-2z" fill="rgb(16,16,16)"/>
<path d="M54 48h1v1h-1v-1z" fill="rgb(32,65,90)"/>
<path d="M68 48h1v1h-1v-1z" fill="rgb(123,98,32)"/>
<path d="M69 48h1v1h-1v-1z" fill="rgb(16,16,16)"/>
<path d="M28 49h1v1h-1v-1z" fill="rgb(74,106,131)"/>
<path d="M32 49h1v1h-1v-1z" fill="rgb(32,65,90)"/>
<path d="M33 49h1v1h-1v-1z" fill="rgb(16,16,16)"/>
<path d="M37 49h1v1h-1v-1z" fill="rgb(123,98,32)"/>
<path d="M43 49h1v1h-1v-1z" fill="rgb(123,98,32)"/>
<path d="M44 49h2v1h-2v-1z" fill="rgb(16,16,16)"/>
<path d="M46 49h1v1h-1v-1z" fill="rgb(106,131,156)"/>
<path d="M47 49h1v1h-1v-1z" fill="rgb(32,65,90)"/>
<path d="M49 49h1v1h-1v-1z" fill="rgb(74,106,131)"/>
<path d="M50 49h1v1h1v1h2v2h-2v-1h-1v1h1v2h-2v-1h-1v-4h1v-1z" fill="rgb(106,131,156)"/>
<path d="M55 49h7v1h-7v-1z" fill="rgb(16,16,16)"/>
<path d="M62 49h1v1h-1v-1z" fill="rgb(123,98,32)"/>
<path d="M70 49h1v2h-8v-1h7v-1z" fill="rgb(16,16,16)"/>
<path d="M31 50h1v1h-1v-1z" fill="rgb(16,16,16)"/>
<path d="M36 50h1v2h-1v-2z" fill="rgb(123,98,32)"/>
<path d="M37 50h1v2h-1v-2z" fill="rgb(255,255,172)"/>
<path d="M38 50h1v2h-1v-2z" fill="rgb(123,98,32)"/>
<path d="M39 50h1v1h1v1h-2v-2z" fill="rgb(255,255,172)"/>
<path d="M43 50h1v1h-1v-1z" fill="rgb(16,16,16)"/>
<path d="M44 50h1v1h-1v-1z" fill="rgb(222,197,82)"/>
<path d="M45 50h1v1h1v1h-1v1h-1v-1h-1v1h-1v-2h2v-1z" fill="rgb(255,255,172)"/>
<path d="M46 50h1v1h-1v-1z" fill="rgb(131,172,205)"/>
<path d="M47 50h1v1h-1v-1z" fill="rgb(106,131,156)"/>
<path d="M48 50h1v1h-1v-1z" fill="rgb(32,65,90)"/>
<path d="M52 50h1v1h-1v-1z" fill="rgb(74,106,131)"/>
<path d="M53 50h1v1h-1v-1z" fill="rgb(16,16,16)"/>
<path d="M24 51h1v1h-1v-1z" fill="rgb(74,106,131)"/>
<path d="M25 51h1v1h-1v-1z" fill="rgb(106,131,156)"/>
<path d="M27 51h1v1h-1v-1z" fill="rgb(32,65,90)"/>
<path d="M30 51h1v1h-1v-1z" fill="rgb(16,16,16)"/>
<path d="M41 51h1v1h-1v-1z" fill="rgb(123,98,32)"/>
<path d="M42 51h1v1h-1v-1z" fill="rgb(16,16,16)"/>
<path d="M47 51h1v1h-1v-1z" fill="rgb(131,172,205)"/>
<path d="M48 51h1v1h-1v-1z" fill="rgb(16,16,16)"/>
<path d="M54 51h1v2h-1v-2z" fill="rgb(16,16,16)"/>
<path d="M24 52h1v1h-1v-1z" fill="rgb(32,65,90)"/>
<path d="M25 52h1v1h-1v-1z" fill="rgb(131,172,205)"/>
<path d="M26 52h2v1h-2v-1z" fill="rgb(106,131,156)"/>
<path d="M28 52h2v1h-2v-1z" fill="rgb(16,16,16)"/>
<path d="M37 52h1v1h-1v-1z" fill="rgb(123,98,32)"/>
<path d="M38 52h2v1h-2v-1z" fill="rgb(16,16,16)"/>
<path d="M40 52h1v1h-1v-1z" fill="rgb(123,98,32)"/>
<path d="M41 52h2v1h-2v-1z" fill="rgb(222,197,82)"/>
<path d="M44 52h1v2h-1v-2z" fill="rgb(123,98,32)"/>
<path d="M46 52h1v1h-1v-1z" fill="rgb(222,197,82)"/>
<path d="M47 52h1v1h-1v-1z" fill="rgb(16,16,16)"/>
<path d="M48 52h1v1h-1v-1z" fill="rgb(32,65,90)"/>
<path d="M51 52h1v1h-1v-1z" fill="rgb(74,106,131)"/>
<path d="M25 53h3v1h-3v-1z" fill="rgb(16,16,16)"/>
<path d="M38 53h1v1h-1v-1z" fill="rgb(123,98,32)"/>
<path d="M39 53h4v1h1v1h-2v1h-2v-1h-1v1h-1v-2h1v-1z" fill="rgb(255,255,172)"/>
<path d="M43 53h1v1h-1v-1z" fill="rgb(222,197,82)"/>
<path d="M45 53h2v1h-2v-1z" fill="rgb(16,16,16)"/>
<path d="M47 53h1v1h-1v-1z" fill="rgb(222,197,82)"/>
<path d="M48 53h1v2h-1v-2z" fill="rgb(131,172,205)"/>
<path d="M52 53h1v1h-1v-1z" fill="rgb(32,65,90)"/>
<path d="M53 53h1v1h-1v-1z" fill="rgb(16,16,16)"/>
<path d="M37 54h1v2h-1v-2z" fill="rgb(123,98,32)"/>
<path d="M44 54h1v1h-1v-1z" fill="rgb(16,16,16)"/>
<path d="M45 54h2v2h-1v2h-2v-1h-2v-1h2v-1h1v-1z" fill="rgb(222,197,82)"/>
<path d="M47 54h1v1h1v2h-1v-1h-1v-2z" fill="rgb(255,255,172)"/>
<path d="M49 54h1v1h-1v-1z" fill="rgb(32,65,90)"/>
<path d="M52 54h1v1h-1v-1z" fill="rgb(16,16,16)"/>
<path d="M53 54h1v1h2v1h1v1h1v2h1v6h-1v2h-1v1h-1v1h-1v1h-2v1h-6v-1h-2v-1h-1v-1h2v-1h1v1
	h1v1h3v-1h2v-1h1v-2h1v-3h-1v-3h-1v-1h-1v-1h-1v-1h1v-1h1v-1z" fill="rgb(106,131,156)"/>
<path d="M54 54h2v1h-2v-1z" fill="rgb(16,16,16)"/>
<path d="M39 55h1v1h-1v-1z" fill="rgb(123,98,32)"/>
<path d="M42 55h1v1h-1v-1z" fill="rgb(123,98,32)"/>
<path d="M43 55h1v1h-1v-1z" fill="rgb(16,16,16)"/>
<path d="M49 55h1v1h-1v-1z" fill="rgb(131,172,205)"/>
<path d="M50 55h1v1h-1v-1z" fill="rgb(32,65,90)"/>
<path d="M51 55h1v1h-1v-1z" fill="rgb(16,16,16)"/>
<path d="M56 55h1v1h-1v-1z" fill="rgb(16,16,16)"/>
<path d="M37 56h4v1h-4v-1z" fill="rgb(16,16,16)"/>
<path d="M41 56h1v1h-1v-1z" fill="rgb(123,98,32)"/>
<path d="M46 56h1v1h-1v-1z" fill="rgb(123,98,32)"/>
<path d="M47 56h1v1h-1v-1z" fill="rgb(222,197,82)"/>
<path d="M49 56h2v1h-1v1h-2v-1h1v-1z" fill="rgb(16,16,16)"/>
<path d="M57 56h1v1h-1v-1z" fill="rgb(16,16,16)"/>
<path d="M39 57h1v2h-1v-2z" fill="rgb(123,98,32)"/>
<path d="M40 57h4v2h-2v-1h-1v1h-1v-2z" fill="rgb(255,255,172)"/>
<path d="M46 57h1v1h-1v-1z" fill="rgb(16,16,16)"/>
<path d="M47 57h1v1h-1v-1z" fill="rgb(32,65,90)"/>
<path d="M50 57h2v1h-2v-1z" fill="rgb(123,98,32)"/>
<path d="M58 57h1v2h-1v-2z" fill="rgb(16,16,16)"/>
<path d="M41 58h1v1h-1v-1z" fill="rgb(123,98,32)"/>
<path d="M44 58h1v1h-1v-1z" fill="rgb(32,65,90)"/>
<path d="M45 58h1v1h-1v-1z" fill="rgb(74,106,131)"/>
<path d="M46 58h4v1h2v1h1v2h1v3h-1v1h-1v1h-1v1h-3v-1h-1v-1h-1v-1h2v-1h1v2h2v-4h-1v-1h-3
	v1h-1v-2h1v-1h-1v-1z" fill="rgb(131,172,205)"/>
<path d="M50 58h1v1h-1v-1z" fill="rgb(32,65,90)"/>
<path d="M51 58h1v1h-1v-1z" fill="rgb(16,16,16)"/>
<path d="M52 58h1v1h-1v-1z" fill="rgb(123,98,32)"/>
<path d="M39 59h3v1h-3v-1z" fill="rgb(16,16,16)"/>
<path d="M42 59h1v1h-1v-1z" fill="rgb(123,98,32)"/>
<path d="M43 59h1v1h-1v-1z" fill="rgb(32,65,90)"/>
<path d="M44 59h3v1h-1v2h-1v3h-1v1h-2v-4h1v-2h1v-1z" fill="rgb(164,205,230)"/>
<path d="M52 59h1v1h-1v-1z" fill="rgb(16,16,16)"/>
<path d="M53 59h1v1h-1v-1z" fill="rgb(123,98,32)"/>
<path d="M59 59h1v7h-1v-7z" fill="rgb(16,16,16)"/>
<path d="M42 60h1v1h-1v-1z" fill="rgb(32,65,90)"/>
<path d="M53 60h1v1h-1v-1z" fill="rgb(16,16,16)"/>
<path d="M42 61h1v1h-1v-1z" fill="rgb(74,106,131)"/>
<path d="M47 61h2v1h-2v-1z" fill="rgb(74,106,131)"/>
<path d="M49 61h1v1h-1v-1z" fill="rgb(106,131,156)"/>
<path d="M53 61h1v1h-1v-1z" fill="rgb(32,65,90)"/>
<path d="M41 62h1v2h-1v-2z" fill="rgb(74,106,131)"/>
<path d="M45 62h1v1h-1v-1z" fill="rgb(131,172,205)"/>
<path d="M46 62h1v1h-1v-1z" fill="rgb(74,106,131)"/>
<path d="M47 62h2v2h-1v1h-2v-2h1v-1z" fill="rgb(164,205,230)"/>
<path d="M49 62h1v1h-1v-1z" fill="rgb(32,65,90)"/>
<path d="M50 62h1v1h-1v-1z" fill="rgb(106,131,156)"/>
<path d="M54 62h1v3h-1v-3z" fill="rgb(16,16,16)"/>
<path d="M45 63h1v1h-1v-1z" fill="rgb(74,106,131)"/>
<path d="M49 63h1v1h-1v-1z" fill="rgb(131,172,205)"/>
<path d="M50 63h1v2h-1v-2z" fill="rgb(32,65,90)"/>
<path d="M41 64h1v2h-1v-2z" fill="rgb(32,65,90)"/>
<path d="M45 64h1v2h-1v-2z" fill="rgb(32,65,90)"/>
<path d="M49 64h1v1h-1v-1z" fill="rgb(106,131,156)"/>
<path d="M44 65h1v1h1v2h-2v-1h-1v-1h1v-1z" fill="rgb(131,172,205)"/>
<path d="M49 65h1v1h-1v-1z" fill="rgb(74,106,131)"/>
<path d="M50 65h1v1h-1v-1z" fill="rgb(106,131,156)"/>
<path d="M53 65h1v1h-1v-1z" fill="rgb(32,65,90)"/>
<path d="M58 65h1v1h-1v-1z" fill="rgb(74,106,131)"/>
<path d="M42 66h1v1h-1v-1z" fill="rgb(74,106,131)"/>
<path d="M46 66h1v1h-1v-1z" fill="rgb(32,65,90)"/>
<path d="M52 66h1v1h-1v-1z" fill="rgb(74,106,131)"/>
<path d="M53 66h1v1h-1v-1z" fill="rgb(16,16,16)"/>
<path d="M58 66h1v1h-1v-1z" fill="rgb(32,65,90)"/>
<path d="M42 67h1v1h-1v-1z" fill="rgb(32,65,90)"/>
<path d="M43 67h1v1h-1v-1z" fill="rgb(106,131,156)"/>
<path d="M47 67h1v1h-1v-1z" fill="rgb(32,65,90)"/>
<path d="M51 67h1v1h-1v-1z" fill="rgb(32,65,90)"/>
<path d="M52 67h1v1h-1v-1z" fill="rgb(16,16,16)"/>
<path d="M57 67h1v1h-1v-1z" fill="rgb(74,106,131)"/>
<path d="M58 67h1v1h-1v-1z" fill="rgb(16,16,16)"/>
<path d="M43 68h1v1h-1v-1z" fill="rgb(32,65,90)"/>
<path d="M48 68h1v1h-1v-1z" fill="rgb(32,65,90)"/>
<path d="M49 68h2v1h-2v-1z" fill="rgb(16,16,16)"/>
<path d="M56 68h1v1h-1v-1z" fill="rgb(74,106,131)"/>
<path d="M57 68h1v1h-1v-1z" fill="rgb(16,16,16)"/>
<path d="M44 69h1v1h-1v-1z" fill="rgb(32,65,90)"/>
<path d="M55 69h1v1h-1v-1z" fill="rgb(32,65,90)"/>
<path d="M56 69h1v1h-1v-1z" fill="rgb(16,16,16)"/>
<path d="M45 70h1v1h-1v-1z" fill="rgb(16,16,16)"/>
<path d="M46 70h1v1h-1v-1z" fill="rgb(32,65,90)"/>
<path d="M53 70h1v1h-1v-1z" fill="rgb(32,65,90)"/>
<path d="M54 70h1v1h-1v-1z" fill="rgb(16,16,16)"/>
<path d="M47 71h6v1h-6v-1z" fill="rgb(16,16,16)"/>
</svg>
