<?xml version="1.0" encoding="utf-8"?>
<!-- generated at drububu.com  -->
<!DOCTYPE svg PUBLIC "-//W3C//DTD SVG 1.1//EN" "http://www.w3.org/Graphics/SVG/1.1/DTD/svg11.dtd">
<svg version="1.1" preserveAspectRatio="xMinYMin meet" xmlns="http://www.w3.org/2000/svg" xmlns:xlink="http://www.w3.org/1999/xlink" x="0px" y="0px" width="96px" height="96px" viewBox="0 0 96 96">
<path d="M0 0h96v96h-96v-96z" fill="transparent"/>
<path d="M52 27h3v1h-3v-1z" fill="rgb(82,82,90)"/>
<path d="M51 28h1v1h-1v-1z" fill="rgb(82,82,90)"/>
<path d="M52 28h3v1h1v2h1v1h-1v3h1v-1h1v-1h1v-1h1v1h1v1h-1v1h-1v2h1v1h-2v1h-2v-1h-1v-1
	h-1v-2h-1v-1h-2v2h-1v1h-2v-1h-1v-4h3v-1h1v-2h1v-1z" fill="rgb(255,255,255)"/>
<path d="M55 28h1v1h-1v-1z" fill="rgb(82,82,90)"/>
<path d="M50 29h1v2h-1v-2z" fill="rgb(82,82,90)"/>
<path d="M56 29h1v2h-1v-2z" fill="rgb(82,82,90)"/>
<path d="M47 31h3v1h-3v-1z" fill="rgb(139,139,148)"/>
<path d="M57 31h3v1h-3v-1z" fill="rgb(82,82,90)"/>
<path d="M46 32h1v4h-1v-4z" fill="rgb(139,139,148)"/>
<path d="M56 32h1v1h-1v-1z" fill="rgb(238,238,238)"/>
<path d="M57 32h1v1h-1v-1z" fill="rgb(213,213,222)"/>
<path d="M58 32h1v1h-1v-1z" fill="rgb(238,238,238)"/>
<path d="M60 32h1v1h-1v-1z" fill="rgb(82,82,90)"/>
<path d="M56 33h1v1h-1v-1z" fill="rgb(213,213,222)"/>
<path d="M57 33h1v1h-1v-1z" fill="rgb(238,238,238)"/>
<path d="M61 33h1v1h-1v-1z" fill="rgb(82,82,90)"/>
<path d="M36 34h3v1h-3v-1z" fill="rgb(139,139,148)"/>
<path d="M51 34h2v1h-2v-1z" fill="rgb(255,197,123)"/>
<path d="M56 34h1v1h-1v-1z" fill="rgb(238,238,238)"/>
<path d="M60 34h1v1h-1v-1z" fill="rgb(238,238,238)"/>
<path d="M61 34h1v3h-1v1h-1v-3h1v-1z" fill="rgb(213,213,222)"/>
<path d="M62 34h1v3h-1v-3z" fill="rgb(82,82,90)"/>
<path d="M23 35h2v1h-2v-1z" fill="rgb(16,16,16)"/>
<path d="M34 35h2v1h-2v-1z" fill="rgb(139,139,148)"/>
<path d="M36 35h3v1h1v1h1v1h-5v1h-1v1h-1v1h-2v-1h1v-3h1v-1h2v-1z" fill="rgb(213,213,222)"/>
<path d="M39 35h1v1h-1v-1z" fill="rgb(139,139,148)"/>
<path d="M51 35h2v2h1v1h1v2h-3v-2h-1v2h-1v-3h1v-2z" fill="rgb(238,123,65)"/>
<path d="M53 35h1v2h-1v-2z" fill="rgb(255,197,123)"/>
<path d="M59 35h1v2h-1v-2z" fill="rgb(238,238,238)"/>
<path d="M23 36h1v2h-1v-2z" fill="rgb(82,82,90)"/>
<path d="M24 36h1v1h1v2h-1v-1h-1v-2z" fill="rgb(255,255,255)"/>
<path d="M25 36h1v1h-1v-1z" fill="rgb(16,16,16)"/>
<path d="M33 36h1v1h-1v-1z" fill="rgb(139,139,148)"/>
<path d="M40 36h1v1h-1v-1z" fill="rgb(139,139,148)"/>
<path d="M45 36h1v2h-1v-2z" fill="rgb(139,139,148)"/>
<path d="M46 36h1v1h1v1h1v1h-1v2h-1v2h-1v-2h-1v-3h1v-2z" fill="rgb(213,213,222)"/>
<path d="M47 36h1v1h-1v-1z" fill="rgb(238,238,238)"/>
<path d="M50 36h1v1h-1v-1z" fill="rgb(255,197,123)"/>
<path d="M26 37h1v1h-1v-1z" fill="rgb(16,16,16)"/>
<path d="M32 37h1v3h-1v-3z" fill="rgb(139,139,148)"/>
<path d="M41 37h2v1h-2v-1z" fill="rgb(139,139,148)"/>
<path d="M48 37h1v1h-1v-1z" fill="rgb(238,238,238)"/>
<path d="M49 37h1v2h-1v-2z" fill="rgb(255,197,123)"/>
<path d="M54 37h1v1h-1v-1z" fill="rgb(255,197,123)"/>
<path d="M61 37h1v1h-1v-1z" fill="rgb(82,82,90)"/>
<path d="M24 38h1v3h-1v-3z" fill="rgb(82,82,90)"/>
<path d="M26 38h1v1h1v1h1v1h1v1h1v2h-1v1h-3v-2h-1v-2h-1v-2h1v-1z" fill="rgb(205,180,123)"/>
<path d="M27 38h1v1h-1v-1z" fill="rgb(16,16,16)"/>
<path d="M36 38h2v1h-2v-1z" fill="rgb(82,82,90)"/>
<path d="M38 38h2v1h-2v-1z" fill="rgb(205,180,123)"/>
<path d="M40 38h1v1h-1v-1z" fill="rgb(82,82,90)"/>
<path d="M41 38h3v1h-3v-1z" fill="rgb(16,16,16)"/>
<path d="M44 38h1v1h-1v-1z" fill="rgb(139,139,148)"/>
<path d="M51 38h1v2h-1v-2z" fill="rgb(213,65,16)"/>
<path d="M55 38h1v2h-1v-2z" fill="rgb(255,197,123)"/>
<path d="M58 38h1v1h-1v-1z" fill="rgb(238,238,238)"/>
<path d="M59 38h1v3h-1v1h-1v1h-1v2h1v-2h1v-1h3v2h-1v2h-1v1h-2v-1h-2v-1h-2v-2h1v-3h2v-1h2
	v-1z" fill="rgb(213,213,222)"/>
<path d="M60 38h1v3h-1v-3z" fill="rgb(82,82,90)"/>
<path d="M28 39h1v1h-1v-1z" fill="rgb(16,16,16)"/>
<path d="M35 39h1v1h-1v-1z" fill="rgb(139,139,148)"/>
<path d="M36 39h2v1h2v-1h4v2h1v2h1v1h-2v-1h-2v-1h-3v-1h-4v-1h1v-1z" fill="rgb(255,255,255)"/>
<path d="M38 39h2v1h-2v-1z" fill="rgb(82,82,90)"/>
<path d="M44 39h1v2h-1v-2z" fill="rgb(16,16,16)"/>
<path d="M48 39h1v2h-1v-2z" fill="rgb(205,180,123)"/>
<path d="M49 39h1v1h1v2h-1v4h-1v-2h-1v-3h1v-2z" fill="rgb(213,65,16)"/>
<path d="M56 39h1v1h-1v-1z" fill="rgb(238,238,238)"/>
<path d="M66 39h2v1h-2v-1z" fill="rgb(82,82,90)"/>
<path d="M29 40h1v1h-1v-1z" fill="rgb(16,16,16)"/>
<path d="M31 40h1v1h-1v-1z" fill="rgb(139,139,148)"/>
<path d="M34 40h1v1h-1v-1z" fill="rgb(139,139,148)"/>
<path d="M51 40h1v2h-1v-2z" fill="rgb(172,16,0)"/>
<path d="M52 40h2v3h-1v2h1v1h3v1h1v1h-1v1h-2v1h-2v1h-1v1h-1v1h-2v-1h-1v-2h1v-1h1v-2h1v-5
	h1v-2z" fill="rgb(213,65,16)"/>
<path d="M54 40h1v3h-1v-3z" fill="rgb(205,180,123)"/>
<path d="M64 40h2v1h-2v-1z" fill="rgb(139,139,148)"/>
<path d="M66 40h2v1h1v1h-2v2h-2v1h-1v1h-3v-2h1v-1h1v-1h1v-1h2v-1z" fill="rgb(255,255,255)"/>
<path d="M68 40h2v1h-2v-1z" fill="rgb(82,82,90)"/>
<path d="M25 41h1v2h-1v-2z" fill="rgb(82,82,90)"/>
<path d="M30 41h1v1h-1v-1z" fill="rgb(16,16,16)"/>
<path d="M31 41h1v1h-1v-1z" fill="rgb(213,213,222)"/>
<path d="M32 41h7v1h-7v-1z" fill="rgb(82,82,90)"/>
<path d="M45 41h1v2h-1v-2z" fill="rgb(16,16,16)"/>
<path d="M47 41h1v2h-1v-2z" fill="rgb(205,180,123)"/>
<path d="M59 41h3v1h-3v-1z" fill="rgb(139,139,148)"/>
<path d="M63 41h1v1h-1v-1z" fill="rgb(139,139,148)"/>
<path d="M69 41h1v1h-1v-1z" fill="rgb(238,238,238)"/>
<path d="M70 41h1v3h-1v-3z" fill="rgb(82,82,90)"/>
<path d="M31 42h1v1h-1v-1z" fill="rgb(16,16,16)"/>
<path d="M32 42h1v2h-1v1h-2v-1h1v-1h1v-1z" fill="rgb(238,123,65)"/>
<path d="M33 42h1v2h-1v-2z" fill="rgb(255,197,123)"/>
<path d="M34 42h1v2h1v1h1v1h2v1h2v1h3v-1h2v2h1v2h-7v2h1v1h-1v1h-1v1h-3v1h-7v-1h1v-2h-1
	v-1h-1v-1h-5v-2h1v-2h1v-1h1v1h2v-1h2v-1h2v-1h1v-1h1v-2z" fill="rgb(255,255,255)"/>
<path d="M35 42h1v2h-1v-2z" fill="rgb(255,197,123)"/>
<path d="M36 42h3v1h3v1h2v3h-3v-1h-2v-1h-2v-1h-1v-2z" fill="rgb(238,123,65)"/>
<path d="M39 42h3v1h-3v-1z" fill="rgb(82,82,90)"/>
<path d="M50 42h1v5h-1v-5z" fill="rgb(172,16,0)"/>
<path d="M58 42h1v1h-1v-1z" fill="rgb(139,139,148)"/>
<path d="M62 42h1v1h-1v-1z" fill="rgb(139,139,148)"/>
<path d="M67 42h2v1h-2v-1z" fill="rgb(238,238,238)"/>
<path d="M69 42h1v2h1v1h-2v-1h-2v-1h2v-1z" fill="rgb(213,213,222)"/>
<path d="M26 43h1v2h-1v-2z" fill="rgb(82,82,90)"/>
<path d="M42 43h2v1h-2v-1z" fill="rgb(82,82,90)"/>
<path d="M46 43h2v1h-2v-1z" fill="rgb(16,16,16)"/>
<path d="M53 43h1v2h-1v-2z" fill="rgb(205,180,123)"/>
<path d="M57 43h1v2h-1v-2z" fill="rgb(139,139,148)"/>
<path d="M32 44h1v1h-1v-1z" fill="rgb(255,197,123)"/>
<path d="M36 44h1v1h-1v-1z" fill="rgb(255,197,123)"/>
<path d="M44 44h1v1h-1v-1z" fill="rgb(82,82,90)"/>
<path d="M45 44h1v1h-1v-1z" fill="rgb(238,238,238)"/>
<path d="M46 44h2v2h1v2h-1v1h-1v-2h-1v-3z" fill="rgb(213,213,222)"/>
<path d="M48 44h1v2h-1v-2z" fill="rgb(16,16,16)"/>
<path d="M65 44h2v1h-2v-1z" fill="rgb(255,197,123)"/>
<path d="M67 44h1v1h-1v-1z" fill="rgb(255,255,255)"/>
<path d="M68 44h1v1h-1v-1z" fill="rgb(238,238,238)"/>
<path d="M71 44h2v1h-2v-1z" fill="rgb(82,82,90)"/>
<path d="M26 45h1v1h-1v-1z" fill="rgb(139,139,148)"/>
<path d="M27 45h3v1h-2v1h-2v-1h1v-1z" fill="rgb(238,123,65)"/>
<path d="M30 45h2v1h-2v-1z" fill="rgb(255,197,123)"/>
<path d="M37 45h2v1h-2v-1z" fill="rgb(255,197,123)"/>
<path d="M44 45h1v2h-1v-2z" fill="rgb(255,197,123)"/>
<path d="M45 45h1v2h-1v-2z" fill="rgb(82,82,90)"/>
<path d="M54 45h2v1h-2v-1z" fill="rgb(205,180,123)"/>
<path d="M64 45h1v2h-4v-1h3v-1z" fill="rgb(255,197,123)"/>
<path d="M65 45h2v2h-2v-2z" fill="rgb(238,123,65)"/>
<path d="M67 45h1v2h-1v-2z" fill="rgb(255,197,123)"/>
<path d="M68 45h1v1h3v-1h1v1h1v1h-2v1h-2v1h-3v-2h1v-2z" fill="rgb(255,255,255)"/>
<path d="M69 45h3v1h-3v-1z" fill="rgb(238,238,238)"/>
<path d="M73 45h1v1h-1v-1z" fill="rgb(82,82,90)"/>
<path d="M25 46h1v1h-1v-1z" fill="rgb(139,139,148)"/>
<path d="M28 46h2v1h-2v-1z" fill="rgb(255,197,123)"/>
<path d="M33 46h2v1h-2v-1z" fill="rgb(213,65,16)"/>
<path d="M35 46h1v1h-1v-1z" fill="rgb(172,16,0)"/>
<path d="M39 46h2v1h-2v-1z" fill="rgb(255,197,123)"/>
<path d="M49 46h1v2h-1v-2z" fill="rgb(16,16,16)"/>
<path d="M57 46h1v1h-1v-1z" fill="rgb(205,180,123)"/>
<path d="M60 46h1v1h-1v-1z" fill="rgb(205,180,123)"/>
<path d="M74 46h1v2h-1v-2z" fill="rgb(82,82,90)"/>
<path d="M23 47h1v1h-1v-1z" fill="rgb(172,16,0)"/>
<path d="M24 47h1v1h-1v-1z" fill="rgb(82,82,90)"/>
<path d="M26 47h2v1h-2v-1z" fill="rgb(255,197,123)"/>
<path d="M32 47h1v1h-1v-1z" fill="rgb(213,65,16)"/>
<path d="M33 47h2v1h-1v1h-2v-1h1v-1z" fill="rgb(255,197,123)"/>
<path d="M35 47h1v1h1v1h-3v-1h1v-1z" fill="rgb(238,123,65)"/>
<path d="M36 47h1v1h-1v-1z" fill="rgb(172,16,0)"/>
<path d="M41 47h3v1h-3v-1z" fill="rgb(255,197,123)"/>
<path d="M46 47h1v2h-1v-2z" fill="rgb(82,82,90)"/>
<path d="M58 47h2v1h-2v-1z" fill="rgb(205,180,123)"/>
<path d="M60 47h1v1h1v1h1v1h2v1h-4v1h-5v1h-2v1h-3v-1h1v-1h1v-1h2v-1h2v-1h3v-2z" fill="rgb(213,65,16)"/>
<path d="M61 47h4v1h1v2h-3v-1h-1v-1h-1v-1z" fill="rgb(238,123,65)"/>
<path d="M65 47h2v3h-1v-2h-1v-1z" fill="rgb(255,197,123)"/>
<path d="M72 47h1v1h-1v-1z" fill="rgb(238,238,238)"/>
<path d="M73 47h1v3h-1v2h-1v1h-1v-1h-2v1h-1v1h-1v1h-5v-1h-2v-1h1v-1h3v-1h2v-1h2v-1h3v-1
	h2v-1z" fill="rgb(213,213,222)"/>
<path d="M22 48h1v1h-1v-1z" fill="rgb(172,16,0)"/>
<path d="M23 48h1v1h-1v-1z" fill="rgb(82,82,90)"/>
<path d="M31 48h1v2h-1v-2z" fill="rgb(213,65,16)"/>
<path d="M37 48h1v2h-1v-2z" fill="rgb(172,16,0)"/>
<path d="M48 48h1v1h-1v-1z" fill="rgb(16,16,16)"/>
<path d="M49 48h1v1h-1v-1z" fill="rgb(172,16,0)"/>
<path d="M57 48h3v1h-3v-1z" fill="rgb(172,16,0)"/>
<path d="M70 48h1v1h-1v-1z" fill="rgb(238,238,238)"/>
<path d="M74 48h1v1h-1v-1z" fill="rgb(238,238,238)"/>
<path d="M75 48h2v1h-2v-1z" fill="rgb(82,82,90)"/>
<path d="M21 49h1v1h-1v-1z" fill="rgb(172,16,0)"/>
<path d="M22 49h1v1h-1v-1z" fill="rgb(255,197,123)"/>
<path d="M23 49h1v1h-1v-1z" fill="rgb(139,139,148)"/>
<path d="M32 49h2v1h-2v-1z" fill="rgb(172,16,0)"/>
<path d="M34 49h1v1h-1v-1z" fill="rgb(0,106,98)"/>
<path d="M35 49h2v1h-2v-1z" fill="rgb(213,213,222)"/>
<path d="M47 49h1v2h-1v-2z" fill="rgb(82,82,90)"/>
<path d="M48 49h1v1h-1v-1z" fill="rgb(172,16,0)"/>
<path d="M55 49h2v1h-2v-1z" fill="rgb(172,16,0)"/>
<path d="M67 49h1v1h-1v-1z" fill="rgb(238,238,238)"/>
<path d="M74 49h3v1h1v1h-2v1h-2v1h-1v-2h1v-2z" fill="rgb(255,255,255)"/>
<path d="M77 49h1v1h-1v-1z" fill="rgb(82,82,90)"/>
<path d="M21 50h1v3h-1v-3z" fill="rgb(16,16,16)"/>
<path d="M22 50h1v3h-1v-3z" fill="rgb(213,213,222)"/>
<path d="M31 50h1v1h-1v-1z" fill="rgb(172,16,0)"/>
<path d="M32 50h1v2h-1v-2z" fill="rgb(65,172,164)"/>
<path d="M33 50h2v2h-1v-1h-1v-1z" fill="rgb(16,16,16)"/>
<path d="M35 50h1v2h-1v-2z" fill="rgb(0,106,98)"/>
<path d="M36 50h1v2h-1v-2z" fill="rgb(255,255,255)"/>
<path d="M37 50h1v2h-1v-2z" fill="rgb(139,139,148)"/>
<path d="M53 50h2v1h-2v-1z" fill="rgb(172,16,0)"/>
<path d="M65 50h1v1h-1v-1z" fill="rgb(205,180,123)"/>
<path d="M73 50h1v1h-1v-1z" fill="rgb(238,238,238)"/>
<path d="M78 50h1v1h-1v-1z" fill="rgb(82,82,90)"/>
<path d="M33 51h1v1h-1v-1z" fill="rgb(255,255,255)"/>
<path d="M40 51h3v1h-2v1h-1v-2z" fill="rgb(255,197,123)"/>
<path d="M43 51h1v1h-1v-1z" fill="rgb(82,82,90)"/>
<path d="M44 51h1v1h-1v-1z" fill="rgb(16,16,16)"/>
<path d="M45 51h2v1h-2v-1z" fill="rgb(213,213,222)"/>
<path d="M47 51h1v1h1v1h-4v-1h2v-1z" fill="rgb(16,16,16)"/>
<path d="M52 51h1v1h-1v-1z" fill="rgb(172,16,0)"/>
<path d="M61 51h3v1h-3v-1z" fill="rgb(205,180,123)"/>
<path d="M76 51h2v1h-2v-1z" fill="rgb(16,16,16)"/>
<path d="M23 52h5v1h-5v-1z" fill="rgb(172,82,115)"/>
<path d="M32 52h1v1h-1v-1z" fill="rgb(139,139,148)"/>
<path d="M33 52h2v1h-2v-1z" fill="rgb(0,106,98)"/>
<path d="M35 52h1v1h-1v-1z" fill="rgb(255,255,255)"/>
<path d="M36 52h1v1h-1v-1z" fill="rgb(139,139,148)"/>
<path d="M37 52h1v1h-1v-1z" fill="rgb(213,213,222)"/>
<path d="M41 52h4v1h1v1h-1v1h-3v-1h-1v-2z" fill="rgb(238,123,65)"/>
<path d="M51 52h1v1h-1v-1z" fill="rgb(172,16,0)"/>
<path d="M56 52h3v1h-3v-1z" fill="rgb(16,16,16)"/>
<path d="M59 52h2v1h-2v-1z" fill="rgb(205,180,123)"/>
<path d="M69 52h2v1h-2v-1z" fill="rgb(16,16,16)"/>
<path d="M72 52h1v1h-1v-1z" fill="rgb(238,238,238)"/>
<path d="M74 52h2v1h-2v-1z" fill="rgb(16,16,16)"/>
<path d="M22 53h1v2h-1v-2z" fill="rgb(16,16,16)"/>
<path d="M23 53h5v1h1v2h-1v-1h-1v-1h-3v1h-1v-2z" fill="rgb(246,131,139)"/>
<path d="M28 53h1v1h-1v-1z" fill="rgb(172,82,115)"/>
<path d="M33 53h3v1h-3v-1z" fill="rgb(139,139,148)"/>
<path d="M36 53h1v1h-1v-1z" fill="rgb(213,213,222)"/>
<path d="M46 53h2v1h-2v-1z" fill="rgb(213,65,16)"/>
<path d="M48 53h1v1h-1v-1z" fill="rgb(205,180,123)"/>
<path d="M49 53h2v1h-2v-1z" fill="rgb(16,16,16)"/>
<path d="M54 53h2v1h-2v-1z" fill="rgb(16,16,16)"/>
<path d="M59 53h1v1h-1v-1z" fill="rgb(16,16,16)"/>
<path d="M68 53h1v1h-1v-1z" fill="rgb(16,16,16)"/>
<path d="M71 53h3v1h-3v-1z" fill="rgb(16,16,16)"/>
<path d="M20 54h2v1h-2v-1z" fill="rgb(82,82,90)"/>
<path d="M24 54h3v1h-3v-1z" fill="rgb(172,16,0)"/>
<path d="M29 54h1v2h-1v-2z" fill="rgb(172,82,115)"/>
<path d="M40 54h1v1h-1v-1z" fill="rgb(238,238,238)"/>
<path d="M41 54h1v1h-1v-1z" fill="rgb(82,82,90)"/>
<path d="M45 54h1v1h-1v-1z" fill="rgb(213,65,16)"/>
<path d="M46 54h1v1h-1v-1z" fill="rgb(238,123,65)"/>
<path d="M47 54h1v1h-1v-1z" fill="rgb(205,180,123)"/>
<path d="M48 54h1v1h-1v-1z" fill="rgb(238,238,238)"/>
<path d="M49 54h2v1h2v1h-3v-1h-1v-1z" fill="rgb(213,213,222)"/>
<path d="M51 54h3v1h1v1h-2v-1h-2v-1z" fill="rgb(16,16,16)"/>
<path d="M60 54h2v1h-2v-1z" fill="rgb(16,16,16)"/>
<path d="M67 54h1v1h-1v-1z" fill="rgb(16,16,16)"/>
<path d="M18 55h2v1h-2v-1z" fill="rgb(82,82,90)"/>
<path d="M20 55h3v1h-1v1h-4v-1h2v-1z" fill="rgb(213,213,222)"/>
<path d="M23 55h1v2h-1v-2z" fill="rgb(16,16,16)"/>
<path d="M24 55h1v1h3v1h-4v-2z" fill="rgb(246,131,139)"/>
<path d="M25 55h1v1h-1v-1z" fill="rgb(16,16,16)"/>
<path d="M26 55h1v1h-1v-1z" fill="rgb(172,82,115)"/>
<path d="M27 55h1v1h-1v-1z" fill="rgb(172,16,0)"/>
<path d="M39 55h1v1h-1v-1z" fill="rgb(238,238,238)"/>
<path d="M40 55h2v1h1v2h1v2h-1v1h-2v1h-2v1h-6v-1h-2v-1h-2v-1h-1v-1h-1v-1h1v-1h10v-1h2v-1
	z" fill="rgb(213,213,222)"/>
<path d="M42 55h1v1h-1v-1z" fill="rgb(82,82,90)"/>
<path d="M43 55h3v1h-3v-1z" fill="rgb(255,197,123)"/>
<path d="M46 55h1v1h-1v-1z" fill="rgb(213,65,16)"/>
<path d="M47 55h2v1h-2v-1z" fill="rgb(255,255,255)"/>
<path d="M49 55h1v1h-1v-1z" fill="rgb(238,238,238)"/>
<path d="M62 55h5v1h-5v-1z" fill="rgb(16,16,16)"/>
<path d="M17 56h1v1h-1v-1z" fill="rgb(82,82,90)"/>
<path d="M22 56h1v1h-1v-1z" fill="rgb(139,139,148)"/>
<path d="M28 56h1v1h-1v-1z" fill="rgb(172,82,115)"/>
<path d="M36 56h2v1h-2v-1z" fill="rgb(238,238,238)"/>
<path d="M43 56h1v2h-1v-2z" fill="rgb(82,82,90)"/>
<path d="M44 56h3v1h1v1h1v2h1v2h1v1h-1v1h-2v1h-1v-3h-1v-2h-1v-2h-1v-2z" fill="rgb(255,255,255)"/>
<path d="M47 56h1v1h-1v-1z" fill="rgb(139,139,148)"/>
<path d="M48 56h1v1h-1v-1z" fill="rgb(213,213,222)"/>
<path d="M49 56h3v1h1v1h1v1h-2v-1h-1v-1h-2v-1z" fill="rgb(255,255,255)"/>
<path d="M52 56h1v1h-1v-1z" fill="rgb(238,238,238)"/>
<path d="M53 56h2v1h1v1h1v2h-1v3h-1v1h-3v-2h-1v-2h-1v-2h1v1h1v1h2v-1h1v-1h-1v-1h-1v-1z" fill="rgb(213,213,222)"/>
<path d="M55 56h1v1h-1v-1z" fill="rgb(16,16,16)"/>
<path d="M16 57h1v1h-1v-1z" fill="rgb(139,139,148)"/>
<path d="M17 57h4v1h-4v-1z" fill="rgb(238,238,238)"/>
<path d="M21 57h1v3h-1v-3z" fill="rgb(139,139,148)"/>
<path d="M22 57h2v1h2v1h-1v2h-2v-2h-1v-2z" fill="rgb(213,213,222)"/>
<path d="M24 57h4v1h-4v-1z" fill="rgb(172,82,115)"/>
<path d="M48 57h1v1h-1v-1z" fill="rgb(139,139,148)"/>
<path d="M49 57h1v1h-1v-1z" fill="rgb(213,213,222)"/>
<path d="M50 57h1v1h-1v-1z" fill="rgb(238,238,238)"/>
<path d="M53 57h1v1h-1v-1z" fill="rgb(238,238,238)"/>
<path d="M56 57h1v1h-1v-1z" fill="rgb(16,16,16)"/>
<path d="M15 58h1v2h-1v-2z" fill="rgb(139,139,148)"/>
<path d="M16 58h5v2h2v2h-2v-1h-1v-1h-2v1h-2v-3z" fill="rgb(255,255,255)"/>
<path d="M26 58h1v1h-1v-1z" fill="rgb(16,16,16)"/>
<path d="M44 58h1v2h-1v-2z" fill="rgb(82,82,90)"/>
<path d="M49 58h1v2h-1v-2z" fill="rgb(238,238,238)"/>
<path d="M51 58h1v1h-1v-1z" fill="rgb(238,238,238)"/>
<path d="M54 58h1v1h-1v-1z" fill="rgb(238,238,238)"/>
<path d="M57 58h1v2h-1v-2z" fill="rgb(16,16,16)"/>
<path d="M22 59h1v1h-1v-1z" fill="rgb(238,238,238)"/>
<path d="M25 59h1v2h-1v-2z" fill="rgb(82,82,90)"/>
<path d="M27 59h1v1h-1v-1z" fill="rgb(16,16,16)"/>
<path d="M52 59h2v1h-2v-1z" fill="rgb(238,238,238)"/>
<path d="M15 60h1v1h-1v-1z" fill="rgb(82,82,90)"/>
<path d="M18 60h2v1h-2v-1z" fill="rgb(82,82,90)"/>
<path d="M28 60h1v1h-1v-1z" fill="rgb(16,16,16)"/>
<path d="M43 60h1v1h-1v-1z" fill="rgb(16,16,16)"/>
<path d="M45 60h1v2h-1v-2z" fill="rgb(82,82,90)"/>
<path d="M50 60h1v2h-1v-2z" fill="rgb(238,238,238)"/>
<path d="M56 60h1v3h-1v-3z" fill="rgb(16,16,16)"/>
<path d="M16 61h2v1h-2v-1z" fill="rgb(82,82,90)"/>
<path d="M20 61h1v1h-1v-1z" fill="rgb(82,82,90)"/>
<path d="M23 61h2v1h-2v-1z" fill="rgb(82,82,90)"/>
<path d="M29 61h2v1h-2v-1z" fill="rgb(16,16,16)"/>
<path d="M41 61h2v1h-2v-1z" fill="rgb(16,16,16)"/>
<path d="M21 62h2v1h-2v-1z" fill="rgb(82,82,90)"/>
<path d="M31 62h2v1h-2v-1z" fill="rgb(16,16,16)"/>
<path d="M39 62h2v1h-2v-1z" fill="rgb(16,16,16)"/>
<path d="M46 62h1v3h-1v-3z" fill="rgb(82,82,90)"/>
<path d="M51 62h1v1h-1v-1z" fill="rgb(238,238,238)"/>
<path d="M33 63h6v1h-6v-1z" fill="rgb(16,16,16)"/>
<path d="M50 63h2v1h-2v-1z" fill="rgb(16,16,16)"/>
<path d="M55 63h1v1h-1v-1z" fill="rgb(16,16,16)"/>
<path d="M48 64h2v1h-2v-1z" fill="rgb(16,16,16)"/>
<path d="M52 64h3v1h-3v-1z" fill="rgb(16,16,16)"/>
<path d="M47 65h1v1h-1v-1z" fill="rgb(16,16,16)"/>
</svg>
