<?xml version="1.0" encoding="utf-8"?>
<!-- generated at drububu.com  -->
<!DOCTYPE svg PUBLIC "-//W3C//DTD SVG 1.1//EN" "http://www.w3.org/Graphics/SVG/1.1/DTD/svg11.dtd">
<svg version="1.1" preserveAspectRatio="xMinYMin meet" xmlns="http://www.w3.org/2000/svg" xmlns:xlink="http://www.w3.org/1999/xlink" x="0px" y="0px" width="96px" height="96px" viewBox="0 0 96 96">
<path d="M0 0h96v96h-96v-96z" fill="transparent"/>
<path d="M67 23h4v1h-4v-1z" fill="rgb(139,123,131)"/>
<path d="M48 24h3v1h-3v-1z" fill="rgb(139,123,131)"/>
<path d="M65 24h2v1h-2v-1z" fill="rgb(139,123,131)"/>
<path d="M67 24h4v1h2v1h1v2h1v4h-1v2h-1v2h-1v1h-2v1h-1v1h-1v1h-1v1h-2v1h-2v-2h-1v2h-2v-3
	h-2v-4h1v-3h1v-2h1v-1h1v1h3v-3h-2v-1h2v-1h2v-1z" fill="rgb(246,246,255)"/>
<path d="M71 24h2v1h-2v-1z" fill="rgb(139,123,131)"/>
<path d="M46 25h2v1h-2v-1z" fill="rgb(139,123,131)"/>
<path d="M48 25h3v1h2v2h1v4h1v4h1v5h-1v-1h-1v-5h-1v-1h-1v-3h-1v1h-1v-1h-1v-3h-1v2h-2v-1
	h-1v-1h1v-2h2v-1z" fill="rgb(222,222,230)"/>
<path d="M51 25h2v1h-2v-1z" fill="rgb(139,123,131)"/>
<path d="M63 25h2v1h-2v-1z" fill="rgb(139,123,131)"/>
<path d="M73 25h1v1h-1v-1z" fill="rgb(90,90,98)"/>
<path d="M45 26h1v2h-1v-2z" fill="rgb(139,123,131)"/>
<path d="M53 26h1v2h-1v-2z" fill="rgb(90,90,98)"/>
<path d="M62 26h1v1h-1v-1z" fill="rgb(139,123,131)"/>
<path d="M74 26h1v2h-1v-2z" fill="rgb(90,90,98)"/>
<path d="M61 27h1v1h1v1h-2v-2z" fill="rgb(139,123,131)"/>
<path d="M62 27h1v1h-1v-1z" fill="rgb(222,222,230)"/>
<path d="M63 27h1v1h-1v-1z" fill="rgb(139,123,131)"/>
<path d="M64 27h1v1h-1v-1z" fill="rgb(222,222,230)"/>
<path d="M67 27h2v1h2v2h-3v1h-2v-2h1v-2z" fill="rgb(82,82,90)"/>
<path d="M69 27h1v1h-1v-1z" fill="rgb(205,197,197)"/>
<path d="M33 28h9v1h-9v-1z" fill="rgb(139,123,131)"/>
<path d="M44 28h1v1h-1v-1z" fill="rgb(139,123,131)"/>
<path d="M48 28h1v3h-1v-3z" fill="rgb(139,123,131)"/>
<path d="M54 28h1v4h-1v-4z" fill="rgb(90,90,98)"/>
<path d="M63 28h1v1h-1v-1z" fill="rgb(82,82,90)"/>
<path d="M64 28h1v1h-1v-1z" fill="rgb(139,123,131)"/>
<path d="M75 28h1v4h-1v-4z" fill="rgb(90,90,98)"/>
<path d="M31 29h2v1h-2v-1z" fill="rgb(139,123,131)"/>
<path d="M33 29h7v2h1v4h-1v-2h-1v-2h-1v2h1v2h1v1h-2v1h-1v-2h-1v-2h-1v-1h-1v-1h-1v1h1v1h1
	v2h1v2h1v1h-1v1h-1v1h-1v-1h-1v-3h-1v-2h-1v-1h-1v-1h-1v-1h2v-1h2v-1z" fill="rgb(246,246,255)"/>
<path d="M40 29h2v1h4v1h2v1h-1v2h-1v1h-1v-3h-1v3h-3v-4h-1v-2z" fill="rgb(222,222,230)"/>
<path d="M42 29h2v1h-2v-1z" fill="rgb(139,123,131)"/>
<path d="M44 29h2v1h-2v-1z" fill="rgb(90,90,98)"/>
<path d="M52 29h1v2h-1v-2z" fill="rgb(139,123,131)"/>
<path d="M60 29h1v1h-1v-1z" fill="rgb(139,123,131)"/>
<path d="M62 29h1v1h-1v-1z" fill="rgb(222,222,230)"/>
<path d="M63 29h1v1h-1v-1z" fill="rgb(139,123,131)"/>
<path d="M64 29h1v1h-1v-1z" fill="rgb(222,222,230)"/>
<path d="M29 30h2v1h-2v-1z" fill="rgb(139,123,131)"/>
<path d="M46 30h2v1h-2v-1z" fill="rgb(90,90,98)"/>
<path d="M59 30h1v2h-1v-2z" fill="rgb(90,90,98)"/>
<path d="M68 30h1v1h-1v-1z" fill="rgb(139,123,131)"/>
<path d="M28 31h1v1h-1v-1z" fill="rgb(139,123,131)"/>
<path d="M33 31h1v1h-1v-1z" fill="rgb(222,222,230)"/>
<path d="M38 31h1v2h-1v-2z" fill="rgb(139,123,131)"/>
<path d="M48 31h2v1h-2v-1z" fill="rgb(16,16,16)"/>
<path d="M51 31h1v2h-1v-2z" fill="rgb(139,123,131)"/>
<path d="M63 31h1v1h-1v-1z" fill="rgb(222,222,230)"/>
<path d="M29 32h1v1h-1v-1z" fill="rgb(139,123,131)"/>
<path d="M34 32h1v1h-1v-1z" fill="rgb(139,123,131)"/>
<path d="M44 32h1v3h-1v-3z" fill="rgb(139,123,131)"/>
<path d="M47 32h1v2h-1v-2z" fill="rgb(139,123,131)"/>
<path d="M48 32h2v1h1v1h-1v2h-3v-2h1v-2z" fill="rgb(222,222,230)"/>
<path d="M50 32h1v1h-1v-1z" fill="rgb(16,16,16)"/>
<path d="M55 32h1v4h-1v-4z" fill="rgb(90,90,98)"/>
<path d="M58 32h1v3h-1v-3z" fill="rgb(90,90,98)"/>
<path d="M62 32h1v2h-1v-2z" fill="rgb(222,222,230)"/>
<path d="M74 32h1v2h-1v-2z" fill="rgb(90,90,98)"/>
<path d="M30 33h1v1h-1v-1z" fill="rgb(139,123,131)"/>
<path d="M35 33h1v2h-1v-2z" fill="rgb(139,123,131)"/>
<path d="M39 33h1v2h-1v-2z" fill="rgb(139,123,131)"/>
<path d="M51 33h1v1h-1v-1z" fill="rgb(16,16,16)"/>
<path d="M64 33h1v2h-1v-2z" fill="rgb(139,123,131)"/>
<path d="M65 33h2v2h-2v-2z" fill="rgb(82,82,90)"/>
<path d="M67 33h1v2h-1v-2z" fill="rgb(139,123,131)"/>
<path d="M31 34h1v2h-1v-2z" fill="rgb(139,123,131)"/>
<path d="M46 34h1v2h-1v-2z" fill="rgb(139,123,131)"/>
<path d="M50 34h1v2h-1v-2z" fill="rgb(139,123,131)"/>
<path d="M51 34h1v1h1v3h-2v-1h-1v-1h1v-2z" fill="rgb(222,222,230)"/>
<path d="M52 34h1v1h-1v-1z" fill="rgb(90,90,98)"/>
<path d="M61 34h1v2h-1v-2z" fill="rgb(139,123,131)"/>
<path d="M73 34h1v2h-1v-2z" fill="rgb(90,90,98)"/>
<path d="M36 35h1v2h-1v-2z" fill="rgb(139,123,131)"/>
<path d="M40 35h1v1h-1v-1z" fill="rgb(139,123,131)"/>
<path d="M41 35h5v1h3v1h2v1h2v1h1v1h-3v1h1v2h-3v-1h-2v-1h-1v1h1v1h1v2h1v2h1v9h-1v2h-1v2
	h-1v1h-1v-4h1v-7h-1v-3h-1v-2h-1v-3h1v-4h-1v-1h-1v-1h-2v-1z" fill="rgb(16,16,16)"/>
<path d="M53 35h1v4h-1v-4z" fill="rgb(90,90,98)"/>
<path d="M57 35h1v4h-1v-4z" fill="rgb(16,16,16)"/>
<path d="M65 35h2v1h-2v-1z" fill="rgb(139,123,131)"/>
<path d="M32 36h1v3h-1v-3z" fill="rgb(90,90,98)"/>
<path d="M38 36h2v1h-2v-1z" fill="rgb(16,16,16)"/>
<path d="M40 36h3v1h1v1h1v4h-1v2h-1v-1h-1v-1h-2v-1h-1v-1h-3v-1h1v-1h1v-1h2v-1z" fill="rgb(82,82,90)"/>
<path d="M49 36h1v1h-1v-1z" fill="rgb(139,123,131)"/>
<path d="M56 36h1v3h-1v-3z" fill="rgb(90,90,98)"/>
<path d="M60 36h1v3h-1v-3z" fill="rgb(139,123,131)"/>
<path d="M72 36h1v1h-1v-1z" fill="rgb(90,90,98)"/>
<path d="M37 37h1v1h-1v-1z" fill="rgb(16,16,16)"/>
<path d="M70 37h1v1h-1v-1z" fill="rgb(222,222,230)"/>
<path d="M71 37h1v1h-1v-1z" fill="rgb(90,90,98)"/>
<path d="M31 38h1v1h-1v-1z" fill="rgb(148,49,24)"/>
<path d="M36 38h1v1h-1v-1z" fill="rgb(16,16,16)"/>
<path d="M64 38h1v1h-1v-1z" fill="rgb(139,123,131)"/>
<path d="M65 38h1v1h-1v-1z" fill="rgb(222,222,230)"/>
<path d="M69 38h1v2h-1v5h1v2h1v1h1v1h1v2h1v3h-1v2h-1v-2h-1v-1h-1v-1h-1v-1h-2v-1h-2v-1h-4
	v-1h-1v-2h1v-3h1v-1h3v-1h2v-1h1v-1h1v-1z" fill="rgb(222,222,230)"/>
<path d="M70 38h1v2h-1v-2z" fill="rgb(16,16,16)"/>
<path d="M30 39h1v1h-1v-1z" fill="rgb(148,49,24)"/>
<path d="M31 39h1v1h-1v-1z" fill="rgb(230,115,65)"/>
<path d="M32 39h1v2h2v-1h4v1h1v1h2v1h1v1h1v1h-1v1h-1v1h-6v1h-1v1h-3v-1h-1v-1h-1v-1h-1v-1
	h-2v-1h1v-2h1v-1h1v-1h2v-1z" fill="rgb(246,148,98)"/>
<path d="M33 39h1v2h-1v-2z" fill="rgb(90,90,98)"/>
<path d="M35 39h1v1h-1v-1z" fill="rgb(16,16,16)"/>
<path d="M56 39h1v3h-1v-3z" fill="rgb(16,16,16)"/>
<path d="M57 39h2v3h2v1h-1v3h-1v-2h-1v-1h-1v-4z" fill="rgb(205,197,197)"/>
<path d="M59 39h1v3h-1v-3z" fill="rgb(139,123,131)"/>
<path d="M63 39h1v1h-1v-1z" fill="rgb(139,123,131)"/>
<path d="M29 40h1v1h-1v-1z" fill="rgb(148,49,24)"/>
<path d="M34 40h1v1h-1v-1z" fill="rgb(148,49,24)"/>
<path d="M51 40h2v2h1v3h-1v-1h-2v2h1v2h2v3h-1v3h-1v2h-1v1h-1v1h-1v-2h1v-9h-1v-2h-1v-2h-1
	v-1h2v1h3v-2h-1v-1z" fill="rgb(230,115,65)"/>
<path d="M53 40h1v1h1v1h1v1h1v1h-2v2h2v-2h1v2h1v2h1v5h-1v3h-1v2h-1v2h-1v-1h-2v-1h-4v-1h1
	v-1h1v-2h1v-3h2v1h1v1h2v-4h-1v-1h-2v1h-1v-7h-1v-2z" fill="rgb(197,65,41)"/>
<path d="M54 40h1v1h-1v-1z" fill="rgb(16,16,16)"/>
<path d="M62 40h1v2h-1v-2z" fill="rgb(139,123,131)"/>
<path d="M69 40h1v1h-1v-1z" fill="rgb(90,90,98)"/>
<path d="M28 41h1v1h-1v-1z" fill="rgb(148,49,24)"/>
<path d="M46 41h1v1h-1v-1z" fill="rgb(230,115,65)"/>
<path d="M55 41h1v1h-1v-1z" fill="rgb(148,49,24)"/>
<path d="M69 41h1v3h-1v-3z" fill="rgb(16,16,16)"/>
<path d="M17 42h3v1h-2v1h-1v-2z" fill="rgb(139,123,131)"/>
<path d="M27 42h1v1h-1v-1z" fill="rgb(148,49,24)"/>
<path d="M56 42h1v1h-1v-1z" fill="rgb(148,49,24)"/>
<path d="M61 42h1v1h-1v-1z" fill="rgb(90,90,98)"/>
<path d="M18 43h2v1h3v1h1v1h-1v1h1v1h-2v-1h-1v-1h-1v-1h-1v-1h-1v-1z" fill="rgb(246,246,255)"/>
<path d="M20 43h3v1h-3v-1z" fill="rgb(139,123,131)"/>
<path d="M26 43h1v2h-1v-2z" fill="rgb(148,49,24)"/>
<path d="M27 43h1v1h-1v-1z" fill="rgb(230,115,65)"/>
<path d="M57 43h1v1h-1v-1z" fill="rgb(148,49,24)"/>
<path d="M60 43h1v3h-1v-3z" fill="rgb(90,90,98)"/>
<path d="M18 44h1v1h-1v-1z" fill="rgb(139,123,131)"/>
<path d="M23 44h3v1h-3v-1z" fill="rgb(139,123,131)"/>
<path d="M51 44h1v2h-1v-2z" fill="rgb(82,82,90)"/>
<path d="M52 44h1v1h1v2h-2v-3z" fill="rgb(16,16,16)"/>
<path d="M55 44h2v1h-2v-1z" fill="rgb(16,16,16)"/>
<path d="M58 44h1v2h-1v-2z" fill="rgb(16,16,16)"/>
<path d="M64 44h2v1h-2v-1z" fill="rgb(139,123,131)"/>
<path d="M69 44h1v1h-1v-1z" fill="rgb(90,90,98)"/>
<path d="M19 45h1v1h-1v-1z" fill="rgb(139,123,131)"/>
<path d="M24 45h2v1h3v1h1v4h-1v1h-3v-1h-1v-1h-1v-1h-1v-1h1v-1h1v-1h-1v-1z" fill="rgb(255,222,189)"/>
<path d="M26 45h3v1h-3v-1z" fill="rgb(139,123,131)"/>
<path d="M43 45h2v2h1v3h1v7h-1v2h-1v-1h-1v-1h1v-4h-1v2h-1v1h-1v1h-1v1h-2v1h4v1h-3v1h-4v1
	h-1v-2h-1v-1h-2v-1h-1v-1h-1v-1h-1v-1h-5v-4h1v1h1v1h3v-1h1v-1h1v-3h1v1h2v2h-1v3
	h1v1h1v1h1v1h4v-1h1v-1h1v-1h1v-4h-1v-1h-1v-1h-1v-1h2v-1h1v-1z" fill="rgb(230,115,65)"/>
<path d="M55 45h2v1h-2v-1z" fill="rgb(82,82,90)"/>
<path d="M64 45h2v1h-2v-1z" fill="rgb(82,82,90)"/>
<path d="M70 45h1v2h-1v-2z" fill="rgb(90,90,98)"/>
<path d="M20 46h1v1h-1v-1z" fill="rgb(139,123,131)"/>
<path d="M23 46h1v1h-1v-1z" fill="rgb(255,222,189)"/>
<path d="M24 46h1v1h-1v-1z" fill="rgb(246,246,255)"/>
<path d="M29 46h1v1h-1v-1z" fill="rgb(16,16,16)"/>
<path d="M59 46h1v2h-1v-2z" fill="rgb(16,16,16)"/>
<path d="M21 47h1v1h-1v-1z" fill="rgb(139,123,131)"/>
<path d="M25 47h1v1h-1v-1z" fill="rgb(246,246,255)"/>
<path d="M30 47h1v4h-1v-4z" fill="rgb(16,16,16)"/>
<path d="M36 47h1v1h-1v-1z" fill="rgb(230,115,65)"/>
<path d="M37 47h3v1h-3v-1z" fill="rgb(197,65,41)"/>
<path d="M52 47h2v1h-2v-1z" fill="rgb(82,82,90)"/>
<path d="M66 47h1v1h-1v-1z" fill="rgb(139,123,131)"/>
<path d="M67 47h2v1h-1v1h-2v-1h1v-1z" fill="rgb(82,82,90)"/>
<path d="M71 47h1v1h-1v-1z" fill="rgb(90,90,98)"/>
<path d="M22 48h1v1h-1v-1z" fill="rgb(90,90,98)"/>
<path d="M35 48h1v1h-1v-1z" fill="rgb(197,65,41)"/>
<path d="M36 48h4v1h-4v-1z" fill="rgb(246,246,255)"/>
<path d="M40 48h1v1h-1v-1z" fill="rgb(197,65,41)"/>
<path d="M55 48h2v1h1v3h-2v-1h-1v-3z" fill="rgb(16,16,16)"/>
<path d="M60 48h1v1h-1v-1z" fill="rgb(148,49,24)"/>
<path d="M68 48h1v1h-1v-1z" fill="rgb(139,123,131)"/>
<path d="M72 48h1v1h-1v-1z" fill="rgb(90,90,98)"/>
<path d="M23 49h1v1h-1v-1z" fill="rgb(90,90,98)"/>
<path d="M34 49h1v1h-1v-1z" fill="rgb(197,65,41)"/>
<path d="M35 49h1v1h-1v-1z" fill="rgb(246,246,255)"/>
<path d="M36 49h1v1h-1v-1z" fill="rgb(82,82,90)"/>
<path d="M37 49h2v1h1v1h1v2h-1v-1h-2v-2h-1v-1z" fill="rgb(16,16,16)"/>
<path d="M39 49h1v1h-1v-1z" fill="rgb(82,82,90)"/>
<path d="M40 49h1v1h-1v-1z" fill="rgb(246,246,255)"/>
<path d="M41 49h1v1h-1v-1z" fill="rgb(197,65,41)"/>
<path d="M54 49h1v2h-1v-2z" fill="rgb(82,82,90)"/>
<path d="M60 49h1v3h-1v-3z" fill="rgb(16,16,16)"/>
<path d="M61 49h4v1h-4v-1z" fill="rgb(139,123,131)"/>
<path d="M73 49h1v2h-1v-2z" fill="rgb(90,90,98)"/>
<path d="M23 50h1v1h-1v-1z" fill="rgb(148,49,24)"/>
<path d="M24 50h1v1h-1v-1z" fill="rgb(16,16,16)"/>
<path d="M34 50h1v4h-1v-4z" fill="rgb(246,246,255)"/>
<path d="M35 50h1v1h-1v-1z" fill="rgb(82,82,90)"/>
<path d="M36 50h2v2h-2v-2z" fill="rgb(246,246,255)"/>
<path d="M40 50h1v1h-1v-1z" fill="rgb(82,82,90)"/>
<path d="M41 50h1v4h-1v-4z" fill="rgb(246,246,255)"/>
<path d="M42 50h1v1h-1v-1z" fill="rgb(197,65,41)"/>
<path d="M61 50h4v1h4v1h-2v2h3v-1h1v1h1v2h-1v1h-2v-1h-2v-1h-3v1h-1v1h-1v-2h-1v-1h-1v-1h1
	v-3z" fill="rgb(246,246,255)"/>
<path d="M65 50h2v1h-2v-1z" fill="rgb(139,123,131)"/>
<path d="M23 51h1v4h-1v-4z" fill="rgb(16,16,16)"/>
<path d="M25 51h1v1h-1v-1z" fill="rgb(16,16,16)"/>
<path d="M29 51h1v1h-1v-1z" fill="rgb(16,16,16)"/>
<path d="M33 51h1v3h-1v-3z" fill="rgb(197,65,41)"/>
<path d="M35 51h1v1h2v2h1v1h-2v-1h-1v-1h-1v-2z" fill="rgb(16,16,16)"/>
<path d="M42 51h1v3h-1v-3z" fill="rgb(148,49,24)"/>
<path d="M55 51h1v1h-1v-1z" fill="rgb(82,82,90)"/>
<path d="M74 51h1v1h-1v-1z" fill="rgb(90,90,98)"/>
<path d="M26 52h3v1h-3v-1z" fill="rgb(16,16,16)"/>
<path d="M38 52h2v1h-1v1h-1v-2z" fill="rgb(82,82,90)"/>
<path d="M56 52h2v1h-2v-1z" fill="rgb(82,82,90)"/>
<path d="M60 52h1v1h-1v-1z" fill="rgb(148,49,24)"/>
<path d="M67 52h2v1h1v1h-2v-1h-1v-1z" fill="rgb(82,82,90)"/>
<path d="M69 52h1v1h-1v-1z" fill="rgb(246,246,255)"/>
<path d="M74 52h1v1h-1v-1z" fill="rgb(16,16,16)"/>
<path d="M35 53h1v1h-1v-1z" fill="rgb(82,82,90)"/>
<path d="M39 53h1v1h-1v-1z" fill="rgb(16,16,16)"/>
<path d="M40 53h1v1h-1v-1z" fill="rgb(82,82,90)"/>
<path d="M44 53h1v1h-1v-1z" fill="rgb(82,82,90)"/>
<path d="M59 53h1v3h-1v-3z" fill="rgb(16,16,16)"/>
<path d="M67 53h1v1h-1v-1z" fill="rgb(139,123,131)"/>
<path d="M74 53h1v1h-1v-1z" fill="rgb(90,90,98)"/>
<path d="M34 54h1v1h-1v-1z" fill="rgb(148,49,24)"/>
<path d="M35 54h1v1h-1v-1z" fill="rgb(246,246,255)"/>
<path d="M36 54h1v1h-1v-1z" fill="rgb(82,82,90)"/>
<path d="M39 54h1v1h-1v-1z" fill="rgb(82,82,90)"/>
<path d="M40 54h1v1h-1v-1z" fill="rgb(246,246,255)"/>
<path d="M41 54h1v1h-1v-1z" fill="rgb(148,49,24)"/>
<path d="M44 54h1v2h-1v2h-2v1h-2v-1h1v-1h2v-2h1v-1z" fill="rgb(16,16,16)"/>
<path d="M60 54h1v1h1v2h1v2h-1v-1h-2v2h1v1h1v1h1v2h3v-2h1v3h-1v2h-1v-1h-1v-1h-1v1h1v1h1
	v1h-2v1h-1v-2h-1v-2h1v-2h-1v-1h-1v-1h-2v-3h1v-2h1v-2z" fill="rgb(222,222,230)"/>
<path d="M73 54h1v1h-1v-1z" fill="rgb(90,90,98)"/>
<path d="M23 55h6v1h-6v-1z" fill="rgb(197,65,41)"/>
<path d="M35 55h1v1h-1v-1z" fill="rgb(148,49,24)"/>
<path d="M36 55h4v1h-4v-1z" fill="rgb(246,246,255)"/>
<path d="M40 55h1v1h-1v-1z" fill="rgb(148,49,24)"/>
<path d="M64 55h3v1h-3v-1z" fill="rgb(16,16,16)"/>
<path d="M73 55h1v1h-1v-1z" fill="rgb(16,16,16)"/>
<path d="M22 56h1v1h-1v-1z" fill="rgb(148,49,24)"/>
<path d="M23 56h1v2h-1v-2z" fill="rgb(246,123,90)"/>
<path d="M24 56h3v1h-3v-1z" fill="rgb(255,197,205)"/>
<path d="M27 56h2v1h1v1h-2v-1h-1v-1z" fill="rgb(246,123,90)"/>
<path d="M29 56h1v1h-1v-1z" fill="rgb(197,65,41)"/>
<path d="M36 56h4v1h-4v-1z" fill="rgb(148,49,24)"/>
<path d="M42 56h1v1h-1v-1z" fill="rgb(82,82,90)"/>
<path d="M44 56h1v1h-1v-1z" fill="rgb(82,82,90)"/>
<path d="M58 56h1v2h-1v-2z" fill="rgb(16,16,16)"/>
<path d="M63 56h1v1h-1v-1z" fill="rgb(90,90,98)"/>
<path d="M67 56h2v1h-2v-1z" fill="rgb(16,16,16)"/>
<path d="M71 56h2v1h-2v-1z" fill="rgb(16,16,16)"/>
<path d="M22 57h1v2h-1v-2z" fill="rgb(16,16,16)"/>
<path d="M24 57h4v1h-4v-1z" fill="rgb(164,57,65)"/>
<path d="M30 57h1v2h-1v-2z" fill="rgb(16,16,16)"/>
<path d="M63 57h1v2h-1v-2z" fill="rgb(16,16,16)"/>
<path d="M69 57h2v1h-2v-1z" fill="rgb(16,16,16)"/>
<path d="M23 58h1v1h-1v-1z" fill="rgb(164,57,65)"/>
<path d="M24 58h1v1h-1v-1z" fill="rgb(246,246,255)"/>
<path d="M25 58h2v1h2v1h-5v-1h1v-1z" fill="rgb(246,123,90)"/>
<path d="M27 58h1v1h-1v-1z" fill="rgb(246,246,255)"/>
<path d="M28 58h2v1h-2v-1z" fill="rgb(164,57,65)"/>
<path d="M31 58h1v1h2v1h1v2h-9v-1h3v-1h1v-1h1v-1z" fill="rgb(246,246,255)"/>
<path d="M39 58h1v1h-1v-1z" fill="rgb(82,82,90)"/>
<path d="M42 58h1v1h-1v-1z" fill="rgb(82,82,90)"/>
<path d="M43 58h1v1h-1v-1z" fill="rgb(230,115,65)"/>
<path d="M44 58h1v2h-1v1h-2v-1h1v-1h1v-1z" fill="rgb(16,16,16)"/>
<path d="M48 58h2v1h-1v6h-2v1h-3v1h-6v-1h1v-2h-1v-1h-1v-1h-1v-1h4v-1h1v1h3v-1h1v-1h1v2h1
	v-1h1v-2z" fill="rgb(197,65,41)"/>
<path d="M50 58h2v1h-2v-1z" fill="rgb(222,222,230)"/>
<path d="M52 58h2v1h-2v-1z" fill="rgb(90,90,98)"/>
<path d="M57 58h1v3h-2v-1h1v-2z" fill="rgb(16,16,16)"/>
<path d="M60 58h2v1h1v2h-2v-1h-1v-2z" fill="rgb(82,82,90)"/>
<path d="M23 59h1v1h-1v-1z" fill="rgb(16,16,16)"/>
<path d="M29 59h1v1h-1v-1z" fill="rgb(16,16,16)"/>
<path d="M49 59h1v2h-1v-2z" fill="rgb(222,222,230)"/>
<path d="M50 59h4v1h2v1h2v1h-2v3h-1v-3h-1v-1h-1v-1h-2v1h1v1h1v4h-1v4h-3v-3h1v-8z" fill="rgb(246,246,255)"/>
<path d="M54 59h2v1h-2v-1z" fill="rgb(16,16,16)"/>
<path d="M63 59h1v1h1v1h1v1h-3v-3z" fill="rgb(222,222,230)"/>
<path d="M64 59h1v1h-1v-1z" fill="rgb(16,16,16)"/>
<path d="M24 60h5v1h-3v1h-1v-1h-1v-1z" fill="rgb(16,16,16)"/>
<path d="M41 60h1v1h-1v-1z" fill="rgb(82,82,90)"/>
<path d="M51 60h1v1h-1v-1z" fill="rgb(222,222,230)"/>
<path d="M52 60h1v1h-1v-1z" fill="rgb(139,123,131)"/>
<path d="M65 60h1v1h-1v-1z" fill="rgb(90,90,98)"/>
<path d="M49 61h1v1h-1v-1z" fill="rgb(90,90,98)"/>
<path d="M52 61h1v1h-1v-1z" fill="rgb(222,222,230)"/>
<path d="M53 61h1v2h-1v-2z" fill="rgb(139,123,131)"/>
<path d="M58 61h2v1h-2v-1z" fill="rgb(16,16,16)"/>
<path d="M62 61h1v1h-1v-1z" fill="rgb(139,123,131)"/>
<path d="M66 61h1v1h-1v-1z" fill="rgb(90,90,98)"/>
<path d="M26 62h1v1h-1v-1z" fill="rgb(16,16,16)"/>
<path d="M27 62h9v1h1v1h1v2h-1v1h-2v-1h-3v-1h-2v-1h-2v-1h-1v-1z" fill="rgb(222,222,230)"/>
<path d="M36 62h1v1h-1v-1z" fill="rgb(230,115,65)"/>
<path d="M49 62h1v4h-1v1h-1v-1h-1v-1h2v-3z" fill="rgb(16,16,16)"/>
<path d="M54 62h1v1h-1v-1z" fill="rgb(222,222,230)"/>
<path d="M56 62h2v1h-2v-1z" fill="rgb(139,123,131)"/>
<path d="M58 62h2v1h1v2h-2v1h-1v-1h-1v-1h1v-2z" fill="rgb(246,246,255)"/>
<path d="M60 62h1v1h-1v-1z" fill="rgb(16,16,16)"/>
<path d="M63 62h3v1h-1v1h-1v-1h-1v-1z" fill="rgb(82,82,90)"/>
<path d="M67 62h1v3h-1v-3z" fill="rgb(90,90,98)"/>
<path d="M25 63h1v1h-1v-1z" fill="rgb(139,123,131)"/>
<path d="M26 63h1v2h-1v1h-1v2h1v-2h1v-1h2v3h-2v1h-1v1h-2v-1h-2v-3h1v-1h2v-1h1v-1z" fill="rgb(222,222,230)"/>
<path d="M27 63h1v1h-1v-1z" fill="rgb(16,16,16)"/>
<path d="M37 63h1v1h-1v-1z" fill="rgb(230,115,65)"/>
<path d="M53 63h1v2h2v1h1v4h-1v1h-3v-1h-1v-4h1v-3z" fill="rgb(222,222,230)"/>
<path d="M54 63h1v2h-1v-2z" fill="rgb(139,123,131)"/>
<path d="M56 63h2v1h-2v-1z" fill="rgb(82,82,90)"/>
<path d="M61 63h1v2h-1v-2z" fill="rgb(16,16,16)"/>
<path d="M63 63h1v1h-1v-1z" fill="rgb(139,123,131)"/>
<path d="M65 63h1v1h-1v-1z" fill="rgb(139,123,131)"/>
<path d="M23 64h2v1h-2v-1z" fill="rgb(139,123,131)"/>
<path d="M27 64h1v1h-1v-1z" fill="rgb(139,123,131)"/>
<path d="M28 64h2v1h-2v-1z" fill="rgb(16,16,16)"/>
<path d="M38 64h1v2h-1v-2z" fill="rgb(230,115,65)"/>
<path d="M56 64h1v1h-1v-1z" fill="rgb(222,222,230)"/>
<path d="M22 65h1v1h-1v-1z" fill="rgb(139,123,131)"/>
<path d="M26 65h1v1h-1v-1z" fill="rgb(139,123,131)"/>
<path d="M29 65h1v2h-1v-2z" fill="rgb(139,123,131)"/>
<path d="M30 65h2v1h-2v-1z" fill="rgb(16,16,16)"/>
<path d="M56 65h1v1h-1v-1z" fill="rgb(246,246,255)"/>
<path d="M57 65h1v1h-1v-1z" fill="rgb(222,222,230)"/>
<path d="M59 65h2v1h-2v-1z" fill="rgb(16,16,16)"/>
<path d="M63 65h1v1h-1v-1z" fill="rgb(139,123,131)"/>
<path d="M66 65h1v2h-1v-2z" fill="rgb(90,90,98)"/>
<path d="M21 66h1v3h-1v-3z" fill="rgb(139,123,131)"/>
<path d="M25 66h1v2h-1v-2z" fill="rgb(139,123,131)"/>
<path d="M30 66h1v1h-1v-1z" fill="rgb(246,246,255)"/>
<path d="M31 66h1v1h-1v-1z" fill="rgb(222,222,230)"/>
<path d="M32 66h3v1h-3v-1z" fill="rgb(16,16,16)"/>
<path d="M37 66h1v1h-1v-1z" fill="rgb(230,115,65)"/>
<path d="M44 66h3v1h-3v-1z" fill="rgb(16,16,16)"/>
<path d="M49 66h1v1h-1v-1z" fill="rgb(222,222,230)"/>
<path d="M57 66h1v1h-1v-1z" fill="rgb(246,246,255)"/>
<path d="M58 66h1v1h-1v-1z" fill="rgb(16,16,16)"/>
<path d="M59 66h1v1h1v2h-1v-1h-2v-1h1v-1z" fill="rgb(222,222,230)"/>
<path d="M60 66h1v1h-1v-1z" fill="rgb(139,123,131)"/>
<path d="M64 66h1v1h-1v-1z" fill="rgb(139,123,131)"/>
<path d="M29 67h1v1h-1v-1z" fill="rgb(246,246,255)"/>
<path d="M30 67h1v1h-1v-1z" fill="rgb(222,222,230)"/>
<path d="M31 67h1v1h-1v-1z" fill="rgb(246,246,255)"/>
<path d="M32 67h1v1h-1v-1z" fill="rgb(90,90,98)"/>
<path d="M35 67h9v1h-9v-1z" fill="rgb(16,16,16)"/>
<path d="M48 67h1v1h-1v-1z" fill="rgb(90,90,98)"/>
<path d="M53 67h2v2h-1v-1h-1v-1z" fill="rgb(82,82,90)"/>
<path d="M57 67h1v1h2v1h-2v1h-1v-3z" fill="rgb(16,16,16)"/>
<path d="M61 67h1v2h-1v-2z" fill="rgb(139,123,131)"/>
<path d="M65 67h1v1h-1v-1z" fill="rgb(16,16,16)"/>
<path d="M27 68h2v1h-2v-1z" fill="rgb(16,16,16)"/>
<path d="M29 68h1v1h-1v-1z" fill="rgb(222,222,230)"/>
<path d="M30 68h1v1h-1v-1z" fill="rgb(246,246,255)"/>
<path d="M31 68h1v1h-1v-1z" fill="rgb(16,16,16)"/>
<path d="M47 68h1v2h-1v-2z" fill="rgb(90,90,98)"/>
<path d="M48 68h1v2h2v1h-1v1h-2v-1h-1v-1h1v-2z" fill="rgb(222,222,230)"/>
<path d="M53 68h1v1h-1v-1z" fill="rgb(139,123,131)"/>
<path d="M63 68h2v1h-2v-1z" fill="rgb(16,16,16)"/>
<path d="M22 69h2v1h-2v-1z" fill="rgb(90,90,98)"/>
<path d="M26 69h1v1h-1v-1z" fill="rgb(90,90,98)"/>
<path d="M29 69h2v1h-2v-1z" fill="rgb(16,16,16)"/>
<path d="M60 69h3v1h-3v-1z" fill="rgb(16,16,16)"/>
<path d="M24 70h2v1h-2v-1z" fill="rgb(90,90,98)"/>
<path d="M46 70h1v1h-1v-1z" fill="rgb(90,90,98)"/>
<path d="M51 70h2v1h-2v-1z" fill="rgb(16,16,16)"/>
<path d="M56 70h1v1h-1v-1z" fill="rgb(16,16,16)"/>
<path d="M47 71h1v1h-1v-1z" fill="rgb(16,16,16)"/>
<path d="M50 71h1v1h-1v-1z" fill="rgb(16,16,16)"/>
<path d="M53 71h3v1h-3v-1z" fill="rgb(16,16,16)"/>
<path d="M48 72h2v1h-2v-1z" fill="rgb(16,16,16)"/>
</svg>
