<?xml version="1.0" encoding="utf-8"?>
<!-- generated at drububu.com  -->
<!DOCTYPE svg PUBLIC "-//W3C//DTD SVG 1.1//EN" "http://www.w3.org/Graphics/SVG/1.1/DTD/svg11.dtd">
<svg version="1.1" preserveAspectRatio="xMinYMin meet" xmlns="http://www.w3.org/2000/svg" xmlns:xlink="http://www.w3.org/1999/xlink" x="0px" y="0px" width="96px" height="96px" viewBox="0 0 96 96">
<path d="M0 0h96v96h-96v-96z" fill="transparent"/>
<path d="M43 22h2v1h-1v2h-1v-3z" fill="rgb(0,0,0)"/>
<path d="M44 23h1v1h-1v-1z" fill="rgb(90,74,115)"/>
<path d="M45 23h1v2h-1v-2z" fill="rgb(0,0,0)"/>
<path d="M50 23h2v1h-1v3h-1v-4z" fill="rgb(0,0,0)"/>
<path d="M23 24h3v1h-3v-1z" fill="rgb(0,0,0)"/>
<path d="M26 24h2v1h-2v-1z" fill="rgb(90,74,115)"/>
<path d="M28 24h2v1h-2v-1z" fill="rgb(115,98,172)"/>
<path d="M44 24h1v1h-1v-1z" fill="rgb(49,49,82)"/>
<path d="M51 24h1v1h-1v-1z" fill="rgb(90,74,115)"/>
<path d="M66 24h3v1h-3v-1z" fill="rgb(90,74,115)"/>
<path d="M69 24h2v1h-2v-1z" fill="rgb(0,0,0)"/>
<path d="M21 25h2v1h-1v1h-1v1h-1v-2h1v-1z" fill="rgb(0,0,0)"/>
<path d="M23 25h3v1h-1v1h-1v1h-1v1h-1v7h1v2h1v1h-1v3h1v1h1v5h-1v-3h-1v-2h-1v-2h-1v-3h-1
	v-10h1v-1h1v-1h1v-1z" fill="rgb(49,49,82)"/>
<path d="M26 25h4v1h3v1h2v1h2v1h1v1h1v1h1v1h1v1h1v2h1v2h1v2h1v2h-1v-1h-2v-1h-1v-1h-1v-2
	h-1v-1h-1v-1h-1v-1h-1v-1h-2v-1h-3v-1h-1v-1h-1v-1h-1v-1h-1v-1h-1v-1z" fill="rgb(238,238,255)"/>
<path d="M30 25h3v1h-3v-1z" fill="rgb(115,98,172)"/>
<path d="M44 25h1v1h-1v-1z" fill="rgb(0,0,0)"/>
<path d="M45 25h1v1h-1v-1z" fill="rgb(49,49,82)"/>
<path d="M46 25h1v4h-1v-2h-1v-1h1v-1z" fill="rgb(0,0,0)"/>
<path d="M51 25h1v2h-1v-2z" fill="rgb(49,49,82)"/>
<path d="M52 25h1v6h-1v-2h-1v-2h1v-2z" fill="rgb(0,0,0)"/>
<path d="M64 25h1v1h-1v-1z" fill="rgb(90,74,115)"/>
<path d="M65 25h1v1h-1v-1z" fill="rgb(115,98,172)"/>
<path d="M66 25h2v1h2v1h1v1h-2v1h-1v1h-1v1h-1v1h-4v1h-1v1h-1v1h-1v1h-1v2h-1v1h-1v1h-2v-2
	h1v-2h1v-2h1v-1h1v-2h1v-1h1v-1h1v-1h1v-1h2v-1h2v-1z" fill="rgb(238,238,255)"/>
<path d="M68 25h1v1h-1v-1z" fill="rgb(131,131,189)"/>
<path d="M69 25h2v1h2v1h1v2h1v7h-1v3h-1v3h-1v2h-1v2h-1v2h-1v-4h1v-2h1v-3h1v-3h1v-6h-1v-3
	h-2v-1h-1v-1z" fill="rgb(49,49,82)"/>
<path d="M71 25h2v1h-2v-1z" fill="rgb(0,0,0)"/>
<path d="M25 26h1v1h-1v-1z" fill="rgb(90,74,115)"/>
<path d="M26 26h1v2h-1v-2z" fill="rgb(131,131,189)"/>
<path d="M33 26h2v1h-2v-1z" fill="rgb(115,98,172)"/>
<path d="M62 26h1v1h-1v-1z" fill="rgb(90,74,115)"/>
<path d="M63 26h1v1h-1v-1z" fill="rgb(115,98,172)"/>
<path d="M73 26h1v1h-1v-1z" fill="rgb(0,0,0)"/>
<path d="M24 27h2v1h-2v-1z" fill="rgb(238,238,255)"/>
<path d="M27 27h1v1h-1v-1z" fill="rgb(90,74,115)"/>
<path d="M35 27h2v1h-2v-1z" fill="rgb(115,98,172)"/>
<path d="M61 27h1v1h-1v-1z" fill="rgb(90,74,115)"/>
<path d="M71 27h1v1h-1v-1z" fill="rgb(90,74,115)"/>
<path d="M74 27h1v2h-1v-2z" fill="rgb(0,0,0)"/>
<path d="M19 28h1v10h-1v-10z" fill="rgb(0,0,0)"/>
<path d="M23 28h2v1h-2v-1z" fill="rgb(90,74,115)"/>
<path d="M25 28h1v2h-1v-2z" fill="rgb(131,131,189)"/>
<path d="M26 28h2v1h1v1h1v1h1v1h-2v-1h-1v-1h-1v-1h-1v-1z" fill="rgb(238,238,255)"/>
<path d="M28 28h1v1h-1v-1z" fill="rgb(90,74,115)"/>
<path d="M37 28h1v1h-1v-1z" fill="rgb(115,98,172)"/>
<path d="M60 28h1v1h-1v-1z" fill="rgb(90,74,115)"/>
<path d="M69 28h1v1h-1v-1z" fill="rgb(131,131,189)"/>
<path d="M70 28h1v1h-1v-1z" fill="rgb(90,74,115)"/>
<path d="M71 28h1v2h-2v-1h1v-1z" fill="rgb(238,238,255)"/>
<path d="M22 29h1v1h-1v-1z" fill="rgb(131,131,189)"/>
<path d="M23 29h2v1h2v1h1v1h1v6h1v1h-3v-1h-2v-1h-1v-1h-1v-1h-1v-5h1v-1z" fill="rgb(238,238,255)"/>
<path d="M26 29h1v1h-1v-1z" fill="rgb(90,74,115)"/>
<path d="M29 29h1v1h-1v-1z" fill="rgb(90,74,115)"/>
<path d="M38 29h1v1h-1v-1z" fill="rgb(90,74,115)"/>
<path d="M47 29h1v3h-1v-3z" fill="rgb(0,0,0)"/>
<path d="M59 29h1v1h-1v-1z" fill="rgb(49,49,82)"/>
<path d="M68 29h1v1h-1v-1z" fill="rgb(90,74,115)"/>
<path d="M69 29h1v1h-1v-1z" fill="rgb(189,189,230)"/>
<path d="M75 29h1v7h-1v-7z" fill="rgb(0,0,0)"/>
<path d="M27 30h1v1h-1v-1z" fill="rgb(90,74,115)"/>
<path d="M30 30h1v1h-1v-1z" fill="rgb(90,74,115)"/>
<path d="M39 30h1v1h-1v-1z" fill="rgb(90,74,115)"/>
<path d="M58 30h1v1h-1v-1z" fill="rgb(49,49,82)"/>
<path d="M67 30h1v1h-1v-1z" fill="rgb(90,74,115)"/>
<path d="M68 30h2v1h-1v1h-1v1h-2v-1h1v-1h1v-1z" fill="rgb(238,238,255)"/>
<path d="M70 30h1v1h-1v-1z" fill="rgb(131,131,189)"/>
<path d="M71 30h1v1h-1v-1z" fill="rgb(90,74,115)"/>
<path d="M72 30h1v1h-1v-1z" fill="rgb(131,131,189)"/>
<path d="M28 31h1v1h-1v-1z" fill="rgb(90,74,115)"/>
<path d="M31 31h2v1h2v1h2v1h1v1h1v1h1v2h-1v-1h-1v-1h-1v-1h-2v-1h-2v1h-1v3h1v1h1v1h2v1h2
	v1h2v1h1v1h1v1h-2v-1h-1v-1h-2v-1h-2v-1h-2v-1h-2v-1h-1v-2h-1v-4h1v-1h1v-1z" fill="rgb(49,49,82)"/>
<path d="M33 31h1v1h-1v-1z" fill="rgb(131,131,189)"/>
<path d="M40 31h1v1h-1v-1z" fill="rgb(0,0,0)"/>
<path d="M53 31h1v9h-1v-9z" fill="rgb(0,0,0)"/>
<path d="M57 31h1v1h-1v-1z" fill="rgb(49,49,82)"/>
<path d="M66 31h1v1h-1v-1z" fill="rgb(90,74,115)"/>
<path d="M69 31h1v1h-1v-1z" fill="rgb(90,74,115)"/>
<path d="M70 31h1v1h-1v-1z" fill="rgb(189,189,230)"/>
<path d="M71 31h2v5h-1v1h-1v1h-1v1h-2v1h-2v-1h1v-1h1v-5h1v-1h2v-1z" fill="rgb(238,238,255)"/>
<path d="M29 32h1v1h-1v-1z" fill="rgb(90,74,115)"/>
<path d="M35 32h1v1h-1v-1z" fill="rgb(131,131,189)"/>
<path d="M41 32h1v1h-1v-1z" fill="rgb(0,0,0)"/>
<path d="M48 32h1v3h-1v-3z" fill="rgb(0,0,0)"/>
<path d="M57 32h1v1h-1v-1z" fill="rgb(90,74,115)"/>
<path d="M62 32h1v1h-1v-1z" fill="rgb(131,131,189)"/>
<path d="M63 32h3v1h1v1h1v3h-1v2h-1v1h-2v1h-2v-1h1v-1h1v-1h1v-2h-1v-1h-3v1h-1v1h-1v1h-1
	v-2h1v-1h1v-1h1v-1h2v-1z" fill="rgb(49,49,82)"/>
<path d="M68 32h1v1h-1v-1z" fill="rgb(90,74,115)"/>
<path d="M42 33h1v2h-1v-2z" fill="rgb(90,74,115)"/>
<path d="M56 33h1v1h-1v-1z" fill="rgb(49,49,82)"/>
<path d="M67 33h1v1h-1v-1z" fill="rgb(131,131,189)"/>
<path d="M33 34h2v1h2v1h1v1h1v2h1v1h1v2h-3v-1h-2v-1h-2v-1h-1v-1h-1v-3h1v-1z" fill="rgb(238,238,255)"/>
<path d="M55 34h1v2h-1v-2z" fill="rgb(49,49,82)"/>
<path d="M22 35h1v1h-1v-1z" fill="rgb(131,131,189)"/>
<path d="M43 35h1v1h-1v-1z" fill="rgb(0,0,0)"/>
<path d="M49 35h1v7h-1v-7z" fill="rgb(0,0,0)"/>
<path d="M61 35h3v1h1v2h-1v1h-1v1h-1v1h-2v-1h-2v-1h1v-2h1v-1h1v-1z" fill="rgb(238,238,255)"/>
<path d="M23 36h1v1h-1v-1z" fill="rgb(131,131,189)"/>
<path d="M43 36h1v1h-1v-1z" fill="rgb(90,74,115)"/>
<path d="M54 36h1v2h-1v-2z" fill="rgb(49,49,82)"/>
<path d="M74 36h1v3h-1v-3z" fill="rgb(0,0,0)"/>
<path d="M23 37h1v1h-1v-1z" fill="rgb(90,74,115)"/>
<path d="M24 37h1v2h-1v-2z" fill="rgb(131,131,189)"/>
<path d="M29 37h1v1h-1v-1z" fill="rgb(131,131,189)"/>
<path d="M44 37h1v1h-1v-1z" fill="rgb(0,0,0)"/>
<path d="M67 37h1v1h-1v-1z" fill="rgb(131,131,189)"/>
<path d="M71 37h1v1h-1v-1z" fill="rgb(189,189,230)"/>
<path d="M20 38h1v3h-1v-3z" fill="rgb(0,0,0)"/>
<path d="M25 38h2v1h-2v-1z" fill="rgb(90,74,115)"/>
<path d="M39 38h1v1h-1v-1z" fill="rgb(131,131,189)"/>
<path d="M40 38h1v1h1v2h-1v-1h-1v-2z" fill="rgb(49,49,82)"/>
<path d="M44 38h1v1h-1v-1z" fill="rgb(90,74,115)"/>
<path d="M57 38h1v2h-1v-2z" fill="rgb(49,49,82)"/>
<path d="M58 38h1v1h-1v-1z" fill="rgb(131,131,189)"/>
<path d="M70 38h1v1h-1v-1z" fill="rgb(131,131,189)"/>
<path d="M71 38h1v1h-1v-1z" fill="rgb(90,74,115)"/>
<path d="M23 39h4v1h6v1h2v1h2v1h2v3h-5v-1h-6v-1h-2v-1h-1v-1h-1v-2h-1v-1z" fill="rgb(238,238,255)"/>
<path d="M27 39h1v1h-1v-1z" fill="rgb(131,131,189)"/>
<path d="M28 39h3v1h-3v-1z" fill="rgb(90,74,115)"/>
<path d="M45 39h1v2h-1v-2z" fill="rgb(0,0,0)"/>
<path d="M48 39h1v1h-1v-1z" fill="rgb(49,49,82)"/>
<path d="M50 39h3v1h-3v-1z" fill="rgb(49,49,82)"/>
<path d="M56 39h1v1h-1v-1z" fill="rgb(189,189,230)"/>
<path d="M68 39h1v1h-1v-1z" fill="rgb(131,131,189)"/>
<path d="M69 39h1v1h-1v-1z" fill="rgb(90,74,115)"/>
<path d="M70 39h1v2h-1v2h-1v1h-1v1h-1v1h-2v-2h-1v-1h-1v-1h3v-1h2v-1h2v-1z" fill="rgb(238,238,255)"/>
<path d="M73 39h1v3h-1v-3z" fill="rgb(0,0,0)"/>
<path d="M23 40h1v1h-1v-1z" fill="rgb(131,131,189)"/>
<path d="M42 40h2v2h-1v-1h-1v-1z" fill="rgb(189,189,230)"/>
<path d="M46 40h2v1h-2v-1z" fill="rgb(49,49,82)"/>
<path d="M48 40h1v3h1v-3h2v4h1v1h-1v1h-4v-4h-1v-1h1v-1z" fill="rgb(131,131,189)"/>
<path d="M52 40h1v3h-1v-3z" fill="rgb(0,0,0)"/>
<path d="M53 40h2v1h-2v-1z" fill="rgb(90,74,115)"/>
<path d="M55 40h1v1h-1v-1z" fill="rgb(189,189,230)"/>
<path d="M56 40h1v1h-1v-1z" fill="rgb(49,49,82)"/>
<path d="M57 40h3v1h1v1h-1v1h-2v-1h-1v-2z" fill="rgb(189,189,230)"/>
<path d="M64 40h2v1h-2v-1z" fill="rgb(238,238,255)"/>
<path d="M66 40h2v1h-2v-1z" fill="rgb(90,74,115)"/>
<path d="M21 41h1v2h-1v-2z" fill="rgb(0,0,0)"/>
<path d="M23 41h1v1h-1v-1z" fill="rgb(90,74,115)"/>
<path d="M41 41h1v2h1v1h-2v-1h-1v-1h1v-1z" fill="rgb(189,189,230)"/>
<path d="M42 41h1v1h1v-1h2v1h-1v1h-3v-2z" fill="rgb(49,49,82)"/>
<path d="M46 41h1v1h-1v-1z" fill="rgb(98,49,57)"/>
<path d="M53 41h1v3h-1v-3z" fill="rgb(131,131,189)"/>
<path d="M54 41h1v1h2v1h1v2h-1v-1h-3v-3z" fill="rgb(115,98,172)"/>
<path d="M55 41h2v1h-2v-1z" fill="rgb(90,74,115)"/>
<path d="M61 41h1v1h-1v-1z" fill="rgb(49,49,82)"/>
<path d="M62 41h4v1h-4v-1z" fill="rgb(90,74,115)"/>
<path d="M70 41h1v1h-1v-1z" fill="rgb(131,131,189)"/>
<path d="M24 42h1v1h-1v-1z" fill="rgb(131,131,189)"/>
<path d="M45 42h2v1h-2v-1z" fill="rgb(222,49,49)"/>
<path d="M47 42h1v3h-1v-3z" fill="rgb(98,49,57)"/>
<path d="M49 42h1v1h-1v-1z" fill="rgb(90,74,115)"/>
<path d="M57 42h1v1h-1v-1z" fill="rgb(49,49,82)"/>
<path d="M60 42h1v1h-1v-1z" fill="rgb(49,49,82)"/>
<path d="M61 42h1v1h-1v-1z" fill="rgb(131,131,189)"/>
<path d="M62 42h1v1h1v1h1v2h-1v1h-4v-2h-1v-1h1v-1h2v-1z" fill="rgb(189,189,230)"/>
<path d="M72 42h1v2h-1v-2z" fill="rgb(0,0,0)"/>
<path d="M22 43h1v2h-1v-2z" fill="rgb(0,0,0)"/>
<path d="M25 43h1v1h-1v-1z" fill="rgb(131,131,189)"/>
<path d="M43 43h1v1h-1v-1z" fill="rgb(98,49,57)"/>
<path d="M44 43h1v1h-1v-1z" fill="rgb(230,98,131)"/>
<path d="M45 43h1v3h-2v-2h1v-1z" fill="rgb(255,156,180)"/>
<path d="M46 43h1v2h-1v-2z" fill="rgb(230,98,131)"/>
<path d="M52 43h1v1h-1v-1z" fill="rgb(90,74,115)"/>
<path d="M58 43h2v1h-1v1h-1v-2z" fill="rgb(49,49,82)"/>
<path d="M69 43h1v1h-1v-1z" fill="rgb(131,131,189)"/>
<path d="M25 44h3v1h-3v-1z" fill="rgb(90,74,115)"/>
<path d="M39 44h1v1h2v1h-3v-2z" fill="rgb(189,189,230)"/>
<path d="M42 44h1v4h-1v-4z" fill="rgb(98,49,57)"/>
<path d="M43 44h1v2h2v1h-1v1h-2v-4z" fill="rgb(222,49,49)"/>
<path d="M53 44h1v1h-1v-1z" fill="rgb(115,98,172)"/>
<path d="M54 44h3v1h-3v-1z" fill="rgb(90,74,115)"/>
<path d="M68 44h1v1h-1v-1z" fill="rgb(131,131,189)"/>
<path d="M71 44h1v2h-1v-2z" fill="rgb(0,0,0)"/>
<path d="M23 45h1v3h-1v-3z" fill="rgb(0,0,0)"/>
<path d="M25 45h3v1h5v1h5v2h-3v1h-6v-1h-2v-1h-1v-2h-1v-1z" fill="rgb(238,238,255)"/>
<path d="M28 45h1v1h-1v-1z" fill="rgb(131,131,189)"/>
<path d="M29 45h4v1h-4v-1z" fill="rgb(90,74,115)"/>
<path d="M33 45h1v1h-1v-1z" fill="rgb(189,189,230)"/>
<path d="M46 45h1v1h-1v-1z" fill="rgb(222,49,49)"/>
<path d="M47 45h1v1h4v3h-1v1h-1v-1h-1v-1h-3v-1h1v-2z" fill="rgb(115,98,172)"/>
<path d="M52 45h1v1h-1v-1z" fill="rgb(115,98,172)"/>
<path d="M53 45h1v1h-1v-1z" fill="rgb(98,49,57)"/>
<path d="M54 45h2v1h-2v-1z" fill="rgb(230,98,131)"/>
<path d="M56 45h1v1h1v1h1v3h-1v1h-1v1h-3v-1h-1v-2h2v-1h1v-3z" fill="rgb(222,49,49)"/>
<path d="M57 45h1v1h-1v-1z" fill="rgb(98,49,57)"/>
<path d="M58 45h1v1h-1v-1z" fill="rgb(115,98,172)"/>
<path d="M59 45h1v3h-1v-3z" fill="rgb(49,49,82)"/>
<path d="M67 45h2v1h-2v-1z" fill="rgb(90,74,115)"/>
<path d="M25 46h1v1h-1v-1z" fill="rgb(131,131,189)"/>
<path d="M33 46h1v1h-1v-1z" fill="rgb(131,131,189)"/>
<path d="M34 46h8v1h-8v-1z" fill="rgb(90,74,115)"/>
<path d="M46 46h1v1h-1v-1z" fill="rgb(98,49,57)"/>
<path d="M52 46h1v1h-1v-1z" fill="rgb(90,74,115)"/>
<path d="M53 46h1v1h-1v-1z" fill="rgb(230,98,131)"/>
<path d="M54 46h2v2h-1v1h-2v-2h1v-1z" fill="rgb(255,156,180)"/>
<path d="M58 46h1v1h-1v-1z" fill="rgb(98,49,57)"/>
<path d="M64 46h1v1h-1v-1z" fill="rgb(131,131,189)"/>
<path d="M65 46h2v1h-2v-1z" fill="rgb(90,74,115)"/>
<path d="M67 46h2v1h-1v2h-1v1h-1v-3h1v-1z" fill="rgb(238,238,255)"/>
<path d="M70 46h1v2h-1v-2z" fill="rgb(0,0,0)"/>
<path d="M25 47h1v1h-1v-1z" fill="rgb(90,74,115)"/>
<path d="M38 47h4v2h-4v-2z" fill="rgb(189,189,230)"/>
<path d="M45 47h1v1h-1v-1z" fill="rgb(98,49,57)"/>
<path d="M52 47h1v2h-1v-2z" fill="rgb(222,49,49)"/>
<path d="M60 47h4v1h-4v-1z" fill="rgb(90,74,115)"/>
<path d="M64 47h2v3h-2v1h-4v-3h4v-1z" fill="rgb(189,189,230)"/>
<path d="M68 47h1v1h-1v-1z" fill="rgb(90,74,115)"/>
<path d="M24 48h1v2h-1v-2z" fill="rgb(0,0,0)"/>
<path d="M25 48h1v1h1v1h1v3h-1v-1h-1v-2h-1v-2z" fill="rgb(49,49,82)"/>
<path d="M26 48h1v1h-1v-1z" fill="rgb(131,131,189)"/>
<path d="M42 48h1v2h-1v-2z" fill="rgb(0,0,0)"/>
<path d="M43 48h1v1h-1v-1z" fill="rgb(90,74,115)"/>
<path d="M44 48h1v1h-1v-1z" fill="rgb(115,98,172)"/>
<path d="M45 48h1v1h-1v-1z" fill="rgb(82,123,197)"/>
<path d="M46 48h1v1h2v2h-3v-1h-1v-1h1v-1z" fill="rgb(106,189,205)"/>
<path d="M47 48h1v1h-1v-1z" fill="rgb(82,123,197)"/>
<path d="M48 48h1v1h-1v-1z" fill="rgb(90,74,115)"/>
<path d="M59 48h1v3h-1v-3z" fill="rgb(0,0,0)"/>
<path d="M68 48h1v2h-1v-2z" fill="rgb(49,49,82)"/>
<path d="M69 48h1v2h-1v-2z" fill="rgb(0,0,0)"/>
<path d="M27 49h2v1h-2v-1z" fill="rgb(131,131,189)"/>
<path d="M35 49h1v1h-1v-1z" fill="rgb(189,189,230)"/>
<path d="M36 49h6v1h-6v-1z" fill="rgb(90,74,115)"/>
<path d="M43 49h1v1h-1v-1z" fill="rgb(115,98,172)"/>
<path d="M44 49h1v2h-1v-2z" fill="rgb(90,74,115)"/>
<path d="M49 49h1v1h-1v-1z" fill="rgb(49,49,82)"/>
<path d="M51 49h1v2h1v1h1v1h3v1h-2v1h-3v1h1v1h-1v5h1v1h-2v1h-5v-1h-1v-1h-1v-4h1v3h1v1h3
	v-1h1v-3h-1v-1h-1v-1h-1v-2h-1v-1h-1v-1h3v1h2v-1h1v-3z" fill="rgb(90,74,115)"/>
<path d="M52 49h1v1h-1v-1z" fill="rgb(98,49,57)"/>
<path d="M67 49h1v1h-1v-1z" fill="rgb(131,131,189)"/>
<path d="M25 50h1v2h-1v-2z" fill="rgb(0,0,0)"/>
<path d="M28 50h7v1h-7v-1z" fill="rgb(90,74,115)"/>
<path d="M35 50h1v1h-1v-1z" fill="rgb(131,131,189)"/>
<path d="M36 50h2v2h1v1h-1v1h-3v1h-4v-1h-2v-2h-1v-1h8v-1z" fill="rgb(238,238,255)"/>
<path d="M38 50h5v2h-2v1h-2v-1h-1v-2z" fill="rgb(189,189,230)"/>
<path d="M43 50h1v2h-1v-2z" fill="rgb(0,0,0)"/>
<path d="M45 50h1v1h-1v-1z" fill="rgb(49,49,82)"/>
<path d="M49 50h1v2h-2v-1h1v-1z" fill="rgb(82,123,197)"/>
<path d="M50 50h1v2h-1v-2z" fill="rgb(49,49,82)"/>
<path d="M52 50h1v1h-1v-1z" fill="rgb(0,0,0)"/>
<path d="M58 50h1v1h-1v-1z" fill="rgb(98,49,57)"/>
<path d="M64 50h1v1h-1v-1z" fill="rgb(131,131,189)"/>
<path d="M65 50h2v1h-2v-1z" fill="rgb(90,74,115)"/>
<path d="M67 50h1v2h-1v1h-1v1h-2v-1h1v-1h1v-1h1v-1z" fill="rgb(49,49,82)"/>
<path d="M68 50h1v2h-1v-2z" fill="rgb(0,0,0)"/>
<path d="M44 51h1v1h-1v-1z" fill="rgb(115,98,172)"/>
<path d="M45 51h1v1h-1v-1z" fill="rgb(238,238,255)"/>
<path d="M46 51h2v1h-2v-1z" fill="rgb(49,49,82)"/>
<path d="M53 51h1v1h-1v-1z" fill="rgb(0,0,0)"/>
<path d="M57 51h1v1h-1v-1z" fill="rgb(98,49,57)"/>
<path d="M58 51h1v2h-1v-2z" fill="rgb(0,0,0)"/>
<path d="M59 51h5v1h-5v-1z" fill="rgb(90,74,115)"/>
<path d="M64 51h2v1h-1v1h-1v1h-2v1h-3v1h-4v-1h2v-1h1v-1h1v-1h5v-1z" fill="rgb(189,189,230)"/>
<path d="M26 52h1v1h-1v-1z" fill="rgb(0,0,0)"/>
<path d="M28 52h1v1h-1v-1z" fill="rgb(131,131,189)"/>
<path d="M41 52h2v1h-2v-1z" fill="rgb(90,74,115)"/>
<path d="M43 52h1v1h1v1h-1v1h-1v1h-1v1h-2v-1h-1v-2h2v-1h2v-1z" fill="rgb(189,189,230)"/>
<path d="M44 52h1v1h-1v-1z" fill="rgb(0,0,0)"/>
<path d="M48 52h1v1h-1v-1z" fill="rgb(238,238,255)"/>
<path d="M49 52h1v1h-1v-1z" fill="rgb(49,49,82)"/>
<path d="M54 52h3v1h-3v-1z" fill="rgb(0,0,0)"/>
<path d="M57 52h1v1h-1v-1z" fill="rgb(90,74,115)"/>
<path d="M67 52h1v1h-1v-1z" fill="rgb(0,0,0)"/>
<path d="M27 53h1v2h-1v-2z" fill="rgb(0,0,0)"/>
<path d="M28 53h1v1h1v1h4v1h-1v1h-2v-1h-2v-1h-1v-2z" fill="rgb(49,49,82)"/>
<path d="M38 53h1v2h-1v-2z" fill="rgb(131,131,189)"/>
<path d="M39 53h2v1h-2v-1z" fill="rgb(90,74,115)"/>
<path d="M45 53h1v1h-1v-1z" fill="rgb(0,0,0)"/>
<path d="M57 53h1v1h-1v-1z" fill="rgb(0,0,0)"/>
<path d="M66 53h1v1h-1v-1z" fill="rgb(0,0,0)"/>
<path d="M30 54h1v1h-1v-1z" fill="rgb(131,131,189)"/>
<path d="M35 54h1v1h-1v-1z" fill="rgb(131,131,189)"/>
<path d="M36 54h2v1h-2v-1z" fill="rgb(90,74,115)"/>
<path d="M44 54h1v1h-1v-1z" fill="rgb(49,49,82)"/>
<path d="M45 54h1v1h1v1h-1v1h-1v1h-1v2h-1v-3h1v-2h1v-1z" fill="rgb(115,98,172)"/>
<path d="M46 54h1v1h-1v-1z" fill="rgb(49,49,82)"/>
<path d="M55 54h2v1h-2v-1z" fill="rgb(0,0,0)"/>
<path d="M62 54h1v1h-1v-1z" fill="rgb(131,131,189)"/>
<path d="M63 54h1v1h-1v-1z" fill="rgb(49,49,82)"/>
<path d="M64 54h2v1h-2v-1z" fill="rgb(0,0,0)"/>
<path d="M28 55h1v1h-1v-1z" fill="rgb(0,0,0)"/>
<path d="M34 55h1v1h-1v-1z" fill="rgb(90,74,115)"/>
<path d="M35 55h4v1h1v2h-5v-1h-2v-1h2v-1z" fill="rgb(238,238,255)"/>
<path d="M43 55h1v2h-1v-2z" fill="rgb(49,49,82)"/>
<path d="M52 55h2v2h-1v-1h-1v-1z" fill="rgb(49,49,82)"/>
<path d="M54 55h1v1h5v1h-4v3h-1v-3h-1v-2z" fill="rgb(0,0,0)"/>
<path d="M59 55h1v1h-1v-1z" fill="rgb(131,131,189)"/>
<path d="M60 55h1v1h-1v-1z" fill="rgb(90,74,115)"/>
<path d="M61 55h3v1h-3v-1z" fill="rgb(0,0,0)"/>
<path d="M29 56h2v1h-2v-1z" fill="rgb(0,0,0)"/>
<path d="M42 56h1v1h-1v-1z" fill="rgb(131,131,189)"/>
<path d="M46 56h2v1h1v1h-2v-1h-1v-1z" fill="rgb(49,49,82)"/>
<path d="M31 57h3v1h5v1h-6v-1h-1v1h-1v-2z" fill="rgb(0,0,0)"/>
<path d="M34 57h1v1h-1v-1z" fill="rgb(131,131,189)"/>
<path d="M40 57h1v1h-1v-1z" fill="rgb(90,74,115)"/>
<path d="M41 57h1v1h-1v-1z" fill="rgb(0,0,0)"/>
<path d="M42 57h1v2h-1v-2z" fill="rgb(49,49,82)"/>
<path d="M45 57h1v1h-1v-1z" fill="rgb(82,123,197)"/>
<path d="M46 57h1v1h2v1h-1v1h1v1h-3v-1h-1v-2h1v-1z" fill="rgb(106,189,205)"/>
<path d="M52 57h1v1h-1v-1z" fill="rgb(49,49,82)"/>
<path d="M53 57h2v3h-1v1h-2v-1h1v-1h-1v-1h1v-1z" fill="rgb(82,123,197)"/>
<path d="M56 57h3v1h1v1h1v2h1v2h-2v-1h-1v-2h-1v-1h-1v-1h-1v-1z" fill="rgb(189,189,230)"/>
<path d="M59 57h2v1h1v2h1v6h-1v2h-1v1h-1v1h-4v-1h3v-1h1v-1h1v-2h1v-4h-1v-2h-1v-1h-1v-1z" fill="rgb(49,49,82)"/>
<path d="M61 57h1v1h-1v-1z" fill="rgb(0,0,0)"/>
<path d="M32 58h1v2h-1v6h1v2h1v1h1v1h1v1h2v1h-3v-1h-2v-1h-1v-2h-1v-2h-1v-5h1v-2h1v-1z" fill="rgb(49,49,82)"/>
<path d="M39 58h1v1h-1v-1z" fill="rgb(90,74,115)"/>
<path d="M40 58h2v3h-2v-3z" fill="rgb(156,156,180)"/>
<path d="M49 58h1v3h-1v-1h-1v-1h1v-1z" fill="rgb(49,49,82)"/>
<path d="M56 58h1v1h-1v-1z" fill="rgb(90,74,115)"/>
<path d="M62 58h1v2h-1v-2z" fill="rgb(0,0,0)"/>
<path d="M30 59h1v2h-1v-2z" fill="rgb(0,0,0)"/>
<path d="M33 59h1v1h-1v-1z" fill="rgb(131,131,189)"/>
<path d="M34 59h3v1h-3v-1z" fill="rgb(189,189,230)"/>
<path d="M37 59h1v1h-1v-1z" fill="rgb(131,131,189)"/>
<path d="M38 59h1v1h-1v-1z" fill="rgb(90,74,115)"/>
<path d="M39 59h1v3h-1v1h-2v-3h2v-1z" fill="rgb(189,189,230)"/>
<path d="M42 59h1v1h-1v-1z" fill="rgb(0,0,0)"/>
<path d="M52 59h1v1h-1v-1z" fill="rgb(49,49,82)"/>
<path d="M56 59h1v1h1v2h1v3h-2v-1h-1v-2h-1v-2h1v-1z" fill="rgb(189,189,230)"/>
<path d="M57 59h1v1h-1v-1z" fill="rgb(90,74,115)"/>
<path d="M32 60h1v1h-1v-1z" fill="rgb(131,131,189)"/>
<path d="M33 60h3v1h-2v1h-1v1h-1v-2h1v-1z" fill="rgb(238,238,255)"/>
<path d="M36 60h1v1h-1v-1z" fill="rgb(90,74,115)"/>
<path d="M42 60h1v1h-1v-1z" fill="rgb(90,74,115)"/>
<path d="M43 60h1v1h-1v-1z" fill="rgb(49,49,82)"/>
<path d="M45 60h1v1h-1v-1z" fill="rgb(49,49,82)"/>
<path d="M54 60h1v2h-1v-2z" fill="rgb(0,0,0)"/>
<path d="M58 60h1v2h-1v-2z" fill="rgb(90,74,115)"/>
<path d="M63 60h1v6h-1v-6z" fill="rgb(0,0,0)"/>
<path d="M29 61h1v5h-1v-5z" fill="rgb(0,0,0)"/>
<path d="M34 61h1v1h-1v-1z" fill="rgb(189,189,230)"/>
<path d="M35 61h1v1h-1v-1z" fill="rgb(90,74,115)"/>
<path d="M36 61h1v1h-1v-1z" fill="rgb(131,131,189)"/>
<path d="M40 61h1v1h-1v-1z" fill="rgb(90,74,115)"/>
<path d="M41 61h1v1h-1v-1z" fill="rgb(0,0,0)"/>
<path d="M42 61h1v1h1v4h-1v-1h-1v-1h-1v-1h1v-2z" fill="rgb(82,123,197)"/>
<path d="M43 61h1v1h-1v-1z" fill="rgb(0,0,0)"/>
<path d="M46 61h3v1h-3v-1z" fill="rgb(49,49,82)"/>
<path d="M52 61h2v1h-2v-1z" fill="rgb(49,49,82)"/>
<path d="M33 62h1v1h-1v-1z" fill="rgb(90,74,115)"/>
<path d="M34 62h1v1h-1v-1z" fill="rgb(131,131,189)"/>
<path d="M35 62h1v1h1v1h-1v1h-1v2h-2v-2h-1v-1h1v-1h2v-1z" fill="rgb(238,238,255)"/>
<path d="M36 62h1v1h-1v-1z" fill="rgb(90,74,115)"/>
<path d="M39 62h1v1h-1v-1z" fill="rgb(90,74,115)"/>
<path d="M40 62h1v1h-1v-1z" fill="rgb(156,156,180)"/>
<path d="M41 62h1v1h-1v-1z" fill="rgb(49,49,82)"/>
<path d="M44 62h1v1h-1v-1z" fill="rgb(0,0,0)"/>
<path d="M53 62h1v1h-1v-1z" fill="rgb(0,0,0)"/>
<path d="M54 62h1v2h-1v-2z" fill="rgb(189,189,230)"/>
<path d="M55 62h1v2h-1v-2z" fill="rgb(90,74,115)"/>
<path d="M59 62h1v1h2v1h-2v1h-1v-3z" fill="rgb(90,74,115)"/>
<path d="M32 63h1v1h-1v-1z" fill="rgb(90,74,115)"/>
<path d="M37 63h2v1h-2v-1z" fill="rgb(90,74,115)"/>
<path d="M39 63h1v1h-1v-1z" fill="rgb(189,189,230)"/>
<path d="M40 63h1v1h-1v-1z" fill="rgb(49,49,82)"/>
<path d="M44 63h1v1h-1v-1z" fill="rgb(49,49,82)"/>
<path d="M45 63h1v1h-1v-1z" fill="rgb(0,0,0)"/>
<path d="M51 63h2v1h-2v-1z" fill="rgb(0,0,0)"/>
<path d="M53 63h1v1h-1v-1z" fill="rgb(90,74,115)"/>
<path d="M36 64h1v1h-1v-1z" fill="rgb(90,74,115)"/>
<path d="M37 64h2v2h-1v-1h-1v-1z" fill="rgb(189,189,230)"/>
<path d="M39 64h1v2h-1v-2z" fill="rgb(49,49,82)"/>
<path d="M40 64h1v1h-1v-1z" fill="rgb(82,123,197)"/>
<path d="M41 64h1v1h1v1h1v1h-1v1h-1v2h-2v-1h-1v-2h1v-2h1v-1z" fill="rgb(106,189,205)"/>
<path d="M44 64h1v3h-1v-3z" fill="rgb(0,0,0)"/>
<path d="M47 64h4v1h-2v2h-1v-2h-1v-1z" fill="rgb(0,0,0)"/>
<path d="M51 64h1v2h-1v-2z" fill="rgb(49,49,82)"/>
<path d="M52 64h2v3h1v2h-1v-1h-1v-2h-1v-2z" fill="rgb(189,189,230)"/>
<path d="M54 64h1v3h-1v-3z" fill="rgb(90,74,115)"/>
<path d="M55 64h1v1h1v2h1v2h-2v-2h-1v-3z" fill="rgb(189,189,230)"/>
<path d="M56 64h1v1h-1v-1z" fill="rgb(90,74,115)"/>
<path d="M60 64h2v1h-1v2h-1v1h-1v-1h-1v-1h1v-1h1v-1z" fill="rgb(189,189,230)"/>
<path d="M32 65h1v1h-1v-1z" fill="rgb(131,131,189)"/>
<path d="M35 65h1v2h-1v-2z" fill="rgb(90,74,115)"/>
<path d="M36 65h2v6h-2v-1h-1v-3h1v-2z" fill="rgb(238,238,255)"/>
<path d="M49 65h2v1h1v2h-3v-3z" fill="rgb(82,123,197)"/>
<path d="M57 65h2v1h-1v1h-1v-2z" fill="rgb(90,74,115)"/>
<path d="M30 66h1v2h-1v-2z" fill="rgb(0,0,0)"/>
<path d="M38 66h1v4h-1v-4z" fill="rgb(49,49,82)"/>
<path d="M39 66h1v1h-1v-1z" fill="rgb(82,123,197)"/>
<path d="M52 66h1v1h-1v-1z" fill="rgb(0,0,0)"/>
<path d="M62 66h1v2h-1v-2z" fill="rgb(0,0,0)"/>
<path d="M33 67h1v1h-1v-1z" fill="rgb(131,131,189)"/>
<path d="M34 67h1v2h-1v-2z" fill="rgb(90,74,115)"/>
<path d="M43 67h1v1h-1v-1z" fill="rgb(49,49,82)"/>
<path d="M48 67h1v1h-1v-1z" fill="rgb(49,49,82)"/>
<path d="M52 67h1v1h-1v-1z" fill="rgb(49,49,82)"/>
<path d="M55 67h1v2h-1v-2z" fill="rgb(90,74,115)"/>
<path d="M58 67h1v2h-1v-2z" fill="rgb(90,74,115)"/>
<path d="M31 68h1v2h-1v-2z" fill="rgb(0,0,0)"/>
<path d="M42 68h1v1h-1v-1z" fill="rgb(82,123,197)"/>
<path d="M43 68h1v1h-1v-1z" fill="rgb(0,0,0)"/>
<path d="M49 68h1v2h-1v-2z" fill="rgb(49,49,82)"/>
<path d="M50 68h2v1h1v1h-1v1h-1v-1h-1v-2z" fill="rgb(106,189,205)"/>
<path d="M52 68h1v1h-1v-1z" fill="rgb(82,123,197)"/>
<path d="M53 68h1v1h2v1h-2v1h-1v-3z" fill="rgb(0,0,0)"/>
<path d="M61 68h1v1h-1v-1z" fill="rgb(0,0,0)"/>
<path d="M39 69h1v1h-1v-1z" fill="rgb(82,123,197)"/>
<path d="M42 69h1v1h-1v-1z" fill="rgb(0,0,0)"/>
<path d="M60 69h1v1h-1v-1z" fill="rgb(0,0,0)"/>
<path d="M32 70h1v1h-1v-1z" fill="rgb(0,0,0)"/>
<path d="M38 70h1v1h-1v-1z" fill="rgb(189,189,230)"/>
<path d="M39 70h3v1h-3v-1z" fill="rgb(0,0,0)"/>
<path d="M50 70h1v1h-1v-1z" fill="rgb(49,49,82)"/>
<path d="M52 70h1v1h-1v-1z" fill="rgb(82,123,197)"/>
<path d="M56 70h4v1h-4v-1z" fill="rgb(0,0,0)"/>
<path d="M33 71h2v1h-2v-1z" fill="rgb(0,0,0)"/>
<path d="M38 71h1v1h-1v-1z" fill="rgb(0,0,0)"/>
<path d="M51 71h1v1h-1v-1z" fill="rgb(49,49,82)"/>
<path d="M52 71h1v1h-1v-1z" fill="rgb(0,0,0)"/>
<path d="M35 72h3v1h-3v-1z" fill="rgb(0,0,0)"/>
</svg>
