<?xml version="1.0" encoding="utf-8"?>
<!-- generated at drububu.com  -->
<!DOCTYPE svg PUBLIC "-//W3C//DTD SVG 1.1//EN" "http://www.w3.org/Graphics/SVG/1.1/DTD/svg11.dtd">
<svg version="1.1" preserveAspectRatio="xMinYMin meet" xmlns="http://www.w3.org/2000/svg" xmlns:xlink="http://www.w3.org/1999/xlink" x="0px" y="0px" width="96px" height="96px" viewBox="0 0 96 96">
<path d="M0 0h96v96h-96v-96z" fill="transparent"/>
<path d="M52 25h2v1h-2v-1z" fill="rgb(98,49,49)"/>
<path d="M51 26h1v1h-1v-1z" fill="rgb(98,49,49)"/>
<path d="M52 26h1v1h-1v-1z" fill="rgb(222,180,98)"/>
<path d="M53 26h1v5h1v4h1v1h-2v1h-4v-3h1v-2h1v-3h1v-3z" fill="rgb(156,106,57)"/>
<path d="M54 26h1v3h-1v-3z" fill="rgb(0,0,0)"/>
<path d="M50 27h1v1h-1v-1z" fill="rgb(123,82,57)"/>
<path d="M51 27h1v2h-1v2h-1v1h-2v-1h1v-1h1v-2h1v-1z" fill="rgb(222,180,98)"/>
<path d="M52 27h1v2h-1v-2z" fill="rgb(123,82,57)"/>
<path d="M49 28h1v1h-1v-1z" fill="rgb(123,82,57)"/>
<path d="M48 29h1v1h-1v-1z" fill="rgb(123,82,57)"/>
<path d="M49 29h1v1h-1v-1z" fill="rgb(156,106,57)"/>
<path d="M51 29h1v3h-1v-3z" fill="rgb(123,82,57)"/>
<path d="M54 29h1v2h-1v-2z" fill="rgb(98,49,49)"/>
<path d="M47 30h1v1h-1v-1z" fill="rgb(123,82,57)"/>
<path d="M48 30h1v1h-1v-1z" fill="rgb(156,106,57)"/>
<path d="M47 31h1v1h-1v-1z" fill="rgb(156,106,57)"/>
<path d="M50 31h1v1h-1v-1z" fill="rgb(213,156,82)"/>
<path d="M55 31h1v3h-1v-3z" fill="rgb(0,0,0)"/>
<path d="M46 32h1v1h-1v-1z" fill="rgb(98,49,49)"/>
<path d="M47 32h1v1h-1v-1z" fill="rgb(222,180,98)"/>
<path d="M48 32h2v2h-1v2h-3v-3h2v-1z" fill="rgb(213,156,82)"/>
<path d="M50 32h1v2h-1v-2z" fill="rgb(123,82,57)"/>
<path d="M32 33h4v1h-4v-1z" fill="rgb(156,106,57)"/>
<path d="M45 33h1v1h-1v-1z" fill="rgb(98,49,49)"/>
<path d="M31 34h1v1h-1v-1z" fill="rgb(123,82,57)"/>
<path d="M32 34h1v2h-1v-2z" fill="rgb(213,156,82)"/>
<path d="M33 34h3v1h3v1h2v2h-1v1h-1v-1h-2v-1h-1v-1h-2v-1h-1v-1z" fill="rgb(222,180,98)"/>
<path d="M36 34h1v1h-1v-1z" fill="rgb(156,106,57)"/>
<path d="M37 34h2v1h-2v-1z" fill="rgb(123,82,57)"/>
<path d="M43 34h1v1h-1v-1z" fill="rgb(131,106,65)"/>
<path d="M44 34h1v1h-1v-1z" fill="rgb(0,0,0)"/>
<path d="M45 34h1v1h-1v-1z" fill="rgb(156,106,57)"/>
<path d="M49 34h1v2h-1v-2z" fill="rgb(123,82,57)"/>
<path d="M55 34h1v1h-1v-1z" fill="rgb(98,49,49)"/>
<path d="M31 35h1v1h-1v-1z" fill="rgb(98,49,49)"/>
<path d="M33 35h1v1h-1v-1z" fill="rgb(156,106,57)"/>
<path d="M39 35h1v1h-1v-1z" fill="rgb(156,106,57)"/>
<path d="M40 35h1v1h-1v-1z" fill="rgb(123,82,57)"/>
<path d="M41 35h1v1h-1v-1z" fill="rgb(98,49,49)"/>
<path d="M42 35h1v4h-1v-4z" fill="rgb(131,106,65)"/>
<path d="M43 35h1v1h-1v-1z" fill="rgb(238,222,49)"/>
<path d="M44 35h1v2h-1v-2z" fill="rgb(255,246,164)"/>
<path d="M45 35h1v1h-1v-1z" fill="rgb(0,0,0)"/>
<path d="M56 35h1v3h1v1h-2v-4z" fill="rgb(0,0,0)"/>
<path d="M32 36h1v1h-1v-1z" fill="rgb(123,82,57)"/>
<path d="M33 36h1v1h2v1h1v1h2v1h-1v1h-1v2h-1v-2h-1v-2h-1v-1h-1v-2z" fill="rgb(213,156,82)"/>
<path d="M34 36h1v1h-1v-1z" fill="rgb(156,106,57)"/>
<path d="M35 36h1v1h-1v-1z" fill="rgb(123,82,57)"/>
<path d="M41 36h1v1h-1v-1z" fill="rgb(156,106,57)"/>
<path d="M43 36h1v2h1v2h-1v-1h-1v-3z" fill="rgb(205,148,41)"/>
<path d="M45 36h1v1h-1v-1z" fill="rgb(205,148,41)"/>
<path d="M46 36h3v1h-3v-1z" fill="rgb(0,0,0)"/>
<path d="M49 36h1v1h-1v-1z" fill="rgb(90,65,49)"/>
<path d="M54 36h2v1h-2v-1z" fill="rgb(90,65,49)"/>
<path d="M32 37h1v1h-1v-1z" fill="rgb(0,0,0)"/>
<path d="M36 37h1v1h-1v-1z" fill="rgb(123,82,57)"/>
<path d="M41 37h1v1h-1v-1z" fill="rgb(90,65,49)"/>
<path d="M44 37h1v1h-1v-1z" fill="rgb(238,222,49)"/>
<path d="M45 37h1v1h1v1h1v1h-3v-3z" fill="rgb(255,246,164)"/>
<path d="M46 37h1v1h-1v-1z" fill="rgb(131,106,65)"/>
<path d="M47 37h3v1h-2v1h-1v-2z" fill="rgb(205,148,41)"/>
<path d="M50 37h1v1h-1v-1z" fill="rgb(90,65,49)"/>
<path d="M51 37h1v1h-1v-1z" fill="rgb(0,0,0)"/>
<path d="M52 37h1v1h-1v-1z" fill="rgb(90,65,49)"/>
<path d="M53 37h1v1h-1v-1z" fill="rgb(131,106,65)"/>
<path d="M54 37h2v1h-1v1h-1v-2z" fill="rgb(238,222,49)"/>
<path d="M33 38h1v1h-1v-1z" fill="rgb(98,49,49)"/>
<path d="M37 38h1v1h-1v-1z" fill="rgb(156,106,57)"/>
<path d="M38 38h1v1h-1v-1z" fill="rgb(123,82,57)"/>
<path d="M40 38h1v1h-1v-1z" fill="rgb(90,65,49)"/>
<path d="M41 38h1v1h1v1h-1v1h-2v-2h1v-1z" fill="rgb(238,222,49)"/>
<path d="M48 38h3v1h-1v1h1v1h1v2h-1v-1h-1v-1h-1v-1h-1v-2z" fill="rgb(238,222,49)"/>
<path d="M51 38h1v1h-1v-1z" fill="rgb(90,65,49)"/>
<path d="M52 38h2v1h-2v-1z" fill="rgb(255,246,164)"/>
<path d="M55 38h1v1h-1v-1z" fill="rgb(205,148,41)"/>
<path d="M58 38h1v1h-1v-1z" fill="rgb(98,49,49)"/>
<path d="M33 39h1v1h-1v-1z" fill="rgb(0,0,0)"/>
<path d="M34 39h1v1h-1v-1z" fill="rgb(156,106,57)"/>
<path d="M39 39h1v1h-1v-1z" fill="rgb(156,106,57)"/>
<path d="M43 39h1v1h-1v-1z" fill="rgb(90,65,49)"/>
<path d="M50 39h2v1h-2v-1z" fill="rgb(255,246,164)"/>
<path d="M52 39h1v1h-1v-1z" fill="rgb(238,222,49)"/>
<path d="M53 39h2v2h-1v1h-1v-1h-2v-1h2v-1z" fill="rgb(205,148,41)"/>
<path d="M55 39h1v1h-1v-1z" fill="rgb(0,0,0)"/>
<path d="M56 39h2v2h1v2h-1v-1h-1v-2h-1v-1z" fill="rgb(156,106,57)"/>
<path d="M58 39h1v1h5v1h4v1h-7v1h-2v-2h-1v-2z" fill="rgb(213,156,82)"/>
<path d="M59 39h1v1h-1v-1z" fill="rgb(156,106,57)"/>
<path d="M60 39h4v1h-4v-1z" fill="rgb(123,82,57)"/>
<path d="M34 40h1v1h-1v-1z" fill="rgb(0,0,0)"/>
<path d="M38 40h1v1h-1v-1z" fill="rgb(131,106,65)"/>
<path d="M39 40h1v1h-1v-1z" fill="rgb(90,65,49)"/>
<path d="M42 40h1v1h-1v-1z" fill="rgb(131,106,65)"/>
<path d="M43 40h2v1h-2v-1z" fill="rgb(255,246,164)"/>
<path d="M45 40h1v1h-1v-1z" fill="rgb(205,148,41)"/>
<path d="M46 40h3v1h-3v-1z" fill="rgb(131,106,65)"/>
<path d="M55 40h1v2h1v3h-2v-1h-1v-1h-1v-1h1v-1h1v-1z" fill="rgb(238,222,49)"/>
<path d="M56 40h1v1h-1v-1z" fill="rgb(0,0,0)"/>
<path d="M64 40h1v1h-1v-1z" fill="rgb(156,106,57)"/>
<path d="M65 40h3v1h-3v-1z" fill="rgb(123,82,57)"/>
<path d="M35 41h1v1h-1v-1z" fill="rgb(98,49,49)"/>
<path d="M37 41h1v1h-1v-1z" fill="rgb(90,65,49)"/>
<path d="M38 41h2v1h-2v-1z" fill="rgb(205,148,41)"/>
<path d="M40 41h2v1h-2v-1z" fill="rgb(131,106,65)"/>
<path d="M42 41h1v2h-1v3h-1v-4h1v-1z" fill="rgb(255,246,164)"/>
<path d="M43 41h1v1h-1v-1z" fill="rgb(238,222,49)"/>
<path d="M44 41h1v1h-1v-1z" fill="rgb(172,32,16)"/>
<path d="M45 41h2v1h-2v-1z" fill="rgb(246,197,189)"/>
<path d="M47 41h2v1h1v1h1v3h-1v2h-2v-1h1v-2h-1v-3h-1v-1z" fill="rgb(172,32,16)"/>
<path d="M49 41h1v1h-1v-1z" fill="rgb(123,82,57)"/>
<path d="M52 41h1v2h-1v-2z" fill="rgb(131,106,65)"/>
<path d="M56 41h1v1h-1v-1z" fill="rgb(90,65,49)"/>
<path d="M68 41h1v1h-1v-1z" fill="rgb(98,49,49)"/>
<path d="M35 42h1v1h-1v-1z" fill="rgb(0,0,0)"/>
<path d="M37 42h1v1h-1v-1z" fill="rgb(0,0,0)"/>
<path d="M38 42h3v1h-1v1h-2v-2z" fill="rgb(238,222,49)"/>
<path d="M43 42h1v3h1v2h1v1h2v1h-3v-1h-1v-1h-1v-2h-1v-1h1v-2z" fill="rgb(172,32,16)"/>
<path d="M44 42h1v2h-1v-2z" fill="rgb(246,197,189)"/>
<path d="M45 42h2v2h-2v-2z" fill="rgb(255,255,255)"/>
<path d="M47 42h1v2h-1v-2z" fill="rgb(246,197,189)"/>
<path d="M50 42h1v1h-1v-1z" fill="rgb(90,65,49)"/>
<path d="M57 42h1v1h-1v-1z" fill="rgb(0,0,0)"/>
<path d="M61 42h1v1h-1v-1z" fill="rgb(156,106,57)"/>
<path d="M62 42h1v1h-1v-1z" fill="rgb(123,82,57)"/>
<path d="M63 42h4v1h-4v-1z" fill="rgb(98,49,49)"/>
<path d="M67 42h1v1h-1v-1z" fill="rgb(123,82,57)"/>
<path d="M68 42h1v1h-1v-1z" fill="rgb(0,0,0)"/>
<path d="M36 43h1v2h-1v-2z" fill="rgb(0,0,0)"/>
<path d="M37 43h1v1h-1v-1z" fill="rgb(90,65,49)"/>
<path d="M40 43h1v3h-1v-3z" fill="rgb(131,106,65)"/>
<path d="M42 43h1v1h-1v-1z" fill="rgb(131,106,65)"/>
<path d="M51 43h1v3h-1v-3z" fill="rgb(131,106,65)"/>
<path d="M52 43h1v2h2v1h1v1h-3v-1h-1v-3z" fill="rgb(238,222,49)"/>
<path d="M53 43h1v1h-1v-1z" fill="rgb(90,65,49)"/>
<path d="M57 43h1v1h-1v-1z" fill="rgb(98,49,49)"/>
<path d="M58 43h1v1h-1v-1z" fill="rgb(123,82,57)"/>
<path d="M59 43h3v1h-3v-1z" fill="rgb(98,49,49)"/>
<path d="M62 43h4v1h-1v1h-2v1h-1v1h-1v1h-1v1h-1v-3h-1v-1h1v-1h3v-1z" fill="rgb(156,106,57)"/>
<path d="M66 43h1v1h-1v-1z" fill="rgb(123,82,57)"/>
<path d="M67 43h1v1h-1v-1z" fill="rgb(0,0,0)"/>
<path d="M37 44h1v1h-1v-1z" fill="rgb(213,156,82)"/>
<path d="M38 44h1v2h-1v-2z" fill="rgb(90,65,49)"/>
<path d="M39 44h1v2h-1v-2z" fill="rgb(205,148,41)"/>
<path d="M44 44h1v1h-1v-1z" fill="rgb(246,65,65)"/>
<path d="M45 44h2v1h-2v-1z" fill="rgb(246,197,189)"/>
<path d="M47 44h1v1h1v2h-1v1h-2v-1h-1v-2h2v-1z" fill="rgb(246,65,65)"/>
<path d="M53 44h2v1h-2v-1z" fill="rgb(131,106,65)"/>
<path d="M57 44h1v1h-1v-1z" fill="rgb(0,0,0)"/>
<path d="M58 44h1v1h-1v-1z" fill="rgb(98,49,49)"/>
<path d="M65 44h1v1h-1v-1z" fill="rgb(98,49,49)"/>
<path d="M66 44h1v1h-1v-1z" fill="rgb(0,0,0)"/>
<path d="M37 45h1v4h-1v-4z" fill="rgb(0,0,0)"/>
<path d="M42 45h1v2h-1v-2z" fill="rgb(90,65,49)"/>
<path d="M55 45h1v1h-1v-1z" fill="rgb(131,106,65)"/>
<path d="M56 45h2v1h-2v-1z" fill="rgb(90,65,49)"/>
<path d="M63 45h1v1h-1v-1z" fill="rgb(123,82,57)"/>
<path d="M64 45h1v1h-1v-1z" fill="rgb(0,0,0)"/>
<path d="M36 46h1v2h-1v-2z" fill="rgb(123,82,57)"/>
<path d="M38 46h1v1h-1v-1z" fill="rgb(205,148,41)"/>
<path d="M39 46h1v1h1v1h-1v1h-1v-1h-1v-1h1v-1z" fill="rgb(238,222,49)"/>
<path d="M40 46h1v1h-1v-1z" fill="rgb(205,148,41)"/>
<path d="M41 46h1v1h-1v-1z" fill="rgb(238,222,49)"/>
<path d="M46 46h1v1h-1v-1z" fill="rgb(246,197,189)"/>
<path d="M50 46h1v1h-1v-1z" fill="rgb(90,65,49)"/>
<path d="M51 46h2v1h-1v1h-1v-2z" fill="rgb(205,148,41)"/>
<path d="M56 46h1v1h1v2h-1v-1h-2v-1h1v-1z" fill="rgb(205,148,41)"/>
<path d="M57 46h1v1h-1v-1z" fill="rgb(131,106,65)"/>
<path d="M58 46h1v1h-1v-1z" fill="rgb(90,65,49)"/>
<path d="M62 46h1v1h-1v-1z" fill="rgb(123,82,57)"/>
<path d="M63 46h1v1h-1v-1z" fill="rgb(0,0,0)"/>
<path d="M41 47h1v1h-1v-1z" fill="rgb(205,148,41)"/>
<path d="M42 47h1v2h-1v1h-1v-2h1v-1z" fill="rgb(238,222,49)"/>
<path d="M43 47h1v1h-1v-1z" fill="rgb(90,65,49)"/>
<path d="M50 47h1v1h-1v-1z" fill="rgb(131,106,65)"/>
<path d="M52 47h3v1h1v1h-2v-1h-2v-1z" fill="rgb(131,106,65)"/>
<path d="M58 47h1v2h-1v-2z" fill="rgb(0,0,0)"/>
<path d="M61 47h1v1h-1v-1z" fill="rgb(98,49,49)"/>
<path d="M62 47h1v1h-1v-1z" fill="rgb(0,0,0)"/>
<path d="M35 48h1v2h-1v-2z" fill="rgb(123,82,57)"/>
<path d="M36 48h1v1h1v2h-1v2h-2v-3h1v-2z" fill="rgb(222,180,98)"/>
<path d="M38 48h1v1h-1v-1z" fill="rgb(205,148,41)"/>
<path d="M40 48h1v1h-1v-1z" fill="rgb(131,106,65)"/>
<path d="M43 48h1v1h1v1h-2v1h-1v1h-1v-2h1v-1h1v-1z" fill="rgb(205,148,41)"/>
<path d="M44 48h1v1h-1v-1z" fill="rgb(90,65,49)"/>
<path d="M48 48h1v1h-1v-1z" fill="rgb(90,65,49)"/>
<path d="M49 48h1v1h-1v-1z" fill="rgb(131,106,65)"/>
<path d="M50 48h1v1h-1v-1z" fill="rgb(205,148,41)"/>
<path d="M51 48h1v1h-1v-1z" fill="rgb(131,106,65)"/>
<path d="M52 48h2v1h2v1h2v1h1v1h-1v1h-1v-1h-1v-1h-1v-1h-1v1h-1v1h-1v-1h-1v-2h1v-1z" fill="rgb(205,148,41)"/>
<path d="M56 48h1v1h-1v-1z" fill="rgb(0,0,0)"/>
<path d="M60 48h1v1h-1v-1z" fill="rgb(0,0,0)"/>
<path d="M38 49h1v1h-1v-1z" fill="rgb(0,0,0)"/>
<path d="M39 49h1v1h-1v-1z" fill="rgb(131,106,65)"/>
<path d="M40 49h1v1h-1v-1z" fill="rgb(255,246,164)"/>
<path d="M45 49h3v1h-3v-1z" fill="rgb(131,106,65)"/>
<path d="M48 49h2v2h-1v1h-1v-1h-3v-1h3v-1z" fill="rgb(205,148,41)"/>
<path d="M50 49h1v1h-1v-1z" fill="rgb(0,0,0)"/>
<path d="M56 49h1v1h-1v-1z" fill="rgb(131,106,65)"/>
<path d="M57 49h1v1h-1v-1z" fill="rgb(0,0,0)"/>
<path d="M58 49h1v1h-1v-1z" fill="rgb(123,82,57)"/>
<path d="M59 49h1v3h-1v-3z" fill="rgb(0,0,0)"/>
<path d="M34 50h1v1h-1v-1z" fill="rgb(123,82,57)"/>
<path d="M38 50h1v1h-1v-1z" fill="rgb(90,65,49)"/>
<path d="M39 50h1v1h-1v-1z" fill="rgb(255,246,164)"/>
<path d="M40 50h1v2h-1v1h-1v-1h-1v-1h2v-1z" fill="rgb(238,222,49)"/>
<path d="M43 50h2v1h-1v2h-1v1h-1v-1h-1v-1h1v-1h1v-1z" fill="rgb(131,106,65)"/>
<path d="M50 50h1v1h-1v-1z" fill="rgb(90,65,49)"/>
<path d="M54 50h1v1h-1v-1z" fill="rgb(131,106,65)"/>
<path d="M58 50h1v1h-1v-1z" fill="rgb(90,65,49)"/>
<path d="M33 51h1v1h-1v-1z" fill="rgb(123,82,57)"/>
<path d="M34 51h1v2h1v1h-1v1h-1v1h-1v1h-1v1h-1v-2h1v-2h1v-1h1v-2z" fill="rgb(213,156,82)"/>
<path d="M37 51h1v1h-1v-1z" fill="rgb(90,65,49)"/>
<path d="M44 51h1v1h2v1h1v1h-2v4h-2v-1h-1v-4h1v-2z" fill="rgb(205,148,41)"/>
<path d="M45 51h1v1h-1v-1z" fill="rgb(131,106,65)"/>
<path d="M46 51h2v1h-2v-1z" fill="rgb(90,65,49)"/>
<path d="M49 51h1v1h1v2h-1v-1h-1v-2z" fill="rgb(238,222,49)"/>
<path d="M50 51h1v1h-1v-1z" fill="rgb(205,148,41)"/>
<path d="M51 51h1v1h-1v-1z" fill="rgb(0,0,0)"/>
<path d="M53 51h1v1h-1v-1z" fill="rgb(0,0,0)"/>
<path d="M54 51h1v1h-1v-1z" fill="rgb(90,65,49)"/>
<path d="M55 51h1v1h-1v-1z" fill="rgb(131,106,65)"/>
<path d="M33 52h1v1h-1v-1z" fill="rgb(156,106,57)"/>
<path d="M37 52h1v1h-1v-1z" fill="rgb(0,0,0)"/>
<path d="M38 52h1v1h-1v-1z" fill="rgb(205,148,41)"/>
<path d="M40 52h1v1h-1v-1z" fill="rgb(205,148,41)"/>
<path d="M47 52h1v1h-1v-1z" fill="rgb(131,106,65)"/>
<path d="M48 52h1v1h-1v-1z" fill="rgb(90,65,49)"/>
<path d="M51 52h2v1h-2v-1z" fill="rgb(90,65,49)"/>
<path d="M53 52h1v1h-1v-1z" fill="rgb(156,106,57)"/>
<path d="M54 52h1v1h-1v-1z" fill="rgb(123,82,57)"/>
<path d="M55 52h1v1h-1v-1z" fill="rgb(0,0,0)"/>
<path d="M56 52h1v1h-1v-1z" fill="rgb(90,65,49)"/>
<path d="M58 52h1v1h-1v-1z" fill="rgb(90,65,49)"/>
<path d="M32 53h1v1h-1v-1z" fill="rgb(123,82,57)"/>
<path d="M36 53h2v1h-2v-1z" fill="rgb(123,82,57)"/>
<path d="M38 53h1v1h-1v-1z" fill="rgb(0,0,0)"/>
<path d="M39 53h1v1h-1v-1z" fill="rgb(205,148,41)"/>
<path d="M40 53h2v1h-2v-1z" fill="rgb(0,0,0)"/>
<path d="M48 53h1v1h-1v-1z" fill="rgb(131,106,65)"/>
<path d="M49 53h1v1h-1v-1z" fill="rgb(205,148,41)"/>
<path d="M51 53h1v2h-2v-1h1v-1z" fill="rgb(205,148,41)"/>
<path d="M52 53h1v3h-1v-3z" fill="rgb(0,0,0)"/>
<path d="M53 53h1v1h-1v-1z" fill="rgb(131,106,65)"/>
<path d="M54 53h1v1h1v14h-2v-1h1v-2h-1v-1h1v-2h-2v-1h1v-3h-1v-4h1v-1z" fill="rgb(156,106,57)"/>
<path d="M55 53h1v1h-1v-1z" fill="rgb(123,82,57)"/>
<path d="M56 53h1v1h-1v-1z" fill="rgb(0,0,0)"/>
<path d="M57 53h1v1h-1v-1z" fill="rgb(131,106,65)"/>
<path d="M58 53h1v1h-1v-1z" fill="rgb(0,0,0)"/>
<path d="M31 54h1v1h-1v-1z" fill="rgb(123,82,57)"/>
<path d="M35 54h1v1h-1v-1z" fill="rgb(123,82,57)"/>
<path d="M36 54h3v1h1v1h1v1h-3v1h-4v1h-3v-1h2v-1h1v-1h1v-1h1v-1z" fill="rgb(156,106,57)"/>
<path d="M39 54h1v1h-1v-1z" fill="rgb(0,0,0)"/>
<path d="M40 54h1v1h-1v-1z" fill="rgb(98,49,49)"/>
<path d="M41 54h1v3h-1v-1h-1v-1h1v-1z" fill="rgb(123,82,57)"/>
<path d="M42 54h1v4h1v1h-2v-1h-4v-1h4v-3z" fill="rgb(0,0,0)"/>
<path d="M46 54h1v1h-1v-1z" fill="rgb(131,106,65)"/>
<path d="M47 54h1v1h-1v-1z" fill="rgb(98,49,49)"/>
<path d="M48 54h1v1h-1v-1z" fill="rgb(0,0,0)"/>
<path d="M49 54h1v1h-1v-1z" fill="rgb(131,106,65)"/>
<path d="M56 54h1v4h-1v-4z" fill="rgb(123,82,57)"/>
<path d="M57 54h1v4h-1v-4z" fill="rgb(0,0,0)"/>
<path d="M31 55h1v1h-1v-1z" fill="rgb(156,106,57)"/>
<path d="M34 55h1v1h-1v-1z" fill="rgb(123,82,57)"/>
<path d="M46 55h1v1h-1v-1z" fill="rgb(98,49,49)"/>
<path d="M47 55h1v1h-1v-1z" fill="rgb(123,82,57)"/>
<path d="M48 55h1v1h1v2h-1v1h-1v1h-1v-4h1v-1z" fill="rgb(156,106,57)"/>
<path d="M49 55h1v1h-1v-1z" fill="rgb(0,0,0)"/>
<path d="M50 55h2v1h-2v-1z" fill="rgb(131,106,65)"/>
<path d="M30 56h1v1h-1v-1z" fill="rgb(123,82,57)"/>
<path d="M33 56h1v1h-1v-1z" fill="rgb(123,82,57)"/>
<path d="M46 56h1v4h-3v-1h2v-3z" fill="rgb(0,0,0)"/>
<path d="M50 56h2v1h-2v-1z" fill="rgb(0,0,0)"/>
<path d="M52 56h1v2h-1v-2z" fill="rgb(123,82,57)"/>
<path d="M29 57h1v2h-1v-2z" fill="rgb(98,49,49)"/>
<path d="M30 57h1v1h-1v-1z" fill="rgb(156,106,57)"/>
<path d="M32 57h1v1h-1v-1z" fill="rgb(123,82,57)"/>
<path d="M43 57h1v1h-1v-1z" fill="rgb(131,106,65)"/>
<path d="M50 57h2v1h1v4h1v3h1v2h-1v-1h-1v-1h-1v-1h-1v-1h-1v-1h-1v-1h-1v-2h1v-1h1v-1z" fill="rgb(213,156,82)"/>
<path d="M30 58h1v1h-1v-1z" fill="rgb(213,156,82)"/>
<path d="M34 58h4v1h-4v-1z" fill="rgb(0,0,0)"/>
<path d="M44 58h2v1h-2v-1z" fill="rgb(131,106,65)"/>
<path d="M53 58h1v3h-1v-3z" fill="rgb(123,82,57)"/>
<path d="M56 58h1v1h-1v-1z" fill="rgb(98,49,49)"/>
<path d="M30 59h4v1h-4v-1z" fill="rgb(0,0,0)"/>
<path d="M56 59h1v9h-1v-9z" fill="rgb(0,0,0)"/>
<path d="M47 60h1v1h-1v-1z" fill="rgb(0,0,0)"/>
<path d="M48 61h1v1h-1v-1z" fill="rgb(0,0,0)"/>
<path d="M49 62h1v1h-1v-1z" fill="rgb(98,49,49)"/>
<path d="M54 62h1v2h-1v-2z" fill="rgb(123,82,57)"/>
<path d="M50 63h1v1h-1v-1z" fill="rgb(98,49,49)"/>
<path d="M50 64h1v1h-1v-1z" fill="rgb(0,0,0)"/>
<path d="M51 64h1v1h-1v-1z" fill="rgb(123,82,57)"/>
<path d="M51 65h1v1h-1v-1z" fill="rgb(0,0,0)"/>
<path d="M52 65h1v1h-1v-1z" fill="rgb(156,106,57)"/>
<path d="M52 66h1v1h-1v-1z" fill="rgb(0,0,0)"/>
<path d="M53 66h1v1h-1v-1z" fill="rgb(156,106,57)"/>
<path d="M53 67h1v1h-1v-1z" fill="rgb(0,0,0)"/>
<path d="M54 68h2v1h-2v-1z" fill="rgb(0,0,0)"/>
</svg>
