<?xml version="1.0" encoding="utf-8"?>
<!-- generated at drububu.com  -->
<!DOCTYPE svg PUBLIC "-//W3C//DTD SVG 1.1//EN" "http://www.w3.org/Graphics/SVG/1.1/DTD/svg11.dtd">
<svg version="1.1" preserveAspectRatio="xMinYMin meet" xmlns="http://www.w3.org/2000/svg" xmlns:xlink="http://www.w3.org/1999/xlink" x="0px" y="0px" width="96px" height="96px" viewBox="0 0 96 96">
<path d="M0 0h96v96h-96v-96z" fill="transparent"/>
<path d="M45 22h2v1h-2v-1z" fill="rgb(90,82,156)"/>
<path d="M47 22h1v1h-1v-1z" fill="rgb(49,57,115)"/>
<path d="M44 23h1v1h-1v-1z" fill="rgb(90,82,156)"/>
<path d="M45 23h2v1h-1v4h-1v2h-1v-1h-1v1h-1v-2h1v-2h1v-2h1v-1z" fill="rgb(213,172,238)"/>
<path d="M47 23h1v2h1v2h1v2h1v3h1v3h1v3h-1v1h-1v-1h-1v-1h-2v-1h-1v-4h-1v-4h1v-5z" fill="rgb(139,115,189)"/>
<path d="M48 23h1v1h-1v-1z" fill="rgb(49,57,115)"/>
<path d="M43 24h1v2h-1v-2z" fill="rgb(90,82,156)"/>
<path d="M46 24h1v4h-1v-4z" fill="rgb(90,82,156)"/>
<path d="M48 24h1v1h-1v-1z" fill="rgb(0,0,0)"/>
<path d="M61 24h2v1h-2v-1z" fill="rgb(49,57,115)"/>
<path d="M63 24h1v1h-1v-1z" fill="rgb(90,82,156)"/>
<path d="M30 25h2v1h-2v-1z" fill="rgb(49,57,115)"/>
<path d="M49 25h1v2h-1v-2z" fill="rgb(0,0,0)"/>
<path d="M59 25h2v1h-2v-1z" fill="rgb(49,57,115)"/>
<path d="M61 25h3v1h-2v1h-1v1h-1v1h-1v1h-1v1h-1v1h-1v1h-1v-1h-1v-3h1v-1h2v-1h2v-1h2v-1z" fill="rgb(139,115,189)"/>
<path d="M64 25h1v3h-1v-3z" fill="rgb(0,0,0)"/>
<path d="M29 26h1v2h-1v-2z" fill="rgb(49,57,115)"/>
<path d="M30 26h2v3h1v2h1v2h1v1h1v1h-1v1h-1v1h-1v1h-3v-1h2v-3h-1v-4h-1v-4z" fill="rgb(90,82,156)"/>
<path d="M32 26h2v1h-2v-1z" fill="rgb(49,57,115)"/>
<path d="M42 26h1v2h-1v-2z" fill="rgb(90,82,156)"/>
<path d="M57 26h2v1h-2v-1z" fill="rgb(49,57,115)"/>
<path d="M62 26h2v2h-1v3h-1v3h-1v2h-4v-1h-4v-3h-1v-2h1v-1h1v3h1v1h1v-1h1v-1h1v-1h2v-1h1
	v-1h1v-2z" fill="rgb(90,82,156)"/>
<path d="M32 27h2v1h2v1h2v1h2v2h-1v2h-1v2h-1v-2h-1v-2h-1v-1h-1v-1h-1v-2h-1v-1z" fill="rgb(139,115,189)"/>
<path d="M34 27h2v1h-2v-1z" fill="rgb(49,57,115)"/>
<path d="M50 27h1v2h-1v-2z" fill="rgb(0,0,0)"/>
<path d="M55 27h2v1h-2v-1z" fill="rgb(49,57,115)"/>
<path d="M61 27h1v1h-1v-1z" fill="rgb(49,57,115)"/>
<path d="M29 28h1v2h-1v-2z" fill="rgb(0,0,0)"/>
<path d="M32 28h1v1h-1v-1z" fill="rgb(49,57,115)"/>
<path d="M36 28h2v1h-2v-1z" fill="rgb(49,57,115)"/>
<path d="M41 28h1v2h-1v-2z" fill="rgb(90,82,156)"/>
<path d="M45 28h1v3h-1v-3z" fill="rgb(90,82,156)"/>
<path d="M53 28h2v1h-2v-1z" fill="rgb(49,57,115)"/>
<path d="M60 28h1v1h-1v-1z" fill="rgb(49,57,115)"/>
<path d="M63 28h1v3h-1v-3z" fill="rgb(0,0,0)"/>
<path d="M38 29h2v1h-2v-1z" fill="rgb(49,57,115)"/>
<path d="M43 29h1v1h-1v-1z" fill="rgb(180,139,213)"/>
<path d="M51 29h1v3h-1v-3z" fill="rgb(0,0,0)"/>
<path d="M52 29h1v1h-1v-1z" fill="rgb(49,57,115)"/>
<path d="M59 29h1v1h-1v-1z" fill="rgb(49,57,115)"/>
<path d="M30 30h1v1h-1v-1z" fill="rgb(49,57,115)"/>
<path d="M33 30h1v1h-1v-1z" fill="rgb(49,57,115)"/>
<path d="M40 30h1v2h-1v-2z" fill="rgb(49,57,115)"/>
<path d="M41 30h1v1h-1v-1z" fill="rgb(213,172,238)"/>
<path d="M42 30h1v1h-1v-1z" fill="rgb(180,139,213)"/>
<path d="M43 30h1v1h-1v-1z" fill="rgb(213,172,238)"/>
<path d="M44 30h1v1h-1v-1z" fill="rgb(180,139,213)"/>
<path d="M30 31h1v3h-1v-3z" fill="rgb(0,0,0)"/>
<path d="M34 31h1v2h-1v-2z" fill="rgb(49,57,115)"/>
<path d="M41 31h1v1h-1v-1z" fill="rgb(180,139,213)"/>
<path d="M42 31h1v1h-1v-1z" fill="rgb(213,172,238)"/>
<path d="M43 31h1v1h-1v-1z" fill="rgb(180,139,213)"/>
<path d="M44 31h2v1h-2v-1z" fill="rgb(90,65,49)"/>
<path d="M62 31h1v3h-1v-3z" fill="rgb(0,0,0)"/>
<path d="M35 32h1v1h-1v-1z" fill="rgb(90,82,156)"/>
<path d="M39 32h1v2h-1v-2z" fill="rgb(49,57,115)"/>
<path d="M40 32h1v1h-1v-1z" fill="rgb(180,139,213)"/>
<path d="M41 32h1v1h-1v-1z" fill="rgb(213,172,238)"/>
<path d="M42 32h1v1h-1v-1z" fill="rgb(180,139,213)"/>
<path d="M43 32h1v2h-1v-2z" fill="rgb(90,65,49)"/>
<path d="M44 32h2v4h1v2h3v1h-5v-6h-1v-1z" fill="rgb(197,148,32)"/>
<path d="M46 32h1v4h-1v-4z" fill="rgb(0,0,0)"/>
<path d="M52 32h1v3h-1v-3z" fill="rgb(0,0,0)"/>
<path d="M35 33h1v1h-1v-1z" fill="rgb(49,57,115)"/>
<path d="M40 33h1v1h-1v-1z" fill="rgb(213,172,238)"/>
<path d="M41 33h1v1h-1v-1z" fill="rgb(180,139,213)"/>
<path d="M42 33h1v1h-1v-1z" fill="rgb(213,172,238)"/>
<path d="M44 33h1v1h-1v-1z" fill="rgb(238,197,74)"/>
<path d="M31 34h1v1h-1v-1z" fill="rgb(49,57,115)"/>
<path d="M36 34h1v2h-1v-2z" fill="rgb(49,57,115)"/>
<path d="M38 34h1v2h-1v-2z" fill="rgb(49,57,115)"/>
<path d="M39 34h2v1h1v2h-2v1h-2v-2h1v-2z" fill="rgb(180,139,213)"/>
<path d="M41 34h1v1h-1v-1z" fill="rgb(213,172,238)"/>
<path d="M42 34h1v5h-1v-1h-2v-1h2v-3z" fill="rgb(90,65,49)"/>
<path d="M43 34h1v1h-1v-1z" fill="rgb(238,197,74)"/>
<path d="M44 34h1v4h-1v1h-1v-4h1v-1z" fill="rgb(255,230,148)"/>
<path d="M61 34h1v2h-1v-2z" fill="rgb(0,0,0)"/>
<path d="M31 35h1v2h-1v-2z" fill="rgb(0,0,0)"/>
<path d="M35 35h1v1h-1v-1z" fill="rgb(90,65,49)"/>
<path d="M53 35h1v2h-1v-2z" fill="rgb(0,0,0)"/>
<path d="M54 35h1v1h-1v-1z" fill="rgb(49,57,115)"/>
<path d="M55 35h1v1h-1v-1z" fill="rgb(90,65,49)"/>
<path d="M56 35h1v1h-1v-1z" fill="rgb(49,57,115)"/>
<path d="M62 35h7v1h-7v-1z" fill="rgb(49,57,115)"/>
<path d="M69 35h2v1h-2v-1z" fill="rgb(90,82,156)"/>
<path d="M24 36h5v1h-5v-1z" fill="rgb(90,82,156)"/>
<path d="M34 36h1v1h-1v-1z" fill="rgb(90,65,49)"/>
<path d="M35 36h1v1h1v1h1v2h-1v-1h-1v-1h-1v-2z" fill="rgb(197,148,32)"/>
<path d="M36 36h1v1h-1v-1z" fill="rgb(0,0,0)"/>
<path d="M37 36h1v1h-1v-1z" fill="rgb(49,57,115)"/>
<path d="M47 36h1v1h1v1h-2v-2z" fill="rgb(0,0,0)"/>
<path d="M54 36h1v1h-1v-1z" fill="rgb(90,65,49)"/>
<path d="M55 36h1v1h-1v-1z" fill="rgb(197,148,32)"/>
<path d="M56 36h1v1h-1v-1z" fill="rgb(90,65,49)"/>
<path d="M57 36h4v1h-4v-1z" fill="rgb(49,57,115)"/>
<path d="M61 36h1v1h-1v-1z" fill="rgb(90,82,156)"/>
<path d="M62 36h9v1h-2v1h-2v1h-2v1h-5v-1h-1v-2h3v-1z" fill="rgb(180,139,213)"/>
<path d="M71 36h1v2h-1v-2z" fill="rgb(49,57,115)"/>
<path d="M23 37h1v1h-1v-1z" fill="rgb(90,82,156)"/>
<path d="M24 37h5v1h4v2h-1v1h-2v-1h-1v-1h-3v-1h-2v-1z" fill="rgb(213,172,238)"/>
<path d="M29 37h1v1h-1v-1z" fill="rgb(139,115,189)"/>
<path d="M33 37h1v3h-1v-3z" fill="rgb(90,65,49)"/>
<path d="M34 37h1v3h-1v-3z" fill="rgb(238,197,74)"/>
<path d="M37 37h1v1h-1v-1z" fill="rgb(0,0,0)"/>
<path d="M49 37h1v1h-1v-1z" fill="rgb(49,57,115)"/>
<path d="M53 37h1v1h-1v-1z" fill="rgb(90,65,49)"/>
<path d="M54 37h1v2h-1v1h-1v-2h1v-1z" fill="rgb(255,230,148)"/>
<path d="M55 37h1v2h-1v-2z" fill="rgb(238,197,74)"/>
<path d="M56 37h1v2h-1v-2z" fill="rgb(197,148,32)"/>
<path d="M57 37h1v2h-1v-2z" fill="rgb(0,0,0)"/>
<path d="M58 37h1v2h1v1h3v1h-2v1h-2v1h-2v1h-2v-1h1v-2h1v-2h1v-2z" fill="rgb(139,115,189)"/>
<path d="M69 37h1v1h-1v-1z" fill="rgb(90,82,156)"/>
<path d="M70 37h1v1h-1v-1z" fill="rgb(139,115,189)"/>
<path d="M23 38h1v1h-1v-1z" fill="rgb(49,57,115)"/>
<path d="M24 38h2v1h-2v-1z" fill="rgb(180,139,213)"/>
<path d="M35 38h1v1h1v2h-1v-1h-1v-2z" fill="rgb(255,230,148)"/>
<path d="M38 38h1v1h-1v-1z" fill="rgb(0,0,0)"/>
<path d="M39 38h1v1h-1v-1z" fill="rgb(90,65,49)"/>
<path d="M40 38h2v1h-2v-1z" fill="rgb(238,197,74)"/>
<path d="M44 38h1v1h-1v-1z" fill="rgb(238,197,74)"/>
<path d="M50 38h1v1h-1v-1z" fill="rgb(0,0,0)"/>
<path d="M52 38h1v1h-1v-1z" fill="rgb(90,65,49)"/>
<path d="M67 38h2v1h-2v-1z" fill="rgb(90,82,156)"/>
<path d="M69 38h1v1h-1v-1z" fill="rgb(139,115,189)"/>
<path d="M70 38h1v1h-1v-1z" fill="rgb(49,57,115)"/>
<path d="M24 39h1v1h-1v-1z" fill="rgb(49,57,115)"/>
<path d="M25 39h1v1h-1v-1z" fill="rgb(139,115,189)"/>
<path d="M26 39h2v1h-2v-1z" fill="rgb(90,82,156)"/>
<path d="M28 39h1v1h-1v-1z" fill="rgb(180,139,213)"/>
<path d="M38 39h1v1h-1v-1z" fill="rgb(148,115,65)"/>
<path d="M39 39h1v1h-1v-1z" fill="rgb(238,197,74)"/>
<path d="M40 39h5v1h-5v-1z" fill="rgb(197,148,32)"/>
<path d="M45 39h3v1h-3v-1z" fill="rgb(148,115,65)"/>
<path d="M48 39h2v1h2v-1h1v1h1v1h-1v1h-1v1h-1v-1h-1v-1h-1v-1h-1v-1z" fill="rgb(238,197,74)"/>
<path d="M50 39h1v1h-1v-1z" fill="rgb(197,148,32)"/>
<path d="M51 39h1v1h-1v-1z" fill="rgb(148,115,65)"/>
<path d="M54 39h1v1h-1v-1z" fill="rgb(238,197,74)"/>
<path d="M55 39h1v2h-1v1h-1v1h-2v-1h1v-1h1v-1h1v-1z" fill="rgb(197,148,32)"/>
<path d="M56 39h1v2h-1v-2z" fill="rgb(0,0,0)"/>
<path d="M65 39h2v1h-2v-1z" fill="rgb(90,82,156)"/>
<path d="M67 39h2v1h-1v1h-1v1h-1v1h-1v1h-1v1h-1v1h-1v1h-1v1h-1v-1h-2v-1h-2v-1h1v-1h2v-1
	h2v-1h2v-1h2v-1h2v-1z" fill="rgb(139,115,189)"/>
<path d="M69 39h1v1h-1v-1z" fill="rgb(49,57,115)"/>
<path d="M24 40h1v1h-1v-1z" fill="rgb(0,0,0)"/>
<path d="M25 40h1v1h-1v-1z" fill="rgb(90,82,156)"/>
<path d="M26 40h2v1h2v1h2v1h2v3h-1v1h-2v-1h-1v-1h-1v-1h-1v-1h-1v-1h-1v-2z" fill="rgb(139,115,189)"/>
<path d="M28 40h2v1h-2v-1z" fill="rgb(90,82,156)"/>
<path d="M32 40h1v1h-1v-1z" fill="rgb(180,139,213)"/>
<path d="M33 40h1v1h-1v-1z" fill="rgb(213,172,238)"/>
<path d="M34 40h1v2h-1v-2z" fill="rgb(90,65,49)"/>
<path d="M35 40h1v1h-1v-1z" fill="rgb(238,197,74)"/>
<path d="M37 40h1v3h-1v-1h-1v-1h1v-1z" fill="rgb(238,197,74)"/>
<path d="M38 40h2v1h-1v1h-1v-2z" fill="rgb(197,148,32)"/>
<path d="M40 40h6v1h-6v-1z" fill="rgb(255,230,148)"/>
<path d="M46 40h2v1h-2v-1z" fill="rgb(238,197,74)"/>
<path d="M48 40h1v1h-1v-1z" fill="rgb(148,115,65)"/>
<path d="M63 40h2v1h-2v-1z" fill="rgb(90,82,156)"/>
<path d="M68 40h1v1h-1v-1z" fill="rgb(49,57,115)"/>
<path d="M25 41h1v1h-1v-1z" fill="rgb(0,0,0)"/>
<path d="M30 41h1v1h-1v-1z" fill="rgb(90,82,156)"/>
<path d="M31 41h1v1h-1v-1z" fill="rgb(49,57,115)"/>
<path d="M32 41h1v1h-1v-1z" fill="rgb(213,172,238)"/>
<path d="M33 41h1v1h-1v-1z" fill="rgb(180,139,213)"/>
<path d="M35 41h1v1h-1v-1z" fill="rgb(197,148,32)"/>
<path d="M39 41h1v1h-1v-1z" fill="rgb(255,230,148)"/>
<path d="M40 41h1v1h-1v-1z" fill="rgb(197,148,32)"/>
<path d="M41 41h1v1h-1v-1z" fill="rgb(148,115,65)"/>
<path d="M42 41h4v1h-4v-1z" fill="rgb(90,65,49)"/>
<path d="M46 41h1v1h-1v-1z" fill="rgb(148,115,65)"/>
<path d="M47 41h1v1h-1v-1z" fill="rgb(197,148,32)"/>
<path d="M48 41h1v1h-1v-1z" fill="rgb(238,197,74)"/>
<path d="M49 41h1v1h-1v-1z" fill="rgb(148,115,65)"/>
<path d="M55 41h1v2h-1v-2z" fill="rgb(0,0,0)"/>
<path d="M61 41h1v1h-1v-1z" fill="rgb(49,57,115)"/>
<path d="M62 41h1v1h-1v-1z" fill="rgb(90,82,156)"/>
<path d="M67 41h1v1h-1v-1z" fill="rgb(49,57,115)"/>
<path d="M26 42h1v1h-1v-1z" fill="rgb(0,0,0)"/>
<path d="M32 42h2v1h-2v-1z" fill="rgb(49,57,115)"/>
<path d="M34 42h1v1h-1v-1z" fill="rgb(180,139,213)"/>
<path d="M35 42h1v2h-1v-2z" fill="rgb(90,65,49)"/>
<path d="M36 42h1v2h-1v-2z" fill="rgb(197,148,32)"/>
<path d="M38 42h1v1h-1v-1z" fill="rgb(255,230,148)"/>
<path d="M39 42h1v1h-1v-1z" fill="rgb(197,148,32)"/>
<path d="M40 42h1v1h-1v-1z" fill="rgb(90,65,49)"/>
<path d="M41 42h6v1h-6v-1z" fill="rgb(246,82,115)"/>
<path d="M47 42h1v1h-1v-1z" fill="rgb(90,65,49)"/>
<path d="M48 42h1v1h-1v-1z" fill="rgb(197,148,32)"/>
<path d="M49 42h1v1h-1v-1z" fill="rgb(238,197,74)"/>
<path d="M50 42h1v1h-1v-1z" fill="rgb(148,115,65)"/>
<path d="M54 42h1v1h-1v-1z" fill="rgb(148,115,65)"/>
<path d="M59 42h2v1h-2v-1z" fill="rgb(49,57,115)"/>
<path d="M66 42h1v1h-1v-1z" fill="rgb(49,57,115)"/>
<path d="M27 43h1v1h-1v-1z" fill="rgb(0,0,0)"/>
<path d="M34 43h1v1h-1v-1z" fill="rgb(49,57,115)"/>
<path d="M37 43h1v2h-1v-2z" fill="rgb(255,230,148)"/>
<path d="M38 43h1v1h-1v-1z" fill="rgb(197,148,32)"/>
<path d="M39 43h1v1h-1v-1z" fill="rgb(90,65,49)"/>
<path d="M40 43h1v1h-1v-1z" fill="rgb(238,180,205)"/>
<path d="M41 43h4v1h-4v-1z" fill="rgb(205,32,90)"/>
<path d="M45 43h1v1h-1v-1z" fill="rgb(238,180,205)"/>
<path d="M46 43h1v1h-1v-1z" fill="rgb(205,32,90)"/>
<path d="M47 43h1v1h1v1h-3v-1h1v-1z" fill="rgb(246,82,115)"/>
<path d="M48 43h1v1h-1v-1z" fill="rgb(90,65,49)"/>
<path d="M49 43h1v1h-1v-1z" fill="rgb(197,148,32)"/>
<path d="M50 43h1v1h-1v-1z" fill="rgb(238,197,74)"/>
<path d="M51 43h1v2h-1v-2z" fill="rgb(148,115,65)"/>
<path d="M52 43h2v2h1v2h2v1h3v2h-5v-1h-2v-4h-1v-2z" fill="rgb(238,197,74)"/>
<path d="M54 43h1v1h-1v-1z" fill="rgb(90,65,49)"/>
<path d="M57 43h2v1h-2v-1z" fill="rgb(49,57,115)"/>
<path d="M65 43h1v1h-1v-1z" fill="rgb(0,0,0)"/>
<path d="M28 44h1v1h-1v-1z" fill="rgb(0,0,0)"/>
<path d="M34 44h1v2h-1v-2z" fill="rgb(90,65,49)"/>
<path d="M35 44h1v2h-1v-2z" fill="rgb(197,148,32)"/>
<path d="M36 44h1v1h-1v-1z" fill="rgb(148,115,65)"/>
<path d="M38 44h1v1h-1v-1z" fill="rgb(90,65,49)"/>
<path d="M39 44h1v1h-1v-1z" fill="rgb(238,180,205)"/>
<path d="M40 44h1v1h-1v-1z" fill="rgb(205,32,90)"/>
<path d="M41 44h1v1h-1v-1z" fill="rgb(246,82,115)"/>
<path d="M42 44h3v1h-1v1h-2v1h-1v1h-1v-2h1v-1h1v-1z" fill="rgb(238,180,205)"/>
<path d="M45 44h1v1h-1v-1z" fill="rgb(139,16,82)"/>
<path d="M49 44h1v1h-1v-1z" fill="rgb(90,65,49)"/>
<path d="M50 44h1v1h-1v-1z" fill="rgb(197,148,32)"/>
<path d="M54 44h1v1h-1v-1z" fill="rgb(197,148,32)"/>
<path d="M55 44h1v2h-1v-2z" fill="rgb(0,0,0)"/>
<path d="M56 44h1v1h-1v-1z" fill="rgb(49,57,115)"/>
<path d="M64 44h1v1h-1v-1z" fill="rgb(0,0,0)"/>
<path d="M29 45h1v1h-1v-1z" fill="rgb(0,0,0)"/>
<path d="M36 45h1v4h-1v-4z" fill="rgb(255,230,148)"/>
<path d="M37 45h1v1h-1v-1z" fill="rgb(148,115,65)"/>
<path d="M38 45h1v1h-1v-1z" fill="rgb(238,180,205)"/>
<path d="M39 45h1v1h-1v-1z" fill="rgb(205,32,90)"/>
<path d="M40 45h1v1h-1v-1z" fill="rgb(246,82,115)"/>
<path d="M44 45h2v1h-1v1h-1v1h-1v1h-1v1h-1v-1h-1v-1h2v-1h1v-1h1v-1z" fill="rgb(205,32,90)"/>
<path d="M46 45h2v1h-1v3h1v1h1v1h1v1h-1v1h-1v1h-1v-1h-1v-1h-1v-1h-1v-1h1v-1h1v-4z" fill="rgb(139,16,82)"/>
<path d="M48 45h1v1h-1v-1z" fill="rgb(205,32,90)"/>
<path d="M49 45h1v1h-1v-1z" fill="rgb(139,16,82)"/>
<path d="M50 45h1v1h-1v-1z" fill="rgb(148,115,65)"/>
<path d="M51 45h1v1h-1v-1z" fill="rgb(238,197,74)"/>
<path d="M52 45h1v3h-1v-3z" fill="rgb(148,115,65)"/>
<path d="M63 45h1v1h-1v-1z" fill="rgb(0,0,0)"/>
<path d="M30 46h1v1h-1v-1z" fill="rgb(0,0,0)"/>
<path d="M33 46h1v1h-1v-1z" fill="rgb(90,65,49)"/>
<path d="M34 46h1v1h-1v-1z" fill="rgb(197,148,32)"/>
<path d="M35 46h1v4h-1v-4z" fill="rgb(148,115,65)"/>
<path d="M37 46h1v5h-1v-5z" fill="rgb(90,65,49)"/>
<path d="M38 46h1v1h-1v-1z" fill="rgb(205,32,90)"/>
<path d="M39 46h1v3h-1v-3z" fill="rgb(139,16,82)"/>
<path d="M42 46h1v1h-1v-1z" fill="rgb(246,82,115)"/>
<path d="M45 46h1v2h-1v1h-1v1h-2v-1h1v-1h1v-1h1v-1z" fill="rgb(246,82,115)"/>
<path d="M47 46h3v5h-1v-3h-1v-1h-1v-1z" fill="rgb(246,82,115)"/>
<path d="M50 46h1v2h-1v-2z" fill="rgb(90,65,49)"/>
<path d="M51 46h1v6h-1v-6z" fill="rgb(197,148,32)"/>
<path d="M55 46h1v1h-1v-1z" fill="rgb(148,115,65)"/>
<path d="M56 46h2v1h-2v-1z" fill="rgb(90,65,49)"/>
<path d="M62 46h1v1h-1v-1z" fill="rgb(0,0,0)"/>
<path d="M30 47h1v2h-1v-2z" fill="rgb(49,57,115)"/>
<path d="M31 47h1v1h-1v-1z" fill="rgb(90,65,49)"/>
<path d="M32 47h1v1h-1v-1z" fill="rgb(148,115,65)"/>
<path d="M33 47h2v1h-1v1h-2v-1h1v-1z" fill="rgb(255,230,148)"/>
<path d="M38 47h1v4h-1v-4z" fill="rgb(238,180,205)"/>
<path d="M41 47h1v1h-1v-1z" fill="rgb(246,82,115)"/>
<path d="M47 47h1v1h1v2h-1v-1h-1v-2z" fill="rgb(205,32,90)"/>
<path d="M57 47h1v1h-1v-1z" fill="rgb(197,148,32)"/>
<path d="M58 47h2v1h-2v-1z" fill="rgb(90,65,49)"/>
<path d="M61 47h1v1h-1v-1z" fill="rgb(0,0,0)"/>
<path d="M62 47h1v2h1v2h1v1h1v1h1v1h-1v1h-1v1h-1v-1h-1v-1h-1v-1h-1v-1h-1v-1h1v-3h1v-1z" fill="rgb(90,82,156)"/>
<path d="M63 47h1v1h-1v-1z" fill="rgb(0,0,0)"/>
<path d="M31 48h1v1h-1v-1z" fill="rgb(197,148,32)"/>
<path d="M34 48h1v1h-1v-1z" fill="rgb(238,197,74)"/>
<path d="M45 48h1v1h-1v-1z" fill="rgb(238,180,205)"/>
<path d="M50 48h1v4h-1v-4z" fill="rgb(0,0,0)"/>
<path d="M52 48h1v5h-1v-5z" fill="rgb(90,65,49)"/>
<path d="M60 48h1v3h-1v-3z" fill="rgb(0,0,0)"/>
<path d="M63 48h1v1h-1v-1z" fill="rgb(49,57,115)"/>
<path d="M29 49h1v1h-1v-1z" fill="rgb(49,57,115)"/>
<path d="M30 49h1v2h-1v-2z" fill="rgb(90,65,49)"/>
<path d="M31 49h1v1h-1v-1z" fill="rgb(255,230,148)"/>
<path d="M32 49h2v1h-2v-1z" fill="rgb(238,197,74)"/>
<path d="M34 49h1v1h-1v-1z" fill="rgb(197,148,32)"/>
<path d="M36 49h1v2h-1v-2z" fill="rgb(238,197,74)"/>
<path d="M39 49h1v1h-1v-1z" fill="rgb(246,82,115)"/>
<path d="M40 49h1v1h-1v-1z" fill="rgb(139,16,82)"/>
<path d="M44 49h1v1h-1v-1z" fill="rgb(238,180,205)"/>
<path d="M53 49h2v1h5v1h-7v-2z" fill="rgb(197,148,32)"/>
<path d="M64 49h1v1h-1v-1z" fill="rgb(0,0,0)"/>
<path d="M28 50h1v2h-1v-2z" fill="rgb(49,57,115)"/>
<path d="M29 50h1v1h-1v-1z" fill="rgb(90,82,156)"/>
<path d="M31 50h1v1h-1v-1z" fill="rgb(238,197,74)"/>
<path d="M32 50h2v1h-2v-1z" fill="rgb(197,148,32)"/>
<path d="M34 50h1v2h-1v-2z" fill="rgb(148,115,65)"/>
<path d="M35 50h1v1h1v2h-1v-1h-1v-2z" fill="rgb(90,65,49)"/>
<path d="M39 50h1v3h-1v-3z" fill="rgb(205,32,90)"/>
<path d="M40 50h1v1h-1v-1z" fill="rgb(246,82,115)"/>
<path d="M41 50h1v2h-1v1h-1v-2h1v-1z" fill="rgb(139,16,82)"/>
<path d="M42 50h2v1h-2v-1z" fill="rgb(0,0,0)"/>
<path d="M64 50h1v1h-1v-1z" fill="rgb(49,57,115)"/>
<path d="M65 50h1v1h-1v-1z" fill="rgb(0,0,0)"/>
<path d="M29 51h2v1h2v1h-2v1h-1v1h-2v1h-1v1h-1v-2h1v-1h1v-2h1v-1z" fill="rgb(139,115,189)"/>
<path d="M31 51h3v1h-3v-1z" fill="rgb(0,0,0)"/>
<path d="M37 51h1v2h-1v-2z" fill="rgb(238,197,74)"/>
<path d="M38 51h1v2h-1v-2z" fill="rgb(90,65,49)"/>
<path d="M42 51h3v1h1v1h1v1h-7v-1h1v-1h1v-1z" fill="rgb(205,32,90)"/>
<path d="M53 51h3v1h-1v1h-1v2h-1v-1h-1v-1h1v-2z" fill="rgb(148,115,65)"/>
<path d="M56 51h4v4h-1v-3h-3v-1z" fill="rgb(0,0,0)"/>
<path d="M65 51h1v1h-1v-1z" fill="rgb(49,57,115)"/>
<path d="M27 52h1v1h-1v-1z" fill="rgb(49,57,115)"/>
<path d="M33 52h1v1h-1v-1z" fill="rgb(49,57,115)"/>
<path d="M34 52h1v2h-1v-2z" fill="rgb(0,0,0)"/>
<path d="M35 52h1v1h1v1h1v1h-2v-1h-1v-2z" fill="rgb(148,115,65)"/>
<path d="M49 52h1v1h-1v-1z" fill="rgb(0,0,0)"/>
<path d="M50 52h1v1h-1v-1z" fill="rgb(197,148,32)"/>
<path d="M51 52h1v1h-1v-1z" fill="rgb(148,115,65)"/>
<path d="M55 52h1v1h-1v-1z" fill="rgb(0,0,0)"/>
<path d="M56 52h3v3h1v4h1v4h1v4h1v5h-2v-1h-1v-1h-2v-1h-2v-1h-1v-1h-2v-1h-2v-1h-2v-1h-1
	v-4h2v-1h2v1h1v1h1v2h1v1h1v1h1v1h1v1h1v1h1v1h1v-4h-1v-3h-1v-3h-2v-1h-1v-2h-1v-3
	h1v-1z" fill="rgb(90,82,156)"/>
<path d="M60 52h1v1h-1v-1z" fill="rgb(49,57,115)"/>
<path d="M66 52h1v1h-1v-1z" fill="rgb(0,0,0)"/>
<path d="M26 53h1v2h-1v-2z" fill="rgb(49,57,115)"/>
<path d="M27 53h1v1h-1v-1z" fill="rgb(90,82,156)"/>
<path d="M31 53h3v1h-1v1h-2v1h-2v1h-2v-1h1v-1h2v-1h1v-1z" fill="rgb(180,139,213)"/>
<path d="M37 53h1v1h-1v-1z" fill="rgb(90,65,49)"/>
<path d="M38 53h1v1h-1v-1z" fill="rgb(197,148,32)"/>
<path d="M39 53h1v1h-1v-1z" fill="rgb(90,65,49)"/>
<path d="M48 53h1v1h-1v-1z" fill="rgb(0,0,0)"/>
<path d="M49 53h1v1h-1v-1z" fill="rgb(197,148,32)"/>
<path d="M50 53h1v1h-1v-1z" fill="rgb(148,115,65)"/>
<path d="M51 53h1v1h-1v-1z" fill="rgb(90,65,49)"/>
<path d="M54 53h1v3h-1v-3z" fill="rgb(0,0,0)"/>
<path d="M60 53h1v1h1v1h1v1h1v1h1v1h2v1h1v1h1v1h1v1h-5v-1h-3v-2h-1v-4h-1v-2z" fill="rgb(90,82,156)"/>
<path d="M61 53h1v1h-1v-1z" fill="rgb(49,57,115)"/>
<path d="M67 53h1v1h-1v-1z" fill="rgb(0,0,0)"/>
<path d="M33 54h1v2h-1v5h-1v-5h-1v-1h2v-1z" fill="rgb(49,57,115)"/>
<path d="M34 54h1v2h-1v-2z" fill="rgb(180,139,213)"/>
<path d="M35 54h1v1h-1v-1z" fill="rgb(0,0,0)"/>
<path d="M38 54h1v1h-1v-1z" fill="rgb(90,65,49)"/>
<path d="M39 54h1v1h-1v-1z" fill="rgb(197,148,32)"/>
<path d="M40 54h1v1h-1v-1z" fill="rgb(90,65,49)"/>
<path d="M41 54h7v1h-7v-1z" fill="rgb(0,0,0)"/>
<path d="M48 54h1v1h-1v-1z" fill="rgb(197,148,32)"/>
<path d="M49 54h1v1h-1v-1z" fill="rgb(148,115,65)"/>
<path d="M50 54h1v1h-1v-1z" fill="rgb(90,65,49)"/>
<path d="M51 54h1v1h-1v-1z" fill="rgb(148,115,65)"/>
<path d="M52 54h1v1h1v2h1v1h1v2h-2v-1h-1v-1h-1v-1h-1v-2h1v-1z" fill="rgb(197,148,32)"/>
<path d="M62 54h1v1h-1v-1z" fill="rgb(49,57,115)"/>
<path d="M66 54h1v1h1v2h1v1h1v2h1v2h-1v-1h-1v-1h-1v-1h-1v-1h-1v-1h-1v-2h1v-1z" fill="rgb(139,115,189)"/>
<path d="M67 54h1v1h-1v-1z" fill="rgb(49,57,115)"/>
<path d="M25 55h1v1h-1v-1z" fill="rgb(49,57,115)"/>
<path d="M35 55h1v1h-1v-1z" fill="rgb(90,65,49)"/>
<path d="M36 55h2v3h-1v-2h-1v-1z" fill="rgb(238,197,74)"/>
<path d="M38 55h1v1h-1v-1z" fill="rgb(148,115,65)"/>
<path d="M39 55h1v1h-1v-1z" fill="rgb(90,65,49)"/>
<path d="M40 55h8v1h-8v-1z" fill="rgb(197,148,32)"/>
<path d="M48 55h1v1h-1v-1z" fill="rgb(148,115,65)"/>
<path d="M49 55h1v1h-1v-1z" fill="rgb(90,65,49)"/>
<path d="M50 55h1v2h1v1h-2v1h-2v1h-1v3h-1v-5h-3v2h-1v-1h-2v-1h-1v-2h1v1h9v-1h1v-1z" fill="rgb(148,115,65)"/>
<path d="M60 55h1v4h-1v-4z" fill="rgb(0,0,0)"/>
<path d="M63 55h1v1h-1v-1z" fill="rgb(49,57,115)"/>
<path d="M68 55h1v1h-1v-1z" fill="rgb(0,0,0)"/>
<path d="M24 56h1v1h-1v-1z" fill="rgb(49,57,115)"/>
<path d="M25 56h1v1h-1v-1z" fill="rgb(90,82,156)"/>
<path d="M29 56h2v1h-2v-1z" fill="rgb(49,57,115)"/>
<path d="M31 56h1v3h-3v1h-5v-1h3v-1h2v-1h2v-1z" fill="rgb(90,82,156)"/>
<path d="M33 56h1v2h-1v-2z" fill="rgb(180,139,213)"/>
<path d="M34 56h1v2h-1v-2z" fill="rgb(90,65,49)"/>
<path d="M35 56h1v1h-1v-1z" fill="rgb(238,197,74)"/>
<path d="M36 56h1v2h-1v1h-1v-2h1v-1z" fill="rgb(255,230,148)"/>
<path d="M38 56h1v2h-1v-2z" fill="rgb(197,148,32)"/>
<path d="M40 56h9v1h-9v-1z" fill="rgb(90,65,49)"/>
<path d="M54 56h1v1h-1v-1z" fill="rgb(148,115,65)"/>
<path d="M55 56h1v2h-1v-2z" fill="rgb(0,0,0)"/>
<path d="M64 56h1v1h-1v-1z" fill="rgb(49,57,115)"/>
<path d="M68 56h1v1h-1v-1z" fill="rgb(90,82,156)"/>
<path d="M69 56h1v1h-1v-1z" fill="rgb(0,0,0)"/>
<path d="M24 57h1v1h-1v-1z" fill="rgb(90,82,156)"/>
<path d="M25 57h2v1h-2v-1z" fill="rgb(180,139,213)"/>
<path d="M27 57h2v1h-2v-1z" fill="rgb(49,57,115)"/>
<path d="M65 57h1v1h-1v-1z" fill="rgb(49,57,115)"/>
<path d="M69 57h1v1h-1v-1z" fill="rgb(49,57,115)"/>
<path d="M23 58h1v1h-1v-1z" fill="rgb(49,57,115)"/>
<path d="M24 58h1v1h-1v-1z" fill="rgb(180,139,213)"/>
<path d="M25 58h2v1h-2v-1z" fill="rgb(49,57,115)"/>
<path d="M33 58h1v1h-1v-1z" fill="rgb(90,65,49)"/>
<path d="M34 58h1v1h2v1h-1v1h-1v-1h-1v-2z" fill="rgb(197,148,32)"/>
<path d="M36 58h1v1h-1v-1z" fill="rgb(238,197,74)"/>
<path d="M37 58h1v1h-1v-1z" fill="rgb(197,148,32)"/>
<path d="M38 58h2v1h-2v-1z" fill="rgb(0,0,0)"/>
<path d="M43 58h2v3h1v3h-2v-3h-1v-3z" fill="rgb(238,197,74)"/>
<path d="M45 58h1v3h-1v-3z" fill="rgb(197,148,32)"/>
<path d="M50 58h2v1h-2v-1z" fill="rgb(0,0,0)"/>
<path d="M52 58h1v1h-1v-1z" fill="rgb(148,115,65)"/>
<path d="M56 58h1v1h-1v-1z" fill="rgb(0,0,0)"/>
<path d="M70 58h1v1h-1v-1z" fill="rgb(0,0,0)"/>
<path d="M23 59h1v1h-1v-1z" fill="rgb(0,0,0)"/>
<path d="M29 59h3v1h-3v-1z" fill="rgb(0,0,0)"/>
<path d="M33 59h1v1h-1v-1z" fill="rgb(0,0,0)"/>
<path d="M37 59h1v1h-1v-1z" fill="rgb(0,0,0)"/>
<path d="M38 59h2v1h-1v1h-1v1h-1v1h-1v-2h1v-1h1v-1z" fill="rgb(90,82,156)"/>
<path d="M40 59h2v1h-2v-1z" fill="rgb(0,0,0)"/>
<path d="M48 59h2v1h-2v-1z" fill="rgb(0,0,0)"/>
<path d="M52 59h1v1h-1v-1z" fill="rgb(0,0,0)"/>
<path d="M53 59h1v1h-1v-1z" fill="rgb(148,115,65)"/>
<path d="M56 59h1v2h-3v-1h2v-1z" fill="rgb(148,115,65)"/>
<path d="M57 59h1v2h-1v-2z" fill="rgb(0,0,0)"/>
<path d="M58 59h1v3h1v3h1v3h-1v-1h-1v-1h-1v-1h-1v-1h-1v-1h-1v-1h2v-1h1v-2z" fill="rgb(139,115,189)"/>
<path d="M61 59h1v2h2v1h-2v1h-1v-4z" fill="rgb(0,0,0)"/>
<path d="M70 59h1v1h-1v-1z" fill="rgb(49,57,115)"/>
<path d="M24 60h5v1h-5v-1z" fill="rgb(0,0,0)"/>
<path d="M33 60h1v1h1v1h1v1h-1v1h-1v2h-1v1h-1v1h-1v1h-1v-2h1v-3h1v-3h1v-1z" fill="rgb(180,139,213)"/>
<path d="M34 60h1v1h-1v-1z" fill="rgb(0,0,0)"/>
<path d="M36 60h1v1h-1v-1z" fill="rgb(0,0,0)"/>
<path d="M39 60h1v1h-1v-1z" fill="rgb(49,57,115)"/>
<path d="M40 60h2v2h1v2h-1v1h-2v1h-1v1h-2v1h-1v1h-2v1h-2v1h-2v-1h1v-1h1v-1h1v-1h1v-1h1
	v-1h1v-1h1v-1h1v-1h1v-1h1v-1z" fill="rgb(90,82,156)"/>
<path d="M42 60h1v2h-1v-2z" fill="rgb(90,65,49)"/>
<path d="M47 60h1v1h-1v-1z" fill="rgb(90,65,49)"/>
<path d="M53 60h1v1h-1v-1z" fill="rgb(0,0,0)"/>
<path d="M71 60h1v2h-1v-2z" fill="rgb(0,0,0)"/>
<path d="M31 61h1v3h-1v-3z" fill="rgb(49,57,115)"/>
<path d="M35 61h1v1h-1v-1z" fill="rgb(0,0,0)"/>
<path d="M38 61h1v1h-1v-1z" fill="rgb(49,57,115)"/>
<path d="M43 61h1v1h-1v-1z" fill="rgb(197,148,32)"/>
<path d="M47 61h1v3h1v1h-2v-4z" fill="rgb(0,0,0)"/>
<path d="M54 61h3v1h-3v-1z" fill="rgb(0,0,0)"/>
<path d="M64 61h1v1h-1v-1z" fill="rgb(49,57,115)"/>
<path d="M37 62h1v1h-1v-1z" fill="rgb(49,57,115)"/>
<path d="M43 62h1v2h-1v-2z" fill="rgb(90,65,49)"/>
<path d="M54 62h1v1h-1v-1z" fill="rgb(49,57,115)"/>
<path d="M65 62h6v1h-6v-1z" fill="rgb(0,0,0)"/>
<path d="M35 63h1v1h-1v-1z" fill="rgb(139,115,189)"/>
<path d="M36 63h1v1h-1v-1z" fill="rgb(49,57,115)"/>
<path d="M46 63h1v2h-2v-1h1v-1z" fill="rgb(197,148,32)"/>
<path d="M55 63h1v1h-1v-1z" fill="rgb(49,57,115)"/>
<path d="M62 63h1v4h-1v-4z" fill="rgb(0,0,0)"/>
<path d="M30 64h1v2h-1v-2z" fill="rgb(49,57,115)"/>
<path d="M34 64h1v1h-1v-1z" fill="rgb(139,115,189)"/>
<path d="M35 64h1v1h-1v-1z" fill="rgb(49,57,115)"/>
<path d="M42 64h1v1h-1v-1z" fill="rgb(49,57,115)"/>
<path d="M43 64h1v1h-1v-1z" fill="rgb(0,0,0)"/>
<path d="M44 64h1v1h-1v-1z" fill="rgb(90,65,49)"/>
<path d="M56 64h1v1h-1v-1z" fill="rgb(49,57,115)"/>
<path d="M34 65h1v1h-1v-1z" fill="rgb(49,57,115)"/>
<path d="M40 65h1v1h-1v-1z" fill="rgb(49,57,115)"/>
<path d="M41 65h2v1h-2v-1z" fill="rgb(0,0,0)"/>
<path d="M43 65h2v2h1v4h-1v-1h-1v-2h-1v-3z" fill="rgb(139,115,189)"/>
<path d="M45 65h2v1h-2v-1z" fill="rgb(0,0,0)"/>
<path d="M47 65h2v3h-1v2h-1v1h-1v-4h-1v-1h2v-1z" fill="rgb(90,82,156)"/>
<path d="M49 65h2v1h-1v2h-1v-3z" fill="rgb(0,0,0)"/>
<path d="M57 65h1v1h-1v-1z" fill="rgb(49,57,115)"/>
<path d="M30 66h1v1h-1v-1z" fill="rgb(90,82,156)"/>
<path d="M33 66h1v1h-1v-1z" fill="rgb(49,57,115)"/>
<path d="M39 66h2v1h-2v-1z" fill="rgb(0,0,0)"/>
<path d="M42 66h1v2h-1v-2z" fill="rgb(49,57,115)"/>
<path d="M51 66h2v1h-2v-1z" fill="rgb(0,0,0)"/>
<path d="M58 66h1v1h-1v-1z" fill="rgb(49,57,115)"/>
<path d="M29 67h1v2h-1v-2z" fill="rgb(49,57,115)"/>
<path d="M32 67h1v1h-1v-1z" fill="rgb(49,57,115)"/>
<path d="M37 67h1v1h-1v-1z" fill="rgb(49,57,115)"/>
<path d="M38 67h1v1h-1v-1z" fill="rgb(0,0,0)"/>
<path d="M53 67h1v1h-1v-1z" fill="rgb(0,0,0)"/>
<path d="M54 67h1v1h-1v-1z" fill="rgb(49,57,115)"/>
<path d="M59 67h1v1h-1v-1z" fill="rgb(49,57,115)"/>
<path d="M63 67h1v5h-1v-5z" fill="rgb(0,0,0)"/>
<path d="M31 68h1v1h-1v-1z" fill="rgb(49,57,115)"/>
<path d="M36 68h2v1h-2v-1z" fill="rgb(0,0,0)"/>
<path d="M43 68h1v2h-1v-2z" fill="rgb(49,57,115)"/>
<path d="M48 68h1v2h-1v-2z" fill="rgb(0,0,0)"/>
<path d="M54 68h2v1h-2v-1z" fill="rgb(0,0,0)"/>
<path d="M60 68h1v1h-1v-1z" fill="rgb(49,57,115)"/>
<path d="M29 69h1v1h-1v-1z" fill="rgb(90,82,156)"/>
<path d="M30 69h1v1h-1v-1z" fill="rgb(49,57,115)"/>
<path d="M34 69h2v1h-2v-1z" fill="rgb(0,0,0)"/>
<path d="M56 69h2v1h-2v-1z" fill="rgb(0,0,0)"/>
<path d="M61 69h1v1h-1v-1z" fill="rgb(49,57,115)"/>
<path d="M29 70h1v1h-1v-1z" fill="rgb(0,0,0)"/>
<path d="M32 70h2v1h-2v-1z" fill="rgb(0,0,0)"/>
<path d="M44 70h1v1h-1v-1z" fill="rgb(49,57,115)"/>
<path d="M47 70h1v1h-1v-1z" fill="rgb(0,0,0)"/>
<path d="M58 70h1v1h-1v-1z" fill="rgb(0,0,0)"/>
<path d="M59 70h1v1h-1v-1z" fill="rgb(49,57,115)"/>
<path d="M30 71h2v1h-2v-1z" fill="rgb(0,0,0)"/>
<path d="M45 71h2v1h-2v-1z" fill="rgb(0,0,0)"/>
<path d="M59 71h2v1h-2v-1z" fill="rgb(0,0,0)"/>
<path d="M61 72h2v1h-2v-1z" fill="rgb(0,0,0)"/>
</svg>
