<?xml version="1.0" encoding="utf-8"?>
<!-- generated at drububu.com  -->
<!DOCTYPE svg PUBLIC "-//W3C//DTD SVG 1.1//EN" "http://www.w3.org/Graphics/SVG/1.1/DTD/svg11.dtd">
<svg version="1.1" preserveAspectRatio="xMinYMin meet" xmlns="http://www.w3.org/2000/svg" xmlns:xlink="http://www.w3.org/1999/xlink" x="0px" y="0px" width="96px" height="96px" viewBox="0 0 96 96">
<path d="M0 0h96v96h-96v-96z" fill="transparent"/>
<path d="M37 21h2v1h-2v-1z" fill="rgb(16,49,74)"/>
<path d="M39 21h2v1h-2v-1z" fill="rgb(16,74,115)"/>
<path d="M35 22h2v1h-2v-1z" fill="rgb(16,49,74)"/>
<path d="M37 22h4v2h1v2h-1v-1h-1v-1h-1v-1h-2v-1z" fill="rgb(98,139,189)"/>
<path d="M41 22h1v1h-1v-1z" fill="rgb(16,74,115)"/>
<path d="M34 23h1v1h-1v-1z" fill="rgb(16,49,74)"/>
<path d="M35 23h4v1h1v1h1v1h1v1h1v-1h1v2h-1v1h-1v1h-1v1h-1v-1h-1v-4h-1v1h-1v-2h-1v-1h-1
	v-1z" fill="rgb(16,74,115)"/>
<path d="M41 23h1v1h-1v-1z" fill="rgb(16,49,74)"/>
<path d="M33 24h1v1h1v1h-2v-2z" fill="rgb(16,49,74)"/>
<path d="M34 24h1v1h-1v-1z" fill="rgb(16,74,115)"/>
<path d="M35 24h1v1h-1v-1z" fill="rgb(16,49,74)"/>
<path d="M42 24h1v1h-1v-1z" fill="rgb(16,49,74)"/>
<path d="M59 24h4v1h-4v-1z" fill="rgb(16,49,74)"/>
<path d="M36 25h1v1h-1v-1z" fill="rgb(16,49,74)"/>
<path d="M42 25h1v1h-1v-1z" fill="rgb(16,74,115)"/>
<path d="M43 25h1v1h-1v-1z" fill="rgb(16,16,16)"/>
<path d="M58 25h1v1h-1v-1z" fill="rgb(16,49,74)"/>
<path d="M59 25h4v1h1v1h1v1h2v1h-4v-1h-1v-1h-2v1h-2v1h-4v-1h2v-1h2v-1h1v-1z" fill="rgb(98,139,189)"/>
<path d="M63 25h1v1h-1v-1z" fill="rgb(16,49,74)"/>
<path d="M36 26h1v1h-1v-1z" fill="rgb(16,16,16)"/>
<path d="M38 26h1v3h-1v-1h-1v-1h1v-1z" fill="rgb(16,16,16)"/>
<path d="M42 26h1v1h-1v-1z" fill="rgb(98,139,189)"/>
<path d="M44 26h1v1h-1v-1z" fill="rgb(16,16,16)"/>
<path d="M46 26h7v1h-7v-1z" fill="rgb(106,57,49)"/>
<path d="M56 26h2v1h-2v-1z" fill="rgb(16,49,74)"/>
<path d="M64 26h1v1h-1v-1z" fill="rgb(16,49,74)"/>
<path d="M44 27h2v1h-2v-1z" fill="rgb(106,57,49)"/>
<path d="M46 27h2v1h1v2h-1v1h-3v-1h-1v-2h2v-1z" fill="rgb(255,238,238)"/>
<path d="M48 27h5v2h-1v3h1v4h-1v1h-1v-5h-2v1h-1v5h-1v1h-4v-1h-1v1h1v1h3v1h-4v-1h-1v-5h-1
	v-2h1v-2h1v-1h1v-1h1v1h1v1h3v-1h1v-2h-1v-1z" fill="rgb(255,205,205)"/>
<path d="M53 27h3v1h-3v-1z" fill="rgb(16,49,74)"/>
<path d="M60 27h2v1h1v1h4v1h-4v2h-1v-1h-2v2h-1v-1h-2v1h1v1h-1v1h-2v-1h-1v-2h-1v-4h1v1h4
	v-1h2v-1z" fill="rgb(16,74,115)"/>
<path d="M65 27h2v1h-2v-1z" fill="rgb(16,16,16)"/>
<path d="M43 28h1v1h-1v-1z" fill="rgb(106,57,49)"/>
<path d="M67 28h1v3h-3v-1h2v-2z" fill="rgb(16,16,16)"/>
<path d="M38 29h1v1h-1v-1z" fill="rgb(16,49,74)"/>
<path d="M42 29h1v1h-1v-1z" fill="rgb(106,57,49)"/>
<path d="M52 29h1v1h-1v-1z" fill="rgb(16,49,74)"/>
<path d="M39 30h1v1h-1v-1z" fill="rgb(16,16,16)"/>
<path d="M41 30h1v1h-1v-1z" fill="rgb(106,57,49)"/>
<path d="M52 30h1v2h-1v-2z" fill="rgb(16,16,16)"/>
<path d="M63 30h1v3h-1v-3z" fill="rgb(16,16,16)"/>
<path d="M64 30h1v1h-1v-1z" fill="rgb(16,49,74)"/>
<path d="M40 31h1v1h-1v-1z" fill="rgb(106,57,49)"/>
<path d="M43 31h1v1h-1v-1z" fill="rgb(106,57,49)"/>
<path d="M44 31h1v1h-1v-1z" fill="rgb(222,164,164)"/>
<path d="M60 31h2v1h-1v2h-3v-1h-1v-1h2v1h1v-2z" fill="rgb(16,16,16)"/>
<path d="M40 32h1v1h-1v-1z" fill="rgb(16,16,16)"/>
<path d="M42 32h2v3h-1v-2h-1v-1z" fill="rgb(255,255,255)"/>
<path d="M44 32h1v3h-1v-3z" fill="rgb(106,57,49)"/>
<path d="M49 32h1v1h-1v-1z" fill="rgb(106,57,49)"/>
<path d="M50 32h1v1h-1v-1z" fill="rgb(222,164,164)"/>
<path d="M53 32h1v1h-1v-1z" fill="rgb(16,49,74)"/>
<path d="M62 32h1v1h-1v-1z" fill="rgb(16,49,74)"/>
<path d="M39 33h1v1h-1v-1z" fill="rgb(106,57,49)"/>
<path d="M42 33h1v2h-1v-2z" fill="rgb(16,16,16)"/>
<path d="M48 33h2v3h-1v-2h-1v-1z" fill="rgb(255,255,255)"/>
<path d="M50 33h1v3h-1v-3z" fill="rgb(106,57,49)"/>
<path d="M53 33h1v1h-1v-1z" fill="rgb(16,16,16)"/>
<path d="M39 34h1v2h-1v-2z" fill="rgb(16,16,16)"/>
<path d="M48 34h1v2h-1v-2z" fill="rgb(16,16,16)"/>
<path d="M53 34h1v1h1v1h2v-1h1v3h-1v2h-2v1h-1v1h-10v-1h2v-1h2v1h1v-1h2v1h2v-1h1v-2h-1v-1
	h-1v-1h1v-2z" fill="rgb(222,164,164)"/>
<path d="M54 34h1v1h-1v-1z" fill="rgb(16,49,74)"/>
<path d="M57 34h1v1h-1v-1z" fill="rgb(16,16,16)"/>
<path d="M63 34h1v1h-1v-1z" fill="rgb(16,16,16)"/>
<path d="M64 34h2v1h-2v-1z" fill="rgb(16,74,115)"/>
<path d="M67 34h1v1h-1v-1z" fill="rgb(16,74,115)"/>
<path d="M68 34h2v1h-2v-1z" fill="rgb(98,139,189)"/>
<path d="M40 35h1v1h-1v-1z" fill="rgb(222,164,164)"/>
<path d="M42 35h1v1h-1v-1z" fill="rgb(255,255,255)"/>
<path d="M43 35h1v1h-1v-1z" fill="rgb(106,57,49)"/>
<path d="M44 35h1v1h-1v-1z" fill="rgb(222,164,164)"/>
<path d="M55 35h2v1h-2v-1z" fill="rgb(16,49,74)"/>
<path d="M58 35h1v3h-1v-3z" fill="rgb(16,16,16)"/>
<path d="M62 35h1v2h-1v-2z" fill="rgb(16,16,16)"/>
<path d="M63 35h1v1h-1v-1z" fill="rgb(205,205,213)"/>
<path d="M64 35h1v1h-1v-1z" fill="rgb(255,255,255)"/>
<path d="M65 35h1v1h-1v-1z" fill="rgb(205,205,213)"/>
<path d="M66 35h1v2h-1v-2z" fill="rgb(16,74,115)"/>
<path d="M67 35h2v1h-1v1h-1v-2z" fill="rgb(255,255,255)"/>
<path d="M69 35h1v1h-1v-1z" fill="rgb(205,205,213)"/>
<path d="M70 35h1v1h-1v-1z" fill="rgb(98,139,189)"/>
<path d="M38 36h1v1h-1v-1z" fill="rgb(106,57,49)"/>
<path d="M39 36h2v2h-1v1h-1v-3z" fill="rgb(255,90,106)"/>
<path d="M48 36h1v1h-1v-1z" fill="rgb(255,255,255)"/>
<path d="M49 36h1v1h-1v-1z" fill="rgb(106,57,49)"/>
<path d="M50 36h1v1h-1v-1z" fill="rgb(222,164,164)"/>
<path d="M63 36h1v1h-1v-1z" fill="rgb(255,255,255)"/>
<path d="M64 36h1v1h-1v-1z" fill="rgb(255,90,106)"/>
<path d="M65 36h1v2h-1v-2z" fill="rgb(255,255,255)"/>
<path d="M68 36h1v1h-1v-1z" fill="rgb(255,90,106)"/>
<path d="M69 36h1v1h-1v-1z" fill="rgb(255,255,255)"/>
<path d="M70 36h2v1h-2v-1z" fill="rgb(16,74,115)"/>
<path d="M72 36h2v1h-2v-1z" fill="rgb(98,139,189)"/>
<path d="M38 37h1v2h-1v-2z" fill="rgb(16,16,16)"/>
<path d="M48 37h1v1h-1v-1z" fill="rgb(222,164,164)"/>
<path d="M49 37h2v1h-1v2h-2v-2h1v-1z" fill="rgb(255,205,205)"/>
<path d="M51 37h2v1h1v2h-1v1h-2v-1h-1v-2h1v-1z" fill="rgb(255,90,106)"/>
<path d="M63 37h1v2h-1v-2z" fill="rgb(16,16,16)"/>
<path d="M64 37h1v1h-1v-1z" fill="rgb(205,205,213)"/>
<path d="M66 37h1v1h-1v-1z" fill="rgb(98,139,189)"/>
<path d="M67 37h1v1h-1v-1z" fill="rgb(205,205,213)"/>
<path d="M68 37h1v1h-1v-1z" fill="rgb(255,255,255)"/>
<path d="M69 37h1v1h-1v-1z" fill="rgb(205,205,213)"/>
<path d="M70 37h1v2h-1v-2z" fill="rgb(16,16,16)"/>
<path d="M71 37h2v1h-1v1h-1v-2z" fill="rgb(255,255,255)"/>
<path d="M73 37h1v1h-1v-1z" fill="rgb(205,205,213)"/>
<path d="M74 37h1v1h-1v-1z" fill="rgb(98,139,189)"/>
<path d="M40 38h1v2h-1v-2z" fill="rgb(222,164,164)"/>
<path d="M42 38h1v1h-1v-1z" fill="rgb(106,57,49)"/>
<path d="M47 38h1v2h-1v-2z" fill="rgb(106,57,49)"/>
<path d="M57 38h1v1h-1v-1z" fill="rgb(106,57,49)"/>
<path d="M64 38h1v1h-1v-1z" fill="rgb(16,74,115)"/>
<path d="M65 38h2v1h-2v-1z" fill="rgb(205,205,213)"/>
<path d="M67 38h1v1h-1v-1z" fill="rgb(16,74,115)"/>
<path d="M68 38h1v1h-1v-1z" fill="rgb(205,205,213)"/>
<path d="M69 38h1v1h-1v-1z" fill="rgb(16,74,115)"/>
<path d="M72 38h1v1h-1v-1z" fill="rgb(255,90,106)"/>
<path d="M73 38h1v1h-1v-1z" fill="rgb(255,255,255)"/>
<path d="M74 38h1v1h-1v-1z" fill="rgb(16,16,16)"/>
<path d="M36 39h3v1h-3v-1z" fill="rgb(115,49,57)"/>
<path d="M39 39h1v1h-1v-1z" fill="rgb(16,16,16)"/>
<path d="M43 39h1v1h-1v-1z" fill="rgb(106,57,49)"/>
<path d="M44 39h3v1h-3v-1z" fill="rgb(16,16,16)"/>
<path d="M57 39h1v1h-1v-1z" fill="rgb(16,16,16)"/>
<path d="M65 39h1v2h-1v-2z" fill="rgb(16,16,16)"/>
<path d="M66 39h1v1h1v-1h1v3h-1v1h-4v-1h2v-3z" fill="rgb(255,255,255)"/>
<path d="M67 39h1v1h-1v-1z" fill="rgb(98,139,189)"/>
<path d="M69 39h1v1h-1v-1z" fill="rgb(16,16,16)"/>
<path d="M70 39h3v1h-2v1h-1v-2z" fill="rgb(205,205,213)"/>
<path d="M73 39h1v1h-1v-1z" fill="rgb(16,16,16)"/>
<path d="M74 39h1v1h-1v-1z" fill="rgb(16,74,115)"/>
<path d="M35 40h1v1h-1v-1z" fill="rgb(115,49,57)"/>
<path d="M36 40h4v2h1v1h-1v1h-5v-3h1v-1z" fill="rgb(255,90,106)"/>
<path d="M40 40h1v1h-1v-1z" fill="rgb(16,16,16)"/>
<path d="M41 40h1v1h-1v-1z" fill="rgb(222,164,164)"/>
<path d="M48 40h1v1h-1v-1z" fill="rgb(106,57,49)"/>
<path d="M55 40h4v1h-4v-1z" fill="rgb(115,49,57)"/>
<path d="M62 40h2v1h-2v-1z" fill="rgb(16,74,115)"/>
<path d="M69 40h1v1h-1v-1z" fill="rgb(98,139,189)"/>
<path d="M71 40h1v1h-1v-1z" fill="rgb(98,139,189)"/>
<path d="M72 40h1v1h-1v-1z" fill="rgb(16,74,115)"/>
<path d="M73 40h1v1h-1v-1z" fill="rgb(255,255,255)"/>
<path d="M74 40h1v1h-1v-1z" fill="rgb(205,205,213)"/>
<path d="M75 40h1v1h-1v-1z" fill="rgb(98,139,189)"/>
<path d="M34 41h1v4h-1v-4z" fill="rgb(115,49,57)"/>
<path d="M40 41h1v1h-1v-1z" fill="rgb(189,74,115)"/>
<path d="M41 41h2v1h-2v-1z" fill="rgb(16,16,16)"/>
<path d="M43 41h1v1h-1v-1z" fill="rgb(106,57,49)"/>
<path d="M54 41h1v1h-1v-1z" fill="rgb(115,49,57)"/>
<path d="M55 41h3v3h-1v1h-2v-1h-1v-2h1v-1z" fill="rgb(255,90,106)"/>
<path d="M58 41h1v1h1v1h1v1h-2v3h1v1h-3v-1h-1v-1h-1v-1h2v-1h1v-3z" fill="rgb(189,74,115)"/>
<path d="M59 41h1v1h-1v-1z" fill="rgb(115,49,57)"/>
<path d="M61 41h1v1h-1v-1z" fill="rgb(16,74,115)"/>
<path d="M62 41h1v1h-1v-1z" fill="rgb(205,205,213)"/>
<path d="M63 41h1v1h-1v-1z" fill="rgb(255,255,255)"/>
<path d="M64 41h1v1h-1v-1z" fill="rgb(16,74,115)"/>
<path d="M65 41h1v1h-1v-1z" fill="rgb(205,205,213)"/>
<path d="M69 41h1v1h3v1h-2v2h-3v-1h-2v-1h2v-1h1v-1z" fill="rgb(205,205,213)"/>
<path d="M70 41h1v1h-1v-1z" fill="rgb(98,139,189)"/>
<path d="M71 41h1v1h-1v-1z" fill="rgb(16,74,115)"/>
<path d="M72 41h1v1h-1v-1z" fill="rgb(255,255,255)"/>
<path d="M73 41h1v1h-1v-1z" fill="rgb(255,90,106)"/>
<path d="M74 41h1v2h-2v-1h1v-1z" fill="rgb(255,255,255)"/>
<path d="M75 41h1v1h-1v-1z" fill="rgb(16,74,115)"/>
<path d="M41 42h1v3h-1v2h-2v1h-1v-2h-1v-1h-2v-1h5v-1h1v-1z" fill="rgb(189,74,115)"/>
<path d="M42 42h1v1h-1v-1z" fill="rgb(115,49,57)"/>
<path d="M43 42h1v1h-1v-1z" fill="rgb(205,205,213)"/>
<path d="M44 42h1v1h-1v-1z" fill="rgb(106,57,49)"/>
<path d="M45 42h7v1h-7v-1z" fill="rgb(16,16,16)"/>
<path d="M52 42h2v1h-2v-1z" fill="rgb(115,49,57)"/>
<path d="M60 42h1v1h-1v-1z" fill="rgb(115,49,57)"/>
<path d="M61 42h1v2h-1v-2z" fill="rgb(16,16,16)"/>
<path d="M62 42h1v1h-1v-1z" fill="rgb(255,255,255)"/>
<path d="M63 42h1v1h-1v-1z" fill="rgb(255,90,106)"/>
<path d="M75 42h1v1h-1v-1z" fill="rgb(16,16,16)"/>
<path d="M26 43h2v1h-2v-1z" fill="rgb(16,74,115)"/>
<path d="M42 43h1v2h-1v-2z" fill="rgb(16,16,16)"/>
<path d="M43 43h1v1h3v1h5v1h-4v1h-1v1h-1v5h-4v-1h-1v-5h1v-1h1v-3z" fill="rgb(255,255,255)"/>
<path d="M44 43h8v1h1v1h1v1h1v2h1v4h-1v2h-1v1h-2v1h-7v-1h-1v-1h-1v-1h3v-1h1v1h1v1h4v-1h1
	v-1h1v-4h-1v-1h-1v-2h-5v-1h-3v-1z" fill="rgb(205,205,213)"/>
<path d="M52 43h1v1h-1v-1z" fill="rgb(98,139,189)"/>
<path d="M53 43h1v1h-1v-1z" fill="rgb(16,16,16)"/>
<path d="M62 43h3v1h-3v-1z" fill="rgb(205,205,213)"/>
<path d="M65 43h1v1h-1v-1z" fill="rgb(16,74,115)"/>
<path d="M71 43h1v1h-1v-1z" fill="rgb(98,139,189)"/>
<path d="M72 43h1v1h-1v-1z" fill="rgb(16,74,115)"/>
<path d="M73 43h2v1h-2v-1z" fill="rgb(16,16,16)"/>
<path d="M25 44h1v1h-1v-1z" fill="rgb(16,74,115)"/>
<path d="M26 44h2v3h-1v-2h-1v-1z" fill="rgb(255,255,255)"/>
<path d="M28 44h1v1h-1v-1z" fill="rgb(98,139,189)"/>
<path d="M30 44h1v1h-1v-1z" fill="rgb(16,74,115)"/>
<path d="M31 44h1v1h-1v-1z" fill="rgb(98,139,189)"/>
<path d="M53 44h1v1h-1v-1z" fill="rgb(98,139,189)"/>
<path d="M54 44h1v1h-1v-1z" fill="rgb(16,16,16)"/>
<path d="M59 44h1v1h-1v-1z" fill="rgb(115,49,57)"/>
<path d="M60 44h1v2h1v1h4v-2h2v1h1v1h-2v1h-6v-1h-2v-2h1v-1z" fill="rgb(222,164,164)"/>
<path d="M61 44h1v1h-1v-1z" fill="rgb(115,49,57)"/>
<path d="M62 44h3v1h-3v-1z" fill="rgb(16,16,16)"/>
<path d="M65 44h1v1h-1v-1z" fill="transparent"/>
<path d="M66 44h1v1h-1v-1z" fill="rgb(16,74,115)"/>
<path d="M67 44h1v1h-1v-1z" fill="rgb(98,139,189)"/>
<path d="M71 44h1v1h-1v-1z" fill="rgb(16,74,115)"/>
<path d="M23 45h2v1h-2v-1z" fill="rgb(16,74,115)"/>
<path d="M25 45h1v2h-1v-2z" fill="rgb(16,16,16)"/>
<path d="M26 45h1v1h-1v-1z" fill="rgb(255,90,106)"/>
<path d="M28 45h1v2h-1v-2z" fill="rgb(16,16,16)"/>
<path d="M29 45h1v1h-1v-1z" fill="rgb(16,74,115)"/>
<path d="M30 45h2v2h-1v-1h-1v-1z" fill="rgb(255,255,255)"/>
<path d="M32 45h1v1h-1v-1z" fill="rgb(98,139,189)"/>
<path d="M35 45h2v1h-2v-1z" fill="rgb(115,49,57)"/>
<path d="M41 45h2v1h-2v-1z" fill="rgb(115,49,57)"/>
<path d="M54 45h1v1h-1v-1z" fill="rgb(16,49,74)"/>
<path d="M61 45h1v1h-1v-1z" fill="rgb(255,205,205)"/>
<path d="M62 45h4v1h-4v-1z" fill="rgb(115,49,57)"/>
<path d="M68 45h2v2h-1v-1h-1v-1z" fill="rgb(16,16,16)"/>
<path d="M70 45h1v1h-1v-1z" fill="rgb(16,74,115)"/>
<path d="M22 46h1v1h-1v-1z" fill="rgb(16,74,115)"/>
<path d="M23 46h2v2h-1v-1h-1v-1z" fill="rgb(255,255,255)"/>
<path d="M26 46h1v1h-1v-1z" fill="rgb(205,205,213)"/>
<path d="M29 46h1v1h2v1h-1v1h-2v-3z" fill="rgb(205,205,213)"/>
<path d="M30 46h1v1h-1v-1z" fill="rgb(255,90,106)"/>
<path d="M32 46h1v1h-1v-1z" fill="rgb(16,74,115)"/>
<path d="M34 46h1v1h-1v-1z" fill="rgb(115,49,57)"/>
<path d="M35 46h2v3h-1v1h-1v1h-1v-2h1v-3z" fill="rgb(222,164,164)"/>
<path d="M37 46h1v2h-1v-2z" fill="rgb(115,49,57)"/>
<path d="M41 46h1v1h-1v-1z" fill="rgb(16,16,16)"/>
<path d="M48 46h3v1h1v1h1v3h-1v1h-1v1h-3v-1h-2v-4h1v-1h1v-1z" fill="rgb(255,90,106)"/>
<path d="M51 46h1v1h-1v-1z" fill="rgb(189,74,115)"/>
<path d="M55 46h1v1h-1v-1z" fill="rgb(16,49,74)"/>
<path d="M62 46h4v1h-4v-1z" fill="rgb(255,205,205)"/>
<path d="M22 47h1v2h-1v-2z" fill="rgb(16,16,16)"/>
<path d="M23 47h1v1h-1v-1z" fill="rgb(255,90,106)"/>
<path d="M25 47h1v1h-1v-1z" fill="rgb(98,139,189)"/>
<path d="M26 47h1v1h-1v-1z" fill="rgb(16,16,16)"/>
<path d="M27 47h1v2h-1v-2z" fill="rgb(205,205,213)"/>
<path d="M28 47h1v1h-1v-1z" fill="rgb(16,74,115)"/>
<path d="M32 47h1v1h-1v-1z" fill="rgb(16,16,16)"/>
<path d="M33 47h1v1h-1v-1z" fill="rgb(115,49,57)"/>
<path d="M34 47h1v2h-1v1h-3v-1h2v-1h1v-1z" fill="rgb(255,205,205)"/>
<path d="M39 47h1v2h-1v-2z" fill="rgb(115,49,57)"/>
<path d="M40 47h1v1h-1v-1z" fill="rgb(16,16,16)"/>
<path d="M52 47h1v1h-1v-1z" fill="rgb(189,74,115)"/>
<path d="M55 47h1v1h-1v-1z" fill="rgb(16,16,16)"/>
<path d="M56 47h1v1h-1v-1z" fill="rgb(16,49,74)"/>
<path d="M60 47h1v1h-1v-1z" fill="rgb(16,16,16)"/>
<path d="M67 47h1v1h-1v-1z" fill="rgb(115,49,57)"/>
<path d="M68 47h1v1h-1v-1z" fill="rgb(16,16,16)"/>
<path d="M23 48h1v1h-1v-1z" fill="rgb(16,74,115)"/>
<path d="M24 48h2v3h-1v-2h-1v-1z" fill="rgb(205,205,213)"/>
<path d="M26 48h1v1h-1v-1z" fill="rgb(16,74,115)"/>
<path d="M28 48h1v1h-1v-1z" fill="rgb(98,139,189)"/>
<path d="M31 48h1v1h-1v-1z" fill="rgb(16,16,16)"/>
<path d="M32 48h1v1h-1v-1z" fill="rgb(115,49,57)"/>
<path d="M37 48h2v3h-1v-2h-1v-1z" fill="rgb(16,16,16)"/>
<path d="M40 48h1v3h-1v-3z" fill="rgb(98,139,189)"/>
<path d="M47 48h2v2h-2v-2z" fill="rgb(255,172,180)"/>
<path d="M53 48h1v4h-1v1h-1v1h-4v-1h3v-1h1v-1h1v-3z" fill="rgb(189,74,115)"/>
<path d="M56 48h1v4h-1v-4z" fill="rgb(16,16,16)"/>
<path d="M57 48h3v1h-3v-1z" fill="rgb(115,49,57)"/>
<path d="M61 48h1v1h-1v-1z" fill="rgb(115,49,57)"/>
<path d="M62 48h4v1h-4v-1z" fill="rgb(16,16,16)"/>
<path d="M66 48h1v1h-1v-1z" fill="rgb(115,49,57)"/>
<path d="M21 49h1v1h-1v-1z" fill="rgb(98,139,189)"/>
<path d="M22 49h1v1h-1v-1z" fill="rgb(255,255,255)"/>
<path d="M23 49h1v1h-1v-1z" fill="rgb(16,16,16)"/>
<path d="M24 49h1v1h-1v-1z" fill="rgb(98,139,189)"/>
<path d="M26 49h2v1h-1v1h-1v-2z" fill="rgb(98,139,189)"/>
<path d="M28 49h1v2h1v1h2v1h2v1h-3v-1h-1v1h-1v1h-3v-1h-1v-2h1v-1h1v-1h1v-1z" fill="rgb(205,205,213)"/>
<path d="M29 49h1v2h-1v-2z" fill="rgb(255,255,255)"/>
<path d="M30 49h1v1h-1v-1z" fill="rgb(16,74,115)"/>
<path d="M36 49h1v1h-1v-1z" fill="rgb(16,16,16)"/>
<path d="M39 49h1v2h-1v-2z" fill="rgb(205,205,213)"/>
<path d="M21 50h1v1h-1v-1z" fill="rgb(16,74,115)"/>
<path d="M22 50h1v1h-1v-1z" fill="rgb(255,90,106)"/>
<path d="M23 50h1v1h1v1h-3v-1h1v-1z" fill="rgb(205,205,213)"/>
<path d="M24 50h1v1h-1v-1z" fill="rgb(16,74,115)"/>
<path d="M30 50h2v1h-2v-1z" fill="rgb(16,16,16)"/>
<path d="M32 50h2v1h-2v-1z" fill="rgb(16,74,115)"/>
<path d="M35 50h1v1h-1v-1z" fill="rgb(16,16,16)"/>
<path d="M21 51h1v1h-1v-1z" fill="rgb(16,16,16)"/>
<path d="M25 51h1v1h-1v-1z" fill="rgb(98,139,189)"/>
<path d="M30 51h1v1h-1v-1z" fill="rgb(16,74,115)"/>
<path d="M31 51h1v1h-1v-1z" fill="rgb(98,139,189)"/>
<path d="M32 51h1v1h-1v-1z" fill="rgb(255,255,255)"/>
<path d="M33 51h1v1h-1v-1z" fill="rgb(205,205,213)"/>
<path d="M34 51h1v1h-1v-1z" fill="rgb(16,74,115)"/>
<path d="M39 51h1v1h-1v-1z" fill="rgb(115,49,57)"/>
<path d="M40 51h1v1h-1v-1z" fill="rgb(16,49,74)"/>
<path d="M22 52h2v1h-2v-1z" fill="rgb(16,16,16)"/>
<path d="M24 52h1v1h-1v-1z" fill="rgb(98,139,189)"/>
<path d="M32 52h1v1h-1v-1z" fill="rgb(255,90,106)"/>
<path d="M33 52h1v1h-1v-1z" fill="rgb(255,255,255)"/>
<path d="M34 52h1v2h-1v-2z" fill="rgb(16,16,16)"/>
<path d="M38 52h1v1h-1v-1z" fill="rgb(115,49,57)"/>
<path d="M39 52h3v1h1v2h1v3h-1v1h-2v-1h-2v-1h2v-1h1v-2h-1v-1h-2v-1z" fill="rgb(189,74,115)"/>
<path d="M47 52h1v1h-1v-1z" fill="rgb(189,74,115)"/>
<path d="M55 52h1v1h-1v-1z" fill="rgb(16,49,74)"/>
<path d="M56 52h1v1h1v2h-1v1h-1v1h-1v1h-3v-2h2v-1h1v-1h1v-2z" fill="rgb(189,74,115)"/>
<path d="M57 52h1v1h-1v-1z" fill="rgb(115,49,57)"/>
<path d="M24 53h1v1h-1v-1z" fill="rgb(16,16,16)"/>
<path d="M30 53h1v1h-1v-1z" fill="rgb(16,74,115)"/>
<path d="M37 53h1v1h-1v-1z" fill="rgb(189,74,115)"/>
<path d="M38 53h3v1h1v2h-1v1h-3v-1h-1v-2h1v-1z" fill="rgb(255,90,106)"/>
<path d="M55 53h1v1h-1v-1z" fill="rgb(16,16,16)"/>
<path d="M58 53h1v1h-1v-1z" fill="rgb(115,49,57)"/>
<path d="M25 54h1v1h-1v-1z" fill="rgb(16,16,16)"/>
<path d="M29 54h1v1h-1v-1z" fill="rgb(16,16,16)"/>
<path d="M31 54h3v1h-3v-1z" fill="rgb(16,16,16)"/>
<path d="M36 54h1v1h-1v-1z" fill="rgb(189,74,115)"/>
<path d="M43 54h1v1h-1v-1z" fill="rgb(115,49,57)"/>
<path d="M54 54h1v1h-1v-1z" fill="rgb(16,16,16)"/>
<path d="M58 54h1v2h-1v-2z" fill="rgb(16,16,16)"/>
<path d="M26 55h2v1h-2v-1z" fill="rgb(16,16,16)"/>
<path d="M28 55h1v1h-1v-1z" fill="rgb(16,74,115)"/>
<path d="M36 55h1v1h-1v-1z" fill="rgb(115,49,57)"/>
<path d="M44 55h1v3h-1v-3z" fill="rgb(115,49,57)"/>
<path d="M52 55h2v1h-2v-1z" fill="rgb(16,16,16)"/>
<path d="M57 55h1v1h-1v-1z" fill="rgb(115,49,57)"/>
<path d="M35 56h1v1h3v1h-4v-2z" fill="rgb(115,49,57)"/>
<path d="M36 56h2v1h-2v-1z" fill="rgb(189,74,115)"/>
<path d="M45 56h1v1h-1v-1z" fill="rgb(16,49,74)"/>
<path d="M46 56h5v1h-5v-1z" fill="rgb(16,16,16)"/>
<path d="M51 56h1v1h-1v-1z" fill="rgb(16,49,74)"/>
<path d="M56 56h1v1h-1v-1z" fill="rgb(106,57,49)"/>
<path d="M57 56h2v2h1v2h-2v-2h-1v-2z" fill="rgb(255,205,205)"/>
<path d="M59 56h1v2h-1v-2z" fill="rgb(16,16,16)"/>
<path d="M45 57h1v1h-1v-1z" fill="rgb(16,16,16)"/>
<path d="M51 57h1v1h-1v-1z" fill="rgb(16,16,16)"/>
<path d="M55 57h1v1h-1v-1z" fill="rgb(115,49,57)"/>
<path d="M56 57h1v1h1v2h1v1h-2v-2h-1v-2z" fill="rgb(222,164,164)"/>
<path d="M36 58h1v1h-1v-1z" fill="rgb(106,57,49)"/>
<path d="M37 58h1v1h-1v-1z" fill="rgb(222,164,164)"/>
<path d="M38 58h1v1h1v1h-1v1h-1v1h-1v-1h-1v-1h1v-1h1v-1z" fill="rgb(255,205,205)"/>
<path d="M39 58h1v1h-1v-1z" fill="rgb(222,164,164)"/>
<path d="M40 58h1v1h1v1h-2v-2z" fill="rgb(115,49,57)"/>
<path d="M43 58h1v1h-1v-1z" fill="rgb(115,49,57)"/>
<path d="M44 58h1v1h-1v-1z" fill="rgb(16,16,16)"/>
<path d="M52 58h1v1h-1v-1z" fill="rgb(115,49,57)"/>
<path d="M53 58h3v1h-3v-1z" fill="rgb(16,16,16)"/>
<path d="M60 58h1v1h-1v-1z" fill="rgb(16,16,16)"/>
<path d="M36 59h1v1h-1v-1z" fill="rgb(16,16,16)"/>
<path d="M42 59h2v1h-2v-1z" fill="rgb(16,16,16)"/>
<path d="M56 59h1v1h-1v-1z" fill="rgb(106,57,49)"/>
<path d="M60 59h2v1h-2v-1z" fill="rgb(16,74,115)"/>
<path d="M34 60h2v1h-2v-1z" fill="rgb(16,74,115)"/>
<path d="M39 60h1v1h-1v-1z" fill="rgb(115,49,57)"/>
<path d="M56 60h1v1h-1v-1z" fill="rgb(16,16,16)"/>
<path d="M59 60h1v1h-1v-1z" fill="rgb(16,74,115)"/>
<path d="M60 60h2v2h-1v-1h-1v-1z" fill="rgb(255,255,255)"/>
<path d="M62 60h1v3h-1v-3z" fill="rgb(16,16,16)"/>
<path d="M33 61h1v1h-1v-1z" fill="rgb(16,74,115)"/>
<path d="M34 61h2v1h-1v1h-1v-2z" fill="rgb(255,255,255)"/>
<path d="M36 61h1v1h-1v-1z" fill="rgb(16,74,115)"/>
<path d="M38 61h1v1h-1v-1z" fill="rgb(222,164,164)"/>
<path d="M39 61h1v1h-1v-1z" fill="rgb(106,57,49)"/>
<path d="M57 61h1v1h-1v-1z" fill="rgb(16,16,16)"/>
<path d="M58 61h1v1h-1v-1z" fill="rgb(16,74,115)"/>
<path d="M59 61h2v1h-2v-1z" fill="rgb(205,205,213)"/>
<path d="M33 62h1v2h-1v-2z" fill="rgb(16,16,16)"/>
<path d="M35 62h2v1h-1v1h-2v-1h1v-1z" fill="rgb(205,205,213)"/>
<path d="M37 62h1v2h-2v-1h1v-1z" fill="rgb(16,74,115)"/>
<path d="M38 62h1v1h-1v-1z" fill="rgb(106,57,49)"/>
<path d="M39 62h1v2h-2v-1h1v-1z" fill="rgb(16,16,16)"/>
<path d="M57 62h1v1h-1v-1z" fill="rgb(16,74,115)"/>
<path d="M58 62h1v1h-1v-1z" fill="rgb(98,139,189)"/>
<path d="M59 62h1v1h-1v-1z" fill="rgb(16,74,115)"/>
<path d="M60 62h1v1h-1v-1z" fill="rgb(16,16,16)"/>
<path d="M61 62h1v1h-1v-1z" fill="rgb(205,205,213)"/>
<path d="M57 63h1v2h-1v-2z" fill="rgb(106,57,49)"/>
<path d="M58 63h1v1h-1v-1z" fill="rgb(16,74,115)"/>
<path d="M59 63h2v2h-1v3h-2v-1h-1v-2h1v-1h1v-1z" fill="rgb(222,164,164)"/>
<path d="M61 63h1v1h-1v-1z" fill="rgb(16,16,16)"/>
<path d="M34 64h2v1h-2v-1z" fill="rgb(16,16,16)"/>
<path d="M36 64h1v3h-1v-3z" fill="rgb(106,57,49)"/>
<path d="M37 64h2v1h1v3h-1v1h-1v-1h-1v-4z" fill="rgb(222,164,164)"/>
<path d="M39 64h1v1h-1v-1z" fill="rgb(106,57,49)"/>
<path d="M61 64h1v1h-1v-1z" fill="rgb(106,57,49)"/>
<path d="M40 65h1v1h-1v-1z" fill="rgb(106,57,49)"/>
<path d="M56 65h1v1h-1v-1z" fill="rgb(106,57,49)"/>
<path d="M60 65h1v2h-1v-2z" fill="rgb(106,57,49)"/>
<path d="M40 66h1v1h-1v-1z" fill="rgb(16,16,16)"/>
<path d="M56 66h1v1h-1v-1z" fill="rgb(16,49,74)"/>
<path d="M61 66h1v2h-1v-2z" fill="rgb(16,16,16)"/>
<path d="M62 66h1v1h-1v-1z" fill="rgb(16,49,74)"/>
<path d="M63 66h2v1h-2v-1z" fill="rgb(16,16,16)"/>
<path d="M32 67h3v1h-3v-1z" fill="rgb(16,49,74)"/>
<path d="M36 67h1v1h-1v-1z" fill="rgb(16,16,16)"/>
<path d="M40 67h1v1h-1v-1z" fill="rgb(106,57,49)"/>
<path d="M41 67h1v1h-1v-1z" fill="rgb(16,16,16)"/>
<path d="M55 67h1v3h-1v-3z" fill="rgb(16,16,16)"/>
<path d="M56 67h1v1h3v1h-2v1h-2v-3z" fill="rgb(16,74,115)"/>
<path d="M57 67h1v1h-1v-1z" fill="rgb(16,49,74)"/>
<path d="M60 67h1v1h-1v-1z" fill="rgb(16,74,115)"/>
<path d="M62 67h3v1h-1v1h-1v-1h-1v-1z" fill="rgb(98,139,189)"/>
<path d="M65 67h1v1h-1v-1z" fill="rgb(16,16,16)"/>
<path d="M31 68h1v1h-1v-1z" fill="rgb(16,49,74)"/>
<path d="M32 68h3v1h-3v-1z" fill="rgb(98,139,189)"/>
<path d="M35 68h1v1h-1v-1z" fill="rgb(16,16,16)"/>
<path d="M36 68h1v1h-1v-1z" fill="rgb(16,74,115)"/>
<path d="M37 68h1v1h-1v-1z" fill="rgb(106,57,49)"/>
<path d="M39 68h1v1h-1v-1z" fill="rgb(106,57,49)"/>
<path d="M40 68h1v1h-1v-1z" fill="rgb(16,49,74)"/>
<path d="M41 68h1v2h-1v1h-1v-2h1v-1z" fill="rgb(16,74,115)"/>
<path d="M42 68h1v2h-1v-2z" fill="rgb(16,16,16)"/>
<path d="M60 68h1v1h-1v-1z" fill="rgb(16,49,74)"/>
<path d="M61 68h1v2h-4v-1h3v-1z" fill="rgb(98,139,189)"/>
<path d="M62 68h1v1h-1v-1z" fill="rgb(16,16,16)"/>
<path d="M64 68h2v3h-1v1h-3v-1h-3v-1h4v-1h1v-1z" fill="rgb(16,74,115)"/>
<path d="M66 68h1v2h-1v-2z" fill="rgb(16,16,16)"/>
<path d="M30 69h1v2h-1v-2z" fill="rgb(16,16,16)"/>
<path d="M31 69h2v1h2v2h1v1h-4v-2h-1v-2z" fill="rgb(16,74,115)"/>
<path d="M33 69h1v1h-1v-1z" fill="rgb(16,49,74)"/>
<path d="M34 69h1v1h-1v-1z" fill="rgb(16,16,16)"/>
<path d="M35 69h1v1h-1v-1z" fill="rgb(16,74,115)"/>
<path d="M36 69h1v2h-2v-1h1v-1z" fill="rgb(16,16,16)"/>
<path d="M37 69h1v1h-1v-1z" fill="rgb(16,74,115)"/>
<path d="M38 69h2v1h-2v-1z" fill="rgb(16,49,74)"/>
<path d="M62 69h1v1h-1v-1z" fill="rgb(16,49,74)"/>
<path d="M37 70h3v1h-1v1h-2v1h-1v-1h-1v-1h2v-1z" fill="rgb(98,139,189)"/>
<path d="M41 70h1v1h-1v-1z" fill="rgb(16,16,16)"/>
<path d="M56 70h3v1h-3v-1z" fill="rgb(16,16,16)"/>
<path d="M66 70h1v1h-1v-1z" fill="rgb(16,49,74)"/>
<path d="M31 71h1v2h-1v-2z" fill="rgb(16,16,16)"/>
<path d="M39 71h2v1h-2v-1z" fill="rgb(16,16,16)"/>
<path d="M59 71h3v1h-3v-1z" fill="rgb(16,16,16)"/>
<path d="M65 71h1v1h-1v-1z" fill="rgb(16,16,16)"/>
<path d="M37 72h1v1h-1v-1z" fill="rgb(16,49,74)"/>
<path d="M38 72h1v1h-1v-1z" fill="rgb(16,16,16)"/>
<path d="M62 72h3v1h-3v-1z" fill="rgb(16,16,16)"/>
<path d="M32 73h2v1h-2v-1z" fill="rgb(16,16,16)"/>
<path d="M34 73h1v1h-1v-1z" fill="rgb(16,49,74)"/>
<path d="M35 73h2v1h-2v-1z" fill="rgb(16,16,16)"/>
</svg>
