<?xml version="1.0" encoding="utf-8"?>
<!-- generated at drububu.com  -->
<!DOCTYPE svg PUBLIC "-//W3C//DTD SVG 1.1//EN" "http://www.w3.org/Graphics/SVG/1.1/DTD/svg11.dtd">
<svg version="1.1" preserveAspectRatio="xMinYMin meet" xmlns="http://www.w3.org/2000/svg" xmlns:xlink="http://www.w3.org/1999/xlink" x="0px" y="0px" width="96px" height="96px" viewBox="0 0 96 96">
<path d="M0 0h96v96h-96v-96z" fill="transparent"/>
<path d="M46 19h1v1h-1v-1z" fill="rgb(65,90,32)"/>
<path d="M45 20h1v1h-1v-1z" fill="rgb(65,90,32)"/>
<path d="M46 20h1v1h-1v-1z" fill="rgb(189,230,115)"/>
<path d="M47 20h1v6h-1v-6z" fill="rgb(16,16,16)"/>
<path d="M44 21h1v1h-1v-1z" fill="rgb(65,90,32)"/>
<path d="M45 21h1v1h-1v-1z" fill="rgb(189,230,115)"/>
<path d="M46 21h1v1h-1v-1z" fill="rgb(65,90,32)"/>
<path d="M43 22h1v2h-1v-2z" fill="rgb(65,90,32)"/>
<path d="M44 22h1v2h-1v-2z" fill="rgb(189,230,115)"/>
<path d="M45 22h1v2h-1v-2z" fill="rgb(156,139,49)"/>
<path d="M46 22h1v4h1v4h-1v1h-1v1h-1v-1h-1v1h-1v-3h1v-3h1v-2h1v-2z" fill="rgb(255,246,213)"/>
<path d="M42 24h1v2h-1v-2z" fill="rgb(65,90,32)"/>
<path d="M43 24h1v2h-1v-2z" fill="rgb(189,230,115)"/>
<path d="M44 24h1v2h-1v-2z" fill="rgb(156,139,49)"/>
<path d="M65 24h2v1h-2v-1z" fill="rgb(65,90,32)"/>
<path d="M62 25h3v1h-3v-1z" fill="rgb(65,90,32)"/>
<path d="M65 25h1v1h-1v-1z" fill="rgb(189,230,115)"/>
<path d="M66 25h1v1h-1v-1z" fill="rgb(139,205,115)"/>
<path d="M67 25h1v1h-1v-1z" fill="rgb(65,90,32)"/>
<path d="M41 26h1v2h-1v-2z" fill="rgb(65,90,32)"/>
<path d="M42 26h1v3h-1v3h-1v5h-1v-6h1v-3h1v-2z" fill="rgb(139,205,115)"/>
<path d="M43 26h1v3h-1v-3z" fill="rgb(156,139,49)"/>
<path d="M48 26h1v7h-1v-7z" fill="rgb(16,16,16)"/>
<path d="M60 26h2v1h-2v-1z" fill="rgb(65,90,32)"/>
<path d="M62 26h2v1h-2v-1z" fill="rgb(189,230,115)"/>
<path d="M64 26h1v1h-1v-1z" fill="rgb(139,205,115)"/>
<path d="M65 26h3v1h-1v1h-1v-1h-1v-1z" fill="rgb(156,139,49)"/>
<path d="M50 27h1v1h-1v-1z" fill="rgb(156,139,49)"/>
<path d="M58 27h2v1h-2v-1z" fill="rgb(65,90,32)"/>
<path d="M60 27h2v1h-1v1h-2v1h-1v2h-1v-1h-1v-1h1v-1h1v-1h2v-1z" fill="rgb(189,230,115)"/>
<path d="M62 27h1v1h-1v-1z" fill="rgb(139,205,115)"/>
<path d="M63 27h2v1h-2v-1z" fill="rgb(156,139,49)"/>
<path d="M65 27h1v1h-1v-1z" fill="rgb(255,246,213)"/>
<path d="M40 28h1v3h-1v-3z" fill="rgb(65,90,32)"/>
<path d="M49 28h1v1h-1v-1z" fill="rgb(156,139,49)"/>
<path d="M50 28h1v7h-1v2h-1v2h-1v2h-1v1h-1v-2h1v-3h1v-4h1v-4h1v-1z" fill="rgb(230,213,172)"/>
<path d="M51 28h1v6h-1v-6z" fill="rgb(156,139,49)"/>
<path d="M57 28h1v1h-1v-1z" fill="rgb(65,90,32)"/>
<path d="M61 28h2v1h-2v-1z" fill="rgb(156,139,49)"/>
<path d="M63 28h2v2h-1v2h-1v1h-1v-1h-1v1h-1v-1h-1v-2h2v-1h2v-1z" fill="rgb(255,246,213)"/>
<path d="M65 28h1v2h-1v-2z" fill="rgb(156,139,49)"/>
<path d="M42 29h1v3h-1v-3z" fill="rgb(156,139,49)"/>
<path d="M56 29h1v1h-1v-1z" fill="rgb(65,90,32)"/>
<path d="M59 29h2v1h-2v-1z" fill="rgb(156,139,49)"/>
<path d="M47 30h1v3h-1v4h-1v3h-1v2h-1v1h-1v-1h-1v-9h1v-1h1v1h1v-1h1v-1h1v-1z" fill="rgb(230,213,172)"/>
<path d="M55 30h1v1h-1v-1z" fill="rgb(65,90,32)"/>
<path d="M58 30h1v1h-1v-1z" fill="rgb(156,139,49)"/>
<path d="M64 30h1v2h-1v-2z" fill="rgb(156,139,49)"/>
<path d="M39 31h1v6h-1v-6z" fill="rgb(65,90,32)"/>
<path d="M44 31h1v1h-1v-1z" fill="rgb(230,213,172)"/>
<path d="M54 31h1v1h-1v-1z" fill="rgb(65,90,32)"/>
<path d="M55 31h2v1h-1v1h-1v1h-1v1h-1v2h-1v2h-1v2h-1v2h-1v2h-1v-4h1v-2h1v-2h1v-2h1v-1h1
	v-1h1v-1h1v-1z" fill="rgb(139,205,115)"/>
<path d="M58 31h1v1h-1v-1z" fill="rgb(230,213,172)"/>
<path d="M41 32h1v9h-1v-9z" fill="rgb(156,139,49)"/>
<path d="M42 32h1v1h-1v-1z" fill="rgb(255,246,213)"/>
<path d="M44 32h1v1h-1v-1z" fill="rgb(255,246,213)"/>
<path d="M53 32h1v1h-1v-1z" fill="rgb(16,16,16)"/>
<path d="M56 32h1v1h-1v-1z" fill="rgb(156,139,49)"/>
<path d="M57 32h1v1h1v1h1v1h-2v1h-2v1h-1v1h-1v1h-1v-2h1v-2h1v-1h1v-1h1v-1z" fill="rgb(230,213,172)"/>
<path d="M58 32h1v1h-1v-1z" fill="rgb(255,246,213)"/>
<path d="M59 32h1v1h-1v-1z" fill="rgb(230,213,172)"/>
<path d="M61 32h1v1h-1v-1z" fill="rgb(230,213,172)"/>
<path d="M63 32h1v1h-1v-1z" fill="rgb(156,139,49)"/>
<path d="M47 33h1v4h-1v-4z" fill="rgb(16,16,16)"/>
<path d="M52 33h1v1h-1v-1z" fill="rgb(16,16,16)"/>
<path d="M55 33h1v1h-1v-1z" fill="rgb(156,139,49)"/>
<path d="M59 33h1v1h-1v-1z" fill="rgb(255,246,213)"/>
<path d="M60 33h1v1h-1v-1z" fill="rgb(230,213,172)"/>
<path d="M61 33h1v1h-1v-1z" fill="rgb(255,246,213)"/>
<path d="M62 33h1v1h-1v-1z" fill="rgb(156,139,49)"/>
<path d="M63 33h3v2h-1v-1h-2v-1z" fill="rgb(16,16,16)"/>
<path d="M51 34h1v1h-1v-1z" fill="rgb(16,16,16)"/>
<path d="M54 34h1v1h-1v-1z" fill="rgb(156,139,49)"/>
<path d="M60 34h3v1h-3v-1z" fill="rgb(16,16,16)"/>
<path d="M63 34h2v1h-1v2h-1v1h-1v2h-1v1h-1v1h-1v1h-2v1h-3v1h-2v-2h1v-2h1v-2h1v-1h1v-1h2
	v-1h2v-1h3v-1z" fill="rgb(230,213,172)"/>
<path d="M50 35h1v2h-1v-2z" fill="rgb(16,16,16)"/>
<path d="M53 35h1v2h-1v-2z" fill="rgb(156,139,49)"/>
<path d="M58 35h2v1h-2v-1z" fill="rgb(16,16,16)"/>
<path d="M64 35h1v2h-1v-2z" fill="rgb(16,16,16)"/>
<path d="M56 36h1v1h-1v-1z" fill="rgb(156,139,49)"/>
<path d="M57 36h1v1h-1v-1z" fill="rgb(16,16,16)"/>
<path d="M39 37h2v4h-1v-3h-1v-1z" fill="rgb(16,16,16)"/>
<path d="M46 37h1v3h-1v-3z" fill="rgb(16,16,16)"/>
<path d="M49 37h1v2h-1v-2z" fill="rgb(16,16,16)"/>
<path d="M52 37h1v2h-1v-2z" fill="rgb(156,139,49)"/>
<path d="M55 37h1v1h-1v-1z" fill="rgb(156,139,49)"/>
<path d="M63 37h1v1h-1v-1z" fill="rgb(16,16,16)"/>
<path d="M33 38h1v1h-1v-1z" fill="rgb(65,90,32)"/>
<path d="M38 38h1v1h-1v-1z" fill="rgb(16,16,16)"/>
<path d="M39 38h1v2h-1v1h-1v1h-2v-1h1v-1h1v-1h1v-1z" fill="rgb(189,230,115)"/>
<path d="M54 38h1v1h-1v-1z" fill="rgb(156,139,49)"/>
<path d="M62 38h1v2h-1v-2z" fill="rgb(16,16,16)"/>
<path d="M32 39h1v5h-1v-5z" fill="rgb(65,90,32)"/>
<path d="M33 39h1v4h1v-1h1v1h1v2h-1v1h-1v1h-2v-1h-1v-2h1v-5z" fill="rgb(189,230,115)"/>
<path d="M34 39h1v1h-1v-1z" fill="rgb(65,90,32)"/>
<path d="M37 39h1v1h-1v-1z" fill="rgb(65,90,32)"/>
<path d="M48 39h1v2h-1v-2z" fill="rgb(16,16,16)"/>
<path d="M51 39h1v2h-1v-2z" fill="rgb(156,139,49)"/>
<path d="M52 39h1v2h-1v-2z" fill="rgb(230,213,172)"/>
<path d="M53 39h1v2h-1v-2z" fill="rgb(156,139,49)"/>
<path d="M34 40h1v2h-1v-2z" fill="rgb(139,205,115)"/>
<path d="M35 40h2v1h-1v1h-1v-2z" fill="rgb(65,90,32)"/>
<path d="M39 40h1v1h1v1h1v1h1v1h4v1h-3v1h-2v1h-2v1h-1v1h-1v-2h-1v4h-1v1h1v-1h3v1h-1v2h-1
	v1h-1v1h-2v-1h-1v1h-1v-1h-1v-3h1v-5h2v-1h1v-1h1v-2h-1v-1h2v-1h1v-1z" fill="rgb(139,205,115)"/>
<path d="M45 40h1v2h-1v-2z" fill="rgb(16,16,16)"/>
<path d="M61 40h1v1h-1v-1z" fill="rgb(16,16,16)"/>
<path d="M41 41h1v1h-1v-1z" fill="rgb(16,16,16)"/>
<path d="M47 41h1v1h-1v-1z" fill="rgb(16,16,16)"/>
<path d="M50 41h1v2h-1v-2z" fill="rgb(65,90,32)"/>
<path d="M51 41h1v2h-1v-2z" fill="rgb(230,213,172)"/>
<path d="M52 41h1v2h-1v-2z" fill="rgb(156,139,49)"/>
<path d="M60 41h1v1h-1v-1z" fill="rgb(16,16,16)"/>
<path d="M34 42h1v1h-1v-1z" fill="rgb(65,90,32)"/>
<path d="M42 42h1v1h-1v-1z" fill="rgb(16,16,16)"/>
<path d="M44 42h1v1h3v2h-1v-1h-4v-1h1v-1z" fill="rgb(16,16,16)"/>
<path d="M45 42h2v1h-2v-1z" fill="rgb(90,156,74)"/>
<path d="M47 42h1v1h-1v-1z" fill="rgb(65,90,32)"/>
<path d="M59 42h1v1h-1v-1z" fill="rgb(16,16,16)"/>
<path d="M49 43h1v2h-1v-2z" fill="rgb(65,90,32)"/>
<path d="M50 43h1v2h-1v-2z" fill="rgb(230,213,172)"/>
<path d="M51 43h1v1h-1v-1z" fill="rgb(156,139,49)"/>
<path d="M57 43h2v1h-2v-1z" fill="rgb(16,16,16)"/>
<path d="M31 44h1v6h-1v-4h-2v-1h2v-1z" fill="rgb(65,90,32)"/>
<path d="M51 44h1v1h2v2h-1v-1h-3v-1h1v-1z" fill="rgb(16,16,16)"/>
<path d="M54 44h3v1h-3v-1z" fill="rgb(16,16,16)"/>
<path d="M57 44h1v1h1v2h-1v-1h-1v-2z" fill="rgb(139,205,115)"/>
<path d="M58 44h1v1h-1v-1z" fill="rgb(65,90,32)"/>
<path d="M59 44h2v1h-2v-1z" fill="rgb(16,16,16)"/>
<path d="M44 45h2v1h-2v-1z" fill="rgb(90,156,74)"/>
<path d="M46 45h1v1h-1v-1z" fill="rgb(16,16,16)"/>
<path d="M47 45h1v1h2v1h-2v1h-1v1h-1v-1h-1v-1h1v-1h1v-1z" fill="rgb(90,156,74)"/>
<path d="M48 45h1v1h-1v-1z" fill="rgb(65,90,32)"/>
<path d="M49 45h1v1h-1v-1z" fill="rgb(139,205,115)"/>
<path d="M54 45h1v1h1v2h1v3h-1v1h-1v-5h-1v-2z" fill="rgb(90,156,74)"/>
<path d="M55 45h1v1h-1v-1z" fill="rgb(65,90,32)"/>
<path d="M56 45h1v1h-1v-1z" fill="rgb(90,156,74)"/>
<path d="M59 45h1v2h-1v-2z" fill="rgb(65,90,32)"/>
<path d="M60 45h1v1h1v1h-2v-2z" fill="rgb(139,205,115)"/>
<path d="M61 45h1v1h-1v-1z" fill="rgb(16,16,16)"/>
<path d="M27 46h2v1h-2v-1z" fill="rgb(65,90,32)"/>
<path d="M29 46h2v2h-2v1h-1v-1h-1v-1h2v-1z" fill="rgb(139,205,115)"/>
<path d="M32 46h1v1h-1v-1z" fill="rgb(139,205,115)"/>
<path d="M38 46h1v1h-1v-1z" fill="rgb(90,156,74)"/>
<path d="M42 46h2v1h-2v-1z" fill="rgb(90,156,74)"/>
<path d="M44 46h1v1h-1v-1z" fill="rgb(139,205,115)"/>
<path d="M45 46h1v1h-1v-1z" fill="rgb(16,16,16)"/>
<path d="M50 46h3v1h1v2h-1v-1h-1v-1h-2v-1z" fill="rgb(139,205,115)"/>
<path d="M56 46h1v2h-1v-2z" fill="rgb(65,90,32)"/>
<path d="M57 46h1v1h2v2h-2v-1h-1v-2z" fill="rgb(90,156,74)"/>
<path d="M62 46h1v1h-1v-1z" fill="rgb(16,16,16)"/>
<path d="M65 46h2v1h-2v-1z" fill="rgb(65,90,32)"/>
<path d="M26 47h1v2h-1v-2z" fill="rgb(65,90,32)"/>
<path d="M32 47h1v3h-1v-3z" fill="rgb(90,156,74)"/>
<path d="M37 47h1v3h-1v-3z" fill="rgb(90,156,74)"/>
<path d="M40 47h1v1h-1v-1z" fill="rgb(65,90,32)"/>
<path d="M41 47h1v1h-1v-1z" fill="rgb(90,156,74)"/>
<path d="M42 47h2v1h1v2h-1v1h-4v-1h1v-2h1v-1z" fill="rgb(139,205,115)"/>
<path d="M44 47h1v1h-1v-1z" fill="rgb(16,16,16)"/>
<path d="M48 47h4v1h-4v-1z" fill="rgb(65,90,32)"/>
<path d="M54 47h1v5h1v5h-1v-2h-2v-1h2v-1h-1v-3h-1v-1h1v-2z" fill="rgb(16,16,16)"/>
<path d="M60 47h1v2h-1v-2z" fill="rgb(65,90,32)"/>
<path d="M61 47h2v2h-1v1h-1v-3z" fill="rgb(90,156,74)"/>
<path d="M63 47h1v1h-1v-1z" fill="rgb(16,16,16)"/>
<path d="M64 47h1v1h-1v-1z" fill="rgb(65,90,32)"/>
<path d="M65 47h1v2h-1v1h-1v2h-1v2h-1v-4h1v-1h1v-1h1v-1z" fill="rgb(189,230,115)"/>
<path d="M66 47h1v2h-1v-2z" fill="rgb(16,16,16)"/>
<path d="M27 48h1v1h-1v-1z" fill="rgb(189,230,115)"/>
<path d="M29 48h2v2h-1v1h-1v1h-1v-3h1v-1z" fill="rgb(222,222,222)"/>
<path d="M39 48h1v1h-1v-1z" fill="rgb(65,90,32)"/>
<path d="M40 48h1v2h-1v1h-1v-2h1v-1z" fill="rgb(255,255,255)"/>
<path d="M45 48h1v1h1v1h-1v4h-2v-1h1v-2h-1v-1h1v-2z" fill="rgb(16,16,16)"/>
<path d="M47 48h1v1h-1v-1z" fill="rgb(16,16,16)"/>
<path d="M48 48h1v1h-1v-1z" fill="rgb(90,156,74)"/>
<path d="M49 48h2v1h2v2h1v2h-1v2h-2v1h-2v-1h-2v-2h-1v-2h1v1h1v1h2v-1h1v-2h-1v-1h-1v-1z" fill="rgb(139,205,115)"/>
<path d="M51 48h1v1h-1v-1z" fill="rgb(90,156,74)"/>
<path d="M52 48h1v1h-1v-1z" fill="rgb(65,90,32)"/>
<path d="M57 48h1v3h-1v-3z" fill="rgb(65,90,32)"/>
<path d="M63 48h1v1h-1v-1z" fill="rgb(65,90,32)"/>
<path d="M25 49h1v2h-1v-2z" fill="rgb(65,90,32)"/>
<path d="M26 49h1v2h-1v-2z" fill="rgb(189,230,115)"/>
<path d="M27 49h1v2h-1v-2z" fill="rgb(139,205,115)"/>
<path d="M38 49h1v1h-1v-1z" fill="rgb(65,90,32)"/>
<path d="M47 49h1v1h-1v-1z" fill="rgb(139,205,115)"/>
<path d="M48 49h2v1h1v2h-1v1h-2v-1h-1v-2h1v-1z" fill="rgb(189,230,115)"/>
<path d="M58 49h3v1h1v2h-1v-1h-1v-1h-2v-1z" fill="rgb(16,16,16)"/>
<path d="M62 49h1v1h-1v-1z" fill="rgb(65,90,32)"/>
<path d="M65 49h1v3h-1v-3z" fill="rgb(16,16,16)"/>
<path d="M30 50h1v1h-1v-1z" fill="rgb(189,189,189)"/>
<path d="M31 50h1v2h-1v2h-1v1h-1v-3h1v-1h1v-1z" fill="rgb(222,222,222)"/>
<path d="M32 50h1v2h-1v-2z" fill="rgb(65,90,32)"/>
<path d="M37 50h1v1h-1v-1z" fill="rgb(65,90,32)"/>
<path d="M38 50h1v1h-1v-1z" fill="rgb(16,16,16)"/>
<path d="M46 50h1v1h-1v-1z" fill="rgb(90,156,74)"/>
<path d="M53 50h1v1h-1v-1z" fill="rgb(90,156,74)"/>
<path d="M58 50h2v1h-1v2h-1v2h-1v-1h-1v-2h1v-1h1v-1z" fill="rgb(230,213,172)"/>
<path d="M64 50h1v2h-1v-2z" fill="rgb(139,205,115)"/>
<path d="M24 51h1v3h-1v-3z" fill="rgb(65,90,32)"/>
<path d="M25 51h1v3h-1v-3z" fill="rgb(189,230,115)"/>
<path d="M26 51h1v3h-1v-3z" fill="rgb(139,205,115)"/>
<path d="M27 51h1v3h-1v-3z" fill="rgb(255,255,255)"/>
<path d="M29 51h1v1h-1v-1z" fill="rgb(189,189,189)"/>
<path d="M36 51h1v1h-1v-1z" fill="rgb(90,156,74)"/>
<path d="M40 51h1v1h-1v-1z" fill="rgb(65,90,32)"/>
<path d="M41 51h2v1h-1v1h-1v1h-1v1h-1v-2h1v-1h1v-1z" fill="rgb(90,156,74)"/>
<path d="M43 51h1v2h-2v-1h1v-1z" fill="rgb(16,16,16)"/>
<path d="M44 51h1v2h-1v-2z" fill="rgb(90,156,74)"/>
<path d="M56 51h1v1h-1v-1z" fill="rgb(65,90,32)"/>
<path d="M59 51h1v2h-1v-2z" fill="rgb(16,16,16)"/>
<path d="M60 51h1v3h1v1h-1v1h-2v-3h1v-2z" fill="rgb(189,230,115)"/>
<path d="M28 52h1v2h-1v-2z" fill="rgb(189,189,189)"/>
<path d="M31 52h1v3h-1v-3z" fill="rgb(65,90,32)"/>
<path d="M39 52h1v1h-1v-1z" fill="rgb(65,90,32)"/>
<path d="M61 52h1v2h-1v-2z" fill="rgb(90,156,74)"/>
<path d="M63 52h1v4h-1v2h-1v1h-3v-1h-2v-1h-1v-2h1v1h1v-1h1v1h2v-1h1v-1h1v-2z" fill="rgb(139,205,115)"/>
<path d="M64 52h1v4h-1v-4z" fill="rgb(16,16,16)"/>
<path d="M41 53h1v1h-1v-1z" fill="rgb(16,16,16)"/>
<path d="M42 53h1v1h-1v-1z" fill="transparent"/>
<path d="M43 53h1v1h-1v-1z" fill="rgb(65,90,32)"/>
<path d="M46 53h1v1h-1v-1z" fill="rgb(90,156,74)"/>
<path d="M53 53h1v1h-1v-1z" fill="rgb(90,156,74)"/>
<path d="M54 53h1v1h-1v-1z" fill="rgb(65,90,32)"/>
<path d="M58 53h1v2h-1v-2z" fill="rgb(16,16,16)"/>
<path d="M23 54h1v2h-1v-2z" fill="rgb(65,90,32)"/>
<path d="M24 54h1v2h-1v-2z" fill="rgb(189,230,115)"/>
<path d="M25 54h1v2h-1v-2z" fill="rgb(139,205,115)"/>
<path d="M26 54h1v3h-1v7h-1v-8h1v-2z" fill="rgb(255,255,255)"/>
<path d="M27 54h1v3h-1v-3z" fill="rgb(189,189,189)"/>
<path d="M28 54h1v3h-1v-3z" fill="rgb(255,255,255)"/>
<path d="M30 54h1v1h-1v-1z" fill="rgb(115,115,115)"/>
<path d="M35 54h1v1h-1v-1z" fill="rgb(65,90,32)"/>
<path d="M38 54h1v1h-1v-1z" fill="rgb(65,90,32)"/>
<path d="M40 54h1v1h-1v-1z" fill="rgb(16,16,16)"/>
<path d="M42 54h1v2h-1v-2z" fill="rgb(65,90,32)"/>
<path d="M43 54h2v1h2v1h-1v3h-2v1h-1v1h-1v1h-1v1h-1v-2h-1v-1h1v-1h1v-1h1v-2h1v-2z" fill="rgb(90,156,74)"/>
<path d="M45 54h1v1h-1v-1z" fill="rgb(65,90,32)"/>
<path d="M46 54h1v1h-1v-1z" fill="rgb(16,16,16)"/>
<path d="M56 54h1v1h-1v-1z" fill="rgb(65,90,32)"/>
<path d="M29 55h1v2h-1v-2z" fill="rgb(115,115,115)"/>
<path d="M32 55h1v1h-1v-1z" fill="rgb(16,16,16)"/>
<path d="M34 55h1v1h-1v-1z" fill="rgb(90,156,74)"/>
<path d="M37 55h3v1h-3v-1z" fill="rgb(16,16,16)"/>
<path d="M47 55h1v1h-1v-1z" fill="rgb(16,16,16)"/>
<path d="M48 55h1v1h-1v-1z" fill="rgb(90,156,74)"/>
<path d="M51 55h1v1h-1v-1z" fill="rgb(90,156,74)"/>
<path d="M52 55h1v1h-1v-1z" fill="rgb(16,16,16)"/>
<path d="M57 55h1v1h-1v-1z" fill="rgb(65,90,32)"/>
<path d="M22 56h1v6h-1v-6z" fill="rgb(65,90,32)"/>
<path d="M23 56h1v6h-1v-6z" fill="rgb(189,230,115)"/>
<path d="M24 56h1v6h-1v-6z" fill="rgb(139,205,115)"/>
<path d="M33 56h4v1h-4v-1z" fill="rgb(16,16,16)"/>
<path d="M41 56h1v2h-1v-2z" fill="rgb(65,90,32)"/>
<path d="M46 56h1v2h-1v-2z" fill="rgb(65,90,32)"/>
<path d="M47 56h1v2h-1v-2z" fill="transparent"/>
<path d="M48 56h4v3h-1v-2h-3v-1z" fill="rgb(16,16,16)"/>
<path d="M63 56h1v2h-1v-2z" fill="rgb(16,16,16)"/>
<path d="M26 57h1v3h-1v-3z" fill="rgb(189,189,189)"/>
<path d="M27 57h1v1h-1v-1z" fill="rgb(255,255,255)"/>
<path d="M28 57h1v1h-1v-1z" fill="rgb(115,115,115)"/>
<path d="M48 57h1v1h-1v-1z" fill="rgb(65,90,32)"/>
<path d="M49 57h2v2h-2v-2z" fill="rgb(90,156,74)"/>
<path d="M56 57h1v1h-1v-1z" fill="rgb(16,16,16)"/>
<path d="M27 58h1v2h-1v-2z" fill="rgb(115,115,115)"/>
<path d="M40 58h1v1h-1v-1z" fill="rgb(65,90,32)"/>
<path d="M46 58h3v1h-3v-1z" fill="rgb(16,16,16)"/>
<path d="M57 58h2v1h-2v-1z" fill="rgb(16,16,16)"/>
<path d="M62 58h1v1h-1v-1z" fill="rgb(16,16,16)"/>
<path d="M63 58h1v2h-2v-1h1v-1z" fill="rgb(230,213,172)"/>
<path d="M64 58h1v1h-1v-1z" fill="rgb(16,16,16)"/>
<path d="M39 59h1v1h-1v-1z" fill="rgb(65,90,32)"/>
<path d="M44 59h2v1h-2v-1z" fill="rgb(16,16,16)"/>
<path d="M46 59h3v1h-2v1h-2v1h-1v1h-1v-2h1v-1h2v-1z" fill="rgb(139,205,115)"/>
<path d="M49 59h2v5h-1v-4h-1v-1z" fill="rgb(16,16,16)"/>
<path d="M59 59h3v1h-3v-1z" fill="rgb(16,16,16)"/>
<path d="M64 59h1v1h-1v-1z" fill="rgb(65,90,32)"/>
<path d="M65 59h1v1h-1v-1z" fill="rgb(16,16,16)"/>
<path d="M26 60h1v6h-1v-6z" fill="rgb(115,115,115)"/>
<path d="M38 60h1v1h-1v-1z" fill="rgb(65,90,32)"/>
<path d="M43 60h1v1h-1v-1z" fill="rgb(16,16,16)"/>
<path d="M47 60h2v1h-2v-1z" fill="rgb(115,115,115)"/>
<path d="M49 60h1v1h-1v-1z" fill="rgb(139,205,115)"/>
<path d="M61 60h1v3h-1v-3z" fill="rgb(65,90,32)"/>
<path d="M62 60h1v1h-1v-1z" fill="rgb(16,16,16)"/>
<path d="M63 60h1v1h-1v-1z" fill="rgb(65,90,32)"/>
<path d="M64 60h2v2h1v2h1v2h1v2h1v1h-1v1h-5v-1h3v-1h1v-1h-1v-1h-1v-1h-2v1h-1v-3h-1v-2h2
	v-1z" fill="rgb(139,205,115)"/>
<path d="M66 60h1v2h-1v-2z" fill="rgb(16,16,16)"/>
<path d="M37 61h1v1h-1v-1z" fill="rgb(65,90,32)"/>
<path d="M38 61h1v2h-1v1h-2v-1h1v-1h1v-1z" fill="rgb(222,222,222)"/>
<path d="M39 61h1v2h-1v-2z" fill="rgb(65,90,32)"/>
<path d="M42 61h1v1h-1v-1z" fill="rgb(16,16,16)"/>
<path d="M45 61h2v1h-2v-1z" fill="rgb(115,115,115)"/>
<path d="M47 61h2v1h-2v-1z" fill="rgb(255,255,255)"/>
<path d="M49 61h1v1h-1v-1z" fill="rgb(65,90,32)"/>
<path d="M23 62h1v2h-1v-2z" fill="rgb(65,90,32)"/>
<path d="M24 62h1v2h-1v-2z" fill="rgb(189,230,115)"/>
<path d="M36 62h1v1h-1v-1z" fill="rgb(65,90,32)"/>
<path d="M41 62h1v1h-1v-1z" fill="rgb(16,16,16)"/>
<path d="M42 62h1v2h-1v1h-2v1h-3v-1h2v-1h2v-1h1v-1z" fill="rgb(189,230,115)"/>
<path d="M44 62h1v1h-1v-1z" fill="rgb(115,115,115)"/>
<path d="M45 62h2v1h-1v1h-1v2h-1v1h-1v1h-2v1h-3v1h-2v1h-1v1h-1v1h-1v-2h1v-1h1v-1h1v-1h2
	v-1h3v-1h1v-1h1v-1h1v-1h1v-1z" fill="rgb(255,255,255)"/>
<path d="M47 62h2v1h-2v-1z" fill="rgb(189,189,189)"/>
<path d="M49 62h1v2h-1v1h-1v2h-1v2h-2v1h-3v1h-2v1h-3v1h-2v-1h1v-1h2v-1h3v-1h2v-1h1v-1h1
	v-1h1v-2h1v-1h2v-1z" fill="rgb(255,255,255)"/>
<path d="M67 62h1v2h-1v-2z" fill="rgb(16,16,16)"/>
<path d="M35 63h1v1h-1v-1z" fill="rgb(65,90,32)"/>
<path d="M38 63h1v1h-1v-1z" fill="rgb(65,90,32)"/>
<path d="M39 63h2v1h-2v-1z" fill="rgb(16,16,16)"/>
<path d="M43 63h1v1h-1v-1z" fill="rgb(115,115,115)"/>
<path d="M46 63h1v1h-1v-1z" fill="rgb(189,189,189)"/>
<path d="M62 63h1v7h-1v-7z" fill="rgb(65,90,32)"/>
<path d="M24 64h1v2h-1v-2z" fill="rgb(65,90,32)"/>
<path d="M25 64h1v2h-1v-2z" fill="rgb(189,230,115)"/>
<path d="M36 64h1v1h-1v-1z" fill="rgb(65,90,32)"/>
<path d="M37 64h2v1h-2v-1z" fill="rgb(16,16,16)"/>
<path d="M42 64h1v1h-1v-1z" fill="rgb(115,115,115)"/>
<path d="M45 64h1v2h-1v-2z" fill="rgb(189,189,189)"/>
<path d="M49 64h1v1h-1v-1z" fill="rgb(115,115,115)"/>
<path d="M68 64h1v2h-1v-2z" fill="rgb(16,16,16)"/>
<path d="M35 65h2v1h-2v-1z" fill="rgb(16,16,16)"/>
<path d="M40 65h1v1h-1v-1z" fill="rgb(139,205,115)"/>
<path d="M41 65h1v1h-1v-1z" fill="rgb(115,115,115)"/>
<path d="M48 65h1v2h-1v-2z" fill="rgb(115,115,115)"/>
<path d="M64 65h2v1h1v1h1v1h-1v1h-3v-1h-1v-2h1v-1z" fill="rgb(189,230,115)"/>
<path d="M25 66h1v1h-1v-1z" fill="rgb(65,90,32)"/>
<path d="M33 66h2v1h-2v-1z" fill="rgb(16,16,16)"/>
<path d="M35 66h2v1h-2v-1z" fill="rgb(189,230,115)"/>
<path d="M37 66h1v1h-1v-1z" fill="rgb(139,205,115)"/>
<path d="M38 66h3v1h-3v-1z" fill="rgb(115,115,115)"/>
<path d="M44 66h1v1h-1v-1z" fill="rgb(189,189,189)"/>
<path d="M69 66h1v2h-1v-2z" fill="rgb(16,16,16)"/>
<path d="M32 67h1v1h-1v-1z" fill="rgb(65,90,32)"/>
<path d="M33 67h2v1h-1v1h-2v-1h1v-1z" fill="rgb(189,230,115)"/>
<path d="M35 67h1v1h-1v-1z" fill="rgb(139,205,115)"/>
<path d="M36 67h2v1h-2v-1z" fill="rgb(115,115,115)"/>
<path d="M43 67h1v1h-1v-1z" fill="rgb(189,189,189)"/>
<path d="M47 67h1v3h-3v-1h2v-2z" fill="rgb(115,115,115)"/>
<path d="M31 68h1v2h-1v-2z" fill="rgb(65,90,32)"/>
<path d="M34 68h1v1h-1v-1z" fill="rgb(139,205,115)"/>
<path d="M35 68h1v1h-1v-1z" fill="rgb(115,115,115)"/>
<path d="M41 68h2v1h-2v-1z" fill="rgb(189,189,189)"/>
<path d="M63 68h1v1h-1v-1z" fill="rgb(139,205,115)"/>
<path d="M70 68h1v2h-1v-2z" fill="rgb(16,16,16)"/>
<path d="M32 69h2v1h-1v1h-1v-2z" fill="rgb(139,205,115)"/>
<path d="M34 69h1v1h-1v-1z" fill="rgb(115,115,115)"/>
<path d="M38 69h3v1h-3v-1z" fill="rgb(189,189,189)"/>
<path d="M63 69h1v1h-1v-1z" fill="rgb(90,156,74)"/>
<path d="M69 69h1v1h-1v-1z" fill="rgb(90,156,74)"/>
<path d="M30 70h1v2h-1v-2z" fill="rgb(65,90,32)"/>
<path d="M31 70h1v1h-1v-1z" fill="rgb(189,230,115)"/>
<path d="M33 70h1v1h-1v-1z" fill="rgb(115,115,115)"/>
<path d="M36 70h2v1h-2v-1z" fill="rgb(189,189,189)"/>
<path d="M42 70h3v1h-3v-1z" fill="rgb(115,115,115)"/>
<path d="M61 70h1v3h-1v-3z" fill="rgb(65,90,32)"/>
<path d="M62 70h1v1h-1v-1z" fill="rgb(222,222,222)"/>
<path d="M63 70h1v2h-1v1h-1v-2h1v-1z" fill="rgb(255,255,255)"/>
<path d="M64 70h2v1h-2v-1z" fill="rgb(90,156,74)"/>
<path d="M66 70h1v3h-1v-3z" fill="rgb(255,255,255)"/>
<path d="M67 70h2v1h-2v-1z" fill="rgb(90,156,74)"/>
<path d="M69 70h1v1h1v2h-1v-1h-1v-2z" fill="rgb(255,255,255)"/>
<path d="M70 70h1v1h-1v-1z" fill="rgb(222,222,222)"/>
<path d="M71 70h1v4h-2v-1h1v-3z" fill="rgb(16,16,16)"/>
<path d="M31 71h1v2h-1v-2z" fill="rgb(139,205,115)"/>
<path d="M32 71h1v2h-1v-2z" fill="rgb(115,115,115)"/>
<path d="M35 71h1v1h-1v-1z" fill="rgb(189,189,189)"/>
<path d="M40 71h2v1h-2v-1z" fill="rgb(115,115,115)"/>
<path d="M64 71h1v2h-1v-2z" fill="rgb(65,90,32)"/>
<path d="M65 71h1v2h-1v-2z" fill="rgb(222,222,222)"/>
<path d="M67 71h1v2h-1v-2z" fill="rgb(222,222,222)"/>
<path d="M68 71h1v1h-1v-1z" fill="rgb(65,90,32)"/>
<path d="M29 72h1v5h-1v-5z" fill="rgb(65,90,32)"/>
<path d="M30 72h1v3h-1v-3z" fill="rgb(189,230,115)"/>
<path d="M34 72h1v1h-1v-1z" fill="rgb(189,189,189)"/>
<path d="M37 72h3v1h-3v-1z" fill="rgb(115,115,115)"/>
<path d="M63 72h1v1h-1v-1z" fill="rgb(16,16,16)"/>
<path d="M68 72h1v1h-1v-1z" fill="rgb(16,16,16)"/>
<path d="M69 72h1v1h-1v-1z" fill="rgb(65,90,32)"/>
<path d="M31 73h1v4h-1v-4z" fill="rgb(115,115,115)"/>
<path d="M32 73h1v1h-1v-1z" fill="rgb(255,255,255)"/>
<path d="M33 73h1v1h-1v-1z" fill="rgb(189,189,189)"/>
<path d="M34 73h1v1h-1v-1z" fill="rgb(255,255,255)"/>
<path d="M35 73h2v1h-2v-1z" fill="rgb(115,115,115)"/>
<path d="M61 73h2v1h-2v-1z" fill="rgb(16,16,16)"/>
<path d="M65 73h1v1h-1v-1z" fill="rgb(65,90,32)"/>
<path d="M66 73h1v1h-1v-1z" fill="rgb(222,222,222)"/>
<path d="M67 73h1v1h-1v-1z" fill="rgb(16,16,16)"/>
<path d="M32 74h1v3h-1v-3z" fill="rgb(189,189,189)"/>
<path d="M33 74h1v1h-1v-1z" fill="rgb(255,255,255)"/>
<path d="M34 74h1v1h-1v-1z" fill="rgb(115,115,115)"/>
<path d="M66 74h1v1h-1v-1z" fill="rgb(16,16,16)"/>
<path d="M30 75h1v2h-1v-2z" fill="rgb(139,205,115)"/>
<path d="M33 75h1v2h-1v-2z" fill="rgb(115,115,115)"/>
<path d="M30 77h1v3h-1v-3z" fill="rgb(65,90,32)"/>
<path d="M31 77h1v2h-1v-2z" fill="rgb(189,189,189)"/>
<path d="M32 77h1v2h-1v-2z" fill="rgb(115,115,115)"/>
<path d="M31 79h1v1h-1v-1z" fill="rgb(115,115,115)"/>
</svg>
