<?xml version="1.0" encoding="utf-8"?>
<!-- generated at drububu.com  -->
<!DOCTYPE svg PUBLIC "-//W3C//DTD SVG 1.1//EN" "http://www.w3.org/Graphics/SVG/1.1/DTD/svg11.dtd">
<svg version="1.1" preserveAspectRatio="xMinYMin meet" xmlns="http://www.w3.org/2000/svg" xmlns:xlink="http://www.w3.org/1999/xlink" x="0px" y="0px" width="96px" height="96px" viewBox="0 0 96 96">
<path d="M0 0h96v96h-96v-96z" fill="transparent"/>
<path d="M45 20h2v1h-2v-1z" fill="rgb(139,90,57)"/>
<path d="M47 20h4v1h-4v-1z" fill="rgb(222,172,49)"/>
<path d="M37 21h2v1h-2v-1z" fill="rgb(222,172,49)"/>
<path d="M39 21h2v1h-2v-1z" fill="rgb(139,90,57)"/>
<path d="M43 21h2v1h-2v-1z" fill="rgb(139,90,57)"/>
<path d="M45 21h6v1h2v1h2v2h1v1h1v5h-1v-1h-1v-1h-1v-1h-1v-1h-1v1h1v2h1v3h-1v-2h-1v-2h-2
	v-2h-1v-2h-1v-1h-1v-2h-2v-1z" fill="rgb(255,246,189)"/>
<path d="M51 21h2v1h-2v-1z" fill="rgb(222,172,49)"/>
<path d="M35 22h2v1h-2v-1z" fill="rgb(222,172,49)"/>
<path d="M37 22h1v2h-1v1h-1v2h-1v3h-1v1h-1v3h-1v-7h1v-2h1v-1h1v-1h2v-1z" fill="rgb(255,246,189)"/>
<path d="M38 22h2v1h-1v1h-1v-2z" fill="rgb(255,230,82)"/>
<path d="M40 22h1v2h-1v1h-2v-1h1v-1h1v-1z" fill="rgb(222,172,49)"/>
<path d="M41 22h2v1h-2v-1z" fill="rgb(139,90,57)"/>
<path d="M43 22h4v2h-3v1h-1v1h-1v1h-1v-1h-1v-2h1v-1h2v-1z" fill="rgb(255,230,82)"/>
<path d="M53 22h2v1h-2v-1z" fill="rgb(222,172,49)"/>
<path d="M34 23h1v1h-1v-1z" fill="rgb(139,90,57)"/>
<path d="M55 23h1v1h-1v-1z" fill="rgb(222,172,49)"/>
<path d="M33 24h1v1h-1v-1z" fill="rgb(139,90,57)"/>
<path d="M37 24h1v2h-1v1h-1v-2h1v-1z" fill="rgb(255,230,82)"/>
<path d="M44 24h3v1h-3v-1z" fill="rgb(24,24,16)"/>
<path d="M47 24h1v1h-1v-1z" fill="rgb(255,230,82)"/>
<path d="M55 24h1v1h-1v-1z" fill="rgb(255,230,82)"/>
<path d="M56 24h1v1h-1v-1z" fill="rgb(222,172,49)"/>
<path d="M32 25h1v2h-1v-2z" fill="rgb(139,90,57)"/>
<path d="M38 25h2v1h-2v-1z" fill="rgb(24,24,16)"/>
<path d="M43 25h1v1h-1v-1z" fill="rgb(24,24,16)"/>
<path d="M44 25h1v1h-1v-1z" fill="rgb(222,172,49)"/>
<path d="M45 25h1v1h-1v-1z" fill="rgb(139,90,57)"/>
<path d="M46 25h1v2h-1v1h-1v-2h1v-1z" fill="rgb(222,172,49)"/>
<path d="M47 25h1v1h-1v-1z" fill="rgb(24,24,16)"/>
<path d="M48 25h1v1h-1v-1z" fill="rgb(255,230,82)"/>
<path d="M56 25h1v1h-1v-1z" fill="rgb(255,230,82)"/>
<path d="M57 25h1v1h-1v-1z" fill="rgb(139,90,57)"/>
<path d="M37 26h1v1h-1v-1z" fill="rgb(24,24,16)"/>
<path d="M38 26h2v1h1v1h-2v-1h-1v-1z" fill="rgb(222,172,49)"/>
<path d="M40 26h1v1h-1v-1z" fill="rgb(24,24,16)"/>
<path d="M42 26h1v2h-2v-1h1v-1z" fill="rgb(24,24,16)"/>
<path d="M43 26h1v2h-1v-2z" fill="rgb(222,172,49)"/>
<path d="M44 26h1v2h-1v-2z" fill="rgb(139,90,57)"/>
<path d="M47 26h1v1h-1v-1z" fill="rgb(139,90,57)"/>
<path d="M48 26h1v1h-1v-1z" fill="rgb(24,24,16)"/>
<path d="M57 26h1v1h1v2h1v4h-1v-2h-1v-1h-1v-4z" fill="rgb(255,230,82)"/>
<path d="M58 26h1v1h-1v-1z" fill="rgb(139,90,57)"/>
<path d="M71 26h1v1h-1v-1z" fill="rgb(24,24,16)"/>
<path d="M31 27h1v2h-1v-2z" fill="rgb(139,90,57)"/>
<path d="M35 27h1v3h-1v-3z" fill="rgb(255,230,82)"/>
<path d="M36 27h1v3h-1v-3z" fill="rgb(24,24,16)"/>
<path d="M37 27h2v1h-2v-1z" fill="rgb(139,90,57)"/>
<path d="M46 27h1v1h-1v-1z" fill="rgb(139,90,57)"/>
<path d="M47 27h2v1h-2v-1z" fill="rgb(222,172,49)"/>
<path d="M49 27h1v2h-1v-2z" fill="rgb(24,24,16)"/>
<path d="M52 27h1v1h-1v-1z" fill="rgb(255,230,82)"/>
<path d="M59 27h1v2h-1v-2z" fill="rgb(139,90,57)"/>
<path d="M70 27h1v2h-1v-2z" fill="rgb(24,24,16)"/>
<path d="M71 27h1v2h-1v-2z" fill="rgb(180,106,222)"/>
<path d="M72 27h1v3h-2v-1h1v-2z" fill="rgb(24,24,16)"/>
<path d="M37 28h2v1h-2v-1z" fill="rgb(222,172,49)"/>
<path d="M39 28h1v1h-1v-1z" fill="rgb(139,90,57)"/>
<path d="M40 28h2v1h-2v-1z" fill="rgb(98,65,131)"/>
<path d="M42 28h5v1h-5v-1z" fill="rgb(148,74,189)"/>
<path d="M47 28h2v1h-2v-1z" fill="rgb(139,90,57)"/>
<path d="M53 28h1v1h1v1h-2v-2z" fill="rgb(255,230,82)"/>
<path d="M30 29h1v4h-1v-4z" fill="rgb(139,90,57)"/>
<path d="M31 29h1v9h-1v2h1v3h-1v-2h-1v-8h1v-4z" fill="rgb(255,230,82)"/>
<path d="M37 29h1v1h-1v-1z" fill="rgb(139,90,57)"/>
<path d="M38 29h1v2h-2v-1h1v-1z" fill="rgb(98,65,131)"/>
<path d="M39 29h2v1h-1v1h-1v-2z" fill="rgb(148,74,189)"/>
<path d="M41 29h6v1h-3v5h-2v-1h-1v-2h-1v-2h1v-1z" fill="rgb(180,106,222)"/>
<path d="M47 29h3v3h1v3h1v4h-1v-1h-5v1h-1v-1h-1v-2h-1v-1h1v-2h1v1h2v-1h1v-3h-1v-1z" fill="rgb(148,74,189)"/>
<path d="M50 29h1v2h-1v-2z" fill="rgb(24,24,16)"/>
<path d="M51 29h1v2h-1v-2z" fill="rgb(255,230,82)"/>
<path d="M60 29h1v2h-1v-2z" fill="rgb(139,90,57)"/>
<path d="M65 29h2v1h-2v-1z" fill="rgb(24,24,16)"/>
<path d="M69 29h1v2h-1v-2z" fill="rgb(24,24,16)"/>
<path d="M70 29h1v5h-3v-1h-2v-1h3v-1h1v-2z" fill="rgb(98,65,131)"/>
<path d="M34 30h1v13h-1v-3h-1v-6h1v-4z" fill="rgb(255,230,82)"/>
<path d="M35 30h1v10h-1v-10z" fill="rgb(24,24,16)"/>
<path d="M36 30h1v1h-1v-1z" fill="rgb(139,90,57)"/>
<path d="M44 30h1v1h-1v-1z" fill="rgb(148,74,189)"/>
<path d="M45 30h2v1h-2v-1z" fill="rgb(197,197,213)"/>
<path d="M47 30h1v1h-1v-1z" fill="rgb(180,106,222)"/>
<path d="M54 30h1v2h-1v-2z" fill="rgb(222,172,49)"/>
<path d="M55 30h1v1h2v2h1v3h-1v1h-1v-2h-1v-3h-1v-2z" fill="rgb(255,230,82)"/>
<path d="M57 30h1v1h-1v-1z" fill="rgb(222,172,49)"/>
<path d="M64 30h1v2h-1v-2z" fill="rgb(24,24,16)"/>
<path d="M65 30h1v1h-1v-1z" fill="rgb(148,74,189)"/>
<path d="M66 30h1v1h-1v-1z" fill="rgb(180,106,222)"/>
<path d="M67 30h1v1h1v1h-2v-2z" fill="rgb(24,24,16)"/>
<path d="M71 30h1v1h-1v-1z" fill="rgb(180,106,222)"/>
<path d="M72 30h1v1h-1v-1z" fill="rgb(148,74,189)"/>
<path d="M73 30h1v2h-1v-2z" fill="rgb(24,24,16)"/>
<path d="M33 31h1v3h-1v-3z" fill="rgb(222,172,49)"/>
<path d="M36 31h1v2h-1v-2z" fill="rgb(98,65,131)"/>
<path d="M37 31h1v1h-1v-1z" fill="rgb(148,74,189)"/>
<path d="M38 31h2v1h-2v-1z" fill="rgb(197,197,213)"/>
<path d="M44 31h1v2h-1v-2z" fill="rgb(197,197,213)"/>
<path d="M45 31h2v2h-1v-1h-1v-1z" fill="rgb(255,255,255)"/>
<path d="M47 31h1v2h-1v-2z" fill="rgb(197,197,213)"/>
<path d="M50 31h1v1h-1v-1z" fill="rgb(98,65,131)"/>
<path d="M51 31h1v4h-1v-4z" fill="rgb(24,24,16)"/>
<path d="M52 31h1v2h1v-1h1v8h-1v1h-1v-6h-1v-4z" fill="rgb(255,230,82)"/>
<path d="M58 31h1v2h-1v-2z" fill="rgb(222,172,49)"/>
<path d="M60 31h1v3h1v3h-1v-1h-1v-2h-1v-1h1v-2z" fill="rgb(222,172,49)"/>
<path d="M61 31h1v3h-1v-3z" fill="rgb(139,90,57)"/>
<path d="M65 31h1v1h-1v-1z" fill="rgb(98,65,131)"/>
<path d="M66 31h1v1h-1v-1z" fill="rgb(148,74,189)"/>
<path d="M71 31h1v2h1v1h-2v-3z" fill="rgb(24,24,16)"/>
<path d="M72 31h1v1h-1v-1z" fill="rgb(98,65,131)"/>
<path d="M37 32h1v2h-1v-2z" fill="rgb(197,197,213)"/>
<path d="M38 32h2v2h-1v-1h-1v-1z" fill="rgb(255,255,255)"/>
<path d="M40 32h1v2h-1v-2z" fill="rgb(197,197,213)"/>
<path d="M45 32h1v1h-1v-1z" fill="rgb(24,24,16)"/>
<path d="M55 32h1v2h-1v-2z" fill="rgb(222,172,49)"/>
<path d="M65 32h1v1h-1v-1z" fill="rgb(24,24,16)"/>
<path d="M72 32h1v1h-1v-1z" fill="rgb(180,106,222)"/>
<path d="M73 32h1v1h-1v-1z" fill="rgb(148,74,189)"/>
<path d="M74 32h1v2h-1v-2z" fill="rgb(24,24,16)"/>
<path d="M29 33h1v8h-1v-8z" fill="rgb(139,90,57)"/>
<path d="M36 33h1v1h1v1h1v1h-1v3h1v1h-2v-2h-1v-5z" fill="rgb(148,74,189)"/>
<path d="M38 33h1v1h-1v-1z" fill="rgb(24,24,16)"/>
<path d="M45 33h2v1h-2v-1z" fill="rgb(197,197,213)"/>
<path d="M66 33h1v3h-1v-3z" fill="rgb(24,24,16)"/>
<path d="M67 33h1v1h-1v-1z" fill="rgb(148,74,189)"/>
<path d="M73 33h1v1h-1v-1z" fill="rgb(98,65,131)"/>
<path d="M32 34h1v4h-1v-4z" fill="rgb(222,172,49)"/>
<path d="M38 34h2v1h-2v-1z" fill="rgb(197,197,213)"/>
<path d="M40 34h2v1h-2v-1z" fill="rgb(131,41,74)"/>
<path d="M55 34h1v1h-1v-1z" fill="rgb(139,90,57)"/>
<path d="M59 34h1v2h-1v-2z" fill="rgb(139,90,57)"/>
<path d="M62 34h1v3h-1v-3z" fill="rgb(139,90,57)"/>
<path d="M67 34h1v1h-1v-1z" fill="rgb(98,65,131)"/>
<path d="M68 34h2v3h-2v-1h-1v-1h1v-1z" fill="rgb(148,74,189)"/>
<path d="M70 34h1v1h-1v-1z" fill="rgb(24,24,16)"/>
<path d="M71 34h1v1h-1v-1z" fill="rgb(180,106,222)"/>
<path d="M72 34h1v2h-2v1h-1v-2h2v-1z" fill="rgb(98,65,131)"/>
<path d="M73 34h1v2h-1v-2z" fill="rgb(24,24,16)"/>
<path d="M39 35h1v1h-1v-1z" fill="rgb(131,41,74)"/>
<path d="M40 35h1v1h-1v-1z" fill="rgb(255,255,255)"/>
<path d="M41 35h1v1h1v2h1v2h-1v1h-2v-1h1v-3h-1v-2z" fill="rgb(255,115,115)"/>
<path d="M42 35h1v1h-1v-1z" fill="rgb(131,41,74)"/>
<path d="M52 35h1v10h-1v-10z" fill="rgb(24,24,16)"/>
<path d="M55 35h1v3h1v7h-1v2h-1v-3h1v-5h-1v-4z" fill="rgb(222,172,49)"/>
<path d="M56 35h1v3h-1v-3z" fill="rgb(139,90,57)"/>
<path d="M19 36h2v1h-2v-1z" fill="rgb(24,24,16)"/>
<path d="M38 36h1v3h-1v-3z" fill="rgb(131,41,74)"/>
<path d="M39 36h1v3h-1v-3z" fill="rgb(255,115,115)"/>
<path d="M40 36h1v1h1v3h-1v-1h-1v-3z" fill="rgb(189,49,98)"/>
<path d="M43 36h1v2h-1v-2z" fill="rgb(131,41,74)"/>
<path d="M58 36h2v2h1v7h-1v4h-1v-2h-1v2h-1v2h-1v2h-1v-3h1v-3h1v-2h1v-7h-1v-1h1v-1z" fill="rgb(222,172,49)"/>
<path d="M60 36h1v2h-1v-2z" fill="rgb(139,90,57)"/>
<path d="M64 36h2v1h-2v-1z" fill="rgb(98,98,123)"/>
<path d="M66 36h1v2h-2v1h-2v1h-1v-2h2v-1h2v-1z" fill="rgb(255,255,255)"/>
<path d="M67 36h1v1h-1v-1z" fill="rgb(24,24,16)"/>
<path d="M71 36h2v1h-2v-1z" fill="rgb(24,24,16)"/>
<path d="M18 37h1v2h-1v-2z" fill="rgb(24,24,16)"/>
<path d="M19 37h2v1h-2v-1z" fill="rgb(180,106,222)"/>
<path d="M21 37h1v2h-1v2h-2v-1h1v-2h1v-1z" fill="rgb(24,24,16)"/>
<path d="M61 37h3v1h-3v-1z" fill="rgb(98,98,123)"/>
<path d="M67 37h1v2h-1v1h-3v1h-1v1h-1v-2h1v-1h2v-1h2v-1z" fill="rgb(197,197,213)"/>
<path d="M68 37h3v1h-2v1h-1v-2z" fill="rgb(24,24,16)"/>
<path d="M19 38h1v1h-1v-1z" fill="rgb(98,65,131)"/>
<path d="M25 38h2v1h-2v-1z" fill="rgb(24,24,16)"/>
<path d="M31 38h1v2h-1v-2z" fill="rgb(222,172,49)"/>
<path d="M32 38h1v5h-1v-5z" fill="rgb(139,90,57)"/>
<path d="M36 38h1v2h-1v-2z" fill="rgb(98,65,131)"/>
<path d="M44 38h1v1h-1v-1z" fill="rgb(131,41,74)"/>
<path d="M46 38h5v1h-5v-1z" fill="rgb(131,41,74)"/>
<path d="M57 38h1v7h-1v-7z" fill="rgb(139,90,57)"/>
<path d="M61 38h1v7h-1v-7z" fill="rgb(139,90,57)"/>
<path d="M17 39h1v2h-1v-2z" fill="rgb(24,24,16)"/>
<path d="M18 39h2v1h-2v-1z" fill="rgb(148,74,189)"/>
<path d="M21 39h1v1h1v1h3v1h-2v1h-1v1h-1v-3h-1v-2z" fill="rgb(98,65,131)"/>
<path d="M22 39h1v1h-1v-1z" fill="rgb(24,24,16)"/>
<path d="M24 39h1v2h-2v-1h1v-1z" fill="rgb(24,24,16)"/>
<path d="M25 39h1v1h-1v-1z" fill="rgb(180,106,222)"/>
<path d="M26 39h1v1h-1v-1z" fill="rgb(148,74,189)"/>
<path d="M27 39h1v2h-1v-2z" fill="rgb(24,24,16)"/>
<path d="M39 39h1v2h-1v-2z" fill="rgb(24,24,16)"/>
<path d="M40 39h1v1h-1v-1z" fill="rgb(255,115,115)"/>
<path d="M44 39h1v1h-1v-1z" fill="rgb(24,24,16)"/>
<path d="M45 39h1v1h-1v-1z" fill="rgb(131,41,74)"/>
<path d="M46 39h2v1h-1v1h-1v1h-1v-2h1v-1z" fill="rgb(255,230,82)"/>
<path d="M48 39h3v1h-3v-1z" fill="rgb(222,172,49)"/>
<path d="M51 39h1v1h-1v-1z" fill="rgb(131,41,74)"/>
<path d="M55 39h1v5h-1v-5z" fill="rgb(139,90,57)"/>
<path d="M67 39h1v1h-1v-1z" fill="rgb(24,24,16)"/>
<path d="M18 40h1v1h-1v-1z" fill="rgb(98,65,131)"/>
<path d="M25 40h1v1h-1v-1z" fill="rgb(148,74,189)"/>
<path d="M26 40h1v1h-1v-1z" fill="rgb(98,65,131)"/>
<path d="M33 40h1v3h-1v-3z" fill="rgb(222,172,49)"/>
<path d="M35 40h1v5h1v2h1v2h1v1h1v1h1v1h-2v-1h-1v-1h-1v-1h-1v-1h-1v-2h-1v-3h1v-3z" fill="rgb(222,172,49)"/>
<path d="M36 40h1v5h-1v-5z" fill="rgb(24,24,16)"/>
<path d="M37 40h2v1h-2v-1z" fill="rgb(131,41,74)"/>
<path d="M40 40h1v1h-1v-1z" fill="rgb(131,41,74)"/>
<path d="M43 40h1v1h-1v-1z" fill="rgb(24,24,16)"/>
<path d="M44 40h1v1h-1v-1z" fill="rgb(148,74,189)"/>
<path d="M47 40h4v1h-4v-1z" fill="rgb(139,90,57)"/>
<path d="M51 40h1v1h-1v-1z" fill="rgb(222,172,49)"/>
<path d="M54 40h1v4h-1v3h-1v1h-1v1h-1v-2h1v-2h1v-4h1v-1z" fill="rgb(222,172,49)"/>
<path d="M64 40h2v1h-2v-1z" fill="rgb(98,98,123)"/>
<path d="M66 40h1v1h-1v-1z" fill="rgb(24,24,16)"/>
<path d="M18 41h1v4h-1v-4z" fill="rgb(24,24,16)"/>
<path d="M19 41h2v1h-2v-1z" fill="rgb(148,74,189)"/>
<path d="M21 41h1v3h-1v-1h-1v-1h1v-1z" fill="rgb(24,24,16)"/>
<path d="M26 41h1v1h-1v-1z" fill="rgb(24,24,16)"/>
<path d="M30 41h1v3h-1v-3z" fill="rgb(24,24,16)"/>
<path d="M37 41h1v1h-1v-1z" fill="rgb(222,172,49)"/>
<path d="M38 41h2v1h-2v-1z" fill="rgb(255,230,82)"/>
<path d="M40 41h3v1h-3v-1z" fill="rgb(24,24,16)"/>
<path d="M43 41h1v1h-1v-1z" fill="rgb(148,74,189)"/>
<path d="M44 41h1v1h-1v-1z" fill="rgb(139,90,57)"/>
<path d="M46 41h1v1h-1v-1z" fill="rgb(139,90,57)"/>
<path d="M47 41h1v2h-1v1h-1v-2h1v-1z" fill="rgb(255,115,115)"/>
<path d="M48 41h3v1h1v3h-1v1h-1v1h-4v-3h1v-1h1v-2z" fill="rgb(246,49,90)"/>
<path d="M51 41h1v1h-1v-1z" fill="rgb(139,90,57)"/>
<path d="M63 41h1v1h-1v-1z" fill="rgb(98,98,123)"/>
<path d="M64 41h1v2h-1v-2z" fill="rgb(197,197,213)"/>
<path d="M65 41h1v2h-1v-2z" fill="rgb(24,24,16)"/>
<path d="M19 42h1v1h-1v-1z" fill="rgb(98,65,131)"/>
<path d="M24 42h1v3h-1v1h-2v-2h1v-1h1v-1z" fill="rgb(148,74,189)"/>
<path d="M25 42h1v3h-1v-3z" fill="rgb(24,24,16)"/>
<path d="M37 42h3v1h-3v-1z" fill="rgb(139,90,57)"/>
<path d="M40 42h2v1h2v-1h1v2h-1v1h-2v-1h-1v-1h-1v-1z" fill="rgb(255,230,82)"/>
<path d="M42 42h2v1h-2v-1z" fill="rgb(131,41,74)"/>
<path d="M45 42h1v2h-1v-2z" fill="rgb(139,90,57)"/>
<path d="M62 42h1v1h-1v-1z" fill="rgb(98,98,123)"/>
<path d="M63 42h1v1h-1v-1z" fill="rgb(255,255,255)"/>
<path d="M19 43h2v1h-2v-1z" fill="rgb(180,106,222)"/>
<path d="M26 43h1v1h-1v-1z" fill="rgb(98,98,123)"/>
<path d="M31 43h2v3h1v2h1v1h-2v-2h-1v-3h-1v-1z" fill="rgb(222,172,49)"/>
<path d="M33 43h1v3h-1v-3z" fill="rgb(139,90,57)"/>
<path d="M37 43h1v1h1v1h2v2h-1v1h-1v-1h-1v-2h-1v-2z" fill="rgb(246,49,90)"/>
<path d="M38 43h2v1h1v1h-2v-1h-1v-1z" fill="rgb(255,115,115)"/>
<path d="M40 43h1v1h-1v-1z" fill="rgb(139,90,57)"/>
<path d="M62 43h1v1h-1v-1z" fill="rgb(255,255,255)"/>
<path d="M63 43h1v1h-1v-1z" fill="rgb(197,197,213)"/>
<path d="M64 43h1v2h-1v-2z" fill="rgb(24,24,16)"/>
<path d="M19 44h3v2h-1v-1h-2v-1z" fill="rgb(98,65,131)"/>
<path d="M26 44h1v1h2v1h2v1h1v1h-3v-1h-4v-2h1v-1z" fill="rgb(255,255,255)"/>
<path d="M27 44h2v1h-2v-1z" fill="rgb(98,98,123)"/>
<path d="M31 44h1v3h-1v-3z" fill="rgb(24,24,16)"/>
<path d="M41 44h1v1h-1v-1z" fill="rgb(139,90,57)"/>
<path d="M44 44h1v2h1v1h-3v1h-1v1h-1v1h-1v-2h1v-1h1v-2h2v-1z" fill="rgb(222,172,49)"/>
<path d="M45 44h1v2h-1v-2z" fill="rgb(131,41,74)"/>
<path d="M54 44h1v3h-1v-3z" fill="rgb(139,90,57)"/>
<path d="M62 44h1v1h-1v-1z" fill="rgb(197,197,213)"/>
<path d="M63 44h1v1h-1v-1z" fill="rgb(98,98,123)"/>
<path d="M19 45h2v1h-2v-1z" fill="rgb(24,24,16)"/>
<path d="M24 45h1v2h-4v-1h3v-1z" fill="rgb(24,24,16)"/>
<path d="M29 45h2v1h-2v-1z" fill="rgb(98,98,123)"/>
<path d="M37 45h1v2h-1v-2z" fill="rgb(24,24,16)"/>
<path d="M41 45h1v2h-1v-2z" fill="rgb(131,41,74)"/>
<path d="M51 45h1v2h-1v-2z" fill="rgb(24,24,16)"/>
<path d="M56 45h1v2h-1v-2z" fill="rgb(139,90,57)"/>
<path d="M60 45h1v2h-1v-2z" fill="rgb(139,90,57)"/>
<path d="M61 45h3v4h-1v-3h-2v-1z" fill="rgb(24,24,16)"/>
<path d="M34 46h1v2h-1v-2z" fill="rgb(139,90,57)"/>
<path d="M50 46h1v1h-1v-1z" fill="rgb(131,41,74)"/>
<path d="M61 46h2v3h-1v2h-1v-1h-1v-1h1v-3z" fill="rgb(222,172,49)"/>
<path d="M25 47h1v1h-1v-1z" fill="rgb(24,24,16)"/>
<path d="M26 47h3v1h1v1h-1v1h-1v-1h-1v-1h-1v-1z" fill="rgb(197,197,213)"/>
<path d="M32 47h1v2h-1v-2z" fill="rgb(24,24,16)"/>
<path d="M38 47h1v2h-1v-2z" fill="rgb(24,24,16)"/>
<path d="M40 47h1v1h-1v-1z" fill="rgb(131,41,74)"/>
<path d="M43 47h3v1h-3v-1z" fill="rgb(24,24,16)"/>
<path d="M46 47h4v1h-4v-1z" fill="rgb(222,172,49)"/>
<path d="M50 47h1v2h-1v1h-1v-1h-2v3h-1v-4h4v-1z" fill="rgb(24,24,16)"/>
<path d="M53 47h1v1h-1v-1z" fill="rgb(139,90,57)"/>
<path d="M54 47h1v2h-1v2h-1v1h-2v-1h1v-1h1v-2h1v-1z" fill="rgb(222,172,49)"/>
<path d="M55 47h1v2h-1v-2z" fill="rgb(139,90,57)"/>
<path d="M58 47h1v2h-1v-2z" fill="rgb(139,90,57)"/>
<path d="M60 47h1v2h-1v-2z" fill="rgb(24,24,16)"/>
<path d="M26 48h1v1h-1v-1z" fill="rgb(24,24,16)"/>
<path d="M30 48h2v1h-2v-1z" fill="rgb(98,98,123)"/>
<path d="M35 48h1v1h-1v-1z" fill="rgb(139,90,57)"/>
<path d="M39 48h1v1h-1v-1z" fill="rgb(131,41,74)"/>
<path d="M42 48h1v1h-1v-1z" fill="rgb(24,24,16)"/>
<path d="M43 48h3v4h-1v-1h-3v-2h1v-1z" fill="rgb(189,49,98)"/>
<path d="M52 48h1v1h-1v-1z" fill="rgb(139,90,57)"/>
<path d="M27 49h1v1h-1v-1z" fill="rgb(24,24,16)"/>
<path d="M29 49h1v1h-1v-1z" fill="rgb(98,98,123)"/>
<path d="M30 49h3v1h-3v-1z" fill="rgb(255,255,255)"/>
<path d="M33 49h2v1h-2v-1z" fill="rgb(24,24,16)"/>
<path d="M35 49h1v1h-1v-1z" fill="rgb(222,172,49)"/>
<path d="M36 49h1v1h-1v-1z" fill="rgb(139,90,57)"/>
<path d="M39 49h1v1h-1v-1z" fill="rgb(24,24,16)"/>
<path d="M41 49h1v1h-1v-1z" fill="rgb(24,24,16)"/>
<path d="M47 49h2v1h-1v1h1v1h2v1h2v-1h1v2h2v-1h1v1h1v-1h1v-2h2v1h1v1h2v1h-1v1h1v1h1v1h-2
	v-1h-1v-1h-1v1h1v1h1v1h2v2h1v1h2v2h1v1h1v1h1v2h-1v2h-1v1h-3v-1h-2v1h-2v-1h1v-1
	h3v-1h1v-1h-2v-1h-1v-1h-1v-1h-1v-1h-1v-1h-1v-1h-1v-2h-1v-1h-1v3h-1v-2h-1v1h-2
	v1h-2v1h-1v1h1v1h-1v1h1v-1h1v1h1v1h-1v2h1v1h1v1h1v1h1v1h4v1h-5v-1h-4v-1h-3v-3
	h-1v-1h-1v-9h1v-8z" fill="rgb(189,49,98)"/>
<path d="M50 49h1v1h-1v-1z" fill="rgb(222,172,49)"/>
<path d="M51 49h1v1h-1v-1z" fill="rgb(139,90,57)"/>
<path d="M52 49h1v1h-1v-1z" fill="rgb(24,24,16)"/>
<path d="M54 49h1v1h-1v-1z" fill="rgb(139,90,57)"/>
<path d="M55 49h1v1h-1v-1z" fill="rgb(24,24,16)"/>
<path d="M57 49h1v2h-1v-2z" fill="rgb(139,90,57)"/>
<path d="M58 49h1v3h-1v-3z" fill="rgb(222,172,49)"/>
<path d="M59 49h1v1h1v1h-2v-2z" fill="rgb(24,24,16)"/>
<path d="M62 49h1v1h-1v-1z" fill="rgb(139,90,57)"/>
<path d="M28 50h2v1h-2v-1z" fill="rgb(24,24,16)"/>
<path d="M30 50h1v1h-1v-1z" fill="rgb(98,98,123)"/>
<path d="M31 50h2v1h-2v-1z" fill="rgb(197,197,213)"/>
<path d="M33 50h1v1h-1v-1z" fill="rgb(98,98,123)"/>
<path d="M34 50h1v1h-1v-1z" fill="rgb(222,172,49)"/>
<path d="M35 50h1v1h-1v-1z" fill="rgb(24,24,16)"/>
<path d="M36 50h1v1h-1v-1z" fill="rgb(222,172,49)"/>
<path d="M37 50h1v1h-1v-1z" fill="rgb(139,90,57)"/>
<path d="M40 50h1v1h-1v-1z" fill="rgb(24,24,16)"/>
<path d="M41 50h1v1h-1v-1z" fill="rgb(131,41,74)"/>
<path d="M48 50h1v1h-1v-1z" fill="rgb(24,24,16)"/>
<path d="M49 50h1v1h-1v-1z" fill="rgb(222,172,49)"/>
<path d="M50 50h1v1h-1v-1z" fill="rgb(139,90,57)"/>
<path d="M51 50h1v1h-1v-1z" fill="rgb(24,24,16)"/>
<path d="M54 50h1v3h1v1h-2v-2h-1v-1h1v-1z" fill="rgb(24,24,16)"/>
<path d="M62 50h1v2h1v1h-2v-1h-1v-1h1v-1z" fill="rgb(24,24,16)"/>
<path d="M30 51h5v1h-5v-1z" fill="rgb(24,24,16)"/>
<path d="M35 51h1v1h-1v-1z" fill="rgb(222,172,49)"/>
<path d="M36 51h1v1h1v1h-2v1h-1v-2h1v-1z" fill="rgb(24,24,16)"/>
<path d="M37 51h1v1h-1v-1z" fill="rgb(222,172,49)"/>
<path d="M38 51h1v1h-1v-1z" fill="rgb(24,24,16)"/>
<path d="M41 51h1v1h-1v-1z" fill="rgb(24,24,16)"/>
<path d="M42 51h3v1h1v4h-1v2h-1v2h-1v-3h-1v-6z" fill="rgb(246,49,90)"/>
<path d="M49 51h2v1h-2v-1z" fill="rgb(24,24,16)"/>
<path d="M56 51h1v1h-1v-1z" fill="rgb(139,90,57)"/>
<path d="M57 51h1v1h-1v-1z" fill="rgb(24,24,16)"/>
<path d="M38 52h1v1h-1v-1z" fill="rgb(222,172,49)"/>
<path d="M39 52h2v1h-2v-1z" fill="rgb(24,24,16)"/>
<path d="M41 52h1v6h-1v-6z" fill="rgb(131,41,74)"/>
<path d="M46 52h1v5h-1v-5z" fill="rgb(131,41,74)"/>
<path d="M51 52h2v1h-2v-1z" fill="rgb(24,24,16)"/>
<path d="M56 52h1v1h-1v-1z" fill="rgb(24,24,16)"/>
<path d="M57 52h1v1h-1v-1z" fill="rgb(222,172,49)"/>
<path d="M58 52h1v1h-1v-1z" fill="rgb(24,24,16)"/>
<path d="M36 53h2v1h1v-1h2v5h-1v-1h-1v-1h-1v-1h-1v-1h-1v-1z" fill="rgb(189,49,98)"/>
<path d="M38 53h1v1h-1v-1z" fill="rgb(24,24,16)"/>
<path d="M57 53h1v1h-1v-1z" fill="rgb(24,24,16)"/>
<path d="M64 53h1v1h-1v-1z" fill="rgb(24,24,16)"/>
<path d="M34 54h1v1h-1v-1z" fill="rgb(131,41,74)"/>
<path d="M35 54h2v1h1v1h1v2h-1v1h-1v-2h-1v1h-1v2h-1v-1h-1v1h-4v-1h3v-1h1v-1h1v-2h1v-1z" fill="rgb(246,49,90)"/>
<path d="M63 54h2v1h1v1h2v1h2v1h-4v-1h-1v-1h-1v-1h-1v-1z" fill="rgb(246,49,90)"/>
<path d="M65 54h1v1h-1v-1z" fill="rgb(24,24,16)"/>
<path d="M33 55h1v1h-1v-1z" fill="rgb(131,41,74)"/>
<path d="M61 55h1v1h-1v-1z" fill="rgb(131,41,74)"/>
<path d="M66 55h2v1h-2v-1z" fill="rgb(24,24,16)"/>
<path d="M32 56h1v1h-1v-1z" fill="rgb(131,41,74)"/>
<path d="M33 56h1v1h-1v-1z" fill="rgb(255,115,115)"/>
<path d="M45 56h1v5h-1v5h1v2h-3v1h-2v-1h-1v-1h-1v-1h-1v1h-1v1h1v1h-2v-1h-1v-2h1v-1h2v-1
	h1v-1h1v-2h1v-3h1v-1h1v3h1v-2h1v-2z" fill="rgb(255,115,115)"/>
<path d="M62 56h1v1h-1v-1z" fill="rgb(131,41,74)"/>
<path d="M68 56h2v1h-2v-1z" fill="rgb(24,24,16)"/>
<path d="M31 57h1v1h-1v-1z" fill="rgb(131,41,74)"/>
<path d="M32 57h1v1h-1v-1z" fill="rgb(255,115,115)"/>
<path d="M36 57h1v2h1v-1h1v-1h1v4h-1v2h-1v1h-2v-1h-1v1h-2v-1h1v-1h1v-1h-1v-1h1v-2h1v-1z" fill="rgb(255,115,115)"/>
<path d="M57 57h1v1h1v2h1v1h1v1h1v1h1v1h1v1h1v1h2v1h-1v1h-3v1h-1v1h-1v1h-5v-1h-1v-1h-1
	v-1h-1v-1h-1v-2h1v-1h-1v-1h1v-1h-1v-1h-1v-1h2v-1h2v-1h1v2h1v-3z" fill="rgb(246,49,90)"/>
<path d="M63 57h2v1h-2v-1z" fill="rgb(131,41,74)"/>
<path d="M65 57h1v1h-1v-1z" fill="rgb(189,49,98)"/>
<path d="M70 57h1v2h-3v1h-1v-1h-1v-1h4v-1z" fill="rgb(24,24,16)"/>
<path d="M29 58h2v1h-2v-1z" fill="rgb(131,41,74)"/>
<path d="M31 58h1v1h-1v-1z" fill="rgb(255,115,115)"/>
<path d="M40 58h1v3h-1v-3z" fill="rgb(131,41,74)"/>
<path d="M65 58h1v2h-1v-2z" fill="rgb(131,41,74)"/>
<path d="M28 59h1v1h3v1h-4v-2z" fill="rgb(24,24,16)"/>
<path d="M33 59h1v1h-1v-1z" fill="rgb(131,41,74)"/>
<path d="M66 59h1v1h-1v-1z" fill="rgb(246,49,90)"/>
<path d="M32 60h1v1h-1v-1z" fill="rgb(131,41,74)"/>
<path d="M33 60h1v1h-1v-1z" fill="rgb(246,49,90)"/>
<path d="M57 60h1v2h-1v-2z" fill="rgb(189,49,98)"/>
<path d="M66 60h1v1h-1v-1z" fill="rgb(131,41,74)"/>
<path d="M67 60h1v1h-1v-1z" fill="rgb(246,49,90)"/>
<path d="M68 60h2v1h-2v-1z" fill="rgb(24,24,16)"/>
<path d="M31 61h1v1h-1v-1z" fill="rgb(131,41,74)"/>
<path d="M32 61h2v1h-1v1h-2v-1h1v-1z" fill="rgb(255,115,115)"/>
<path d="M34 61h1v1h-1v-1z" fill="rgb(189,49,98)"/>
<path d="M39 61h1v2h-1v-2z" fill="rgb(131,41,74)"/>
<path d="M45 61h1v5h-1v-5z" fill="rgb(131,41,74)"/>
<path d="M50 61h1v1h-1v-1z" fill="rgb(246,49,90)"/>
<path d="M51 61h1v1h-1v-1z" fill="rgb(189,49,98)"/>
<path d="M68 61h2v1h3v1h1v1h-2v1h-2v-1h-1v-1h-1v-2z" fill="rgb(246,49,90)"/>
<path d="M70 61h3v1h-3v-1z" fill="rgb(24,24,16)"/>
<path d="M28 62h3v1h-3v-1z" fill="rgb(131,41,74)"/>
<path d="M33 62h1v1h-1v-1z" fill="rgb(189,49,98)"/>
<path d="M51 62h1v1h-1v-1z" fill="rgb(246,49,90)"/>
<path d="M52 62h1v1h-1v-1z" fill="rgb(189,49,98)"/>
<path d="M58 62h1v1h-1v-1z" fill="rgb(189,49,98)"/>
<path d="M73 62h1v1h-1v-1z" fill="rgb(24,24,16)"/>
<path d="M25 63h2v1h-2v-1z" fill="rgb(24,24,16)"/>
<path d="M27 63h1v1h-1v-1z" fill="rgb(131,41,74)"/>
<path d="M28 63h3v1h-3v-1z" fill="rgb(246,49,90)"/>
<path d="M31 63h2v1h-2v-1z" fill="rgb(189,49,98)"/>
<path d="M35 63h1v2h-1v1h-1v2h-1v2h-1v-1h-3v-1h-3v-1h-2v-1h-1v-1h2v-1h3v1h1v1h2v-1h2v-1
	h2v-1z" fill="rgb(246,49,90)"/>
<path d="M38 63h1v1h-1v-1z" fill="rgb(131,41,74)"/>
<path d="M50 63h1v1h-1v-1z" fill="rgb(246,49,90)"/>
<path d="M74 63h1v1h-1v-1z" fill="rgb(24,24,16)"/>
<path d="M23 64h2v1h-2v-1z" fill="rgb(24,24,16)"/>
<path d="M28 64h3v1h-3v-1z" fill="rgb(189,49,98)"/>
<path d="M31 64h2v1h-2v-1z" fill="rgb(255,115,115)"/>
<path d="M36 64h2v1h-2v-1z" fill="rgb(131,41,74)"/>
<path d="M72 64h2v1h-2v-1z" fill="rgb(24,24,16)"/>
<path d="M22 65h1v2h-1v-2z" fill="rgb(24,24,16)"/>
<path d="M29 65h2v1h-2v-1z" fill="rgb(255,115,115)"/>
<path d="M35 65h1v1h-1v-1z" fill="rgb(131,41,74)"/>
<path d="M71 65h1v2h-1v-2z" fill="rgb(24,24,16)"/>
<path d="M23 66h1v1h-1v-1z" fill="rgb(189,49,98)"/>
<path d="M34 66h1v2h-1v-2z" fill="rgb(131,41,74)"/>
<path d="M38 66h1v1h-1v-1z" fill="rgb(246,49,90)"/>
<path d="M40 66h1v1h-1v-1z" fill="rgb(246,49,90)"/>
<path d="M46 66h1v1h-1v-1z" fill="rgb(131,41,74)"/>
<path d="M23 67h1v1h-1v-1z" fill="rgb(24,24,16)"/>
<path d="M24 67h2v1h-2v-1z" fill="rgb(189,49,98)"/>
<path d="M37 67h1v1h-1v-1z" fill="rgb(246,49,90)"/>
<path d="M38 67h1v1h-1v-1z" fill="rgb(255,115,115)"/>
<path d="M39 67h1v1h-1v-1z" fill="rgb(246,49,90)"/>
<path d="M46 67h1v2h-1v1h-1v1h-2v1h-7v-1h-2v-3h2v1h2v-1h1v1h1v-1h1v1h2v-1h3v-1z" fill="rgb(246,49,90)"/>
<path d="M47 67h1v3h-1v-3z" fill="rgb(131,41,74)"/>
<path d="M70 67h1v2h-1v-2z" fill="rgb(24,24,16)"/>
<path d="M24 68h3v1h-3v-1z" fill="rgb(24,24,16)"/>
<path d="M27 68h2v1h-2v-1z" fill="rgb(189,49,98)"/>
<path d="M33 68h1v3h-1v-3z" fill="rgb(131,41,74)"/>
<path d="M39 68h1v1h-1v-1z" fill="rgb(255,115,115)"/>
<path d="M27 69h2v1h-2v-1z" fill="rgb(24,24,16)"/>
<path d="M29 69h3v1h1v1h-2v-1h-2v-1z" fill="rgb(189,49,98)"/>
<path d="M46 69h1v2h-2v-1h1v-1z" fill="rgb(189,49,98)"/>
<path d="M64 69h2v1h-2v-1z" fill="rgb(24,24,16)"/>
<path d="M69 69h1v1h-1v-1z" fill="rgb(24,24,16)"/>
<path d="M29 70h2v1h-2v-1z" fill="rgb(24,24,16)"/>
<path d="M47 70h4v1h-4v-1z" fill="rgb(24,24,16)"/>
<path d="M61 70h1v1h-1v-1z" fill="rgb(189,49,98)"/>
<path d="M62 70h2v1h-2v-1z" fill="rgb(24,24,16)"/>
<path d="M66 70h3v1h-3v-1z" fill="rgb(24,24,16)"/>
<path d="M31 71h5v1h-5v-1z" fill="rgb(24,24,16)"/>
<path d="M43 71h2v1h-2v-1z" fill="rgb(189,49,98)"/>
<path d="M45 71h2v1h-2v-1z" fill="rgb(24,24,16)"/>
<path d="M51 71h4v1h-4v-1z" fill="rgb(24,24,16)"/>
<path d="M60 71h2v1h-2v-1z" fill="rgb(24,24,16)"/>
<path d="M36 72h9v1h-9v-1z" fill="rgb(24,24,16)"/>
<path d="M55 72h5v1h-5v-1z" fill="rgb(24,24,16)"/>
</svg>
