<?xml version="1.0" encoding="utf-8"?>
<!-- generated at drububu.com  -->
<!DOCTYPE svg PUBLIC "-//W3C//DTD SVG 1.1//EN" "http://www.w3.org/Graphics/SVG/1.1/DTD/svg11.dtd">
<svg version="1.1" preserveAspectRatio="xMinYMin meet" xmlns="http://www.w3.org/2000/svg" xmlns:xlink="http://www.w3.org/1999/xlink" x="0px" y="0px" width="96px" height="96px" viewBox="0 0 96 96">
<path d="M0 0h96v96h-96v-96z" fill="transparent"/>
<path d="M25 16h3v1h-3v-1z" fill="rgb(90,74,8)"/>
<path d="M65 16h2v1h-2v-1z" fill="rgb(90,74,8)"/>
<path d="M23 17h2v1h-2v-1z" fill="rgb(90,74,8)"/>
<path d="M25 17h1v1h-1v-1z" fill="rgb(197,164,16)"/>
<path d="M26 17h2v1h1v1h-2v-1h-1v-1z" fill="rgb(255,246,180)"/>
<path d="M28 17h1v1h-1v-1z" fill="rgb(90,74,8)"/>
<path d="M47 17h1v1h-1v-1z" fill="rgb(197,164,16)"/>
<path d="M48 17h1v1h-1v-1z" fill="rgb(90,74,8)"/>
<path d="M63 17h2v1h-2v-1z" fill="rgb(90,74,8)"/>
<path d="M65 17h2v1h-1v1h-2v-1h1v-1z" fill="rgb(255,246,180)"/>
<path d="M67 17h2v1h-2v-1z" fill="rgb(90,74,8)"/>
<path d="M22 18h1v1h-1v-1z" fill="rgb(16,16,16)"/>
<path d="M23 18h3v1h1v1h-2v-1h-2v-1z" fill="rgb(255,246,180)"/>
<path d="M26 18h1v1h-1v-1z" fill="rgb(197,164,16)"/>
<path d="M29 18h1v2h-1v-2z" fill="rgb(90,74,8)"/>
<path d="M46 18h1v2h-1v-2z" fill="rgb(197,164,16)"/>
<path d="M47 18h1v3h-1v3h-1v3h-1v2h3v1h-2v1h2v-1h2v1h-1v2h1v-2h1v1h1v1h1v3h-1v1h-2v1h-1
	v1h-1v1h-2v-1h1v-1h1v-2h-2v1h-1v1h-1v1h-1v1h3v1h-2v1h-2v-1h-1v1h-1v-1h-1v1h-1
	v-1h-2v-1h-1v-3h-1v1h-1v-2h1v-1h1v-1h1v5h1v1h2v-1h1v1h1v-1h1v-1h1v-1h1v-1h1v-1h1
	v-1h1v-1h1v-1h-3v1h-1v-1h-1v-1h1v-6h1v-3h1v-2h1v-2z" fill="rgb(255,230,57)"/>
<path d="M48 18h1v3h-1v-3z" fill="rgb(16,16,16)"/>
<path d="M62 18h1v2h-1v-2z" fill="rgb(90,74,8)"/>
<path d="M63 18h1v1h1v1h-2v-2z" fill="rgb(255,230,57)"/>
<path d="M66 18h1v1h-1v-1z" fill="rgb(197,164,16)"/>
<path d="M67 18h1v2h-2v-1h1v-1z" fill="rgb(255,246,180)"/>
<path d="M68 18h1v1h-1v-1z" fill="rgb(255,230,57)"/>
<path d="M69 18h1v1h-1v-1z" fill="rgb(16,16,16)"/>
<path d="M21 19h1v1h-1v-1z" fill="rgb(16,16,16)"/>
<path d="M22 19h3v1h-3v-1z" fill="rgb(197,164,16)"/>
<path d="M27 19h1v1h-1v-1z" fill="rgb(90,74,8)"/>
<path d="M28 19h1v1h-1v-1z" fill="rgb(255,230,57)"/>
<path d="M65 19h1v1h-1v-1z" fill="rgb(90,74,8)"/>
<path d="M68 19h2v1h-2v-1z" fill="rgb(197,164,16)"/>
<path d="M70 19h1v1h-1v-1z" fill="rgb(16,16,16)"/>
<path d="M20 20h1v2h-1v-2z" fill="rgb(16,16,16)"/>
<path d="M21 20h3v1h2v1h-3v-1h-2v-1z" fill="rgb(255,230,57)"/>
<path d="M24 20h2v1h-2v-1z" fill="rgb(90,74,8)"/>
<path d="M26 20h2v1h-2v-1z" fill="rgb(255,230,57)"/>
<path d="M28 20h2v1h-2v-1z" fill="rgb(16,16,16)"/>
<path d="M45 20h1v2h-1v-2z" fill="rgb(197,164,16)"/>
<path d="M62 20h3v1h-3v-1z" fill="rgb(16,16,16)"/>
<path d="M65 20h2v1h-2v-1z" fill="rgb(255,230,57)"/>
<path d="M67 20h1v1h-1v-1z" fill="rgb(90,74,8)"/>
<path d="M68 20h3v1h-2v1h-1v1h-1v-2h1v-1z" fill="rgb(255,230,57)"/>
<path d="M71 20h1v1h-1v-1z" fill="rgb(16,16,16)"/>
<path d="M21 21h2v1h-2v-1z" fill="rgb(197,164,16)"/>
<path d="M26 21h2v1h-2v-1z" fill="rgb(16,16,16)"/>
<path d="M28 21h2v2h-1v1h-3v-2h2v-1z" fill="rgb(255,230,57)"/>
<path d="M30 21h1v3h-1v-3z" fill="rgb(16,16,16)"/>
<path d="M47 21h1v3h-1v-3z" fill="rgb(16,16,16)"/>
<path d="M61 21h1v2h-1v-2z" fill="rgb(16,16,16)"/>
<path d="M62 21h2v1h-2v-1z" fill="rgb(255,246,180)"/>
<path d="M64 21h1v1h-1v-1z" fill="rgb(90,74,8)"/>
<path d="M65 21h1v1h-1v-1z" fill="rgb(16,16,16)"/>
<path d="M66 21h1v1h-1v-1z" fill="rgb(197,164,16)"/>
<path d="M69 21h1v1h-1v-1z" fill="rgb(90,74,8)"/>
<path d="M70 21h2v2h1v3h-1v2h-1v1h-4v-2h1v-1h2v-1h1v-3h-1v-1z" fill="rgb(197,164,16)"/>
<path d="M72 21h1v2h-1v-2z" fill="rgb(16,16,16)"/>
<path d="M19 22h1v2h-1v-2z" fill="rgb(16,16,16)"/>
<path d="M20 22h3v1h1v1h-3v1h3v2h-1v2h-3v-1h-1v-4h1v-2z" fill="rgb(255,230,57)"/>
<path d="M23 22h1v1h-1v-1z" fill="rgb(90,74,8)"/>
<path d="M24 22h1v1h-1v-1z" fill="rgb(197,164,16)"/>
<path d="M25 22h1v2h-1v-2z" fill="rgb(16,16,16)"/>
<path d="M39 22h1v1h-1v-1z" fill="rgb(16,16,16)"/>
<path d="M44 22h1v3h-1v-3z" fill="rgb(197,164,16)"/>
<path d="M62 22h3v1h-3v-1z" fill="rgb(255,230,57)"/>
<path d="M65 22h1v2h-1v1h-2v-2h2v-1z" fill="rgb(197,164,16)"/>
<path d="M66 22h1v1h-1v-1z" fill="rgb(16,16,16)"/>
<path d="M68 22h1v1h-1v-1z" fill="rgb(90,74,8)"/>
<path d="M69 22h2v2h-2v1h-1v-2h1v-1z" fill="rgb(255,230,57)"/>
<path d="M24 23h1v2h-3v-1h2v-1z" fill="rgb(90,74,8)"/>
<path d="M29 23h1v1h-1v-1z" fill="rgb(197,164,16)"/>
<path d="M38 23h1v3h-1v-3z" fill="rgb(90,74,8)"/>
<path d="M39 23h1v2h1v2h1v2h1v2h-1v-1h-1v-1h-1v-3h-1v-3z" fill="rgb(230,197,32)"/>
<path d="M40 23h1v2h-1v-2z" fill="rgb(16,16,16)"/>
<path d="M62 23h1v2h-1v-2z" fill="rgb(16,16,16)"/>
<path d="M66 23h2v2h-1v-1h-1v-1z" fill="rgb(90,74,8)"/>
<path d="M73 23h1v3h-1v-3z" fill="rgb(16,16,16)"/>
<path d="M18 24h1v2h-1v-2z" fill="rgb(90,74,8)"/>
<path d="M21 24h1v1h-1v-1z" fill="rgb(197,164,16)"/>
<path d="M25 24h1v1h2v5h1v2h-2v1h-2v-2h1v-1h1v-1h-1v-1h1v-1h-2v1h-2v-1h1v-2h1v-1z" fill="rgb(197,164,16)"/>
<path d="M26 24h2v1h-2v-1z" fill="rgb(90,74,8)"/>
<path d="M28 24h1v1h-1v-1z" fill="rgb(197,164,16)"/>
<path d="M29 24h1v1h-1v-1z" fill="rgb(16,16,16)"/>
<path d="M33 24h3v1h-3v-1z" fill="rgb(90,74,8)"/>
<path d="M46 24h1v3h-1v-3z" fill="rgb(16,16,16)"/>
<path d="M52 24h3v1h-3v-1z" fill="rgb(90,74,8)"/>
<path d="M65 24h1v1h-1v-1z" fill="rgb(16,16,16)"/>
<path d="M66 24h1v1h-1v-1z" fill="rgb(197,164,16)"/>
<path d="M69 24h1v1h-1v-1z" fill="rgb(197,164,16)"/>
<path d="M70 24h1v1h-1v-1z" fill="rgb(90,74,8)"/>
<path d="M28 25h1v5h-1v-5z" fill="rgb(16,16,16)"/>
<path d="M32 25h1v3h-1v-3z" fill="rgb(90,74,8)"/>
<path d="M33 25h1v1h-1v-1z" fill="rgb(197,164,16)"/>
<path d="M34 25h1v1h1v1h-1v1h-1v-1h-1v-1h1v-1z" fill="rgb(255,230,57)"/>
<path d="M35 25h1v1h-1v-1z" fill="rgb(197,164,16)"/>
<path d="M36 25h1v4h-1v-4z" fill="rgb(16,16,16)"/>
<path d="M41 25h1v2h-1v-2z" fill="rgb(16,16,16)"/>
<path d="M43 25h1v4h-1v-4z" fill="rgb(197,164,16)"/>
<path d="M51 25h1v3h-1v-3z" fill="rgb(90,74,8)"/>
<path d="M52 25h1v1h-1v-1z" fill="rgb(197,164,16)"/>
<path d="M53 25h1v1h1v1h-1v1h-1v-1h-1v-1h1v-1z" fill="rgb(255,230,57)"/>
<path d="M54 25h1v1h-1v-1z" fill="rgb(197,164,16)"/>
<path d="M55 25h1v3h-1v-3z" fill="rgb(16,16,16)"/>
<path d="M63 25h1v2h-1v-2z" fill="rgb(16,16,16)"/>
<path d="M64 25h4v2h-1v2h-3v1h1v1h-2v-4h1v-2z" fill="rgb(255,230,57)"/>
<path d="M68 25h2v1h-2v-1z" fill="rgb(90,74,8)"/>
<path d="M18 26h1v3h-1v-3z" fill="rgb(16,16,16)"/>
<path d="M39 26h1v3h-1v-3z" fill="rgb(90,74,8)"/>
<path d="M72 26h1v2h-1v-2z" fill="rgb(16,16,16)"/>
<path d="M25 27h2v1h-2v-1z" fill="rgb(41,41,32)"/>
<path d="M33 27h1v1h-1v-1z" fill="rgb(197,164,16)"/>
<path d="M35 27h1v2h-1v-2z" fill="rgb(197,164,16)"/>
<path d="M42 27h1v2h-1v-2z" fill="rgb(16,16,16)"/>
<path d="M45 27h1v2h-1v-2z" fill="rgb(16,16,16)"/>
<path d="M52 27h1v1h-1v-1z" fill="rgb(197,164,16)"/>
<path d="M54 27h1v1h-1v-1z" fill="rgb(197,164,16)"/>
<path d="M62 27h1v1h-1v-1z" fill="rgb(90,74,8)"/>
<path d="M19 28h1v1h-1v-1z" fill="rgb(57,65,82)"/>
<path d="M23 28h2v1h2v1h-2v1h-1v-1h-1v-2z" fill="rgb(41,41,32)"/>
<path d="M25 28h1v1h-1v-1z" fill="rgb(90,74,8)"/>
<path d="M33 28h2v1h-2v-1z" fill="rgb(16,16,16)"/>
<path d="M46 28h2v1h-2v-1z" fill="rgb(90,74,8)"/>
<path d="M50 28h1v1h-1v-1z" fill="rgb(90,74,8)"/>
<path d="M51 28h1v1h-1v-1z" fill="rgb(230,197,32)"/>
<path d="M52 28h3v1h-3v-1z" fill="rgb(16,16,16)"/>
<path d="M62 28h1v4h-1v-4z" fill="rgb(16,16,16)"/>
<path d="M71 28h1v4h-1v-4z" fill="rgb(16,16,16)"/>
<path d="M19 29h1v1h-1v-1z" fill="rgb(90,74,8)"/>
<path d="M20 29h3v1h1v1h-1v1h-3v-3z" fill="rgb(57,65,82)"/>
<path d="M35 29h1v1h-1v-1z" fill="rgb(90,74,8)"/>
<path d="M36 29h1v1h-1v-1z" fill="rgb(197,164,16)"/>
<path d="M37 29h1v1h-1v-1z" fill="rgb(16,16,16)"/>
<path d="M40 29h1v1h-1v-1z" fill="rgb(90,74,8)"/>
<path d="M43 29h1v2h-1v-2z" fill="rgb(16,16,16)"/>
<path d="M48 29h2v1h-2v-1z" fill="rgb(90,74,8)"/>
<path d="M50 29h1v1h-1v-1z" fill="rgb(230,197,32)"/>
<path d="M51 29h1v1h-1v-1z" fill="rgb(16,16,16)"/>
<path d="M64 29h3v2h-2v-1h-1v-1z" fill="rgb(57,65,82)"/>
<path d="M67 29h3v1h-3v-1z" fill="rgb(90,74,8)"/>
<path d="M70 29h1v3h-3v-1h-1v-1h3v-1z" fill="rgb(41,41,32)"/>
<path d="M19 30h1v2h-1v-2z" fill="rgb(16,16,16)"/>
<path d="M25 30h1v1h-1v-1z" fill="rgb(90,74,8)"/>
<path d="M29 30h1v4h-1v-4z" fill="rgb(16,16,16)"/>
<path d="M36 30h1v2h-1v-2z" fill="rgb(16,16,16)"/>
<path d="M37 30h1v1h-1v-1z" fill="rgb(197,164,16)"/>
<path d="M38 30h1v1h-1v-1z" fill="rgb(16,16,16)"/>
<path d="M39 30h1v1h-1v-1z" fill="rgb(90,74,8)"/>
<path d="M40 30h1v1h-1v-1z" fill="rgb(255,230,57)"/>
<path d="M41 30h1v1h-1v-1z" fill="rgb(90,74,8)"/>
<path d="M46 30h2v1h-2v-1z" fill="rgb(90,74,8)"/>
<path d="M50 30h1v1h-1v-1z" fill="rgb(16,16,16)"/>
<path d="M51 30h1v1h-1v-1z" fill="rgb(90,74,8)"/>
<path d="M23 31h1v1h-1v-1z" fill="rgb(197,164,16)"/>
<path d="M24 31h1v2h-1v1h-1v2h3v1h-4v-3h-1v-2h3v-1z" fill="rgb(255,230,57)"/>
<path d="M37 31h1v1h-1v-1z" fill="rgb(90,74,8)"/>
<path d="M38 31h2v1h-2v-1z" fill="rgb(255,230,57)"/>
<path d="M40 31h2v1h2v1h-1v1h-1v1h-1v1h-1v-1h-1v-3h1v-1z" fill="rgb(255,246,180)"/>
<path d="M42 31h1v1h-1v-1z" fill="rgb(90,74,8)"/>
<path d="M49 31h1v1h-1v-1z" fill="rgb(16,16,16)"/>
<path d="M51 31h1v1h-1v-1z" fill="rgb(197,164,16)"/>
<path d="M52 31h1v1h-1v-1z" fill="rgb(90,74,8)"/>
<path d="M63 31h1v1h2v1h1v1h-4v-1h-1v-1h1v-1z" fill="rgb(57,65,82)"/>
<path d="M64 31h1v1h-1v-1z" fill="rgb(197,164,16)"/>
<path d="M65 31h1v1h-1v-1z" fill="rgb(255,230,57)"/>
<path d="M66 31h1v1h3v3h-1v1h-2v-1h-2v-1h2v-1h-1v-2z" fill="rgb(197,164,16)"/>
<path d="M67 31h1v1h-1v-1z" fill="rgb(90,74,8)"/>
<path d="M20 32h1v1h-1v-1z" fill="rgb(90,74,8)"/>
<path d="M27 32h2v3h-3v-2h1v-1z" fill="rgb(41,41,32)"/>
<path d="M36 32h1v1h-1v-1z" fill="rgb(90,74,8)"/>
<path d="M37 32h1v1h1v2h1v1h1v1h-1v1h-1v-1h-1v-3h-1v-2z" fill="rgb(106,106,98)"/>
<path d="M38 32h1v1h-1v-1z" fill="rgb(197,164,16)"/>
<path d="M45 32h1v1h-1v-1z" fill="rgb(197,164,16)"/>
<path d="M46 32h2v1h-1v1h-1v1h-1v1h-1v1h-1v1h-1v1h-1v1h-1v-1h-1v-1h1v-1h1v-1h1v-1h1v-1h1
	v-1h2v-1z" fill="rgb(57,65,82)"/>
<path d="M49 32h1v1h-1v-1z" fill="rgb(90,74,8)"/>
<path d="M52 32h1v1h-1v-1z" fill="rgb(197,164,16)"/>
<path d="M53 32h1v1h-1v-1z" fill="rgb(90,74,8)"/>
<path d="M61 32h1v3h-1v-3z" fill="rgb(16,16,16)"/>
<path d="M70 32h1v3h-1v-3z" fill="rgb(16,16,16)"/>
<path d="M20 33h1v1h-1v-1z" fill="rgb(16,16,16)"/>
<path d="M24 33h1v1h-1v-1z" fill="rgb(197,164,16)"/>
<path d="M25 33h1v2h1v1h-3v-1h-1v-1h2v-1z" fill="rgb(57,65,82)"/>
<path d="M35 33h1v1h-1v-1z" fill="rgb(90,74,8)"/>
<path d="M36 33h1v1h-1v-1z" fill="rgb(255,230,57)"/>
<path d="M43 33h1v1h-1v-1z" fill="rgb(197,164,16)"/>
<path d="M53 33h1v1h2v1h1v3h-1v1h-2v1h-2v1h-1v-2h1v-1h-2v-1h2v-1h1v-3z" fill="rgb(197,164,16)"/>
<path d="M54 33h2v1h-2v-1z" fill="rgb(90,74,8)"/>
<path d="M62 33h1v1h-1v-1z" fill="rgb(197,164,16)"/>
<path d="M21 34h1v1h-1v-1z" fill="rgb(90,74,8)"/>
<path d="M29 34h1v3h1v1h1v1h-1v1h-1v1h-1v-1h-1v-2h1v-2h-2v-1h2v-1z" fill="rgb(197,164,16)"/>
<path d="M30 34h1v3h-1v-3z" fill="rgb(16,16,16)"/>
<path d="M33 34h2v1h-2v-1z" fill="rgb(90,74,8)"/>
<path d="M36 34h1v1h1v2h-1v-1h-1v-2z" fill="rgb(255,246,180)"/>
<path d="M37 34h1v1h-1v-1z" fill="rgb(197,164,16)"/>
<path d="M42 34h1v1h-1v-1z" fill="rgb(106,106,98)"/>
<path d="M56 34h1v1h-1v-1z" fill="rgb(90,74,8)"/>
<path d="M62 34h3v1h-1v1h1v1h-2v-2h-1v-1z" fill="rgb(255,230,57)"/>
<path d="M21 35h1v2h-1v-2z" fill="rgb(16,16,16)"/>
<path d="M23 35h1v1h-1v-1z" fill="rgb(197,164,16)"/>
<path d="M32 35h1v1h-1v-1z" fill="rgb(90,74,8)"/>
<path d="M33 35h1v1h-1v-1z" fill="rgb(197,164,16)"/>
<path d="M41 35h1v1h-1v-1z" fill="rgb(106,106,98)"/>
<path d="M57 35h1v3h-1v-3z" fill="rgb(16,16,16)"/>
<path d="M61 35h1v1h-1v-1z" fill="rgb(90,74,8)"/>
<path d="M62 35h1v2h-1v-2z" fill="rgb(16,16,16)"/>
<path d="M64 35h2v1h-2v-1z" fill="rgb(57,65,82)"/>
<path d="M66 35h1v1h-1v-1z" fill="rgb(90,74,8)"/>
<path d="M69 35h1v2h-1v-2z" fill="rgb(16,16,16)"/>
<path d="M26 36h1v1h-1v-1z" fill="rgb(197,164,16)"/>
<path d="M27 36h2v2h-2v-2z" fill="rgb(41,41,32)"/>
<path d="M32 36h1v2h-1v-2z" fill="rgb(16,16,16)"/>
<path d="M36 36h1v1h-1v-1z" fill="rgb(90,74,8)"/>
<path d="M46 36h1v1h-1v-1z" fill="rgb(90,74,8)"/>
<path d="M47 36h1v2h-1v-2z" fill="rgb(197,164,16)"/>
<path d="M59 36h2v1h-2v-1z" fill="rgb(90,74,8)"/>
<path d="M61 36h1v2h-2v-1h1v-1z" fill="rgb(57,65,82)"/>
<path d="M65 36h4v2h-3v-1h-1v-1z" fill="rgb(41,41,32)"/>
<path d="M22 37h1v1h-1v-1z" fill="rgb(90,74,8)"/>
<path d="M23 37h2v1h-2v-1z" fill="rgb(197,164,16)"/>
<path d="M25 37h2v1h1v1h-3v1h-2v-2h2v-1z" fill="rgb(57,65,82)"/>
<path d="M31 37h1v1h-1v-1z" fill="rgb(90,74,8)"/>
<path d="M34 37h1v2h-1v-2z" fill="rgb(197,164,16)"/>
<path d="M36 37h1v2h-1v-2z" fill="rgb(255,255,255)"/>
<path d="M37 37h1v1h-1v-1z" fill="rgb(90,74,8)"/>
<path d="M38 37h1v1h-1v-1z" fill="rgb(255,246,180)"/>
<path d="M45 37h1v1h-1v-1z" fill="rgb(90,74,8)"/>
<path d="M46 37h1v2h-1v-2z" fill="rgb(255,255,255)"/>
<path d="M58 37h1v1h-1v-1z" fill="rgb(90,74,8)"/>
<path d="M59 37h1v2h1v2h-1v-1h-1v-1h-2v-1h2v-1z" fill="rgb(197,164,16)"/>
<path d="M62 37h1v1h-1v-1z" fill="rgb(197,164,16)"/>
<path d="M63 37h1v1h-1v-1z" fill="rgb(16,16,16)"/>
<path d="M64 37h2v1h2v2h-2v-1h-3v-1h1v-1z" fill="rgb(197,164,16)"/>
<path d="M22 38h1v2h-1v-2z" fill="rgb(16,16,16)"/>
<path d="M32 38h1v1h1v1h-2v2h-1v-1h-1v-1h1v-1h1v-1z" fill="rgb(41,41,32)"/>
<path d="M33 38h1v1h-1v-1z" fill="rgb(16,16,16)"/>
<path d="M37 38h1v1h-1v-1z" fill="rgb(41,41,32)"/>
<path d="M38 38h1v2h-1v-2z" fill="rgb(90,74,8)"/>
<path d="M44 38h1v1h-1v-1z" fill="rgb(90,74,8)"/>
<path d="M45 38h1v1h-1v-1z" fill="rgb(41,41,32)"/>
<path d="M49 38h1v1h-1v-1z" fill="rgb(16,16,16)"/>
<path d="M50 38h2v1h-2v-1z" fill="rgb(90,74,8)"/>
<path d="M56 38h1v1h-1v-1z" fill="rgb(16,16,16)"/>
<path d="M60 38h2v1h2v1h-3v-1h-1v-1z" fill="rgb(41,41,32)"/>
<path d="M62 38h1v1h-1v-1z" fill="rgb(57,65,82)"/>
<path d="M68 38h1v2h-1v-2z" fill="rgb(16,16,16)"/>
<path d="M25 39h1v1h-1v-1z" fill="rgb(106,106,98)"/>
<path d="M26 39h2v2h-1v1h-1v-1h-1v-1h1v-1z" fill="rgb(255,230,57)"/>
<path d="M34 39h1v1h-1v-1z" fill="rgb(16,16,16)"/>
<path d="M37 39h1v1h-1v-1z" fill="rgb(255,255,255)"/>
<path d="M43 39h1v1h-1v-1z" fill="rgb(90,74,8)"/>
<path d="M44 39h2v1h-2v-1z" fill="rgb(255,255,255)"/>
<path d="M48 39h1v1h-1v-1z" fill="rgb(16,16,16)"/>
<path d="M49 39h1v1h-1v-1z" fill="rgb(197,197,213)"/>
<path d="M50 39h1v3h-1v-3z" fill="rgb(57,65,82)"/>
<path d="M54 39h2v1h-2v-1z" fill="rgb(16,16,16)"/>
<path d="M56 39h1v2h-1v-2z" fill="rgb(197,164,16)"/>
<path d="M57 39h1v1h-1v-1z" fill="rgb(41,41,32)"/>
<path d="M58 39h1v1h-1v-1z" fill="rgb(57,65,82)"/>
<path d="M64 39h2v1h-2v-1z" fill="rgb(16,16,16)"/>
<path d="M23 40h2v1h-2v-1z" fill="rgb(16,16,16)"/>
<path d="M28 40h1v1h-1v-1z" fill="rgb(90,74,8)"/>
<path d="M32 40h1v1h-1v-1z" fill="rgb(90,74,8)"/>
<path d="M33 40h1v1h-1v-1z" fill="rgb(197,164,16)"/>
<path d="M34 40h1v1h1v1h-1v1h-2v-1h1v-2z" fill="rgb(41,41,32)"/>
<path d="M35 40h1v1h-1v-1z" fill="rgb(16,16,16)"/>
<path d="M46 40h1v1h-1v-1z" fill="rgb(197,164,16)"/>
<path d="M47 40h1v1h-1v-1z" fill="rgb(16,16,16)"/>
<path d="M48 40h1v1h-1v-1z" fill="rgb(197,197,213)"/>
<path d="M49 40h1v2h-1v-2z" fill="rgb(255,255,255)"/>
<path d="M52 40h2v1h-2v-1z" fill="rgb(16,16,16)"/>
<path d="M54 40h2v2h1v1h-2v-1h-1v-2z" fill="rgb(41,41,32)"/>
<path d="M57 40h1v1h-1v-1z" fill="rgb(57,65,82)"/>
<path d="M58 40h2v1h-1v1h-1v-2z" fill="rgb(41,41,32)"/>
<path d="M61 40h3v1h-3v-1z" fill="rgb(16,16,16)"/>
<path d="M66 40h2v1h-2v-1z" fill="rgb(16,16,16)"/>
<path d="M25 41h1v1h-1v-1z" fill="rgb(90,74,8)"/>
<path d="M27 41h1v1h-1v-1z" fill="rgb(16,16,16)"/>
<path d="M29 41h2v1h-2v-1z" fill="rgb(16,16,16)"/>
<path d="M32 41h1v1h-1v-1z" fill="rgb(197,164,16)"/>
<path d="M33 41h1v1h-1v-1z" fill="rgb(90,74,8)"/>
<path d="M36 41h2v1h-2v-1z" fill="rgb(16,16,16)"/>
<path d="M39 41h1v1h-1v-1z" fill="rgb(197,164,16)"/>
<path d="M41 41h1v1h-1v-1z" fill="rgb(197,164,16)"/>
<path d="M44 41h3v1h-3v-1z" fill="rgb(16,16,16)"/>
<path d="M47 41h1v1h-1v-1z" fill="rgb(180,57,106)"/>
<path d="M48 41h1v2h-1v-2z" fill="rgb(90,74,8)"/>
<path d="M51 41h1v1h-1v-1z" fill="rgb(16,16,16)"/>
<path d="M52 41h1v1h-1v-1z" fill="rgb(41,41,32)"/>
<path d="M53 41h1v2h1v2h-1v1h-2v1h-1v1h-2v-1h1v-1h1v-2h1v-2h1v-1z" fill="rgb(197,164,16)"/>
<path d="M56 41h1v1h-1v-1z" fill="rgb(57,65,82)"/>
<path d="M57 41h1v1h-1v-1z" fill="rgb(197,164,16)"/>
<path d="M59 41h2v1h-2v-1z" fill="rgb(16,16,16)"/>
<path d="M25 42h2v1h-2v-1z" fill="rgb(16,16,16)"/>
<path d="M31 42h2v1h-2v-1z" fill="rgb(16,16,16)"/>
<path d="M35 42h1v1h-1v-1z" fill="rgb(57,65,82)"/>
<path d="M36 42h1v1h-1v-1z" fill="rgb(197,164,16)"/>
<path d="M37 42h1v2h-1v-2z" fill="rgb(41,41,32)"/>
<path d="M38 42h6v1h-5v1h-1v-2z" fill="rgb(16,16,16)"/>
<path d="M44 42h1v1h-1v-1z" fill="rgb(180,57,106)"/>
<path d="M45 42h3v1h-1v1h-1v1h-3v-1h1v-1h1v-1z" fill="rgb(230,98,148)"/>
<path d="M49 42h1v1h-1v-1z" fill="rgb(197,164,16)"/>
<path d="M50 42h1v1h-1v-1z" fill="rgb(16,16,16)"/>
<path d="M51 42h1v2h-1v2h-1v1h-1v1h-1v1h-1v1h-5v-1h-1v-1h-1v-1h3v1h3v-1h2v-1h1v-1h1v-2h1
	v-1z" fill="rgb(41,41,32)"/>
<path d="M54 42h1v1h-1v-1z" fill="rgb(57,65,82)"/>
<path d="M57 42h2v1h-2v-1z" fill="rgb(16,16,16)"/>
<path d="M33 43h2v1h-2v-1z" fill="rgb(16,16,16)"/>
<path d="M35 43h1v1h-1v-1z" fill="rgb(197,164,16)"/>
<path d="M36 43h1v1h-1v-1z" fill="rgb(57,65,82)"/>
<path d="M39 43h1v1h-1v-1z" fill="rgb(90,74,8)"/>
<path d="M40 43h1v2h-1v-2z" fill="rgb(197,164,16)"/>
<path d="M41 43h3v1h-1v1h-1v-1h-1v-1z" fill="rgb(180,57,106)"/>
<path d="M47 43h1v2h-2v-1h1v-1z" fill="rgb(90,74,8)"/>
<path d="M48 43h1v2h-1v-2z" fill="rgb(197,164,16)"/>
<path d="M49 43h1v2h-1v-2z" fill="rgb(16,16,16)"/>
<path d="M55 43h1v1h-1v-1z" fill="rgb(57,65,82)"/>
<path d="M56 43h1v1h-1v-1z" fill="rgb(16,16,16)"/>
<path d="M35 44h1v1h-1v-1z" fill="rgb(16,16,16)"/>
<path d="M36 44h1v1h-1v-1z" fill="rgb(41,41,32)"/>
<path d="M37 44h1v2h-1v2h-1v-3h1v-1z" fill="rgb(16,16,16)"/>
<path d="M38 44h1v1h1v1h1v1h-2v1h-2v-2h1v-2z" fill="rgb(255,230,57)"/>
<path d="M39 44h1v1h-1v-1z" fill="rgb(16,16,16)"/>
<path d="M41 44h1v1h-1v-1z" fill="rgb(90,74,8)"/>
<path d="M55 44h1v1h-1v-1z" fill="rgb(16,16,16)"/>
<path d="M56 44h1v2h-1v-2z" fill="rgb(90,74,8)"/>
<path d="M40 45h1v1h-1v-1z" fill="rgb(16,16,16)"/>
<path d="M41 45h1v1h-1v-1z" fill="rgb(197,164,16)"/>
<path d="M42 45h4v1h-4v-1z" fill="rgb(90,74,8)"/>
<path d="M46 45h2v1h-2v-1z" fill="rgb(197,164,16)"/>
<path d="M48 45h1v1h-1v-1z" fill="rgb(16,16,16)"/>
<path d="M54 45h1v2h-1v2h-4v1h-2v-1h1v-1h2v-1h1v-1h2v-1z" fill="rgb(255,230,57)"/>
<path d="M55 45h1v1h1v2h1v2h-1v1h-1v1h-2v1h-1v-2h1v-4h1v-2z" fill="rgb(197,164,16)"/>
<path d="M41 46h1v1h-1v-1z" fill="rgb(16,16,16)"/>
<path d="M42 46h1v1h-1v-1z" fill="rgb(197,164,16)"/>
<path d="M43 46h2v1h-2v-1z" fill="rgb(255,230,57)"/>
<path d="M45 46h1v1h-1v-1z" fill="rgb(197,164,16)"/>
<path d="M46 46h2v1h-2v-1z" fill="rgb(16,16,16)"/>
<path d="M57 46h1v2h-1v-2z" fill="rgb(90,74,8)"/>
<path d="M39 47h1v1h-1v-1z" fill="rgb(197,164,16)"/>
<path d="M43 47h3v1h-3v-1z" fill="rgb(16,16,16)"/>
<path d="M35 48h1v2h-1v-2z" fill="rgb(16,16,16)"/>
<path d="M36 48h1v1h-1v-1z" fill="rgb(255,230,57)"/>
<path d="M37 48h1v1h-1v-1z" fill="rgb(197,164,16)"/>
<path d="M38 48h3v1h1v1h2v1h-4v1h-3v1h-2v-2h1v-1h1v-1h1v-1z" fill="rgb(57,65,82)"/>
<path d="M48 48h1v1h-1v-1z" fill="rgb(57,65,82)"/>
<path d="M58 48h1v1h-1v-1z" fill="rgb(90,74,8)"/>
<path d="M36 49h1v1h-1v-1z" fill="rgb(197,164,16)"/>
<path d="M47 49h1v1h3v-1h3v1h-1v1h-1v1h-1v1h-2v1h-1v1h-1v1h-2v1h-1v1h-1v-1h-2v-3h1v-1h1
	v-1h1v-1h1v-1h2v-1z" fill="rgb(57,65,82)"/>
<path d="M50 49h1v1h-1v-1z" fill="rgb(197,164,16)"/>
<path d="M58 49h1v2h-1v-2z" fill="rgb(16,16,16)"/>
<path d="M34 50h1v3h-1v-3z" fill="rgb(16,16,16)"/>
<path d="M35 50h1v1h-1v-1z" fill="rgb(197,164,16)"/>
<path d="M44 50h1v1h-1v-1z" fill="rgb(90,74,8)"/>
<path d="M53 50h1v1h-1v-1z" fill="rgb(255,230,57)"/>
<path d="M57 50h1v1h-1v-1z" fill="rgb(90,74,8)"/>
<path d="M40 51h1v1h-1v-1z" fill="rgb(197,164,16)"/>
<path d="M41 51h2v2h-1v1h-1v1h-1v2h-3v-1h-2v-1h-1v-1h2v-1h2v-1h3v-1z" fill="rgb(255,230,57)"/>
<path d="M43 51h1v1h-1v-1z" fill="rgb(197,164,16)"/>
<path d="M52 51h1v2h-1v1h-1v1h-1v1h-1v1h-3v-1h1v-1h1v-1h2v-1h1v-1h1v-1z" fill="rgb(255,230,57)"/>
<path d="M56 51h3v3h-2v1h-2v1h-2v1h-2v1h-2v-1h1v-1h2v-1h1v-1h1v-1h1v-1h1v-1z" fill="rgb(41,41,32)"/>
<path d="M59 51h1v6h-1v-6z" fill="rgb(16,16,16)"/>
<path d="M37 52h1v1h-1v-1z" fill="rgb(197,164,16)"/>
<path d="M54 52h1v1h-1v-1z" fill="rgb(90,74,8)"/>
<path d="M74 52h2v1h-2v-1z" fill="rgb(90,74,8)"/>
<path d="M76 52h1v1h-1v-1z" fill="rgb(41,41,32)"/>
<path d="M33 53h1v4h-1v-4z" fill="rgb(16,16,16)"/>
<path d="M34 53h1v1h-1v-1z" fill="rgb(57,65,82)"/>
<path d="M35 53h1v1h-1v-1z" fill="rgb(197,164,16)"/>
<path d="M49 53h1v1h-1v-1z" fill="rgb(197,164,16)"/>
<path d="M52 53h2v1h-2v-1z" fill="rgb(90,74,8)"/>
<path d="M72 53h2v1h-2v-1z" fill="rgb(16,16,16)"/>
<path d="M74 53h3v2h-1v1h-1v-2h-1v-1z" fill="rgb(197,164,16)"/>
<path d="M77 53h1v2h-1v-2z" fill="rgb(16,16,16)"/>
<path d="M51 54h2v1h-2v-1z" fill="rgb(197,164,16)"/>
<path d="M57 54h1v1h-1v-1z" fill="rgb(90,74,8)"/>
<path d="M58 54h1v3h-1v1h-1v1h-1v-1h-2v1h-1v2h1v1h-2v1h-3v1h-7v-1h-3v-1h-1v-1h2v-1h1v-1
	h2v-1h1v-1h1v-1h1v1h2v1h4v-1h2v-1h2v-1h2v-1z" fill="rgb(197,164,16)"/>
<path d="M71 54h1v2h-1v-2z" fill="rgb(16,16,16)"/>
<path d="M72 54h2v1h1v1h1v1h-1v1h-1v1h-1v-3h-1v-2z" fill="rgb(41,41,32)"/>
<path d="M74 54h1v1h-1v-1z" fill="rgb(90,74,8)"/>
<path d="M34 55h1v1h2v1h2v2h-1v1h-1v1h-1v-2h-1v-2h-1v-2z" fill="rgb(197,164,16)"/>
<path d="M40 55h1v1h-1v-1z" fill="rgb(197,164,16)"/>
<path d="M50 55h1v1h-1v-1z" fill="rgb(197,164,16)"/>
<path d="M51 55h1v1h-1v-1z" fill="rgb(90,74,8)"/>
<path d="M55 55h1v1h-1v-1z" fill="rgb(90,74,8)"/>
<path d="M76 55h1v2h-1v-2z" fill="rgb(16,16,16)"/>
<path d="M40 56h1v1h2v2h-2v1h-1v1h-2v-2h1v-2h1v-1z" fill="rgb(41,41,32)"/>
<path d="M49 56h1v1h-1v-1z" fill="rgb(197,164,16)"/>
<path d="M53 56h1v1h-1v-1z" fill="rgb(90,74,8)"/>
<path d="M70 56h1v1h-1v-1z" fill="rgb(90,74,8)"/>
<path d="M71 56h1v1h1v2h-1v1h-1v-2h-1v-1h1v-1z" fill="rgb(197,164,16)"/>
<path d="M72 56h1v1h-1v-1z" fill="rgb(90,74,8)"/>
<path d="M34 57h1v2h-2v-1h1v-1z" fill="rgb(16,16,16)"/>
<path d="M48 57h1v1h-1v-1z" fill="rgb(90,74,8)"/>
<path d="M51 57h1v1h-1v-1z" fill="rgb(90,74,8)"/>
<path d="M58 57h1v4h-1v-4z" fill="rgb(16,16,16)"/>
<path d="M69 57h1v2h1v1h-1v1h-1v-1h-2v-1h1v-1h1v-1z" fill="rgb(41,41,32)"/>
<path d="M75 57h1v1h-1v-1z" fill="rgb(16,16,16)"/>
<path d="M54 58h2v1h-1v1h-1v1h-1v-2h1v-1z" fill="rgb(255,230,57)"/>
<path d="M57 58h1v1h-1v-1z" fill="rgb(90,74,8)"/>
<path d="M70 58h1v1h-1v-1z" fill="rgb(90,74,8)"/>
<path d="M74 58h1v1h-1v-1z" fill="rgb(16,16,16)"/>
<path d="M32 59h1v1h-1v-1z" fill="rgb(16,16,16)"/>
<path d="M33 59h2v1h-1v1h-2v-1h1v-1z" fill="rgb(57,65,82)"/>
<path d="M35 59h1v1h-1v-1z" fill="rgb(16,16,16)"/>
<path d="M55 59h3v3h-1v1h-1v-1h-1v-3z" fill="rgb(57,65,82)"/>
<path d="M72 59h1v1h-1v-1z" fill="rgb(41,41,32)"/>
<path d="M31 60h1v1h-1v-1z" fill="rgb(16,16,16)"/>
<path d="M34 60h2v2h1v1h-2v-1h-1v-2z" fill="rgb(41,41,32)"/>
<path d="M37 60h1v2h-1v-2z" fill="rgb(90,74,8)"/>
<path d="M54 60h1v1h-1v-1z" fill="rgb(197,164,16)"/>
<path d="M65 60h1v1h-1v-1z" fill="rgb(41,41,32)"/>
<path d="M66 60h1v1h-1v-1z" fill="rgb(90,74,8)"/>
<path d="M67 60h1v1h1v1h-1v1h-2v-1h-1v-1h2v-1z" fill="rgb(197,164,16)"/>
<path d="M68 60h1v1h-1v-1z" fill="rgb(90,74,8)"/>
<path d="M70 60h2v1h-2v-1z" fill="rgb(16,16,16)"/>
<path d="M31 61h1v1h-1v-1z" fill="rgb(90,74,8)"/>
<path d="M32 61h1v1h2v1h-1v1h-2v-1h-1v-1h1v-1z" fill="rgb(255,230,57)"/>
<path d="M33 61h1v1h-1v-1z" fill="rgb(197,164,16)"/>
<path d="M36 61h1v1h-1v-1z" fill="rgb(16,16,16)"/>
<path d="M54 61h1v1h1v1h-2v-2z" fill="rgb(41,41,32)"/>
<path d="M58 61h1v1h-1v-1z" fill="rgb(197,164,16)"/>
<path d="M59 61h1v1h-1v-1z" fill="rgb(16,16,16)"/>
<path d="M64 61h1v1h-1v-1z" fill="rgb(16,16,16)"/>
<path d="M69 61h1v1h-1v-1z" fill="rgb(16,16,16)"/>
<path d="M30 62h1v2h-1v-2z" fill="rgb(16,16,16)"/>
<path d="M37 62h2v1h-2v-1z" fill="rgb(16,16,16)"/>
<path d="M52 62h2v1h-2v-1z" fill="rgb(16,16,16)"/>
<path d="M57 62h3v1h1v2h-3v-1h-1v-2z" fill="rgb(255,230,57)"/>
<path d="M60 62h1v1h-1v-1z" fill="rgb(16,16,16)"/>
<path d="M62 62h2v1h-2v-1z" fill="rgb(16,16,16)"/>
<path d="M64 62h2v2h-2v-2z" fill="rgb(41,41,32)"/>
<path d="M68 62h1v1h-1v-1z" fill="rgb(41,41,32)"/>
<path d="M31 63h1v1h-1v-1z" fill="rgb(197,164,16)"/>
<path d="M34 63h2v2h-1v1h-2v-1h-1v-1h2v-1z" fill="rgb(197,164,16)"/>
<path d="M36 63h1v1h-1v-1z" fill="rgb(16,16,16)"/>
<path d="M39 63h3v1h-3v-1z" fill="rgb(16,16,16)"/>
<path d="M49 63h3v1h-3v-1z" fill="rgb(16,16,16)"/>
<path d="M52 63h2v1h-2v-1z" fill="transparent"/>
<path d="M54 63h2v2h-1v-1h-1v-1z" fill="rgb(16,16,16)"/>
<path d="M56 63h1v1h1v1h2v1h-3v-1h-1v-2z" fill="rgb(197,164,16)"/>
<path d="M61 63h1v3h-1v-3z" fill="rgb(16,16,16)"/>
<path d="M62 63h1v1h1v1h-2v-2z" fill="rgb(197,164,16)"/>
<path d="M63 63h1v1h-1v-1z" fill="rgb(90,74,8)"/>
<path d="M66 63h2v1h-2v-1z" fill="rgb(16,16,16)"/>
<path d="M31 64h1v2h-1v-2z" fill="rgb(16,16,16)"/>
<path d="M36 64h1v3h-1v1h-2v-1h-1v-1h3v-2z" fill="rgb(41,41,32)"/>
<path d="M37 64h1v2h-1v-2z" fill="rgb(16,16,16)"/>
<path d="M42 64h7v1h-2v1h-1v-1h-4v-1z" fill="rgb(16,16,16)"/>
<path d="M49 64h3v1h-1v1h-4v-1h2v-1z" fill="rgb(41,41,32)"/>
<path d="M52 64h2v1h-2v-1z" fill="rgb(16,16,16)"/>
<path d="M54 64h1v1h-1v-1z" fill="transparent"/>
<path d="M64 64h2v1h-2v-1z" fill="rgb(16,16,16)"/>
<path d="M32 65h1v1h-1v-1z" fill="rgb(57,65,82)"/>
<path d="M35 65h1v1h-1v-1z" fill="rgb(57,65,82)"/>
<path d="M51 65h1v1h-1v-1z" fill="rgb(90,74,8)"/>
<path d="M52 65h2v1h-1v1h-2v-1h1v-1z" fill="rgb(197,164,16)"/>
<path d="M54 65h2v2h-2v-2z" fill="rgb(41,41,32)"/>
<path d="M56 65h1v3h-1v-3z" fill="rgb(16,16,16)"/>
<path d="M60 65h1v1h-1v-1z" fill="rgb(57,65,82)"/>
<path d="M62 65h2v1h-2v-1z" fill="rgb(41,41,32)"/>
<path d="M32 66h1v1h-1v-1z" fill="rgb(16,16,16)"/>
<path d="M37 66h1v4h-2v1h-2v1h-2v-1h1v-1h2v-1h1v-2h1v-1z" fill="rgb(197,164,16)"/>
<path d="M38 66h2v1h-2v-1z" fill="rgb(16,16,16)"/>
<path d="M48 66h3v1h-3v-1z" fill="rgb(16,16,16)"/>
<path d="M53 66h1v1h-1v-1z" fill="rgb(90,74,8)"/>
<path d="M57 66h3v3h-2v-1h-1v-2z" fill="rgb(41,41,32)"/>
<path d="M60 66h1v2h-1v-2z" fill="rgb(16,16,16)"/>
<path d="M30 67h2v1h-2v-1z" fill="rgb(90,74,8)"/>
<path d="M32 67h1v1h3v1h-1v1h-2v1h-2v-1h-1v-2h2v-1z" fill="rgb(255,230,57)"/>
<path d="M33 67h1v1h-1v-1z" fill="rgb(57,65,82)"/>
<path d="M38 67h1v2h-1v-2z" fill="rgb(106,106,98)"/>
<path d="M39 67h1v1h-1v-1z" fill="rgb(197,197,213)"/>
<path d="M40 67h1v1h-1v-1z" fill="rgb(16,16,16)"/>
<path d="M51 67h4v1h-4v-1z" fill="rgb(16,16,16)"/>
<path d="M55 67h1v1h-1v-1z" fill="transparent"/>
<path d="M61 67h1v1h-1v-1z" fill="rgb(90,74,8)"/>
<path d="M29 68h1v1h-1v-1z" fill="rgb(90,74,8)"/>
<path d="M39 68h1v1h-1v-1z" fill="rgb(16,16,16)"/>
<path d="M55 68h1v1h-1v-1z" fill="rgb(16,16,16)"/>
<path d="M56 68h1v1h2v1h-1v1h1v1h1v2h-1v-1h-2v-1h-1v-1h-1v-2h1v-1z" fill="rgb(197,164,16)"/>
<path d="M57 68h1v1h-1v-1z" fill="rgb(57,65,82)"/>
<path d="M60 68h1v1h-1v-1z" fill="rgb(197,164,16)"/>
<path d="M61 68h1v1h2v1h2v1h-1v1h-2v-1h-3v1h-1v-1h-1v-1h1v-1h2v-1z" fill="rgb(255,230,57)"/>
<path d="M62 68h2v1h-2v-1z" fill="rgb(90,74,8)"/>
<path d="M26 69h3v2h-1v-1h-2v-1z" fill="rgb(90,74,8)"/>
<path d="M29 69h1v1h-1v-1z" fill="rgb(197,164,16)"/>
<path d="M38 69h1v1h-1v-1z" fill="rgb(16,16,16)"/>
<path d="M54 69h1v2h-1v-2z" fill="rgb(16,16,16)"/>
<path d="M64 69h2v1h-2v-1z" fill="rgb(90,74,8)"/>
<path d="M24 70h2v1h-2v-1z" fill="rgb(106,106,98)"/>
<path d="M26 70h2v1h-1v1h-1v-2z" fill="rgb(197,197,213)"/>
<path d="M29 70h2v1h-2v-1z" fill="rgb(106,106,98)"/>
<path d="M36 70h2v1h-2v-1z" fill="rgb(16,16,16)"/>
<path d="M66 70h1v1h-1v-1z" fill="rgb(90,74,8)"/>
<path d="M23 71h1v1h-1v-1z" fill="rgb(106,106,98)"/>
<path d="M24 71h2v1h-2v-1z" fill="rgb(255,255,255)"/>
<path d="M27 71h2v1h-2v-1z" fill="rgb(106,106,98)"/>
<path d="M29 71h2v1h-1v1h-2v-1h1v-1z" fill="rgb(255,255,255)"/>
<path d="M31 71h1v2h-1v-2z" fill="rgb(90,74,8)"/>
<path d="M34 71h2v1h-2v-1z" fill="rgb(16,16,16)"/>
<path d="M55 71h1v1h-1v-1z" fill="rgb(90,74,8)"/>
<path d="M60 71h1v1h-1v-1z" fill="rgb(197,164,16)"/>
<path d="M61 71h1v1h-1v-1z" fill="rgb(90,74,8)"/>
<path d="M62 71h1v1h-1v-1z" fill="rgb(197,164,16)"/>
<path d="M65 71h1v1h-1v-1z" fill="rgb(106,106,98)"/>
<path d="M66 71h1v1h2v1h-3v-2z" fill="rgb(255,255,255)"/>
<path d="M67 71h2v1h-2v-1z" fill="rgb(90,74,8)"/>
<path d="M23 72h3v1h-3v-1z" fill="rgb(16,16,16)"/>
<path d="M26 72h1v2h-1v-2z" fill="rgb(106,106,98)"/>
<path d="M27 72h1v2h-1v-2z" fill="rgb(197,197,213)"/>
<path d="M30 72h1v1h-1v-1z" fill="rgb(197,197,213)"/>
<path d="M32 72h2v1h-2v-1z" fill="rgb(16,16,16)"/>
<path d="M56 72h1v1h-1v-1z" fill="rgb(90,74,8)"/>
<path d="M60 72h1v1h-1v-1z" fill="rgb(90,74,8)"/>
<path d="M61 72h1v1h2v1h-1v1h-1v-1h-1v-2z" fill="rgb(255,255,255)"/>
<path d="M62 72h1v1h-1v-1z" fill="rgb(197,197,213)"/>
<path d="M63 72h1v1h-1v-1z" fill="rgb(90,74,8)"/>
<path d="M64 72h1v2h-1v-2z" fill="rgb(197,164,16)"/>
<path d="M65 72h1v1h-1v-1z" fill="rgb(90,74,8)"/>
<path d="M69 72h1v2h-1v-2z" fill="rgb(106,106,98)"/>
<path d="M28 73h4v1h-4v-1z" fill="rgb(16,16,16)"/>
<path d="M57 73h2v1h-2v-1z" fill="rgb(16,16,16)"/>
<path d="M60 73h1v1h-1v-1z" fill="rgb(197,197,213)"/>
<path d="M65 73h2v1h-2v-1z" fill="rgb(16,16,16)"/>
<path d="M67 73h1v1h-1v-1z" fill="rgb(106,106,98)"/>
<path d="M68 73h1v1h-1v-1z" fill="rgb(197,197,213)"/>
<path d="M26 74h2v1h-2v-1z" fill="rgb(16,16,16)"/>
<path d="M59 74h2v1h-2v-1z" fill="rgb(16,16,16)"/>
<path d="M61 74h1v1h-1v-1z" fill="rgb(197,197,213)"/>
<path d="M63 74h1v1h-1v-1z" fill="rgb(197,197,213)"/>
<path d="M64 74h1v1h-1v-1z" fill="rgb(16,16,16)"/>
<path d="M68 74h2v1h-2v-1z" fill="rgb(16,16,16)"/>
<path d="M61 75h1v1h-1v-1z" fill="rgb(90,74,8)"/>
<path d="M62 75h1v1h-1v-1z" fill="rgb(197,197,213)"/>
<path d="M63 75h1v2h-2v-1h1v-1z" fill="rgb(16,16,16)"/>
</svg>
