<?xml version="1.0" encoding="utf-8"?>
<!-- generated at drububu.com  -->
<!DOCTYPE svg PUBLIC "-//W3C//DTD SVG 1.1//EN" "http://www.w3.org/Graphics/SVG/1.1/DTD/svg11.dtd">
<svg version="1.1" preserveAspectRatio="xMinYMin meet" xmlns="http://www.w3.org/2000/svg" xmlns:xlink="http://www.w3.org/1999/xlink" x="0px" y="0px" width="96px" height="96px" viewBox="0 0 96 96">
<path d="M0 0h96v96h-96v-96z" fill="transparent"/>
<path d="M49 18h1v2h-1v-2z" fill="rgb(123,82,49)"/>
<path d="M50 18h1v1h-1v-1z" fill="rgb(0,0,0)"/>
<path d="M37 19h1v2h-1v-2z" fill="rgb(123,82,49)"/>
<path d="M38 19h1v1h-1v-1z" fill="rgb(0,0,0)"/>
<path d="M39 19h1v1h-1v-1z" fill="rgb(123,82,49)"/>
<path d="M50 19h1v3h1v2h-1v2h1v1h-1v1h-3v1h-2v-2h-1v-2h1v-1h2v-2h1v-1h1v-2z" fill="rgb(255,238,74)"/>
<path d="M51 19h1v2h-1v-2z" fill="rgb(0,0,0)"/>
<path d="M38 20h2v2h1v1h1v-1h1v2h-1v2h-1v1h1v1h-2v-1h-1v1h-1v-1h-1v-1h1v-1h1v-1h-1v-2h1
	v-1h-1v-1z" fill="rgb(255,238,74)"/>
<path d="M40 20h1v1h-1v-1z" fill="rgb(123,82,49)"/>
<path d="M49 20h1v1h-1v-1z" fill="rgb(197,123,16)"/>
<path d="M38 21h1v1h-1v-1z" fill="rgb(123,82,49)"/>
<path d="M40 21h1v1h-1v-1z" fill="rgb(0,0,0)"/>
<path d="M42 21h2v1h-2v-1z" fill="rgb(123,82,49)"/>
<path d="M48 21h1v1h-1v-1z" fill="rgb(123,82,49)"/>
<path d="M51 21h1v1h-1v-1z" fill="rgb(123,82,49)"/>
<path d="M37 22h1v1h-1v-1z" fill="rgb(123,82,49)"/>
<path d="M41 22h1v1h-1v-1z" fill="rgb(0,0,0)"/>
<path d="M43 22h1v2h-1v-2z" fill="rgb(0,0,0)"/>
<path d="M47 22h1v1h-1v-1z" fill="rgb(123,82,49)"/>
<path d="M52 22h1v2h-1v-2z" fill="rgb(123,82,49)"/>
<path d="M37 23h1v1h-1v-1z" fill="rgb(0,0,0)"/>
<path d="M45 23h1v1h-1v-1z" fill="rgb(123,82,49)"/>
<path d="M46 23h1v1h-1v-1z" fill="rgb(197,123,16)"/>
<path d="M47 23h1v1h-1v-1z" fill="rgb(230,189,49)"/>
<path d="M38 24h1v1h-1v-1z" fill="rgb(123,82,49)"/>
<path d="M42 24h1v1h-1v-1z" fill="rgb(123,82,49)"/>
<path d="M43 24h1v2h-1v-2z" fill="transparent"/>
<path d="M44 24h1v4h-1v-4z" fill="rgb(123,82,49)"/>
<path d="M45 24h1v1h-1v-1z" fill="rgb(230,189,49)"/>
<path d="M51 24h1v1h-1v-1z" fill="rgb(123,82,49)"/>
<path d="M61 24h1v3h-1v-3z" fill="rgb(0,0,0)"/>
<path d="M62 24h1v1h-1v-1z" fill="rgb(98,98,98)"/>
<path d="M64 24h2v1h-2v-1z" fill="rgb(98,98,98)"/>
<path d="M37 25h1v1h-1v-1z" fill="rgb(123,82,49)"/>
<path d="M42 25h1v1h-1v-1z" fill="rgb(0,0,0)"/>
<path d="M51 25h1v1h-1v-1z" fill="rgb(0,0,0)"/>
<path d="M58 25h2v1h-2v-1z" fill="rgb(98,98,98)"/>
<path d="M62 25h1v2h-1v-2z" fill="rgb(255,255,255)"/>
<path d="M63 25h1v1h-1v-1z" fill="rgb(98,98,98)"/>
<path d="M64 25h1v2h-1v-2z" fill="rgb(0,0,0)"/>
<path d="M65 25h1v2h-1v-2z" fill="rgb(255,255,255)"/>
<path d="M66 25h1v1h-1v-1z" fill="rgb(98,98,98)"/>
<path d="M25 26h2v2h-1v-1h-1v-1z" fill="rgb(0,0,0)"/>
<path d="M36 26h1v1h-1v-1z" fill="rgb(123,82,49)"/>
<path d="M41 26h2v1h1v1h-2v-1h-1v-1z" fill="rgb(230,189,49)"/>
<path d="M43 26h1v1h-1v-1z" fill="rgb(0,0,0)"/>
<path d="M52 26h1v2h-1v-2z" fill="rgb(123,82,49)"/>
<path d="M58 26h1v2h-1v-2z" fill="rgb(0,0,0)"/>
<path d="M59 26h1v1h-1v-1z" fill="rgb(255,255,255)"/>
<path d="M60 26h1v1h-1v-1z" fill="rgb(98,98,98)"/>
<path d="M63 26h1v2h-1v-2z" fill="rgb(197,197,197)"/>
<path d="M66 26h1v2h-1v-2z" fill="rgb(197,197,197)"/>
<path d="M67 26h1v2h-1v-2z" fill="rgb(0,0,0)"/>
<path d="M21 27h1v2h-1v-2z" fill="rgb(98,98,98)"/>
<path d="M22 27h1v1h-1v-1z" fill="rgb(0,0,0)"/>
<path d="M24 27h1v1h-1v-1z" fill="rgb(98,98,98)"/>
<path d="M25 27h1v1h-1v-1z" fill="rgb(255,255,255)"/>
<path d="M28 27h2v3h-1v-2h-1v-1z" fill="rgb(0,0,0)"/>
<path d="M35 27h1v1h-1v-1z" fill="rgb(106,32,32)"/>
<path d="M36 27h1v1h-1v-1z" fill="rgb(205,16,65)"/>
<path d="M37 27h1v2h1v-1h2v1h-1v1h-1v1h-1v2h-3v-1h-1v-2h1v-1h1v-1h1v-1z" fill="rgb(255,74,49)"/>
<path d="M39 27h1v1h-1v-1z" fill="rgb(230,189,49)"/>
<path d="M45 27h1v1h-1v-1z" fill="rgb(230,189,49)"/>
<path d="M51 27h1v1h-1v-1z" fill="rgb(230,189,49)"/>
<path d="M59 27h1v1h-1v-1z" fill="rgb(197,197,197)"/>
<path d="M60 27h1v2h-1v-2z" fill="rgb(255,255,255)"/>
<path d="M61 27h1v1h-1v-1z" fill="rgb(197,197,197)"/>
<path d="M62 27h1v1h-1v-1z" fill="rgb(106,32,32)"/>
<path d="M64 27h2v1h-2v-1z" fill="rgb(106,32,32)"/>
<path d="M68 27h1v1h-1v-1z" fill="rgb(98,98,98)"/>
<path d="M22 28h1v2h-1v-2z" fill="rgb(255,255,255)"/>
<path d="M23 28h1v1h-1v-1z" fill="rgb(98,98,98)"/>
<path d="M24 28h1v1h-1v-1z" fill="rgb(255,255,255)"/>
<path d="M25 28h1v1h-1v-1z" fill="rgb(197,197,197)"/>
<path d="M26 28h1v1h-1v-1z" fill="rgb(98,98,98)"/>
<path d="M27 28h1v1h-1v-1z" fill="rgb(0,0,0)"/>
<path d="M28 28h1v1h-1v-1z" fill="rgb(255,255,255)"/>
<path d="M34 28h1v2h-1v-2z" fill="rgb(106,32,32)"/>
<path d="M35 28h1v1h-1v-1z" fill="rgb(205,16,65)"/>
<path d="M38 28h1v1h-1v-1z" fill="rgb(230,189,49)"/>
<path d="M41 28h1v1h-1v-1z" fill="rgb(230,189,49)"/>
<path d="M42 28h1v1h-1v-1z" fill="rgb(106,32,32)"/>
<path d="M43 28h1v1h-1v-1z" fill="rgb(123,82,49)"/>
<path d="M44 28h1v1h-1v-1z" fill="rgb(230,189,49)"/>
<path d="M45 28h1v1h-1v-1z" fill="rgb(205,16,65)"/>
<path d="M48 28h3v1h-1v1h-1v-1h-1v-1z" fill="rgb(230,189,49)"/>
<path d="M51 28h1v1h-1v-1z" fill="rgb(0,0,0)"/>
<path d="M59 28h1v1h-1v-1z" fill="rgb(0,0,0)"/>
<path d="M61 28h1v1h-1v-1z" fill="rgb(106,32,32)"/>
<path d="M62 28h1v1h1v1h1v1h-1v1h1v1h1v1h-2v-1h-1v-1h-1v-1h1v-1h-1v-2z" fill="rgb(255,74,49)"/>
<path d="M63 28h3v1h1v1h1v3h-1v1h-1v-1h-1v-1h-1v-1h1v-1h-1v-1h-1v-1z" fill="rgb(205,16,65)"/>
<path d="M66 28h1v1h-1v-1z" fill="rgb(106,32,32)"/>
<path d="M67 28h1v1h-1v-1z" fill="rgb(98,98,98)"/>
<path d="M68 28h1v1h-1v-1z" fill="rgb(255,255,255)"/>
<path d="M69 28h1v1h-1v-1z" fill="rgb(98,98,98)"/>
<path d="M20 29h1v1h-1v-1z" fill="rgb(98,98,98)"/>
<path d="M21 29h1v2h-1v-2z" fill="rgb(197,197,197)"/>
<path d="M23 29h1v1h-1v-1z" fill="rgb(0,0,0)"/>
<path d="M24 29h1v1h-1v-1z" fill="rgb(197,197,197)"/>
<path d="M25 29h1v1h-1v-1z" fill="rgb(106,32,32)"/>
<path d="M26 29h1v1h-1v-1z" fill="rgb(197,197,197)"/>
<path d="M27 29h1v1h-1v-1z" fill="rgb(255,255,255)"/>
<path d="M28 29h1v1h-1v-1z" fill="rgb(197,197,197)"/>
<path d="M40 29h2v1h-2v-1z" fill="rgb(106,32,32)"/>
<path d="M42 29h4v1h2v-1h1v2h-1v1h-1v1h-2v1h-4v-1h-1v-2h1v-1h1v-1z" fill="rgb(255,74,49)"/>
<path d="M46 29h1v1h-1v-1z" fill="rgb(230,189,49)"/>
<path d="M47 29h1v1h-1v-1z" fill="rgb(205,16,65)"/>
<path d="M50 29h1v2h-1v-2z" fill="rgb(0,0,0)"/>
<path d="M60 29h1v2h-1v-2z" fill="rgb(0,0,0)"/>
<path d="M61 29h1v1h1v1h-2v-2z" fill="rgb(205,16,65)"/>
<path d="M67 29h1v1h-1v-1z" fill="rgb(106,32,32)"/>
<path d="M68 29h1v1h-1v-1z" fill="rgb(197,197,197)"/>
<path d="M69 29h1v2h-1v2h-1v-3h1v-1z" fill="rgb(0,0,0)"/>
<path d="M19 30h1v2h-1v-2z" fill="rgb(98,98,98)"/>
<path d="M20 30h1v1h-1v-1z" fill="rgb(0,0,0)"/>
<path d="M22 30h1v1h-1v-1z" fill="rgb(0,0,0)"/>
<path d="M23 30h1v1h-1v-1z" fill="rgb(106,32,32)"/>
<path d="M24 30h2v1h-2v-1z" fill="rgb(205,16,65)"/>
<path d="M26 30h1v1h-1v-1z" fill="rgb(106,32,32)"/>
<path d="M27 30h1v1h-1v-1z" fill="rgb(197,197,197)"/>
<path d="M28 30h1v2h-1v-2z" fill="rgb(0,0,0)"/>
<path d="M33 30h1v2h-1v-2z" fill="rgb(106,32,32)"/>
<path d="M39 30h1v1h-1v-1z" fill="rgb(106,32,32)"/>
<path d="M40 30h1v1h-1v-1z" fill="rgb(205,16,65)"/>
<path d="M49 30h1v1h-1v-1z" fill="rgb(123,82,49)"/>
<path d="M20 31h1v2h-1v-2z" fill="rgb(197,197,197)"/>
<path d="M21 31h1v1h-1v-1z" fill="rgb(0,0,0)"/>
<path d="M22 31h1v1h-1v-1z" fill="rgb(205,16,65)"/>
<path d="M23 31h3v1h-2v1h-1v1h2v2h-4v-3h1v-1h1v-1z" fill="rgb(255,74,49)"/>
<path d="M26 31h1v1h-1v-1z" fill="rgb(205,16,65)"/>
<path d="M27 31h1v1h-1v-1z" fill="rgb(106,32,32)"/>
<path d="M38 31h1v2h-1v-2z" fill="rgb(106,32,32)"/>
<path d="M39 31h1v2h1v1h4v-1h2v-1h1v-1h1v1h1v1h1v1h1v1h-1v2h-1v2h-1v1h-3v-1h1v-1h1v-4h-1
	v1h-7v-1h-1v-3z" fill="rgb(205,16,65)"/>
<path d="M49 31h1v1h-1v-1z" fill="rgb(0,0,0)"/>
<path d="M52 31h2v2h-1v-1h-1v-1z" fill="rgb(106,32,32)"/>
<path d="M60 31h1v1h-1v-1z" fill="rgb(98,98,98)"/>
<path d="M61 31h1v1h-1v-1z" fill="rgb(197,197,197)"/>
<path d="M19 32h1v1h-1v-1z" fill="rgb(0,0,0)"/>
<path d="M21 32h1v1h-1v-1z" fill="rgb(106,32,32)"/>
<path d="M24 32h2v1h-1v1h-2v-1h1v-1z" fill="rgb(205,16,65)"/>
<path d="M26 32h1v1h-1v-1z" fill="rgb(98,98,98)"/>
<path d="M27 32h1v2h-1v-2z" fill="rgb(0,0,0)"/>
<path d="M33 32h1v1h-1v-1z" fill="rgb(0,0,0)"/>
<path d="M34 32h1v1h-1v-1z" fill="rgb(205,16,65)"/>
<path d="M50 32h1v1h-1v-1z" fill="rgb(0,0,0)"/>
<path d="M51 32h1v1h-1v-1z" fill="rgb(106,32,32)"/>
<path d="M52 32h1v2h-2v-1h1v-1z" fill="rgb(255,74,49)"/>
<path d="M56 32h2v1h-2v-1z" fill="rgb(106,32,32)"/>
<path d="M59 32h1v1h-1v-1z" fill="rgb(98,98,98)"/>
<path d="M60 32h2v1h-2v-1z" fill="rgb(255,255,255)"/>
<path d="M62 32h1v1h-1v-1z" fill="rgb(197,197,197)"/>
<path d="M20 33h1v3h-1v-3z" fill="rgb(0,0,0)"/>
<path d="M25 33h1v1h-1v-1z" fill="rgb(197,197,197)"/>
<path d="M26 33h1v1h-1v-1z" fill="rgb(255,255,255)"/>
<path d="M34 33h1v1h-1v-1z" fill="rgb(0,0,0)"/>
<path d="M35 33h3v1h-3v-1z" fill="rgb(205,16,65)"/>
<path d="M38 33h1v1h-1v-1z" fill="rgb(0,0,0)"/>
<path d="M53 33h1v1h-1v-1z" fill="rgb(0,0,0)"/>
<path d="M55 33h1v1h-1v-1z" fill="rgb(106,32,32)"/>
<path d="M56 33h1v1h-1v-1z" fill="rgb(255,74,49)"/>
<path d="M57 33h1v2h-1v-2z" fill="rgb(0,0,0)"/>
<path d="M59 33h1v1h-1v-1z" fill="rgb(106,32,32)"/>
<path d="M60 33h1v1h-1v-1z" fill="rgb(0,0,0)"/>
<path d="M61 33h1v1h-1v-1z" fill="rgb(106,32,32)"/>
<path d="M62 33h1v1h-1v-1z" fill="rgb(0,0,0)"/>
<path d="M63 33h1v1h-1v-1z" fill="rgb(205,16,65)"/>
<path d="M67 33h1v2h-1v-2z" fill="rgb(0,0,0)"/>
<path d="M25 34h1v1h-1v-1z" fill="rgb(255,255,255)"/>
<path d="M26 34h1v1h-1v-1z" fill="rgb(0,0,0)"/>
<path d="M27 34h1v2h-1v-2z" fill="rgb(106,32,32)"/>
<path d="M34 34h1v2h-1v-2z" fill="rgb(98,98,98)"/>
<path d="M35 34h1v1h-1v-1z" fill="rgb(0,0,0)"/>
<path d="M36 34h3v1h-3v-1z" fill="rgb(106,32,32)"/>
<path d="M39 34h1v1h-1v-1z" fill="rgb(0,0,0)"/>
<path d="M47 34h1v4h-1v1h-1v-1h-1v-2h1v-1h1v-1z" fill="rgb(255,74,49)"/>
<path d="M52 34h1v1h-1v-1z" fill="rgb(0,0,0)"/>
<path d="M53 34h1v1h-1v-1z" fill="transparent"/>
<path d="M54 34h1v1h-1v-1z" fill="rgb(106,32,32)"/>
<path d="M55 34h1v1h-1v-1z" fill="rgb(255,74,49)"/>
<path d="M56 34h1v1h-1v-1z" fill="rgb(205,16,65)"/>
<path d="M58 34h1v2h-1v-2z" fill="rgb(106,32,32)"/>
<path d="M59 34h1v1h-1v-1z" fill="rgb(205,16,65)"/>
<path d="M60 34h2v1h-1v1h-2v-1h1v-1z" fill="rgb(255,74,49)"/>
<path d="M62 34h1v1h3v1h-1v3h-2v-2h1v-1h-2v-2z" fill="rgb(205,16,65)"/>
<path d="M63 34h2v1h-2v-1z" fill="rgb(0,0,0)"/>
<path d="M65 34h2v1h-2v-1z" fill="rgb(106,32,32)"/>
<path d="M25 35h1v1h-1v-1z" fill="rgb(106,32,32)"/>
<path d="M26 35h1v1h-1v-1z" fill="rgb(205,16,65)"/>
<path d="M28 35h2v1h-2v-1z" fill="rgb(0,0,0)"/>
<path d="M35 35h1v1h-1v-1z" fill="rgb(255,255,255)"/>
<path d="M36 35h1v1h-1v-1z" fill="rgb(0,0,0)"/>
<path d="M37 35h1v1h-1v-1z" fill="rgb(197,197,197)"/>
<path d="M38 35h1v1h-1v-1z" fill="rgb(98,98,98)"/>
<path d="M39 35h1v1h-1v-1z" fill="rgb(106,32,32)"/>
<path d="M40 35h1v1h-1v-1z" fill="rgb(0,0,0)"/>
<path d="M41 35h2v1h-2v-1z" fill="rgb(255,255,255)"/>
<path d="M43 35h1v1h-1v-1z" fill="rgb(0,0,0)"/>
<path d="M44 35h1v1h-1v-1z" fill="rgb(255,255,255)"/>
<path d="M45 35h1v1h-1v-1z" fill="rgb(197,197,197)"/>
<path d="M51 35h1v1h-1v-1z" fill="rgb(106,32,32)"/>
<path d="M52 35h1v1h-1v-1z" fill="transparent"/>
<path d="M53 35h1v1h-1v-1z" fill="rgb(106,32,32)"/>
<path d="M54 35h1v1h-1v-1z" fill="rgb(255,74,49)"/>
<path d="M55 35h1v2h-1v2h-4v-1h1v-1h2v-1h1v-1z" fill="rgb(205,16,65)"/>
<path d="M56 35h1v1h-1v-1z" fill="rgb(106,32,32)"/>
<path d="M57 35h1v2h-1v-2z" fill="transparent"/>
<path d="M61 35h1v1h-1v-1z" fill="rgb(106,32,32)"/>
<path d="M66 35h1v1h-1v-1z" fill="rgb(0,0,0)"/>
<path d="M74 35h1v1h1v1h1v2h1v1h1v1h-1v1h-1v1h-1v3h1v2h-2v-1h-1v-2h1v-2h-1v1h-1v1h-1v-2
	h-1v-4h-1v-2h1v1h2v1h1v-1h1v-1h-1v-2z" fill="rgb(255,238,74)"/>
<path d="M21 36h1v1h-1v-1z" fill="rgb(0,0,0)"/>
<path d="M22 36h4v1h-4v-1z" fill="rgb(205,16,65)"/>
<path d="M26 36h1v1h-1v-1z" fill="rgb(106,32,32)"/>
<path d="M27 36h1v2h1v1h-2v-1h-2v-1h2v-1z" fill="rgb(255,74,49)"/>
<path d="M28 36h2v2h-1v-1h-1v-1z" fill="rgb(205,16,65)"/>
<path d="M30 36h1v2h1v1h-3v-1h1v-2z" fill="rgb(0,0,0)"/>
<path d="M34 36h2v1h-2v-1z" fill="rgb(106,32,32)"/>
<path d="M36 36h1v1h-1v-1z" fill="rgb(255,255,255)"/>
<path d="M37 36h1v1h-1v-1z" fill="rgb(106,32,32)"/>
<path d="M38 36h1v1h-1v-1z" fill="rgb(255,139,98)"/>
<path d="M39 36h1v1h2v1h2v1h-5v-1h-4v-1h4v-1z" fill="rgb(255,205,189)"/>
<path d="M40 36h1v1h-1v-1z" fill="rgb(255,139,98)"/>
<path d="M41 36h1v1h-1v-1z" fill="rgb(106,32,32)"/>
<path d="M42 36h1v1h-1v-1z" fill="rgb(197,197,197)"/>
<path d="M43 36h1v1h-1v-1z" fill="rgb(255,255,255)"/>
<path d="M44 36h1v1h-1v-1z" fill="rgb(197,197,197)"/>
<path d="M51 36h1v2h-1v-2z" fill="rgb(0,0,0)"/>
<path d="M52 36h1v1h-1v-1z" fill="rgb(106,32,32)"/>
<path d="M53 36h1v1h-1v-1z" fill="rgb(255,74,49)"/>
<path d="M56 36h1v1h-1v-1z" fill="rgb(0,0,0)"/>
<path d="M58 36h1v1h1v1h-2v-2z" fill="rgb(0,0,0)"/>
<path d="M59 36h1v1h-1v-1z" fill="rgb(205,16,65)"/>
<path d="M60 36h1v1h-1v-1z" fill="rgb(106,32,32)"/>
<path d="M61 36h2v1h-1v1h-2v-1h1v-1z" fill="rgb(255,74,49)"/>
<path d="M63 36h1v1h-1v-1z" fill="rgb(106,32,32)"/>
<path d="M65 36h1v1h-1v-1z" fill="rgb(106,32,32)"/>
<path d="M22 37h2v3h-1v-2h-1v-1z" fill="rgb(0,0,0)"/>
<path d="M24 37h1v1h-1v-1z" fill="rgb(106,32,32)"/>
<path d="M28 37h1v1h-1v-1z" fill="rgb(106,32,32)"/>
<path d="M33 37h1v2h-1v-2z" fill="rgb(106,32,32)"/>
<path d="M34 37h1v1h1v1h-2v-2z" fill="rgb(255,139,98)"/>
<path d="M42 37h1v1h-1v-1z" fill="rgb(255,139,98)"/>
<path d="M43 37h1v1h-1v-1z" fill="rgb(255,74,49)"/>
<path d="M44 37h1v1h-1v-1z" fill="rgb(106,32,32)"/>
<path d="M50 37h1v1h-1v-1z" fill="rgb(106,32,32)"/>
<path d="M55 37h1v1h1v1h-1v2h-1v-4z" fill="rgb(106,32,32)"/>
<path d="M56 37h1v1h-1v-1z" fill="transparent"/>
<path d="M57 37h1v1h-1v-1z" fill="rgb(106,32,32)"/>
<path d="M62 37h1v2h-1v-2z" fill="rgb(106,32,32)"/>
<path d="M65 37h1v2h-1v-2z" fill="rgb(0,0,0)"/>
<path d="M24 38h1v1h1v1h-2v-2z" fill="rgb(255,74,49)"/>
<path d="M25 38h2v1h-2v-1z" fill="rgb(205,16,65)"/>
<path d="M36 38h1v1h-1v-1z" fill="rgb(0,0,0)"/>
<path d="M37 38h1v1h-1v-1z" fill="rgb(106,32,32)"/>
<path d="M38 38h1v1h-1v-1z" fill="rgb(255,139,98)"/>
<path d="M44 38h1v2h-1v1h-1v1h-1v-2h1v-1h1v-1z" fill="rgb(255,139,98)"/>
<path d="M45 38h1v2h-1v-2z" fill="rgb(106,32,32)"/>
<path d="M50 38h1v1h-1v-1z" fill="rgb(0,0,0)"/>
<path d="M57 38h2v1h-1v1h-1v1h-1v-2h1v-1z" fill="rgb(255,74,49)"/>
<path d="M59 38h1v1h2v3h-1v2h-2v-2h1v-1h-2v-2h1v-1z" fill="rgb(205,16,65)"/>
<path d="M60 38h2v1h-2v-1z" fill="rgb(0,0,0)"/>
<path d="M26 39h1v1h-1v-1z" fill="rgb(106,32,32)"/>
<path d="M27 39h1v1h-1v-1z" fill="rgb(205,16,65)"/>
<path d="M28 39h1v1h-1v-1z" fill="rgb(0,0,0)"/>
<path d="M29 39h3v1h-2v1h1v1h-2v-1h-1v-1h1v-1z" fill="rgb(205,16,65)"/>
<path d="M32 39h1v1h1v1h-2v-2z" fill="rgb(0,0,0)"/>
<path d="M33 39h1v1h-1v-1z" fill="transparent"/>
<path d="M34 39h2v1h-2v-1z" fill="rgb(106,32,32)"/>
<path d="M36 39h2v1h-1v1h-3v-1h2v-1z" fill="transparent"/>
<path d="M38 39h1v1h-1v-1z" fill="rgb(106,32,32)"/>
<path d="M39 39h3v1h-3v-1z" fill="rgb(0,0,0)"/>
<path d="M42 39h1v1h-1v-1z" fill="rgb(106,32,32)"/>
<path d="M49 39h1v1h-1v-1z" fill="rgb(0,0,0)"/>
<path d="M50 39h1v1h-1v-1z" fill="rgb(205,16,65)"/>
<path d="M51 39h2v1h-2v-1z" fill="rgb(123,82,49)"/>
<path d="M53 39h2v1h-1v1h-1v1h-1v-2h1v-1z" fill="rgb(0,0,0)"/>
<path d="M62 39h3v1h-2v2h-1v-3z" fill="rgb(0,0,0)"/>
<path d="M24 40h1v1h-1v-1z" fill="rgb(0,0,0)"/>
<path d="M25 40h1v1h-1v-1z" fill="rgb(106,32,32)"/>
<path d="M26 40h2v1h-2v-1z" fill="rgb(0,0,0)"/>
<path d="M30 40h2v1h-2v-1z" fill="rgb(106,32,32)"/>
<path d="M37 40h1v1h-1v-1z" fill="rgb(0,0,0)"/>
<path d="M38 40h1v1h-1v-1z" fill="rgb(255,139,98)"/>
<path d="M39 40h1v1h-1v-1z" fill="rgb(205,16,65)"/>
<path d="M40 40h1v1h-1v-1z" fill="rgb(255,74,49)"/>
<path d="M41 40h1v1h-1v-1z" fill="rgb(106,32,32)"/>
<path d="M44 40h1v1h-1v-1z" fill="rgb(106,32,32)"/>
<path d="M45 40h1v1h-1v-1z" fill="rgb(205,16,65)"/>
<path d="M46 40h1v1h-1v-1z" fill="rgb(106,32,32)"/>
<path d="M47 40h2v1h-1v2h-2v1h-3v-1h1v-2h3v-1z" fill="rgb(0,0,0)"/>
<path d="M49 40h2v1h-2v-1z" fill="rgb(123,82,49)"/>
<path d="M51 40h1v1h-1v-1z" fill="rgb(230,189,49)"/>
<path d="M54 40h1v1h-1v-1z" fill="rgb(205,16,65)"/>
<path d="M57 40h1v1h-1v-1z" fill="rgb(106,32,32)"/>
<path d="M60 40h1v1h-1v-1z" fill="rgb(106,32,32)"/>
<path d="M25 41h1v3h-1v-3z" fill="rgb(0,0,0)"/>
<path d="M26 41h1v1h1v2h-1v-1h-1v-2z" fill="rgb(255,74,49)"/>
<path d="M27 41h1v1h-1v-1z" fill="rgb(205,16,65)"/>
<path d="M28 41h1v1h-1v-1z" fill="rgb(255,74,49)"/>
<path d="M31 41h1v1h-1v-1z" fill="rgb(0,0,0)"/>
<path d="M32 41h2v1h-1v1h1v1h-2v-1h-1v-1h1v-1z" fill="rgb(205,16,65)"/>
<path d="M34 41h2v1h-1v1h-1v-2z" fill="rgb(0,0,0)"/>
<path d="M36 41h2v1h-2v-1z" fill="rgb(106,32,32)"/>
<path d="M38 41h1v1h-1v-1z" fill="rgb(255,205,189)"/>
<path d="M39 41h2v1h-2v-1z" fill="rgb(106,32,32)"/>
<path d="M41 41h1v1h-1v-1z" fill="rgb(255,205,189)"/>
<path d="M43 41h1v1h-1v-1z" fill="rgb(106,32,32)"/>
<path d="M48 41h1v2h-1v-2z" fill="rgb(123,82,49)"/>
<path d="M49 41h1v1h-1v-1z" fill="rgb(230,189,49)"/>
<path d="M50 41h2v1h1v1h-3v2h-1v-3h1v-1z" fill="rgb(255,238,74)"/>
<path d="M53 41h2v1h-2v-1z" fill="rgb(255,74,49)"/>
<path d="M55 41h1v1h-1v-1z" fill="rgb(0,0,0)"/>
<path d="M56 41h1v1h-1v-1z" fill="rgb(106,32,32)"/>
<path d="M57 41h2v1h-1v1h-1v-2z" fill="rgb(255,74,49)"/>
<path d="M59 41h1v1h-1v-1z" fill="rgb(106,32,32)"/>
<path d="M78 41h1v2h-1v3h1v2h-1v1h-1v1h-2v1h-1v3h-1v3h-1v-1h-1v-1h1v-2h1v-3h-1v-1h-1v-1
	h-1v-4h1v-1h1v2h1v-1h1v-1h1v2h-1v2h1v1h2v-2h-1v-3h1v-1h1v-1z" fill="rgb(255,74,49)"/>
<path d="M28 42h1v2h-1v-2z" fill="rgb(106,32,32)"/>
<path d="M29 42h1v1h-1v-1z" fill="rgb(255,74,49)"/>
<path d="M30 42h1v1h-1v-1z" fill="rgb(0,0,0)"/>
<path d="M33 42h1v1h-1v-1z" fill="rgb(106,32,32)"/>
<path d="M35 42h1v1h-1v-1z" fill="rgb(230,189,49)"/>
<path d="M36 42h2v1h-2v-1z" fill="rgb(255,238,74)"/>
<path d="M38 42h1v1h-1v-1z" fill="rgb(106,32,32)"/>
<path d="M39 42h2v1h-2v-1z" fill="rgb(255,205,189)"/>
<path d="M41 42h1v1h-1v-1z" fill="rgb(255,139,98)"/>
<path d="M42 42h1v1h-1v-1z" fill="rgb(0,0,0)"/>
<path d="M43 42h1v1h-1v-1z" fill="rgb(98,98,98)"/>
<path d="M53 42h1v1h-1v-1z" fill="rgb(106,32,32)"/>
<path d="M54 42h2v1h1v1h-1v1h-1v-2h-1v-1z" fill="rgb(205,16,65)"/>
<path d="M56 42h1v1h-1v-1z" fill="rgb(0,0,0)"/>
<path d="M58 42h1v1h-1v-1z" fill="rgb(106,32,32)"/>
<path d="M61 42h1v1h-1v-1z" fill="rgb(106,32,32)"/>
<path d="M26 43h1v1h-1v-1z" fill="rgb(205,16,65)"/>
<path d="M29 43h1v1h-1v-1z" fill="rgb(0,0,0)"/>
<path d="M30 43h1v2h1v2h-1v-1h-1v-1h-1v-1h1v-1z" fill="rgb(255,74,49)"/>
<path d="M31 43h1v1h-1v-1z" fill="rgb(106,32,32)"/>
<path d="M34 43h1v1h-1v-1z" fill="rgb(123,82,49)"/>
<path d="M35 43h1v2h1v-1h1v-1h1v1h1v1h-1v1h-1v1h-3v-1h-1v-2h1v-1z" fill="rgb(255,238,74)"/>
<path d="M36 43h2v1h-1v1h-1v-2z" fill="rgb(255,246,205)"/>
<path d="M39 43h3v1h-3v-1z" fill="rgb(0,0,0)"/>
<path d="M42 43h1v1h-1v-1z" fill="rgb(98,98,98)"/>
<path d="M46 43h1v1h-1v-1z" fill="rgb(106,32,32)"/>
<path d="M47 43h1v2h-1v-2z" fill="rgb(123,82,49)"/>
<path d="M48 43h1v2h1v1h4v1h2v1h1v1h-2v1h-4v-1h-1v-1h-1v-1h-1v-4z" fill="rgb(230,189,49)"/>
<path d="M50 43h2v1h-1v1h-1v-2z" fill="rgb(255,246,205)"/>
<path d="M52 43h1v2h-1v-2z" fill="rgb(0,0,0)"/>
<path d="M53 43h2v2h-2v-2z" fill="rgb(255,74,49)"/>
<path d="M57 43h2v1h-2v-1z" fill="rgb(0,0,0)"/>
<path d="M61 43h2v1h-2v-1z" fill="rgb(0,0,0)"/>
<path d="M63 43h1v1h-1v-1z" fill="rgb(106,32,32)"/>
<path d="M26 44h2v1h-2v-1z" fill="rgb(0,0,0)"/>
<path d="M28 44h1v1h-1v-1z" fill="rgb(205,16,65)"/>
<path d="M31 44h1v1h-1v-1z" fill="rgb(205,16,65)"/>
<path d="M32 44h1v1h-1v-1z" fill="rgb(106,32,32)"/>
<path d="M33 44h1v2h-1v-2z" fill="rgb(123,82,49)"/>
<path d="M40 44h4v1h-4v-1z" fill="rgb(106,32,32)"/>
<path d="M44 44h3v3h1v1h-3v-1h-3v-1h-1v-1h3v-1z" fill="rgb(205,16,65)"/>
<path d="M51 44h1v1h1v1h-3v-1h1v-1z" fill="rgb(255,238,74)"/>
<path d="M56 44h1v1h-1v-1z" fill="rgb(106,32,32)"/>
<path d="M57 44h2v1h-1v1h-1v-2z" fill="rgb(255,74,49)"/>
<path d="M59 44h2v2h-1v-1h-1v-1z" fill="rgb(0,0,0)"/>
<path d="M61 44h2v1h-2v-1z" fill="rgb(255,74,49)"/>
<path d="M63 44h1v1h-1v-1z" fill="rgb(0,0,0)"/>
<path d="M27 45h1v1h-1v-1z" fill="rgb(106,32,32)"/>
<path d="M28 45h1v1h-1v-1z" fill="rgb(255,74,49)"/>
<path d="M29 45h1v2h-1v-2z" fill="rgb(106,32,32)"/>
<path d="M32 45h1v1h-1v-1z" fill="rgb(205,16,65)"/>
<path d="M39 45h1v1h-1v-1z" fill="rgb(106,32,32)"/>
<path d="M40 45h1v1h1v1h3v1h3v1h1v1h2v2h-1v2h-1v-2h-2v-1h-2v1h1v1h-1v3h-2v-1h-1v1h-2v-1
	h1v-3h-1v-2h-2v-2h1v-2h1v-1z" fill="rgb(255,74,49)"/>
<path d="M47 45h1v2h-1v-2z" fill="rgb(0,0,0)"/>
<path d="M53 45h1v1h-1v-1z" fill="rgb(0,0,0)"/>
<path d="M54 45h1v1h-1v-1z" fill="rgb(205,16,65)"/>
<path d="M55 45h1v2h-2v-1h1v-1z" fill="rgb(0,0,0)"/>
<path d="M56 45h1v1h1v1h-2v-2z" fill="rgb(205,16,65)"/>
<path d="M58 45h2v1h-2v-1z" fill="rgb(205,16,65)"/>
<path d="M61 45h1v1h-1v-1z" fill="rgb(205,16,65)"/>
<path d="M62 45h1v1h-1v-1z" fill="rgb(0,0,0)"/>
<path d="M69 45h1v3h-1v-3z" fill="rgb(205,16,65)"/>
<path d="M28 46h1v1h-1v-1z" fill="rgb(0,0,0)"/>
<path d="M30 46h1v1h-1v-1z" fill="rgb(205,16,65)"/>
<path d="M32 46h2v3h-1v-2h-1v-1z" fill="rgb(0,0,0)"/>
<path d="M34 46h1v1h3v1h-1v2h-2v-2h-1v-2z" fill="rgb(230,189,49)"/>
<path d="M38 46h1v2h-1v-2z" fill="rgb(106,32,32)"/>
<path d="M58 46h1v1h-1v-1z" fill="rgb(106,32,32)"/>
<path d="M59 46h1v1h-1v-1z" fill="rgb(0,0,0)"/>
<path d="M60 46h1v1h-1v-1z" fill="rgb(205,16,65)"/>
<path d="M61 46h1v1h-1v-1z" fill="rgb(0,0,0)"/>
<path d="M30 47h2v1h-2v-1z" fill="rgb(0,0,0)"/>
<path d="M48 47h1v1h-1v-1z" fill="rgb(0,0,0)"/>
<path d="M56 47h3v1h-1v1h-1v-1h-1v-1z" fill="rgb(0,0,0)"/>
<path d="M59 47h1v1h-1v-1z" fill="rgb(205,16,65)"/>
<path d="M60 47h1v1h-1v-1z" fill="rgb(0,0,0)"/>
<path d="M34 48h1v1h-1v-1z" fill="rgb(123,82,49)"/>
<path d="M37 48h1v2h-1v-2z" fill="rgb(106,32,32)"/>
<path d="M48 48h1v1h-1v-1z" fill="rgb(106,32,32)"/>
<path d="M49 48h1v1h-1v-1z" fill="rgb(197,123,16)"/>
<path d="M58 48h1v1h-1v-1z" fill="rgb(205,16,65)"/>
<path d="M59 48h1v1h-1v-1z" fill="rgb(106,32,32)"/>
<path d="M62 48h3v2h-1v-1h-2v-1z" fill="rgb(106,32,32)"/>
<path d="M70 48h1v1h-1v-1z" fill="rgb(205,16,65)"/>
<path d="M74 48h1v1h-1v-1z" fill="rgb(255,238,74)"/>
<path d="M78 48h1v1h-1v-1z" fill="rgb(205,16,65)"/>
<path d="M34 49h1v1h-1v-1z" fill="rgb(0,0,0)"/>
<path d="M49 49h1v1h-1v-1z" fill="rgb(106,32,32)"/>
<path d="M50 49h1v1h-1v-1z" fill="rgb(0,0,0)"/>
<path d="M55 49h1v1h-1v-1z" fill="rgb(123,82,49)"/>
<path d="M56 49h1v2h-1v-2z" fill="rgb(0,0,0)"/>
<path d="M57 49h1v2h-1v-2z" fill="rgb(205,16,65)"/>
<path d="M58 49h1v1h-1v-1z" fill="rgb(106,32,32)"/>
<path d="M59 49h1v1h-1v-1z" fill="rgb(0,0,0)"/>
<path d="M60 49h2v1h-2v-1z" fill="rgb(106,32,32)"/>
<path d="M62 49h2v1h-2v-1z" fill="rgb(255,74,49)"/>
<path d="M71 49h1v1h-1v-1z" fill="rgb(205,16,65)"/>
<path d="M77 49h1v1h-1v-1z" fill="rgb(205,16,65)"/>
<path d="M35 50h1v1h-1v-1z" fill="rgb(0,0,0)"/>
<path d="M36 50h1v4h-1v-4z" fill="rgb(106,32,32)"/>
<path d="M37 50h1v1h1v1h-1v3h-1v-5z" fill="rgb(255,74,49)"/>
<path d="M38 50h2v1h-2v-1z" fill="rgb(230,189,49)"/>
<path d="M51 50h4v1h-4v-1z" fill="rgb(0,0,0)"/>
<path d="M55 50h1v1h1v3h-3v1h-2v1h-3v-2h1v-2h1v-1h4v-1z" fill="rgb(205,16,65)"/>
<path d="M58 50h1v1h-1v-1z" fill="rgb(0,0,0)"/>
<path d="M59 50h4v1h-1v1h-1v1h-1v1h-1v1h-1v-4h1v-1z" fill="rgb(205,16,65)"/>
<path d="M63 50h1v1h-1v-1z" fill="rgb(106,32,32)"/>
<path d="M72 50h1v2h-1v-2z" fill="rgb(106,32,32)"/>
<path d="M75 50h1v1h-1v-1z" fill="rgb(106,32,32)"/>
<path d="M76 50h1v1h-1v-1z" fill="rgb(205,16,65)"/>
<path d="M39 51h1v2h1v1h-1v2h1v1h1v-1h1v1h1v-1h1v-1h1v-4h1v1h1v1h1v1h-1v1h-1v1h2v1h-1v1
	h-2v1h-6v-1h-2v-1h-1v-1h1v-1h1v-1h-1v-1h1v-2z" fill="rgb(255,238,74)"/>
<path d="M45 51h1v1h-1v-1z" fill="rgb(230,189,49)"/>
<path d="M57 51h1v1h-1v-1z" fill="rgb(106,32,32)"/>
<path d="M62 51h1v1h-1v-1z" fill="rgb(0,0,0)"/>
<path d="M74 51h1v3h-1v-3z" fill="rgb(106,32,32)"/>
<path d="M38 52h1v1h-1v-1z" fill="rgb(230,189,49)"/>
<path d="M40 52h1v1h-1v-1z" fill="rgb(230,189,49)"/>
<path d="M48 52h1v1h-1v-1z" fill="rgb(230,189,49)"/>
<path d="M57 52h1v2h-1v-2z" fill="rgb(0,0,0)"/>
<path d="M61 52h1v1h-1v-1z" fill="rgb(0,0,0)"/>
<path d="M72 52h1v1h-1v-1z" fill="rgb(205,16,65)"/>
<path d="M45 53h1v2h-1v-2z" fill="rgb(230,189,49)"/>
<path d="M60 53h1v1h-1v-1z" fill="rgb(0,0,0)"/>
<path d="M71 53h1v1h-1v-1z" fill="rgb(106,32,32)"/>
<path d="M35 54h1v1h-1v-1z" fill="rgb(123,82,49)"/>
<path d="M36 54h1v2h-1v-2z" fill="rgb(0,0,0)"/>
<path d="M38 54h1v1h-1v-1z" fill="rgb(230,189,49)"/>
<path d="M40 54h1v1h-1v-1z" fill="rgb(230,189,49)"/>
<path d="M48 54h1v1h-1v-1z" fill="rgb(230,189,49)"/>
<path d="M54 54h3v1h-3v-1z" fill="rgb(123,82,49)"/>
<path d="M57 54h1v1h-1v-1z" fill="rgb(106,32,32)"/>
<path d="M59 54h1v1h-1v-1z" fill="rgb(106,32,32)"/>
<path d="M71 54h1v1h-1v-1z" fill="rgb(205,16,65)"/>
<path d="M73 54h1v3h-1v-3z" fill="rgb(0,0,0)"/>
<path d="M34 55h1v1h-1v-1z" fill="rgb(123,82,49)"/>
<path d="M35 55h1v1h-1v-1z" fill="rgb(255,238,74)"/>
<path d="M37 55h1v1h-1v-1z" fill="rgb(230,189,49)"/>
<path d="M42 55h1v1h-1v-1z" fill="rgb(230,189,49)"/>
<path d="M47 55h1v1h-1v-1z" fill="rgb(230,189,49)"/>
<path d="M48 55h1v1h-1v-1z" fill="rgb(255,74,49)"/>
<path d="M52 55h2v1h-2v-1z" fill="rgb(123,82,49)"/>
<path d="M54 55h1v1h-1v-1z" fill="rgb(230,189,49)"/>
<path d="M55 55h2v1h2v1h1v1h1v1h-2v1h-2v1h-1v1h-1v1h-3v-1h-1v-1h-1v-1h1v-3h2v2h2v-1h1v-2
	h-1v-1z" fill="rgb(255,238,74)"/>
<path d="M57 55h1v1h-1v-1z" fill="rgb(230,189,49)"/>
<path d="M58 55h2v1h-2v-1z" fill="rgb(123,82,49)"/>
<path d="M70 55h1v1h-1v-1z" fill="rgb(106,32,32)"/>
<path d="M33 56h1v2h-1v-2z" fill="rgb(123,82,49)"/>
<path d="M34 56h2v2h-1v1h-1v-3z" fill="rgb(255,246,205)"/>
<path d="M36 56h1v1h-1v-1z" fill="rgb(123,82,49)"/>
<path d="M41 56h1v1h-1v-1z" fill="rgb(230,189,49)"/>
<path d="M43 56h1v1h-1v-1z" fill="rgb(230,189,49)"/>
<path d="M49 56h1v3h-1v4h1v1h-5v-1h-3v-1h-1v-1h-1v-1h-1v-1h-1v-1h2v1h6v-1h2v-1h1v-1z" fill="rgb(230,189,49)"/>
<path d="M50 56h1v2h-1v-2z" fill="rgb(197,123,16)"/>
<path d="M51 56h1v1h-1v-1z" fill="rgb(123,82,49)"/>
<path d="M52 56h1v1h-1v-1z" fill="rgb(230,189,49)"/>
<path d="M53 56h1v1h-1v-1z" fill="rgb(255,238,74)"/>
<path d="M54 56h2v2h-1v1h-2v-2h1v-1z" fill="rgb(255,246,205)"/>
<path d="M59 56h1v1h-1v-1z" fill="rgb(230,189,49)"/>
<path d="M60 56h1v1h-1v-1z" fill="rgb(0,0,0)"/>
<path d="M69 56h1v1h-1v-1z" fill="rgb(123,82,49)"/>
<path d="M70 56h1v2h-1v1h-1v1h-2v1h-1v-1h-1v-1h2v-1h2v-1h1v-1z" fill="rgb(255,238,74)"/>
<path d="M71 56h1v3h-1v1h-1v1h-1v1h-1v1h-1v1h-1v1h-4v-2h1v-4h2v1h1v1h1v-1h2v-1h1v-1h1v-2
	z" fill="rgb(230,189,49)"/>
<path d="M36 57h1v2h1v2h-1v1h-3v-1h-1v-3h1v1h1v-1h1v-1z" fill="rgb(255,238,74)"/>
<path d="M37 57h1v1h-1v-1z" fill="rgb(197,123,16)"/>
<path d="M60 57h1v1h-1v-1z" fill="rgb(230,189,49)"/>
<path d="M61 57h1v1h-1v-1z" fill="rgb(0,0,0)"/>
<path d="M62 57h1v1h-1v-1z" fill="rgb(123,82,49)"/>
<path d="M67 57h2v1h-2v-1z" fill="rgb(123,82,49)"/>
<path d="M72 57h1v2h-1v-2z" fill="rgb(0,0,0)"/>
<path d="M32 58h1v3h-1v-3z" fill="rgb(123,82,49)"/>
<path d="M37 58h1v1h-1v-1z" fill="rgb(123,82,49)"/>
<path d="M50 58h1v1h-1v-1z" fill="rgb(123,82,49)"/>
<path d="M61 58h1v1h-1v-1z" fill="rgb(123,82,49)"/>
<path d="M62 58h1v1h-1v-1z" fill="rgb(230,189,49)"/>
<path d="M63 58h1v1h-1v-1z" fill="rgb(197,123,16)"/>
<path d="M64 58h3v1h-3v-1z" fill="rgb(123,82,49)"/>
<path d="M38 59h1v1h-1v-1z" fill="rgb(197,123,16)"/>
<path d="M49 59h1v2h-1v-2z" fill="rgb(197,123,16)"/>
<path d="M50 59h1v1h-1v-1z" fill="rgb(230,189,49)"/>
<path d="M59 59h2v1h1v3h-1v1h-1v1h-1v1h-6v-1h-1v-1h-1v-1h-1v-2h1v1h1v1h3v-1h1v-1h1v-1h2
	v-1z" fill="rgb(230,189,49)"/>
<path d="M61 59h1v1h-1v-1z" fill="rgb(255,238,74)"/>
<path d="M62 59h1v1h-1v-1z" fill="rgb(123,82,49)"/>
<path d="M71 59h1v1h-1v-1z" fill="rgb(0,0,0)"/>
<path d="M38 60h1v1h-1v-1z" fill="rgb(123,82,49)"/>
<path d="M39 60h1v1h-1v-1z" fill="rgb(197,123,16)"/>
<path d="M62 60h1v3h-1v-3z" fill="rgb(0,0,0)"/>
<path d="M70 60h1v1h-1v-1z" fill="rgb(123,82,49)"/>
<path d="M33 61h1v1h-1v-1z" fill="rgb(197,123,16)"/>
<path d="M37 61h2v1h1v1h1v1h-5v-1h-2v-1h3v-1z" fill="rgb(230,189,49)"/>
<path d="M39 61h1v1h-1v-1z" fill="rgb(123,82,49)"/>
<path d="M40 61h1v1h-1v-1z" fill="rgb(197,123,16)"/>
<path d="M49 61h1v2h-1v-2z" fill="rgb(123,82,49)"/>
<path d="M69 61h1v1h-1v-1z" fill="rgb(197,123,16)"/>
<path d="M70 61h1v1h-1v-1z" fill="rgb(0,0,0)"/>
<path d="M33 62h1v1h-1v-1z" fill="rgb(123,82,49)"/>
<path d="M40 62h2v1h-2v-1z" fill="rgb(123,82,49)"/>
<path d="M68 62h1v1h-1v-1z" fill="rgb(197,123,16)"/>
<path d="M69 62h1v1h-1v-1z" fill="rgb(0,0,0)"/>
<path d="M34 63h1v1h-1v-1z" fill="rgb(0,0,0)"/>
<path d="M35 63h1v1h-1v-1z" fill="rgb(197,123,16)"/>
<path d="M41 63h1v1h-1v-1z" fill="rgb(197,123,16)"/>
<path d="M42 63h1v1h-1v-1z" fill="rgb(0,0,0)"/>
<path d="M43 63h1v1h-1v-1z" fill="rgb(123,82,49)"/>
<path d="M44 63h1v1h-1v-1z" fill="rgb(197,123,16)"/>
<path d="M50 63h1v1h-1v-1z" fill="rgb(123,82,49)"/>
<path d="M61 63h1v2h-1v-2z" fill="rgb(0,0,0)"/>
<path d="M67 63h1v1h-1v-1z" fill="rgb(197,123,16)"/>
<path d="M68 63h1v1h-1v-1z" fill="rgb(0,0,0)"/>
<path d="M35 64h2v1h-1v1h-1v-2z" fill="rgb(0,0,0)"/>
<path d="M37 64h3v1h-3v-1z" fill="rgb(197,123,16)"/>
<path d="M40 64h1v1h-1v-1z" fill="rgb(123,82,49)"/>
<path d="M41 64h1v1h-1v-1z" fill="rgb(0,0,0)"/>
<path d="M44 64h7v1h-5v1h-1v-1h-1v-1z" fill="rgb(0,0,0)"/>
<path d="M51 64h1v1h-1v-1z" fill="rgb(197,123,16)"/>
<path d="M60 64h1v1h-1v-1z" fill="rgb(197,123,16)"/>
<path d="M66 64h1v1h-1v-1z" fill="rgb(123,82,49)"/>
<path d="M67 64h1v1h-1v-1z" fill="rgb(0,0,0)"/>
<path d="M36 65h2v1h-1v1h-2v-1h1v-1z" fill="rgb(98,98,98)"/>
<path d="M38 65h3v1h-1v2h-2v1h-2v-1h-1v-1h2v-1h1v-1z" fill="rgb(0,0,0)"/>
<path d="M46 65h1v1h-1v-1z" fill="rgb(123,82,49)"/>
<path d="M47 65h4v1h2v1h-3v-1h-3v-1z" fill="rgb(197,123,16)"/>
<path d="M51 65h1v1h-1v-1z" fill="rgb(0,0,0)"/>
<path d="M52 65h1v1h-1v-1z" fill="rgb(123,82,49)"/>
<path d="M59 65h1v1h-1v-1z" fill="rgb(123,82,49)"/>
<path d="M60 65h1v1h-1v-1z" fill="rgb(0,0,0)"/>
<path d="M61 65h3v1h-3v-1z" fill="rgb(197,123,16)"/>
<path d="M64 65h1v1h-1v-1z" fill="rgb(123,82,49)"/>
<path d="M65 65h1v1h-1v-1z" fill="rgb(0,0,0)"/>
<path d="M34 66h1v1h-1v-1z" fill="rgb(106,32,32)"/>
<path d="M47 66h2v1h-2v-1z" fill="rgb(0,0,0)"/>
<path d="M49 66h1v1h-1v-1z" fill="rgb(123,82,49)"/>
<path d="M53 66h1v1h-1v-1z" fill="rgb(0,0,0)"/>
<path d="M54 66h4v1h-4v-1z" fill="rgb(123,82,49)"/>
<path d="M58 66h2v1h1v1h-1v1h-1v-1h-1v-2z" fill="rgb(0,0,0)"/>
<path d="M60 66h2v1h-2v-1z" fill="rgb(123,82,49)"/>
<path d="M62 66h2v1h-2v-1z" fill="rgb(0,0,0)"/>
<path d="M33 67h1v1h-1v-1z" fill="rgb(106,32,32)"/>
<path d="M34 67h1v1h-1v-1z" fill="rgb(205,16,65)"/>
<path d="M40 67h1v1h-1v-1z" fill="rgb(106,32,32)"/>
<path d="M50 67h3v1h-3v-1z" fill="rgb(0,0,0)"/>
<path d="M53 67h1v1h-1v-1z" fill="rgb(123,82,49)"/>
<path d="M54 67h3v2h-1v-1h-2v-1z" fill="rgb(0,0,0)"/>
<path d="M57 67h1v1h1v1h-2v-2z" fill="rgb(98,98,98)"/>
<path d="M31 68h2v1h-2v-1z" fill="rgb(106,32,32)"/>
<path d="M33 68h2v1h4v1h-1v1h-2v1h-4v-1h-1v-1h1v-1h1v-1z" fill="rgb(255,74,49)"/>
<path d="M35 68h1v1h-1v-1z" fill="rgb(205,16,65)"/>
<path d="M38 68h1v1h-1v-1z" fill="rgb(106,32,32)"/>
<path d="M39 68h2v1h1v3h-2v1h-1v1h-3v-1h-1v-1h1v-1h2v-1h1v-2z" fill="rgb(205,16,65)"/>
<path d="M41 68h1v1h-1v-1z" fill="rgb(106,32,32)"/>
<path d="M54 68h2v1h-2v-1z" fill="rgb(106,32,32)"/>
<path d="M60 68h1v1h-1v-1z" fill="rgb(106,32,32)"/>
<path d="M30 69h1v2h-1v-2z" fill="rgb(106,32,32)"/>
<path d="M31 69h1v1h-1v-1z" fill="rgb(205,16,65)"/>
<path d="M42 69h1v3h-1v-3z" fill="rgb(0,0,0)"/>
<path d="M53 69h1v1h-1v-1z" fill="rgb(106,32,32)"/>
<path d="M54 69h3v1h-1v1h1v2h1v1h-1v1h-1v1h-1v-1h-1v-2h-1v-3h1v-1z" fill="rgb(205,16,65)"/>
<path d="M57 69h3v1h-3v-1z" fill="rgb(106,32,32)"/>
<path d="M60 69h1v1h-1v-1z" fill="rgb(205,16,65)"/>
<path d="M61 69h1v1h-1v-1z" fill="rgb(106,32,32)"/>
<path d="M29 70h1v1h-1v-1z" fill="rgb(98,98,98)"/>
<path d="M52 70h1v3h-1v-3z" fill="rgb(0,0,0)"/>
<path d="M56 70h5v1h1v1h1v1h-2v1h-3v-1h-1v-2h-1v-1z" fill="rgb(255,74,49)"/>
<path d="M61 70h1v1h-1v-1z" fill="rgb(205,16,65)"/>
<path d="M62 70h1v2h-1v-2z" fill="rgb(106,32,32)"/>
<path d="M28 71h1v1h-1v-1z" fill="rgb(98,98,98)"/>
<path d="M29 71h2v1h-2v-1z" fill="rgb(255,255,255)"/>
<path d="M31 71h1v1h-1v-1z" fill="rgb(106,32,32)"/>
<path d="M27 72h1v1h-1v-1z" fill="rgb(98,98,98)"/>
<path d="M28 72h1v1h-1v-1z" fill="rgb(255,255,255)"/>
<path d="M29 72h1v1h-1v-1z" fill="rgb(197,197,197)"/>
<path d="M30 72h1v1h-1v-1z" fill="rgb(98,98,98)"/>
<path d="M31 72h1v1h-1v-1z" fill="rgb(0,0,0)"/>
<path d="M32 72h1v1h-1v-1z" fill="rgb(205,16,65)"/>
<path d="M33 72h2v1h-2v-1z" fill="rgb(106,32,32)"/>
<path d="M40 72h1v1h-1v-1z" fill="rgb(106,32,32)"/>
<path d="M41 72h1v1h-1v-1z" fill="rgb(0,0,0)"/>
<path d="M63 72h1v1h-1v-1z" fill="rgb(0,0,0)"/>
<path d="M27 73h3v1h-3v-1z" fill="rgb(0,0,0)"/>
<path d="M32 73h1v1h-1v-1z" fill="rgb(98,98,98)"/>
<path d="M33 73h2v1h-1v1h-2v-1h1v-1z" fill="rgb(255,255,255)"/>
<path d="M35 73h1v1h-1v-1z" fill="rgb(106,32,32)"/>
<path d="M39 73h1v1h-1v-1z" fill="rgb(0,0,0)"/>
<path d="M53 73h1v2h-1v-2z" fill="rgb(0,0,0)"/>
<path d="M61 73h1v1h-1v-1z" fill="rgb(205,16,65)"/>
<path d="M62 73h1v1h-1v-1z" fill="rgb(106,32,32)"/>
<path d="M63 73h1v1h-1v-1z" fill="rgb(205,16,65)"/>
<path d="M64 73h1v2h-1v-2z" fill="rgb(0,0,0)"/>
<path d="M31 74h1v1h-1v-1z" fill="rgb(98,98,98)"/>
<path d="M34 74h1v1h-1v-1z" fill="rgb(197,197,197)"/>
<path d="M35 74h4v1h-4v-1z" fill="rgb(0,0,0)"/>
<path d="M57 74h1v1h-1v-1z" fill="rgb(106,32,32)"/>
<path d="M58 74h3v2h-2v-1h-1v-1z" fill="rgb(205,16,65)"/>
<path d="M61 74h1v2h-1v-2z" fill="rgb(106,32,32)"/>
<path d="M62 74h1v1h-1v-1z" fill="rgb(255,255,255)"/>
<path d="M63 74h1v1h-1v-1z" fill="rgb(98,98,98)"/>
<path d="M31 75h4v1h-4v-1z" fill="rgb(0,0,0)"/>
<path d="M54 75h1v1h-1v-1z" fill="rgb(0,0,0)"/>
<path d="M56 75h1v1h-1v-1z" fill="rgb(106,32,32)"/>
<path d="M57 75h1v1h1v2h-1v-1h-1v-2z" fill="rgb(255,255,255)"/>
<path d="M58 75h1v1h-1v-1z" fill="rgb(98,98,98)"/>
<path d="M62 75h1v1h-1v-1z" fill="rgb(197,197,197)"/>
<path d="M63 75h1v1h-1v-1z" fill="rgb(255,255,255)"/>
<path d="M64 75h1v2h-1v-2z" fill="rgb(98,98,98)"/>
<path d="M55 76h2v2h-1v-1h-1v-1z" fill="rgb(0,0,0)"/>
<path d="M59 76h1v2h-1v-2z" fill="rgb(98,98,98)"/>
<path d="M60 76h3v1h-3v-1z" fill="rgb(0,0,0)"/>
<path d="M63 76h1v1h-1v-1z" fill="rgb(197,197,197)"/>
<path d="M57 77h1v1h-1v-1z" fill="rgb(197,197,197)"/>
<path d="M63 77h2v1h-2v-1z" fill="rgb(0,0,0)"/>
<path d="M57 78h3v1h-3v-1z" fill="rgb(0,0,0)"/>
</svg>
