<?xml version="1.0" encoding="utf-8"?>
<!-- generated at drububu.com  -->
<!DOCTYPE svg PUBLIC "-//W3C//DTD SVG 1.1//EN" "http://www.w3.org/Graphics/SVG/1.1/DTD/svg11.dtd">
<svg version="1.1" preserveAspectRatio="xMinYMin meet" xmlns="http://www.w3.org/2000/svg" xmlns:xlink="http://www.w3.org/1999/xlink" x="0px" y="0px" width="96px" height="96px" viewBox="0 0 96 96">
<path d="M0 0h96v96h-96v-96z" fill="transparent"/>
<path d="M40 15h2v1h-2v-1z" fill="rgb(131,115,98)"/>
<path d="M50 15h2v1h-2v-1z" fill="rgb(180,164,148)"/>
<path d="M38 16h2v1h-2v-1z" fill="rgb(131,115,98)"/>
<path d="M40 16h2v1h-1v1h-1v1h-1v1h-2v3h-1v2h-1v2h-1v-1h-1v1h-1v2h1v1h1v3h-1v1h-2v-1h-1
	v-1h-1v-4h1v-2h1v-2h1v-2h1v-1h1v-1h1v-1h2v-1h1v-1h2v-1z" fill="rgb(238,230,205)"/>
<path d="M42 16h1v1h-1v-1z" fill="rgb(131,115,98)"/>
<path d="M49 16h1v1h-1v-1z" fill="rgb(180,164,148)"/>
<path d="M50 16h2v1h2v1h2v1h1v-2h1v3h1v2h2v2h1v3h-1v-1h-1v5h-1v2h-1v1h-2v-1h-1v-4h-1v-5
	h-1v-2h1v-1h-3v-1h1v-1h-1v-1h-1v-2z" fill="rgb(238,230,205)"/>
<path d="M52 16h1v1h-1v-1z" fill="rgb(180,164,148)"/>
<path d="M53 16h2v1h-2v-1z" fill="rgb(131,115,98)"/>
<path d="M57 16h1v1h-1v-1z" fill="rgb(131,115,98)"/>
<path d="M36 17h1v2h-2v-1h1v-1z" fill="rgb(180,164,148)"/>
<path d="M37 17h1v1h-1v-1z" fill="rgb(131,115,98)"/>
<path d="M41 17h1v1h-1v-1z" fill="rgb(180,164,148)"/>
<path d="M42 17h1v1h-1v-1z" fill="rgb(0,0,0)"/>
<path d="M49 17h1v1h-1v-1z" fill="rgb(131,115,98)"/>
<path d="M54 17h1v1h-1v-1z" fill="rgb(180,164,148)"/>
<path d="M55 17h2v1h-2v-1z" fill="rgb(131,115,98)"/>
<path d="M58 17h1v3h-1v-3z" fill="rgb(74,65,57)"/>
<path d="M40 18h1v1h-1v-1z" fill="rgb(180,164,148)"/>
<path d="M41 18h1v1h-1v-1z" fill="rgb(0,0,0)"/>
<path d="M50 18h1v1h-1v-1z" fill="rgb(131,115,98)"/>
<path d="M56 18h1v1h-1v-1z" fill="rgb(180,164,148)"/>
<path d="M34 19h1v1h-1v-1z" fill="rgb(131,115,98)"/>
<path d="M39 19h1v2h-1v-2z" fill="rgb(180,164,148)"/>
<path d="M40 19h1v2h-1v-2z" fill="rgb(0,0,0)"/>
<path d="M51 19h1v1h-1v-1z" fill="rgb(131,115,98)"/>
<path d="M30 20h1v1h-1v-1z" fill="rgb(131,115,98)"/>
<path d="M31 20h1v1h-1v-1z" fill="rgb(180,164,148)"/>
<path d="M32 20h2v1h-2v-1z" fill="rgb(131,115,98)"/>
<path d="M37 20h2v1h-1v1h-1v-2z" fill="rgb(131,115,98)"/>
<path d="M50 20h1v1h-1v-1z" fill="rgb(131,115,98)"/>
<path d="M59 20h1v1h-1v-1z" fill="rgb(74,65,57)"/>
<path d="M30 21h1v1h-1v-1z" fill="rgb(0,0,0)"/>
<path d="M31 21h1v1h-1v-1z" fill="rgb(238,230,205)"/>
<path d="M32 21h1v1h-1v-1z" fill="rgb(213,197,180)"/>
<path d="M38 21h1v1h-1v-1z" fill="rgb(238,230,205)"/>
<path d="M39 21h1v2h-1v-2z" fill="rgb(74,65,57)"/>
<path d="M51 21h1v1h-1v-1z" fill="rgb(74,65,57)"/>
<path d="M52 21h1v1h-1v-1z" fill="rgb(213,197,180)"/>
<path d="M53 21h1v1h-1v-1z" fill="rgb(180,164,148)"/>
<path d="M59 21h1v1h-1v-1z" fill="rgb(180,164,148)"/>
<path d="M60 21h1v1h-1v-1z" fill="rgb(74,65,57)"/>
<path d="M31 22h1v1h-1v-1z" fill="rgb(0,0,0)"/>
<path d="M37 22h2v1h-1v4h-1v4h1v2h1v1h-2v1h-2v-3h-1v-3h1v-4h1v-2h1v-1z" fill="rgb(180,164,148)"/>
<path d="M52 22h1v1h-1v-1z" fill="rgb(74,65,57)"/>
<path d="M61 22h1v2h-1v-2z" fill="rgb(0,0,0)"/>
<path d="M30 23h1v2h-1v-2z" fill="rgb(131,115,98)"/>
<path d="M31 23h1v1h-1v-1z" fill="rgb(213,197,180)"/>
<path d="M38 23h1v1h-1v-1z" fill="rgb(74,65,57)"/>
<path d="M52 23h1v1h-1v-1z" fill="rgb(131,115,98)"/>
<path d="M38 24h1v2h-1v-2z" fill="rgb(0,0,0)"/>
<path d="M53 24h1v5h-3v-1h2v-4z" fill="rgb(131,115,98)"/>
<path d="M57 24h1v1h-1v-1z" fill="rgb(131,115,98)"/>
<path d="M62 24h1v2h-1v-2z" fill="rgb(0,0,0)"/>
<path d="M29 25h1v2h-1v-2z" fill="rgb(131,115,98)"/>
<path d="M30 25h1v1h-1v-1z" fill="rgb(213,197,180)"/>
<path d="M39 25h1v1h-1v-1z" fill="rgb(74,65,57)"/>
<path d="M56 25h1v1h-1v-1z" fill="rgb(131,115,98)"/>
<path d="M57 25h1v1h-1v-1z" fill="rgb(238,230,205)"/>
<path d="M58 25h1v2h-1v-2z" fill="rgb(74,65,57)"/>
<path d="M33 26h1v1h-1v-1z" fill="rgb(131,115,98)"/>
<path d="M38 26h1v1h-1v-1z" fill="rgb(131,115,98)"/>
<path d="M39 26h1v1h-1v-1z" fill="rgb(238,230,205)"/>
<path d="M40 26h1v1h-1v-1z" fill="rgb(74,65,57)"/>
<path d="M57 26h1v1h-1v-1z" fill="rgb(213,197,180)"/>
<path d="M60 26h1v1h-1v-1z" fill="rgb(213,197,180)"/>
<path d="M62 26h2v1h-2v-1z" fill="rgb(74,65,57)"/>
<path d="M28 27h1v1h-1v-1z" fill="rgb(131,115,98)"/>
<path d="M29 27h1v1h-1v-1z" fill="rgb(213,197,180)"/>
<path d="M32 27h1v2h-1v-2z" fill="rgb(131,115,98)"/>
<path d="M33 27h1v1h1v1h-2v-2z" fill="rgb(238,230,205)"/>
<path d="M34 27h1v1h-1v-1z" fill="rgb(74,65,57)"/>
<path d="M37 27h1v1h-1v-1z" fill="rgb(131,115,98)"/>
<path d="M38 27h2v1h-2v-1z" fill="rgb(0,0,0)"/>
<path d="M57 27h1v1h-1v-1z" fill="rgb(74,65,57)"/>
<path d="M60 27h1v1h2v2h-1v-1h-1v1h-1v-3z" fill="rgb(180,164,148)"/>
<path d="M61 27h1v1h-1v-1z" fill="rgb(213,197,180)"/>
<path d="M62 27h1v1h-1v-1z" fill="rgb(131,115,98)"/>
<path d="M63 27h1v1h-1v-1z" fill="rgb(213,197,180)"/>
<path d="M64 27h1v1h-1v-1z" fill="rgb(0,0,0)"/>
<path d="M28 28h1v4h-1v-4z" fill="rgb(0,0,0)"/>
<path d="M37 28h1v3h-1v-3z" fill="rgb(0,0,0)"/>
<path d="M63 28h1v3h-1v-3z" fill="rgb(0,0,0)"/>
<path d="M33 29h1v1h-1v-1z" fill="rgb(131,115,98)"/>
<path d="M51 29h1v1h-1v-1z" fill="rgb(74,65,57)"/>
<path d="M52 29h1v1h-1v-1z" fill="rgb(238,230,205)"/>
<path d="M53 29h2v1h-2v-1z" fill="rgb(213,197,180)"/>
<path d="M61 29h1v1h-1v-1z" fill="rgb(74,65,57)"/>
<path d="M52 30h1v1h-1v-1z" fill="rgb(74,65,57)"/>
<path d="M53 30h1v1h-1v-1z" fill="rgb(238,230,205)"/>
<path d="M54 30h1v1h-1v-1z" fill="rgb(180,164,148)"/>
<path d="M60 30h1v1h-1v-1z" fill="rgb(74,65,57)"/>
<path d="M61 30h1v2h-1v1h1v2h-1v2h-1v1h-1v1h-3v-1h-1v-1h1v-1h1v-1h1v-1h1v-2h1v-1h1v-1z" fill="rgb(180,164,148)"/>
<path d="M62 30h1v1h-1v-1z" fill="rgb(74,65,57)"/>
<path d="M38 31h1v2h-1v-2z" fill="rgb(74,65,57)"/>
<path d="M51 31h1v1h-1v-1z" fill="rgb(131,115,98)"/>
<path d="M52 31h1v1h2v1h1v1h2v1h-1v1h-1v1h-2v-1h-1v-2h-1v-1h-1v-1h1v-1z" fill="rgb(213,197,180)"/>
<path d="M53 31h1v1h-1v-1z" fill="rgb(74,65,57)"/>
<path d="M54 31h1v1h-1v-1z" fill="rgb(131,115,98)"/>
<path d="M59 31h1v1h-1v-1z" fill="rgb(213,197,180)"/>
<path d="M62 31h1v1h-1v-1z" fill="rgb(131,115,98)"/>
<path d="M63 31h1v1h-1v-1z" fill="rgb(74,65,57)"/>
<path d="M27 32h3v1h-2v1h-1v-2z" fill="rgb(131,115,98)"/>
<path d="M34 32h1v3h1v1h-1v1h-1v1h-1v1h-1v-1h-1v-1h-1v-2h1v-1h2v-1h1v-1z" fill="rgb(213,197,180)"/>
<path d="M42 32h3v1h-3v-1z" fill="rgb(131,106,82)"/>
<path d="M45 32h4v1h-4v-1z" fill="rgb(90,65,49)"/>
<path d="M50 32h1v1h-1v-1z" fill="rgb(131,115,98)"/>
<path d="M61 32h1v1h-1v-1z" fill="rgb(131,115,98)"/>
<path d="M62 32h1v1h-1v-1z" fill="rgb(74,65,57)"/>
<path d="M28 33h2v1h-2v-1z" fill="rgb(238,230,205)"/>
<path d="M30 33h1v1h-1v-1z" fill="rgb(213,197,180)"/>
<path d="M39 33h3v1h-3v-1z" fill="rgb(131,106,82)"/>
<path d="M42 33h1v1h-1v-1z" fill="rgb(197,172,139)"/>
<path d="M43 33h3v1h1v1h-2v1h-5v-2h3v-1z" fill="rgb(230,213,180)"/>
<path d="M46 33h3v2h-2v-1h-1v-1z" fill="rgb(197,172,139)"/>
<path d="M49 33h2v1h-2v-1z" fill="rgb(90,65,49)"/>
<path d="M51 33h1v3h1v1h1v1h1v1h1v2h-1v4h-4v-1h-4v-3h-1v-1h-1v-1h-1v-1h-3v-1h-1v-1h5v-1
	h2v1h-1v1h-1v1h6v-5z" fill="rgb(197,172,139)"/>
<path d="M58 33h1v1h-1v-1z" fill="rgb(213,197,180)"/>
<path d="M62 33h1v2h-1v-2z" fill="rgb(0,0,0)"/>
<path d="M28 34h1v1h-1v-1z" fill="rgb(74,65,57)"/>
<path d="M29 34h2v1h-2v-1z" fill="rgb(180,164,148)"/>
<path d="M37 34h1v1h-1v-1z" fill="rgb(0,0,0)"/>
<path d="M38 34h1v1h-1v-1z" fill="rgb(90,65,49)"/>
<path d="M39 34h1v1h-1v-1z" fill="rgb(197,172,139)"/>
<path d="M49 34h1v1h-1v-1z" fill="rgb(0,0,0)"/>
<path d="M50 34h1v1h-1v-1z" fill="rgb(164,139,106)"/>
<path d="M52 34h1v1h-1v-1z" fill="rgb(90,65,49)"/>
<path d="M29 35h1v2h-1v-2z" fill="rgb(74,65,57)"/>
<path d="M36 35h1v1h-1v-1z" fill="rgb(90,65,49)"/>
<path d="M37 35h1v1h-1v-1z" fill="rgb(213,197,180)"/>
<path d="M38 35h1v1h-1v-1z" fill="rgb(0,0,0)"/>
<path d="M39 35h1v1h-1v-1z" fill="rgb(131,106,82)"/>
<path d="M47 35h1v1h-1v-1z" fill="rgb(131,106,82)"/>
<path d="M48 35h1v1h-1v-1z" fill="rgb(0,0,0)"/>
<path d="M49 35h1v1h-1v-1z" fill="rgb(213,197,180)"/>
<path d="M50 35h1v2h-1v-2z" fill="rgb(131,106,82)"/>
<path d="M52 35h1v1h-1v-1z" fill="rgb(164,139,106)"/>
<path d="M61 35h1v2h-1v-2z" fill="rgb(0,0,0)"/>
<path d="M35 36h2v1h-2v-1z" fill="rgb(131,106,82)"/>
<path d="M37 36h1v2h-1v-2z" fill="rgb(255,255,255)"/>
<path d="M38 36h1v1h-1v-1z" fill="rgb(164,139,106)"/>
<path d="M39 36h1v1h-1v-1z" fill="rgb(90,65,49)"/>
<path d="M46 36h1v1h-1v-1z" fill="rgb(0,0,0)"/>
<path d="M47 36h1v1h-1v-1z" fill="rgb(164,139,106)"/>
<path d="M48 36h2v2h-2v-2z" fill="rgb(255,255,255)"/>
<path d="M53 36h1v1h-1v-1z" fill="rgb(90,65,49)"/>
<path d="M30 37h1v1h-1v-1z" fill="rgb(74,65,57)"/>
<path d="M34 37h1v1h-1v-1z" fill="rgb(131,106,82)"/>
<path d="M35 37h1v1h4v1h-1v2h-1v2h-1v1h-3v1h-2v-3h1v-2h1v-2h1v-1z" fill="rgb(197,172,139)"/>
<path d="M36 37h1v1h-1v-1z" fill="rgb(164,139,106)"/>
<path d="M38 37h1v1h-1v-1z" fill="rgb(0,0,0)"/>
<path d="M39 37h1v1h-1v-1z" fill="rgb(255,255,255)"/>
<path d="M40 37h1v1h-1v-1z" fill="rgb(90,65,49)"/>
<path d="M45 37h1v1h-1v-1z" fill="rgb(0,0,0)"/>
<path d="M46 37h1v1h-1v-1z" fill="rgb(255,255,255)"/>
<path d="M47 37h1v1h-1v-1z" fill="rgb(0,0,0)"/>
<path d="M50 37h1v1h-1v-1z" fill="rgb(213,197,180)"/>
<path d="M54 37h1v1h-1v-1z" fill="rgb(90,65,49)"/>
<path d="M60 37h1v1h-1v-1z" fill="rgb(0,0,0)"/>
<path d="M31 38h1v1h-1v-1z" fill="rgb(74,65,57)"/>
<path d="M33 38h1v2h-1v-2z" fill="rgb(131,106,82)"/>
<path d="M40 38h1v1h-1v-1z" fill="rgb(131,106,82)"/>
<path d="M41 38h2v1h-2v-1z" fill="rgb(90,65,49)"/>
<path d="M43 38h1v1h-1v-1z" fill="rgb(131,106,82)"/>
<path d="M55 38h1v1h-1v-1z" fill="rgb(131,106,82)"/>
<path d="M59 38h1v1h-1v-1z" fill="rgb(0,0,0)"/>
<path d="M32 39h1v1h-1v-1z" fill="rgb(74,65,57)"/>
<path d="M39 39h1v1h-1v-1z" fill="rgb(131,106,82)"/>
<path d="M40 39h1v1h-1v-1z" fill="rgb(213,197,180)"/>
<path d="M41 39h1v1h-1v-1z" fill="rgb(255,255,255)"/>
<path d="M42 39h1v1h-1v-1z" fill="rgb(238,230,205)"/>
<path d="M43 39h1v1h-1v-1z" fill="rgb(255,255,255)"/>
<path d="M44 39h1v1h-1v-1z" fill="rgb(90,65,49)"/>
<path d="M56 39h1v4h-1v2h-1v-3h1v-3z" fill="rgb(131,106,82)"/>
<path d="M57 39h2v1h-1v2h-1v-3z" fill="rgb(0,0,0)"/>
<path d="M32 40h1v2h-1v-2z" fill="rgb(0,0,0)"/>
<path d="M39 40h1v1h-1v-1z" fill="rgb(90,65,49)"/>
<path d="M40 40h1v1h-1v-1z" fill="rgb(180,164,148)"/>
<path d="M41 40h2v1h-1v1h2v1h-2v1h2v1h-2v1h2v1h-2v1h1v1h1v1h-4v-3h-1v-1h2v-1h-2v-1h2v-1
	h-1v-1h1v-2z" fill="rgb(0,0,0)"/>
<path d="M43 40h1v1h-1v-1z" fill="rgb(180,164,148)"/>
<path d="M44 40h1v1h-1v-1z" fill="rgb(0,0,0)"/>
<path d="M45 40h1v1h-1v-1z" fill="rgb(90,65,49)"/>
<path d="M30 41h2v1h-2v-1z" fill="rgb(131,106,82)"/>
<path d="M38 41h1v1h-1v-1z" fill="rgb(131,106,82)"/>
<path d="M39 41h1v1h-1v-1z" fill="rgb(255,255,255)"/>
<path d="M40 41h1v1h-1v-1z" fill="rgb(238,230,205)"/>
<path d="M42 41h1v1h-1v-1z" fill="rgb(238,230,205)"/>
<path d="M43 41h2v1h-2v-1z" fill="rgb(255,255,255)"/>
<path d="M45 41h1v1h-1v-1z" fill="rgb(0,0,0)"/>
<path d="M46 41h1v1h-1v-1z" fill="rgb(131,106,82)"/>
<path d="M55 41h1v1h-1v-1z" fill="rgb(164,139,106)"/>
<path d="M59 41h4v1h-4v-1z" fill="rgb(90,65,49)"/>
<path d="M28 42h2v1h-2v-1z" fill="rgb(131,106,82)"/>
<path d="M30 42h1v3h-2v-1h-1v-1h2v-1z" fill="rgb(230,213,180)"/>
<path d="M31 42h1v5h-1v-5z" fill="rgb(0,0,0)"/>
<path d="M38 42h1v1h-1v-1z" fill="rgb(90,65,49)"/>
<path d="M39 42h1v1h-1v-1z" fill="rgb(180,164,148)"/>
<path d="M44 42h2v1h-2v-1z" fill="rgb(180,164,148)"/>
<path d="M46 42h1v1h-1v-1z" fill="rgb(90,65,49)"/>
<path d="M57 42h2v1h-2v-1z" fill="rgb(90,65,49)"/>
<path d="M59 42h3v1h1v1h1v2h-1v1h-1v1h-5v-1h-1v-2h2v1h2v-1h1v-1h-1v-1h-1v-1z" fill="rgb(197,172,139)"/>
<path d="M62 42h1v1h-1v-1z" fill="rgb(164,139,106)"/>
<path d="M63 42h2v1h-2v-1z" fill="rgb(0,0,0)"/>
<path d="M27 43h1v1h-1v-1z" fill="rgb(131,106,82)"/>
<path d="M37 43h1v5h-1v-3h-3v-1h3v-1z" fill="rgb(90,65,49)"/>
<path d="M38 43h2v1h-2v-1z" fill="rgb(255,255,255)"/>
<path d="M40 43h1v1h-1v-1z" fill="rgb(238,230,205)"/>
<path d="M42 43h1v1h-1v-1z" fill="rgb(238,230,205)"/>
<path d="M43 43h2v1h-2v-1z" fill="rgb(255,255,255)"/>
<path d="M45 43h2v3h-2v-1h1v-1h-1v-1z" fill="rgb(0,0,0)"/>
<path d="M56 43h1v2h-1v-2z" fill="rgb(90,65,49)"/>
<path d="M57 43h1v1h-1v-1z" fill="rgb(197,172,139)"/>
<path d="M58 43h2v1h1v1h-1v1h-2v-1h-1v-1h1v-1z" fill="rgb(230,213,180)"/>
<path d="M63 43h2v2h1v4h-1v2h-1v-1h-3v1h-2v-1h-2v-2h1v1h3v-1h2v-1h1v-3h-1v-1z" fill="rgb(131,106,82)"/>
<path d="M65 43h1v2h-1v-2z" fill="rgb(0,0,0)"/>
<path d="M27 44h1v1h-1v-1z" fill="rgb(90,65,49)"/>
<path d="M28 44h1v1h2v2h-3v-1h-1v-1h1v-1z" fill="rgb(197,172,139)"/>
<path d="M38 44h1v1h-1v-1z" fill="rgb(180,164,148)"/>
<path d="M44 44h2v1h-2v-1z" fill="rgb(180,164,148)"/>
<path d="M47 44h1v1h-1v-1z" fill="rgb(131,106,82)"/>
<path d="M48 44h2v1h-2v-1z" fill="rgb(90,65,49)"/>
<path d="M50 44h1v1h-1v-1z" fill="rgb(131,106,82)"/>
<path d="M26 45h1v3h-1v-3z" fill="rgb(90,65,49)"/>
<path d="M32 45h2v1h-2v-1z" fill="rgb(90,65,49)"/>
<path d="M34 45h3v3h1v1h1v1h6v-1h1v-1h1v-3h4v1h4v4h-1v3h-1v-1h-2v-1h-5v1h-9v-1h-3v1h-2
	v-1h-1v-3h1v-2h2v-1z" fill="rgb(197,172,139)"/>
<path d="M38 45h2v1h-2v-1z" fill="rgb(255,255,255)"/>
<path d="M40 45h1v1h-1v-1z" fill="rgb(238,230,205)"/>
<path d="M42 45h1v1h-1v-1z" fill="rgb(238,230,205)"/>
<path d="M43 45h2v1h-2v-1z" fill="rgb(255,255,255)"/>
<path d="M51 45h1v1h-1v-1z" fill="rgb(131,106,82)"/>
<path d="M52 45h3v1h-3v-1z" fill="rgb(90,65,49)"/>
<path d="M55 45h1v3h-1v-3z" fill="rgb(0,0,0)"/>
<path d="M66 45h1v4h-1v-4z" fill="rgb(0,0,0)"/>
<path d="M27 46h1v1h-1v-1z" fill="rgb(164,139,106)"/>
<path d="M38 46h1v1h-1v-1z" fill="rgb(180,164,148)"/>
<path d="M44 46h2v1h-2v-1z" fill="rgb(180,164,148)"/>
<path d="M46 46h1v1h-1v-1z" fill="rgb(90,65,49)"/>
<path d="M63 46h1v1h-1v-1z" fill="rgb(164,139,106)"/>
<path d="M27 47h1v1h2v3h-2v-1h-1v-1h-1v-1h1v-1z" fill="rgb(131,106,82)"/>
<path d="M28 47h2v1h-2v-1z" fill="rgb(164,139,106)"/>
<path d="M30 47h1v2h-1v-2z" fill="rgb(90,65,49)"/>
<path d="M31 47h1v1h-1v-1z" fill="rgb(164,139,106)"/>
<path d="M38 47h2v1h-2v-1z" fill="rgb(255,255,255)"/>
<path d="M42 47h1v1h-1v-1z" fill="rgb(238,230,205)"/>
<path d="M43 47h1v1h-1v-1z" fill="rgb(255,255,255)"/>
<path d="M44 47h2v1h-2v-1z" fill="rgb(0,0,0)"/>
<path d="M46 47h1v1h-1v-1z" fill="rgb(131,106,82)"/>
<path d="M56 47h1v1h-1v-1z" fill="rgb(131,106,82)"/>
<path d="M62 47h1v1h-1v-1z" fill="rgb(164,139,106)"/>
<path d="M25 48h1v2h-1v-2z" fill="rgb(0,0,0)"/>
<path d="M38 48h1v1h-1v-1z" fill="rgb(131,106,82)"/>
<path d="M39 48h1v1h-1v-1z" fill="rgb(180,164,148)"/>
<path d="M43 48h2v1h-2v-1z" fill="rgb(180,164,148)"/>
<path d="M45 48h1v1h-1v-1z" fill="rgb(90,65,49)"/>
<path d="M55 48h1v2h-1v-2z" fill="rgb(164,139,106)"/>
<path d="M56 48h1v2h-1v-2z" fill="rgb(0,0,0)"/>
<path d="M58 48h3v1h-3v-1z" fill="rgb(164,139,106)"/>
<path d="M26 49h1v1h-1v-1z" fill="rgb(90,65,49)"/>
<path d="M30 49h1v5h-1v-2h-3v-2h1v1h2v-2z" fill="rgb(0,0,0)"/>
<path d="M39 49h1v1h-1v-1z" fill="rgb(90,65,49)"/>
<path d="M44 49h1v1h-1v-1z" fill="rgb(90,65,49)"/>
<path d="M65 49h1v2h-1v-2z" fill="rgb(0,0,0)"/>
<path d="M10 50h2v1h-2v-1z" fill="rgb(131,115,98)"/>
<path d="M24 50h1v1h-1v-1z" fill="rgb(90,65,49)"/>
<path d="M25 50h2v2h-1v1h-1v-1h-1v-1h1v-1z" fill="rgb(164,139,106)"/>
<path d="M54 50h1v2h-1v-2z" fill="rgb(164,139,106)"/>
<path d="M55 50h2v1h-2v-1z" fill="rgb(131,106,82)"/>
<path d="M57 50h2v1h1v1h-1v3h-1v-2h-1v-1h1v-1h-1v-1z" fill="rgb(0,0,0)"/>
<path d="M61 50h2v1h1v1h-3v-2z" fill="rgb(164,139,106)"/>
<path d="M63 50h1v1h-1v-1z" fill="rgb(90,65,49)"/>
<path d="M9 51h1v1h-1v-1z" fill="rgb(131,115,98)"/>
<path d="M10 51h2v1h-1v2h-1v-3z" fill="rgb(255,255,255)"/>
<path d="M12 51h2v1h-2v-1z" fill="rgb(90,65,49)"/>
<path d="M20 51h4v1h-4v-1z" fill="rgb(90,65,49)"/>
<path d="M31 51h1v1h1v1h-1v1h-1v-3z" fill="rgb(164,139,106)"/>
<path d="M34 51h1v1h-1v-1z" fill="rgb(164,139,106)"/>
<path d="M35 51h2v1h-2v-1z" fill="rgb(90,65,49)"/>
<path d="M46 51h1v2h-1v-2z" fill="rgb(131,106,82)"/>
<path d="M47 51h4v1h-4v-1z" fill="rgb(90,65,49)"/>
<path d="M55 51h2v1h-2v-1z" fill="rgb(0,0,0)"/>
<path d="M57 51h1v1h-1v-1z" fill="rgb(131,106,82)"/>
<path d="M60 51h1v1h-1v-1z" fill="rgb(90,65,49)"/>
<path d="M64 51h1v1h-1v-1z" fill="rgb(0,0,0)"/>
<path d="M65 51h2v1h-2v-1z" fill="rgb(131,115,98)"/>
<path d="M9 52h1v2h-1v-2z" fill="rgb(0,0,0)"/>
<path d="M11 52h1v1h-1v-1z" fill="rgb(213,197,180)"/>
<path d="M12 52h1v1h-1v-1z" fill="rgb(0,0,0)"/>
<path d="M13 52h1v2h-1v-2z" fill="rgb(197,172,139)"/>
<path d="M14 52h6v1h-6v-1z" fill="rgb(90,65,49)"/>
<path d="M20 52h4v2h-1v1h-2v-2h-1v-1z" fill="rgb(164,139,106)"/>
<path d="M24 52h1v2h-1v-2z" fill="rgb(90,65,49)"/>
<path d="M26 52h1v1h-1v-1z" fill="rgb(0,0,0)"/>
<path d="M33 52h1v1h-1v-1z" fill="rgb(90,65,49)"/>
<path d="M34 52h3v1h10v-1h4v1h2v1h-1v1h-1v1h-1v1h-16v-1h-1v-3h1v-1z" fill="rgb(197,172,139)"/>
<path d="M37 52h9v1h-9v-1z" fill="rgb(90,65,49)"/>
<path d="M51 52h2v1h-2v-1z" fill="rgb(90,65,49)"/>
<path d="M54 52h3v1h1v2h-1v1h-1v-1h-1v-1h-1v-2z" fill="rgb(131,106,82)"/>
<path d="M60 52h1v1h-1v-1z" fill="rgb(0,0,0)"/>
<path d="M61 52h1v1h-1v-1z" fill="rgb(131,106,82)"/>
<path d="M62 52h1v1h-1v-1z" fill="rgb(90,65,49)"/>
<path d="M63 52h1v1h-1v-1z" fill="rgb(0,0,0)"/>
<path d="M64 52h1v2h-1v-2z" fill="rgb(131,115,98)"/>
<path d="M65 52h2v3h-1v-1h-1v-2z" fill="rgb(255,255,255)"/>
<path d="M67 52h1v4h-2v-1h1v-3z" fill="rgb(0,0,0)"/>
<path d="M8 53h1v1h-1v-1z" fill="rgb(131,115,98)"/>
<path d="M11 53h1v1h-1v-1z" fill="rgb(0,0,0)"/>
<path d="M12 53h1v2h-1v1h1v2h-3v-1h-1v-2h2v-1h1v-1z" fill="rgb(164,139,106)"/>
<path d="M14 53h2v1h-2v-1z" fill="rgb(131,115,98)"/>
<path d="M16 53h5v2h-4v-1h-1v-1z" fill="rgb(197,172,139)"/>
<path d="M25 53h1v1h-1v-1z" fill="rgb(0,0,0)"/>
<path d="M32 53h1v1h-1v-1z" fill="rgb(90,65,49)"/>
<path d="M53 53h1v1h-1v-1z" fill="rgb(90,65,49)"/>
<path d="M60 53h1v1h-1v-1z" fill="rgb(90,65,49)"/>
<path d="M61 53h3v1h-1v2h-1v-1h-1v-2z" fill="rgb(164,139,106)"/>
<path d="M68 53h1v1h-1v-1z" fill="rgb(90,65,49)"/>
<path d="M69 53h1v1h-1v-1z" fill="rgb(131,115,98)"/>
<path d="M7 54h1v1h-1v-1z" fill="rgb(131,115,98)"/>
<path d="M8 54h1v1h-1v-1z" fill="rgb(164,139,106)"/>
<path d="M9 54h1v1h-1v-1z" fill="rgb(197,172,139)"/>
<path d="M10 54h1v1h-1v-1z" fill="rgb(0,0,0)"/>
<path d="M13 54h1v1h-1v-1z" fill="rgb(131,115,98)"/>
<path d="M14 54h2v2h-3v-1h1v-1z" fill="rgb(255,255,255)"/>
<path d="M16 54h1v3h-1v-3z" fill="rgb(90,65,49)"/>
<path d="M23 54h1v1h-1v-1z" fill="rgb(131,106,82)"/>
<path d="M24 54h1v1h-1v-1z" fill="rgb(0,0,0)"/>
<path d="M31 54h1v2h-1v-2z" fill="rgb(0,0,0)"/>
<path d="M32 54h1v2h1v1h1v1h-1v1h-1v-2h-1v-3z" fill="rgb(164,139,106)"/>
<path d="M52 54h1v1h-1v-1z" fill="rgb(164,139,106)"/>
<path d="M53 54h1v1h1v1h1v1h1v1h-1v2h-1v-1h-2v-1h-3v-1h1v-1h1v-1h1v-1z" fill="rgb(131,106,82)"/>
<path d="M54 54h1v1h-1v-1z" fill="rgb(90,65,49)"/>
<path d="M60 54h1v1h-1v-1z" fill="rgb(0,0,0)"/>
<path d="M63 54h1v2h-1v-2z" fill="rgb(90,65,49)"/>
<path d="M64 54h1v2h-1v-2z" fill="rgb(197,172,139)"/>
<path d="M65 54h1v1h-1v-1z" fill="rgb(131,115,98)"/>
<path d="M68 54h1v1h-1v-1z" fill="rgb(197,172,139)"/>
<path d="M69 54h1v1h-1v-1z" fill="rgb(90,65,49)"/>
<path d="M70 54h1v1h-1v-1z" fill="rgb(131,115,98)"/>
<path d="M6 55h1v3h-1v-3z" fill="rgb(131,115,98)"/>
<path d="M7 55h2v2h-1v1h-1v-3z" fill="rgb(255,255,255)"/>
<path d="M12 55h1v1h-1v-1z" fill="rgb(90,65,49)"/>
<path d="M17 55h3v1h-3v-1z" fill="rgb(164,139,106)"/>
<path d="M20 55h1v1h-1v-1z" fill="rgb(90,65,49)"/>
<path d="M21 55h3v1h-3v-1z" fill="rgb(0,0,0)"/>
<path d="M51 55h1v1h-1v-1z" fill="rgb(164,139,106)"/>
<path d="M55 55h1v1h-1v-1z" fill="rgb(90,65,49)"/>
<path d="M57 55h1v3h-1v-3z" fill="rgb(0,0,0)"/>
<path d="M61 55h1v1h-1v-1z" fill="rgb(0,0,0)"/>
<path d="M65 55h1v1h2v-1h1v3h-1v1h-2v-2h-3v-1h2v-1z" fill="rgb(164,139,106)"/>
<path d="M69 55h2v3h-1v-1h-1v-2z" fill="rgb(255,255,255)"/>
<path d="M71 55h1v1h-1v-1z" fill="rgb(131,115,98)"/>
<path d="M13 56h1v1h-1v-1z" fill="rgb(90,65,49)"/>
<path d="M14 56h1v1h-1v-1z" fill="rgb(213,197,180)"/>
<path d="M15 56h1v1h-1v-1z" fill="rgb(0,0,0)"/>
<path d="M17 56h3v1h-3v-1z" fill="rgb(0,0,0)"/>
<path d="M31 56h1v1h-1v-1z" fill="rgb(90,65,49)"/>
<path d="M50 56h1v1h-1v-1z" fill="rgb(164,139,106)"/>
<path d="M56 56h1v1h-1v-1z" fill="rgb(90,65,49)"/>
<path d="M62 56h1v3h-1v-3z" fill="rgb(0,0,0)"/>
<path d="M71 56h1v3h-2v-1h1v-2z" fill="rgb(0,0,0)"/>
<path d="M8 57h1v1h-1v-1z" fill="rgb(0,0,0)"/>
<path d="M9 57h1v1h-1v-1z" fill="rgb(131,115,98)"/>
<path d="M13 57h2v1h-2v-1z" fill="rgb(0,0,0)"/>
<path d="M32 57h1v2h-1v-2z" fill="rgb(0,0,0)"/>
<path d="M35 57h3v1h-3v-1z" fill="rgb(90,65,49)"/>
<path d="M38 57h7v1h-7v-1z" fill="rgb(131,106,82)"/>
<path d="M45 57h5v1h-5v-1z" fill="rgb(90,65,49)"/>
<path d="M63 57h3v2h-1v-1h-2v-1z" fill="rgb(90,65,49)"/>
<path d="M69 57h1v1h-1v-1z" fill="rgb(0,0,0)"/>
<path d="M6 58h2v1h-2v-1z" fill="rgb(0,0,0)"/>
<path d="M10 58h3v1h-3v-1z" fill="rgb(0,0,0)"/>
<path d="M31 58h1v1h-1v-1z" fill="rgb(90,65,49)"/>
<path d="M34 58h1v1h-1v-1z" fill="rgb(90,65,49)"/>
<path d="M35 58h1v1h-1v-1z" fill="rgb(164,139,106)"/>
<path d="M36 58h11v1h-11v-1z" fill="rgb(197,172,139)"/>
<path d="M47 58h1v1h-1v-1z" fill="rgb(164,139,106)"/>
<path d="M48 58h2v1h1v1h-2v1h-1v2h-1v-1h-2v-1h-7v1h-1v1h-1v-1h-1v-1h-1v-2h4v1h7v-1h3v-1z" fill="rgb(131,106,82)"/>
<path d="M50 58h3v1h-3v-1z" fill="rgb(90,65,49)"/>
<path d="M56 58h1v2h-1v-2z" fill="rgb(0,0,0)"/>
<path d="M63 58h1v1h-1v-1z" fill="rgb(213,197,180)"/>
<path d="M64 58h1v1h1v2h-1v-1h-1v-2z" fill="rgb(255,255,255)"/>
<path d="M68 58h1v1h-1v-1z" fill="rgb(0,0,0)"/>
<path d="M29 59h2v1h-2v-1z" fill="rgb(90,65,49)"/>
<path d="M31 59h2v2h-1v-1h-1v-1z" fill="rgb(164,139,106)"/>
<path d="M33 59h1v1h-1v-1z" fill="rgb(90,65,49)"/>
<path d="M38 59h7v1h-7v-1z" fill="rgb(164,139,106)"/>
<path d="M51 59h4v1h-4v-1z" fill="rgb(0,0,0)"/>
<path d="M63 59h1v1h1v1h1v-2h2v1h-1v2h-3v-1h-1v-2z" fill="rgb(0,0,0)"/>
<path d="M28 60h1v1h-1v-1z" fill="rgb(90,65,49)"/>
<path d="M29 60h2v2h-1v1h-2v-2h1v-1z" fill="rgb(230,213,180)"/>
<path d="M31 60h1v1h1v3h-2v-1h-1v-1h1v-2z" fill="rgb(197,172,139)"/>
<path d="M33 60h1v1h-1v-1z" fill="rgb(0,0,0)"/>
<path d="M49 60h2v1h-2v-1z" fill="rgb(0,0,0)"/>
<path d="M51 60h1v1h-1v-1z" fill="rgb(164,139,106)"/>
<path d="M52 60h2v1h2v1h1v2h-4v-1h-1v-1h-2v-1h2v-1z" fill="rgb(197,172,139)"/>
<path d="M54 60h1v1h-1v-1z" fill="rgb(164,139,106)"/>
<path d="M55 60h1v1h-1v-1z" fill="rgb(0,0,0)"/>
<path d="M27 61h1v1h-1v-1z" fill="rgb(90,65,49)"/>
<path d="M33 61h1v2h-1v-2z" fill="rgb(164,139,106)"/>
<path d="M34 61h1v1h1v1h1v1h1v1h-3v-2h-1v-2z" fill="rgb(0,0,0)"/>
<path d="M38 61h7v1h-7v-1z" fill="rgb(90,65,49)"/>
<path d="M48 61h1v2h-1v-2z" fill="rgb(0,0,0)"/>
<path d="M49 61h1v1h-1v-1z" fill="rgb(164,139,106)"/>
<path d="M56 61h1v1h-1v-1z" fill="rgb(90,65,49)"/>
<path d="M27 62h1v2h-1v4h-1v-5h1v-1z" fill="rgb(0,0,0)"/>
<path d="M37 62h1v1h-1v-1z" fill="rgb(90,65,49)"/>
<path d="M38 62h7v1h2v2h-2v1h-5v-1h-2v-1h-1v-1h1v-1z" fill="rgb(131,106,82)"/>
<path d="M45 62h2v1h-2v-1z" fill="rgb(90,65,49)"/>
<path d="M49 62h1v2h-1v-2z" fill="rgb(197,172,139)"/>
<path d="M50 62h2v1h1v1h-1v1h-1v-1h-1v-2z" fill="rgb(230,213,180)"/>
<path d="M57 62h1v1h-1v-1z" fill="rgb(90,65,49)"/>
<path d="M28 63h3v1h-3v-1z" fill="rgb(131,106,82)"/>
<path d="M33 63h1v1h1v1h2v2h-2v-1h-1v-1h-1v-2z" fill="rgb(131,106,82)"/>
<path d="M34 63h1v1h-1v-1z" fill="rgb(90,65,49)"/>
<path d="M47 63h1v4h-2v-1h1v-3z" fill="rgb(0,0,0)"/>
<path d="M48 63h1v2h1v2h-2v-4z" fill="rgb(131,106,82)"/>
<path d="M57 63h1v1h-1v-1z" fill="rgb(0,0,0)"/>
<path d="M27 64h1v1h-1v-1z" fill="rgb(131,106,82)"/>
<path d="M28 64h3v1h1v1h-2v1h-2v-1h-1v-1h1v-1z" fill="rgb(197,172,139)"/>
<path d="M31 64h2v1h-2v-1z" fill="rgb(90,65,49)"/>
<path d="M49 64h1v1h-1v-1z" fill="rgb(164,139,106)"/>
<path d="M50 64h1v2h-1v-2z" fill="rgb(197,172,139)"/>
<path d="M52 64h1v1h-1v-1z" fill="rgb(197,172,139)"/>
<path d="M53 64h2v1h-2v-1z" fill="rgb(131,106,82)"/>
<path d="M55 64h2v1h-2v-1z" fill="rgb(90,65,49)"/>
<path d="M57 64h1v1h-1v-1z" fill="rgb(164,139,106)"/>
<path d="M58 64h1v2h-1v-2z" fill="rgb(0,0,0)"/>
<path d="M32 65h1v1h-1v-1z" fill="rgb(164,139,106)"/>
<path d="M33 65h1v1h-1v-1z" fill="rgb(90,65,49)"/>
<path d="M37 65h1v1h-1v-1z" fill="rgb(90,65,49)"/>
<path d="M38 65h1v1h-1v-1z" fill="rgb(0,0,0)"/>
<path d="M39 65h1v1h-1v-1z" fill="rgb(90,65,49)"/>
<path d="M45 65h2v1h-1v1h-4v-1h3v-1z" fill="rgb(164,139,106)"/>
<path d="M51 65h1v1h-1v-1z" fill="rgb(90,65,49)"/>
<path d="M52 65h1v1h-1v-1z" fill="rgb(131,106,82)"/>
<path d="M53 65h4v1h-1v1h-1v1h-2v-1h-2v-1h2v-1z" fill="rgb(197,172,139)"/>
<path d="M57 65h1v1h-1v-1z" fill="rgb(90,65,49)"/>
<path d="M27 66h1v1h-1v-1z" fill="rgb(164,139,106)"/>
<path d="M30 66h1v1h-1v-1z" fill="rgb(164,139,106)"/>
<path d="M31 66h3v1h1v1h3v2h-1v1h-2v-1h-1v-1h-2v1h-1v1h-2v-1h-1v-2h-1v-1h4v-1z" fill="rgb(131,106,82)"/>
<path d="M34 66h1v1h-1v-1z" fill="rgb(0,0,0)"/>
<path d="M37 66h1v2h-1v-2z" fill="rgb(0,0,0)"/>
<path d="M40 66h1v1h-1v-1z" fill="rgb(0,0,0)"/>
<path d="M41 66h1v1h-1v-1z" fill="rgb(90,65,49)"/>
<path d="M50 66h1v1h-1v-1z" fill="rgb(90,65,49)"/>
<path d="M56 66h1v1h-1v-1z" fill="rgb(164,139,106)"/>
<path d="M57 66h2v4h1v2h-1v-1h-2v1h-1v1h-2v-1h-1v-1h-2v1h-1v1h-1v-1h-1v-4h2v-1h2v1h4v-1
	h1v-1z" fill="rgb(131,106,82)"/>
<path d="M59 66h1v3h1v3h-1v-2h-1v-4z" fill="rgb(0,0,0)"/>
<path d="M35 67h1v1h-1v-1z" fill="rgb(0,0,0)"/>
<path d="M36 67h1v1h-1v-1z" fill="rgb(90,65,49)"/>
<path d="M42 67h4v1h-4v-1z" fill="rgb(0,0,0)"/>
<path d="M47 67h3v1h-2v1h-1v-2z" fill="rgb(90,65,49)"/>
<path d="M52 67h1v1h-1v-1z" fill="rgb(164,139,106)"/>
<path d="M55 67h1v1h-1v-1z" fill="rgb(164,139,106)"/>
<path d="M27 68h1v2h-1v-2z" fill="rgb(90,65,49)"/>
<path d="M38 68h1v2h-1v-2z" fill="rgb(0,0,0)"/>
<path d="M26 69h1v1h-1v-1z" fill="rgb(131,115,98)"/>
<path d="M32 69h2v1h-2v-1z" fill="rgb(0,0,0)"/>
<path d="M47 69h1v3h-1v-3z" fill="rgb(0,0,0)"/>
<path d="M25 70h1v1h-1v-1z" fill="rgb(131,115,98)"/>
<path d="M26 70h2v1h-1v1h-2v-1h1v-1z" fill="rgb(255,255,255)"/>
<path d="M28 70h1v1h-1v-1z" fill="rgb(90,65,49)"/>
<path d="M31 70h1v1h-1v-1z" fill="rgb(131,115,98)"/>
<path d="M32 70h2v1h-1v1h-2v-1h1v-1z" fill="rgb(255,255,255)"/>
<path d="M34 70h1v1h2v1h-3v-2z" fill="rgb(0,0,0)"/>
<path d="M37 70h1v1h-1v-1z" fill="rgb(0,0,0)"/>
<path d="M24 71h1v1h-1v-1z" fill="rgb(0,0,0)"/>
<path d="M27 71h4v2h-1v-1h-3v-1z" fill="rgb(0,0,0)"/>
<path d="M33 71h1v1h-1v-1z" fill="rgb(213,197,180)"/>
<path d="M51 71h2v1h-2v-1z" fill="rgb(90,65,49)"/>
<path d="M57 71h2v1h-2v-1z" fill="rgb(90,65,49)"/>
<path d="M24 72h1v1h-1v-1z" fill="rgb(131,115,98)"/>
<path d="M25 72h2v1h-2v-1z" fill="rgb(0,0,0)"/>
<path d="M31 72h2v1h-2v-1z" fill="rgb(213,197,180)"/>
<path d="M33 72h1v1h-1v-1z" fill="rgb(0,0,0)"/>
<path d="M48 72h1v1h-1v-1z" fill="rgb(0,0,0)"/>
<path d="M50 72h1v1h-1v-1z" fill="rgb(90,65,49)"/>
<path d="M51 72h2v1h1v1h-1v1h-2v-3z" fill="rgb(255,255,255)"/>
<path d="M53 72h1v1h-1v-1z" fill="rgb(90,65,49)"/>
<path d="M56 72h1v1h-1v-1z" fill="rgb(90,65,49)"/>
<path d="M57 72h2v1h1v2h-2v-1h-1v-2z" fill="rgb(255,255,255)"/>
<path d="M59 72h1v1h-1v-1z" fill="rgb(0,0,0)"/>
<path d="M31 73h2v1h-2v-1z" fill="rgb(0,0,0)"/>
<path d="M49 73h2v2h-1v-1h-1v-1z" fill="rgb(0,0,0)"/>
<path d="M54 73h3v1h-3v-1z" fill="rgb(0,0,0)"/>
<path d="M60 73h1v2h-1v-2z" fill="rgb(0,0,0)"/>
<path d="M53 74h1v2h-3v-1h2v-1z" fill="rgb(0,0,0)"/>
<path d="M57 74h1v1h-1v-1z" fill="rgb(0,0,0)"/>
<path d="M58 75h2v1h-2v-1z" fill="rgb(0,0,0)"/>
</svg>
