<?xml version="1.0" encoding="utf-8"?>
<!-- generated at drububu.com  -->
<!DOCTYPE svg PUBLIC "-//W3C//DTD SVG 1.1//EN" "http://www.w3.org/Graphics/SVG/1.1/DTD/svg11.dtd">
<svg version="1.1" preserveAspectRatio="xMinYMin meet" xmlns="http://www.w3.org/2000/svg" xmlns:xlink="http://www.w3.org/1999/xlink" x="0px" y="0px" width="96px" height="96px" viewBox="0 0 96 96">
<path d="M0 0h96v96h-96v-96z" fill="transparent"/>
<path d="M71 18h1v2h-1v1h-1v-2h1v-1z" fill="rgb(57,57,74)"/>
<path d="M71 20h1v3h1v1h1v1h-3v-1h-1v-3h1v-1z" fill="rgb(156,156,172)"/>
<path d="M72 20h1v1h-1v-1z" fill="rgb(57,57,74)"/>
<path d="M69 21h1v3h-1v-3z" fill="rgb(57,57,74)"/>
<path d="M72 21h1v1h1v2h-1v-1h-1v-2z" fill="rgb(106,106,131)"/>
<path d="M73 21h1v1h-1v-1z" fill="rgb(57,57,74)"/>
<path d="M74 22h1v4h-4v-1h3v-3z" fill="rgb(57,57,74)"/>
<path d="M58 24h2v1h-1v4h-1v-5z" fill="rgb(57,57,74)"/>
<path d="M62 24h1v1h-1v-1z" fill="rgb(57,57,74)"/>
<path d="M70 24h1v1h-1v-1z" fill="rgb(57,57,74)"/>
<path d="M59 25h1v1h2v-1h1v3h-3v-1h-1v-2z" fill="rgb(156,156,172)"/>
<path d="M60 25h2v1h-2v-1z" fill="rgb(57,57,74)"/>
<path d="M63 25h1v2h-1v-2z" fill="rgb(57,57,74)"/>
<path d="M74 26h1v1h-1v-1z" fill="rgb(74,57,41)"/>
<path d="M75 26h1v1h-1v-1z" fill="rgb(0,0,0)"/>
<path d="M59 27h1v1h3v-1h1v2h-1v1h-3v-1h-1v-2z" fill="rgb(106,106,131)"/>
<path d="M75 27h1v1h-1v-1z" fill="rgb(74,57,41)"/>
<path d="M76 27h1v1h-1v-1z" fill="rgb(0,0,0)"/>
<path d="M64 28h2v1h-2v-1z" fill="rgb(0,0,0)"/>
<path d="M76 28h1v1h-1v-1z" fill="rgb(74,57,41)"/>
<path d="M77 28h1v1h-1v-1z" fill="rgb(0,0,0)"/>
<path d="M59 29h1v1h-1v-1z" fill="rgb(0,0,0)"/>
<path d="M63 29h1v1h-1v-1z" fill="rgb(0,0,0)"/>
<path d="M64 29h2v1h-2v-1z" fill="rgb(74,57,41)"/>
<path d="M66 29h5v1h-5v-1z" fill="rgb(0,0,0)"/>
<path d="M77 29h1v1h-1v-1z" fill="rgb(74,57,41)"/>
<path d="M78 29h1v1h-1v-1z" fill="rgb(0,0,0)"/>
<path d="M42 30h1v1h-1v-1z" fill="rgb(98,74,49)"/>
<path d="M43 30h1v1h-1v-1z" fill="rgb(0,0,0)"/>
<path d="M45 30h1v1h-1v-1z" fill="rgb(0,0,0)"/>
<path d="M48 30h6v1h-6v-1z" fill="rgb(82,57,16)"/>
<path d="M60 30h3v1h-3v-1z" fill="rgb(0,0,0)"/>
<path d="M66 30h5v1h-5v-1z" fill="rgb(74,57,41)"/>
<path d="M71 30h2v1h-2v-1z" fill="rgb(0,0,0)"/>
<path d="M78 30h1v1h-1v-1z" fill="rgb(74,57,41)"/>
<path d="M79 30h1v2h-1v-2z" fill="rgb(0,0,0)"/>
<path d="M41 31h1v1h-1v-1z" fill="rgb(98,74,49)"/>
<path d="M42 31h1v1h2v-1h1v1h2v1h2v1h2v1h1v1h1v2h1v2h1v2h-1v1h-1v-1h-1v3h-1v-1h-1v-1h-1
	v-1h-1v2h-1v-5h-1v-1h-1v-1h-2v3h-1v1h-3v-1h-2v-1h-5v-1h1v-1h1v-1h1v-1h1v-1h2v-1
	h2v-1h1v-1z" fill="rgb(172,139,115)"/>
<path d="M43 31h1v1h-1v-1z" fill="rgb(139,106,82)"/>
<path d="M44 31h1v1h-1v-1z" fill="rgb(0,0,0)"/>
<path d="M46 31h2v1h-2v-1z" fill="rgb(0,0,0)"/>
<path d="M48 31h6v1h2v1h3v1h2v1h2v1h2v1h5v1h1v1h1v2h1v5h-1v2h-1v1h-1v1h-1v-1h-1v1h-1v-1
	h-1v1h-1v1h-2v1h-3v1h-3v-5h1v-6h-1v-2h-1v-2h-1v-2h-1v-1h-1v-1h-1v-1h-2v-1h-2v-1
	z" fill="rgb(222,164,74)"/>
<path d="M54 31h2v1h-2v-1z" fill="rgb(82,57,16)"/>
<path d="M71 31h2v1h-2v-1z" fill="rgb(74,57,41)"/>
<path d="M73 31h1v1h-1v-1z" fill="rgb(0,0,0)"/>
<path d="M78 31h1v1h-1v-1z" fill="rgb(98,74,49)"/>
<path d="M39 32h2v1h-2v-1z" fill="rgb(98,74,49)"/>
<path d="M48 32h2v1h-2v-1z" fill="rgb(74,57,41)"/>
<path d="M56 32h3v1h-3v-1z" fill="rgb(82,57,16)"/>
<path d="M73 32h1v2h-1v-2z" fill="rgb(74,57,41)"/>
<path d="M74 32h1v2h-1v-2z" fill="rgb(0,0,0)"/>
<path d="M79 32h1v3h-1v-3z" fill="rgb(74,57,41)"/>
<path d="M80 32h1v3h-1v-3z" fill="rgb(0,0,0)"/>
<path d="M37 33h2v1h-2v-1z" fill="rgb(98,74,49)"/>
<path d="M50 33h2v1h-2v-1z" fill="rgb(74,57,41)"/>
<path d="M59 33h2v1h-2v-1z" fill="rgb(82,57,16)"/>
<path d="M36 34h1v1h-1v-1z" fill="rgb(98,74,49)"/>
<path d="M52 34h1v1h-1v-1z" fill="rgb(74,57,41)"/>
<path d="M61 34h2v1h-2v-1z" fill="rgb(82,57,16)"/>
<path d="M74 34h1v5h-1v-5z" fill="rgb(74,57,41)"/>
<path d="M75 34h1v5h1v1h-1v1h-1v-1h-1v-1h1v-5z" fill="rgb(0,0,0)"/>
<path d="M35 35h1v1h-1v-1z" fill="rgb(98,74,49)"/>
<path d="M53 35h1v1h-1v-1z" fill="rgb(74,57,41)"/>
<path d="M63 35h2v1h-2v-1z" fill="rgb(82,57,16)"/>
<path d="M79 35h1v1h4v1h-5v-2z" fill="rgb(0,0,0)"/>
<path d="M34 36h1v1h-1v-1z" fill="rgb(98,74,49)"/>
<path d="M54 36h1v2h-1v-2z" fill="rgb(74,57,41)"/>
<path d="M65 36h5v1h-5v-1z" fill="rgb(82,57,16)"/>
<path d="M78 36h1v1h-1v-1z" fill="rgb(74,57,41)"/>
<path d="M33 37h1v1h-1v-1z" fill="rgb(98,74,49)"/>
<path d="M44 37h2v1h-1v2h-1v-3z" fill="rgb(0,0,0)"/>
<path d="M70 37h3v1h-3v-1z" fill="rgb(82,57,16)"/>
<path d="M77 37h1v1h-1v-1z" fill="rgb(74,57,41)"/>
<path d="M78 37h1v1h-1v-1z" fill="rgb(0,0,0)"/>
<path d="M79 37h5v1h-5v-1z" fill="rgb(74,57,41)"/>
<path d="M84 37h2v1h-2v-1z" fill="rgb(0,0,0)"/>
<path d="M32 38h1v1h-1v-1z" fill="rgb(98,74,49)"/>
<path d="M45 38h1v1h1v2h-1v1h-1v1h-1v1h-1v-1h-1v-1h1v-1h2v-3z" fill="rgb(156,156,172)"/>
<path d="M46 38h1v1h-1v-1z" fill="rgb(0,0,0)"/>
<path d="M55 38h1v2h-1v-2z" fill="rgb(0,0,0)"/>
<path d="M71 38h2v1h1v1h1v1h1v3h1v8h-1v5h1v3h-1v1h-2v-1h-1v-2h-1v-8h-1v2h-1v2h-1v1h-1v1
	h-2v1h-2v1h-2v1h-3v-1h-1v1h-1v-1h-2v1h-1v5h1v1h2v2h-2v-1h-1v1h-1v-2h-1v-2h-1v-3
	h1v-2h1v-2h1v-1h1v-1h1v-2h1v1h3v-1h3v-1h2v-1h1v1h1v1h1v-1h1v-1h1v-1h1v-1h1v-2
	h1v-5h-1v-2h-1v-1z" fill="rgb(180,131,49)"/>
<path d="M73 38h1v1h-1v-1z" fill="rgb(82,57,16)"/>
<path d="M76 38h1v1h-1v-1z" fill="rgb(74,57,41)"/>
<path d="M77 38h1v1h-1v-1z" fill="rgb(0,0,0)"/>
<path d="M78 38h1v1h-1v-1z" fill="rgb(98,74,49)"/>
<path d="M84 38h2v1h-2v-1z" fill="rgb(74,57,41)"/>
<path d="M86 38h1v1h-1v-1z" fill="rgb(0,0,0)"/>
<path d="M23 39h2v3h-1v-2h-1v-1z" fill="rgb(57,57,74)"/>
<path d="M32 39h6v1h-6v-1z" fill="rgb(0,0,0)"/>
<path d="M47 39h1v4h-1v-4z" fill="rgb(0,0,0)"/>
<path d="M77 39h1v1h-1v-1z" fill="rgb(98,74,49)"/>
<path d="M85 39h1v1h-1v-1z" fill="rgb(98,74,49)"/>
<path d="M86 39h1v2h-1v-2z" fill="rgb(74,57,41)"/>
<path d="M87 39h1v4h-1v-4z" fill="rgb(0,0,0)"/>
<path d="M22 40h1v1h-1v-1z" fill="rgb(57,57,74)"/>
<path d="M23 40h1v2h1v1h3v1h-3v1h-1v-1h-1v-1h-1v-2h1v-1z" fill="rgb(156,156,172)"/>
<path d="M30 40h2v1h-2v-1z" fill="rgb(0,0,0)"/>
<path d="M32 40h2v1h-2v-1z" fill="rgb(222,164,74)"/>
<path d="M34 40h3v1h-3v-1z" fill="rgb(180,131,49)"/>
<path d="M37 40h1v1h-1v-1z" fill="rgb(139,98,32)"/>
<path d="M38 40h1v1h-1v-1z" fill="rgb(0,0,0)"/>
<path d="M39 40h1v1h-1v-1z" fill="rgb(82,57,16)"/>
<path d="M43 40h1v1h-1v-1z" fill="rgb(0,0,0)"/>
<path d="M44 40h1v1h-1v-1z" fill="rgb(106,106,131)"/>
<path d="M56 40h1v2h-1v-2z" fill="rgb(0,0,0)"/>
<path d="M76 40h1v1h-1v-1z" fill="rgb(98,74,49)"/>
<path d="M21 41h1v4h-1v-4z" fill="rgb(0,0,0)"/>
<path d="M29 41h1v1h-1v-1z" fill="rgb(0,0,0)"/>
<path d="M30 41h2v1h1v1h-2v1h-1v2h2v1h-2v2h1v1h-2v-2h-1v-4h1v-2h1v-1z" fill="rgb(230,197,123)"/>
<path d="M32 41h1v1h-1v-1z" fill="rgb(156,156,172)"/>
<path d="M33 41h1v1h-1v-1z" fill="rgb(57,57,74)"/>
<path d="M34 41h3v1h2v1h-1v5h-3v1h-1v3h1v1h-1v2h-1v1h-3v-4h-1v-2h4v-3h-1v-1h1v-4h1v-1z" fill="rgb(222,164,74)"/>
<path d="M37 41h2v1h-2v-1z" fill="rgb(180,131,49)"/>
<path d="M39 41h4v1h-4v-1z" fill="rgb(0,0,0)"/>
<path d="M46 41h1v2h-1v2h-1v1h-2v1h-1v-1h-1v-1h2v-1h1v-1h1v-1h1v-1z" fill="rgb(106,106,131)"/>
<path d="M76 41h1v3h-1v-3z" fill="rgb(0,0,0)"/>
<path d="M86 41h1v1h-1v-1z" fill="rgb(98,74,49)"/>
<path d="M25 42h3v1h-3v-1z" fill="rgb(57,57,74)"/>
<path d="M28 42h1v2h-1v-2z" fill="rgb(0,0,0)"/>
<path d="M39 42h1v1h-1v-1z" fill="rgb(57,57,74)"/>
<path d="M40 42h1v1h-1v-1z" fill="rgb(156,156,172)"/>
<path d="M41 42h1v1h-1v-1z" fill="rgb(106,106,131)"/>
<path d="M49 42h1v1h1v1h1v1h1v-3h1v1h1v-1h2v6h-1v4h-1v2h-1v-1h-1v-2h-1v1h-1v2h-1v-2h-1
	v-1h-1v-1h1v-1h-1v-1h-1v-1h-1v-2h1v-2h1v1h1v-2z" fill="rgb(139,106,82)"/>
<path d="M57 42h1v6h-1v-6z" fill="rgb(0,0,0)"/>
<path d="M84 42h3v1h-3v-1z" fill="rgb(57,57,74)"/>
<path d="M22 43h1v1h1v1h3v2h-2v-1h-2v-1h-1v-2z" fill="rgb(106,106,131)"/>
<path d="M31 43h1v1h-1v-1z" fill="rgb(156,156,172)"/>
<path d="M32 43h1v2h-1v-2z" fill="rgb(57,57,74)"/>
<path d="M38 43h1v3h-1v-3z" fill="rgb(57,57,74)"/>
<path d="M39 43h1v1h-1v-1z" fill="rgb(205,205,222)"/>
<path d="M40 43h1v3h-1v-3z" fill="rgb(57,57,74)"/>
<path d="M41 43h2v1h-2v-1z" fill="rgb(205,205,222)"/>
<path d="M46 43h1v2h-1v-2z" fill="rgb(0,0,0)"/>
<path d="M83 43h1v2h-1v-2z" fill="rgb(57,57,74)"/>
<path d="M84 43h3v2h-2v1h-1v2h-1v-3h1v-2z" fill="rgb(156,156,172)"/>
<path d="M87 43h1v4h-1v-4z" fill="rgb(57,57,74)"/>
<path d="M25 44h2v1h-2v-1z" fill="rgb(205,205,222)"/>
<path d="M27 44h1v5h-1v-1h-2v-1h2v-3z" fill="rgb(0,0,0)"/>
<path d="M30 44h1v2h-1v-2z" fill="rgb(156,156,172)"/>
<path d="M31 44h1v1h-1v-1z" fill="rgb(255,255,255)"/>
<path d="M39 44h1v1h-1v-1z" fill="rgb(156,156,172)"/>
<path d="M41 44h2v1h-2v-1z" fill="rgb(156,156,172)"/>
<path d="M77 44h1v8h-1v-8z" fill="rgb(0,0,0)"/>
<path d="M22 45h1v1h-1v-1z" fill="rgb(0,0,0)"/>
<path d="M31 45h1v1h-1v-1z" fill="rgb(57,57,74)"/>
<path d="M32 45h1v1h-1v-1z" fill="rgb(180,131,49)"/>
<path d="M39 45h1v1h-1v-1z" fill="rgb(106,106,131)"/>
<path d="M45 45h1v1h-1v-1z" fill="rgb(0,0,0)"/>
<path d="M82 45h1v3h3v1h-3v1h-1v-5z" fill="rgb(57,57,74)"/>
<path d="M85 45h2v2h-1v1h-2v-2h1v-1z" fill="rgb(106,106,131)"/>
<path d="M23 46h2v1h-2v-1z" fill="rgb(0,0,0)"/>
<path d="M38 46h1v1h1v1h2v1h-1v2h-1v1h-1v1h-1v1h-1v2h-1v1h-1v-2h-1v-2h1v-1h2v-1h1v-5z" fill="rgb(180,131,49)"/>
<path d="M39 46h1v1h-1v-1z" fill="rgb(57,57,74)"/>
<path d="M40 46h1v1h-1v-1z" fill="rgb(106,106,131)"/>
<path d="M41 46h1v2h-2v-1h1v-1z" fill="rgb(57,57,74)"/>
<path d="M43 46h2v1h-2v-1z" fill="rgb(0,0,0)"/>
<path d="M45 46h1v1h1v1h-1v1h-1v1h1v1h1v1h1v-1h1v1h1v2h1v-2h1v-1h1v2h1v2h-1v1h-1v2h-1v2
	h-1v3h-1v3h-1v-1h-1v-1h-1v2h-1v-1h-1v-1h-3v-1h-4v-1h-2v-1h-1v-2h1v-1h1v-1h1v-1
	h1v-2h1v-1h1v-1h1v-1h1v-2h1v-2h2v-1z" fill="rgb(98,74,49)"/>
<path d="M30 47h1v1h-1v-1z" fill="rgb(156,156,172)"/>
<path d="M31 47h1v1h-1v-1z" fill="rgb(205,205,222)"/>
<path d="M32 47h1v2h-1v-2z" fill="rgb(57,57,74)"/>
<path d="M42 47h1v2h-1v-2z" fill="rgb(0,0,0)"/>
<path d="M86 47h1v1h-1v-1z" fill="rgb(57,57,74)"/>
<path d="M28 48h1v1h-1v-1z" fill="rgb(180,131,49)"/>
<path d="M30 48h1v1h-1v-1z" fill="rgb(57,57,74)"/>
<path d="M31 48h1v1h-1v-1z" fill="rgb(156,156,172)"/>
<path d="M35 48h1v2h-1v-2z" fill="rgb(82,57,16)"/>
<path d="M36 48h1v1h-1v-1z" fill="rgb(205,205,222)"/>
<path d="M37 48h1v1h-1v-1z" fill="rgb(82,57,16)"/>
<path d="M46 48h1v1h-1v-1z" fill="rgb(139,106,82)"/>
<path d="M47 48h1v1h-1v-1z" fill="rgb(98,74,49)"/>
<path d="M56 48h1v4h-1v-4z" fill="rgb(0,0,0)"/>
<path d="M28 49h1v3h-1v-3z" fill="rgb(82,57,16)"/>
<path d="M31 49h1v1h-1v-1z" fill="rgb(57,57,74)"/>
<path d="M32 49h1v1h-1v-1z" fill="rgb(180,131,49)"/>
<path d="M34 49h1v1h-1v-1z" fill="rgb(180,131,49)"/>
<path d="M36 49h2v1h-1v1h-1v-2z" fill="rgb(255,255,255)"/>
<path d="M41 49h1v2h-1v-2z" fill="rgb(0,0,0)"/>
<path d="M45 49h1v1h-1v-1z" fill="rgb(139,106,82)"/>
<path d="M46 49h1v1h-1v-1z" fill="rgb(98,74,49)"/>
<path d="M47 49h1v1h-1v-1z" fill="rgb(139,106,82)"/>
<path d="M48 49h1v1h-1v-1z" fill="rgb(98,74,49)"/>
<path d="M66 49h1v1h-1v-1z" fill="rgb(180,131,49)"/>
<path d="M68 49h1v1h-1v-1z" fill="rgb(180,131,49)"/>
<path d="M34 50h1v2h-1v-2z" fill="rgb(82,57,16)"/>
<path d="M35 50h1v1h-1v-1z" fill="rgb(0,0,0)"/>
<path d="M37 50h1v1h-1v-1z" fill="rgb(139,98,32)"/>
<path d="M46 50h1v1h-1v-1z" fill="rgb(139,106,82)"/>
<path d="M47 50h1v1h-1v-1z" fill="rgb(98,74,49)"/>
<path d="M66 50h1v1h-1v-1z" fill="rgb(222,164,74)"/>
<path d="M67 50h1v1h-1v-1z" fill="rgb(180,131,49)"/>
<path d="M68 50h1v1h-1v-1z" fill="rgb(222,164,74)"/>
<path d="M71 50h1v2h-1v-2z" fill="rgb(82,57,16)"/>
<path d="M35 51h1v1h-1v-1z" fill="rgb(255,255,255)"/>
<path d="M36 51h1v1h-1v-1z" fill="rgb(139,98,32)"/>
<path d="M40 51h1v1h-1v-1z" fill="rgb(0,0,0)"/>
<path d="M47 51h1v1h-1v-1z" fill="rgb(139,106,82)"/>
<path d="M67 51h1v1h-1v-1z" fill="rgb(222,164,74)"/>
<path d="M29 52h1v4h-1v-4z" fill="rgb(82,57,16)"/>
<path d="M39 52h1v1h-1v-1z" fill="rgb(0,0,0)"/>
<path d="M55 52h1v2h-1v-2z" fill="rgb(0,0,0)"/>
<path d="M70 52h1v2h-1v-2z" fill="rgb(82,57,16)"/>
<path d="M71 52h1v4h-1v-1h-1v-1h1v-2z" fill="rgb(139,98,32)"/>
<path d="M76 52h1v5h-1v-5z" fill="rgb(0,0,0)"/>
<path d="M38 53h1v1h-1v-1z" fill="rgb(0,0,0)"/>
<path d="M37 54h1v2h-1v-2z" fill="rgb(0,0,0)"/>
<path d="M54 54h1v1h-1v-1z" fill="rgb(0,0,0)"/>
<path d="M69 54h1v1h1v1h-1v1h-1v-1h-1v-1h1v-1z" fill="rgb(0,0,0)"/>
<path d="M33 55h2v3h-3v-1h1v-2z" fill="rgb(98,74,49)"/>
<path d="M53 55h1v1h-1v-1z" fill="rgb(0,0,0)"/>
<path d="M29 56h1v1h-1v-1z" fill="rgb(0,0,0)"/>
<path d="M30 56h3v1h-1v1h-1v-1h-1v-1z" fill="rgb(139,106,82)"/>
<path d="M36 56h1v1h-1v-1z" fill="rgb(0,0,0)"/>
<path d="M52 56h1v2h-1v-2z" fill="rgb(0,0,0)"/>
<path d="M66 56h2v1h-2v-1z" fill="rgb(0,0,0)"/>
<path d="M68 56h1v1h-1v-1z" fill="rgb(82,57,16)"/>
<path d="M71 56h1v2h-1v-2z" fill="rgb(0,0,0)"/>
<path d="M30 57h1v1h-1v-1z" fill="rgb(0,0,0)"/>
<path d="M35 57h1v1h-1v-1z" fill="rgb(0,0,0)"/>
<path d="M59 57h1v1h-1v-1z" fill="rgb(82,57,16)"/>
<path d="M64 57h2v1h-2v-1z" fill="rgb(0,0,0)"/>
<path d="M66 57h2v1h-1v1h-1v1h1v1h1v2h-1v2h-1v1h-1v1h-1v-1h-2v-1h1v-1h1v-2h-1v-1h-1v-2h2
	v-1h2v-1z" fill="rgb(82,57,16)"/>
<path d="M68 57h1v1h-1v-1z" fill="rgb(0,0,0)"/>
<path d="M77 57h1v2h-1v-2z" fill="rgb(0,0,0)"/>
<path d="M31 58h4v1h-1v2h-1v-2h-2v-1z" fill="rgb(0,0,0)"/>
<path d="M51 58h1v2h-1v-2z" fill="rgb(0,0,0)"/>
<path d="M55 58h2v1h1v5h-1v1h-2v-1h-1v-5h1v-1z" fill="rgb(222,164,74)"/>
<path d="M58 58h1v2h-1v-2z" fill="rgb(82,57,16)"/>
<path d="M62 58h2v1h-2v-1z" fill="rgb(0,0,0)"/>
<path d="M67 58h1v1h-1v-1z" fill="rgb(0,0,0)"/>
<path d="M72 58h1v2h-1v-2z" fill="rgb(0,0,0)"/>
<path d="M59 59h3v2h-1v-1h-2v-1z" fill="rgb(0,0,0)"/>
<path d="M66 59h1v1h-1v-1z" fill="rgb(0,0,0)"/>
<path d="M77 59h1v1h1v4h1v3h-3v-3h-1v-2h-1v-1h1v-1h1v-1z" fill="rgb(139,98,32)"/>
<path d="M78 59h1v1h-1v-1z" fill="rgb(0,0,0)"/>
<path d="M50 60h1v3h-1v-3z" fill="rgb(0,0,0)"/>
<path d="M58 60h1v4h-1v-4z" fill="rgb(0,0,0)"/>
<path d="M67 60h1v1h-1v-1z" fill="rgb(0,0,0)"/>
<path d="M73 60h1v1h-1v-1z" fill="rgb(0,0,0)"/>
<path d="M79 60h1v4h-1v-4z" fill="rgb(0,0,0)"/>
<path d="M34 61h1v1h2v1h-3v-2z" fill="rgb(0,0,0)"/>
<path d="M62 61h1v1h-1v-1z" fill="rgb(0,0,0)"/>
<path d="M68 61h1v2h-1v-2z" fill="rgb(0,0,0)"/>
<path d="M74 61h1v1h-1v-1z" fill="rgb(0,0,0)"/>
<path d="M63 62h1v2h-1v-2z" fill="rgb(0,0,0)"/>
<path d="M75 62h1v2h-1v-2z" fill="rgb(0,0,0)"/>
<path d="M33 63h1v3h-1v-3z" fill="rgb(0,0,0)"/>
<path d="M34 63h3v1h2v2h-4v-1h-1v-2z" fill="rgb(222,164,74)"/>
<path d="M37 63h4v1h-4v-1z" fill="rgb(0,0,0)"/>
<path d="M49 63h1v3h-1v-3z" fill="rgb(0,0,0)"/>
<path d="M51 63h1v2h-1v-2z" fill="rgb(0,0,0)"/>
<path d="M67 63h1v2h-1v-2z" fill="rgb(0,0,0)"/>
<path d="M39 64h1v2h1v1h1v1h-1v1h-2v-1h-2v-1h1v-1h1v-2z" fill="rgb(139,98,32)"/>
<path d="M40 64h1v1h-1v-1z" fill="rgb(82,57,16)"/>
<path d="M41 64h3v1h-3v-1z" fill="rgb(0,0,0)"/>
<path d="M46 64h1v1h1v1h-2v-2z" fill="rgb(0,0,0)"/>
<path d="M57 64h1v8h-1v-8z" fill="rgb(0,0,0)"/>
<path d="M62 64h1v1h-1v-1z" fill="rgb(0,0,0)"/>
<path d="M76 64h1v5h-1v-5z" fill="rgb(0,0,0)"/>
<path d="M80 64h1v3h-1v-3z" fill="rgb(0,0,0)"/>
<path d="M34 65h1v1h-1v-1z" fill="rgb(180,131,49)"/>
<path d="M40 65h1v1h-1v-1z" fill="rgb(0,0,0)"/>
<path d="M44 65h1v1h-1v-1z" fill="rgb(0,0,0)"/>
<path d="M52 65h1v2h-1v-2z" fill="rgb(0,0,0)"/>
<path d="M61 65h1v1h-1v-1z" fill="rgb(0,0,0)"/>
<path d="M66 65h1v1h-1v-1z" fill="rgb(0,0,0)"/>
<path d="M34 66h1v1h-1v-1z" fill="rgb(0,0,0)"/>
<path d="M35 66h1v1h-1v-1z" fill="rgb(139,98,32)"/>
<path d="M36 66h2v1h-2v-1z" fill="rgb(180,131,49)"/>
<path d="M41 66h2v1h-2v-1z" fill="rgb(0,0,0)"/>
<path d="M45 66h1v1h-1v-1z" fill="rgb(0,0,0)"/>
<path d="M48 66h1v1h-1v-1z" fill="rgb(0,0,0)"/>
<path d="M54 66h1v2h-1v-2z" fill="rgb(82,57,16)"/>
<path d="M60 66h1v2h4v1h-5v-3z" fill="rgb(0,0,0)"/>
<path d="M61 66h3v1h1v1h-4v-2z" fill="rgb(57,57,74)"/>
<path d="M65 66h1v2h-1v-2z" fill="rgb(0,0,0)"/>
<path d="M35 67h2v1h-2v-1z" fill="rgb(0,0,0)"/>
<path d="M42 67h1v3h-3v-1h1v-1h1v-1z" fill="rgb(57,57,74)"/>
<path d="M43 67h1v3h-1v-3z" fill="rgb(0,0,0)"/>
<path d="M53 67h1v5h-1v-5z" fill="rgb(0,0,0)"/>
<path d="M55 67h2v4h-1v-1h-2v-2h1v-1z" fill="rgb(139,98,32)"/>
<path d="M77 67h2v2h-2v-2z" fill="rgb(57,57,74)"/>
<path d="M79 67h1v2h-1v-2z" fill="rgb(106,106,131)"/>
<path d="M80 67h1v2h-1v-2z" fill="rgb(57,57,74)"/>
<path d="M81 67h1v3h-5v-1h4v-2z" fill="rgb(0,0,0)"/>
<path d="M37 68h2v1h-2v-1z" fill="rgb(0,0,0)"/>
<path d="M55 68h1v1h-1v-1z" fill="rgb(82,57,16)"/>
<path d="M39 69h1v1h-1v-1z" fill="rgb(0,0,0)"/>
<path d="M40 70h3v1h-3v-1z" fill="rgb(0,0,0)"/>
<path d="M54 70h2v1h1v1h-1v2h-3v-2h1v-2z" fill="rgb(180,131,49)"/>
<path d="M52 72h1v2h-1v-2z" fill="rgb(0,0,0)"/>
<path d="M56 72h1v4h-1v-4z" fill="rgb(0,0,0)"/>
<path d="M51 74h1v2h4v1h-5v-3z" fill="rgb(0,0,0)"/>
<path d="M52 74h1v2h-1v-2z" fill="rgb(57,57,74)"/>
<path d="M53 74h1v2h-1v-2z" fill="rgb(106,106,131)"/>
<path d="M54 74h1v1h1v1h-2v-2z" fill="rgb(57,57,74)"/>
<path d="M55 74h1v1h-1v-1z" fill="rgb(139,98,32)"/>
</svg>
