<?xml version="1.0" encoding="utf-8"?>
<!-- generated at drububu.com  -->
<!DOCTYPE svg PUBLIC "-//W3C//DTD SVG 1.1//EN" "http://www.w3.org/Graphics/SVG/1.1/DTD/svg11.dtd">
<svg version="1.1" preserveAspectRatio="xMinYMin meet" xmlns="http://www.w3.org/2000/svg" xmlns:xlink="http://www.w3.org/1999/xlink" x="0px" y="0px" width="96px" height="96px" viewBox="0 0 96 96">
<path d="M0 0h96v96h-96v-96z" fill="transparent"/>
<path d="M37 19h1v1h-1v-1z" fill="rgb(123,98,82)"/>
<path d="M36 20h1v4h-1v-4z" fill="rgb(123,98,82)"/>
<path d="M37 20h1v2h1v3h1v3h-4v-4h1v-4z" fill="rgb(255,238,164)"/>
<path d="M38 20h1v2h-1v-2z" fill="rgb(123,98,82)"/>
<path d="M39 22h1v2h-1v-2z" fill="rgb(123,98,82)"/>
<path d="M58 23h2v1h-2v-1z" fill="rgb(189,32,82)"/>
<path d="M35 24h1v3h-1v-3z" fill="rgb(123,98,82)"/>
<path d="M39 24h1v1h-1v-1z" fill="rgb(255,222,41)"/>
<path d="M40 24h1v2h-1v-2z" fill="rgb(123,98,82)"/>
<path d="M44 24h2v1h-2v-1z" fill="rgb(123,98,82)"/>
<path d="M57 24h1v1h-1v-1z" fill="rgb(189,32,82)"/>
<path d="M58 24h1v1h-1v-1z" fill="rgb(246,98,24)"/>
<path d="M59 24h1v1h-1v-1z" fill="rgb(131,0,65)"/>
<path d="M30 25h2v1h-1v2h-1v-3z" fill="rgb(123,98,82)"/>
<path d="M43 25h1v1h-1v-1z" fill="rgb(123,98,82)"/>
<path d="M44 25h1v3h-1v4h-3v-2h1v-3h1v-1h1v-1z" fill="rgb(197,172,115)"/>
<path d="M45 25h1v3h-1v-3z" fill="rgb(0,0,0)"/>
<path d="M56 25h1v1h-1v-1z" fill="rgb(189,32,82)"/>
<path d="M57 25h1v2h-1v-2z" fill="rgb(246,98,24)"/>
<path d="M58 25h1v1h-1v-1z" fill="rgb(131,0,65)"/>
<path d="M31 26h1v1h1v1h2v2h-2v-1h-1v-1h-1v-2z" fill="rgb(255,238,164)"/>
<path d="M32 26h2v1h-2v-1z" fill="rgb(123,98,82)"/>
<path d="M40 26h1v2h1v2h-1v2h-1v1h-5v-1h-1v-1h-1v-1h2v-1h2v-1h3v-2z" fill="rgb(255,222,41)"/>
<path d="M41 26h2v1h-1v1h-1v-2z" fill="rgb(123,98,82)"/>
<path d="M56 26h1v1h-1v-1z" fill="rgb(131,0,65)"/>
<path d="M58 26h2v1h-2v-1z" fill="rgb(82,82,98)"/>
<path d="M33 27h1v1h-1v-1z" fill="rgb(197,172,115)"/>
<path d="M34 27h1v1h-1v-1z" fill="rgb(123,98,82)"/>
<path d="M35 27h1v1h1v1h-2v-2z" fill="rgb(197,172,115)"/>
<path d="M55 27h1v1h-1v-1z" fill="rgb(131,0,65)"/>
<path d="M56 27h2v1h-1v2h-1v3h-1v2h-1v-4h1v-2h1v-2z" fill="rgb(189,65,65)"/>
<path d="M58 27h2v1h1v1h-1v2h-1v2h-1v1h-2v-1h1v-3h1v-3z" fill="rgb(255,255,255)"/>
<path d="M60 27h1v1h-1v-1z" fill="rgb(139,139,164)"/>
<path d="M31 28h1v1h-1v-1z" fill="rgb(123,98,82)"/>
<path d="M44 28h1v1h-1v-1z" fill="rgb(123,98,82)"/>
<path d="M55 28h1v1h-1v-1z" fill="rgb(0,0,0)"/>
<path d="M57 28h1v2h-1v-2z" fill="rgb(82,82,98)"/>
<path d="M61 28h1v3h-1v-3z" fill="rgb(139,139,164)"/>
<path d="M32 29h1v1h-1v-1z" fill="rgb(123,98,82)"/>
<path d="M44 29h1v3h-1v-3z" fill="rgb(0,0,0)"/>
<path d="M54 29h1v2h-1v-2z" fill="rgb(0,0,0)"/>
<path d="M60 29h1v2h-1v-2z" fill="rgb(205,205,213)"/>
<path d="M32 30h1v1h-1v-1z" fill="rgb(0,0,0)"/>
<path d="M56 30h1v2h-1v-2z" fill="rgb(82,82,98)"/>
<path d="M33 31h1v2h-1v-2z" fill="rgb(0,0,0)"/>
<path d="M53 31h1v1h-1v-1z" fill="rgb(131,0,65)"/>
<path d="M59 31h1v2h-1v-2z" fill="rgb(139,139,164)"/>
<path d="M60 31h2v7h1v1h1v1h1v1h1v2h-3v-1h-3v-1h-1v-1h-1v-4h1v-3h1v-2z" fill="rgb(255,255,255)"/>
<path d="M62 31h1v2h-1v-2z" fill="rgb(139,139,164)"/>
<path d="M34 32h1v1h-1v-1z" fill="rgb(197,172,115)"/>
<path d="M40 32h2v1h-2v-1z" fill="rgb(189,32,82)"/>
<path d="M42 32h5v1h-5v-1z" fill="rgb(131,0,65)"/>
<path d="M47 32h1v1h-1v-1z" fill="rgb(189,32,82)"/>
<path d="M53 32h1v3h-2v-1h1v-2z" fill="rgb(0,0,0)"/>
<path d="M56 32h1v1h-1v-1z" fill="rgb(205,205,213)"/>
<path d="M34 33h3v1h-3v-1z" fill="rgb(189,32,82)"/>
<path d="M37 33h2v1h-2v-1z" fill="rgb(131,0,65)"/>
<path d="M39 33h1v1h1v1h-2v-2z" fill="rgb(189,32,82)"/>
<path d="M40 33h3v2h-2v-1h-1v-1z" fill="rgb(255,156,98)"/>
<path d="M43 33h1v1h1v1h-2v-2z" fill="rgb(189,32,82)"/>
<path d="M44 33h3v1h-3v-1z" fill="rgb(255,156,98)"/>
<path d="M47 33h1v1h3v1h3v1h-3v1h-1v-1h-1v-1h-2v-2z" fill="rgb(246,98,24)"/>
<path d="M48 33h3v1h-3v-1z" fill="rgb(131,0,65)"/>
<path d="M55 33h1v2h-1v-2z" fill="rgb(82,82,98)"/>
<path d="M58 33h1v1h-1v-1z" fill="rgb(139,139,164)"/>
<path d="M62 33h1v4h-1v-4z" fill="rgb(82,82,98)"/>
<path d="M33 34h1v1h-1v-1z" fill="rgb(131,0,65)"/>
<path d="M34 34h5v1h2v1h-1v1h-2v1h-1v1h-2v1h-1v2h-1v3h-1v2h-1v1h-2v1h-1v-4h1v-2h1v-2h1
	v-2h1v-1h2v-1h-1v-2h1v-1z" fill="rgb(255,156,98)"/>
<path d="M45 34h2v1h-2v-1z" fill="rgb(131,0,65)"/>
<path d="M51 34h1v1h-1v-1z" fill="rgb(189,32,82)"/>
<path d="M56 34h1v1h-1v-1z" fill="rgb(131,0,65)"/>
<path d="M57 34h2v2h-1v-1h-1v-1z" fill="rgb(0,0,0)"/>
<path d="M32 35h1v2h-1v-2z" fill="rgb(131,0,65)"/>
<path d="M41 35h2v1h-2v-1z" fill="rgb(189,32,82)"/>
<path d="M43 35h4v1h2v2h-2v1h-1v-1h-1v-1h-1v-1h-1v-1z" fill="rgb(246,98,24)"/>
<path d="M47 35h2v1h-2v-1z" fill="rgb(131,0,65)"/>
<path d="M54 35h2v1h-2v-1z" fill="rgb(0,0,0)"/>
<path d="M56 35h2v1h-2v-1z" fill="rgb(255,156,98)"/>
<path d="M34 36h3v1h-3v-1z" fill="rgb(189,65,65)"/>
<path d="M40 36h3v1h1v1h1v3h-1v3h-1v4h1v1h1v-2h-1v-1h1v-1h1v3h1v1h1v1h1v1h1v1h-1v1h-2v1
	h-3v-2h-1v-1h-1v-1h-2v-2h1v-1h1v-4h-1v-2h-1v-1h-1v-1h-2v-1h1v-1h2v-1z" fill="rgb(246,98,24)"/>
<path d="M43 36h1v1h-1v-1z" fill="rgb(131,0,65)"/>
<path d="M49 36h1v1h-1v-1z" fill="rgb(189,32,82)"/>
<path d="M51 36h1v1h-1v-1z" fill="rgb(189,32,82)"/>
<path d="M52 36h2v1h-2v-1z" fill="rgb(131,0,65)"/>
<path d="M54 36h2v1h-2v-1z" fill="rgb(255,156,98)"/>
<path d="M56 36h1v1h-1v-1z" fill="rgb(246,98,24)"/>
<path d="M57 36h1v1h-1v-1z" fill="rgb(0,0,0)"/>
<path d="M32 37h1v1h-1v-1z" fill="rgb(189,32,82)"/>
<path d="M33 37h1v1h-1v-1z" fill="rgb(189,65,65)"/>
<path d="M44 37h1v1h-1v-1z" fill="rgb(131,0,65)"/>
<path d="M49 37h2v1h-2v-1z" fill="rgb(131,0,65)"/>
<path d="M51 37h3v1h-3v-1z" fill="rgb(255,156,98)"/>
<path d="M54 37h1v1h-1v-1z" fill="rgb(189,32,82)"/>
<path d="M55 37h1v1h-1v-1z" fill="rgb(82,82,98)"/>
<path d="M56 37h1v1h-1v-1z" fill="rgb(131,0,65)"/>
<path d="M57 37h1v2h-1v-2z" fill="rgb(82,82,98)"/>
<path d="M62 37h1v1h-1v-1z" fill="rgb(139,139,164)"/>
<path d="M63 37h1v2h-1v-2z" fill="rgb(82,82,98)"/>
<path d="M31 38h1v1h-1v-1z" fill="rgb(189,32,82)"/>
<path d="M45 38h1v1h1v1h-1v1h-1v-3z" fill="rgb(131,0,65)"/>
<path d="M47 38h2v1h-2v-1z" fill="rgb(131,0,65)"/>
<path d="M49 38h2v1h-2v-1z" fill="rgb(255,156,98)"/>
<path d="M51 38h1v1h-1v-1z" fill="rgb(189,32,82)"/>
<path d="M52 38h2v1h-2v-1z" fill="rgb(82,82,98)"/>
<path d="M54 38h3v1h-1v1h-2v1h-2v1h-1v-2h1v-1h2v-1z" fill="rgb(255,255,255)"/>
<path d="M30 39h1v2h-1v-2z" fill="rgb(189,32,82)"/>
<path d="M35 39h2v1h-1v1h-1v4h1v2h1v1h1v1h-1v1h1v1h1v1h2v1h1v2h-4v-1h-1v-2h-1v-1h-1v-1
	h-1v-1h-2v-1h-1v-1h1v-2h1v-3h1v-2h1v-1z" fill="rgb(246,98,24)"/>
<path d="M37 39h2v1h-2v-1z" fill="rgb(189,65,65)"/>
<path d="M47 39h2v1h-2v-1z" fill="rgb(255,156,98)"/>
<path d="M49 39h1v1h-1v-1z" fill="rgb(189,32,82)"/>
<path d="M50 39h1v1h-1v-1z" fill="rgb(82,82,98)"/>
<path d="M51 39h1v1h-1v-1z" fill="rgb(205,205,213)"/>
<path d="M56 39h1v1h-1v-1z" fill="rgb(82,82,98)"/>
<path d="M57 39h1v1h1v1h-2v-2z" fill="rgb(205,205,213)"/>
<path d="M64 39h1v1h-1v-1z" fill="rgb(82,82,98)"/>
<path d="M36 40h1v1h-1v-1z" fill="rgb(189,65,65)"/>
<path d="M37 40h2v1h1v2h1v4h-1v1h-2v-1h-1v-2h-1v-4h1v-1z" fill="rgb(255,255,255)"/>
<path d="M39 40h1v1h-1v-1z" fill="rgb(189,65,65)"/>
<path d="M46 40h1v2h-1v3h-1v1h-1v-2h1v-3h1v-1z" fill="rgb(255,156,98)"/>
<path d="M47 40h1v1h-1v-1z" fill="rgb(246,98,24)"/>
<path d="M48 40h1v1h-1v-1z" fill="rgb(82,82,98)"/>
<path d="M49 40h1v1h-1v-1z" fill="rgb(139,139,164)"/>
<path d="M50 40h1v3h-1v1h-1v1h-1v1h-1v-3h1v-2h2v-1z" fill="rgb(205,205,213)"/>
<path d="M54 40h1v1h-1v-1z" fill="rgb(205,205,213)"/>
<path d="M55 40h1v1h-1v-1z" fill="rgb(82,82,98)"/>
<path d="M56 40h1v3h2v1h-1v5h-2v-3h-1v-4h1v-2z" fill="rgb(189,65,65)"/>
<path d="M65 40h1v1h-1v-1z" fill="rgb(139,139,164)"/>
<path d="M29 41h1v2h-1v-2z" fill="rgb(189,32,82)"/>
<path d="M35 41h1v4h-1v-4z" fill="rgb(189,65,65)"/>
<path d="M40 41h1v1h-1v-1z" fill="rgb(189,65,65)"/>
<path d="M44 41h1v1h-1v-1z" fill="rgb(131,0,65)"/>
<path d="M47 41h1v2h-1v-2z" fill="rgb(82,82,98)"/>
<path d="M52 41h2v1h-1v1h-1v-2z" fill="rgb(205,205,213)"/>
<path d="M54 41h1v1h-1v-1z" fill="rgb(255,255,255)"/>
<path d="M55 41h1v1h-1v-1z" fill="rgb(0,0,0)"/>
<path d="M57 41h1v2h-1v-2z" fill="rgb(131,0,65)"/>
<path d="M58 41h2v1h-2v-1z" fill="rgb(139,139,164)"/>
<path d="M66 41h1v2h1v1h-5v-1h3v-2z" fill="rgb(139,139,164)"/>
<path d="M40 42h1v1h-1v-1z" fill="rgb(205,205,213)"/>
<path d="M44 42h1v2h-1v-2z" fill="rgb(0,0,0)"/>
<path d="M46 42h1v1h-1v-1z" fill="rgb(246,98,24)"/>
<path d="M51 42h1v1h-1v-1z" fill="rgb(139,139,164)"/>
<path d="M53 42h1v5h-5v-1h1v-2h1v-1h2v-1z" fill="rgb(255,255,255)"/>
<path d="M54 42h1v3h-1v-3z" fill="rgb(0,0,0)"/>
<path d="M58 42h2v1h2v1h1v1h1v1h-2v-1h-2v-1h-1v-1h-1v-1z" fill="rgb(205,205,213)"/>
<path d="M60 42h3v1h-3v-1z" fill="rgb(139,139,164)"/>
<path d="M28 43h1v1h-1v-1z" fill="rgb(189,32,82)"/>
<path d="M38 43h1v1h-1v-1z" fill="rgb(0,0,0)"/>
<path d="M41 43h1v4h-1v-4z" fill="rgb(189,65,65)"/>
<path d="M46 43h1v4h-1v-4z" fill="rgb(82,82,98)"/>
<path d="M50 43h1v1h-1v-1z" fill="rgb(139,139,164)"/>
<path d="M62 43h1v1h-1v-1z" fill="rgb(255,255,255)"/>
<path d="M28 44h1v1h-1v-1z" fill="rgb(131,0,65)"/>
<path d="M43 44h1v1h-1v-1z" fill="rgb(131,0,65)"/>
<path d="M49 44h1v1h-1v-1z" fill="rgb(139,139,164)"/>
<path d="M58 44h1v1h-1v-1z" fill="rgb(131,0,65)"/>
<path d="M59 44h1v2h-1v-2z" fill="rgb(189,65,65)"/>
<path d="M63 44h4v2h-3v-1h-1v-1z" fill="rgb(255,255,255)"/>
<path d="M67 44h1v3h-1v-3z" fill="rgb(82,82,98)"/>
<path d="M27 45h1v2h-1v-2z" fill="rgb(131,0,65)"/>
<path d="M36 45h1v1h-1v-1z" fill="rgb(205,205,213)"/>
<path d="M43 45h1v2h-1v-2z" fill="rgb(0,0,0)"/>
<path d="M48 45h1v1h-1v-1z" fill="rgb(139,139,164)"/>
<path d="M49 45h1v1h-1v-1z" fill="rgb(205,205,213)"/>
<path d="M54 45h1v2h-1v-2z" fill="rgb(82,82,98)"/>
<path d="M58 45h1v1h1v1h-1v2h-1v-4z" fill="rgb(0,0,0)"/>
<path d="M60 45h2v1h-2v-1z" fill="rgb(131,0,65)"/>
<path d="M36 46h1v1h-1v-1z" fill="rgb(189,65,65)"/>
<path d="M47 46h1v2h-1v-2z" fill="rgb(139,139,164)"/>
<path d="M48 46h1v1h1v2h-1v-1h-1v-2z" fill="rgb(205,205,213)"/>
<path d="M55 46h1v1h-1v-1z" fill="rgb(131,0,65)"/>
<path d="M60 46h2v1h-2v-1z" fill="rgb(189,65,65)"/>
<path d="M62 46h3v1h-3v-1z" fill="rgb(131,0,65)"/>
<path d="M65 46h2v1h-2v-1z" fill="rgb(205,205,213)"/>
<path d="M27 47h1v2h-1v-2z" fill="rgb(0,0,0)"/>
<path d="M37 47h1v1h-1v-1z" fill="rgb(189,65,65)"/>
<path d="M40 47h1v1h-1v-1z" fill="rgb(189,65,65)"/>
<path d="M43 47h2v1h-2v-1z" fill="rgb(189,65,65)"/>
<path d="M46 47h1v1h-1v-1z" fill="rgb(0,0,0)"/>
<path d="M50 47h2v1h-2v-1z" fill="rgb(139,139,164)"/>
<path d="M52 47h2v1h-2v-1z" fill="rgb(205,205,213)"/>
<path d="M54 47h1v2h1v2h1v1h-4v-1h-2v-1h-2v-1h1v-1h4v-1z" fill="rgb(255,255,255)"/>
<path d="M55 47h1v1h-1v-1z" fill="rgb(82,82,98)"/>
<path d="M60 47h2v1h-2v-1z" fill="rgb(0,0,0)"/>
<path d="M62 47h4v1h-4v-1z" fill="rgb(189,65,65)"/>
<path d="M66 47h3v1h-3v-1z" fill="rgb(131,0,65)"/>
<path d="M29 48h3v1h-3v-1z" fill="rgb(189,32,82)"/>
<path d="M38 48h2v1h-2v-1z" fill="rgb(189,65,65)"/>
<path d="M44 48h1v1h-1v-1z" fill="rgb(131,0,65)"/>
<path d="M47 48h1v1h-1v-1z" fill="rgb(0,0,0)"/>
<path d="M48 48h1v1h-1v-1z" fill="rgb(139,139,164)"/>
<path d="M55 48h1v1h-1v-1z" fill="rgb(0,0,0)"/>
<path d="M62 48h4v1h-4v-1z" fill="rgb(0,0,0)"/>
<path d="M66 48h3v1h-3v-1z" fill="rgb(189,65,65)"/>
<path d="M69 48h1v1h-1v-1z" fill="rgb(131,0,65)"/>
<path d="M27 49h2v1h-2v-1z" fill="rgb(189,32,82)"/>
<path d="M29 49h3v2h-3v1h-2v-2h2v-1z" fill="rgb(255,230,197)"/>
<path d="M32 49h1v1h-1v-1z" fill="rgb(189,32,82)"/>
<path d="M33 49h1v1h-1v-1z" fill="rgb(131,0,65)"/>
<path d="M37 49h1v1h-1v-1z" fill="rgb(197,172,115)"/>
<path d="M38 49h1v1h-1v-1z" fill="rgb(255,238,164)"/>
<path d="M39 49h1v1h-1v-1z" fill="rgb(255,222,41)"/>
<path d="M48 49h1v1h-1v-1z" fill="rgb(0,0,0)"/>
<path d="M56 49h1v2h-1v-2z" fill="rgb(82,82,98)"/>
<path d="M57 49h1v2h-1v-2z" fill="rgb(0,0,0)"/>
<path d="M66 49h4v1h-4v-1z" fill="rgb(0,0,0)"/>
<path d="M26 50h1v1h-1v-1z" fill="rgb(189,32,82)"/>
<path d="M32 50h2v1h1v1h1v2h1v2h1v2h-1v2h-4v-1h2v-1h1v-3h-1v-2h-1v-1h-2v-2z" fill="rgb(255,156,98)"/>
<path d="M34 50h1v1h-1v-1z" fill="rgb(131,0,65)"/>
<path d="M38 50h1v1h-1v-1z" fill="rgb(123,98,82)"/>
<path d="M39 50h2v1h-2v-1z" fill="rgb(255,238,164)"/>
<path d="M41 50h1v1h-1v-1z" fill="rgb(255,222,41)"/>
<path d="M49 50h2v1h-2v-1z" fill="rgb(82,82,98)"/>
<path d="M26 51h1v2h-1v-2z" fill="rgb(0,0,0)"/>
<path d="M29 51h3v1h-3v-1z" fill="rgb(131,0,65)"/>
<path d="M35 51h1v1h-1v-1z" fill="rgb(131,0,65)"/>
<path d="M39 51h2v1h-2v-1z" fill="rgb(123,98,82)"/>
<path d="M41 51h1v1h-1v-1z" fill="rgb(255,238,164)"/>
<path d="M42 51h1v1h-1v-1z" fill="rgb(255,222,41)"/>
<path d="M50 51h1v1h1v3h-1v1h-2v1h-3v-1h-1v-2h2v-1h2v-1h1v-1z" fill="rgb(189,65,65)"/>
<path d="M51 51h1v1h-1v-1z" fill="rgb(0,0,0)"/>
<path d="M52 51h1v1h-1v-1z" fill="rgb(82,82,98)"/>
<path d="M57 51h1v1h-1v-1z" fill="rgb(82,82,98)"/>
<path d="M27 52h1v1h-1v-1z" fill="rgb(255,156,98)"/>
<path d="M28 52h1v1h-1v-1z" fill="rgb(131,0,65)"/>
<path d="M29 52h4v1h1v2h-2v1h-1v-2h-1v-1h-1v-1z" fill="rgb(0,0,0)"/>
<path d="M33 52h1v1h-1v-1z" fill="rgb(131,0,65)"/>
<path d="M36 52h1v2h-1v-2z" fill="rgb(0,0,0)"/>
<path d="M41 52h1v1h-1v-1z" fill="rgb(123,98,82)"/>
<path d="M42 52h1v1h-1v-1z" fill="rgb(255,238,164)"/>
<path d="M43 52h1v1h-1v-1z" fill="rgb(255,222,41)"/>
<path d="M52 52h1v2h1v1h-1v2h-1v-1h-1v-1h1v-3z" fill="rgb(131,0,65)"/>
<path d="M53 52h5v1h-1v1h-1v-1h-3v-1z" fill="rgb(0,0,0)"/>
<path d="M27 53h1v1h-1v-1z" fill="rgb(0,0,0)"/>
<path d="M28 53h1v1h-1v-1z" fill="rgb(189,65,65)"/>
<path d="M29 53h1v1h-1v-1z" fill="rgb(189,32,82)"/>
<path d="M34 53h1v2h-1v-2z" fill="rgb(131,0,65)"/>
<path d="M42 53h1v2h-1v-2z" fill="rgb(123,98,82)"/>
<path d="M43 53h1v2h-1v-2z" fill="rgb(255,238,164)"/>
<path d="M53 53h1v1h-1v-1z" fill="rgb(189,65,65)"/>
<path d="M54 53h1v1h-1v-1z" fill="rgb(131,0,65)"/>
<path d="M55 53h1v1h-1v-1z" fill="rgb(189,65,65)"/>
<path d="M28 54h1v1h-1v-1z" fill="rgb(0,0,0)"/>
<path d="M29 54h1v1h-1v-1z" fill="rgb(131,0,65)"/>
<path d="M30 54h1v1h-1v-1z" fill="rgb(189,32,82)"/>
<path d="M37 54h1v1h-1v-1z" fill="rgb(0,0,0)"/>
<path d="M44 54h1v1h-1v-1z" fill="rgb(255,222,41)"/>
<path d="M54 54h1v1h-1v-1z" fill="rgb(189,65,65)"/>
<path d="M55 54h1v1h-1v-1z" fill="rgb(131,0,65)"/>
<path d="M29 55h1v1h-1v-1z" fill="rgb(0,0,0)"/>
<path d="M30 55h1v1h1v1h1v1h-1v1h-1v-2h-1v-2z" fill="rgb(131,0,65)"/>
<path d="M32 55h2v1h1v2h-2v-1h-1v-2z" fill="rgb(189,65,65)"/>
<path d="M34 55h1v1h-1v-1z" fill="rgb(189,32,82)"/>
<path d="M35 55h1v3h-1v-3z" fill="rgb(131,0,65)"/>
<path d="M37 55h1v1h-1v-1z" fill="rgb(131,0,65)"/>
<path d="M38 55h5v2h1v1h-5v-2h-1v-1z" fill="rgb(189,65,65)"/>
<path d="M43 55h1v2h-1v-2z" fill="rgb(123,98,82)"/>
<path d="M44 55h1v2h-1v-2z" fill="rgb(255,238,164)"/>
<path d="M53 55h1v1h-1v-1z" fill="rgb(189,65,65)"/>
<path d="M54 55h1v1h-1v-1z" fill="rgb(189,32,82)"/>
<path d="M55 55h1v1h-1v-1z" fill="rgb(0,0,0)"/>
<path d="M29 56h1v4h-1v-4z" fill="rgb(255,238,164)"/>
<path d="M38 56h1v3h-1v-3z" fill="rgb(0,0,0)"/>
<path d="M45 56h1v1h-1v-1z" fill="rgb(255,222,41)"/>
<path d="M49 56h2v1h-2v-1z" fill="rgb(131,0,65)"/>
<path d="M51 56h1v2h-2v1h-4v-1h3v-1h2v-1z" fill="rgb(189,65,65)"/>
<path d="M53 56h1v1h-1v-1z" fill="rgb(189,32,82)"/>
<path d="M54 56h1v1h-1v-1z" fill="rgb(0,0,0)"/>
<path d="M30 57h1v2h-1v-2z" fill="rgb(123,98,82)"/>
<path d="M44 57h1v3h-1v-3z" fill="rgb(123,98,82)"/>
<path d="M45 57h1v3h-1v-3z" fill="rgb(255,238,164)"/>
<path d="M46 57h3v1h-3v-1z" fill="rgb(131,0,65)"/>
<path d="M52 57h2v1h-2v-1z" fill="rgb(0,0,0)"/>
<path d="M32 58h1v1h-1v-1z" fill="rgb(255,156,98)"/>
<path d="M33 58h2v1h-2v-1z" fill="rgb(131,0,65)"/>
<path d="M37 58h1v1h-1v-1z" fill="rgb(246,98,24)"/>
<path d="M39 58h5v1h-2v1h-1v-1h-2v-1z" fill="rgb(131,0,65)"/>
<path d="M50 58h2v1h-2v-1z" fill="rgb(131,0,65)"/>
<path d="M52 58h2v1h1v1h1v1h1v1h1v1h-2v-1h-1v4h-1v-1h-1v-1h-1v-1h-1v1h-2v-1h-2v-1h-2v-1
	h1v-1h3v-1h3v-1z" fill="rgb(197,172,115)"/>
<path d="M54 58h1v1h-1v-1z" fill="rgb(0,0,0)"/>
<path d="M30 59h1v1h-1v-1z" fill="rgb(197,172,115)"/>
<path d="M31 59h1v1h-1v-1z" fill="transparent"/>
<path d="M32 59h1v1h-1v-1z" fill="rgb(131,0,65)"/>
<path d="M37 59h1v1h-1v-1z" fill="rgb(0,0,0)"/>
<path d="M38 59h1v1h-1v-1z" fill="rgb(189,32,82)"/>
<path d="M39 59h2v1h-2v-1z" fill="rgb(189,65,65)"/>
<path d="M42 59h2v1h-2v-1z" fill="rgb(189,65,65)"/>
<path d="M46 59h3v1h-3v-1z" fill="rgb(131,0,65)"/>
<path d="M55 59h1v1h-1v-1z" fill="rgb(0,0,0)"/>
<path d="M30 60h1v3h-1v-3z" fill="rgb(255,238,164)"/>
<path d="M31 60h1v2h-1v-2z" fill="rgb(123,98,82)"/>
<path d="M33 60h3v1h-3v-1z" fill="rgb(0,0,0)"/>
<path d="M36 60h1v1h-1v-1z" fill="rgb(131,0,65)"/>
<path d="M39 60h2v1h-2v-1z" fill="rgb(131,0,65)"/>
<path d="M41 60h2v1h-2v-1z" fill="rgb(0,0,0)"/>
<path d="M43 60h1v3h-1v-3z" fill="rgb(123,98,82)"/>
<path d="M44 60h1v3h-1v-3z" fill="rgb(255,238,164)"/>
<path d="M45 60h1v1h-1v-1z" fill="rgb(255,222,41)"/>
<path d="M56 60h1v1h-1v-1z" fill="rgb(0,0,0)"/>
<path d="M57 61h1v1h-1v-1z" fill="rgb(0,0,0)"/>
<path d="M31 62h1v1h-1v-1z" fill="rgb(197,172,115)"/>
<path d="M45 62h2v1h2v1h2v4h-1v-1h-1v-1h-1v1h-1v1h-1v-3h-1v-3z" fill="rgb(255,222,41)"/>
<path d="M55 62h1v1h1v1h-2v-2z" fill="rgb(0,0,0)"/>
<path d="M58 62h1v2h-1v-2z" fill="rgb(0,0,0)"/>
<path d="M31 63h1v2h-1v-2z" fill="rgb(255,238,164)"/>
<path d="M32 63h1v1h-1v-1z" fill="rgb(123,98,82)"/>
<path d="M42 63h1v4h-1v-4z" fill="rgb(123,98,82)"/>
<path d="M43 63h1v4h-1v-4z" fill="rgb(255,238,164)"/>
<path d="M44 63h1v2h-1v-2z" fill="rgb(123,98,82)"/>
<path d="M51 63h1v1h-1v-1z" fill="rgb(123,98,82)"/>
<path d="M57 63h1v1h-1v-1z" fill="rgb(123,98,82)"/>
<path d="M32 64h1v1h-1v-1z" fill="rgb(197,172,115)"/>
<path d="M51 64h1v3h-1v-3z" fill="rgb(0,0,0)"/>
<path d="M52 64h1v1h-1v-1z" fill="rgb(123,98,82)"/>
<path d="M55 64h1v3h-2v-1h1v-2z" fill="rgb(123,98,82)"/>
<path d="M32 65h1v1h-1v-1z" fill="rgb(255,238,164)"/>
<path d="M33 65h1v1h-1v-1z" fill="rgb(123,98,82)"/>
<path d="M45 65h1v3h-1v-3z" fill="rgb(123,98,82)"/>
<path d="M53 65h1v1h-1v-1z" fill="rgb(123,98,82)"/>
<path d="M33 66h1v1h-1v-1z" fill="rgb(255,238,164)"/>
<path d="M34 66h1v1h-1v-1z" fill="rgb(123,98,82)"/>
<path d="M48 66h1v1h-1v-1z" fill="rgb(123,98,82)"/>
<path d="M34 67h1v1h-1v-1z" fill="rgb(255,238,164)"/>
<path d="M35 67h1v1h-1v-1z" fill="rgb(123,98,82)"/>
<path d="M41 67h1v5h-1v-5z" fill="rgb(123,98,82)"/>
<path d="M42 67h1v4h-1v-4z" fill="rgb(255,238,164)"/>
<path d="M47 67h1v1h-1v-1z" fill="rgb(0,0,0)"/>
<path d="M49 67h1v1h-1v-1z" fill="rgb(123,98,82)"/>
<path d="M51 67h1v1h-1v-1z" fill="rgb(123,98,82)"/>
<path d="M35 68h1v2h-1v-2z" fill="rgb(255,238,164)"/>
<path d="M36 68h1v1h-1v-1z" fill="rgb(123,98,82)"/>
<path d="M46 68h1v1h-1v-1z" fill="rgb(0,0,0)"/>
<path d="M50 68h1v1h-1v-1z" fill="rgb(123,98,82)"/>
<path d="M36 69h1v1h-1v-1z" fill="rgb(197,172,115)"/>
<path d="M36 70h1v3h-1v-3z" fill="rgb(255,238,164)"/>
<path d="M37 70h1v4h-1v-4z" fill="rgb(123,98,82)"/>
<path d="M42 71h1v1h-1v-1z" fill="rgb(197,172,115)"/>
<path d="M43 71h1v2h-1v-2z" fill="rgb(255,238,164)"/>
<path d="M42 72h1v2h-1v-2z" fill="rgb(123,98,82)"/>
<path d="M35 73h1v1h-1v-1z" fill="rgb(255,238,164)"/>
<path d="M36 73h1v1h-1v-1z" fill="rgb(197,172,115)"/>
<path d="M43 73h1v1h-1v-1z" fill="rgb(197,172,115)"/>
<path d="M44 73h1v1h-1v-1z" fill="rgb(255,238,164)"/>
<path d="M34 74h1v1h-1v-1z" fill="rgb(255,238,164)"/>
<path d="M35 74h1v1h-1v-1z" fill="rgb(197,172,115)"/>
<path d="M36 74h1v1h-1v-1z" fill="rgb(123,98,82)"/>
<path d="M43 74h1v1h-1v-1z" fill="rgb(123,98,82)"/>
<path d="M44 74h1v1h-1v-1z" fill="rgb(197,172,115)"/>
<path d="M45 74h1v1h-1v-1z" fill="rgb(255,238,164)"/>
<path d="M34 75h2v1h-2v-1z" fill="rgb(123,98,82)"/>
<path d="M44 75h2v1h-2v-1z" fill="rgb(123,98,82)"/>
</svg>
