<?xml version="1.0" encoding="utf-8"?>
<!-- generated at drububu.com  -->
<!DOCTYPE svg PUBLIC "-//W3C//DTD SVG 1.1//EN" "http://www.w3.org/Graphics/SVG/1.1/DTD/svg11.dtd">
<svg version="1.1" preserveAspectRatio="xMinYMin meet" xmlns="http://www.w3.org/2000/svg" xmlns:xlink="http://www.w3.org/1999/xlink" x="0px" y="0px" width="96px" height="96px" viewBox="0 0 96 96">
<path d="M0 0h96v96h-96v-96z" fill="transparent"/>
<path d="M41 30h1v1h-1v-1z" fill="rgb(139,139,148)"/>
<path d="M40 31h1v3h-1v-3z" fill="rgb(139,139,148)"/>
<path d="M41 31h1v2h1v2h1v2h-1v1h-2v-1h-1v-2h1v-4z" fill="rgb(255,255,255)"/>
<path d="M42 31h1v2h-1v-2z" fill="rgb(90,90,98)"/>
<path d="M43 33h1v1h-1v-1z" fill="rgb(90,90,98)"/>
<path d="M40 34h1v1h-1v-1z" fill="rgb(197,197,197)"/>
<path d="M43 34h1v1h-1v-1z" fill="rgb(139,139,148)"/>
<path d="M44 34h3v1h-3v-1z" fill="rgb(148,90,8)"/>
<path d="M39 35h1v2h-1v-2z" fill="rgb(90,90,98)"/>
<path d="M44 35h1v1h-1v-1z" fill="rgb(90,90,98)"/>
<path d="M45 35h2v1h2v1h1v2h1v3h-1v2h-1v1h-1v1h-1v1h-2v1h-3v-3h-1v-1h-1v-1h-2v-2h3v-1h1
	v-1h1v-1h1v-1h1v-2z" fill="rgb(238,172,65)"/>
<path d="M47 35h2v1h-2v-1z" fill="rgb(148,90,8)"/>
<path d="M38 36h1v1h-1v-1z" fill="rgb(205,115,16)"/>
<path d="M44 36h1v1h-1v-1z" fill="rgb(205,115,16)"/>
<path d="M49 36h1v1h-1v-1z" fill="rgb(148,90,8)"/>
<path d="M37 37h1v1h-1v-1z" fill="rgb(205,115,16)"/>
<path d="M38 37h1v1h-1v-1z" fill="rgb(238,172,65)"/>
<path d="M39 37h1v1h-1v-1z" fill="rgb(205,115,16)"/>
<path d="M40 37h1v1h-1v-1z" fill="rgb(197,197,197)"/>
<path d="M43 37h1v1h-1v-1z" fill="rgb(205,115,16)"/>
<path d="M50 37h1v1h-1v-1z" fill="rgb(106,57,8)"/>
<path d="M36 38h1v2h-1v-2z" fill="rgb(205,115,16)"/>
<path d="M37 38h1v1h-1v-1z" fill="rgb(238,172,65)"/>
<path d="M38 38h2v1h2v1h-1v1h-3v-1h-1v-1h1v-1z" fill="rgb(255,230,123)"/>
<path d="M40 38h3v1h-3v-1z" fill="rgb(205,115,16)"/>
<path d="M50 38h1v1h-1v-1z" fill="rgb(205,115,16)"/>
<path d="M51 38h1v2h-1v-2z" fill="rgb(106,57,8)"/>
<path d="M35 40h1v4h-1v-4z" fill="rgb(106,57,8)"/>
<path d="M36 40h2v1h-2v-1z" fill="rgb(238,172,65)"/>
<path d="M51 40h1v6h-1v2h-1v1h-2v1h-2v1h-5v-1h-2v-1h2v-1h4v-1h2v-1h1v-1h1v-1h1v-2h1v-2z" fill="rgb(205,115,16)"/>
<path d="M52 40h1v1h-1v-1z" fill="rgb(106,57,8)"/>
<path d="M36 41h1v1h-1v-1z" fill="rgb(255,255,255)"/>
<path d="M37 41h1v1h-1v-1z" fill="rgb(24,24,24)"/>
<path d="M52 41h1v4h-1v-4z" fill="rgb(24,24,24)"/>
<path d="M36 42h1v1h-1v-1z" fill="rgb(24,24,24)"/>
<path d="M37 42h1v1h-1v-1z" fill="rgb(90,90,98)"/>
<path d="M44 42h1v1h-1v-1z" fill="rgb(255,255,255)"/>
<path d="M45 42h1v1h-1v-1z" fill="rgb(24,24,24)"/>
<path d="M36 43h4v1h-4v-1z" fill="rgb(156,41,32)"/>
<path d="M44 43h1v1h-1v-1z" fill="rgb(24,24,24)"/>
<path d="M45 43h1v1h-1v-1z" fill="rgb(90,90,98)"/>
<path d="M34 44h1v3h-1v-3z" fill="rgb(24,24,24)"/>
<path d="M35 44h1v1h-1v-1z" fill="rgb(156,41,32)"/>
<path d="M36 44h4v1h1v2h-1v1h-4v-1h-1v-2h1v-1z" fill="rgb(222,90,82)"/>
<path d="M40 44h1v1h-1v-1z" fill="rgb(205,115,16)"/>
<path d="M36 45h1v1h-1v-1z" fill="rgb(238,156,139)"/>
<path d="M37 45h1v1h-1v-1z" fill="rgb(255,222,205)"/>
<path d="M38 45h1v1h-1v-1z" fill="rgb(238,156,139)"/>
<path d="M41 45h1v3h-2v-1h1v-2z" fill="rgb(156,41,32)"/>
<path d="M52 45h1v1h-1v-1z" fill="rgb(106,57,8)"/>
<path d="M51 46h1v2h-1v-2z" fill="rgb(24,24,24)"/>
<path d="M35 47h1v1h-1v-1z" fill="rgb(24,24,24)"/>
<path d="M36 48h2v1h-2v-1z" fill="rgb(24,24,24)"/>
<path d="M38 48h1v1h-1v-1z" fill="rgb(156,41,32)"/>
<path d="M39 48h2v1h-2v-1z" fill="rgb(106,57,8)"/>
<path d="M50 48h1v1h-1v-1z" fill="rgb(24,24,24)"/>
<path d="M38 49h1v1h-1v-1z" fill="rgb(24,24,24)"/>
<path d="M48 49h1v1h-1v-1z" fill="rgb(106,57,8)"/>
<path d="M49 49h1v1h-1v-1z" fill="rgb(24,24,24)"/>
<path d="M50 49h1v2h-1v-2z" fill="rgb(238,172,65)"/>
<path d="M51 49h1v1h-1v-1z" fill="rgb(106,57,8)"/>
<path d="M39 50h1v1h-1v-1z" fill="rgb(24,24,24)"/>
<path d="M40 50h1v1h-1v-1z" fill="rgb(106,57,8)"/>
<path d="M46 50h2v2h-1v-1h-1v-1z" fill="rgb(24,24,24)"/>
<path d="M48 50h2v1h1v2h-1v2h-2v-1h1v-2h-1v-2z" fill="rgb(205,115,16)"/>
<path d="M51 50h1v3h-1v-3z" fill="rgb(24,24,24)"/>
<path d="M39 51h1v1h-1v-1z" fill="rgb(156,41,32)"/>
<path d="M40 51h1v1h-1v-1z" fill="rgb(238,156,139)"/>
<path d="M41 51h1v1h-1v-1z" fill="rgb(106,57,8)"/>
<path d="M42 51h3v1h-2v1h-1v-2z" fill="rgb(24,24,24)"/>
<path d="M45 51h1v1h-1v-1z" fill="rgb(106,57,8)"/>
<path d="M46 51h1v1h-1v-1z" fill="rgb(156,41,32)"/>
<path d="M58 51h2v1h-1v2h-1v-3z" fill="rgb(90,90,98)"/>
<path d="M39 52h1v1h-1v-1z" fill="rgb(24,24,24)"/>
<path d="M40 52h2v1h-2v-1z" fill="rgb(222,90,82)"/>
<path d="M43 52h2v2h1v1h2v1h-4v-1h-2v-2h1v-1z" fill="rgb(205,115,16)"/>
<path d="M45 52h1v2h-1v-2z" fill="rgb(156,41,32)"/>
<path d="M46 52h1v1h-1v-1z" fill="rgb(238,156,139)"/>
<path d="M47 52h1v2h-2v-1h1v-1z" fill="rgb(222,90,82)"/>
<path d="M48 52h1v2h-1v-2z" fill="rgb(24,24,24)"/>
<path d="M59 52h1v4h-2v-2h1v-2z" fill="rgb(255,255,255)"/>
<path d="M60 52h1v1h-1v-1z" fill="rgb(90,90,98)"/>
<path d="M40 53h2v2h-1v-1h-1v-1z" fill="rgb(24,24,24)"/>
<path d="M50 53h1v1h-1v-1z" fill="rgb(24,24,24)"/>
<path d="M60 53h1v1h-1v-1z" fill="rgb(24,24,24)"/>
<path d="M40 54h1v1h-1v-1z" fill="rgb(106,57,8)"/>
<path d="M46 54h2v1h-2v-1z" fill="rgb(156,41,32)"/>
<path d="M50 54h1v1h-1v-1z" fill="rgb(106,57,8)"/>
<path d="M57 54h1v4h-1v-4z" fill="rgb(90,90,98)"/>
<path d="M60 54h1v3h-1v1h-2v-2h2v-2z" fill="rgb(197,197,197)"/>
<path d="M61 54h1v3h-1v-3z" fill="rgb(24,24,24)"/>
<path d="M39 55h1v2h-1v-2z" fill="rgb(106,57,8)"/>
<path d="M40 55h2v1h1v1h5v2h-1v2h-1v-1h-1v-1h-2v1h-2v-1h-1v-4z" fill="rgb(205,115,16)"/>
<path d="M42 55h2v1h-2v-1z" fill="rgb(24,24,24)"/>
<path d="M48 55h2v1h-2v-1z" fill="rgb(24,24,24)"/>
<path d="M43 56h1v1h-1v-1z" fill="rgb(106,57,8)"/>
<path d="M44 56h4v1h-4v-1z" fill="rgb(24,24,24)"/>
<path d="M48 56h1v2h-1v-2z" fill="rgb(106,57,8)"/>
<path d="M38 57h1v1h-1v-1z" fill="rgb(106,57,8)"/>
<path d="M39 57h1v1h-1v-1z" fill="rgb(156,41,32)"/>
<path d="M60 57h1v2h-1v-2z" fill="rgb(24,24,24)"/>
<path d="M38 58h1v1h-1v-1z" fill="rgb(156,41,32)"/>
<path d="M39 58h1v1h-1v-1z" fill="rgb(238,156,139)"/>
<path d="M48 58h1v2h-1v-2z" fill="rgb(24,24,24)"/>
<path d="M49 58h1v1h-1v-1z" fill="rgb(106,57,8)"/>
<path d="M50 58h1v2h-1v-2z" fill="rgb(24,24,24)"/>
<path d="M57 58h3v1h-3v-1z" fill="rgb(148,90,8)"/>
<path d="M38 59h1v1h-1v-1z" fill="rgb(24,24,24)"/>
<path d="M39 59h1v1h-1v-1z" fill="rgb(222,90,82)"/>
<path d="M40 59h1v1h-1v-1z" fill="rgb(106,57,8)"/>
<path d="M43 59h2v1h-2v-1z" fill="rgb(156,41,32)"/>
<path d="M47 59h1v1h-1v-1z" fill="rgb(106,57,8)"/>
<path d="M49 59h1v1h1v3h-1v1h-1v-1h-2v1h-1v1h-1v-3h2v-1h1v-1h1v-1z" fill="rgb(205,115,16)"/>
<path d="M51 59h1v1h-1v-1z" fill="rgb(148,90,8)"/>
<path d="M53 59h1v1h-1v-1z" fill="rgb(148,90,8)"/>
<path d="M54 59h2v1h2v1h-1v1h-1v-1h-1v-1h-1v-1z" fill="rgb(106,57,8)"/>
<path d="M56 59h1v1h-1v-1z" fill="rgb(148,90,8)"/>
<path d="M57 59h3v1h-1v1h-1v-1h-1v-1z" fill="rgb(205,115,16)"/>
<path d="M60 59h1v1h-1v-1z" fill="rgb(106,57,8)"/>
<path d="M39 60h2v1h-2v-1z" fill="rgb(24,24,24)"/>
<path d="M41 60h1v1h-1v-1z" fill="rgb(106,57,8)"/>
<path d="M42 60h1v1h-1v-1z" fill="rgb(156,41,32)"/>
<path d="M43 60h1v1h-1v-1z" fill="rgb(238,156,139)"/>
<path d="M44 60h1v2h-2v-1h1v-1z" fill="rgb(222,90,82)"/>
<path d="M45 60h1v1h-1v-1z" fill="rgb(156,41,32)"/>
<path d="M47 60h1v1h-1v-1z" fill="rgb(24,24,24)"/>
<path d="M51 60h1v3h-1v-3z" fill="rgb(24,24,24)"/>
<path d="M52 60h1v1h-1v-1z" fill="rgb(148,90,8)"/>
<path d="M53 60h2v1h1v1h-2v-1h-1v-1z" fill="rgb(205,115,16)"/>
<path d="M59 60h1v1h-1v-1z" fill="rgb(148,90,8)"/>
<path d="M60 60h1v2h-1v-2z" fill="rgb(24,24,24)"/>
<path d="M41 61h2v1h-2v-1z" fill="rgb(24,24,24)"/>
<path d="M45 61h2v1h-2v-1z" fill="rgb(24,24,24)"/>
<path d="M52 61h1v1h-1v-1z" fill="rgb(238,172,65)"/>
<path d="M53 61h1v2h-1v-2z" fill="rgb(106,57,8)"/>
<path d="M57 61h1v1h-1v-1z" fill="rgb(205,115,16)"/>
<path d="M58 61h1v1h-1v-1z" fill="rgb(106,57,8)"/>
<path d="M59 61h1v1h-1v-1z" fill="rgb(222,90,82)"/>
<path d="M42 62h1v1h-1v-1z" fill="rgb(106,57,8)"/>
<path d="M43 62h2v1h-2v-1z" fill="rgb(24,24,24)"/>
<path d="M52 62h1v2h-2v-1h1v-1z" fill="rgb(205,115,16)"/>
<path d="M54 62h1v1h-1v-1z" fill="rgb(148,90,8)"/>
<path d="M55 62h1v1h-1v-1z" fill="rgb(156,41,32)"/>
<path d="M56 62h1v2h1v1h-4v1h-1v1h-2v-1h1v-1h1v-2h1v1h2v-2z" fill="rgb(24,24,24)"/>
<path d="M57 62h1v1h-1v-1z" fill="rgb(156,41,32)"/>
<path d="M58 62h2v1h-1v1h-1v-2z" fill="rgb(24,24,24)"/>
<path d="M42 63h1v1h-1v-1z" fill="rgb(156,41,32)"/>
<path d="M43 63h1v1h-1v-1z" fill="rgb(222,90,82)"/>
<path d="M44 63h1v1h-1v-1z" fill="rgb(156,41,32)"/>
<path d="M47 63h2v1h-2v-1z" fill="rgb(156,41,32)"/>
<path d="M50 63h1v1h-1v-1z" fill="rgb(106,57,8)"/>
<path d="M54 63h1v1h-1v-1z" fill="rgb(156,41,32)"/>
<path d="M55 63h1v1h-1v-1z" fill="rgb(222,90,82)"/>
<path d="M57 63h1v1h-1v-1z" fill="rgb(222,90,82)"/>
<path d="M42 64h1v1h-1v-1z" fill="rgb(24,24,24)"/>
<path d="M43 64h1v1h-1v-1z" fill="rgb(156,41,32)"/>
<path d="M44 64h1v1h-1v-1z" fill="rgb(106,57,8)"/>
<path d="M46 64h1v1h-1v-1z" fill="rgb(156,41,32)"/>
<path d="M47 64h1v1h-1v-1z" fill="rgb(238,156,139)"/>
<path d="M48 64h1v2h-2v-1h1v-1z" fill="rgb(222,90,82)"/>
<path d="M49 64h1v1h-1v-1z" fill="rgb(156,41,32)"/>
<path d="M50 64h1v1h-1v-1z" fill="rgb(24,24,24)"/>
<path d="M51 64h1v1h-1v-1z" fill="rgb(156,41,32)"/>
<path d="M52 64h1v1h-1v-1z" fill="rgb(106,57,8)"/>
<path d="M43 65h3v1h-3v-1z" fill="rgb(24,24,24)"/>
<path d="M46 65h1v1h-1v-1z" fill="rgb(106,57,8)"/>
<path d="M49 65h1v1h-1v-1z" fill="rgb(106,57,8)"/>
<path d="M50 65h1v1h-1v-1z" fill="rgb(156,41,32)"/>
<path d="M51 65h1v1h-1v-1z" fill="rgb(222,90,82)"/>
<path d="M47 66h3v1h-3v-1z" fill="rgb(24,24,24)"/>
<path d="M50 66h1v1h-1v-1z" fill="rgb(106,57,8)"/>
</svg>
