<?xml version="1.0" encoding="utf-8"?>
<!-- generated at drububu.com  -->
<!DOCTYPE svg PUBLIC "-//W3C//DTD SVG 1.1//EN" "http://www.w3.org/Graphics/SVG/1.1/DTD/svg11.dtd">
<svg version="1.1" preserveAspectRatio="xMinYMin meet" xmlns="http://www.w3.org/2000/svg" xmlns:xlink="http://www.w3.org/1999/xlink" x="0px" y="0px" width="96px" height="96px" viewBox="0 0 96 96">
<path d="M0 0h96v96h-96v-96z" fill="transparent"/>
<path d="M78 9h1v1h-1v-1z" fill="rgb(24,24,24)"/>
<path d="M78 10h1v1h-1v-1z" fill="rgb(24,98,148)"/>
<path d="M79 10h1v1h-1v-1z" fill="rgb(24,24,24)"/>
<path d="M77 11h1v4h-1v-1h-1v-1h1v-2z" fill="rgb(115,123,123)"/>
<path d="M78 11h1v2h1v3h1v3h1v4h-1v2h-1v-2h-1v-2h-1v-2h-1v-1h-1v-1h-1v-1h-1v-1h1v-2h1v1
	h1v1h1v-4z" fill="rgb(213,222,246)"/>
<path d="M79 11h1v2h-1v-2z" fill="rgb(24,98,148)"/>
<path d="M80 11h1v2h-1v-2z" fill="rgb(24,24,24)"/>
<path d="M75 12h1v1h-1v-1z" fill="rgb(115,123,123)"/>
<path d="M45 13h4v1h-4v-1z" fill="rgb(24,98,148)"/>
<path d="M70 13h2v1h-2v-1z" fill="rgb(24,65,115)"/>
<path d="M74 13h1v2h-2v-1h1v-1z" fill="rgb(115,123,123)"/>
<path d="M80 13h1v2h-1v-2z" fill="rgb(24,98,148)"/>
<path d="M81 13h1v1h-1v-1z" fill="rgb(24,24,24)"/>
<path d="M43 14h2v1h-2v-1z" fill="rgb(24,98,148)"/>
<path d="M45 14h4v1h2v1h2v2h1v5h-1v-2h-1v-1h-4v-2h-1v-1h-1v-1h-2v-1h1v-1z" fill="rgb(65,180,238)"/>
<path d="M49 14h1v1h-1v-1z" fill="rgb(32,139,172)"/>
<path d="M50 14h1v1h-1v-1z" fill="rgb(24,98,148)"/>
<path d="M70 14h1v1h-1v-1z" fill="rgb(24,98,148)"/>
<path d="M71 14h1v1h-1v-1z" fill="rgb(32,139,172)"/>
<path d="M72 14h1v1h-1v-1z" fill="rgb(24,65,115)"/>
<path d="M81 14h1v1h-1v-1z" fill="rgb(24,65,115)"/>
<path d="M26 15h1v1h-1v-1z" fill="rgb(115,123,123)"/>
<path d="M40 15h1v1h-1v-1z" fill="rgb(32,139,172)"/>
<path d="M41 15h1v1h-1v-1z" fill="rgb(24,98,148)"/>
<path d="M42 15h2v1h-2v-1z" fill="rgb(24,65,115)"/>
<path d="M51 15h1v1h-1v-1z" fill="rgb(32,139,172)"/>
<path d="M52 15h1v1h-1v-1z" fill="rgb(24,65,115)"/>
<path d="M70 15h1v2h-1v-2z" fill="rgb(115,123,123)"/>
<path d="M71 15h1v2h-1v-2z" fill="rgb(24,98,148)"/>
<path d="M72 15h1v1h1v1h1v1h1v2h1v1h1v2h1v4h-1v-2h-1v-2h-1v-2h-1v-1h-1v-2h-1v-1h-1v-2z" fill="rgb(32,139,172)"/>
<path d="M73 15h1v1h-1v-1z" fill="rgb(24,65,115)"/>
<path d="M80 15h1v1h-1v-1z" fill="rgb(115,123,123)"/>
<path d="M81 15h1v3h-1v-3z" fill="rgb(24,98,148)"/>
<path d="M82 15h1v2h-1v-2z" fill="rgb(24,24,24)"/>
<path d="M25 16h1v1h-1v-1z" fill="rgb(115,123,123)"/>
<path d="M26 16h1v1h1v2h1v1h1v1h1v3h-1v1h-1v-2h-1v-2h-1v-1h-1v-2h-1v-1h1v-1z" fill="rgb(246,246,246)"/>
<path d="M27 16h1v1h-1v-1z" fill="rgb(115,123,123)"/>
<path d="M38 16h2v1h-2v-1z" fill="rgb(32,139,172)"/>
<path d="M40 16h4v1h2v1h1v2h1v6h-1v1h-2v1h-2v-1h1v-1h1v-1h1v-2h-1v-1h-2v1h-2v1h-1v1h-2
	v-1h-3v-1h1v-1h3v-1h2v-1h1v-2h-1v-1h-1v-1z" fill="rgb(65,180,238)"/>
<path d="M44 16h1v1h-1v-1z" fill="rgb(24,24,24)"/>
<path d="M45 16h1v1h-1v-1z" fill="rgb(24,65,115)"/>
<path d="M53 16h2v1h-1v1h-1v-2z" fill="rgb(24,65,115)"/>
<path d="M65 16h1v1h-1v-1z" fill="rgb(24,65,115)"/>
<path d="M66 16h2v1h-2v-1z" fill="rgb(115,123,123)"/>
<path d="M74 16h1v1h-1v-1z" fill="rgb(24,65,115)"/>
<path d="M24 17h1v1h-1v-1z" fill="rgb(115,123,123)"/>
<path d="M28 17h1v1h-1v-1z" fill="rgb(115,123,123)"/>
<path d="M33 17h1v1h-1v-1z" fill="rgb(115,123,123)"/>
<path d="M36 17h2v1h-2v-1z" fill="rgb(32,139,172)"/>
<path d="M38 17h3v1h1v2h-1v1h-2v1h-3v1h-1v-4h1v-1h2v-1z" fill="rgb(123,213,238)"/>
<path d="M46 17h1v1h-1v-1z" fill="rgb(24,24,24)"/>
<path d="M54 17h1v1h-1v-1z" fill="rgb(65,180,238)"/>
<path d="M55 17h1v1h-1v-1z" fill="rgb(32,139,172)"/>
<path d="M65 17h1v1h-1v-1z" fill="rgb(24,98,148)"/>
<path d="M66 17h1v1h-1v-1z" fill="rgb(24,65,115)"/>
<path d="M67 17h1v1h1v1h1v-2h2v1h1v2h1v1h1v2h1v2h-2v-1h-1v-1h-2v-1h-1v-1h-1v-1h-1v-1h-1
	v-2z" fill="rgb(213,222,246)"/>
<path d="M68 17h2v2h-1v-1h-1v-1z" fill="rgb(115,123,123)"/>
<path d="M72 17h1v1h-1v-1z" fill="rgb(24,98,148)"/>
<path d="M75 17h1v1h-1v-1z" fill="rgb(24,65,115)"/>
<path d="M82 17h1v2h-1v-2z" fill="rgb(24,65,115)"/>
<path d="M25 18h1v2h-1v-2z" fill="rgb(115,123,123)"/>
<path d="M28 18h1v1h-1v-1z" fill="rgb(213,222,246)"/>
<path d="M32 18h1v1h-1v-1z" fill="rgb(115,123,123)"/>
<path d="M33 18h1v6h1v2h1v1h-1v1h-1v1h-1v2h-1v3h-1v-1h-1v-2h-1v-2h1v1h1v-3h-1v-3h1v-2h1
	v-3h1v-1z" fill="rgb(213,222,246)"/>
<path d="M34 18h1v6h-1v-6z" fill="rgb(24,24,24)"/>
<path d="M35 18h1v1h-1v-1z" fill="rgb(32,139,172)"/>
<path d="M47 18h1v2h-1v-2z" fill="rgb(24,65,115)"/>
<path d="M54 18h1v1h-1v-1z" fill="rgb(32,139,172)"/>
<path d="M55 18h1v1h1v2h1v2h-1v-1h-1v-1h-1v-3z" fill="rgb(65,180,238)"/>
<path d="M56 18h1v1h-1v-1z" fill="rgb(24,65,115)"/>
<path d="M66 18h1v1h-1v-1z" fill="rgb(24,98,148)"/>
<path d="M73 18h1v2h-1v-2z" fill="rgb(24,98,148)"/>
<path d="M76 18h1v1h-1v-1z" fill="rgb(24,65,115)"/>
<path d="M81 18h1v1h-1v-1z" fill="rgb(115,123,123)"/>
<path d="M29 19h1v1h-1v-1z" fill="rgb(115,123,123)"/>
<path d="M31 19h1v1h-1v-1z" fill="rgb(115,123,123)"/>
<path d="M54 19h1v7h-1v-7z" fill="rgb(24,65,115)"/>
<path d="M57 19h1v2h-1v-2z" fill="rgb(24,65,115)"/>
<path d="M66 19h1v1h-1v-1z" fill="rgb(24,65,115)"/>
<path d="M67 19h1v1h-1v-1z" fill="rgb(24,98,148)"/>
<path d="M76 19h1v1h-1v-1z" fill="rgb(24,98,148)"/>
<path d="M77 19h1v2h-1v-2z" fill="rgb(24,65,115)"/>
<path d="M82 19h1v6h-1v-6z" fill="rgb(24,98,148)"/>
<path d="M83 19h1v3h-1v-3z" fill="rgb(24,24,24)"/>
<path d="M26 20h1v1h-1v-1z" fill="rgb(115,123,123)"/>
<path d="M30 20h1v1h-1v-1z" fill="rgb(115,123,123)"/>
<path d="M31 20h1v1h-1v-1z" fill="rgb(24,24,24)"/>
<path d="M48 20h1v3h-1v-3z" fill="rgb(24,65,115)"/>
<path d="M49 20h3v1h1v2h-1v1h-2v-1h-1v-3z" fill="rgb(246,230,172)"/>
<path d="M67 20h1v1h-1v-1z" fill="rgb(24,65,115)"/>
<path d="M68 20h1v1h-1v-1z" fill="rgb(24,98,148)"/>
<path d="M74 20h1v1h-1v-1z" fill="rgb(24,98,148)"/>
<path d="M27 21h1v2h-1v-2z" fill="rgb(115,123,123)"/>
<path d="M31 21h1v1h-1v-1z" fill="rgb(115,123,123)"/>
<path d="M55 21h1v1h1v1h1v1h-1v1h-2v-4z" fill="rgb(246,230,172)"/>
<path d="M58 21h1v2h-1v-2z" fill="rgb(24,24,24)"/>
<path d="M68 21h1v1h-1v-1z" fill="rgb(24,65,115)"/>
<path d="M69 21h1v1h-1v-1z" fill="rgb(24,98,148)"/>
<path d="M75 21h1v2h-1v-2z" fill="rgb(24,98,148)"/>
<path d="M78 21h1v2h-1v-2z" fill="rgb(24,65,115)"/>
<path d="M32 22h1v1h-1v-1z" fill="rgb(115,123,123)"/>
<path d="M43 22h2v1h1v2h-1v1h-1v1h-2v-1h-1v-1h-1v-1h1v-1h2v-1z" fill="rgb(246,230,172)"/>
<path d="M69 22h1v1h-1v-1z" fill="rgb(24,65,115)"/>
<path d="M70 22h1v1h-1v-1z" fill="rgb(24,98,148)"/>
<path d="M83 22h1v3h-1v-3z" fill="rgb(24,65,115)"/>
<path d="M28 23h1v2h1v1h-2v-3z" fill="rgb(115,123,123)"/>
<path d="M48 23h1v5h-2v1h-2v1h-1v-1h-1v-1h2v-1h2v-1h1v-3z" fill="rgb(32,139,172)"/>
<path d="M49 23h1v5h-1v-5z" fill="rgb(24,65,115)"/>
<path d="M52 23h1v1h-1v-1z" fill="rgb(65,180,238)"/>
<path d="M53 23h1v3h-3v1h-1v-2h2v-1h1v-1z" fill="rgb(32,139,172)"/>
<path d="M58 23h1v2h-1v-2z" fill="rgb(65,180,238)"/>
<path d="M59 23h1v7h-1v-7z" fill="rgb(24,24,24)"/>
<path d="M70 23h1v1h-1v-1z" fill="rgb(24,65,115)"/>
<path d="M71 23h1v1h-1v-1z" fill="rgb(24,98,148)"/>
<path d="M72 23h1v1h-1v-1z" fill="rgb(115,123,123)"/>
<path d="M76 23h1v2h-1v-2z" fill="rgb(24,98,148)"/>
<path d="M79 23h1v2h-1v-2z" fill="rgb(24,65,115)"/>
<path d="M81 23h1v2h-1v-2z" fill="rgb(115,123,123)"/>
<path d="M25 24h1v1h-1v-1z" fill="rgb(115,123,123)"/>
<path d="M26 24h2v1h-2v-1z" fill="rgb(24,24,24)"/>
<path d="M35 24h1v1h-1v-1z" fill="rgb(24,24,24)"/>
<path d="M36 24h2v1h-2v-1z" fill="rgb(32,139,172)"/>
<path d="M50 24h2v1h-2v-1z" fill="rgb(65,180,238)"/>
<path d="M57 24h1v1h-1v-1z" fill="rgb(205,180,123)"/>
<path d="M71 24h1v1h-1v-1z" fill="rgb(24,65,115)"/>
<path d="M72 24h1v1h-1v-1z" fill="rgb(24,98,148)"/>
<path d="M73 24h1v1h1v1h2v-1h1v4h-1v-1h-1v-1h-2v-1h-1v-2z" fill="rgb(24,65,115)"/>
<path d="M24 25h1v2h-1v-2z" fill="rgb(115,123,123)"/>
<path d="M25 25h3v1h2v1h1v3h-1v-1h-2v-1h-1v-1h-2v-2z" fill="rgb(246,246,246)"/>
<path d="M35 25h1v1h-1v-1z" fill="rgb(24,65,115)"/>
<path d="M36 25h2v1h2v1h1v1h1v2h-1v2h-1v2h-1v1h-1v1h-3v-1h-1v-1h-1v-3h1v-2h1v-1h1v-1h1
	v-1h-1v-1z" fill="rgb(65,180,238)"/>
<path d="M38 25h2v1h-2v-1z" fill="rgb(32,139,172)"/>
<path d="M40 25h1v1h-1v-1z" fill="rgb(65,180,238)"/>
<path d="M55 25h2v1h-2v-1z" fill="rgb(205,180,123)"/>
<path d="M57 25h2v4h-1v2h-1v1h-2v-3h-1v-3h3v-1z" fill="rgb(32,139,172)"/>
<path d="M75 25h1v1h-1v-1z" fill="rgb(115,123,123)"/>
<path d="M76 25h1v1h-1v-1z" fill="rgb(213,222,246)"/>
<path d="M79 25h1v3h-1v1h-1v-2h1v-2z" fill="rgb(24,98,148)"/>
<path d="M80 25h1v3h-1v-3z" fill="rgb(24,65,115)"/>
<path d="M81 25h1v3h-1v-3z" fill="rgb(24,98,148)"/>
<path d="M82 25h1v1h-1v-1z" fill="rgb(24,65,115)"/>
<path d="M36 26h1v1h-1v-1z" fill="rgb(24,98,148)"/>
<path d="M40 26h1v1h-1v-1z" fill="rgb(24,98,148)"/>
<path d="M41 26h1v1h-1v-1z" fill="rgb(24,24,24)"/>
<path d="M51 26h2v2h-1v2h-1v1h-1v1h-2v-1h1v-3h1v-1h1v-1z" fill="rgb(205,180,123)"/>
<path d="M53 26h1v2h-1v-2z" fill="rgb(24,65,115)"/>
<path d="M82 26h1v4h-1v-1h-2v-1h2v-2z" fill="rgb(24,24,24)"/>
<path d="M25 27h1v1h-1v-1z" fill="rgb(115,123,123)"/>
<path d="M26 27h1v1h-1v-1z" fill="rgb(24,24,24)"/>
<path d="M35 27h1v1h-1v-1z" fill="rgb(24,98,148)"/>
<path d="M41 27h1v1h-1v-1z" fill="rgb(32,139,172)"/>
<path d="M42 27h1v2h-1v-2z" fill="rgb(24,24,24)"/>
<path d="M22 28h1v1h-1v-1z" fill="rgb(115,123,123)"/>
<path d="M27 28h1v1h1v2h-1v-1h-1v-2z" fill="rgb(24,24,24)"/>
<path d="M34 28h1v1h-1v-1z" fill="rgb(24,65,115)"/>
<path d="M47 28h1v3h-1v2h-1v1h-1v-3h-1v-1h1v-1h2v-1z" fill="rgb(205,180,123)"/>
<path d="M48 28h1v3h-1v-3z" fill="rgb(90,65,32)"/>
<path d="M52 28h1v2h-1v-2z" fill="rgb(90,65,32)"/>
<path d="M53 28h1v1h1v3h1v1h-2v1h-2v1h-4v-2h2v-1h1v-1h1v-1h1v-2z" fill="rgb(205,180,123)"/>
<path d="M79 28h1v1h-1v-1z" fill="rgb(24,65,115)"/>
<path d="M14 29h1v1h-1v-1z" fill="rgb(115,123,123)"/>
<path d="M21 29h1v1h-1v-1z" fill="rgb(115,123,123)"/>
<path d="M22 29h1v2h1v1h1v1h1v1h1v1h1v1h1v2h-1v3h-1v3h1v1h-3v-1h-1v-4h-1v-1h-1v-1h-1v-1
	h1v-3h1v-1h-1v-2h-1v-1h1v-1z" fill="rgb(213,222,246)"/>
<path d="M23 29h1v2h-1v-2z" fill="rgb(24,24,24)"/>
<path d="M33 29h1v2h-1v-2z" fill="rgb(24,65,115)"/>
<path d="M42 29h1v2h1v2h-1v3h-1v1h-2v1h-2v-1h-1v1h-2v-1h1v-1h2v-1h1v-1h1v-2h1v-2h1v-1z" fill="rgb(32,139,172)"/>
<path d="M43 29h1v2h-1v-2z" fill="rgb(24,24,24)"/>
<path d="M58 29h1v2h-1v-2z" fill="rgb(24,65,115)"/>
<path d="M78 29h1v1h-1v-1z" fill="rgb(24,65,115)"/>
<path d="M79 29h1v1h-1v-1z" fill="rgb(24,24,24)"/>
<path d="M80 29h1v4h-2v-2h1v-2z" fill="rgb(32,139,172)"/>
<path d="M81 29h1v2h-1v-2z" fill="rgb(24,98,148)"/>
<path d="M83 29h1v1h-1v-1z" fill="rgb(24,65,115)"/>
<path d="M13 30h1v1h-1v-1z" fill="rgb(115,123,123)"/>
<path d="M14 30h1v1h2v1h2v1h1v1h2v3h-1v1h-1v-2h-1v-1h-2v-1h-1v-1h-2v-1h-1v-1h1v-1z" fill="rgb(246,246,246)"/>
<path d="M15 30h1v1h-1v-1z" fill="rgb(115,123,123)"/>
<path d="M16 30h1v1h-1v-1z" fill="rgb(24,24,24)"/>
<path d="M20 30h1v1h-1v-1z" fill="rgb(115,123,123)"/>
<path d="M26 30h1v4h-1v-1h-1v-1h1v-2z" fill="rgb(24,24,24)"/>
<path d="M27 30h1v1h1v2h1v1h1v1h-3v-1h-1v-4z" fill="rgb(32,139,172)"/>
<path d="M51 30h1v1h-1v-1z" fill="rgb(90,65,32)"/>
<path d="M59 30h1v2h1v5h-1v1h-1v1h-2v1h-1v-3h-1v-2h-1v-1h3v2h1v1h1v-1h1v-3h-1v-3z" fill="rgb(32,139,172)"/>
<path d="M60 30h1v2h-1v-2z" fill="rgb(24,24,24)"/>
<path d="M79 30h1v1h-1v-1z" fill="rgb(24,98,148)"/>
<path d="M82 30h1v2h-1v1h-1v-2h1v-1z" fill="rgb(205,180,123)"/>
<path d="M83 30h1v4h-2v-1h1v-3z" fill="rgb(24,98,148)"/>
<path d="M84 30h1v3h-1v-3z" fill="rgb(24,24,24)"/>
<path d="M12 31h1v1h-1v-1z" fill="rgb(115,123,123)"/>
<path d="M17 31h1v1h-1v-1z" fill="rgb(115,123,123)"/>
<path d="M18 31h1v1h-1v-1z" fill="rgb(24,24,24)"/>
<path d="M21 31h1v2h-1v-2z" fill="rgb(115,123,123)"/>
<path d="M24 31h1v1h-1v-1z" fill="rgb(24,24,24)"/>
<path d="M29 31h1v2h-1v-2z" fill="rgb(24,24,24)"/>
<path d="M32 31h1v2h-1v-2z" fill="rgb(24,65,115)"/>
<path d="M44 31h1v3h-1v-3z" fill="rgb(24,24,24)"/>
<path d="M47 31h1v1h2v1h-3v-2z" fill="rgb(90,65,32)"/>
<path d="M50 31h1v1h-1v-1z" fill="rgb(90,65,32)"/>
<path d="M57 31h1v1h-1v-1z" fill="rgb(24,65,115)"/>
<path d="M58 31h1v2h1v3h-1v1h-1v-1h-1v-2h-1v-1h1v-1h1v-1z" fill="rgb(205,180,123)"/>
<path d="M68 31h1v1h-1v-1z" fill="rgb(115,123,123)"/>
<path d="M78 31h1v2h-1v-2z" fill="rgb(24,98,148)"/>
<path d="M13 32h1v1h-1v-1z" fill="rgb(115,123,123)"/>
<path d="M19 32h2v1h-2v-1z" fill="rgb(24,24,24)"/>
<path d="M56 32h1v1h-1v-1z" fill="rgb(24,65,115)"/>
<path d="M61 32h1v5h-1v-5z" fill="rgb(24,24,24)"/>
<path d="M67 32h1v2h-1v-2z" fill="rgb(115,123,123)"/>
<path d="M68 32h1v1h1v2h-1v2h1v1h-1v2h-1v2h-2v-4h1v-4h1v-2z" fill="rgb(246,246,246)"/>
<path d="M69 32h1v1h-1v-1z" fill="rgb(115,123,123)"/>
<path d="M82 32h1v1h-1v-1z" fill="rgb(90,65,32)"/>
<path d="M14 33h2v1h-2v-1z" fill="rgb(115,123,123)"/>
<path d="M20 33h1v1h-1v-1z" fill="rgb(213,222,246)"/>
<path d="M21 33h1v1h-1v-1z" fill="rgb(24,24,24)"/>
<path d="M22 33h1v1h-1v-1z" fill="rgb(115,123,123)"/>
<path d="M30 33h1v1h-1v-1z" fill="rgb(24,98,148)"/>
<path d="M32 33h1v1h1v1h-2v-2z" fill="rgb(32,139,172)"/>
<path d="M43 33h1v1h1v2h-1v1h-2v-1h1v-3z" fill="rgb(205,180,123)"/>
<path d="M46 33h1v1h-1v-1z" fill="rgb(90,65,32)"/>
<path d="M47 33h1v1h-1v-1z" fill="rgb(24,24,24)"/>
<path d="M54 33h1v1h-1v-1z" fill="rgb(24,24,24)"/>
<path d="M55 33h1v1h-1v-1z" fill="rgb(24,65,115)"/>
<path d="M70 33h1v1h1v1h-1v1h-1v-3z" fill="rgb(24,24,24)"/>
<path d="M74 33h1v1h-1v-1z" fill="rgb(115,123,123)"/>
<path d="M76 33h1v1h-1v-1z" fill="rgb(115,123,123)"/>
<path d="M79 33h3v1h-2v1h-1v-2z" fill="rgb(24,24,24)"/>
<path d="M16 34h1v1h-1v-1z" fill="rgb(115,123,123)"/>
<path d="M23 34h2v1h-2v-1z" fill="rgb(115,123,123)"/>
<path d="M27 34h1v1h-1v-1z" fill="rgb(24,65,115)"/>
<path d="M31 34h1v1h-1v-1z" fill="rgb(24,98,148)"/>
<path d="M45 34h2v1h-1v2h-1v-3z" fill="rgb(24,24,24)"/>
<path d="M47 34h1v1h-1v-1z" fill="rgb(90,65,32)"/>
<path d="M52 34h2v1h-2v-1z" fill="rgb(24,24,24)"/>
<path d="M66 34h1v4h-1v-4z" fill="rgb(115,123,123)"/>
<path d="M73 34h1v1h-1v-1z" fill="rgb(115,123,123)"/>
<path d="M74 34h1v2h1v2h1v-2h1v5h-1v2h-1v-1h-1v-2h-1v-1h-1v-4h1v-1z" fill="rgb(213,222,246)"/>
<path d="M75 34h1v2h-1v-2z" fill="rgb(115,123,123)"/>
<path d="M76 34h1v2h-1v-2z" fill="rgb(213,222,246)"/>
<path d="M77 34h1v2h-1v-2z" fill="rgb(115,123,123)"/>
<path d="M80 34h4v1h1v2h-1v1h-1v1h-4v-3h1v-2z" fill="rgb(32,139,172)"/>
<path d="M84 34h1v1h-1v-1z" fill="rgb(24,65,115)"/>
<path d="M17 35h2v1h-2v-1z" fill="rgb(115,123,123)"/>
<path d="M28 35h1v1h-1v-1z" fill="rgb(24,65,115)"/>
<path d="M29 35h1v3h-1v-3z" fill="rgb(24,98,148)"/>
<path d="M30 35h3v1h-3v-1z" fill="rgb(24,65,115)"/>
<path d="M33 35h1v1h-1v-1z" fill="rgb(24,24,24)"/>
<path d="M34 35h1v1h-1v-1z" fill="rgb(32,139,172)"/>
<path d="M46 35h2v1h4v-1h3v2h1v3h-1v1h-5v-1h-2v-1h-1v-2h-1v-2z" fill="rgb(205,180,123)"/>
<path d="M48 35h1v1h-1v-1z" fill="rgb(90,65,32)"/>
<path d="M49 35h2v1h-2v-1z" fill="rgb(24,24,24)"/>
<path d="M51 35h1v1h-1v-1z" fill="rgb(90,65,32)"/>
<path d="M69 35h1v2h-1v-2z" fill="rgb(115,123,123)"/>
<path d="M71 35h1v2h-1v2h-1v2h-1v2h1v-2h1v-1h1v-1h1v2h-1v2h-1v2h-1v2h-1v1h-3v-1h-1v-2h1
	v-1h1v-2h1v-2h1v-2h1v-2h1v-1z" fill="rgb(213,222,246)"/>
<path d="M72 35h1v2h-1v-2z" fill="rgb(24,24,24)"/>
<path d="M78 35h1v6h-1v-6z" fill="rgb(24,65,115)"/>
<path d="M79 35h1v1h-1v-1z" fill="rgb(24,98,148)"/>
<path d="M85 35h1v2h-1v-2z" fill="rgb(24,65,115)"/>
<path d="M19 36h1v2h-3v-1h2v-1z" fill="rgb(115,123,123)"/>
<path d="M30 36h1v1h-1v-1z" fill="rgb(32,139,172)"/>
<path d="M31 36h3v1h1v1h2v2h-1v2h-1v2h1v-2h1v-2h1v-1h2v-1h3v2h-1v2h-1v1h-1v1h-1v2h-1v1
	h-1v-2h-3v1h-1v1h-2v-1h-2v-2h-1v-3h1v-3h1v-1h1v-1z" fill="rgb(65,180,238)"/>
<path d="M34 36h1v1h-1v-1z" fill="rgb(24,65,115)"/>
<path d="M35 36h1v1h-1v-1z" fill="rgb(24,24,24)"/>
<path d="M44 36h1v1h-1v-1z" fill="rgb(90,65,32)"/>
<path d="M76 36h1v2h-1v-2z" fill="rgb(115,123,123)"/>
<path d="M37 37h1v1h-1v-1z" fill="rgb(24,24,24)"/>
<path d="M40 37h5v4h-1v-3h-4v-1z" fill="rgb(24,24,24)"/>
<path d="M45 37h1v2h1v1h1v2h-1v3h-2v1h-1v1h-1v-4h1v-2h1v-4z" fill="transparent"/>
<path d="M46 37h1v2h-1v-2z" fill="rgb(90,65,32)"/>
<path d="M60 37h1v1h-1v-1z" fill="rgb(24,24,24)"/>
<path d="M71 37h1v2h-1v-2z" fill="rgb(24,24,24)"/>
<path d="M72 37h1v2h-1v-2z" fill="rgb(115,123,123)"/>
<path d="M84 37h1v2h-1v1h-1v-2h1v-1z" fill="rgb(205,180,123)"/>
<path d="M85 37h1v3h-1v-3z" fill="rgb(24,24,24)"/>
<path d="M16 38h1v2h-1v-2z" fill="rgb(115,123,123)"/>
<path d="M17 38h3v1h3v1h1v3h-1v-2h-1v-1h-1v1h-2v-1h-2v-2z" fill="rgb(246,246,246)"/>
<path d="M20 38h2v1h-2v-1z" fill="rgb(115,123,123)"/>
<path d="M28 38h1v2h-1v-2z" fill="rgb(24,98,148)"/>
<path d="M37 38h1v2h-1v-2z" fill="rgb(32,139,172)"/>
<path d="M38 38h2v1h-2v-1z" fill="rgb(24,24,24)"/>
<path d="M43 38h1v3h-1v2h-1v1h-1v1h-1v2h-1v1h-3v-1h2v-1h1v-2h1v-1h1v-1h1v-2h1v-2z" fill="rgb(32,139,172)"/>
<path d="M59 38h1v1h-1v-1z" fill="rgb(24,24,24)"/>
<path d="M60 38h1v1h1v2h-1v1h-1v-2h-1v-1h1v-1z" fill="rgb(205,180,123)"/>
<path d="M61 38h1v1h-1v-1z" fill="rgb(24,24,24)"/>
<path d="M65 38h1v4h-1v-1h-1v-1h1v-2z" fill="rgb(115,123,123)"/>
<path d="M47 39h1v1h-1v-1z" fill="rgb(24,24,24)"/>
<path d="M57 39h2v1h-2v-1z" fill="rgb(24,24,24)"/>
<path d="M62 39h1v2h-1v-2z" fill="rgb(24,24,24)"/>
<path d="M63 39h1v1h-1v-1z" fill="rgb(115,123,123)"/>
<path d="M70 39h1v2h-1v-2z" fill="rgb(24,24,24)"/>
<path d="M71 39h1v1h-1v-1z" fill="rgb(115,123,123)"/>
<path d="M73 39h1v1h1v2h-1v-1h-1v-2z" fill="rgb(24,24,24)"/>
<path d="M79 39h3v1h-3v-1z" fill="rgb(24,24,24)"/>
<path d="M82 39h1v1h-1v-1z" fill="rgb(24,98,148)"/>
<path d="M84 39h1v2h-1v-2z" fill="rgb(90,65,32)"/>
<path d="M17 40h2v1h-2v-1z" fill="rgb(115,123,123)"/>
<path d="M21 40h1v1h-1v-1z" fill="rgb(24,65,115)"/>
<path d="M28 40h1v1h-1v-1z" fill="rgb(115,123,123)"/>
<path d="M36 40h1v2h-1v-2z" fill="rgb(32,139,172)"/>
<path d="M48 40h2v1h-1v1h-1v-2z" fill="rgb(90,65,32)"/>
<path d="M55 40h2v1h-2v-1z" fill="rgb(90,65,32)"/>
<path d="M57 40h3v2h1v-1h2v4h-1v2h-1v1h-2v1h-1v-2h1v-4h-1v-2h-1v-1z" fill="rgb(32,139,172)"/>
<path d="M63 40h1v1h-1v-1z" fill="rgb(246,246,246)"/>
<path d="M79 40h3v1h2v1h1v3h-1v2h-1v1h-1v-2h1v-3h-2v1h-1v1h-1v-1h-2v-1h1v-2h1v-1z" fill="rgb(32,139,172)"/>
<path d="M82 40h2v1h-2v-1z" fill="rgb(24,65,115)"/>
<path d="M19 41h1v1h-1v-1z" fill="rgb(115,123,123)"/>
<path d="M20 41h1v10h-1v-10z" fill="rgb(24,65,115)"/>
<path d="M21 41h1v15h2v2h-1v2h-1v1h-2v-1h-1v-3h1v-6h1v-10z" fill="rgb(32,139,172)"/>
<path d="M22 41h1v2h-1v-2z" fill="rgb(24,65,115)"/>
<path d="M27 41h1v2h-1v-2z" fill="rgb(24,98,148)"/>
<path d="M43 41h1v2h-1v-2z" fill="rgb(24,24,24)"/>
<path d="M49 41h1v2h-1v1h-1v-2h1v-1z" fill="rgb(205,180,123)"/>
<path d="M50 41h2v1h-2v-1z" fill="rgb(90,65,32)"/>
<path d="M52 41h2v3h-2v-1h1v-1h-1v-1z" fill="rgb(24,65,115)"/>
<path d="M54 41h1v1h-1v-1z" fill="rgb(90,65,32)"/>
<path d="M55 41h3v2h1v4h-1v2h-1v1h-6v-2h1v-1h1v-3h1v-2h1v-1z" fill="rgb(205,180,123)"/>
<path d="M63 41h1v4h-1v-4z" fill="rgb(24,24,24)"/>
<path d="M64 41h1v1h1v1h1v1h-1v1h-1v-1h-1v-3z" fill="rgb(246,246,246)"/>
<path d="M69 41h1v2h-1v-2z" fill="rgb(115,123,123)"/>
<path d="M72 41h1v2h-1v-2z" fill="rgb(24,24,24)"/>
<path d="M73 41h1v1h1v2h-1v1h-2v-2h1v-2z" fill="transparent"/>
<path d="M77 41h1v2h-1v-2z" fill="rgb(24,65,115)"/>
<path d="M84 41h1v1h-1v-1z" fill="rgb(24,24,24)"/>
<path d="M35 42h1v2h-1v-2z" fill="rgb(32,139,172)"/>
<path d="M47 42h1v2h-1v-2z" fill="rgb(90,65,32)"/>
<path d="M50 42h2v1h-2v-1z" fill="rgb(24,65,115)"/>
<path d="M52 42h1v1h-1v-1z" fill="rgb(65,180,238)"/>
<path d="M66 42h1v1h-1v-1z" fill="rgb(115,123,123)"/>
<path d="M75 42h1v1h1v1h-1v1h-2v-1h1v-2z" fill="rgb(24,65,115)"/>
<path d="M85 42h1v5h-1v-5z" fill="rgb(24,24,24)"/>
<path d="M22 43h1v8h1v4h-2v-12z" fill="rgb(24,98,148)"/>
<path d="M23 43h1v1h-1v-1z" fill="rgb(24,65,115)"/>
<path d="M27 43h1v1h-1v-1z" fill="rgb(115,123,123)"/>
<path d="M42 43h1v4h1v2h-1v-1h-1v-5z" fill="rgb(24,24,24)"/>
<path d="M49 43h1v1h-1v-1z" fill="rgb(24,65,115)"/>
<path d="M50 43h2v1h-1v1h-2v-1h1v-1z" fill="rgb(65,180,238)"/>
<path d="M71 43h1v2h-1v-2z" fill="rgb(24,24,24)"/>
<path d="M81 43h2v3h-1v1h-1v-1h-1v-2h1v-1z" fill="rgb(205,180,123)"/>
<path d="M23 44h1v2h-1v-2z" fill="rgb(24,24,24)"/>
<path d="M24 44h1v1h-1v-1z" fill="rgb(115,123,123)"/>
<path d="M28 44h1v1h-1v-1z" fill="rgb(24,98,148)"/>
<path d="M41 44h1v1h-1v-1z" fill="rgb(24,65,115)"/>
<path d="M47 44h2v1h-2v-1z" fill="rgb(24,65,115)"/>
<path d="M51 44h1v1h-1v-1z" fill="rgb(115,123,123)"/>
<path d="M52 44h1v3h-1v-3z" fill="rgb(24,24,24)"/>
<path d="M64 44h1v1h-1v-1z" fill="rgb(213,222,246)"/>
<path d="M76 44h1v1h-1v-1z" fill="rgb(65,180,238)"/>
<path d="M77 44h2v1h-2v-1z" fill="rgb(24,65,115)"/>
<path d="M24 45h5v1h-5v-1z" fill="rgb(24,65,115)"/>
<path d="M34 45h3v2h-1v-1h-2v-1z" fill="rgb(24,24,24)"/>
<path d="M40 45h1v2h-1v-2z" fill="rgb(24,98,148)"/>
<path d="M41 45h1v3h-1v1h-2v-1h1v-1h1v-2z" fill="rgb(32,139,172)"/>
<path d="M45 45h2v1h-2v-1z" fill="rgb(24,65,115)"/>
<path d="M47 45h2v1h-2v-1z" fill="rgb(65,180,238)"/>
<path d="M49 45h2v1h-2v-1z" fill="rgb(115,123,123)"/>
<path d="M51 45h1v1h-1v-1z" fill="rgb(213,222,246)"/>
<path d="M62 45h1v1h-1v-1z" fill="rgb(24,24,24)"/>
<path d="M63 45h1v2h1v3h-1v-2h-1v-3z" fill="rgb(32,139,172)"/>
<path d="M64 45h1v2h-1v-2z" fill="rgb(24,24,24)"/>
<path d="M70 45h1v1h-1v-1z" fill="rgb(115,123,123)"/>
<path d="M71 45h1v1h-1v-1z" fill="transparent"/>
<path d="M72 45h1v1h-1v-1z" fill="rgb(24,24,24)"/>
<path d="M73 45h1v1h-1v-1z" fill="rgb(24,65,115)"/>
<path d="M74 45h3v1h1v2h-1v1h-1v1h-1v-1h-1v-1h-1v-2h1v-1z" fill="rgb(123,213,238)"/>
<path d="M77 45h2v1h1v1h1v4h-1v-2h-2v1h-2v-1h1v-1h1v-2h-1v-1z" fill="rgb(65,180,238)"/>
<path d="M79 45h1v1h-1v-1z" fill="rgb(24,65,115)"/>
<path d="M84 45h1v2h-1v-2z" fill="rgb(205,180,123)"/>
<path d="M23 46h1v1h-1v-1z" fill="rgb(24,65,115)"/>
<path d="M24 46h3v1h-1v2h-1v2h-1v-5z" fill="rgb(32,139,172)"/>
<path d="M27 46h1v1h-1v-1z" fill="rgb(65,180,238)"/>
<path d="M28 46h1v2h-1v2h-1v1h-1v-2h1v-2h1v-1z" fill="rgb(123,213,238)"/>
<path d="M29 46h2v1h-2v-1z" fill="rgb(24,65,115)"/>
<path d="M33 46h1v1h-1v-1z" fill="rgb(24,65,115)"/>
<path d="M34 46h2v1h-1v1h-1v1h-1v2h-2v-2h1v-1h1v-1h1v-1z" fill="rgb(32,139,172)"/>
<path d="M44 46h1v2h-1v-2z" fill="rgb(24,65,115)"/>
<path d="M45 46h2v1h-2v-1z" fill="rgb(65,180,238)"/>
<path d="M47 46h2v1h-2v-1z" fill="rgb(115,123,123)"/>
<path d="M49 46h2v2h-1v3h-1v1h-2v1h-1v1h-1v1h4v-1h2v1h-1v2h1v2h-1v1h-1v1h-1v-1h-3v1h-1
	v-2h-1v-3h1v-4h1v-2h1v-2h1v-1h2v-1z" fill="rgb(213,222,246)"/>
<path d="M51 46h1v1h-1v-1z" fill="rgb(115,123,123)"/>
<path d="M62 46h1v1h-1v-1z" fill="rgb(24,65,115)"/>
<path d="M70 46h2v1h1v1h-3v-2z" fill="rgb(24,65,115)"/>
<path d="M72 46h1v1h-1v-1z" fill="rgb(65,180,238)"/>
<path d="M80 46h1v1h-1v-1z" fill="rgb(24,65,115)"/>
<path d="M23 47h1v4h-1v-4z" fill="rgb(24,24,24)"/>
<path d="M26 47h1v2h-1v-2z" fill="rgb(65,180,238)"/>
<path d="M29 47h2v2h-1v1h-1v1h-1v1h-2v-1h1v-1h1v-2h1v-1z" fill="rgb(65,180,238)"/>
<path d="M31 47h1v1h-1v-1z" fill="rgb(24,65,115)"/>
<path d="M32 47h1v1h-1v-1z" fill="rgb(24,24,24)"/>
<path d="M35 47h1v1h-1v-1z" fill="rgb(24,24,24)"/>
<path d="M39 47h1v1h-1v-1z" fill="rgb(24,98,148)"/>
<path d="M45 47h1v1h-1v-1z" fill="rgb(32,139,172)"/>
<path d="M46 47h1v1h-1v-1z" fill="rgb(115,123,123)"/>
<path d="M51 47h1v1h-1v-1z" fill="rgb(24,24,24)"/>
<path d="M61 47h1v1h-1v-1z" fill="rgb(24,65,115)"/>
<path d="M62 47h1v1h1v3h-2v-1h-1v-2h1v-1z" fill="rgb(205,180,123)"/>
<path d="M65 47h1v1h3v1h-1v1h-1v-1h-1v1h-1v-3z" fill="rgb(24,24,24)"/>
<path d="M69 47h1v2h-1v-2z" fill="rgb(115,123,123)"/>
<path d="M81 47h1v2h-1v-2z" fill="rgb(24,65,115)"/>
<path d="M83 47h1v2h-2v-1h1v-1z" fill="rgb(205,180,123)"/>
<path d="M84 47h1v2h-1v-2z" fill="rgb(24,24,24)"/>
<path d="M19 48h1v1h-1v-1z" fill="rgb(32,139,172)"/>
<path d="M31 48h1v1h-1v-1z" fill="rgb(24,24,24)"/>
<path d="M34 48h1v1h-1v-1z" fill="rgb(24,24,24)"/>
<path d="M35 48h1v1h3v1h-2v2h-2v1h-2v1h-2v-1h1v-1h1v-1h1v-2h1v-1z" fill="rgb(32,139,172)"/>
<path d="M36 48h3v1h-3v-1z" fill="rgb(24,24,24)"/>
<path d="M41 48h1v1h-1v-1z" fill="rgb(24,24,24)"/>
<path d="M42 48h1v1h-1v-1z" fill="transparent"/>
<path d="M44 48h1v2h-2v-1h1v-1z" fill="rgb(65,180,238)"/>
<path d="M45 48h1v2h-1v-2z" fill="rgb(115,123,123)"/>
<path d="M50 48h1v2h-1v-2z" fill="rgb(115,123,123)"/>
<path d="M59 48h2v1h-2v-1z" fill="rgb(24,65,115)"/>
<path d="M70 48h3v1h1v2h-1v1h-4v-2h-1v-1h2v-1z" fill="rgb(65,180,238)"/>
<path d="M73 48h1v1h-1v-1z" fill="rgb(24,65,115)"/>
<path d="M18 49h1v2h-1v-2z" fill="rgb(32,139,172)"/>
<path d="M19 49h1v2h-1v-2z" fill="rgb(123,213,238)"/>
<path d="M25 49h1v2h-1v-2z" fill="rgb(65,180,238)"/>
<path d="M30 49h1v1h-1v-1z" fill="rgb(24,24,24)"/>
<path d="M33 49h1v2h-1v-2z" fill="rgb(24,24,24)"/>
<path d="M39 49h1v1h-1v-1z" fill="rgb(24,24,24)"/>
<path d="M40 49h2v1h-2v-1z" fill="rgb(24,65,115)"/>
<path d="M42 49h1v3h-1v-3z" fill="rgb(24,24,24)"/>
<path d="M57 49h2v1h-2v-1z" fill="rgb(24,24,24)"/>
<path d="M59 49h2v1h1v1h2v2h-1v2h-1v-3h-1v-1h-1v-1h-1v-1z" fill="rgb(32,139,172)"/>
<path d="M66 49h1v1h1v2h-1v-1h-1v-2z" fill="rgb(65,180,238)"/>
<path d="M74 49h1v1h-1v-1z" fill="rgb(24,65,115)"/>
<path d="M78 49h2v2h-1v1h-1v1h-1v-1h-1v-2h2v-1z" fill="rgb(246,230,172)"/>
<path d="M81 49h1v4h-1v1h-1v1h-1v1h-1v1h-1v-4h2v-1h1v-1h1v-2z" fill="rgb(32,139,172)"/>
<path d="M82 49h2v1h-2v-1z" fill="rgb(24,24,24)"/>
<path d="M11 50h1v1h-1v-1z" fill="rgb(24,65,115)"/>
<path d="M29 50h1v1h-1v-1z" fill="rgb(24,24,24)"/>
<path d="M30 50h1v1h1v1h-1v1h-1v1h-1v2h-1v1h-1v2h-1v2h-1v-1h-1v-4h1v-1h1v-1h1v-1h1v-1h1
	v-1h1v-1z" fill="rgb(24,98,148)"/>
<path d="M37 50h2v1h-2v-1z" fill="rgb(24,24,24)"/>
<path d="M39 50h2v2h-1v1h-1v1h-1v2h-1v3h-1v3h-1v3h1v2h-1v-1h-2v-1h-1v-1h-1v-1h-3v1h-1v-1
	h-1v-2h1v1h3v-1h2v-1h1v-1h1v-1h1v-2h-1v-2h-1v-1h2v-1h2v-1h2v-1z" fill="rgb(65,180,238)"/>
<path d="M41 50h1v2h-1v-2z" fill="rgb(32,139,172)"/>
<path d="M43 50h1v2h-1v-2z" fill="rgb(32,139,172)"/>
<path d="M44 50h1v2h-1v-2z" fill="rgb(24,98,148)"/>
<path d="M50 50h1v2h1v2h-3v1h-4v-1h1v-1h1v-1h2v-1h1v-1z" fill="rgb(246,246,246)"/>
<path d="M51 50h1v2h-1v-2z" fill="rgb(24,24,24)"/>
<path d="M52 50h5v1h-5v-1z" fill="rgb(90,65,32)"/>
<path d="M57 50h3v1h1v1h1v3h-1v2h-2v1h-5v-1h-2v-3h1v-3h4v-1z" fill="rgb(205,180,123)"/>
<path d="M64 50h1v2h-1v-2z" fill="rgb(24,24,24)"/>
<path d="M65 50h1v1h-1v-1z" fill="rgb(32,139,172)"/>
<path d="M68 50h1v2h-1v-2z" fill="rgb(24,24,24)"/>
<path d="M74 50h1v2h1v5h-1v2h-1v-1h-4v1h-2v-1h1v-2h4v-1h1v-2h-1v-2h1v-1z" fill="rgb(32,139,172)"/>
<path d="M75 50h1v2h-1v-2z" fill="rgb(24,65,115)"/>
<path d="M82 50h1v1h-1v-1z" fill="rgb(24,65,115)"/>
<path d="M10 51h1v2h-1v-2z" fill="rgb(24,65,115)"/>
<path d="M11 51h1v1h1v1h1v1h1v1h1v2h-2v-1h-1v-1h-1v-2h-1v-2z" fill="rgb(32,139,172)"/>
<path d="M12 51h1v1h-1v-1z" fill="rgb(24,65,115)"/>
<path d="M17 51h1v2h-1v-2z" fill="rgb(32,139,172)"/>
<path d="M18 51h1v4h-2v-1h1v-3z" fill="rgb(123,213,238)"/>
<path d="M19 51h1v4h-1v-4z" fill="rgb(24,24,24)"/>
<path d="M24 51h1v3h1v1h-1v1h-1v-5z" fill="rgb(24,24,24)"/>
<path d="M25 51h1v1h1v1h-1v1h-1v-3z" fill="rgb(32,139,172)"/>
<path d="M28 51h1v1h-1v-1z" fill="rgb(24,24,24)"/>
<path d="M32 51h1v1h-1v-1z" fill="rgb(24,24,24)"/>
<path d="M52 51h1v3h-1v-3z" fill="rgb(115,123,123)"/>
<path d="M65 51h2v1h1v2h-1v1h-2v-1h-1v-1h1v-2z" fill="rgb(205,180,123)"/>
<path d="M79 51h1v1h-1v-1z" fill="rgb(205,180,123)"/>
<path d="M82 51h1v3h-1v-3z" fill="rgb(24,24,24)"/>
<path d="M13 52h1v1h-1v-1z" fill="rgb(24,65,115)"/>
<path d="M27 52h1v1h-1v-1z" fill="rgb(24,24,24)"/>
<path d="M31 52h1v1h-1v-1z" fill="rgb(24,24,24)"/>
<path d="M40 52h1v2h-1v3h-1v-1h-1v-2h1v-1h1v-1z" fill="rgb(32,139,172)"/>
<path d="M41 52h1v3h-1v2h-1v-3h1v-2z" fill="rgb(24,24,24)"/>
<path d="M42 52h1v6h-1v-1h-1v-2h1v-3z" fill="rgb(32,139,172)"/>
<path d="M43 52h1v4h-1v-4z" fill="rgb(24,98,148)"/>
<path d="M64 52h1v1h-1v-1z" fill="rgb(24,65,115)"/>
<path d="M68 52h1v4h-1v2h-1v1h-2v-1h-2v-1h-1v-1h1v-1h1v-1h1v1h2v-1h1v-2z" fill="rgb(32,139,172)"/>
<path d="M69 52h1v4h-1v-4z" fill="rgb(24,24,24)"/>
<path d="M70 52h2v1h-2v-1z" fill="rgb(246,230,172)"/>
<path d="M72 52h1v1h1v2h-1v1h-3v-3h2v-1z" fill="rgb(205,180,123)"/>
<path d="M76 52h1v2h-1v-2z" fill="rgb(24,65,115)"/>
<path d="M78 52h1v1h-1v-1z" fill="rgb(205,180,123)"/>
<path d="M11 53h1v2h-1v-2z" fill="rgb(24,24,24)"/>
<path d="M14 53h1v1h-1v-1z" fill="rgb(24,65,115)"/>
<path d="M17 53h1v1h-1v-1z" fill="rgb(65,180,238)"/>
<path d="M26 53h1v1h-1v-1z" fill="rgb(24,24,24)"/>
<path d="M30 53h1v1h-1v-1z" fill="rgb(24,24,24)"/>
<path d="M63 53h1v2h-1v-2z" fill="rgb(24,65,115)"/>
<path d="M81 53h1v1h-1v-1z" fill="rgb(205,180,123)"/>
<path d="M15 54h1v1h-1v-1z" fill="rgb(24,24,24)"/>
<path d="M16 54h1v1h-1v-1z" fill="rgb(32,139,172)"/>
<path d="M29 54h1v2h-1v-2z" fill="rgb(24,24,24)"/>
<path d="M30 54h1v1h-1v-1z" fill="rgb(32,139,172)"/>
<path d="M31 54h2v2h1v2h-2v-3h-1v-1z" fill="rgb(65,180,238)"/>
<path d="M33 54h1v2h-1v-2z" fill="rgb(32,139,172)"/>
<path d="M51 54h1v3h-2v-1h1v-2z" fill="rgb(24,24,24)"/>
<path d="M76 54h1v4h1v1h-3v-2h1v-3z" fill="rgb(24,24,24)"/>
<path d="M80 54h1v2h-1v1h-2v-1h1v-1h1v-1z" fill="rgb(205,180,123)"/>
<path d="M81 54h1v2h-1v-2z" fill="rgb(24,24,24)"/>
<path d="M12 55h1v1h-1v-1z" fill="rgb(24,24,24)"/>
<path d="M16 55h2v1h-2v-1z" fill="rgb(24,24,24)"/>
<path d="M18 55h2v2h-1v-1h-1v-1z" fill="rgb(24,65,115)"/>
<path d="M22 55h2v1h-2v-1z" fill="rgb(24,65,115)"/>
<path d="M30 55h1v1h-1v-1z" fill="rgb(24,98,148)"/>
<path d="M31 55h1v1h-1v-1z" fill="rgb(32,139,172)"/>
<path d="M50 55h1v1h-1v-1z" fill="rgb(115,123,123)"/>
<path d="M61 55h1v1h-1v-1z" fill="rgb(32,139,172)"/>
<path d="M62 55h1v1h-1v-1z" fill="rgb(24,65,115)"/>
<path d="M13 56h1v1h-1v-1z" fill="rgb(24,24,24)"/>
<path d="M16 56h3v2h-1v2h-1v-1h-1v-1h-1v-1h1v-1z" fill="rgb(24,98,148)"/>
<path d="M28 56h1v2h-1v1h-1v-2h1v-1z" fill="rgb(24,24,24)"/>
<path d="M29 56h1v1h-1v-1z" fill="rgb(32,139,172)"/>
<path d="M30 56h1v1h-1v-1z" fill="rgb(213,222,246)"/>
<path d="M31 56h1v2h-1v-2z" fill="rgb(24,98,148)"/>
<path d="M34 56h1v2h-1v-2z" fill="rgb(32,139,172)"/>
<path d="M37 56h1v2h2v1h3v2h-2v1h-1v2h-1v3h1v2h1v2h-1v-1h-1v-1h-1v-2h-1v-2h-1v-3h1v-2h-1
	v-1h1v-3z" fill="rgb(32,139,172)"/>
<path d="M38 56h1v1h1v1h-2v-2z" fill="rgb(24,24,24)"/>
<path d="M61 56h1v1h-1v-1z" fill="rgb(24,65,115)"/>
<path d="M68 56h1v2h-1v-2z" fill="rgb(24,24,24)"/>
<path d="M80 56h1v1h-1v-1z" fill="rgb(24,24,24)"/>
<path d="M6 57h4v1h-4v-1z" fill="rgb(24,65,115)"/>
<path d="M14 57h1v1h1v1h-3v-1h1v-1z" fill="rgb(24,24,24)"/>
<path d="M29 57h1v1h-1v-1z" fill="rgb(213,222,246)"/>
<path d="M30 57h1v3h-1v-1h-1v-1h1v-1z" fill="rgb(246,246,246)"/>
<path d="M40 57h1v1h-1v-1z" fill="rgb(32,139,172)"/>
<path d="M41 57h1v1h1v1h-3v-1h1v-1z" fill="rgb(24,24,24)"/>
<path d="M51 57h1v1h-1v-1z" fill="rgb(115,123,123)"/>
<path d="M52 57h2v1h-1v1h-2v-1h1v-1z" fill="rgb(24,24,24)"/>
<path d="M59 57h2v1h-2v-1z" fill="rgb(24,65,115)"/>
<path d="M61 57h2v1h2v1h1v1h-1v1h-2v1h-5v-1h-2v-1h-2v-1h5v-1h2v-1z" fill="rgb(205,180,123)"/>
<path d="M77 57h1v1h-1v-1z" fill="rgb(205,180,123)"/>
<path d="M78 57h2v1h-2v-1z" fill="rgb(24,24,24)"/>
<path d="M5 58h1v1h-1v-1z" fill="rgb(24,65,115)"/>
<path d="M6 58h2v1h-2v-1z" fill="rgb(65,180,238)"/>
<path d="M8 58h2v1h2v1h-3v-1h-1v-1z" fill="rgb(32,139,172)"/>
<path d="M10 58h3v1h-3v-1z" fill="rgb(24,65,115)"/>
<path d="M18 58h1v1h-1v-1z" fill="rgb(24,65,115)"/>
<path d="M23 58h1v2h-1v-2z" fill="rgb(24,65,115)"/>
<path d="M28 58h1v1h-1v-1z" fill="rgb(189,49,98)"/>
<path d="M31 58h1v2h-1v-2z" fill="rgb(213,222,246)"/>
<path d="M32 58h2v1h-1v1h-1v-2z" fill="rgb(32,139,172)"/>
<path d="M53 58h1v1h-1v-1z" fill="rgb(205,180,123)"/>
<path d="M54 58h3v1h-3v-1z" fill="rgb(24,24,24)"/>
<path d="M57 58h2v1h-2v-1z" fill="rgb(90,65,32)"/>
<path d="M67 58h1v1h-1v-1z" fill="rgb(24,24,24)"/>
<path d="M70 58h4v2h-1v1h-2v1h-5v-2h1v-1h3v-1z" fill="rgb(205,180,123)"/>
<path d="M6 59h3v1h-3v-1z" fill="rgb(24,65,115)"/>
<path d="M12 59h1v2h-1v-2z" fill="rgb(24,24,24)"/>
<path d="M13 59h3v1h1v2h1v2h1v1h-1v2h-1v1h-2v-2h1v-1h1v-2h-1v-1h-1v-1h-2v-2z" fill="rgb(32,139,172)"/>
<path d="M16 59h1v1h-1v-1z" fill="rgb(24,24,24)"/>
<path d="M18 59h1v1h-1v-1z" fill="rgb(24,24,24)"/>
<path d="M26 59h1v2h-1v-2z" fill="rgb(24,24,24)"/>
<path d="M27 59h1v1h-1v-1z" fill="rgb(189,49,98)"/>
<path d="M28 59h1v1h-1v-1z" fill="rgb(106,24,32)"/>
<path d="M29 59h1v2h-1v-2z" fill="rgb(238,98,65)"/>
<path d="M43 59h1v2h-1v-2z" fill="rgb(24,24,24)"/>
<path d="M50 59h2v3h-2v-1h-1v-1h1v-1z" fill="rgb(246,246,246)"/>
<path d="M52 59h1v1h-1v-1z" fill="rgb(115,123,123)"/>
<path d="M53 59h1v1h-1v-1z" fill="rgb(24,24,24)"/>
<path d="M66 59h1v1h-1v-1z" fill="rgb(24,24,24)"/>
<path d="M74 59h1v1h-1v-1z" fill="rgb(24,65,115)"/>
<path d="M7 60h1v1h-1v-1z" fill="rgb(115,123,123)"/>
<path d="M8 60h1v1h-1v-1z" fill="rgb(213,222,246)"/>
<path d="M9 60h3v1h-3v-1z" fill="rgb(24,65,115)"/>
<path d="M17 60h1v1h-1v-1z" fill="rgb(24,24,24)"/>
<path d="M18 60h1v1h-1v-1z" fill="rgb(24,65,115)"/>
<path d="M19 60h1v1h-1v-1z" fill="rgb(24,24,24)"/>
<path d="M22 60h2v2h-1v1h-2v-1h-1v-1h2v-1z" fill="rgb(24,98,148)"/>
<path d="M24 60h1v1h-1v-1z" fill="rgb(24,65,115)"/>
<path d="M27 60h1v1h-1v-1z" fill="rgb(238,98,65)"/>
<path d="M28 60h1v1h-1v-1z" fill="rgb(24,24,24)"/>
<path d="M30 60h2v1h-2v-1z" fill="rgb(32,139,172)"/>
<path d="M36 60h1v2h-1v-2z" fill="rgb(24,98,148)"/>
<path d="M45 60h3v1h-3v-1z" fill="rgb(24,24,24)"/>
<path d="M52 60h1v3h-3v-1h2v-2z" fill="rgb(24,24,24)"/>
<path d="M54 60h2v1h-2v-1z" fill="rgb(90,65,32)"/>
<path d="M65 60h1v2h-2v-1h1v-1z" fill="rgb(24,24,24)"/>
<path d="M73 60h1v1h-1v-1z" fill="rgb(24,24,24)"/>
<path d="M8 61h1v1h-1v-1z" fill="rgb(115,123,123)"/>
<path d="M9 61h4v1h1v1h2v2h-1v1h-1v1h-1v-1h-1v-1h-1v-2h-1v-1h-1v-1z" fill="rgb(213,222,246)"/>
<path d="M13 61h1v1h-1v-1z" fill="rgb(24,65,115)"/>
<path d="M14 61h1v1h-1v-1z" fill="rgb(24,24,24)"/>
<path d="M17 61h1v1h-1v-1z" fill="rgb(24,98,148)"/>
<path d="M18 61h1v2h-1v-2z" fill="rgb(213,222,246)"/>
<path d="M19 61h1v1h-1v-1z" fill="rgb(24,65,115)"/>
<path d="M24 61h2v1h-2v-1z" fill="rgb(24,24,24)"/>
<path d="M27 61h1v1h-1v-1z" fill="rgb(24,98,148)"/>
<path d="M28 61h2v1h-2v-1z" fill="rgb(24,65,115)"/>
<path d="M41 61h2v1h-2v-1z" fill="rgb(24,24,24)"/>
<path d="M44 61h1v1h-1v-1z" fill="rgb(24,24,24)"/>
<path d="M48 61h1v1h-1v-1z" fill="rgb(24,24,24)"/>
<path d="M49 61h1v1h-1v-1z" fill="rgb(115,123,123)"/>
<path d="M56 61h2v1h-2v-1z" fill="rgb(90,65,32)"/>
<path d="M63 61h1v1h-1v-1z" fill="rgb(90,65,32)"/>
<path d="M71 61h2v1h-2v-1z" fill="rgb(24,24,24)"/>
<path d="M9 62h1v1h-1v-1z" fill="rgb(115,123,123)"/>
<path d="M14 62h1v1h-1v-1z" fill="rgb(24,65,115)"/>
<path d="M15 62h1v1h-1v-1z" fill="rgb(24,24,24)"/>
<path d="M19 62h1v1h-1v-1z" fill="rgb(189,49,98)"/>
<path d="M20 62h1v1h2v1h-3v-2z" fill="rgb(24,24,24)"/>
<path d="M23 62h1v1h-1v-1z" fill="rgb(24,24,24)"/>
<path d="M24 62h2v1h-1v1h-1v-2z" fill="rgb(123,213,238)"/>
<path d="M35 62h1v3h-1v-3z" fill="rgb(24,98,148)"/>
<path d="M40 62h1v2h-1v-2z" fill="rgb(24,24,24)"/>
<path d="M58 62h5v1h-5v-1z" fill="rgb(90,65,32)"/>
<path d="M66 62h4v1h-4v-1z" fill="rgb(90,65,32)"/>
<path d="M70 62h1v1h-1v-1z" fill="rgb(24,24,24)"/>
<path d="M10 63h1v2h-1v-2z" fill="rgb(115,123,123)"/>
<path d="M16 63h1v2h-1v-2z" fill="rgb(24,65,115)"/>
<path d="M18 63h2v1h-2v-1z" fill="rgb(24,98,148)"/>
<path d="M23 63h1v1h1v1h-1v1h-2v-1h1v-2z" fill="rgb(65,180,238)"/>
<path d="M25 63h1v2h-1v-2z" fill="rgb(24,98,148)"/>
<path d="M26 63h1v1h-1v-1z" fill="rgb(32,139,172)"/>
<path d="M28 63h3v1h-3v-1z" fill="rgb(90,65,32)"/>
<path d="M41 63h2v1h-2v-1z" fill="rgb(24,98,148)"/>
<path d="M19 64h1v1h-1v-1z" fill="rgb(24,65,115)"/>
<path d="M20 64h1v1h-1v-1z" fill="rgb(123,213,238)"/>
<path d="M21 64h1v1h-1v-1z" fill="rgb(65,180,238)"/>
<path d="M22 64h1v1h-1v-1z" fill="rgb(32,139,172)"/>
<path d="M26 64h2v1h-2v-1z" fill="rgb(90,65,32)"/>
<path d="M28 64h3v1h1v1h1v1h1v1h2v1h2v1h1v7h-2v-1h1v-5h-1v-1h-2v-1h-2v-1h-1v-1h-1v-1h-2
	v-1h-1v-1z" fill="rgb(205,180,123)"/>
<path d="M31 64h1v1h-1v-1z" fill="rgb(90,65,32)"/>
<path d="M39 64h1v1h2v1h-2v1h-1v-3z" fill="rgb(24,24,24)"/>
<path d="M40 64h3v1h1v1h1v2h-1v-1h-1v-1h-1v-1h-2v-1z" fill="rgb(32,139,172)"/>
<path d="M43 64h1v1h-1v-1z" fill="rgb(24,24,24)"/>
<path d="M11 65h1v2h-1v-2z" fill="rgb(24,24,24)"/>
<path d="M15 65h1v1h-1v-1z" fill="rgb(24,65,115)"/>
<path d="M18 65h1v1h-1v-1z" fill="rgb(24,98,148)"/>
<path d="M19 65h1v1h-1v-1z" fill="rgb(90,65,32)"/>
<path d="M20 65h1v1h-1v-1z" fill="rgb(24,65,115)"/>
<path d="M21 65h1v1h-1v-1z" fill="rgb(32,139,172)"/>
<path d="M24 65h2v1h-2v-1z" fill="rgb(90,65,32)"/>
<path d="M26 65h3v1h-2v1h-3v-1h2v-1z" fill="rgb(246,230,172)"/>
<path d="M32 65h1v1h-1v-1z" fill="rgb(24,24,24)"/>
<path d="M36 65h1v2h-1v-2z" fill="rgb(24,98,148)"/>
<path d="M44 65h1v1h-1v-1z" fill="rgb(24,24,24)"/>
<path d="M12 66h1v1h1v2h-2v-3z" fill="rgb(246,246,246)"/>
<path d="M14 66h1v2h-1v-2z" fill="rgb(24,65,115)"/>
<path d="M18 66h1v1h-1v-1z" fill="rgb(90,65,32)"/>
<path d="M19 66h2v1h-2v-1z" fill="rgb(246,230,172)"/>
<path d="M21 66h3v1h-3v-1z" fill="rgb(90,65,32)"/>
<path d="M27 66h4v1h-4v-1z" fill="rgb(90,65,32)"/>
<path d="M33 66h2v2h-1v-1h-1v-1z" fill="rgb(90,65,32)"/>
<path d="M42 66h1v1h-1v-1z" fill="rgb(24,24,24)"/>
<path d="M45 66h1v2h-1v-2z" fill="rgb(24,98,148)"/>
<path d="M11 67h1v2h-1v-2z" fill="rgb(115,123,123)"/>
<path d="M17 67h1v1h-1v-1z" fill="rgb(90,65,32)"/>
<path d="M18 67h1v1h-1v-1z" fill="rgb(205,180,123)"/>
<path d="M19 67h2v1h-2v-1z" fill="rgb(90,65,32)"/>
<path d="M21 67h3v1h-3v-1z" fill="rgb(246,230,172)"/>
<path d="M24 67h1v1h-1v-1z" fill="rgb(205,180,123)"/>
<path d="M25 67h3v1h-3v-1z" fill="rgb(24,24,24)"/>
<path d="M28 67h1v1h-1v-1z" fill="rgb(213,222,246)"/>
<path d="M29 67h1v2h-1v-2z" fill="rgb(246,246,246)"/>
<path d="M30 67h1v1h1v1h3v1h2v1h1v3h-1v-2h-1v-1h-3v1h-2v1h-1v1h-1v-2h1v-5z" fill="rgb(24,24,24)"/>
<path d="M31 67h1v1h-1v-1z" fill="rgb(90,65,32)"/>
<path d="M35 67h1v1h-1v-1z" fill="rgb(24,24,24)"/>
<path d="M36 67h1v1h-1v-1z" fill="rgb(32,139,172)"/>
<path d="M37 67h1v2h-1v-2z" fill="rgb(24,98,148)"/>
<path d="M40 67h1v2h-1v-2z" fill="rgb(24,24,24)"/>
<path d="M43 67h1v1h-1v-1z" fill="rgb(24,24,24)"/>
<path d="M14 68h1v1h-1v-1z" fill="rgb(115,123,123)"/>
<path d="M15 68h3v1h-3v-1z" fill="rgb(24,65,115)"/>
<path d="M18 68h1v1h-1v-1z" fill="rgb(90,65,32)"/>
<path d="M19 68h1v1h-1v-1z" fill="rgb(115,123,123)"/>
<path d="M20 68h1v2h-1v-2z" fill="rgb(213,222,246)"/>
<path d="M21 68h3v1h-3v-1z" fill="rgb(90,65,32)"/>
<path d="M24 68h4v1h1v1h1v2h-1v2h-1v1h-1v-2h-1v-1h-2v-1h-1v-2h1v-1z" fill="rgb(106,24,32)"/>
<path d="M28 68h1v1h-1v-1z" fill="rgb(115,123,123)"/>
<path d="M32 68h1v1h-1v-1z" fill="rgb(90,65,32)"/>
<path d="M36 68h1v1h-1v-1z" fill="rgb(24,24,24)"/>
<path d="M44 68h1v1h-1v-1z" fill="rgb(24,98,148)"/>
<path d="M45 68h1v2h-1v-2z" fill="rgb(32,139,172)"/>
<path d="M46 68h1v2h-1v-2z" fill="rgb(24,98,148)"/>
<path d="M12 69h2v1h-2v-1z" fill="rgb(115,123,123)"/>
<path d="M18 69h1v1h-1v-1z" fill="rgb(24,65,115)"/>
<path d="M19 69h1v1h-1v-1z" fill="rgb(90,65,32)"/>
<path d="M21 69h1v2h-1v-2z" fill="rgb(246,246,246)"/>
<path d="M22 69h1v2h-1v-2z" fill="rgb(24,24,24)"/>
<path d="M29 69h1v1h-1v-1z" fill="rgb(115,123,123)"/>
<path d="M38 69h1v1h-1v-1z" fill="rgb(24,98,148)"/>
<path d="M41 69h1v2h-1v-2z" fill="rgb(24,24,24)"/>
<path d="M44 69h1v1h-1v-1z" fill="rgb(24,24,24)"/>
<path d="M19 70h1v1h-1v-1z" fill="rgb(24,24,24)"/>
<path d="M20 70h1v1h-1v-1z" fill="rgb(115,123,123)"/>
<path d="M39 70h1v2h-1v-2z" fill="rgb(24,98,148)"/>
<path d="M45 70h1v1h-1v-1z" fill="rgb(24,98,148)"/>
<path d="M46 70h1v4h-1v-4z" fill="rgb(32,139,172)"/>
<path d="M47 70h1v1h-1v-1z" fill="rgb(24,98,148)"/>
<path d="M20 71h1v1h-1v-1z" fill="rgb(24,24,24)"/>
<path d="M21 71h1v1h-1v-1z" fill="rgb(115,123,123)"/>
<path d="M22 71h1v1h-1v-1z" fill="rgb(90,65,32)"/>
<path d="M23 71h1v1h-1v-1z" fill="rgb(24,24,24)"/>
<path d="M33 71h2v1h-2v-1z" fill="rgb(189,49,98)"/>
<path d="M35 71h1v1h-1v-1z" fill="rgb(106,24,32)"/>
<path d="M40 71h1v1h-1v-1z" fill="rgb(24,24,24)"/>
<path d="M45 71h1v2h-1v-2z" fill="rgb(24,24,24)"/>
<path d="M47 71h1v3h-1v-3z" fill="rgb(24,24,24)"/>
<path d="M21 72h2v1h-2v-1z" fill="rgb(24,24,24)"/>
<path d="M23 72h2v1h-2v-1z" fill="rgb(205,180,123)"/>
<path d="M25 72h1v1h-1v-1z" fill="rgb(24,24,24)"/>
<path d="M31 72h1v1h-1v-1z" fill="rgb(189,49,98)"/>
<path d="M32 72h3v1h1v4h-1v1h-2v1h-3v-2h-1v-2h1v-2h2v-1z" fill="rgb(238,98,65)"/>
<path d="M35 72h1v1h-1v-1z" fill="rgb(189,49,98)"/>
<path d="M36 72h1v1h-1v-1z" fill="rgb(106,24,32)"/>
<path d="M39 72h1v5h-1v-5z" fill="rgb(24,24,24)"/>
<path d="M22 73h1v1h-1v-1z" fill="rgb(24,98,148)"/>
<path d="M23 73h2v1h-2v-1z" fill="rgb(24,24,24)"/>
<path d="M25 73h1v1h-1v-1z" fill="rgb(205,180,123)"/>
<path d="M26 73h1v1h-1v-1z" fill="rgb(24,24,24)"/>
<path d="M36 73h1v3h-1v-3z" fill="rgb(189,49,98)"/>
<path d="M45 73h1v1h-1v-1z" fill="rgb(24,98,148)"/>
<path d="M21 74h1v4h-1v-4z" fill="rgb(24,98,148)"/>
<path d="M22 74h2v1h-1v3h-1v-4z" fill="rgb(32,139,172)"/>
<path d="M24 74h1v1h-1v-1z" fill="rgb(24,98,148)"/>
<path d="M25 74h1v1h-1v-1z" fill="rgb(24,24,24)"/>
<path d="M26 74h1v1h-1v-1z" fill="rgb(205,180,123)"/>
<path d="M28 74h1v1h-1v-1z" fill="rgb(24,24,24)"/>
<path d="M29 74h1v1h-1v-1z" fill="rgb(189,49,98)"/>
<path d="M37 74h1v2h-1v-2z" fill="rgb(90,65,32)"/>
<path d="M44 74h1v1h-1v-1z" fill="rgb(24,98,148)"/>
<path d="M45 74h1v2h-1v-2z" fill="rgb(32,139,172)"/>
<path d="M46 74h1v5h-1v-5z" fill="rgb(24,98,148)"/>
<path d="M23 75h1v3h-1v-3z" fill="rgb(24,98,148)"/>
<path d="M26 75h1v2h-1v-2z" fill="rgb(24,24,24)"/>
<path d="M27 75h1v2h-1v-2z" fill="rgb(205,180,123)"/>
<path d="M28 75h1v1h-1v-1z" fill="rgb(106,24,32)"/>
<path d="M44 75h1v4h-1v-4z" fill="rgb(24,24,24)"/>
<path d="M28 76h1v1h-1v-1z" fill="rgb(189,49,98)"/>
<path d="M36 76h1v5h-2v-2h1v-3z" fill="rgb(90,65,32)"/>
<path d="M45 76h1v3h1v2h1v1h1v1h3v1h-4v-1h-1v-1h-1v-2h-1v-4z" fill="rgb(123,213,238)"/>
<path d="M27 77h1v3h-1v-3z" fill="rgb(24,24,24)"/>
<path d="M28 77h1v2h-1v-2z" fill="rgb(106,24,32)"/>
<path d="M29 77h1v2h-1v-2z" fill="rgb(189,49,98)"/>
<path d="M35 77h1v1h-1v-1z" fill="rgb(189,49,98)"/>
<path d="M37 77h1v4h-1v-4z" fill="rgb(246,230,172)"/>
<path d="M38 77h1v1h-1v-1z" fill="rgb(90,65,32)"/>
<path d="M22 78h1v3h-1v-3z" fill="rgb(24,98,148)"/>
<path d="M23 78h1v3h-1v-3z" fill="rgb(32,139,172)"/>
<path d="M24 78h1v3h-1v-3z" fill="rgb(24,98,148)"/>
<path d="M33 78h2v1h-2v-1z" fill="rgb(90,65,32)"/>
<path d="M35 78h1v1h-1v-1z" fill="rgb(106,24,32)"/>
<path d="M38 78h1v4h-1v-4z" fill="rgb(24,24,24)"/>
<path d="M28 79h1v1h-1v-1z" fill="rgb(205,180,123)"/>
<path d="M29 79h2v2h2v1h-1v1h-3v-1h1v-1h-1v-2z" fill="rgb(106,24,32)"/>
<path d="M31 79h1v1h1v1h-2v-2z" fill="rgb(189,49,98)"/>
<path d="M32 79h1v1h-1v-1z" fill="rgb(106,24,32)"/>
<path d="M33 79h1v1h-1v-1z" fill="rgb(246,246,246)"/>
<path d="M34 79h1v2h-1v-2z" fill="rgb(213,222,246)"/>
<path d="M44 79h1v1h-1v-1z" fill="rgb(24,98,148)"/>
<path d="M47 79h1v2h-1v-2z" fill="rgb(24,98,148)"/>
<path d="M27 80h2v1h-1v1h-1v-2z" fill="rgb(115,123,123)"/>
<path d="M33 80h1v1h-1v-1z" fill="rgb(106,24,32)"/>
<path d="M45 80h1v2h-1v-2z" fill="rgb(24,98,148)"/>
<path d="M53 80h2v1h-2v-1z" fill="rgb(24,98,148)"/>
<path d="M21 81h1v2h-1v-2z" fill="rgb(24,98,148)"/>
<path d="M22 81h1v3h-1v-3z" fill="rgb(32,139,172)"/>
<path d="M23 81h1v3h-1v-3z" fill="rgb(24,98,148)"/>
<path d="M26 81h1v2h-1v-2z" fill="rgb(24,24,24)"/>
<path d="M28 81h2v1h-2v-1z" fill="rgb(246,246,246)"/>
<path d="M33 81h1v1h-1v-1z" fill="rgb(90,65,32)"/>
<path d="M34 81h1v1h-1v-1z" fill="rgb(106,24,32)"/>
<path d="M35 81h2v1h-1v1h-3v-1h2v-1z" fill="rgb(246,230,172)"/>
<path d="M37 81h1v1h-1v-1z" fill="rgb(205,180,123)"/>
<path d="M48 81h1v1h-1v-1z" fill="rgb(24,98,148)"/>
<path d="M52 81h1v1h-1v-1z" fill="rgb(24,98,148)"/>
<path d="M53 81h1v2h-2v-1h1v-1z" fill="rgb(123,213,238)"/>
<path d="M54 81h1v2h-1v-2z" fill="rgb(24,24,24)"/>
<path d="M17 82h2v1h-1v1h-1v-2z" fill="rgb(24,98,148)"/>
<path d="M27 82h1v1h-1v-1z" fill="rgb(246,230,172)"/>
<path d="M28 82h1v1h-1v-1z" fill="rgb(115,123,123)"/>
<path d="M32 82h1v1h-1v-1z" fill="rgb(205,180,123)"/>
<path d="M36 82h1v1h-1v-1z" fill="rgb(205,180,123)"/>
<path d="M37 82h1v1h-1v-1z" fill="rgb(24,24,24)"/>
<path d="M46 82h1v1h-1v-1z" fill="rgb(24,24,24)"/>
<path d="M49 82h3v1h-3v-1z" fill="rgb(24,98,148)"/>
<path d="M18 83h1v1h-1v-1z" fill="rgb(65,180,238)"/>
<path d="M19 83h2v1h-2v-1z" fill="rgb(24,98,148)"/>
<path d="M21 83h1v2h-3v-1h2v-1z" fill="rgb(65,180,238)"/>
<path d="M27 83h1v1h-1v-1z" fill="rgb(24,24,24)"/>
<path d="M28 83h5v1h-5v-1z" fill="rgb(246,230,172)"/>
<path d="M33 83h2v1h-2v-1z" fill="rgb(24,24,24)"/>
<path d="M35 83h1v1h-1v-1z" fill="rgb(90,65,32)"/>
<path d="M36 83h1v1h-1v-1z" fill="rgb(24,24,24)"/>
<path d="M47 83h1v1h-1v-1z" fill="rgb(24,24,24)"/>
<path d="M52 83h2v1h-2v-1z" fill="rgb(24,24,24)"/>
<path d="M18 84h1v1h-1v-1z" fill="rgb(24,98,148)"/>
<path d="M22 84h1v1h-1v-1z" fill="rgb(24,98,148)"/>
<path d="M28 84h5v1h-5v-1z" fill="rgb(24,24,24)"/>
<path d="M48 84h4v1h-4v-1z" fill="rgb(24,24,24)"/>
<path d="M19 85h3v1h-3v-1z" fill="rgb(24,98,148)"/>
</svg>
