<?xml version="1.0" encoding="utf-8"?>
<!-- generated at drububu.com  -->
<!DOCTYPE svg PUBLIC "-//W3C//DTD SVG 1.1//EN" "http://www.w3.org/Graphics/SVG/1.1/DTD/svg11.dtd">
<svg version="1.1" preserveAspectRatio="xMinYMin meet" xmlns="http://www.w3.org/2000/svg" xmlns:xlink="http://www.w3.org/1999/xlink" x="0px" y="0px" width="96px" height="96px" viewBox="0 0 96 96">
<path d="M0 0h96v96h-96v-96z" fill="transparent"/>
<path d="M30 15h1v1h-1v-1z" fill="rgb(24,65,82)"/>
<path d="M31 15h3v1h-3v-1z" fill="rgb(0,0,0)"/>
<path d="M29 16h1v1h-1v-1z" fill="rgb(24,65,82)"/>
<path d="M30 16h4v1h-1v1h-2v1h-2v-2h1v-1z" fill="rgb(65,164,230)"/>
<path d="M34 16h1v1h-1v-1z" fill="rgb(0,0,0)"/>
<path d="M42 16h4v1h-4v-1z" fill="rgb(0,0,0)"/>
<path d="M28 17h1v2h-1v-2z" fill="rgb(24,65,82)"/>
<path d="M33 17h2v2h-3v1h-2v1h-1v1h-1v-2h1v-1h2v-1h2v-1z" fill="rgb(57,123,164)"/>
<path d="M35 17h1v2h3v2h-1v-1h-6v-1h3v-2z" fill="rgb(0,0,0)"/>
<path d="M40 17h2v1h-2v-1z" fill="rgb(0,0,0)"/>
<path d="M42 17h2v1h1v1h-1v1h-3v-1h-1v-1h2v-1z" fill="rgb(115,197,246)"/>
<path d="M44 17h1v1h-1v-1z" fill="rgb(65,164,230)"/>
<path d="M45 17h1v1h-1v-1z" fill="rgb(57,123,164)"/>
<path d="M46 17h2v1h-2v-1z" fill="rgb(0,0,0)"/>
<path d="M39 18h1v1h-1v-1z" fill="rgb(0,0,0)"/>
<path d="M45 18h2v1h-1v1h-1v-2z" fill="rgb(65,164,230)"/>
<path d="M47 18h1v2h1v3h-1v2h-2v1h-3v-1h-1v-3h1v-1h2v-1h1v-1h1v-1z" fill="rgb(57,123,164)"/>
<path d="M48 18h1v2h-1v-2z" fill="rgb(0,0,0)"/>
<path d="M27 19h1v3h-1v-3z" fill="rgb(24,65,82)"/>
<path d="M28 19h1v1h-1v-1z" fill="rgb(65,164,230)"/>
<path d="M39 19h2v1h2v1h-1v1h-1v2h-1v1h-1v1h-7v1h-1v3h1v1h-2v1h-5v-1h-1v-1h1v-3h3v-1h-1
	v-1h-1v-1h-1v-1h1v-1h1v1h1v1h6v-1h1v-2h-1v-1h4v2h1v-3z" fill="rgb(65,164,230)"/>
<path d="M44 19h1v1h-1v-1z" fill="rgb(57,123,164)"/>
<path d="M30 20h2v1h-2v-1z" fill="rgb(0,0,0)"/>
<path d="M32 20h2v1h1v2h-1v1h-4v-1h-1v-1h1v-1h2v-1z" fill="rgb(115,197,246)"/>
<path d="M43 20h2v1h-2v-1z" fill="rgb(0,0,0)"/>
<path d="M49 20h1v3h-1v-3z" fill="rgb(0,0,0)"/>
<path d="M25 21h2v1h-2v-1z" fill="rgb(0,0,0)"/>
<path d="M29 21h1v1h-1v-1z" fill="rgb(0,0,0)"/>
<path d="M38 21h1v1h-1v-1z" fill="rgb(24,65,82)"/>
<path d="M42 21h1v1h-1v-1z" fill="rgb(0,0,0)"/>
<path d="M45 21h1v1h-1v-1z" fill="rgb(0,0,0)"/>
<path d="M24 22h1v2h-1v-2z" fill="rgb(0,0,0)"/>
<path d="M25 22h1v1h-1v-1z" fill="rgb(115,197,246)"/>
<path d="M27 22h2v1h-2v-1z" fill="rgb(0,0,0)"/>
<path d="M41 22h1v3h-1v-3z" fill="rgb(0,0,0)"/>
<path d="M28 23h2v1h-2v-1z" fill="rgb(57,123,164)"/>
<path d="M48 23h1v2h-1v-2z" fill="rgb(0,0,0)"/>
<path d="M25 24h1v3h-1v-3z" fill="rgb(0,0,0)"/>
<path d="M40 24h1v1h1v1h1v1h1v5h-1v3h-1v6h-1v6h1v4h1v2h1v1h1v-1h1v2h1v2h1v3h1v2h1v2h1v1
	h1v1h-1v1h-2v1h-5v-1h-2v-1h-2v-1h-1v-1h-1v-1h-1v-4h-1v-7h1v-5h1v-4h1v-3h1v-4h1
	v-4h-1v-1h-2v1h-1v1h-1v1h-2v1h-5v1h-2v1h-2v-2h-1v-4h1v1h5v-1h6v-1h1v-1h1v-3h1
	v-1h1v-1z" fill="rgb(57,123,164)"/>
<path d="M26 25h1v1h1v1h-2v-2z" fill="rgb(57,123,164)"/>
<path d="M28 25h1v1h-1v-1z" fill="rgb(57,123,164)"/>
<path d="M42 25h1v1h-1v-1z" fill="rgb(0,0,0)"/>
<path d="M46 25h2v1h-2v-1z" fill="rgb(0,0,0)"/>
<path d="M32 26h1v1h-1v-1z" fill="rgb(57,123,164)"/>
<path d="M33 26h2v1h-1v1h-1v2h-1v-3h1v-1z" fill="rgb(115,197,246)"/>
<path d="M35 26h2v1h-2v-1z" fill="rgb(0,0,0)"/>
<path d="M37 26h1v1h-1v-1z" fill="rgb(24,65,82)"/>
<path d="M43 26h3v1h-1v5h-1v-5h-1v-1z" fill="rgb(0,0,0)"/>
<path d="M24 27h1v3h-1v-3z" fill="rgb(24,65,82)"/>
<path d="M31 27h1v3h-1v-3z" fill="rgb(57,123,164)"/>
<path d="M34 27h1v1h-1v-1z" fill="rgb(0,0,0)"/>
<path d="M35 27h3v2h-1v1h-1v-2h-1v-1z" fill="rgb(246,238,230)"/>
<path d="M33 28h1v2h1v1h-3v-1h1v-2z" fill="rgb(0,0,0)"/>
<path d="M34 28h1v1h-1v-1z" fill="rgb(246,238,230)"/>
<path d="M35 28h1v1h-1v-1z" fill="rgb(106,82,24)"/>
<path d="M41 28h1v1h1v2h-1v-1h-1v-2z" fill="rgb(24,65,82)"/>
<path d="M34 29h1v1h-1v-1z" fill="rgb(106,82,24)"/>
<path d="M35 29h1v1h-1v-1z" fill="rgb(0,0,0)"/>
<path d="M23 30h1v1h-1v-1z" fill="rgb(24,65,82)"/>
<path d="M35 30h1v1h-1v-1z" fill="rgb(24,65,82)"/>
<path d="M23 31h1v4h-1v-4z" fill="rgb(0,0,0)"/>
<path d="M38 31h1v1h-1v-1z" fill="rgb(0,0,0)"/>
<path d="M39 31h1v2h1v2h-1v3h-1v3h-1v4h-1v5h-1v9h-1v-1h-1v-1h-4v1h-1v-4h1v-3h1v-3h1v-3h1
	v-4h1v-3h2v-1h-7v-1h5v-1h2v-1h1v-1h1v-1h1v-1z" fill="rgb(222,197,131)"/>
<path d="M37 32h1v1h-1v-1z" fill="rgb(0,0,0)"/>
<path d="M40 32h1v1h-1v-1z" fill="rgb(139,164,148)"/>
<path d="M43 32h1v3h-1v-3z" fill="rgb(0,0,0)"/>
<path d="M36 33h1v1h-1v-1z" fill="rgb(24,65,82)"/>
<path d="M26 34h1v1h-1v-1z" fill="rgb(24,65,82)"/>
<path d="M34 34h2v1h-2v-1z" fill="rgb(0,0,0)"/>
<path d="M24 35h1v2h-1v-2z" fill="rgb(0,0,0)"/>
<path d="M29 35h2v1h-2v-1z" fill="rgb(24,65,82)"/>
<path d="M31 35h3v1h-3v-1z" fill="rgb(0,0,0)"/>
<path d="M38 35h1v1h-1v-1z" fill="rgb(90,74,65)"/>
<path d="M40 35h1v1h-1v-1z" fill="rgb(139,164,148)"/>
<path d="M42 35h1v6h-1v-6z" fill="rgb(0,0,0)"/>
<path d="M27 36h2v1h-2v-1z" fill="rgb(24,65,82)"/>
<path d="M36 36h2v1h-2v-1z" fill="rgb(90,74,65)"/>
<path d="M25 37h2v1h-2v-1z" fill="rgb(0,0,0)"/>
<path d="M28 37h6v4h-1v-3h-5v-1z" fill="rgb(0,0,0)"/>
<path d="M34 37h2v1h-2v-1z" fill="rgb(90,74,65)"/>
<path d="M39 38h1v2h-1v-2z" fill="rgb(139,164,148)"/>
<path d="M47 40h3v1h-3v-1z" fill="rgb(82,82,106)"/>
<path d="M32 41h1v4h-1v-4z" fill="rgb(0,0,0)"/>
<path d="M38 41h1v2h-1v-2z" fill="rgb(139,164,148)"/>
<path d="M41 41h1v6h-1v-6z" fill="rgb(0,0,0)"/>
<path d="M46 41h1v3h-1v-3z" fill="rgb(0,0,0)"/>
<path d="M47 41h2v1h-2v-1z" fill="rgb(246,238,230)"/>
<path d="M49 41h1v1h-1v-1z" fill="rgb(213,205,197)"/>
<path d="M50 41h1v3h-1v-3z" fill="rgb(0,0,0)"/>
<path d="M47 42h3v2h1v3h1v1h-1v1h-2v-1h-1v-2h1v-2h-1v-1h-1v-1z" fill="rgb(164,148,148)"/>
<path d="M47 43h1v1h1v2h-1v2h1v1h2v-1h2v1h-1v2h-1v1h1v1h1v1h2v-1h1v-1h1v-1h-1v-2h-1v-1h2
	v-1h1v-1h1v1h1v1h-2v1h1v1h3v1h1v3h-1v1h-1v1h-1v-2h-1v-1h-2v1h-1v1h-1v1h1v2h-2
	v-1h-1v-1h-2v-2h-1v-2h-1v-1h-1v-1h-1v-1h-1v-1h-2v-1h2v-3h1v-1z" fill="rgb(213,205,197)"/>
<path d="M45 44h1v2h-1v-2z" fill="rgb(0,0,0)"/>
<path d="M51 44h1v1h2v1h-3v-2z" fill="rgb(0,0,0)"/>
<path d="M59 44h2v1h-2v-1z" fill="rgb(82,82,106)"/>
<path d="M31 45h1v3h-1v-3z" fill="rgb(0,0,0)"/>
<path d="M37 45h1v2h-1v-2z" fill="rgb(139,164,148)"/>
<path d="M58 45h1v1h-1v-1z" fill="rgb(82,82,106)"/>
<path d="M59 45h2v2h-1v-1h-1v-1z" fill="rgb(246,238,230)"/>
<path d="M61 45h1v1h-1v-1z" fill="rgb(82,82,106)"/>
<path d="M44 46h1v1h-1v-1z" fill="rgb(0,0,0)"/>
<path d="M45 46h1v1h-1v-1z" fill="rgb(164,148,148)"/>
<path d="M51 46h1v1h-1v-1z" fill="rgb(82,82,106)"/>
<path d="M52 46h2v1h-2v-1z" fill="rgb(164,148,148)"/>
<path d="M54 46h3v1h-3v-1z" fill="rgb(0,0,0)"/>
<path d="M57 46h1v1h-1v-1z" fill="rgb(82,82,106)"/>
<path d="M59 46h1v1h-1v-1z" fill="rgb(164,148,148)"/>
<path d="M61 46h1v1h-1v-1z" fill="rgb(213,205,197)"/>
<path d="M62 46h1v3h-1v-3z" fill="rgb(0,0,0)"/>
<path d="M42 47h1v4h-1v-4z" fill="rgb(0,0,0)"/>
<path d="M43 47h1v1h-1v-1z" fill="rgb(82,82,106)"/>
<path d="M52 47h1v1h-1v-1z" fill="rgb(82,82,106)"/>
<path d="M53 47h2v1h-2v-1z" fill="rgb(213,205,197)"/>
<path d="M55 47h2v1h-2v-1z" fill="rgb(164,148,148)"/>
<path d="M60 47h2v2h-1v1h-2v-1h-1v-1h2v-1z" fill="rgb(164,148,148)"/>
<path d="M30 48h1v3h-1v-3z" fill="rgb(0,0,0)"/>
<path d="M39 48h1v1h1v3h-1v-1h-1v-3z" fill="rgb(24,65,82)"/>
<path d="M43 48h1v1h2v1h1v1h1v1h1v2h1v2h1v3h-1v-1h-1v-2h-1v-2h-1v-1h-1v-1h-1v-1h-1v-1h-1
	v-2z" fill="rgb(213,205,197)"/>
<path d="M44 48h2v1h-2v-1z" fill="rgb(82,82,106)"/>
<path d="M53 48h2v1h-2v-1z" fill="rgb(0,0,0)"/>
<path d="M46 49h1v1h-1v-1z" fill="rgb(82,82,106)"/>
<path d="M52 49h1v1h-1v-1z" fill="rgb(0,0,0)"/>
<path d="M53 49h2v1h-1v1h-1v-2z" fill="rgb(246,238,230)"/>
<path d="M55 49h1v2h-1v-2z" fill="rgb(0,0,0)"/>
<path d="M61 49h2v1h-2v-1z" fill="rgb(82,82,106)"/>
<path d="M63 49h1v1h-1v-1z" fill="rgb(0,0,0)"/>
<path d="M36 50h1v2h-1v-2z" fill="rgb(139,164,148)"/>
<path d="M43 50h1v1h-1v-1z" fill="rgb(164,148,148)"/>
<path d="M47 50h1v1h-1v-1z" fill="rgb(82,82,106)"/>
<path d="M52 50h1v1h-1v-1z" fill="rgb(82,82,106)"/>
<path d="M54 50h1v1h1v2h-1v1h-2v-1h-1v-1h1v-1h1v-1z" fill="rgb(164,148,148)"/>
<path d="M62 50h2v1h1v1h-1v1h-1v-2h-1v-1z" fill="rgb(164,148,148)"/>
<path d="M64 50h1v1h-1v-1z" fill="rgb(0,0,0)"/>
<path d="M29 51h1v3h-1v-3z" fill="rgb(0,0,0)"/>
<path d="M43 51h1v2h-1v-2z" fill="rgb(24,65,82)"/>
<path d="M44 51h1v1h-1v-1z" fill="rgb(0,0,0)"/>
<path d="M48 51h1v1h-1v-1z" fill="rgb(82,82,106)"/>
<path d="M51 51h1v1h-1v-1z" fill="rgb(82,82,106)"/>
<path d="M52 51h1v1h-1v-1z" fill="rgb(213,205,197)"/>
<path d="M56 51h1v1h-1v-1z" fill="rgb(82,82,106)"/>
<path d="M65 51h2v1h-2v-1z" fill="rgb(0,0,0)"/>
<path d="M68 51h2v1h-2v-1z" fill="rgb(0,0,0)"/>
<path d="M44 52h1v1h-1v-1z" fill="rgb(57,123,164)"/>
<path d="M45 52h1v1h-1v-1z" fill="rgb(0,0,0)"/>
<path d="M49 52h1v2h-1v-2z" fill="rgb(82,82,106)"/>
<path d="M64 52h2v1h-2v-1z" fill="rgb(82,82,106)"/>
<path d="M66 52h1v1h-1v-1z" fill="rgb(164,148,148)"/>
<path d="M67 52h1v1h-1v-1z" fill="rgb(0,0,0)"/>
<path d="M68 52h1v2h-2v-1h1v-1z" fill="rgb(213,205,197)"/>
<path d="M69 52h1v1h-1v-1z" fill="rgb(246,238,230)"/>
<path d="M70 52h1v1h-1v-1z" fill="rgb(0,0,0)"/>
<path d="M44 53h1v1h-1v-1z" fill="rgb(24,65,82)"/>
<path d="M46 53h1v2h-1v-2z" fill="rgb(0,0,0)"/>
<path d="M57 53h2v1h-2v-1z" fill="rgb(0,0,0)"/>
<path d="M63 53h1v2h-1v-2z" fill="rgb(82,82,106)"/>
<path d="M64 53h2v1h-2v-1z" fill="rgb(246,238,230)"/>
<path d="M66 53h1v1h-1v-1z" fill="rgb(82,82,106)"/>
<path d="M69 53h1v1h1v1h-1v1h-1v-1h-1v-1h1v-1z" fill="rgb(164,148,148)"/>
<path d="M70 53h1v1h-1v-1z" fill="rgb(246,238,230)"/>
<path d="M71 53h1v2h-1v-2z" fill="rgb(0,0,0)"/>
<path d="M28 54h1v4h-1v-4z" fill="rgb(0,0,0)"/>
<path d="M47 54h1v1h-1v-1z" fill="rgb(164,148,148)"/>
<path d="M50 54h1v2h-1v-2z" fill="rgb(82,82,106)"/>
<path d="M56 54h1v1h-1v-1z" fill="rgb(82,82,106)"/>
<path d="M57 54h1v1h-1v-1z" fill="rgb(246,238,230)"/>
<path d="M58 54h1v2h-1v-2z" fill="rgb(213,205,197)"/>
<path d="M59 54h1v2h-1v-2z" fill="rgb(0,0,0)"/>
<path d="M62 54h1v1h-1v-1z" fill="rgb(164,148,148)"/>
<path d="M64 54h2v2h-1v1h-1v-1h-1v-1h1v-1z" fill="rgb(213,205,197)"/>
<path d="M66 54h1v1h-1v-1z" fill="rgb(246,238,230)"/>
<path d="M67 54h1v1h-1v-1z" fill="rgb(82,82,106)"/>
<path d="M47 55h1v2h-1v-2z" fill="rgb(0,0,0)"/>
<path d="M55 55h1v1h-1v-1z" fill="rgb(82,82,106)"/>
<path d="M56 55h2v1h1v1h-2v1h2v-1h1v-1h1v-1h1v1h2v1h1v1h2v-1h1v-1h1v1h2v3h-1v1h-2v1h-2
	v-1h-2v-1h-3v1h-1v1h-2v1h-3v-1h-1v-2h-1v-2h-1v-2h1v1h1v1h2v-3z" fill="rgb(164,148,148)"/>
<path d="M62 55h1v1h-1v-1z" fill="rgb(82,82,106)"/>
<path d="M66 55h1v2h-2v-1h1v-1z" fill="rgb(164,148,148)"/>
<path d="M67 55h1v2h-1v-2z" fill="rgb(0,0,0)"/>
<path d="M68 55h1v1h-1v-1z" fill="rgb(82,82,106)"/>
<path d="M70 55h1v2h-1v-2z" fill="rgb(0,0,0)"/>
<path d="M48 56h1v1h-1v-1z" fill="rgb(164,148,148)"/>
<path d="M51 56h1v2h-1v-2z" fill="rgb(82,82,106)"/>
<path d="M59 56h1v1h-1v-1z" fill="rgb(82,82,106)"/>
<path d="M69 56h1v1h-1v-1z" fill="rgb(82,82,106)"/>
<path d="M30 57h4v1h1v1h1v2h1v2h1v2h1v2h1v1h1v2h1v1h1v1h1v1h-1v1h-3v1h-7v-1h-2v-1h-1v-2
	h-1v-3h-1v-8h1v-2h1v-1z" fill="rgb(246,222,172)"/>
<path d="M48 57h1v3h-1v-3z" fill="rgb(0,0,0)"/>
<path d="M57 57h2v1h-2v-1z" fill="rgb(82,82,106)"/>
<path d="M65 57h2v1h-2v-1z" fill="rgb(82,82,106)"/>
<path d="M71 57h1v3h-1v-3z" fill="rgb(0,0,0)"/>
<path d="M27 58h1v10h-1v-10z" fill="rgb(0,0,0)"/>
<path d="M28 58h1v2h-1v-2z" fill="rgb(222,197,131)"/>
<path d="M40 58h2v1h1v3h-1v1h-1v-1h-1v-4z" fill="rgb(24,65,82)"/>
<path d="M49 58h1v1h1v-1h1v2h1v2h1v1h1v1h1v1h1v1h-3v-1h-2v-1h-1v-2h-1v-2h-1v-2z" fill="rgb(164,148,148)"/>
<path d="M52 58h1v2h-1v-2z" fill="rgb(82,82,106)"/>
<path d="M36 59h1v1h-1v-1z" fill="rgb(139,164,148)"/>
<path d="M36 60h1v1h-1v-1z" fill="rgb(222,197,131)"/>
<path d="M49 60h1v2h-1v-2z" fill="rgb(0,0,0)"/>
<path d="M53 60h1v2h-1v-2z" fill="rgb(82,82,106)"/>
<path d="M61 60h3v1h-3v-1z" fill="rgb(82,82,106)"/>
<path d="M70 60h1v1h-1v-1z" fill="rgb(82,82,106)"/>
<path d="M71 60h1v2h-1v1h-1v1h-2v1h-2v-1h-1v-1h-3v-1h4v1h2v-1h2v-1h1v-1z" fill="rgb(164,148,148)"/>
<path d="M72 60h1v3h-2v-1h1v-2z" fill="rgb(0,0,0)"/>
<path d="M60 61h1v1h-1v-1z" fill="rgb(82,82,106)"/>
<path d="M61 61h3v1h-2v1h-1v1h-1v1h-2v1h-1v-1h-1v-1h2v-1h2v-1h1v-1z" fill="rgb(213,205,197)"/>
<path d="M64 61h2v1h-2v-1z" fill="rgb(82,82,106)"/>
<path d="M68 61h2v1h-2v-1z" fill="rgb(82,82,106)"/>
<path d="M50 62h1v2h-1v-2z" fill="rgb(0,0,0)"/>
<path d="M54 62h1v1h-1v-1z" fill="rgb(82,82,106)"/>
<path d="M58 62h2v1h-2v-1z" fill="rgb(82,82,106)"/>
<path d="M66 62h2v1h-2v-1z" fill="rgb(82,82,106)"/>
<path d="M44 63h3v2h-2v-1h-1v-1z" fill="rgb(24,65,82)"/>
<path d="M55 63h3v1h-3v-1z" fill="rgb(82,82,106)"/>
<path d="M61 63h1v1h-1v-1z" fill="rgb(164,148,148)"/>
<path d="M62 63h3v1h-3v-1z" fill="rgb(0,0,0)"/>
<path d="M70 63h1v1h-1v-1z" fill="rgb(0,0,0)"/>
<path d="M71 63h2v1h-2v-1z" fill="rgb(57,123,164)"/>
<path d="M73 63h1v1h1v1h-3v-1h1v-1z" fill="rgb(0,0,0)"/>
<path d="M38 64h1v1h-1v-1z" fill="rgb(65,164,230)"/>
<path d="M48 64h1v1h-1v-1z" fill="rgb(24,65,82)"/>
<path d="M51 64h1v1h-1v-1z" fill="rgb(0,0,0)"/>
<path d="M60 64h1v1h-1v-1z" fill="rgb(164,148,148)"/>
<path d="M61 64h1v1h-1v-1z" fill="rgb(0,0,0)"/>
<path d="M62 64h3v1h1v1h2v-1h2v-1h1v1h4v1h3v1h2v1h2v1h2v1h-3v1h-4v1h-3v-1h-4v-1h-3v-1h-1
	v1h-2v-1h-3v-1h-7v-1h5v-1h2v-1h1v-1z" fill="rgb(57,123,164)"/>
<path d="M65 64h1v1h-1v-1z" fill="rgb(0,0,0)"/>
<path d="M68 64h2v1h-2v-1z" fill="rgb(0,0,0)"/>
<path d="M71 64h1v1h-1v-1z" fill="rgb(24,65,82)"/>
<path d="M39 65h1v1h2v1h2v1h5v-1h2v-1h2v1h1v1h-1v1h-2v1h2v-1h6v1h4v1h2v1h1v1h-1v1h-3v1
	h-5v-1h1v-1h1v-2h-1v-1h-4v1h-1v2h-2v-1h-3v-1h-2v1h-3v-1h-1v-1h-1v-2h-1v-1h-1v-2z" fill="rgb(65,164,230)"/>
<path d="M52 65h2v1h-2v-1z" fill="rgb(0,0,0)"/>
<path d="M58 65h1v1h-1v-1z" fill="rgb(164,148,148)"/>
<path d="M59 65h2v1h-2v-1z" fill="rgb(0,0,0)"/>
<path d="M66 65h2v1h-2v-1z" fill="rgb(0,0,0)"/>
<path d="M75 65h3v1h-3v-1z" fill="rgb(0,0,0)"/>
<path d="M53 66h1v1h-1v-1z" fill="rgb(57,123,164)"/>
<path d="M54 66h5v1h-5v-1z" fill="rgb(0,0,0)"/>
<path d="M78 66h2v1h-2v-1z" fill="rgb(0,0,0)"/>
<path d="M80 67h2v1h-2v-1z" fill="rgb(0,0,0)"/>
<path d="M26 68h2v1h-2v-1z" fill="rgb(24,65,82)"/>
<path d="M28 68h1v3h-1v-3z" fill="rgb(0,0,0)"/>
<path d="M53 68h1v1h-1v-1z" fill="rgb(57,123,164)"/>
<path d="M54 68h7v1h-7v-1z" fill="rgb(24,65,82)"/>
<path d="M82 68h2v1h-2v-1z" fill="rgb(0,0,0)"/>
<path d="M24 69h2v1h-2v-1z" fill="rgb(24,65,82)"/>
<path d="M26 69h2v2h-2v1h-3v-1h1v-1h2v-1z" fill="rgb(115,197,246)"/>
<path d="M51 69h2v1h-2v-1z" fill="rgb(57,123,164)"/>
<path d="M59 69h2v1h-2v-1z" fill="rgb(57,123,164)"/>
<path d="M61 69h3v1h-3v-1z" fill="rgb(24,65,82)"/>
<path d="M66 69h1v1h-1v-1z" fill="rgb(0,0,0)"/>
<path d="M84 69h1v2h-1v-2z" fill="rgb(0,0,0)"/>
<path d="M23 70h1v1h-1v-1z" fill="rgb(24,65,82)"/>
<path d="M54 70h4v1h1v2h-1v1h-3v-1h-2v-2h1v-1z" fill="rgb(115,197,246)"/>
<path d="M63 70h1v1h-1v-1z" fill="rgb(57,123,164)"/>
<path d="M64 70h2v1h-2v-1z" fill="rgb(24,65,82)"/>
<path d="M66 70h1v1h-1v-1z" fill="rgb(57,123,164)"/>
<path d="M67 70h1v1h-1v-1z" fill="rgb(0,0,0)"/>
<path d="M68 70h1v1h-1v-1z" fill="rgb(222,197,131)"/>
<path d="M69 70h1v1h-1v-1z" fill="rgb(139,164,148)"/>
<path d="M81 70h1v1h-1v-1z" fill="rgb(139,164,148)"/>
<path d="M82 70h2v1h-2v-1z" fill="rgb(222,197,131)"/>
<path d="M22 71h1v1h-1v-1z" fill="rgb(24,65,82)"/>
<path d="M26 71h3v2h-4v1h-4v-1h1v-1h4v-1z" fill="rgb(65,164,230)"/>
<path d="M29 71h1v2h-1v-2z" fill="rgb(0,0,0)"/>
<path d="M46 71h2v1h3v1h3v1h3v1h5v-1h3v-1h1v-1h2v1h1v1h1v1h1v1h2v1h1v1h-1v1h-3v1h-1v-1
	h-5v-1h-2v-1h-4v-1h-2v-1h-3v-1h-6v-1h-2v-1h1v-1z" fill="rgb(57,123,164)"/>
<path d="M65 71h1v1h-1v-1z" fill="rgb(57,123,164)"/>
<path d="M66 71h2v1h-2v-1z" fill="rgb(24,65,82)"/>
<path d="M68 71h1v1h-1v-1z" fill="rgb(0,0,0)"/>
<path d="M69 71h4v1h5v1h-7v-1h-2v-1z" fill="rgb(222,197,131)"/>
<path d="M73 71h1v1h-1v-1z" fill="rgb(139,164,148)"/>
<path d="M77 71h1v1h-1v-1z" fill="rgb(139,164,148)"/>
<path d="M78 71h4v1h-4v-1z" fill="rgb(222,197,131)"/>
<path d="M82 71h2v1h-2v-1z" fill="rgb(0,0,0)"/>
<path d="M20 72h2v1h-2v-1z" fill="rgb(24,65,82)"/>
<path d="M44 72h1v1h-1v-1z" fill="rgb(139,164,148)"/>
<path d="M68 72h1v1h-1v-1z" fill="rgb(24,65,82)"/>
<path d="M69 72h2v1h-2v-1z" fill="rgb(0,0,0)"/>
<path d="M78 72h4v1h-4v-1z" fill="rgb(0,0,0)"/>
<path d="M18 73h1v1h-1v-1z" fill="rgb(0,0,0)"/>
<path d="M19 73h1v1h-1v-1z" fill="rgb(24,65,82)"/>
<path d="M20 73h1v1h4v-1h5v1h-2v1h-2v1h-2v1h-2v-1h-3v-1h-1v-1h2v-1z" fill="rgb(57,123,164)"/>
<path d="M30 73h1v1h-1v-1z" fill="rgb(0,0,0)"/>
<path d="M43 73h3v1h6v1h3v1h2v1h4v1h2v1h6v1h-7v-1h-5v-1h-3v-1h-2v-1h-1v-1h-2v1h2v1h-2v1
	h-10v-1h-3v-1h-2v-1h6v-1h3v-1z" fill="rgb(222,197,131)"/>
<path d="M46 73h1v1h-1v-1z" fill="rgb(139,164,148)"/>
<path d="M54 73h1v1h-1v-1z" fill="rgb(65,164,230)"/>
<path d="M69 73h1v1h-1v-1z" fill="rgb(24,65,82)"/>
<path d="M70 73h1v1h-1v-1z" fill="transparent"/>
<path d="M71 73h7v1h-7v-1z" fill="rgb(0,0,0)"/>
<path d="M17 74h1v1h-1v-1z" fill="rgb(0,0,0)"/>
<path d="M28 74h1v1h-1v-1z" fill="rgb(139,164,148)"/>
<path d="M29 74h2v1h1v1h-4v1h-3v-1h2v-1h2v-1z" fill="rgb(222,197,131)"/>
<path d="M31 74h1v1h-1v-1z" fill="rgb(0,0,0)"/>
<path d="M32 74h1v1h-1v-1z" fill="rgb(222,197,131)"/>
<path d="M52 74h1v1h-1v-1z" fill="rgb(139,164,148)"/>
<path d="M70 74h1v1h-1v-1z" fill="rgb(24,65,82)"/>
<path d="M18 75h1v1h-1v-1z" fill="rgb(0,0,0)"/>
<path d="M26 75h1v1h-1v-1z" fill="rgb(139,164,148)"/>
<path d="M32 75h2v1h-2v-1z" fill="rgb(0,0,0)"/>
<path d="M49 75h2v1h-2v-1z" fill="rgb(90,74,65)"/>
<path d="M55 75h1v1h-1v-1z" fill="rgb(139,164,148)"/>
<path d="M71 75h2v1h-2v-1z" fill="rgb(24,65,82)"/>
<path d="M19 76h3v1h-3v-1z" fill="rgb(0,0,0)"/>
<path d="M24 76h1v1h-1v-1z" fill="rgb(139,164,148)"/>
<path d="M28 76h4v1h-4v-1z" fill="rgb(0,0,0)"/>
<path d="M34 76h2v1h-2v-1z" fill="rgb(0,0,0)"/>
<path d="M51 76h1v1h-1v-1z" fill="rgb(0,0,0)"/>
<path d="M57 76h1v1h-1v-1z" fill="rgb(139,164,148)"/>
<path d="M73 76h1v1h-1v-1z" fill="rgb(24,65,82)"/>
<path d="M22 77h6v1h-6v-1z" fill="rgb(0,0,0)"/>
<path d="M36 77h3v1h-3v-1z" fill="rgb(0,0,0)"/>
<path d="M49 77h2v1h-2v-1z" fill="rgb(0,0,0)"/>
<path d="M52 77h2v1h-2v-1z" fill="rgb(0,0,0)"/>
<path d="M61 77h1v1h-1v-1z" fill="rgb(139,164,148)"/>
<path d="M74 77h1v1h-1v-1z" fill="rgb(24,65,82)"/>
<path d="M39 78h10v1h-10v-1z" fill="rgb(0,0,0)"/>
<path d="M54 78h3v1h-3v-1z" fill="rgb(0,0,0)"/>
<path d="M63 78h1v1h-1v-1z" fill="rgb(139,164,148)"/>
<path d="M73 78h1v1h-1v-1z" fill="rgb(24,65,82)"/>
<path d="M57 79h5v1h-5v-1z" fill="rgb(0,0,0)"/>
<path d="M70 79h3v1h-3v-1z" fill="rgb(0,0,0)"/>
<path d="M62 80h8v1h-8v-1z" fill="rgb(0,0,0)"/>
</svg>
