<?xml version="1.0" encoding="utf-8"?>
<!-- generated at drububu.com  -->
<!DOCTYPE svg PUBLIC "-//W3C//DTD SVG 1.1//EN" "http://www.w3.org/Graphics/SVG/1.1/DTD/svg11.dtd">
<svg version="1.1" preserveAspectRatio="xMinYMin meet" xmlns="http://www.w3.org/2000/svg" xmlns:xlink="http://www.w3.org/1999/xlink" x="0px" y="0px" width="96px" height="96px" viewBox="0 0 96 96">
<path d="M0 0h96v96h-96v-96z" fill="transparent"/>
<path d="M43 33h1v1h-1v-1z" fill="rgb(156,90,180)"/>
<path d="M44 33h1v1h-1v-1z" fill="rgb(90,24,148)"/>
<path d="M45 33h2v1h-2v-1z" fill="rgb(0,0,0)"/>
<path d="M42 34h1v1h-1v-1z" fill="rgb(156,90,180)"/>
<path d="M43 34h2v1h-1v1h-1v-2z" fill="rgb(255,205,255)"/>
<path d="M45 34h1v3h-1v1h2v-1h1v-1h1v1h1v1h2v-1h1v-1h1v4h1v1h1v-1h2v1h2v1h1v3h-1v2h-2v3
	h1v1h-1v2h-1v1h-1v1h-1v-1h-1v1h-1v-1h-1v1h-1v1h-1v-1h-1v1h-1v1h-4v-1h-2v-2h-6
	v-1h-2v-1h-1v-2h1v-1h1v-2h1v-4h-1v-2h-1v-2h1v1h2v-1h1v-2h3v-1h4v-2z" fill="rgb(197,123,230)"/>
<path d="M46 34h1v1h-1v-1z" fill="rgb(180,106,205)"/>
<path d="M47 34h1v1h-1v-1z" fill="rgb(0,0,0)"/>
<path d="M50 34h1v1h-1v-1z" fill="rgb(90,24,148)"/>
<path d="M51 34h3v1h-3v-1z" fill="rgb(0,0,0)"/>
<path d="M40 35h2v1h-1v1h-4v-1h3v-1z" fill="rgb(90,24,148)"/>
<path d="M42 35h1v1h-1v-1z" fill="rgb(230,164,246)"/>
<path d="M44 35h1v1h-1v-1z" fill="rgb(230,164,246)"/>
<path d="M46 35h2v2h-2v-2z" fill="rgb(156,90,180)"/>
<path d="M48 35h2v1h-2v-1z" fill="rgb(90,24,148)"/>
<path d="M50 35h2v2h-2v-2z" fill="rgb(255,205,255)"/>
<path d="M52 35h1v2h-1v-2z" fill="rgb(230,164,246)"/>
<path d="M53 35h1v1h-1v-1z" fill="rgb(180,106,205)"/>
<path d="M54 35h1v1h-1v-1z" fill="rgb(0,0,0)"/>
<path d="M35 36h2v1h-2v-1z" fill="rgb(156,90,180)"/>
<path d="M49 36h1v1h-1v-1z" fill="rgb(230,164,246)"/>
<path d="M54 36h1v2h-1v-2z" fill="rgb(180,106,205)"/>
<path d="M55 36h1v2h-1v-2z" fill="rgb(0,0,0)"/>
<path d="M34 37h1v1h-1v-1z" fill="rgb(156,90,180)"/>
<path d="M35 37h2v2h-2v-2z" fill="rgb(255,205,255)"/>
<path d="M37 37h1v2h-1v-2z" fill="rgb(230,164,246)"/>
<path d="M45 37h2v1h-2v-1z" fill="rgb(180,106,205)"/>
<path d="M50 37h2v1h-2v-1z" fill="rgb(230,164,246)"/>
<path d="M33 38h1v1h-1v-1z" fill="rgb(156,90,180)"/>
<path d="M34 38h1v1h-1v-1z" fill="rgb(230,164,246)"/>
<path d="M54 38h2v1h1v1h-3v-2z" fill="rgb(156,90,180)"/>
<path d="M56 38h1v1h-1v-1z" fill="rgb(90,24,148)"/>
<path d="M33 39h1v1h-1v-1z" fill="rgb(90,24,148)"/>
<path d="M35 39h2v1h-2v-1z" fill="rgb(230,164,246)"/>
<path d="M57 39h1v1h-1v-1z" fill="rgb(90,24,148)"/>
<path d="M33 40h1v1h-1v-1z" fill="rgb(0,0,0)"/>
<path d="M42 40h1v1h-1v-1z" fill="rgb(0,0,0)"/>
<path d="M55 40h1v1h-1v-1z" fill="rgb(180,106,205)"/>
<path d="M58 40h2v1h-2v-1z" fill="rgb(90,24,148)"/>
<path d="M34 41h1v2h-1v-2z" fill="rgb(0,0,0)"/>
<path d="M49 41h1v1h-1v-1z" fill="rgb(0,0,0)"/>
<path d="M60 41h1v1h-1v-1z" fill="rgb(90,24,148)"/>
<path d="M41 42h1v1h-1v-1z" fill="rgb(156,90,180)"/>
<path d="M61 42h1v3h-1v-3z" fill="rgb(0,0,0)"/>
<path d="M35 43h1v3h-1v-3z" fill="rgb(0,0,0)"/>
<path d="M42 43h1v1h-1v-1z" fill="rgb(90,24,148)"/>
<path d="M43 43h1v1h-1v-1z" fill="rgb(0,0,0)"/>
<path d="M44 43h1v2h-1v-2z" fill="rgb(156,90,180)"/>
<path d="M45 44h1v1h-1v-1z" fill="rgb(90,24,148)"/>
<path d="M46 44h3v1h-3v-1z" fill="rgb(0,0,0)"/>
<path d="M49 44h1v1h-1v-1z" fill="rgb(90,24,148)"/>
<path d="M50 44h1v1h-1v-1z" fill="rgb(156,90,180)"/>
<path d="M60 45h1v1h-1v-1z" fill="rgb(156,90,180)"/>
<path d="M61 45h1v1h-1v-1z" fill="rgb(90,24,148)"/>
<path d="M35 46h1v1h-1v-1z" fill="rgb(90,24,148)"/>
<path d="M60 46h1v1h-1v-1z" fill="rgb(0,0,0)"/>
<path d="M34 47h1v2h-1v-2z" fill="rgb(90,24,148)"/>
<path d="M58 47h1v1h-1v-1z" fill="rgb(180,106,205)"/>
<path d="M59 47h2v2h1v2h1v1h1v1h1v4h-1v1h-2v1h-3v-1h-4v1h-1v1h-2v1h-9v-1h-2v-2h-4v1h-3
	v-1h-2v-2h-1v-3h1v-2h1v1h1v1h1v1h6v1h1v1h1v1h6v-1h2v1h1v-1h1v1h1v-1h1v-1h1v-1h1
	v-1h1v-1h1v-3h-1v-1h1v-1z" fill="rgb(156,90,180)"/>
<path d="M61 47h1v2h-1v-2z" fill="rgb(90,24,148)"/>
<path d="M33 49h1v1h-1v-1z" fill="rgb(0,0,0)"/>
<path d="M58 49h1v1h-1v-1z" fill="rgb(180,106,205)"/>
<path d="M62 49h1v1h-1v-1z" fill="rgb(0,0,0)"/>
<path d="M32 50h1v1h-1v-1z" fill="rgb(0,0,0)"/>
<path d="M62 50h1v1h-1v-1z" fill="rgb(90,24,148)"/>
<path d="M31 51h1v2h-1v-2z" fill="rgb(90,24,148)"/>
<path d="M58 51h1v1h-1v-1z" fill="rgb(180,106,205)"/>
<path d="M63 51h1v1h-1v-1z" fill="rgb(90,24,148)"/>
<path d="M64 52h1v1h-1v-1z" fill="rgb(0,0,0)"/>
<path d="M30 53h1v1h-1v-1z" fill="rgb(90,24,148)"/>
<path d="M35 53h1v1h-1v-1z" fill="rgb(180,106,205)"/>
<path d="M65 53h1v4h-1v-4z" fill="rgb(0,0,0)"/>
<path d="M30 54h1v2h-1v-2z" fill="rgb(0,0,0)"/>
<path d="M41 54h1v1h-1v-1z" fill="rgb(180,106,205)"/>
<path d="M52 54h1v1h-1v-1z" fill="rgb(156,90,180)"/>
<path d="M54 54h1v1h-1v-1z" fill="rgb(156,90,180)"/>
<path d="M49 55h1v1h-1v-1z" fill="rgb(180,106,205)"/>
<path d="M51 55h1v1h-1v-1z" fill="rgb(156,90,180)"/>
<path d="M52 55h1v1h-1v-1z" fill="rgb(197,123,230)"/>
<path d="M53 55h1v1h-1v-1z" fill="rgb(156,90,180)"/>
<path d="M54 55h1v1h-1v-1z" fill="rgb(197,123,230)"/>
<path d="M31 56h1v2h-1v-2z" fill="rgb(0,0,0)"/>
<path d="M43 56h1v1h-1v-1z" fill="rgb(180,106,205)"/>
<path d="M48 56h1v1h-1v-1z" fill="rgb(180,106,205)"/>
<path d="M51 56h1v1h-1v-1z" fill="rgb(197,123,230)"/>
<path d="M53 56h1v1h-1v-1z" fill="rgb(197,123,230)"/>
<path d="M64 57h1v1h-1v-1z" fill="rgb(90,24,148)"/>
<path d="M32 58h2v1h-2v-1z" fill="rgb(0,0,0)"/>
<path d="M37 58h2v1h-2v-1z" fill="rgb(0,0,0)"/>
<path d="M39 58h2v2h-1v-1h-1v-1z" fill="rgb(90,24,148)"/>
<path d="M55 58h1v1h-1v-1z" fill="rgb(90,24,148)"/>
<path d="M56 58h2v1h-2v-1z" fill="rgb(0,0,0)"/>
<path d="M58 58h1v2h-1v-2z" fill="rgb(90,24,148)"/>
<path d="M62 58h2v1h-2v-1z" fill="rgb(0,0,0)"/>
<path d="M34 59h3v1h-3v-1z" fill="rgb(0,0,0)"/>
<path d="M54 59h1v1h-1v-1z" fill="rgb(90,24,148)"/>
<path d="M59 59h2v1h-2v-1z" fill="rgb(0,0,0)"/>
<path d="M61 59h1v1h-1v-1z" fill="rgb(90,24,148)"/>
<path d="M41 60h1v1h-1v-1z" fill="rgb(90,24,148)"/>
<path d="M42 60h1v1h-1v-1z" fill="rgb(0,0,0)"/>
<path d="M52 60h2v1h-2v-1z" fill="rgb(0,0,0)"/>
<path d="M43 61h9v1h-9v-1z" fill="rgb(0,0,0)"/>
</svg>
