<?xml version="1.0" encoding="utf-8"?>
<!-- generated at drububu.com  -->
<!DOCTYPE svg PUBLIC "-//W3C//DTD SVG 1.1//EN" "http://www.w3.org/Graphics/SVG/1.1/DTD/svg11.dtd">
<svg version="1.1" preserveAspectRatio="xMinYMin meet" xmlns="http://www.w3.org/2000/svg" xmlns:xlink="http://www.w3.org/1999/xlink" x="0px" y="0px" width="96px" height="96px" viewBox="0 0 96 96">
<path d="M0 0h96v96h-96v-96z" fill="transparent"/>
<path d="M40 21h1v1h-1v-1z" fill="rgb(164,98,74)"/>
<path d="M39 22h1v1h-1v-1z" fill="rgb(115,74,74)"/>
<path d="M40 22h1v2h-1v-2z" fill="rgb(213,156,74)"/>
<path d="M41 22h1v2h-1v-2z" fill="rgb(115,74,74)"/>
<path d="M38 23h1v2h-1v-2z" fill="rgb(115,74,74)"/>
<path d="M39 23h1v3h-1v2h-1v-3h1v-2z" fill="rgb(164,98,74)"/>
<path d="M40 24h1v5h-1v-1h-1v-2h1v-2z" fill="rgb(0,0,0)"/>
<path d="M41 24h1v4h-1v-4z" fill="rgb(213,156,74)"/>
<path d="M42 24h1v1h-1v-1z" fill="rgb(115,74,74)"/>
<path d="M37 25h1v3h-1v-3z" fill="rgb(115,74,74)"/>
<path d="M42 25h1v5h-1v-5z" fill="rgb(0,0,0)"/>
<path d="M58 27h2v1h-2v-1z" fill="rgb(164,98,74)"/>
<path d="M37 28h1v1h-1v-1z" fill="rgb(82,49,32)"/>
<path d="M38 28h1v1h-1v-1z" fill="rgb(115,74,74)"/>
<path d="M39 28h1v1h1v1h-2v-2z" fill="rgb(82,49,32)"/>
<path d="M41 28h1v2h-1v-2z" fill="rgb(164,98,74)"/>
<path d="M55 28h3v1h-3v-1z" fill="rgb(164,98,74)"/>
<path d="M58 28h1v2h-4v-1h3v-1z" fill="rgb(213,156,74)"/>
<path d="M59 28h1v3h-1v-3z" fill="rgb(0,0,0)"/>
<path d="M36 29h1v4h-1v-4z" fill="rgb(82,49,32)"/>
<path d="M37 29h1v4h-1v-4z" fill="rgb(164,98,74)"/>
<path d="M38 29h1v1h1v3h-1v-2h-1v-2z" fill="rgb(0,0,0)"/>
<path d="M53 29h2v1h-2v-1z" fill="rgb(164,98,74)"/>
<path d="M40 30h1v3h-1v-3z" fill="rgb(164,98,74)"/>
<path d="M41 30h1v3h-1v-3z" fill="rgb(0,0,0)"/>
<path d="M52 30h1v1h-1v-1z" fill="rgb(164,98,74)"/>
<path d="M53 30h2v1h-2v-1z" fill="rgb(213,156,74)"/>
<path d="M55 30h1v1h-1v-1z" fill="rgb(164,98,74)"/>
<path d="M56 30h2v1h-1v2h-1v-1h-2v-1h2v-1z" fill="rgb(0,0,0)"/>
<path d="M58 30h1v1h-1v-1z" fill="rgb(164,98,74)"/>
<path d="M38 31h1v2h-1v-2z" fill="rgb(82,49,32)"/>
<path d="M50 31h1v1h-1v-1z" fill="rgb(115,74,74)"/>
<path d="M51 31h1v1h-1v-1z" fill="rgb(164,98,74)"/>
<path d="M52 31h1v1h-1v-1z" fill="rgb(213,156,74)"/>
<path d="M53 31h1v1h-1v-1z" fill="rgb(164,98,74)"/>
<path d="M57 31h1v2h-1v-2z" fill="rgb(164,98,74)"/>
<path d="M58 31h1v2h-1v-2z" fill="rgb(0,0,0)"/>
<path d="M49 32h1v1h-1v-1z" fill="rgb(115,74,74)"/>
<path d="M50 32h2v1h-1v1h-1v1h-1v-2h1v-1z" fill="rgb(213,156,74)"/>
<path d="M52 32h2v1h-1v1h-1v1h-1v2h1v1h-3v-1h-1v-1h1v-1h1v-1h1v-1h1v-1z" fill="rgb(0,0,0)"/>
<path d="M54 32h2v1h-1v3h-1v1h-3v-2h1v-1h1v-1h1v-1z" fill="rgb(82,49,32)"/>
<path d="M37 33h1v2h-1v-2z" fill="rgb(82,49,32)"/>
<path d="M38 33h1v2h-1v-2z" fill="rgb(0,0,0)"/>
<path d="M39 33h1v1h-1v-1z" fill="rgb(164,98,74)"/>
<path d="M40 33h1v2h-1v-2z" fill="rgb(0,0,0)"/>
<path d="M48 33h1v1h-1v-1z" fill="rgb(115,74,74)"/>
<path d="M55 33h1v2h-1v-2z" fill="rgb(0,0,0)"/>
<path d="M56 33h1v2h-1v-2z" fill="rgb(164,98,74)"/>
<path d="M57 33h1v2h-1v-2z" fill="rgb(0,0,0)"/>
<path d="M39 34h1v1h-1v-1z" fill="rgb(115,74,74)"/>
<path d="M42 34h1v1h-1v-1z" fill="rgb(82,49,32)"/>
<path d="M47 34h1v1h-1v-1z" fill="rgb(115,74,74)"/>
<path d="M48 34h1v1h-1v-1z" fill="rgb(164,98,74)"/>
<path d="M37 35h1v2h-1v-2z" fill="rgb(164,98,74)"/>
<path d="M38 35h1v1h-1v-1z" fill="rgb(82,49,32)"/>
<path d="M39 35h2v2h1v1h1v-1h-1v-2h1v1h1v1h1v1h1v-1h1v1h1v1h-1v3h1v2h-1v2h-1v2h-1v-4h-1
	v-1h-2v5h3v1h-2v1h-2v1h-3v-1h2v-1h-2v-1h-2v-1h1v-1h-1v-4h-1v-1h-1v-1h1v-2h1v-1
	h2v-1h1v-1z" fill="rgb(213,156,74)"/>
<path d="M41 35h1v1h-1v-1z" fill="rgb(82,49,32)"/>
<path d="M43 35h2v1h-2v-1z" fill="rgb(0,0,0)"/>
<path d="M46 35h1v2h-1v-2z" fill="rgb(115,74,74)"/>
<path d="M47 35h2v1h-1v1h-1v-2z" fill="rgb(213,156,74)"/>
<path d="M55 35h1v1h-1v-1z" fill="rgb(164,98,74)"/>
<path d="M56 35h1v1h-1v-1z" fill="rgb(0,0,0)"/>
<path d="M36 36h1v1h-1v-1z" fill="rgb(115,74,74)"/>
<path d="M39 36h1v1h-1v-1z" fill="rgb(164,98,74)"/>
<path d="M41 36h1v1h-1v-1z" fill="rgb(164,98,74)"/>
<path d="M44 36h1v1h-1v-1z" fill="rgb(164,98,74)"/>
<path d="M45 36h1v1h-1v-1z" fill="rgb(0,0,0)"/>
<path d="M54 36h1v1h-1v-1z" fill="rgb(164,98,74)"/>
<path d="M55 36h1v1h-1v-1z" fill="rgb(0,0,0)"/>
<path d="M35 37h1v1h-1v-1z" fill="rgb(115,74,74)"/>
<path d="M42 37h1v1h-1v-1z" fill="rgb(164,98,74)"/>
<path d="M45 37h1v1h-1v-1z" fill="rgb(115,74,74)"/>
<path d="M47 37h1v1h-1v-1z" fill="rgb(164,98,74)"/>
<path d="M48 37h1v1h-1v-1z" fill="rgb(213,156,74)"/>
<path d="M52 37h2v1h-2v-1z" fill="rgb(164,98,74)"/>
<path d="M54 37h1v1h-1v-1z" fill="rgb(0,0,0)"/>
<path d="M63 37h2v1h-2v-1z" fill="rgb(115,74,74)"/>
<path d="M34 38h1v2h-1v-2z" fill="rgb(115,74,74)"/>
<path d="M48 38h2v1h-2v-1z" fill="rgb(82,49,32)"/>
<path d="M50 38h2v1h-2v-1z" fill="rgb(164,98,74)"/>
<path d="M52 38h2v1h-2v-1z" fill="rgb(0,0,0)"/>
<path d="M59 38h2v1h-2v-1z" fill="rgb(115,74,74)"/>
<path d="M61 38h1v1h-1v-1z" fill="rgb(189,156,123)"/>
<path d="M62 38h2v1h-2v-1z" fill="rgb(230,197,148)"/>
<path d="M64 38h1v2h-1v-2z" fill="rgb(0,0,0)"/>
<path d="M47 39h1v1h-1v-1z" fill="rgb(82,49,32)"/>
<path d="M48 39h2v1h-2v-1z" fill="rgb(164,98,74)"/>
<path d="M50 39h1v1h-1v-1z" fill="rgb(82,49,32)"/>
<path d="M51 39h1v1h-1v-1z" fill="rgb(0,0,0)"/>
<path d="M57 39h1v1h-1v-1z" fill="rgb(115,74,74)"/>
<path d="M58 39h1v1h-1v-1z" fill="rgb(189,156,123)"/>
<path d="M59 39h3v1h-1v2h1v-2h1v2h1v2h1v2h1v1h-2v1h-1v1h-1v-2h-1v-2h-1v1h-1v-1h-1v-1h-1
	v1h-1v1h-1v-3h1v-2h1v-1h2v-1z" fill="rgb(230,197,148)"/>
<path d="M62 39h1v1h-1v-1z" fill="rgb(189,156,123)"/>
<path d="M63 39h1v1h-1v-1z" fill="rgb(164,98,74)"/>
<path d="M33 40h1v2h-1v-2z" fill="rgb(164,98,74)"/>
<path d="M47 40h1v1h1v5h-1v2h-1v2h-2v1h-4v-1h2v-1h2v-1h1v-2h1v-2h1v-2h-1v-2z" fill="rgb(164,98,74)"/>
<path d="M48 40h1v1h-1v-1z" fill="rgb(115,74,74)"/>
<path d="M49 40h1v1h-1v-1z" fill="rgb(82,49,32)"/>
<path d="M56 40h1v1h-1v-1z" fill="rgb(115,74,74)"/>
<path d="M61 40h1v2h-1v-2z" fill="rgb(189,156,123)"/>
<path d="M63 40h1v2h-1v-2z" fill="rgb(0,0,0)"/>
<path d="M34 41h1v1h-1v-1z" fill="rgb(82,49,32)"/>
<path d="M49 41h1v5h-1v-5z" fill="rgb(0,0,0)"/>
<path d="M55 41h1v1h-1v-1z" fill="rgb(115,74,74)"/>
<path d="M33 42h1v1h-1v-1z" fill="rgb(82,49,32)"/>
<path d="M34 42h1v1h-1v-1z" fill="rgb(255,255,255)"/>
<path d="M35 42h1v1h-1v-1z" fill="rgb(82,49,32)"/>
<path d="M54 42h1v1h-1v-1z" fill="rgb(115,74,74)"/>
<path d="M55 42h1v1h-1v-1z" fill="rgb(189,156,123)"/>
<path d="M64 42h1v2h-1v-2z" fill="rgb(0,0,0)"/>
<path d="M33 43h3v2h-1v-1h-1v1h-1v-2z" fill="rgb(0,0,0)"/>
<path d="M42 43h1v1h-1v-1z" fill="rgb(164,98,74)"/>
<path d="M43 43h1v1h-1v-1z" fill="rgb(82,49,32)"/>
<path d="M53 43h1v2h-1v-2z" fill="rgb(115,74,74)"/>
<path d="M54 43h1v2h-1v-2z" fill="rgb(189,156,123)"/>
<path d="M34 44h1v1h-1v-1z" fill="rgb(82,49,32)"/>
<path d="M42 44h1v1h-1v-1z" fill="rgb(82,49,32)"/>
<path d="M43 44h1v1h-1v-1z" fill="rgb(255,255,255)"/>
<path d="M44 44h1v3h-1v-1h-1v1h-1v-2h2v-1z" fill="rgb(0,0,0)"/>
<path d="M57 44h1v1h-1v-1z" fill="rgb(189,156,123)"/>
<path d="M65 44h1v2h-1v-2z" fill="rgb(0,0,0)"/>
<path d="M32 45h1v2h-1v-2z" fill="rgb(82,49,32)"/>
<path d="M33 45h1v1h2v1h-1v1h1v1h-2v-2h-1v-2z" fill="rgb(213,156,74)"/>
<path d="M34 45h1v1h-1v-1z" fill="rgb(0,0,0)"/>
<path d="M35 45h1v1h-1v-1z" fill="rgb(115,74,74)"/>
<path d="M52 45h1v2h-1v-2z" fill="rgb(115,74,74)"/>
<path d="M53 45h2v2h1v-1h1v-1h1v2h1v-1h2v2h1v2h1v-1h1v-2h1v1h1v3h-1v1h-1v1h-2v1h-5v-1h-2
	v-1h-1v-2h-1v-2h-1v-1h1v-2z" fill="rgb(164,98,74)"/>
<path d="M56 45h1v1h-1v-1z" fill="rgb(189,156,123)"/>
<path d="M58 45h1v2h-1v-2z" fill="rgb(189,156,123)"/>
<path d="M60 45h1v1h-1v-1z" fill="rgb(189,156,123)"/>
<path d="M36 46h1v1h-1v-1z" fill="rgb(82,49,32)"/>
<path d="M43 46h1v1h-1v-1z" fill="rgb(82,49,32)"/>
<path d="M48 46h1v2h-1v-2z" fill="rgb(115,74,74)"/>
<path d="M49 46h1v1h1v1h1v2h1v1h-2v-1h-1v1h1v1h1v1h-2v3h-1v1h-2v-1h1v-3h-1v-1h-1v-1h1v-1
	h1v-2h1v-2z" fill="rgb(230,197,148)"/>
<path d="M50 46h1v1h-1v-1z" fill="rgb(0,0,0)"/>
<path d="M55 46h1v1h-1v-1z" fill="rgb(189,156,123)"/>
<path d="M66 46h1v7h-1v-7z" fill="rgb(0,0,0)"/>
<path d="M33 47h1v1h-1v-1z" fill="rgb(164,98,74)"/>
<path d="M35 47h1v1h-1v-1z" fill="rgb(164,98,74)"/>
<path d="M42 47h1v1h-1v-1z" fill="rgb(82,49,32)"/>
<path d="M43 47h1v1h-1v-1z" fill="rgb(0,0,0)"/>
<path d="M44 47h1v1h-1v-1z" fill="rgb(164,98,74)"/>
<path d="M51 47h1v1h-1v-1z" fill="rgb(115,74,74)"/>
<path d="M61 47h1v1h-1v-1z" fill="rgb(189,156,123)"/>
<path d="M65 47h1v1h-1v-1z" fill="rgb(189,156,123)"/>
<path d="M33 48h1v1h-1v-1z" fill="rgb(82,49,32)"/>
<path d="M36 48h1v1h-1v-1z" fill="rgb(115,74,74)"/>
<path d="M37 48h1v1h-1v-1z" fill="rgb(164,98,74)"/>
<path d="M40 48h1v1h-1v-1z" fill="rgb(115,74,74)"/>
<path d="M47 48h1v2h-1v-2z" fill="rgb(115,74,74)"/>
<path d="M52 48h1v2h-1v-2z" fill="rgb(0,0,0)"/>
<path d="M63 48h1v1h-1v-1z" fill="rgb(189,156,123)"/>
<path d="M32 49h2v1h-2v-1z" fill="rgb(189,156,123)"/>
<path d="M34 49h1v1h-1v-1z" fill="rgb(0,0,0)"/>
<path d="M35 49h1v1h-1v-1z" fill="rgb(164,98,74)"/>
<path d="M36 49h2v1h-2v-1z" fill="rgb(213,156,74)"/>
<path d="M38 49h2v1h-2v-1z" fill="rgb(115,74,74)"/>
<path d="M62 49h1v1h-1v-1z" fill="rgb(189,156,123)"/>
<path d="M31 50h1v1h-1v-1z" fill="rgb(189,156,123)"/>
<path d="M32 50h1v1h-1v-1z" fill="rgb(255,230,172)"/>
<path d="M33 50h1v1h-1v-1z" fill="rgb(230,197,148)"/>
<path d="M34 50h1v1h-1v-1z" fill="rgb(189,156,123)"/>
<path d="M35 50h1v1h-1v-1z" fill="rgb(115,74,74)"/>
<path d="M36 50h1v1h-1v-1z" fill="rgb(0,0,0)"/>
<path d="M37 50h1v1h-1v-1z" fill="rgb(164,98,74)"/>
<path d="M45 50h2v1h-2v-1z" fill="rgb(115,74,74)"/>
<path d="M50 50h1v1h-1v-1z" fill="rgb(189,156,123)"/>
<path d="M53 50h1v2h1v1h2v1h5v-1h2v-1h1v-1h1v2h-1v2h-1v2h-1v-1h-1v1h-1v1h-1v-1h-1v1h-1v2
	h-3v-2h-1v-2h-1v-2h-1v-1h1v-3z" fill="rgb(115,74,74)"/>
<path d="M30 51h1v3h-1v-3z" fill="rgb(189,156,123)"/>
<path d="M31 51h1v2h-1v-2z" fill="rgb(255,230,172)"/>
<path d="M32 51h1v2h-1v-2z" fill="rgb(230,197,148)"/>
<path d="M33 51h1v2h-1v-2z" fill="rgb(255,230,172)"/>
<path d="M34 51h1v1h-1v-1z" fill="rgb(230,197,148)"/>
<path d="M35 51h2v1h-2v-1z" fill="rgb(189,156,123)"/>
<path d="M37 51h1v1h-1v-1z" fill="rgb(230,197,148)"/>
<path d="M38 51h7v1h-7v-1z" fill="rgb(115,74,74)"/>
<path d="M45 51h1v1h-1v-1z" fill="rgb(189,156,123)"/>
<path d="M51 51h1v1h-1v-1z" fill="rgb(189,156,123)"/>
<path d="M52 51h1v2h-1v-2z" fill="rgb(0,0,0)"/>
<path d="M34 52h1v1h-1v-1z" fill="rgb(189,156,123)"/>
<path d="M35 52h5v1h2v1h1v2h-1v1h-2v1h-4v-1h-2v-4h1v-1z" fill="rgb(255,230,172)"/>
<path d="M40 52h6v1h1v3h-1v2h-2v-1h1v-3h-1v-1h-1v1h-1v-1h-2v-1z" fill="rgb(230,197,148)"/>
<path d="M46 52h1v1h-1v-1z" fill="rgb(189,156,123)"/>
<path d="M31 53h1v1h-1v-1z" fill="rgb(230,197,148)"/>
<path d="M32 53h1v1h-1v-1z" fill="rgb(255,230,172)"/>
<path d="M33 53h1v1h-1v-1z" fill="rgb(230,197,148)"/>
<path d="M43 53h1v1h-1v-1z" fill="rgb(189,156,123)"/>
<path d="M47 53h1v3h-1v-3z" fill="rgb(189,156,123)"/>
<path d="M50 53h1v2h-1v-2z" fill="rgb(189,156,123)"/>
<path d="M51 53h1v1h1v2h-1v-1h-1v-2z" fill="rgb(0,0,0)"/>
<path d="M65 53h1v2h-1v-2z" fill="rgb(0,0,0)"/>
<path d="M31 54h1v1h-1v-1z" fill="rgb(115,74,74)"/>
<path d="M32 54h1v2h-1v-2z" fill="rgb(230,197,148)"/>
<path d="M33 54h1v2h-1v-2z" fill="rgb(189,156,123)"/>
<path d="M43 54h1v3h-1v2h-1v1h-1v-2h-1v-1h2v-1h1v-2z" fill="rgb(230,197,148)"/>
<path d="M44 54h1v3h-1v-3z" fill="rgb(189,156,123)"/>
<path d="M31 55h1v1h-1v-1z" fill="rgb(82,49,32)"/>
<path d="M50 55h1v1h-1v-1z" fill="rgb(0,0,0)"/>
<path d="M51 55h1v1h1v2h1v4h-1v2h-1v1h-1v-1h-1v1h-1v-1h-1v-1h1v-1h1v-1h-1v-2h-1v2h-1v2
	h-1v-1h-2v-3h1v1h1v-1h1v-1h2v-1h1v-1h1v-1z" fill="rgb(164,98,74)"/>
<path d="M64 55h1v2h-1v-2z" fill="rgb(0,0,0)"/>
<path d="M32 56h2v1h-2v-1z" fill="rgb(82,49,32)"/>
<path d="M46 56h1v2h-1v-2z" fill="rgb(189,156,123)"/>
<path d="M49 56h1v1h-1v-1z" fill="rgb(0,0,0)"/>
<path d="M53 56h1v2h-1v-2z" fill="rgb(0,0,0)"/>
<path d="M62 56h1v1h-1v-1z" fill="rgb(164,98,74)"/>
<path d="M34 57h1v2h-1v-2z" fill="rgb(82,49,32)"/>
<path d="M35 57h1v1h-1v-1z" fill="rgb(230,197,148)"/>
<path d="M43 57h1v1h-1v-1z" fill="rgb(189,156,123)"/>
<path d="M47 57h1v1h-1v-1z" fill="rgb(0,0,0)"/>
<path d="M48 57h1v1h-1v-1z" fill="rgb(82,49,32)"/>
<path d="M59 57h1v1h-1v-1z" fill="rgb(164,98,74)"/>
<path d="M61 57h1v1h-1v-1z" fill="rgb(164,98,74)"/>
<path d="M62 57h1v1h-1v-1z" fill="rgb(115,74,74)"/>
<path d="M63 57h1v1h-1v-1z" fill="rgb(0,0,0)"/>
<path d="M35 58h1v1h-1v-1z" fill="rgb(189,156,123)"/>
<path d="M36 58h4v2h-1v1h-1v-2h-1v1h-1v-2z" fill="rgb(230,197,148)"/>
<path d="M40 58h1v2h-1v-2z" fill="rgb(189,156,123)"/>
<path d="M43 58h1v1h-1v-1z" fill="rgb(0,0,0)"/>
<path d="M44 58h1v1h-1v-1z" fill="rgb(115,74,74)"/>
<path d="M45 58h1v1h-1v-1z" fill="rgb(189,156,123)"/>
<path d="M46 58h1v1h-1v-1z" fill="rgb(0,0,0)"/>
<path d="M54 58h1v2h3v1h-3v1h-1v-4z" fill="rgb(0,0,0)"/>
<path d="M58 58h1v1h-1v-1z" fill="rgb(164,98,74)"/>
<path d="M59 58h1v1h-1v-1z" fill="rgb(115,74,74)"/>
<path d="M60 58h1v1h-1v-1z" fill="rgb(164,98,74)"/>
<path d="M61 58h2v1h-2v-1z" fill="rgb(0,0,0)"/>
<path d="M35 59h1v1h-1v-1z" fill="rgb(82,49,32)"/>
<path d="M37 59h1v1h-1v-1z" fill="rgb(189,156,123)"/>
<path d="M42 59h1v1h-1v-1z" fill="rgb(0,0,0)"/>
<path d="M43 59h1v1h-1v-1z" fill="rgb(115,74,74)"/>
<path d="M45 59h1v1h-1v-1z" fill="rgb(0,0,0)"/>
<path d="M48 59h1v2h-1v-2z" fill="rgb(82,49,32)"/>
<path d="M58 59h3v1h-3v-1z" fill="rgb(0,0,0)"/>
<path d="M36 60h1v3h-1v-3z" fill="rgb(82,49,32)"/>
<path d="M37 60h1v1h-1v-1z" fill="rgb(0,0,0)"/>
<path d="M39 60h1v1h-1v-1z" fill="rgb(189,156,123)"/>
<path d="M40 60h1v1h-1v-1z" fill="rgb(230,197,148)"/>
<path d="M41 60h1v1h-1v-1z" fill="rgb(0,0,0)"/>
<path d="M42 60h1v3h-1v-3z" fill="rgb(115,74,74)"/>
<path d="M43 60h1v2h-1v-2z" fill="rgb(82,49,32)"/>
<path d="M37 61h1v1h2v2h-1v1h-1v1h-1v-1h-1v1h-1v-2h1v-1h1v-2z" fill="rgb(164,98,74)"/>
<path d="M38 61h2v1h-2v-1z" fill="rgb(0,0,0)"/>
<path d="M40 61h1v1h-1v-1z" fill="rgb(189,156,123)"/>
<path d="M41 61h1v1h-1v-1z" fill="rgb(82,49,32)"/>
<path d="M47 61h1v2h-1v-2z" fill="rgb(0,0,0)"/>
<path d="M48 61h2v1h-2v-1z" fill="rgb(115,74,74)"/>
<path d="M40 62h2v1h-2v-1z" fill="rgb(0,0,0)"/>
<path d="M43 62h1v1h-1v-1z" fill="rgb(0,0,0)"/>
<path d="M44 62h2v1h1v2h-1v2h-1v-1h-1v1h-1v-1h-1v-1h1v-1h1v-2z" fill="rgb(213,156,74)"/>
<path d="M48 62h1v1h-1v-1z" fill="rgb(82,49,32)"/>
<path d="M53 62h1v2h-1v-2z" fill="rgb(0,0,0)"/>
<path d="M35 63h1v1h-1v-1z" fill="rgb(82,49,32)"/>
<path d="M40 63h1v1h-1v-1z" fill="rgb(82,49,32)"/>
<path d="M41 63h1v1h-1v-1z" fill="transparent"/>
<path d="M42 63h1v2h-1v-2z" fill="rgb(0,0,0)"/>
<path d="M43 63h1v1h-1v-1z" fill="rgb(82,49,32)"/>
<path d="M47 63h1v1h-1v-1z" fill="rgb(82,49,32)"/>
<path d="M34 64h1v2h-1v-2z" fill="rgb(82,49,32)"/>
<path d="M39 64h1v1h-1v-1z" fill="rgb(82,49,32)"/>
<path d="M41 64h1v1h-1v-1z" fill="rgb(82,49,32)"/>
<path d="M47 64h1v1h4v1h-5v-2z" fill="rgb(0,0,0)"/>
<path d="M48 64h1v1h-1v-1z" fill="rgb(82,49,32)"/>
<path d="M50 64h1v1h-1v-1z" fill="rgb(82,49,32)"/>
<path d="M52 64h1v1h-1v-1z" fill="rgb(0,0,0)"/>
<path d="M36 65h1v1h-1v-1z" fill="rgb(82,49,32)"/>
<path d="M38 65h1v2h-1v-2z" fill="rgb(82,49,32)"/>
<path d="M39 65h1v1h-1v-1z" fill="rgb(0,0,0)"/>
<path d="M41 65h1v2h-1v-2z" fill="rgb(0,0,0)"/>
<path d="M46 65h1v1h-1v-1z" fill="rgb(164,98,74)"/>
<path d="M35 66h3v1h-3v-1z" fill="rgb(0,0,0)"/>
<path d="M42 66h1v1h-1v-1z" fill="rgb(164,98,74)"/>
<path d="M44 66h1v1h-1v-1z" fill="rgb(164,98,74)"/>
<path d="M46 66h1v1h-1v-1z" fill="rgb(0,0,0)"/>
<path d="M42 67h1v1h-1v-1z" fill="rgb(82,49,32)"/>
<path d="M43 67h3v1h-3v-1z" fill="rgb(0,0,0)"/>
</svg>
