<?xml version="1.0" encoding="utf-8"?>
<!-- generated at drububu.com  -->
<!DOCTYPE svg PUBLIC "-//W3C//DTD SVG 1.1//EN" "http://www.w3.org/Graphics/SVG/1.1/DTD/svg11.dtd">
<svg version="1.1" preserveAspectRatio="xMinYMin meet" xmlns="http://www.w3.org/2000/svg" xmlns:xlink="http://www.w3.org/1999/xlink" x="0px" y="0px" width="96px" height="96px" viewBox="0 0 96 96">
<path d="M0 0h96v96h-96v-96z" fill="transparent"/>
<path d="M51 21h2v1h-2v-1z" fill="rgb(16,74,98)"/>
<path d="M50 22h1v1h-1v-1z" fill="rgb(16,74,98)"/>
<path d="M51 22h1v1h-1v-1z" fill="rgb(16,115,148)"/>
<path d="M52 22h1v1h-1v-1z" fill="rgb(189,172,90)"/>
<path d="M53 22h1v1h-1v-1z" fill="rgb(106,98,32)"/>
<path d="M49 23h1v1h-1v-1z" fill="rgb(16,74,98)"/>
<path d="M50 23h1v1h-1v-1z" fill="rgb(16,115,148)"/>
<path d="M51 23h1v3h-3v-1h1v-1h1v-1z" fill="rgb(189,172,90)"/>
<path d="M52 23h1v1h-1v-1z" fill="rgb(106,98,32)"/>
<path d="M48 24h1v1h-1v-1z" fill="rgb(16,74,98)"/>
<path d="M49 24h1v1h-1v-1z" fill="rgb(16,115,148)"/>
<path d="M52 24h1v2h-1v-2z" fill="rgb(16,16,16)"/>
<path d="M45 25h2v1h-2v-1z" fill="rgb(139,139,139)"/>
<path d="M47 25h1v2h-1v-2z" fill="rgb(16,16,16)"/>
<path d="M48 25h1v2h-1v-2z" fill="rgb(16,115,148)"/>
<path d="M53 25h1v1h-1v-1z" fill="rgb(139,139,139)"/>
<path d="M44 26h1v1h-1v-1z" fill="rgb(139,139,139)"/>
<path d="M45 26h2v1h-1v2h-1v-3z" fill="rgb(255,255,255)"/>
<path d="M49 26h2v2h1v1h-1v1h-1v1h-1v1h-1v1h-1v-3h1v-2h1v-2z" fill="rgb(255,230,164)"/>
<path d="M51 26h1v2h-1v-2z" fill="rgb(16,16,16)"/>
<path d="M52 26h2v1h2v1h-1v1h-1v-1h-2v-2z" fill="rgb(255,255,255)"/>
<path d="M54 26h3v2h-1v-1h-2v-1z" fill="rgb(16,16,16)"/>
<path d="M66 26h3v1h-3v-1z" fill="rgb(16,16,16)"/>
<path d="M42 27h2v1h-2v-1z" fill="rgb(139,139,139)"/>
<path d="M44 27h1v2h-1v-2z" fill="rgb(205,205,205)"/>
<path d="M46 27h1v2h-1v-2z" fill="rgb(16,16,16)"/>
<path d="M47 27h1v2h-1v-2z" fill="rgb(16,115,148)"/>
<path d="M48 27h1v1h-1v-1z" fill="rgb(189,172,90)"/>
<path d="M64 27h2v1h-2v-1z" fill="rgb(16,16,16)"/>
<path d="M66 27h3v1h-3v-1z" fill="rgb(16,115,148)"/>
<path d="M69 27h1v1h-1v-1z" fill="rgb(16,16,16)"/>
<path d="M33 28h1v1h-1v-1z" fill="rgb(16,74,98)"/>
<path d="M34 28h3v1h-3v-1z" fill="rgb(16,16,16)"/>
<path d="M40 28h2v1h-1v1h-1v-2z" fill="rgb(139,139,139)"/>
<path d="M42 28h2v1h1v2h-2v-1h-1v-2z" fill="rgb(255,255,255)"/>
<path d="M52 28h1v1h-1v-1z" fill="rgb(16,16,16)"/>
<path d="M53 28h1v1h-1v-1z" fill="rgb(205,205,205)"/>
<path d="M55 28h2v2h-2v-2z" fill="rgb(205,205,205)"/>
<path d="M57 28h2v1h-2v-1z" fill="rgb(16,16,16)"/>
<path d="M62 28h2v1h-2v-1z" fill="rgb(16,16,16)"/>
<path d="M64 28h2v1h-2v-1z" fill="rgb(16,115,148)"/>
<path d="M66 28h2v1h-2v-1z" fill="rgb(189,172,90)"/>
<path d="M68 28h1v1h-1v-1z" fill="rgb(106,98,32)"/>
<path d="M33 29h1v1h-1v-1z" fill="rgb(106,98,32)"/>
<path d="M34 29h3v1h-3v-1z" fill="rgb(16,115,148)"/>
<path d="M37 29h2v1h-2v-1z" fill="rgb(16,16,16)"/>
<path d="M41 29h1v1h-1v-1z" fill="rgb(205,205,205)"/>
<path d="M45 29h1v5h-1v-2h-1v-1h1v-2z" fill="rgb(16,16,16)"/>
<path d="M46 29h1v5h1v-1h2v-1h1v-1h2v1h1v1h1v2h-2v-1h-3v1h-2v1h-1v1h-1v-1h-1v-1h-1v-1h2
	v-5z" fill="rgb(16,115,148)"/>
<path d="M47 29h1v1h-1v-1z" fill="rgb(189,172,90)"/>
<path d="M51 29h2v1h2v1h1v2h1v1h1v2h-1v3h-1v-2h-1v-1h-1v-1h1v-2h-1v-1h-1v-1h-2v1h-1v1h-2
	v-1h1v-1h1v-1h1v-1z" fill="rgb(16,74,98)"/>
<path d="M53 29h2v1h-2v-1z" fill="rgb(16,16,16)"/>
<path d="M57 29h1v1h-1v-1z" fill="rgb(139,139,139)"/>
<path d="M58 29h1v2h-2v-1h1v-1z" fill="rgb(205,205,205)"/>
<path d="M59 29h3v1h-2v1h-1v-2z" fill="rgb(16,16,16)"/>
<path d="M62 29h1v1h-1v-1z" fill="rgb(16,74,98)"/>
<path d="M63 29h1v1h-1v-1z" fill="rgb(16,115,148)"/>
<path d="M64 29h2v1h-2v-1z" fill="rgb(189,172,90)"/>
<path d="M66 29h1v1h-1v-1z" fill="rgb(255,230,164)"/>
<path d="M67 29h1v1h-1v-1z" fill="rgb(106,98,32)"/>
<path d="M34 30h1v1h-1v-1z" fill="rgb(106,98,32)"/>
<path d="M35 30h1v1h-1v-1z" fill="rgb(255,230,164)"/>
<path d="M36 30h1v1h-1v-1z" fill="rgb(189,172,90)"/>
<path d="M37 30h2v1h-2v-1z" fill="rgb(16,115,148)"/>
<path d="M39 30h3v1h-3v-1z" fill="rgb(16,16,16)"/>
<path d="M42 30h1v1h-1v-1z" fill="rgb(205,205,205)"/>
<path d="M55 30h1v1h-1v-1z" fill="rgb(16,16,16)"/>
<path d="M56 30h1v1h-1v-1z" fill="rgb(139,139,139)"/>
<path d="M60 30h1v1h-1v-1z" fill="rgb(16,74,98)"/>
<path d="M61 30h2v1h-2v-1z" fill="rgb(16,115,148)"/>
<path d="M63 30h1v1h-1v-1z" fill="rgb(189,172,90)"/>
<path d="M64 30h2v1h-1v1h-2v1h-2v-1h1v-1h2v-1z" fill="rgb(255,230,164)"/>
<path d="M66 30h1v1h-1v-1z" fill="rgb(106,98,32)"/>
<path d="M35 31h1v1h-1v-1z" fill="rgb(106,98,32)"/>
<path d="M36 31h3v1h2v1h1v2h-1v-1h-2v-1h-2v-1h-1v-1z" fill="rgb(255,230,164)"/>
<path d="M39 31h3v1h1v2h-1v-1h-1v-1h-2v-1z" fill="rgb(16,115,148)"/>
<path d="M42 31h1v1h-1v-1z" fill="rgb(16,16,16)"/>
<path d="M43 31h1v1h-1v-1z" fill="rgb(205,205,205)"/>
<path d="M56 31h2v1h-1v1h-1v-2z" fill="rgb(16,16,16)"/>
<path d="M58 31h1v1h-1v-1z" fill="rgb(16,74,98)"/>
<path d="M59 31h2v1h-1v1h-1v1h-2v-1h1v-1h1v-1z" fill="rgb(16,115,148)"/>
<path d="M61 31h1v1h-1v-1z" fill="rgb(189,172,90)"/>
<path d="M65 31h1v2h-1v-2z" fill="rgb(106,98,32)"/>
<path d="M36 32h1v2h-1v-2z" fill="rgb(106,98,32)"/>
<path d="M43 32h1v1h-1v-1z" fill="rgb(16,16,16)"/>
<path d="M44 32h1v2h-1v2h-1v-3h1v-1z" fill="rgb(16,74,98)"/>
<path d="M57 32h1v1h-1v-1z" fill="rgb(16,74,98)"/>
<path d="M60 32h1v1h-1v-1z" fill="rgb(189,172,90)"/>
<path d="M63 32h2v1h-2v-1z" fill="rgb(189,172,90)"/>
<path d="M37 33h2v1h-2v-1z" fill="rgb(189,172,90)"/>
<path d="M47 33h1v1h-1v-1z" fill="rgb(16,74,98)"/>
<path d="M59 33h1v1h1v1h-2v1h-1v-2h1v-1z" fill="rgb(189,172,90)"/>
<path d="M60 33h1v1h-1v-1z" fill="rgb(255,230,164)"/>
<path d="M61 33h2v1h-2v-1z" fill="rgb(189,172,90)"/>
<path d="M63 33h1v2h-1v1h-3v1h-2v-1h1v-1h2v-1h2v-1z" fill="rgb(255,230,164)"/>
<path d="M64 33h1v2h-1v-2z" fill="rgb(106,98,32)"/>
<path d="M37 34h1v2h-1v-2z" fill="rgb(106,98,32)"/>
<path d="M38 34h1v1h2v1h1v2h-1v-1h-2v-1h-1v-2z" fill="rgb(255,230,164)"/>
<path d="M39 34h2v1h-2v-1z" fill="rgb(189,172,90)"/>
<path d="M42 34h1v1h-1v-1z" fill="rgb(189,172,90)"/>
<path d="M50 34h1v1h-1v-1z" fill="rgb(16,74,98)"/>
<path d="M51 34h1v1h1v2h-2v1h-1v3h3v-1h1v-1h1v1h1v1h-1v1h-1v1h-3v-1h-1v1h-2v-1h-2v1h-2
	v-1h-1v-1h2v-3h-1v-3h1v1h1v1h2v-1h1v-1h2v-1z" fill="rgb(131,222,255)"/>
<path d="M52 34h1v1h-1v-1z" fill="rgb(90,197,230)"/>
<path d="M41 35h1v1h-1v-1z" fill="rgb(189,172,90)"/>
<path d="M42 35h1v1h-1v-1z" fill="rgb(16,16,16)"/>
<path d="M48 35h1v1h-1v-1z" fill="rgb(16,74,98)"/>
<path d="M53 35h1v1h1v1h1v3h-1v-1h-1v-2h-1v-2z" fill="rgb(90,197,230)"/>
<path d="M63 35h1v4h-1v-4z" fill="rgb(106,98,32)"/>
<path d="M38 36h1v4h-1v-4z" fill="rgb(106,98,32)"/>
<path d="M42 36h1v1h-1v-1z" fill="rgb(16,74,98)"/>
<path d="M43 36h1v1h-1v-1z" fill="rgb(90,197,230)"/>
<path d="M47 36h1v1h-1v-1z" fill="rgb(90,197,230)"/>
<path d="M57 36h1v1h2v1h-3v-2z" fill="rgb(189,172,90)"/>
<path d="M60 36h3v1h-3v-1z" fill="rgb(189,172,90)"/>
<path d="M39 37h2v1h-2v-1z" fill="rgb(189,172,90)"/>
<path d="M42 37h2v1h-1v1h-1v-2z" fill="rgb(16,16,16)"/>
<path d="M51 37h3v3h-1v-1h-1v-1h-1v-1z" fill="rgb(16,16,16)"/>
<path d="M60 37h3v2h1v2h-1v-1h-3v-1h-2v-1h2v-1z" fill="rgb(255,230,164)"/>
<path d="M39 38h2v1h1v1h-2v1h-2v-1h1v-2z" fill="rgb(255,230,164)"/>
<path d="M41 38h1v1h-1v-1z" fill="rgb(189,172,90)"/>
<path d="M43 38h1v1h-1v-1z" fill="rgb(255,255,255)"/>
<path d="M44 38h1v1h-1v-1z" fill="rgb(65,156,189)"/>
<path d="M50 38h1v1h-1v-1z" fill="rgb(16,115,148)"/>
<path d="M51 38h1v1h-1v-1z" fill="rgb(255,255,255)"/>
<path d="M57 38h1v1h-1v-1z" fill="rgb(106,98,32)"/>
<path d="M42 39h1v1h-1v-1z" fill="rgb(106,98,32)"/>
<path d="M43 39h1v2h-1v-2z" fill="rgb(82,16,115)"/>
<path d="M44 39h1v2h-1v-2z" fill="rgb(16,16,16)"/>
<path d="M50 39h1v2h-1v-2z" fill="rgb(16,16,16)"/>
<path d="M51 39h2v2h-2v-2z" fill="rgb(82,16,115)"/>
<path d="M56 39h1v2h-1v-2z" fill="rgb(65,156,189)"/>
<path d="M57 39h3v1h-2v1h-1v-2z" fill="rgb(16,16,16)"/>
<path d="M64 39h1v2h-1v-2z" fill="rgb(106,98,32)"/>
<path d="M37 40h1v2h-1v-2z" fill="rgb(106,98,32)"/>
<path d="M40 40h2v1h-2v-1z" fill="rgb(16,16,16)"/>
<path d="M42 40h1v1h-1v-1z" fill="rgb(16,74,98)"/>
<path d="M46 40h1v1h-1v-1z" fill="rgb(16,115,148)"/>
<path d="M47 40h1v1h-1v-1z" fill="rgb(90,197,230)"/>
<path d="M58 40h2v1h1v1h1v1h-2v-1h-3v-1h1v-1z" fill="rgb(139,139,139)"/>
<path d="M60 40h3v1h-1v1h-1v-1h-1v-1z" fill="rgb(16,16,16)"/>
<path d="M38 41h2v1h-2v-1z" fill="rgb(16,16,16)"/>
<path d="M40 41h1v1h-1v-1z" fill="rgb(139,139,139)"/>
<path d="M41 41h1v2h-2v-1h1v-1z" fill="rgb(205,205,205)"/>
<path d="M42 41h1v2h-1v-2z" fill="rgb(16,16,16)"/>
<path d="M55 41h1v1h-1v-1z" fill="rgb(90,197,230)"/>
<path d="M56 41h1v2h-1v-2z" fill="rgb(16,16,16)"/>
<path d="M62 41h1v1h-1v-1z" fill="transparent"/>
<path d="M63 41h2v1h-2v-1z" fill="rgb(16,16,16)"/>
<path d="M39 42h1v1h-1v-1z" fill="rgb(139,139,139)"/>
<path d="M43 42h1v1h-1v-1z" fill="rgb(90,197,230)"/>
<path d="M46 42h1v1h-1v-1z" fill="rgb(16,16,16)"/>
<path d="M47 42h1v1h-1v-1z" fill="rgb(65,156,189)"/>
<path d="M50 42h1v1h-1v-1z" fill="rgb(65,156,189)"/>
<path d="M54 42h1v1h-1v-1z" fill="rgb(90,197,230)"/>
<path d="M55 42h1v1h-1v-1z" fill="rgb(65,156,189)"/>
<path d="M57 42h3v1h2v1h-1v1h-2v-1h-1v-1h-1v-1z" fill="rgb(205,205,205)"/>
<path d="M62 42h1v2h-1v-2z" fill="rgb(16,16,16)"/>
<path d="M38 43h1v1h-1v-1z" fill="rgb(16,16,16)"/>
<path d="M39 43h4v1h1v1h-1v2h-2v-2h-1v-1h-1v-1z" fill="rgb(255,255,255)"/>
<path d="M43 43h1v1h-1v-1z" fill="rgb(16,16,16)"/>
<path d="M44 43h1v1h-1v-1z" fill="rgb(90,197,230)"/>
<path d="M45 43h1v1h-1v-1z" fill="rgb(65,156,189)"/>
<path d="M46 43h2v1h-2v-1z" fill="rgb(123,8,41)"/>
<path d="M48 43h1v1h-1v-1z" fill="rgb(16,16,16)"/>
<path d="M49 43h1v1h-1v-1z" fill="rgb(16,74,98)"/>
<path d="M50 43h4v1h-2v1h-2v1h-3v-1h2v-1h1v-1z" fill="rgb(90,197,230)"/>
<path d="M54 43h1v1h-1v-1z" fill="rgb(65,156,189)"/>
<path d="M55 43h1v1h-1v-1z" fill="rgb(16,16,16)"/>
<path d="M56 43h2v1h-2v-1z" fill="rgb(139,139,139)"/>
<path d="M39 44h1v1h-1v-1z" fill="rgb(16,16,16)"/>
<path d="M44 44h1v1h-1v-1z" fill="rgb(16,16,16)"/>
<path d="M45 44h2v1h-2v-1z" fill="rgb(90,197,230)"/>
<path d="M47 44h2v1h-2v-1z" fill="rgb(213,82,115)"/>
<path d="M52 44h1v1h-1v-1z" fill="rgb(65,156,189)"/>
<path d="M53 44h2v1h-2v-1z" fill="rgb(16,16,16)"/>
<path d="M55 44h1v1h-1v-1z" fill="rgb(139,139,139)"/>
<path d="M56 44h2v1h1v3h-2v1h-2v-1h-1v-3h2v-1z" fill="rgb(205,205,205)"/>
<path d="M58 44h1v1h-1v-1z" fill="rgb(139,139,139)"/>
<path d="M61 44h1v1h-1v-1z" fill="rgb(16,16,16)"/>
<path d="M40 45h1v2h-1v-2z" fill="rgb(16,16,16)"/>
<path d="M43 45h1v2h-1v-2z" fill="rgb(139,139,139)"/>
<path d="M44 45h1v1h1v1h2v1h-1v2h-2v-1h-2v-2h1v-2z" fill="rgb(255,255,255)"/>
<path d="M45 45h2v1h-2v-1z" fill="rgb(16,16,16)"/>
<path d="M50 45h1v1h-1v-1z" fill="rgb(65,156,189)"/>
<path d="M51 45h2v1h-2v-1z" fill="rgb(16,16,16)"/>
<path d="M53 45h1v3h-1v-3z" fill="rgb(139,139,139)"/>
<path d="M59 45h1v1h-1v-1z" fill="rgb(139,139,139)"/>
<path d="M60 45h1v1h-1v-1z" fill="rgb(16,16,16)"/>
<path d="M46 46h1v1h-1v-1z" fill="rgb(205,205,205)"/>
<path d="M47 46h4v1h-4v-1z" fill="rgb(16,16,16)"/>
<path d="M51 46h1v1h-1v-1z" fill="rgb(139,139,139)"/>
<path d="M52 46h1v2h-1v-2z" fill="rgb(205,205,205)"/>
<path d="M59 46h1v3h-3v-1h2v-2z" fill="rgb(16,16,16)"/>
<path d="M41 47h1v2h3v1h-4v-3z" fill="rgb(16,16,16)"/>
<path d="M42 47h1v2h-1v-2z" fill="rgb(139,139,139)"/>
<path d="M48 47h1v1h-1v-1z" fill="rgb(139,139,139)"/>
<path d="M49 47h3v1h1v2h-4v1h-2v-1h1v-2h1v-1z" fill="rgb(255,255,255)"/>
<path d="M66 47h5v1h-5v-1z" fill="rgb(16,74,98)"/>
<path d="M39 48h2v1h-1v1h-1v-2z" fill="rgb(16,74,98)"/>
<path d="M47 48h1v2h-1v-2z" fill="rgb(139,139,139)"/>
<path d="M53 48h1v3h-1v-3z" fill="rgb(205,205,205)"/>
<path d="M54 48h1v3h-1v-3z" fill="rgb(139,139,139)"/>
<path d="M64 48h2v1h-2v-1z" fill="rgb(16,74,98)"/>
<path d="M66 48h4v1h-1v2h-1v2h-1v2h-4v-1h-1v-3h1v-1h1v-1h2v-1z" fill="rgb(131,222,255)"/>
<path d="M70 48h1v1h-1v-1z" fill="rgb(16,16,16)"/>
<path d="M40 49h1v1h-1v-1z" fill="rgb(16,115,148)"/>
<path d="M55 49h2v1h-1v1h-1v-2z" fill="rgb(16,16,16)"/>
<path d="M63 49h1v1h-1v-1z" fill="rgb(16,74,98)"/>
<path d="M69 49h1v3h-1v-3z" fill="rgb(16,16,16)"/>
<path d="M37 50h2v1h-2v-1z" fill="rgb(16,74,98)"/>
<path d="M39 50h1v1h-1v-1z" fill="rgb(16,115,148)"/>
<path d="M40 50h1v1h-1v-1z" fill="rgb(16,74,98)"/>
<path d="M41 50h2v2h-1v2h-2v1h-1v1h-1v1h-2v1h-1v1h-1v2h-3v1h2v2h1v1h2v1h-2v1h-1v-1h-1v-1
	h-3v-1h-1v-3h1v-2h1v-1h1v-1h2v-1h3v-1h2v-1h1v-1h1v-1h1v-2z" fill="rgb(131,222,255)"/>
<path d="M43 50h2v1h1v1h2v1h1v1h1v1h1v2h-1v2h-3v-2h-1v-2h-1v5h-1v1h-1v-2h-1v-1h-2v-1h-2
	v-1h1v-1h1v-1h2v-2h1v-2z" fill="rgb(90,197,230)"/>
<path d="M45 50h1v1h-1v-1z" fill="rgb(16,16,16)"/>
<path d="M46 50h1v1h-1v-1z" fill="rgb(139,139,139)"/>
<path d="M49 50h4v1h-4v-1z" fill="rgb(16,16,16)"/>
<path d="M62 50h1v1h-1v-1z" fill="rgb(16,74,98)"/>
<path d="M36 51h1v1h-1v-1z" fill="rgb(16,74,98)"/>
<path d="M37 51h2v1h-1v1h-2v-1h1v-1z" fill="rgb(16,115,148)"/>
<path d="M39 51h1v1h-1v-1z" fill="rgb(16,74,98)"/>
<path d="M40 51h1v1h-1v-1z" fill="rgb(90,197,230)"/>
<path d="M46 51h3v1h-3v-1z" fill="rgb(16,16,16)"/>
<path d="M49 51h4v1h1v1h1v4h-1v1h-2v-1h1v-1h-1v-2h-1v1h-1v-1h-1v-1h-1v-1h1v-1z" fill="rgb(65,156,189)"/>
<path d="M53 51h2v2h-1v-1h-1v-1z" fill="rgb(16,16,16)"/>
<path d="M61 51h1v1h-1v-1z" fill="rgb(16,74,98)"/>
<path d="M68 51h1v1h-1v-1z" fill="rgb(90,197,230)"/>
<path d="M34 52h2v1h-2v-1z" fill="rgb(16,74,98)"/>
<path d="M38 52h1v1h-1v-1z" fill="rgb(16,74,98)"/>
<path d="M39 52h1v1h-1v-1z" fill="rgb(90,197,230)"/>
<path d="M60 52h1v2h-1v-2z" fill="rgb(16,74,98)"/>
<path d="M61 52h1v2h1v1h4v1h-1v1h-1v1h1v1h-1v1h-3v-1h-2v-1h-2v-1h1v-1h1v-2h1v-2z" fill="rgb(90,197,230)"/>
<path d="M68 52h1v2h-1v-2z" fill="rgb(16,16,16)"/>
<path d="M33 53h1v1h-1v-1z" fill="rgb(16,74,98)"/>
<path d="M34 53h2v1h-1v1h-2v-1h1v-1z" fill="rgb(16,115,148)"/>
<path d="M36 53h2v1h-2v-1z" fill="rgb(16,74,98)"/>
<path d="M38 53h1v1h-1v-1z" fill="rgb(90,197,230)"/>
<path d="M55 53h1v3h2v1h-3v-4z" fill="rgb(16,16,16)"/>
<path d="M67 53h1v1h-1v-1z" fill="rgb(90,197,230)"/>
<path d="M30 54h3v1h-3v-1z" fill="rgb(16,74,98)"/>
<path d="M35 54h1v1h-1v-1z" fill="rgb(16,74,98)"/>
<path d="M36 54h2v1h-2v-1z" fill="rgb(90,197,230)"/>
<path d="M51 54h1v1h-1v-1z" fill="rgb(16,74,98)"/>
<path d="M53 54h1v2h-1v-2z" fill="rgb(16,74,98)"/>
<path d="M59 54h1v1h-1v-1z" fill="rgb(16,16,16)"/>
<path d="M67 54h1v2h-1v-2z" fill="rgb(16,16,16)"/>
<path d="M29 55h1v2h-1v-2z" fill="rgb(16,74,98)"/>
<path d="M30 55h3v1h-2v1h-1v-2z" fill="rgb(16,115,148)"/>
<path d="M33 55h2v1h-2v-1z" fill="rgb(16,74,98)"/>
<path d="M35 55h1v1h-1v-1z" fill="rgb(90,197,230)"/>
<path d="M45 55h1v1h-1v-1z" fill="rgb(65,156,189)"/>
<path d="M51 55h1v2h-1v-2z" fill="rgb(16,16,16)"/>
<path d="M58 55h1v1h-1v-1z" fill="rgb(16,16,16)"/>
<path d="M59 55h1v1h-1v-1z" fill="rgb(16,74,98)"/>
<path d="M31 56h2v1h-2v-1z" fill="rgb(16,74,98)"/>
<path d="M45 56h1v2h-1v-2z" fill="rgb(16,74,98)"/>
<path d="M52 56h1v1h-1v-1z" fill="rgb(16,74,98)"/>
<path d="M58 56h1v1h-1v-1z" fill="rgb(16,74,98)"/>
<path d="M66 56h1v2h-1v-2z" fill="rgb(16,16,16)"/>
<path d="M27 57h2v1h-1v1h-1v-2z" fill="rgb(16,74,98)"/>
<path d="M29 57h1v1h-1v-1z" fill="rgb(16,115,148)"/>
<path d="M30 57h1v1h-1v-1z" fill="rgb(16,74,98)"/>
<path d="M36 57h2v1h2v1h1v1h1v2h-2v1h-4v-1h-2v-3h1v-1h1v-1z" fill="rgb(90,197,230)"/>
<path d="M38 57h1v1h-1v-1z" fill="rgb(65,156,189)"/>
<path d="M39 57h1v1h-1v-1z" fill="rgb(16,74,98)"/>
<path d="M46 57h1v2h3v2h-2v1h-1v-2h-1v-3z" fill="rgb(65,156,189)"/>
<path d="M50 57h1v2h-1v-2z" fill="rgb(16,16,16)"/>
<path d="M51 57h1v1h-1v-1z" fill="rgb(16,74,98)"/>
<path d="M54 57h1v1h-1v-1z" fill="rgb(16,16,16)"/>
<path d="M55 57h3v1h-1v1h-2v1h-2v1h-1v1h-1v1h-1v1h-1v-2h1v-1h1v-1h1v-1h2v-1h1v-1z" fill="rgb(16,74,98)"/>
<path d="M65 57h1v1h-1v-1z" fill="rgb(16,74,98)"/>
<path d="M28 58h1v1h-1v-1z" fill="rgb(16,115,148)"/>
<path d="M29 58h1v1h-1v-1z" fill="rgb(16,74,98)"/>
<path d="M40 58h2v1h-2v-1z" fill="rgb(16,74,98)"/>
<path d="M45 58h1v2h-1v-2z" fill="rgb(16,16,16)"/>
<path d="M51 58h1v1h-1v-1z" fill="rgb(65,156,189)"/>
<path d="M52 58h2v1h-2v-1z" fill="rgb(16,16,16)"/>
<path d="M57 58h1v1h-1v-1z" fill="rgb(65,156,189)"/>
<path d="M58 58h1v1h-1v-1z" fill="rgb(16,16,16)"/>
<path d="M59 58h1v1h-1v-1z" fill="rgb(65,156,189)"/>
<path d="M66 58h1v2h1v2h1v3h1v1h-4v-1h-2v-1h-1v-1h-1v-1h-1v-2h-1v-1h2v1h3v-1h1v-1z" fill="rgb(65,156,189)"/>
<path d="M67 58h1v2h-1v-2z" fill="rgb(16,16,16)"/>
<path d="M26 59h1v1h-1v-1z" fill="rgb(16,74,98)"/>
<path d="M27 59h1v2h-1v3h1v1h1v1h3v1h1v1h-3v-1h-2v-1h-1v-1h-1v-1h-1v-2h1v-2h1v-1z" fill="rgb(16,115,148)"/>
<path d="M28 59h1v2h-1v-2z" fill="rgb(16,74,98)"/>
<path d="M41 59h1v1h-1v-1z" fill="rgb(65,156,189)"/>
<path d="M42 59h1v2h-1v-2z" fill="rgb(16,74,98)"/>
<path d="M50 59h1v1h-1v-1z" fill="rgb(16,74,98)"/>
<path d="M51 59h1v1h-1v-1z" fill="rgb(16,16,16)"/>
<path d="M55 59h2v1h-1v1h-1v1h-1v1h-1v2h-1v1h-1v1h-1v1h-1v1h-2v-1h1v-2h1v-2h1v-1h1v-1h1
	v-1h1v-1h2v-1z" fill="rgb(65,156,189)"/>
<path d="M57 59h1v1h-1v-1z" fill="rgb(16,16,16)"/>
<path d="M59 59h1v1h-1v-1z" fill="rgb(16,16,16)"/>
<path d="M25 60h1v2h-1v-2z" fill="rgb(16,16,16)"/>
<path d="M44 60h2v3h-2v-3z" fill="rgb(65,156,189)"/>
<path d="M46 60h1v2h1v1h-2v-3z" fill="rgb(16,16,16)"/>
<path d="M50 60h1v1h-1v-1z" fill="rgb(16,16,16)"/>
<path d="M56 60h1v1h-1v-1z" fill="rgb(16,16,16)"/>
<path d="M60 60h1v2h-1v-2z" fill="rgb(16,16,16)"/>
<path d="M68 60h1v2h-1v-2z" fill="rgb(16,16,16)"/>
<path d="M27 61h1v3h-1v-3z" fill="rgb(16,74,98)"/>
<path d="M31 61h1v1h-1v-1z" fill="rgb(90,197,230)"/>
<path d="M32 61h2v1h-2v-1z" fill="rgb(16,74,98)"/>
<path d="M42 61h1v3h-6v-1h3v-1h2v-1z" fill="rgb(65,156,189)"/>
<path d="M43 61h1v3h-1v-3z" fill="rgb(16,74,98)"/>
<path d="M48 61h2v1h-2v-1z" fill="rgb(16,16,16)"/>
<path d="M55 61h1v1h-1v-1z" fill="rgb(16,16,16)"/>
<path d="M24 62h1v3h-1v-3z" fill="rgb(16,16,16)"/>
<path d="M33 62h1v1h1v1h2v1h6v1h-3v1h-4v-2h-2v-1h-1v-2z" fill="rgb(90,197,230)"/>
<path d="M34 62h1v1h-1v-1z" fill="rgb(16,16,16)"/>
<path d="M35 62h1v1h-1v-1z" fill="rgb(65,156,189)"/>
<path d="M48 62h1v2h-2v-1h1v-1z" fill="rgb(16,115,148)"/>
<path d="M54 62h1v1h-1v-1z" fill="rgb(16,16,16)"/>
<path d="M61 62h1v1h-1v-1z" fill="rgb(16,16,16)"/>
<path d="M69 62h1v3h-1v-3z" fill="rgb(16,16,16)"/>
<path d="M35 63h2v1h-2v-1z" fill="rgb(16,16,16)"/>
<path d="M44 63h2v1h-2v-1z" fill="rgb(16,16,16)"/>
<path d="M46 63h1v1h-1v-1z" fill="rgb(16,74,98)"/>
<path d="M53 63h1v2h-1v-2z" fill="rgb(16,16,16)"/>
<path d="M62 63h1v1h-1v-1z" fill="rgb(16,16,16)"/>
<path d="M25 64h1v1h-1v-1z" fill="rgb(16,74,98)"/>
<path d="M28 64h1v1h-1v-1z" fill="rgb(16,74,98)"/>
<path d="M37 64h7v1h-7v-1z" fill="rgb(16,16,16)"/>
<path d="M44 64h1v1h-1v-1z" fill="rgb(16,74,98)"/>
<path d="M45 64h2v1h-1v1h-1v1h-2v-1h1v-1h1v-1z" fill="rgb(16,115,148)"/>
<path d="M47 64h2v1h-2v-1z" fill="rgb(16,74,98)"/>
<path d="M63 64h1v1h-1v-1z" fill="rgb(16,16,16)"/>
<path d="M25 65h1v2h-1v-2z" fill="rgb(16,16,16)"/>
<path d="M26 65h1v1h-1v-1z" fill="rgb(16,74,98)"/>
<path d="M29 65h3v1h-3v-1z" fill="rgb(16,74,98)"/>
<path d="M43 65h1v1h-1v-1z" fill="rgb(16,74,98)"/>
<path d="M46 65h1v1h-1v-1z" fill="rgb(16,74,98)"/>
<path d="M47 65h2v1h-1v2h-1v2h-2v1h-2v1h-3v1h-6v-1h-3v-1h-2v-1h-1v-1h-1v-2h1v1h2v1h3v1h7
	v-1h3v-1h2v-1h1v-1h1v-1z" fill="rgb(90,197,230)"/>
<path d="M52 65h1v1h-1v-1z" fill="rgb(16,16,16)"/>
<path d="M53 65h1v3h-1v-3z" fill="rgb(16,74,98)"/>
<path d="M64 65h2v1h-2v-1z" fill="rgb(16,16,16)"/>
<path d="M70 65h1v2h-5v-1h4v-1z" fill="rgb(16,16,16)"/>
<path d="M26 66h1v1h-1v-1z" fill="rgb(90,197,230)"/>
<path d="M27 66h1v1h-1v-1z" fill="rgb(16,74,98)"/>
<path d="M32 66h1v1h-1v-1z" fill="rgb(16,74,98)"/>
<path d="M34 66h2v1h-2v-1z" fill="rgb(16,74,98)"/>
<path d="M40 66h3v1h-3v-1z" fill="rgb(16,74,98)"/>
<path d="M45 66h1v1h-1v-1z" fill="rgb(16,74,98)"/>
<path d="M51 66h1v1h-1v-1z" fill="rgb(16,16,16)"/>
<path d="M52 66h1v2h1v2h-1v-1h-1v-1h-1v-1h1v-1z" fill="rgb(65,156,189)"/>
<path d="M26 67h1v2h-1v-2z" fill="rgb(16,16,16)"/>
<path d="M28 67h2v1h-2v-1z" fill="rgb(16,74,98)"/>
<path d="M33 67h1v1h-1v-1z" fill="rgb(16,74,98)"/>
<path d="M34 67h2v1h4v1h-7v-1h1v-1z" fill="rgb(16,115,148)"/>
<path d="M36 67h4v1h-4v-1z" fill="rgb(16,74,98)"/>
<path d="M40 67h3v1h-3v-1z" fill="rgb(16,115,148)"/>
<path d="M43 67h2v1h-2v-1z" fill="rgb(16,74,98)"/>
<path d="M50 67h1v1h-1v-1z" fill="rgb(16,16,16)"/>
<path d="M30 68h3v1h-3v-1z" fill="rgb(16,74,98)"/>
<path d="M40 68h3v1h-3v-1z" fill="rgb(16,74,98)"/>
<path d="M49 68h1v1h-1v-1z" fill="rgb(16,16,16)"/>
<path d="M50 68h1v1h1v2h-1v-1h-1v1h-2v-1h1v-1h1v-1z" fill="rgb(65,156,189)"/>
<path d="M51 68h1v1h-1v-1z" fill="rgb(16,16,16)"/>
<path d="M54 68h1v1h-1v-1z" fill="rgb(16,74,98)"/>
<path d="M27 69h1v1h-1v-1z" fill="rgb(16,16,16)"/>
<path d="M33 69h7v1h-7v-1z" fill="rgb(16,74,98)"/>
<path d="M47 69h2v1h-2v-1z" fill="rgb(16,16,16)"/>
<path d="M52 69h1v1h1v1h-2v-2z" fill="rgb(16,16,16)"/>
<path d="M54 69h1v1h-1v-1z" fill="rgb(16,16,16)"/>
<path d="M28 70h1v1h-1v-1z" fill="rgb(16,16,16)"/>
<path d="M45 70h2v1h-2v-1z" fill="rgb(16,16,16)"/>
<path d="M47 70h1v1h-1v-1z" fill="rgb(16,74,98)"/>
<path d="M50 70h1v1h-1v-1z" fill="rgb(16,74,98)"/>
<path d="M29 71h2v1h-2v-1z" fill="rgb(16,16,16)"/>
<path d="M43 71h2v1h-2v-1z" fill="rgb(16,16,16)"/>
<path d="M48 71h4v1h-4v-1z" fill="rgb(16,16,16)"/>
<path d="M31 72h3v1h-3v-1z" fill="rgb(16,16,16)"/>
<path d="M40 72h3v1h-3v-1z" fill="rgb(16,16,16)"/>
<path d="M34 73h6v1h-6v-1z" fill="rgb(16,16,16)"/>
</svg>
