<?xml version="1.0" encoding="utf-8"?>
<!-- generated at drububu.com  -->
<!DOCTYPE svg PUBLIC "-//W3C//DTD SVG 1.1//EN" "http://www.w3.org/Graphics/SVG/1.1/DTD/svg11.dtd">
<svg version="1.1" preserveAspectRatio="xMinYMin meet" xmlns="http://www.w3.org/2000/svg" xmlns:xlink="http://www.w3.org/1999/xlink" x="0px" y="0px" width="96px" height="96px" viewBox="0 0 96 96">
<path d="M0 0h96v96h-96v-96z" fill="transparent"/>
<path d="M37 22h1v1h-1v-1z" fill="rgb(0,0,0)"/>
<path d="M36 23h1v1h-1v-1z" fill="rgb(90,74,16)"/>
<path d="M37 23h1v4h-1v3h-1v2h-1v1h-2v1h-1v-4h1v-2h1v-2h1v-1h1v-1h1v-1z" fill="rgb(205,172,74)"/>
<path d="M38 23h1v4h-1v-4z" fill="rgb(0,0,0)"/>
<path d="M35 24h1v1h-1v-1z" fill="rgb(90,74,16)"/>
<path d="M34 25h1v1h-1v-1z" fill="rgb(90,74,16)"/>
<path d="M33 26h1v2h-1v-2z" fill="rgb(90,74,16)"/>
<path d="M37 27h1v3h-1v-3z" fill="rgb(0,0,0)"/>
<path d="M32 28h1v2h-1v-2z" fill="rgb(90,74,16)"/>
<path d="M51 28h3v1h-3v-1z" fill="rgb(172,139,57)"/>
<path d="M54 28h1v1h-1v-1z" fill="rgb(131,106,41)"/>
<path d="M55 28h1v1h-1v-1z" fill="rgb(90,74,16)"/>
<path d="M56 28h1v2h-1v-2z" fill="rgb(0,0,0)"/>
<path d="M48 29h3v1h-3v-1z" fill="rgb(172,139,57)"/>
<path d="M51 29h5v1h-5v-1z" fill="rgb(255,255,139)"/>
<path d="M31 30h1v2h-1v-2z" fill="rgb(90,74,16)"/>
<path d="M36 30h1v1h-1v-1z" fill="rgb(0,0,0)"/>
<path d="M37 30h1v1h-1v-1z" fill="rgb(131,106,41)"/>
<path d="M46 30h2v1h-2v-1z" fill="rgb(172,139,57)"/>
<path d="M48 30h3v1h-3v-1z" fill="rgb(255,255,139)"/>
<path d="M51 30h1v1h-1v-1z" fill="rgb(90,74,16)"/>
<path d="M52 30h2v1h-1v1h-3v1h-2v1h-2v1h-2v1h-2v-1h1v-1h2v-1h2v-1h2v-1h3v-1z" fill="rgb(0,0,0)"/>
<path d="M54 30h1v1h-1v-1z" fill="rgb(255,222,82)"/>
<path d="M55 30h1v1h-1v-1z" fill="rgb(0,0,0)"/>
<path d="M36 31h1v1h-1v-1z" fill="rgb(131,106,41)"/>
<path d="M37 31h1v2h-1v2h-1v1h2v-1h1v-1h1v-1h1v2h-1v1h-1v1h1v-1h1v1h1v5h-1v2h-1v1h-1v1
	h-2v-1h-1v1h-3v-1h-3v-1h-1v-2h2v-5h1v2h1v1h2v-1h1v-2h-1v-1h-2v-2h1v1h1v-1h1v-2h1
	v-1z" fill="rgb(255,222,82)"/>
<path d="M38 31h1v1h-1v-1z" fill="rgb(131,106,41)"/>
<path d="M44 31h1v1h-1v-1z" fill="rgb(131,106,41)"/>
<path d="M45 31h1v1h-1v-1z" fill="rgb(172,139,57)"/>
<path d="M46 31h2v1h-2v-1z" fill="rgb(255,222,82)"/>
<path d="M48 31h1v1h-1v-1z" fill="rgb(90,74,16)"/>
<path d="M53 31h1v1h-1v-1z" fill="rgb(255,222,82)"/>
<path d="M54 31h1v1h-1v-1z" fill="rgb(0,0,0)"/>
<path d="M31 32h1v4h-1v-4z" fill="rgb(0,0,0)"/>
<path d="M35 32h1v2h-1v-2z" fill="rgb(131,106,41)"/>
<path d="M38 32h1v1h-1v-1z" fill="rgb(90,74,16)"/>
<path d="M40 32h1v1h-1v-1z" fill="rgb(90,74,16)"/>
<path d="M41 32h1v2h-1v-2z" fill="rgb(0,0,0)"/>
<path d="M43 32h1v1h-1v-1z" fill="rgb(131,106,41)"/>
<path d="M44 32h2v1h-2v-1z" fill="rgb(255,222,82)"/>
<path d="M46 32h1v1h-1v-1z" fill="rgb(90,74,16)"/>
<path d="M50 32h2v1h-2v-1z" fill="rgb(74,8,123)"/>
<path d="M52 32h1v1h-1v-1z" fill="rgb(205,172,74)"/>
<path d="M53 32h1v1h-1v-1z" fill="rgb(0,0,0)"/>
<path d="M33 33h2v1h-2v-1z" fill="rgb(90,74,16)"/>
<path d="M37 33h1v3h-2v-1h1v-2z" fill="rgb(205,172,74)"/>
<path d="M38 33h1v1h-1v-1z" fill="rgb(131,106,41)"/>
<path d="M39 33h1v1h-1v-1z" fill="rgb(90,74,16)"/>
<path d="M42 33h1v1h-1v-1z" fill="rgb(90,74,16)"/>
<path d="M43 33h1v1h-1v-1z" fill="rgb(255,222,82)"/>
<path d="M44 33h1v1h-1v-1z" fill="rgb(90,74,16)"/>
<path d="M48 33h2v1h-1v1h-1v1h-2v1h-2v-2h2v-1h2v-1z" fill="rgb(74,8,123)"/>
<path d="M50 33h1v1h-1v-1z" fill="rgb(90,74,16)"/>
<path d="M51 33h1v1h-1v-1z" fill="rgb(205,172,74)"/>
<path d="M52 33h1v2h-2v-1h1v-1z" fill="rgb(0,0,0)"/>
<path d="M32 34h1v2h-1v-2z" fill="rgb(90,74,16)"/>
<path d="M34 34h1v1h-1v-1z" fill="rgb(131,106,41)"/>
<path d="M38 34h1v1h-1v-1z" fill="rgb(90,74,16)"/>
<path d="M41 34h1v1h-1v-1z" fill="rgb(90,74,16)"/>
<path d="M42 34h1v1h-1v-1z" fill="rgb(255,222,82)"/>
<path d="M49 34h1v1h-1v-1z" fill="rgb(90,74,16)"/>
<path d="M50 34h1v1h1v1h-3v-1h1v-1z" fill="rgb(205,172,74)"/>
<path d="M62 34h1v5h-1v-3h-1v-1h1v-1z" fill="rgb(0,0,0)"/>
<path d="M40 35h1v1h-1v-1z" fill="rgb(90,74,16)"/>
<path d="M41 35h1v1h-1v-1z" fill="rgb(255,222,82)"/>
<path d="M48 35h1v1h-1v-1z" fill="rgb(90,74,16)"/>
<path d="M52 35h1v1h-1v-1z" fill="rgb(255,222,82)"/>
<path d="M53 35h1v1h-1v-1z" fill="rgb(0,0,0)"/>
<path d="M31 36h1v1h-1v-1z" fill="rgb(90,74,16)"/>
<path d="M32 36h1v1h-1v-1z" fill="rgb(255,222,82)"/>
<path d="M33 36h2v1h1v2h-1v1h-2v-1h-1v-2h1v-1z" fill="rgb(255,255,139)"/>
<path d="M39 36h1v1h-1v-1z" fill="rgb(172,139,57)"/>
<path d="M41 36h1v1h-1v-1z" fill="rgb(0,0,0)"/>
<path d="M42 36h2v1h-2v-1z" fill="rgb(172,139,57)"/>
<path d="M46 36h1v1h-1v-1z" fill="rgb(90,74,16)"/>
<path d="M47 36h2v1h-2v-1z" fill="rgb(205,172,74)"/>
<path d="M49 36h4v1h-4v-1z" fill="rgb(0,0,0)"/>
<path d="M58 36h1v1h-1v-1z" fill="rgb(0,0,0)"/>
<path d="M60 36h1v1h-1v-1z" fill="rgb(0,0,0)"/>
<path d="M61 36h1v3h-1v4h-2v-2h1v-3h1v-2z" fill="rgb(205,172,74)"/>
<path d="M68 36h1v1h-1v-1z" fill="rgb(131,106,41)"/>
<path d="M69 36h1v3h-1v-3z" fill="rgb(0,0,0)"/>
<path d="M30 37h1v2h-1v-2z" fill="rgb(0,0,0)"/>
<path d="M42 37h1v1h2v1h-3v-2z" fill="rgb(205,172,74)"/>
<path d="M43 37h1v1h-1v-1z" fill="rgb(0,0,0)"/>
<path d="M44 37h1v1h-1v-1z" fill="rgb(131,106,41)"/>
<path d="M45 37h2v1h-2v-1z" fill="rgb(205,172,74)"/>
<path d="M47 37h2v1h-2v-1z" fill="rgb(0,0,0)"/>
<path d="M57 37h1v2h-1v-2z" fill="rgb(0,0,0)"/>
<path d="M58 37h1v2h-1v-2z" fill="rgb(205,172,74)"/>
<path d="M59 37h1v1h-1v-1z" fill="rgb(0,0,0)"/>
<path d="M60 37h1v1h-1v-1z" fill="rgb(255,222,82)"/>
<path d="M66 37h2v1h-2v-1z" fill="rgb(131,106,41)"/>
<path d="M68 37h1v1h-1v-1z" fill="rgb(255,222,82)"/>
<path d="M45 38h2v1h-2v-1z" fill="rgb(0,0,0)"/>
<path d="M55 38h1v1h-1v-1z" fill="rgb(0,0,0)"/>
<path d="M59 38h1v3h-1v1h-1v-1h-1v-1h1v-1h1v-1z" fill="rgb(255,255,139)"/>
<path d="M65 38h1v1h-1v-1z" fill="rgb(131,106,41)"/>
<path d="M66 38h2v1h-1v2h1v-1h1v2h-2v1h-1v-2h-1v-2h1v-1z" fill="rgb(255,222,82)"/>
<path d="M68 38h1v1h-1v-1z" fill="rgb(205,172,74)"/>
<path d="M29 39h1v1h1v1h-2v-2z" fill="rgb(0,0,0)"/>
<path d="M30 39h1v1h-1v-1z" fill="rgb(255,255,255)"/>
<path d="M42 39h1v1h-1v-1z" fill="rgb(131,106,41)"/>
<path d="M43 39h1v1h-1v-1z" fill="rgb(90,74,16)"/>
<path d="M44 39h1v1h-1v-1z" fill="rgb(0,0,0)"/>
<path d="M45 39h2v1h-2v-1z" fill="transparent"/>
<path d="M47 39h2v1h-2v-1z" fill="rgb(82,82,82)"/>
<path d="M54 39h1v2h-1v-2z" fill="rgb(0,0,0)"/>
<path d="M55 39h1v2h1v1h-2v1h-1v-2h1v-2z" fill="rgb(205,172,74)"/>
<path d="M56 39h1v1h-1v-1z" fill="rgb(0,0,0)"/>
<path d="M57 39h1v1h-1v-1z" fill="rgb(205,172,74)"/>
<path d="M61 39h1v2h-1v-2z" fill="rgb(0,0,0)"/>
<path d="M62 39h1v1h-1v-1z" fill="transparent"/>
<path d="M63 39h2v1h-2v-1z" fill="rgb(131,106,41)"/>
<path d="M67 39h1v1h-1v-1z" fill="rgb(205,172,74)"/>
<path d="M68 39h1v1h-1v-1z" fill="rgb(131,106,41)"/>
<path d="M69 39h1v1h-1v-1z" fill="rgb(255,222,82)"/>
<path d="M70 39h1v2h-1v-2z" fill="rgb(0,0,0)"/>
<path d="M37 40h3v1h-3v-1z" fill="rgb(90,74,16)"/>
<path d="M42 40h3v1h-1v1h1v1h-2v1h1v1h-1v1h-2v1h-1v1h-3v1h-3v-1h-2v-1h-1v-1h2v1h3v-1h3
	v-1h1v-1h1v-2h1v-2z" fill="rgb(205,172,74)"/>
<path d="M45 40h1v1h-1v-1z" fill="rgb(0,0,0)"/>
<path d="M46 40h1v1h-1v-1z" fill="rgb(82,82,82)"/>
<path d="M47 40h1v1h1v1h-2v1h1v2h-1v1h2v1h1v1h1v1h1v1h1v1h-2v-1h-2v-1h-1v1h-1v-1h-2v1h1
	v1h-2v1h-1v1h-1v-1h-2v-1h-1v1h-1v1h-1v-2h-1v1h-1v-2h3v-1h3v-1h1v-1h3v-1h1v-1h-1
	v-2h1v-2h1v-1z" fill="rgb(197,197,197)"/>
<path d="M48 40h2v1h-2v-1z" fill="rgb(0,0,0)"/>
<path d="M56 40h1v1h-1v-1z" fill="rgb(131,106,41)"/>
<path d="M62 40h1v1h-1v-1z" fill="rgb(131,106,41)"/>
<path d="M63 40h1v1h-1v-1z" fill="rgb(205,172,74)"/>
<path d="M64 40h1v1h1v2h-1v1h-1v1h-1v-1h-2v-1h1v-1h1v-1h1v-1z" fill="rgb(255,255,139)"/>
<path d="M67 40h1v1h-1v-1z" fill="rgb(131,106,41)"/>
<path d="M69 40h1v1h-1v-1z" fill="rgb(205,172,74)"/>
<path d="M29 41h1v1h-1v-1z" fill="rgb(90,74,16)"/>
<path d="M30 41h1v1h-1v-1z" fill="rgb(74,8,123)"/>
<path d="M36 41h1v1h-1v-1z" fill="rgb(90,74,16)"/>
<path d="M37 41h1v1h-1v-1z" fill="rgb(255,255,255)"/>
<path d="M38 41h2v1h-2v-1z" fill="rgb(0,0,0)"/>
<path d="M44 41h1v1h-1v-1z" fill="rgb(0,0,0)"/>
<path d="M45 41h1v1h-1v-1z" fill="rgb(82,82,82)"/>
<path d="M49 41h1v1h-1v-1z" fill="rgb(82,82,82)"/>
<path d="M50 41h2v2h-1v-1h-1v-1z" fill="rgb(0,0,0)"/>
<path d="M53 41h1v3h-1v-3z" fill="rgb(0,0,0)"/>
<path d="M57 41h1v1h1v1h-1v1h1v-1h2v1h2v1h1v1h2v1h1v1h-1v1h1v1h-2v-1h-2v1h1v1h1v2h1v1h-2
	v-1h-2v-1h-1v1h1v1h2v1h1v2h1v1h-1v1h-3v-1h-2v-1h-1v-1h-1v-3h-1v-1h-1v-1h-2v-1
	h-1v-1h-1v-1h2v-1h1v-1h-1v-1h-1v-1h2v-1h1v-1h1v-1z" fill="rgb(255,222,82)"/>
<path d="M61 41h1v1h-1v-1z" fill="rgb(131,106,41)"/>
<path d="M62 41h1v1h-1v-1z" fill="rgb(255,222,82)"/>
<path d="M69 41h1v2h-1v-2z" fill="rgb(0,0,0)"/>
<path d="M28 42h1v3h-1v-3z" fill="rgb(0,0,0)"/>
<path d="M35 42h1v2h-1v-2z" fill="rgb(90,74,16)"/>
<path d="M36 42h2v1h-2v-1z" fill="rgb(0,0,0)"/>
<path d="M38 42h1v1h-1v-1z" fill="rgb(74,8,123)"/>
<path d="M39 42h1v1h-1v-1z" fill="rgb(90,74,16)"/>
<path d="M45 42h1v1h-1v-1z" fill="rgb(0,0,0)"/>
<path d="M47 42h2v1h-2v-1z" fill="rgb(82,82,82)"/>
<path d="M49 42h2v1h-1v1h-2v-1h1v-1z" fill="rgb(255,255,255)"/>
<path d="M55 42h1v1h-1v-1z" fill="rgb(131,106,41)"/>
<path d="M61 42h1v1h-1v-1z" fill="rgb(255,222,82)"/>
<path d="M67 42h2v1h-1v2h-2v1h-2v-1h1v-1h1v-1h1v-1z" fill="rgb(205,172,74)"/>
<path d="M30 43h1v1h-1v-1z" fill="rgb(90,74,16)"/>
<path d="M31 43h1v1h-1v-1z" fill="rgb(205,172,74)"/>
<path d="M36 43h2v1h-2v-1z" fill="rgb(74,8,123)"/>
<path d="M38 43h1v1h-1v-1z" fill="rgb(90,74,16)"/>
<path d="M43 43h2v1h-2v-1z" fill="rgb(90,74,16)"/>
<path d="M50 43h1v2h-2v-1h1v-1z" fill="rgb(0,0,0)"/>
<path d="M54 43h1v1h-1v-1z" fill="rgb(131,106,41)"/>
<path d="M58 43h1v1h-1v-1z" fill="rgb(205,172,74)"/>
<path d="M65 43h1v1h-1v-1z" fill="rgb(255,222,82)"/>
<path d="M68 43h1v1h-1v-1z" fill="rgb(0,0,0)"/>
<path d="M29 44h1v1h-1v-1z" fill="rgb(205,172,74)"/>
<path d="M44 44h1v1h-1v-1z" fill="rgb(0,0,0)"/>
<path d="M48 44h1v1h-1v-1z" fill="rgb(82,82,82)"/>
<path d="M51 44h2v1h-2v-1z" fill="rgb(131,106,41)"/>
<path d="M64 44h1v1h-1v-1z" fill="rgb(255,222,82)"/>
<path d="M68 44h6v1h-6v-1z" fill="rgb(131,106,41)"/>
<path d="M29 45h1v1h-1v-1z" fill="rgb(0,0,0)"/>
<path d="M30 45h1v1h-1v-1z" fill="rgb(172,139,57)"/>
<path d="M31 45h1v1h-1v-1z" fill="rgb(90,74,16)"/>
<path d="M32 45h1v1h-1v-1z" fill="rgb(131,106,41)"/>
<path d="M36 45h1v1h-1v-1z" fill="rgb(172,139,57)"/>
<path d="M43 45h2v1h-2v-1z" fill="rgb(172,139,57)"/>
<path d="M45 45h1v1h-1v-1z" fill="rgb(0,0,0)"/>
<path d="M47 45h4v1h3v1h-5v-1h-2v-1z" fill="rgb(255,255,255)"/>
<path d="M51 45h3v1h-3v-1z" fill="rgb(0,0,0)"/>
<path d="M66 45h2v1h-2v-1z" fill="rgb(131,106,41)"/>
<path d="M68 45h1v1h-1v-1z" fill="rgb(205,172,74)"/>
<path d="M69 45h1v2h-1v1h-2v-1h-1v-1h3v-1z" fill="rgb(255,255,139)"/>
<path d="M70 45h2v1h-1v1h-1v-2z" fill="rgb(255,222,82)"/>
<path d="M72 45h1v1h-1v-1z" fill="rgb(205,172,74)"/>
<path d="M73 45h1v1h-1v-1z" fill="rgb(0,0,0)"/>
<path d="M30 46h1v1h-1v-1z" fill="rgb(0,0,0)"/>
<path d="M33 46h3v1h-3v-1z" fill="rgb(90,74,16)"/>
<path d="M41 46h1v1h-1v-1z" fill="rgb(172,139,57)"/>
<path d="M42 46h3v1h-3v-1z" fill="rgb(0,0,0)"/>
<path d="M54 46h1v1h-1v-1z" fill="rgb(0,0,0)"/>
<path d="M71 46h1v1h-1v-1z" fill="rgb(205,172,74)"/>
<path d="M72 46h1v1h-1v-1z" fill="rgb(0,0,0)"/>
<path d="M31 47h1v1h-1v-1z" fill="rgb(0,0,0)"/>
<path d="M40 47h1v1h-1v-1z" fill="rgb(172,139,57)"/>
<path d="M41 47h1v1h-1v-1z" fill="rgb(0,0,0)"/>
<path d="M50 47h2v1h-2v-1z" fill="rgb(82,82,82)"/>
<path d="M52 47h2v1h-2v-1z" fill="rgb(0,0,0)"/>
<path d="M69 47h1v1h-1v-1z" fill="rgb(205,172,74)"/>
<path d="M70 47h2v1h-2v-1z" fill="rgb(0,0,0)"/>
<path d="M32 48h2v1h-2v-1z" fill="rgb(0,0,0)"/>
<path d="M37 48h1v1h-1v-1z" fill="rgb(172,139,57)"/>
<path d="M38 48h3v1h-3v-1z" fill="rgb(0,0,0)"/>
<path d="M51 48h1v1h-1v-1z" fill="rgb(0,0,0)"/>
<path d="M66 48h1v1h-1v-1z" fill="rgb(131,106,41)"/>
<path d="M67 48h1v1h-1v-1z" fill="rgb(205,172,74)"/>
<path d="M68 48h2v1h-2v-1z" fill="rgb(0,0,0)"/>
<path d="M31 49h1v1h-1v-1z" fill="rgb(0,0,0)"/>
<path d="M32 49h2v2h-3v-1h1v-1z" fill="rgb(197,197,197)"/>
<path d="M34 49h4v1h-4v-1z" fill="rgb(0,0,0)"/>
<path d="M45 49h2v1h1v1h1v1h1v1h-2v-1h-1v-1h-1v-1h-1v-1z" fill="rgb(255,255,255)"/>
<path d="M48 49h1v1h-1v-1z" fill="rgb(82,82,82)"/>
<path d="M52 49h1v1h-1v-1z" fill="rgb(0,0,0)"/>
<path d="M63 49h2v1h-2v-1z" fill="rgb(205,172,74)"/>
<path d="M67 49h1v1h-1v-1z" fill="rgb(0,0,0)"/>
<path d="M30 50h1v1h-1v-1z" fill="rgb(0,0,0)"/>
<path d="M34 50h1v2h1v-1h1v2h1v-1h1v-1h1v1h2v1h1v-1h1v-1h1v1h1v4h1v2h-1v-1h-1v-2h-1v4h-1
	v-3h-1v-2h-1v2h-1v2h-1v-2h-1v-2h-1v1h-1v2h-1v1h-1v-3h1v-2h-2v1h-2v-1h1v-1h1v-1
	h1v-1z" fill="rgb(255,255,255)"/>
<path d="M48 50h1v1h-1v-1z" fill="rgb(197,197,197)"/>
<path d="M49 50h2v1h-1v1h-1v-2z" fill="rgb(82,82,82)"/>
<path d="M53 50h1v1h-1v-1z" fill="rgb(0,0,0)"/>
<path d="M64 50h1v1h-1v-1z" fill="rgb(0,0,0)"/>
<path d="M65 50h2v1h-2v-1z" fill="rgb(205,172,74)"/>
<path d="M67 50h1v1h-1v-1z" fill="rgb(255,222,82)"/>
<path d="M68 50h1v1h-1v-1z" fill="rgb(0,0,0)"/>
<path d="M31 51h1v1h-1v-1z" fill="rgb(0,0,0)"/>
<path d="M32 51h1v1h-1v-1z" fill="rgb(82,82,82)"/>
<path d="M45 51h1v1h-1v-1z" fill="rgb(82,82,82)"/>
<path d="M46 51h1v1h-1v-1z" fill="rgb(197,197,197)"/>
<path d="M50 51h1v1h-1v-1z" fill="rgb(205,172,74)"/>
<path d="M51 51h2v1h-2v-1z" fill="rgb(0,0,0)"/>
<path d="M53 51h1v1h-1v-1z" fill="rgb(82,82,82)"/>
<path d="M54 51h2v1h1v1h-2v1h-3v1h-3v8h-2v-1h-2v-4h1v1h1v-1h1v-3h-1v-2h1v1h3v-2h3v-1z" fill="rgb(205,172,74)"/>
<path d="M65 51h2v1h-1v1h-1v-2z" fill="rgb(0,0,0)"/>
<path d="M67 51h1v1h-1v-1z" fill="rgb(131,106,41)"/>
<path d="M68 51h1v1h-1v-1z" fill="rgb(205,172,74)"/>
<path d="M69 51h1v2h-3v-1h2v-1z" fill="rgb(0,0,0)"/>
<path d="M31 52h1v1h-1v-1z" fill="rgb(82,82,82)"/>
<path d="M46 52h1v1h-1v-1z" fill="rgb(82,82,82)"/>
<path d="M47 52h1v1h-1v-1z" fill="rgb(0,0,0)"/>
<path d="M50 52h1v2h-1v-2z" fill="rgb(82,82,82)"/>
<path d="M61 52h1v1h-1v-1z" fill="rgb(205,172,74)"/>
<path d="M66 52h1v1h-1v-1z" fill="transparent"/>
<path d="M30 53h1v1h-1v-1z" fill="rgb(82,82,82)"/>
<path d="M33 53h1v1h-1v-1z" fill="rgb(197,197,197)"/>
<path d="M34 53h1v1h-1v-1z" fill="rgb(82,82,82)"/>
<path d="M46 53h1v2h-1v-2z" fill="rgb(0,0,0)"/>
<path d="M48 53h2v1h-2v-1z" fill="rgb(0,0,0)"/>
<path d="M55 53h2v1h-2v-1z" fill="rgb(0,0,0)"/>
<path d="M57 53h1v1h-1v-1z" fill="rgb(205,172,74)"/>
<path d="M62 53h2v1h-2v-1z" fill="rgb(131,106,41)"/>
<path d="M66 53h1v1h-1v-1z" fill="rgb(0,0,0)"/>
<path d="M30 54h3v1h-3v-1z" fill="rgb(0,0,0)"/>
<path d="M33 54h1v1h-1v-1z" fill="rgb(82,82,82)"/>
<path d="M34 54h1v1h-1v-1z" fill="rgb(197,197,197)"/>
<path d="M37 54h1v1h-1v-1z" fill="rgb(197,197,197)"/>
<path d="M41 54h1v1h-1v-1z" fill="rgb(197,197,197)"/>
<path d="M52 54h3v1h-2v1h-3v-1h2v-1z" fill="rgb(0,0,0)"/>
<path d="M55 54h2v2h1v1h1v1h-1v2h-1v2h-1v2h-3v-2h1v-1h1v-4h-1v-1h-1v-1h2v-1z" fill="rgb(131,106,41)"/>
<path d="M57 54h1v2h-1v-2z" fill="rgb(0,0,0)"/>
<path d="M64 54h2v1h1v-1h1v2h-2v1h-1v-2h-1v-1z" fill="rgb(0,0,0)"/>
<path d="M66 54h1v1h-1v-1z" fill="rgb(255,222,82)"/>
<path d="M33 55h1v2h-1v-2z" fill="rgb(0,0,0)"/>
<path d="M36 55h1v1h-1v-1z" fill="rgb(197,197,197)"/>
<path d="M37 55h1v1h-1v-1z" fill="rgb(82,82,82)"/>
<path d="M41 55h1v1h-1v-1z" fill="rgb(82,82,82)"/>
<path d="M44 55h1v1h-1v-1z" fill="rgb(197,197,197)"/>
<path d="M46 55h1v1h-1v-1z" fill="rgb(197,197,197)"/>
<path d="M47 55h1v3h-1v-3z" fill="rgb(0,0,0)"/>
<path d="M49 55h1v1h-1v-1z" fill="rgb(131,106,41)"/>
<path d="M36 56h2v1h-1v1h-2v-1h1v-1z" fill="rgb(0,0,0)"/>
<path d="M38 56h1v1h-1v-1z" fill="rgb(197,197,197)"/>
<path d="M40 56h1v1h-1v-1z" fill="rgb(197,197,197)"/>
<path d="M41 56h1v1h-1v-1z" fill="rgb(0,0,0)"/>
<path d="M42 56h1v1h-1v-1z" fill="rgb(197,197,197)"/>
<path d="M44 56h1v1h1v1h-1v10h-1v-8h-1v5h-1v-8h1v2h1v-3z" fill="rgb(0,0,0)"/>
<path d="M49 56h1v7h-1v-7z" fill="rgb(0,0,0)"/>
<path d="M53 56h1v1h-1v-1z" fill="rgb(0,0,0)"/>
<path d="M58 56h1v1h-1v-1z" fill="rgb(0,0,0)"/>
<path d="M32 57h1v2h1v1h-2v-3z" fill="rgb(0,0,0)"/>
<path d="M33 57h1v1h-1v-1z" fill="rgb(197,197,197)"/>
<path d="M37 57h1v1h-1v-1z" fill="rgb(205,172,74)"/>
<path d="M38 57h1v1h-1v-1z" fill="rgb(0,0,0)"/>
<path d="M40 57h1v1h-1v-1z" fill="rgb(0,0,0)"/>
<path d="M41 57h1v5h-2v-1h-2v-3h1v1h1v-1h1v-1z" fill="rgb(205,172,74)"/>
<path d="M54 57h1v4h-1v-4z" fill="rgb(0,0,0)"/>
<path d="M59 57h1v1h-1v-1z" fill="rgb(0,0,0)"/>
<path d="M66 57h1v2h-1v-2z" fill="rgb(0,0,0)"/>
<path d="M33 58h1v1h-1v-1z" fill="rgb(255,255,255)"/>
<path d="M34 58h1v1h-1v-1z" fill="rgb(0,0,0)"/>
<path d="M35 58h1v1h-1v-1z" fill="rgb(82,82,82)"/>
<path d="M37 58h1v3h-1v-3z" fill="rgb(0,0,0)"/>
<path d="M39 58h1v1h-1v-1z" fill="rgb(0,0,0)"/>
<path d="M46 58h1v1h-1v-1z" fill="rgb(0,0,0)"/>
<path d="M58 58h1v2h-1v-2z" fill="rgb(0,0,0)"/>
<path d="M60 58h1v1h-1v-1z" fill="rgb(0,0,0)"/>
<path d="M61 58h1v1h-1v-1z" fill="rgb(205,172,74)"/>
<path d="M65 58h1v1h1v2h-1v2h-1v2h-1v-1h-2v-1h1v-4h2v-1z" fill="rgb(205,172,74)"/>
<path d="M61 59h1v1h-1v-1z" fill="rgb(0,0,0)"/>
<path d="M62 59h1v1h-1v-1z" fill="rgb(131,106,41)"/>
<path d="M67 59h1v2h-1v-2z" fill="rgb(0,0,0)"/>
<path d="M57 60h1v2h-1v-2z" fill="rgb(0,0,0)"/>
<path d="M62 60h1v3h-1v-3z" fill="rgb(0,0,0)"/>
<path d="M38 61h1v3h-1v-3z" fill="rgb(0,0,0)"/>
<path d="M39 61h1v1h2v2h-3v-3z" fill="rgb(255,222,82)"/>
<path d="M53 61h1v1h-1v-1z" fill="rgb(0,0,0)"/>
<path d="M66 61h1v2h-1v-2z" fill="rgb(0,0,0)"/>
<path d="M45 62h2v1h1v5h-1v-1h-2v-5z" fill="rgb(255,222,82)"/>
<path d="M52 62h1v2h-1v-2z" fill="rgb(0,0,0)"/>
<path d="M56 62h1v2h-1v-2z" fill="rgb(0,0,0)"/>
<path d="M48 63h1v5h-1v-5z" fill="rgb(0,0,0)"/>
<path d="M61 63h1v2h-1v-2z" fill="rgb(0,0,0)"/>
<path d="M65 63h1v2h-1v-2z" fill="rgb(0,0,0)"/>
<path d="M38 64h1v1h-1v-1z" fill="rgb(90,74,16)"/>
<path d="M39 64h2v1h-1v1h-2v-1h1v-1z" fill="rgb(255,255,139)"/>
<path d="M41 64h1v1h-1v-1z" fill="rgb(205,172,74)"/>
<path d="M53 64h3v1h-3v-1z" fill="rgb(0,0,0)"/>
<path d="M62 64h2v2h-3v-1h1v-1z" fill="rgb(255,222,82)"/>
<path d="M37 65h1v2h-1v-2z" fill="rgb(0,0,0)"/>
<path d="M40 65h1v2h-1v-2z" fill="rgb(205,172,74)"/>
<path d="M41 65h1v2h-1v-2z" fill="rgb(0,0,0)"/>
<path d="M60 65h1v2h-1v-2z" fill="rgb(0,0,0)"/>
<path d="M64 65h1v2h-1v-2z" fill="rgb(0,0,0)"/>
<path d="M38 66h1v1h-1v-1z" fill="rgb(205,172,74)"/>
<path d="M39 66h1v1h-1v-1z" fill="rgb(131,106,41)"/>
<path d="M61 66h1v1h-1v-1z" fill="rgb(131,106,41)"/>
<path d="M62 66h1v1h-1v-1z" fill="rgb(205,172,74)"/>
<path d="M63 66h1v1h-1v-1z" fill="rgb(131,106,41)"/>
<path d="M38 67h3v1h-3v-1z" fill="rgb(0,0,0)"/>
<path d="M45 67h2v2h-3v-1h1v-1z" fill="rgb(255,255,139)"/>
<path d="M61 67h3v1h-3v-1z" fill="rgb(0,0,0)"/>
<path d="M43 68h1v2h-1v-2z" fill="rgb(0,0,0)"/>
<path d="M47 68h1v2h-1v-2z" fill="rgb(0,0,0)"/>
<path d="M44 69h1v1h-1v-1z" fill="rgb(131,106,41)"/>
<path d="M45 69h1v1h-1v-1z" fill="rgb(205,172,74)"/>
<path d="M46 69h1v1h-1v-1z" fill="rgb(131,106,41)"/>
<path d="M44 70h3v1h-3v-1z" fill="rgb(0,0,0)"/>
</svg>
