<?xml version="1.0" encoding="utf-8"?>
<!-- generated at drububu.com  -->
<!DOCTYPE svg PUBLIC "-//W3C//DTD SVG 1.1//EN" "http://www.w3.org/Graphics/SVG/1.1/DTD/svg11.dtd">
<svg version="1.1" preserveAspectRatio="xMinYMin meet" xmlns="http://www.w3.org/2000/svg" xmlns:xlink="http://www.w3.org/1999/xlink" x="0px" y="0px" width="96px" height="96px" viewBox="0 0 96 96">
<path d="M0 0h96v96h-96v-96z" fill="transparent"/>
<path d="M25 24h1v1h-1v-1z" fill="rgb(115,32,24)"/>
<path d="M24 25h1v6h-1v-6z" fill="rgb(115,32,24)"/>
<path d="M25 25h1v4h1v2h1v2h1v3h-1v2h-2v-2h-1v-4h-1v-1h1v-6z" fill="rgb(213,65,82)"/>
<path d="M26 25h1v4h-1v-4z" fill="rgb(0,0,0)"/>
<path d="M51 26h1v1h-1v-1z" fill="rgb(0,0,0)"/>
<path d="M70 26h2v1h-2v-1z" fill="rgb(197,164,106)"/>
<path d="M50 27h1v2h-1v-2z" fill="rgb(115,32,24)"/>
<path d="M51 27h1v2h1v1h-3v-1h1v-2z" fill="rgb(246,115,74)"/>
<path d="M52 27h1v2h-1v-2z" fill="rgb(0,0,0)"/>
<path d="M70 27h1v1h-1v-1z" fill="rgb(115,90,65)"/>
<path d="M71 27h1v1h-1v-1z" fill="rgb(255,238,164)"/>
<path d="M72 27h1v1h-1v-1z" fill="rgb(197,164,106)"/>
<path d="M71 28h1v1h-1v-1z" fill="rgb(115,90,65)"/>
<path d="M72 28h1v1h-1v-1z" fill="rgb(255,238,164)"/>
<path d="M73 28h1v1h-1v-1z" fill="rgb(115,90,65)"/>
<path d="M27 29h1v2h-1v-2z" fill="rgb(0,0,0)"/>
<path d="M49 29h1v1h-1v-1z" fill="rgb(115,32,24)"/>
<path d="M53 29h1v2h-1v-2z" fill="rgb(0,0,0)"/>
<path d="M72 29h1v2h-1v-2z" fill="rgb(197,164,106)"/>
<path d="M73 29h1v2h1v3h1v4h-1v1h-1v1h-1v1h-1v1h1v2h-1v1h-1v2h-1v1h-3v-1h1v-2h1v-2h-2v1
	h-1v1h-2v1h-2v1h-5v-1h-2v-1h-1v-2h-1v-3h1v-3h1v-1h2v-1h1v-1h1v-1h1v3h1v-1h2v-1
	h2v1h2v1h2v-1h2v-1h1v-2h1v-3z" fill="rgb(255,238,164)"/>
<path d="M74 29h1v1h-1v-1z" fill="rgb(115,90,65)"/>
<path d="M32 30h2v1h-2v-1z" fill="rgb(115,90,65)"/>
<path d="M47 30h2v1h-2v-1z" fill="rgb(115,32,24)"/>
<path d="M49 30h1v1h-1v-1z" fill="rgb(246,115,74)"/>
<path d="M50 30h1v1h-1v-1z" fill="rgb(213,65,82)"/>
<path d="M51 30h1v1h-1v-1z" fill="rgb(0,0,0)"/>
<path d="M52 30h1v1h-1v-1z" fill="rgb(213,65,82)"/>
<path d="M74 30h1v1h-1v-1z" fill="rgb(197,164,106)"/>
<path d="M75 30h1v3h-1v-3z" fill="rgb(115,90,65)"/>
<path d="M23 31h1v1h-1v-1z" fill="rgb(115,32,24)"/>
<path d="M28 31h1v2h-1v-2z" fill="rgb(0,0,0)"/>
<path d="M31 31h1v1h-1v-1z" fill="rgb(115,90,65)"/>
<path d="M32 31h1v1h-1v-1z" fill="rgb(197,164,106)"/>
<path d="M33 31h1v1h-1v-1z" fill="rgb(222,189,139)"/>
<path d="M34 31h2v1h-2v-1z" fill="rgb(115,90,65)"/>
<path d="M45 31h2v1h-2v-1z" fill="rgb(115,32,24)"/>
<path d="M47 31h2v1h-1v1h-2v1h-1v1h-1v1h-1v1h-1v1h-2v-1h1v-1h1v-3h1v1h1v-1h1v-1h2v-1z" fill="rgb(246,115,74)"/>
<path d="M49 31h1v1h-1v-1z" fill="rgb(213,65,82)"/>
<path d="M50 31h1v2h-1v2h-2v1h-2v1h-1v1h-1v1h-1v-1h-1v-1h2v-2h1v-1h2v-1h2v-1h1v-1z" fill="rgb(0,0,0)"/>
<path d="M51 31h1v2h-1v-2z" fill="rgb(213,65,82)"/>
<path d="M52 31h1v2h-1v-2z" fill="rgb(0,0,0)"/>
<path d="M71 31h1v3h-1v-3z" fill="rgb(197,164,106)"/>
<path d="M72 31h1v1h-1v-1z" fill="rgb(222,189,139)"/>
<path d="M24 32h1v4h-1v-4z" fill="rgb(115,32,24)"/>
<path d="M32 32h1v2h-1v-2z" fill="rgb(115,90,65)"/>
<path d="M33 32h1v1h1v1h1v3h-1v-1h-1v1h1v1h1v3h-1v1h-3v1h-2v-1h-1v-1h-1v-3h1v-2h2v-1h1
	v-1h1v-2z" fill="rgb(255,238,164)"/>
<path d="M34 32h1v1h-1v-1z" fill="rgb(222,189,139)"/>
<path d="M35 32h1v1h-1v-1z" fill="rgb(197,164,106)"/>
<path d="M36 32h1v1h-1v-1z" fill="rgb(115,90,65)"/>
<path d="M42 32h1v1h-1v-1z" fill="rgb(115,32,24)"/>
<path d="M44 32h1v1h-1v-1z" fill="rgb(115,32,24)"/>
<path d="M48 32h1v1h-1v-1z" fill="rgb(213,65,82)"/>
<path d="M59 32h1v1h-1v-1z" fill="rgb(197,164,106)"/>
<path d="M29 33h1v2h-1v-2z" fill="rgb(0,0,0)"/>
<path d="M35 33h1v1h-1v-1z" fill="rgb(222,189,139)"/>
<path d="M36 33h1v1h-1v-1z" fill="rgb(197,164,106)"/>
<path d="M37 33h1v2h-1v-2z" fill="rgb(0,0,0)"/>
<path d="M41 33h1v3h-1v-3z" fill="rgb(115,32,24)"/>
<path d="M43 33h1v1h-1v-1z" fill="rgb(115,32,24)"/>
<path d="M46 33h1v1h-1v-1z" fill="rgb(213,65,82)"/>
<path d="M50 33h1v2h-1v-2z" fill="rgb(213,65,82)"/>
<path d="M51 33h1v2h-1v-2z" fill="rgb(0,0,0)"/>
<path d="M58 33h1v1h-1v-1z" fill="rgb(197,164,106)"/>
<path d="M60 33h1v3h-1v-3z" fill="rgb(115,90,65)"/>
<path d="M63 33h2v1h-2v-1z" fill="rgb(197,164,106)"/>
<path d="M75 33h1v1h-1v-1z" fill="rgb(197,164,106)"/>
<path d="M76 33h1v5h-1v-5z" fill="rgb(0,0,0)"/>
<path d="M31 34h1v1h-1v-1z" fill="rgb(197,164,106)"/>
<path d="M36 34h1v3h-1v-3z" fill="rgb(222,189,139)"/>
<path d="M57 34h1v1h-1v-1z" fill="rgb(197,164,106)"/>
<path d="M61 34h2v1h-2v-1z" fill="rgb(197,164,106)"/>
<path d="M65 34h2v1h-2v-1z" fill="rgb(197,164,106)"/>
<path d="M69 34h2v1h-2v-1z" fill="rgb(197,164,106)"/>
<path d="M29 35h2v1h-2v-1z" fill="rgb(197,164,106)"/>
<path d="M37 35h1v5h-1v-2h-2v-1h2v-2z" fill="rgb(197,164,106)"/>
<path d="M38 35h1v5h-1v-5z" fill="rgb(0,0,0)"/>
<path d="M48 35h1v2h-1v1h-1v1h-2v1h-2v-1h1v-1h1v-1h1v-1h2v-1z" fill="rgb(32,32,106)"/>
<path d="M49 35h1v2h-1v-2z" fill="rgb(213,65,82)"/>
<path d="M50 35h1v2h-1v-2z" fill="rgb(0,0,0)"/>
<path d="M55 35h2v1h-2v-1z" fill="rgb(197,164,106)"/>
<path d="M67 35h2v1h-2v-1z" fill="rgb(197,164,106)"/>
<path d="M25 36h1v2h-1v-2z" fill="rgb(115,32,24)"/>
<path d="M28 36h1v2h-1v-2z" fill="rgb(197,164,106)"/>
<path d="M34 36h1v1h-1v-1z" fill="rgb(222,189,139)"/>
<path d="M40 36h1v1h-1v-1z" fill="rgb(115,32,24)"/>
<path d="M43 36h1v1h-1v-1z" fill="rgb(213,65,82)"/>
<path d="M54 36h1v1h-1v-1z" fill="rgb(197,164,106)"/>
<path d="M59 36h1v1h-1v-1z" fill="rgb(115,90,65)"/>
<path d="M39 37h1v1h-1v-1z" fill="rgb(115,32,24)"/>
<path d="M48 37h1v2h-1v1h-1v1h-2v1h-3v-1h2v-1h2v-1h1v-1h1v-1z" fill="rgb(213,65,82)"/>
<path d="M49 37h1v2h-1v-2z" fill="rgb(0,0,0)"/>
<path d="M53 37h1v2h-1v-2z" fill="rgb(197,164,106)"/>
<path d="M26 38h1v2h-1v-2z" fill="rgb(115,32,24)"/>
<path d="M27 38h1v1h-1v-1z" fill="rgb(197,164,106)"/>
<path d="M36 38h1v4h-1v-4z" fill="rgb(115,90,65)"/>
<path d="M39 38h1v1h2v1h-1v1h-1v5h-1v2h-1v-4h-3v-1h2v-1h1v-2h1v-2z" fill="rgb(246,115,74)"/>
<path d="M40 38h3v1h-3v-1z" fill="rgb(115,32,24)"/>
<path d="M75 38h1v1h-1v-1z" fill="rgb(0,0,0)"/>
<path d="M27 39h1v3h-1v-3z" fill="rgb(115,90,65)"/>
<path d="M42 39h1v1h1v1h-2v1h-1v1h-1v-2h1v-1h1v-1z" fill="rgb(0,0,0)"/>
<path d="M45 39h1v1h-1v-1z" fill="rgb(0,0,0)"/>
<path d="M48 39h1v1h-1v-1z" fill="rgb(0,0,0)"/>
<path d="M52 39h1v2h-1v-2z" fill="rgb(197,164,106)"/>
<path d="M53 39h1v1h-1v-1z" fill="rgb(222,189,139)"/>
<path d="M74 39h1v1h-1v-1z" fill="rgb(222,189,139)"/>
<path d="M75 39h2v1h-2v-1z" fill="rgb(115,90,65)"/>
<path d="M37 40h1v2h-1v-2z" fill="rgb(0,0,0)"/>
<path d="M47 40h1v1h-1v-1z" fill="rgb(0,0,0)"/>
<path d="M51 40h1v2h-1v-2z" fill="rgb(115,90,65)"/>
<path d="M73 40h1v1h-1v-1z" fill="rgb(222,189,139)"/>
<path d="M74 40h2v2h-1v1h-1v-1h-1v-1h1v-1z" fill="rgb(197,164,106)"/>
<path d="M76 40h1v2h-1v-2z" fill="rgb(0,0,0)"/>
<path d="M28 41h1v1h-1v-1z" fill="rgb(222,189,139)"/>
<path d="M35 41h1v1h-1v-1z" fill="rgb(197,164,106)"/>
<path d="M45 41h2v1h-2v-1z" fill="rgb(0,0,0)"/>
<path d="M52 41h1v2h-1v-2z" fill="rgb(222,189,139)"/>
<path d="M72 41h1v1h-1v-1z" fill="rgb(222,189,139)"/>
<path d="M26 42h1v1h-1v-1z" fill="rgb(115,90,65)"/>
<path d="M27 42h1v2h-1v-2z" fill="rgb(115,32,24)"/>
<path d="M28 42h1v1h-1v-1z" fill="rgb(115,90,65)"/>
<path d="M29 42h1v1h-1v-1z" fill="rgb(222,189,139)"/>
<path d="M32 42h1v1h-1v-1z" fill="rgb(222,189,139)"/>
<path d="M33 42h2v1h-2v-1z" fill="rgb(197,164,106)"/>
<path d="M35 42h1v1h-1v-1z" fill="rgb(115,90,65)"/>
<path d="M36 42h1v1h-1v-1z" fill="rgb(0,0,0)"/>
<path d="M41 42h1v6h-1v2h-1v1h-1v1h-2v1h-6v-1h-2v-1h6v-1h2v-2h2v-2h1v-3h1v-1z" fill="rgb(213,65,82)"/>
<path d="M42 42h1v1h-1v-1z" fill="rgb(115,32,24)"/>
<path d="M43 42h2v1h-2v-1z" fill="rgb(0,0,0)"/>
<path d="M45 42h2v1h1v1h-1v2h-1v2h-2v-1h-1v-4h2v-1z" fill="rgb(255,238,164)"/>
<path d="M47 42h1v1h-1v-1z" fill="rgb(115,90,65)"/>
<path d="M50 42h1v3h-1v-3z" fill="rgb(115,90,65)"/>
<path d="M51 42h1v1h1v2h-2v-3z" fill="rgb(197,164,106)"/>
<path d="M69 42h1v1h-1v-1z" fill="rgb(222,189,139)"/>
<path d="M73 42h1v2h-1v-2z" fill="rgb(222,189,139)"/>
<path d="M75 42h1v1h-1v-1z" fill="rgb(0,0,0)"/>
<path d="M25 43h1v1h-1v-1z" fill="rgb(115,90,65)"/>
<path d="M26 43h1v1h-1v-1z" fill="rgb(255,238,164)"/>
<path d="M28 43h1v1h-1v-1z" fill="rgb(213,65,82)"/>
<path d="M29 43h2v1h-2v-1z" fill="rgb(115,90,65)"/>
<path d="M31 43h2v1h-2v-1z" fill="rgb(197,164,106)"/>
<path d="M33 43h2v1h-2v-1z" fill="rgb(0,0,0)"/>
<path d="M42 43h1v5h-1v-5z" fill="rgb(0,0,0)"/>
<path d="M48 43h1v2h-1v-2z" fill="rgb(115,90,65)"/>
<path d="M53 43h1v2h-1v-2z" fill="rgb(222,189,139)"/>
<path d="M67 43h2v2h-1v-1h-1v-1z" fill="rgb(222,189,139)"/>
<path d="M74 43h1v4h-1v-4z" fill="rgb(0,0,0)"/>
<path d="M24 44h1v2h-1v-2z" fill="rgb(115,90,65)"/>
<path d="M25 44h1v6h1v1h1v1h1v1h2v1h2v1h3v1h3v1h-1v1h-2v1h3v1h-1v1h-6v-1h-1v-1h-1v2h-2
	v-1h-1v-1h-1v-2h-1v1h-1v-3h1v-2h-1v1h-1v-4h1v-4h1v-2z" fill="rgb(255,238,164)"/>
<path d="M26 44h1v1h-1v-1z" fill="rgb(115,32,24)"/>
<path d="M27 44h1v2h-1v-2z" fill="rgb(213,65,82)"/>
<path d="M28 44h3v1h2v-1h2v1h-1v1h-1v3h4v1h-2v1h-7v-1h-1v-2h1v-4z" fill="rgb(246,115,74)"/>
<path d="M31 44h2v1h-2v-1z" fill="rgb(0,0,0)"/>
<path d="M35 44h3v1h-3v-1z" fill="rgb(213,65,82)"/>
<path d="M47 44h1v1h-1v-1z" fill="rgb(0,0,0)"/>
<path d="M66 44h1v1h-1v-1z" fill="rgb(222,189,139)"/>
<path d="M67 44h1v2h-1v1h-1v1h-1v1h1v1h-1v1h1v-1h1v-1h3v-1h1v-1h1v-2h1v-1h1v3h1v1h1v1h-2
	v1h-3v1h-2v1h2v2h-1v3h-2v1h-6v-1h-2v-6h-1v-2h-1v-1h3v-1h3v-1h2v-1h1v-1z" fill="rgb(197,164,106)"/>
<path d="M72 44h1v1h-1v-1z" fill="rgb(222,189,139)"/>
<path d="M26 45h1v1h-1v-1z" fill="rgb(255,255,255)"/>
<path d="M34 45h1v1h-1v-1z" fill="rgb(115,32,24)"/>
<path d="M35 45h3v1h-3v-1z" fill="rgb(0,0,0)"/>
<path d="M47 45h1v1h-1v-1z" fill="rgb(222,189,139)"/>
<path d="M48 45h1v1h-1v-1z" fill="rgb(0,0,0)"/>
<path d="M49 45h4v1h-4v-1z" fill="rgb(115,32,24)"/>
<path d="M53 45h1v1h-1v-1z" fill="rgb(197,164,106)"/>
<path d="M54 45h1v1h-1v-1z" fill="rgb(222,189,139)"/>
<path d="M64 45h2v1h-2v-1z" fill="rgb(222,189,139)"/>
<path d="M71 45h1v2h-1v-2z" fill="rgb(222,189,139)"/>
<path d="M23 46h1v3h-1v-3z" fill="rgb(115,90,65)"/>
<path d="M26 46h1v2h-1v-2z" fill="rgb(0,0,0)"/>
<path d="M27 46h1v2h-1v-2z" fill="rgb(32,32,106)"/>
<path d="M33 46h1v1h-1v-1z" fill="rgb(164,65,82)"/>
<path d="M34 46h1v1h1v1h1v1h-3v-3z" fill="rgb(0,0,0)"/>
<path d="M35 46h1v1h-1v-1z" fill="rgb(255,255,255)"/>
<path d="M36 46h2v2h-2v-2z" fill="rgb(32,32,106)"/>
<path d="M46 46h1v1h-1v-1z" fill="rgb(222,189,139)"/>
<path d="M47 46h2v2h-1v-1h-1v-1z" fill="rgb(197,164,106)"/>
<path d="M49 46h2v1h-2v-1z" fill="rgb(0,0,0)"/>
<path d="M51 46h2v1h2v1h2v1h1v2h1v4h-1v2h-1v2h-2v1h-2v-1h-2v-1h-1v-3h1v-1h-1v-1h1v-3h-1
	v-1h1v-1h1v-1h-1v-1z" fill="rgb(246,115,74)"/>
<path d="M53 46h2v1h-2v-1z" fill="rgb(115,32,24)"/>
<path d="M55 46h2v1h-2v-1z" fill="rgb(222,189,139)"/>
<path d="M62 46h2v1h-2v-1z" fill="rgb(222,189,139)"/>
<path d="M67 46h1v1h-1v-1z" fill="rgb(222,189,139)"/>
<path d="M33 47h1v2h-1v-2z" fill="rgb(115,32,24)"/>
<path d="M43 47h1v1h-1v-1z" fill="rgb(222,189,139)"/>
<path d="M46 47h1v1h-1v-1z" fill="rgb(197,164,106)"/>
<path d="M47 47h1v1h-1v-1z" fill="rgb(222,189,139)"/>
<path d="M49 47h1v1h-1v-1z" fill="rgb(222,189,139)"/>
<path d="M50 47h1v1h-1v-1z" fill="rgb(255,238,164)"/>
<path d="M51 47h1v1h-1v-1z" fill="rgb(0,0,0)"/>
<path d="M55 47h2v1h-2v-1z" fill="rgb(115,32,24)"/>
<path d="M57 47h4v1h-4v-1z" fill="rgb(222,189,139)"/>
<path d="M66 47h1v1h-1v-1z" fill="rgb(222,189,139)"/>
<path d="M70 47h1v1h-1v-1z" fill="rgb(222,189,139)"/>
<path d="M75 47h1v1h-1v-1z" fill="rgb(115,90,65)"/>
<path d="M26 48h1v2h-1v-2z" fill="rgb(115,32,24)"/>
<path d="M41 48h1v2h-1v-2z" fill="rgb(0,0,0)"/>
<path d="M42 48h2v1h-1v1h1v1h1v-1h1v-1h1v-1h1v3h-1v3h3v1h-1v1h-2v2h-2v-1h-1v1h1v1h1v2h-5
	v1h-2v1h-1v1h-3v-2h3v-1h1v-1h1v-1h-1v-2h1v-1h1v-2h-2v1h-3v-1h1v-1h2v-1h1v-1h1
	v-1h1v-2z" fill="rgb(197,164,106)"/>
<path d="M44 48h1v1h-1v-1z" fill="rgb(222,189,139)"/>
<path d="M45 48h1v1h-1v-1z" fill="rgb(197,164,106)"/>
<path d="M46 48h1v1h-1v-1z" fill="rgb(222,189,139)"/>
<path d="M48 48h1v1h-1v-1z" fill="rgb(222,189,139)"/>
<path d="M49 48h1v1h-1v-1z" fill="rgb(255,238,164)"/>
<path d="M50 48h1v1h-1v-1z" fill="rgb(0,0,0)"/>
<path d="M57 48h1v1h-1v-1z" fill="rgb(115,32,24)"/>
<path d="M65 48h1v1h-1v-1z" fill="rgb(222,189,139)"/>
<path d="M66 48h1v1h-1v-1z" fill="rgb(255,238,164)"/>
<path d="M67 48h3v1h-3v-1z" fill="rgb(222,189,139)"/>
<path d="M76 48h1v1h-1v-1z" fill="rgb(115,90,65)"/>
<path d="M22 49h1v5h-1v-5z" fill="rgb(115,90,65)"/>
<path d="M23 49h1v1h-1v-1z" fill="rgb(222,189,139)"/>
<path d="M28 49h1v1h-1v-1z" fill="rgb(0,0,0)"/>
<path d="M29 49h1v1h-1v-1z" fill="rgb(115,32,24)"/>
<path d="M43 49h1v1h-1v-1z" fill="rgb(222,189,139)"/>
<path d="M44 49h1v1h-1v-1z" fill="rgb(197,164,106)"/>
<path d="M45 49h1v1h-1v-1z" fill="rgb(222,189,139)"/>
<path d="M48 49h1v1h-1v-1z" fill="rgb(115,90,65)"/>
<path d="M49 49h1v1h-1v-1z" fill="rgb(0,0,0)"/>
<path d="M58 49h1v2h-1v-2z" fill="rgb(115,32,24)"/>
<path d="M66 49h1v1h-1v-1z" fill="rgb(222,189,139)"/>
<path d="M74 49h2v1h-2v-1z" fill="rgb(0,0,0)"/>
<path d="M27 50h1v1h-1v-1z" fill="rgb(115,32,24)"/>
<path d="M40 50h1v1h-1v-1z" fill="rgb(0,0,0)"/>
<path d="M44 50h1v1h-1v-1z" fill="rgb(222,189,139)"/>
<path d="M48 50h1v1h-1v-1z" fill="rgb(222,189,139)"/>
<path d="M49 50h1v2h-1v1h-1v-2h1v-1z" fill="rgb(255,238,164)"/>
<path d="M50 50h1v3h-1v-3z" fill="rgb(0,0,0)"/>
<path d="M65 50h1v1h-1v-1z" fill="rgb(222,189,139)"/>
<path d="M71 50h2v1h-2v-1z" fill="rgb(115,90,65)"/>
<path d="M73 50h1v1h-1v-1z" fill="rgb(0,0,0)"/>
<path d="M28 51h1v1h-1v-1z" fill="rgb(115,32,24)"/>
<path d="M39 51h1v1h-1v-1z" fill="rgb(0,0,0)"/>
<path d="M47 51h1v2h-1v-2z" fill="rgb(222,189,139)"/>
<path d="M59 51h1v6h-1v4h-1v-5h1v-5z" fill="rgb(115,32,24)"/>
<path d="M69 51h2v1h-2v-1z" fill="rgb(115,90,65)"/>
<path d="M71 51h1v1h-1v-1z" fill="rgb(197,164,106)"/>
<path d="M72 51h1v1h-1v-1z" fill="rgb(0,0,0)"/>
<path d="M25 52h1v1h-1v-1z" fill="rgb(222,189,139)"/>
<path d="M29 52h2v1h-2v-1z" fill="rgb(0,0,0)"/>
<path d="M37 52h2v1h-2v-1z" fill="rgb(0,0,0)"/>
<path d="M49 52h1v1h-1v-1z" fill="rgb(222,189,139)"/>
<path d="M71 52h1v1h-1v-1z" fill="rgb(115,90,65)"/>
<path d="M24 53h1v1h-1v-1z" fill="rgb(222,189,139)"/>
<path d="M31 53h6v1h-6v-1z" fill="rgb(0,0,0)"/>
<path d="M41 53h1v1h-1v-1z" fill="rgb(222,189,139)"/>
<path d="M47 53h1v1h-1v-1z" fill="rgb(255,238,164)"/>
<path d="M48 53h1v1h-1v-1z" fill="rgb(222,189,139)"/>
<path d="M49 53h1v1h-1v-1z" fill="rgb(115,90,65)"/>
<path d="M71 53h1v1h-1v-1z" fill="rgb(0,0,0)"/>
<path d="M23 54h1v2h-1v-2z" fill="rgb(115,90,65)"/>
<path d="M24 54h1v1h-1v-1z" fill="rgb(197,164,106)"/>
<path d="M33 54h3v1h-3v-1z" fill="rgb(222,189,139)"/>
<path d="M39 54h2v2h-1v1h-1v-1h-3v-1h3v-1z" fill="rgb(222,189,139)"/>
<path d="M50 54h1v1h-1v-1z" fill="rgb(115,90,65)"/>
<path d="M70 54h1v1h-1v-1z" fill="rgb(115,90,65)"/>
<path d="M49 55h1v1h-1v-1z" fill="rgb(115,90,65)"/>
<path d="M58 55h1v1h-1v-1z" fill="rgb(213,65,82)"/>
<path d="M70 55h1v2h-1v-2z" fill="rgb(0,0,0)"/>
<path d="M23 56h1v2h-1v-2z" fill="rgb(0,0,0)"/>
<path d="M47 56h1v2h-1v-2z" fill="rgb(115,90,65)"/>
<path d="M48 56h2v1h-2v-1z" fill="rgb(0,0,0)"/>
<path d="M25 57h1v1h-1v-1z" fill="rgb(222,189,139)"/>
<path d="M38 57h1v2h-3v-1h2v-1z" fill="rgb(222,189,139)"/>
<path d="M44 57h1v1h-1v-1z" fill="rgb(115,90,65)"/>
<path d="M48 57h2v1h1v1h2v1h2v-1h2v-2h1v4h1v3h-1v2h-1v2h-1v2h-1v-2h-1v2h-1v-2h-1v-1h1v-1
	h1v-4h-2v-1h-2v-1h-1v-1h-1v-2z" fill="rgb(213,65,82)"/>
<path d="M59 57h3v1h-3v-1z" fill="rgb(0,0,0)"/>
<path d="M68 57h2v1h-2v-1z" fill="rgb(0,0,0)"/>
<path d="M24 58h1v2h-1v-2z" fill="rgb(0,0,0)"/>
<path d="M25 58h1v2h-1v-2z" fill="rgb(197,164,106)"/>
<path d="M40 58h1v1h-1v-1z" fill="rgb(222,189,139)"/>
<path d="M45 58h3v1h1v1h-2v-1h-2v-1z" fill="rgb(0,0,0)"/>
<path d="M62 58h5v1h-5v-1z" fill="rgb(0,0,0)"/>
<path d="M67 58h1v1h-1v-1z" fill="rgb(115,90,65)"/>
<path d="M26 59h1v1h1v1h2v-2h1v1h1v1h6v1h-3v1h-4v-1h-4v-1h-1v-2z" fill="rgb(222,189,139)"/>
<path d="M39 59h1v1h-1v-1z" fill="rgb(222,189,139)"/>
<path d="M46 59h1v2h-1v-2z" fill="rgb(115,90,65)"/>
<path d="M25 60h1v1h-1v-1z" fill="rgb(115,90,65)"/>
<path d="M38 60h1v1h-1v-1z" fill="rgb(222,189,139)"/>
<path d="M47 60h1v4h-1v2h-1v-4h1v-2z" fill="rgb(164,65,82)"/>
<path d="M48 60h1v4h-1v-4z" fill="rgb(115,32,24)"/>
<path d="M49 60h1v1h-1v-1z" fill="rgb(0,0,0)"/>
<path d="M26 61h1v1h-1v-1z" fill="rgb(115,90,65)"/>
<path d="M41 61h6v1h-1v4h-1v-4h-4v-1z" fill="rgb(0,0,0)"/>
<path d="M50 61h2v1h-2v-1z" fill="rgb(0,0,0)"/>
<path d="M59 61h1v3h-1v-3z" fill="rgb(0,0,0)"/>
<path d="M27 62h2v1h-2v-1z" fill="rgb(115,90,65)"/>
<path d="M29 62h1v1h-1v-1z" fill="rgb(0,0,0)"/>
<path d="M30 62h1v1h-1v-1z" fill="rgb(197,164,106)"/>
<path d="M39 62h2v1h-2v-1z" fill="rgb(0,0,0)"/>
<path d="M41 62h4v4h-3v-1h-2v-2h1v-1z" fill="rgb(213,65,82)"/>
<path d="M52 62h2v1h-2v-1z" fill="rgb(0,0,0)"/>
<path d="M30 63h5v1h-5v-1z" fill="rgb(0,0,0)"/>
<path d="M38 63h1v1h-1v-1z" fill="rgb(0,0,0)"/>
<path d="M39 63h1v6h-1v-6z" fill="rgb(115,32,24)"/>
<path d="M53 63h1v3h-1v-3z" fill="rgb(115,32,24)"/>
<path d="M30 64h1v4h-1v-4z" fill="rgb(115,32,24)"/>
<path d="M31 64h4v5h-1v2h-1v-2h-1v2h-1v-2h-1v-1h1v-4z" fill="rgb(213,65,82)"/>
<path d="M35 64h3v1h-2v4h-1v-5z" fill="rgb(0,0,0)"/>
<path d="M47 64h1v2h-1v-2z" fill="rgb(115,32,24)"/>
<path d="M58 64h1v2h-1v-2z" fill="rgb(0,0,0)"/>
<path d="M40 65h2v1h2v5h-1v1h-1v-2h-1v2h-1v-2h-1v-1h1v-4z" fill="rgb(246,115,74)"/>
<path d="M44 66h1v5h-1v-5z" fill="rgb(0,0,0)"/>
<path d="M45 66h1v1h-1v-1z" fill="rgb(164,65,82)"/>
<path d="M46 66h1v1h-1v-1z" fill="rgb(115,32,24)"/>
<path d="M52 66h1v1h-1v-1z" fill="rgb(115,32,24)"/>
<path d="M57 66h1v2h-1v-2z" fill="rgb(0,0,0)"/>
<path d="M45 67h1v1h-1v-1z" fill="rgb(115,32,24)"/>
<path d="M51 67h1v1h-1v-1z" fill="rgb(115,32,24)"/>
<path d="M29 68h1v2h-1v-2z" fill="rgb(115,32,24)"/>
<path d="M51 68h1v2h-1v-2z" fill="rgb(0,0,0)"/>
<path d="M52 68h1v1h-1v-1z" fill="rgb(164,65,82)"/>
<path d="M54 68h1v1h-1v-1z" fill="rgb(164,65,82)"/>
<path d="M56 68h1v2h-1v-2z" fill="rgb(0,0,0)"/>
<path d="M30 69h1v1h-1v-1z" fill="rgb(164,65,82)"/>
<path d="M32 69h1v1h-1v-1z" fill="rgb(164,65,82)"/>
<path d="M34 69h1v2h-1v-2z" fill="rgb(0,0,0)"/>
<path d="M38 69h1v3h-1v-3z" fill="rgb(115,32,24)"/>
<path d="M52 69h1v1h-1v-1z" fill="rgb(115,32,24)"/>
<path d="M54 69h1v1h-1v-1z" fill="rgb(115,32,24)"/>
<path d="M29 70h1v1h-1v-1z" fill="rgb(0,0,0)"/>
<path d="M30 70h1v1h-1v-1z" fill="rgb(115,32,24)"/>
<path d="M32 70h1v1h-1v-1z" fill="rgb(115,32,24)"/>
<path d="M39 70h1v2h-1v-2z" fill="rgb(213,65,82)"/>
<path d="M41 70h1v1h-1v-1z" fill="rgb(164,65,82)"/>
<path d="M52 70h4v1h-4v-1z" fill="rgb(0,0,0)"/>
<path d="M30 71h4v1h-4v-1z" fill="rgb(0,0,0)"/>
<path d="M41 71h1v1h-1v-1z" fill="rgb(115,32,24)"/>
<path d="M43 71h1v1h-1v-1z" fill="rgb(0,0,0)"/>
<path d="M39 72h4v1h-4v-1z" fill="rgb(0,0,0)"/>
</svg>
