<?xml version="1.0" encoding="utf-8"?>
<!-- generated at drububu.com  -->
<!DOCTYPE svg PUBLIC "-//W3C//DTD SVG 1.1//EN" "http://www.w3.org/Graphics/SVG/1.1/DTD/svg11.dtd">
<svg version="1.1" preserveAspectRatio="xMinYMin meet" xmlns="http://www.w3.org/2000/svg" xmlns:xlink="http://www.w3.org/1999/xlink" x="0px" y="0px" width="96px" height="96px" viewBox="0 0 96 96">
<path d="M0 0h96v96h-96v-96z" fill="transparent"/>
<path d="M40 28h4v1h-4v-1z" fill="rgb(197,57,90)"/>
<path d="M39 29h1v1h-1v-1z" fill="rgb(197,57,90)"/>
<path d="M40 29h4v1h3v3h-1v3h-1v-1h-3v-1h-3v-1h-2v-1h1v-1h1v-1h1v-1z" fill="rgb(246,213,197)"/>
<path d="M44 29h3v1h-3v-1z" fill="rgb(197,57,90)"/>
<path d="M38 30h1v1h-1v-1z" fill="rgb(197,57,90)"/>
<path d="M47 30h1v1h-1v-1z" fill="rgb(197,57,90)"/>
<path d="M48 30h1v1h-1v-1z" fill="rgb(123,41,65)"/>
<path d="M37 31h1v1h-1v-1z" fill="rgb(197,57,90)"/>
<path d="M47 31h1v1h-1v-1z" fill="rgb(238,172,156)"/>
<path d="M48 31h1v1h1v1h1v3h-1v1h-1v1h-2v-1h-1v-3h1v-2h1v-1z" fill="rgb(255,98,98)"/>
<path d="M49 31h1v1h-1v-1z" fill="rgb(123,41,65)"/>
<path d="M61 31h2v1h-2v-1z" fill="rgb(8,90,115)"/>
<path d="M36 32h1v1h-1v-1z" fill="rgb(197,57,90)"/>
<path d="M50 32h1v1h-1v-1z" fill="rgb(123,41,65)"/>
<path d="M60 32h1v1h-1v-1z" fill="rgb(8,90,115)"/>
<path d="M61 32h2v1h-1v1h-1v2h-1v3h-1v3h-1v2h-3v-1h1v-2h1v-2h1v-2h1v-2h1v-2h1v-1z" fill="rgb(90,189,230)"/>
<path d="M63 32h1v4h-1v-4z" fill="rgb(0,0,0)"/>
<path d="M35 33h1v1h-1v-1z" fill="rgb(123,41,65)"/>
<path d="M36 33h3v1h3v1h3v1h-1v1h-1v1h-1v4h-1v2h-1v1h-1v-1h-3v-1h-2v-4h1v-3h1v-3z" fill="rgb(238,172,156)"/>
<path d="M46 33h1v1h-1v-1z" fill="rgb(238,172,156)"/>
<path d="M51 33h1v2h-1v-2z" fill="rgb(123,41,65)"/>
<path d="M59 33h1v2h-1v-2z" fill="rgb(8,90,115)"/>
<path d="M62 33h1v3h-1v4h-1v4h-1v4h-1v-2h-1v-1h-1v-1h1v-2h1v-2h1v-3h1v-2h1v-2z" fill="rgb(8,131,164)"/>
<path d="M34 34h1v2h-1v-2z" fill="rgb(123,41,65)"/>
<path d="M35 34h1v2h-1v-2z" fill="rgb(255,255,255)"/>
<path d="M61 34h1v1h-1v-1z" fill="rgb(8,172,213)"/>
<path d="M51 35h1v4h-1v3h-1v1h-1v1h-1v1h-1v1h-1v1h-1v1h-3v-3h1v-1h1v-1h3v-1h1v-4h1v-1h1
	v-1h1v-1z" fill="rgb(197,57,90)"/>
<path d="M52 35h1v4h-1v-4z" fill="rgb(0,0,0)"/>
<path d="M58 35h1v2h-1v-2z" fill="rgb(8,90,115)"/>
<path d="M33 36h1v5h-1v-5z" fill="rgb(123,41,65)"/>
<path d="M34 36h1v2h-1v-2z" fill="rgb(255,255,255)"/>
<path d="M44 36h2v1h1v1h1v1h-1v2h-1v1h-1v1h-1v-1h-1v-1h-1v-3h1v-1h1v-1z" fill="rgb(255,255,255)"/>
<path d="M60 36h1v1h-1v-1z" fill="rgb(8,172,213)"/>
<path d="M62 36h1v1h-1v-1z" fill="rgb(8,90,115)"/>
<path d="M57 37h1v2h-1v-2z" fill="rgb(8,90,115)"/>
<path d="M62 37h1v3h-1v-3z" fill="rgb(0,0,0)"/>
<path d="M34 38h1v1h-1v-1z" fill="rgb(246,213,197)"/>
<path d="M45 39h1v1h-1v-1z" fill="rgb(0,0,0)"/>
<path d="M47 39h1v3h-1v1h-2v-1h1v-1h1v-2z" fill="rgb(197,197,197)"/>
<path d="M51 39h1v3h-1v-3z" fill="rgb(0,0,0)"/>
<path d="M56 39h1v2h-1v-2z" fill="rgb(8,90,115)"/>
<path d="M59 39h1v1h-1v-1z" fill="rgb(8,172,213)"/>
<path d="M61 40h1v1h-1v-1z" fill="rgb(8,90,115)"/>
<path d="M32 41h1v2h-1v-2z" fill="rgb(123,41,65)"/>
<path d="M33 41h1v2h-1v-2z" fill="rgb(246,213,197)"/>
<path d="M42 41h1v1h1v2h-1v1h-1v1h-1v-1h-1v-1h1v-2h1v-1z" fill="rgb(255,98,98)"/>
<path d="M55 41h1v2h-1v-2z" fill="rgb(8,90,115)"/>
<path d="M61 41h1v3h-1v-3z" fill="rgb(0,0,0)"/>
<path d="M50 42h1v1h-1v-1z" fill="rgb(0,0,0)"/>
<path d="M51 42h2v1h-2v-1z" fill="rgb(197,57,90)"/>
<path d="M32 43h1v5h-1v-5z" fill="rgb(8,131,164)"/>
<path d="M33 43h1v3h-1v-3z" fill="rgb(8,172,213)"/>
<path d="M34 43h2v1h3v1h1v1h-1v2h-1v2h-1v1h-1v-1h-1v-1h-2v-3h1v-3z" fill="rgb(139,213,238)"/>
<path d="M49 43h1v1h-1v-1z" fill="rgb(123,41,65)"/>
<path d="M50 43h1v1h-1v-1z" fill="rgb(238,172,156)"/>
<path d="M51 43h2v1h-2v-1z" fill="rgb(246,213,197)"/>
<path d="M53 43h2v1h-2v-1z" fill="rgb(197,57,90)"/>
<path d="M48 44h1v1h-1v-1z" fill="rgb(0,0,0)"/>
<path d="M49 44h1v2h-1v2h-1v2h-1v-4h1v-1h1v-1z" fill="rgb(197,57,90)"/>
<path d="M50 44h1v1h6v1h1v2h-2v1h-2v1h-2v1h-2v1h-2v1h-2v1h-2v-1h1v-1h1v-1h1v-1h1v-2h1v-2
	h1v-2z" fill="rgb(255,98,98)"/>
<path d="M51 44h4v1h-4v-1z" fill="rgb(238,172,156)"/>
<path d="M55 44h1v1h-1v-1z" fill="rgb(197,57,90)"/>
<path d="M56 44h1v1h-1v-1z" fill="rgb(123,41,65)"/>
<path d="M60 44h1v1h-1v-1z" fill="rgb(8,90,115)"/>
<path d="M31 45h1v1h-1v-1z" fill="rgb(8,90,115)"/>
<path d="M40 45h1v2h-1v2h-1v2h-2v-1h1v-2h1v-2h1v-1z" fill="rgb(8,172,213)"/>
<path d="M47 45h1v1h-1v-1z" fill="rgb(0,0,0)"/>
<path d="M57 45h1v1h-1v-1z" fill="rgb(123,41,65)"/>
<path d="M60 45h1v3h-1v-3z" fill="rgb(0,0,0)"/>
<path d="M30 46h1v1h-1v-1z" fill="rgb(8,90,115)"/>
<path d="M31 46h1v4h-1v-1h-1v-2h1v-1z" fill="rgb(139,213,238)"/>
<path d="M41 46h1v2h1v1h-2v1h-2v-1h1v-2h1v-1z" fill="rgb(8,131,164)"/>
<path d="M46 46h1v1h-1v-1z" fill="rgb(0,0,0)"/>
<path d="M58 46h1v2h-1v-2z" fill="rgb(123,41,65)"/>
<path d="M29 47h1v1h-1v-1z" fill="rgb(8,90,115)"/>
<path d="M45 47h1v1h-1v-1z" fill="rgb(0,0,0)"/>
<path d="M46 47h1v4h-3v-1h-1v-1h2v-1h1v-1z" fill="rgb(8,131,164)"/>
<path d="M28 48h1v2h-1v-2z" fill="rgb(0,0,0)"/>
<path d="M29 48h1v1h1v1h1v2h-1v-1h-1v-1h-1v-2z" fill="rgb(8,172,213)"/>
<path d="M32 48h1v1h-1v-1z" fill="rgb(8,90,115)"/>
<path d="M43 48h2v1h-2v-1z" fill="rgb(0,0,0)"/>
<path d="M56 48h2v1h-1v2h-1v1h-6v-1h2v-1h2v-1h2v-1z" fill="rgb(197,57,90)"/>
<path d="M58 48h2v1h-1v1h-1v-2z" fill="rgb(0,0,0)"/>
<path d="M32 49h1v2h-1v-2z" fill="rgb(8,131,164)"/>
<path d="M33 49h1v1h-1v-1z" fill="rgb(8,90,115)"/>
<path d="M34 49h1v1h-1v-1z" fill="rgb(8,172,213)"/>
<path d="M41 49h2v1h-2v-1z" fill="rgb(0,0,0)"/>
<path d="M57 49h1v1h-1v-1z" fill="rgb(123,41,65)"/>
<path d="M29 50h1v1h-1v-1z" fill="rgb(0,0,0)"/>
<path d="M33 50h1v2h-1v-2z" fill="rgb(0,0,0)"/>
<path d="M34 50h2v1h-2v-1z" fill="rgb(8,90,115)"/>
<path d="M39 50h2v1h-2v-1z" fill="rgb(0,0,0)"/>
<path d="M41 50h2v1h-2v-1z" fill="rgb(8,131,164)"/>
<path d="M43 50h1v2h-1v-2z" fill="rgb(8,90,115)"/>
<path d="M57 50h1v1h-1v-1z" fill="rgb(0,0,0)"/>
<path d="M30 51h1v1h-1v-1z" fill="rgb(0,0,0)"/>
<path d="M32 51h1v2h-1v-2z" fill="rgb(8,90,115)"/>
<path d="M34 51h2v1h-2v-1z" fill="rgb(8,131,164)"/>
<path d="M36 51h1v1h-1v-1z" fill="rgb(8,90,115)"/>
<path d="M37 51h2v1h-2v-1z" fill="rgb(0,0,0)"/>
<path d="M39 51h1v1h1v2h-1v-1h-1v-2z" fill="rgb(90,189,230)"/>
<path d="M40 51h3v1h-1v2h-1v-2h-1v-1z" fill="rgb(8,172,213)"/>
<path d="M44 51h2v1h-1v1h-1v1h-1v-2h1v-1z" fill="rgb(8,172,213)"/>
<path d="M56 51h1v1h-1v-1z" fill="rgb(0,0,0)"/>
<path d="M31 52h1v1h-1v-1z" fill="rgb(0,0,0)"/>
<path d="M33 52h1v1h-1v-1z" fill="rgb(8,131,164)"/>
<path d="M34 52h1v1h1v1h-4v-1h2v-1z" fill="rgb(0,0,0)"/>
<path d="M35 52h1v1h-1v-1z" fill="rgb(8,90,115)"/>
<path d="M36 52h2v1h1v1h1v1h1v1h-3v-1h-1v-1h-1v-2z" fill="rgb(8,131,164)"/>
<path d="M38 52h1v1h-1v-1z" fill="rgb(8,90,115)"/>
<path d="M42 52h1v2h-1v-2z" fill="rgb(8,90,115)"/>
<path d="M48 52h1v1h-1v-1z" fill="rgb(197,57,90)"/>
<path d="M49 52h6v1h-6v-1z" fill="rgb(8,90,115)"/>
<path d="M55 52h1v1h-1v-1z" fill="rgb(8,131,164)"/>
<path d="M56 52h1v1h-1v-1z" fill="rgb(8,90,115)"/>
<path d="M57 52h1v1h-1v-1z" fill="rgb(0,0,0)"/>
<path d="M39 53h1v1h-1v-1z" fill="rgb(8,90,115)"/>
<path d="M46 53h2v1h-1v1h-1v1h-1v1h-1v1h-1v1h-2v-3h1v-1h2v-1h2v-1z" fill="rgb(197,57,90)"/>
<path d="M48 53h1v1h-1v-1z" fill="rgb(8,90,115)"/>
<path d="M49 53h1v1h1v1h1v1h1v1h-1v1h-1v1h-1v1h-1v1h-1v1h-1v1h-1v1h-1v-1h-1v-1h-1v-1h-1
	v-1h1v-1h1v-1h1v-1h1v-1h1v-1h1v-1h1v-1z" fill="rgb(139,213,238)"/>
<path d="M50 53h7v1h1v1h1v1h1v1h-7v-1h-1v-1h-1v-1h-1v-1z" fill="rgb(8,172,213)"/>
<path d="M57 53h1v1h-1v-1z" fill="rgb(8,131,164)"/>
<path d="M58 53h1v1h-1v-1z" fill="rgb(0,0,0)"/>
<path d="M36 54h1v1h-1v-1z" fill="rgb(8,90,115)"/>
<path d="M40 54h1v1h-1v-1z" fill="rgb(8,90,115)"/>
<path d="M41 54h1v2h-1v-2z" fill="rgb(123,41,65)"/>
<path d="M42 54h1v1h-1v-1z" fill="rgb(8,131,164)"/>
<path d="M43 54h1v1h-1v-1z" fill="rgb(255,98,98)"/>
<path d="M47 54h1v1h-1v-1z" fill="rgb(8,90,115)"/>
<path d="M58 54h1v1h-1v-1z" fill="rgb(8,131,164)"/>
<path d="M59 54h1v1h-1v-1z" fill="rgb(0,0,0)"/>
<path d="M36 55h1v1h-1v-1z" fill="rgb(0,0,0)"/>
<path d="M37 55h1v1h-1v-1z" fill="rgb(8,172,213)"/>
<path d="M46 55h1v1h-1v-1z" fill="rgb(8,90,115)"/>
<path d="M59 55h1v1h-1v-1z" fill="rgb(8,131,164)"/>
<path d="M60 55h1v1h-1v-1z" fill="rgb(0,0,0)"/>
<path d="M37 56h1v1h-1v-1z" fill="rgb(8,90,115)"/>
<path d="M38 56h2v2h-1v-1h-1v-1z" fill="rgb(8,172,213)"/>
<path d="M40 56h1v2h-1v-2z" fill="rgb(123,41,65)"/>
<path d="M45 56h1v1h-1v-1z" fill="rgb(8,90,115)"/>
<path d="M60 56h1v3h-1v2h-2v1h-3v1h-2v1h-2v1h-2v1h-2v1h-1v-2h1v-2h1v-1h1v-1h1v-1h1v-1h1
	v-1h5v-1h3v-1z" fill="rgb(8,131,164)"/>
<path d="M61 56h1v3h-1v-3z" fill="rgb(0,0,0)"/>
<path d="M38 57h1v1h-1v-1z" fill="rgb(8,90,115)"/>
<path d="M44 57h1v1h-1v-1z" fill="rgb(8,90,115)"/>
<path d="M52 57h5v1h-5v-1z" fill="rgb(8,90,115)"/>
<path d="M39 58h2v1h-2v-1z" fill="rgb(8,90,115)"/>
<path d="M43 58h1v1h-1v-1z" fill="rgb(8,90,115)"/>
<path d="M51 58h1v1h-1v-1z" fill="rgb(8,90,115)"/>
<path d="M41 59h1v1h-1v-1z" fill="rgb(0,0,0)"/>
<path d="M42 59h1v1h-1v-1z" fill="rgb(8,90,115)"/>
<path d="M50 59h1v1h-1v-1z" fill="rgb(8,90,115)"/>
<path d="M60 59h1v1h-1v-1z" fill="rgb(8,90,115)"/>
<path d="M41 60h1v1h-1v-1z" fill="rgb(8,90,115)"/>
<path d="M49 60h1v1h-1v-1z" fill="rgb(8,90,115)"/>
<path d="M60 60h1v1h-1v-1z" fill="rgb(0,0,0)"/>
<path d="M41 61h1v2h-1v-2z" fill="rgb(0,0,0)"/>
<path d="M42 61h1v1h1v1h1v1h1v1h-1v1h-1v-1h-1v-2h-1v-2z" fill="rgb(8,172,213)"/>
<path d="M48 61h1v1h-1v-1z" fill="rgb(8,90,115)"/>
<path d="M58 61h1v1h-1v-1z" fill="rgb(8,90,115)"/>
<path d="M59 61h1v1h-1v-1z" fill="rgb(0,0,0)"/>
<path d="M47 62h1v1h-1v-1z" fill="rgb(8,90,115)"/>
<path d="M55 62h1v2h-1v-2z" fill="rgb(8,90,115)"/>
<path d="M56 62h2v1h-2v-1z" fill="rgb(0,0,0)"/>
<path d="M41 63h1v1h-1v-1z" fill="rgb(8,90,115)"/>
<path d="M42 63h1v1h-1v-1z" fill="rgb(8,131,164)"/>
<path d="M46 63h1v2h-1v-2z" fill="rgb(8,90,115)"/>
<path d="M53 63h1v1h-1v-1z" fill="rgb(8,90,115)"/>
<path d="M54 63h1v1h-1v-1z" fill="rgb(0,0,0)"/>
<path d="M42 64h1v1h-1v-1z" fill="rgb(0,0,0)"/>
<path d="M51 64h1v1h-1v-1z" fill="rgb(8,90,115)"/>
<path d="M52 64h1v1h-1v-1z" fill="rgb(0,0,0)"/>
<path d="M43 65h1v1h-1v-1z" fill="rgb(0,0,0)"/>
<path d="M45 65h1v2h-1v-2z" fill="rgb(8,90,115)"/>
<path d="M49 65h1v1h-1v-1z" fill="rgb(8,90,115)"/>
<path d="M50 65h1v1h-1v-1z" fill="rgb(0,0,0)"/>
<path d="M44 66h1v1h-1v-1z" fill="rgb(0,0,0)"/>
<path d="M47 66h1v1h-1v-1z" fill="rgb(8,90,115)"/>
<path d="M48 66h1v1h-1v-1z" fill="rgb(0,0,0)"/>
<path d="M45 67h2v1h-2v-1z" fill="rgb(0,0,0)"/>
</svg>
