<?xml version="1.0" encoding="utf-8"?>
<!-- generated at drububu.com  -->
<!DOCTYPE svg PUBLIC "-//W3C//DTD SVG 1.1//EN" "http://www.w3.org/Graphics/SVG/1.1/DTD/svg11.dtd">
<svg version="1.1" preserveAspectRatio="xMinYMin meet" xmlns="http://www.w3.org/2000/svg" xmlns:xlink="http://www.w3.org/1999/xlink" x="0px" y="0px" width="96px" height="96px" viewBox="0 0 96 96">
<path d="M0 0h96v96h-96v-96z" fill="transparent"/>
<path d="M48 31h8v1h-8v-1z" fill="rgb(156,131,106)"/>
<path d="M45 32h3v1h-3v-1z" fill="rgb(156,131,106)"/>
<path d="M48 32h8v1h-8v-1z" fill="rgb(255,238,197)"/>
<path d="M56 32h1v1h-1v-1z" fill="rgb(156,131,106)"/>
<path d="M57 32h2v1h2v1h-1v1h-1v-1h-1v-1h-1v-1z" fill="rgb(98,82,49)"/>
<path d="M43 33h2v1h-2v-1z" fill="rgb(156,131,106)"/>
<path d="M45 33h7v1h-7v-1z" fill="rgb(197,172,115)"/>
<path d="M52 33h3v1h-3v-1z" fill="rgb(156,131,106)"/>
<path d="M55 33h3v1h-3v-1z" fill="rgb(230,222,131)"/>
<path d="M42 34h1v1h-1v-1z" fill="rgb(156,131,106)"/>
<path d="M43 34h9v1h-9v-1z" fill="rgb(255,238,197)"/>
<path d="M52 34h2v2h-2v-2z" fill="rgb(230,222,131)"/>
<path d="M54 34h1v1h1v3h-1v-1h-1v-3z" fill="rgb(197,172,115)"/>
<path d="M55 34h1v1h-1v-1z" fill="rgb(156,131,106)"/>
<path d="M56 34h1v1h-1v-1z" fill="rgb(98,82,49)"/>
<path d="M57 34h2v1h-2v-1z" fill="rgb(197,172,115)"/>
<path d="M60 34h1v1h-1v-1z" fill="rgb(156,131,106)"/>
<path d="M61 34h1v1h-1v-1z" fill="rgb(98,82,49)"/>
<path d="M41 35h1v1h-1v-1z" fill="rgb(156,131,106)"/>
<path d="M42 35h7v1h-7v-1z" fill="rgb(197,172,115)"/>
<path d="M49 35h3v1h-3v-1z" fill="rgb(156,131,106)"/>
<path d="M56 35h1v1h1v1h-2v-2z" fill="rgb(156,131,106)"/>
<path d="M57 35h1v1h-1v-1z" fill="rgb(98,82,49)"/>
<path d="M58 35h1v1h-1v-1z" fill="rgb(156,131,106)"/>
<path d="M59 35h1v1h-1v-1z" fill="rgb(197,172,115)"/>
<path d="M60 35h1v1h-1v-1z" fill="rgb(98,82,49)"/>
<path d="M61 35h1v1h-1v-1z" fill="rgb(156,131,106)"/>
<path d="M62 35h1v1h-1v-1z" fill="rgb(0,0,0)"/>
<path d="M40 36h1v2h-1v-2z" fill="rgb(156,131,106)"/>
<path d="M41 36h1v1h-1v-1z" fill="rgb(197,172,115)"/>
<path d="M42 36h6v1h-1v1h-6v-1h1v-1z" fill="rgb(255,238,197)"/>
<path d="M48 36h4v3h-2v-1h-3v-1h1v-1z" fill="rgb(230,222,131)"/>
<path d="M52 36h1v1h-1v-1z" fill="rgb(156,131,106)"/>
<path d="M53 36h1v1h-1v-1z" fill="rgb(98,82,49)"/>
<path d="M58 36h1v1h-1v-1z" fill="rgb(98,82,49)"/>
<path d="M59 36h2v2h-1v-1h-1v-1z" fill="rgb(156,131,106)"/>
<path d="M61 36h1v3h-1v-3z" fill="rgb(98,82,49)"/>
<path d="M62 36h1v4h-1v-4z" fill="rgb(156,131,106)"/>
<path d="M63 36h1v2h-1v-2z" fill="rgb(0,0,0)"/>
<path d="M52 37h2v1h1v1h-1v2h-1v-1h-1v-3z" fill="rgb(197,172,115)"/>
<path d="M54 37h1v1h-1v-1z" fill="rgb(98,82,49)"/>
<path d="M56 37h4v1h-4v-1z" fill="rgb(0,0,0)"/>
<path d="M39 38h1v2h-1v-2z" fill="rgb(156,131,106)"/>
<path d="M40 38h1v1h-1v-1z" fill="rgb(255,238,197)"/>
<path d="M41 38h5v1h-5v-1z" fill="rgb(197,172,115)"/>
<path d="M46 38h4v1h-4v-1z" fill="rgb(156,131,106)"/>
<path d="M55 38h1v1h-1v-1z" fill="rgb(0,0,0)"/>
<path d="M56 38h3v1h1v1h1v1h1v6h-1v2h-3v-1h-1v-5h1v-1h1v1h1v3h1v-4h-1v-1h-3v-1h-2v-1h1
	v-1z" fill="rgb(156,131,106)"/>
<path d="M59 38h1v1h-1v-1z" fill="rgb(98,82,49)"/>
<path d="M60 38h1v1h-1v-1z" fill="rgb(0,0,0)"/>
<path d="M63 38h1v2h-1v-2z" fill="rgb(98,82,49)"/>
<path d="M64 38h1v3h-1v-3z" fill="rgb(0,0,0)"/>
<path d="M40 39h1v1h-1v-1z" fill="rgb(197,172,115)"/>
<path d="M41 39h4v2h-1v1h-5v-2h2v-1z" fill="rgb(255,238,197)"/>
<path d="M45 39h5v1h1v1h-1v1h-6v-1h1v-2z" fill="rgb(230,222,131)"/>
<path d="M50 39h2v1h-2v-1z" fill="rgb(156,131,106)"/>
<path d="M54 39h1v2h-1v-2z" fill="rgb(98,82,49)"/>
<path d="M60 39h1v1h-1v-1z" fill="rgb(98,82,49)"/>
<path d="M61 39h1v2h-1v-2z" fill="rgb(0,0,0)"/>
<path d="M38 40h1v3h-1v-3z" fill="rgb(156,131,106)"/>
<path d="M51 40h1v1h1v3h-1v-1h-1v-1h-1v-1h1v-1z" fill="rgb(197,172,115)"/>
<path d="M52 40h1v1h-1v-1z" fill="rgb(98,82,49)"/>
<path d="M55 40h2v2h-1v5h-2v-6h1v-1z" fill="rgb(197,172,115)"/>
<path d="M62 40h1v1h-1v-1z" fill="rgb(98,82,49)"/>
<path d="M63 40h1v1h1v1h-1v1h-1v-3z" fill="rgb(156,131,106)"/>
<path d="M53 41h1v1h-1v-1z" fill="rgb(98,82,49)"/>
<path d="M57 41h1v2h-2v-1h1v-1z" fill="rgb(98,82,49)"/>
<path d="M58 41h1v1h-1v-1z" fill="rgb(0,0,0)"/>
<path d="M59 41h1v1h1v4h-1v-3h-1v-2z" fill="rgb(98,82,49)"/>
<path d="M62 41h1v6h-1v-6z" fill="rgb(0,0,0)"/>
<path d="M65 41h1v6h-1v-6z" fill="rgb(0,0,0)"/>
<path d="M39 42h5v1h-5v-1z" fill="rgb(197,172,115)"/>
<path d="M44 42h7v1h-7v-1z" fill="rgb(156,131,106)"/>
<path d="M53 42h1v5h-1v-5z" fill="rgb(0,0,0)"/>
<path d="M64 42h1v1h-1v-1z" fill="rgb(98,82,49)"/>
<path d="M37 43h1v3h-1v-3z" fill="rgb(156,131,106)"/>
<path d="M38 43h1v1h-1v-1z" fill="rgb(197,172,115)"/>
<path d="M39 43h5v1h-1v2h-4v1h-1v-3h1v-1z" fill="rgb(255,238,197)"/>
<path d="M44 43h6v1h-1v2h-6v-2h1v-1z" fill="rgb(230,222,131)"/>
<path d="M50 43h1v1h1v1h1v2h-1v-1h-3v-2h1v-1z" fill="rgb(197,172,115)"/>
<path d="M51 43h1v1h-1v-1z" fill="rgb(156,131,106)"/>
<path d="M56 43h1v3h-1v-3z" fill="rgb(0,0,0)"/>
<path d="M63 43h1v1h-1v-1z" fill="rgb(98,82,49)"/>
<path d="M64 43h1v2h-1v1h-1v-2h1v-1z" fill="rgb(156,131,106)"/>
<path d="M52 44h1v1h-1v-1z" fill="rgb(98,82,49)"/>
<path d="M64 45h1v1h-1v-1z" fill="rgb(98,82,49)"/>
<path d="M37 46h1v3h-1v-3z" fill="rgb(98,82,49)"/>
<path d="M39 46h4v1h-4v-1z" fill="rgb(197,172,115)"/>
<path d="M43 46h6v1h-6v-1z" fill="rgb(156,131,106)"/>
<path d="M49 46h2v1h-2v-1z" fill="rgb(98,82,49)"/>
<path d="M51 46h1v2h-1v-2z" fill="rgb(156,131,106)"/>
<path d="M56 46h1v2h-1v-2z" fill="rgb(98,82,49)"/>
<path d="M59 46h1v1h-1v-1z" fill="rgb(98,82,49)"/>
<path d="M63 46h1v1h-1v-1z" fill="rgb(98,82,49)"/>
<path d="M64 46h1v1h-1v-1z" fill="rgb(156,131,106)"/>
<path d="M38 47h1v1h-1v-1z" fill="rgb(197,172,115)"/>
<path d="M39 47h4v1h-4v-1z" fill="rgb(255,238,197)"/>
<path d="M43 47h5v2h-1v1h-1v1h-3v-1h-1v-1h-3v-1h4v-1z" fill="rgb(230,222,131)"/>
<path d="M48 47h3v1h2v1h1v3h-1v-1h-1v-1h-1v-1h-3v-2z" fill="rgb(197,172,115)"/>
<path d="M52 47h1v1h-1v-1z" fill="rgb(98,82,49)"/>
<path d="M53 47h1v1h-1v-1z" fill="rgb(197,172,115)"/>
<path d="M54 47h1v1h1v1h-2v-2z" fill="rgb(0,0,0)"/>
<path d="M55 47h1v1h-1v-1z" fill="rgb(156,131,106)"/>
<path d="M61 47h1v2h-1v-2z" fill="rgb(0,0,0)"/>
<path d="M62 47h2v3h-1v-1h-1v-2z" fill="rgb(156,131,106)"/>
<path d="M64 47h1v3h-1v-3z" fill="rgb(0,0,0)"/>
<path d="M32 48h1v1h-1v-1z" fill="rgb(65,106,172)"/>
<path d="M38 48h1v1h-1v-1z" fill="rgb(255,238,197)"/>
<path d="M53 48h1v1h-1v-1z" fill="rgb(98,82,49)"/>
<path d="M56 48h1v1h-1v-1z" fill="rgb(156,131,106)"/>
<path d="M57 48h1v1h1v1h-2v-2z" fill="rgb(98,82,49)"/>
<path d="M31 49h1v4h-1v-4z" fill="rgb(57,65,131)"/>
<path d="M32 49h1v1h1v2h-2v-3z" fill="rgb(156,230,246)"/>
<path d="M33 49h1v1h-1v-1z" fill="rgb(65,106,172)"/>
<path d="M36 49h1v2h-1v-2z" fill="rgb(98,82,49)"/>
<path d="M37 49h2v1h-2v-1z" fill="rgb(230,222,131)"/>
<path d="M39 49h3v1h-3v-1z" fill="rgb(197,172,115)"/>
<path d="M47 49h1v1h-1v-1z" fill="rgb(197,172,115)"/>
<path d="M48 49h3v1h-3v-1z" fill="rgb(156,131,106)"/>
<path d="M54 49h1v4h-1v-4z" fill="rgb(57,65,131)"/>
<path d="M55 49h1v1h1v2h-2v-3z" fill="rgb(98,189,246)"/>
<path d="M56 49h1v1h-1v-1z" fill="rgb(0,0,0)"/>
<path d="M59 49h2v1h-2v-1z" fill="rgb(0,0,0)"/>
<path d="M61 49h1v1h1v2h-2v-3z" fill="rgb(156,131,106)"/>
<path d="M62 49h1v1h-1v-1z" fill="rgb(98,82,49)"/>
<path d="M34 50h1v1h-1v-1z" fill="rgb(65,106,172)"/>
<path d="M37 50h1v1h-1v-1z" fill="rgb(197,172,115)"/>
<path d="M38 50h1v1h-1v-1z" fill="rgb(156,131,106)"/>
<path d="M39 50h3v1h-3v-1z" fill="rgb(98,82,49)"/>
<path d="M42 50h1v1h-1v-1z" fill="rgb(197,172,115)"/>
<path d="M46 50h1v1h-1v-1z" fill="rgb(197,172,115)"/>
<path d="M47 50h1v1h-1v-1z" fill="rgb(156,131,106)"/>
<path d="M48 50h3v1h-3v-1z" fill="rgb(98,82,49)"/>
<path d="M51 50h1v1h-1v-1z" fill="rgb(156,131,106)"/>
<path d="M57 50h1v2h-1v-2z" fill="rgb(0,0,0)"/>
<path d="M58 50h2v2h1v2h-2v-2h-1v-2z" fill="rgb(156,131,106)"/>
<path d="M60 50h1v2h-1v-2z" fill="rgb(98,82,49)"/>
<path d="M63 50h1v2h-1v-2z" fill="rgb(0,0,0)"/>
<path d="M34 51h1v2h1v1h1v1h1v1h1v1h3v-1h2v1h1v2h-1v2h-1v2h-2v1h-2v-1h-1v-1h2v-1h-3v-1h2
	v-1h-2v-1h-1v-1h-1v-1h-1v-1h-1v-2h-1v-1h2v-1z" fill="rgb(98,189,246)"/>
<path d="M35 51h1v2h-1v-2z" fill="rgb(65,106,172)"/>
<path d="M36 51h1v3h-1v-3z" fill="rgb(0,0,0)"/>
<path d="M37 51h1v2h-1v-2z" fill="rgb(156,131,106)"/>
<path d="M38 51h1v1h-1v-1z" fill="rgb(98,82,49)"/>
<path d="M39 51h3v1h-3v-1z" fill="rgb(255,255,255)"/>
<path d="M42 51h1v1h-1v-1z" fill="rgb(98,82,49)"/>
<path d="M43 51h4v1h-4v-1z" fill="rgb(156,131,106)"/>
<path d="M47 51h1v1h-1v-1z" fill="rgb(98,82,49)"/>
<path d="M48 51h3v1h-3v-1z" fill="rgb(255,255,255)"/>
<path d="M51 51h1v1h-1v-1z" fill="rgb(98,82,49)"/>
<path d="M52 51h1v1h-1v-1z" fill="rgb(156,131,106)"/>
<path d="M38 52h1v1h-1v-1z" fill="rgb(255,255,255)"/>
<path d="M39 52h1v1h-1v-1z" fill="rgb(106,106,106)"/>
<path d="M40 52h1v1h1v1h-1v1h-1v-1h-1v-1h1v-1z" fill="rgb(0,0,0)"/>
<path d="M41 52h1v1h-1v-1z" fill="rgb(106,106,106)"/>
<path d="M42 52h1v1h-1v-1z" fill="rgb(255,255,255)"/>
<path d="M43 52h1v1h3v2h-1v-1h-2v1h-1v-3z" fill="rgb(0,0,0)"/>
<path d="M44 52h3v1h-3v-1z" fill="rgb(98,82,49)"/>
<path d="M47 52h1v1h-1v-1z" fill="rgb(255,255,255)"/>
<path d="M48 52h1v1h-1v-1z" fill="rgb(106,106,106)"/>
<path d="M49 52h1v1h1v1h-1v1h-1v-1h-1v-1h1v-1z" fill="rgb(0,0,0)"/>
<path d="M50 52h1v1h-1v-1z" fill="rgb(106,106,106)"/>
<path d="M51 52h1v1h-1v-1z" fill="rgb(255,255,255)"/>
<path d="M52 52h1v3h-1v-3z" fill="rgb(0,0,0)"/>
<path d="M53 52h1v1h-1v-1z" fill="rgb(156,131,106)"/>
<path d="M55 52h3v2h-1v1h-2v-3z" fill="rgb(57,156,205)"/>
<path d="M58 52h1v2h2v1h-2v1h-1v-4z" fill="rgb(0,0,0)"/>
<path d="M61 52h1v1h-1v-1z" fill="rgb(98,82,49)"/>
<path d="M62 52h1v1h-1v-1z" fill="rgb(0,0,0)"/>
<path d="M32 53h1v1h-1v-1z" fill="rgb(57,65,131)"/>
<path d="M37 53h1v1h-1v-1z" fill="rgb(98,82,49)"/>
<path d="M38 53h1v2h-1v-2z" fill="rgb(197,197,197)"/>
<path d="M42 53h1v2h-1v-2z" fill="rgb(197,197,197)"/>
<path d="M47 53h1v2h-1v-2z" fill="rgb(197,197,197)"/>
<path d="M51 53h1v2h-1v-2z" fill="rgb(197,197,197)"/>
<path d="M53 53h1v2h-1v-2z" fill="rgb(57,65,131)"/>
<path d="M54 53h1v2h2v-1h1v2h-1v1h-1v1h1v1h-2v-1h-2v-1h-2v-1h2v-1h1v-2z" fill="rgb(65,106,172)"/>
<path d="M61 53h1v1h-1v-1z" fill="rgb(0,0,0)"/>
<path d="M32 54h1v1h-1v-1z" fill="rgb(0,0,0)"/>
<path d="M37 54h1v1h-1v-1z" fill="rgb(0,0,0)"/>
<path d="M39 54h1v1h-1v-1z" fill="rgb(106,106,106)"/>
<path d="M41 54h1v1h-1v-1z" fill="rgb(106,106,106)"/>
<path d="M44 54h2v1h1v1h-4v-1h1v-1z" fill="rgb(65,106,172)"/>
<path d="M48 54h1v1h-1v-1z" fill="rgb(106,106,106)"/>
<path d="M50 54h1v1h-1v-1z" fill="rgb(106,106,106)"/>
<path d="M33 55h1v2h-1v-2z" fill="rgb(0,0,0)"/>
<path d="M38 55h1v1h-1v-1z" fill="rgb(0,0,0)"/>
<path d="M39 55h3v1h-3v-1z" fill="rgb(197,197,197)"/>
<path d="M42 55h1v1h-1v-1z" fill="rgb(0,0,0)"/>
<path d="M47 55h1v1h-1v-1z" fill="rgb(0,0,0)"/>
<path d="M48 55h3v1h-3v-1z" fill="rgb(197,197,197)"/>
<path d="M51 55h1v1h-1v-1z" fill="rgb(0,0,0)"/>
<path d="M52 55h1v1h-1v-1z" fill="rgb(57,65,131)"/>
<path d="M59 55h1v1h-1v-1z" fill="rgb(98,82,49)"/>
<path d="M34 56h1v1h-1v-1z" fill="rgb(57,156,205)"/>
<path d="M39 56h3v1h-3v-1z" fill="rgb(0,0,0)"/>
<path d="M44 56h4v1h5v1h1v1h1v1h-2v-1h-1v1h1v1h2v1h-1v1h-1v-1h-1v-1h-3v-1h-1v1h1v1h3v1
	h-1v1h-3v-1h-2v-1h-1v-1h-1v-2h1v-2h-1v-1z" fill="rgb(57,156,205)"/>
<path d="M48 56h3v1h-3v-1z" fill="rgb(0,0,0)"/>
<path d="M57 56h1v1h-1v-1z" fill="rgb(0,0,0)"/>
<path d="M58 56h2v2h-1v-1h-1v-1z" fill="rgb(156,131,106)"/>
<path d="M60 56h1v1h-1v-1z" fill="rgb(98,82,49)"/>
<path d="M34 57h1v1h-1v-1z" fill="rgb(0,0,0)"/>
<path d="M35 57h1v1h-1v-1z" fill="rgb(57,156,205)"/>
<path d="M37 57h1v1h-1v-1z" fill="rgb(65,106,172)"/>
<path d="M56 57h1v1h-1v-1z" fill="rgb(0,0,0)"/>
<path d="M57 57h1v2h-1v-2z" fill="rgb(57,65,131)"/>
<path d="M58 57h1v1h-1v-1z" fill="rgb(0,0,0)"/>
<path d="M60 57h1v1h-1v-1z" fill="rgb(0,0,0)"/>
<path d="M35 58h2v1h-2v-1z" fill="rgb(65,106,172)"/>
<path d="M39 58h1v1h-1v-1z" fill="rgb(65,106,172)"/>
<path d="M54 58h1v1h-1v-1z" fill="rgb(0,0,0)"/>
<path d="M58 58h1v1h-1v-1z" fill="rgb(65,106,172)"/>
<path d="M59 58h1v2h-1v-2z" fill="rgb(0,0,0)"/>
<path d="M34 59h1v1h-1v-1z" fill="rgb(65,106,172)"/>
<path d="M35 59h2v1h-2v-1z" fill="rgb(98,189,246)"/>
<path d="M37 59h2v1h-2v-1z" fill="rgb(65,106,172)"/>
<path d="M52 59h1v1h-1v-1z" fill="rgb(57,65,131)"/>
<path d="M55 59h1v1h-1v-1z" fill="rgb(0,0,0)"/>
<path d="M56 59h1v1h-1v-1z" fill="rgb(57,65,131)"/>
<path d="M57 59h1v1h-1v-1z" fill="rgb(65,106,172)"/>
<path d="M58 59h1v1h-1v-1z" fill="rgb(57,65,131)"/>
<path d="M34 60h1v2h-1v-2z" fill="rgb(0,0,0)"/>
<path d="M35 60h2v1h-2v-1z" fill="rgb(57,65,131)"/>
<path d="M40 60h1v1h-1v-1z" fill="rgb(57,65,131)"/>
<path d="M48 60h1v1h-1v-1z" fill="rgb(57,65,131)"/>
<path d="M53 60h1v1h-1v-1z" fill="rgb(0,0,0)"/>
<path d="M54 60h1v1h-1v-1z" fill="rgb(57,65,131)"/>
<path d="M55 60h2v2h-1v-1h-1v-1z" fill="rgb(57,156,205)"/>
<path d="M57 60h2v1h-1v1h-1v-2z" fill="rgb(0,0,0)"/>
<path d="M35 61h2v1h-2v-1z" fill="rgb(98,189,246)"/>
<path d="M37 61h1v1h-1v-1z" fill="rgb(57,65,131)"/>
<path d="M38 61h1v1h-1v-1z" fill="rgb(0,0,0)"/>
<path d="M39 61h1v1h-1v-1z" fill="rgb(57,65,131)"/>
<path d="M43 61h1v2h-1v-2z" fill="rgb(57,156,205)"/>
<path d="M44 61h1v1h1v1h-2v-2z" fill="rgb(0,0,0)"/>
<path d="M49 61h1v1h-1v-1z" fill="rgb(57,65,131)"/>
<path d="M50 61h2v1h-2v-1z" fill="rgb(0,0,0)"/>
<path d="M55 61h1v1h1v1h-2v-2z" fill="rgb(0,0,0)"/>
<path d="M35 62h1v1h-1v-1z" fill="rgb(0,0,0)"/>
<path d="M36 62h1v1h-1v-1z" fill="rgb(57,156,205)"/>
<path d="M37 62h1v1h1v1h-3v-1h1v-1z" fill="rgb(0,0,0)"/>
<path d="M52 62h1v1h2v1h-4v-1h1v-1z" fill="rgb(0,0,0)"/>
<path d="M54 62h1v1h-1v-1z" fill="rgb(57,65,131)"/>
<path d="M41 63h1v1h-1v-1z" fill="rgb(57,156,205)"/>
<path d="M42 63h2v1h-2v-1z" fill="rgb(0,0,0)"/>
<path d="M46 63h1v1h-1v-1z" fill="rgb(0,0,0)"/>
<path d="M47 63h1v1h-1v-1z" fill="rgb(57,65,131)"/>
<path d="M39 64h3v1h-3v-1z" fill="rgb(0,0,0)"/>
<path d="M48 64h2v1h-2v-1z" fill="rgb(0,0,0)"/>
<path d="M50 64h1v1h-1v-1z" fill="rgb(57,65,131)"/>
</svg>
