<?xml version="1.0" encoding="utf-8"?>
<!-- generated at drububu.com  -->
<!DOCTYPE svg PUBLIC "-//W3C//DTD SVG 1.1//EN" "http://www.w3.org/Graphics/SVG/1.1/DTD/svg11.dtd">
<svg version="1.1" preserveAspectRatio="xMinYMin meet" xmlns="http://www.w3.org/2000/svg" xmlns:xlink="http://www.w3.org/1999/xlink" x="0px" y="0px" width="96px" height="96px" viewBox="0 0 96 96">
<path d="M0 0h96v96h-96v-96z" fill="transparent"/>
<path d="M55 24h1v1h-1v-1z" fill="rgb(156,131,106)"/>
<path d="M46 25h2v1h-2v-1z" fill="rgb(156,131,106)"/>
<path d="M54 25h1v1h-1v-1z" fill="rgb(156,131,106)"/>
<path d="M55 25h1v2h-1v1h-2v-1h1v-1h1v-1z" fill="rgb(230,222,131)"/>
<path d="M56 25h1v2h-1v-2z" fill="rgb(98,82,65)"/>
<path d="M46 26h1v2h-1v-2z" fill="rgb(98,82,65)"/>
<path d="M47 26h1v1h-1v-1z" fill="rgb(230,222,131)"/>
<path d="M48 26h1v1h-1v-1z" fill="rgb(156,131,106)"/>
<path d="M53 26h1v1h-1v-1z" fill="rgb(156,131,106)"/>
<path d="M47 27h1v1h1v2h1v1h-3v-4z" fill="rgb(197,172,115)"/>
<path d="M48 27h1v1h-1v-1z" fill="rgb(230,222,131)"/>
<path d="M49 27h1v1h-1v-1z" fill="rgb(156,131,106)"/>
<path d="M52 27h1v1h3v1h-5v-1h1v-1z" fill="rgb(156,131,106)"/>
<path d="M55 27h1v1h-1v-1z" fill="rgb(197,172,115)"/>
<path d="M56 27h1v1h-1v-1z" fill="rgb(156,131,106)"/>
<path d="M57 27h1v2h-1v-2z" fill="rgb(0,0,0)"/>
<path d="M45 28h1v1h-1v-1z" fill="rgb(156,131,106)"/>
<path d="M46 28h1v3h-1v-3z" fill="rgb(0,0,0)"/>
<path d="M49 28h1v1h1v1h-2v-2z" fill="rgb(230,222,131)"/>
<path d="M50 28h1v1h-1v-1z" fill="rgb(98,82,65)"/>
<path d="M56 28h1v1h-1v-1z" fill="rgb(197,172,115)"/>
<path d="M43 29h2v1h-2v-1z" fill="rgb(156,131,106)"/>
<path d="M45 29h1v3h1v1h-4v-1h-2v-1h2v-1h2v-1z" fill="rgb(255,238,197)"/>
<path d="M51 29h1v1h-1v-1z" fill="rgb(0,0,0)"/>
<path d="M52 29h2v1h-2v-1z" fill="rgb(197,172,115)"/>
<path d="M54 29h2v1h-2v-1z" fill="rgb(230,222,131)"/>
<path d="M56 29h1v1h-1v-1z" fill="rgb(156,131,106)"/>
<path d="M57 29h1v1h-1v-1z" fill="rgb(98,82,65)"/>
<path d="M41 30h2v1h-2v-1z" fill="rgb(156,131,106)"/>
<path d="M50 30h1v1h-1v-1z" fill="rgb(0,0,0)"/>
<path d="M51 30h3v1h2v1h2v1h-3v1h-1v1h-1v-1h-3v-1h-3v-1h3v-1h1v-1z" fill="rgb(230,222,131)"/>
<path d="M54 30h2v1h-2v-1z" fill="rgb(197,172,115)"/>
<path d="M56 30h2v1h-2v-1z" fill="rgb(230,222,131)"/>
<path d="M58 30h2v1h-2v-1z" fill="rgb(98,82,65)"/>
<path d="M40 31h1v1h-1v-1z" fill="rgb(156,131,106)"/>
<path d="M46 31h1v1h-1v-1z" fill="rgb(230,222,131)"/>
<path d="M47 31h2v1h-2v-1z" fill="rgb(0,0,0)"/>
<path d="M49 31h1v1h-1v-1z" fill="rgb(156,131,106)"/>
<path d="M56 31h1v1h-1v-1z" fill="rgb(197,172,115)"/>
<path d="M57 31h1v1h-1v-1z" fill="rgb(156,131,106)"/>
<path d="M58 31h1v1h-1v-1z" fill="rgb(230,222,131)"/>
<path d="M59 31h1v1h1v1h1v1h1v2h1v2h-2v-2h-1v-2h-1v-1h-1v-2z" fill="rgb(197,172,115)"/>
<path d="M60 31h1v1h-1v-1z" fill="rgb(98,82,65)"/>
<path d="M39 32h1v1h-1v-1z" fill="rgb(156,131,106)"/>
<path d="M40 32h1v2h-2v-1h1v-1z" fill="rgb(255,238,197)"/>
<path d="M41 32h2v1h-2v-1z" fill="rgb(156,131,106)"/>
<path d="M58 32h1v1h-1v-1z" fill="rgb(98,82,65)"/>
<path d="M61 32h1v1h-1v-1z" fill="rgb(98,82,65)"/>
<path d="M38 33h1v1h-1v-1z" fill="rgb(156,131,106)"/>
<path d="M41 33h1v1h-1v-1z" fill="rgb(98,82,65)"/>
<path d="M42 33h1v1h1v1h2v1h1v2h-1v-1h-1v-1h-2v-1h-1v-2z" fill="rgb(230,222,131)"/>
<path d="M43 33h2v1h-2v-1z" fill="rgb(98,82,65)"/>
<path d="M45 33h5v1h-5v-1z" fill="rgb(156,131,106)"/>
<path d="M55 33h4v1h1v2h1v2h-4v-1h-1v-1h-1v-1h-1v-1h1v-1z" fill="rgb(197,172,115)"/>
<path d="M59 33h1v1h-1v-1z" fill="rgb(98,82,65)"/>
<path d="M62 33h1v1h-1v-1z" fill="rgb(98,82,65)"/>
<path d="M37 34h1v2h-1v-2z" fill="rgb(156,131,106)"/>
<path d="M38 34h1v1h-1v-1z" fill="rgb(255,238,197)"/>
<path d="M39 34h2v1h-2v-1z" fill="rgb(197,172,115)"/>
<path d="M41 34h1v2h-1v-2z" fill="rgb(0,0,0)"/>
<path d="M44 34h1v1h-1v-1z" fill="rgb(156,131,106)"/>
<path d="M45 34h1v1h-1v-1z" fill="rgb(98,82,65)"/>
<path d="M46 34h4v1h3v1h-1v2h-1v4h-3v-1h-5v-1h4v-1h1v-3h-1v-1h-1v-1z" fill="rgb(230,222,131)"/>
<path d="M50 34h1v1h-1v-1z" fill="rgb(197,172,115)"/>
<path d="M51 34h2v1h-2v-1z" fill="rgb(156,131,106)"/>
<path d="M60 34h1v2h-1v-2z" fill="rgb(98,82,65)"/>
<path d="M63 34h1v2h-1v-2z" fill="rgb(0,0,0)"/>
<path d="M38 35h1v1h-1v-1z" fill="rgb(197,172,115)"/>
<path d="M39 35h2v1h1v3h1v2h-4v1h-2v1h-1v-4h1v-3h2v-1z" fill="rgb(255,238,197)"/>
<path d="M42 35h1v1h-1v-1z" fill="rgb(197,172,115)"/>
<path d="M46 35h1v1h-1v-1z" fill="rgb(98,82,65)"/>
<path d="M53 35h1v1h-1v-1z" fill="rgb(156,131,106)"/>
<path d="M54 35h1v1h-1v-1z" fill="rgb(98,82,65)"/>
<path d="M36 36h1v2h-1v-2z" fill="rgb(156,131,106)"/>
<path d="M42 36h1v1h-1v-1z" fill="rgb(98,82,65)"/>
<path d="M43 36h2v1h1v2h-2v-1h-1v-2z" fill="rgb(197,172,115)"/>
<path d="M47 36h1v1h-1v-1z" fill="rgb(98,82,65)"/>
<path d="M52 36h3v1h1v1h1v1h-1v1h-1v2h-1v2h-1v-1h-2v-5h1v-2z" fill="rgb(197,172,115)"/>
<path d="M55 36h1v1h-1v-1z" fill="rgb(98,82,65)"/>
<path d="M61 36h1v2h-1v-2z" fill="rgb(98,82,65)"/>
<path d="M64 36h1v2h-1v-2z" fill="rgb(0,0,0)"/>
<path d="M42 37h1v1h-1v-1z" fill="rgb(0,0,0)"/>
<path d="M47 37h1v1h-1v-1z" fill="rgb(0,0,0)"/>
<path d="M56 37h1v1h-1v-1z" fill="rgb(0,0,0)"/>
<path d="M36 38h1v1h-1v-1z" fill="rgb(98,82,65)"/>
<path d="M42 38h1v1h-1v-1z" fill="rgb(98,82,65)"/>
<path d="M43 38h1v1h-1v-1z" fill="rgb(156,131,106)"/>
<path d="M46 38h1v1h-1v-1z" fill="rgb(0,0,0)"/>
<path d="M47 38h1v1h-1v-1z" fill="rgb(197,172,115)"/>
<path d="M57 38h1v1h-1v-1z" fill="rgb(98,82,65)"/>
<path d="M58 38h3v2h-3v-2z" fill="rgb(156,131,106)"/>
<path d="M61 38h1v2h-1v-2z" fill="rgb(0,0,0)"/>
<path d="M62 38h2v1h1v3h-1v1h-1v-1h-1v-4z" fill="rgb(156,131,106)"/>
<path d="M64 38h1v1h-1v-1z" fill="rgb(197,172,115)"/>
<path d="M65 38h1v3h-1v-3z" fill="rgb(0,0,0)"/>
<path d="M35 39h1v4h-1v-4z" fill="rgb(98,82,65)"/>
<path d="M43 39h1v1h-1v-1z" fill="rgb(98,82,65)"/>
<path d="M44 39h2v1h-2v-1z" fill="rgb(0,0,0)"/>
<path d="M46 39h1v1h-1v-1z" fill="rgb(197,172,115)"/>
<path d="M56 39h1v3h-1v2h-1v1h-1v-3h1v-2h1v-1z" fill="rgb(156,131,106)"/>
<path d="M57 39h1v1h3v1h-3v1h-1v-3z" fill="rgb(0,0,0)"/>
<path d="M61 40h1v1h-1v-1z" fill="rgb(98,82,65)"/>
<path d="M39 41h3v1h-3v-1z" fill="rgb(197,172,115)"/>
<path d="M42 41h6v1h-6v-1z" fill="rgb(156,131,106)"/>
<path d="M58 41h3v1h1v2h1v4h-1v-1h-1v-1h-2v1h-1v1h-1v5h-1v-9h1v-2h1v-1z" fill="rgb(156,131,106)"/>
<path d="M61 41h1v1h-1v-1z" fill="rgb(0,0,0)"/>
<path d="M65 41h1v1h-1v-1z" fill="rgb(98,82,65)"/>
<path d="M66 41h1v8h-1v-8z" fill="rgb(0,0,0)"/>
<path d="M37 42h2v1h-2v-1z" fill="rgb(197,172,115)"/>
<path d="M39 42h4v1h-4v-1z" fill="rgb(255,238,197)"/>
<path d="M43 42h5v1h2v4h-1v1h-2v-1h-1v-2h-2v-1h-2v-1h1v-1z" fill="rgb(230,222,131)"/>
<path d="M48 42h1v1h-1v-1z" fill="rgb(197,172,115)"/>
<path d="M49 42h1v1h-1v-1z" fill="rgb(156,131,106)"/>
<path d="M50 42h1v1h-1v-1z" fill="rgb(98,82,65)"/>
<path d="M56 42h1v1h-1v-1z" fill="rgb(0,0,0)"/>
<path d="M62 42h1v1h-1v-1z" fill="rgb(0,0,0)"/>
<path d="M64 42h1v1h-1v-1z" fill="rgb(98,82,65)"/>
<path d="M65 42h1v7h-1v-1h-1v-5h1v-1z" fill="rgb(156,131,106)"/>
<path d="M34 43h1v5h-1v-5z" fill="rgb(98,82,65)"/>
<path d="M35 43h1v1h-1v-1z" fill="rgb(255,238,197)"/>
<path d="M36 43h1v1h-1v-1z" fill="rgb(197,172,115)"/>
<path d="M37 43h2v1h-1v4h-3v-2h1v-2h1v-1z" fill="rgb(255,238,197)"/>
<path d="M39 43h3v1h-3v-1z" fill="rgb(156,131,106)"/>
<path d="M50 43h1v1h2v1h1v4h-2v-1h-3v-1h1v-4z" fill="rgb(197,172,115)"/>
<path d="M51 43h2v1h-2v-1z" fill="rgb(98,82,65)"/>
<path d="M56 43h1v1h-1v-1z" fill="rgb(98,82,65)"/>
<path d="M62 43h1v1h-1v-1z" fill="rgb(98,82,65)"/>
<path d="M63 43h1v5h-1v-5z" fill="rgb(0,0,0)"/>
<path d="M35 44h1v1h-1v-1z" fill="rgb(197,172,115)"/>
<path d="M38 44h1v1h1v2h1v2h-1v-1h-2v-4z" fill="rgb(230,222,131)"/>
<path d="M39 44h1v1h-1v-1z" fill="rgb(98,82,65)"/>
<path d="M40 44h1v1h-1v-1z" fill="rgb(197,172,115)"/>
<path d="M41 44h1v1h-1v-1z" fill="rgb(230,222,131)"/>
<path d="M42 44h2v1h-2v-1z" fill="rgb(156,131,106)"/>
<path d="M53 44h1v1h-1v-1z" fill="rgb(98,82,65)"/>
<path d="M55 44h1v1h-1v-1z" fill="rgb(98,82,65)"/>
<path d="M35 45h1v1h-1v-1z" fill="rgb(230,222,131)"/>
<path d="M40 45h1v1h-1v-1z" fill="rgb(156,131,106)"/>
<path d="M41 45h1v1h1v1h1v1h1v1h-2v-1h-1v-1h-1v-2z" fill="rgb(197,172,115)"/>
<path d="M42 45h2v1h1v2h-1v-1h-1v-1h-1v-1z" fill="rgb(230,222,131)"/>
<path d="M44 45h1v1h-1v-1z" fill="rgb(156,131,106)"/>
<path d="M45 45h1v1h-1v-1z" fill="rgb(197,172,115)"/>
<path d="M54 45h1v2h-1v-2z" fill="rgb(98,82,65)"/>
<path d="M55 45h1v4h-1v-4z" fill="rgb(0,0,0)"/>
<path d="M27 46h2v1h-2v-1z" fill="rgb(65,106,172)"/>
<path d="M29 46h2v1h-2v-1z" fill="rgb(57,65,131)"/>
<path d="M40 46h1v1h-1v-1z" fill="rgb(98,82,65)"/>
<path d="M45 46h1v1h-1v-1z" fill="rgb(156,131,106)"/>
<path d="M59 46h2v1h-2v-1z" fill="rgb(98,82,65)"/>
<path d="M25 47h2v1h-2v-1z" fill="rgb(65,106,172)"/>
<path d="M27 47h4v1h1v1h1v2h-1v1h-1v-2h-1v-1h-3v-2z" fill="rgb(57,156,205)"/>
<path d="M31 47h1v1h-1v-1z" fill="rgb(57,65,131)"/>
<path d="M41 47h1v1h-1v-1z" fill="rgb(98,82,65)"/>
<path d="M45 47h1v1h-1v-1z" fill="rgb(98,82,65)"/>
<path d="M46 47h1v2h-1v-2z" fill="rgb(197,172,115)"/>
<path d="M54 47h1v3h-1v-3z" fill="rgb(156,131,106)"/>
<path d="M58 47h1v1h-1v-1z" fill="rgb(98,82,65)"/>
<path d="M59 47h2v2h-1v1h-1v1h-1v-3h1v-1z" fill="rgb(156,131,106)"/>
<path d="M61 47h1v2h-1v-2z" fill="rgb(98,82,65)"/>
<path d="M23 48h2v1h-2v-1z" fill="rgb(65,106,172)"/>
<path d="M25 48h2v1h-1v1h-3v-1h2v-1z" fill="rgb(98,189,246)"/>
<path d="M32 48h1v1h-1v-1z" fill="rgb(57,65,131)"/>
<path d="M34 48h1v1h-1v-1z" fill="rgb(156,131,106)"/>
<path d="M35 48h2v1h-2v-1z" fill="rgb(98,82,65)"/>
<path d="M37 48h2v1h-2v-1z" fill="rgb(156,131,106)"/>
<path d="M39 48h1v1h-1v-1z" fill="rgb(197,172,115)"/>
<path d="M41 48h1v1h-1v-1z" fill="rgb(0,0,0)"/>
<path d="M42 48h1v1h-1v-1z" fill="rgb(156,131,106)"/>
<path d="M45 48h1v1h-1v-1z" fill="rgb(0,0,0)"/>
<path d="M47 48h1v1h-1v-1z" fill="rgb(156,131,106)"/>
<path d="M48 48h4v1h-4v-1z" fill="rgb(98,82,65)"/>
<path d="M57 48h1v2h-1v-2z" fill="rgb(98,82,65)"/>
<path d="M62 48h3v1h-3v-1z" fill="rgb(57,65,131)"/>
<path d="M22 49h1v1h-1v-1z" fill="rgb(65,106,172)"/>
<path d="M26 49h1v1h-1v-1z" fill="rgb(57,156,205)"/>
<path d="M27 49h1v1h-1v-1z" fill="rgb(57,65,131)"/>
<path d="M28 49h2v1h-2v-1z" fill="rgb(0,0,0)"/>
<path d="M33 49h1v1h-1v-1z" fill="rgb(57,65,131)"/>
<path d="M34 49h1v1h-1v-1z" fill="rgb(98,82,65)"/>
<path d="M35 49h5v1h-5v-1z" fill="rgb(230,222,131)"/>
<path d="M40 49h2v1h-2v-1z" fill="rgb(156,131,106)"/>
<path d="M42 49h1v1h-1v-1z" fill="rgb(98,82,65)"/>
<path d="M43 49h2v1h-2v-1z" fill="rgb(0,0,0)"/>
<path d="M45 49h2v1h-2v-1z" fill="rgb(156,131,106)"/>
<path d="M47 49h5v2h-1v-1h-4v-1z" fill="rgb(230,222,131)"/>
<path d="M52 49h2v1h-2v-1z" fill="rgb(98,82,65)"/>
<path d="M55 49h1v2h-1v-2z" fill="rgb(98,82,65)"/>
<path d="M60 49h2v1h-2v-1z" fill="rgb(57,65,131)"/>
<path d="M62 49h3v1h2v1h-1v1h-1v-1h-2v1h-1v1h-1v1h-1v2h-1v2h-1v-1h-1v-2h1v-2h1v-2h1v-1h2
	v-1z" fill="rgb(57,156,205)"/>
<path d="M65 49h2v1h-2v-1z" fill="rgb(57,65,131)"/>
<path d="M23 50h4v1h-4v-1z" fill="rgb(57,65,131)"/>
<path d="M30 50h1v2h-1v-2z" fill="rgb(0,0,0)"/>
<path d="M33 50h1v1h-1v-1z" fill="rgb(65,65,65)"/>
<path d="M34 50h2v1h-1v1h-1v2h-1v-3h1v-1z" fill="rgb(197,172,115)"/>
<path d="M36 50h4v1h-4v-1z" fill="rgb(156,131,106)"/>
<path d="M40 50h5v1h-1v1h-3v-1h-1v-1z" fill="rgb(230,222,131)"/>
<path d="M45 50h2v1h-1v1h-1v1h-1v1h-1v-1h-1v-1h2v-1h1v-1z" fill="rgb(197,172,115)"/>
<path d="M47 50h4v1h-4v-1z" fill="rgb(156,131,106)"/>
<path d="M52 50h2v1h1v2h-1v-1h-1v-1h-1v-1z" fill="rgb(197,172,115)"/>
<path d="M54 50h1v1h-1v-1z" fill="rgb(0,0,0)"/>
<path d="M57 50h1v2h-1v-2z" fill="rgb(0,0,0)"/>
<path d="M59 50h1v1h-1v-1z" fill="rgb(57,65,131)"/>
<path d="M67 50h3v1h-3v-1z" fill="rgb(65,106,172)"/>
<path d="M32 51h1v2h-1v-2z" fill="rgb(65,65,65)"/>
<path d="M35 51h1v1h-1v-1z" fill="rgb(156,131,106)"/>
<path d="M36 51h1v1h-1v-1z" fill="rgb(230,222,131)"/>
<path d="M37 51h2v1h-2v-1z" fill="rgb(255,246,156)"/>
<path d="M39 51h1v1h-1v-1z" fill="rgb(230,222,131)"/>
<path d="M40 51h1v1h-1v-1z" fill="rgb(98,82,65)"/>
<path d="M46 51h1v1h-1v-1z" fill="rgb(156,131,106)"/>
<path d="M47 51h1v1h-1v-1z" fill="rgb(230,222,131)"/>
<path d="M48 51h2v1h-2v-1z" fill="rgb(255,246,156)"/>
<path d="M50 51h1v1h-1v-1z" fill="rgb(230,222,131)"/>
<path d="M51 51h1v1h-1v-1z" fill="rgb(98,82,65)"/>
<path d="M52 51h1v1h-1v-1z" fill="rgb(156,131,106)"/>
<path d="M55 51h1v2h-1v-2z" fill="rgb(0,0,0)"/>
<path d="M58 51h1v2h-1v-2z" fill="rgb(57,65,131)"/>
<path d="M63 51h2v1h-2v-1z" fill="rgb(0,0,0)"/>
<path d="M66 51h4v1h-1v1h-2v-1h-1v-1z" fill="rgb(98,189,246)"/>
<path d="M70 51h1v1h-1v-1z" fill="rgb(65,106,172)"/>
<path d="M31 52h1v1h-1v-1z" fill="rgb(0,0,0)"/>
<path d="M34 52h1v1h-1v-1z" fill="rgb(156,131,106)"/>
<path d="M35 52h1v1h-1v-1z" fill="rgb(230,222,131)"/>
<path d="M36 52h1v1h-1v-1z" fill="rgb(255,246,156)"/>
<path d="M37 52h1v1h-1v-1z" fill="rgb(0,0,0)"/>
<path d="M38 52h1v1h-1v-1z" fill="rgb(197,172,115)"/>
<path d="M39 52h1v1h1v1h-1v1h-1v-3z" fill="rgb(255,246,156)"/>
<path d="M40 52h1v1h-1v-1z" fill="rgb(230,222,131)"/>
<path d="M41 52h1v2h-1v-2z" fill="rgb(98,82,65)"/>
<path d="M45 52h1v1h-1v-1z" fill="rgb(156,131,106)"/>
<path d="M46 52h1v1h-1v-1z" fill="rgb(230,222,131)"/>
<path d="M47 52h1v1h-1v-1z" fill="rgb(255,246,156)"/>
<path d="M48 52h1v1h-1v-1z" fill="rgb(0,0,0)"/>
<path d="M49 52h1v1h-1v-1z" fill="rgb(197,172,115)"/>
<path d="M50 52h1v1h1v1h-1v1h-1v-3z" fill="rgb(255,246,156)"/>
<path d="M51 52h1v1h-1v-1z" fill="rgb(230,222,131)"/>
<path d="M52 52h1v2h-1v-2z" fill="rgb(98,82,65)"/>
<path d="M53 52h1v1h2v3h-1v-1h-2v-3z" fill="rgb(156,131,106)"/>
<path d="M57 52h1v1h-1v-1z" fill="rgb(98,82,65)"/>
<path d="M62 52h1v3h-1v-1h-1v-1h1v-1z" fill="rgb(0,0,0)"/>
<path d="M63 52h2v3h-1v1h-1v1h-2v-1h1v-1h1v-3z" fill="rgb(156,131,106)"/>
<path d="M65 52h1v1h1v1h-1v1h-1v-3z" fill="rgb(0,0,0)"/>
<path d="M66 52h1v1h-1v-1z" fill="rgb(57,156,205)"/>
<path d="M69 52h1v1h-1v-1z" fill="rgb(57,65,131)"/>
<path d="M24 53h5v1h-5v-1z" fill="rgb(65,106,172)"/>
<path d="M32 53h1v1h-1v-1z" fill="rgb(0,0,0)"/>
<path d="M34 53h1v1h-1v-1z" fill="rgb(98,82,65)"/>
<path d="M35 53h1v1h-1v-1z" fill="rgb(255,246,156)"/>
<path d="M36 53h2v1h-2v-1z" fill="rgb(255,255,255)"/>
<path d="M38 53h1v2h-1v-2z" fill="rgb(98,82,65)"/>
<path d="M42 53h1v1h-1v-1z" fill="rgb(156,131,106)"/>
<path d="M44 53h1v1h-1v-1z" fill="rgb(156,131,106)"/>
<path d="M45 53h1v1h-1v-1z" fill="rgb(98,82,65)"/>
<path d="M46 53h1v1h-1v-1z" fill="rgb(255,246,156)"/>
<path d="M47 53h2v1h-2v-1z" fill="rgb(255,255,255)"/>
<path d="M49 53h1v2h-1v-2z" fill="rgb(98,82,65)"/>
<path d="M56 53h1v4h1v1h-2v-1h-1v-1h1v-3z" fill="rgb(0,0,0)"/>
<path d="M57 53h1v2h-1v-2z" fill="rgb(57,65,131)"/>
<path d="M67 53h2v1h-2v-1z" fill="rgb(57,65,131)"/>
<path d="M22 54h2v1h-1v2h-1v-1h-1v-1h1v-1z" fill="rgb(65,106,172)"/>
<path d="M24 54h1v1h1v1h-1v1h-2v-2h1v-1z" fill="rgb(98,189,246)"/>
<path d="M25 54h4v1h2v1h1v2h-2v-1h-2v-1h-2v-1h-1v-1z" fill="rgb(57,156,205)"/>
<path d="M29 54h2v1h-2v-1z" fill="rgb(57,65,131)"/>
<path d="M33 54h1v2h-1v-2z" fill="rgb(0,0,0)"/>
<path d="M34 54h1v2h-1v-2z" fill="rgb(57,65,131)"/>
<path d="M35 54h1v1h-1v-1z" fill="rgb(230,222,131)"/>
<path d="M36 54h1v1h-1v-1z" fill="rgb(255,246,156)"/>
<path d="M37 54h1v1h-1v-1z" fill="rgb(0,0,0)"/>
<path d="M40 54h1v1h-1v-1z" fill="rgb(230,222,131)"/>
<path d="M41 54h1v2h-1v-2z" fill="rgb(57,65,131)"/>
<path d="M42 54h1v1h-1v-1z" fill="rgb(0,0,0)"/>
<path d="M43 54h1v1h-1v-1z" fill="rgb(98,82,65)"/>
<path d="M44 54h1v1h-1v-1z" fill="rgb(0,0,0)"/>
<path d="M45 54h1v2h-1v-2z" fill="rgb(57,65,131)"/>
<path d="M46 54h1v1h-1v-1z" fill="rgb(230,222,131)"/>
<path d="M47 54h1v1h-1v-1z" fill="rgb(255,246,156)"/>
<path d="M48 54h1v1h-1v-1z" fill="rgb(0,0,0)"/>
<path d="M51 54h1v1h-1v-1z" fill="rgb(230,222,131)"/>
<path d="M52 54h1v1h1v1h-2v-2z" fill="rgb(57,65,131)"/>
<path d="M60 54h1v2h-1v-2z" fill="rgb(0,0,0)"/>
<path d="M61 54h1v1h-1v-1z" fill="rgb(156,131,106)"/>
<path d="M31 55h1v1h-1v-1z" fill="rgb(57,65,131)"/>
<path d="M35 55h1v1h-1v-1z" fill="rgb(197,172,115)"/>
<path d="M36 55h1v1h-1v-1z" fill="rgb(230,222,131)"/>
<path d="M37 55h1v1h-1v-1z" fill="rgb(98,82,65)"/>
<path d="M38 55h1v1h1v1h-4v-1h2v-1z" fill="rgb(197,172,115)"/>
<path d="M39 55h1v1h-1v-1z" fill="rgb(230,222,131)"/>
<path d="M40 55h1v1h-1v-1z" fill="rgb(197,172,115)"/>
<path d="M42 55h3v1h1v1h1v1h-7v-1h1v-1h1v-1z" fill="rgb(98,189,246)"/>
<path d="M46 55h1v1h-1v-1z" fill="rgb(197,172,115)"/>
<path d="M47 55h1v1h-1v-1z" fill="rgb(230,222,131)"/>
<path d="M48 55h1v1h-1v-1z" fill="rgb(98,82,65)"/>
<path d="M49 55h1v1h1v1h-4v-1h2v-1z" fill="rgb(197,172,115)"/>
<path d="M50 55h1v1h-1v-1z" fill="rgb(230,222,131)"/>
<path d="M51 55h1v1h-1v-1z" fill="rgb(197,172,115)"/>
<path d="M54 55h1v1h-1v-1z" fill="rgb(0,0,0)"/>
<path d="M61 55h1v1h-1v-1z" fill="rgb(98,82,65)"/>
<path d="M64 55h1v1h-1v-1z" fill="rgb(0,0,0)"/>
<path d="M20 56h1v1h-1v-1z" fill="rgb(65,106,172)"/>
<path d="M21 56h1v1h-1v-1z" fill="rgb(98,189,246)"/>
<path d="M25 56h1v1h-1v-1z" fill="rgb(57,65,131)"/>
<path d="M26 56h2v1h-2v-1z" fill="rgb(0,0,0)"/>
<path d="M32 56h2v1h-1v1h-1v-2z" fill="rgb(57,65,131)"/>
<path d="M34 56h1v1h1v1h3v1h-1v5h-2v-1h-2v-1h-4v-1h-1v-1h2v-1h2v-1h1v-2z" fill="rgb(98,189,246)"/>
<path d="M35 56h1v1h-1v-1z" fill="rgb(57,65,131)"/>
<path d="M40 56h1v1h-1v-1z" fill="rgb(57,65,131)"/>
<path d="M46 56h1v1h-1v-1z" fill="rgb(57,65,131)"/>
<path d="M51 56h1v1h-1v-1z" fill="rgb(57,65,131)"/>
<path d="M52 56h2v2h2v1h2v1h1v1h2v1h-1v1h-3v-1h-3v1h-2v1h-2v-4h-1v-1h-1v-1h3v-1h1v-1z" fill="rgb(98,189,246)"/>
<path d="M54 56h1v1h-1v-1z" fill="rgb(57,65,131)"/>
<path d="M59 56h1v2h-1v-2z" fill="rgb(0,0,0)"/>
<path d="M60 56h1v1h-1v-1z" fill="rgb(98,82,65)"/>
<path d="M63 56h3v1h-3v-1z" fill="rgb(57,65,131)"/>
<path d="M66 56h2v1h-2v-1z" fill="rgb(65,106,172)"/>
<path d="M21 57h4v1h-4v-1z" fill="rgb(57,65,131)"/>
<path d="M28 57h2v1h-2v-1z" fill="rgb(0,0,0)"/>
<path d="M33 57h1v1h-1v-1z" fill="rgb(57,156,205)"/>
<path d="M36 57h4v1h-4v-1z" fill="rgb(57,65,131)"/>
<path d="M47 57h4v1h-4v-1z" fill="rgb(57,65,131)"/>
<path d="M54 57h2v1h-2v-1z" fill="rgb(57,156,205)"/>
<path d="M60 57h1v1h-1v-1z" fill="rgb(156,131,106)"/>
<path d="M61 57h2v1h-2v-1z" fill="rgb(57,65,131)"/>
<path d="M63 57h4v1h-1v1h-3v1h-3v-1h1v-1h2v-1z" fill="rgb(57,156,205)"/>
<path d="M67 57h1v1h2v1h1v1h2v1h-3v-1h-2v-1h-2v-1h1v-1z" fill="rgb(98,189,246)"/>
<path d="M68 57h2v1h-2v-1z" fill="rgb(65,106,172)"/>
<path d="M30 58h1v1h-1v-1z" fill="rgb(0,0,0)"/>
<path d="M31 58h1v1h-1v-1z" fill="rgb(57,65,131)"/>
<path d="M32 58h1v1h-1v-1z" fill="rgb(57,156,205)"/>
<path d="M39 58h2v1h-2v-1z" fill="rgb(98,82,65)"/>
<path d="M41 58h1v1h-1v-1z" fill="rgb(197,172,115)"/>
<path d="M42 58h3v1h-1v1h-1v1h6v-1h1v2h-2v1h-4v1h1v1h1v1h-4v-1h-1v-1h1v-1h-3v-1h-1v-1h4
	v-3z" fill="rgb(0,0,0)"/>
<path d="M45 58h1v1h-1v-1z" fill="rgb(197,172,115)"/>
<path d="M46 58h2v1h-2v-1z" fill="rgb(98,82,65)"/>
<path d="M56 58h2v1h-2v-1z" fill="rgb(57,156,205)"/>
<path d="M58 58h1v1h-1v-1z" fill="rgb(0,0,0)"/>
<path d="M59 58h2v1h-2v-1z" fill="rgb(57,65,131)"/>
<path d="M70 58h1v1h-1v-1z" fill="rgb(65,106,172)"/>
<path d="M29 59h1v1h-1v-1z" fill="rgb(57,65,131)"/>
<path d="M30 59h1v1h-1v-1z" fill="rgb(65,106,172)"/>
<path d="M38 59h1v1h-1v-1z" fill="rgb(98,82,65)"/>
<path d="M39 59h1v1h-1v-1z" fill="rgb(230,222,131)"/>
<path d="M40 59h2v2h-3v-1h1v-1z" fill="rgb(255,238,197)"/>
<path d="M44 59h2v1h1v1h-3v-2z" fill="rgb(255,238,197)"/>
<path d="M46 59h1v1h-1v-1z" fill="rgb(230,222,131)"/>
<path d="M47 59h1v1h1v1h-2v-2z" fill="rgb(197,172,115)"/>
<path d="M48 59h1v1h-1v-1z" fill="rgb(98,82,65)"/>
<path d="M58 59h1v1h-1v-1z" fill="rgb(57,156,205)"/>
<path d="M59 59h1v1h-1v-1z" fill="rgb(0,0,0)"/>
<path d="M63 59h1v1h-1v-1z" fill="rgb(57,65,131)"/>
<path d="M64 59h3v1h-3v-1z" fill="rgb(0,0,0)"/>
<path d="M67 59h1v1h-1v-1z" fill="rgb(57,65,131)"/>
<path d="M71 59h2v1h-2v-1z" fill="rgb(65,106,172)"/>
<path d="M28 60h1v1h-1v-1z" fill="rgb(57,65,131)"/>
<path d="M38 60h1v1h-1v-1z" fill="rgb(230,222,131)"/>
<path d="M43 60h1v1h-1v-1z" fill="rgb(230,222,131)"/>
<path d="M59 60h1v1h-1v-1z" fill="rgb(57,156,205)"/>
<path d="M60 60h2v1h-2v-1z" fill="rgb(57,65,131)"/>
<path d="M62 60h1v1h-1v-1z" fill="rgb(0,0,0)"/>
<path d="M68 60h1v1h-1v-1z" fill="rgb(0,0,0)"/>
<path d="M69 60h1v1h-1v-1z" fill="rgb(57,65,131)"/>
<path d="M73 60h1v1h-1v-1z" fill="rgb(65,106,172)"/>
<path d="M27 61h1v1h-1v-1z" fill="rgb(57,65,131)"/>
<path d="M28 61h2v2h-2v-2z" fill="rgb(57,156,205)"/>
<path d="M61 61h1v1h2v2h-3v-1h-1v-1h1v-1z" fill="rgb(57,156,205)"/>
<path d="M62 61h2v1h-2v-1z" fill="rgb(57,65,131)"/>
<path d="M70 61h2v1h-2v-1z" fill="rgb(0,0,0)"/>
<path d="M72 61h1v1h-1v-1z" fill="rgb(57,65,131)"/>
<path d="M27 62h1v1h-1v-1z" fill="rgb(0,0,0)"/>
<path d="M30 62h1v1h-1v-1z" fill="rgb(65,106,172)"/>
<path d="M31 62h1v1h-1v-1z" fill="rgb(57,65,131)"/>
<path d="M32 62h2v1h-2v-1z" fill="rgb(0,0,0)"/>
<path d="M38 62h1v1h-1v-1z" fill="rgb(156,131,106)"/>
<path d="M48 62h2v2h-1v-1h-1v-1z" fill="rgb(98,82,65)"/>
<path d="M54 62h3v2h-1v1h-1v2h1v2h1v2h-4v-1h-2v-1h-3v-1h-10v1h-2v1h-3v-2h1v-1h1v-4h1v1h3
	v1h2v1h6v-1h2v-1h3v-1h2v-1z" fill="rgb(57,156,205)"/>
<path d="M64 62h1v1h-1v-1z" fill="rgb(57,65,131)"/>
<path d="M28 63h3v1h-3v-1z" fill="rgb(0,0,0)"/>
<path d="M34 63h1v1h-1v-1z" fill="rgb(57,65,131)"/>
<path d="M38 63h1v1h-1v-1z" fill="rgb(98,82,65)"/>
<path d="M39 63h3v1h-1v1h-1v-1h-1v-1z" fill="rgb(197,172,115)"/>
<path d="M44 63h2v1h-2v-1z" fill="rgb(255,238,197)"/>
<path d="M46 63h1v1h-1v-1z" fill="rgb(230,222,131)"/>
<path d="M47 63h1v1h-1v-1z" fill="rgb(197,172,115)"/>
<path d="M48 63h1v1h-1v-1z" fill="rgb(156,131,106)"/>
<path d="M57 63h2v1h-2v-1z" fill="rgb(0,0,0)"/>
<path d="M59 63h1v1h-1v-1z" fill="rgb(57,65,131)"/>
<path d="M60 63h1v1h-1v-1z" fill="rgb(65,106,172)"/>
<path d="M64 63h1v1h-1v-1z" fill="rgb(0,0,0)"/>
<path d="M32 64h2v1h-2v-1z" fill="rgb(57,65,131)"/>
<path d="M34 64h1v2h-1v-2z" fill="rgb(0,0,0)"/>
<path d="M39 64h1v1h-1v-1z" fill="rgb(98,82,65)"/>
<path d="M45 64h1v1h-1v-1z" fill="rgb(230,222,131)"/>
<path d="M46 64h1v1h-1v-1z" fill="rgb(197,172,115)"/>
<path d="M47 64h1v1h-1v-1z" fill="rgb(156,131,106)"/>
<path d="M48 64h1v1h-1v-1z" fill="rgb(98,82,65)"/>
<path d="M56 64h1v1h-1v-1z" fill="rgb(0,0,0)"/>
<path d="M57 64h2v1h-2v-1z" fill="rgb(57,65,131)"/>
<path d="M59 64h1v1h-1v-1z" fill="transparent"/>
<path d="M60 64h4v1h-4v-1z" fill="rgb(0,0,0)"/>
<path d="M30 65h2v1h-2v-1z" fill="rgb(57,65,131)"/>
<path d="M32 65h2v1h-1v1h-2v1h-3v-1h2v-1h2v-1z" fill="rgb(57,156,205)"/>
<path d="M41 65h1v1h-1v-1z" fill="rgb(57,65,131)"/>
<path d="M46 65h1v1h-1v-1z" fill="rgb(98,82,65)"/>
<path d="M55 65h1v1h2v1h-1v1h-1v-1h-1v-2z" fill="rgb(0,0,0)"/>
<path d="M56 65h3v1h1v1h1v1h2v1h-3v-1h-1v-1h-1v-1h-2v-1z" fill="rgb(57,156,205)"/>
<path d="M59 65h1v1h-1v-1z" fill="rgb(57,65,131)"/>
<path d="M28 66h2v1h-2v-1z" fill="rgb(57,65,131)"/>
<path d="M33 66h1v1h-1v-1z" fill="rgb(0,0,0)"/>
<path d="M34 66h1v1h-1v-1z" fill="rgb(65,106,172)"/>
<path d="M60 66h1v1h-1v-1z" fill="rgb(57,65,131)"/>
<path d="M27 67h1v1h-1v-1z" fill="rgb(57,65,131)"/>
<path d="M31 67h1v1h-1v-1z" fill="rgb(57,65,131)"/>
<path d="M32 67h1v1h-1v-1z" fill="rgb(0,0,0)"/>
<path d="M33 67h1v1h-1v-1z" fill="rgb(57,65,131)"/>
<path d="M58 67h1v1h-1v-1z" fill="rgb(0,0,0)"/>
<path d="M61 67h2v1h-2v-1z" fill="rgb(57,65,131)"/>
<path d="M28 68h3v1h-3v-1z" fill="rgb(0,0,0)"/>
<path d="M32 68h1v1h-1v-1z" fill="rgb(57,65,131)"/>
<path d="M38 68h10v1h-10v-1z" fill="rgb(0,0,0)"/>
<path d="M56 68h1v1h-1v-1z" fill="rgb(57,65,131)"/>
<path d="M59 68h1v1h-1v-1z" fill="rgb(0,0,0)"/>
<path d="M63 68h1v1h-1v-1z" fill="rgb(57,65,131)"/>
<path d="M32 69h1v1h-1v-1z" fill="rgb(0,0,0)"/>
<path d="M36 69h2v1h-2v-1z" fill="rgb(0,0,0)"/>
<path d="M48 69h3v1h-3v-1z" fill="rgb(0,0,0)"/>
<path d="M57 69h1v1h-1v-1z" fill="rgb(57,65,131)"/>
<path d="M60 69h3v1h-3v-1z" fill="rgb(0,0,0)"/>
<path d="M33 70h3v1h-3v-1z" fill="rgb(0,0,0)"/>
<path d="M51 70h2v1h-2v-1z" fill="rgb(0,0,0)"/>
<path d="M57 70h1v1h-1v-1z" fill="rgb(0,0,0)"/>
<path d="M53 71h4v1h-4v-1z" fill="rgb(0,0,0)"/>
</svg>
