<?xml version="1.0" encoding="utf-8"?>
<!-- generated at drububu.com  -->
<!DOCTYPE svg PUBLIC "-//W3C//DTD SVG 1.1//EN" "http://www.w3.org/Graphics/SVG/1.1/DTD/svg11.dtd">
<svg version="1.1" preserveAspectRatio="xMinYMin meet" xmlns="http://www.w3.org/2000/svg" xmlns:xlink="http://www.w3.org/1999/xlink" x="0px" y="0px" width="96px" height="96px" viewBox="0 0 96 96">
<path d="M0 0h96v96h-96v-96z" fill="transparent"/>
<path d="M44 29h1v1h-1v-1z" fill="rgb(205,156,16)"/>
<path d="M45 29h4v1h-4v-1z" fill="rgb(156,123,0)"/>
<path d="M42 30h2v1h-2v-1z" fill="rgb(205,156,16)"/>
<path d="M44 30h5v1h1v1h1v1h1v2h1v4h-1v1h-1v-4h-4v1h-1v2h-1v2h4v1h-4v1h-5v-1h-1v-1h1v-1
	h-1v-2h-1v-4h1v2h1v1h3v-1h2v-1h1v-1h1v-2h-1v-1h-2v-1z" fill="rgb(246,205,49)"/>
<path d="M49 30h2v1h-2v-1z" fill="rgb(156,123,0)"/>
<path d="M40 31h2v1h-2v-1z" fill="rgb(205,156,16)"/>
<path d="M42 31h1v1h-1v-1z" fill="rgb(246,205,49)"/>
<path d="M43 31h3v1h1v2h-1v1h-1v1h-2v1h-3v-1h-1v-2h1v-1h1v-1h2v-1z" fill="rgb(255,246,205)"/>
<path d="M50 31h1v1h-1v-1z" fill="rgb(205,156,16)"/>
<path d="M51 31h2v1h-2v-1z" fill="rgb(156,123,0)"/>
<path d="M39 32h1v1h-1v-1z" fill="rgb(205,156,16)"/>
<path d="M40 32h1v1h-1v-1z" fill="rgb(246,205,49)"/>
<path d="M51 32h2v1h1v1h1v2h1v3h-1v1h-2v1h-2v-1h1v-1h1v-4h-1v-2h-1v-1z" fill="rgb(205,156,16)"/>
<path d="M53 32h1v1h-1v-1z" fill="rgb(123,90,0)"/>
<path d="M38 33h1v1h-1v-1z" fill="rgb(205,156,16)"/>
<path d="M39 33h1v1h-1v-1z" fill="rgb(246,205,49)"/>
<path d="M54 33h1v1h-1v-1z" fill="rgb(123,90,0)"/>
<path d="M37 34h1v1h-1v-1z" fill="rgb(205,156,16)"/>
<path d="M55 34h1v1h-1v-1z" fill="rgb(74,57,0)"/>
<path d="M37 35h1v1h-1v-1z" fill="rgb(156,123,0)"/>
<path d="M55 35h1v1h-1v-1z" fill="rgb(123,90,0)"/>
<path d="M36 36h1v1h-1v-1z" fill="rgb(156,123,0)"/>
<path d="M37 36h1v1h-1v-1z" fill="rgb(205,156,16)"/>
<path d="M47 36h1v1h-1v-1z" fill="rgb(205,156,16)"/>
<path d="M48 36h2v1h-2v-1z" fill="rgb(57,57,57)"/>
<path d="M50 36h1v1h-1v-1z" fill="rgb(205,156,16)"/>
<path d="M56 36h1v2h-1v-2z" fill="rgb(74,57,0)"/>
<path d="M36 37h1v3h-1v-3z" fill="rgb(74,57,0)"/>
<path d="M37 37h1v1h-1v-1z" fill="rgb(106,106,106)"/>
<path d="M46 37h1v1h-1v-1z" fill="rgb(205,156,16)"/>
<path d="M47 37h1v1h-1v-1z" fill="rgb(57,57,57)"/>
<path d="M48 37h3v3h-1v-1h-1v-1h-1v-1z" fill="rgb(16,16,16)"/>
<path d="M37 38h1v1h-1v-1z" fill="rgb(57,57,57)"/>
<path d="M38 38h1v1h-1v-1z" fill="rgb(205,156,16)"/>
<path d="M46 38h1v1h-1v-1z" fill="rgb(57,57,57)"/>
<path d="M47 38h1v2h-1v-2z" fill="rgb(106,106,106)"/>
<path d="M48 38h1v1h1v1h-1v1h-4v-1h3v-2z" fill="rgb(57,57,57)"/>
<path d="M56 38h1v2h-1v-2z" fill="rgb(16,16,16)"/>
<path d="M37 39h1v1h-1v-1z" fill="rgb(255,255,255)"/>
<path d="M38 39h1v2h-2v-1h1v-1z" fill="rgb(57,57,57)"/>
<path d="M45 39h1v1h-1v-1z" fill="rgb(205,156,16)"/>
<path d="M46 39h1v1h-1v-1z" fill="rgb(255,255,255)"/>
<path d="M55 39h1v1h-1v-1z" fill="rgb(156,123,0)"/>
<path d="M36 40h1v1h-1v-1z" fill="rgb(123,90,0)"/>
<path d="M39 40h1v1h-1v-1z" fill="rgb(205,156,16)"/>
<path d="M49 40h1v2h-1v-2z" fill="rgb(205,156,16)"/>
<path d="M50 40h1v1h-1v-1z" fill="rgb(246,205,49)"/>
<path d="M53 40h2v1h-2v-1z" fill="rgb(156,123,0)"/>
<path d="M55 40h1v1h-1v-1z" fill="rgb(16,16,16)"/>
<path d="M37 41h1v1h-1v-1z" fill="rgb(123,90,0)"/>
<path d="M38 41h1v1h-1v-1z" fill="rgb(205,156,16)"/>
<path d="M50 41h3v1h-3v-1z" fill="rgb(156,123,0)"/>
<path d="M53 41h1v1h-1v-1z" fill="rgb(205,156,16)"/>
<path d="M54 41h1v1h-1v-1z" fill="rgb(16,16,16)"/>
<path d="M38 42h1v1h-1v-1z" fill="rgb(123,90,0)"/>
<path d="M39 42h1v1h-1v-1z" fill="rgb(156,123,0)"/>
<path d="M45 42h5v1h-3v1h-2v2h-1v-1h-1v-1h-3v-1h5v-1z" fill="rgb(156,123,0)"/>
<path d="M50 42h2v1h-2v-1z" fill="rgb(205,156,16)"/>
<path d="M52 42h2v1h-2v-1z" fill="rgb(16,16,16)"/>
<path d="M54 42h1v1h-1v-1z" fill="rgb(74,57,0)"/>
<path d="M38 43h1v1h-1v-1z" fill="rgb(156,123,0)"/>
<path d="M39 43h1v1h-1v-1z" fill="rgb(123,90,0)"/>
<path d="M47 43h3v1h-3v-1z" fill="rgb(205,156,16)"/>
<path d="M50 43h2v1h-2v-1z" fill="rgb(74,57,0)"/>
<path d="M52 43h1v1h1v1h-1v1h-5v-1h2v-1h2v-1z" fill="rgb(246,205,49)"/>
<path d="M53 43h2v1h1v1h-1v1h-2v-1h1v-1h-1v-1z" fill="rgb(205,156,16)"/>
<path d="M55 43h1v1h-1v-1z" fill="rgb(74,57,0)"/>
<path d="M37 44h1v1h-1v-1z" fill="rgb(123,90,0)"/>
<path d="M38 44h1v2h-1v-2z" fill="rgb(246,205,49)"/>
<path d="M39 44h1v1h-1v-1z" fill="rgb(156,123,0)"/>
<path d="M40 44h1v2h-1v-2z" fill="rgb(123,90,0)"/>
<path d="M41 44h2v1h-2v-1z" fill="rgb(205,156,16)"/>
<path d="M45 44h2v1h-2v-1z" fill="rgb(205,156,16)"/>
<path d="M47 44h2v1h-2v-1z" fill="rgb(74,57,0)"/>
<path d="M49 44h1v1h-1v-1z" fill="rgb(123,90,0)"/>
<path d="M56 44h1v1h-1v-1z" fill="rgb(74,57,0)"/>
<path d="M36 45h1v1h-1v-1z" fill="rgb(123,90,0)"/>
<path d="M37 45h1v1h-1v-1z" fill="rgb(255,246,205)"/>
<path d="M39 45h1v1h1v2h-1v-1h-2v-1h1v-1z" fill="rgb(205,156,16)"/>
<path d="M41 45h2v2h-1v-1h-1v-1z" fill="rgb(246,205,49)"/>
<path d="M43 45h1v2h-1v-2z" fill="rgb(205,156,16)"/>
<path d="M45 45h2v1h-1v1h-1v-2z" fill="rgb(74,57,0)"/>
<path d="M47 45h1v1h3v1h-4v-2z" fill="rgb(205,156,16)"/>
<path d="M55 45h1v1h-1v-1z" fill="rgb(156,123,0)"/>
<path d="M56 45h1v1h-1v-1z" fill="rgb(16,16,16)"/>
<path d="M36 46h1v1h-1v-1z" fill="rgb(74,57,0)"/>
<path d="M37 46h1v1h-1v-1z" fill="rgb(156,123,0)"/>
<path d="M41 46h1v1h-1v-1z" fill="rgb(123,90,0)"/>
<path d="M44 46h1v1h-1v-1z" fill="rgb(16,16,16)"/>
<path d="M46 46h1v1h-1v-1z" fill="rgb(123,90,0)"/>
<path d="M51 46h3v1h-3v-1z" fill="rgb(156,123,0)"/>
<path d="M54 46h1v1h-1v-1z" fill="rgb(74,57,0)"/>
<path d="M55 46h1v7h-1v-4h-1v-1h1v-2z" fill="rgb(16,16,16)"/>
<path d="M37 47h2v1h-2v-1z" fill="rgb(74,57,0)"/>
<path d="M39 47h1v1h-1v-1z" fill="rgb(123,90,0)"/>
<path d="M41 47h1v1h-1v-1z" fill="rgb(74,57,0)"/>
<path d="M42 47h1v1h-1v-1z" fill="rgb(205,156,16)"/>
<path d="M43 47h2v1h-2v-1z" fill="rgb(74,57,0)"/>
<path d="M45 47h2v3h-1v-2h-1v-1z" fill="rgb(205,156,16)"/>
<path d="M47 47h2v1h-2v-1z" fill="rgb(123,90,0)"/>
<path d="M49 47h1v1h-1v-1z" fill="rgb(74,57,0)"/>
<path d="M50 47h2v1h-2v-1z" fill="rgb(16,16,16)"/>
<path d="M52 47h1v1h-1v-1z" fill="rgb(74,57,0)"/>
<path d="M53 47h1v1h-1v-1z" fill="rgb(123,90,0)"/>
<path d="M54 47h1v1h-1v-1z" fill="rgb(205,156,16)"/>
<path d="M37 48h1v1h-1v-1z" fill="rgb(123,90,0)"/>
<path d="M38 48h2v1h-2v-1z" fill="rgb(246,205,49)"/>
<path d="M40 48h1v1h-1v-1z" fill="rgb(123,90,0)"/>
<path d="M41 48h1v3h-1v3h-1v-4h1v-2z" fill="rgb(246,205,49)"/>
<path d="M42 48h1v1h-1v-1z" fill="rgb(74,57,0)"/>
<path d="M43 48h2v2h1v4h-1v2h-1v2h-1v-8h-1v-1h1v-1z" fill="rgb(205,156,16)"/>
<path d="M45 48h1v1h-1v-1z" fill="rgb(74,57,0)"/>
<path d="M47 48h6v1h-1v1h-2v1h-1v-1h-2v-2z" fill="rgb(246,205,49)"/>
<path d="M53 48h1v1h-1v-1z" fill="rgb(205,156,16)"/>
<path d="M37 49h1v2h1v1h-1v1h-1v-4z" fill="rgb(74,57,0)"/>
<path d="M38 49h1v1h-1v-1z" fill="rgb(255,246,205)"/>
<path d="M39 49h1v1h-1v-1z" fill="rgb(205,156,16)"/>
<path d="M40 49h1v1h-1v-1z" fill="rgb(156,123,0)"/>
<path d="M45 49h1v1h-1v-1z" fill="rgb(123,90,0)"/>
<path d="M52 49h1v1h-1v-1z" fill="rgb(205,156,16)"/>
<path d="M53 49h1v1h-1v-1z" fill="rgb(16,16,16)"/>
<path d="M54 49h1v4h-1v3h-1v3h-1v2h-2v-2h-1v-3h1v-2h1v-3h2v-1h1v-1z" fill="rgb(205,156,16)"/>
<path d="M38 50h1v1h-1v-1z" fill="rgb(246,205,49)"/>
<path d="M39 50h1v4h-1v-4z" fill="rgb(156,123,0)"/>
<path d="M42 50h1v5h-1v-1h-1v-3h1v-1z" fill="rgb(255,246,205)"/>
<path d="M46 50h2v1h-1v3h-1v-4z" fill="rgb(74,57,0)"/>
<path d="M48 50h1v1h-1v-1z" fill="rgb(205,156,16)"/>
<path d="M50 50h1v1h-1v-1z" fill="rgb(205,156,16)"/>
<path d="M51 50h1v1h-1v-1z" fill="rgb(123,90,0)"/>
<path d="M52 50h1v1h-1v-1z" fill="rgb(74,57,0)"/>
<path d="M47 51h1v2h-1v-2z" fill="rgb(205,156,16)"/>
<path d="M48 51h1v1h-1v-1z" fill="rgb(123,90,0)"/>
<path d="M49 51h2v1h-2v-1z" fill="rgb(74,57,0)"/>
<path d="M38 52h1v2h-1v-2z" fill="rgb(246,205,49)"/>
<path d="M48 52h2v2h-1v2h-1v1h-1v-4h1v-1z" fill="rgb(246,205,49)"/>
<path d="M50 52h1v2h-1v-2z" fill="rgb(156,123,0)"/>
<path d="M37 53h1v1h-1v-1z" fill="rgb(123,90,0)"/>
<path d="M54 53h1v3h-1v-3z" fill="rgb(16,16,16)"/>
<path d="M38 54h1v1h-1v-1z" fill="rgb(123,90,0)"/>
<path d="M39 54h1v3h-1v-3z" fill="rgb(246,205,49)"/>
<path d="M40 54h1v1h-1v-1z" fill="rgb(156,123,0)"/>
<path d="M41 54h1v1h1v2h-1v-1h-1v-2z" fill="rgb(246,205,49)"/>
<path d="M45 54h1v1h-1v-1z" fill="rgb(123,90,0)"/>
<path d="M46 54h1v2h-1v-2z" fill="rgb(205,156,16)"/>
<path d="M49 54h1v2h-1v-2z" fill="rgb(156,123,0)"/>
<path d="M38 55h1v2h-1v-2z" fill="rgb(74,57,0)"/>
<path d="M40 55h1v1h-1v-1z" fill="rgb(123,90,0)"/>
<path d="M45 55h1v1h-1v-1z" fill="rgb(74,57,0)"/>
<path d="M40 56h1v2h-1v2h-1v-3h1v-1z" fill="rgb(74,57,0)"/>
<path d="M41 56h1v1h-1v-1z" fill="rgb(123,90,0)"/>
<path d="M44 56h1v1h-1v-1z" fill="rgb(123,90,0)"/>
<path d="M45 56h1v1h1v1h1v1h1v2h1v2h-1v-1h-1v-1h-1v-1h-2v-1h1v-1h-1v-2z" fill="rgb(205,156,16)"/>
<path d="M46 56h1v1h-1v-1z" fill="rgb(74,57,0)"/>
<path d="M48 56h1v2h-1v-2z" fill="rgb(156,123,0)"/>
<path d="M53 56h1v3h-1v-3z" fill="rgb(16,16,16)"/>
<path d="M41 57h1v1h1v1h-2v-2z" fill="rgb(246,205,49)"/>
<path d="M42 57h1v1h-1v-1z" fill="rgb(123,90,0)"/>
<path d="M44 57h1v1h-1v-1z" fill="rgb(74,57,0)"/>
<path d="M47 57h1v1h-1v-1z" fill="rgb(74,57,0)"/>
<path d="M40 58h1v2h-1v-2z" fill="rgb(123,90,0)"/>
<path d="M43 58h1v1h-1v-1z" fill="rgb(123,90,0)"/>
<path d="M44 58h1v1h-1v-1z" fill="rgb(205,156,16)"/>
<path d="M45 58h1v1h-1v-1z" fill="rgb(246,205,49)"/>
<path d="M48 58h1v1h-1v-1z" fill="rgb(74,57,0)"/>
<path d="M41 59h1v1h-1v-1z" fill="rgb(205,156,16)"/>
<path d="M42 59h3v1h-2v1h-2v-1h1v-1z" fill="rgb(156,123,0)"/>
<path d="M49 59h1v2h-1v-2z" fill="rgb(74,57,0)"/>
<path d="M52 59h1v2h-1v-2z" fill="rgb(16,16,16)"/>
<path d="M40 60h1v2h-1v-2z" fill="rgb(74,57,0)"/>
<path d="M43 60h2v2h-2v-2z" fill="rgb(246,205,49)"/>
<path d="M45 60h1v1h-1v-1z" fill="rgb(156,123,0)"/>
<path d="M46 60h1v1h-1v-1z" fill="rgb(123,90,0)"/>
<path d="M41 61h1v1h-1v-1z" fill="rgb(123,90,0)"/>
<path d="M42 61h1v1h-1v-1z" fill="rgb(255,246,205)"/>
<path d="M45 61h2v1h1v1h1v2h-2v-1h-1v-1h-1v-2z" fill="rgb(205,156,16)"/>
<path d="M47 61h1v1h-1v-1z" fill="rgb(123,90,0)"/>
<path d="M50 61h1v1h-1v-1z" fill="rgb(74,57,0)"/>
<path d="M51 61h1v2h-1v1h-1v-2h1v-1z" fill="rgb(16,16,16)"/>
<path d="M41 62h1v2h-1v-2z" fill="rgb(74,57,0)"/>
<path d="M42 62h1v1h-1v-1z" fill="rgb(246,205,49)"/>
<path d="M43 62h2v1h-2v-1z" fill="rgb(156,123,0)"/>
<path d="M48 62h1v1h-1v-1z" fill="rgb(123,90,0)"/>
<path d="M42 63h1v1h-1v-1z" fill="rgb(156,123,0)"/>
<path d="M43 63h2v2h-2v-2z" fill="rgb(246,205,49)"/>
<path d="M45 63h1v1h-1v-1z" fill="rgb(123,90,0)"/>
<path d="M49 63h1v1h-1v-1z" fill="rgb(74,57,0)"/>
<path d="M42 64h1v1h-1v-1z" fill="rgb(74,57,0)"/>
<path d="M45 64h1v1h1v2h-2v-1h-1v-1h1v-1z" fill="rgb(205,156,16)"/>
<path d="M46 64h1v1h-1v-1z" fill="rgb(123,90,0)"/>
<path d="M49 64h1v1h-1v-1z" fill="rgb(16,16,16)"/>
<path d="M43 65h1v1h-1v-1z" fill="rgb(74,57,0)"/>
<path d="M47 65h1v1h-1v-1z" fill="rgb(74,57,0)"/>
<path d="M48 65h1v1h-1v-1z" fill="rgb(16,16,16)"/>
<path d="M44 66h1v1h-1v-1z" fill="rgb(74,57,0)"/>
<path d="M47 66h1v1h-1v-1z" fill="rgb(16,16,16)"/>
<path d="M45 67h1v1h-1v-1z" fill="rgb(74,57,0)"/>
<path d="M46 67h1v1h-1v-1z" fill="rgb(16,16,16)"/>
</svg>
