<?xml version="1.0" encoding="utf-8"?>
<!-- generated at drububu.com  -->
<!DOCTYPE svg PUBLIC "-//W3C//DTD SVG 1.1//EN" "http://www.w3.org/Graphics/SVG/1.1/DTD/svg11.dtd">
<svg version="1.1" preserveAspectRatio="xMinYMin meet" xmlns="http://www.w3.org/2000/svg" xmlns:xlink="http://www.w3.org/1999/xlink" x="0px" y="0px" width="96px" height="96px" viewBox="0 0 96 96">
<path d="M0 0h96v96h-96v-96z" fill="transparent"/>
<path d="M43 33h2v1h-2v-1z" fill="rgb(123,82,41)"/>
<path d="M45 33h1v2h-1v-2z" fill="rgb(74,41,0)"/>
<path d="M46 33h1v1h-1v-1z" fill="rgb(255,255,255)"/>
<path d="M47 33h1v2h-2v-1h1v-1z" fill="rgb(0,0,0)"/>
<path d="M48 33h2v1h-2v-1z" fill="rgb(123,82,41)"/>
<path d="M40 34h3v1h-3v-1z" fill="rgb(74,41,0)"/>
<path d="M43 34h2v1h3v-1h2v1h4v1h2v1h1v1h2v1h1v1h1v2h1v2h-1v-1h-1v-1h-1v-1h-2v-1h-3v-1
	h-8v1h-2v1h-2v1h-2v1h-1v1h-2v1h-1v1h-1v1h-1v2h-1v2h-1v-6h1v-3h1v-2h1v-1h1v-1h1
	v-1h1v-1h2v-1h3v-1z" fill="rgb(197,131,41)"/>
<path d="M50 34h4v1h-4v-1z" fill="rgb(74,41,0)"/>
<path d="M38 35h2v1h-2v-1z" fill="rgb(74,41,0)"/>
<path d="M54 35h2v1h-2v-1z" fill="rgb(74,41,0)"/>
<path d="M37 36h1v1h-1v-1z" fill="rgb(74,41,0)"/>
<path d="M56 36h2v1h-2v-1z" fill="rgb(74,41,0)"/>
<path d="M36 37h1v1h-1v-1z" fill="rgb(74,41,0)"/>
<path d="M57 37h1v1h-1v-1z" fill="rgb(123,82,41)"/>
<path d="M58 37h1v1h-1v-1z" fill="rgb(0,0,0)"/>
<path d="M35 38h1v1h-1v-1z" fill="rgb(74,41,0)"/>
<path d="M59 38h1v1h-1v-1z" fill="rgb(0,0,0)"/>
<path d="M34 39h1v1h-1v-1z" fill="rgb(74,41,0)"/>
<path d="M46 39h3v1h-3v-1z" fill="rgb(164,106,41)"/>
<path d="M49 39h4v1h3v1h2v1h2v1h1v1h1v1h1v6h-1v-3h-1v-2h-1v-1h-1v-1h-1v-1h-1v-1h-4v-1h-2
	v-1h-2v-1z" fill="rgb(123,82,41)"/>
<path d="M53 39h1v1h-1v-1z" fill="rgb(164,106,41)"/>
<path d="M60 39h1v1h-1v-1z" fill="rgb(0,0,0)"/>
<path d="M33 40h1v1h-1v-1z" fill="rgb(74,41,0)"/>
<path d="M44 40h2v1h-2v-1z" fill="rgb(164,106,41)"/>
<path d="M46 40h5v1h2v1h4v1h1v1h1v1h1v1h1v2h1v3h1v1h-1v1h-1v-3h-1v-1h-2v4h-1v1h-1v1h-1v1
	h4v1h-4v1h-2v1h-3v-1h1v-1h-3v-1h-5v1h-4v-1h-1v-1h-2v-2h-1v-4h1v-2h1v-1h4v-1h1
	v-1h1v-2h1v-1h2v-1z" fill="rgb(0,0,0)"/>
<path d="M56 40h1v1h-1v-1z" fill="rgb(164,106,41)"/>
<path d="M61 40h1v2h-1v-2z" fill="rgb(0,0,0)"/>
<path d="M33 41h1v1h-1v-1z" fill="rgb(0,0,0)"/>
<path d="M42 41h2v1h-1v2h-1v1h-1v1h-4v1h-1v1h-1v7h-1v-1h-1v-5h1v-2h1v-1h1v-1h1v-1h2v-1h1
	v-1h2v-1z" fill="rgb(164,106,41)"/>
<path d="M58 41h1v1h-1v-1z" fill="rgb(164,106,41)"/>
<path d="M32 42h1v1h-1v-1z" fill="rgb(74,41,0)"/>
<path d="M62 42h1v2h-1v-2z" fill="rgb(0,0,0)"/>
<path d="M32 43h1v2h-1v-2z" fill="rgb(0,0,0)"/>
<path d="M45 43h3v1h-3v-1z" fill="rgb(255,139,172)"/>
<path d="M44 44h1v3h-1v-3z" fill="rgb(255,139,172)"/>
<path d="M45 44h3v3h-3v-3z" fill="rgb(255,74,131)"/>
<path d="M48 44h1v3h-1v-3z" fill="rgb(255,139,172)"/>
<path d="M62 44h1v1h-1v-1z" fill="rgb(164,106,41)"/>
<path d="M63 44h1v7h-1v-7z" fill="rgb(0,0,0)"/>
<path d="M31 45h1v1h-1v-1z" fill="rgb(74,41,0)"/>
<path d="M54 45h2v1h1v4h-2v-1h-2v-3h1v-1z" fill="rgb(189,164,0)"/>
<path d="M31 46h1v4h-1v-4z" fill="rgb(0,0,0)"/>
<path d="M45 47h3v1h-3v-1z" fill="rgb(255,139,172)"/>
<path d="M35 48h1v1h-1v-1z" fill="rgb(74,41,0)"/>
<path d="M37 48h3v1h-3v-1z" fill="rgb(255,139,172)"/>
<path d="M36 49h1v3h-1v-3z" fill="rgb(255,139,172)"/>
<path d="M37 49h3v3h-3v-3z" fill="rgb(255,74,131)"/>
<path d="M40 49h1v3h-1v-3z" fill="rgb(255,139,172)"/>
<path d="M53 49h2v1h2v1h-1v1h-1v1h-4v-1h1v-1h1v-2z" fill="rgb(238,197,0)"/>
<path d="M58 49h2v1h1v3h-1v2h-1v1h-4v-1h1v-1h1v1h1v-1h1v-2h-1v-3z" fill="rgb(189,164,0)"/>
<path d="M31 50h1v1h-1v-1z" fill="rgb(74,41,0)"/>
<path d="M32 51h1v1h-1v-1z" fill="rgb(123,82,41)"/>
<path d="M32 52h1v2h-1v-2z" fill="rgb(0,0,0)"/>
<path d="M37 52h3v1h-3v-1z" fill="rgb(255,139,172)"/>
<path d="M58 52h1v2h-1v-2z" fill="rgb(238,197,0)"/>
<path d="M35 53h1v3h-1v-3z" fill="rgb(123,82,41)"/>
<path d="M57 53h1v1h-1v-1z" fill="rgb(189,164,0)"/>
<path d="M60 53h1v2h-1v-2z" fill="rgb(0,0,0)"/>
<path d="M33 54h1v1h-1v-1z" fill="rgb(0,0,0)"/>
<path d="M57 54h1v1h-1v-1z" fill="rgb(238,197,0)"/>
<path d="M34 55h1v1h-1v-1z" fill="rgb(0,0,0)"/>
<path d="M36 55h2v1h1v3h-2v-1h-1v-3z" fill="rgb(189,164,0)"/>
<path d="M59 55h1v1h-1v-1z" fill="rgb(0,0,0)"/>
<path d="M35 56h1v2h-1v-2z" fill="rgb(0,0,0)"/>
<path d="M43 56h5v1h3v1h-1v1h-5v-1h-1v-1h-1v-1z" fill="rgb(16,57,106)"/>
<path d="M39 57h4v1h-1v1h-3v-2z" fill="rgb(238,197,0)"/>
<path d="M43 57h1v1h1v1h5v1h-2v1h-1v-1h-3v-1h-2v-1h1v-1z" fill="rgb(0,0,0)"/>
<path d="M36 58h1v1h-1v-1z" fill="rgb(0,0,0)"/>
<path d="M37 59h5v1h-1v1h-1v-1h-3v-1z" fill="rgb(0,0,0)"/>
<path d="M42 59h2v1h3v1h-2v1h-3v-1h-1v-1h1v-1z" fill="rgb(189,164,0)"/>
<path d="M41 61h1v1h-1v-1z" fill="rgb(0,0,0)"/>
<path d="M45 61h2v1h-2v-1z" fill="rgb(0,0,0)"/>
<path d="M42 62h3v1h-3v-1z" fill="rgb(0,0,0)"/>
</svg>
