<?xml version="1.0" encoding="utf-8"?>
<!-- generated at drububu.com  -->
<!DOCTYPE svg PUBLIC "-//W3C//DTD SVG 1.1//EN" "http://www.w3.org/Graphics/SVG/1.1/DTD/svg11.dtd">
<svg version="1.1" preserveAspectRatio="xMinYMin meet" xmlns="http://www.w3.org/2000/svg" xmlns:xlink="http://www.w3.org/1999/xlink" x="0px" y="0px" width="96px" height="96px" viewBox="0 0 96 96">
<path d="M0 0h96v96h-96v-96z" fill="transparent"/>
<path d="M33 16h3v1h-3v-1z" fill="rgb(74,74,98)"/>
<path d="M30 17h3v1h-3v-1z" fill="rgb(74,74,98)"/>
<path d="M33 17h3v1h-1v1h-4v-1h2v-1z" fill="rgb(255,255,255)"/>
<path d="M36 17h1v1h-1v-1z" fill="rgb(74,74,98)"/>
<path d="M28 18h2v1h-2v-1z" fill="rgb(74,74,98)"/>
<path d="M30 18h1v1h-1v-1z" fill="rgb(180,172,156)"/>
<path d="M35 18h2v4h-1v11h1v1h-1v1h-1v-1h-1v-5h1v-6h-2v1h-1v2h-2v1h-1v-2h-3v-1h1v-1h1v-1
	h1v-1h2v-1h3v-1h1v-1z" fill="rgb(180,172,156)"/>
<path d="M37 18h1v2h-1v-2z" fill="rgb(74,74,98)"/>
<path d="M27 19h1v1h-1v-1z" fill="rgb(74,74,98)"/>
<path d="M28 19h1v1h-1v-1z" fill="rgb(180,172,156)"/>
<path d="M29 19h2v1h-2v-1z" fill="rgb(255,255,255)"/>
<path d="M31 19h3v1h-3v-1z" fill="rgb(74,74,98)"/>
<path d="M26 20h1v1h-1v-1z" fill="rgb(74,74,98)"/>
<path d="M27 20h2v1h-1v1h-1v1h-1v1h-2v-1h1v-1h1v-1h1v-1z" fill="rgb(255,255,255)"/>
<path d="M29 20h2v1h-2v-1z" fill="rgb(74,74,98)"/>
<path d="M34 20h1v1h-1v-1z" fill="rgb(74,74,98)"/>
<path d="M37 20h1v2h-1v-2z" fill="rgb(0,0,0)"/>
<path d="M44 20h2v3h1v1h-2v-3h-1v-1z" fill="rgb(82,49,24)"/>
<path d="M25 21h1v1h-1v-1z" fill="rgb(74,74,98)"/>
<path d="M28 21h1v1h-1v-1z" fill="rgb(74,74,98)"/>
<path d="M43 21h1v1h-1v-1z" fill="rgb(82,49,24)"/>
<path d="M44 21h1v2h-1v1h-2v-1h1v-1h1v-1z" fill="rgb(205,164,115)"/>
<path d="M24 22h1v1h-1v-1z" fill="rgb(74,74,98)"/>
<path d="M27 22h1v1h-1v-1z" fill="rgb(74,74,98)"/>
<path d="M36 22h1v2h-1v-2z" fill="rgb(74,74,98)"/>
<path d="M42 22h1v1h-1v-1z" fill="rgb(82,49,24)"/>
<path d="M23 23h1v1h-1v-1z" fill="rgb(74,74,98)"/>
<path d="M26 23h1v1h-1v-1z" fill="rgb(74,74,98)"/>
<path d="M33 23h1v1h-1v-1z" fill="rgb(0,0,0)"/>
<path d="M34 23h1v1h-1v-1z" fill="rgb(74,74,98)"/>
<path d="M41 23h1v1h-1v-1z" fill="rgb(0,0,0)"/>
<path d="M44 23h1v1h-1v-1z" fill="rgb(123,82,41)"/>
<path d="M22 24h1v2h-1v-2z" fill="rgb(74,74,98)"/>
<path d="M23 24h2v1h-1v2h-1v-3z" fill="rgb(230,230,213)"/>
<path d="M25 24h1v1h-1v-1z" fill="rgb(74,74,98)"/>
<path d="M32 24h1v3h-3v-1h2v-2z" fill="rgb(0,0,0)"/>
<path d="M34 24h1v5h-1v-5z" fill="rgb(0,0,0)"/>
<path d="M36 24h1v3h-1v-3z" fill="rgb(0,0,0)"/>
<path d="M40 24h1v1h-1v-1z" fill="rgb(0,0,0)"/>
<path d="M41 24h1v1h-1v-1z" fill="rgb(205,164,115)"/>
<path d="M42 24h1v1h-1v-1z" fill="rgb(189,139,65)"/>
<path d="M43 24h1v1h-1v-1z" fill="rgb(123,82,41)"/>
<path d="M44 24h3v1h4v1h7v1h-1v1h-1v1h-1v1h-1v2h-1v1h-2v-1h-1v1h-1v-1h-1v1h-1v-1h-3v-1
	h-2v-1h-1v-2h1v-2h1v-1h1v-1z" fill="rgb(189,139,65)"/>
<path d="M47 24h4v1h-4v-1z" fill="rgb(82,49,24)"/>
<path d="M65 24h2v1h-2v-1z" fill="rgb(82,49,24)"/>
<path d="M67 24h1v3h-1v-3z" fill="rgb(0,0,0)"/>
<path d="M24 25h1v2h-1v-2z" fill="rgb(74,74,98)"/>
<path d="M25 25h1v1h-1v-1z" fill="rgb(180,172,156)"/>
<path d="M26 25h3v2h-1v1h-1v1h-1v2h-1v2h-1v4h-1v1h-1v-5h1v-3h1v-2h1v-2h1v-1z" fill="rgb(230,230,213)"/>
<path d="M39 25h1v2h-1v-2z" fill="rgb(0,0,0)"/>
<path d="M40 25h2v1h-1v2h-1v1h-1v-2h1v-2z" fill="rgb(189,139,65)"/>
<path d="M42 25h1v1h-1v-1z" fill="rgb(123,82,41)"/>
<path d="M51 25h5v1h-5v-1z" fill="rgb(82,49,24)"/>
<path d="M56 25h3v1h-3v-1z" fill="rgb(0,0,0)"/>
<path d="M62 25h3v1h-3v-1z" fill="rgb(82,49,24)"/>
<path d="M65 25h2v2h-1v2h-1v1h-1v-2h-1v1h-2v-2h1v-1h3v-1z" fill="rgb(205,164,115)"/>
<path d="M21 26h1v2h-1v-2z" fill="rgb(74,74,98)"/>
<path d="M22 26h1v1h-1v-1z" fill="rgb(180,172,156)"/>
<path d="M41 26h1v2h-1v-2z" fill="rgb(148,106,49)"/>
<path d="M58 26h1v2h-1v1h-1v1h-1v1h-1v1h-1v-2h1v-1h1v-1h1v-1h1v-1z" fill="rgb(148,106,49)"/>
<path d="M59 26h2v1h-2v-1z" fill="rgb(0,0,0)"/>
<path d="M61 26h1v1h-1v-1z" fill="rgb(82,49,24)"/>
<path d="M22 27h1v2h-1v3h-1v-4h1v-1z" fill="rgb(230,230,213)"/>
<path d="M23 27h1v2h-1v-2z" fill="rgb(74,74,98)"/>
<path d="M24 27h1v1h-1v-1z" fill="rgb(180,172,156)"/>
<path d="M28 27h2v1h-2v-1z" fill="rgb(0,0,0)"/>
<path d="M36 27h1v5h-1v-5z" fill="rgb(74,74,98)"/>
<path d="M38 27h1v3h-1v-3z" fill="rgb(0,0,0)"/>
<path d="M59 27h1v1h-1v-1z" fill="rgb(82,49,24)"/>
<path d="M60 27h1v1h-1v-1z" fill="rgb(123,82,41)"/>
<path d="M66 27h1v2h-1v-2z" fill="rgb(0,0,0)"/>
<path d="M20 28h1v3h-1v-3z" fill="rgb(74,74,98)"/>
<path d="M27 28h1v1h-1v-1z" fill="rgb(0,0,0)"/>
<path d="M40 28h1v2h-1v1h-1v7h-1v-8h1v-1h1v-1z" fill="rgb(148,106,49)"/>
<path d="M58 28h1v1h-1v-1z" fill="rgb(82,49,24)"/>
<path d="M59 28h2v1h2v-1h1v2h1v1h-1v2h-1v2h-1v1h-1v1h-2v1h-3v-1h-1v-1h-1v-2h1v-1h1v-2h1
	v-1h1v-1h1v-1z" fill="rgb(189,139,65)"/>
<path d="M22 29h1v3h-1v-3z" fill="rgb(74,74,98)"/>
<path d="M23 29h1v1h-1v-1z" fill="rgb(180,172,156)"/>
<path d="M26 29h1v2h-1v-2z" fill="rgb(0,0,0)"/>
<path d="M33 29h1v5h-1v-5z" fill="rgb(0,0,0)"/>
<path d="M57 29h1v1h-1v-1z" fill="rgb(82,49,24)"/>
<path d="M65 29h1v2h-1v-2z" fill="rgb(0,0,0)"/>
<path d="M37 30h1v8h-1v-2h-2v-1h2v-5z" fill="rgb(0,0,0)"/>
<path d="M40 30h1v1h-1v-1z" fill="rgb(123,82,41)"/>
<path d="M41 30h1v1h2v1h3v1h1v1h1v-1h1v1h1v1h-2v1h-1v1h-1v1h-6v-1h-1v-5h1v-2z" fill="rgb(205,164,115)"/>
<path d="M56 30h1v1h-1v-1z" fill="rgb(82,49,24)"/>
<path d="M73 30h3v1h-3v-1z" fill="rgb(74,74,98)"/>
<path d="M19 31h1v5h-1v-5z" fill="rgb(74,74,98)"/>
<path d="M20 31h1v1h-1v-1z" fill="rgb(180,172,156)"/>
<path d="M25 31h1v2h-1v-2z" fill="rgb(0,0,0)"/>
<path d="M39 31h1v1h-1v-1z" fill="rgb(123,82,41)"/>
<path d="M40 31h1v1h-1v-1z" fill="rgb(189,139,65)"/>
<path d="M55 31h1v1h-1v-1z" fill="rgb(82,49,24)"/>
<path d="M64 31h1v3h-1v1h-1v-2h1v-2z" fill="rgb(0,0,0)"/>
<path d="M72 31h1v2h-1v-2z" fill="rgb(74,74,98)"/>
<path d="M73 31h3v1h1v1h-3v1h-1v2h-1v1h-1v1h-1v-2h1v-1h1v-2h1v-2z" fill="rgb(255,255,255)"/>
<path d="M76 31h1v1h-1v-1z" fill="rgb(74,74,98)"/>
<path d="M20 32h1v6h-1v-6z" fill="rgb(230,230,213)"/>
<path d="M21 32h1v5h-1v-5z" fill="rgb(74,74,98)"/>
<path d="M22 32h1v1h-1v-1z" fill="rgb(180,172,156)"/>
<path d="M36 32h1v1h-1v-1z" fill="rgb(82,49,24)"/>
<path d="M39 32h1v6h-1v-6z" fill="rgb(82,49,24)"/>
<path d="M48 32h1v1h-1v-1z" fill="rgb(205,164,115)"/>
<path d="M50 32h1v1h-1v-1z" fill="rgb(205,164,115)"/>
<path d="M53 32h1v1h-1v-1z" fill="rgb(148,106,49)"/>
<path d="M54 32h1v1h-1v-1z" fill="rgb(82,49,24)"/>
<path d="M55 32h1v1h-1v-1z" fill="rgb(123,82,41)"/>
<path d="M77 32h1v2h-1v-2z" fill="rgb(74,74,98)"/>
<path d="M24 33h1v4h-1v-4z" fill="rgb(0,0,0)"/>
<path d="M48 33h1v1h-1v-1z" fill="rgb(189,139,65)"/>
<path d="M50 33h1v1h-1v-1z" fill="rgb(189,139,65)"/>
<path d="M51 33h1v1h-1v-1z" fill="rgb(205,164,115)"/>
<path d="M52 33h1v1h-1v-1z" fill="rgb(148,106,49)"/>
<path d="M53 33h1v1h-1v-1z" fill="rgb(82,49,24)"/>
<path d="M54 33h1v1h-1v-1z" fill="rgb(123,82,41)"/>
<path d="M71 33h1v2h-1v-2z" fill="rgb(74,74,98)"/>
<path d="M74 33h3v1h1v2h1v2h1v3h1v2h-1v-1h-1v-3h-1v-2h-1v-2h-1v-1h-2v-1z" fill="rgb(180,172,156)"/>
<path d="M34 34h1v1h-1v-1z" fill="rgb(0,0,0)"/>
<path d="M36 34h1v1h-1v-1z" fill="rgb(148,106,49)"/>
<path d="M51 34h1v1h-1v-1z" fill="rgb(148,106,49)"/>
<path d="M52 34h1v3h-1v-1h-1v-1h1v-1z" fill="rgb(0,0,0)"/>
<path d="M53 34h1v1h-1v-1z" fill="rgb(123,82,41)"/>
<path d="M64 34h1v1h1v1h-3v-1h1v-1z" fill="rgb(123,82,41)"/>
<path d="M65 34h1v1h-1v-1z" fill="rgb(0,0,0)"/>
<path d="M73 34h1v1h-1v-1z" fill="rgb(180,172,156)"/>
<path d="M74 34h2v1h-2v-1z" fill="rgb(74,74,98)"/>
<path d="M78 34h1v1h-1v-1z" fill="rgb(74,74,98)"/>
<path d="M49 35h1v1h-1v-1z" fill="rgb(189,139,65)"/>
<path d="M50 35h1v1h-1v-1z" fill="rgb(148,106,49)"/>
<path d="M53 35h1v1h1v1h1v1h2v1h-1v1h-2v1h-3v1h-5v-1h1v-1h3v-1h1v-1h1v-3z" fill="rgb(148,106,49)"/>
<path d="M62 35h1v1h-1v-1z" fill="rgb(0,0,0)"/>
<path d="M66 35h1v2h-5v-1h4v-1z" fill="rgb(82,49,24)"/>
<path d="M70 35h1v1h-1v-1z" fill="rgb(0,0,0)"/>
<path d="M73 35h1v1h-1v-1z" fill="rgb(74,74,98)"/>
<path d="M74 35h2v2h1v2h1v3h1v4h-1v-3h-1v-2h-1v-2h-1v1h-1v1h-1v-4h-1v-1h2v-1z" fill="rgb(180,172,156)"/>
<path d="M76 35h1v2h-1v-2z" fill="rgb(74,74,98)"/>
<path d="M78 35h1v1h-1v-1z" fill="rgb(0,0,0)"/>
<path d="M19 36h1v2h-1v-2z" fill="rgb(0,0,0)"/>
<path d="M48 36h1v1h-1v-1z" fill="rgb(189,139,65)"/>
<path d="M49 36h1v1h-1v-1z" fill="rgb(148,106,49)"/>
<path d="M50 36h1v1h-1v-1z" fill="rgb(0,0,0)"/>
<path d="M51 36h1v1h-1v-1z" fill="rgb(230,230,213)"/>
<path d="M61 36h1v1h-1v-1z" fill="rgb(0,0,0)"/>
<path d="M69 36h1v2h-1v-2z" fill="rgb(0,0,0)"/>
<path d="M79 36h1v2h-1v-2z" fill="rgb(0,0,0)"/>
<path d="M21 37h1v1h1v5h-1v-2h-1v-4z" fill="rgb(180,172,156)"/>
<path d="M23 37h1v6h-1v-6z" fill="rgb(0,0,0)"/>
<path d="M40 37h1v1h6v1h-2v1h-4v-1h-1v-2z" fill="rgb(189,139,65)"/>
<path d="M47 37h1v1h-1v-1z" fill="rgb(189,139,65)"/>
<path d="M48 37h1v1h-1v-1z" fill="rgb(148,106,49)"/>
<path d="M49 37h1v1h-1v-1z" fill="rgb(0,0,0)"/>
<path d="M50 37h1v1h-1v-1z" fill="rgb(74,74,98)"/>
<path d="M51 37h1v1h-1v-1z" fill="rgb(255,255,255)"/>
<path d="M52 37h1v1h-1v-1z" fill="rgb(82,49,24)"/>
<path d="M59 37h1v1h-1v-1z" fill="rgb(148,106,49)"/>
<path d="M60 37h1v1h-1v-1z" fill="rgb(0,0,0)"/>
<path d="M71 37h1v1h-1v-1z" fill="rgb(180,172,156)"/>
<path d="M72 37h1v4h1v1h-2v-3h-1v-1h1v-1z" fill="rgb(0,0,0)"/>
<path d="M77 37h1v2h-1v-2z" fill="rgb(74,74,98)"/>
<path d="M20 38h1v3h-1v-3z" fill="rgb(0,0,0)"/>
<path d="M38 38h1v2h-1v-2z" fill="rgb(0,0,0)"/>
<path d="M39 38h1v1h-1v-1z" fill="rgb(123,82,41)"/>
<path d="M47 38h1v1h-1v-1z" fill="rgb(148,106,49)"/>
<path d="M48 38h1v1h-1v-1z" fill="rgb(82,49,24)"/>
<path d="M49 38h2v1h-2v-1z" fill="rgb(230,230,213)"/>
<path d="M51 38h1v1h-1v-1z" fill="rgb(123,82,41)"/>
<path d="M58 38h2v1h-2v-1z" fill="rgb(0,0,0)"/>
<path d="M60 38h1v2h1v1h-1v2h-1v-1h-2v-3h2v-1z" fill="rgb(123,82,41)"/>
<path d="M61 38h1v2h-1v-2z" fill="rgb(0,0,0)"/>
<path d="M68 38h1v1h-1v-1z" fill="rgb(0,0,0)"/>
<path d="M69 38h2v1h-1v1h-1v2h-1v1h-1v1h-2v-2h1v-1h1v-1h1v-1h1v-1z" fill="rgb(180,172,156)"/>
<path d="M80 38h1v3h-1v-3z" fill="rgb(0,0,0)"/>
<path d="M39 39h1v1h-1v-1z" fill="rgb(148,106,49)"/>
<path d="M40 39h1v1h-1v-1z" fill="rgb(123,82,41)"/>
<path d="M45 39h2v1h-1v1h-1v2h-3v-1h-1v-2h4v-1z" fill="rgb(148,106,49)"/>
<path d="M47 39h1v1h-1v-1z" fill="rgb(82,49,24)"/>
<path d="M48 39h3v1h-3v-1z" fill="rgb(123,82,41)"/>
<path d="M57 39h1v1h-1v-1z" fill="rgb(0,0,0)"/>
<path d="M67 39h1v1h-1v-1z" fill="rgb(74,74,98)"/>
<path d="M70 39h1v1h-1v-1z" fill="rgb(0,0,0)"/>
<path d="M75 39h1v2h1v2h1v3h1v2h1v4h-1v5h-1v-6h-1v-4h-1v-3h-1v-2h-1v-2h1v-1z" fill="rgb(230,230,213)"/>
<path d="M78 39h1v3h-1v-3z" fill="rgb(74,74,98)"/>
<path d="M39 40h1v1h-1v-1z" fill="rgb(0,0,0)"/>
<path d="M40 40h1v1h-1v-1z" fill="rgb(82,49,24)"/>
<path d="M46 40h1v1h-1v-1z" fill="rgb(82,49,24)"/>
<path d="M47 40h1v1h-1v-1z" fill="rgb(123,82,41)"/>
<path d="M55 40h2v1h1v1h2v1h-2v1h-1v-2h-1v-1h-1v-1z" fill="rgb(0,0,0)"/>
<path d="M57 40h1v1h-1v-1z" fill="rgb(90,74,74)"/>
<path d="M62 40h1v1h-1v-1z" fill="rgb(0,0,0)"/>
<path d="M66 40h1v1h-1v-1z" fill="rgb(74,74,98)"/>
<path d="M69 40h1v1h-1v-1z" fill="rgb(0,0,0)"/>
<path d="M21 41h1v2h-1v-2z" fill="rgb(0,0,0)"/>
<path d="M40 41h1v1h-1v-1z" fill="rgb(0,0,0)"/>
<path d="M45 41h1v2h-1v-2z" fill="rgb(82,49,24)"/>
<path d="M46 41h1v1h-1v-1z" fill="rgb(123,82,41)"/>
<path d="M52 41h2v1h-2v-1z" fill="rgb(0,0,0)"/>
<path d="M54 41h1v1h-1v-1z" fill="rgb(82,49,24)"/>
<path d="M55 41h1v2h1v1h1v1h-1v1h-4v-1h-1v-1h-1v-1h1v-1h3v-1z" fill="rgb(180,172,156)"/>
<path d="M61 41h2v1h1v2h-2v-1h-1v-2z" fill="rgb(189,139,65)"/>
<path d="M63 41h1v1h-1v-1z" fill="rgb(0,0,0)"/>
<path d="M65 41h1v1h-1v-1z" fill="rgb(74,74,98)"/>
<path d="M69 41h1v1h-1v-1z" fill="rgb(74,74,98)"/>
<path d="M81 41h1v4h-1v-4z" fill="rgb(0,0,0)"/>
<path d="M41 42h1v1h-1v-1z" fill="rgb(0,0,0)"/>
<path d="M46 42h5v1h-3v2h-1v-2h-1v-1z" fill="rgb(0,0,0)"/>
<path d="M51 42h1v1h-1v-1z" fill="rgb(82,49,24)"/>
<path d="M56 42h1v1h-1v-1z" fill="rgb(90,74,74)"/>
<path d="M64 42h1v1h-1v-1z" fill="rgb(0,0,0)"/>
<path d="M68 42h1v1h-1v-1z" fill="rgb(74,74,98)"/>
<path d="M74 42h1v2h-1v-2z" fill="rgb(0,0,0)"/>
<path d="M79 42h1v4h-1v-4z" fill="rgb(74,74,98)"/>
<path d="M22 43h1v1h-1v-1z" fill="rgb(0,0,0)"/>
<path d="M42 43h4v1h-4v-1z" fill="rgb(0,0,0)"/>
<path d="M48 43h2v1h1v2h-2v-1h-1v-2z" fill="rgb(180,172,156)"/>
<path d="M50 43h1v1h-1v-1z" fill="rgb(82,49,24)"/>
<path d="M58 43h1v3h-1v-3z" fill="rgb(90,74,74)"/>
<path d="M59 43h1v3h1v1h-2v-4z" fill="rgb(123,82,41)"/>
<path d="M60 43h2v1h-1v2h-1v-3z" fill="rgb(0,0,0)"/>
<path d="M64 43h1v2h-2v-1h1v-1z" fill="rgb(123,82,41)"/>
<path d="M67 43h1v1h-1v-1z" fill="rgb(0,0,0)"/>
<path d="M80 43h1v3h-1v-3z" fill="rgb(230,230,213)"/>
<path d="M51 44h1v1h-1v-1z" fill="rgb(82,49,24)"/>
<path d="M61 44h1v1h1v1h2v1h-3v-1h-1v-2z" fill="rgb(123,82,41)"/>
<path d="M62 44h1v1h-1v-1z" fill="rgb(0,0,0)"/>
<path d="M65 44h2v1h-2v-1z" fill="rgb(0,0,0)"/>
<path d="M75 44h1v3h-1v-3z" fill="rgb(0,0,0)"/>
<path d="M48 45h1v1h-1v-1z" fill="rgb(0,0,0)"/>
<path d="M51 45h2v1h-2v-1z" fill="rgb(90,74,74)"/>
<path d="M57 45h1v1h-1v-1z" fill="rgb(0,0,0)"/>
<path d="M63 45h2v1h-2v-1z" fill="rgb(0,0,0)"/>
<path d="M65 45h1v1h-1v-1z" fill="rgb(123,82,41)"/>
<path d="M66 45h1v1h-1v-1z" fill="rgb(148,106,49)"/>
<path d="M67 45h1v1h-1v-1z" fill="rgb(82,49,24)"/>
<path d="M81 45h1v1h-1v-1z" fill="rgb(180,172,156)"/>
<path d="M82 45h1v8h-1v-8z" fill="rgb(0,0,0)"/>
<path d="M49 46h2v2h-1v-1h-1v-1z" fill="rgb(0,0,0)"/>
<path d="M51 46h1v2h-1v-2z" fill="rgb(255,255,255)"/>
<path d="M52 46h1v2h-1v-2z" fill="rgb(0,0,0)"/>
<path d="M53 46h1v1h-1v-1z" fill="rgb(82,49,24)"/>
<path d="M54 46h2v1h-2v-1z" fill="rgb(90,74,74)"/>
<path d="M56 46h1v1h-1v-1z" fill="rgb(0,0,0)"/>
<path d="M57 46h1v1h1v2h-1v1h-1v-2h-1v-1h1v-1z" fill="rgb(180,172,156)"/>
<path d="M58 46h1v1h-1v-1z" fill="rgb(0,0,0)"/>
<path d="M61 46h1v1h7v1h-5v2h-1v-2h-3v1h-1v-2h2v-1z" fill="rgb(0,0,0)"/>
<path d="M65 46h3v1h-3v-1z" fill="rgb(189,139,65)"/>
<path d="M68 46h1v1h-1v-1z" fill="rgb(82,49,24)"/>
<path d="M79 46h1v2h-1v-2z" fill="rgb(180,172,156)"/>
<path d="M80 46h1v6h-1v-6z" fill="rgb(74,74,98)"/>
<path d="M81 46h1v5h-1v-5z" fill="rgb(230,230,213)"/>
<path d="M53 47h3v1h1v2h-2v-1h-1v-1h-1v-1z" fill="rgb(255,255,255)"/>
<path d="M76 47h1v4h-1v-4z" fill="rgb(0,0,0)"/>
<path d="M51 48h1v1h-1v-1z" fill="rgb(0,0,0)"/>
<path d="M52 48h1v1h-1v-1z" fill="rgb(255,255,255)"/>
<path d="M53 48h1v1h1v1h-3v-1h1v-1z" fill="rgb(0,0,0)"/>
<path d="M60 48h3v2h1v6h-1v2h-2v-2h1v-4h-1v-2h-1v-2z" fill="rgb(148,106,49)"/>
<path d="M64 48h3v1h-1v1h-2v-2z" fill="rgb(123,82,41)"/>
<path d="M67 48h1v1h-1v-1z" fill="rgb(82,49,24)"/>
<path d="M49 49h3v1h-3v-1z" fill="rgb(82,49,24)"/>
<path d="M58 49h1v1h-1v-1z" fill="rgb(0,0,0)"/>
<path d="M59 49h1v1h-1v-1z" fill="rgb(205,164,115)"/>
<path d="M66 49h1v1h-1v-1z" fill="rgb(148,106,49)"/>
<path d="M67 49h1v1h-1v-1z" fill="rgb(189,139,65)"/>
<path d="M68 49h1v1h-1v-1z" fill="rgb(82,49,24)"/>
<path d="M47 50h2v1h-2v-1z" fill="rgb(82,49,24)"/>
<path d="M49 50h3v2h-1v-1h-2v-1z" fill="rgb(148,106,49)"/>
<path d="M52 50h1v1h-1v-1z" fill="rgb(90,74,74)"/>
<path d="M53 50h2v1h1v1h-2v-1h-1v-1z" fill="rgb(255,255,255)"/>
<path d="M55 50h3v2h-1v-1h-2v-1z" fill="rgb(0,0,0)"/>
<path d="M58 50h2v2h1v4h-1v3h-2v-2h1v-5h-1v-2z" fill="rgb(189,139,65)"/>
<path d="M60 50h1v2h-1v-2z" fill="rgb(205,164,115)"/>
<path d="M64 50h5v1h-4v1h1v1h-1v3h-1v-6z" fill="rgb(0,0,0)"/>
<path d="M46 51h1v1h-1v-1z" fill="rgb(82,49,24)"/>
<path d="M47 51h2v1h-2v-1z" fill="rgb(148,106,49)"/>
<path d="M49 51h2v1h-2v-1z" fill="rgb(205,164,115)"/>
<path d="M52 51h2v1h-2v-1z" fill="rgb(0,0,0)"/>
<path d="M56 51h1v2h1v1h-1v1h-1v-2h-1v-1h1v-1z" fill="rgb(180,172,156)"/>
<path d="M65 51h2v1h-2v-1z" fill="rgb(123,82,41)"/>
<path d="M67 51h1v1h-1v-1z" fill="rgb(82,49,24)"/>
<path d="M77 51h1v7h-1v-7z" fill="rgb(0,0,0)"/>
<path d="M81 51h1v2h-1v2h-1v-3h1v-1z" fill="rgb(180,172,156)"/>
<path d="M44 52h2v1h-2v-1z" fill="rgb(82,49,24)"/>
<path d="M46 52h3v1h-2v1h-1v1h-1v-1h-1v-1h2v-1z" fill="rgb(205,164,115)"/>
<path d="M49 52h2v1h-1v1h-3v-1h2v-1z" fill="rgb(148,106,49)"/>
<path d="M51 52h1v2h1v1h-2v1h-3v1h-3v-1h-1v-1h3v-1h3v-1h1v-1z" fill="rgb(123,82,41)"/>
<path d="M52 52h1v2h-1v-2z" fill="rgb(90,74,74)"/>
<path d="M53 52h1v1h1v1h-2v-2z" fill="rgb(82,49,24)"/>
<path d="M54 52h1v1h-1v-1z" fill="rgb(0,0,0)"/>
<path d="M57 52h1v1h-1v-1z" fill="rgb(90,74,74)"/>
<path d="M58 52h1v1h-1v-1z" fill="rgb(123,82,41)"/>
<path d="M61 52h1v4h-1v-4z" fill="rgb(205,164,115)"/>
<path d="M66 52h2v1h-2v-1z" fill="rgb(148,106,49)"/>
<path d="M68 52h1v1h-1v-1z" fill="rgb(82,49,24)"/>
<path d="M79 52h1v3h-1v-3z" fill="rgb(74,74,98)"/>
<path d="M43 53h1v1h-1v-1z" fill="rgb(82,49,24)"/>
<path d="M55 53h1v1h-1v-1z" fill="rgb(0,0,0)"/>
<path d="M58 53h1v4h-1v-2h-1v-1h1v-1z" fill="rgb(0,0,0)"/>
<path d="M65 53h1v1h1v1h1v1h1v2h1v1h1v1h1v2h1v2h-1v-1h-1v-1h-1v-1h-1v-1h-1v-1h-1v-1h-1
	v-1h-2v-1h1v-3z" fill="rgb(123,82,41)"/>
<path d="M66 53h3v1h-1v1h-1v-1h-1v-1z" fill="rgb(0,0,0)"/>
<path d="M81 53h1v2h-1v-2z" fill="rgb(0,0,0)"/>
<path d="M42 54h2v1h-2v-1z" fill="rgb(0,0,0)"/>
<path d="M44 54h1v1h-1v-1z" fill="rgb(148,106,49)"/>
<path d="M46 54h1v1h-1v-1z" fill="rgb(148,106,49)"/>
<path d="M53 54h2v1h-2v-1z" fill="rgb(0,0,0)"/>
<path d="M55 54h1v1h-1v-1z" fill="rgb(90,74,74)"/>
<path d="M41 55h1v3h2v1h-2v1h-1v-5z" fill="rgb(0,0,0)"/>
<path d="M42 55h1v1h1v1h-2v-2z" fill="rgb(205,164,115)"/>
<path d="M43 55h1v1h-1v-1z" fill="rgb(82,49,24)"/>
<path d="M51 55h1v1h-1v-1z" fill="rgb(90,74,74)"/>
<path d="M52 55h1v1h-1v-1z" fill="rgb(0,0,0)"/>
<path d="M53 55h1v1h-1v-1z" fill="rgb(90,74,74)"/>
<path d="M56 55h1v1h-1v-1z" fill="rgb(0,0,0)"/>
<path d="M68 55h1v1h-1v-1z" fill="rgb(0,0,0)"/>
<path d="M79 55h1v2h-1v-2z" fill="rgb(180,172,156)"/>
<path d="M80 55h1v2h-1v-2z" fill="rgb(0,0,0)"/>
<path d="M44 56h1v2h-1v-2z" fill="rgb(82,49,24)"/>
<path d="M48 56h3v1h-3v-1z" fill="rgb(0,0,0)"/>
<path d="M60 56h1v2h-1v-2z" fill="rgb(205,164,115)"/>
<path d="M63 56h1v3h-1v-3z" fill="rgb(0,0,0)"/>
<path d="M69 56h1v2h-1v-2z" fill="rgb(0,0,0)"/>
<path d="M42 57h2v1h-2v-1z" fill="rgb(148,106,49)"/>
<path d="M45 57h3v1h-1v1h-1v-1h-1v-1z" fill="rgb(0,0,0)"/>
<path d="M57 57h1v3h-1v-3z" fill="rgb(0,0,0)"/>
<path d="M64 57h2v1h-2v-1z" fill="rgb(82,49,24)"/>
<path d="M78 57h1v2h-1v1h-1v-2h1v-1z" fill="rgb(180,172,156)"/>
<path d="M79 57h1v2h-1v-2z" fill="rgb(0,0,0)"/>
<path d="M44 58h2v1h1v2h1v1h1v1h1v2h-3v-2h-1v-1h-1v-1h-1v-1h-2v-1h2v-1z" fill="rgb(123,82,41)"/>
<path d="M60 58h2v1h-2v-1z" fill="rgb(82,49,24)"/>
<path d="M62 58h1v1h-1v-1z" fill="rgb(123,82,41)"/>
<path d="M66 58h1v1h-1v-1z" fill="rgb(82,49,24)"/>
<path d="M70 58h1v1h-1v-1z" fill="rgb(0,0,0)"/>
<path d="M76 58h1v2h1v1h-2v-3z" fill="rgb(0,0,0)"/>
<path d="M47 59h1v2h-1v-2z" fill="rgb(0,0,0)"/>
<path d="M58 59h1v1h-1v-1z" fill="rgb(123,82,41)"/>
<path d="M59 59h1v2h-1v-2z" fill="rgb(82,49,24)"/>
<path d="M60 59h2v1h-1v1h-1v-2z" fill="rgb(189,139,65)"/>
<path d="M62 59h1v2h-1v-2z" fill="rgb(0,0,0)"/>
<path d="M67 59h1v1h-1v-1z" fill="rgb(82,49,24)"/>
<path d="M71 59h1v1h-1v-1z" fill="rgb(0,0,0)"/>
<path d="M78 59h1v1h-1v-1z" fill="rgb(0,0,0)"/>
<path d="M42 60h2v1h-2v-1z" fill="rgb(0,0,0)"/>
<path d="M58 60h1v1h-1v-1z" fill="rgb(0,0,0)"/>
<path d="M61 60h1v1h-1v-1z" fill="rgb(148,106,49)"/>
<path d="M68 60h1v1h-1v-1z" fill="rgb(82,49,24)"/>
<path d="M72 60h1v2h-1v-2z" fill="rgb(0,0,0)"/>
<path d="M44 61h1v1h-1v-1z" fill="rgb(0,0,0)"/>
<path d="M48 61h1v1h-1v-1z" fill="rgb(0,0,0)"/>
<path d="M59 61h3v1h-2v1h-1v-2z" fill="rgb(0,0,0)"/>
<path d="M62 61h1v1h-1v-1z" fill="rgb(123,82,41)"/>
<path d="M63 61h1v1h-1v-1z" fill="rgb(0,0,0)"/>
<path d="M69 61h1v1h-1v-1z" fill="rgb(82,49,24)"/>
<path d="M45 62h1v1h-1v-1z" fill="rgb(0,0,0)"/>
<path d="M49 62h1v1h-1v-1z" fill="rgb(0,0,0)"/>
<path d="M60 62h4v1h2v1h1v2h1v2h-2v1h-1v-2h-1v-2h-1v-1h-1v-1h-2v-1z" fill="rgb(148,106,49)"/>
<path d="M64 62h2v1h-2v-1z" fill="rgb(0,0,0)"/>
<path d="M70 62h1v1h-1v-1z" fill="rgb(82,49,24)"/>
<path d="M73 62h1v2h-1v-2z" fill="rgb(0,0,0)"/>
<path d="M46 63h1v3h-1v-3z" fill="rgb(0,0,0)"/>
<path d="M50 63h1v2h-1v-2z" fill="rgb(0,0,0)"/>
<path d="M60 63h2v1h-2v-1z" fill="rgb(0,0,0)"/>
<path d="M66 63h1v1h-1v-1z" fill="rgb(0,0,0)"/>
<path d="M71 63h1v1h-1v-1z" fill="rgb(82,49,24)"/>
<path d="M62 64h1v1h-1v-1z" fill="rgb(0,0,0)"/>
<path d="M67 64h1v2h-1v-2z" fill="rgb(0,0,0)"/>
<path d="M72 64h1v1h-1v-1z" fill="rgb(82,49,24)"/>
<path d="M73 64h1v1h-1v-1z" fill="rgb(123,82,41)"/>
<path d="M74 64h1v2h-1v-2z" fill="rgb(0,0,0)"/>
<path d="M47 65h2v1h-2v-1z" fill="rgb(82,49,24)"/>
<path d="M49 65h1v1h-1v-1z" fill="rgb(0,0,0)"/>
<path d="M63 65h1v2h-1v-2z" fill="rgb(0,0,0)"/>
<path d="M73 65h1v1h-1v-1z" fill="rgb(82,49,24)"/>
<path d="M43 66h3v1h-3v-1z" fill="rgb(0,0,0)"/>
<path d="M46 66h2v1h-2v-1z" fill="rgb(189,139,65)"/>
<path d="M48 66h2v2h-3v-1h1v-1z" fill="rgb(123,82,41)"/>
<path d="M50 66h1v2h-1v-2z" fill="rgb(0,0,0)"/>
<path d="M68 66h1v2h-1v-2z" fill="rgb(0,0,0)"/>
<path d="M41 67h2v1h-2v-1z" fill="rgb(74,74,98)"/>
<path d="M43 67h3v1h-3v-1z" fill="rgb(189,139,65)"/>
<path d="M46 67h1v1h-1v-1z" fill="rgb(82,49,24)"/>
<path d="M64 67h1v2h-1v-2z" fill="rgb(0,0,0)"/>
<path d="M40 68h1v1h-1v-1z" fill="rgb(74,74,98)"/>
<path d="M41 68h2v1h-1v1h-2v-1h1v-1z" fill="rgb(230,230,213)"/>
<path d="M43 68h1v1h-1v-1z" fill="rgb(74,74,98)"/>
<path d="M44 68h3v1h-1v1h-1v-1h-1v-1z" fill="rgb(123,82,41)"/>
<path d="M47 68h1v1h-1v-1z" fill="rgb(82,49,24)"/>
<path d="M48 68h2v1h-2v-1z" fill="rgb(0,0,0)"/>
<path d="M66 68h2v1h-2v-1z" fill="rgb(0,0,0)"/>
<path d="M39 69h1v1h-1v-1z" fill="rgb(74,74,98)"/>
<path d="M42 69h1v1h-1v-1z" fill="rgb(74,74,98)"/>
<path d="M43 69h2v1h-1v1h-1v1h-1v-2h1v-1z" fill="rgb(255,255,255)"/>
<path d="M46 69h2v1h-2v-1z" fill="rgb(0,0,0)"/>
<path d="M65 69h1v1h-1v-1z" fill="rgb(0,0,0)"/>
<path d="M66 69h1v1h-1v-1z" fill="rgb(148,106,49)"/>
<path d="M67 69h1v1h-1v-1z" fill="rgb(189,139,65)"/>
<path d="M68 69h1v1h-1v-1z" fill="rgb(0,0,0)"/>
<path d="M39 70h2v1h-2v-1z" fill="rgb(0,0,0)"/>
<path d="M41 70h1v1h-1v-1z" fill="rgb(74,74,98)"/>
<path d="M44 70h2v1h-2v-1z" fill="rgb(0,0,0)"/>
<path d="M65 70h4v1h-4v-1z" fill="rgb(82,49,24)"/>
<path d="M41 71h1v1h1v1h-2v-2z" fill="rgb(0,0,0)"/>
<path d="M43 71h1v1h-1v-1z" fill="rgb(0,0,0)"/>
<path d="M64 71h1v1h-1v-1z" fill="rgb(82,49,24)"/>
<path d="M65 71h3v2h-2v-1h-1v-1z" fill="rgb(148,106,49)"/>
<path d="M68 71h1v1h-1v-1z" fill="rgb(123,82,41)"/>
<path d="M69 71h1v1h-1v-1z" fill="rgb(82,49,24)"/>
<path d="M63 72h1v1h-1v-1z" fill="rgb(74,74,98)"/>
<path d="M64 72h1v1h-1v-1z" fill="rgb(255,255,255)"/>
<path d="M65 72h1v2h-2v-1h1v-1z" fill="rgb(230,230,213)"/>
<path d="M68 72h2v2h1v2h-1v-1h-1v-2h-1v-1z" fill="rgb(255,255,255)"/>
<path d="M70 72h1v2h-1v-2z" fill="rgb(74,74,98)"/>
<path d="M62 73h1v1h-1v-1z" fill="rgb(74,74,98)"/>
<path d="M63 73h1v1h-1v-1z" fill="rgb(255,255,255)"/>
<path d="M66 73h1v1h-1v-1z" fill="rgb(82,49,24)"/>
<path d="M67 73h1v1h-1v-1z" fill="rgb(123,82,41)"/>
<path d="M68 73h1v1h-1v-1z" fill="rgb(230,230,213)"/>
<path d="M61 74h1v3h-1v-3z" fill="rgb(74,74,98)"/>
<path d="M62 74h1v1h-1v-1z" fill="rgb(255,255,255)"/>
<path d="M63 74h1v1h-1v-1z" fill="rgb(230,230,213)"/>
<path d="M64 74h5v1h-5v-1z" fill="rgb(0,0,0)"/>
<path d="M71 74h1v3h-1v-3z" fill="rgb(74,74,98)"/>
<path d="M62 75h1v1h-1v-1z" fill="rgb(230,230,213)"/>
<path d="M63 75h1v1h-1v-1z" fill="rgb(0,0,0)"/>
<path d="M69 75h1v1h-1v-1z" fill="rgb(0,0,0)"/>
<path d="M62 76h1v1h-1v-1z" fill="rgb(0,0,0)"/>
<path d="M70 76h1v1h-1v-1z" fill="rgb(0,0,0)"/>
</svg>
