<?xml version="1.0" encoding="utf-8"?>
<!-- generated at drububu.com  -->
<!DOCTYPE svg PUBLIC "-//W3C//DTD SVG 1.1//EN" "http://www.w3.org/Graphics/SVG/1.1/DTD/svg11.dtd">
<svg version="1.1" preserveAspectRatio="xMinYMin meet" xmlns="http://www.w3.org/2000/svg" xmlns:xlink="http://www.w3.org/1999/xlink" x="0px" y="0px" width="96px" height="96px" viewBox="0 0 96 96">
<path d="M0 0h96v96h-96v-96z" fill="transparent"/>
<path d="M33 17h2v1h-2v-1z" fill="rgb(148,131,164)"/>
<path d="M35 17h2v2h-1v-1h-1v-1z" fill="rgb(82,65,115)"/>
<path d="M76 17h8v1h-8v-1z" fill="rgb(148,131,164)"/>
<path d="M30 18h3v1h-3v-1z" fill="rgb(148,131,164)"/>
<path d="M33 18h3v1h-1v1h-5v-1h3v-1z" fill="rgb(205,205,230)"/>
<path d="M73 18h3v1h-3v-1z" fill="rgb(148,131,164)"/>
<path d="M76 18h8v1h-7v1h-4v-1h3v-1z" fill="rgb(172,172,213)"/>
<path d="M84 18h1v1h-1v-1z" fill="rgb(82,65,115)"/>
<path d="M18 19h2v1h-2v-1z" fill="rgb(82,65,115)"/>
<path d="M27 19h3v1h-3v-1z" fill="rgb(148,131,164)"/>
<path d="M35 19h1v1h3v1h-5v-1h1v-1z" fill="rgb(82,65,115)"/>
<path d="M63 19h3v1h-3v-1z" fill="rgb(82,65,115)"/>
<path d="M71 19h2v1h-2v-1z" fill="rgb(148,131,164)"/>
<path d="M77 19h1v1h-1v-1z" fill="rgb(148,131,164)"/>
<path d="M78 19h1v1h-1v-1z" fill="rgb(49,24,106)"/>
<path d="M79 19h4v1h-1v1h-1v-1h-2v-1z" fill="rgb(0,0,0)"/>
<path d="M83 19h1v1h-1v-1z" fill="rgb(49,24,106)"/>
<path d="M17 20h1v2h-1v-2z" fill="rgb(0,0,0)"/>
<path d="M18 20h2v1h-2v-1z" fill="rgb(205,205,230)"/>
<path d="M20 20h1v1h-1v-1z" fill="rgb(0,0,0)"/>
<path d="M26 20h1v1h-1v-1z" fill="rgb(82,65,115)"/>
<path d="M27 20h4v1h-4v-1z" fill="rgb(172,172,213)"/>
<path d="M31 20h3v1h-3v-1z" fill="rgb(148,131,164)"/>
<path d="M39 20h3v1h-3v-1z" fill="rgb(148,131,164)"/>
<path d="M62 20h1v2h-1v-2z" fill="rgb(82,65,115)"/>
<path d="M63 20h2v1h-1v1h-1v-2z" fill="rgb(205,205,230)"/>
<path d="M65 20h1v1h-1v-1z" fill="rgb(172,172,213)"/>
<path d="M66 20h1v2h1v1h-1v1h-1v-1h-1v-1h1v-2z" fill="rgb(0,0,0)"/>
<path d="M69 20h2v1h-2v-1z" fill="rgb(82,65,115)"/>
<path d="M71 20h2v1h-1v1h-2v1h-1v2h-1v-1h-1v-1h1v-1h1v-1h2v-1z" fill="rgb(172,172,213)"/>
<path d="M73 20h1v1h-1v-1z" fill="rgb(148,131,164)"/>
<path d="M74 20h3v1h-3v-1z" fill="rgb(0,0,0)"/>
<path d="M77 20h1v1h-1v-1z" fill="rgb(115,82,148)"/>
<path d="M78 20h3v1h-1v1h-1v2h-1v2h-1v3h-1v5h-1v8h1v2h-2v-1h-2v-1h-2v-1h-2v-1h-1v-1h-1
	v-1h1v-3h1v-5h1v-1h1v-2h1v-1h1v-1h1v-1h1v-1h1v-1h2v-1h1v-1z" fill="rgb(148,98,205)"/>
<path d="M18 21h2v1h-2v-1z" fill="rgb(172,172,213)"/>
<path d="M20 21h1v1h-1v-1z" fill="rgb(205,205,230)"/>
<path d="M21 21h1v1h-1v-1z" fill="rgb(0,0,0)"/>
<path d="M27 21h2v1h-2v-1z" fill="rgb(0,0,0)"/>
<path d="M29 21h2v1h-2v-1z" fill="rgb(148,131,164)"/>
<path d="M31 21h11v1h3v1h2v1h1v1h2v1h1v1h1v1h1v1h1v1h1v4h-1v2h-1v1h-2v-1h-1v-3h-1v-2h-1
	v-2h-1v-1h-1v-1h-1v-1h-1v-1h-1v-1h-2v-1h-2v-1h-8v-1z" fill="rgb(172,172,213)"/>
<path d="M42 21h3v1h-3v-1z" fill="rgb(148,131,164)"/>
<path d="M64 21h1v1h-1v-1z" fill="rgb(172,172,213)"/>
<path d="M65 21h1v1h-1v-1z" fill="rgb(148,131,164)"/>
<path d="M68 21h1v1h-1v-1z" fill="rgb(82,65,115)"/>
<path d="M72 21h2v1h-2v-1z" fill="rgb(0,0,0)"/>
<path d="M74 21h3v1h-2v1h-1v1h-1v1h-1v1h-1v1h-1v2h-1v1h-1v5h-1v3h-1v3h-1v-1h-1v-2h1v-3h1
	v-4h1v-2h1v-1h1v-3h1v-1h1v-1h1v-1h2v-1z" fill="rgb(115,82,148)"/>
<path d="M80 21h1v1h-1v-1z" fill="rgb(0,0,0)"/>
<path d="M7 22h6v1h-6v-1z" fill="rgb(148,131,164)"/>
<path d="M15 22h2v1h-2v-1z" fill="rgb(82,65,115)"/>
<path d="M17 22h1v1h-1v-1z" fill="transparent"/>
<path d="M18 22h1v2h-2v-1h1v-1z" fill="rgb(0,0,0)"/>
<path d="M19 22h1v2h-1v-2z" fill="rgb(148,131,164)"/>
<path d="M20 22h1v1h-1v-1z" fill="rgb(172,172,213)"/>
<path d="M21 22h1v1h-1v-1z" fill="rgb(82,65,115)"/>
<path d="M29 22h1v1h-1v-1z" fill="rgb(0,0,0)"/>
<path d="M30 22h1v1h-1v-1z" fill="rgb(82,65,115)"/>
<path d="M31 22h3v1h1v1h-2v-1h-2v-1z" fill="rgb(148,131,164)"/>
<path d="M34 22h4v1h-2v1h-1v-1h-1v-1z" fill="rgb(82,65,115)"/>
<path d="M38 22h1v1h-1v-1z" fill="rgb(148,131,164)"/>
<path d="M45 22h2v1h-2v-1z" fill="rgb(148,131,164)"/>
<path d="M63 22h1v1h-1v-1z" fill="rgb(148,131,164)"/>
<path d="M64 22h1v1h-1v-1z" fill="rgb(82,65,115)"/>
<path d="M70 22h1v1h-1v-1z" fill="rgb(148,131,164)"/>
<path d="M71 22h1v1h-1v-1z" fill="rgb(0,0,0)"/>
<path d="M79 22h1v2h-1v-2z" fill="rgb(49,24,106)"/>
<path d="M6 23h1v1h-1v-1z" fill="rgb(82,65,115)"/>
<path d="M7 23h6v1h-6v-1z" fill="rgb(205,205,230)"/>
<path d="M13 23h1v1h-1v-1z" fill="rgb(148,131,164)"/>
<path d="M14 23h1v1h-1v-1z" fill="rgb(82,65,115)"/>
<path d="M15 23h2v1h-1v1h-1v-2z" fill="rgb(205,205,230)"/>
<path d="M20 23h1v1h-1v-1z" fill="rgb(82,65,115)"/>
<path d="M21 23h1v1h-1v-1z" fill="rgb(172,172,213)"/>
<path d="M22 23h1v2h-1v-2z" fill="rgb(0,0,0)"/>
<path d="M31 23h2v1h-2v-1z" fill="rgb(0,0,0)"/>
<path d="M39 23h2v1h-2v-1z" fill="rgb(82,65,115)"/>
<path d="M47 23h1v1h-1v-1z" fill="rgb(148,131,164)"/>
<path d="M61 23h3v1h-3v-1z" fill="rgb(82,65,115)"/>
<path d="M64 23h1v1h-1v-1z" fill="rgb(205,205,230)"/>
<path d="M65 23h1v1h1v2h-2v-1h-1v-1h1v-1z" fill="rgb(172,172,213)"/>
<path d="M69 23h1v1h-1v-1z" fill="rgb(148,131,164)"/>
<path d="M70 23h1v1h-1v-1z" fill="rgb(49,24,106)"/>
<path d="M7 24h3v1h-3v-1z" fill="rgb(82,65,115)"/>
<path d="M10 24h2v1h-2v-1z" fill="rgb(0,0,0)"/>
<path d="M12 24h1v1h-1v-1z" fill="rgb(172,172,213)"/>
<path d="M13 24h1v1h-1v-1z" fill="rgb(205,205,230)"/>
<path d="M14 24h1v2h-2v-1h1v-1z" fill="rgb(0,0,0)"/>
<path d="M16 24h1v1h-1v-1z" fill="rgb(148,131,164)"/>
<path d="M17 24h1v1h-1v-1z" fill="rgb(172,172,213)"/>
<path d="M18 24h1v2h1v1h1v2h-1v-1h-1v-1h-1v-1h-1v-1h1v-1z" fill="rgb(148,131,164)"/>
<path d="M19 24h1v2h-1v-2z" fill="rgb(82,65,115)"/>
<path d="M20 24h1v1h2v1h-1v1h-1v-1h-1v-2z" fill="rgb(205,205,230)"/>
<path d="M21 24h1v1h-1v-1z" fill="rgb(82,65,115)"/>
<path d="M33 24h1v1h-1v-1z" fill="rgb(82,65,115)"/>
<path d="M34 24h2v1h-2v-1z" fill="rgb(0,0,0)"/>
<path d="M41 24h2v1h-2v-1z" fill="rgb(82,65,115)"/>
<path d="M48 24h2v1h-2v-1z" fill="rgb(148,131,164)"/>
<path d="M60 24h1v1h-1v-1z" fill="rgb(82,65,115)"/>
<path d="M61 24h1v2h-1v1h-1v-2h1v-1z" fill="rgb(205,205,230)"/>
<path d="M62 24h1v2h-1v-2z" fill="rgb(172,172,213)"/>
<path d="M63 24h1v2h-1v-2z" fill="rgb(0,0,0)"/>
<path d="M67 24h1v1h-1v-1z" fill="rgb(82,65,115)"/>
<path d="M69 24h1v1h-1v-1z" fill="rgb(0,0,0)"/>
<path d="M78 24h1v2h-1v-2z" fill="rgb(49,24,106)"/>
<path d="M8 25h1v1h-1v-1z" fill="rgb(0,0,0)"/>
<path d="M9 25h3v1h4v1h2v1h1v2h1v2h1v3h1v3h1v1h-2v1h-2v1h-2v1h-2v-1h1v-4h-1v-3h-1v-2h-1
	v-2h-1v-1h-1v-2h-1v-1h-1v-1z" fill="rgb(115,82,148)"/>
<path d="M12 25h1v1h-1v-1z" fill="rgb(82,65,115)"/>
<path d="M15 25h2v1h-2v-1z" fill="rgb(82,65,115)"/>
<path d="M23 25h1v2h-1v-2z" fill="rgb(0,0,0)"/>
<path d="M43 25h1v1h-1v-1z" fill="rgb(82,65,115)"/>
<path d="M50 25h1v1h-1v-1z" fill="rgb(148,131,164)"/>
<path d="M59 25h1v1h-1v-1z" fill="rgb(0,0,0)"/>
<path d="M64 25h1v1h-1v-1z" fill="rgb(82,65,115)"/>
<path d="M67 25h1v3h-1v1h-1v2h-1v1h-1v-4h-1v-2h2v2h1v-2h1v-1z" fill="rgb(148,131,164)"/>
<path d="M68 25h1v1h-1v-1z" fill="rgb(82,65,115)"/>
<path d="M9 26h1v1h-1v-1z" fill="rgb(0,0,0)"/>
<path d="M16 26h1v1h-1v-1z" fill="rgb(0,0,0)"/>
<path d="M17 26h1v1h-1v-1z" fill="rgb(82,65,115)"/>
<path d="M20 26h1v1h-1v-1z" fill="rgb(0,0,0)"/>
<path d="M22 26h1v1h-1v-1z" fill="rgb(172,172,213)"/>
<path d="M44 26h1v1h-1v-1z" fill="rgb(82,65,115)"/>
<path d="M51 26h1v1h-1v-1z" fill="rgb(82,65,115)"/>
<path d="M59 26h1v1h-1v-1z" fill="rgb(82,65,115)"/>
<path d="M61 26h1v1h-1v-1z" fill="rgb(172,172,213)"/>
<path d="M62 26h1v1h-1v-1z" fill="rgb(0,0,0)"/>
<path d="M65 26h1v2h-1v-2z" fill="rgb(82,65,115)"/>
<path d="M68 26h1v2h-1v-2z" fill="rgb(0,0,0)"/>
<path d="M77 26h1v3h-1v-3z" fill="rgb(49,24,106)"/>
<path d="M10 27h1v1h-1v-1z" fill="rgb(0,0,0)"/>
<path d="M18 27h1v1h-1v-1z" fill="rgb(0,0,0)"/>
<path d="M21 27h2v2h-1v-1h-1v-1z" fill="rgb(0,0,0)"/>
<path d="M45 27h1v1h-1v-1z" fill="rgb(82,65,115)"/>
<path d="M52 27h1v1h-1v-1z" fill="rgb(82,65,115)"/>
<path d="M60 27h1v1h-1v-1z" fill="rgb(82,65,115)"/>
<path d="M61 27h1v1h-1v-1z" fill="rgb(0,0,0)"/>
<path d="M62 27h1v1h-1v-1z" fill="rgb(82,65,115)"/>
<path d="M10 28h1v1h-1v-1z" fill="rgb(49,24,106)"/>
<path d="M19 28h1v1h-1v-1z" fill="rgb(0,0,0)"/>
<path d="M21 28h1v2h1v3h1v3h1v3h1v1h-2v-3h-1v-2h-1v-4h-1v-3z" fill="rgb(172,172,213)"/>
<path d="M46 28h1v1h-1v-1z" fill="rgb(82,65,115)"/>
<path d="M53 28h1v1h-1v-1z" fill="rgb(82,65,115)"/>
<path d="M63 28h1v1h-1v-1z" fill="rgb(0,0,0)"/>
<path d="M67 28h1v1h-1v-1z" fill="rgb(0,0,0)"/>
<path d="M11 29h1v1h-1v-1z" fill="rgb(49,24,106)"/>
<path d="M19 29h2v1h-2v-1z" fill="rgb(82,65,115)"/>
<path d="M22 29h1v1h-1v-1z" fill="rgb(82,65,115)"/>
<path d="M47 29h1v2h-1v-2z" fill="rgb(82,65,115)"/>
<path d="M54 29h1v1h-1v-1z" fill="rgb(82,65,115)"/>
<path d="M63 29h1v2h-1v-2z" fill="rgb(82,65,115)"/>
<path d="M66 29h1v2h-1v-2z" fill="rgb(0,0,0)"/>
<path d="M76 29h1v5h-1v-5z" fill="rgb(49,24,106)"/>
<path d="M12 30h1v2h-1v-2z" fill="rgb(49,24,106)"/>
<path d="M20 30h1v2h-1v-2z" fill="rgb(0,0,0)"/>
<path d="M23 30h1v3h-1v-3z" fill="rgb(82,65,115)"/>
<path d="M55 30h1v1h-1v-1z" fill="rgb(82,65,115)"/>
<path d="M21 31h1v1h-1v-1z" fill="rgb(148,131,164)"/>
<path d="M48 31h1v1h-1v-1z" fill="rgb(82,65,115)"/>
<path d="M55 31h1v2h1v1h1v2h1v2h1v2h-1v2h-1v1h-1v1h-1v1h-1v1h-2v-1h-1v-5h-1v-3h2v-1h1v-2
	h1v-3z" fill="rgb(148,131,164)"/>
<path d="M56 31h1v2h-1v-2z" fill="rgb(82,65,115)"/>
<path d="M62 31h1v3h-1v-3z" fill="rgb(0,0,0)"/>
<path d="M63 31h1v1h1v2h-1v5h-1v2h-1v1h-1v1h-1v1h-1v1h-1v1h-1v2h-1v2h-1v4h-1v-6h1v-1h1
	v-2h1v-1h1v-1h1v-1h1v-2h1v-2h1v-3h1v-4z" fill="rgb(172,172,213)"/>
<path d="M65 31h1v1h-1v-1z" fill="rgb(82,65,115)"/>
<path d="M13 32h1v2h-1v-2z" fill="rgb(49,24,106)"/>
<path d="M21 32h1v1h-1v-1z" fill="rgb(82,65,115)"/>
<path d="M48 32h1v1h-1v-1z" fill="rgb(0,0,0)"/>
<path d="M57 32h1v2h-1v-2z" fill="rgb(0,0,0)"/>
<path d="M65 32h1v3h-1v-3z" fill="rgb(0,0,0)"/>
<path d="M21 33h1v2h-1v-2z" fill="rgb(0,0,0)"/>
<path d="M24 33h1v3h-1v-3z" fill="rgb(82,65,115)"/>
<path d="M49 33h1v2h-1v-2z" fill="rgb(0,0,0)"/>
<path d="M14 34h1v3h-1v-3z" fill="rgb(49,24,106)"/>
<path d="M58 34h1v2h-1v-2z" fill="rgb(0,0,0)"/>
<path d="M62 34h1v1h-1v-1z" fill="rgb(82,65,115)"/>
<path d="M64 34h1v1h-1v-1z" fill="rgb(148,131,164)"/>
<path d="M75 34h1v8h-1v-8z" fill="rgb(49,24,106)"/>
<path d="M22 35h1v1h-1v-1z" fill="rgb(82,65,115)"/>
<path d="M49 35h1v1h-1v-1z" fill="rgb(82,65,115)"/>
<path d="M61 35h1v2h-1v-2z" fill="rgb(0,0,0)"/>
<path d="M64 35h1v1h-1v-1z" fill="rgb(82,65,115)"/>
<path d="M22 36h1v2h-1v-2z" fill="rgb(0,0,0)"/>
<path d="M25 36h1v2h-1v-2z" fill="rgb(82,65,115)"/>
<path d="M50 36h1v1h-1v-1z" fill="rgb(82,65,115)"/>
<path d="M59 36h1v2h-1v-2z" fill="rgb(0,0,0)"/>
<path d="M64 36h1v2h-1v-2z" fill="rgb(0,0,0)"/>
<path d="M15 37h1v4h-1v-4z" fill="rgb(49,24,106)"/>
<path d="M23 37h1v1h-1v-1z" fill="rgb(148,131,164)"/>
<path d="M50 37h1v2h-1v-2z" fill="rgb(0,0,0)"/>
<path d="M61 37h1v1h-1v-1z" fill="rgb(82,65,115)"/>
<path d="M23 38h1v3h-1v-3z" fill="rgb(0,0,0)"/>
<path d="M25 38h1v1h-1v-1z" fill="rgb(148,131,164)"/>
<path d="M26 38h1v2h-1v-2z" fill="rgb(82,65,115)"/>
<path d="M60 38h1v1h-1v-1z" fill="rgb(0,0,0)"/>
<path d="M21 39h2v1h-2v-1z" fill="rgb(148,98,205)"/>
<path d="M50 39h1v1h-1v-1z" fill="rgb(82,65,115)"/>
<path d="M60 39h1v1h-1v-1z" fill="rgb(82,65,115)"/>
<path d="M63 39h1v1h-1v-1z" fill="rgb(82,65,115)"/>
<path d="M66 39h1v1h1v1h-2v-2z" fill="rgb(172,131,222)"/>
<path d="M19 40h2v1h-2v-1z" fill="rgb(148,98,205)"/>
<path d="M21 40h2v1h-2v-1z" fill="rgb(49,24,106)"/>
<path d="M24 40h3v1h1v1h1v1h1v1h1v1h1v1h1v1h1v2h-1v-1h-1v-1h-1v-1h-2v-2h-1v-1h-1v-1h-1
	v-1h-2v-1z" fill="rgb(148,131,164)"/>
<path d="M27 40h1v1h-1v-1z" fill="rgb(82,65,115)"/>
<path d="M45 40h2v1h-2v-1z" fill="rgb(148,131,164)"/>
<path d="M51 40h1v1h-1v-1z" fill="rgb(82,65,115)"/>
<path d="M59 40h1v1h-1v-1z" fill="rgb(0,0,0)"/>
<path d="M63 40h1v2h-1v-2z" fill="rgb(0,0,0)"/>
<path d="M64 40h1v1h-1v-1z" fill="rgb(49,24,106)"/>
<path d="M14 41h1v2h-1v-2z" fill="rgb(49,24,106)"/>
<path d="M17 41h2v1h-2v-1z" fill="rgb(148,98,205)"/>
<path d="M19 41h2v1h-2v-1z" fill="rgb(49,24,106)"/>
<path d="M21 41h3v1h2v1h1v1h1v1h-2v3h-1v-1h-2v-1h-5v-1h-3v-1h2v-1h2v-1h2v-1z" fill="rgb(115,82,148)"/>
<path d="M24 41h1v1h-1v-1z" fill="rgb(0,0,0)"/>
<path d="M25 41h1v1h-1v-1z" fill="rgb(82,65,115)"/>
<path d="M28 41h1v1h-1v-1z" fill="rgb(0,0,0)"/>
<path d="M44 41h1v1h-1v-1z" fill="rgb(148,131,164)"/>
<path d="M45 41h2v3h-1v2h1v2h-1v1h-1v1h-1v1h-3v-1h-1v-1h1v-1h1v-1h2v-4h1v-2z" fill="rgb(205,205,230)"/>
<path d="M47 41h1v2h-1v-2z" fill="rgb(82,65,115)"/>
<path d="M51 41h1v4h-1v-4z" fill="rgb(0,0,0)"/>
<path d="M59 41h1v1h-1v-1z" fill="rgb(82,65,115)"/>
<path d="M62 41h1v1h-1v-1z" fill="rgb(148,131,164)"/>
<path d="M64 41h1v1h2v1h2v-1h1v2h2v1h2v1h-2v1h-5v1h-2v1h-2v1h-1v1h-1v1h-1v2h-1v1h-2v-1
	h-1v-3h1v-2h1v-2h1v-2h1v-1h1v-1h2v-1h1v-1z" fill="rgb(115,82,148)"/>
<path d="M65 41h2v1h-2v-1z" fill="rgb(49,24,106)"/>
<path d="M67 41h1v1h-1v-1z" fill="rgb(115,82,148)"/>
<path d="M68 41h2v1h-2v-1z" fill="rgb(172,131,222)"/>
<path d="M15 42h2v1h-2v-1z" fill="rgb(148,98,205)"/>
<path d="M17 42h2v1h-2v-1z" fill="rgb(49,24,106)"/>
<path d="M26 42h1v1h-1v-1z" fill="rgb(0,0,0)"/>
<path d="M29 42h1v1h-1v-1z" fill="rgb(0,0,0)"/>
<path d="M37 42h2v4h-1v-3h-1v-1z" fill="rgb(0,0,0)"/>
<path d="M44 42h1v1h-1v-1z" fill="rgb(82,65,115)"/>
<path d="M58 42h1v1h-1v-1z" fill="rgb(82,65,115)"/>
<path d="M61 42h1v1h-1v-1z" fill="rgb(82,65,115)"/>
<path d="M62 42h1v1h-1v-1z" fill="rgb(49,24,106)"/>
<path d="M67 42h2v1h-2v-1z" fill="rgb(49,24,106)"/>
<path d="M70 42h2v1h-2v-1z" fill="rgb(172,131,222)"/>
<path d="M76 42h1v2h-1v-2z" fill="rgb(49,24,106)"/>
<path d="M13 43h1v1h1v1h3v1h-6v-1h1v-2z" fill="rgb(49,24,106)"/>
<path d="M14 43h1v1h-1v-1z" fill="rgb(148,98,205)"/>
<path d="M15 43h2v1h-2v-1z" fill="rgb(49,24,106)"/>
<path d="M27 43h1v1h-1v-1z" fill="rgb(0,0,0)"/>
<path d="M30 43h1v1h-1v-1z" fill="rgb(0,0,0)"/>
<path d="M36 43h1v2h-1v-2z" fill="rgb(0,0,0)"/>
<path d="M37 43h1v7h-1v1h-2v1h-4v-1h1v-1h2v-1h1v-2h1v-2h1v-2z" fill="rgb(172,172,213)"/>
<path d="M43 43h1v1h-1v-1z" fill="rgb(148,131,164)"/>
<path d="M47 43h1v2h2v1h3v3h-1v3h-1v1h-2v1h-3v1h-3v-3h-1v-1h2v-1h1v-1h1v-1h1v-2h-1v-2h1
	v-1z" fill="rgb(172,172,213)"/>
<path d="M48 43h1v1h-1v-1z" fill="rgb(0,0,0)"/>
<path d="M57 43h1v1h-1v-1z" fill="rgb(82,65,115)"/>
<path d="M60 43h1v1h-1v-1z" fill="rgb(82,65,115)"/>
<path d="M70 43h2v1h-2v-1z" fill="rgb(49,24,106)"/>
<path d="M72 43h2v1h-2v-1z" fill="rgb(172,131,222)"/>
<path d="M28 44h1v1h-1v-1z" fill="rgb(0,0,0)"/>
<path d="M31 44h1v1h-1v-1z" fill="rgb(0,0,0)"/>
<path d="M43 44h1v2h-1v-2z" fill="rgb(82,65,115)"/>
<path d="M48 44h1v1h-1v-1z" fill="rgb(82,65,115)"/>
<path d="M49 44h1v1h-1v-1z" fill="rgb(0,0,0)"/>
<path d="M56 44h1v1h-1v-1z" fill="rgb(82,65,115)"/>
<path d="M59 44h1v1h-1v-1z" fill="rgb(0,0,0)"/>
<path d="M72 44h2v1h-2v-1z" fill="rgb(49,24,106)"/>
<path d="M74 44h2v1h-2v-1z" fill="rgb(172,131,222)"/>
<path d="M76 44h1v1h-1v-1z" fill="rgb(148,98,205)"/>
<path d="M77 44h1v1h-1v-1z" fill="rgb(49,24,106)"/>
<path d="M26 45h1v3h-1v-3z" fill="rgb(82,65,115)"/>
<path d="M27 45h1v1h-1v-1z" fill="rgb(0,0,0)"/>
<path d="M28 45h1v1h-1v-1z" fill="rgb(82,65,115)"/>
<path d="M32 45h1v1h-1v-1z" fill="rgb(0,0,0)"/>
<path d="M35 45h1v2h-1v-2z" fill="rgb(0,0,0)"/>
<path d="M50 45h3v1h-3v-1z" fill="rgb(82,65,115)"/>
<path d="M55 45h1v2h-1v1h-1v-1h-1v-1h2v-1z" fill="rgb(82,65,115)"/>
<path d="M58 45h1v1h-1v-1z" fill="rgb(148,131,164)"/>
<path d="M74 45h2v1h2v-1h1v2h-7v-1h2v-1z" fill="rgb(49,24,106)"/>
<path d="M76 45h1v1h-1v-1z" fill="rgb(172,131,222)"/>
<path d="M77 45h1v1h-1v-1z" fill="rgb(148,98,205)"/>
<path d="M18 46h5v1h-5v-1z" fill="rgb(49,24,106)"/>
<path d="M27 46h1v1h1v2h-1v-1h-1v-2z" fill="rgb(172,172,213)"/>
<path d="M28 46h1v1h-1v-1z" fill="rgb(0,0,0)"/>
<path d="M29 46h1v1h-1v-1z" fill="rgb(82,65,115)"/>
<path d="M30 46h1v1h-1v-1z" fill="rgb(0,0,0)"/>
<path d="M33 46h1v1h-1v-1z" fill="rgb(0,0,0)"/>
<path d="M34 46h1v2h-1v-2z" fill="rgb(82,65,115)"/>
<path d="M38 46h1v1h-1v-1z" fill="rgb(82,65,115)"/>
<path d="M41 46h2v1h-1v1h-1v-2z" fill="rgb(82,65,115)"/>
<path d="M43 46h1v1h-1v-1z" fill="rgb(148,131,164)"/>
<path d="M57 46h1v1h-1v-1z" fill="rgb(148,131,164)"/>
<path d="M58 46h1v1h-1v-1z" fill="rgb(0,0,0)"/>
<path d="M23 47h2v1h-2v-1z" fill="rgb(49,24,106)"/>
<path d="M29 47h1v1h-1v-1z" fill="rgb(0,0,0)"/>
<path d="M30 47h1v1h-1v-1z" fill="rgb(115,82,148)"/>
<path d="M31 47h1v1h-1v-1z" fill="rgb(0,0,0)"/>
<path d="M38 47h1v3h1v2h1v1h1v3h1v3h-1v2h-1v1h-1v4h-1v6h-1v2h-1v1h-6v-1h5v-2h1v-1h1v-6h1
	v-4h1v-5h-2v1h-2v1h-4v1h-2v1h-1v2h-1v2h-4v-3h2v-2h1v-1h1v-1h2v-1h2v-1h4v-3h1
	v-2h1v-3z" fill="rgb(148,131,164)"/>
<path d="M39 47h1v2h-1v-2z" fill="rgb(0,0,0)"/>
<path d="M53 47h1v1h-1v-1z" fill="rgb(148,131,164)"/>
<path d="M57 47h1v2h-1v-2z" fill="rgb(0,0,0)"/>
<path d="M67 47h5v1h-5v-1z" fill="rgb(49,24,106)"/>
<path d="M25 48h1v1h-1v-1z" fill="rgb(49,24,106)"/>
<path d="M26 48h1v1h-1v-1z" fill="rgb(115,82,148)"/>
<path d="M27 48h1v2h2v1h-2v1h-1v-4z" fill="rgb(82,65,115)"/>
<path d="M29 48h1v1h1v1h-3v-1h1v-1z" fill="rgb(148,131,164)"/>
<path d="M30 48h1v1h-1v-1z" fill="rgb(0,0,0)"/>
<path d="M31 48h1v1h-1v-1z" fill="rgb(115,82,148)"/>
<path d="M32 48h1v1h-1v-1z" fill="rgb(0,0,0)"/>
<path d="M34 48h1v1h-1v-1z" fill="rgb(0,0,0)"/>
<path d="M40 48h1v1h-1v-1z" fill="rgb(82,65,115)"/>
<path d="M53 48h1v1h-1v-1z" fill="rgb(82,65,115)"/>
<path d="M56 48h1v1h-1v-1z" fill="rgb(148,131,164)"/>
<path d="M65 48h2v1h-2v-1z" fill="rgb(49,24,106)"/>
<path d="M26 49h1v1h-1v-1z" fill="rgb(49,24,106)"/>
<path d="M31 49h2v1h-1v1h-1v-2z" fill="rgb(82,65,115)"/>
<path d="M33 49h1v1h-1v-1z" fill="rgb(0,0,0)"/>
<path d="M39 49h1v1h-1v-1z" fill="rgb(82,65,115)"/>
<path d="M52 49h2v5h2v1h1v1h2v1h1v2h1v1h-2v1h-2v1h-1v1h-3v1h-4v-1h-2v-1h-2v-1h-1v-1h2v-1
	h-2v-3h-1v-1h3v-1h3v-1h2v-1h1v-3z" fill="rgb(148,131,164)"/>
<path d="M56 49h1v2h-1v-2z" fill="rgb(0,0,0)"/>
<path d="M63 49h2v1h-2v-1z" fill="rgb(49,24,106)"/>
<path d="M30 50h1v2h2v1h-1v1h-1v1h-3v-1h-1v-1h1v-1h1v-1h1v-1z" fill="rgb(205,205,230)"/>
<path d="M40 50h1v1h-1v-1z" fill="rgb(0,0,0)"/>
<path d="M55 50h1v1h-1v-1z" fill="rgb(148,131,164)"/>
<path d="M62 50h1v1h-1v-1z" fill="rgb(49,24,106)"/>
<path d="M28 51h1v1h-1v-1z" fill="rgb(148,131,164)"/>
<path d="M35 51h2v1h-2v-1z" fill="rgb(82,65,115)"/>
<path d="M40 51h1v1h-1v-1z" fill="rgb(172,172,213)"/>
<path d="M41 51h1v1h-1v-1z" fill="rgb(0,0,0)"/>
<path d="M55 51h1v3h-1v-3z" fill="rgb(0,0,0)"/>
<path d="M61 51h1v1h-1v-1z" fill="rgb(49,24,106)"/>
<path d="M62 51h1v1h-1v-1z" fill="rgb(0,0,0)"/>
<path d="M26 52h1v2h-1v-2z" fill="rgb(0,0,0)"/>
<path d="M27 52h1v1h-1v-1z" fill="rgb(172,172,213)"/>
<path d="M33 52h1v1h-1v-1z" fill="rgb(0,0,0)"/>
<path d="M34 52h1v1h-1v-1z" fill="rgb(82,65,115)"/>
<path d="M35 52h1v1h-1v-1z" fill="rgb(205,205,205)"/>
<path d="M41 52h1v1h-1v-1z" fill="rgb(172,172,213)"/>
<path d="M42 52h1v3h-1v-3z" fill="rgb(0,0,0)"/>
<path d="M60 52h1v2h-1v-2z" fill="rgb(49,24,106)"/>
<path d="M61 52h1v4h-1v-4z" fill="rgb(0,0,0)"/>
<path d="M32 53h1v2h-1v-2z" fill="rgb(0,0,0)"/>
<path d="M33 53h1v2h-1v-2z" fill="rgb(49,115,41)"/>
<path d="M34 53h1v1h-1v-1z" fill="rgb(205,205,205)"/>
<path d="M35 53h1v2h-1v-2z" fill="rgb(255,255,255)"/>
<path d="M26 54h1v1h-1v-1z" fill="rgb(148,131,164)"/>
<path d="M27 54h1v1h-1v-1z" fill="rgb(82,65,115)"/>
<path d="M31 54h1v1h-1v-1z" fill="rgb(148,131,164)"/>
<path d="M34 54h1v1h-1v-1z" fill="rgb(82,65,115)"/>
<path d="M40 54h1v1h-1v-1z" fill="rgb(82,65,115)"/>
<path d="M56 54h1v1h-1v-1z" fill="rgb(49,24,106)"/>
<path d="M59 54h1v2h-3v-1h2v-1z" fill="rgb(49,24,106)"/>
<path d="M60 54h1v2h-1v-2z" fill="rgb(148,131,164)"/>
<path d="M24 55h3v1h-3v-1z" fill="rgb(82,65,115)"/>
<path d="M27 55h1v1h-1v-1z" fill="rgb(205,205,230)"/>
<path d="M28 55h4v1h-2v1h-2v1h-2v-1h1v-1h1v-1z" fill="rgb(172,172,213)"/>
<path d="M40 55h1v1h-1v-1z" fill="rgb(0,0,0)"/>
<path d="M42 55h1v1h-1v-1z" fill="rgb(82,65,115)"/>
<path d="M21 56h3v1h-3v-1z" fill="rgb(82,65,115)"/>
<path d="M24 56h3v1h-1v1h-2v1h-3v-2h3v-1z" fill="rgb(205,205,230)"/>
<path d="M38 56h1v1h-1v-1z" fill="rgb(0,0,0)"/>
<path d="M39 56h1v1h-1v-1z" fill="rgb(82,65,115)"/>
<path d="M43 56h1v1h-1v-1z" fill="rgb(82,65,115)"/>
<path d="M59 56h2v3h-1v-2h-1v-1z" fill="rgb(0,0,0)"/>
<path d="M20 57h1v1h-1v-1z" fill="rgb(82,65,115)"/>
<path d="M36 57h1v1h-1v-1z" fill="rgb(82,65,115)"/>
<path d="M37 57h1v1h-1v-1z" fill="rgb(0,0,0)"/>
<path d="M38 57h1v3h-1v1h-2v1h-2v-1h-2v-2h4v-1h2v-1z" fill="rgb(131,32,65)"/>
<path d="M39 57h1v3h-1v-3z" fill="rgb(0,0,0)"/>
<path d="M43 57h1v1h-1v-1z" fill="rgb(0,0,0)"/>
<path d="M19 58h1v2h-1v-2z" fill="rgb(82,65,115)"/>
<path d="M20 58h1v1h3v-1h2v1h-1v2h-1v2h-2v-1h-1v-1h-1v-3z" fill="rgb(172,172,213)"/>
<path d="M26 58h1v1h-1v-1z" fill="rgb(82,65,115)"/>
<path d="M32 58h1v1h-1v-1z" fill="rgb(82,65,115)"/>
<path d="M33 58h3v1h-3v-1z" fill="rgb(0,0,0)"/>
<path d="M43 58h1v1h-1v-1z" fill="rgb(82,65,115)"/>
<path d="M25 59h1v1h-1v-1z" fill="rgb(0,0,0)"/>
<path d="M30 59h1v1h1v1h-2v-2z" fill="rgb(82,65,115)"/>
<path d="M31 59h1v1h-1v-1z" fill="rgb(0,0,0)"/>
<path d="M42 59h1v1h-1v-1z" fill="rgb(82,65,115)"/>
<path d="M43 59h2v1h-2v-1z" fill="rgb(0,0,0)"/>
<path d="M45 59h1v1h-1v-1z" fill="rgb(82,65,115)"/>
<path d="M61 59h1v2h-1v-2z" fill="rgb(82,65,115)"/>
<path d="M19 60h1v1h-1v-1z" fill="rgb(0,0,0)"/>
<path d="M25 60h1v1h-1v-1z" fill="rgb(82,65,115)"/>
<path d="M29 60h1v1h-1v-1z" fill="rgb(0,0,0)"/>
<path d="M38 60h1v2h-1v-2z" fill="rgb(0,0,0)"/>
<path d="M39 60h1v1h-1v-1z" fill="rgb(82,65,115)"/>
<path d="M42 60h1v1h-1v-1z" fill="rgb(0,0,0)"/>
<path d="M43 60h1v1h-1v-1z" fill="rgb(82,65,115)"/>
<path d="M46 60h1v1h-1v-1z" fill="rgb(82,65,115)"/>
<path d="M59 60h2v1h1v2h-1v1h-2v-1h-2v-1h1v-1h1v-1z" fill="rgb(172,172,213)"/>
<path d="M20 61h1v1h-1v-1z" fill="rgb(0,0,0)"/>
<path d="M29 61h1v1h-1v-1z" fill="rgb(82,65,115)"/>
<path d="M32 61h1v3h-1v-3z" fill="rgb(82,65,115)"/>
<path d="M33 61h1v1h2v-1h2v2h-3v1h-1v1h-1v-4z" fill="rgb(205,57,74)"/>
<path d="M41 61h1v1h-1v-1z" fill="rgb(0,0,0)"/>
<path d="M43 61h1v1h-1v-1z" fill="rgb(148,131,164)"/>
<path d="M44 61h1v1h-1v-1z" fill="rgb(82,65,115)"/>
<path d="M57 61h1v1h-1v-1z" fill="rgb(82,65,115)"/>
<path d="M62 61h1v2h-1v-2z" fill="rgb(82,65,115)"/>
<path d="M21 62h1v1h-1v-1z" fill="rgb(0,0,0)"/>
<path d="M28 62h1v2h-1v-2z" fill="rgb(0,0,0)"/>
<path d="M38 62h1v3h-1v-3z" fill="rgb(82,65,115)"/>
<path d="M40 62h1v1h-1v-1z" fill="rgb(82,65,115)"/>
<path d="M43 62h1v2h-1v-2z" fill="rgb(82,65,115)"/>
<path d="M44 62h1v1h2v1h2v2h-1v3h1v2h-1v-1h-1v-2h-3v-1h-1v-3h1v-2z" fill="rgb(148,131,164)"/>
<path d="M45 62h2v1h-2v-1z" fill="rgb(82,65,115)"/>
<path d="M56 62h1v1h-1v-1z" fill="rgb(0,0,0)"/>
<path d="M22 63h1v1h-1v-1z" fill="rgb(0,0,0)"/>
<path d="M23 63h1v1h-1v-1z" fill="rgb(82,65,115)"/>
<path d="M35 63h3v1h-1v3h-1v2h-1v1h-2v-1h-1v-4h2v-1h1v-1z" fill="rgb(230,139,156)"/>
<path d="M40 63h1v3h-1v-3z" fill="rgb(0,0,0)"/>
<path d="M47 63h2v1h-2v-1z" fill="rgb(82,65,115)"/>
<path d="M53 63h1v1h-1v-1z" fill="rgb(82,65,115)"/>
<path d="M54 63h2v1h-1v1h-1v-2z" fill="rgb(0,0,0)"/>
<path d="M56 63h3v1h2v1h1v-1h1v1h1v1h1v4h1v2h1v1h1v1h-2v-1h-1v-2h-1v-1h-2v3h1v1h1v1h-2
	v-1h-1v-4h-1v-4h-4v-1h-1v-1h1v-1z" fill="rgb(148,131,164)"/>
<path d="M61 63h1v1h-1v-1z" fill="rgb(148,131,164)"/>
<path d="M62 63h1v1h-1v-1z" fill="rgb(0,0,0)"/>
<path d="M24 64h4v1h-4v-1z" fill="rgb(0,0,0)"/>
<path d="M31 64h1v2h-1v-2z" fill="rgb(82,65,115)"/>
<path d="M32 64h1v1h-1v-1z" fill="rgb(205,205,205)"/>
<path d="M37 64h1v1h-1v-1z" fill="rgb(255,255,255)"/>
<path d="M42 64h1v3h-1v-3z" fill="rgb(82,65,115)"/>
<path d="M49 64h4v1h-3v1h-1v-2z" fill="rgb(0,0,0)"/>
<path d="M61 64h1v1h-1v-1z" fill="rgb(0,0,0)"/>
<path d="M63 64h1v1h-1v-1z" fill="rgb(0,0,0)"/>
<path d="M37 65h1v1h-1v-1z" fill="rgb(82,65,115)"/>
<path d="M55 65h1v1h-1v-1z" fill="rgb(0,0,0)"/>
<path d="M64 65h1v1h-1v-1z" fill="rgb(0,0,0)"/>
<path d="M30 66h1v2h-1v-2z" fill="rgb(82,65,115)"/>
<path d="M31 66h1v1h-1v-1z" fill="rgb(205,57,74)"/>
<path d="M37 66h1v2h-1v-2z" fill="rgb(0,0,0)"/>
<path d="M39 66h1v1h-1v-1z" fill="rgb(82,65,115)"/>
<path d="M48 66h1v3h-1v-3z" fill="rgb(0,0,0)"/>
<path d="M56 66h2v1h-2v-1z" fill="rgb(0,0,0)"/>
<path d="M58 66h2v1h-2v-1z" fill="rgb(82,65,115)"/>
<path d="M65 66h1v1h-1v-1z" fill="rgb(82,65,115)"/>
<path d="M31 67h1v3h2v2h-4v-2h1v-3z" fill="rgb(131,32,65)"/>
<path d="M36 67h1v1h-1v-1z" fill="rgb(255,255,255)"/>
<path d="M39 67h1v4h-1v-4z" fill="rgb(0,0,0)"/>
<path d="M43 67h1v1h-1v-1z" fill="rgb(82,65,115)"/>
<path d="M59 67h1v2h-1v-2z" fill="rgb(0,0,0)"/>
<path d="M65 67h1v3h-1v-3z" fill="rgb(0,0,0)"/>
<path d="M29 68h1v1h-1v-1z" fill="rgb(82,65,115)"/>
<path d="M30 68h1v1h-1v-1z" fill="rgb(205,205,205)"/>
<path d="M36 68h1v1h-1v-1z" fill="rgb(205,205,205)"/>
<path d="M37 68h1v1h-1v-1z" fill="rgb(82,65,115)"/>
<path d="M44 68h1v2h-1v-2z" fill="rgb(0,0,0)"/>
<path d="M45 68h2v2h1v1h-2v-2h-1v-1z" fill="rgb(82,65,115)"/>
<path d="M28 69h1v2h-1v2h-1v-3h1v-1z" fill="rgb(0,0,0)"/>
<path d="M29 69h1v1h-1v-1z" fill="rgb(172,172,213)"/>
<path d="M30 69h1v1h-1v-1z" fill="rgb(205,57,74)"/>
<path d="M32 69h1v1h-1v-1z" fill="rgb(205,57,74)"/>
<path d="M35 69h1v1h-1v-1z" fill="rgb(131,32,65)"/>
<path d="M36 69h1v1h-1v-1z" fill="rgb(0,0,0)"/>
<path d="M37 69h1v2h-1v-2z" fill="rgb(172,172,213)"/>
<path d="M45 69h1v2h-1v-2z" fill="rgb(148,131,164)"/>
<path d="M49 69h1v1h-1v-1z" fill="rgb(0,0,0)"/>
<path d="M59 69h1v1h-1v-1z" fill="rgb(82,65,115)"/>
<path d="M29 70h1v1h-1v-1z" fill="rgb(205,205,205)"/>
<path d="M34 70h1v1h-1v-1z" fill="rgb(255,255,255)"/>
<path d="M35 70h2v1h-2v-1z" fill="rgb(82,65,115)"/>
<path d="M44 70h1v1h-1v-1z" fill="rgb(82,65,115)"/>
<path d="M49 70h1v1h-1v-1z" fill="rgb(82,65,115)"/>
<path d="M60 70h1v2h-1v-2z" fill="rgb(82,65,115)"/>
<path d="M62 70h1v1h-1v-1z" fill="rgb(82,65,115)"/>
<path d="M63 70h1v1h-1v-1z" fill="rgb(0,0,0)"/>
<path d="M66 70h1v2h-1v-2z" fill="rgb(0,0,0)"/>
<path d="M28 71h1v1h1v1h4v-1h2v2h-7v-1h-1v-2z" fill="rgb(172,172,213)"/>
<path d="M29 71h1v1h-1v-1z" fill="rgb(0,0,0)"/>
<path d="M34 71h2v1h-2v-1z" fill="rgb(0,0,0)"/>
<path d="M36 71h1v1h-1v-1z" fill="rgb(172,172,213)"/>
<path d="M39 71h1v1h-1v-1z" fill="rgb(82,65,115)"/>
<path d="M45 71h1v1h-1v-1z" fill="rgb(82,65,115)"/>
<path d="M46 71h1v1h-1v-1z" fill="rgb(148,131,164)"/>
<path d="M47 71h1v2h-2v-1h1v-1z" fill="rgb(0,0,0)"/>
<path d="M48 71h1v1h-1v-1z" fill="rgb(82,65,115)"/>
<path d="M49 71h1v1h-1v-1z" fill="rgb(148,131,164)"/>
<path d="M50 71h1v2h-2v-1h1v-1z" fill="rgb(0,0,0)"/>
<path d="M62 71h1v2h-1v-2z" fill="rgb(0,0,0)"/>
<path d="M63 71h1v2h-1v-2z" fill="transparent"/>
<path d="M64 71h1v1h-1v-1z" fill="rgb(82,65,115)"/>
<path d="M30 72h4v1h-4v-1z" fill="rgb(0,0,0)"/>
<path d="M38 72h1v2h-1v-2z" fill="rgb(82,65,115)"/>
<path d="M60 72h1v2h-1v-2z" fill="rgb(0,0,0)"/>
<path d="M64 72h1v1h-1v-1z" fill="rgb(0,0,0)"/>
<path d="M67 72h1v1h-1v-1z" fill="rgb(0,0,0)"/>
<path d="M28 73h1v1h-1v-1z" fill="rgb(0,0,0)"/>
<path d="M63 73h1v1h-1v-1z" fill="rgb(0,0,0)"/>
<path d="M64 73h1v1h-1v-1z" fill="transparent"/>
<path d="M65 73h1v1h-1v-1z" fill="rgb(0,0,0)"/>
<path d="M68 73h1v2h-3v-1h2v-1z" fill="rgb(0,0,0)"/>
<path d="M29 74h1v1h-1v-1z" fill="rgb(0,0,0)"/>
<path d="M30 74h1v1h-1v-1z" fill="rgb(82,65,115)"/>
<path d="M37 74h1v1h-1v-1z" fill="rgb(82,65,115)"/>
<path d="M61 74h1v1h-1v-1z" fill="rgb(0,0,0)"/>
<path d="M64 74h1v2h-2v-1h1v-1z" fill="rgb(0,0,0)"/>
<path d="M31 75h6v1h-6v-1z" fill="rgb(0,0,0)"/>
<path d="M62 75h1v1h-1v-1z" fill="rgb(82,65,115)"/>
</svg>
