<?xml version="1.0" encoding="utf-8"?>
<!-- generated at drububu.com  -->
<!DOCTYPE svg PUBLIC "-//W3C//DTD SVG 1.1//EN" "http://www.w3.org/Graphics/SVG/1.1/DTD/svg11.dtd">
<svg version="1.1" preserveAspectRatio="xMinYMin meet" xmlns="http://www.w3.org/2000/svg" xmlns:xlink="http://www.w3.org/1999/xlink" x="0px" y="0px" width="96px" height="96px" viewBox="0 0 96 96">
<path d="M0 0h96v96h-96v-96z" fill="transparent"/>
<path d="M55 15h3v1h-3v-1z" fill="rgb(0,0,0)"/>
<path d="M54 16h1v1h-1v-1z" fill="rgb(16,57,65)"/>
<path d="M55 16h1v1h1v3h-1v2h-1v1h-4v1h-2v1h-1v1h-1v1h-3v-1h-1v-1h-1v-1h-2v-1h2v-1h1v1h1
	v1h3v-1h1v-1h-1v-1h4v-1h1v-1h1v-1h1v-1h1v-1z" fill="rgb(82,139,172)"/>
<path d="M56 16h2v2h1v2h1v1h1v1h1v2h1v2h1v3h1v4h-1v2h-1v2h-1v1h2v-1h1v-1h1v-1h1v2h1v1h1
	v1h1v-1h2v-1h1v-1h1v-1h1v-1h1v-1h1v2h-1v1h1v1h1v2h-1v2h-1v1h-1v2h-1v1h-1v1h-1v1
	h-1v1h1v-1h2v2h-1v1h-1v1h-1v1h-1v1h-2v1h-1v-3h-1v-2h-1v-2h-1v-1h-1v-1h-1v-1h-1
	v-1h-1v-1h-2v-1h-3v-1h1v-1h1v-1h1v-1h1v-2h1v-5h-1v-2h-1v-1h-1v-1h-1v-1h-1v-1
	h-4v-1h4v-1h1v-2h1v-3h-1v-1z" fill="rgb(49,90,123)"/>
<path d="M58 16h1v2h-1v-2z" fill="rgb(0,0,0)"/>
<path d="M39 17h2v1h-2v-1z" fill="rgb(0,0,0)"/>
<path d="M53 17h1v1h-1v-1z" fill="rgb(16,57,65)"/>
<path d="M38 18h1v2h-1v-2z" fill="rgb(16,57,65)"/>
<path d="M39 18h1v2h1v2h-1v1h-1v1h-1v-4h1v-2z" fill="rgb(82,139,172)"/>
<path d="M40 18h1v1h2v1h1v1h-2v2h-2v-1h1v-2h-1v-2z" fill="rgb(49,90,123)"/>
<path d="M41 18h2v1h-2v-1z" fill="rgb(0,0,0)"/>
<path d="M52 18h1v1h-1v-1z" fill="rgb(16,57,65)"/>
<path d="M59 18h1v2h-1v-2z" fill="rgb(0,0,0)"/>
<path d="M43 19h1v1h-1v-1z" fill="rgb(0,0,0)"/>
<path d="M51 19h1v1h-1v-1z" fill="rgb(16,57,65)"/>
<path d="M37 20h1v4h-1v-4z" fill="rgb(16,57,65)"/>
<path d="M44 20h7v1h-7v-1z" fill="rgb(0,0,0)"/>
<path d="M60 20h1v1h-1v-1z" fill="rgb(0,0,0)"/>
<path d="M42 21h2v1h-2v-1z" fill="rgb(16,57,65)"/>
<path d="M44 21h1v1h-1v-1z" fill="rgb(49,90,123)"/>
<path d="M45 21h2v1h1v1h-1v1h-3v-1h-1v-1h2v-1z" fill="rgb(115,164,189)"/>
<path d="M61 21h1v1h-1v-1z" fill="rgb(0,0,0)"/>
<path d="M62 22h1v2h-1v-2z" fill="rgb(0,0,0)"/>
<path d="M39 23h1v1h-1v-1z" fill="rgb(49,90,123)"/>
<path d="M37 24h1v2h-1v-2z" fill="rgb(0,0,0)"/>
<path d="M38 24h1v1h1v1h-1v1h-1v2h-1v-3h1v-2z" fill="rgb(49,90,123)"/>
<path d="M39 24h1v1h-1v-1z" fill="rgb(82,139,172)"/>
<path d="M40 24h2v1h-2v-1z" fill="rgb(49,90,123)"/>
<path d="M49 24h2v1h-2v-1z" fill="rgb(49,90,123)"/>
<path d="M51 24h1v1h2v1h2v1h1v2h1v2h1v3h-1v2h-1v2h-1v1h-1v1h-2v1h-4v1h-4v-1h-4v-1h-1v-1
	h-1v-2h-1v-2h-1v-3h2v1h3v-1h-2v-1h-3v-1h1v-2h1v-2h1v-1h1v1h2v1h1v1h3v-1h1v-1h1
	v-1h2v-1z" fill="rgb(246,230,189)"/>
<path d="M52 24h1v1h-1v-1z" fill="rgb(230,197,172)"/>
<path d="M53 24h2v1h-2v-1z" fill="rgb(16,57,65)"/>
<path d="M63 24h1v2h-1v-2z" fill="rgb(0,0,0)"/>
<path d="M41 25h1v1h-1v-1z" fill="rgb(230,197,172)"/>
<path d="M42 25h1v1h-1v-1z" fill="rgb(49,90,123)"/>
<path d="M48 25h1v1h-1v-1z" fill="rgb(49,90,123)"/>
<path d="M54 25h1v1h-1v-1z" fill="rgb(230,197,172)"/>
<path d="M55 25h1v1h-1v-1z" fill="rgb(16,57,65)"/>
<path d="M36 26h1v4h-1v-4z" fill="rgb(0,0,0)"/>
<path d="M43 26h1v1h-1v-1z" fill="rgb(49,90,123)"/>
<path d="M47 26h1v1h-1v-1z" fill="rgb(49,90,123)"/>
<path d="M56 26h1v1h-1v-1z" fill="rgb(16,57,65)"/>
<path d="M64 26h1v3h-1v-3z" fill="rgb(0,0,0)"/>
<path d="M38 27h1v1h-1v-1z" fill="rgb(230,197,172)"/>
<path d="M44 27h2v1h-2v-1z" fill="rgb(49,90,123)"/>
<path d="M46 27h1v1h-1v-1z" fill="rgb(230,197,172)"/>
<path d="M57 27h1v1h-1v-1z" fill="rgb(16,57,65)"/>
<path d="M75 27h2v3h-4v-1h1v-1h1v-1z" fill="rgb(0,0,0)"/>
<path d="M57 28h1v1h-1v-1z" fill="rgb(230,197,172)"/>
<path d="M58 28h1v2h-1v-2z" fill="rgb(16,57,65)"/>
<path d="M71 28h2v1h-1v2h-1v-3z" fill="rgb(0,0,0)"/>
<path d="M75 28h1v1h-1v-1z" fill="rgb(255,255,255)"/>
<path d="M37 29h1v1h-1v-1z" fill="rgb(230,197,172)"/>
<path d="M65 29h1v4h-1v-4z" fill="rgb(0,0,0)"/>
<path d="M72 29h1v1h-1v-1z" fill="rgb(255,255,255)"/>
<path d="M78 29h2v8h-1v-1h-1v-1h1v-1h-1v-1h1v-1h-1v-1h1v-1h-1v-1z" fill="rgb(0,0,0)"/>
<path d="M35 30h1v5h-1v-5z" fill="rgb(0,0,0)"/>
<path d="M36 30h1v5h-1v-5z" fill="rgb(49,90,123)"/>
<path d="M50 30h5v1h-5v-1z" fill="rgb(0,0,0)"/>
<path d="M58 30h1v1h-1v-1z" fill="rgb(230,197,172)"/>
<path d="M59 30h1v5h-1v-5z" fill="rgb(16,57,65)"/>
<path d="M72 30h4v1h1v2h-1v1h-1v1h-1v1h-1v1h-1v1h-2v1h-1v-1h-1v-1h-1v-2h1v-1h1v-1h1v-1h1
	v-1h1v-1z" fill="rgb(82,139,172)"/>
<path d="M76 30h1v1h-1v-1z" fill="rgb(16,57,65)"/>
<path d="M77 30h1v1h-1v-1z" fill="rgb(0,0,0)"/>
<path d="M78 30h1v1h-1v-1z" fill="rgb(255,255,255)"/>
<path d="M37 31h3v1h-3v-1z" fill="rgb(0,0,0)"/>
<path d="M48 31h2v1h-2v-1z" fill="rgb(0,0,0)"/>
<path d="M50 31h1v1h-1v-1z" fill="rgb(115,115,115)"/>
<path d="M70 31h1v1h-1v-1z" fill="rgb(0,0,0)"/>
<path d="M77 31h1v1h-1v-1z" fill="rgb(16,57,65)"/>
<path d="M39 32h1v1h-1v-1z" fill="rgb(115,115,115)"/>
<path d="M40 32h2v1h-2v-1z" fill="rgb(0,0,0)"/>
<path d="M69 32h1v1h-1v-1z" fill="rgb(0,0,0)"/>
<path d="M77 32h1v1h-1v-1z" fill="rgb(0,0,0)"/>
<path d="M78 32h1v1h-1v-1z" fill="rgb(255,255,255)"/>
<path d="M26 33h2v1h-1v1h-1v-2z" fill="rgb(0,0,0)"/>
<path d="M64 33h2v2h-1v1h-1v1h-1v-2h1v-2z" fill="rgb(16,57,65)"/>
<path d="M66 33h1v1h1v1h-2v-2z" fill="rgb(0,0,0)"/>
<path d="M68 33h1v1h-1v-1z" fill="rgb(0,0,0)"/>
<path d="M77 33h1v1h-1v-1z" fill="rgb(16,57,65)"/>
<path d="M23 34h2v1h-1v3h-1v3h-1v-4h1v-3z" fill="rgb(0,0,0)"/>
<path d="M27 34h1v1h-1v-1z" fill="rgb(255,255,255)"/>
<path d="M28 34h3v3h-2v-1h-1v-2z" fill="rgb(0,0,0)"/>
<path d="M49 34h1v1h-1v-1z" fill="rgb(115,115,115)"/>
<path d="M50 34h1v1h-1v-1z" fill="rgb(230,197,172)"/>
<path d="M58 34h1v1h-1v-1z" fill="rgb(230,197,172)"/>
<path d="M77 34h1v1h-1v-1z" fill="rgb(0,0,0)"/>
<path d="M78 34h1v1h-1v-1z" fill="rgb(16,57,65)"/>
<path d="M24 35h1v1h-1v-1z" fill="rgb(255,255,255)"/>
<path d="M25 35h1v1h-1v-1z" fill="rgb(0,0,0)"/>
<path d="M26 35h2v1h1v1h2v1h1v1h2v1h2v2h-1v1h-2v1h-2v-1h-2v-1h-1v-1h-1v-1h-1v-1h-1v-3h1
	v-1z" fill="rgb(82,139,172)"/>
<path d="M29 35h1v1h-1v-1z" fill="rgb(255,255,255)"/>
<path d="M36 35h1v2h-1v-2z" fill="rgb(0,0,0)"/>
<path d="M37 35h1v1h-1v-1z" fill="rgb(230,197,172)"/>
<path d="M42 35h1v1h-1v-1z" fill="rgb(115,115,115)"/>
<path d="M48 35h1v1h-1v-1z" fill="rgb(115,115,115)"/>
<path d="M49 35h1v1h-1v-1z" fill="rgb(255,255,255)"/>
<path d="M50 35h1v1h-1v-1z" fill="rgb(0,0,0)"/>
<path d="M58 35h1v2h-1v-2z" fill="rgb(16,57,65)"/>
<path d="M65 35h1v1h-1v-1z" fill="rgb(0,0,0)"/>
<path d="M76 35h1v1h-1v-1z" fill="rgb(0,0,0)"/>
<path d="M77 35h1v1h-1v-1z" fill="rgb(255,255,255)"/>
<path d="M24 36h1v4h-1v1h-1v-2h1v-3z" fill="rgb(16,57,65)"/>
<path d="M37 36h1v1h-1v-1z" fill="rgb(49,90,123)"/>
<path d="M41 36h1v2h-1v-2z" fill="rgb(115,115,115)"/>
<path d="M42 36h1v1h-1v-1z" fill="rgb(255,255,255)"/>
<path d="M43 36h1v1h-1v-1z" fill="rgb(115,115,115)"/>
<path d="M45 36h1v1h-1v-1z" fill="rgb(230,197,172)"/>
<path d="M46 36h3v1h-3v-1z" fill="rgb(0,0,0)"/>
<path d="M49 36h1v1h-1v-1z" fill="rgb(115,115,115)"/>
<path d="M50 36h1v1h-1v-1z" fill="rgb(230,197,172)"/>
<path d="M57 36h1v1h-1v-1z" fill="rgb(230,197,172)"/>
<path d="M64 36h1v1h-1v-1z" fill="rgb(0,0,0)"/>
<path d="M77 36h1v1h-1v-1z" fill="rgb(0,0,0)"/>
<path d="M78 36h1v1h-1v-1z" fill="rgb(16,57,65)"/>
<path d="M31 37h1v1h-1v-1z" fill="rgb(16,57,65)"/>
<path d="M37 37h1v2h-1v-2z" fill="rgb(0,0,0)"/>
<path d="M38 37h1v1h-1v-1z" fill="rgb(230,197,172)"/>
<path d="M42 37h4v1h-4v-1z" fill="rgb(0,0,0)"/>
<path d="M46 37h1v1h-1v-1z" fill="rgb(230,197,172)"/>
<path d="M57 37h1v1h-1v-1z" fill="rgb(16,57,65)"/>
<path d="M62 37h1v1h-1v-1z" fill="rgb(16,57,65)"/>
<path d="M63 37h1v1h-1v-1z" fill="rgb(0,0,0)"/>
<path d="M78 37h1v2h-1v-2z" fill="rgb(0,0,0)"/>
<path d="M23 38h1v1h-1v-1z" fill="rgb(255,255,255)"/>
<path d="M32 38h2v1h-2v-1z" fill="rgb(16,57,65)"/>
<path d="M38 38h1v1h-1v-1z" fill="rgb(49,90,123)"/>
<path d="M56 38h1v1h-1v-1z" fill="rgb(16,57,65)"/>
<path d="M25 39h1v1h1v1h1v1h1v1h2v1h2v-1h2v-1h1v-1h4v2h-2v1h-1v1h-1v1h-1v1h-1v1h-1v2h-2
	v-1h-2v-1h-1v-1h-1v-1h-1v-1h-1v-2h-1v-2h1v-2z" fill="rgb(49,90,123)"/>
<path d="M34 39h2v1h-2v-1z" fill="rgb(16,57,65)"/>
<path d="M38 39h1v2h-3v-1h2v-1z" fill="rgb(0,0,0)"/>
<path d="M39 39h1v1h1v1h2v1h-3v-1h-1v-2z" fill="rgb(16,57,65)"/>
<path d="M55 39h1v1h-1v-1z" fill="rgb(16,57,65)"/>
<path d="M77 39h1v2h-1v-2z" fill="rgb(0,0,0)"/>
<path d="M24 40h1v1h-1v-1z" fill="rgb(255,255,255)"/>
<path d="M53 40h1v1h-1v-1z" fill="rgb(164,115,82)"/>
<path d="M54 40h1v1h-1v-1z" fill="rgb(16,57,65)"/>
<path d="M23 41h1v2h-1v-2z" fill="rgb(0,0,0)"/>
<path d="M43 41h1v1h-1v-1z" fill="rgb(164,115,82)"/>
<path d="M44 41h1v1h-1v-1z" fill="rgb(246,213,189)"/>
<path d="M49 41h1v1h-1v-1z" fill="rgb(246,213,189)"/>
<path d="M50 41h3v1h-2v1h-2v1h-4v-1h-1v-1h6v-1z" fill="rgb(230,197,172)"/>
<path d="M53 41h3v1h2v1h2v2h2v1h1v1h1v2h1v3h1v2h1v1h-1v1h-1v2h-3v1h-1v1h-1v1h-2v1h-2v1
	h-3v1h-3v1h-10v-1h-2v-1h-2v-1h-2v-1h-1v-1h-1v-3h-1v-2h1v-3h1v-2h1v-2h1v-1h1v-1h1
	v-1h1v-1h2v-1h2v-1h1v1h1v1h6v-1h2v-1h1v-1z" fill="rgb(246,230,189)"/>
<path d="M56 41h2v1h-2v-1z" fill="rgb(16,57,65)"/>
<path d="M76 41h1v1h-1v-1z" fill="rgb(0,0,0)"/>
<path d="M40 42h2v1h-2v-1z" fill="rgb(0,0,0)"/>
<path d="M43 42h1v1h-1v-1z" fill="rgb(246,213,189)"/>
<path d="M51 42h1v1h-1v-1z" fill="rgb(246,213,189)"/>
<path d="M58 42h2v1h-2v-1z" fill="rgb(16,57,65)"/>
<path d="M75 42h1v2h-1v-2z" fill="rgb(0,0,0)"/>
<path d="M24 43h1v2h-1v-2z" fill="rgb(0,0,0)"/>
<path d="M38 43h2v1h-2v-1z" fill="rgb(0,0,0)"/>
<path d="M44 43h1v1h-1v-1z" fill="rgb(246,213,189)"/>
<path d="M49 43h1v1h-1v-1z" fill="rgb(246,213,189)"/>
<path d="M60 43h1v1h-1v-1z" fill="rgb(16,57,65)"/>
<path d="M37 44h1v1h-1v-1z" fill="rgb(0,0,0)"/>
<path d="M60 44h1v1h-1v-1z" fill="rgb(230,197,172)"/>
<path d="M61 44h1v1h-1v-1z" fill="rgb(16,57,65)"/>
<path d="M74 44h1v1h-1v-1z" fill="rgb(0,0,0)"/>
<path d="M25 45h1v1h-1v-1z" fill="rgb(0,0,0)"/>
<path d="M36 45h1v1h-1v-1z" fill="rgb(0,0,0)"/>
<path d="M62 45h1v1h-1v-1z" fill="rgb(16,57,65)"/>
<path d="M73 45h1v2h-1v-2z" fill="rgb(0,0,0)"/>
<path d="M26 46h1v1h-1v-1z" fill="rgb(0,0,0)"/>
<path d="M35 46h1v1h-1v-1z" fill="rgb(0,0,0)"/>
<path d="M63 46h1v1h-1v-1z" fill="rgb(16,57,65)"/>
<path d="M72 46h1v1h-1v-1z" fill="rgb(16,57,65)"/>
<path d="M27 47h1v1h-1v-1z" fill="rgb(0,0,0)"/>
<path d="M34 47h1v1h-1v-1z" fill="rgb(0,0,0)"/>
<path d="M64 47h1v2h-1v-2z" fill="rgb(16,57,65)"/>
<path d="M71 47h1v1h-1v-1z" fill="rgb(16,57,65)"/>
<path d="M74 47h1v1h-1v-1z" fill="rgb(0,0,0)"/>
<path d="M28 48h1v1h-1v-1z" fill="rgb(0,0,0)"/>
<path d="M33 48h1v2h-1v-2z" fill="rgb(0,0,0)"/>
<path d="M74 48h1v1h-1v-1z" fill="rgb(16,57,65)"/>
<path d="M75 48h1v1h1v2h-1v-1h-1v-2z" fill="rgb(0,0,0)"/>
<path d="M29 49h2v1h-2v-1z" fill="rgb(0,0,0)"/>
<path d="M65 49h1v2h-1v-2z" fill="rgb(16,57,65)"/>
<path d="M73 49h1v2h1v-1h1v1h1v3h1v4h1v10h-1v3h-1v-7h-2v1h-2v-4h-2v1h-1v1h-1v-3h-1v-4h-1
	v-2h1v-1h2v-1h1v-1h1v-1h1v-1z" fill="rgb(16,57,65)"/>
<path d="M74 49h1v2h-1v-2z" fill="rgb(49,90,123)"/>
<path d="M31 50h2v2h-1v-1h-1v-1z" fill="rgb(0,0,0)"/>
<path d="M65 51h1v1h-1v-1z" fill="rgb(246,213,189)"/>
<path d="M66 51h1v3h-1v-3z" fill="rgb(16,57,65)"/>
<path d="M77 51h1v3h-1v-3z" fill="rgb(0,0,0)"/>
<path d="M31 52h1v3h-1v-3z" fill="rgb(0,0,0)"/>
<path d="M78 54h1v4h-1v-4z" fill="rgb(0,0,0)"/>
<path d="M30 55h1v4h-1v-4z" fill="rgb(0,0,0)"/>
<path d="M66 55h1v1h1v4h1v4h-3v-2h-1v-1h-1v1h-1v2h-1v2h-1v1h-1v1h-1v1h-1v2h-1v5h1v1h-3
	v-1h-1v1h-1v-1h-1v1h-1v-1h-1v1h-1v-1h-1v1h-1v-1h-1v1h-4v-1h-3v-1h-1v-1h-1v-1h-1
	v-2h-1v-2h-1v-2h-1v-1h-1v-1h-1v-1h-1v-5h1v1h1v1h1v1h1v1h1v1h1v1h2v1h3v1h9v-1h3
	v-1h3v-1h2v-1h1v-1h2v-1h1v-1h1v-1h1v-1h1v-2h1v-1z" fill="rgb(230,197,172)"/>
<path d="M31 57h1v3h-1v-3z" fill="rgb(246,213,189)"/>
<path d="M62 58h2v1h-1v1h-1v1h-1v1h-2v1h-1v1h-2v1h-3v1h-3v1h-9v-1h-3v-1h-2v-1h-1v-1h-1
	v-1h2v1h2v1h2v1h10v-1h3v-1h3v-1h2v-1h2v-1h1v-1h1v-1z" fill="rgb(246,213,189)"/>
<path d="M79 58h1v10h-1v-10z" fill="rgb(0,0,0)"/>
<path d="M29 59h1v5h1v1h-2v-2h-1v-1h1v-3z" fill="rgb(0,0,0)"/>
<path d="M21 60h2v1h-1v3h-3v1h-1v-2h3v-3z" fill="rgb(0,0,0)"/>
<path d="M26 60h1v1h-1v-1z" fill="rgb(0,0,0)"/>
<path d="M32 60h1v1h-1v-1z" fill="rgb(246,213,189)"/>
<path d="M22 61h1v1h1v2h-2v-3z" fill="rgb(255,255,255)"/>
<path d="M23 61h1v1h-1v-1z" fill="rgb(0,0,0)"/>
<path d="M25 61h1v4h-1v-2h-1v-1h1v-1z" fill="rgb(0,0,0)"/>
<path d="M26 61h1v3h-1v-3z" fill="rgb(255,255,255)"/>
<path d="M27 61h1v1h-1v-1z" fill="rgb(0,0,0)"/>
<path d="M33 61h1v1h-1v-1z" fill="rgb(246,213,189)"/>
<path d="M64 61h1v1h-1v-1z" fill="rgb(0,0,0)"/>
<path d="M71 61h2v4h2v1h-1v2h-1v-2h-1v-4h-1v-1z" fill="rgb(0,0,0)"/>
<path d="M27 62h1v1h1v1h-1v1h-2v-1h1v-2z" fill="rgb(205,205,205)"/>
<path d="M63 62h1v2h-1v-2z" fill="rgb(0,0,0)"/>
<path d="M64 62h1v2h1v1h-1v1h-1v-1h-1v-1h1v-2z" fill="rgb(255,255,255)"/>
<path d="M65 62h1v2h-1v-2z" fill="rgb(0,0,0)"/>
<path d="M70 62h1v1h-1v-1z" fill="rgb(0,0,0)"/>
<path d="M71 62h1v4h-3v-1h2v-3z" fill="rgb(205,205,205)"/>
<path d="M24 63h1v1h-1v-1z" fill="rgb(115,90,32)"/>
<path d="M69 63h1v1h-1v-1z" fill="rgb(0,0,0)"/>
<path d="M70 63h1v2h-2v-1h1v-1z" fill="rgb(255,255,255)"/>
<path d="M19 64h2v2h-1v-1h-1v-1z" fill="rgb(255,255,255)"/>
<path d="M21 64h1v1h-1v-1z" fill="rgb(205,205,205)"/>
<path d="M22 64h2v1h-2v-1z" fill="rgb(115,90,32)"/>
<path d="M24 64h1v1h1v1h3v-1h1v1h1v1h1v2h-1v1h-2v-1h-1v-1h-1v-1h-5v-2h2v-1z" fill="rgb(246,230,189)"/>
<path d="M28 64h1v1h-1v-1z" fill="rgb(115,90,32)"/>
<path d="M62 64h1v2h-1v-2z" fill="rgb(0,0,0)"/>
<path d="M66 64h3v2h-1v-1h-1v1h-1v-2z" fill="rgb(0,0,0)"/>
<path d="M75 64h2v7h1v2h-1v-1h-1v-3h-2v-1h2v-3h-1v-1z" fill="rgb(0,0,0)"/>
<path d="M19 65h1v2h-1v-2z" fill="rgb(0,0,0)"/>
<path d="M21 65h1v2h-1v-2z" fill="rgb(0,0,0)"/>
<path d="M26 65h2v1h-2v-1z" fill="rgb(115,90,32)"/>
<path d="M28 65h1v1h-1v-1z" fill="rgb(0,0,0)"/>
<path d="M30 65h1v1h-1v-1z" fill="rgb(230,197,172)"/>
<path d="M31 65h1v1h-1v-1z" fill="rgb(0,0,0)"/>
<path d="M63 65h1v1h-1v-1z" fill="rgb(205,205,205)"/>
<path d="M65 65h1v1h-1v-1z" fill="rgb(205,205,205)"/>
<path d="M67 65h1v1h-1v-1z" fill="rgb(230,197,172)"/>
<path d="M75 65h1v3h-1v-1h-1v-1h1v-1z" fill="rgb(255,255,255)"/>
<path d="M20 66h1v1h-1v-1z" fill="rgb(205,205,205)"/>
<path d="M31 66h1v1h-1v-1z" fill="rgb(230,197,172)"/>
<path d="M32 66h1v1h-1v-1z" fill="rgb(0,0,0)"/>
<path d="M61 66h1v1h-1v-1z" fill="rgb(0,0,0)"/>
<path d="M62 66h1v1h-1v-1z" fill="rgb(230,197,172)"/>
<path d="M63 66h3v1h-3v-1z" fill="rgb(98,65,32)"/>
<path d="M66 66h2v1h1v1h-3v1h-2v1h-1v1h-1v1h-1v3h-1v3h-1v-2h-1v-4h1v-3h1v-1h1v-1h5v-1z" fill="rgb(246,230,189)"/>
<path d="M68 66h1v1h-1v-1z" fill="rgb(230,197,172)"/>
<path d="M69 66h3v1h-3v-1z" fill="rgb(0,0,0)"/>
<path d="M72 66h1v2h1v1h2v3h-1v3h-1v2h-1v1h-1v1h-2v1h-2v1h-5v-1h-2v-1h-1v-1h1v-3h1v-3h1
	v-1h1v-1h2v-1h3v-1h2v-1h1v-1z" fill="rgb(230,197,172)"/>
<path d="M20 67h1v4h-1v-4z" fill="rgb(0,0,0)"/>
<path d="M21 67h1v1h-1v-1z" fill="rgb(246,230,189)"/>
<path d="M22 67h5v1h-4v1h-1v1h-1v-2h1v-1z" fill="rgb(246,213,189)"/>
<path d="M32 67h1v1h-1v-1z" fill="rgb(230,197,172)"/>
<path d="M33 67h1v2h-1v-2z" fill="rgb(0,0,0)"/>
<path d="M60 67h1v1h-1v-1z" fill="rgb(0,0,0)"/>
<path d="M69 67h2v1h-2v-1z" fill="rgb(246,213,189)"/>
<path d="M74 67h1v1h-1v-1z" fill="rgb(205,205,205)"/>
<path d="M23 68h4v1h1v1h1v1h3v-1h1v-1h1v2h1v5h-1v2h-2v1h-4v-1h1v-3h-1v-2h-1v-1h-1v-1h-3
	v1h-1v-1h-1v-1h1v-1h1v-1z" fill="rgb(230,197,172)"/>
<path d="M27 68h1v1h-1v-1z" fill="rgb(246,213,189)"/>
<path d="M32 68h1v2h-1v1h-3v-1h2v-1h1v-1z" fill="rgb(246,213,189)"/>
<path d="M59 68h1v1h-1v-1z" fill="rgb(0,0,0)"/>
<path d="M66 68h3v1h-3v-1z" fill="rgb(246,213,189)"/>
<path d="M78 68h1v3h-1v-3z" fill="rgb(0,0,0)"/>
<path d="M28 69h1v1h-1v-1z" fill="rgb(246,213,189)"/>
<path d="M34 69h1v2h-1v-2z" fill="rgb(0,0,0)"/>
<path d="M58 69h1v2h-1v-2z" fill="rgb(0,0,0)"/>
<path d="M64 69h2v1h-2v-1z" fill="rgb(246,213,189)"/>
<path d="M63 70h1v1h-1v-1z" fill="rgb(246,213,189)"/>
<path d="M21 71h1v2h-1v-2z" fill="rgb(0,0,0)"/>
<path d="M23 71h3v1h-3v-1z" fill="rgb(98,65,32)"/>
<path d="M35 71h1v5h-1v-5z" fill="rgb(0,0,0)"/>
<path d="M57 71h1v5h-1v-5z" fill="rgb(0,0,0)"/>
<path d="M58 71h1v1h-1v-1z" fill="rgb(230,197,172)"/>
<path d="M62 71h1v1h-1v-1z" fill="rgb(246,213,189)"/>
<path d="M67 71h3v1h-3v-1z" fill="rgb(98,65,32)"/>
<path d="M22 72h1v1h-1v-1z" fill="rgb(98,65,32)"/>
<path d="M23 72h3v1h1v2h1v3h-2v-1h-1v-1h-1v-1h-1v-3z" fill="rgb(164,115,82)"/>
<path d="M26 72h1v1h-1v-1z" fill="rgb(98,65,32)"/>
<path d="M61 72h1v3h-1v-3z" fill="rgb(246,213,189)"/>
<path d="M65 72h2v1h-2v-1z" fill="rgb(98,65,32)"/>
<path d="M67 72h3v1h1v3h-1v1h-1v1h-4v-1h-1v-2h1v-2h2v-1z" fill="rgb(164,115,82)"/>
<path d="M70 72h1v1h-1v-1z" fill="rgb(98,65,32)"/>
<path d="M75 72h1v1h1v1h-1v1h-1v-3z" fill="rgb(0,0,0)"/>
<path d="M76 72h1v1h-1v-1z" fill="rgb(16,57,65)"/>
<path d="M22 73h1v2h-1v-2z" fill="rgb(0,0,0)"/>
<path d="M27 73h1v2h-1v-2z" fill="rgb(98,65,32)"/>
<path d="M36 73h1v1h1v1h1v1h-2v1h-2v-1h1v-3z" fill="rgb(16,57,65)"/>
<path d="M64 73h1v2h-1v-2z" fill="rgb(98,65,32)"/>
<path d="M71 73h1v3h-1v-3z" fill="rgb(98,65,32)"/>
<path d="M23 75h1v1h-1v-1z" fill="rgb(0,0,0)"/>
<path d="M28 75h1v3h-1v-3z" fill="rgb(98,65,32)"/>
<path d="M60 75h1v3h-1v-3z" fill="rgb(246,213,189)"/>
<path d="M63 75h1v2h-1v-2z" fill="rgb(98,65,32)"/>
<path d="M74 75h1v2h-1v-2z" fill="rgb(0,0,0)"/>
<path d="M24 76h1v1h-1v-1z" fill="rgb(0,0,0)"/>
<path d="M34 76h1v1h2v1h-3v-2z" fill="rgb(0,0,0)"/>
<path d="M37 76h4v1h-4v-1z" fill="rgb(0,0,0)"/>
<path d="M41 76h1v1h-1v-1z" fill="rgb(197,156,90)"/>
<path d="M46 76h1v1h-1v-1z" fill="rgb(246,230,189)"/>
<path d="M48 76h1v1h-1v-1z" fill="rgb(246,230,189)"/>
<path d="M50 76h1v1h-1v-1z" fill="rgb(246,230,189)"/>
<path d="M52 76h1v1h-1v-1z" fill="rgb(246,230,189)"/>
<path d="M54 76h1v1h-1v-1z" fill="rgb(246,230,189)"/>
<path d="M58 76h1v2h-4v-1h3v-1z" fill="rgb(0,0,0)"/>
<path d="M70 76h1v1h-1v-1z" fill="rgb(98,65,32)"/>
<path d="M25 77h1v1h-1v-1z" fill="rgb(0,0,0)"/>
<path d="M41 77h5v1h-5v-1z" fill="rgb(0,0,0)"/>
<path d="M46 77h1v1h-1v-1z" fill="rgb(197,156,90)"/>
<path d="M47 77h1v1h-1v-1z" fill="rgb(246,230,189)"/>
<path d="M48 77h1v1h-1v-1z" fill="rgb(230,197,172)"/>
<path d="M49 77h1v1h-1v-1z" fill="rgb(246,230,189)"/>
<path d="M50 77h1v1h-1v-1z" fill="rgb(230,197,172)"/>
<path d="M51 77h1v1h-1v-1z" fill="rgb(246,230,189)"/>
<path d="M52 77h1v1h-1v-1z" fill="rgb(230,197,172)"/>
<path d="M53 77h1v1h-1v-1z" fill="rgb(246,230,189)"/>
<path d="M54 77h1v1h-1v-1z" fill="rgb(230,197,172)"/>
<path d="M64 77h1v1h-1v-1z" fill="rgb(98,65,32)"/>
<path d="M69 77h1v1h-1v-1z" fill="rgb(98,65,32)"/>
<path d="M73 77h1v1h-1v-1z" fill="rgb(0,0,0)"/>
<path d="M26 78h2v1h-2v-1z" fill="rgb(0,0,0)"/>
<path d="M32 78h2v1h-2v-1z" fill="rgb(0,0,0)"/>
<path d="M46 78h9v1h-9v-1z" fill="rgb(0,0,0)"/>
<path d="M59 78h1v1h-1v-1z" fill="rgb(0,0,0)"/>
<path d="M65 78h4v1h-4v-1z" fill="rgb(98,65,32)"/>
<path d="M72 78h1v1h-1v-1z" fill="rgb(0,0,0)"/>
<path d="M28 79h4v1h-4v-1z" fill="rgb(0,0,0)"/>
<path d="M60 79h1v1h-1v-1z" fill="rgb(0,0,0)"/>
<path d="M70 79h2v1h-2v-1z" fill="rgb(0,0,0)"/>
<path d="M61 80h2v1h-2v-1z" fill="rgb(0,0,0)"/>
<path d="M68 80h2v1h-2v-1z" fill="rgb(0,0,0)"/>
<path d="M63 81h5v1h-5v-1z" fill="rgb(0,0,0)"/>
</svg>
