<?xml version="1.0" encoding="utf-8"?>
<!-- generated at drububu.com  -->
<!DOCTYPE svg PUBLIC "-//W3C//DTD SVG 1.1//EN" "http://www.w3.org/Graphics/SVG/1.1/DTD/svg11.dtd">
<svg version="1.1" preserveAspectRatio="xMinYMin meet" xmlns="http://www.w3.org/2000/svg" xmlns:xlink="http://www.w3.org/1999/xlink" x="0px" y="0px" width="96px" height="96px" viewBox="0 0 96 96">
<path d="M0 0h96v96h-96v-96z" fill="transparent"/>
<path d="M16 6h2v1h-2v-1z" fill="rgb(0,82,115)"/>
<path d="M15 7h1v1h-1v-1z" fill="rgb(0,82,115)"/>
<path d="M16 7h2v1h1v1h2v1h1v1h1v1h1v1h1v2h-1v-1h-1v-1h-1v-1h-2v1h-1v-1h-1v-1h-1v-2h-1
	v-2z" fill="rgb(148,197,255)"/>
<path d="M18 7h1v1h-1v-1z" fill="rgb(74,131,213)"/>
<path d="M15 8h1v1h-1v-1z" fill="rgb(0,0,0)"/>
<path d="M19 8h1v1h-1v-1z" fill="rgb(74,131,213)"/>
<path d="M20 8h1v1h-1v-1z" fill="rgb(0,82,115)"/>
<path d="M16 9h1v1h-1v-1z" fill="rgb(0,82,115)"/>
<path d="M21 9h1v1h-1v-1z" fill="rgb(0,82,115)"/>
<path d="M80 9h3v1h-3v-1z" fill="rgb(0,82,115)"/>
<path d="M16 10h1v1h-1v-1z" fill="rgb(0,0,0)"/>
<path d="M22 10h1v1h-1v-1z" fill="rgb(0,82,115)"/>
<path d="M77 10h3v1h-3v-1z" fill="rgb(0,82,115)"/>
<path d="M80 10h3v3h-2v1h-2v1h-2v1h-2v1h-2v-1h1v-1h1v-1h1v-1h-2v-1h3v-1h3v-1z" fill="rgb(148,197,255)"/>
<path d="M83 10h1v2h-1v-2z" fill="rgb(0,82,115)"/>
<path d="M14 11h2v1h-2v-1z" fill="rgb(0,82,115)"/>
<path d="M16 11h1v1h-1v-1z" fill="transparent"/>
<path d="M17 11h1v1h-1v-1z" fill="rgb(0,0,0)"/>
<path d="M23 11h1v1h-1v-1z" fill="rgb(0,82,115)"/>
<path d="M74 11h3v1h-3v-1z" fill="rgb(0,82,115)"/>
<path d="M13 12h1v2h-1v-2z" fill="rgb(0,82,115)"/>
<path d="M14 12h2v1h1v1h1v2h1v1h1v1h-2v-1h-2v-1h-1v-1h-1v-3z" fill="rgb(148,197,255)"/>
<path d="M16 12h1v1h-1v-1z" fill="rgb(0,82,115)"/>
<path d="M17 12h1v1h-1v-1z" fill="transparent"/>
<path d="M18 12h1v1h-1v-1z" fill="rgb(0,0,0)"/>
<path d="M20 12h2v2h1v1h1v2h1v2h1v7h-1v5h-1v5h1v3h-4v1h-3v1h-2v-2h3v-1h3v-1h-6v-2h4v-1h2
	v-1h-2v-1h-1v-1h-1v-1h2v-2h-1v-1h-1v-1h2v-1h-1v-1h1v-1h-1v-1h-1v-1h2v-1h-1v-1
	h-1v-1h2v-1h-1v-1h-1v-1h2v-1h1v-1h-1v-1z" fill="rgb(106,172,246)"/>
<path d="M24 12h1v1h-1v-1z" fill="rgb(0,82,115)"/>
<path d="M72 12h2v1h-2v-1z" fill="rgb(0,82,115)"/>
<path d="M83 12h1v1h-1v-1z" fill="rgb(0,0,0)"/>
<path d="M17 13h2v1h-2v-1z" fill="rgb(0,49,82)"/>
<path d="M19 13h1v1h-1v-1z" fill="rgb(0,82,115)"/>
<path d="M20 13h1v1h-1v-1z" fill="rgb(148,197,255)"/>
<path d="M22 13h1v1h-1v-1z" fill="rgb(74,131,213)"/>
<path d="M25 13h1v1h-1v-1z" fill="rgb(74,131,213)"/>
<path d="M69 13h3v1h-3v-1z" fill="rgb(0,82,115)"/>
<path d="M72 13h2v1h-2v-1z" fill="rgb(148,197,255)"/>
<path d="M74 13h1v1h-1v-1z" fill="rgb(74,131,213)"/>
<path d="M75 13h1v1h-1v-1z" fill="rgb(106,172,246)"/>
<path d="M81 13h2v1h-2v-1z" fill="rgb(0,0,0)"/>
<path d="M13 14h1v1h-1v-1z" fill="rgb(0,49,82)"/>
<path d="M18 14h1v1h-1v-1z" fill="rgb(0,82,115)"/>
<path d="M19 14h1v1h-1v-1z" fill="rgb(0,49,82)"/>
<path d="M23 14h1v1h-1v-1z" fill="rgb(74,131,213)"/>
<path d="M25 14h1v1h-1v-1z" fill="rgb(0,82,115)"/>
<path d="M67 14h2v1h-2v-1z" fill="rgb(0,82,115)"/>
<path d="M69 14h3v1h-3v-1z" fill="rgb(148,197,255)"/>
<path d="M72 14h2v1h-2v-1z" fill="rgb(74,131,213)"/>
<path d="M74 14h1v1h-1v-1z" fill="rgb(106,172,246)"/>
<path d="M79 14h2v1h-2v-1z" fill="rgb(0,0,0)"/>
<path d="M14 15h1v1h-1v-1z" fill="rgb(0,0,0)"/>
<path d="M20 15h1v1h-1v-1z" fill="rgb(0,82,115)"/>
<path d="M24 15h1v2h-1v-2z" fill="rgb(74,131,213)"/>
<path d="M25 15h1v1h1v2h-1v-1h-1v-2z" fill="rgb(148,197,255)"/>
<path d="M26 15h1v1h-1v-1z" fill="rgb(0,82,115)"/>
<path d="M65 15h2v1h-2v-1z" fill="rgb(0,82,115)"/>
<path d="M67 15h2v1h-2v-1z" fill="rgb(148,197,255)"/>
<path d="M69 15h3v1h-3v-1z" fill="rgb(74,131,213)"/>
<path d="M72 15h2v1h-1v1h1v1h-2v1h-1v1h1v-1h3v1h-1v1h-1v1h-1v1h2v1h-3v1h-4v1h4v-1h2v1h-1
	v1h-1v2h-4v1h4v1h-3v1h3v1h-2v1h2v1h-1v1h2v1h-5v1h-3v1h-2v1h2v1h4v1h-3v1h2v1h-5
	v-1h-2v1h2v1h1v1h-4v1h-2v-1h-1v1h1v1h1v3h-1v-1h-1v-1h-1v-1h-1v-1h-1v2h1v1h-1v1
	h-1v-2h-1v-2h-1v-1h1v-1h1v-1h3v-1h1v-1h1v-1h1v-3h1v-4h1v-5h1v-4h1v-2h1v-2h1v-1
	h1v-1h1v-1h2v-1h1v-1h3v-1z" fill="rgb(106,172,246)"/>
<path d="M77 15h2v1h-2v-1z" fill="rgb(0,49,82)"/>
<path d="M79 15h4v1h-4v-1z" fill="rgb(0,82,115)"/>
<path d="M15 16h1v1h-1v-1z" fill="rgb(0,0,0)"/>
<path d="M21 16h1v1h-1v-1z" fill="rgb(74,131,213)"/>
<path d="M27 16h1v1h-1v-1z" fill="rgb(0,82,115)"/>
<path d="M63 16h2v1h-2v-1z" fill="rgb(0,82,115)"/>
<path d="M65 16h2v1h-2v-1z" fill="rgb(148,197,255)"/>
<path d="M67 16h1v1h-1v-1z" fill="rgb(0,82,115)"/>
<path d="M68 16h1v1h-1v-1z" fill="rgb(74,131,213)"/>
<path d="M75 16h2v1h-2v-1z" fill="rgb(0,49,82)"/>
<path d="M77 16h2v1h-2v-1z" fill="rgb(0,82,115)"/>
<path d="M79 16h4v2h-1v1h-2v1h-1v1h-2v1h-3v1h-2v-1h1v-1h1v-1h1v-1h1v-1h1v-1h2v-1z" fill="rgb(148,197,255)"/>
<path d="M83 16h1v1h-1v-1z" fill="rgb(0,82,115)"/>
<path d="M16 17h1v1h-1v-1z" fill="rgb(0,0,0)"/>
<path d="M17 17h1v1h-1v-1z" fill="rgb(106,172,246)"/>
<path d="M25 17h1v1h-1v-1z" fill="rgb(0,82,115)"/>
<path d="M27 17h1v1h-1v-1z" fill="rgb(106,172,246)"/>
<path d="M28 17h1v2h-1v-2z" fill="rgb(0,82,115)"/>
<path d="M61 17h2v1h-2v-1z" fill="rgb(0,82,115)"/>
<path d="M63 17h2v1h-1v1h-2v-1h1v-1z" fill="rgb(148,197,255)"/>
<path d="M65 17h2v1h-2v-1z" fill="rgb(0,82,115)"/>
<path d="M67 17h1v1h-1v-1z" fill="rgb(74,131,213)"/>
<path d="M74 17h3v1h-3v-1z" fill="rgb(0,82,115)"/>
<path d="M83 17h1v1h-1v-1z" fill="rgb(0,49,82)"/>
<path d="M13 18h2v1h-2v-1z" fill="rgb(0,82,115)"/>
<path d="M17 18h1v1h-1v-1z" fill="rgb(0,0,0)"/>
<path d="M25 18h1v1h-1v-1z" fill="rgb(74,131,213)"/>
<path d="M26 18h1v8h-1v-8z" fill="rgb(0,82,115)"/>
<path d="M27 18h1v2h-1v-2z" fill="rgb(148,197,255)"/>
<path d="M60 18h1v1h-1v-1z" fill="rgb(0,82,115)"/>
<path d="M61 18h1v1h-1v-1z" fill="rgb(106,172,246)"/>
<path d="M64 18h1v1h-1v-1z" fill="rgb(0,82,115)"/>
<path d="M65 18h1v1h-1v-1z" fill="rgb(74,131,213)"/>
<path d="M72 18h2v1h-2v-1z" fill="rgb(0,82,115)"/>
<path d="M74 18h1v1h-1v-1z" fill="rgb(74,131,213)"/>
<path d="M75 18h1v1h-1v-1z" fill="rgb(106,172,246)"/>
<path d="M82 18h1v1h-1v-1z" fill="rgb(0,49,82)"/>
<path d="M12 19h1v1h-1v-1z" fill="rgb(0,82,115)"/>
<path d="M13 19h2v1h2v1h1v1h1v1h1v1h-2v-1h-3v-1h-2v-3z" fill="rgb(148,197,255)"/>
<path d="M15 19h2v1h-2v-1z" fill="rgb(0,82,115)"/>
<path d="M17 19h2v1h-2v-1z" fill="rgb(0,49,82)"/>
<path d="M28 19h1v3h-1v5h-1v5h-1v3h1v2h1v1h1v1h1v2h1v2h1v3h-1v-2h-1v-2h-1v-2h-1v-1h-1v-1
	h-1v-2h-1v-5h1v-5h1v-6h1v-1z" fill="rgb(106,172,246)"/>
<path d="M29 19h1v1h-1v-1z" fill="rgb(0,82,115)"/>
<path d="M59 19h1v1h-1v-1z" fill="rgb(0,82,115)"/>
<path d="M60 19h1v1h-1v-1z" fill="rgb(106,172,246)"/>
<path d="M61 19h1v1h-1v-1z" fill="rgb(148,197,255)"/>
<path d="M62 19h1v1h-1v-1z" fill="rgb(106,172,246)"/>
<path d="M63 19h1v1h-1v-1z" fill="rgb(0,82,115)"/>
<path d="M64 19h1v1h-1v-1z" fill="rgb(74,131,213)"/>
<path d="M71 19h1v1h-1v-1z" fill="rgb(74,131,213)"/>
<path d="M80 19h1v1h-1v-1z" fill="rgb(74,131,213)"/>
<path d="M81 19h1v1h-1v-1z" fill="rgb(0,49,82)"/>
<path d="M12 20h1v2h-1v-2z" fill="rgb(0,0,0)"/>
<path d="M17 20h3v1h-3v-1z" fill="rgb(0,82,115)"/>
<path d="M29 20h1v2h-1v-2z" fill="rgb(0,49,82)"/>
<path d="M59 20h1v2h-1v-2z" fill="rgb(0,49,82)"/>
<path d="M60 20h1v1h-1v-1z" fill="rgb(148,197,255)"/>
<path d="M61 20h1v1h-1v-1z" fill="rgb(106,172,246)"/>
<path d="M62 20h1v1h-1v-1z" fill="rgb(0,82,115)"/>
<path d="M63 20h1v1h-1v-1z" fill="rgb(74,131,213)"/>
<path d="M79 20h1v1h-1v-1z" fill="rgb(0,82,115)"/>
<path d="M80 20h1v1h-1v-1z" fill="rgb(0,49,82)"/>
<path d="M20 21h1v1h-1v-1z" fill="rgb(74,131,213)"/>
<path d="M60 21h1v3h-1v4h-1v5h-1v4h-1v-5h1v-6h1v-4h1v-1z" fill="rgb(106,172,246)"/>
<path d="M61 21h1v1h-1v-1z" fill="rgb(0,82,115)"/>
<path d="M62 21h1v2h-1v-2z" fill="rgb(74,131,213)"/>
<path d="M77 21h1v1h-1v-1z" fill="rgb(0,82,115)"/>
<path d="M78 21h1v1h-1v-1z" fill="rgb(0,49,82)"/>
<path d="M13 22h2v1h-2v-1z" fill="rgb(0,0,0)"/>
<path d="M21 22h1v1h-1v-1z" fill="rgb(74,131,213)"/>
<path d="M28 22h1v1h-1v-1z" fill="rgb(0,49,82)"/>
<path d="M58 22h1v4h-1v-4z" fill="rgb(0,49,82)"/>
<path d="M61 22h1v2h-1v-2z" fill="rgb(0,49,82)"/>
<path d="M74 22h1v1h-1v-1z" fill="rgb(106,172,246)"/>
<path d="M75 22h1v2h-2v-1h1v-1z" fill="rgb(0,49,82)"/>
<path d="M76 22h1v1h-1v-1z" fill="rgb(0,0,0)"/>
<path d="M77 22h1v1h-1v-1z" fill="transparent"/>
<path d="M78 22h4v1h-4v-1z" fill="rgb(0,82,115)"/>
<path d="M14 23h1v1h-1v-1z" fill="rgb(0,49,82)"/>
<path d="M15 23h2v1h-2v-1z" fill="rgb(0,0,0)"/>
<path d="M17 23h1v1h-1v-1z" fill="rgb(106,172,246)"/>
<path d="M28 23h1v4h-1v-4z" fill="rgb(0,0,0)"/>
<path d="M76 23h2v1h-2v-1z" fill="rgb(0,82,115)"/>
<path d="M78 23h4v2h-2v1h-3v1h-3v1h-3v-1h1v-1h1v-1h1v-1h4v-1z" fill="rgb(148,197,255)"/>
<path d="M82 23h1v1h-1v-1z" fill="rgb(0,82,115)"/>
<path d="M13 24h1v1h-1v-1z" fill="rgb(0,49,82)"/>
<path d="M14 24h3v1h1v2h1v1h1v1h-2v-1h-2v-1h-2v-3z" fill="rgb(148,197,255)"/>
<path d="M17 24h2v1h-2v-1z" fill="rgb(0,0,0)"/>
<path d="M60 24h1v4h-1v-4z" fill="rgb(0,49,82)"/>
<path d="M61 24h1v1h-1v-1z" fill="rgb(74,131,213)"/>
<path d="M71 24h3v1h-3v-1z" fill="rgb(0,82,115)"/>
<path d="M82 24h1v1h-1v-1z" fill="rgb(0,49,82)"/>
<path d="M13 25h1v2h-1v-2z" fill="rgb(0,0,0)"/>
<path d="M18 25h1v1h-1v-1z" fill="rgb(0,82,115)"/>
<path d="M19 25h1v1h-1v-1z" fill="rgb(0,49,82)"/>
<path d="M67 25h1v1h-1v-1z" fill="rgb(74,131,213)"/>
<path d="M68 25h3v1h-3v-1z" fill="rgb(0,82,115)"/>
<path d="M80 25h1v1h-1v-1z" fill="rgb(74,131,213)"/>
<path d="M81 25h1v1h-1v-1z" fill="rgb(0,49,82)"/>
<path d="M20 26h1v1h-1v-1z" fill="rgb(0,82,115)"/>
<path d="M21 26h1v1h-1v-1z" fill="rgb(74,131,213)"/>
<path d="M25 26h1v5h-1v-5z" fill="rgb(0,82,115)"/>
<path d="M57 26h1v4h-1v-4z" fill="rgb(0,0,0)"/>
<path d="M77 26h1v1h-1v-1z" fill="rgb(74,131,213)"/>
<path d="M78 26h1v1h-1v-1z" fill="rgb(0,49,82)"/>
<path d="M79 26h2v1h-2v-1z" fill="rgb(0,0,0)"/>
<path d="M14 27h2v1h-2v-1z" fill="rgb(0,0,0)"/>
<path d="M22 27h1v1h-1v-1z" fill="rgb(74,131,213)"/>
<path d="M27 27h1v5h-1v-5z" fill="rgb(0,0,0)"/>
<path d="M74 27h1v1h-1v-1z" fill="rgb(74,131,213)"/>
<path d="M75 27h1v1h1v1h-2v-2z" fill="rgb(0,49,82)"/>
<path d="M76 27h2v1h-2v-1z" fill="rgb(0,0,0)"/>
<path d="M15 28h1v1h-1v-1z" fill="rgb(0,49,82)"/>
<path d="M16 28h2v1h-2v-1z" fill="rgb(0,0,0)"/>
<path d="M38 28h1v1h-1v-1z" fill="rgb(0,0,0)"/>
<path d="M47 28h3v1h-3v-1z" fill="rgb(0,82,115)"/>
<path d="M50 28h1v1h-1v-1z" fill="rgb(0,0,0)"/>
<path d="M59 28h1v5h-1v-5z" fill="rgb(0,49,82)"/>
<path d="M60 28h1v1h-1v-1z" fill="rgb(74,131,213)"/>
<path d="M71 28h1v1h-1v-1z" fill="rgb(74,131,213)"/>
<path d="M72 28h1v1h2v1h-6v-1h3v-1z" fill="rgb(0,49,82)"/>
<path d="M73 28h2v1h-2v-1z" fill="rgb(0,0,0)"/>
<path d="M77 28h4v1h-4v-1z" fill="rgb(0,82,115)"/>
<path d="M14 29h1v2h-1v-2z" fill="rgb(0,49,82)"/>
<path d="M15 29h3v2h-3v-2z" fill="rgb(148,197,255)"/>
<path d="M18 29h1v1h-1v-1z" fill="rgb(0,0,0)"/>
<path d="M19 29h1v1h-1v-1z" fill="rgb(0,49,82)"/>
<path d="M37 29h1v2h-1v-2z" fill="rgb(0,49,82)"/>
<path d="M38 29h1v2h-1v-2z" fill="rgb(0,123,189)"/>
<path d="M39 29h1v2h-1v-2z" fill="rgb(0,0,0)"/>
<path d="M44 29h3v1h-3v-1z" fill="rgb(0,82,115)"/>
<path d="M47 29h2v1h-1v1h-1v1h-3v-1h2v-1h1v-1z" fill="rgb(0,123,189)"/>
<path d="M49 29h1v1h-1v-1z" fill="rgb(0,0,0)"/>
<path d="M67 29h1v1h-1v-1z" fill="rgb(74,131,213)"/>
<path d="M68 29h1v1h-1v-1z" fill="rgb(0,82,115)"/>
<path d="M75 29h6v2h-2v1h-4v1h-4v-1h-3v-1h3v-1h4v-1z" fill="rgb(148,197,255)"/>
<path d="M81 29h1v1h-1v-1z" fill="rgb(0,82,115)"/>
<path d="M20 30h1v1h-1v-1z" fill="rgb(0,82,115)"/>
<path d="M21 30h1v1h-1v-1z" fill="rgb(74,131,213)"/>
<path d="M42 30h2v1h-2v-1z" fill="rgb(0,82,115)"/>
<path d="M44 30h2v1h-2v-1z" fill="rgb(106,172,246)"/>
<path d="M48 30h1v1h-1v-1z" fill="rgb(0,0,0)"/>
<path d="M57 30h1v2h-1v-2z" fill="rgb(0,49,82)"/>
<path d="M81 30h1v1h-1v-1z" fill="rgb(0,49,82)"/>
<path d="M15 31h2v1h-2v-1z" fill="rgb(0,0,0)"/>
<path d="M17 31h1v1h-1v-1z" fill="rgb(106,172,246)"/>
<path d="M18 31h1v1h-1v-1z" fill="rgb(148,197,255)"/>
<path d="M24 31h1v5h-1v-5z" fill="rgb(0,82,115)"/>
<path d="M36 31h1v3h-1v-3z" fill="rgb(0,49,82)"/>
<path d="M37 31h1v1h-1v-1z" fill="rgb(0,123,189)"/>
<path d="M38 31h1v1h-1v-1z" fill="rgb(106,172,246)"/>
<path d="M39 31h1v1h-1v-1z" fill="rgb(0,49,82)"/>
<path d="M40 31h1v1h-1v-1z" fill="rgb(0,0,0)"/>
<path d="M41 31h1v1h-1v-1z" fill="rgb(0,49,82)"/>
<path d="M42 31h2v1h-1v1h-2v-1h1v-1z" fill="rgb(106,172,246)"/>
<path d="M47 31h1v1h-1v-1z" fill="rgb(0,0,0)"/>
<path d="M79 31h1v1h-1v-1z" fill="rgb(0,49,82)"/>
<path d="M80 31h1v1h-1v-1z" fill="rgb(0,0,0)"/>
<path d="M17 32h3v1h-3v-1z" fill="rgb(0,0,0)"/>
<path d="M26 32h1v3h-1v-3z" fill="rgb(0,0,0)"/>
<path d="M37 32h1v1h-1v-1z" fill="rgb(106,172,246)"/>
<path d="M38 32h1v1h-1v-1z" fill="rgb(0,82,115)"/>
<path d="M39 32h1v1h-1v-1z" fill="rgb(0,0,0)"/>
<path d="M40 32h1v2h-2v-1h1v-1z" fill="rgb(148,197,255)"/>
<path d="M43 32h1v1h-1v-1z" fill="rgb(0,123,189)"/>
<path d="M44 32h2v1h-1v1h-3v1h-2v1h-2v-1h1v-1h2v-1h3v-1z" fill="rgb(0,82,115)"/>
<path d="M46 32h1v1h6v1h-7v-2z" fill="rgb(0,0,0)"/>
<path d="M56 32h1v2h-1v-2z" fill="rgb(0,0,0)"/>
<path d="M75 32h2v1h-2v-1z" fill="rgb(0,49,82)"/>
<path d="M77 32h2v1h-2v-1z" fill="rgb(0,0,0)"/>
<path d="M20 33h2v1h-2v-1z" fill="rgb(0,0,0)"/>
<path d="M37 33h1v2h-1v-2z" fill="rgb(0,82,115)"/>
<path d="M38 33h1v2h-1v-2z" fill="rgb(0,0,0)"/>
<path d="M45 33h1v1h-1v-1z" fill="rgb(0,49,82)"/>
<path d="M58 33h1v4h-1v-4z" fill="rgb(0,49,82)"/>
<path d="M59 33h1v1h-1v-1z" fill="rgb(74,131,213)"/>
<path d="M69 33h3v1h-3v-1z" fill="rgb(0,49,82)"/>
<path d="M72 33h3v1h-3v-1z" fill="rgb(0,0,0)"/>
<path d="M75 33h3v1h-1v1h-2v1h-5v-1h1v-1h4v-1z" fill="rgb(148,197,255)"/>
<path d="M78 33h1v1h-1v-1z" fill="rgb(0,49,82)"/>
<path d="M16 34h4v1h-4v-1z" fill="rgb(0,49,82)"/>
<path d="M36 34h1v1h1v1h-2v-2z" fill="rgb(0,0,0)"/>
<path d="M42 34h3v1h-3v-1z" fill="rgb(0,49,82)"/>
<path d="M45 34h8v1h-2v1h-3v1h-8v-1h2v-1h2v1h2v-1h-1v-1z" fill="rgb(0,123,189)"/>
<path d="M53 34h1v1h-1v-1z" fill="rgb(0,0,0)"/>
<path d="M56 34h1v2h-1v-2z" fill="rgb(0,49,82)"/>
<path d="M77 34h1v1h-1v-1z" fill="rgb(0,49,82)"/>
<path d="M15 35h1v2h-1v-2z" fill="rgb(0,49,82)"/>
<path d="M27 35h1v2h-1v-2z" fill="rgb(0,49,82)"/>
<path d="M40 35h2v1h-2v-1z" fill="rgb(0,49,82)"/>
<path d="M44 35h1v1h-1v-1z" fill="rgb(148,197,255)"/>
<path d="M45 35h1v1h-1v-1z" fill="rgb(106,172,246)"/>
<path d="M51 35h2v1h-2v-1z" fill="rgb(0,0,0)"/>
<path d="M75 35h2v1h-2v-1z" fill="rgb(0,49,82)"/>
<path d="M25 36h1v2h-1v-2z" fill="rgb(0,82,115)"/>
<path d="M35 36h3v1h-3v-1z" fill="rgb(90,57,24)"/>
<path d="M38 36h2v1h1v2h-1v-1h-1v-1h-1v-1z" fill="rgb(0,49,82)"/>
<path d="M48 36h3v1h-3v-1z" fill="rgb(0,0,0)"/>
<path d="M56 36h1v1h-1v-1z" fill="rgb(0,0,0)"/>
<path d="M72 36h3v1h-3v-1z" fill="rgb(0,49,82)"/>
<path d="M16 37h2v1h-2v-1z" fill="rgb(0,49,82)"/>
<path d="M18 37h2v1h-2v-1z" fill="rgb(0,0,0)"/>
<path d="M20 37h1v1h-1v-1z" fill="rgb(0,49,82)"/>
<path d="M21 37h1v1h-1v-1z" fill="rgb(74,131,213)"/>
<path d="M28 37h1v1h-1v-1z" fill="rgb(0,49,82)"/>
<path d="M34 37h1v2h-1v-2z" fill="rgb(0,0,0)"/>
<path d="M35 37h3v1h1v2h-1v-1h-1v-1h-2v-1z" fill="rgb(180,148,115)"/>
<path d="M38 37h1v1h-1v-1z" fill="rgb(0,0,0)"/>
<path d="M41 37h3v2h-1v-1h-2v-1z" fill="rgb(0,0,0)"/>
<path d="M44 37h1v1h-1v-1z" fill="rgb(0,49,82)"/>
<path d="M45 37h3v1h-1v3h-1v-3h-1v-1z" fill="rgb(0,0,0)"/>
<path d="M55 37h1v2h-1v-2z" fill="rgb(0,0,0)"/>
<path d="M56 37h1v3h-1v1h-1v1h-3v1h-2v1h-1v1h-1v1h-1v1h-1v1h-2v1h-1v2h-1v2h-1v1h-1v-3h-1
	v-3h-1v-2h-1v-1h-1v1h-1v-3h3v-1h1v-1h1v-1h1v1h2v-1h1v-1h1v1h1v1h-1v5h1v-1h1v-1
	h1v-1h1v-1h2v-1h2v-1h2v-1h1v-2z" fill="rgb(106,172,246)"/>
<path d="M57 37h1v3h-1v-3z" fill="rgb(0,49,82)"/>
<path d="M58 37h1v1h-1v-1z" fill="rgb(74,131,213)"/>
<path d="M67 37h5v1h-5v-1z" fill="rgb(0,49,82)"/>
<path d="M16 38h2v1h-2v-1z" fill="rgb(0,0,0)"/>
<path d="M18 38h1v1h-1v-1z" fill="rgb(74,131,213)"/>
<path d="M25 38h1v1h-1v-1z" fill="rgb(74,131,213)"/>
<path d="M26 38h1v1h-1v-1z" fill="rgb(0,82,115)"/>
<path d="M29 38h1v1h-1v-1z" fill="rgb(0,49,82)"/>
<path d="M35 38h1v1h-1v-1z" fill="rgb(90,57,24)"/>
<path d="M36 38h1v1h-1v-1z" fill="rgb(139,106,82)"/>
<path d="M39 38h1v1h1v1h-1v1h-1v-3z" fill="rgb(0,0,0)"/>
<path d="M41 38h2v2h-1v-1h-1v-1z" fill="rgb(255,255,255)"/>
<path d="M44 38h2v2h-1v-1h-1v-1z" fill="rgb(74,131,213)"/>
<path d="M64 38h3v1h-3v-1z" fill="rgb(0,49,82)"/>
<path d="M15 39h1v2h-1v-2z" fill="rgb(0,49,82)"/>
<path d="M21 39h1v1h-1v-1z" fill="rgb(74,131,213)"/>
<path d="M22 39h2v1h-2v-1z" fill="rgb(0,49,82)"/>
<path d="M24 39h1v1h-1v-1z" fill="rgb(74,131,213)"/>
<path d="M25 39h1v1h-1v-1z" fill="rgb(106,172,246)"/>
<path d="M26 39h2v1h1v2h1v2h1v2h1v1h-1v1h-3v1h-1v1h-3v-1h-2v-2h1v-1h1v-1h-2v1h-2v-2h2v-1
	h2v-2h1v1h1v-1h1v-1h-1v-1z" fill="rgb(74,131,213)"/>
<path d="M30 39h1v2h-1v-2z" fill="rgb(0,49,82)"/>
<path d="M35 39h1v1h-1v-1z" fill="rgb(0,0,0)"/>
<path d="M36 39h1v1h-1v-1z" fill="rgb(90,57,24)"/>
<path d="M37 39h1v2h-2v-1h1v-1z" fill="rgb(189,41,57)"/>
<path d="M41 39h1v1h-1v-1z" fill="rgb(189,41,57)"/>
<path d="M43 39h1v1h-1v-1z" fill="rgb(74,131,213)"/>
<path d="M53 39h2v1h-2v-1z" fill="rgb(0,49,82)"/>
<path d="M62 39h1v1h-1v-1z" fill="rgb(74,131,213)"/>
<path d="M63 39h1v1h-1v-1z" fill="rgb(0,82,115)"/>
<path d="M64 39h1v1h-1v-1z" fill="rgb(0,0,0)"/>
<path d="M18 40h2v1h-2v-1z" fill="rgb(0,0,0)"/>
<path d="M20 40h2v1h-2v-1z" fill="rgb(0,49,82)"/>
<path d="M22 40h2v1h-1v1h-1v1h-2v1h-2v-2h2v-1h2v-1z" fill="rgb(74,131,213)"/>
<path d="M24 40h1v1h-1v-1z" fill="rgb(106,172,246)"/>
<path d="M25 40h1v1h-1v-1z" fill="rgb(74,131,213)"/>
<path d="M26 40h1v1h-1v-1z" fill="rgb(106,172,246)"/>
<path d="M34 40h1v2h-1v-2z" fill="rgb(0,0,0)"/>
<path d="M35 40h1v1h-1v-1z" fill="rgb(90,57,24)"/>
<path d="M38 40h1v1h-1v-1z" fill="rgb(139,106,82)"/>
<path d="M41 40h2v1h-2v-1z" fill="rgb(74,131,213)"/>
<path d="M51 40h2v1h-2v-1z" fill="rgb(0,49,82)"/>
<path d="M56 40h1v1h-1v-1z" fill="rgb(0,0,0)"/>
<path d="M57 40h1v1h-1v-1z" fill="rgb(0,82,115)"/>
<path d="M64 40h1v1h-1v-1z" fill="rgb(0,82,115)"/>
<path d="M65 40h3v1h-3v-1z" fill="rgb(0,49,82)"/>
<path d="M16 41h2v1h-2v-1z" fill="rgb(0,0,0)"/>
<path d="M18 41h2v1h-2v-1z" fill="rgb(0,49,82)"/>
<path d="M23 41h1v1h-1v-1z" fill="rgb(106,172,246)"/>
<path d="M25 41h1v1h-1v-1z" fill="rgb(106,172,246)"/>
<path d="M31 41h1v2h-1v-2z" fill="rgb(0,49,82)"/>
<path d="M35 41h3v1h-3v-1z" fill="rgb(180,148,115)"/>
<path d="M38 41h1v1h-1v-1z" fill="rgb(0,0,0)"/>
<path d="M45 41h1v3h-1v-3z" fill="rgb(0,0,0)"/>
<path d="M49 41h2v1h-2v-1z" fill="rgb(0,82,115)"/>
<path d="M55 41h1v1h-1v-1z" fill="rgb(0,49,82)"/>
<path d="M56 41h1v1h-1v-1z" fill="rgb(0,82,115)"/>
<path d="M68 41h3v1h-3v-1z" fill="rgb(0,49,82)"/>
<path d="M17 42h1v1h-1v-1z" fill="rgb(0,49,82)"/>
<path d="M22 42h2v1h-2v-1z" fill="rgb(0,49,82)"/>
<path d="M34 42h1v2h-1v-2z" fill="rgb(0,123,189)"/>
<path d="M35 42h3v1h-3v-1z" fill="rgb(0,0,0)"/>
<path d="M48 42h1v1h-1v-1z" fill="rgb(0,82,115)"/>
<path d="M52 42h3v1h-3v-1z" fill="rgb(0,49,82)"/>
<path d="M55 42h1v1h-1v-1z" fill="rgb(74,131,213)"/>
<path d="M65 42h6v1h1v1h-1v1h-3v-1h-1v-1h-2v-1z" fill="rgb(148,197,255)"/>
<path d="M71 42h1v1h-1v-1z" fill="rgb(0,49,82)"/>
<path d="M17 43h1v1h-1v-1z" fill="rgb(0,0,0)"/>
<path d="M20 43h2v1h-2v-1z" fill="rgb(0,49,82)"/>
<path d="M26 43h1v1h-1v-1z" fill="rgb(0,49,82)"/>
<path d="M32 43h1v2h-1v-2z" fill="rgb(0,49,82)"/>
<path d="M47 43h1v1h-1v-1z" fill="rgb(0,82,115)"/>
<path d="M50 43h1v1h-1v-1z" fill="rgb(0,49,82)"/>
<path d="M51 43h1v1h-1v-1z" fill="rgb(0,82,115)"/>
<path d="M52 43h3v1h-3v-1z" fill="rgb(74,131,213)"/>
<path d="M60 43h1v1h-1v-1z" fill="rgb(74,131,213)"/>
<path d="M61 43h1v1h-1v-1z" fill="rgb(0,0,0)"/>
<path d="M72 43h1v1h-1v-1z" fill="rgb(0,49,82)"/>
<path d="M18 44h1v1h-1v-1z" fill="rgb(0,0,0)"/>
<path d="M19 44h1v2h-1v-2z" fill="rgb(0,49,82)"/>
<path d="M24 44h2v1h-2v-1z" fill="rgb(0,49,82)"/>
<path d="M33 44h1v1h-1v-1z" fill="rgb(74,131,213)"/>
<path d="M34 44h1v2h1v-1h1v6h-1v3h-1v2h-1v1h-1v-3h-1v2h-1v2h-1v-2h-1v2h-1v-3h-1v-2h1v-2
	h1v-2h1v-1h1v-1h1v-1h1v-1h1v-1z" fill="rgb(205,230,255)"/>
<path d="M45 44h1v1h-1v-1z" fill="rgb(0,49,82)"/>
<path d="M46 44h1v1h-1v-1z" fill="rgb(0,82,115)"/>
<path d="M49 44h1v1h-1v-1z" fill="rgb(0,49,82)"/>
<path d="M50 44h1v1h-1v-1z" fill="rgb(0,82,115)"/>
<path d="M51 44h1v1h-1v-1z" fill="rgb(74,131,213)"/>
<path d="M62 44h1v1h-1v-1z" fill="rgb(0,49,82)"/>
<path d="M63 44h4v1h-4v-1z" fill="rgb(0,0,0)"/>
<path d="M67 44h1v1h-1v-1z" fill="rgb(74,131,213)"/>
<path d="M71 44h1v1h-1v-1z" fill="rgb(0,49,82)"/>
<path d="M22 45h1v1h-1v-1z" fill="rgb(0,0,0)"/>
<path d="M23 45h1v1h-1v-1z" fill="rgb(0,49,82)"/>
<path d="M32 45h1v1h-1v-1z" fill="rgb(74,131,213)"/>
<path d="M45 45h1v1h-1v-1z" fill="rgb(0,82,115)"/>
<path d="M48 45h1v1h-1v-1z" fill="rgb(0,49,82)"/>
<path d="M49 45h1v1h-1v-1z" fill="rgb(0,82,115)"/>
<path d="M50 45h1v1h-1v-1z" fill="rgb(74,131,213)"/>
<path d="M63 45h1v1h-1v-1z" fill="rgb(0,49,82)"/>
<path d="M67 45h4v1h-4v-1z" fill="rgb(0,0,0)"/>
<path d="M20 46h2v3h-1v-2h-1v-1z" fill="rgb(0,0,0)"/>
<path d="M22 46h1v1h-1v-1z" fill="rgb(0,49,82)"/>
<path d="M37 46h1v2h-1v-2z" fill="rgb(74,131,213)"/>
<path d="M44 46h1v1h-1v-1z" fill="rgb(0,82,115)"/>
<path d="M47 46h1v1h-1v-1z" fill="rgb(0,49,82)"/>
<path d="M48 46h1v1h-1v-1z" fill="rgb(0,82,115)"/>
<path d="M49 46h1v1h1v2h1v2h1v1h-2v-2h-1v-2h-1v2h-1v1h-3v-1h-1v2h-1v2h1v1h1v4h-1v-1h-4v1
	h-1v2h-1v6h1v2h-1v-1h-2v-1h-2v-3h1v-1h1v-1h1v-2h1v-2h1v-2h1v-2h1v-1h1v-2h1v-2
	h1v-1h2v-1h3v-1z" fill="rgb(74,131,213)"/>
<path d="M56 46h1v1h-1v-1z" fill="rgb(74,131,213)"/>
<path d="M59 46h5v1h2v1h1v1h-1v1h-2v-1h-2v-1h-2v-1h-1v-1z" fill="rgb(148,197,255)"/>
<path d="M64 46h2v1h-2v-1z" fill="rgb(0,49,82)"/>
<path d="M25 47h1v1h-1v-1z" fill="rgb(0,49,82)"/>
<path d="M53 47h1v1h-1v-1z" fill="rgb(74,131,213)"/>
<path d="M57 47h1v1h-1v-1z" fill="rgb(74,131,213)"/>
<path d="M58 47h1v1h-1v-1z" fill="rgb(0,49,82)"/>
<path d="M59 47h1v1h-1v-1z" fill="rgb(106,172,246)"/>
<path d="M66 47h1v1h-1v-1z" fill="rgb(0,49,82)"/>
<path d="M24 48h1v1h-1v-1z" fill="rgb(0,49,82)"/>
<path d="M28 48h1v1h-1v-1z" fill="rgb(0,49,82)"/>
<path d="M29 48h1v1h-1v-1z" fill="rgb(106,172,246)"/>
<path d="M37 48h1v3h1v5h-1v2h-1v-2h-1v4h-1v-2h-1v2h-1v2h-1v5h-1v-1h-1v-2h-1v-1h-1v-3h-1
	v-5h1v3h1v-2h1v2h1v-2h1v-2h1v3h1v-1h1v-2h1v-3h1v-3z" fill="rgb(148,197,255)"/>
<path d="M38 48h1v3h-1v-3z" fill="rgb(0,49,82)"/>
<path d="M49 48h1v2h1v1h-1v1h-1v-4z" fill="rgb(106,172,246)"/>
<path d="M53 48h1v1h-1v-1z" fill="rgb(0,49,82)"/>
<path d="M54 48h1v1h1v2h-1v-1h-1v-2z" fill="rgb(74,131,213)"/>
<path d="M58 48h1v1h-1v-1z" fill="rgb(74,131,213)"/>
<path d="M59 48h2v1h-2v-1z" fill="rgb(0,0,0)"/>
<path d="M61 48h1v2h-1v-2z" fill="rgb(0,49,82)"/>
<path d="M67 48h1v1h-1v-1z" fill="rgb(0,49,82)"/>
<path d="M22 49h2v1h-2v-1z" fill="rgb(0,0,0)"/>
<path d="M27 49h1v1h-1v-1z" fill="rgb(0,49,82)"/>
<path d="M28 49h1v2h-1v-2z" fill="rgb(106,172,246)"/>
<path d="M58 49h2v1h2v1h-1v1h-2v-1h-1v-2z" fill="rgb(148,197,255)"/>
<path d="M60 49h1v1h-1v-1z" fill="rgb(74,131,213)"/>
<path d="M62 49h2v1h-2v-1z" fill="rgb(0,0,0)"/>
<path d="M66 49h1v1h-1v-1z" fill="rgb(0,0,0)"/>
<path d="M24 50h1v1h-1v-1z" fill="rgb(0,0,0)"/>
<path d="M25 50h2v1h-2v-1z" fill="rgb(0,49,82)"/>
<path d="M27 50h1v1h-1v-1z" fill="rgb(74,131,213)"/>
<path d="M44 50h1v2h-1v-2z" fill="rgb(0,49,82)"/>
<path d="M48 50h1v2h-1v-2z" fill="rgb(0,82,115)"/>
<path d="M53 50h1v1h-1v-1z" fill="rgb(148,197,255)"/>
<path d="M54 50h1v1h-1v-1z" fill="rgb(106,172,246)"/>
<path d="M56 50h1v1h-1v-1z" fill="rgb(0,0,0)"/>
<path d="M62 50h1v1h-1v-1z" fill="rgb(0,49,82)"/>
<path d="M64 50h2v1h-2v-1z" fill="rgb(0,0,0)"/>
<path d="M27 51h1v2h-1v-2z" fill="rgb(106,172,246)"/>
<path d="M39 51h1v5h-1v-5z" fill="rgb(0,49,82)"/>
<path d="M45 51h1v3h-2v-2h1v-1z" fill="rgb(106,172,246)"/>
<path d="M46 51h1v4h-1v3h1v3h-1v-2h-1v-4h-1v-1h2v-3z" fill="rgb(0,49,82)"/>
<path d="M47 51h1v1h1v3h-2v-4z" fill="rgb(106,172,246)"/>
<path d="M50 51h1v1h1v2h-2v-3z" fill="rgb(148,197,255)"/>
<path d="M53 51h1v2h-1v-2z" fill="rgb(106,172,246)"/>
<path d="M54 51h2v1h1v2h-2v-1h-1v-2z" fill="rgb(148,197,255)"/>
<path d="M56 51h1v1h-1v-1z" fill="rgb(74,131,213)"/>
<path d="M57 51h1v1h-1v-1z" fill="rgb(0,0,0)"/>
<path d="M58 51h1v1h-1v-1z" fill="rgb(0,49,82)"/>
<path d="M61 51h1v1h-1v-1z" fill="rgb(0,49,82)"/>
<path d="M33 52h1v2h-1v-2z" fill="rgb(148,197,255)"/>
<path d="M43 52h1v2h-1v-2z" fill="rgb(0,49,82)"/>
<path d="M49 52h1v2h-1v-2z" fill="rgb(0,82,115)"/>
<path d="M52 52h1v1h1v1h-2v-2z" fill="rgb(0,49,82)"/>
<path d="M57 52h1v2h-1v-2z" fill="rgb(0,49,82)"/>
<path d="M59 52h2v1h-2v-1z" fill="rgb(0,0,0)"/>
<path d="M26 53h1v7h-1v-7z" fill="rgb(106,172,246)"/>
<path d="M54 53h1v1h-1v-1z" fill="rgb(0,0,0)"/>
<path d="M49 54h1v1h-1v-1z" fill="rgb(0,0,0)"/>
<path d="M50 54h2v1h-2v-1z" fill="rgb(0,49,82)"/>
<path d="M54 54h1v1h-1v-1z" fill="rgb(0,49,82)"/>
<path d="M55 54h2v1h-2v-1z" fill="rgb(0,0,0)"/>
<path d="M47 55h2v1h-2v-1z" fill="rgb(0,0,0)"/>
<path d="M36 56h1v4h-1v-4z" fill="rgb(106,172,246)"/>
<path d="M38 56h1v2h-1v-2z" fill="rgb(0,0,0)"/>
<path d="M32 57h1v1h-1v-1z" fill="rgb(205,230,255)"/>
<path d="M62 57h5v1h-5v-1z" fill="rgb(0,49,82)"/>
<path d="M34 58h1v2h-1v-2z" fill="rgb(106,172,246)"/>
<path d="M37 58h1v2h-1v-2z" fill="rgb(0,0,0)"/>
<path d="M40 58h1v1h-1v-1z" fill="rgb(0,82,115)"/>
<path d="M41 58h3v1h1v1h1v3h-1v1h-1v-1h-1v1h-1v1h-2v-1h-1v-3h1v-2h1v-1z" fill="rgb(106,172,246)"/>
<path d="M59 58h3v1h-3v-1z" fill="rgb(0,49,82)"/>
<path d="M62 58h5v1h-2v1h-1v1h-2v1h-2v1h-1v1h-2v1h-1v-1h-1v-1h1v-1h1v-1h1v-1h2v-1h2v-1z" fill="rgb(106,172,246)"/>
<path d="M67 58h1v1h-1v-1z" fill="rgb(0,49,82)"/>
<path d="M68 58h2v1h-2v-1z" fill="rgb(0,0,0)"/>
<path d="M39 59h1v2h-1v-2z" fill="rgb(0,82,115)"/>
<path d="M45 59h1v1h-1v-1z" fill="rgb(74,131,213)"/>
<path d="M57 59h2v1h-2v-1z" fill="rgb(0,49,82)"/>
<path d="M59 59h1v1h-1v-1z" fill="rgb(0,123,189)"/>
<path d="M65 59h5v1h-5v-1z" fill="rgb(0,123,189)"/>
<path d="M70 59h1v1h-1v-1z" fill="rgb(0,49,82)"/>
<path d="M71 59h1v1h-1v-1z" fill="rgb(0,0,0)"/>
<path d="M27 60h1v3h-1v-3z" fill="rgb(106,172,246)"/>
<path d="M33 60h1v2h-1v-2z" fill="rgb(106,172,246)"/>
<path d="M34 60h1v3h-1v1h-1v-2h1v-2z" fill="rgb(148,197,255)"/>
<path d="M35 60h1v2h-1v-2z" fill="rgb(106,172,246)"/>
<path d="M36 60h1v2h-1v-2z" fill="rgb(0,0,0)"/>
<path d="M55 60h2v1h-2v-1z" fill="rgb(0,49,82)"/>
<path d="M57 60h1v1h-1v-1z" fill="rgb(0,82,115)"/>
<path d="M64 60h1v1h-1v-1z" fill="rgb(0,123,189)"/>
<path d="M65 60h5v1h-5v-1z" fill="rgb(0,82,115)"/>
<path d="M70 60h2v1h-2v-1z" fill="rgb(0,123,189)"/>
<path d="M72 60h1v1h-1v-1z" fill="rgb(0,0,0)"/>
<path d="M38 61h1v3h-1v-3z" fill="rgb(0,82,115)"/>
<path d="M46 61h1v2h-1v-2z" fill="rgb(74,131,213)"/>
<path d="M47 61h1v7h-1v-7z" fill="rgb(0,0,0)"/>
<path d="M54 61h1v1h-1v-1z" fill="rgb(0,49,82)"/>
<path d="M55 61h1v1h-1v-1z" fill="rgb(106,172,246)"/>
<path d="M56 61h1v1h-1v-1z" fill="rgb(0,82,115)"/>
<path d="M62 61h3v1h-3v-1z" fill="rgb(0,82,115)"/>
<path d="M65 61h3v1h-2v1h-2v1h-1v1h-2v1h-2v1h-1v-2h1v-1h1v-1h2v-1h3v-1z" fill="rgb(106,172,246)"/>
<path d="M68 61h2v1h2v1h1v1h1v1h1v6h-1v-3h-1v-3h-1v-1h-6v1h-3v-1h1v-1h2v-1h2v-1z" fill="rgb(0,123,189)"/>
<path d="M70 61h2v1h-2v-1z" fill="rgb(0,82,115)"/>
<path d="M72 61h1v1h-1v-1z" fill="rgb(0,123,189)"/>
<path d="M73 61h1v1h-1v-1z" fill="rgb(0,49,82)"/>
<path d="M32 62h1v4h-1v-4z" fill="rgb(106,172,246)"/>
<path d="M35 62h1v1h-1v-1z" fill="rgb(0,0,0)"/>
<path d="M52 62h2v1h-2v-1z" fill="rgb(0,49,82)"/>
<path d="M54 62h1v1h-1v-1z" fill="rgb(106,172,246)"/>
<path d="M55 62h1v1h-1v-1z" fill="rgb(0,82,115)"/>
<path d="M60 62h1v1h-1v-1z" fill="rgb(0,82,115)"/>
<path d="M61 62h1v1h-1v-1z" fill="rgb(0,123,189)"/>
<path d="M72 62h1v1h-1v-1z" fill="rgb(0,82,115)"/>
<path d="M73 62h1v1h-1v-1z" fill="rgb(0,0,0)"/>
<path d="M28 63h1v1h-1v-1z" fill="rgb(106,172,246)"/>
<path d="M34 63h1v1h-1v-1z" fill="rgb(0,0,0)"/>
<path d="M43 63h1v1h-1v-1z" fill="rgb(74,131,213)"/>
<path d="M45 63h1v1h-1v-1z" fill="rgb(74,131,213)"/>
<path d="M46 63h1v1h-1v-1z" fill="rgb(106,172,246)"/>
<path d="M51 63h1v1h-1v-1z" fill="rgb(0,49,82)"/>
<path d="M52 63h1v1h-1v-1z" fill="rgb(106,172,246)"/>
<path d="M53 63h1v1h-1v-1z" fill="rgb(0,123,189)"/>
<path d="M54 63h1v1h-1v-1z" fill="rgb(0,82,115)"/>
<path d="M59 63h1v1h-1v-1z" fill="rgb(0,123,189)"/>
<path d="M73 63h1v1h-1v-1z" fill="rgb(0,82,115)"/>
<path d="M74 63h1v1h-1v-1z" fill="rgb(0,49,82)"/>
<path d="M20 64h5v1h-5v-1z" fill="rgb(0,82,115)"/>
<path d="M28 64h1v2h-1v-2z" fill="rgb(0,49,82)"/>
<path d="M29 64h1v2h-1v-2z" fill="rgb(106,172,246)"/>
<path d="M33 64h1v2h-1v-2z" fill="rgb(0,0,0)"/>
<path d="M38 64h1v3h-1v-3z" fill="rgb(0,49,82)"/>
<path d="M39 64h1v1h2v-1h1v1h1v1h1v-1h1v-1h1v4h-1v3h-1v1h-1v-1h-1v1h-1v-2h-1v-1h-1v-2h-1
	v-3z" fill="rgb(74,131,213)"/>
<path d="M43 64h1v1h-1v-1z" fill="rgb(106,172,246)"/>
<path d="M44 64h1v1h-1v-1z" fill="rgb(74,131,213)"/>
<path d="M45 64h1v1h-1v-1z" fill="rgb(106,172,246)"/>
<path d="M50 64h1v2h-2v-1h1v-1z" fill="rgb(0,49,82)"/>
<path d="M51 64h1v1h-1v-1z" fill="rgb(0,123,189)"/>
<path d="M52 64h2v1h-2v-1z" fill="rgb(0,82,115)"/>
<path d="M54 64h1v1h-1v-1z" fill="rgb(106,172,246)"/>
<path d="M55 64h1v1h1v1h-2v1h-2v1h-3v-1h1v-1h1v-1h3v-1z" fill="rgb(0,123,189)"/>
<path d="M57 64h1v1h-1v-1z" fill="rgb(0,123,189)"/>
<path d="M58 64h1v1h-1v-1z" fill="rgb(0,82,115)"/>
<path d="M66 64h5v1h-5v-1z" fill="rgb(0,0,0)"/>
<path d="M71 64h1v1h-1v-1z" fill="rgb(0,82,115)"/>
<path d="M74 64h1v1h-1v-1z" fill="rgb(0,0,0)"/>
<path d="M17 65h3v1h-3v-1z" fill="rgb(0,82,115)"/>
<path d="M20 65h5v1h4v2h-2v-1h-8v-1h1v-1z" fill="rgb(0,123,189)"/>
<path d="M25 65h3v1h-3v-1z" fill="rgb(0,82,115)"/>
<path d="M44 65h1v1h-1v-1z" fill="rgb(106,172,246)"/>
<path d="M51 65h1v1h-1v-1z" fill="rgb(0,82,115)"/>
<path d="M57 65h1v1h-1v-1z" fill="rgb(0,82,115)"/>
<path d="M61 65h2v1h-2v-1z" fill="rgb(0,123,189)"/>
<path d="M63 65h3v1h-3v-1z" fill="rgb(0,0,0)"/>
<path d="M66 65h1v4h-1v2h-2v-1h1v-2h1v-3z" fill="rgb(0,82,115)"/>
<path d="M67 65h1v4h-1v-4z" fill="rgb(0,49,82)"/>
<path d="M68 65h3v5h-1v3h-1v2h-1v1h-2v-2h-1v-1h1v-2h1v-2h1v-4z" fill="rgb(0,82,115)"/>
<path d="M71 65h1v1h-1v-1z" fill="rgb(0,0,0)"/>
<path d="M72 65h1v1h-1v-1z" fill="rgb(0,82,115)"/>
<path d="M75 65h1v6h-1v-6z" fill="rgb(0,0,0)"/>
<path d="M15 66h2v1h-2v-1z" fill="rgb(0,82,115)"/>
<path d="M17 66h2v2h-2v-2z" fill="rgb(106,172,246)"/>
<path d="M29 66h1v1h-1v-1z" fill="rgb(0,49,82)"/>
<path d="M30 66h1v1h-1v-1z" fill="rgb(106,172,246)"/>
<path d="M32 66h1v4h-2v-1h1v-3z" fill="rgb(0,0,0)"/>
<path d="M33 66h1v1h-1v-1z" fill="rgb(0,49,82)"/>
<path d="M48 66h1v1h-1v-1z" fill="rgb(0,49,82)"/>
<path d="M49 66h2v1h-1v1h3v1h-2v1h2v1h-5v1h-1v-4h1v-1h1v-1z" fill="rgb(0,82,115)"/>
<path d="M55 66h2v1h-2v-1z" fill="rgb(0,82,115)"/>
<path d="M57 66h1v1h1v-1h2v1h-1v1h-2v1h-4v1h-3v-1h2v-1h2v-1h2v-1z" fill="rgb(0,123,189)"/>
<path d="M61 66h2v1h-2v-1z" fill="rgb(0,0,0)"/>
<path d="M63 66h2v2h-1v2h-1v1h-1v1h-3v1h-4v1h-8v-2h6v-1h3v-1h2v-1h2v-1h1v-1h2v-1z" fill="transparent"/>
<path d="M65 66h1v2h-1v-2z" fill="rgb(0,49,82)"/>
<path d="M71 66h1v4h-1v-4z" fill="rgb(0,49,82)"/>
<path d="M72 66h1v2h-1v-2z" fill="rgb(0,0,0)"/>
<path d="M14 67h1v1h-1v-1z" fill="rgb(0,49,82)"/>
<path d="M15 67h2v1h-1v2h-1v1h-1v2h-1v-3h1v-2h1v-1z" fill="rgb(0,123,189)"/>
<path d="M19 67h1v1h-1v-1z" fill="rgb(0,49,82)"/>
<path d="M20 67h7v1h-6v1h-3v-1h2v-1z" fill="rgb(0,82,115)"/>
<path d="M29 67h1v1h-1v-1z" fill="rgb(0,0,0)"/>
<path d="M30 67h1v1h-1v-1z" fill="rgb(74,131,213)"/>
<path d="M31 67h1v2h-1v-2z" fill="rgb(106,172,246)"/>
<path d="M33 67h1v1h2v1h1v2h-1v-1h-1v1h-1v-1h-1v-3z" fill="rgb(74,131,213)"/>
<path d="M34 67h2v1h-2v-1z" fill="rgb(0,49,82)"/>
<path d="M39 67h1v2h1v1h-3v-1h1v-2z" fill="rgb(0,0,0)"/>
<path d="M53 67h2v1h-2v-1z" fill="rgb(0,82,115)"/>
<path d="M60 67h1v1h-1v-1z" fill="rgb(0,0,0)"/>
<path d="M13 68h1v2h-1v-2z" fill="rgb(0,49,82)"/>
<path d="M16 68h1v1h-1v-1z" fill="rgb(106,172,246)"/>
<path d="M17 68h1v1h-1v-1z" fill="rgb(0,49,82)"/>
<path d="M21 68h4v1h-4v-1z" fill="rgb(0,0,0)"/>
<path d="M25 68h2v1h-2v-1z" fill="rgb(0,123,189)"/>
<path d="M27 68h2v1h-2v-1z" fill="rgb(0,82,115)"/>
<path d="M29 68h1v1h-1v-1z" fill="rgb(0,123,189)"/>
<path d="M30 68h1v1h-1v-1z" fill="rgb(0,0,0)"/>
<path d="M36 68h2v1h-2v-1z" fill="rgb(0,0,0)"/>
<path d="M46 68h1v3h-1v-3z" fill="rgb(0,49,82)"/>
<path d="M58 68h2v1h-2v-1z" fill="rgb(0,0,0)"/>
<path d="M64 68h1v2h-1v-2z" fill="rgb(0,49,82)"/>
<path d="M72 68h1v2h1v4h-1v2h-1v1h-1v1h-4v-1h1v-1h1v-1h1v-2h1v-3h1v-2z" fill="rgb(0,82,115)"/>
<path d="M73 68h1v2h-1v-2z" fill="rgb(0,49,82)"/>
<path d="M16 69h1v1h-1v-1z" fill="rgb(0,49,82)"/>
<path d="M17 69h1v1h-1v-1z" fill="rgb(0,82,115)"/>
<path d="M18 69h3v1h-3v-1z" fill="rgb(0,0,0)"/>
<path d="M25 69h2v1h-2v-1z" fill="rgb(0,0,0)"/>
<path d="M27 69h2v1h-2v-1z" fill="rgb(0,123,189)"/>
<path d="M29 69h2v1h-2v-1z" fill="rgb(0,82,115)"/>
<path d="M37 69h1v1h-1v-1z" fill="rgb(0,82,115)"/>
<path d="M54 69h2v1h-2v-1z" fill="rgb(0,82,115)"/>
<path d="M56 69h2v1h-2v-1z" fill="rgb(0,0,0)"/>
<path d="M66 69h1v2h-1v-2z" fill="rgb(0,49,82)"/>
<path d="M12 70h1v3h-1v-3z" fill="rgb(0,49,82)"/>
<path d="M15 70h1v1h-1v-1z" fill="rgb(0,49,82)"/>
<path d="M16 70h1v1h-1v-1z" fill="rgb(0,82,115)"/>
<path d="M17 70h1v1h-1v-1z" fill="rgb(0,0,0)"/>
<path d="M27 70h2v1h-2v-1z" fill="rgb(0,0,0)"/>
<path d="M29 70h2v1h1v1h1v2h-1v-1h-1v-1h-1v-1h-1v-1z" fill="rgb(0,123,189)"/>
<path d="M31 70h1v1h-1v-1z" fill="rgb(0,49,82)"/>
<path d="M32 70h1v1h-1v-1z" fill="rgb(74,131,213)"/>
<path d="M33 70h1v1h-1v-1z" fill="rgb(0,49,82)"/>
<path d="M35 70h1v1h-1v-1z" fill="rgb(0,49,82)"/>
<path d="M37 70h1v1h-1v-1z" fill="rgb(0,0,0)"/>
<path d="M38 70h3v1h-3v-1z" fill="transparent"/>
<path d="M41 70h1v2h-1v-2z" fill="rgb(0,0,0)"/>
<path d="M53 70h3v1h-3v-1z" fill="rgb(0,0,0)"/>
<path d="M63 70h1v1h-1v-1z" fill="rgb(0,49,82)"/>
<path d="M70 70h1v3h-1v-3z" fill="rgb(0,49,82)"/>
<path d="M14 71h1v2h-1v-2z" fill="rgb(0,49,82)"/>
<path d="M15 71h1v2h-1v-2z" fill="rgb(0,82,115)"/>
<path d="M16 71h1v2h-1v-2z" fill="rgb(0,0,0)"/>
<path d="M29 71h1v1h-1v-1z" fill="rgb(0,0,0)"/>
<path d="M32 71h1v1h-1v-1z" fill="rgb(0,49,82)"/>
<path d="M33 71h1v1h-1v-1z" fill="rgb(139,106,82)"/>
<path d="M34 71h1v1h-1v-1z" fill="rgb(0,49,82)"/>
<path d="M35 71h1v3h-1v6h-2v1h-1v1h-1v-2h1v-1h1v-1h1v-6h1v-1z" fill="rgb(139,106,82)"/>
<path d="M36 71h1v3h-1v-3z" fill="rgb(0,0,0)"/>
<path d="M37 71h1v2h1v1h2v1h1v2h-1v-1h-2v-1h-1v-1h-1v-3z" fill="rgb(0,123,189)"/>
<path d="M38 71h3v1h-3v-1z" fill="rgb(0,49,82)"/>
<path d="M43 71h1v1h-1v-1z" fill="rgb(0,49,82)"/>
<path d="M45 71h1v1h1v3h-1v-2h-1v-2z" fill="rgb(0,0,0)"/>
<path d="M46 71h1v1h-1v-1z" fill="transparent"/>
<path d="M48 71h5v1h-5v-1z" fill="rgb(0,0,0)"/>
<path d="M62 71h1v1h-1v-1z" fill="rgb(0,49,82)"/>
<path d="M63 71h1v1h-1v-1z" fill="rgb(0,82,115)"/>
<path d="M64 71h1v1h-1v-1z" fill="rgb(0,123,189)"/>
<path d="M65 71h1v2h-1v-2z" fill="rgb(0,49,82)"/>
<path d="M74 71h1v3h-1v-3z" fill="rgb(0,0,0)"/>
<path d="M30 72h1v1h-1v-1z" fill="rgb(0,0,0)"/>
<path d="M33 72h1v4h-1v-4z" fill="rgb(90,57,24)"/>
<path d="M38 72h1v1h-1v-1z" fill="rgb(0,82,115)"/>
<path d="M39 72h2v1h-2v-1z" fill="rgb(0,123,189)"/>
<path d="M41 72h2v1h-2v-1z" fill="rgb(0,49,82)"/>
<path d="M43 72h1v3h-1v-3z" fill="rgb(90,57,24)"/>
<path d="M44 72h1v1h-1v-1z" fill="rgb(0,49,82)"/>
<path d="M59 72h3v1h-3v-1z" fill="rgb(0,49,82)"/>
<path d="M62 72h2v2h-1v1h-2v1h-4v1h-7v-1h-3v-1h8v-1h4v-1h3v-1z" fill="rgb(0,123,189)"/>
<path d="M64 72h1v1h-1v-1z" fill="rgb(0,82,115)"/>
<path d="M13 73h1v3h-1v-3z" fill="rgb(0,49,82)"/>
<path d="M14 73h1v3h-1v-3z" fill="rgb(0,82,115)"/>
<path d="M15 73h1v3h-1v-3z" fill="rgb(0,0,0)"/>
<path d="M31 73h1v1h-1v-1z" fill="rgb(0,0,0)"/>
<path d="M39 73h2v1h-2v-1z" fill="rgb(0,82,115)"/>
<path d="M41 73h2v1h-2v-1z" fill="rgb(0,123,189)"/>
<path d="M44 73h2v2h-1v2h-1v1h1v3h-2v-1h-1v-3h1v-2h1v-2z" fill="rgb(139,106,82)"/>
<path d="M55 73h4v1h-4v-1z" fill="rgb(0,49,82)"/>
<path d="M64 73h1v1h-1v-1z" fill="rgb(0,49,82)"/>
<path d="M69 73h1v2h-1v-2z" fill="rgb(0,49,82)"/>
<path d="M32 74h1v1h-1v-1z" fill="rgb(0,0,0)"/>
<path d="M35 74h1v2h-1v-2z" fill="rgb(90,57,24)"/>
<path d="M36 74h2v1h-2v-1z" fill="rgb(0,82,115)"/>
<path d="M41 74h2v1h-2v-1z" fill="rgb(0,82,115)"/>
<path d="M47 74h8v1h-8v-1z" fill="rgb(0,49,82)"/>
<path d="M63 74h1v1h-1v-1z" fill="rgb(0,82,115)"/>
<path d="M64 74h2v3h-1v1h-2v1h-4v1h-8v-1h-4v-1h-2v-1h1v-1h1v1h3v1h7v-1h4v-1h2v-1h1v-1z" fill="rgb(0,123,189)"/>
<path d="M73 74h1v2h-1v-2z" fill="rgb(0,0,0)"/>
<path d="M36 75h2v1h1v1h2v2h-1v-1h-2v-1h-2v-2z" fill="rgb(0,123,189)"/>
<path d="M38 75h1v1h-1v-1z" fill="rgb(0,82,115)"/>
<path d="M42 75h1v2h-1v-2z" fill="rgb(90,57,24)"/>
<path d="M45 75h1v2h-1v-2z" fill="rgb(0,0,0)"/>
<path d="M46 75h1v1h-1v-1z" fill="rgb(0,82,115)"/>
<path d="M61 75h2v1h-2v-1z" fill="rgb(0,82,115)"/>
<path d="M68 75h1v1h-1v-1z" fill="rgb(0,49,82)"/>
<path d="M14 76h2v1h-2v-1z" fill="rgb(0,49,82)"/>
<path d="M16 76h1v1h-1v-1z" fill="rgb(0,0,0)"/>
<path d="M32 76h1v1h-1v-1z" fill="rgb(90,57,24)"/>
<path d="M33 76h1v2h-1v1h-1v1h-2v1h-2v1h-1v-2h2v-1h1v-1h2v-1h1v-1z" fill="rgb(180,148,115)"/>
<path d="M35 76h1v1h-1v-1z" fill="rgb(0,0,0)"/>
<path d="M39 76h2v1h-2v-1z" fill="rgb(0,82,115)"/>
<path d="M47 76h3v1h-3v-1z" fill="rgb(0,82,115)"/>
<path d="M57 76h4v1h-4v-1z" fill="rgb(0,82,115)"/>
<path d="M66 76h2v1h-2v-1z" fill="rgb(0,49,82)"/>
<path d="M72 76h1v1h-1v-1z" fill="rgb(0,0,0)"/>
<path d="M16 77h1v1h-1v-1z" fill="rgb(0,49,82)"/>
<path d="M17 77h1v1h-1v-1z" fill="rgb(0,0,0)"/>
<path d="M30 77h2v1h-2v-1z" fill="rgb(90,57,24)"/>
<path d="M35 77h1v1h-1v-1z" fill="rgb(82,82,82)"/>
<path d="M36 77h2v1h-1v2h-2v-1h1v-2z" fill="rgb(0,0,0)"/>
<path d="M41 77h1v3h-1v-3z" fill="rgb(90,57,24)"/>
<path d="M44 77h1v1h-1v-1z" fill="rgb(0,0,0)"/>
<path d="M50 77h7v1h-7v-1z" fill="rgb(0,82,115)"/>
<path d="M65 77h1v1h-1v-1z" fill="rgb(0,82,115)"/>
<path d="M66 77h1v1h2v1h-2v1h-3v1h-4v1h-11v-1h-2v-1h4v1h8v-1h4v-1h2v-1h1v-1z" fill="rgb(0,123,189)"/>
<path d="M71 77h1v1h-1v-1z" fill="rgb(0,0,0)"/>
<path d="M28 78h2v1h-2v-1z" fill="rgb(90,57,24)"/>
<path d="M35 78h1v1h-1v-1z" fill="rgb(205,205,205)"/>
<path d="M38 78h2v1h-2v-1z" fill="rgb(0,0,0)"/>
<path d="M45 78h1v2h-1v-2z" fill="rgb(0,0,0)"/>
<path d="M46 78h1v1h-1v-1z" fill="rgb(0,82,115)"/>
<path d="M63 78h2v1h-2v-1z" fill="rgb(0,82,115)"/>
<path d="M69 78h2v1h-2v-1z" fill="rgb(0,0,0)"/>
<path d="M25 79h1v1h-1v-1z" fill="rgb(82,82,82)"/>
<path d="M26 79h2v1h-2v-1z" fill="rgb(90,57,24)"/>
<path d="M28 79h1v1h-1v-1z" fill="rgb(139,106,82)"/>
<path d="M40 79h1v1h-1v-1z" fill="rgb(0,0,0)"/>
<path d="M46 79h1v1h-1v-1z" fill="rgb(0,123,189)"/>
<path d="M47 79h4v1h-4v-1z" fill="rgb(0,82,115)"/>
<path d="M59 79h4v1h-4v-1z" fill="rgb(0,82,115)"/>
<path d="M67 79h2v1h-2v-1z" fill="rgb(0,0,0)"/>
<path d="M24 80h1v1h-1v-1z" fill="rgb(82,82,82)"/>
<path d="M25 80h1v1h-1v-1z" fill="rgb(255,255,255)"/>
<path d="M26 80h1v1h-1v-1z" fill="rgb(82,82,82)"/>
<path d="M30 80h1v1h-1v-1z" fill="rgb(90,57,24)"/>
<path d="M33 80h2v1h-2v-1z" fill="rgb(0,0,0)"/>
<path d="M39 80h2v1h-2v-1z" fill="rgb(90,57,24)"/>
<path d="M41 80h2v1h1v2h-1v-1h-1v1h-1v-1h-1v-1h1v-1z" fill="rgb(180,148,115)"/>
<path d="M45 80h1v1h-1v-1z" fill="rgb(205,205,205)"/>
<path d="M46 80h1v1h2v1h-4v-1h1v-1z" fill="rgb(0,0,0)"/>
<path d="M51 80h8v1h-8v-1z" fill="rgb(0,82,115)"/>
<path d="M64 80h3v1h-3v-1z" fill="rgb(0,0,0)"/>
<path d="M24 81h1v1h-1v-1z" fill="rgb(0,0,0)"/>
<path d="M25 81h1v1h-1v-1z" fill="rgb(82,82,82)"/>
<path d="M26 81h1v1h-1v-1z" fill="rgb(255,255,255)"/>
<path d="M28 81h2v1h-2v-1z" fill="rgb(90,57,24)"/>
<path d="M30 81h1v1h-1v-1z" fill="rgb(180,148,115)"/>
<path d="M32 81h1v1h-1v-1z" fill="rgb(0,0,0)"/>
<path d="M37 81h2v1h-2v-1z" fill="rgb(90,57,24)"/>
<path d="M39 81h1v2h-2v-1h1v-1z" fill="rgb(139,106,82)"/>
<path d="M44 81h1v2h-1v-2z" fill="rgb(90,57,24)"/>
<path d="M60 81h4v1h-4v-1z" fill="rgb(0,0,0)"/>
<path d="M25 82h3v1h-3v-1z" fill="rgb(0,0,0)"/>
<path d="M29 82h1v1h1v1h-2v-2z" fill="rgb(0,0,0)"/>
<path d="M30 82h1v1h-1v-1z" fill="rgb(255,255,255)"/>
<path d="M31 82h1v1h-1v-1z" fill="rgb(0,0,0)"/>
<path d="M36 82h1v1h-1v-1z" fill="rgb(82,82,82)"/>
<path d="M37 82h1v1h-1v-1z" fill="rgb(180,148,115)"/>
<path d="M40 82h1v1h-1v-1z" fill="rgb(90,57,24)"/>
<path d="M42 82h1v1h-1v-1z" fill="rgb(139,106,82)"/>
<path d="M49 82h11v1h-11v-1z" fill="rgb(0,0,0)"/>
<path d="M35 83h1v1h-1v-1z" fill="rgb(82,82,82)"/>
<path d="M36 83h1v1h-1v-1z" fill="rgb(255,255,255)"/>
<path d="M37 83h2v1h-2v-1z" fill="rgb(0,0,0)"/>
<path d="M39 83h1v1h-1v-1z" fill="rgb(90,57,24)"/>
<path d="M40 83h2v1h-1v1h-1v-2z" fill="rgb(139,106,82)"/>
<path d="M42 83h1v2h-1v-2z" fill="rgb(90,57,24)"/>
<path d="M43 83h1v1h-1v-1z" fill="rgb(139,106,82)"/>
<path d="M44 83h1v4h-1v-4z" fill="rgb(0,0,0)"/>
<path d="M35 84h2v1h-2v-1z" fill="rgb(0,0,0)"/>
<path d="M38 84h1v1h-1v-1z" fill="rgb(90,57,24)"/>
<path d="M39 84h1v1h-1v-1z" fill="rgb(180,148,115)"/>
<path d="M41 84h1v1h-1v-1z" fill="rgb(0,0,0)"/>
<path d="M43 84h1v1h-1v-1z" fill="rgb(180,148,115)"/>
<path d="M38 85h1v1h-1v-1z" fill="rgb(82,82,82)"/>
<path d="M39 85h1v1h-1v-1z" fill="rgb(255,255,255)"/>
<path d="M40 85h1v1h-1v-1z" fill="rgb(0,0,0)"/>
<path d="M42 85h1v1h-1v-1z" fill="rgb(82,82,82)"/>
<path d="M43 85h1v1h-1v-1z" fill="rgb(255,255,255)"/>
<path d="M38 86h2v1h-2v-1z" fill="rgb(0,0,0)"/>
<path d="M43 86h1v1h-1v-1z" fill="rgb(82,82,82)"/>
</svg>
