<?xml version="1.0" encoding="utf-8"?>
<!-- generated at drububu.com  -->
<!DOCTYPE svg PUBLIC "-//W3C//DTD SVG 1.1//EN" "http://www.w3.org/Graphics/SVG/1.1/DTD/svg11.dtd">
<svg version="1.1" preserveAspectRatio="xMinYMin meet" xmlns="http://www.w3.org/2000/svg" xmlns:xlink="http://www.w3.org/1999/xlink" x="0px" y="0px" width="96px" height="96px" viewBox="0 0 96 96">
<path d="M0 0h96v96h-96v-96z" fill="transparent"/>
<path d="M30 20h1v1h-1v-1z" fill="rgb(82,57,16)"/>
<path d="M41 20h1v1h-1v-1z" fill="rgb(82,57,16)"/>
<path d="M3 21h2v1h-2v-1z" fill="rgb(156,123,16)"/>
<path d="M29 21h1v1h-1v-1z" fill="rgb(82,57,16)"/>
<path d="M30 21h1v2h1v2h1v4h1v4h1v-1h1v-2h1v-1h1v-1h1v-3h1v-2h1v-2h1v3h-1v5h-1v3h-1v2h2
	v-1h1v-1h1v-1h1v2h-1v2h2v-1h2v-1h2v1h-1v1h-1v1h-1v1h-1v1h-1v1h-1v1h-1v1h-2v1h-1
	v-3h1v-4h-2v1h-1v1h-1v2h-2v1h-1v-2h-1v-2h-1v4h1v2h-1v-1h-1v-2h-1v-2h-2v-1h-1
	v-1h3v1h1v-2h1v1h2v-2h-1v-4h-1v-4h-1v-4z" fill="rgb(255,213,65)"/>
<path d="M31 21h1v2h-1v-2z" fill="rgb(82,57,16)"/>
<path d="M40 21h1v2h-1v-2z" fill="rgb(82,57,16)"/>
<path d="M42 21h1v4h-1v-4z" fill="rgb(82,57,16)"/>
<path d="M3 22h1v1h-1v-1z" fill="rgb(16,16,16)"/>
<path d="M4 22h1v1h-1v-1z" fill="rgb(255,213,65)"/>
<path d="M5 22h2v1h-2v-1z" fill="rgb(156,123,16)"/>
<path d="M29 22h1v3h-1v-3z" fill="rgb(16,16,16)"/>
<path d="M4 23h1v2h-1v-2z" fill="rgb(16,16,16)"/>
<path d="M5 23h2v1h1v1h2v1h2v1h1v1h2v1h2v1h1v1h2v1h1v1h1v1h1v-1h-1v-2h-1v-3h1v1h1v1h1v1
	h1v1h1v3h-1v1h1v1h1v1h1v1h1v1h-1v2h-1v1h-1v1h-1v-1h-1v-1h-2v-1h-1v-1h-1v-1h-1
	v-1h-1v-1h-2v-1h-1v-1h-1v-1h-1v-1h-1v-1h-1v-1h-2v-1h-1v-2h-1v-2h-1v-1h-1v-2z" fill="rgb(255,213,65)"/>
<path d="M7 23h1v1h-1v-1z" fill="rgb(156,123,16)"/>
<path d="M32 23h1v2h-1v-2z" fill="rgb(82,57,16)"/>
<path d="M39 23h1v2h-1v-2z" fill="rgb(82,57,16)"/>
<path d="M87 23h2v1h-2v-1z" fill="rgb(82,57,16)"/>
<path d="M8 24h2v1h-2v-1z" fill="rgb(156,123,16)"/>
<path d="M41 24h1v1h-1v-1z" fill="rgb(213,172,8)"/>
<path d="M85 24h2v1h-2v-1z" fill="rgb(82,57,16)"/>
<path d="M87 24h2v1h-1v1h-1v1h-1v1h-1v1h-1v1h-1v1h-1v1h-1v1h-2v1h-2v1h-2v1h-2v1h-2v1h-1
	v1h-3v1h-2v1h-1v1h-2v-1h1v-2h1v-1h1v-2h-2v1h-1v1h-2v1h-1v1h-2v1h-1v1h-2v1h-1v1
	h-2v1h-2v-1h-1v-1h-1v-1h-1v-1h-1v-1h-1v-1h1v-1h1v-1h2v-1h2v-1h2v-1h2v-1h2v-1h2
	v-1h2v-1h2v-1h2v-1h2v1h-1v2h-1v3h2v-1h2v-1h3v-1h2v-1h3v-1h2v-1h2v-1h3v-1h2v-1h2
	v-1z" fill="rgb(255,213,65)"/>
<path d="M89 24h1v1h-1v-1z" fill="rgb(82,57,16)"/>
<path d="M5 25h1v1h-1v-1z" fill="rgb(16,16,16)"/>
<path d="M10 25h2v1h-2v-1z" fill="rgb(156,123,16)"/>
<path d="M20 25h1v1h1v1h-2v-2z" fill="rgb(16,16,16)"/>
<path d="M30 25h1v4h-1v-4z" fill="rgb(16,16,16)"/>
<path d="M33 25h1v3h-1v-3z" fill="rgb(82,57,16)"/>
<path d="M38 25h1v2h-1v-2z" fill="rgb(82,57,16)"/>
<path d="M41 25h1v5h-1v-5z" fill="rgb(16,16,16)"/>
<path d="M76 25h1v3h-1v1h-3v1h-2v1h-3v-1h1v-1h2v-1h1v-1h2v-1h2v-1z" fill="rgb(16,16,16)"/>
<path d="M83 25h2v1h-2v-1z" fill="rgb(82,57,16)"/>
<path d="M88 25h1v1h-1v-1z" fill="rgb(82,57,16)"/>
<path d="M6 26h1v2h-1v-2z" fill="rgb(16,16,16)"/>
<path d="M12 26h1v1h-1v-1z" fill="rgb(156,123,16)"/>
<path d="M13 26h1v1h-1v-1z" fill="rgb(82,57,16)"/>
<path d="M65 26h2v1h-1v1h-2v-1h1v-1z" fill="rgb(156,123,16)"/>
<path d="M80 26h3v1h-3v-1z" fill="rgb(82,57,16)"/>
<path d="M87 26h1v1h-1v-1z" fill="rgb(82,57,16)"/>
<path d="M13 27h1v1h-1v-1z" fill="rgb(156,123,16)"/>
<path d="M14 27h1v1h-1v-1z" fill="rgb(82,57,16)"/>
<path d="M20 27h2v1h-2v-1z" fill="rgb(156,123,16)"/>
<path d="M22 27h1v1h-1v-1z" fill="rgb(16,16,16)"/>
<path d="M37 27h1v2h-1v-2z" fill="rgb(82,57,16)"/>
<path d="M38 27h1v1h-1v-1z" fill="rgb(213,172,8)"/>
<path d="M66 27h1v1h-1v-1z" fill="rgb(82,57,16)"/>
<path d="M78 27h2v1h-2v-1z" fill="rgb(82,57,16)"/>
<path d="M86 27h1v1h-1v-1z" fill="rgb(82,57,16)"/>
<path d="M7 28h1v2h-1v-2z" fill="rgb(16,16,16)"/>
<path d="M15 28h2v1h-2v-1z" fill="rgb(82,57,16)"/>
<path d="M20 28h1v3h1v1h-2v-1h-1v-1h1v-2z" fill="rgb(16,16,16)"/>
<path d="M22 28h1v1h-1v-1z" fill="rgb(156,123,16)"/>
<path d="M23 28h1v1h-1v-1z" fill="rgb(16,16,16)"/>
<path d="M33 28h1v1h-1v-1z" fill="rgb(213,172,8)"/>
<path d="M34 28h1v2h-1v-2z" fill="rgb(82,57,16)"/>
<path d="M62 28h2v1h-2v-1z" fill="rgb(156,123,16)"/>
<path d="M76 28h2v1h-2v-1z" fill="rgb(82,57,16)"/>
<path d="M85 28h1v1h-1v-1z" fill="rgb(82,57,16)"/>
<path d="M17 29h1v1h-1v-1z" fill="rgb(82,57,16)"/>
<path d="M23 29h1v1h-1v-1z" fill="rgb(156,123,16)"/>
<path d="M24 29h2v1h1v1h2v4h-3v-1h2v-1h-1v-1h-1v-1h-1v-1h-1v-1z" fill="rgb(16,16,16)"/>
<path d="M28 29h1v1h-1v-1z" fill="rgb(156,123,16)"/>
<path d="M31 29h1v6h-1v-3h-1v-1h1v-2z" fill="rgb(82,57,16)"/>
<path d="M36 29h1v1h-1v-1z" fill="rgb(82,57,16)"/>
<path d="M40 29h1v1h-1v-1z" fill="rgb(213,172,8)"/>
<path d="M44 29h2v1h-2v-1z" fill="rgb(82,57,16)"/>
<path d="M60 29h2v1h-2v-1z" fill="rgb(156,123,16)"/>
<path d="M65 29h1v2h-1v-2z" fill="rgb(156,123,16)"/>
<path d="M73 29h3v1h-3v-1z" fill="rgb(82,57,16)"/>
<path d="M84 29h1v1h-1v-1z" fill="rgb(82,57,16)"/>
<path d="M91 29h3v1h-1v1h-1v1h-1v1h-1v1h-1v1h-2v1h-1v1h-1v1h-1v1h-2v1h-1v1h-1v1h-2v1h-4
	v-1h1v-1h1v-1h1v-1h1v-2h1v-1h1v-1h1v-1h1v-1h1v-1h2v-1h3v-1h3v-1z" fill="rgb(16,16,16)"/>
<path d="M8 30h1v1h1v2h1v1h1v1h1v2h-1v-1h-1v-1h-2v-1h-1v-1h-1v-1h-1v-1h2v-1z" fill="rgb(16,16,16)"/>
<path d="M18 30h1v1h-1v-1z" fill="rgb(82,57,16)"/>
<path d="M24 30h1v1h-1v-1z" fill="rgb(156,123,16)"/>
<path d="M28 30h2v1h-2v-1z" fill="rgb(82,57,16)"/>
<path d="M34 30h1v2h-1v-2z" fill="rgb(213,172,8)"/>
<path d="M35 30h1v2h-1v-2z" fill="rgb(82,57,16)"/>
<path d="M40 30h1v2h1v1h-1v1h-1v-4z" fill="rgb(82,57,16)"/>
<path d="M43 30h1v1h-1v-1z" fill="rgb(82,57,16)"/>
<path d="M44 30h1v1h-1v-1z" fill="rgb(255,213,65)"/>
<path d="M45 30h1v2h-1v-2z" fill="rgb(16,16,16)"/>
<path d="M58 30h2v1h-2v-1z" fill="rgb(156,123,16)"/>
<path d="M71 30h2v1h-2v-1z" fill="rgb(82,57,16)"/>
<path d="M83 30h1v1h-1v-1z" fill="rgb(82,57,16)"/>
<path d="M10 31h1v1h1v1h1v1h1v1h1v1h1v1h2v1h1v1h1v1h1v1h1v1h2v1h1v1h2v1h1v2h3v1h-1v3h-1
	v2h-1v2h-4v1h-3v1h-4v1h-3v-1h2v-1h2v-1h2v-1h1v-1h-1v-1h1v-1h-2v-1h-3v-1h-3v-1
	h-2v-1h5v-1h3v-1h-1v-1h-1v-2h-1v-1h-1v-2h-1v-2h-1v-2h-1v-1h-1v-1h-1v-2z" fill="rgb(213,172,8)"/>
<path d="M25 31h1v1h-1v-1z" fill="rgb(82,57,16)"/>
<path d="M29 31h1v3h-1v-3z" fill="rgb(255,213,65)"/>
<path d="M42 31h1v1h-1v-1z" fill="rgb(82,57,16)"/>
<path d="M44 31h1v1h-1v-1z" fill="rgb(213,172,8)"/>
<path d="M56 31h1v1h-1v-1z" fill="rgb(16,16,16)"/>
<path d="M57 31h1v1h-1v-1z" fill="rgb(156,123,16)"/>
<path d="M64 31h1v2h-1v-2z" fill="rgb(156,123,16)"/>
<path d="M65 31h1v1h-1v-1z" fill="transparent"/>
<path d="M66 31h2v1h-2v-1z" fill="rgb(16,16,16)"/>
<path d="M68 31h3v1h-3v-1z" fill="rgb(82,57,16)"/>
<path d="M82 31h1v2h-1v-2z" fill="rgb(82,57,16)"/>
<path d="M21 32h1v1h-1v-1z" fill="rgb(156,123,16)"/>
<path d="M26 32h1v1h-1v-1z" fill="rgb(82,57,16)"/>
<path d="M30 32h1v2h-1v-2z" fill="rgb(213,172,8)"/>
<path d="M34 32h1v1h-1v-1z" fill="rgb(82,57,16)"/>
<path d="M39 32h1v2h-1v-2z" fill="rgb(213,172,8)"/>
<path d="M44 32h1v1h-1v-1z" fill="rgb(16,16,16)"/>
<path d="M47 32h3v2h-1v-1h-2v-1z" fill="rgb(16,16,16)"/>
<path d="M54 32h2v1h-2v-1z" fill="rgb(16,16,16)"/>
<path d="M65 32h3v1h-2v1h-2v-1h1v-1z" fill="rgb(82,57,16)"/>
<path d="M81 32h1v1h-1v-1z" fill="rgb(213,172,8)"/>
<path d="M22 33h1v1h-1v-1z" fill="rgb(156,123,16)"/>
<path d="M26 33h1v1h-1v-1z" fill="rgb(213,172,8)"/>
<path d="M27 33h1v1h-1v-1z" fill="rgb(82,57,16)"/>
<path d="M32 33h1v2h-1v-2z" fill="rgb(213,172,8)"/>
<path d="M43 33h1v1h-1v-1z" fill="rgb(213,172,8)"/>
<path d="M44 33h1v1h-1v-1z" fill="rgb(82,57,16)"/>
<path d="M45 33h2v1h-2v-1z" fill="rgb(16,16,16)"/>
<path d="M52 33h2v1h-2v-1z" fill="rgb(16,16,16)"/>
<path d="M79 33h2v1h-1v1h-1v1h-1v1h-1v2h-1v1h-1v1h-1v2h-1v1h-1v1h-1v1h-1v1h6v-1h8v1h-5v1
	h-6v1h-2v1h-1v1h1v1h1v1h1v1h1v1h1v1h1v1h-3v-1h-6v-1h-6v-1h-6v-1h-5v-4h-1v4h-1
	v2h-1v2h-1v4h-1v1h-3v-1h-1v-1h-1v-1h-1v-2h-1v-3h-1v-3h-1v2h-3v1h-1v-2h1v-3h1v-1
	h2v-1h1v-1h3v1h2v1h3v-2h-1v-1h-1v-1h2v1h3v-1h1v1h2v-1h2v-1h1v-1h2v-1h1v-1h2v-1
	h1v-1h2v-1h1v-1h2v2h-1v1h-1v2h-1v1h2v-1h1v-1h2v-1h3v-1h1v-1h2v-1h2v-1h2v-1h2
	v-1z" fill="rgb(213,172,8)"/>
<path d="M81 33h1v1h-1v-1z" fill="rgb(82,57,16)"/>
<path d="M29 34h1v1h-1v-1z" fill="rgb(213,172,8)"/>
<path d="M43 34h1v1h-1v-1z" fill="rgb(82,57,16)"/>
<path d="M44 34h1v1h-1v-1z" fill="rgb(213,172,8)"/>
<path d="M48 34h1v1h1v1h-3v-1h1v-1z" fill="rgb(16,16,16)"/>
<path d="M49 34h1v1h-1v-1z" fill="transparent"/>
<path d="M50 34h2v1h-2v-1z" fill="rgb(16,16,16)"/>
<path d="M80 34h1v1h-1v-1z" fill="rgb(82,57,16)"/>
<path d="M25 35h1v1h-1v-1z" fill="rgb(16,16,16)"/>
<path d="M29 35h1v1h-1v-1z" fill="rgb(82,57,16)"/>
<path d="M38 35h1v1h-1v-1z" fill="rgb(156,123,16)"/>
<path d="M39 35h1v1h-1v-1z" fill="rgb(16,16,16)"/>
<path d="M65 35h1v1h-1v-1z" fill="rgb(213,172,8)"/>
<path d="M79 35h1v1h-1v-1z" fill="rgb(82,57,16)"/>
<path d="M26 36h1v1h-1v-1z" fill="rgb(16,16,16)"/>
<path d="M31 36h1v2h-1v-2z" fill="rgb(156,123,16)"/>
<path d="M37 36h1v2h-1v-2z" fill="rgb(16,16,16)"/>
<path d="M38 36h2v1h-1v1h-1v-2z" fill="rgb(82,57,16)"/>
<path d="M46 36h1v1h-1v-1z" fill="rgb(16,16,16)"/>
<path d="M47 36h1v1h-1v-1z" fill="rgb(82,57,16)"/>
<path d="M78 36h1v1h-1v-1z" fill="rgb(82,57,16)"/>
<path d="M13 37h1v2h-1v-2z" fill="rgb(16,16,16)"/>
<path d="M27 37h1v1h-1v-1z" fill="rgb(16,16,16)"/>
<path d="M28 37h1v1h-1v-1z" fill="rgb(213,172,8)"/>
<path d="M36 37h1v1h-1v-1z" fill="rgb(156,123,16)"/>
<path d="M39 37h1v1h-1v-1z" fill="rgb(16,16,16)"/>
<path d="M45 37h1v1h-1v-1z" fill="rgb(16,16,16)"/>
<path d="M77 37h1v2h-1v-2z" fill="rgb(82,57,16)"/>
<path d="M28 38h1v1h-1v-1z" fill="rgb(16,16,16)"/>
<path d="M31 38h1v1h-1v-1z" fill="rgb(16,16,16)"/>
<path d="M32 38h1v1h-1v-1z" fill="rgb(156,123,16)"/>
<path d="M36 38h1v1h-1v-1z" fill="rgb(82,57,16)"/>
<path d="M37 38h1v2h-1v-2z" fill="rgb(255,255,255)"/>
<path d="M38 38h1v1h-1v-1z" fill="rgb(16,16,16)"/>
<path d="M39 38h1v1h-1v-1z" fill="rgb(156,123,16)"/>
<path d="M44 38h1v1h-1v-1z" fill="rgb(16,16,16)"/>
<path d="M14 39h1v2h-1v-2z" fill="rgb(16,16,16)"/>
<path d="M29 39h1v1h-1v-1z" fill="rgb(16,16,16)"/>
<path d="M31 39h1v1h-1v-1z" fill="rgb(82,57,16)"/>
<path d="M32 39h1v1h1v1h-2v-2z" fill="rgb(16,16,16)"/>
<path d="M34 39h2v1h-2v-1z" fill="rgb(82,57,16)"/>
<path d="M36 39h1v1h-1v-1z" fill="rgb(222,222,222)"/>
<path d="M38 39h1v1h-1v-1z" fill="rgb(156,123,16)"/>
<path d="M43 39h1v1h-1v-1z" fill="rgb(82,57,16)"/>
<path d="M76 39h1v1h-1v-1z" fill="rgb(82,57,16)"/>
<path d="M28 40h1v2h-1v-2z" fill="rgb(16,16,16)"/>
<path d="M29 40h1v1h1v1h1v3h-1v-2h-3v-1h1v-2z" fill="rgb(213,172,8)"/>
<path d="M34 40h2v1h-1v1h-1v-2z" fill="rgb(246,148,24)"/>
<path d="M36 40h1v1h-1v-1z" fill="rgb(16,16,16)"/>
<path d="M37 40h1v1h-1v-1z" fill="rgb(156,123,16)"/>
<path d="M38 40h1v2h-1v-2z" fill="rgb(213,172,8)"/>
<path d="M42 40h2v1h1v1h1v1h1v1h-2v-1h-3v-1h-1v1h1v2h1v1h1v1h-2v-1h-2v-1h-2v-2h1v-1h1v-1
	h2v-1z" fill="rgb(213,172,8)"/>
<path d="M44 40h1v1h-1v-1z" fill="rgb(82,57,16)"/>
<path d="M75 40h1v1h-1v-1z" fill="rgb(82,57,16)"/>
<path d="M15 41h1v1h-1v-1z" fill="rgb(16,16,16)"/>
<path d="M32 41h1v4h-1v-4z" fill="rgb(82,57,16)"/>
<path d="M33 41h1v1h-1v-1z" fill="rgb(197,106,24)"/>
<path d="M35 41h1v1h-1v-1z" fill="rgb(82,57,16)"/>
<path d="M36 41h1v1h1v1h-2v-2z" fill="rgb(246,148,24)"/>
<path d="M37 41h1v1h-1v-1z" fill="rgb(82,57,16)"/>
<path d="M45 41h1v1h-1v-1z" fill="rgb(82,57,16)"/>
<path d="M74 41h1v1h-1v-1z" fill="rgb(82,57,16)"/>
<path d="M16 42h1v2h-1v-2z" fill="rgb(16,16,16)"/>
<path d="M27 42h1v1h-1v-1z" fill="rgb(16,16,16)"/>
<path d="M33 42h1v2h1v1h-1v2h-1v2h-1v2h-1v-3h1v-3h1v-3z" fill="rgb(246,148,24)"/>
<path d="M34 42h1v1h-1v-1z" fill="rgb(82,57,16)"/>
<path d="M35 42h1v1h-1v-1z" fill="rgb(197,106,24)"/>
<path d="M38 42h1v1h-1v-1z" fill="rgb(82,57,16)"/>
<path d="M41 42h1v1h-1v-1z" fill="rgb(82,57,16)"/>
<path d="M46 42h1v1h-1v-1z" fill="rgb(82,57,16)"/>
<path d="M61 42h1v1h-1v-1z" fill="rgb(255,213,65)"/>
<path d="M4 43h7v1h-7v-1z" fill="rgb(156,123,16)"/>
<path d="M26 43h1v1h-1v-1z" fill="rgb(16,16,16)"/>
<path d="M27 43h4v2h-1v-1h-3v-1z" fill="rgb(82,57,16)"/>
<path d="M34 43h1v1h-1v-1z" fill="rgb(197,106,24)"/>
<path d="M35 43h1v1h-1v-1z" fill="rgb(246,148,24)"/>
<path d="M36 43h2v2h-1v-1h-1v-1z" fill="rgb(82,57,16)"/>
<path d="M42 43h1v2h-1v-2z" fill="rgb(82,57,16)"/>
<path d="M43 43h2v1h-2v-1z" fill="rgb(16,16,16)"/>
<path d="M47 43h1v1h-1v-1z" fill="rgb(82,57,16)"/>
<path d="M73 43h1v1h3v1h4v1h-5v1h-6v-1h1v-1h1v-1h1v-1z" fill="rgb(255,213,65)"/>
<path d="M74 43h3v1h-3v-1z" fill="rgb(82,57,16)"/>
<path d="M4 44h1v1h-1v-1z" fill="rgb(82,57,16)"/>
<path d="M5 44h6v1h8v1h-3v1h-7v-1h-2v-1h-2v-1z" fill="rgb(255,213,65)"/>
<path d="M11 44h7v1h-7v-1z" fill="rgb(82,57,16)"/>
<path d="M27 44h3v1h-1v1h-1v-1h-1v-1z" fill="rgb(255,213,65)"/>
<path d="M35 44h1v2h-1v-2z" fill="rgb(82,57,16)"/>
<path d="M36 44h1v2h-1v-2z" fill="rgb(197,106,24)"/>
<path d="M45 44h3v1h-3v-1z" fill="rgb(16,16,16)"/>
<path d="M77 44h4v1h-4v-1z" fill="rgb(82,57,16)"/>
<path d="M5 45h2v1h-2v-1z" fill="rgb(82,57,16)"/>
<path d="M29 45h1v1h1v-1h1v3h-1v-1h-3v-1h1v-1z" fill="rgb(82,57,16)"/>
<path d="M30 45h1v1h-1v-1z" fill="rgb(213,172,8)"/>
<path d="M34 45h1v1h-1v-1z" fill="rgb(197,106,24)"/>
<path d="M37 45h1v1h-1v-1z" fill="rgb(16,16,16)"/>
<path d="M38 45h2v1h-2v-1z" fill="rgb(82,57,16)"/>
<path d="M43 45h1v1h-1v-1z" fill="rgb(82,57,16)"/>
<path d="M81 45h3v1h-3v-1z" fill="rgb(82,57,16)"/>
<path d="M7 46h2v1h-2v-1z" fill="rgb(82,57,16)"/>
<path d="M34 46h1v1h-1v-1z" fill="rgb(82,57,16)"/>
<path d="M35 46h1v1h-1v-1z" fill="rgb(197,106,24)"/>
<path d="M36 46h1v1h-1v-1z" fill="rgb(16,16,16)"/>
<path d="M40 46h2v1h-2v-1z" fill="rgb(16,16,16)"/>
<path d="M44 46h1v1h-1v-1z" fill="rgb(82,57,16)"/>
<path d="M84 46h1v1h-1v-1z" fill="rgb(82,57,16)"/>
<path d="M9 47h2v1h-2v-1z" fill="rgb(82,57,16)"/>
<path d="M33 47h1v1h-1v-1z" fill="rgb(197,106,24)"/>
<path d="M34 47h2v1h-2v-1z" fill="rgb(16,16,16)"/>
<path d="M42 47h3v1h-3v-1z" fill="rgb(16,16,16)"/>
<path d="M79 47h5v1h-5v-1z" fill="rgb(82,57,16)"/>
<path d="M11 48h2v1h-2v-1z" fill="rgb(82,57,16)"/>
<path d="M30 48h1v3h-1v-3z" fill="rgb(82,57,16)"/>
<path d="M33 48h1v1h-1v-1z" fill="rgb(16,16,16)"/>
<path d="M73 48h6v1h-6v-1z" fill="rgb(82,57,16)"/>
<path d="M13 49h1v1h-1v-1z" fill="rgb(16,16,16)"/>
<path d="M14 49h2v1h-2v-1z" fill="rgb(82,57,16)"/>
<path d="M32 49h1v3h-1v-3z" fill="rgb(16,16,16)"/>
<path d="M49 49h1v1h-1v-1z" fill="rgb(156,123,16)"/>
<path d="M71 49h2v1h-2v-1z" fill="rgb(82,57,16)"/>
<path d="M16 50h2v1h-2v-1z" fill="rgb(16,16,16)"/>
<path d="M18 50h1v1h-1v-1z" fill="rgb(82,57,16)"/>
<path d="M49 50h1v3h-1v-3z" fill="rgb(82,57,16)"/>
<path d="M70 50h1v1h-1v-1z" fill="rgb(82,57,16)"/>
<path d="M19 51h1v1h-1v-1z" fill="rgb(16,16,16)"/>
<path d="M20 51h1v1h-1v-1z" fill="rgb(82,57,16)"/>
<path d="M29 51h1v2h-1v-2z" fill="rgb(82,57,16)"/>
<path d="M30 51h1v2h-1v-2z" fill="rgb(246,148,24)"/>
<path d="M31 51h1v1h-1v-1z" fill="rgb(197,106,24)"/>
<path d="M36 51h1v1h-1v-1z" fill="rgb(156,123,16)"/>
<path d="M71 51h1v1h-1v-1z" fill="rgb(156,123,16)"/>
<path d="M19 52h1v1h-1v-1z" fill="rgb(156,123,16)"/>
<path d="M31 52h1v2h1v1h-3v-1h1v-2z" fill="rgb(16,16,16)"/>
<path d="M36 52h1v2h-1v-2z" fill="rgb(82,57,16)"/>
<path d="M72 52h1v1h-1v-1z" fill="rgb(156,123,16)"/>
<path d="M18 53h1v1h-1v-1z" fill="rgb(156,123,16)"/>
<path d="M19 53h2v1h-1v1h-2v-1h1v-1z" fill="rgb(255,213,65)"/>
<path d="M28 53h1v2h-1v-2z" fill="rgb(82,57,16)"/>
<path d="M29 53h1v2h-1v-2z" fill="rgb(246,148,24)"/>
<path d="M30 53h1v1h-1v-1z" fill="rgb(197,106,24)"/>
<path d="M33 53h3v1h-3v-1z" fill="rgb(16,16,16)"/>
<path d="M48 53h7v1h-4v2h-1v-2h-2v-1z" fill="rgb(16,16,16)"/>
<path d="M73 53h1v1h-1v-1z" fill="rgb(156,123,16)"/>
<path d="M17 54h1v1h-1v-1z" fill="rgb(156,123,16)"/>
<path d="M33 54h4v3h-1v4h-1v4h-1v-4h-1v-2h-1v-1h-1v-1h-1v-2h3v-1z" fill="transparent"/>
<path d="M37 54h1v3h-1v-3z" fill="rgb(16,16,16)"/>
<path d="M48 54h1v1h-1v-1z" fill="rgb(123,106,24)"/>
<path d="M49 54h1v1h-1v-1z" fill="rgb(156,123,16)"/>
<path d="M51 54h4v1h-2v3h-1v-2h-1v-2z" fill="transparent"/>
<path d="M55 54h6v1h-6v-1z" fill="rgb(16,16,16)"/>
<path d="M74 54h1v1h-1v-1z" fill="rgb(156,123,16)"/>
<path d="M15 55h2v1h-2v-1z" fill="rgb(156,123,16)"/>
<path d="M17 55h1v1h-1v-1z" fill="rgb(255,213,65)"/>
<path d="M24 55h3v1h-3v-1z" fill="rgb(16,16,16)"/>
<path d="M27 55h1v2h-1v-2z" fill="rgb(82,57,16)"/>
<path d="M28 55h1v2h-1v-2z" fill="rgb(246,148,24)"/>
<path d="M29 55h1v2h1v1h-1v2h-1v-2h-2v-1h2v-2z" fill="rgb(16,16,16)"/>
<path d="M47 55h1v1h-1v-1z" fill="rgb(123,106,24)"/>
<path d="M48 55h2v1h-2v-1z" fill="rgb(156,139,49)"/>
<path d="M53 55h2v1h-2v-1z" fill="rgb(16,16,16)"/>
<path d="M61 55h6v1h-6v-1z" fill="rgb(16,16,16)"/>
<path d="M75 55h1v1h-1v-1z" fill="rgb(156,123,16)"/>
<path d="M14 56h1v1h-1v-1z" fill="rgb(156,123,16)"/>
<path d="M15 56h1v1h-1v-1z" fill="rgb(255,213,65)"/>
<path d="M21 56h3v1h-3v-1z" fill="rgb(16,16,16)"/>
<path d="M47 56h3v2h-1v-1h-2v-1z" fill="rgb(82,57,16)"/>
<path d="M50 56h1v2h-1v-2z" fill="rgb(156,139,49)"/>
<path d="M51 56h1v2h-1v-2z" fill="rgb(16,16,16)"/>
<path d="M53 56h1v3h-1v-3z" fill="rgb(82,57,16)"/>
<path d="M54 56h1v3h-1v-3z" fill="rgb(255,255,255)"/>
<path d="M55 56h1v6h-1v-6z" fill="rgb(16,16,16)"/>
<path d="M67 56h6v1h-6v-1z" fill="rgb(16,16,16)"/>
<path d="M76 56h1v1h-1v-1z" fill="rgb(156,123,16)"/>
<path d="M13 57h1v1h-1v-1z" fill="rgb(156,123,16)"/>
<path d="M17 57h4v1h-4v-1z" fill="rgb(16,16,16)"/>
<path d="M36 57h1v4h-1v-4z" fill="rgb(82,57,16)"/>
<path d="M37 57h1v4h-1v-4z" fill="rgb(123,106,24)"/>
<path d="M38 57h1v2h-1v-2z" fill="rgb(16,16,16)"/>
<path d="M46 57h1v2h-1v-2z" fill="rgb(16,16,16)"/>
<path d="M47 57h2v1h-1v1h-1v-2z" fill="rgb(255,255,255)"/>
<path d="M73 57h4v1h-4v-1z" fill="rgb(16,16,16)"/>
<path d="M12 58h5v1h-5v-1z" fill="rgb(16,16,16)"/>
<path d="M24 58h1v1h-1v-1z" fill="rgb(106,106,106)"/>
<path d="M25 58h1v1h-1v-1z" fill="rgb(82,57,16)"/>
<path d="M30 58h1v1h1v1h-2v-2z" fill="rgb(255,255,255)"/>
<path d="M31 58h1v1h-1v-1z" fill="rgb(16,16,16)"/>
<path d="M48 58h2v2h1v1h1v2h1v-4h2v3h-1v7h-2v-2h-1v-1h-1v-1h-2v-1h2v-2h-1v-2h-1v-2z" fill="rgb(197,106,24)"/>
<path d="M50 58h1v2h-1v-2z" fill="rgb(16,16,16)"/>
<path d="M51 58h1v1h1v4h-1v-3h-1v-2z" fill="rgb(82,57,16)"/>
<path d="M52 58h1v1h-1v-1z" fill="rgb(16,16,16)"/>
<path d="M23 59h1v1h-1v-1z" fill="rgb(106,106,106)"/>
<path d="M24 59h2v1h1v1h-2v-1h-1v-1z" fill="rgb(255,255,255)"/>
<path d="M26 59h2v1h-2v-1z" fill="rgb(82,57,16)"/>
<path d="M32 59h1v2h-1v-2z" fill="rgb(16,16,16)"/>
<path d="M38 59h1v1h1v1h1v1h-2v1h-2v-2h1v-2z" fill="rgb(156,139,49)"/>
<path d="M39 59h1v1h-1v-1z" fill="rgb(16,16,16)"/>
<path d="M46 59h1v1h1v1h-2v-2z" fill="rgb(123,106,24)"/>
<path d="M47 59h1v1h-1v-1z" fill="rgb(16,16,16)"/>
<path d="M23 60h2v1h-2v-1z" fill="rgb(16,16,16)"/>
<path d="M27 60h1v1h-1v-1z" fill="rgb(197,106,24)"/>
<path d="M28 60h1v1h-1v-1z" fill="rgb(82,57,16)"/>
<path d="M29 60h1v2h-1v-2z" fill="transparent"/>
<path d="M30 60h1v4h-1v-4z" fill="rgb(82,57,16)"/>
<path d="M31 60h1v4h-1v-4z" fill="rgb(246,148,24)"/>
<path d="M40 60h1v1h-1v-1z" fill="rgb(16,16,16)"/>
<path d="M48 60h1v2h-1v-2z" fill="rgb(16,16,16)"/>
<path d="M51 60h1v1h-1v-1z" fill="rgb(16,16,16)"/>
<path d="M25 61h1v1h-1v-1z" fill="rgb(16,16,16)"/>
<path d="M26 61h2v2h1v2h-1v-1h-1v-2h-1v-1z" fill="rgb(246,148,24)"/>
<path d="M28 61h1v1h-1v-1z" fill="rgb(16,16,16)"/>
<path d="M32 61h1v7h1v5h-1v-2h-2v-2h-1v-1h-2v-1h-2v-2h-1v-1h2v1h1v1h1v-3h1v2h1v-1h1v-3z" fill="rgb(197,106,24)"/>
<path d="M33 61h1v2h-1v-2z" fill="rgb(16,16,16)"/>
<path d="M35 61h1v2h1v1h-1v1h-1v-4z" fill="rgb(82,57,16)"/>
<path d="M36 61h1v2h-1v-2z" fill="rgb(123,106,24)"/>
<path d="M41 61h1v1h-1v-1z" fill="rgb(16,16,16)"/>
<path d="M45 61h3v1h-3v-1z" fill="rgb(82,57,16)"/>
<path d="M56 61h3v1h-3v-1z" fill="rgb(82,57,16)"/>
<path d="M26 62h1v2h-4v-1h3v-1z" fill="rgb(16,16,16)"/>
<path d="M28 62h1v1h-1v-1z" fill="rgb(197,106,24)"/>
<path d="M29 62h1v1h-1v-1z" fill="rgb(16,16,16)"/>
<path d="M39 62h3v2h-1v1h-3v-1h-1v-1h2v-1z" fill="rgb(123,106,24)"/>
<path d="M42 62h3v1h-1v2h-1v-1h-1v-2z" fill="rgb(16,16,16)"/>
<path d="M45 62h1v2h-1v1h-1v-2h1v-1z" fill="rgb(255,255,255)"/>
<path d="M46 62h3v2h-3v-2z" fill="rgb(246,148,24)"/>
<path d="M49 62h1v2h-1v-2z" fill="rgb(16,16,16)"/>
<path d="M54 62h1v6h-1v-6z" fill="rgb(16,16,16)"/>
<path d="M55 62h1v1h-1v-1z" fill="rgb(82,57,16)"/>
<path d="M56 62h3v2h1v1h-2v-1h-2v1h2v1h2v2h-1v1h-2v-1h-2v-5h1v-1z" fill="rgb(213,172,8)"/>
<path d="M59 62h3v1h-3v-1z" fill="rgb(82,57,16)"/>
<path d="M21 63h2v1h-2v-1z" fill="rgb(106,106,106)"/>
<path d="M33 63h1v2h1v1h-2v-3z" fill="rgb(82,57,16)"/>
<path d="M59 63h3v1h2v1h-4v-1h-1v-1z" fill="rgb(255,213,65)"/>
<path d="M62 63h1v1h-1v-1z" fill="rgb(156,123,16)"/>
<path d="M63 63h1v1h-1v-1z" fill="rgb(82,57,16)"/>
<path d="M20 64h1v1h-1v-1z" fill="rgb(106,106,106)"/>
<path d="M21 64h2v1h-2v-1z" fill="rgb(255,255,255)"/>
<path d="M23 64h2v1h1v1h-2v-1h-1v-1z" fill="rgb(246,148,24)"/>
<path d="M27 64h1v1h-1v-1z" fill="rgb(16,16,16)"/>
<path d="M30 64h1v1h-1v-1z" fill="rgb(16,16,16)"/>
<path d="M36 64h1v2h-2v-1h1v-1z" fill="rgb(246,148,24)"/>
<path d="M37 64h1v2h-1v-2z" fill="rgb(82,57,16)"/>
<path d="M41 64h1v1h-1v-1z" fill="rgb(16,16,16)"/>
<path d="M42 64h1v1h-1v-1z" fill="rgb(213,172,8)"/>
<path d="M45 64h3v1h-3v-1z" fill="rgb(16,16,16)"/>
<path d="M56 64h2v1h-2v-1z" fill="rgb(82,57,16)"/>
<path d="M64 64h1v1h-1v-1z" fill="rgb(82,57,16)"/>
<path d="M20 65h3v1h-3v-1z" fill="rgb(16,16,16)"/>
<path d="M23 65h1v1h-1v-1z" fill="rgb(82,57,16)"/>
<path d="M28 65h1v1h-1v-1z" fill="rgb(16,16,16)"/>
<path d="M38 65h3v1h-3v-1z" fill="rgb(16,16,16)"/>
<path d="M42 65h1v2h-1v-2z" fill="rgb(16,16,16)"/>
<path d="M43 65h1v1h1v-1h3v1h2v1h1v3h1v3h-2v-2h-1v-2h-1v2h-1v4h-1v-3h-1v-2h-1v-3h-1v-2z" fill="rgb(213,172,8)"/>
<path d="M44 65h1v1h-1v-1z" fill="rgb(16,16,16)"/>
<path d="M48 65h2v1h-2v-1z" fill="rgb(16,16,16)"/>
<path d="M58 65h1v1h-1v-1z" fill="rgb(156,123,16)"/>
<path d="M59 65h1v1h-1v-1z" fill="rgb(82,57,16)"/>
<path d="M60 65h3v1h1v1h-3v-1h-1v-1z" fill="rgb(16,16,16)"/>
<path d="M24 66h2v1h-2v-1z" fill="rgb(82,57,16)"/>
<path d="M33 66h2v2h-2v-2z" fill="rgb(246,148,24)"/>
<path d="M35 66h1v2h-1v-2z" fill="rgb(197,106,24)"/>
<path d="M36 66h2v1h-1v1h-1v-2z" fill="rgb(16,16,16)"/>
<path d="M50 66h1v1h-1v-1z" fill="rgb(16,16,16)"/>
<path d="M60 66h1v1h-1v-1z" fill="rgb(82,57,16)"/>
<path d="M26 67h1v1h-1v-1z" fill="rgb(82,57,16)"/>
<path d="M27 67h1v1h-1v-1z" fill="rgb(16,16,16)"/>
<path d="M43 67h1v2h-1v-2z" fill="rgb(16,16,16)"/>
<path d="M51 67h1v2h1v1h1v1h1v3h1v3h-1v-1h-1v1h-1v-5h-1v-2h-1v-3z" fill="rgb(16,16,16)"/>
<path d="M60 67h1v1h1v2h1v1h-2v-1h-2v-2h1v-1z" fill="rgb(255,213,65)"/>
<path d="M61 67h1v1h-1v-1z" fill="rgb(82,57,16)"/>
<path d="M28 68h2v1h-2v-1z" fill="rgb(16,16,16)"/>
<path d="M34 68h1v1h-1v-1z" fill="rgb(82,57,16)"/>
<path d="M35 68h1v1h-1v-1z" fill="rgb(16,16,16)"/>
<path d="M54 68h1v1h-1v-1z" fill="rgb(246,148,24)"/>
<path d="M55 68h1v1h1v1h-1v1h-1v-3z" fill="rgb(16,16,16)"/>
<path d="M56 68h1v1h-1v-1z" fill="rgb(82,57,16)"/>
<path d="M62 68h1v1h-1v-1z" fill="rgb(82,57,16)"/>
<path d="M30 69h1v2h-1v-2z" fill="rgb(16,16,16)"/>
<path d="M34 69h1v4h-1v-4z" fill="rgb(16,16,16)"/>
<path d="M43 69h1v1h-1v-1z" fill="rgb(82,57,16)"/>
<path d="M48 69h1v2h-1v-2z" fill="rgb(82,57,16)"/>
<path d="M53 69h1v1h-1v-1z" fill="rgb(246,148,24)"/>
<path d="M54 69h1v2h-1v-2z" fill="rgb(255,255,255)"/>
<path d="M57 69h2v1h-2v-1z" fill="rgb(82,57,16)"/>
<path d="M62 69h1v1h-1v-1z" fill="rgb(156,123,16)"/>
<path d="M44 70h1v2h-1v-2z" fill="rgb(82,57,16)"/>
<path d="M56 70h1v1h-1v-1z" fill="rgb(213,172,8)"/>
<path d="M57 70h2v1h1v1h1v1h-2v-1h-1v-1h-1v-1z" fill="rgb(16,16,16)"/>
<path d="M59 70h2v1h-2v-1z" fill="rgb(82,57,16)"/>
<path d="M63 70h1v2h-3v-1h2v-1z" fill="rgb(82,57,16)"/>
<path d="M31 71h1v2h-1v-2z" fill="rgb(16,16,16)"/>
<path d="M32 71h1v2h-1v-2z" fill="rgb(246,148,24)"/>
<path d="M47 71h1v1h-1v-1z" fill="rgb(156,123,16)"/>
<path d="M48 71h1v2h1v4h-1v-1h-1v-5z" fill="rgb(16,16,16)"/>
<path d="M49 71h1v2h-1v-2z" fill="rgb(82,57,16)"/>
<path d="M55 71h1v2h-1v-2z" fill="rgb(213,172,8)"/>
<path d="M56 71h1v1h1v2h1v2h-1v-1h-1v-1h-1v-3z" fill="rgb(255,213,65)"/>
<path d="M57 71h1v1h-1v-1z" fill="rgb(82,57,16)"/>
<path d="M60 71h1v1h-1v-1z" fill="transparent"/>
<path d="M45 72h1v4h-1v-4z" fill="rgb(82,57,16)"/>
<path d="M47 72h1v3h-1v-3z" fill="rgb(82,57,16)"/>
<path d="M52 72h1v1h-1v-1z" fill="rgb(156,123,16)"/>
<path d="M58 72h1v2h-1v-2z" fill="rgb(82,57,16)"/>
<path d="M30 73h1v2h-1v-2z" fill="rgb(16,16,16)"/>
<path d="M31 73h2v1h-1v1h-1v-2z" fill="rgb(255,255,255)"/>
<path d="M33 73h1v1h-1v-1z" fill="rgb(16,16,16)"/>
<path d="M50 73h1v2h-1v-2z" fill="rgb(82,57,16)"/>
<path d="M51 73h2v4h-1v-2h-1v-2z" fill="rgb(255,213,65)"/>
<path d="M55 73h1v1h-1v-1z" fill="rgb(82,57,16)"/>
<path d="M32 74h1v1h-1v-1z" fill="rgb(16,16,16)"/>
<path d="M56 74h1v1h-1v-1z" fill="rgb(82,57,16)"/>
<path d="M59 74h1v3h-2v-1h1v-2z" fill="rgb(82,57,16)"/>
<path d="M31 75h1v1h-1v-1z" fill="rgb(16,16,16)"/>
<path d="M46 75h1v1h-1v-1z" fill="rgb(156,123,16)"/>
<path d="M51 75h1v2h-1v-2z" fill="rgb(82,57,16)"/>
<path d="M57 75h1v1h-1v-1z" fill="rgb(82,57,16)"/>
<path d="M46 76h1v1h-1v-1z" fill="rgb(82,57,16)"/>
<path d="M52 77h1v1h-1v-1z" fill="rgb(82,57,16)"/>
</svg>
