<?xml version="1.0" encoding="utf-8"?>
<!-- generated at drububu.com  -->
<!DOCTYPE svg PUBLIC "-//W3C//DTD SVG 1.1//EN" "http://www.w3.org/Graphics/SVG/1.1/DTD/svg11.dtd">
<svg version="1.1" preserveAspectRatio="xMinYMin meet" xmlns="http://www.w3.org/2000/svg" xmlns:xlink="http://www.w3.org/1999/xlink" x="0px" y="0px" width="96px" height="96px" viewBox="0 0 96 96">
<path d="M0 0h96v96h-96v-96z" fill="transparent"/>
<path d="M54 13h3v1h2v1h1v2h1v3h-1v2h1v1h2v2h1v2h-1v1h-1v1h-3v1h1v3h-1v1h-1v1h-2v-1h1v-1
	h1v-1h-1v-1h-3v1h-1v1h-1v-3h1v-1h1v-1h1v-1h1v2h2v-3h-1v-3h1v-2h-1v1h-1v1h-2v-1
	h1v-2h1v-1h1v-2h-1v-2h-1v-1h-1v-1z" fill="rgb(213,8,8)"/>
<path d="M14 15h2v2h-1v2h-2v3h-1v2h1v-1h1v-1h2v2h-1v1h-1v1h-3v3h1v2h-1v1h-1v1h-1v-4h1v-3
	h-1v-2h1v-4h-1v-1h1v-1h1v-1h2v-1h1v-1z" fill="rgb(213,8,8)"/>
<path d="M9 18h1v1h-1v-1z" fill="rgb(115,65,16)"/>
<path d="M8 19h1v1h-1v-1z" fill="rgb(115,65,16)"/>
<path d="M7 20h1v1h-1v-1z" fill="rgb(0,0,0)"/>
<path d="M8 20h2v1h-1v3h-1v2h-1v1h-1v-3h1v-3h1v-1z" fill="rgb(222,148,16)"/>
<path d="M6 21h1v2h-1v-2z" fill="rgb(0,0,0)"/>
<path d="M9 21h1v3h-1v-3z" fill="rgb(115,65,16)"/>
<path d="M57 21h1v2h-1v3h1v3h-2v-2h-1v1h-1v1h-1v1h-1v3h1v1h2v-1h1v-1h-2v-1h3v1h1v1h-1v1
	h-1v1h-2v3h2v1h1v1h-1v1h-2v-1h-1v1h-1v1h2v3h-1v1h-2v-2h-1v-1h1v-2h-1v1h-1v2h1v1
	h-1v2h-1v1h-3v-1h1v-1h1v-1h1v-2h-1v-1h1v-2h2v-1h2v-1h-3v-1h1v-1h1v-1h-3v-1h-2
	v-1h1v-1h3v-2h1v-2h2v-1h1v-1h2v-4h1v-1z" fill="rgb(238,98,57)"/>
<path d="M49 22h2v2h2v-2h1v1h1v1h-1v2h-1v-1h-4v1h-1v-2h-1v-1h2v-1z" fill="rgb(238,98,57)"/>
<path d="M6 23h1v1h-1v-1z" fill="rgb(115,65,16)"/>
<path d="M55 23h1v3h-2v-2h1v-1z" fill="rgb(255,164,74)"/>
<path d="M5 24h1v2h-1v-2z" fill="rgb(0,0,0)"/>
<path d="M8 24h1v2h-1v-2z" fill="rgb(115,65,16)"/>
<path d="M42 24h1v1h1v1h-2v2h-1v-3h1v-1z" fill="rgb(238,98,57)"/>
<path d="M43 24h2v1h2v-1h1v2h-1v2h-1v-1h-1v-1h-1v-1h-1v-1z" fill="rgb(213,8,8)"/>
<path d="M49 25h1v1h-1v-1z" fill="rgb(255,164,74)"/>
<path d="M50 25h2v1h1v1h-1v1h-1v1h-1v2h-1v-5h1v-1z" fill="rgb(255,213,98)"/>
<path d="M52 25h1v1h-1v-1z" fill="rgb(255,164,74)"/>
<path d="M5 26h1v1h-1v-1z" fill="rgb(115,65,16)"/>
<path d="M7 26h1v1h1v2h-1v2h-1v1h1v1h1v1h1v1h1v1h1v1h-1v1h1v1h2v1h-1v1h-2v1h3v1h4v2h1v1
	h-2v-1h-3v1h-2v-1h-1v-2h-3v-2h-1v-4h-1v-10h1v-1z" fill="rgb(255,197,74)"/>
<path d="M8 26h1v1h-1v-1z" fill="rgb(222,148,16)"/>
<path d="M9 26h1v3h-1v-3z" fill="rgb(115,65,16)"/>
<path d="M11 26h2v1h-1v1h-1v-2z" fill="rgb(238,98,57)"/>
<path d="M42 26h2v2h-2v-2z" fill="rgb(255,164,74)"/>
<path d="M44 26h1v1h-1v-1z" fill="rgb(238,98,57)"/>
<path d="M47 26h1v2h-1v-2z" fill="rgb(238,98,57)"/>
<path d="M48 26h1v2h-1v-2z" fill="rgb(255,164,74)"/>
<path d="M53 26h1v1h-1v-1z" fill="rgb(255,164,74)"/>
<path d="M89 26h1v1h1v2h-1v2h1v3h-2v1h-1v-1h-1v-2h-1v1h-1v-2h1v-2h1v-2h1v1h1v-2z" fill="rgb(213,8,8)"/>
<path d="M4 27h1v2h-1v-2z" fill="rgb(0,0,0)"/>
<path d="M5 27h1v5h-1v-5z" fill="rgb(222,148,16)"/>
<path d="M44 27h1v1h-1v-1z" fill="rgb(255,213,98)"/>
<path d="M45 27h1v1h-1v-1z" fill="rgb(238,98,57)"/>
<path d="M52 27h1v1h-1v-1z" fill="rgb(255,164,74)"/>
<path d="M42 28h2v1h1v1h-1v2h-1v-3h-1v-1z" fill="rgb(238,98,57)"/>
<path d="M44 28h1v1h-1v-1z" fill="rgb(255,164,74)"/>
<path d="M45 28h1v2h2v1h-2v2h-1v3h-1v-1h-1v-3h1v-1h1v-3z" fill="rgb(255,213,98)"/>
<path d="M46 28h1v1h1v1h-2v-2z" fill="rgb(238,98,57)"/>
<path d="M47 28h1v1h-1v-1z" fill="rgb(213,8,8)"/>
<path d="M48 28h1v1h-1v-1z" fill="rgb(238,98,57)"/>
<path d="M4 29h1v3h-1v-3z" fill="rgb(115,65,16)"/>
<path d="M8 29h1v1h-1v-1z" fill="rgb(222,148,16)"/>
<path d="M14 29h1v1h-1v-1z" fill="rgb(213,8,8)"/>
<path d="M48 29h1v2h1v1h-3v1h-1v-2h2v-2z" fill="rgb(255,164,74)"/>
<path d="M50 29h1v1h-1v-1z" fill="rgb(255,164,74)"/>
<path d="M8 30h1v3h-1v-3z" fill="rgb(115,65,16)"/>
<path d="M12 30h1v1h1v1h-1v1h-1v1h-2v-2h1v-1h1v-1z" fill="rgb(238,98,57)"/>
<path d="M13 30h1v1h-1v-1z" fill="rgb(213,8,8)"/>
<path d="M18 30h1v2h1v2h-1v1h-1v-3h-1v-1h1v-1z" fill="rgb(213,8,8)"/>
<path d="M44 30h1v1h-1v-1z" fill="rgb(255,164,74)"/>
<path d="M7 31h1v1h-1v-1z" fill="rgb(222,148,16)"/>
<path d="M77 31h1v2h1v2h-1v-1h-1v-1h-1v2h-1v-1h-1v-1h1v-1h2v-1z" fill="rgb(213,8,8)"/>
<path d="M5 32h1v5h-1v-5z" fill="rgb(115,65,16)"/>
<path d="M17 32h1v3h1v3h-1v-2h-2v-2h1v-2z" fill="rgb(238,98,57)"/>
<path d="M42 32h1v3h-1v-3z" fill="rgb(238,98,57)"/>
<path d="M53 32h1v1h-1v-1z" fill="rgb(238,98,57)"/>
<path d="M54 32h2v1h-1v1h-2v-1h1v-1z" fill="rgb(255,164,74)"/>
<path d="M64 32h1v1h1v2h-2v-3z" fill="rgb(238,98,57)"/>
<path d="M83 32h1v1h1v2h-1v-1h-1v-2z" fill="rgb(213,8,8)"/>
<path d="M86 32h1v2h1v1h-1v1h-1v1h-1v1h-1v-3h1v-2h1v-1z" fill="rgb(238,98,57)"/>
<path d="M9 33h1v1h-1v-1z" fill="rgb(115,65,16)"/>
<path d="M12 33h1v1h2v1h1v1h-2v1h-1v-1h-1v-3z" fill="rgb(213,8,8)"/>
<path d="M16 33h1v1h-1v-1z" fill="rgb(213,8,8)"/>
<path d="M45 33h1v1h2v1h1v1h-2v1h-1v2h-1v1h-1v-1h-1v-2h1v-1h1v-3z" fill="rgb(255,164,74)"/>
<path d="M73 33h1v1h1v1h1v1h-2v-1h-1v-2z" fill="rgb(238,98,57)"/>
<path d="M76 33h1v1h-1v-1z" fill="rgb(238,98,57)"/>
<path d="M81 33h1v1h-1v-1z" fill="rgb(213,8,8)"/>
<path d="M82 33h1v1h-1v-1z" fill="rgb(238,98,57)"/>
<path d="M10 34h1v1h-1v-1z" fill="rgb(222,148,16)"/>
<path d="M11 34h1v1h-1v-1z" fill="rgb(115,65,16)"/>
<path d="M51 34h1v1h-1v-1z" fill="rgb(255,164,74)"/>
<path d="M76 34h2v1h-2v-1z" fill="rgb(255,164,74)"/>
<path d="M80 34h2v1h-1v2h-1v-3z" fill="rgb(238,98,57)"/>
<path d="M82 34h1v1h1v2h-1v-1h-1v1h-1v-2h1v-1z" fill="rgb(255,164,74)"/>
<path d="M83 34h1v1h-1v-1z" fill="rgb(238,98,57)"/>
<path d="M89 34h1v2h-1v2h-1v2h-1v1h-1v2h-1v1h-2v1h-3v1h-3v1h-1v1h-2v1h-3v1h-2v1h-2v1h-5
	v1h-2v1h-1v-2h1v-2h1v-1h3v1h1v-3h1v-1h2v2h-1v1h-1v1h2v-1h1v-4h1v3h2v-1h1v-2h1
	v-2h3v2h1v-1h2v-1h2v-1h2v-1h1v-1h1v-2h1v-2h1v-1h1v-1z" fill="rgb(255,197,74)"/>
<path d="M90 34h1v1h-1v-1z" fill="rgb(115,65,16)"/>
<path d="M11 35h1v1h-1v-1z" fill="rgb(222,148,16)"/>
<path d="M19 35h1v3h-1v-3z" fill="rgb(213,8,8)"/>
<path d="M43 35h1v2h-2v-1h1v-1z" fill="rgb(238,98,57)"/>
<path d="M49 35h2v1h-2v-1z" fill="rgb(255,213,98)"/>
<path d="M54 35h1v1h-1v-1z" fill="rgb(213,8,8)"/>
<path d="M72 35h1v2h1v2h-1v-1h-1v-1h-1v-1h1v-1z" fill="rgb(238,98,57)"/>
<path d="M73 35h1v1h2v1h1v1h1v1h-1v1h-2v-1h-1v-2h-1v-2z" fill="rgb(255,164,74)"/>
<path d="M76 35h2v3h-1v-1h-1v-2z" fill="rgb(255,213,98)"/>
<path d="M78 35h1v1h-1v-1z" fill="rgb(238,98,57)"/>
<path d="M79 35h1v3h-1v-3z" fill="rgb(213,8,8)"/>
<path d="M87 35h1v1h-1v-1z" fill="rgb(213,8,8)"/>
<path d="M90 35h1v1h-1v-1z" fill="rgb(0,0,0)"/>
<path d="M12 36h1v1h-1v-1z" fill="rgb(115,65,16)"/>
<path d="M14 36h2v2h-4v-1h2v-1z" fill="rgb(238,98,57)"/>
<path d="M16 36h2v2h-1v4h-1v-1h-1v-2h-1v-1h2v-2z" fill="rgb(255,164,74)"/>
<path d="M47 36h2v1h-1v1h3v1h-2v1h-1v1h-1v1h-4v1h-2v-1h-1v-4h2v-1h1v2h1v1h1v-1h1v-2h1v-1
	z" fill="rgb(255,213,98)"/>
<path d="M49 36h1v1h-1v-1z" fill="rgb(255,164,74)"/>
<path d="M78 36h1v2h-1v-2z" fill="rgb(255,164,74)"/>
<path d="M82 36h1v1h-1v-1z" fill="rgb(115,65,16)"/>
<path d="M86 36h1v1h-1v-1z" fill="rgb(213,8,8)"/>
<path d="M89 36h1v1h-1v-1z" fill="rgb(115,65,16)"/>
<path d="M6 37h1v2h-1v-2z" fill="rgb(115,65,16)"/>
<path d="M11 37h1v1h-1v-1z" fill="rgb(115,65,16)"/>
<path d="M39 37h3v1h-3v-1z" fill="rgb(238,98,57)"/>
<path d="M48 37h1v1h-1v-1z" fill="rgb(255,164,74)"/>
<path d="M67 37h1v3h-1v1h-1v-2h1v-2z" fill="rgb(213,8,8)"/>
<path d="M71 37h1v1h1v1h1v1h-1v1h-2v-1h1v-1h-1v-2z" fill="rgb(213,8,8)"/>
<path d="M80 37h1v2h-1v-2z" fill="rgb(255,164,74)"/>
<path d="M81 37h1v1h-1v-1z" fill="rgb(222,148,16)"/>
<path d="M82 37h1v1h1v1h-2v-2z" fill="rgb(255,197,74)"/>
<path d="M83 37h1v1h-1v-1z" fill="rgb(115,65,16)"/>
<path d="M85 37h1v1h-1v-1z" fill="rgb(115,65,16)"/>
<path d="M86 37h1v1h-1v-1z" fill="rgb(222,148,16)"/>
<path d="M89 37h1v2h-1v-2z" fill="rgb(0,0,0)"/>
<path d="M12 38h2v1h-2v-1z" fill="rgb(115,65,16)"/>
<path d="M17 38h1v3h-1v-3z" fill="rgb(238,98,57)"/>
<path d="M38 38h1v3h-1v-3z" fill="rgb(238,98,57)"/>
<path d="M39 38h1v3h-1v-3z" fill="rgb(255,164,74)"/>
<path d="M51 38h1v1h-1v-1z" fill="rgb(255,164,74)"/>
<path d="M68 38h1v1h1v1h1v2h-1v-1h-3v-1h1v-2z" fill="rgb(238,98,57)"/>
<path d="M78 38h2v1h-1v1h-2v-1h1v-1z" fill="rgb(238,98,57)"/>
<path d="M81 38h1v1h-1v-1z" fill="rgb(115,65,16)"/>
<path d="M84 38h1v1h-1v-1z" fill="rgb(115,65,16)"/>
<path d="M85 38h1v2h-1v-2z" fill="rgb(222,148,16)"/>
<path d="M88 38h1v1h-1v-1z" fill="rgb(222,148,16)"/>
<path d="M6 39h1v2h-1v-2z" fill="rgb(0,0,0)"/>
<path d="M14 39h1v1h-1v-1z" fill="rgb(115,65,16)"/>
<path d="M49 39h1v1h-1v-1z" fill="rgb(255,164,74)"/>
<path d="M74 39h1v1h2v1h-2v1h-1v1h-1v-1h-1v-1h1v-1h1v-1z" fill="rgb(238,98,57)"/>
<path d="M79 39h2v1h-2v-1z" fill="rgb(115,65,16)"/>
<path d="M81 39h1v2h-1v-2z" fill="rgb(255,197,74)"/>
<path d="M82 39h2v1h1v1h-1v1h-2v1h-2v1h-2v1h-1v-3h1v-1h2v1h1v-1h1v-2z" fill="rgb(255,238,98)"/>
<path d="M84 39h1v1h-1v-1z" fill="rgb(255,197,74)"/>
<path d="M88 39h1v1h-1v-1z" fill="rgb(0,0,0)"/>
<path d="M13 40h1v2h-2v-1h1v-1z" fill="rgb(115,65,16)"/>
<path d="M14 40h1v1h1v1h-2v-2z" fill="rgb(238,98,57)"/>
<path d="M22 40h1v1h-1v-1z" fill="rgb(213,8,8)"/>
<path d="M26 40h1v2h1v1h3v-1h1v3h-1v1h-3v2h-1v1h3v1h1v1h1v-1h2v2h1v-1h1v-1h1v3h-2v1h-1
	v-1h-1v1h-1v1h-2v-2h1v-1h-1v-1h-1v-1h-1v2h-2v-1h1v-1h-1v-1h-1v-3h2v-1h1v-1h-1v-1
	h-2v-1h1v-2z" fill="rgb(213,8,8)"/>
<path d="M53 40h1v1h1v2h-1v-1h-2v-1h1v-1z" fill="rgb(213,8,8)"/>
<path d="M77 40h2v1h-2v-1z" fill="rgb(115,65,16)"/>
<path d="M79 40h1v1h-1v-1z" fill="rgb(255,197,74)"/>
<path d="M80 40h1v1h-1v-1z" fill="rgb(222,148,16)"/>
<path d="M87 40h1v2h-1v-2z" fill="rgb(115,65,16)"/>
<path d="M7 41h1v1h-1v-1z" fill="rgb(115,65,16)"/>
<path d="M11 41h1v1h-1v-1z" fill="rgb(222,148,16)"/>
<path d="M17 41h1v1h-1v-1z" fill="rgb(213,8,8)"/>
<path d="M18 41h1v1h-1v-1z" fill="rgb(238,98,57)"/>
<path d="M20 41h2v1h-2v-1z" fill="rgb(213,8,8)"/>
<path d="M39 41h1v1h-1v-1z" fill="rgb(238,98,57)"/>
<path d="M47 41h1v1h-1v-1z" fill="rgb(255,164,74)"/>
<path d="M50 41h1v2h-1v1h-1v-2h1v-1z" fill="rgb(255,164,74)"/>
<path d="M65 41h1v1h-1v-1z" fill="rgb(213,8,8)"/>
<path d="M66 41h1v1h-1v-1z" fill="rgb(238,98,57)"/>
<path d="M67 41h3v2h-1v-1h-2v-1z" fill="rgb(255,164,74)"/>
<path d="M71 41h1v1h-1v-1z" fill="rgb(115,65,16)"/>
<path d="M75 41h2v1h-2v-1z" fill="rgb(115,65,16)"/>
<path d="M77 41h1v1h-1v-1z" fill="rgb(255,197,74)"/>
<path d="M80 41h1v1h-1v-1z" fill="rgb(255,197,74)"/>
<path d="M86 41h1v1h-1v-1z" fill="rgb(222,148,16)"/>
<path d="M7 42h1v1h-1v-1z" fill="rgb(0,0,0)"/>
<path d="M14 42h1v1h-1v-1z" fill="rgb(222,148,16)"/>
<path d="M15 42h1v1h-1v-1z" fill="rgb(115,65,16)"/>
<path d="M16 42h2v1h-2v-1z" fill="rgb(238,98,57)"/>
<path d="M18 42h1v1h-1v-1z" fill="rgb(213,8,8)"/>
<path d="M19 42h3v1h-1v2h-2v-3z" fill="rgb(238,98,57)"/>
<path d="M22 42h1v1h-1v-1z" fill="rgb(213,8,8)"/>
<path d="M40 42h1v1h-1v-1z" fill="rgb(238,98,57)"/>
<path d="M43 42h1v1h-1v-1z" fill="rgb(255,164,74)"/>
<path d="M44 42h1v1h2v1h-1v1h-2v1h-1v4h1v-1h1v2h-1v1h-1v1h1v1h-2v-1h-1v-1h-1v-1h-1v-2h-1
	v-1h-1v-3h1v-1h1v1h1v1h1v-3h1v1h1v-1h1v-1z" fill="rgb(238,98,57)"/>
<path d="M45 42h2v1h-2v-1z" fill="rgb(255,164,74)"/>
<path d="M65 42h1v3h-1v2h-1v1h-2v-1h1v-1h1v-3h1v-1z" fill="rgb(238,98,57)"/>
<path d="M66 42h1v2h-1v-2z" fill="rgb(255,164,74)"/>
<path d="M67 42h2v2h-1v1h-2v-1h1v-2z" fill="rgb(255,213,98)"/>
<path d="M70 42h1v2h-1v-2z" fill="rgb(115,65,16)"/>
<path d="M71 42h1v1h1v2h-1v-1h-1v-2z" fill="rgb(255,197,74)"/>
<path d="M72 42h1v1h-1v-1z" fill="rgb(115,65,16)"/>
<path d="M74 42h1v1h-1v-1z" fill="rgb(115,65,16)"/>
<path d="M75 42h2v1h-2v-1z" fill="rgb(222,148,16)"/>
<path d="M86 42h1v1h-1v-1z" fill="rgb(115,65,16)"/>
<path d="M9 43h1v1h-1v-1z" fill="rgb(0,0,0)"/>
<path d="M10 43h1v1h-1v-1z" fill="rgb(222,148,16)"/>
<path d="M18 43h1v2h-1v-2z" fill="rgb(115,65,16)"/>
<path d="M21 43h1v1h1v-1h2v1h-1v2h-2v1h-2v-2h1v-2z" fill="rgb(213,8,8)"/>
<path d="M22 43h1v1h-1v-1z" fill="transparent"/>
<path d="M25 43h2v1h1v1h-1v1h-1v-1h-2v-1h1v-1z" fill="rgb(238,98,57)"/>
<path d="M40 43h1v3h-1v-1h-1v-1h1v-1z" fill="rgb(213,8,8)"/>
<path d="M42 43h1v1h-1v-1z" fill="rgb(255,164,74)"/>
<path d="M47 43h1v2h-1v1h-1v1h-1v1h3v4h-2v1h1v1h1v1h-1v1h-1v-1h-3v-1h1v-1h-1v-1h1v-1h1
	v-2h-1v1h-1v-4h1v-1h2v-1h1v-1z" fill="rgb(213,8,8)"/>
<path d="M69 43h1v1h-1v-1z" fill="rgb(238,98,57)"/>
<path d="M73 43h1v2h-1v-2z" fill="rgb(115,65,16)"/>
<path d="M85 43h1v1h-1v-1z" fill="rgb(115,65,16)"/>
<path d="M10 44h1v1h-1v-1z" fill="rgb(115,65,16)"/>
<path d="M50 44h1v2h-1v2h-2v-1h1v-2h1v-1z" fill="rgb(213,8,8)"/>
<path d="M61 44h1v1h2v1h-1v1h-1v-1h-1v-2z" fill="rgb(213,8,8)"/>
<path d="M68 44h1v1h-1v-1z" fill="rgb(255,164,74)"/>
<path d="M69 44h1v1h-1v-1z" fill="rgb(115,65,16)"/>
<path d="M70 44h1v2h-1v-2z" fill="rgb(222,148,16)"/>
<path d="M71 44h1v1h1v2h-1v1h-2v-2h1v-2z" fill="rgb(255,238,98)"/>
<path d="M83 44h2v1h-2v-1z" fill="rgb(115,65,16)"/>
<path d="M10 45h1v1h-1v-1z" fill="rgb(0,0,0)"/>
<path d="M11 45h1v1h-1v-1z" fill="rgb(222,148,16)"/>
<path d="M14 45h3v1h2v1h2v4h-3v-1h-1v-1h-1v-1h-2v-1h-2v-1h2v-1z" fill="rgb(222,148,16)"/>
<path d="M19 45h1v1h-1v-1z" fill="rgb(115,65,16)"/>
<path d="M24 45h2v1h-2v-1z" fill="rgb(255,164,74)"/>
<path d="M55 45h1v2h-1v1h-1v-2h1v-1z" fill="rgb(213,8,8)"/>
<path d="M60 45h1v1h-1v-1z" fill="rgb(238,98,57)"/>
<path d="M65 45h1v1h-1v-1z" fill="rgb(255,164,74)"/>
<path d="M66 45h3v2h-1v-1h-2v-1z" fill="rgb(115,65,16)"/>
<path d="M80 45h1v1h-1v-1z" fill="rgb(115,65,16)"/>
<path d="M81 45h2v1h-2v-1z" fill="rgb(0,0,0)"/>
<path d="M11 46h1v1h-1v-1z" fill="rgb(0,0,0)"/>
<path d="M19 46h1v1h-1v-1z" fill="rgb(255,197,74)"/>
<path d="M22 46h1v1h-1v-1z" fill="rgb(238,98,57)"/>
<path d="M23 46h1v1h-1v-1z" fill="rgb(255,164,74)"/>
<path d="M24 46h1v1h-1v-1z" fill="rgb(255,213,98)"/>
<path d="M56 46h1v1h-1v-1z" fill="rgb(238,98,57)"/>
<path d="M59 46h1v1h-1v-1z" fill="rgb(238,98,57)"/>
<path d="M60 46h1v1h-1v-1z" fill="rgb(255,164,74)"/>
<path d="M61 46h1v1h-1v-1z" fill="rgb(238,98,57)"/>
<path d="M65 46h1v1h-1v-1z" fill="rgb(115,65,16)"/>
<path d="M77 46h1v1h-1v-1z" fill="rgb(115,65,16)"/>
<path d="M78 46h3v1h-3v-1z" fill="rgb(0,0,0)"/>
<path d="M12 47h1v1h-1v-1z" fill="rgb(0,0,0)"/>
<path d="M13 47h1v1h-1v-1z" fill="rgb(115,65,16)"/>
<path d="M21 47h1v2h-1v-2z" fill="rgb(238,98,57)"/>
<path d="M22 47h2v3h1v2h-2v2h-1v1h-1v1h-1v-1h-1v1h-1v-1h-1v-2h3v1h1v-1h1v-2h1v-2h-1v-2z" fill="rgb(255,213,98)"/>
<path d="M24 47h1v1h-1v-1z" fill="rgb(255,164,74)"/>
<path d="M40 47h1v1h1v2h-1v-1h-1v-2z" fill="rgb(255,164,74)"/>
<path d="M55 47h1v2h-1v1h-1v1h-1v1h-1v-3h1v-1h2v-1z" fill="rgb(238,98,57)"/>
<path d="M56 47h1v1h1v1h-1v1h-2v-1h1v-2z" fill="rgb(255,164,74)"/>
<path d="M57 47h2v1h-2v-1z" fill="rgb(238,98,57)"/>
<path d="M59 47h2v1h-1v1h-2v-1h1v-1z" fill="rgb(255,213,98)"/>
<path d="M61 47h1v1h-1v-1z" fill="rgb(255,164,74)"/>
<path d="M64 47h1v1h-1v-1z" fill="rgb(115,65,16)"/>
<path d="M68 47h1v1h-1v-1z" fill="rgb(222,148,16)"/>
<path d="M76 47h2v1h-2v-1z" fill="rgb(0,0,0)"/>
<path d="M14 48h1v1h-1v-1z" fill="rgb(0,0,0)"/>
<path d="M15 48h1v1h-1v-1z" fill="rgb(115,65,16)"/>
<path d="M24 48h1v1h-1v-1z" fill="rgb(238,98,57)"/>
<path d="M51 48h2v1h-1v4h-1v-2h-1v-2h1v-1z" fill="rgb(213,8,8)"/>
<path d="M60 48h1v1h-1v-1z" fill="rgb(255,164,74)"/>
<path d="M61 48h3v1h-3v-1z" fill="rgb(115,65,16)"/>
<path d="M64 48h1v2h-1v-2z" fill="rgb(222,148,16)"/>
<path d="M67 48h2v1h-1v1h-2v-1h1v-1z" fill="rgb(255,238,98)"/>
<path d="M74 48h2v1h-2v-1z" fill="rgb(115,65,16)"/>
<path d="M15 49h1v1h-1v-1z" fill="rgb(0,0,0)"/>
<path d="M16 49h1v1h-1v-1z" fill="rgb(115,65,16)"/>
<path d="M21 49h1v2h-1v-2z" fill="rgb(213,8,8)"/>
<path d="M22 49h1v2h-1v-2z" fill="rgb(238,98,57)"/>
<path d="M24 49h1v1h-1v-1z" fill="rgb(255,164,74)"/>
<path d="M25 49h1v1h1v1h-1v1h-1v-3z" fill="rgb(238,98,57)"/>
<path d="M57 49h1v1h-1v-1z" fill="rgb(255,213,98)"/>
<path d="M58 49h2v1h-2v-1z" fill="rgb(255,164,74)"/>
<path d="M60 49h1v1h-1v-1z" fill="rgb(115,65,16)"/>
<path d="M71 49h3v1h-3v-1z" fill="rgb(115,65,16)"/>
<path d="M17 50h1v1h-1v-1z" fill="rgb(115,65,16)"/>
<path d="M28 50h1v1h1v1h1v1h-2v-1h-1v-2z" fill="rgb(238,98,57)"/>
<path d="M49 50h1v1h-1v-1z" fill="rgb(238,98,57)"/>
<path d="M54 50h3v1h-3v-1z" fill="rgb(115,65,16)"/>
<path d="M57 50h2v1h-2v-1z" fill="rgb(238,98,57)"/>
<path d="M59 50h1v1h-1v-1z" fill="rgb(115,65,16)"/>
<path d="M69 50h1v1h-1v-1z" fill="rgb(222,148,16)"/>
<path d="M70 50h1v1h-1v-1z" fill="rgb(115,65,16)"/>
<path d="M18 51h2v1h1v-1h1v2h-1v1h-1v-1h-3v-1h1v-1z" fill="rgb(238,98,57)"/>
<path d="M20 51h1v1h-1v-1z" fill="rgb(213,8,8)"/>
<path d="M39 51h1v1h-1v-1z" fill="rgb(213,8,8)"/>
<path d="M48 51h1v2h-1v1h-1v-1h-1v-1h2v-1z" fill="rgb(238,98,57)"/>
<path d="M49 51h1v1h-1v-1z" fill="rgb(213,8,8)"/>
<path d="M50 51h1v1h-1v-1z" fill="rgb(115,65,16)"/>
<path d="M53 51h1v1h-1v-1z" fill="rgb(115,65,16)"/>
<path d="M54 51h1v1h-1v-1z" fill="rgb(222,148,16)"/>
<path d="M55 51h2v1h1v1h-2v1h-2v-2h1v-1z" fill="rgb(255,197,74)"/>
<path d="M57 51h2v1h-2v-1z" fill="rgb(115,65,16)"/>
<path d="M59 51h1v1h-1v-1z" fill="rgb(222,148,16)"/>
<path d="M67 51h1v1h-1v-1z" fill="rgb(222,148,16)"/>
<path d="M68 51h2v1h-2v-1z" fill="rgb(115,65,16)"/>
<path d="M23 52h1v1h-1v-1z" fill="rgb(255,164,74)"/>
<path d="M24 52h1v2h-1v1h1v1h-2v2h-1v1h-3v1h-2v2h-1v2h-2v1h-2v-1h1v-1h1v-1h1v-2h1v-1h1
	v-2h1v-1h2v1h1v-1h1v-2h1v-1h1v-1z" fill="rgb(238,98,57)"/>
<path d="M25 52h1v2h-1v-2z" fill="rgb(213,8,8)"/>
<path d="M26 52h1v1h2v2h1v1h-1v1h-1v1h-2v-1h-1v-3h1v-2z" fill="rgb(222,148,16)"/>
<path d="M27 52h2v1h-2v-1z" fill="rgb(115,65,16)"/>
<path d="M40 52h1v1h1v1h-2v-2z" fill="rgb(213,8,8)"/>
<path d="M49 52h1v1h-1v-1z" fill="rgb(115,65,16)"/>
<path d="M50 52h1v2h1v-1h1v-1h1v2h2v-1h2v-1h1v2h1v-1h2v-1h4v1h-1v1h-2v1h-5v1h-4v1h-2v1
	h-3v1h-2v1h-2v1h-1v1h-3v1h-3v1h3v-1h3v-1h1v-1h2v-1h2v1h1v4h-1v2h-1v2h-1v1h-1v1
	h-1v-1h-3v-1h-1v-1h-1v1h-5v-1h-2v-1h-2v-1h-1v-1h-1v-1h2v1h1v-1h2v-1h3v-1h1v-1h1
	v-2h2v-1h1v-1h2v-1h2v1h1v-1h1v-1h1v-2h1v-1z" fill="rgb(222,148,16)"/>
<path d="M52 52h1v1h-1v-1z" fill="rgb(115,65,16)"/>
<path d="M66 52h1v1h-1v-1z" fill="rgb(115,65,16)"/>
<path d="M67 52h1v1h-1v-1z" fill="rgb(0,0,0)"/>
<path d="M16 53h1v1h-1v-1z" fill="rgb(238,98,57)"/>
<path d="M29 53h1v2h-1v-2z" fill="rgb(115,65,16)"/>
<path d="M33 53h1v1h-1v-1z" fill="rgb(238,98,57)"/>
<path d="M35 53h5v1h-5v-1z" fill="rgb(115,65,16)"/>
<path d="M48 53h1v2h-1v-2z" fill="rgb(115,65,16)"/>
<path d="M51 53h1v1h-1v-1z" fill="rgb(115,65,16)"/>
<path d="M65 53h1v1h-1v-1z" fill="rgb(0,0,0)"/>
<path d="M13 54h1v1h-1v-1z" fill="rgb(238,98,57)"/>
<path d="M14 54h3v1h1v2h-1v2h-1v-1h-2v-1h1v-2h-1v-1z" fill="rgb(255,164,74)"/>
<path d="M24 54h1v1h-1v-1z" fill="rgb(213,8,8)"/>
<path d="M32 54h1v1h-1v-1z" fill="rgb(0,0,0)"/>
<path d="M33 54h2v1h-2v-1z" fill="rgb(115,65,16)"/>
<path d="M35 54h5v1h2v2h-1v1h-1v1h-1v2h-1v1h-1v1h-3v1h-3v-1h-4v1h-2v1h-1v1h-1v1h-2v1h-3
	v-1h-1v-1h2v-1h1v-2h1v-2h-2v1h-1v1h-1v1h-1v-2h1v-2h2v-1h4v1h4v-1h3v-1h1v-1h1v1
	h1v1h3v-1h2v-2h-1v-1h-2v-1z" fill="rgb(255,197,74)"/>
<path d="M40 54h2v1h-2v-1z" fill="rgb(115,65,16)"/>
<path d="M42 54h1v1h-1v-1z" fill="rgb(0,0,0)"/>
<path d="M63 54h1v1h-1v-1z" fill="rgb(115,65,16)"/>
<path d="M64 54h1v1h-1v-1z" fill="rgb(0,0,0)"/>
<path d="M12 55h1v1h-1v-1z" fill="rgb(238,98,57)"/>
<path d="M13 55h2v2h-1v1h2v1h-1v3h-1v1h-1v1h-1v-3h1v-3h-1v-2h1v-1z" fill="rgb(255,213,98)"/>
<path d="M19 55h1v1h-1v-1z" fill="rgb(255,164,74)"/>
<path d="M21 55h1v1h-1v-1z" fill="rgb(255,164,74)"/>
<path d="M30 55h1v1h-1v-1z" fill="rgb(0,0,0)"/>
<path d="M31 55h1v1h-1v-1z" fill="rgb(115,65,16)"/>
<path d="M32 55h1v1h-1v-1z" fill="rgb(222,148,16)"/>
<path d="M33 55h4v1h1v2h-2v1h-3v-1h-1v-2h1v-1z" fill="rgb(255,238,98)"/>
<path d="M42 55h1v1h-1v-1z" fill="rgb(222,148,16)"/>
<path d="M43 55h1v1h-1v-1z" fill="rgb(0,0,0)"/>
<path d="M44 55h2v1h-2v-1z" fill="rgb(115,65,16)"/>
<path d="M47 55h1v1h-1v-1z" fill="rgb(115,65,16)"/>
<path d="M58 55h1v1h-1v-1z" fill="rgb(115,65,16)"/>
<path d="M59 55h4v1h-4v-1z" fill="rgb(0,0,0)"/>
<path d="M11 56h1v2h-1v-2z" fill="rgb(238,98,57)"/>
<path d="M20 56h1v1h-1v-1z" fill="rgb(255,164,74)"/>
<path d="M23 56h1v1h-1v-1z" fill="rgb(0,0,0)"/>
<path d="M24 56h1v1h-1v-1z" fill="rgb(115,65,16)"/>
<path d="M29 56h1v1h-1v-1z" fill="rgb(115,65,16)"/>
<path d="M30 56h2v1h-1v1h-1v1h-1v-2h1v-1z" fill="rgb(222,148,16)"/>
<path d="M42 56h2v1h-2v-1z" fill="rgb(115,65,16)"/>
<path d="M46 56h1v1h-1v-1z" fill="rgb(115,65,16)"/>
<path d="M54 56h1v1h-1v-1z" fill="rgb(115,65,16)"/>
<path d="M55 56h3v1h-3v-1z" fill="rgb(0,0,0)"/>
<path d="M23 57h1v1h1v1h-2v-2z" fill="transparent"/>
<path d="M24 57h1v1h-1v-1z" fill="rgb(0,0,0)"/>
<path d="M25 57h1v1h-1v-1z" fill="rgb(115,65,16)"/>
<path d="M28 57h1v1h-1v-1z" fill="rgb(0,0,0)"/>
<path d="M41 57h1v1h-1v-1z" fill="rgb(115,65,16)"/>
<path d="M52 57h1v1h-1v-1z" fill="rgb(115,65,16)"/>
<path d="M53 57h1v1h-1v-1z" fill="rgb(0,0,0)"/>
<path d="M12 58h1v3h-1v-3z" fill="rgb(238,98,57)"/>
<path d="M22 58h1v1h-1v-1z" fill="rgb(0,0,0)"/>
<path d="M25 58h1v1h-1v-1z" fill="rgb(0,0,0)"/>
<path d="M26 58h3v1h-3v-1z" fill="rgb(115,65,16)"/>
<path d="M40 58h1v1h-1v-1z" fill="rgb(115,65,16)"/>
<path d="M49 58h1v1h-1v-1z" fill="rgb(115,65,16)"/>
<path d="M50 58h2v1h-2v-1z" fill="rgb(0,0,0)"/>
<path d="M15 59h1v1h-1v-1z" fill="rgb(255,164,74)"/>
<path d="M23 59h2v1h-2v-1z" fill="rgb(0,0,0)"/>
<path d="M25 59h1v1h-1v-1z" fill="rgb(115,65,16)"/>
<path d="M26 59h1v1h-1v-1z" fill="rgb(222,148,16)"/>
<path d="M47 59h1v1h-1v-1z" fill="rgb(115,65,16)"/>
<path d="M48 59h2v1h-2v-1z" fill="rgb(0,0,0)"/>
<path d="M50 59h1v1h-1v-1z" fill="rgb(238,98,57)"/>
<path d="M51 59h1v1h-1v-1z" fill="rgb(213,8,8)"/>
<path d="M45 60h1v1h-1v-1z" fill="rgb(115,65,16)"/>
<path d="M46 60h1v1h-1v-1z" fill="rgb(0,0,0)"/>
<path d="M49 60h1v1h-1v-1z" fill="rgb(115,65,16)"/>
<path d="M50 60h1v1h-1v-1z" fill="rgb(213,8,8)"/>
<path d="M11 61h1v3h-1v-3z" fill="rgb(238,98,57)"/>
<path d="M19 61h1v1h-1v-1z" fill="rgb(82,57,41)"/>
<path d="M20 61h1v1h-1v-1z" fill="rgb(139,98,74)"/>
<path d="M44 61h1v1h-1v-1z" fill="rgb(115,65,16)"/>
<path d="M50 61h1v4h-1v-4z" fill="rgb(0,0,0)"/>
<path d="M18 62h1v1h-1v-1z" fill="rgb(82,57,41)"/>
<path d="M19 62h1v1h-1v-1z" fill="rgb(205,205,205)"/>
<path d="M20 62h1v1h-1v-1z" fill="rgb(222,148,16)"/>
<path d="M41 62h1v1h-1v-1z" fill="rgb(115,65,16)"/>
<path d="M42 62h2v1h-2v-1z" fill="rgb(0,0,0)"/>
<path d="M17 63h1v1h-1v-1z" fill="rgb(82,57,41)"/>
<path d="M18 63h1v2h-1v-2z" fill="rgb(0,0,0)"/>
<path d="M19 63h1v2h-1v-2z" fill="rgb(255,255,255)"/>
<path d="M27 63h1v1h-1v-1z" fill="rgb(222,148,16)"/>
<path d="M28 63h1v2h-1v-2z" fill="rgb(115,65,16)"/>
<path d="M29 63h2v1h-2v-1z" fill="rgb(0,0,0)"/>
<path d="M38 63h3v1h-3v-1z" fill="rgb(115,65,16)"/>
<path d="M14 64h2v2h-1v-1h-1v-1z" fill="rgb(255,197,74)"/>
<path d="M16 64h1v3h-2v-1h1v-2z" fill="rgb(82,57,41)"/>
<path d="M17 64h1v1h-1v-1z" fill="rgb(255,255,255)"/>
<path d="M25 64h1v2h-1v-2z" fill="rgb(115,65,16)"/>
<path d="M26 64h2v2h-1v-1h-1v-1z" fill="rgb(0,0,0)"/>
<path d="M31 64h1v1h-1v-1z" fill="rgb(115,65,16)"/>
<path d="M13 65h2v1h-2v-1z" fill="rgb(82,57,41)"/>
<path d="M17 65h1v1h-1v-1z" fill="rgb(0,0,0)"/>
<path d="M18 65h1v1h-1v-1z" fill="rgb(255,255,255)"/>
<path d="M24 65h1v1h-1v-1z" fill="rgb(0,0,0)"/>
<path d="M28 65h1v1h-1v-1z" fill="rgb(222,148,16)"/>
<path d="M29 65h1v1h-1v-1z" fill="rgb(115,65,16)"/>
<path d="M49 65h1v2h-1v-2z" fill="rgb(0,0,0)"/>
<path d="M12 66h1v2h-1v-2z" fill="rgb(0,0,0)"/>
<path d="M13 66h1v1h2v2h-1v1h-1v1h-1v1h-1v1h-1v-2h1v-2h1v-3z" fill="rgb(180,139,98)"/>
<path d="M14 66h1v1h-1v-1z" fill="rgb(139,98,74)"/>
<path d="M23 66h1v1h-1v-1z" fill="rgb(0,0,0)"/>
<path d="M28 66h1v1h-1v-1z" fill="rgb(115,65,16)"/>
<path d="M29 66h1v1h-1v-1z" fill="rgb(222,148,16)"/>
<path d="M30 66h1v1h-1v-1z" fill="rgb(0,0,0)"/>
<path d="M16 67h1v1h-1v-1z" fill="rgb(139,98,74)"/>
<path d="M17 67h1v1h-1v-1z" fill="rgb(82,57,41)"/>
<path d="M21 67h2v1h-2v-1z" fill="rgb(0,0,0)"/>
<path d="M27 67h2v1h-2v-1z" fill="rgb(0,0,0)"/>
<path d="M29 67h2v1h-2v-1z" fill="rgb(82,57,41)"/>
<path d="M31 67h1v1h-1v-1z" fill="rgb(0,0,0)"/>
<path d="M32 67h1v1h-1v-1z" fill="rgb(115,65,16)"/>
<path d="M48 67h1v1h-1v-1z" fill="rgb(115,65,16)"/>
<path d="M12 68h1v1h-1v-1z" fill="rgb(82,57,41)"/>
<path d="M16 68h5v1h-3v1h-1v-1h-1v-1z" fill="rgb(0,0,0)"/>
<path d="M26 68h3v1h-3v-1z" fill="rgb(82,57,41)"/>
<path d="M29 68h4v2h-1v-1h-1v1h-1v-1h-1v-1z" fill="rgb(139,98,74)"/>
<path d="M33 68h1v1h-1v-1z" fill="rgb(0,0,0)"/>
<path d="M34 68h1v1h-1v-1z" fill="rgb(115,65,16)"/>
<path d="M40 68h1v1h-1v-1z" fill="rgb(115,65,16)"/>
<path d="M48 68h1v1h-1v-1z" fill="rgb(0,0,0)"/>
<path d="M11 69h1v1h-1v-1z" fill="rgb(0,0,0)"/>
<path d="M15 69h1v1h-1v-1z" fill="rgb(0,0,0)"/>
<path d="M16 69h1v1h-1v-1z" fill="rgb(139,98,74)"/>
<path d="M25 69h1v2h-1v-2z" fill="rgb(82,57,41)"/>
<path d="M26 69h1v1h-1v-1z" fill="rgb(139,98,74)"/>
<path d="M27 69h1v1h-1v-1z" fill="rgb(0,0,0)"/>
<path d="M28 69h2v1h-1v1h-1v1h-1v-2h1v-1z" fill="rgb(180,139,98)"/>
<path d="M31 69h1v1h-1v-1z" fill="rgb(180,139,98)"/>
<path d="M33 69h1v1h-1v-1z" fill="rgb(82,57,41)"/>
<path d="M34 69h3v1h-3v-1z" fill="rgb(0,0,0)"/>
<path d="M37 69h3v1h-3v-1z" fill="rgb(115,65,16)"/>
<path d="M40 69h2v1h2v1h-3v-1h-1v-1z" fill="rgb(0,0,0)"/>
<path d="M47 69h1v1h-1v-1z" fill="rgb(0,0,0)"/>
<path d="M11 70h1v1h-1v-1z" fill="rgb(82,57,41)"/>
<path d="M14 70h1v1h-1v-1z" fill="rgb(0,0,0)"/>
<path d="M15 70h1v1h-1v-1z" fill="rgb(139,98,74)"/>
<path d="M16 70h1v1h-1v-1z" fill="rgb(0,0,0)"/>
<path d="M26 70h1v1h-1v-1z" fill="rgb(0,0,0)"/>
<path d="M29 70h1v1h-1v-1z" fill="rgb(82,57,41)"/>
<path d="M30 70h1v2h-1v1h-1v-2h1v-1z" fill="rgb(180,139,98)"/>
<path d="M31 70h1v1h-1v-1z" fill="rgb(82,57,41)"/>
<path d="M32 70h1v1h-1v-1z" fill="rgb(0,0,0)"/>
<path d="M44 70h1v1h-1v-1z" fill="rgb(115,65,16)"/>
<path d="M46 70h2v1h-2v-1z" fill="rgb(82,57,41)"/>
<path d="M48 70h1v1h-1v-1z" fill="rgb(0,0,0)"/>
<path d="M10 71h1v2h-1v-2z" fill="rgb(82,57,41)"/>
<path d="M13 71h1v1h-1v-1z" fill="rgb(82,57,41)"/>
<path d="M14 71h1v1h-1v-1z" fill="rgb(139,98,74)"/>
<path d="M15 71h1v1h-1v-1z" fill="rgb(0,0,0)"/>
<path d="M25 71h1v2h-1v-2z" fill="rgb(0,0,0)"/>
<path d="M26 71h1v1h1v1h-2v-2z" fill="rgb(139,98,74)"/>
<path d="M28 71h1v1h-1v-1z" fill="rgb(82,57,41)"/>
<path d="M31 71h1v1h-1v-1z" fill="rgb(0,0,0)"/>
<path d="M44 71h1v4h-1v-4z" fill="rgb(0,0,0)"/>
<path d="M45 71h3v5h-1v-1h-1v-3h-1v-1z" fill="rgb(139,98,74)"/>
<path d="M48 71h1v4h-1v-4z" fill="rgb(82,57,41)"/>
<path d="M49 71h1v1h-1v-1z" fill="rgb(0,0,0)"/>
<path d="M12 72h1v1h-1v-1z" fill="rgb(139,98,74)"/>
<path d="M13 72h1v1h-1v-1z" fill="rgb(0,0,0)"/>
<path d="M14 72h1v1h-1v-1z" fill="rgb(82,57,41)"/>
<path d="M28 72h1v3h-1v-3z" fill="rgb(0,0,0)"/>
<path d="M30 72h1v3h-1v-3z" fill="rgb(0,0,0)"/>
<path d="M45 72h1v3h-1v-3z" fill="rgb(180,139,98)"/>
<path d="M49 72h1v1h-1v-1z" fill="rgb(139,98,74)"/>
<path d="M50 72h1v2h-1v-2z" fill="rgb(0,0,0)"/>
<path d="M9 73h1v1h-1v-1z" fill="rgb(0,0,0)"/>
<path d="M10 73h1v1h-1v-1z" fill="rgb(180,139,98)"/>
<path d="M11 73h1v1h-1v-1z" fill="rgb(139,98,74)"/>
<path d="M12 73h1v1h-1v-1z" fill="rgb(0,0,0)"/>
<path d="M13 73h1v1h-1v-1z" fill="rgb(82,57,41)"/>
<path d="M26 73h1v1h-1v-1z" fill="rgb(98,98,98)"/>
<path d="M27 73h1v1h-1v-1z" fill="rgb(255,255,255)"/>
<path d="M29 73h1v1h-1v-1z" fill="rgb(139,98,74)"/>
<path d="M49 73h1v1h-1v-1z" fill="rgb(255,255,255)"/>
<path d="M9 74h1v2h-1v-2z" fill="rgb(82,57,41)"/>
<path d="M10 74h1v1h-1v-1z" fill="rgb(139,98,74)"/>
<path d="M11 74h1v1h-1v-1z" fill="rgb(0,0,0)"/>
<path d="M27 74h1v1h-1v-1z" fill="rgb(98,98,98)"/>
<path d="M29 74h1v1h-1v-1z" fill="rgb(255,255,255)"/>
<path d="M49 74h1v1h-1v-1z" fill="rgb(98,98,98)"/>
<path d="M10 75h1v1h-1v-1z" fill="rgb(0,0,0)"/>
<path d="M29 75h1v1h-1v-1z" fill="rgb(98,98,98)"/>
<path d="M43 75h1v2h-1v-2z" fill="rgb(0,0,0)"/>
<path d="M44 75h1v2h-1v-2z" fill="rgb(180,139,98)"/>
<path d="M45 75h1v2h-1v-2z" fill="rgb(82,57,41)"/>
<path d="M46 75h1v2h-1v-2z" fill="rgb(180,139,98)"/>
<path d="M48 75h1v3h-1v-3z" fill="rgb(180,139,98)"/>
<path d="M49 75h1v2h-1v-2z" fill="rgb(82,57,41)"/>
<path d="M47 76h1v3h-1v-3z" fill="rgb(82,57,41)"/>
<path d="M42 77h1v1h-1v-1z" fill="rgb(82,57,41)"/>
<path d="M43 77h1v1h-1v-1z" fill="rgb(180,139,98)"/>
<path d="M44 77h1v3h-1v-3z" fill="rgb(82,57,41)"/>
<path d="M45 77h1v3h-1v-3z" fill="rgb(180,139,98)"/>
<path d="M46 77h1v3h-1v-3z" fill="rgb(139,98,74)"/>
<path d="M49 77h1v2h-1v-2z" fill="rgb(0,0,0)"/>
<path d="M42 78h1v2h-1v-2z" fill="rgb(0,0,0)"/>
<path d="M43 78h1v2h-1v-2z" fill="rgb(139,98,74)"/>
<path d="M48 78h1v1h-1v-1z" fill="rgb(139,98,74)"/>
<path d="M47 79h1v2h-1v-2z" fill="rgb(0,0,0)"/>
<path d="M48 79h1v1h-1v-1z" fill="rgb(82,57,41)"/>
<path d="M49 79h1v1h-1v-1z" fill="rgb(255,255,255)"/>
<path d="M50 79h1v1h-1v-1z" fill="rgb(0,0,0)"/>
<path d="M43 80h1v1h-1v-1z" fill="rgb(0,0,0)"/>
<path d="M44 80h1v1h-1v-1z" fill="rgb(255,255,255)"/>
<path d="M45 80h1v1h-1v-1z" fill="rgb(82,57,41)"/>
<path d="M46 80h1v1h-1v-1z" fill="rgb(180,139,98)"/>
<path d="M49 80h2v1h-2v-1z" fill="rgb(98,98,98)"/>
<path d="M44 81h1v1h-1v-1z" fill="rgb(0,0,0)"/>
<path d="M45 81h1v1h-1v-1z" fill="rgb(98,98,98)"/>
<path d="M46 81h1v1h-1v-1z" fill="rgb(0,0,0)"/>
<path d="M47 81h1v1h-1v-1z" fill="rgb(255,255,255)"/>
<path d="M46 82h2v1h-2v-1z" fill="rgb(98,98,98)"/>
</svg>
