<?xml version="1.0" encoding="utf-8"?>
<!-- generated at drububu.com  -->
<!DOCTYPE svg PUBLIC "-//W3C//DTD SVG 1.1//EN" "http://www.w3.org/Graphics/SVG/1.1/DTD/svg11.dtd">
<svg version="1.1" preserveAspectRatio="xMinYMin meet" xmlns="http://www.w3.org/2000/svg" xmlns:xlink="http://www.w3.org/1999/xlink" x="0px" y="0px" width="96px" height="96px" viewBox="0 0 96 96">
<path d="M0 0h96v96h-96v-96z" fill="transparent"/>
<path d="M54 26h2v3h-1v-2h-1v-1z" fill="rgb(156,148,139)"/>
<path d="M53 27h1v1h-1v-1z" fill="rgb(156,148,139)"/>
<path d="M54 27h1v5h-1v4h1v-1h1v-1h2v-1h2v1h-1v1h-1v1h-2v1h-1v2h-2v-1h-1v-2h-1v-4h1v-2h1
	v-2h1v-1z" fill="rgb(255,255,255)"/>
<path d="M52 28h1v2h-1v-2z" fill="rgb(156,148,139)"/>
<path d="M55 29h1v3h-1v-3z" fill="rgb(90,90,90)"/>
<path d="M41 30h1v1h-1v-1z" fill="rgb(156,148,139)"/>
<path d="M42 30h1v1h-1v-1z" fill="rgb(90,90,90)"/>
<path d="M51 30h1v2h-1v-2z" fill="rgb(156,148,139)"/>
<path d="M40 31h1v2h-1v-2z" fill="rgb(156,148,139)"/>
<path d="M41 31h1v4h-1v-4z" fill="rgb(255,255,255)"/>
<path d="M42 31h1v2h-1v-2z" fill="rgb(0,0,0)"/>
<path d="M50 32h1v2h-1v-2z" fill="rgb(90,90,90)"/>
<path d="M54 32h1v1h1v2h-1v1h-1v-4z" fill="rgb(222,213,222)"/>
<path d="M55 32h1v1h-1v-1z" fill="rgb(156,148,139)"/>
<path d="M56 32h2v1h-2v-1z" fill="rgb(90,90,90)"/>
<path d="M58 32h3v1h-3v-1z" fill="rgb(156,148,139)"/>
<path d="M40 33h1v2h-1v-2z" fill="rgb(90,90,90)"/>
<path d="M42 33h1v2h-1v-2z" fill="rgb(222,213,222)"/>
<path d="M43 33h1v2h-1v-2z" fill="rgb(0,0,0)"/>
<path d="M45 33h2v1h-2v-1z" fill="rgb(90,98,189)"/>
<path d="M47 33h3v1h-3v-1z" fill="rgb(41,49,131)"/>
<path d="M56 33h1v1h-1v-1z" fill="rgb(156,148,139)"/>
<path d="M57 33h1v1h-1v-1z" fill="rgb(222,213,222)"/>
<path d="M60 33h1v1h-1v-1z" fill="rgb(90,90,90)"/>
<path d="M44 34h1v1h-1v-1z" fill="rgb(90,98,189)"/>
<path d="M45 34h2v1h1v2h-1v1h-1v1h-1v-1h-1v-1h-1v1h-1v-2h1v-1h2v-1z" fill="rgb(180,205,255)"/>
<path d="M47 34h3v2h1v1h-3v-2h-1v-1z" fill="rgb(139,156,246)"/>
<path d="M50 34h1v2h-1v-2z" fill="rgb(41,49,131)"/>
<path d="M59 34h1v1h-1v-1z" fill="rgb(90,90,90)"/>
<path d="M39 35h1v1h-1v-1z" fill="rgb(90,90,90)"/>
<path d="M40 35h2v1h-1v2h-1v-3z" fill="rgb(222,213,222)"/>
<path d="M42 35h1v1h-1v-1z" fill="rgb(90,98,189)"/>
<path d="M58 35h1v2h-1v-2z" fill="rgb(0,0,0)"/>
<path d="M39 36h1v2h-1v-2z" fill="rgb(0,0,0)"/>
<path d="M41 36h1v1h-1v-1z" fill="rgb(90,98,189)"/>
<path d="M51 36h1v2h-1v-2z" fill="rgb(41,49,131)"/>
<path d="M56 36h1v1h-1v-1z" fill="rgb(156,148,139)"/>
<path d="M57 36h1v1h2v1h-2v1h-2v-2h1v-1z" fill="rgb(222,213,222)"/>
<path d="M59 36h1v1h-1v-1z" fill="rgb(90,90,90)"/>
<path d="M41 37h1v1h-1v-1z" fill="rgb(41,49,131)"/>
<path d="M43 37h1v1h-1v-1z" fill="rgb(139,156,246)"/>
<path d="M47 37h1v1h-1v-1z" fill="rgb(90,98,189)"/>
<path d="M48 37h2v1h1v1h1v2h-1v-1h-1v1h1v1h-1v1h-1v-1h-1v-2h1v-2h-1v-1z" fill="rgb(0,0,0)"/>
<path d="M50 37h1v1h-1v-1z" fill="rgb(115,131,213)"/>
<path d="M55 37h1v2h-1v-2z" fill="rgb(156,148,139)"/>
<path d="M60 37h1v1h-1v-1z" fill="rgb(90,90,90)"/>
<path d="M39 38h1v1h-1v-1z" fill="rgb(90,90,90)"/>
<path d="M40 38h1v1h-1v-1z" fill="rgb(90,98,189)"/>
<path d="M41 38h1v1h-1v-1z" fill="rgb(180,205,255)"/>
<path d="M42 38h2v2h-2v-2z" fill="rgb(255,255,255)"/>
<path d="M44 38h1v2h-1v-2z" fill="rgb(90,98,189)"/>
<path d="M46 38h1v2h1v1h-3v1h-1v1h-1v-1h-1v-1h2v-1h1v-1h1v-1z" fill="rgb(139,156,246)"/>
<path d="M47 38h1v2h-1v-2z" fill="rgb(0,0,0)"/>
<path d="M48 38h1v2h-1v-2z" fill="rgb(255,255,255)"/>
<path d="M51 38h1v1h-1v-1z" fill="rgb(139,156,246)"/>
<path d="M52 38h1v1h-1v-1z" fill="rgb(41,49,131)"/>
<path d="M58 38h2v1h-2v-1z" fill="rgb(90,90,90)"/>
<path d="M40 39h1v2h-1v-2z" fill="rgb(41,49,131)"/>
<path d="M41 39h1v2h-1v-2z" fill="rgb(139,156,246)"/>
<path d="M52 39h1v1h1v4h-1v1h-2v-2h-1v-1h1v-1h1v-2z" fill="rgb(139,156,246)"/>
<path d="M53 39h3v1h-3v-1z" fill="rgb(0,0,0)"/>
<path d="M56 39h2v1h-2v-1z" fill="rgb(90,90,90)"/>
<path d="M42 40h2v1h-2v-1z" fill="rgb(90,98,189)"/>
<path d="M50 40h1v1h-1v-1z" fill="rgb(156,148,139)"/>
<path d="M54 40h2v2h1v2h1v1h1v1h1v2h1v2h1v4h1v4h-1v2h-1v-5h-1v-3h-1v-2h-1v-1h-1v-1h-2v-1
	h-2v-1h-1v-1h1v-1h1v-4z" fill="rgb(115,131,213)"/>
<path d="M56 40h1v2h-1v-2z" fill="rgb(41,49,131)"/>
<path d="M41 41h1v1h1v1h-2v-2z" fill="rgb(0,0,0)"/>
<path d="M45 41h3v1h-3v-1z" fill="rgb(90,90,90)"/>
<path d="M44 42h1v1h-1v-1z" fill="rgb(90,90,90)"/>
<path d="M45 42h4v3h-1v1h-1v1h-4v-3h1v-1h1v-1z" fill="rgb(255,255,255)"/>
<path d="M57 42h1v2h-1v-2z" fill="rgb(41,49,131)"/>
<path d="M42 43h1v1h-1v-1z" fill="rgb(41,49,131)"/>
<path d="M43 43h1v1h-1v-1z" fill="rgb(90,90,90)"/>
<path d="M49 43h1v3h-1v1h-1v1h-4v-1h3v-1h1v-1h1v-2z" fill="rgb(222,213,222)"/>
<path d="M50 43h1v1h-1v-1z" fill="rgb(90,90,90)"/>
<path d="M42 44h1v3h-1v-3z" fill="rgb(90,90,90)"/>
<path d="M50 44h1v2h-1v-2z" fill="rgb(0,0,0)"/>
<path d="M58 44h1v1h-1v-1z" fill="rgb(41,49,131)"/>
<path d="M51 45h1v1h1v1h-1v1h-1v1h-1v-1h-1v-1h1v-1h1v-1z" fill="rgb(90,98,189)"/>
<path d="M59 45h1v1h-1v-1z" fill="rgb(41,49,131)"/>
<path d="M49 46h1v1h-1v-1z" fill="rgb(0,0,0)"/>
<path d="M60 46h1v1h-1v-1z" fill="rgb(41,49,131)"/>
<path d="M43 47h1v1h-1v-1z" fill="rgb(90,90,90)"/>
<path d="M48 47h1v1h1v1h-5v-1h3v-1z" fill="rgb(0,0,0)"/>
<path d="M52 47h3v3h-1v1h-2v-1h-1v-2h1v-1z" fill="rgb(222,213,222)"/>
<path d="M60 47h1v1h-1v-1z" fill="rgb(0,0,0)"/>
<path d="M44 48h1v1h-1v-1z" fill="rgb(90,90,90)"/>
<path d="M55 48h2v2h1v1h1v2h1v3h1v6h-1v1h-1v1h-2v1h-4v-1h-1v-2h1v-11h1v-1h1v-2z" fill="rgb(255,255,255)"/>
<path d="M61 48h1v1h-1v-1z" fill="rgb(41,49,131)"/>
<path d="M50 49h1v1h-1v-1z" fill="rgb(0,0,0)"/>
<path d="M57 49h1v1h-1v-1z" fill="rgb(222,213,222)"/>
<path d="M61 49h1v1h-1v-1z" fill="rgb(0,0,0)"/>
<path d="M32 50h1v1h-1v-1z" fill="rgb(90,98,189)"/>
<path d="M33 50h1v2h-1v-2z" fill="rgb(41,49,131)"/>
<path d="M51 50h1v1h-1v-1z" fill="rgb(0,0,0)"/>
<path d="M58 50h1v1h-1v-1z" fill="rgb(222,213,222)"/>
<path d="M62 50h1v1h-1v-1z" fill="rgb(41,49,131)"/>
<path d="M31 51h1v1h-1v-1z" fill="rgb(90,98,189)"/>
<path d="M32 51h1v1h-1v-1z" fill="rgb(139,156,246)"/>
<path d="M51 51h1v1h-1v-1z" fill="rgb(90,90,90)"/>
<path d="M52 51h1v1h-1v-1z" fill="rgb(156,148,139)"/>
<path d="M62 51h1v2h-1v-2z" fill="rgb(0,0,0)"/>
<path d="M30 52h1v2h-1v-2z" fill="rgb(41,49,131)"/>
<path d="M31 52h1v3h1v3h-2v-6z" fill="rgb(139,156,246)"/>
<path d="M32 52h1v1h-1v-1z" fill="rgb(90,98,189)"/>
<path d="M52 52h1v1h-1v-1z" fill="rgb(41,49,131)"/>
<path d="M59 52h1v1h-1v-1z" fill="rgb(222,213,222)"/>
<path d="M32 53h1v2h-1v-2z" fill="rgb(41,49,131)"/>
<path d="M52 53h1v2h-1v-2z" fill="rgb(0,0,0)"/>
<path d="M62 53h1v1h-1v-1z" fill="rgb(41,49,131)"/>
<path d="M29 54h1v4h-1v-4z" fill="rgb(41,49,131)"/>
<path d="M30 54h1v1h-1v-1z" fill="rgb(222,213,222)"/>
<path d="M41 54h1v1h-1v-1z" fill="rgb(41,49,131)"/>
<path d="M42 54h5v1h-5v-1z" fill="rgb(0,0,0)"/>
<path d="M47 54h1v1h-1v-1z" fill="rgb(41,49,131)"/>
<path d="M63 54h1v2h-1v-2z" fill="rgb(41,49,131)"/>
<path d="M30 55h1v2h-1v-2z" fill="rgb(255,255,255)"/>
<path d="M33 55h1v1h-1v-1z" fill="rgb(41,49,131)"/>
<path d="M40 55h1v1h-1v-1z" fill="rgb(41,49,131)"/>
<path d="M41 55h6v1h-1v1h1v1h-1v1h1v1h1v3h-1v-1h-3v-1h-4v1h-5v-1h3v-1h2v-1h1v-1h1v-2h-1
	v-1z" fill="rgb(90,98,189)"/>
<path d="M47 55h1v1h-1v-1z" fill="rgb(115,131,213)"/>
<path d="M48 55h1v1h-1v-1z" fill="rgb(90,98,189)"/>
<path d="M49 55h2v1h-2v-1z" fill="rgb(41,49,131)"/>
<path d="M52 55h1v3h-1v-1h-1v-1h1v-1z" fill="rgb(41,49,131)"/>
<path d="M60 55h1v1h-1v-1z" fill="rgb(222,213,222)"/>
<path d="M33 56h1v1h1v1h3v-1h2v-1h2v2h-1v1h-1v1h-2v1h-4v-1h-2v-2h1v-2z" fill="rgb(115,131,213)"/>
<path d="M34 56h2v1h-2v-1z" fill="rgb(41,49,131)"/>
<path d="M38 56h2v1h-2v-1z" fill="rgb(41,49,131)"/>
<path d="M46 56h1v1h-1v-1z" fill="rgb(115,131,213)"/>
<path d="M47 56h1v1h-1v-1z" fill="rgb(90,98,189)"/>
<path d="M48 56h1v1h-1v-1z" fill="rgb(115,131,213)"/>
<path d="M49 56h1v1h-1v-1z" fill="rgb(90,98,189)"/>
<path d="M50 56h1v1h1v1h-1v2h-1v1h1v2h-1v1h-2v-4h1v-1h1v-1h-1v-1h1v-1z" fill="rgb(115,131,213)"/>
<path d="M63 56h1v6h-1v-6z" fill="rgb(0,0,0)"/>
<path d="M30 57h1v1h-1v-1z" fill="rgb(222,213,222)"/>
<path d="M35 57h1v1h-1v-1z" fill="rgb(90,98,189)"/>
<path d="M36 57h2v1h-2v-1z" fill="rgb(41,49,131)"/>
<path d="M47 57h1v1h-1v-1z" fill="rgb(115,131,213)"/>
<path d="M48 57h1v1h-1v-1z" fill="rgb(90,98,189)"/>
<path d="M30 58h1v1h-1v-1z" fill="rgb(41,49,131)"/>
<path d="M31 58h1v2h-1v-2z" fill="rgb(222,213,222)"/>
<path d="M46 58h1v1h-1v-1z" fill="rgb(115,131,213)"/>
<path d="M47 58h1v1h-1v-1z" fill="rgb(90,98,189)"/>
<path d="M48 58h1v1h-1v-1z" fill="rgb(115,131,213)"/>
<path d="M49 58h1v1h-1v-1z" fill="rgb(90,98,189)"/>
<path d="M51 58h1v2h-1v-2z" fill="rgb(41,49,131)"/>
<path d="M52 58h1v1h-1v-1z" fill="rgb(90,98,189)"/>
<path d="M62 58h1v4h-1v3h-1v2h-1v-3h1v-4h1v-2z" fill="rgb(90,98,189)"/>
<path d="M30 59h1v1h-1v-1z" fill="rgb(0,0,0)"/>
<path d="M47 59h1v1h-1v-1z" fill="rgb(115,131,213)"/>
<path d="M48 59h1v1h-1v-1z" fill="rgb(90,98,189)"/>
<path d="M52 59h1v2h-1v2h-1v-3h1v-1z" fill="rgb(139,156,246)"/>
<path d="M31 60h1v1h-1v-1z" fill="rgb(0,0,0)"/>
<path d="M32 60h1v1h-1v-1z" fill="rgb(222,213,222)"/>
<path d="M33 60h1v1h-1v-1z" fill="rgb(90,98,189)"/>
<path d="M50 60h1v1h-1v-1z" fill="rgb(90,98,189)"/>
<path d="M32 61h1v1h-1v-1z" fill="rgb(0,0,0)"/>
<path d="M33 61h2v1h-2v-1z" fill="rgb(156,148,139)"/>
<path d="M40 61h2v1h-2v-1z" fill="rgb(41,49,131)"/>
<path d="M42 61h1v1h-1v-1z" fill="rgb(0,0,0)"/>
<path d="M43 61h1v1h-1v-1z" fill="rgb(41,49,131)"/>
<path d="M52 61h1v1h-1v-1z" fill="rgb(222,213,222)"/>
<path d="M33 62h1v1h-1v-1z" fill="rgb(41,49,131)"/>
<path d="M34 62h1v1h-1v-1z" fill="rgb(0,0,0)"/>
<path d="M35 62h3v1h-3v-1z" fill="rgb(156,148,139)"/>
<path d="M38 62h1v1h-1v-1z" fill="rgb(41,49,131)"/>
<path d="M39 62h1v1h-1v-1z" fill="rgb(0,0,0)"/>
<path d="M44 62h2v1h-2v-1z" fill="rgb(0,0,0)"/>
<path d="M46 62h1v1h-1v-1z" fill="rgb(222,213,222)"/>
<path d="M60 62h1v2h-1v3h-1v1h-1v1h-6v-1h-2v-1h-1v-2h-1v-1h3v-1h1v1h1v1h4v-1h2v-1h1v-1z" fill="rgb(222,213,222)"/>
<path d="M62 62h1v3h-1v-3z" fill="rgb(0,0,0)"/>
<path d="M35 63h3v1h-3v-1z" fill="rgb(0,0,0)"/>
<path d="M46 63h1v1h-1v-1z" fill="rgb(0,0,0)"/>
<path d="M47 63h1v1h-1v-1z" fill="rgb(222,213,222)"/>
<path d="M50 63h1v1h-1v-1z" fill="rgb(139,156,246)"/>
<path d="M47 64h1v1h-1v-1z" fill="rgb(0,0,0)"/>
<path d="M48 65h1v1h-1v-1z" fill="rgb(41,49,131)"/>
<path d="M61 65h1v1h-1v-1z" fill="rgb(0,0,0)"/>
<path d="M48 66h1v1h-1v-1z" fill="rgb(0,0,0)"/>
<path d="M61 66h1v1h-1v-1z" fill="rgb(41,49,131)"/>
<path d="M49 67h1v1h-1v-1z" fill="rgb(0,0,0)"/>
<path d="M59 67h1v1h-1v-1z" fill="rgb(90,98,189)"/>
<path d="M60 67h1v1h-1v-1z" fill="rgb(0,0,0)"/>
<path d="M50 68h1v1h-1v-1z" fill="rgb(41,49,131)"/>
<path d="M51 68h1v1h-1v-1z" fill="rgb(0,0,0)"/>
<path d="M58 68h2v1h-2v-1z" fill="rgb(0,0,0)"/>
<path d="M52 69h1v1h-1v-1z" fill="rgb(41,49,131)"/>
<path d="M53 69h5v1h-5v-1z" fill="rgb(0,0,0)"/>
</svg>
