<?xml version="1.0" encoding="utf-8"?>
<!-- generated at drububu.com  -->
<!DOCTYPE svg PUBLIC "-//W3C//DTD SVG 1.1//EN" "http://www.w3.org/Graphics/SVG/1.1/DTD/svg11.dtd">
<svg version="1.1" preserveAspectRatio="xMinYMin meet" xmlns="http://www.w3.org/2000/svg" xmlns:xlink="http://www.w3.org/1999/xlink" x="0px" y="0px" width="96px" height="96px" viewBox="0 0 96 96">
<path d="M0 0h96v96h-96v-96z" fill="transparent"/>
<path d="M55 11h1v1h-1v-1z" fill="rgb(0,0,0)"/>
<path d="M54 12h1v2h-1v-2z" fill="rgb(164,156,164)"/>
<path d="M55 12h1v3h-1v2h-1v2h-1v1h-1v1h1v-1h1v-1h1v-2h1v-2h1v3h-1v2h-1v1h-1v1h-2v1h-1v2
	h-1v1h-1v-3h1v-2h1v-2h1v-1h1v-2h1v-2h1v-2z" fill="rgb(255,255,255)"/>
<path d="M56 12h1v3h-1v-3z" fill="rgb(0,0,0)"/>
<path d="M34 13h2v1h-2v-1z" fill="rgb(0,0,0)"/>
<path d="M34 14h1v2h-1v-2z" fill="rgb(90,82,90)"/>
<path d="M35 14h1v2h-1v-2z" fill="rgb(164,156,164)"/>
<path d="M36 14h1v1h-1v-1z" fill="rgb(0,0,0)"/>
<path d="M53 14h1v2h-1v-2z" fill="rgb(164,156,164)"/>
<path d="M36 15h1v1h-1v-1z" fill="rgb(222,213,222)"/>
<path d="M37 15h1v1h-1v-1z" fill="rgb(0,0,0)"/>
<path d="M55 15h1v2h-1v-2z" fill="rgb(90,82,90)"/>
<path d="M57 15h1v3h-1v-3z" fill="rgb(0,0,0)"/>
<path d="M35 16h1v4h-1v-4z" fill="rgb(90,82,90)"/>
<path d="M36 16h1v2h-1v-2z" fill="rgb(164,156,164)"/>
<path d="M37 16h1v2h-1v-2z" fill="rgb(222,213,222)"/>
<path d="M38 16h1v2h-1v-2z" fill="rgb(0,0,0)"/>
<path d="M52 16h1v2h-1v-2z" fill="rgb(164,156,164)"/>
<path d="M54 17h1v2h-1v-2z" fill="rgb(90,82,90)"/>
<path d="M36 18h1v2h-1v-2z" fill="rgb(222,213,222)"/>
<path d="M37 18h1v3h-1v-3z" fill="rgb(164,156,164)"/>
<path d="M38 18h1v2h1v1h-2v-3z" fill="rgb(222,213,222)"/>
<path d="M39 18h1v2h-1v-2z" fill="rgb(0,0,0)"/>
<path d="M51 18h1v1h-1v-1z" fill="rgb(164,156,164)"/>
<path d="M56 18h1v2h-1v-2z" fill="rgb(90,82,90)"/>
<path d="M57 18h1v3h-1v1h-1v1h1v1h-1v1h-1v-2h-1v-1h1v-1h1v-1h1v-2z" fill="rgb(222,213,222)"/>
<path d="M58 18h1v5h-1v-5z" fill="rgb(0,0,0)"/>
<path d="M50 19h1v2h-1v-2z" fill="rgb(164,156,164)"/>
<path d="M53 19h1v1h-1v-1z" fill="rgb(90,82,90)"/>
<path d="M36 20h1v2h-1v-2z" fill="rgb(90,82,90)"/>
<path d="M40 20h1v1h-1v-1z" fill="rgb(0,0,0)"/>
<path d="M41 20h6v1h-6v-1z" fill="rgb(24,49,115)"/>
<path d="M52 20h1v1h-1v-1z" fill="rgb(164,156,164)"/>
<path d="M55 20h1v1h-1v-1z" fill="rgb(90,82,90)"/>
<path d="M37 21h1v1h-1v-1z" fill="rgb(222,213,222)"/>
<path d="M38 21h1v1h-1v-1z" fill="rgb(164,156,164)"/>
<path d="M39 21h2v1h-2v-1z" fill="rgb(74,106,197)"/>
<path d="M41 21h6v1h1v4h1v1h1v5h-1v1h-1v1h-1v2h-1v1h-2v1h-4v-1h1v-1h1v-1h-1v-1h-2v-2h-1
	v-2h-1v-1h2v-1h1v-1h2v-1h1v-3h-1v-1h-1v-1z" fill="rgb(90,139,238)"/>
<path d="M47 21h1v1h-1v-1z" fill="rgb(24,49,115)"/>
<path d="M49 21h1v2h-1v-2z" fill="rgb(164,156,164)"/>
<path d="M54 21h1v1h-1v-1z" fill="rgb(164,156,164)"/>
<path d="M57 21h1v1h-1v-1z" fill="rgb(90,82,90)"/>
<path d="M37 22h1v1h-1v-1z" fill="rgb(90,82,90)"/>
<path d="M38 22h1v1h-1v-1z" fill="rgb(74,106,197)"/>
<path d="M39 22h3v1h1v3h-1v1h-2v-1h-1v-1h-1v-2h1v-1z" fill="rgb(123,172,255)"/>
<path d="M48 22h1v1h-1v-1z" fill="rgb(24,49,115)"/>
<path d="M52 22h2v1h-2v-1z" fill="rgb(90,82,90)"/>
<path d="M56 22h1v1h-1v-1z" fill="rgb(164,156,164)"/>
<path d="M57 22h1v1h-1v-1z" fill="rgb(222,213,222)"/>
<path d="M37 23h1v2h-1v-2z" fill="rgb(74,106,197)"/>
<path d="M48 23h1v3h-1v-3z" fill="rgb(164,156,164)"/>
<path d="M51 23h1v2h-1v-2z" fill="rgb(164,156,164)"/>
<path d="M52 23h2v2h1v2h-1v1h-3v-1h-1v-2h2v-2z" fill="rgb(222,213,222)"/>
<path d="M54 23h1v2h-1v-2z" fill="rgb(90,82,90)"/>
<path d="M57 23h1v1h-1v-1z" fill="rgb(0,0,0)"/>
<path d="M34 24h3v1h-2v1h-1v-2z" fill="rgb(0,0,0)"/>
<path d="M56 24h1v1h-1v-1z" fill="rgb(0,0,0)"/>
<path d="M35 25h2v1h2v2h-2v-1h-1v-1h-1v-1z" fill="rgb(255,255,255)"/>
<path d="M37 25h2v1h-2v-1z" fill="rgb(0,0,0)"/>
<path d="M52 25h1v1h-1v-1z" fill="rgb(164,156,164)"/>
<path d="M55 25h1v2h-1v-2z" fill="rgb(0,0,0)"/>
<path d="M35 26h1v1h-1v-1z" fill="rgb(90,82,90)"/>
<path d="M39 26h1v2h-1v-2z" fill="rgb(0,0,0)"/>
<path d="M49 26h1v1h-1v-1z" fill="rgb(90,82,90)"/>
<path d="M36 27h1v1h-1v-1z" fill="rgb(90,82,90)"/>
<path d="M44 27h2v1h1v2h-1v2h-2v-1h1v-2h-1v-2z" fill="rgb(0,0,0)"/>
<path d="M46 27h1v1h-1v-1z" fill="rgb(74,106,197)"/>
<path d="M50 27h1v1h-1v-1z" fill="rgb(90,82,90)"/>
<path d="M54 27h1v1h-1v-1z" fill="rgb(0,0,0)"/>
<path d="M36 28h1v2h-1v-2z" fill="rgb(24,49,115)"/>
<path d="M37 28h2v1h-2v-1z" fill="rgb(0,0,0)"/>
<path d="M43 28h1v3h-1v-3z" fill="rgb(74,106,197)"/>
<path d="M50 28h1v8h-1v3h-2v1h-2v1h-2v-1h1v-2h1v-1h1v-1h1v-2h1v-2h1v-4z" fill="rgb(74,106,197)"/>
<path d="M51 28h3v1h-3v-1z" fill="rgb(0,0,0)"/>
<path d="M44 29h1v2h-1v-2z" fill="rgb(255,255,255)"/>
<path d="M47 29h1v3h-1v-3z" fill="rgb(74,106,197)"/>
<path d="M51 29h1v6h-1v-6z" fill="rgb(24,49,115)"/>
<path d="M37 30h1v2h-1v-2z" fill="rgb(24,49,115)"/>
<path d="M46 30h1v1h-1v-1z" fill="rgb(131,8,57)"/>
<path d="M46 31h1v1h-1v-1z" fill="rgb(180,8,74)"/>
<path d="M38 32h1v2h-1v-2z" fill="rgb(74,106,197)"/>
<path d="M44 32h2v1h-2v-1z" fill="rgb(180,8,74)"/>
<path d="M46 32h1v1h-1v-1z" fill="rgb(74,106,197)"/>
<path d="M48 33h1v1h-1v-1z" fill="rgb(24,49,115)"/>
<path d="M37 34h1v2h-1v-2z" fill="rgb(74,106,197)"/>
<path d="M38 34h3v1h1v1h-1v1h-3v-3z" fill="rgb(123,172,255)"/>
<path d="M47 34h1v2h-1v-2z" fill="rgb(24,49,115)"/>
<path d="M51 35h1v1h-1v-1z" fill="rgb(0,0,0)"/>
<path d="M37 36h1v1h-1v-1z" fill="rgb(24,49,115)"/>
<path d="M46 36h1v1h-1v-1z" fill="rgb(0,0,0)"/>
<path d="M50 36h1v1h-1v-1z" fill="rgb(24,49,115)"/>
<path d="M38 37h2v1h-2v-1z" fill="rgb(24,49,115)"/>
<path d="M44 37h2v1h-2v-1z" fill="rgb(0,0,0)"/>
<path d="M50 37h1v2h-1v-2z" fill="rgb(0,0,0)"/>
<path d="M40 38h4v1h-4v-1z" fill="rgb(0,0,0)"/>
<path d="M44 38h1v2h-1v-2z" fill="rgb(24,49,115)"/>
<path d="M28 39h2v1h-2v-1z" fill="rgb(74,106,197)"/>
<path d="M30 39h1v1h-1v-1z" fill="rgb(24,49,115)"/>
<path d="M48 39h1v5h-1v4h-1v4h-1v6h1v3h1v2h1v1h1v1h2v1h2v1h13v-1h2v-1h2v-1h1v-1h1v-1h1
	v-2h1v-3h1v2h1v1h-1v3h-1v1h-1v1h-1v2h-2v1h-1v1h-2v1h-2v1h-4v1h-5v-1h-4v-1h-2v-1
	h-2v-1h-2v-1h-1v-1h-1v-2h-1v-2h-1v-8h1v-4h1v-5h1v-3h-1v-1h1v-1h2v-1z" fill="rgb(90,139,238)"/>
<path d="M49 39h1v4h-1v-4z" fill="rgb(24,49,115)"/>
<path d="M26 40h2v1h-2v-1z" fill="rgb(74,106,197)"/>
<path d="M28 40h1v1h-1v-1z" fill="rgb(90,139,238)"/>
<path d="M29 40h1v1h-1v-1z" fill="rgb(24,49,115)"/>
<path d="M41 40h3v1h-3v-1z" fill="rgb(0,0,0)"/>
<path d="M24 41h2v2h-1v-1h-1v-1z" fill="rgb(24,49,115)"/>
<path d="M26 41h1v1h-1v-1z" fill="rgb(0,0,0)"/>
<path d="M27 41h1v1h-1v-1z" fill="rgb(90,139,238)"/>
<path d="M28 41h1v1h-1v-1z" fill="rgb(24,49,115)"/>
<path d="M40 41h1v1h-1v-1z" fill="rgb(24,49,115)"/>
<path d="M41 41h3v1h1v1h-1v1h-1v-2h-2v-1z" fill="rgb(24,41,123)"/>
<path d="M44 41h1v1h-1v-1z" fill="rgb(0,0,0)"/>
<path d="M23 42h1v1h-1v-1z" fill="rgb(24,49,115)"/>
<path d="M24 42h1v1h-1v-1z" fill="rgb(123,205,255)"/>
<path d="M26 42h1v2h-1v1h-1v-1h-1v-1h2v-1z" fill="rgb(65,90,255)"/>
<path d="M27 42h1v3h-1v-3z" fill="rgb(0,0,0)"/>
<path d="M39 42h2v2h2v1h-1v1h-1v-1h-2v-3z" fill="rgb(24,41,123)"/>
<path d="M41 42h1v1h-1v-1z" fill="rgb(255,255,255)"/>
<path d="M42 42h1v2h-2v-1h1v-1z" fill="rgb(123,205,255)"/>
<path d="M45 42h1v3h-1v-3z" fill="rgb(0,0,0)"/>
<path d="M21 43h3v1h-3v-1z" fill="rgb(0,0,0)"/>
<path d="M44 43h1v2h-1v1h-2v-1h1v-1h1v-1z" fill="rgb(65,90,255)"/>
<path d="M49 43h1v1h-1v-1z" fill="rgb(0,0,0)"/>
<path d="M20 44h1v1h-1v-1z" fill="rgb(24,49,115)"/>
<path d="M21 44h3v1h-1v1h-1v-1h-1v-1z" fill="rgb(24,41,123)"/>
<path d="M24 44h1v1h-1v-1z" fill="rgb(0,0,0)"/>
<path d="M26 44h1v1h-1v-1z" fill="rgb(24,41,123)"/>
<path d="M48 44h1v2h-1v-2z" fill="rgb(24,49,115)"/>
<path d="M19 45h1v2h-1v-2z" fill="rgb(65,90,255)"/>
<path d="M20 45h1v1h-1v-1z" fill="rgb(255,255,255)"/>
<path d="M21 45h1v2h-2v-1h1v-1z" fill="rgb(123,205,255)"/>
<path d="M23 45h1v3h-2v-2h1v-1z" fill="rgb(65,90,255)"/>
<path d="M24 45h1v3h-1v-3z" fill="rgb(24,41,123)"/>
<path d="M25 45h2v1h-1v2h-1v-3z" fill="rgb(0,0,0)"/>
<path d="M40 45h1v1h-1v-1z" fill="rgb(0,0,0)"/>
<path d="M44 45h1v1h-1v-1z" fill="rgb(0,0,0)"/>
<path d="M41 46h3v1h-3v-1z" fill="rgb(0,0,0)"/>
<path d="M44 46h1v3h-1v4h-1v10h1v2h1v2h1v1h2v1h2v1h2v1h4v1h7v-1h4v-1h2v-1h2v-1h1v-1h2v-2
	h1v-2h1v-2h1v4h-1v2h-1v1h-1v1h-2v1h-2v1h-2v1h-2v1h-3v1h-12v-1h-3v-1h-2v-1h-2
	v-1h-1v-1h-1v-2h-1v-1h-1v-1h-1v-1h1v-1h-1v-1h-1v-1h-1v-4h1v-3h1v-3h1v-2h1v-2h3
	v-1z" fill="rgb(255,255,255)"/>
<path d="M48 46h1v2h-1v-2z" fill="rgb(0,0,0)"/>
<path d="M19 47h3v1h-2v1h-1v-2z" fill="rgb(24,41,123)"/>
<path d="M40 47h1v2h-1v-2z" fill="rgb(90,82,90)"/>
<path d="M20 48h1v2h-1v-2z" fill="rgb(90,82,90)"/>
<path d="M21 48h1v2h-1v-2z" fill="rgb(222,213,222)"/>
<path d="M22 48h2v1h-2v-1z" fill="rgb(24,41,123)"/>
<path d="M24 48h1v1h-1v-1z" fill="rgb(0,0,0)"/>
<path d="M47 48h1v4h-1v-4z" fill="rgb(0,0,0)"/>
<path d="M22 49h1v1h-1v-1z" fill="rgb(24,49,115)"/>
<path d="M23 49h1v1h-1v-1z" fill="rgb(0,0,0)"/>
<path d="M39 49h1v2h-1v-2z" fill="rgb(90,82,90)"/>
<path d="M44 49h1v1h-1v-1z" fill="rgb(222,213,222)"/>
<path d="M19 50h1v3h-1v-3z" fill="rgb(90,82,90)"/>
<path d="M20 50h1v9h1v3h1v2h-1v-1h-1v-2h-1v-2h-1v-6h1v-3z" fill="rgb(222,213,222)"/>
<path d="M21 50h1v5h-1v-5z" fill="rgb(24,49,115)"/>
<path d="M38 51h1v3h-1v-3z" fill="rgb(90,82,90)"/>
<path d="M46 52h1v6h-1v-6z" fill="rgb(0,0,0)"/>
<path d="M18 53h1v6h-1v-6z" fill="rgb(90,82,90)"/>
<path d="M43 53h1v1h-1v-1z" fill="rgb(222,213,222)"/>
<path d="M37 54h1v3h-1v-3z" fill="rgb(90,82,90)"/>
<path d="M66 54h6v1h-6v-1z" fill="rgb(74,106,197)"/>
<path d="M21 55h1v2h1v2h1v1h1v1h1v1h2v1h3v1h4v4h-5v-1h-3v-1h-2v-1h-1v-1h-1v-2h-1v-3h-1
	v-4z" fill="rgb(90,139,238)"/>
<path d="M22 55h1v2h-1v-2z" fill="rgb(24,49,115)"/>
<path d="M64 55h2v1h-2v-1z" fill="rgb(74,106,197)"/>
<path d="M66 55h6v1h2v1h1v3h-1v2h-1v1h-1v1h-1v1h-2v1h-2v1h-6v-1h2v-1h2v-1h1v-1h1v-1h1v-1
	h1v-3h-1v2h-1v1h-2v1h-5v-1h-1v-2h1v-1h2v-1h2v-1h2v-1z" fill="rgb(123,172,255)"/>
<path d="M72 55h2v1h-2v-1z" fill="rgb(74,106,197)"/>
<path d="M62 56h2v1h-2v-1z" fill="rgb(74,106,197)"/>
<path d="M74 56h1v1h-1v-1z" fill="rgb(74,106,197)"/>
<path d="M75 56h1v1h-1v-1z" fill="rgb(24,49,115)"/>
<path d="M23 57h1v2h-1v-2z" fill="rgb(24,49,115)"/>
<path d="M36 57h1v4h-1v-4z" fill="rgb(90,82,90)"/>
<path d="M60 57h2v1h-2v-1z" fill="rgb(74,106,197)"/>
<path d="M76 57h1v2h-1v-2z" fill="rgb(24,49,115)"/>
<path d="M47 58h1v3h-1v-3z" fill="rgb(0,0,0)"/>
<path d="M58 58h1v1h-1v-1z" fill="rgb(24,49,115)"/>
<path d="M59 58h1v1h-1v-1z" fill="rgb(74,106,197)"/>
<path d="M68 58h1v1h-1v-1z" fill="rgb(90,139,238)"/>
<path d="M19 59h1v2h-1v-2z" fill="rgb(90,82,90)"/>
<path d="M24 59h1v1h-1v-1z" fill="rgb(24,49,115)"/>
<path d="M55 59h3v1h-3v-1z" fill="rgb(24,49,115)"/>
<path d="M58 59h1v2h1v1h5v-1h2v1h-1v1h-1v1h-2v1h-2v1h-7v-1h-2v-1h-2v-1h-1v-1h3v-1h3v-1h3
	v-1z" fill="rgb(90,139,238)"/>
<path d="M68 59h1v2h-1v-2z" fill="rgb(74,106,197)"/>
<path d="M77 59h1v4h-1v-4z" fill="rgb(24,49,115)"/>
<path d="M25 60h1v1h-1v-1z" fill="rgb(24,49,115)"/>
<path d="M38 60h1v1h-1v-1z" fill="rgb(222,213,222)"/>
<path d="M52 60h3v1h-3v-1z" fill="rgb(24,49,115)"/>
<path d="M67 60h1v1h-1v-1z" fill="rgb(90,139,238)"/>
<path d="M76 60h1v1h-1v-1z" fill="rgb(222,213,222)"/>
<path d="M20 61h1v2h-1v-2z" fill="rgb(90,82,90)"/>
<path d="M26 61h2v1h-2v-1z" fill="rgb(24,49,115)"/>
<path d="M35 61h1v6h-1v-6z" fill="rgb(90,82,90)"/>
<path d="M36 61h1v1h-1v-1z" fill="rgb(255,255,255)"/>
<path d="M37 61h1v1h-1v-1z" fill="rgb(222,213,222)"/>
<path d="M48 61h1v2h-1v-2z" fill="rgb(0,0,0)"/>
<path d="M49 61h3v1h-3v-1z" fill="rgb(24,49,115)"/>
<path d="M67 61h1v1h-1v-1z" fill="rgb(74,106,197)"/>
<path d="M28 62h3v1h-3v-1z" fill="rgb(24,49,115)"/>
<path d="M36 62h1v1h-1v-1z" fill="rgb(222,213,222)"/>
<path d="M37 62h1v1h-1v-1z" fill="rgb(255,255,255)"/>
<path d="M38 62h1v1h-1v-1z" fill="rgb(222,213,222)"/>
<path d="M43 62h1v1h-1v-1z" fill="rgb(222,213,222)"/>
<path d="M66 62h1v1h-1v-1z" fill="rgb(74,106,197)"/>
<path d="M21 63h1v1h-1v-1z" fill="rgb(0,0,0)"/>
<path d="M31 63h4v1h-4v-1z" fill="rgb(24,49,115)"/>
<path d="M36 63h1v1h-1v-1z" fill="rgb(255,255,255)"/>
<path d="M37 63h1v1h-1v-1z" fill="rgb(222,213,222)"/>
<path d="M38 63h1v1h-1v-1z" fill="rgb(255,255,255)"/>
<path d="M39 63h1v1h-1v-1z" fill="rgb(222,213,222)"/>
<path d="M49 63h1v1h-1v-1z" fill="rgb(0,0,0)"/>
<path d="M65 63h1v1h-1v-1z" fill="rgb(74,106,197)"/>
<path d="M77 63h1v2h-1v-2z" fill="rgb(0,0,0)"/>
<path d="M22 64h1v1h-1v-1z" fill="rgb(0,0,0)"/>
<path d="M23 64h1v1h-1v-1z" fill="rgb(222,213,222)"/>
<path d="M36 64h1v1h-1v-1z" fill="rgb(222,213,222)"/>
<path d="M37 64h1v1h-1v-1z" fill="rgb(255,255,255)"/>
<path d="M38 64h1v1h-1v-1z" fill="rgb(222,213,222)"/>
<path d="M44 64h1v1h-1v-1z" fill="rgb(222,213,222)"/>
<path d="M50 64h2v1h-2v-1z" fill="rgb(0,0,0)"/>
<path d="M63 64h2v1h-2v-1z" fill="rgb(74,106,197)"/>
<path d="M74 64h1v1h-1v-1z" fill="rgb(222,213,222)"/>
<path d="M23 65h2v1h-2v-1z" fill="rgb(0,0,0)"/>
<path d="M36 65h1v1h-1v-1z" fill="rgb(255,255,255)"/>
<path d="M37 65h1v1h1v1h1v-1h1v1h1v2h1v1h1v1h2v1h2v1h3v1h12v-1h3v-1h2v-1h2v-1h2v-1h2v1
	h-1v1h-1v1h-2v1h-2v1h-2v1h-2v1h-3v1h-5v1h-9v-1h-4v-1h-2v-1h-2v-1h-1v-2h-1v-3h-1
	v-3h1v-1z" fill="rgb(222,213,222)"/>
<path d="M38 65h1v1h-1v-1z" fill="rgb(255,255,255)"/>
<path d="M39 65h1v1h-1v-1z" fill="rgb(222,213,222)"/>
<path d="M52 65h2v1h-2v-1z" fill="rgb(24,49,115)"/>
<path d="M61 65h2v1h-2v-1z" fill="rgb(74,106,197)"/>
<path d="M73 65h1v2h-1v-2z" fill="rgb(222,213,222)"/>
<path d="M76 65h1v2h-1v-2z" fill="rgb(0,0,0)"/>
<path d="M25 66h2v1h-2v-1z" fill="rgb(0,0,0)"/>
<path d="M39 66h1v1h-1v-1z" fill="rgb(255,255,255)"/>
<path d="M45 66h1v1h-1v-1z" fill="rgb(222,213,222)"/>
<path d="M54 66h7v1h-7v-1z" fill="rgb(24,49,115)"/>
<path d="M27 67h3v1h-3v-1z" fill="rgb(0,0,0)"/>
<path d="M35 67h1v2h-6v-1h5v-1z" fill="rgb(0,0,0)"/>
<path d="M46 67h1v1h-1v-1z" fill="rgb(222,213,222)"/>
<path d="M71 67h1v1h-1v-1z" fill="rgb(222,213,222)"/>
<path d="M75 67h1v2h-1v-2z" fill="rgb(0,0,0)"/>
<path d="M48 68h1v1h-1v-1z" fill="rgb(222,213,222)"/>
<path d="M70 68h1v1h-1v-1z" fill="rgb(222,213,222)"/>
<path d="M74 68h1v1h-1v-1z" fill="rgb(222,213,222)"/>
<path d="M36 69h1v2h-1v-2z" fill="rgb(90,82,90)"/>
<path d="M50 69h1v1h-1v-1z" fill="rgb(222,213,222)"/>
<path d="M68 69h1v1h-1v-1z" fill="rgb(222,213,222)"/>
<path d="M74 69h1v1h-1v-1z" fill="rgb(0,0,0)"/>
<path d="M52 70h1v1h-1v-1z" fill="rgb(222,213,222)"/>
<path d="M66 70h1v1h-1v-1z" fill="rgb(222,213,222)"/>
<path d="M73 70h1v1h-1v-1z" fill="rgb(0,0,0)"/>
<path d="M36 71h1v1h-1v-1z" fill="rgb(0,0,0)"/>
<path d="M56 71h1v1h-1v-1z" fill="rgb(222,213,222)"/>
<path d="M62 71h1v1h-1v-1z" fill="rgb(222,213,222)"/>
<path d="M72 71h1v1h-1v-1z" fill="rgb(0,0,0)"/>
<path d="M37 72h1v2h-1v-2z" fill="rgb(0,0,0)"/>
<path d="M70 72h2v1h-2v-1z" fill="rgb(0,0,0)"/>
<path d="M68 73h2v1h-2v-1z" fill="rgb(0,0,0)"/>
<path d="M38 74h1v1h-1v-1z" fill="rgb(0,0,0)"/>
<path d="M66 74h2v1h-2v-1z" fill="rgb(0,0,0)"/>
<path d="M39 75h2v1h-2v-1z" fill="rgb(0,0,0)"/>
<path d="M64 75h2v1h-2v-1z" fill="rgb(0,0,0)"/>
<path d="M41 76h2v1h-2v-1z" fill="rgb(0,0,0)"/>
<path d="M61 76h3v1h-3v-1z" fill="rgb(0,0,0)"/>
<path d="M43 77h4v1h-4v-1z" fill="rgb(0,0,0)"/>
<path d="M56 77h5v1h-5v-1z" fill="rgb(0,0,0)"/>
<path d="M47 78h9v1h-9v-1z" fill="rgb(0,0,0)"/>
</svg>
