<?xml version="1.0" encoding="utf-8"?>
<!-- generated at drububu.com  -->
<!DOCTYPE svg PUBLIC "-//W3C//DTD SVG 1.1//EN" "http://www.w3.org/Graphics/SVG/1.1/DTD/svg11.dtd">
<svg version="1.1" preserveAspectRatio="xMinYMin meet" xmlns="http://www.w3.org/2000/svg" xmlns:xlink="http://www.w3.org/1999/xlink" x="0px" y="0px" width="96px" height="96px" viewBox="0 0 96 96">
<path d="M0 0h96v96h-96v-96z" fill="transparent"/>
<path d="M50 7h1v1h-1v-1z" fill="rgb(90,57,32)"/>
<path d="M49 8h1v2h-1v-2z" fill="rgb(90,57,32)"/>
<path d="M50 8h1v2h-1v-2z" fill="rgb(255,238,189)"/>
<path d="M51 8h1v2h-1v-2z" fill="rgb(90,57,32)"/>
<path d="M26 9h2v1h-2v-1z" fill="rgb(90,57,32)"/>
<path d="M25 10h1v1h-1v-1z" fill="rgb(90,57,32)"/>
<path d="M26 10h2v1h-2v-1z" fill="rgb(255,238,189)"/>
<path d="M28 10h1v1h-1v-1z" fill="rgb(90,57,32)"/>
<path d="M50 10h1v4h-1v-4z" fill="rgb(90,57,32)"/>
<path d="M51 10h1v2h-1v-2z" fill="rgb(255,238,189)"/>
<path d="M52 10h1v4h-1v-4z" fill="rgb(0,0,0)"/>
<path d="M24 11h1v1h-1v-1z" fill="rgb(90,57,32)"/>
<path d="M25 11h1v1h-1v-1z" fill="rgb(255,238,189)"/>
<path d="M26 11h1v1h-1v-1z" fill="rgb(0,0,0)"/>
<path d="M27 11h1v1h-1v-1z" fill="rgb(90,57,32)"/>
<path d="M38 11h1v1h-1v-1z" fill="rgb(90,57,32)"/>
<path d="M23 12h1v3h-1v-3z" fill="rgb(90,57,32)"/>
<path d="M24 12h1v3h-1v-3z" fill="rgb(255,238,189)"/>
<path d="M25 12h1v3h-1v-3z" fill="rgb(0,0,0)"/>
<path d="M37 12h1v1h-1v-1z" fill="rgb(90,57,32)"/>
<path d="M38 12h1v1h1v1h-1v1h-2v-2h1v-1z" fill="rgb(238,156,57)"/>
<path d="M39 12h1v1h-1v-1z" fill="rgb(0,0,0)"/>
<path d="M51 12h1v2h-1v-2z" fill="rgb(238,189,139)"/>
<path d="M36 13h1v2h-1v-2z" fill="rgb(90,57,32)"/>
<path d="M40 13h1v1h-1v-1z" fill="rgb(90,57,32)"/>
<path d="M39 14h1v1h-1v-1z" fill="rgb(222,115,57)"/>
<path d="M40 14h2v1h-2v-1z" fill="rgb(0,0,0)"/>
<path d="M49 14h1v1h-1v-1z" fill="rgb(90,57,32)"/>
<path d="M50 14h1v1h-1v-1z" fill="rgb(238,189,139)"/>
<path d="M51 14h1v1h-1v-1z" fill="rgb(0,0,0)"/>
<path d="M24 15h1v1h-1v-1z" fill="rgb(90,57,32)"/>
<path d="M25 15h1v1h-1v-1z" fill="rgb(238,189,139)"/>
<path d="M26 15h2v1h-2v-1z" fill="rgb(0,0,0)"/>
<path d="M28 15h2v1h-2v-1z" fill="rgb(90,57,32)"/>
<path d="M35 15h1v1h-1v-1z" fill="rgb(90,57,32)"/>
<path d="M36 15h1v1h2v-1h3v1h-2v1h-1v1h-2v-1h-2v-1h1v-1z" fill="rgb(238,156,57)"/>
<path d="M37 15h2v1h-2v-1z" fill="rgb(156,90,74)"/>
<path d="M42 15h1v1h-1v-1z" fill="rgb(0,0,0)"/>
<path d="M43 15h6v1h-6v-1z" fill="rgb(90,57,32)"/>
<path d="M49 15h1v1h-1v-1z" fill="rgb(238,189,139)"/>
<path d="M50 15h1v1h-1v-1z" fill="rgb(0,0,0)"/>
<path d="M25 16h1v1h-1v-1z" fill="rgb(0,0,0)"/>
<path d="M26 16h4v1h-4v-1z" fill="rgb(238,189,139)"/>
<path d="M30 16h2v1h-2v-1z" fill="rgb(90,57,32)"/>
<path d="M34 16h1v1h-1v-1z" fill="rgb(0,0,0)"/>
<path d="M40 16h2v1h-2v-1z" fill="rgb(156,90,74)"/>
<path d="M42 16h7v1h-7v-1z" fill="rgb(238,189,139)"/>
<path d="M49 16h1v1h-1v-1z" fill="rgb(0,0,0)"/>
<path d="M26 17h4v1h-4v-1z" fill="rgb(0,0,0)"/>
<path d="M30 17h2v1h-2v-1z" fill="rgb(238,189,139)"/>
<path d="M32 17h1v1h-1v-1z" fill="rgb(90,57,32)"/>
<path d="M33 17h1v1h-1v-1z" fill="rgb(0,0,0)"/>
<path d="M34 17h1v1h-1v-1z" fill="rgb(238,156,57)"/>
<path d="M35 17h2v1h1v2h-1v1h-2v-1h-1v-2h1v-1z" fill="rgb(246,189,90)"/>
<path d="M39 17h1v1h-1v-1z" fill="rgb(156,90,74)"/>
<path d="M40 17h2v1h-2v-1z" fill="rgb(238,189,139)"/>
<path d="M42 17h2v1h-2v-1z" fill="rgb(90,57,32)"/>
<path d="M44 17h5v1h-2v2h-1v-2h-2v-1z" fill="rgb(0,0,0)"/>
<path d="M30 18h2v1h-2v-1z" fill="rgb(90,57,32)"/>
<path d="M32 18h1v2h-1v-2z" fill="rgb(0,0,0)"/>
<path d="M33 18h1v2h1v1h2v-1h3v-1h2v-1h4v5h-1v2h-1v-2h-1v-1h-2v1h-1v5h2v3h-1v1h-2v1h-3
	v-1h-1v1h-3v-1h-1v-3h1v1h4v-1h1v-2h-1v-1h-3v-4h-1v-2h1v-2z" fill="rgb(238,156,57)"/>
<path d="M38 18h1v2h-1v-2z" fill="rgb(156,90,74)"/>
<path d="M39 18h1v1h-1v-1z" fill="rgb(238,189,139)"/>
<path d="M40 18h2v1h-2v-1z" fill="rgb(90,57,32)"/>
<path d="M39 19h1v1h-1v-1z" fill="rgb(90,57,32)"/>
<path d="M31 20h1v2h1v1h-1v1h-1v-1h-6v-1h6v-2z" fill="rgb(0,0,0)"/>
<path d="M46 20h1v8h1v4h1v1h-1v1h-1v2h-1v1h-1v1h-1v1h-1v-7h1v-1h-1v-2h-1v-1h-2v-1h3v-1h1
	v-1h1v-2h1v-3z" fill="rgb(222,115,57)"/>
<path d="M47 20h1v8h-1v-8z" fill="rgb(0,0,0)"/>
<path d="M63 20h6v1h-6v-1z" fill="rgb(0,0,0)"/>
<path d="M59 21h4v1h-4v-1z" fill="rgb(90,57,32)"/>
<path d="M63 21h2v1h-2v-1z" fill="rgb(238,156,57)"/>
<path d="M65 21h4v1h-4v-1z" fill="rgb(222,115,57)"/>
<path d="M69 21h1v1h-1v-1z" fill="rgb(90,57,32)"/>
<path d="M70 21h2v1h-2v-1z" fill="rgb(0,0,0)"/>
<path d="M41 22h2v1h-2v-1z" fill="rgb(0,0,0)"/>
<path d="M56 22h3v1h-3v-1z" fill="rgb(90,57,32)"/>
<path d="M59 22h4v1h-4v-1z" fill="rgb(238,156,57)"/>
<path d="M63 22h1v1h-1v-1z" fill="rgb(222,115,57)"/>
<path d="M64 22h5v1h3v1h-2v1h-3v1h-2v1h-2v-1h-1v-1h-3v1h-1v1h-2v-2h2v-1h2v-1h4v-1z" fill="rgb(24,106,98)"/>
<path d="M69 22h3v1h-3v-1z" fill="rgb(222,115,57)"/>
<path d="M72 22h1v1h-1v-1z" fill="rgb(90,57,32)"/>
<path d="M73 22h1v1h-1v-1z" fill="rgb(0,0,0)"/>
<path d="M22 23h2v1h-2v-1z" fill="rgb(0,0,0)"/>
<path d="M24 23h1v1h-1v-1z" fill="rgb(90,57,32)"/>
<path d="M25 23h4v1h-4v-1z" fill="rgb(222,115,57)"/>
<path d="M29 23h2v1h-2v-1z" fill="rgb(238,156,57)"/>
<path d="M32 23h1v1h-1v-1z" fill="rgb(205,205,205)"/>
<path d="M40 23h1v1h-1v-1z" fill="rgb(0,0,0)"/>
<path d="M41 23h2v2h-1v-1h-1v-1z" fill="rgb(205,205,205)"/>
<path d="M43 23h1v3h-1v-3z" fill="rgb(0,0,0)"/>
<path d="M54 23h2v1h-2v-1z" fill="rgb(90,57,32)"/>
<path d="M56 23h1v1h-1v-1z" fill="rgb(156,90,74)"/>
<path d="M57 23h2v1h-2v-1z" fill="rgb(238,156,57)"/>
<path d="M59 23h1v1h-1v-1z" fill="rgb(222,115,57)"/>
<path d="M72 23h2v1h-2v-1z" fill="rgb(222,115,57)"/>
<path d="M74 23h1v1h-1v-1z" fill="rgb(0,0,0)"/>
<path d="M20 24h1v1h-1v-1z" fill="rgb(0,0,0)"/>
<path d="M21 24h1v1h-1v-1z" fill="rgb(90,57,32)"/>
<path d="M22 24h3v1h-3v-1z" fill="rgb(222,115,57)"/>
<path d="M25 24h7v3h-1v1h-1v1h-1v-1h-2v-1h-3v-1h-2v-1h3v-1z" fill="rgb(24,106,98)"/>
<path d="M32 24h1v1h-1v-1z" fill="rgb(0,0,0)"/>
<path d="M40 24h1v1h-1v-1z" fill="rgb(255,255,255)"/>
<path d="M41 24h1v1h-1v-1z" fill="rgb(0,0,0)"/>
<path d="M53 24h1v3h-1v-3z" fill="rgb(0,0,0)"/>
<path d="M54 24h3v1h-1v1h-1v1h-1v-3z" fill="rgb(238,156,57)"/>
<path d="M57 24h1v1h-1v-1z" fill="rgb(222,115,57)"/>
<path d="M70 24h4v1h-4v-1z" fill="rgb(0,0,0)"/>
<path d="M74 24h1v1h-1v-1z" fill="rgb(222,115,57)"/>
<path d="M75 24h1v1h-1v-1z" fill="rgb(90,57,32)"/>
<path d="M19 25h1v1h-1v-1z" fill="rgb(0,0,0)"/>
<path d="M20 25h2v1h-2v-1z" fill="rgb(222,115,57)"/>
<path d="M32 25h1v1h-1v-1z" fill="rgb(90,57,32)"/>
<path d="M40 25h1v2h-1v-2z" fill="rgb(0,0,0)"/>
<path d="M41 25h1v2h-1v-2z" fill="rgb(90,57,32)"/>
<path d="M42 25h1v1h-1v-1z" fill="rgb(255,255,255)"/>
<path d="M59 25h3v1h1v1h1v1h-1v2h-1v2h-1v1h-1v-1h-1v-2h-1v-1h-1v-2h1v-1h1v-1z" fill="rgb(32,164,123)"/>
<path d="M67 25h3v1h-3v-1z" fill="rgb(0,0,0)"/>
<path d="M74 25h2v1h-2v-1z" fill="rgb(0,0,0)"/>
<path d="M18 26h1v1h-1v-1z" fill="rgb(90,57,32)"/>
<path d="M19 26h1v1h-1v-1z" fill="rgb(222,115,57)"/>
<path d="M20 26h4v1h-4v-1z" fill="rgb(0,0,0)"/>
<path d="M32 26h1v1h-1v-1z" fill="rgb(222,115,57)"/>
<path d="M33 26h3v1h1v2h-1v1h-4v-1h-1v-1h1v-1h1v-1z" fill="rgb(246,189,90)"/>
<path d="M42 26h1v1h-1v-1z" fill="rgb(205,205,205)"/>
<path d="M55 26h1v1h-1v-1z" fill="rgb(222,115,57)"/>
<path d="M65 26h2v1h-2v-1z" fill="rgb(0,0,0)"/>
<path d="M18 27h2v1h-2v-1z" fill="rgb(0,0,0)"/>
<path d="M24 27h3v1h-3v-1z" fill="rgb(0,0,0)"/>
<path d="M31 27h1v1h-1v-1z" fill="rgb(0,0,0)"/>
<path d="M52 27h1v2h-1v-2z" fill="rgb(0,0,0)"/>
<path d="M53 27h2v2h-1v1h-1v2h-1v-3h1v-2z" fill="rgb(222,115,57)"/>
<path d="M55 27h1v2h1v1h1v2h2v1h-1v1h-1v-1h-1v-1h-2v1h-1v1h1v2h-3v1h-1v-4h1v-1h1v-2h1v-1
	h1v-2z" fill="rgb(24,106,98)"/>
<path d="M56 27h1v2h-1v-2z" fill="rgb(16,65,49)"/>
<path d="M64 27h1v1h-1v-1z" fill="rgb(0,0,0)"/>
<path d="M27 28h2v1h-2v-1z" fill="rgb(0,0,0)"/>
<path d="M30 28h1v4h-1v-2h-1v-1h1v-1z" fill="rgb(0,0,0)"/>
<path d="M48 28h1v4h-1v-4z" fill="rgb(0,0,0)"/>
<path d="M63 28h1v2h-1v-2z" fill="rgb(0,0,0)"/>
<path d="M42 29h1v2h-1v-2z" fill="rgb(90,57,32)"/>
<path d="M51 29h1v2h-1v-2z" fill="rgb(0,0,0)"/>
<path d="M57 29h1v1h-1v-1z" fill="rgb(16,65,49)"/>
<path d="M44 30h1v1h-1v-1z" fill="rgb(90,57,32)"/>
<path d="M58 30h1v2h-1v-2z" fill="rgb(16,65,49)"/>
<path d="M62 30h1v2h-1v-2z" fill="rgb(0,0,0)"/>
<path d="M74 30h6v1h-6v-1z" fill="rgb(90,57,32)"/>
<path d="M36 31h1v1h-1v-1z" fill="rgb(222,115,57)"/>
<path d="M41 31h1v1h1v1h-3v-1h1v-1z" fill="rgb(90,57,32)"/>
<path d="M42 31h1v1h-1v-1z" fill="rgb(222,115,57)"/>
<path d="M43 31h1v1h-1v-1z" fill="rgb(90,57,32)"/>
<path d="M50 31h1v1h-1v-1z" fill="rgb(0,0,0)"/>
<path d="M51 31h1v1h-1v-1z" fill="rgb(238,156,57)"/>
<path d="M72 31h2v1h-2v-1z" fill="rgb(90,57,32)"/>
<path d="M74 31h1v1h-1v-1z" fill="rgb(222,115,57)"/>
<path d="M75 31h4v1h1v1h-3v1h-1v1h-1v1h-1v1h-1v1h-1v4h-1v1h-4v-1h-1v-4h1v-2h1v-1h1v-1h2
	v-1h2v-1h2v-1z" fill="rgb(238,156,57)"/>
<path d="M79 31h1v1h-1v-1z" fill="rgb(222,115,57)"/>
<path d="M80 31h2v2h-1v-1h-1v-1z" fill="rgb(90,57,32)"/>
<path d="M31 32h1v1h-1v-1z" fill="rgb(0,0,0)"/>
<path d="M35 32h1v1h-1v-1z" fill="rgb(90,57,32)"/>
<path d="M39 32h1v1h-1v-1z" fill="rgb(222,115,57)"/>
<path d="M49 32h1v2h-1v-2z" fill="rgb(0,0,0)"/>
<path d="M50 32h1v1h-1v-1z" fill="rgb(238,156,57)"/>
<path d="M51 32h1v1h-1v-1z" fill="rgb(222,115,57)"/>
<path d="M55 32h2v1h1v1h1v1h-4v-1h-1v-1h1v-1z" fill="rgb(32,164,123)"/>
<path d="M61 32h1v3h-1v-3z" fill="rgb(0,0,0)"/>
<path d="M70 32h2v1h-2v-1z" fill="rgb(90,57,32)"/>
<path d="M72 32h1v1h-1v-1z" fill="rgb(222,115,57)"/>
<path d="M80 32h1v1h-1v-1z" fill="rgb(222,115,57)"/>
<path d="M32 33h2v1h-2v-1z" fill="rgb(0,0,0)"/>
<path d="M34 33h4v1h-4v-1z" fill="rgb(222,115,57)"/>
<path d="M38 33h2v1h-2v-1z" fill="rgb(90,57,32)"/>
<path d="M40 33h2v1h-2v-1z" fill="rgb(238,189,139)"/>
<path d="M42 33h1v8h-1v-3h-2v-1h2v-2h-2v-1h2v-1z" fill="rgb(156,90,74)"/>
<path d="M48 33h1v1h1v3h1v3h1v1h1v2h1v1h1v3h1v3h-1v1h-3v-1h-2v-1h-1v-2h-1v-2h-1v-2h-1v2
	h1v2h1v2h1v2h-1v2h-1v2h-1v1h-1v-4h-1v-11h-1v-2h1v-1h1v-1h1v-1h1v-2h1v-1z" fill="rgb(238,156,57)"/>
<path d="M50 33h1v1h-1v-1z" fill="rgb(222,115,57)"/>
<path d="M59 33h1v1h-1v-1z" fill="rgb(16,65,49)"/>
<path d="M60 33h1v1h-1v-1z" fill="rgb(24,106,98)"/>
<path d="M69 33h1v1h-1v-1z" fill="rgb(90,57,32)"/>
<path d="M70 33h1v1h-1v-1z" fill="rgb(222,115,57)"/>
<path d="M77 33h1v1h-1v-1z" fill="rgb(222,115,57)"/>
<path d="M78 33h3v1h-3v-1z" fill="rgb(90,57,32)"/>
<path d="M34 34h4v1h-1v3h-1v-3h-2v-1z" fill="rgb(0,0,0)"/>
<path d="M38 34h2v1h-2v-1z" fill="rgb(238,189,139)"/>
<path d="M50 34h1v3h-1v-3z" fill="rgb(0,0,0)"/>
<path d="M59 34h1v1h-1v-1z" fill="rgb(24,106,98)"/>
<path d="M60 34h1v1h-1v-1z" fill="rgb(16,65,49)"/>
<path d="M68 34h1v1h-1v-1z" fill="rgb(90,57,32)"/>
<path d="M76 34h2v1h-2v-1z" fill="rgb(90,57,32)"/>
<path d="M37 35h3v1h-3v-1z" fill="rgb(156,90,74)"/>
<path d="M40 35h2v2h-2v1h-3v-2h3v-1z" fill="rgb(238,189,139)"/>
<path d="M55 35h6v1h-6v-1z" fill="rgb(0,0,0)"/>
<path d="M67 35h1v1h-1v-1z" fill="rgb(90,57,32)"/>
<path d="M75 35h1v1h-1v-1z" fill="rgb(90,57,32)"/>
<path d="M35 36h1v1h-1v-1z" fill="rgb(90,57,32)"/>
<path d="M52 36h3v1h-3v-1z" fill="rgb(0,0,0)"/>
<path d="M66 36h1v1h-1v-1z" fill="rgb(90,57,32)"/>
<path d="M74 36h1v1h-1v-1z" fill="rgb(90,57,32)"/>
<path d="M34 37h1v1h-1v-1z" fill="rgb(90,57,32)"/>
<path d="M35 37h1v1h-1v-1z" fill="rgb(238,156,57)"/>
<path d="M51 37h1v2h-1v-2z" fill="rgb(0,0,0)"/>
<path d="M65 37h1v2h-1v-2z" fill="rgb(90,57,32)"/>
<path d="M66 37h1v1h-1v-1z" fill="rgb(222,115,57)"/>
<path d="M73 37h1v2h-1v-2z" fill="rgb(90,57,32)"/>
<path d="M33 38h1v1h-1v-1z" fill="rgb(90,57,32)"/>
<path d="M34 38h1v3h-1v2h-1v2h-1v1h-1v1h-1v1h-2v1h-4v-1h-1v-3h2v-1h2v-1h2v-1h2v-1h1v-1h1
	v-1h1v-1z" fill="rgb(238,156,57)"/>
<path d="M35 38h1v3h-1v-3z" fill="rgb(0,0,0)"/>
<path d="M36 38h1v1h3v-1h2v2h-1v1h-1v1h-4v-4z" fill="rgb(238,189,139)"/>
<path d="M37 38h3v1h-3v-1z" fill="rgb(156,90,74)"/>
<path d="M72 38h1v1h-1v-1z" fill="rgb(222,115,57)"/>
<path d="M32 39h1v1h-1v-1z" fill="rgb(90,57,32)"/>
<path d="M51 39h1v1h-1v-1z" fill="rgb(222,115,57)"/>
<path d="M52 39h1v2h-1v-2z" fill="rgb(0,0,0)"/>
<path d="M64 39h1v2h-1v-2z" fill="rgb(0,0,0)"/>
<path d="M65 39h1v3h1v1h4v-1h1v2h1v3h1v3h1v7h-1v3h-2v1h-1v1h-1v1h-1v1h-1v1h-1v1h-2v1h-2
	v1h-3v-5h-1v-3h-1v-2h1v-1h1v1h1v-1h1v-3h1v-1h1v-2h1v-4h-1v-6h1v-2z" fill="rgb(222,115,57)"/>
<path d="M72 39h1v3h-1v-3z" fill="rgb(90,57,32)"/>
<path d="M31 40h1v1h-1v-1z" fill="rgb(90,57,32)"/>
<path d="M41 40h1v1h-1v-1z" fill="rgb(255,238,189)"/>
<path d="M29 41h2v1h-2v-1z" fill="rgb(90,57,32)"/>
<path d="M34 41h1v2h-1v-2z" fill="rgb(0,0,0)"/>
<path d="M35 41h1v1h-1v-1z" fill="rgb(156,90,74)"/>
<path d="M40 41h1v1h-1v-1z" fill="rgb(255,238,189)"/>
<path d="M41 41h2v1h-2v-1z" fill="rgb(172,139,65)"/>
<path d="M43 41h1v1h-1v-1z" fill="rgb(222,115,57)"/>
<path d="M53 41h1v1h-1v-1z" fill="rgb(0,0,0)"/>
<path d="M63 41h1v6h-1v-6z" fill="rgb(0,0,0)"/>
<path d="M27 42h2v1h-2v-1z" fill="rgb(90,57,32)"/>
<path d="M35 42h1v1h2v1h-1v1h-2v1h-1v-3h1v-1z" fill="rgb(238,189,139)"/>
<path d="M36 42h3v1h-3v-1z" fill="rgb(156,90,74)"/>
<path d="M39 42h2v1h-2v-1z" fill="rgb(172,139,65)"/>
<path d="M41 42h2v3h-2v1h-6v-1h2v-1h1v-1h3v-1z" fill="rgb(255,238,189)"/>
<path d="M43 42h1v10h-3v-1h2v-5h-2v-1h2v-3z" fill="rgb(172,139,65)"/>
<path d="M53 42h1v1h-1v-1z" fill="rgb(222,115,57)"/>
<path d="M54 42h1v2h-1v-2z" fill="rgb(0,0,0)"/>
<path d="M72 42h1v2h-1v-2z" fill="rgb(0,0,0)"/>
<path d="M25 43h2v1h-2v-1z" fill="rgb(90,57,32)"/>
<path d="M33 43h1v2h-1v-2z" fill="rgb(0,0,0)"/>
<path d="M46 43h1v2h-1v-2z" fill="rgb(0,0,0)"/>
<path d="M23 44h2v1h-2v-1z" fill="rgb(90,57,32)"/>
<path d="M55 44h1v1h-1v-1z" fill="rgb(0,0,0)"/>
<path d="M73 44h1v3h-1v-3z" fill="rgb(0,0,0)"/>
<path d="M22 45h1v1h-1v-1z" fill="rgb(90,57,32)"/>
<path d="M32 45h1v1h-1v-1z" fill="rgb(0,0,0)"/>
<path d="M33 45h1v1h-1v-1z" fill="rgb(156,90,74)"/>
<path d="M47 45h1v2h-1v-2z" fill="rgb(0,0,0)"/>
<path d="M55 45h1v1h1v1h1v2h1v2h1v2h-1v2h-1v-1h-2v1h-1v-1h-3v-1h-1v-2h-1v-1h2v1h3v-1h1
	v-3h-1v-2z" fill="rgb(222,115,57)"/>
<path d="M56 45h1v1h-1v-1z" fill="rgb(0,0,0)"/>
<path d="M21 46h1v2h-2v-1h1v-1z" fill="rgb(90,57,32)"/>
<path d="M22 46h1v2h1v1h4v-1h2v2h-1v1h-1v1h-1v-1h-4v-1h-1v-4z" fill="rgb(222,115,57)"/>
<path d="M31 46h1v2h-1v-2z" fill="rgb(0,0,0)"/>
<path d="M32 46h2v1h-2v-1z" fill="rgb(238,189,139)"/>
<path d="M34 46h7v1h-7v-1z" fill="rgb(172,139,65)"/>
<path d="M41 46h2v1h-2v-1z" fill="rgb(238,189,139)"/>
<path d="M57 46h1v1h-1v-1z" fill="rgb(0,0,0)"/>
<path d="M30 47h1v1h-1v-1z" fill="rgb(222,115,57)"/>
<path d="M32 47h11v4h-2v-1h-10v-1h1v-2z" fill="rgb(255,238,189)"/>
<path d="M48 47h1v2h-1v-2z" fill="rgb(0,0,0)"/>
<path d="M58 47h1v2h-1v-2z" fill="rgb(0,0,0)"/>
<path d="M64 47h1v4h-1v-4z" fill="rgb(0,0,0)"/>
<path d="M74 47h1v3h-1v-3z" fill="rgb(0,0,0)"/>
<path d="M19 48h1v1h-1v-1z" fill="rgb(0,0,0)"/>
<path d="M20 48h1v1h-1v-1z" fill="rgb(255,255,255)"/>
<path d="M21 48h1v2h-1v-2z" fill="rgb(0,0,0)"/>
<path d="M30 48h1v2h-1v-2z" fill="rgb(0,0,0)"/>
<path d="M31 48h1v1h-1v-1z" fill="rgb(238,189,139)"/>
<path d="M18 49h1v1h2v3h1v1h-2v-3h-2v-2z" fill="rgb(0,0,0)"/>
<path d="M19 49h1v1h-1v-1z" fill="rgb(255,255,255)"/>
<path d="M20 49h1v1h-1v-1z" fill="rgb(205,205,205)"/>
<path d="M49 49h1v2h-1v-2z" fill="rgb(0,0,0)"/>
<path d="M59 49h1v2h-1v-2z" fill="rgb(0,0,0)"/>
<path d="M21 50h1v1h-1v-1z" fill="rgb(98,98,98)"/>
<path d="M22 50h1v1h-1v-1z" fill="rgb(90,57,32)"/>
<path d="M29 50h1v2h-1v-2z" fill="rgb(0,0,0)"/>
<path d="M30 50h1v1h-1v-1z" fill="rgb(238,189,139)"/>
<path d="M31 50h10v1h-10v-1z" fill="rgb(172,139,65)"/>
<path d="M75 50h1v7h-1v-7z" fill="rgb(0,0,0)"/>
<path d="M21 51h2v1h-2v-1z" fill="rgb(255,255,255)"/>
<path d="M23 51h1v3h1v1h-2v-2h-1v-1h1v-1z" fill="rgb(0,0,0)"/>
<path d="M24 51h3v1h-3v-1z" fill="rgb(90,57,32)"/>
<path d="M28 51h1v1h-1v-1z" fill="rgb(90,57,32)"/>
<path d="M30 51h1v1h-1v-1z" fill="rgb(172,139,65)"/>
<path d="M31 51h9v1h4v5h-1v-1h-4v-1h-9v1h-2v-2h1v-2h2v-1z" fill="rgb(255,238,189)"/>
<path d="M40 51h1v1h-1v-1z" fill="rgb(238,189,139)"/>
<path d="M48 51h2v2h1v1h1v3h-1v-1h-4v1h-1v-2h1v-2h1v-2z" fill="rgb(222,115,57)"/>
<path d="M50 51h1v2h-1v-2z" fill="rgb(0,0,0)"/>
<path d="M60 51h1v2h-1v-2z" fill="rgb(0,0,0)"/>
<path d="M63 51h1v2h-1v-2z" fill="rgb(0,0,0)"/>
<path d="M21 52h1v1h-1v-1z" fill="rgb(205,205,205)"/>
<path d="M24 52h2v1h-1v1h-1v-2z" fill="rgb(205,205,205)"/>
<path d="M26 52h3v2h-1v-1h-2v-1z" fill="rgb(0,0,0)"/>
<path d="M44 52h1v4h-1v-4z" fill="rgb(172,139,65)"/>
<path d="M25 53h1v1h-1v-1z" fill="rgb(0,0,0)"/>
<path d="M51 53h1v1h-1v-1z" fill="rgb(0,0,0)"/>
<path d="M59 53h2v1h-2v-1z" fill="rgb(90,57,32)"/>
<path d="M61 53h2v1h-1v3h-1v-4z" fill="rgb(0,0,0)"/>
<path d="M27 54h1v4h-1v-4z" fill="rgb(0,0,0)"/>
<path d="M52 54h1v4h-1v-4z" fill="rgb(0,0,0)"/>
<path d="M53 54h2v1h-2v-1z" fill="rgb(90,57,32)"/>
<path d="M56 54h2v1h-2v-1z" fill="rgb(90,57,32)"/>
<path d="M59 54h2v3h-1v-1h-1v-2z" fill="rgb(205,205,205)"/>
<path d="M30 55h9v1h-9v-1z" fill="rgb(172,139,65)"/>
<path d="M53 55h1v2h-1v-2z" fill="rgb(255,255,255)"/>
<path d="M54 55h1v2h-1v-2z" fill="rgb(205,205,205)"/>
<path d="M55 55h1v1h-1v-1z" fill="rgb(98,98,98)"/>
<path d="M56 55h2v3h-1v-1h-1v-2z" fill="rgb(205,205,205)"/>
<path d="M58 55h1v1h1v1h-1v1h-1v-3z" fill="rgb(0,0,0)"/>
<path d="M26 56h1v1h-1v-1z" fill="rgb(90,57,32)"/>
<path d="M28 56h2v1h-2v-1z" fill="rgb(172,139,65)"/>
<path d="M30 56h1v1h-1v-1z" fill="rgb(238,189,139)"/>
<path d="M31 56h7v1h4v1h2v1h-1v1h-1v1h-13v1h-1v-1h-1v-3h1v-1h3v-1z" fill="rgb(255,238,189)"/>
<path d="M38 56h1v1h-1v-1z" fill="rgb(238,189,139)"/>
<path d="M39 56h4v1h-4v-1z" fill="rgb(172,139,65)"/>
<path d="M44 56h1v1h-1v-1z" fill="rgb(238,189,139)"/>
<path d="M45 56h1v2h-3v-1h2v-1z" fill="rgb(172,139,65)"/>
<path d="M47 56h1v1h-1v-1z" fill="rgb(0,0,0)"/>
<path d="M48 56h3v1h1v1h1v1h1v1h1v5h-1v1h-1v1h-1v1h-4v-1h-2v-1h-1v-1h-1v-2h1v1h1v1h3v-1
	h1v-4h-1v-1h-3v-1h1v-1h1v-1z" fill="rgb(238,156,57)"/>
<path d="M55 56h1v1h-1v-1z" fill="rgb(0,0,0)"/>
<path d="M25 57h1v1h-1v-1z" fill="rgb(90,57,32)"/>
<path d="M26 57h1v1h-1v-1z" fill="rgb(238,156,57)"/>
<path d="M42 57h1v1h-1v-1z" fill="rgb(238,189,139)"/>
<path d="M46 57h1v1h-1v-1z" fill="rgb(0,0,0)"/>
<path d="M53 57h1v1h-1v-1z" fill="rgb(205,205,205)"/>
<path d="M54 57h1v1h-1v-1z" fill="rgb(0,0,0)"/>
<path d="M55 57h1v1h1v2h1v3h1v7h-1v2h-1v5h1v2h1v1h-2v-1h-4v-2h-1v-2h-1v-1h-1v-1h-2v-1h-1
	v-1h-1v-1h-1v-2h-1v-3h1v1h1v1h2v1h4v-1h1v-1h1v-1h1v-5h-1v-2h1v-1z" fill="rgb(222,115,57)"/>
<path d="M56 57h1v1h-1v-1z" fill="rgb(0,0,0)"/>
<path d="M60 57h1v1h-1v-1z" fill="rgb(0,0,0)"/>
<path d="M74 57h1v3h-1v-3z" fill="rgb(0,0,0)"/>
<path d="M24 58h1v2h-1v-2z" fill="rgb(90,57,32)"/>
<path d="M25 58h1v1h-1v-1z" fill="rgb(238,156,57)"/>
<path d="M26 58h1v5h-1v-5z" fill="rgb(0,0,0)"/>
<path d="M44 58h1v2h-1v2h-4v-1h2v-1h1v-1h1v-1z" fill="rgb(238,189,139)"/>
<path d="M45 58h1v2h-1v-2z" fill="rgb(0,0,0)"/>
<path d="M53 58h1v1h-1v-1z" fill="rgb(0,0,0)"/>
<path d="M57 58h1v2h-1v-2z" fill="rgb(0,0,0)"/>
<path d="M25 59h1v5h-1v1h-2v-3h1v-2h1v-1z" fill="rgb(246,189,90)"/>
<path d="M46 59h3v1h1v4h-1v1h-3v-1h-1v-3h1v-2z" fill="rgb(246,189,90)"/>
<path d="M23 60h1v2h-1v-2z" fill="rgb(90,57,32)"/>
<path d="M44 60h1v3h-1v-3z" fill="rgb(0,0,0)"/>
<path d="M45 60h1v1h-1v-1z" fill="rgb(238,156,57)"/>
<path d="M58 60h1v3h-1v-3z" fill="rgb(0,0,0)"/>
<path d="M72 60h1v1h-1v-1z" fill="rgb(156,90,74)"/>
<path d="M73 60h1v2h-1v-2z" fill="rgb(0,0,0)"/>
<path d="M27 61h1v1h-1v-1z" fill="rgb(238,189,139)"/>
<path d="M29 61h11v1h-11v-1z" fill="rgb(172,139,65)"/>
<path d="M71 61h1v1h-1v-1z" fill="rgb(156,90,74)"/>
<path d="M72 61h1v1h-1v-1z" fill="rgb(172,139,65)"/>
<path d="M22 62h1v4h-1v-4z" fill="rgb(90,57,32)"/>
<path d="M27 62h2v1h-2v-1z" fill="rgb(172,139,65)"/>
<path d="M29 62h10v1h-2v1h-7v-1h-1v-1z" fill="rgb(255,238,189)"/>
<path d="M39 62h1v1h3v3h-2v1h-11v-1h-2v-3h2v1h7v-1h2v-1z" fill="rgb(238,189,139)"/>
<path d="M40 62h4v1h-4v-1z" fill="rgb(172,139,65)"/>
<path d="M70 62h1v4h-1v-2h-1v-1h1v-1z" fill="rgb(156,90,74)"/>
<path d="M71 62h1v2h-1v-2z" fill="rgb(172,139,65)"/>
<path d="M72 62h1v2h-1v-2z" fill="rgb(0,0,0)"/>
<path d="M26 63h1v4h-1v1h-3v-3h2v-1h1v-1z" fill="rgb(238,156,57)"/>
<path d="M27 63h1v3h-1v-3z" fill="rgb(0,0,0)"/>
<path d="M43 63h1v5h-1v-5z" fill="rgb(0,0,0)"/>
<path d="M59 63h1v7h-1v-7z" fill="rgb(0,0,0)"/>
<path d="M68 64h1v3h-1v-1h-1v-1h1v-1z" fill="rgb(156,90,74)"/>
<path d="M69 64h1v3h-1v-3z" fill="rgb(172,139,65)"/>
<path d="M71 64h1v2h-1v-2z" fill="rgb(0,0,0)"/>
<path d="M22 66h1v2h-1v-2z" fill="rgb(0,0,0)"/>
<path d="M27 66h1v2h1v2h1v1h1v1h1v1h2v1h2v3h-1v1h-1v1h-1v1h-2v1h-2v1h-2v-1h-1v-1h2v-1h-1
	v-1h1v-1h1v-2h-1v-1h-1v-1h-1v-1h-1v-2h-1v-2h2v-1h1v-1z" fill="rgb(222,115,57)"/>
<path d="M28 66h1v2h-1v-2z" fill="rgb(0,0,0)"/>
<path d="M29 66h1v1h-1v-1z" fill="rgb(172,139,65)"/>
<path d="M41 66h2v1h-2v-1z" fill="rgb(172,139,65)"/>
<path d="M65 66h2v1h-1v2h-1v-1h-2v-1h2v-1z" fill="rgb(156,90,74)"/>
<path d="M67 66h1v1h-1v-1z" fill="rgb(172,139,65)"/>
<path d="M70 66h1v1h-1v-1z" fill="rgb(0,0,0)"/>
<path d="M29 67h1v1h-1v-1z" fill="rgb(238,189,139)"/>
<path d="M30 67h11v1h-11v-1z" fill="rgb(172,139,65)"/>
<path d="M41 67h2v1h1v1h-1v1h-3v1h-8v-1h-1v-1h-1v-1h11v-1z" fill="rgb(238,189,139)"/>
<path d="M66 67h1v3h-2v-1h1v-2z" fill="rgb(172,139,65)"/>
<path d="M67 67h1v2h-1v-2z" fill="rgb(156,90,74)"/>
<path d="M68 67h1v1h-1v-1z" fill="rgb(172,139,65)"/>
<path d="M69 67h1v1h-1v-1z" fill="rgb(0,0,0)"/>
<path d="M23 68h1v2h-1v-2z" fill="rgb(0,0,0)"/>
<path d="M29 68h1v2h-1v-2z" fill="rgb(0,0,0)"/>
<path d="M44 68h1v2h-1v-2z" fill="rgb(0,0,0)"/>
<path d="M60 68h3v2h-1v-1h-2v-1z" fill="rgb(156,90,74)"/>
<path d="M63 68h2v1h-1v2h-1v1h-1v-2h1v-2z" fill="rgb(172,139,65)"/>
<path d="M68 68h1v1h-1v-1z" fill="rgb(0,0,0)"/>
<path d="M30 69h1v1h-1v-1z" fill="rgb(172,139,65)"/>
<path d="M43 69h1v1h1v1h-2v1h-11v-1h8v-1h3v-1z" fill="rgb(172,139,65)"/>
<path d="M60 69h2v1h-1v2h-1v-3z" fill="rgb(172,139,65)"/>
<path d="M64 69h1v2h-1v-2z" fill="rgb(156,90,74)"/>
<path d="M67 69h1v1h-1v-1z" fill="rgb(0,0,0)"/>
<path d="M24 70h1v2h-1v-2z" fill="rgb(0,0,0)"/>
<path d="M30 70h1v1h-1v-1z" fill="rgb(0,0,0)"/>
<path d="M31 70h1v1h-1v-1z" fill="rgb(172,139,65)"/>
<path d="M45 70h1v1h-1v-1z" fill="rgb(0,0,0)"/>
<path d="M58 70h1v2h-1v-2z" fill="rgb(0,0,0)"/>
<path d="M59 70h1v2h-1v-2z" fill="rgb(156,90,74)"/>
<path d="M61 70h1v2h-1v-2z" fill="rgb(156,90,74)"/>
<path d="M65 70h2v1h-2v-1z" fill="rgb(0,0,0)"/>
<path d="M31 71h1v1h-1v-1z" fill="rgb(0,0,0)"/>
<path d="M43 71h3v1h-3v-1z" fill="rgb(156,90,74)"/>
<path d="M46 71h1v1h-1v-1z" fill="rgb(0,0,0)"/>
<path d="M63 71h2v1h-2v-1z" fill="rgb(0,0,0)"/>
<path d="M25 72h1v1h-1v-1z" fill="rgb(0,0,0)"/>
<path d="M32 72h2v1h-2v-1z" fill="rgb(0,0,0)"/>
<path d="M34 72h9v1h-9v-1z" fill="rgb(156,90,74)"/>
<path d="M43 72h4v1h1v1h2v1h-10v-1h-4v-1h7v-1z" fill="rgb(172,139,65)"/>
<path d="M47 72h1v1h-1v-1z" fill="rgb(0,0,0)"/>
<path d="M57 72h1v1h3v1h-3v3h-1v-5z" fill="rgb(0,0,0)"/>
<path d="M58 72h2v1h-2v-1z" fill="rgb(172,139,65)"/>
<path d="M60 72h1v1h-1v-1z" fill="rgb(156,90,74)"/>
<path d="M61 72h2v1h-2v-1z" fill="rgb(0,0,0)"/>
<path d="M26 73h1v1h-1v-1z" fill="rgb(0,0,0)"/>
<path d="M34 73h2v1h-2v-1z" fill="rgb(0,0,0)"/>
<path d="M48 73h2v1h-2v-1z" fill="rgb(0,0,0)"/>
<path d="M27 74h1v1h-1v-1z" fill="rgb(0,0,0)"/>
<path d="M36 74h4v1h-3v2h-1v-3z" fill="rgb(0,0,0)"/>
<path d="M50 74h1v1h-1v-1z" fill="rgb(0,0,0)"/>
<path d="M26 75h1v2h-3v-1h2v-1z" fill="rgb(90,57,32)"/>
<path d="M27 75h1v2h-1v-2z" fill="rgb(222,115,57)"/>
<path d="M28 75h1v1h-1v-1z" fill="rgb(90,57,32)"/>
<path d="M40 75h10v1h-10v-1z" fill="rgb(0,0,0)"/>
<path d="M51 75h1v2h-1v-2z" fill="rgb(90,57,32)"/>
<path d="M28 76h1v1h-1v-1z" fill="rgb(156,90,74)"/>
<path d="M22 77h2v1h-2v-1z" fill="rgb(0,0,0)"/>
<path d="M24 77h3v2h1v1h-2v-1h-1v-1h-1v-1z" fill="rgb(238,156,57)"/>
<path d="M27 77h1v1h-1v-1z" fill="rgb(156,90,74)"/>
<path d="M35 77h1v1h-1v-1z" fill="rgb(0,0,0)"/>
<path d="M50 77h1v2h-1v-2z" fill="rgb(0,0,0)"/>
<path d="M51 77h1v2h1v1h-2v2h1v1h-2v-4h1v-2z" fill="rgb(222,115,57)"/>
<path d="M52 77h1v2h-1v-2z" fill="rgb(156,90,74)"/>
<path d="M58 77h1v2h-1v-2z" fill="rgb(0,0,0)"/>
<path d="M21 78h1v1h-1v-1z" fill="rgb(0,0,0)"/>
<path d="M22 78h1v1h-1v-1z" fill="rgb(255,255,255)"/>
<path d="M23 78h1v1h-1v-1z" fill="rgb(98,98,98)"/>
<path d="M24 78h1v1h-1v-1z" fill="rgb(222,115,57)"/>
<path d="M34 78h1v1h-1v-1z" fill="rgb(0,0,0)"/>
<path d="M20 79h1v2h-1v-2z" fill="rgb(0,0,0)"/>
<path d="M21 79h1v1h-1v-1z" fill="rgb(255,255,255)"/>
<path d="M22 79h1v1h-1v-1z" fill="rgb(0,0,0)"/>
<path d="M23 79h1v1h-1v-1z" fill="rgb(205,205,205)"/>
<path d="M24 79h1v1h-1v-1z" fill="rgb(98,98,98)"/>
<path d="M25 79h1v1h-1v-1z" fill="rgb(222,115,57)"/>
<path d="M33 79h1v1h-1v-1z" fill="rgb(0,0,0)"/>
<path d="M49 79h1v4h-1v-4z" fill="rgb(0,0,0)"/>
<path d="M53 79h4v1h2v1h-1v1h-2v-1h-1v1h-2v-1h-1v1h-1v-2h2v-1z" fill="rgb(238,156,57)"/>
<path d="M59 79h1v2h-1v-2z" fill="rgb(0,0,0)"/>
<path d="M21 80h1v1h-1v-1z" fill="rgb(98,98,98)"/>
<path d="M22 80h1v1h-1v-1z" fill="rgb(255,255,255)"/>
<path d="M23 80h1v1h-1v-1z" fill="rgb(0,0,0)"/>
<path d="M24 80h1v2h-2v-1h1v-1z" fill="rgb(255,255,255)"/>
<path d="M25 80h1v2h-1v-2z" fill="rgb(205,205,205)"/>
<path d="M31 80h2v1h-2v-1z" fill="rgb(0,0,0)"/>
<path d="M21 81h2v1h6v1h-7v-1h-1v-1z" fill="rgb(0,0,0)"/>
<path d="M26 81h1v1h-1v-1z" fill="rgb(98,98,98)"/>
<path d="M29 81h2v1h-2v-1z" fill="rgb(0,0,0)"/>
<path d="M52 81h1v1h-1v-1z" fill="rgb(222,115,57)"/>
<path d="M55 81h1v1h-1v-1z" fill="rgb(222,115,57)"/>
<path d="M58 81h2v2h-1v-1h-1v-1z" fill="rgb(222,115,57)"/>
<path d="M60 81h1v4h-1v-4z" fill="rgb(0,0,0)"/>
<path d="M52 82h1v4h-1v-1h-1v-2h1v-1z" fill="rgb(255,255,255)"/>
<path d="M53 82h2v1h-1v1h-1v-2z" fill="rgb(222,115,57)"/>
<path d="M55 82h1v1h1v2h-1v1h-1v-1h-1v-2h1v-1z" fill="rgb(255,255,255)"/>
<path d="M56 82h2v2h-1v-1h-1v-1z" fill="rgb(222,115,57)"/>
<path d="M58 82h1v1h1v2h-1v1h-1v-4z" fill="rgb(255,255,255)"/>
<path d="M50 83h1v2h-1v-2z" fill="rgb(0,0,0)"/>
<path d="M53 84h1v1h1v1h-2v-2z" fill="rgb(0,0,0)"/>
<path d="M57 84h1v2h-2v-1h1v-1z" fill="rgb(0,0,0)"/>
<path d="M51 85h1v1h-1v-1z" fill="rgb(0,0,0)"/>
<path d="M59 85h1v1h-1v-1z" fill="rgb(0,0,0)"/>
<path d="M52 86h1v1h-1v-1z" fill="rgb(0,0,0)"/>
<path d="M55 86h1v1h-1v-1z" fill="rgb(0,0,0)"/>
<path d="M58 86h1v1h-1v-1z" fill="rgb(0,0,0)"/>
</svg>
