<?xml version="1.0" encoding="utf-8"?>
<!-- generated at drububu.com  -->
<!DOCTYPE svg PUBLIC "-//W3C//DTD SVG 1.1//EN" "http://www.w3.org/Graphics/SVG/1.1/DTD/svg11.dtd">
<svg version="1.1" preserveAspectRatio="xMinYMin meet" xmlns="http://www.w3.org/2000/svg" xmlns:xlink="http://www.w3.org/1999/xlink" x="0px" y="0px" width="96px" height="96px" viewBox="0 0 96 96">
<path d="M0 0h96v96h-96v-96z" fill="transparent"/>
<path d="M46 19h1v4h-1v-4z" fill="rgb(139,123,148)"/>
<path d="M47 19h1v1h-1v-1z" fill="rgb(24,24,24)"/>
<path d="M47 20h1v1h-1v-1z" fill="rgb(222,205,246)"/>
<path d="M48 20h1v1h-1v-1z" fill="rgb(24,24,24)"/>
<path d="M47 21h1v1h1v1h1v1h1v2h1v1h1v1h1v1h1v2h1v1h1v2h1v1h1v2h-1v1h-1v-1h-1v-2h-1v-1
	h-1v-2h-1v-2h-1v-1h-1v-2h-1v-2h-1v-1h-1v-1h-1v-2z" fill="rgb(189,172,197)"/>
<path d="M48 21h1v1h-1v-1z" fill="rgb(222,205,246)"/>
<path d="M49 21h1v1h-1v-1z" fill="rgb(24,24,24)"/>
<path d="M49 22h1v1h-1v-1z" fill="rgb(222,205,246)"/>
<path d="M50 22h1v1h-1v-1z" fill="rgb(24,24,24)"/>
<path d="M47 23h1v3h-1v-3z" fill="rgb(139,123,148)"/>
<path d="M50 23h1v1h-1v-1z" fill="rgb(222,205,246)"/>
<path d="M51 23h1v1h-1v-1z" fill="rgb(24,24,24)"/>
<path d="M66 23h1v1h-1v-1z" fill="rgb(139,123,148)"/>
<path d="M67 23h4v1h-4v-1z" fill="rgb(189,172,197)"/>
<path d="M48 24h1v1h-1v-1z" fill="rgb(255,255,255)"/>
<path d="M51 24h1v1h1v1h1v1h1v1h1v1h1v1h1v1h1v1h1v4h-1v-1h-1v-1h-1v-2h-1v-1h-1v-2h-1v-1
	h-1v-1h-1v-1h-1v-2z" fill="rgb(222,205,246)"/>
<path d="M52 24h1v1h-1v-1z" fill="rgb(24,24,24)"/>
<path d="M64 24h1v1h-1v-1z" fill="rgb(139,123,148)"/>
<path d="M65 24h1v1h-1v-1z" fill="rgb(189,172,197)"/>
<path d="M66 24h5v2h-1v1h-1v1h-1v1h-1v1h-3v1h-4v-2h1v-1h1v-1h1v-1h1v-1h2v-1z" fill="rgb(255,255,255)"/>
<path d="M71 24h2v1h-1v1h-1v-2z" fill="rgb(189,172,197)"/>
<path d="M48 25h1v1h-1v-1z" fill="rgb(238,230,255)"/>
<path d="M49 25h1v2h1v2h1v1h1v2h1v2h1v1h1v2h1v1h-4v-1h-1v-3h-1v-3h-1v-3h-1v-3z" fill="rgb(255,255,255)"/>
<path d="M53 25h1v1h-1v-1z" fill="rgb(24,24,24)"/>
<path d="M63 25h1v1h-1v-1z" fill="rgb(139,123,148)"/>
<path d="M72 25h1v1h1v2h1v1h-1v1h-1v1h-1v1h-1v1h-1v1h-1v1h-1v1h-2v-1h-1v1h-1v1h-1v1h-1v1
	h-1v-1h-1v-2h1v-3h2v-1h3v-1h1v-1h2v-1h1v-1h1v-2h1v-1z" fill="rgb(255,255,255)"/>
<path d="M73 25h1v1h-1v-1z" fill="rgb(189,172,197)"/>
<path d="M48 26h1v1h-1v-1z" fill="rgb(189,172,197)"/>
<path d="M54 26h1v1h-1v-1z" fill="rgb(24,24,24)"/>
<path d="M62 26h1v1h-1v-1z" fill="rgb(139,123,148)"/>
<path d="M70 26h1v1h-1v-1z" fill="rgb(189,172,197)"/>
<path d="M74 26h1v2h-1v-2z" fill="rgb(189,172,197)"/>
<path d="M48 27h1v2h-1v-2z" fill="rgb(139,123,148)"/>
<path d="M55 27h1v1h-1v-1z" fill="rgb(24,24,24)"/>
<path d="M61 27h1v1h-1v-1z" fill="rgb(139,123,148)"/>
<path d="M69 27h1v1h-1v-1z" fill="rgb(189,172,197)"/>
<path d="M70 27h1v1h-1v-1z" fill="rgb(238,230,255)"/>
<path d="M49 28h1v1h-1v-1z" fill="rgb(238,230,255)"/>
<path d="M56 28h1v1h-1v-1z" fill="rgb(24,24,24)"/>
<path d="M60 28h1v1h-1v-1z" fill="rgb(139,123,148)"/>
<path d="M68 28h1v1h-1v-1z" fill="rgb(189,172,197)"/>
<path d="M69 28h1v1h-1v-1z" fill="rgb(238,230,255)"/>
<path d="M75 28h1v3h-1v-1h-1v-1h1v-1z" fill="rgb(189,172,197)"/>
<path d="M33 29h4v1h-4v-1z" fill="rgb(189,172,197)"/>
<path d="M49 29h1v1h-1v-1z" fill="rgb(189,172,197)"/>
<path d="M57 29h1v1h-1v-1z" fill="rgb(24,24,24)"/>
<path d="M59 29h1v2h-1v-2z" fill="rgb(139,123,148)"/>
<path d="M67 29h1v1h-1v-1z" fill="rgb(189,172,197)"/>
<path d="M68 29h1v1h-1v-1z" fill="rgb(238,230,255)"/>
<path d="M31 30h2v1h-2v-1z" fill="rgb(189,172,197)"/>
<path d="M33 30h4v1h1v1h2v1h1v1h1v1h1v1h1v1h-4v-1h-1v-1h-2v-1h-1v-1h-1v-1h-1v-1h-1v-1z" fill="rgb(255,255,255)"/>
<path d="M37 30h1v1h-1v-1z" fill="rgb(189,172,197)"/>
<path d="M49 30h1v2h-1v-2z" fill="rgb(139,123,148)"/>
<path d="M58 30h1v1h-1v-1z" fill="rgb(24,24,24)"/>
<path d="M64 30h1v1h-1v-1z" fill="rgb(238,230,255)"/>
<path d="M65 30h2v1h-2v-1z" fill="rgb(189,172,197)"/>
<path d="M73 30h1v1h-1v-1z" fill="rgb(189,172,197)"/>
<path d="M74 30h1v1h1v5h-1v1h-1v-2h-1v-4h1v-1z" fill="rgb(255,255,255)"/>
<path d="M30 31h1v1h-1v-1z" fill="rgb(189,172,197)"/>
<path d="M31 31h1v1h1v1h1v1h1v1h1v1h-2v1h-2v-1h-2v-4h1v-1z" fill="rgb(255,255,255)"/>
<path d="M32 31h1v1h-1v-1z" fill="rgb(238,230,255)"/>
<path d="M33 31h1v1h-1v-1z" fill="rgb(189,172,197)"/>
<path d="M38 31h1v1h-1v-1z" fill="rgb(189,172,197)"/>
<path d="M39 31h1v1h-1v-1z" fill="rgb(139,123,148)"/>
<path d="M50 31h1v1h-1v-1z" fill="rgb(238,230,255)"/>
<path d="M59 31h1v1h-1v-1z" fill="rgb(24,24,24)"/>
<path d="M60 31h5v1h-5v-1z" fill="rgb(189,172,197)"/>
<path d="M65 31h1v1h-1v-1z" fill="rgb(238,230,255)"/>
<path d="M72 31h1v1h-1v-1z" fill="rgb(189,172,197)"/>
<path d="M76 31h1v4h-1v-4z" fill="rgb(189,172,197)"/>
<path d="M29 32h1v2h-1v-2z" fill="rgb(189,172,197)"/>
<path d="M33 32h1v1h-1v-1z" fill="rgb(238,230,255)"/>
<path d="M34 32h1v1h-1v-1z" fill="rgb(189,172,197)"/>
<path d="M40 32h1v1h-1v-1z" fill="rgb(139,123,148)"/>
<path d="M50 32h1v1h-1v-1z" fill="rgb(189,172,197)"/>
<path d="M60 32h1v4h-1v-4z" fill="rgb(24,24,24)"/>
<path d="M61 32h2v1h-2v-1z" fill="rgb(238,230,255)"/>
<path d="M71 32h1v1h-1v-1z" fill="rgb(189,172,197)"/>
<path d="M72 32h1v1h-1v-1z" fill="rgb(238,230,255)"/>
<path d="M34 33h1v1h-1v-1z" fill="rgb(238,230,255)"/>
<path d="M35 33h1v1h-1v-1z" fill="rgb(189,172,197)"/>
<path d="M41 33h1v1h-1v-1z" fill="rgb(139,123,148)"/>
<path d="M50 33h1v2h-1v-2z" fill="rgb(139,123,148)"/>
<path d="M70 33h1v1h-1v-1z" fill="rgb(189,172,197)"/>
<path d="M71 33h1v1h-1v-1z" fill="rgb(222,205,246)"/>
<path d="M72 33h1v2h-1v-2z" fill="rgb(189,172,197)"/>
<path d="M28 34h1v1h1v1h-2v-2z" fill="rgb(189,172,197)"/>
<path d="M29 34h1v1h-1v-1z" fill="rgb(238,230,255)"/>
<path d="M35 34h1v1h-1v-1z" fill="rgb(238,230,255)"/>
<path d="M36 34h1v1h-1v-1z" fill="rgb(189,172,197)"/>
<path d="M42 34h1v1h-1v-1z" fill="rgb(139,123,148)"/>
<path d="M51 34h1v1h-1v-1z" fill="rgb(238,230,255)"/>
<path d="M69 34h1v1h-1v-1z" fill="rgb(189,172,197)"/>
<path d="M70 34h1v1h-1v-1z" fill="rgb(238,230,255)"/>
<path d="M71 34h1v2h1v3h-1v1h-1v1h-1v1h-1v1h-1v6h-1v-2h-1v-1h-2v1h-1v1h-2v-1h1v-1h1v-1h1
	v-1h1v-1h1v-1h1v-1h1v-1h1v-1h-1v-2h1v-1h1v-1h1v-1z" fill="rgb(255,255,255)"/>
<path d="M36 35h1v1h-1v-1z" fill="rgb(238,230,255)"/>
<path d="M37 35h1v1h-1v-1z" fill="rgb(82,90,123)"/>
<path d="M38 35h1v1h1v1h1v1h1v1h-2v-1h-1v-1h-2v-1h1v-1z" fill="rgb(24,24,24)"/>
<path d="M43 35h1v1h-1v-1z" fill="rgb(139,123,148)"/>
<path d="M51 35h1v1h-1v-1z" fill="rgb(189,172,197)"/>
<path d="M65 35h1v1h-1v-1z" fill="rgb(222,205,246)"/>
<path d="M68 35h1v1h-1v-1z" fill="rgb(189,172,197)"/>
<path d="M69 35h1v1h-1v-1z" fill="rgb(238,230,255)"/>
<path d="M72 35h1v1h-1v-1z" fill="rgb(238,230,255)"/>
<path d="M73 35h1v2h-1v-2z" fill="rgb(189,172,197)"/>
<path d="M76 35h1v4h-1v-4z" fill="rgb(139,123,148)"/>
<path d="M27 36h1v4h-1v-4z" fill="rgb(189,172,197)"/>
<path d="M28 36h2v1h1v3h-1v1h-1v-1h-1v-4z" fill="rgb(255,255,255)"/>
<path d="M30 36h1v1h-1v-1z" fill="rgb(189,172,197)"/>
<path d="M31 36h1v1h-1v-1z" fill="rgb(238,230,255)"/>
<path d="M34 36h3v1h-2v1h-2v1h-2v-1h1v-1h2v-1z" fill="rgb(82,90,123)"/>
<path d="M44 36h1v2h-1v-2z" fill="rgb(139,123,148)"/>
<path d="M51 36h1v1h-1v-1z" fill="rgb(139,123,148)"/>
<path d="M59 36h1v3h1v1h1v1h1v1h-1v1h-1v1h-1v1h-2v1h-3v1h-1v1h-1v-2h1v-1h2v-1h2v-1h2v-3
	h-1v-1h-4v-1h3v-1h1v-1z" fill="rgb(24,24,24)"/>
<path d="M64 36h2v1h-2v-1z" fill="rgb(189,172,197)"/>
<path d="M66 36h1v1h-1v-1z" fill="rgb(222,205,246)"/>
<path d="M67 36h1v1h-1v-1z" fill="rgb(189,172,197)"/>
<path d="M68 36h1v1h-1v-1z" fill="rgb(238,230,255)"/>
<path d="M75 36h1v1h-1v-1z" fill="rgb(189,172,197)"/>
<path d="M31 37h1v1h-1v-1z" fill="rgb(189,172,197)"/>
<path d="M35 37h2v1h-1v1h-3v-1h2v-1z" fill="rgb(24,24,24)"/>
<path d="M37 37h1v1h2v1h1v1h1v2h-1v-1h-1v-1h-1v-1h-2v1h-1v-2h1v-1z" fill="rgb(255,255,255)"/>
<path d="M38 37h1v1h-1v-1z" fill="rgb(238,230,255)"/>
<path d="M41 37h3v1h-3v-1z" fill="rgb(189,172,197)"/>
<path d="M52 37h1v1h-1v-1z" fill="rgb(139,123,148)"/>
<path d="M63 37h1v1h-1v-1z" fill="rgb(189,172,197)"/>
<path d="M64 37h2v2h1v1h-1v1h-1v1h-1v1h-1v-2h-1v-2h1v-1h1v-1z" fill="rgb(255,255,255)"/>
<path d="M66 37h1v2h-1v-2z" fill="rgb(189,172,197)"/>
<path d="M67 37h1v1h-1v-1z" fill="rgb(238,230,255)"/>
<path d="M73 37h1v1h-1v-1z" fill="rgb(238,230,255)"/>
<path d="M74 37h1v1h-1v-1z" fill="rgb(189,172,197)"/>
<path d="M75 37h1v1h-1v-1z" fill="rgb(238,230,255)"/>
<path d="M42 38h3v1h-3v-1z" fill="rgb(238,230,255)"/>
<path d="M45 38h1v1h-1v-1z" fill="rgb(139,123,148)"/>
<path d="M53 38h2v7h-1v-6h-1v-1z" fill="rgb(139,123,148)"/>
<path d="M60 38h1v1h-1v-1z" fill="rgb(82,90,123)"/>
<path d="M62 38h1v1h-1v-1z" fill="rgb(189,172,197)"/>
<path d="M67 38h1v1h-1v-1z" fill="rgb(222,205,246)"/>
<path d="M73 38h1v1h-1v-1z" fill="rgb(139,123,148)"/>
<path d="M74 38h1v1h-1v-1z" fill="rgb(238,230,255)"/>
<path d="M75 38h1v1h-1v-1z" fill="rgb(255,255,255)"/>
<path d="M31 39h2v1h-2v-1z" fill="rgb(24,24,24)"/>
<path d="M33 39h1v1h1v2h-3v1h-1v-2h1v-1h1v-1z" fill="rgb(255,255,255)"/>
<path d="M34 39h1v1h-1v-1z" fill="rgb(189,172,197)"/>
<path d="M35 39h1v1h-1v-1z" fill="rgb(238,230,255)"/>
<path d="M37 39h1v1h-1v-1z" fill="rgb(189,172,197)"/>
<path d="M38 39h1v1h-1v-1z" fill="rgb(238,230,255)"/>
<path d="M41 39h1v1h-1v-1z" fill="rgb(82,90,123)"/>
<path d="M42 39h1v2h1v3h-1v-2h-1v-3z" fill="rgb(24,24,24)"/>
<path d="M43 39h3v2h-3v-2z" fill="rgb(255,255,255)"/>
<path d="M46 39h1v2h-1v-2z" fill="rgb(139,123,148)"/>
<path d="M55 39h3v1h1v1h-1v1h-1v1h-1v1h-1v-5z" fill="rgb(255,255,255)"/>
<path d="M58 39h1v1h-1v-1z" fill="rgb(82,90,123)"/>
<path d="M61 39h1v1h-1v-1z" fill="rgb(82,90,123)"/>
<path d="M67 39h1v1h-1v-1z" fill="rgb(189,172,197)"/>
<path d="M68 39h1v1h-1v-1z" fill="rgb(238,230,255)"/>
<path d="M72 39h1v1h-1v-1z" fill="rgb(189,172,197)"/>
<path d="M73 39h2v3h-1v2h-1v2h-1v1h-1v1h-2v-4h1v-1h1v-1h1v-1h1v-2z" fill="rgb(255,255,255)"/>
<path d="M75 39h1v3h-1v-3z" fill="rgb(139,123,148)"/>
<path d="M28 40h1v3h-1v-3z" fill="rgb(139,123,148)"/>
<path d="M30 40h1v1h-1v-1z" fill="rgb(189,172,197)"/>
<path d="M31 40h1v1h-1v-1z" fill="rgb(238,230,255)"/>
<path d="M35 40h1v1h-1v-1z" fill="rgb(189,172,197)"/>
<path d="M36 40h1v1h-1v-1z" fill="rgb(238,230,255)"/>
<path d="M37 40h1v1h1v1h1v1h-1v1h-2v-1h-1v-1h1v-2z" fill="rgb(255,255,255)"/>
<path d="M38 40h1v1h-1v-1z" fill="rgb(189,172,197)"/>
<path d="M39 40h1v1h-1v-1z" fill="rgb(238,230,255)"/>
<path d="M59 40h1v1h-1v-1z" fill="rgb(82,90,123)"/>
<path d="M66 40h1v1h-1v-1z" fill="rgb(189,172,197)"/>
<path d="M67 40h1v1h-1v-1z" fill="rgb(238,230,255)"/>
<path d="M71 40h1v1h-1v-1z" fill="rgb(189,172,197)"/>
<path d="M72 40h1v1h-1v-1z" fill="rgb(238,230,255)"/>
<path d="M29 41h1v1h-1v-1z" fill="rgb(189,172,197)"/>
<path d="M30 41h1v1h-1v-1z" fill="rgb(238,230,255)"/>
<path d="M35 41h1v1h-1v-1z" fill="rgb(238,230,255)"/>
<path d="M36 41h1v1h-1v-1z" fill="rgb(189,172,197)"/>
<path d="M39 41h1v1h-1v-1z" fill="rgb(189,172,197)"/>
<path d="M40 41h1v1h-1v-1z" fill="rgb(238,230,255)"/>
<path d="M44 41h2v1h-2v-1z" fill="rgb(131,74,0)"/>
<path d="M46 41h1v1h-1v-1z" fill="rgb(180,98,16)"/>
<path d="M47 41h1v1h-1v-1z" fill="rgb(139,123,148)"/>
<path d="M58 41h1v1h-1v-1z" fill="rgb(189,172,197)"/>
<path d="M59 41h1v1h-1v-1z" fill="rgb(238,230,255)"/>
<path d="M65 41h1v1h-1v-1z" fill="rgb(189,172,197)"/>
<path d="M66 41h1v1h-1v-1z" fill="rgb(238,230,255)"/>
<path d="M70 41h1v1h-1v-1z" fill="rgb(189,172,197)"/>
<path d="M71 41h1v1h-1v-1z" fill="rgb(238,230,255)"/>
<path d="M29 42h1v1h-1v-1z" fill="rgb(238,230,255)"/>
<path d="M30 42h1v1h-1v-1z" fill="rgb(189,172,197)"/>
<path d="M32 42h2v1h-2v-1z" fill="rgb(82,90,123)"/>
<path d="M34 42h1v1h2v1h-5v-1h2v-1z" fill="rgb(24,24,24)"/>
<path d="M35 42h1v1h-1v-1z" fill="rgb(189,172,197)"/>
<path d="M40 42h2v1h-2v-1z" fill="rgb(180,98,16)"/>
<path d="M42 42h1v2h1v-1h1v2h-1v1h-1v1h-2v1h-2v-1h-1v-2h1v-1h1v-1h2v-1z" fill="rgb(255,246,164)"/>
<path d="M44 42h3v1h1v1h1v1h-4v-2h-1v-1z" fill="rgb(255,205,74)"/>
<path d="M47 42h2v1h-2v-1z" fill="rgb(131,74,0)"/>
<path d="M57 42h1v1h-1v-1z" fill="rgb(189,172,197)"/>
<path d="M58 42h1v1h-1v-1z" fill="rgb(238,230,255)"/>
<path d="M59 42h1v1h-1v-1z" fill="rgb(255,255,255)"/>
<path d="M62 42h1v1h-1v-1z" fill="rgb(82,90,123)"/>
<path d="M64 42h1v1h-1v-1z" fill="rgb(189,172,197)"/>
<path d="M65 42h1v1h-1v-1z" fill="rgb(238,230,255)"/>
<path d="M69 42h1v1h-1v-1z" fill="rgb(189,172,197)"/>
<path d="M70 42h1v1h-1v-1z" fill="rgb(238,230,255)"/>
<path d="M74 42h1v2h-1v-2z" fill="rgb(139,123,148)"/>
<path d="M29 43h1v1h-1v-1z" fill="rgb(139,123,148)"/>
<path d="M30 43h2v1h-2v-1z" fill="rgb(82,90,123)"/>
<path d="M39 43h1v1h-1v-1z" fill="rgb(180,98,16)"/>
<path d="M48 43h1v1h-1v-1z" fill="rgb(230,148,32)"/>
<path d="M49 43h1v1h-1v-1z" fill="rgb(131,74,0)"/>
<path d="M56 43h1v1h-1v-1z" fill="rgb(189,172,197)"/>
<path d="M57 43h1v1h-1v-1z" fill="rgb(82,90,123)"/>
<path d="M61 43h1v1h-1v-1z" fill="rgb(82,90,123)"/>
<path d="M62 43h1v1h-1v-1z" fill="rgb(255,255,255)"/>
<path d="M63 43h1v1h-1v-1z" fill="rgb(189,172,197)"/>
<path d="M64 43h1v1h-1v-1z" fill="rgb(238,230,255)"/>
<path d="M68 43h1v6h-1v-6z" fill="rgb(189,172,197)"/>
<path d="M69 43h1v1h-1v-1z" fill="rgb(238,230,255)"/>
<path d="M29 44h1v1h-1v-1z" fill="rgb(82,90,123)"/>
<path d="M30 44h2v1h-1v1h-1v1h-1v1h-1v-2h1v-1h1v-1z" fill="rgb(24,24,24)"/>
<path d="M32 44h1v1h-1v-1z" fill="rgb(189,172,197)"/>
<path d="M33 44h2v1h1v2h-1v-1h-1v-1h-1v-1z" fill="rgb(255,255,255)"/>
<path d="M35 44h1v1h-1v-1z" fill="rgb(189,172,197)"/>
<path d="M36 44h1v1h-1v-1z" fill="rgb(238,230,255)"/>
<path d="M37 44h2v1h-2v-1z" fill="rgb(24,24,24)"/>
<path d="M49 44h1v1h1v3h-1v2h-1v1h-2v-1h1v-1h1v-3h-1v-1h1v-1z" fill="rgb(230,148,32)"/>
<path d="M50 44h1v1h-1v-1z" fill="rgb(131,74,0)"/>
<path d="M55 44h1v1h-1v-1z" fill="rgb(82,90,123)"/>
<path d="M60 44h2v1h-1v1h-1v1h-1v1h-1v1h-1v-1h-1v-2h2v-1h2v-1z" fill="rgb(255,255,255)"/>
<path d="M62 44h1v1h-1v-1z" fill="rgb(189,172,197)"/>
<path d="M63 44h1v1h-1v-1z" fill="rgb(238,230,255)"/>
<path d="M73 44h1v2h-1v-2z" fill="rgb(139,123,148)"/>
<path d="M28 45h1v1h-1v-1z" fill="rgb(82,90,123)"/>
<path d="M31 45h1v1h1v1h2v4h-1v-1h-1v-1h-1v-2h-1v-2z" fill="rgb(255,255,255)"/>
<path d="M32 45h1v1h-1v-1z" fill="rgb(238,230,255)"/>
<path d="M33 45h1v1h-1v-1z" fill="rgb(189,172,197)"/>
<path d="M36 45h1v1h-1v-1z" fill="rgb(189,172,197)"/>
<path d="M37 45h1v1h-1v-1z" fill="rgb(180,98,16)"/>
<path d="M44 45h1v1h-1v-1z" fill="rgb(255,205,74)"/>
<path d="M45 45h3v1h-3v-1z" fill="rgb(156,0,8)"/>
<path d="M51 45h1v3h-1v-3z" fill="rgb(131,74,0)"/>
<path d="M52 45h1v1h-1v-1z" fill="rgb(180,98,16)"/>
<path d="M61 45h1v1h-1v-1z" fill="rgb(189,172,197)"/>
<path d="M62 45h1v1h-1v-1z" fill="rgb(238,230,255)"/>
<path d="M27 46h1v2h-2v-1h1v-1z" fill="rgb(82,90,123)"/>
<path d="M30 46h1v1h-1v-1z" fill="rgb(139,123,148)"/>
<path d="M33 46h1v1h-1v-1z" fill="rgb(238,230,255)"/>
<path d="M34 46h1v1h-1v-1z" fill="rgb(189,172,197)"/>
<path d="M36 46h1v1h-1v-1z" fill="rgb(156,0,8)"/>
<path d="M37 46h1v1h-1v-1z" fill="rgb(230,148,32)"/>
<path d="M43 46h1v1h-1v-1z" fill="rgb(255,205,74)"/>
<path d="M44 46h1v1h2v-1h1v2h-3v1h-1v1h-1v-3h1v-1z" fill="rgb(213,24,49)"/>
<path d="M45 46h2v1h-2v-1z" fill="rgb(255,255,255)"/>
<path d="M48 46h1v3h-1v-3z" fill="rgb(156,0,8)"/>
<path d="M52 46h1v2h3v2h-1v2h1v1h-2v1h-3v-1h-2v-2h1v-1h1v-2h1v-2z" fill="rgb(230,148,32)"/>
<path d="M55 46h1v1h-1v-1z" fill="rgb(82,90,123)"/>
<path d="M60 46h1v1h-1v-1z" fill="rgb(189,172,197)"/>
<path d="M61 46h1v1h-1v-1z" fill="rgb(238,230,255)"/>
<path d="M64 46h2v1h-2v-1z" fill="rgb(82,90,123)"/>
<path d="M72 46h1v1h-1v-1z" fill="rgb(139,123,148)"/>
<path d="M31 47h1v2h-1v-2z" fill="rgb(139,123,148)"/>
<path d="M35 47h1v4h-1v-4z" fill="rgb(156,0,8)"/>
<path d="M36 47h1v1h-1v-1z" fill="rgb(255,255,255)"/>
<path d="M37 47h2v1h2v-1h2v4h1v1h-1v1h-2v1h-2v-1h-1v-5h-1v-1z" fill="rgb(255,205,74)"/>
<path d="M54 47h1v1h-1v-1z" fill="rgb(82,90,123)"/>
<path d="M55 47h1v1h-1v-1z" fill="rgb(131,74,0)"/>
<path d="M59 47h1v1h-1v-1z" fill="rgb(189,172,197)"/>
<path d="M60 47h1v1h-1v-1z" fill="rgb(238,230,255)"/>
<path d="M63 47h1v1h-1v-1z" fill="rgb(82,90,123)"/>
<path d="M64 47h2v1h1v9h-1v-8h-1v-1h-1v-1z" fill="rgb(24,24,24)"/>
<path d="M66 47h1v1h-1v-1z" fill="rgb(82,90,123)"/>
<path d="M71 47h1v1h-1v-1z" fill="rgb(139,123,148)"/>
<path d="M26 48h2v1h-2v-1z" fill="rgb(24,24,24)"/>
<path d="M36 48h1v1h1v1h-2v-2z" fill="rgb(213,24,49)"/>
<path d="M37 48h1v1h-1v-1z" fill="rgb(230,148,32)"/>
<path d="M45 48h3v1h-1v1h-3v-1h1v-1z" fill="rgb(255,148,106)"/>
<path d="M50 48h1v1h-1v-1z" fill="rgb(131,74,0)"/>
<path d="M56 48h1v2h3v-1h1v-1h3v1h-1v1h-1v1h-3v1h-2v1h-1v-1h-1v-1h1v-3z" fill="rgb(24,24,24)"/>
<path d="M58 48h1v1h-1v-1z" fill="rgb(139,123,148)"/>
<path d="M59 48h1v1h-1v-1z" fill="rgb(238,230,255)"/>
<path d="M60 48h1v1h-1v-1z" fill="rgb(255,255,255)"/>
<path d="M64 48h1v2h-2v-1h1v-1z" fill="rgb(255,255,255)"/>
<path d="M69 48h2v1h-2v-1z" fill="rgb(139,123,148)"/>
<path d="M71 48h1v1h-1v-1z" fill="rgb(189,172,197)"/>
<path d="M32 49h1v1h-1v-1z" fill="rgb(139,123,148)"/>
<path d="M47 49h1v1h-1v-1z" fill="rgb(213,24,49)"/>
<path d="M50 49h1v1h-1v-1z" fill="rgb(24,24,24)"/>
<path d="M57 49h1v1h-1v-1z" fill="rgb(139,123,148)"/>
<path d="M58 49h1v1h-1v-1z" fill="rgb(222,205,246)"/>
<path d="M59 49h1v1h-1v-1z" fill="rgb(82,90,123)"/>
<path d="M65 49h1v8h1v1h-2v-7h-1v-1h1v-1z" fill="rgb(82,90,123)"/>
<path d="M67 49h2v1h-2v-1z" fill="rgb(139,123,148)"/>
<path d="M69 49h3v2h1v3h-1v-1h-2v-1h-2v-1h-1v-1h2v-1z" fill="rgb(255,255,255)"/>
<path d="M72 49h1v2h-1v-2z" fill="rgb(189,172,197)"/>
<path d="M33 50h1v1h-1v-1z" fill="rgb(139,123,148)"/>
<path d="M36 50h1v1h-1v-1z" fill="rgb(255,148,106)"/>
<path d="M37 50h1v2h-2v-1h1v-1z" fill="rgb(156,0,8)"/>
<path d="M43 50h3v1h-3v-1z" fill="rgb(156,0,8)"/>
<path d="M46 50h1v1h-1v-1z" fill="rgb(213,24,49)"/>
<path d="M49 50h1v1h-1v-1z" fill="rgb(24,24,24)"/>
<path d="M55 50h1v1h-1v-1z" fill="rgb(82,90,123)"/>
<path d="M62 50h1v1h-1v-1z" fill="rgb(222,205,246)"/>
<path d="M63 50h1v1h-1v-1z" fill="rgb(139,123,148)"/>
<path d="M34 51h1v1h-1v-1z" fill="rgb(139,123,148)"/>
<path d="M35 51h1v1h-1v-1z" fill="rgb(255,255,255)"/>
<path d="M44 51h3v1h-2v1h-2v-1h1v-1z" fill="rgb(230,148,32)"/>
<path d="M47 51h2v2h-1v-1h-1v-1z" fill="rgb(24,24,24)"/>
<path d="M59 51h1v1h-1v-1z" fill="rgb(82,90,123)"/>
<path d="M60 51h3v1h-3v-1z" fill="rgb(139,123,148)"/>
<path d="M63 51h1v1h-1v-1z" fill="rgb(189,172,197)"/>
<path d="M64 51h1v7h1v2h-1v1h-1v-10z" fill="rgb(24,24,24)"/>
<path d="M67 51h1v1h-1v-1z" fill="rgb(238,230,255)"/>
<path d="M73 51h1v2h-1v-2z" fill="rgb(189,172,197)"/>
<path d="M35 52h2v1h-2v-1z" fill="rgb(139,123,148)"/>
<path d="M37 52h1v1h-1v-1z" fill="rgb(131,74,0)"/>
<path d="M45 52h1v1h-1v-1z" fill="rgb(131,74,0)"/>
<path d="M46 52h1v1h-1v-1z" fill="rgb(24,24,24)"/>
<path d="M47 52h1v1h-1v-1z" fill="rgb(255,255,255)"/>
<path d="M57 52h2v1h-2v-1z" fill="rgb(139,123,148)"/>
<path d="M59 52h2v1h1v2h-1v-1h-3v-1h1v-1z" fill="rgb(238,230,255)"/>
<path d="M61 52h3v3h-2v-2h-1v-1z" fill="rgb(255,255,255)"/>
<path d="M67 52h1v1h-1v-1z" fill="rgb(189,172,197)"/>
<path d="M68 52h1v1h-1v-1z" fill="rgb(139,123,148)"/>
<path d="M69 52h1v1h-1v-1z" fill="rgb(238,230,255)"/>
<path d="M37 53h1v1h-1v-1z" fill="rgb(139,123,148)"/>
<path d="M38 53h1v1h-1v-1z" fill="rgb(131,74,0)"/>
<path d="M41 53h1v1h-1v-1z" fill="rgb(230,148,32)"/>
<path d="M42 53h1v1h-1v-1z" fill="rgb(180,98,16)"/>
<path d="M43 53h2v1h-2v-1z" fill="rgb(131,74,0)"/>
<path d="M45 53h1v1h-1v-1z" fill="rgb(24,24,24)"/>
<path d="M46 53h1v1h-1v-1z" fill="rgb(139,123,148)"/>
<path d="M47 53h2v1h-2v-1z" fill="rgb(238,230,255)"/>
<path d="M49 53h1v2h-2v1h-1v1h-1v1h-1v1h-2v1h-2v4h-1v-4h-1v-1h1v-1h2v-1h2v-1h2v-1h1v-1h2
	v-1z" fill="rgb(24,24,24)"/>
<path d="M50 53h1v2h-1v-2z" fill="rgb(131,74,0)"/>
<path d="M54 53h1v1h-1v-1z" fill="rgb(131,74,0)"/>
<path d="M55 53h1v1h-1v-1z" fill="rgb(24,24,24)"/>
<path d="M56 53h1v1h-1v-1z" fill="rgb(180,98,16)"/>
<path d="M57 53h1v1h-1v-1z" fill="rgb(131,74,0)"/>
<path d="M67 53h1v1h-1v-1z" fill="rgb(238,230,255)"/>
<path d="M68 53h1v4h-1v-4z" fill="rgb(189,172,197)"/>
<path d="M69 53h1v1h-1v-1z" fill="rgb(139,123,148)"/>
<path d="M70 53h2v1h-2v-1z" fill="rgb(189,172,197)"/>
<path d="M73 53h1v4h-1v-4z" fill="rgb(139,123,148)"/>
<path d="M38 54h1v1h-1v-1z" fill="rgb(82,90,123)"/>
<path d="M39 54h1v1h2v-1h3v1h-2v1h-3v1h-3v-1h1v-1h1v-1z" fill="rgb(24,24,24)"/>
<path d="M40 54h1v1h-1v-1z" fill="rgb(230,148,32)"/>
<path d="M41 54h1v1h-1v-1z" fill="rgb(180,98,16)"/>
<path d="M45 54h2v1h-1v1h-2v1h-2v-1h1v-1h2v-1z" fill="rgb(238,230,255)"/>
<path d="M51 54h3v1h-3v-1z" fill="rgb(24,24,24)"/>
<path d="M54 54h4v1h1v1h1v1h1v2h-1v-1h-2v-1h-2v-1h-6v1h-2v-1h1v-1h5v-1z" fill="rgb(230,148,32)"/>
<path d="M58 54h1v1h-1v-1z" fill="rgb(131,74,0)"/>
<path d="M59 54h1v1h-1v-1z" fill="rgb(139,123,148)"/>
<path d="M60 54h1v1h-1v-1z" fill="rgb(189,172,197)"/>
<path d="M67 54h1v2h-1v-2z" fill="rgb(255,255,255)"/>
<path d="M69 54h2v1h2v2h-1v2h-1v-2h-2v-3z" fill="rgb(255,255,255)"/>
<path d="M71 54h1v1h-1v-1z" fill="rgb(238,230,255)"/>
<path d="M72 54h1v1h-1v-1z" fill="rgb(189,172,197)"/>
<path d="M28 55h3v1h-3v-1z" fill="rgb(189,172,197)"/>
<path d="M37 55h1v1h-1v-1z" fill="rgb(82,90,123)"/>
<path d="M48 55h1v1h-1v-1z" fill="rgb(131,74,0)"/>
<path d="M59 55h1v1h-1v-1z" fill="rgb(131,74,0)"/>
<path d="M60 55h1v1h-1v-1z" fill="rgb(238,230,255)"/>
<path d="M61 55h2v1h-2v-1z" fill="rgb(189,172,197)"/>
<path d="M63 55h1v1h-1v-1z" fill="rgb(139,123,148)"/>
<path d="M26 56h1v1h-1v-1z" fill="rgb(139,123,148)"/>
<path d="M27 56h1v1h-1v-1z" fill="rgb(189,172,197)"/>
<path d="M28 56h2v1h2v1h-2v1h-1v1h-2v1h-1v1h-2v1h-2v1h-1v1h-2v-1h1v-1h1v-1h1v-1h1v-1h1
	v-1h1v-1h1v-1h2v-1z" fill="rgb(255,255,255)"/>
<path d="M30 56h1v1h-1v-1z" fill="rgb(238,230,255)"/>
<path d="M31 56h1v1h-1v-1z" fill="rgb(139,123,148)"/>
<path d="M35 56h2v1h-2v-1z" fill="rgb(82,90,123)"/>
<path d="M40 56h1v2h-1v-2z" fill="rgb(238,230,255)"/>
<path d="M41 56h1v2h-1v-2z" fill="rgb(189,172,197)"/>
<path d="M47 56h1v1h-1v-1z" fill="rgb(131,74,0)"/>
<path d="M50 56h6v1h2v1h1v1h1v1h1v1h1v-2h1v6h-1v2h-1v-3h-1v-2h-1v-1h-2v-1h-2v-2h-1v-1h-4
	v-1z" fill="rgb(24,24,24)"/>
<path d="M60 56h1v1h-1v-1z" fill="rgb(131,74,0)"/>
<path d="M61 56h3v4h-1v-1h-1v-2h-1v-1z" fill="rgb(255,255,255)"/>
<path d="M67 56h1v1h-1v-1z" fill="rgb(139,123,148)"/>
<path d="M25 57h1v1h-1v-1z" fill="rgb(139,123,148)"/>
<path d="M32 57h1v1h-1v-1z" fill="rgb(139,123,148)"/>
<path d="M33 57h4v1h-1v1h-2v-1h-1v-1z" fill="rgb(24,24,24)"/>
<path d="M39 57h1v2h-1v-2z" fill="rgb(189,172,197)"/>
<path d="M46 57h1v2h-1v-2z" fill="rgb(131,74,0)"/>
<path d="M47 57h1v1h-1v-1z" fill="rgb(230,148,32)"/>
<path d="M48 57h2v1h-1v1h-1v2h-1v1h-1v-3h1v-1h1v-1z" fill="rgb(24,24,24)"/>
<path d="M50 57h4v1h1v1h-5v1h-2v-1h1v-1h1v-1z" fill="rgb(82,90,123)"/>
<path d="M61 57h1v2h-1v-2z" fill="rgb(24,24,24)"/>
<path d="M67 57h1v1h1v1h1v1h-1v1h-2v-1h-1v-2h1v-1z" fill="rgb(255,255,255)"/>
<path d="M68 57h1v1h-1v-1z" fill="rgb(238,230,255)"/>
<path d="M69 57h1v1h-1v-1z" fill="rgb(139,123,148)"/>
<path d="M70 57h1v1h-1v-1z" fill="rgb(238,230,255)"/>
<path d="M72 57h1v2h-1v-2z" fill="rgb(139,123,148)"/>
<path d="M24 58h1v1h-1v-1z" fill="rgb(139,123,148)"/>
<path d="M30 58h1v1h-1v-1z" fill="rgb(222,205,246)"/>
<path d="M31 58h2v2h-1v1h-2v1h-2v1h-2v1h-2v1h-3v-1h2v-1h1v-1h2v-1h2v-1h1v-1h2v-1z" fill="rgb(189,172,197)"/>
<path d="M33 58h1v2h-1v-2z" fill="rgb(139,123,148)"/>
<path d="M45 58h1v1h-1v-1z" fill="rgb(238,230,255)"/>
<path d="M59 58h1v1h-1v-1z" fill="rgb(131,74,0)"/>
<path d="M69 58h1v1h-1v-1z" fill="rgb(238,230,255)"/>
<path d="M70 58h1v1h-1v-1z" fill="rgb(139,123,148)"/>
<path d="M23 59h1v1h-1v-1z" fill="rgb(139,123,148)"/>
<path d="M43 59h1v2h-1v-2z" fill="rgb(189,172,197)"/>
<path d="M44 59h1v3h-2v-1h1v-2z" fill="rgb(238,230,255)"/>
<path d="M45 59h1v1h-1v-1z" fill="rgb(180,98,16)"/>
<path d="M50 59h5v2h-5v1h-2v-2h2v-1z" fill="rgb(255,246,164)"/>
<path d="M60 59h1v1h-1v-1z" fill="rgb(131,74,0)"/>
<path d="M61 59h1v2h-1v-2z" fill="rgb(230,148,32)"/>
<path d="M70 59h1v1h-1v-1z" fill="rgb(238,230,255)"/>
<path d="M71 59h1v1h-1v-1z" fill="rgb(139,123,148)"/>
<path d="M22 60h1v1h-1v-1z" fill="rgb(139,123,148)"/>
<path d="M27 60h1v1h-1v-1z" fill="rgb(222,205,246)"/>
<path d="M32 60h2v2h-1v1h-1v1h-2v1h-4v1h-4v1h-3v-1h2v-1h3v-1h2v-1h2v-1h2v-1h2v-1z" fill="rgb(222,205,246)"/>
<path d="M34 60h1v3h-1v-3z" fill="rgb(24,24,24)"/>
<path d="M38 60h1v2h-1v-2z" fill="rgb(24,24,24)"/>
<path d="M39 60h1v4h-1v2h-1v-3h-1v-1h2v-2z" fill="rgb(82,90,123)"/>
<path d="M41 60h1v1h-1v-1z" fill="rgb(189,172,197)"/>
<path d="M42 60h1v1h-1v-1z" fill="rgb(238,230,255)"/>
<path d="M45 60h1v4h1v1h-1v1h-1v-6z" fill="rgb(131,74,0)"/>
<path d="M55 60h2v1h1v2h-2v-1h-2v-1h1v-1z" fill="rgb(255,205,74)"/>
<path d="M63 60h1v1h-1v-1z" fill="rgb(82,90,123)"/>
<path d="M65 60h1v1h-1v-1z" fill="rgb(82,90,123)"/>
<path d="M66 60h1v1h-1v-1z" fill="rgb(24,24,24)"/>
<path d="M69 60h2v1h-2v-1z" fill="rgb(139,123,148)"/>
<path d="M21 61h1v1h-1v-1z" fill="rgb(139,123,148)"/>
<path d="M42 61h1v1h-1v-1z" fill="rgb(139,123,148)"/>
<path d="M47 61h1v2h-1v-2z" fill="rgb(255,205,74)"/>
<path d="M50 61h4v1h-2v1h-3v-1h1v-1z" fill="rgb(82,90,123)"/>
<path d="M58 61h1v1h1v3h1v2h-1v1h-1v-3h-1v-1h-1v-1h1v-2z" fill="rgb(230,148,32)"/>
<path d="M64 61h1v1h-1v-1z" fill="rgb(139,123,148)"/>
<path d="M65 61h1v1h1v-1h2v1h1v1h1v2h-1v-1h-2v-1h-3v-2z" fill="rgb(24,24,24)"/>
<path d="M66 61h1v1h-1v-1z" fill="rgb(82,90,123)"/>
<path d="M20 62h1v1h-1v-1z" fill="rgb(139,123,148)"/>
<path d="M33 62h1v1h-1v-1z" fill="rgb(189,172,197)"/>
<path d="M43 62h2v1h-2v-1z" fill="rgb(139,123,148)"/>
<path d="M46 62h1v1h-1v-1z" fill="rgb(180,98,16)"/>
<path d="M48 62h1v1h3v-1h4v1h1v1h1v2h1v2h1v1h-1v1h-2v-3h-1v-1h-2v-1h-6v1h-1v2h-1v-3h1v-2
	h1v-1z" fill="rgb(24,24,24)"/>
<path d="M70 62h1v1h-1v-1z" fill="rgb(82,90,123)"/>
<path d="M19 63h1v1h-1v-1z" fill="rgb(139,123,148)"/>
<path d="M22 63h1v1h-1v-1z" fill="rgb(222,205,246)"/>
<path d="M32 63h1v1h-1v-1z" fill="rgb(189,172,197)"/>
<path d="M33 63h1v1h-1v-1z" fill="rgb(24,24,24)"/>
<path d="M37 63h1v3h1v-2h1v3h-1v2h-1v2h-1v2h-1v1h-1v1h-1v2h2v1h-3v-1h-1v-2h1v-1h1v-1h1
	v-1h1v-3h1v-1h1v-1h-1v-4z" fill="rgb(24,24,24)"/>
<path d="M46 63h1v1h-1v-1z" fill="rgb(255,205,74)"/>
<path d="M71 63h1v2h-1v-2z" fill="rgb(82,90,123)"/>
<path d="M18 64h1v1h-1v-1z" fill="rgb(139,123,148)"/>
<path d="M30 64h3v1h-3v-1z" fill="rgb(24,24,24)"/>
<path d="M60 64h1v1h-1v-1z" fill="rgb(180,98,16)"/>
<path d="M17 65h1v1h-1v-1z" fill="rgb(139,123,148)"/>
<path d="M18 65h1v1h-1v-1z" fill="rgb(255,255,255)"/>
<path d="M19 65h2v1h-2v-1z" fill="rgb(189,172,197)"/>
<path d="M26 65h1v1h-1v-1z" fill="rgb(189,172,197)"/>
<path d="M27 65h3v1h-3v-1z" fill="rgb(24,24,24)"/>
<path d="M48 65h1v1h-1v-1z" fill="rgb(230,148,32)"/>
<path d="M49 65h4v1h2v2h-2v-1h-3v1h-2v-2h1v-1z" fill="rgb(255,205,74)"/>
<path d="M53 65h1v1h-1v-1z" fill="rgb(230,148,32)"/>
<path d="M58 65h1v1h-1v-1z" fill="rgb(131,74,0)"/>
<path d="M69 65h1v2h-2v-1h1v-1z" fill="rgb(24,24,24)"/>
<path d="M70 65h1v1h-1v-1z" fill="rgb(82,90,123)"/>
<path d="M16 66h1v1h-1v-1z" fill="rgb(139,123,148)"/>
<path d="M17 66h1v1h-1v-1z" fill="rgb(238,230,255)"/>
<path d="M18 66h1v1h-1v-1z" fill="rgb(189,172,197)"/>
<path d="M22 66h1v1h-1v-1z" fill="rgb(189,172,197)"/>
<path d="M23 66h4v1h-4v-1z" fill="rgb(24,24,24)"/>
<path d="M47 66h1v1h-1v-1z" fill="rgb(180,98,16)"/>
<path d="M55 66h1v1h-1v-1z" fill="rgb(180,98,16)"/>
<path d="M15 67h1v2h-1v-2z" fill="rgb(139,123,148)"/>
<path d="M16 67h2v1h-2v-1z" fill="rgb(189,172,197)"/>
<path d="M18 67h1v1h-1v-1z" fill="rgb(222,205,246)"/>
<path d="M19 67h4v1h-4v-1z" fill="rgb(24,24,24)"/>
<path d="M37 67h1v1h-1v-1z" fill="rgb(82,90,123)"/>
<path d="M47 67h1v1h-1v-1z" fill="rgb(230,148,32)"/>
<path d="M50 67h3v1h2v-1h1v1h1v2h-3v1h-1v-2h-1v-1h-2v-1z" fill="rgb(230,148,32)"/>
<path d="M56 67h1v1h-1v-1z" fill="rgb(180,98,16)"/>
<path d="M60 67h1v1h-1v-1z" fill="rgb(24,24,24)"/>
<path d="M16 68h3v1h-3v-1z" fill="rgb(24,24,24)"/>
<path d="M36 68h1v1h-1v-1z" fill="rgb(82,90,123)"/>
<path d="M47 68h1v1h1v1h-2v-2z" fill="rgb(131,74,0)"/>
<path d="M48 68h1v1h-1v-1z" fill="rgb(180,98,16)"/>
<path d="M49 68h2v3h-1v2h-1v-5z" fill="rgb(255,246,164)"/>
<path d="M51 68h1v1h1v2h-1v1h-1v1h-1v-2h1v-3z" fill="rgb(255,205,74)"/>
<path d="M48 70h1v2h-1v-2z" fill="rgb(180,98,16)"/>
<path d="M54 70h3v1h-2v1h-2v-1h1v-1z" fill="rgb(24,24,24)"/>
<path d="M35 71h1v1h-1v-1z" fill="rgb(82,90,123)"/>
<path d="M52 71h1v1h-1v-1z" fill="rgb(230,148,32)"/>
<path d="M48 72h1v2h-1v-2z" fill="rgb(230,148,32)"/>
<path d="M51 72h1v1h-1v-1z" fill="rgb(230,148,32)"/>
<path d="M52 72h1v1h-1v-1z" fill="rgb(24,24,24)"/>
<path d="M33 73h1v1h-1v-1z" fill="rgb(82,90,123)"/>
<path d="M49 73h1v2h-1v-2z" fill="rgb(255,205,74)"/>
<path d="M50 73h1v1h-1v-1z" fill="rgb(230,148,32)"/>
<path d="M51 73h1v1h-1v-1z" fill="rgb(24,24,24)"/>
<path d="M48 74h1v1h-1v-1z" fill="rgb(180,98,16)"/>
<path d="M50 74h1v1h-1v-1z" fill="rgb(24,24,24)"/>
<path d="M48 75h1v1h-1v-1z" fill="rgb(131,74,0)"/>
<path d="M49 75h1v1h-1v-1z" fill="rgb(24,24,24)"/>
</svg>
