<?xml version="1.0" encoding="utf-8"?>
<!-- generated at drububu.com  -->
<!DOCTYPE svg PUBLIC "-//W3C//DTD SVG 1.1//EN" "http://www.w3.org/Graphics/SVG/1.1/DTD/svg11.dtd">
<svg version="1.1" preserveAspectRatio="xMinYMin meet" xmlns="http://www.w3.org/2000/svg" xmlns:xlink="http://www.w3.org/1999/xlink" x="0px" y="0px" width="96px" height="96px" viewBox="0 0 96 96">
<path d="M0 0h96v96h-96v-96z" fill="transparent"/>
<path d="M37 18h2v1h-2v-1z" fill="rgb(180,172,197)"/>
<path d="M39 18h3v1h-3v-1z" fill="rgb(131,123,156)"/>
<path d="M51 18h4v1h-4v-1z" fill="rgb(131,123,156)"/>
<path d="M37 19h1v3h-1v-3z" fill="rgb(131,123,156)"/>
<path d="M38 19h3v1h1v2h1v1h-1v1h-1v1h-1v1h-1v-3h-1v-4z" fill="rgb(222,213,230)"/>
<path d="M41 19h1v1h-1v-1z" fill="rgb(57,57,82)"/>
<path d="M50 19h1v3h-1v-3z" fill="rgb(131,123,156)"/>
<path d="M51 19h4v1h-1v1h-2v2h-1v3h-1v3h-2v1h-1v-1h-2v1h-1v1h-2v3h1v-2h2v1h-1v2h-2v1h-2
	v-2h1v-1h-1v-5h5v-1h1v-3h-1v-1h4v1h1v-2h1v-3z" fill="rgb(222,213,230)"/>
<path d="M55 19h1v3h-1v-3z" fill="rgb(131,123,156)"/>
<path d="M70 19h6v1h-6v-1z" fill="rgb(106,49,156)"/>
<path d="M42 20h1v1h-1v-1z" fill="rgb(131,123,156)"/>
<path d="M54 20h1v2h-1v6h1v5h-1v1h-1v1h-2v1h-6v1h-1v-1h-1v1h-3v-1h2v-1h2v-1h6v-8h1v-3h1
	v-2h2v-1z" fill="rgb(180,172,197)"/>
<path d="M68 20h2v1h-2v-1z" fill="rgb(106,49,156)"/>
<path d="M70 20h6v1h-6v-1z" fill="rgb(148,65,189)"/>
<path d="M76 20h3v1h-3v-1z" fill="rgb(106,49,156)"/>
<path d="M42 21h1v1h-1v-1z" fill="rgb(57,57,82)"/>
<path d="M67 21h1v1h-1v-1z" fill="rgb(106,49,156)"/>
<path d="M68 21h2v1h-1v1h-1v2h-1v1h-1v2h-1v-4h1v-1h1v-1h1v-1z" fill="rgb(148,65,189)"/>
<path d="M70 21h2v1h-2v-1z" fill="rgb(106,49,156)"/>
<path d="M72 21h2v1h-2v-1z" fill="rgb(0,0,0)"/>
<path d="M74 21h2v1h-2v-1z" fill="rgb(106,49,156)"/>
<path d="M76 21h3v1h1v1h-2v-1h-2v-1z" fill="rgb(148,65,189)"/>
<path d="M79 21h1v1h-1v-1z" fill="rgb(106,49,156)"/>
<path d="M43 22h3v1h-2v1h-2v-1h1v-1z" fill="rgb(131,123,156)"/>
<path d="M46 22h3v1h-3v-1z" fill="rgb(57,57,82)"/>
<path d="M49 22h1v2h-1v-2z" fill="rgb(131,123,156)"/>
<path d="M54 22h1v1h-1v-1z" fill="rgb(131,123,156)"/>
<path d="M66 22h1v1h-1v-1z" fill="rgb(106,49,156)"/>
<path d="M69 22h1v1h-1v-1z" fill="rgb(106,49,156)"/>
<path d="M70 22h2v1h-2v-1z" fill="rgb(0,0,0)"/>
<path d="M76 22h1v1h-1v-1z" fill="rgb(0,0,0)"/>
<path d="M77 22h1v1h-1v-1z" fill="rgb(106,49,156)"/>
<path d="M80 22h1v1h-1v-1z" fill="rgb(0,0,0)"/>
<path d="M38 23h1v3h1v1h-1v2h-1v1h-1v-3h1v-4z" fill="rgb(131,123,156)"/>
<path d="M44 23h1v1h1v3h-1v1h-5v-2h1v-1h1v-1h2v-1z" fill="rgb(238,230,238)"/>
<path d="M54 23h1v1h-1v-1z" fill="rgb(57,57,82)"/>
<path d="M65 23h1v1h-1v-1z" fill="rgb(106,49,156)"/>
<path d="M68 23h1v1h-1v-1z" fill="rgb(106,49,156)"/>
<path d="M69 23h1v1h-1v-1z" fill="rgb(0,0,0)"/>
<path d="M78 23h1v1h-1v-1z" fill="rgb(0,0,0)"/>
<path d="M79 23h2v2h1v4h1v3h1v5h-1v3h-1v2h-1v1h-2v-1h-1v-4h1v-4h1v-4h1v-4h-1v-2h-1v-1z" fill="rgb(106,49,156)"/>
<path d="M81 23h1v2h-1v-2z" fill="rgb(0,0,0)"/>
<path d="M41 24h1v1h-1v-1z" fill="rgb(131,123,156)"/>
<path d="M48 24h1v1h-1v-1z" fill="rgb(131,123,156)"/>
<path d="M54 24h1v4h-1v-4z" fill="rgb(0,0,0)"/>
<path d="M68 24h1v2h-1v-2z" fill="rgb(0,0,0)"/>
<path d="M79 24h1v2h-1v-2z" fill="rgb(0,0,0)"/>
<path d="M40 25h1v1h-1v-1z" fill="rgb(131,123,156)"/>
<path d="M64 25h1v2h-1v-2z" fill="rgb(106,49,156)"/>
<path d="M67 25h1v1h-1v-1z" fill="rgb(106,49,156)"/>
<path d="M82 25h1v4h-1v-4z" fill="rgb(0,0,0)"/>
<path d="M66 26h1v2h-1v-2z" fill="rgb(106,49,156)"/>
<path d="M67 26h1v2h-1v-2z" fill="rgb(0,0,0)"/>
<path d="M80 26h1v4h-1v-4z" fill="rgb(0,0,0)"/>
<path d="M39 27h1v1h-1v-1z" fill="rgb(222,213,230)"/>
<path d="M55 27h1v1h-1v-1z" fill="rgb(131,123,156)"/>
<path d="M64 27h1v1h-1v-1z" fill="rgb(57,32,82)"/>
<path d="M39 28h1v3h-1v1h-1v-3h1v-1z" fill="rgb(238,230,238)"/>
<path d="M55 28h1v3h-1v-3z" fill="rgb(0,0,0)"/>
<path d="M63 28h3v5h1v3h1v2h1v2h1v2h1v3h1v9h-2v-1h-1v-2h1v-1h1v-4h-1v-1h-2v-2h-1v-3h-1
	v-2h-1v-3h-1v-6h-1v-1z" fill="rgb(106,49,156)"/>
<path d="M66 28h1v5h-1v-5z" fill="rgb(0,0,0)"/>
<path d="M45 29h2v2h-2v1h-2v-1h1v-1h1v-1z" fill="rgb(238,230,238)"/>
<path d="M48 29h2v2h-1v-1h-1v-1z" fill="rgb(131,123,156)"/>
<path d="M56 29h1v1h-1v-1z" fill="rgb(57,57,82)"/>
<path d="M63 29h1v6h-1v-6z" fill="rgb(57,32,82)"/>
<path d="M83 29h1v3h-1v-3z" fill="rgb(0,0,0)"/>
<path d="M37 30h1v3h-1v-3z" fill="rgb(57,57,82)"/>
<path d="M47 30h1v1h-1v-1z" fill="rgb(57,57,82)"/>
<path d="M48 30h1v1h-1v-1z" fill="rgb(222,213,230)"/>
<path d="M56 30h1v1h-1v-1z" fill="rgb(180,172,197)"/>
<path d="M57 30h1v1h-1v-1z" fill="rgb(57,57,82)"/>
<path d="M79 30h1v4h-1v-4z" fill="rgb(0,0,0)"/>
<path d="M39 31h1v1h-1v-1z" fill="rgb(180,172,197)"/>
<path d="M42 31h1v1h-1v-1z" fill="rgb(180,172,197)"/>
<path d="M45 31h1v1h-1v-1z" fill="rgb(222,213,230)"/>
<path d="M46 31h1v2h-1v-2z" fill="rgb(57,57,82)"/>
<path d="M47 31h3v2h-2v-1h-1v-1z" fill="rgb(255,255,255)"/>
<path d="M55 31h1v2h-1v-2z" fill="rgb(57,57,82)"/>
<path d="M56 31h1v1h1v2h1v2h-1v2h-1v1h-1v-1h-1v-1h1v-1h1v-2h-1v-3z" fill="rgb(131,123,156)"/>
<path d="M57 31h1v1h-1v-1z" fill="rgb(180,172,197)"/>
<path d="M58 31h1v2h-1v-2z" fill="rgb(57,57,82)"/>
<path d="M38 32h1v1h-1v-1z" fill="rgb(180,172,197)"/>
<path d="M39 32h1v1h-1v-1z" fill="rgb(131,123,156)"/>
<path d="M42 32h1v1h-1v-1z" fill="rgb(131,123,156)"/>
<path d="M45 32h1v2h-1v-2z" fill="rgb(0,0,0)"/>
<path d="M47 32h1v1h-1v-1z" fill="rgb(148,65,189)"/>
<path d="M84 32h1v5h-1v-5z" fill="rgb(0,0,0)"/>
<path d="M38 33h1v2h-1v-2z" fill="rgb(57,57,82)"/>
<path d="M39 33h2v1h-2v-1z" fill="rgb(180,172,197)"/>
<path d="M42 33h1v1h-1v-1z" fill="rgb(180,172,197)"/>
<path d="M44 33h1v1h-1v-1z" fill="rgb(131,123,156)"/>
<path d="M46 33h1v1h-1v-1z" fill="rgb(148,65,189)"/>
<path d="M47 33h1v1h-1v-1z" fill="rgb(131,123,156)"/>
<path d="M48 33h2v1h-2v-1z" fill="rgb(222,213,230)"/>
<path d="M54 33h1v2h-1v-2z" fill="rgb(57,57,82)"/>
<path d="M55 33h1v1h-1v-1z" fill="rgb(0,0,0)"/>
<path d="M58 33h1v1h-1v-1z" fill="rgb(180,172,197)"/>
<path d="M59 33h1v1h-1v-1z" fill="rgb(131,123,156)"/>
<path d="M67 33h1v3h-1v-3z" fill="rgb(0,0,0)"/>
<path d="M39 34h1v1h-1v-1z" fill="rgb(131,123,156)"/>
<path d="M53 34h1v1h-1v-1z" fill="rgb(131,123,156)"/>
<path d="M55 34h1v2h-1v1h-1v1h-1v1h-1v-2h1v-1h1v-1h1v-1z" fill="transparent"/>
<path d="M56 34h1v2h-1v-2z" fill="rgb(0,0,0)"/>
<path d="M59 34h1v1h-1v-1z" fill="rgb(57,57,82)"/>
<path d="M78 34h1v4h-1v-4z" fill="rgb(0,0,0)"/>
<path d="M39 35h1v2h-1v-2z" fill="rgb(0,0,0)"/>
<path d="M51 35h3v1h-3v-1z" fill="rgb(57,57,82)"/>
<path d="M59 35h1v1h-1v-1z" fill="rgb(0,0,0)"/>
<path d="M64 35h1v3h-1v-3z" fill="rgb(57,32,82)"/>
<path d="M43 36h1v2h-3v-1h2v-1z" fill="rgb(131,123,156)"/>
<path d="M45 36h3v1h-3v-1z" fill="rgb(131,123,156)"/>
<path d="M48 36h2v1h-2v-1z" fill="rgb(57,57,82)"/>
<path d="M50 36h2v1h-1v3h-2v-1h-1v-2h2v-1z" fill="rgb(131,123,156)"/>
<path d="M52 36h1v1h-1v-1z" fill="rgb(0,0,0)"/>
<path d="M55 36h1v1h-1v-1z" fill="rgb(0,0,0)"/>
<path d="M58 36h1v2h-1v-2z" fill="rgb(0,0,0)"/>
<path d="M68 36h1v2h-1v-2z" fill="rgb(0,0,0)"/>
<path d="M39 37h1v1h-1v-1z" fill="rgb(131,123,156)"/>
<path d="M40 37h1v1h-1v-1z" fill="rgb(0,0,0)"/>
<path d="M44 37h1v2h-1v-2z" fill="rgb(0,0,0)"/>
<path d="M45 37h3v2h-1v-1h-2v-1z" fill="rgb(57,57,82)"/>
<path d="M51 37h1v2h1v1h-2v-3z" fill="rgb(0,0,0)"/>
<path d="M54 37h1v1h1v1h-3v-1h1v-1z" fill="rgb(0,0,0)"/>
<path d="M83 37h1v3h-1v-3z" fill="rgb(0,0,0)"/>
<path d="M41 38h2v1h-2v-1z" fill="rgb(0,0,0)"/>
<path d="M43 38h1v1h-1v-1z" fill="rgb(57,57,82)"/>
<path d="M45 38h2v1h-2v-1z" fill="transparent"/>
<path d="M57 38h1v5h-2v-1h1v-2h-1v-1h1v-1z" fill="rgb(0,0,0)"/>
<path d="M65 38h1v2h-1v-2z" fill="rgb(57,32,82)"/>
<path d="M69 38h1v2h-1v-2z" fill="rgb(0,0,0)"/>
<path d="M77 38h1v4h-1v-4z" fill="rgb(0,0,0)"/>
<path d="M42 39h2v1h-2v-1z" fill="rgb(131,123,156)"/>
<path d="M44 39h3v1h-3v-1z" fill="rgb(57,57,82)"/>
<path d="M47 39h1v2h-3v-1h2v-1z" fill="rgb(131,123,156)"/>
<path d="M48 39h1v2h-1v-2z" fill="rgb(180,172,197)"/>
<path d="M53 39h3v1h-1v1h-2v1h-1v1h-1v-3h2v-1z" fill="rgb(180,172,197)"/>
<path d="M41 40h1v1h-1v-1z" fill="rgb(131,123,156)"/>
<path d="M42 40h3v1h4v-1h2v3h-1v2h-2v1h-2v-2h-1v-1h-1v1h-1v3h-1v-1h-1v-5h1v-1z" fill="rgb(222,213,230)"/>
<path d="M55 40h2v2h-1v-1h-1v-1z" fill="rgb(131,123,156)"/>
<path d="M66 40h1v3h-1v-3z" fill="rgb(57,32,82)"/>
<path d="M70 40h1v2h-1v-2z" fill="rgb(0,0,0)"/>
<path d="M82 40h1v2h-1v-2z" fill="rgb(0,0,0)"/>
<path d="M40 41h1v1h-1v-1z" fill="rgb(131,123,156)"/>
<path d="M53 41h1v1h-1v-1z" fill="rgb(57,57,82)"/>
<path d="M54 41h2v1h-2v-1z" fill="rgb(0,0,0)"/>
<path d="M39 42h2v4h-1v-3h-1v-1z" fill="rgb(57,57,82)"/>
<path d="M45 42h1v1h-1v-1z" fill="rgb(180,172,197)"/>
<path d="M52 42h1v1h-1v-1z" fill="rgb(57,57,82)"/>
<path d="M53 42h3v1h1v3h-1v-1h-2v-1h-1v1h-1v-2h1v-1z" fill="rgb(131,123,156)"/>
<path d="M71 42h1v3h-1v-3z" fill="rgb(0,0,0)"/>
<path d="M78 42h1v1h-1v-1z" fill="rgb(0,0,0)"/>
<path d="M81 42h1v1h-1v-1z" fill="rgb(0,0,0)"/>
<path d="M37 43h2v1h-2v-1z" fill="rgb(0,0,0)"/>
<path d="M39 43h1v3h-2v-1h1v-2z" fill="rgb(131,123,156)"/>
<path d="M44 43h1v1h-1v-1z" fill="rgb(180,172,197)"/>
<path d="M50 43h1v2h-1v-2z" fill="rgb(180,172,197)"/>
<path d="M51 43h1v2h-1v-2z" fill="rgb(57,57,82)"/>
<path d="M57 43h1v1h1v1h2v1h3v1h1v1h-2v1h-2v-1h-1v-1h-1v-1h-2v-3z" fill="rgb(222,213,230)"/>
<path d="M58 43h1v1h-1v-1z" fill="rgb(0,0,0)"/>
<path d="M59 43h1v1h-1v-1z" fill="rgb(131,123,156)"/>
<path d="M67 43h1v3h-1v-3z" fill="rgb(57,32,82)"/>
<path d="M79 43h2v1h-2v-1z" fill="rgb(0,0,0)"/>
<path d="M35 44h1v1h-1v-1z" fill="rgb(131,123,156)"/>
<path d="M36 44h1v1h-1v-1z" fill="rgb(0,0,0)"/>
<path d="M37 44h2v1h-1v2h-2v-1h1v-2z" fill="rgb(180,172,197)"/>
<path d="M43 44h1v1h-1v-1z" fill="rgb(180,172,197)"/>
<path d="M44 44h1v2h-1v-2z" fill="rgb(222,213,230)"/>
<path d="M45 44h1v1h-1v-1z" fill="rgb(180,172,197)"/>
<path d="M53 44h1v1h2v1h-4v-1h1v-1z" fill="rgb(57,57,82)"/>
<path d="M59 44h2v1h-2v-1z" fill="rgb(0,0,0)"/>
<path d="M33 45h1v1h-1v-1z" fill="rgb(131,123,156)"/>
<path d="M34 45h1v1h-1v-1z" fill="rgb(0,0,0)"/>
<path d="M35 45h2v1h-1v1h-1v1h-3v1h-3v2h-2v1h-2v-1h-2v-1h-2v-1h2v-1h6v-1h4v-1h2v-1z" fill="rgb(222,213,230)"/>
<path d="M43 45h1v2h1v-2h1v3h-3v-3z" fill="rgb(131,123,156)"/>
<path d="M48 45h2v1h-1v1h-3v-1h2v-1z" fill="rgb(180,172,197)"/>
<path d="M50 45h1v2h-1v-2z" fill="rgb(0,0,0)"/>
<path d="M51 45h1v2h-1v-2z" fill="rgb(131,123,156)"/>
<path d="M61 45h3v1h-3v-1z" fill="rgb(0,0,0)"/>
<path d="M68 45h2v1h-2v-1z" fill="rgb(0,0,0)"/>
<path d="M72 45h1v9h-1v-9z" fill="rgb(0,0,0)"/>
<path d="M22 46h1v1h-1v-1z" fill="rgb(131,123,156)"/>
<path d="M23 46h2v1h-2v-1z" fill="rgb(57,57,82)"/>
<path d="M29 46h2v1h-2v-1z" fill="rgb(131,123,156)"/>
<path d="M31 46h2v1h-2v-1z" fill="rgb(57,57,82)"/>
<path d="M38 46h2v1h-2v-1z" fill="rgb(57,57,82)"/>
<path d="M41 46h1v1h-1v-1z" fill="rgb(57,57,82)"/>
<path d="M44 46h1v1h-1v-1z" fill="rgb(180,172,197)"/>
<path d="M49 46h1v1h-1v-1z" fill="rgb(131,123,156)"/>
<path d="M52 46h1v1h-1v-1z" fill="rgb(0,0,0)"/>
<path d="M53 46h3v1h3v1h-1v1h-1v4h1v1h-2v-1h-1v-1h-2v-1h-1v-1h-1v-1h1v-2h1v-1z" fill="transparent"/>
<path d="M56 46h3v1h-3v-1z" fill="rgb(0,0,0)"/>
<path d="M64 46h1v1h-1v-1z" fill="rgb(0,0,0)"/>
<path d="M66 46h1v2h-2v-1h1v-1z" fill="rgb(57,57,82)"/>
<path d="M67 46h2v1h1v1h-1v1h-1v-1h-1v-2z" fill="rgb(222,213,230)"/>
<path d="M69 46h1v1h-1v-1z" fill="rgb(180,172,197)"/>
<path d="M70 46h1v1h-1v-1z" fill="rgb(0,0,0)"/>
<path d="M20 47h2v1h-2v-1z" fill="rgb(131,123,156)"/>
<path d="M22 47h3v1h-3v-1z" fill="rgb(180,172,197)"/>
<path d="M25 47h1v1h-1v-1z" fill="rgb(131,123,156)"/>
<path d="M26 47h3v1h-3v-1z" fill="rgb(57,57,82)"/>
<path d="M35 47h3v1h-2v1h-2v-1h1v-1z" fill="rgb(57,57,82)"/>
<path d="M42 47h1v1h-1v-1z" fill="rgb(57,57,82)"/>
<path d="M46 47h4v1h-4v-1z" fill="rgb(57,57,82)"/>
<path d="M50 47h1v2h-1v1h1v1h1v1h-2v1h-1v1h-1v-2h-1v-1h-1v-2h1v-1h3v-1z" fill="rgb(131,123,156)"/>
<path d="M51 47h1v2h-1v-2z" fill="rgb(0,0,0)"/>
<path d="M59 47h1v1h-1v-1z" fill="rgb(0,0,0)"/>
<path d="M70 47h1v2h-1v-2z" fill="rgb(57,57,82)"/>
<path d="M18 48h1v1h-1v-1z" fill="rgb(131,123,156)"/>
<path d="M19 48h3v1h-3v-1z" fill="rgb(57,57,82)"/>
<path d="M22 48h1v1h-1v-1z" fill="rgb(131,123,156)"/>
<path d="M32 48h1v1h-1v-1z" fill="rgb(180,172,197)"/>
<path d="M33 48h1v1h-1v-1z" fill="rgb(0,0,0)"/>
<path d="M42 48h1v2h-1v-2z" fill="rgb(0,0,0)"/>
<path d="M43 48h4v1h-1v2h-1v-2h-2v-1z" fill="rgb(180,172,197)"/>
<path d="M58 48h2v1h-2v-1z" fill="rgb(57,57,82)"/>
<path d="M60 48h1v1h-1v-1z" fill="rgb(0,0,0)"/>
<path d="M63 48h2v1h-2v-1z" fill="rgb(57,57,82)"/>
<path d="M65 48h3v1h-1v1h-2v1h-2v1h-2v-2h2v-1h2v-1z" fill="rgb(180,172,197)"/>
<path d="M69 48h1v1h-1v-1z" fill="rgb(180,172,197)"/>
<path d="M17 49h1v1h-1v-1z" fill="rgb(131,123,156)"/>
<path d="M18 49h2v1h1v1h-2v-1h-1v-1z" fill="rgb(222,213,230)"/>
<path d="M20 49h1v1h-1v-1z" fill="rgb(180,172,197)"/>
<path d="M29 49h1v1h-1v-1z" fill="rgb(180,172,197)"/>
<path d="M30 49h1v1h-1v-1z" fill="rgb(0,0,0)"/>
<path d="M31 49h1v1h-1v-1z" fill="rgb(57,57,82)"/>
<path d="M32 49h1v1h-1v-1z" fill="rgb(0,0,0)"/>
<path d="M43 49h2v2h-2v-2z" fill="rgb(222,213,230)"/>
<path d="M50 49h1v1h-1v-1z" fill="rgb(0,0,0)"/>
<path d="M57 49h1v1h-1v-1z" fill="rgb(131,123,156)"/>
<path d="M58 49h2v1h1v2h-3v-3z" fill="rgb(222,213,230)"/>
<path d="M60 49h1v1h-1v-1z" fill="rgb(180,172,197)"/>
<path d="M61 49h2v1h-2v-1z" fill="rgb(57,57,82)"/>
<path d="M67 49h3v1h-3v-1z" fill="rgb(131,123,156)"/>
<path d="M70 49h1v1h-1v-1z" fill="rgb(0,0,0)"/>
<path d="M17 50h1v2h-1v-2z" fill="rgb(57,57,82)"/>
<path d="M18 50h1v1h2v1h-3v-2z" fill="rgb(180,172,197)"/>
<path d="M21 50h1v1h-1v-1z" fill="rgb(131,123,156)"/>
<path d="M22 50h1v1h-1v-1z" fill="rgb(57,57,82)"/>
<path d="M29 50h1v1h-1v-1z" fill="rgb(0,0,0)"/>
<path d="M41 50h1v3h-1v-3z" fill="rgb(0,0,0)"/>
<path d="M42 50h1v2h-1v-2z" fill="rgb(180,172,197)"/>
<path d="M51 50h1v1h-1v-1z" fill="rgb(0,0,0)"/>
<path d="M57 50h1v2h-1v-2z" fill="rgb(57,57,82)"/>
<path d="M65 50h2v1h1v2h-1v1h-1v-1h-1v1h-1v-1h-1v-2h2v-1z" fill="rgb(131,123,156)"/>
<path d="M67 50h3v1h-1v2h-1v-2h-1v-1z" fill="rgb(57,57,82)"/>
<path d="M21 51h1v1h-1v-1z" fill="rgb(57,57,82)"/>
<path d="M22 51h1v1h-1v-1z" fill="rgb(131,123,156)"/>
<path d="M23 51h1v2h-2v-1h1v-1z" fill="rgb(57,57,82)"/>
<path d="M24 51h1v1h-1v-1z" fill="rgb(131,123,156)"/>
<path d="M27 51h1v1h-1v-1z" fill="rgb(180,172,197)"/>
<path d="M28 51h1v2h-1v-2z" fill="rgb(0,0,0)"/>
<path d="M43 51h3v1h-3v-1z" fill="rgb(106,49,156)"/>
<path d="M46 51h1v1h-1v-1z" fill="rgb(180,172,197)"/>
<path d="M52 51h1v1h-1v-1z" fill="rgb(0,0,0)"/>
<path d="M18 52h3v1h-3v-1z" fill="rgb(57,57,82)"/>
<path d="M21 52h1v1h-1v-1z" fill="transparent"/>
<path d="M24 52h1v1h-1v-1z" fill="rgb(222,213,230)"/>
<path d="M25 52h2v1h-2v-1z" fill="rgb(180,172,197)"/>
<path d="M27 52h1v1h-1v-1z" fill="rgb(131,123,156)"/>
<path d="M39 52h2v1h-2v-1z" fill="rgb(57,57,82)"/>
<path d="M42 52h1v1h-1v-1z" fill="rgb(106,49,156)"/>
<path d="M43 52h3v1h1v1h1v2h-1v3h-1v2h-5v-4h2v-1h1v-3h-1v-1z" fill="rgb(148,65,189)"/>
<path d="M46 52h1v1h-1v-1z" fill="rgb(106,49,156)"/>
<path d="M47 52h1v1h-1v-1z" fill="rgb(180,172,197)"/>
<path d="M50 52h2v1h-2v-1z" fill="rgb(57,57,82)"/>
<path d="M52 52h1v1h-1v-1z" fill="rgb(180,172,197)"/>
<path d="M53 52h1v1h-1v-1z" fill="rgb(131,123,156)"/>
<path d="M54 52h1v1h-1v-1z" fill="rgb(0,0,0)"/>
<path d="M57 52h1v1h-1v-1z" fill="rgb(0,0,0)"/>
<path d="M58 52h2v1h-2v-1z" fill="rgb(180,172,197)"/>
<path d="M60 52h1v1h-1v-1z" fill="rgb(131,123,156)"/>
<path d="M61 52h2v1h-2v-1z" fill="rgb(0,0,0)"/>
<path d="M21 53h1v1h-1v-1z" fill="rgb(57,57,82)"/>
<path d="M22 53h2v2h-2v-2z" fill="rgb(222,213,230)"/>
<path d="M24 53h1v1h-1v-1z" fill="rgb(180,172,197)"/>
<path d="M25 53h1v1h-1v-1z" fill="rgb(131,123,156)"/>
<path d="M26 53h2v1h-2v-1z" fill="rgb(57,57,82)"/>
<path d="M38 53h1v1h-1v-1z" fill="rgb(57,57,82)"/>
<path d="M39 53h2v1h-1v6h-1v1h-2v-1h-1v-3h1v-2h1v-1h1v-1z" fill="rgb(222,213,230)"/>
<path d="M41 53h1v1h-1v-1z" fill="rgb(106,49,156)"/>
<path d="M42 53h2v3h-1v1h-2v-3h1v-1z" fill="rgb(180,74,238)"/>
<path d="M47 53h1v1h-1v-1z" fill="rgb(106,49,156)"/>
<path d="M49 53h1v1h-1v-1z" fill="rgb(57,57,82)"/>
<path d="M50 53h1v1h-1v-1z" fill="rgb(180,172,197)"/>
<path d="M51 53h2v1h1v1h1v3h-1v2h-1v1h-4v-1h-1v-4h1v-2h2v-1z" fill="rgb(222,213,230)"/>
<path d="M53 53h1v1h-1v-1z" fill="rgb(180,172,197)"/>
<path d="M54 53h1v1h-1v-1z" fill="rgb(131,123,156)"/>
<path d="M55 53h1v1h-1v-1z" fill="rgb(0,0,0)"/>
<path d="M58 53h1v1h-1v-1z" fill="rgb(131,123,156)"/>
<path d="M59 53h1v1h-1v-1z" fill="rgb(57,57,82)"/>
<path d="M60 53h1v1h-1v-1z" fill="rgb(0,0,0)"/>
<path d="M61 53h2v1h-2v-1z" fill="rgb(57,32,82)"/>
<path d="M63 53h1v1h-1v-1z" fill="rgb(0,0,0)"/>
<path d="M65 53h1v1h-1v-1z" fill="rgb(57,57,82)"/>
<path d="M67 53h1v1h-1v-1z" fill="rgb(180,172,197)"/>
<path d="M68 53h1v1h1v2h-3v-2h1v-1z" fill="rgb(222,213,230)"/>
<path d="M69 53h1v1h-1v-1z" fill="rgb(57,57,82)"/>
<path d="M21 54h1v2h-1v-2z" fill="rgb(0,0,0)"/>
<path d="M24 54h2v1h-1v1h-1v-2z" fill="rgb(0,0,0)"/>
<path d="M37 54h1v1h-1v-1z" fill="rgb(131,123,156)"/>
<path d="M40 54h1v7h-1v-7z" fill="rgb(106,49,156)"/>
<path d="M48 54h1v2h-1v-2z" fill="rgb(57,57,82)"/>
<path d="M54 54h1v1h-1v-1z" fill="rgb(180,172,197)"/>
<path d="M55 54h1v1h1v2h1v2h1v6h1v2h1v3h1v4h-1v-1h-1v-2h-1v-2h-1v-1h-1v-1h-1v-1h-2v-1h-2
	v-1h-1v-1h-1v-1h2v-1h2v-1h1v-6z" fill="rgb(131,123,156)"/>
<path d="M56 54h1v1h-1v-1z" fill="rgb(0,0,0)"/>
<path d="M57 54h3v1h-3v-1z" fill="rgb(57,32,82)"/>
<path d="M60 54h4v1h1v1h1v1h1v1h2v-1h1v-1h1v2h-1v1h-1v1h-1v1h-1v1h-2v1h-3v1h-2v-5h-1v-2
	h-1v-2h2v-1z" fill="rgb(106,49,156)"/>
<path d="M64 54h2v1h-2v-1z" fill="rgb(0,0,0)"/>
<path d="M66 54h1v2h-1v-2z" fill="rgb(180,172,197)"/>
<path d="M70 54h1v2h-1v-2z" fill="rgb(57,57,82)"/>
<path d="M71 54h1v3h-1v-3z" fill="rgb(0,0,0)"/>
<path d="M22 55h2v1h-2v-1z" fill="rgb(180,172,197)"/>
<path d="M36 55h1v2h-1v-2z" fill="rgb(131,123,156)"/>
<path d="M57 55h1v2h-1v-2z" fill="rgb(0,0,0)"/>
<path d="M65 55h1v1h-1v-1z" fill="rgb(57,57,82)"/>
<path d="M22 56h2v1h-2v-1z" fill="rgb(0,0,0)"/>
<path d="M47 56h1v3h-1v-3z" fill="rgb(57,57,82)"/>
<path d="M66 56h1v1h-1v-1z" fill="rgb(57,57,82)"/>
<path d="M67 56h2v1h-2v-1z" fill="rgb(180,172,197)"/>
<path d="M69 56h1v1h-1v-1z" fill="rgb(57,57,82)"/>
<path d="M35 57h1v3h-1v-3z" fill="rgb(131,123,156)"/>
<path d="M58 57h1v2h-1v-2z" fill="rgb(0,0,0)"/>
<path d="M67 57h2v1h-2v-1z" fill="rgb(57,57,82)"/>
<path d="M54 58h1v2h-1v-2z" fill="rgb(180,172,197)"/>
<path d="M70 58h1v1h-1v-1z" fill="rgb(0,0,0)"/>
<path d="M46 59h1v1h1v2h1v1h1v1h1v1h-4v-1h-3v-1h-2v-1h-1v-1h5v-2z" fill="rgb(106,49,156)"/>
<path d="M47 59h1v1h-1v-1z" fill="rgb(0,0,0)"/>
<path d="M59 59h1v5h2v1h-1v2h-1v-2h-1v-6z" fill="rgb(0,0,0)"/>
<path d="M69 59h1v1h-1v-1z" fill="rgb(0,0,0)"/>
<path d="M36 60h1v1h-1v-1z" fill="rgb(131,123,156)"/>
<path d="M39 60h1v1h-1v-1z" fill="rgb(180,172,197)"/>
<path d="M48 60h1v2h-1v-2z" fill="rgb(0,0,0)"/>
<path d="M53 60h1v1h-1v-1z" fill="rgb(180,172,197)"/>
<path d="M68 60h1v1h-1v-1z" fill="rgb(0,0,0)"/>
<path d="M36 61h1v1h-1v-1z" fill="rgb(0,0,0)"/>
<path d="M37 61h2v1h-2v-1z" fill="rgb(180,172,197)"/>
<path d="M39 61h2v2h1v1h2v5h-1v-1h-1v-1h-2v-2h-1v-1h-1v-1h-1v-1h2v-1z" fill="rgb(131,123,156)"/>
<path d="M49 61h1v1h-1v-1z" fill="rgb(131,123,156)"/>
<path d="M50 61h2v1h-2v-1z" fill="rgb(180,172,197)"/>
<path d="M67 61h1v1h-1v-1z" fill="rgb(0,0,0)"/>
<path d="M41 62h1v1h-1v-1z" fill="rgb(57,32,82)"/>
<path d="M49 62h1v1h-1v-1z" fill="rgb(0,0,0)"/>
<path d="M65 62h2v1h-2v-1z" fill="rgb(0,0,0)"/>
<path d="M37 63h1v1h-1v-1z" fill="rgb(57,57,82)"/>
<path d="M42 63h2v1h-2v-1z" fill="rgb(57,32,82)"/>
<path d="M50 63h1v1h-1v-1z" fill="rgb(0,0,0)"/>
<path d="M62 63h3v1h-3v-1z" fill="rgb(0,0,0)"/>
<path d="M38 64h1v1h-1v-1z" fill="rgb(57,57,82)"/>
<path d="M44 64h3v1h-3v-1z" fill="rgb(57,32,82)"/>
<path d="M51 64h1v1h-1v-1z" fill="rgb(0,0,0)"/>
<path d="M39 65h1v2h-1v-2z" fill="rgb(57,57,82)"/>
<path d="M44 65h1v1h-1v-1z" fill="rgb(0,0,0)"/>
<path d="M47 65h5v1h2v1h-4v-1h-3v-1z" fill="rgb(57,32,82)"/>
<path d="M52 65h1v1h-1v-1z" fill="rgb(0,0,0)"/>
<path d="M53 65h1v1h-1v-1z" fill="rgb(57,57,82)"/>
<path d="M44 66h1v3h-1v-3z" fill="rgb(57,57,82)"/>
<path d="M54 66h1v1h-1v-1z" fill="rgb(0,0,0)"/>
<path d="M55 66h1v1h-1v-1z" fill="rgb(57,57,82)"/>
<path d="M40 67h1v2h-1v-2z" fill="rgb(0,0,0)"/>
<path d="M41 67h1v1h1v4h-1v1h-1v-1h-2v-1h1v-2h1v-2z" fill="rgb(180,172,197)"/>
<path d="M56 67h1v1h-1v-1z" fill="rgb(0,0,0)"/>
<path d="M61 67h1v3h-1v-3z" fill="rgb(0,0,0)"/>
<path d="M57 68h1v1h-1v-1z" fill="rgb(0,0,0)"/>
<path d="M39 69h1v2h-1v-2z" fill="rgb(57,57,82)"/>
<path d="M43 69h1v2h-1v-2z" fill="rgb(57,57,82)"/>
<path d="M58 69h1v2h-1v-2z" fill="rgb(0,0,0)"/>
<path d="M62 70h1v4h-1v-4z" fill="rgb(0,0,0)"/>
<path d="M38 71h1v1h-1v-1z" fill="rgb(57,57,82)"/>
<path d="M43 71h1v1h-1v-1z" fill="rgb(0,0,0)"/>
<path d="M59 71h1v2h-1v-2z" fill="rgb(0,0,0)"/>
<path d="M37 72h1v1h-1v-1z" fill="rgb(57,57,82)"/>
<path d="M38 72h1v1h-1v-1z" fill="rgb(180,172,197)"/>
<path d="M39 72h2v2h-1v1h-1v1h-1v1h-2v1h-3v-1h2v-2h1v-1h1v-1h2v-1z" fill="rgb(222,213,230)"/>
<path d="M42 72h1v1h-1v-1z" fill="rgb(131,123,156)"/>
<path d="M43 72h1v1h-1v-1z" fill="rgb(57,57,82)"/>
<path d="M36 73h1v1h-1v-1z" fill="rgb(131,123,156)"/>
<path d="M41 73h1v1h-1v-1z" fill="rgb(131,123,156)"/>
<path d="M42 73h2v2h-2v-2z" fill="rgb(180,172,197)"/>
<path d="M44 73h1v2h-1v-2z" fill="rgb(0,0,0)"/>
<path d="M58 73h1v1h-1v-1z" fill="rgb(0,0,0)"/>
<path d="M59 73h2v1h1v3h1v2h-1v2h-1v-2h-1v-1h-2v-1h1v-1h-1v-2h1v-1z" fill="rgb(180,172,197)"/>
<path d="M33 74h3v1h-3v-1z" fill="rgb(131,123,156)"/>
<path d="M40 74h1v2h-1v1h-1v1h-1v1h-5v-1h3v-1h2v-1h1v-1h1v-1z" fill="rgb(180,172,197)"/>
<path d="M41 74h1v1h-1v-1z" fill="rgb(57,57,82)"/>
<path d="M57 74h1v2h1v1h-1v1h-1v-4z" fill="rgb(0,0,0)"/>
<path d="M62 74h1v2h1v2h-1v-1h-1v-3z" fill="rgb(131,123,156)"/>
<path d="M63 74h1v1h-1v-1z" fill="rgb(0,0,0)"/>
<path d="M31 75h2v1h-2v-1z" fill="rgb(131,123,156)"/>
<path d="M33 75h2v1h-2v-1z" fill="rgb(180,172,197)"/>
<path d="M41 75h3v1h-3v-1z" fill="rgb(0,0,0)"/>
<path d="M59 75h1v1h-1v-1z" fill="rgb(131,123,156)"/>
<path d="M63 75h1v1h-1v-1z" fill="rgb(57,57,82)"/>
<path d="M30 76h1v2h-1v-2z" fill="rgb(57,57,82)"/>
<path d="M31 76h2v1h-1v1h-1v-2z" fill="rgb(180,172,197)"/>
<path d="M33 76h1v1h-1v-1z" fill="rgb(57,57,82)"/>
<path d="M34 76h1v1h-1v-1z" fill="rgb(131,123,156)"/>
<path d="M40 76h1v1h-1v-1z" fill="rgb(0,0,0)"/>
<path d="M64 76h1v2h-1v-2z" fill="rgb(57,57,82)"/>
<path d="M32 77h1v1h-1v-1z" fill="rgb(57,57,82)"/>
<path d="M39 77h1v1h-1v-1z" fill="rgb(0,0,0)"/>
<path d="M31 78h2v1h-2v-1z" fill="rgb(0,0,0)"/>
<path d="M38 78h1v1h-1v-1z" fill="rgb(57,57,82)"/>
<path d="M56 78h1v1h-1v-1z" fill="rgb(0,0,0)"/>
<path d="M57 78h1v1h-1v-1z" fill="rgb(180,172,197)"/>
<path d="M58 78h2v3h-3v-2h1v-1z" fill="rgb(222,213,230)"/>
<path d="M63 78h2v1h1v1h-1v1h-3v-2h1v-1z" fill="rgb(222,213,230)"/>
<path d="M65 78h1v1h-1v-1z" fill="rgb(57,57,82)"/>
<path d="M33 79h4v1h-4v-1z" fill="rgb(0,0,0)"/>
<path d="M37 79h1v1h-1v-1z" fill="rgb(57,57,82)"/>
<path d="M55 79h1v2h-1v-2z" fill="rgb(0,0,0)"/>
<path d="M56 79h1v2h-1v-2z" fill="rgb(180,172,197)"/>
<path d="M60 79h1v1h-1v-1z" fill="rgb(131,123,156)"/>
<path d="M66 79h1v2h-1v-2z" fill="rgb(0,0,0)"/>
<path d="M60 80h1v1h-1v-1z" fill="rgb(0,0,0)"/>
<path d="M65 80h1v1h-1v-1z" fill="rgb(180,172,197)"/>
<path d="M56 81h1v1h-1v-1z" fill="rgb(0,0,0)"/>
<path d="M57 81h2v1h-2v-1z" fill="rgb(180,172,197)"/>
<path d="M59 81h1v1h-1v-1z" fill="rgb(0,0,0)"/>
<path d="M61 81h1v1h-1v-1z" fill="rgb(0,0,0)"/>
<path d="M62 81h3v1h-3v-1z" fill="rgb(180,172,197)"/>
<path d="M65 81h1v1h-1v-1z" fill="rgb(0,0,0)"/>
<path d="M57 82h2v1h-2v-1z" fill="rgb(0,0,0)"/>
<path d="M62 82h3v1h-3v-1z" fill="rgb(0,0,0)"/>
</svg>
