<?xml version="1.0" encoding="utf-8"?>
<!-- generated at drububu.com  -->
<!DOCTYPE svg PUBLIC "-//W3C//DTD SVG 1.1//EN" "http://www.w3.org/Graphics/SVG/1.1/DTD/svg11.dtd">
<svg version="1.1" preserveAspectRatio="xMinYMin meet" xmlns="http://www.w3.org/2000/svg" xmlns:xlink="http://www.w3.org/1999/xlink" x="0px" y="0px" width="96px" height="96px" viewBox="0 0 96 96">
<path d="M0 0h96v96h-96v-96z" fill="transparent"/>
<path d="M62 27h2v1h-2v-1z" fill="rgb(180,98,148)"/>
<path d="M64 27h4v1h-4v-1z" fill="rgb(90,41,82)"/>
<path d="M60 28h2v1h-2v-1z" fill="rgb(180,98,148)"/>
<path d="M62 28h3v1h-2v1h-2v1h-1v1h-1v1h-2v-1h1v-1h1v-1h1v-1h2v-1z" fill="rgb(255,180,213)"/>
<path d="M65 28h2v1h-2v-1z" fill="rgb(238,131,180)"/>
<path d="M67 28h1v1h-1v-1z" fill="rgb(180,98,148)"/>
<path d="M68 28h2v1h-2v-1z" fill="rgb(0,0,0)"/>
<path d="M59 29h1v1h-1v-1z" fill="rgb(180,98,148)"/>
<path d="M63 29h3v1h-3v-1z" fill="rgb(0,0,0)"/>
<path d="M66 29h3v1h1v1h-2v-1h-2v-1z" fill="rgb(90,41,82)"/>
<path d="M69 29h1v1h-1v-1z" fill="rgb(180,98,148)"/>
<path d="M70 29h1v1h-1v-1z" fill="rgb(0,0,0)"/>
<path d="M58 30h1v1h-1v-1z" fill="rgb(180,98,148)"/>
<path d="M61 30h2v1h-2v-1z" fill="rgb(0,0,0)"/>
<path d="M70 30h1v1h-1v-1z" fill="rgb(180,98,148)"/>
<path d="M71 30h1v1h-1v-1z" fill="rgb(0,0,0)"/>
<path d="M57 31h1v1h-1v-1z" fill="rgb(90,41,82)"/>
<path d="M60 31h1v1h-1v-1z" fill="rgb(0,0,0)"/>
<path d="M70 31h1v1h-1v-1z" fill="rgb(90,41,82)"/>
<path d="M71 31h1v1h-1v-1z" fill="rgb(180,98,148)"/>
<path d="M72 31h1v1h-1v-1z" fill="rgb(0,0,0)"/>
<path d="M56 32h1v2h-1v-2z" fill="rgb(90,41,82)"/>
<path d="M59 32h1v1h-1v-1z" fill="rgb(0,0,0)"/>
<path d="M71 32h1v2h-1v-2z" fill="rgb(90,41,82)"/>
<path d="M72 32h1v2h-1v-2z" fill="rgb(180,98,148)"/>
<path d="M73 32h1v2h-1v-2z" fill="rgb(0,0,0)"/>
<path d="M57 33h1v2h-1v3h-1v-4h1v-1z" fill="rgb(238,131,180)"/>
<path d="M58 33h1v1h-1v-1z" fill="rgb(90,41,82)"/>
<path d="M28 34h2v1h-2v-1z" fill="rgb(90,41,82)"/>
<path d="M38 34h2v1h-2v-1z" fill="rgb(180,98,148)"/>
<path d="M55 34h1v4h-1v-4z" fill="rgb(90,41,82)"/>
<path d="M58 34h1v1h-1v-1z" fill="rgb(0,0,0)"/>
<path d="M72 34h1v3h-1v-3z" fill="rgb(90,41,82)"/>
<path d="M73 34h1v3h-1v-3z" fill="rgb(180,98,148)"/>
<path d="M74 34h1v3h-1v-3z" fill="rgb(0,0,0)"/>
<path d="M27 35h1v2h-1v-2z" fill="rgb(180,98,148)"/>
<path d="M28 35h1v2h-1v-2z" fill="rgb(255,180,213)"/>
<path d="M29 35h1v1h-1v-1z" fill="rgb(238,131,180)"/>
<path d="M30 35h3v1h-3v-1z" fill="rgb(180,98,148)"/>
<path d="M33 35h2v1h-2v-1z" fill="rgb(90,41,82)"/>
<path d="M36 35h1v1h-1v-1z" fill="rgb(90,41,82)"/>
<path d="M37 35h1v1h-1v-1z" fill="rgb(180,98,148)"/>
<path d="M38 35h2v1h-1v1h-1v1h2v3h1v2h-1v1h-1v1h-1v1h-2v1h-2v-1h-1v1h-1v1h-3v-1h-1v-1h1
	v-2h-1v-1h-1v-3h1v1h1v1h1v1h1v1h1v1h5v-4h-1v-1h-3v1h-1v-1h-1v-1h1v-1h-2v-2h5v1
	h1v-1h2v-1z" fill="rgb(255,180,213)"/>
<path d="M40 35h1v1h-1v-1z" fill="rgb(90,41,82)"/>
<path d="M57 35h1v1h-1v-1z" fill="rgb(0,0,0)"/>
<path d="M29 36h1v1h-1v-1z" fill="rgb(180,98,148)"/>
<path d="M35 36h1v1h-1v-1z" fill="rgb(90,41,82)"/>
<path d="M39 36h1v2h-2v-1h1v-1z" fill="rgb(238,131,180)"/>
<path d="M40 36h1v2h-1v-2z" fill="rgb(0,0,0)"/>
<path d="M57 36h1v2h-1v-2z" fill="rgb(90,41,82)"/>
<path d="M27 37h1v3h-1v-3z" fill="rgb(90,41,82)"/>
<path d="M28 37h1v1h-1v-1z" fill="rgb(238,131,180)"/>
<path d="M29 37h1v1h2v1h-1v1h-1v2h-1v-1h-1v-3h1v-1z" fill="rgb(255,213,238)"/>
<path d="M73 37h1v6h-1v-6z" fill="rgb(90,41,82)"/>
<path d="M74 37h1v2h-1v-2z" fill="rgb(180,98,148)"/>
<path d="M75 37h1v7h-1v-7z" fill="rgb(0,0,0)"/>
<path d="M40 38h1v1h-1v-1z" fill="rgb(90,41,82)"/>
<path d="M56 38h1v2h-1v-2z" fill="rgb(90,41,82)"/>
<path d="M57 38h1v2h-1v-2z" fill="rgb(238,131,180)"/>
<path d="M58 38h1v1h-1v-1z" fill="rgb(0,0,0)"/>
<path d="M40 39h1v2h-1v-2z" fill="rgb(238,131,180)"/>
<path d="M41 39h1v2h-1v-2z" fill="rgb(90,41,82)"/>
<path d="M58 39h1v1h-1v-1z" fill="rgb(90,41,82)"/>
<path d="M74 39h1v5h-1v-5z" fill="rgb(238,131,180)"/>
<path d="M26 40h1v3h-1v-3z" fill="rgb(90,41,82)"/>
<path d="M30 40h1v1h-1v-1z" fill="rgb(255,180,213)"/>
<path d="M31 40h1v1h-1v-1z" fill="rgb(238,131,180)"/>
<path d="M33 40h1v1h-1v-1z" fill="rgb(238,131,180)"/>
<path d="M34 40h2v1h-2v-1z" fill="rgb(180,98,148)"/>
<path d="M57 40h1v5h-1v-5z" fill="rgb(90,41,82)"/>
<path d="M58 40h1v5h-1v-5z" fill="rgb(238,131,180)"/>
<path d="M59 40h1v5h-1v-5z" fill="rgb(0,0,0)"/>
<path d="M30 41h1v2h-1v-2z" fill="rgb(238,131,180)"/>
<path d="M31 41h1v3h-1v-3z" fill="rgb(255,213,238)"/>
<path d="M32 41h1v1h-1v-1z" fill="rgb(238,131,180)"/>
<path d="M33 41h1v1h-1v-1z" fill="rgb(24,57,106)"/>
<path d="M34 41h1v1h-1v-1z" fill="rgb(205,205,205)"/>
<path d="M35 41h1v1h1v2h-1v-1h-1v-2z" fill="rgb(255,255,255)"/>
<path d="M36 41h1v1h-1v-1z" fill="rgb(238,131,180)"/>
<path d="M41 41h1v2h-1v-2z" fill="rgb(0,0,0)"/>
<path d="M32 42h1v1h-1v-1z" fill="rgb(90,41,82)"/>
<path d="M33 42h1v1h-1v-1z" fill="rgb(205,205,205)"/>
<path d="M34 42h1v3h-2v-1h1v-2z" fill="rgb(41,98,230)"/>
<path d="M26 43h1v2h-1v-2z" fill="rgb(0,0,0)"/>
<path d="M27 43h1v1h1v2h-1v-1h-1v-2z" fill="rgb(238,131,180)"/>
<path d="M32 43h1v1h-1v-1z" fill="rgb(24,57,106)"/>
<path d="M33 43h1v1h-1v-1z" fill="rgb(255,255,255)"/>
<path d="M35 43h1v1h-1v-1z" fill="rgb(131,172,246)"/>
<path d="M40 43h1v1h-1v-1z" fill="rgb(90,41,82)"/>
<path d="M46 43h1v1h-1v-1z" fill="rgb(90,41,82)"/>
<path d="M72 43h1v3h-1v-3z" fill="rgb(90,41,82)"/>
<path d="M73 43h1v1h-1v-1z" fill="rgb(180,98,148)"/>
<path d="M32 44h1v1h-1v-1z" fill="rgb(90,41,82)"/>
<path d="M35 44h2v1h-2v-1z" fill="rgb(238,131,180)"/>
<path d="M39 44h1v1h-1v-1z" fill="rgb(90,41,82)"/>
<path d="M40 44h1v1h-1v-1z" fill="rgb(0,0,0)"/>
<path d="M44 44h2v1h-2v-1z" fill="rgb(90,41,82)"/>
<path d="M46 44h1v1h-1v-1z" fill="rgb(255,213,238)"/>
<path d="M47 44h1v1h-1v-1z" fill="rgb(90,41,82)"/>
<path d="M73 44h1v3h-1v1h-1v-2h1v-2z" fill="rgb(238,131,180)"/>
<path d="M74 44h1v3h-1v-3z" fill="rgb(0,0,0)"/>
<path d="M27 45h1v2h-1v-2z" fill="rgb(90,41,82)"/>
<path d="M38 45h3v1h1v1h-1v1h-1v1h-4v2h-2v1h-3v-1h1v-1h1v-1h2v-1h2v-1h1v-2z" fill="rgb(238,131,180)"/>
<path d="M41 45h1v1h-1v-1z" fill="rgb(180,98,148)"/>
<path d="M42 45h1v1h-1v-1z" fill="rgb(0,0,0)"/>
<path d="M43 45h1v1h-1v-1z" fill="rgb(90,41,82)"/>
<path d="M44 45h2v1h-1v1h-1v1h-2v1h4v1h1v1h1v1h1v4h-1v1h-2v-1h-2v-2h-1v3h-1v-1h-3v-1h-1
	v-4h-1v-1h-1v-1h4v-1h1v-1h1v-1h2v-1z" fill="rgb(255,180,213)"/>
<path d="M46 45h1v2h-2v-1h1v-1z" fill="rgb(238,131,180)"/>
<path d="M47 45h1v1h-1v-1z" fill="rgb(0,0,0)"/>
<path d="M56 45h1v2h-1v-2z" fill="rgb(90,41,82)"/>
<path d="M57 45h1v3h-1v1h-1v-2h1v-2z" fill="rgb(238,131,180)"/>
<path d="M58 45h1v1h-1v-1z" fill="rgb(90,41,82)"/>
<path d="M33 46h1v1h-1v-1z" fill="rgb(180,98,148)"/>
<path d="M36 46h1v1h-1v-1z" fill="rgb(238,131,180)"/>
<path d="M37 46h1v1h-1v-1z" fill="rgb(180,98,148)"/>
<path d="M47 46h1v1h-1v-1z" fill="rgb(255,180,213)"/>
<path d="M48 46h1v1h-1v-1z" fill="rgb(0,0,0)"/>
<path d="M58 46h1v2h-1v-2z" fill="rgb(0,0,0)"/>
<path d="M71 46h1v2h-1v-2z" fill="rgb(90,41,82)"/>
<path d="M28 47h1v1h-1v-1z" fill="rgb(90,41,82)"/>
<path d="M32 47h1v1h-1v-1z" fill="rgb(90,41,82)"/>
<path d="M33 47h2v1h-2v-1z" fill="rgb(0,0,0)"/>
<path d="M35 47h1v1h-1v-1z" fill="rgb(90,41,82)"/>
<path d="M36 47h1v1h-1v-1z" fill="rgb(180,98,148)"/>
<path d="M44 47h1v1h-1v-1z" fill="rgb(238,131,180)"/>
<path d="M45 47h2v1h-1v1h-1v-2z" fill="rgb(0,0,0)"/>
<path d="M47 47h1v1h-1v-1z" fill="rgb(90,41,82)"/>
<path d="M55 47h1v1h-1v-1z" fill="rgb(90,41,82)"/>
<path d="M73 47h1v2h-1v-2z" fill="rgb(0,0,0)"/>
<path d="M29 48h1v1h-1v-1z" fill="rgb(90,41,82)"/>
<path d="M30 48h2v1h-2v-1z" fill="rgb(0,0,0)"/>
<path d="M32 48h1v1h-1v-1z" fill="transparent"/>
<path d="M33 48h2v1h-2v-1z" fill="rgb(90,41,82)"/>
<path d="M42 48h1v1h-1v-1z" fill="rgb(180,98,148)"/>
<path d="M43 48h2v1h-2v-1z" fill="rgb(90,41,82)"/>
<path d="M55 48h1v1h-1v-1z" fill="rgb(0,0,0)"/>
<path d="M57 48h1v2h-1v-2z" fill="rgb(0,0,0)"/>
<path d="M70 48h1v1h-1v-1z" fill="rgb(90,41,82)"/>
<path d="M71 48h1v2h-1v1h-1v1h-1v1h-2v-1h-1v-2h4v-1h1v-1z" fill="rgb(238,131,180)"/>
<path d="M72 48h1v1h-1v-1z" fill="rgb(180,98,148)"/>
<path d="M31 49h2v1h-2v-1z" fill="rgb(90,41,82)"/>
<path d="M46 49h1v1h-1v-1z" fill="rgb(0,0,0)"/>
<path d="M54 49h1v1h-1v-1z" fill="rgb(90,41,82)"/>
<path d="M55 49h2v1h-1v1h-1v1h-1v1h-3v-1h1v-1h2v-1h1v-1z" fill="rgb(180,98,148)"/>
<path d="M66 49h4v1h-4v-1z" fill="rgb(90,41,82)"/>
<path d="M72 49h1v1h-1v-1z" fill="rgb(0,0,0)"/>
<path d="M30 50h1v1h-1v-1z" fill="rgb(90,41,82)"/>
<path d="M31 50h1v1h-1v-1z" fill="rgb(180,98,148)"/>
<path d="M36 50h1v1h-1v-1z" fill="rgb(180,98,148)"/>
<path d="M47 50h2v1h-2v-1z" fill="rgb(0,0,0)"/>
<path d="M52 50h2v1h-2v-1z" fill="rgb(90,41,82)"/>
<path d="M56 50h1v1h-1v-1z" fill="rgb(0,0,0)"/>
<path d="M63 50h1v1h-1v-1z" fill="rgb(180,98,148)"/>
<path d="M64 50h2v1h-2v-1z" fill="rgb(90,41,82)"/>
<path d="M71 50h1v1h-1v-1z" fill="rgb(0,0,0)"/>
<path d="M29 51h1v1h-1v-1z" fill="rgb(90,41,82)"/>
<path d="M30 51h1v1h-1v-1z" fill="rgb(255,180,213)"/>
<path d="M34 51h2v1h-2v-1z" fill="rgb(0,0,0)"/>
<path d="M36 51h1v1h-1v-1z" fill="rgb(90,41,82)"/>
<path d="M37 51h1v1h-1v-1z" fill="rgb(238,131,180)"/>
<path d="M48 51h1v1h-1v-1z" fill="rgb(238,131,180)"/>
<path d="M49 51h1v1h-1v-1z" fill="rgb(0,0,0)"/>
<path d="M50 51h2v1h-1v2h-1v-3z" fill="rgb(90,41,82)"/>
<path d="M55 51h1v1h-1v-1z" fill="rgb(0,0,0)"/>
<path d="M60 51h3v1h-3v-1z" fill="rgb(180,98,148)"/>
<path d="M63 51h3v1h1v1h-1v1h-1v-1h-1v-1h-1v-1z" fill="rgb(255,180,213)"/>
<path d="M70 51h1v1h-1v-1z" fill="rgb(0,0,0)"/>
<path d="M30 52h1v1h-1v-1z" fill="rgb(0,0,0)"/>
<path d="M31 52h1v1h-1v-1z" fill="rgb(255,180,213)"/>
<path d="M32 52h2v1h-2v-1z" fill="rgb(0,0,0)"/>
<path d="M37 52h1v3h-1v-3z" fill="rgb(90,41,82)"/>
<path d="M49 52h1v2h1v4h-1v1h-3v-1h-2v-1h-1v-1h2v1h2v-1h1v-4z" fill="rgb(238,131,180)"/>
<path d="M54 52h1v1h-1v-1z" fill="rgb(0,0,0)"/>
<path d="M59 52h1v1h-1v-1z" fill="rgb(180,98,148)"/>
<path d="M60 52h1v1h-1v-1z" fill="rgb(255,180,213)"/>
<path d="M61 52h3v1h1v1h-1v1h-4v-2h1v-1z" fill="rgb(255,213,238)"/>
<path d="M69 52h1v1h-1v-1z" fill="rgb(0,0,0)"/>
<path d="M31 53h1v1h-1v-1z" fill="rgb(0,0,0)"/>
<path d="M44 53h1v1h-1v-1z" fill="rgb(238,131,180)"/>
<path d="M51 53h3v1h-3v-1z" fill="rgb(0,0,0)"/>
<path d="M58 53h1v1h-1v-1z" fill="rgb(180,98,148)"/>
<path d="M59 53h1v1h-1v-1z" fill="rgb(255,180,213)"/>
<path d="M66 53h1v1h-1v-1z" fill="rgb(238,131,180)"/>
<path d="M67 53h1v1h-1v-1z" fill="rgb(180,98,148)"/>
<path d="M68 53h1v1h-1v-1z" fill="rgb(90,41,82)"/>
<path d="M43 54h1v2h-1v-2z" fill="rgb(180,98,148)"/>
<path d="M51 54h1v1h-1v-1z" fill="rgb(90,41,82)"/>
<path d="M58 54h1v1h-1v-1z" fill="rgb(90,41,82)"/>
<path d="M59 54h1v1h-1v-1z" fill="rgb(238,131,180)"/>
<path d="M64 54h1v1h-1v-1z" fill="rgb(255,180,213)"/>
<path d="M65 54h1v1h-1v-1z" fill="rgb(238,131,180)"/>
<path d="M66 54h1v1h-1v-1z" fill="rgb(90,41,82)"/>
<path d="M67 54h1v1h-1v-1z" fill="rgb(0,0,0)"/>
<path d="M36 55h1v3h-1v-3z" fill="rgb(90,41,82)"/>
<path d="M37 55h1v1h-1v-1z" fill="rgb(238,131,180)"/>
<path d="M38 55h1v2h-1v-2z" fill="rgb(90,41,82)"/>
<path d="M51 55h1v3h-1v-3z" fill="rgb(0,0,0)"/>
<path d="M59 55h2v1h-2v-1z" fill="rgb(90,41,82)"/>
<path d="M61 55h4v1h-4v-1z" fill="rgb(0,0,0)"/>
<path d="M65 55h1v1h-1v-1z" fill="rgb(90,41,82)"/>
<path d="M37 56h1v1h1v1h1v1h-2v-1h-1v-2z" fill="rgb(255,180,213)"/>
<path d="M39 56h3v1h2v1h1v1h-3v-1h-2v-1h-1v-1z" fill="rgb(238,131,180)"/>
<path d="M43 56h1v1h-1v-1z" fill="rgb(90,41,82)"/>
<path d="M39 57h1v1h-1v-1z" fill="rgb(90,41,82)"/>
<path d="M44 57h1v1h-1v-1z" fill="rgb(0,0,0)"/>
<path d="M37 58h1v2h-1v-2z" fill="rgb(90,41,82)"/>
<path d="M40 58h1v1h-1v-1z" fill="rgb(0,0,0)"/>
<path d="M41 58h1v1h-1v-1z" fill="rgb(180,98,148)"/>
<path d="M45 58h1v1h2v1h-2v1h-1v-1h-3v-1h3v-1z" fill="rgb(0,0,0)"/>
<path d="M46 58h1v1h-1v-1z" fill="rgb(180,98,148)"/>
<path d="M50 58h1v1h2v3h-2v-1h-1v-1h-2v-1h2v-1z" fill="rgb(180,98,148)"/>
<path d="M51 58h1v1h-1v-1z" fill="rgb(90,41,82)"/>
<path d="M52 58h1v1h-1v-1z" fill="rgb(0,0,0)"/>
<path d="M38 59h3v1h2v1h-3v-1h-2v-1z" fill="rgb(238,131,180)"/>
<path d="M41 59h1v1h-1v-1z" fill="rgb(90,41,82)"/>
<path d="M53 59h1v1h-1v-1z" fill="rgb(0,0,0)"/>
<path d="M38 60h1v1h-1v-1z" fill="rgb(90,41,82)"/>
<path d="M39 60h1v1h-1v-1z" fill="rgb(0,0,0)"/>
<path d="M43 60h1v1h1v2h1v3h-2v-1h-1v-3h-1v-1h1v-1z" fill="rgb(180,98,148)"/>
<path d="M44 60h1v1h-1v-1z" fill="rgb(90,41,82)"/>
<path d="M48 60h2v1h-2v-1z" fill="rgb(0,0,0)"/>
<path d="M53 60h2v1h-2v-1z" fill="rgb(90,41,82)"/>
<path d="M40 61h2v2h-1v-1h-1v-1z" fill="rgb(0,0,0)"/>
<path d="M45 61h1v1h1v1h-2v-2z" fill="rgb(90,41,82)"/>
<path d="M50 61h1v1h-1v-1z" fill="rgb(0,0,0)"/>
<path d="M53 61h2v1h-2v-1z" fill="rgb(238,131,180)"/>
<path d="M55 61h1v2h-1v-2z" fill="rgb(90,41,82)"/>
<path d="M42 62h1v3h-1v-3z" fill="rgb(90,41,82)"/>
<path d="M50 62h1v1h-1v-1z" fill="rgb(90,41,82)"/>
<path d="M51 62h1v1h-1v-1z" fill="rgb(238,131,180)"/>
<path d="M52 62h3v1h1v1h1v2h-1v-1h-1v2h-1v-1h-1v-2h-1v-2z" fill="rgb(255,180,213)"/>
<path d="M46 63h1v2h-1v-2z" fill="rgb(0,0,0)"/>
<path d="M51 63h1v1h-1v-1z" fill="rgb(90,41,82)"/>
<path d="M56 63h1v1h-1v-1z" fill="rgb(90,41,82)"/>
<path d="M52 64h1v3h-1v-3z" fill="rgb(90,41,82)"/>
<path d="M57 64h1v2h-1v-2z" fill="rgb(90,41,82)"/>
<path d="M43 65h1v1h-1v-1z" fill="rgb(0,0,0)"/>
<path d="M46 65h1v1h-1v-1z" fill="rgb(90,41,82)"/>
<path d="M55 65h1v1h1v1h-2v-2z" fill="rgb(180,98,148)"/>
<path d="M44 66h2v1h-2v-1z" fill="rgb(0,0,0)"/>
<path d="M53 66h1v1h-1v-1z" fill="rgb(180,98,148)"/>
<path d="M57 66h1v2h-1v-2z" fill="rgb(0,0,0)"/>
<path d="M53 67h1v1h-1v-1z" fill="rgb(90,41,82)"/>
<path d="M54 67h1v1h-1v-1z" fill="rgb(180,98,148)"/>
<path d="M55 67h1v1h-1v-1z" fill="rgb(255,180,213)"/>
<path d="M56 67h1v1h-1v-1z" fill="rgb(90,41,82)"/>
<path d="M54 68h1v1h-1v-1z" fill="rgb(90,41,82)"/>
<path d="M55 68h2v1h-2v-1z" fill="rgb(0,0,0)"/>
</svg>
