<?xml version="1.0" encoding="utf-8"?>
<!-- generated at drububu.com  -->
<!DOCTYPE svg PUBLIC "-//W3C//DTD SVG 1.1//EN" "http://www.w3.org/Graphics/SVG/1.1/DTD/svg11.dtd">
<svg version="1.1" preserveAspectRatio="xMinYMin meet" xmlns="http://www.w3.org/2000/svg" xmlns:xlink="http://www.w3.org/1999/xlink" x="0px" y="0px" width="96px" height="96px" viewBox="0 0 96 96">
<path d="M0 0h96v96h-96v-96z" fill="transparent"/>
<path d="M41 27h2v2h2v2h2v1h-3v-2h-2v-2h-1v-1z" fill="rgb(115,74,49)"/>
<path d="M40 28h1v1h-1v-1z" fill="rgb(115,74,49)"/>
<path d="M41 28h1v2h-1v1h1v-1h2v2h-3v1h-2v1h-2v1h-1v-2h1v-2h1v-1h2v-1h1v-1z" fill="rgb(205,131,90)"/>
<path d="M38 29h2v1h-2v-1z" fill="rgb(115,74,49)"/>
<path d="M35 30h1v1h-1v-1z" fill="rgb(164,98,90)"/>
<path d="M37 30h1v1h-1v-1z" fill="rgb(115,74,49)"/>
<path d="M41 30h1v1h-1v-1z" fill="rgb(115,74,49)"/>
<path d="M34 31h1v2h-1v-2z" fill="rgb(164,98,90)"/>
<path d="M35 31h1v2h-1v-2z" fill="rgb(255,246,189)"/>
<path d="M36 31h1v2h-1v-2z" fill="rgb(115,74,49)"/>
<path d="M41 32h3v1h-3v-1z" fill="rgb(115,74,49)"/>
<path d="M44 32h2v1h-1v1h-4v-1h3v-1z" fill="rgb(255,246,189)"/>
<path d="M46 32h1v1h-1v-1z" fill="rgb(230,189,98)"/>
<path d="M47 32h1v2h-2v-1h1v-1z" fill="rgb(65,41,24)"/>
<path d="M33 33h1v2h-1v-2z" fill="rgb(164,98,90)"/>
<path d="M34 33h1v2h-1v-2z" fill="rgb(255,246,189)"/>
<path d="M35 33h1v2h-1v-2z" fill="rgb(115,74,49)"/>
<path d="M39 33h2v1h-2v-1z" fill="rgb(115,74,49)"/>
<path d="M45 33h1v1h-1v-1z" fill="rgb(205,131,90)"/>
<path d="M37 34h2v1h-2v-1z" fill="rgb(164,98,90)"/>
<path d="M39 34h2v1h-2v-1z" fill="rgb(255,246,189)"/>
<path d="M41 34h7v1h-6v1h-5v-1h4v-1z" fill="rgb(230,189,98)"/>
<path d="M48 34h1v1h-1v-1z" fill="rgb(65,41,24)"/>
<path d="M33 35h2v1h-2v-1z" fill="rgb(189,41,32)"/>
<path d="M35 35h2v1h-2v-1z" fill="rgb(164,98,90)"/>
<path d="M42 35h1v1h-1v-1z" fill="rgb(65,41,24)"/>
<path d="M43 35h3v1h-3v-1z" fill="rgb(16,16,16)"/>
<path d="M46 35h2v1h-2v-1z" fill="rgb(65,41,24)"/>
<path d="M32 36h1v1h-1v-1z" fill="rgb(189,41,32)"/>
<path d="M33 36h2v1h-1v1h-2v-1h1v-1z" fill="rgb(255,172,115)"/>
<path d="M35 36h2v1h-2v-1z" fill="rgb(189,41,32)"/>
<path d="M37 36h1v1h-1v-1z" fill="rgb(164,98,90)"/>
<path d="M38 36h3v2h-1v-1h-2v-1z" fill="rgb(16,16,16)"/>
<path d="M41 36h1v1h-1v-1z" fill="rgb(65,41,24)"/>
<path d="M42 36h1v3h-1v-3z" fill="rgb(16,16,16)"/>
<path d="M43 36h1v1h1v1h1v3h-1v1h-1v1h-1v1h-1v-2h1v-2h-1v-1h1v-3z" fill="rgb(65,41,24)"/>
<path d="M44 36h2v2h-1v-1h-1v-1z" fill="rgb(164,98,90)"/>
<path d="M46 36h1v2h-1v-2z" fill="rgb(115,74,49)"/>
<path d="M31 37h1v3h-1v-3z" fill="rgb(189,41,32)"/>
<path d="M34 37h3v3h-2v-1h-3v-1h2v-1z" fill="rgb(238,98,65)"/>
<path d="M37 37h1v1h-1v-1z" fill="rgb(16,16,16)"/>
<path d="M38 37h1v1h-1v-1z" fill="rgb(65,41,24)"/>
<path d="M39 37h1v1h-1v-1z" fill="rgb(255,255,255)"/>
<path d="M41 37h1v2h-1v-2z" fill="rgb(255,255,255)"/>
<path d="M37 38h1v2h-1v-2z" fill="rgb(189,41,32)"/>
<path d="M38 38h1v1h-1v-1z" fill="rgb(164,98,90)"/>
<path d="M39 38h2v1h-2v-1z" fill="rgb(65,41,24)"/>
<path d="M46 38h1v2h1v1h1v1h-1v1h-1v1h-1v1h-1v1h-1v2h-1v-1h-1v-1h-1v-2h2v-1h1v-1h1v-1h1
	v-3z" fill="rgb(164,98,90)"/>
<path d="M47 38h1v2h-1v-2z" fill="rgb(16,16,16)"/>
<path d="M32 39h3v1h-2v2h-1v-3z" fill="rgb(65,41,24)"/>
<path d="M38 39h1v1h3v2h-1v1h-1v1h-3v-2h1v-3z" fill="rgb(255,238,156)"/>
<path d="M39 39h3v1h-3v-1z" fill="rgb(230,189,98)"/>
<path d="M33 40h2v1h2v1h-3v-1h-1v-1z" fill="rgb(189,41,32)"/>
<path d="M35 40h2v1h-2v-1z" fill="rgb(65,41,24)"/>
<path d="M37 40h1v1h-1v-1z" fill="rgb(238,98,65)"/>
<path d="M42 40h1v2h-1v-2z" fill="rgb(230,189,98)"/>
<path d="M48 40h1v1h-1v-1z" fill="rgb(16,16,16)"/>
<path d="M33 41h1v1h-1v-1z" fill="rgb(238,98,65)"/>
<path d="M37 41h1v1h-1v-1z" fill="rgb(230,189,98)"/>
<path d="M49 41h2v1h-2v-1z" fill="rgb(16,16,16)"/>
<path d="M33 42h1v1h-1v-1z" fill="rgb(65,41,24)"/>
<path d="M34 42h3v1h-3v-1z" fill="rgb(238,98,65)"/>
<path d="M41 42h1v2h-1v2h1v1h-1v1h-2v1h-2v-1h-1v-4h4v-1h1v-1z" fill="rgb(230,189,98)"/>
<path d="M48 42h3v1h1v1h1v2h-1v1h-1v2h-1v-1h-1v2h-1v-1h-2v-2h-1v-2h1v-1h1v-1h1v-1z" fill="rgb(205,131,90)"/>
<path d="M51 42h2v1h-2v-1z" fill="rgb(65,41,24)"/>
<path d="M34 43h3v1h-3v-1z" fill="rgb(65,41,24)"/>
<path d="M52 43h1v1h-1v-1z" fill="rgb(164,98,90)"/>
<path d="M53 43h2v1h-2v-1z" fill="rgb(65,41,24)"/>
<path d="M35 44h1v5h-1v-5z" fill="rgb(115,74,49)"/>
<path d="M53 44h2v1h1v3h-1v-1h-1v-1h-1v-2z" fill="rgb(164,98,90)"/>
<path d="M55 44h1v1h-1v-1z" fill="rgb(65,41,24)"/>
<path d="M56 45h1v2h1v3h-1v-2h-1v-3z" fill="rgb(65,41,24)"/>
<path d="M44 46h1v2h-1v-2z" fill="rgb(65,41,24)"/>
<path d="M52 46h1v1h1v1h1v2h-2v-1h-1v1h1v4h-2v-1h-1v-1h-1v1h1v1h1v1h-2v1h-2v-1h-1v-1h-1
	v-2h-1v-4h1v-1h1v2h2v1h1v-2h1v1h1v-2h1v-1z" fill="rgb(164,98,90)"/>
<path d="M53 46h1v1h-1v-1z" fill="rgb(65,41,24)"/>
<path d="M59 46h3v1h-3v-1z" fill="rgb(115,74,49)"/>
<path d="M63 46h2v1h-2v-1z" fill="rgb(115,74,49)"/>
<path d="M41 47h2v6h-1v1h-1v-1h-1v-1h-1v2h-2v-3h-1v2h-1v-4h1v-1h1v1h2v-1h2v-1z" fill="rgb(255,238,156)"/>
<path d="M54 47h1v1h-1v-1z" fill="rgb(65,41,24)"/>
<path d="M58 47h1v1h-1v-1z" fill="rgb(115,74,49)"/>
<path d="M59 47h3v1h-3v-1z" fill="rgb(205,131,90)"/>
<path d="M62 47h1v1h-1v-1z" fill="rgb(115,74,49)"/>
<path d="M63 47h2v1h2v2h-3v-1h-1v-2z" fill="rgb(205,131,90)"/>
<path d="M65 47h2v1h-2v-1z" fill="rgb(115,74,49)"/>
<path d="M43 48h1v4h-1v-4z" fill="rgb(65,41,24)"/>
<path d="M55 48h1v2h-1v-2z" fill="rgb(65,41,24)"/>
<path d="M56 48h1v2h-1v-2z" fill="rgb(230,189,98)"/>
<path d="M58 48h2v1h-1v1h-1v-2z" fill="rgb(164,98,90)"/>
<path d="M60 48h2v1h-2v-1z" fill="rgb(115,74,49)"/>
<path d="M62 48h1v1h1v1h-1v1h-2v1h-2v-2h1v-1h2v-1z" fill="rgb(164,98,90)"/>
<path d="M67 48h1v2h-1v-2z" fill="rgb(16,16,16)"/>
<path d="M34 49h1v5h-1v-5z" fill="rgb(115,74,49)"/>
<path d="M52 49h1v1h-1v-1z" fill="rgb(65,41,24)"/>
<path d="M59 49h1v1h-1v-1z" fill="rgb(115,74,49)"/>
<path d="M53 50h2v1h-1v3h-1v-4z" fill="rgb(65,41,24)"/>
<path d="M55 50h1v1h-1v-1z" fill="rgb(230,189,98)"/>
<path d="M56 50h1v2h1v3h-1v-1h-1v1h1v1h-2v-1h-1v-2h1v-2h1v-1z" fill="rgb(255,238,156)"/>
<path d="M57 50h1v1h-1v-1z" fill="rgb(16,16,16)"/>
<path d="M58 50h1v1h-1v-1z" fill="rgb(115,74,49)"/>
<path d="M63 50h4v1h-4v-1z" fill="rgb(16,16,16)"/>
<path d="M36 51h1v2h-1v-2z" fill="rgb(205,131,90)"/>
<path d="M54 51h1v2h-1v-2z" fill="rgb(230,189,98)"/>
<path d="M57 51h1v1h-1v-1z" fill="rgb(230,189,98)"/>
<path d="M58 51h1v1h2v1h-2v2h-1v-4z" fill="rgb(16,16,16)"/>
<path d="M61 51h2v1h-2v-1z" fill="rgb(16,16,16)"/>
<path d="M63 51h2v1h1v1h-2v-1h-1v-1z" fill="rgb(205,131,90)"/>
<path d="M65 51h1v1h-1v-1z" fill="rgb(115,74,49)"/>
<path d="M39 52h1v2h-1v-2z" fill="rgb(205,131,90)"/>
<path d="M43 52h1v2h-1v1h-2v-1h1v-1h1v-1z" fill="rgb(230,189,98)"/>
<path d="M44 52h1v2h-1v-2z" fill="rgb(65,41,24)"/>
<path d="M49 52h1v1h-1v-1z" fill="rgb(65,41,24)"/>
<path d="M61 52h3v2h-5v-1h2v-1z" fill="rgb(164,98,90)"/>
<path d="M66 52h1v1h-1v-1z" fill="rgb(115,74,49)"/>
<path d="M35 53h1v1h-1v-1z" fill="rgb(230,189,98)"/>
<path d="M36 53h1v2h-2v-1h1v-1z" fill="rgb(115,74,49)"/>
<path d="M40 53h1v1h-1v-1z" fill="rgb(230,189,98)"/>
<path d="M50 53h1v1h-1v-1z" fill="rgb(65,41,24)"/>
<path d="M64 53h3v1h-3v-1z" fill="rgb(16,16,16)"/>
<path d="M37 54h3v1h-3v-1z" fill="rgb(230,189,98)"/>
<path d="M40 54h1v1h-1v-1z" fill="rgb(205,131,90)"/>
<path d="M43 54h1v1h-1v-1z" fill="rgb(115,74,49)"/>
<path d="M44 54h1v1h1v1h1v1h3v1h2v1h1v1h-2v1h-5v-1h-3v-1h-2v-1h-2v-1h-1v-1h2v-1h1v1h2v-1
	h1v-1z" fill="rgb(230,189,98)"/>
<path d="M45 54h1v1h-1v-1z" fill="rgb(65,41,24)"/>
<path d="M51 54h2v1h-2v-1z" fill="rgb(65,41,24)"/>
<path d="M53 54h1v1h1v1h-1v1h1v1h-3v-1h-2v-2h3v-1z" fill="rgb(230,189,98)"/>
<path d="M56 54h1v1h-1v-1z" fill="rgb(205,131,90)"/>
<path d="M59 54h1v1h-1v-1z" fill="rgb(115,74,49)"/>
<path d="M60 54h4v1h-4v-1z" fill="rgb(16,16,16)"/>
<path d="M36 55h1v1h-1v-1z" fill="rgb(16,16,16)"/>
<path d="M37 55h1v1h-1v-1z" fill="rgb(205,131,90)"/>
<path d="M38 55h2v1h-2v-1z" fill="rgb(115,74,49)"/>
<path d="M41 55h2v1h-2v-1z" fill="rgb(115,74,49)"/>
<path d="M46 55h1v1h-1v-1z" fill="rgb(65,41,24)"/>
<path d="M49 55h1v1h-1v-1z" fill="rgb(65,41,24)"/>
<path d="M57 55h1v2h-1v-2z" fill="rgb(205,131,90)"/>
<path d="M58 55h1v2h-1v-2z" fill="rgb(230,189,98)"/>
<path d="M59 55h1v3h-1v-3z" fill="rgb(16,16,16)"/>
<path d="M37 56h1v1h-1v-1z" fill="rgb(16,16,16)"/>
<path d="M47 56h2v1h-2v-1z" fill="rgb(65,41,24)"/>
<path d="M49 56h1v1h-1v-1z" fill="rgb(16,16,16)"/>
<path d="M54 56h1v1h-1v-1z" fill="rgb(205,131,90)"/>
<path d="M55 56h2v1h1v2h-1v-1h-1v-1h-1v-1z" fill="rgb(230,189,98)"/>
<path d="M38 57h1v1h-1v-1z" fill="rgb(16,16,16)"/>
<path d="M50 57h2v1h-2v-1z" fill="rgb(16,16,16)"/>
<path d="M55 57h1v1h-1v-1z" fill="rgb(205,131,90)"/>
<path d="M58 57h1v1h-1v-1z" fill="rgb(205,131,90)"/>
<path d="M39 58h2v1h-2v-1z" fill="rgb(16,16,16)"/>
<path d="M52 58h1v1h-1v-1z" fill="rgb(65,41,24)"/>
<path d="M53 58h2v1h-2v-1z" fill="rgb(16,16,16)"/>
<path d="M55 58h1v1h-1v-1z" fill="rgb(230,189,98)"/>
<path d="M56 58h1v1h-1v-1z" fill="rgb(205,131,90)"/>
<path d="M58 58h1v1h-1v-1z" fill="rgb(16,16,16)"/>
<path d="M41 59h2v1h-2v-1z" fill="rgb(16,16,16)"/>
<path d="M53 59h2v1h-2v-1z" fill="rgb(65,41,24)"/>
<path d="M55 59h3v1h-3v-1z" fill="rgb(16,16,16)"/>
<path d="M43 60h1v1h-1v-1z" fill="rgb(16,16,16)"/>
<path d="M44 60h1v1h-1v-1z" fill="rgb(65,41,24)"/>
<path d="M45 60h1v1h-1v-1z" fill="rgb(115,74,49)"/>
<path d="M51 60h1v1h-1v-1z" fill="rgb(115,74,49)"/>
<path d="M52 60h1v1h-1v-1z" fill="rgb(65,41,24)"/>
<path d="M43 61h1v1h-1v-1z" fill="rgb(65,41,24)"/>
<path d="M44 61h1v3h-3v-1h1v-1h1v-1z" fill="rgb(189,41,32)"/>
<path d="M45 61h1v2h1v1h-2v-3z" fill="rgb(65,41,24)"/>
<path d="M46 61h2v1h-2v-1z" fill="rgb(16,16,16)"/>
<path d="M48 61h1v2h-1v-2z" fill="rgb(65,41,24)"/>
<path d="M49 61h2v1h-2v-1z" fill="rgb(115,74,49)"/>
<path d="M51 61h1v2h-1v-2z" fill="rgb(65,41,24)"/>
<path d="M39 62h4v1h-4v-1z" fill="rgb(65,41,24)"/>
<path d="M46 62h2v1h-2v-1z" fill="transparent"/>
<path d="M49 62h2v1h1v1h-1v1h-1v-1h-3v-1h2v-1z" fill="rgb(189,41,32)"/>
<path d="M38 63h1v1h-1v-1z" fill="rgb(65,41,24)"/>
<path d="M39 63h1v1h-1v-1z" fill="rgb(189,189,189)"/>
<path d="M40 63h1v1h-1v-1z" fill="rgb(131,131,131)"/>
<path d="M41 63h1v1h-1v-1z" fill="rgb(255,255,255)"/>
<path d="M52 63h1v1h-1v-1z" fill="rgb(65,41,24)"/>
<path d="M37 64h1v1h-1v-1z" fill="rgb(65,41,24)"/>
<path d="M38 64h1v1h-1v-1z" fill="rgb(189,189,189)"/>
<path d="M39 64h1v1h-1v-1z" fill="rgb(131,131,131)"/>
<path d="M40 64h1v1h-1v-1z" fill="rgb(255,255,255)"/>
<path d="M41 64h1v1h-1v-1z" fill="rgb(131,131,131)"/>
<path d="M42 64h1v1h-1v-1z" fill="rgb(16,16,16)"/>
<path d="M43 64h2v1h-2v-1z" fill="rgb(65,41,24)"/>
<path d="M45 64h1v1h-1v-1z" fill="rgb(255,255,255)"/>
<path d="M46 64h1v1h-1v-1z" fill="rgb(189,41,32)"/>
<path d="M47 64h3v1h-3v-1z" fill="rgb(238,98,65)"/>
<path d="M51 64h1v1h-1v-1z" fill="rgb(131,131,131)"/>
<path d="M52 64h1v1h-1v-1z" fill="rgb(189,189,189)"/>
<path d="M53 64h1v1h-1v-1z" fill="rgb(65,41,24)"/>
<path d="M38 65h4v1h-4v-1z" fill="rgb(16,16,16)"/>
<path d="M43 65h1v1h-1v-1z" fill="rgb(16,16,16)"/>
<path d="M44 65h1v1h-1v-1z" fill="rgb(255,255,255)"/>
<path d="M45 65h1v2h-1v-2z" fill="rgb(131,131,131)"/>
<path d="M46 65h2v1h-1v1h-1v-2z" fill="rgb(255,255,255)"/>
<path d="M48 65h2v1h-2v-1z" fill="rgb(189,41,32)"/>
<path d="M50 65h4v1h-4v-1z" fill="rgb(16,16,16)"/>
<path d="M44 66h1v1h-1v-1z" fill="rgb(16,16,16)"/>
<path d="M47 66h3v1h-3v-1z" fill="rgb(16,16,16)"/>
<path d="M45 67h2v1h-2v-1z" fill="rgb(16,16,16)"/>
</svg>
