<?xml version="1.0" encoding="utf-8"?>
<!-- generated at drububu.com  -->
<!DOCTYPE svg PUBLIC "-//W3C//DTD SVG 1.1//EN" "http://www.w3.org/Graphics/SVG/1.1/DTD/svg11.dtd">
<svg version="1.1" preserveAspectRatio="xMinYMin meet" xmlns="http://www.w3.org/2000/svg" xmlns:xlink="http://www.w3.org/1999/xlink" x="0px" y="0px" width="96px" height="96px" viewBox="0 0 96 96">
<path d="M0 0h96v96h-96v-96z" fill="transparent"/>
<path d="M73 5h2v1h-2v-1z" fill="rgb(131,82,49)"/>
<path d="M72 6h1v1h-1v-1z" fill="rgb(131,82,49)"/>
<path d="M73 6h2v4h-1v2h-1v1h-1v2h-1v2h-1v2h-1v2h-1v2h1v-1h1v-1h1v-1h1v-1h1v-1h3v3h-1v1
	h-1v2h-1v1h-1v1h-1v1h-1v1h-1v1h1v-1h2v-1h2v-1h3v3h-1v1h-1v1h-1v1h-1v1h-2v1h-1v1
	h-2v1h7v1h1v2h-1v1h-2v1h-5v1h2v1h2v1h1v1h1v3h-1v1h-2v-1h-1v-1h-2v-1h-2v1h1v1h1
	v2h1v2h-4v-1h-1v-1h-1v-2h1v-4h3v-1h-2v-3h3v-1h-3v-2h1v-1h1v-3h-1v-2h1v-1h1v-4
	h-1v-1h-1v-1h1v-5h-1v-1h-1v-2h1v-2h1v-1h1v-2h1v-1h1v-1h1v-1h1v-1h1v-1z" fill="rgb(255,230,139)"/>
<path d="M75 6h1v4h-1v-4z" fill="rgb(131,82,49)"/>
<path d="M71 7h1v1h-1v-1z" fill="rgb(131,82,49)"/>
<path d="M69 8h2v1h-2v-1z" fill="rgb(131,82,49)"/>
<path d="M68 9h1v1h-1v-1z" fill="rgb(131,82,49)"/>
<path d="M69 9h1v1h-1v-1z" fill="rgb(172,123,90)"/>
<path d="M67 10h1v1h-1v-1z" fill="rgb(131,82,49)"/>
<path d="M68 10h1v1h-1v-1z" fill="rgb(172,123,90)"/>
<path d="M74 10h1v2h-1v-2z" fill="rgb(131,82,49)"/>
<path d="M66 11h1v1h-1v-1z" fill="rgb(131,82,49)"/>
<path d="M67 11h1v1h-1v-1z" fill="rgb(172,123,90)"/>
<path d="M65 12h1v1h-1v-1z" fill="rgb(131,82,49)"/>
<path d="M66 12h1v2h-1v2h-1v2h-1v1h-1v1h-1v2h-1v1h-1v2h-1v2h-1v2h-1v2h-1v2h-1v3h-1v4h-1
	v3h-1v3h-1v1h-1v2h1v1h-1v1h-1v2h-1v2h-1v-1h-2v-1h-5v1h-1v-3h1v-1h1v1h1v-2h1v-1
	h1v-4h-1v-1h-1v-1h-2v-1h1v-1h2v1h2v1h1v1h1v1h1v2h1v-2h1v-1h1v-2h1v-3h1v-3h1v-3
	h1v-3h1v-2h1v-2h1v-2h1v-2h1v-2h1v-1h1v-1h1v-1h1v-1h1v-2h1v-1z" fill="rgb(172,123,90)"/>
<path d="M67 12h1v1h-1v-1z" fill="rgb(230,189,90)"/>
<path d="M73 12h1v1h-1v-1z" fill="rgb(131,82,49)"/>
<path d="M13 13h2v1h-2v-1z" fill="rgb(172,123,90)"/>
<path d="M64 13h1v2h-1v-2z" fill="rgb(131,82,49)"/>
<path d="M72 13h1v1h-1v-1z" fill="rgb(131,82,49)"/>
<path d="M12 14h1v2h-1v-2z" fill="rgb(172,123,90)"/>
<path d="M13 14h2v1h1v1h1v1h1v2h1v1h1v1h1v2h1v1h1v1h1v1h-2v1h-1v2h1v1h1v1h1v1h-3v1h-1v2
	h1v1h1v1h1v1h2v2h-2v1h-3v1h-4v-2h1v-1h1v-1h1v-1h-6v-2h2v-1h2v-1h2v-1h-5v-1h-3
	v-2h7v-1h-2v-1h-1v-1h-1v-1h-1v-1h-1v-1h-1v-2h2v1h2v1h3v-1h-1v-1h-1v-2h-1v-1h-1
	v-2h-1v-2z" fill="rgb(230,189,90)"/>
<path d="M15 14h1v1h-1v-1z" fill="rgb(131,82,49)"/>
<path d="M72 14h1v1h-1v-1z" fill="rgb(16,16,16)"/>
<path d="M16 15h1v1h-1v-1z" fill="rgb(131,82,49)"/>
<path d="M63 15h1v1h-1v-1z" fill="rgb(131,82,49)"/>
<path d="M71 15h1v1h-1v-1z" fill="rgb(131,82,49)"/>
<path d="M13 16h1v2h-1v-2z" fill="rgb(172,123,90)"/>
<path d="M17 16h1v1h-1v-1z" fill="rgb(131,82,49)"/>
<path d="M62 16h1v1h-1v-1z" fill="rgb(131,82,49)"/>
<path d="M71 16h1v1h-1v-1z" fill="rgb(16,16,16)"/>
<path d="M18 17h1v1h-1v-1z" fill="rgb(131,82,49)"/>
<path d="M61 17h1v1h-1v-1z" fill="rgb(131,82,49)"/>
<path d="M70 17h1v2h-1v-2z" fill="rgb(16,16,16)"/>
<path d="M73 17h3v1h-3v-1z" fill="rgb(172,123,90)"/>
<path d="M14 18h1v1h-1v-1z" fill="rgb(131,82,49)"/>
<path d="M18 18h1v1h-1v-1z" fill="rgb(172,123,90)"/>
<path d="M19 18h1v1h-1v-1z" fill="rgb(131,82,49)"/>
<path d="M60 18h1v1h-1v-1z" fill="rgb(131,82,49)"/>
<path d="M64 18h2v1h-2v-1z" fill="rgb(131,82,49)"/>
<path d="M72 18h1v1h-1v-1z" fill="rgb(172,123,90)"/>
<path d="M76 18h1v2h-1v-2z" fill="rgb(172,123,90)"/>
<path d="M15 19h1v1h-1v-1z" fill="rgb(172,123,90)"/>
<path d="M19 19h1v1h-1v-1z" fill="rgb(172,123,90)"/>
<path d="M20 19h1v1h-1v-1z" fill="rgb(131,82,49)"/>
<path d="M59 19h1v2h-1v-2z" fill="rgb(131,82,49)"/>
<path d="M63 19h1v1h-1v-1z" fill="rgb(131,82,49)"/>
<path d="M64 19h2v4h-1v3h-1v1h-1v1h-1v2h-1v2h1v-2h1v-1h1v-2h1v-1h2v4h-1v1h-1v1h-1v1h-1v1
	h-1v1h-1v1h-1v1h1v-1h1v-1h1v-1h1v-1h2v3h-1v1h-1v1h-2v1h-2v1h-2v1h2v-1h2v-1h2v2
	h-1v1h-2v1h-2v1h2v-1h1v1h1v2h-4v-1h-3v-1h-1v-5h1v-3h1v-5h1v-2h1v-1h1v-2h1v-1h1
	v-3h1v-2h1v-1z" fill="rgb(255,230,139)"/>
<path d="M66 19h1v4h-1v-4z" fill="rgb(131,82,49)"/>
<path d="M69 19h1v1h-1v-1z" fill="rgb(16,16,16)"/>
<path d="M70 19h1v1h-1v-1z" fill="transparent"/>
<path d="M71 19h1v1h-1v-1z" fill="rgb(172,123,90)"/>
<path d="M11 20h2v1h-2v-1z" fill="rgb(131,82,49)"/>
<path d="M15 20h1v1h-1v-1z" fill="rgb(131,82,49)"/>
<path d="M20 20h1v1h-1v-1z" fill="rgb(172,123,90)"/>
<path d="M21 20h1v1h-1v-1z" fill="rgb(131,82,49)"/>
<path d="M62 20h1v2h-1v-2z" fill="rgb(131,82,49)"/>
<path d="M69 20h2v1h-1v1h-1v-2z" fill="rgb(131,82,49)"/>
<path d="M76 20h1v1h-1v-1z" fill="rgb(131,82,49)"/>
<path d="M10 21h1v2h-1v-2z" fill="rgb(172,123,90)"/>
<path d="M13 21h1v1h-1v-1z" fill="rgb(131,82,49)"/>
<path d="M14 21h1v1h-1v-1z" fill="rgb(65,41,32)"/>
<path d="M15 21h1v1h-1v-1z" fill="transparent"/>
<path d="M16 21h1v1h-1v-1z" fill="rgb(131,82,49)"/>
<path d="M21 21h1v1h1v1h1v1h1v1h1v1h2v1h1v1h1v1h1v1h1v1h1v1h1v1h1v2h-2v-1h-1v-1h-2v-2h-1
	v-1h-1v-1h-1v-1h-1v-1h-1v1h-1v-3h-1v-1h-1v-1h-1v-2z" fill="rgb(172,123,90)"/>
<path d="M22 21h1v1h-1v-1z" fill="rgb(131,82,49)"/>
<path d="M58 21h1v2h-1v-2z" fill="rgb(131,82,49)"/>
<path d="M68 21h1v1h-1v-1z" fill="rgb(172,123,90)"/>
<path d="M75 21h1v2h-1v-2z" fill="rgb(131,82,49)"/>
<path d="M15 22h1v1h-1v-1z" fill="rgb(131,82,49)"/>
<path d="M16 22h1v1h-1v-1z" fill="rgb(65,41,32)"/>
<path d="M17 22h1v1h-1v-1z" fill="rgb(172,123,90)"/>
<path d="M23 22h1v1h-1v-1z" fill="rgb(131,82,49)"/>
<path d="M61 22h1v1h-1v-1z" fill="rgb(131,82,49)"/>
<path d="M68 22h1v1h-1v-1z" fill="rgb(131,82,49)"/>
<path d="M74 22h1v1h-1v-1z" fill="rgb(230,189,90)"/>
<path d="M11 23h1v1h-1v-1z" fill="rgb(172,123,90)"/>
<path d="M18 23h1v1h-1v-1z" fill="rgb(172,123,90)"/>
<path d="M24 23h1v1h-1v-1z" fill="rgb(131,82,49)"/>
<path d="M57 23h1v2h-1v-2z" fill="rgb(131,82,49)"/>
<path d="M60 23h1v2h-1v-2z" fill="rgb(131,82,49)"/>
<path d="M61 23h1v2h-1v-2z" fill="rgb(230,189,90)"/>
<path d="M65 23h1v1h-1v-1z" fill="rgb(230,189,90)"/>
<path d="M66 23h1v1h-1v-1z" fill="rgb(172,123,90)"/>
<path d="M74 23h1v1h-1v-1z" fill="rgb(16,16,16)"/>
<path d="M12 24h1v1h-1v-1z" fill="rgb(172,123,90)"/>
<path d="M25 24h1v1h-1v-1z" fill="rgb(131,82,49)"/>
<path d="M65 24h1v1h-1v-1z" fill="rgb(65,41,32)"/>
<path d="M73 24h1v1h-1v-1z" fill="rgb(16,16,16)"/>
<path d="M13 25h1v1h-1v-1z" fill="rgb(131,82,49)"/>
<path d="M26 25h2v1h-2v-1z" fill="rgb(131,82,49)"/>
<path d="M56 25h1v2h-1v-2z" fill="rgb(131,82,49)"/>
<path d="M59 25h1v2h-1v-2z" fill="rgb(131,82,49)"/>
<path d="M60 25h1v1h-1v-1z" fill="rgb(230,189,90)"/>
<path d="M65 25h2v1h-2v-1z" fill="rgb(131,82,49)"/>
<path d="M72 25h1v1h-1v-1z" fill="rgb(16,16,16)"/>
<path d="M73 25h3v1h-3v-1z" fill="rgb(131,82,49)"/>
<path d="M76 25h1v1h-1v-1z" fill="rgb(172,123,90)"/>
<path d="M14 26h1v1h-1v-1z" fill="rgb(131,82,49)"/>
<path d="M22 26h2v1h-2v-1z" fill="rgb(131,82,49)"/>
<path d="M28 26h1v1h-1v-1z" fill="rgb(131,82,49)"/>
<path d="M64 26h1v1h-1v-1z" fill="rgb(131,82,49)"/>
<path d="M67 26h1v4h-1v-4z" fill="rgb(131,82,49)"/>
<path d="M71 26h1v1h-1v-1z" fill="rgb(16,16,16)"/>
<path d="M72 26h2v1h-2v-1z" fill="rgb(172,123,90)"/>
<path d="M77 26h1v2h-1v-2z" fill="rgb(172,123,90)"/>
<path d="M15 27h1v1h1v1h-6v-1h4v-1z" fill="rgb(131,82,49)"/>
<path d="M21 27h1v2h-1v-2z" fill="rgb(131,82,49)"/>
<path d="M22 27h2v1h1v1h2v1h1v1h1v1h1v1h2v1h1v1h1v1h-1v1h-1v1h-1v2h-3v-1h-2v-1h-1v-1h-2
	v-1h-1v-1h-1v-2h3v1h2v1h2v-1h-1v-1h-1v-1h-1v-1h-1v-1h-1v-1h-1v-2z" fill="rgb(230,189,90)"/>
<path d="M25 27h1v1h-1v-1z" fill="rgb(131,82,49)"/>
<path d="M29 27h1v1h-1v-1z" fill="rgb(131,82,49)"/>
<path d="M55 27h1v2h-1v-2z" fill="rgb(131,82,49)"/>
<path d="M58 27h1v2h-1v-2z" fill="rgb(131,82,49)"/>
<path d="M59 27h1v1h-1v-1z" fill="rgb(230,189,90)"/>
<path d="M63 27h1v1h-1v-1z" fill="rgb(65,41,32)"/>
<path d="M70 27h2v1h-2v-1z" fill="rgb(172,123,90)"/>
<path d="M17 28h1v1h-1v-1z" fill="rgb(172,123,90)"/>
<path d="M25 28h1v1h-1v-1z" fill="rgb(172,123,90)"/>
<path d="M26 28h1v1h-1v-1z" fill="rgb(131,82,49)"/>
<path d="M30 28h1v1h-1v-1z" fill="rgb(131,82,49)"/>
<path d="M62 28h1v1h-1v-1z" fill="rgb(230,189,90)"/>
<path d="M63 28h1v1h-1v-1z" fill="rgb(131,82,49)"/>
<path d="M69 28h1v1h-1v-1z" fill="rgb(172,123,90)"/>
<path d="M77 28h1v1h-1v-1z" fill="rgb(131,82,49)"/>
<path d="M10 29h1v2h-1v-2z" fill="rgb(131,82,49)"/>
<path d="M22 29h1v1h-1v-1z" fill="rgb(131,82,49)"/>
<path d="M27 29h1v1h-1v-1z" fill="rgb(131,82,49)"/>
<path d="M31 29h1v1h-1v-1z" fill="rgb(131,82,49)"/>
<path d="M54 29h1v3h-1v-3z" fill="rgb(131,82,49)"/>
<path d="M57 29h1v1h-1v-1z" fill="rgb(131,82,49)"/>
<path d="M62 29h1v1h-1v-1z" fill="rgb(131,82,49)"/>
<path d="M76 29h1v1h-1v-1z" fill="rgb(131,82,49)"/>
<path d="M23 30h1v1h-1v-1z" fill="rgb(131,82,49)"/>
<path d="M28 30h1v1h-1v-1z" fill="rgb(131,82,49)"/>
<path d="M32 30h1v1h-1v-1z" fill="rgb(65,41,32)"/>
<path d="M57 30h1v1h-1v-1z" fill="rgb(65,41,32)"/>
<path d="M61 30h1v1h-1v-1z" fill="rgb(131,82,49)"/>
<path d="M66 30h1v1h-1v-1z" fill="rgb(131,82,49)"/>
<path d="M75 30h1v1h-1v-1z" fill="rgb(131,82,49)"/>
<path d="M11 31h1v1h-1v-1z" fill="rgb(131,82,49)"/>
<path d="M12 31h2v1h-2v-1z" fill="rgb(16,16,16)"/>
<path d="M24 31h1v1h-1v-1z" fill="rgb(131,82,49)"/>
<path d="M29 31h1v1h-1v-1z" fill="rgb(131,82,49)"/>
<path d="M33 31h1v1h-1v-1z" fill="rgb(65,41,32)"/>
<path d="M39 31h3v1h-3v-1z" fill="rgb(197,49,41)"/>
<path d="M56 31h1v2h-1v-2z" fill="rgb(65,41,32)"/>
<path d="M61 31h1v1h-1v-1z" fill="rgb(172,123,90)"/>
<path d="M65 31h1v2h-2v-1h1v-1z" fill="rgb(131,82,49)"/>
<path d="M74 31h1v1h-1v-1z" fill="rgb(16,16,16)"/>
<path d="M14 32h1v1h-1v-1z" fill="rgb(131,82,49)"/>
<path d="M15 32h2v1h-2v-1z" fill="rgb(16,16,16)"/>
<path d="M17 32h2v1h-2v-1z" fill="rgb(172,123,90)"/>
<path d="M21 32h3v1h-3v-1z" fill="rgb(131,82,49)"/>
<path d="M24 32h1v1h-1v-1z" fill="rgb(230,189,90)"/>
<path d="M25 32h1v2h-2v-1h1v-1z" fill="rgb(131,82,49)"/>
<path d="M34 32h1v1h-1v-1z" fill="rgb(65,41,32)"/>
<path d="M37 32h2v1h-2v-1z" fill="rgb(197,49,41)"/>
<path d="M39 32h2v1h-1v1h-1v1h-2v1h-1v1h-2v-1h1v-1h1v-1h1v-1h2v-1z" fill="rgb(238,98,65)"/>
<path d="M53 32h1v3h-1v-3z" fill="rgb(131,82,49)"/>
<path d="M73 32h1v1h-1v-1z" fill="rgb(16,16,16)"/>
<path d="M15 33h1v1h-1v-1z" fill="rgb(131,82,49)"/>
<path d="M16 33h1v1h-1v-1z" fill="rgb(172,123,90)"/>
<path d="M20 33h1v2h-1v-2z" fill="rgb(131,82,49)"/>
<path d="M26 33h1v1h1v1h-2v-2z" fill="rgb(65,41,32)"/>
<path d="M35 33h1v1h-1v-1z" fill="rgb(65,41,32)"/>
<path d="M36 33h1v1h-1v-1z" fill="rgb(197,49,41)"/>
<path d="M40 33h1v1h-1v-1z" fill="rgb(197,49,41)"/>
<path d="M55 33h1v3h-1v-3z" fill="rgb(65,41,32)"/>
<path d="M56 33h1v3h-1v-3z" fill="rgb(230,189,90)"/>
<path d="M63 33h1v1h-1v-1z" fill="rgb(131,82,49)"/>
<path d="M66 33h1v3h-1v-3z" fill="rgb(131,82,49)"/>
<path d="M71 33h1v1h-1v-1z" fill="rgb(172,123,90)"/>
<path d="M72 33h1v1h-1v-1z" fill="rgb(16,16,16)"/>
<path d="M13 34h2v1h-2v-1z" fill="rgb(131,82,49)"/>
<path d="M35 34h1v1h-1v-1z" fill="rgb(197,49,41)"/>
<path d="M39 34h1v2h-1v-2z" fill="rgb(197,49,41)"/>
<path d="M40 34h6v1h-6v-1z" fill="rgb(123,49,32)"/>
<path d="M62 34h1v1h-1v-1z" fill="rgb(172,123,90)"/>
<path d="M70 34h2v1h-2v-1z" fill="rgb(131,82,49)"/>
<path d="M12 35h1v2h-1v-2z" fill="rgb(131,82,49)"/>
<path d="M21 35h1v1h-1v-1z" fill="rgb(131,82,49)"/>
<path d="M34 35h1v1h-1v-1z" fill="rgb(197,49,41)"/>
<path d="M37 35h2v1h-2v-1z" fill="rgb(123,49,32)"/>
<path d="M40 35h2v1h-2v-1z" fill="rgb(238,98,65)"/>
<path d="M42 35h4v1h-4v-1z" fill="rgb(197,49,41)"/>
<path d="M46 35h2v1h-2v-1z" fill="rgb(123,49,32)"/>
<path d="M52 35h1v1h-1v-1z" fill="rgb(131,82,49)"/>
<path d="M61 35h1v1h-1v-1z" fill="rgb(230,189,90)"/>
<path d="M68 35h2v1h-2v-1z" fill="rgb(131,82,49)"/>
<path d="M70 35h3v1h-3v-1z" fill="rgb(16,16,16)"/>
<path d="M73 35h2v1h-2v-1z" fill="rgb(131,82,49)"/>
<path d="M19 36h1v1h-1v-1z" fill="rgb(172,123,90)"/>
<path d="M22 36h1v1h-1v-1z" fill="rgb(131,82,49)"/>
<path d="M33 36h1v1h-1v-1z" fill="rgb(197,49,41)"/>
<path d="M36 36h1v1h-1v-1z" fill="rgb(123,49,32)"/>
<path d="M37 36h3v1h-3v-1z" fill="rgb(238,98,65)"/>
<path d="M40 36h2v1h-2v-1z" fill="rgb(197,49,41)"/>
<path d="M42 36h6v1h-3v1h-2v1h-2v-1h-1v-1h2v-1z" fill="rgb(238,98,65)"/>
<path d="M48 36h1v1h-1v-1z" fill="rgb(123,49,32)"/>
<path d="M52 36h1v2h-1v-2z" fill="rgb(65,41,32)"/>
<path d="M54 36h1v4h-1v-4z" fill="rgb(65,41,32)"/>
<path d="M55 36h1v3h-1v-3z" fill="rgb(230,189,90)"/>
<path d="M60 36h1v1h-1v-1z" fill="rgb(230,189,90)"/>
<path d="M65 36h1v1h-1v-1z" fill="rgb(131,82,49)"/>
<path d="M75 36h1v1h-1v-1z" fill="rgb(131,82,49)"/>
<path d="M13 37h3v1h-3v-1z" fill="rgb(131,82,49)"/>
<path d="M16 37h3v1h-1v1h-1v-1h-1v-1z" fill="rgb(16,16,16)"/>
<path d="M23 37h2v1h-2v-1z" fill="rgb(131,82,49)"/>
<path d="M32 37h1v1h-1v-1z" fill="rgb(197,49,41)"/>
<path d="M33 37h2v1h-1v1h-1v1h-1v-2h1v-1z" fill="rgb(255,172,115)"/>
<path d="M35 37h1v1h-1v-1z" fill="rgb(197,49,41)"/>
<path d="M36 37h2v1h-1v1h-1v1h-1v1h-1v-2h1v-1h1v-1z" fill="rgb(255,172,115)"/>
<path d="M38 37h2v1h-2v-1z" fill="rgb(197,49,41)"/>
<path d="M45 37h2v1h-2v-1z" fill="rgb(16,16,16)"/>
<path d="M47 37h1v1h-1v-1z" fill="rgb(123,49,32)"/>
<path d="M48 37h1v1h-1v-1z" fill="rgb(238,98,65)"/>
<path d="M49 37h1v1h-1v-1z" fill="rgb(123,49,32)"/>
<path d="M64 37h1v1h-1v-1z" fill="rgb(131,82,49)"/>
<path d="M76 37h1v2h-1v-2z" fill="rgb(131,82,49)"/>
<path d="M25 38h1v1h2v1h-3v-2z" fill="rgb(131,82,49)"/>
<path d="M31 38h1v2h-1v-2z" fill="rgb(197,49,41)"/>
<path d="M34 38h1v1h-1v-1z" fill="rgb(238,98,65)"/>
<path d="M37 38h1v1h-1v-1z" fill="rgb(197,49,41)"/>
<path d="M38 38h3v1h-2v1h-1v1h-2v-1h1v-1h1v-1z" fill="rgb(255,172,115)"/>
<path d="M43 38h2v1h-2v-1z" fill="rgb(16,16,16)"/>
<path d="M45 38h3v1h1v1h1v3h-1v1h-1v-1h-1v-1h-1v-1h-1v-1h-2v-1h2v-1z" fill="transparent"/>
<path d="M48 38h1v1h-1v-1z" fill="rgb(16,16,16)"/>
<path d="M49 38h1v1h-1v-1z" fill="rgb(197,49,41)"/>
<path d="M51 38h1v3h-1v-3z" fill="rgb(65,41,32)"/>
<path d="M62 38h1v1h-1v-1z" fill="rgb(131,82,49)"/>
<path d="M63 38h1v1h-1v-1z" fill="rgb(65,41,32)"/>
<path d="M64 38h1v1h-1v-1z" fill="rgb(230,189,90)"/>
<path d="M16 39h1v1h-1v-1z" fill="rgb(131,82,49)"/>
<path d="M33 39h1v1h-1v-1z" fill="rgb(238,98,65)"/>
<path d="M36 39h1v1h-1v-1z" fill="rgb(238,98,65)"/>
<path d="M39 39h2v1h-2v-1z" fill="rgb(238,98,65)"/>
<path d="M41 39h2v1h-2v-1z" fill="rgb(16,16,16)"/>
<path d="M49 39h1v1h-1v-1z" fill="rgb(123,49,32)"/>
<path d="M60 39h1v1h-1v-1z" fill="rgb(172,123,90)"/>
<path d="M61 39h1v1h-1v-1z" fill="rgb(131,82,49)"/>
<path d="M64 39h2v1h-1v2h-1v-3z" fill="rgb(131,82,49)"/>
<path d="M66 39h2v1h-2v-1z" fill="rgb(230,189,90)"/>
<path d="M75 39h1v1h-1v-1z" fill="rgb(16,16,16)"/>
<path d="M15 40h1v2h-1v-2z" fill="rgb(131,82,49)"/>
<path d="M23 40h2v1h-2v-1z" fill="rgb(131,82,49)"/>
<path d="M25 40h3v1h2v1h-1v1h-6v-2h2v-1z" fill="rgb(230,189,90)"/>
<path d="M28 40h2v1h-2v-1z" fill="rgb(172,123,90)"/>
<path d="M30 40h1v3h-1v-3z" fill="rgb(197,49,41)"/>
<path d="M31 40h1v2h-1v-2z" fill="rgb(238,98,65)"/>
<path d="M32 40h2v1h-1v3h-1v-4z" fill="rgb(197,49,41)"/>
<path d="M35 40h1v2h-1v1h1v1h-1v1h-1v-4h1v-1z" fill="rgb(197,49,41)"/>
<path d="M38 40h1v1h-1v-1z" fill="rgb(238,98,65)"/>
<path d="M39 40h1v1h-1v-1z" fill="rgb(197,49,41)"/>
<path d="M40 40h1v1h-1v-1z" fill="rgb(16,16,16)"/>
<path d="M43 40h2v1h-2v-1z" fill="rgb(131,82,49)"/>
<path d="M50 40h1v1h-1v-1z" fill="rgb(16,16,16)"/>
<path d="M53 40h1v3h-1v-3z" fill="rgb(65,41,32)"/>
<path d="M54 40h1v4h1v1h3v1h-3v1h-1v1h1v2h1v1h-2v-1h-1v-2h-1v2h-1v2h-1v-1h-1v-1h1v-3h1
	v-1h1v-3h1v-3z" fill="rgb(230,189,90)"/>
<path d="M58 40h1v1h-1v-1z" fill="rgb(230,189,90)"/>
<path d="M59 40h1v1h-1v-1z" fill="rgb(172,123,90)"/>
<path d="M73 40h2v1h-2v-1z" fill="rgb(16,16,16)"/>
<path d="M20 41h2v1h-2v-1z" fill="rgb(16,16,16)"/>
<path d="M22 41h1v2h-1v1h-1v-2h1v-1z" fill="rgb(131,82,49)"/>
<path d="M33 41h1v3h-1v-3z" fill="rgb(238,98,65)"/>
<path d="M36 41h2v1h-2v-1z" fill="rgb(238,98,65)"/>
<path d="M38 41h1v1h-1v-1z" fill="rgb(123,49,32)"/>
<path d="M39 41h1v1h1v1h1v1h1v1h1v2h-1v1h-1v2h-1v-4h-1v-1h-1v-4z" fill="rgb(16,16,16)"/>
<path d="M45 41h1v1h-1v-1z" fill="rgb(131,82,49)"/>
<path d="M50 41h1v2h-1v-2z" fill="rgb(65,41,32)"/>
<path d="M63 41h1v1h-1v-1z" fill="rgb(230,189,90)"/>
<path d="M68 41h2v1h-2v-1z" fill="rgb(131,82,49)"/>
<path d="M70 41h2v1h-2v-1z" fill="rgb(16,16,16)"/>
<path d="M72 41h1v1h-1v-1z" fill="rgb(131,82,49)"/>
<path d="M16 42h3v1h-3v-1z" fill="rgb(16,16,16)"/>
<path d="M19 42h1v1h-1v-1z" fill="rgb(131,82,49)"/>
<path d="M29 42h1v1h-1v-1z" fill="rgb(131,82,49)"/>
<path d="M31 42h1v2h-1v-2z" fill="rgb(123,49,32)"/>
<path d="M35 42h1v1h-1v-1z" fill="rgb(238,98,65)"/>
<path d="M36 42h1v1h-1v-1z" fill="rgb(197,49,41)"/>
<path d="M37 42h1v1h-1v-1z" fill="rgb(123,49,32)"/>
<path d="M38 42h1v1h-1v-1z" fill="rgb(213,213,222)"/>
<path d="M41 42h1v1h-1v-1z" fill="rgb(131,82,49)"/>
<path d="M46 42h1v1h-1v-1z" fill="rgb(16,16,16)"/>
<path d="M61 42h1v1h-1v-1z" fill="rgb(172,123,90)"/>
<path d="M62 42h2v1h-1v1h-1v-2z" fill="rgb(131,82,49)"/>
<path d="M64 42h1v1h2v1h-4v-1h1v-1z" fill="rgb(230,189,90)"/>
<path d="M70 42h2v1h-2v-1z" fill="rgb(131,82,49)"/>
<path d="M22 43h1v1h4v1h-1v2h-2v1h-4v-2h1v-2h1v-1z" fill="rgb(230,189,90)"/>
<path d="M23 43h6v1h-6v-1z" fill="rgb(131,82,49)"/>
<path d="M29 43h1v1h-1v-1z" fill="rgb(172,123,90)"/>
<path d="M30 43h1v2h-1v2h-1v1h-2v-3h2v-1h1v-1z" fill="rgb(230,189,90)"/>
<path d="M36 43h1v2h-1v-2z" fill="rgb(16,16,16)"/>
<path d="M37 43h2v1h-1v1h-1v-2z" fill="rgb(255,255,255)"/>
<path d="M42 43h1v1h-1v-1z" fill="rgb(131,82,49)"/>
<path d="M47 43h1v1h-1v-1z" fill="rgb(131,82,49)"/>
<path d="M49 43h1v1h-1v-1z" fill="rgb(65,41,32)"/>
<path d="M52 43h1v3h-1v-3z" fill="rgb(65,41,32)"/>
<path d="M59 43h1v1h-1v-1z" fill="rgb(172,123,90)"/>
<path d="M60 43h1v1h-1v-1z" fill="rgb(131,82,49)"/>
<path d="M72 43h1v1h-1v-1z" fill="rgb(131,82,49)"/>
<path d="M20 44h1v2h-1v-2z" fill="rgb(131,82,49)"/>
<path d="M27 44h2v1h-2v-1z" fill="rgb(172,123,90)"/>
<path d="M31 44h1v1h-1v-1z" fill="rgb(197,49,41)"/>
<path d="M32 44h2v2h-3v-1h1v-1z" fill="rgb(246,156,238)"/>
<path d="M35 44h1v1h-1v-1z" fill="rgb(213,213,222)"/>
<path d="M38 44h1v1h-1v-1z" fill="rgb(65,41,32)"/>
<path d="M43 44h1v1h-1v-1z" fill="rgb(131,82,49)"/>
<path d="M48 44h1v2h-1v-2z" fill="rgb(16,16,16)"/>
<path d="M63 44h1v2h-1v-2z" fill="rgb(131,82,49)"/>
<path d="M73 44h1v1h-1v-1z" fill="rgb(131,82,49)"/>
<path d="M26 45h1v1h-1v-1z" fill="rgb(172,123,90)"/>
<path d="M30 45h1v1h-1v-1z" fill="rgb(197,49,41)"/>
<path d="M34 45h1v1h1v1h-2v-2z" fill="rgb(222,115,205)"/>
<path d="M35 45h1v1h-1v-1z" fill="rgb(131,82,49)"/>
<path d="M36 45h2v1h-2v-1z" fill="rgb(230,189,90)"/>
<path d="M38 45h2v1h1v3h-1v1h-1v1h-2v-5h1v-1z" fill="rgb(255,230,139)"/>
<path d="M74 45h1v2h-1v-2z" fill="rgb(131,82,49)"/>
<path d="M19 46h1v1h-1v-1z" fill="rgb(131,82,49)"/>
<path d="M26 46h1v2h-1v-2z" fill="rgb(131,82,49)"/>
<path d="M30 46h1v1h-1v-1z" fill="rgb(123,49,32)"/>
<path d="M31 46h1v1h-1v-1z" fill="rgb(222,115,205)"/>
<path d="M32 46h2v1h-2v-1z" fill="rgb(123,49,32)"/>
<path d="M36 46h1v2h-1v-2z" fill="rgb(131,82,49)"/>
<path d="M51 46h1v1h-1v-1z" fill="rgb(65,41,32)"/>
<path d="M56 46h2v1h2v2h-2v-1h-1v-1h-1v-1z" fill="rgb(255,230,139)"/>
<path d="M58 46h2v1h-2v-1z" fill="rgb(172,123,90)"/>
<path d="M60 46h2v1h-2v-1z" fill="rgb(131,82,49)"/>
<path d="M62 46h1v1h-1v-1z" fill="rgb(65,41,32)"/>
<path d="M63 46h1v1h-1v-1z" fill="rgb(230,189,90)"/>
<path d="M66 46h1v1h-1v-1z" fill="rgb(131,82,49)"/>
<path d="M67 46h1v1h-1v-1z" fill="rgb(65,41,32)"/>
<path d="M19 47h1v1h-1v-1z" fill="rgb(16,16,16)"/>
<path d="M24 47h2v3h-1v-2h-1v-1z" fill="rgb(16,16,16)"/>
<path d="M29 47h2v1h-2v-1z" fill="rgb(131,82,49)"/>
<path d="M31 47h1v1h-1v-1z" fill="rgb(16,16,16)"/>
<path d="M32 47h1v4h-2v-2h1v-2z" fill="rgb(230,189,90)"/>
<path d="M33 47h3v1h-1v2h-1v-1h-1v-2z" fill="rgb(16,16,16)"/>
<path d="M43 47h1v1h-1v-1z" fill="rgb(131,82,49)"/>
<path d="M50 47h1v1h-1v-1z" fill="rgb(65,41,32)"/>
<path d="M55 47h1v1h-1v-1z" fill="rgb(172,123,90)"/>
<path d="M56 47h1v1h-1v-1z" fill="rgb(230,189,90)"/>
<path d="M60 47h1v1h-1v-1z" fill="rgb(65,41,32)"/>
<path d="M61 47h2v2h-2v-2z" fill="rgb(230,189,90)"/>
<path d="M63 47h1v1h-1v-1z" fill="rgb(131,82,49)"/>
<path d="M67 47h1v1h-1v-1z" fill="rgb(131,82,49)"/>
<path d="M68 47h1v1h-1v-1z" fill="rgb(65,41,32)"/>
<path d="M69 47h1v1h-1v-1z" fill="rgb(230,189,90)"/>
<path d="M74 47h1v1h-1v-1z" fill="rgb(16,16,16)"/>
<path d="M20 48h2v1h-2v-1z" fill="rgb(16,16,16)"/>
<path d="M22 48h2v1h-2v-1z" fill="rgb(131,82,49)"/>
<path d="M26 48h1v1h2v-1h2v1h-1v2h-1v1h-2v1h-2v-3h1v-2z" fill="rgb(230,189,90)"/>
<path d="M27 48h2v1h-2v-1z" fill="rgb(131,82,49)"/>
<path d="M31 48h1v1h-1v-1z" fill="rgb(131,82,49)"/>
<path d="M35 48h1v1h-1v-1z" fill="rgb(131,82,49)"/>
<path d="M36 48h1v2h-1v1h-2v-1h1v-1h1v-1z" fill="rgb(222,115,205)"/>
<path d="M42 48h1v1h-1v-1z" fill="rgb(65,41,32)"/>
<path d="M50 48h1v1h-1v-1z" fill="rgb(131,82,49)"/>
<path d="M53 48h1v1h-1v-1z" fill="rgb(172,123,90)"/>
<path d="M56 48h1v1h-1v-1z" fill="rgb(131,82,49)"/>
<path d="M57 48h1v1h-1v-1z" fill="rgb(230,189,90)"/>
<path d="M60 48h1v1h-1v-1z" fill="rgb(131,82,49)"/>
<path d="M64 48h1v1h-1v-1z" fill="rgb(230,189,90)"/>
<path d="M68 48h1v2h-1v-2z" fill="rgb(131,82,49)"/>
<path d="M69 48h1v1h-1v-1z" fill="rgb(65,41,32)"/>
<path d="M70 48h1v1h-1v-1z" fill="rgb(16,16,16)"/>
<path d="M73 48h1v1h-1v-1z" fill="rgb(16,16,16)"/>
<path d="M30 49h1v2h-1v-2z" fill="rgb(131,82,49)"/>
<path d="M33 49h1v1h-1v-1z" fill="rgb(123,49,32)"/>
<path d="M40 49h1v1h-1v-1z" fill="rgb(230,189,90)"/>
<path d="M53 49h1v1h-1v-1z" fill="rgb(131,82,49)"/>
<path d="M56 49h1v1h-1v-1z" fill="rgb(172,123,90)"/>
<path d="M57 49h3v1h-2v1h-1v-2z" fill="rgb(131,82,49)"/>
<path d="M60 49h1v1h1v1h1v1h-2v-1h-1v1h-1v-2h1v-1z" fill="rgb(230,189,90)"/>
<path d="M61 49h1v1h-1v-1z" fill="rgb(65,41,32)"/>
<path d="M62 49h1v1h-1v-1z" fill="rgb(172,123,90)"/>
<path d="M71 49h2v1h-2v-1z" fill="rgb(16,16,16)"/>
<path d="M24 50h1v1h-1v-1z" fill="rgb(131,82,49)"/>
<path d="M33 50h1v1h-1v-1z" fill="rgb(16,16,16)"/>
<path d="M36 50h1v1h-1v-1z" fill="rgb(16,16,16)"/>
<path d="M39 50h1v1h-1v-1z" fill="rgb(230,189,90)"/>
<path d="M41 50h1v1h-1v-1z" fill="rgb(131,82,49)"/>
<path d="M52 50h1v1h-1v-1z" fill="rgb(172,123,90)"/>
<path d="M53 50h1v2h1v1h1v2h-1v-1h-2v1h-1v-3h1v-2z" fill="rgb(230,189,90)"/>
<path d="M54 50h1v2h-1v-2z" fill="rgb(131,82,49)"/>
<path d="M58 50h1v2h-1v-2z" fill="rgb(65,41,32)"/>
<path d="M62 50h1v1h-1v-1z" fill="rgb(65,41,32)"/>
<path d="M63 50h1v1h-1v-1z" fill="rgb(172,123,90)"/>
<path d="M69 50h1v2h-1v-2z" fill="rgb(131,82,49)"/>
<path d="M24 51h1v2h-1v-2z" fill="rgb(16,16,16)"/>
<path d="M29 51h1v1h-1v-1z" fill="rgb(131,82,49)"/>
<path d="M30 51h1v1h3v1h1v1h2v-1h1v3h-1v2h-2v-2h-1v-2h-1v1h-1v1h-2v-5z" fill="rgb(230,189,90)"/>
<path d="M31 51h1v1h-1v-1z" fill="rgb(131,82,49)"/>
<path d="M32 51h2v1h-2v-1z" fill="rgb(65,41,32)"/>
<path d="M34 51h2v1h-2v-1z" fill="rgb(16,16,16)"/>
<path d="M36 51h1v2h-2v-1h1v-1z" fill="rgb(230,189,90)"/>
<path d="M37 51h1v1h-1v-1z" fill="rgb(16,16,16)"/>
<path d="M38 51h1v1h-1v-1z" fill="rgb(131,82,49)"/>
<path d="M49 51h1v1h-1v-1z" fill="rgb(230,189,90)"/>
<path d="M50 51h1v1h1v4h-1v7h1v5h-1v-3h-1v-2h-1v-1h-2v1h-1v1h-1v-1h-3v1h-1v3h1v1h-3v-1
	h-1v-2h-1v-3h-1v-2h1v-2h1v-2h1v-1h1v-1h1v-1h3v1h2v1h2v-1h1v-2h1v-1z" fill="rgb(255,230,139)"/>
<path d="M52 51h1v1h-1v-1z" fill="rgb(131,82,49)"/>
<path d="M55 51h1v2h-1v-2z" fill="rgb(65,41,32)"/>
<path d="M56 51h1v1h-1v-1z" fill="rgb(131,82,49)"/>
<path d="M57 51h1v1h1v1h1v2h-1v1h-1v-1h-1v-2h-1v-1h1v-1z" fill="rgb(230,189,90)"/>
<path d="M60 51h1v1h3v2h-1v1h-2v-2h-1v-2z" fill="rgb(255,230,139)"/>
<path d="M63 51h1v1h-1v-1z" fill="rgb(65,41,32)"/>
<path d="M64 51h1v1h-1v-1z" fill="rgb(131,82,49)"/>
<path d="M27 52h3v2h-1v-1h-2v-1z" fill="rgb(16,16,16)"/>
<path d="M34 52h1v1h-1v-1z" fill="rgb(131,82,49)"/>
<path d="M37 52h1v1h-1v-1z" fill="rgb(131,82,49)"/>
<path d="M38 52h1v4h-1v-4z" fill="rgb(65,41,32)"/>
<path d="M59 52h1v1h-1v-1z" fill="rgb(65,41,32)"/>
<path d="M64 52h3v1h-2v1h-1v-2z" fill="rgb(65,41,32)"/>
<path d="M67 52h2v1h-2v-1z" fill="rgb(131,82,49)"/>
<path d="M25 53h2v1h-2v-1z" fill="rgb(16,16,16)"/>
<path d="M35 53h2v1h-2v-1z" fill="rgb(131,82,49)"/>
<path d="M40 53h1v1h-1v-1z" fill="rgb(230,189,90)"/>
<path d="M44 53h1v1h-1v-1z" fill="rgb(230,189,90)"/>
<path d="M48 53h1v1h-1v-1z" fill="rgb(230,189,90)"/>
<path d="M56 53h1v3h-2v-1h1v-2z" fill="rgb(65,41,32)"/>
<path d="M60 53h1v1h-1v-1z" fill="rgb(131,82,49)"/>
<path d="M29 54h1v2h-1v-2z" fill="rgb(65,41,32)"/>
<path d="M33 54h1v1h-1v-1z" fill="rgb(131,82,49)"/>
<path d="M39 54h1v1h-1v-1z" fill="rgb(230,189,90)"/>
<path d="M46 54h1v1h-1v-1z" fill="rgb(230,189,90)"/>
<path d="M53 54h1v1h-1v-1z" fill="rgb(131,82,49)"/>
<path d="M54 54h1v1h-1v-1z" fill="rgb(65,41,32)"/>
<path d="M60 54h1v1h-1v-1z" fill="rgb(65,41,32)"/>
<path d="M63 54h1v1h-1v-1z" fill="rgb(131,82,49)"/>
<path d="M32 55h1v1h-1v-1z" fill="rgb(131,82,49)"/>
<path d="M33 55h1v1h-1v-1z" fill="rgb(65,41,32)"/>
<path d="M52 55h2v4h-1v1h-1v1h-1v-4h1v-2z" fill="rgb(172,123,90)"/>
<path d="M54 55h1v1h-1v-1z" fill="rgb(131,82,49)"/>
<path d="M57 55h1v1h-1v-1z" fill="rgb(131,82,49)"/>
<path d="M59 55h2v1h-2v-1z" fill="rgb(131,82,49)"/>
<path d="M61 55h1v1h-1v-1z" fill="rgb(65,41,32)"/>
<path d="M62 55h1v1h-1v-1z" fill="rgb(131,82,49)"/>
<path d="M30 56h1v1h-1v-1z" fill="rgb(65,41,32)"/>
<path d="M31 56h1v1h-1v-1z" fill="rgb(16,16,16)"/>
<path d="M34 56h1v2h-1v-2z" fill="rgb(65,41,32)"/>
<path d="M37 56h1v2h-1v-2z" fill="rgb(65,41,32)"/>
<path d="M51 56h1v1h-1v-1z" fill="rgb(230,189,90)"/>
<path d="M54 56h1v2h-1v-2z" fill="rgb(16,16,16)"/>
<path d="M57 56h1v1h-1v-1z" fill="rgb(16,16,16)"/>
<path d="M58 56h1v1h-1v-1z" fill="rgb(65,41,32)"/>
<path d="M35 58h2v2h-1v-1h-1v-1z" fill="rgb(65,41,32)"/>
<path d="M54 58h1v6h-1v3h-1v2h-1v1h-1v-2h1v-6h-1v-1h1v-1h1v-1h1v-1z" fill="rgb(131,82,49)"/>
<path d="M55 58h1v6h-1v-6z" fill="rgb(16,16,16)"/>
<path d="M35 60h1v2h-1v-2z" fill="rgb(65,41,32)"/>
<path d="M35 62h1v1h-1v-1z" fill="rgb(131,82,49)"/>
<path d="M36 62h1v1h-1v-1z" fill="rgb(230,189,90)"/>
<path d="M47 62h2v1h-2v-1z" fill="rgb(123,123,131)"/>
<path d="M51 62h1v1h-1v-1z" fill="rgb(230,189,90)"/>
<path d="M34 63h1v1h-1v-1z" fill="rgb(172,123,90)"/>
<path d="M35 63h1v2h1v2h1v1h-3v-1h-1v-3h1v-1z" fill="rgb(255,230,139)"/>
<path d="M36 63h1v1h-1v-1z" fill="rgb(131,82,49)"/>
<path d="M42 63h1v1h-1v-1z" fill="rgb(16,16,16)"/>
<path d="M43 63h2v1h-2v-1z" fill="rgb(123,123,131)"/>
<path d="M46 63h1v2h-1v-2z" fill="rgb(123,123,131)"/>
<path d="M47 63h2v2h-1v1h-1v-3z" fill="rgb(255,255,255)"/>
<path d="M49 63h1v2h-1v-2z" fill="rgb(16,16,16)"/>
<path d="M33 64h1v1h-1v-1z" fill="rgb(172,123,90)"/>
<path d="M36 64h1v1h-1v-1z" fill="rgb(172,123,90)"/>
<path d="M41 64h1v1h-1v-1z" fill="rgb(16,16,16)"/>
<path d="M42 64h1v1h-1v-1z" fill="rgb(213,213,222)"/>
<path d="M43 64h1v1h-1v-1z" fill="rgb(255,255,255)"/>
<path d="M44 64h1v2h-1v-2z" fill="rgb(222,115,205)"/>
<path d="M45 64h1v1h-1v-1z" fill="rgb(123,49,32)"/>
<path d="M54 64h1v3h-1v-3z" fill="rgb(16,16,16)"/>
<path d="M21 65h1v1h-1v-1z" fill="rgb(123,123,131)"/>
<path d="M22 65h1v1h1v1h-2v-2z" fill="rgb(222,115,205)"/>
<path d="M23 65h3v1h-3v-1z" fill="rgb(123,49,32)"/>
<path d="M33 65h1v2h-1v-2z" fill="rgb(131,82,49)"/>
<path d="M37 65h1v1h-1v-1z" fill="rgb(172,123,90)"/>
<path d="M41 65h1v1h-1v-1z" fill="rgb(123,123,131)"/>
<path d="M42 65h1v1h-1v-1z" fill="rgb(255,255,255)"/>
<path d="M43 65h1v1h-1v-1z" fill="rgb(213,213,222)"/>
<path d="M45 65h1v1h-1v-1z" fill="rgb(246,156,238)"/>
<path d="M46 65h1v1h-1v-1z" fill="rgb(123,49,32)"/>
<path d="M48 65h1v1h1v1h-2v-2z" fill="rgb(246,156,238)"/>
<path d="M49 65h1v1h-1v-1z" fill="rgb(131,82,49)"/>
<path d="M50 65h1v4h-1v-4z" fill="rgb(16,16,16)"/>
<path d="M20 66h1v1h-1v-1z" fill="rgb(123,123,131)"/>
<path d="M21 66h1v1h-1v-1z" fill="rgb(213,213,222)"/>
<path d="M24 66h1v1h-1v-1z" fill="rgb(123,123,131)"/>
<path d="M25 66h1v1h-1v-1z" fill="rgb(222,115,205)"/>
<path d="M26 66h3v1h-3v-1z" fill="rgb(123,49,32)"/>
<path d="M32 66h1v1h-1v-1z" fill="rgb(123,49,32)"/>
<path d="M37 66h1v1h-1v-1z" fill="rgb(230,189,90)"/>
<path d="M41 66h1v1h-1v-1z" fill="rgb(16,16,16)"/>
<path d="M42 66h1v1h-1v-1z" fill="rgb(213,213,222)"/>
<path d="M43 66h2v1h-2v-1z" fill="rgb(16,16,16)"/>
<path d="M45 66h2v1h3v2h-1v3h-1v-3h-1v-1h-1v-1h-1v-1z" fill="rgb(222,115,205)"/>
<path d="M47 66h1v1h-1v-1z" fill="rgb(123,49,32)"/>
<path d="M19 67h1v1h-1v-1z" fill="rgb(123,123,131)"/>
<path d="M20 67h3v1h-2v1h-1v-2z" fill="rgb(255,255,255)"/>
<path d="M23 67h1v1h-1v-1z" fill="rgb(123,49,32)"/>
<path d="M24 67h1v1h1v1h-2v1h-1v-2h1v-1z" fill="rgb(255,255,255)"/>
<path d="M25 67h1v1h-1v-1z" fill="rgb(123,123,131)"/>
<path d="M26 67h3v1h3v-1h2v1h1v1h-3v1h-1v2h-1v1h-1v-3h-1v-1h-1v-1h-1v-1z" fill="rgb(222,115,205)"/>
<path d="M29 67h3v1h-3v-1z" fill="rgb(123,49,32)"/>
<path d="M34 67h1v1h-1v-1z" fill="rgb(131,82,49)"/>
<path d="M38 67h1v1h-1v-1z" fill="rgb(131,82,49)"/>
<path d="M42 67h1v1h-1v-1z" fill="rgb(16,16,16)"/>
<path d="M43 67h1v1h1v1h1v1h-3v-3z" fill="rgb(230,189,90)"/>
<path d="M44 67h1v1h-1v-1z" fill="rgb(255,230,139)"/>
<path d="M45 67h1v1h1v2h-1v-1h-1v-2z" fill="rgb(16,16,16)"/>
<path d="M53 67h1v2h-1v-2z" fill="rgb(16,16,16)"/>
<path d="M54 67h1v1h1v2h1v2h1v2h1v2h-1v1h-1v-2h-1v-3h-1v-2h-1v-3z" fill="rgb(197,49,41)"/>
<path d="M55 67h1v1h-1v-1z" fill="rgb(123,49,32)"/>
<path d="M19 68h1v1h-1v-1z" fill="rgb(16,16,16)"/>
<path d="M21 68h2v2h1v1h-2v-2h-1v-1z" fill="rgb(16,16,16)"/>
<path d="M26 68h1v1h-1v-1z" fill="rgb(123,123,131)"/>
<path d="M35 68h4v2h-3v-1h-1v-1z" fill="rgb(230,189,90)"/>
<path d="M39 68h1v1h-1v-1z" fill="rgb(131,82,49)"/>
<path d="M40 68h2v1h-2v-1z" fill="rgb(230,189,90)"/>
<path d="M42 68h1v1h-1v-1z" fill="rgb(255,230,139)"/>
<path d="M56 68h1v2h-1v-2z" fill="rgb(123,49,32)"/>
<path d="M20 69h1v1h-1v-1z" fill="rgb(16,16,16)"/>
<path d="M24 69h3v1h-3v-1z" fill="rgb(16,16,16)"/>
<path d="M27 69h1v1h-1v-1z" fill="rgb(123,49,32)"/>
<path d="M32 69h4v1h-4v-1z" fill="rgb(16,16,16)"/>
<path d="M39 69h1v1h-1v-1z" fill="rgb(16,16,16)"/>
<path d="M40 69h1v1h-1v-1z" fill="rgb(131,82,49)"/>
<path d="M41 69h1v1h-1v-1z" fill="rgb(65,41,32)"/>
<path d="M42 69h1v1h-1v-1z" fill="rgb(16,16,16)"/>
<path d="M47 69h1v2h-2v-1h1v-1z" fill="rgb(246,156,238)"/>
<path d="M49 69h1v2h1v1h-1v1h-2v-1h1v-3z" fill="rgb(16,16,16)"/>
<path d="M50 69h1v2h-1v-2z" fill="rgb(230,189,90)"/>
<path d="M52 69h1v1h-1v-1z" fill="rgb(16,16,16)"/>
<path d="M53 69h1v1h-1v-1z" fill="rgb(123,49,32)"/>
<path d="M28 70h1v2h-1v-2z" fill="rgb(123,49,32)"/>
<path d="M31 70h1v3h-1v-3z" fill="rgb(16,16,16)"/>
<path d="M36 70h3v1h-3v-1z" fill="rgb(16,16,16)"/>
<path d="M43 70h2v2h-1v-1h-1v-1z" fill="rgb(16,16,16)"/>
<path d="M45 70h1v1h-1v-1z" fill="rgb(123,123,131)"/>
<path d="M51 70h1v1h-1v-1z" fill="rgb(16,16,16)"/>
<path d="M52 70h2v2h1v3h1v2h-1v1h-2v-6h-1v-2z" fill="rgb(230,189,90)"/>
<path d="M54 70h1v2h-1v-2z" fill="rgb(123,49,32)"/>
<path d="M57 70h1v2h-1v-2z" fill="rgb(123,49,32)"/>
<path d="M45 71h2v1h-2v-1z" fill="rgb(255,255,255)"/>
<path d="M47 71h1v2h-2v-1h1v-1z" fill="rgb(213,213,222)"/>
<path d="M51 71h1v1h-1v-1z" fill="rgb(123,49,32)"/>
<path d="M27 72h1v1h-1v-1z" fill="rgb(123,123,131)"/>
<path d="M28 72h1v1h-1v-1z" fill="rgb(255,255,255)"/>
<path d="M30 72h1v1h-1v-1z" fill="rgb(131,82,49)"/>
<path d="M45 72h1v1h-1v-1z" fill="rgb(16,16,16)"/>
<path d="M50 72h2v6h1v1h-1v1h-1v-2h-1v1h-2v-2h1v-2h1v-3z" fill="rgb(197,49,41)"/>
<path d="M52 72h1v6h-1v-6z" fill="rgb(123,49,32)"/>
<path d="M55 72h1v3h-1v-3z" fill="rgb(123,49,32)"/>
<path d="M58 72h1v2h-1v-2z" fill="rgb(123,49,32)"/>
<path d="M26 73h1v1h-1v-1z" fill="rgb(16,16,16)"/>
<path d="M27 73h1v1h-1v-1z" fill="rgb(255,255,255)"/>
<path d="M28 73h1v1h-1v-1z" fill="rgb(213,213,222)"/>
<path d="M29 73h2v1h-2v-1z" fill="rgb(16,16,16)"/>
<path d="M44 73h1v1h-1v-1z" fill="rgb(123,49,32)"/>
<path d="M45 73h1v1h1v1h-1v1h-1v2h-1v-1h-1v-1h1v-2h1v-1z" fill="rgb(197,49,41)"/>
<path d="M46 73h2v1h-2v-1z" fill="rgb(16,16,16)"/>
<path d="M48 73h1v1h-1v-1z" fill="rgb(123,49,32)"/>
<path d="M49 73h1v2h-1v2h-1v2h-1v-1h-2v-1h1v-1h1v-2h2v-1z" fill="rgb(230,189,90)"/>
<path d="M27 74h2v1h-2v-1z" fill="rgb(16,16,16)"/>
<path d="M43 74h1v2h-1v-2z" fill="rgb(123,49,32)"/>
<path d="M59 74h1v3h-1v-3z" fill="rgb(123,49,32)"/>
<path d="M46 75h1v1h-1v-1z" fill="rgb(123,49,32)"/>
<path d="M56 75h1v2h-1v-2z" fill="rgb(65,41,32)"/>
<path d="M42 76h1v1h-1v-1z" fill="rgb(123,49,32)"/>
<path d="M45 76h1v1h-1v-1z" fill="rgb(65,41,32)"/>
<path d="M58 76h1v2h1v3h-1v-1h-1v1h-1v-4h1v-1z" fill="rgb(238,98,65)"/>
<path d="M41 77h1v1h-1v-1z" fill="rgb(123,49,32)"/>
<path d="M42 77h2v2h-1v1h-2v1h-1v-2h1v-1h1v-1z" fill="rgb(238,98,65)"/>
<path d="M55 77h1v5h-1v-1h-1v2h-1v-2h-1v-2h1v-1h2v-1z" fill="rgb(255,230,139)"/>
<path d="M56 77h1v3h-1v-3z" fill="rgb(131,82,49)"/>
<path d="M59 77h1v1h-1v-1z" fill="rgb(197,49,41)"/>
<path d="M60 77h1v5h-2v-1h1v-4z" fill="rgb(123,49,32)"/>
<path d="M40 78h1v1h-1v-1z" fill="rgb(197,49,41)"/>
<path d="M44 78h1v1h-1v-1z" fill="rgb(230,189,90)"/>
<path d="M45 78h2v2h-1v2h-1v-1h-1v1h-1v-2h1v-1h1v-1z" fill="rgb(255,230,139)"/>
<path d="M50 78h1v6h-1v-1h-1v1h-1v-1h-1v-2h1v-2h2v-1z" fill="rgb(238,98,65)"/>
<path d="M39 79h1v1h-1v-1z" fill="rgb(197,49,41)"/>
<path d="M43 79h1v1h-1v-1z" fill="rgb(197,49,41)"/>
<path d="M47 79h1v2h-1v-2z" fill="rgb(197,49,41)"/>
<path d="M39 80h1v1h-1v-1z" fill="rgb(123,49,32)"/>
<path d="M41 80h1v1h-1v-1z" fill="rgb(123,49,32)"/>
<path d="M42 80h1v1h-1v-1z" fill="rgb(65,41,32)"/>
<path d="M46 80h1v1h-1v-1z" fill="rgb(230,189,90)"/>
<path d="M51 80h1v4h-1v-4z" fill="rgb(123,49,32)"/>
<path d="M56 80h1v2h-1v-2z" fill="rgb(65,41,32)"/>
<path d="M58 80h1v1h-1v-1z" fill="rgb(123,49,32)"/>
<path d="M40 81h1v1h-1v-1z" fill="rgb(123,49,32)"/>
<path d="M42 81h1v1h-1v-1z" fill="rgb(131,82,49)"/>
<path d="M44 81h1v1h-1v-1z" fill="rgb(131,82,49)"/>
<path d="M46 81h1v1h-1v-1z" fill="rgb(123,49,32)"/>
<path d="M52 81h1v1h-1v-1z" fill="rgb(230,189,90)"/>
<path d="M54 81h1v1h1v1h-2v-2z" fill="rgb(131,82,49)"/>
<path d="M57 81h1v1h-1v-1z" fill="rgb(123,49,32)"/>
<path d="M43 82h1v1h-1v-1z" fill="rgb(131,82,49)"/>
<path d="M45 82h1v1h-1v-1z" fill="rgb(131,82,49)"/>
<path d="M46 82h1v1h-1v-1z" fill="rgb(16,16,16)"/>
<path d="M52 82h1v1h-1v-1z" fill="rgb(131,82,49)"/>
<path d="M47 83h1v1h-1v-1z" fill="rgb(123,49,32)"/>
<path d="M49 83h1v1h-1v-1z" fill="rgb(123,49,32)"/>
<path d="M53 83h1v1h-1v-1z" fill="rgb(131,82,49)"/>
<path d="M48 84h1v1h-1v-1z" fill="rgb(123,49,32)"/>
<path d="M50 84h1v1h-1v-1z" fill="rgb(123,49,32)"/>
</svg>
