<?xml version="1.0" encoding="utf-8"?>
<!-- generated at drububu.com  -->
<!DOCTYPE svg PUBLIC "-//W3C//DTD SVG 1.1//EN" "http://www.w3.org/Graphics/SVG/1.1/DTD/svg11.dtd">
<svg version="1.1" preserveAspectRatio="xMinYMin meet" xmlns="http://www.w3.org/2000/svg" xmlns:xlink="http://www.w3.org/1999/xlink" x="0px" y="0px" width="96px" height="96px" viewBox="0 0 96 96">
<path d="M0 0h96v96h-96v-96z" fill="transparent"/>
<path d="M32 14h6v1h-6v-1z" fill="rgb(115,82,74)"/>
<path d="M29 15h3v1h-3v-1z" fill="rgb(115,82,74)"/>
<path d="M32 15h6v1h4v1h-6v1h-3v1h-1v1h-1v1h-1v3h-2v-2h-1v2h-1v-6h1v-1h2v-1h3v-1z" fill="rgb(255,230,139)"/>
<path d="M38 15h3v1h-3v-1z" fill="rgb(16,16,16)"/>
<path d="M41 15h1v1h-1v-1z" fill="rgb(115,82,74)"/>
<path d="M27 16h2v1h-2v-1z" fill="rgb(115,82,74)"/>
<path d="M42 16h2v1h-2v-1z" fill="rgb(16,16,16)"/>
<path d="M26 17h1v1h-1v-1z" fill="rgb(115,82,74)"/>
<path d="M36 17h1v1h-1v-1z" fill="rgb(230,180,98)"/>
<path d="M37 17h4v1h5v1h-4v1h-3v1h-2v1h-2v1h-2v1h-1v1h-2v-4h1v-1h1v-1h2v-1h3v-1z" fill="rgb(238,98,65)"/>
<path d="M41 17h1v1h-1v-1z" fill="rgb(230,180,98)"/>
<path d="M42 17h2v1h-2v-1z" fill="rgb(255,230,139)"/>
<path d="M44 17h2v1h-2v-1z" fill="rgb(16,16,16)"/>
<path d="M24 18h2v1h-2v-1z" fill="rgb(139,57,32)"/>
<path d="M33 18h1v1h-1v-1z" fill="rgb(230,180,98)"/>
<path d="M46 18h2v1h-2v-1z" fill="rgb(16,16,16)"/>
<path d="M23 19h1v1h-1v-1z" fill="rgb(139,57,32)"/>
<path d="M24 19h2v1h-1v4h-1v-2h-1v-2h1v-1z" fill="rgb(238,98,65)"/>
<path d="M42 19h4v1h-4v-1z" fill="rgb(139,57,32)"/>
<path d="M46 19h2v1h-2v-1z" fill="rgb(238,98,65)"/>
<path d="M48 19h1v1h-1v-1z" fill="rgb(16,16,16)"/>
<path d="M22 20h1v2h-1v-2z" fill="rgb(139,57,32)"/>
<path d="M25 20h1v4h-1v-4z" fill="rgb(230,180,98)"/>
<path d="M39 20h3v1h-3v-1z" fill="rgb(139,57,32)"/>
<path d="M42 20h4v1h4v1h1v1h1v1h1v1h1v2h1v1h1v2h1v3h1v3h1v3h1v2h1v2h1v2h1v1h1v1h1v1h1v1
	h2v1h3v1h-5v-1h-2v-1h-1v-1h-1v-1h-1v-1h-1v-1h-1v-1h-1v-2h-1v-2h-1v-3h-1v-2h-1
	v-2h-1v-2h-1v-2h-1v-1h-1v-1h-1v-1h-1v-1h-1v-1h-2v-1h-2v-1h-2v-1h1v-1z" fill="rgb(213,49,24)"/>
<path d="M46 20h2v1h-2v-1z" fill="rgb(139,57,32)"/>
<path d="M48 20h1v1h-1v-1z" fill="rgb(238,98,65)"/>
<path d="M49 20h1v1h-1v-1z" fill="rgb(16,16,16)"/>
<path d="M37 21h2v2h-1v-1h-1v-1z" fill="rgb(16,16,16)"/>
<path d="M39 21h2v1h2v1h2v1h2v1h1v1h1v1h1v1h1v1h1v2h1v2h1v2h1v2h1v3h1v2h-1v-1h-1v-1h-1
	v-1h-1v-2h-1v-4h-1v-1h-1v-1h-1v-2h-1v-1h-1v-1h-1v-1h-1v-1h-2v-1h-2v-1h-2v-2z" fill="rgb(230,180,98)"/>
<path d="M50 21h1v1h-1v-1z" fill="rgb(16,16,16)"/>
<path d="M23 22h1v1h-1v-1z" fill="rgb(139,57,32)"/>
<path d="M27 22h1v1h-1v-1z" fill="rgb(230,180,98)"/>
<path d="M35 22h2v1h-2v-1z" fill="rgb(16,16,16)"/>
<path d="M37 22h1v1h1v1h-2v1h-1v-1h-1v-1h2v-1z" fill="rgb(115,82,74)"/>
<path d="M51 22h1v1h-1v-1z" fill="rgb(16,16,16)"/>
<path d="M23 23h1v2h-1v-2z" fill="rgb(16,16,16)"/>
<path d="M27 23h1v3h-1v-3z" fill="rgb(172,123,90)"/>
<path d="M33 23h2v1h1v2h1v1h1v1h1v3h-1v1h-1v1h-1v1h-2v-1h1v-1h1v-2h-1v-1h-1v-1h-1v-3h-1
	v-1h1v-1z" fill="rgb(16,16,16)"/>
<path d="M39 23h1v2h-1v-2z" fill="rgb(16,16,16)"/>
<path d="M40 23h1v1h2v1h2v1h1v1h1v1h1v1h1v2h1v1h1v1h1v4h-1v-1h-1v-1h-1v-2h-1v-2h-1v-1h-1
	v-1h-1v-1h-1v-1h-2v-1h-1v-1h-1v-2z" fill="rgb(213,49,24)"/>
<path d="M52 23h1v1h-1v-1z" fill="rgb(16,16,16)"/>
<path d="M24 24h2v2h-1v-1h-1v-1z" fill="rgb(213,49,24)"/>
<path d="M26 24h1v2h-1v-2z" fill="rgb(230,180,98)"/>
<path d="M28 24h1v2h-1v-2z" fill="rgb(230,180,98)"/>
<path d="M29 24h1v3h-2v-1h1v-2z" fill="rgb(213,49,24)"/>
<path d="M37 24h2v1h1v5h-1v-2h-1v-1h-1v-1h-1v-1h1v-1z" fill="rgb(172,123,90)"/>
<path d="M53 24h1v1h-1v-1z" fill="rgb(16,16,16)"/>
<path d="M24 25h1v1h-1v-1z" fill="rgb(139,57,32)"/>
<path d="M30 25h1v1h-1v-1z" fill="rgb(139,57,32)"/>
<path d="M31 25h1v1h-1v-1z" fill="rgb(16,16,16)"/>
<path d="M32 25h1v3h-2v-2h1v-1z" fill="rgb(255,255,255)"/>
<path d="M40 25h1v4h-1v-4z" fill="rgb(16,16,16)"/>
<path d="M54 25h1v2h-1v-2z" fill="rgb(16,16,16)"/>
<path d="M24 26h4v1h-4v-1z" fill="rgb(16,16,16)"/>
<path d="M30 26h1v2h-1v1h-1v-1h-1v-1h2v-1z" fill="rgb(16,16,16)"/>
<path d="M41 26h1v1h-1v-1z" fill="rgb(115,82,74)"/>
<path d="M23 27h1v1h-1v-1z" fill="rgb(16,16,16)"/>
<path d="M24 27h1v1h-1v-1z" fill="rgb(115,82,74)"/>
<path d="M25 27h2v1h1v2h-2v1h-1v1h-1v-1h-1v-3h2v-1z" fill="rgb(230,164,156)"/>
<path d="M27 27h1v1h-1v-1z" fill="rgb(115,82,74)"/>
<path d="M41 27h1v1h2v1h1v1h1v1h1v2h1v2h-2v-1h-2v-1h-1v-2h-1v-2h-1v-2z" fill="transparent"/>
<path d="M42 27h2v1h-2v-1z" fill="rgb(115,82,74)"/>
<path d="M55 27h1v1h-1v-1z" fill="rgb(16,16,16)"/>
<path d="M22 28h1v3h-1v-3z" fill="rgb(90,57,41)"/>
<path d="M28 28h1v1h1v1h-1v1h-1v-3z" fill="rgb(189,123,123)"/>
<path d="M30 28h2v1h-2v-1z" fill="rgb(90,57,41)"/>
<path d="M32 28h2v1h-2v-1z" fill="rgb(230,180,98)"/>
<path d="M44 28h1v1h-1v-1z" fill="rgb(139,57,32)"/>
<path d="M56 28h1v2h-1v-2z" fill="rgb(16,16,16)"/>
<path d="M30 29h2v1h-1v1h-1v-2z" fill="rgb(230,180,98)"/>
<path d="M32 29h3v1h1v2h-1v1h-1v2h1v4h-1v8h1v1h-1v1h-1v-1h-1v1h-1v1h-1v1h-1v-1h-1v1h-3
	v-1h-1v-1h-1v-8h1v-3h1v-2h1v-1h1v-1h1v-1h2v-2h1v-1h1v-1z" fill="rgb(255,230,139)"/>
<path d="M40 29h1v2h1v2h1v1h-4v1h-2v1h-2v-2h1v-1h1v-1h1v-1h1v-1h1v-1z" fill="rgb(115,82,74)"/>
<path d="M41 29h1v2h-1v-2z" fill="rgb(16,16,16)"/>
<path d="M45 29h1v1h-1v-1z" fill="rgb(139,57,32)"/>
<path d="M26 30h1v1h-1v-1z" fill="rgb(115,82,74)"/>
<path d="M27 30h1v1h-1v-1z" fill="rgb(16,16,16)"/>
<path d="M29 30h1v2h-1v-2z" fill="rgb(16,16,16)"/>
<path d="M46 30h1v1h-1v-1z" fill="rgb(139,57,32)"/>
<path d="M57 30h1v3h-1v-3z" fill="rgb(16,16,16)"/>
<path d="M23 31h1v1h-1v-1z" fill="rgb(90,57,41)"/>
<path d="M25 31h1v1h-1v-1z" fill="rgb(16,16,16)"/>
<path d="M26 31h2v2h-3v-1h1v-1z" fill="rgb(189,123,123)"/>
<path d="M28 31h1v1h-1v-1z" fill="rgb(115,82,74)"/>
<path d="M42 31h1v2h-1v-2z" fill="rgb(16,16,16)"/>
<path d="M47 31h1v2h-1v-2z" fill="rgb(139,57,32)"/>
<path d="M24 32h1v1h-1v-1z" fill="rgb(16,16,16)"/>
<path d="M28 32h1v1h-1v-1z" fill="rgb(16,16,16)"/>
<path d="M29 32h1v1h-1v-1z" fill="rgb(230,180,98)"/>
<path d="M25 33h3v1h-3v-1z" fill="rgb(16,16,16)"/>
<path d="M43 33h1v1h-1v-1z" fill="rgb(16,16,16)"/>
<path d="M48 33h1v2h1v1h-4v-1h2v-2z" fill="rgb(90,57,41)"/>
<path d="M58 33h1v3h-1v-3z" fill="rgb(16,16,16)"/>
<path d="M25 34h1v2h-1v-2z" fill="rgb(90,57,41)"/>
<path d="M26 34h1v1h-1v-1z" fill="rgb(230,180,98)"/>
<path d="M34 34h1v1h-1v-1z" fill="rgb(230,180,98)"/>
<path d="M39 34h3v1h-3v-1z" fill="rgb(16,16,16)"/>
<path d="M42 34h4v1h-4v-1z" fill="rgb(90,57,41)"/>
<path d="M37 35h2v1h-2v-1z" fill="rgb(16,16,16)"/>
<path d="M39 35h7v1h3v1h2v1h1v1h1v1h1v1h1v1h1v2h1v2h-2v-1h-1v-1h-1v-1h-1v-1h-1v-1h-1v1h1
	v1h1v2h1v2h1v4h-1v1h-2v-1h-1v-1h-1v-1h-1v-1h-1v1h1v1h1v1h1v2h-1v1h-2v-1h-1v-1
	h-2v-1h-2v-1h-1v-1h-1v-1h-1v-1h-1v-1h-1v-2h-1v-2h-1v-3h1v-2h1v-1h2v-1z" fill="rgb(172,123,90)"/>
<path d="M24 36h1v2h-1v2h-1v-1h-1v-1h1v-1h1v-1z" fill="rgb(90,57,41)"/>
<path d="M35 36h1v1h-1v-1z" fill="rgb(230,180,98)"/>
<path d="M36 36h1v1h-1v-1z" fill="rgb(16,16,16)"/>
<path d="M49 36h2v1h-2v-1z" fill="rgb(16,16,16)"/>
<path d="M59 36h1v3h-1v-3z" fill="rgb(16,16,16)"/>
<path d="M35 37h1v1h-1v-1z" fill="rgb(90,57,41)"/>
<path d="M51 37h1v1h-1v-1z" fill="rgb(16,16,16)"/>
<path d="M52 37h1v1h-1v-1z" fill="rgb(213,49,24)"/>
<path d="M35 38h1v1h-1v-1z" fill="rgb(16,16,16)"/>
<path d="M52 38h1v1h-1v-1z" fill="rgb(16,16,16)"/>
<path d="M21 39h1v1h1v10h-1v-9h-1v-2z" fill="rgb(90,57,41)"/>
<path d="M22 39h1v1h-1v-1z" fill="rgb(115,82,74)"/>
<path d="M34 39h1v1h-1v-1z" fill="rgb(90,57,41)"/>
<path d="M53 39h1v1h-1v-1z" fill="rgb(16,16,16)"/>
<path d="M60 39h1v2h-1v-2z" fill="rgb(16,16,16)"/>
<path d="M23 40h1v1h-1v-1z" fill="rgb(230,180,98)"/>
<path d="M34 40h1v3h-1v-3z" fill="rgb(16,16,16)"/>
<path d="M54 40h1v1h-1v-1z" fill="rgb(16,16,16)"/>
<path d="M20 41h1v3h-1v-3z" fill="rgb(90,57,41)"/>
<path d="M21 41h1v9h1v3h-1v1h-1v-3h-1v-7h1v-3z" fill="rgb(115,82,74)"/>
<path d="M50 41h1v1h-1v-1z" fill="rgb(115,82,74)"/>
<path d="M55 41h1v1h-1v-1z" fill="rgb(16,16,16)"/>
<path d="M61 41h1v2h-1v-2z" fill="rgb(16,16,16)"/>
<path d="M35 42h1v2h1v2h1v1h1v1h1v1h1v1h1v1h2v3h1v3h-3v-1h-2v-1h-1v-1h-1v-2h-1v-2h-1v-3
	h-1v-5z" fill="rgb(115,82,74)"/>
<path d="M51 42h1v1h-1v-1z" fill="rgb(115,82,74)"/>
<path d="M56 42h1v2h-1v-2z" fill="rgb(16,16,16)"/>
<path d="M57 42h1v2h-1v-2z" fill="rgb(230,180,98)"/>
<path d="M34 43h1v4h-1v-4z" fill="rgb(90,57,41)"/>
<path d="M52 43h1v1h-1v-1z" fill="rgb(90,57,41)"/>
<path d="M62 43h1v2h-1v-2z" fill="rgb(16,16,16)"/>
<path d="M19 44h1v4h-1v-4z" fill="rgb(90,57,41)"/>
<path d="M52 44h1v1h-1v-1z" fill="rgb(115,82,74)"/>
<path d="M53 44h1v1h-1v-1z" fill="rgb(90,57,41)"/>
<path d="M57 44h1v2h-1v-2z" fill="rgb(16,16,16)"/>
<path d="M58 44h1v1h1v1h1v1h1v1h1v1h1v1h2v1h2v1h3v1h1v2h1v2h-1v-1h-1v-1h-2v-1h-3v-1h-2
	v-2h-2v-1h-1v-2h-1v-1h-1v-1h-1v-2z" fill="rgb(230,180,98)"/>
<path d="M53 45h1v2h-1v-2z" fill="rgb(115,82,74)"/>
<path d="M54 45h1v1h-1v-1z" fill="rgb(90,57,41)"/>
<path d="M63 45h1v1h-1v-1z" fill="rgb(16,16,16)"/>
<path d="M54 46h1v1h-1v-1z" fill="rgb(255,230,139)"/>
<path d="M55 46h2v1h-2v-1z" fill="rgb(90,57,41)"/>
<path d="M57 46h1v1h1v2h1v2h1v1h-1v1h-1v1h-2v-1h-1v-1h-1v-5h2v-1z" fill="rgb(255,230,139)"/>
<path d="M58 46h1v1h-1v-1z" fill="rgb(16,16,16)"/>
<path d="M64 46h1v1h-1v-1z" fill="rgb(16,16,16)"/>
<path d="M35 47h1v1h-1v-1z" fill="rgb(90,57,41)"/>
<path d="M54 47h1v4h-1v-4z" fill="rgb(115,82,74)"/>
<path d="M59 47h1v1h-1v-1z" fill="rgb(16,16,16)"/>
<path d="M65 47h1v1h-1v-1z" fill="rgb(16,16,16)"/>
<path d="M19 48h1v3h-1v-3z" fill="rgb(16,16,16)"/>
<path d="M32 48h1v1h-1v-1z" fill="rgb(230,180,98)"/>
<path d="M34 48h1v1h-1v-1z" fill="rgb(230,180,98)"/>
<path d="M35 48h1v2h-1v-2z" fill="rgb(16,16,16)"/>
<path d="M47 48h1v1h-1v-1z" fill="rgb(115,82,74)"/>
<path d="M59 48h1v1h-1v-1z" fill="rgb(230,180,98)"/>
<path d="M60 48h1v2h-1v-2z" fill="rgb(16,16,16)"/>
<path d="M66 48h2v1h-2v-1z" fill="rgb(16,16,16)"/>
<path d="M23 49h1v1h-1v-1z" fill="rgb(230,180,98)"/>
<path d="M31 49h1v1h-1v-1z" fill="rgb(230,180,98)"/>
<path d="M32 49h1v1h-1v-1z" fill="rgb(255,230,139)"/>
<path d="M33 49h1v1h-1v-1z" fill="rgb(230,180,98)"/>
<path d="M34 49h1v1h-1v-1z" fill="rgb(255,230,139)"/>
<path d="M48 49h1v1h-1v-1z" fill="rgb(115,82,74)"/>
<path d="M68 49h3v1h-3v-1z" fill="rgb(16,16,16)"/>
<path d="M23 50h1v2h-1v-2z" fill="rgb(16,16,16)"/>
<path d="M24 50h1v1h3v1h1v-1h1v1h1v-1h1v-1h1v1h1v-1h2v2h1v2h1v1h1v1h1v1h2v1h1v1h1v1h1v1
	h1v1h1v1h1v1h2v1h-1v2h-1v1h-2v1h-2v-1h-2v-2h-1v-2h-1v-2h-1v2h1v1h-2v-1h-2v-1h-1
	v1h1v1h2v1h-1v1h-3v-1h-2v-2h-1v-1h-1v-1h-1v-1h-1v-2h-1v-2h-1v-2h-1v-2h-1v-3z" fill="rgb(230,180,98)"/>
<path d="M28 50h1v1h-1v-1z" fill="rgb(230,180,98)"/>
<path d="M30 50h1v1h-1v-1z" fill="rgb(230,180,98)"/>
<path d="M31 50h1v1h-1v-1z" fill="rgb(255,230,139)"/>
<path d="M33 50h1v1h-1v-1z" fill="rgb(255,230,139)"/>
<path d="M36 50h1v2h-1v-2z" fill="rgb(16,16,16)"/>
<path d="M49 50h1v1h-1v-1z" fill="rgb(90,57,41)"/>
<path d="M60 50h1v1h-1v-1z" fill="rgb(230,180,98)"/>
<path d="M61 50h1v2h-1v-2z" fill="rgb(16,16,16)"/>
<path d="M71 50h2v1h-2v-1z" fill="rgb(16,16,16)"/>
<path d="M20 51h1v3h-1v-3z" fill="rgb(16,16,16)"/>
<path d="M28 51h1v1h-1v-1z" fill="rgb(255,230,139)"/>
<path d="M30 51h1v1h-1v-1z" fill="rgb(255,230,139)"/>
<path d="M50 51h1v1h2v1h-3v-2z" fill="rgb(90,57,41)"/>
<path d="M53 51h1v1h-1v-1z" fill="rgb(90,57,41)"/>
<path d="M54 51h1v1h1v1h1v1h2v-1h1v-1h2v2h1v2h1v2h1v2h-1v-1h-1v-2h-1v-1h-1v-1h-1v1h1v1h1
	v2h1v1h1v1h1v1h1v2h1v2h1v3h-1v-1h-1v-1h-1v-1h-1v-1h-1v-2h-1v-1h-1v-1h-1v-2h-1
	v-1h-1v-1h-1v-1h-1v-1h-1v1h1v1h1v1h1v1h1v2h1v1h1v1h1v2h1v1h1v1h1v1h1v1h1v1h1v2
	h-2v-1h-2v-1h-1v-1h-1v-1h-1v-1h-1v-1h-1v-1h-1v-1h-2v-1h-1v-1h-1v-1h-1v-1h-1v1h1
	v1h1v1h1v1h1v1h2v1h1v1h1v1h1v1h1v1h1v1h-3v-1h-2v-1h-2v-1h-1v-1h-1v-1h-2v-1h-1
	v-1h-1v-1h-2v-1h-1v-1h-1v-1h-1v-1h-1v-1h1v-1h1v-3h1v1h2v-1h1v-1h3v-1h1v-1z" fill="rgb(230,180,98)"/>
<path d="M62 51h2v2h2v1h2v1h1v2h-1v-1h-1v-1h-2v-1h-2v-2h-1v-1z" fill="rgb(213,49,24)"/>
<path d="M68 51h3v1h-3v-1z" fill="rgb(16,16,16)"/>
<path d="M23 52h1v1h-1v-1z" fill="rgb(90,57,41)"/>
<path d="M37 52h1v2h-1v-2z" fill="rgb(16,16,16)"/>
<path d="M44 52h1v1h2v1h-1v3h-1v-3h-1v-2z" fill="rgb(90,57,41)"/>
<path d="M45 52h1v1h-1v-1z" fill="rgb(115,82,74)"/>
<path d="M62 52h1v2h-1v-2z" fill="rgb(16,16,16)"/>
<path d="M71 52h1v1h-1v-1z" fill="rgb(16,16,16)"/>
<path d="M22 53h1v1h1v1h1v2h1v2h-1v-1h-1v-1h-1v-2h-1v-2z" fill="rgb(230,180,98)"/>
<path d="M23 53h1v1h-1v-1z" fill="rgb(115,82,74)"/>
<path d="M24 53h1v1h-1v-1z" fill="rgb(16,16,16)"/>
<path d="M49 53h1v1h-1v-1z" fill="rgb(90,57,41)"/>
<path d="M72 53h1v2h-1v-2z" fill="rgb(16,16,16)"/>
<path d="M21 54h1v2h-1v-2z" fill="rgb(16,16,16)"/>
<path d="M24 54h1v1h-1v-1z" fill="rgb(115,82,74)"/>
<path d="M38 54h1v1h-1v-1z" fill="rgb(16,16,16)"/>
<path d="M47 54h2v1h-2v-1z" fill="rgb(90,57,41)"/>
<path d="M63 54h1v2h-1v-2z" fill="rgb(16,16,16)"/>
<path d="M64 54h1v1h-1v-1z" fill="rgb(90,57,41)"/>
<path d="M68 54h1v1h-1v-1z" fill="rgb(16,16,16)"/>
<path d="M22 55h1v1h-1v-1z" fill="rgb(115,82,74)"/>
<path d="M25 55h1v1h-1v-1z" fill="rgb(16,16,16)"/>
<path d="M39 55h1v1h-1v-1z" fill="rgb(16,16,16)"/>
<path d="M55 55h1v1h-1v-1z" fill="rgb(115,82,74)"/>
<path d="M60 55h1v1h-1v-1z" fill="rgb(115,82,74)"/>
<path d="M64 55h1v1h-1v-1z" fill="transparent"/>
<path d="M65 55h2v1h-2v-1z" fill="rgb(16,16,16)"/>
<path d="M69 55h1v4h-1v-1h-1v-1h1v-2z" fill="rgb(16,16,16)"/>
<path d="M70 55h1v1h-1v-1z" fill="rgb(115,82,74)"/>
<path d="M73 55h1v4h-1v-1h-1v-1h1v-2z" fill="rgb(16,16,16)"/>
<path d="M22 56h1v1h-1v-1z" fill="rgb(16,16,16)"/>
<path d="M25 56h1v1h-1v-1z" fill="rgb(115,82,74)"/>
<path d="M40 56h2v1h-2v-1z" fill="rgb(16,16,16)"/>
<path d="M56 56h1v1h-1v-1z" fill="rgb(115,82,74)"/>
<path d="M61 56h1v1h-1v-1z" fill="rgb(115,82,74)"/>
<path d="M64 56h1v2h-1v-2z" fill="rgb(16,16,16)"/>
<path d="M67 56h1v1h-1v-1z" fill="rgb(16,16,16)"/>
<path d="M71 56h1v1h-1v-1z" fill="rgb(115,82,74)"/>
<path d="M23 57h1v1h-1v-1z" fill="rgb(16,16,16)"/>
<path d="M26 57h1v2h-1v-2z" fill="rgb(16,16,16)"/>
<path d="M42 57h3v1h-1v1h-1v-1h-1v-1z" fill="rgb(16,16,16)"/>
<path d="M57 57h1v1h-1v-1z" fill="rgb(115,82,74)"/>
<path d="M62 57h1v2h-1v-2z" fill="rgb(115,82,74)"/>
<path d="M24 58h1v1h-1v-1z" fill="rgb(16,16,16)"/>
<path d="M58 58h1v1h-1v-1z" fill="rgb(115,82,74)"/>
<path d="M65 58h1v2h-1v-2z" fill="rgb(16,16,16)"/>
<path d="M25 59h1v1h-1v-1z" fill="rgb(16,16,16)"/>
<path d="M26 59h1v1h-1v-1z" fill="rgb(230,180,98)"/>
<path d="M27 59h1v1h-1v-1z" fill="rgb(16,16,16)"/>
<path d="M44 59h1v1h-1v-1z" fill="rgb(16,16,16)"/>
<path d="M59 59h1v2h-1v-2z" fill="rgb(115,82,74)"/>
<path d="M63 59h1v1h-1v-1z" fill="rgb(115,82,74)"/>
<path d="M26 60h1v1h-1v-1z" fill="rgb(16,16,16)"/>
<path d="M27 60h1v1h-1v-1z" fill="rgb(115,82,74)"/>
<path d="M45 60h1v1h-1v-1z" fill="rgb(16,16,16)"/>
<path d="M52 60h1v1h-1v-1z" fill="rgb(115,82,74)"/>
<path d="M64 60h2v1h-2v-1z" fill="rgb(115,82,74)"/>
<path d="M28 61h1v1h-1v-1z" fill="rgb(16,16,16)"/>
<path d="M46 61h1v1h-1v-1z" fill="rgb(16,16,16)"/>
<path d="M53 61h1v1h-1v-1z" fill="rgb(115,82,74)"/>
<path d="M60 61h1v1h-1v-1z" fill="rgb(115,82,74)"/>
<path d="M65 61h1v1h-1v-1z" fill="rgb(16,16,16)"/>
<path d="M29 62h1v1h-1v-1z" fill="rgb(16,16,16)"/>
<path d="M39 62h1v1h-1v-1z" fill="rgb(115,82,74)"/>
<path d="M47 62h1v1h-1v-1z" fill="rgb(16,16,16)"/>
<path d="M54 62h1v1h-1v-1z" fill="rgb(115,82,74)"/>
<path d="M61 62h1v1h-1v-1z" fill="rgb(115,82,74)"/>
<path d="M66 62h1v2h-1v-2z" fill="rgb(16,16,16)"/>
<path d="M30 63h1v1h-1v-1z" fill="rgb(16,16,16)"/>
<path d="M35 63h1v1h-1v-1z" fill="rgb(115,82,74)"/>
<path d="M39 63h1v1h-1v-1z" fill="rgb(16,16,16)"/>
<path d="M48 63h2v1h-2v-1z" fill="rgb(16,16,16)"/>
<path d="M55 63h1v1h-1v-1z" fill="rgb(115,82,74)"/>
<path d="M62 63h1v2h-1v-2z" fill="rgb(115,82,74)"/>
<path d="M31 64h1v2h-1v-2z" fill="rgb(16,16,16)"/>
<path d="M36 64h2v1h-2v-1z" fill="rgb(115,82,74)"/>
<path d="M40 64h1v1h-1v-1z" fill="rgb(90,57,41)"/>
<path d="M50 64h1v1h-1v-1z" fill="rgb(16,16,16)"/>
<path d="M56 64h1v1h-1v-1z" fill="rgb(115,82,74)"/>
<path d="M57 64h1v1h-1v-1z" fill="rgb(16,16,16)"/>
<path d="M67 64h1v2h-1v-2z" fill="rgb(16,16,16)"/>
<path d="M38 65h3v1h-3v-1z" fill="rgb(16,16,16)"/>
<path d="M49 65h3v1h-3v-1z" fill="rgb(90,57,41)"/>
<path d="M58 65h1v1h-1v-1z" fill="rgb(115,82,74)"/>
<path d="M63 65h1v1h-1v-1z" fill="rgb(115,82,74)"/>
<path d="M32 66h1v1h-1v-1z" fill="rgb(16,16,16)"/>
<path d="M33 66h1v1h-1v-1z" fill="rgb(90,57,41)"/>
<path d="M37 66h1v1h-1v-1z" fill="rgb(115,82,74)"/>
<path d="M38 66h1v1h-1v-1z" fill="rgb(139,57,32)"/>
<path d="M39 66h2v2h-1v-1h-1v-1z" fill="rgb(213,49,24)"/>
<path d="M41 66h1v2h-1v-2z" fill="rgb(16,16,16)"/>
<path d="M49 66h1v1h-1v-1z" fill="rgb(16,16,16)"/>
<path d="M50 66h2v1h2v1h1v1h1v1h2v1h2v2h-3v-1h-1v-1h-1v-1h-2v-1h-1v-1h-2v-2z" fill="rgb(213,49,24)"/>
<path d="M52 66h2v1h-2v-1z" fill="rgb(16,16,16)"/>
<path d="M59 66h1v1h-1v-1z" fill="rgb(16,16,16)"/>
<path d="M64 66h1v1h-1v-1z" fill="rgb(115,82,74)"/>
<path d="M68 66h1v3h-1v-3z" fill="rgb(16,16,16)"/>
<path d="M33 67h1v1h-1v-1z" fill="rgb(16,16,16)"/>
<path d="M34 67h1v1h-1v-1z" fill="rgb(90,57,41)"/>
<path d="M35 67h2v2h-1v-1h-1v-1z" fill="rgb(16,16,16)"/>
<path d="M39 67h1v1h-1v-1z" fill="rgb(139,57,32)"/>
<path d="M48 67h1v1h-1v-1z" fill="rgb(90,57,41)"/>
<path d="M49 67h1v1h-1v-1z" fill="rgb(139,57,32)"/>
<path d="M54 67h1v1h-1v-1z" fill="rgb(16,16,16)"/>
<path d="M60 67h1v1h-1v-1z" fill="rgb(115,82,74)"/>
<path d="M65 67h1v1h-1v-1z" fill="rgb(115,82,74)"/>
<path d="M32 68h1v1h-1v-1z" fill="rgb(16,16,16)"/>
<path d="M33 68h3v1h-1v4h1v1h-2v1h-2v-1h-1v-2h-1v-1h2v-1h1v-2z" fill="rgb(189,123,123)"/>
<path d="M40 68h1v1h-1v-1z" fill="rgb(139,57,32)"/>
<path d="M41 68h1v1h-1v-1z" fill="rgb(213,49,24)"/>
<path d="M42 68h1v1h-1v-1z" fill="rgb(16,16,16)"/>
<path d="M43 68h1v1h-1v-1z" fill="rgb(90,57,41)"/>
<path d="M46 68h1v1h-1v-1z" fill="rgb(90,57,41)"/>
<path d="M47 68h1v1h-1v-1z" fill="rgb(16,16,16)"/>
<path d="M48 68h2v1h2v1h1v1h2v2h-4v-1h-1v-1h-1v-1h-1v-2z" fill="rgb(213,49,24)"/>
<path d="M50 68h2v1h-2v-1z" fill="rgb(139,57,32)"/>
<path d="M55 68h1v1h-1v-1z" fill="rgb(16,16,16)"/>
<path d="M61 68h1v1h-1v-1z" fill="rgb(16,16,16)"/>
<path d="M66 68h1v1h-1v-1z" fill="rgb(16,16,16)"/>
<path d="M32 69h1v1h-1v-1z" fill="rgb(90,57,41)"/>
<path d="M35 69h1v1h-1v-1z" fill="rgb(115,82,74)"/>
<path d="M41 69h1v2h-1v-2z" fill="rgb(139,57,32)"/>
<path d="M42 69h1v2h-1v-2z" fill="rgb(213,49,24)"/>
<path d="M43 69h1v4h-1v-4z" fill="rgb(16,16,16)"/>
<path d="M44 69h2v1h-2v-1z" fill="rgb(90,57,41)"/>
<path d="M46 69h1v1h-1v-1z" fill="rgb(16,16,16)"/>
<path d="M47 69h1v1h-1v-1z" fill="rgb(90,57,41)"/>
<path d="M52 69h1v1h-1v-1z" fill="rgb(139,57,32)"/>
<path d="M56 69h2v1h-2v-1z" fill="rgb(16,16,16)"/>
<path d="M62 69h1v1h-1v-1z" fill="rgb(16,16,16)"/>
<path d="M67 69h1v1h-1v-1z" fill="rgb(16,16,16)"/>
<path d="M30 70h1v1h-1v-1z" fill="rgb(16,16,16)"/>
<path d="M31 70h1v1h-1v-1z" fill="rgb(90,57,41)"/>
<path d="M35 70h1v2h-1v-2z" fill="rgb(16,16,16)"/>
<path d="M44 70h3v3h1v1h1v1h-3v2h-2v-1h-1v-2h1v-4z" fill="rgb(189,123,123)"/>
<path d="M47 70h1v3h-1v-3z" fill="rgb(16,16,16)"/>
<path d="M48 70h1v1h-1v-1z" fill="rgb(139,57,32)"/>
<path d="M53 70h2v1h-2v-1z" fill="rgb(139,57,32)"/>
<path d="M58 70h2v1h-2v-1z" fill="rgb(16,16,16)"/>
<path d="M63 70h1v1h-1v-1z" fill="rgb(16,16,16)"/>
<path d="M68 70h1v1h-1v-1z" fill="rgb(115,82,74)"/>
<path d="M24 71h3v1h-3v-1z" fill="rgb(115,82,74)"/>
<path d="M27 71h3v1h-3v-1z" fill="rgb(16,16,16)"/>
<path d="M36 71h1v1h-1v-1z" fill="rgb(115,82,74)"/>
<path d="M42 71h1v1h-1v-1z" fill="rgb(139,57,32)"/>
<path d="M48 71h1v1h1v1h-2v-2z" fill="rgb(213,49,24)"/>
<path d="M49 71h1v1h-1v-1z" fill="rgb(139,57,32)"/>
<path d="M55 71h1v1h1v1h-2v-2z" fill="rgb(139,57,32)"/>
<path d="M60 71h3v1h-3v-1z" fill="rgb(16,16,16)"/>
<path d="M64 71h2v1h-2v-1z" fill="rgb(115,82,74)"/>
<path d="M68 71h1v1h-1v-1z" fill="rgb(16,16,16)"/>
<path d="M23 72h1v1h-1v-1z" fill="rgb(115,82,74)"/>
<path d="M24 72h2v1h-2v-1z" fill="rgb(230,164,156)"/>
<path d="M26 72h1v1h-1v-1z" fill="rgb(172,123,90)"/>
<path d="M27 72h4v1h-2v1h-1v1h-1v-1h-1v-1h1v-1z" fill="rgb(230,164,156)"/>
<path d="M35 72h1v1h-1v-1z" fill="rgb(90,57,41)"/>
<path d="M36 72h1v2h-1v-2z" fill="rgb(197,180,197)"/>
<path d="M37 72h1v2h-1v-2z" fill="rgb(115,82,74)"/>
<path d="M50 72h1v1h-1v-1z" fill="rgb(139,57,32)"/>
<path d="M60 72h1v1h-1v-1z" fill="rgb(139,57,32)"/>
<path d="M66 72h2v1h-2v-1z" fill="rgb(115,82,74)"/>
<path d="M22 73h1v1h-1v-1z" fill="rgb(115,82,74)"/>
<path d="M23 73h1v1h-1v-1z" fill="rgb(255,255,255)"/>
<path d="M24 73h1v1h-1v-1z" fill="rgb(197,180,197)"/>
<path d="M25 73h1v1h-1v-1z" fill="rgb(90,57,41)"/>
<path d="M29 73h1v1h-1v-1z" fill="rgb(189,123,123)"/>
<path d="M30 73h1v1h-1v-1z" fill="rgb(115,82,74)"/>
<path d="M32 73h1v1h-1v-1z" fill="rgb(230,164,156)"/>
<path d="M43 73h1v1h-1v-1z" fill="rgb(115,82,74)"/>
<path d="M48 73h1v1h-1v-1z" fill="rgb(16,16,16)"/>
<path d="M49 73h1v1h-1v-1z" fill="rgb(139,57,32)"/>
<path d="M50 73h1v1h-1v-1z" fill="transparent"/>
<path d="M51 73h4v1h-4v-1z" fill="rgb(139,57,32)"/>
<path d="M57 73h3v1h-3v-1z" fill="rgb(139,57,32)"/>
<path d="M22 74h1v1h-1v-1z" fill="rgb(16,16,16)"/>
<path d="M23 74h1v1h-1v-1z" fill="rgb(197,180,197)"/>
<path d="M24 74h1v3h-1v-3z" fill="rgb(90,57,41)"/>
<path d="M25 74h2v2h-1v1h-1v-3z" fill="rgb(255,255,255)"/>
<path d="M28 74h1v1h-1v-1z" fill="rgb(90,57,41)"/>
<path d="M29 74h1v3h1v1h-2v-4z" fill="rgb(115,82,74)"/>
<path d="M30 74h2v2h-1v-1h-1v-1z" fill="rgb(230,164,156)"/>
<path d="M34 74h1v1h-1v-1z" fill="rgb(115,82,74)"/>
<path d="M35 74h3v1h-3v-1z" fill="rgb(16,16,16)"/>
<path d="M41 74h1v1h-1v-1z" fill="rgb(115,82,74)"/>
<path d="M42 74h1v1h-1v-1z" fill="rgb(16,16,16)"/>
<path d="M49 74h3v1h-3v-1z" fill="rgb(16,16,16)"/>
<path d="M23 75h1v1h-1v-1z" fill="rgb(16,16,16)"/>
<path d="M27 75h2v1h-2v-1z" fill="rgb(16,16,16)"/>
<path d="M30 75h1v1h1v2h-1v-1h-1v-2z" fill="rgb(255,255,255)"/>
<path d="M32 75h2v1h-1v2h-1v-3z" fill="rgb(16,16,16)"/>
<path d="M40 75h1v1h-1v-1z" fill="rgb(115,82,74)"/>
<path d="M41 75h2v1h1v1h-1v1h-1v-1h-2v-1h1v-1z" fill="rgb(230,164,156)"/>
<path d="M46 75h2v1h1v2h-2v-1h-1v-2z" fill="rgb(230,164,156)"/>
<path d="M48 75h1v1h-1v-1z" fill="rgb(90,57,41)"/>
<path d="M49 75h1v1h-1v-1z" fill="rgb(189,123,123)"/>
<path d="M50 75h2v2h-1v-1h-1v-1z" fill="rgb(230,164,156)"/>
<path d="M52 75h2v1h-2v-1z" fill="rgb(16,16,16)"/>
<path d="M26 76h1v2h-1v-2z" fill="rgb(16,16,16)"/>
<path d="M39 76h1v1h-1v-1z" fill="rgb(115,82,74)"/>
<path d="M49 76h1v2h-1v-2z" fill="rgb(90,57,41)"/>
<path d="M50 76h1v1h1v1h-2v-2z" fill="rgb(189,123,123)"/>
<path d="M52 76h2v3h-1v-1h-1v-2z" fill="rgb(255,255,255)"/>
<path d="M54 76h1v3h-1v-3z" fill="rgb(16,16,16)"/>
<path d="M25 77h1v1h-1v-1z" fill="rgb(90,57,41)"/>
<path d="M39 77h1v2h1v1h-2v-3z" fill="rgb(16,16,16)"/>
<path d="M40 77h2v2h-2v-2z" fill="rgb(255,255,255)"/>
<path d="M43 77h1v1h-1v-1z" fill="rgb(115,82,74)"/>
<path d="M44 77h1v1h-1v-1z" fill="rgb(16,16,16)"/>
<path d="M45 77h1v1h-1v-1z" fill="rgb(115,82,74)"/>
<path d="M46 77h1v2h-1v-2z" fill="rgb(189,123,123)"/>
<path d="M30 78h2v1h-2v-1z" fill="rgb(16,16,16)"/>
<path d="M42 78h1v1h-1v-1z" fill="rgb(16,16,16)"/>
<path d="M45 78h1v1h-1v-1z" fill="rgb(16,16,16)"/>
<path d="M47 78h2v2h-1v1h-1v-3z" fill="rgb(255,255,255)"/>
<path d="M49 78h1v2h-1v-2z" fill="rgb(16,16,16)"/>
<path d="M50 78h3v2h-1v-1h-2v-1z" fill="rgb(90,57,41)"/>
<path d="M41 79h1v1h-1v-1z" fill="rgb(115,82,74)"/>
<path d="M46 79h1v1h-1v-1z" fill="rgb(90,57,41)"/>
<path d="M53 79h1v1h-1v-1z" fill="rgb(16,16,16)"/>
<path d="M46 80h1v1h-1v-1z" fill="rgb(16,16,16)"/>
<path d="M48 80h1v1h-1v-1z" fill="rgb(90,57,41)"/>
<path d="M47 81h2v1h-2v-1z" fill="rgb(16,16,16)"/>
</svg>
