<?xml version="1.0" encoding="utf-8"?>
<!-- generated at drububu.com  -->
<!DOCTYPE svg PUBLIC "-//W3C//DTD SVG 1.1//EN" "http://www.w3.org/Graphics/SVG/1.1/DTD/svg11.dtd">
<svg version="1.1" preserveAspectRatio="xMinYMin meet" xmlns="http://www.w3.org/2000/svg" xmlns:xlink="http://www.w3.org/1999/xlink" x="0px" y="0px" width="96px" height="96px" viewBox="0 0 96 96">
<path d="M0 0h96v96h-96v-96z" fill="transparent"/>
<path d="M54 22h4v1h-4v-1z" fill="rgb(180,115,189)"/>
<path d="M53 23h1v1h-1v-1z" fill="rgb(180,115,189)"/>
<path d="M54 23h4v1h-2v1h2v1h-1v1h-3v-1h-1v-2h1v-1z" fill="rgb(213,156,213)"/>
<path d="M58 23h2v1h-2v-1z" fill="rgb(139,74,139)"/>
<path d="M52 24h1v2h-1v-2z" fill="rgb(180,115,189)"/>
<path d="M56 24h2v1h-2v-1z" fill="rgb(139,74,139)"/>
<path d="M58 24h2v1h1v2h1v2h1v7h-1v3h-1v-4h1v-4h-1v-2h-1v-3h-1v-1h-1v-1z" fill="rgb(180,115,189)"/>
<path d="M60 24h1v1h-1v-1z" fill="rgb(139,74,139)"/>
<path d="M58 25h1v1h-1v-1z" fill="rgb(139,74,139)"/>
<path d="M61 25h1v1h-1v-1z" fill="rgb(74,41,65)"/>
<path d="M53 26h1v1h-1v-1z" fill="rgb(139,74,139)"/>
<path d="M57 26h2v2h-3v-1h1v-1z" fill="rgb(180,115,189)"/>
<path d="M59 26h1v1h-1v-1z" fill="rgb(139,74,139)"/>
<path d="M61 26h1v1h-1v-1z" fill="rgb(139,74,139)"/>
<path d="M62 26h1v3h-1v-3z" fill="rgb(74,41,65)"/>
<path d="M54 27h1v1h-1v-1z" fill="rgb(74,41,65)"/>
<path d="M55 27h1v1h-1v-1z" fill="rgb(139,74,139)"/>
<path d="M59 27h1v1h-1v-1z" fill="rgb(74,41,65)"/>
<path d="M55 28h4v1h-4v-1z" fill="rgb(74,41,65)"/>
<path d="M59 28h1v1h-1v-1z" fill="rgb(139,74,139)"/>
<path d="M60 29h1v2h-1v-2z" fill="rgb(139,74,139)"/>
<path d="M63 29h1v7h-1v-7z" fill="rgb(16,16,16)"/>
<path d="M61 31h1v4h-1v-4z" fill="rgb(139,74,139)"/>
<path d="M60 35h1v4h-1v-4z" fill="rgb(74,41,65)"/>
<path d="M62 36h1v3h-1v-3z" fill="rgb(16,16,16)"/>
<path d="M32 37h3v1h-3v-1z" fill="rgb(139,74,139)"/>
<path d="M46 37h3v1h-3v-1z" fill="rgb(180,115,189)"/>
<path d="M31 38h1v1h-1v-1z" fill="rgb(139,74,139)"/>
<path d="M32 38h2v2h-1v-1h-1v-1z" fill="rgb(213,156,213)"/>
<path d="M34 38h1v1h1v2h-1v1h-1v-4z" fill="rgb(180,115,189)"/>
<path d="M35 38h1v1h-1v-1z" fill="rgb(139,74,139)"/>
<path d="M45 38h1v1h-1v-1z" fill="rgb(180,115,189)"/>
<path d="M46 38h3v1h-2v1h-1v1h-1v1h-1v-2h1v-1h1v-1z" fill="rgb(213,156,213)"/>
<path d="M49 38h1v1h-1v-1z" fill="rgb(139,74,139)"/>
<path d="M31 39h2v1h-2v-1z" fill="rgb(74,41,65)"/>
<path d="M36 39h1v2h-1v-2z" fill="rgb(139,74,139)"/>
<path d="M44 39h1v1h-1v-1z" fill="rgb(180,115,189)"/>
<path d="M47 39h1v1h-1v-1z" fill="rgb(74,41,65)"/>
<path d="M48 39h2v2h-1v-1h-1v-1z" fill="rgb(180,115,189)"/>
<path d="M50 39h1v2h-1v-2z" fill="rgb(139,74,139)"/>
<path d="M59 39h1v2h-1v-2z" fill="rgb(74,41,65)"/>
<path d="M60 39h1v2h-1v-2z" fill="rgb(139,74,139)"/>
<path d="M61 39h1v2h-1v-2z" fill="rgb(16,16,16)"/>
<path d="M31 40h1v2h-1v-2z" fill="rgb(139,74,139)"/>
<path d="M32 40h1v1h-1v-1z" fill="rgb(164,115,8)"/>
<path d="M33 40h1v2h-1v-2z" fill="rgb(74,41,65)"/>
<path d="M37 40h6v1h-6v-1z" fill="rgb(74,41,65)"/>
<path d="M43 40h1v2h-1v-2z" fill="rgb(180,115,189)"/>
<path d="M46 40h1v1h-1v-1z" fill="rgb(139,74,139)"/>
<path d="M47 40h1v1h1v2h-1v-1h-2v-1h1v-1z" fill="rgb(164,115,8)"/>
<path d="M48 40h1v1h-1v-1z" fill="rgb(74,41,65)"/>
<path d="M32 41h1v1h-1v-1z" fill="rgb(230,205,115)"/>
<path d="M35 41h2v1h-2v-1z" fill="rgb(74,41,65)"/>
<path d="M37 41h6v1h-1v1h-1v1h-2v1h-3v-1h-1v-2h2v-1z" fill="rgb(213,156,213)"/>
<path d="M45 41h1v1h-1v-1z" fill="rgb(74,41,65)"/>
<path d="M49 41h1v4h-1v-4z" fill="rgb(139,74,139)"/>
<path d="M50 41h1v5h-1v1h-4v1h1v1h-3v-2h-1v-1h1v-1h-3v1h-1v1h-1v1h-1v1h-2v1h-2v-1h-1v-1
	h-2v-1h2v-1h1v-2h2v1h3v-1h2v-1h1v-1h1v1h1v-1h1v2h1v1h1v1h2v-1h1v-4z" fill="rgb(180,115,189)"/>
<path d="M51 41h1v2h-1v-2z" fill="rgb(74,41,65)"/>
<path d="M58 41h1v2h-1v-2z" fill="rgb(74,41,65)"/>
<path d="M59 41h1v2h-1v-2z" fill="rgb(139,74,139)"/>
<path d="M60 41h1v2h-1v-2z" fill="rgb(16,16,16)"/>
<path d="M32 42h1v2h-1v-2z" fill="rgb(139,74,139)"/>
<path d="M33 42h1v2h-1v-2z" fill="rgb(230,205,115)"/>
<path d="M34 42h1v2h-1v-2z" fill="rgb(74,41,65)"/>
<path d="M43 42h1v1h-1v-1z" fill="rgb(213,156,213)"/>
<path d="M45 42h1v2h-1v-2z" fill="rgb(139,74,139)"/>
<path d="M46 42h2v1h1v2h-2v-1h-1v-2z" fill="rgb(230,205,115)"/>
<path d="M53 42h4v1h-4v-1z" fill="rgb(139,74,139)"/>
<path d="M51 43h1v3h-1v-3z" fill="rgb(16,16,16)"/>
<path d="M52 43h1v1h-1v-1z" fill="rgb(139,74,139)"/>
<path d="M53 43h4v1h2v1h1v4h-1v2h-1v1h-1v1h-2v-1h-1v2h-1v-1h-1v1h-1v-1h-2v1h-1v-1h-1v1
	h-1v-2h2v-1h5v-1h1v-1h-1v-1h-3v-1h1v-1h1v-2h1v-1z" fill="rgb(180,115,189)"/>
<path d="M57 43h2v1h-2v-1z" fill="rgb(139,74,139)"/>
<path d="M59 43h1v1h-1v-1z" fill="rgb(16,16,16)"/>
<path d="M28 44h2v1h-2v-1z" fill="rgb(164,115,8)"/>
<path d="M33 44h1v2h-1v-2z" fill="rgb(74,41,65)"/>
<path d="M46 44h1v1h-1v-1z" fill="rgb(139,74,139)"/>
<path d="M59 44h1v1h-1v-1z" fill="rgb(74,41,65)"/>
<path d="M28 45h1v1h-1v-1z" fill="rgb(98,74,8)"/>
<path d="M29 45h1v1h-1v-1z" fill="rgb(238,222,180)"/>
<path d="M30 45h1v1h-1v-1z" fill="rgb(164,115,8)"/>
<path d="M41 45h1v1h-1v-1z" fill="rgb(139,74,139)"/>
<path d="M42 45h1v1h-1v-1z" fill="rgb(74,41,65)"/>
<path d="M43 45h1v1h-1v-1z" fill="rgb(139,74,139)"/>
<path d="M47 45h2v1h-2v-1z" fill="rgb(139,74,139)"/>
<path d="M60 45h1v2h-1v-2z" fill="rgb(74,41,65)"/>
<path d="M29 46h1v1h-1v-1z" fill="rgb(98,74,8)"/>
<path d="M30 46h1v1h-1v-1z" fill="rgb(238,222,180)"/>
<path d="M31 46h2v1h-2v-1z" fill="rgb(139,74,139)"/>
<path d="M40 46h1v1h-1v-1z" fill="rgb(74,41,65)"/>
<path d="M41 46h1v2h-1v-2z" fill="rgb(164,24,57)"/>
<path d="M42 46h1v1h-1v-1z" fill="rgb(205,205,205)"/>
<path d="M50 46h1v1h-1v-1z" fill="rgb(16,16,16)"/>
<path d="M30 47h1v3h-1v-3z" fill="rgb(139,74,139)"/>
<path d="M39 47h1v1h-1v-1z" fill="rgb(74,41,65)"/>
<path d="M40 47h1v1h-1v-1z" fill="rgb(255,255,255)"/>
<path d="M42 47h2v2h-2v-2z" fill="rgb(255,255,255)"/>
<path d="M46 47h1v1h-1v-1z" fill="rgb(74,41,65)"/>
<path d="M47 47h3v1h-3v-1z" fill="rgb(16,16,16)"/>
<path d="M60 47h1v5h1v2h1v1h-1v1h-3v-1h-1v-1h-2v-1h1v-1h1v-1h1v-2h1v-2z" fill="rgb(139,74,139)"/>
<path d="M61 47h1v1h-1v-1z" fill="rgb(74,41,65)"/>
<path d="M31 48h2v1h-2v-1z" fill="rgb(213,156,213)"/>
<path d="M38 48h1v1h-1v-1z" fill="rgb(139,74,139)"/>
<path d="M39 48h1v1h-1v-1z" fill="rgb(230,90,115)"/>
<path d="M40 48h1v1h-1v-1z" fill="rgb(164,24,57)"/>
<path d="M41 48h1v1h-1v-1z" fill="rgb(230,90,115)"/>
<path d="M47 48h6v1h-6v-1z" fill="rgb(164,115,8)"/>
<path d="M61 48h1v4h-1v-4z" fill="rgb(16,16,16)"/>
<path d="M31 49h2v2h-1v-1h-1v-1z" fill="rgb(180,115,189)"/>
<path d="M33 49h1v1h-1v-1z" fill="rgb(139,74,139)"/>
<path d="M36 49h1v1h-1v-1z" fill="rgb(205,172,98)"/>
<path d="M37 49h6v1h4v-1h6v1h-5v1h-5v1h2v4h-1v1h-1v1h-1v1h-2v-1h1v-1h1v-3h-1v-2h-1v-1h-4
	v1h-4v-1h2v-1h3v-1z" fill="rgb(238,222,180)"/>
<path d="M43 49h1v1h-1v-1z" fill="rgb(205,172,98)"/>
<path d="M44 49h3v1h-3v-1z" fill="rgb(164,115,8)"/>
<path d="M53 49h1v1h-1v-1z" fill="rgb(98,74,8)"/>
<path d="M31 50h1v1h-1v-1z" fill="rgb(139,74,139)"/>
<path d="M33 50h1v1h-1v-1z" fill="rgb(205,172,98)"/>
<path d="M48 50h5v1h-5v-1z" fill="rgb(98,74,8)"/>
<path d="M31 51h1v1h-1v-1z" fill="rgb(98,74,8)"/>
<path d="M36 51h1v1h-1v-1z" fill="rgb(98,74,8)"/>
<path d="M37 51h2v1h1v3h-1v1h-2v-1h1v-3h-1v-1z" fill="rgb(16,16,16)"/>
<path d="M39 51h1v1h-1v-1z" fill="rgb(205,172,98)"/>
<path d="M43 51h1v1h-1v-1z" fill="rgb(205,172,98)"/>
<path d="M44 51h2v1h-2v-1z" fill="rgb(164,115,8)"/>
<path d="M46 51h2v1h-2v-1z" fill="rgb(98,74,8)"/>
<path d="M32 52h4v1h-4v-1z" fill="rgb(98,74,8)"/>
<path d="M36 52h1v3h-2v-1h-1v-1h2v-1z" fill="rgb(255,255,255)"/>
<path d="M37 52h1v3h-1v-3z" fill="rgb(90,90,90)"/>
<path d="M40 52h1v1h-1v-1z" fill="rgb(205,172,98)"/>
<path d="M45 52h1v3h-1v-3z" fill="rgb(205,172,98)"/>
<path d="M54 52h1v1h-1v-1z" fill="rgb(139,74,139)"/>
<path d="M62 52h1v2h-1v-2z" fill="rgb(16,16,16)"/>
<path d="M33 53h1v1h-1v-1z" fill="rgb(205,205,205)"/>
<path d="M40 53h1v2h-1v-2z" fill="rgb(98,74,8)"/>
<path d="M47 53h1v2h-1v-2z" fill="rgb(139,74,139)"/>
<path d="M49 53h2v1h1v2h-1v2h-1v1h-1v1h-3v-2h1v-3h1v-1h1v-1z" fill="rgb(213,156,213)"/>
<path d="M52 53h1v1h-1v-1z" fill="rgb(74,41,65)"/>
<path d="M54 53h1v1h1v1h-2v1h-1v-2h1v-1z" fill="rgb(205,172,98)"/>
<path d="M55 53h1v1h-1v-1z" fill="rgb(74,41,65)"/>
<path d="M34 54h1v1h-1v-1z" fill="rgb(205,205,205)"/>
<path d="M41 54h1v1h-1v-1z" fill="rgb(205,172,98)"/>
<path d="M46 54h1v1h-1v-1z" fill="rgb(16,16,16)"/>
<path d="M52 54h1v2h-1v-2z" fill="rgb(16,16,16)"/>
<path d="M56 54h2v1h-2v-1z" fill="rgb(74,41,65)"/>
<path d="M63 54h1v4h-1v-4z" fill="rgb(16,16,16)"/>
<path d="M34 55h1v1h-1v-1z" fill="rgb(74,41,65)"/>
<path d="M35 55h2v1h-2v-1z" fill="rgb(205,205,205)"/>
<path d="M39 55h2v2h-2v-2z" fill="rgb(230,90,115)"/>
<path d="M41 55h1v2h-1v-2z" fill="rgb(164,115,8)"/>
<path d="M45 55h1v1h-1v-1z" fill="rgb(16,16,16)"/>
<path d="M46 55h1v3h-1v-3z" fill="rgb(74,41,65)"/>
<path d="M54 55h2v1h-2v-1z" fill="rgb(98,74,8)"/>
<path d="M58 55h1v1h-1v-1z" fill="rgb(74,41,65)"/>
<path d="M62 55h1v2h-1v-2z" fill="rgb(205,172,98)"/>
<path d="M33 56h1v1h-1v-1z" fill="rgb(74,41,65)"/>
<path d="M34 56h3v3h-1v1h-1v-1h-1v-1h-1v-1h1v-1z" fill="rgb(139,74,139)"/>
<path d="M37 56h1v2h-1v-2z" fill="rgb(98,74,8)"/>
<path d="M38 56h1v2h-1v-2z" fill="rgb(205,172,98)"/>
<path d="M44 56h1v1h-1v-1z" fill="rgb(16,16,16)"/>
<path d="M51 56h1v3h-1v-3z" fill="rgb(16,16,16)"/>
<path d="M52 56h2v1h-2v-1z" fill="rgb(98,74,8)"/>
<path d="M59 56h1v1h-1v-1z" fill="rgb(16,16,16)"/>
<path d="M60 56h1v1h-1v-1z" fill="rgb(205,172,98)"/>
<path d="M61 56h1v1h-1v-1z" fill="rgb(164,115,8)"/>
<path d="M32 57h1v1h-1v-1z" fill="rgb(74,41,65)"/>
<path d="M39 57h2v1h-2v-1z" fill="rgb(164,115,8)"/>
<path d="M43 57h1v1h-1v-1z" fill="rgb(16,16,16)"/>
<path d="M58 57h1v2h-1v-2z" fill="rgb(16,16,16)"/>
<path d="M59 57h1v1h-1v-1z" fill="rgb(205,172,98)"/>
<path d="M60 57h1v1h-1v-1z" fill="rgb(98,74,8)"/>
<path d="M61 57h1v1h-1v-1z" fill="rgb(205,172,98)"/>
<path d="M62 57h1v1h-1v-1z" fill="rgb(164,115,8)"/>
<path d="M32 58h1v1h-1v-1z" fill="rgb(16,16,16)"/>
<path d="M33 58h1v1h-1v-1z" fill="rgb(164,115,8)"/>
<path d="M37 58h1v1h-1v-1z" fill="rgb(74,41,65)"/>
<path d="M38 58h1v1h-1v-1z" fill="rgb(98,74,8)"/>
<path d="M39 58h1v1h-1v-1z" fill="rgb(205,172,98)"/>
<path d="M42 58h1v1h-1v-1z" fill="rgb(16,16,16)"/>
<path d="M45 58h1v2h-1v-2z" fill="rgb(74,41,65)"/>
<path d="M50 58h1v1h-1v-1z" fill="rgb(180,115,189)"/>
<path d="M59 58h1v1h-1v-1z" fill="rgb(98,74,8)"/>
<path d="M60 58h1v1h-1v-1z" fill="rgb(16,16,16)"/>
<path d="M61 58h1v1h-1v-1z" fill="rgb(164,115,8)"/>
<path d="M62 58h1v1h-1v-1z" fill="rgb(16,16,16)"/>
<path d="M31 59h1v2h-1v-2z" fill="rgb(16,16,16)"/>
<path d="M32 59h1v1h-1v-1z" fill="rgb(164,115,8)"/>
<path d="M33 59h2v2h-1v-1h-1v-1z" fill="rgb(205,172,98)"/>
<path d="M36 59h1v1h-1v-1z" fill="rgb(74,41,65)"/>
<path d="M39 59h3v1h-3v-1z" fill="rgb(16,16,16)"/>
<path d="M49 59h1v2h-1v1h-1v-1h-1v-1h2v-1z" fill="rgb(180,115,189)"/>
<path d="M50 59h1v2h-1v-2z" fill="rgb(16,16,16)"/>
<path d="M59 59h1v1h-1v-1z" fill="rgb(16,16,16)"/>
<path d="M61 59h1v1h-1v-1z" fill="rgb(16,16,16)"/>
<path d="M32 60h1v1h-1v-1z" fill="rgb(205,172,98)"/>
<path d="M33 60h1v1h-1v-1z" fill="rgb(16,16,16)"/>
<path d="M35 60h1v1h-1v-1z" fill="rgb(74,41,65)"/>
<path d="M45 60h1v1h-1v-1z" fill="rgb(164,115,8)"/>
<path d="M46 60h1v1h-1v-1z" fill="rgb(205,172,98)"/>
<path d="M32 61h1v1h-1v-1z" fill="rgb(16,16,16)"/>
<path d="M34 61h1v1h-1v-1z" fill="rgb(16,16,16)"/>
<path d="M44 61h1v1h-1v-1z" fill="rgb(164,115,8)"/>
<path d="M45 61h2v1h1v2h-1v-1h-1v-1h-1v-1z" fill="rgb(238,222,180)"/>
<path d="M47 61h1v1h-1v-1z" fill="rgb(205,172,98)"/>
<path d="M49 61h1v1h-1v-1z" fill="rgb(16,16,16)"/>
<path d="M43 62h1v1h-1v-1z" fill="rgb(164,115,8)"/>
<path d="M44 62h1v1h-1v-1z" fill="rgb(238,222,180)"/>
<path d="M45 62h1v1h-1v-1z" fill="rgb(164,115,8)"/>
<path d="M48 62h1v2h-1v-2z" fill="rgb(16,16,16)"/>
<path d="M43 63h2v1h-2v-1z" fill="rgb(16,16,16)"/>
<path d="M45 63h1v1h-1v-1z" fill="rgb(238,222,180)"/>
<path d="M46 63h1v1h-1v-1z" fill="rgb(16,16,16)"/>
<path d="M45 64h1v1h-1v-1z" fill="rgb(16,16,16)"/>
<path d="M47 64h1v1h-1v-1z" fill="rgb(16,16,16)"/>
</svg>
