<?xml version="1.0" encoding="utf-8"?>
<!-- generated at drububu.com  -->
<!DOCTYPE svg PUBLIC "-//W3C//DTD SVG 1.1//EN" "http://www.w3.org/Graphics/SVG/1.1/DTD/svg11.dtd">
<svg version="1.1" preserveAspectRatio="xMinYMin meet" xmlns="http://www.w3.org/2000/svg" xmlns:xlink="http://www.w3.org/1999/xlink" x="0px" y="0px" width="96px" height="96px" viewBox="0 0 96 96">
<path d="M0 0h96v96h-96v-96z" fill="transparent"/>
<path d="M48 23h1v1h-1v-1z" fill="rgb(123,49,41)"/>
<path d="M47 24h1v1h-1v-1z" fill="rgb(123,49,41)"/>
<path d="M48 24h1v1h1v3h1v2h-1v-1h-1v-3h-2v-1h1v-1z" fill="rgb(213,65,90)"/>
<path d="M49 24h1v1h-1v-1z" fill="rgb(123,49,41)"/>
<path d="M51 24h2v2h-1v-1h-1v-1z" fill="rgb(123,49,41)"/>
<path d="M44 25h3v1h2v3h-1v-2h-2v-1h-2v-1z" fill="rgb(123,49,41)"/>
<path d="M50 25h1v1h-1v-1z" fill="rgb(123,49,41)"/>
<path d="M51 25h1v1h1v1h-2v-2z" fill="rgb(255,172,164)"/>
<path d="M43 26h1v2h-1v-2z" fill="rgb(123,49,41)"/>
<path d="M44 26h1v2h1v1h1v-2h1v5h-1v1h-1v1h-3v-1h-1v-3h1v-1h1v-3z" fill="rgb(255,172,164)"/>
<path d="M45 26h1v1h-1v-1z" fill="rgb(213,65,90)"/>
<path d="M50 26h1v1h-1v-1z" fill="rgb(255,123,123)"/>
<path d="M53 26h1v1h-1v-1z" fill="rgb(213,65,90)"/>
<path d="M45 27h2v2h-1v-1h-1v-1z" fill="rgb(255,123,123)"/>
<path d="M50 27h1v1h-1v-1z" fill="rgb(123,49,41)"/>
<path d="M51 27h3v1h1v2h2v2h-1v2h-1v1h-1v-3h-1v-2h-1v-2h-1v-1z" fill="rgb(255,123,123)"/>
<path d="M54 27h1v1h-1v-1z" fill="rgb(123,49,41)"/>
<path d="M43 28h1v1h-1v-1z" fill="rgb(213,65,90)"/>
<path d="M51 28h1v1h-1v-1z" fill="rgb(16,16,16)"/>
<path d="M55 28h1v1h-1v-1z" fill="rgb(123,49,41)"/>
<path d="M42 29h1v1h-1v-1z" fill="rgb(213,65,90)"/>
<path d="M48 29h1v1h1v1h1v2h1v3h-3v1h-5v-1h-2v-1h-1v-3h1v1h1v1h3v-1h1v-1h1v-3z" fill="rgb(255,123,123)"/>
<path d="M49 29h1v1h-1v-1z" fill="rgb(123,49,41)"/>
<path d="M51 29h1v1h-1v-1z" fill="rgb(123,49,41)"/>
<path d="M55 29h1v1h-1v-1z" fill="rgb(213,65,90)"/>
<path d="M56 29h1v1h-1v-1z" fill="rgb(123,49,41)"/>
<path d="M41 30h1v2h-1v-2z" fill="rgb(213,65,90)"/>
<path d="M50 30h1v1h-1v-1z" fill="rgb(123,49,41)"/>
<path d="M51 30h1v1h-1v-1z" fill="rgb(213,65,90)"/>
<path d="M52 30h1v1h-1v-1z" fill="rgb(16,16,16)"/>
<path d="M57 30h1v2h-1v-2z" fill="rgb(16,16,16)"/>
<path d="M51 31h2v1h-1v1h-1v-2z" fill="rgb(123,49,41)"/>
<path d="M40 32h1v3h-1v-3z" fill="rgb(123,49,41)"/>
<path d="M52 32h1v1h-1v-1z" fill="rgb(213,65,90)"/>
<path d="M53 32h1v3h-1v-3z" fill="rgb(16,16,16)"/>
<path d="M56 32h2v3h1v7h-1v1h-2v1h-2v1h-1v-1h-1v-1h1v-3h1v-5h1v-1h1v-2z" fill="rgb(213,65,90)"/>
<path d="M58 32h1v3h-1v-3z" fill="rgb(16,16,16)"/>
<path d="M52 33h1v2h-1v-2z" fill="rgb(123,49,41)"/>
<path d="M39 35h1v2h-1v-2z" fill="rgb(123,49,41)"/>
<path d="M40 35h2v1h2v1h5v-1h3v-1h1v5h-1v3h-1v-1h-1v-1h-2v-1h-1v-1h-3v1h-1v-2h-1v-1h-2
	v-2z" fill="rgb(213,65,90)"/>
<path d="M53 35h1v5h-1v-5z" fill="rgb(123,49,41)"/>
<path d="M59 35h1v7h-1v-7z" fill="rgb(123,49,41)"/>
<path d="M36 36h3v1h-2v1h-1v-2z" fill="rgb(16,74,57)"/>
<path d="M22 37h3v1h-3v-1z" fill="rgb(16,74,57)"/>
<path d="M33 37h2v1h-2v-1z" fill="rgb(16,74,57)"/>
<path d="M37 37h2v1h-2v-1z" fill="rgb(123,213,115)"/>
<path d="M39 37h3v1h-2v2h-1v-3z" fill="rgb(16,74,57)"/>
<path d="M20 38h3v1h-3v-1z" fill="rgb(49,123,82)"/>
<path d="M23 38h2v1h-2v-1z" fill="rgb(123,213,115)"/>
<path d="M25 38h3v1h-3v-1z" fill="rgb(49,123,82)"/>
<path d="M32 38h1v1h-1v-1z" fill="rgb(16,74,57)"/>
<path d="M33 38h2v1h-2v-1z" fill="rgb(123,213,115)"/>
<path d="M35 38h1v2h-1v-2z" fill="rgb(16,74,57)"/>
<path d="M36 38h1v1h-1v-1z" fill="rgb(98,172,90)"/>
<path d="M37 38h2v2h1v-1h2v3h3v-1h2v1h-1v1h-1v1h2v-1h4v2h-2v1h-2v1h2v-1h2v-1h2v2h-2v1h-4
	v1h-1v-1h-1v-1h-1v-1h-2v-1h-2v-1h-1v-1h-1v1h1v1h1v2h1v1h-3v1h-2v-1h-2v-1h2v-1
	h-3v-1h-1v-1h1v-1h1v-1h-1v-1h-1v-1h2v-1h1v1h1v-1h1v-1z" fill="rgb(49,123,82)"/>
<path d="M40 38h2v1h-2v-1z" fill="rgb(123,213,115)"/>
<path d="M42 38h1v1h-1v-1z" fill="rgb(16,74,57)"/>
<path d="M19 39h1v1h-1v-1z" fill="rgb(16,74,57)"/>
<path d="M20 39h3v1h3v1h2v1h2v1h1v2h-1v-1h-3v-1h-3v-1h-1v-1h-2v-1h-1v-1z" fill="rgb(123,213,115)"/>
<path d="M23 39h1v1h-1v-1z" fill="rgb(49,123,82)"/>
<path d="M24 39h2v1h-2v-1z" fill="rgb(16,74,57)"/>
<path d="M26 39h2v1h-2v-1z" fill="rgb(123,213,115)"/>
<path d="M28 39h3v1h-3v-1z" fill="rgb(49,123,82)"/>
<path d="M31 39h1v2h-1v-2z" fill="rgb(16,16,16)"/>
<path d="M32 39h1v1h-1v-1z" fill="rgb(123,213,115)"/>
<path d="M33 39h1v1h-1v-1z" fill="rgb(98,172,90)"/>
<path d="M42 39h1v2h-1v-2z" fill="rgb(16,16,16)"/>
<path d="M44 39h3v1h-3v-1z" fill="rgb(16,74,57)"/>
<path d="M19 40h2v1h-2v-1z" fill="rgb(16,16,16)"/>
<path d="M26 40h2v1h-2v-1z" fill="rgb(16,74,57)"/>
<path d="M28 40h3v1h1v1h-2v-1h-2v-1z" fill="rgb(123,213,115)"/>
<path d="M43 40h1v1h-1v-1z" fill="rgb(16,74,57)"/>
<path d="M44 40h2v1h-2v-1z" fill="rgb(123,213,115)"/>
<path d="M46 40h1v1h-1v-1z" fill="rgb(98,172,90)"/>
<path d="M47 40h1v1h2v1h-3v-2z" fill="rgb(16,74,57)"/>
<path d="M52 40h1v3h-1v-3z" fill="rgb(123,49,41)"/>
<path d="M68 40h4v1h3v1h-4v-1h-2v1h-2v-1h1v-1z" fill="rgb(16,74,57)"/>
<path d="M21 41h1v2h-2v-1h1v-1z" fill="rgb(16,74,57)"/>
<path d="M22 41h1v1h-1v-1z" fill="rgb(49,123,82)"/>
<path d="M28 41h2v1h-2v-1z" fill="rgb(16,74,57)"/>
<path d="M32 41h1v1h-1v-1z" fill="rgb(16,74,57)"/>
<path d="M42 41h1v1h-1v-1z" fill="rgb(16,74,57)"/>
<path d="M43 41h1v1h-1v-1z" fill="rgb(123,213,115)"/>
<path d="M44 41h1v1h-1v-1z" fill="rgb(98,172,90)"/>
<path d="M63 41h3v1h-3v-1z" fill="rgb(16,74,57)"/>
<path d="M69 41h2v2h1v1h2v1h2v2h-3v-1h-1v1h1v2h-2v-1h-1v-1h-1v-1h-1v1h1v1h1v2h-1v1h-2v-1
	h-1v-1h-1v-2h-1v-1h2v-1h5v-1h-4v-1h1v-1h1v-1z" fill="rgb(123,213,115)"/>
<path d="M22 42h2v1h3v1h3v1h-2v1h-2v-1h-1v-1h-3v1h-2v-2h2v-1z" fill="rgb(98,172,90)"/>
<path d="M30 42h2v1h-2v-1z" fill="rgb(49,123,82)"/>
<path d="M32 42h1v1h-1v-1z" fill="rgb(16,16,16)"/>
<path d="M33 42h1v1h-1v-1z" fill="rgb(16,74,57)"/>
<path d="M46 42h1v2h-1v-2z" fill="rgb(16,74,57)"/>
<path d="M47 42h1v1h-1v-1z" fill="rgb(16,16,16)"/>
<path d="M48 42h2v1h-2v-1z" fill="rgb(98,172,90)"/>
<path d="M50 42h1v1h-1v-1z" fill="rgb(16,74,57)"/>
<path d="M58 42h1v1h-1v-1z" fill="rgb(123,49,41)"/>
<path d="M59 42h1v1h-1v-1z" fill="transparent"/>
<path d="M60 42h1v1h-1v-1z" fill="rgb(16,74,57)"/>
<path d="M61 42h2v1h-2v-1z" fill="rgb(16,16,16)"/>
<path d="M63 42h1v1h-1v-1z" fill="rgb(49,123,82)"/>
<path d="M64 42h2v1h1v1h-2v1h-2v-2h1v-1z" fill="rgb(98,172,90)"/>
<path d="M66 42h1v1h-1v-1z" fill="rgb(16,74,57)"/>
<path d="M67 42h1v1h-1v-1z" fill="rgb(98,172,90)"/>
<path d="M71 42h1v1h-1v-1z" fill="rgb(98,172,90)"/>
<path d="M72 42h3v1h1v1h-2v-1h-2v-1z" fill="rgb(123,213,115)"/>
<path d="M75 42h2v1h-2v-1z" fill="rgb(16,74,57)"/>
<path d="M19 43h1v1h-1v-1z" fill="rgb(16,74,57)"/>
<path d="M31 43h1v2h-1v-2z" fill="rgb(16,16,16)"/>
<path d="M32 43h1v1h-1v-1z" fill="rgb(98,172,90)"/>
<path d="M38 43h1v1h-1v-1z" fill="rgb(16,74,57)"/>
<path d="M45 43h1v1h-1v-1z" fill="rgb(16,16,16)"/>
<path d="M51 43h1v2h-1v-2z" fill="rgb(16,74,57)"/>
<path d="M56 43h4v1h-4v-1z" fill="rgb(16,74,57)"/>
<path d="M60 43h2v1h1v1h-4v-1h1v-1z" fill="rgb(49,123,82)"/>
<path d="M62 43h1v1h-1v-1z" fill="rgb(16,74,57)"/>
<path d="M72 43h2v1h-2v-1z" fill="rgb(49,123,82)"/>
<path d="M76 43h1v1h-1v-1z" fill="rgb(16,16,16)"/>
<path d="M19 44h1v1h-1v-1z" fill="rgb(16,16,16)"/>
<path d="M22 44h1v1h-1v-1z" fill="rgb(49,123,82)"/>
<path d="M23 44h2v1h-1v1h-1v1h-1v-2h1v-1z" fill="rgb(16,74,57)"/>
<path d="M39 44h1v1h-1v-1z" fill="rgb(16,74,57)"/>
<path d="M52 44h1v1h-1v-1z" fill="rgb(16,16,16)"/>
<path d="M54 44h2v1h-2v-1z" fill="rgb(16,74,57)"/>
<path d="M56 44h2v1h-2v-1z" fill="rgb(49,123,82)"/>
<path d="M58 44h1v1h-1v-1z" fill="rgb(16,16,16)"/>
<path d="M65 44h3v1h-3v-1z" fill="rgb(16,74,57)"/>
<path d="M68 44h2v1h-2v-1z" fill="rgb(49,123,82)"/>
<path d="M70 44h1v1h-1v-1z" fill="rgb(98,172,90)"/>
<path d="M74 44h1v1h-1v-1z" fill="rgb(49,123,82)"/>
<path d="M75 44h1v1h-1v-1z" fill="rgb(16,74,57)"/>
<path d="M20 45h2v1h-2v-1z" fill="rgb(16,16,16)"/>
<path d="M24 45h2v1h2v1h-2v1h-3v-2h1v-1z" fill="rgb(49,123,82)"/>
<path d="M28 45h4v2h-1v1h-1v2h-2v-2h1v-2h-1v-1z" fill="rgb(49,123,82)"/>
<path d="M32 45h1v1h3v1h-4v-2z" fill="rgb(16,74,57)"/>
<path d="M40 45h2v1h-1v1h-1v-2z" fill="rgb(16,74,57)"/>
<path d="M49 45h2v1h-2v-1z" fill="rgb(16,74,57)"/>
<path d="M53 45h1v2h-1v-2z" fill="rgb(16,16,16)"/>
<path d="M54 45h2v1h-2v-1z" fill="rgb(49,123,82)"/>
<path d="M56 45h2v1h-2v-1z" fill="rgb(16,16,16)"/>
<path d="M58 45h1v1h-1v-1z" fill="rgb(49,123,82)"/>
<path d="M59 45h6v1h-6v-1z" fill="rgb(16,74,57)"/>
<path d="M65 45h1v1h-1v-1z" fill="rgb(98,172,90)"/>
<path d="M76 45h1v1h-1v-1z" fill="rgb(16,74,57)"/>
<path d="M28 46h1v2h-1v2h-1v-2h-1v-1h2v-1z" fill="rgb(16,74,57)"/>
<path d="M41 46h1v1h-1v-1z" fill="rgb(49,123,82)"/>
<path d="M42 46h2v1h-1v1h-2v-1h1v-1z" fill="rgb(16,74,57)"/>
<path d="M47 46h2v1h-2v-1z" fill="rgb(16,74,57)"/>
<path d="M54 46h5v1h-4v1h-1v2h-1v-2h-2v-1h3v-1z" fill="rgb(16,74,57)"/>
<path d="M59 46h2v1h-1v1h-1v1h1v1h1v3h-2v-1h-2v-1h-1v1h1v2h-2v-1h-1v-2h-1v-1h1v-2h1v-1h4
	v-1z" fill="rgb(49,123,82)"/>
<path d="M61 46h1v1h-1v-1z" fill="rgb(98,172,90)"/>
<path d="M62 46h1v1h-1v-1z" fill="rgb(49,123,82)"/>
<path d="M63 46h1v1h-1v-1z" fill="rgb(98,172,90)"/>
<path d="M68 46h1v1h-1v-1z" fill="rgb(49,123,82)"/>
<path d="M72 46h1v1h-1v-1z" fill="rgb(16,74,57)"/>
<path d="M76 46h1v1h-1v-1z" fill="rgb(16,16,16)"/>
<path d="M22 47h1v1h-1v-1z" fill="rgb(16,16,16)"/>
<path d="M31 47h3v2h-1v-1h-2v-1z" fill="rgb(16,16,16)"/>
<path d="M43 47h1v1h-1v-1z" fill="rgb(49,123,82)"/>
<path d="M44 47h1v1h-1v-1z" fill="rgb(16,74,57)"/>
<path d="M60 47h1v1h-1v-1z" fill="rgb(98,172,90)"/>
<path d="M61 47h1v1h-1v-1z" fill="rgb(49,123,82)"/>
<path d="M62 47h1v1h-1v-1z" fill="rgb(98,172,90)"/>
<path d="M63 47h1v1h-1v-1z" fill="rgb(49,123,82)"/>
<path d="M64 47h1v1h-1v-1z" fill="rgb(98,172,90)"/>
<path d="M69 47h1v1h-1v-1z" fill="rgb(16,74,57)"/>
<path d="M73 47h1v1h-1v-1z" fill="rgb(16,16,16)"/>
<path d="M74 47h1v1h-1v-1z" fill="rgb(16,74,57)"/>
<path d="M75 47h1v1h-1v-1z" fill="rgb(16,16,16)"/>
<path d="M23 48h2v1h-2v-1z" fill="rgb(16,16,16)"/>
<path d="M25 48h1v1h-1v-1z" fill="rgb(16,74,57)"/>
<path d="M30 48h1v1h-1v-1z" fill="rgb(16,65,74)"/>
<path d="M31 48h2v1h2v3h-1v2h3v-1h1v-1h2v-2h-1v-1h2v1h1v-1h1v1h1v2h-1v1h-1v1h-3v1h-4v1
	h-2v-1h-1v-1h-1v-2h1v-1h1v-1h-1v-1h-1v-1z" fill="rgb(131,230,213)"/>
<path d="M34 48h2v1h2v1h-3v-1h-1v-1z" fill="rgb(16,65,74)"/>
<path d="M38 48h1v1h-1v-1z" fill="rgb(16,65,74)"/>
<path d="M39 48h5v1h-5v-1z" fill="rgb(16,16,16)"/>
<path d="M44 48h2v2h-1v-1h-1v-1z" fill="rgb(16,65,74)"/>
<path d="M47 48h2v1h-2v-1z" fill="rgb(16,65,74)"/>
<path d="M49 48h3v1h-3v-1z" fill="rgb(16,16,16)"/>
<path d="M52 48h1v1h-1v-1z" fill="rgb(49,123,82)"/>
<path d="M59 48h1v1h-1v-1z" fill="rgb(98,172,90)"/>
<path d="M60 48h1v1h-1v-1z" fill="rgb(49,123,82)"/>
<path d="M61 48h1v1h-1v-1z" fill="rgb(98,172,90)"/>
<path d="M62 48h1v1h-1v-1z" fill="rgb(49,123,82)"/>
<path d="M63 48h1v1h-1v-1z" fill="rgb(98,172,90)"/>
<path d="M64 48h1v1h-1v-1z" fill="rgb(49,123,82)"/>
<path d="M70 48h1v1h2v1h-3v-2z" fill="rgb(16,16,16)"/>
<path d="M73 48h1v1h-1v-1z" fill="rgb(16,74,57)"/>
<path d="M30 49h1v4h-1v-4z" fill="rgb(16,16,16)"/>
<path d="M31 49h1v2h-1v-2z" fill="rgb(90,205,189)"/>
<path d="M38 49h1v1h-1v-1z" fill="rgb(90,205,189)"/>
<path d="M41 49h1v1h-1v-1z" fill="rgb(90,205,189)"/>
<path d="M43 49h1v1h-1v-1z" fill="rgb(90,205,189)"/>
<path d="M44 49h1v1h-1v-1z" fill="rgb(32,148,131)"/>
<path d="M46 49h1v1h-1v-1z" fill="rgb(16,16,16)"/>
<path d="M47 49h4v1h-2v1h-1v1h-1v1h-1v1h1v1h1v1h1v1h1v2h1v3h-1v1h-3v1h-10v1h-6v-1h-1v-1
	h-1v-1h3v-1h-1v-2h1v-2h-1v1h-1v-4h2v1h1v1h2v2h2v-1h1v-2h1v-1h3v-1h1v-1h1v-2h3
	v-1z" fill="rgb(90,205,189)"/>
<path d="M51 49h1v6h1v-2h1v1h1v1h2v2h1v1h2v2h1v1h2v1h2v1h1v1h2v-1h1v2h1v1h-1v1h-3v1h-1
	v-1h-1v1h-1v-2h-1v-1h-1v-1h-1v-1h-1v-2h-1v2h-1v1h-2v1h-1v1h-1v2h-2v-1h-1v-1h-1v1
	h-2v1h-3v1h-7v-1h-2v-1h-2v-1h5v-1h4v1h1v1h1v-1h2v-1h-1v-1h2v-1h3v-1h1v-3h-1v-2
	h-1v-1h-1v-1h-1v-1h2v1h2v-6z" fill="rgb(32,148,131)"/>
<path d="M52 49h1v5h-1v-5z" fill="rgb(16,16,16)"/>
<path d="M60 49h1v1h-1v-1z" fill="rgb(16,74,57)"/>
<path d="M61 49h1v1h-1v-1z" fill="rgb(49,123,82)"/>
<path d="M62 49h1v1h-1v-1z" fill="rgb(98,172,90)"/>
<path d="M63 49h1v1h-1v-1z" fill="rgb(49,123,82)"/>
<path d="M64 49h1v1h-1v-1z" fill="rgb(16,74,57)"/>
<path d="M65 49h1v1h-1v-1z" fill="rgb(49,123,82)"/>
<path d="M28 50h2v1h-2v-1z" fill="rgb(16,74,57)"/>
<path d="M32 50h1v1h-1v-1z" fill="rgb(32,148,131)"/>
<path d="M35 50h1v1h-1v-1z" fill="rgb(90,205,189)"/>
<path d="M36 50h4v1h-1v1h-1v1h-2v1h-2v-1h1v-2h1v-1z" fill="rgb(32,148,131)"/>
<path d="M49 50h1v1h-1v-1z" fill="rgb(32,148,131)"/>
<path d="M50 50h1v4h-4v-1h1v-1h1v-1h1v-1z" fill="rgb(16,16,16)"/>
<path d="M61 50h1v1h-1v-1z" fill="rgb(98,172,90)"/>
<path d="M62 50h1v1h-1v-1z" fill="rgb(49,123,82)"/>
<path d="M63 50h1v1h-1v-1z" fill="rgb(98,172,90)"/>
<path d="M64 50h1v1h-1v-1z" fill="rgb(49,123,82)"/>
<path d="M65 50h1v1h-1v-1z" fill="rgb(16,74,57)"/>
<path d="M66 50h1v1h-1v-1z" fill="rgb(49,123,82)"/>
<path d="M69 50h2v1h-2v-1z" fill="rgb(16,74,57)"/>
<path d="M31 51h1v1h-1v-1z" fill="rgb(32,148,131)"/>
<path d="M39 51h1v1h-1v-1z" fill="rgb(90,205,189)"/>
<path d="M48 51h1v1h-1v-1z" fill="rgb(32,148,131)"/>
<path d="M53 51h1v2h-1v-2z" fill="rgb(16,74,57)"/>
<path d="M56 51h1v1h-1v-1z" fill="rgb(16,74,57)"/>
<path d="M61 51h1v1h-1v-1z" fill="rgb(16,74,57)"/>
<path d="M62 51h1v1h-1v-1z" fill="rgb(98,172,90)"/>
<path d="M63 51h1v1h-1v-1z" fill="rgb(49,123,82)"/>
<path d="M64 51h2v1h-2v-1z" fill="rgb(16,16,16)"/>
<path d="M67 51h2v1h-2v-1z" fill="rgb(16,16,16)"/>
<path d="M34 52h1v1h-1v-1z" fill="rgb(90,205,189)"/>
<path d="M47 52h1v1h-1v-1z" fill="rgb(16,65,74)"/>
<path d="M57 52h1v1h-1v-1z" fill="rgb(16,74,57)"/>
<path d="M58 52h1v1h-1v-1z" fill="rgb(16,16,16)"/>
<path d="M61 52h3v1h-3v-1z" fill="rgb(16,16,16)"/>
<path d="M30 53h1v1h-1v-1z" fill="rgb(32,148,131)"/>
<path d="M36 53h1v1h-1v-1z" fill="rgb(90,205,189)"/>
<path d="M46 53h1v1h-1v-1z" fill="rgb(32,148,131)"/>
<path d="M54 53h1v1h-1v-1z" fill="rgb(16,16,16)"/>
<path d="M57 53h1v1h-1v-1z" fill="rgb(16,16,16)"/>
<path d="M58 53h1v1h-1v-1z" fill="rgb(32,148,131)"/>
<path d="M59 53h2v1h-2v-1z" fill="rgb(16,16,16)"/>
<path d="M61 53h3v1h1v1h-1v1h-2v1h-2v-2h-1v-1h2v-1z" fill="rgb(32,148,131)"/>
<path d="M64 53h1v1h-1v-1z" fill="rgb(16,65,74)"/>
<path d="M29 54h1v4h-1v2h-1v-3h1v-3z" fill="rgb(16,65,74)"/>
<path d="M49 54h2v1h-2v-1z" fill="rgb(16,65,74)"/>
<path d="M52 54h1v1h-1v-1z" fill="rgb(16,65,74)"/>
<path d="M55 54h2v1h-2v-1z" fill="rgb(16,16,16)"/>
<path d="M57 54h2v1h1v2h1v1h-3v-1h-1v-3z" fill="rgb(16,65,74)"/>
<path d="M65 54h1v2h-1v-2z" fill="rgb(16,65,74)"/>
<path d="M35 55h1v1h-1v-1z" fill="rgb(90,205,189)"/>
<path d="M36 55h2v2h-1v1h-2v-2h1v-1z" fill="rgb(32,148,131)"/>
<path d="M64 55h1v1h1v1h1v3h-1v1h-1v1h-2v-1h-2v-1h-1v-2h1v-1h1v-1h2v-1z" fill="rgb(90,205,189)"/>
<path d="M66 56h1v1h-1v-1z" fill="rgb(16,65,74)"/>
<path d="M31 57h1v2h-1v-2z" fill="rgb(131,230,213)"/>
<path d="M39 57h1v1h-1v-1z" fill="rgb(32,148,131)"/>
<path d="M42 57h1v1h-1v-1z" fill="rgb(32,148,131)"/>
<path d="M43 57h1v1h-1v-1z" fill="rgb(16,65,74)"/>
<path d="M44 57h1v1h-1v-1z" fill="rgb(32,148,131)"/>
<path d="M67 57h1v2h-1v-2z" fill="rgb(16,65,74)"/>
<path d="M29 58h1v2h-1v-2z" fill="rgb(213,65,90)"/>
<path d="M30 58h1v1h-1v-1z" fill="rgb(16,65,74)"/>
<path d="M38 58h1v1h-1v-1z" fill="rgb(32,148,131)"/>
<path d="M39 58h1v2h-1v1h-1v-2h1v-1z" fill="rgb(131,230,213)"/>
<path d="M41 58h2v1h-2v-1z" fill="rgb(16,65,74)"/>
<path d="M43 58h1v1h1v3h-1v1h-1v-5z" fill="rgb(255,255,255)"/>
<path d="M44 58h1v1h-1v-1z" fill="rgb(16,65,74)"/>
<path d="M30 59h1v2h-1v-2z" fill="rgb(16,16,16)"/>
<path d="M40 59h1v2h-1v-2z" fill="rgb(16,65,74)"/>
<path d="M41 59h1v3h-1v-3z" fill="rgb(16,16,16)"/>
<path d="M42 59h1v3h-1v-3z" fill="rgb(213,65,90)"/>
<path d="M45 59h1v2h-1v-2z" fill="rgb(16,65,74)"/>
<path d="M67 59h1v1h-1v-1z" fill="rgb(32,148,131)"/>
<path d="M68 59h1v3h-1v-3z" fill="rgb(16,16,16)"/>
<path d="M27 60h1v2h-1v-2z" fill="rgb(16,65,74)"/>
<path d="M28 60h1v2h-1v-2z" fill="rgb(90,205,189)"/>
<path d="M29 60h1v2h-1v-2z" fill="rgb(255,123,123)"/>
<path d="M37 60h1v1h-1v-1z" fill="rgb(32,148,131)"/>
<path d="M39 60h1v1h-1v-1z" fill="rgb(90,205,189)"/>
<path d="M66 60h2v2h1v1h-1v1h-2v-1h-1v-2h1v-1z" fill="rgb(16,65,74)"/>
<path d="M30 61h1v1h-1v-1z" fill="rgb(255,255,255)"/>
<path d="M31 61h1v1h-1v-1z" fill="rgb(32,148,131)"/>
<path d="M39 61h1v1h-1v-1z" fill="rgb(32,148,131)"/>
<path d="M40 61h1v1h-1v-1z" fill="rgb(213,65,90)"/>
<path d="M45 61h1v1h-1v-1z" fill="rgb(32,148,131)"/>
<path d="M58 61h1v2h-1v-2z" fill="rgb(16,65,74)"/>
<path d="M27 62h1v1h-1v-1z" fill="rgb(16,16,16)"/>
<path d="M28 62h1v1h-1v-1z" fill="rgb(32,148,131)"/>
<path d="M40 62h1v1h-1v-1z" fill="rgb(255,123,123)"/>
<path d="M41 62h1v1h-1v-1z" fill="rgb(213,65,90)"/>
<path d="M42 62h1v1h-1v-1z" fill="rgb(255,123,123)"/>
<path d="M69 62h1v3h-1v-3z" fill="rgb(16,16,16)"/>
<path d="M28 63h1v1h-1v-1z" fill="rgb(16,16,16)"/>
<path d="M29 63h1v1h-1v-1z" fill="rgb(16,65,74)"/>
<path d="M31 63h1v1h-1v-1z" fill="rgb(32,148,131)"/>
<path d="M34 63h1v1h-1v-1z" fill="rgb(32,148,131)"/>
<path d="M57 63h2v2h-2v1h-1v2h2v-1h1v-2h1v4h-1v2h-1v1h-1v-1h-2v1h-1v-1h-2v-1h1v-2h1v-1
	h-1v-1h1v-1h1v-1h2v-1z" fill="rgb(90,205,189)"/>
<path d="M59 63h1v2h-1v-2z" fill="rgb(16,16,16)"/>
<path d="M61 63h1v1h-1v-1z" fill="rgb(16,65,74)"/>
<path d="M27 64h1v1h-1v-1z" fill="rgb(32,148,131)"/>
<path d="M28 64h1v1h-1v-1z" fill="rgb(16,65,74)"/>
<path d="M29 64h1v1h-1v-1z" fill="rgb(255,255,255)"/>
<path d="M30 64h1v1h-1v-1z" fill="rgb(16,65,74)"/>
<path d="M37 64h1v1h-1v-1z" fill="rgb(32,148,131)"/>
<path d="M38 64h1v1h-1v-1z" fill="rgb(16,65,74)"/>
<path d="M39 64h5v1h-5v-1z" fill="rgb(16,16,16)"/>
<path d="M44 64h1v1h1v1h-2v-2z" fill="rgb(16,65,74)"/>
<path d="M60 64h1v1h-1v-1z" fill="rgb(16,65,74)"/>
<path d="M26 65h1v1h-1v-1z" fill="rgb(32,148,131)"/>
<path d="M27 65h2v1h1v-1h1v2h-1v1h-2v1h-3v-1h1v-2h1v-1z" fill="rgb(90,205,189)"/>
<path d="M29 65h1v1h-1v-1z" fill="rgb(16,65,74)"/>
<path d="M31 65h7v1h-7v-1z" fill="rgb(16,65,74)"/>
<path d="M42 65h1v1h-1v-1z" fill="rgb(16,65,74)"/>
<path d="M43 65h1v1h-1v-1z" fill="rgb(255,255,255)"/>
<path d="M50 65h1v1h-1v-1z" fill="rgb(16,65,74)"/>
<path d="M57 65h2v2h-1v1h-2v-2h1v-1z" fill="rgb(32,148,131)"/>
<path d="M60 65h1v4h-1v-4z" fill="rgb(16,16,16)"/>
<path d="M61 65h1v1h-1v-1z" fill="rgb(16,65,74)"/>
<path d="M70 65h1v3h-1v-3z" fill="rgb(16,16,16)"/>
<path d="M25 66h1v1h-1v-1z" fill="rgb(32,148,131)"/>
<path d="M31 66h1v1h1v1h1v1h-2v1h-1v1h-3v-3h2v-1h1v-1z" fill="rgb(32,148,131)"/>
<path d="M32 66h1v1h-1v-1z" fill="rgb(16,16,16)"/>
<path d="M43 66h1v1h-1v-1z" fill="rgb(16,65,74)"/>
<path d="M49 66h1v2h-3v-1h2v-1z" fill="rgb(16,65,74)"/>
<path d="M62 66h1v2h-1v-2z" fill="rgb(16,16,16)"/>
<path d="M69 66h1v1h-1v-1z" fill="rgb(16,65,74)"/>
<path d="M25 67h1v1h-1v-1z" fill="rgb(16,65,74)"/>
<path d="M33 67h1v1h-1v-1z" fill="rgb(16,16,16)"/>
<path d="M34 67h1v1h-1v-1z" fill="rgb(16,65,74)"/>
<path d="M50 67h1v1h-1v-1z" fill="rgb(16,16,16)"/>
<path d="M53 67h1v1h-1v-1z" fill="rgb(16,65,74)"/>
<path d="M64 67h1v1h-1v-1z" fill="rgb(16,65,74)"/>
<path d="M66 67h3v2h-1v-1h-1v1h-1v-2z" fill="rgb(16,65,74)"/>
<path d="M69 67h1v1h-1v-1z" fill="rgb(255,255,255)"/>
<path d="M24 68h1v1h-1v-1z" fill="rgb(16,65,74)"/>
<path d="M34 68h2v1h-2v-1z" fill="rgb(16,16,16)"/>
<path d="M36 68h1v1h-1v-1z" fill="rgb(16,65,74)"/>
<path d="M44 68h3v1h-3v-1z" fill="rgb(16,65,74)"/>
<path d="M51 68h2v1h-2v-1z" fill="rgb(16,65,74)"/>
<path d="M63 68h1v1h-1v-1z" fill="rgb(16,16,16)"/>
<path d="M64 68h1v1h-1v-1z" fill="rgb(255,255,255)"/>
<path d="M65 68h1v1h-1v-1z" fill="rgb(16,16,16)"/>
<path d="M67 68h1v1h-1v-1z" fill="rgb(255,255,255)"/>
<path d="M69 68h1v1h-1v-1z" fill="rgb(16,16,16)"/>
<path d="M23 69h1v2h-1v-2z" fill="rgb(16,65,74)"/>
<path d="M24 69h1v1h-1v-1z" fill="rgb(255,255,255)"/>
<path d="M25 69h1v1h-1v-1z" fill="rgb(32,148,131)"/>
<path d="M26 69h2v2h-1v-1h-1v-1z" fill="rgb(16,65,74)"/>
<path d="M32 69h1v1h-1v-1z" fill="rgb(16,65,74)"/>
<path d="M33 69h1v1h-1v-1z" fill="rgb(16,16,16)"/>
<path d="M37 69h7v1h-7v-1z" fill="rgb(16,16,16)"/>
<path d="M52 69h1v1h-1v-1z" fill="rgb(16,16,16)"/>
<path d="M59 69h1v2h-1v-2z" fill="rgb(16,16,16)"/>
<path d="M64 69h1v1h-1v-1z" fill="rgb(16,16,16)"/>
<path d="M66 69h2v1h-2v-1z" fill="rgb(16,16,16)"/>
<path d="M24 70h2v1h3v1h-4v-1h-1v-1z" fill="rgb(16,16,16)"/>
<path d="M26 70h1v1h-1v-1z" fill="rgb(255,255,255)"/>
<path d="M31 70h1v1h-1v-1z" fill="rgb(16,65,74)"/>
<path d="M51 70h1v1h-1v-1z" fill="rgb(16,65,74)"/>
<path d="M29 71h2v1h-2v-1z" fill="rgb(16,65,74)"/>
<path d="M50 71h1v1h-1v-1z" fill="rgb(16,65,74)"/>
<path d="M51 71h1v1h-1v-1z" fill="rgb(255,255,255)"/>
<path d="M52 71h2v1h-2v-1z" fill="rgb(32,148,131)"/>
<path d="M55 71h2v1h-2v-1z" fill="rgb(32,148,131)"/>
<path d="M58 71h1v1h-1v-1z" fill="rgb(16,65,74)"/>
<path d="M51 72h2v1h-2v-1z" fill="rgb(16,16,16)"/>
<path d="M53 72h1v1h-1v-1z" fill="rgb(255,255,255)"/>
<path d="M54 72h1v1h-1v-1z" fill="rgb(16,65,74)"/>
<path d="M55 72h1v1h-1v-1z" fill="rgb(255,255,255)"/>
<path d="M56 72h2v1h-2v-1z" fill="rgb(16,16,16)"/>
<path d="M53 73h3v1h-3v-1z" fill="rgb(16,16,16)"/>
</svg>
