<?xml version="1.0" encoding="utf-8"?>
<!-- generated at drububu.com  -->
<!DOCTYPE svg PUBLIC "-//W3C//DTD SVG 1.1//EN" "http://www.w3.org/Graphics/SVG/1.1/DTD/svg11.dtd">
<svg version="1.1" preserveAspectRatio="xMinYMin meet" xmlns="http://www.w3.org/2000/svg" xmlns:xlink="http://www.w3.org/1999/xlink" x="0px" y="0px" width="96px" height="96px" viewBox="0 0 96 96">
<path d="M0 0h96v96h-96v-96z" fill="transparent"/>
<path d="M57 22h6v1h-6v-1z" fill="rgb(197,131,82)"/>
<path d="M55 23h2v1h-2v-1z" fill="rgb(197,131,82)"/>
<path d="M57 23h6v1h2v1h2v1h1v1h1v2h-1v-1h-1v-1h-1v-1h-2v-1h-2v-1h-5v-1z" fill="rgb(255,205,156)"/>
<path d="M63 23h2v1h-2v-1z" fill="rgb(197,131,82)"/>
<path d="M54 24h1v1h-1v-1z" fill="rgb(197,131,82)"/>
<path d="M55 24h2v1h-2v-1z" fill="rgb(255,205,156)"/>
<path d="M57 24h1v1h-1v-1z" fill="rgb(197,131,82)"/>
<path d="M58 24h3v1h-3v-1z" fill="rgb(148,82,16)"/>
<path d="M61 24h1v1h-1v-1z" fill="rgb(197,131,82)"/>
<path d="M65 24h2v1h-2v-1z" fill="rgb(197,131,82)"/>
<path d="M53 25h1v2h-1v-2z" fill="rgb(197,131,82)"/>
<path d="M54 25h1v1h-1v-1z" fill="rgb(255,205,156)"/>
<path d="M55 25h1v1h-1v-1z" fill="rgb(148,82,16)"/>
<path d="M56 25h1v1h-1v-1z" fill="rgb(197,131,82)"/>
<path d="M62 25h1v1h-1v-1z" fill="rgb(148,82,16)"/>
<path d="M63 25h1v1h-1v-1z" fill="rgb(197,131,82)"/>
<path d="M67 25h1v1h-1v-1z" fill="rgb(197,131,82)"/>
<path d="M54 26h1v1h-1v-1z" fill="rgb(148,82,16)"/>
<path d="M64 26h1v1h-1v-1z" fill="rgb(148,82,16)"/>
<path d="M65 26h1v1h-1v-1z" fill="rgb(197,131,82)"/>
<path d="M68 26h1v1h-1v-1z" fill="rgb(197,131,82)"/>
<path d="M66 27h1v1h-1v-1z" fill="rgb(197,131,82)"/>
<path d="M69 27h1v2h-1v-2z" fill="rgb(197,131,82)"/>
<path d="M39 28h1v1h-1v-1z" fill="rgb(164,115,41)"/>
<path d="M67 28h1v2h-1v-2z" fill="rgb(197,131,82)"/>
<path d="M70 28h1v1h-1v-1z" fill="rgb(148,82,16)"/>
<path d="M38 29h1v2h-1v-2z" fill="rgb(164,115,41)"/>
<path d="M39 29h1v4h1v-1h2v-1h2v1h-1v2h-2v1h-4v1h-2v1h-1v2h-3v-2h-3v-1h2v-1h2v-1h1v-1h1
	v-2h1v2h1v-1h1v-1h1v-2z" fill="rgb(222,180,74)"/>
<path d="M40 29h1v2h-1v-2z" fill="rgb(197,148,57)"/>
<path d="M68 29h1v1h-1v-1z" fill="rgb(148,82,16)"/>
<path d="M69 29h2v1h-1v1h-1v-2z" fill="rgb(255,205,156)"/>
<path d="M71 29h1v1h-1v-1z" fill="rgb(197,131,82)"/>
<path d="M27 30h4v1h-4v-1z" fill="rgb(164,115,41)"/>
<path d="M35 30h1v1h-1v-1z" fill="rgb(164,115,41)"/>
<path d="M42 30h3v1h-3v-1z" fill="rgb(164,115,41)"/>
<path d="M48 30h1v1h-1v-1z" fill="rgb(164,115,41)"/>
<path d="M49 30h4v1h-4v-1z" fill="rgb(106,57,0)"/>
<path d="M53 30h1v1h-1v-1z" fill="rgb(164,115,41)"/>
<path d="M68 30h1v2h-1v-2z" fill="rgb(197,131,82)"/>
<path d="M70 30h1v1h-1v-1z" fill="rgb(197,131,82)"/>
<path d="M71 30h1v1h-1v-1z" fill="rgb(148,82,16)"/>
<path d="M26 31h1v1h1v3h-1v-2h-1v-2z" fill="rgb(106,57,0)"/>
<path d="M27 31h4v1h-4v-1z" fill="rgb(222,180,74)"/>
<path d="M31 31h2v1h-2v-1z" fill="rgb(164,115,41)"/>
<path d="M34 31h1v1h-1v-1z" fill="rgb(164,115,41)"/>
<path d="M36 31h2v1h-1v1h-1v-2z" fill="rgb(164,115,41)"/>
<path d="M40 31h2v1h-2v-1z" fill="rgb(164,115,41)"/>
<path d="M42 31h1v1h-1v-1z" fill="rgb(197,148,57)"/>
<path d="M45 31h1v1h-1v-1z" fill="rgb(164,115,41)"/>
<path d="M46 31h2v1h-2v-1z" fill="rgb(106,57,0)"/>
<path d="M48 31h4v1h-3v1h-2v1h-2v-1h1v-1h2v-1z" fill="rgb(222,180,74)"/>
<path d="M52 31h2v1h2v1h-1v1h-1v-1h-1v-1h-1v-1z" fill="rgb(197,148,57)"/>
<path d="M54 31h1v1h-1v-1z" fill="rgb(164,115,41)"/>
<path d="M55 31h1v1h-1v-1z" fill="rgb(106,57,0)"/>
<path d="M69 31h1v1h-1v-1z" fill="rgb(148,82,16)"/>
<path d="M70 31h2v2h-1v1h-1v-3z" fill="rgb(255,205,156)"/>
<path d="M72 31h1v1h-1v-1z" fill="rgb(148,82,16)"/>
<path d="M28 32h1v3h2v1h-2v1h-1v-5z" fill="rgb(164,115,41)"/>
<path d="M29 32h1v1h1v2h-2v-3z" fill="rgb(148,82,16)"/>
<path d="M30 32h1v1h-1v-1z" fill="rgb(197,148,57)"/>
<path d="M31 32h2v2h-1v-1h-1v-1z" fill="rgb(222,180,74)"/>
<path d="M33 32h1v2h-1v-2z" fill="rgb(164,115,41)"/>
<path d="M34 32h1v1h-1v-1z" fill="rgb(197,148,57)"/>
<path d="M40 32h1v1h-1v-1z" fill="rgb(197,148,57)"/>
<path d="M44 32h1v1h-1v-1z" fill="rgb(197,148,57)"/>
<path d="M45 32h1v1h-1v-1z" fill="rgb(106,57,0)"/>
<path d="M49 32h1v1h-1v-1z" fill="rgb(197,148,57)"/>
<path d="M50 32h1v1h-1v-1z" fill="rgb(106,57,0)"/>
<path d="M51 32h1v1h-1v-1z" fill="rgb(16,16,16)"/>
<path d="M52 32h1v1h-1v-1z" fill="rgb(106,57,0)"/>
<path d="M56 32h1v1h-1v-1z" fill="rgb(106,57,0)"/>
<path d="M69 32h1v2h-1v-2z" fill="rgb(197,131,82)"/>
<path d="M72 32h1v1h-1v-1z" fill="rgb(197,131,82)"/>
<path d="M31 33h1v1h-1v-1z" fill="rgb(197,148,57)"/>
<path d="M44 33h1v1h-1v-1z" fill="rgb(106,57,0)"/>
<path d="M47 33h1v1h-1v-1z" fill="rgb(197,148,57)"/>
<path d="M48 33h1v1h-1v-1z" fill="rgb(16,16,16)"/>
<path d="M49 33h1v1h-1v-1z" fill="rgb(106,57,0)"/>
<path d="M50 33h2v5h-1v1h-5v-2h1v-2h1v-1h2v-1z" fill="rgb(148,82,16)"/>
<path d="M52 33h2v1h-1v4h-1v-5z" fill="rgb(164,115,41)"/>
<path d="M55 33h1v1h-1v-1z" fill="rgb(16,16,16)"/>
<path d="M71 33h1v1h-1v-1z" fill="rgb(197,131,82)"/>
<path d="M72 33h2v3h-1v-2h-1v-1z" fill="rgb(148,82,16)"/>
<path d="M31 34h2v1h-2v-1z" fill="rgb(164,115,41)"/>
<path d="M42 34h5v1h-1v2h-2v1h2v1h-3v1h-7v-1h-1v-1h3v1h3v-4h1v-1z" fill="rgb(197,148,57)"/>
<path d="M47 34h1v1h-1v-1z" fill="rgb(16,16,16)"/>
<path d="M53 34h1v2h1v1h-1v1h-1v-4z" fill="rgb(197,148,57)"/>
<path d="M54 34h1v1h-1v-1z" fill="rgb(16,16,16)"/>
<path d="M70 34h1v3h-1v-3z" fill="rgb(148,82,16)"/>
<path d="M71 34h2v2h1v5h-1v2h-1v-6h-1v-3z" fill="rgb(255,205,156)"/>
<path d="M38 35h1v1h-1v-1z" fill="rgb(197,148,57)"/>
<path d="M39 35h2v1h-2v-1z" fill="rgb(164,115,41)"/>
<path d="M46 35h1v1h-1v-1z" fill="rgb(16,16,16)"/>
<path d="M54 35h1v1h-1v-1z" fill="rgb(164,115,41)"/>
<path d="M55 35h1v1h-1v-1z" fill="rgb(106,57,0)"/>
<path d="M57 35h2v1h-2v-1z" fill="rgb(164,115,41)"/>
<path d="M36 36h1v1h-1v-1z" fill="rgb(197,148,57)"/>
<path d="M37 36h1v1h-1v-1z" fill="rgb(16,16,16)"/>
<path d="M38 36h1v1h-1v-1z" fill="rgb(164,115,41)"/>
<path d="M39 36h2v2h-2v-2z" fill="rgb(255,255,255)"/>
<path d="M46 36h1v1h-1v-1z" fill="rgb(106,57,0)"/>
<path d="M55 36h1v1h-1v-1z" fill="rgb(16,16,16)"/>
<path d="M56 36h1v1h-1v-1z" fill="rgb(164,115,41)"/>
<path d="M57 36h1v2h2v1h-1v3h2v1h1v1h-1v1h1v1h-2v2h-2v2h1v1h-1v1h-3v1h-1v2h-1v1h-2v-1h-1
	v-1h-1v-1h-3v1h-2v-2h-1v-1h5v1h6v-1h1v-1h-1v-1h-4v-1h-6v-1h5v-1h1v-1h-1v-1h-8
	v-1h7v-1h5v-1h1v-1h1v-2h1v-1h1v-1z" fill="rgb(197,148,57)"/>
<path d="M58 36h1v1h1v1h-2v-2z" fill="rgb(106,57,0)"/>
<path d="M74 36h1v8h-1v-8z" fill="rgb(148,82,16)"/>
<path d="M27 37h1v1h-1v-1z" fill="rgb(164,115,41)"/>
<path d="M28 37h3v1h-1v1h1v-1h1v1h3v1h1v2h1v-1h6v-1h9v1h-8v1h-4v1h-3v1h9v1h3v1h-4v-1h-7
	v1h1v1h2v1h4v1h5v1h4v1h-5v-1h-9v1h3v1h-1v1h-2v1h-4v-1h-1v-1h1v-2h1v-4h-1v-2h-1
	v-1h-1v-1h-1v-1h-1v-1h-5v-1h2v-1h-1v-1z" fill="rgb(246,246,164)"/>
<path d="M31 37h1v1h-1v-1z" fill="rgb(106,57,0)"/>
<path d="M35 37h1v1h-1v-1z" fill="rgb(164,115,41)"/>
<path d="M36 37h1v1h-1v-1z" fill="rgb(16,16,16)"/>
<path d="M37 37h1v1h-1v-1z" fill="rgb(255,255,255)"/>
<path d="M38 37h1v1h-1v-1z" fill="rgb(16,16,16)"/>
<path d="M44 37h1v1h-1v-1z" fill="rgb(164,115,41)"/>
<path d="M45 37h1v1h-1v-1z" fill="rgb(106,57,0)"/>
<path d="M54 37h1v1h-1v-1z" fill="rgb(164,115,41)"/>
<path d="M55 37h1v1h-1v-1z" fill="rgb(106,57,0)"/>
<path d="M71 37h1v3h-1v-3z" fill="rgb(197,131,82)"/>
<path d="M27 38h1v1h-1v-1z" fill="rgb(131,90,41)"/>
<path d="M28 38h1v1h-1v-1z" fill="rgb(197,148,57)"/>
<path d="M30 38h1v1h-1v-1z" fill="rgb(164,115,41)"/>
<path d="M38 38h3v1h-3v-1z" fill="rgb(164,115,41)"/>
<path d="M51 38h2v1h1v1h-4v-1h1v-1z" fill="rgb(197,148,57)"/>
<path d="M53 38h1v1h-1v-1z" fill="rgb(164,115,41)"/>
<path d="M54 38h1v2h-1v-2z" fill="rgb(16,16,16)"/>
<path d="M60 38h1v1h-1v-1z" fill="rgb(164,115,41)"/>
<path d="M20 39h4v1h-4v-1z" fill="rgb(164,131,49)"/>
<path d="M26 39h1v1h-1v-1z" fill="rgb(131,90,41)"/>
<path d="M35 39h1v1h-1v-1z" fill="rgb(222,180,74)"/>
<path d="M43 39h5v1h-5v-1z" fill="rgb(106,57,0)"/>
<path d="M48 39h2v1h-2v-1z" fill="rgb(164,115,41)"/>
<path d="M59 39h1v1h-1v-1z" fill="rgb(164,115,41)"/>
<path d="M60 39h1v1h-1v-1z" fill="rgb(106,57,0)"/>
<path d="M19 40h1v1h-1v-1z" fill="rgb(131,90,41)"/>
<path d="M20 40h4v1h1v1h-2v-1h-3v-1z" fill="rgb(238,205,115)"/>
<path d="M24 40h3v1h-3v-1z" fill="rgb(164,131,49)"/>
<path d="M27 40h1v1h-1v-1z" fill="rgb(238,205,115)"/>
<path d="M28 40h1v1h-1v-1z" fill="rgb(164,131,49)"/>
<path d="M29 40h2v1h-2v-1z" fill="rgb(131,90,41)"/>
<path d="M31 40h1v1h-1v-1z" fill="rgb(164,131,49)"/>
<path d="M36 40h1v1h-1v-1z" fill="rgb(238,205,115)"/>
<path d="M37 40h2v1h-2v-1z" fill="rgb(164,131,49)"/>
<path d="M39 40h4v1h-4v-1z" fill="rgb(164,115,41)"/>
<path d="M52 40h1v1h-1v-1z" fill="rgb(164,115,41)"/>
<path d="M53 40h1v1h-1v-1z" fill="rgb(16,16,16)"/>
<path d="M59 40h1v1h-1v-1z" fill="rgb(106,57,0)"/>
<path d="M71 40h1v5h-1v-5z" fill="rgb(148,82,16)"/>
<path d="M20 41h1v1h-1v-1z" fill="rgb(131,90,41)"/>
<path d="M21 41h2v1h-2v-1z" fill="rgb(16,16,16)"/>
<path d="M25 41h1v3h-1v-3z" fill="rgb(131,90,41)"/>
<path d="M26 41h1v2h-1v-2z" fill="rgb(246,246,164)"/>
<path d="M27 41h1v4h-5v-1h4v-3z" fill="rgb(164,131,49)"/>
<path d="M28 41h1v1h-1v-1z" fill="rgb(180,180,180)"/>
<path d="M29 41h3v1h1v3h-1v3h-1v-3h-1v3h-1v-4h-1v-2h1v-1z" fill="rgb(255,255,255)"/>
<path d="M32 41h1v1h-1v-1z" fill="rgb(164,131,49)"/>
<path d="M36 41h1v1h-1v-1z" fill="rgb(164,131,49)"/>
<path d="M44 41h4v1h-4v-1z" fill="rgb(164,131,49)"/>
<path d="M48 41h1v1h-1v-1z" fill="rgb(106,57,0)"/>
<path d="M49 41h4v1h-4v-1z" fill="rgb(16,16,16)"/>
<path d="M59 41h1v1h-1v-1z" fill="rgb(164,115,41)"/>
<path d="M60 41h1v1h-1v-1z" fill="rgb(106,57,0)"/>
<path d="M61 41h1v2h-1v-2z" fill="rgb(164,115,41)"/>
<path d="M73 41h1v6h-1v-1h-2v-1h1v-2h1v-2z" fill="rgb(197,131,82)"/>
<path d="M23 42h2v1h-2v-1z" fill="rgb(16,16,16)"/>
<path d="M33 42h1v2h-1v-2z" fill="rgb(180,180,180)"/>
<path d="M40 42h3v1h-3v-1z" fill="rgb(164,131,49)"/>
<path d="M43 42h4v1h-4v-1z" fill="rgb(16,16,16)"/>
<path d="M47 42h1v1h-1v-1z" fill="rgb(164,115,41)"/>
<path d="M62 42h1v2h-1v-2z" fill="rgb(106,57,0)"/>
<path d="M26 43h1v1h-1v-1z" fill="rgb(238,205,115)"/>
<path d="M34 43h1v2h1v3h1v1h-1v2h-1v2h-1v-1h-1v-2h-1v-1h-3v-1h3v-1h1v-3h1v-1z" fill="rgb(16,16,16)"/>
<path d="M37 43h1v1h-1v-1z" fill="rgb(164,131,49)"/>
<path d="M38 43h3v1h-3v-1z" fill="rgb(164,115,41)"/>
<path d="M28 44h1v1h-1v-1z" fill="rgb(180,180,180)"/>
<path d="M35 44h1v1h-1v-1z" fill="rgb(164,131,49)"/>
<path d="M46 44h1v1h-1v-1z" fill="rgb(164,115,41)"/>
<path d="M47 44h2v1h-2v-1z" fill="rgb(106,57,0)"/>
<path d="M61 44h1v1h-1v-1z" fill="rgb(106,57,0)"/>
<path d="M74 44h1v4h-1v-4z" fill="rgb(16,16,16)"/>
<path d="M22 45h1v1h-1v-1z" fill="rgb(131,90,41)"/>
<path d="M23 45h3v1h-3v-1z" fill="rgb(238,205,115)"/>
<path d="M26 45h1v4h-1v-4z" fill="rgb(131,90,41)"/>
<path d="M27 45h1v4h-1v-4z" fill="rgb(238,205,115)"/>
<path d="M28 45h1v1h-1v-1z" fill="rgb(115,115,115)"/>
<path d="M30 45h1v1h-1v-1z" fill="rgb(180,180,180)"/>
<path d="M32 45h1v1h-1v-1z" fill="rgb(180,180,180)"/>
<path d="M38 45h2v1h-2v-1z" fill="rgb(106,57,0)"/>
<path d="M40 45h3v1h-3v-1z" fill="rgb(16,16,16)"/>
<path d="M43 45h1v1h-1v-1z" fill="rgb(106,57,0)"/>
<path d="M44 45h1v1h-1v-1z" fill="rgb(164,131,49)"/>
<path d="M49 45h1v1h-1v-1z" fill="rgb(106,57,0)"/>
<path d="M62 45h1v2h-1v-2z" fill="rgb(106,57,0)"/>
<path d="M70 45h1v1h2v1h-2v1h-1v-3z" fill="rgb(148,82,16)"/>
<path d="M23 46h1v1h-1v-1z" fill="rgb(131,90,41)"/>
<path d="M24 46h2v1h-2v-1z" fill="rgb(16,16,16)"/>
<path d="M28 46h1v2h-1v-2z" fill="rgb(16,16,16)"/>
<path d="M30 46h1v2h-1v-2z" fill="rgb(115,115,115)"/>
<path d="M32 46h1v1h-1v-1z" fill="rgb(115,115,115)"/>
<path d="M36 46h1v1h-1v-1z" fill="rgb(238,205,115)"/>
<path d="M39 46h2v1h-2v-1z" fill="rgb(164,131,49)"/>
<path d="M41 46h3v1h-3v-1z" fill="rgb(197,148,57)"/>
<path d="M44 46h1v1h-1v-1z" fill="rgb(106,57,0)"/>
<path d="M45 46h3v1h-3v-1z" fill="rgb(16,16,16)"/>
<path d="M48 46h1v1h-1v-1z" fill="rgb(106,57,0)"/>
<path d="M60 46h2v1h1v1h2v1h-1v1h1v3h1v8h-1v2h-1v2h-2v1h-3v1h-1v-2h-2v-2h-1v-1h1v-1h-2
	v-1h-1v-1h-1v-3h1v-1h1v-2h1v-1h3v-1h1v-1h-1v-2h2v-2z" fill="rgb(164,115,41)"/>
<path d="M36 47h1v1h-1v-1z" fill="rgb(164,131,49)"/>
<path d="M41 47h3v1h-3v-1z" fill="rgb(164,115,41)"/>
<path d="M63 47h2v1h-2v-1z" fill="rgb(106,57,0)"/>
<path d="M71 47h2v3h-1v-1h-2v-1h1v-1z" fill="rgb(197,131,82)"/>
<path d="M73 47h1v2h-1v-2z" fill="rgb(148,82,16)"/>
<path d="M25 48h1v1h-1v-1z" fill="rgb(164,131,49)"/>
<path d="M28 48h1v2h-2v-1h1v-1z" fill="rgb(164,131,49)"/>
<path d="M45 48h1v1h-1v-1z" fill="rgb(164,131,49)"/>
<path d="M46 48h4v1h-4v-1z" fill="rgb(164,115,41)"/>
<path d="M65 48h1v1h-1v-1z" fill="rgb(16,16,16)"/>
<path d="M69 48h1v1h2v1h-3v-2z" fill="rgb(148,82,16)"/>
<path d="M23 49h2v1h-2v-1z" fill="rgb(164,131,49)"/>
<path d="M25 49h2v1h-2v-1z" fill="rgb(238,205,115)"/>
<path d="M29 49h1v3h1v-3h1v2h1v2h1v1h-4v-1h-1v-4z" fill="rgb(255,255,255)"/>
<path d="M30 49h1v2h-1v-2z" fill="rgb(115,115,115)"/>
<path d="M36 49h1v1h-1v-1z" fill="rgb(164,131,49)"/>
<path d="M50 49h2v1h-2v-1z" fill="rgb(164,115,41)"/>
<path d="M52 49h2v1h-2v-1z" fill="rgb(106,57,0)"/>
<path d="M64 49h1v1h-1v-1z" fill="rgb(16,16,16)"/>
<path d="M73 49h1v2h-1v-2z" fill="rgb(16,16,16)"/>
<path d="M22 50h1v1h-1v-1z" fill="rgb(131,90,41)"/>
<path d="M23 50h2v1h-2v-1z" fill="rgb(238,205,115)"/>
<path d="M25 50h2v1h-2v-1z" fill="rgb(16,16,16)"/>
<path d="M27 50h1v1h-1v-1z" fill="rgb(131,90,41)"/>
<path d="M28 50h1v3h-1v-3z" fill="rgb(238,205,115)"/>
<path d="M32 50h1v1h-1v-1z" fill="rgb(180,180,180)"/>
<path d="M40 50h1v1h-1v-1z" fill="rgb(164,131,49)"/>
<path d="M41 50h1v1h-1v-1z" fill="rgb(131,90,41)"/>
<path d="M42 50h1v1h-1v-1z" fill="rgb(106,57,0)"/>
<path d="M43 50h3v1h-3v-1z" fill="rgb(16,16,16)"/>
<path d="M46 50h2v1h-2v-1z" fill="rgb(106,57,0)"/>
<path d="M48 50h1v1h-1v-1z" fill="rgb(164,131,49)"/>
<path d="M54 50h1v1h-1v-1z" fill="rgb(106,57,0)"/>
<path d="M65 50h1v2h-1v-2z" fill="rgb(16,16,16)"/>
<path d="M68 50h1v2h-2v-1h1v-1z" fill="rgb(148,82,16)"/>
<path d="M69 50h3v3h-2v-1h-1v-2z" fill="rgb(197,131,82)"/>
<path d="M72 50h1v1h-1v-1z" fill="rgb(148,82,16)"/>
<path d="M21 51h1v1h1v1h-2v-2z" fill="rgb(131,90,41)"/>
<path d="M22 51h1v1h-1v-1z" fill="rgb(238,205,115)"/>
<path d="M23 51h1v1h-1v-1z" fill="rgb(131,90,41)"/>
<path d="M24 51h1v1h-1v-1z" fill="rgb(16,16,16)"/>
<path d="M27 51h1v2h-1v-2z" fill="rgb(16,16,16)"/>
<path d="M30 51h1v1h-1v-1z" fill="rgb(180,180,180)"/>
<path d="M35 51h1v1h-1v-1z" fill="rgb(164,131,49)"/>
<path d="M48 51h1v1h-1v-1z" fill="rgb(106,57,0)"/>
<path d="M49 51h3v1h-3v-1z" fill="rgb(16,16,16)"/>
<path d="M52 51h2v1h-2v-1z" fill="rgb(106,57,0)"/>
<path d="M72 51h1v2h-1v-2z" fill="rgb(16,16,16)"/>
<path d="M33 52h1v1h-1v-1z" fill="rgb(180,180,180)"/>
<path d="M42 52h2v3h-1v1h-1v2h1v1h2v1h2v1h-1v1h-1v-1h-1v1h1v1h2v-2h4v-1h2v1h2v1h-1v1h2v2
	h1v1h-1v1h-8v-1h-5v-1h-2v-1h-1v-1h-1v-1h-1v1h-1v-2h-1v-1h-1v-1h-2v-1h2v-1h-3
	v-1h-2v-1h4v-1h1v-1h1v1h4v-1h2v-1z" fill="rgb(238,205,115)"/>
<path d="M65 52h1v1h-1v-1z" fill="rgb(106,57,0)"/>
<path d="M66 52h1v1h-1v-1z" fill="rgb(16,16,16)"/>
<path d="M67 52h2v1h1v3h-1v-1h-1v-1h-1v-2z" fill="rgb(197,131,82)"/>
<path d="M69 52h1v1h-1v-1z" fill="rgb(148,82,16)"/>
<path d="M28 53h1v2h-1v-2z" fill="rgb(16,16,16)"/>
<path d="M29 53h1v1h-1v-1z" fill="rgb(164,131,49)"/>
<path d="M34 53h1v1h-1v-1z" fill="rgb(164,131,49)"/>
<path d="M46 53h3v1h-2v1h-2v-1h1v-1z" fill="rgb(148,82,16)"/>
<path d="M66 53h1v1h-1v-1z" fill="rgb(106,57,0)"/>
<path d="M70 53h1v2h-1v-2z" fill="rgb(148,82,16)"/>
<path d="M71 53h1v2h-1v-2z" fill="rgb(16,16,16)"/>
<path d="M29 54h1v1h-1v-1z" fill="rgb(238,205,115)"/>
<path d="M30 54h1v1h-1v-1z" fill="rgb(164,131,49)"/>
<path d="M31 54h1v1h-1v-1z" fill="rgb(131,90,41)"/>
<path d="M32 54h1v1h-1v-1z" fill="rgb(16,16,16)"/>
<path d="M33 54h1v1h-1v-1z" fill="rgb(131,90,41)"/>
<path d="M44 54h1v1h-1v-1z" fill="rgb(16,16,16)"/>
<path d="M47 54h2v2h-2v2h-1v-3h1v-1z" fill="rgb(255,205,156)"/>
<path d="M49 54h1v1h-1v-1z" fill="rgb(16,16,16)"/>
<path d="M66 54h1v4h1v1h-1v2h-1v-7z" fill="rgb(16,16,16)"/>
<path d="M67 54h1v1h-1v-1z" fill="rgb(148,82,16)"/>
<path d="M29 55h1v1h-1v-1z" fill="rgb(16,16,16)"/>
<path d="M37 55h1v1h-1v-1z" fill="rgb(164,131,49)"/>
<path d="M43 55h1v1h-1v-1z" fill="rgb(16,16,16)"/>
<path d="M44 55h1v1h-1v-1z" fill="rgb(255,205,156)"/>
<path d="M45 55h1v1h-1v-1z" fill="rgb(197,148,57)"/>
<path d="M49 55h2v1h-2v-1z" fill="rgb(148,82,16)"/>
<path d="M67 55h1v2h-1v-2z" fill="rgb(197,131,82)"/>
<path d="M68 55h1v2h-1v-2z" fill="rgb(148,82,16)"/>
<path d="M70 55h1v1h-1v-1z" fill="rgb(16,16,16)"/>
<path d="M27 56h2v3h-1v-2h-1v-1z" fill="rgb(148,82,16)"/>
<path d="M29 56h1v1h-1v-1z" fill="rgb(197,131,82)"/>
<path d="M30 56h2v1h-2v-1z" fill="rgb(16,16,16)"/>
<path d="M35 56h2v1h-2v-1z" fill="rgb(164,131,49)"/>
<path d="M42 56h1v2h-1v-2z" fill="rgb(148,82,16)"/>
<path d="M43 56h1v2h-1v-2z" fill="rgb(255,205,156)"/>
<path d="M44 56h1v1h-1v-1z" fill="rgb(197,131,82)"/>
<path d="M45 56h1v2h-1v-2z" fill="rgb(148,82,16)"/>
<path d="M47 56h1v1h-1v-1z" fill="rgb(197,131,82)"/>
<path d="M48 56h1v1h-1v-1z" fill="rgb(16,16,16)"/>
<path d="M49 56h2v1h-1v1h-1v-2z" fill="rgb(255,205,156)"/>
<path d="M51 56h1v2h-1v-2z" fill="rgb(148,82,16)"/>
<path d="M69 56h1v1h-1v-1z" fill="rgb(16,16,16)"/>
<path d="M26 57h1v2h-1v-2z" fill="rgb(148,82,16)"/>
<path d="M27 57h1v2h-1v-2z" fill="rgb(255,205,156)"/>
<path d="M29 57h1v2h-1v-2z" fill="rgb(255,205,156)"/>
<path d="M30 57h1v1h-1v-1z" fill="rgb(197,131,82)"/>
<path d="M31 57h1v1h-1v-1z" fill="rgb(148,82,16)"/>
<path d="M32 57h3v1h-3v-1z" fill="rgb(16,16,16)"/>
<path d="M44 57h1v1h-1v-1z" fill="rgb(16,16,16)"/>
<path d="M47 57h1v1h-1v-1z" fill="rgb(16,16,16)"/>
<path d="M48 57h1v1h-1v-1z" fill="rgb(148,82,16)"/>
<path d="M50 57h1v1h-1v-1z" fill="rgb(16,16,16)"/>
<path d="M67 57h1v1h-1v-1z" fill="rgb(148,82,16)"/>
<path d="M68 57h1v1h-1v-1z" fill="rgb(16,16,16)"/>
<path d="M30 58h2v2h-1v-1h-1v-1z" fill="rgb(16,16,16)"/>
<path d="M32 58h1v1h-1v-1z" fill="rgb(148,82,16)"/>
<path d="M43 58h1v1h-1v-1z" fill="rgb(16,16,16)"/>
<path d="M44 58h1v1h-1v-1z" fill="rgb(148,82,16)"/>
<path d="M45 58h2v1h-2v-1z" fill="rgb(16,16,16)"/>
<path d="M47 58h2v1h1v1h-3v-2z" fill="rgb(197,131,82)"/>
<path d="M49 58h1v1h-1v-1z" fill="rgb(16,16,16)"/>
<path d="M50 58h1v1h-1v-1z" fill="rgb(197,131,82)"/>
<path d="M51 58h1v2h-1v-2z" fill="rgb(16,16,16)"/>
<path d="M26 59h2v1h-2v-1z" fill="rgb(16,16,16)"/>
<path d="M29 59h1v1h-1v-1z" fill="rgb(16,16,16)"/>
<path d="M32 59h1v1h-1v-1z" fill="rgb(255,205,156)"/>
<path d="M33 59h1v1h-1v-1z" fill="rgb(131,90,41)"/>
<path d="M34 59h1v1h-1v-1z" fill="rgb(164,131,49)"/>
<path d="M45 59h2v1h-2v-1z" fill="rgb(148,82,16)"/>
<path d="M50 59h1v1h-1v-1z" fill="rgb(148,82,16)"/>
<path d="M52 59h1v1h-1v-1z" fill="rgb(164,131,49)"/>
<path d="M32 60h2v1h-2v-1z" fill="rgb(16,16,16)"/>
<path d="M34 60h1v1h-1v-1z" fill="rgb(131,90,41)"/>
<path d="M35 60h1v1h-1v-1z" fill="rgb(164,131,49)"/>
<path d="M47 60h1v1h-1v-1z" fill="rgb(148,82,16)"/>
<path d="M48 60h3v1h-3v-1z" fill="rgb(16,16,16)"/>
<path d="M53 60h1v1h-1v-1z" fill="rgb(164,131,49)"/>
<path d="M36 61h1v2h-1v-2z" fill="rgb(131,90,41)"/>
<path d="M39 61h1v1h-1v-1z" fill="rgb(164,131,49)"/>
<path d="M44 61h1v1h-1v-1z" fill="rgb(164,131,49)"/>
<path d="M46 61h1v2h-2v-1h1v-1z" fill="rgb(164,131,49)"/>
<path d="M55 61h1v1h-1v-1z" fill="rgb(164,131,49)"/>
<path d="M65 61h1v3h-1v1h-1v-2h1v-2z" fill="rgb(16,16,16)"/>
<path d="M38 62h1v1h-1v-1z" fill="rgb(131,90,41)"/>
<path d="M42 62h1v1h-1v-1z" fill="rgb(131,90,41)"/>
<path d="M54 62h1v1h-1v-1z" fill="rgb(164,131,49)"/>
<path d="M37 63h1v1h-1v-1z" fill="rgb(131,90,41)"/>
<path d="M39 63h1v1h-1v-1z" fill="rgb(131,90,41)"/>
<path d="M41 63h1v1h-1v-1z" fill="rgb(131,90,41)"/>
<path d="M40 64h1v1h-1v-1z" fill="rgb(131,90,41)"/>
<path d="M41 65h2v1h-2v-1z" fill="rgb(131,90,41)"/>
<path d="M57 65h1v2h-2v-1h1v-1z" fill="rgb(164,131,49)"/>
<path d="M62 65h2v1h1v1h-2v-1h-1v-1z" fill="rgb(16,16,16)"/>
<path d="M43 66h2v1h-2v-1z" fill="rgb(131,90,41)"/>
<path d="M45 66h2v1h-2v-1z" fill="rgb(16,16,16)"/>
<path d="M47 66h1v1h-1v-1z" fill="rgb(131,90,41)"/>
<path d="M59 66h3v1h-3v-1z" fill="rgb(106,57,0)"/>
<path d="M62 66h1v1h3v1h1v1h-1v1h-1v-2h-1v1h-1v2h-1v-2h-2v-1h-1v-1h3v-1z" fill="rgb(197,131,82)"/>
<path d="M65 66h1v1h-1v-1z" fill="rgb(148,82,16)"/>
<path d="M40 67h3v1h-3v-1z" fill="rgb(148,82,16)"/>
<path d="M43 67h5v1h1v1h-2v1h-3v1h-1v1h-1v-2h-1v1h-1v-1h-1v-1h1v-1h3v-1z" fill="rgb(197,131,82)"/>
<path d="M48 67h1v1h-1v-1z" fill="rgb(131,90,41)"/>
<path d="M49 67h10v1h-2v1h-1v-1h-6v1h-1v-2z" fill="rgb(16,16,16)"/>
<path d="M66 67h1v1h-1v-1z" fill="rgb(148,82,16)"/>
<path d="M39 68h1v1h-1v-1z" fill="rgb(148,82,16)"/>
<path d="M57 68h2v3h-1v-2h-1v-1z" fill="rgb(197,131,82)"/>
<path d="M59 68h1v1h-1v-1z" fill="rgb(148,82,16)"/>
<path d="M64 68h1v3h-1v-3z" fill="rgb(148,82,16)"/>
<path d="M67 68h1v2h-1v-2z" fill="rgb(148,82,16)"/>
<path d="M38 69h1v1h-1v-1z" fill="rgb(148,82,16)"/>
<path d="M42 69h1v1h-1v-1z" fill="rgb(148,82,16)"/>
<path d="M47 69h2v1h-2v-1z" fill="rgb(16,16,16)"/>
<path d="M57 69h1v1h-1v-1z" fill="rgb(16,16,16)"/>
<path d="M59 69h1v3h-1v-3z" fill="rgb(255,205,156)"/>
<path d="M60 69h1v1h1v1h-2v-2z" fill="rgb(148,82,16)"/>
<path d="M61 69h1v1h-1v-1z" fill="rgb(16,16,16)"/>
<path d="M63 69h1v3h-1v-3z" fill="rgb(255,205,156)"/>
<path d="M66 69h1v2h-1v-2z" fill="rgb(255,205,156)"/>
<path d="M38 70h1v1h-1v-1z" fill="rgb(16,16,16)"/>
<path d="M39 70h1v1h-1v-1z" fill="rgb(148,82,16)"/>
<path d="M41 70h1v2h-3v-1h2v-1z" fill="rgb(16,16,16)"/>
<path d="M44 70h3v1h-3v-1z" fill="rgb(16,16,16)"/>
<path d="M57 70h1v1h-1v-1z" fill="rgb(148,82,16)"/>
<path d="M65 70h1v1h-1v-1z" fill="rgb(16,16,16)"/>
<path d="M67 70h1v2h-2v-1h1v-1z" fill="rgb(16,16,16)"/>
<path d="M43 71h1v1h-1v-1z" fill="rgb(16,16,16)"/>
<path d="M58 71h1v1h-1v-1z" fill="rgb(148,82,16)"/>
<path d="M60 71h1v2h-2v-1h1v-1z" fill="rgb(16,16,16)"/>
<path d="M62 71h1v1h-1v-1z" fill="rgb(148,82,16)"/>
<path d="M64 71h1v2h-2v-1h1v-1z" fill="rgb(16,16,16)"/>
<path d="M42 72h1v1h-1v-1z" fill="rgb(16,16,16)"/>
</svg>
