<?xml version="1.0" encoding="utf-8"?>
<!-- generated at drububu.com  -->
<!DOCTYPE svg PUBLIC "-//W3C//DTD SVG 1.1//EN" "http://www.w3.org/Graphics/SVG/1.1/DTD/svg11.dtd">
<svg version="1.1" preserveAspectRatio="xMinYMin meet" xmlns="http://www.w3.org/2000/svg" xmlns:xlink="http://www.w3.org/1999/xlink" x="0px" y="0px" width="96px" height="96px" viewBox="0 0 96 96">
<path d="M0 0h96v96h-96v-96z" fill="transparent"/>
<path d="M36 27h1v5h-3v-1h2v-4z" fill="rgb(197,106,32)"/>
<path d="M37 27h1v1h-1v-1z" fill="rgb(156,82,24)"/>
<path d="M44 27h1v1h-1v-1z" fill="rgb(197,106,32)"/>
<path d="M45 27h1v2h-1v-2z" fill="rgb(106,65,24)"/>
<path d="M37 28h1v3h1v1h-1v1h1v-1h1v-1h1v-1h1v-1h2v2h-1v1h-1v1h-1v1h1v-1h2v1h-1v1h-2v1
	h-4v-1h-2v-1h1v-1h-1v-1h2v-4z" fill="rgb(238,172,82)"/>
<path d="M38 28h1v3h-1v-3z" fill="rgb(156,82,24)"/>
<path d="M42 28h2v1h-2v-1z" fill="rgb(197,106,32)"/>
<path d="M44 28h1v1h-1v-1z" fill="rgb(238,172,82)"/>
<path d="M41 29h1v1h-1v-1z" fill="rgb(197,106,32)"/>
<path d="M44 29h1v2h-1v-2z" fill="rgb(106,65,24)"/>
<path d="M40 30h1v1h-1v-1z" fill="rgb(197,106,32)"/>
<path d="M33 31h1v1h-1v-1z" fill="rgb(106,65,24)"/>
<path d="M39 31h1v1h-1v-1z" fill="rgb(197,106,32)"/>
<path d="M43 31h1v1h-1v-1z" fill="rgb(156,82,24)"/>
<path d="M44 31h2v1h-2v-1z" fill="rgb(197,106,32)"/>
<path d="M46 31h1v1h-1v-1z" fill="rgb(156,82,24)"/>
<path d="M47 31h1v1h-1v-1z" fill="rgb(0,0,0)"/>
<path d="M34 32h1v1h-1v-1z" fill="rgb(106,65,24)"/>
<path d="M38 32h1v1h-1v-1z" fill="rgb(197,106,32)"/>
<path d="M42 32h2v1h-2v-1z" fill="rgb(197,106,32)"/>
<path d="M44 32h2v1h-2v-1z" fill="rgb(238,172,82)"/>
<path d="M46 32h1v1h-1v-1z" fill="rgb(0,0,0)"/>
<path d="M35 33h1v1h-1v-1z" fill="rgb(106,65,24)"/>
<path d="M41 33h1v1h-1v-1z" fill="rgb(197,106,32)"/>
<path d="M44 33h2v2h1v-1h4v1h-2v1h-2v1h-1v1h-1v1h-2v-3h1v-1h-1v-1h1v-1z" fill="rgb(197,106,32)"/>
<path d="M46 33h5v1h-4v1h-1v-2z" fill="rgb(106,65,24)"/>
<path d="M34 34h1v2h-1v-2z" fill="rgb(106,65,24)"/>
<path d="M51 34h1v1h-1v-1z" fill="rgb(106,65,24)"/>
<path d="M35 35h2v1h-2v-1z" fill="rgb(197,106,32)"/>
<path d="M41 35h1v1h-1v-1z" fill="rgb(197,106,32)"/>
<path d="M42 35h1v1h-1v-1z" fill="rgb(106,65,24)"/>
<path d="M43 35h1v1h-1v-1z" fill="rgb(0,0,0)"/>
<path d="M49 35h1v1h-1v-1z" fill="rgb(0,0,0)"/>
<path d="M50 35h1v1h-1v-1z" fill="rgb(106,65,24)"/>
<path d="M35 36h1v2h-1v-2z" fill="rgb(106,65,24)"/>
<path d="M36 36h1v1h-1v-1z" fill="rgb(230,213,180)"/>
<path d="M37 36h2v1h-2v-1z" fill="rgb(172,65,74)"/>
<path d="M39 36h1v1h-1v-1z" fill="rgb(197,106,32)"/>
<path d="M40 36h1v1h-1v-1z" fill="rgb(0,0,0)"/>
<path d="M41 36h1v1h-1v-1z" fill="rgb(230,213,180)"/>
<path d="M42 36h1v3h-1v-3z" fill="rgb(255,255,255)"/>
<path d="M47 36h1v1h-1v-1z" fill="rgb(0,0,0)"/>
<path d="M48 36h1v1h-1v-1z" fill="rgb(106,65,24)"/>
<path d="M55 36h3v1h-3v-1z" fill="rgb(172,65,74)"/>
<path d="M59 36h2v1h-2v-1z" fill="rgb(238,82,74)"/>
<path d="M36 37h1v1h-1v-1z" fill="rgb(0,0,0)"/>
<path d="M37 37h2v2h-1v1h-2v-1h1v-2z" fill="rgb(255,213,205)"/>
<path d="M39 37h1v1h-1v-1z" fill="rgb(172,65,74)"/>
<path d="M40 37h1v1h-1v-1z" fill="rgb(255,255,255)"/>
<path d="M41 37h1v2h-1v-2z" fill="rgb(0,0,0)"/>
<path d="M46 37h1v1h-1v-1z" fill="rgb(0,0,0)"/>
<path d="M53 37h1v1h-1v-1z" fill="rgb(172,65,74)"/>
<path d="M54 37h1v1h-1v-1z" fill="rgb(238,82,74)"/>
<path d="M55 37h2v1h-2v-1z" fill="rgb(255,213,205)"/>
<path d="M57 37h2v1h-2v-1z" fill="rgb(238,82,74)"/>
<path d="M59 37h2v2h-1v2h-1v1h-1v1h-1v-1h-1v-2h1v-1h1v-1h1v-1z" fill="rgb(255,213,205)"/>
<path d="M61 37h1v1h-1v-1z" fill="rgb(238,82,74)"/>
<path d="M35 38h2v1h-2v-1z" fill="rgb(172,65,74)"/>
<path d="M39 38h1v1h-1v-1z" fill="rgb(238,82,74)"/>
<path d="M40 38h1v1h-1v-1z" fill="rgb(172,65,74)"/>
<path d="M45 38h1v1h1v1h1v2h-1v3h-1v3h-1v-1h-1v3h-1v1h-1v-3h-1v-1h-1v2h-1v-3h-1v2h-1v-1
	h-1v-1h1v-2h4v-1h1v-3h2v-1h1v-1z" fill="rgb(156,82,24)"/>
<path d="M46 38h1v1h-1v-1z" fill="rgb(106,65,24)"/>
<path d="M51 38h2v1h-1v1h-2v-1h1v-1z" fill="rgb(172,65,74)"/>
<path d="M53 38h2v2h-1v1h-1v-3z" fill="rgb(255,213,205)"/>
<path d="M55 38h1v1h-1v-1z" fill="rgb(255,164,139)"/>
<path d="M56 38h1v1h-1v-1z" fill="rgb(238,82,74)"/>
<path d="M57 38h1v1h-1v-1z" fill="rgb(255,164,139)"/>
<path d="M61 38h1v2h-1v-2z" fill="rgb(172,65,74)"/>
<path d="M34 39h1v2h-1v-2z" fill="rgb(172,65,74)"/>
<path d="M35 39h1v1h2v1h-1v1h-1v-1h-1v-2z" fill="rgb(255,164,139)"/>
<path d="M38 39h2v1h-2v-1z" fill="rgb(255,164,139)"/>
<path d="M40 39h1v2h-1v-2z" fill="rgb(238,82,74)"/>
<path d="M41 39h1v1h-1v-1z" fill="rgb(172,65,74)"/>
<path d="M42 39h2v1h-2v-1z" fill="rgb(106,65,24)"/>
<path d="M47 39h2v1h-2v-1z" fill="rgb(106,65,24)"/>
<path d="M49 39h1v1h-1v-1z" fill="rgb(0,0,0)"/>
<path d="M52 39h1v1h-1v-1z" fill="rgb(255,164,139)"/>
<path d="M55 39h1v2h-1v-2z" fill="rgb(172,65,74)"/>
<path d="M56 39h1v1h-1v-1z" fill="rgb(255,164,139)"/>
<path d="M60 39h1v1h-1v-1z" fill="rgb(255,164,139)"/>
<path d="M38 40h2v1h-2v-1z" fill="rgb(123,41,41)"/>
<path d="M41 40h1v1h-1v-1z" fill="rgb(123,41,41)"/>
<path d="M48 40h1v2h-1v-2z" fill="rgb(0,0,0)"/>
<path d="M49 40h4v3h-1v1h1v-1h1v-1h3v3h-1v1h1v-1h2v1h-1v1h-1v1h-2v1h-5v-1h-1v-1h-1v-4h1
	v-3z" fill="rgb(238,82,74)"/>
<path d="M54 40h1v1h-1v-1z" fill="rgb(255,164,139)"/>
<path d="M60 40h1v2h-1v-2z" fill="rgb(172,65,74)"/>
<path d="M35 41h1v1h-1v-1z" fill="rgb(0,0,0)"/>
<path d="M37 41h1v1h-1v-1z" fill="rgb(123,41,41)"/>
<path d="M38 41h2v1h1v1h-3v-2z" fill="rgb(238,82,74)"/>
<path d="M40 41h1v1h-1v-1z" fill="rgb(123,41,41)"/>
<path d="M41 41h1v1h-1v-1z" fill="rgb(0,0,0)"/>
<path d="M53 41h1v1h-1v-1z" fill="rgb(255,164,139)"/>
<path d="M54 41h1v1h-1v-1z" fill="rgb(172,65,74)"/>
<path d="M55 41h1v1h-1v-1z" fill="rgb(255,164,139)"/>
<path d="M59 41h1v1h-1v-1z" fill="rgb(255,164,139)"/>
<path d="M35 42h1v1h-1v-1z" fill="rgb(156,82,24)"/>
<path d="M36 42h2v1h-2v-1z" fill="rgb(0,0,0)"/>
<path d="M41 42h1v1h-1v-1z" fill="rgb(123,41,41)"/>
<path d="M47 42h1v3h-1v-3z" fill="rgb(0,0,0)"/>
<path d="M48 42h1v1h-1v-1z" fill="rgb(172,65,74)"/>
<path d="M53 42h1v1h-1v-1z" fill="rgb(172,65,74)"/>
<path d="M58 42h1v1h-1v-1z" fill="rgb(255,164,139)"/>
<path d="M59 42h1v1h-1v-1z" fill="rgb(172,65,74)"/>
<path d="M60 42h1v1h-1v-1z" fill="rgb(255,164,139)"/>
<path d="M61 42h1v2h-1v-2z" fill="rgb(172,65,74)"/>
<path d="M34 43h1v2h-1v-2z" fill="rgb(172,65,74)"/>
<path d="M35 43h1v1h-1v-1z" fill="rgb(0,0,0)"/>
<path d="M36 43h1v1h-1v-1z" fill="rgb(156,82,24)"/>
<path d="M37 43h1v1h-1v-1z" fill="rgb(106,65,24)"/>
<path d="M38 43h2v1h-2v-1z" fill="rgb(0,0,0)"/>
<path d="M40 43h1v1h-1v-1z" fill="rgb(123,41,41)"/>
<path d="M52 43h1v1h-1v-1z" fill="rgb(172,65,74)"/>
<path d="M57 43h1v1h-1v-1z" fill="rgb(255,164,139)"/>
<path d="M58 43h1v1h-1v-1z" fill="rgb(172,65,74)"/>
<path d="M59 43h1v1h-1v-1z" fill="rgb(255,164,139)"/>
<path d="M60 43h1v1h-1v-1z" fill="rgb(255,213,205)"/>
<path d="M35 44h1v2h-1v1h-1v-2h1v-1z" fill="rgb(238,82,74)"/>
<path d="M36 44h1v2h-1v-2z" fill="rgb(0,0,0)"/>
<path d="M57 44h1v1h-1v-1z" fill="rgb(172,65,74)"/>
<path d="M58 44h1v1h-1v-1z" fill="rgb(255,164,139)"/>
<path d="M59 44h1v1h-1v-1z" fill="rgb(255,213,205)"/>
<path d="M60 44h1v1h-1v-1z" fill="rgb(172,65,74)"/>
<path d="M33 45h1v1h-1v-1z" fill="rgb(172,65,74)"/>
<path d="M46 45h1v3h1v2h-1v-1h-2v-1h1v-3z" fill="rgb(0,0,0)"/>
<path d="M47 45h1v2h1v1h1v1h5v-1h2v-1h1v-1h1v2h-1v1h-1v1h-1v1h-2v1h-4v-1h-1v-1h-1v-2h-1
	v-3z" fill="rgb(172,65,74)"/>
<path d="M56 45h1v1h-1v-1z" fill="rgb(172,65,74)"/>
<path d="M59 45h1v1h-1v-1z" fill="rgb(255,164,139)"/>
<path d="M60 45h1v1h-1v-1z" fill="rgb(123,41,41)"/>
<path d="M33 46h1v1h-1v-1z" fill="rgb(123,41,41)"/>
<path d="M35 46h1v1h-1v-1z" fill="rgb(0,0,0)"/>
<path d="M38 46h1v2h-1v-2z" fill="rgb(106,65,24)"/>
<path d="M59 46h1v1h-1v-1z" fill="rgb(123,41,41)"/>
<path d="M60 46h1v1h-1v-1z" fill="transparent"/>
<path d="M61 46h4v2h-1v-1h-3v-1z" fill="rgb(156,82,24)"/>
<path d="M33 47h1v2h-1v-2z" fill="rgb(0,0,0)"/>
<path d="M34 47h2v4h-1v-2h-1v-2z" fill="rgb(172,65,74)"/>
<path d="M36 47h1v1h2v1h-2v5h-1v-2h-1v-1h1v-4z" fill="rgb(0,0,0)"/>
<path d="M40 47h1v1h-1v-1z" fill="rgb(106,65,24)"/>
<path d="M44 47h1v2h-1v-2z" fill="rgb(106,65,24)"/>
<path d="M59 47h1v1h-1v-1z" fill="rgb(0,0,0)"/>
<path d="M60 47h1v1h-1v-1z" fill="rgb(156,82,24)"/>
<path d="M61 47h1v1h-1v-1z" fill="rgb(197,106,32)"/>
<path d="M62 47h2v1h-2v-1z" fill="rgb(238,172,82)"/>
<path d="M40 48h1v1h-1v-1z" fill="rgb(0,0,0)"/>
<path d="M41 48h1v1h-1v-1z" fill="rgb(106,65,24)"/>
<path d="M58 48h1v1h-1v-1z" fill="rgb(0,0,0)"/>
<path d="M59 48h3v1h-3v-1z" fill="rgb(238,172,82)"/>
<path d="M62 48h1v1h-1v-1z" fill="rgb(197,106,32)"/>
<path d="M63 48h1v1h-1v-1z" fill="rgb(156,82,24)"/>
<path d="M34 49h1v2h-1v-2z" fill="rgb(0,0,0)"/>
<path d="M37 49h1v3h-1v-3z" fill="rgb(74,65,57)"/>
<path d="M38 49h1v1h1v-1h1v2h1v1h-3v-1h-1v-2z" fill="rgb(139,123,98)"/>
<path d="M39 49h1v1h-1v-1z" fill="rgb(0,0,0)"/>
<path d="M41 49h1v2h-1v-2z" fill="rgb(0,0,0)"/>
<path d="M44 49h1v1h-1v-1z" fill="rgb(0,0,0)"/>
<path d="M45 49h2v1h-1v1h-2v-1h1v-1z" fill="rgb(139,123,98)"/>
<path d="M57 49h1v1h-1v-1z" fill="rgb(0,0,0)"/>
<path d="M58 49h3v1h-3v-1z" fill="rgb(197,106,32)"/>
<path d="M61 49h1v1h-1v-1z" fill="rgb(156,82,24)"/>
<path d="M62 49h1v1h-1v-1z" fill="rgb(106,65,24)"/>
<path d="M43 50h1v1h-1v-1z" fill="rgb(0,0,0)"/>
<path d="M46 50h2v1h-2v-1z" fill="rgb(74,65,57)"/>
<path d="M48 50h1v1h-1v-1z" fill="rgb(0,0,0)"/>
<path d="M56 50h1v1h-1v-1z" fill="rgb(0,0,0)"/>
<path d="M57 50h1v1h-1v-1z" fill="rgb(156,82,24)"/>
<path d="M58 50h1v1h-1v-1z" fill="rgb(106,65,24)"/>
<path d="M59 50h2v1h-2v-1z" fill="rgb(74,65,57)"/>
<path d="M38 51h1v1h-1v-1z" fill="rgb(0,0,0)"/>
<path d="M42 51h1v1h-1v-1z" fill="rgb(0,0,0)"/>
<path d="M43 51h1v1h-1v-1z" fill="rgb(139,123,98)"/>
<path d="M44 51h2v1h-2v-1z" fill="rgb(74,65,57)"/>
<path d="M46 51h2v2h-3v1h-6v-1h5v-1h2v-1z" fill="rgb(139,123,98)"/>
<path d="M48 51h1v2h-1v-2z" fill="rgb(74,65,57)"/>
<path d="M49 51h1v1h-1v-1z" fill="rgb(0,0,0)"/>
<path d="M54 51h1v1h-1v-1z" fill="rgb(123,41,41)"/>
<path d="M55 51h1v1h-1v-1z" fill="rgb(0,0,0)"/>
<path d="M56 51h2v1h-2v-1z" fill="rgb(106,65,24)"/>
<path d="M37 52h2v1h-2v-1z" fill="rgb(139,123,98)"/>
<path d="M39 52h2v1h-2v-1z" fill="rgb(0,0,0)"/>
<path d="M41 52h3v1h-3v-1z" fill="rgb(74,65,57)"/>
<path d="M49 52h1v1h3v1h-2v2h-1v-1h-2v1h-1v1h1v1h-2v-1h-1v-1h-6v-1h6v-1h3v-1h1v-1z" fill="rgb(139,123,98)"/>
<path d="M50 52h4v1h1v1h-2v-1h-3v-1z" fill="rgb(0,0,0)"/>
<path d="M54 52h2v1h-2v-1z" fill="rgb(197,106,32)"/>
<path d="M56 52h2v1h-2v-1z" fill="rgb(238,172,82)"/>
<path d="M58 52h1v1h-1v-1z" fill="rgb(156,82,24)"/>
<path d="M59 52h1v1h-1v-1z" fill="rgb(106,65,24)"/>
<path d="M37 53h1v1h-1v-1z" fill="rgb(74,65,57)"/>
<path d="M38 53h1v1h-1v-1z" fill="rgb(0,0,0)"/>
<path d="M45 53h3v1h-3v-1z" fill="rgb(74,65,57)"/>
<path d="M55 53h1v1h-1v-1z" fill="rgb(106,65,24)"/>
<path d="M56 53h2v1h-2v-1z" fill="rgb(197,106,32)"/>
<path d="M58 53h2v1h-2v-1z" fill="rgb(238,172,82)"/>
<path d="M60 53h1v2h-2v-1h1v-1z" fill="rgb(106,65,24)"/>
<path d="M37 54h1v2h-1v-2z" fill="rgb(0,0,0)"/>
<path d="M38 54h1v1h-1v-1z" fill="rgb(139,123,98)"/>
<path d="M39 54h4v1h-4v-1z" fill="rgb(0,0,0)"/>
<path d="M43 54h2v1h-2v-1z" fill="rgb(74,65,57)"/>
<path d="M51 54h1v1h-1v-1z" fill="rgb(74,65,57)"/>
<path d="M52 54h1v1h-1v-1z" fill="rgb(0,0,0)"/>
<path d="M56 54h3v1h-3v-1z" fill="rgb(0,0,0)"/>
<path d="M38 55h1v1h-1v-1z" fill="rgb(74,65,57)"/>
<path d="M48 55h2v4h-1v-1h-1v-1h-1v-1h1v-1z" fill="rgb(197,180,156)"/>
<path d="M51 55h1v2h-1v-2z" fill="rgb(0,0,0)"/>
<path d="M38 56h1v1h-1v-1z" fill="rgb(0,0,0)"/>
<path d="M39 56h3v1h-3v-1z" fill="rgb(74,65,57)"/>
<path d="M42 56h3v1h-1v1h-1v-1h-1v-1z" fill="rgb(0,0,0)"/>
<path d="M50 56h1v1h-1v-1z" fill="rgb(74,65,57)"/>
<path d="M39 57h1v1h-1v-1z" fill="rgb(0,0,0)"/>
<path d="M40 57h3v1h-3v-1z" fill="rgb(139,123,98)"/>
<path d="M45 57h1v1h-1v-1z" fill="rgb(0,0,0)"/>
<path d="M50 57h1v2h-1v-2z" fill="rgb(0,0,0)"/>
<path d="M40 58h1v1h-1v-1z" fill="rgb(0,0,0)"/>
<path d="M41 58h1v2h1v1h-3v1h-1v-2h2v-2z" fill="rgb(238,82,74)"/>
<path d="M42 58h1v1h-1v-1z" fill="rgb(74,65,57)"/>
<path d="M46 58h2v1h-2v-1z" fill="rgb(0,0,0)"/>
<path d="M48 58h1v1h-1v-1z" fill="rgb(139,123,98)"/>
<path d="M39 59h2v1h-2v-1z" fill="rgb(123,41,41)"/>
<path d="M42 59h1v1h-1v-1z" fill="rgb(0,0,0)"/>
<path d="M43 59h1v1h-1v-1z" fill="rgb(139,123,98)"/>
<path d="M48 59h1v1h-1v-1z" fill="rgb(0,0,0)"/>
<path d="M49 59h1v1h-1v-1z" fill="rgb(172,65,74)"/>
<path d="M50 59h1v1h-1v-1z" fill="rgb(74,65,57)"/>
<path d="M35 60h2v2h-1v-1h-1v-1z" fill="rgb(139,123,98)"/>
<path d="M37 60h2v1h-2v-1z" fill="rgb(123,41,41)"/>
<path d="M43 60h1v1h-1v-1z" fill="rgb(255,255,255)"/>
<path d="M44 60h1v1h-1v-1z" fill="rgb(139,123,98)"/>
<path d="M49 60h1v2h-1v-2z" fill="rgb(123,41,41)"/>
<path d="M50 60h1v1h1v1h-1v1h-2v-1h1v-2z" fill="rgb(255,164,139)"/>
<path d="M51 60h1v1h-1v-1z" fill="rgb(172,65,74)"/>
<path d="M34 61h1v1h-1v-1z" fill="rgb(139,123,98)"/>
<path d="M35 61h1v1h-1v-1z" fill="rgb(255,255,255)"/>
<path d="M37 61h1v1h-1v-1z" fill="rgb(255,255,255)"/>
<path d="M38 61h1v1h-1v-1z" fill="rgb(197,180,156)"/>
<path d="M40 61h3v1h-3v-1z" fill="rgb(0,0,0)"/>
<path d="M43 61h2v1h-2v-1z" fill="rgb(74,65,57)"/>
<path d="M52 61h2v1h-2v-1z" fill="rgb(123,41,41)"/>
<path d="M34 62h2v1h-2v-1z" fill="rgb(0,0,0)"/>
<path d="M36 62h1v1h-1v-1z" fill="rgb(74,65,57)"/>
<path d="M37 62h1v1h-1v-1z" fill="rgb(197,180,156)"/>
<path d="M38 62h2v1h-2v-1z" fill="rgb(0,0,0)"/>
<path d="M48 62h1v2h-1v-2z" fill="rgb(123,41,41)"/>
<path d="M51 62h1v1h-1v-1z" fill="rgb(238,82,74)"/>
<path d="M52 62h1v1h-1v-1z" fill="rgb(255,164,139)"/>
<path d="M53 62h1v1h-1v-1z" fill="rgb(139,123,98)"/>
<path d="M54 62h1v1h-1v-1z" fill="rgb(0,0,0)"/>
<path d="M36 63h2v1h-2v-1z" fill="rgb(0,0,0)"/>
<path d="M49 63h1v1h-1v-1z" fill="rgb(238,82,74)"/>
<path d="M50 63h1v2h-1v-2z" fill="rgb(255,255,255)"/>
<path d="M51 63h1v1h-1v-1z" fill="rgb(0,0,0)"/>
<path d="M52 63h1v1h-1v-1z" fill="rgb(238,82,74)"/>
<path d="M53 63h1v1h-1v-1z" fill="rgb(197,180,156)"/>
<path d="M54 63h1v2h-1v-2z" fill="rgb(255,255,255)"/>
<path d="M55 63h1v2h-1v-2z" fill="rgb(0,0,0)"/>
<path d="M48 64h1v1h-1v-1z" fill="rgb(0,0,0)"/>
<path d="M49 64h1v1h-1v-1z" fill="rgb(74,65,57)"/>
<path d="M52 64h2v1h-2v-1z" fill="rgb(0,0,0)"/>
<path d="M49 65h2v1h-2v-1z" fill="rgb(0,0,0)"/>
<path d="M54 65h1v1h-1v-1z" fill="rgb(0,0,0)"/>
</svg>
