<?xml version="1.0" encoding="utf-8"?>
<!-- generated at drububu.com  -->
<!DOCTYPE svg PUBLIC "-//W3C//DTD SVG 1.1//EN" "http://www.w3.org/Graphics/SVG/1.1/DTD/svg11.dtd">
<svg version="1.1" preserveAspectRatio="xMinYMin meet" xmlns="http://www.w3.org/2000/svg" xmlns:xlink="http://www.w3.org/1999/xlink" x="0px" y="0px" width="96px" height="96px" viewBox="0 0 96 96">
<path d="M0 0h96v96h-96v-96z" fill="transparent"/>
<path d="M32 8h2v1h-2v-1z" fill="rgb(139,82,49)"/>
<path d="M31 9h1v2h-1v-2z" fill="rgb(139,82,49)"/>
<path d="M32 9h2v5h-1v1h-1v1h-1v-1h-1v-1h1v-3h1v-2z" fill="rgb(238,213,180)"/>
<path d="M34 9h1v3h-1v-3z" fill="rgb(98,57,32)"/>
<path d="M80 9h3v1h-3v-1z" fill="rgb(98,57,32)"/>
<path d="M37 10h1v1h-1v-1z" fill="rgb(139,82,49)"/>
<path d="M38 10h1v1h-1v-1z" fill="rgb(98,57,32)"/>
<path d="M78 10h2v1h-2v-1z" fill="rgb(98,57,32)"/>
<path d="M80 10h3v2h-1v1h-1v2h-1v1h-1v1h-1v1h-1v1h-1v1h-1v-2h-1v-1h-1v-1h1v-1h1v-1h1v-1
	h1v-1h1v-1h2v-1z" fill="rgb(213,164,90)"/>
<path d="M83 10h1v1h-1v-1z" fill="rgb(98,57,32)"/>
<path d="M26 11h2v1h-2v-1z" fill="rgb(98,57,32)"/>
<path d="M30 11h1v2h-1v-2z" fill="rgb(139,82,49)"/>
<path d="M36 11h1v1h-1v-1z" fill="rgb(139,82,49)"/>
<path d="M37 11h2v3h-1v3h-2v-1h-1v-2h1v-2h1v-1z" fill="rgb(238,213,180)"/>
<path d="M39 11h1v4h-1v-4z" fill="rgb(98,57,32)"/>
<path d="M71 11h2v1h-2v-1z" fill="rgb(98,57,32)"/>
<path d="M77 11h1v1h-1v-1z" fill="rgb(98,57,32)"/>
<path d="M83 11h1v1h-1v-1z" fill="rgb(0,0,0)"/>
<path d="M25 12h1v4h-1v-4z" fill="rgb(98,57,32)"/>
<path d="M26 12h2v2h1v3h-1v-1h-1v1h-1v-5z" fill="rgb(238,213,180)"/>
<path d="M28 12h1v2h-1v-2z" fill="rgb(180,115,32)"/>
<path d="M34 12h1v2h-1v-2z" fill="rgb(139,82,49)"/>
<path d="M35 12h1v2h-1v-2z" fill="rgb(180,115,32)"/>
<path d="M70 12h1v1h-1v-1z" fill="rgb(98,57,32)"/>
<path d="M71 12h2v2h-1v1h-1v1h-1v2h-1v-1h-1v-1h-1v-1h2v-1h1v-1h1v-1z" fill="rgb(213,164,90)"/>
<path d="M73 12h1v2h-1v-2z" fill="rgb(98,57,32)"/>
<path d="M76 12h1v1h-1v-1z" fill="rgb(98,57,32)"/>
<path d="M82 12h1v1h-1v-1z" fill="rgb(0,0,0)"/>
<path d="M29 13h1v1h-1v-1z" fill="rgb(139,82,49)"/>
<path d="M30 13h1v1h-1v-1z" fill="rgb(213,164,90)"/>
<path d="M69 13h1v1h-1v-1z" fill="rgb(98,57,32)"/>
<path d="M75 13h1v1h-1v-1z" fill="rgb(98,57,32)"/>
<path d="M81 13h1v1h-1v-1z" fill="rgb(180,115,32)"/>
<path d="M82 13h1v1h-1v-1z" fill="rgb(98,57,32)"/>
<path d="M29 14h1v3h-1v-3z" fill="rgb(98,57,32)"/>
<path d="M33 14h2v1h-2v-1z" fill="rgb(180,115,32)"/>
<path d="M38 14h1v1h-1v-1z" fill="rgb(213,164,90)"/>
<path d="M67 14h2v1h-2v-1z" fill="rgb(98,57,32)"/>
<path d="M72 14h1v1h-1v-1z" fill="rgb(98,57,32)"/>
<path d="M73 14h1v1h-1v-1z" fill="transparent"/>
<path d="M74 14h1v1h-1v-1z" fill="rgb(98,57,32)"/>
<path d="M81 14h1v1h-1v-1z" fill="rgb(0,0,0)"/>
<path d="M30 15h1v1h1v-1h1v3h-1v3h1v-2h1v-4h1v1h1v1h1v2h-1v2h1v-1h1v-1h1v1h1v2h-1v1h1v-1
	h1v1h1v2h1v1h-1v1h-1v3h1v1h1v1h-1v2h1v2h1v1h1v1h-1v2h1v1h2v1h-2v1h-1v1h-1v-1
	h-1v1h-2v-1h-1v-1h-1v-1h-1v-1h-2v-1h-2v-1h1v-1h1v-1h1v-1h1v-2h-2v-1h1v-1h1v-2h1
	v-2h-2v1h-1v1h-1v-2h1v-3h-2v1h-1v1h-1v1h-1v-4h-2v1h-1v2h-2v-10h1v1h1v-1h1v1h1v3
	h1v-5z" fill="rgb(213,164,90)"/>
<path d="M33 15h1v3h-1v-3z" fill="rgb(139,82,49)"/>
<path d="M38 15h1v1h-1v-1z" fill="rgb(139,82,49)"/>
<path d="M39 15h1v1h-1v-1z" fill="transparent"/>
<path d="M40 15h1v1h-1v-1z" fill="rgb(139,82,49)"/>
<path d="M41 15h1v1h-1v-1z" fill="rgb(98,57,32)"/>
<path d="M66 15h1v1h-1v-1z" fill="rgb(98,57,32)"/>
<path d="M71 15h1v1h-1v-1z" fill="rgb(98,57,32)"/>
<path d="M72 15h1v1h-1v-1z" fill="transparent"/>
<path d="M73 15h1v1h-1v-1z" fill="rgb(98,57,32)"/>
<path d="M80 15h1v1h-1v-1z" fill="rgb(0,0,0)"/>
<path d="M24 16h1v11h-1v-11z" fill="rgb(0,0,0)"/>
<path d="M38 16h1v1h-1v-1z" fill="rgb(98,57,32)"/>
<path d="M39 16h1v1h-1v-1z" fill="rgb(139,82,49)"/>
<path d="M40 16h2v2h-1v3h-1v-1h-1v-1h-1v-1h1v-1h1v-1z" fill="rgb(238,213,180)"/>
<path d="M42 16h1v3h-1v-3z" fill="rgb(98,57,32)"/>
<path d="M65 16h1v1h-1v-1z" fill="rgb(98,57,32)"/>
<path d="M66 16h1v1h-1v-1z" fill="rgb(213,164,90)"/>
<path d="M67 16h1v1h1v2h-1v1h-1v1h1v-1h1v-1h2v-1h2v-1h1v1h1v3h-1v1h-2v1h-1v1h-1v1h1v-1h2
	v-1h1v-1h1v2h1v1h-1v1h-2v1h-2v1h-1v1h1v-1h3v-1h2v1h-1v1h1v1h-1v1h-3v1h-2v1h4
	v-1h1v2h1v1h-1v1h-4v1h-2v1h5v1h-1v1h2v1h-5v1h-4v-1h1v-2h-1v-1h-2v-1h-3v1h2v1h3v2
	h-1v1h-2v-1h-3v1h2v1h2v2h-3v-1h-2v1h1v1h2v2h-1v1h-1v-1h-1v-1h-2v1h1v1h1v2h-2
	v-1h-1v1h1v1h1v2h-2v-1h-1v-1h-1v1h1v1h1v1h1v1h1v2h-2v-1h-1v-1h-1v-1h-1v1h1v1h1v2
	h-2v-2h-1v-1h-1v-2h1v-1h1v-2h1v-4h1v-7h1v-6h1v-3h1v-3h1v-2h1v-1h1v-2h1v-1h1v-1
	h1v-1h1v-1h1v-1h-1v-1h2v-1z" fill="rgb(180,115,32)"/>
<path d="M70 16h1v1h-1v-1z" fill="rgb(139,82,49)"/>
<path d="M71 16h1v1h-1v-1z" fill="transparent"/>
<path d="M72 16h1v1h-1v-1z" fill="rgb(139,82,49)"/>
<path d="M79 16h1v1h-1v-1z" fill="rgb(0,0,0)"/>
<path d="M29 17h1v2h-1v-2z" fill="rgb(139,82,49)"/>
<path d="M37 17h1v1h-1v-1z" fill="rgb(139,82,49)"/>
<path d="M38 17h1v1h-1v-1z" fill="rgb(180,115,32)"/>
<path d="M64 17h1v1h-1v-1z" fill="rgb(139,82,49)"/>
<path d="M70 17h1v1h-1v-1z" fill="rgb(98,57,32)"/>
<path d="M71 17h1v1h-1v-1z" fill="rgb(139,82,49)"/>
<path d="M72 17h1v1h-1v-1z" fill="rgb(213,164,90)"/>
<path d="M78 17h1v1h-1v-1z" fill="rgb(98,57,32)"/>
<path d="M82 17h2v1h-2v-1z" fill="rgb(98,57,32)"/>
<path d="M32 18h2v1h-2v-1z" fill="rgb(180,115,32)"/>
<path d="M37 18h1v1h-1v-1z" fill="rgb(98,57,32)"/>
<path d="M41 18h1v1h-1v-1z" fill="rgb(213,164,90)"/>
<path d="M44 18h2v1h-2v-1z" fill="rgb(139,82,49)"/>
<path d="M63 18h1v1h-1v-1z" fill="rgb(139,82,49)"/>
<path d="M64 18h1v1h-1v-1z" fill="rgb(180,115,32)"/>
<path d="M65 18h1v1h-1v-1z" fill="rgb(98,57,32)"/>
<path d="M69 18h2v1h-2v-1z" fill="rgb(139,82,49)"/>
<path d="M77 18h1v1h-1v-1z" fill="rgb(98,57,32)"/>
<path d="M80 18h2v1h-2v-1z" fill="rgb(98,57,32)"/>
<path d="M82 18h2v2h-1v1h-1v1h-2v1h-1v1h-2v1h-1v-1h-1v-2h1v-1h2v-1h2v-1h2v-1z" fill="rgb(213,164,90)"/>
<path d="M84 18h1v1h-1v-1z" fill="rgb(98,57,32)"/>
<path d="M29 19h1v1h-1v-1z" fill="rgb(180,115,32)"/>
<path d="M32 19h1v2h-1v-2z" fill="rgb(139,82,49)"/>
<path d="M36 19h2v1h-2v-1z" fill="rgb(180,115,32)"/>
<path d="M41 19h1v1h-1v-1z" fill="rgb(139,82,49)"/>
<path d="M42 19h1v1h-1v-1z" fill="transparent"/>
<path d="M43 19h1v1h-1v-1z" fill="rgb(139,82,49)"/>
<path d="M44 19h2v2h-1v2h-1v2h-2v-2h-1v-2h2v-1h1v-1z" fill="rgb(238,213,180)"/>
<path d="M46 19h1v1h-1v-1z" fill="rgb(139,82,49)"/>
<path d="M62 19h1v1h-1v-1z" fill="rgb(139,82,49)"/>
<path d="M63 19h1v1h-1v-1z" fill="rgb(180,115,32)"/>
<path d="M64 19h1v1h-1v-1z" fill="rgb(98,57,32)"/>
<path d="M68 19h1v1h-1v-1z" fill="rgb(139,82,49)"/>
<path d="M76 19h1v1h-1v-1z" fill="rgb(98,57,32)"/>
<path d="M77 19h1v1h-1v-1z" fill="transparent"/>
<path d="M78 19h1v1h-1v-1z" fill="rgb(139,82,49)"/>
<path d="M79 19h1v1h-1v-1z" fill="rgb(98,57,32)"/>
<path d="M84 19h1v1h-1v-1z" fill="rgb(0,0,0)"/>
<path d="M36 20h1v1h-1v-1z" fill="rgb(139,82,49)"/>
<path d="M41 20h1v1h-1v-1z" fill="rgb(98,57,32)"/>
<path d="M42 20h1v1h-1v-1z" fill="rgb(180,115,32)"/>
<path d="M46 20h1v1h-1v-1z" fill="rgb(98,57,32)"/>
<path d="M61 20h1v1h-1v-1z" fill="rgb(139,82,49)"/>
<path d="M62 20h1v1h-1v-1z" fill="rgb(180,115,32)"/>
<path d="M63 20h1v1h-1v-1z" fill="rgb(98,57,32)"/>
<path d="M67 20h1v1h-1v-1z" fill="rgb(139,82,49)"/>
<path d="M75 20h1v1h-1v-1z" fill="rgb(98,57,32)"/>
<path d="M76 20h2v1h-2v-1z" fill="rgb(139,82,49)"/>
<path d="M83 20h1v1h-1v-1z" fill="rgb(0,0,0)"/>
<path d="M40 21h1v1h-1v-1z" fill="rgb(98,57,32)"/>
<path d="M45 21h1v1h-1v-1z" fill="rgb(139,82,49)"/>
<path d="M59 21h1v1h-1v-1z" fill="rgb(139,82,49)"/>
<path d="M60 21h2v1h-2v-1z" fill="rgb(180,115,32)"/>
<path d="M62 21h1v1h-1v-1z" fill="rgb(98,57,32)"/>
<path d="M74 21h1v1h-1v-1z" fill="rgb(98,57,32)"/>
<path d="M75 21h1v1h-1v-1z" fill="rgb(139,82,49)"/>
<path d="M82 21h1v1h-1v-1z" fill="rgb(0,0,0)"/>
<path d="M39 22h1v1h-1v-1z" fill="rgb(98,57,32)"/>
<path d="M45 22h1v1h-1v-1z" fill="rgb(98,57,32)"/>
<path d="M58 22h1v1h-1v-1z" fill="rgb(139,82,49)"/>
<path d="M59 22h1v1h-1v-1z" fill="rgb(180,115,32)"/>
<path d="M60 22h1v1h-1v-1z" fill="rgb(213,164,90)"/>
<path d="M61 22h1v1h-1v-1z" fill="rgb(98,57,32)"/>
<path d="M65 22h2v1h-2v-1z" fill="rgb(98,57,32)"/>
<path d="M72 22h2v1h-2v-1z" fill="rgb(139,82,49)"/>
<path d="M80 22h1v1h-1v-1z" fill="rgb(180,115,32)"/>
<path d="M81 22h1v1h-1v-1z" fill="rgb(0,0,0)"/>
<path d="M28 23h2v1h-2v-1z" fill="rgb(123,32,32)"/>
<path d="M44 23h1v1h-1v-1z" fill="rgb(139,82,49)"/>
<path d="M57 23h1v2h-1v-2z" fill="rgb(139,82,49)"/>
<path d="M58 23h1v1h-1v-1z" fill="rgb(180,115,32)"/>
<path d="M59 23h1v1h-1v-1z" fill="rgb(213,164,90)"/>
<path d="M60 23h1v2h-1v-2z" fill="rgb(98,57,32)"/>
<path d="M63 23h1v1h-1v-1z" fill="rgb(139,82,49)"/>
<path d="M64 23h1v1h-1v-1z" fill="rgb(98,57,32)"/>
<path d="M67 23h1v2h-1v-2z" fill="rgb(98,57,32)"/>
<path d="M71 23h1v1h-1v-1z" fill="rgb(139,82,49)"/>
<path d="M72 23h1v1h-1v-1z" fill="rgb(98,57,32)"/>
<path d="M79 23h1v1h-1v-1z" fill="rgb(0,0,0)"/>
<path d="M80 23h1v1h-1v-1z" fill="rgb(98,57,32)"/>
<path d="M27 24h1v2h-1v-2z" fill="rgb(123,32,32)"/>
<path d="M28 24h1v4h-1v3h-1v2h1v-2h1v-1h1v-2h1v-1h1v-1h1v-1h1v2h-1v2h-1v2h-1v3h-1v1h-1v1
	h-1v1h-4v1h-2v1h-1v-4h1v-4h1v-3h1v6h1v-4h1v-2h1v-2h1v-2z" fill="rgb(230,65,65)"/>
<path d="M29 24h1v4h-1v-4z" fill="rgb(0,0,0)"/>
<path d="M33 24h2v1h-2v-1z" fill="rgb(123,32,32)"/>
<path d="M44 24h1v1h-1v-1z" fill="rgb(98,57,32)"/>
<path d="M58 24h1v1h-1v-1z" fill="rgb(213,164,90)"/>
<path d="M59 24h1v1h-1v-1z" fill="rgb(180,115,32)"/>
<path d="M62 24h1v1h-1v-1z" fill="rgb(139,82,49)"/>
<path d="M70 24h1v1h-1v-1z" fill="rgb(98,57,32)"/>
<path d="M77 24h1v1h3v1h-4v-2z" fill="rgb(139,82,49)"/>
<path d="M78 24h1v1h-1v-1z" fill="rgb(98,57,32)"/>
<path d="M32 25h1v1h-1v-1z" fill="rgb(123,32,32)"/>
<path d="M34 25h1v2h-1v-2z" fill="rgb(0,0,0)"/>
<path d="M43 25h1v1h-1v-1z" fill="rgb(98,57,32)"/>
<path d="M56 25h1v2h-1v-2z" fill="rgb(139,82,49)"/>
<path d="M57 25h1v2h-1v-2z" fill="rgb(213,164,90)"/>
<path d="M58 25h1v1h-1v-1z" fill="rgb(180,115,32)"/>
<path d="M59 25h1v1h-1v-1z" fill="rgb(98,57,32)"/>
<path d="M67 25h1v1h-1v-1z" fill="rgb(0,0,0)"/>
<path d="M75 25h1v1h1v1h-2v-2z" fill="rgb(139,82,49)"/>
<path d="M76 25h1v1h-1v-1z" fill="rgb(98,57,32)"/>
<path d="M25 26h1v1h-1v-1z" fill="rgb(98,57,32)"/>
<path d="M26 26h1v2h-1v-2z" fill="rgb(123,32,32)"/>
<path d="M31 26h1v1h-1v-1z" fill="rgb(123,32,32)"/>
<path d="M42 26h1v1h-1v-1z" fill="rgb(98,57,32)"/>
<path d="M43 26h1v1h-1v-1z" fill="rgb(139,82,49)"/>
<path d="M58 26h1v2h-1v-2z" fill="rgb(98,57,32)"/>
<path d="M65 26h1v1h-1v-1z" fill="rgb(139,82,49)"/>
<path d="M66 26h1v1h-1v-1z" fill="rgb(0,0,0)"/>
<path d="M73 26h1v2h-1v-2z" fill="rgb(139,82,49)"/>
<path d="M74 26h1v1h-1v-1z" fill="rgb(98,57,32)"/>
<path d="M77 26h1v1h-1v-1z" fill="rgb(180,115,32)"/>
<path d="M78 26h3v2h-1v1h-2v1h-2v-1h-1v-1h1v-1h2v-1z" fill="rgb(213,164,90)"/>
<path d="M81 26h1v1h-1v-1z" fill="rgb(139,82,49)"/>
<path d="M23 27h2v1h-2v-1z" fill="rgb(123,32,32)"/>
<path d="M25 27h1v1h-1v-1z" fill="rgb(0,0,0)"/>
<path d="M30 27h1v1h-1v-1z" fill="rgb(123,32,32)"/>
<path d="M33 27h1v1h-1v-1z" fill="rgb(123,32,32)"/>
<path d="M36 27h2v1h-2v-1z" fill="rgb(123,32,32)"/>
<path d="M41 27h1v1h-1v-1z" fill="rgb(139,82,49)"/>
<path d="M42 27h2v2h-1v2h-1v-1h-1v-2h1v-1z" fill="rgb(238,213,180)"/>
<path d="M44 27h1v1h-1v-1z" fill="rgb(139,82,49)"/>
<path d="M55 27h1v2h-1v-2z" fill="rgb(139,82,49)"/>
<path d="M56 27h1v1h-1v-1z" fill="rgb(213,164,90)"/>
<path d="M57 27h1v1h-1v-1z" fill="rgb(180,115,32)"/>
<path d="M64 27h1v1h-1v-1z" fill="rgb(0,0,0)"/>
<path d="M65 27h1v1h1v1h-3v-1h1v-1z" fill="rgb(98,57,32)"/>
<path d="M71 27h1v1h-1v-1z" fill="rgb(139,82,49)"/>
<path d="M72 27h1v1h-1v-1z" fill="rgb(98,57,32)"/>
<path d="M81 27h1v1h-1v-1z" fill="rgb(98,57,32)"/>
<path d="M22 28h1v3h-1v1h-1v-2h1v-2z" fill="rgb(123,32,32)"/>
<path d="M24 28h1v5h-1v-5z" fill="rgb(0,0,0)"/>
<path d="M25 28h1v2h-1v-2z" fill="rgb(123,32,32)"/>
<path d="M28 28h1v2h-1v-2z" fill="rgb(0,0,0)"/>
<path d="M29 28h1v2h-1v-2z" fill="rgb(123,32,32)"/>
<path d="M33 28h1v1h-1v-1z" fill="rgb(0,0,0)"/>
<path d="M35 28h1v1h-1v-1z" fill="rgb(123,32,32)"/>
<path d="M36 28h1v1h-1v-1z" fill="rgb(230,65,65)"/>
<path d="M37 28h1v1h-1v-1z" fill="rgb(0,0,0)"/>
<path d="M44 28h1v1h-1v-1z" fill="rgb(98,57,32)"/>
<path d="M56 28h1v2h-1v3h-1v4h-1v-5h1v-3h1v-1z" fill="rgb(180,115,32)"/>
<path d="M57 28h1v2h-1v-2z" fill="rgb(98,57,32)"/>
<path d="M63 28h1v1h-1v-1z" fill="rgb(139,82,49)"/>
<path d="M67 28h1v1h-1v-1z" fill="rgb(139,82,49)"/>
<path d="M70 28h1v1h-1v-1z" fill="rgb(139,82,49)"/>
<path d="M80 28h1v1h-1v-1z" fill="rgb(98,57,32)"/>
<path d="M32 29h1v2h-1v-2z" fill="rgb(0,0,0)"/>
<path d="M33 29h1v1h-1v-1z" fill="rgb(213,164,90)"/>
<path d="M34 29h1v1h-1v-1z" fill="rgb(123,32,32)"/>
<path d="M35 29h1v1h-1v-1z" fill="rgb(230,65,65)"/>
<path d="M36 29h1v2h-1v-2z" fill="rgb(0,0,0)"/>
<path d="M43 29h1v3h-1v-3z" fill="rgb(98,57,32)"/>
<path d="M54 29h1v2h-1v-2z" fill="rgb(139,82,49)"/>
<path d="M67 29h1v1h-1v-1z" fill="rgb(98,57,32)"/>
<path d="M78 29h1v1h2v1h-4v-1h1v-1z" fill="rgb(139,82,49)"/>
<path d="M79 29h1v1h-1v-1z" fill="rgb(98,57,32)"/>
<path d="M28 30h1v1h-1v-1z" fill="rgb(123,32,32)"/>
<path d="M33 30h1v1h-1v-1z" fill="rgb(123,32,32)"/>
<path d="M34 30h2v1h-1v1h-1v2h-1v1h1v-1h2v1h-1v1h-1v1h-1v1h-2v-1h1v-1h-1v-1h-1v-1h1v-1h1
	v-1h1v-1h1v-1z" fill="rgb(180,32,32)"/>
<path d="M56 30h1v3h-1v-3z" fill="rgb(98,57,32)"/>
<path d="M57 30h1v1h-1v-1z" fill="rgb(139,82,49)"/>
<path d="M67 30h1v1h-1v-1z" fill="rgb(0,0,0)"/>
<path d="M75 30h1v1h1v1h-3v-1h1v-1z" fill="rgb(139,82,49)"/>
<path d="M76 30h1v1h-1v-1z" fill="rgb(98,57,32)"/>
<path d="M27 31h1v1h-1v-1z" fill="rgb(0,0,0)"/>
<path d="M31 31h2v1h-1v1h-1v-2z" fill="rgb(123,32,32)"/>
<path d="M35 31h1v1h-1v-1z" fill="rgb(0,0,0)"/>
<path d="M54 31h1v1h-1v-1z" fill="rgb(98,57,32)"/>
<path d="M65 31h1v2h-1v-2z" fill="rgb(139,82,49)"/>
<path d="M66 31h1v1h-1v-1z" fill="rgb(0,0,0)"/>
<path d="M67 31h1v1h-1v-1z" fill="rgb(139,82,49)"/>
<path d="M72 31h1v1h1v1h-2v-2z" fill="rgb(139,82,49)"/>
<path d="M73 31h1v1h-1v-1z" fill="rgb(98,57,32)"/>
<path d="M77 31h1v1h-1v-1z" fill="rgb(180,115,32)"/>
<path d="M78 31h3v2h-1v1h-3v1h-1v-1h-1v-2h3v-1z" fill="rgb(213,164,90)"/>
<path d="M81 31h1v1h-1v-1z" fill="rgb(139,82,49)"/>
<path d="M21 32h1v3h-1v-3z" fill="rgb(0,0,0)"/>
<path d="M27 32h1v1h-1v-1z" fill="rgb(123,32,32)"/>
<path d="M34 32h1v1h2v2h-1v-1h-2v-2z" fill="rgb(0,0,0)"/>
<path d="M42 32h1v2h-1v-2z" fill="rgb(98,57,32)"/>
<path d="M45 32h2v1h-2v-1z" fill="rgb(139,82,49)"/>
<path d="M53 32h1v2h-1v-2z" fill="rgb(98,57,32)"/>
<path d="M63 32h1v1h-1v-1z" fill="rgb(139,82,49)"/>
<path d="M64 32h1v1h-1v-1z" fill="rgb(0,0,0)"/>
<path d="M70 32h1v1h-1v-1z" fill="rgb(139,82,49)"/>
<path d="M71 32h1v1h-1v-1z" fill="rgb(98,57,32)"/>
<path d="M81 32h1v1h-1v-1z" fill="rgb(98,57,32)"/>
<path d="M24 33h1v1h-1v-1z" fill="rgb(123,32,32)"/>
<path d="M43 33h2v1h-2v-1z" fill="rgb(139,82,49)"/>
<path d="M45 33h2v2h-1v1h-1v1h-1v-1h-1v-2h2v-1z" fill="rgb(238,213,180)"/>
<path d="M47 33h1v2h-1v-2z" fill="rgb(98,57,32)"/>
<path d="M55 33h1v5h-1v-5z" fill="rgb(98,57,32)"/>
<path d="M56 33h1v1h-1v-1z" fill="rgb(139,82,49)"/>
<path d="M62 33h1v1h-1v-1z" fill="rgb(139,82,49)"/>
<path d="M63 33h5v2h-1v-1h-4v-1z" fill="rgb(98,57,32)"/>
<path d="M80 33h1v1h-1v-1z" fill="rgb(98,57,32)"/>
<path d="M33 34h1v1h-1v-1z" fill="rgb(0,0,0)"/>
<path d="M52 34h1v1h-1v-1z" fill="rgb(98,90,57)"/>
<path d="M53 34h1v2h-1v-2z" fill="rgb(230,213,180)"/>
<path d="M77 34h1v1h-1v-1z" fill="rgb(180,115,32)"/>
<path d="M78 34h2v1h-2v-1z" fill="rgb(98,57,32)"/>
<path d="M20 35h1v1h-1v-1z" fill="rgb(123,32,32)"/>
<path d="M29 35h1v1h-1v-1z" fill="rgb(180,32,32)"/>
<path d="M30 35h1v1h-1v-1z" fill="rgb(230,65,65)"/>
<path d="M35 35h1v1h-1v-1z" fill="rgb(0,0,0)"/>
<path d="M46 35h1v1h-1v-1z" fill="rgb(98,57,32)"/>
<path d="M51 35h1v1h-1v-1z" fill="rgb(98,90,57)"/>
<path d="M52 35h1v3h-2v-2h1v-1z" fill="rgb(255,255,255)"/>
<path d="M67 35h1v1h-1v-1z" fill="rgb(0,0,0)"/>
<path d="M75 35h1v1h3v1h-5v-1h1v-1z" fill="rgb(139,82,49)"/>
<path d="M76 35h2v1h-2v-1z" fill="rgb(98,57,32)"/>
<path d="M20 36h1v3h-1v-3z" fill="rgb(0,0,0)"/>
<path d="M28 36h1v1h-1v-1z" fill="rgb(180,32,32)"/>
<path d="M29 36h1v1h-1v-1z" fill="rgb(230,65,65)"/>
<path d="M30 36h1v1h-1v-1z" fill="rgb(180,32,32)"/>
<path d="M31 36h1v1h-1v-1z" fill="rgb(230,65,65)"/>
<path d="M34 36h1v1h-1v-1z" fill="rgb(0,0,0)"/>
<path d="M45 36h1v1h-1v-1z" fill="rgb(139,82,49)"/>
<path d="M50 36h1v2h-1v-2z" fill="rgb(98,90,57)"/>
<path d="M53 36h1v1h-1v-1z" fill="rgb(139,82,49)"/>
<path d="M64 36h1v1h-1v-1z" fill="rgb(98,57,32)"/>
<path d="M65 36h1v1h-1v-1z" fill="rgb(0,0,0)"/>
<path d="M66 36h1v1h-1v-1z" fill="rgb(98,57,32)"/>
<path d="M71 36h1v1h-1v-1z" fill="rgb(139,82,49)"/>
<path d="M72 36h2v1h-2v-1z" fill="rgb(98,57,32)"/>
<path d="M24 37h7v1h-7v-1z" fill="rgb(123,32,32)"/>
<path d="M33 37h1v1h-1v-1z" fill="rgb(0,0,0)"/>
<path d="M45 37h1v1h-1v-1z" fill="rgb(98,57,32)"/>
<path d="M46 37h1v1h-1v-1z" fill="rgb(139,82,49)"/>
<path d="M53 37h1v1h-1v-1z" fill="rgb(0,0,0)"/>
<path d="M54 37h1v1h-1v-1z" fill="rgb(139,82,49)"/>
<path d="M61 37h1v1h-1v-1z" fill="rgb(139,82,49)"/>
<path d="M62 37h1v1h-1v-1z" fill="rgb(98,57,32)"/>
<path d="M63 37h1v1h-1v-1z" fill="rgb(0,0,0)"/>
<path d="M69 37h1v1h-1v-1z" fill="rgb(139,82,49)"/>
<path d="M70 37h2v1h-2v-1z" fill="rgb(98,57,32)"/>
<path d="M72 37h2v1h-2v-1z" fill="rgb(139,82,49)"/>
<path d="M74 37h5v2h-1v1h-5v-1h1v-2z" fill="rgb(213,164,90)"/>
<path d="M79 37h1v1h-1v-1z" fill="rgb(139,82,49)"/>
<path d="M19 38h1v2h-1v-2z" fill="rgb(123,32,32)"/>
<path d="M22 38h1v1h-1v-1z" fill="rgb(123,32,32)"/>
<path d="M23 38h1v2h-1v-2z" fill="rgb(0,0,0)"/>
<path d="M24 38h2v1h-2v-1z" fill="rgb(238,213,180)"/>
<path d="M26 38h1v1h-1v-1z" fill="rgb(139,82,49)"/>
<path d="M27 38h3v1h1v2h-1v1h-1v1h-3v-1h-1v-1h1v-2h1v-1z" fill="rgb(180,115,32)"/>
<path d="M30 38h1v1h-1v-1z" fill="rgb(139,82,49)"/>
<path d="M31 38h1v1h-1v-1z" fill="rgb(123,32,32)"/>
<path d="M32 38h1v1h-1v-1z" fill="rgb(0,0,0)"/>
<path d="M44 38h1v1h-1v-1z" fill="rgb(98,57,32)"/>
<path d="M45 38h2v2h-1v1h-1v-1h-1v-1h1v-1z" fill="rgb(238,213,180)"/>
<path d="M47 38h1v2h1v1h-3v-1h1v-2z" fill="rgb(98,57,32)"/>
<path d="M51 38h1v2h-1v-2z" fill="rgb(98,90,57)"/>
<path d="M52 38h2v1h1v1h-1v2h-1v1h-1v1h-1v2h-1v1h-2v1h-2v1h-1v-1h-2v-1h-1v-3h1v2h1v1h2
	v-1h-1v-2h1v1h3v-1h1v-2h1v-2h1v-2z" fill="rgb(230,213,180)"/>
<path d="M54 38h1v1h-1v-1z" fill="rgb(98,57,32)"/>
<path d="M55 38h1v2h-1v-2z" fill="rgb(139,82,49)"/>
<path d="M63 38h3v1h-3v-1z" fill="rgb(98,57,32)"/>
<path d="M79 38h1v1h-1v-1z" fill="rgb(0,0,0)"/>
<path d="M20 39h1v2h1v2h-3v1h-1v1h-1v1h-3v1h-2v1h-2v1h-3v1h-2v-1h1v-1h3v-1h1v-1h2v-1h1
	v-1h1v-1h2v-1h2v-1h1v-1h1v-1z" fill="rgb(255,131,106)"/>
<path d="M21 39h1v2h-1v-2z" fill="rgb(0,0,0)"/>
<path d="M22 39h1v1h-1v-1z" fill="rgb(255,255,255)"/>
<path d="M24 39h2v1h-1v1h-2v-1h1v-1z" fill="rgb(255,255,255)"/>
<path d="M31 39h2v1h2v1h1v1h2v1h1v1h1v2h1v1h1v1h1v1h2v1h1v-1h2v-1h2v-1h1v-1h1v2h-1v1h-1
	v1h1v-1h1v-1h1v-2h1v-3h1v4h-1v4h-1v2h-1v1h-1v2h1v1h1v1h-1v1h1v1h1v1h2v-1h1v5h-1
	v2h-1v2h-1v1h-1v-3h-1v-1h-1v-1h-1v1h1v1h1v3h-1v-2h-1v-1h-1v-1h-2v-1h-1v1h-2v1
	h-2v-1h-1v-1h-1v-2h2v-1h1v-1h2v-1h-2v-1h1v-2h1v-1h-1v-1h1v-1h-1v-1h-1v-1h-1v1
	h-1v1h-1v-2h-1v-2h-1v-2h-1v-1h-1v-1h-1v-1h-1v-1h-2v-1h-3v-1h1v-1h1v-2z" fill="rgb(139,82,49)"/>
<path d="M33 39h1v1h-1v-1z" fill="rgb(0,0,0)"/>
<path d="M34 39h1v1h-1v-1z" fill="rgb(123,32,32)"/>
<path d="M66 39h1v2h-1v-2z" fill="rgb(98,57,32)"/>
<path d="M78 39h1v1h-1v-1z" fill="rgb(0,0,0)"/>
<path d="M18 40h1v1h-1v-1z" fill="rgb(123,32,32)"/>
<path d="M22 40h1v1h-1v-1z" fill="rgb(139,82,49)"/>
<path d="M25 40h1v1h-1v-1z" fill="rgb(139,82,49)"/>
<path d="M35 40h1v1h-1v-1z" fill="rgb(0,0,0)"/>
<path d="M36 40h1v2h-1v-2z" fill="rgb(98,57,32)"/>
<path d="M50 40h1v2h-1v-2z" fill="rgb(98,90,57)"/>
<path d="M54 40h1v2h-1v-2z" fill="rgb(0,0,0)"/>
<path d="M75 40h1v1h-1v-1z" fill="rgb(98,57,32)"/>
<path d="M76 40h2v1h-2v-1z" fill="rgb(0,0,0)"/>
<path d="M16 41h2v1h-2v-1z" fill="rgb(123,32,32)"/>
<path d="M22 41h1v1h-1v-1z" fill="rgb(180,115,32)"/>
<path d="M23 41h2v1h1v1h2v2h-2v1h-4v-1h1v-4z" fill="rgb(139,82,49)"/>
<path d="M37 41h1v1h-1v-1z" fill="rgb(0,0,0)"/>
<path d="M47 41h2v1h-1v1h-2v-1h1v-1z" fill="rgb(238,213,180)"/>
<path d="M49 41h1v1h-1v-1z" fill="rgb(98,57,32)"/>
<path d="M60 41h1v1h-1v-1z" fill="rgb(139,82,49)"/>
<path d="M61 41h1v1h-1v-1z" fill="rgb(98,57,32)"/>
<path d="M62 41h1v2h-1v-2z" fill="rgb(139,82,49)"/>
<path d="M65 41h1v1h-1v-1z" fill="rgb(98,57,32)"/>
<path d="M70 41h1v1h5v1h-6v-2z" fill="rgb(139,82,49)"/>
<path d="M71 41h2v1h-2v-1z" fill="rgb(98,57,32)"/>
<path d="M73 41h2v1h-2v-1z" fill="rgb(0,0,0)"/>
<path d="M14 42h2v1h-2v-1z" fill="rgb(123,32,32)"/>
<path d="M22 42h1v1h-1v-1z" fill="rgb(123,32,32)"/>
<path d="M38 42h1v1h-1v-1z" fill="rgb(0,0,0)"/>
<path d="M45 42h1v1h-1v-1z" fill="rgb(98,90,57)"/>
<path d="M48 42h1v1h-1v-1z" fill="rgb(139,82,49)"/>
<path d="M49 42h1v1h-1v-1z" fill="rgb(98,90,57)"/>
<path d="M53 42h1v1h-1v-1z" fill="rgb(172,164,106)"/>
<path d="M54 42h1v1h-1v-1z" fill="rgb(98,57,32)"/>
<path d="M63 42h2v3h-1v-2h-1v-1z" fill="rgb(98,57,32)"/>
<path d="M65 42h1v1h6v1h-1v2h-7v-1h1v-3z" fill="rgb(180,115,32)"/>
<path d="M66 42h1v1h-1v-1z" fill="rgb(139,82,49)"/>
<path d="M67 42h3v1h-3v-1z" fill="rgb(98,57,32)"/>
<path d="M13 43h1v1h-1v-1z" fill="rgb(123,32,32)"/>
<path d="M19 43h2v1h-2v-1z" fill="rgb(123,32,32)"/>
<path d="M21 43h2v1h-2v-1z" fill="rgb(0,0,0)"/>
<path d="M28 43h3v1h-1v1h-2v-2z" fill="rgb(0,0,0)"/>
<path d="M31 43h1v1h-1v-1z" fill="rgb(98,57,32)"/>
<path d="M39 43h1v1h-1v-1z" fill="rgb(0,0,0)"/>
<path d="M42 43h1v1h-1v-1z" fill="rgb(98,90,57)"/>
<path d="M44 43h1v3h-1v-1h-1v-1h1v-1z" fill="rgb(98,90,57)"/>
<path d="M45 43h1v1h-1v-1z" fill="rgb(255,255,255)"/>
<path d="M46 43h3v1h-2v1h-1v-2z" fill="rgb(98,90,57)"/>
<path d="M49 43h1v1h-1v-1z" fill="rgb(172,164,106)"/>
<path d="M52 43h2v2h-1v-1h-1v-1z" fill="rgb(0,0,0)"/>
<path d="M72 43h4v2h-1v1h-4v-2h1v-1z" fill="rgb(213,164,90)"/>
<path d="M76 43h1v1h-1v-1z" fill="rgb(98,57,32)"/>
<path d="M11 44h2v1h-2v-1z" fill="rgb(123,32,32)"/>
<path d="M18 44h1v1h-1v-1z" fill="rgb(123,32,32)"/>
<path d="M19 44h3v1h-2v1h-2v-1h1v-1z" fill="rgb(230,65,65)"/>
<path d="M22 44h1v1h-1v-1z" fill="rgb(123,32,32)"/>
<path d="M30 44h1v1h-1v-1z" fill="rgb(230,213,180)"/>
<path d="M31 44h2v1h-2v-1z" fill="rgb(0,0,0)"/>
<path d="M33 44h1v2h-1v-2z" fill="rgb(98,57,32)"/>
<path d="M40 44h1v2h-1v-2z" fill="rgb(0,0,0)"/>
<path d="M41 44h1v2h-1v-2z" fill="rgb(98,90,57)"/>
<path d="M47 44h1v1h-1v-1z" fill="rgb(255,255,255)"/>
<path d="M48 44h1v1h-1v-1z" fill="rgb(172,164,106)"/>
<path d="M51 44h1v1h-1v-1z" fill="rgb(0,0,0)"/>
<path d="M52 44h1v1h-1v-1z" fill="rgb(180,115,32)"/>
<path d="M59 44h2v2h-1v-1h-1v-1z" fill="rgb(139,82,49)"/>
<path d="M76 44h1v1h-1v-1z" fill="rgb(0,0,0)"/>
<path d="M10 45h1v1h-1v-1z" fill="rgb(123,32,32)"/>
<path d="M11 45h1v1h-1v-1z" fill="rgb(230,65,65)"/>
<path d="M17 45h1v1h-1v-1z" fill="rgb(0,0,0)"/>
<path d="M20 45h2v1h-2v-1z" fill="rgb(0,0,0)"/>
<path d="M26 45h2v1h-2v-1z" fill="rgb(0,0,0)"/>
<path d="M30 45h1v2h-1v-2z" fill="rgb(0,0,0)"/>
<path d="M31 45h2v1h2v1h1v1h1v2h1v1h-2v-1h-2v-1h-1v-1h-1v-1h-1v-2z" fill="rgb(230,213,180)"/>
<path d="M34 45h1v1h-1v-1z" fill="rgb(0,0,0)"/>
<path d="M43 45h1v1h-1v-1z" fill="rgb(255,255,255)"/>
<path d="M51 45h1v1h-1v-1z" fill="rgb(180,115,32)"/>
<path d="M52 45h1v1h-1v-1z" fill="rgb(139,82,49)"/>
<path d="M53 45h1v1h-1v-1z" fill="rgb(98,57,32)"/>
<path d="M61 45h1v1h-1v-1z" fill="rgb(98,57,32)"/>
<path d="M62 45h1v1h-1v-1z" fill="rgb(139,82,49)"/>
<path d="M63 45h1v1h-1v-1z" fill="rgb(98,57,32)"/>
<path d="M75 45h1v1h-1v-1z" fill="rgb(0,0,0)"/>
<path d="M8 46h2v1h-2v-1z" fill="rgb(123,32,32)"/>
<path d="M14 46h3v1h1v1h-3v-1h-1v-1z" fill="rgb(123,32,32)"/>
<path d="M17 46h1v1h-1v-1z" fill="rgb(230,65,65)"/>
<path d="M18 46h2v1h-2v-1z" fill="rgb(123,32,32)"/>
<path d="M22 46h4v1h-4v-1z" fill="rgb(0,0,0)"/>
<path d="M35 46h1v1h-1v-1z" fill="rgb(0,0,0)"/>
<path d="M41 46h1v1h-1v-1z" fill="rgb(0,0,0)"/>
<path d="M44 46h2v1h-2v-1z" fill="rgb(255,255,255)"/>
<path d="M50 46h1v1h-1v-1z" fill="rgb(172,164,106)"/>
<path d="M52 46h1v1h-1v-1z" fill="rgb(98,57,32)"/>
<path d="M62 46h1v2h-1v-2z" fill="rgb(98,57,32)"/>
<path d="M63 46h1v1h5v1h-1v1h-1v1h-3v-1h-2v-1h1v-2z" fill="rgb(180,115,32)"/>
<path d="M64 46h1v1h-1v-1z" fill="rgb(139,82,49)"/>
<path d="M65 46h1v1h-1v-1z" fill="rgb(98,57,32)"/>
<path d="M66 46h8v1h-8v-1z" fill="rgb(0,0,0)"/>
<path d="M74 46h1v1h-1v-1z" fill="rgb(98,57,32)"/>
<path d="M6 47h2v1h-2v-1z" fill="rgb(123,32,32)"/>
<path d="M8 47h1v1h-1v-1z" fill="rgb(230,65,65)"/>
<path d="M12 47h1v1h-1v-1z" fill="rgb(123,32,32)"/>
<path d="M13 47h1v1h-1v-1z" fill="rgb(0,0,0)"/>
<path d="M31 47h1v1h-1v-1z" fill="rgb(0,0,0)"/>
<path d="M36 47h1v1h-1v-1z" fill="rgb(0,0,0)"/>
<path d="M42 47h1v1h-1v-1z" fill="rgb(0,0,0)"/>
<path d="M48 47h2v1h-2v-1z" fill="rgb(0,0,0)"/>
<path d="M52 47h1v1h-1v-1z" fill="rgb(0,0,0)"/>
<path d="M57 47h2v1h1v1h-2v-1h-1v-1z" fill="rgb(139,82,49)"/>
<path d="M69 47h2v1h-2v-1z" fill="rgb(98,57,32)"/>
<path d="M5 48h1v1h-1v-1z" fill="rgb(123,32,32)"/>
<path d="M10 48h1v1h-1v-1z" fill="rgb(123,32,32)"/>
<path d="M11 48h1v1h-1v-1z" fill="rgb(0,0,0)"/>
<path d="M32 48h1v1h-1v-1z" fill="rgb(0,0,0)"/>
<path d="M37 48h1v2h-1v-2z" fill="rgb(0,0,0)"/>
<path d="M43 48h2v1h-2v-1z" fill="rgb(0,0,0)"/>
<path d="M46 48h2v1h-2v-1z" fill="rgb(0,0,0)"/>
<path d="M51 48h1v1h-1v-1z" fill="rgb(0,0,0)"/>
<path d="M61 48h1v1h-1v-1z" fill="rgb(98,57,32)"/>
<path d="M68 48h3v1h2v2h-4v-1h-2v-1h1v-1z" fill="rgb(213,164,90)"/>
<path d="M71 48h2v1h-2v-1z" fill="rgb(98,57,32)"/>
<path d="M4 49h1v1h-1v-1z" fill="rgb(123,32,32)"/>
<path d="M7 49h1v2h-1v-2z" fill="rgb(123,32,32)"/>
<path d="M8 49h2v1h-2v-1z" fill="rgb(0,0,0)"/>
<path d="M33 49h1v1h-1v-1z" fill="rgb(0,0,0)"/>
<path d="M45 49h1v1h-1v-1z" fill="rgb(0,0,0)"/>
<path d="M50 49h1v1h-1v-1z" fill="rgb(98,57,32)"/>
<path d="M59 49h2v1h-2v-1z" fill="rgb(98,57,32)"/>
<path d="M61 49h1v1h2v1h2v1h-1v1h-1v1h-1v-1h-2v-1h-1v1h1v1h1v2h-1v2h-1v-1h-1v-1h-1v-2h1
	v-3h1v-1h1v-1z" fill="rgb(180,115,32)"/>
<path d="M62 49h2v1h-2v-1z" fill="rgb(139,82,49)"/>
<path d="M73 49h1v2h-1v-2z" fill="rgb(0,0,0)"/>
<path d="M3 50h1v1h-1v-1z" fill="rgb(123,32,32)"/>
<path d="M4 50h1v1h-1v-1z" fill="rgb(255,131,106)"/>
<path d="M5 50h1v1h-1v-1z" fill="rgb(123,32,32)"/>
<path d="M6 50h1v1h-1v-1z" fill="rgb(0,0,0)"/>
<path d="M34 50h2v1h-2v-1z" fill="rgb(0,0,0)"/>
<path d="M38 50h1v1h-1v-1z" fill="rgb(0,0,0)"/>
<path d="M56 50h1v1h-1v-1z" fill="rgb(139,82,49)"/>
<path d="M59 50h1v1h-1v-1z" fill="rgb(139,82,49)"/>
<path d="M64 50h1v1h-1v-1z" fill="rgb(139,82,49)"/>
<path d="M65 50h1v1h-1v-1z" fill="rgb(98,57,32)"/>
<path d="M66 50h2v1h-1v1h-1v-2z" fill="rgb(139,82,49)"/>
<path d="M68 50h1v1h-1v-1z" fill="rgb(180,115,32)"/>
<path d="M3 51h2v1h-2v-1z" fill="rgb(0,0,0)"/>
<path d="M36 51h1v1h-1v-1z" fill="rgb(0,0,0)"/>
<path d="M37 51h1v1h-1v-1z" fill="rgb(139,82,49)"/>
<path d="M38 51h1v1h-1v-1z" fill="rgb(98,57,32)"/>
<path d="M49 51h1v1h-1v-1z" fill="rgb(98,57,32)"/>
<path d="M57 51h1v1h-1v-1z" fill="rgb(98,57,32)"/>
<path d="M58 51h1v1h-1v-1z" fill="rgb(139,82,49)"/>
<path d="M67 51h2v2h-1v-1h-1v-1z" fill="rgb(98,57,32)"/>
<path d="M69 51h4v1h-4v-1z" fill="rgb(0,0,0)"/>
<path d="M35 52h2v1h-2v-1z" fill="rgb(98,57,32)"/>
<path d="M37 52h1v1h1v-1h1v2h1v1h1v1h1v-1h1v1h1v1h-1v2h-1v1h-1v2h-1v-1h-1v2h-1v-3h-1v1
	h-1v1h-1v-2h-2v-2h1v-2h-1v-2h1v-1h2v-1z" fill="rgb(180,115,32)"/>
<path d="M38 52h1v1h-1v-1z" fill="rgb(139,82,49)"/>
<path d="M42 52h1v1h-1v-1z" fill="rgb(180,115,32)"/>
<path d="M54 52h1v1h-1v-1z" fill="rgb(139,82,49)"/>
<path d="M58 52h1v2h-1v-2z" fill="rgb(98,57,32)"/>
<path d="M60 52h1v1h-1v-1z" fill="rgb(139,82,49)"/>
<path d="M65 52h2v1h2v2h-1v1h-2v-1h-1v-1h-1v-1h1v-1z" fill="rgb(213,164,90)"/>
<path d="M67 52h1v1h-1v-1z" fill="rgb(139,82,49)"/>
<path d="M34 53h1v1h-1v-1z" fill="rgb(98,57,32)"/>
<path d="M41 53h1v1h-1v-1z" fill="rgb(180,115,32)"/>
<path d="M42 53h1v1h-1v-1z" fill="rgb(139,82,49)"/>
<path d="M43 53h1v1h-1v-1z" fill="rgb(180,115,32)"/>
<path d="M55 53h1v1h-1v-1z" fill="rgb(98,57,32)"/>
<path d="M61 53h1v1h-1v-1z" fill="rgb(98,57,32)"/>
<path d="M62 53h1v1h-1v-1z" fill="rgb(139,82,49)"/>
<path d="M69 53h1v2h-1v-2z" fill="rgb(98,57,32)"/>
<path d="M33 54h1v2h-1v-2z" fill="rgb(98,57,32)"/>
<path d="M41 54h1v1h-1v-1z" fill="rgb(139,82,49)"/>
<path d="M42 54h1v1h-1v-1z" fill="rgb(180,115,32)"/>
<path d="M43 54h1v1h-1v-1z" fill="rgb(139,82,49)"/>
<path d="M44 54h1v1h-1v-1z" fill="rgb(180,115,32)"/>
<path d="M56 54h2v2h-1v-1h-1v-1z" fill="rgb(98,57,32)"/>
<path d="M62 54h1v1h-1v-1z" fill="rgb(98,57,32)"/>
<path d="M63 54h1v1h-1v-1z" fill="rgb(0,0,0)"/>
<path d="M64 54h1v1h-1v-1z" fill="rgb(180,115,32)"/>
<path d="M42 55h1v1h-1v-1z" fill="rgb(139,82,49)"/>
<path d="M53 55h1v1h-1v-1z" fill="rgb(139,82,49)"/>
<path d="M62 55h1v1h1v1h1v1h-1v1h-2v-1h-1v-2h1v-1z" fill="rgb(213,164,90)"/>
<path d="M63 55h1v1h-1v-1z" fill="rgb(98,57,32)"/>
<path d="M64 55h2v1h-2v-1z" fill="rgb(0,0,0)"/>
<path d="M68 55h1v1h-1v-1z" fill="rgb(98,57,32)"/>
<path d="M34 56h1v1h-1v-1z" fill="rgb(98,57,32)"/>
<path d="M54 56h1v1h-1v-1z" fill="rgb(98,57,32)"/>
<path d="M58 56h1v1h-1v-1z" fill="rgb(98,57,32)"/>
<path d="M64 56h1v1h-1v-1z" fill="rgb(98,57,32)"/>
<path d="M65 56h1v1h-1v-1z" fill="transparent"/>
<path d="M66 56h2v1h-2v-1z" fill="rgb(0,0,0)"/>
<path d="M34 57h1v1h-1v-1z" fill="rgb(139,82,49)"/>
<path d="M55 57h1v1h-1v-1z" fill="rgb(0,0,0)"/>
<path d="M58 57h1v1h1v2h-2v-1h-1v-1h1v-1z" fill="rgb(213,164,90)"/>
<path d="M59 57h1v1h-1v-1z" fill="rgb(0,0,0)"/>
<path d="M65 57h1v1h-1v-1z" fill="rgb(98,57,32)"/>
<path d="M33 58h1v2h-1v-2z" fill="rgb(139,82,49)"/>
<path d="M52 58h1v1h-1v-1z" fill="rgb(98,57,32)"/>
<path d="M55 58h1v2h-2v-1h1v-1z" fill="rgb(213,164,90)"/>
<path d="M56 58h1v1h-1v-1z" fill="rgb(0,0,0)"/>
<path d="M60 58h1v1h-1v-1z" fill="rgb(0,0,0)"/>
<path d="M61 58h1v1h-1v-1z" fill="rgb(98,57,32)"/>
<path d="M64 58h1v1h-1v-1z" fill="rgb(98,57,32)"/>
<path d="M50 59h1v1h-1v-1z" fill="rgb(98,57,32)"/>
<path d="M53 59h1v1h-1v-1z" fill="rgb(98,57,32)"/>
<path d="M56 59h1v1h-1v-1z" fill="rgb(98,57,32)"/>
<path d="M57 59h1v1h-1v-1z" fill="rgb(0,0,0)"/>
<path d="M60 59h1v1h-1v-1z" fill="rgb(98,57,32)"/>
<path d="M62 59h2v1h-2v-1z" fill="rgb(0,0,0)"/>
<path d="M33 60h1v1h-1v-1z" fill="rgb(98,57,32)"/>
<path d="M34 60h1v1h-1v-1z" fill="rgb(0,0,0)"/>
<path d="M35 60h1v1h-1v-1z" fill="rgb(139,82,49)"/>
<path d="M38 60h1v5h2v1h-3v-6z" fill="rgb(98,57,32)"/>
<path d="M42 60h1v2h-1v-2z" fill="rgb(0,0,0)"/>
<path d="M43 60h2v1h-2v-1z" fill="rgb(98,57,32)"/>
<path d="M46 60h1v1h-1v-1z" fill="rgb(0,0,0)"/>
<path d="M47 60h1v1h-1v-1z" fill="rgb(98,57,32)"/>
<path d="M54 60h2v1h-2v-1z" fill="rgb(0,0,0)"/>
<path d="M57 60h1v1h-1v-1z" fill="rgb(98,57,32)"/>
<path d="M58 60h2v1h-2v-1z" fill="rgb(0,0,0)"/>
<path d="M35 61h1v2h-1v-2z" fill="rgb(98,57,32)"/>
<path d="M37 61h1v1h-1v-1z" fill="rgb(0,0,0)"/>
<path d="M40 61h1v1h-1v-1z" fill="rgb(98,57,32)"/>
<path d="M45 61h1v1h-1v-1z" fill="rgb(0,0,0)"/>
<path d="M57 61h1v4h-1v-4z" fill="rgb(0,0,0)"/>
<path d="M36 62h1v1h-1v-1z" fill="rgb(0,0,0)"/>
<path d="M40 62h1v1h-1v-1z" fill="rgb(0,0,0)"/>
<path d="M41 62h1v1h-1v-1z" fill="rgb(98,57,32)"/>
<path d="M35 63h1v1h-1v-1z" fill="rgb(0,0,0)"/>
<path d="M39 63h1v2h-1v-2z" fill="rgb(0,0,0)"/>
<path d="M28 64h3v1h-3v-1z" fill="rgb(180,32,32)"/>
<path d="M27 65h1v1h-1v-1z" fill="rgb(98,90,57)"/>
<path d="M28 65h1v1h-1v-1z" fill="rgb(230,213,180)"/>
<path d="M29 65h2v1h-2v-1z" fill="rgb(255,131,106)"/>
<path d="M31 65h1v1h-1v-1z" fill="rgb(180,32,32)"/>
<path d="M46 65h1v1h-1v-1z" fill="rgb(98,57,32)"/>
<path d="M50 65h1v1h-1v-1z" fill="rgb(98,57,32)"/>
<path d="M56 65h1v1h-1v-1z" fill="rgb(98,57,32)"/>
<path d="M26 66h1v1h-1v-1z" fill="rgb(98,90,57)"/>
<path d="M27 66h1v1h-1v-1z" fill="rgb(230,213,180)"/>
<path d="M28 66h1v1h-1v-1z" fill="rgb(98,90,57)"/>
<path d="M29 66h1v1h-1v-1z" fill="rgb(0,0,0)"/>
<path d="M30 66h1v1h-1v-1z" fill="rgb(98,90,57)"/>
<path d="M31 66h1v1h-1v-1z" fill="rgb(230,65,65)"/>
<path d="M32 66h2v1h-2v-1z" fill="rgb(180,32,32)"/>
<path d="M37 66h1v1h-1v-1z" fill="rgb(98,57,32)"/>
<path d="M38 66h2v1h1v1h1v1h-1v1h-2v-1h-1v-3z" fill="rgb(139,82,49)"/>
<path d="M40 66h1v1h-1v-1z" fill="rgb(0,0,0)"/>
<path d="M41 66h1v1h-1v-1z" fill="rgb(98,57,32)"/>
<path d="M44 66h2v1h-2v-1z" fill="rgb(98,90,57)"/>
<path d="M46 66h1v1h-1v-1z" fill="rgb(139,82,49)"/>
<path d="M47 66h2v1h-1v1h-1v-2z" fill="rgb(180,115,32)"/>
<path d="M51 66h1v1h-1v-1z" fill="rgb(98,57,32)"/>
<path d="M56 66h1v2h-1v-2z" fill="rgb(0,0,0)"/>
<path d="M26 67h3v1h-3v-1z" fill="rgb(0,0,0)"/>
<path d="M29 67h1v1h-1v-1z" fill="rgb(98,90,57)"/>
<path d="M30 67h1v1h-1v-1z" fill="rgb(230,213,180)"/>
<path d="M31 67h2v1h-2v-1z" fill="rgb(255,131,106)"/>
<path d="M33 67h1v1h-1v-1z" fill="rgb(230,65,65)"/>
<path d="M34 67h1v1h-1v-1z" fill="rgb(123,32,32)"/>
<path d="M37 67h1v1h-1v-1z" fill="rgb(123,32,32)"/>
<path d="M41 67h1v1h-1v-1z" fill="rgb(0,0,0)"/>
<path d="M42 67h1v1h-1v-1z" fill="rgb(98,57,32)"/>
<path d="M43 67h1v2h-2v-1h1v-1z" fill="rgb(98,90,57)"/>
<path d="M44 67h2v1h-2v-1z" fill="rgb(255,255,255)"/>
<path d="M46 67h1v1h-1v-1z" fill="rgb(98,90,57)"/>
<path d="M48 67h2v1h-2v-1z" fill="rgb(98,90,57)"/>
<path d="M52 67h1v1h-1v-1z" fill="rgb(98,57,32)"/>
<path d="M55 67h1v1h1v1h-2v-2z" fill="rgb(98,57,32)"/>
<path d="M57 67h1v1h-1v-1z" fill="rgb(98,57,32)"/>
<path d="M28 68h1v1h-1v-1z" fill="rgb(98,90,57)"/>
<path d="M29 68h1v1h-1v-1z" fill="rgb(230,213,180)"/>
<path d="M30 68h2v1h-2v-1z" fill="rgb(0,0,0)"/>
<path d="M32 68h1v1h-1v-1z" fill="rgb(180,32,32)"/>
<path d="M33 68h2v1h2v1h-1v2h-1v-2h-1v-1h-1v-1z" fill="rgb(255,131,106)"/>
<path d="M35 68h2v1h-2v-1z" fill="rgb(123,32,32)"/>
<path d="M37 68h1v2h-1v-2z" fill="rgb(230,65,65)"/>
<path d="M44 68h1v1h-1v-1z" fill="rgb(0,0,0)"/>
<path d="M45 68h1v1h-1v-1z" fill="rgb(230,213,180)"/>
<path d="M46 68h1v2h-1v-2z" fill="rgb(255,131,106)"/>
<path d="M47 68h1v1h-1v-1z" fill="rgb(98,90,57)"/>
<path d="M48 68h1v1h-1v-1z" fill="rgb(255,255,255)"/>
<path d="M49 68h1v2h-1v-2z" fill="rgb(230,213,180)"/>
<path d="M50 68h1v1h-1v-1z" fill="rgb(98,90,57)"/>
<path d="M52 68h1v5h-2v1h-1v-4h1v2h1v-4z" fill="rgb(0,0,0)"/>
<path d="M57 68h1v1h3v1h1v1h1v1h1v1h-2v-1h-2v-1h-2v-1h-3v-1h2v-1z" fill="rgb(139,82,49)"/>
<path d="M58 68h3v1h-3v-1z" fill="rgb(98,57,32)"/>
<path d="M28 69h2v1h-2v-1z" fill="rgb(0,0,0)"/>
<path d="M32 69h1v1h-1v-1z" fill="rgb(0,0,0)"/>
<path d="M33 69h1v1h-1v-1z" fill="rgb(123,32,32)"/>
<path d="M38 69h1v1h-1v-1z" fill="rgb(98,57,32)"/>
<path d="M41 69h1v2h-1v-2z" fill="rgb(98,90,57)"/>
<path d="M42 69h2v1h-2v-1z" fill="rgb(255,255,255)"/>
<path d="M44 69h1v1h-1v-1z" fill="rgb(123,32,32)"/>
<path d="M45 69h1v1h-1v-1z" fill="rgb(0,0,0)"/>
<path d="M47 69h1v1h-1v-1z" fill="rgb(123,32,32)"/>
<path d="M48 69h1v2h-1v-2z" fill="rgb(0,0,0)"/>
<path d="M50 69h1v1h-1v-1z" fill="rgb(123,32,32)"/>
<path d="M54 69h1v1h-1v-1z" fill="rgb(98,57,32)"/>
<path d="M61 69h3v1h-3v-1z" fill="rgb(98,57,32)"/>
<path d="M34 70h1v1h-1v-1z" fill="rgb(0,0,0)"/>
<path d="M36 70h1v1h-1v-1z" fill="rgb(230,65,65)"/>
<path d="M37 70h1v1h-1v-1z" fill="rgb(0,0,0)"/>
<path d="M39 70h1v1h-1v-1z" fill="rgb(98,57,32)"/>
<path d="M40 70h1v1h-1v-1z" fill="rgb(0,0,0)"/>
<path d="M42 70h1v1h-1v-1z" fill="rgb(0,0,0)"/>
<path d="M43 70h1v1h-1v-1z" fill="rgb(230,213,180)"/>
<path d="M44 70h1v1h-1v-1z" fill="rgb(255,131,106)"/>
<path d="M45 70h1v1h-1v-1z" fill="rgb(123,32,32)"/>
<path d="M46 70h1v1h-1v-1z" fill="rgb(230,65,65)"/>
<path d="M47 70h1v3h1v5h-1v-1h-1v-3h-1v-1h-1v-2h1v1h1v-2z" fill="rgb(255,131,106)"/>
<path d="M49 70h1v1h-1v-1z" fill="rgb(230,65,65)"/>
<path d="M51 70h1v2h-1v-2z" fill="rgb(98,57,32)"/>
<path d="M53 70h1v2h1v2h1v2h-1v-1h-1v-2h-1v-3z" fill="rgb(98,57,32)"/>
<path d="M54 70h2v1h-1v1h-1v-2z" fill="rgb(0,0,0)"/>
<path d="M56 70h1v1h-1v-1z" fill="rgb(98,57,32)"/>
<path d="M57 70h1v1h-1v-1z" fill="rgb(0,0,0)"/>
<path d="M62 70h2v1h3v1h2v1h2v1h-1v1h-2v-1h-2v-1h-2v-1h-1v-1h-1v-1z" fill="rgb(180,115,32)"/>
<path d="M64 70h3v1h-3v-1z" fill="rgb(98,57,32)"/>
<path d="M34 71h1v1h-1v-1z" fill="rgb(123,32,32)"/>
<path d="M36 71h1v2h-1v-2z" fill="rgb(0,0,0)"/>
<path d="M43 71h1v1h-1v-1z" fill="rgb(0,0,0)"/>
<path d="M44 71h1v1h-1v-1z" fill="rgb(230,65,65)"/>
<path d="M46 71h1v1h-1v-1z" fill="rgb(123,32,32)"/>
<path d="M48 71h1v1h-1v-1z" fill="rgb(123,32,32)"/>
<path d="M49 71h1v2h-1v-2z" fill="rgb(255,131,106)"/>
<path d="M55 71h1v1h-1v-1z" fill="rgb(98,57,32)"/>
<path d="M56 71h1v1h-1v-1z" fill="rgb(0,0,0)"/>
<path d="M57 71h1v1h-1v-1z" fill="rgb(98,57,32)"/>
<path d="M58 71h1v1h-1v-1z" fill="rgb(0,0,0)"/>
<path d="M59 71h1v2h-2v-1h1v-1z" fill="rgb(98,57,32)"/>
<path d="M67 71h2v1h-2v-1z" fill="rgb(98,57,32)"/>
<path d="M34 72h1v1h-1v-1z" fill="rgb(98,90,57)"/>
<path d="M35 72h1v1h-1v-1z" fill="rgb(230,213,180)"/>
<path d="M44 72h1v1h-1v-1z" fill="rgb(123,32,32)"/>
<path d="M48 72h1v1h-1v-1z" fill="rgb(230,65,65)"/>
<path d="M55 72h1v2h-1v-2z" fill="rgb(0,0,0)"/>
<path d="M56 72h1v1h1v1h1v3h-1v-1h-1v-2h-1v-2z" fill="rgb(98,57,32)"/>
<path d="M57 72h1v1h-1v-1z" fill="rgb(0,0,0)"/>
<path d="M60 72h1v1h-1v-1z" fill="rgb(0,0,0)"/>
<path d="M61 72h1v1h-1v-1z" fill="rgb(98,57,32)"/>
<path d="M69 72h2v1h-2v-1z" fill="rgb(98,57,32)"/>
<path d="M33 73h1v1h-1v-1z" fill="rgb(98,90,57)"/>
<path d="M34 73h1v1h-1v-1z" fill="rgb(230,213,180)"/>
<path d="M35 73h1v1h-1v-1z" fill="rgb(0,0,0)"/>
<path d="M45 73h1v2h-1v-2z" fill="rgb(123,32,32)"/>
<path d="M49 73h1v1h-1v-1z" fill="rgb(230,65,65)"/>
<path d="M53 73h1v2h-1v-2z" fill="rgb(0,0,0)"/>
<path d="M58 73h1v1h-1v-1z" fill="rgb(0,0,0)"/>
<path d="M59 73h3v1h1v1h1v2h-2v-1h-1v-1h-1v-1h-1v-1z" fill="rgb(139,82,49)"/>
<path d="M62 73h1v1h-1v-1z" fill="rgb(0,0,0)"/>
<path d="M63 73h1v1h-1v-1z" fill="rgb(98,57,32)"/>
<path d="M64 73h2v1h-2v-1z" fill="rgb(139,82,49)"/>
<path d="M71 73h1v1h-1v-1z" fill="rgb(0,0,0)"/>
<path d="M33 74h2v1h-2v-1z" fill="rgb(0,0,0)"/>
<path d="M46 74h1v1h-1v-1z" fill="rgb(230,65,65)"/>
<path d="M49 74h1v2h-1v-2z" fill="rgb(123,32,32)"/>
<path d="M56 74h1v2h1v1h-3v-1h1v-2z" fill="rgb(0,0,0)"/>
<path d="M59 74h1v1h-1v-1z" fill="rgb(0,0,0)"/>
<path d="M63 74h1v1h-1v-1z" fill="rgb(180,115,32)"/>
<path d="M64 74h2v1h-2v-1z" fill="rgb(0,0,0)"/>
<path d="M66 74h1v1h-1v-1z" fill="rgb(98,57,32)"/>
<path d="M67 74h1v1h-1v-1z" fill="rgb(139,82,49)"/>
<path d="M70 74h1v1h-1v-1z" fill="rgb(0,0,0)"/>
<path d="M46 75h1v2h-1v-2z" fill="rgb(123,32,32)"/>
<path d="M54 75h1v1h-1v-1z" fill="rgb(0,0,0)"/>
<path d="M59 75h1v1h1v1h1v1h-2v-1h-1v-2z" fill="rgb(139,82,49)"/>
<path d="M60 75h1v1h-1v-1z" fill="rgb(0,0,0)"/>
<path d="M64 75h1v1h1v1h1v1h-2v-1h-1v-2z" fill="rgb(180,115,32)"/>
<path d="M65 75h1v1h-1v-1z" fill="rgb(98,57,32)"/>
<path d="M66 75h1v1h-1v-1z" fill="transparent"/>
<path d="M67 75h1v1h-1v-1z" fill="rgb(98,57,32)"/>
<path d="M68 75h2v1h-2v-1z" fill="rgb(0,0,0)"/>
<path d="M49 76h1v2h-1v-2z" fill="rgb(0,0,0)"/>
<path d="M61 76h1v1h-1v-1z" fill="rgb(0,0,0)"/>
<path d="M66 76h1v1h-1v-1z" fill="rgb(98,57,32)"/>
<path d="M46 77h1v1h-1v-1z" fill="rgb(98,90,57)"/>
<path d="M47 77h1v1h-1v-1z" fill="rgb(255,255,255)"/>
<path d="M58 77h1v1h-1v-1z" fill="rgb(0,0,0)"/>
<path d="M59 77h1v1h-1v-1z" fill="rgb(98,57,32)"/>
<path d="M62 77h1v1h-1v-1z" fill="rgb(0,0,0)"/>
<path d="M63 77h1v1h-1v-1z" fill="rgb(98,57,32)"/>
<path d="M64 77h1v1h-1v-1z" fill="rgb(139,82,49)"/>
<path d="M67 77h1v1h-1v-1z" fill="rgb(0,0,0)"/>
<path d="M45 78h1v1h-1v-1z" fill="rgb(98,90,57)"/>
<path d="M46 78h1v1h-1v-1z" fill="rgb(255,255,255)"/>
<path d="M47 78h1v1h-1v-1z" fill="rgb(230,213,180)"/>
<path d="M48 78h1v1h-1v-1z" fill="rgb(0,0,0)"/>
<path d="M59 78h3v1h-3v-1z" fill="rgb(0,0,0)"/>
<path d="M64 78h3v1h-3v-1z" fill="rgb(0,0,0)"/>
<path d="M46 79h2v1h-2v-1z" fill="rgb(0,0,0)"/>
</svg>
