<?xml version="1.0" encoding="utf-8"?>
<!-- generated at drububu.com  -->
<!DOCTYPE svg PUBLIC "-//W3C//DTD SVG 1.1//EN" "http://www.w3.org/Graphics/SVG/1.1/DTD/svg11.dtd">
<svg version="1.1" preserveAspectRatio="xMinYMin meet" xmlns="http://www.w3.org/2000/svg" xmlns:xlink="http://www.w3.org/1999/xlink" x="0px" y="0px" width="96px" height="96px" viewBox="0 0 96 96">
<path d="M0 0h96v96h-96v-96z" fill="transparent"/>
<path d="M63 25h1v1h-1v-1z" fill="rgb(180,123,49)"/>
<path d="M62 26h1v2h-1v-2z" fill="rgb(180,123,49)"/>
<path d="M63 26h1v1h-1v-1z" fill="rgb(255,230,156)"/>
<path d="M64 26h1v3h-1v-3z" fill="rgb(131,82,16)"/>
<path d="M63 27h1v1h-1v-1z" fill="rgb(255,213,106)"/>
<path d="M62 28h1v1h-1v-1z" fill="rgb(131,82,16)"/>
<path d="M63 28h1v1h-1v-1z" fill="rgb(180,123,49)"/>
<path d="M40 29h1v1h-1v-1z" fill="rgb(205,98,180)"/>
<path d="M41 29h4v1h-4v-1z" fill="rgb(164,74,139)"/>
<path d="M45 29h1v2h-1v-2z" fill="rgb(205,98,180)"/>
<path d="M62 29h1v1h1v1h-2v-2z" fill="rgb(180,123,49)"/>
<path d="M63 29h1v1h-1v-1z" fill="rgb(255,230,156)"/>
<path d="M64 29h1v1h-1v-1z" fill="rgb(255,213,106)"/>
<path d="M65 29h1v1h-1v-1z" fill="rgb(131,82,16)"/>
<path d="M38 30h2v1h-2v-1z" fill="rgb(205,98,180)"/>
<path d="M40 30h5v1h1v1h1v2h-1v1h-1v-1h-4v1h-2v1h-4v-3h1v-1h2v-1h2v-1z" fill="rgb(238,164,213)"/>
<path d="M46 30h1v1h-1v-1z" fill="rgb(164,74,139)"/>
<path d="M47 30h1v1h-1v-1z" fill="rgb(90,16,74)"/>
<path d="M64 30h1v1h-1v-1z" fill="rgb(230,172,90)"/>
<path d="M65 30h1v2h-1v-2z" fill="rgb(16,16,16)"/>
<path d="M36 31h2v1h-2v-1z" fill="rgb(205,98,180)"/>
<path d="M46 31h2v1h1v2h1v8h-1v2h-1v1h-1v1h-1v1h-2v-1h1v-1h1v-5h-1v-1h-5v1h-2v1h-5v-1h4
	v-1h1v-1h1v-1h-1v-1h2v1h1v1h4v-1h1v-3h1v-2h-1v-1z" fill="rgb(205,98,180)"/>
<path d="M48 31h1v1h-1v-1z" fill="rgb(90,16,74)"/>
<path d="M61 31h1v1h1v1h-2v1h-2v-1h1v-1h1v-1z" fill="rgb(180,123,49)"/>
<path d="M62 31h1v1h-1v-1z" fill="rgb(255,230,156)"/>
<path d="M63 31h1v1h-1v-1z" fill="rgb(255,213,106)"/>
<path d="M64 31h1v1h-1v-1z" fill="rgb(180,123,49)"/>
<path d="M35 32h1v1h-1v-1z" fill="rgb(205,98,180)"/>
<path d="M49 32h1v2h-1v-2z" fill="rgb(90,16,74)"/>
<path d="M63 32h1v1h-1v-1z" fill="rgb(230,172,90)"/>
<path d="M64 32h1v1h-1v-1z" fill="rgb(131,82,16)"/>
<path d="M34 33h1v1h-1v-1z" fill="rgb(205,98,180)"/>
<path d="M61 33h1v1h-1v-1z" fill="rgb(255,230,156)"/>
<path d="M62 33h1v2h-1v-2z" fill="rgb(230,172,90)"/>
<path d="M63 33h1v1h-1v-1z" fill="rgb(180,123,49)"/>
<path d="M64 33h1v1h-1v-1z" fill="rgb(16,16,16)"/>
<path d="M34 34h1v1h-1v-1z" fill="rgb(164,74,139)"/>
<path d="M41 34h4v1h-4v-1z" fill="rgb(131,82,16)"/>
<path d="M50 34h1v3h-1v-3z" fill="rgb(90,16,74)"/>
<path d="M58 34h1v1h-1v-1z" fill="rgb(180,123,49)"/>
<path d="M59 34h1v1h-1v-1z" fill="rgb(255,213,106)"/>
<path d="M60 34h1v3h-1v-1h-1v-1h1v-1z" fill="rgb(230,172,90)"/>
<path d="M61 34h1v1h-1v-1z" fill="rgb(180,123,49)"/>
<path d="M63 34h1v1h-1v-1z" fill="rgb(131,82,16)"/>
<path d="M33 35h2v1h-2v-1z" fill="rgb(205,98,180)"/>
<path d="M39 35h1v1h-1v-1z" fill="rgb(164,74,139)"/>
<path d="M40 35h1v2h-1v-2z" fill="rgb(131,82,16)"/>
<path d="M41 35h1v1h-1v-1z" fill="rgb(255,255,255)"/>
<path d="M42 35h1v1h-1v-1z" fill="rgb(230,172,90)"/>
<path d="M43 35h1v2h-1v-2z" fill="rgb(16,16,16)"/>
<path d="M44 35h1v2h-1v-2z" fill="rgb(255,213,106)"/>
<path d="M45 35h1v2h-1v-2z" fill="rgb(131,82,16)"/>
<path d="M57 35h1v1h-1v-1z" fill="rgb(205,98,180)"/>
<path d="M58 35h1v1h-1v-1z" fill="rgb(164,74,139)"/>
<path d="M61 35h1v2h-1v-2z" fill="rgb(131,82,16)"/>
<path d="M62 35h1v1h-1v-1z" fill="rgb(16,16,16)"/>
<path d="M32 36h1v1h-1v-1z" fill="rgb(205,98,180)"/>
<path d="M33 36h2v1h4v1h-1v1h-1v1h-2v-1h-1v1h-1v-1h-1v-2h1v-1z" fill="rgb(238,164,213)"/>
<path d="M35 36h1v1h-1v-1z" fill="rgb(205,98,180)"/>
<path d="M36 36h2v1h-2v-1z" fill="rgb(164,74,139)"/>
<path d="M41 36h2v1h-2v-1z" fill="rgb(255,213,106)"/>
<path d="M56 36h1v1h-1v-1z" fill="rgb(205,98,180)"/>
<path d="M57 36h2v2h-1v1h-1v2h-2v-3h1v-1h1v-1z" fill="rgb(238,164,213)"/>
<path d="M59 36h1v3h-1v-3z" fill="rgb(90,16,74)"/>
<path d="M31 37h1v3h-1v-3z" fill="rgb(205,98,180)"/>
<path d="M41 37h4v1h-4v-1z" fill="rgb(131,82,16)"/>
<path d="M50 37h1v2h1v7h-2v1h-3v-1h1v-1h1v-3h1v-5z" fill="rgb(164,74,139)"/>
<path d="M51 37h1v2h-1v-2z" fill="rgb(90,16,74)"/>
<path d="M55 37h1v1h-1v-1z" fill="rgb(205,98,180)"/>
<path d="M60 37h1v1h-1v-1z" fill="rgb(16,16,16)"/>
<path d="M54 38h1v3h2v-2h1v4h1v3h-3v-1h-1v-1h-1v-6z" fill="rgb(205,98,180)"/>
<path d="M58 38h1v1h-1v-1z" fill="rgb(205,98,180)"/>
<path d="M32 39h1v2h-1v-2z" fill="rgb(164,74,139)"/>
<path d="M34 39h1v1h-1v-1z" fill="rgb(164,74,139)"/>
<path d="M40 39h1v1h-1v-1z" fill="rgb(164,74,139)"/>
<path d="M41 39h1v1h-1v-1z" fill="rgb(90,16,74)"/>
<path d="M42 39h2v1h-2v-1z" fill="rgb(16,16,16)"/>
<path d="M44 39h1v1h-1v-1z" fill="rgb(164,74,139)"/>
<path d="M52 39h1v2h1v2h-1v-1h-1v-3z" fill="rgb(90,16,74)"/>
<path d="M58 39h1v1h-1v-1z" fill="rgb(164,74,139)"/>
<path d="M38 40h1v1h-1v-1z" fill="rgb(90,16,74)"/>
<path d="M39 40h1v1h-1v-1z" fill="rgb(16,16,16)"/>
<path d="M40 40h1v1h-1v-1z" fill="rgb(90,16,74)"/>
<path d="M41 40h3v1h1v1h-5v1h-1v-2h2v-1z" fill="rgb(156,16,0)"/>
<path d="M44 40h1v1h-1v-1z" fill="rgb(90,16,74)"/>
<path d="M45 40h1v1h-1v-1z" fill="rgb(164,74,139)"/>
<path d="M53 40h1v1h-1v-1z" fill="rgb(164,74,139)"/>
<path d="M58 40h1v2h-1v-2z" fill="rgb(90,16,74)"/>
<path d="M33 41h1v1h-1v-1z" fill="rgb(90,16,74)"/>
<path d="M34 41h3v1h-3v-1z" fill="rgb(16,16,16)"/>
<path d="M37 41h1v1h-1v-1z" fill="rgb(90,16,74)"/>
<path d="M38 41h1v3h-1v-3z" fill="rgb(16,16,16)"/>
<path d="M45 41h1v1h-1v-1z" fill="rgb(90,16,74)"/>
<path d="M40 42h5v3h-1v-2h-4v-1z" fill="rgb(197,65,24)"/>
<path d="M45 42h1v2h-1v-2z" fill="rgb(16,16,16)"/>
<path d="M52 42h1v9h-1v-9z" fill="rgb(16,16,16)"/>
<path d="M58 42h1v1h-1v-1z" fill="rgb(164,74,139)"/>
<path d="M39 43h1v1h-1v-1z" fill="rgb(197,65,24)"/>
<path d="M40 43h4v2h-1v1h-4v-2h1v-1z" fill="rgb(246,115,74)"/>
<path d="M53 43h1v1h-1v-1z" fill="rgb(164,74,139)"/>
<path d="M59 43h1v1h-1v-1z" fill="rgb(90,16,74)"/>
<path d="M37 44h1v1h-1v-1z" fill="rgb(90,16,74)"/>
<path d="M38 44h1v1h-1v-1z" fill="rgb(197,65,24)"/>
<path d="M45 44h1v1h-1v-1z" fill="rgb(164,74,139)"/>
<path d="M48 44h1v1h-1v-1z" fill="rgb(90,16,74)"/>
<path d="M53 44h1v3h1v1h1v1h1v1h1v1h1v1h1v3h-1v1h-2v-1h-3v-1h-2v-2h1v-8z" fill="transparent"/>
<path d="M54 44h1v2h-1v-2z" fill="rgb(90,16,74)"/>
<path d="M59 44h1v2h-1v-2z" fill="rgb(164,74,139)"/>
<path d="M60 44h1v2h1v1h1v1h1v1h1v1h1v1h-1v1h-1v1h-3v-1h-1v-1h-1v-1h-1v-1h-1v-1h-1v-1h3
	v-1h1v-2z" fill="rgb(123,49,106)"/>
<path d="M36 45h1v2h-1v-2z" fill="rgb(90,16,74)"/>
<path d="M37 45h1v1h-1v-1z" fill="rgb(164,74,139)"/>
<path d="M38 45h1v1h4v1h-5v-2z" fill="rgb(156,16,0)"/>
<path d="M43 45h1v1h-1v-1z" fill="rgb(197,65,24)"/>
<path d="M44 45h1v1h-1v-1z" fill="rgb(90,16,74)"/>
<path d="M47 45h1v1h-1v-1z" fill="rgb(90,16,74)"/>
<path d="M55 45h1v1h-1v-1z" fill="rgb(164,74,139)"/>
<path d="M61 45h1v1h-1v-1z" fill="rgb(16,16,16)"/>
<path d="M37 46h1v1h-1v-1z" fill="rgb(205,98,180)"/>
<path d="M43 46h1v1h-1v-1z" fill="rgb(90,16,74)"/>
<path d="M46 46h1v1h-1v-1z" fill="rgb(16,16,16)"/>
<path d="M50 46h2v4h-1v-3h-1v-1z" fill="rgb(230,172,90)"/>
<path d="M54 46h2v2h-1v-1h-1v-1z" fill="rgb(16,16,16)"/>
<path d="M56 46h3v1h-3v-1z" fill="rgb(164,74,139)"/>
<path d="M62 46h1v1h-1v-1z" fill="rgb(16,16,16)"/>
<path d="M37 47h1v1h-1v-1z" fill="rgb(90,16,74)"/>
<path d="M38 47h5v1h-5v-1z" fill="rgb(164,74,139)"/>
<path d="M43 47h1v1h-1v-1z" fill="rgb(205,98,180)"/>
<path d="M44 47h1v1h-1v-1z" fill="rgb(16,16,16)"/>
<path d="M45 47h1v1h-1v-1z" fill="rgb(90,16,74)"/>
<path d="M46 47h2v1h-1v1h-2v1h-1v-2h2v-1z" fill="rgb(230,172,90)"/>
<path d="M48 47h3v3h-1v1h-1v-3h-1v-1z" fill="rgb(255,213,106)"/>
<path d="M63 47h1v1h-1v-1z" fill="rgb(16,16,16)"/>
<path d="M38 48h1v1h-1v-1z" fill="rgb(90,16,74)"/>
<path d="M39 48h5v1h-5v-1z" fill="rgb(16,16,16)"/>
<path d="M47 48h1v1h-1v-1z" fill="rgb(255,213,106)"/>
<path d="M48 48h1v3h-2v-2h1v-1z" fill="rgb(255,230,156)"/>
<path d="M56 48h1v1h-1v-1z" fill="rgb(16,16,16)"/>
<path d="M64 48h1v1h-1v-1z" fill="rgb(16,16,16)"/>
<path d="M43 49h1v1h-1v-1z" fill="rgb(90,16,74)"/>
<path d="M45 49h2v2h-1v-1h-1v-1z" fill="rgb(255,213,106)"/>
<path d="M57 49h1v1h-1v-1z" fill="rgb(16,16,16)"/>
<path d="M65 49h1v1h-1v-1z" fill="rgb(16,16,16)"/>
<path d="M34 50h4v1h-2v1h-4v-1h2v-1z" fill="rgb(164,74,139)"/>
<path d="M38 50h2v1h-2v-1z" fill="rgb(90,16,74)"/>
<path d="M42 50h1v3h-1v-3z" fill="rgb(90,16,74)"/>
<path d="M43 50h1v1h-1v-1z" fill="rgb(164,74,139)"/>
<path d="M44 50h1v1h6v4h-1v3h-1v-1h-3v1h-1v1h-1v1h-1v2h-1v1h-1v1h-1v1h-2v1h-5v-1h-2v-1
	h-2v-2h-1v-5h1v-1h1v-1h2v1h-1v3h1v1h1v1h4v-1h2v-1h1v-1h1v-3h1v-2h1v-2h1v-1z" fill="rgb(205,98,180)"/>
<path d="M45 50h1v1h-1v-1z" fill="rgb(230,172,90)"/>
<path d="M50 50h1v1h-1v-1z" fill="rgb(230,172,90)"/>
<path d="M51 50h1v1h-1v-1z" fill="rgb(205,98,180)"/>
<path d="M58 50h1v1h-1v-1z" fill="rgb(16,16,16)"/>
<path d="M36 51h3v1h-3v-1z" fill="rgb(238,164,213)"/>
<path d="M39 51h1v1h2v1h-1v2h-2v-1h-1v-1h-1v-1h2v-1z" fill="rgb(205,98,180)"/>
<path d="M40 51h1v1h-1v-1z" fill="rgb(90,16,74)"/>
<path d="M41 51h1v1h-1v-1z" fill="rgb(16,16,16)"/>
<path d="M51 51h1v1h-1v-1z" fill="rgb(164,74,139)"/>
<path d="M52 51h1v1h-1v-1z" fill="rgb(90,16,74)"/>
<path d="M59 51h1v1h-1v-1z" fill="rgb(16,16,16)"/>
<path d="M65 51h1v2h1v4h-1v1h-1v-1h-1v-1h-1v-1h-2v-2h3v-1h1v-1z" fill="rgb(164,74,139)"/>
<path d="M66 51h1v1h-1v-1z" fill="rgb(16,16,16)"/>
<path d="M31 52h1v1h-1v-1z" fill="rgb(164,74,139)"/>
<path d="M32 52h2v1h-1v1h-2v-1h1v-1z" fill="rgb(205,98,180)"/>
<path d="M34 52h2v1h-1v1h-2v-1h1v-1z" fill="rgb(238,164,213)"/>
<path d="M36 52h1v1h-1v-1z" fill="rgb(164,74,139)"/>
<path d="M51 52h1v1h-1v-1z" fill="rgb(90,16,74)"/>
<path d="M60 52h1v1h-1v-1z" fill="rgb(16,16,16)"/>
<path d="M66 52h1v1h-1v-1z" fill="rgb(90,16,74)"/>
<path d="M30 53h1v1h3v1h-4v1h-1v1h-1v-2h1v-1h1v-1z" fill="rgb(164,74,139)"/>
<path d="M35 53h2v1h1v3h-1v-1h-1v-1h-2v-1h1v-1z" fill="rgb(205,98,180)"/>
<path d="M37 53h1v1h-1v-1z" fill="rgb(90,16,74)"/>
<path d="M41 53h1v2h-1v-2z" fill="rgb(90,16,74)"/>
<path d="M51 53h1v1h2v1h-3v-2z" fill="rgb(16,16,16)"/>
<path d="M60 53h1v2h-1v-2z" fill="rgb(90,16,74)"/>
<path d="M67 53h1v1h-1v-1z" fill="rgb(90,16,74)"/>
<path d="M38 54h1v3h1v1h-1v1h-2v-1h1v-4z" fill="rgb(90,16,74)"/>
<path d="M67 54h1v3h-1v-3z" fill="rgb(16,16,16)"/>
<path d="M32 55h2v1h-1v2h1v1h5v1h-2v1h-4v-1h-1v-1h-1v-3h1v-1z" fill="rgb(238,164,213)"/>
<path d="M34 55h2v1h-2v-1z" fill="rgb(164,74,139)"/>
<path d="M39 55h1v2h-1v-2z" fill="rgb(164,74,139)"/>
<path d="M40 55h1v2h-1v-2z" fill="rgb(90,16,74)"/>
<path d="M50 55h1v1h-1v-1z" fill="rgb(90,16,74)"/>
<path d="M51 55h3v2h1v1h1v1h1v3h-1v1h-4v-2h-2v-2h1v-4z" fill="rgb(123,49,106)"/>
<path d="M54 55h1v1h-1v-1z" fill="rgb(16,16,16)"/>
<path d="M55 55h2v1h2v1h-3v-1h-1v-1z" fill="rgb(90,16,74)"/>
<path d="M59 55h1v1h-1v-1z" fill="rgb(90,16,74)"/>
<path d="M60 55h1v1h2v1h1v3h-1v1h-2v-3h-1v-1h-1v-1h1v-1z" fill="rgb(164,74,139)"/>
<path d="M61 55h2v1h-2v-1z" fill="rgb(90,16,74)"/>
<path d="M33 56h3v2h1v1h-3v-1h-1v-2z" fill="rgb(205,98,180)"/>
<path d="M36 56h1v2h-1v-2z" fill="rgb(164,74,139)"/>
<path d="M50 56h1v3h-1v-3z" fill="rgb(16,16,16)"/>
<path d="M54 56h2v1h3v1h1v4h-2v1h-2v-1h1v-3h-1v-1h-1v-1h-1v-1z" fill="rgb(164,74,139)"/>
<path d="M63 56h1v1h-1v-1z" fill="rgb(90,16,74)"/>
<path d="M27 57h1v1h-1v-1z" fill="rgb(164,74,139)"/>
<path d="M37 57h1v1h-1v-1z" fill="rgb(16,16,16)"/>
<path d="M40 57h1v1h-1v-1z" fill="rgb(238,164,213)"/>
<path d="M46 57h1v1h-1v-1z" fill="rgb(230,172,90)"/>
<path d="M47 57h2v5h-1v2h-2v1h-4v-1h-1v-1h1v-1h1v-1h1v-2h1v-1h2v-1z" fill="rgb(255,213,106)"/>
<path d="M59 57h1v1h-1v-1z" fill="rgb(90,16,74)"/>
<path d="M64 57h1v2h-1v-2z" fill="rgb(90,16,74)"/>
<path d="M66 57h1v2h-1v-2z" fill="rgb(16,16,16)"/>
<path d="M27 58h1v3h-1v-3z" fill="rgb(90,16,74)"/>
<path d="M39 58h1v1h-1v-1z" fill="rgb(238,164,213)"/>
<path d="M49 58h1v1h-1v-1z" fill="rgb(230,172,90)"/>
<path d="M60 58h1v4h-1v-4z" fill="rgb(90,16,74)"/>
<path d="M65 58h1v1h-1v-1z" fill="rgb(230,172,90)"/>
<path d="M49 59h1v1h-1v-1z" fill="rgb(131,82,16)"/>
<path d="M64 59h1v1h-1v-1z" fill="rgb(230,172,90)"/>
<path d="M65 59h1v1h-1v-1z" fill="rgb(16,16,16)"/>
<path d="M43 60h1v1h-1v-1z" fill="rgb(230,172,90)"/>
<path d="M49 60h1v2h1v1h-2v1h-1v-2h1v-2z" fill="rgb(16,16,16)"/>
<path d="M63 60h1v1h-1v-1z" fill="rgb(230,172,90)"/>
<path d="M64 60h1v1h-1v-1z" fill="rgb(16,16,16)"/>
<path d="M27 61h1v1h-1v-1z" fill="rgb(131,82,16)"/>
<path d="M50 61h2v2h-1v-1h-1v-1z" fill="rgb(131,82,16)"/>
<path d="M61 61h2v1h-2v-1z" fill="rgb(230,172,90)"/>
<path d="M63 61h1v1h-1v-1z" fill="rgb(16,16,16)"/>
<path d="M28 62h1v2h-1v-2z" fill="rgb(131,82,16)"/>
<path d="M58 62h3v1h-3v-1z" fill="rgb(230,172,90)"/>
<path d="M61 62h2v1h-1v1h-2v1h-6v-1h5v-1h2v-1z" fill="rgb(16,16,16)"/>
<path d="M51 63h2v1h-2v-1z" fill="rgb(16,16,16)"/>
<path d="M53 63h2v1h-2v-1z" fill="rgb(131,82,16)"/>
<path d="M55 63h4v1h-4v-1z" fill="rgb(180,123,49)"/>
<path d="M29 64h1v1h-1v-1z" fill="rgb(131,82,16)"/>
<path d="M30 64h1v1h-1v-1z" fill="rgb(230,172,90)"/>
<path d="M40 64h2v1h4v1h-2v1h-2v1h-6v-1h-3v-1h5v-1h2v-1z" fill="rgb(230,172,90)"/>
<path d="M46 64h1v1h-1v-1z" fill="rgb(230,172,90)"/>
<path d="M47 64h1v1h-1v-1z" fill="rgb(16,16,16)"/>
<path d="M30 65h1v1h-1v-1z" fill="rgb(131,82,16)"/>
<path d="M31 65h2v1h-2v-1z" fill="rgb(230,172,90)"/>
<path d="M46 65h1v1h-1v-1z" fill="rgb(16,16,16)"/>
<path d="M31 66h1v1h-1v-1z" fill="rgb(16,16,16)"/>
<path d="M32 66h1v1h-1v-1z" fill="rgb(131,82,16)"/>
<path d="M44 66h1v1h-1v-1z" fill="rgb(131,82,16)"/>
<path d="M45 66h1v1h-1v-1z" fill="rgb(16,16,16)"/>
<path d="M33 67h2v1h-2v-1z" fill="rgb(16,16,16)"/>
<path d="M35 67h1v1h-1v-1z" fill="rgb(131,82,16)"/>
<path d="M42 67h1v1h-1v-1z" fill="rgb(131,82,16)"/>
<path d="M43 67h1v1h-1v-1z" fill="rgb(16,16,16)"/>
<path d="M36 68h1v1h-1v-1z" fill="rgb(131,82,16)"/>
<path d="M37 68h4v1h-4v-1z" fill="rgb(16,16,16)"/>
<path d="M41 68h1v1h-1v-1z" fill="rgb(131,82,16)"/>
</svg>
