<?xml version="1.0" encoding="utf-8"?>
<!-- generated at drububu.com  -->
<!DOCTYPE svg PUBLIC "-//W3C//DTD SVG 1.1//EN" "http://www.w3.org/Graphics/SVG/1.1/DTD/svg11.dtd">
<svg version="1.1" preserveAspectRatio="xMinYMin meet" xmlns="http://www.w3.org/2000/svg" xmlns:xlink="http://www.w3.org/1999/xlink" x="0px" y="0px" width="96px" height="96px" viewBox="0 0 96 96">
<path d="M0 0h96v96h-96v-96z" fill="transparent"/>
<path d="M40 14h1v1h-1v-1z" fill="rgb(164,131,197)"/>
<path d="M41 14h5v1h-5v-1z" fill="rgb(82,57,123)"/>
<path d="M46 14h1v1h-1v-1z" fill="rgb(123,98,172)"/>
<path d="M37 15h1v1h-1v-1z" fill="rgb(164,131,197)"/>
<path d="M38 15h2v1h-2v-1z" fill="rgb(82,57,123)"/>
<path d="M40 15h6v1h-2v1h-1v1h-2v1h1v1h-4v-1h-1v1h-2v-1h-1v-1h1v-1h2v-1h3v-1z" fill="rgb(197,164,238)"/>
<path d="M46 15h1v1h-1v-1z" fill="rgb(164,131,197)"/>
<path d="M47 15h3v1h-3v-1z" fill="rgb(123,98,172)"/>
<path d="M35 16h1v1h-1v-1z" fill="rgb(123,98,172)"/>
<path d="M36 16h1v1h-1v-1z" fill="rgb(164,131,197)"/>
<path d="M44 16h1v1h-1v-1z" fill="rgb(164,131,197)"/>
<path d="M45 16h2v1h-2v-1z" fill="rgb(123,98,172)"/>
<path d="M47 16h3v1h2v1h1v1h2v1h1v1h2v1h2v1h-7v-1h-4v4h-1v2h-1v1h-1v-2h1v-5h1v-3h-1v-3z" fill="rgb(164,131,197)"/>
<path d="M50 16h2v1h-2v-1z" fill="rgb(123,98,172)"/>
<path d="M34 17h1v1h-1v-1z" fill="rgb(82,57,123)"/>
<path d="M43 17h1v2h-2v-1h1v-1z" fill="rgb(16,16,16)"/>
<path d="M44 17h2v2h-2v-2z" fill="rgb(255,255,255)"/>
<path d="M46 17h1v2h-1v-2z" fill="rgb(82,57,123)"/>
<path d="M52 17h1v1h-1v-1z" fill="rgb(123,98,172)"/>
<path d="M33 18h1v1h-1v-1z" fill="rgb(82,57,123)"/>
<path d="M41 18h1v1h-1v-1z" fill="rgb(164,131,197)"/>
<path d="M53 18h1v1h-1v-1z" fill="rgb(123,98,172)"/>
<path d="M54 18h1v1h-1v-1z" fill="rgb(82,57,123)"/>
<path d="M32 19h1v3h-1v-3z" fill="rgb(82,57,123)"/>
<path d="M33 19h1v2h-1v-2z" fill="rgb(197,164,238)"/>
<path d="M34 19h1v1h-1v-1z" fill="rgb(123,98,172)"/>
<path d="M37 19h1v1h-1v-1z" fill="rgb(123,98,172)"/>
<path d="M42 19h5v2h-4v-1h-1v-1z" fill="rgb(164,131,197)"/>
<path d="M47 19h1v1h-1v-1z" fill="rgb(123,98,172)"/>
<path d="M55 19h1v1h-1v-1z" fill="rgb(82,57,123)"/>
<path d="M34 20h1v1h-1v-1z" fill="rgb(164,131,197)"/>
<path d="M35 20h1v1h2v1h-4v-1h1v-1z" fill="rgb(82,57,123)"/>
<path d="M36 20h7v1h-2v4h-1v-1h-2v-1h-3v-1h3v-1h-2v-1z" fill="rgb(16,16,16)"/>
<path d="M47 20h1v2h-2v-1h1v-1z" fill="rgb(82,57,123)"/>
<path d="M56 20h2v1h-2v-1z" fill="rgb(82,57,123)"/>
<path d="M33 21h1v1h-1v-1z" fill="rgb(123,98,172)"/>
<path d="M39 21h1v1h-1v-1z" fill="rgb(197,197,197)"/>
<path d="M41 21h2v1h3v2h-3v1h-2v-4z" fill="rgb(156,16,0)"/>
<path d="M43 21h3v1h-3v-1z" fill="rgb(16,16,16)"/>
<path d="M58 21h2v1h-2v-1z" fill="rgb(82,57,123)"/>
<path d="M33 22h1v1h-1v-1z" fill="rgb(16,16,16)"/>
<path d="M34 22h1v1h-1v-1z" fill="rgb(197,197,197)"/>
<path d="M39 22h1v1h-1v-1z" fill="rgb(255,255,255)"/>
<path d="M46 22h1v3h-1v-3z" fill="rgb(16,16,16)"/>
<path d="M49 22h1v1h-1v-1z" fill="rgb(82,57,123)"/>
<path d="M50 22h3v1h7v1h2v1h2v1h1v1h1v1h1v1h1v2h1v3h1v6h-1v3h-1v2h-1v2h-1v1h-1v1h-1v1h-2
	v1h-1v1h-2v1h-2v1h-1v1h-1v1h-1v2h-1v3h-1v-1h-2v-1h1v-3h1v-2h1v-1h2v-1h2v-1h1
	v-1h1v-1h2v-1h1v-1h1v-2h1v-2h1v-3h1v-3h-1v-2h-1v-1h-1v-7h-3v1h-2v1h-2v1h-2v1h-1
	v1h-1v1h-1v1h-1v2h-1v2h-4v-2h-1v-2h-2v-1h3v1h1v1h1v-1h1v-1h1v-1h1v-1h1v-1h2v-1
	h1v-1h1v-1h2v-1h-3v1h-2v1h-2v1h-2v-1h1v-1h1v-3h-1v-1h1v-1z" fill="rgb(123,98,172)"/>
<path d="M60 22h2v1h-2v-1z" fill="rgb(82,57,123)"/>
<path d="M34 23h1v1h-1v-1z" fill="rgb(16,16,16)"/>
<path d="M60 23h2v1h-2v-1z" fill="rgb(164,131,197)"/>
<path d="M62 23h2v1h-2v-1z" fill="rgb(82,57,123)"/>
<path d="M37 24h1v1h-1v-1z" fill="rgb(123,98,172)"/>
<path d="M38 24h2v1h1v2h-3v1h-1v2h-3v1h-1v7h1v1h1v1h1v1h-1v2h1v1h1v1h1v1h1v1h1v1h1v1h2v1
	h1v1h1v1h3v-1h2v-1h3v-1h3v-1h1v-1h1v-1h1v-1h1v-1h1v-2h1v-3h-1v1h-1v1h-2v-1h1
	v-1h1v-1h1v-1h1v-2h1v-1h1v1h1v2h1v3h-1v3h-1v2h-1v2h-1v1h-1v1h-2v1h-1v1h-1v1h-2v1
	h-2v1h-1v2h-1v3h-3v-1h-6v1h-1v-2h1v-6h-1v-1h-2v-1h-1v-1h-1v-1h-2v-1h-1v-2h-1
	v-2h-1v-3h-1v-7h1v-2h1v-2h1v-1h1v-1h2v-1h1v-1z" fill="rgb(164,131,197)"/>
<path d="M43 24h1v1h-1v-1z" fill="rgb(197,65,24)"/>
<path d="M44 24h2v3h-1v1h-1v-1h-1v1h-1v-2h1v-1h1v-1z" fill="rgb(246,115,74)"/>
<path d="M49 24h1v2h-1v-2z" fill="rgb(82,57,123)"/>
<path d="M62 24h2v1h-2v-1z" fill="rgb(164,131,197)"/>
<path d="M64 24h1v1h-1v-1z" fill="rgb(82,57,123)"/>
<path d="M35 25h2v1h-2v-1z" fill="rgb(123,98,172)"/>
<path d="M41 25h1v2h-1v-2z" fill="rgb(16,16,16)"/>
<path d="M42 25h1v1h-1v-1z" fill="rgb(197,65,24)"/>
<path d="M46 25h1v2h-1v-2z" fill="rgb(82,57,123)"/>
<path d="M64 25h1v1h-1v-1z" fill="rgb(164,131,197)"/>
<path d="M65 25h1v1h-1v-1z" fill="rgb(82,57,123)"/>
<path d="M34 26h1v1h-1v-1z" fill="rgb(123,98,172)"/>
<path d="M48 26h1v2h-1v-2z" fill="rgb(82,57,123)"/>
<path d="M49 26h1v1h-1v-1z" fill="rgb(16,16,16)"/>
<path d="M54 26h1v1h-1v-1z" fill="rgb(82,57,123)"/>
<path d="M55 26h2v1h-2v-1z" fill="rgb(16,16,16)"/>
<path d="M65 26h1v1h-1v-1z" fill="rgb(164,131,197)"/>
<path d="M66 26h1v1h-1v-1z" fill="rgb(82,57,123)"/>
<path d="M33 27h1v1h-1v-1z" fill="rgb(82,57,123)"/>
<path d="M38 27h3v1h-1v1h-1v-1h-1v-1z" fill="rgb(16,16,16)"/>
<path d="M41 27h1v3h-2v-2h1v-1z" fill="rgb(197,65,24)"/>
<path d="M43 27h1v1h-1v-1z" fill="rgb(16,16,16)"/>
<path d="M45 27h1v2h-1v-2z" fill="rgb(82,57,123)"/>
<path d="M52 27h3v1h-1v1h-2v1h-1v1h-1v1h-1v1h-1v1h-1v1h-1v-1h-1v-3h1v-1h1v-1h1v1h1v-1h1
	v-1h2v-1z" fill="rgb(16,16,16)"/>
<path d="M60 27h2v1h1v5h-1v-4h-2v1h-2v1h-2v1h-2v1h-1v1h-1v2h-1v2h1v1h1v1h3v-1h2v-1h2v1
	h-1v1h-1v1h-2v1h-3v-1h-2v-1h-1v-2h-1v-2h1v-2h1v-1h1v-1h1v-1h1v-1h2v-1h2v-1h2v-1z" fill="rgb(16,16,16)"/>
<path d="M62 27h1v1h-1v-1z" fill="rgb(82,57,123)"/>
<path d="M66 27h1v1h-1v-1z" fill="rgb(164,131,197)"/>
<path d="M67 27h1v1h-1v-1z" fill="rgb(82,57,123)"/>
<path d="M32 28h1v2h-1v-2z" fill="rgb(82,57,123)"/>
<path d="M37 28h1v3h-1v-3z" fill="rgb(16,16,16)"/>
<path d="M38 28h1v2h-1v-2z" fill="rgb(255,255,255)"/>
<path d="M42 28h1v1h-1v-1z" fill="rgb(16,16,16)"/>
<path d="M43 28h1v2h-1v-2z" fill="rgb(255,255,255)"/>
<path d="M44 28h1v1h-1v-1z" fill="rgb(197,65,24)"/>
<path d="M47 28h1v1h-1v-1z" fill="rgb(82,57,123)"/>
<path d="M67 28h1v1h-1v-1z" fill="rgb(16,16,16)"/>
<path d="M39 29h1v1h-1v-1z" fill="rgb(197,197,197)"/>
<path d="M42 29h1v1h-1v-1z" fill="rgb(197,197,197)"/>
<path d="M44 29h1v1h-1v-1z" fill="rgb(82,57,123)"/>
<path d="M45 29h1v2h-1v1h-2v-1h1v-1h1v-1z" fill="rgb(164,131,197)"/>
<path d="M46 29h1v1h-1v-1z" fill="rgb(82,57,123)"/>
<path d="M48 29h1v1h-1v-1z" fill="rgb(82,57,123)"/>
<path d="M52 29h1v1h-1v-1z" fill="rgb(82,57,123)"/>
<path d="M60 29h2v5h-1v-3h-3v-1h2v-1z" fill="rgb(197,65,24)"/>
<path d="M68 29h1v1h-1v-1z" fill="rgb(82,57,123)"/>
<path d="M31 30h1v2h-1v-2z" fill="rgb(82,57,123)"/>
<path d="M34 30h2v1h1v1h-3v3h1v2h1v1h1v1h1v1h5v-5h1v2h1v2h-1v2h-1v1h-3v-1h-3v-1h-1v-1h-1
	v-1h-1v-2h-1v-5h1v-1z" fill="rgb(16,16,16)"/>
<path d="M36 30h1v1h-1v-1z" fill="rgb(123,98,172)"/>
<path d="M38 30h1v1h-1v-1z" fill="rgb(123,98,172)"/>
<path d="M39 30h1v1h-1v-1z" fill="rgb(82,57,123)"/>
<path d="M40 30h3v1h-3v-1z" fill="rgb(16,16,16)"/>
<path d="M43 30h1v1h-1v-1z" fill="rgb(82,57,123)"/>
<path d="M68 30h1v1h-1v-1z" fill="rgb(16,16,16)"/>
<path d="M37 31h1v1h-1v-1z" fill="rgb(164,131,197)"/>
<path d="M38 31h1v1h2v1h1v1h-2v-1h-3v-1h1v-1z" fill="rgb(16,16,16)"/>
<path d="M39 31h4v1h-4v-1z" fill="rgb(197,164,238)"/>
<path d="M47 31h1v1h-1v-1z" fill="rgb(156,16,0)"/>
<path d="M56 31h2v1h-2v-1z" fill="rgb(197,65,24)"/>
<path d="M58 31h1v1h-1v-1z" fill="rgb(246,115,74)"/>
<path d="M59 31h2v2h-1v2h-1v2h-2v1h-2v-1h1v-1h-2v1h-1v-2h1v-1h1v-1h2v-1h2v-1z" fill="rgb(238,230,82)"/>
<path d="M69 31h1v1h-1v-1z" fill="rgb(82,57,123)"/>
<path d="M30 32h1v1h-1v-1z" fill="rgb(82,57,123)"/>
<path d="M34 32h3v1h-2v1h-1v-2z" fill="rgb(197,65,24)"/>
<path d="M41 32h4v1h-4v-1z" fill="rgb(82,57,123)"/>
<path d="M54 32h2v1h-1v1h-1v1h-1v2h2v1h3v1h-2v1h-3v-1h-1v-1h-1v-2h1v-2h1v-1h1v-1z" fill="rgb(197,65,24)"/>
<path d="M56 32h1v1h-1v-1z" fill="rgb(246,115,74)"/>
<path d="M69 32h1v2h-1v-2z" fill="rgb(16,16,16)"/>
<path d="M30 33h1v6h-1v-6z" fill="rgb(16,16,16)"/>
<path d="M35 33h2v1h2v1h2v1h1v2h-1v-1h-2v1h1v1h-2v-1h-1v-1h-1v-3h-1v-1z" fill="rgb(238,230,82)"/>
<path d="M37 33h3v1h2v1h1v2h-1v-1h-1v-1h-2v-1h-2v-1z" fill="rgb(197,65,24)"/>
<path d="M60 33h1v1h-1v-1z" fill="rgb(246,115,74)"/>
<path d="M62 33h1v1h-1v-1z" fill="rgb(82,57,123)"/>
<path d="M34 34h1v1h-1v-1z" fill="rgb(156,16,0)"/>
<path d="M35 34h1v2h-1v-2z" fill="rgb(197,65,24)"/>
<path d="M42 34h1v1h-1v-1z" fill="rgb(16,16,16)"/>
<path d="M43 34h1v1h-1v-1z" fill="rgb(82,57,123)"/>
<path d="M60 34h1v2h-1v-2z" fill="rgb(197,65,24)"/>
<path d="M61 34h1v3h-1v1h-1v-2h1v-2z" fill="rgb(16,16,16)"/>
<path d="M62 34h1v1h-1v-1z" fill="rgb(123,98,172)"/>
<path d="M70 34h1v6h-1v-6z" fill="rgb(16,16,16)"/>
<path d="M11 35h4v1h-4v-1z" fill="rgb(82,57,123)"/>
<path d="M59 35h1v1h-1v-1z" fill="rgb(246,115,74)"/>
<path d="M10 36h1v1h-1v-1z" fill="rgb(82,57,123)"/>
<path d="M11 36h4v1h2v1h1v1h-1v1h-1v-1h-1v-1h-2v-1h-2v-1z" fill="rgb(164,131,197)"/>
<path d="M15 36h2v1h-2v-1z" fill="rgb(82,57,123)"/>
<path d="M33 36h1v1h-1v-1z" fill="rgb(82,57,123)"/>
<path d="M35 36h1v1h-1v-1z" fill="rgb(156,16,0)"/>
<path d="M44 36h1v1h-1v-1z" fill="rgb(82,57,123)"/>
<path d="M54 36h1v1h-1v-1z" fill="rgb(246,115,74)"/>
<path d="M55 36h1v1h-1v-1z" fill="rgb(197,65,24)"/>
<path d="M59 36h1v2h-2v-1h1v-1z" fill="rgb(197,65,24)"/>
<path d="M11 37h2v1h-2v-1z" fill="rgb(82,57,123)"/>
<path d="M17 37h1v1h-1v-1z" fill="rgb(82,57,123)"/>
<path d="M33 37h1v1h-1v-1z" fill="rgb(123,98,172)"/>
<path d="M36 37h1v1h-1v-1z" fill="rgb(197,65,24)"/>
<path d="M39 37h2v1h-2v-1z" fill="rgb(246,115,74)"/>
<path d="M42 37h1v1h-1v-1z" fill="rgb(246,115,74)"/>
<path d="M57 37h1v1h-1v-1z" fill="rgb(246,115,74)"/>
<path d="M13 38h2v1h-2v-1z" fill="rgb(82,57,123)"/>
<path d="M18 38h1v1h1v1h-3v-1h1v-1z" fill="rgb(82,57,123)"/>
<path d="M34 38h1v1h-1v-1z" fill="rgb(82,57,123)"/>
<path d="M37 38h1v1h-1v-1z" fill="rgb(197,65,24)"/>
<path d="M40 38h3v2h-4v-1h1v-1z" fill="rgb(197,65,24)"/>
<path d="M45 38h4v1h1v2h2v1h4v1h-2v1h-2v-1h-2v-1h-2v-1h-1v-1h-1v1h-1v1h-1v1h-2v1h-2v-1
	h-2v-1h5v-1h1v-1h1v-2z" fill="rgb(164,131,197)"/>
<path d="M49 38h1v1h-1v-1z" fill="rgb(82,57,123)"/>
<path d="M15 39h1v1h1v5h3v1h-3v1h-1v-6h-1v-2z" fill="rgb(82,57,123)"/>
<path d="M30 39h1v1h-1v-1z" fill="rgb(82,57,123)"/>
<path d="M31 39h1v1h-1v-1z" fill="rgb(123,98,172)"/>
<path d="M35 39h1v1h-1v-1z" fill="rgb(82,57,123)"/>
<path d="M38 39h1v1h-1v-1z" fill="rgb(156,16,0)"/>
<path d="M44 39h1v1h-1v-1z" fill="rgb(82,57,123)"/>
<path d="M61 39h1v2h-1v2h-1v2h-1v1h-1v1h-2v1h-1v1h-3v1h-3v1h-2v1h-1v-1h-1v-1h-2v-1h-1v-1
	h-2v-1h-1v-1h-1v-1h-1v-1h-1v-2h1v1h2v1h4v-1h1v-1h1v-1h3v1h1v1h2v1h4v-1h2v-1h2
	v-1h1v-1h1v-1z" fill="rgb(16,16,16)"/>
<path d="M17 40h3v2h1v4h-1v-1h-3v-5z" fill="rgb(164,131,197)"/>
<path d="M20 40h1v2h-1v-2z" fill="rgb(82,57,123)"/>
<path d="M31 40h1v1h-1v-1z" fill="rgb(82,57,123)"/>
<path d="M36 40h1v1h-1v-1z" fill="rgb(82,57,123)"/>
<path d="M46 40h1v1h-1v-1z" fill="rgb(82,57,123)"/>
<path d="M50 40h1v1h-1v-1z" fill="rgb(123,98,172)"/>
<path d="M69 40h1v3h-1v-3z" fill="rgb(16,16,16)"/>
<path d="M31 41h1v2h-1v-2z" fill="rgb(16,16,16)"/>
<path d="M35 41h1v1h-1v-1z" fill="rgb(16,16,16)"/>
<path d="M36 41h2v1h-2v-1z" fill="rgb(164,131,197)"/>
<path d="M38 41h1v1h-1v-1z" fill="rgb(123,98,172)"/>
<path d="M39 41h1v1h-1v-1z" fill="rgb(82,57,123)"/>
<path d="M52 41h1v1h-1v-1z" fill="rgb(82,57,123)"/>
<path d="M56 41h2v1h-2v-1z" fill="rgb(164,131,197)"/>
<path d="M58 41h1v1h-1v-1z" fill="rgb(123,98,172)"/>
<path d="M61 41h1v1h-1v-1z" fill="rgb(82,57,123)"/>
<path d="M21 42h1v2h-1v-2z" fill="rgb(82,57,123)"/>
<path d="M32 42h1v1h-1v-1z" fill="rgb(123,98,172)"/>
<path d="M35 42h1v1h-1v-1z" fill="rgb(82,57,123)"/>
<path d="M37 42h1v1h-1v-1z" fill="rgb(123,98,172)"/>
<path d="M49 42h1v1h-1v-1z" fill="rgb(123,98,172)"/>
<path d="M56 42h1v1h-1v-1z" fill="rgb(123,98,172)"/>
<path d="M32 43h1v1h-1v-1z" fill="rgb(82,57,123)"/>
<path d="M39 43h1v1h-1v-1z" fill="rgb(123,98,172)"/>
<path d="M42 43h1v1h-1v-1z" fill="rgb(123,98,172)"/>
<path d="M51 43h1v1h-1v-1z" fill="rgb(123,98,172)"/>
<path d="M54 43h1v1h-1v-1z" fill="rgb(123,98,172)"/>
<path d="M60 43h1v1h-1v-1z" fill="rgb(82,57,123)"/>
<path d="M68 43h1v2h-1v-2z" fill="rgb(16,16,16)"/>
<path d="M21 44h1v5h-1v-5z" fill="rgb(16,16,16)"/>
<path d="M32 44h1v1h-1v-1z" fill="rgb(16,16,16)"/>
<path d="M33 44h1v1h-1v-1z" fill="rgb(82,57,123)"/>
<path d="M33 45h1v1h-1v-1z" fill="rgb(16,16,16)"/>
<path d="M67 45h1v1h-1v-1z" fill="rgb(16,16,16)"/>
<path d="M17 46h1v3h-1v1h-1v-2h1v-2z" fill="rgb(197,164,238)"/>
<path d="M18 46h2v1h1v3h-1v2h-1v-1h-1v-1h-1v-1h1v-3z" fill="rgb(164,131,197)"/>
<path d="M20 46h1v1h-1v-1z" fill="rgb(82,57,123)"/>
<path d="M34 46h1v1h-1v-1z" fill="rgb(16,16,16)"/>
<path d="M67 46h1v1h-1v-1z" fill="rgb(82,57,123)"/>
<path d="M15 47h1v2h-1v-2z" fill="rgb(82,57,123)"/>
<path d="M16 47h1v1h-1v-1z" fill="rgb(164,131,197)"/>
<path d="M35 47h1v1h1v1h-2v-2z" fill="rgb(16,16,16)"/>
<path d="M36 47h1v1h-1v-1z" fill="rgb(123,98,172)"/>
<path d="M56 47h1v1h-1v-1z" fill="rgb(82,57,123)"/>
<path d="M66 47h1v1h-1v-1z" fill="rgb(16,16,16)"/>
<path d="M37 48h1v1h-1v-1z" fill="rgb(123,98,172)"/>
<path d="M41 48h1v1h-1v-1z" fill="rgb(82,57,123)"/>
<path d="M55 48h1v1h-1v-1z" fill="rgb(123,98,172)"/>
<path d="M65 48h1v1h-1v-1z" fill="rgb(16,16,16)"/>
<path d="M14 49h1v1h3v1h-4v-2z" fill="rgb(82,57,123)"/>
<path d="M15 49h1v1h-1v-1z" fill="rgb(164,131,197)"/>
<path d="M21 49h1v1h-1v-1z" fill="rgb(82,57,123)"/>
<path d="M36 49h2v1h-2v-1z" fill="rgb(82,57,123)"/>
<path d="M38 49h1v1h2v1h1v3h-1v-1h-1v-1h-1v-1h-1v-2z" fill="rgb(123,98,172)"/>
<path d="M52 49h1v1h-1v-1z" fill="rgb(123,98,172)"/>
<path d="M64 49h1v1h-1v-1z" fill="rgb(16,16,16)"/>
<path d="M20 50h1v1h-1v-1z" fill="rgb(82,57,123)"/>
<path d="M37 50h1v1h-1v-1z" fill="rgb(16,16,16)"/>
<path d="M44 50h1v1h-1v-1z" fill="rgb(123,98,172)"/>
<path d="M49 50h1v1h-1v-1z" fill="rgb(123,98,172)"/>
<path d="M62 50h1v1h-1v-1z" fill="rgb(16,16,16)"/>
<path d="M63 50h1v1h-1v-1z" fill="rgb(82,57,123)"/>
<path d="M13 51h1v3h-1v-3z" fill="rgb(82,57,123)"/>
<path d="M14 51h1v2h-1v-2z" fill="rgb(164,131,197)"/>
<path d="M15 51h2v3h-1v2h-2v-3h1v-2z" fill="rgb(197,164,238)"/>
<path d="M17 51h1v1h1v5h-1v-1h-2v-2h1v-3z" fill="rgb(164,131,197)"/>
<path d="M18 51h1v1h-1v-1z" fill="rgb(82,57,123)"/>
<path d="M20 51h1v1h-1v-1z" fill="rgb(16,16,16)"/>
<path d="M38 51h1v1h-1v-1z" fill="rgb(16,16,16)"/>
<path d="M45 51h1v1h-1v-1z" fill="rgb(123,98,172)"/>
<path d="M47 51h1v1h-1v-1z" fill="rgb(123,98,172)"/>
<path d="M61 51h1v1h-1v-1z" fill="rgb(16,16,16)"/>
<path d="M19 52h1v2h-1v-2z" fill="rgb(82,57,123)"/>
<path d="M39 52h1v1h-1v-1z" fill="rgb(16,16,16)"/>
<path d="M59 52h2v1h-2v-1z" fill="rgb(16,16,16)"/>
<path d="M40 53h1v1h-1v-1z" fill="rgb(16,16,16)"/>
<path d="M57 53h2v1h-2v-1z" fill="rgb(16,16,16)"/>
<path d="M12 54h1v2h-1v-2z" fill="rgb(82,57,123)"/>
<path d="M13 54h1v3h-1v-3z" fill="rgb(164,131,197)"/>
<path d="M19 54h1v4h-1v-4z" fill="rgb(16,16,16)"/>
<path d="M41 54h1v3h-1v3h-1v-2h-1v-1h1v-1h1v-2z" fill="rgb(16,16,16)"/>
<path d="M56 54h1v1h-1v-1z" fill="rgb(16,16,16)"/>
<path d="M55 55h1v1h-1v-1z" fill="rgb(16,16,16)"/>
<path d="M12 56h1v5h-1v-5z" fill="rgb(16,16,16)"/>
<path d="M14 56h4v1h-4v-1z" fill="rgb(82,57,123)"/>
<path d="M54 56h1v2h-1v-2z" fill="rgb(16,16,16)"/>
<path d="M13 57h1v1h-1v-1z" fill="rgb(82,57,123)"/>
<path d="M14 57h2v2h1v3h-1v1h-1v-2h-1v-4z" fill="rgb(197,164,238)"/>
<path d="M16 57h2v1h1v1h1v2h-3v-2h-1v-2z" fill="rgb(164,131,197)"/>
<path d="M18 57h1v1h-1v-1z" fill="rgb(82,57,123)"/>
<path d="M37 57h2v1h-2v-1z" fill="rgb(82,57,123)"/>
<path d="M55 57h3v1h-3v-1z" fill="rgb(82,57,123)"/>
<path d="M58 57h2v1h-2v-1z" fill="rgb(16,16,16)"/>
<path d="M13 58h1v3h1v4h-1v-3h-1v-4z" fill="rgb(164,131,197)"/>
<path d="M19 58h1v1h-1v-1z" fill="rgb(82,57,123)"/>
<path d="M35 58h2v1h-2v-1z" fill="rgb(82,57,123)"/>
<path d="M37 58h3v2h-1v4h-1v-1h-1v-1h-1v-1h-2v-1h1v-1h2v-1z" fill="rgb(164,131,197)"/>
<path d="M42 58h5v1h-5v-1z" fill="rgb(82,57,123)"/>
<path d="M47 58h1v2h-1v-2z" fill="rgb(123,98,172)"/>
<path d="M53 58h1v3h-1v-3z" fill="rgb(16,16,16)"/>
<path d="M54 58h6v1h-2v1h-1v1h-1v1h-1v5h-1v-1h-1v-5h1v-3z" fill="rgb(123,98,172)"/>
<path d="M60 58h3v1h-3v-1z" fill="rgb(16,16,16)"/>
<path d="M20 59h1v2h-1v-2z" fill="rgb(82,57,123)"/>
<path d="M34 59h1v1h-1v-1z" fill="rgb(82,57,123)"/>
<path d="M41 59h1v1h-1v-1z" fill="rgb(82,57,123)"/>
<path d="M42 59h5v1h3v3h-1v7h-2v1h-6v-1h-2v-1h-1v-3h1v-2h1v-3h1v-1h1v-1z" fill="rgb(164,131,197)"/>
<path d="M48 59h2v1h-2v-1z" fill="rgb(82,57,123)"/>
<path d="M58 59h2v1h-2v-1z" fill="rgb(82,57,123)"/>
<path d="M60 59h3v1h2v1h1v1h1v1h-6v1h-2v1h-1v1h-1v1h-1v-4h1v-2h1v-1h2v-1z" fill="rgb(123,98,172)"/>
<path d="M63 59h2v1h-2v-1z" fill="rgb(16,16,16)"/>
<path d="M33 60h1v1h1v1h-3v-1h1v-1z" fill="rgb(82,57,123)"/>
<path d="M39 60h1v3h-1v-3z" fill="rgb(16,16,16)"/>
<path d="M40 60h1v1h-1v-1z" fill="rgb(82,57,123)"/>
<path d="M50 60h2v1h-2v-1z" fill="rgb(82,57,123)"/>
<path d="M57 60h1v1h-1v-1z" fill="rgb(82,57,123)"/>
<path d="M65 60h1v1h-1v-1z" fill="rgb(16,16,16)"/>
<path d="M12 61h1v1h-1v-1z" fill="rgb(82,57,123)"/>
<path d="M17 61h3v1h-3v-1z" fill="rgb(82,57,123)"/>
<path d="M20 61h1v1h1v1h1v1h-1v1h-1v-1h-2v-1h-1v-1h2v-1z" fill="rgb(164,131,197)"/>
<path d="M21 61h1v1h-1v-1z" fill="rgb(82,57,123)"/>
<path d="M35 61h1v1h-1v-1z" fill="rgb(123,98,172)"/>
<path d="M50 61h2v7h-1v1h-1v1h-1v-7h1v-2z" fill="rgb(123,98,172)"/>
<path d="M52 61h1v5h-1v-5z" fill="rgb(16,16,16)"/>
<path d="M56 61h1v2h-1v3h-1v-4h1v-1z" fill="rgb(82,57,123)"/>
<path d="M66 61h1v1h-1v-1z" fill="rgb(16,16,16)"/>
<path d="M13 62h1v2h-1v-2z" fill="rgb(82,57,123)"/>
<path d="M16 62h1v1h-1v-1z" fill="rgb(82,57,123)"/>
<path d="M17 62h1v1h1v1h2v2h-2v-1h-2v-1h-1v-1h1v-1z" fill="rgb(197,164,238)"/>
<path d="M22 62h2v1h6v1h-7v-1h-1v-1z" fill="rgb(82,57,123)"/>
<path d="M30 62h2v1h-2v-1z" fill="rgb(82,57,123)"/>
<path d="M32 62h4v1h1v1h1v2h-2v1h-2v1h-5v1h-8v-2h2v-3h7v-1h2v-1z" fill="rgb(164,131,197)"/>
<path d="M36 62h1v1h-1v-1z" fill="rgb(82,57,123)"/>
<path d="M67 62h1v1h-1v-1z" fill="rgb(16,16,16)"/>
<path d="M15 63h1v2h-1v-2z" fill="rgb(82,57,123)"/>
<path d="M37 63h1v1h-1v-1z" fill="rgb(82,57,123)"/>
<path d="M39 63h1v1h-1v-1z" fill="rgb(82,57,123)"/>
<path d="M61 63h6v1h-6v-1z" fill="rgb(82,57,123)"/>
<path d="M67 63h1v1h-1v-1z" fill="rgb(123,98,172)"/>
<path d="M68 63h1v2h-1v-2z" fill="rgb(16,16,16)"/>
<path d="M13 64h1v1h-1v-1z" fill="rgb(16,16,16)"/>
<path d="M16 64h1v1h2v1h1v2h-3v-1h-1v-1h-1v-1h1v-1z" fill="rgb(164,131,197)"/>
<path d="M22 64h1v1h-1v-1z" fill="rgb(82,57,123)"/>
<path d="M38 64h1v2h-1v-2z" fill="rgb(16,16,16)"/>
<path d="M59 64h2v1h-2v-1z" fill="rgb(82,57,123)"/>
<path d="M61 64h6v1h1v1h1v4h-1v2h-1v1h-1v1h-1v-3h-1v-2h-1v-1h-2v-1h-3v-1h1v-1h2v-1z" fill="rgb(123,98,172)"/>
<path d="M67 64h1v1h-1v-1z" fill="rgb(82,57,123)"/>
<path d="M14 65h1v1h-1v-1z" fill="rgb(82,57,123)"/>
<path d="M21 65h1v2h-1v4h-1v-1h-1v-1h1v-3h1v-1z" fill="rgb(82,57,123)"/>
<path d="M22 65h1v2h-1v-2z" fill="rgb(197,164,238)"/>
<path d="M58 65h1v1h-1v-1z" fill="rgb(82,57,123)"/>
<path d="M68 65h1v1h-1v-1z" fill="rgb(82,57,123)"/>
<path d="M69 65h1v5h-1v-5z" fill="rgb(16,16,16)"/>
<path d="M14 66h1v1h-1v-1z" fill="rgb(16,16,16)"/>
<path d="M15 66h1v1h-1v-1z" fill="rgb(123,98,172)"/>
<path d="M36 66h1v4h-1v1h-3v1h-8v-1h-4v-2h8v-1h5v-1h2v-1z" fill="rgb(123,98,172)"/>
<path d="M37 66h1v6h-1v-1h-1v-1h1v-4z" fill="rgb(16,16,16)"/>
<path d="M52 66h1v2h-1v-2z" fill="rgb(82,57,123)"/>
<path d="M53 66h1v1h-1v-1z" fill="rgb(16,16,16)"/>
<path d="M55 66h1v1h1v1h-3v-1h1v-1z" fill="rgb(16,16,16)"/>
<path d="M57 66h1v1h-1v-1z" fill="rgb(16,16,16)"/>
<path d="M15 67h1v1h-1v-1z" fill="rgb(16,16,16)"/>
<path d="M16 67h1v1h-1v-1z" fill="rgb(123,98,172)"/>
<path d="M53 67h1v1h1v1h1v2h1v4h-1v2h-1v1h-9v-1h-3v-1h3v-1h2v-1h1v-1h1v-3h1v-1h1v-1h1v-1
	z" fill="rgb(123,98,172)"/>
<path d="M57 67h4v1h-4v-1z" fill="rgb(82,57,123)"/>
<path d="M16 68h1v1h-1v-1z" fill="rgb(16,16,16)"/>
<path d="M17 68h1v2h-1v-2z" fill="rgb(82,57,123)"/>
<path d="M18 68h2v1h-2v-1z" fill="rgb(123,98,172)"/>
<path d="M51 68h1v1h-1v-1z" fill="rgb(82,57,123)"/>
<path d="M55 68h1v1h-1v-1z" fill="rgb(82,57,123)"/>
<path d="M56 68h5v1h2v2h1v3h-1v2h-3v1h-3v-2h1v-4h-1v-2h-1v-1z" fill="rgb(123,98,172)"/>
<path d="M61 68h1v1h-1v-1z" fill="rgb(82,57,123)"/>
<path d="M62 68h1v1h-1v-1z" fill="rgb(16,16,16)"/>
<path d="M18 69h1v1h-1v-1z" fill="rgb(16,16,16)"/>
<path d="M38 69h1v1h-1v-1z" fill="rgb(82,57,123)"/>
<path d="M50 69h1v1h-1v-1z" fill="rgb(82,57,123)"/>
<path d="M56 69h1v2h-1v-2z" fill="rgb(82,57,123)"/>
<path d="M63 69h1v1h-1v-1z" fill="rgb(16,16,16)"/>
<path d="M19 70h1v1h-1v-1z" fill="rgb(16,16,16)"/>
<path d="M38 70h1v1h1v1h7v-1h2v-1h1v3h-1v1h-1v1h-2v1h-5v-1h-1v-1h-1v-2h-1v-2z" fill="rgb(164,131,197)"/>
<path d="M39 70h1v1h-1v-1z" fill="rgb(82,57,123)"/>
<path d="M40 70h1v2h-1v-2z" fill="rgb(123,98,172)"/>
<path d="M47 70h2v1h-2v-1z" fill="rgb(82,57,123)"/>
<path d="M63 70h1v1h-1v-1z" fill="rgb(82,57,123)"/>
<path d="M68 70h1v2h-1v-2z" fill="rgb(16,16,16)"/>
<path d="M21 71h1v1h-1v-1z" fill="rgb(82,57,123)"/>
<path d="M22 71h1v1h-1v-1z" fill="rgb(16,16,16)"/>
<path d="M23 71h2v1h1v1h-3v-2z" fill="rgb(82,57,123)"/>
<path d="M33 71h2v1h-2v-1z" fill="rgb(16,16,16)"/>
<path d="M35 71h1v1h-1v-1z" fill="rgb(82,57,123)"/>
<path d="M41 71h6v1h-6v-1z" fill="rgb(82,57,123)"/>
<path d="M57 71h1v4h-1v-4z" fill="rgb(82,57,123)"/>
<path d="M64 71h1v3h-1v-3z" fill="rgb(16,16,16)"/>
<path d="M26 72h6v1h-6v-1z" fill="rgb(16,16,16)"/>
<path d="M32 72h1v1h-1v-1z" fill="rgb(82,57,123)"/>
<path d="M38 72h1v1h-1v-1z" fill="rgb(82,57,123)"/>
<path d="M67 72h1v1h-1v-1z" fill="rgb(16,16,16)"/>
<path d="M38 73h1v1h-1v-1z" fill="rgb(16,16,16)"/>
<path d="M66 73h1v1h-1v-1z" fill="rgb(16,16,16)"/>
<path d="M39 74h1v1h-1v-1z" fill="rgb(16,16,16)"/>
<path d="M63 74h1v1h1v1h-2v-2z" fill="rgb(16,16,16)"/>
<path d="M64 74h1v1h-1v-1z" fill="rgb(123,98,172)"/>
<path d="M65 74h1v1h-1v-1z" fill="rgb(16,16,16)"/>
<path d="M40 75h1v1h-1v-1z" fill="rgb(16,16,16)"/>
<path d="M56 75h1v1h-1v-1z" fill="rgb(82,57,123)"/>
<path d="M41 76h2v1h-2v-1z" fill="rgb(16,16,16)"/>
<path d="M56 76h1v1h-1v-1z" fill="rgb(16,16,16)"/>
<path d="M60 76h1v1h-1v-1z" fill="rgb(82,57,123)"/>
<path d="M61 76h2v1h-2v-1z" fill="rgb(16,16,16)"/>
<path d="M43 77h3v1h-3v-1z" fill="rgb(16,16,16)"/>
<path d="M55 77h1v1h2v1h-12v-1h9v-1z" fill="rgb(16,16,16)"/>
<path d="M56 77h1v1h-1v-1z" fill="rgb(123,98,172)"/>
<path d="M57 77h1v1h-1v-1z" fill="rgb(82,57,123)"/>
<path d="M58 77h3v1h-3v-1z" fill="rgb(16,16,16)"/>
</svg>
