<?xml version="1.0" encoding="utf-8"?>
<!-- generated at drububu.com  -->
<!DOCTYPE svg PUBLIC "-//W3C//DTD SVG 1.1//EN" "http://www.w3.org/Graphics/SVG/1.1/DTD/svg11.dtd">
<svg version="1.1" preserveAspectRatio="xMinYMin meet" xmlns="http://www.w3.org/2000/svg" xmlns:xlink="http://www.w3.org/1999/xlink" x="0px" y="0px" width="96px" height="96px" viewBox="0 0 96 96">
<path d="M0 0h96v96h-96v-96z" fill="transparent"/>
<path d="M34 24h1v1h-1v-1z" fill="rgb(0,0,0)"/>
<path d="M33 25h1v3h-1v-3z" fill="rgb(0,0,0)"/>
<path d="M34 25h1v2h1v3h-2v1h-1v-3h1v-3z" fill="rgb(41,41,41)"/>
<path d="M35 25h1v2h-1v-2z" fill="rgb(0,0,0)"/>
<path d="M36 27h1v2h-1v-2z" fill="rgb(0,0,0)"/>
<path d="M32 28h1v6h-1v-6z" fill="rgb(0,0,0)"/>
<path d="M36 29h1v2h-1v-2z" fill="rgb(98,49,8)"/>
<path d="M34 30h1v1h-1v-1z" fill="rgb(65,65,74)"/>
<path d="M35 30h1v1h1v4h-1v1h-2v-2h-1v-2h1v-1h1v-1z" fill="rgb(246,189,32)"/>
<path d="M54 30h4v1h-4v-1z" fill="rgb(41,41,41)"/>
<path d="M33 31h1v1h-1v-1z" fill="rgb(65,65,74)"/>
<path d="M37 31h1v3h-1v-3z" fill="rgb(98,49,8)"/>
<path d="M51 31h3v1h-3v-1z" fill="rgb(41,41,41)"/>
<path d="M54 31h4v1h1v1h-1v1h-1v1h-2v1h-2v-1h1v-4z" fill="rgb(65,65,74)"/>
<path d="M58 31h1v1h-1v-1z" fill="rgb(41,41,41)"/>
<path d="M59 31h1v2h-1v-2z" fill="rgb(0,0,0)"/>
<path d="M49 32h2v1h-2v-1z" fill="rgb(156,82,0)"/>
<path d="M51 32h1v1h-1v-1z" fill="rgb(246,189,32)"/>
<path d="M52 32h2v2h-1v2h-1v1h-3v1h1v4h-1v-1h-2v-4h-4v-1h1v-1h-1v-1h2v1h2v-1h2v-1h3v-1z" fill="rgb(246,230,82)"/>
<path d="M40 33h5v1h-5v-1z" fill="rgb(156,82,0)"/>
<path d="M47 33h2v1h-2v-1z" fill="rgb(156,82,0)"/>
<path d="M58 33h1v1h-1v-1z" fill="rgb(0,0,0)"/>
<path d="M33 34h1v2h-1v-2z" fill="rgb(98,49,8)"/>
<path d="M37 34h2v1h-2v-1z" fill="rgb(156,82,0)"/>
<path d="M39 34h1v1h-1v-1z" fill="rgb(222,148,0)"/>
<path d="M40 34h3v1h1v1h-1v1h-6v-1h1v-1h2v-1z" fill="rgb(255,246,164)"/>
<path d="M45 34h1v1h-1v-1z" fill="rgb(222,148,0)"/>
<path d="M46 34h1v1h-1v-1z" fill="rgb(156,82,0)"/>
<path d="M53 34h1v1h-1v-1z" fill="rgb(115,115,131)"/>
<path d="M57 34h1v1h-1v-1z" fill="rgb(0,0,0)"/>
<path d="M36 35h2v1h-2v-1z" fill="rgb(222,148,0)"/>
<path d="M55 35h2v1h-2v-1z" fill="rgb(0,0,0)"/>
<path d="M64 35h2v1h-2v-1z" fill="rgb(156,82,0)"/>
<path d="M34 36h1v1h-1v-1z" fill="rgb(98,49,8)"/>
<path d="M35 36h1v1h-1v-1z" fill="rgb(222,148,0)"/>
<path d="M36 36h1v1h6v4h4v1h-1v1h-1v1h-1v-1h-3v-1h-3v1h-2v1h-1v-1h-2v-1h3v-2h1v-2h-2v-1
	h1v-1z" fill="rgb(246,230,82)"/>
<path d="M52 36h3v1h-3v-1z" fill="rgb(0,0,0)"/>
<path d="M63 36h1v1h-1v-1z" fill="rgb(156,82,0)"/>
<path d="M64 36h2v1h1v2h1v3h1v3h-1v1h-2v1h-2v1h-1v-1h-2v-1h-2v-1h-2v-1h-1v-1h1v-1h1v-1h2
	v-1h1v-1h1v-1h1v-1h1v-1z" fill="rgb(246,230,82)"/>
<path d="M66 36h1v1h-1v-1z" fill="rgb(156,82,0)"/>
<path d="M34 37h1v1h-1v-1z" fill="rgb(156,82,0)"/>
<path d="M43 37h1v1h-1v-1z" fill="rgb(246,189,32)"/>
<path d="M44 37h2v2h-1v-1h-1v-1z" fill="rgb(0,0,0)"/>
<path d="M46 37h1v1h-1v-1z" fill="rgb(246,189,32)"/>
<path d="M49 37h1v1h-1v-1z" fill="rgb(222,148,0)"/>
<path d="M50 37h1v1h-1v-1z" fill="rgb(156,82,0)"/>
<path d="M51 37h1v1h-1v-1z" fill="rgb(0,0,0)"/>
<path d="M62 37h1v1h-1v-1z" fill="rgb(156,82,0)"/>
<path d="M67 37h1v2h-1v-2z" fill="rgb(156,82,0)"/>
<path d="M33 38h1v3h-1v-3z" fill="rgb(98,49,8)"/>
<path d="M34 38h1v1h-1v-1z" fill="rgb(222,148,0)"/>
<path d="M35 38h1v1h-1v-1z" fill="rgb(0,0,0)"/>
<path d="M36 38h1v2h-1v-2z" fill="rgb(246,189,32)"/>
<path d="M43 38h1v1h-1v-1z" fill="rgb(65,65,74)"/>
<path d="M44 38h1v1h-1v-1z" fill="rgb(255,255,255)"/>
<path d="M46 38h1v2h-1v-2z" fill="rgb(41,41,41)"/>
<path d="M50 38h1v2h-1v-2z" fill="rgb(0,0,0)"/>
<path d="M61 38h1v1h-1v-1z" fill="rgb(222,148,0)"/>
<path d="M34 39h1v1h-1v-1z" fill="rgb(0,0,0)"/>
<path d="M35 39h1v1h-1v-1z" fill="rgb(255,255,255)"/>
<path d="M43 39h2v1h1v1h-2v-1h-1v-1z" fill="rgb(0,0,0)"/>
<path d="M45 39h1v1h-1v-1z" fill="rgb(65,65,74)"/>
<path d="M60 39h1v1h-1v-1z" fill="rgb(222,148,0)"/>
<path d="M68 39h1v3h-1v-3z" fill="rgb(156,82,0)"/>
<path d="M34 40h1v1h-1v-1z" fill="rgb(65,65,74)"/>
<path d="M35 40h1v1h-1v-1z" fill="rgb(0,0,0)"/>
<path d="M38 40h1v1h-1v-1z" fill="rgb(98,49,8)"/>
<path d="M39 40h1v1h-1v-1z" fill="rgb(222,148,0)"/>
<path d="M43 40h1v1h-1v-1z" fill="rgb(246,189,32)"/>
<path d="M46 40h1v1h-1v-1z" fill="rgb(246,189,32)"/>
<path d="M50 40h1v1h-1v-1z" fill="rgb(156,82,0)"/>
<path d="M58 40h2v1h-2v-1z" fill="rgb(222,148,0)"/>
<path d="M33 41h1v1h-1v-1z" fill="rgb(156,82,0)"/>
<path d="M34 41h1v1h-1v-1z" fill="rgb(41,41,41)"/>
<path d="M35 41h1v1h-1v-1z" fill="rgb(156,82,0)"/>
<path d="M47 41h2v2h-3v-1h1v-1z" fill="rgb(230,90,65)"/>
<path d="M50 41h1v1h-1v-1z" fill="rgb(222,148,0)"/>
<path d="M51 41h1v1h-1v-1z" fill="rgb(98,49,8)"/>
<path d="M57 41h1v1h-1v-1z" fill="rgb(156,82,0)"/>
<path d="M32 42h1v4h-1v-4z" fill="rgb(98,49,8)"/>
<path d="M38 42h1v1h-1v-1z" fill="rgb(98,49,8)"/>
<path d="M39 42h1v1h-1v-1z" fill="rgb(156,82,0)"/>
<path d="M40 42h1v1h-1v-1z" fill="rgb(222,148,0)"/>
<path d="M49 42h1v3h-1v1h-2v-1h-1v-2h3v-1z" fill="rgb(197,32,24)"/>
<path d="M50 42h1v7h-1v1h-1v1h-2v1h-1v-1h-1v1h-5v-1h-2v-1h-2v-1h-1v-2h-1v-4h1v1h4v-1h2v1
	h4v-1h1v2h1v1h2v-1h1v-3z" fill="rgb(246,189,32)"/>
<path d="M51 42h1v5h-1v-5z" fill="rgb(0,0,0)"/>
<path d="M56 42h1v1h-1v-1z" fill="rgb(156,82,0)"/>
<path d="M69 42h1v3h-1v-3z" fill="rgb(156,82,0)"/>
<path d="M33 43h1v1h-1v-1z" fill="rgb(230,90,65)"/>
<path d="M36 43h1v1h-1v-1z" fill="rgb(222,148,0)"/>
<path d="M37 43h1v1h-1v-1z" fill="rgb(98,49,8)"/>
<path d="M38 43h1v1h-1v-1z" fill="rgb(156,82,0)"/>
<path d="M41 43h2v1h-2v-1z" fill="rgb(156,82,0)"/>
<path d="M43 43h1v1h-1v-1z" fill="rgb(222,148,0)"/>
<path d="M55 43h1v2h-1v-2z" fill="rgb(156,82,0)"/>
<path d="M33 44h1v2h-1v-2z" fill="rgb(197,32,24)"/>
<path d="M56 44h1v1h2v1h2v1h2v1h-1v1h-2v1h-1v1h1v2h1v1h-2v1h-1v-1h-1v-1h1v-2h-1v-1h-1v-1
	h-1v-1h-1v-2h1v-1h1v-1z" fill="rgb(246,189,32)"/>
<path d="M54 45h1v1h-1v-1z" fill="rgb(156,82,0)"/>
<path d="M68 45h1v1h-1v-1z" fill="rgb(0,0,0)"/>
<path d="M33 46h1v1h-1v-1z" fill="rgb(156,82,0)"/>
<path d="M53 46h1v2h-1v-2z" fill="rgb(156,82,0)"/>
<path d="M66 46h2v1h-2v-1z" fill="rgb(0,0,0)"/>
<path d="M34 47h1v5h-1v-5z" fill="rgb(0,0,0)"/>
<path d="M51 47h1v1h-1v-1z" fill="rgb(98,49,8)"/>
<path d="M64 47h2v1h-2v-1z" fill="rgb(0,0,0)"/>
<path d="M51 48h1v5h1v2h-1v2h-1v2h-1v2h-1v-1h-1v1h-1v1h-3v1h-7v-1h-3v-1h-1v-3h2v1h1v1h2
	v-1h1v-1h1v-1h-1v-3h-1v-2h-1v2h1v3h1v1h-2v1h-1v-1h-1v-3h-1v-2h1v-4h1v1h2v1h2v1
	h4v2h1v-2h2v-1h2v-1h1v-1h1v-1z" fill="rgb(246,230,82)"/>
<path d="M52 48h1v4h-1v-4z" fill="rgb(0,0,0)"/>
<path d="M53 48h1v1h1v1h1v1h1v1h-1v1h-1v1h-1v-1h-1v-5z" fill="transparent"/>
<path d="M54 48h1v1h-1v-1z" fill="rgb(98,49,8)"/>
<path d="M62 48h2v1h-2v-1z" fill="rgb(0,0,0)"/>
<path d="M55 49h1v1h-1v-1z" fill="rgb(98,49,8)"/>
<path d="M60 49h2v1h-2v-1z" fill="rgb(0,0,0)"/>
<path d="M56 50h1v1h-1v-1z" fill="rgb(98,49,8)"/>
<path d="M59 50h1v1h-1v-1z" fill="rgb(156,82,0)"/>
<path d="M45 51h1v1h-1v-1z" fill="rgb(222,148,0)"/>
<path d="M57 51h1v1h-1v-1z" fill="rgb(98,49,8)"/>
<path d="M60 51h1v2h-1v-2z" fill="rgb(98,49,8)"/>
<path d="M34 52h1v1h-1v-1z" fill="rgb(222,148,0)"/>
<path d="M37 52h1v1h-1v-1z" fill="rgb(156,82,0)"/>
<path d="M44 52h1v2h-1v-2z" fill="rgb(222,148,0)"/>
<path d="M52 52h1v1h-1v-1z" fill="rgb(98,49,8)"/>
<path d="M56 52h1v1h-1v-1z" fill="rgb(0,0,0)"/>
<path d="M57 52h1v1h-1v-1z" fill="rgb(222,148,0)"/>
<path d="M33 53h1v5h-1v-5z" fill="rgb(0,0,0)"/>
<path d="M37 53h1v1h-1v-1z" fill="rgb(222,148,0)"/>
<path d="M53 53h1v3h1v1h1v1h-1v1h1v1h-2v-3h-1v-4z" fill="rgb(0,0,0)"/>
<path d="M55 53h1v1h-1v-1z" fill="rgb(0,0,0)"/>
<path d="M56 53h1v1h1v2h-1v1h-2v-1h-1v-1h1v-1h1v-1z" fill="rgb(222,148,0)"/>
<path d="M61 53h1v1h-1v-1z" fill="rgb(98,49,8)"/>
<path d="M38 54h1v2h-1v-2z" fill="rgb(156,82,0)"/>
<path d="M43 54h1v2h-1v-2z" fill="rgb(156,82,0)"/>
<path d="M49 54h1v1h-1v-1z" fill="rgb(246,189,32)"/>
<path d="M54 54h1v1h-1v-1z" fill="rgb(98,49,8)"/>
<path d="M59 54h1v1h-1v-1z" fill="rgb(222,148,0)"/>
<path d="M60 54h1v1h-1v-1z" fill="rgb(98,49,8)"/>
<path d="M61 54h1v1h-1v-1z" fill="rgb(0,0,0)"/>
<path d="M34 55h1v1h-1v-1z" fill="rgb(222,148,0)"/>
<path d="M48 55h1v1h-1v-1z" fill="rgb(246,189,32)"/>
<path d="M49 55h1v1h-1v-1z" fill="rgb(222,148,0)"/>
<path d="M52 55h1v2h1v4h1v2h-1v1h-1v1h-1v1h-7v-1h-7v1h-3v-1h-2v-2h-1v-3h1v1h1v1h3v1h7v-1
	h3v1h1v-1h1v1h1v-1h1v-1h-1v-2h1v-2h1v-2z" fill="rgb(246,189,32)"/>
<path d="M58 55h2v1h-2v-1z" fill="rgb(98,49,8)"/>
<path d="M34 56h1v2h-1v-2z" fill="rgb(156,82,0)"/>
<path d="M38 56h1v1h-1v-1z" fill="rgb(222,148,0)"/>
<path d="M42 56h1v1h-1v-1z" fill="rgb(156,82,0)"/>
<path d="M48 56h1v1h-1v-1z" fill="rgb(156,82,0)"/>
<path d="M57 56h1v1h-1v-1z" fill="rgb(0,0,0)"/>
<path d="M39 57h1v1h-1v-1z" fill="rgb(156,82,0)"/>
<path d="M42 57h1v1h-1v-1z" fill="rgb(0,0,0)"/>
<path d="M43 57h1v1h-1v-1z" fill="rgb(222,148,0)"/>
<path d="M47 57h1v1h-1v-1z" fill="rgb(156,82,0)"/>
<path d="M56 57h2v1h1v2h-2v1h-1v-2h1v-1h-1v-1z" fill="rgb(156,82,0)"/>
<path d="M58 57h1v1h-1v-1z" fill="rgb(0,0,0)"/>
<path d="M32 58h1v1h-1v-1z" fill="rgb(0,0,0)"/>
<path d="M35 58h1v1h-1v-1z" fill="rgb(156,82,0)"/>
<path d="M37 58h1v1h-1v-1z" fill="rgb(222,148,0)"/>
<path d="M38 58h1v1h-1v-1z" fill="rgb(156,82,0)"/>
<path d="M43 58h1v1h-1v-1z" fill="rgb(0,0,0)"/>
<path d="M45 58h1v1h-1v-1z" fill="rgb(222,148,0)"/>
<path d="M46 58h1v1h-1v-1z" fill="rgb(156,82,0)"/>
<path d="M55 58h1v1h-1v-1z" fill="transparent"/>
<path d="M56 58h1v1h-1v-1z" fill="rgb(0,0,0)"/>
<path d="M59 58h1v2h-1v-2z" fill="rgb(0,0,0)"/>
<path d="M32 59h1v1h-1v-1z" fill="rgb(156,82,0)"/>
<path d="M36 59h2v1h-2v-1z" fill="rgb(156,82,0)"/>
<path d="M44 59h2v1h-2v-1z" fill="rgb(156,82,0)"/>
<path d="M31 60h1v3h-1v-3z" fill="rgb(0,0,0)"/>
<path d="M48 60h1v1h-1v-1z" fill="rgb(246,189,32)"/>
<path d="M54 60h2v1h-2v-1z" fill="rgb(98,49,8)"/>
<path d="M57 60h2v1h-2v-1z" fill="rgb(0,0,0)"/>
<path d="M47 61h1v1h-1v-1z" fill="rgb(246,189,32)"/>
<path d="M48 61h1v1h-1v-1z" fill="rgb(246,230,82)"/>
<path d="M49 61h1v1h-1v-1z" fill="rgb(246,189,32)"/>
<path d="M50 61h1v1h-1v-1z" fill="rgb(246,230,82)"/>
<path d="M55 61h2v1h-1v1h-1v-2z" fill="rgb(0,0,0)"/>
<path d="M47 62h1v1h-1v-1z" fill="rgb(246,230,82)"/>
<path d="M49 62h1v1h-1v-1z" fill="rgb(246,230,82)"/>
<path d="M32 63h1v1h-1v-1z" fill="rgb(156,82,0)"/>
<path d="M54 63h1v1h-1v-1z" fill="rgb(98,49,8)"/>
<path d="M32 64h1v1h-1v-1z" fill="rgb(0,0,0)"/>
<path d="M53 64h1v1h-1v-1z" fill="rgb(222,148,0)"/>
<path d="M54 64h1v1h-1v-1z" fill="rgb(0,0,0)"/>
<path d="M33 65h2v1h-2v-1z" fill="rgb(0,0,0)"/>
<path d="M38 65h2v1h-2v-1z" fill="rgb(222,148,0)"/>
<path d="M40 65h4v1h-4v-1z" fill="rgb(0,0,0)"/>
<path d="M44 65h1v1h-1v-1z" fill="rgb(98,49,8)"/>
<path d="M52 65h1v1h-1v-1z" fill="rgb(222,148,0)"/>
<path d="M53 65h1v1h-1v-1z" fill="rgb(0,0,0)"/>
<path d="M32 66h2v1h-2v-1z" fill="rgb(98,49,8)"/>
<path d="M34 66h1v1h-1v-1z" fill="rgb(222,148,0)"/>
<path d="M35 66h4v1h-4v-1z" fill="rgb(156,82,0)"/>
<path d="M39 66h1v1h-1v-1z" fill="rgb(0,0,0)"/>
<path d="M45 66h1v1h-1v-1z" fill="rgb(0,0,0)"/>
<path d="M46 66h1v1h-1v-1z" fill="rgb(98,49,8)"/>
<path d="M47 66h2v1h-2v-1z" fill="rgb(156,82,0)"/>
<path d="M49 66h2v1h-2v-1z" fill="rgb(222,148,0)"/>
<path d="M51 66h1v1h-1v-1z" fill="rgb(156,82,0)"/>
<path d="M52 66h1v1h-1v-1z" fill="rgb(0,0,0)"/>
<path d="M31 67h1v1h-1v-1z" fill="rgb(98,49,8)"/>
<path d="M32 67h1v1h-1v-1z" fill="rgb(246,230,82)"/>
<path d="M33 67h1v1h-1v-1z" fill="rgb(156,82,0)"/>
<path d="M34 67h1v1h-1v-1z" fill="rgb(246,230,82)"/>
<path d="M35 67h1v1h-1v-1z" fill="rgb(222,148,0)"/>
<path d="M36 67h1v1h-1v-1z" fill="rgb(98,49,8)"/>
<path d="M37 67h2v1h-2v-1z" fill="rgb(0,0,0)"/>
<path d="M48 67h1v1h-1v-1z" fill="rgb(98,49,8)"/>
<path d="M49 67h3v1h-3v-1z" fill="rgb(246,189,32)"/>
<path d="M52 67h1v1h-1v-1z" fill="rgb(156,82,0)"/>
<path d="M53 67h1v2h-1v-2z" fill="rgb(0,0,0)"/>
<path d="M32 68h3v1h-3v-1z" fill="rgb(0,0,0)"/>
<path d="M35 68h1v1h-1v-1z" fill="rgb(98,49,8)"/>
<path d="M48 68h2v1h-2v-1z" fill="rgb(0,0,0)"/>
<path d="M50 68h1v1h-1v-1z" fill="rgb(246,230,82)"/>
<path d="M51 68h1v1h-1v-1z" fill="rgb(156,82,0)"/>
<path d="M52 68h1v1h-1v-1z" fill="rgb(246,230,82)"/>
<path d="M50 69h3v1h-3v-1z" fill="rgb(0,0,0)"/>
</svg>
