<?xml version="1.0" encoding="utf-8"?>
<!-- generated at drububu.com  -->
<!DOCTYPE svg PUBLIC "-//W3C//DTD SVG 1.1//EN" "http://www.w3.org/Graphics/SVG/1.1/DTD/svg11.dtd">
<svg version="1.1" preserveAspectRatio="xMinYMin meet" xmlns="http://www.w3.org/2000/svg" xmlns:xlink="http://www.w3.org/1999/xlink" x="0px" y="0px" width="96px" height="96px" viewBox="0 0 96 96">
<path d="M0 0h96v96h-96v-96z" fill="transparent"/>
<path d="M45 16h4v1h-1v1h-1v-1h-2v-1z" fill="rgb(90,41,41)"/>
<path d="M43 17h2v1h-2v-1z" fill="rgb(90,41,41)"/>
<path d="M45 17h2v1h-1v1h-2v1h-1v1h-1v2h-1v2h-2v-3h1v-2h1v-1h2v-1h2v-1z" fill="rgb(139,98,16)"/>
<path d="M41 18h2v1h-2v-1z" fill="rgb(90,41,41)"/>
<path d="M46 18h1v1h-1v-1z" fill="rgb(0,0,0)"/>
<path d="M40 19h1v1h-1v-1z" fill="rgb(90,41,41)"/>
<path d="M44 19h1v2h-1v3h-2v1h-1v-2h1v-2h1v-1h1v-1z" fill="rgb(115,65,49)"/>
<path d="M45 19h1v2h-1v-2z" fill="rgb(0,0,0)"/>
<path d="M39 20h1v2h-1v-2z" fill="rgb(90,41,41)"/>
<path d="M61 20h9v1h-9v-1z" fill="rgb(90,41,41)"/>
<path d="M44 21h1v3h-1v-3z" fill="rgb(0,0,0)"/>
<path d="M58 21h3v1h-3v-1z" fill="rgb(90,41,41)"/>
<path d="M61 21h9v1h-5v1h-4v1h-2v1h-1v1h-2v-1h-1v-1h1v-1h2v-1h3v-1z" fill="rgb(139,98,16)"/>
<path d="M70 21h2v1h-2v-1z" fill="rgb(90,41,41)"/>
<path d="M38 22h1v3h-1v-3z" fill="rgb(90,41,41)"/>
<path d="M56 22h2v1h-2v-1z" fill="rgb(90,41,41)"/>
<path d="M65 22h3v1h-2v1h-3v1h-2v1h-1v2h-1v2h-2v-2h1v-2h1v-1h1v-1h2v-1h3v-1z" fill="rgb(255,189,0)"/>
<path d="M68 22h1v1h-1v-1z" fill="rgb(90,41,41)"/>
<path d="M69 22h1v1h-1v-1z" fill="rgb(0,0,0)"/>
<path d="M55 23h1v1h-1v-1z" fill="rgb(90,41,41)"/>
<path d="M61 23h1v1h-1v-1z" fill="rgb(115,65,49)"/>
<path d="M66 23h1v1h-1v-1z" fill="rgb(90,41,41)"/>
<path d="M67 23h1v1h-1v-1z" fill="rgb(0,0,0)"/>
<path d="M11 24h1v1h-1v-1z" fill="rgb(139,98,16)"/>
<path d="M42 24h7v1h-7v-1z" fill="rgb(90,41,41)"/>
<path d="M49 24h1v1h-1v-1z" fill="rgb(148,65,65)"/>
<path d="M54 24h1v2h-1v-2z" fill="rgb(90,41,41)"/>
<path d="M59 24h1v1h-1v-1z" fill="rgb(115,65,49)"/>
<path d="M63 24h2v1h-1v1h-1v1h2v1h-2v1h-2v1h-2v-2h1v-2h1v-1h2v-1z" fill="rgb(255,222,90)"/>
<path d="M65 24h1v1h-1v-1z" fill="rgb(115,65,49)"/>
<path d="M10 25h1v7h-1v-7z" fill="rgb(139,98,16)"/>
<path d="M11 25h1v3h1v3h1v2h1v2h1v1h-1v1h-1v1h-1v-2h-1v-4h-1v-7z" fill="rgb(255,222,90)"/>
<path d="M12 25h1v3h-1v-3z" fill="rgb(139,98,16)"/>
<path d="M39 25h2v1h-2v-1z" fill="rgb(90,41,41)"/>
<path d="M41 25h1v1h-1v-1z" fill="rgb(148,65,65)"/>
<path d="M42 25h7v1h3v1h1v3h1v3h-1v1h-1v-1h-3v1h-1v3h2v1h1v1h-1v1h3v-1h1v-1h3v1h2v1h-1v1
	h-1v1h-1v1h-1v1h-2v3h1v3h-1v1h1v1h1v2h-1v1h1v3h-1v1h-1v1h-5v-1h-1v-5h1v-2h1v-1
	h-1v-4h-1v-2h-1v-1h-1v-1h-1v-1h-1v-1h-5v1h-1v1h-1v1h-1v-2h1v-1h1v-2h-1v-3h-1
	v-2h1v-1h1v-4h3v-1h1v-2h1v-1z" fill="rgb(246,172,41)"/>
<path d="M49 25h1v1h-1v-1z" fill="rgb(222,123,49)"/>
<path d="M50 25h2v1h-2v-1z" fill="rgb(148,65,65)"/>
<path d="M55 25h1v1h2v1h-1v4h-2v-1h-1v-4h1v-1z" fill="rgb(115,65,49)"/>
<path d="M58 25h1v1h-1v-1z" fill="rgb(115,65,49)"/>
<path d="M64 25h1v1h-1v-1z" fill="rgb(115,65,49)"/>
<path d="M38 26h1v1h-1v-1z" fill="rgb(148,65,65)"/>
<path d="M39 26h1v1h-1v-1z" fill="rgb(0,0,0)"/>
<path d="M40 26h1v1h-1v-1z" fill="rgb(148,65,65)"/>
<path d="M52 26h1v1h-1v-1z" fill="rgb(148,65,65)"/>
<path d="M53 26h1v2h-1v-2z" fill="rgb(90,41,41)"/>
<path d="M63 26h1v1h-1v-1z" fill="rgb(255,189,0)"/>
<path d="M64 26h1v1h-1v-1z" fill="rgb(139,98,16)"/>
<path d="M37 27h1v1h-1v-1z" fill="rgb(148,65,65)"/>
<path d="M38 27h1v1h1v1h-2v-2z" fill="rgb(0,0,0)"/>
<path d="M39 27h1v1h-1v-1z" fill="rgb(255,238,213)"/>
<path d="M40 27h1v1h-1v-1z" fill="rgb(0,0,0)"/>
<path d="M57 27h1v1h-1v-1z" fill="rgb(139,98,16)"/>
<path d="M65 27h1v1h-1v-1z" fill="rgb(115,65,49)"/>
<path d="M13 28h1v2h-1v-2z" fill="rgb(139,98,16)"/>
<path d="M36 28h1v1h-1v-1z" fill="rgb(139,98,16)"/>
<path d="M37 28h1v1h-1v-1z" fill="rgb(222,123,49)"/>
<path d="M48 28h1v1h-1v-1z" fill="rgb(222,123,49)"/>
<path d="M49 28h2v1h1v2h-1v1h-2v-1h-1v-2h1v-1z" fill="rgb(0,0,0)"/>
<path d="M51 28h1v1h-1v-1z" fill="rgb(222,123,49)"/>
<path d="M53 28h1v2h-1v-2z" fill="rgb(0,0,0)"/>
<path d="M63 28h1v1h-1v-1z" fill="rgb(115,65,49)"/>
<path d="M64 28h2v1h-2v-1z" fill="rgb(90,41,41)"/>
<path d="M66 28h1v1h-1v-1z" fill="rgb(139,98,16)"/>
<path d="M35 29h1v1h-1v-1z" fill="rgb(115,65,49)"/>
<path d="M36 29h1v3h-1v2h-1v-3h1v-2z" fill="rgb(255,222,90)"/>
<path d="M49 29h1v1h-1v-1z" fill="rgb(255,238,213)"/>
<path d="M61 29h1v1h-1v-1z" fill="rgb(90,41,41)"/>
<path d="M62 29h1v1h-1v-1z" fill="rgb(0,0,0)"/>
<path d="M66 29h1v1h-1v-1z" fill="rgb(90,41,41)"/>
<path d="M67 29h1v2h-1v-2z" fill="rgb(139,98,16)"/>
<path d="M13 30h1v1h-1v-1z" fill="rgb(255,189,0)"/>
<path d="M14 30h1v2h-1v-2z" fill="rgb(139,98,16)"/>
<path d="M35 30h1v1h-1v-1z" fill="rgb(222,123,49)"/>
<path d="M41 30h2v1h-2v-1z" fill="rgb(90,41,41)"/>
<path d="M54 30h1v1h-1v-1z" fill="rgb(0,0,0)"/>
<path d="M57 30h1v1h-1v-1z" fill="rgb(139,98,16)"/>
<path d="M58 30h1v1h-1v-1z" fill="rgb(90,41,41)"/>
<path d="M59 30h2v1h-2v-1z" fill="rgb(0,0,0)"/>
<path d="M66 30h1v1h-1v-1z" fill="rgb(115,65,49)"/>
<path d="M34 31h1v1h-1v-1z" fill="rgb(115,65,49)"/>
<path d="M38 31h1v1h-1v-1z" fill="rgb(189,90,49)"/>
<path d="M48 31h1v1h-1v-1z" fill="rgb(222,123,49)"/>
<path d="M51 31h1v1h-1v-1z" fill="rgb(222,123,49)"/>
<path d="M54 31h1v1h1v5h-2v1h-2v-1h1v-4h1v-2z" fill="rgb(222,123,49)"/>
<path d="M55 31h3v1h-1v3h-1v-3h-1v-1z" fill="rgb(0,0,0)"/>
<path d="M64 31h2v1h-2v-1z" fill="rgb(115,65,49)"/>
<path d="M66 31h1v1h-1v-1z" fill="rgb(139,98,16)"/>
<path d="M11 32h1v4h-1v-4z" fill="rgb(139,98,16)"/>
<path d="M14 32h1v1h-1v-1z" fill="rgb(255,189,0)"/>
<path d="M15 32h1v2h-1v-2z" fill="rgb(139,98,16)"/>
<path d="M34 32h1v1h-1v-1z" fill="rgb(139,98,16)"/>
<path d="M36 32h1v1h-1v-1z" fill="rgb(255,189,0)"/>
<path d="M39 32h3v1h-3v-1z" fill="rgb(90,41,41)"/>
<path d="M42 32h1v1h-1v-1z" fill="rgb(148,65,65)"/>
<path d="M46 32h1v1h-1v-1z" fill="rgb(189,90,49)"/>
<path d="M34 33h1v3h-1v-1h-2v-1h2v-1z" fill="rgb(90,41,41)"/>
<path d="M39 33h1v2h-1v-2z" fill="rgb(222,123,49)"/>
<path d="M40 33h3v1h1v1h-1v1h-2v-1h-1v-2z" fill="rgb(189,24,8)"/>
<path d="M43 33h1v1h-1v-1z" fill="rgb(90,41,41)"/>
<path d="M44 33h1v1h-1v-1z" fill="rgb(0,0,0)"/>
<path d="M45 33h1v1h-1v-1z" fill="rgb(90,41,41)"/>
<path d="M49 33h3v1h1v1h-1v1h-2v1h-2v-3h1v-1z" fill="rgb(255,222,90)"/>
<path d="M15 34h1v1h-1v-1z" fill="rgb(255,189,0)"/>
<path d="M16 34h1v2h-1v-2z" fill="rgb(139,98,16)"/>
<path d="M44 34h1v1h-1v-1z" fill="rgb(90,41,41)"/>
<path d="M59 34h1v1h-1v-1z" fill="rgb(115,65,49)"/>
<path d="M60 34h2v1h-2v-1z" fill="rgb(90,41,41)"/>
<path d="M21 35h1v1h-1v-1z" fill="rgb(139,98,16)"/>
<path d="M22 35h1v3h-1v-3z" fill="rgb(115,65,49)"/>
<path d="M31 35h1v2h-1v-2z" fill="rgb(90,41,41)"/>
<path d="M32 35h2v1h1v1h-2v1h-1v-3z" fill="rgb(139,98,16)"/>
<path d="M40 35h1v1h-1v-1z" fill="rgb(90,41,41)"/>
<path d="M43 35h1v1h-1v-1z" fill="rgb(90,41,41)"/>
<path d="M52 35h1v2h-1v1h-2v-2h2v-1z" fill="rgb(255,189,0)"/>
<path d="M56 35h2v1h-2v-1z" fill="rgb(90,41,41)"/>
<path d="M58 35h1v1h-1v-1z" fill="rgb(115,65,49)"/>
<path d="M59 35h2v1h1v1h-1v1h-1v1h-2v-1h-2v-1h1v-1h2v-1z" fill="rgb(139,98,16)"/>
<path d="M61 35h1v1h-1v-1z" fill="rgb(115,65,49)"/>
<path d="M62 35h1v3h-1v-3z" fill="rgb(90,41,41)"/>
<path d="M12 36h1v4h-1v-4z" fill="rgb(139,98,16)"/>
<path d="M15 36h1v1h-1v-1z" fill="rgb(255,189,0)"/>
<path d="M16 36h1v1h-1v-1z" fill="rgb(255,222,90)"/>
<path d="M17 36h1v1h-1v-1z" fill="rgb(139,98,16)"/>
<path d="M20 36h1v2h-1v-2z" fill="rgb(139,98,16)"/>
<path d="M21 36h1v3h1v3h1v3h1v2h1v2h1v2h1v1h-2v-1h-1v-1h-1v-1h-1v-2h-1v2h-1v4h-1v-1h-1
	v-2h-1v-1h-1v-2h-1v-2h-1v-2h-1v-3h-1v-2h1v1h1v1h1v-1h1v-1h2v1h1v-1h1v-2z" fill="rgb(255,189,0)"/>
<path d="M35 36h1v1h-1v-1z" fill="rgb(222,123,49)"/>
<path d="M41 36h2v1h-2v-1z" fill="rgb(90,41,41)"/>
<path d="M56 36h1v1h-1v-1z" fill="rgb(115,65,49)"/>
<path d="M14 37h1v1h-1v-1z" fill="rgb(255,189,0)"/>
<path d="M15 37h1v1h-1v-1z" fill="rgb(255,222,90)"/>
<path d="M16 37h1v1h-1v-1z" fill="rgb(255,189,0)"/>
<path d="M17 37h1v1h-1v-1z" fill="rgb(255,222,90)"/>
<path d="M18 37h1v1h-1v-1z" fill="rgb(139,98,16)"/>
<path d="M31 37h1v1h-1v-1z" fill="rgb(115,65,49)"/>
<path d="M33 37h1v1h-1v-1z" fill="rgb(189,90,49)"/>
<path d="M34 37h1v2h2v2h-1v1h-2v-2h-1v-2h1v-1z" fill="rgb(222,123,49)"/>
<path d="M35 37h1v2h-1v-2z" fill="rgb(148,65,65)"/>
<path d="M54 37h2v1h-2v-1z" fill="rgb(148,65,65)"/>
<path d="M61 37h1v2h-1v2h-1v-1h-1v-1h1v-1h1v-1z" fill="rgb(115,65,49)"/>
<path d="M14 38h1v1h-1v-1z" fill="rgb(255,222,90)"/>
<path d="M15 38h1v1h-1v-1z" fill="rgb(255,189,0)"/>
<path d="M16 38h1v1h-1v-1z" fill="rgb(255,222,90)"/>
<path d="M19 38h1v1h-1v-1z" fill="rgb(139,98,16)"/>
<path d="M22 38h1v1h-1v-1z" fill="rgb(139,98,16)"/>
<path d="M32 38h1v1h-1v-1z" fill="rgb(90,41,41)"/>
<path d="M51 38h1v1h-1v-1z" fill="rgb(222,123,49)"/>
<path d="M52 38h2v1h-2v-1z" fill="rgb(148,65,65)"/>
<path d="M57 38h1v1h-1v-1z" fill="rgb(189,90,49)"/>
<path d="M62 38h1v1h-1v-1z" fill="rgb(0,0,0)"/>
<path d="M15 39h1v1h-1v-1z" fill="rgb(255,222,90)"/>
<path d="M17 39h1v1h-1v-1z" fill="rgb(255,222,90)"/>
<path d="M23 39h1v2h-1v-2z" fill="rgb(115,65,49)"/>
<path d="M32 39h1v1h-1v-1z" fill="rgb(0,0,0)"/>
<path d="M50 39h1v1h-1v-1z" fill="rgb(222,123,49)"/>
<path d="M51 39h1v1h-1v-1z" fill="rgb(148,65,65)"/>
<path d="M52 39h1v1h-1v-1z" fill="rgb(222,123,49)"/>
<path d="M61 39h1v1h-1v-1z" fill="rgb(90,41,41)"/>
<path d="M13 40h1v1h-1v-1z" fill="rgb(139,98,16)"/>
<path d="M33 40h1v1h-1v-1z" fill="rgb(90,41,41)"/>
<path d="M58 40h1v1h1v1h-1v1h-1v1h-2v1h1v4h-2v1h-1v-3h-1v-3h2v-1h1v-1h1v-1h1v-1z" fill="rgb(222,123,49)"/>
<path d="M59 40h1v1h-1v-1z" fill="rgb(189,90,49)"/>
<path d="M61 40h1v1h-1v-1z" fill="rgb(0,0,0)"/>
<path d="M13 41h1v2h-1v-2z" fill="rgb(115,65,49)"/>
<path d="M23 41h1v1h-1v-1z" fill="rgb(139,98,16)"/>
<path d="M33 41h1v1h-1v-1z" fill="rgb(0,0,0)"/>
<path d="M38 41h1v1h-1v-1z" fill="rgb(230,189,131)"/>
<path d="M39 41h3v1h2v1h1v1h1v2h1v2h1v4h-1v2h-1v4h-1v1h-6v-1h-3v-1h-1v-3h-1v-6h1v-3h1v-2
	h1v-1h2v-1z" fill="rgb(255,238,213)"/>
<path d="M42 41h1v1h-1v-1z" fill="rgb(230,189,131)"/>
<path d="M60 41h1v1h-1v-1z" fill="rgb(0,0,0)"/>
<path d="M24 42h1v2h-1v-2z" fill="rgb(115,65,49)"/>
<path d="M34 42h1v1h-1v-1z" fill="rgb(148,65,65)"/>
<path d="M59 42h1v1h-1v-1z" fill="rgb(0,0,0)"/>
<path d="M14 43h1v2h-1v-2z" fill="rgb(115,65,49)"/>
<path d="M34 43h1v1h-1v-1z" fill="rgb(0,0,0)"/>
<path d="M58 43h1v1h-1v-1z" fill="rgb(90,41,41)"/>
<path d="M24 44h1v1h-1v-1z" fill="rgb(139,98,16)"/>
<path d="M34 44h1v2h-1v-2z" fill="rgb(148,65,65)"/>
<path d="M35 44h1v1h-1v-1z" fill="rgb(230,189,131)"/>
<path d="M56 44h1v1h-1v-1z" fill="rgb(148,65,65)"/>
<path d="M57 44h1v1h-1v-1z" fill="rgb(90,41,41)"/>
<path d="M15 45h1v2h-1v-2z" fill="rgb(115,65,49)"/>
<path d="M25 45h1v1h-1v-1z" fill="rgb(115,65,49)"/>
<path d="M46 45h1v1h-1v-1z" fill="rgb(230,189,131)"/>
<path d="M57 45h1v3h-1v-3z" fill="rgb(0,0,0)"/>
<path d="M25 46h1v1h-1v-1z" fill="rgb(139,98,16)"/>
<path d="M33 46h1v1h-1v-1z" fill="rgb(148,65,65)"/>
<path d="M34 46h1v2h-1v-2z" fill="rgb(230,189,131)"/>
<path d="M16 47h1v2h-1v-2z" fill="rgb(115,65,49)"/>
<path d="M22 47h1v1h-1v-1z" fill="rgb(115,65,49)"/>
<path d="M26 47h1v1h-1v-1z" fill="rgb(115,65,49)"/>
<path d="M33 47h1v1h-1v-1z" fill="rgb(90,41,41)"/>
<path d="M47 47h1v1h-1v-1z" fill="rgb(230,189,131)"/>
<path d="M22 48h1v1h-1v-1z" fill="rgb(0,0,0)"/>
<path d="M26 48h1v1h-1v-1z" fill="rgb(139,98,16)"/>
<path d="M33 48h1v1h-1v-1z" fill="rgb(148,65,65)"/>
<path d="M57 48h1v3h-4v-1h2v-1h1v-1z" fill="rgb(148,65,65)"/>
<path d="M58 48h1v3h-1v-3z" fill="rgb(0,0,0)"/>
<path d="M17 49h1v1h-1v-1z" fill="rgb(115,65,49)"/>
<path d="M21 49h1v1h-1v-1z" fill="rgb(139,98,16)"/>
<path d="M23 49h1v1h-1v-1z" fill="rgb(115,65,49)"/>
<path d="M27 49h1v2h-1v-2z" fill="rgb(115,65,49)"/>
<path d="M32 49h1v1h-1v-1z" fill="rgb(90,41,41)"/>
<path d="M33 49h1v4h-1v-4z" fill="rgb(230,189,131)"/>
<path d="M55 49h1v1h-1v-1z" fill="rgb(189,90,49)"/>
<path d="M18 50h1v2h-1v-2z" fill="rgb(115,65,49)"/>
<path d="M21 50h1v2h-1v-2z" fill="rgb(115,65,49)"/>
<path d="M24 50h1v1h-1v-1z" fill="rgb(0,0,0)"/>
<path d="M31 50h1v1h-1v-1z" fill="rgb(90,41,41)"/>
<path d="M32 50h1v3h1v4h-1v1h-2v-6h1v-2z" fill="rgb(246,172,41)"/>
<path d="M53 50h1v1h-1v-1z" fill="rgb(189,90,49)"/>
<path d="M61 50h7v1h1v1h-2v-1h-5v1h-3v-1h2v-1z" fill="rgb(98,98,106)"/>
<path d="M25 51h1v1h-1v-1z" fill="rgb(0,0,0)"/>
<path d="M28 51h1v1h-1v-1z" fill="rgb(115,65,49)"/>
<path d="M31 51h1v1h-1v-1z" fill="rgb(148,65,65)"/>
<path d="M48 51h1v1h-1v-1z" fill="rgb(222,123,49)"/>
<path d="M54 51h4v1h1v1h-2v1h-2v-2h-1v-1z" fill="rgb(222,123,49)"/>
<path d="M58 51h1v1h-1v-1z" fill="rgb(148,65,65)"/>
<path d="M62 51h4v1h-4v-1z" fill="rgb(0,0,0)"/>
<path d="M66 51h1v1h-1v-1z" fill="rgb(57,57,65)"/>
<path d="M69 51h1v1h-1v-1z" fill="rgb(57,57,65)"/>
<path d="M19 52h1v1h-1v-1z" fill="rgb(115,65,49)"/>
<path d="M21 52h1v2h-1v-2z" fill="rgb(0,0,0)"/>
<path d="M26 52h1v1h-1v-1z" fill="rgb(0,0,0)"/>
<path d="M27 52h1v1h-1v-1z" fill="rgb(139,98,16)"/>
<path d="M28 52h1v1h-1v-1z" fill="rgb(255,189,0)"/>
<path d="M29 52h1v1h-1v-1z" fill="rgb(115,65,49)"/>
<path d="M30 52h1v3h-1v-3z" fill="rgb(148,65,65)"/>
<path d="M47 52h1v2h-1v-2z" fill="rgb(189,90,49)"/>
<path d="M59 52h3v1h-2v3h-1v-4z" fill="rgb(0,0,0)"/>
<path d="M62 52h5v1h2v1h1v2h1v3h-1v1h-1v1h-2v1h-4v-1h-2v-1h-1v-1h-1v-3h1v-3h2v-1z" fill="transparent"/>
<path d="M67 52h1v1h-1v-1z" fill="rgb(0,0,0)"/>
<path d="M68 52h1v1h-1v-1z" fill="rgb(57,57,65)"/>
<path d="M69 52h1v1h-1v-1z" fill="rgb(98,98,106)"/>
<path d="M70 52h1v1h-1v-1z" fill="rgb(0,0,0)"/>
<path d="M20 53h1v1h-1v-1z" fill="rgb(115,65,49)"/>
<path d="M27 53h1v1h-1v-1z" fill="rgb(0,0,0)"/>
<path d="M28 53h1v1h-1v-1z" fill="rgb(139,98,16)"/>
<path d="M29 53h1v2h-1v-2z" fill="rgb(0,0,0)"/>
<path d="M57 53h1v1h-1v-1z" fill="rgb(189,90,49)"/>
<path d="M58 53h1v3h-3v-1h-1v-1h3v-1z" fill="rgb(148,65,65)"/>
<path d="M69 53h1v1h-1v-1z" fill="rgb(0,0,0)"/>
<path d="M70 53h1v2h1v2h-1v-1h-1v-3z" fill="rgb(98,98,106)"/>
<path d="M71 53h1v2h-1v-2z" fill="rgb(0,0,0)"/>
<path d="M34 54h1v2h-1v-2z" fill="rgb(230,189,131)"/>
<path d="M46 54h1v1h-1v-1z" fill="rgb(189,90,49)"/>
<path d="M54 54h1v1h-1v-1z" fill="rgb(189,90,49)"/>
<path d="M30 55h1v1h-1v-1z" fill="rgb(90,41,41)"/>
<path d="M46 55h1v1h-1v-1z" fill="rgb(148,65,65)"/>
<path d="M55 55h1v1h2v3h-1v1h-1v1h-1v1h-2v1h-3v-1h-1v-1h-1v-1h5v-1h1v-1h1v-3z" fill="rgb(222,123,49)"/>
<path d="M72 55h1v5h-1v-5z" fill="rgb(0,0,0)"/>
<path d="M30 56h1v2h-1v-2z" fill="rgb(0,0,0)"/>
<path d="M34 56h1v2h1v1h1v1h-1v1h-3v-1h-1v-2h1v-1h1v-1z" fill="rgb(222,123,49)"/>
<path d="M46 56h1v4h-1v-4z" fill="rgb(90,41,41)"/>
<path d="M58 56h1v1h-1v-1z" fill="rgb(90,41,41)"/>
<path d="M35 57h1v1h-1v-1z" fill="rgb(246,172,41)"/>
<path d="M58 57h1v2h-1v-2z" fill="rgb(0,0,0)"/>
<path d="M71 57h1v3h-1v1h-1v1h-2v1h-7v-1h-2v-1h-1v-2h2v1h1v1h2v1h4v-1h2v-1h1v-1h1v-2z" fill="rgb(57,57,65)"/>
<path d="M31 58h1v2h-1v-2z" fill="rgb(0,0,0)"/>
<path d="M36 58h1v1h-1v-1z" fill="rgb(148,65,65)"/>
<path d="M37 58h2v1h-2v-1z" fill="rgb(230,189,131)"/>
<path d="M45 58h1v1h-1v-1z" fill="rgb(246,172,41)"/>
<path d="M37 59h1v1h-1v-1z" fill="rgb(148,65,65)"/>
<path d="M38 59h2v1h-2v-1z" fill="rgb(246,172,41)"/>
<path d="M40 59h3v1h-3v-1z" fill="rgb(230,189,131)"/>
<path d="M43 59h1v1h-1v-1z" fill="rgb(246,172,41)"/>
<path d="M44 59h2v1h1v2h-2v-1h-5v-1h4v-1z" fill="rgb(222,123,49)"/>
<path d="M47 59h1v1h-1v-1z" fill="rgb(222,123,49)"/>
<path d="M57 59h1v1h-1v-1z" fill="rgb(90,41,41)"/>
<path d="M32 60h1v1h-1v-1z" fill="rgb(0,0,0)"/>
<path d="M36 60h2v1h2v1h2v2h1v2h-1v-1h-2v-1h-2v-1h-2v-1h-2v-1h2v-1z" fill="rgb(189,90,49)"/>
<path d="M38 60h1v1h-1v-1z" fill="rgb(90,41,41)"/>
<path d="M39 60h1v1h-1v-1z" fill="rgb(148,65,65)"/>
<path d="M47 60h1v1h-1v-1z" fill="rgb(148,65,65)"/>
<path d="M56 60h1v1h-1v-1z" fill="rgb(189,90,49)"/>
<path d="M57 60h1v1h1v1h-2v-2z" fill="rgb(0,0,0)"/>
<path d="M71 60h1v1h-1v-1z" fill="rgb(0,0,0)"/>
<path d="M33 61h1v1h-1v-1z" fill="rgb(0,0,0)"/>
<path d="M40 61h3v1h-3v-1z" fill="rgb(90,41,41)"/>
<path d="M43 61h2v1h-2v-1z" fill="rgb(189,90,49)"/>
<path d="M47 61h1v1h-1v-1z" fill="rgb(90,41,41)"/>
<path d="M48 61h1v1h-1v-1z" fill="rgb(189,90,49)"/>
<path d="M55 61h1v5h-2v-1h-1v-1h-2v-1h2v-1h2v-1z" fill="rgb(189,90,49)"/>
<path d="M56 61h1v1h-1v-1z" fill="rgb(90,41,41)"/>
<path d="M70 61h1v1h-1v-1z" fill="rgb(0,0,0)"/>
<path d="M34 62h1v1h-1v-1z" fill="rgb(0,0,0)"/>
<path d="M35 62h1v1h-1v-1z" fill="rgb(90,41,41)"/>
<path d="M42 62h6v1h-5v1h-1v-2z" fill="rgb(0,0,0)"/>
<path d="M48 62h1v1h-1v-1z" fill="rgb(90,41,41)"/>
<path d="M49 62h1v1h-1v-1z" fill="rgb(189,90,49)"/>
<path d="M56 62h1v3h-1v-3z" fill="rgb(0,0,0)"/>
<path d="M59 62h2v1h-2v-1z" fill="rgb(0,0,0)"/>
<path d="M68 62h2v1h-2v-1z" fill="rgb(0,0,0)"/>
<path d="M36 63h1v1h-1v-1z" fill="rgb(0,0,0)"/>
<path d="M37 63h1v1h-1v-1z" fill="rgb(90,41,41)"/>
<path d="M49 63h2v1h-2v-1z" fill="rgb(90,41,41)"/>
<path d="M61 63h7v1h-7v-1z" fill="rgb(0,0,0)"/>
<path d="M38 64h1v1h-1v-1z" fill="rgb(0,0,0)"/>
<path d="M39 64h1v1h-1v-1z" fill="rgb(90,41,41)"/>
<path d="M43 64h1v2h-1v-2z" fill="rgb(0,0,0)"/>
<path d="M51 64h1v1h-1v-1z" fill="rgb(90,41,41)"/>
<path d="M52 64h1v5h-1v-5z" fill="rgb(0,0,0)"/>
<path d="M38 65h1v1h-1v-1z" fill="rgb(90,41,41)"/>
<path d="M39 65h3v3h-1v2h-1v-3h-1v-2z" fill="rgb(222,123,49)"/>
<path d="M53 65h1v1h-1v-1z" fill="rgb(148,65,65)"/>
<path d="M56 65h1v1h-1v-1z" fill="rgb(148,65,65)"/>
<path d="M57 65h1v3h-1v-3z" fill="rgb(0,0,0)"/>
<path d="M37 66h1v1h-1v-1z" fill="rgb(90,41,41)"/>
<path d="M38 66h1v1h1v3h-1v-1h-3v-1h1v-1h1v-1z" fill="rgb(246,172,41)"/>
<path d="M42 66h1v1h-1v-1z" fill="rgb(90,41,41)"/>
<path d="M53 66h3v1h-3v-1z" fill="rgb(222,123,49)"/>
<path d="M56 66h1v1h-1v-1z" fill="rgb(189,90,49)"/>
<path d="M35 67h2v1h-2v-1z" fill="rgb(90,41,41)"/>
<path d="M42 67h1v1h-1v-1z" fill="rgb(0,0,0)"/>
<path d="M53 67h3v1h1v2h-4v-3z" fill="rgb(246,172,41)"/>
<path d="M56 67h1v1h-1v-1z" fill="rgb(222,123,49)"/>
<path d="M33 68h2v1h-2v-1z" fill="rgb(90,41,41)"/>
<path d="M35 68h1v1h2v2h-2v-1h-1v1h-1v-1h-1v-1h2v-1z" fill="rgb(139,98,16)"/>
<path d="M41 68h1v2h-1v-2z" fill="rgb(0,0,0)"/>
<path d="M57 68h1v1h-1v-1z" fill="rgb(90,41,41)"/>
<path d="M31 69h1v1h-1v-1z" fill="rgb(90,41,41)"/>
<path d="M32 69h1v1h-1v-1z" fill="rgb(115,65,49)"/>
<path d="M38 69h1v1h-1v-1z" fill="rgb(222,123,49)"/>
<path d="M52 69h1v3h-1v-3z" fill="rgb(90,41,41)"/>
<path d="M57 69h1v1h-1v-1z" fill="rgb(115,65,49)"/>
<path d="M58 69h1v5h-1v-5z" fill="rgb(0,0,0)"/>
<path d="M30 70h1v1h-1v-1z" fill="rgb(90,41,41)"/>
<path d="M31 70h1v1h-1v-1z" fill="rgb(139,98,16)"/>
<path d="M32 70h1v1h-1v-1z" fill="rgb(90,41,41)"/>
<path d="M33 70h1v1h-1v-1z" fill="rgb(115,65,49)"/>
<path d="M35 70h1v1h-1v-1z" fill="rgb(90,41,41)"/>
<path d="M38 70h1v1h-1v-1z" fill="rgb(115,65,49)"/>
<path d="M39 70h1v1h-1v-1z" fill="rgb(189,90,49)"/>
<path d="M40 70h1v1h-1v-1z" fill="rgb(0,0,0)"/>
<path d="M53 70h1v1h2v-1h2v4h-1v-1h-2v2h-1v-2h-1v1h-1v-2h1v-2z" fill="rgb(139,98,16)"/>
<path d="M54 70h2v1h-2v-1z" fill="rgb(222,123,49)"/>
<path d="M30 71h1v1h-1v-1z" fill="rgb(0,0,0)"/>
<path d="M31 71h1v1h-1v-1z" fill="rgb(90,41,41)"/>
<path d="M32 71h2v1h-2v-1z" fill="rgb(139,98,16)"/>
<path d="M34 71h1v2h-1v-2z" fill="rgb(90,41,41)"/>
<path d="M35 71h1v1h-1v-1z" fill="rgb(139,98,16)"/>
<path d="M36 71h2v1h-2v-1z" fill="rgb(115,65,49)"/>
<path d="M38 71h2v1h-2v-1z" fill="rgb(0,0,0)"/>
<path d="M31 72h1v1h-1v-1z" fill="rgb(0,0,0)"/>
<path d="M32 72h2v1h-2v-1z" fill="rgb(115,65,49)"/>
<path d="M35 72h1v1h-1v-1z" fill="rgb(115,65,49)"/>
<path d="M36 72h2v1h-2v-1z" fill="rgb(0,0,0)"/>
<path d="M51 72h1v4h-1v-4z" fill="rgb(90,41,41)"/>
<path d="M32 73h4v1h-4v-1z" fill="rgb(0,0,0)"/>
<path d="M53 73h1v1h-1v-1z" fill="rgb(115,65,49)"/>
<path d="M55 73h2v1h-2v-1z" fill="rgb(115,65,49)"/>
<path d="M52 74h1v2h-1v-2z" fill="rgb(115,65,49)"/>
<path d="M53 74h1v1h-1v-1z" fill="rgb(90,41,41)"/>
<path d="M55 74h1v1h-1v-1z" fill="rgb(90,41,41)"/>
<path d="M56 74h1v1h-1v-1z" fill="rgb(139,98,16)"/>
<path d="M57 74h1v1h-1v-1z" fill="rgb(90,41,41)"/>
<path d="M53 75h1v1h1v-1h1v1h1v1h-5v-1h1v-1z" fill="rgb(0,0,0)"/>
<path d="M54 75h1v1h-1v-1z" fill="rgb(115,65,49)"/>
<path d="M56 75h1v1h-1v-1z" fill="rgb(115,65,49)"/>
<path d="M57 75h1v1h-1v-1z" fill="rgb(0,0,0)"/>
</svg>
