<?xml version="1.0" encoding="utf-8"?>
<!-- generated at drububu.com  -->
<!DOCTYPE svg PUBLIC "-//W3C//DTD SVG 1.1//EN" "http://www.w3.org/Graphics/SVG/1.1/DTD/svg11.dtd">
<svg version="1.1" preserveAspectRatio="xMinYMin meet" xmlns="http://www.w3.org/2000/svg" xmlns:xlink="http://www.w3.org/1999/xlink" x="0px" y="0px" width="96px" height="96px" viewBox="0 0 96 96">
<path d="M0 0h96v96h-96v-96z" fill="transparent"/>
<path d="M34 27h2v1h-2v-1z" fill="rgb(131,98,16)"/>
<path d="M33 28h1v4h-1v-4z" fill="rgb(131,98,16)"/>
<path d="M34 28h2v1h1v1h-2v-1h-1v-1z" fill="rgb(238,222,16)"/>
<path d="M36 28h1v1h-1v-1z" fill="rgb(131,98,16)"/>
<path d="M39 28h5v1h-5v-1z" fill="rgb(131,98,16)"/>
<path d="M49 28h2v1h-2v-1z" fill="rgb(131,98,16)"/>
<path d="M34 29h1v3h-1v-3z" fill="rgb(205,189,180)"/>
<path d="M37 29h2v1h-2v-1z" fill="rgb(115,74,24)"/>
<path d="M39 29h5v1h2v1h-3v-1h-4v-1z" fill="rgb(238,222,16)"/>
<path d="M44 29h2v1h-2v-1z" fill="rgb(131,98,16)"/>
<path d="M47 29h2v1h-2v-1z" fill="rgb(131,98,16)"/>
<path d="M49 29h2v1h-2v-1z" fill="rgb(238,222,16)"/>
<path d="M51 29h1v4h-1v-4z" fill="rgb(16,16,16)"/>
<path d="M35 30h1v1h-1v-1z" fill="rgb(205,180,0)"/>
<path d="M36 30h1v1h-1v-1z" fill="rgb(115,74,24)"/>
<path d="M37 30h1v1h-1v-1z" fill="rgb(238,222,16)"/>
<path d="M38 30h5v1h-5v-1z" fill="rgb(180,131,16)"/>
<path d="M46 30h1v1h-1v-1z" fill="rgb(131,98,16)"/>
<path d="M47 30h2v1h-2v-1z" fill="rgb(238,222,16)"/>
<path d="M49 30h1v1h-1v-1z" fill="rgb(115,74,24)"/>
<path d="M50 30h1v1h-1v-1z" fill="rgb(180,131,16)"/>
<path d="M35 31h1v1h-1v-1z" fill="rgb(115,74,24)"/>
<path d="M36 31h2v2h4v1h-3v1h-1v-1h-1v-2h-1v-1z" fill="rgb(205,180,0)"/>
<path d="M38 31h5v1h-1v1h-4v-2z" fill="rgb(238,222,16)"/>
<path d="M43 31h1v1h-1v-1z" fill="rgb(205,180,0)"/>
<path d="M44 31h2v1h-2v-1z" fill="rgb(180,131,16)"/>
<path d="M46 31h2v1h-2v-1z" fill="rgb(205,180,0)"/>
<path d="M48 31h1v1h-1v-1z" fill="rgb(115,74,24)"/>
<path d="M49 31h1v3h-1v-1h-1v-1h1v-1z" fill="rgb(238,238,222)"/>
<path d="M50 31h1v2h-1v-2z" fill="rgb(205,180,0)"/>
<path d="M34 32h1v2h-1v-2z" fill="rgb(115,74,24)"/>
<path d="M35 32h1v1h-1v-1z" fill="rgb(205,180,0)"/>
<path d="M36 32h1v1h-1v-1z" fill="rgb(238,222,16)"/>
<path d="M42 32h1v1h-1v-1z" fill="rgb(205,180,0)"/>
<path d="M43 32h2v3h-1v-1h-2v-1h1v-1z" fill="rgb(238,222,16)"/>
<path d="M45 32h1v1h1v1h1v2h1v3h-1v-1h-1v-2h-2v-4z" fill="rgb(205,180,0)"/>
<path d="M46 32h1v1h-1v-1z" fill="rgb(180,131,16)"/>
<path d="M47 32h1v1h-1v-1z" fill="rgb(115,74,24)"/>
<path d="M35 33h1v1h-1v-1z" fill="rgb(238,222,16)"/>
<path d="M36 33h1v1h-1v-1z" fill="rgb(180,131,16)"/>
<path d="M47 33h1v1h-1v-1z" fill="rgb(180,131,16)"/>
<path d="M48 33h1v1h-1v-1z" fill="rgb(115,74,24)"/>
<path d="M50 33h1v3h-1v-3z" fill="rgb(16,16,16)"/>
<path d="M33 34h1v3h-1v-3z" fill="rgb(131,98,16)"/>
<path d="M34 34h1v1h-1v-1z" fill="rgb(238,222,16)"/>
<path d="M35 34h1v1h-1v-1z" fill="rgb(180,131,16)"/>
<path d="M36 34h2v1h-1v2h-1v-1h-1v-1h1v-1z" fill="rgb(238,222,16)"/>
<path d="M39 34h3v1h2v1h-1v1h-1v1h-2v-1h-2v-2h1v-1z" fill="rgb(238,222,16)"/>
<path d="M42 34h2v1h-2v-1z" fill="rgb(180,131,16)"/>
<path d="M48 34h1v2h-1v-2z" fill="rgb(180,131,16)"/>
<path d="M49 34h1v2h-1v-2z" fill="rgb(205,180,0)"/>
<path d="M34 35h1v1h-1v-1z" fill="rgb(180,131,16)"/>
<path d="M37 35h1v2h-1v-2z" fill="rgb(205,180,0)"/>
<path d="M44 35h1v1h-1v-1z" fill="rgb(180,131,16)"/>
<path d="M34 36h1v1h-1v-1z" fill="rgb(16,16,16)"/>
<path d="M35 36h1v1h-1v-1z" fill="rgb(16,57,123)"/>
<path d="M43 36h1v1h-1v-1z" fill="rgb(205,180,0)"/>
<path d="M44 36h2v1h1v3h-1v-2h-1v-1h-1v-1z" fill="rgb(16,16,16)"/>
<path d="M46 36h1v1h-1v-1z" fill="rgb(180,131,16)"/>
<path d="M49 36h1v3h-1v-3z" fill="rgb(180,131,16)"/>
<path d="M50 36h1v4h-1v1h-1v-2h1v-3z" fill="rgb(205,180,0)"/>
<path d="M51 36h1v1h-1v-1z" fill="rgb(16,16,16)"/>
<path d="M33 37h1v2h-1v-2z" fill="rgb(16,16,16)"/>
<path d="M34 37h1v2h-1v-2z" fill="rgb(16,57,123)"/>
<path d="M35 37h1v2h-1v-2z" fill="rgb(255,255,255)"/>
<path d="M36 37h1v1h-1v-1z" fill="rgb(205,180,0)"/>
<path d="M37 37h2v1h-2v-1z" fill="rgb(180,131,16)"/>
<path d="M39 37h1v1h-1v-1z" fill="rgb(205,180,0)"/>
<path d="M42 37h1v2h-1v-2z" fill="rgb(205,180,0)"/>
<path d="M43 37h1v4h-1v-4z" fill="rgb(16,57,123)"/>
<path d="M44 37h1v2h-1v-2z" fill="rgb(255,255,255)"/>
<path d="M51 37h1v3h-1v-3z" fill="rgb(180,131,16)"/>
<path d="M52 37h1v1h-1v-1z" fill="rgb(16,16,16)"/>
<path d="M36 38h1v1h-1v-1z" fill="rgb(180,131,16)"/>
<path d="M37 38h3v1h2v1h-1v1h-2v1h-2v-1h-1v-2h1v-1z" fill="rgb(238,222,16)"/>
<path d="M40 38h2v1h-2v-1z" fill="rgb(180,131,16)"/>
<path d="M45 38h1v2h-1v-2z" fill="rgb(16,57,123)"/>
<path d="M47 38h1v1h-1v-1z" fill="rgb(180,131,16)"/>
<path d="M52 38h1v2h-1v-2z" fill="rgb(205,180,0)"/>
<path d="M53 38h1v2h-1v-2z" fill="rgb(16,16,16)"/>
<path d="M33 39h1v2h-1v-2z" fill="rgb(115,74,24)"/>
<path d="M34 39h1v1h-1v-1z" fill="rgb(16,16,16)"/>
<path d="M35 39h1v1h-1v-1z" fill="rgb(41,123,205)"/>
<path d="M42 39h1v1h-1v-1z" fill="rgb(180,131,16)"/>
<path d="M44 39h1v1h-1v-1z" fill="rgb(41,123,205)"/>
<path d="M47 39h1v2h-1v1h-1v1h-1v1h-2v1h-2v-1h1v-1h2v-1h1v-1h1v-1h1v-1z" fill="rgb(205,189,180)"/>
<path d="M48 39h1v1h-1v-1z" fill="rgb(180,131,16)"/>
<path d="M34 40h1v1h-1v-1z" fill="rgb(238,238,222)"/>
<path d="M35 40h1v1h-1v-1z" fill="rgb(16,57,123)"/>
<path d="M41 40h1v1h-1v-1z" fill="rgb(205,180,0)"/>
<path d="M42 40h1v1h1v1h-1v1h-2v1h-1v1h-2v-1h-2v-1h-1v-2h1v1h1v1h2v-1h2v-1h1v-1z" fill="rgb(238,238,222)"/>
<path d="M44 40h2v1h-2v-1z" fill="rgb(16,16,16)"/>
<path d="M48 40h1v1h-1v-1z" fill="rgb(115,74,24)"/>
<path d="M50 40h1v1h1v-1h1v2h2v1h-1v2h-1v-2h-1v-1h-3v1h-1v-2h2v-1z" fill="rgb(180,131,16)"/>
<path d="M51 40h1v1h-1v-1z" fill="rgb(205,180,0)"/>
<path d="M53 40h1v2h-1v-2z" fill="rgb(205,180,0)"/>
<path d="M54 40h1v2h-1v-2z" fill="rgb(16,16,16)"/>
<path d="M34 41h1v2h-1v-2z" fill="rgb(115,74,24)"/>
<path d="M36 41h1v1h-1v-1z" fill="rgb(205,180,0)"/>
<path d="M39 41h2v1h-2v-1z" fill="rgb(205,180,0)"/>
<path d="M44 41h1v1h-1v-1z" fill="rgb(230,213,197)"/>
<path d="M47 41h1v1h-1v-1z" fill="rgb(16,16,16)"/>
<path d="M33 42h1v2h-1v-2z" fill="rgb(16,16,16)"/>
<path d="M37 42h2v1h-2v-1z" fill="rgb(205,180,0)"/>
<path d="M43 42h1v1h-1v-1z" fill="rgb(230,213,197)"/>
<path d="M46 42h1v1h-1v-1z" fill="rgb(16,16,16)"/>
<path d="M47 42h1v2h-1v-2z" fill="rgb(115,74,24)"/>
<path d="M49 42h3v1h1v2h-1v1h-3v-1h1v-2h-1v-1z" fill="rgb(205,180,0)"/>
<path d="M55 42h1v3h-1v-3z" fill="rgb(16,16,16)"/>
<path d="M34 43h1v1h-1v-1z" fill="rgb(180,131,16)"/>
<path d="M35 43h1v1h-1v-1z" fill="rgb(16,16,16)"/>
<path d="M41 43h1v1h-1v-1z" fill="rgb(230,213,197)"/>
<path d="M45 43h1v1h-1v-1z" fill="rgb(16,16,16)"/>
<path d="M46 43h1v1h-1v-1z" fill="rgb(205,180,0)"/>
<path d="M48 43h2v2h-1v-1h-1v-1z" fill="rgb(238,222,16)"/>
<path d="M54 43h1v2h-1v-2z" fill="rgb(205,180,0)"/>
<path d="M32 44h1v4h-1v-4z" fill="rgb(16,16,16)"/>
<path d="M33 44h2v1h-2v-1z" fill="rgb(238,222,16)"/>
<path d="M35 44h1v1h-1v-1z" fill="rgb(180,131,16)"/>
<path d="M36 44h1v1h-1v-1z" fill="rgb(16,16,16)"/>
<path d="M37 44h1v1h-1v-1z" fill="rgb(230,213,197)"/>
<path d="M40 44h1v1h-1v-1z" fill="rgb(230,213,197)"/>
<path d="M43 44h2v1h-2v-1z" fill="rgb(16,16,16)"/>
<path d="M45 44h1v1h-1v-1z" fill="rgb(205,189,180)"/>
<path d="M46 44h1v1h-1v-1z" fill="rgb(115,74,24)"/>
<path d="M47 44h2v1h-2v-1z" fill="rgb(205,180,0)"/>
<path d="M65 44h1v1h-1v-1z" fill="rgb(115,74,24)"/>
<path d="M33 45h1v1h-1v-1z" fill="rgb(205,180,0)"/>
<path d="M34 45h1v1h-1v-1z" fill="rgb(180,131,16)"/>
<path d="M35 45h1v1h1v1h-1v1h-1v1h-1v-3h1v-1z" fill="rgb(205,180,0)"/>
<path d="M36 45h1v1h-1v-1z" fill="rgb(180,131,16)"/>
<path d="M37 45h1v1h3v1h-2v2h-1v-2h-1v-2z" fill="rgb(16,16,16)"/>
<path d="M38 45h2v1h-2v-1z" fill="rgb(230,213,197)"/>
<path d="M40 45h1v1h-1v-1z" fill="rgb(205,189,180)"/>
<path d="M41 45h2v1h-2v-1z" fill="rgb(16,16,16)"/>
<path d="M43 45h1v1h-1v-1z" fill="rgb(205,189,180)"/>
<path d="M44 45h2v1h-2v-1z" fill="rgb(115,74,24)"/>
<path d="M46 45h1v1h-1v-1z" fill="rgb(205,180,0)"/>
<path d="M47 45h2v1h1v1h-1v1h-1v-2h-1v-1z" fill="rgb(238,222,16)"/>
<path d="M52 45h1v1h-1v-1z" fill="rgb(180,131,16)"/>
<path d="M53 45h1v2h-1v1h-1v-2h1v-1z" fill="rgb(205,180,0)"/>
<path d="M54 45h1v2h-1v-2z" fill="rgb(180,131,16)"/>
<path d="M55 45h1v2h-1v-2z" fill="rgb(205,180,0)"/>
<path d="M56 45h1v8h-1v-8z" fill="rgb(16,16,16)"/>
<path d="M64 45h1v1h-1v-1z" fill="rgb(115,74,24)"/>
<path d="M65 45h1v1h-1v-1z" fill="rgb(238,222,16)"/>
<path d="M66 45h1v5h-1v-5z" fill="rgb(16,16,16)"/>
<path d="M33 46h1v2h-1v-2z" fill="rgb(180,131,16)"/>
<path d="M41 46h2v1h-1v1h-2v1h-1v-2h2v-1z" fill="rgb(205,189,180)"/>
<path d="M43 46h2v1h-2v-1z" fill="rgb(16,16,16)"/>
<path d="M45 46h2v2h-2v-2z" fill="rgb(238,222,16)"/>
<path d="M47 46h1v2h1v2h-2v1h-1v-3h1v-2z" fill="rgb(205,180,0)"/>
<path d="M50 46h2v3h-1v-2h-1v-1z" fill="rgb(180,131,16)"/>
<path d="M63 46h1v1h-1v-1z" fill="rgb(115,74,24)"/>
<path d="M64 46h1v2h-1v1h-1v-2h1v-1z" fill="rgb(238,222,16)"/>
<path d="M65 46h1v4h-2v-2h1v-2z" fill="rgb(205,180,0)"/>
<path d="M36 47h1v1h-1v-1z" fill="rgb(115,74,24)"/>
<path d="M37 47h1v1h-1v-1z" fill="rgb(238,238,222)"/>
<path d="M42 47h1v2h-1v-2z" fill="rgb(16,16,16)"/>
<path d="M43 47h1v1h-1v-1z" fill="rgb(255,255,255)"/>
<path d="M44 47h1v3h-1v-3z" fill="rgb(115,74,24)"/>
<path d="M49 47h2v2h-1v-1h-1v-1z" fill="rgb(205,180,0)"/>
<path d="M53 47h1v1h-1v-1z" fill="rgb(180,131,16)"/>
<path d="M54 47h1v1h-1v-1z" fill="rgb(205,180,0)"/>
<path d="M55 47h1v1h-1v-1z" fill="rgb(180,131,16)"/>
<path d="M62 47h1v1h-1v-1z" fill="rgb(115,74,24)"/>
<path d="M33 48h1v1h-1v-1z" fill="rgb(16,16,16)"/>
<path d="M35 48h1v2h-2v-1h1v-1z" fill="rgb(16,16,16)"/>
<path d="M36 48h1v1h-1v-1z" fill="rgb(131,131,131)"/>
<path d="M37 48h1v1h-1v-1z" fill="rgb(115,74,24)"/>
<path d="M40 48h2v2h1v1h1v1h1v1h-1v1h-1v1h-3v-1h-1v-1h-1v-3h1v-1h1v-1z" fill="rgb(230,213,197)"/>
<path d="M43 48h1v1h-1v-1z" fill="rgb(131,131,131)"/>
<path d="M45 48h1v3h-1v-3z" fill="rgb(180,131,16)"/>
<path d="M49 48h1v1h-1v-1z" fill="rgb(180,131,16)"/>
<path d="M52 48h1v1h-1v-1z" fill="rgb(115,74,24)"/>
<path d="M53 48h1v1h-1v-1z" fill="rgb(205,180,0)"/>
<path d="M54 48h1v1h-1v-1z" fill="rgb(180,131,16)"/>
<path d="M55 48h1v2h-1v-2z" fill="rgb(205,180,0)"/>
<path d="M60 48h2v1h-2v-1z" fill="rgb(115,74,24)"/>
<path d="M62 48h1v1h1v1h-2v-2z" fill="rgb(180,131,16)"/>
<path d="M36 49h1v1h-1v-1z" fill="rgb(238,238,222)"/>
<path d="M37 49h1v2h-2v-1h1v-1z" fill="rgb(16,16,16)"/>
<path d="M38 49h1v1h-1v-1z" fill="rgb(205,189,180)"/>
<path d="M42 49h1v1h-1v-1z" fill="rgb(115,74,24)"/>
<path d="M43 49h1v1h-1v-1z" fill="rgb(255,255,255)"/>
<path d="M49 49h2v1h-2v-1z" fill="rgb(16,16,16)"/>
<path d="M51 49h1v1h-1v-1z" fill="rgb(115,74,24)"/>
<path d="M52 49h1v1h2v1h1v1h-2v1h-2v-1h-1v-1h-2v-1h3v-1z" fill="rgb(205,180,0)"/>
<path d="M53 49h2v1h-2v-1z" fill="rgb(115,74,24)"/>
<path d="M57 49h3v1h-3v-1z" fill="rgb(115,74,24)"/>
<path d="M60 49h2v1h-1v1h-1v-2z" fill="rgb(238,222,16)"/>
<path d="M33 50h1v2h-1v-2z" fill="rgb(115,74,24)"/>
<path d="M34 50h2v2h-1v-1h-1v-1z" fill="rgb(205,180,0)"/>
<path d="M43 50h1v1h-1v-1z" fill="rgb(16,16,16)"/>
<path d="M44 50h1v1h-1v-1z" fill="rgb(131,131,131)"/>
<path d="M47 50h2v1h-2v-1z" fill="rgb(16,16,16)"/>
<path d="M55 50h1v1h-1v-1z" fill="rgb(115,74,24)"/>
<path d="M57 50h1v1h2v1h1v1h-1v1h-2v-1h-1v-3z" fill="rgb(205,180,0)"/>
<path d="M58 50h1v1h-1v-1z" fill="rgb(238,222,16)"/>
<path d="M59 50h1v1h-1v-1z" fill="rgb(180,131,16)"/>
<path d="M61 50h1v1h-1v-1z" fill="rgb(180,131,16)"/>
<path d="M62 50h2v1h1v1h-1v2h-1v1h-1v-3h-1v-1h1v-1z" fill="rgb(205,180,0)"/>
<path d="M64 50h1v1h-1v-1z" fill="rgb(180,131,16)"/>
<path d="M65 50h1v2h-1v-2z" fill="rgb(16,16,16)"/>
<path d="M34 51h1v1h1v2h-2v-1h-1v-1h1v-1z" fill="rgb(238,222,16)"/>
<path d="M36 51h1v2h-1v-2z" fill="rgb(115,74,24)"/>
<path d="M37 51h1v2h1v1h1v1h3v-1h1v-1h1v-1h2v7h-4v-1h-2v-1h-2v-1h-1v-2h-1v-3z" fill="rgb(205,189,180)"/>
<path d="M44 51h3v1h-3v-1z" fill="rgb(16,16,16)"/>
<path d="M47 51h1v1h-1v-1z" fill="rgb(205,189,180)"/>
<path d="M48 51h1v1h-1v-1z" fill="rgb(180,131,16)"/>
<path d="M49 51h2v1h1v1h-3v-2z" fill="rgb(238,222,16)"/>
<path d="M60 51h1v1h-1v-1z" fill="rgb(180,131,16)"/>
<path d="M32 52h1v3h-1v-3z" fill="rgb(115,74,24)"/>
<path d="M47 52h1v1h-1v-1z" fill="rgb(180,131,16)"/>
<path d="M48 52h1v1h-1v-1z" fill="rgb(205,180,0)"/>
<path d="M54 52h2v1h-1v1h-3v-1h2v-1z" fill="rgb(180,131,16)"/>
<path d="M61 52h1v3h-1v-1h-1v-1h1v-1z" fill="rgb(180,131,16)"/>
<path d="M64 52h1v2h-1v-2z" fill="rgb(16,16,16)"/>
<path d="M33 53h1v1h-1v-1z" fill="rgb(180,131,16)"/>
<path d="M36 53h1v1h-1v-1z" fill="rgb(16,16,16)"/>
<path d="M47 53h1v4h-1v-4z" fill="rgb(115,74,24)"/>
<path d="M48 53h1v1h2v2h-2v-1h-1v-2z" fill="rgb(238,222,16)"/>
<path d="M49 53h3v1h-3v-1z" fill="rgb(205,180,0)"/>
<path d="M55 53h2v2h-1v-1h-1v-1z" fill="rgb(205,180,0)"/>
<path d="M57 53h1v4h-1v-4z" fill="rgb(16,16,16)"/>
<path d="M33 54h1v1h-1v-1z" fill="rgb(238,222,16)"/>
<path d="M34 54h3v1h-2v1h-1v-2z" fill="rgb(180,131,16)"/>
<path d="M37 54h1v2h-1v-2z" fill="rgb(16,16,16)"/>
<path d="M51 54h1v3h2v1h-5v-1h2v-3z" fill="rgb(180,131,16)"/>
<path d="M52 54h3v2h-1v1h-2v-3z" fill="rgb(205,180,0)"/>
<path d="M55 54h1v1h1v1h-1v1h-2v-1h1v-2z" fill="rgb(180,131,16)"/>
<path d="M58 54h2v1h-2v-1z" fill="rgb(180,131,16)"/>
<path d="M60 54h1v1h-1v-1z" fill="rgb(205,180,0)"/>
<path d="M63 54h1v1h-1v-1z" fill="rgb(16,16,16)"/>
<path d="M33 55h1v2h-1v-2z" fill="rgb(16,16,16)"/>
<path d="M35 55h2v1h1v1h-3v-2z" fill="rgb(205,180,0)"/>
<path d="M48 55h1v1h-1v-1z" fill="rgb(205,180,0)"/>
<path d="M58 55h2v2h-2v-2z" fill="rgb(205,180,0)"/>
<path d="M60 55h1v1h-1v-1z" fill="rgb(180,131,16)"/>
<path d="M61 55h1v1h-1v-1z" fill="rgb(205,180,0)"/>
<path d="M62 55h1v1h-1v-1z" fill="rgb(16,16,16)"/>
<path d="M34 56h1v1h-1v-1z" fill="rgb(115,74,24)"/>
<path d="M38 56h1v1h-1v-1z" fill="rgb(16,16,16)"/>
<path d="M48 56h1v1h-1v-1z" fill="rgb(180,131,16)"/>
<path d="M49 56h2v1h-2v-1z" fill="rgb(205,180,0)"/>
<path d="M56 56h1v1h-1v-1z" fill="rgb(205,180,0)"/>
<path d="M60 56h2v1h-2v-1z" fill="rgb(16,16,16)"/>
<path d="M34 57h2v1h-2v-1z" fill="rgb(16,16,16)"/>
<path d="M36 57h2v1h-2v-1z" fill="rgb(180,131,16)"/>
<path d="M38 57h1v1h2v1h1v1h-2v1h-2v-1h1v-1h-1v-2z" fill="rgb(205,180,0)"/>
<path d="M39 57h2v1h-2v-1z" fill="rgb(16,16,16)"/>
<path d="M47 57h1v1h-1v-1z" fill="rgb(16,16,16)"/>
<path d="M48 57h1v1h-1v-1z" fill="rgb(205,180,0)"/>
<path d="M54 57h2v2h-1v1h-3v1h-1v-1h-1v-1h-1v-1h5v-1z" fill="rgb(205,180,0)"/>
<path d="M56 57h1v1h1v1h-2v-2z" fill="rgb(16,16,16)"/>
<path d="M57 57h1v1h-1v-1z" fill="rgb(205,180,0)"/>
<path d="M58 57h2v1h-2v-1z" fill="rgb(16,16,16)"/>
<path d="M35 58h3v1h-3v-1z" fill="rgb(115,74,24)"/>
<path d="M41 58h2v1h5v1h-6v-1h-1v-1z" fill="rgb(16,16,16)"/>
<path d="M47 58h1v1h-1v-1z" fill="rgb(205,180,0)"/>
<path d="M48 58h1v1h-1v-1z" fill="rgb(16,16,16)"/>
<path d="M34 59h1v1h-1v-1z" fill="rgb(115,74,24)"/>
<path d="M35 59h1v1h-1v-1z" fill="rgb(205,189,180)"/>
<path d="M36 59h1v1h-1v-1z" fill="rgb(131,131,131)"/>
<path d="M37 59h2v1h-2v-1z" fill="rgb(238,222,16)"/>
<path d="M49 59h1v1h-1v-1z" fill="rgb(16,16,16)"/>
<path d="M55 59h1v2h-2v-1h1v-1z" fill="rgb(16,16,16)"/>
<path d="M56 59h1v1h-1v-1z" fill="rgb(115,74,24)"/>
<path d="M33 60h1v2h-1v-2z" fill="rgb(115,74,24)"/>
<path d="M34 60h1v1h-1v-1z" fill="rgb(205,189,180)"/>
<path d="M35 60h1v1h-1v-1z" fill="rgb(131,131,131)"/>
<path d="M36 60h1v1h1v1h-3v-1h1v-1z" fill="rgb(255,255,255)"/>
<path d="M37 60h1v1h-1v-1z" fill="rgb(131,131,131)"/>
<path d="M40 60h2v1h-2v-1z" fill="rgb(16,16,16)"/>
<path d="M50 60h1v2h-1v-2z" fill="rgb(16,16,16)"/>
<path d="M52 60h1v1h2v1h-1v1h-1v-1h-2v-1h1v-1z" fill="rgb(238,222,16)"/>
<path d="M53 60h1v1h-1v-1z" fill="rgb(115,74,24)"/>
<path d="M34 61h1v1h-1v-1z" fill="rgb(131,131,131)"/>
<path d="M38 61h2v1h-2v-1z" fill="rgb(16,16,16)"/>
<path d="M55 61h1v2h-2v-1h1v-1z" fill="rgb(131,131,131)"/>
<path d="M56 61h1v3h-1v-3z" fill="rgb(16,16,16)"/>
<path d="M34 62h4v1h-4v-1z" fill="rgb(16,16,16)"/>
<path d="M50 62h1v2h-1v-2z" fill="rgb(115,74,24)"/>
<path d="M51 62h2v1h-2v-1z" fill="rgb(131,131,131)"/>
<path d="M51 63h2v2h-1v-1h-1v-1z" fill="rgb(255,255,255)"/>
<path d="M53 63h1v2h-1v-2z" fill="rgb(131,131,131)"/>
<path d="M54 63h2v1h-1v1h-1v-2z" fill="rgb(205,189,180)"/>
<path d="M51 64h1v1h-1v-1z" fill="rgb(131,131,131)"/>
<path d="M55 64h1v1h-1v-1z" fill="rgb(16,16,16)"/>
<path d="M52 65h3v1h-3v-1z" fill="rgb(16,16,16)"/>
</svg>
