<?xml version="1.0" encoding="utf-8"?>
<!-- generated at drububu.com  -->
<!DOCTYPE svg PUBLIC "-//W3C//DTD SVG 1.1//EN" "http://www.w3.org/Graphics/SVG/1.1/DTD/svg11.dtd">
<svg version="1.1" preserveAspectRatio="xMinYMin meet" xmlns="http://www.w3.org/2000/svg" xmlns:xlink="http://www.w3.org/1999/xlink" x="0px" y="0px" width="96px" height="96px" viewBox="0 0 96 96">
<path d="M0 0h96v96h-96v-96z" fill="transparent"/>
<path d="M51 22h2v5h-1v-4h-1v-1z" fill="rgb(74,57,16)"/>
<path d="M43 23h2v5h-1v-4h-1v-1z" fill="rgb(74,57,16)"/>
<path d="M50 23h1v1h-1v-1z" fill="rgb(74,57,16)"/>
<path d="M51 23h1v2h-1v2h-1v1h-1v-2h1v-2h1v-1z" fill="rgb(172,131,49)"/>
<path d="M42 24h1v1h-1v-1z" fill="rgb(74,57,16)"/>
<path d="M43 24h1v3h-1v1h-1v1h-1v-3h1v-1h1v-1z" fill="rgb(172,131,49)"/>
<path d="M46 24h1v1h-1v-1z" fill="rgb(139,98,24)"/>
<path d="M47 24h1v1h1v1h-1v1h-1v-3z" fill="rgb(74,57,16)"/>
<path d="M49 24h1v1h-1v-1z" fill="rgb(74,57,16)"/>
<path d="M57 24h3v2h-1v-1h-2v-1z" fill="rgb(74,57,16)"/>
<path d="M41 25h1v1h-1v-1z" fill="rgb(74,57,16)"/>
<path d="M45 25h1v1h-1v-1z" fill="rgb(139,98,24)"/>
<path d="M46 25h1v2h-1v2h-1v-3h1v-1z" fill="rgb(172,131,49)"/>
<path d="M49 25h1v1h-1v-1z" fill="rgb(139,98,24)"/>
<path d="M51 25h1v4h-2v1h-1v1h-1v1h-1v1h-2v-1h1v-1h1v-2h1v-3h1v2h1v-1h1v-2z" fill="rgb(139,98,24)"/>
<path d="M55 25h2v1h-2v-1z" fill="rgb(74,57,16)"/>
<path d="M57 25h2v3h-1v1h-2v-1h-2v-1h1v-1h2v-1z" fill="rgb(139,98,24)"/>
<path d="M40 26h1v2h-1v-2z" fill="rgb(74,57,16)"/>
<path d="M54 26h1v1h-1v-1z" fill="rgb(74,57,16)"/>
<path d="M59 26h1v2h-1v-2z" fill="rgb(16,16,16)"/>
<path d="M39 27h1v2h-1v-2z" fill="rgb(16,16,16)"/>
<path d="M43 27h1v7h-1v-5h-1v-1h1v-1z" fill="rgb(139,98,24)"/>
<path d="M46 27h1v2h-1v-2z" fill="rgb(139,98,24)"/>
<path d="M47 27h1v2h-1v-2z" fill="rgb(16,16,16)"/>
<path d="M52 27h1v1h-1v-1z" fill="rgb(16,16,16)"/>
<path d="M53 27h1v1h2v1h-4v-1h1v-1z" fill="rgb(74,57,16)"/>
<path d="M36 28h1v1h-1v-1z" fill="rgb(74,57,16)"/>
<path d="M37 28h1v1h1v2h-2v-3z" fill="rgb(16,16,16)"/>
<path d="M40 28h1v2h-2v-1h1v-1z" fill="rgb(139,98,24)"/>
<path d="M44 28h1v3h1v1h-1v2h-1v-6z" fill="rgb(16,16,16)"/>
<path d="M58 28h3v1h-3v-1z" fill="rgb(74,57,16)"/>
<path d="M61 28h1v4h-2v-1h1v-3z" fill="rgb(16,16,16)"/>
<path d="M35 29h1v1h-1v-1z" fill="rgb(74,57,16)"/>
<path d="M36 29h1v3h-1v1h-1v1h-1v1h-1v-2h1v-2h1v-1h1v-1z" fill="rgb(172,131,49)"/>
<path d="M41 29h2v6h-1v-5h-1v-1z" fill="rgb(16,16,16)"/>
<path d="M45 29h1v2h-1v-2z" fill="rgb(139,98,24)"/>
<path d="M46 29h1v2h-1v-2z" fill="rgb(16,16,16)"/>
<path d="M50 29h2v1h-2v-1z" fill="rgb(74,57,16)"/>
<path d="M52 29h1v1h-1v-1z" fill="rgb(139,98,24)"/>
<path d="M53 29h2v1h-1v1h-1v1h-1v1h-1v1h-2v2h-1v-3h1v-1h1v-1h1v-1h2v-1z" fill="rgb(172,131,49)"/>
<path d="M55 29h1v3h-1v-3z" fill="rgb(16,16,16)"/>
<path d="M56 29h2v1h-2v-1z" fill="rgb(74,57,16)"/>
<path d="M58 29h3v1h-1v2h-1v1h-4v-1h1v-2h2v-1z" fill="rgb(139,98,24)"/>
<path d="M34 30h1v1h-1v-1z" fill="rgb(139,98,24)"/>
<path d="M39 30h2v1h-2v-1z" fill="rgb(74,57,16)"/>
<path d="M41 30h1v6h-1v2h-1v-3h1v-5z" fill="rgb(139,98,24)"/>
<path d="M49 30h1v1h-1v-1z" fill="rgb(74,57,16)"/>
<path d="M50 30h1v1h-1v-1z" fill="rgb(139,98,24)"/>
<path d="M54 30h1v2h-1v3h-1v1h-1v1h-1v1h-1v1h-2v1h-1v1h-1v1h-1v-2h1v-1h1v-2h1v-1h1v-2h2
	v-1h1v-1h1v-1h1v-1z" fill="rgb(139,98,24)"/>
<path d="M60 30h1v1h-1v-1z" fill="rgb(74,57,16)"/>
<path d="M33 31h1v1h-1v-1z" fill="rgb(139,98,24)"/>
<path d="M37 31h2v1h-2v-1z" fill="rgb(74,57,16)"/>
<path d="M39 31h2v4h-1v3h-1v1h-2v-1h1v-6h1v-1z" fill="rgb(172,131,49)"/>
<path d="M48 31h1v1h-1v-1z" fill="rgb(16,16,16)"/>
<path d="M49 31h1v1h-1v-1z" fill="rgb(139,98,24)"/>
<path d="M33 32h1v1h-1v-1z" fill="rgb(74,57,16)"/>
<path d="M36 32h2v6h-1v-5h-1v-1z" fill="rgb(16,16,16)"/>
<path d="M47 32h2v1h-2v-1z" fill="rgb(74,57,16)"/>
<path d="M54 32h1v1h-1v-1z" fill="rgb(74,57,16)"/>
<path d="M59 32h1v2h-2v-1h1v-1z" fill="rgb(16,16,16)"/>
<path d="M60 32h1v2h-1v-2z" fill="rgb(74,57,16)"/>
<path d="M28 33h2v1h-1v4h-1v-5z" fill="rgb(90,74,0)"/>
<path d="M32 33h1v2h-1v-2z" fill="rgb(74,57,16)"/>
<path d="M35 33h1v1h-1v-1z" fill="rgb(16,16,16)"/>
<path d="M36 33h1v4h-1v3h2v-1h2v1h1v-2h1v-2h1v-1h2v-1h2v3h-1v2h-1v1h-3v2h-3v1h-1v1h-1v2
	h-1v1h1v1h-1v1h-1v1h-3v-2h-1v-4h-1v-1h-1v-2h1v-2h3v-2h1v-2h1v-1h1v-1z" fill="rgb(246,213,32)"/>
<path d="M45 33h2v1h-2v-1z" fill="rgb(74,57,16)"/>
<path d="M47 33h1v1h-1v-1z" fill="rgb(90,74,0)"/>
<path d="M54 33h1v1h-1v-1z" fill="rgb(16,16,16)"/>
<path d="M55 33h3v1h-3v-1z" fill="rgb(74,57,16)"/>
<path d="M29 34h1v1h1v2h-1v1h-1v-4z" fill="rgb(246,213,32)"/>
<path d="M30 34h1v1h-1v-1z" fill="rgb(90,74,0)"/>
<path d="M34 34h1v1h-1v-1z" fill="rgb(90,74,0)"/>
<path d="M43 34h2v1h-2v-1z" fill="rgb(90,74,0)"/>
<path d="M47 34h1v3h-1v-3z" fill="rgb(16,16,16)"/>
<path d="M54 34h1v1h-1v-1z" fill="rgb(74,57,16)"/>
<path d="M55 34h5v1h-1v1h-1v1h-5v-1h1v-1h1v-1z" fill="rgb(139,98,24)"/>
<path d="M60 34h1v1h-1v-1z" fill="rgb(16,16,16)"/>
<path d="M62 34h5v2h-1v-1h-4v-1z" fill="rgb(74,57,16)"/>
<path d="M31 35h1v1h-1v-1z" fill="rgb(16,16,16)"/>
<path d="M32 35h1v2h-1v-2z" fill="rgb(172,131,49)"/>
<path d="M33 35h1v2h-1v-2z" fill="rgb(90,74,0)"/>
<path d="M42 35h1v1h-1v-1z" fill="rgb(90,74,0)"/>
<path d="M53 35h1v1h-1v-1z" fill="rgb(16,16,16)"/>
<path d="M59 35h1v1h-1v-1z" fill="rgb(16,16,16)"/>
<path d="M60 35h2v1h-2v-1z" fill="rgb(74,57,16)"/>
<path d="M62 35h4v1h-1v2h-1v1h-1v1h-2v1h-3v-2h1v-1h1v-1h1v-1h1v-1z" fill="rgb(139,98,24)"/>
<path d="M31 36h1v1h-1v-1z" fill="rgb(74,57,16)"/>
<path d="M41 36h1v2h-1v-2z" fill="rgb(90,74,0)"/>
<path d="M52 36h1v1h-1v-1z" fill="rgb(16,16,16)"/>
<path d="M58 36h1v3h-1v-1h-5v1h-3v-1h2v-1h6v-1z" fill="rgb(74,57,16)"/>
<path d="M59 36h1v1h-1v-1z" fill="rgb(139,98,24)"/>
<path d="M60 36h1v1h-1v-1z" fill="rgb(16,16,16)"/>
<path d="M65 36h1v1h-1v-1z" fill="rgb(74,57,16)"/>
<path d="M23 37h3v1h-2v2h-1v-3z" fill="rgb(16,16,16)"/>
<path d="M30 37h2v2h-2v-2z" fill="rgb(213,172,32)"/>
<path d="M32 37h1v1h-1v-1z" fill="rgb(16,16,16)"/>
<path d="M36 37h1v1h-1v-1z" fill="rgb(148,123,0)"/>
<path d="M46 37h1v1h-1v-1z" fill="rgb(90,74,0)"/>
<path d="M51 37h1v1h-1v-1z" fill="rgb(16,16,16)"/>
<path d="M59 37h1v1h-1v-1z" fill="rgb(16,16,16)"/>
<path d="M65 37h1v1h-1v-1z" fill="rgb(16,16,16)"/>
<path d="M24 38h2v1h2v1h1v1h-1v2h-2v-1h-1v-2h-1v-2z" fill="rgb(139,98,24)"/>
<path d="M26 38h2v1h-2v-1z" fill="rgb(16,16,16)"/>
<path d="M28 38h1v1h-1v-1z" fill="transparent"/>
<path d="M29 38h1v3h-1v-3z" fill="rgb(90,74,0)"/>
<path d="M32 38h1v1h-1v-1z" fill="rgb(90,74,0)"/>
<path d="M36 38h1v2h-1v-2z" fill="rgb(16,16,16)"/>
<path d="M39 38h1v1h-1v-1z" fill="rgb(213,172,32)"/>
<path d="M40 38h1v1h-1v-1z" fill="rgb(90,74,0)"/>
<path d="M46 38h1v1h-1v-1z" fill="rgb(16,16,16)"/>
<path d="M53 38h5v1h-1v2h-1v1h-1v1h-2v1h-7v-2h1v-1h1v-1h2v-1h3v-1z" fill="rgb(139,98,24)"/>
<path d="M64 38h1v1h-1v-1z" fill="rgb(16,16,16)"/>
<path d="M28 39h1v1h-1v-1z" fill="rgb(16,16,16)"/>
<path d="M37 39h1v1h-1v-1z" fill="rgb(213,172,32)"/>
<path d="M40 39h1v1h-1v-1z" fill="rgb(148,123,0)"/>
<path d="M45 39h1v1h-1v-1z" fill="rgb(16,16,16)"/>
<path d="M48 39h1v1h-1v-1z" fill="rgb(16,16,16)"/>
<path d="M49 39h1v1h-1v-1z" fill="rgb(74,57,16)"/>
<path d="M57 39h1v1h-1v-1z" fill="rgb(74,57,16)"/>
<path d="M63 39h1v1h-1v-1z" fill="rgb(16,16,16)"/>
<path d="M64 39h3v1h-3v-1z" fill="rgb(74,57,16)"/>
<path d="M24 40h1v2h-1v-2z" fill="rgb(16,16,16)"/>
<path d="M42 40h1v1h1v2h-2v-3z" fill="rgb(213,172,32)"/>
<path d="M43 40h1v1h-1v-1z" fill="rgb(148,123,0)"/>
<path d="M44 40h1v3h-1v-3z" fill="rgb(90,74,0)"/>
<path d="M47 40h1v1h-1v-1z" fill="rgb(16,16,16)"/>
<path d="M57 40h1v1h-1v-1z" fill="rgb(16,16,16)"/>
<path d="M61 40h1v1h-1v-1z" fill="rgb(16,16,16)"/>
<path d="M62 40h1v1h-1v-1z" fill="rgb(74,57,16)"/>
<path d="M63 40h4v1h-1v1h-2v1h-1v-1h-2v-1h2v-1z" fill="rgb(139,98,24)"/>
<path d="M67 40h1v1h-1v-1z" fill="rgb(16,16,16)"/>
<path d="M28 41h1v2h-1v-2z" fill="rgb(90,74,0)"/>
<path d="M46 41h1v1h-1v-1z" fill="rgb(90,74,0)"/>
<path d="M56 41h1v1h-1v-1z" fill="rgb(16,16,16)"/>
<path d="M57 41h4v1h-4v-1z" fill="rgb(74,57,16)"/>
<path d="M66 41h1v1h-1v-1z" fill="rgb(16,16,16)"/>
<path d="M25 42h1v1h-1v-1z" fill="rgb(16,16,16)"/>
<path d="M39 42h1v1h-1v-1z" fill="rgb(213,172,32)"/>
<path d="M40 42h2v1h-2v-1z" fill="rgb(82,82,82)"/>
<path d="M45 42h1v2h7v1h-2v1h-2v1h-1v-1h-1v-1h-3v-2h1v-1z" fill="rgb(16,16,16)"/>
<path d="M55 42h1v1h-1v-1z" fill="rgb(16,16,16)"/>
<path d="M56 42h5v1h2v1h1v1h-2v1h-3v1h-6v-1h-1v-1h1v-1h2v-1h1v-1z" fill="rgb(139,98,24)"/>
<path d="M61 42h2v1h-2v-1z" fill="rgb(74,57,16)"/>
<path d="M64 42h2v1h-2v-1z" fill="rgb(16,16,16)"/>
<path d="M26 43h2v1h-2v-1z" fill="rgb(16,16,16)"/>
<path d="M28 43h1v1h-1v-1z" fill="rgb(82,82,82)"/>
<path d="M29 43h1v1h1v1h-1v1h-1v-1h-1v-1h1v-1z" fill="rgb(16,16,16)"/>
<path d="M38 43h4v2h-1v1h-1v-2h-2v-1z" fill="rgb(16,16,16)"/>
<path d="M42 43h2v2h-1v2h-1v1h-2v1h-2v1h-1v1h-1v1h-3v-1h2v-2h1v-1h1v-1h4v-1h1v-3z" fill="rgb(222,213,180)"/>
<path d="M53 43h2v1h-2v-1z" fill="rgb(16,16,16)"/>
<path d="M63 43h1v1h-1v-1z" fill="rgb(74,57,16)"/>
<path d="M64 43h2v1h2v1h1v1h-2v1h-5v-1h2v-1h1v-1h-1v-1z" fill="rgb(139,98,24)"/>
<path d="M66 43h2v1h-2v-1z" fill="rgb(74,57,16)"/>
<path d="M37 44h1v2h2v1h-3v-3z" fill="rgb(16,16,16)"/>
<path d="M38 44h1v1h-1v-1z" fill="rgb(139,139,139)"/>
<path d="M39 44h1v1h-1v-1z" fill="rgb(255,255,255)"/>
<path d="M64 44h1v1h-1v-1z" fill="rgb(74,57,16)"/>
<path d="M68 44h1v1h-1v-1z" fill="rgb(74,57,16)"/>
<path d="M28 45h1v1h-1v-1z" fill="rgb(82,82,82)"/>
<path d="M30 45h1v1h-1v-1z" fill="rgb(255,255,255)"/>
<path d="M38 45h1v1h-1v-1z" fill="rgb(255,255,255)"/>
<path d="M39 45h1v1h-1v-1z" fill="rgb(222,213,180)"/>
<path d="M41 45h1v1h-1v-1z" fill="rgb(82,82,82)"/>
<path d="M43 45h1v2h-1v-2z" fill="rgb(16,16,16)"/>
<path d="M44 45h3v1h1v1h-1v1h-1v1h-2v1h-1v1h-1v5h-1v1h-1v-1h-1v-1h-1v-2h-1v-2h1v-1h2v-1
	h2v-1h1v-1h1v-2z" fill="rgb(222,213,180)"/>
<path d="M51 45h1v1h-1v-1z" fill="rgb(74,57,16)"/>
<path d="M62 45h2v1h-2v-1z" fill="rgb(74,57,16)"/>
<path d="M69 45h1v1h-1v-1z" fill="rgb(16,16,16)"/>
<path d="M27 46h1v1h-1v-1z" fill="rgb(16,16,16)"/>
<path d="M28 46h1v1h-1v-1z" fill="rgb(213,172,32)"/>
<path d="M29 46h1v1h-1v-1z" fill="rgb(82,82,82)"/>
<path d="M30 46h1v1h-1v-1z" fill="rgb(16,16,16)"/>
<path d="M36 46h1v1h-1v-1z" fill="rgb(148,123,0)"/>
<path d="M40 46h1v1h-1v-1z" fill="rgb(82,82,82)"/>
<path d="M49 46h3v1h1v2h-1v-1h-1v-1h-2v-1z" fill="rgb(213,172,32)"/>
<path d="M52 46h1v1h-1v-1z" fill="rgb(16,16,16)"/>
<path d="M59 46h3v1h-3v-1z" fill="rgb(74,57,16)"/>
<path d="M67 46h2v1h-2v-1z" fill="rgb(16,16,16)"/>
<path d="M24 47h2v1h-2v-1z" fill="rgb(90,74,0)"/>
<path d="M26 47h1v1h-1v-1z" fill="rgb(16,16,16)"/>
<path d="M27 47h2v1h-2v-1z" fill="rgb(246,213,32)"/>
<path d="M29 47h1v2h-1v1h-1v-2h1v-1z" fill="rgb(213,172,32)"/>
<path d="M30 47h1v2h-1v-2z" fill="rgb(82,82,82)"/>
<path d="M42 47h1v1h-1v-1z" fill="rgb(16,16,16)"/>
<path d="M47 47h2v1h-2v-1z" fill="rgb(148,123,0)"/>
<path d="M49 47h2v1h-2v-1z" fill="rgb(90,74,0)"/>
<path d="M53 47h1v2h-1v-2z" fill="rgb(16,16,16)"/>
<path d="M54 47h5v1h-5v-1z" fill="rgb(74,57,16)"/>
<path d="M59 47h2v1h2v1h2v1h3v1h3v1h1v1h-2v1h-3v1h-2v-1h-1v-2h-1v-1h-1v-1h-2v-1h-3v1h-1
	v1h-1v1h-1v2h-1v-5h1v-1h5v-1z" fill="rgb(213,172,32)"/>
<path d="M61 47h1v1h-1v-1z" fill="rgb(148,123,0)"/>
<path d="M62 47h3v1h-3v-1z" fill="rgb(74,57,16)"/>
<path d="M65 47h2v1h-2v-1z" fill="rgb(16,16,16)"/>
<path d="M23 48h1v1h-1v-1z" fill="rgb(90,74,0)"/>
<path d="M24 48h3v4h-2v1h-1v1h-1v1h-1v-4h1v-2h1v-1z" fill="rgb(246,213,32)"/>
<path d="M27 48h1v1h-1v-1z" fill="rgb(90,74,0)"/>
<path d="M31 48h1v1h-1v-1z" fill="rgb(255,255,255)"/>
<path d="M40 48h1v1h-1v-1z" fill="rgb(82,82,82)"/>
<path d="M41 48h1v1h-1v-1z" fill="rgb(16,16,16)"/>
<path d="M46 48h1v1h-1v-1z" fill="rgb(148,123,0)"/>
<path d="M47 48h4v3h-2v3h-1v-1h-2v-1h-2v1h-1v-2h1v-1h2v-1h1v-1z" fill="rgb(246,213,32)"/>
<path d="M51 48h1v1h-1v-1z" fill="rgb(16,16,16)"/>
<path d="M63 48h1v1h-1v-1z" fill="rgb(16,16,16)"/>
<path d="M64 48h1v1h-1v-1z" fill="rgb(90,74,0)"/>
<path d="M22 49h1v2h-1v-2z" fill="rgb(90,74,0)"/>
<path d="M27 49h1v1h-1v-1z" fill="rgb(16,16,16)"/>
<path d="M29 49h1v1h-1v-1z" fill="rgb(16,16,16)"/>
<path d="M31 49h1v2h-1v-2z" fill="rgb(139,139,139)"/>
<path d="M38 49h2v1h-2v-1z" fill="rgb(82,82,82)"/>
<path d="M44 49h2v1h-2v-1z" fill="rgb(148,123,0)"/>
<path d="M51 49h1v3h-1v2h-1v2h-1v-1h-1v-1h1v-3h2v-2z" fill="rgb(213,172,32)"/>
<path d="M52 49h1v3h-1v-3z" fill="rgb(16,16,16)"/>
<path d="M57 49h3v1h1v5h-1v1h-4v-1h-1v-1h-1v-2h1v-1h1v-1h1v-1z" fill="rgb(246,213,32)"/>
<path d="M65 49h2v1h-2v-1z" fill="rgb(90,74,0)"/>
<path d="M67 49h1v1h-1v-1z" fill="rgb(148,123,0)"/>
<path d="M27 50h1v2h1v2h-1v-1h-1v-3z" fill="rgb(213,172,32)"/>
<path d="M28 50h1v2h-1v-2z" fill="rgb(16,16,16)"/>
<path d="M32 50h3v1h-3v-1z" fill="rgb(255,255,255)"/>
<path d="M37 50h1v1h-1v-1z" fill="rgb(16,16,16)"/>
<path d="M43 50h1v1h-1v-1z" fill="rgb(148,123,0)"/>
<path d="M61 50h1v1h-1v-1z" fill="rgb(148,123,0)"/>
<path d="M68 50h2v1h-2v-1z" fill="rgb(90,74,0)"/>
<path d="M70 50h4v1h-4v-1z" fill="rgb(148,123,0)"/>
<path d="M21 51h1v1h-1v-1z" fill="rgb(90,74,0)"/>
<path d="M32 51h1v1h-1v-1z" fill="rgb(139,139,139)"/>
<path d="M36 51h1v1h-1v-1z" fill="rgb(16,16,16)"/>
<path d="M42 51h1v1h-1v-1z" fill="rgb(148,123,0)"/>
<path d="M61 51h1v1h1v2h1v4h-1v2h-1v1h1v1h1v2h1v3h-1v-1h-1v-2h-4v1h-1v1h-1v-2h1v-2h2v-1
	h-3v-1h-2v-2h-1v-4h1v1h1v1h4v-1h1v-4z" fill="rgb(213,172,32)"/>
<path d="M62 51h1v1h-1v-1z" fill="rgb(148,123,0)"/>
<path d="M71 51h2v1h-2v-1z" fill="rgb(246,213,32)"/>
<path d="M73 51h1v1h-1v-1z" fill="rgb(90,74,0)"/>
<path d="M21 52h1v3h-1v-3z" fill="rgb(16,16,16)"/>
<path d="M25 52h2v1h-2v-1z" fill="rgb(82,82,82)"/>
<path d="M29 52h1v2h-1v-2z" fill="rgb(16,16,16)"/>
<path d="M33 52h1v1h-1v-1z" fill="rgb(82,82,82)"/>
<path d="M34 52h2v1h-2v-1z" fill="rgb(16,16,16)"/>
<path d="M36 52h1v1h-1v-1z" fill="rgb(90,74,0)"/>
<path d="M42 52h1v1h-1v-1z" fill="rgb(90,74,0)"/>
<path d="M44 52h1v1h-1v-1z" fill="rgb(82,82,82)"/>
<path d="M45 52h1v1h-1v-1z" fill="rgb(148,123,0)"/>
<path d="M51 52h1v2h-1v-2z" fill="rgb(16,16,16)"/>
<path d="M52 52h1v6h1v1h-2v1h-6v-1h2v-1h1v-1h1v-1h1v-2h1v-2z" fill="rgb(222,213,180)"/>
<path d="M63 52h1v1h-1v-1z" fill="rgb(148,123,0)"/>
<path d="M72 52h1v1h-1v-1z" fill="rgb(90,74,0)"/>
<path d="M24 53h1v1h-1v-1z" fill="rgb(139,139,139)"/>
<path d="M25 53h2v3h1v1h1v3h-1v-1h-1v-2h-1v-1h-1v-3z" fill="rgb(255,255,255)"/>
<path d="M27 53h1v1h-1v-1z" fill="rgb(82,82,82)"/>
<path d="M34 53h1v1h-1v-1z" fill="rgb(90,74,0)"/>
<path d="M35 53h1v1h1v2h1v1h-1v1h-2v-1h-1v-3h1v-1z" fill="rgb(246,213,32)"/>
<path d="M36 53h1v1h-1v-1z" fill="rgb(213,172,32)"/>
<path d="M37 53h1v1h-1v-1z" fill="rgb(90,74,0)"/>
<path d="M42 53h2v1h-1v1h-1v-2z" fill="rgb(16,16,16)"/>
<path d="M44 53h2v2h-1v2h-1v1h-1v1h-3v-1h1v-1h1v-1h1v-2h1v-1z" fill="rgb(255,255,255)"/>
<path d="M46 53h1v1h-1v-1z" fill="rgb(148,123,0)"/>
<path d="M47 53h1v1h-1v-1z" fill="rgb(213,172,32)"/>
<path d="M63 53h1v1h-1v-1z" fill="rgb(90,74,0)"/>
<path d="M70 53h1v1h-1v-1z" fill="rgb(16,16,16)"/>
<path d="M71 53h1v1h-1v-1z" fill="rgb(90,74,0)"/>
<path d="M23 54h2v2h-1v-1h-1v-1z" fill="rgb(82,82,82)"/>
<path d="M27 54h1v2h-1v-2z" fill="rgb(222,213,180)"/>
<path d="M28 54h1v3h-1v-3z" fill="rgb(16,16,16)"/>
<path d="M33 54h1v1h-1v-1z" fill="rgb(148,123,0)"/>
<path d="M37 54h1v1h-1v-1z" fill="rgb(16,16,16)"/>
<path d="M46 54h1v1h-1v-1z" fill="rgb(82,82,82)"/>
<path d="M47 54h1v1h-1v-1z" fill="rgb(148,123,0)"/>
<path d="M50 54h1v2h-1v-2z" fill="rgb(16,16,16)"/>
<path d="M53 54h1v2h-1v-2z" fill="rgb(148,123,0)"/>
<path d="M64 54h1v1h-1v-1z" fill="rgb(90,74,0)"/>
<path d="M67 54h3v1h-3v-1z" fill="rgb(16,16,16)"/>
<path d="M22 55h1v1h-1v-1z" fill="rgb(82,82,82)"/>
<path d="M23 55h1v1h-1v-1z" fill="rgb(255,255,255)"/>
<path d="M33 55h1v2h-1v-2z" fill="rgb(90,74,0)"/>
<path d="M37 55h1v1h-1v-1z" fill="rgb(213,172,32)"/>
<path d="M38 55h1v1h-1v-1z" fill="rgb(16,16,16)"/>
<path d="M42 55h1v1h-1v-1z" fill="rgb(82,82,82)"/>
<path d="M45 55h1v1h-1v-1z" fill="rgb(139,139,139)"/>
<path d="M46 55h2v2h-1v1h-1v1h-2v-1h1v-1h1v-2z" fill="rgb(255,255,255)"/>
<path d="M48 55h1v1h-1v-1z" fill="rgb(148,123,0)"/>
<path d="M64 55h3v1h-2v1h-1v-2z" fill="rgb(16,16,16)"/>
<path d="M22 56h1v1h-1v-1z" fill="rgb(139,139,139)"/>
<path d="M23 56h1v1h-1v-1z" fill="rgb(222,213,180)"/>
<path d="M24 56h1v2h-1v-2z" fill="rgb(255,255,255)"/>
<path d="M25 56h1v2h-1v-2z" fill="rgb(139,139,139)"/>
<path d="M38 56h1v1h1v1h-1v1h-1v2h-1v-1h-1v-1h-1v-1h2v-1h1v-1z" fill="rgb(213,172,32)"/>
<path d="M39 56h1v1h-1v-1z" fill="rgb(16,16,16)"/>
<path d="M41 56h1v1h-1v-1z" fill="rgb(82,82,82)"/>
<path d="M45 56h1v1h-1v-1z" fill="rgb(82,82,82)"/>
<path d="M48 56h2v1h-1v1h-1v-2z" fill="rgb(16,16,16)"/>
<path d="M53 56h1v2h-1v-2z" fill="rgb(90,74,0)"/>
<path d="M23 57h1v2h-1v-2z" fill="rgb(82,82,82)"/>
<path d="M26 57h1v1h-1v-1z" fill="rgb(222,213,180)"/>
<path d="M29 57h1v4h-1v1h-2v-1h1v-1h1v-3z" fill="rgb(16,16,16)"/>
<path d="M34 57h1v1h-1v-1z" fill="rgb(90,74,0)"/>
<path d="M40 57h1v1h-1v-1z" fill="rgb(82,82,82)"/>
<path d="M44 57h1v1h-1v-1z" fill="rgb(139,139,139)"/>
<path d="M47 57h1v1h-1v-1z" fill="rgb(139,139,139)"/>
<path d="M64 57h1v1h-1v-1z" fill="rgb(74,57,16)"/>
<path d="M24 58h2v1h1v1h-2v-1h-1v-1z" fill="rgb(222,213,180)"/>
<path d="M26 58h1v1h-1v-1z" fill="rgb(82,82,82)"/>
<path d="M34 58h1v1h-1v-1z" fill="rgb(74,57,16)"/>
<path d="M39 58h1v1h-1v-1z" fill="rgb(82,82,82)"/>
<path d="M43 58h1v1h-1v-1z" fill="rgb(139,139,139)"/>
<path d="M46 58h2v1h-2v-1z" fill="rgb(16,16,16)"/>
<path d="M54 58h1v1h-1v-1z" fill="rgb(90,74,0)"/>
<path d="M63 58h1v2h-1v-2z" fill="rgb(16,16,16)"/>
<path d="M24 59h1v1h-1v-1z" fill="rgb(82,82,82)"/>
<path d="M27 59h1v1h-1v-1z" fill="rgb(82,82,82)"/>
<path d="M35 59h1v1h-1v-1z" fill="rgb(74,57,16)"/>
<path d="M38 59h1v2h-1v-2z" fill="rgb(82,82,82)"/>
<path d="M39 59h2v1h-2v-1z" fill="rgb(222,213,180)"/>
<path d="M41 59h2v1h-2v-1z" fill="rgb(139,139,139)"/>
<path d="M43 59h1v1h-1v-1z" fill="rgb(255,255,255)"/>
<path d="M44 59h1v1h-1v-1z" fill="rgb(139,139,139)"/>
<path d="M45 59h1v1h-1v-1z" fill="rgb(16,16,16)"/>
<path d="M52 59h1v1h-1v-1z" fill="rgb(90,74,0)"/>
<path d="M53 59h2v1h-2v-1z" fill="rgb(16,16,16)"/>
<path d="M25 60h2v1h-2v-1z" fill="rgb(82,82,82)"/>
<path d="M27 60h1v1h-1v-1z" fill="rgb(222,213,180)"/>
<path d="M36 60h1v1h3v1h-5v-1h1v-1z" fill="rgb(74,57,16)"/>
<path d="M39 60h5v1h-5v-1z" fill="rgb(16,16,16)"/>
<path d="M44 60h1v2h-1v-2z" fill="rgb(74,57,16)"/>
<path d="M46 60h2v1h-2v-1z" fill="rgb(90,74,0)"/>
<path d="M48 60h4v1h-4v-1z" fill="rgb(16,16,16)"/>
<path d="M55 60h2v1h-2v-1z" fill="rgb(16,16,16)"/>
<path d="M62 60h1v1h-1v-1z" fill="rgb(16,16,16)"/>
<path d="M40 61h4v1h1v2h-3v1h-2v1h-1v-2h-1v-1h-1v-1h3v-1z" fill="rgb(213,172,32)"/>
<path d="M57 61h1v3h-1v-3z" fill="rgb(16,16,16)"/>
<path d="M58 61h2v1h-2v-1z" fill="rgb(90,74,0)"/>
<path d="M63 61h1v1h-1v-1z" fill="rgb(16,16,16)"/>
<path d="M34 62h1v1h-1v-1z" fill="rgb(74,57,16)"/>
<path d="M35 62h1v1h-1v-1z" fill="rgb(222,213,180)"/>
<path d="M36 62h1v1h-1v-1z" fill="rgb(139,139,139)"/>
<path d="M45 62h1v2h-1v-2z" fill="rgb(16,16,16)"/>
<path d="M64 62h1v2h-1v-2z" fill="rgb(16,16,16)"/>
<path d="M33 63h1v1h-1v-1z" fill="rgb(74,57,16)"/>
<path d="M34 63h1v1h-1v-1z" fill="rgb(222,213,180)"/>
<path d="M35 63h1v1h-1v-1z" fill="rgb(139,139,139)"/>
<path d="M36 63h2v1h-2v-1z" fill="rgb(74,57,16)"/>
<path d="M32 64h1v1h-1v-1z" fill="rgb(74,57,16)"/>
<path d="M33 64h1v1h-1v-1z" fill="rgb(222,213,180)"/>
<path d="M34 64h1v1h-1v-1z" fill="rgb(139,139,139)"/>
<path d="M35 64h3v2h-2v1h-3v-1h1v-1h1v-1z" fill="rgb(222,213,180)"/>
<path d="M38 64h1v2h-1v-2z" fill="rgb(74,57,16)"/>
<path d="M42 64h1v1h-1v-1z" fill="rgb(74,57,16)"/>
<path d="M43 64h2v1h-2v-1z" fill="rgb(16,16,16)"/>
<path d="M56 64h1v3h-1v-3z" fill="rgb(74,57,16)"/>
<path d="M59 64h4v1h-2v1h-1v-1h-1v-1z" fill="rgb(246,213,32)"/>
<path d="M65 64h1v3h-1v-3z" fill="rgb(16,16,16)"/>
<path d="M31 65h1v1h-1v-1z" fill="rgb(74,57,16)"/>
<path d="M32 65h1v1h-1v-1z" fill="rgb(222,213,180)"/>
<path d="M33 65h1v1h-1v-1z" fill="rgb(139,139,139)"/>
<path d="M40 65h2v1h-2v-1z" fill="rgb(16,16,16)"/>
<path d="M58 65h2v1h-2v-1z" fill="rgb(82,82,82)"/>
<path d="M61 65h2v1h-2v-1z" fill="rgb(82,82,82)"/>
<path d="M31 66h2v1h-2v-1z" fill="rgb(16,16,16)"/>
<path d="M36 66h1v1h-1v-1z" fill="rgb(74,57,16)"/>
<path d="M37 66h3v1h-3v-1z" fill="rgb(16,16,16)"/>
<path d="M57 66h1v1h-1v-1z" fill="rgb(16,16,16)"/>
<path d="M58 66h1v1h-1v-1z" fill="rgb(222,213,180)"/>
<path d="M59 66h1v3h-2v-2h1v-1z" fill="rgb(255,255,255)"/>
<path d="M60 66h1v1h-1v-1z" fill="rgb(139,139,139)"/>
<path d="M61 66h2v1h1v1h-1v1h-1v1h-1v-4z" fill="rgb(255,255,255)"/>
<path d="M63 66h1v1h-1v-1z" fill="rgb(82,82,82)"/>
<path d="M33 67h3v1h-3v-1z" fill="rgb(16,16,16)"/>
<path d="M57 67h1v1h-1v-1z" fill="rgb(82,82,82)"/>
<path d="M60 67h1v1h-1v-1z" fill="rgb(82,82,82)"/>
<path d="M64 67h1v1h-1v-1z" fill="rgb(16,16,16)"/>
<path d="M57 68h1v1h-1v-1z" fill="rgb(16,16,16)"/>
<path d="M60 68h1v2h1v1h-3v-1h1v-2z" fill="rgb(16,16,16)"/>
<path d="M63 68h1v1h-1v-1z" fill="rgb(16,16,16)"/>
<path d="M58 69h1v1h-1v-1z" fill="rgb(16,16,16)"/>
<path d="M59 69h1v1h-1v-1z" fill="rgb(222,213,180)"/>
<path d="M62 69h1v1h-1v-1z" fill="rgb(16,16,16)"/>
</svg>
