<?xml version="1.0" encoding="utf-8"?>
<!-- generated at drububu.com  -->
<!DOCTYPE svg PUBLIC "-//W3C//DTD SVG 1.1//EN" "http://www.w3.org/Graphics/SVG/1.1/DTD/svg11.dtd">
<svg version="1.1" preserveAspectRatio="xMinYMin meet" xmlns="http://www.w3.org/2000/svg" xmlns:xlink="http://www.w3.org/1999/xlink" x="0px" y="0px" width="96px" height="96px" viewBox="0 0 96 96">
<path d="M0 0h96v96h-96v-96z" fill="transparent"/>
<path d="M44 34h2v2h1v1h-2v-2h-1v-1z" fill="rgb(65,65,131)"/>
<path d="M36 35h4v1h-4v-1z" fill="rgb(115,131,172)"/>
<path d="M40 35h2v1h-2v-1z" fill="rgb(65,65,131)"/>
<path d="M43 35h1v2h-2v-1h1v-1z" fill="rgb(65,65,131)"/>
<path d="M44 35h1v1h-1v-1z" fill="rgb(213,213,255)"/>
<path d="M47 35h3v1h-3v-1z" fill="rgb(65,65,131)"/>
<path d="M52 35h2v1h-2v-1z" fill="rgb(115,131,172)"/>
<path d="M54 35h4v1h-4v-1z" fill="rgb(65,65,131)"/>
<path d="M35 36h1v2h-1v-2z" fill="rgb(115,131,172)"/>
<path d="M36 36h1v2h-1v-2z" fill="rgb(172,172,205)"/>
<path d="M37 36h3v1h2v1h-1v1h-3v-1h1v-1h-2v-1z" fill="rgb(238,238,255)"/>
<path d="M40 36h1v1h-1v-1z" fill="rgb(213,213,255)"/>
<path d="M41 36h1v1h-1v-1z" fill="rgb(172,172,205)"/>
<path d="M44 36h1v1h-1v-1z" fill="rgb(172,172,205)"/>
<path d="M47 36h2v1h-2v-1z" fill="rgb(213,213,255)"/>
<path d="M49 36h1v1h-1v-1z" fill="rgb(172,172,205)"/>
<path d="M50 36h1v1h-1v-1z" fill="rgb(65,65,131)"/>
<path d="M51 36h1v1h-1v-1z" fill="rgb(115,131,172)"/>
<path d="M52 36h4v1h-1v1h-4v1h-1v1h-2v-1h1v-1h1v-1h2v-1z" fill="rgb(213,213,255)"/>
<path d="M56 36h2v1h-1v1h-2v-1h1v-1z" fill="rgb(172,172,205)"/>
<path d="M58 36h1v1h-1v-1z" fill="rgb(65,65,131)"/>
<path d="M37 37h1v1h-1v-1z" fill="rgb(115,131,172)"/>
<path d="M38 37h1v1h-1v-1z" fill="rgb(213,213,255)"/>
<path d="M42 37h2v1h-2v-1z" fill="rgb(213,213,255)"/>
<path d="M44 37h2v1h-2v-1z" fill="rgb(16,16,16)"/>
<path d="M46 37h3v1h-1v1h-1v-1h-1v-1z" fill="rgb(172,172,205)"/>
<path d="M49 37h1v1h-1v-1z" fill="rgb(65,65,131)"/>
<path d="M57 37h1v1h-1v-1z" fill="rgb(65,65,131)"/>
<path d="M34 38h1v2h-1v-2z" fill="rgb(115,131,172)"/>
<path d="M35 38h3v1h3v-1h1v2h1v1h4v-1h1v1h1v2h1v1h1v1h-2v-1h-3v-1h-3v1h3v1h-3v1h3v1h4v-1
	h1v1h1v1h2v1h2v1h1v1h1v4h-1v1h-1v1h-3v-1h-1v-2h-2v3h2v1h-1v1h-1v2h-1v-2h-2v1
	h-1v-3h-1v2h-3v-1h-1v-1h-1v3h-1v-6h-1v-1h3v-1h1v-2h-2v1h-2v-1h-1v-1h4v-6h-1v-1
	h-1v-1h-1v-1h-2v1h-1v-3z" fill="rgb(213,213,255)"/>
<path d="M42 38h2v1h-2v-1z" fill="rgb(189,49,74)"/>
<path d="M44 38h1v1h-1v-1z" fill="rgb(255,82,65)"/>
<path d="M45 38h1v1h-1v-1z" fill="rgb(255,255,255)"/>
<path d="M46 38h1v1h-1v-1z" fill="rgb(16,16,16)"/>
<path d="M48 38h1v1h-1v-1z" fill="rgb(65,65,131)"/>
<path d="M51 38h5v1h1v1h1v3h-1v1h-1v1h-5v-1h3v-1h1v-4h-4v-1z" fill="rgb(65,65,131)"/>
<path d="M56 38h1v1h-1v-1z" fill="rgb(213,213,255)"/>
<path d="M57 38h1v1h-1v-1z" fill="rgb(172,172,205)"/>
<path d="M58 38h1v1h-1v-1z" fill="rgb(65,65,131)"/>
<path d="M42 39h1v1h-1v-1z" fill="rgb(115,131,172)"/>
<path d="M43 39h1v1h-1v-1z" fill="rgb(255,255,255)"/>
<path d="M44 39h1v1h1v1h-2v-2z" fill="rgb(189,49,74)"/>
<path d="M45 39h1v1h-1v-1z" fill="rgb(255,82,65)"/>
<path d="M46 39h1v2h-1v-2z" fill="rgb(255,255,255)"/>
<path d="M47 39h1v1h-1v-1z" fill="rgb(16,16,16)"/>
<path d="M50 39h1v1h-1v-1z" fill="rgb(65,65,131)"/>
<path d="M51 39h3v1h1v2h-1v1h-3v-1h-1v-2h1v-1z" fill="rgb(24,156,148)"/>
<path d="M54 39h1v1h-1v-1z" fill="rgb(57,106,148)"/>
<path d="M57 39h1v1h-1v-1z" fill="rgb(213,213,255)"/>
<path d="M58 39h1v1h1v1h2v2h-3v1h-1v1h-1v1h-7v-1h6v-1h1v-1h1v-4z" fill="rgb(172,172,205)"/>
<path d="M59 39h1v1h-1v-1z" fill="rgb(65,65,131)"/>
<path d="M33 40h1v3h-1v-3z" fill="rgb(115,131,172)"/>
<path d="M34 40h1v1h-1v-1z" fill="rgb(172,172,205)"/>
<path d="M36 40h1v1h-1v-1z" fill="rgb(65,65,131)"/>
<path d="M37 40h1v1h-1v-1z" fill="rgb(115,131,172)"/>
<path d="M43 40h1v1h-1v-1z" fill="rgb(115,131,172)"/>
<path d="M48 40h1v1h-1v-1z" fill="rgb(115,131,172)"/>
<path d="M49 40h1v1h-1v-1z" fill="rgb(65,65,131)"/>
<path d="M60 40h2v1h-2v-1z" fill="rgb(65,65,131)"/>
<path d="M34 41h1v3h1v2h1v3h-1v-1h-1v-2h-1v-5z" fill="rgb(213,213,255)"/>
<path d="M35 41h1v1h-1v-1z" fill="rgb(65,65,131)"/>
<path d="M36 41h1v2h-1v-2z" fill="rgb(255,255,255)"/>
<path d="M37 41h1v2h-1v-2z" fill="rgb(222,222,222)"/>
<path d="M38 41h1v1h-1v-1z" fill="rgb(65,65,131)"/>
<path d="M49 41h1v1h1v1h3v1h-4v-1h-1v-2z" fill="rgb(57,106,148)"/>
<path d="M62 41h1v2h-1v-2z" fill="rgb(65,65,131)"/>
<path d="M35 42h1v2h-1v-2z" fill="rgb(115,131,172)"/>
<path d="M38 42h1v1h-1v-1z" fill="rgb(16,16,16)"/>
<path d="M39 42h1v1h-1v-1z" fill="rgb(65,65,131)"/>
<path d="M54 42h1v1h-1v-1z" fill="rgb(57,106,148)"/>
<path d="M33 43h1v3h-1v-3z" fill="rgb(16,16,16)"/>
<path d="M36 43h1v1h-1v-1z" fill="rgb(65,65,131)"/>
<path d="M37 43h1v1h-1v-1z" fill="rgb(16,16,16)"/>
<path d="M38 43h2v3h-3v-2h1v-1z" fill="rgb(189,49,74)"/>
<path d="M40 43h1v1h-1v-1z" fill="rgb(115,131,172)"/>
<path d="M43 43h1v1h-1v-1z" fill="rgb(172,172,205)"/>
<path d="M44 43h2v1h-2v-1z" fill="rgb(65,65,131)"/>
<path d="M59 43h3v1h-3v-1z" fill="rgb(16,16,16)"/>
<path d="M32 44h1v1h-1v-1z" fill="rgb(115,131,172)"/>
<path d="M36 44h1v1h-1v-1z" fill="rgb(16,16,16)"/>
<path d="M40 44h1v4h-1v-4z" fill="rgb(65,65,131)"/>
<path d="M46 44h1v1h-1v-1z" fill="rgb(65,65,131)"/>
<path d="M47 44h2v1h-2v-1z" fill="rgb(16,16,16)"/>
<path d="M58 44h1v1h-1v-1z" fill="rgb(16,16,16)"/>
<path d="M30 45h2v1h-2v-1z" fill="rgb(115,131,172)"/>
<path d="M32 45h1v1h-1v-1z" fill="rgb(213,213,255)"/>
<path d="M36 45h1v1h-1v-1z" fill="rgb(65,65,131)"/>
<path d="M43 45h1v1h-1v-1z" fill="rgb(65,65,131)"/>
<path d="M44 45h2v1h-2v-1z" fill="rgb(16,16,16)"/>
<path d="M46 45h3v1h-3v-1z" fill="rgb(213,213,255)"/>
<path d="M49 45h1v2h-3v-1h2v-1z" fill="rgb(16,16,16)"/>
<path d="M57 45h1v1h-1v-1z" fill="rgb(16,16,16)"/>
<path d="M29 46h1v1h-1v-1z" fill="rgb(115,131,172)"/>
<path d="M30 46h2v1h-2v-1z" fill="rgb(213,213,255)"/>
<path d="M32 46h2v1h-2v-1z" fill="rgb(65,65,131)"/>
<path d="M34 46h1v2h-1v-2z" fill="rgb(16,16,16)"/>
<path d="M37 46h1v2h-1v-2z" fill="rgb(65,65,131)"/>
<path d="M38 46h2v2h-2v-2z" fill="rgb(255,82,65)"/>
<path d="M46 46h1v1h-1v-1z" fill="rgb(65,65,131)"/>
<path d="M51 46h2v1h-2v-1z" fill="rgb(16,16,16)"/>
<path d="M53 46h4v1h-4v-1z" fill="rgb(65,65,131)"/>
<path d="M59 46h2v3h-1v-2h-1v-1z" fill="rgb(65,65,131)"/>
<path d="M29 47h3v1h-3v-1z" fill="rgb(65,65,131)"/>
<path d="M44 47h1v1h-1v-1z" fill="rgb(65,65,131)"/>
<path d="M52 47h1v1h-1v-1z" fill="rgb(172,172,205)"/>
<path d="M53 47h2v1h-2v-1z" fill="rgb(16,16,16)"/>
<path d="M55 47h2v1h-2v-1z" fill="transparent"/>
<path d="M57 47h2v1h-2v-1z" fill="rgb(65,65,131)"/>
<path d="M59 47h1v1h-1v-1z" fill="rgb(213,213,255)"/>
<path d="M33 48h2v1h-2v-1z" fill="rgb(115,131,172)"/>
<path d="M35 48h1v2h-1v-2z" fill="rgb(16,16,16)"/>
<path d="M37 48h1v1h-1v-1z" fill="rgb(172,172,205)"/>
<path d="M38 48h2v1h-2v-1z" fill="rgb(65,65,131)"/>
<path d="M40 48h1v1h-1v-1z" fill="rgb(172,172,205)"/>
<path d="M43 48h1v1h-1v-1z" fill="rgb(115,131,172)"/>
<path d="M44 48h1v1h-1v-1z" fill="rgb(213,213,255)"/>
<path d="M45 48h1v1h-1v-1z" fill="rgb(65,65,131)"/>
<path d="M54 48h1v1h-1v-1z" fill="rgb(115,131,172)"/>
<path d="M55 48h1v1h-1v-1z" fill="rgb(16,16,16)"/>
<path d="M56 48h1v1h-1v-1z" fill="rgb(65,65,131)"/>
<path d="M57 48h2v1h-2v-1z" fill="rgb(213,213,255)"/>
<path d="M59 48h1v1h-1v-1z" fill="rgb(172,172,205)"/>
<path d="M32 49h1v1h-1v-1z" fill="rgb(115,131,172)"/>
<path d="M33 49h1v1h-1v-1z" fill="rgb(213,213,255)"/>
<path d="M34 49h1v1h-1v-1z" fill="rgb(65,65,131)"/>
<path d="M36 49h1v1h-1v-1z" fill="rgb(172,172,205)"/>
<path d="M44 49h1v1h-1v-1z" fill="rgb(16,16,16)"/>
<path d="M45 49h1v1h-1v-1z" fill="rgb(213,213,255)"/>
<path d="M46 49h1v1h-1v-1z" fill="rgb(65,65,131)"/>
<path d="M56 49h1v1h-1v-1z" fill="rgb(16,16,16)"/>
<path d="M57 49h2v2h-1v-1h-1v-1z" fill="rgb(172,172,205)"/>
<path d="M59 49h1v2h-1v-2z" fill="rgb(65,65,131)"/>
<path d="M32 50h2v1h-2v-1z" fill="rgb(65,65,131)"/>
<path d="M36 50h1v1h-1v-1z" fill="rgb(16,16,16)"/>
<path d="M37 50h1v1h-1v-1z" fill="rgb(172,172,205)"/>
<path d="M40 50h2v2h-1v1h-3v-2h2v-1z" fill="rgb(172,172,205)"/>
<path d="M45 50h2v1h-2v-1z" fill="rgb(16,16,16)"/>
<path d="M54 50h1v1h-1v-1z" fill="rgb(115,131,172)"/>
<path d="M57 50h1v1h-1v-1z" fill="rgb(16,16,16)"/>
<path d="M37 51h1v2h-1v-2z" fill="rgb(16,16,16)"/>
<path d="M53 51h1v2h-1v-2z" fill="rgb(115,131,172)"/>
<path d="M54 51h2v2h-2v-2z" fill="rgb(65,65,131)"/>
<path d="M58 51h1v1h-1v-1z" fill="rgb(16,16,16)"/>
<path d="M56 52h1v1h-1v-1z" fill="rgb(115,131,172)"/>
<path d="M58 52h1v2h1v5h-1v2h-1v1h-1v1h-2v1h-3v-1h1v-5h-1v-2h1v1h3v-1h1v-1h1v-3z" fill="rgb(172,172,205)"/>
<path d="M59 52h1v2h-1v-2z" fill="rgb(16,16,16)"/>
<path d="M60 52h2v2h-1v-1h-1v-1z" fill="rgb(65,65,131)"/>
<path d="M37 53h1v1h-1v-1z" fill="rgb(65,65,131)"/>
<path d="M54 53h2v1h-2v-1z" fill="rgb(115,131,172)"/>
<path d="M60 53h1v1h-1v-1z" fill="rgb(172,172,205)"/>
<path d="M38 54h1v7h-1v-7z" fill="rgb(65,65,131)"/>
<path d="M50 54h2v1h-2v-1z" fill="rgb(115,131,172)"/>
<path d="M60 54h1v5h-1v-5z" fill="rgb(16,16,16)"/>
<path d="M50 55h2v2h-2v-2z" fill="rgb(65,65,131)"/>
<path d="M58 55h1v2h-1v-2z" fill="rgb(65,65,131)"/>
<path d="M40 57h1v1h-1v-1z" fill="rgb(172,172,205)"/>
<path d="M45 57h1v1h-1v-1z" fill="rgb(172,172,205)"/>
<path d="M58 57h1v1h-1v-1z" fill="rgb(115,131,172)"/>
<path d="M40 58h1v2h-1v-2z" fill="rgb(65,65,131)"/>
<path d="M41 58h1v1h3v3h-2v-1h-1v-1h-1v-2z" fill="rgb(172,172,205)"/>
<path d="M45 58h1v4h-1v-4z" fill="rgb(65,65,131)"/>
<path d="M51 58h1v5h-1v3h-1v-1h-3v-3h-1v-2h1v1h3v-2h1v-1z" fill="rgb(172,172,205)"/>
<path d="M52 58h1v1h-1v-1z" fill="rgb(115,131,172)"/>
<path d="M47 59h2v1h-2v-1z" fill="rgb(115,131,172)"/>
<path d="M52 59h1v1h-1v-1z" fill="rgb(65,65,131)"/>
<path d="M56 59h1v1h-1v-1z" fill="rgb(115,131,172)"/>
<path d="M59 59h1v2h-1v-2z" fill="rgb(16,16,16)"/>
<path d="M39 60h2v1h1v1h1v3h-1v-1h-2v-3h-1v-1z" fill="rgb(172,172,205)"/>
<path d="M41 60h1v1h-1v-1z" fill="rgb(16,16,16)"/>
<path d="M47 60h2v1h-2v-1z" fill="rgb(65,65,131)"/>
<path d="M52 60h1v3h-1v-3z" fill="rgb(16,16,16)"/>
<path d="M55 60h2v1h-1v1h-1v-2z" fill="rgb(65,65,131)"/>
<path d="M39 61h1v4h-1v-4z" fill="rgb(65,65,131)"/>
<path d="M42 61h1v1h-1v-1z" fill="rgb(16,16,16)"/>
<path d="M54 61h1v1h-1v-1z" fill="rgb(115,131,172)"/>
<path d="M58 61h1v1h-1v-1z" fill="rgb(16,16,16)"/>
<path d="M43 62h2v1h-1v3h-1v-4z" fill="rgb(16,16,16)"/>
<path d="M45 62h1v1h-1v-1z" fill="rgb(172,172,205)"/>
<path d="M46 62h1v1h-1v-1z" fill="rgb(65,65,131)"/>
<path d="M57 62h1v1h-1v-1z" fill="rgb(16,16,16)"/>
<path d="M58 62h1v3h-2v-2h1v-1z" fill="rgb(172,172,205)"/>
<path d="M59 62h1v3h-1v-3z" fill="rgb(16,16,16)"/>
<path d="M45 63h2v4h-1v-3h-1v-1z" fill="rgb(16,16,16)"/>
<path d="M51 63h1v1h3v1h-1v1h-1v-1h-1v2h-1v-4z" fill="rgb(16,16,16)"/>
<path d="M55 63h2v1h-2v-1z" fill="rgb(16,16,16)"/>
<path d="M40 64h2v1h-1v1h-1v-2z" fill="rgb(115,131,172)"/>
<path d="M45 64h1v1h-1v-1z" fill="rgb(65,65,131)"/>
<path d="M55 64h2v1h-1v1h-1v-2z" fill="rgb(115,131,172)"/>
<path d="M38 65h1v1h-1v-1z" fill="rgb(65,65,131)"/>
<path d="M39 65h1v1h-1v-1z" fill="rgb(255,255,255)"/>
<path d="M41 65h1v1h-1v-1z" fill="rgb(255,255,255)"/>
<path d="M42 65h1v1h-1v-1z" fill="rgb(115,131,172)"/>
<path d="M47 65h3v1h-1v1h-1v-1h-1v-1z" fill="rgb(115,131,172)"/>
<path d="M54 65h1v1h-1v-1z" fill="rgb(255,255,255)"/>
<path d="M56 65h1v1h-1v-1z" fill="rgb(255,255,255)"/>
<path d="M57 65h1v1h-1v-1z" fill="rgb(115,131,172)"/>
<path d="M58 65h1v1h-1v-1z" fill="rgb(16,16,16)"/>
<path d="M39 66h4v1h-4v-1z" fill="rgb(16,16,16)"/>
<path d="M47 66h1v1h-1v-1z" fill="rgb(255,255,255)"/>
<path d="M49 66h1v1h-1v-1z" fill="rgb(255,255,255)"/>
<path d="M50 66h1v1h-1v-1z" fill="rgb(115,131,172)"/>
<path d="M54 66h4v1h-4v-1z" fill="rgb(16,16,16)"/>
<path d="M47 67h4v1h-4v-1z" fill="rgb(16,16,16)"/>
</svg>
