<?xml version="1.0" encoding="utf-8"?>
<!-- generated at drububu.com  -->
<!DOCTYPE svg PUBLIC "-//W3C//DTD SVG 1.1//EN" "http://www.w3.org/Graphics/SVG/1.1/DTD/svg11.dtd">
<svg version="1.1" preserveAspectRatio="xMinYMin meet" xmlns="http://www.w3.org/2000/svg" xmlns:xlink="http://www.w3.org/1999/xlink" x="0px" y="0px" width="96px" height="96px" viewBox="0 0 96 96">
<path d="M0 0h96v96h-96v-96z" fill="transparent"/>
<path d="M33 12h4v1h-4v-1z" fill="rgb(131,49,0)"/>
<path d="M56 12h4v1h-4v-1z" fill="rgb(131,49,0)"/>
<path d="M30 13h3v1h-3v-1z" fill="rgb(131,49,0)"/>
<path d="M33 13h3v3h-3v-3z" fill="rgb(255,189,189)"/>
<path d="M36 13h1v1h3v1h-3v1h-1v-3z" fill="rgb(255,123,115)"/>
<path d="M37 13h3v1h-3v-1z" fill="rgb(131,49,0)"/>
<path d="M44 13h1v1h-1v-1z" fill="rgb(131,49,0)"/>
<path d="M48 13h1v1h-1v-1z" fill="rgb(131,49,0)"/>
<path d="M54 13h2v1h-2v-1z" fill="rgb(131,49,0)"/>
<path d="M56 13h4v1h4v1h2v1h2v1h1v1h1v2h-1v-1h-2v-2h-3v1h-2v-1h-1v-1h-1v-1h-1v1h-1v-1h-1
	v1h-1v-1h-2v-1h2v-1z" fill="rgb(255,123,115)"/>
<path d="M60 13h4v1h-4v-1z" fill="rgb(131,49,0)"/>
<path d="M28 14h2v1h-2v-1z" fill="rgb(131,49,0)"/>
<path d="M30 14h3v3h-1v1h-7v-1h1v-1h2v-1h2v-1z" fill="rgb(255,123,115)"/>
<path d="M40 14h1v1h-1v-1z" fill="rgb(131,49,0)"/>
<path d="M43 14h1v1h-1v-1z" fill="rgb(131,49,0)"/>
<path d="M44 14h1v1h1v1h1v-1h1v-1h1v1h1v1h2v-1h1v2h-1v1h-1v1h-1v-1h-1v-1h-1v1h-1v1h-1v-1
	h-1v-1h-1v1h-1v1h-1v-1h-1v-1h-1v-2h1v1h2v-1h1v-1z" fill="rgb(222,189,41)"/>
<path d="M45 14h1v1h-1v-1z" fill="rgb(131,49,0)"/>
<path d="M47 14h1v1h-1v-1z" fill="rgb(131,49,0)"/>
<path d="M49 14h1v1h-1v-1z" fill="rgb(131,49,0)"/>
<path d="M52 14h2v2h-1v-1h-1v-1z" fill="rgb(131,49,0)"/>
<path d="M64 14h2v1h-2v-1z" fill="rgb(131,49,0)"/>
<path d="M26 15h2v1h-2v-1z" fill="rgb(131,49,0)"/>
<path d="M37 15h2v1h-1v3h-1v-2h-2v-1h2v-1z" fill="rgb(222,65,65)"/>
<path d="M39 15h1v1h-1v-1z" fill="rgb(131,49,0)"/>
<path d="M41 15h1v1h-1v-1z" fill="rgb(131,49,0)"/>
<path d="M42 15h1v1h-1v-1z" fill="rgb(189,106,49)"/>
<path d="M46 15h1v1h-1v-1z" fill="rgb(189,106,49)"/>
<path d="M50 15h1v1h-1v-1z" fill="rgb(189,106,49)"/>
<path d="M51 15h1v1h-1v-1z" fill="rgb(131,49,0)"/>
<path d="M54 15h2v1h1v1h1v1h-4v-3z" fill="rgb(222,65,65)"/>
<path d="M57 15h1v1h-1v-1z" fill="rgb(222,65,65)"/>
<path d="M59 15h1v1h-1v-1z" fill="rgb(222,65,65)"/>
<path d="M66 15h2v1h-2v-1z" fill="rgb(131,49,0)"/>
<path d="M25 16h1v1h-1v-1z" fill="rgb(131,49,0)"/>
<path d="M33 16h1v1h-1v-1z" fill="rgb(222,65,65)"/>
<path d="M34 16h1v1h-1v-1z" fill="rgb(255,123,115)"/>
<path d="M38 16h1v3h-1v-3z" fill="rgb(189,106,49)"/>
<path d="M39 16h1v1h-1v-1z" fill="rgb(16,16,16)"/>
<path d="M53 16h1v1h-1v-1z" fill="rgb(16,16,16)"/>
<path d="M57 16h1v1h-1v-1z" fill="rgb(255,123,115)"/>
<path d="M58 16h3v2h-3v-2z" fill="rgb(255,189,189)"/>
<path d="M68 16h1v1h-1v-1z" fill="rgb(131,49,0)"/>
<path d="M24 17h1v1h-1v-1z" fill="rgb(131,49,0)"/>
<path d="M32 17h1v1h-1v-1z" fill="rgb(222,65,65)"/>
<path d="M33 17h1v1h-1v-1z" fill="rgb(255,123,115)"/>
<path d="M34 17h1v1h-1v-1z" fill="rgb(222,65,65)"/>
<path d="M35 17h2v2h-2v-2z" fill="rgb(255,189,189)"/>
<path d="M39 17h1v1h1v2h2v-1h1v-1h1v1h1v2h1v-2h1v-1h1v1h1v2h1v-1h1v-2h1v-1h1v2h-1v2h-1v1
	h-3v1h-5v-1h-3v-1h-1v-2h-1v-2z" fill="rgb(255,238,82)"/>
<path d="M40 17h1v1h-1v-1z" fill="rgb(16,16,16)"/>
<path d="M44 17h1v1h-1v-1z" fill="rgb(16,16,16)"/>
<path d="M48 17h1v1h-1v-1z" fill="rgb(16,16,16)"/>
<path d="M52 17h1v1h-1v-1z" fill="rgb(16,16,16)"/>
<path d="M61 17h1v1h-1v-1z" fill="rgb(222,65,65)"/>
<path d="M64 17h3v2h-3v-2z" fill="rgb(255,189,189)"/>
<path d="M69 17h1v1h-1v-1z" fill="rgb(131,49,0)"/>
<path d="M23 18h1v1h1v1h-3v-1h1v-1z" fill="rgb(131,49,0)"/>
<path d="M24 18h1v1h-1v-1z" fill="rgb(255,123,115)"/>
<path d="M25 18h9v1h-9v-1z" fill="rgb(131,49,0)"/>
<path d="M34 18h1v1h-1v-1z" fill="rgb(255,123,115)"/>
<path d="M41 18h1v1h-1v-1z" fill="rgb(16,16,16)"/>
<path d="M43 18h1v1h-1v-1z" fill="rgb(16,16,16)"/>
<path d="M45 18h1v1h-1v-1z" fill="rgb(16,16,16)"/>
<path d="M47 18h1v1h-1v-1z" fill="rgb(16,16,16)"/>
<path d="M49 18h1v1h-1v-1z" fill="rgb(16,16,16)"/>
<path d="M51 18h1v1h-1v-1z" fill="rgb(16,16,16)"/>
<path d="M54 18h10v1h-10v-1z" fill="rgb(131,49,0)"/>
<path d="M70 18h1v2h1v1h-3v-1h1v-2z" fill="rgb(131,49,0)"/>
<path d="M25 19h7v2h-2v1h-3v-1h-2v-2z" fill="rgb(255,189,189)"/>
<path d="M32 19h1v1h1v1h1v1h-2v1h-3v1h-5v-1h-2v1h-2v1h-2v-1h1v-1h1v-1h-1v-1h2v-1h3v1h2v1
	h3v-1h2v-2z" fill="rgb(255,123,115)"/>
<path d="M33 19h1v1h-1v-1z" fill="rgb(222,65,65)"/>
<path d="M34 19h5v1h-5v-1z" fill="rgb(131,49,0)"/>
<path d="M39 19h1v2h-1v-2z" fill="rgb(189,106,49)"/>
<path d="M41 19h1v1h-1v-1z" fill="rgb(189,106,49)"/>
<path d="M42 19h1v1h-1v-1z" fill="rgb(131,49,0)"/>
<path d="M46 19h1v1h-1v-1z" fill="rgb(131,49,0)"/>
<path d="M50 19h1v1h-1v-1z" fill="rgb(131,49,0)"/>
<path d="M51 19h1v1h-1v-1z" fill="rgb(189,106,49)"/>
<path d="M53 19h1v2h1v1h-3v-1h1v-2z" fill="rgb(16,16,16)"/>
<path d="M54 19h3v1h1v1h-1v1h-2v-1h-1v-2z" fill="rgb(222,65,65)"/>
<path d="M57 19h3v2h-2v-1h-1v-1z" fill="rgb(255,189,189)"/>
<path d="M60 19h4v1h5v1h-1v3h3v1h2v1h1v1h-1v1h-1v-1h-2v-1h-2v-1h-4v-1h-2v-1h-3v-1h-2v-1
	h3v-2z" fill="rgb(255,123,115)"/>
<path d="M64 19h5v1h-5v-1z" fill="rgb(131,49,0)"/>
<path d="M20 20h2v1h-2v-1z" fill="rgb(131,49,0)"/>
<path d="M34 20h5v1h-2v1h-2v-1h-1v-1z" fill="rgb(222,65,65)"/>
<path d="M46 20h1v1h-1v-1z" fill="rgb(189,106,49)"/>
<path d="M50 20h1v1h-1v-1z" fill="rgb(189,106,49)"/>
<path d="M19 21h1v1h-1v-1z" fill="rgb(131,49,0)"/>
<path d="M37 21h4v1h-4v-1z" fill="rgb(131,49,0)"/>
<path d="M68 21h4v1h2v3h-3v-1h-3v-3z" fill="rgb(255,189,189)"/>
<path d="M72 21h2v1h-2v-1z" fill="rgb(131,49,0)"/>
<path d="M18 22h1v1h-1v-1z" fill="rgb(131,49,0)"/>
<path d="M19 22h1v1h-1v-1z" fill="rgb(255,123,115)"/>
<path d="M20 22h1v1h-1v-1z" fill="rgb(222,65,65)"/>
<path d="M33 22h4v1h-4v-1z" fill="rgb(131,49,0)"/>
<path d="M37 22h4v1h3v1h1v1h-1v1h-2v-2h-3v3h1v1h-1v1h-1v1h-1v1h-2v-1h-1v1h-1v1h-1v-1h-1
	v-1h-1v-1h-1v-1h-1v-1h-1v-1h1v-1h2v-1h3v-1h4v-1z" fill="rgb(255,123,115)"/>
<path d="M41 22h3v1h-3v-1z" fill="rgb(131,49,0)"/>
<path d="M49 22h3v1h-3v-1z" fill="rgb(131,49,0)"/>
<path d="M52 22h3v1h3v1h-1v2h3v-2h2v1h2v1h2v1h2v1h1v1h1v1h-2v-1h-1v1h1v1h-1v1h-1v-1h-2
	v-2h-4v2h-2v2h-2v-2h-1v-2h-1v-1h-1v-1h-1v-1h-2v-1h-2v-1h1v-1h3v-1z" fill="rgb(255,123,115)"/>
<path d="M55 22h4v1h-4v-1z" fill="rgb(16,16,16)"/>
<path d="M74 22h2v1h-2v-1z" fill="rgb(131,49,0)"/>
<path d="M17 23h1v2h-1v-2z" fill="rgb(131,49,0)"/>
<path d="M18 23h2v1h-1v1h2v1h1v1h-1v2h-1v3h-1v-1h-1v-3h-1v1h-1v-2h1v-2h1v-2z" fill="rgb(222,65,65)"/>
<path d="M23 23h2v2h-2v1h-2v-2h2v-1z" fill="rgb(255,189,189)"/>
<path d="M30 23h3v1h-3v-1z" fill="rgb(131,49,0)"/>
<path d="M44 23h2v1h-2v-1z" fill="rgb(131,49,0)"/>
<path d="M46 23h1v1h-1v-1z" fill="rgb(189,106,49)"/>
<path d="M47 23h2v1h-2v-1z" fill="rgb(131,49,0)"/>
<path d="M58 23h1v1h1v2h-3v-2h1v-1z" fill="rgb(255,189,189)"/>
<path d="M59 23h3v1h-3v-1z" fill="rgb(16,16,16)"/>
<path d="M74 23h2v1h1v2h-1v-1h-1v-1h-1v-1z" fill="rgb(255,123,115)"/>
<path d="M76 23h1v1h-1v-1z" fill="rgb(131,49,0)"/>
<path d="M25 24h3v1h-3v-1z" fill="rgb(16,16,16)"/>
<path d="M28 24h2v1h-2v-1z" fill="rgb(131,49,0)"/>
<path d="M39 24h3v3h-3v-3z" fill="rgb(255,189,189)"/>
<path d="M45 24h1v1h-1v-1z" fill="rgb(16,16,16)"/>
<path d="M46 24h1v1h1v1h2v1h1v1h-1v1h-1v1h-1v-1h-1v-1h-1v1h-1v1h-1v-1h-2v1h-1v-2h1v-1h2
	v-1h1v-1h1v-1z" fill="rgb(131,49,0)"/>
<path d="M47 24h1v1h-1v-1z" fill="rgb(222,65,65)"/>
<path d="M62 24h2v1h-2v-1z" fill="rgb(16,16,16)"/>
<path d="M74 24h1v1h-1v-1z" fill="rgb(222,65,65)"/>
<path d="M77 24h1v1h-1v-1z" fill="rgb(16,16,16)"/>
<path d="M16 25h1v2h-1v-2z" fill="rgb(131,49,0)"/>
<path d="M23 25h2v1h-2v-1z" fill="rgb(16,16,16)"/>
<path d="M25 25h1v1h-1v-1z" fill="transparent"/>
<path d="M26 25h2v1h-2v-1z" fill="rgb(131,49,0)"/>
<path d="M33 25h4v3h-1v1h-4v-3h1v-1z" fill="rgb(255,189,189)"/>
<path d="M44 25h1v1h-1v-1z" fill="rgb(16,16,16)"/>
<path d="M48 25h2v1h-2v-1z" fill="rgb(222,65,65)"/>
<path d="M64 25h2v1h-2v-1z" fill="rgb(16,16,16)"/>
<path d="M66 25h2v1h-2v-1z" fill="rgb(222,65,65)"/>
<path d="M73 25h1v1h-1v-1z" fill="rgb(222,65,65)"/>
<path d="M74 25h1v1h-1v-1z" fill="rgb(255,123,115)"/>
<path d="M75 25h1v1h-1v-1z" fill="rgb(222,65,65)"/>
<path d="M77 25h1v2h1v3h-1v-1h-1v-1h-1v1h1v3h-2v-1h-1v-2h1v-2h1v-1h1v-1z" fill="rgb(222,65,65)"/>
<path d="M78 25h1v2h-1v-2z" fill="rgb(16,16,16)"/>
<path d="M22 26h1v1h-1v-1z" fill="rgb(16,16,16)"/>
<path d="M23 26h2v1h-1v1h-1v2h-1v3h-1v-4h1v-2h1v-1z" fill="transparent"/>
<path d="M25 26h1v1h-1v-1z" fill="rgb(131,49,0)"/>
<path d="M26 26h1v1h-1v-1z" fill="rgb(222,65,65)"/>
<path d="M42 26h2v1h-2v-1z" fill="rgb(16,16,16)"/>
<path d="M50 26h2v1h-2v-1z" fill="rgb(222,65,65)"/>
<path d="M66 26h2v1h-2v-1z" fill="rgb(16,16,16)"/>
<path d="M68 26h2v1h-2v-1z" fill="rgb(222,65,65)"/>
<path d="M74 26h1v1h-1v-1z" fill="rgb(222,65,65)"/>
<path d="M75 26h1v1h-1v-1z" fill="rgb(255,123,115)"/>
<path d="M15 27h1v1h-1v-1z" fill="rgb(131,49,0)"/>
<path d="M21 27h1v2h-1v-2z" fill="rgb(16,16,16)"/>
<path d="M24 27h1v1h-1v-1z" fill="rgb(131,49,0)"/>
<path d="M25 27h1v1h1v-1h1v1h1v1h-1v1h-1v1h-1v1h1v-1h1v1h1v-1h1v-1h1v1h1v1h-1v1h1v-1h1v1
	h1v-1h1v4h-1v3h-3v-3h-1v1h-1v1h-2v-2h-1v-1h-1v1h-2v-1h-1v-2h1v-3h1v-2h1v-1z" fill="rgb(222,65,65)"/>
<path d="M26 27h1v1h-1v-1z" fill="rgb(255,123,115)"/>
<path d="M40 27h2v1h-1v2h-1v-1h-1v-1h1v-1z" fill="rgb(16,16,16)"/>
<path d="M51 27h1v1h1v2h-1v-1h-2v-1h1v-1z" fill="rgb(16,16,16)"/>
<path d="M52 27h1v1h-1v-1z" fill="rgb(222,65,65)"/>
<path d="M68 27h1v1h-1v-1z" fill="rgb(16,16,16)"/>
<path d="M69 27h1v1h-1v-1z" fill="transparent"/>
<path d="M70 27h2v1h-2v-1z" fill="rgb(222,65,65)"/>
<path d="M73 27h2v2h-2v-2z" fill="rgb(255,189,189)"/>
<path d="M79 27h1v3h-1v-3z" fill="rgb(16,16,16)"/>
<path d="M15 28h1v1h-1v-1z" fill="rgb(16,16,16)"/>
<path d="M17 28h1v3h-1v-3z" fill="rgb(131,49,0)"/>
<path d="M23 28h1v2h-1v-2z" fill="rgb(131,49,0)"/>
<path d="M46 28h1v1h-1v-1z" fill="rgb(16,16,16)"/>
<path d="M53 28h1v1h-1v-1z" fill="rgb(222,65,65)"/>
<path d="M69 28h1v1h-1v-1z" fill="rgb(16,16,16)"/>
<path d="M70 28h2v1h1v2h-1v-1h-1v-1h-1v-1z" fill="transparent"/>
<path d="M72 28h1v1h-1v-1z" fill="rgb(222,65,65)"/>
<path d="M76 28h1v1h-1v-1z" fill="rgb(131,49,0)"/>
<path d="M16 29h1v2h-1v-2z" fill="rgb(16,16,16)"/>
<path d="M20 29h1v4h-2v-1h1v-3z" fill="rgb(16,16,16)"/>
<path d="M28 29h1v1h-1v-1z" fill="rgb(255,123,115)"/>
<path d="M29 29h1v1h-1v-1z" fill="rgb(222,65,65)"/>
<path d="M38 29h1v1h-1v-1z" fill="rgb(16,16,16)"/>
<path d="M39 29h1v1h-1v-1z" fill="transparent"/>
<path d="M42 29h2v1h-2v-1z" fill="rgb(16,16,16)"/>
<path d="M45 29h1v1h-1v-1z" fill="rgb(16,16,16)"/>
<path d="M46 29h1v1h1v1h2v1h-1v1h-2v1h-1v-1h-1v-1h-1v1h-2v-1h1v-2h1v1h1v-1h1v-1z" fill="rgb(189,106,49)"/>
<path d="M47 29h1v1h-1v-1z" fill="rgb(16,16,16)"/>
<path d="M49 29h1v1h-1v-1z" fill="rgb(16,16,16)"/>
<path d="M50 29h2v1h1v3h-2v-1h-1v-1h-1v-1h1v-1z" fill="rgb(131,49,0)"/>
<path d="M53 29h1v1h-1v-1z" fill="transparent"/>
<path d="M54 29h1v2h-1v-2z" fill="rgb(222,65,65)"/>
<path d="M60 29h4v2h-1v1h-1v2h-4v-3h2v-2z" fill="rgb(255,189,189)"/>
<path d="M67 29h1v1h-1v-1z" fill="rgb(222,65,65)"/>
<path d="M70 29h1v1h-1v-1z" fill="rgb(16,16,16)"/>
<path d="M73 29h1v2h-1v-2z" fill="rgb(131,49,0)"/>
<path d="M77 29h1v2h-1v-2z" fill="rgb(131,49,0)"/>
<path d="M22 30h1v3h-1v-3z" fill="rgb(131,49,0)"/>
<path d="M27 30h1v1h-1v-1z" fill="rgb(255,123,115)"/>
<path d="M28 30h1v1h-1v-1z" fill="rgb(222,65,65)"/>
<path d="M29 30h1v1h-1v-1z" fill="rgb(255,123,115)"/>
<path d="M34 30h1v1h-1v-1z" fill="rgb(222,65,65)"/>
<path d="M37 30h1v1h-1v-1z" fill="rgb(16,16,16)"/>
<path d="M38 30h1v5h-3v-2h1v-2h1v-1z" fill="transparent"/>
<path d="M39 30h1v3h1v1h-1v2h-1v-6z" fill="rgb(16,16,16)"/>
<path d="M40 30h1v1h1v-1h1v2h-2v1h-1v-3z" fill="rgb(131,49,0)"/>
<path d="M41 30h1v1h-1v-1z" fill="rgb(16,16,16)"/>
<path d="M44 30h1v1h-1v-1z" fill="rgb(16,16,16)"/>
<path d="M48 30h1v1h-1v-1z" fill="rgb(16,16,16)"/>
<path d="M53 30h1v5h-1v-1h-2v-1h2v-3z" fill="rgb(16,16,16)"/>
<path d="M68 30h3v1h1v1h-3v-1h-1v-1z" fill="rgb(222,65,65)"/>
<path d="M71 30h1v1h-1v-1z" fill="rgb(16,16,16)"/>
<path d="M78 30h1v1h-1v-1z" fill="rgb(16,16,16)"/>
<path d="M17 31h2v1h-2v-1z" fill="rgb(16,16,16)"/>
<path d="M26 31h1v1h-1v-1z" fill="rgb(255,123,115)"/>
<path d="M28 31h1v1h-1v-1z" fill="rgb(255,123,115)"/>
<path d="M33 31h1v1h-1v-1z" fill="rgb(222,65,65)"/>
<path d="M34 31h1v1h-1v-1z" fill="rgb(255,123,115)"/>
<path d="M35 31h1v1h-1v-1z" fill="rgb(222,65,65)"/>
<path d="M36 31h1v2h-1v-2z" fill="rgb(16,16,16)"/>
<path d="M54 31h1v2h1v1h-1v1h-1v-4z" fill="transparent"/>
<path d="M55 31h1v2h-1v-2z" fill="rgb(222,65,65)"/>
<path d="M63 31h1v1h-1v-1z" fill="rgb(255,123,115)"/>
<path d="M64 31h2v1h1v1h1v3h2v1h-3v1h-2v-1h-1v-1h-1v3h-5v-3h-1v-3h1v1h3v1h1v-2h1v1h1v-1
	h1v-1h-1v-1z" fill="rgb(222,65,65)"/>
<path d="M67 31h1v1h-1v-1z" fill="rgb(222,65,65)"/>
<path d="M68 31h1v1h-1v-1z" fill="rgb(255,123,115)"/>
<path d="M72 31h1v2h-1v-2z" fill="rgb(16,16,16)"/>
<path d="M74 31h1v1h-1v-1z" fill="rgb(131,49,0)"/>
<path d="M77 31h1v1h-1v-1z" fill="rgb(16,16,16)"/>
<path d="M31 32h1v1h-1v-1z" fill="rgb(255,123,115)"/>
<path d="M33 32h1v1h-1v-1z" fill="rgb(255,123,115)"/>
<path d="M35 32h1v1h-1v-1z" fill="rgb(255,123,115)"/>
<path d="M41 32h1v1h-1v-1z" fill="rgb(16,16,16)"/>
<path d="M44 32h1v1h-1v-1z" fill="rgb(131,49,0)"/>
<path d="M49 32h1v1h-1v-1z" fill="rgb(131,49,0)"/>
<path d="M50 32h1v1h-1v-1z" fill="rgb(189,106,49)"/>
<path d="M62 32h1v1h-1v-1z" fill="rgb(255,123,115)"/>
<path d="M63 32h1v1h-1v-1z" fill="rgb(222,65,65)"/>
<path d="M64 32h1v1h-1v-1z" fill="rgb(255,123,115)"/>
<path d="M67 32h1v1h-1v-1z" fill="rgb(255,123,115)"/>
<path d="M68 32h4v1h1v2h-1v-1h-1v1h-1v1h-2v-4z" fill="rgb(255,189,189)"/>
<path d="M75 32h2v1h-2v-1z" fill="rgb(16,16,16)"/>
<path d="M21 33h1v2h-1v-2z" fill="rgb(131,49,0)"/>
<path d="M35 33h1v3h-1v-3z" fill="rgb(16,16,16)"/>
<path d="M41 33h1v2h-1v1h-1v-2h1v-1z" fill="rgb(131,49,0)"/>
<path d="M42 33h1v1h-1v-1z" fill="rgb(16,16,16)"/>
<path d="M43 33h1v1h-1v-1z" fill="rgb(131,49,0)"/>
<path d="M44 33h1v1h1v1h1v-1h2v-1h1v1h2v2h-1v1h-1v-1h-1v1h-1v-1h-1v1h-3v-1h-1v1h-2v-2h1
	v-1h2v-1z" fill="rgb(189,106,49)"/>
<path d="M45 33h1v1h-1v-1z" fill="rgb(131,49,0)"/>
<path d="M47 33h2v1h-2v-1z" fill="rgb(131,49,0)"/>
<path d="M50 33h1v1h-1v-1z" fill="rgb(131,49,0)"/>
<path d="M56 33h1v3h-1v-3z" fill="rgb(131,49,0)"/>
<path d="M63 33h1v1h-1v-1z" fill="rgb(255,123,115)"/>
<path d="M65 33h1v1h-1v-1z" fill="rgb(255,123,115)"/>
<path d="M73 33h1v3h-2v-1h1v-2z" fill="rgb(16,16,16)"/>
<path d="M46 34h1v1h-1v-1z" fill="rgb(131,49,0)"/>
<path d="M52 34h1v1h-1v-1z" fill="rgb(131,49,0)"/>
<path d="M55 34h1v1h-1v-1z" fill="rgb(16,82,65)"/>
<path d="M61 34h1v1h-1v-1z" fill="rgb(255,123,115)"/>
<path d="M71 34h1v1h-1v-1z" fill="rgb(131,49,0)"/>
<path d="M21 35h2v1h-2v-1z" fill="rgb(16,16,16)"/>
<path d="M25 35h1v1h-1v-1z" fill="rgb(131,49,0)"/>
<path d="M36 35h3v1h-3v-1z" fill="rgb(16,82,65)"/>
<path d="M52 35h3v1h2v1h-3v-1h-2v-1z" fill="rgb(16,82,65)"/>
<path d="M55 35h1v1h-1v-1z" fill="rgb(90,156,57)"/>
<path d="M70 35h1v2h-1v-2z" fill="rgb(16,16,16)"/>
<path d="M23 36h2v1h-2v-1z" fill="rgb(16,16,16)"/>
<path d="M25 36h1v1h-1v-1z" fill="rgb(16,82,65)"/>
<path d="M26 36h1v2h-1v-2z" fill="rgb(16,16,16)"/>
<path d="M30 36h1v3h3v1h-4v-4z" fill="rgb(16,16,16)"/>
<path d="M34 36h1v3h-1v-3z" fill="rgb(16,16,16)"/>
<path d="M35 36h4v1h-1v1h-3v-2z" fill="rgb(90,156,57)"/>
<path d="M39 36h1v1h-1v-1z" fill="rgb(16,123,106)"/>
<path d="M40 36h1v2h-1v-2z" fill="rgb(16,16,16)"/>
<path d="M43 36h1v1h-1v-1z" fill="rgb(131,49,0)"/>
<path d="M47 36h1v1h-1v-1z" fill="rgb(131,49,0)"/>
<path d="M49 36h1v1h-1v-1z" fill="rgb(131,49,0)"/>
<path d="M51 36h1v1h1v1h-1v2h1v3h-1v-2h-3v-1h2v-1h-3v-1h2v-1h1v-1z" fill="rgb(16,82,65)"/>
<path d="M52 36h2v1h3v1h-4v-1h-1v-1z" fill="rgb(90,156,57)"/>
<path d="M57 36h1v4h-1v-4z" fill="rgb(131,49,0)"/>
<path d="M63 36h1v3h-1v-3z" fill="rgb(16,16,16)"/>
<path d="M21 37h4v1h-4v-1z" fill="rgb(16,82,65)"/>
<path d="M25 37h1v1h1v1h-4v1h-3v-1h1v-1h4v-1z" fill="rgb(90,156,57)"/>
<path d="M29 37h1v1h-1v-1z" fill="rgb(131,49,0)"/>
<path d="M38 37h2v1h-2v-1z" fill="rgb(16,82,65)"/>
<path d="M41 37h2v1h-2v-1z" fill="rgb(131,49,0)"/>
<path d="M43 37h1v1h-1v-1z" fill="rgb(189,106,49)"/>
<path d="M44 37h3v1h-3v-1z" fill="rgb(131,49,0)"/>
<path d="M47 37h1v2h-2v-1h1v-1z" fill="rgb(189,106,49)"/>
<path d="M48 37h1v1h-1v-1z" fill="rgb(131,49,0)"/>
<path d="M49 37h1v1h-1v-1z" fill="rgb(189,106,49)"/>
<path d="M64 37h1v1h-1v-1z" fill="rgb(131,49,0)"/>
<path d="M67 37h3v1h-3v-1z" fill="rgb(16,16,16)"/>
<path d="M70 37h2v1h-2v-1z" fill="rgb(16,82,65)"/>
<path d="M19 38h2v1h-2v-1z" fill="rgb(16,82,65)"/>
<path d="M27 38h2v1h-2v-1z" fill="rgb(16,16,16)"/>
<path d="M29 38h1v1h-1v-1z" fill="rgb(16,82,65)"/>
<path d="M35 38h3v1h-1v1h1v1h-4v1h1v1h-3v-1h1v-1h-6v-1h9v-1h-1v-1z" fill="rgb(16,82,65)"/>
<path d="M38 38h2v1h1v1h-1v1h-1v1h-1v1h-1v1h-1v1h-1v2h-1v1h-2v-1h-1v-1h2v-1h-2v-1h1v-1h3
	v-1h-1v-1h4v-1h-1v-1h1v-1z" fill="rgb(90,156,57)"/>
<path d="M40 38h2v1h1v1h-2v-1h-1v-1z" fill="rgb(16,82,65)"/>
<path d="M42 38h1v1h-1v-1z" fill="rgb(189,106,49)"/>
<path d="M43 38h3v1h2v1h-3v-1h-2v-1z" fill="rgb(16,82,65)"/>
<path d="M52 38h1v1h4v1h5v1h5v1h5v1h5v1h-2v1h-3v1h-3v-1h-2v-1h-1v1h1v1h-2v-1h-1v-1h-1v1
	h-2v-2h-1v-2h-1v2h1v2h-1v-1h-3v-3h-1v3h-3v-1h1v-3h-1v-2z" fill="rgb(90,156,57)"/>
<path d="M53 38h4v1h-4v-1z" fill="rgb(16,82,65)"/>
<path d="M64 38h1v1h-1v-1z" fill="rgb(16,82,65)"/>
<path d="M65 38h2v1h-2v-1z" fill="rgb(16,16,16)"/>
<path d="M67 38h5v1h-5v-1z" fill="rgb(90,156,57)"/>
<path d="M72 38h4v1h-4v-1z" fill="rgb(16,82,65)"/>
<path d="M17 39h1v2h-2v-1h1v-1z" fill="rgb(16,82,65)"/>
<path d="M18 39h2v1h-2v-1z" fill="rgb(16,16,16)"/>
<path d="M23 39h4v1h-4v-1z" fill="rgb(16,82,65)"/>
<path d="M27 39h3v1h-3v-1z" fill="rgb(90,156,57)"/>
<path d="M34 39h2v1h-2v-1z" fill="rgb(90,156,57)"/>
<path d="M43 39h2v1h-1v1h-2v1h-1v1h-1v-2h1v-1h2v-1z" fill="rgb(90,156,57)"/>
<path d="M48 39h3v1h-2v1h3v2h-3v-1h-2v1h-1v1h-1v1h-3v1h-2v1h-1v1h-1v1h-2v-1h1v-1h1v-1h1
	v-1h1v-1h1v-1h1v-1h2v-1h1v-1h3v-1z" fill="rgb(90,156,57)"/>
<path d="M58 39h5v1h-5v-1z" fill="rgb(16,16,16)"/>
<path d="M63 39h4v1h-4v-1z" fill="rgb(90,156,57)"/>
<path d="M67 39h5v1h-5v-1z" fill="rgb(16,82,65)"/>
<path d="M72 39h4v1h-4v-1z" fill="rgb(90,156,57)"/>
<path d="M76 39h2v1h-2v-1z" fill="rgb(16,82,65)"/>
<path d="M18 40h2v1h-2v-1z" fill="rgb(90,156,57)"/>
<path d="M20 40h3v1h-3v-1z" fill="rgb(16,82,65)"/>
<path d="M23 40h4v1h-4v-1z" fill="rgb(90,156,57)"/>
<path d="M40 40h1v1h-1v-1z" fill="rgb(16,82,65)"/>
<path d="M44 40h1v1h-1v-1z" fill="rgb(16,82,65)"/>
<path d="M62 40h5v1h-5v-1z" fill="rgb(16,82,65)"/>
<path d="M67 40h5v1h-5v-1z" fill="rgb(90,156,57)"/>
<path d="M72 40h4v1h-4v-1z" fill="rgb(16,82,65)"/>
<path d="M76 40h2v1h-2v-1z" fill="rgb(90,156,57)"/>
<path d="M78 40h4v1h-4v-1z" fill="rgb(16,82,65)"/>
<path d="M14 41h1v1h-1v-1z" fill="rgb(16,82,65)"/>
<path d="M15 41h1v1h-1v-1z" fill="rgb(16,16,16)"/>
<path d="M16 41h1v1h-1v-1z" fill="rgb(131,222,123)"/>
<path d="M17 41h1v2h-2v-1h1v-1z" fill="rgb(90,156,57)"/>
<path d="M18 41h2v1h-2v-1z" fill="rgb(16,82,65)"/>
<path d="M20 41h3v1h-3v-1z" fill="rgb(90,156,57)"/>
<path d="M23 41h4v1h-4v-1z" fill="rgb(16,82,65)"/>
<path d="M27 41h6v1h-1v1h-1v1h-1v2h-4v-1h-1v-1h-1v1h-2v-1h-4v-1h5v-1h4v-1z" fill="rgb(90,156,57)"/>
<path d="M39 41h1v1h-1v-1z" fill="rgb(16,82,65)"/>
<path d="M42 41h2v1h-2v-1z" fill="rgb(16,82,65)"/>
<path d="M55 41h1v2h-1v-2z" fill="rgb(16,82,65)"/>
<path d="M59 41h1v2h-1v-2z" fill="rgb(16,82,65)"/>
<path d="M67 41h5v1h-5v-1z" fill="rgb(16,82,65)"/>
<path d="M72 41h4v1h-4v-1z" fill="rgb(90,156,57)"/>
<path d="M76 41h2v1h-2v-1z" fill="rgb(16,82,65)"/>
<path d="M78 41h4v1h-2v1h4v1h2v1h-5v-1h-4v-1h-1v-1h2v-1z" fill="rgb(131,222,123)"/>
<path d="M82 41h1v1h-1v-1z" fill="rgb(16,82,65)"/>
<path d="M13 42h1v1h-1v-1z" fill="rgb(16,82,65)"/>
<path d="M14 42h2v1h-2v-1z" fill="rgb(131,222,123)"/>
<path d="M18 42h2v1h-2v-1z" fill="rgb(131,222,123)"/>
<path d="M20 42h3v1h-3v-1z" fill="rgb(16,82,65)"/>
<path d="M38 42h1v1h-1v-1z" fill="rgb(16,82,65)"/>
<path d="M39 42h1v1h-1v-1z" fill="rgb(131,222,123)"/>
<path d="M41 42h1v1h-1v-1z" fill="rgb(16,82,65)"/>
<path d="M47 42h2v1h-2v-1z" fill="rgb(16,82,65)"/>
<path d="M72 42h4v1h-4v-1z" fill="rgb(16,82,65)"/>
<path d="M80 42h1v1h-1v-1z" fill="rgb(90,156,57)"/>
<path d="M81 42h3v1h-3v-1z" fill="rgb(16,16,16)"/>
<path d="M12 43h1v1h-1v-1z" fill="rgb(16,82,65)"/>
<path d="M13 43h1v1h-1v-1z" fill="rgb(131,222,123)"/>
<path d="M14 43h2v1h-2v-1z" fill="rgb(90,156,57)"/>
<path d="M16 43h2v1h-2v-1z" fill="rgb(131,222,123)"/>
<path d="M31 43h1v1h-1v-1z" fill="rgb(16,82,65)"/>
<path d="M37 43h1v1h-1v-1z" fill="rgb(16,82,65)"/>
<path d="M38 43h1v1h-1v-1z" fill="rgb(131,222,123)"/>
<path d="M39 43h1v1h-1v-1z" fill="rgb(90,156,57)"/>
<path d="M40 43h1v1h-1v-1z" fill="rgb(16,82,65)"/>
<path d="M46 43h3v1h1v2h-4v-1h-1v-1h1v-1z" fill="rgb(131,222,123)"/>
<path d="M49 43h3v1h-3v-1z" fill="rgb(16,82,65)"/>
<path d="M55 43h1v1h-1v-1z" fill="rgb(16,16,16)"/>
<path d="M60 43h1v2h-1v-2z" fill="rgb(16,82,65)"/>
<path d="M84 43h2v1h-2v-1z" fill="rgb(16,16,16)"/>
<path d="M11 44h1v1h-1v-1z" fill="rgb(16,82,65)"/>
<path d="M12 44h1v1h-1v-1z" fill="rgb(131,222,123)"/>
<path d="M13 44h1v1h-1v-1z" fill="rgb(90,156,57)"/>
<path d="M14 44h2v1h2v-1h4v1h-2v1h-1v2h-1v1h-1v1h-2v-2h-1v1h-2v-1h1v-1h1v-1h-1v-1h1v-1z" fill="rgb(131,222,123)"/>
<path d="M16 44h2v1h-2v-1z" fill="rgb(90,156,57)"/>
<path d="M24 44h1v1h1v1h1v1h-2v-1h-5v-1h4v-1z" fill="rgb(16,82,65)"/>
<path d="M26 44h1v1h-1v-1z" fill="rgb(16,82,65)"/>
<path d="M30 44h1v1h2v1h-2v1h-2v2h-1v-1h-1v-1h1v-1h2v-2z" fill="rgb(16,82,65)"/>
<path d="M36 44h1v1h-1v-1z" fill="rgb(16,82,65)"/>
<path d="M37 44h1v1h-1v-1z" fill="rgb(131,222,123)"/>
<path d="M38 44h1v1h-1v-1z" fill="rgb(90,156,57)"/>
<path d="M39 44h1v1h-1v-1z" fill="rgb(16,82,65)"/>
<path d="M50 44h1v2h-1v-2z" fill="rgb(16,16,16)"/>
<path d="M51 44h1v1h-1v-1z" fill="rgb(16,123,106)"/>
<path d="M52 44h7v1h-7v-1z" fill="rgb(16,82,65)"/>
<path d="M63 44h1v2h-1v-2z" fill="rgb(16,82,65)"/>
<path d="M66 44h1v1h-1v-1z" fill="rgb(16,82,65)"/>
<path d="M75 44h2v1h3v1h2v1h2v1h-1v1h-3v-1h-2v-1h-1v-1h-1v1h1v1h1v2h-3v-2h-1v-1h-1v-1h-1
	v-1h3v-1z" fill="rgb(131,222,123)"/>
<path d="M77 44h2v1h-2v-1z" fill="rgb(90,156,57)"/>
<path d="M79 44h1v1h-1v-1z" fill="rgb(16,82,65)"/>
<path d="M80 44h1v1h-1v-1z" fill="rgb(90,156,57)"/>
<path d="M86 44h1v1h-1v-1z" fill="rgb(16,82,65)"/>
<path d="M11 45h2v1h-2v-1z" fill="rgb(90,156,57)"/>
<path d="M35 45h1v2h-1v-2z" fill="rgb(16,82,65)"/>
<path d="M36 45h1v2h-1v-2z" fill="rgb(131,222,123)"/>
<path d="M37 45h1v1h-1v-1z" fill="rgb(90,156,57)"/>
<path d="M38 45h1v1h-1v-1z" fill="rgb(16,82,65)"/>
<path d="M42 45h1v1h2v1h2v1h-1v1h-2v-1h-2v-1h-2v-1h2v-1z" fill="rgb(131,222,123)"/>
<path d="M43 45h2v1h-2v-1z" fill="rgb(16,82,65)"/>
<path d="M45 45h1v1h-1v-1z" fill="rgb(90,156,57)"/>
<path d="M51 45h1v1h-1v-1z" fill="rgb(16,82,65)"/>
<path d="M52 45h7v1h-4v1h-2v1h-1v1h-1v1h-1v-2h-1v-1h1v-1h2v-1z" fill="rgb(90,213,197)"/>
<path d="M59 45h2v2h-1v5h-1v-7z" fill="rgb(16,16,16)"/>
<path d="M61 45h2v1h1v1h-3v-2z" fill="rgb(131,222,123)"/>
<path d="M64 45h1v1h-1v-1z" fill="rgb(131,222,123)"/>
<path d="M67 45h1v2h-1v-2z" fill="rgb(16,16,16)"/>
<path d="M68 45h1v1h-1v-1z" fill="rgb(131,222,123)"/>
<path d="M80 45h2v1h-2v-1z" fill="rgb(16,16,16)"/>
<path d="M82 45h4v1h-4v-1z" fill="rgb(16,82,65)"/>
<path d="M10 46h1v1h-1v-1z" fill="rgb(16,82,65)"/>
<path d="M11 46h2v1h-1v1h-2v-1h1v-1z" fill="rgb(131,222,123)"/>
<path d="M13 46h1v1h-1v-1z" fill="rgb(90,156,57)"/>
<path d="M16 46h1v1h-1v-1z" fill="rgb(90,156,57)"/>
<path d="M19 46h1v3h-2v-1h1v-2z" fill="rgb(16,16,16)"/>
<path d="M20 46h1v1h-1v-1z" fill="rgb(32,180,156)"/>
<path d="M21 46h4v1h2v1h1v3h-1v3h1v1h-1v2h-1v-1h-1v2h-1v1h-1v-1h-1v-3h1v-1h-1v-1h1v-1h1
	v-3h-1v-1h-1v-1h-1v-1z" fill="rgb(90,213,197)"/>
<path d="M27 46h1v1h-1v-1z" fill="rgb(16,123,106)"/>
<path d="M37 46h1v1h-1v-1z" fill="rgb(16,82,65)"/>
<path d="M45 46h2v1h-2v-1z" fill="rgb(16,82,65)"/>
<path d="M47 46h1v1h-1v-1z" fill="rgb(90,156,57)"/>
<path d="M48 46h2v1h-2v-1z" fill="rgb(16,82,65)"/>
<path d="M55 46h2v1h-2v-1z" fill="rgb(32,180,156)"/>
<path d="M57 46h1v1h-1v-1z" fill="rgb(16,82,65)"/>
<path d="M58 46h1v6h1v2h1v1h-2v-1h-2v-1h-2v-1h-2v-1h-1v-1h2v1h2v1h1v-1h1v-5z" fill="rgb(16,123,106)"/>
<path d="M64 46h1v2h-1v-2z" fill="rgb(16,82,65)"/>
<path d="M65 46h2v1h1v2h-2v-1h-1v-2z" fill="rgb(131,222,123)"/>
<path d="M68 46h1v1h-1v-1z" fill="rgb(16,82,65)"/>
<path d="M69 46h3v1h1v2h1v2h-3v-2h-1v-1h-1v-2z" fill="rgb(131,222,123)"/>
<path d="M72 46h1v1h-1v-1z" fill="rgb(16,16,16)"/>
<path d="M76 46h1v1h-1v-1z" fill="rgb(16,82,65)"/>
<path d="M82 46h2v1h-2v-1z" fill="rgb(16,16,16)"/>
<path d="M9 47h1v1h-1v-1z" fill="rgb(16,82,65)"/>
<path d="M12 47h1v1h-1v-1z" fill="rgb(90,156,57)"/>
<path d="M15 47h1v1h-1v-1z" fill="rgb(90,156,57)"/>
<path d="M20 47h1v1h-1v-1z" fill="rgb(16,82,65)"/>
<path d="M21 47h1v1h-1v-1z" fill="rgb(32,180,156)"/>
<path d="M29 47h3v1h2v1h-1v3h1v-1h1v-1h1v-1h2v-1h1v-1h1v1h2v1h1v1h1v2h-1v1h-1v2h-1v1h-1
	v-1h-1v-1h-1v-2h-1v5h-1v1h-2v-4h-1v2h-1v1h-1v1h-2v-1h-1v-2h1v-1h1v-1h-2v-2h2v-1
	h2v-1h-3v-2z" fill="rgb(131,222,123)"/>
<path d="M34 47h1v2h-1v-2z" fill="rgb(16,82,65)"/>
<path d="M35 47h1v2h-1v-2z" fill="rgb(131,222,123)"/>
<path d="M36 47h1v1h-1v-1z" fill="rgb(16,82,65)"/>
<path d="M40 47h2v1h-2v-1z" fill="rgb(90,156,57)"/>
<path d="M47 47h1v1h-1v-1z" fill="rgb(16,16,16)"/>
<path d="M48 47h1v1h1v2h1v-1h1v2h1v1h2v1h2v1h2v1h3v1h1v1h1v2h-2v1h-1v1h-1v2h-1v1h-2v1h-1
	v1h-3v1h-2v1h-1v-1h-1v-1h-1v1h-1v1h-1v-1h-1v1h-1v2h-4v1h-2v1h-7v-1h1v-1h-1v-1
	h-1v1h1v1h-3v-1h-2v-1h2v-1h2v-1h1v-1h1v-2h1v-2h1v-2h4v-1h2v-1h1v-1h1v-1h1v-1h1
	v-1h1v-2h1v-2h1v-1h1v-2z" fill="rgb(32,180,156)"/>
<path d="M53 47h2v1h-2v-1z" fill="rgb(32,180,156)"/>
<path d="M55 47h2v1h-2v-1z" fill="rgb(16,82,65)"/>
<path d="M57 47h1v4h-1v-4z" fill="rgb(131,49,0)"/>
<path d="M60 47h1v1h4v2h4v-1h1v2h1v1h4v-1h3v-1h1v-1h1v2h1v1h1v2h1v2h-1v-1h-2v-1h-2v1h-2
	v1h-1v2h-1v1h-2v-1h-1v-1h-1v-1h-1v-1h-3v-1h-2v-1h-2v1h-1v-2h-1v-5z" fill="rgb(16,123,106)"/>
<path d="M61 47h3v1h-3v-1z" fill="rgb(16,16,16)"/>
<path d="M68 47h1v3h-4v-1h3v-2z" fill="rgb(16,16,16)"/>
<path d="M73 47h1v2h-1v-2z" fill="rgb(16,16,16)"/>
<path d="M77 47h1v1h-1v-1z" fill="rgb(16,82,65)"/>
<path d="M84 47h1v1h-1v-1z" fill="rgb(16,16,16)"/>
<path d="M9 48h2v1h-2v-1z" fill="rgb(16,16,16)"/>
<path d="M11 48h1v2h-1v-2z" fill="rgb(16,82,65)"/>
<path d="M14 48h1v1h-1v-1z" fill="rgb(90,156,57)"/>
<path d="M20 48h1v1h-1v-1z" fill="rgb(222,65,65)"/>
<path d="M21 48h1v1h-1v-1z" fill="rgb(16,82,65)"/>
<path d="M22 48h1v1h-1v-1z" fill="rgb(32,180,156)"/>
<path d="M42 48h2v1h-2v-1z" fill="rgb(90,156,57)"/>
<path d="M46 48h1v1h-1v-1z" fill="rgb(16,16,16)"/>
<path d="M47 48h1v1h-1v-1z" fill="rgb(16,123,106)"/>
<path d="M52 48h1v1h-1v-1z" fill="rgb(32,180,156)"/>
<path d="M53 48h2v1h-2v-1z" fill="rgb(16,82,65)"/>
<path d="M55 48h2v3h-1v-1h-2v-1h1v-1z" fill="rgb(222,65,65)"/>
<path d="M65 48h1v1h-1v-1z" fill="rgb(16,82,65)"/>
<path d="M69 48h1v1h-1v-1z" fill="rgb(16,82,65)"/>
<path d="M74 48h1v1h-1v-1z" fill="rgb(16,82,65)"/>
<path d="M78 48h2v1h-2v-1z" fill="rgb(16,82,65)"/>
<path d="M83 48h1v1h-1v-1z" fill="rgb(16,16,16)"/>
<path d="M12 49h2v1h-2v-1z" fill="rgb(16,16,16)"/>
<path d="M14 49h1v1h-1v-1z" fill="rgb(16,82,65)"/>
<path d="M17 49h1v1h-1v-1z" fill="rgb(16,16,16)"/>
<path d="M20 49h1v2h-1v-2z" fill="rgb(16,16,16)"/>
<path d="M21 49h1v2h-1v-2z" fill="rgb(222,65,65)"/>
<path d="M22 49h1v1h-1v-1z" fill="rgb(16,82,65)"/>
<path d="M23 49h1v1h-1v-1z" fill="rgb(32,180,156)"/>
<path d="M28 49h4v1h-4v-1z" fill="rgb(90,156,57)"/>
<path d="M33 49h1v1h1v1h-1v1h-1v-3z" fill="rgb(90,156,57)"/>
<path d="M34 49h1v1h-1v-1z" fill="rgb(131,222,123)"/>
<path d="M35 49h1v1h-1v-1z" fill="rgb(90,156,57)"/>
<path d="M43 49h2v1h-2v-1z" fill="rgb(16,82,65)"/>
<path d="M45 49h1v1h-1v-1z" fill="rgb(16,16,16)"/>
<path d="M46 49h1v1h-1v-1z" fill="rgb(16,123,106)"/>
<path d="M52 49h1v1h-1v-1z" fill="rgb(16,82,65)"/>
<path d="M53 49h1v1h-1v-1z" fill="rgb(131,49,0)"/>
<path d="M70 49h1v2h-1v-2z" fill="rgb(16,82,65)"/>
<path d="M74 49h1v3h-3v-1h2v-2z" fill="rgb(16,16,16)"/>
<path d="M78 49h1v1h-1v-1z" fill="rgb(16,16,16)"/>
<path d="M80 49h2v1h-1v1h-1v-2z" fill="rgb(16,82,65)"/>
<path d="M82 49h1v1h-1v-1z" fill="rgb(16,16,16)"/>
<path d="M15 50h2v1h-2v-1z" fill="rgb(16,16,16)"/>
<path d="M19 50h1v1h-1v-1z" fill="rgb(16,82,65)"/>
<path d="M22 50h1v1h-1v-1z" fill="rgb(255,123,115)"/>
<path d="M23 50h1v2h-1v-2z" fill="rgb(16,82,65)"/>
<path d="M28 50h2v1h-2v-1z" fill="rgb(16,82,65)"/>
<path d="M39 50h1v1h-1v-1z" fill="rgb(90,156,57)"/>
<path d="M44 50h1v2h-1v-2z" fill="rgb(16,16,16)"/>
<path d="M45 50h1v2h-1v-2z" fill="rgb(16,123,106)"/>
<path d="M54 50h2v1h-2v-1z" fill="rgb(131,49,0)"/>
<path d="M75 50h3v1h-3v-1z" fill="rgb(16,82,65)"/>
<path d="M18 51h1v1h-1v-1z" fill="rgb(16,82,65)"/>
<path d="M19 51h2v3h-1v1h-1v1h-1v-1h-1v-2h1v-1h1v-1z" fill="rgb(16,123,106)"/>
<path d="M21 51h1v2h-1v-2z" fill="rgb(16,16,16)"/>
<path d="M22 51h1v1h-1v-1z" fill="rgb(222,65,65)"/>
<path d="M27 51h1v2h1v1h-2v-3z" fill="rgb(16,82,65)"/>
<path d="M40 51h1v1h-1v-1z" fill="rgb(16,82,65)"/>
<path d="M56 51h1v1h-1v-1z" fill="rgb(131,49,0)"/>
<path d="M71 51h1v1h-1v-1z" fill="rgb(16,82,65)"/>
<path d="M81 51h1v1h-1v-1z" fill="rgb(16,82,65)"/>
<path d="M17 52h1v1h-1v-1z" fill="rgb(16,82,65)"/>
<path d="M22 52h1v1h-1v-1z" fill="rgb(16,82,65)"/>
<path d="M30 52h1v1h-1v-1z" fill="rgb(90,156,57)"/>
<path d="M37 52h1v2h-1v-2z" fill="rgb(90,156,57)"/>
<path d="M41 52h1v1h-1v-1z" fill="rgb(16,82,65)"/>
<path d="M43 52h1v1h-1v-1z" fill="rgb(16,16,16)"/>
<path d="M44 52h1v2h-1v1h-1v-2h1v-1z" fill="rgb(16,123,106)"/>
<path d="M60 52h1v2h-1v-2z" fill="rgb(16,16,16)"/>
<path d="M82 52h1v2h-1v-2z" fill="rgb(16,82,65)"/>
<path d="M16 53h1v1h-1v-1z" fill="rgb(16,82,65)"/>
<path d="M21 53h1v1h-1v-1z" fill="rgb(16,82,65)"/>
<path d="M29 53h1v1h-1v-1z" fill="rgb(16,16,16)"/>
<path d="M42 53h1v2h-1v-2z" fill="rgb(16,16,16)"/>
<path d="M62 53h2v1h2v1h2v1h1v1h1v1h1v1h1v2h1v2h1v2h1v1h-3v1h-2v1h-2v1h-1v1h-1v1h-1v1h-1
	v2h-1v1h-1v-1h-1v-2h-1v-1h-1v-1h-1v-2h2v-1h2v-1h2v-1h1v-2h1v-4h-1v-2h-1v-1h-1
	v-1h-1v-2z" fill="rgb(32,180,156)"/>
<path d="M15 54h1v1h-1v-1z" fill="rgb(16,82,65)"/>
<path d="M16 54h1v1h1v1h1v1h-1v1h-1v2h-1v4h1v1h1v1h1v1h1v1h1v1h1v1h1v1h1v1h-1v2h-1v1h-1
	v-1h-1v-1h-1v1h-1v1h-1v-1h-1v-2h-1v-1h-1v1h-1v2h-1v-2h-1v-3h-1v-5h1v-3h1v-2h1
	v-2h1v-1h1v-1h1v-1z" fill="rgb(32,180,156)"/>
<path d="M20 54h1v1h-1v-1z" fill="rgb(16,82,65)"/>
<path d="M21 54h1v1h-1v-1z" fill="rgb(90,213,197)"/>
<path d="M22 54h1v1h-1v-1z" fill="rgb(32,180,156)"/>
<path d="M28 54h1v1h-1v-1z" fill="rgb(16,16,16)"/>
<path d="M33 54h1v1h-1v-1z" fill="rgb(90,156,57)"/>
<path d="M37 54h1v4h-1v-4z" fill="rgb(16,82,65)"/>
<path d="M38 54h1v1h-1v-1z" fill="rgb(16,16,16)"/>
<path d="M50 54h2v1h-2v-1z" fill="rgb(16,123,106)"/>
<path d="M61 54h1v1h-1v-1z" fill="rgb(16,16,16)"/>
<path d="M78 54h2v1h2v1h1v1h1v5h-1v2h-1v1h-2v1h-1v1h1v-1h2v-1h1v2h-2v1h-1v2h-1v-2h-1v-1
	h-1v1h-1v-3h-1v-2h-1v-2h-1v-1h1v-1h1v-1h1v-2h1v-1h1v-1z" fill="rgb(32,180,156)"/>
<path d="M83 54h1v2h-1v-2z" fill="rgb(16,82,65)"/>
<path d="M14 55h1v1h-1v-1z" fill="rgb(16,82,65)"/>
<path d="M19 55h1v2h-1v-2z" fill="rgb(16,82,65)"/>
<path d="M20 55h1v2h-1v-2z" fill="rgb(90,213,197)"/>
<path d="M21 55h1v1h-1v-1z" fill="rgb(32,180,156)"/>
<path d="M27 55h1v2h-1v-2z" fill="rgb(16,82,65)"/>
<path d="M33 55h1v3h-1v-3z" fill="rgb(16,82,65)"/>
<path d="M38 55h1v1h1v1h1v1h-1v1h-2v1h-4v-1h2v-1h2v-3z" fill="rgb(16,123,106)"/>
<path d="M39 55h1v1h-1v-1z" fill="rgb(16,16,16)"/>
<path d="M41 55h1v1h-1v-1z" fill="rgb(16,16,16)"/>
<path d="M42 55h1v1h-1v-1z" fill="rgb(16,123,106)"/>
<path d="M45 55h1v1h-1v-1z" fill="rgb(16,123,106)"/>
<path d="M46 55h1v1h1v1h1v1h-1v1h-1v1h-1v1h-1v1h-1v-4h1v-2h1v-1z" fill="rgb(90,213,197)"/>
<path d="M52 55h1v1h-1v-1z" fill="rgb(16,123,106)"/>
<path d="M62 55h1v1h-1v-1z" fill="rgb(16,16,16)"/>
<path d="M68 55h1v1h-1v-1z" fill="rgb(16,82,65)"/>
<path d="M76 55h1v1h-1v-1z" fill="rgb(16,82,65)"/>
<path d="M13 56h1v1h-1v-1z" fill="rgb(16,82,65)"/>
<path d="M21 56h1v1h-1v-1z" fill="rgb(16,123,106)"/>
<path d="M25 56h1v1h-1v-1z" fill="rgb(16,123,106)"/>
<path d="M32 56h1v1h-1v-1z" fill="rgb(16,16,16)"/>
<path d="M40 56h1v1h-1v-1z" fill="rgb(16,16,16)"/>
<path d="M41 56h1v1h-1v-1z" fill="rgb(16,123,106)"/>
<path d="M44 56h1v2h-1v-2z" fill="rgb(16,123,106)"/>
<path d="M63 56h1v1h-1v-1z" fill="rgb(16,16,16)"/>
<path d="M69 56h1v1h-1v-1z" fill="rgb(16,82,65)"/>
<path d="M75 56h1v2h-1v-2z" fill="rgb(16,82,65)"/>
<path d="M83 56h1v1h-1v-1z" fill="rgb(16,123,106)"/>
<path d="M84 56h1v6h-1v-6z" fill="rgb(16,82,65)"/>
<path d="M12 57h1v2h-1v-2z" fill="rgb(16,82,65)"/>
<path d="M18 57h1v1h-1v-1z" fill="rgb(16,82,65)"/>
<path d="M19 57h1v5h1v1h1v1h3v-1h1v-1h1v-5h1v1h1v1h2v-1h1v1h2v3h-1v2h-1v2h-1v1h-1v1h-2v1
	h-3v-1h-2v-1h-1v-1h-3v-1h-1v-1h-1v-4h1v-2h1v-1z" fill="rgb(90,213,197)"/>
<path d="M20 57h1v5h-1v-5z" fill="rgb(32,180,156)"/>
<path d="M21 57h1v1h-1v-1z" fill="rgb(16,82,65)"/>
<path d="M25 57h1v3h1v2h-2v-2h-1v-2h1v-1z" fill="rgb(32,180,156)"/>
<path d="M26 57h1v3h-1v-3z" fill="rgb(16,123,106)"/>
<path d="M28 57h1v1h-1v-1z" fill="rgb(16,82,65)"/>
<path d="M31 57h1v1h-1v-1z" fill="rgb(16,16,16)"/>
<path d="M32 57h1v1h1v1h-2v-2z" fill="rgb(32,180,156)"/>
<path d="M36 57h1v1h-1v-1z" fill="rgb(16,16,16)"/>
<path d="M50 57h3v1h-3v-1z" fill="rgb(16,82,65)"/>
<path d="M64 57h1v2h-1v-2z" fill="rgb(16,16,16)"/>
<path d="M70 57h1v1h-1v-1z" fill="rgb(16,16,16)"/>
<path d="M17 58h1v2h-1v-2z" fill="rgb(16,82,65)"/>
<path d="M21 58h1v1h-1v-1z" fill="rgb(90,213,197)"/>
<path d="M22 58h1v1h-1v-1z" fill="rgb(16,82,65)"/>
<path d="M29 58h2v1h-2v-1z" fill="rgb(16,16,16)"/>
<path d="M34 58h2v1h-2v-1z" fill="rgb(16,16,16)"/>
<path d="M43 58h1v3h-1v-3z" fill="rgb(16,123,106)"/>
<path d="M48 58h2v1h-2v-1z" fill="rgb(16,82,65)"/>
<path d="M50 58h2v1h-2v-1z" fill="rgb(90,213,197)"/>
<path d="M52 58h1v4h-1v-4z" fill="rgb(16,123,106)"/>
<path d="M71 58h1v1h-1v-1z" fill="rgb(16,16,16)"/>
<path d="M74 58h1v1h-1v-1z" fill="rgb(16,82,65)"/>
<path d="M11 59h1v2h-1v-2z" fill="rgb(16,82,65)"/>
<path d="M21 59h1v2h1v1h1v1h-2v-1h-1v-3z" fill="rgb(255,255,255)"/>
<path d="M22 59h1v2h-1v-2z" fill="rgb(131,49,0)"/>
<path d="M23 59h1v1h-1v-1z" fill="rgb(16,82,65)"/>
<path d="M47 59h1v1h-1v-1z" fill="rgb(16,82,65)"/>
<path d="M48 59h2v2h-1v-1h-1v-1z" fill="rgb(131,49,0)"/>
<path d="M50 59h2v2h-1v1h-1v1h-2v-1h1v-1h1v-2z" fill="rgb(255,255,255)"/>
<path d="M62 59h3v4h-1v2h-2v1h-2v1h-2v1h-1v1h-2v-1h1v-2h1v-1h2v-1h1v-1h1v-3h1v-1z" fill="rgb(16,123,106)"/>
<path d="M65 59h1v4h-1v-4z" fill="rgb(16,16,16)"/>
<path d="M72 59h1v2h-1v-2z" fill="rgb(16,16,16)"/>
<path d="M73 59h1v1h-1v-1z" fill="rgb(16,82,65)"/>
<path d="M82 59h1v1h-1v-1z" fill="rgb(16,123,106)"/>
<path d="M16 60h1v3h-1v-3z" fill="rgb(16,82,65)"/>
<path d="M23 60h1v1h-1v-1z" fill="rgb(255,189,189)"/>
<path d="M24 60h1v2h-1v-2z" fill="rgb(16,82,65)"/>
<path d="M46 60h1v1h-1v-1z" fill="rgb(16,82,65)"/>
<path d="M47 60h1v1h-1v-1z" fill="rgb(131,49,0)"/>
<path d="M48 60h1v1h-1v-1z" fill="rgb(255,189,189)"/>
<path d="M81 60h1v1h-1v-1z" fill="rgb(90,213,197)"/>
<path d="M82 60h1v1h-1v-1z" fill="rgb(16,82,65)"/>
<path d="M10 61h1v3h-1v-3z" fill="rgb(16,82,65)"/>
<path d="M23 61h1v1h-1v-1z" fill="rgb(255,123,115)"/>
<path d="M45 61h1v1h-1v-1z" fill="rgb(16,82,65)"/>
<path d="M46 61h1v1h-1v-1z" fill="rgb(90,213,197)"/>
<path d="M47 61h1v1h-1v-1z" fill="rgb(255,255,255)"/>
<path d="M48 61h1v1h-1v-1z" fill="rgb(255,123,115)"/>
<path d="M51 61h1v1h-1v-1z" fill="rgb(90,213,197)"/>
<path d="M60 61h1v2h-1v-2z" fill="rgb(16,82,65)"/>
<path d="M73 61h1v2h-1v-2z" fill="rgb(16,16,16)"/>
<path d="M77 61h1v1h-1v-1z" fill="rgb(16,82,65)"/>
<path d="M81 61h1v1h-1v-1z" fill="rgb(16,82,65)"/>
<path d="M21 62h1v1h-1v-1z" fill="rgb(32,180,156)"/>
<path d="M24 62h1v1h-1v-1z" fill="rgb(90,213,197)"/>
<path d="M25 62h1v1h-1v-1z" fill="rgb(16,82,65)"/>
<path d="M44 62h1v1h-1v-1z" fill="rgb(16,82,65)"/>
<path d="M45 62h2v1h-2v-1z" fill="rgb(16,123,106)"/>
<path d="M47 62h1v1h-1v-1z" fill="rgb(90,213,197)"/>
<path d="M50 62h1v1h-1v-1z" fill="rgb(90,213,197)"/>
<path d="M51 62h1v1h-1v-1z" fill="rgb(16,123,106)"/>
<path d="M77 62h1v1h-1v-1z" fill="rgb(90,213,197)"/>
<path d="M78 62h1v1h-1v-1z" fill="rgb(16,82,65)"/>
<path d="M83 62h1v2h-1v-2z" fill="rgb(16,82,65)"/>
<path d="M16 63h1v1h-1v-1z" fill="rgb(16,16,16)"/>
<path d="M22 63h3v1h-3v-1z" fill="rgb(32,180,156)"/>
<path d="M47 63h4v1h-4v-1z" fill="rgb(16,123,106)"/>
<path d="M59 63h1v1h-1v-1z" fill="rgb(16,82,65)"/>
<path d="M64 63h1v2h-1v-2z" fill="rgb(16,16,16)"/>
<path d="M69 63h1v1h-1v-1z" fill="rgb(16,123,106)"/>
<path d="M74 63h1v2h-1v-2z" fill="rgb(16,16,16)"/>
<path d="M78 63h1v1h-1v-1z" fill="rgb(16,123,106)"/>
<path d="M9 64h1v5h-1v-5z" fill="rgb(16,82,65)"/>
<path d="M12 64h1v1h-1v-1z" fill="rgb(16,123,106)"/>
<path d="M17 64h1v1h-1v-1z" fill="rgb(16,16,16)"/>
<path d="M57 64h2v1h-2v-1z" fill="rgb(16,82,65)"/>
<path d="M69 64h1v1h-1v-1z" fill="rgb(90,213,197)"/>
<path d="M70 64h1v2h-1v-2z" fill="rgb(16,82,65)"/>
<path d="M82 64h1v1h-1v-1z" fill="rgb(16,82,65)"/>
<path d="M11 65h1v2h-1v-2z" fill="rgb(16,123,106)"/>
<path d="M12 65h1v1h-1v-1z" fill="rgb(90,213,197)"/>
<path d="M18 65h1v1h-1v-1z" fill="rgb(16,16,16)"/>
<path d="M56 65h1v1h-1v-1z" fill="rgb(16,82,65)"/>
<path d="M62 65h2v1h-2v-1z" fill="rgb(16,16,16)"/>
<path d="M75 65h1v5h1v1h-1v1h-1v-7z" fill="rgb(16,16,16)"/>
<path d="M80 65h2v1h-2v-1z" fill="rgb(16,123,106)"/>
<path d="M83 65h1v2h-1v-2z" fill="rgb(16,82,65)"/>
<path d="M19 66h2v2h-1v-1h-1v-1z" fill="rgb(16,16,16)"/>
<path d="M21 66h1v1h-1v-1z" fill="rgb(16,123,106)"/>
<path d="M48 66h1v1h-1v-1z" fill="rgb(16,123,106)"/>
<path d="M53 66h3v2h-1v-1h-2v-1z" fill="rgb(16,82,65)"/>
<path d="M60 66h2v1h-2v-1z" fill="rgb(16,16,16)"/>
<path d="M72 66h3v6h-1v2h-1v2h-1v2h-1v-1h-1v-1h-1v-1h-1v1h-1v1h-1v1h-2v-2h-1v-2h1v-2h1
	v-1h1v-1h1v-1h1v-1h2v-1h2v-1z" fill="rgb(90,213,197)"/>
<path d="M79 66h1v1h-1v-1z" fill="rgb(16,123,106)"/>
<path d="M21 67h1v1h-1v-1z" fill="rgb(255,255,255)"/>
<path d="M22 67h1v1h-1v-1z" fill="rgb(16,123,106)"/>
<path d="M45 67h1v1h-1v-1z" fill="rgb(16,123,106)"/>
<path d="M47 67h1v1h-1v-1z" fill="rgb(16,123,106)"/>
<path d="M48 67h1v1h-1v-1z" fill="rgb(255,255,255)"/>
<path d="M49 67h1v1h-1v-1z" fill="rgb(16,123,106)"/>
<path d="M51 67h2v1h-2v-1z" fill="rgb(16,82,65)"/>
<path d="M53 67h1v1h-1v-1z" fill="rgb(255,255,255)"/>
<path d="M54 67h1v1h-1v-1z" fill="rgb(90,213,197)"/>
<path d="M58 67h2v1h-2v-1z" fill="rgb(16,16,16)"/>
<path d="M77 67h1v1h-1v-1z" fill="rgb(16,123,106)"/>
<path d="M81 67h1v1h-1v-1z" fill="rgb(16,123,106)"/>
<path d="M82 67h1v1h-1v-1z" fill="rgb(16,16,16)"/>
<path d="M17 68h1v1h-1v-1z" fill="rgb(16,82,65)"/>
<path d="M21 68h1v1h-1v-1z" fill="rgb(16,16,16)"/>
<path d="M22 68h1v1h-1v-1z" fill="rgb(16,82,65)"/>
<path d="M23 68h1v1h-1v-1z" fill="rgb(32,180,156)"/>
<path d="M24 68h1v1h-1v-1z" fill="rgb(16,123,106)"/>
<path d="M44 68h1v1h-1v-1z" fill="rgb(16,123,106)"/>
<path d="M45 68h1v1h-1v-1z" fill="rgb(255,255,255)"/>
<path d="M46 68h1v1h-1v-1z" fill="rgb(16,123,106)"/>
<path d="M47 68h4v1h-4v-1z" fill="rgb(16,82,65)"/>
<path d="M51 68h2v1h2v1h-1v1h-3v1h-3v1h-5v1h-10v-1h5v-1h2v-1h4v-1h3v-1h4v-1z" fill="rgb(16,123,106)"/>
<path d="M53 68h1v1h-1v-1z" fill="rgb(90,213,197)"/>
<path d="M54 68h1v1h-1v-1z" fill="rgb(16,82,65)"/>
<path d="M57 68h1v1h-1v-1z" fill="rgb(16,16,16)"/>
<path d="M64 68h1v1h-1v-1z" fill="rgb(16,123,106)"/>
<path d="M76 68h1v2h-1v-2z" fill="rgb(16,123,106)"/>
<path d="M77 68h1v1h1v2h-2v-3z" fill="rgb(255,255,255)"/>
<path d="M78 68h1v1h-1v-1z" fill="rgb(16,123,106)"/>
<path d="M80 68h1v2h-1v-2z" fill="rgb(16,123,106)"/>
<path d="M81 68h2v1h1v1h-3v-2z" fill="rgb(255,255,255)"/>
<path d="M83 68h1v1h-1v-1z" fill="rgb(16,82,65)"/>
<path d="M10 69h1v2h-1v-2z" fill="rgb(16,82,65)"/>
<path d="M17 69h1v1h-1v-1z" fill="rgb(90,213,197)"/>
<path d="M18 69h1v1h-1v-1z" fill="rgb(16,82,65)"/>
<path d="M22 69h1v1h-1v-1z" fill="rgb(16,16,16)"/>
<path d="M23 69h1v1h-1v-1z" fill="rgb(16,82,65)"/>
<path d="M24 69h1v1h-1v-1z" fill="rgb(255,255,255)"/>
<path d="M25 69h1v1h-1v-1z" fill="rgb(16,123,106)"/>
<path d="M30 69h1v1h-1v-1z" fill="rgb(16,82,65)"/>
<path d="M36 69h1v1h-1v-1z" fill="rgb(16,82,65)"/>
<path d="M44 69h3v1h-3v-1z" fill="rgb(16,82,65)"/>
<path d="M55 69h2v1h-2v-1z" fill="rgb(16,16,16)"/>
<path d="M57 69h1v1h-1v-1z" fill="rgb(16,82,65)"/>
<path d="M63 69h1v2h-1v-2z" fill="rgb(16,123,106)"/>
<path d="M64 69h1v1h-1v-1z" fill="rgb(90,213,197)"/>
<path d="M84 69h1v1h-1v-1z" fill="rgb(16,82,65)"/>
<path d="M18 70h1v1h-1v-1z" fill="rgb(16,123,106)"/>
<path d="M23 70h2v1h-2v-1z" fill="rgb(16,16,16)"/>
<path d="M25 70h3v1h-3v-1z" fill="rgb(16,82,65)"/>
<path d="M31 70h1v1h-1v-1z" fill="rgb(16,123,106)"/>
<path d="M35 70h1v1h-1v-1z" fill="rgb(16,123,106)"/>
<path d="M40 70h4v1h-4v-1z" fill="rgb(16,82,65)"/>
<path d="M54 70h1v1h-1v-1z" fill="rgb(16,16,16)"/>
<path d="M58 70h1v1h-1v-1z" fill="rgb(16,82,65)"/>
<path d="M71 70h1v1h-1v-1z" fill="rgb(32,180,156)"/>
<path d="M79 70h6v1h-5v1h-2v-1h1v-1z" fill="rgb(16,16,16)"/>
<path d="M10 71h1v1h-1v-1z" fill="rgb(16,123,106)"/>
<path d="M14 71h1v1h-1v-1z" fill="rgb(16,123,106)"/>
<path d="M24 71h1v1h-1v-1z" fill="rgb(16,82,65)"/>
<path d="M25 71h1v1h-1v-1z" fill="rgb(16,16,16)"/>
<path d="M26 71h2v1h-2v-1z" fill="rgb(16,123,106)"/>
<path d="M28 71h3v1h-3v-1z" fill="rgb(16,82,65)"/>
<path d="M38 71h2v1h-2v-1z" fill="rgb(16,82,65)"/>
<path d="M51 71h3v1h-3v-1z" fill="rgb(16,16,16)"/>
<path d="M59 71h1v1h-1v-1z" fill="rgb(16,82,65)"/>
<path d="M72 71h1v2h-1v-2z" fill="rgb(16,123,106)"/>
<path d="M77 71h1v1h-1v-1z" fill="rgb(16,82,65)"/>
<path d="M9 72h1v1h-1v-1z" fill="rgb(16,82,65)"/>
<path d="M10 72h1v2h-2v-1h1v-1z" fill="rgb(255,255,255)"/>
<path d="M11 72h1v2h-1v-2z" fill="rgb(16,123,106)"/>
<path d="M13 72h1v2h-1v-2z" fill="rgb(16,123,106)"/>
<path d="M14 72h1v2h1v1h-1v1h-2v-2h1v-2z" fill="rgb(255,255,255)"/>
<path d="M15 72h1v2h-1v-2z" fill="rgb(16,123,106)"/>
<path d="M23 72h1v2h-1v-2z" fill="rgb(16,82,65)"/>
<path d="M26 72h3v1h-3v-1z" fill="rgb(16,16,16)"/>
<path d="M29 72h2v1h-2v-1z" fill="rgb(16,123,106)"/>
<path d="M31 72h7v1h-7v-1z" fill="rgb(16,82,65)"/>
<path d="M48 72h3v1h-3v-1z" fill="rgb(16,16,16)"/>
<path d="M60 72h1v2h-1v-2z" fill="rgb(16,82,65)"/>
<path d="M74 72h1v2h-1v-2z" fill="rgb(16,16,16)"/>
<path d="M8 73h1v1h-1v-1z" fill="rgb(16,82,65)"/>
<path d="M19 73h1v1h-1v-1z" fill="rgb(16,123,106)"/>
<path d="M29 73h4v1h-4v-1z" fill="rgb(16,16,16)"/>
<path d="M43 73h5v1h-5v-1z" fill="rgb(16,16,16)"/>
<path d="M8 74h4v1h-4v-1z" fill="rgb(16,16,16)"/>
<path d="M12 74h1v2h-1v-2z" fill="rgb(16,123,106)"/>
<path d="M16 74h1v2h-1v-2z" fill="rgb(16,123,106)"/>
<path d="M18 74h1v2h-1v-2z" fill="rgb(16,123,106)"/>
<path d="M19 74h1v1h1v1h-2v-2z" fill="rgb(255,255,255)"/>
<path d="M20 74h1v1h-1v-1z" fill="rgb(16,123,106)"/>
<path d="M22 74h1v1h-1v-1z" fill="rgb(16,16,16)"/>
<path d="M33 74h10v1h-10v-1z" fill="rgb(16,16,16)"/>
<path d="M61 74h1v1h1v1h-1v1h-1v-3z" fill="rgb(16,82,65)"/>
<path d="M73 74h1v1h-1v-1z" fill="rgb(16,16,16)"/>
<path d="M15 75h1v1h-1v-1z" fill="rgb(16,16,16)"/>
<path d="M17 75h1v1h-1v-1z" fill="rgb(16,16,16)"/>
<path d="M21 75h1v1h-1v-1z" fill="rgb(16,16,16)"/>
<path d="M68 75h1v1h-1v-1z" fill="rgb(16,123,106)"/>
<path d="M73 75h1v1h-1v-1z" fill="rgb(16,123,106)"/>
<path d="M12 76h3v1h-3v-1z" fill="rgb(16,16,16)"/>
<path d="M18 76h3v1h-3v-1z" fill="rgb(16,16,16)"/>
<path d="M62 76h1v2h-2v-1h1v-1z" fill="rgb(255,255,255)"/>
<path d="M63 76h1v3h-1v-3z" fill="rgb(16,123,106)"/>
<path d="M67 76h1v1h-1v-1z" fill="rgb(16,123,106)"/>
<path d="M68 76h1v1h1v3h-1v-1h-2v-2h1v-1z" fill="rgb(255,255,255)"/>
<path d="M69 76h1v1h-1v-1z" fill="rgb(16,123,106)"/>
<path d="M72 76h1v2h-1v-2z" fill="rgb(16,123,106)"/>
<path d="M73 76h1v1h1v1h-2v-2z" fill="rgb(255,255,255)"/>
<path d="M74 76h1v1h-1v-1z" fill="rgb(16,82,65)"/>
<path d="M60 77h1v1h-1v-1z" fill="rgb(16,82,65)"/>
<path d="M66 77h1v2h-1v-2z" fill="rgb(16,123,106)"/>
<path d="M70 77h1v2h-1v-2z" fill="rgb(16,123,106)"/>
<path d="M75 77h1v1h-1v-1z" fill="rgb(16,82,65)"/>
<path d="M60 78h3v1h-3v-1z" fill="rgb(16,16,16)"/>
<path d="M64 78h2v1h-2v-1z" fill="rgb(16,16,16)"/>
<path d="M71 78h5v1h-5v-1z" fill="rgb(16,16,16)"/>
<path d="M67 79h2v1h-2v-1z" fill="rgb(16,16,16)"/>
<path d="M70 79h1v2h-2v-1h1v-1z" fill="rgb(16,16,16)"/>
</svg>
