<?xml version="1.0" encoding="utf-8"?>
<!-- generated at drububu.com  -->
<!DOCTYPE svg PUBLIC "-//W3C//DTD SVG 1.1//EN" "http://www.w3.org/Graphics/SVG/1.1/DTD/svg11.dtd">
<svg version="1.1" preserveAspectRatio="xMinYMin meet" xmlns="http://www.w3.org/2000/svg" xmlns:xlink="http://www.w3.org/1999/xlink" x="0px" y="0px" width="96px" height="96px" viewBox="0 0 96 96">
<path d="M0 0h96v96h-96v-96z" fill="transparent"/>
<path d="M30 22h2v2h-1v-1h-1v-1z" fill="rgb(90,148,180)"/>
<path d="M29 23h1v3h-1v-3z" fill="rgb(90,148,180)"/>
<path d="M30 23h1v5h-1v4h-1v-5h1v-4z" fill="rgb(197,230,238)"/>
<path d="M31 24h1v2h-1v-2z" fill="rgb(57,90,98)"/>
<path d="M35 24h2v1h-2v-1z" fill="rgb(90,148,180)"/>
<path d="M34 25h1v1h-1v-1z" fill="rgb(90,148,180)"/>
<path d="M35 25h1v1h-1v-1z" fill="rgb(197,230,238)"/>
<path d="M36 25h1v4h-1v-4z" fill="rgb(57,90,98)"/>
<path d="M29 26h1v1h-1v-1z" fill="rgb(139,197,205)"/>
<path d="M31 26h1v1h1v1h1v-1h1v-1h1v3h1v2h1v4h-4v1h-1v1h-1v1h-1v-2h-1v-1h-1v-1h1v-1h-1
	v-1h1v-4h1v-2z" fill="rgb(139,197,205)"/>
<path d="M32 26h2v1h-2v-1z" fill="rgb(90,148,180)"/>
<path d="M34 26h1v1h-1v-1z" fill="rgb(197,230,238)"/>
<path d="M52 26h4v1h-4v-1z" fill="rgb(90,148,180)"/>
<path d="M28 27h1v5h-1v-5z" fill="rgb(90,148,180)"/>
<path d="M33 27h1v1h-1v-1z" fill="rgb(197,230,238)"/>
<path d="M50 27h2v1h-2v-1z" fill="rgb(90,148,180)"/>
<path d="M52 27h3v1h-2v1h-1v1h-2v1h-3v-1h1v-1h2v-1h2v-1z" fill="rgb(197,230,238)"/>
<path d="M55 27h1v1h-1v-1z" fill="rgb(57,90,98)"/>
<path d="M48 28h2v1h-2v-1z" fill="rgb(90,148,180)"/>
<path d="M53 28h1v1h-1v-1z" fill="rgb(139,197,205)"/>
<path d="M54 28h1v1h-1v-1z" fill="rgb(57,90,98)"/>
<path d="M37 29h1v1h-1v-1z" fill="rgb(16,16,16)"/>
<path d="M43 29h2v1h-2v-1z" fill="rgb(90,148,180)"/>
<path d="M47 29h1v1h-1v-1z" fill="rgb(90,148,180)"/>
<path d="M52 29h1v2h1v1h2v1h-1v2h1v3h-1v1h-1v-4h-1v-2h-1v-1h-1v-1h-1v-1h2v-1z" fill="rgb(139,197,205)"/>
<path d="M53 29h1v2h-1v-2z" fill="rgb(57,90,98)"/>
<path d="M25 30h1v3h-1v-3z" fill="rgb(90,148,180)"/>
<path d="M26 30h1v1h-1v-1z" fill="rgb(57,90,98)"/>
<path d="M37 30h1v1h-1v-1z" fill="rgb(57,90,98)"/>
<path d="M42 30h1v2h-1v-2z" fill="rgb(90,148,180)"/>
<path d="M43 30h1v4h1v1h-1v2h-1v3h-1v1h-1v-5h1v-4h1v-2z" fill="rgb(197,230,238)"/>
<path d="M44 30h1v3h-1v-3z" fill="rgb(57,90,98)"/>
<path d="M46 30h1v1h-1v-1z" fill="rgb(90,148,180)"/>
<path d="M26 31h1v1h1v2h1v1h1v1h1v2h-1v-1h-1v-1h-1v-1h-1v-2h-1v-2z" fill="rgb(197,230,238)"/>
<path d="M27 31h1v1h-1v-1z" fill="rgb(57,90,98)"/>
<path d="M38 31h1v2h-1v-2z" fill="rgb(57,90,98)"/>
<path d="M45 31h1v1h-1v-1z" fill="rgb(90,148,180)"/>
<path d="M46 31h1v2h-1v1h-1v-2h1v-1z" fill="rgb(197,230,238)"/>
<path d="M47 31h1v1h-1v-1z" fill="rgb(139,197,205)"/>
<path d="M48 31h3v1h-3v-1z" fill="rgb(16,98,180)"/>
<path d="M54 31h2v1h-2v-1z" fill="rgb(57,90,98)"/>
<path d="M28 32h1v1h-1v-1z" fill="rgb(57,90,98)"/>
<path d="M41 32h1v4h-1v-4z" fill="rgb(90,148,180)"/>
<path d="M47 32h4v1h1v1h1v1h1v3h-1v2h-2v1h-2v-1h1v-1h1v-3h-1v-1h-3v1h-1v1h-1v1h-1v-2h1
	v-2h1v-1h1v-1z" fill="rgb(24,57,115)"/>
<path d="M51 32h1v1h-1v-1z" fill="rgb(16,98,180)"/>
<path d="M56 32h1v2h-1v-2z" fill="rgb(57,90,98)"/>
<path d="M26 33h1v1h-1v-1z" fill="rgb(90,148,180)"/>
<path d="M28 33h1v1h-1v-1z" fill="rgb(139,197,205)"/>
<path d="M29 33h1v1h-1v-1z" fill="rgb(90,148,180)"/>
<path d="M38 33h1v2h-1v-2z" fill="rgb(16,16,16)"/>
<path d="M44 33h1v1h-1v-1z" fill="rgb(90,148,180)"/>
<path d="M52 33h1v1h-1v-1z" fill="rgb(16,98,180)"/>
<path d="M55 33h1v1h-1v-1z" fill="rgb(90,148,180)"/>
<path d="M26 34h1v1h-1v-1z" fill="rgb(57,90,98)"/>
<path d="M55 34h1v1h-1v-1z" fill="rgb(57,90,98)"/>
<path d="M27 35h1v1h-1v-1z" fill="rgb(90,148,180)"/>
<path d="M34 35h2v1h-2v-1z" fill="rgb(90,148,180)"/>
<path d="M36 35h5v1h-5v-1z" fill="rgb(57,90,98)"/>
<path d="M44 35h1v1h-1v-1z" fill="rgb(16,98,180)"/>
<path d="M47 35h3v1h1v3h-1v1h-1v1h-2v1h-1v-2h-1v-3h1v-1h1v-1z" fill="rgb(74,131,246)"/>
<path d="M56 35h1v3h-1v-3z" fill="rgb(57,90,98)"/>
<path d="M27 36h1v1h-1v-1z" fill="rgb(57,90,98)"/>
<path d="M28 36h1v1h-1v-1z" fill="rgb(90,148,180)"/>
<path d="M33 36h1v1h-1v-1z" fill="rgb(90,148,180)"/>
<path d="M34 36h1v1h-1v-1z" fill="rgb(139,197,205)"/>
<path d="M35 36h5v2h-1v2h-1v2h-1v1h-1v1h-1v1h-1v1h-3v-1h-1v-2h-1v-2h1v-1h1v2h1v-3h1v-2h2
	v-1z" fill="rgb(197,230,238)"/>
<path d="M40 36h1v5h-1v-5z" fill="rgb(90,148,180)"/>
<path d="M57 36h1v1h-1v-1z" fill="rgb(90,148,180)"/>
<path d="M58 36h1v1h-1v-1z" fill="rgb(57,90,98)"/>
<path d="M28 37h1v1h-1v-1z" fill="rgb(57,90,98)"/>
<path d="M29 37h1v1h-1v-1z" fill="rgb(139,197,205)"/>
<path d="M32 37h1v1h-1v-1z" fill="rgb(90,148,180)"/>
<path d="M43 37h1v1h-1v-1z" fill="rgb(16,98,180)"/>
<path d="M57 37h2v4h-1v1h-2v-1h-1v-1h1v-2h1v-1z" fill="rgb(197,230,238)"/>
<path d="M59 37h1v3h-1v-3z" fill="rgb(57,90,98)"/>
<path d="M29 38h1v1h-1v-1z" fill="rgb(57,90,98)"/>
<path d="M30 38h1v1h-1v-1z" fill="rgb(139,197,205)"/>
<path d="M31 38h1v2h-2v-1h1v-1z" fill="rgb(90,148,180)"/>
<path d="M32 38h1v1h-1v-1z" fill="rgb(139,197,205)"/>
<path d="M39 38h1v3h2v-1h3v1h1v1h1v2h4v-1h3v1h1v1h1v-1h-1v-1h-1v-2h2v1h2v-1h1v4h-1v1h2v1
	h1v2h1v2h1v2h1v5h-1v1h-2v1h-1v1h-1v-1h-2v-1h-1v-1h-1v-4h-2v-2h-1v-1h-1v-1h-2v1
	h-1v-3h-1v2h-1v1h-1v2h-1v1h-1v1h-4v-1h3v-1h1v-2h1v-1h-4v2h-3v1h-2v1h-2v-1h1v-1
	h-1v-2h-2v-1h1v-2h-1v-1h3v-1h1v-1h1v-1h1v-1h1v-2h1v-2z" fill="rgb(139,197,205)"/>
<path d="M43 38h1v1h-1v-1z" fill="rgb(24,57,115)"/>
<path d="M44 38h1v1h-1v-1z" fill="rgb(16,98,180)"/>
<path d="M53 38h1v1h-1v-1z" fill="rgb(16,98,180)"/>
<path d="M55 38h1v2h-1v-2z" fill="rgb(57,90,98)"/>
<path d="M43 39h1v1h-1v-1z" fill="rgb(16,98,180)"/>
<path d="M44 39h1v1h-1v-1z" fill="rgb(57,90,98)"/>
<path d="M53 39h1v1h-1v-1z" fill="rgb(139,197,205)"/>
<path d="M54 39h1v1h-1v-1z" fill="rgb(90,148,180)"/>
<path d="M29 40h1v1h-1v-1z" fill="rgb(90,148,180)"/>
<path d="M31 40h1v2h-1v-2z" fill="rgb(139,197,205)"/>
<path d="M45 40h1v1h-1v-1z" fill="rgb(57,90,98)"/>
<path d="M51 40h1v1h-1v-1z" fill="rgb(16,98,180)"/>
<path d="M52 40h2v1h-1v1h-2v1h-3v1h-1v-2h3v-1h2v-1z" fill="rgb(90,148,180)"/>
<path d="M54 40h1v1h-1v-1z" fill="rgb(16,16,16)"/>
<path d="M59 40h1v4h-1v-4z" fill="rgb(16,16,16)"/>
<path d="M28 41h1v2h-1v-2z" fill="rgb(90,148,180)"/>
<path d="M47 41h2v1h-2v-1z" fill="rgb(24,57,115)"/>
<path d="M49 41h1v1h-1v-1z" fill="rgb(16,98,180)"/>
<path d="M53 41h1v1h-1v-1z" fill="rgb(16,16,16)"/>
<path d="M51 42h1v1h-1v-1z" fill="rgb(57,90,98)"/>
<path d="M52 42h1v1h-1v-1z" fill="rgb(16,16,16)"/>
<path d="M53 42h1v1h-1v-1z" fill="rgb(90,148,180)"/>
<path d="M29 43h1v1h-1v-1z" fill="rgb(90,148,180)"/>
<path d="M37 43h1v1h-1v-1z" fill="rgb(90,148,180)"/>
<path d="M48 43h1v1h-1v-1z" fill="rgb(57,90,98)"/>
<path d="M49 43h2v1h-2v-1z" fill="rgb(16,16,16)"/>
<path d="M54 43h1v1h-1v-1z" fill="rgb(90,148,180)"/>
<path d="M61 43h2v1h-2v-1z" fill="rgb(57,90,98)"/>
<path d="M29 44h1v1h-1v-1z" fill="rgb(57,90,98)"/>
<path d="M31 44h1v1h-1v-1z" fill="rgb(139,197,205)"/>
<path d="M38 44h1v2h-1v1h-1v-2h1v-1z" fill="rgb(197,230,238)"/>
<path d="M40 44h1v1h-1v-1z" fill="rgb(90,148,180)"/>
<path d="M41 44h1v1h-1v-1z" fill="rgb(57,90,98)"/>
<path d="M55 44h1v1h-1v-1z" fill="rgb(90,148,180)"/>
<path d="M59 44h2v1h-1v1h-1v-2z" fill="rgb(57,90,98)"/>
<path d="M61 44h2v2h-1v1h-1v-1h-1v-1h1v-1z" fill="rgb(139,197,205)"/>
<path d="M63 44h1v1h-1v-1z" fill="rgb(57,90,98)"/>
<path d="M30 45h1v1h-1v-1z" fill="rgb(16,16,16)"/>
<path d="M36 45h1v2h-1v-2z" fill="rgb(90,148,180)"/>
<path d="M39 45h1v1h-1v-1z" fill="rgb(90,148,180)"/>
<path d="M40 45h1v1h-1v-1z" fill="rgb(16,16,16)"/>
<path d="M41 45h1v1h1v1h-1v1h-1v-3z" fill="rgb(255,255,255)"/>
<path d="M42 45h1v1h-1v-1z" fill="rgb(90,148,180)"/>
<path d="M58 45h1v1h-1v-1z" fill="rgb(90,148,180)"/>
<path d="M63 45h1v2h-1v-2z" fill="rgb(16,16,16)"/>
<path d="M30 46h1v1h-1v-1z" fill="rgb(197,32,16)"/>
<path d="M38 46h1v1h-1v-1z" fill="rgb(16,16,16)"/>
<path d="M39 46h1v1h-1v-1z" fill="rgb(197,32,16)"/>
<path d="M40 46h1v1h-1v-1z" fill="rgb(255,156,139)"/>
<path d="M52 46h1v1h-1v-1z" fill="rgb(90,148,180)"/>
<path d="M53 46h1v1h2v1h-1v1h-1v-1h-1v-2z" fill="rgb(57,90,98)"/>
<path d="M54 46h1v1h-1v-1z" fill="rgb(90,148,180)"/>
<path d="M60 46h1v1h-1v-1z" fill="rgb(57,90,98)"/>
<path d="M62 46h1v1h-1v-1z" fill="rgb(90,148,180)"/>
<path d="M29 47h1v1h-1v-1z" fill="rgb(57,90,98)"/>
<path d="M30 47h1v1h-1v-1z" fill="rgb(238,74,57)"/>
<path d="M31 47h1v2h-2v-1h1v-1z" fill="rgb(90,148,180)"/>
<path d="M38 47h1v1h-1v-1z" fill="rgb(197,32,16)"/>
<path d="M39 47h1v1h-1v-1z" fill="rgb(255,255,255)"/>
<path d="M40 47h1v2h-1v-2z" fill="rgb(197,32,16)"/>
<path d="M42 47h1v1h-1v-1z" fill="rgb(197,230,238)"/>
<path d="M43 47h1v1h-1v-1z" fill="rgb(90,148,180)"/>
<path d="M61 47h1v1h-1v-1z" fill="rgb(90,148,180)"/>
<path d="M62 47h1v1h-1v-1z" fill="rgb(57,90,98)"/>
<path d="M69 47h2v1h-2v-1z" fill="rgb(90,148,180)"/>
<path d="M28 48h1v2h-1v-2z" fill="rgb(57,90,98)"/>
<path d="M29 48h1v1h-1v-1z" fill="rgb(139,197,205)"/>
<path d="M37 48h1v1h-1v-1z" fill="rgb(57,90,98)"/>
<path d="M38 48h1v1h-1v-1z" fill="rgb(238,74,57)"/>
<path d="M39 48h1v1h-1v-1z" fill="rgb(255,156,139)"/>
<path d="M42 48h1v1h-1v-1z" fill="rgb(90,148,180)"/>
<path d="M47 48h1v1h-1v-1z" fill="rgb(90,148,180)"/>
<path d="M55 48h1v1h-1v-1z" fill="rgb(90,148,180)"/>
<path d="M61 48h1v1h-1v-1z" fill="rgb(57,90,98)"/>
<path d="M62 48h1v2h-1v-2z" fill="rgb(16,16,16)"/>
<path d="M66 48h2v1h-2v-1z" fill="rgb(57,90,98)"/>
<path d="M68 48h1v1h-1v-1z" fill="rgb(90,148,180)"/>
<path d="M69 48h2v2h-3v-1h1v-1z" fill="rgb(139,197,205)"/>
<path d="M71 48h1v2h-1v-2z" fill="rgb(57,90,98)"/>
<path d="M29 49h2v1h2v2h-1v1h-1v-1h-1v-2h-1v-1z" fill="rgb(197,230,238)"/>
<path d="M47 49h1v1h-1v-1z" fill="rgb(57,90,98)"/>
<path d="M63 49h2v1h-2v-1z" fill="rgb(57,90,98)"/>
<path d="M65 49h3v1h3v1h-1v2h-1v1h-1v2h-1v1h-1v-1h-1v-3h-1v-2h-1v-1h2v-1z" fill="rgb(90,148,180)"/>
<path d="M28 50h1v1h-1v-1z" fill="rgb(90,148,180)"/>
<path d="M29 50h1v2h-1v-2z" fill="rgb(57,90,98)"/>
<path d="M40 50h1v1h-1v-1z" fill="rgb(90,148,180)"/>
<path d="M41 50h1v1h-1v-1z" fill="rgb(57,90,98)"/>
<path d="M42 50h1v1h-1v-1z" fill="rgb(16,16,16)"/>
<path d="M43 50h1v1h-1v-1z" fill="rgb(57,90,98)"/>
<path d="M46 50h2v1h-2v-1z" fill="rgb(90,148,180)"/>
<path d="M49 50h2v1h-2v-1z" fill="rgb(90,148,180)"/>
<path d="M59 50h2v1h-2v-1z" fill="rgb(90,148,180)"/>
<path d="M62 50h1v1h-1v-1z" fill="rgb(57,90,98)"/>
<path d="M71 50h1v1h-1v-1z" fill="rgb(16,16,16)"/>
<path d="M27 51h1v2h-1v-2z" fill="rgb(90,148,180)"/>
<path d="M28 51h1v1h1v1h1v1h-2v1h-2v-2h1v-2z" fill="rgb(197,230,238)"/>
<path d="M40 51h1v1h-1v-1z" fill="rgb(16,16,16)"/>
<path d="M41 51h1v1h-1v-1z" fill="rgb(255,255,255)"/>
<path d="M42 51h1v1h-1v-1z" fill="rgb(57,90,98)"/>
<path d="M45 51h1v2h-1v-2z" fill="rgb(57,90,98)"/>
<path d="M46 51h2v1h-1v2h-2v-1h1v-2z" fill="rgb(139,197,205)"/>
<path d="M48 51h2v1h1v2h-1v1h-1v-1h-2v-2h1v-1z" fill="rgb(197,230,238)"/>
<path d="M50 51h1v1h-1v-1z" fill="rgb(139,197,205)"/>
<path d="M51 51h1v1h-1v-1z" fill="rgb(90,148,180)"/>
<path d="M58 51h1v2h-1v-2z" fill="rgb(90,148,180)"/>
<path d="M59 51h2v4h-1v-1h-1v-3z" fill="rgb(57,90,98)"/>
<path d="M63 51h1v1h-1v-1z" fill="rgb(16,16,16)"/>
<path d="M70 51h1v1h-1v-1z" fill="rgb(57,90,98)"/>
<path d="M30 52h1v1h-1v-1z" fill="rgb(57,90,98)"/>
<path d="M32 52h1v1h-1v-1z" fill="rgb(139,197,205)"/>
<path d="M33 52h1v1h-1v-1z" fill="rgb(90,148,180)"/>
<path d="M37 52h2v1h-2v-1z" fill="rgb(57,90,98)"/>
<path d="M39 52h1v1h-1v-1z" fill="rgb(16,16,16)"/>
<path d="M40 52h1v1h-1v-1z" fill="rgb(197,32,16)"/>
<path d="M41 52h1v1h-1v-1z" fill="rgb(213,213,213)"/>
<path d="M42 52h1v1h-1v-1z" fill="rgb(90,148,180)"/>
<path d="M51 52h1v4h-1v2h-1v-2h-1v-1h1v-1h1v-2z" fill="rgb(139,197,205)"/>
<path d="M52 52h1v1h-1v-1z" fill="rgb(90,148,180)"/>
<path d="M55 52h1v2h-1v-2z" fill="rgb(90,148,180)"/>
<path d="M61 52h1v3h-1v-3z" fill="rgb(90,148,180)"/>
<path d="M63 52h1v1h-1v-1z" fill="rgb(57,90,98)"/>
<path d="M70 52h1v1h-1v-1z" fill="rgb(16,16,16)"/>
<path d="M26 53h1v1h-1v-1z" fill="rgb(90,148,180)"/>
<path d="M31 53h1v1h-1v-1z" fill="rgb(57,90,98)"/>
<path d="M32 53h1v1h-1v-1z" fill="rgb(16,16,16)"/>
<path d="M35 53h1v1h-1v-1z" fill="rgb(57,90,98)"/>
<path d="M36 53h1v1h-1v-1z" fill="rgb(16,16,16)"/>
<path d="M37 53h1v1h-1v-1z" fill="rgb(197,32,16)"/>
<path d="M38 53h2v1h-2v-1z" fill="rgb(238,74,57)"/>
<path d="M40 53h1v1h-1v-1z" fill="rgb(57,90,98)"/>
<path d="M41 53h1v1h-1v-1z" fill="rgb(90,148,180)"/>
<path d="M44 53h1v1h1v1h-1v1h-1v-1h-1v-1h1v-1z" fill="rgb(57,90,98)"/>
<path d="M52 53h1v2h-1v-2z" fill="rgb(57,90,98)"/>
<path d="M64 53h1v2h-1v-2z" fill="rgb(16,16,16)"/>
<path d="M69 53h1v1h-1v-1z" fill="rgb(16,16,16)"/>
<path d="M25 54h1v2h-1v-2z" fill="rgb(131,131,131)"/>
<path d="M26 54h1v1h-1v-1z" fill="rgb(57,90,98)"/>
<path d="M29 54h3v1h-2v1h-1v-2z" fill="rgb(139,197,205)"/>
<path d="M32 54h1v1h-1v-1z" fill="rgb(57,90,98)"/>
<path d="M33 54h2v1h-2v-1z" fill="rgb(16,16,16)"/>
<path d="M36 54h3v1h-3v-1z" fill="rgb(57,90,98)"/>
<path d="M46 54h1v1h-1v-1z" fill="rgb(90,148,180)"/>
<path d="M47 54h2v1h-1v1h-1v-2z" fill="rgb(139,197,205)"/>
<path d="M53 54h1v4h1v2h1v1h-2v1h-5v-1h1v-2h1v-1h1v-2h1v-2z" fill="rgb(197,230,238)"/>
<path d="M54 54h1v4h-1v-4z" fill="rgb(57,90,98)"/>
<path d="M59 54h1v1h-1v-1z" fill="rgb(90,148,180)"/>
<path d="M68 54h1v2h-1v-2z" fill="rgb(16,16,16)"/>
<path d="M26 55h1v1h-1v-1z" fill="rgb(213,213,213)"/>
<path d="M27 55h2v1h-2v-1z" fill="rgb(90,148,180)"/>
<path d="M30 55h1v1h-1v-1z" fill="rgb(90,148,180)"/>
<path d="M31 55h1v2h-1v-2z" fill="rgb(16,16,16)"/>
<path d="M39 55h2v1h-2v-1z" fill="rgb(16,16,16)"/>
<path d="M41 55h1v2h-1v-2z" fill="rgb(57,90,98)"/>
<path d="M42 55h2v1h-1v1h-1v-2z" fill="rgb(197,230,238)"/>
<path d="M45 55h2v1h2v2h-1v1h-1v1h-2v-1h-1v-2h1v-2z" fill="rgb(197,230,238)"/>
<path d="M48 55h1v1h-1v-1z" fill="rgb(90,148,180)"/>
<path d="M52 55h1v1h-1v-1z" fill="rgb(16,16,16)"/>
<path d="M57 55h2v1h-2v-1z" fill="rgb(90,148,180)"/>
<path d="M64 55h1v1h-1v-1z" fill="rgb(57,90,98)"/>
<path d="M25 56h1v1h-1v-1z" fill="rgb(16,16,16)"/>
<path d="M26 56h1v1h-1v-1z" fill="rgb(131,131,131)"/>
<path d="M27 56h2v1h-1v1h-1v-2z" fill="rgb(255,255,255)"/>
<path d="M29 56h1v1h-1v-1z" fill="rgb(16,16,16)"/>
<path d="M30 56h1v1h-1v-1z" fill="rgb(255,255,255)"/>
<path d="M39 56h1v1h-1v-1z" fill="rgb(57,90,98)"/>
<path d="M40 56h1v1h1v3h-1v2h-1v-2h-1v-3h1v-1z" fill="rgb(90,148,180)"/>
<path d="M43 56h1v2h-1v2h-1v-3h1v-1z" fill="rgb(57,90,98)"/>
<path d="M44 56h1v1h-1v-1z" fill="rgb(139,197,205)"/>
<path d="M49 56h1v1h-1v-1z" fill="rgb(90,148,180)"/>
<path d="M51 56h1v1h-1v-1z" fill="rgb(57,90,98)"/>
<path d="M57 56h3v1h-1v2h-1v-2h-1v-1z" fill="rgb(57,90,98)"/>
<path d="M64 56h1v7h-1v1h-1v-1h-2v1h-2v-1h-1v-1h-1v-2h2v1h1v1h1v-1h1v-1h-1v-1h2v-1h1v-2z" fill="rgb(90,148,180)"/>
<path d="M65 56h1v1h-1v-1z" fill="rgb(57,90,98)"/>
<path d="M67 56h1v1h-1v-1z" fill="rgb(16,16,16)"/>
<path d="M26 57h1v1h-1v-1z" fill="rgb(16,16,16)"/>
<path d="M28 57h1v1h-1v-1z" fill="rgb(16,16,16)"/>
<path d="M30 57h1v1h-1v-1z" fill="rgb(16,16,16)"/>
<path d="M38 57h1v2h-1v-2z" fill="rgb(57,90,98)"/>
<path d="M49 57h1v1h-1v-1z" fill="rgb(57,90,98)"/>
<path d="M51 57h1v1h-1v-1z" fill="rgb(16,16,16)"/>
<path d="M57 57h1v1h-1v-1z" fill="rgb(90,148,180)"/>
<path d="M59 57h1v1h-1v-1z" fill="rgb(90,148,180)"/>
<path d="M65 57h2v1h-1v1h-1v-2z" fill="rgb(16,16,16)"/>
<path d="M27 58h1v1h-1v-1z" fill="rgb(16,16,16)"/>
<path d="M43 58h1v1h1v1h2v-1h1v-1h2v1h-1v2h-1v2h-2v1h-1v1h-1v-1h-1v-1h-1v-3h1v-2z" fill="rgb(139,197,205)"/>
<path d="M50 58h1v1h-1v-1z" fill="rgb(16,16,16)"/>
<path d="M55 58h1v2h-1v-2z" fill="rgb(57,90,98)"/>
<path d="M38 59h1v2h-1v-2z" fill="rgb(16,16,16)"/>
<path d="M49 59h1v1h-1v-1z" fill="rgb(57,90,98)"/>
<path d="M56 59h1v1h-1v-1z" fill="rgb(90,148,180)"/>
<path d="M65 59h1v2h-1v-2z" fill="rgb(57,90,98)"/>
<path d="M39 60h1v1h-1v-1z" fill="rgb(57,90,98)"/>
<path d="M41 60h1v4h-1v-4z" fill="rgb(57,90,98)"/>
<path d="M49 60h1v1h-1v-1z" fill="rgb(16,16,16)"/>
<path d="M56 60h1v2h-1v-2z" fill="rgb(57,90,98)"/>
<path d="M60 60h1v1h-1v-1z" fill="rgb(90,148,180)"/>
<path d="M61 60h1v1h-1v-1z" fill="rgb(139,197,205)"/>
<path d="M39 61h1v1h-1v-1z" fill="rgb(16,16,16)"/>
<path d="M48 61h1v1h-1v-1z" fill="rgb(57,90,98)"/>
<path d="M54 61h1v1h-1v-1z" fill="rgb(139,197,205)"/>
<path d="M55 61h1v1h-1v-1z" fill="rgb(16,16,16)"/>
<path d="M60 61h1v1h-1v-1z" fill="rgb(139,197,205)"/>
<path d="M65 61h1v1h-1v-1z" fill="rgb(16,16,16)"/>
<path d="M39 62h1v3h-1v-3z" fill="rgb(131,131,131)"/>
<path d="M40 62h1v1h-1v-1z" fill="rgb(16,16,16)"/>
<path d="M48 62h1v1h-1v-1z" fill="rgb(16,16,16)"/>
<path d="M49 62h6v1h-6v-1z" fill="rgb(57,90,98)"/>
<path d="M57 62h1v1h-1v-1z" fill="rgb(16,16,16)"/>
<path d="M65 62h1v2h-1v1h-1v-2h1v-1z" fill="rgb(57,90,98)"/>
<path d="M40 63h1v1h-1v-1z" fill="rgb(255,255,255)"/>
<path d="M42 63h1v1h-1v-1z" fill="rgb(90,148,180)"/>
<path d="M46 63h1v1h-1v-1z" fill="rgb(90,148,180)"/>
<path d="M47 63h1v2h-1v-2z" fill="rgb(16,16,16)"/>
<path d="M58 63h1v1h-1v-1z" fill="rgb(57,90,98)"/>
<path d="M61 63h2v1h-2v-1z" fill="rgb(57,90,98)"/>
<path d="M40 64h2v1h-2v-1z" fill="rgb(16,16,16)"/>
<path d="M42 64h1v1h-1v-1z" fill="rgb(213,213,213)"/>
<path d="M43 64h1v1h-1v-1z" fill="rgb(90,148,180)"/>
<path d="M45 64h1v1h-1v-1z" fill="rgb(90,148,180)"/>
<path d="M46 64h1v2h-1v-2z" fill="rgb(213,213,213)"/>
<path d="M57 64h1v2h-1v-2z" fill="rgb(131,131,131)"/>
<path d="M58 64h1v1h-1v-1z" fill="rgb(213,213,213)"/>
<path d="M59 64h1v1h-1v-1z" fill="rgb(57,90,98)"/>
<path d="M60 64h4v1h-4v-1z" fill="rgb(213,213,213)"/>
<path d="M65 64h1v1h-1v-1z" fill="rgb(213,213,213)"/>
<path d="M66 64h1v2h-2v-1h1v-1z" fill="rgb(16,16,16)"/>
<path d="M41 65h1v2h-1v-2z" fill="rgb(131,131,131)"/>
<path d="M42 65h1v1h-1v-1z" fill="rgb(255,255,255)"/>
<path d="M43 65h1v1h-1v-1z" fill="rgb(16,16,16)"/>
<path d="M44 65h1v1h-1v-1z" fill="rgb(57,90,98)"/>
<path d="M45 65h1v1h-1v-1z" fill="rgb(255,255,255)"/>
<path d="M47 65h1v1h-1v-1z" fill="rgb(131,131,131)"/>
<path d="M58 65h2v1h-2v-1z" fill="rgb(16,16,16)"/>
<path d="M60 65h1v2h-1v-2z" fill="rgb(131,131,131)"/>
<path d="M61 65h2v1h-2v-1z" fill="rgb(255,255,255)"/>
<path d="M63 65h1v1h-1v-1z" fill="rgb(16,16,16)"/>
<path d="M42 66h1v1h-1v-1z" fill="rgb(16,16,16)"/>
<path d="M45 66h1v1h-1v-1z" fill="rgb(16,16,16)"/>
<path d="M46 66h1v1h-1v-1z" fill="rgb(131,131,131)"/>
<path d="M61 66h2v1h-2v-1z" fill="rgb(16,16,16)"/>
</svg>
