<?xml version="1.0" encoding="utf-8"?>
<!-- generated at drububu.com  -->
<!DOCTYPE svg PUBLIC "-//W3C//DTD SVG 1.1//EN" "http://www.w3.org/Graphics/SVG/1.1/DTD/svg11.dtd">
<svg version="1.1" preserveAspectRatio="xMinYMin meet" xmlns="http://www.w3.org/2000/svg" xmlns:xlink="http://www.w3.org/1999/xlink" x="0px" y="0px" width="96px" height="96px" viewBox="0 0 96 96">
<path d="M0 0h96v96h-96v-96z" fill="transparent"/>
<path d="M55 13h1v1h-1v-1z" fill="rgb(98,139,172)"/>
<path d="M56 13h4v1h-4v-1z" fill="rgb(49,74,74)"/>
<path d="M52 14h3v1h-3v-1z" fill="rgb(98,139,172)"/>
<path d="M55 14h5v1h-1v1h-1v2h1v6h-1v-5h-1v-1h-1v-1h-3v1h-2v1h-1v1h-1v1h-1v3h1v1h1v1h1v1
	h3v-1h2v2h-2v1h-3v2h-1v2h-1v-1h-1v-1h-1v-1h-7v-1h-7v1h-1v1h-2v-3h3v-1h3v-1h1
	v-2h1v2h2v1h4v-1h1v-4h-3v1h-2v-1h-2v-1h-1v-1h1v-1h6v1h2v2h1v-2h1v-2h1v-1h1v-1h2
	v-1h3v-1z" fill="rgb(90,180,205)"/>
<path d="M60 14h1v1h-1v-1z" fill="rgb(49,74,74)"/>
<path d="M42 15h2v1h-2v-1z" fill="rgb(49,74,74)"/>
<path d="M46 15h2v1h-2v-1z" fill="rgb(98,139,172)"/>
<path d="M50 15h2v1h-2v-1z" fill="rgb(98,139,172)"/>
<path d="M59 15h1v1h-1v-1z" fill="rgb(49,74,74)"/>
<path d="M30 16h2v1h-2v-1z" fill="rgb(98,139,172)"/>
<path d="M40 16h1v1h-1v-1z" fill="rgb(49,74,74)"/>
<path d="M41 16h1v1h-1v-1z" fill="rgb(98,139,172)"/>
<path d="M42 16h1v1h-1v-1z" fill="rgb(90,180,205)"/>
<path d="M43 16h1v2h-2v-1h1v-1z" fill="rgb(98,139,172)"/>
<path d="M44 16h1v2h-1v-2z" fill="rgb(49,74,74)"/>
<path d="M45 16h1v1h-1v-1z" fill="rgb(98,139,172)"/>
<path d="M46 16h1v1h-1v-1z" fill="rgb(156,213,222)"/>
<path d="M47 16h1v1h-1v-1z" fill="rgb(49,74,74)"/>
<path d="M49 16h1v1h-1v-1z" fill="rgb(98,139,172)"/>
<path d="M58 16h1v2h-1v-2z" fill="rgb(49,74,74)"/>
<path d="M30 17h1v2h-1v-2z" fill="rgb(49,74,74)"/>
<path d="M31 17h1v1h-1v-1z" fill="rgb(156,213,222)"/>
<path d="M32 17h1v1h-1v-1z" fill="rgb(98,139,172)"/>
<path d="M33 17h1v1h-1v-1z" fill="rgb(49,74,74)"/>
<path d="M39 17h1v1h4v1h-6v-1h1v-1z" fill="rgb(49,74,74)"/>
<path d="M40 17h2v1h-2v-1z" fill="rgb(90,180,205)"/>
<path d="M45 17h1v1h-1v-1z" fill="rgb(156,213,222)"/>
<path d="M46 17h1v3h-1v-1h-2v-1h2v-1z" fill="rgb(90,180,205)"/>
<path d="M47 17h1v1h-1v-1z" fill="rgb(98,139,172)"/>
<path d="M48 17h1v1h-1v-1z" fill="rgb(49,74,74)"/>
<path d="M53 17h3v1h-3v-1z" fill="rgb(49,74,74)"/>
<path d="M31 18h1v1h-1v-1z" fill="rgb(90,180,205)"/>
<path d="M32 18h2v1h2v1h1v1h1v2h-1v3h-1v1h-2v-1h-1v1h-1v1h-2v-1h1v-2h1v-2h2v-1h1v-1h-1
	v-1h-1v-1h-1v-1z" fill="rgb(156,213,222)"/>
<path d="M34 18h2v1h-2v-1z" fill="rgb(49,74,74)"/>
<path d="M47 18h1v1h-1v-1z" fill="rgb(49,74,74)"/>
<path d="M51 18h2v1h-2v-1z" fill="rgb(16,16,16)"/>
<path d="M53 18h3v1h1v5h-1v1h-2v-1h1v-4h-1v-1h-1v-1z" fill="rgb(189,172,90)"/>
<path d="M56 18h1v1h-1v-1z" fill="rgb(49,74,74)"/>
<path d="M59 18h1v1h-1v-1z" fill="rgb(98,139,172)"/>
<path d="M31 19h1v2h-1v-2z" fill="rgb(49,74,74)"/>
<path d="M32 19h1v1h1v1h1v1h-1v1h-1v-2h-1v-2z" fill="rgb(90,180,205)"/>
<path d="M36 19h2v1h-2v-1z" fill="rgb(49,74,74)"/>
<path d="M44 19h2v1h-2v-1z" fill="rgb(98,139,172)"/>
<path d="M47 19h1v1h-1v-1z" fill="rgb(98,139,172)"/>
<path d="M50 19h1v1h-1v-1z" fill="rgb(16,16,16)"/>
<path d="M51 19h3v1h1v4h-1v2h-4v-1h-1v-1h-1v-1h1v-2h1v-1h1v-1z" fill="rgb(115,90,41)"/>
<path d="M57 19h1v1h-1v-1z" fill="rgb(98,139,172)"/>
<path d="M59 19h1v2h-1v-2z" fill="rgb(49,74,74)"/>
<path d="M46 20h1v1h-1v-1z" fill="rgb(49,74,74)"/>
<path d="M49 20h1v1h-1v-1z" fill="rgb(16,16,16)"/>
<path d="M57 20h1v3h-1v-3z" fill="rgb(49,74,74)"/>
<path d="M32 21h1v1h-1v-1z" fill="rgb(49,74,74)"/>
<path d="M46 21h1v1h-1v-1z" fill="rgb(98,139,172)"/>
<path d="M48 21h1v1h-1v-1z" fill="rgb(16,16,16)"/>
<path d="M59 21h1v3h-1v-3z" fill="rgb(16,16,16)"/>
<path d="M32 22h1v1h-1v-1z" fill="rgb(98,139,172)"/>
<path d="M38 22h1v1h-1v-1z" fill="rgb(98,139,172)"/>
<path d="M39 22h1v2h-1v1h-1v-2h1v-1z" fill="rgb(156,213,222)"/>
<path d="M42 22h2v1h-2v-1z" fill="rgb(49,74,74)"/>
<path d="M44 22h1v1h-1v-1z" fill="rgb(98,139,172)"/>
<path d="M48 22h1v1h-1v-1z" fill="rgb(49,74,74)"/>
<path d="M31 23h1v2h-1v-2z" fill="rgb(98,139,172)"/>
<path d="M37 23h1v1h-1v-1z" fill="rgb(98,139,172)"/>
<path d="M40 23h2v1h-2v-1z" fill="rgb(98,139,172)"/>
<path d="M42 23h1v1h-1v-1z" fill="rgb(255,255,255)"/>
<path d="M43 23h1v1h-1v-1z" fill="rgb(213,213,213)"/>
<path d="M44 23h1v2h-1v-2z" fill="rgb(49,74,74)"/>
<path d="M57 23h1v1h-1v-1z" fill="rgb(98,139,172)"/>
<path d="M39 24h1v1h-1v-1z" fill="rgb(49,74,74)"/>
<path d="M40 24h2v1h1v1h-2v-1h-1v-1z" fill="rgb(16,16,16)"/>
<path d="M42 24h1v1h-1v-1z" fill="rgb(115,90,41)"/>
<path d="M43 24h1v2h-1v-2z" fill="rgb(255,255,255)"/>
<path d="M56 24h1v1h-1v-1z" fill="rgb(98,139,172)"/>
<path d="M57 24h1v2h-2v-1h1v-1z" fill="rgb(90,180,205)"/>
<path d="M58 24h1v2h-1v-2z" fill="rgb(16,16,16)"/>
<path d="M30 25h1v2h-1v-2z" fill="rgb(98,139,172)"/>
<path d="M38 25h1v1h-1v-1z" fill="rgb(49,74,74)"/>
<path d="M39 25h1v1h-1v-1z" fill="rgb(115,90,41)"/>
<path d="M40 25h1v1h-1v-1z" fill="rgb(255,255,255)"/>
<path d="M44 25h1v1h-1v-1z" fill="rgb(98,139,172)"/>
<path d="M54 25h1v1h-1v-1z" fill="rgb(49,74,74)"/>
<path d="M55 25h1v1h-1v-1z" fill="rgb(98,139,172)"/>
<path d="M33 26h1v1h-1v-1z" fill="rgb(98,139,172)"/>
<path d="M40 26h4v1h-4v-1z" fill="rgb(98,139,172)"/>
<path d="M51 26h3v1h-3v-1z" fill="rgb(16,16,16)"/>
<path d="M56 26h1v1h-1v-1z" fill="rgb(98,139,172)"/>
<path d="M57 26h1v1h-1v-1z" fill="rgb(16,16,16)"/>
<path d="M29 27h1v1h-1v-1z" fill="rgb(98,139,172)"/>
<path d="M32 27h1v1h-1v-1z" fill="rgb(98,139,172)"/>
<path d="M56 27h1v1h-1v-1z" fill="rgb(16,16,16)"/>
<path d="M29 28h1v2h-1v-2z" fill="rgb(49,74,74)"/>
<path d="M54 28h2v1h-2v-1z" fill="rgb(16,16,16)"/>
<path d="M33 29h1v1h-1v-1z" fill="rgb(98,139,172)"/>
<path d="M34 29h1v1h-1v-1z" fill="rgb(49,74,74)"/>
<path d="M35 29h3v1h-3v-1z" fill="rgb(16,16,16)"/>
<path d="M38 29h1v1h-1v-1z" fill="rgb(49,74,74)"/>
<path d="M39 29h1v1h-1v-1z" fill="rgb(98,139,172)"/>
<path d="M51 29h1v1h3v1h1v2h1v2h1v2h1v2h1v2h1v2h1v2h-2v1h-1v1h-1v1h-1v-2h-1v-1h-1v-1h-2
	v-1h-10v1h-1v-3h-1v-1h-1v-1h-1v-1h6v-1h2v-1h1v-1h1v-2h1v-2h1v-2z" fill="rgb(98,139,172)"/>
<path d="M52 29h2v1h-2v-1z" fill="rgb(16,16,16)"/>
<path d="M54 29h2v2h-1v-1h-1v-1z" fill="rgb(49,74,74)"/>
<path d="M32 30h2v1h-2v-1z" fill="rgb(49,74,74)"/>
<path d="M34 30h6v1h7v1h1v3h-1v1h-2v1h-8v-1h-2v-1h-1v-1h-1v-2h-1v-1h2v-1z" fill="rgb(230,205,139)"/>
<path d="M40 30h1v1h-1v-1z" fill="rgb(16,16,16)"/>
<path d="M41 30h1v1h-1v-1z" fill="rgb(49,74,74)"/>
<path d="M42 30h2v1h-2v-1z" fill="rgb(98,139,172)"/>
<path d="M44 30h3v1h-3v-1z" fill="rgb(115,90,41)"/>
<path d="M30 31h1v1h-1v-1z" fill="rgb(49,74,74)"/>
<path d="M31 31h1v1h-1v-1z" fill="rgb(16,16,16)"/>
<path d="M47 31h1v1h-1v-1z" fill="rgb(115,90,41)"/>
<path d="M56 31h1v2h-1v-2z" fill="rgb(49,74,74)"/>
<path d="M32 32h1v2h-1v-2z" fill="rgb(115,90,41)"/>
<path d="M48 32h1v1h-1v-1z" fill="rgb(115,90,41)"/>
<path d="M48 33h1v2h-1v-2z" fill="rgb(16,16,16)"/>
<path d="M57 33h1v2h-1v-2z" fill="rgb(49,74,74)"/>
<path d="M33 34h1v1h-1v-1z" fill="rgb(115,90,41)"/>
<path d="M34 35h1v1h-1v-1z" fill="rgb(115,90,41)"/>
<path d="M47 35h1v1h-1v-1z" fill="rgb(115,90,41)"/>
<path d="M58 35h1v2h-1v-2z" fill="rgb(49,74,74)"/>
<path d="M35 36h2v1h-2v-1z" fill="rgb(115,90,41)"/>
<path d="M45 36h2v1h-2v-1z" fill="rgb(16,16,16)"/>
<path d="M37 37h6v1h-6v-1z" fill="rgb(115,90,41)"/>
<path d="M43 37h2v1h-2v-1z" fill="rgb(16,16,16)"/>
<path d="M59 37h1v2h-1v-2z" fill="rgb(49,74,74)"/>
<path d="M60 37h2v1h-2v-1z" fill="rgb(16,16,16)"/>
<path d="M36 38h3v1h-3v-1z" fill="rgb(49,74,74)"/>
<path d="M60 38h2v1h2v2h1v4h-1v1h-1v-3h-1v-2h-1v-2h-1v-1z" fill="rgb(98,139,172)"/>
<path d="M62 38h2v1h-2v-1z" fill="rgb(49,74,74)"/>
<path d="M34 39h2v1h-2v-1z" fill="rgb(98,139,172)"/>
<path d="M36 39h1v2h-1v1h-2v-2h2v-1z" fill="rgb(156,213,222)"/>
<path d="M37 39h2v1h1v1h1v5h-1v1h-3v-1h1v-1h1v-4h-1v-1h-1v-1z" fill="rgb(98,139,172)"/>
<path d="M39 39h1v1h-1v-1z" fill="rgb(49,74,74)"/>
<path d="M60 39h1v2h-1v-2z" fill="rgb(49,74,74)"/>
<path d="M64 39h1v1h1v1h-2v-2z" fill="rgb(49,74,74)"/>
<path d="M70 39h6v1h-6v-1z" fill="rgb(49,74,74)"/>
<path d="M33 40h1v1h-1v-1z" fill="rgb(98,139,172)"/>
<path d="M37 40h1v1h1v4h-1v1h-2v-2h-1v-1h-1v-1h2v-1h1v-1z" fill="rgb(90,180,205)"/>
<path d="M40 40h1v1h-1v-1z" fill="rgb(49,74,74)"/>
<path d="M68 40h2v1h-2v-1z" fill="rgb(49,74,74)"/>
<path d="M70 40h6v1h1v2h-1v1h-2v-1h-1v-1h-1v-1h-2v-1z" fill="rgb(90,180,205)"/>
<path d="M76 40h1v1h-1v-1z" fill="rgb(49,74,74)"/>
<path d="M77 40h1v1h-1v-1z" fill="rgb(16,16,16)"/>
<path d="M20 41h4v1h-4v-1z" fill="rgb(98,139,172)"/>
<path d="M24 41h4v1h-4v-1z" fill="rgb(49,74,74)"/>
<path d="M32 41h1v1h-1v-1z" fill="rgb(98,139,172)"/>
<path d="M33 41h1v1h-1v-1z" fill="rgb(90,180,205)"/>
<path d="M41 41h1v1h-1v-1z" fill="rgb(49,74,74)"/>
<path d="M61 41h1v2h-1v-2z" fill="rgb(49,74,74)"/>
<path d="M65 41h1v3h-1v-3z" fill="rgb(16,16,16)"/>
<path d="M66 41h2v1h-2v-1z" fill="rgb(49,74,74)"/>
<path d="M68 41h4v1h1v1h1v1h2v-1h1v-2h1v1h1v7h-2v1h-2v1h-5v-1h-2v-1h1v-1h1v-5h-1v-1h-1
	v-1z" fill="rgb(98,139,172)"/>
<path d="M78 41h3v1h-3v-1z" fill="rgb(49,74,74)"/>
<path d="M18 42h2v1h-2v-1z" fill="rgb(98,139,172)"/>
<path d="M20 42h8v1h-7v1h-1v1h-2v-2h2v-1z" fill="rgb(156,213,222)"/>
<path d="M28 42h3v1h-3v-1z" fill="rgb(49,74,74)"/>
<path d="M31 42h1v1h-1v-1z" fill="rgb(16,16,16)"/>
<path d="M32 42h1v1h-1v-1z" fill="rgb(49,74,74)"/>
<path d="M33 42h1v1h-1v-1z" fill="rgb(98,139,172)"/>
<path d="M41 42h1v3h-1v-3z" fill="rgb(16,16,16)"/>
<path d="M66 42h2v1h1v5h-1v1h-2v-1h-1v-1h-1v-1h1v-1h1v-3z" fill="rgb(98,139,172)"/>
<path d="M68 42h1v1h-1v-1z" fill="rgb(49,74,74)"/>
<path d="M79 42h1v1h-1v-1z" fill="rgb(213,213,213)"/>
<path d="M80 42h1v1h-1v-1z" fill="rgb(255,255,255)"/>
<path d="M81 42h1v1h-1v-1z" fill="rgb(16,16,16)"/>
<path d="M17 43h1v1h-1v-1z" fill="rgb(98,139,172)"/>
<path d="M21 43h2v1h-2v-1z" fill="rgb(98,139,172)"/>
<path d="M23 43h8v3h-2v1h-5v-3h-1v-1z" fill="rgb(90,180,205)"/>
<path d="M31 43h1v1h-1v-1z" fill="rgb(49,74,74)"/>
<path d="M32 43h1v1h-1v-1z" fill="rgb(16,16,16)"/>
<path d="M33 43h1v1h1v2h-1v-1h-1v-2z" fill="rgb(90,180,205)"/>
<path d="M34 43h1v1h-1v-1z" fill="rgb(49,74,74)"/>
<path d="M43 43h10v1h2v1h1v1h1v2h-1v1h-1v2h-1v4h1v1h1v1h1v2h-1v2h-1v1h-7v-1h-4v-1h-3v-1
	h-3v1h-1v2h-1v1h-1v1h-1v1h-5v-4h1v2h3v-1h1v-1h1v-2h-1v-1h-2v-1h2v-1h2v-1h1v-1h2
	v1h1v1h1v1h2v1h4v-1h2v-1h1v-1h1v-5h-1v-1h-1v-1h-2v-1h-3v-1h-1v-1h-1v-1h1v-1z" fill="rgb(90,180,205)"/>
<path d="M62 43h1v3h-1v-3z" fill="rgb(49,74,74)"/>
<path d="M69 43h1v1h-1v-1z" fill="rgb(49,74,74)"/>
<path d="M79 43h1v2h-1v-2z" fill="rgb(49,74,74)"/>
<path d="M80 43h1v1h-1v-1z" fill="rgb(213,213,213)"/>
<path d="M81 43h1v1h-1v-1z" fill="rgb(255,255,255)"/>
<path d="M16 44h1v1h-1v-1z" fill="rgb(98,139,172)"/>
<path d="M17 44h1v1h-1v-1z" fill="rgb(90,180,205)"/>
<path d="M20 44h1v1h-1v-1z" fill="rgb(98,139,172)"/>
<path d="M21 44h2v2h-1v-1h-1v-1z" fill="rgb(213,213,213)"/>
<path d="M23 44h1v2h-1v-2z" fill="rgb(98,139,172)"/>
<path d="M31 44h1v1h1v5h-1v1h-2v1h-2v1h-6v-1h-2v-2h-2v-1h-1v-1h1v-1h1v-1h1v2h3v-1h1v1h2
	v-1h3v-1h2v-2z" fill="rgb(98,139,172)"/>
<path d="M32 44h1v1h-1v-1z" fill="rgb(49,74,74)"/>
<path d="M35 44h1v2h-1v-2z" fill="rgb(49,74,74)"/>
<path d="M65 44h1v1h-1v-1z" fill="rgb(49,74,74)"/>
<path d="M69 44h1v2h-1v-2z" fill="rgb(16,16,16)"/>
<path d="M80 44h2v1h-2v-1z" fill="rgb(16,16,16)"/>
<path d="M15 45h1v3h-1v-3z" fill="rgb(49,74,74)"/>
<path d="M16 45h2v1h-1v2h-1v-3z" fill="rgb(255,255,255)"/>
<path d="M18 45h1v1h-1v-1z" fill="rgb(98,139,172)"/>
<path d="M19 45h1v1h-1v-1z" fill="rgb(90,180,205)"/>
<path d="M20 45h1v3h-1v-3z" fill="rgb(49,74,74)"/>
<path d="M21 45h1v2h-1v-2z" fill="rgb(255,255,255)"/>
<path d="M33 45h1v4h-1v-4z" fill="rgb(49,74,74)"/>
<path d="M41 45h1v1h-1v-1z" fill="rgb(49,74,74)"/>
<path d="M42 45h1v1h-1v-1z" fill="rgb(115,90,41)"/>
<path d="M60 45h2v1h-2v-1z" fill="rgb(115,90,41)"/>
<path d="M64 45h1v1h-1v-1z" fill="rgb(49,74,74)"/>
<path d="M79 45h1v1h-1v-1z" fill="rgb(16,16,16)"/>
<path d="M17 46h1v1h-1v-1z" fill="rgb(213,213,213)"/>
<path d="M18 46h1v1h-1v-1z" fill="rgb(49,74,74)"/>
<path d="M22 46h1v1h-1v-1z" fill="rgb(98,139,172)"/>
<path d="M23 46h1v1h-1v-1z" fill="rgb(49,74,74)"/>
<path d="M34 46h2v1h1v2h-3v-3z" fill="rgb(98,139,172)"/>
<path d="M36 46h1v1h-1v-1z" fill="rgb(49,74,74)"/>
<path d="M40 46h1v1h-1v-1z" fill="rgb(49,74,74)"/>
<path d="M41 46h2v1h-1v1h-1v2h1v2h1v1h2v1h5v1h-1v1h-2v1h-4v-1h-2v-1h-1v-2h-1v-5h1v-1h1
	v-1z" fill="rgb(189,172,90)"/>
<path d="M43 46h1v1h-1v-1z" fill="rgb(115,90,41)"/>
<path d="M59 46h1v1h-1v-1z" fill="rgb(115,90,41)"/>
<path d="M60 46h2v1h1v2h1v6h-1v1h-1v1h-4v-1h-2v-1h-1v-1h5v-2h1v-1h1v-3h-1v-1h-1v-1z" fill="rgb(189,172,90)"/>
<path d="M62 46h1v1h-1v-1z" fill="rgb(115,90,41)"/>
<path d="M63 46h1v1h-1v-1z" fill="rgb(49,74,74)"/>
<path d="M69 46h1v2h-1v-2z" fill="rgb(49,74,74)"/>
<path d="M79 46h1v2h-1v-2z" fill="rgb(213,213,213)"/>
<path d="M80 46h1v1h-1v-1z" fill="rgb(49,74,74)"/>
<path d="M17 47h1v1h-1v-1z" fill="rgb(16,16,16)"/>
<path d="M21 47h2v1h-2v-1z" fill="rgb(16,16,16)"/>
<path d="M24 47h2v1h-2v-1z" fill="rgb(49,74,74)"/>
<path d="M37 47h3v1h-3v-1z" fill="rgb(49,74,74)"/>
<path d="M42 47h2v1h-2v-1z" fill="rgb(230,205,139)"/>
<path d="M44 47h3v1h-3v-1z" fill="rgb(115,90,41)"/>
<path d="M58 47h1v1h-1v-1z" fill="rgb(115,90,41)"/>
<path d="M59 47h2v1h-2v-1z" fill="rgb(230,205,139)"/>
<path d="M63 47h1v2h-1v-2z" fill="rgb(115,90,41)"/>
<path d="M64 47h1v1h-1v-1z" fill="rgb(16,16,16)"/>
<path d="M80 47h1v1h-1v-1z" fill="rgb(255,255,255)"/>
<path d="M81 47h1v2h-3v-1h2v-1z" fill="rgb(16,16,16)"/>
<path d="M16 48h1v2h-1v-2z" fill="rgb(16,16,16)"/>
<path d="M37 48h2v1h-2v-1z" fill="rgb(16,16,16)"/>
<path d="M41 48h1v1h1v1h-2v-2z" fill="rgb(230,205,139)"/>
<path d="M42 48h5v1h2v3h-2v-1h-1v-1h-1v1h-1v-1h-1v-1h-1v-1z" fill="rgb(238,230,164)"/>
<path d="M47 48h2v1h-2v-1z" fill="rgb(115,90,41)"/>
<path d="M56 48h2v1h-2v-1z" fill="rgb(115,90,41)"/>
<path d="M58 48h3v3h-1v1h-4v-3h2v-1z" fill="rgb(238,230,164)"/>
<path d="M61 48h1v3h-1v-3z" fill="rgb(230,205,139)"/>
<path d="M64 48h1v1h-1v-1z" fill="transparent"/>
<path d="M65 48h1v1h-1v-1z" fill="rgb(16,16,16)"/>
<path d="M68 48h1v1h-1v-1z" fill="rgb(16,16,16)"/>
<path d="M17 49h1v1h-1v-1z" fill="rgb(49,74,74)"/>
<path d="M33 49h4v1h-2v2h-1v-2h-1v-1z" fill="rgb(16,16,16)"/>
<path d="M37 49h1v4h1v1h-2v1h-1v1h-1v-1h-1v-3h1v-2h2v-1z" fill="rgb(98,139,172)"/>
<path d="M38 49h1v1h-1v-1z" fill="rgb(115,90,41)"/>
<path d="M49 49h1v1h-1v-1z" fill="rgb(115,90,41)"/>
<path d="M55 49h1v2h-1v-2z" fill="rgb(115,90,41)"/>
<path d="M64 49h1v1h-1v-1z" fill="rgb(115,90,41)"/>
<path d="M66 49h2v1h-2v-1z" fill="rgb(16,16,16)"/>
<path d="M77 49h2v1h-2v-1z" fill="rgb(16,16,16)"/>
<path d="M16 50h1v3h-1v-3z" fill="rgb(49,74,74)"/>
<path d="M17 50h2v1h-1v1h-1v-2z" fill="rgb(213,213,213)"/>
<path d="M19 50h1v1h-1v-1z" fill="rgb(49,74,74)"/>
<path d="M32 50h1v1h-1v-1z" fill="rgb(16,16,16)"/>
<path d="M38 50h1v2h-1v-2z" fill="rgb(16,16,16)"/>
<path d="M42 50h1v1h-1v-1z" fill="rgb(238,230,164)"/>
<path d="M43 50h1v1h-1v-1z" fill="rgb(230,205,139)"/>
<path d="M45 50h1v1h-1v-1z" fill="rgb(230,205,139)"/>
<path d="M49 50h1v4h-5v-1h-2v-1h1v-1h1v1h1v-1h1v1h2v-2z" fill="rgb(230,205,139)"/>
<path d="M50 50h1v3h-1v-3z" fill="rgb(115,90,41)"/>
<path d="M64 50h1v5h-1v-5z" fill="rgb(16,16,16)"/>
<path d="M68 50h2v1h-2v-1z" fill="rgb(16,16,16)"/>
<path d="M75 50h2v1h-2v-1z" fill="rgb(16,16,16)"/>
<path d="M18 51h2v1h-2v-1z" fill="rgb(16,16,16)"/>
<path d="M30 51h2v1h-2v-1z" fill="rgb(16,16,16)"/>
<path d="M42 51h1v1h-1v-1z" fill="rgb(230,205,139)"/>
<path d="M43 51h1v1h-1v-1z" fill="rgb(238,230,164)"/>
<path d="M45 51h1v1h-1v-1z" fill="rgb(238,230,164)"/>
<path d="M54 51h1v2h-1v-2z" fill="rgb(115,90,41)"/>
<path d="M55 51h1v1h4v2h-5v-3z" fill="rgb(230,205,139)"/>
<path d="M60 51h1v1h-1v-1z" fill="rgb(230,205,139)"/>
<path d="M70 51h4v1h-4v-1z" fill="rgb(16,16,16)"/>
<path d="M17 52h1v1h-1v-1z" fill="rgb(16,16,16)"/>
<path d="M20 52h2v1h-2v-1z" fill="rgb(16,16,16)"/>
<path d="M28 52h2v1h-2v-1z" fill="rgb(16,16,16)"/>
<path d="M33 52h1v3h-1v-3z" fill="rgb(49,74,74)"/>
<path d="M38 52h1v1h-1v-1z" fill="rgb(115,90,41)"/>
<path d="M22 53h6v1h-6v-1z" fill="rgb(16,16,16)"/>
<path d="M39 53h1v2h-1v-2z" fill="rgb(16,16,16)"/>
<path d="M50 53h1v2h-1v-2z" fill="rgb(16,16,16)"/>
<path d="M54 53h1v2h-1v-2z" fill="rgb(16,16,16)"/>
<path d="M32 55h1v1h1v1h-2v1h-1v-1h-2v-1h3v-1z" fill="rgb(49,74,74)"/>
<path d="M33 55h1v1h-1v-1z" fill="rgb(98,139,172)"/>
<path d="M34 55h1v1h-1v-1z" fill="rgb(49,74,74)"/>
<path d="M40 55h1v1h-1v-1z" fill="rgb(115,90,41)"/>
<path d="M49 55h1v1h-1v-1z" fill="rgb(16,16,16)"/>
<path d="M55 55h1v1h-1v-1z" fill="rgb(16,16,16)"/>
<path d="M63 55h1v1h-1v-1z" fill="rgb(115,90,41)"/>
<path d="M41 56h1v1h-1v-1z" fill="rgb(115,90,41)"/>
<path d="M42 56h1v1h-1v-1z" fill="rgb(16,16,16)"/>
<path d="M47 56h2v1h-2v-1z" fill="rgb(16,16,16)"/>
<path d="M56 56h1v1h-1v-1z" fill="rgb(115,90,41)"/>
<path d="M57 56h1v1h-1v-1z" fill="rgb(16,16,16)"/>
<path d="M62 56h1v1h-1v-1z" fill="rgb(115,90,41)"/>
<path d="M63 56h3v1h-2v2h-1v-3z" fill="rgb(16,16,16)"/>
<path d="M19 57h1v1h-1v-1z" fill="rgb(98,139,172)"/>
<path d="M20 57h1v1h-1v-1z" fill="rgb(49,74,74)"/>
<path d="M26 57h3v1h-3v-1z" fill="rgb(49,74,74)"/>
<path d="M29 57h2v1h-1v1h-1v2h-1v4h-1v1h-1v1h-1v1h-6v-1h1v-4h1v2h3v-1h1v-1h1v-2h-1v-1h-2
	v-1h3v-1h3v-1z" fill="rgb(90,180,205)"/>
<path d="M43 57h4v1h-4v-1z" fill="rgb(16,16,16)"/>
<path d="M57 57h1v1h4v-1h1v2h-1v1h-2v1h-3v1h-2v-1h1v-2h1v-2z" fill="rgb(98,139,172)"/>
<path d="M58 57h3v1h-3v-1z" fill="rgb(16,16,16)"/>
<path d="M61 57h1v1h-1v-1z" fill="rgb(115,90,41)"/>
<path d="M64 57h2v1h1v2h1v4h-4v-1h-2v-1h1v-3h1v-2z" fill="rgb(98,139,172)"/>
<path d="M66 57h1v1h-1v-1z" fill="rgb(16,16,16)"/>
<path d="M18 58h1v1h-1v-1z" fill="rgb(98,139,172)"/>
<path d="M19 58h1v3h-1v-3z" fill="rgb(156,213,222)"/>
<path d="M20 58h1v1h1v1h-1v1h-1v-3z" fill="rgb(90,180,205)"/>
<path d="M21 58h1v1h-1v-1z" fill="rgb(49,74,74)"/>
<path d="M23 58h3v1h-3v-1z" fill="rgb(49,74,74)"/>
<path d="M30 58h1v1h-1v-1z" fill="rgb(49,74,74)"/>
<path d="M31 58h1v1h-1v-1z" fill="rgb(90,180,205)"/>
<path d="M32 58h2v1h1v2h-1v1h-1v1h-3v-3h1v-1h1v-1z" fill="rgb(156,213,222)"/>
<path d="M67 58h1v2h-1v-2z" fill="rgb(49,74,74)"/>
<path d="M18 59h1v3h-1v-3z" fill="rgb(49,74,74)"/>
<path d="M22 59h1v1h-1v-1z" fill="rgb(49,74,74)"/>
<path d="M29 59h1v2h-1v-2z" fill="rgb(49,74,74)"/>
<path d="M30 59h1v1h-1v-1z" fill="rgb(90,180,205)"/>
<path d="M38 59h1v1h1v2h1v3h1v5h-1v2h-1v-1h-4v1h-3v1h-3v-1h-1v-1h-1v-3h1v1h5v-1h1v-1h1
	v-1h1v-3h1v-2h-1v-1h1v-1z" fill="rgb(98,139,172)"/>
<path d="M39 59h2v1h-2v-1z" fill="rgb(189,172,90)"/>
<path d="M62 59h1v3h-1v-3z" fill="rgb(16,16,16)"/>
<path d="M21 60h1v1h-1v-1z" fill="rgb(49,74,74)"/>
<path d="M22 60h1v1h-1v-1z" fill="rgb(90,180,205)"/>
<path d="M23 60h2v1h1v2h-1v1h-1v1h-3v-3h1v-1h1v-1z" fill="rgb(156,213,222)"/>
<path d="M40 60h1v1h-1v-1z" fill="rgb(230,205,139)"/>
<path d="M41 60h3v1h-3v-1z" fill="rgb(189,172,90)"/>
<path d="M60 60h2v1h-2v-1z" fill="rgb(115,90,41)"/>
<path d="M68 60h1v1h-1v-1z" fill="rgb(49,74,74)"/>
<path d="M17 61h1v1h-1v-1z" fill="rgb(98,139,172)"/>
<path d="M19 61h1v2h-1v-2z" fill="rgb(90,180,205)"/>
<path d="M20 61h1v2h-1v-2z" fill="rgb(49,74,74)"/>
<path d="M21 61h1v1h-1v-1z" fill="rgb(90,180,205)"/>
<path d="M28 61h1v4h-1v-4z" fill="rgb(49,74,74)"/>
<path d="M37 61h1v2h-1v-2z" fill="rgb(49,74,74)"/>
<path d="M40 61h1v1h-1v-1z" fill="rgb(49,74,74)"/>
<path d="M41 61h1v2h-1v-2z" fill="rgb(230,205,139)"/>
<path d="M42 61h2v1h4v1h3v1h-2v1h-5v-1h-1v-1h-1v-2z" fill="rgb(238,230,164)"/>
<path d="M44 61h4v1h-4v-1z" fill="rgb(189,172,90)"/>
<path d="M57 61h3v1h-3v-1z" fill="rgb(115,90,41)"/>
<path d="M60 61h2v1h-1v2h-1v1h-1v1h-2v1h-10v-1h3v-1h2v-1h1v-1h4v-1h3v-1z" fill="rgb(189,172,90)"/>
<path d="M68 61h1v3h-1v-3z" fill="rgb(16,16,16)"/>
<path d="M14 62h3v2h-1v-1h-2v-1z" fill="rgb(98,139,172)"/>
<path d="M17 62h2v2h-1v1h-2v-1h1v-2z" fill="rgb(156,213,222)"/>
<path d="M36 62h1v1h-1v-1z" fill="rgb(98,139,172)"/>
<path d="M48 62h3v1h-3v-1z" fill="rgb(189,172,90)"/>
<path d="M51 62h6v1h-6v-1z" fill="rgb(115,90,41)"/>
<path d="M61 62h1v2h-1v-2z" fill="rgb(16,16,16)"/>
<path d="M9 63h5v1h-5v-1z" fill="rgb(98,139,172)"/>
<path d="M14 63h2v1h-1v1h-1v1h-4v-1h-1v-1h5v-1z" fill="rgb(156,213,222)"/>
<path d="M19 63h1v4h-1v-4z" fill="rgb(49,74,74)"/>
<path d="M35 63h1v1h-1v-1z" fill="rgb(98,139,172)"/>
<path d="M36 63h1v1h-1v-1z" fill="rgb(49,74,74)"/>
<path d="M41 63h1v2h-1v-2z" fill="rgb(49,74,74)"/>
<path d="M42 63h1v1h1v1h-2v-2z" fill="rgb(230,205,139)"/>
<path d="M51 63h2v1h-1v1h-2v1h-6v-1h5v-1h2v-1z" fill="rgb(230,205,139)"/>
<path d="M62 63h2v1h-2v-1z" fill="rgb(49,74,74)"/>
<path d="M69 63h1v3h-1v-3z" fill="rgb(49,74,74)"/>
<path d="M8 64h1v1h-1v-1z" fill="rgb(98,139,172)"/>
<path d="M15 64h1v1h-1v-1z" fill="rgb(98,139,172)"/>
<path d="M18 64h1v3h-1v1h-3v-2h1v-1h2v-1z" fill="rgb(90,180,205)"/>
<path d="M34 64h1v1h-1v-1z" fill="rgb(98,139,172)"/>
<path d="M35 64h1v1h-1v-1z" fill="rgb(49,74,74)"/>
<path d="M36 64h1v2h-1v1h-1v1h-1v1h-5v-1h-1v-3h1v1h5v-1h2v-1z" fill="rgb(90,180,205)"/>
<path d="M60 64h1v2h-1v-2z" fill="rgb(16,16,16)"/>
<path d="M61 64h3v1h4v-1h1v2h-1v2h-1v1h-1v1h-1v1h-2v-1h-2v-1h-1v-1h-1v-1h1v-1h1v-2z" fill="rgb(98,139,172)"/>
<path d="M64 64h1v1h-1v-1z" fill="rgb(49,74,74)"/>
<path d="M65 64h3v1h-3v-1z" fill="rgb(16,16,16)"/>
<path d="M8 65h1v2h-1v-2z" fill="rgb(49,74,74)"/>
<path d="M9 65h1v1h-1v-1z" fill="rgb(90,180,205)"/>
<path d="M14 65h1v2h-1v-2z" fill="rgb(98,139,172)"/>
<path d="M15 65h1v1h-1v-1z" fill="rgb(156,213,222)"/>
<path d="M27 65h1v4h-1v-4z" fill="rgb(49,74,74)"/>
<path d="M29 65h2v1h-2v-1z" fill="rgb(49,74,74)"/>
<path d="M31 65h3v1h-3v-1z" fill="rgb(98,139,172)"/>
<path d="M42 65h1v1h-1v-1z" fill="rgb(49,74,74)"/>
<path d="M43 65h1v1h-1v-1z" fill="rgb(115,90,41)"/>
<path d="M59 65h1v1h-1v-1z" fill="rgb(115,90,41)"/>
<path d="M9 66h2v1h2v1h1v1h-2v-1h-2v-1h-1v-1z" fill="rgb(98,139,172)"/>
<path d="M11 66h3v2h-1v-1h-2v-1z" fill="rgb(90,180,205)"/>
<path d="M26 66h1v6h1v1h-4v-1h-3v-1h-2v-3h6v-1h1v-1z" fill="rgb(98,139,172)"/>
<path d="M42 66h1v4h1v1h-2v-5z" fill="rgb(16,16,16)"/>
<path d="M43 66h1v1h3v1h10v1h-2v1h-3v1h-7v-1h-2v-4z" fill="rgb(189,172,90)"/>
<path d="M44 66h3v1h-3v-1z" fill="rgb(115,90,41)"/>
<path d="M57 66h2v1h-2v-1z" fill="rgb(115,90,41)"/>
<path d="M59 66h1v1h-1v-1z" fill="rgb(16,16,16)"/>
<path d="M68 66h1v1h-1v-1z" fill="rgb(49,74,74)"/>
<path d="M9 67h1v1h-1v-1z" fill="rgb(49,74,74)"/>
<path d="M14 67h1v2h-1v-2z" fill="rgb(49,74,74)"/>
<path d="M18 67h1v4h-1v-4z" fill="rgb(49,74,74)"/>
<path d="M47 67h2v1h-2v-1z" fill="rgb(115,90,41)"/>
<path d="M49 67h6v1h-6v-1z" fill="rgb(16,16,16)"/>
<path d="M55 67h2v1h-2v-1z" fill="rgb(115,90,41)"/>
<path d="M57 67h1v1h-1v-1z" fill="rgb(189,172,90)"/>
<path d="M58 67h1v1h-1v-1z" fill="rgb(16,16,16)"/>
<path d="M68 67h1v1h-1v-1z" fill="rgb(16,16,16)"/>
<path d="M10 68h2v1h-2v-1z" fill="rgb(16,16,16)"/>
<path d="M15 68h3v2h-2v-1h-1v-1z" fill="rgb(98,139,172)"/>
<path d="M57 68h1v1h-1v-1z" fill="rgb(16,16,16)"/>
<path d="M58 68h1v1h-1v-1z" fill="rgb(49,74,74)"/>
<path d="M59 68h1v1h-1v-1z" fill="rgb(16,16,16)"/>
<path d="M67 68h1v1h-1v-1z" fill="rgb(16,16,16)"/>
<path d="M12 69h3v1h-3v-1z" fill="rgb(16,16,16)"/>
<path d="M15 69h1v1h-1v-1z" fill="rgb(49,74,74)"/>
<path d="M27 69h1v2h-1v-2z" fill="rgb(16,16,16)"/>
<path d="M55 69h2v1h-2v-1z" fill="rgb(16,16,16)"/>
<path d="M57 69h3v1h1v1h1v1h3v-1h2v1h1v2h-2v-1h-3v1h-1v1h-3v-1h-4v-1h-1v-2h1v-1h2v-1z" fill="rgb(98,139,172)"/>
<path d="M60 69h1v1h-1v-1z" fill="rgb(49,74,74)"/>
<path d="M66 69h1v1h-1v-1z" fill="rgb(49,74,74)"/>
<path d="M15 70h3v1h-3v-1z" fill="rgb(16,16,16)"/>
<path d="M41 70h1v1h-1v-1z" fill="rgb(49,74,74)"/>
<path d="M44 70h1v1h-1v-1z" fill="rgb(115,90,41)"/>
<path d="M52 70h3v1h-1v3h-1v-3h-1v-1z" fill="rgb(16,16,16)"/>
<path d="M61 70h1v1h-1v-1z" fill="rgb(16,16,16)"/>
<path d="M62 70h1v1h-1v-1z" fill="rgb(49,74,74)"/>
<path d="M65 70h1v1h-1v-1z" fill="rgb(49,74,74)"/>
<path d="M66 70h1v1h-1v-1z" fill="rgb(16,16,16)"/>
<path d="M19 71h2v1h-2v-1z" fill="rgb(16,16,16)"/>
<path d="M27 71h2v1h1v1h3v1h-4v-1h-1v-1h-1v-1z" fill="rgb(49,74,74)"/>
<path d="M36 71h1v1h-1v-1z" fill="rgb(49,74,74)"/>
<path d="M37 71h2v1h-2v-1z" fill="rgb(16,16,16)"/>
<path d="M39 71h1v1h-1v-1z" fill="rgb(49,74,74)"/>
<path d="M41 71h1v2h1v1h-1v1h-1v-2h-1v-1h1v-1z" fill="rgb(16,16,16)"/>
<path d="M42 71h3v1h-2v1h-1v-2z" fill="rgb(98,139,172)"/>
<path d="M45 71h1v1h-1v-1z" fill="rgb(115,90,41)"/>
<path d="M46 71h6v1h-6v-1z" fill="rgb(16,16,16)"/>
<path d="M62 71h3v1h-3v-1z" fill="rgb(16,16,16)"/>
<path d="M67 71h1v1h-1v-1z" fill="rgb(16,16,16)"/>
<path d="M21 72h3v1h-3v-1z" fill="rgb(16,16,16)"/>
<path d="M33 72h3v1h-3v-1z" fill="rgb(49,74,74)"/>
<path d="M36 72h4v1h1v2h-1v2h-1v1h-2v1h-2v-1h1v-1h1v-3h-1v-2z" fill="rgb(98,139,172)"/>
<path d="M43 72h3v1h-3v-1z" fill="rgb(16,16,16)"/>
<path d="M68 72h1v1h-1v-1z" fill="rgb(49,74,74)"/>
<path d="M24 73h3v1h-3v-1z" fill="rgb(16,16,16)"/>
<path d="M27 73h1v1h-1v-1z" fill="rgb(49,74,74)"/>
<path d="M28 73h1v1h-1v-1z" fill="rgb(98,139,172)"/>
<path d="M33 73h3v1h1v3h-1v1h-2v-1h-2v1h-1v-2h-2v1h-2v-1h-1v-1h2v-1h5v-1z" fill="rgb(90,180,205)"/>
<path d="M54 73h1v1h-1v-1z" fill="rgb(49,74,74)"/>
<path d="M63 73h3v1h-3v-1z" fill="rgb(49,74,74)"/>
<path d="M68 73h1v1h1v1h-2v-2z" fill="rgb(213,213,213)"/>
<path d="M69 73h1v1h-1v-1z" fill="rgb(49,74,74)"/>
<path d="M26 74h1v1h-1v-1z" fill="rgb(49,74,74)"/>
<path d="M27 74h1v1h-1v-1z" fill="rgb(98,139,172)"/>
<path d="M54 74h5v1h-5v-1z" fill="rgb(16,16,16)"/>
<path d="M62 74h1v1h-1v-1z" fill="rgb(49,74,74)"/>
<path d="M63 74h3v1h1v1h-3v-1h-1v-1z" fill="rgb(255,255,255)"/>
<path d="M66 74h2v1h-2v-1z" fill="rgb(49,74,74)"/>
<path d="M70 74h1v2h-3v1h-6v-1h5v-1h3v-1z" fill="rgb(16,16,16)"/>
<path d="M25 75h1v1h-1v-1z" fill="rgb(49,74,74)"/>
<path d="M40 75h1v2h-1v-2z" fill="rgb(16,16,16)"/>
<path d="M59 75h3v1h-3v-1z" fill="rgb(16,16,16)"/>
<path d="M62 75h2v1h-2v-1z" fill="rgb(213,213,213)"/>
<path d="M25 76h2v1h-2v-1z" fill="rgb(98,139,172)"/>
<path d="M29 76h2v2h1v1h-1v1h-1v-1h-2v-2h1v-1z" fill="rgb(98,139,172)"/>
<path d="M24 77h1v1h-1v-1z" fill="rgb(98,139,172)"/>
<path d="M25 77h2v2h-3v-1h1v-1z" fill="rgb(255,255,255)"/>
<path d="M27 77h1v2h-1v-2z" fill="rgb(49,74,74)"/>
<path d="M32 77h2v1h-2v-1z" fill="rgb(98,139,172)"/>
<path d="M39 77h1v1h-1v-1z" fill="rgb(16,16,16)"/>
<path d="M23 78h1v1h-1v-1z" fill="rgb(98,139,172)"/>
<path d="M32 78h2v1h-1v1h-2v-1h1v-1z" fill="rgb(255,255,255)"/>
<path d="M34 78h1v1h-1v-1z" fill="rgb(49,74,74)"/>
<path d="M37 78h2v1h-2v-1z" fill="rgb(16,16,16)"/>
<path d="M23 79h7v1h-7v-1z" fill="rgb(16,16,16)"/>
<path d="M33 79h1v1h-1v-1z" fill="rgb(213,213,213)"/>
<path d="M34 79h3v1h-3v-1z" fill="rgb(16,16,16)"/>
<path d="M30 80h1v1h-1v-1z" fill="rgb(49,74,74)"/>
<path d="M31 80h2v1h-2v-1z" fill="rgb(213,213,213)"/>
<path d="M33 80h1v1h-1v-1z" fill="rgb(16,16,16)"/>
<path d="M30 81h3v1h-3v-1z" fill="rgb(16,16,16)"/>
</svg>
