<?xml version="1.0" encoding="utf-8"?>
<!-- generated at drububu.com  -->
<!DOCTYPE svg PUBLIC "-//W3C//DTD SVG 1.1//EN" "http://www.w3.org/Graphics/SVG/1.1/DTD/svg11.dtd">
<svg version="1.1" preserveAspectRatio="xMinYMin meet" xmlns="http://www.w3.org/2000/svg" xmlns:xlink="http://www.w3.org/1999/xlink" x="0px" y="0px" width="96px" height="96px" viewBox="0 0 96 96">
<path d="M0 0h96v96h-96v-96z" fill="transparent"/>
<path d="M34 28h1v1h-1v-1z" fill="rgb(98,65,106)"/>
<path d="M33 29h1v4h-1v-4z" fill="rgb(189,98,197)"/>
<path d="M34 29h1v3h1v1h-1v1h-1v2h-1v4h-1v1h-1v-3h1v-4h1v-1h1v-4z" fill="rgb(230,156,213)"/>
<path d="M35 29h1v2h-1v-2z" fill="rgb(98,65,106)"/>
<path d="M50 29h1v1h-1v-1z" fill="rgb(98,65,106)"/>
<path d="M55 29h1v1h-1v-1z" fill="rgb(189,98,197)"/>
<path d="M56 29h1v1h-1v-1z" fill="rgb(98,65,106)"/>
<path d="M38 30h1v1h-1v-1z" fill="rgb(98,65,106)"/>
<path d="M49 30h1v2h-1v-2z" fill="rgb(189,98,197)"/>
<path d="M50 30h1v2h4v1h-3v1h-2v1h-1v-3h1v-2z" fill="rgb(230,156,213)"/>
<path d="M51 30h1v1h1v1h-2v-2z" fill="rgb(16,16,16)"/>
<path d="M54 30h1v1h-1v-1z" fill="rgb(189,98,197)"/>
<path d="M55 30h1v2h-2v-1h1v-1z" fill="rgb(238,189,238)"/>
<path d="M56 30h1v2h-1v-2z" fill="rgb(16,16,16)"/>
<path d="M35 31h1v1h-1v-1z" fill="rgb(189,98,197)"/>
<path d="M36 31h2v1h-2v-1z" fill="rgb(98,65,106)"/>
<path d="M38 31h1v1h-1v-1z" fill="rgb(230,156,213)"/>
<path d="M39 31h1v5h-1v-5z" fill="rgb(16,16,16)"/>
<path d="M53 31h1v1h-1v-1z" fill="rgb(189,98,197)"/>
<path d="M36 32h3v4h1v5h1v3h-5v1h-2v1h-1v-2h-1v-2h-1v-1h1v-1h1v-4h1v-2h1v-1h1v-1z" fill="rgb(189,98,197)"/>
<path d="M48 32h1v1h-1v-1z" fill="rgb(189,98,197)"/>
<path d="M55 32h1v1h-1v-1z" fill="rgb(16,16,16)"/>
<path d="M32 33h1v1h-1v-1z" fill="rgb(189,98,197)"/>
<path d="M46 33h2v1h-2v-1z" fill="rgb(189,98,197)"/>
<path d="M48 33h1v2h-3v-1h2v-1z" fill="rgb(238,189,238)"/>
<path d="M52 33h2v2h1v1h2v1h-1v1h-1v2h-1v-4h-1v-2h-1v-1z" fill="rgb(189,98,197)"/>
<path d="M54 33h1v1h-1v-1z" fill="rgb(16,16,16)"/>
<path d="M31 34h1v4h-1v-4z" fill="rgb(189,98,197)"/>
<path d="M45 34h1v1h-1v-1z" fill="rgb(189,98,197)"/>
<path d="M50 34h1v1h-1v-1z" fill="rgb(189,98,197)"/>
<path d="M51 34h1v1h-1v-1z" fill="rgb(98,65,106)"/>
<path d="M52 34h1v2h1v1h-3v1h-2v1h-1v1h-1v2h-1v3h-1v1h-2v-3h1v-2h1v-2h1v-1h1v-1h1v-1h2
	v-1h2v-1z" fill="rgb(0,98,65)"/>
<path d="M54 34h1v1h-1v-1z" fill="rgb(98,65,106)"/>
<path d="M44 35h1v1h-1v-1z" fill="rgb(189,98,197)"/>
<path d="M45 35h3v1h-1v1h-1v1h-1v1h-1v3h-1v-5h1v-1h1v-1z" fill="rgb(230,156,213)"/>
<path d="M48 35h1v1h-1v-1z" fill="rgb(189,98,197)"/>
<path d="M49 35h1v1h-1v-1z" fill="rgb(98,65,106)"/>
<path d="M55 35h2v1h-2v-1z" fill="rgb(98,65,106)"/>
<path d="M57 35h1v2h-1v-2z" fill="rgb(16,16,16)"/>
<path d="M40 36h1v3h-1v-3z" fill="rgb(16,16,16)"/>
<path d="M42 36h2v1h-1v2h-1v-3z" fill="rgb(98,65,106)"/>
<path d="M47 36h1v1h-1v-1z" fill="rgb(98,65,106)"/>
<path d="M46 37h1v1h-1v-1z" fill="rgb(98,65,106)"/>
<path d="M51 37h3v3h-1v-2h-1v1h-2v1h-1v1h-1v2h-1v2h-1v-3h1v-2h1v-1h1v-1h2v-1z" fill="rgb(0,164,115)"/>
<path d="M56 37h1v1h-1v-1z" fill="rgb(16,16,16)"/>
<path d="M30 38h1v2h-1v-2z" fill="rgb(189,98,197)"/>
<path d="M45 38h1v1h-1v-1z" fill="rgb(98,65,106)"/>
<path d="M52 38h1v2h-1v2h-1v2h-1v1h-1v1h-1v-1h-1v-2h1v-2h1v-1h1v-1h2v-1z" fill="rgb(24,205,156)"/>
<path d="M55 38h1v2h-1v-2z" fill="rgb(16,16,16)"/>
<path d="M40 39h2v1h-1v1h-1v-2z" fill="rgb(98,65,106)"/>
<path d="M42 39h1v3h-1v-1h-1v-1h1v-1z" fill="rgb(238,189,238)"/>
<path d="M44 39h1v1h-1v-1z" fill="rgb(189,98,197)"/>
<path d="M57 39h2v1h-2v-1z" fill="rgb(98,65,106)"/>
<path d="M30 40h1v2h-1v-2z" fill="rgb(156,74,172)"/>
<path d="M44 40h1v1h-1v-1z" fill="rgb(98,65,106)"/>
<path d="M52 40h1v2h-1v-2z" fill="rgb(0,164,115)"/>
<path d="M53 40h1v2h-1v-2z" fill="rgb(189,98,197)"/>
<path d="M54 40h1v2h-1v-2z" fill="rgb(16,16,16)"/>
<path d="M55 40h1v1h-1v-1z" fill="transparent"/>
<path d="M56 40h1v1h-1v-1z" fill="rgb(98,65,106)"/>
<path d="M57 40h2v1h-1v2h-2v-2h1v-1z" fill="rgb(230,156,213)"/>
<path d="M59 40h1v1h-1v-1z" fill="rgb(98,65,106)"/>
<path d="M41 41h1v3h-1v-3z" fill="rgb(98,65,106)"/>
<path d="M55 41h1v1h-1v-1z" fill="rgb(98,65,106)"/>
<path d="M58 41h1v2h-1v-2z" fill="rgb(16,16,16)"/>
<path d="M31 42h1v2h-1v-2z" fill="rgb(156,74,172)"/>
<path d="M42 42h1v3h-1v4h1v2h-1v1h-1v1h-1v1h-1v1h-1v2h-1v1h-2v1h-2v-2h2v-1h1v-3h-1v-1h-2
	v-1h1v-2h4v-1h1v-1h-1v-1h-2v-1h4v3h1v-4h1v-2z" fill="rgb(230,156,213)"/>
<path d="M43 42h1v1h-1v-1z" fill="rgb(189,98,197)"/>
<path d="M51 42h1v2h-1v-2z" fill="rgb(0,164,115)"/>
<path d="M52 42h1v2h-1v-2z" fill="rgb(189,98,197)"/>
<path d="M53 42h1v2h-1v-2z" fill="rgb(16,16,16)"/>
<path d="M54 42h2v1h1v1h-1v1h-2v1h-1v-2h1v-2z" fill="rgb(189,98,197)"/>
<path d="M57 43h1v1h-1v-1z" fill="rgb(16,16,16)"/>
<path d="M60 43h1v1h-1v-1z" fill="rgb(98,65,106)"/>
<path d="M32 44h1v2h-1v-2z" fill="rgb(156,74,172)"/>
<path d="M36 44h4v1h-4v-1z" fill="rgb(98,65,106)"/>
<path d="M40 44h1v2h-1v-2z" fill="rgb(16,16,16)"/>
<path d="M50 44h1v1h-1v-1z" fill="rgb(0,164,115)"/>
<path d="M51 44h1v2h-1v1h-1v1h-1v1h-2v-2h2v-1h1v-1h1v-1z" fill="rgb(189,98,197)"/>
<path d="M52 44h1v2h-1v-2z" fill="rgb(16,16,16)"/>
<path d="M56 44h1v2h-1v-2z" fill="rgb(16,16,16)"/>
<path d="M57 44h1v1h-1v-1z" fill="transparent"/>
<path d="M58 44h2v1h-2v-1z" fill="rgb(98,65,106)"/>
<path d="M60 44h1v2h-2v-1h1v-1z" fill="rgb(230,156,213)"/>
<path d="M61 44h1v2h-1v-2z" fill="rgb(16,16,16)"/>
<path d="M34 45h2v1h-2v-1z" fill="rgb(98,65,106)"/>
<path d="M42 45h1v1h2v-1h1v2h-1v2h-1v2h1v-2h2v1h-1v5h1v-4h1v-1h1v-1h1v-1h1v-1h1v-1h1v1h1
	v-1h1v2h2v2h-1v-1h-2v1h-2v1h-3v3h1v1h5v-1h1v-2h1v-1h1v2h1v3h-1v2h-6v-1h-1v-1
	h-1v1h-3v1h-1v-2h-1v2h-3v1h-2v1h-7v-1h2v-1h1v1h1v-2h4v-1h1v-1h1v-3h-1v-1h1v-2h-1
	v-4z" fill="rgb(189,98,197)"/>
<path d="M46 45h1v2h-1v-2z" fill="rgb(98,65,106)"/>
<path d="M47 45h1v2h-1v-2z" fill="rgb(0,98,65)"/>
<path d="M49 45h1v1h-1v-1z" fill="rgb(0,164,115)"/>
<path d="M54 45h2v1h-2v-1z" fill="rgb(98,65,106)"/>
<path d="M57 45h1v1h-1v-1z" fill="rgb(98,65,106)"/>
<path d="M58 45h1v1h1v1h-1v2h-1v-2h-2v-1h2v-1z" fill="rgb(189,98,197)"/>
<path d="M33 46h1v1h-1v-1z" fill="rgb(98,65,106)"/>
<path d="M34 46h4v1h1v1h-1v1h-4v-1h-1v-1h1v-1z" fill="rgb(238,189,238)"/>
<path d="M40 46h1v1h-1v-1z" fill="rgb(98,65,106)"/>
<path d="M48 46h1v1h-1v-1z" fill="rgb(0,164,115)"/>
<path d="M51 46h1v1h-1v-1z" fill="rgb(16,16,16)"/>
<path d="M53 46h1v1h-1v-1z" fill="rgb(16,16,16)"/>
<path d="M55 46h1v2h-1v-2z" fill="rgb(16,16,16)"/>
<path d="M60 46h1v1h-1v-1z" fill="rgb(16,16,16)"/>
<path d="M32 47h1v1h1v1h-3v-1h1v-1z" fill="rgb(98,65,106)"/>
<path d="M40 47h1v1h-1v-1z" fill="rgb(189,98,197)"/>
<path d="M45 47h1v2h-1v-2z" fill="rgb(98,65,106)"/>
<path d="M46 47h1v2h-1v-2z" fill="rgb(0,98,65)"/>
<path d="M50 47h1v1h-1v-1z" fill="rgb(16,16,16)"/>
<path d="M56 47h2v3h-1v-2h-1v-1z" fill="rgb(98,65,106)"/>
<path d="M59 47h1v2h-1v-2z" fill="rgb(16,16,16)"/>
<path d="M29 48h2v1h-2v-1z" fill="rgb(189,98,197)"/>
<path d="M49 48h1v1h-1v-1z" fill="rgb(16,16,16)"/>
<path d="M28 49h1v1h-1v-1z" fill="rgb(98,65,106)"/>
<path d="M29 49h5v2h-3v-1h-2v-1z" fill="rgb(238,189,238)"/>
<path d="M44 49h1v2h-1v-2z" fill="rgb(98,65,106)"/>
<path d="M47 49h1v1h-1v-1z" fill="rgb(98,65,106)"/>
<path d="M48 49h1v1h-1v-1z" fill="rgb(16,16,16)"/>
<path d="M54 49h2v1h1v2h-1v-1h-2v-2z" fill="rgb(98,65,106)"/>
<path d="M58 49h1v1h-1v-1z" fill="rgb(16,16,16)"/>
<path d="M29 50h1v1h-1v-1z" fill="rgb(98,65,106)"/>
<path d="M30 50h1v1h-1v-1z" fill="rgb(189,98,197)"/>
<path d="M46 50h1v2h-1v-2z" fill="rgb(98,65,106)"/>
<path d="M47 50h1v1h-1v-1z" fill="rgb(16,16,16)"/>
<path d="M52 50h2v1h-1v2h1v1h1v1h-3v-3h-1v-1h1v-1z" fill="rgb(230,156,213)"/>
<path d="M57 50h1v1h-1v-1z" fill="rgb(16,16,16)"/>
<path d="M58 50h1v1h-1v-1z" fill="rgb(189,98,197)"/>
<path d="M59 50h1v3h-1v-3z" fill="rgb(98,65,106)"/>
<path d="M30 51h1v1h-1v-1z" fill="rgb(16,16,16)"/>
<path d="M31 51h2v1h2v1h1v1h-3v-1h-1v-1h-1v-1z" fill="rgb(189,98,197)"/>
<path d="M49 51h2v3h1v1h-2v-1h-1v-3z" fill="rgb(98,65,106)"/>
<path d="M53 51h3v3h-2v-1h-1v-2z" fill="rgb(156,74,172)"/>
<path d="M58 51h1v2h-1v-2z" fill="rgb(16,16,16)"/>
<path d="M31 52h1v1h1v1h-1v3h-1v-5z" fill="rgb(16,16,16)"/>
<path d="M41 52h2v3h-1v-2h-1v-1z" fill="rgb(98,65,106)"/>
<path d="M46 52h1v3h-1v-3z" fill="rgb(16,16,16)"/>
<path d="M51 52h1v2h-1v-2z" fill="rgb(156,74,172)"/>
<path d="M40 53h1v1h-1v-1z" fill="rgb(98,65,106)"/>
<path d="M41 53h1v1h-1v-1z" fill="rgb(205,205,205)"/>
<path d="M59 53h1v3h-1v-3z" fill="rgb(16,16,16)"/>
<path d="M32 54h1v3h-1v-3z" fill="rgb(230,156,213)"/>
<path d="M33 54h1v1h-1v-1z" fill="rgb(16,16,16)"/>
<path d="M34 54h2v2h-1v-1h-1v-1z" fill="rgb(98,65,106)"/>
<path d="M39 54h1v1h-1v-1z" fill="rgb(98,65,106)"/>
<path d="M40 54h1v1h-1v-1z" fill="rgb(255,106,82)"/>
<path d="M41 54h1v2h-1v-2z" fill="rgb(255,255,255)"/>
<path d="M33 55h2v2h-2v-2z" fill="rgb(156,74,172)"/>
<path d="M38 55h1v1h-1v-1z" fill="rgb(189,98,197)"/>
<path d="M39 55h1v2h-1v-2z" fill="rgb(16,16,16)"/>
<path d="M40 55h1v1h-1v-1z" fill="rgb(222,65,41)"/>
<path d="M38 56h1v1h-1v-1z" fill="rgb(98,65,106)"/>
<path d="M40 56h1v1h-1v-1z" fill="rgb(180,24,0)"/>
<path d="M45 56h1v1h-1v-1z" fill="rgb(98,65,106)"/>
<path d="M50 56h1v1h1v1h-2v-2z" fill="rgb(98,65,106)"/>
<path d="M58 56h1v2h-1v-2z" fill="rgb(16,16,16)"/>
<path d="M32 57h1v3h-1v-3z" fill="rgb(16,16,16)"/>
<path d="M45 57h1v1h-1v-1z" fill="rgb(16,16,16)"/>
<path d="M47 57h2v2h-1v2h-2v-1h-2v-1h1v-1h2v-1z" fill="rgb(230,156,213)"/>
<path d="M49 57h1v2h-1v-2z" fill="rgb(16,16,16)"/>
<path d="M31 58h1v2h-1v-2z" fill="rgb(156,74,172)"/>
<path d="M36 58h1v1h-1v-1z" fill="rgb(98,65,106)"/>
<path d="M42 58h2v1h-2v-1z" fill="rgb(16,16,16)"/>
<path d="M44 58h1v1h-1v-1z" fill="rgb(98,65,106)"/>
<path d="M52 58h1v1h-1v-1z" fill="rgb(16,16,16)"/>
<path d="M53 58h1v1h-1v-1z" fill="rgb(156,74,172)"/>
<path d="M54 58h1v1h-1v-1z" fill="rgb(98,65,106)"/>
<path d="M55 58h1v1h-1v-1z" fill="rgb(156,74,172)"/>
<path d="M56 58h1v1h-1v-1z" fill="rgb(98,65,106)"/>
<path d="M57 58h1v2h-1v-2z" fill="rgb(16,16,16)"/>
<path d="M40 59h2v1h-2v-1z" fill="rgb(16,16,16)"/>
<path d="M43 59h1v2h-1v-2z" fill="rgb(98,65,106)"/>
<path d="M48 59h1v2h-1v-2z" fill="rgb(16,16,16)"/>
<path d="M53 59h1v1h-1v-1z" fill="rgb(16,16,16)"/>
<path d="M54 59h1v1h-1v-1z" fill="rgb(205,205,205)"/>
<path d="M55 59h1v1h-1v-1z" fill="rgb(98,65,106)"/>
<path d="M56 59h1v1h-1v-1z" fill="rgb(205,205,205)"/>
<path d="M30 60h1v1h-1v-1z" fill="rgb(98,65,106)"/>
<path d="M31 60h1v1h-1v-1z" fill="rgb(255,255,255)"/>
<path d="M32 60h1v1h-1v-1z" fill="rgb(98,65,106)"/>
<path d="M33 60h1v1h-1v-1z" fill="rgb(16,16,16)"/>
<path d="M34 60h1v2h-1v-2z" fill="rgb(98,65,106)"/>
<path d="M35 60h2v1h-2v-1z" fill="rgb(205,205,205)"/>
<path d="M37 60h1v1h-1v-1z" fill="rgb(98,65,106)"/>
<path d="M38 60h2v1h-2v-1z" fill="rgb(16,16,16)"/>
<path d="M44 60h2v1h-2v-1z" fill="rgb(189,98,197)"/>
<path d="M54 60h3v1h-3v-1z" fill="rgb(16,16,16)"/>
<path d="M30 61h1v1h-1v-1z" fill="rgb(16,16,16)"/>
<path d="M31 61h1v1h-1v-1z" fill="rgb(205,205,205)"/>
<path d="M32 61h1v1h1v1h-3v-1h1v-1z" fill="rgb(16,16,16)"/>
<path d="M33 61h1v1h-1v-1z" fill="rgb(205,205,205)"/>
<path d="M35 61h1v1h-1v-1z" fill="rgb(255,255,255)"/>
<path d="M36 61h1v1h-1v-1z" fill="rgb(98,65,106)"/>
<path d="M42 61h1v1h-1v-1z" fill="rgb(98,65,106)"/>
<path d="M43 61h1v1h-1v-1z" fill="rgb(255,255,255)"/>
<path d="M44 61h1v2h-1v-2z" fill="rgb(98,65,106)"/>
<path d="M45 61h1v1h-1v-1z" fill="rgb(255,255,255)"/>
<path d="M46 61h1v1h-1v-1z" fill="rgb(189,98,197)"/>
<path d="M47 61h1v1h-1v-1z" fill="rgb(16,16,16)"/>
<path d="M35 62h2v1h-2v-1z" fill="rgb(16,16,16)"/>
<path d="M42 62h1v1h-1v-1z" fill="rgb(16,16,16)"/>
<path d="M43 62h1v1h-1v-1z" fill="rgb(205,205,205)"/>
<path d="M45 62h1v1h-1v-1z" fill="rgb(205,205,205)"/>
<path d="M46 62h1v1h-1v-1z" fill="rgb(16,16,16)"/>
<path d="M43 63h3v1h-3v-1z" fill="rgb(16,16,16)"/>
</svg>
