<?xml version="1.0" encoding="utf-8"?>
<!-- generated at drububu.com  -->
<!DOCTYPE svg PUBLIC "-//W3C//DTD SVG 1.1//EN" "http://www.w3.org/Graphics/SVG/1.1/DTD/svg11.dtd">
<svg version="1.1" preserveAspectRatio="xMinYMin meet" xmlns="http://www.w3.org/2000/svg" xmlns:xlink="http://www.w3.org/1999/xlink" x="0px" y="0px" width="96px" height="96px" viewBox="0 0 96 96">
<path d="M0 0h96v96h-96v-96z" fill="transparent"/>
<path d="M32 20h1v1h-1v-1z" fill="rgb(90,57,98)"/>
<path d="M33 20h1v1h-1v-1z" fill="rgb(16,16,16)"/>
<path d="M53 20h3v2h-1v-1h-2v-1z" fill="rgb(90,57,98)"/>
<path d="M31 21h1v3h-1v-3z" fill="rgb(90,57,98)"/>
<path d="M32 21h2v5h-1v4h-1v2h-1v2h-1v1h-1v1h-1v1h-1v-3h1v-2h1v-2h1v-3h1v-3h1v-3z" fill="rgb(205,131,222)"/>
<path d="M34 21h1v3h-1v-3z" fill="rgb(16,16,16)"/>
<path d="M52 21h1v1h-1v-1z" fill="rgb(90,57,98)"/>
<path d="M53 21h2v1h-1v1h-1v1h-1v1h-1v2h-2v1h-1v1h-1v1h-2v1h-1v1h-1v1h-1v1h-1v3h-1v3h-1
	v2h-1v3h2v-1h1v-1h1v3h1v1h2v1h2v-1h3v-1h2v1h2v-3h1v-1h3v1h2v1h1v3h-1v-1h-1v-1
	h-3v1h-1v2h1v1h1v1h-1v1h-3v1h-4v-1h-2v-1h-1v-1h-1v-1h-1v1h1v2h-1v1h-2v1h-2v1h-2
	v1h-1v1h-1v1h-1v1h-2v1h-1v-2h-1v-2h-1v-2h-1v-1h-2v-1h1v-1h1v-1h1v-2h1v-2h1v-2h1
	v-1h1v-1h2v2h1v-4h1v-4h1v-1h1v-4h1v-1h2v-1h3v-1h1v-2h1v-1h1v-1h1v-1h2v-1h1v-1z" fill="rgb(205,131,222)"/>
<path d="M50 22h2v1h-2v-1z" fill="rgb(90,57,98)"/>
<path d="M54 22h1v2h-1v-2z" fill="rgb(90,57,98)"/>
<path d="M49 23h1v1h-1v-1z" fill="rgb(90,57,98)"/>
<path d="M53 23h1v1h-1v-1z" fill="rgb(148,90,180)"/>
<path d="M30 24h1v3h-1v-3z" fill="rgb(90,57,98)"/>
<path d="M34 24h1v2h-1v-2z" fill="rgb(90,57,98)"/>
<path d="M35 24h1v1h-1v-1z" fill="rgb(16,16,16)"/>
<path d="M48 24h1v1h-1v-1z" fill="rgb(90,57,98)"/>
<path d="M52 24h1v1h-1v-1z" fill="rgb(148,90,180)"/>
<path d="M53 24h1v1h-1v-1z" fill="rgb(90,57,98)"/>
<path d="M35 25h1v3h-1v6h1v2h1v4h-1v1h-2v1h-2v1h-1v1h-1v-1h-1v-2h-1v-2h-1v-2h1v-1h1v-1h1
	v-1h1v-2h1v-2h1v-2h1v-2h1v-1z" fill="rgb(148,90,180)"/>
<path d="M36 25h1v3h-1v-3z" fill="rgb(16,16,16)"/>
<path d="M46 25h2v1h-2v-1z" fill="rgb(90,57,98)"/>
<path d="M51 25h1v1h-1v-1z" fill="rgb(148,90,180)"/>
<path d="M52 25h1v1h-1v-1z" fill="rgb(90,57,98)"/>
<path d="M33 26h1v2h-1v-2z" fill="rgb(90,57,98)"/>
<path d="M45 26h1v1h-1v-1z" fill="rgb(90,57,98)"/>
<path d="M46 26h1v2h-1v1h-2v-1h1v-1h1v-1z" fill="rgb(230,172,238)"/>
<path d="M51 26h1v1h-1v-1z" fill="rgb(90,57,98)"/>
<path d="M52 26h1v1h-1v-1z" fill="transparent"/>
<path d="M53 26h3v1h-3v-1z" fill="rgb(90,57,98)"/>
<path d="M29 27h1v3h-1v-3z" fill="rgb(90,57,98)"/>
<path d="M44 27h1v1h-1v-1z" fill="rgb(90,57,98)"/>
<path d="M49 27h2v1h2v-1h3v1h-1v1h-2v1h-1v2h-1v3h-1v3h-1v-4h1v-4h-1v-1h1v-1h-1v-1z" fill="rgb(148,90,180)"/>
<path d="M51 27h1v1h-1v-1z" fill="rgb(16,16,16)"/>
<path d="M52 27h1v1h-1v-1z" fill="rgb(90,57,98)"/>
<path d="M56 27h1v1h-1v-1z" fill="rgb(16,16,16)"/>
<path d="M35 28h1v6h-1v-6z" fill="rgb(16,16,16)"/>
<path d="M43 28h1v1h-1v-1z" fill="rgb(90,57,98)"/>
<path d="M48 28h1v1h-1v-1z" fill="rgb(16,16,16)"/>
<path d="M49 28h1v1h-1v-1z" fill="rgb(90,57,98)"/>
<path d="M55 28h1v1h-1v-1z" fill="rgb(16,16,16)"/>
<path d="M56 28h2v1h-2v-1z" fill="rgb(90,57,98)"/>
<path d="M41 29h2v1h-2v-1z" fill="rgb(90,57,98)"/>
<path d="M47 29h1v1h-1v-1z" fill="rgb(16,16,16)"/>
<path d="M48 29h1v1h1v4h-1v1h-1v1h-1v1h-2v1h-1v1h-1v2h1v1h1v2h-1v1h-1v-2h-1v-1h-1v1h-1v1
	h-1v-2h1v-2h1v-3h1v-3h1v-1h1v-1h1v-1h2v-1h1v-1z" fill="rgb(0,148,98)"/>
<path d="M53 29h2v1h-2v-1z" fill="rgb(16,16,16)"/>
<path d="M55 29h1v1h-1v-1z" fill="rgb(90,57,98)"/>
<path d="M56 29h2v1h-1v2h-1v2h-1v1h-1v1h-1v1h-1v-2h1v-1h1v-2h1v-2h1v-1z" fill="rgb(205,131,222)"/>
<path d="M58 29h1v2h-1v-2z" fill="rgb(16,16,16)"/>
<path d="M28 30h1v2h-1v-2z" fill="rgb(90,57,98)"/>
<path d="M40 30h1v1h-1v-1z" fill="rgb(90,57,98)"/>
<path d="M45 30h2v1h-2v-1z" fill="rgb(16,16,16)"/>
<path d="M52 30h1v2h-1v-2z" fill="rgb(16,16,16)"/>
<path d="M53 30h1v2h-1v-2z" fill="transparent"/>
<path d="M54 30h1v2h-1v-2z" fill="rgb(90,57,98)"/>
<path d="M57 30h1v1h-1v-1z" fill="rgb(148,90,180)"/>
<path d="M39 31h1v1h-1v-1z" fill="rgb(90,57,98)"/>
<path d="M44 31h1v1h-1v-1z" fill="rgb(16,16,16)"/>
<path d="M57 31h1v3h-1v-3z" fill="rgb(16,16,16)"/>
<path d="M27 32h1v2h-1v-2z" fill="rgb(90,57,98)"/>
<path d="M38 32h1v2h-1v-2z" fill="rgb(90,57,98)"/>
<path d="M39 32h1v3h-1v1h-1v-2h1v-2z" fill="rgb(230,172,238)"/>
<path d="M43 32h1v1h-1v-1z" fill="rgb(16,16,16)"/>
<path d="M51 32h1v3h-1v-3z" fill="rgb(16,16,16)"/>
<path d="M52 32h1v2h-1v-2z" fill="transparent"/>
<path d="M53 32h1v2h-1v-2z" fill="rgb(90,57,98)"/>
<path d="M56 32h1v2h-1v-2z" fill="rgb(148,90,180)"/>
<path d="M42 33h1v1h-1v-1z" fill="rgb(16,16,16)"/>
<path d="M62 33h1v1h-1v-1z" fill="rgb(90,57,98)"/>
<path d="M26 34h1v5h-1v-5z" fill="rgb(90,57,98)"/>
<path d="M36 34h1v2h-1v-2z" fill="rgb(16,16,16)"/>
<path d="M37 34h1v6h-1v-6z" fill="rgb(90,57,98)"/>
<path d="M41 34h1v3h-1v-3z" fill="rgb(16,16,16)"/>
<path d="M52 34h1v1h-1v-1z" fill="rgb(90,57,98)"/>
<path d="M55 34h1v4h3v1h2v3h-1v1h3v1h2v3h-1v2h1v1h1v-1h-1v-2h1v1h4v1h-1v1h-1v2h-1v-1h-2
	v1h2v1h1v2h-2v1h-2v1h-1v1h-1v2h-1v1h-1v-1h-1v-1h-1v-4h-1v-1h-2v-1h-2v-1h3v-1h4
	v-1h1v-5h-1v-1h-2v-2h-2v-1h-2v-1h-3v-2h1v-1h1v-1h1v-1h1v-1z" fill="rgb(148,90,180)"/>
<path d="M56 34h1v4h-1v-4z" fill="rgb(16,16,16)"/>
<path d="M61 34h1v1h-1v-1z" fill="rgb(90,57,98)"/>
<path d="M62 34h1v2h-1v2h-1v1h-2v-2h1v-1h1v-1h1v-1z" fill="rgb(205,131,222)"/>
<path d="M63 34h1v2h-1v-2z" fill="rgb(16,16,16)"/>
<path d="M48 35h1v3h-1v3h-1v1h-1v1h-1v-1h-1v-1h-1v-2h1v-1h1v-1h2v-1h1v-1z" fill="rgb(74,205,164)"/>
<path d="M50 35h1v7h-1v-7z" fill="rgb(16,16,16)"/>
<path d="M51 35h1v2h-1v-2z" fill="rgb(90,57,98)"/>
<path d="M60 35h1v1h-1v-1z" fill="rgb(90,57,98)"/>
<path d="M59 36h1v1h-1v-1z" fill="rgb(90,57,98)"/>
<path d="M62 36h1v3h-1v-3z" fill="rgb(16,16,16)"/>
<path d="M40 37h1v3h-1v-3z" fill="rgb(16,16,16)"/>
<path d="M51 37h1v1h-1v-1z" fill="rgb(205,131,222)"/>
<path d="M57 37h2v1h-2v-1z" fill="rgb(90,57,98)"/>
<path d="M48 38h1v1h-1v-1z" fill="rgb(0,148,98)"/>
<path d="M49 38h1v4h-1v1h-2v-1h1v-1h1v-3z" fill="rgb(205,131,222)"/>
<path d="M61 38h1v1h-1v-1z" fill="rgb(148,90,180)"/>
<path d="M27 39h1v2h-1v-2z" fill="rgb(90,57,98)"/>
<path d="M48 39h1v2h-1v-2z" fill="rgb(148,90,180)"/>
<path d="M61 39h1v3h-1v-3z" fill="rgb(16,16,16)"/>
<path d="M36 40h1v3h-1v-3z" fill="rgb(90,57,98)"/>
<path d="M39 40h1v2h-1v-2z" fill="rgb(16,16,16)"/>
<path d="M51 40h3v1h-3v-1z" fill="rgb(90,57,98)"/>
<path d="M65 40h2v1h-2v-1z" fill="rgb(90,57,98)"/>
<path d="M28 41h1v2h-1v-2z" fill="rgb(90,57,98)"/>
<path d="M34 41h2v1h-2v-1z" fill="rgb(16,16,16)"/>
<path d="M47 41h1v1h-1v-1z" fill="rgb(148,90,180)"/>
<path d="M51 41h3v1h2v1h-1v1h-2v-1h-2v1h-1v3h-3v1h-2v-2h1v-1h1v-1h2v-1h1v-1h1v-1z" fill="rgb(148,90,180)"/>
<path d="M54 41h2v1h-2v-1z" fill="rgb(90,57,98)"/>
<path d="M63 41h2v1h-2v-1z" fill="rgb(90,57,98)"/>
<path d="M65 41h2v1h-1v1h-1v1h-2v-2h2v-1z" fill="rgb(205,131,222)"/>
<path d="M67 41h1v2h-1v-2z" fill="rgb(16,16,16)"/>
<path d="M32 42h2v1h-2v-1z" fill="rgb(16,16,16)"/>
<path d="M38 42h1v3h-1v-3z" fill="rgb(16,16,16)"/>
<path d="M41 42h1v1h-1v-1z" fill="rgb(148,90,180)"/>
<path d="M46 42h1v1h-1v-1z" fill="rgb(148,90,180)"/>
<path d="M49 42h1v1h-1v-1z" fill="rgb(16,16,16)"/>
<path d="M56 42h2v1h-2v-1z" fill="rgb(90,57,98)"/>
<path d="M60 42h3v1h-3v-1z" fill="rgb(90,57,98)"/>
<path d="M66 42h1v1h-1v-1z" fill="rgb(148,90,180)"/>
<path d="M29 43h1v2h-1v-2z" fill="rgb(90,57,98)"/>
<path d="M31 43h1v1h-1v-1z" fill="rgb(16,16,16)"/>
<path d="M32 43h1v1h-1v-1z" fill="rgb(230,172,238)"/>
<path d="M36 43h1v1h-1v-1z" fill="rgb(148,90,180)"/>
<path d="M40 43h1v1h-1v-1z" fill="rgb(148,90,180)"/>
<path d="M42 43h1v2h-1v-2z" fill="rgb(148,90,180)"/>
<path d="M45 43h1v2h-1v1h-1v1h-1v-2h1v-1h1v-1z" fill="rgb(148,90,180)"/>
<path d="M46 43h1v1h-1v-1z" fill="rgb(205,131,222)"/>
<path d="M47 43h2v1h-2v-1z" fill="rgb(16,16,16)"/>
<path d="M51 43h2v1h1v1h-2v1h-2v-2h1v-1z" fill="rgb(90,57,98)"/>
<path d="M65 43h1v1h-1v-1z" fill="rgb(148,90,180)"/>
<path d="M66 43h1v1h-1v-1z" fill="rgb(16,16,16)"/>
<path d="M30 44h1v1h-1v-1z" fill="rgb(16,16,16)"/>
<path d="M31 44h1v2h-1v2h-2v-1h1v-2h1v-1z" fill="rgb(230,172,238)"/>
<path d="M35 44h1v1h-1v-1z" fill="rgb(148,90,180)"/>
<path d="M39 44h1v1h-1v-1z" fill="rgb(148,90,180)"/>
<path d="M46 44h1v1h-1v-1z" fill="rgb(16,16,16)"/>
<path d="M65 44h1v3h-1v-3z" fill="rgb(16,16,16)"/>
<path d="M29 45h1v2h-1v-2z" fill="rgb(148,90,180)"/>
<path d="M42 45h1v1h-1v-1z" fill="rgb(0,148,98)"/>
<path d="M45 45h1v1h-1v-1z" fill="rgb(90,57,98)"/>
<path d="M52 45h2v2h-2v-2z" fill="rgb(148,90,180)"/>
<path d="M44 46h1v1h-1v-1z" fill="rgb(90,57,98)"/>
<path d="M56 46h3v1h1v1h-1v1h-1v1h-2v-1h-1v-2h1v-1z" fill="rgb(148,90,180)"/>
<path d="M28 47h1v1h-1v-1z" fill="rgb(148,90,180)"/>
<path d="M64 47h1v2h-1v-2z" fill="rgb(90,57,98)"/>
<path d="M66 47h4v1h-4v-1z" fill="rgb(90,57,98)"/>
<path d="M28 48h2v1h-2v-1z" fill="rgb(90,57,98)"/>
<path d="M35 48h2v2h-1v2h-1v-1h-1v-2h1v-1z" fill="rgb(230,172,238)"/>
<path d="M38 48h1v1h-1v-1z" fill="rgb(90,57,98)"/>
<path d="M39 48h1v2h-1v-2z" fill="rgb(148,90,180)"/>
<path d="M50 48h2v1h1v2h-2v-1h-1v-2z" fill="rgb(148,90,180)"/>
<path d="M59 48h2v2h-1v1h-3v-1h1v-1h1v-1z" fill="rgb(90,57,98)"/>
<path d="M70 48h1v1h-1v-1z" fill="rgb(16,16,16)"/>
<path d="M26 49h2v1h-2v-1z" fill="rgb(90,57,98)"/>
<path d="M28 49h2v1h-1v1h-1v1h-1v1h-5v-1h2v-1h2v-1h2v-1z" fill="rgb(230,172,238)"/>
<path d="M37 49h1v1h-1v-1z" fill="rgb(90,57,98)"/>
<path d="M38 49h1v1h-1v-1z" fill="rgb(197,197,197)"/>
<path d="M44 49h1v1h-1v-1z" fill="rgb(148,90,180)"/>
<path d="M65 49h1v1h-1v-1z" fill="rgb(90,57,98)"/>
<path d="M69 49h1v1h-1v-1z" fill="rgb(16,16,16)"/>
<path d="M24 50h2v1h-2v-1z" fill="rgb(90,57,98)"/>
<path d="M36 50h1v1h-1v-1z" fill="rgb(205,131,222)"/>
<path d="M37 50h1v1h-1v-1z" fill="rgb(16,16,16)"/>
<path d="M38 50h2v1h-2v-1z" fill="rgb(255,255,255)"/>
<path d="M40 50h1v1h-1v-1z" fill="rgb(148,90,180)"/>
<path d="M45 50h1v2h-1v-2z" fill="rgb(90,57,98)"/>
<path d="M68 50h1v2h-1v-2z" fill="rgb(16,16,16)"/>
<path d="M22 51h2v1h-2v-1z" fill="rgb(90,57,98)"/>
<path d="M34 51h1v2h-1v-2z" fill="rgb(148,90,180)"/>
<path d="M36 51h1v2h-1v-2z" fill="rgb(16,16,16)"/>
<path d="M37 51h1v1h-1v-1z" fill="rgb(131,90,82)"/>
<path d="M38 51h1v1h-1v-1z" fill="rgb(197,197,197)"/>
<path d="M46 51h1v1h2v1h3v1h-2v1h-1v1h-1v1h-1v2h-3v-2h-1v2h-1v1h-1v-2h1v-4h2v-1h1v-1h1
	v-1z" fill="rgb(148,90,180)"/>
<path d="M65 51h2v1h-2v-1z" fill="rgb(90,57,98)"/>
<path d="M21 52h1v1h-1v-1z" fill="rgb(90,57,98)"/>
<path d="M35 52h1v1h-1v-1z" fill="rgb(205,131,222)"/>
<path d="M37 52h1v1h-1v-1z" fill="rgb(90,57,98)"/>
<path d="M44 52h1v1h-1v-1z" fill="rgb(90,57,98)"/>
<path d="M62 52h1v2h-1v-2z" fill="rgb(90,57,98)"/>
<path d="M67 52h1v1h-1v-1z" fill="rgb(16,16,16)"/>
<path d="M22 53h7v1h-7v-1z" fill="rgb(16,16,16)"/>
<path d="M35 53h2v1h-2v-1z" fill="rgb(90,57,98)"/>
<path d="M42 53h2v1h-2v-1z" fill="rgb(90,57,98)"/>
<path d="M52 53h3v1h-3v-1z" fill="rgb(90,57,98)"/>
<path d="M68 53h1v4h-1v-4z" fill="rgb(16,16,16)"/>
<path d="M27 54h1v2h-1v-2z" fill="rgb(90,57,98)"/>
<path d="M28 54h1v1h1v1h1v4h1v1h-2v-1h-1v-4h-1v-2z" fill="rgb(230,172,238)"/>
<path d="M29 54h1v1h-1v-1z" fill="rgb(148,90,180)"/>
<path d="M40 54h2v1h-1v3h-1v-2h-2v-1h2v-1z" fill="rgb(16,16,16)"/>
<path d="M45 54h1v1h-1v-1z" fill="rgb(90,57,98)"/>
<path d="M50 54h2v1h-2v-1z" fill="rgb(90,57,98)"/>
<path d="M52 54h3v1h2v2h-2v1h-2v-2h-1v-2z" fill="rgb(148,90,180)"/>
<path d="M55 54h2v1h-2v-1z" fill="rgb(90,57,98)"/>
<path d="M61 54h1v2h-1v-2z" fill="rgb(90,57,98)"/>
<path d="M41 55h1v3h-1v-3z" fill="rgb(90,57,98)"/>
<path d="M44 55h1v2h-1v-2z" fill="rgb(16,16,16)"/>
<path d="M49 55h1v1h-1v-1z" fill="rgb(90,57,98)"/>
<path d="M50 55h1v1h1v1h1v1h-1v1h-3v-1h-1v-1h1v-1h1v-1z" fill="rgb(230,172,238)"/>
<path d="M51 55h1v1h-1v-1z" fill="rgb(205,131,222)"/>
<path d="M57 55h1v2h-1v-2z" fill="rgb(90,57,98)"/>
<path d="M66 55h2v1h-2v-1z" fill="rgb(90,57,98)"/>
<path d="M28 56h1v4h-1v-4z" fill="rgb(16,16,16)"/>
<path d="M37 56h1v1h-1v-1z" fill="rgb(16,16,16)"/>
<path d="M38 56h1v1h-1v-1z" fill="rgb(197,197,197)"/>
<path d="M39 56h1v2h-1v-2z" fill="rgb(255,255,255)"/>
<path d="M48 56h1v1h-1v-1z" fill="rgb(90,57,98)"/>
<path d="M52 56h1v1h-1v-1z" fill="rgb(205,131,222)"/>
<path d="M60 56h1v1h-1v-1z" fill="rgb(90,57,98)"/>
<path d="M64 56h2v1h-2v-1z" fill="rgb(90,57,98)"/>
<path d="M66 56h2v1h1v3h1v3h-1v1h-1v-1h-1v1h-1v1h-1v-1h-1v-1h-1v-1h-1v-2h1v-2h1v-1h2v-1z" fill="rgb(148,90,180)"/>
<path d="M32 57h1v1h-1v-1z" fill="rgb(148,90,180)"/>
<path d="M36 57h1v1h-1v-1z" fill="rgb(16,16,16)"/>
<path d="M37 57h1v1h1v1h-2v1h-1v2h-1v-3h1v-1h1v-1z" fill="rgb(180,24,0)"/>
<path d="M38 57h1v1h-1v-1z" fill="rgb(16,16,16)"/>
<path d="M43 57h1v2h2v1h-4v-1h1v-2z" fill="rgb(16,16,16)"/>
<path d="M47 57h1v2h-1v-2z" fill="rgb(90,57,98)"/>
<path d="M55 57h2v1h-2v-1z" fill="rgb(90,57,98)"/>
<path d="M57 57h1v2h-1v-2z" fill="rgb(16,16,16)"/>
<path d="M59 57h1v2h-1v-2z" fill="rgb(90,57,98)"/>
<path d="M63 57h1v1h-1v-1z" fill="rgb(90,57,98)"/>
<path d="M69 57h1v3h-1v-3z" fill="rgb(16,16,16)"/>
<path d="M31 58h1v1h-1v-1z" fill="rgb(148,90,180)"/>
<path d="M35 58h1v1h-1v-1z" fill="rgb(16,16,16)"/>
<path d="M39 58h1v1h-1v-1z" fill="rgb(16,16,16)"/>
<path d="M40 58h1v2h-1v-2z" fill="rgb(90,57,98)"/>
<path d="M48 58h1v1h1v1h-1v1h-2v-2h1v-1z" fill="rgb(205,131,222)"/>
<path d="M52 58h3v1h-3v-1z" fill="rgb(90,57,98)"/>
<path d="M55 58h2v1h1v2h-1v-1h-2v1h-1v-2h1v-1z" fill="rgb(148,90,180)"/>
<path d="M62 58h1v1h-1v-1z" fill="rgb(90,57,98)"/>
<path d="M66 58h1v1h1v2h-1v1h-1v-1h-1v-2h1v-1z" fill="rgb(90,57,98)"/>
<path d="M31 59h1v1h-1v-1z" fill="rgb(90,57,98)"/>
<path d="M33 59h1v2h-1v1h-2v-1h1v-1h1v-1z" fill="rgb(148,90,180)"/>
<path d="M34 59h1v2h-1v-2z" fill="rgb(16,16,16)"/>
<path d="M37 59h3v1h-1v1h-1v1h-2v-2h1v-1z" fill="rgb(222,65,41)"/>
<path d="M46 59h1v1h-1v-1z" fill="rgb(90,57,98)"/>
<path d="M50 59h1v1h-1v-1z" fill="rgb(148,90,180)"/>
<path d="M51 59h1v1h-1v-1z" fill="rgb(90,57,98)"/>
<path d="M52 59h1v1h-1v-1z" fill="rgb(148,90,180)"/>
<path d="M53 59h1v1h-1v-1z" fill="rgb(205,131,222)"/>
<path d="M58 59h1v3h-1v-3z" fill="rgb(16,16,16)"/>
<path d="M62 59h1v1h-1v-1z" fill="rgb(16,16,16)"/>
<path d="M29 60h1v1h-1v-1z" fill="rgb(16,16,16)"/>
<path d="M39 60h1v1h-1v-1z" fill="rgb(90,57,98)"/>
<path d="M40 60h1v1h-1v-1z" fill="rgb(148,90,180)"/>
<path d="M41 60h1v1h-1v-1z" fill="rgb(16,16,16)"/>
<path d="M42 60h1v1h-1v-1z" fill="transparent"/>
<path d="M43 60h1v1h-1v-1z" fill="rgb(90,57,98)"/>
<path d="M44 60h2v1h1v1h1v1h-2v1h-1v1h-1v-1h-1v-3h1v-1z" fill="rgb(148,90,180)"/>
<path d="M46 60h1v1h-1v-1z" fill="rgb(16,16,16)"/>
<path d="M49 60h2v1h-2v-1z" fill="rgb(90,57,98)"/>
<path d="M51 60h3v2h1v2h-2v-1h-1v-1h-1v-2z" fill="rgb(230,172,238)"/>
<path d="M55 60h2v1h1v3h-2v-1h-1v-3z" fill="rgb(90,57,98)"/>
<path d="M59 60h1v1h-1v-1z" fill="rgb(90,57,98)"/>
<path d="M61 60h1v2h-1v-2z" fill="rgb(16,16,16)"/>
<path d="M70 60h1v3h-1v-3z" fill="rgb(16,16,16)"/>
<path d="M30 61h1v1h-1v-1z" fill="rgb(16,16,16)"/>
<path d="M33 61h1v1h-1v-1z" fill="rgb(16,16,16)"/>
<path d="M34 61h1v1h-1v-1z" fill="rgb(90,57,98)"/>
<path d="M38 61h1v1h-1v-1z" fill="rgb(90,57,98)"/>
<path d="M39 61h1v1h-1v-1z" fill="rgb(148,90,180)"/>
<path d="M40 61h1v1h-1v-1z" fill="rgb(16,16,16)"/>
<path d="M42 61h1v3h-1v-3z" fill="rgb(90,57,98)"/>
<path d="M47 61h1v1h-1v-1z" fill="rgb(16,16,16)"/>
<path d="M48 61h1v1h-1v-1z" fill="rgb(90,57,98)"/>
<path d="M49 61h2v1h1v1h1v1h3v1h1v1h-1v1h-4v-1h-1v-2h-1v-1h-1v-2z" fill="rgb(205,131,222)"/>
<path d="M54 61h1v1h-1v-1z" fill="rgb(205,131,222)"/>
<path d="M59 61h1v1h-1v-1z" fill="transparent"/>
<path d="M60 61h1v1h-1v-1z" fill="rgb(90,57,98)"/>
<path d="M29 62h1v1h1v1h-1v1h-1v-3z" fill="rgb(90,57,98)"/>
<path d="M30 62h1v1h-1v-1z" fill="rgb(148,90,180)"/>
<path d="M31 62h2v1h-2v-1z" fill="rgb(16,16,16)"/>
<path d="M33 62h2v1h1v2h-2v-1h-1v1h-1v-1h-1v-1h2v-1z" fill="rgb(148,90,180)"/>
<path d="M35 62h3v1h-3v-1z" fill="rgb(90,57,98)"/>
<path d="M38 62h1v1h-1v-1z" fill="rgb(148,90,180)"/>
<path d="M39 62h1v1h-1v-1z" fill="rgb(16,16,16)"/>
<path d="M48 62h1v1h-1v-1z" fill="rgb(16,16,16)"/>
<path d="M58 62h1v4h-1v1h-1v-2h-1v-1h2v-2z" fill="rgb(148,90,180)"/>
<path d="M59 62h1v5h-1v-5z" fill="rgb(16,16,16)"/>
<path d="M62 62h1v1h-1v-1z" fill="rgb(16,16,16)"/>
<path d="M36 63h3v1h-3v-1z" fill="rgb(16,16,16)"/>
<path d="M46 63h2v1h1v1h-1v1h-7v-2h1v1h1v-1h1v1h1v-1h1v-1z" fill="rgb(90,57,98)"/>
<path d="M48 63h1v1h-1v-1z" fill="rgb(148,90,180)"/>
<path d="M49 63h1v1h-1v-1z" fill="rgb(16,16,16)"/>
<path d="M55 63h1v1h-1v-1z" fill="rgb(148,90,180)"/>
<path d="M63 63h1v1h-1v-1z" fill="rgb(16,16,16)"/>
<path d="M67 63h1v1h-1v-1z" fill="rgb(90,57,98)"/>
<path d="M69 63h2v1h-1v1h-2v-1h1v-1z" fill="rgb(90,57,98)"/>
<path d="M71 63h1v2h-1v-2z" fill="rgb(16,16,16)"/>
<path d="M30 64h1v2h-2v-1h1v-1z" fill="rgb(197,197,197)"/>
<path d="M31 64h1v1h1v3h-1v-2h-1v-2z" fill="rgb(90,57,98)"/>
<path d="M33 64h1v1h-1v-1z" fill="rgb(90,57,98)"/>
<path d="M36 64h2v1h-1v1h-3v-1h2v-1z" fill="rgb(90,57,98)"/>
<path d="M42 64h1v1h-1v-1z" fill="rgb(197,197,197)"/>
<path d="M46 64h1v1h-1v-1z" fill="rgb(197,197,197)"/>
<path d="M50 64h1v2h-1v-2z" fill="rgb(16,16,16)"/>
<path d="M64 64h1v1h-1v-1z" fill="rgb(16,16,16)"/>
<path d="M66 64h1v1h-1v-1z" fill="rgb(90,57,98)"/>
<path d="M67 64h1v2h-1v-2z" fill="rgb(197,197,197)"/>
<path d="M70 64h1v1h-1v-1z" fill="rgb(197,197,197)"/>
<path d="M28 65h1v1h-1v-1z" fill="rgb(90,57,98)"/>
<path d="M33 65h1v2h-1v-2z" fill="rgb(197,197,197)"/>
<path d="M65 65h1v1h-1v-1z" fill="rgb(16,16,16)"/>
<path d="M66 65h1v1h-1v-1z" fill="rgb(131,131,131)"/>
<path d="M68 65h1v1h-1v-1z" fill="rgb(131,131,131)"/>
<path d="M69 65h2v1h-2v-1z" fill="rgb(16,16,16)"/>
<path d="M28 66h4v1h-4v-1z" fill="rgb(16,16,16)"/>
<path d="M34 66h1v1h-1v-1z" fill="rgb(16,16,16)"/>
<path d="M51 66h1v1h-1v-1z" fill="rgb(16,16,16)"/>
<path d="M56 66h1v1h-1v-1z" fill="rgb(90,57,98)"/>
<path d="M58 66h1v2h-2v-1h1v-1z" fill="rgb(90,57,98)"/>
<path d="M66 66h3v1h-3v-1z" fill="rgb(16,16,16)"/>
<path d="M33 67h1v1h-1v-1z" fill="rgb(16,16,16)"/>
<path d="M52 67h1v2h-1v-2z" fill="rgb(16,16,16)"/>
<path d="M53 67h1v1h-1v-1z" fill="rgb(90,57,98)"/>
<path d="M54 67h1v1h-1v-1z" fill="rgb(148,90,180)"/>
<path d="M55 67h1v1h-1v-1z" fill="rgb(90,57,98)"/>
<path d="M56 67h1v3h-1v-1h-1v-1h1v-1z" fill="rgb(255,255,255)"/>
<path d="M59 67h1v1h-1v-1z" fill="rgb(197,197,197)"/>
<path d="M60 67h1v2h-2v1h-1v1h-2v-1h1v-1h1v-1h2v-1z" fill="rgb(16,16,16)"/>
<path d="M53 68h1v1h-1v-1z" fill="rgb(255,255,255)"/>
<path d="M54 68h1v1h-1v-1z" fill="rgb(90,57,98)"/>
<path d="M57 68h1v1h-1v-1z" fill="rgb(197,197,197)"/>
<path d="M53 69h3v1h-3v-1z" fill="rgb(16,16,16)"/>
</svg>
