<?xml version="1.0" encoding="utf-8"?>
<!-- generated at drububu.com  -->
<!DOCTYPE svg PUBLIC "-//W3C//DTD SVG 1.1//EN" "http://www.w3.org/Graphics/SVG/1.1/DTD/svg11.dtd">
<svg version="1.1" preserveAspectRatio="xMinYMin meet" xmlns="http://www.w3.org/2000/svg" xmlns:xlink="http://www.w3.org/1999/xlink" x="0px" y="0px" width="96px" height="96px" viewBox="0 0 96 96">
<path d="M0 0h96v96h-96v-96z" fill="transparent"/>
<path d="M48 17h1v1h-1v-1z" fill="rgb(90,41,106)"/>
<path d="M55 17h2v1h-2v-1z" fill="rgb(90,41,106)"/>
<path d="M22 18h1v1h-1v-1z" fill="rgb(90,41,106)"/>
<path d="M47 18h1v1h-1v-1z" fill="rgb(90,41,106)"/>
<path d="M48 18h1v2h-1v1h-3v-1h2v-1h1v-1z" fill="rgb(222,148,246)"/>
<path d="M49 18h1v2h-1v-2z" fill="rgb(16,16,16)"/>
<path d="M53 18h2v1h-2v-1z" fill="rgb(90,41,106)"/>
<path d="M55 18h2v1h-1v1h-2v1h-2v-1h1v-1h2v-1z" fill="rgb(213,115,238)"/>
<path d="M57 18h1v1h-1v-1z" fill="rgb(16,16,16)"/>
<path d="M21 19h1v2h-1v-2z" fill="rgb(90,41,106)"/>
<path d="M22 19h1v2h-1v-2z" fill="rgb(222,148,246)"/>
<path d="M23 19h1v2h-1v-2z" fill="rgb(90,41,106)"/>
<path d="M39 19h1v1h-1v-1z" fill="rgb(16,16,16)"/>
<path d="M45 19h2v1h-2v-1z" fill="rgb(90,41,106)"/>
<path d="M50 19h3v1h-3v-1z" fill="rgb(90,41,106)"/>
<path d="M56 19h1v1h-1v-1z" fill="rgb(16,16,16)"/>
<path d="M20 20h1v1h-1v-1z" fill="rgb(164,82,148)"/>
<path d="M38 20h1v4h-1v-4z" fill="rgb(16,16,16)"/>
<path d="M39 20h1v1h1v1h-1v2h-1v-4z" fill="rgb(164,82,148)"/>
<path d="M40 20h1v1h-1v-1z" fill="rgb(16,16,16)"/>
<path d="M43 20h2v1h-2v-1z" fill="rgb(90,41,106)"/>
<path d="M48 20h4v1h2v-1h1v3h1v1h1v1h-1v1h-1v-1h-1v-2h-1v-1h-2v-1h-3v-1z" fill="rgb(164,82,148)"/>
<path d="M55 20h1v3h-1v-3z" fill="rgb(16,16,16)"/>
<path d="M19 21h1v2h-1v-2z" fill="rgb(16,16,16)"/>
<path d="M20 21h1v2h-1v-2z" fill="rgb(213,115,238)"/>
<path d="M21 21h1v1h-1v-1z" fill="rgb(164,82,148)"/>
<path d="M22 21h1v1h-1v-1z" fill="rgb(213,115,238)"/>
<path d="M23 21h1v1h-1v-1z" fill="rgb(222,148,246)"/>
<path d="M24 21h1v1h-1v-1z" fill="rgb(90,41,106)"/>
<path d="M41 21h2v1h-2v-1z" fill="rgb(90,41,106)"/>
<path d="M43 21h2v1h-1v1h-1v1h-1v1h-1v2h-1v-3h1v-2h2v-1z" fill="rgb(222,148,246)"/>
<path d="M45 21h2v1h-2v-1z" fill="rgb(164,82,148)"/>
<path d="M47 21h4v1h-4v-1z" fill="rgb(90,41,106)"/>
<path d="M21 22h2v1h-2v-1z" fill="rgb(90,41,106)"/>
<path d="M23 22h1v1h-1v-1z" fill="rgb(213,115,238)"/>
<path d="M24 22h1v1h1v1h1v2h1v1h1v1h-1v1h-1v-1h-1v-2h-1v-2h-1v-2z" fill="rgb(222,148,246)"/>
<path d="M25 22h1v1h-1v-1z" fill="rgb(16,16,16)"/>
<path d="M40 22h1v2h-1v-2z" fill="rgb(90,41,106)"/>
<path d="M44 22h1v1h-1v-1z" fill="rgb(164,82,148)"/>
<path d="M45 22h2v1h-2v-1z" fill="rgb(90,41,106)"/>
<path d="M47 22h4v1h2v2h1v3h-1v-1h-1v-1h-3v-1h-1v-1h-3v-1h2v-1z" fill="rgb(41,123,148)"/>
<path d="M51 22h2v1h-2v-1z" fill="rgb(90,41,106)"/>
<path d="M20 23h1v6h-1v-6z" fill="rgb(16,16,16)"/>
<path d="M21 23h2v1h1v1h-1v3h-1v1h-1v-6z" fill="rgb(41,123,148)"/>
<path d="M23 23h1v1h-1v-1z" fill="rgb(90,41,106)"/>
<path d="M26 23h1v1h-1v-1z" fill="rgb(16,16,16)"/>
<path d="M30 23h1v3h-1v-3z" fill="rgb(90,41,106)"/>
<path d="M31 23h1v1h-1v-1z" fill="rgb(16,16,16)"/>
<path d="M43 23h1v1h-1v-1z" fill="rgb(164,82,148)"/>
<path d="M44 23h1v1h-1v-1z" fill="rgb(90,41,106)"/>
<path d="M53 23h1v2h-1v-2z" fill="rgb(90,41,106)"/>
<path d="M56 23h1v1h-1v-1z" fill="rgb(90,41,106)"/>
<path d="M24 24h1v2h-1v-2z" fill="rgb(90,41,106)"/>
<path d="M27 24h1v2h-1v-2z" fill="rgb(16,16,16)"/>
<path d="M31 24h1v1h1v2h-1v-1h-1v-2z" fill="rgb(222,148,246)"/>
<path d="M32 24h1v1h-1v-1z" fill="rgb(16,16,16)"/>
<path d="M35 24h2v1h-2v-1z" fill="rgb(90,41,106)"/>
<path d="M37 24h1v2h-1v-2z" fill="rgb(16,16,16)"/>
<path d="M38 24h1v3h-1v2h-1v1h-1v-1h-1v-1h-1v-1h1v-2h2v1h1v-2z" fill="rgb(164,82,148)"/>
<path d="M39 24h1v3h-1v-3z" fill="rgb(90,41,106)"/>
<path d="M42 24h1v1h-1v-1z" fill="rgb(164,82,148)"/>
<path d="M43 24h1v1h-1v-1z" fill="rgb(90,41,106)"/>
<path d="M44 24h4v1h-4v-1z" fill="rgb(0,74,98)"/>
<path d="M57 24h1v1h-1v-1z" fill="rgb(16,16,16)"/>
<path d="M23 25h1v5h-1v-5z" fill="rgb(0,74,98)"/>
<path d="M33 25h1v1h-1v-1z" fill="rgb(16,16,16)"/>
<path d="M34 25h1v1h-1v-1z" fill="rgb(90,41,106)"/>
<path d="M41 25h1v1h-1v-1z" fill="rgb(164,82,148)"/>
<path d="M42 25h1v1h-1v-1z" fill="rgb(90,41,106)"/>
<path d="M43 25h5v1h1v3h-1v1h-1v1h-2v1h-3v-1h-2v-1h1v-2h1v-2h1v-1z" fill="rgb(41,123,148)"/>
<path d="M48 25h1v1h-1v-1z" fill="rgb(0,74,98)"/>
<path d="M54 25h1v3h-1v-3z" fill="rgb(90,41,106)"/>
<path d="M56 25h1v1h-1v-1z" fill="rgb(16,16,16)"/>
<path d="M24 26h1v2h1v1h1v1h-1v2h-1v-2h-1v-4z" fill="rgb(41,123,148)"/>
<path d="M25 26h1v2h-1v-2z" fill="rgb(90,41,106)"/>
<path d="M28 26h1v1h-1v-1z" fill="rgb(16,16,16)"/>
<path d="M30 26h1v1h-1v-1z" fill="rgb(164,82,148)"/>
<path d="M31 26h1v2h-1v-2z" fill="rgb(90,41,106)"/>
<path d="M33 26h1v1h-1v-1z" fill="rgb(164,82,148)"/>
<path d="M34 26h1v1h-1v-1z" fill="rgb(16,16,16)"/>
<path d="M36 26h1v1h-1v-1z" fill="rgb(16,16,16)"/>
<path d="M41 26h1v2h-1v-2z" fill="rgb(90,41,106)"/>
<path d="M49 26h1v3h-1v-3z" fill="rgb(0,74,98)"/>
<path d="M50 26h2v1h1v3h-1v1h-2v1h-1v1h-2v1h-2v1h-1v-1h-1v-1h2v-1h2v-1h1v-1h1v-1h1v-3z" fill="rgb(65,148,197)"/>
<path d="M55 26h1v1h-1v-1z" fill="rgb(16,16,16)"/>
<path d="M59 26h2v1h-2v-1z" fill="rgb(90,41,106)"/>
<path d="M29 27h1v1h-1v-1z" fill="rgb(164,82,148)"/>
<path d="M30 27h1v1h-1v-1z" fill="rgb(222,148,246)"/>
<path d="M32 27h2v1h1v1h1v1h2v-1h1v2h1v1h2v2h1v3h-1v2h-3v-1h-1v-2h-1v1h-1v2h-1v-3h-1v1
	h-1v4h1v1h1v-1h2v-1h1v-1h1v3h-1v1h-2v1h-2v1h-1v1h-2v-1h-1v-1h-1v-2h-1v-3h-1v-1
	h-1v-1h-2v-1h1v-1h-2v-1h4v-1h1v-2h2v-1h1v-2h1v-1z" fill="rgb(213,115,238)"/>
<path d="M38 27h1v2h-1v-2z" fill="rgb(90,41,106)"/>
<path d="M39 27h1v1h-1v-1z" fill="rgb(222,148,246)"/>
<path d="M40 27h1v1h-1v-1z" fill="rgb(164,82,148)"/>
<path d="M58 27h1v1h-1v-1z" fill="rgb(90,41,106)"/>
<path d="M59 27h2v2h-1v1h-2v-2h1v-1z" fill="rgb(213,115,238)"/>
<path d="M61 27h1v2h-1v-2z" fill="rgb(16,16,16)"/>
<path d="M22 28h1v2h1v2h-1v-1h-1v-3z" fill="rgb(65,148,197)"/>
<path d="M26 28h1v1h-1v-1z" fill="rgb(90,41,106)"/>
<path d="M28 28h1v1h-1v-1z" fill="rgb(164,82,148)"/>
<path d="M29 28h1v2h-1v1h-1v1h-1v-2h1v-1h1v-1z" fill="rgb(222,148,246)"/>
<path d="M30 28h1v2h-1v-2z" fill="rgb(164,82,148)"/>
<path d="M39 28h1v2h-1v-2z" fill="rgb(164,82,148)"/>
<path d="M40 28h1v2h-1v-2z" fill="rgb(90,41,106)"/>
<path d="M53 28h1v2h-1v-2z" fill="rgb(16,16,16)"/>
<path d="M57 28h1v1h-1v-1z" fill="rgb(90,41,106)"/>
<path d="M21 29h1v2h-1v-2z" fill="rgb(16,16,16)"/>
<path d="M27 29h1v1h-1v-1z" fill="rgb(164,82,148)"/>
<path d="M37 29h1v1h-1v-1z" fill="rgb(90,41,106)"/>
<path d="M48 29h1v1h-1v-1z" fill="rgb(0,74,98)"/>
<path d="M56 29h1v1h-1v-1z" fill="rgb(90,41,106)"/>
<path d="M57 29h1v1h2v1h-1v3h-1v1h-1v-1h-1v1h-5v1h-2v-1h-2v-1h2v-1h1v-1h2v1h2v-1h1v-1h1
	v-1h1v-1z" fill="rgb(164,82,148)"/>
<path d="M60 29h1v2h-1v-2z" fill="rgb(16,16,16)"/>
<path d="M24 30h1v2h-1v-2z" fill="rgb(0,74,98)"/>
<path d="M26 30h1v2h-1v-2z" fill="rgb(164,82,148)"/>
<path d="M29 30h1v1h-1v-1z" fill="rgb(164,82,148)"/>
<path d="M39 30h1v1h-1v-1z" fill="rgb(90,41,106)"/>
<path d="M47 30h1v1h-1v-1z" fill="rgb(0,74,98)"/>
<path d="M52 30h1v1h-1v-1z" fill="rgb(16,16,16)"/>
<path d="M55 30h1v1h-1v-1z" fill="rgb(90,41,106)"/>
<path d="M22 31h1v1h-1v-1z" fill="rgb(16,16,16)"/>
<path d="M40 31h2v1h-2v-1z" fill="rgb(90,41,106)"/>
<path d="M45 31h2v1h-2v-1z" fill="rgb(0,74,98)"/>
<path d="M50 31h2v1h-2v-1z" fill="rgb(16,16,16)"/>
<path d="M54 31h1v1h-1v-1z" fill="rgb(90,41,106)"/>
<path d="M59 31h1v3h-1v-3z" fill="rgb(16,16,16)"/>
<path d="M23 32h1v1h-1v-1z" fill="rgb(16,16,16)"/>
<path d="M24 32h1v1h-1v-1z" fill="rgb(65,148,197)"/>
<path d="M25 32h1v1h1v1h-10v-1h8v-1z" fill="rgb(164,82,148)"/>
<path d="M26 32h1v1h-1v-1z" fill="rgb(222,148,246)"/>
<path d="M27 32h1v1h-1v-1z" fill="rgb(164,82,148)"/>
<path d="M42 32h1v2h-1v-2z" fill="rgb(90,41,106)"/>
<path d="M43 32h2v1h-2v-1z" fill="rgb(0,74,98)"/>
<path d="M49 32h1v1h-1v-1z" fill="rgb(16,16,16)"/>
<path d="M52 32h2v1h-2v-1z" fill="rgb(90,41,106)"/>
<path d="M47 33h2v1h-2v-1z" fill="rgb(16,16,16)"/>
<path d="M54 33h1v1h-1v-1z" fill="rgb(90,41,106)"/>
<path d="M16 34h1v1h-1v-1z" fill="rgb(90,41,106)"/>
<path d="M17 34h6v1h2v1h-5v-1h-3v-1z" fill="rgb(222,148,246)"/>
<path d="M43 34h1v2h-1v-2z" fill="rgb(90,41,106)"/>
<path d="M45 34h2v1h-2v-1z" fill="rgb(16,16,16)"/>
<path d="M56 34h1v1h-1v-1z" fill="rgb(90,41,106)"/>
<path d="M58 34h1v2h-1v-2z" fill="rgb(16,16,16)"/>
<path d="M65 34h2v1h-2v-1z" fill="rgb(90,41,106)"/>
<path d="M17 35h3v1h-3v-1z" fill="rgb(90,41,106)"/>
<path d="M38 35h1v1h-1v-1z" fill="rgb(164,82,148)"/>
<path d="M44 35h1v1h-1v-1z" fill="rgb(16,16,16)"/>
<path d="M45 35h2v1h2v1h-2v2h1v1h-3v1h-1v1h-1v2h-1v1h-1v1h-2v-1h1v-1h1v-3h2v-1h1v-1h-1
	v-1h-1v-1h1v-1h2v-1z" fill="rgb(164,82,148)"/>
<path d="M47 35h2v1h-2v-1z" fill="rgb(16,16,16)"/>
<path d="M51 35h5v1h-5v-1z" fill="rgb(16,16,16)"/>
<path d="M56 35h1v1h-1v-1z" fill="rgb(164,82,148)"/>
<path d="M57 35h1v1h-1v-1z" fill="rgb(90,41,106)"/>
<path d="M63 35h2v1h-2v-1z" fill="rgb(90,41,106)"/>
<path d="M65 35h2v1h-2v-1z" fill="rgb(213,115,238)"/>
<path d="M67 35h1v2h-6v2h-1v-3h6v-1z" fill="rgb(16,16,16)"/>
<path d="M20 36h4v1h-4v-1z" fill="rgb(90,41,106)"/>
<path d="M34 36h1v5h-1v-2h-1v-2h1v-1z" fill="rgb(222,148,246)"/>
<path d="M37 36h1v1h-1v-1z" fill="rgb(90,41,106)"/>
<path d="M49 36h2v1h-2v-1z" fill="rgb(16,16,16)"/>
<path d="M51 36h1v1h-1v-1z" fill="rgb(164,82,148)"/>
<path d="M52 36h4v1h1v3h-1v1h-1v3h1v1h-4v-1h-2v-2h-1v-3h2v-1h1v-2z" fill="rgb(213,115,238)"/>
<path d="M56 36h2v1h-2v-1z" fill="rgb(16,16,16)"/>
<path d="M58 36h1v1h-1v-1z" fill="rgb(90,41,106)"/>
<path d="M76 36h2v1h-2v-1z" fill="rgb(90,41,106)"/>
<path d="M21 37h3v1h-3v-1z" fill="rgb(164,82,148)"/>
<path d="M24 37h2v1h-2v-1z" fill="rgb(90,41,106)"/>
<path d="M36 37h1v2h-1v-2z" fill="rgb(90,41,106)"/>
<path d="M37 37h1v2h-1v-2z" fill="rgb(255,255,255)"/>
<path d="M47 37h2v1h-2v-1z" fill="rgb(213,115,238)"/>
<path d="M49 37h2v1h-2v-1z" fill="rgb(164,82,148)"/>
<path d="M51 37h1v1h-1v-1z" fill="rgb(16,16,16)"/>
<path d="M57 37h1v1h1v1h-2v-2z" fill="rgb(164,82,148)"/>
<path d="M58 37h1v1h-1v-1z" fill="rgb(16,16,16)"/>
<path d="M59 37h2v1h-2v-1z" fill="rgb(90,41,106)"/>
<path d="M62 37h6v1h-6v-1z" fill="rgb(255,255,255)"/>
<path d="M68 37h2v1h-2v-1z" fill="rgb(16,16,16)"/>
<path d="M75 37h1v1h-1v-1z" fill="rgb(164,82,148)"/>
<path d="M76 37h2v1h1v1h1v1h1v1h-1v1h-1v-2h-1v-1h-1v-1h-1v-1z" fill="rgb(222,148,246)"/>
<path d="M78 37h2v1h-2v-1z" fill="rgb(90,41,106)"/>
<path d="M18 38h3v1h-3v-1z" fill="rgb(164,82,148)"/>
<path d="M21 38h1v1h-1v-1z" fill="rgb(222,148,246)"/>
<path d="M22 38h3v1h-1v1h-1v2h-1v1h-1v1h-1v1h-1v1h-2v-2h-1v-1h1v-1h2v-1h1v-1h1v-1h1v-1z" fill="rgb(213,115,238)"/>
<path d="M25 38h1v4h-1v-4z" fill="rgb(16,16,16)"/>
<path d="M26 38h1v1h-1v-1z" fill="rgb(90,41,106)"/>
<path d="M38 38h1v1h-1v-1z" fill="rgb(164,82,148)"/>
<path d="M42 38h1v1h-1v-1z" fill="rgb(90,41,106)"/>
<path d="M47 38h1v1h-1v-1z" fill="rgb(16,16,16)"/>
<path d="M48 38h3v1h-3v-1z" fill="rgb(90,41,106)"/>
<path d="M52 38h2v2h-2v-2z" fill="rgb(222,148,246)"/>
<path d="M59 38h1v1h-1v-1z" fill="rgb(16,16,16)"/>
<path d="M60 38h1v1h-1v-1z" fill="rgb(164,82,148)"/>
<path d="M62 38h1v1h-1v-1z" fill="rgb(197,197,164)"/>
<path d="M63 38h5v1h-5v-1z" fill="rgb(16,16,16)"/>
<path d="M68 38h2v1h-2v-1z" fill="rgb(197,197,164)"/>
<path d="M70 38h1v2h-3v-1h2v-1z" fill="rgb(16,16,16)"/>
<path d="M76 38h1v1h-1v-1z" fill="rgb(164,82,148)"/>
<path d="M79 38h1v1h-1v-1z" fill="rgb(213,115,238)"/>
<path d="M80 38h1v1h-1v-1z" fill="rgb(90,41,106)"/>
<path d="M16 39h2v1h-2v-1z" fill="rgb(164,82,148)"/>
<path d="M18 39h3v1h-1v1h-1v1h-2v1h-4v-1h1v-1h2v-1h2v-1z" fill="rgb(222,148,246)"/>
<path d="M24 39h1v1h-1v-1z" fill="rgb(90,41,106)"/>
<path d="M26 39h1v1h1v2h1v2h1v1h-2v-1h-1v-2h-1v-3z" fill="rgb(222,148,246)"/>
<path d="M27 39h1v1h-1v-1z" fill="rgb(90,41,106)"/>
<path d="M33 39h1v1h-1v-1z" fill="rgb(164,82,148)"/>
<path d="M35 39h1v1h1v1h-2v-2z" fill="rgb(16,16,16)"/>
<path d="M36 39h1v1h-1v-1z" fill="rgb(197,197,164)"/>
<path d="M37 39h1v1h-1v-1z" fill="rgb(164,82,148)"/>
<path d="M39 39h2v1h-1v1h-1v-2z" fill="rgb(164,82,148)"/>
<path d="M41 39h1v2h-1v-2z" fill="rgb(90,41,106)"/>
<path d="M42 39h1v2h-1v-2z" fill="rgb(213,115,238)"/>
<path d="M43 39h1v1h-1v-1z" fill="rgb(90,41,106)"/>
<path d="M48 39h1v1h-1v-1z" fill="rgb(16,16,16)"/>
<path d="M57 39h5v1h-5v-1z" fill="rgb(90,41,106)"/>
<path d="M62 39h1v1h-1v-1z" fill="rgb(16,16,16)"/>
<path d="M63 39h3v1h1v1h1v2h-1v1h-3v-1h-1v-1h-1v-2h1v-1z" fill="rgb(222,148,246)"/>
<path d="M66 39h2v1h3v1h2v1h1v1h-2v1h-1v-1h-1v1h1v1h-2v2h-1v-1h-1v1h1v1h1v4h1v2h-1v-1h-1
	v-2h-1v-1h-1v-1h-1v-1h-2v-1h-1v-2h-1v-4h1v1h1v1h1v1h3v-1h1v-2h-1v-1h-1v-1z" fill="rgb(213,115,238)"/>
<path d="M77 39h1v1h-1v-1z" fill="rgb(164,82,148)"/>
<path d="M80 39h1v1h-1v-1z" fill="rgb(213,115,238)"/>
<path d="M81 39h1v1h-1v-1z" fill="rgb(90,41,106)"/>
<path d="M14 40h2v1h-2v-1z" fill="rgb(164,82,148)"/>
<path d="M23 40h1v3h-1v-3z" fill="rgb(90,41,106)"/>
<path d="M24 40h1v2h-1v-2z" fill="rgb(213,115,238)"/>
<path d="M33 40h1v1h-1v-1z" fill="rgb(90,41,106)"/>
<path d="M40 40h1v2h-1v-2z" fill="rgb(255,255,255)"/>
<path d="M45 40h2v4h-1v-3h-1v-1z" fill="rgb(90,41,106)"/>
<path d="M47 40h1v1h-1v-1z" fill="rgb(16,16,16)"/>
<path d="M48 40h1v2h1v2h2v1h5v1h1v1h-2v1h-5v-1h-2v-1h-1v-2h-1v-3h1v-1z" fill="rgb(164,82,148)"/>
<path d="M56 40h1v1h-1v-1z" fill="rgb(90,41,106)"/>
<path d="M57 40h4v1h-1v1h-3v-2z" fill="rgb(222,148,246)"/>
<path d="M61 40h1v1h-1v-1z" fill="rgb(16,16,16)"/>
<path d="M71 40h2v1h-2v-1z" fill="rgb(16,16,16)"/>
<path d="M78 40h1v2h-1v-2z" fill="rgb(164,82,148)"/>
<path d="M81 40h1v1h-1v-1z" fill="rgb(164,82,148)"/>
<path d="M82 40h1v1h-1v-1z" fill="rgb(90,41,106)"/>
<path d="M13 41h1v1h-1v-1z" fill="rgb(164,82,148)"/>
<path d="M34 41h1v1h-1v-1z" fill="rgb(90,41,106)"/>
<path d="M39 41h1v1h-1v-1z" fill="rgb(16,16,16)"/>
<path d="M44 41h1v1h-1v-1z" fill="rgb(90,41,106)"/>
<path d="M45 41h1v2h-2v-1h1v-1z" fill="rgb(164,82,148)"/>
<path d="M55 41h1v3h-1v-3z" fill="rgb(90,41,106)"/>
<path d="M56 41h1v1h3v2h-1v1h-2v-1h-1v-3z" fill="rgb(213,115,238)"/>
<path d="M60 41h1v4h-1v-4z" fill="rgb(90,41,106)"/>
<path d="M73 41h1v1h-1v-1z" fill="rgb(16,16,16)"/>
<path d="M80 41h1v1h-1v-1z" fill="rgb(164,82,148)"/>
<path d="M81 41h1v2h1v1h-1v1h-1v-1h-1v-2h1v-1z" fill="rgb(222,148,246)"/>
<path d="M82 41h1v2h-1v-2z" fill="rgb(213,115,238)"/>
<path d="M83 41h1v2h-1v-2z" fill="rgb(90,41,106)"/>
<path d="M12 42h1v1h-1v-1z" fill="rgb(90,41,106)"/>
<path d="M22 42h1v1h1v1h1v1h-1v1h-2v1h-1v1h-1v1h-1v1h-1v1h-5v-1h-1v-4h2v1h1v1h1v-1h1v-1
	h2v-1h1v-1h1v-1h1v-1z" fill="rgb(164,82,148)"/>
<path d="M24 42h2v2h-1v-1h-1v-1z" fill="rgb(164,82,148)"/>
<path d="M26 42h1v2h-1v-2z" fill="rgb(16,16,16)"/>
<path d="M38 42h1v1h-1v-1z" fill="rgb(16,16,16)"/>
<path d="M39 42h1v2h-1v1h-2v1h-2v-1h1v-1h2v-1h1v-1z" fill="rgb(172,16,0)"/>
<path d="M40 42h1v2h-1v-2z" fill="rgb(90,41,106)"/>
<path d="M43 42h1v2h-1v-2z" fill="rgb(90,41,106)"/>
<path d="M74 42h2v1h-2v-1z" fill="rgb(16,16,16)"/>
<path d="M79 42h1v2h-1v-2z" fill="rgb(164,82,148)"/>
<path d="M11 43h1v1h-1v-1z" fill="rgb(90,41,106)"/>
<path d="M12 43h2v1h-1v2h-1v-1h-1v-1h1v-1z" fill="rgb(213,115,238)"/>
<path d="M14 43h2v1h-2v-1z" fill="rgb(164,82,148)"/>
<path d="M24 43h1v1h-1v-1z" fill="rgb(90,41,106)"/>
<path d="M36 43h2v1h-2v-1z" fill="rgb(16,16,16)"/>
<path d="M44 43h2v1h-2v-1z" fill="rgb(115,115,90)"/>
<path d="M70 43h1v1h-1v-1z" fill="rgb(164,82,148)"/>
<path d="M72 43h4v2h1v1h-2v1h-1v3h1v1h2v2h-1v1h-1v-1h-1v-1h-2v1h-2v-1h-1v-4h1v1h3v-4h-1
	v-2z" fill="rgb(164,82,148)"/>
<path d="M76 43h1v2h-1v-2z" fill="rgb(16,16,16)"/>
<path d="M83 43h1v1h-1v-1z" fill="rgb(213,115,238)"/>
<path d="M84 43h1v2h-1v-2z" fill="rgb(90,41,106)"/>
<path d="M10 44h1v1h-1v-1z" fill="rgb(90,41,106)"/>
<path d="M13 44h1v2h-1v-2z" fill="rgb(90,41,106)"/>
<path d="M14 44h1v1h1v2h-1v-1h-1v-2z" fill="rgb(255,255,255)"/>
<path d="M15 44h1v1h-1v-1z" fill="rgb(197,197,164)"/>
<path d="M16 44h1v3h-1v-3z" fill="rgb(16,16,16)"/>
<path d="M25 44h1v2h-2v-1h1v-1z" fill="rgb(90,41,106)"/>
<path d="M26 44h1v1h-1v-1z" fill="rgb(164,82,148)"/>
<path d="M27 44h1v1h-1v-1z" fill="rgb(16,16,16)"/>
<path d="M31 44h1v1h-1v-1z" fill="rgb(164,82,148)"/>
<path d="M34 44h2v1h-2v-1z" fill="rgb(16,16,16)"/>
<path d="M39 44h1v1h-1v-1z" fill="rgb(255,255,255)"/>
<path d="M42 44h1v1h-1v-1z" fill="rgb(90,41,106)"/>
<path d="M43 44h4v2h1v1h1v1h2v2h-2v1h-4v-1h-3v-1h-3v-2h2v-1h1v-1h1v-1z" fill="rgb(197,197,164)"/>
<path d="M47 44h1v2h-1v-2z" fill="rgb(90,41,106)"/>
<path d="M56 44h1v1h-1v-1z" fill="rgb(16,16,16)"/>
<path d="M59 44h1v1h-1v-1z" fill="rgb(16,16,16)"/>
<path d="M71 44h1v1h-1v-1z" fill="rgb(90,41,106)"/>
<path d="M80 44h1v1h1v1h-1v2h2v1h-3v-5z" fill="rgb(164,82,148)"/>
<path d="M82 44h2v1h-2v-1z" fill="rgb(164,82,148)"/>
<path d="M10 45h2v1h-2v-1z" fill="rgb(164,82,148)"/>
<path d="M26 45h1v2h-1v-2z" fill="rgb(16,16,16)"/>
<path d="M27 45h1v1h2v1h-3v-2z" fill="rgb(213,115,238)"/>
<path d="M28 45h2v1h-2v-1z" fill="rgb(16,16,16)"/>
<path d="M30 45h1v1h-1v-1z" fill="rgb(222,148,246)"/>
<path d="M33 45h1v1h-1v-1z" fill="rgb(16,16,16)"/>
<path d="M34 45h1v1h-1v-1z" fill="rgb(164,82,148)"/>
<path d="M37 45h1v1h-1v-1z" fill="rgb(255,255,255)"/>
<path d="M38 45h1v1h-1v-1z" fill="rgb(230,65,49)"/>
<path d="M41 45h1v1h-1v-1z" fill="rgb(90,41,106)"/>
<path d="M57 45h2v1h-2v-1z" fill="rgb(16,16,16)"/>
<path d="M59 45h1v1h-1v-1z" fill="rgb(90,41,106)"/>
<path d="M60 45h1v2h1v1h1v1h1v2h1v3h1v3h-1v-1h-2v-1h-5v1h-2v1h-1v-1h-1v-1h-1v-2h-1v-4h4
	v-1h2v-1h1v-1h1v-1z" fill="rgb(164,82,148)"/>
<path d="M61 45h1v2h-1v-2z" fill="rgb(90,41,106)"/>
<path d="M69 45h2v3h-1v-1h-1v-2z" fill="rgb(255,255,255)"/>
<path d="M71 45h1v3h-1v-3z" fill="rgb(197,197,164)"/>
<path d="M72 45h1v1h-1v-1z" fill="rgb(90,41,106)"/>
<path d="M77 45h1v3h-1v-3z" fill="rgb(16,16,16)"/>
<path d="M82 45h1v3h-2v-2h1v-1z" fill="rgb(222,148,246)"/>
<path d="M83 45h1v1h1v3h-2v-4z" fill="rgb(213,115,238)"/>
<path d="M84 45h1v1h-1v-1z" fill="rgb(164,82,148)"/>
<path d="M85 45h1v3h-1v-3z" fill="rgb(16,16,16)"/>
<path d="M9 46h1v4h-1v-4z" fill="rgb(115,115,90)"/>
<path d="M10 46h2v2h-1v1h-1v-3z" fill="rgb(197,197,164)"/>
<path d="M14 46h1v1h-1v-1z" fill="rgb(90,41,106)"/>
<path d="M22 46h2v1h-2v-1z" fill="rgb(90,41,106)"/>
<path d="M30 46h3v1h-3v-1z" fill="rgb(16,16,16)"/>
<path d="M33 46h1v1h1v1h2v2h1v2h-4v-1h-2v-2h-1v-2h2v-1z" fill="rgb(255,255,255)"/>
<path d="M34 46h1v1h-1v-1z" fill="rgb(90,41,106)"/>
<path d="M35 46h4v1h-4v-1z" fill="rgb(164,82,148)"/>
<path d="M39 46h2v1h-2v-1z" fill="rgb(90,41,106)"/>
<path d="M48 46h1v1h-1v-1z" fill="rgb(90,41,106)"/>
<path d="M58 46h1v1h-1v-1z" fill="rgb(90,41,106)"/>
<path d="M67 46h1v1h-1v-1z" fill="rgb(164,82,148)"/>
<path d="M72 46h1v3h-3v-1h2v-2z" fill="rgb(16,16,16)"/>
<path d="M75 46h2v1h-2v-1z" fill="rgb(90,41,106)"/>
<path d="M15 47h1v1h-1v-1z" fill="rgb(16,16,16)"/>
<path d="M21 47h1v1h-1v-1z" fill="rgb(90,41,106)"/>
<path d="M27 47h1v2h-1v-2z" fill="rgb(16,16,16)"/>
<path d="M28 47h2v2h-2v-2z" fill="rgb(164,82,148)"/>
<path d="M30 47h1v2h-1v-2z" fill="rgb(115,115,90)"/>
<path d="M35 47h4v1h-4v-1z" fill="rgb(90,41,106)"/>
<path d="M49 47h2v1h-2v-1z" fill="rgb(90,41,106)"/>
<path d="M56 47h2v1h-2v-1z" fill="rgb(90,41,106)"/>
<path d="M62 47h1v1h-1v-1z" fill="rgb(16,16,16)"/>
<path d="M68 47h1v1h-1v-1z" fill="rgb(164,82,148)"/>
<path d="M69 47h1v1h-1v-1z" fill="rgb(16,16,16)"/>
<path d="M74 47h1v3h-1v-3z" fill="rgb(90,41,106)"/>
<path d="M75 47h1v1h1v2h-2v-3z" fill="rgb(255,255,255)"/>
<path d="M76 47h1v1h-1v-1z" fill="rgb(197,197,164)"/>
<path d="M11 48h1v1h-1v-1z" fill="rgb(16,16,16)"/>
<path d="M20 48h1v1h-1v-1z" fill="rgb(90,41,106)"/>
<path d="M37 48h1v2h-1v-2z" fill="rgb(115,115,90)"/>
<path d="M38 48h1v1h-1v-1z" fill="rgb(230,230,213)"/>
<path d="M51 48h5v1h-5v-1z" fill="rgb(90,41,106)"/>
<path d="M63 48h2v1h-2v-1z" fill="rgb(16,16,16)"/>
<path d="M77 48h1v3h-1v-3z" fill="rgb(197,197,164)"/>
<path d="M78 48h1v3h-1v-3z" fill="rgb(16,16,16)"/>
<path d="M85 48h1v2h-1v-2z" fill="rgb(164,82,148)"/>
<path d="M86 48h1v7h-1v-7z" fill="rgb(16,16,16)"/>
<path d="M10 49h1v1h-1v-1z" fill="rgb(16,16,16)"/>
<path d="M11 49h1v1h-1v-1z" fill="rgb(90,41,106)"/>
<path d="M19 49h1v1h-1v-1z" fill="rgb(90,41,106)"/>
<path d="M28 49h2v1h-2v-1z" fill="rgb(16,16,16)"/>
<path d="M30 49h1v1h-1v-1z" fill="rgb(164,82,148)"/>
<path d="M31 49h1v2h-1v-2z" fill="rgb(115,115,90)"/>
<path d="M38 49h3v1h3v1h3v1h-5v-1h-3v-1h-1v-1z" fill="rgb(255,255,255)"/>
<path d="M41 49h1v1h-1v-1z" fill="rgb(230,230,213)"/>
<path d="M51 49h1v1h-1v-1z" fill="rgb(16,16,16)"/>
<path d="M64 49h1v2h-1v-2z" fill="rgb(90,41,106)"/>
<path d="M65 49h1v1h-1v-1z" fill="rgb(16,16,16)"/>
<path d="M79 49h1v1h-1v-1z" fill="rgb(164,82,148)"/>
<path d="M80 49h3v2h-1v2h-2v-1h-2v-1h1v-1h1v-1z" fill="rgb(222,148,246)"/>
<path d="M83 49h1v1h-1v-1z" fill="rgb(164,82,148)"/>
<path d="M84 49h1v1h-1v-1z" fill="rgb(90,41,106)"/>
<path d="M9 50h1v1h-1v-1z" fill="rgb(16,16,16)"/>
<path d="M12 50h1v1h-1v-1z" fill="rgb(90,41,106)"/>
<path d="M18 50h1v1h-1v-1z" fill="rgb(90,41,106)"/>
<path d="M30 50h1v1h-1v-1z" fill="rgb(16,16,16)"/>
<path d="M38 50h1v1h-1v-1z" fill="rgb(115,115,90)"/>
<path d="M44 50h1v1h-1v-1z" fill="rgb(230,230,213)"/>
<path d="M49 50h2v1h-2v-1z" fill="rgb(16,16,16)"/>
<path d="M51 50h1v3h-1v-3z" fill="rgb(90,41,106)"/>
<path d="M65 50h1v1h-1v-1z" fill="rgb(164,82,148)"/>
<path d="M66 50h1v1h-1v-1z" fill="rgb(16,16,16)"/>
<path d="M75 50h2v1h-2v-1z" fill="rgb(90,41,106)"/>
<path d="M83 50h1v1h1v3h-1v1h-1v-1h-1v-3h1v-1z" fill="rgb(213,115,238)"/>
<path d="M84 50h1v1h-1v-1z" fill="rgb(164,82,148)"/>
<path d="M85 50h1v2h-1v-2z" fill="rgb(90,41,106)"/>
<path d="M12 51h1v2h-1v-2z" fill="rgb(115,115,90)"/>
<path d="M13 51h5v1h-5v-1z" fill="rgb(90,41,106)"/>
<path d="M32 51h2v1h-2v-1z" fill="rgb(115,115,90)"/>
<path d="M38 51h4v1h-4v-1z" fill="rgb(16,16,16)"/>
<path d="M47 51h2v1h-2v-1z" fill="rgb(16,16,16)"/>
<path d="M49 51h2v2h1v2h1v1h-1v1h-1v1h-3v1h-2v-1h-3v-1h-5v1h-1v1h-2v-1h1v-2h1v-2h-1v-1h2
	v-1h4v1h5v-1h2v-1z" fill="rgb(197,197,164)"/>
<path d="M65 51h1v2h1v4h-1v-3h-1v-3z" fill="rgb(90,41,106)"/>
<path d="M66 51h1v2h-1v-2z" fill="rgb(164,82,148)"/>
<path d="M67 51h1v2h1v1h-1v1h-1v-4z" fill="rgb(16,16,16)"/>
<path d="M77 51h1v2h-1v-2z" fill="rgb(16,16,16)"/>
<path d="M13 52h2v2h-1v-1h-1v-1z" fill="rgb(197,197,164)"/>
<path d="M15 52h1v2h-1v-2z" fill="rgb(16,16,16)"/>
<path d="M34 52h4v1h-2v1h-1v-1h-1v-1z" fill="rgb(16,16,16)"/>
<path d="M42 52h5v1h-5v-1z" fill="rgb(16,16,16)"/>
<path d="M72 52h2v1h-2v-1z" fill="rgb(90,41,106)"/>
<path d="M78 52h2v1h-2v-1z" fill="rgb(164,82,148)"/>
<path d="M85 52h1v3h-1v2h-1v-3h1v-2z" fill="rgb(164,82,148)"/>
<path d="M13 53h1v1h-1v-1z" fill="rgb(115,115,90)"/>
<path d="M52 53h1v2h-1v-2z" fill="rgb(90,41,106)"/>
<path d="M70 53h2v1h-2v-1z" fill="rgb(90,41,106)"/>
<path d="M72 53h2v1h-2v-1z" fill="rgb(197,197,164)"/>
<path d="M74 53h1v1h1v1h-1v1h-1v-3z" fill="rgb(16,16,16)"/>
<path d="M76 53h1v1h-1v-1z" fill="rgb(16,16,16)"/>
<path d="M77 53h3v1h1v1h-1v1h-1v1h-1v1h-1v-1h-2v-2h1v-1h1v-1z" fill="rgb(222,148,246)"/>
<path d="M80 53h2v1h-2v-1z" fill="rgb(164,82,148)"/>
<path d="M14 54h1v1h-1v-1z" fill="rgb(115,115,90)"/>
<path d="M36 54h1v2h-1v-2z" fill="rgb(16,16,16)"/>
<path d="M68 54h1v1h-1v-1z" fill="transparent"/>
<path d="M69 54h2v1h-2v-1z" fill="rgb(16,16,16)"/>
<path d="M71 54h3v2h-2v-1h-1v-1z" fill="rgb(255,255,255)"/>
<path d="M81 54h1v1h1v3h-1v2h-1v1h-2v-2h-1v-2h1v-1h1v-1h1v-1z" fill="rgb(213,115,238)"/>
<path d="M82 54h1v1h-1v-1z" fill="rgb(164,82,148)"/>
<path d="M53 55h1v1h-1v-1z" fill="rgb(90,41,106)"/>
<path d="M58 55h5v1h-5v-1z" fill="rgb(16,16,16)"/>
<path d="M67 55h1v1h-1v-1z" fill="rgb(164,82,148)"/>
<path d="M68 55h1v1h-1v-1z" fill="rgb(90,41,106)"/>
<path d="M69 55h1v1h-1v-1z" fill="transparent"/>
<path d="M70 55h1v1h-1v-1z" fill="rgb(164,82,148)"/>
<path d="M71 55h1v1h-1v-1z" fill="rgb(16,16,16)"/>
<path d="M83 55h1v2h-1v-2z" fill="rgb(90,41,106)"/>
<path d="M85 55h1v3h-1v-3z" fill="rgb(16,16,16)"/>
<path d="M34 56h1v1h-1v-1z" fill="rgb(90,41,106)"/>
<path d="M35 56h1v2h-1v-2z" fill="rgb(16,16,16)"/>
<path d="M52 56h1v1h-1v-1z" fill="rgb(115,115,90)"/>
<path d="M53 56h1v1h1v2h-1v2h-1v5h1v1h-2v1h-2v1h-7v-1h-2v-1h-2v-1h-1v-1h8v-1h2v-1h1v-1h1
	v-1h1v-3h1v-1h1v-1z" fill="rgb(197,197,164)"/>
<path d="M54 56h1v1h-1v-1z" fill="rgb(90,41,106)"/>
<path d="M56 56h2v1h-2v-1z" fill="rgb(16,16,16)"/>
<path d="M58 56h1v1h1v1h-2v1h-1v2h-1v3h-1v2h-1v-5h1v-2h1v-2h2v-1z" fill="rgb(213,115,238)"/>
<path d="M59 56h4v1h2v1h1v1h1v2h1v1h2v1h-1v1h-1v-1h-1v-1h-2v-2h-1v-1h-1v-1h-3v-1h-1v-1z" fill="rgb(164,82,148)"/>
<path d="M63 56h2v1h-2v-1z" fill="rgb(16,16,16)"/>
<path d="M67 56h2v1h1v2h1v2h1v4h-1v-1h-1v-2h-1v-1h-1v-2h-1v-3z" fill="rgb(213,115,238)"/>
<path d="M69 56h1v1h-1v-1z" fill="rgb(164,82,148)"/>
<path d="M70 56h2v1h3v1h2v1h-1v1h-2v1h-2v-2h-1v-2h-1v-1z" fill="rgb(222,148,246)"/>
<path d="M72 56h2v1h-2v-1z" fill="rgb(16,16,16)"/>
<path d="M74 56h1v1h-1v-1z" fill="rgb(164,82,148)"/>
<path d="M32 57h2v1h-2v-1z" fill="rgb(90,41,106)"/>
<path d="M34 57h1v1h-1v-1z" fill="rgb(164,82,148)"/>
<path d="M38 57h5v1h-5v-1z" fill="rgb(115,115,90)"/>
<path d="M51 57h1v1h-1v-1z" fill="rgb(115,115,90)"/>
<path d="M55 57h1v1h-1v-1z" fill="rgb(90,41,106)"/>
<path d="M65 57h1v1h-1v-1z" fill="rgb(16,16,16)"/>
<path d="M66 57h1v1h-1v-1z" fill="rgb(164,82,148)"/>
<path d="M70 57h1v2h-1v-2z" fill="rgb(164,82,148)"/>
<path d="M75 57h2v1h-2v-1z" fill="rgb(164,82,148)"/>
<path d="M83 57h1v3h-1v2h-1v2h-1v1h-1v1h-1v-2h1v-3h1v-1h1v-2h1v-1z" fill="rgb(164,82,148)"/>
<path d="M84 57h1v1h-1v-1z" fill="rgb(90,41,106)"/>
<path d="M30 58h2v1h-2v-1z" fill="rgb(90,41,106)"/>
<path d="M32 58h2v3h-1v-2h-1v-1z" fill="rgb(164,82,148)"/>
<path d="M34 58h1v4h-1v-4z" fill="rgb(16,16,16)"/>
<path d="M37 58h1v1h-1v-1z" fill="rgb(115,115,90)"/>
<path d="M38 58h5v1h3v1h2v-1h3v1h-1v1h-1v2h-2v1h-2v1h-6v-1h-2v-1h-1v-1h-1v-2h2v-1h1v-1z" fill="rgb(255,255,255)"/>
<path d="M43 58h3v1h-3v-1z" fill="rgb(115,115,90)"/>
<path d="M48 58h3v1h-3v-1z" fill="rgb(115,115,90)"/>
<path d="M55 58h1v1h-1v-1z" fill="rgb(164,82,148)"/>
<path d="M58 58h2v1h-2v-1z" fill="rgb(164,82,148)"/>
<path d="M60 58h1v1h-1v-1z" fill="rgb(90,41,106)"/>
<path d="M61 58h2v1h-2v-1z" fill="rgb(16,16,16)"/>
<path d="M66 58h1v1h-1v-1z" fill="rgb(16,16,16)"/>
<path d="M77 58h1v1h-1v-1z" fill="rgb(164,82,148)"/>
<path d="M84 58h1v2h-1v-2z" fill="rgb(16,16,16)"/>
<path d="M28 59h2v1h-2v-1z" fill="rgb(90,41,106)"/>
<path d="M30 59h2v2h1v1h-1v2h-1v1h-4v-3h1v-2h2v-1z" fill="rgb(213,115,238)"/>
<path d="M32 59h1v2h-1v-2z" fill="rgb(90,41,106)"/>
<path d="M35 59h2v1h-2v-1z" fill="rgb(115,115,90)"/>
<path d="M46 59h2v1h-2v-1z" fill="rgb(115,115,90)"/>
<path d="M54 59h1v2h-1v-2z" fill="rgb(164,82,148)"/>
<path d="M57 59h1v2h-1v-2z" fill="rgb(164,82,148)"/>
<path d="M58 59h5v1h1v2h1v2h-1v-1h-1v-1h-3v1h-1v1h-1v1h-1v2h-1v-3h1v-3h1v-2z" fill="rgb(222,148,246)"/>
<path d="M63 59h1v1h-1v-1z" fill="rgb(16,16,16)"/>
<path d="M67 59h1v2h-1v-2z" fill="rgb(90,41,106)"/>
<path d="M71 59h1v2h-1v-2z" fill="rgb(164,82,148)"/>
<path d="M76 59h2v2h1v1h-1v1h-1v1h-2v1h-2v-4h1v-1h2v-1z" fill="rgb(213,115,238)"/>
<path d="M78 59h1v2h-1v-2z" fill="rgb(164,82,148)"/>
<path d="M27 60h1v2h-1v-2z" fill="rgb(90,41,106)"/>
<path d="M50 60h1v1h-1v-1z" fill="rgb(230,230,213)"/>
<path d="M64 60h1v2h-1v-2z" fill="rgb(16,16,16)"/>
<path d="M83 60h1v1h-1v-1z" fill="rgb(90,41,106)"/>
<path d="M33 61h1v2h-1v-2z" fill="rgb(90,41,106)"/>
<path d="M49 61h1v1h-1v-1z" fill="rgb(230,230,213)"/>
<path d="M53 61h1v2h-1v-2z" fill="rgb(164,82,148)"/>
<path d="M56 61h1v3h-1v-3z" fill="rgb(164,82,148)"/>
<path d="M68 61h1v1h-1v-1z" fill="rgb(90,41,106)"/>
<path d="M72 61h1v3h-1v-3z" fill="rgb(164,82,148)"/>
<path d="M79 61h1v3h-1v-3z" fill="rgb(90,41,106)"/>
<path d="M83 61h1v1h-1v-1z" fill="rgb(16,16,16)"/>
<path d="M26 62h1v5h-1v-5z" fill="rgb(90,41,106)"/>
<path d="M32 62h1v1h1v1h1v1h-1v2h-1v2h-5v-2h-1v-2h4v-1h1v-2z" fill="rgb(164,82,148)"/>
<path d="M34 62h1v1h-1v-1z" fill="rgb(164,82,148)"/>
<path d="M35 62h1v2h-1v-2z" fill="rgb(16,16,16)"/>
<path d="M60 62h3v1h1v1h1v3h-1v2h-1v1h-1v1h-4v-2h-1v-4h1v-1h1v-1h1v-1z" fill="rgb(213,115,238)"/>
<path d="M65 62h1v2h-1v-2z" fill="rgb(16,16,16)"/>
<path d="M66 62h1v1h-1v-1z" fill="rgb(90,41,106)"/>
<path d="M78 62h1v2h-1v2h-1v2h-1v1h-2v1h-2v-2h1v-3h2v-1h2v-1h1v-1z" fill="rgb(164,82,148)"/>
<path d="M82 62h1v1h-1v-1z" fill="rgb(90,41,106)"/>
<path d="M34 63h1v1h-1v-1z" fill="rgb(90,41,106)"/>
<path d="M36 63h1v1h-1v-1z" fill="rgb(230,230,213)"/>
<path d="M47 63h1v1h-1v-1z" fill="rgb(230,230,213)"/>
<path d="M53 63h1v3h-1v-3z" fill="rgb(90,41,106)"/>
<path d="M66 63h1v1h-1v-1z" fill="rgb(164,82,148)"/>
<path d="M67 63h1v1h-1v-1z" fill="rgb(16,16,16)"/>
<path d="M69 63h1v2h-1v-2z" fill="rgb(90,41,106)"/>
<path d="M82 63h1v1h-1v-1z" fill="rgb(16,16,16)"/>
<path d="M35 64h1v1h-1v-1z" fill="rgb(90,41,106)"/>
<path d="M36 64h1v1h-1v-1z" fill="rgb(16,16,16)"/>
<path d="M37 64h1v1h-1v-1z" fill="rgb(197,197,164)"/>
<path d="M38 64h1v1h-1v-1z" fill="rgb(230,230,213)"/>
<path d="M45 64h1v1h-1v-1z" fill="rgb(230,230,213)"/>
<path d="M55 64h1v1h-1v-1z" fill="rgb(164,82,148)"/>
<path d="M65 64h1v1h-1v-1z" fill="rgb(222,148,246)"/>
<path d="M66 64h1v4h-1v-4z" fill="rgb(16,16,16)"/>
<path d="M67 64h1v1h1v1h1v2h1v2h1v4h1v4h-3v1h-1v-1h-1v-1h-1v-1h-2v-1h-2v-3h2v-1h1v-3h1
	v-4z" fill="rgb(164,82,148)"/>
<path d="M68 64h1v1h-1v-1z" fill="rgb(16,16,16)"/>
<path d="M70 64h1v1h1v3h-1v-2h-1v-2z" fill="rgb(164,82,148)"/>
<path d="M72 64h1v4h-1v-4z" fill="rgb(90,41,106)"/>
<path d="M78 64h1v2h-1v-2z" fill="rgb(90,41,106)"/>
<path d="M81 64h1v1h-1v-1z" fill="rgb(16,16,16)"/>
<path d="M34 65h1v2h-1v-2z" fill="rgb(90,41,106)"/>
<path d="M35 65h2v1h1v1h1v1h2v1h1v3h-1v2h-2v1h-3v-1h-1v-1h-2v-1h-3v-1h-1v-1h4v-1h1v-2h1
	v-2z" fill="rgb(164,82,148)"/>
<path d="M37 65h1v1h-1v-1z" fill="rgb(16,16,16)"/>
<path d="M55 65h1v2h-1v-2z" fill="rgb(16,16,16)"/>
<path d="M65 65h1v3h-1v3h-2v1h-3v-1h2v-1h1v-1h1v-2h1v-2z" fill="rgb(164,82,148)"/>
<path d="M69 65h1v1h-1v-1z" fill="rgb(16,16,16)"/>
<path d="M80 65h1v1h-1v-1z" fill="rgb(16,16,16)"/>
<path d="M38 66h1v1h-1v-1z" fill="rgb(16,16,16)"/>
<path d="M54 66h1v5h-1v-5z" fill="rgb(90,41,106)"/>
<path d="M70 66h1v2h-1v-2z" fill="rgb(16,16,16)"/>
<path d="M77 66h1v2h-1v-2z" fill="rgb(90,41,106)"/>
<path d="M78 66h1v1h-1v-1z" fill="rgb(164,82,148)"/>
<path d="M79 66h1v1h-1v-1z" fill="rgb(16,16,16)"/>
<path d="M27 67h1v2h-1v-2z" fill="rgb(90,41,106)"/>
<path d="M33 67h1v2h-1v-2z" fill="rgb(90,41,106)"/>
<path d="M39 67h2v1h-2v-1z" fill="rgb(16,16,16)"/>
<path d="M52 67h2v1h-2v-1z" fill="rgb(115,115,90)"/>
<path d="M55 67h1v2h1v2h1v1h-1v4h1v1h1v-3h-1v-2h2v1h3v2h-1v1h-1v1h-1v1h-1v1h-2v-1h-2v-3
	h1v-4h-1v-4z" fill="rgb(213,115,238)"/>
<path d="M56 67h1v2h-1v-2z" fill="rgb(16,16,16)"/>
<path d="M78 67h1v1h-1v-1z" fill="rgb(16,16,16)"/>
<path d="M41 68h1v1h-1v-1z" fill="rgb(16,16,16)"/>
<path d="M42 68h1v1h-1v-1z" fill="rgb(115,115,90)"/>
<path d="M50 68h2v1h-2v-1z" fill="rgb(115,115,90)"/>
<path d="M52 68h2v3h1v1h-5v-1h-3v-1h3v-1h2v-1z" fill="rgb(164,82,148)"/>
<path d="M65 68h1v3h-1v-3z" fill="rgb(16,16,16)"/>
<path d="M71 68h1v2h-1v-2z" fill="rgb(16,16,16)"/>
<path d="M76 68h2v1h-2v-1z" fill="rgb(16,16,16)"/>
<path d="M28 69h5v1h-4v1h-1v-2z" fill="rgb(90,41,106)"/>
<path d="M42 69h3v1h-2v2h-1v-3z" fill="rgb(16,16,16)"/>
<path d="M45 69h5v1h-5v-1z" fill="rgb(115,115,90)"/>
<path d="M57 69h1v2h-1v-2z" fill="rgb(16,16,16)"/>
<path d="M74 69h2v1h-2v-1z" fill="rgb(16,16,16)"/>
<path d="M45 70h2v1h-2v-1z" fill="rgb(16,16,16)"/>
<path d="M72 70h2v1h-1v3h-1v-4z" fill="rgb(16,16,16)"/>
<path d="M29 71h1v1h3v1h-4v-2z" fill="rgb(90,41,106)"/>
<path d="M47 71h3v1h-3v-1z" fill="rgb(16,16,16)"/>
<path d="M55 71h1v4h-1v-4z" fill="rgb(90,41,106)"/>
<path d="M58 71h2v1h-2v-1z" fill="rgb(16,16,16)"/>
<path d="M63 71h2v1h-2v-1z" fill="rgb(16,16,16)"/>
<path d="M41 72h1v2h-1v-2z" fill="rgb(16,16,16)"/>
<path d="M50 72h5v1h-5v-1z" fill="rgb(16,16,16)"/>
<path d="M57 72h1v2h1v3h-1v-1h-1v-4z" fill="rgb(222,148,246)"/>
<path d="M60 72h3v1h-3v-1z" fill="rgb(16,16,16)"/>
<path d="M28 73h2v1h-2v-1z" fill="rgb(115,115,90)"/>
<path d="M30 73h3v1h2v1h-3v1h-6v-1h2v-1h2v-1z" fill="rgb(197,197,164)"/>
<path d="M33 73h2v1h-2v-1z" fill="rgb(90,41,106)"/>
<path d="M26 74h2v1h-2v-1z" fill="rgb(115,115,90)"/>
<path d="M35 74h1v1h-1v-1z" fill="rgb(90,41,106)"/>
<path d="M39 74h2v1h-2v-1z" fill="rgb(16,16,16)"/>
<path d="M73 74h1v4h-1v-4z" fill="rgb(16,16,16)"/>
<path d="M25 75h1v1h-1v-1z" fill="rgb(115,115,90)"/>
<path d="M32 75h7v1h-7v-1z" fill="rgb(16,16,16)"/>
<path d="M54 75h1v3h-1v-3z" fill="rgb(90,41,106)"/>
<path d="M62 75h3v1h-3v-1z" fill="rgb(90,41,106)"/>
<path d="M25 76h7v1h-7v-1z" fill="rgb(16,16,16)"/>
<path d="M61 76h1v1h-1v-1z" fill="rgb(164,82,148)"/>
<path d="M62 76h1v1h1v2h1v4h-2v-1h-2v-1h-1v-3h1v-1h1v-1z" fill="rgb(255,255,255)"/>
<path d="M63 76h2v1h2v1h1v3h-1v1h-1v1h-1v-4h-1v-2h-1v-1z" fill="rgb(197,197,164)"/>
<path d="M65 76h2v1h-2v-1z" fill="rgb(90,41,106)"/>
<path d="M60 77h1v1h-1v-1z" fill="rgb(164,82,148)"/>
<path d="M67 77h1v1h-1v-1z" fill="rgb(90,41,106)"/>
<path d="M55 78h2v1h-2v-1z" fill="rgb(16,16,16)"/>
<path d="M59 78h1v2h-1v-2z" fill="rgb(164,82,148)"/>
<path d="M68 78h1v2h-1v-2z" fill="rgb(90,41,106)"/>
<path d="M70 78h3v1h-3v-1z" fill="rgb(16,16,16)"/>
<path d="M57 79h2v1h-2v-1z" fill="rgb(16,16,16)"/>
<path d="M69 79h1v1h-1v-1z" fill="rgb(16,16,16)"/>
<path d="M59 80h1v1h-1v-1z" fill="rgb(115,115,90)"/>
<path d="M68 80h1v1h-1v-1z" fill="rgb(16,16,16)"/>
<path d="M60 81h1v1h-1v-1z" fill="rgb(115,115,90)"/>
<path d="M67 81h1v1h-1v-1z" fill="rgb(16,16,16)"/>
<path d="M61 82h2v1h-2v-1z" fill="rgb(115,115,90)"/>
<path d="M66 82h1v1h-1v-1z" fill="rgb(16,16,16)"/>
<path d="M63 83h3v1h-3v-1z" fill="rgb(16,16,16)"/>
</svg>
