<?xml version="1.0" encoding="utf-8"?>
<!-- generated at drububu.com  -->
<!DOCTYPE svg PUBLIC "-//W3C//DTD SVG 1.1//EN" "http://www.w3.org/Graphics/SVG/1.1/DTD/svg11.dtd">
<svg version="1.1" preserveAspectRatio="xMinYMin meet" xmlns="http://www.w3.org/2000/svg" xmlns:xlink="http://www.w3.org/1999/xlink" x="0px" y="0px" width="96px" height="96px" viewBox="0 0 96 96">
<path d="M0 0h96v96h-96v-96z" fill="transparent"/>
<path d="M45 31h4v1h-4v-1z" fill="rgb(156,82,82)"/>
<path d="M43 32h2v1h-2v-1z" fill="rgb(230,123,123)"/>
<path d="M45 32h4v1h2v1h1v2h1v2h1v-2h2v-1h1v1h1v1h1v1h-1v1h-2v1h-1v1h1v2h1v2h-1v1h-1v2
	h-4v-3h-1v-1h-1v1h1v3h-1v1h1v-1h1v2h3v-1h1v-1h2v-1h1v-1h2v5h-1v2h-1v1h-1v1h1v-1
	h1v2h-1v1h-1v1h-1v1h-1v1h-2v1h-3v1h-9v-1h-2v-1h-2v-1h-1v-1h-1v-1h-1v-2h-1v-1h-1
	v-1h-1v-1h-1v-3h-1v-1h-1v-1h3v2h2v-1h2v-1h-1v-1h1v-2h1v-2h1v-1h1v-1h-1v-1h-1
	v-3h1v-1h3v4h1v-3h1v-2h1v-1h2v-1z" fill="rgb(255,213,189)"/>
<path d="M49 32h2v1h-2v-1z" fill="rgb(156,82,82)"/>
<path d="M32 33h5v1h-4v1h1v1h1v2h-2v-2h-1v-3z" fill="rgb(115,74,57)"/>
<path d="M42 33h1v1h-1v-1z" fill="rgb(230,123,123)"/>
<path d="M51 33h1v1h-1v-1z" fill="rgb(156,82,82)"/>
<path d="M59 33h4v1h-4v-1z" fill="rgb(115,74,57)"/>
<path d="M63 33h2v1h-2v-1z" fill="rgb(90,49,32)"/>
<path d="M31 34h1v2h1v2h2v3h-1v1h-2v-3h-1v-5z" fill="rgb(90,49,32)"/>
<path d="M33 34h4v1h-1v1h-2v-1h-1v-1z" fill="rgb(156,131,115)"/>
<path d="M37 34h1v1h-1v-1z" fill="rgb(115,74,57)"/>
<path d="M38 34h2v1h-2v-1z" fill="rgb(230,123,123)"/>
<path d="M41 34h1v2h-1v-2z" fill="rgb(156,82,82)"/>
<path d="M52 34h1v2h-1v-2z" fill="rgb(156,82,82)"/>
<path d="M56 34h2v1h-2v-1z" fill="rgb(90,49,32)"/>
<path d="M58 34h1v1h-1v-1z" fill="rgb(115,74,57)"/>
<path d="M59 34h4v1h-1v1h-1v1h-2v-1h-1v-1h1v-1z" fill="rgb(156,131,115)"/>
<path d="M63 34h2v1h-1v1h-1v1h-1v1h-1v1h-2v-2h2v-1h1v-1h1v-1z" fill="rgb(115,74,57)"/>
<path d="M65 34h1v1h-1v-1z" fill="rgb(90,49,32)"/>
<path d="M36 35h1v1h-1v-1z" fill="rgb(90,49,32)"/>
<path d="M40 35h1v1h-1v-1z" fill="rgb(230,123,123)"/>
<path d="M53 35h3v1h-3v-1z" fill="rgb(230,123,123)"/>
<path d="M57 35h1v1h-1v-1z" fill="rgb(115,74,57)"/>
<path d="M64 35h1v1h-1v-1z" fill="rgb(90,49,32)"/>
<path d="M65 35h1v2h-1v4h-1v5h-1v1h-1v-2h-1v-2h-1v-1h-1v-1h1v-1h1v-1h1v-1h1v-1h1v-1h1v-1
	z" fill="rgb(16,16,16)"/>
<path d="M35 36h1v2h-1v-2z" fill="rgb(90,49,32)"/>
<path d="M40 36h1v3h-1v-3z" fill="rgb(156,82,82)"/>
<path d="M45 36h1v1h-1v-1z" fill="rgb(230,123,123)"/>
<path d="M46 36h2v1h-2v-1z" fill="rgb(156,82,82)"/>
<path d="M48 36h1v1h-1v-1z" fill="rgb(255,172,172)"/>
<path d="M53 36h1v1h-1v-1z" fill="rgb(156,82,82)"/>
<path d="M58 36h1v1h-1v-1z" fill="rgb(115,74,57)"/>
<path d="M63 36h1v1h-1v-1z" fill="rgb(90,49,32)"/>
<path d="M44 37h1v2h-1v-2z" fill="rgb(230,123,123)"/>
<path d="M48 37h1v1h-1v-1z" fill="rgb(156,82,82)"/>
<path d="M49 37h1v1h-1v-1z" fill="rgb(255,172,172)"/>
<path d="M53 37h1v1h-1v-1z" fill="rgb(230,123,123)"/>
<path d="M62 37h1v1h-1v-1z" fill="rgb(90,49,32)"/>
<path d="M65 37h1v3h-1v-3z" fill="rgb(90,49,32)"/>
<path d="M35 38h1v1h1v2h-1v1h-1v1h-1v-2h1v-3z" fill="rgb(255,172,172)"/>
<path d="M49 38h1v1h-1v-1z" fill="rgb(156,82,82)"/>
<path d="M50 38h1v4h-1v1h-2v-1h1v-1h1v-3z" fill="rgb(255,172,172)"/>
<path d="M58 38h1v1h1v1h-1v1h-1v-1h-1v1h1v1h1v1h-1v1h-1v-1h-1v-2h-1v-1h1v-1h2v-1z" fill="rgb(255,172,172)"/>
<path d="M61 38h1v1h-1v-1z" fill="rgb(90,49,32)"/>
<path d="M41 39h1v2h-1v-2z" fill="rgb(156,82,82)"/>
<path d="M49 39h1v2h-1v-2z" fill="rgb(16,16,16)"/>
<path d="M60 39h1v1h-1v-1z" fill="rgb(90,49,32)"/>
<path d="M37 40h1v1h-1v-1z" fill="rgb(230,123,123)"/>
<path d="M57 40h1v1h-1v-1z" fill="rgb(230,123,123)"/>
<path d="M59 40h1v1h-1v-1z" fill="rgb(156,82,82)"/>
<path d="M36 41h1v1h-1v-1z" fill="rgb(230,123,123)"/>
<path d="M42 41h2v1h-2v-1z" fill="rgb(156,82,82)"/>
<path d="M48 41h1v1h-1v-1z" fill="rgb(16,16,16)"/>
<path d="M58 41h1v1h-1v-1z" fill="rgb(230,123,123)"/>
<path d="M64 41h1v2h-1v-2z" fill="rgb(90,49,32)"/>
<path d="M33 42h1v1h1v2h-1v-1h-1v-2z" fill="rgb(156,82,82)"/>
<path d="M35 42h1v1h-1v-1z" fill="rgb(156,82,82)"/>
<path d="M43 42h1v1h-1v-1z" fill="rgb(255,172,172)"/>
<path d="M44 42h4v1h-4v-1z" fill="rgb(16,16,16)"/>
<path d="M59 42h1v1h-1v-1z" fill="rgb(156,82,82)"/>
<path d="M65 42h2v1h-2v-1z" fill="rgb(156,82,82)"/>
<path d="M35 43h1v1h-1v-1z" fill="rgb(255,172,172)"/>
<path d="M44 43h4v1h-4v-1z" fill="rgb(255,172,172)"/>
<path d="M58 43h1v1h-1v-1z" fill="rgb(148,148,148)"/>
<path d="M59 43h1v1h-1v-1z" fill="rgb(255,172,172)"/>
<path d="M60 43h1v1h-1v-1z" fill="rgb(156,82,82)"/>
<path d="M64 43h1v1h-1v-1z" fill="rgb(156,82,82)"/>
<path d="M65 43h2v2h-1v1h-1v1h-1v-3h1v-1z" fill="rgb(230,123,123)"/>
<path d="M67 43h1v1h-1v-1z" fill="rgb(156,82,82)"/>
<path d="M29 44h1v1h-1v-1z" fill="rgb(148,148,148)"/>
<path d="M40 44h1v1h-1v-1z" fill="rgb(230,123,123)"/>
<path d="M49 44h1v1h-1v-1z" fill="rgb(230,123,123)"/>
<path d="M57 44h1v2h-1v-2z" fill="rgb(148,148,148)"/>
<path d="M58 44h1v2h-1v-2z" fill="rgb(255,255,255)"/>
<path d="M59 44h1v2h-1v-2z" fill="rgb(148,148,148)"/>
<path d="M60 44h1v2h-1v-2z" fill="rgb(255,172,172)"/>
<path d="M67 44h1v1h-1v-1z" fill="rgb(16,16,16)"/>
<path d="M28 45h1v1h-1v-1z" fill="rgb(148,148,148)"/>
<path d="M29 45h1v2h-1v-2z" fill="rgb(255,255,255)"/>
<path d="M30 45h1v1h-1v-1z" fill="rgb(148,148,148)"/>
<path d="M33 45h1v2h1v1h-2v-1h-2v-1h2v-1z" fill="rgb(156,82,82)"/>
<path d="M34 45h1v1h-1v-1z" fill="rgb(255,172,172)"/>
<path d="M39 45h1v1h-1v-1z" fill="rgb(230,123,123)"/>
<path d="M40 45h1v3h-1v-3z" fill="rgb(255,213,189)"/>
<path d="M41 45h1v1h-1v-1z" fill="rgb(255,255,255)"/>
<path d="M47 45h1v1h-1v-1z" fill="rgb(255,255,255)"/>
<path d="M50 45h1v1h-1v-1z" fill="rgb(230,123,123)"/>
<path d="M56 45h1v1h-1v-1z" fill="rgb(156,82,82)"/>
<path d="M61 45h1v1h-1v-1z" fill="rgb(156,82,82)"/>
<path d="M66 45h1v1h-1v-1z" fill="rgb(16,16,16)"/>
<path d="M28 46h1v1h-1v-1z" fill="rgb(156,82,82)"/>
<path d="M30 46h1v1h-1v-1z" fill="rgb(230,123,123)"/>
<path d="M39 46h1v2h-1v-2z" fill="rgb(156,82,82)"/>
<path d="M41 46h1v2h-1v-2z" fill="rgb(16,16,16)"/>
<path d="M47 46h1v2h-1v-2z" fill="rgb(16,16,16)"/>
<path d="M50 46h1v2h-1v-2z" fill="rgb(156,82,82)"/>
<path d="M55 46h1v2h-1v-2z" fill="rgb(156,82,82)"/>
<path d="M56 46h1v1h-1v-1z" fill="rgb(255,213,189)"/>
<path d="M57 46h1v1h-1v-1z" fill="rgb(255,172,172)"/>
<path d="M60 46h1v1h-1v-1z" fill="rgb(148,148,148)"/>
<path d="M61 46h1v1h-1v-1z" fill="rgb(255,172,172)"/>
<path d="M63 46h1v1h-1v-1z" fill="rgb(156,82,82)"/>
<path d="M65 46h1v1h-1v-1z" fill="rgb(16,16,16)"/>
<path d="M27 47h1v3h-1v-3z" fill="rgb(156,82,82)"/>
<path d="M31 47h1v1h-1v-1z" fill="rgb(230,123,123)"/>
<path d="M32 47h1v1h-1v-1z" fill="rgb(255,213,189)"/>
<path d="M56 47h1v1h-1v-1z" fill="rgb(255,172,172)"/>
<path d="M60 47h1v1h-1v-1z" fill="rgb(255,255,255)"/>
<path d="M61 47h1v2h-1v-2z" fill="rgb(148,148,148)"/>
<path d="M62 47h1v2h-1v-2z" fill="rgb(156,82,82)"/>
<path d="M63 47h1v8h-1v-8z" fill="rgb(16,16,16)"/>
<path d="M64 47h2v1h-2v-1z" fill="rgb(156,82,82)"/>
<path d="M28 48h1v1h-1v-1z" fill="rgb(230,123,123)"/>
<path d="M31 48h2v1h-2v-1z" fill="rgb(255,172,172)"/>
<path d="M36 48h2v1h1v1h-3v-2z" fill="rgb(230,123,123)"/>
<path d="M38 48h1v1h-1v-1z" fill="rgb(255,172,172)"/>
<path d="M40 48h1v1h-1v-1z" fill="rgb(230,123,123)"/>
<path d="M41 48h1v1h-1v-1z" fill="rgb(148,148,148)"/>
<path d="M47 48h1v1h-1v-1z" fill="rgb(148,148,148)"/>
<path d="M49 48h1v1h-1v-1z" fill="rgb(230,123,123)"/>
<path d="M51 48h2v1h1v1h-3v-2z" fill="rgb(230,123,123)"/>
<path d="M53 48h1v1h-1v-1z" fill="rgb(255,172,172)"/>
<path d="M54 48h1v1h-1v-1z" fill="rgb(156,82,82)"/>
<path d="M60 48h1v1h-1v-1z" fill="rgb(255,172,172)"/>
<path d="M64 48h2v1h1v2h-2v-1h-1v-2z" fill="rgb(230,123,123)"/>
<path d="M66 48h1v1h-1v-1z" fill="rgb(156,82,82)"/>
<path d="M28 49h1v1h-1v-1z" fill="rgb(255,255,255)"/>
<path d="M29 49h1v1h-1v-1z" fill="rgb(148,148,148)"/>
<path d="M42 49h3v1h-1v1h-1v-1h-1v-1z" fill="rgb(16,16,16)"/>
<path d="M45 49h1v1h-1v-1z" fill="rgb(255,255,255)"/>
<path d="M46 49h1v1h-1v-1z" fill="rgb(16,16,16)"/>
<path d="M60 49h1v2h-1v-2z" fill="rgb(156,82,82)"/>
<path d="M61 49h2v6h-1v4h-1v3h-1v2h-1v2h-1v2h-2v-1h-3v1h-2v-1h-1v-2h-6v-1h-3v-1h-2v1h2v1
	h3v2h-3v-1h-4v-1h-1v-2h-1v-2h-1v-3h-1v-3h1v2h1v1h1v1h1v1h2v1h2v1h9v-1h3v-1h2
	v-1h1v-1h1v-1h1v-1h1v-2h1v-3h1v-2z" fill="rgb(255,172,172)"/>
<path d="M67 49h1v1h-1v-1z" fill="rgb(156,82,82)"/>
<path d="M28 50h1v1h-1v-1z" fill="rgb(156,82,82)"/>
<path d="M29 50h1v1h-1v-1z" fill="rgb(255,172,172)"/>
<path d="M44 50h2v2h-2v-2z" fill="rgb(238,65,57)"/>
<path d="M46 50h1v2h-1v-2z" fill="rgb(180,57,41)"/>
<path d="M64 50h1v1h-1v-1z" fill="rgb(156,82,82)"/>
<path d="M67 50h1v1h-1v-1z" fill="rgb(16,16,16)"/>
<path d="M29 51h1v1h-1v-1z" fill="rgb(16,16,16)"/>
<path d="M43 51h1v1h-1v-1z" fill="rgb(180,57,41)"/>
<path d="M59 51h1v2h-1v-2z" fill="rgb(156,82,82)"/>
<path d="M64 51h1v3h1v5h-1v1h-1v-9z" fill="rgb(255,213,189)"/>
<path d="M65 51h1v3h-1v-3z" fill="rgb(156,82,82)"/>
<path d="M66 51h1v1h-1v-1z" fill="rgb(16,16,16)"/>
<path d="M30 52h1v1h-1v-1z" fill="rgb(16,16,16)"/>
<path d="M44 52h2v1h-2v-1z" fill="rgb(180,57,41)"/>
<path d="M31 53h1v1h-1v-1z" fill="rgb(16,16,16)"/>
<path d="M58 53h1v1h-1v-1z" fill="rgb(156,82,82)"/>
<path d="M59 53h1v1h-1v-1z" fill="rgb(255,213,189)"/>
<path d="M32 54h1v1h-1v-1z" fill="rgb(16,16,16)"/>
<path d="M57 54h1v1h-1v-1z" fill="rgb(230,123,123)"/>
<path d="M66 54h1v5h-1v-5z" fill="rgb(156,82,82)"/>
<path d="M32 55h1v3h-1v-3z" fill="rgb(156,82,82)"/>
<path d="M62 55h1v4h-1v-4z" fill="rgb(16,16,16)"/>
<path d="M63 55h1v3h-1v-3z" fill="rgb(230,123,123)"/>
<path d="M33 58h1v3h-1v-3z" fill="rgb(156,82,82)"/>
<path d="M63 58h1v2h1v2h-1v1h-1v1h-2v-2h1v-2h1v-2z" fill="rgb(255,172,172)"/>
<path d="M61 59h1v3h-1v-3z" fill="rgb(16,16,16)"/>
<path d="M62 59h1v1h-1v-1z" fill="rgb(156,82,82)"/>
<path d="M65 59h1v3h-1v-3z" fill="rgb(156,82,82)"/>
<path d="M34 61h1v2h-1v-2z" fill="rgb(156,82,82)"/>
<path d="M60 62h1v2h-1v-2z" fill="rgb(16,16,16)"/>
<path d="M64 62h1v1h-1v-1z" fill="rgb(156,82,82)"/>
<path d="M35 63h1v2h-1v-2z" fill="rgb(156,82,82)"/>
<path d="M39 63h2v1h-2v-1z" fill="rgb(156,82,82)"/>
<path d="M63 63h1v1h-1v-1z" fill="rgb(156,82,82)"/>
<path d="M41 64h3v1h-3v-1z" fill="rgb(156,82,82)"/>
<path d="M59 64h1v2h-1v-2z" fill="rgb(16,16,16)"/>
<path d="M60 64h1v1h-1v-1z" fill="rgb(255,172,172)"/>
<path d="M61 64h2v1h-2v-1z" fill="rgb(156,82,82)"/>
<path d="M36 65h1v1h-1v-1z" fill="rgb(156,82,82)"/>
<path d="M44 65h5v1h-5v-1z" fill="rgb(156,82,82)"/>
<path d="M49 65h1v1h-1v-1z" fill="rgb(230,123,123)"/>
<path d="M60 65h1v1h-1v-1z" fill="rgb(156,82,82)"/>
<path d="M37 66h1v1h-1v-1z" fill="rgb(156,82,82)"/>
<path d="M38 66h3v1h-3v-1z" fill="rgb(148,148,148)"/>
<path d="M44 66h1v1h-1v-1z" fill="rgb(16,16,16)"/>
<path d="M49 66h1v1h-1v-1z" fill="rgb(156,82,82)"/>
<path d="M58 66h1v2h-1v-2z" fill="rgb(16,16,16)"/>
<path d="M37 67h1v1h-1v-1z" fill="rgb(148,148,148)"/>
<path d="M38 67h3v1h-3v-1z" fill="rgb(255,255,255)"/>
<path d="M41 67h1v1h-1v-1z" fill="rgb(148,148,148)"/>
<path d="M42 67h2v1h-2v-1z" fill="rgb(16,16,16)"/>
<path d="M50 67h1v1h-1v-1z" fill="rgb(156,82,82)"/>
<path d="M53 67h3v1h-3v-1z" fill="rgb(148,148,148)"/>
<path d="M38 68h4v1h-4v-1z" fill="rgb(16,16,16)"/>
<path d="M51 68h1v1h-1v-1z" fill="rgb(156,82,82)"/>
<path d="M52 68h1v1h-1v-1z" fill="rgb(148,148,148)"/>
<path d="M53 68h3v1h-3v-1z" fill="rgb(255,255,255)"/>
<path d="M56 68h1v1h-1v-1z" fill="rgb(148,148,148)"/>
<path d="M57 68h1v1h-1v-1z" fill="rgb(16,16,16)"/>
<path d="M52 69h5v1h-5v-1z" fill="rgb(16,16,16)"/>
</svg>
