<?xml version="1.0" encoding="utf-8"?>
<!-- generated at drububu.com  -->
<!DOCTYPE svg PUBLIC "-//W3C//DTD SVG 1.1//EN" "http://www.w3.org/Graphics/SVG/1.1/DTD/svg11.dtd">
<svg version="1.1" preserveAspectRatio="xMinYMin meet" xmlns="http://www.w3.org/2000/svg" xmlns:xlink="http://www.w3.org/1999/xlink" x="0px" y="0px" width="96px" height="96px" viewBox="0 0 96 96">
<path d="M0 0h96v96h-96v-96z" fill="transparent"/>
<path d="M24 24h3v1h2v1h2v1h1v1h-2v-1h-2v-1h-2v1h1v1h1v1h-1v1h-1v-1h-1v-2h-1v-3z" fill="rgb(82,65,57)"/>
<path d="M23 25h1v2h-1v-2z" fill="rgb(16,16,16)"/>
<path d="M67 25h2v1h-2v-1z" fill="rgb(82,65,57)"/>
<path d="M69 25h1v1h-1v-1z" fill="rgb(16,16,16)"/>
<path d="M26 26h2v1h2v1h-3v-1h-1v-1z" fill="rgb(123,106,98)"/>
<path d="M64 26h3v1h-3v-1z" fill="rgb(82,65,57)"/>
<path d="M67 26h2v2h-1v1h-2v1h-1v-1h-1v-2h3v-1z" fill="rgb(123,106,98)"/>
<path d="M69 26h1v2h-1v-2z" fill="rgb(82,65,57)"/>
<path d="M70 26h1v2h-1v-2z" fill="rgb(16,16,16)"/>
<path d="M24 27h1v2h-1v-2z" fill="rgb(16,16,16)"/>
<path d="M32 27h1v1h-1v-1z" fill="rgb(139,74,82)"/>
<path d="M40 27h3v1h-3v-1z" fill="rgb(222,98,98)"/>
<path d="M43 27h3v1h-3v-1z" fill="rgb(139,74,82)"/>
<path d="M61 27h3v1h-3v-1z" fill="rgb(82,65,57)"/>
<path d="M28 28h5v1h3v1h1v1h-1v4h1v1h1v2h1v1h5v-1h1v-1h1v-3h-1v-1h-1v-1h-1v-1h-3v1h-1v2
	h1v1h1v-1h-1v-2h3v1h1v3h-2v1h-3v-1h-1v-1h-1v-4h1v-2h2v-1h3v1h2v1h1v1h1v1h1v1h2
	v-1h2v-1h3v-1h3v-1h3v-1h3v1h1v2h-2v1h-2v1h-2v1h-2v1h-2v3h1v3h1v4h1v1h1v1h2v1h1
	v1h1v1h1v1h-1v1h-1v1h1v-1h1v-1h1v2h-1v1h-2v1h-2v-1h-2v-1h-2v-1h-2v1h1v2h-1v2h-1
	v1h-1v1h-1v1h-1v1h-2v1h-2v1h-8v-1h-3v-1h-1v-1h-1v-1h-1v-1h-1v-2h-1v-6h-1v4h-2
	v1h-4v-2h-1v-1h1v-1h1v-1h1v-1h2v-1h1v-1h2v-1h1v-3h1v-3h1v-1h1v-2h1v-1h-1v-1h-1
	v-1h-1v-1h-1v-1h-1v-1h-1v-1h-1v-2z" fill="rgb(255,197,180)"/>
<path d="M33 28h3v1h-3v-1z" fill="rgb(139,74,82)"/>
<path d="M38 28h2v1h-2v-1z" fill="rgb(222,98,98)"/>
<path d="M43 28h3v1h2v1h2v1h2v1h-2v1h-2v-1h-1v-1h-1v-1h-1v-1h-2v-1z" fill="rgb(238,148,148)"/>
<path d="M46 28h2v1h-2v-1z" fill="rgb(139,74,82)"/>
<path d="M58 28h3v1h-3v-1z" fill="rgb(222,98,98)"/>
<path d="M68 28h1v1h-1v-1z" fill="rgb(82,65,57)"/>
<path d="M69 28h1v1h-1v-1z" fill="rgb(16,16,16)"/>
<path d="M25 29h1v1h-1v-1z" fill="rgb(16,16,16)"/>
<path d="M27 29h1v1h1v1h1v1h1v1h1v1h1v1h1v2h-2v-1h-1v-1h-1v-1h-1v-2h-1v-1h-1v-2z" fill="rgb(238,148,148)"/>
<path d="M36 29h1v1h-1v-1z" fill="rgb(139,74,82)"/>
<path d="M37 29h1v2h-1v-2z" fill="rgb(222,98,98)"/>
<path d="M48 29h2v1h-2v-1z" fill="rgb(139,74,82)"/>
<path d="M55 29h3v1h-3v-1z" fill="rgb(222,98,98)"/>
<path d="M66 29h2v1h-1v1h-1v1h-1v1h-1v-2h1v-1h1v-1z" fill="rgb(82,65,57)"/>
<path d="M68 29h1v1h-1v-1z" fill="rgb(16,16,16)"/>
<path d="M26 30h1v1h-1v-1z" fill="rgb(16,16,16)"/>
<path d="M50 30h1v1h-1v-1z" fill="rgb(139,74,82)"/>
<path d="M52 30h3v1h-3v-1z" fill="rgb(222,98,98)"/>
<path d="M67 30h1v1h-1v-1z" fill="rgb(16,16,16)"/>
<path d="M27 31h1v1h-1v-1z" fill="rgb(16,16,16)"/>
<path d="M36 31h1v4h-1v-4z" fill="rgb(222,98,98)"/>
<path d="M40 31h3v1h-3v-1z" fill="rgb(222,98,98)"/>
<path d="M63 31h1v2h-1v1h-1v1h-1v1h-1v1h-1v1h-1v-2h-1v-2h2v-1h2v-1h2v-1z" fill="rgb(238,148,148)"/>
<path d="M66 31h1v1h-1v-1z" fill="rgb(16,16,16)"/>
<path d="M28 32h1v2h-1v-2z" fill="rgb(16,16,16)"/>
<path d="M39 32h1v2h-1v-2z" fill="rgb(222,98,98)"/>
<path d="M43 32h1v1h-1v-1z" fill="rgb(222,98,98)"/>
<path d="M65 32h1v1h-1v-1z" fill="rgb(16,16,16)"/>
<path d="M44 33h1v3h-1v-3z" fill="rgb(139,74,82)"/>
<path d="M63 33h2v1h-2v-1z" fill="rgb(16,16,16)"/>
<path d="M29 34h1v1h-1v-1z" fill="rgb(16,16,16)"/>
<path d="M40 34h1v1h-1v-1z" fill="rgb(222,98,98)"/>
<path d="M45 34h1v3h-1v1h-1v1h-5v-1h3v-1h2v-1h1v-2z" fill="rgb(238,148,148)"/>
<path d="M62 34h1v1h-1v-1z" fill="rgb(16,16,16)"/>
<path d="M30 35h1v1h-1v-1z" fill="rgb(16,16,16)"/>
<path d="M37 35h1v1h-1v-1z" fill="rgb(222,98,98)"/>
<path d="M55 35h1v1h1v2h1v2h1v3h1v3h-1v-1h-2v-4h-1v-3h-1v-3z" fill="rgb(238,148,148)"/>
<path d="M56 35h1v1h-1v-1z" fill="rgb(222,98,98)"/>
<path d="M61 35h1v1h-1v-1z" fill="rgb(16,16,16)"/>
<path d="M25 36h3v1h-3v-1z" fill="rgb(139,74,82)"/>
<path d="M31 36h1v1h-1v-1z" fill="rgb(16,16,16)"/>
<path d="M34 36h1v1h-1v-1z" fill="rgb(222,98,98)"/>
<path d="M38 36h1v1h-1v-1z" fill="rgb(222,98,98)"/>
<path d="M42 36h2v1h-2v-1z" fill="rgb(139,74,82)"/>
<path d="M57 36h1v1h-1v-1z" fill="rgb(222,98,98)"/>
<path d="M60 36h1v1h-1v-1z" fill="rgb(16,16,16)"/>
<path d="M65 36h5v1h-5v-1z" fill="rgb(139,74,82)"/>
<path d="M24 37h1v1h-1v-1z" fill="rgb(82,49,74)"/>
<path d="M25 37h3v1h3v1h1v1h-4v-1h-2v-1h-1v-1z" fill="rgb(213,123,164)"/>
<path d="M28 37h3v1h-3v-1z" fill="rgb(139,74,82)"/>
<path d="M31 37h1v1h-1v-1z" fill="transparent"/>
<path d="M32 37h1v2h-1v-2z" fill="rgb(82,49,74)"/>
<path d="M33 37h1v2h-1v-2z" fill="rgb(222,98,98)"/>
<path d="M38 37h1v1h-1v-1z" fill="rgb(238,148,148)"/>
<path d="M39 37h3v1h-3v-1z" fill="rgb(139,74,82)"/>
<path d="M57 37h1v1h-1v-1z" fill="rgb(139,74,82)"/>
<path d="M59 37h1v1h-1v-1z" fill="rgb(16,16,16)"/>
<path d="M62 37h3v1h-3v-1z" fill="rgb(139,74,82)"/>
<path d="M65 37h5v1h-1v1h-2v1h-5v-2h3v-1z" fill="rgb(213,123,164)"/>
<path d="M70 37h1v1h-1v-1z" fill="rgb(82,49,74)"/>
<path d="M25 38h1v1h-1v-1z" fill="rgb(82,49,74)"/>
<path d="M31 38h1v1h-1v-1z" fill="rgb(139,74,82)"/>
<path d="M58 38h1v2h-1v-2z" fill="rgb(16,16,16)"/>
<path d="M59 38h3v1h-3v-1z" fill="rgb(139,74,82)"/>
<path d="M69 38h1v1h-1v-1z" fill="rgb(82,49,74)"/>
<path d="M26 39h1v1h-1v-1z" fill="rgb(82,49,74)"/>
<path d="M27 39h1v1h-1v-1z" fill="rgb(189,90,123)"/>
<path d="M32 39h1v1h-1v-1z" fill="rgb(139,74,82)"/>
<path d="M37 39h1v1h-1v-1z" fill="rgb(238,148,148)"/>
<path d="M46 39h1v1h-1v-1z" fill="rgb(238,148,148)"/>
<path d="M59 39h3v1h3v1h-3v4h2v1h1v1h1v1h1v1h-2v-1h-3v-1h-1v-4h-1v-3h-1v-1z" fill="rgb(189,90,123)"/>
<path d="M67 39h2v1h-2v-1z" fill="rgb(82,49,74)"/>
<path d="M27 40h2v1h-2v-1z" fill="rgb(82,49,74)"/>
<path d="M29 40h2v3h-1v-1h-1v-2z" fill="rgb(189,90,123)"/>
<path d="M31 40h1v3h-1v-3z" fill="rgb(139,74,82)"/>
<path d="M36 40h1v1h-1v-1z" fill="rgb(222,98,98)"/>
<path d="M37 40h1v3h-1v-3z" fill="rgb(255,197,180)"/>
<path d="M38 40h1v1h-1v-1z" fill="rgb(255,255,255)"/>
<path d="M45 40h1v1h-1v-1z" fill="rgb(255,255,255)"/>
<path d="M46 40h1v3h-1v-3z" fill="rgb(255,197,180)"/>
<path d="M47 40h1v1h-1v-1z" fill="rgb(222,98,98)"/>
<path d="M59 40h1v3h-1v-3z" fill="rgb(16,16,16)"/>
<path d="M65 40h2v1h-2v-1z" fill="rgb(82,49,74)"/>
<path d="M24 41h5v1h-5v-1z" fill="rgb(139,74,82)"/>
<path d="M36 41h1v2h-1v-2z" fill="rgb(139,74,82)"/>
<path d="M38 41h1v2h-1v-2z" fill="rgb(16,16,16)"/>
<path d="M45 41h1v2h-1v-2z" fill="rgb(16,16,16)"/>
<path d="M47 41h1v2h-1v-2z" fill="rgb(139,74,82)"/>
<path d="M62 41h3v1h-3v-1z" fill="rgb(82,49,74)"/>
<path d="M23 42h1v1h-1v-1z" fill="rgb(82,49,74)"/>
<path d="M24 42h6v1h-1v1h-3v-1h-2v-1z" fill="rgb(213,123,164)"/>
<path d="M62 42h9v1h-9v-1z" fill="rgb(139,74,82)"/>
<path d="M24 43h2v1h-2v-1z" fill="rgb(82,49,74)"/>
<path d="M29 43h1v2h-2v-1h1v-1z" fill="rgb(189,90,123)"/>
<path d="M30 43h1v3h-1v-3z" fill="rgb(139,74,82)"/>
<path d="M37 43h1v1h-1v-1z" fill="rgb(238,148,148)"/>
<path d="M46 43h1v1h-1v-1z" fill="rgb(238,148,148)"/>
<path d="M60 43h1v4h-1v-4z" fill="rgb(16,16,16)"/>
<path d="M62 43h9v1h-3v1h-6v-2z" fill="rgb(213,123,164)"/>
<path d="M71 43h1v1h-1v-1z" fill="rgb(82,49,74)"/>
<path d="M26 44h2v1h-2v-1z" fill="rgb(82,49,74)"/>
<path d="M38 44h7v1h-7v-1z" fill="rgb(16,16,16)"/>
<path d="M68 44h3v1h-3v-1z" fill="rgb(82,49,74)"/>
<path d="M28 45h2v1h-2v-1z" fill="rgb(82,49,74)"/>
<path d="M39 45h1v1h-1v-1z" fill="rgb(139,74,82)"/>
<path d="M40 45h4v1h-4v-1z" fill="rgb(222,57,90)"/>
<path d="M44 45h1v1h-1v-1z" fill="rgb(139,74,82)"/>
<path d="M58 45h1v1h-1v-1z" fill="rgb(222,98,98)"/>
<path d="M64 45h4v1h-4v-1z" fill="rgb(82,49,74)"/>
<path d="M28 46h2v1h-2v-1z" fill="rgb(139,74,82)"/>
<path d="M40 46h4v1h-4v-1z" fill="rgb(139,74,82)"/>
<path d="M59 46h1v1h-1v-1z" fill="rgb(139,74,82)"/>
<path d="M65 46h1v1h-1v-1z" fill="rgb(139,74,82)"/>
<path d="M27 47h1v1h-1v-1z" fill="rgb(139,74,82)"/>
<path d="M61 47h1v1h-1v-1z" fill="rgb(16,16,16)"/>
<path d="M66 47h1v1h-1v-1z" fill="rgb(139,74,82)"/>
<path d="M25 48h2v1h-2v-1z" fill="rgb(139,74,82)"/>
<path d="M62 48h1v1h-1v-1z" fill="rgb(16,16,16)"/>
<path d="M63 48h2v1h-2v-1z" fill="rgb(82,49,74)"/>
<path d="M67 48h1v1h-1v-1z" fill="rgb(82,49,74)"/>
<path d="M24 49h1v1h-1v-1z" fill="rgb(139,74,82)"/>
<path d="M63 49h1v1h-1v-1z" fill="rgb(16,16,16)"/>
<path d="M64 49h1v1h-1v-1z" fill="rgb(213,123,139)"/>
<path d="M65 49h2v1h-2v-1z" fill="rgb(82,49,74)"/>
<path d="M67 49h1v3h-1v-1h-2v-1h2v-1z" fill="rgb(213,123,139)"/>
<path d="M68 49h1v3h-1v-3z" fill="rgb(82,49,74)"/>
<path d="M21 50h3v1h-3v-1z" fill="rgb(16,16,16)"/>
<path d="M29 50h1v2h-1v-2z" fill="rgb(238,148,148)"/>
<path d="M64 50h1v1h-1v-1z" fill="rgb(16,16,16)"/>
<path d="M20 51h1v1h-1v-1z" fill="rgb(16,16,16)"/>
<path d="M21 51h1v1h-1v-1z" fill="rgb(255,197,180)"/>
<path d="M22 51h1v1h-1v-1z" fill="rgb(238,148,148)"/>
<path d="M63 51h1v1h-1v-1z" fill="rgb(139,74,82)"/>
<path d="M65 51h2v1h-2v-1z" fill="rgb(16,16,16)"/>
<path d="M21 52h1v2h-1v-2z" fill="rgb(16,16,16)"/>
<path d="M29 52h1v2h-1v-2z" fill="rgb(222,98,98)"/>
<path d="M54 52h1v1h-1v-1z" fill="rgb(238,148,148)"/>
<path d="M55 52h1v1h-1v-1z" fill="rgb(222,98,98)"/>
<path d="M62 52h1v1h-1v-1z" fill="rgb(139,74,82)"/>
<path d="M65 52h2v1h-1v2h-2v-2h1v-1z" fill="rgb(238,148,148)"/>
<path d="M67 52h1v1h-1v-1z" fill="rgb(16,16,16)"/>
<path d="M68 52h1v7h-1v3h-1v2h-1v2h-1v1h-1v1h-1v1h-1v1h-2v1h-1v-2h1v-4h1v-1h1v-1h1v-1h1
	v-2h1v-4h1v-1h1v-2h1v-1z" fill="rgb(213,123,139)"/>
<path d="M69 52h1v7h-1v-7z" fill="rgb(82,49,74)"/>
<path d="M22 53h1v1h-1v-1z" fill="rgb(238,148,148)"/>
<path d="M55 53h1v1h2v1h2v1h1v4h-1v5h-1v4h-1v3h-1v2h-1v1h-1v-4h1v-3h-1v-2h-1v-1h-4v1h-2
	v1h-6v-1h-4v-1h-2v-1h-1v1h1v1h2v1h4v1h1v3h-1v2h-2v-1h-2v1h-1v-1h-3v-2h-1v-2h-1
	v-3h-1v-4h-1v-5h1v2h1v1h1v1h1v1h1v1h3v1h8v-1h2v-1h2v-1h1v-1h1v-1h1v-1h1v-2h1v-2
	z" fill="rgb(238,148,148)"/>
<path d="M56 53h1v1h-1v-1z" fill="rgb(139,74,82)"/>
<path d="M57 53h1v1h-1v-1z" fill="rgb(16,16,16)"/>
<path d="M66 53h1v2h-1v-2z" fill="rgb(16,16,16)"/>
<path d="M22 54h1v1h-1v-1z" fill="rgb(16,16,16)"/>
<path d="M27 54h3v7h-1v-6h-2v-1z" fill="rgb(16,16,16)"/>
<path d="M58 54h2v1h-2v-1z" fill="rgb(16,16,16)"/>
<path d="M62 54h2v1h-2v-1z" fill="rgb(139,74,82)"/>
<path d="M23 55h4v1h-4v-1z" fill="rgb(16,16,16)"/>
<path d="M60 55h2v1h3v1h-3v3h-1v-4h-1v-1z" fill="rgb(16,16,16)"/>
<path d="M62 55h2v1h-2v-1z" fill="rgb(255,197,180)"/>
<path d="M64 55h1v1h-1v-1z" fill="rgb(139,74,82)"/>
<path d="M65 55h1v1h-1v-1z" fill="rgb(16,16,16)"/>
<path d="M62 57h2v3h-1v2h-1v1h-1v-3h1v-3z" fill="rgb(213,123,139)"/>
<path d="M64 57h1v3h-1v-3z" fill="rgb(139,74,82)"/>
<path d="M68 59h1v3h-1v-3z" fill="rgb(82,49,74)"/>
<path d="M60 60h1v5h-1v-5z" fill="rgb(16,16,16)"/>
<path d="M63 60h1v2h-1v-2z" fill="rgb(139,74,82)"/>
<path d="M30 61h1v4h-1v-4z" fill="rgb(16,16,16)"/>
<path d="M62 62h1v1h-1v-1z" fill="rgb(139,74,82)"/>
<path d="M67 62h1v2h-1v-2z" fill="rgb(82,49,74)"/>
<path d="M61 63h1v1h-1v-1z" fill="rgb(139,74,82)"/>
<path d="M35 64h1v1h-1v-1z" fill="rgb(222,98,98)"/>
<path d="M66 64h1v2h-1v-2z" fill="rgb(82,49,74)"/>
<path d="M31 65h1v3h-1v-3z" fill="rgb(16,16,16)"/>
<path d="M36 65h2v1h-2v-1z" fill="rgb(222,98,98)"/>
<path d="M50 65h4v1h1v2h1v3h-1v3h-1v-1h-2v1h-1v-1h-2v-2h-1v-3h-1v-1h1v-1h2v-1z" fill="rgb(255,197,180)"/>
<path d="M59 65h1v4h-1v-4z" fill="rgb(16,16,16)"/>
<path d="M38 66h4v1h-4v-1z" fill="rgb(139,74,82)"/>
<path d="M65 66h1v1h-1v-1z" fill="rgb(82,49,74)"/>
<path d="M42 67h5v1h-5v-1z" fill="rgb(139,74,82)"/>
<path d="M64 67h1v1h-1v-1z" fill="rgb(82,49,74)"/>
<path d="M32 68h1v2h-1v-2z" fill="rgb(16,16,16)"/>
<path d="M43 68h1v3h-1v-3z" fill="rgb(16,16,16)"/>
<path d="M44 68h3v3h1v1h-2v-1h-2v-3z" fill="rgb(213,123,139)"/>
<path d="M47 68h1v3h-1v-3z" fill="rgb(222,98,98)"/>
<path d="M63 68h1v1h-1v-1z" fill="rgb(82,49,74)"/>
<path d="M58 69h1v3h-1v-3z" fill="rgb(16,16,16)"/>
<path d="M62 69h1v1h-1v-1z" fill="rgb(82,49,74)"/>
<path d="M33 70h1v2h-1v-2z" fill="rgb(16,16,16)"/>
<path d="M60 70h2v1h-2v-1z" fill="rgb(82,49,74)"/>
<path d="M42 71h1v2h-1v-2z" fill="rgb(16,16,16)"/>
<path d="M44 71h1v1h-1v-1z" fill="rgb(82,49,74)"/>
<path d="M45 71h1v1h-1v-1z" fill="rgb(16,16,16)"/>
<path d="M48 71h1v2h-1v-2z" fill="rgb(222,98,98)"/>
<path d="M59 71h1v1h-1v-1z" fill="rgb(82,49,74)"/>
<path d="M34 72h1v2h-1v-2z" fill="rgb(131,131,131)"/>
<path d="M35 72h2v1h-2v-1z" fill="rgb(139,74,82)"/>
<path d="M38 72h2v1h-2v-1z" fill="rgb(139,74,82)"/>
<path d="M46 72h2v1h-2v-1z" fill="rgb(16,16,16)"/>
<path d="M57 72h1v2h-1v-2z" fill="rgb(16,16,16)"/>
<path d="M35 73h2v1h-2v-1z" fill="rgb(255,255,255)"/>
<path d="M37 73h1v1h-1v-1z" fill="rgb(131,131,131)"/>
<path d="M38 73h2v1h-2v-1z" fill="rgb(255,255,255)"/>
<path d="M40 73h2v1h-2v-1z" fill="rgb(16,16,16)"/>
<path d="M49 73h2v1h-2v-1z" fill="rgb(222,98,98)"/>
<path d="M52 73h2v1h-2v-1z" fill="rgb(222,98,98)"/>
<path d="M35 74h5v1h-5v-1z" fill="rgb(16,16,16)"/>
<path d="M49 74h1v1h-1v-1z" fill="rgb(16,16,16)"/>
<path d="M50 74h1v1h-1v-1z" fill="rgb(255,255,255)"/>
<path d="M51 74h1v1h-1v-1z" fill="rgb(131,131,131)"/>
<path d="M52 74h2v1h-2v-1z" fill="rgb(255,255,255)"/>
<path d="M54 74h1v1h-1v-1z" fill="rgb(222,98,98)"/>
<path d="M56 74h1v1h-1v-1z" fill="rgb(16,16,16)"/>
<path d="M50 75h6v1h-6v-1z" fill="rgb(16,16,16)"/>
</svg>
