<?xml version="1.0" encoding="utf-8"?>
<!-- generated at drububu.com  -->
<!DOCTYPE svg PUBLIC "-//W3C//DTD SVG 1.1//EN" "http://www.w3.org/Graphics/SVG/1.1/DTD/svg11.dtd">
<svg version="1.1" preserveAspectRatio="xMinYMin meet" xmlns="http://www.w3.org/2000/svg" xmlns:xlink="http://www.w3.org/1999/xlink" x="0px" y="0px" width="96px" height="96px" viewBox="0 0 96 96">
<path d="M0 0h96v96h-96v-96z" fill="transparent"/>
<path d="M31 28h3v1h-3v-1z" fill="rgb(189,74,41)"/>
<path d="M28 29h2v1h-2v-1z" fill="rgb(115,32,0)"/>
<path d="M30 29h1v1h-1v-1z" fill="rgb(189,74,41)"/>
<path d="M31 29h3v1h-1v1h-1v1h-1v1h-1v-3h1v-1z" fill="rgb(222,115,41)"/>
<path d="M34 29h3v1h-3v-1z" fill="rgb(189,74,41)"/>
<path d="M37 29h1v1h-1v-1z" fill="rgb(115,32,0)"/>
<path d="M27 30h1v1h-1v-1z" fill="rgb(115,32,0)"/>
<path d="M28 30h1v3h-1v1h-1v-3h1v-1z" fill="rgb(222,115,41)"/>
<path d="M29 30h1v2h-1v-2z" fill="rgb(189,74,41)"/>
<path d="M33 30h1v1h-1v-1z" fill="rgb(189,74,41)"/>
<path d="M34 30h3v1h-1v1h-2v1h-1v-2h1v-1z" fill="rgb(222,115,41)"/>
<path d="M37 30h1v1h1v4h-2v1h-1v-1h-1v-2h2v-1h-1v-1h1v-1z" fill="rgb(189,74,41)"/>
<path d="M38 30h1v1h-1v-1z" fill="rgb(115,32,0)"/>
<path d="M22 31h3v1h-3v-1z" fill="rgb(189,74,41)"/>
<path d="M26 31h1v4h-1v-4z" fill="rgb(115,32,0)"/>
<path d="M32 31h1v4h-1v-4z" fill="rgb(115,32,0)"/>
<path d="M39 31h1v4h-1v-4z" fill="rgb(115,32,0)"/>
<path d="M22 32h1v4h-1v-4z" fill="rgb(90,49,0)"/>
<path d="M23 32h2v3h-1v-1h-1v-2z" fill="rgb(246,189,123)"/>
<path d="M25 32h1v1h-1v-1z" fill="rgb(189,74,41)"/>
<path d="M29 32h1v2h-1v-2z" fill="rgb(115,32,0)"/>
<path d="M31 32h1v3h-1v-1h-1v-1h1v-1z" fill="rgb(189,74,41)"/>
<path d="M34 32h1v1h-1v-1z" fill="rgb(189,74,41)"/>
<path d="M35 32h2v1h-2v-1z" fill="rgb(115,32,0)"/>
<path d="M25 33h1v2h1v1h-1v1h-1v2h-1v-3h-1v-2h1v1h1v-2z" fill="rgb(230,148,106)"/>
<path d="M28 33h1v1h1v2h-1v-1h-2v-1h1v-1z" fill="rgb(189,74,41)"/>
<path d="M33 33h1v2h-1v-2z" fill="rgb(189,74,41)"/>
<path d="M34 33h1v2h-1v-2z" fill="rgb(115,32,0)"/>
<path d="M37 33h1v1h-1v-1z" fill="rgb(115,32,0)"/>
<path d="M56 33h4v1h-4v-1z" fill="rgb(115,32,0)"/>
<path d="M30 34h1v1h-1v-1z" fill="rgb(115,32,0)"/>
<path d="M40 34h5v1h-5v-1z" fill="rgb(189,74,41)"/>
<path d="M45 34h1v4h-1v-4z" fill="rgb(16,16,16)"/>
<path d="M54 34h2v1h-2v-1z" fill="rgb(115,32,0)"/>
<path d="M56 34h1v1h-1v-1z" fill="rgb(189,74,41)"/>
<path d="M57 34h2v1h3v1h-1v1h-2v1h-1v1h-1v1h-1v-2h1v-1h-2v4h-1v1h-2v-4h1v-2h1v-1h3v-1z" fill="rgb(222,115,41)"/>
<path d="M59 34h1v1h-1v-1z" fill="rgb(189,74,41)"/>
<path d="M60 34h2v1h-2v-1z" fill="rgb(115,32,0)"/>
<path d="M27 35h2v1h-2v-1z" fill="rgb(115,32,0)"/>
<path d="M30 35h3v1h2v1h-2v2h-2v1h-1v1h-1v-2h1v-1h1v-2h-1v-1z" fill="rgb(222,115,41)"/>
<path d="M33 35h1v1h-1v-1z" fill="rgb(115,32,0)"/>
<path d="M34 35h1v1h-1v-1z" fill="rgb(189,74,41)"/>
<path d="M35 35h1v1h-1v-1z" fill="rgb(115,32,0)"/>
<path d="M37 35h2v1h-2v-1z" fill="rgb(115,32,0)"/>
<path d="M39 35h1v1h-1v-1z" fill="rgb(189,74,41)"/>
<path d="M40 35h4v1h-2v1h-1v-1h-1v-1z" fill="rgb(246,189,123)"/>
<path d="M44 35h1v1h-1v-1z" fill="rgb(90,49,0)"/>
<path d="M53 35h1v1h-1v-1z" fill="rgb(115,32,0)"/>
<path d="M62 35h1v1h2v1h-4v-1h1v-1z" fill="rgb(115,32,0)"/>
<path d="M23 36h1v4h-1v-4z" fill="rgb(90,49,0)"/>
<path d="M26 36h1v1h-1v-1z" fill="rgb(16,16,16)"/>
<path d="M27 36h4v1h-1v1h-1v1h-2v-1h-1v-1h1v-1z" fill="rgb(255,148,90)"/>
<path d="M35 36h2v1h-2v-1z" fill="rgb(90,49,0)"/>
<path d="M37 36h4v2h-3v2h-1v1h-1v2h1v-1h2v1h-1v1h-2v1h1v2h-1v2h-2v1h-2v1h-8v-1h-2v-1h-1
	v-2h1v1h1v-1h2v-1h3v1h1v1h4v-1h1v-3h-1v-1h-3v-2h2v-1h1v-1h1v-1h2v-1h1v-1z" fill="rgb(230,148,106)"/>
<path d="M42 36h2v1h-2v-1z" fill="rgb(90,49,0)"/>
<path d="M44 36h1v2h-2v1h-1v5h-1v2h-1v-2h-1v-1h1v-2h-2v-1h1v-1h2v-1h1v-1h2v-1z" fill="rgb(131,82,49)"/>
<path d="M50 36h3v1h-1v5h-1v-5h-1v-1z" fill="rgb(115,32,0)"/>
<path d="M25 37h1v2h-1v-2z" fill="rgb(16,16,16)"/>
<path d="M30 37h1v1h-1v-1z" fill="rgb(189,74,41)"/>
<path d="M33 37h1v1h-1v-1z" fill="rgb(189,74,41)"/>
<path d="M34 37h1v1h-1v-1z" fill="rgb(90,49,0)"/>
<path d="M35 37h1v1h-1v-1z" fill="rgb(189,115,90)"/>
<path d="M41 37h1v1h-1v-1z" fill="rgb(90,49,0)"/>
<path d="M49 37h1v1h-1v-1z" fill="rgb(115,32,0)"/>
<path d="M50 37h1v1h-1v-1z" fill="rgb(189,74,41)"/>
<path d="M52 37h1v1h-1v-1z" fill="rgb(189,74,41)"/>
<path d="M55 37h1v1h-1v-1z" fill="rgb(189,74,41)"/>
<path d="M56 37h1v1h-1v-1z" fill="rgb(115,32,0)"/>
<path d="M59 37h2v1h-2v-1z" fill="rgb(115,32,0)"/>
<path d="M61 37h3v1h2v1h-1v1h-1v1h-1v1h-1v2h-1v-3h1v-1h-2v5h-1v-1h-1v-1h-1v-2h1v-1h1v-1
	h1v-1h1v-1z" fill="rgb(222,115,41)"/>
<path d="M64 37h1v1h-1v-1z" fill="rgb(189,74,41)"/>
<path d="M65 37h2v1h-2v-1z" fill="rgb(115,32,0)"/>
<path d="M26 38h1v1h-1v-1z" fill="rgb(189,74,41)"/>
<path d="M29 38h1v1h-1v-1z" fill="rgb(115,32,0)"/>
<path d="M33 38h1v1h-1v-1z" fill="rgb(90,49,0)"/>
<path d="M38 38h1v1h-1v-1z" fill="rgb(189,115,90)"/>
<path d="M39 38h2v1h-2v-1z" fill="rgb(90,49,0)"/>
<path d="M43 38h1v2h-1v3h-1v-4h1v-1z" fill="rgb(164,115,65)"/>
<path d="M44 38h1v2h-1v-2z" fill="rgb(16,16,16)"/>
<path d="M48 38h1v2h-1v-2z" fill="rgb(115,32,0)"/>
<path d="M49 38h1v1h-1v-1z" fill="rgb(189,74,41)"/>
<path d="M50 38h1v5h-1v1h-1v1h-1v-4h1v-2h1v-1z" fill="rgb(222,115,41)"/>
<path d="M55 38h1v3h-1v-3z" fill="rgb(115,32,0)"/>
<path d="M58 38h1v1h-1v-1z" fill="rgb(115,32,0)"/>
<path d="M59 38h1v1h-1v-1z" fill="rgb(189,74,41)"/>
<path d="M66 38h1v1h-1v-1z" fill="rgb(189,74,41)"/>
<path d="M67 38h1v1h1v1h-4v-1h2v-1z" fill="rgb(115,32,0)"/>
<path d="M24 39h1v3h-1v-3z" fill="rgb(16,16,16)"/>
<path d="M25 39h1v2h-1v-2z" fill="rgb(189,74,41)"/>
<path d="M26 39h2v2h-1v2h-2v-2h1v-2z" fill="rgb(222,115,41)"/>
<path d="M28 39h1v3h-1v1h-1v-2h1v-2z" fill="rgb(115,32,0)"/>
<path d="M31 39h1v1h-1v-1z" fill="rgb(189,74,41)"/>
<path d="M32 39h1v1h-1v-1z" fill="rgb(16,16,16)"/>
<path d="M38 39h1v1h-1v-1z" fill="rgb(90,49,0)"/>
<path d="M57 39h1v2h-1v-2z" fill="rgb(115,32,0)"/>
<path d="M58 39h1v1h-1v-1z" fill="rgb(189,74,41)"/>
<path d="M30 40h2v1h-2v-1z" fill="rgb(16,16,16)"/>
<path d="M37 40h1v1h1v1h-2v-2z" fill="rgb(90,49,0)"/>
<path d="M43 40h1v3h-1v-3z" fill="rgb(16,16,16)"/>
<path d="M47 40h1v5h-1v-3h-1v-1h1v-1z" fill="rgb(115,32,0)"/>
<path d="M48 40h1v1h-1v-1z" fill="rgb(189,74,41)"/>
<path d="M56 40h1v1h-1v-1z" fill="rgb(189,74,41)"/>
<path d="M60 40h1v1h-1v-1z" fill="rgb(189,74,41)"/>
<path d="M61 40h1v1h-1v-1z" fill="rgb(115,32,0)"/>
<path d="M64 40h1v1h-1v-1z" fill="rgb(115,32,0)"/>
<path d="M65 40h2v1h1v3h-2v1h-1v-1h-1v1h-1v-3h1v-1h1v-1z" fill="rgb(222,115,41)"/>
<path d="M67 40h2v1h2v2h1v4h-1v2h-2v-1h-3v-2h2v-1h-2v-1h2v-3h-1v-1z" fill="rgb(189,74,41)"/>
<path d="M69 40h2v1h-2v-1z" fill="rgb(115,32,0)"/>
<path d="M29 41h1v1h-1v-1z" fill="rgb(16,16,16)"/>
<path d="M36 41h1v1h-1v-1z" fill="rgb(131,82,49)"/>
<path d="M39 41h1v2h-1v-2z" fill="rgb(16,16,16)"/>
<path d="M54 41h2v8h-1v1h-1v-4h-1v-2h1v-1h1v-1h-1v-1z" fill="rgb(189,74,41)"/>
<path d="M56 41h1v8h-1v-8z" fill="rgb(115,32,0)"/>
<path d="M60 41h1v3h-1v-3z" fill="rgb(115,32,0)"/>
<path d="M63 41h1v1h-1v-1z" fill="rgb(115,32,0)"/>
<path d="M71 41h1v2h-1v-2z" fill="rgb(115,32,0)"/>
<path d="M24 42h1v1h-1v-1z" fill="rgb(115,32,0)"/>
<path d="M28 42h2v2h-1v1h-1v1h-3v1h-1v-1h-1v-1h1v-2h1v1h2v-1h1v-1z" fill="rgb(246,189,123)"/>
<path d="M36 42h1v1h-1v-1z" fill="rgb(90,49,0)"/>
<path d="M45 42h1v5h-1v-5z" fill="rgb(115,32,0)"/>
<path d="M46 42h1v1h-1v-1z" fill="rgb(189,74,41)"/>
<path d="M51 42h1v4h1v3h-2v-1h-1v-1h-1v-1h1v-1h1v-1h-1v-1h1v-1z" fill="rgb(189,74,41)"/>
<path d="M52 42h1v4h-1v-4z" fill="rgb(115,32,0)"/>
<path d="M53 42h1v1h-1v-1z" fill="rgb(189,74,41)"/>
<path d="M54 42h1v1h-1v-1z" fill="rgb(222,115,41)"/>
<path d="M62 42h1v2h-1v-2z" fill="rgb(115,32,0)"/>
<path d="M23 43h1v2h-1v-2z" fill="rgb(115,32,0)"/>
<path d="M25 43h2v1h-2v-1z" fill="rgb(115,32,0)"/>
<path d="M30 43h3v1h-3v-1z" fill="rgb(16,16,16)"/>
<path d="M38 43h1v2h-1v-2z" fill="rgb(16,16,16)"/>
<path d="M42 43h1v2h-1v-2z" fill="rgb(16,16,16)"/>
<path d="M46 43h1v2h-1v-2z" fill="rgb(222,115,41)"/>
<path d="M53 43h1v1h-1v-1z" fill="rgb(222,115,41)"/>
<path d="M57 43h1v1h-1v-1z" fill="rgb(189,74,41)"/>
<path d="M72 43h1v4h-1v-4z" fill="rgb(115,32,0)"/>
<path d="M29 44h1v1h-1v-1z" fill="rgb(16,16,16)"/>
<path d="M30 44h3v1h-2v1h-1v-2z" fill="rgb(90,49,0)"/>
<path d="M33 44h1v3h-1v-3z" fill="rgb(16,16,16)"/>
<path d="M36 44h2v1h-2v-1z" fill="rgb(189,115,90)"/>
<path d="M39 44h1v1h-1v-1z" fill="rgb(90,49,0)"/>
<path d="M41 44h1v1h-1v-1z" fill="rgb(90,49,0)"/>
<path d="M49 44h1v1h-1v-1z" fill="rgb(189,74,41)"/>
<path d="M50 44h1v1h-1v-1z" fill="rgb(222,115,41)"/>
<path d="M54 44h1v1h-1v-1z" fill="rgb(222,115,41)"/>
<path d="M57 44h1v1h-1v-1z" fill="rgb(222,115,41)"/>
<path d="M58 44h1v1h-1v-1z" fill="rgb(189,74,41)"/>
<path d="M60 44h1v3h-1v2h-1v2h-1v1h-1v-1h-1v-2h1v-2h1v-1h1v-1h1v-1z" fill="rgb(189,74,41)"/>
<path d="M61 44h1v3h-1v-3z" fill="rgb(115,32,0)"/>
<path d="M62 44h1v1h-1v-1z" fill="rgb(189,74,41)"/>
<path d="M64 44h1v1h-1v-1z" fill="rgb(189,74,41)"/>
<path d="M21 45h2v1h-2v-1z" fill="rgb(115,32,0)"/>
<path d="M28 45h1v1h-1v-1z" fill="rgb(16,16,16)"/>
<path d="M29 45h1v1h-1v-1z" fill="rgb(255,255,255)"/>
<path d="M31 45h2v1h-1v1h-2v-1h1v-1z" fill="rgb(164,115,65)"/>
<path d="M37 45h1v1h-1v-1z" fill="rgb(16,16,16)"/>
<path d="M38 45h2v4h-1v2h1v-1h2v1h-1v2h-1v1h-1v2h-1v1h-1v1h-1v-1h-1v-1h-1v1h-1v-2h-1v-1
	h-3v-1h-3v-1h2v-1h4v-1h2v-1h2v-2h1v-1h1v-1z" fill="rgb(189,115,90)"/>
<path d="M41 45h1v1h-1v-1z" fill="rgb(16,16,16)"/>
<path d="M46 45h2v2h1v1h1v1h-2v-1h-1v-1h-1v-2z" fill="rgb(189,74,41)"/>
<path d="M48 45h1v2h-1v-2z" fill="rgb(115,32,0)"/>
<path d="M49 45h1v1h-1v-1z" fill="rgb(222,115,41)"/>
<path d="M57 45h1v1h-1v-1z" fill="rgb(189,74,41)"/>
<path d="M58 45h1v1h-1v-1z" fill="rgb(222,115,41)"/>
<path d="M62 45h1v1h-1v-1z" fill="rgb(222,115,41)"/>
<path d="M63 45h1v1h-1v-1z" fill="rgb(189,74,41)"/>
<path d="M64 45h1v1h-1v-1z" fill="rgb(222,115,41)"/>
<path d="M65 45h1v1h-1v-1z" fill="rgb(189,74,41)"/>
<path d="M66 45h2v1h-2v-1z" fill="rgb(115,32,0)"/>
<path d="M20 46h1v1h-1v-1z" fill="rgb(115,32,0)"/>
<path d="M21 46h2v1h-2v-1z" fill="rgb(16,16,16)"/>
<path d="M23 46h1v1h-1v-1z" fill="rgb(90,49,0)"/>
<path d="M28 46h2v1h-2v-1z" fill="rgb(90,49,0)"/>
<path d="M32 46h1v1h-1v-1z" fill="rgb(90,49,0)"/>
<path d="M40 46h1v3h-1v-3z" fill="rgb(16,16,16)"/>
<path d="M53 46h1v3h-1v-3z" fill="rgb(115,32,0)"/>
<path d="M57 46h1v1h-1v-1z" fill="rgb(222,115,41)"/>
<path d="M62 46h1v1h1v-1h1v2h1v1h-2v1h-1v1h-1v1h-2v1h-2v-1h1v-1h1v-2h1v-2h1v-1z" fill="rgb(189,74,41)"/>
<path d="M63 46h1v1h-1v-1z" fill="rgb(222,115,41)"/>
<path d="M65 46h1v2h-1v-2z" fill="rgb(115,32,0)"/>
<path d="M68 46h1v1h-1v-1z" fill="rgb(115,32,0)"/>
<path d="M20 47h1v2h-1v-2z" fill="rgb(16,16,16)"/>
<path d="M22 47h1v1h-1v-1z" fill="rgb(90,49,0)"/>
<path d="M29 47h1v1h-1v-1z" fill="rgb(189,115,90)"/>
<path d="M30 47h2v1h-2v-1z" fill="rgb(90,49,0)"/>
<path d="M32 47h1v1h-1v-1z" fill="rgb(16,16,16)"/>
<path d="M46 47h1v1h-1v-1z" fill="rgb(115,32,0)"/>
<path d="M49 47h1v1h-1v-1z" fill="rgb(115,32,0)"/>
<path d="M60 47h1v2h-1v-2z" fill="rgb(115,32,0)"/>
<path d="M71 47h1v2h-1v-2z" fill="rgb(115,32,0)"/>
<path d="M47 48h1v1h-1v-1z" fill="rgb(115,32,0)"/>
<path d="M50 48h1v1h2v1h-5v-1h2v-1z" fill="rgb(115,32,0)"/>
<path d="M66 48h3v1h-3v-1z" fill="rgb(115,32,0)"/>
<path d="M21 49h1v1h-1v-1z" fill="rgb(16,16,16)"/>
<path d="M39 49h1v2h-1v-2z" fill="rgb(16,16,16)"/>
<path d="M40 49h2v1h-2v-1z" fill="rgb(115,32,0)"/>
<path d="M53 49h1v1h-1v-1z" fill="rgb(16,16,16)"/>
<path d="M55 49h1v1h-1v-1z" fill="rgb(115,32,0)"/>
<path d="M59 49h1v2h-1v-2z" fill="rgb(115,32,0)"/>
<path d="M64 49h2v1h-2v-1z" fill="rgb(115,32,0)"/>
<path d="M66 49h3v1h2v2h1v3h-1v2h-1v1h-4v-1h-1v-3h-1v1h-2v1h-3v-2h1v-1h2v-1h1v-1h1v-1h2
	v-1z" fill="rgb(189,74,41)"/>
<path d="M69 49h2v1h-2v-1z" fill="rgb(115,32,0)"/>
<path d="M22 50h1v1h-1v-1z" fill="rgb(16,16,16)"/>
<path d="M23 50h1v1h-1v-1z" fill="rgb(189,115,90)"/>
<path d="M42 50h6v1h-6v-1z" fill="rgb(115,32,0)"/>
<path d="M48 50h1v1h-1v-1z" fill="rgb(189,115,90)"/>
<path d="M49 50h4v1h2v1h1v1h1v2h1v3h-1v1h-1v1h-1v1h-2v1h-3v-2h-1v-1h-2v-1h-1v1h-1v9h-2v1
	h-1v-1h-1v-3h-1v-3h-1v-2h-1v-1h-1v-2h1v-1h1v-2h1v-1h1v-2h8v-1z" fill="rgb(230,148,106)"/>
<path d="M53 50h1v1h-1v-1z" fill="rgb(189,115,90)"/>
<path d="M54 50h2v1h-2v-1z" fill="rgb(16,16,16)"/>
<path d="M63 50h1v1h-1v-1z" fill="rgb(115,32,0)"/>
<path d="M71 50h1v2h-1v-2z" fill="rgb(115,32,0)"/>
<path d="M23 51h1v1h-1v-1z" fill="rgb(16,16,16)"/>
<path d="M24 51h2v1h-2v-1z" fill="rgb(189,115,90)"/>
<path d="M26 51h2v1h-2v-1z" fill="rgb(90,49,0)"/>
<path d="M55 51h1v1h-1v-1z" fill="rgb(189,115,90)"/>
<path d="M56 51h1v1h-1v-1z" fill="rgb(16,16,16)"/>
<path d="M58 51h1v1h-1v-1z" fill="rgb(115,32,0)"/>
<path d="M62 51h1v1h-1v-1z" fill="rgb(115,32,0)"/>
<path d="M24 52h2v1h-2v-1z" fill="rgb(16,16,16)"/>
<path d="M56 52h1v1h-1v-1z" fill="rgb(189,115,90)"/>
<path d="M57 52h1v2h-1v-2z" fill="rgb(16,16,16)"/>
<path d="M60 52h2v1h-2v-1z" fill="rgb(115,32,0)"/>
<path d="M66 52h2v1h-2v-1z" fill="rgb(115,32,0)"/>
<path d="M72 52h1v3h-1v-3z" fill="rgb(115,32,0)"/>
<path d="M26 53h3v1h-3v-1z" fill="rgb(16,16,16)"/>
<path d="M58 53h2v1h-2v-1z" fill="rgb(115,32,0)"/>
<path d="M65 53h1v1h-1v-1z" fill="rgb(115,32,0)"/>
<path d="M68 53h1v1h-1v-1z" fill="rgb(115,32,0)"/>
<path d="M29 54h3v1h-3v-1z" fill="rgb(16,16,16)"/>
<path d="M57 54h1v1h-1v-1z" fill="rgb(189,115,90)"/>
<path d="M58 54h1v2h3v1h-3v2h-1v-5z" fill="rgb(16,16,16)"/>
<path d="M64 54h1v3h-1v-1h-2v-1h2v-1z" fill="rgb(16,16,16)"/>
<path d="M32 55h1v4h-1v-4z" fill="rgb(16,16,16)"/>
<path d="M71 55h1v2h-1v-2z" fill="rgb(115,32,0)"/>
<path d="M34 56h1v1h1v1h1v2h-3v-1h-1v-2h1v-1z" fill="rgb(255,230,180)"/>
<path d="M65 57h1v1h-1v-1z" fill="rgb(16,16,16)"/>
<path d="M70 57h1v1h-1v-1z" fill="rgb(16,16,16)"/>
<path d="M46 58h1v1h1v2h-3v-2h1v-1z" fill="rgb(189,115,90)"/>
<path d="M57 58h1v1h-1v-1z" fill="rgb(189,115,90)"/>
<path d="M66 58h4v1h-4v-1z" fill="rgb(16,16,16)"/>
<path d="M33 59h1v2h-1v-2z" fill="rgb(16,16,16)"/>
<path d="M37 59h1v1h-1v-1z" fill="rgb(189,115,90)"/>
<path d="M48 59h1v2h-1v-2z" fill="rgb(115,32,0)"/>
<path d="M56 59h1v2h1v2h1v3h-1v1h-1v-1h-1v1h-1v-2h-2v-1h-2v-1h-1v-1h3v-1h2v-1h1v-1z" fill="rgb(189,115,90)"/>
<path d="M57 59h1v2h-1v-2z" fill="rgb(16,16,16)"/>
<path d="M34 60h1v1h-1v-1z" fill="rgb(189,115,90)"/>
<path d="M35 60h2v1h1v1h1v1h-2v-1h-1v-1h-1v-1z" fill="rgb(255,222,148)"/>
<path d="M37 60h1v1h-1v-1z" fill="rgb(255,230,180)"/>
<path d="M38 60h1v1h-1v-1z" fill="rgb(189,115,90)"/>
<path d="M49 60h1v1h-1v-1z" fill="rgb(189,115,90)"/>
<path d="M34 61h1v2h-1v-2z" fill="rgb(16,16,16)"/>
<path d="M35 61h1v1h1v1h2v2h1v2h-2v-1h-1v-1h-1v-2h-1v-2z" fill="rgb(189,115,90)"/>
<path d="M38 61h1v1h-1v-1z" fill="rgb(16,16,16)"/>
<path d="M45 61h1v2h2v1h-2v5h3v1h-3v2h-1v-11z" fill="rgb(16,16,16)"/>
<path d="M46 61h3v1h-1v1h-2v-2z" fill="rgb(255,222,148)"/>
<path d="M49 61h1v1h-1v-1z" fill="rgb(115,32,0)"/>
<path d="M58 61h1v2h-1v-2z" fill="rgb(16,16,16)"/>
<path d="M39 62h1v3h-1v-3z" fill="rgb(16,16,16)"/>
<path d="M48 62h2v1h-2v-1z" fill="rgb(16,16,16)"/>
<path d="M35 63h1v2h-1v-2z" fill="rgb(115,32,0)"/>
<path d="M48 63h2v2h-1v-1h-1v-1z" fill="rgb(189,115,90)"/>
<path d="M50 63h1v1h-1v-1z" fill="rgb(16,16,16)"/>
<path d="M59 63h1v5h-1v-5z" fill="rgb(16,16,16)"/>
<path d="M46 64h1v2h-1v-2z" fill="transparent"/>
<path d="M47 64h1v1h-1v-1z" fill="rgb(115,32,0)"/>
<path d="M48 64h1v1h1v-1h1v3h-1v1h-1v1h-1v-1h-1v1h-1v-2h1v-1h1v-2z" fill="rgb(131,82,49)"/>
<path d="M51 64h2v1h-2v-1z" fill="rgb(16,16,16)"/>
<path d="M36 65h1v1h-1v-1z" fill="rgb(115,32,0)"/>
<path d="M40 65h1v5h-1v-5z" fill="rgb(16,16,16)"/>
<path d="M47 65h1v1h-1v-1z" fill="rgb(90,49,0)"/>
<path d="M51 65h1v2h-1v-2z" fill="rgb(90,49,0)"/>
<path d="M53 65h2v1h-2v-1z" fill="rgb(16,16,16)"/>
<path d="M36 66h1v2h-1v-2z" fill="rgb(90,49,0)"/>
<path d="M37 66h1v1h2v3h-1v1h-1v-3h-1v-2z" fill="rgb(131,82,49)"/>
<path d="M46 66h1v1h-1v-1z" fill="rgb(90,49,0)"/>
<path d="M54 66h1v3h-1v-3z" fill="rgb(90,49,0)"/>
<path d="M56 66h1v1h1v-1h1v2h-1v2h-1v-1h-1v-1h-1v-1h1v-1z" fill="rgb(131,82,49)"/>
<path d="M50 67h1v1h-1v-1z" fill="rgb(16,16,16)"/>
<path d="M35 68h1v2h-1v-2z" fill="rgb(90,49,0)"/>
<path d="M36 68h2v1h-1v1h-1v-2z" fill="rgb(164,115,65)"/>
<path d="M41 68h1v1h1v-1h2v4h-1v1h-1v-2h-1v-1h-1v-2z" fill="rgb(131,82,49)"/>
<path d="M47 68h1v1h-1v-1z" fill="rgb(90,49,0)"/>
<path d="M49 68h1v1h-1v-1z" fill="rgb(16,16,16)"/>
<path d="M55 68h1v1h1v1h-3v-1h1v-1z" fill="rgb(164,115,65)"/>
<path d="M58 68h1v2h-1v-2z" fill="rgb(16,16,16)"/>
<path d="M37 69h1v2h-1v-2z" fill="rgb(90,49,0)"/>
<path d="M53 69h1v2h-1v-2z" fill="rgb(90,49,0)"/>
<path d="M35 70h1v1h-1v-1z" fill="rgb(16,16,16)"/>
<path d="M36 70h1v1h-1v-1z" fill="rgb(131,82,49)"/>
<path d="M39 70h1v3h-1v-1h-3v-1h3v-1z" fill="rgb(16,16,16)"/>
<path d="M40 70h2v1h-1v1h-1v-2z" fill="rgb(164,115,65)"/>
<path d="M54 70h1v1h-1v-1z" fill="rgb(131,82,49)"/>
<path d="M55 70h1v1h-1v-1z" fill="rgb(90,49,0)"/>
<path d="M56 70h1v1h-1v-1z" fill="rgb(131,82,49)"/>
<path d="M57 70h1v1h-1v-1z" fill="rgb(16,16,16)"/>
<path d="M41 71h1v2h-2v-1h1v-1z" fill="rgb(131,82,49)"/>
<path d="M42 71h1v2h-1v-2z" fill="rgb(90,49,0)"/>
<path d="M54 71h3v1h-3v-1z" fill="rgb(16,16,16)"/>
<path d="M44 72h1v1h-1v-1z" fill="rgb(16,16,16)"/>
<path d="M40 73h4v1h-4v-1z" fill="rgb(16,16,16)"/>
</svg>
