<?xml version="1.0" encoding="utf-8"?>
<!-- generated at drububu.com  -->
<!DOCTYPE svg PUBLIC "-//W3C//DTD SVG 1.1//EN" "http://www.w3.org/Graphics/SVG/1.1/DTD/svg11.dtd">
<svg version="1.1" preserveAspectRatio="xMinYMin meet" xmlns="http://www.w3.org/2000/svg" xmlns:xlink="http://www.w3.org/1999/xlink" x="0px" y="0px" width="96px" height="96px" viewBox="0 0 96 96">
<path d="M0 0h96v96h-96v-96z" fill="transparent"/>
<path d="M79 15h1v1h-1v-1z" fill="rgb(131,98,24)"/>
<path d="M80 15h1v2h-1v-2z" fill="rgb(16,16,16)"/>
<path d="M77 16h2v1h-2v-1z" fill="rgb(131,98,24)"/>
<path d="M79 16h1v1h-1v-1z" fill="rgb(230,197,82)"/>
<path d="M75 17h2v1h-2v-1z" fill="rgb(131,98,24)"/>
<path d="M77 17h2v1h-1v1h-1v1h-1v1h-1v2h1v2h-1v1h-2v1h-2v-1h-2v-1h-1v-1h-1v-1h-1v-1h-1v1
	h-1v3h-2v1h-1v-2h1v-2h1v-1h1v-1h2v-1h6v-1h3v-1h2v-1z" fill="rgb(246,230,123)"/>
<path d="M79 17h1v2h-1v-2z" fill="rgb(16,16,16)"/>
<path d="M72 18h3v1h-3v-1z" fill="rgb(131,98,24)"/>
<path d="M78 18h1v1h-1v-1z" fill="rgb(230,197,82)"/>
<path d="M66 19h6v1h-6v-1z" fill="rgb(131,98,24)"/>
<path d="M77 19h1v2h-1v1h-2v-1h1v-1h1v-1z" fill="rgb(230,197,82)"/>
<path d="M78 19h1v2h-1v-2z" fill="rgb(16,16,16)"/>
<path d="M30 20h5v1h-5v-1z" fill="rgb(131,98,24)"/>
<path d="M42 20h5v1h-5v-1z" fill="rgb(131,98,24)"/>
<path d="M64 20h2v1h-2v-1z" fill="rgb(131,98,24)"/>
<path d="M28 21h2v1h-2v-1z" fill="rgb(131,98,24)"/>
<path d="M30 21h4v1h3v1h3v1h1v1h1v2h1v2h-1v-1h-1v1h-1v1h1v1h-3v1h-1v1h-2v1h-6v-1h-3v-1
	h-2v-1h-1v-4h1v-2h1v-1h1v-1h2v-1h2v-1z" fill="rgb(246,230,123)"/>
<path d="M34 21h1v1h-1v-1z" fill="rgb(230,197,82)"/>
<path d="M35 21h3v1h-3v-1z" fill="rgb(131,98,24)"/>
<path d="M40 21h2v1h-2v-1z" fill="rgb(131,98,24)"/>
<path d="M42 21h5v1h2v1h1v1h1v1h1v2h1v3h-1v-1h-1v1h-1v-1h-1v1h-3v-1h-1v-1h-1v-1h-1v-2h-1
	v-1h-1v-1h-1v-1h2v-1z" fill="rgb(246,230,123)"/>
<path d="M47 21h2v1h-2v-1z" fill="rgb(131,98,24)"/>
<path d="M63 21h1v1h-1v-1z" fill="rgb(131,98,24)"/>
<path d="M77 21h1v1h-1v-1z" fill="rgb(16,16,16)"/>
<path d="M26 22h2v1h-2v-1z" fill="rgb(131,98,24)"/>
<path d="M37 22h1v1h-1v-1z" fill="rgb(230,197,82)"/>
<path d="M38 22h2v1h-2v-1z" fill="rgb(131,98,24)"/>
<path d="M49 22h1v1h-1v-1z" fill="rgb(131,98,24)"/>
<path d="M62 22h1v1h-1v-1z" fill="rgb(131,98,24)"/>
<path d="M65 22h1v1h-1v-1z" fill="rgb(16,16,16)"/>
<path d="M75 22h5v1h-5v-1z" fill="rgb(131,98,24)"/>
<path d="M25 23h1v1h-1v-1z" fill="rgb(131,98,24)"/>
<path d="M40 23h1v1h-1v-1z" fill="rgb(131,98,24)"/>
<path d="M50 23h1v1h-1v-1z" fill="rgb(131,98,24)"/>
<path d="M61 23h1v2h-1v-2z" fill="rgb(131,98,24)"/>
<path d="M64 23h1v6h-3v-1h2v-5z" fill="rgb(16,16,16)"/>
<path d="M65 23h1v2h-1v-2z" fill="rgb(246,230,123)"/>
<path d="M66 23h1v1h-1v-1z" fill="rgb(16,16,16)"/>
<path d="M76 23h4v1h2v1h2v2h1v2h-1v-1h-1v-1h-2v-1h-4v1h-1v1h1v2h1v2h-1v-1h-1v-1h-5v1h-1
	v-2h-1v-3h2v1h2v-1h2v-1h1v-2z" fill="rgb(230,197,82)"/>
<path d="M80 23h2v1h-2v-1z" fill="rgb(131,98,24)"/>
<path d="M24 24h1v1h-1v-1z" fill="rgb(16,16,16)"/>
<path d="M41 24h1v1h-1v-1z" fill="rgb(131,98,24)"/>
<path d="M51 24h1v1h-1v-1z" fill="rgb(131,98,24)"/>
<path d="M66 24h1v1h-1v-1z" fill="rgb(230,197,82)"/>
<path d="M67 24h1v2h-1v-2z" fill="rgb(16,16,16)"/>
<path d="M82 24h2v1h-2v-1z" fill="rgb(131,98,24)"/>
<path d="M23 25h1v2h-1v-2z" fill="rgb(16,16,16)"/>
<path d="M42 25h1v2h-1v-2z" fill="rgb(131,98,24)"/>
<path d="M52 25h1v2h-1v-2z" fill="rgb(131,98,24)"/>
<path d="M57 25h2v1h-1v2h-1v-3z" fill="rgb(16,16,16)"/>
<path d="M60 25h1v3h-1v-3z" fill="rgb(131,98,24)"/>
<path d="M65 25h1v1h-1v-1z" fill="rgb(131,98,24)"/>
<path d="M66 25h1v1h-1v-1z" fill="rgb(246,230,123)"/>
<path d="M68 25h1v1h-1v-1z" fill="rgb(230,197,82)"/>
<path d="M84 25h1v2h-1v-2z" fill="rgb(131,98,24)"/>
<path d="M58 26h1v1h1v3h-1v-2h-1v-2z" fill="rgb(246,230,123)"/>
<path d="M59 26h1v1h-1v-1z" fill="rgb(16,16,16)"/>
<path d="M62 26h2v2h-3v-1h1v-1z" fill="rgb(230,197,82)"/>
<path d="M65 26h1v2h1v2h-1v-1h-1v-3z" fill="rgb(230,197,82)"/>
<path d="M66 26h1v2h-1v-2z" fill="rgb(131,98,24)"/>
<path d="M67 26h1v1h-1v-1z" fill="rgb(230,197,82)"/>
<path d="M68 26h1v3h-1v-3z" fill="rgb(16,16,16)"/>
<path d="M77 26h4v1h-4v-1z" fill="rgb(16,16,16)"/>
<path d="M22 27h1v3h-1v-3z" fill="rgb(16,16,16)"/>
<path d="M43 27h1v3h-1v-3z" fill="rgb(131,98,24)"/>
<path d="M53 27h1v2h-1v-2z" fill="rgb(131,98,24)"/>
<path d="M67 27h1v1h-1v-1z" fill="rgb(246,230,123)"/>
<path d="M76 27h3v1h1v2h1v1h-2v-1h-1v-1h-1v-1h-1v-1z" fill="rgb(205,156,74)"/>
<path d="M79 27h1v1h-1v-1z" fill="rgb(131,98,24)"/>
<path d="M80 27h1v1h-1v-1z" fill="transparent"/>
<path d="M81 27h2v1h-2v-1z" fill="rgb(16,16,16)"/>
<path d="M85 27h1v3h-1v-3z" fill="rgb(131,98,24)"/>
<path d="M41 28h1v1h-1v-1z" fill="rgb(230,197,82)"/>
<path d="M44 28h1v1h1v1h3v1h1v-1h1v1h1v1h1v1h1v1h-2v3h1v3h-1v2h-1v2h-1v1h-1v1h-1v2h-1v1
	h-1v1h-3v-1h-1v-5h1v-3h1v-4h1v-7h-1v-2z" fill="rgb(230,197,82)"/>
<path d="M58 28h1v2h-1v-2z" fill="rgb(16,16,16)"/>
<path d="M60 28h1v1h-1v-1z" fill="rgb(230,197,82)"/>
<path d="M61 28h1v1h-1v-1z" fill="rgb(131,98,24)"/>
<path d="M67 28h1v4h-1v-1h-1v-1h1v-2z" fill="rgb(131,98,24)"/>
<path d="M80 28h1v2h-1v-2z" fill="rgb(131,98,24)"/>
<path d="M83 28h1v1h-1v-1z" fill="rgb(16,16,16)"/>
<path d="M40 29h1v1h-1v-1z" fill="rgb(230,197,82)"/>
<path d="M41 29h1v1h-1v-1z" fill="rgb(246,230,123)"/>
<path d="M42 29h1v1h-1v-1z" fill="rgb(230,197,82)"/>
<path d="M49 29h1v1h-1v-1z" fill="rgb(230,197,82)"/>
<path d="M51 29h1v1h-1v-1z" fill="rgb(230,197,82)"/>
<path d="M53 29h1v1h-1v-1z" fill="rgb(230,197,82)"/>
<path d="M54 29h1v1h1v1h-1v2h-1v-4z" fill="rgb(131,98,24)"/>
<path d="M60 29h2v1h-2v-1z" fill="rgb(16,16,16)"/>
<path d="M62 29h3v2h-4v1h-1v2h2v1h-1v1h-1v1h-5v-1h-1v-2h3v-1h2v-2h1v-1h2v-1z" fill="rgb(246,230,123)"/>
<path d="M65 29h1v1h-1v-1z" fill="rgb(131,98,24)"/>
<path d="M68 29h1v1h-1v-1z" fill="rgb(230,197,82)"/>
<path d="M69 29h1v2h1v1h-1v1h-1v-4z" fill="rgb(16,16,16)"/>
<path d="M77 29h1v1h-1v-1z" fill="rgb(131,98,24)"/>
<path d="M84 29h1v1h-1v-1z" fill="rgb(16,16,16)"/>
<path d="M21 30h1v3h-1v-3z" fill="rgb(16,16,16)"/>
<path d="M22 30h1v1h1v1h2v1h-4v-3z" fill="rgb(230,197,82)"/>
<path d="M41 30h1v1h-1v-1z" fill="rgb(230,197,82)"/>
<path d="M42 30h1v1h-1v-1z" fill="rgb(246,230,123)"/>
<path d="M43 30h1v1h-1v-1z" fill="rgb(230,197,82)"/>
<path d="M44 30h1v7h-1v-7z" fill="rgb(131,98,24)"/>
<path d="M49 30h1v1h-1v-1z" fill="rgb(246,230,123)"/>
<path d="M51 30h1v1h-1v-1z" fill="rgb(246,230,123)"/>
<path d="M52 30h1v1h-1v-1z" fill="rgb(230,197,82)"/>
<path d="M53 30h1v1h-1v-1z" fill="rgb(246,230,123)"/>
<path d="M59 30h1v1h-1v-1z" fill="rgb(16,16,16)"/>
<path d="M65 30h1v1h1v1h2v1h1v2h1v2h1v2h1v3h1v4h1v6h-1v1h-1v2h-1v2h-1v1h-1v1h-1v1h-2v-2
	h-2v-1h-1v-2h-2v-2h-2v-3h1v1h1v1h1v2h1v-2h1v1h1v1h1v-1h1v2h1v-1h1v-2h1v-2h1v-3
	h-1v-2h-1v1h-1v-1h-1v-1h-2v-1h1v-1h-1v-1h-1v-1h-1v1h-2v-1h-3v-1h-3v-1h5v-1h1v-1
	h-1v-1h1v-1h1v-1h1v-2h1v-1z" fill="rgb(230,197,82)"/>
<path d="M68 30h1v2h-1v-2z" fill="rgb(246,230,123)"/>
<path d="M71 30h3v1h-3v-1z" fill="rgb(16,16,16)"/>
<path d="M74 30h2v1h1v1h1v1h1v5h-1v-3h-1v-2h-1v-1h-1v-1h-1v-1z" fill="rgb(205,156,74)"/>
<path d="M78 30h1v1h-1v-1z" fill="rgb(16,16,16)"/>
<path d="M81 30h1v1h-1v-1z" fill="rgb(131,98,24)"/>
<path d="M85 30h1v1h-1v-1z" fill="rgb(16,16,16)"/>
<path d="M38 31h3v1h1v1h1v-1h1v5h-1v4h-1v3h-1v5h-2v-1h-1v-1h-1v-3h-1v-2h-1v-2h-1v-2h-1
	v-1h-1v-1h-1v-1h-1v-1h5v-1h2v-1h1v-1z" fill="rgb(230,197,82)"/>
<path d="M41 31h1v1h-1v-1z" fill="rgb(246,230,123)"/>
<path d="M42 31h1v1h-1v-1z" fill="rgb(230,197,82)"/>
<path d="M43 31h1v1h-1v-1z" fill="rgb(246,230,123)"/>
<path d="M52 31h1v1h-1v-1z" fill="rgb(246,230,123)"/>
<path d="M53 31h1v1h-1v-1z" fill="rgb(230,197,82)"/>
<path d="M55 31h1v1h1v1h-2v-2z" fill="rgb(246,230,123)"/>
<path d="M56 31h1v1h-1v-1z" fill="rgb(131,98,24)"/>
<path d="M58 31h1v1h-1v-1z" fill="rgb(16,16,16)"/>
<path d="M61 31h1v1h-1v-1z" fill="rgb(230,197,82)"/>
<path d="M62 31h1v1h-1v-1z" fill="rgb(131,98,24)"/>
<path d="M63 31h1v1h-1v-1z" fill="rgb(16,16,16)"/>
<path d="M74 31h1v1h-1v-1z" fill="rgb(16,16,16)"/>
<path d="M78 31h1v2h-1v-2z" fill="rgb(131,98,24)"/>
<path d="M79 31h3v1h-3v-1z" fill="rgb(16,16,16)"/>
<path d="M42 32h1v1h-1v-1z" fill="rgb(246,230,123)"/>
<path d="M53 32h1v1h-1v-1z" fill="rgb(246,230,123)"/>
<path d="M57 32h1v1h-1v-1z" fill="rgb(16,16,16)"/>
<path d="M58 32h1v1h-1v-1z" fill="rgb(205,156,74)"/>
<path d="M60 32h1v1h-1v-1z" fill="rgb(230,197,82)"/>
<path d="M61 32h1v1h-1v-1z" fill="rgb(131,98,24)"/>
<path d="M62 32h1v1h-1v-1z" fill="rgb(255,255,255)"/>
<path d="M63 32h1v1h-1v-1z" fill="rgb(180,16,0)"/>
<path d="M75 32h1v1h-1v-1z" fill="rgb(16,16,16)"/>
<path d="M21 33h7v1h-7v-1z" fill="rgb(131,98,24)"/>
<path d="M28 33h1v1h-1v-1z" fill="rgb(230,197,82)"/>
<path d="M54 33h3v1h-3v-1z" fill="rgb(16,16,16)"/>
<path d="M60 33h1v1h-1v-1z" fill="rgb(131,98,24)"/>
<path d="M61 33h1v1h-1v-1z" fill="rgb(222,32,16)"/>
<path d="M62 33h1v1h-1v-1z" fill="rgb(255,106,41)"/>
<path d="M70 33h1v2h-1v-2z" fill="rgb(16,16,16)"/>
<path d="M76 33h1v2h-1v-2z" fill="rgb(16,16,16)"/>
<path d="M79 33h1v2h-1v-2z" fill="rgb(131,98,24)"/>
<path d="M19 34h2v1h-2v-1z" fill="rgb(131,98,24)"/>
<path d="M21 34h6v1h2v1h1v1h2v1h1v3h-1v1h1v1h-1v1h-1v1h1v1h-3v1h-5v-1h-2v-1h-1v-1h-1v-1
	h-1v3h-1v1h-1v-1h-1v-7h1v-2h1v-1h1v-1h2v-1z" fill="rgb(246,230,123)"/>
<path d="M27 34h1v1h-1v-1z" fill="rgb(230,197,82)"/>
<path d="M28 34h2v1h-2v-1z" fill="rgb(131,98,24)"/>
<path d="M52 34h2v1h-1v2h-1v-3z" fill="rgb(16,16,16)"/>
<path d="M18 35h1v1h-1v-1z" fill="rgb(131,98,24)"/>
<path d="M29 35h1v1h-1v-1z" fill="rgb(230,197,82)"/>
<path d="M30 35h1v1h-1v-1z" fill="rgb(131,98,24)"/>
<path d="M53 35h1v1h-1v-1z" fill="rgb(131,98,24)"/>
<path d="M71 35h1v2h-1v-2z" fill="rgb(16,16,16)"/>
<path d="M77 35h1v3h-1v-3z" fill="rgb(16,16,16)"/>
<path d="M79 35h1v3h-1v-3z" fill="rgb(16,16,16)"/>
<path d="M17 36h1v1h-1v-1z" fill="rgb(131,98,24)"/>
<path d="M30 36h1v1h-1v-1z" fill="rgb(230,197,82)"/>
<path d="M31 36h1v1h-1v-1z" fill="rgb(131,98,24)"/>
<path d="M53 36h2v2h-1v-1h-1v-1z" fill="rgb(230,197,82)"/>
<path d="M60 36h1v1h-1v-1z" fill="rgb(230,197,82)"/>
<path d="M61 36h1v1h-1v-1z" fill="rgb(131,98,24)"/>
<path d="M16 37h1v2h-1v-2z" fill="rgb(131,98,24)"/>
<path d="M32 37h1v1h-1v-1z" fill="rgb(131,98,24)"/>
<path d="M43 37h1v4h-1v-4z" fill="rgb(131,98,24)"/>
<path d="M53 37h1v1h-1v-1z" fill="rgb(16,16,16)"/>
<path d="M55 37h1v1h-1v-1z" fill="rgb(205,156,74)"/>
<path d="M56 37h5v1h-5v-1z" fill="rgb(131,98,24)"/>
<path d="M72 37h1v2h-1v-2z" fill="rgb(16,16,16)"/>
<path d="M33 38h1v2h-1v-2z" fill="rgb(131,98,24)"/>
<path d="M53 38h1v2h-1v-2z" fill="rgb(131,98,24)"/>
<path d="M54 38h1v1h-1v-1z" fill="rgb(16,16,16)"/>
<path d="M55 38h1v1h-1v-1z" fill="rgb(131,98,24)"/>
<path d="M78 38h1v2h-1v-2z" fill="rgb(16,16,16)"/>
<path d="M15 39h1v4h-1v-4z" fill="rgb(131,98,24)"/>
<path d="M54 39h1v2h1v1h2v2h-1v2h-1v1h-1v2h-1v1h-1v1h-2v1h-1v-1h-1v-4h1v-2h1v-1h1v-2h1
	v-2h1v-1z" fill="rgb(230,197,82)"/>
<path d="M55 39h4v1h-4v-1z" fill="rgb(16,16,16)"/>
<path d="M73 39h1v3h-1v-3z" fill="rgb(16,16,16)"/>
<path d="M33 40h1v1h-1v-1z" fill="rgb(230,197,82)"/>
<path d="M34 40h1v2h-1v-2z" fill="rgb(131,98,24)"/>
<path d="M52 40h1v2h-1v-2z" fill="rgb(131,98,24)"/>
<path d="M55 40h3v2h-2v-1h-1v-1z" fill="rgb(246,230,123)"/>
<path d="M58 40h1v2h1v1h-1v1h-1v-4z" fill="rgb(131,98,24)"/>
<path d="M59 40h3v1h-3v-1z" fill="rgb(16,16,16)"/>
<path d="M64 40h1v1h-1v-1z" fill="rgb(246,230,123)"/>
<path d="M32 41h1v1h-1v-1z" fill="rgb(230,197,82)"/>
<path d="M33 41h1v1h-1v-1z" fill="rgb(246,230,123)"/>
<path d="M42 41h1v3h-1v-3z" fill="rgb(131,98,24)"/>
<path d="M59 41h3v2h-2v-1h-1v-1z" fill="transparent"/>
<path d="M62 41h1v5h-1v-5z" fill="rgb(16,16,16)"/>
<path d="M63 41h1v1h-1v-1z" fill="rgb(246,230,123)"/>
<path d="M64 41h1v1h-1v-1z" fill="rgb(230,197,82)"/>
<path d="M65 41h1v1h-1v-1z" fill="rgb(246,230,123)"/>
<path d="M33 42h1v1h-1v-1z" fill="rgb(230,197,82)"/>
<path d="M34 42h1v1h-1v-1z" fill="rgb(246,230,123)"/>
<path d="M35 42h1v2h-1v-2z" fill="rgb(131,98,24)"/>
<path d="M51 42h1v2h-1v-2z" fill="rgb(131,98,24)"/>
<path d="M63 42h1v1h-1v-1z" fill="rgb(230,197,82)"/>
<path d="M64 42h1v1h-1v-1z" fill="rgb(246,230,123)"/>
<path d="M65 42h1v1h-1v-1z" fill="rgb(230,197,82)"/>
<path d="M66 42h1v1h-1v-1z" fill="rgb(246,230,123)"/>
<path d="M74 42h1v4h-1v-4z" fill="rgb(16,16,16)"/>
<path d="M15 43h1v4h-1v-4z" fill="rgb(16,16,16)"/>
<path d="M19 43h1v2h-1v-2z" fill="rgb(131,98,24)"/>
<path d="M32 43h1v1h-1v-1z" fill="rgb(230,197,82)"/>
<path d="M33 43h1v1h-1v-1z" fill="rgb(246,230,123)"/>
<path d="M34 43h1v1h-1v-1z" fill="rgb(230,197,82)"/>
<path d="M59 43h1v1h2v2h-3v-1h-1v-1h1v-1z" fill="rgb(246,230,123)"/>
<path d="M60 43h2v1h-2v-1z" fill="rgb(131,98,24)"/>
<path d="M63 43h1v1h-1v-1z" fill="rgb(246,230,123)"/>
<path d="M64 43h1v1h-1v-1z" fill="rgb(230,197,82)"/>
<path d="M65 43h1v1h-1v-1z" fill="rgb(246,230,123)"/>
<path d="M20 44h1v1h-1v-1z" fill="rgb(230,197,82)"/>
<path d="M31 44h1v1h-1v-1z" fill="rgb(230,197,82)"/>
<path d="M32 44h1v1h-1v-1z" fill="rgb(246,230,123)"/>
<path d="M33 44h1v1h-1v-1z" fill="rgb(230,197,82)"/>
<path d="M34 44h1v1h-1v-1z" fill="rgb(246,230,123)"/>
<path d="M35 44h1v1h-1v-1z" fill="rgb(230,197,82)"/>
<path d="M36 44h1v3h-1v-3z" fill="rgb(131,98,24)"/>
<path d="M41 44h1v10h-1v-10z" fill="rgb(131,98,24)"/>
<path d="M50 44h1v1h-1v-1z" fill="rgb(131,98,24)"/>
<path d="M57 44h1v2h-1v-2z" fill="rgb(131,98,24)"/>
<path d="M63 44h1v1h-1v-1z" fill="rgb(230,197,82)"/>
<path d="M64 44h1v1h1v-1h2v1h1v1h1v-1h1v2h1v3h-1v2h-1v2h-1v1h-1v-2h-1v1h-1v-1h-1v-1h-1v2
	h-1v-2h-1v-1h-1v-1h1v-3h1v-2h1v-1z" fill="rgb(246,230,123)"/>
<path d="M65 44h1v1h-1v-1z" fill="rgb(230,197,82)"/>
<path d="M19 45h1v3h1v2h1v2h1v1h1v1h-3v-1h-1v-1h-1v-1h-1v-2h-1v-2h1v-1h1v-1z" fill="rgb(230,197,82)"/>
<path d="M20 45h1v3h-1v-3z" fill="rgb(131,98,24)"/>
<path d="M21 45h1v1h2v1h5v-1h3v-1h1v1h1v1h1v-1h1v2h1v6h-1v2h-2v1h-3v-1h-2v-1h-3v-1h-1v-1
	h-1v-1h-1v-2h-1v-2h-1v-3z" fill="rgb(230,197,82)"/>
<path d="M33 45h1v1h-1v-1z" fill="rgb(246,230,123)"/>
<path d="M34 45h1v1h-1v-1z" fill="rgb(230,197,82)"/>
<path d="M35 45h1v1h-1v-1z" fill="rgb(246,230,123)"/>
<path d="M49 45h1v2h-1v-2z" fill="rgb(131,98,24)"/>
<path d="M58 45h1v1h2v2h-1v2h-1v3h-2v1h-1v1h-2v-1h-1v-2h1v-2h1v-1h1v-2h1v-1h1v-1z" fill="rgb(230,197,82)"/>
<path d="M16 46h1v1h-1v-1z" fill="rgb(230,197,82)"/>
<path d="M34 46h1v1h-1v-1z" fill="rgb(246,230,123)"/>
<path d="M48 46h1v1h-1v-1z" fill="rgb(205,156,74)"/>
<path d="M56 46h1v1h-1v-1z" fill="rgb(131,98,24)"/>
<path d="M61 46h1v2h-1v-2z" fill="rgb(16,16,16)"/>
<path d="M62 46h1v1h-1v-1z" fill="rgb(230,197,82)"/>
<path d="M75 46h1v8h-1v-8z" fill="rgb(16,16,16)"/>
<path d="M16 47h1v2h-1v-2z" fill="rgb(16,16,16)"/>
<path d="M36 47h1v1h-1v-1z" fill="rgb(205,156,74)"/>
<path d="M37 47h1v4h-1v-4z" fill="rgb(131,98,24)"/>
<path d="M48 47h1v3h-1v-3z" fill="rgb(131,98,24)"/>
<path d="M55 47h1v2h-1v-2z" fill="rgb(131,98,24)"/>
<path d="M21 48h1v2h-1v-2z" fill="rgb(131,98,24)"/>
<path d="M38 48h1v1h2v5h1v5h1v2h-1v-1h-1v-2h-1v-2h-1v-5h-1v-3z" fill="rgb(205,156,74)"/>
<path d="M47 48h1v2h-1v4h-1v8h-1v-1h-1v-2h-1v-5h-1v-5h1v1h3v-1h1v-1z" fill="rgb(205,156,74)"/>
<path d="M60 48h1v2h-1v-2z" fill="rgb(16,16,16)"/>
<path d="M61 48h1v2h-1v-2z" fill="rgb(230,197,82)"/>
<path d="M17 49h1v2h-1v-2z" fill="rgb(16,16,16)"/>
<path d="M54 49h1v1h-1v-1z" fill="rgb(131,98,24)"/>
<path d="M22 50h1v2h-1v-2z" fill="rgb(131,98,24)"/>
<path d="M47 50h1v4h-1v-4z" fill="rgb(131,98,24)"/>
<path d="M48 50h1v1h1v1h1v1h-1v2h-1v3h-1v4h-1v-8h1v-4z" fill="rgb(205,156,74)"/>
<path d="M53 50h1v1h-1v-1z" fill="rgb(131,98,24)"/>
<path d="M59 50h1v3h-1v-3z" fill="rgb(16,16,16)"/>
<path d="M18 51h1v1h-1v-1z" fill="rgb(16,16,16)"/>
<path d="M37 51h1v5h1v2h1v2h1v1h1v1h1v1h-2v-1h-2v-1h-2v-1h-2v-1h-2v-1h-1v-1h2v-1h2v-2h1
	v-3z" fill="rgb(205,156,74)"/>
<path d="M38 51h1v5h-1v-5z" fill="rgb(131,98,24)"/>
<path d="M51 51h1v1h-1v-1z" fill="rgb(205,156,74)"/>
<path d="M52 51h1v1h-1v-1z" fill="rgb(131,98,24)"/>
<path d="M53 51h1v1h-1v-1z" fill="rgb(205,156,74)"/>
<path d="M19 52h1v1h-1v-1z" fill="rgb(16,16,16)"/>
<path d="M23 52h1v1h-1v-1z" fill="rgb(131,98,24)"/>
<path d="M51 52h1v1h-1v-1z" fill="rgb(131,98,24)"/>
<path d="M52 52h1v2h1v1h2v-1h1v-1h1v2h-1v2h-1v2h-1v1h-1v1h-1v1h-2v1h-2v-5h1v-3h1v-2h1v-1
	z" fill="rgb(205,156,74)"/>
<path d="M74 52h1v1h-1v-1z" fill="rgb(205,156,74)"/>
<path d="M20 53h1v1h-1v-1z" fill="rgb(16,16,16)"/>
<path d="M24 53h1v1h1v1h-7v-1h5v-1z" fill="rgb(131,98,24)"/>
<path d="M50 53h1v2h-1v-2z" fill="rgb(131,98,24)"/>
<path d="M58 53h1v2h-1v-2z" fill="rgb(16,16,16)"/>
<path d="M59 53h1v1h-1v-1z" fill="rgb(205,156,74)"/>
<path d="M60 53h1v1h-1v-1z" fill="rgb(16,16,16)"/>
<path d="M61 53h1v1h-1v-1z" fill="rgb(205,156,74)"/>
<path d="M73 53h1v2h-1v-2z" fill="rgb(205,156,74)"/>
<path d="M74 53h1v1h-1v-1z" fill="rgb(131,98,24)"/>
<path d="M42 54h1v5h-1v-5z" fill="rgb(131,98,24)"/>
<path d="M46 54h1v8h-1v-8z" fill="rgb(131,98,24)"/>
<path d="M59 54h2v4h1v1h1v1h1v2h-1v2h-1v1h-1v-3h-1v-4h-1v3h-1v1h-2v-1h-1v-1h1v-1h1v-2h1
	v-2h1v-1z" fill="rgb(246,230,123)"/>
<path d="M61 54h1v1h-1v-1z" fill="rgb(131,98,24)"/>
<path d="M74 54h1v4h-1v-4z" fill="rgb(16,16,16)"/>
<path d="M17 55h2v1h-2v-1z" fill="rgb(131,98,24)"/>
<path d="M19 55h1v1h-1v-1z" fill="rgb(230,197,82)"/>
<path d="M20 55h6v2h1v1h-1v1h1v1h1v-1h1v1h1v1h-1v1h-3v1h-2v1h-2v1h-4v-1h-1v1h-1v-1h-1v-1
	h1v-1h-1v-1h-1v-1h1v-1h1v-2h2v-1h2v-1z" fill="rgb(246,230,123)"/>
<path d="M26 55h3v1h-3v-1z" fill="rgb(131,98,24)"/>
<path d="M49 55h1v3h-1v-3z" fill="rgb(131,98,24)"/>
<path d="M57 55h1v2h-1v-2z" fill="rgb(16,16,16)"/>
<path d="M61 55h1v2h-1v-2z" fill="rgb(16,16,16)"/>
<path d="M62 55h1v2h-1v-2z" fill="rgb(205,156,74)"/>
<path d="M63 55h1v1h-1v-1z" fill="rgb(131,98,24)"/>
<path d="M67 55h1v1h-1v-1z" fill="rgb(246,230,123)"/>
<path d="M72 55h1v1h-1v-1z" fill="rgb(205,156,74)"/>
<path d="M73 55h1v1h-1v-1z" fill="rgb(131,98,24)"/>
<path d="M16 56h1v1h-1v-1z" fill="rgb(131,98,24)"/>
<path d="M17 56h1v1h-1v-1z" fill="rgb(230,197,82)"/>
<path d="M26 56h1v1h-1v-1z" fill="rgb(230,197,82)"/>
<path d="M27 56h1v1h-1v-1z" fill="rgb(246,230,123)"/>
<path d="M28 56h1v1h-1v-1z" fill="rgb(230,197,82)"/>
<path d="M29 56h2v1h-2v-1z" fill="rgb(131,98,24)"/>
<path d="M39 56h1v2h-1v-2z" fill="rgb(131,98,24)"/>
<path d="M63 56h1v3h-1v-1h-1v-1h1v-1z" fill="rgb(16,16,16)"/>
<path d="M72 56h1v2h-1v-2z" fill="rgb(16,16,16)"/>
<path d="M73 56h1v2h-1v-2z" fill="rgb(205,156,74)"/>
<path d="M15 57h1v1h-1v-1z" fill="rgb(131,98,24)"/>
<path d="M27 57h1v1h-1v-1z" fill="rgb(230,197,82)"/>
<path d="M28 57h1v1h-1v-1z" fill="rgb(246,230,123)"/>
<path d="M29 57h2v1h1v1h1v1h1v1h1v1h1v1h-2v-1h-5v-1h1v-1h-1v-1h1v-1h-1v-1z" fill="rgb(230,197,82)"/>
<path d="M31 57h1v1h-1v-1z" fill="rgb(131,98,24)"/>
<path d="M56 57h1v2h-1v-2z" fill="rgb(16,16,16)"/>
<path d="M61 57h1v1h-1v-1z" fill="rgb(230,197,82)"/>
<path d="M64 57h1v1h1v2h-1v-1h-1v-2z" fill="rgb(205,156,74)"/>
<path d="M71 57h1v1h-1v-1z" fill="rgb(205,156,74)"/>
<path d="M14 58h1v1h-1v-1z" fill="rgb(131,98,24)"/>
<path d="M15 58h1v1h-1v-1z" fill="rgb(230,197,82)"/>
<path d="M26 58h1v1h-1v-1z" fill="rgb(230,197,82)"/>
<path d="M27 58h1v1h-1v-1z" fill="rgb(246,230,123)"/>
<path d="M28 58h1v1h-1v-1z" fill="rgb(230,197,82)"/>
<path d="M29 58h1v1h-1v-1z" fill="rgb(246,230,123)"/>
<path d="M32 58h1v1h-1v-1z" fill="rgb(131,98,24)"/>
<path d="M40 58h1v2h-1v-2z" fill="rgb(131,98,24)"/>
<path d="M48 58h1v6h-1v1h-1v-1h-1v-1h1v-1h1v-4z" fill="rgb(131,98,24)"/>
<path d="M59 58h1v4h-1v-4z" fill="rgb(131,98,24)"/>
<path d="M62 58h1v1h-1v-1z" fill="rgb(230,197,82)"/>
<path d="M66 58h1v1h-1v-1z" fill="rgb(131,98,24)"/>
<path d="M70 58h1v1h-1v-1z" fill="rgb(205,156,74)"/>
<path d="M71 58h1v1h-1v-1z" fill="rgb(16,16,16)"/>
<path d="M72 58h1v3h-2v1h-1v2h-1v-3h1v-1h1v-1h1v-1z" fill="rgb(205,156,74)"/>
<path d="M73 58h1v3h-1v-3z" fill="rgb(16,16,16)"/>
<path d="M13 59h1v2h-1v-2z" fill="rgb(131,98,24)"/>
<path d="M14 59h1v1h-1v-1z" fill="rgb(230,197,82)"/>
<path d="M27 59h1v1h-1v-1z" fill="rgb(230,197,82)"/>
<path d="M33 59h2v1h-2v-1z" fill="rgb(131,98,24)"/>
<path d="M43 59h1v2h-1v-2z" fill="rgb(131,98,24)"/>
<path d="M55 59h1v1h-1v-1z" fill="rgb(16,16,16)"/>
<path d="M63 59h1v1h-1v-1z" fill="rgb(230,197,82)"/>
<path d="M64 59h1v1h-1v-1z" fill="rgb(16,16,16)"/>
<path d="M66 59h1v2h-2v-1h1v-1z" fill="rgb(16,16,16)"/>
<path d="M69 59h1v1h-1v-1z" fill="rgb(205,156,74)"/>
<path d="M70 59h1v1h-1v-1z" fill="rgb(16,16,16)"/>
<path d="M34 60h1v1h-1v-1z" fill="rgb(205,156,74)"/>
<path d="M35 60h2v1h-2v-1z" fill="rgb(131,98,24)"/>
<path d="M41 60h1v1h-1v-1z" fill="rgb(131,98,24)"/>
<path d="M54 60h1v1h-1v-1z" fill="rgb(16,16,16)"/>
<path d="M64 60h1v7h-1v-7z" fill="rgb(131,98,24)"/>
<path d="M67 60h2v1h-2v-1z" fill="rgb(205,156,74)"/>
<path d="M69 60h1v1h-1v-1z" fill="rgb(16,16,16)"/>
<path d="M12 61h1v2h-1v-2z" fill="rgb(131,98,24)"/>
<path d="M13 61h1v1h-1v-1z" fill="rgb(246,230,123)"/>
<path d="M14 61h1v1h-1v-1z" fill="rgb(230,197,82)"/>
<path d="M35 61h2v1h2v1h-3v-1h-1v-1z" fill="rgb(205,156,74)"/>
<path d="M37 61h2v1h-2v-1z" fill="rgb(131,98,24)"/>
<path d="M42 61h1v1h-1v-1z" fill="rgb(131,98,24)"/>
<path d="M43 61h1v1h-1v-1z" fill="rgb(205,156,74)"/>
<path d="M44 61h1v1h-1v-1z" fill="rgb(131,98,24)"/>
<path d="M53 61h1v1h-1v-1z" fill="rgb(16,16,16)"/>
<path d="M54 61h2v1h2v-1h1v1h1v3h-1v1h-2v-2h-1v-1h-1v1h1v2h1v3h-5v-1h-3v-1h-1v-2h1v-1h2
	v-1h2v-1h1v-1z" fill="rgb(230,197,82)"/>
<path d="M65 61h2v1h1v3h-1v1h-2v-5z" fill="rgb(205,156,74)"/>
<path d="M67 61h2v1h-2v-1z" fill="rgb(16,16,16)"/>
<path d="M71 61h1v4h-3v-1h1v-2h1v-1z" fill="rgb(230,197,82)"/>
<path d="M72 61h1v5h-6v-1h5v-4z" fill="rgb(16,16,16)"/>
<path d="M13 62h1v1h-1v-1z" fill="rgb(230,197,82)"/>
<path d="M14 62h1v1h-1v-1z" fill="rgb(246,230,123)"/>
<path d="M15 62h1v1h-1v-1z" fill="rgb(230,197,82)"/>
<path d="M26 62h1v1h-1v-1z" fill="rgb(230,197,82)"/>
<path d="M27 62h7v1h-7v-1z" fill="rgb(131,98,24)"/>
<path d="M39 62h2v1h-2v-1z" fill="rgb(131,98,24)"/>
<path d="M43 62h1v1h-1v-1z" fill="rgb(131,98,24)"/>
<path d="M44 62h1v1h-1v-1z" fill="rgb(205,156,74)"/>
<path d="M45 62h1v1h-1v-1z" fill="rgb(131,98,24)"/>
<path d="M46 62h1v1h-1v-1z" fill="rgb(205,156,74)"/>
<path d="M51 62h2v1h-2v-1z" fill="rgb(16,16,16)"/>
<path d="M60 62h1v7h-1v-7z" fill="rgb(131,98,24)"/>
<path d="M63 62h1v5h-1v1h-2v-3h1v-1h1v-2z" fill="rgb(230,197,82)"/>
<path d="M68 62h1v3h-1v-3z" fill="rgb(131,98,24)"/>
<path d="M12 63h1v4h-1v-4z" fill="rgb(16,16,16)"/>
<path d="M13 63h1v1h-1v-1z" fill="rgb(246,230,123)"/>
<path d="M14 63h1v1h-1v-1z" fill="rgb(230,197,82)"/>
<path d="M24 63h1v1h-1v-1z" fill="rgb(230,197,82)"/>
<path d="M25 63h2v1h-2v-1z" fill="rgb(131,98,24)"/>
<path d="M27 63h6v1h1v1h2v1h1v1h1v1h-1v1h-2v1h-1v1h-1v2h-1v2h-1v1h-2v1h-6v-1h-1v-1h-1v-2
	h-1v-3h1v-2h1v-2h1v-1h2v-1h2v-1z" fill="rgb(246,230,123)"/>
<path d="M33 63h1v1h-1v-1z" fill="rgb(230,197,82)"/>
<path d="M34 63h5v1h-5v-1z" fill="rgb(131,98,24)"/>
<path d="M39 63h2v1h-2v-1z" fill="rgb(205,156,74)"/>
<path d="M41 63h2v1h-1v1h-3v-1h2v-1z" fill="rgb(131,98,24)"/>
<path d="M43 63h1v1h-1v-1z" fill="rgb(205,156,74)"/>
<path d="M44 63h1v1h-1v-1z" fill="rgb(131,98,24)"/>
<path d="M45 63h1v1h-1v-1z" fill="rgb(205,156,74)"/>
<path d="M49 63h2v1h-2v-1z" fill="rgb(16,16,16)"/>
<path d="M55 63h1v1h-1v-1z" fill="rgb(131,98,24)"/>
<path d="M13 64h1v1h-1v-1z" fill="rgb(230,197,82)"/>
<path d="M14 64h1v1h-1v-1z" fill="rgb(246,230,123)"/>
<path d="M15 64h1v1h-1v-1z" fill="rgb(230,197,82)"/>
<path d="M17 64h1v1h4v1h-1v1h-1v2h-1v4h-2v-1h-1v-1h-1v-2h-1v-2h1v-1h1v-1h1v-1z" fill="rgb(230,197,82)"/>
<path d="M22 64h1v1h-1v-1z" fill="rgb(230,197,82)"/>
<path d="M23 64h2v1h-2v-1z" fill="rgb(131,98,24)"/>
<path d="M34 64h4v1h1v1h2v1h-1v1h-2v-1h-1v-1h-1v-1h-2v-1z" fill="rgb(230,197,82)"/>
<path d="M38 64h1v1h-1v-1z" fill="rgb(205,156,74)"/>
<path d="M42 64h1v1h-1v-1z" fill="rgb(205,156,74)"/>
<path d="M43 64h1v1h1v-1h1v1h1v1h-5v-1h1v-1z" fill="rgb(131,98,24)"/>
<path d="M44 64h1v1h-1v-1z" fill="rgb(205,156,74)"/>
<path d="M46 64h1v1h-1v-1z" fill="rgb(205,156,74)"/>
<path d="M48 64h1v1h-1v-1z" fill="rgb(16,16,16)"/>
<path d="M56 64h1v2h-1v-2z" fill="rgb(131,98,24)"/>
<path d="M13 65h1v1h-1v-1z" fill="rgb(246,230,123)"/>
<path d="M14 65h1v1h-1v-1z" fill="rgb(230,197,82)"/>
<path d="M15 65h1v1h-1v-1z" fill="rgb(246,230,123)"/>
<path d="M22 65h1v1h-1v-1z" fill="rgb(131,98,24)"/>
<path d="M39 65h3v1h4v1h-5v-1h-2v-1z" fill="rgb(205,156,74)"/>
<path d="M47 65h1v1h-1v-1z" fill="rgb(16,16,16)"/>
<path d="M59 65h1v4h-2v-3h1v-1z" fill="rgb(205,156,74)"/>
<path d="M13 66h1v1h-1v-1z" fill="rgb(230,197,82)"/>
<path d="M14 66h1v1h-1v-1z" fill="rgb(246,230,123)"/>
<path d="M16 66h1v1h-1v-1z" fill="rgb(246,230,123)"/>
<path d="M21 66h1v1h-1v-1z" fill="rgb(16,16,16)"/>
<path d="M46 66h1v1h2v1h-2v1h-1v-3z" fill="rgb(16,16,16)"/>
<path d="M47 66h1v1h-1v-1z" fill="rgb(205,156,74)"/>
<path d="M57 66h1v3h-1v-3z" fill="rgb(131,98,24)"/>
<path d="M65 66h2v1h-2v-1z" fill="rgb(16,16,16)"/>
<path d="M67 66h6v2h-5v1h-2v-1h1v-2z" fill="rgb(255,164,57)"/>
<path d="M73 66h2v1h-2v-1z" fill="rgb(16,16,16)"/>
<path d="M13 67h1v2h-1v-2z" fill="rgb(16,16,16)"/>
<path d="M20 67h1v2h-1v-2z" fill="rgb(16,16,16)"/>
<path d="M21 67h1v1h-1v-1z" fill="rgb(230,197,82)"/>
<path d="M40 67h6v1h-6v-1z" fill="rgb(131,98,24)"/>
<path d="M63 67h2v1h-2v-1z" fill="rgb(16,16,16)"/>
<path d="M65 67h2v1h-1v1h-1v-2z" fill="rgb(246,230,123)"/>
<path d="M73 67h2v1h1v1h1v2h-1v-1h-2v-1h-5v1h-2v1h-2v-2h3v-1h5v-1z" fill="rgb(238,131,41)"/>
<path d="M75 67h1v1h-1v-1z" fill="rgb(16,16,16)"/>
<path d="M37 68h3v1h-3v-1z" fill="rgb(131,98,24)"/>
<path d="M40 68h4v1h1v2h-1v-1h-2v-1h-2v-1z" fill="rgb(230,197,82)"/>
<path d="M44 68h2v1h-2v-1z" fill="rgb(205,156,74)"/>
<path d="M47 68h2v1h3v3h1v1h5v-1h3v-1h2v-1h1v-2h1v3h-1v2h-1v1h-2v1h-2v1h-2v1h-2v-1h-4v-1
	h-4v-1h-2v-3h1v-2h1v-1z" fill="rgb(230,197,82)"/>
<path d="M49 68h3v1h-3v-1z" fill="rgb(16,16,16)"/>
<path d="M61 68h2v1h-2v-1z" fill="rgb(16,16,16)"/>
<path d="M63 68h1v2h-1v1h-2v1h-3v1h-5v-1h-1v-2h9v-1h2v-1z" fill="rgb(246,230,123)"/>
<path d="M76 68h1v1h-1v-1z" fill="rgb(16,16,16)"/>
<path d="M14 69h1v2h-1v-2z" fill="rgb(16,16,16)"/>
<path d="M19 69h1v6h-1v-1h-2v-1h2v-4z" fill="rgb(16,16,16)"/>
<path d="M20 69h1v1h-1v-1z" fill="rgb(230,197,82)"/>
<path d="M35 69h2v1h-2v-1z" fill="rgb(131,98,24)"/>
<path d="M37 69h5v1h2v4h1v2h-3v1h-7v-1h-1v-2h-1v-1h1v-2h1v-1h2v-1z" fill="rgb(246,230,123)"/>
<path d="M45 69h1v2h-1v-2z" fill="rgb(131,98,24)"/>
<path d="M52 69h9v1h-9v-1z" fill="rgb(16,16,16)"/>
<path d="M69 69h5v1h-5v-1z" fill="rgb(16,16,16)"/>
<path d="M77 69h1v3h-2v-1h1v-2z" fill="rgb(16,16,16)"/>
<path d="M34 70h1v1h-1v-1z" fill="rgb(131,98,24)"/>
<path d="M67 70h2v1h-2v-1z" fill="rgb(16,16,16)"/>
<path d="M69 70h2v3h-2v1h-1v-3h1v-1z" fill="rgb(230,197,82)"/>
<path d="M71 70h1v1h-1v-1z" fill="rgb(131,98,24)"/>
<path d="M74 70h2v1h-2v-1z" fill="rgb(16,16,16)"/>
<path d="M15 71h1v1h-1v-1z" fill="rgb(16,16,16)"/>
<path d="M33 71h1v2h-1v-2z" fill="rgb(131,98,24)"/>
<path d="M44 71h1v3h-1v-3z" fill="rgb(131,98,24)"/>
<path d="M64 71h1v1h-1v-1z" fill="rgb(238,131,41)"/>
<path d="M65 71h2v1h-2v-1z" fill="rgb(16,16,16)"/>
<path d="M67 71h1v1h-1v-1z" fill="rgb(131,98,24)"/>
<path d="M71 71h1v3h-1v-3z" fill="rgb(16,16,16)"/>
<path d="M16 72h1v1h-1v-1z" fill="rgb(16,16,16)"/>
<path d="M64 72h1v1h-1v-1z" fill="rgb(16,16,16)"/>
<path d="M65 72h2v1h-2v-1z" fill="rgb(205,156,74)"/>
<path d="M67 72h1v4h1v1h-3v1h-1v-3h1v1h1v-4z" fill="rgb(16,16,16)"/>
<path d="M20 73h1v2h-1v-2z" fill="rgb(230,197,82)"/>
<path d="M32 73h1v5h-1v-5z" fill="rgb(131,98,24)"/>
<path d="M63 73h1v1h-1v-1z" fill="rgb(16,16,16)"/>
<path d="M64 73h3v1h-3v-1z" fill="rgb(131,98,24)"/>
<path d="M69 73h2v1h1v1h1v1h-2v-1h-1v1h-2v-2h1v-1z" fill="rgb(246,230,123)"/>
<path d="M33 74h1v2h1v1h7v-1h3v-1h2v1h4v2h-3v1h2v1h-5v1h-8v-1h-2v-1h-1v-1h-1v-4z" fill="rgb(230,197,82)"/>
<path d="M45 74h2v1h-2v-1z" fill="rgb(131,98,24)"/>
<path d="M61 74h2v1h-2v-1z" fill="rgb(16,16,16)"/>
<path d="M63 74h1v1h-1v-1z" fill="rgb(205,156,74)"/>
<path d="M64 74h1v1h-1v-1z" fill="rgb(16,16,16)"/>
<path d="M65 74h2v2h-1v-1h-1v-1z" fill="rgb(205,156,74)"/>
<path d="M72 74h1v1h-1v-1z" fill="rgb(16,16,16)"/>
<path d="M20 75h1v2h-1v-2z" fill="rgb(16,16,16)"/>
<path d="M21 75h1v1h1v1h6v-1h2v-1h1v3h1v1h1v1h-7v-1h-3v-1h-2v-1h-1v-2z" fill="rgb(230,197,82)"/>
<path d="M47 75h4v1h-4v-1z" fill="rgb(131,98,24)"/>
<path d="M59 75h2v3h-1v-2h-1v-1z" fill="rgb(16,16,16)"/>
<path d="M61 75h1v3h-1v-3z" fill="rgb(230,197,82)"/>
<path d="M62 75h3v1h-1v1h-1v-1h-1v-1z" fill="rgb(246,230,123)"/>
<path d="M70 75h1v1h-1v-1z" fill="rgb(205,156,74)"/>
<path d="M73 75h1v2h-1v-2z" fill="rgb(16,16,16)"/>
<path d="M51 76h2v1h-2v-1z" fill="rgb(131,98,24)"/>
<path d="M53 76h2v1h-2v-1z" fill="rgb(16,16,16)"/>
<path d="M57 76h2v1h-2v-1z" fill="rgb(16,16,16)"/>
<path d="M62 76h1v1h-1v-1z" fill="rgb(205,156,74)"/>
<path d="M64 76h1v2h-1v-2z" fill="rgb(205,156,74)"/>
<path d="M69 76h2v1h-2v-1z" fill="rgb(230,197,82)"/>
<path d="M71 76h1v1h-1v-1z" fill="rgb(131,98,24)"/>
<path d="M72 76h1v1h-1v-1z" fill="rgb(230,197,82)"/>
<path d="M21 77h1v1h-1v-1z" fill="rgb(16,16,16)"/>
<path d="M51 77h4v1h2v1h1v1h1v1h1v2h-1v-1h-2v-1h-3v-1h-4v-1h-2v-1h3v-1z" fill="rgb(238,131,41)"/>
<path d="M55 77h2v1h-2v-1z" fill="rgb(16,16,16)"/>
<path d="M62 77h1v1h-1v-1z" fill="rgb(131,98,24)"/>
<path d="M63 77h1v1h-1v-1z" fill="rgb(230,197,82)"/>
<path d="M69 77h4v1h-4v-1z" fill="rgb(16,16,16)"/>
<path d="M22 78h2v1h-2v-1z" fill="rgb(16,16,16)"/>
<path d="M33 78h1v1h-1v-1z" fill="rgb(16,16,16)"/>
<path d="M57 78h1v1h-1v-1z" fill="rgb(16,16,16)"/>
<path d="M61 78h4v1h-4v-1z" fill="rgb(16,16,16)"/>
<path d="M24 79h3v1h-3v-1z" fill="rgb(16,16,16)"/>
<path d="M34 79h1v1h2v1h-10v-1h7v-1z" fill="rgb(16,16,16)"/>
<path d="M58 79h1v1h-1v-1z" fill="rgb(16,16,16)"/>
<path d="M45 80h9v1h-9v-1z" fill="rgb(16,16,16)"/>
<path d="M59 80h1v1h-1v-1z" fill="rgb(16,16,16)"/>
<path d="M37 81h8v1h-8v-1z" fill="rgb(16,16,16)"/>
<path d="M54 81h3v1h-3v-1z" fill="rgb(16,16,16)"/>
<path d="M60 81h1v3h-2v-1h1v-2z" fill="rgb(16,16,16)"/>
<path d="M57 82h2v1h-2v-1z" fill="rgb(16,16,16)"/>
</svg>
