<?xml version="1.0" encoding="utf-8"?>
<!-- generated at drububu.com  -->
<!DOCTYPE svg PUBLIC "-//W3C//DTD SVG 1.1//EN" "http://www.w3.org/Graphics/SVG/1.1/DTD/svg11.dtd">
<svg version="1.1" preserveAspectRatio="xMinYMin meet" xmlns="http://www.w3.org/2000/svg" xmlns:xlink="http://www.w3.org/1999/xlink" x="0px" y="0px" width="96px" height="96px" viewBox="0 0 96 96">
<path d="M0 0h96v96h-96v-96z" fill="transparent"/>
<path d="M60 30h4v1h-4v-1z" fill="rgb(164,16,32)"/>
<path d="M45 31h5v1h-5v-1z" fill="rgb(230,115,131)"/>
<path d="M57 31h3v1h-3v-1z" fill="rgb(164,16,32)"/>
<path d="M60 31h4v1h-3v1h-1v1h-1v1h-2v-3h3v-1z" fill="rgb(255,205,197)"/>
<path d="M64 31h1v1h-1v-1z" fill="rgb(164,16,32)"/>
<path d="M43 32h2v1h-2v-1z" fill="rgb(230,115,131)"/>
<path d="M45 32h3v3h-1v2h-1v1h-2v1h-2v-5h1v-1h2v-1z" fill="rgb(255,205,197)"/>
<path d="M48 32h2v1h1v1h1v-1h2v1h1v-1h2v2h1v1h1v1h1v1h1v1h1v-2h1v-5h1v6h-1v5h1v1h-1v1h-1
	v2h-1v1h1v1h1v1h1v1h1v2h-4v-1h-5v1h-1v1h-2v1h-3v1h-7v-1h-3v-1h-1v-2h1v-1h2v-1
	h1v-2h1v-2h-1v-1h4v-1h-3v-1h-2v-2h-1v-5h1v3h2v-1h2v-1h1v-2h1v-3z" fill="rgb(255,172,164)"/>
<path d="M50 32h1v1h-1v-1z" fill="rgb(230,115,131)"/>
<path d="M51 32h3v1h-3v-1z" fill="rgb(164,16,32)"/>
<path d="M55 32h2v1h-2v-1z" fill="rgb(164,16,32)"/>
<path d="M61 32h2v1h-2v-1z" fill="rgb(106,82,98)"/>
<path d="M64 32h1v6h-1v-6z" fill="rgb(16,16,16)"/>
<path d="M42 33h1v1h-1v-1z" fill="rgb(230,115,131)"/>
<path d="M51 33h1v1h-1v-1z" fill="rgb(230,115,131)"/>
<path d="M54 33h1v1h-1v-1z" fill="rgb(164,16,32)"/>
<path d="M60 33h1v1h-1v-1z" fill="rgb(106,82,98)"/>
<path d="M61 33h2v4h-1v1h-1v-1h-1v-1h-1v-1h1v-1h1v-1z" fill="rgb(16,16,16)"/>
<path d="M41 34h1v2h-1v-2z" fill="rgb(230,115,131)"/>
<path d="M59 34h1v1h-1v-1z" fill="rgb(106,82,98)"/>
<path d="M33 35h6v1h-6v-1z" fill="rgb(230,115,131)"/>
<path d="M58 35h1v1h-1v-1z" fill="rgb(106,82,98)"/>
<path d="M32 36h1v3h-1v-3z" fill="rgb(164,16,32)"/>
<path d="M33 36h6v1h-6v-1z" fill="rgb(255,205,197)"/>
<path d="M39 36h1v1h-1v-1z" fill="rgb(230,115,131)"/>
<path d="M40 36h1v5h-1v-5z" fill="rgb(164,16,32)"/>
<path d="M51 36h1v1h-1v-1z" fill="rgb(230,115,131)"/>
<path d="M59 36h1v1h-1v-1z" fill="rgb(106,82,98)"/>
<path d="M33 37h1v2h-1v-2z" fill="rgb(255,172,164)"/>
<path d="M34 37h2v1h1v1h1v2h-2v-2h-1v-1h-1v-1z" fill="rgb(16,16,16)"/>
<path d="M36 37h4v1h-1v2h-1v-2h-2v-1z" fill="rgb(255,172,164)"/>
<path d="M50 37h1v1h-1v-1z" fill="rgb(164,16,32)"/>
<path d="M60 37h1v1h-1v-1z" fill="rgb(106,82,98)"/>
<path d="M34 38h1v1h-1v-1z" fill="rgb(106,82,98)"/>
<path d="M37 38h1v1h-1v-1z" fill="rgb(106,82,98)"/>
<path d="M39 38h1v3h1v2h-2v1h-1v1h-1v-2h-1v-1h2v-2h1v-2z" fill="rgb(255,205,197)"/>
<path d="M48 38h2v1h-2v-1z" fill="rgb(164,16,32)"/>
<path d="M61 38h1v1h-1v-1z" fill="rgb(106,82,98)"/>
<path d="M63 38h1v1h-1v-1z" fill="rgb(164,16,32)"/>
<path d="M33 39h1v2h-1v-2z" fill="rgb(164,16,32)"/>
<path d="M34 39h1v2h-1v-2z" fill="rgb(255,172,164)"/>
<path d="M35 39h1v2h-1v-2z" fill="rgb(106,82,98)"/>
<path d="M47 39h1v2h-1v-2z" fill="rgb(164,16,32)"/>
<path d="M48 39h1v1h-1v-1z" fill="rgb(16,16,16)"/>
<path d="M63 39h1v4h-1v-4z" fill="rgb(16,16,16)"/>
<path d="M46 40h1v1h-1v-1z" fill="rgb(230,115,131)"/>
<path d="M48 40h1v3h-1v-3z" fill="rgb(230,115,131)"/>
<path d="M49 40h1v3h-1v-3z" fill="rgb(16,16,16)"/>
<path d="M52 40h1v1h-1v-1z" fill="rgb(230,115,131)"/>
<path d="M53 40h3v1h-3v-1z" fill="rgb(164,16,32)"/>
<path d="M56 40h1v1h-1v-1z" fill="rgb(230,115,131)"/>
<path d="M34 41h1v2h-1v-2z" fill="rgb(164,16,32)"/>
<path d="M35 41h1v2h-1v-2z" fill="rgb(255,172,164)"/>
<path d="M36 41h1v1h-1v-1z" fill="rgb(106,82,98)"/>
<path d="M37 41h1v1h-1v-1z" fill="rgb(255,172,164)"/>
<path d="M41 41h1v1h-1v-1z" fill="rgb(164,16,32)"/>
<path d="M51 41h1v1h-1v-1z" fill="rgb(230,115,131)"/>
<path d="M52 41h2v1h-2v-1z" fill="rgb(230,230,230)"/>
<path d="M54 41h2v1h-2v-1z" fill="rgb(255,255,255)"/>
<path d="M56 41h1v1h-1v-1z" fill="rgb(230,230,230)"/>
<path d="M57 41h1v1h-1v-1z" fill="rgb(230,115,131)"/>
<path d="M41 42h1v1h-1v-1z" fill="rgb(16,16,16)"/>
<path d="M50 42h1v1h-1v-1z" fill="rgb(230,115,131)"/>
<path d="M51 42h1v1h-1v-1z" fill="rgb(230,230,230)"/>
<path d="M52 42h3v1h1v1h1v3h-1v-2h-1v1h-2v-1h1v-2h-2v-1z" fill="rgb(16,74,139)"/>
<path d="M55 42h1v1h-1v-1z" fill="rgb(24,115,197)"/>
<path d="M56 42h1v1h-1v-1z" fill="rgb(255,255,255)"/>
<path d="M57 42h1v2h-1v-2z" fill="rgb(230,230,230)"/>
<path d="M58 42h1v1h-1v-1z" fill="rgb(230,115,131)"/>
<path d="M35 43h1v1h-1v-1z" fill="rgb(164,16,32)"/>
<path d="M36 43h1v1h-1v-1z" fill="rgb(230,115,131)"/>
<path d="M39 43h3v1h-3v-1z" fill="rgb(230,115,131)"/>
<path d="M42 43h2v1h-2v-1z" fill="rgb(16,16,16)"/>
<path d="M47 43h2v1h-2v-1z" fill="rgb(16,16,16)"/>
<path d="M50 43h1v3h-1v-3z" fill="rgb(164,16,32)"/>
<path d="M51 43h1v4h-1v-4z" fill="rgb(16,74,139)"/>
<path d="M52 43h1v1h-1v-1z" fill="rgb(255,255,255)"/>
<path d="M53 43h1v2h-2v-1h1v-1z" fill="rgb(205,238,255)"/>
<path d="M56 43h1v1h-1v-1z" fill="rgb(24,115,197)"/>
<path d="M58 43h1v3h-1v-3z" fill="rgb(164,16,32)"/>
<path d="M64 43h1v7h-1v-7z" fill="rgb(16,16,16)"/>
<path d="M36 44h1v5h-1v-5z" fill="rgb(164,16,32)"/>
<path d="M38 44h1v1h-1v-1z" fill="rgb(230,115,131)"/>
<path d="M39 44h1v1h-1v-1z" fill="rgb(230,230,230)"/>
<path d="M40 44h1v1h-1v-1z" fill="rgb(24,115,197)"/>
<path d="M41 44h1v1h-1v-1z" fill="rgb(16,74,139)"/>
<path d="M42 44h1v2h-1v-2z" fill="rgb(164,16,32)"/>
<path d="M43 44h1v1h-1v-1z" fill="rgb(230,115,131)"/>
<path d="M44 44h3v1h-3v-1z" fill="rgb(16,16,16)"/>
<path d="M57 44h1v2h-1v-2z" fill="rgb(255,255,255)"/>
<path d="M63 44h1v5h-1v-1h-2v-1h1v-2h1v-1z" fill="rgb(230,115,131)"/>
<path d="M37 45h1v4h-1v-4z" fill="rgb(255,172,164)"/>
<path d="M38 45h1v4h-1v-4z" fill="rgb(255,255,255)"/>
<path d="M39 45h1v3h1v1h-2v-4z" fill="rgb(24,115,197)"/>
<path d="M40 45h1v2h-1v-2z" fill="rgb(255,255,255)"/>
<path d="M41 45h1v2h-1v-2z" fill="rgb(205,238,255)"/>
<path d="M52 45h1v1h2v-1h1v2h-4v-2z" fill="rgb(24,115,197)"/>
<path d="M42 46h1v3h-2v-1h-1v-1h2v-1z" fill="rgb(16,74,139)"/>
<path d="M43 46h1v2h-1v-2z" fill="rgb(230,115,131)"/>
<path d="M50 46h1v1h-1v-1z" fill="rgb(230,115,131)"/>
<path d="M57 46h1v1h-1v-1z" fill="rgb(230,230,230)"/>
<path d="M58 46h1v1h-1v-1z" fill="rgb(230,115,131)"/>
<path d="M51 47h1v1h-1v-1z" fill="rgb(230,115,131)"/>
<path d="M52 47h1v1h-1v-1z" fill="rgb(16,74,139)"/>
<path d="M53 47h2v1h-2v-1z" fill="rgb(16,180,238)"/>
<path d="M55 47h1v1h-1v-1z" fill="rgb(16,74,139)"/>
<path d="M56 47h1v1h-1v-1z" fill="rgb(230,230,230)"/>
<path d="M57 47h1v1h-1v-1z" fill="rgb(230,115,131)"/>
<path d="M52 48h1v1h-1v-1z" fill="rgb(230,115,131)"/>
<path d="M53 48h3v1h-3v-1z" fill="rgb(164,16,32)"/>
<path d="M56 48h1v1h-1v-1z" fill="rgb(230,115,131)"/>
<path d="M62 48h1v1h-1v-1z" fill="rgb(164,16,32)"/>
<path d="M36 49h1v2h-1v-2z" fill="rgb(230,115,131)"/>
<path d="M37 49h1v1h1v1h1v1h-1v1h-1v-1h-1v2h1v1h-4v-2h1v-1h1v-1h1v-2z" fill="rgb(255,205,197)"/>
<path d="M38 49h1v1h-1v-1z" fill="rgb(230,115,131)"/>
<path d="M39 49h1v1h-1v-1z" fill="rgb(230,230,230)"/>
<path d="M40 49h2v1h-2v-1z" fill="rgb(16,180,238)"/>
<path d="M42 49h1v1h-1v-1z" fill="rgb(164,16,32)"/>
<path d="M49 49h1v1h-1v-1z" fill="rgb(164,16,32)"/>
<path d="M63 49h1v1h-1v-1z" fill="rgb(164,16,32)"/>
<path d="M39 50h1v1h-1v-1z" fill="rgb(230,115,131)"/>
<path d="M40 50h2v1h-2v-1z" fill="rgb(164,16,32)"/>
<path d="M44 50h1v1h-1v-1z" fill="rgb(164,16,32)"/>
<path d="M45 50h1v2h-1v-2z" fill="rgb(230,115,131)"/>
<path d="M48 50h1v1h-1v-1z" fill="rgb(164,16,32)"/>
<path d="M49 50h1v1h-1v-1z" fill="rgb(230,115,131)"/>
<path d="M64 50h1v1h-1v-1z" fill="rgb(164,16,32)"/>
<path d="M35 51h1v1h-1v-1z" fill="rgb(230,115,131)"/>
<path d="M46 51h2v1h-2v-1z" fill="rgb(164,16,32)"/>
<path d="M65 51h1v2h-1v-2z" fill="rgb(164,16,32)"/>
<path d="M34 52h1v1h-1v-1z" fill="rgb(230,115,131)"/>
<path d="M37 52h1v1h-1v-1z" fill="rgb(255,172,164)"/>
<path d="M56 52h3v1h2v1h1v1h-1v1h-1v1h-1v1h-2v1h-3v1h-9v-1h-2v-1h-1v-1h-2v-1h-1v-2h1v1h3
	v1h7v-1h3v-1h2v-1h1v-1z" fill="rgb(230,115,131)"/>
<path d="M59 52h1v1h-1v-1z" fill="rgb(164,16,32)"/>
<path d="M60 52h1v1h-1v-1z" fill="rgb(16,16,16)"/>
<path d="M33 53h1v1h-1v-1z" fill="rgb(230,115,131)"/>
<path d="M37 53h1v1h-1v-1z" fill="rgb(164,16,32)"/>
<path d="M38 53h1v1h-1v-1z" fill="rgb(230,115,131)"/>
<path d="M61 53h4v1h-2v1h-1v-1h-1v-1z" fill="rgb(16,16,16)"/>
<path d="M33 54h1v1h-1v-1z" fill="rgb(164,16,32)"/>
<path d="M38 54h1v2h-1v-2z" fill="rgb(164,16,32)"/>
<path d="M34 55h4v1h-4v-1z" fill="rgb(16,16,16)"/>
<path d="M61 55h1v1h-1v-1z" fill="rgb(16,16,16)"/>
<path d="M39 56h1v1h-1v-1z" fill="rgb(164,16,32)"/>
<path d="M60 56h1v1h-1v-1z" fill="rgb(16,16,16)"/>
<path d="M40 57h2v1h-2v-1z" fill="rgb(164,16,32)"/>
<path d="M59 57h1v1h-1v-1z" fill="rgb(16,16,16)"/>
<path d="M41 58h1v1h-1v-1z" fill="rgb(16,16,16)"/>
<path d="M42 58h1v1h-1v-1z" fill="rgb(164,16,32)"/>
<path d="M57 58h1v1h-1v-1z" fill="rgb(164,16,32)"/>
<path d="M58 58h1v1h-1v-1z" fill="rgb(16,16,16)"/>
<path d="M40 59h1v1h-1v-1z" fill="rgb(164,16,32)"/>
<path d="M41 59h2v1h2v1h-1v1h-2v1h-3v-2h1v-1h1v-1z" fill="rgb(230,115,131)"/>
<path d="M43 59h2v1h-2v-1z" fill="rgb(164,16,32)"/>
<path d="M54 59h2v1h-2v-1z" fill="rgb(16,16,16)"/>
<path d="M56 59h1v1h-1v-1z" fill="rgb(164,16,32)"/>
<path d="M57 59h2v1h1v1h-2v1h-1v1h-1v-1h-1v-2h2v-1z" fill="rgb(230,115,131)"/>
<path d="M59 59h1v1h-1v-1z" fill="rgb(16,16,16)"/>
<path d="M39 60h1v1h-1v-1z" fill="rgb(164,16,32)"/>
<path d="M45 60h9v1h-9v-1z" fill="rgb(16,16,16)"/>
<path d="M54 60h1v2h-1v-2z" fill="rgb(164,16,32)"/>
<path d="M60 60h1v2h-1v-2z" fill="rgb(16,16,16)"/>
<path d="M38 61h1v2h-1v-2z" fill="rgb(164,16,32)"/>
<path d="M44 61h1v1h-1v-1z" fill="rgb(16,16,16)"/>
<path d="M58 61h2v1h1v2h-3v-1h-1v-1h1v-1z" fill="rgb(255,172,164)"/>
<path d="M42 62h2v1h-2v-1z" fill="rgb(16,16,16)"/>
<path d="M55 62h1v1h-1v-1z" fill="rgb(164,16,32)"/>
<path d="M61 62h1v2h-1v-2z" fill="rgb(16,16,16)"/>
<path d="M39 63h3v1h-3v-1z" fill="rgb(16,16,16)"/>
<path d="M56 63h2v1h-2v-1z" fill="rgb(164,16,32)"/>
<path d="M58 64h3v1h-3v-1z" fill="rgb(16,16,16)"/>
</svg>
