<?xml version="1.0" encoding="utf-8"?>
<!-- generated at drububu.com  -->
<!DOCTYPE svg PUBLIC "-//W3C//DTD SVG 1.1//EN" "http://www.w3.org/Graphics/SVG/1.1/DTD/svg11.dtd">
<svg version="1.1" preserveAspectRatio="xMinYMin meet" xmlns="http://www.w3.org/2000/svg" xmlns:xlink="http://www.w3.org/1999/xlink" x="0px" y="0px" width="96px" height="96px" viewBox="0 0 96 96">
<path d="M0 0h96v96h-96v-96z" fill="transparent"/>
<path d="M39 29h2v1h-2v-1z" fill="rgb(222,82,57)"/>
<path d="M41 29h3v1h-3v-1z" fill="rgb(139,41,0)"/>
<path d="M37 30h2v1h-2v-1z" fill="rgb(222,82,57)"/>
<path d="M39 30h5v1h2v2h1v3h-3v1h-1v4h1v1h-1v1h-1v1h-2v1h-4v-1h-1v-1h1v-1h1v-1h-2v-3h1
	v-2h-1v-2h2v1h1v-1h1v-2h-1v-1h1v-1z" fill="rgb(255,148,65)"/>
<path d="M44 30h2v1h-2v-1z" fill="rgb(139,41,0)"/>
<path d="M36 31h1v1h-1v-1z" fill="rgb(222,82,57)"/>
<path d="M37 31h1v1h1v2h-1v1h-1v-1h-1v-2h1v-1z" fill="rgb(255,197,98)"/>
<path d="M46 31h1v2h-1v-2z" fill="rgb(16,16,16)"/>
<path d="M35 32h1v2h-1v-2z" fill="rgb(222,82,57)"/>
<path d="M47 33h1v2h-1v-2z" fill="rgb(16,16,16)"/>
<path d="M34 34h1v2h-1v-2z" fill="rgb(222,82,57)"/>
<path d="M43 34h1v1h-1v-1z" fill="rgb(222,82,57)"/>
<path d="M42 35h1v2h-1v-2z" fill="rgb(222,82,57)"/>
<path d="M47 35h1v8h-1v4h1v1h2v-1h3v-1h1v-2h1v2h1v1h-2v1h-1v1h-2v1h-3v1h-1v1h-2v-1h-1v-1
	h-3v1h-1v-1h-1v2h-2v-1h-2v-1h-2v-1h-2v-1h1v-2h1v2h1v1h2v-2h1v1h2v1h3v-1h2v-1
	h-2v-1h1v-1h1v-1h1v-1h-2v-1h1v-1h2v-1h1v-3h-1v-1h1v-1z" fill="rgb(222,82,57)"/>
<path d="M48 35h1v8h-1v-8z" fill="rgb(16,16,16)"/>
<path d="M34 36h1v1h-1v-1z" fill="rgb(8,57,139)"/>
<path d="M35 36h1v2h-1v-2z" fill="rgb(222,82,57)"/>
<path d="M44 36h2v2h-3v-1h1v-1z" fill="rgb(8,57,139)"/>
<path d="M34 37h1v1h-1v-1z" fill="rgb(24,139,180)"/>
<path d="M46 37h1v3h-1v-3z" fill="rgb(139,41,0)"/>
<path d="M34 38h1v1h-1v-1z" fill="rgb(255,255,255)"/>
<path d="M43 38h1v2h-1v-2z" fill="rgb(255,255,255)"/>
<path d="M44 38h1v1h-1v-1z" fill="rgb(16,16,16)"/>
<path d="M45 38h1v1h-1v-1z" fill="rgb(24,139,180)"/>
<path d="M34 39h1v1h-1v-1z" fill="rgb(16,16,16)"/>
<path d="M44 39h1v1h-1v-1z" fill="rgb(8,57,139)"/>
<path d="M45 39h1v2h-1v-2z" fill="rgb(49,172,238)"/>
<path d="M62 39h1v3h-1v-3z" fill="rgb(230,57,0)"/>
<path d="M33 40h1v3h-1v-3z" fill="rgb(139,41,0)"/>
<path d="M34 40h1v1h-1v-1z" fill="rgb(8,57,139)"/>
<path d="M43 40h1v1h-1v-1z" fill="rgb(139,41,0)"/>
<path d="M44 40h1v1h-1v-1z" fill="rgb(24,139,180)"/>
<path d="M63 40h1v4h1v2h1v2h1v2h-1v1h-2v-1h-2v-1h-1v-1h2v1h1v-1h1v-1h-1v-2h-1v-1h-1v-1h1
	v-3z" fill="rgb(255,213,8)"/>
<path d="M34 41h3v1h-1v1h-2v-2z" fill="rgb(255,197,98)"/>
<path d="M38 42h1v1h-1v-1z" fill="rgb(222,82,57)"/>
<path d="M45 42h1v1h-1v-1z" fill="rgb(139,41,0)"/>
<path d="M61 42h1v4h1v-1h1v2h1v1h-1v1h-1v-2h-1v1h-1v3h-1v-5h1v-4z" fill="rgb(230,57,0)"/>
<path d="M62 42h1v1h-1v-1z" fill="rgb(246,164,0)"/>
<path d="M34 43h1v1h-1v-1z" fill="rgb(139,41,0)"/>
<path d="M42 43h1v1h-1v-1z" fill="rgb(222,82,57)"/>
<path d="M43 43h2v1h-2v-1z" fill="rgb(139,41,0)"/>
<path d="M47 43h1v2h-1v-2z" fill="rgb(16,16,16)"/>
<path d="M54 43h2v1h-2v-1z" fill="rgb(139,41,0)"/>
<path d="M64 43h1v1h-1v-1z" fill="rgb(246,164,0)"/>
<path d="M34 44h2v1h-2v-1z" fill="rgb(16,16,16)"/>
<path d="M40 44h2v1h-2v-1z" fill="rgb(139,41,0)"/>
<path d="M42 44h1v1h-1v-1z" fill="rgb(16,16,16)"/>
<path d="M43 44h1v1h-1v-1z" fill="rgb(255,255,255)"/>
<path d="M50 44h4v1h-4v-1z" fill="rgb(139,41,0)"/>
<path d="M55 44h1v2h-1v-2z" fill="rgb(16,16,16)"/>
<path d="M62 44h1v1h-1v-1z" fill="rgb(246,164,0)"/>
<path d="M65 44h1v1h-1v-1z" fill="rgb(230,57,0)"/>
<path d="M31 45h2v1h-2v-1z" fill="rgb(139,41,0)"/>
<path d="M36 45h4v1h-3v1h-1v-2z" fill="rgb(16,16,16)"/>
<path d="M40 45h2v1h-2v-1z" fill="rgb(230,57,0)"/>
<path d="M42 45h1v1h-1v-1z" fill="rgb(139,41,0)"/>
<path d="M47 45h3v1h-3v-1z" fill="rgb(139,41,0)"/>
<path d="M50 45h4v1h-1v1h-3v1h-2v-1h-1v-1h3v-1z" fill="rgb(255,148,65)"/>
<path d="M62 45h1v1h-1v-1z" fill="rgb(255,213,8)"/>
<path d="M65 45h1v1h-1v-1z" fill="rgb(246,164,0)"/>
<path d="M31 46h1v2h-1v-2z" fill="rgb(16,16,16)"/>
<path d="M33 46h3v1h-3v-1z" fill="rgb(139,41,0)"/>
<path d="M37 46h2v1h-2v-1z" fill="rgb(222,82,57)"/>
<path d="M39 46h3v1h-3v-1z" fill="rgb(139,41,0)"/>
<path d="M44 46h1v1h-1v-1z" fill="rgb(16,16,16)"/>
<path d="M56 46h1v1h-1v-1z" fill="rgb(16,16,16)"/>
<path d="M66 46h1v1h-1v-1z" fill="rgb(230,57,0)"/>
<path d="M33 47h3v2h-2v-1h-1v-1z" fill="rgb(255,148,65)"/>
<path d="M37 47h2v1h-2v-1z" fill="rgb(16,16,16)"/>
<path d="M39 47h2v1h-2v-1z" fill="rgb(255,148,65)"/>
<path d="M41 47h1v1h-1v-1z" fill="rgb(222,82,57)"/>
<path d="M42 47h2v1h-2v-1z" fill="rgb(16,16,16)"/>
<path d="M54 47h2v1h-2v-1z" fill="rgb(16,16,16)"/>
<path d="M62 47h1v1h-1v-1z" fill="rgb(246,164,0)"/>
<path d="M66 47h1v1h-1v-1z" fill="rgb(246,164,0)"/>
<path d="M67 47h1v5h-1v1h-1v1h-1v-2h1v-1h1v-4z" fill="rgb(230,57,0)"/>
<path d="M30 48h1v1h-1v-1z" fill="rgb(16,16,16)"/>
<path d="M39 48h3v1h-3v-1z" fill="rgb(16,16,16)"/>
<path d="M53 48h1v1h-1v-1z" fill="rgb(16,16,16)"/>
<path d="M31 49h2v1h-2v-1z" fill="rgb(16,16,16)"/>
<path d="M51 49h2v1h-2v-1z" fill="rgb(16,16,16)"/>
<path d="M61 49h1v1h2v1h-1v1h-1v-1h-1v-2z" fill="rgb(246,164,0)"/>
<path d="M33 50h2v1h-2v-1z" fill="rgb(16,16,16)"/>
<path d="M39 50h1v2h-1v-2z" fill="rgb(139,41,0)"/>
<path d="M41 50h3v1h1v1h-5v-1h1v-1z" fill="rgb(230,172,90)"/>
<path d="M48 50h2v1h-2v-1z" fill="rgb(139,41,0)"/>
<path d="M50 50h1v1h-1v-1z" fill="rgb(16,16,16)"/>
<path d="M66 50h1v1h-1v-1z" fill="rgb(246,164,0)"/>
<path d="M35 51h2v1h-2v-1z" fill="rgb(16,16,16)"/>
<path d="M47 51h2v3h1v1h1v3h1v2h1v2h-1v1h-1v1h-3v-1h-1v-3h1v-2h-1v-2h-1v-4h1v-1z" fill="rgb(255,148,65)"/>
<path d="M49 51h1v2h-1v-2z" fill="rgb(16,16,16)"/>
<path d="M61 51h1v1h-1v-1z" fill="rgb(230,57,0)"/>
<path d="M63 51h1v2h-2v-1h1v-1z" fill="rgb(230,57,0)"/>
<path d="M64 51h2v1h-2v-1z" fill="rgb(246,164,0)"/>
<path d="M37 52h1v1h-1v-1z" fill="rgb(16,16,16)"/>
<path d="M38 52h1v4h-1v-4z" fill="rgb(139,41,0)"/>
<path d="M39 52h1v1h-1v-1z" fill="rgb(222,82,57)"/>
<path d="M40 52h5v1h1v4h1v2h-1v1h-2v1h-4v-1h-1v-1h-1v-2h1v-3h1v-2z" fill="rgb(255,213,123)"/>
<path d="M45 52h1v1h-1v-1z" fill="rgb(230,172,90)"/>
<path d="M64 52h1v2h-1v2h-1v-3h1v-1z" fill="rgb(139,41,0)"/>
<path d="M39 53h1v1h-1v-1z" fill="rgb(230,172,90)"/>
<path d="M49 53h1v1h-1v-1z" fill="rgb(222,82,57)"/>
<path d="M50 53h1v2h-1v-2z" fill="rgb(16,16,16)"/>
<path d="M64 54h1v1h-1v-1z" fill="rgb(255,197,98)"/>
<path d="M65 54h1v4h-1v-4z" fill="rgb(16,16,16)"/>
<path d="M51 55h1v3h-1v-3z" fill="rgb(16,16,16)"/>
<path d="M64 55h1v2h-1v1h-1v1h-1v1h-2v1h-2v-1h-1v-1h3v-1h2v-1h1v-1h1v-1z" fill="rgb(255,148,65)"/>
<path d="M37 56h1v3h-2v-1h1v-2z" fill="rgb(139,41,0)"/>
<path d="M38 56h1v1h-1v-1z" fill="rgb(230,172,90)"/>
<path d="M46 56h1v1h-1v-1z" fill="rgb(230,172,90)"/>
<path d="M62 56h1v1h-1v-1z" fill="rgb(139,41,0)"/>
<path d="M60 57h2v1h-2v-1z" fill="rgb(139,41,0)"/>
<path d="M64 57h1v1h-1v-1z" fill="rgb(222,82,57)"/>
<path d="M47 58h1v2h-1v-2z" fill="rgb(222,82,57)"/>
<path d="M52 58h1v1h-1v-1z" fill="rgb(16,16,16)"/>
<path d="M57 58h3v1h-3v-1z" fill="rgb(139,41,0)"/>
<path d="M63 58h1v1h-1v-1z" fill="rgb(222,82,57)"/>
<path d="M64 58h1v2h-1v-2z" fill="rgb(16,16,16)"/>
<path d="M35 59h1v2h-1v-2z" fill="rgb(139,41,0)"/>
<path d="M36 59h1v1h1v2h1v2h-1v1h-2v-1h-1v-3h1v-2z" fill="rgb(255,148,65)"/>
<path d="M37 59h1v1h-1v-1z" fill="rgb(222,82,57)"/>
<path d="M38 59h1v1h-1v-1z" fill="rgb(230,172,90)"/>
<path d="M46 59h1v1h-1v-1z" fill="rgb(230,172,90)"/>
<path d="M52 59h1v1h-1v-1z" fill="rgb(222,82,57)"/>
<path d="M53 59h1v2h-1v-2z" fill="rgb(16,16,16)"/>
<path d="M54 59h3v1h-3v-1z" fill="rgb(139,41,0)"/>
<path d="M62 59h1v1h-1v-1z" fill="rgb(222,82,57)"/>
<path d="M63 59h1v1h-1v-1z" fill="rgb(230,172,90)"/>
<path d="M38 60h1v1h-1v-1z" fill="rgb(222,82,57)"/>
<path d="M39 60h1v1h4v-1h2v5h-3v-1h-2v-1h-1v-1h-1v-2z" fill="rgb(230,172,90)"/>
<path d="M46 60h1v3h-1v-3z" fill="rgb(222,82,57)"/>
<path d="M54 60h4v1h2v1h-2v1h-3v-2h-1v-1z" fill="rgb(222,82,57)"/>
<path d="M60 60h1v1h-1v-1z" fill="rgb(222,82,57)"/>
<path d="M61 60h2v1h-1v1h-1v1h-2v1h-2v1h-2v-2h3v-1h2v-1h1v-1z" fill="rgb(230,172,90)"/>
<path d="M63 60h1v1h-1v-1z" fill="rgb(16,16,16)"/>
<path d="M34 61h1v3h-1v-3z" fill="rgb(16,16,16)"/>
<path d="M38 61h1v1h-1v-1z" fill="rgb(139,41,0)"/>
<path d="M53 61h1v4h-1v3h-1v-1h-3v-1h-1v-1h-1v-2h1v1h3v-1h1v-1h1v-1z" fill="rgb(222,82,57)"/>
<path d="M54 61h1v4h-1v-4z" fill="rgb(16,16,16)"/>
<path d="M62 61h1v1h-1v-1z" fill="rgb(16,16,16)"/>
<path d="M39 62h1v1h-1v-1z" fill="rgb(16,16,16)"/>
<path d="M61 62h1v1h-1v-1z" fill="rgb(16,16,16)"/>
<path d="M39 63h1v1h1v1h2v1h-2v2h-1v1h-2v-1h-2v-1h1v-2h1v-1h1v-1z" fill="rgb(222,82,57)"/>
<path d="M40 63h1v1h-1v-1z" fill="rgb(16,16,16)"/>
<path d="M46 63h1v2h-1v-2z" fill="rgb(139,41,0)"/>
<path d="M59 63h2v1h-2v-1z" fill="rgb(16,16,16)"/>
<path d="M35 64h1v1h-1v-1z" fill="rgb(16,16,16)"/>
<path d="M41 64h2v1h-2v-1z" fill="rgb(16,16,16)"/>
<path d="M57 64h2v1h-2v-1z" fill="rgb(139,41,0)"/>
<path d="M36 65h1v2h-1v-2z" fill="rgb(16,16,16)"/>
<path d="M43 65h4v1h-4v-1z" fill="rgb(16,16,16)"/>
<path d="M47 65h1v1h-1v-1z" fill="rgb(139,41,0)"/>
<path d="M53 65h1v3h-1v-3z" fill="rgb(16,16,16)"/>
<path d="M54 65h3v1h-3v-1z" fill="rgb(139,41,0)"/>
<path d="M41 66h2v1h-1v1h-1v-2z" fill="rgb(16,16,16)"/>
<path d="M48 66h1v3h-1v-3z" fill="rgb(139,41,0)"/>
<path d="M35 67h1v1h-1v-1z" fill="rgb(16,16,16)"/>
<path d="M49 67h3v1h1v1h-3v-1h-1v-1z" fill="rgb(255,148,65)"/>
<path d="M34 68h1v1h-1v-1z" fill="rgb(16,16,16)"/>
<path d="M35 68h1v1h-1v-1z" fill="rgb(255,255,255)"/>
<path d="M36 68h1v1h-1v-1z" fill="rgb(139,41,0)"/>
<path d="M37 68h1v1h-1v-1z" fill="rgb(255,255,255)"/>
<path d="M40 68h1v1h-1v-1z" fill="rgb(16,16,16)"/>
<path d="M49 68h1v1h-1v-1z" fill="rgb(222,82,57)"/>
<path d="M53 68h1v1h-1v-1z" fill="rgb(222,82,57)"/>
<path d="M54 68h1v1h-1v-1z" fill="rgb(16,16,16)"/>
<path d="M35 69h5v1h-5v-1z" fill="rgb(16,16,16)"/>
<path d="M49 69h1v1h-1v-1z" fill="rgb(16,16,16)"/>
<path d="M50 69h1v1h-1v-1z" fill="rgb(255,255,255)"/>
<path d="M51 69h1v1h-1v-1z" fill="rgb(139,41,0)"/>
<path d="M52 69h1v1h-1v-1z" fill="rgb(255,255,255)"/>
<path d="M53 69h1v1h-1v-1z" fill="rgb(139,41,0)"/>
<path d="M54 69h1v1h-1v-1z" fill="rgb(255,255,255)"/>
<path d="M55 69h1v1h-1v-1z" fill="rgb(16,16,16)"/>
<path d="M50 70h5v1h-5v-1z" fill="rgb(16,16,16)"/>
</svg>
