<?xml version="1.0" encoding="utf-8"?>
<!-- generated at drububu.com  -->
<!DOCTYPE svg PUBLIC "-//W3C//DTD SVG 1.1//EN" "http://www.w3.org/Graphics/SVG/1.1/DTD/svg11.dtd">
<svg version="1.1" preserveAspectRatio="xMinYMin meet" xmlns="http://www.w3.org/2000/svg" xmlns:xlink="http://www.w3.org/1999/xlink" x="0px" y="0px" width="96px" height="96px" viewBox="0 0 96 96">
<path d="M0 0h96v96h-96v-96z" fill="transparent"/>
<path d="M65 19h1v1h-1v-1z" fill="rgb(115,115,115)"/>
<path d="M66 19h1v1h-1v-1z" fill="rgb(16,16,16)"/>
<path d="M29 20h2v1h-2v-1z" fill="rgb(115,115,115)"/>
<path d="M64 20h1v1h-1v-1z" fill="rgb(115,115,115)"/>
<path d="M65 20h2v1h-1v1h-1v1h-1v1h-1v1h-2v-1h1v-1h1v-1h1v-1h1v-1z" fill="rgb(255,255,255)"/>
<path d="M67 20h1v6h-1v-6z" fill="rgb(16,16,16)"/>
<path d="M28 21h1v1h-1v-1z" fill="rgb(115,115,115)"/>
<path d="M29 21h2v1h1v1h1v1h1v1h1v1h-1v1h-1v-2h-1v-1h-2v-1h-1v-2z" fill="rgb(255,255,255)"/>
<path d="M31 21h1v1h-1v-1z" fill="rgb(115,115,115)"/>
<path d="M63 21h1v1h-1v-1z" fill="rgb(115,115,115)"/>
<path d="M66 21h1v5h-1v1h-1v-2h1v-4z" fill="rgb(230,222,230)"/>
<path d="M28 22h1v3h-1v-3z" fill="rgb(16,16,16)"/>
<path d="M32 22h1v1h-1v-1z" fill="rgb(115,115,115)"/>
<path d="M62 22h1v1h-1v-1z" fill="rgb(115,115,115)"/>
<path d="M65 22h1v1h-1v-1z" fill="rgb(115,65,24)"/>
<path d="M29 23h1v1h-1v-1z" fill="rgb(115,115,115)"/>
<path d="M33 23h1v1h-1v-1z" fill="rgb(115,115,115)"/>
<path d="M61 23h1v1h-1v-1z" fill="rgb(139,65,65)"/>
<path d="M64 23h1v1h-1v-1z" fill="rgb(115,65,24)"/>
<path d="M65 23h1v1h-1v-1z" fill="rgb(16,16,16)"/>
<path d="M29 24h1v1h-1v-1z" fill="rgb(230,222,230)"/>
<path d="M30 24h1v1h-1v-1z" fill="rgb(115,115,115)"/>
<path d="M31 24h1v1h-1v-1z" fill="rgb(16,16,16)"/>
<path d="M34 24h1v1h-1v-1z" fill="rgb(115,115,115)"/>
<path d="M60 24h1v1h-1v-1z" fill="rgb(139,65,65)"/>
<path d="M63 24h1v1h-1v-1z" fill="rgb(115,65,24)"/>
<path d="M64 24h1v3h-1v2h-1v1h-1v2h-1v2h-1v1h-1v1h-1v1h-1v-1h-1v-1h1v-2h1v-2h1v-2h1v-1h1
	v-1h1v-1h1v-1h1v-1z" fill="rgb(16,16,16)"/>
<path d="M65 24h1v1h-1v-1z" fill="rgb(115,115,115)"/>
<path d="M29 25h1v3h-1v-3z" fill="rgb(16,16,16)"/>
<path d="M30 25h1v1h1v2h-2v-3z" fill="rgb(230,222,230)"/>
<path d="M31 25h2v1h-2v-1z" fill="rgb(115,65,24)"/>
<path d="M35 25h1v1h-1v-1z" fill="rgb(139,65,65)"/>
<path d="M59 25h1v1h-1v-1z" fill="rgb(139,65,65)"/>
<path d="M60 25h2v1h-1v2h-1v1h-1v1h-1v2h-1v2h-1v2h1v3h2v1h1v1h1v5h-3v1h3v-1h2v-1h3v2h-1
	v1h-2v1h-2v1h-2v2h1v5h-1v2h-1v-3h-1v-2h-1v-2h-1v-1h-1v-1h-1v-1h-2v-1h4v-1h1v-1
	h1v-6h-1v-1h-1v-1h-6v-1h1v-2h1v-2h2v1h1v2h1v-4h1v-2h1v-2h1v-1h1v-1h1v-1z" fill="rgb(255,172,189)"/>
<path d="M62 25h1v1h-1v-1z" fill="rgb(246,123,148)"/>
<path d="M32 26h1v1h-1v-1z" fill="rgb(16,16,16)"/>
<path d="M34 26h1v1h-1v-1z" fill="rgb(255,172,189)"/>
<path d="M35 26h1v1h1v2h-2v-1h-1v-1h1v-1z" fill="rgb(246,123,148)"/>
<path d="M36 26h1v1h-1v-1z" fill="rgb(16,16,16)"/>
<path d="M44 26h2v1h-2v-1z" fill="rgb(205,106,98)"/>
<path d="M46 26h1v1h-1v-1z" fill="rgb(139,65,65)"/>
<path d="M58 26h1v1h-1v-1z" fill="rgb(139,65,65)"/>
<path d="M61 26h1v1h-1v-1z" fill="rgb(246,123,148)"/>
<path d="M66 26h1v3h-1v-3z" fill="rgb(16,16,16)"/>
<path d="M32 27h1v1h-1v-1z" fill="rgb(115,65,24)"/>
<path d="M33 27h1v1h1v2h1v2h1v2h1v2h-1v2h-1v1h-1v-2h1v-3h-1v-2h-1v-2h-1v-3z" fill="rgb(16,16,16)"/>
<path d="M37 27h1v2h-1v-2z" fill="rgb(16,16,16)"/>
<path d="M42 27h2v1h-2v-1z" fill="rgb(205,106,98)"/>
<path d="M44 27h3v1h1v3h-1v1h-2v-1h-1v-1h-1v2h1v1h3v1h-1v1h-1v1h-4v-1h-1v-1h-1v-2h1v-2h1
	v-1h1v-1h2v-1z" fill="rgb(255,172,189)"/>
<path d="M47 27h1v1h-1v-1z" fill="rgb(139,65,65)"/>
<path d="M57 27h1v1h-1v-1z" fill="rgb(139,65,65)"/>
<path d="M64 27h1v1h-1v-1z" fill="rgb(115,65,24)"/>
<path d="M65 27h1v2h-1v1h-1v2h-1v1h-1v-2h1v-2h1v-1h1v-1z" fill="rgb(246,123,148)"/>
<path d="M30 28h1v3h-1v-3z" fill="rgb(16,16,16)"/>
<path d="M31 28h2v3h1v2h1v2h1v2h-1v-1h-1v-1h-1v-2h-1v-2h-1v-3z" fill="rgb(205,106,98)"/>
<path d="M41 28h1v1h-1v-1z" fill="rgb(205,106,98)"/>
<path d="M48 28h1v3h-1v-3z" fill="rgb(139,65,65)"/>
<path d="M56 28h1v1h-1v-1z" fill="rgb(139,65,65)"/>
<path d="M35 29h1v1h-1v-1z" fill="rgb(115,65,24)"/>
<path d="M36 29h2v2h1v1h-1v1h-1v-2h-1v-2z" fill="rgb(205,106,98)"/>
<path d="M38 29h1v2h-1v-2z" fill="rgb(16,16,16)"/>
<path d="M40 29h1v1h-1v-1z" fill="rgb(139,65,65)"/>
<path d="M44 29h1v1h-1v-1z" fill="rgb(205,106,98)"/>
<path d="M56 29h1v1h-1v-1z" fill="rgb(16,16,16)"/>
<path d="M65 29h1v1h-1v-1z" fill="rgb(16,16,16)"/>
<path d="M33 30h1v1h-1v-1z" fill="rgb(115,65,24)"/>
<path d="M39 30h1v2h-1v-2z" fill="rgb(139,65,65)"/>
<path d="M43 30h1v1h-1v-1z" fill="rgb(139,65,65)"/>
<path d="M49 30h1v1h-1v-1z" fill="rgb(16,16,16)"/>
<path d="M55 30h1v2h-1v-2z" fill="rgb(16,16,16)"/>
<path d="M58 30h1v1h-1v-1z" fill="rgb(115,65,24)"/>
<path d="M62 30h1v1h-1v-1z" fill="rgb(115,65,24)"/>
<path d="M64 30h1v2h-1v-2z" fill="rgb(16,16,16)"/>
<path d="M31 31h1v2h-1v-2z" fill="rgb(16,16,16)"/>
<path d="M36 31h1v1h-1v-1z" fill="rgb(115,65,24)"/>
<path d="M43 31h2v1h-2v-1z" fill="rgb(205,106,98)"/>
<path d="M47 31h1v1h-1v-1z" fill="rgb(205,106,98)"/>
<path d="M48 31h2v4h-1v2h-1v1h-2v1h-4v-1h-2v-2h-1v-2h1v1h1v1h4v-1h1v-1h1v-2h1v-1z" fill="rgb(246,123,148)"/>
<path d="M50 31h1v1h2v1h-2v2h-1v-4z" fill="rgb(139,65,65)"/>
<path d="M34 32h1v1h-1v-1z" fill="rgb(115,65,24)"/>
<path d="M38 32h1v4h-1v-4z" fill="rgb(139,65,65)"/>
<path d="M44 32h3v1h-3v-1z" fill="rgb(139,65,65)"/>
<path d="M54 32h1v1h-1v-1z" fill="rgb(139,65,65)"/>
<path d="M57 32h1v1h-1v-1z" fill="rgb(115,65,24)"/>
<path d="M61 32h1v1h-1v-1z" fill="rgb(156,106,32)"/>
<path d="M63 32h1v1h-1v-1z" fill="rgb(16,16,16)"/>
<path d="M32 33h1v2h-1v-2z" fill="rgb(16,16,16)"/>
<path d="M37 33h1v1h-1v-1z" fill="rgb(115,65,24)"/>
<path d="M53 33h1v1h-1v-1z" fill="rgb(139,65,65)"/>
<path d="M54 33h1v1h-1v-1z" fill="rgb(16,16,16)"/>
<path d="M61 33h1v2h-1v1h-1v1h-1v1h-2v-1h1v-1h1v-1h1v-1h1v-1z" fill="rgb(246,123,148)"/>
<path d="M62 33h1v1h-1v-1z" fill="rgb(139,65,65)"/>
<path d="M35 34h1v1h-1v-1z" fill="rgb(115,65,24)"/>
<path d="M54 34h1v1h-1v-1z" fill="rgb(139,65,65)"/>
<path d="M56 34h1v1h-1v-1z" fill="rgb(115,65,24)"/>
<path d="M62 34h1v1h-1v-1z" fill="rgb(16,16,16)"/>
<path d="M33 35h1v1h-1v-1z" fill="rgb(16,16,16)"/>
<path d="M49 35h1v2h-1v-2z" fill="rgb(139,65,65)"/>
<path d="M54 35h1v1h-1v-1z" fill="rgb(205,106,98)"/>
<path d="M61 35h1v1h-1v-1z" fill="rgb(16,16,16)"/>
<path d="M34 36h1v1h-1v-1z" fill="rgb(16,16,16)"/>
<path d="M37 36h1v1h-1v-1z" fill="rgb(139,65,65)"/>
<path d="M38 36h1v2h-2v-1h1v-1z" fill="rgb(255,172,189)"/>
<path d="M39 36h1v2h-1v-2z" fill="rgb(139,65,65)"/>
<path d="M60 36h1v1h-1v-1z" fill="rgb(16,16,16)"/>
<path d="M48 37h1v1h-1v-1z" fill="rgb(139,65,65)"/>
<path d="M59 37h1v1h1v2h-1v-1h-2v-1h1v-1z" fill="rgb(16,16,16)"/>
<path d="M36 38h1v1h-1v-1z" fill="rgb(255,172,189)"/>
<path d="M37 38h3v1h-3v-1z" fill="rgb(205,106,98)"/>
<path d="M40 38h2v1h-2v-1z" fill="rgb(139,65,65)"/>
<path d="M46 38h2v1h-2v-1z" fill="rgb(139,65,65)"/>
<path d="M48 38h1v1h-1v-1z" fill="rgb(255,172,189)"/>
<path d="M49 38h1v1h-1v-1z" fill="rgb(246,123,148)"/>
<path d="M50 38h4v1h-4v-1z" fill="rgb(205,106,98)"/>
<path d="M54 38h1v1h-1v-1z" fill="rgb(246,123,148)"/>
<path d="M57 38h1v1h-1v-1z" fill="rgb(139,65,65)"/>
<path d="M35 39h1v1h-1v-1z" fill="rgb(139,65,65)"/>
<path d="M36 39h1v1h-1v-1z" fill="rgb(205,106,98)"/>
<path d="M37 39h2v1h-2v-1z" fill="rgb(255,255,255)"/>
<path d="M39 39h1v1h-1v-1z" fill="rgb(230,222,230)"/>
<path d="M40 39h1v1h-1v-1z" fill="rgb(205,106,98)"/>
<path d="M41 39h1v1h-1v-1z" fill="rgb(255,172,189)"/>
<path d="M42 39h4v1h-4v-1z" fill="rgb(139,65,65)"/>
<path d="M46 39h2v1h-1v6h-5v-6h4v-1z" fill="rgb(255,172,189)"/>
<path d="M48 39h2v1h-1v1h-1v-2z" fill="rgb(205,106,98)"/>
<path d="M50 39h1v1h-1v-1z" fill="rgb(230,222,230)"/>
<path d="M51 39h2v1h-2v-1z" fill="rgb(255,255,255)"/>
<path d="M53 39h1v1h-1v-1z" fill="rgb(230,222,230)"/>
<path d="M54 39h2v2h-1v-1h-1v-1z" fill="rgb(205,106,98)"/>
<path d="M59 39h1v1h-1v-1z" fill="rgb(246,123,148)"/>
<path d="M34 40h1v3h-1v-3z" fill="rgb(139,65,65)"/>
<path d="M35 40h1v1h-1v-1z" fill="rgb(205,106,98)"/>
<path d="M36 40h1v1h-1v-1z" fill="rgb(230,222,230)"/>
<path d="M37 40h3v1h-2v2h-1v2h-1v-4h1v-1z" fill="rgb(32,90,98)"/>
<path d="M40 40h1v1h-1v-1z" fill="rgb(230,222,230)"/>
<path d="M41 40h1v1h-1v-1z" fill="rgb(246,123,148)"/>
<path d="M47 40h1v1h-1v-1z" fill="rgb(246,123,148)"/>
<path d="M49 40h1v1h-1v-1z" fill="rgb(230,222,230)"/>
<path d="M50 40h4v1h-2v2h2v-2h1v4h-1v1h-4v-1h-1v-4h1v-1z" fill="rgb(32,90,98)"/>
<path d="M54 40h1v1h-1v-1z" fill="rgb(230,222,230)"/>
<path d="M56 40h1v1h-1v-1z" fill="rgb(246,123,148)"/>
<path d="M60 40h1v1h-1v-1z" fill="rgb(246,123,148)"/>
<path d="M61 40h1v3h-1v-3z" fill="rgb(16,16,16)"/>
<path d="M35 41h1v3h-1v-3z" fill="rgb(255,255,255)"/>
<path d="M38 41h2v2h-2v-2z" fill="rgb(255,255,255)"/>
<path d="M40 41h1v4h-1v1h-3v-1h2v-1h-1v-1h2v-2z" fill="rgb(32,90,98)"/>
<path d="M41 41h1v4h-1v-4z" fill="rgb(205,106,98)"/>
<path d="M47 41h1v4h-1v-4z" fill="rgb(205,106,98)"/>
<path d="M48 41h1v1h-1v-1z" fill="rgb(230,222,230)"/>
<path d="M52 41h2v2h-2v-2z" fill="rgb(255,255,255)"/>
<path d="M55 41h1v1h-1v-1z" fill="rgb(230,222,230)"/>
<path d="M56 41h1v4h-1v-4z" fill="rgb(205,106,98)"/>
<path d="M48 42h1v2h-1v-2z" fill="rgb(255,255,255)"/>
<path d="M55 42h1v2h-1v-2z" fill="rgb(255,255,255)"/>
<path d="M33 43h2v2h-1v-1h-1v-1z" fill="rgb(205,106,98)"/>
<path d="M37 43h1v1h1v1h-2v-2z" fill="rgb(82,164,139)"/>
<path d="M50 43h1v1h1v1h-2v-2z" fill="rgb(82,164,139)"/>
<path d="M61 43h1v2h-1v-2z" fill="rgb(246,123,148)"/>
<path d="M62 43h1v2h-1v-2z" fill="rgb(16,16,16)"/>
<path d="M33 44h1v3h-2v-1h1v-2z" fill="rgb(139,65,65)"/>
<path d="M35 44h1v1h-1v-1z" fill="rgb(230,222,230)"/>
<path d="M48 44h1v1h-1v-1z" fill="rgb(230,222,230)"/>
<path d="M55 44h1v1h-1v-1z" fill="rgb(230,222,230)"/>
<path d="M63 44h3v1h-3v-1z" fill="rgb(139,65,65)"/>
<path d="M29 45h3v1h-3v-1z" fill="rgb(139,65,65)"/>
<path d="M34 45h1v1h-1v-1z" fill="rgb(246,123,148)"/>
<path d="M35 45h1v1h1v1h-2v-2z" fill="rgb(205,106,98)"/>
<path d="M36 45h1v1h-1v-1z" fill="rgb(230,222,230)"/>
<path d="M40 45h1v1h-1v-1z" fill="rgb(230,222,230)"/>
<path d="M41 45h1v1h-1v-1z" fill="rgb(246,123,148)"/>
<path d="M47 45h1v1h-1v-1z" fill="rgb(246,123,148)"/>
<path d="M48 45h1v1h1v1h-2v-2z" fill="rgb(205,106,98)"/>
<path d="M49 45h1v1h-1v-1z" fill="rgb(230,222,230)"/>
<path d="M54 45h1v1h-1v-1z" fill="rgb(230,222,230)"/>
<path d="M55 45h1v2h-2v-1h1v-1z" fill="rgb(205,106,98)"/>
<path d="M56 45h1v1h-1v-1z" fill="rgb(246,123,148)"/>
<path d="M61 45h2v1h-2v-1z" fill="rgb(139,65,65)"/>
<path d="M66 45h1v1h-1v-1z" fill="rgb(139,65,65)"/>
<path d="M28 46h1v3h-1v-3z" fill="rgb(139,65,65)"/>
<path d="M29 46h3v1h1v1h-1v3h-1v-1h-1v-2h-1v-2z" fill="rgb(255,172,189)"/>
<path d="M34 46h1v1h1v1h3v1h-1v1h-1v2h-1v3h-1v4h-1v-1h-1v-10h1v-2z" fill="rgb(255,172,189)"/>
<path d="M37 46h2v1h-2v-1z" fill="rgb(255,255,255)"/>
<path d="M39 46h1v1h-1v-1z" fill="rgb(230,222,230)"/>
<path d="M40 46h1v1h-1v-1z" fill="rgb(205,106,98)"/>
<path d="M41 46h1v1h-1v-1z" fill="rgb(255,172,189)"/>
<path d="M42 46h1v1h-1v-1z" fill="rgb(230,222,230)"/>
<path d="M43 46h3v1h2v1h-7v1h1v1h1v1h4v-1h1v-2h2v1h2v1h1v1h1v1h1v1h1v2h1v2h1v4h-2v1h-3v1
	h-4v1h-8v-1h-3v-1h-1v-1h-1v-1h-1v-4h1v-3h1v-2h1v-2h1v-1h1v-1h3v-1z" fill="rgb(255,255,255)"/>
<path d="M46 46h1v1h-1v-1z" fill="rgb(230,222,230)"/>
<path d="M47 46h1v1h-1v-1z" fill="rgb(255,172,189)"/>
<path d="M50 46h1v1h-1v-1z" fill="rgb(230,222,230)"/>
<path d="M51 46h2v1h-2v-1z" fill="rgb(255,255,255)"/>
<path d="M53 46h1v1h-1v-1z" fill="rgb(230,222,230)"/>
<path d="M58 46h1v1h-1v-1z" fill="rgb(205,106,98)"/>
<path d="M59 46h2v1h-2v-1z" fill="rgb(139,65,65)"/>
<path d="M66 46h1v2h-1v-2z" fill="rgb(16,16,16)"/>
<path d="M33 47h1v1h-1v-1z" fill="rgb(205,106,98)"/>
<path d="M36 47h1v1h-1v-1z" fill="rgb(246,123,148)"/>
<path d="M37 47h3v1h-3v-1z" fill="rgb(205,106,98)"/>
<path d="M48 47h1v1h-1v-1z" fill="rgb(230,222,230)"/>
<path d="M49 47h1v1h-1v-1z" fill="rgb(246,123,148)"/>
<path d="M50 47h4v1h-4v-1z" fill="rgb(205,106,98)"/>
<path d="M54 47h1v1h-1v-1z" fill="rgb(246,123,148)"/>
<path d="M65 47h1v1h-1v-1z" fill="rgb(246,123,148)"/>
<path d="M29 48h1v1h-1v-1z" fill="rgb(205,106,98)"/>
<path d="M32 48h1v3h-1v-3z" fill="rgb(205,106,98)"/>
<path d="M41 48h4v1h-2v1h-1v-1h-1v-1z" fill="rgb(115,65,24)"/>
<path d="M45 48h3v1h-3v-1z" fill="rgb(156,106,32)"/>
<path d="M50 48h1v1h-1v-1z" fill="rgb(230,222,230)"/>
<path d="M63 48h2v2h-1v1h-2v1h-3v-2h2v-1h2v-1z" fill="rgb(246,123,148)"/>
<path d="M65 48h1v2h-1v-2z" fill="rgb(16,16,16)"/>
<path d="M29 49h1v1h-1v-1z" fill="rgb(139,65,65)"/>
<path d="M43 49h1v1h-1v-1z" fill="rgb(156,106,32)"/>
<path d="M44 49h4v1h-1v1h-3v-2z" fill="rgb(230,49,49)"/>
<path d="M52 49h1v1h-1v-1z" fill="rgb(230,222,230)"/>
<path d="M30 50h1v1h-1v-1z" fill="rgb(139,65,65)"/>
<path d="M37 50h1v1h-1v-1z" fill="rgb(230,222,230)"/>
<path d="M43 50h1v1h-1v-1z" fill="rgb(255,172,189)"/>
<path d="M53 50h1v1h-1v-1z" fill="rgb(230,222,230)"/>
<path d="M64 50h1v1h-1v-1z" fill="rgb(16,16,16)"/>
<path d="M31 51h1v1h-1v-1z" fill="rgb(139,65,65)"/>
<path d="M32 51h1v7h-1v-7z" fill="rgb(16,16,16)"/>
<path d="M54 51h1v1h-1v-1z" fill="rgb(230,222,230)"/>
<path d="M62 51h2v2h-1v-1h-1v-1z" fill="rgb(16,16,16)"/>
<path d="M36 52h1v1h-1v-1z" fill="rgb(230,222,230)"/>
<path d="M55 52h1v1h-1v-1z" fill="rgb(230,222,230)"/>
<path d="M60 52h2v1h-2v-1z" fill="rgb(139,65,65)"/>
<path d="M62 52h1v1h1v3h1v5h-1v2h-1v2h-1v1h-1v1h-2v1h-2v-1h1v-2h1v-8h1v-4h2v-1z" fill="rgb(246,123,148)"/>
<path d="M64 53h1v3h-1v-3z" fill="rgb(16,16,16)"/>
<path d="M56 54h1v1h-1v-1z" fill="rgb(230,222,230)"/>
<path d="M35 55h1v1h-1v-1z" fill="rgb(230,222,230)"/>
<path d="M57 56h1v1h-1v-1z" fill="rgb(230,222,230)"/>
<path d="M65 56h1v5h-1v-5z" fill="rgb(16,16,16)"/>
<path d="M33 58h1v3h-1v-3z" fill="rgb(16,16,16)"/>
<path d="M34 59h1v2h-1v-2z" fill="rgb(246,123,148)"/>
<path d="M58 59h1v6h-1v2h-1v1h-1v1h-4v1h-8v-1h-3v-1h-2v-1h-1v-1h-1v-1h-1v-2h-1v-3h1v1h1
	v1h1v1h3v1h8v-1h4v-1h3v-1h2v-2z" fill="rgb(230,222,230)"/>
<path d="M34 61h1v2h-1v-2z" fill="rgb(16,16,16)"/>
<path d="M64 61h1v2h-1v-2z" fill="rgb(16,16,16)"/>
<path d="M35 63h1v2h-1v-2z" fill="rgb(16,16,16)"/>
<path d="M63 63h1v2h-1v-2z" fill="rgb(16,16,16)"/>
<path d="M36 65h1v1h-1v-1z" fill="rgb(16,16,16)"/>
<path d="M62 65h1v1h-1v-1z" fill="rgb(16,16,16)"/>
<path d="M37 66h1v1h-1v-1z" fill="rgb(16,16,16)"/>
<path d="M61 66h1v1h-1v-1z" fill="rgb(16,16,16)"/>
<path d="M38 67h1v1h-1v-1z" fill="rgb(16,16,16)"/>
<path d="M59 67h2v1h-1v4h-1v-3h-3v-1h3v-1z" fill="rgb(16,16,16)"/>
<path d="M39 68h2v1h-2v-1z" fill="rgb(16,16,16)"/>
<path d="M37 69h3v1h-3v-1z" fill="rgb(139,65,65)"/>
<path d="M40 69h1v1h3v1h-1v1h-1v1h-2v-1h1v-1h-1v-2z" fill="rgb(246,123,148)"/>
<path d="M41 69h3v1h-3v-1z" fill="rgb(16,16,16)"/>
<path d="M52 69h1v1h-1v-1z" fill="rgb(139,65,65)"/>
<path d="M53 69h3v1h-2v1h-1v-2z" fill="rgb(16,16,16)"/>
<path d="M56 69h3v3h-1v2h-1v1h-3v-1h2v-1h1v-2h-3v-1h2v-1z" fill="rgb(246,123,148)"/>
<path d="M36 70h1v1h-1v-1z" fill="rgb(139,65,65)"/>
<path d="M37 70h3v1h1v1h-1v1h-3v-1h-1v-1h1v-1z" fill="rgb(255,172,189)"/>
<path d="M44 70h8v1h-8v-1z" fill="rgb(16,16,16)"/>
<path d="M52 70h1v1h-1v-1z" fill="transparent"/>
<path d="M35 71h1v2h-1v-2z" fill="rgb(16,16,16)"/>
<path d="M43 71h1v1h-1v-1z" fill="rgb(16,16,16)"/>
<path d="M52 71h1v2h-1v-2z" fill="rgb(139,65,65)"/>
<path d="M53 71h4v2h-1v1h-3v-3z" fill="rgb(255,172,189)"/>
<path d="M36 72h1v1h-1v-1z" fill="rgb(246,123,148)"/>
<path d="M42 72h1v1h-1v-1z" fill="rgb(16,16,16)"/>
<path d="M58 72h1v2h-1v-2z" fill="rgb(16,16,16)"/>
<path d="M36 73h1v1h-1v-1z" fill="rgb(16,16,16)"/>
<path d="M37 73h3v1h-3v-1z" fill="rgb(246,123,148)"/>
<path d="M40 73h2v1h-2v-1z" fill="rgb(16,16,16)"/>
<path d="M52 73h1v1h-1v-1z" fill="rgb(16,16,16)"/>
<path d="M37 74h3v1h-3v-1z" fill="rgb(16,16,16)"/>
<path d="M53 74h1v1h-1v-1z" fill="rgb(16,16,16)"/>
<path d="M57 74h1v1h-1v-1z" fill="rgb(16,16,16)"/>
<path d="M54 75h3v1h-3v-1z" fill="rgb(16,16,16)"/>
</svg>
