<?xml version="1.0" encoding="utf-8"?>
<!-- generated at drububu.com  -->
<!DOCTYPE svg PUBLIC "-//W3C//DTD SVG 1.1//EN" "http://www.w3.org/Graphics/SVG/1.1/DTD/svg11.dtd">
<svg version="1.1" preserveAspectRatio="xMinYMin meet" xmlns="http://www.w3.org/2000/svg" xmlns:xlink="http://www.w3.org/1999/xlink" x="0px" y="0px" width="96px" height="96px" viewBox="0 0 96 96">
<path d="M0 0h96v96h-96v-96z" fill="transparent"/>
<path d="M63 28h5v1h-5v-1z" fill="rgb(16,16,16)"/>
<path d="M38 29h4v2h-1v-1h-3v-1z" fill="rgb(98,123,180)"/>
<path d="M58 29h5v1h-5v-1z" fill="rgb(16,16,16)"/>
<path d="M63 29h5v1h-5v-1z" fill="rgb(98,123,180)"/>
<path d="M68 29h1v1h-1v-1z" fill="rgb(16,16,16)"/>
<path d="M36 30h2v1h-2v-1z" fill="rgb(98,123,180)"/>
<path d="M38 30h3v1h-2v1h-2v1h-2v1h-2v1h-1v1h-1v1h-1v1h-1v2h-1v2h-1v1h-1v-2h1v-2h1v-2h1
	v-1h1v-1h1v-1h1v-1h2v-1h2v-1h2v-1z" fill="rgb(189,205,255)"/>
<path d="M55 30h3v1h-3v-1z" fill="rgb(16,16,16)"/>
<path d="M58 30h1v1h-1v-1z" fill="rgb(139,180,238)"/>
<path d="M59 30h2v1h-2v-1z" fill="rgb(189,205,255)"/>
<path d="M61 30h2v1h-2v-1z" fill="rgb(139,180,238)"/>
<path d="M63 30h5v1h-5v-1z" fill="rgb(74,65,123)"/>
<path d="M34 31h2v1h-2v-1z" fill="rgb(98,123,180)"/>
<path d="M39 31h1v2h-1v3h1v2h-2v1h-3v1h-2v1h-2v1h-1v2h1v1h2v1h1v2h-1v-1h-1v-1h-2v-1h-1
	v-1h-3v-1h1v-1h1v-2h1v-2h1v-1h1v-1h1v-1h1v-1h2v-1h2v-1h2v-1z" fill="rgb(139,180,238)"/>
<path d="M40 31h1v1h-1v-1z" fill="rgb(98,123,180)"/>
<path d="M52 31h3v1h-3v-1z" fill="rgb(16,16,16)"/>
<path d="M55 31h3v1h-3v-1z" fill="rgb(139,180,238)"/>
<path d="M58 31h2v1h-2v-1z" fill="rgb(98,123,180)"/>
<path d="M60 31h3v1h-3v-1z" fill="rgb(74,65,123)"/>
<path d="M63 31h2v1h-1v1h-1v1h-1v1h-1v2h-1v2h-1v2h-1v-1h-6v-1h-1v-2h1v-1h1v-1h1v-1h2v-1
	h3v-1h4v-1z" fill="rgb(180,82,156)"/>
<path d="M65 31h1v1h-1v-1z" fill="rgb(115,32,90)"/>
<path d="M32 32h2v1h-2v-1z" fill="rgb(98,123,180)"/>
<path d="M40 32h1v1h-1v-1z" fill="rgb(74,65,123)"/>
<path d="M50 32h2v1h-2v-1z" fill="rgb(16,16,16)"/>
<path d="M52 32h2v1h-2v-1z" fill="rgb(139,180,238)"/>
<path d="M54 32h2v1h-2v-1z" fill="rgb(189,205,255)"/>
<path d="M56 32h3v1h-3v-1z" fill="rgb(74,65,123)"/>
<path d="M64 32h1v1h-1v-1z" fill="rgb(115,32,90)"/>
<path d="M31 33h1v1h-1v-1z" fill="rgb(98,123,180)"/>
<path d="M39 33h1v3h-1v-3z" fill="rgb(74,65,123)"/>
<path d="M49 33h1v1h-1v-1z" fill="rgb(16,16,16)"/>
<path d="M50 33h1v3h-1v-3z" fill="rgb(139,180,238)"/>
<path d="M51 33h2v1h-2v-1z" fill="rgb(189,205,255)"/>
<path d="M53 33h1v1h-1v-1z" fill="rgb(98,123,180)"/>
<path d="M54 33h2v1h-2v-1z" fill="rgb(74,65,123)"/>
<path d="M63 33h1v1h-1v-1z" fill="rgb(115,32,90)"/>
<path d="M30 34h1v1h-1v-1z" fill="rgb(98,123,180)"/>
<path d="M49 34h1v2h-1v-2z" fill="rgb(74,65,123)"/>
<path d="M51 34h1v1h-1v-1z" fill="rgb(98,123,180)"/>
<path d="M52 34h2v1h-2v-1z" fill="rgb(74,65,123)"/>
<path d="M62 34h1v1h-1v-1z" fill="rgb(115,32,90)"/>
<path d="M29 35h1v1h-1v-1z" fill="rgb(98,123,180)"/>
<path d="M51 35h2v1h-1v1h-1v-2z" fill="rgb(115,32,90)"/>
<path d="M61 35h1v2h-1v-2z" fill="rgb(115,32,90)"/>
<path d="M28 36h1v1h-1v-1z" fill="rgb(98,123,180)"/>
<path d="M40 36h1v2h-1v-2z" fill="rgb(74,65,123)"/>
<path d="M48 36h1v5h-1v-5z" fill="rgb(74,65,123)"/>
<path d="M49 36h1v1h-1v-1z" fill="rgb(139,180,238)"/>
<path d="M50 36h1v1h-1v-1z" fill="rgb(98,123,180)"/>
<path d="M27 37h1v2h-1v-2z" fill="rgb(98,123,180)"/>
<path d="M49 37h1v2h-1v-2z" fill="rgb(189,205,255)"/>
<path d="M50 37h1v2h1v1h-2v-3z" fill="rgb(115,32,90)"/>
<path d="M60 37h1v2h-1v-2z" fill="rgb(115,32,90)"/>
<path d="M38 38h2v1h-2v-1z" fill="rgb(189,205,255)"/>
<path d="M40 38h1v1h-1v-1z" fill="rgb(139,180,238)"/>
<path d="M41 38h1v3h-2v-1h-1v-1h2v-1z" fill="rgb(74,65,123)"/>
<path d="M26 39h1v2h-1v-2z" fill="rgb(98,123,180)"/>
<path d="M35 39h2v1h-2v-1z" fill="rgb(189,205,255)"/>
<path d="M37 39h2v1h1v1h-2v-1h-1v-1z" fill="rgb(98,123,180)"/>
<path d="M49 39h1v3h-1v-3z" fill="rgb(139,180,238)"/>
<path d="M59 39h1v2h-1v-2z" fill="rgb(115,32,90)"/>
<path d="M33 40h2v1h-2v-1z" fill="rgb(189,205,255)"/>
<path d="M35 40h1v1h2v1h-1v1h-1v2h-1v2h-1v-1h-1v-1h-2v-1h-1v-2h1v1h1v-1h3v-2z" fill="rgb(98,123,180)"/>
<path d="M36 40h2v1h-2v-1z" fill="rgb(74,65,123)"/>
<path d="M42 40h1v1h-1v-1z" fill="rgb(98,123,180)"/>
<path d="M50 40h5v1h-5v-1z" fill="rgb(98,123,180)"/>
<path d="M55 40h3v1h-3v-1z" fill="rgb(115,32,90)"/>
<path d="M25 41h1v1h-1v-1z" fill="rgb(98,123,180)"/>
<path d="M31 41h1v1h-1v-1z" fill="rgb(189,205,255)"/>
<path d="M32 41h3v1h-3v-1z" fill="rgb(74,65,123)"/>
<path d="M38 41h2v1h-2v-1z" fill="rgb(74,65,123)"/>
<path d="M40 41h3v1h-2v1h-2v2h-1v2h-1v1h-1v-3h1v-2h1v-1h2v-1z" fill="rgb(189,205,255)"/>
<path d="M43 41h1v2h-1v-2z" fill="rgb(98,123,180)"/>
<path d="M47 41h1v4h-1v-4z" fill="rgb(74,65,123)"/>
<path d="M48 41h1v1h-1v-1z" fill="rgb(189,205,255)"/>
<path d="M50 41h5v1h-5v-1z" fill="rgb(74,65,123)"/>
<path d="M55 41h5v1h-5v-1z" fill="rgb(98,123,180)"/>
<path d="M60 41h1v1h-1v-1z" fill="rgb(74,65,123)"/>
<path d="M25 42h1v2h-1v-2z" fill="rgb(74,65,123)"/>
<path d="M31 42h1v1h-1v-1z" fill="rgb(74,65,123)"/>
<path d="M37 42h1v1h-1v-1z" fill="rgb(74,65,123)"/>
<path d="M41 42h1v1h1v1h-1v1h-1v1h-1v2h-1v-1h-1v-1h1v-2h1v-1h1v-1z" fill="rgb(180,82,156)"/>
<path d="M42 42h1v1h-1v-1z" fill="rgb(115,32,90)"/>
<path d="M48 42h1v4h-1v-4z" fill="rgb(139,180,238)"/>
<path d="M49 42h2v2h-1v2h-1v-4z" fill="rgb(115,32,90)"/>
<path d="M51 42h4v1h3v1h-3v1h-2v1h-1v1h-1v1h-1v1h-1v-3h1v-2h1v-2z" fill="rgb(180,82,156)"/>
<path d="M55 42h5v1h-5v-1z" fill="rgb(74,65,123)"/>
<path d="M36 43h1v2h-1v-2z" fill="rgb(74,65,123)"/>
<path d="M39 43h1v1h-1v-1z" fill="rgb(139,180,238)"/>
<path d="M43 43h1v1h-1v-1z" fill="rgb(74,65,123)"/>
<path d="M58 43h1v1h-1v-1z" fill="rgb(115,32,90)"/>
<path d="M26 44h2v1h-2v-1z" fill="rgb(74,65,123)"/>
<path d="M28 44h1v1h-1v-1z" fill="rgb(98,123,180)"/>
<path d="M42 44h1v3h-1v3h-1v-1h-1v-3h1v-1h1v-1z" fill="rgb(213,115,189)"/>
<path d="M43 44h1v3h-1v-3z" fill="rgb(115,32,90)"/>
<path d="M55 44h3v1h-3v-1z" fill="rgb(115,32,90)"/>
<path d="M28 45h1v1h-1v-1z" fill="rgb(74,65,123)"/>
<path d="M29 45h1v1h-1v-1z" fill="rgb(98,123,180)"/>
<path d="M35 45h1v2h-1v-2z" fill="rgb(74,65,123)"/>
<path d="M38 45h1v1h-1v-1z" fill="rgb(139,180,238)"/>
<path d="M46 45h1v3h-1v-3z" fill="rgb(74,65,123)"/>
<path d="M47 45h1v2h-1v-2z" fill="rgb(189,205,255)"/>
<path d="M53 45h2v1h-2v-1z" fill="rgb(115,32,90)"/>
<path d="M30 46h1v1h-1v-1z" fill="rgb(74,65,123)"/>
<path d="M31 46h1v1h-1v-1z" fill="rgb(98,123,180)"/>
<path d="M48 46h1v3h-1v-3z" fill="rgb(115,32,90)"/>
<path d="M52 46h1v1h-1v-1z" fill="rgb(115,32,90)"/>
<path d="M32 47h1v1h-1v-1z" fill="rgb(74,65,123)"/>
<path d="M34 47h1v3h-1v-1h-1v-1h1v-1z" fill="rgb(74,65,123)"/>
<path d="M35 47h1v1h1v4h1v1h2v1h2v-1h1v1h1v-2h1v-1h1v2h-1v1h2v-1h1v4h-1v1h-2v1h-3v1h-1v1
	h-1v1h-2v-1h1v-4h-1v-1h-1v-1h-5v-1h1v-2h-1v-1h3v-4z" fill="rgb(139,180,238)"/>
<path d="M37 47h1v1h-1v-1z" fill="rgb(139,180,238)"/>
<path d="M38 47h1v1h1v4h-2v-3h-1v-1h1v-1z" fill="rgb(115,32,90)"/>
<path d="M42 47h1v4h-1v-4z" fill="rgb(115,32,90)"/>
<path d="M47 47h1v2h-1v-2z" fill="rgb(139,180,238)"/>
<path d="M51 47h1v1h-1v-1z" fill="rgb(115,32,90)"/>
<path d="M45 48h1v2h-1v-2z" fill="rgb(74,65,123)"/>
<path d="M46 48h1v1h-1v-1z" fill="rgb(189,205,255)"/>
<path d="M50 48h1v1h-1v-1z" fill="rgb(115,32,90)"/>
<path d="M23 49h5v1h-5v-1z" fill="rgb(98,123,180)"/>
<path d="M37 49h1v3h-1v-3z" fill="rgb(74,65,123)"/>
<path d="M40 49h1v1h1v1h-1v1h-1v-3z" fill="rgb(180,82,156)"/>
<path d="M46 49h1v2h-1v-2z" fill="rgb(139,180,238)"/>
<path d="M47 49h1v2h1v1h-2v1h-1v-2h1v-2z" fill="rgb(115,32,90)"/>
<path d="M48 49h1v2h-1v-2z" fill="rgb(180,82,156)"/>
<path d="M49 49h1v2h-1v-2z" fill="rgb(115,32,90)"/>
<path d="M22 50h1v2h-1v-2z" fill="rgb(98,123,180)"/>
<path d="M23 50h3v1h-3v-1z" fill="rgb(189,205,255)"/>
<path d="M26 50h2v1h2v1h-1v1h-2v-2h-1v-1z" fill="rgb(139,180,238)"/>
<path d="M28 50h1v1h-1v-1z" fill="rgb(74,65,123)"/>
<path d="M29 50h1v1h-1v-1z" fill="rgb(98,123,180)"/>
<path d="M32 50h2v1h-2v-1z" fill="rgb(74,65,123)"/>
<path d="M34 50h1v1h-1v-1z" fill="rgb(98,123,180)"/>
<path d="M44 50h1v1h-1v-1z" fill="rgb(74,65,123)"/>
<path d="M45 50h1v1h-1v-1z" fill="rgb(189,205,255)"/>
<path d="M23 51h1v2h-1v-2z" fill="rgb(115,32,90)"/>
<path d="M24 51h1v1h1v1h-2v-2z" fill="rgb(180,82,156)"/>
<path d="M25 51h1v1h-1v-1z" fill="rgb(139,180,238)"/>
<path d="M26 51h1v1h-1v-1z" fill="rgb(189,205,255)"/>
<path d="M30 51h2v1h-2v-1z" fill="rgb(74,65,123)"/>
<path d="M41 51h1v1h-1v-1z" fill="rgb(115,32,90)"/>
<path d="M44 51h1v1h-1v-1z" fill="rgb(98,123,180)"/>
<path d="M26 52h1v1h1v2h-1v-1h-1v-2z" fill="rgb(115,32,90)"/>
<path d="M29 52h1v1h-1v-1z" fill="rgb(98,123,180)"/>
<path d="M30 52h3v2h-1v1h-1v1h-2v1h-1v-2h1v-2h1v-1z" fill="rgb(189,205,255)"/>
<path d="M38 52h1v1h-1v-1z" fill="rgb(98,123,180)"/>
<path d="M39 52h1v1h-1v-1z" fill="rgb(74,65,123)"/>
<path d="M40 52h1v1h-1v-1z" fill="rgb(115,32,90)"/>
<path d="M41 52h2v1h-2v-1z" fill="rgb(74,65,123)"/>
<path d="M43 52h1v2h-1v-2z" fill="rgb(98,123,180)"/>
<path d="M47 52h2v1h-2v-1z" fill="rgb(74,65,123)"/>
<path d="M67 52h5v1h-5v-1z" fill="rgb(98,123,180)"/>
<path d="M24 53h1v1h-1v-1z" fill="rgb(115,32,90)"/>
<path d="M25 53h1v1h-1v-1z" fill="rgb(213,115,189)"/>
<path d="M28 53h1v2h-1v-2z" fill="rgb(98,123,180)"/>
<path d="M40 53h2v1h-2v-1z" fill="rgb(98,123,180)"/>
<path d="M45 53h2v1h-2v-1z" fill="rgb(74,65,123)"/>
<path d="M48 53h1v1h1v2h1v-1h5v1h-4v1h-1v2h-1v1h-1v1h-2v1h-4v-1h-2v-1h1v-1h3v-1h2v-1h1
	v-4z" fill="rgb(98,123,180)"/>
<path d="M49 53h1v1h-1v-1z" fill="rgb(74,65,123)"/>
<path d="M62 53h5v1h-5v-1z" fill="rgb(98,123,180)"/>
<path d="M67 53h5v1h-5v-1z" fill="rgb(139,180,238)"/>
<path d="M72 53h1v1h-1v-1z" fill="rgb(16,16,16)"/>
<path d="M25 54h1v1h-1v-1z" fill="rgb(115,32,90)"/>
<path d="M26 54h1v1h-1v-1z" fill="rgb(213,115,189)"/>
<path d="M50 54h1v2h-1v-2z" fill="rgb(74,65,123)"/>
<path d="M56 54h6v1h-6v-1z" fill="rgb(98,123,180)"/>
<path d="M62 54h5v1h-4v1h-6v1h-5v-1h4v-1h6v-1z" fill="rgb(139,180,238)"/>
<path d="M67 54h1v1h-1v-1z" fill="rgb(98,123,180)"/>
<path d="M68 54h4v1h-4v-1z" fill="rgb(16,16,16)"/>
<path d="M26 55h1v1h-1v-1z" fill="rgb(115,32,90)"/>
<path d="M27 55h1v2h-1v-2z" fill="rgb(98,123,180)"/>
<path d="M31 55h1v1h-1v-1z" fill="rgb(139,180,238)"/>
<path d="M32 55h1v1h-1v-1z" fill="rgb(98,123,180)"/>
<path d="M33 55h3v1h-3v-1z" fill="rgb(74,65,123)"/>
<path d="M36 55h1v1h-1v-1z" fill="rgb(98,123,180)"/>
<path d="M63 55h1v1h-1v-1z" fill="rgb(98,123,180)"/>
<path d="M64 55h4v1h-4v-1z" fill="rgb(16,16,16)"/>
<path d="M29 56h1v1h-1v-1z" fill="rgb(139,180,238)"/>
<path d="M30 56h2v1h-2v-1z" fill="rgb(74,65,123)"/>
<path d="M32 56h1v1h-1v-1z" fill="rgb(255,255,255)"/>
<path d="M33 56h1v1h-1v-1z" fill="rgb(213,213,213)"/>
<path d="M34 56h3v1h1v3h-1v-1h-1v3h-2v-1h1v-3h-1v-2z" fill="rgb(16,16,16)"/>
<path d="M37 56h1v1h-1v-1z" fill="rgb(74,65,123)"/>
<path d="M57 56h1v1h-1v-1z" fill="rgb(98,123,180)"/>
<path d="M58 56h6v1h-6v-1z" fill="rgb(16,16,16)"/>
<path d="M27 57h1v1h-1v-1z" fill="rgb(74,65,123)"/>
<path d="M28 57h1v1h-1v-1z" fill="rgb(139,180,238)"/>
<path d="M29 57h1v1h-1v-1z" fill="rgb(74,65,123)"/>
<path d="M30 57h3v1h-2v1h-1v-2z" fill="rgb(16,16,16)"/>
<path d="M33 57h1v1h-1v-1z" fill="rgb(255,255,255)"/>
<path d="M38 57h1v3h-1v-3z" fill="rgb(74,65,123)"/>
<path d="M51 57h1v1h2v1h-3v-2z" fill="rgb(16,16,16)"/>
<path d="M52 57h2v1h-2v-1z" fill="rgb(98,123,180)"/>
<path d="M54 57h4v1h-4v-1z" fill="rgb(16,16,16)"/>
<path d="M28 58h1v2h-1v-2z" fill="rgb(98,98,98)"/>
<path d="M29 58h1v2h-1v-2z" fill="rgb(255,255,255)"/>
<path d="M31 58h4v3h-1v-1h-1v-1h-2v-1z" fill="rgb(98,98,98)"/>
<path d="M54 58h2v1h-2v-1z" fill="rgb(74,65,123)"/>
<path d="M30 59h2v1h-2v-1z" fill="rgb(74,65,123)"/>
<path d="M32 59h1v1h-1v-1z" fill="rgb(16,16,16)"/>
<path d="M36 59h1v1h-1v-1z" fill="rgb(213,213,213)"/>
<path d="M50 59h1v1h2v1h-4v-1h1v-1z" fill="rgb(16,16,16)"/>
<path d="M51 59h5v1h2v1h3v1h3v1h3v1h-4v-1h-3v-1h-3v-1h-4v-1h-2v-1z" fill="rgb(98,123,180)"/>
<path d="M56 59h2v1h-2v-1z" fill="rgb(74,65,123)"/>
<path d="M29 60h1v1h-1v-1z" fill="rgb(98,98,98)"/>
<path d="M33 60h1v1h-1v-1z" fill="rgb(16,16,16)"/>
<path d="M36 60h1v1h-1v-1z" fill="rgb(255,255,255)"/>
<path d="M37 60h1v1h-1v-1z" fill="rgb(213,213,213)"/>
<path d="M38 60h1v1h-1v-1z" fill="rgb(98,123,180)"/>
<path d="M58 60h3v1h-3v-1z" fill="rgb(74,65,123)"/>
<path d="M32 61h1v2h-1v-2z" fill="rgb(98,98,98)"/>
<path d="M33 61h1v1h-1v-1z" fill="rgb(213,213,213)"/>
<path d="M36 61h1v1h-1v-1z" fill="rgb(74,65,123)"/>
<path d="M37 61h1v1h-1v-1z" fill="rgb(98,123,180)"/>
<path d="M40 61h1v1h-1v-1z" fill="rgb(74,65,123)"/>
<path d="M41 61h2v1h-2v-1z" fill="rgb(16,16,16)"/>
<path d="M47 61h2v1h-2v-1z" fill="rgb(16,16,16)"/>
<path d="M53 61h4v1h-4v-1z" fill="rgb(16,16,16)"/>
<path d="M61 61h3v1h-3v-1z" fill="rgb(74,65,123)"/>
<path d="M33 62h1v1h-1v-1z" fill="rgb(255,255,255)"/>
<path d="M34 62h2v1h-2v-1z" fill="rgb(74,65,123)"/>
<path d="M36 62h2v1h-1v1h-3v-1h2v-1z" fill="rgb(139,180,238)"/>
<path d="M38 62h1v1h-1v-1z" fill="rgb(98,123,180)"/>
<path d="M39 62h1v1h-1v-1z" fill="rgb(16,16,16)"/>
<path d="M43 62h4v1h-4v-1z" fill="rgb(16,16,16)"/>
<path d="M57 62h3v1h-3v-1z" fill="rgb(16,16,16)"/>
<path d="M64 62h3v1h-3v-1z" fill="rgb(74,65,123)"/>
<path d="M33 63h1v1h-1v-1z" fill="rgb(16,16,16)"/>
<path d="M37 63h2v1h-2v-1z" fill="rgb(16,16,16)"/>
<path d="M60 63h3v1h-3v-1z" fill="rgb(16,16,16)"/>
<path d="M67 63h1v1h-1v-1z" fill="rgb(74,65,123)"/>
<path d="M34 64h3v1h-3v-1z" fill="rgb(16,16,16)"/>
<path d="M63 64h4v1h-4v-1z" fill="rgb(16,16,16)"/>
</svg>
