<?xml version="1.0" encoding="utf-8"?>
<!-- generated at drububu.com  -->
<!DOCTYPE svg PUBLIC "-//W3C//DTD SVG 1.1//EN" "http://www.w3.org/Graphics/SVG/1.1/DTD/svg11.dtd">
<svg version="1.1" preserveAspectRatio="xMinYMin meet" xmlns="http://www.w3.org/2000/svg" xmlns:xlink="http://www.w3.org/1999/xlink" x="0px" y="0px" width="96px" height="96px" viewBox="0 0 96 96">
<path d="M0 0h96v96h-96v-96z" fill="transparent"/>
<path d="M79 15h8v1h-8v-1z" fill="rgb(98,131,205)"/>
<path d="M9 16h5v1h-5v-1z" fill="rgb(98,131,205)"/>
<path d="M74 16h4v1h-4v-1z" fill="rgb(57,57,123)"/>
<path d="M78 16h1v1h-1v-1z" fill="rgb(98,131,205)"/>
<path d="M79 16h8v1h-8v-1z" fill="rgb(90,172,238)"/>
<path d="M87 16h1v1h-1v-1z" fill="rgb(0,0,0)"/>
<path d="M8 17h1v1h-1v-1z" fill="rgb(0,0,0)"/>
<path d="M9 17h5v1h-5v-1z" fill="rgb(172,205,255)"/>
<path d="M14 17h3v1h-3v-1z" fill="rgb(98,131,205)"/>
<path d="M72 17h2v1h-2v-1z" fill="rgb(57,57,123)"/>
<path d="M74 17h5v1h-3v1h-3v1h-2v1h-1v-1h-1v-1h3v-1h2v-1z" fill="rgb(90,172,238)"/>
<path d="M79 17h2v1h-2v-1z" fill="rgb(98,131,205)"/>
<path d="M81 17h1v1h-1v-1z" fill="rgb(57,57,123)"/>
<path d="M82 17h5v1h-5v-1z" fill="rgb(0,0,0)"/>
<path d="M9 18h2v1h-2v-1z" fill="rgb(0,0,0)"/>
<path d="M11 18h3v1h-3v-1z" fill="rgb(57,57,123)"/>
<path d="M14 18h3v1h-3v-1z" fill="rgb(172,205,255)"/>
<path d="M17 18h2v1h-2v-1z" fill="rgb(98,131,205)"/>
<path d="M69 18h3v1h-3v-1z" fill="rgb(98,131,205)"/>
<path d="M76 18h4v1h-4v-1z" fill="rgb(57,57,123)"/>
<path d="M80 18h4v1h-2v1h-1v1h-2v1h-1v2h-1v2h-1v3h-1v3h-3v1h-1v1h-1v3h-1v-1h-2v-1h-2v-1
	h-2v-1h-1v-1h-2v-1h-1v-1h-1v-1h1v-1h1v-1h1v-1h1v-1h2v-1h2v-1h2v-1h3v-1h2v-1h3
	v-1h4v-1z" fill="rgb(172,82,172)"/>
<path d="M84 18h1v1h-1v-1z" fill="rgb(98,16,82)"/>
<path d="M11 19h1v1h-1v-1z" fill="rgb(0,0,0)"/>
<path d="M12 19h2v1h3v1h2v1h1v1h1v1h2v1h1v1h2v1h1v1h1v2h1v2h-2v-1h-1v1h-1v-1h-1v1h-1v-1
	h-1v1h-1v-1h-1v1h-1v-3h-1v-3h-1v-2h-1v-1h-1v-1h-1v-1h-1v-1h-1v-1z" fill="rgb(172,82,172)"/>
<path d="M14 19h3v1h-3v-1z" fill="rgb(57,57,123)"/>
<path d="M17 19h2v1h-2v-1z" fill="rgb(172,205,255)"/>
<path d="M19 19h2v1h-2v-1z" fill="rgb(98,131,205)"/>
<path d="M67 19h2v1h-2v-1z" fill="rgb(98,131,205)"/>
<path d="M73 19h3v1h-3v-1z" fill="rgb(57,57,123)"/>
<path d="M82 19h2v1h-2v-1z" fill="rgb(98,16,82)"/>
<path d="M12 20h1v1h-1v-1z" fill="rgb(0,0,0)"/>
<path d="M17 20h2v1h-2v-1z" fill="rgb(57,57,123)"/>
<path d="M19 20h2v1h1v1h-2v-1h-1v-1z" fill="rgb(172,205,255)"/>
<path d="M21 20h2v1h1v1h-2v-1h-1v-1z" fill="rgb(98,131,205)"/>
<path d="M65 20h2v1h-2v-1z" fill="rgb(98,131,205)"/>
<path d="M67 20h3v1h-2v1h-2v1h-2v1h-2v1h-1v1h-1v1h-2v1h-1v2h-2v-2h1v-1h1v-1h1v-1h2v-1h1
	v-1h2v-1h2v-1h2v-1z" fill="rgb(172,205,255)"/>
<path d="M71 20h2v1h-2v-1z" fill="rgb(57,57,123)"/>
<path d="M81 20h1v1h-1v-1z" fill="rgb(0,0,0)"/>
<path d="M13 21h1v1h-1v-1z" fill="rgb(0,0,0)"/>
<path d="M19 21h1v1h-1v-1z" fill="rgb(57,57,123)"/>
<path d="M63 21h2v1h-2v-1z" fill="rgb(98,131,205)"/>
<path d="M68 21h3v1h-3v-1z" fill="rgb(57,57,123)"/>
<path d="M79 21h2v1h-2v-1z" fill="rgb(0,0,0)"/>
<path d="M14 22h1v1h-1v-1z" fill="rgb(0,0,0)"/>
<path d="M20 22h1v1h-1v-1z" fill="rgb(57,57,123)"/>
<path d="M21 22h1v1h-1v-1z" fill="rgb(98,131,205)"/>
<path d="M22 22h2v1h1v1h-2v-1h-1v-1z" fill="rgb(172,205,255)"/>
<path d="M24 22h1v1h-1v-1z" fill="rgb(98,131,205)"/>
<path d="M61 22h2v1h-2v-1z" fill="rgb(98,131,205)"/>
<path d="M66 22h1v1h-1v-1z" fill="rgb(98,131,205)"/>
<path d="M67 22h1v1h-1v-1z" fill="rgb(57,57,123)"/>
<path d="M78 22h1v2h-1v-2z" fill="rgb(0,0,0)"/>
<path d="M15 23h1v1h-1v-1z" fill="rgb(0,0,0)"/>
<path d="M21 23h2v1h-2v-1z" fill="rgb(57,57,123)"/>
<path d="M25 23h2v1h-2v-1z" fill="rgb(98,131,205)"/>
<path d="M60 23h1v1h-1v-1z" fill="rgb(98,131,205)"/>
<path d="M64 23h2v1h-2v-1z" fill="rgb(57,57,123)"/>
<path d="M16 24h1v2h-1v-2z" fill="rgb(0,0,0)"/>
<path d="M23 24h1v1h-1v-1z" fill="rgb(57,57,123)"/>
<path d="M24 24h3v1h1v1h1v1h1v1h1v1h1v1h-1v3h-1v-3h-1v-2h-1v-1h-1v-1h-1v-1h-2v-1z" fill="rgb(90,172,238)"/>
<path d="M27 24h1v1h-1v-1z" fill="rgb(98,131,205)"/>
<path d="M58 24h2v1h-2v-1z" fill="rgb(98,131,205)"/>
<path d="M62 24h1v1h-1v-1z" fill="rgb(98,131,205)"/>
<path d="M63 24h1v1h-1v-1z" fill="rgb(57,57,123)"/>
<path d="M77 24h1v2h-1v-2z" fill="rgb(0,0,0)"/>
<path d="M24 25h2v1h-2v-1z" fill="rgb(57,57,123)"/>
<path d="M28 25h1v1h-1v-1z" fill="rgb(98,131,205)"/>
<path d="M57 25h1v1h-1v-1z" fill="rgb(98,131,205)"/>
<path d="M61 25h1v1h-1v-1z" fill="rgb(57,57,123)"/>
<path d="M17 26h1v3h-1v-3z" fill="rgb(98,16,82)"/>
<path d="M26 26h1v1h-1v-1z" fill="rgb(57,57,123)"/>
<path d="M29 26h1v1h-1v-1z" fill="rgb(98,131,205)"/>
<path d="M56 26h1v1h-1v-1z" fill="rgb(98,131,205)"/>
<path d="M60 26h1v1h-1v-1z" fill="rgb(57,57,123)"/>
<path d="M76 26h1v3h-1v-3z" fill="rgb(0,0,0)"/>
<path d="M27 27h1v1h-1v-1z" fill="rgb(57,57,123)"/>
<path d="M30 27h1v1h-1v-1z" fill="rgb(98,131,205)"/>
<path d="M55 27h1v1h-1v-1z" fill="rgb(98,131,205)"/>
<path d="M58 27h1v1h-1v-1z" fill="rgb(98,131,205)"/>
<path d="M59 27h1v1h-1v-1z" fill="rgb(57,57,123)"/>
<path d="M28 28h1v2h-1v-2z" fill="rgb(57,57,123)"/>
<path d="M31 28h1v1h-1v-1z" fill="rgb(98,131,205)"/>
<path d="M54 28h1v2h-1v-2z" fill="rgb(98,131,205)"/>
<path d="M57 28h2v1h-2v-1z" fill="rgb(57,57,123)"/>
<path d="M18 29h1v3h-1v-3z" fill="rgb(98,16,82)"/>
<path d="M57 29h1v1h-1v-1z" fill="rgb(98,16,82)"/>
<path d="M75 29h1v3h-1v-3z" fill="rgb(98,16,82)"/>
<path d="M29 30h1v2h-1v-2z" fill="rgb(57,57,123)"/>
<path d="M31 30h1v1h-1v-1z" fill="rgb(98,131,205)"/>
<path d="M55 30h1v2h-1v-2z" fill="rgb(57,57,123)"/>
<path d="M56 30h1v2h-1v-2z" fill="rgb(90,172,238)"/>
<path d="M57 30h1v1h-1v-1z" fill="rgb(57,57,123)"/>
<path d="M58 30h1v1h-1v-1z" fill="rgb(98,16,82)"/>
<path d="M20 31h1v1h-1v-1z" fill="rgb(205,106,180)"/>
<path d="M22 31h1v1h-1v-1z" fill="rgb(205,106,180)"/>
<path d="M24 31h1v1h1v-1h1v2h-1v1h-2v1h-1v1h-1v1h-2v1h-1v1h-1v1h-2v-1h1v-2h1v-2h1v-1h1v1
	h1v-1h1v-1h1v-1h1v-1z" fill="rgb(205,106,180)"/>
<path d="M31 31h1v2h-1v-2z" fill="rgb(57,57,123)"/>
<path d="M57 31h1v1h-1v-1z" fill="rgb(98,131,205)"/>
<path d="M58 31h1v2h-1v-2z" fill="rgb(57,57,123)"/>
<path d="M59 31h1v1h-1v-1z" fill="rgb(98,16,82)"/>
<path d="M18 32h1v3h-1v-3z" fill="rgb(148,57,123)"/>
<path d="M19 32h1v1h-1v-1z" fill="rgb(205,106,180)"/>
<path d="M20 32h1v1h-1v-1z" fill="rgb(172,82,172)"/>
<path d="M21 32h1v1h-1v-1z" fill="rgb(205,106,180)"/>
<path d="M22 32h1v1h-1v-1z" fill="rgb(172,82,172)"/>
<path d="M27 32h2v1h-2v-1z" fill="rgb(98,16,82)"/>
<path d="M29 32h1v1h-1v-1z" fill="rgb(98,131,205)"/>
<path d="M56 32h1v1h-1v-1z" fill="rgb(57,57,123)"/>
<path d="M57 32h1v1h-1v-1z" fill="rgb(90,172,238)"/>
<path d="M59 32h1v1h-1v-1z" fill="rgb(172,82,172)"/>
<path d="M60 32h1v1h-1v-1z" fill="rgb(98,16,82)"/>
<path d="M61 32h1v2h-1v-2z" fill="rgb(148,57,123)"/>
<path d="M72 32h3v1h1v3h1v2h1v1h1v1h1v1h-2v-1h-2v-1h-3v-1h-2v-1h-1v-3h1v-1h1v-1z" fill="rgb(205,106,180)"/>
<path d="M75 32h1v1h-1v-1z" fill="rgb(148,57,123)"/>
<path d="M19 33h1v1h-1v-1z" fill="rgb(172,82,172)"/>
<path d="M20 33h1v1h-1v-1z" fill="rgb(205,106,180)"/>
<path d="M21 33h1v1h-1v-1z" fill="rgb(172,82,172)"/>
<path d="M26 33h1v1h-1v-1z" fill="rgb(98,16,82)"/>
<path d="M27 33h1v1h-1v-1z" fill="rgb(172,82,172)"/>
<path d="M28 33h1v2h-1v-2z" fill="rgb(57,57,123)"/>
<path d="M29 33h1v2h-1v-2z" fill="rgb(90,172,238)"/>
<path d="M30 33h1v3h-1v-3z" fill="rgb(57,57,123)"/>
<path d="M57 33h1v1h-1v-1z" fill="rgb(57,57,123)"/>
<path d="M58 33h1v2h-1v-2z" fill="rgb(90,172,238)"/>
<path d="M59 33h1v2h-1v-2z" fill="rgb(57,57,123)"/>
<path d="M60 33h1v1h2v1h2v1h2v1h2v1h2v1h-1v1h-2v1h-1v1h-1v2h-1v2h-1v-3h-1v-2h-1v-4h-1v-2
	h-1v-2z" fill="rgb(172,82,172)"/>
<path d="M62 33h1v1h-1v-1z" fill="rgb(98,16,82)"/>
<path d="M76 33h1v3h-1v-3z" fill="rgb(148,57,123)"/>
<path d="M20 34h1v1h-1v-1z" fill="rgb(172,82,172)"/>
<path d="M24 34h2v1h-2v-1z" fill="rgb(98,16,82)"/>
<path d="M26 34h1v1h1v1h-1v2h-2v1h-1v1h-1v1h-1v1h-1v2h-1v2h-2v-1h-2v-1h-2v-1h1v-1h1v-1h1
	v-1h2v-1h1v-1h2v-1h1v-1h1v-1h2v-1z" fill="rgb(172,82,172)"/>
<path d="M27 34h1v1h-1v-1z" fill="rgb(148,57,123)"/>
<path d="M57 34h1v1h-1v-1z" fill="rgb(98,131,205)"/>
<path d="M63 34h2v1h-2v-1z" fill="rgb(98,16,82)"/>
<path d="M17 35h1v2h-1v-2z" fill="rgb(148,57,123)"/>
<path d="M23 35h1v1h-1v-1z" fill="rgb(98,16,82)"/>
<path d="M28 35h2v1h-2v-1z" fill="rgb(98,131,205)"/>
<path d="M47 35h2v1h-2v-1z" fill="rgb(57,57,123)"/>
<path d="M58 35h1v2h-1v-2z" fill="rgb(57,57,123)"/>
<path d="M59 35h1v2h-1v-2z" fill="rgb(90,172,238)"/>
<path d="M60 35h1v2h-1v-2z" fill="rgb(57,57,123)"/>
<path d="M65 35h1v1h-1v-1z" fill="rgb(98,16,82)"/>
<path d="M66 35h1v1h-1v-1z" fill="rgb(148,57,123)"/>
<path d="M22 36h1v1h-1v-1z" fill="rgb(148,57,123)"/>
<path d="M27 36h1v6h-1v-6z" fill="rgb(57,57,123)"/>
<path d="M28 36h1v6h1v3h-1v-2h-1v-7z" fill="rgb(90,172,238)"/>
<path d="M29 36h1v5h-1v-5z" fill="rgb(57,57,123)"/>
<path d="M38 36h1v1h-1v-1z" fill="rgb(57,57,123)"/>
<path d="M46 36h1v1h-1v-1z" fill="rgb(57,57,123)"/>
<path d="M47 36h2v1h1v2h1v1h1v2h1v2h1v2h1v1h-2v1h2v-1h2v-1h1v-1h1v-2h1v-6h1v7h-1v2h-1v1
	h-1v1h-1v1h-2v1h-1v1h-1v1h1v4h-2v-1h-1v-4h-1v-3h-1v-1h-1v-1h-4v1h-6v-1h-3v-1h3
	v-1h1v-1h4v-1h1v2h1v1h3v-1h1v-3h-3v1h-1v-4h1v1h3v-1h-1v-1h-1v-1z" fill="rgb(90,172,238)"/>
<path d="M49 36h1v1h-1v-1z" fill="rgb(57,57,123)"/>
<path d="M67 36h2v1h-2v-1z" fill="rgb(148,57,123)"/>
<path d="M77 36h1v2h-1v-2z" fill="rgb(148,57,123)"/>
<path d="M16 37h1v2h-1v-2z" fill="rgb(148,57,123)"/>
<path d="M20 37h2v1h-2v-1z" fill="rgb(148,57,123)"/>
<path d="M37 37h1v2h-1v-2z" fill="rgb(57,57,123)"/>
<path d="M38 37h1v1h-1v-1z" fill="rgb(90,172,238)"/>
<path d="M39 37h1v1h-1v-1z" fill="rgb(57,57,123)"/>
<path d="M45 37h1v1h-1v-1z" fill="rgb(98,131,205)"/>
<path d="M46 37h1v1h-1v-1z" fill="rgb(90,172,238)"/>
<path d="M47 37h1v1h-1v-1z" fill="rgb(98,16,82)"/>
<path d="M50 37h1v2h-1v-2z" fill="rgb(57,57,123)"/>
<path d="M59 37h1v1h-1v-1z" fill="rgb(98,131,205)"/>
<path d="M61 37h1v7h-1v-7z" fill="rgb(57,57,123)"/>
<path d="M69 37h2v1h-2v-1z" fill="rgb(148,57,123)"/>
<path d="M19 38h1v1h-1v-1z" fill="rgb(148,57,123)"/>
<path d="M25 38h2v5h1v4h-1v4h-1v3h-1v-1h-1v-2h-1v-2h-1v-1h-1v-1h-1v-3h1v-2h1v-1h1v-1h1
	v-1h1v-1z" fill="rgb(205,106,180)"/>
<path d="M38 38h1v1h-1v-1z" fill="rgb(98,16,82)"/>
<path d="M39 38h1v1h-1v-1z" fill="rgb(90,172,238)"/>
<path d="M40 38h1v1h-1v-1z" fill="rgb(57,57,123)"/>
<path d="M41 38h4v1h-4v-1z" fill="rgb(98,131,205)"/>
<path d="M46 38h1v1h-1v-1z" fill="rgb(57,57,123)"/>
<path d="M47 38h1v1h-1v-1z" fill="rgb(205,106,180)"/>
<path d="M48 38h1v1h-1v-1z" fill="rgb(98,16,82)"/>
<path d="M59 38h1v4h-1v-4z" fill="rgb(57,57,123)"/>
<path d="M71 38h2v1h-2v-1z" fill="rgb(148,57,123)"/>
<path d="M78 38h1v1h-1v-1z" fill="rgb(148,57,123)"/>
<path d="M15 39h1v1h1v1h-1v1h-1v-3z" fill="rgb(148,57,123)"/>
<path d="M18 39h1v1h-1v-1z" fill="rgb(148,57,123)"/>
<path d="M36 39h1v1h-1v-1z" fill="rgb(57,57,123)"/>
<path d="M37 39h1v1h-1v-1z" fill="rgb(90,172,238)"/>
<path d="M38 39h1v1h-1v-1z" fill="rgb(205,106,180)"/>
<path d="M39 39h1v1h-1v-1z" fill="rgb(98,16,82)"/>
<path d="M40 39h5v3h-2v1h-4v-1h-3v-1h2v-1h2v-1z" fill="rgb(172,205,255)"/>
<path d="M51 39h1v1h-1v-1z" fill="rgb(57,57,123)"/>
<path d="M70 39h3v1h3v1h2v1h2v1h-2v1h-1v1h-1v1h-1v1h-1v1h-1v2h-1v3h-1v3h-1v-2h-1v-1h-1
	v-2h-1v-2h-1v-1h-1v-4h1v-2h1v-1h1v-1h2v-1z" fill="rgb(205,106,180)"/>
<path d="M73 39h3v1h-3v-1z" fill="rgb(148,57,123)"/>
<path d="M79 39h1v1h-1v-1z" fill="rgb(148,57,123)"/>
<path d="M36 40h2v1h-2v-1z" fill="rgb(98,131,205)"/>
<path d="M52 40h1v2h-1v-2z" fill="rgb(0,0,0)"/>
<path d="M76 40h2v1h-2v-1z" fill="rgb(148,57,123)"/>
<path d="M80 40h2v1h-2v-1z" fill="rgb(98,16,82)"/>
<path d="M14 41h1v2h-1v-2z" fill="rgb(98,16,82)"/>
<path d="M29 41h1v1h-1v-1z" fill="rgb(98,131,205)"/>
<path d="M35 41h1v1h-1v-1z" fill="rgb(57,57,123)"/>
<path d="M46 41h3v2h-1v-1h-2v-1z" fill="rgb(57,57,123)"/>
<path d="M62 41h1v2h-1v-2z" fill="rgb(98,16,82)"/>
<path d="M78 41h4v1h-4v-1z" fill="rgb(148,57,123)"/>
<path d="M82 41h1v1h-1v-1z" fill="rgb(98,16,82)"/>
<path d="M27 42h1v1h-1v-1z" fill="rgb(148,57,123)"/>
<path d="M30 42h1v1h-1v-1z" fill="rgb(98,131,205)"/>
<path d="M35 42h1v1h-1v-1z" fill="rgb(98,98,98)"/>
<path d="M36 42h1v1h-1v-1z" fill="rgb(0,0,0)"/>
<path d="M37 42h1v1h-1v-1z" fill="rgb(57,57,123)"/>
<path d="M38 42h1v1h-1v-1z" fill="rgb(90,172,238)"/>
<path d="M44 42h2v1h-2v-1z" fill="rgb(57,57,123)"/>
<path d="M46 42h1v1h-1v-1z" fill="rgb(0,0,0)"/>
<path d="M47 42h1v1h-1v-1z" fill="rgb(255,255,255)"/>
<path d="M53 42h1v2h-1v-2z" fill="rgb(0,0,0)"/>
<path d="M59 42h1v1h-1v-1z" fill="rgb(98,131,205)"/>
<path d="M80 42h2v1h-2v-1z" fill="rgb(0,0,0)"/>
<path d="M13 43h1v1h-1v-1z" fill="rgb(98,16,82)"/>
<path d="M28 43h1v2h-1v-2z" fill="rgb(57,57,123)"/>
<path d="M30 43h1v1h1v2h-1v-1h-1v-2z" fill="rgb(57,57,123)"/>
<path d="M34 43h1v2h-1v-2z" fill="rgb(57,57,123)"/>
<path d="M35 43h1v1h-1v-1z" fill="rgb(213,213,213)"/>
<path d="M36 43h1v1h-1v-1z" fill="rgb(98,98,98)"/>
<path d="M37 43h1v1h-1v-1z" fill="rgb(255,255,255)"/>
<path d="M38 43h1v1h-1v-1z" fill="rgb(98,131,205)"/>
<path d="M44 43h1v1h-1v-1z" fill="rgb(98,131,205)"/>
<path d="M45 43h1v1h-1v-1z" fill="rgb(255,255,255)"/>
<path d="M46 43h1v1h-1v-1z" fill="rgb(98,98,98)"/>
<path d="M47 43h1v1h-1v-1z" fill="rgb(213,213,213)"/>
<path d="M48 43h1v1h-1v-1z" fill="rgb(98,131,205)"/>
<path d="M58 43h1v1h-1v-1z" fill="rgb(98,131,205)"/>
<path d="M62 43h1v3h1v2h1v1h1v2h1v2h1v2h1v1h-2v-1h-5v1h-3v1h-3v-3h-1v-3h1v-1h1v-1h1v-1h1
	v-1h1v-1h1v-2h1v-1z" fill="rgb(172,82,172)"/>
<path d="M63 43h1v3h-1v-3z" fill="rgb(98,16,82)"/>
<path d="M78 43h2v1h-2v-1z" fill="rgb(0,0,0)"/>
<path d="M13 44h3v1h-3v-1z" fill="rgb(0,0,0)"/>
<path d="M35 44h3v1h-3v-1z" fill="rgb(98,131,205)"/>
<path d="M45 44h3v1h-3v-1z" fill="rgb(98,131,205)"/>
<path d="M54 44h1v2h-1v-2z" fill="rgb(0,0,0)"/>
<path d="M58 44h1v1h-1v-1z" fill="rgb(57,57,123)"/>
<path d="M60 44h1v1h-1v-1z" fill="rgb(57,57,123)"/>
<path d="M77 44h1v1h-1v-1z" fill="rgb(0,0,0)"/>
<path d="M16 45h2v1h-2v-1z" fill="rgb(0,0,0)"/>
<path d="M28 45h1v2h-1v-2z" fill="rgb(98,16,82)"/>
<path d="M29 45h1v2h-1v-2z" fill="rgb(57,57,123)"/>
<path d="M30 45h1v1h-1v-1z" fill="rgb(90,172,238)"/>
<path d="M34 45h1v2h-1v-2z" fill="rgb(0,0,0)"/>
<path d="M57 45h1v1h-1v-1z" fill="rgb(57,57,123)"/>
<path d="M60 45h1v1h-1v-1z" fill="rgb(148,57,123)"/>
<path d="M76 45h1v1h-1v-1z" fill="rgb(0,0,0)"/>
<path d="M18 46h2v1h-2v-1z" fill="rgb(0,0,0)"/>
<path d="M30 46h2v1h1v1h-2v-1h-1v-1z" fill="rgb(98,131,205)"/>
<path d="M32 46h1v1h-1v-1z" fill="rgb(57,57,123)"/>
<path d="M35 46h1v1h-1v-1z" fill="rgb(98,98,98)"/>
<path d="M36 46h2v1h-2v-1z" fill="rgb(57,57,123)"/>
<path d="M44 46h1v1h-1v-1z" fill="rgb(57,57,123)"/>
<path d="M45 46h1v4h1v-1h2v1h1v12h-1v3h-2v-1h-1v3h-6v-1h-1v-6h1v4h1v-1h1v-2h1v-3h-1v-1
	h-1v-1h-1v-1h-1v-5h-1v-3h7v-1z" fill="rgb(0,0,0)"/>
<path d="M46 46h2v1h-2v-1z" fill="rgb(57,57,123)"/>
<path d="M55 46h2v1h-2v-1z" fill="rgb(57,57,123)"/>
<path d="M59 46h1v1h-1v-1z" fill="rgb(57,57,123)"/>
<path d="M64 46h1v2h-1v-2z" fill="rgb(98,16,82)"/>
<path d="M75 46h1v1h-1v-1z" fill="rgb(148,57,123)"/>
<path d="M20 47h1v1h-1v-1z" fill="rgb(98,16,82)"/>
<path d="M27 47h1v1h-1v-1z" fill="rgb(148,57,123)"/>
<path d="M28 47h2v1h1v1h2v1h1v1h2v2h1v5h-1v-1h-1v-1h-2v-1h-4v1h-3v-2h1v-3h1v-4z" fill="rgb(172,82,172)"/>
<path d="M30 47h1v1h-1v-1z" fill="rgb(57,57,123)"/>
<path d="M33 47h2v1h-2v-1z" fill="rgb(57,57,123)"/>
<path d="M35 47h1v3h-1v-3z" fill="rgb(0,0,0)"/>
<path d="M36 47h2v1h-1v1h-1v-2z" fill="rgb(255,255,255)"/>
<path d="M46 47h1v2h-1v-2z" fill="rgb(255,255,255)"/>
<path d="M47 47h1v1h-1v-1z" fill="rgb(213,213,213)"/>
<path d="M48 47h1v2h-1v-2z" fill="rgb(57,57,123)"/>
<path d="M53 47h2v1h-2v-1z" fill="rgb(57,57,123)"/>
<path d="M58 47h1v1h-1v-1z" fill="rgb(98,131,205)"/>
<path d="M74 47h1v1h-1v-1z" fill="rgb(98,16,82)"/>
<path d="M21 48h1v1h-1v-1z" fill="rgb(98,16,82)"/>
<path d="M27 48h1v2h-1v-2z" fill="rgb(98,16,82)"/>
<path d="M31 48h2v1h-2v-1z" fill="rgb(57,57,123)"/>
<path d="M33 48h2v2h-1v-1h-1v-1z" fill="rgb(98,131,205)"/>
<path d="M37 48h1v1h-1v-1z" fill="rgb(98,98,98)"/>
<path d="M47 48h1v1h-1v-1z" fill="rgb(98,98,98)"/>
<path d="M49 48h1v1h-1v-1z" fill="rgb(98,131,205)"/>
<path d="M57 48h1v1h-1v-1z" fill="rgb(57,57,123)"/>
<path d="M65 48h1v1h-1v-1z" fill="rgb(148,57,123)"/>
<path d="M73 48h1v1h-1v-1z" fill="rgb(148,57,123)"/>
<path d="M22 49h1v2h-1v-2z" fill="rgb(98,16,82)"/>
<path d="M33 49h1v1h-1v-1z" fill="rgb(57,57,123)"/>
<path d="M36 49h1v1h-1v-1z" fill="rgb(213,213,213)"/>
<path d="M37 49h1v1h-1v-1z" fill="rgb(57,57,123)"/>
<path d="M46 49h1v1h-1v-1z" fill="rgb(213,213,213)"/>
<path d="M49 49h1v1h-1v-1z" fill="rgb(57,57,123)"/>
<path d="M55 49h1v1h-1v-1z" fill="rgb(98,131,205)"/>
<path d="M56 49h1v1h-1v-1z" fill="rgb(57,57,123)"/>
<path d="M66 49h1v2h-1v-2z" fill="rgb(148,57,123)"/>
<path d="M73 49h1v1h-1v-1z" fill="rgb(98,16,82)"/>
<path d="M27 50h1v1h-1v-1z" fill="rgb(148,57,123)"/>
<path d="M34 50h2v1h-2v-1z" fill="rgb(57,57,123)"/>
<path d="M36 50h1v3h-1v-3z" fill="rgb(0,0,0)"/>
<path d="M37 50h1v3h-1v-3z" fill="rgb(98,131,205)"/>
<path d="M38 50h1v4h-1v-4z" fill="rgb(57,57,123)"/>
<path d="M54 50h2v1h-2v-1z" fill="rgb(0,0,0)"/>
<path d="M72 50h1v3h-1v-3z" fill="rgb(98,16,82)"/>
<path d="M23 51h1v2h-1v-2z" fill="rgb(98,16,82)"/>
<path d="M26 51h1v1h-1v-1z" fill="rgb(148,57,123)"/>
<path d="M50 51h1v1h-1v-1z" fill="rgb(98,131,205)"/>
<path d="M53 51h1v1h-1v-1z" fill="rgb(0,0,0)"/>
<path d="M54 51h1v3h-1v-3z" fill="rgb(98,16,82)"/>
<path d="M67 51h1v1h-1v-1z" fill="rgb(148,57,123)"/>
<path d="M26 52h1v2h-1v-2z" fill="rgb(98,16,82)"/>
<path d="M50 52h1v10h-1v-10z" fill="rgb(57,57,123)"/>
<path d="M67 52h1v1h-1v-1z" fill="rgb(98,16,82)"/>
<path d="M24 53h1v5h-1v-5z" fill="rgb(98,16,82)"/>
<path d="M37 53h1v10h-1v-10z" fill="rgb(0,0,0)"/>
<path d="M68 53h1v1h-1v-1z" fill="rgb(98,16,82)"/>
<path d="M71 53h1v5h-1v-5z" fill="rgb(98,16,82)"/>
<path d="M25 54h1v3h-1v-3z" fill="rgb(148,57,123)"/>
<path d="M38 54h1v9h-1v-9z" fill="rgb(98,131,205)"/>
<path d="M54 54h1v4h1v4h-1v3h-1v1h-1v1h1v1h1v2h1v1h-2v-1h-1v-1h-1v-1h-1v2h-2v1h-6v-1h-2
	v-1h5v-1h1v-1h2v-2h1v-3h1v-7h1v1h2v-2z" fill="rgb(98,131,205)"/>
<path d="M55 54h1v4h-1v-4z" fill="rgb(98,16,82)"/>
<path d="M68 54h2v1h-2v-1z" fill="rgb(148,57,123)"/>
<path d="M29 55h1v1h-1v-1z" fill="rgb(98,16,82)"/>
<path d="M30 55h3v1h-3v-1z" fill="rgb(0,0,0)"/>
<path d="M39 55h1v5h-1v-5z" fill="rgb(57,57,123)"/>
<path d="M62 55h4v1h-4v-1z" fill="rgb(0,0,0)"/>
<path d="M66 55h1v1h-1v-1z" fill="rgb(98,16,82)"/>
<path d="M69 55h1v1h-1v-1z" fill="rgb(98,16,82)"/>
<path d="M26 56h3v1h-3v-1z" fill="rgb(0,0,0)"/>
<path d="M33 56h2v1h-2v-1z" fill="rgb(0,0,0)"/>
<path d="M40 56h1v1h1v1h1v3h-1v2h-1v1h-1v-8z" fill="rgb(98,98,98)"/>
<path d="M59 56h2v1h-2v-1z" fill="rgb(0,0,0)"/>
<path d="M61 56h1v1h-1v-1z" fill="rgb(98,16,82)"/>
<path d="M67 56h2v1h-2v-1z" fill="rgb(0,0,0)"/>
<path d="M69 56h1v1h-1v-1z" fill="rgb(172,82,172)"/>
<path d="M70 56h1v1h-1v-1z" fill="rgb(148,57,123)"/>
<path d="M25 57h1v1h-1v-1z" fill="rgb(0,0,0)"/>
<path d="M35 57h1v1h-1v-1z" fill="rgb(0,0,0)"/>
<path d="M56 57h3v1h-2v4h-1v-5z" fill="rgb(0,0,0)"/>
<path d="M69 57h2v1h-2v-1z" fill="rgb(0,0,0)"/>
<path d="M36 58h1v1h-1v-1z" fill="rgb(98,16,82)"/>
<path d="M49 62h1v3h-1v-3z" fill="rgb(57,57,123)"/>
<path d="M55 62h1v3h-1v-3z" fill="rgb(0,0,0)"/>
<path d="M36 63h1v3h-1v-3z" fill="rgb(0,0,0)"/>
<path d="M37 63h1v1h1v1h-1v1h-1v-3z" fill="rgb(255,255,255)"/>
<path d="M38 63h1v1h-1v-1z" fill="rgb(57,57,123)"/>
<path d="M46 64h1v1h1v1h-2v-2z" fill="rgb(255,255,255)"/>
<path d="M58 64h2v1h-2v-1z" fill="rgb(57,57,123)"/>
<path d="M26 65h2v1h-2v-1z" fill="rgb(57,57,123)"/>
<path d="M38 65h1v1h-1v-1z" fill="rgb(213,213,213)"/>
<path d="M48 65h1v2h-1v-2z" fill="rgb(57,57,123)"/>
<path d="M54 65h1v2h-1v-2z" fill="rgb(0,0,0)"/>
<path d="M57 65h1v1h-1v-1z" fill="rgb(57,57,123)"/>
<path d="M58 65h2v2h-1v2h-1v2h-1v2h-2v-2h1v-3h1v-2h1v-1z" fill="rgb(90,172,238)"/>
<path d="M60 65h1v2h-1v-2z" fill="rgb(0,0,0)"/>
<path d="M25 66h1v1h-1v-1z" fill="rgb(57,57,123)"/>
<path d="M26 66h2v1h2v1h2v1h1v2h-2v-1h-1v-1h-2v-1h-2v-2z" fill="rgb(90,172,238)"/>
<path d="M28 66h2v1h-2v-1z" fill="rgb(57,57,123)"/>
<path d="M35 66h2v1h-2v-1z" fill="rgb(57,57,123)"/>
<path d="M37 66h1v2h-1v-2z" fill="rgb(0,0,0)"/>
<path d="M38 66h1v1h-1v-1z" fill="rgb(98,131,205)"/>
<path d="M39 66h1v1h-1v-1z" fill="rgb(57,57,123)"/>
<path d="M46 66h2v1h-2v-1z" fill="rgb(213,213,213)"/>
<path d="M53 66h1v1h-1v-1z" fill="rgb(57,57,123)"/>
<path d="M56 66h1v2h-1v-2z" fill="rgb(57,57,123)"/>
<path d="M25 67h1v1h-1v-1z" fill="rgb(0,0,0)"/>
<path d="M30 67h2v1h-2v-1z" fill="rgb(57,57,123)"/>
<path d="M33 67h2v1h-2v-1z" fill="rgb(57,57,123)"/>
<path d="M35 67h2v1h-1v1h-1v1h-1v2h1v2h-2v-1h-1v-2h1v-3h2v-1z" fill="rgb(98,131,205)"/>
<path d="M38 67h2v1h-2v-1z" fill="rgb(90,172,238)"/>
<path d="M40 67h1v1h-1v-1z" fill="rgb(98,131,205)"/>
<path d="M41 67h6v1h-6v-1z" fill="rgb(57,57,123)"/>
<path d="M54 67h1v1h-1v-1z" fill="rgb(57,57,123)"/>
<path d="M59 67h1v2h-1v-2z" fill="rgb(0,0,0)"/>
<path d="M26 68h2v1h-2v-1z" fill="rgb(0,0,0)"/>
<path d="M32 68h1v1h-1v-1z" fill="rgb(57,57,123)"/>
<path d="M36 68h2v1h-2v-1z" fill="rgb(57,57,123)"/>
<path d="M38 68h1v1h-1v-1z" fill="rgb(0,0,0)"/>
<path d="M39 68h1v1h-1v-1z" fill="rgb(98,131,205)"/>
<path d="M40 68h6v1h-6v-1z" fill="rgb(90,172,238)"/>
<path d="M51 68h1v1h-1v-1z" fill="rgb(57,57,123)"/>
<path d="M55 68h1v2h-1v-2z" fill="rgb(57,57,123)"/>
<path d="M28 69h2v1h-2v-1z" fill="rgb(57,57,123)"/>
<path d="M35 69h1v1h-1v-1z" fill="rgb(57,57,123)"/>
<path d="M39 69h2v1h-2v-1z" fill="rgb(0,0,0)"/>
<path d="M51 69h2v1h-2v-1z" fill="rgb(0,0,0)"/>
<path d="M58 69h1v3h-1v-3z" fill="rgb(0,0,0)"/>
<path d="M30 70h1v1h-1v-1z" fill="rgb(57,57,123)"/>
<path d="M34 70h1v2h-1v-2z" fill="rgb(0,0,0)"/>
<path d="M41 70h2v1h-2v-1z" fill="rgb(0,0,0)"/>
<path d="M49 70h2v1h-2v-1z" fill="rgb(0,0,0)"/>
<path d="M53 70h1v2h-1v-2z" fill="rgb(0,0,0)"/>
<path d="M31 71h1v1h-1v-1z" fill="rgb(57,57,123)"/>
<path d="M43 71h6v1h-6v-1z" fill="rgb(0,0,0)"/>
<path d="M54 71h1v5h-1v-5z" fill="rgb(57,57,123)"/>
<path d="M57 71h1v1h-1v-1z" fill="rgb(98,131,205)"/>
<path d="M31 72h1v1h-1v-1z" fill="rgb(0,0,0)"/>
<path d="M35 72h1v2h-1v-2z" fill="rgb(0,0,0)"/>
<path d="M57 72h1v4h-1v-4z" fill="rgb(0,0,0)"/>
<path d="M32 73h1v1h-1v-1z" fill="rgb(0,0,0)"/>
<path d="M55 73h2v3h-2v-3z" fill="rgb(98,131,205)"/>
<path d="M33 74h2v1h-2v-1z" fill="rgb(0,0,0)"/>
<path d="M55 76h2v1h-2v-1z" fill="rgb(0,0,0)"/>
</svg>
