<?xml version="1.0" encoding="utf-8"?>
<!-- generated at drububu.com  -->
<!DOCTYPE svg PUBLIC "-//W3C//DTD SVG 1.1//EN" "http://www.w3.org/Graphics/SVG/1.1/DTD/svg11.dtd">
<svg version="1.1" preserveAspectRatio="xMinYMin meet" xmlns="http://www.w3.org/2000/svg" xmlns:xlink="http://www.w3.org/1999/xlink" x="0px" y="0px" width="96px" height="96px" viewBox="0 0 96 96">
<path d="M0 0h96v96h-96v-96z" fill="transparent"/>
<path d="M49 32h2v2h-1v-1h-1v-1z" fill="rgb(139,172,49)"/>
<path d="M51 32h1v1h-1v-1z" fill="rgb(74,90,32)"/>
<path d="M47 33h2v1h-2v-1z" fill="rgb(139,172,49)"/>
<path d="M49 33h1v1h-1v-1z" fill="rgb(156,213,74)"/>
<path d="M51 33h1v1h-1v-1z" fill="rgb(197,230,123)"/>
<path d="M52 33h2v1h-2v-1z" fill="rgb(74,90,32)"/>
<path d="M38 34h2v1h-1v1h-1v-2z" fill="rgb(139,172,49)"/>
<path d="M46 34h1v1h-1v-1z" fill="rgb(139,172,49)"/>
<path d="M47 34h1v2h-1v2h-1v2h-1v-1h-1v-2h1v-1h1v-1h1v-1z" fill="rgb(197,230,123)"/>
<path d="M48 34h1v1h-1v-1z" fill="rgb(156,213,74)"/>
<path d="M49 34h1v1h-1v-1z" fill="rgb(139,172,49)"/>
<path d="M50 34h1v5h-1v1h-3v-2h1v-2h1v-1h1v-1z" fill="rgb(197,230,123)"/>
<path d="M51 34h1v1h-1v-1z" fill="rgb(156,213,74)"/>
<path d="M52 34h2v1h1v1h-3v-2z" fill="rgb(139,172,49)"/>
<path d="M54 34h1v1h-1v-1z" fill="rgb(74,90,32)"/>
<path d="M39 35h1v1h1v1h1v4h-1v-2h-1v-2h-1v2h1v2h-1v-1h-1v-4h1v-1z" fill="rgb(156,213,74)"/>
<path d="M40 35h1v1h-1v-1z" fill="rgb(139,172,49)"/>
<path d="M45 35h1v1h-1v-1z" fill="rgb(139,172,49)"/>
<path d="M48 35h1v1h-1v-1z" fill="rgb(139,172,49)"/>
<path d="M51 35h1v6h-1v-6z" fill="rgb(74,90,32)"/>
<path d="M55 35h1v2h-1v-2z" fill="rgb(74,90,32)"/>
<path d="M37 36h1v1h-1v-1z" fill="rgb(139,172,49)"/>
<path d="M41 36h1v1h-1v-1z" fill="rgb(139,172,49)"/>
<path d="M44 36h1v1h-1v-1z" fill="rgb(74,90,32)"/>
<path d="M47 36h1v2h-1v-2z" fill="rgb(139,172,49)"/>
<path d="M52 36h3v1h-3v-1z" fill="rgb(16,16,16)"/>
<path d="M37 37h1v3h1v1h1v1h-2v-1h-1v-1h-1v-1h1v-2z" fill="rgb(74,90,32)"/>
<path d="M39 37h1v2h-1v-2z" fill="rgb(139,172,49)"/>
<path d="M42 37h1v1h-1v-1z" fill="rgb(139,172,49)"/>
<path d="M43 37h1v1h-1v-1z" fill="rgb(74,90,32)"/>
<path d="M57 37h5v2h-1v-1h-4v-1z" fill="rgb(74,90,32)"/>
<path d="M31 38h3v1h-3v-1z" fill="rgb(139,172,49)"/>
<path d="M42 38h1v3h-1v-3z" fill="rgb(74,90,32)"/>
<path d="M43 38h1v1h-1v-1z" fill="rgb(139,172,49)"/>
<path d="M46 38h1v2h-1v-2z" fill="rgb(139,172,49)"/>
<path d="M55 38h2v1h-2v-1z" fill="rgb(74,90,32)"/>
<path d="M57 38h4v1h-1v2h-1v1h-1v1h-4v-1h1v-1h2v-1h2v-1h-2v-1z" fill="rgb(139,172,49)"/>
<path d="M31 39h1v2h-1v-2z" fill="rgb(74,90,32)"/>
<path d="M32 39h2v1h-1v1h-1v-2z" fill="rgb(197,230,123)"/>
<path d="M34 39h2v1h-2v-1z" fill="rgb(139,172,49)"/>
<path d="M40 39h1v2h-1v-2z" fill="rgb(74,90,32)"/>
<path d="M43 39h2v5h-1v3h-1v-1h-1v-4h1v-3z" fill="rgb(156,213,74)"/>
<path d="M50 39h1v4h-1v3h-2v1h-3v-3h1v-4h4v-1z" fill="rgb(156,213,74)"/>
<path d="M53 39h1v1h-1v-1z" fill="rgb(16,16,16)"/>
<path d="M54 39h1v1h-1v-1z" fill="rgb(74,90,32)"/>
<path d="M55 39h2v1h-2v-1z" fill="rgb(139,172,49)"/>
<path d="M57 39h2v1h-2v-1z" fill="rgb(74,90,32)"/>
<path d="M60 39h1v2h-1v-2z" fill="rgb(74,90,32)"/>
<path d="M33 40h1v1h-1v-1z" fill="rgb(156,213,74)"/>
<path d="M34 40h2v1h1v1h-2v-1h-1v-1z" fill="rgb(197,230,123)"/>
<path d="M36 40h1v1h-1v-1z" fill="rgb(139,172,49)"/>
<path d="M45 40h1v4h-1v-4z" fill="rgb(139,172,49)"/>
<path d="M52 40h1v1h-1v-1z" fill="rgb(16,16,16)"/>
<path d="M53 40h2v1h-1v1h-1v1h-1v-2h1v-1z" fill="rgb(139,172,49)"/>
<path d="M55 40h2v1h-2v-1z" fill="rgb(74,90,32)"/>
<path d="M32 41h1v1h-1v-1z" fill="rgb(139,172,49)"/>
<path d="M33 41h1v1h1v1h1v1h-1v1h-1v-2h-1v-2z" fill="rgb(197,230,123)"/>
<path d="M34 41h1v1h-1v-1z" fill="rgb(139,172,49)"/>
<path d="M37 41h1v2h-2v-1h1v-1z" fill="rgb(156,213,74)"/>
<path d="M40 41h1v1h-1v-1z" fill="rgb(156,213,74)"/>
<path d="M41 41h1v6h-1v-4h-1v-1h1v-1z" fill="rgb(74,90,32)"/>
<path d="M42 41h1v1h-1v-1z" fill="rgb(139,172,49)"/>
<path d="M51 41h1v2h1v1h-2v-3z" fill="rgb(16,16,16)"/>
<path d="M54 41h1v1h-1v-1z" fill="rgb(74,90,32)"/>
<path d="M59 41h1v1h-1v-1z" fill="rgb(16,16,16)"/>
<path d="M32 42h1v2h-1v-2z" fill="rgb(74,90,32)"/>
<path d="M35 42h1v1h-1v-1z" fill="rgb(139,172,49)"/>
<path d="M38 42h2v1h1v3h-1v-1h-1v-1h-1v-2z" fill="rgb(139,172,49)"/>
<path d="M53 42h1v1h-1v-1z" fill="rgb(16,16,16)"/>
<path d="M58 42h1v1h-1v-1z" fill="rgb(16,16,16)"/>
<path d="M33 43h1v1h-1v-1z" fill="rgb(156,213,74)"/>
<path d="M36 43h1v1h1v1h1v1h1v1h1v1h1v1h-3v-1h-2v-1h-2v-1h-1v-1h2v-2z" fill="rgb(139,172,49)"/>
<path d="M37 43h1v1h-1v-1z" fill="rgb(74,90,32)"/>
<path d="M50 43h1v1h-1v-1z" fill="rgb(139,172,49)"/>
<path d="M53 43h6v1h-6v-1z" fill="rgb(74,90,32)"/>
<path d="M33 44h1v2h-1v-2z" fill="rgb(74,90,32)"/>
<path d="M35 44h1v1h-1v-1z" fill="rgb(156,213,74)"/>
<path d="M38 44h1v1h-1v-1z" fill="rgb(74,90,32)"/>
<path d="M44 44h1v2h-1v-2z" fill="rgb(139,172,49)"/>
<path d="M50 44h2v1h-2v-1z" fill="rgb(74,90,32)"/>
<path d="M52 44h6v1h-2v1h-4v1h-1v-2h1v-1z" fill="rgb(139,172,49)"/>
<path d="M58 44h1v1h3v1h-6v-1h2v-1z" fill="rgb(156,213,74)"/>
<path d="M59 44h3v1h-3v-1z" fill="rgb(74,90,32)"/>
<path d="M39 45h1v1h-1v-1z" fill="rgb(74,90,32)"/>
<path d="M50 45h1v2h-1v-2z" fill="rgb(16,16,16)"/>
<path d="M62 45h2v1h-2v-1z" fill="rgb(74,90,32)"/>
<path d="M34 46h1v1h-1v-1z" fill="rgb(74,90,32)"/>
<path d="M40 46h1v1h-1v-1z" fill="rgb(16,16,16)"/>
<path d="M42 46h1v1h1v1h-2v-2z" fill="rgb(139,172,49)"/>
<path d="M44 46h1v2h-1v-2z" fill="rgb(74,90,32)"/>
<path d="M48 46h2v1h-1v1h-2v1h-1v-1h-1v-1h3v-1z" fill="rgb(139,172,49)"/>
<path d="M52 46h5v1h-5v-1z" fill="rgb(74,90,32)"/>
<path d="M57 46h5v1h-5v-1z" fill="rgb(139,172,49)"/>
<path d="M62 46h2v1h-1v1h-2v1h-2v1h-3v-1h-1v-2h7v-1z" fill="rgb(156,213,74)"/>
<path d="M64 46h1v1h-1v-1z" fill="rgb(74,90,32)"/>
<path d="M35 47h2v1h-2v-1z" fill="rgb(74,90,32)"/>
<path d="M41 47h1v1h-1v-1z" fill="rgb(16,16,16)"/>
<path d="M49 47h1v1h-1v-1z" fill="rgb(16,16,16)"/>
<path d="M50 47h2v1h-2v-1z" fill="rgb(74,90,32)"/>
<path d="M52 47h3v2h1v2h-5v-1h-2v-2h3v-1z" fill="rgb(139,172,49)"/>
<path d="M63 47h1v1h-1v-1z" fill="rgb(74,90,32)"/>
<path d="M37 48h2v1h-2v-1z" fill="rgb(74,90,32)"/>
<path d="M42 48h1v1h-1v-1z" fill="rgb(16,16,16)"/>
<path d="M43 48h3v1h-3v-1z" fill="rgb(90,106,131)"/>
<path d="M47 48h2v1h-2v-1z" fill="rgb(16,16,16)"/>
<path d="M61 48h2v1h-2v-1z" fill="rgb(74,90,32)"/>
<path d="M39 49h1v1h-1v-1z" fill="rgb(74,90,32)"/>
<path d="M40 49h2v1h-2v-1z" fill="rgb(90,106,131)"/>
<path d="M42 49h5v1h2v1h2v1h1v3h-1v-1h-1v1h-1v1h1v1h-1v1h-2v1h-6v-1h-2v-1h-1v-1h-1v-2h1
	v-2h1v1h1v2h1v-1h3v-1h1v-2h-1v-1h-2v-1z" fill="rgb(115,148,164)"/>
<path d="M47 49h2v1h-2v-1z" fill="rgb(90,106,131)"/>
<path d="M59 49h2v1h-2v-1z" fill="rgb(74,90,32)"/>
<path d="M39 50h1v1h-1v-1z" fill="rgb(90,106,131)"/>
<path d="M40 50h4v1h1v2h-1v1h-4v-1h-1v-2h1v-1z" fill="rgb(148,180,197)"/>
<path d="M49 50h2v1h-2v-1z" fill="rgb(16,16,16)"/>
<path d="M56 50h3v1h-3v-1z" fill="rgb(74,90,32)"/>
<path d="M38 51h1v1h-1v-1z" fill="rgb(90,106,131)"/>
<path d="M51 51h4v1h-2v2h-1v-2h-1v-1z" fill="rgb(16,16,16)"/>
<path d="M55 51h1v1h-1v-1z" fill="rgb(74,90,32)"/>
<path d="M37 52h1v2h-1v-2z" fill="rgb(90,106,131)"/>
<path d="M36 54h1v2h1v1h-2v-3z" fill="rgb(90,106,131)"/>
<path d="M40 54h1v1h-1v-1z" fill="rgb(238,57,49)"/>
<path d="M50 54h1v1h-1v-1z" fill="rgb(90,106,131)"/>
<path d="M52 54h1v1h-1v-1z" fill="rgb(90,106,131)"/>
<path d="M53 54h1v4h-1v-4z" fill="rgb(16,16,16)"/>
<path d="M45 55h1v1h-1v-1z" fill="rgb(238,57,49)"/>
<path d="M49 55h1v1h-1v-1z" fill="rgb(90,106,131)"/>
<path d="M50 55h1v1h-1v-1z" fill="rgb(115,148,164)"/>
<path d="M51 55h1v1h-1v-1z" fill="rgb(90,106,131)"/>
<path d="M52 55h1v1h-1v-1z" fill="rgb(115,148,164)"/>
<path d="M50 56h1v1h1v-1h1v2h-1v2h-1v1h-3v1h-6v-1h-2v-1h-1v-1h-1v-2h1v1h2v1h6v-1h2v-1h1
	v-1z" fill="rgb(90,106,131)"/>
<path d="M51 56h1v1h-1v-1z" fill="rgb(115,148,164)"/>
<path d="M37 57h1v2h-1v-2z" fill="rgb(41,57,74)"/>
<path d="M41 57h3v1h-3v-1z" fill="rgb(41,57,74)"/>
<path d="M52 58h1v2h-1v-2z" fill="rgb(16,16,16)"/>
<path d="M38 59h1v1h-1v-1z" fill="rgb(16,16,16)"/>
<path d="M39 60h1v1h-1v-1z" fill="rgb(16,16,16)"/>
<path d="M51 60h1v1h-1v-1z" fill="rgb(16,16,16)"/>
<path d="M40 61h2v1h-1v1h-1v-2z" fill="rgb(16,16,16)"/>
<path d="M48 61h3v1h-3v-1z" fill="rgb(16,16,16)"/>
<path d="M38 62h2v1h-2v-1z" fill="rgb(41,57,74)"/>
<path d="M41 62h1v1h1v2h-5v-1h2v-1h1v-1z" fill="rgb(90,106,131)"/>
<path d="M42 62h6v1h-4v2h-1v-2h-1v-1z" fill="rgb(16,16,16)"/>
<path d="M48 62h1v1h2v1h-2v1h2v-1h1v2h-4v-1h-1v-2h1v-1z" fill="rgb(90,106,131)"/>
<path d="M49 62h2v1h-2v-1z" fill="rgb(41,57,74)"/>
<path d="M37 63h1v2h-1v-2z" fill="rgb(41,57,74)"/>
<path d="M38 63h2v1h-2v-1z" fill="rgb(115,148,164)"/>
<path d="M46 63h1v2h-1v-2z" fill="rgb(41,57,74)"/>
<path d="M51 63h1v1h-1v-1z" fill="rgb(41,57,74)"/>
<path d="M49 64h2v1h-2v-1z" fill="rgb(115,148,164)"/>
<path d="M52 64h1v2h-1v-2z" fill="rgb(16,16,16)"/>
<path d="M38 65h5v1h-5v-1z" fill="rgb(16,16,16)"/>
<path d="M46 65h1v1h-1v-1z" fill="rgb(16,16,16)"/>
<path d="M47 65h1v1h-1v-1z" fill="rgb(41,57,74)"/>
<path d="M47 66h5v1h-5v-1z" fill="rgb(16,16,16)"/>
</svg>
