<?xml version="1.0" encoding="utf-8"?>
<!-- generated at drububu.com  -->
<!DOCTYPE svg PUBLIC "-//W3C//DTD SVG 1.1//EN" "http://www.w3.org/Graphics/SVG/1.1/DTD/svg11.dtd">
<svg version="1.1" preserveAspectRatio="xMinYMin meet" xmlns="http://www.w3.org/2000/svg" xmlns:xlink="http://www.w3.org/1999/xlink" x="0px" y="0px" width="96px" height="96px" viewBox="0 0 96 96">
<path d="M0 0h96v96h-96v-96z" fill="transparent"/>
<path d="M46 26h3v1h-3v-1z" fill="rgb(90,41,0)"/>
<path d="M49 26h2v1h-2v-1z" fill="rgb(16,16,16)"/>
<path d="M44 27h1v1h-1v-1z" fill="rgb(16,16,16)"/>
<path d="M45 27h1v1h-1v-1z" fill="rgb(90,41,0)"/>
<path d="M46 27h5v2h-2v1h-2v-1h-2v-1h1v-1z" fill="rgb(172,82,57)"/>
<path d="M51 27h1v1h-1v-1z" fill="rgb(90,41,0)"/>
<path d="M52 27h1v1h-1v-1z" fill="rgb(16,16,16)"/>
<path d="M43 28h1v1h-1v-1z" fill="rgb(16,16,16)"/>
<path d="M44 28h1v1h1v1h5v1h-1v1h-1v-1h-4v-1h-2v-1h1v-1z" fill="rgb(131,57,24)"/>
<path d="M51 28h2v2h-2v-2z" fill="rgb(131,57,24)"/>
<path d="M53 28h1v1h-1v-1z" fill="rgb(16,16,16)"/>
<path d="M38 29h1v1h-1v-1z" fill="rgb(131,57,24)"/>
<path d="M39 29h4v1h-4v-1z" fill="rgb(90,41,0)"/>
<path d="M46 29h1v1h-1v-1z" fill="rgb(255,189,65)"/>
<path d="M49 29h1v1h-1v-1z" fill="rgb(246,238,189)"/>
<path d="M50 29h1v1h-1v-1z" fill="rgb(255,189,65)"/>
<path d="M53 29h3v1h-3v-1z" fill="rgb(90,41,0)"/>
<path d="M36 30h2v1h-2v-1z" fill="rgb(131,57,24)"/>
<path d="M38 30h5v1h1v2h-1v1h-1v-1h-1v-1h-1v-1h-2v-1z" fill="rgb(172,82,57)"/>
<path d="M43 30h1v1h-1v-1z" fill="rgb(90,41,0)"/>
<path d="M44 30h1v1h-1v-1z" fill="rgb(16,16,16)"/>
<path d="M51 30h1v1h-1v-1z" fill="rgb(16,16,16)"/>
<path d="M52 30h1v1h-1v-1z" fill="rgb(90,41,0)"/>
<path d="M53 30h3v1h2v1h-3v-1h-2v-1z" fill="rgb(172,82,57)"/>
<path d="M56 30h2v1h-2v-1z" fill="rgb(90,41,0)"/>
<path d="M35 31h1v1h-1v-1z" fill="rgb(131,57,24)"/>
<path d="M36 31h1v1h-1v-1z" fill="rgb(172,82,57)"/>
<path d="M37 31h1v2h2v1h-1v1h-2v-1h-1v-2h1v-1z" fill="rgb(205,115,74)"/>
<path d="M38 31h2v1h-2v-1z" fill="rgb(246,238,189)"/>
<path d="M44 31h1v1h-1v-1z" fill="rgb(131,57,24)"/>
<path d="M45 31h1v1h-1v-1z" fill="rgb(16,16,16)"/>
<path d="M46 31h2v1h-2v-1z" fill="rgb(90,41,0)"/>
<path d="M48 31h1v1h-1v-1z" fill="rgb(16,16,16)"/>
<path d="M50 31h1v1h-1v-1z" fill="rgb(16,16,16)"/>
<path d="M51 31h1v1h-1v-1z" fill="rgb(172,82,57)"/>
<path d="M52 31h3v1h1v1h-1v1h-3v-1h-1v-1h1v-1z" fill="rgb(205,115,74)"/>
<path d="M58 31h1v1h-1v-1z" fill="rgb(90,41,0)"/>
<path d="M64 31h3v2h1v1h-1v3h-1v-4h-1v-1h-1v-1z" fill="rgb(197,115,41)"/>
<path d="M34 32h1v2h-1v-2z" fill="rgb(131,57,24)"/>
<path d="M35 32h1v2h1v1h2v-1h1v-1h1v3h-1v1h-1v-1h-2v2h-1v-1h-1v-1h-1v-2h1v-2z" fill="rgb(172,82,57)"/>
<path d="M38 32h2v1h-2v-1z" fill="rgb(255,189,65)"/>
<path d="M40 32h1v1h-1v-1z" fill="rgb(205,115,74)"/>
<path d="M44 32h1v1h-1v-1z" fill="rgb(16,16,16)"/>
<path d="M45 32h4v1h-4v-1z" fill="rgb(255,115,0)"/>
<path d="M49 32h1v1h-1v-1z" fill="rgb(16,16,16)"/>
<path d="M50 32h1v1h1v1h3v-1h1v1h2v-2h1v4h-1v1h-2v1h-3v-2h-1v-1h-1v-1h-1v-2z" fill="rgb(172,82,57)"/>
<path d="M56 32h1v1h-1v-1z" fill="rgb(246,238,189)"/>
<path d="M57 32h1v1h-1v-1z" fill="rgb(205,115,74)"/>
<path d="M59 32h1v2h-1v-2z" fill="rgb(90,41,0)"/>
<path d="M67 32h1v1h-1v-1z" fill="rgb(139,57,24)"/>
<path d="M41 33h1v1h-1v-1z" fill="rgb(255,189,65)"/>
<path d="M43 33h1v1h-1v-1z" fill="rgb(131,57,24)"/>
<path d="M44 33h5v1h-5v-1z" fill="rgb(90,41,0)"/>
<path d="M49 33h1v1h-1v-1z" fill="rgb(131,57,24)"/>
<path d="M56 33h1v1h-1v-1z" fill="rgb(255,189,65)"/>
<path d="M57 33h1v1h-1v-1z" fill="rgb(246,238,189)"/>
<path d="M68 33h1v1h-1v-1z" fill="rgb(139,57,24)"/>
<path d="M33 34h1v1h-1v-1z" fill="rgb(90,41,0)"/>
<path d="M41 34h1v1h-1v-1z" fill="rgb(205,115,74)"/>
<path d="M42 34h2v1h-2v-1z" fill="rgb(90,41,0)"/>
<path d="M44 34h4v1h2v1h1v5h-1v1h-2v1h-4v-1h-2v-1h-1v-4h1v2h1v1h1v1h1v1h2v-2h-1v-1h1v-3
	h-1v-1h-2v-1z" fill="rgb(172,82,57)"/>
<path d="M48 34h1v1h-1v-1z" fill="rgb(131,57,24)"/>
<path d="M49 34h1v1h-1v-1z" fill="rgb(90,41,0)"/>
<path d="M50 34h1v1h-1v-1z" fill="rgb(16,16,16)"/>
<path d="M59 34h1v5h-1v2h-1v1h-4v-4h2v1h2v-3h1v-2z" fill="rgb(131,57,24)"/>
<path d="M60 34h1v2h-1v-2z" fill="rgb(90,41,0)"/>
<path d="M67 34h1v2h1v3h-1v2h-1v-1h-1v-2h1v-4z" fill="rgb(255,115,0)"/>
<path d="M68 34h1v2h-1v-2z" fill="rgb(197,115,41)"/>
<path d="M33 35h1v3h-1v-3z" fill="rgb(16,16,16)"/>
<path d="M41 35h1v1h-1v-1z" fill="rgb(90,41,0)"/>
<path d="M42 35h1v1h-1v-1z" fill="rgb(172,82,57)"/>
<path d="M43 35h1v2h2v-1h1v3h-3v1h-1v-1h-1v-3h1v-1z" fill="rgb(205,115,74)"/>
<path d="M44 35h2v1h-2v-1z" fill="rgb(255,189,65)"/>
<path d="M50 35h1v1h-1v-1z" fill="rgb(131,57,24)"/>
<path d="M51 35h1v1h-1v-1z" fill="rgb(16,16,16)"/>
<path d="M54 35h1v1h-1v-1z" fill="rgb(255,189,65)"/>
<path d="M69 35h1v2h-1v-2z" fill="rgb(139,57,24)"/>
<path d="M34 36h1v1h1v1h2v1h1v2h-3v-1h-1v-2h-1v-2z" fill="rgb(131,57,24)"/>
<path d="M37 36h1v1h-1v-1z" fill="rgb(246,238,189)"/>
<path d="M38 36h1v1h-1v-1z" fill="rgb(255,189,65)"/>
<path d="M40 36h1v2h-1v-2z" fill="rgb(90,41,0)"/>
<path d="M41 36h1v1h-1v-1z" fill="rgb(131,57,24)"/>
<path d="M44 36h2v1h-2v-1z" fill="rgb(246,238,189)"/>
<path d="M51 36h1v2h1v4h-1v2h-1v1h-2v1h-5v-1h-2v-1h-1v-2h-1v-4h1v3h1v1h2v1h4v-1h2v-1h1
	v-5z" fill="rgb(131,57,24)"/>
<path d="M52 36h1v1h-1v-1z" fill="rgb(16,16,16)"/>
<path d="M60 36h1v3h-1v-3z" fill="rgb(16,16,16)"/>
<path d="M37 37h1v1h-1v-1z" fill="rgb(255,189,65)"/>
<path d="M38 37h1v1h-1v-1z" fill="rgb(246,238,189)"/>
<path d="M39 37h1v1h-1v-1z" fill="rgb(131,57,24)"/>
<path d="M48 37h1v1h-1v-1z" fill="rgb(255,189,65)"/>
<path d="M49 37h1v1h-1v-1z" fill="rgb(205,115,74)"/>
<path d="M52 37h1v1h-1v-1z" fill="rgb(90,41,0)"/>
<path d="M56 37h1v1h-1v-1z" fill="rgb(205,115,74)"/>
<path d="M57 37h1v1h-1v-1z" fill="rgb(246,238,189)"/>
<path d="M66 37h1v1h-1v-1z" fill="rgb(139,57,24)"/>
<path d="M69 37h1v2h-1v-2z" fill="rgb(16,16,16)"/>
<path d="M34 38h1v2h-1v-2z" fill="rgb(16,16,16)"/>
<path d="M38 38h1v1h-1v-1z" fill="rgb(255,189,65)"/>
<path d="M39 38h1v3h-1v-3z" fill="rgb(90,41,0)"/>
<path d="M48 38h2v1h-2v-1z" fill="rgb(246,238,189)"/>
<path d="M53 38h1v5h2v1h-4v-1h1v-5z" fill="rgb(16,16,16)"/>
<path d="M56 38h1v1h-1v-1z" fill="rgb(246,238,189)"/>
<path d="M57 38h1v1h-1v-1z" fill="rgb(255,189,65)"/>
<path d="M65 38h1v1h-1v-1z" fill="rgb(139,57,24)"/>
<path d="M30 39h4v1h-4v-1z" fill="rgb(139,57,24)"/>
<path d="M44 39h1v1h-1v-1z" fill="rgb(255,189,65)"/>
<path d="M45 39h1v1h1v1h-1v1h-1v-1h-1v-1h1v-1z" fill="rgb(246,238,189)"/>
<path d="M48 39h1v1h-1v-1z" fill="rgb(205,115,74)"/>
<path d="M49 39h1v1h-1v-1z" fill="rgb(255,189,65)"/>
<path d="M59 39h1v2h-1v-2z" fill="rgb(16,16,16)"/>
<path d="M63 39h2v1h-2v-1z" fill="rgb(139,57,24)"/>
<path d="M65 39h1v1h1v2h-1v1h-1v1h-2v1h-3v-1h-1v-1h-1v-1h1v-1h4v-1h2v-1z" fill="rgb(197,115,41)"/>
<path d="M68 39h1v1h-1v-1z" fill="rgb(139,57,24)"/>
<path d="M27 40h2v1h-2v-1z" fill="rgb(139,57,24)"/>
<path d="M29 40h1v1h-1v-1z" fill="rgb(197,115,41)"/>
<path d="M30 40h4v2h1v1h-1v1h-2v1h-3v-2h-1v-2h2v-1z" fill="rgb(255,115,0)"/>
<path d="M34 40h1v1h1v2h-1v-1h-1v-2z" fill="rgb(197,115,41)"/>
<path d="M35 40h1v1h-1v-1z" fill="rgb(16,16,16)"/>
<path d="M60 40h3v1h-3v-1z" fill="rgb(139,57,24)"/>
<path d="M68 40h1v1h-1v-1z" fill="rgb(16,16,16)"/>
<path d="M25 41h2v1h-2v-1z" fill="rgb(197,115,41)"/>
<path d="M27 41h1v2h1v2h-1v1h-1v-1h-1v-1h-1v-2h2v-1z" fill="rgb(255,189,65)"/>
<path d="M36 41h1v1h-1v-1z" fill="rgb(16,16,16)"/>
<path d="M37 41h2v1h-2v-1z" fill="rgb(90,41,0)"/>
<path d="M39 41h1v2h-2v-1h1v-1z" fill="rgb(16,16,16)"/>
<path d="M46 41h1v1h-1v-1z" fill="rgb(255,189,65)"/>
<path d="M58 41h1v1h-1v-1z" fill="rgb(16,16,16)"/>
<path d="M67 41h1v1h-1v-1z" fill="rgb(139,57,24)"/>
<path d="M24 42h1v1h-1v-1z" fill="rgb(197,115,41)"/>
<path d="M36 42h2v1h-2v-1z" fill="rgb(139,57,24)"/>
<path d="M40 42h1v1h-1v-1z" fill="rgb(90,41,0)"/>
<path d="M52 42h1v1h-1v-1z" fill="rgb(90,41,0)"/>
<path d="M54 42h2v1h-2v-1z" fill="rgb(90,41,0)"/>
<path d="M56 42h2v1h-2v-1z" fill="rgb(16,16,16)"/>
<path d="M66 42h1v1h-1v-1z" fill="rgb(139,57,24)"/>
<path d="M23 43h1v1h-1v-1z" fill="rgb(139,57,24)"/>
<path d="M24 43h1v1h1v1h1v1h-1v1h-1v1h-1v4h-1v-2h-1v-4h1v-2h1v-1z" fill="rgb(255,115,0)"/>
<path d="M34 43h2v1h-2v-1z" fill="rgb(139,57,24)"/>
<path d="M36 43h1v2h1v1h1v1h-2v1h-2v-1h-1v-1h-2v-1h2v-1h2v-1z" fill="rgb(255,115,0)"/>
<path d="M37 43h2v1h2v1h1v1h-4v-1h-1v-2z" fill="rgb(197,115,41)"/>
<path d="M39 43h1v1h-1v-1z" fill="rgb(139,57,24)"/>
<path d="M40 43h1v1h-1v-1z" fill="rgb(16,16,16)"/>
<path d="M56 43h1v1h2v1h-1v1h-1v1h-4v-1h-2v-1h1v-1h4v-1z" fill="rgb(197,115,41)"/>
<path d="M57 43h2v1h-2v-1z" fill="rgb(139,57,24)"/>
<path d="M65 43h1v1h-1v-1z" fill="rgb(16,16,16)"/>
<path d="M22 44h1v2h-1v-2z" fill="rgb(139,57,24)"/>
<path d="M32 44h1v1h-1v-1z" fill="rgb(139,57,24)"/>
<path d="M33 44h1v1h-1v-1z" fill="rgb(197,115,41)"/>
<path d="M41 44h1v1h-1v-1z" fill="rgb(16,16,16)"/>
<path d="M51 44h1v1h-1v-1z" fill="rgb(16,16,16)"/>
<path d="M59 44h1v1h-1v-1z" fill="rgb(139,57,24)"/>
<path d="M63 44h1v1h-1v-1z" fill="rgb(139,57,24)"/>
<path d="M64 44h1v1h-1v-1z" fill="rgb(16,16,16)"/>
<path d="M28 45h1v1h-1v-1z" fill="rgb(139,57,24)"/>
<path d="M29 45h2v1h-2v-1z" fill="rgb(16,16,16)"/>
<path d="M31 45h1v1h-1v-1z" fill="rgb(197,115,41)"/>
<path d="M42 45h2v1h-2v-1z" fill="rgb(16,16,16)"/>
<path d="M49 45h1v1h-1v-1z" fill="rgb(90,41,0)"/>
<path d="M50 45h1v1h-1v-1z" fill="rgb(16,16,16)"/>
<path d="M58 45h2v1h-1v1h-1v1h-3v-1h2v-1h1v-1z" fill="rgb(255,115,0)"/>
<path d="M60 45h1v1h-1v-1z" fill="rgb(139,57,24)"/>
<path d="M61 45h2v1h-2v-1z" fill="rgb(16,16,16)"/>
<path d="M21 46h1v4h-1v-4z" fill="rgb(139,57,24)"/>
<path d="M26 46h1v1h-1v-1z" fill="rgb(139,57,24)"/>
<path d="M27 46h1v1h-1v-1z" fill="rgb(16,16,16)"/>
<path d="M30 46h1v1h-1v-1z" fill="rgb(197,115,41)"/>
<path d="M31 46h3v1h1v1h-1v1h-1v1h-1v-1h-1v-1h-1v-1h1v-1z" fill="rgb(255,189,65)"/>
<path d="M39 46h1v1h-1v-1z" fill="rgb(139,57,24)"/>
<path d="M40 46h2v1h-2v-1z" fill="rgb(16,16,16)"/>
<path d="M42 46h2v1h5v-1h2v1h2v1h-3v1h-1v-1h-1v1h-5v-1h-3v1h-2v-1h1v-1h3v-1z" fill="rgb(74,106,123)"/>
<path d="M44 46h5v1h-5v-1z" fill="rgb(16,16,16)"/>
<path d="M51 46h1v1h-1v-1z" fill="rgb(16,16,16)"/>
<path d="M52 46h1v1h-1v-1z" fill="rgb(139,57,24)"/>
<path d="M59 46h2v1h1v1h-1v1h-1v1h-2v-1h-1v-1h1v-1h1v-1z" fill="rgb(255,189,65)"/>
<path d="M61 46h1v1h-1v-1z" fill="rgb(139,57,24)"/>
<path d="M25 47h1v1h-1v-1z" fill="rgb(139,57,24)"/>
<path d="M29 47h1v2h-1v-2z" fill="rgb(139,57,24)"/>
<path d="M37 47h1v1h-1v-1z" fill="rgb(139,57,24)"/>
<path d="M38 47h1v1h-1v-1z" fill="rgb(16,16,16)"/>
<path d="M53 47h1v1h-1v-1z" fill="rgb(16,16,16)"/>
<path d="M54 47h1v1h-1v-1z" fill="rgb(139,57,24)"/>
<path d="M62 47h1v2h-1v-2z" fill="rgb(139,57,24)"/>
<path d="M24 48h1v1h-1v-1z" fill="rgb(139,57,24)"/>
<path d="M30 48h1v1h1v1h1v1h-1v1h-1v1h-1v-1h-1v-3h1v-1z" fill="rgb(255,115,0)"/>
<path d="M34 48h1v1h-1v-1z" fill="rgb(255,115,0)"/>
<path d="M35 48h1v1h-1v-1z" fill="rgb(139,57,24)"/>
<path d="M36 48h1v1h-1v-1z" fill="rgb(16,16,16)"/>
<path d="M37 48h1v1h-1v-1z" fill="rgb(16,49,74)"/>
<path d="M40 48h2v1h-2v-1z" fill="rgb(123,131,164)"/>
<path d="M42 48h1v1h-1v-1z" fill="rgb(16,49,74)"/>
<path d="M48 48h1v1h-1v-1z" fill="rgb(16,49,74)"/>
<path d="M50 48h3v1h1v1h-3v-1h-1v-1z" fill="rgb(123,131,164)"/>
<path d="M53 48h2v1h1v1h1v2h1v6h-1v2h-1v1h-1v1h-2v1h-1v3h1v1h1v1h-4v-2h1v-2h-1v-1h-7v2h1
	v2h-2v1h-1v-1h-2v-1h2v-1h1v-2h-1v-1h-2v-1h-1v-1h-1v-2h1v1h2v1h7v1h1v-1h2v-1h3
	v-1h1v-2h1v-6h-1v-1h-1v-1z" fill="rgb(74,106,123)"/>
<path d="M55 48h1v1h-1v-1z" fill="rgb(16,16,16)"/>
<path d="M56 48h1v1h-1v-1z" fill="rgb(139,57,24)"/>
<path d="M61 48h1v1h1v1h-1v1h-1v1h-1v-1h-1v-1h1v-1h1v-1z" fill="rgb(255,115,0)"/>
<path d="M24 49h1v2h-1v-2z" fill="rgb(16,16,16)"/>
<path d="M28 49h1v3h-1v-3z" fill="rgb(139,57,24)"/>
<path d="M33 49h1v1h-1v-1z" fill="rgb(255,115,0)"/>
<path d="M34 49h1v1h-1v-1z" fill="rgb(139,57,24)"/>
<path d="M36 49h1v1h-1v-1z" fill="rgb(16,49,74)"/>
<path d="M37 49h1v1h-1v-1z" fill="rgb(74,106,123)"/>
<path d="M38 49h2v1h-2v-1z" fill="rgb(123,131,164)"/>
<path d="M40 49h2v1h-2v-1z" fill="rgb(16,16,16)"/>
<path d="M42 49h7v1h2v1h3v-1h1v4h-1v-1h-3v-1h-12v1h-1v3h1v1h6v1h1v-1h1v3h-7v-1h-2v-1h-1
	v-1h-1v-6h1v-1h1v1h2v-1h2v-1z" fill="rgb(123,131,164)"/>
<path d="M49 49h2v1h-2v-1z" fill="rgb(16,16,16)"/>
<path d="M56 49h1v1h-1v-1z" fill="rgb(16,49,74)"/>
<path d="M57 49h1v1h-1v-1z" fill="rgb(16,16,16)"/>
<path d="M63 49h1v1h-1v-1z" fill="rgb(16,16,16)"/>
<path d="M22 50h1v2h-1v-2z" fill="rgb(139,57,24)"/>
<path d="M33 50h1v1h-1v-1z" fill="rgb(139,57,24)"/>
<path d="M36 50h1v1h-1v-1z" fill="rgb(74,106,123)"/>
<path d="M38 50h2v1h-2v-1z" fill="rgb(16,16,16)"/>
<path d="M51 50h2v1h-2v-1z" fill="rgb(16,16,16)"/>
<path d="M53 50h1v1h-1v-1z" fill="rgb(16,49,74)"/>
<path d="M57 50h1v2h-1v-2z" fill="rgb(16,49,74)"/>
<path d="M58 50h1v1h-1v-1z" fill="rgb(16,16,16)"/>
<path d="M62 50h1v1h1v5h-1v-1h-1v-2h-1v-2h1v-1z" fill="rgb(197,115,41)"/>
<path d="M63 50h1v1h-1v-1z" fill="rgb(139,57,24)"/>
<path d="M24 51h1v2h1v1h-2v-1h-1v-1h1v-1z" fill="rgb(139,57,24)"/>
<path d="M32 51h1v1h-1v-1z" fill="rgb(16,16,16)"/>
<path d="M35 51h1v6h-2v-1h1v-5z" fill="rgb(16,49,74)"/>
<path d="M58 51h1v1h-1v-1z" fill="transparent"/>
<path d="M59 51h1v1h-1v-1z" fill="rgb(16,16,16)"/>
<path d="M64 51h1v5h-1v-5z" fill="rgb(16,16,16)"/>
<path d="M25 52h1v1h-1v-1z" fill="rgb(16,16,16)"/>
<path d="M29 52h1v1h1v1h-2v-2z" fill="rgb(139,57,24)"/>
<path d="M31 52h1v2h-1v-2z" fill="rgb(16,16,16)"/>
<path d="M39 52h12v1h1v1h-2v-1h-10v1h-2v-1h1v-1z" fill="rgb(74,106,123)"/>
<path d="M58 52h1v1h-1v-1z" fill="rgb(16,16,16)"/>
<path d="M60 52h1v1h-1v-1z" fill="rgb(16,16,16)"/>
<path d="M26 53h1v1h-1v-1z" fill="rgb(16,16,16)"/>
<path d="M40 53h10v1h-10v-1z" fill="rgb(180,90,197)"/>
<path d="M52 53h2v1h-2v-1z" fill="rgb(16,49,74)"/>
<path d="M58 53h1v3h-1v-3z" fill="rgb(16,49,74)"/>
<path d="M61 53h1v1h-1v-1z" fill="rgb(139,57,24)"/>
<path d="M30 54h1v1h-1v-1z" fill="rgb(16,16,16)"/>
<path d="M31 54h1v1h-1v-1z" fill="rgb(139,57,24)"/>
<path d="M38 54h1v1h-1v-1z" fill="rgb(16,49,74)"/>
<path d="M39 54h1v1h-1v-1z" fill="rgb(180,90,197)"/>
<path d="M40 54h7v1h-7v-1z" fill="rgb(16,16,16)"/>
<path d="M47 54h3v1h-3v-1z" fill="rgb(16,49,74)"/>
<path d="M50 54h1v1h-1v-1z" fill="rgb(180,90,197)"/>
<path d="M51 54h1v1h-1v-1z" fill="rgb(16,49,74)"/>
<path d="M52 54h2v4h-2v-4z" fill="rgb(123,131,164)"/>
<path d="M54 54h1v2h-1v-2z" fill="rgb(16,49,74)"/>
<path d="M61 54h1v1h-1v-1z" fill="rgb(16,16,16)"/>
<path d="M31 55h1v1h-1v-1z" fill="rgb(16,16,16)"/>
<path d="M32 55h1v1h-1v-1z" fill="rgb(139,57,24)"/>
<path d="M38 55h1v1h-1v-1z" fill="rgb(74,106,123)"/>
<path d="M39 55h1v1h-1v-1z" fill="rgb(16,49,74)"/>
<path d="M40 55h5v1h-5v-1z" fill="rgb(180,90,197)"/>
<path d="M45 55h4v5h-1v1h-1v-5h-1v2h-1v-3z" fill="rgb(246,238,189)"/>
<path d="M49 55h1v1h-1v-1z" fill="rgb(180,90,197)"/>
<path d="M50 55h1v1h-1v-1z" fill="rgb(16,49,74)"/>
<path d="M51 55h1v2h-1v-2z" fill="rgb(16,16,16)"/>
<path d="M62 55h1v1h1v1h-1v1h-1v-3z" fill="rgb(139,57,24)"/>
<path d="M39 56h1v1h-1v-1z" fill="rgb(74,106,123)"/>
<path d="M40 56h5v1h-5v-1z" fill="rgb(16,49,74)"/>
<path d="M46 56h1v1h-1v-1z" fill="rgb(16,49,74)"/>
<path d="M49 56h1v1h-1v-1z" fill="rgb(16,49,74)"/>
<path d="M50 56h1v1h-1v-1z" fill="rgb(74,106,123)"/>
<path d="M55 56h1v2h-1v-2z" fill="rgb(16,49,74)"/>
<path d="M58 56h1v2h-1v-2z" fill="rgb(16,16,16)"/>
<path d="M32 57h2v1h-2v-1z" fill="rgb(16,49,74)"/>
<path d="M34 57h1v1h1v1h-1v1h-1v1h-2v-1h1v-2h1v-1z" fill="rgb(74,106,123)"/>
<path d="M35 57h1v1h-1v-1z" fill="rgb(16,16,16)"/>
<path d="M36 57h1v1h-1v-1z" fill="rgb(74,106,123)"/>
<path d="M49 57h2v1h1v1h-2v1h-1v-3z" fill="rgb(123,131,164)"/>
<path d="M51 57h1v1h-1v-1z" fill="rgb(16,49,74)"/>
<path d="M63 57h1v1h-1v-1z" fill="rgb(16,16,16)"/>
<path d="M30 58h2v1h-2v-1z" fill="rgb(16,49,74)"/>
<path d="M32 58h1v2h-1v1h-2v-2h2v-1z" fill="rgb(123,131,164)"/>
<path d="M36 58h1v1h-1v-1z" fill="rgb(16,49,74)"/>
<path d="M52 58h1v1h-1v-1z" fill="rgb(16,49,74)"/>
<path d="M57 58h1v1h-1v-1z" fill="rgb(16,49,74)"/>
<path d="M61 58h1v1h-1v-1z" fill="rgb(139,57,24)"/>
<path d="M62 58h1v1h-1v-1z" fill="rgb(16,16,16)"/>
<path d="M29 59h1v2h-1v-2z" fill="rgb(16,49,74)"/>
<path d="M35 59h2v1h-2v-1z" fill="rgb(16,16,16)"/>
<path d="M57 59h1v1h-1v-1z" fill="rgb(16,16,16)"/>
<path d="M60 59h1v1h-1v-1z" fill="rgb(139,57,24)"/>
<path d="M61 59h1v1h-1v-1z" fill="rgb(16,16,16)"/>
<path d="M34 60h1v1h-1v-1z" fill="rgb(16,16,16)"/>
<path d="M37 60h1v1h-1v-1z" fill="rgb(16,16,16)"/>
<path d="M56 60h1v1h-1v-1z" fill="rgb(16,16,16)"/>
<path d="M30 61h2v1h-2v-1z" fill="rgb(16,49,74)"/>
<path d="M32 61h2v1h-2v-1z" fill="rgb(16,16,16)"/>
<path d="M38 61h1v1h-1v-1z" fill="rgb(16,16,16)"/>
<path d="M55 61h1v1h-1v-1z" fill="rgb(16,16,16)"/>
<path d="M39 62h1v1h-1v-1z" fill="rgb(16,16,16)"/>
<path d="M40 62h1v1h-1v-1z" fill="rgb(16,49,74)"/>
<path d="M53 62h1v1h-1v-1z" fill="rgb(16,49,74)"/>
<path d="M54 62h1v1h-1v-1z" fill="rgb(16,16,16)"/>
<path d="M41 63h1v1h-1v-1z" fill="rgb(16,49,74)"/>
<path d="M43 63h7v1h-6v1h-1v-2z" fill="rgb(16,16,16)"/>
<path d="M52 63h1v3h-1v-3z" fill="rgb(16,16,16)"/>
<path d="M41 64h1v1h-1v-1z" fill="rgb(16,16,16)"/>
<path d="M50 64h1v2h-1v-2z" fill="rgb(16,16,16)"/>
<path d="M38 65h3v1h-3v-1z" fill="rgb(16,49,74)"/>
<path d="M44 65h1v2h-1v-2z" fill="rgb(16,16,16)"/>
<path d="M35 66h3v1h-3v-1z" fill="rgb(16,49,74)"/>
<path d="M38 66h1v1h2v1h-2v1h-3v-1h-1v-1h3v-1z" fill="rgb(123,131,164)"/>
<path d="M49 66h1v2h-1v-2z" fill="rgb(16,16,16)"/>
<path d="M53 66h3v1h-3v-1z" fill="rgb(16,49,74)"/>
<path d="M34 67h1v1h-1v-1z" fill="rgb(16,49,74)"/>
<path d="M42 67h1v1h-1v-1z" fill="rgb(16,49,74)"/>
<path d="M43 67h1v1h-1v-1z" fill="rgb(16,16,16)"/>
<path d="M54 67h2v1h3v1h-1v1h-2v-1h-4v-1h2v-1z" fill="rgb(123,131,164)"/>
<path d="M56 67h3v1h-3v-1z" fill="rgb(16,49,74)"/>
<path d="M34 68h1v1h-1v-1z" fill="rgb(16,16,16)"/>
<path d="M35 68h1v1h-1v-1z" fill="rgb(74,106,123)"/>
<path d="M39 68h1v1h-1v-1z" fill="rgb(74,106,123)"/>
<path d="M40 68h1v1h-1v-1z" fill="rgb(16,49,74)"/>
<path d="M41 68h1v1h-1v-1z" fill="rgb(16,16,16)"/>
<path d="M50 68h2v1h-2v-1z" fill="rgb(16,16,16)"/>
<path d="M59 68h1v1h-1v-1z" fill="rgb(16,49,74)"/>
<path d="M35 69h5v1h-5v-1z" fill="rgb(16,16,16)"/>
<path d="M52 69h2v1h-2v-1z" fill="rgb(16,16,16)"/>
<path d="M54 69h1v1h-1v-1z" fill="rgb(16,49,74)"/>
<path d="M55 69h1v1h-1v-1z" fill="rgb(74,106,123)"/>
<path d="M58 69h1v1h-1v-1z" fill="rgb(74,106,123)"/>
<path d="M59 69h1v1h-1v-1z" fill="rgb(16,16,16)"/>
<path d="M55 70h4v1h-4v-1z" fill="rgb(16,16,16)"/>
</svg>
