<?xml version="1.0" encoding="utf-8"?>
<!-- generated at drububu.com  -->
<!DOCTYPE svg PUBLIC "-//W3C//DTD SVG 1.1//EN" "http://www.w3.org/Graphics/SVG/1.1/DTD/svg11.dtd">
<svg version="1.1" preserveAspectRatio="xMinYMin meet" xmlns="http://www.w3.org/2000/svg" xmlns:xlink="http://www.w3.org/1999/xlink" x="0px" y="0px" width="96px" height="96px" viewBox="0 0 96 96">
<path d="M0 0h96v96h-96v-96z" fill="transparent"/>
<path d="M38 25h8v1h-8v-1z" fill="rgb(16,16,16)"/>
<path d="M52 25h10v1h-10v-1z" fill="rgb(115,24,16)"/>
<path d="M35 26h3v1h-3v-1z" fill="rgb(115,24,16)"/>
<path d="M38 26h8v1h2v1h-3v-1h-4v1h-5v1h-1v1h-1v1h-1v1h-1v1h-3v-2h1v-1h1v-1h2v-1h2v-1h3
	v-1z" fill="rgb(246,139,139)"/>
<path d="M46 26h2v1h-2v-1z" fill="rgb(16,16,16)"/>
<path d="M50 26h2v1h-2v-1z" fill="rgb(115,24,16)"/>
<path d="M52 26h5v1h-4v2h-2v-1h-1v-1h2v-1z" fill="rgb(246,139,139)"/>
<path d="M57 26h3v1h-3v-1z" fill="rgb(246,115,115)"/>
<path d="M60 26h2v1h3v1h2v1h1v4h1v1h-2v-1h-2v-4h-2v-1h-2v-1h-1v-1z" fill="rgb(222,74,90)"/>
<path d="M62 26h3v1h-3v-1z" fill="rgb(16,16,16)"/>
<path d="M33 27h2v1h-2v-1z" fill="rgb(115,24,16)"/>
<path d="M41 27h1v1h-1v-1z" fill="rgb(246,115,115)"/>
<path d="M42 27h1v1h-1v-1z" fill="rgb(246,172,180)"/>
<path d="M43 27h2v1h-1v1h-2v-1h1v-1z" fill="rgb(255,205,213)"/>
<path d="M48 27h2v1h-2v-1z" fill="rgb(115,24,16)"/>
<path d="M53 27h1v1h-1v-1z" fill="rgb(246,172,180)"/>
<path d="M54 27h3v1h-1v1h-3v-1h1v-1z" fill="rgb(255,205,213)"/>
<path d="M57 27h3v1h1v3h3v1h-5v-1h-1v-1h-1v-3z" fill="rgb(246,139,139)"/>
<path d="M60 27h1v1h-1v-1z" fill="rgb(246,115,115)"/>
<path d="M65 27h2v1h-2v-1z" fill="rgb(16,16,16)"/>
<path d="M31 28h2v1h-2v-1z" fill="rgb(115,24,16)"/>
<path d="M36 28h2v1h1v1h-2v1h-1v-1h-1v-1h1v-1z" fill="rgb(255,205,213)"/>
<path d="M38 28h1v1h-1v-1z" fill="rgb(246,172,180)"/>
<path d="M39 28h2v1h-2v-1z" fill="rgb(246,115,115)"/>
<path d="M41 28h1v1h4v1h-5v1h-2v1h-1v1h-1v1h-3v-1h-1v-1h1v-1h4v-1h1v-1h2v-1z" fill="rgb(222,74,90)"/>
<path d="M44 28h1v1h-1v-1z" fill="rgb(246,172,180)"/>
<path d="M45 28h2v1h-2v-1z" fill="rgb(246,115,115)"/>
<path d="M47 28h1v1h-1v-1z" fill="rgb(115,24,16)"/>
<path d="M48 28h1v1h2v1h2v-1h3v1h1v1h1v2h-5v1h-1v-1h-1v-1h-1v-1h-1v-1h-2v-1h1v-1z" fill="rgb(222,74,90)"/>
<path d="M49 28h2v1h-2v-1z" fill="rgb(246,115,115)"/>
<path d="M56 28h1v1h-1v-1z" fill="rgb(246,172,180)"/>
<path d="M61 28h2v1h-2v-1z" fill="rgb(246,115,115)"/>
<path d="M67 28h1v1h-1v-1z" fill="rgb(16,16,16)"/>
<path d="M30 29h1v1h-1v-1z" fill="rgb(115,24,16)"/>
<path d="M46 29h1v1h-1v-1z" fill="rgb(115,24,16)"/>
<path d="M51 29h2v1h-2v-1z" fill="rgb(246,115,115)"/>
<path d="M56 29h1v1h-1v-1z" fill="rgb(246,115,115)"/>
<path d="M61 29h1v1h-1v-1z" fill="rgb(246,172,180)"/>
<path d="M62 29h3v1h-1v1h-3v-1h1v-1z" fill="rgb(255,205,213)"/>
<path d="M68 29h1v1h-1v-1z" fill="rgb(16,16,16)"/>
<path d="M29 30h1v1h-1v-1z" fill="rgb(115,24,16)"/>
<path d="M34 30h1v1h-1v-1z" fill="rgb(246,115,115)"/>
<path d="M35 30h1v1h-1v-1z" fill="rgb(246,172,180)"/>
<path d="M37 30h1v1h-1v-1z" fill="rgb(246,172,180)"/>
<path d="M41 30h6v1h-6v-1z" fill="rgb(148,74,0)"/>
<path d="M47 30h2v1h-2v-1z" fill="rgb(16,16,16)"/>
<path d="M57 30h1v1h-1v-1z" fill="rgb(246,115,115)"/>
<path d="M64 30h1v1h-1v-1z" fill="rgb(246,172,180)"/>
<path d="M68 30h1v2h1v3h-1v-2h-1v-3z" fill="rgb(156,57,65)"/>
<path d="M69 30h1v2h-1v-2z" fill="rgb(16,16,16)"/>
<path d="M28 31h1v2h5v1h-8v-1h2v-2z" fill="rgb(115,24,16)"/>
<path d="M33 31h1v1h-1v-1z" fill="rgb(246,115,115)"/>
<path d="M39 31h2v1h-2v-1z" fill="rgb(148,74,0)"/>
<path d="M41 31h1v1h-1v-1z" fill="rgb(205,98,24)"/>
<path d="M42 31h5v1h2v3h-1v1h-1v1h-2v1h-6v-1h-1v-1h-1v-1h1v-1h1v2h1v1h4v-1h2v-1h1v-2h-1
	v-1h-4v-1z" fill="rgb(255,131,41)"/>
<path d="M47 31h1v1h-1v-1z" fill="rgb(205,98,24)"/>
<path d="M48 31h1v1h-1v-1z" fill="rgb(148,74,0)"/>
<path d="M49 31h1v1h-1v-1z" fill="rgb(16,16,16)"/>
<path d="M58 31h1v1h-1v-1z" fill="rgb(246,115,115)"/>
<path d="M64 31h1v2h-1v-2z" fill="rgb(246,115,115)"/>
<path d="M32 32h1v1h-1v-1z" fill="rgb(246,115,115)"/>
<path d="M38 32h1v1h-1v-1z" fill="rgb(148,74,0)"/>
<path d="M39 32h1v1h-1v-1z" fill="rgb(205,98,24)"/>
<path d="M40 32h2v1h-2v-1z" fill="rgb(255,131,41)"/>
<path d="M42 32h3v2h-3v1h-1v-2h1v-1z" fill="rgb(57,65,98)"/>
<path d="M45 32h1v1h1v1h-2v-2z" fill="rgb(24,41,74)"/>
<path d="M49 32h1v1h-1v-1z" fill="rgb(148,74,0)"/>
<path d="M50 32h1v1h-1v-1z" fill="rgb(16,16,16)"/>
<path d="M58 32h6v1h-6v-1z" fill="rgb(115,24,16)"/>
<path d="M70 32h1v3h-1v-3z" fill="rgb(16,16,16)"/>
<path d="M37 33h1v2h-1v-2z" fill="rgb(148,74,0)"/>
<path d="M38 33h1v1h-1v-1z" fill="rgb(205,98,24)"/>
<path d="M39 33h1v1h-1v-1z" fill="rgb(255,131,41)"/>
<path d="M40 33h1v3h-2v-2h1v-1z" fill="rgb(24,41,74)"/>
<path d="M49 33h1v1h-1v-1z" fill="rgb(205,98,24)"/>
<path d="M50 33h1v2h-1v1h-1v-2h1v-1z" fill="rgb(148,74,0)"/>
<path d="M51 33h1v1h-1v-1z" fill="rgb(16,16,16)"/>
<path d="M53 33h5v1h-5v-1z" fill="rgb(115,24,16)"/>
<path d="M58 33h1v2h-1v-2z" fill="rgb(246,115,115)"/>
<path d="M59 33h5v1h1v2h-1v1h-1v2h1v1h-2v1h-1v1h-1v2h-4v1h-3v1h-1v1h-2v-2h-1v-1h1v-1h3
	v-1h1v-2h1v-1h1v-1h2v-1h1v-1h-1v-1h1v-2z" fill="rgb(246,139,139)"/>
<path d="M64 33h3v1h-3v-1z" fill="rgb(115,24,16)"/>
<path d="M23 34h3v1h-3v-1z" fill="rgb(115,24,16)"/>
<path d="M26 34h4v1h-4v-1z" fill="rgb(246,139,139)"/>
<path d="M30 34h1v1h-1v-1z" fill="rgb(246,115,115)"/>
<path d="M31 34h3v1h2v4h-1v1h-2v1h-1v-3h-1v-1h-1v-2h1v-1z" fill="rgb(222,74,90)"/>
<path d="M34 34h3v1h-3v-1z" fill="rgb(115,24,16)"/>
<path d="M42 34h4v1h-2v1h-3v-1h1v-1z" fill="rgb(205,98,24)"/>
<path d="M46 34h1v1h-1v-1z" fill="rgb(148,74,0)"/>
<path d="M51 34h2v1h-2v-1z" fill="rgb(115,24,16)"/>
<path d="M53 34h5v1h-1v1h1v1h-2v1h-1v1h-1v1h-1v2h-3v1h-2v-1h-1v-2h1v-2h1v-1h1v-1h1v-1h2
	v-1z" fill="rgb(222,74,90)"/>
<path d="M65 34h1v2h-1v-2z" fill="rgb(246,115,115)"/>
<path d="M66 34h1v1h2v1h1v5h-1v2h-1v1h-1v1h-1v1h-2v1h-2v1h-3v1h-8v-1h1v-1h1v-1h1v1h4v-1
	h1v-1h1v-1h1v-2h1v-1h2v-1h1v1h2v-1h1v-2h-2v1h-2v-2h1v-1h1v-2z" fill="rgb(222,74,90)"/>
<path d="M67 34h2v1h-2v-1z" fill="rgb(115,24,16)"/>
<path d="M21 35h2v1h-2v-1z" fill="rgb(115,24,16)"/>
<path d="M23 35h2v1h-2v-1z" fill="rgb(246,115,115)"/>
<path d="M25 35h1v2h4v1h1v1h-2v2h2v1h-2v1h-2v1h-1v1h-1v1h-2v-2h1v-4h-3v-1h1v-2h1v-1h2v-1
	z" fill="rgb(246,139,139)"/>
<path d="M26 35h2v1h1v1h-2v-1h-1v-1z" fill="rgb(255,205,213)"/>
<path d="M28 35h1v1h-1v-1z" fill="rgb(246,172,180)"/>
<path d="M29 35h1v2h-1v-2z" fill="rgb(246,115,115)"/>
<path d="M36 35h1v4h-1v-4z" fill="rgb(16,16,16)"/>
<path d="M44 35h2v1h-2v-1z" fill="rgb(148,74,0)"/>
<path d="M48 35h1v1h-1v-1z" fill="rgb(205,98,24)"/>
<path d="M50 35h1v1h-1v-1z" fill="rgb(115,24,16)"/>
<path d="M57 35h1v1h-1v-1z" fill="rgb(246,115,115)"/>
<path d="M69 35h1v1h-1v-1z" fill="rgb(115,24,16)"/>
<path d="M20 36h1v1h-1v-1z" fill="rgb(115,24,16)"/>
<path d="M21 36h1v1h-1v-1z" fill="rgb(222,74,90)"/>
<path d="M22 36h1v1h-1v-1z" fill="rgb(246,115,115)"/>
<path d="M26 36h1v1h-1v-1z" fill="rgb(246,172,180)"/>
<path d="M37 36h1v1h-1v-1z" fill="rgb(205,98,24)"/>
<path d="M40 36h4v1h-4v-1z" fill="rgb(148,74,0)"/>
<path d="M47 36h1v1h-1v-1z" fill="rgb(205,98,24)"/>
<path d="M48 36h1v1h-1v-1z" fill="rgb(148,74,0)"/>
<path d="M49 36h1v1h-1v-1z" fill="rgb(115,24,16)"/>
<path d="M58 36h1v1h-1v-1z" fill="rgb(246,115,115)"/>
<path d="M64 36h1v1h-1v-1z" fill="rgb(246,115,115)"/>
<path d="M70 36h1v2h-1v-2z" fill="rgb(16,16,16)"/>
<path d="M19 37h1v1h-1v-1z" fill="rgb(115,24,16)"/>
<path d="M20 37h1v2h-1v3h1v1h2v1h-1v3h2v1h-1v1h-2v-1h-1v-1h-1v-1h-1v-2h-1v-2h1v-3h1v-1h1
	v-1z" fill="rgb(222,74,90)"/>
<path d="M21 37h1v2h-1v-2z" fill="rgb(246,115,115)"/>
<path d="M30 37h1v1h-1v-1z" fill="rgb(246,115,115)"/>
<path d="M37 37h1v1h8v-1h2v1h-1v2h-4v-1h-6v-2z" fill="rgb(148,74,0)"/>
<path d="M38 37h1v1h-1v-1z" fill="rgb(205,98,24)"/>
<path d="M45 37h1v1h-1v-1z" fill="rgb(205,98,24)"/>
<path d="M48 37h1v1h-1v-1z" fill="rgb(115,24,16)"/>
<path d="M51 37h1v1h1v1h-1v1h-1v-1h-1v-1h1v-1z" fill="rgb(255,205,213)"/>
<path d="M52 37h1v1h-1v-1z" fill="rgb(246,172,180)"/>
<path d="M56 37h2v1h-2v-1z" fill="rgb(246,115,115)"/>
<path d="M63 37h1v2h-1v-2z" fill="rgb(246,115,115)"/>
<path d="M18 38h1v1h-1v-1z" fill="rgb(115,24,16)"/>
<path d="M31 38h1v3h-1v-3z" fill="rgb(246,115,115)"/>
<path d="M47 38h1v2h-1v-2z" fill="rgb(115,24,16)"/>
<path d="M55 38h1v1h-1v-1z" fill="rgb(246,115,115)"/>
<path d="M59 38h1v1h1v1h-1v1h-1v-1h-1v-1h1v-1z" fill="rgb(255,205,213)"/>
<path d="M60 38h1v1h-1v-1z" fill="rgb(246,172,180)"/>
<path d="M66 38h1v1h1v1h-1v1h-1v-1h-1v-1h1v-1z" fill="rgb(255,205,213)"/>
<path d="M67 38h1v1h-1v-1z" fill="rgb(246,172,180)"/>
<path d="M70 38h1v5h-1v2h-1v1h-1v1h-1v1h-2v1h-2v1h-3v1h-9v-2h8v-1h3v-1h2v-1h2v-1h1v-1h1
	v-1h1v-2h1v-3z" fill="rgb(156,57,65)"/>
<path d="M71 38h1v5h-1v-5z" fill="rgb(16,16,16)"/>
<path d="M17 39h1v3h-1v-3z" fill="rgb(115,24,16)"/>
<path d="M20 39h1v1h-1v-1z" fill="rgb(246,115,115)"/>
<path d="M29 39h1v1h1v1h-2v-2z" fill="rgb(255,205,213)"/>
<path d="M30 39h1v1h-1v-1z" fill="rgb(246,172,180)"/>
<path d="M35 39h8v1h-8v-1z" fill="rgb(115,24,16)"/>
<path d="M50 39h1v1h-1v-1z" fill="rgb(246,172,180)"/>
<path d="M54 39h1v1h-1v-1z" fill="rgb(246,115,115)"/>
<path d="M64 39h1v1h-1v-1z" fill="rgb(246,115,115)"/>
<path d="M20 40h1v2h-1v-2z" fill="rgb(246,172,180)"/>
<path d="M21 40h2v1h1v1h-1v1h-1v-1h-1v-2z" fill="rgb(255,205,213)"/>
<path d="M23 40h1v1h-1v-1z" fill="rgb(246,172,180)"/>
<path d="M33 40h2v1h-2v-1z" fill="rgb(115,24,16)"/>
<path d="M35 40h8v1h3v1h1v2h-2v-1h-1v-1h-3v1h-1v1h-1v1h-1v-1h-1v-1h-1v1h-1v-1h-3v-1h1v-1
	h2v-1z" fill="rgb(222,74,90)"/>
<path d="M43 40h4v2h-1v-1h-3v-1z" fill="rgb(115,24,16)"/>
<path d="M53 40h1v2h-1v-2z" fill="rgb(246,115,115)"/>
<path d="M58 40h1v1h-1v-1z" fill="rgb(246,172,180)"/>
<path d="M62 40h2v1h-2v-1z" fill="rgb(246,115,115)"/>
<path d="M65 40h1v1h-1v-1z" fill="rgb(246,172,180)"/>
<path d="M31 41h2v1h-2v-1z" fill="rgb(115,24,16)"/>
<path d="M61 41h1v1h-1v-1z" fill="rgb(246,115,115)"/>
<path d="M16 42h1v2h-1v-2z" fill="rgb(115,24,16)"/>
<path d="M21 42h1v1h-1v-1z" fill="rgb(246,172,180)"/>
<path d="M23 42h1v1h-1v-1z" fill="rgb(246,172,180)"/>
<path d="M29 42h2v1h-2v-1z" fill="rgb(115,24,16)"/>
<path d="M31 42h1v1h-1v-1z" fill="rgb(246,115,115)"/>
<path d="M41 42h1v1h-1v-1z" fill="rgb(246,172,180)"/>
<path d="M42 42h2v3h-3v-2h1v-1z" fill="rgb(255,205,213)"/>
<path d="M47 42h1v1h-1v-1z" fill="rgb(115,24,16)"/>
<path d="M50 42h3v1h-3v-1z" fill="rgb(246,115,115)"/>
<path d="M60 42h1v2h-1v-2z" fill="rgb(246,115,115)"/>
<path d="M23 43h1v1h-1v-1z" fill="rgb(246,115,115)"/>
<path d="M27 43h2v1h-2v-1z" fill="rgb(115,24,16)"/>
<path d="M29 43h1v1h-1v-1z" fill="rgb(246,115,115)"/>
<path d="M30 43h1v2h3v-1h1v1h1v-1h1v2h-3v1h-1v1h1v1h1v1h-2v1h-2v-2h-1v-1h-1v-1h-4v-1h1
	v-1h2v-1h2v-1z" fill="rgb(246,139,139)"/>
<path d="M31 43h1v1h-1v-1z" fill="rgb(246,172,180)"/>
<path d="M32 43h2v1h-1v1h-2v-1h1v-1z" fill="rgb(255,205,213)"/>
<path d="M34 43h1v1h-1v-1z" fill="rgb(246,115,115)"/>
<path d="M36 43h1v1h-1v-1z" fill="rgb(246,115,115)"/>
<path d="M40 43h1v1h-1v-1z" fill="rgb(246,172,180)"/>
<path d="M44 43h1v1h-1v-1z" fill="rgb(246,172,180)"/>
<path d="M47 43h1v1h-1v-1z" fill="rgb(246,115,115)"/>
<path d="M48 43h1v2h-1v-2z" fill="rgb(115,24,16)"/>
<path d="M49 43h1v1h-1v-1z" fill="rgb(246,115,115)"/>
<path d="M70 43h1v2h-1v-2z" fill="rgb(16,16,16)"/>
<path d="M16 44h1v3h-1v-3z" fill="rgb(16,16,16)"/>
<path d="M17 44h1v2h1v1h1v1h1v1h2v2h-2v-1h-2v-1h-1v-2h-1v-3z" fill="rgb(156,57,65)"/>
<path d="M22 44h1v2h1v1h-2v-3z" fill="rgb(246,115,115)"/>
<path d="M26 44h1v1h-1v-1z" fill="rgb(115,24,16)"/>
<path d="M27 44h1v1h-1v-1z" fill="rgb(246,115,115)"/>
<path d="M33 44h1v1h-1v-1z" fill="rgb(246,172,180)"/>
<path d="M35 44h1v1h-1v-1z" fill="rgb(246,115,115)"/>
<path d="M37 44h1v1h1v1h-2v-2z" fill="rgb(246,115,115)"/>
<path d="M39 44h1v1h-1v-1z" fill="rgb(246,115,115)"/>
<path d="M40 44h1v1h1v1h1v-1h1v-1h1v1h2v-1h1v1h1v2h-5v1h-2v3h-1v-1h-1v-1h-1v1h-1v1h-1v-1
	h-1v-1h1v-1h1v-1h-1v-1h2v-1h1v-1z" fill="rgb(246,139,139)"/>
<path d="M45 44h2v1h-2v-1z" fill="rgb(246,115,115)"/>
<path d="M56 44h1v1h-1v-1z" fill="rgb(246,172,180)"/>
<path d="M57 44h1v2h-1v1h-2v-2h2v-1z" fill="rgb(255,205,213)"/>
<path d="M58 44h1v2h-1v-2z" fill="rgb(246,172,180)"/>
<path d="M59 44h1v1h-1v-1z" fill="rgb(246,115,115)"/>
<path d="M25 45h1v1h-1v-1z" fill="rgb(115,24,16)"/>
<path d="M42 45h1v1h-1v-1z" fill="rgb(246,115,115)"/>
<path d="M49 45h1v2h-1v-2z" fill="rgb(115,24,16)"/>
<path d="M53 45h1v1h-1v-1z" fill="rgb(246,115,115)"/>
<path d="M54 45h1v2h-1v-2z" fill="rgb(246,172,180)"/>
<path d="M69 45h1v1h-1v-1z" fill="rgb(16,16,16)"/>
<path d="M24 46h1v2h-1v-2z" fill="rgb(115,24,16)"/>
<path d="M34 46h3v3h-3v-3z" fill="rgb(255,205,213)"/>
<path d="M52 46h1v1h-1v-1z" fill="rgb(246,115,115)"/>
<path d="M57 46h1v1h-1v-1z" fill="rgb(246,172,180)"/>
<path d="M68 46h1v1h-1v-1z" fill="rgb(16,16,16)"/>
<path d="M17 47h1v2h-1v-2z" fill="rgb(16,16,16)"/>
<path d="M25 47h1v1h-1v-1z" fill="rgb(246,115,115)"/>
<path d="M26 47h1v1h-1v-1z" fill="rgb(246,172,180)"/>
<path d="M27 47h1v1h2v1h-1v1h-1v-1h-2v-1h1v-1z" fill="rgb(255,205,213)"/>
<path d="M28 47h1v1h-1v-1z" fill="rgb(246,172,180)"/>
<path d="M33 47h1v1h-1v-1z" fill="rgb(246,172,180)"/>
<path d="M37 47h1v1h-1v-1z" fill="rgb(246,172,180)"/>
<path d="M44 47h4v1h-4v-1z" fill="rgb(246,115,115)"/>
<path d="M48 47h2v1h-1v2h-1v1h-1v1h-2v1h-4v1h-12v-1h-2v-1h-2v-2h-1v-2h2v1h1v1h3v1h1v1h2
	v-1h2v-1h1v1h1v1h1v-1h1v-1h1v1h5v-1h1v-2h2v-1z" fill="rgb(222,74,90)"/>
<path d="M50 47h1v2h-1v-2z" fill="rgb(115,24,16)"/>
<path d="M51 47h1v1h-1v-1z" fill="rgb(246,115,115)"/>
<path d="M67 47h1v1h-1v-1z" fill="rgb(16,16,16)"/>
<path d="M23 48h1v5h-1v-5z" fill="rgb(115,24,16)"/>
<path d="M42 48h2v1h-2v-1z" fill="rgb(246,172,180)"/>
<path d="M44 48h1v1h1v1h-2v1h-1v-1h-1v-1h2v-1z" fill="rgb(255,205,213)"/>
<path d="M45 48h1v1h-1v-1z" fill="rgb(246,172,180)"/>
<path d="M49 48h1v4h-1v1h-2v1h-2v1h-4v1h-11v-1h-3v-1h-2v-1h-1v-3h1v2h2v1h2v1h12v-1h4v-1
	h2v-1h1v-1h1v-2z" fill="rgb(156,57,65)"/>
<path d="M65 48h2v1h-2v-1z" fill="rgb(16,16,16)"/>
<path d="M18 49h1v1h-1v-1z" fill="rgb(16,16,16)"/>
<path d="M27 49h1v1h-1v-1z" fill="rgb(246,172,180)"/>
<path d="M29 49h1v1h-1v-1z" fill="rgb(246,172,180)"/>
<path d="M30 49h1v2h-1v-2z" fill="rgb(246,115,115)"/>
<path d="M35 49h1v1h-1v-1z" fill="rgb(246,115,115)"/>
<path d="M39 49h1v1h-1v-1z" fill="rgb(246,115,115)"/>
<path d="M50 49h1v2h9v1h-2v2h-1v-2h-7v-3z" fill="rgb(16,16,16)"/>
<path d="M63 49h2v1h-2v-1z" fill="rgb(16,16,16)"/>
<path d="M19 50h2v1h-2v-1z" fill="rgb(16,16,16)"/>
<path d="M33 50h2v1h-2v-1z" fill="rgb(246,115,115)"/>
<path d="M36 50h1v1h-1v-1z" fill="rgb(246,115,115)"/>
<path d="M38 50h1v1h-1v-1z" fill="rgb(246,115,115)"/>
<path d="M40 50h1v1h-1v-1z" fill="rgb(246,115,115)"/>
<path d="M42 50h1v1h-1v-1z" fill="rgb(246,172,180)"/>
<path d="M44 50h1v1h-1v-1z" fill="rgb(246,172,180)"/>
<path d="M60 50h3v1h-3v-1z" fill="rgb(16,16,16)"/>
<path d="M21 51h2v1h-2v-1z" fill="rgb(16,16,16)"/>
<path d="M31 51h2v1h-2v-1z" fill="rgb(246,115,115)"/>
<path d="M37 51h1v1h-1v-1z" fill="rgb(246,115,115)"/>
<path d="M49 52h1v1h-1v-1z" fill="rgb(16,16,16)"/>
<path d="M50 52h7v2h1v2h-1v1h-1v1h-2v1h-2v1h-3v-1h-4v-1h-1v1h1v1h4v1h-9v-1h-2v-3h3v1h1
	v-1h1v-1h2v-1h2v-1h2v-1h1v-1z" fill="rgb(57,65,98)"/>
<path d="M24 53h1v1h-1v-1z" fill="rgb(16,16,16)"/>
<path d="M47 53h2v1h-2v-1z" fill="rgb(16,16,16)"/>
<path d="M25 54h2v1h-2v-1z" fill="rgb(16,16,16)"/>
<path d="M45 54h2v1h-2v-1z" fill="rgb(16,16,16)"/>
<path d="M51 54h1v1h-1v-1z" fill="rgb(24,41,74)"/>
<path d="M58 54h1v3h-1v-3z" fill="rgb(16,16,16)"/>
<path d="M27 55h3v1h-3v-1z" fill="rgb(16,16,16)"/>
<path d="M41 55h4v1h-4v-1z" fill="rgb(16,16,16)"/>
<path d="M50 55h1v1h-1v-1z" fill="rgb(24,41,74)"/>
<path d="M51 55h1v1h-1v-1z" fill="rgb(222,74,90)"/>
<path d="M52 55h1v1h-1v-1z" fill="rgb(24,41,74)"/>
<path d="M30 56h11v1h-3v5h-1v-5h-7v-1z" fill="rgb(16,16,16)"/>
<path d="M41 56h1v1h-1v-1z" fill="rgb(222,74,90)"/>
<path d="M42 56h1v1h-1v-1z" fill="rgb(24,41,74)"/>
<path d="M51 56h1v1h-1v-1z" fill="rgb(24,41,74)"/>
<path d="M57 56h1v1h1v1h-2v1h2v1h2v1h1v-1h1v2h-4v-1h-2v-1h-1v2h-1v1h-2v1h-3v1h-7v-1h-3
	v-1h-1v-1h-1v-2h2v1h9v-1h3v-1h2v-1h2v-1h1v-1z" fill="rgb(90,98,131)"/>
<path d="M41 57h1v1h-1v-1z" fill="rgb(24,41,74)"/>
<path d="M59 57h1v2h-1v-2z" fill="rgb(16,16,16)"/>
<path d="M44 58h1v1h-1v-1z" fill="rgb(24,41,74)"/>
<path d="M49 58h1v1h-1v-1z" fill="rgb(24,41,74)"/>
<path d="M57 58h2v1h-2v-1z" fill="rgb(57,65,98)"/>
<path d="M36 59h1v1h-1v-1z" fill="rgb(24,41,74)"/>
<path d="M45 59h4v1h-4v-1z" fill="rgb(24,41,74)"/>
<path d="M59 59h4v1h-4v-1z" fill="rgb(57,65,98)"/>
<path d="M34 60h2v1h-2v-1z" fill="rgb(24,41,74)"/>
<path d="M36 60h1v2h-1v1h-2v1h-3v-1h1v-1h2v-1h2v-1z" fill="rgb(57,65,98)"/>
<path d="M56 60h1v1h-1v-1z" fill="rgb(16,16,16)"/>
<path d="M61 60h1v1h-1v-1z" fill="rgb(115,131,164)"/>
<path d="M63 60h1v2h-1v-2z" fill="rgb(57,65,98)"/>
<path d="M31 61h3v1h-3v-1z" fill="rgb(24,41,74)"/>
<path d="M56 61h1v1h1v1h-1v1h-1v1h-1v1h-3v1h-7v-1h-3v-1h-2v-1h3v1h7v-1h3v-1h2v-1h1v-1z" fill="rgb(57,65,98)"/>
<path d="M57 61h2v1h-2v-1z" fill="rgb(16,16,16)"/>
<path d="M30 62h1v2h-1v-2z" fill="rgb(24,41,74)"/>
<path d="M31 62h1v1h-1v-1z" fill="rgb(90,98,131)"/>
<path d="M36 62h1v1h-1v-1z" fill="rgb(24,41,74)"/>
<path d="M38 62h1v2h-1v-2z" fill="rgb(24,41,74)"/>
<path d="M58 62h1v1h-1v-1z" fill="rgb(24,41,74)"/>
<path d="M59 62h4v1h-4v-1z" fill="rgb(16,16,16)"/>
<path d="M34 63h2v1h-2v-1z" fill="rgb(24,41,74)"/>
<path d="M39 63h1v1h-1v-1z" fill="rgb(57,65,98)"/>
<path d="M57 63h1v1h-1v-1z" fill="rgb(24,41,74)"/>
<path d="M31 64h3v1h-3v-1z" fill="rgb(24,41,74)"/>
<path d="M39 64h1v1h-1v-1z" fill="rgb(24,41,74)"/>
<path d="M56 64h1v1h-1v-1z" fill="rgb(24,41,74)"/>
<path d="M40 65h2v1h-2v-1z" fill="rgb(24,41,74)"/>
<path d="M55 65h1v1h-1v-1z" fill="rgb(24,41,74)"/>
<path d="M42 66h3v1h-3v-1z" fill="rgb(24,41,74)"/>
<path d="M52 66h3v1h-1v1h-1v-1h-1v-1z" fill="rgb(24,41,74)"/>
<path d="M55 66h1v1h-1v-1z" fill="rgb(16,16,16)"/>
<path d="M43 67h1v1h-1v-1z" fill="rgb(16,16,16)"/>
<path d="M44 67h1v2h-1v2h-1v1h-2v1h-1v-1h-1v-2h3v-1h1v-1h1v-1z" fill="rgb(57,65,98)"/>
<path d="M45 67h1v2h-1v-2z" fill="rgb(16,16,16)"/>
<path d="M46 67h6v1h-6v-1z" fill="rgb(24,41,74)"/>
<path d="M54 67h2v1h1v1h1v1h-1v1h-1v-1h-1v-2h-1v-1z" fill="rgb(57,65,98)"/>
<path d="M56 67h1v1h-1v-1z" fill="rgb(16,16,16)"/>
<path d="M42 68h1v1h-1v-1z" fill="rgb(16,16,16)"/>
<path d="M54 68h1v2h-1v-2z" fill="rgb(24,41,74)"/>
<path d="M57 68h2v1h-2v-1z" fill="rgb(16,16,16)"/>
<path d="M39 69h3v1h-3v-1z" fill="rgb(24,41,74)"/>
<path d="M44 69h1v2h-1v-2z" fill="rgb(16,16,16)"/>
<path d="M58 69h1v1h2v2h1v-1h1v2h-4v-1h-2v-2h1v-1z" fill="rgb(90,98,131)"/>
<path d="M59 69h2v1h-2v-1z" fill="rgb(16,16,16)"/>
<path d="M36 70h3v1h-3v-1z" fill="rgb(24,41,74)"/>
<path d="M55 70h1v1h-1v-1z" fill="rgb(24,41,74)"/>
<path d="M61 70h2v1h-2v-1z" fill="rgb(16,16,16)"/>
<path d="M35 71h1v2h-1v-2z" fill="rgb(16,16,16)"/>
<path d="M36 71h1v1h1v-1h1v1h1v1h-4v-2z" fill="rgb(90,98,131)"/>
<path d="M37 71h1v1h-1v-1z" fill="rgb(115,131,164)"/>
<path d="M43 71h1v1h-1v-1z" fill="rgb(16,16,16)"/>
<path d="M56 71h1v1h-1v-1z" fill="rgb(24,41,74)"/>
<path d="M61 71h1v1h-1v-1z" fill="rgb(115,131,164)"/>
<path d="M63 71h1v2h-1v-2z" fill="rgb(16,16,16)"/>
<path d="M41 72h2v1h-2v-1z" fill="rgb(16,16,16)"/>
<path d="M57 72h2v1h-2v-1z" fill="rgb(24,41,74)"/>
<path d="M36 73h5v1h-5v-1z" fill="rgb(16,16,16)"/>
<path d="M59 73h1v1h-1v-1z" fill="rgb(24,41,74)"/>
<path d="M60 73h3v1h-3v-1z" fill="rgb(16,16,16)"/>
</svg>
