<?xml version="1.0" encoding="utf-8"?>
<!-- generated at drububu.com  -->
<!DOCTYPE svg PUBLIC "-//W3C//DTD SVG 1.1//EN" "http://www.w3.org/Graphics/SVG/1.1/DTD/svg11.dtd">
<svg version="1.1" preserveAspectRatio="xMinYMin meet" xmlns="http://www.w3.org/2000/svg" xmlns:xlink="http://www.w3.org/1999/xlink" x="0px" y="0px" width="96px" height="96px" viewBox="0 0 96 96">
<path d="M0 0h96v96h-96v-96z" fill="transparent"/>
<path d="M33 27h3v1h-3v-1z" fill="rgb(189,65,65)"/>
<path d="M36 27h1v1h-1v-1z" fill="rgb(98,41,41)"/>
<path d="M31 28h2v1h-2v-1z" fill="rgb(189,65,65)"/>
<path d="M33 28h3v2h1v1h-1v1h-1v1h-2v1h-2v-1h-2v-1h1v-2h1v-1h2v-1z" fill="rgb(246,106,106)"/>
<path d="M36 28h1v1h-1v-1z" fill="rgb(197,180,32)"/>
<path d="M37 28h2v1h-2v-1z" fill="rgb(98,41,41)"/>
<path d="M30 29h1v1h-1v-1z" fill="rgb(189,65,65)"/>
<path d="M36 29h1v1h-1v-1z" fill="rgb(255,213,82)"/>
<path d="M37 29h2v2h-2v-2z" fill="rgb(197,180,32)"/>
<path d="M39 29h1v1h-1v-1z" fill="rgb(98,41,41)"/>
<path d="M50 29h4v1h-4v-1z" fill="rgb(189,65,65)"/>
<path d="M29 30h1v2h-1v-2z" fill="rgb(189,65,65)"/>
<path d="M31 30h3v2h-3v-2z" fill="rgb(255,213,82)"/>
<path d="M39 30h1v3h-1v1h-1v1h-1v-2h-2v-1h1v-1h3v-1z" fill="rgb(189,65,65)"/>
<path d="M40 30h1v2h-1v-2z" fill="rgb(98,41,41)"/>
<path d="M48 30h2v1h-2v-1z" fill="rgb(189,65,65)"/>
<path d="M50 30h4v1h2v2h-1v1h-2v1h-3v-1h1v-1h1v-2h-2v-1z" fill="rgb(246,106,106)"/>
<path d="M54 30h2v1h-2v-1z" fill="rgb(189,65,65)"/>
<path d="M47 31h1v1h-1v-1z" fill="rgb(189,65,65)"/>
<path d="M48 31h2v1h-1v2h-1v-1h-1v-1h1v-1z" fill="rgb(246,106,106)"/>
<path d="M50 31h2v2h-1v1h-2v-2h1v-1z" fill="rgb(255,213,82)"/>
<path d="M56 31h1v1h-1v-1z" fill="rgb(98,41,41)"/>
<path d="M28 32h1v1h-1v-1z" fill="rgb(189,65,65)"/>
<path d="M40 32h1v1h-1v-1z" fill="rgb(16,16,16)"/>
<path d="M46 32h1v3h-1v-3z" fill="rgb(98,41,41)"/>
<path d="M56 32h1v3h-1v2h1v3h-1v1h-3v-1h-1v-3h-2v1h-1v-1h-1v-2h-1v-2h1v1h2v1h3v-1h2v-1h1
	v-1z" fill="rgb(189,65,65)"/>
<path d="M57 32h1v2h-1v-2z" fill="rgb(98,41,41)"/>
<path d="M28 33h1v3h-1v-3z" fill="rgb(98,41,41)"/>
<path d="M29 33h2v1h-2v-1z" fill="rgb(255,213,82)"/>
<path d="M33 33h2v1h-1v3h-4v-1h1v-2h2v-1z" fill="rgb(189,65,65)"/>
<path d="M35 33h2v2h-1v1h-2v-2h1v-1z" fill="rgb(197,180,32)"/>
<path d="M39 33h1v1h-1v-1z" fill="rgb(16,16,16)"/>
<path d="M29 34h2v2h-2v-2z" fill="rgb(197,180,32)"/>
<path d="M38 34h1v1h-1v-1z" fill="rgb(16,16,16)"/>
<path d="M41 34h5v1h-5v-1z" fill="rgb(57,41,16)"/>
<path d="M57 34h1v4h-1v-1h-1v-2h1v-1z" fill="rgb(197,180,32)"/>
<path d="M58 34h1v4h-1v-4z" fill="rgb(16,16,16)"/>
<path d="M36 35h2v1h-2v-1z" fill="rgb(16,16,16)"/>
<path d="M38 35h3v1h-3v-1z" fill="rgb(57,41,16)"/>
<path d="M41 35h4v1h1v1h-1v1h-2v-1h-3v-1h1v-1z" fill="rgb(230,131,41)"/>
<path d="M45 35h2v2h1v3h-1v-1h-2v-2h1v-1h-1v-1z" fill="rgb(180,98,32)"/>
<path d="M47 35h1v2h-1v-2z" fill="rgb(16,16,16)"/>
<path d="M29 36h1v1h-1v-1z" fill="rgb(98,41,41)"/>
<path d="M34 36h2v1h-2v-1z" fill="rgb(16,16,16)"/>
<path d="M36 36h2v1h-2v-1z" fill="rgb(90,90,90)"/>
<path d="M38 36h2v1h-2v-1z" fill="rgb(180,98,32)"/>
<path d="M30 37h4v1h-4v-1z" fill="rgb(16,16,16)"/>
<path d="M34 37h1v1h-1v-1z" fill="rgb(57,41,16)"/>
<path d="M35 37h1v1h-1v-1z" fill="rgb(90,90,90)"/>
<path d="M36 37h1v1h-1v-1z" fill="rgb(180,98,32)"/>
<path d="M37 37h6v1h-6v-1z" fill="rgb(57,41,16)"/>
<path d="M48 37h1v1h-1v-1z" fill="rgb(16,16,16)"/>
<path d="M50 37h2v3h-1v-1h-1v-2z" fill="rgb(197,180,32)"/>
<path d="M53 37h2v2h-2v-2z" fill="rgb(197,180,32)"/>
<path d="M33 38h1v1h-1v-1z" fill="rgb(57,41,16)"/>
<path d="M34 38h1v1h-1v-1z" fill="rgb(180,98,32)"/>
<path d="M35 38h2v1h-2v-1z" fill="rgb(57,41,16)"/>
<path d="M37 38h6v1h2v1h2v1h1v2h1v2h1v3h-1v-2h-1v-2h-1v-1h-1v-1h-1v-1h-2v-1h-3v-1h-3v-1z" fill="rgb(180,98,32)"/>
<path d="M43 38h2v1h-2v-1z" fill="rgb(57,41,16)"/>
<path d="M48 38h1v1h-1v-1z" fill="rgb(197,180,32)"/>
<path d="M49 38h1v1h-1v-1z" fill="rgb(16,16,16)"/>
<path d="M57 38h1v2h-1v-2z" fill="rgb(16,16,16)"/>
<path d="M32 39h1v2h-1v-2z" fill="rgb(57,41,16)"/>
<path d="M33 39h1v2h-1v-2z" fill="rgb(180,98,32)"/>
<path d="M34 39h1v1h-1v-1z" fill="rgb(57,41,16)"/>
<path d="M35 39h2v1h-2v-1z" fill="rgb(180,98,32)"/>
<path d="M37 39h3v1h-3v-1z" fill="rgb(115,74,24)"/>
<path d="M45 39h2v1h-2v-1z" fill="rgb(57,41,16)"/>
<path d="M48 39h2v1h1v1h-2v-1h-1v-1z" fill="rgb(90,90,90)"/>
<path d="M50 39h1v1h-1v-1z" fill="rgb(16,16,16)"/>
<path d="M34 40h3v1h-3v-1z" fill="rgb(115,74,24)"/>
<path d="M37 40h3v1h3v2h-1v1h-2v1h-4v-2h-1v-1h-1v-1h3v-1z" fill="rgb(255,172,98)"/>
<path d="M40 40h3v1h-3v-1z" fill="rgb(115,74,24)"/>
<path d="M47 40h1v1h-1v-1z" fill="rgb(57,41,16)"/>
<path d="M48 40h1v1h-1v-1z" fill="rgb(180,98,32)"/>
<path d="M51 40h2v1h-2v-1z" fill="rgb(16,16,16)"/>
<path d="M56 40h1v1h-1v-1z" fill="rgb(16,16,16)"/>
<path d="M31 41h3v1h-3v-1z" fill="rgb(90,90,90)"/>
<path d="M43 41h2v1h-2v-1z" fill="rgb(115,74,24)"/>
<path d="M48 41h1v2h-1v-2z" fill="rgb(57,41,16)"/>
<path d="M49 41h3v2h1v4h-2v-2h-1v-2h-1v-2z" fill="rgb(180,98,32)"/>
<path d="M52 41h1v2h-1v-2z" fill="rgb(57,41,16)"/>
<path d="M53 41h3v1h-3v-1z" fill="rgb(16,16,16)"/>
<path d="M27 42h2v1h-2v-1z" fill="rgb(180,98,32)"/>
<path d="M29 42h1v1h-1v-1z" fill="rgb(115,74,24)"/>
<path d="M30 42h1v1h-1v-1z" fill="rgb(90,90,90)"/>
<path d="M31 42h2v2h-2v-2z" fill="rgb(255,246,255)"/>
<path d="M33 42h1v1h-1v-1z" fill="rgb(164,164,205)"/>
<path d="M34 42h1v1h-1v-1z" fill="rgb(90,90,90)"/>
<path d="M36 42h1v1h-1v-1z" fill="rgb(230,131,41)"/>
<path d="M39 42h1v1h-1v-1z" fill="rgb(230,131,41)"/>
<path d="M43 42h2v1h1v1h-2v1h-1v-1h-1v-1h1v-1z" fill="rgb(230,131,41)"/>
<path d="M45 42h1v1h-1v-1z" fill="rgb(115,74,24)"/>
<path d="M53 42h2v1h1v3h-2v-3h-1v-1z" fill="rgb(180,98,32)"/>
<path d="M55 42h1v1h-1v-1z" fill="rgb(57,41,16)"/>
<path d="M25 43h2v1h-2v-1z" fill="rgb(180,98,32)"/>
<path d="M27 43h2v4h-1v2h-1v2h-1v1h-2v1h-2v-1h-1v-2h1v-2h1v-2h1v-1h1v-1h2v-1z" fill="rgb(255,172,98)"/>
<path d="M29 43h1v3h-1v-3z" fill="rgb(90,90,90)"/>
<path d="M30 43h1v2h-1v-2z" fill="rgb(164,164,205)"/>
<path d="M33 43h1v1h-1v-1z" fill="rgb(90,90,90)"/>
<path d="M34 43h1v3h-1v-3z" fill="rgb(205,205,205)"/>
<path d="M35 43h1v3h-1v-3z" fill="rgb(90,90,90)"/>
<path d="M46 43h1v1h-1v-1z" fill="rgb(115,74,24)"/>
<path d="M49 43h1v2h-1v-2z" fill="rgb(57,41,16)"/>
<path d="M53 43h1v3h-1v-3z" fill="rgb(57,41,16)"/>
<path d="M56 43h1v2h1v1h-1v1h-1v-4z" fill="rgb(57,41,16)"/>
<path d="M24 44h1v1h-1v-1z" fill="rgb(180,98,32)"/>
<path d="M31 44h3v1h-1v1h-1v-1h-1v-1z" fill="rgb(16,16,16)"/>
<path d="M40 44h2v1h1v1h-1v3h1v1h-2v-1h-3v-1h-3v1h-1v-2h1v-1h1v-1h1v1h1v-1h2v-1z" fill="rgb(230,131,41)"/>
<path d="M42 44h1v1h-1v-1z" fill="rgb(180,98,32)"/>
<path d="M44 44h3v1h-3v-1z" fill="rgb(90,90,90)"/>
<path d="M47 44h1v1h-1v-1z" fill="rgb(115,74,24)"/>
<path d="M23 45h1v1h-1v-1z" fill="rgb(180,98,32)"/>
<path d="M30 45h1v1h-1v-1z" fill="rgb(205,205,205)"/>
<path d="M31 45h1v1h-1v-1z" fill="rgb(90,90,90)"/>
<path d="M33 45h1v1h-1v-1z" fill="rgb(90,90,90)"/>
<path d="M37 45h1v1h-1v-1z" fill="rgb(180,98,32)"/>
<path d="M43 45h1v1h-1v-1z" fill="rgb(90,90,90)"/>
<path d="M44 45h2v2h-2v-2z" fill="rgb(255,246,255)"/>
<path d="M46 45h1v1h-1v-1z" fill="rgb(164,164,205)"/>
<path d="M47 45h1v1h-1v-1z" fill="rgb(90,90,90)"/>
<path d="M50 45h1v3h-1v-3z" fill="rgb(57,41,16)"/>
<path d="M58 45h2v1h-2v-1z" fill="rgb(16,16,16)"/>
<path d="M22 46h1v2h-1v-2z" fill="rgb(180,98,32)"/>
<path d="M29 46h1v5h-1v2h-2v1h-1v1h-1v1h-1v-1h-2v-1h-1v-2h1v1h2v-1h2v-1h1v-2h1v-2h1v-1z" fill="rgb(230,131,41)"/>
<path d="M30 46h1v1h-1v-1z" fill="rgb(90,90,90)"/>
<path d="M31 46h3v1h-3v-1z" fill="rgb(205,205,205)"/>
<path d="M34 46h1v1h-1v-1z" fill="rgb(90,90,90)"/>
<path d="M40 46h1v1h-1v-1z" fill="rgb(180,98,32)"/>
<path d="M42 46h1v3h-1v-3z" fill="rgb(90,90,90)"/>
<path d="M43 46h1v2h-1v-2z" fill="rgb(164,164,205)"/>
<path d="M46 46h1v1h-1v-1z" fill="rgb(90,90,90)"/>
<path d="M47 46h1v3h-1v-3z" fill="rgb(205,205,205)"/>
<path d="M48 46h1v3h-1v-3z" fill="rgb(90,90,90)"/>
<path d="M53 46h2v1h-2v-1z" fill="rgb(115,74,24)"/>
<path d="M55 46h1v1h-1v-1z" fill="rgb(16,16,16)"/>
<path d="M57 46h3v1h1v1h2v1h-3v-1h-1v-1h-1v1h-1v-2z" fill="rgb(180,98,32)"/>
<path d="M60 46h1v1h-1v-1z" fill="rgb(16,16,16)"/>
<path d="M30 47h1v2h-1v-2z" fill="rgb(57,41,16)"/>
<path d="M31 47h3v1h-3v-1z" fill="rgb(90,90,90)"/>
<path d="M44 47h3v1h-1v1h-1v-1h-1v-1z" fill="rgb(16,16,16)"/>
<path d="M51 47h2v1h-2v-1z" fill="rgb(115,74,24)"/>
<path d="M53 47h3v3h-1v2h-1v2h-1v1h-1v1h-2v1h-3v-1h-1v-3h1v-2h1v-1h1v-1h2v-1h2v-1z" fill="rgb(255,172,98)"/>
<path d="M56 47h1v1h-1v-1z" fill="rgb(16,16,16)"/>
<path d="M58 47h1v1h-1v-1z" fill="rgb(115,74,24)"/>
<path d="M61 47h2v1h-2v-1z" fill="rgb(16,16,16)"/>
<path d="M21 48h1v2h-1v-2z" fill="rgb(180,98,32)"/>
<path d="M31 48h3v2h-2v-1h-1v-1z" fill="rgb(180,98,32)"/>
<path d="M35 48h3v1h-3v-1z" fill="rgb(180,98,32)"/>
<path d="M43 48h1v1h-1v-1z" fill="rgb(205,205,205)"/>
<path d="M44 48h1v1h-1v-1z" fill="rgb(90,90,90)"/>
<path d="M46 48h1v1h-1v-1z" fill="rgb(90,90,90)"/>
<path d="M49 48h2v1h-2v-1z" fill="rgb(115,74,24)"/>
<path d="M56 48h1v4h-1v3h-1v1h-1v1h-1v1h-1v1h-1v1h-2v-1h-1v-1h-2v1h-1v-4h1v1h1v1h3v-1h2
	v-1h1v-1h1v-2h1v-2h1v-2z" fill="rgb(230,131,41)"/>
<path d="M57 48h1v2h1v1h-1v2h-1v-5z" fill="rgb(16,16,16)"/>
<path d="M59 48h1v1h-1v-1z" fill="rgb(115,74,24)"/>
<path d="M63 48h1v1h-1v-1z" fill="rgb(16,16,16)"/>
<path d="M30 49h1v1h-1v-1z" fill="rgb(180,98,32)"/>
<path d="M31 49h1v1h-1v-1z" fill="rgb(57,41,16)"/>
<path d="M34 49h1v1h-1v-1z" fill="rgb(115,74,24)"/>
<path d="M35 49h2v2h-2v-2z" fill="rgb(255,172,98)"/>
<path d="M37 49h1v1h2v2h-2v-1h-1v-2z" fill="rgb(230,131,41)"/>
<path d="M38 49h3v1h-3v-1z" fill="rgb(180,98,32)"/>
<path d="M43 49h1v1h-1v-1z" fill="rgb(90,90,90)"/>
<path d="M44 49h3v1h-3v-1z" fill="rgb(205,205,205)"/>
<path d="M47 49h1v1h-1v-1z" fill="rgb(90,90,90)"/>
<path d="M48 49h1v1h-1v-1z" fill="rgb(115,74,24)"/>
<path d="M60 49h3v1h-3v-1z" fill="rgb(115,74,24)"/>
<path d="M63 49h1v1h-1v-1z" fill="rgb(180,98,32)"/>
<path d="M64 49h1v5h-1v-5z" fill="rgb(16,16,16)"/>
<path d="M20 50h1v4h-1v-4z" fill="rgb(115,74,24)"/>
<path d="M30 50h1v2h-1v-2z" fill="rgb(16,16,16)"/>
<path d="M32 50h2v1h-2v-1z" fill="rgb(57,41,16)"/>
<path d="M34 50h1v1h-1v-1z" fill="rgb(255,246,255)"/>
<path d="M40 50h1v1h-1v-1z" fill="rgb(115,74,24)"/>
<path d="M41 50h3v1h2v1h-2v1h-2v-2h-1v-1z" fill="rgb(180,98,32)"/>
<path d="M44 50h3v1h-3v-1z" fill="rgb(90,90,90)"/>
<path d="M47 50h1v1h-1v-1z" fill="rgb(115,74,24)"/>
<path d="M63 50h1v3h-1v-3z" fill="rgb(115,74,24)"/>
<path d="M29 51h1v1h-1v-1z" fill="rgb(180,98,32)"/>
<path d="M33 51h1v2h-1v-2z" fill="rgb(16,16,16)"/>
<path d="M34 51h1v1h-1v-1z" fill="rgb(90,90,90)"/>
<path d="M35 51h1v1h-1v-1z" fill="rgb(255,246,255)"/>
<path d="M36 51h2v3h-1v-1h-1v-2z" fill="rgb(16,16,16)"/>
<path d="M40 51h1v1h-1v-1z" fill="rgb(255,246,255)"/>
<path d="M41 51h1v2h-1v-2z" fill="rgb(115,74,24)"/>
<path d="M46 51h1v2h-1v-2z" fill="rgb(115,74,24)"/>
<path d="M58 51h1v1h1v1h-2v-2z" fill="rgb(180,98,32)"/>
<path d="M59 51h1v1h-1v-1z" fill="rgb(16,16,16)"/>
<path d="M29 52h1v1h-1v-1z" fill="rgb(16,16,16)"/>
<path d="M34 52h1v1h-1v-1z" fill="rgb(255,246,255)"/>
<path d="M35 52h1v1h-1v-1z" fill="rgb(90,90,90)"/>
<path d="M38 52h2v1h-2v-1z" fill="rgb(255,246,255)"/>
<path d="M40 52h1v1h-1v-1z" fill="rgb(90,90,90)"/>
<path d="M44 52h2v1h-2v-1z" fill="rgb(57,41,16)"/>
<path d="M56 52h1v1h-1v-1z" fill="rgb(180,98,32)"/>
<path d="M60 52h1v1h-1v-1z" fill="rgb(16,16,16)"/>
<path d="M27 53h1v1h-1v-1z" fill="rgb(180,98,32)"/>
<path d="M28 53h1v1h-1v-1z" fill="rgb(16,16,16)"/>
<path d="M34 53h2v1h-2v-1z" fill="rgb(16,16,16)"/>
<path d="M38 53h2v1h-2v-1z" fill="rgb(90,90,90)"/>
<path d="M40 53h1v1h-1v-1z" fill="rgb(16,16,16)"/>
<path d="M41 53h3v1h-3v-1z" fill="rgb(57,41,16)"/>
<path d="M45 53h1v2h-1v-2z" fill="rgb(115,74,24)"/>
<path d="M56 53h1v2h-1v-2z" fill="rgb(16,16,16)"/>
<path d="M58 53h2v1h-2v-1z" fill="rgb(115,74,24)"/>
<path d="M60 53h1v1h-1v-1z" fill="rgb(180,98,32)"/>
<path d="M61 53h1v4h-1v-4z" fill="rgb(16,16,16)"/>
<path d="M21 54h1v3h-1v-3z" fill="rgb(115,74,24)"/>
<path d="M26 54h1v1h-1v-1z" fill="rgb(180,98,32)"/>
<path d="M27 54h1v1h-1v-1z" fill="rgb(16,16,16)"/>
<path d="M38 54h2v1h-2v-1z" fill="rgb(16,16,16)"/>
<path d="M60 54h1v3h-1v-3z" fill="rgb(115,74,24)"/>
<path d="M22 55h2v1h-2v-1z" fill="rgb(57,41,16)"/>
<path d="M25 55h1v1h-1v-1z" fill="rgb(180,98,32)"/>
<path d="M26 55h1v1h-1v-1z" fill="rgb(16,16,16)"/>
<path d="M44 55h1v4h-1v-4z" fill="rgb(115,74,24)"/>
<path d="M55 55h1v2h-1v-2z" fill="rgb(16,16,16)"/>
<path d="M22 56h2v3h-1v-2h-1v-1z" fill="rgb(230,131,41)"/>
<path d="M24 56h2v1h-1v3h-2v-1h1v-3z" fill="rgb(16,16,16)"/>
<path d="M54 56h1v1h-1v-1z" fill="rgb(180,98,32)"/>
<path d="M22 57h1v2h-1v-2z" fill="rgb(16,16,16)"/>
<path d="M53 57h1v1h-1v-1z" fill="rgb(180,98,32)"/>
<path d="M54 57h1v1h-1v-1z" fill="rgb(16,16,16)"/>
<path d="M60 57h1v1h-1v-1z" fill="rgb(16,16,16)"/>
<path d="M46 58h2v1h-2v-1z" fill="rgb(115,74,24)"/>
<path d="M52 58h1v1h-1v-1z" fill="rgb(180,98,32)"/>
<path d="M53 58h1v1h-1v-1z" fill="rgb(16,16,16)"/>
<path d="M45 59h1v1h-1v-1z" fill="rgb(115,74,24)"/>
<path d="M46 59h2v2h-1v1h-2v-2h1v-1z" fill="rgb(230,131,41)"/>
<path d="M48 59h1v1h-1v-1z" fill="rgb(115,74,24)"/>
<path d="M51 59h1v1h-1v-1z" fill="rgb(180,98,32)"/>
<path d="M52 59h1v1h-1v-1z" fill="rgb(16,16,16)"/>
<path d="M44 60h1v2h-1v-2z" fill="rgb(115,74,24)"/>
<path d="M48 60h1v1h-1v-1z" fill="rgb(180,98,32)"/>
<path d="M49 60h1v1h-1v-1z" fill="rgb(115,74,24)"/>
<path d="M50 60h2v1h-2v-1z" fill="rgb(16,16,16)"/>
<path d="M47 61h1v1h-1v-1z" fill="rgb(180,98,32)"/>
<path d="M48 61h1v1h-1v-1z" fill="rgb(16,16,16)"/>
<path d="M49 61h1v1h-1v-1z" fill="rgb(57,41,16)"/>
<path d="M43 62h1v1h-1v-1z" fill="rgb(115,74,24)"/>
<path d="M44 62h1v1h-1v-1z" fill="rgb(230,131,41)"/>
<path d="M45 62h1v1h-1v-1z" fill="rgb(180,98,32)"/>
<path d="M46 62h2v1h-2v-1z" fill="rgb(16,16,16)"/>
<path d="M43 63h3v1h-3v-1z" fill="rgb(16,16,16)"/>
</svg>
