<?xml version="1.0" encoding="utf-8"?>
<!-- generated at drububu.com  -->
<!DOCTYPE svg PUBLIC "-//W3C//DTD SVG 1.1//EN" "http://www.w3.org/Graphics/SVG/1.1/DTD/svg11.dtd">
<svg version="1.1" preserveAspectRatio="xMinYMin meet" xmlns="http://www.w3.org/2000/svg" xmlns:xlink="http://www.w3.org/1999/xlink" x="0px" y="0px" width="96px" height="96px" viewBox="0 0 96 96">
<path d="M0 0h96v96h-96v-96z" fill="transparent"/>
<path d="M50 20h5v1h-5v-1z" fill="rgb(189,49,65)"/>
<path d="M47 21h2v1h-2v-1z" fill="rgb(189,49,65)"/>
<path d="M49 21h1v1h-1v-1z" fill="rgb(238,49,49)"/>
<path d="M50 21h4v1h1v2h-1v1h-1v1h-2v1h-5v-1h-1v-2h1v-1h1v-1h3v-1z" fill="rgb(255,106,106)"/>
<path d="M54 21h1v1h-1v-1z" fill="rgb(238,49,49)"/>
<path d="M55 21h2v1h-2v-1z" fill="rgb(189,49,65)"/>
<path d="M45 22h2v1h-2v-1z" fill="rgb(189,49,65)"/>
<path d="M55 22h2v1h2v1h1v2h1v1h-2v1h-1v2h3v-1h1v1h1v2h-1v-1h-3v1h-1v2h-1v10h1v2h1v1h1v1
	h1v3h-2v1h-3v1h-11v-1h-5v-1h-5v-1h4v-1h-2v-1h-2v-1h-1v-2h2v-1h1v-2h-1v-1h-2v-1
	h2v-1h1v-1h2v1h5v-3h-2v-1h-3v-2h1v-2h1v-1h1v1h3v-2h-1v-1h-2v-1h1v-2h1v-1h1v2h1
	v1h5v-1h2v-1h1v-1h1v-2z" fill="rgb(238,49,49)"/>
<path d="M57 22h1v1h-1v-1z" fill="rgb(189,49,65)"/>
<path d="M58 22h1v1h-1v-1z" fill="rgb(123,8,8)"/>
<path d="M44 23h1v1h-1v-1z" fill="rgb(189,49,65)"/>
<path d="M45 23h1v1h-1v-1z" fill="rgb(238,49,49)"/>
<path d="M59 23h1v1h-1v-1z" fill="rgb(123,8,8)"/>
<path d="M43 24h1v1h-1v-1z" fill="rgb(189,49,65)"/>
<path d="M60 24h1v1h-1v-1z" fill="rgb(189,49,65)"/>
<path d="M42 25h1v2h-1v-2z" fill="rgb(189,49,65)"/>
<path d="M60 25h1v1h-1v-1z" fill="rgb(123,8,8)"/>
<path d="M61 26h1v2h-1v-2z" fill="rgb(123,8,8)"/>
<path d="M41 27h1v2h-1v-2z" fill="rgb(189,49,65)"/>
<path d="M59 27h2v1h1v1h-1v1h-3v-2h1v-1z" fill="rgb(255,213,82)"/>
<path d="M42 28h2v1h1v1h-1v1h-2v-1h-1v-1h1v-1z" fill="rgb(255,213,82)"/>
<path d="M62 28h1v2h-1v-2z" fill="rgb(123,8,8)"/>
<path d="M40 29h1v2h-1v-2z" fill="rgb(189,49,65)"/>
<path d="M44 30h1v1h-1v-1z" fill="rgb(255,131,82)"/>
<path d="M63 30h1v3h-1v-3z" fill="rgb(123,8,8)"/>
<path d="M39 31h1v2h-1v-2z" fill="rgb(189,49,65)"/>
<path d="M50 31h3v1h-3v-1z" fill="rgb(255,131,82)"/>
<path d="M59 31h3v1h1v1h1v2h-3v1h-1v2h5v2h1v2h1v2h1v1h1v1h-1v1h-1v2h3v-1h1v1h1v4h-1v1h-2
	v1h-2v1h-5v-2h-1v-1h-1v-1h-1v-1h2v-3h-1v-1h-1v-1h-1v-2h-1v-10h1v-2h1v-1z" fill="rgb(189,49,65)"/>
<path d="M49 32h1v2h-1v-2z" fill="rgb(255,131,82)"/>
<path d="M50 32h3v2h-3v-2z" fill="rgb(255,213,82)"/>
<path d="M53 32h1v1h-1v-1z" fill="rgb(255,131,82)"/>
<path d="M38 33h1v2h-1v-2z" fill="rgb(189,49,65)"/>
<path d="M64 33h1v3h-1v-3z" fill="rgb(123,8,8)"/>
<path d="M37 35h1v1h-1v-1z" fill="rgb(189,49,65)"/>
<path d="M38 35h1v1h-1v-1z" fill="rgb(255,131,82)"/>
<path d="M39 35h1v1h3v1h1v1h-1v1h-3v-1h-2v-2h1v-1z" fill="rgb(255,213,82)"/>
<path d="M40 35h2v1h-2v-1z" fill="rgb(255,131,82)"/>
<path d="M61 35h3v3h-3v-1h-1v-1h1v-1z" fill="rgb(213,205,49)"/>
<path d="M37 36h1v1h-1v-1z" fill="rgb(123,8,8)"/>
<path d="M43 36h1v1h-1v-1z" fill="rgb(255,131,82)"/>
<path d="M64 36h1v1h-1v-1z" fill="rgb(189,49,65)"/>
<path d="M36 37h1v1h-1v-1z" fill="rgb(123,8,8)"/>
<path d="M37 37h1v1h-1v-1z" fill="rgb(255,131,82)"/>
<path d="M60 37h1v1h-1v-1z" fill="rgb(238,49,49)"/>
<path d="M64 37h1v1h-1v-1z" fill="rgb(238,49,49)"/>
<path d="M65 37h1v3h-1v-3z" fill="rgb(123,8,8)"/>
<path d="M35 38h1v2h-2v-1h1v-1z" fill="rgb(123,8,8)"/>
<path d="M36 38h1v1h-1v-1z" fill="rgb(189,49,65)"/>
<path d="M39 38h1v1h-1v-1z" fill="rgb(255,131,82)"/>
<path d="M43 38h1v1h-1v-1z" fill="rgb(255,131,82)"/>
<path d="M33 40h1v1h-1v-1z" fill="rgb(123,8,8)"/>
<path d="M48 40h1v1h-1v-1z" fill="rgb(255,131,82)"/>
<path d="M49 40h3v1h1v1h-5v-1h1v-1z" fill="rgb(255,213,82)"/>
<path d="M52 40h1v1h-1v-1z" fill="rgb(255,131,82)"/>
<path d="M66 40h1v1h-1v-1z" fill="rgb(123,8,8)"/>
<path d="M31 41h2v1h-2v-1z" fill="rgb(123,8,8)"/>
<path d="M33 41h2v1h1v2h-3v-1h-1v-1h1v-1z" fill="rgb(255,213,82)"/>
<path d="M35 41h1v1h-1v-1z" fill="rgb(255,131,82)"/>
<path d="M66 41h1v1h-1v-1z" fill="rgb(16,16,16)"/>
<path d="M29 42h2v1h-2v-1z" fill="rgb(189,49,65)"/>
<path d="M31 42h1v1h-1v-1z" fill="rgb(255,131,82)"/>
<path d="M36 42h1v2h-1v-2z" fill="rgb(255,131,82)"/>
<path d="M49 42h3v1h-3v-1z" fill="rgb(255,131,82)"/>
<path d="M60 42h3v1h1v1h-1v1h-3v-1h-1v-1h1v-1z" fill="rgb(213,205,49)"/>
<path d="M67 42h1v1h-1v-1z" fill="rgb(123,8,8)"/>
<path d="M28 43h1v1h-1v-1z" fill="rgb(189,49,65)"/>
<path d="M29 43h1v1h-1v-1z" fill="rgb(238,49,49)"/>
<path d="M30 43h2v1h1v1h1v2h1v1h2v1h2v1h-4v-1h-3v-1h-1v-1h-2v-1h-1v-2h2v-1z" fill="rgb(255,106,106)"/>
<path d="M32 43h1v1h-1v-1z" fill="rgb(255,131,82)"/>
<path d="M67 43h1v1h-1v-1z" fill="rgb(16,16,16)"/>
<path d="M27 44h1v2h-1v-2z" fill="rgb(189,49,65)"/>
<path d="M33 44h3v1h-3v-1z" fill="rgb(255,131,82)"/>
<path d="M68 44h1v1h-1v-1z" fill="rgb(16,16,16)"/>
<path d="M39 45h1v1h-1v-1z" fill="rgb(255,131,82)"/>
<path d="M40 45h2v1h5v1h1v1h-1v1h-4v-1h-3v-1h-1v-1h1v-1z" fill="rgb(255,213,82)"/>
<path d="M42 45h1v1h-1v-1z" fill="rgb(255,131,82)"/>
<path d="M69 45h1v1h-1v-1z" fill="rgb(123,8,8)"/>
<path d="M27 46h1v1h-1v-1z" fill="rgb(123,8,8)"/>
<path d="M28 46h1v1h-1v-1z" fill="rgb(238,49,49)"/>
<path d="M47 46h1v1h-1v-1z" fill="rgb(255,131,82)"/>
<path d="M68 46h2v1h1v1h-1v1h-3v-2h1v-1z" fill="rgb(213,205,49)"/>
<path d="M70 46h1v1h-1v-1z" fill="rgb(123,8,8)"/>
<path d="M28 47h3v1h-3v-1z" fill="rgb(98,16,0)"/>
<path d="M53 47h3v1h-3v-1z" fill="rgb(255,131,82)"/>
<path d="M71 47h1v2h-1v-2z" fill="rgb(123,8,8)"/>
<path d="M26 48h1v1h-1v-1z" fill="rgb(180,65,57)"/>
<path d="M27 48h1v1h-1v-1z" fill="rgb(98,16,0)"/>
<path d="M28 48h1v1h1v3h-1v2h-1v1h-1v1h-1v1h-1v1h-1v2h-1v2h-1v6h-1v-2h-1v-8h1v-1h1v-2h1
	v-1h1v-1h2v-1h1v-1h1v-3z" fill="rgb(222,106,49)"/>
<path d="M29 48h2v1h1v2h1v6h-1v2h-1v1h-1v1h-1v1h-2v1h-2v1h-1v1h-1v2h-1v-5h1v-2h1v-2h1v-1
	h1v-1h1v-1h1v-1h1v-2h1v-3h-1v-1z" fill="rgb(180,65,57)"/>
<path d="M31 48h1v1h-1v-1z" fill="rgb(98,16,0)"/>
<path d="M41 48h2v1h-2v-1z" fill="rgb(255,131,82)"/>
<path d="M52 48h1v1h-1v-1z" fill="rgb(255,131,82)"/>
<path d="M53 48h4v1h-1v1h-2v-1h-1v-1z" fill="rgb(255,213,82)"/>
<path d="M25 49h1v1h-1v-1z" fill="rgb(98,16,0)"/>
<path d="M26 49h2v2h-1v1h-1v1h-2v1h-1v1h-1v-2h1v-1h1v-1h1v-1h1v-1z" fill="rgb(255,131,82)"/>
<path d="M32 49h1v2h-1v-2z" fill="rgb(98,16,0)"/>
<path d="M33 49h1v1h1v1h5v1h5v1h9v1h-1v1h-1v1h-4v-1h-1v-1h-3v1h-3v-1h-1v-1h-3v1h-2v-1h-1
	v-2h-1v-2z" fill="rgb(189,49,65)"/>
<path d="M34 49h1v1h-1v-1z" fill="rgb(238,49,49)"/>
<path d="M53 49h1v1h-1v-1z" fill="rgb(255,131,82)"/>
<path d="M56 49h1v1h-1v-1z" fill="rgb(255,131,82)"/>
<path d="M72 49h1v4h-1v-4z" fill="rgb(123,8,8)"/>
<path d="M24 50h1v1h-1v-1z" fill="rgb(180,65,57)"/>
<path d="M23 51h1v1h-1v-1z" fill="rgb(180,65,57)"/>
<path d="M33 51h1v2h1v1h-1v2h1v1h-2v-6z" fill="rgb(16,16,16)"/>
<path d="M22 52h1v1h-1v-1z" fill="rgb(180,65,57)"/>
<path d="M56 52h4v1h-4v-1z" fill="rgb(98,16,0)"/>
<path d="M21 53h1v2h-1v-2z" fill="rgb(180,65,57)"/>
<path d="M37 53h3v1h-3v-1z" fill="rgb(98,16,0)"/>
<path d="M54 53h2v1h-2v-1z" fill="rgb(98,16,0)"/>
<path d="M56 53h4v1h1v2h1v7h-1v2h-1v1h-1v2h-1v1h-1v2h-1v1h-1v2h-2v-5h1v-5h1v-4h1v-3h1v-3
	h-1v-1z" fill="rgb(180,65,57)"/>
<path d="M60 53h1v1h-1v-1z" fill="rgb(98,16,0)"/>
<path d="M71 53h1v1h-1v-1z" fill="rgb(16,16,16)"/>
<path d="M34 54h1v1h1v1h1v1h-2v-1h-1v-2z" fill="rgb(98,16,0)"/>
<path d="M35 54h2v2h-1v-1h-1v-1z" fill="rgb(16,16,16)"/>
<path d="M37 54h1v1h-1v-1z" fill="rgb(156,139,164)"/>
<path d="M38 54h1v1h1v1h-1v1h-1v-1h-1v-1h1v-1z" fill="rgb(255,246,255)"/>
<path d="M39 54h1v1h-1v-1z" fill="rgb(213,213,213)"/>
<path d="M40 54h1v1h-1v-1z" fill="rgb(98,16,0)"/>
<path d="M44 54h3v1h-3v-1z" fill="rgb(98,16,0)"/>
<path d="M53 54h1v1h-1v-1z" fill="rgb(98,16,0)"/>
<path d="M54 54h2v5h-1v3h-1v4h-1v3h-1v-2h-1v-6h1v-5h1v-1h1v-1z" fill="rgb(255,131,82)"/>
<path d="M56 54h1v3h-1v-3z" fill="rgb(222,106,49)"/>
<path d="M61 54h1v2h-1v-2z" fill="rgb(98,16,0)"/>
<path d="M69 54h1v1h-1v-1z" fill="rgb(123,8,8)"/>
<path d="M70 54h1v1h-1v-1z" fill="rgb(16,16,16)"/>
<path d="M20 55h1v1h-1v-1z" fill="rgb(180,65,57)"/>
<path d="M21 55h1v2h-1v-2z" fill="rgb(255,131,82)"/>
<path d="M40 55h1v2h-1v-2z" fill="rgb(156,139,164)"/>
<path d="M41 55h1v1h-1v-1z" fill="rgb(98,16,0)"/>
<path d="M42 55h1v1h1v2h-1v-1h-2v-1h1v-1z" fill="rgb(16,16,16)"/>
<path d="M43 55h1v1h-1v-1z" fill="rgb(98,16,0)"/>
<path d="M44 55h1v1h-1v-1z" fill="rgb(156,139,164)"/>
<path d="M45 55h1v1h1v1h-1v1h-1v-1h-1v-1h1v-1z" fill="rgb(255,246,255)"/>
<path d="M46 55h1v1h-1v-1z" fill="rgb(213,213,213)"/>
<path d="M47 55h1v1h-1v-1z" fill="rgb(98,16,0)"/>
<path d="M52 55h1v1h-1v-1z" fill="rgb(98,16,0)"/>
<path d="M67 55h1v1h-1v-1z" fill="rgb(123,8,8)"/>
<path d="M68 55h2v2h-1v-1h-1v-1z" fill="rgb(16,16,16)"/>
<path d="M20 56h1v1h-1v-1z" fill="rgb(98,16,0)"/>
<path d="M37 56h1v1h-1v-1z" fill="rgb(213,213,213)"/>
<path d="M39 56h1v1h-1v-1z" fill="rgb(213,213,213)"/>
<path d="M47 56h1v2h-1v-2z" fill="rgb(156,139,164)"/>
<path d="M48 56h4v1h-3v1h-1v-2z" fill="rgb(16,16,16)"/>
<path d="M62 56h5v1h-2v1h-1v-1h-2v-1z" fill="rgb(16,16,16)"/>
<path d="M67 56h2v2h-1v1h-1v-1h-2v-1h2v-1z" fill="rgb(98,16,0)"/>
<path d="M20 57h1v1h-1v-1z" fill="rgb(180,65,57)"/>
<path d="M32 57h1v2h-1v-2z" fill="rgb(16,16,16)"/>
<path d="M33 57h2v1h-1v1h-1v-2z" fill="rgb(180,65,57)"/>
<path d="M35 57h1v2h-2v-1h1v-1z" fill="rgb(16,16,16)"/>
<path d="M36 57h1v1h1v1h3v1h3v-1h1v1h2v-1h1v-1h2v2h-1v1h-9v-1h-3v-1h-1v-2z" fill="rgb(180,65,57)"/>
<path d="M37 57h1v1h-1v-1z" fill="rgb(98,16,0)"/>
<path d="M38 57h2v1h-2v-1z" fill="rgb(156,139,164)"/>
<path d="M40 57h1v1h-1v-1z" fill="rgb(16,16,16)"/>
<path d="M41 57h1v1h1v1h1v1h-3v-1h-1v-1h1v-1z" fill="rgb(222,106,49)"/>
<path d="M42 57h1v1h-1v-1z" fill="rgb(180,65,57)"/>
<path d="M44 57h1v1h-1v-1z" fill="rgb(213,213,213)"/>
<path d="M46 57h1v1h-1v-1z" fill="rgb(213,213,213)"/>
<path d="M49 57h3v1h-1v2h-1v-2h-1v-1z" fill="rgb(98,16,0)"/>
<path d="M62 57h2v1h1v1h-2v1h-1v-3z" fill="rgb(98,16,0)"/>
<path d="M69 57h1v1h1v1h2v7h-1v-4h-1v-1h-1v-1h-1v-1h-1v-1h1v-1z" fill="rgb(180,65,57)"/>
<path d="M70 57h1v1h-1v-1z" fill="rgb(16,16,16)"/>
<path d="M19 58h1v3h-1v-3z" fill="rgb(180,65,57)"/>
<path d="M38 58h2v1h-2v-1z" fill="rgb(16,16,16)"/>
<path d="M43 58h1v1h-1v-1z" fill="rgb(180,65,57)"/>
<path d="M44 58h1v1h-1v-1z" fill="rgb(16,16,16)"/>
<path d="M45 58h2v1h-2v-1z" fill="rgb(156,139,164)"/>
<path d="M47 58h1v1h-1v-1z" fill="rgb(16,16,16)"/>
<path d="M51 58h1v3h-1v6h1v2h1v5h-1v-3h-1v-3h-1v-8h1v-2z" fill="rgb(222,106,49)"/>
<path d="M65 58h2v1h-1v1h-1v-2z" fill="rgb(16,16,16)"/>
<path d="M71 58h1v1h-1v-1z" fill="rgb(16,16,16)"/>
<path d="M72 58h1v1h-1v-1z" fill="rgb(98,16,0)"/>
<path d="M31 59h1v1h-1v-1z" fill="rgb(16,16,16)"/>
<path d="M32 59h1v1h-1v-1z" fill="rgb(180,65,57)"/>
<path d="M33 59h1v1h-1v-1z" fill="rgb(16,16,16)"/>
<path d="M34 59h2v1h1v2h-1v2h-1v-4h-1v-1z" fill="rgb(98,16,0)"/>
<path d="M36 59h1v1h-1v-1z" fill="rgb(16,16,16)"/>
<path d="M45 59h2v1h-2v-1z" fill="rgb(16,16,16)"/>
<path d="M55 59h1v1h-1v-1z" fill="rgb(222,106,49)"/>
<path d="M63 59h2v1h1v1h-1v1h-1v-1h-1v-2z" fill="rgb(180,65,57)"/>
<path d="M66 59h1v1h-1v-1z" fill="transparent"/>
<path d="M67 59h1v1h-1v-1z" fill="rgb(16,16,16)"/>
<path d="M68 59h1v1h-1v-1z" fill="rgb(98,16,0)"/>
<path d="M73 59h1v5h-1v-5z" fill="rgb(98,16,0)"/>
<path d="M30 60h1v1h-1v-1z" fill="rgb(16,16,16)"/>
<path d="M31 60h1v1h-1v-1z" fill="rgb(180,65,57)"/>
<path d="M32 60h1v1h-1v-1z" fill="rgb(16,16,16)"/>
<path d="M34 60h1v3h-1v-3z" fill="rgb(16,16,16)"/>
<path d="M37 60h2v1h-1v3h-1v-4z" fill="rgb(16,16,16)"/>
<path d="M39 60h1v1h-1v-1z" fill="rgb(98,16,0)"/>
<path d="M49 60h1v8h-1v-8z" fill="rgb(98,16,0)"/>
<path d="M62 60h1v2h1v1h-2v-3z" fill="rgb(16,16,16)"/>
<path d="M66 60h1v1h-1v-1z" fill="rgb(16,16,16)"/>
<path d="M69 60h1v1h-1v-1z" fill="rgb(98,16,0)"/>
<path d="M19 61h1v5h-1v-5z" fill="rgb(98,16,0)"/>
<path d="M29 61h1v1h-1v-1z" fill="rgb(98,16,0)"/>
<path d="M30 61h1v2h-1v1h-1v-2h1v-1z" fill="rgb(180,65,57)"/>
<path d="M31 61h1v1h-1v-1z" fill="rgb(98,16,0)"/>
<path d="M40 61h3v1h-3v-1z" fill="rgb(98,16,0)"/>
<path d="M43 61h6v1h-6v-1z" fill="rgb(16,16,16)"/>
<path d="M63 61h1v1h-1v-1z" fill="rgb(98,16,0)"/>
<path d="M65 61h2v1h1v3h-1v2h-1v1h-1v-4h1v-2h-1v-1z" fill="rgb(222,106,49)"/>
<path d="M67 61h1v1h-1v-1z" fill="rgb(98,16,0)"/>
<path d="M70 61h1v1h-1v-1z" fill="rgb(16,16,16)"/>
<path d="M27 62h1v1h-1v-1z" fill="rgb(98,16,0)"/>
<path d="M28 62h1v1h-1v-1z" fill="rgb(16,16,16)"/>
<path d="M31 62h1v1h-1v-1z" fill="rgb(16,16,16)"/>
<path d="M36 62h1v3h-1v-3z" fill="rgb(180,65,57)"/>
<path d="M54 62h1v2h-1v-2z" fill="rgb(222,106,49)"/>
<path d="M64 62h1v1h-1v-1z" fill="rgb(98,16,0)"/>
<path d="M65 62h1v2h-1v-2z" fill="rgb(180,65,57)"/>
<path d="M68 62h1v3h-1v-3z" fill="rgb(98,16,0)"/>
<path d="M71 62h1v2h-1v-2z" fill="rgb(16,16,16)"/>
<path d="M25 63h2v1h-2v-1z" fill="rgb(16,16,16)"/>
<path d="M27 63h1v1h-1v-1z" fill="transparent"/>
<path d="M28 63h1v1h-1v-1z" fill="rgb(98,16,0)"/>
<path d="M30 63h1v1h-1v-1z" fill="rgb(16,16,16)"/>
<path d="M61 63h1v1h-1v-1z" fill="rgb(98,16,0)"/>
<path d="M64 63h1v3h-1v-3z" fill="rgb(16,16,16)"/>
<path d="M24 64h1v1h-1v-1z" fill="rgb(16,16,16)"/>
<path d="M27 64h1v2h-1v-2z" fill="rgb(98,16,0)"/>
<path d="M28 64h1v2h1v2h-1v-1h-1v-3z" fill="rgb(180,65,57)"/>
<path d="M29 64h1v1h-1v-1z" fill="rgb(98,16,0)"/>
<path d="M35 64h1v1h-1v-1z" fill="rgb(16,16,16)"/>
<path d="M37 64h1v1h-1v-1z" fill="rgb(98,16,0)"/>
<path d="M61 64h1v1h-1v-1z" fill="rgb(16,16,16)"/>
<path d="M71 64h1v2h-1v-2z" fill="rgb(98,16,0)"/>
<path d="M73 64h1v2h-1v-2z" fill="rgb(16,16,16)"/>
<path d="M23 65h1v2h-1v-2z" fill="rgb(16,16,16)"/>
<path d="M29 65h1v1h-1v-1z" fill="rgb(16,16,16)"/>
<path d="M36 65h1v1h-1v-1z" fill="rgb(16,16,16)"/>
<path d="M37 65h1v1h-1v-1z" fill="rgb(180,65,57)"/>
<path d="M38 65h1v2h-2v-1h1v-1z" fill="rgb(16,16,16)"/>
<path d="M60 65h1v1h-1v-1z" fill="rgb(16,16,16)"/>
<path d="M67 65h1v1h-1v-1z" fill="rgb(98,16,0)"/>
<path d="M20 66h1v1h-1v-1z" fill="rgb(98,16,0)"/>
<path d="M27 66h1v1h-1v-1z" fill="rgb(16,16,16)"/>
<path d="M30 66h1v1h-1v-1z" fill="rgb(98,16,0)"/>
<path d="M53 66h1v3h-1v-3z" fill="rgb(222,106,49)"/>
<path d="M59 66h1v1h-1v-1z" fill="rgb(98,16,0)"/>
<path d="M64 66h1v1h-1v-1z" fill="rgb(98,16,0)"/>
<path d="M67 66h1v1h-1v-1z" fill="rgb(16,16,16)"/>
<path d="M70 66h1v1h-1v-1z" fill="rgb(16,16,16)"/>
<path d="M71 66h1v1h-1v-1z" fill="rgb(180,65,57)"/>
<path d="M72 66h1v1h-1v-1z" fill="rgb(16,16,16)"/>
<path d="M20 67h1v1h-1v-1z" fill="rgb(16,16,16)"/>
<path d="M22 67h1v2h-2v-1h1v-1z" fill="rgb(16,16,16)"/>
<path d="M28 67h1v1h-1v-1z" fill="rgb(16,16,16)"/>
<path d="M30 67h1v2h-2v-1h1v-1z" fill="rgb(16,16,16)"/>
<path d="M59 67h1v1h-1v-1z" fill="rgb(16,16,16)"/>
<path d="M63 67h1v1h-1v-1z" fill="rgb(98,16,0)"/>
<path d="M64 67h1v1h-1v-1z" fill="rgb(180,65,57)"/>
<path d="M66 67h1v2h-1v-2z" fill="rgb(16,16,16)"/>
<path d="M69 67h1v1h1v1h-2v-2z" fill="rgb(16,16,16)"/>
<path d="M70 67h1v1h-1v-1z" fill="rgb(180,65,57)"/>
<path d="M71 67h1v1h-1v-1z" fill="rgb(16,16,16)"/>
<path d="M50 68h1v3h-1v-3z" fill="rgb(98,16,0)"/>
<path d="M58 68h1v1h-1v-1z" fill="rgb(16,16,16)"/>
<path d="M63 68h1v1h-1v-1z" fill="rgb(16,16,16)"/>
<path d="M64 68h1v1h-1v-1z" fill="rgb(222,106,49)"/>
<path d="M65 68h1v1h-1v-1z" fill="rgb(180,65,57)"/>
<path d="M57 69h1v1h-1v-1z" fill="rgb(98,16,0)"/>
<path d="M62 69h1v1h-1v-1z" fill="rgb(16,16,16)"/>
<path d="M63 69h2v2h-3v-1h1v-1z" fill="rgb(180,65,57)"/>
<path d="M65 69h1v2h-1v-2z" fill="rgb(16,16,16)"/>
<path d="M57 70h1v1h-1v-1z" fill="rgb(16,16,16)"/>
<path d="M61 70h1v1h3v1h-4v-2z" fill="rgb(16,16,16)"/>
<path d="M51 71h1v2h-1v-2z" fill="rgb(98,16,0)"/>
<path d="M56 71h1v1h-1v-1z" fill="rgb(16,16,16)"/>
<path d="M55 72h1v2h-1v-2z" fill="rgb(16,16,16)"/>
<path d="M51 73h1v1h-1v-1z" fill="rgb(16,16,16)"/>
<path d="M52 74h1v1h-1v-1z" fill="rgb(98,16,0)"/>
<path d="M53 74h1v2h-1v-2z" fill="rgb(222,106,49)"/>
<path d="M54 74h1v3h-2v-1h1v-2z" fill="rgb(16,16,16)"/>
<path d="M52 75h1v1h-1v-1z" fill="rgb(16,16,16)"/>
</svg>
