<?xml version="1.0" encoding="utf-8"?>
<!-- generated at drububu.com  -->
<!DOCTYPE svg PUBLIC "-//W3C//DTD SVG 1.1//EN" "http://www.w3.org/Graphics/SVG/1.1/DTD/svg11.dtd">
<svg version="1.1" preserveAspectRatio="xMinYMin meet" xmlns="http://www.w3.org/2000/svg" xmlns:xlink="http://www.w3.org/1999/xlink" x="0px" y="0px" width="96px" height="96px" viewBox="0 0 96 96">
<path d="M0 0h96v96h-96v-96z" fill="transparent"/>
<path d="M39 20h2v1h-2v-1z" fill="rgb(123,123,123)"/>
<path d="M38 21h1v2h-1v-2z" fill="rgb(123,123,123)"/>
<path d="M39 21h2v1h1v4h-1v2h-2v-1h-1v-4h1v-2z" fill="rgb(255,255,255)"/>
<path d="M41 21h1v1h-1v-1z" fill="rgb(123,123,123)"/>
<path d="M42 22h1v4h-1v-4z" fill="rgb(16,16,16)"/>
<path d="M37 23h1v4h-1v-4z" fill="rgb(123,123,123)"/>
<path d="M60 23h1v1h-1v-1z" fill="rgb(123,123,123)"/>
<path d="M61 23h2v1h-2v-1z" fill="rgb(16,16,16)"/>
<path d="M58 24h2v1h-2v-1z" fill="rgb(123,123,123)"/>
<path d="M60 24h3v2h-1v1h-1v1h-2v1h-1v-1h-1v-2h1v-1h2v-1z" fill="rgb(255,255,255)"/>
<path d="M63 24h1v3h-1v-3z" fill="rgb(16,16,16)"/>
<path d="M57 25h1v1h-1v-1z" fill="rgb(123,123,123)"/>
<path d="M41 26h1v2h-1v-2z" fill="rgb(16,16,16)"/>
<path d="M44 26h1v1h-1v-1z" fill="rgb(98,74,123)"/>
<path d="M53 26h1v1h-1v-1z" fill="rgb(98,74,123)"/>
<path d="M56 26h1v2h-1v-2z" fill="rgb(123,123,123)"/>
<path d="M62 26h1v1h-1v-1z" fill="rgb(213,213,213)"/>
<path d="M38 27h1v8h-1v-8z" fill="rgb(123,123,123)"/>
<path d="M43 27h1v2h-1v-2z" fill="rgb(98,74,123)"/>
<path d="M44 27h1v7h1v2h-1v2h1v-2h1v-2h1v-2h1v-1h1v-1h1v-1h1v-1h1v-1h1v3h-1v1h-1v1h-1v1
	h-1v2h-1v2h-1v3h-1v2h3v2h-1v4h-2v-2h-1v-1h-1v1h-1v2h-1v-5h-1v-1h2v-2h-1v-3h-1
	v-5h1v-3h1v-2z" fill="rgb(164,139,189)"/>
<path d="M45 27h1v5h-1v-5z" fill="rgb(49,41,82)"/>
<path d="M52 27h1v1h-1v-1z" fill="rgb(98,74,123)"/>
<path d="M54 27h1v2h-1v-2z" fill="rgb(49,41,82)"/>
<path d="M61 27h1v1h-1v-1z" fill="rgb(213,213,213)"/>
<path d="M62 27h1v1h-1v-1z" fill="rgb(16,16,16)"/>
<path d="M39 28h1v6h1v3h1v3h-1v-2h-1v-3h-1v-7z" fill="rgb(213,213,213)"/>
<path d="M40 28h1v6h-1v-6z" fill="rgb(16,16,16)"/>
<path d="M51 28h1v1h-1v-1z" fill="rgb(98,74,123)"/>
<path d="M55 28h1v1h-1v-1z" fill="rgb(123,123,123)"/>
<path d="M56 28h2v1h-1v1h-1v1h-1v1h-1v1h-1v1h-1v-2h1v-1h1v-1h1v-1h1v-1z" fill="rgb(213,213,213)"/>
<path d="M59 28h1v1h-1v-1z" fill="rgb(213,213,213)"/>
<path d="M60 28h1v1h-1v-1z" fill="rgb(123,123,123)"/>
<path d="M61 28h1v1h-1v-1z" fill="rgb(16,16,16)"/>
<path d="M42 29h1v3h-1v-3z" fill="rgb(98,74,123)"/>
<path d="M50 29h1v1h-1v-1z" fill="rgb(98,74,123)"/>
<path d="M54 29h1v1h-1v-1z" fill="rgb(123,123,123)"/>
<path d="M57 29h1v1h-1v-1z" fill="rgb(123,123,123)"/>
<path d="M58 29h2v1h-2v-1z" fill="rgb(16,16,16)"/>
<path d="M49 30h1v1h-1v-1z" fill="rgb(98,74,123)"/>
<path d="M53 30h1v1h-1v-1z" fill="rgb(123,123,123)"/>
<path d="M56 30h1v1h-1v-1z" fill="rgb(16,16,16)"/>
<path d="M48 31h1v1h-1v-1z" fill="rgb(98,74,123)"/>
<path d="M52 31h1v1h-1v-1z" fill="rgb(123,123,123)"/>
<path d="M55 31h1v1h-1v-1z" fill="rgb(16,16,16)"/>
<path d="M58 31h5v1h-5v-1z" fill="rgb(98,74,123)"/>
<path d="M41 32h1v2h-1v-2z" fill="rgb(98,74,123)"/>
<path d="M45 32h1v2h-1v-2z" fill="rgb(98,74,123)"/>
<path d="M47 32h1v2h-1v-2z" fill="rgb(98,74,123)"/>
<path d="M51 32h1v2h-1v1h-1v-2h1v-1z" fill="rgb(123,123,123)"/>
<path d="M54 32h1v1h-1v-1z" fill="rgb(16,16,16)"/>
<path d="M55 32h3v1h-3v-1z" fill="rgb(98,74,123)"/>
<path d="M58 32h4v1h-1v1h-2v1h-1v1h2v1h-2v1h-2v1h2v1h1v1h-3v-1h-3v1h-2v1h-1v-2h1v-2h1v-2
	h1v-2h2v-1h3v-1z" fill="rgb(164,139,189)"/>
<path d="M62 32h1v1h-1v-1z" fill="rgb(139,106,164)"/>
<path d="M63 32h1v1h-1v-1z" fill="rgb(49,41,82)"/>
<path d="M53 33h1v1h-1v-1z" fill="rgb(16,16,16)"/>
<path d="M54 33h1v1h-1v-1z" fill="rgb(98,74,123)"/>
<path d="M61 33h1v1h-1v-1z" fill="rgb(98,74,123)"/>
<path d="M62 33h1v1h-1v-1z" fill="rgb(16,16,16)"/>
<path d="M36 34h2v1h-1v3h-1v-1h-1v2h-2v-1h1v-2h2v-2z" fill="rgb(98,74,123)"/>
<path d="M41 34h1v3h-1v-3z" fill="rgb(16,16,16)"/>
<path d="M46 34h1v2h-1v-2z" fill="rgb(98,74,123)"/>
<path d="M51 34h1v2h-1v2h-1v2h-1v-3h1v-2h1v-1z" fill="rgb(213,213,213)"/>
<path d="M52 34h1v2h-1v-2z" fill="rgb(16,16,16)"/>
<path d="M59 34h4v1h1v1h1v1h-2v1h-2v1h3v1h3v2h-1v1h-2v1h-1v1h1v1h1v1h1v1h-2v1h1v1h1v1h-4
	v1h1v1h1v1h1v2h-3v-1h-2v2h1v2h-1v-1h-1v-1h-1v-1h-1v-1h-1v4h-1v-1h-1v-1h-1v-1
	h-1v-1h-1v2h-1v1h-1v2h-1v-2h-1v-2h-1v3h-1v1h-1v-1h-1v-2h-1v1h-1v-2h-1v-1h-2v1h-2
	v-1h-1v-1h-1v-2h-1v-2h-1v-1h-1v-1h1v-1h1v-1h-1v-1h-1v-1h1v-1h1v-1h1v1h1v1h1v1
	h-1v5h1v1h1v1h3v-1h1v-1h1v-2h2v-2h1v-1h1v1h1v2h3v2h1v1h2v1h4v-1h2v-1h1v-2h1v-3
	h-1v-2h-1v-1h-1v-1h1v-1h-1v-1h-2v-1h2v-1h2v-1h-2v-1h1v-1z" fill="rgb(139,106,164)"/>
<path d="M63 34h1v1h-1v-1z" fill="rgb(49,41,82)"/>
<path d="M37 35h1v1h1v2h1v2h1v1h-3v1h-1v1h-1v1h-1v-1h-1v-2h1v-1h-1v-1h1v-2h1v1h1v-3z" fill="rgb(164,139,189)"/>
<path d="M38 35h1v1h-1v-1z" fill="rgb(98,74,123)"/>
<path d="M39 35h1v3h-1v-3z" fill="rgb(123,123,123)"/>
<path d="M49 35h1v2h-1v-2z" fill="rgb(123,123,123)"/>
<path d="M64 35h1v1h-1v-1z" fill="rgb(49,41,82)"/>
<path d="M45 36h1v2h-1v-2z" fill="rgb(139,106,164)"/>
<path d="M51 36h1v2h-1v-2z" fill="rgb(16,16,16)"/>
<path d="M65 36h1v1h-1v-1z" fill="rgb(49,41,82)"/>
<path d="M42 37h1v3h-1v-3z" fill="rgb(16,16,16)"/>
<path d="M48 37h1v3h-1v-3z" fill="rgb(123,123,123)"/>
<path d="M63 37h2v1h-2v-1z" fill="rgb(16,16,16)"/>
<path d="M40 38h1v2h-1v-2z" fill="rgb(123,123,123)"/>
<path d="M50 38h1v2h-1v-2z" fill="rgb(16,16,16)"/>
<path d="M61 38h1v1h-1v-1z" fill="rgb(98,74,123)"/>
<path d="M62 38h2v1h-2v-1z" fill="rgb(49,41,82)"/>
<path d="M33 39h1v1h-1v-1z" fill="rgb(49,41,82)"/>
<path d="M64 39h3v1h-3v-1z" fill="rgb(49,41,82)"/>
<path d="M34 40h1v1h-1v-1z" fill="rgb(49,41,82)"/>
<path d="M41 40h1v2h-1v-2z" fill="rgb(123,123,123)"/>
<path d="M42 40h1v2h-1v-2z" fill="rgb(213,213,213)"/>
<path d="M43 40h1v2h-1v-2z" fill="rgb(16,16,16)"/>
<path d="M47 40h1v2h-1v-2z" fill="rgb(123,123,123)"/>
<path d="M48 40h1v2h-1v-2z" fill="rgb(213,213,213)"/>
<path d="M49 40h1v2h-1v-2z" fill="rgb(16,16,16)"/>
<path d="M53 40h3v1h-3v-1z" fill="rgb(180,65,90)"/>
<path d="M67 40h2v1h-2v-1z" fill="rgb(49,41,82)"/>
<path d="M33 41h1v1h-1v-1z" fill="rgb(49,41,82)"/>
<path d="M38 41h3v1h-3v-1z" fill="rgb(180,65,90)"/>
<path d="M51 41h2v1h-2v-1z" fill="rgb(180,65,90)"/>
<path d="M53 41h3v1h-1v1h-1v-1h-1v-1z" fill="rgb(255,90,90)"/>
<path d="M56 41h2v1h-2v-1z" fill="rgb(82,16,16)"/>
<path d="M67 41h2v1h-1v1h-1v1h-1v1h1v1h1v1h-1v1h-1v-1h-1v-1h-1v-1h-1v-1h1v-1h2v-1h1v-1z" fill="rgb(98,74,123)"/>
<path d="M69 41h1v1h-1v-1z" fill="rgb(16,16,16)"/>
<path d="M32 42h1v1h-1v-1z" fill="rgb(49,41,82)"/>
<path d="M37 42h1v1h-1v-1z" fill="rgb(180,65,90)"/>
<path d="M38 42h1v1h1v3h-2v1h-1v-1h-1v-1h1v-2h1v-1z" fill="rgb(255,172,180)"/>
<path d="M39 42h2v1h1v4h-1v-1h-1v-1h1v-1h-1v-1h-1v-1z" fill="rgb(255,90,90)"/>
<path d="M41 42h1v1h-1v-1z" fill="rgb(180,65,90)"/>
<path d="M50 42h1v2h-1v-2z" fill="rgb(180,65,90)"/>
<path d="M51 42h1v1h-1v-1z" fill="rgb(255,90,90)"/>
<path d="M52 42h1v1h2v4h-1v-1h-1v2h-2v-1h-1v-3h1v-1h1v-1z" fill="rgb(255,172,180)"/>
<path d="M53 42h1v1h-1v-1z" fill="rgb(180,65,90)"/>
<path d="M55 42h1v1h-1v-1z" fill="rgb(180,65,90)"/>
<path d="M56 42h1v1h1v1h-1v1h1v1h-1v1h1v1h-1v1h-1v-1h-1v1h1v1h-3v-1h1v-1h-1v-1h3v-1h-1
	v-1h1v-1h-1v-1h1v-1z" fill="rgb(255,90,90)"/>
<path d="M57 42h1v1h-1v-1z" fill="rgb(180,65,90)"/>
<path d="M58 42h1v1h-1v-1z" fill="rgb(82,16,16)"/>
<path d="M68 42h1v1h-1v-1z" fill="rgb(16,16,16)"/>
<path d="M31 43h1v1h-1v-1z" fill="rgb(49,41,82)"/>
<path d="M36 43h1v2h-1v-2z" fill="rgb(180,65,90)"/>
<path d="M42 43h1v2h-1v-2z" fill="rgb(180,65,90)"/>
<path d="M58 43h1v2h1v3h-1v2h-2v1h-1v-2h2v-2h-1v-1h1v-1h-1v-1h1v-1z" fill="rgb(180,65,90)"/>
<path d="M59 43h1v2h-1v-2z" fill="rgb(82,16,16)"/>
<path d="M67 43h1v1h-1v-1z" fill="rgb(16,16,16)"/>
<path d="M30 44h1v1h-1v-1z" fill="rgb(49,41,82)"/>
<path d="M38 44h1v1h-1v-1z" fill="rgb(255,90,90)"/>
<path d="M40 44h1v1h-1v-1z" fill="rgb(180,65,90)"/>
<path d="M49 44h1v2h-1v-2z" fill="rgb(180,65,90)"/>
<path d="M51 44h1v1h-1v-1z" fill="rgb(255,90,90)"/>
<path d="M53 44h1v1h-1v-1z" fill="rgb(255,90,90)"/>
<path d="M55 44h1v1h-1v-1z" fill="rgb(180,65,90)"/>
<path d="M66 44h1v1h-1v-1z" fill="rgb(16,16,16)"/>
<path d="M31 45h1v1h-1v-1z" fill="rgb(16,16,16)"/>
<path d="M35 45h1v1h-1v-1z" fill="rgb(180,65,90)"/>
<path d="M42 45h1v3h-1v-3z" fill="rgb(82,16,16)"/>
<path d="M60 45h1v3h-1v-3z" fill="rgb(82,16,16)"/>
<path d="M67 45h1v1h-1v-1z" fill="rgb(49,41,82)"/>
<path d="M32 46h1v1h-1v-1z" fill="rgb(49,41,82)"/>
<path d="M35 46h1v2h1v1h-1v1h-1v-4z" fill="rgb(82,16,16)"/>
<path d="M36 46h1v1h-1v-1z" fill="rgb(180,65,90)"/>
<path d="M38 46h1v1h-1v-1z" fill="rgb(180,65,90)"/>
<path d="M39 46h1v1h1v1h-1v2h-3v-2h-1v-1h3v-1z" fill="rgb(255,90,90)"/>
<path d="M40 46h1v1h-1v-1z" fill="rgb(180,65,90)"/>
<path d="M49 46h1v2h-1v-2z" fill="rgb(82,16,16)"/>
<path d="M51 46h1v1h-1v-1z" fill="rgb(255,90,90)"/>
<path d="M53 46h1v1h-1v-1z" fill="rgb(180,65,90)"/>
<path d="M55 46h1v1h-1v-1z" fill="rgb(180,65,90)"/>
<path d="M68 46h1v1h-1v-1z" fill="rgb(49,41,82)"/>
<path d="M31 47h1v1h-1v-1z" fill="rgb(49,41,82)"/>
<path d="M41 47h1v1h-1v-1z" fill="rgb(180,65,90)"/>
<path d="M50 47h1v1h-1v-1z" fill="rgb(255,90,90)"/>
<path d="M67 47h1v1h-1v-1z" fill="rgb(16,16,16)"/>
<path d="M30 48h1v1h-1v-1z" fill="rgb(49,41,82)"/>
<path d="M38 48h1v1h-1v-1z" fill="rgb(180,65,90)"/>
<path d="M40 48h2v2h-1v-1h-1v-1z" fill="rgb(82,16,16)"/>
<path d="M50 48h1v2h-1v-2z" fill="rgb(82,16,16)"/>
<path d="M51 48h1v1h1v1h-2v-2z" fill="rgb(180,65,90)"/>
<path d="M52 48h1v1h-1v-1z" fill="rgb(255,90,90)"/>
<path d="M53 48h1v1h-1v-1z" fill="rgb(180,65,90)"/>
<path d="M55 48h1v1h-1v-1z" fill="rgb(180,65,90)"/>
<path d="M57 48h1v1h-1v-1z" fill="rgb(82,16,16)"/>
<path d="M59 48h1v2h-1v-2z" fill="rgb(82,16,16)"/>
<path d="M64 48h2v1h2v1h1v1h1v1h-2v1h-1v1h-2v-1h-2v-1h-1v-1h4v-1h-1v-1h-1v-1z" fill="rgb(98,74,123)"/>
<path d="M66 48h1v1h-1v-1z" fill="rgb(16,16,16)"/>
<path d="M67 48h1v1h-1v-1z" fill="rgb(49,41,82)"/>
<path d="M31 49h1v1h-1v-1z" fill="rgb(16,16,16)"/>
<path d="M36 49h1v1h-1v-1z" fill="rgb(180,65,90)"/>
<path d="M40 49h1v1h-1v-1z" fill="rgb(180,65,90)"/>
<path d="M43 49h5v1h-5v-1z" fill="rgb(98,74,123)"/>
<path d="M68 49h1v1h-1v-1z" fill="rgb(49,41,82)"/>
<path d="M32 50h1v2h-1v-2z" fill="rgb(16,16,16)"/>
<path d="M36 50h1v1h-1v-1z" fill="rgb(82,16,16)"/>
<path d="M37 50h1v1h-1v-1z" fill="rgb(180,65,90)"/>
<path d="M38 50h1v1h1v1h-3v-1h1v-1z" fill="rgb(82,16,16)"/>
<path d="M39 50h1v1h-1v-1z" fill="rgb(180,65,90)"/>
<path d="M40 50h1v1h-1v-1z" fill="rgb(82,16,16)"/>
<path d="M42 50h1v2h-1v-2z" fill="rgb(98,74,123)"/>
<path d="M43 50h1v1h-1v-1z" fill="rgb(255,172,180)"/>
<path d="M44 50h2v2h-3v-1h1v-1z" fill="rgb(255,90,90)"/>
<path d="M46 50h2v2h-1v1h-3v-1h2v-2z" fill="rgb(180,65,90)"/>
<path d="M48 50h1v2h-1v-2z" fill="rgb(98,74,123)"/>
<path d="M51 50h2v1h-2v-1z" fill="rgb(82,16,16)"/>
<path d="M53 50h2v1h-2v-1z" fill="rgb(180,65,90)"/>
<path d="M55 50h1v1h1v1h-4v-1h2v-1z" fill="rgb(82,16,16)"/>
<path d="M57 50h2v1h-2v-1z" fill="rgb(82,16,16)"/>
<path d="M69 50h1v1h-1v-1z" fill="rgb(49,41,82)"/>
<path d="M70 51h1v1h-1v-1z" fill="rgb(49,41,82)"/>
<path d="M31 52h1v1h-1v-1z" fill="rgb(49,41,82)"/>
<path d="M32 52h2v2h1v1h1v1h1v1h-1v2h-2v-1h-1v-1h-1v-1h1v-1h-1v-1h-1v-1h1v-1z" fill="rgb(98,74,123)"/>
<path d="M42 52h1v1h-1v-1z" fill="rgb(213,213,213)"/>
<path d="M43 52h1v1h-1v-1z" fill="rgb(255,255,255)"/>
<path d="M47 52h1v1h-1v-1z" fill="rgb(255,255,255)"/>
<path d="M48 52h1v2h-1v-2z" fill="rgb(213,213,213)"/>
<path d="M49 52h1v2h-1v-2z" fill="rgb(16,16,16)"/>
<path d="M68 52h2v1h-2v-1z" fill="rgb(16,16,16)"/>
<path d="M30 53h1v1h-1v-1z" fill="rgb(49,41,82)"/>
<path d="M42 53h1v1h-1v-1z" fill="rgb(255,255,255)"/>
<path d="M43 53h5v1h-5v-1z" fill="rgb(16,16,16)"/>
<path d="M64 53h1v1h-1v-1z" fill="rgb(49,41,82)"/>
<path d="M67 53h1v1h-1v-1z" fill="rgb(16,16,16)"/>
<path d="M31 54h1v1h-1v-1z" fill="rgb(49,41,82)"/>
<path d="M42 54h1v1h-1v-1z" fill="rgb(16,16,16)"/>
<path d="M48 54h1v1h-1v-1z" fill="rgb(16,16,16)"/>
<path d="M65 54h1v1h-1v-1z" fill="rgb(49,41,82)"/>
<path d="M66 54h1v1h-1v-1z" fill="rgb(16,16,16)"/>
<path d="M32 55h1v1h-1v-1z" fill="rgb(49,41,82)"/>
<path d="M38 55h2v1h-2v-1z" fill="rgb(115,65,41)"/>
<path d="M51 55h1v1h1v1h-2v-2z" fill="rgb(98,74,123)"/>
<path d="M56 55h1v1h1v1h1v1h1v1h1v-2h-1v-2h2v1h3v-1h1v1h1v1h1v1h-3v1h-1v1h1v1h-3v1h-1v-1
	h-1v1h1v2h-1v-1h-1v-1h-1v1h1v1h-2v1h-3v1h-1v-1h-1v1h-1v1h-1v-1h-1v1h-1v-1h-1
	v-1h-1v1h-1v-1h-1v-1h-3v-1h-1v1h-1v-1h-1v-1h4v-2h-1v-1h1v-2h1v2h1v1h1v-1h1v-3h1
	v2h1v2h1v1h1v3h3v-1h1v-1h1v-3h1v-4z" fill="rgb(98,74,123)"/>
<path d="M66 55h1v1h-1v-1z" fill="rgb(49,41,82)"/>
<path d="M31 56h1v1h-1v-1z" fill="rgb(49,41,82)"/>
<path d="M37 56h1v1h-1v-1z" fill="rgb(115,65,41)"/>
<path d="M38 56h2v1h-2v-1z" fill="rgb(238,189,156)"/>
<path d="M40 56h1v1h-1v-1z" fill="rgb(115,65,41)"/>
<path d="M67 56h1v1h-1v-1z" fill="rgb(49,41,82)"/>
<path d="M32 57h1v1h-1v-1z" fill="rgb(49,41,82)"/>
<path d="M36 57h1v3h-1v-3z" fill="rgb(115,65,41)"/>
<path d="M37 57h2v2h1v1h-1v1h-1v-1h-1v-3z" fill="rgb(189,148,106)"/>
<path d="M39 57h1v1h-1v-1z" fill="rgb(115,65,41)"/>
<path d="M40 57h1v1h-1v-1z" fill="rgb(16,16,16)"/>
<path d="M50 57h3v1h-3v-1z" fill="rgb(115,65,41)"/>
<path d="M53 57h1v1h-1v-1z" fill="rgb(98,74,123)"/>
<path d="M68 57h1v1h-1v-1z" fill="rgb(49,41,82)"/>
<path d="M33 58h1v1h-1v-1z" fill="rgb(49,41,82)"/>
<path d="M39 58h2v1h-2v-1z" fill="rgb(238,189,156)"/>
<path d="M41 58h1v1h-1v-1z" fill="rgb(115,65,41)"/>
<path d="M49 58h1v1h-1v-1z" fill="rgb(115,65,41)"/>
<path d="M50 58h2v1h-2v-1z" fill="rgb(238,189,156)"/>
<path d="M52 58h1v1h1v3h-1v1h-1v-3h-1v-1h1v-1z" fill="rgb(189,148,106)"/>
<path d="M53 58h1v1h-1v-1z" fill="rgb(115,65,41)"/>
<path d="M54 58h1v1h-1v-1z" fill="rgb(98,74,123)"/>
<path d="M63 58h1v1h-1v-1z" fill="rgb(49,41,82)"/>
<path d="M65 58h3v1h-3v-1z" fill="rgb(16,16,16)"/>
<path d="M34 59h2v1h-2v-1z" fill="rgb(16,16,16)"/>
<path d="M40 59h1v1h-1v-1z" fill="rgb(16,16,16)"/>
<path d="M49 59h1v1h-1v-1z" fill="rgb(98,74,123)"/>
<path d="M50 59h1v1h-1v-1z" fill="rgb(16,16,16)"/>
<path d="M54 59h1v1h-1v-1z" fill="rgb(115,65,41)"/>
<path d="M64 59h1v1h-1v-1z" fill="rgb(49,41,82)"/>
<path d="M35 60h1v1h-1v-1z" fill="rgb(49,41,82)"/>
<path d="M36 60h1v1h1v1h-3v-1h1v-1z" fill="rgb(98,74,123)"/>
<path d="M37 60h1v1h-1v-1z" fill="rgb(16,16,16)"/>
<path d="M39 60h2v1h-2v-1z" fill="rgb(238,189,156)"/>
<path d="M41 60h1v1h-1v-1z" fill="rgb(115,65,41)"/>
<path d="M49 60h1v1h-1v-1z" fill="rgb(115,65,41)"/>
<path d="M50 60h2v1h-2v-1z" fill="rgb(238,189,156)"/>
<path d="M54 60h1v2h-1v-2z" fill="rgb(16,16,16)"/>
<path d="M65 60h1v1h-1v-1z" fill="rgb(49,41,82)"/>
<path d="M34 61h1v1h-1v-1z" fill="rgb(49,41,82)"/>
<path d="M38 61h4v1h-4v-1z" fill="rgb(16,16,16)"/>
<path d="M50 61h1v1h-1v-1z" fill="rgb(16,16,16)"/>
<path d="M51 61h1v1h-1v-1z" fill="rgb(115,65,41)"/>
<path d="M60 61h1v1h-1v-1z" fill="rgb(16,16,16)"/>
<path d="M62 61h3v1h-3v-1z" fill="rgb(16,16,16)"/>
<path d="M35 62h3v1h-3v-1z" fill="rgb(16,16,16)"/>
<path d="M50 62h1v1h-1v-1z" fill="rgb(115,65,41)"/>
<path d="M51 62h1v1h-1v-1z" fill="rgb(238,189,156)"/>
<path d="M53 62h1v1h-1v-1z" fill="rgb(16,16,16)"/>
<path d="M58 62h1v1h-1v-1z" fill="rgb(49,41,82)"/>
<path d="M61 62h1v3h-1v-3z" fill="rgb(16,16,16)"/>
<path d="M38 63h1v1h-1v-1z" fill="rgb(16,16,16)"/>
<path d="M40 63h1v1h-1v-1z" fill="rgb(16,16,16)"/>
<path d="M50 63h3v1h-3v-1z" fill="rgb(16,16,16)"/>
<path d="M59 63h1v1h-1v-1z" fill="rgb(49,41,82)"/>
<path d="M39 64h1v1h-1v-1z" fill="rgb(16,16,16)"/>
<path d="M40 64h1v1h-1v-1z" fill="transparent"/>
<path d="M41 64h3v1h1v1h-2v-1h-2v-1z" fill="rgb(16,16,16)"/>
<path d="M57 64h2v1h-2v-1z" fill="rgb(16,16,16)"/>
<path d="M60 64h1v1h-1v-1z" fill="rgb(49,41,82)"/>
<path d="M38 65h3v1h-3v-1z" fill="rgb(115,65,41)"/>
<path d="M41 65h2v1h2v1h-1v1h-1v1h-2v1h-3v-2h1v-1h-1v-1h3v-1z" fill="rgb(189,148,106)"/>
<path d="M46 65h1v1h-1v-1z" fill="rgb(16,16,16)"/>
<path d="M52 65h1v1h-1v-1z" fill="rgb(16,16,16)"/>
<path d="M54 65h3v1h-3v-1z" fill="rgb(16,16,16)"/>
<path d="M36 66h2v1h-2v-1z" fill="rgb(115,65,41)"/>
<path d="M45 66h1v1h-1v-1z" fill="rgb(16,16,16)"/>
<path d="M47 66h1v1h-1v-1z" fill="rgb(16,16,16)"/>
<path d="M49 66h1v1h-1v-1z" fill="rgb(16,16,16)"/>
<path d="M51 66h1v2h-2v-1h1v-1z" fill="rgb(16,16,16)"/>
<path d="M52 66h1v1h1v-1h3v1h1v1h-2v1h-1v1h-1v-1h-1v-1h-1v-2z" fill="rgb(189,148,106)"/>
<path d="M53 66h1v1h-1v-1z" fill="rgb(16,16,16)"/>
<path d="M57 66h1v1h-1v-1z" fill="rgb(16,16,16)"/>
<path d="M35 67h1v1h-1v-1z" fill="rgb(115,65,41)"/>
<path d="M36 67h2v1h-1v2h-1v-3z" fill="rgb(189,148,106)"/>
<path d="M38 67h1v1h-1v-1z" fill="rgb(115,65,41)"/>
<path d="M44 67h1v1h-1v-1z" fill="rgb(16,16,16)"/>
<path d="M48 67h1v1h-1v-1z" fill="rgb(16,16,16)"/>
<path d="M58 67h2v1h-2v-1z" fill="rgb(16,16,16)"/>
<path d="M35 68h1v2h-1v-2z" fill="rgb(16,16,16)"/>
<path d="M37 68h1v2h-1v-2z" fill="rgb(115,65,41)"/>
<path d="M43 68h1v1h-1v-1z" fill="rgb(16,16,16)"/>
<path d="M52 68h1v1h-1v-1z" fill="rgb(16,16,16)"/>
<path d="M56 68h4v1h1v2h-1v-1h-1v-1h-2v1h2v2h-2v-1h-2v-2h1v-1z" fill="rgb(238,189,156)"/>
<path d="M60 68h1v1h-1v-1z" fill="rgb(16,16,16)"/>
<path d="M41 69h2v1h-2v-1z" fill="rgb(16,16,16)"/>
<path d="M53 69h1v1h-1v-1z" fill="rgb(16,16,16)"/>
<path d="M57 69h1v1h-1v-1z" fill="rgb(189,148,106)"/>
<path d="M58 69h1v1h-1v-1z" fill="rgb(115,65,41)"/>
<path d="M61 69h1v2h-1v-2z" fill="rgb(16,16,16)"/>
<path d="M36 70h5v1h-5v-1z" fill="rgb(16,16,16)"/>
<path d="M54 70h1v1h-1v-1z" fill="rgb(16,16,16)"/>
<path d="M59 70h1v2h-1v-2z" fill="rgb(115,65,41)"/>
<path d="M55 71h2v1h-2v-1z" fill="rgb(16,16,16)"/>
<path d="M60 71h1v1h-1v-1z" fill="rgb(16,16,16)"/>
<path d="M57 72h3v1h-3v-1z" fill="rgb(16,16,16)"/>
</svg>
