<?xml version="1.0" encoding="utf-8"?>
<!-- generated at drububu.com  -->
<!DOCTYPE svg PUBLIC "-//W3C//DTD SVG 1.1//EN" "http://www.w3.org/Graphics/SVG/1.1/DTD/svg11.dtd">
<svg version="1.1" preserveAspectRatio="xMinYMin meet" xmlns="http://www.w3.org/2000/svg" xmlns:xlink="http://www.w3.org/1999/xlink" x="0px" y="0px" width="96px" height="96px" viewBox="0 0 96 96">
<path d="M0 0h96v96h-96v-96z" fill="transparent"/>
<path d="M63 13h5v1h-5v-1z" fill="rgb(98,74,115)"/>
<path d="M61 14h2v1h-2v-1z" fill="rgb(98,74,115)"/>
<path d="M63 14h3v1h-3v-1z" fill="rgb(156,139,189)"/>
<path d="M66 14h2v1h-2v-1z" fill="rgb(213,172,222)"/>
<path d="M68 14h1v1h-1v-1z" fill="rgb(156,139,189)"/>
<path d="M69 14h1v1h-1v-1z" fill="rgb(98,74,115)"/>
<path d="M60 15h1v1h-1v-1z" fill="rgb(98,74,115)"/>
<path d="M61 15h2v1h-2v-1z" fill="rgb(156,139,189)"/>
<path d="M63 15h1v1h-1v-1z" fill="rgb(213,172,222)"/>
<path d="M64 15h6v1h-1v1h-2v1h-2v1h-1v1h-1v1h-1v1h-1v1h-1v1h-1v1h-1v2h-1v3h-1v2h-3v-2h1
	v-2h1v-2h1v-2h1v-1h1v-2h1v-2h1v-1h1v-1h1v-1h2v-1z" fill="rgb(246,222,255)"/>
<path d="M70 15h1v1h-1v-1z" fill="rgb(98,74,115)"/>
<path d="M15 16h2v1h-2v-1z" fill="rgb(98,74,115)"/>
<path d="M59 16h1v1h-1v-1z" fill="rgb(98,74,115)"/>
<path d="M60 16h1v1h-1v-1z" fill="rgb(156,139,189)"/>
<path d="M61 16h1v1h-1v-1z" fill="rgb(213,172,222)"/>
<path d="M69 16h2v1h-2v-1z" fill="rgb(156,139,189)"/>
<path d="M71 16h1v1h-1v-1z" fill="rgb(98,74,115)"/>
<path d="M14 17h1v5h-1v-5z" fill="rgb(98,74,115)"/>
<path d="M15 17h2v1h1v1h1v1h1v2h1v1h1v2h1v1h1v2h1v1h1v2h1v1h1v2h1v1h1v2h1v1h1v2h1v3h-1
	v-1h-1v-1h-1v-2h-1v-2h-1v-1h-1v-2h-1v-1h-1v-2h-1v-2h-1v-2h-1v-1h-1v-2h-1v-1h-1
	v-2h-1v-1h-1v-1h-1v-1h-1v-1z" fill="rgb(156,139,189)"/>
<path d="M17 17h1v1h-1v-1z" fill="rgb(98,74,115)"/>
<path d="M58 17h1v1h-1v-1z" fill="rgb(98,74,115)"/>
<path d="M59 17h1v2h-1v1h-1v2h-1v2h-1v1h-1v2h-1v2h-1v3h-1v3h-1v4h-1v3h-1v4h-1v6h-1v-1h-2
	v-3h1v-4h1v-3h1v-2h1v-3h1v-3h1v-3h1v-2h1v-2h1v-2h1v-2h1v-1h1v-2h1v-1h1v-1z" fill="rgb(156,139,189)"/>
<path d="M60 17h1v1h-1v-1z" fill="rgb(213,172,222)"/>
<path d="M67 17h2v1h-2v-1z" fill="rgb(156,139,189)"/>
<path d="M69 17h2v1h1v4h-4v1h-3v1h-2v1h-2v1h-1v-2h1v-1h1v-1h1v-1h1v-1h1v-1h2v-1h2v-1z" fill="rgb(246,222,255)"/>
<path d="M71 17h1v1h-1v-1z" fill="rgb(156,139,189)"/>
<path d="M15 18h1v1h1v1h1v1h1v2h-1v-1h-1v-1h-1v-1h-1v-2z" fill="rgb(238,197,255)"/>
<path d="M18 18h1v1h-1v-1z" fill="rgb(98,74,115)"/>
<path d="M57 18h1v1h-1v-1z" fill="rgb(98,74,115)"/>
<path d="M65 18h1v1h-1v-1z" fill="rgb(156,139,189)"/>
<path d="M66 18h1v1h-1v-1z" fill="rgb(213,172,222)"/>
<path d="M72 18h1v3h-1v-3z" fill="rgb(98,74,115)"/>
<path d="M19 19h1v1h-1v-1z" fill="rgb(98,74,115)"/>
<path d="M56 19h1v2h-1v-2z" fill="rgb(98,74,115)"/>
<path d="M64 19h1v1h-1v-1z" fill="rgb(156,139,189)"/>
<path d="M15 20h1v1h-1v-1z" fill="rgb(156,139,189)"/>
<path d="M20 20h1v2h-1v-2z" fill="rgb(98,74,115)"/>
<path d="M58 20h1v1h-1v-1z" fill="rgb(213,172,222)"/>
<path d="M63 20h1v1h-1v-1z" fill="rgb(156,139,189)"/>
<path d="M15 21h1v1h-1v-1z" fill="rgb(238,197,255)"/>
<path d="M16 21h1v1h-1v-1z" fill="rgb(156,139,189)"/>
<path d="M55 21h1v1h-1v-1z" fill="rgb(98,74,115)"/>
<path d="M62 21h1v1h-1v-1z" fill="rgb(156,139,189)"/>
<path d="M72 21h1v4h-1v-4z" fill="rgb(16,16,16)"/>
<path d="M15 22h1v3h-1v-3z" fill="rgb(98,74,115)"/>
<path d="M16 22h1v1h1v2h1v2h1v2h1v1h-2v-1h-1v-2h-1v-2h-1v-3z" fill="rgb(238,197,255)"/>
<path d="M17 22h1v1h-1v-1z" fill="rgb(156,139,189)"/>
<path d="M21 22h1v1h-1v-1z" fill="rgb(98,74,115)"/>
<path d="M54 22h1v2h-1v-2z" fill="rgb(98,74,115)"/>
<path d="M57 22h1v1h-1v-1z" fill="rgb(213,172,222)"/>
<path d="M61 22h1v1h-1v-1z" fill="rgb(156,139,189)"/>
<path d="M68 22h4v1h-4v-1z" fill="rgb(156,139,189)"/>
<path d="M18 23h1v2h-1v-2z" fill="rgb(156,139,189)"/>
<path d="M19 23h1v1h1v2h1v1h1v2h1v2h1v2h1v1h1v2h1v2h1v2h1v2h-1v-1h-1v-2h-1v-1h-1v-2h-1
	v-2h-1v-2h-1v-1h-1v-2h-1v-2h-1v-2h-1v-2z" fill="rgb(238,197,255)"/>
<path d="M22 23h1v2h-1v-2z" fill="rgb(98,74,115)"/>
<path d="M60 23h1v1h-1v-1z" fill="rgb(156,139,189)"/>
<path d="M65 23h3v1h-3v-1z" fill="rgb(156,139,189)"/>
<path d="M68 23h4v2h-1v4h-1v3h-1v2h-1v1h-2v1h-2v1h-2v1h-2v-2h-1v-1h-1v-1h-1v-1h-1v-1h1
	v-2h1v-1h1v-1h1v-1h1v-1h2v-1h2v-1h3v-1z" fill="rgb(246,222,255)"/>
<path d="M53 24h1v2h-1v-2z" fill="rgb(98,74,115)"/>
<path d="M59 24h1v2h-1v-2z" fill="rgb(156,139,189)"/>
<path d="M63 24h2v1h-2v-1z" fill="rgb(156,139,189)"/>
<path d="M16 25h1v2h-1v-2z" fill="rgb(98,74,115)"/>
<path d="M19 25h1v2h-1v-2z" fill="rgb(156,139,189)"/>
<path d="M23 25h1v1h-1v-1z" fill="rgb(98,74,115)"/>
<path d="M55 25h1v1h-1v-1z" fill="rgb(213,172,222)"/>
<path d="M58 25h1v1h-1v-1z" fill="rgb(213,172,222)"/>
<path d="M61 25h2v1h-2v-1z" fill="rgb(156,139,189)"/>
<path d="M71 25h1v1h-1v-1z" fill="rgb(98,74,115)"/>
<path d="M24 26h1v1h-1v-1z" fill="rgb(16,16,16)"/>
<path d="M52 26h1v2h-1v-2z" fill="rgb(98,74,115)"/>
<path d="M58 26h1v1h1v1h-1v1h-1v1h-1v-2h1v-2z" fill="rgb(156,139,189)"/>
<path d="M59 26h1v1h-1v-1z" fill="rgb(246,222,255)"/>
<path d="M60 26h1v1h-1v-1z" fill="rgb(156,139,189)"/>
<path d="M71 26h1v3h-1v-3z" fill="rgb(16,16,16)"/>
<path d="M17 27h1v2h-1v-2z" fill="rgb(98,74,115)"/>
<path d="M20 27h1v2h-1v-2z" fill="rgb(156,139,189)"/>
<path d="M24 27h1v1h-1v-1z" fill="rgb(98,74,115)"/>
<path d="M54 27h1v1h-1v-1z" fill="rgb(213,172,222)"/>
<path d="M57 27h1v1h-1v-1z" fill="rgb(213,172,222)"/>
<path d="M25 28h1v1h-1v-1z" fill="rgb(98,74,115)"/>
<path d="M51 28h1v2h-1v-2z" fill="rgb(98,74,115)"/>
<path d="M18 29h1v2h-1v-2z" fill="rgb(98,74,115)"/>
<path d="M21 29h1v2h-3v-1h2v-1z" fill="rgb(156,139,189)"/>
<path d="M26 29h1v1h-1v-1z" fill="rgb(16,16,16)"/>
<path d="M53 29h1v1h-1v-1z" fill="rgb(213,172,222)"/>
<path d="M70 29h1v2h-1v-2z" fill="rgb(98,74,115)"/>
<path d="M26 30h1v1h-1v-1z" fill="rgb(98,74,115)"/>
<path d="M50 30h1v3h-1v-3z" fill="rgb(98,74,115)"/>
<path d="M56 30h1v2h-1v-2z" fill="rgb(156,139,189)"/>
<path d="M19 31h1v2h-1v-2z" fill="rgb(98,74,115)"/>
<path d="M20 31h1v1h1v1h1v1h1v2h-1v-1h-2v-2h-1v-2z" fill="rgb(238,197,255)"/>
<path d="M21 31h1v1h-1v-1z" fill="rgb(213,172,222)"/>
<path d="M22 31h1v1h-1v-1z" fill="rgb(156,139,189)"/>
<path d="M27 31h1v1h-1v-1z" fill="rgb(98,74,115)"/>
<path d="M37 31h1v1h-1v-1z" fill="rgb(16,16,16)"/>
<path d="M38 31h1v9h-1v-9z" fill="rgb(98,74,115)"/>
<path d="M70 31h1v1h-1v-1z" fill="rgb(16,16,16)"/>
<path d="M22 32h1v1h-1v-1z" fill="rgb(213,172,222)"/>
<path d="M23 32h1v2h-1v-2z" fill="rgb(156,139,189)"/>
<path d="M28 32h1v1h-1v-1z" fill="rgb(16,16,16)"/>
<path d="M36 32h1v2h-1v-2z" fill="rgb(16,16,16)"/>
<path d="M37 32h1v3h-1v-3z" fill="rgb(213,172,222)"/>
<path d="M52 32h1v1h-1v-1z" fill="rgb(213,172,222)"/>
<path d="M53 32h2v3h-1v3h-1v-1h-2v-1h1v-3h1v-1z" fill="rgb(238,197,255)"/>
<path d="M55 32h1v3h-1v-3z" fill="rgb(156,139,189)"/>
<path d="M69 32h1v1h-1v-1z" fill="rgb(98,74,115)"/>
<path d="M20 33h1v2h-1v-2z" fill="rgb(98,74,115)"/>
<path d="M28 33h1v1h-1v-1z" fill="rgb(98,74,115)"/>
<path d="M49 33h1v2h-1v-2z" fill="rgb(16,16,16)"/>
<path d="M56 33h1v1h1v1h1v1h1v2h1v1h-1v1h-1v1h-1v1h-1v-2h-1v-1h-1v-4h1v-2z" fill="rgb(238,197,255)"/>
<path d="M69 33h1v2h-1v-2z" fill="rgb(16,16,16)"/>
<path d="M24 34h1v2h-1v-2z" fill="rgb(156,139,189)"/>
<path d="M29 34h1v1h-1v-1z" fill="rgb(98,74,115)"/>
<path d="M36 34h1v1h-1v-1z" fill="rgb(98,74,115)"/>
<path d="M68 34h1v1h-1v-1z" fill="rgb(156,139,189)"/>
<path d="M21 35h1v2h-1v-2z" fill="rgb(98,74,115)"/>
<path d="M22 35h1v1h-1v-1z" fill="rgb(156,139,189)"/>
<path d="M30 35h1v1h-1v-1z" fill="rgb(16,16,16)"/>
<path d="M35 35h1v3h-1v-3z" fill="rgb(16,16,16)"/>
<path d="M36 35h1v6h-1v-6z" fill="rgb(213,172,222)"/>
<path d="M37 35h1v11h1v7h-1v-1h-1v-2h-1v-9h1v-6z" fill="rgb(238,197,255)"/>
<path d="M49 35h1v1h-1v-1z" fill="rgb(98,74,115)"/>
<path d="M51 35h1v1h-1v-1z" fill="rgb(213,172,222)"/>
<path d="M54 35h1v3h-1v-3z" fill="rgb(156,139,189)"/>
<path d="M66 35h2v1h-2v-1z" fill="rgb(156,139,189)"/>
<path d="M68 35h1v6h-1v-6z" fill="rgb(98,74,115)"/>
<path d="M22 36h1v1h-1v-1z" fill="rgb(238,197,255)"/>
<path d="M23 36h1v1h-1v-1z" fill="rgb(156,139,189)"/>
<path d="M24 36h1v1h-1v-1z" fill="rgb(238,197,255)"/>
<path d="M25 36h1v2h1v1h1v2h-1v-1h-1v-1h-1v-1h-1v-1h1v-1z" fill="rgb(156,139,189)"/>
<path d="M30 36h1v1h-1v-1z" fill="rgb(98,74,115)"/>
<path d="M48 36h1v3h-1v-3z" fill="rgb(16,16,16)"/>
<path d="M64 36h1v1h-1v-1z" fill="rgb(156,139,189)"/>
<path d="M65 36h1v1h-1v-1z" fill="rgb(213,172,222)"/>
<path d="M66 36h2v3h-2v1h-2v1h-2v-3h2v-1h2v-1z" fill="rgb(246,222,255)"/>
<path d="M22 37h1v1h-1v-1z" fill="rgb(98,74,115)"/>
<path d="M23 37h1v1h-1v-1z" fill="rgb(238,197,255)"/>
<path d="M28 37h1v1h-1v-1z" fill="rgb(98,74,115)"/>
<path d="M31 37h1v1h-1v-1z" fill="rgb(16,16,16)"/>
<path d="M51 37h2v5h-1v4h-1v4h-1v4h-1v-1h-1v-7h1v-4h1v-3h1v-2z" fill="rgb(213,172,222)"/>
<path d="M62 37h1v1h-1v-1z" fill="rgb(156,139,189)"/>
<path d="M63 37h1v1h-1v-1z" fill="rgb(213,172,222)"/>
<path d="M23 38h1v2h-1v-2z" fill="rgb(98,74,115)"/>
<path d="M24 38h1v1h-1v-1z" fill="rgb(238,197,255)"/>
<path d="M32 38h1v2h-1v-2z" fill="rgb(16,16,16)"/>
<path d="M35 38h1v2h-1v-2z" fill="rgb(98,74,115)"/>
<path d="M53 38h1v4h-1v-4z" fill="rgb(156,139,189)"/>
<path d="M54 38h1v1h1v1h1v3h-1v2h-1v1h-1v2h-1v3h-1v2h-1v-3h1v-4h1v-4h1v-4z" fill="rgb(213,172,222)"/>
<path d="M61 38h1v1h-1v-1z" fill="rgb(156,139,189)"/>
<path d="M24 39h1v1h-1v-1z" fill="rgb(156,139,189)"/>
<path d="M25 39h1v1h1v1h-2v-2z" fill="rgb(238,197,255)"/>
<path d="M29 39h1v1h-1v-1z" fill="rgb(98,74,115)"/>
<path d="M47 39h1v2h-1v-2z" fill="rgb(16,16,16)"/>
<path d="M60 39h1v1h-1v-1z" fill="rgb(156,139,189)"/>
<path d="M61 39h1v3h-1v1h-1v1h-1v-1h-1v-1h1v-1h1v-1h1v-1z" fill="rgb(238,197,255)"/>
<path d="M66 39h2v1h-2v-1z" fill="rgb(156,139,189)"/>
<path d="M24 40h1v1h-1v-1z" fill="rgb(16,16,16)"/>
<path d="M33 40h1v2h1v3h-1v-2h-1v-3z" fill="rgb(16,16,16)"/>
<path d="M35 40h1v1h-1v-1z" fill="rgb(156,139,189)"/>
<path d="M38 40h1v4h1v4h1v-1h1v1h1v-1h1v3h-3v1h-1v5h1v1h-1v2h-1v-1h-1v-1h-1v-1h-1v-1h-1
	v-2h-1v-1h-1v-2h-1v-2h-1v-3h-1v-2h1v1h1v1h1v2h1v3h1v-9h1v9h1v2h1v1h1v-7h-1v-6z" fill="rgb(213,172,222)"/>
<path d="M39 40h1v4h-1v-4z" fill="rgb(98,74,115)"/>
<path d="M45 40h2v1h-2v-1z" fill="rgb(98,74,115)"/>
<path d="M59 40h1v1h-1v-1z" fill="rgb(156,139,189)"/>
<path d="M64 40h2v1h-2v-1z" fill="rgb(156,139,189)"/>
<path d="M66 40h2v1h1v3h1v2h1v2h-1v-1h-2v-1h-5v-4h1v-1h2v-1z" fill="rgb(246,222,255)"/>
<path d="M25 41h1v1h-1v-1z" fill="rgb(16,16,16)"/>
<path d="M26 41h1v1h-1v-1z" fill="rgb(156,139,189)"/>
<path d="M27 41h1v1h-1v-1z" fill="rgb(238,197,255)"/>
<path d="M28 41h1v1h-1v-1z" fill="rgb(156,139,189)"/>
<path d="M30 41h1v1h-1v-1z" fill="rgb(98,74,115)"/>
<path d="M44 41h1v1h-1v-1z" fill="rgb(98,74,115)"/>
<path d="M45 41h1v2h-1v-2z" fill="rgb(238,197,255)"/>
<path d="M46 41h1v3h-1v-3z" fill="rgb(16,16,16)"/>
<path d="M58 41h1v1h-1v-1z" fill="rgb(156,139,189)"/>
<path d="M62 41h2v1h-2v-1z" fill="rgb(156,139,189)"/>
<path d="M69 41h1v3h-1v-3z" fill="rgb(98,74,115)"/>
<path d="M26 42h1v2h-1v-2z" fill="rgb(98,74,115)"/>
<path d="M27 42h1v1h-1v-1z" fill="rgb(156,139,189)"/>
<path d="M28 42h1v1h-1v-1z" fill="rgb(238,197,255)"/>
<path d="M29 42h1v1h-1v-1z" fill="rgb(98,74,115)"/>
<path d="M30 42h1v1h-1v-1z" fill="rgb(156,139,189)"/>
<path d="M31 42h1v1h1v2h-1v-1h-1v-2z" fill="rgb(98,74,115)"/>
<path d="M43 42h1v2h-1v-2z" fill="rgb(98,74,115)"/>
<path d="M44 42h1v1h-1v-1z" fill="rgb(213,172,222)"/>
<path d="M52 42h1v4h-1v-4z" fill="rgb(156,139,189)"/>
<path d="M57 42h1v1h-1v-1z" fill="rgb(156,139,189)"/>
<path d="M61 42h1v1h-1v-1z" fill="rgb(156,139,189)"/>
<path d="M62 42h1v4h-1v1h-2v-1h-1v-1h1v-1h1v-1h1v-1z" fill="rgb(238,197,255)"/>
<path d="M27 43h1v1h-1v-1z" fill="rgb(238,197,255)"/>
<path d="M28 43h1v1h-1v-1z" fill="rgb(156,139,189)"/>
<path d="M29 43h1v2h-1v-2z" fill="rgb(16,16,16)"/>
<path d="M33 43h1v2h-1v-2z" fill="rgb(156,139,189)"/>
<path d="M44 43h1v2h-1v2h-1v1h-1v-2h1v-2h1v-1z" fill="rgb(238,197,255)"/>
<path d="M45 43h1v1h-1v-1z" fill="rgb(213,172,222)"/>
<path d="M56 43h1v2h-1v-2z" fill="rgb(156,139,189)"/>
<path d="M57 43h2v2h-1v1h-1v1h-1v2h-1v2h-1v-3h1v-2h1v-1h1v-2z" fill="rgb(213,172,222)"/>
<path d="M60 43h1v1h-1v-1z" fill="rgb(156,139,189)"/>
<path d="M27 44h1v3h-1v-3z" fill="rgb(98,74,115)"/>
<path d="M28 44h1v1h1v3h1v2h1v3h-2v-2h-1v-4h-1v-3z" fill="rgb(238,197,255)"/>
<path d="M40 44h1v2h-1v-2z" fill="rgb(98,74,115)"/>
<path d="M42 44h1v2h-1v-2z" fill="rgb(98,74,115)"/>
<path d="M45 44h1v1h-1v-1z" fill="rgb(98,74,115)"/>
<path d="M59 44h1v1h-1v-1z" fill="rgb(156,139,189)"/>
<path d="M70 44h1v2h-1v-2z" fill="rgb(98,74,115)"/>
<path d="M30 45h1v1h-1v-1z" fill="rgb(98,74,115)"/>
<path d="M33 45h1v2h-1v-2z" fill="rgb(98,74,115)"/>
<path d="M34 45h1v2h-1v-2z" fill="rgb(156,139,189)"/>
<path d="M44 45h1v2h-1v-2z" fill="rgb(213,172,222)"/>
<path d="M45 45h1v3h-1v-3z" fill="rgb(16,16,16)"/>
<path d="M55 45h1v1h-1v-1z" fill="rgb(156,139,189)"/>
<path d="M58 45h1v1h-1v-1z" fill="rgb(156,139,189)"/>
<path d="M30 46h1v2h-1v-2z" fill="rgb(16,16,16)"/>
<path d="M40 46h1v1h-1v-1z" fill="rgb(156,139,189)"/>
<path d="M41 46h1v1h-1v-1z" fill="rgb(98,74,115)"/>
<path d="M51 46h1v4h-1v-4z" fill="rgb(156,139,189)"/>
<path d="M54 46h1v2h-1v-2z" fill="rgb(156,139,189)"/>
<path d="M57 46h1v1h-1v-1z" fill="rgb(156,139,189)"/>
<path d="M58 46h2v1h-1v1h-2v-1h1v-1z" fill="rgb(213,172,222)"/>
<path d="M62 46h6v1h-6v-1z" fill="rgb(156,139,189)"/>
<path d="M71 46h1v3h-1v-3z" fill="rgb(98,74,115)"/>
<path d="M28 47h1v2h-1v-2z" fill="rgb(98,74,115)"/>
<path d="M34 47h1v2h-1v-2z" fill="rgb(98,74,115)"/>
<path d="M40 47h1v1h-1v-1z" fill="rgb(98,74,115)"/>
<path d="M44 47h1v1h-1v-1z" fill="rgb(98,74,115)"/>
<path d="M56 47h1v1h2v1h-2v1h-1v1h-1v-2h1v-2z" fill="rgb(156,139,189)"/>
<path d="M59 47h3v1h-3v-1z" fill="rgb(156,139,189)"/>
<path d="M62 47h1v4h-3v-3h2v-1z" fill="rgb(238,197,255)"/>
<path d="M63 47h5v1h2v1h1v2h-1v2h-3v-1h-3v-1h-1v-4z" fill="rgb(246,222,255)"/>
<path d="M68 47h2v1h-2v-1z" fill="rgb(156,139,189)"/>
<path d="M31 48h1v2h-1v-2z" fill="rgb(16,16,16)"/>
<path d="M44 48h1v2h-1v-2z" fill="rgb(16,16,16)"/>
<path d="M53 48h1v3h-1v-3z" fill="rgb(156,139,189)"/>
<path d="M59 48h1v3h-4v-1h1v-1h2v-1z" fill="rgb(213,172,222)"/>
<path d="M70 48h1v1h-1v-1z" fill="rgb(156,139,189)"/>
<path d="M28 49h1v2h-1v-2z" fill="rgb(16,16,16)"/>
<path d="M34 49h1v1h-1v-1z" fill="rgb(156,139,189)"/>
<path d="M71 49h1v2h-1v-2z" fill="rgb(16,16,16)"/>
<path d="M32 50h1v2h-1v-2z" fill="rgb(16,16,16)"/>
<path d="M41 50h1v1h-1v-1z" fill="rgb(156,139,189)"/>
<path d="M42 50h3v1h-3v-1z" fill="rgb(98,74,115)"/>
<path d="M50 50h1v3h-1v-3z" fill="rgb(156,139,189)"/>
<path d="M29 51h1v1h-1v-1z" fill="rgb(98,74,115)"/>
<path d="M40 51h1v1h-1v-1z" fill="rgb(156,139,189)"/>
<path d="M41 51h1v1h-1v-1z" fill="rgb(98,74,115)"/>
<path d="M42 51h2v2h-2v-2z" fill="rgb(230,230,230)"/>
<path d="M44 51h1v1h-1v-1z" fill="rgb(172,197,197)"/>
<path d="M45 51h2v1h-2v-1z" fill="rgb(98,74,115)"/>
<path d="M52 51h1v1h-1v-1z" fill="rgb(156,139,189)"/>
<path d="M53 51h1v1h-1v-1z" fill="rgb(213,172,222)"/>
<path d="M54 51h10v1h-10v-1z" fill="rgb(98,74,115)"/>
<path d="M70 51h1v1h-1v-1z" fill="rgb(98,74,115)"/>
<path d="M29 52h1v1h-1v-1z" fill="rgb(16,16,16)"/>
<path d="M32 52h1v1h-1v-1z" fill="rgb(98,74,115)"/>
<path d="M33 52h1v1h-1v-1z" fill="rgb(16,16,16)"/>
<path d="M40 52h1v1h-1v-1z" fill="rgb(98,74,115)"/>
<path d="M41 52h1v3h-1v-3z" fill="rgb(172,197,197)"/>
<path d="M44 52h1v3h-3v-2h2v-1z" fill="rgb(16,16,16)"/>
<path d="M45 52h1v3h-1v-3z" fill="rgb(172,197,197)"/>
<path d="M46 52h1v3h-1v-3z" fill="rgb(16,16,16)"/>
<path d="M47 52h1v1h-1v-1z" fill="rgb(98,74,115)"/>
<path d="M52 52h2v1h-2v-1z" fill="rgb(98,74,115)"/>
<path d="M54 52h10v1h1v1h-2v1h-2v-1h-6v1h-4v-1h2v-1h1v-1z" fill="rgb(213,172,222)"/>
<path d="M64 52h1v1h-1v-1z" fill="rgb(156,139,189)"/>
<path d="M65 52h2v1h-2v-1z" fill="rgb(98,74,115)"/>
<path d="M70 52h1v1h-1v-1z" fill="rgb(16,16,16)"/>
<path d="M30 53h1v1h-1v-1z" fill="rgb(16,16,16)"/>
<path d="M31 53h1v3h-1v-3z" fill="rgb(98,74,115)"/>
<path d="M32 53h1v2h-1v-2z" fill="rgb(230,230,230)"/>
<path d="M33 53h2v1h-1v1h-1v-2z" fill="rgb(98,74,115)"/>
<path d="M40 53h1v2h-1v-2z" fill="rgb(16,16,16)"/>
<path d="M47 53h1v1h-1v-1z" fill="rgb(156,139,189)"/>
<path d="M48 53h1v1h-1v-1z" fill="rgb(16,16,16)"/>
<path d="M50 53h2v1h-2v-1z" fill="rgb(98,74,115)"/>
<path d="M52 53h1v1h-1v-1z" fill="rgb(156,139,189)"/>
<path d="M65 53h1v1h-1v-1z" fill="rgb(238,197,255)"/>
<path d="M66 53h1v1h2v1h1v1h1v2h-2v-1h-2v-1h-3v-2h2v-1z" fill="rgb(246,222,255)"/>
<path d="M67 53h2v1h-2v-1z" fill="rgb(98,74,115)"/>
<path d="M69 53h1v1h-1v-1z" fill="rgb(16,16,16)"/>
<path d="M34 54h1v1h1v1h-2v-2z" fill="rgb(16,16,16)"/>
<path d="M47 54h1v2h-1v-2z" fill="rgb(213,172,222)"/>
<path d="M48 54h1v3h-2v-1h1v-2z" fill="rgb(156,139,189)"/>
<path d="M49 54h1v3h-1v-3z" fill="rgb(16,16,16)"/>
<path d="M50 54h1v1h-1v-1z" fill="rgb(238,197,255)"/>
<path d="M55 54h6v1h-6v-1z" fill="rgb(156,139,189)"/>
<path d="M63 54h1v1h-1v-1z" fill="rgb(238,197,255)"/>
<path d="M69 54h1v1h-1v-1z" fill="rgb(98,74,115)"/>
<path d="M32 55h2v2h-1v-1h-1v-1z" fill="rgb(172,197,197)"/>
<path d="M40 55h2v2h-1v-1h-1v-1z" fill="rgb(98,74,115)"/>
<path d="M42 55h3v1h-3v-1z" fill="rgb(172,197,197)"/>
<path d="M45 55h2v1h-1v1h-1v-2z" fill="rgb(98,74,115)"/>
<path d="M50 55h1v1h-1v-1z" fill="rgb(98,82,57)"/>
<path d="M51 55h4v1h-4v-1z" fill="rgb(156,139,189)"/>
<path d="M55 55h6v1h-6v-1z" fill="rgb(213,172,222)"/>
<path d="M61 55h3v1h-3v-1z" fill="rgb(156,139,189)"/>
<path d="M70 55h1v1h-1v-1z" fill="rgb(98,74,115)"/>
<path d="M32 56h1v1h-1v-1z" fill="rgb(98,74,115)"/>
<path d="M34 56h1v1h-1v-1z" fill="rgb(230,230,230)"/>
<path d="M35 56h1v1h-1v-1z" fill="rgb(172,197,197)"/>
<path d="M36 56h1v1h-1v-1z" fill="rgb(16,16,16)"/>
<path d="M42 56h3v1h-3v-1z" fill="rgb(16,16,16)"/>
<path d="M46 56h1v1h-1v-1z" fill="rgb(98,82,57)"/>
<path d="M50 56h1v1h-1v-1z" fill="rgb(164,131,123)"/>
<path d="M51 56h1v1h-1v-1z" fill="rgb(98,82,57)"/>
<path d="M52 56h8v1h-8v-1z" fill="rgb(238,197,255)"/>
<path d="M60 56h4v1h3v1h2v1h1v2h-1v1h-1v-1h-1v-1h-2v-1h-3v-1h-3v-1h1v-1z" fill="rgb(246,222,255)"/>
<path d="M64 56h3v1h-3v-1z" fill="rgb(156,139,189)"/>
<path d="M71 56h1v3h-1v-3z" fill="rgb(98,74,115)"/>
<path d="M33 57h2v1h-1v1h-1v-2z" fill="rgb(98,74,115)"/>
<path d="M35 57h1v1h-1v-1z" fill="rgb(16,16,16)"/>
<path d="M36 57h1v2h-1v-2z" fill="rgb(98,74,115)"/>
<path d="M37 57h1v3h1v1h-2v-4z" fill="rgb(16,16,16)"/>
<path d="M40 57h2v1h-1v1h-1v-2z" fill="rgb(156,139,189)"/>
<path d="M42 57h1v1h-1v-1z" fill="rgb(213,172,222)"/>
<path d="M43 57h1v1h-1v-1z" fill="rgb(98,74,115)"/>
<path d="M44 57h1v1h-1v-1z" fill="rgb(230,213,172)"/>
<path d="M45 57h1v1h-1v-1z" fill="rgb(98,82,57)"/>
<path d="M46 57h1v1h-1v-1z" fill="rgb(197,172,139)"/>
<path d="M47 57h1v2h-1v-2z" fill="rgb(98,82,57)"/>
<path d="M48 57h1v1h-1v-1z" fill="rgb(98,74,115)"/>
<path d="M49 57h1v3h-1v-3z" fill="rgb(98,82,57)"/>
<path d="M50 57h1v1h1v1h1v1h-2v3h-2v1h-1v-2h1v-2h1v-3z" fill="rgb(197,172,139)"/>
<path d="M51 57h1v1h-1v-1z" fill="rgb(164,131,123)"/>
<path d="M52 57h1v2h-1v-2z" fill="rgb(98,82,57)"/>
<path d="M53 57h6v1h-6v-1z" fill="rgb(156,139,189)"/>
<path d="M67 57h2v1h-2v-1z" fill="rgb(156,139,189)"/>
<path d="M34 58h1v3h-1v1h-1v2h-1v-3h1v-2h1v-1z" fill="rgb(213,172,222)"/>
<path d="M35 58h1v4h-1v-4z" fill="rgb(156,139,189)"/>
<path d="M38 58h1v1h-1v-1z" fill="rgb(98,74,115)"/>
<path d="M41 58h1v2h-1v-2z" fill="rgb(230,230,230)"/>
<path d="M42 58h1v1h-1v-1z" fill="rgb(98,74,115)"/>
<path d="M43 58h1v1h1v1h-1v2h1v-1h1v1h1v1h-4v-1h-3v1h-1v-2h1v-1h2v1h1v-3z" fill="rgb(16,16,16)"/>
<path d="M44 58h1v1h-1v-1z" fill="rgb(197,172,139)"/>
<path d="M45 58h1v1h-1v-1z" fill="rgb(16,16,16)"/>
<path d="M46 58h1v1h-1v-1z" fill="rgb(230,213,172)"/>
<path d="M48 58h1v1h-1v-1z" fill="rgb(197,172,139)"/>
<path d="M53 58h6v2h1v2h1v1h-2v-1h-1v-1h-2v-1h-2v-1h-1v-1z" fill="rgb(238,197,255)"/>
<path d="M59 58h3v1h-3v-1z" fill="rgb(156,139,189)"/>
<path d="M69 58h2v1h-2v-1z" fill="rgb(156,139,189)"/>
<path d="M32 59h1v1h-1v-1z" fill="rgb(98,74,115)"/>
<path d="M36 59h1v2h1v1h-1v3h1v1h1v1h-2v1h1v3h-3v-2h1v-2h-1v-5h1v-3z" fill="rgb(238,197,255)"/>
<path d="M38 59h1v1h-1v-1z" fill="rgb(230,230,230)"/>
<path d="M39 59h2v1h-2v-1z" fill="rgb(98,74,115)"/>
<path d="M42 59h1v1h-1v-1z" fill="rgb(255,255,255)"/>
<path d="M45 59h1v1h-1v-1z" fill="rgb(164,131,123)"/>
<path d="M46 59h1v1h-1v-1z" fill="rgb(197,172,139)"/>
<path d="M47 59h1v1h-1v-1z" fill="rgb(16,16,16)"/>
<path d="M48 59h1v1h-1v-1z" fill="rgb(230,213,172)"/>
<path d="M53 59h1v2h1v3h-1v-2h-1v-1h-1v2h-1v-3h2v-1z" fill="rgb(98,82,57)"/>
<path d="M59 59h3v1h3v1h2v1h1v2h1v1h1v1h1v2h-1v1h-2v-2h-1v-2h-2v1h-2v-1h-1v-1h-1v-2h-1
	v-2h-1v-1z" fill="rgb(246,222,255)"/>
<path d="M62 59h3v1h-3v-1z" fill="rgb(156,139,189)"/>
<path d="M70 59h1v1h-1v-1z" fill="rgb(98,74,115)"/>
<path d="M32 60h1v1h-1v-1z" fill="rgb(156,139,189)"/>
<path d="M39 60h1v1h-1v-1z" fill="rgb(230,230,230)"/>
<path d="M42 60h1v1h-1v-1z" fill="rgb(230,230,230)"/>
<path d="M44 60h1v1h-1v-1z" fill="rgb(98,82,57)"/>
<path d="M45 60h1v1h-1v-1z" fill="rgb(197,172,139)"/>
<path d="M46 60h1v1h-1v-1z" fill="rgb(16,16,16)"/>
<path d="M47 60h1v1h-1v-1z" fill="rgb(197,172,139)"/>
<path d="M48 60h1v1h-1v-1z" fill="rgb(16,16,16)"/>
<path d="M54 60h2v1h-2v-1z" fill="rgb(156,139,189)"/>
<path d="M65 60h2v1h-2v-1z" fill="rgb(156,139,189)"/>
<path d="M70 60h1v1h-1v-1z" fill="rgb(16,16,16)"/>
<path d="M31 61h1v1h-1v-1z" fill="rgb(98,74,115)"/>
<path d="M34 61h1v1h-1v-1z" fill="rgb(238,197,255)"/>
<path d="M38 61h1v1h-1v-1z" fill="rgb(98,82,57)"/>
<path d="M44 61h1v1h-1v-1z" fill="rgb(164,131,123)"/>
<path d="M46 61h1v1h-1v-1z" fill="rgb(164,131,123)"/>
<path d="M47 61h1v1h-1v-1z" fill="rgb(16,16,16)"/>
<path d="M48 61h1v1h-1v-1z" fill="rgb(164,131,123)"/>
<path d="M52 61h1v1h1v2h-2v1h-1v-2h1v-2z" fill="rgb(197,172,139)"/>
<path d="M55 61h1v1h2v1h1v1h2v3h-3v-1h-2v-2h-1v-3z" fill="rgb(238,197,255)"/>
<path d="M56 61h2v1h-2v-1z" fill="rgb(156,139,189)"/>
<path d="M67 61h1v1h-1v-1z" fill="rgb(156,139,189)"/>
<path d="M69 61h1v1h-1v-1z" fill="rgb(16,16,16)"/>
<path d="M31 62h1v2h-1v-2z" fill="rgb(16,16,16)"/>
<path d="M33 62h1v4h-1v-4z" fill="rgb(238,197,255)"/>
<path d="M34 62h1v5h-1v-5z" fill="rgb(156,139,189)"/>
<path d="M37 62h1v2h-1v-2z" fill="rgb(156,139,189)"/>
<path d="M38 62h1v1h2v3h-2v-2h-1v-2z" fill="rgb(238,197,255)"/>
<path d="M40 62h1v1h-1v-1z" fill="rgb(98,82,57)"/>
<path d="M41 62h1v1h-1v-1z" fill="rgb(197,172,139)"/>
<path d="M42 62h1v1h-1v-1z" fill="rgb(98,82,57)"/>
<path d="M47 62h1v2h-2v2h-1v-1h-1v-1h-1v-1h4v-1z" fill="rgb(164,131,123)"/>
<path d="M58 62h1v1h-1v-1z" fill="rgb(156,139,189)"/>
<path d="M68 62h1v1h-1v-1z" fill="rgb(16,16,16)"/>
<path d="M41 63h2v2h-1v1h-1v-3z" fill="rgb(16,16,16)"/>
<path d="M49 63h1v2h-1v-2z" fill="rgb(16,16,16)"/>
<path d="M50 63h1v1h-1v-1z" fill="rgb(98,82,57)"/>
<path d="M59 63h2v1h-2v-1z" fill="rgb(156,139,189)"/>
<path d="M68 63h1v1h-1v-1z" fill="rgb(98,74,115)"/>
<path d="M32 64h1v1h-1v-1z" fill="rgb(98,74,115)"/>
<path d="M37 64h2v1h-2v-1z" fill="rgb(213,172,222)"/>
<path d="M43 64h1v1h-1v-1z" fill="rgb(98,82,57)"/>
<path d="M46 64h2v1h-2v-1z" fill="rgb(98,82,57)"/>
<path d="M48 64h1v1h-1v-1z" fill="rgb(164,131,123)"/>
<path d="M50 64h1v1h1v1h-1v2h-1v-1h-2v2h-3v-2h1v1h1v-3h1v1h2v-2z" fill="rgb(164,131,123)"/>
<path d="M52 64h2v1h-1v1h-1v-2z" fill="rgb(98,82,57)"/>
<path d="M54 64h1v1h-1v-1z" fill="rgb(164,131,123)"/>
<path d="M55 64h1v2h-2v-1h1v-1z" fill="rgb(98,82,57)"/>
<path d="M61 64h1v1h-1v-1z" fill="rgb(156,139,189)"/>
<path d="M69 64h1v1h-1v-1z" fill="rgb(98,74,115)"/>
<path d="M32 65h1v1h-1v-1z" fill="rgb(16,16,16)"/>
<path d="M38 65h1v1h-1v-1z" fill="rgb(156,139,189)"/>
<path d="M43 65h1v2h-1v-2z" fill="rgb(16,16,16)"/>
<path d="M44 65h1v1h-1v-1z" fill="rgb(98,82,57)"/>
<path d="M46 65h1v2h-1v-2z" fill="rgb(16,16,16)"/>
<path d="M48 65h2v1h-2v-1z" fill="rgb(98,82,57)"/>
<path d="M53 65h1v1h1v3h-1v-1h-1v1h-1v2h-1v-1h-1v1h-3v-1h2v-2h1v1h1v-1h1v-2h1v-1z" fill="rgb(164,131,123)"/>
<path d="M61 65h1v1h1v1h-2v-2z" fill="rgb(246,222,255)"/>
<path d="M62 65h1v1h-1v-1z" fill="rgb(156,139,189)"/>
<path d="M65 65h1v1h-1v-1z" fill="rgb(98,74,115)"/>
<path d="M66 65h1v1h-1v-1z" fill="rgb(213,172,222)"/>
<path d="M70 65h1v1h-1v-1z" fill="rgb(98,74,115)"/>
<path d="M33 66h1v1h-1v-1z" fill="rgb(16,16,16)"/>
<path d="M39 66h1v1h-1v-1z" fill="rgb(156,139,189)"/>
<path d="M40 66h1v1h-1v-1z" fill="rgb(16,16,16)"/>
<path d="M44 66h1v1h-1v-1z" fill="rgb(164,131,123)"/>
<path d="M45 66h1v1h-1v-1z" fill="rgb(98,82,57)"/>
<path d="M51 66h1v1h-1v-1z" fill="rgb(16,16,16)"/>
<path d="M55 66h3v1h-2v4h-1v-5z" fill="rgb(16,16,16)"/>
<path d="M63 66h2v1h-2v-1z" fill="rgb(98,74,115)"/>
<path d="M66 66h1v1h-1v-1z" fill="rgb(16,16,16)"/>
<path d="M71 66h1v2h-1v-2z" fill="rgb(98,74,115)"/>
<path d="M34 67h1v1h-1v-1z" fill="rgb(16,16,16)"/>
<path d="M35 67h1v1h-1v-1z" fill="rgb(98,74,115)"/>
<path d="M37 67h1v1h-1v-1z" fill="rgb(156,139,189)"/>
<path d="M38 67h1v2h-1v-2z" fill="rgb(98,74,115)"/>
<path d="M39 67h1v1h-1v-1z" fill="rgb(16,16,16)"/>
<path d="M44 67h1v1h-1v-1z" fill="rgb(98,82,57)"/>
<path d="M46 67h1v1h-1v-1z" fill="rgb(98,82,57)"/>
<path d="M48 67h2v1h-2v-1z" fill="rgb(98,82,57)"/>
<path d="M51 67h1v1h-1v-1z" fill="rgb(98,82,57)"/>
<path d="M58 67h5v1h-5v-1z" fill="rgb(16,16,16)"/>
<path d="M67 67h1v1h-1v-1z" fill="rgb(98,74,115)"/>
<path d="M35 68h1v1h-1v-1z" fill="rgb(16,16,16)"/>
<path d="M44 68h1v1h-1v-1z" fill="rgb(16,16,16)"/>
<path d="M48 68h1v2h-2v-1h1v-1z" fill="rgb(16,16,16)"/>
<path d="M50 68h1v1h-1v-1z" fill="rgb(16,16,16)"/>
<path d="M53 68h1v1h-1v-1z" fill="rgb(98,82,57)"/>
<path d="M67 68h1v1h-1v-1z" fill="rgb(16,16,16)"/>
<path d="M70 68h1v1h-1v-1z" fill="rgb(16,16,16)"/>
<path d="M34 69h1v1h-1v-1z" fill="rgb(98,74,115)"/>
<path d="M38 69h1v2h-1v-2z" fill="rgb(16,16,16)"/>
<path d="M45 69h1v1h-1v-1z" fill="rgb(16,16,16)"/>
<path d="M46 69h1v1h-1v-1z" fill="rgb(98,82,57)"/>
<path d="M52 69h1v1h-1v-1z" fill="rgb(98,82,57)"/>
<path d="M53 69h1v1h1v1h-1v2h-3v-1h2v-3z" fill="rgb(164,131,123)"/>
<path d="M54 69h1v1h-1v-1z" fill="rgb(98,82,57)"/>
<path d="M68 69h2v1h-2v-1z" fill="rgb(16,16,16)"/>
<path d="M34 70h1v1h-1v-1z" fill="rgb(16,16,16)"/>
<path d="M46 70h1v1h-1v-1z" fill="rgb(16,16,16)"/>
<path d="M50 70h1v1h-1v-1z" fill="rgb(16,16,16)"/>
<path d="M52 70h1v2h-1v-2z" fill="rgb(16,16,16)"/>
<path d="M35 71h3v1h-3v-1z" fill="rgb(16,16,16)"/>
<path d="M47 71h1v1h-1v-1z" fill="rgb(16,16,16)"/>
<path d="M48 71h1v1h-1v-1z" fill="rgb(98,82,57)"/>
<path d="M49 71h1v2h-1v-2z" fill="rgb(16,16,16)"/>
<path d="M50 71h1v1h-1v-1z" fill="rgb(164,131,123)"/>
<path d="M51 71h1v1h-1v-1z" fill="rgb(98,82,57)"/>
<path d="M54 71h1v1h-1v-1z" fill="rgb(98,82,57)"/>
<path d="M50 72h1v1h-1v-1z" fill="rgb(98,82,57)"/>
<path d="M54 72h1v1h-1v-1z" fill="rgb(16,16,16)"/>
<path d="M51 73h3v1h-3v-1z" fill="rgb(16,16,16)"/>
</svg>
