<?xml version="1.0" encoding="utf-8"?>
<!-- generated at drububu.com  -->
<!DOCTYPE svg PUBLIC "-//W3C//DTD SVG 1.1//EN" "http://www.w3.org/Graphics/SVG/1.1/DTD/svg11.dtd">
<svg version="1.1" preserveAspectRatio="xMinYMin meet" xmlns="http://www.w3.org/2000/svg" xmlns:xlink="http://www.w3.org/1999/xlink" x="0px" y="0px" width="96px" height="96px" viewBox="0 0 96 96">
<path d="M0 0h96v96h-96v-96z" fill="transparent"/>
<path d="M47 22h1v1h-1v-1z" fill="rgb(205,57,57)"/>
<path d="M48 22h1v1h-1v-1z" fill="rgb(148,32,16)"/>
<path d="M45 23h2v1h-2v-1z" fill="rgb(205,57,57)"/>
<path d="M47 23h1v1h-1v-1z" fill="rgb(255,131,106)"/>
<path d="M48 23h1v1h-1v-1z" fill="rgb(255,82,74)"/>
<path d="M49 23h1v1h-1v-1z" fill="rgb(148,32,16)"/>
<path d="M43 24h2v1h-2v-1z" fill="rgb(205,57,57)"/>
<path d="M45 24h2v1h-2v-1z" fill="rgb(255,131,106)"/>
<path d="M47 24h1v1h-1v-1z" fill="rgb(255,82,74)"/>
<path d="M48 24h1v1h-1v-1z" fill="rgb(205,57,57)"/>
<path d="M49 24h1v1h-1v-1z" fill="rgb(16,16,16)"/>
<path d="M37 25h3v1h-3v-1z" fill="rgb(148,32,16)"/>
<path d="M40 25h3v1h-3v-1z" fill="rgb(205,57,57)"/>
<path d="M43 25h4v1h-1v1h-2v1h1v1h1v2h1v3h-1v1h-2v1h-2v1h-7v1h-4v-2h1v-1h1v-2h1v-3h-1v-1
	h2v-1h1v-1h2v-1h5v-1z" fill="rgb(255,82,74)"/>
<path d="M47 25h1v1h-1v-1z" fill="rgb(205,57,57)"/>
<path d="M48 25h1v1h-1v-1z" fill="rgb(16,16,16)"/>
<path d="M35 26h2v1h-2v-1z" fill="rgb(148,32,16)"/>
<path d="M37 26h1v1h-1v-1z" fill="rgb(255,131,106)"/>
<path d="M46 26h1v2h-3v-1h2v-1z" fill="rgb(205,57,57)"/>
<path d="M47 26h1v1h-1v-1z" fill="rgb(148,32,16)"/>
<path d="M34 27h1v1h-1v-1z" fill="rgb(148,32,16)"/>
<path d="M35 27h1v1h-1v-1z" fill="rgb(255,131,106)"/>
<path d="M47 27h1v1h-1v-1z" fill="rgb(16,16,16)"/>
<path d="M33 28h1v1h-1v-1z" fill="rgb(148,32,16)"/>
<path d="M34 28h1v1h-1v-1z" fill="rgb(255,131,106)"/>
<path d="M38 28h1v1h-1v-1z" fill="rgb(255,131,106)"/>
<path d="M45 28h1v1h-1v-1z" fill="rgb(148,32,16)"/>
<path d="M46 28h1v2h-1v-2z" fill="rgb(16,16,16)"/>
<path d="M32 29h1v3h-1v-3z" fill="rgb(148,32,16)"/>
<path d="M37 29h1v3h-1v-3z" fill="rgb(255,131,106)"/>
<path d="M41 29h1v1h-1v-1z" fill="rgb(148,32,16)"/>
<path d="M42 29h1v1h-1v-1z" fill="rgb(205,57,57)"/>
<path d="M33 30h1v2h-1v-2z" fill="rgb(205,57,57)"/>
<path d="M36 30h1v1h-1v-1z" fill="rgb(148,32,16)"/>
<path d="M39 30h1v1h-1v-1z" fill="rgb(205,57,57)"/>
<path d="M40 30h1v1h-1v-1z" fill="rgb(148,32,16)"/>
<path d="M41 30h1v1h-1v-1z" fill="rgb(180,180,180)"/>
<path d="M42 30h1v1h-1v-1z" fill="rgb(148,32,16)"/>
<path d="M46 30h1v1h-1v-1z" fill="rgb(148,32,16)"/>
<path d="M47 30h1v2h-1v-2z" fill="rgb(16,16,16)"/>
<path d="M36 31h1v1h-1v-1z" fill="rgb(16,16,16)"/>
<path d="M38 31h1v1h-1v-1z" fill="rgb(148,32,16)"/>
<path d="M39 31h1v2h-2v-1h1v-1z" fill="rgb(16,16,16)"/>
<path d="M40 31h3v2h-2v-1h-1v-1z" fill="rgb(255,255,255)"/>
<path d="M33 32h1v1h-1v-1z" fill="rgb(148,32,16)"/>
<path d="M37 32h1v1h-1v-1z" fill="rgb(148,32,16)"/>
<path d="M40 32h1v1h-1v-1z" fill="rgb(0,90,255)"/>
<path d="M47 32h1v1h-1v-1z" fill="rgb(148,32,16)"/>
<path d="M48 32h1v3h-1v-3z" fill="rgb(16,16,16)"/>
<path d="M32 33h1v1h-1v-1z" fill="rgb(205,57,57)"/>
<path d="M38 33h1v1h-1v-1z" fill="rgb(148,32,16)"/>
<path d="M39 33h1v1h-1v-1z" fill="rgb(0,90,255)"/>
<path d="M40 33h1v1h-1v-1z" fill="rgb(16,16,16)"/>
<path d="M41 33h2v1h-2v-1z" fill="rgb(205,57,57)"/>
<path d="M47 33h1v2h-1v2h-1v2h-1v3h1v1h-1v1h-1v1h-1v-1h-3v-1h1v-2h-1v-1h-5v-1h1v-1h6v-1
	h1v-1h1v-1h2v-1h1v-1z" fill="rgb(205,57,57)"/>
<path d="M31 34h1v1h-1v-1z" fill="rgb(148,32,16)"/>
<path d="M32 34h1v1h-1v-1z" fill="rgb(255,131,106)"/>
<path d="M76 34h1v1h-1v-1z" fill="rgb(255,222,41)"/>
<path d="M30 35h1v3h-1v-3z" fill="rgb(148,32,16)"/>
<path d="M31 35h1v1h-1v-1z" fill="rgb(255,131,106)"/>
<path d="M33 35h1v1h-1v-1z" fill="rgb(148,32,16)"/>
<path d="M47 35h1v2h-1v-2z" fill="rgb(16,16,16)"/>
<path d="M76 35h1v1h-1v-1z" fill="rgb(255,164,0)"/>
<path d="M77 35h1v1h-1v-1z" fill="rgb(255,222,41)"/>
<path d="M33 36h1v1h-1v-1z" fill="rgb(16,16,16)"/>
<path d="M42 36h1v1h-1v-1z" fill="rgb(16,16,16)"/>
<path d="M77 36h1v1h-1v-1z" fill="rgb(255,164,0)"/>
<path d="M35 37h1v1h-1v-1z" fill="rgb(205,57,57)"/>
<path d="M36 37h1v1h-1v-1z" fill="rgb(148,32,16)"/>
<path d="M37 37h5v1h-5v-1z" fill="rgb(16,16,16)"/>
<path d="M46 37h1v2h-1v-2z" fill="rgb(16,16,16)"/>
<path d="M31 38h1v1h-1v-1z" fill="rgb(16,16,16)"/>
<path d="M32 38h3v1h-3v-1z" fill="rgb(205,57,57)"/>
<path d="M35 38h1v1h-1v-1z" fill="rgb(148,32,16)"/>
<path d="M68 38h1v1h-1v-1z" fill="rgb(255,65,0)"/>
<path d="M32 39h3v1h-3v-1z" fill="rgb(16,16,16)"/>
<path d="M45 39h1v3h-1v-3z" fill="rgb(16,16,16)"/>
<path d="M35 40h5v1h-5v-1z" fill="rgb(16,16,16)"/>
<path d="M77 40h1v1h-1v-1z" fill="rgb(255,164,0)"/>
<path d="M40 41h1v2h-1v-2z" fill="rgb(16,16,16)"/>
<path d="M64 41h1v1h-1v-1z" fill="rgb(255,164,0)"/>
<path d="M69 41h4v1h2v1h-1v1h-2v1h1v1h2v-1h3v1h1v-1h2v1h-1v1h-2v2h-1v1h-1v1h-2v4h-1v2h-1
	v1h-1v1h-1v1h-2v-1h1v-5h-1v-2h2v5h1v-3h1v-2h1v-2h1v-1h1v-1h-2v1h-2v1h-2v-3h1
	v-1h-2v1h-1v1h-2v-2h-1v-2h1v-1h2v1h1v-2h1v-1z" fill="rgb(255,65,0)"/>
<path d="M75 41h2v1h-1v1h-1v-2z" fill="rgb(255,164,0)"/>
<path d="M46 42h1v1h-1v-1z" fill="rgb(16,16,16)"/>
<path d="M76 42h1v1h-1v-1z" fill="rgb(255,65,0)"/>
<path d="M81 42h2v1h-1v1h-2v-1h1v-1z" fill="rgb(255,164,0)"/>
<path d="M39 43h1v1h-1v-1z" fill="rgb(16,16,16)"/>
<path d="M45 43h3v1h-3v-1z" fill="rgb(148,32,16)"/>
<path d="M74 43h1v1h-1v-1z" fill="rgb(255,164,0)"/>
<path d="M36 44h3v2h-1v-1h-2v-1z" fill="rgb(16,16,16)"/>
<path d="M39 44h1v1h-1v-1z" fill="rgb(205,57,57)"/>
<path d="M40 44h3v1h2v-1h1v1h2v1h1v1h-4v1h1v3h-1v1h-1v-2h-1v-2h-1v-2h-1v-1h-1v-1z" fill="rgb(255,82,74)"/>
<path d="M44 44h1v1h-1v-1z" fill="rgb(148,32,16)"/>
<path d="M46 44h2v1h-2v-1z" fill="rgb(205,57,57)"/>
<path d="M48 44h1v1h-1v-1z" fill="rgb(148,32,16)"/>
<path d="M35 45h1v1h-1v-1z" fill="rgb(16,16,16)"/>
<path d="M36 45h2v1h-1v2h-1v1h-2v1h-1v1h-1v-1h-1v-2h2v-1h2v-1h1v-1z" fill="rgb(205,57,57)"/>
<path d="M39 45h2v1h1v2h1v3h1v3h-1v2h-1v2h-1v1h-1v1h-4v-1h-1v-5h1v-3h1v-2h1v-2h1v-2z" fill="rgb(230,205,172)"/>
<path d="M48 45h1v1h-1v-1z" fill="rgb(205,57,57)"/>
<path d="M49 45h1v1h-1v-1z" fill="rgb(148,32,16)"/>
<path d="M63 45h1v1h1v2h-1v-1h-1v-2z" fill="rgb(255,164,0)"/>
<path d="M70 45h1v1h-1v-1z" fill="rgb(255,164,0)"/>
<path d="M33 46h2v1h-2v-1z" fill="rgb(16,16,16)"/>
<path d="M37 46h1v2h-1v-2z" fill="rgb(16,16,16)"/>
<path d="M38 46h1v1h-1v-1z" fill="rgb(205,172,123)"/>
<path d="M49 46h1v1h1v1h2v1h-1v2h-1v-1h-1v-1h-2v-1h-1v-1h2v-1z" fill="rgb(205,57,57)"/>
<path d="M50 46h1v1h-1v-1z" fill="rgb(148,32,16)"/>
<path d="M68 46h2v1h-1v1h-1v1h-1v3h-1v1h1v2h-1v1h-1v-2h-1v2h-1v-2h-1v-2h1v-2h1v-1h2v-1h1
	v-1h1v-1z" fill="rgb(255,222,41)"/>
<path d="M31 47h2v1h-2v-1z" fill="rgb(16,16,16)"/>
<path d="M45 47h2v1h-2v-1z" fill="rgb(148,32,16)"/>
<path d="M51 47h2v1h-2v-1z" fill="rgb(148,32,16)"/>
<path d="M29 48h2v1h-2v-1z" fill="rgb(148,32,16)"/>
<path d="M36 48h1v3h-1v-1h-2v-1h2v-1z" fill="rgb(16,16,16)"/>
<path d="M37 48h1v1h-1v-1z" fill="rgb(205,172,123)"/>
<path d="M46 48h1v3h1v2h1v2h1v1h1v1h-1v3h1v1h1v1h1v-1h1v2h-1v3h-1v4h1v3h-3v1h-2v-2h1v-1
	h-3v-1h-1v-1h4v-1h1v-1h1v-5h-1v-1h-1v-1h-2v1h-1v-5h-1v-3h-1v-1h1v-1h1v-3z" fill="rgb(205,57,57)"/>
<path d="M47 48h1v1h2v1h-2v1h-1v-3z" fill="rgb(16,16,16)"/>
<path d="M53 48h1v1h-1v-1z" fill="rgb(148,32,16)"/>
<path d="M64 48h1v1h-1v-1z" fill="rgb(255,65,0)"/>
<path d="M65 48h1v1h-1v-1z" fill="rgb(255,164,0)"/>
<path d="M68 48h1v2h-2v-1h1v-1z" fill="rgb(255,164,0)"/>
<path d="M73 48h1v1h-1v-1z" fill="rgb(255,164,0)"/>
<path d="M74 48h1v1h-1v-1z" fill="rgb(255,222,41)"/>
<path d="M28 49h1v1h-1v-1z" fill="rgb(148,32,16)"/>
<path d="M29 49h2v1h1v2h-3v1h-1v-3h1v-1z" fill="rgb(255,82,74)"/>
<path d="M52 49h1v1h1v1h1v1h1v2h-1v1h-1v-2h-1v-1h-1v-3z" fill="rgb(255,82,74)"/>
<path d="M53 49h1v1h-1v-1z" fill="rgb(205,57,57)"/>
<path d="M54 49h1v1h-1v-1z" fill="rgb(148,32,16)"/>
<path d="M63 49h1v1h-1v-1z" fill="rgb(255,164,0)"/>
<path d="M71 49h1v1h-1v-1z" fill="rgb(255,164,0)"/>
<path d="M72 49h2v1h-1v1h-1v1h-1v4h-1v-4h-1v-1h-1v-1h2v1h1v-1h1v-1z" fill="rgb(255,222,41)"/>
<path d="M27 50h1v1h-1v-1z" fill="rgb(148,32,16)"/>
<path d="M33 50h1v1h-1v-1z" fill="rgb(16,16,16)"/>
<path d="M43 50h1v1h-1v-1z" fill="rgb(205,172,123)"/>
<path d="M48 50h2v1h1v3h-1v-1h-1v-2h-1v-1z" fill="transparent"/>
<path d="M50 50h1v1h-1v-1z" fill="rgb(16,16,16)"/>
<path d="M54 50h1v1h-1v-1z" fill="rgb(205,57,57)"/>
<path d="M55 50h1v1h-1v-1z" fill="rgb(16,16,16)"/>
<path d="M67 50h1v1h-1v-1z" fill="rgb(255,65,0)"/>
<path d="M70 50h1v1h-1v-1z" fill="rgb(255,164,0)"/>
<path d="M26 51h1v1h-1v-1z" fill="rgb(148,32,16)"/>
<path d="M27 51h1v1h-1v-1z" fill="rgb(255,131,106)"/>
<path d="M32 51h1v2h-1v-2z" fill="rgb(16,16,16)"/>
<path d="M35 51h1v3h-1v-3z" fill="rgb(16,16,16)"/>
<path d="M48 51h1v2h-1v-2z" fill="rgb(16,16,16)"/>
<path d="M51 51h1v3h-1v-3z" fill="rgb(16,16,16)"/>
<path d="M55 51h1v1h-1v-1z" fill="rgb(205,57,57)"/>
<path d="M56 51h1v2h-1v-2z" fill="rgb(16,16,16)"/>
<path d="M67 51h2v1h-2v-1z" fill="rgb(255,164,0)"/>
<path d="M72 51h1v1h-1v-1z" fill="rgb(255,164,0)"/>
<path d="M25 52h1v1h-1v-1z" fill="rgb(16,16,16)"/>
<path d="M26 52h2v1h2v1h-1v1h-1v3h-1v-3h-1v-3z" fill="rgb(205,57,57)"/>
<path d="M29 52h3v1h-1v1h-1v-1h-1v-1z" fill="rgb(255,131,106)"/>
<path d="M52 52h1v1h1v2h-1v1h-2v-2h1v-2z" fill="rgb(255,131,106)"/>
<path d="M66 52h1v1h-1v-1z" fill="rgb(255,164,0)"/>
<path d="M67 52h1v1h-1v-1z" fill="rgb(255,222,41)"/>
<path d="M71 52h1v2h-1v-2z" fill="rgb(255,164,0)"/>
<path d="M24 53h1v2h-1v-2z" fill="rgb(16,16,16)"/>
<path d="M25 53h1v1h-1v-1z" fill="rgb(148,32,16)"/>
<path d="M31 53h1v4h-1v-4z" fill="rgb(16,16,16)"/>
<path d="M44 53h1v1h-1v-1z" fill="rgb(205,172,123)"/>
<path d="M49 53h1v1h1v2h-1v-1h-1v-2z" fill="rgb(16,16,16)"/>
<path d="M56 53h1v2h-1v2h-1v3h-1v-2h-1v-1h-1v-1h1v-1h2v-1h1v-1z" fill="rgb(205,57,57)"/>
<path d="M57 53h1v4h-1v-4z" fill="rgb(16,16,16)"/>
<path d="M67 53h1v1h-1v-1z" fill="rgb(255,164,0)"/>
<path d="M25 54h1v1h-1v-1z" fill="rgb(180,180,180)"/>
<path d="M29 54h1v1h-1v-1z" fill="rgb(106,106,106)"/>
<path d="M30 54h1v2h-1v1h-1v-2h1v-1z" fill="rgb(255,255,255)"/>
<path d="M34 54h1v6h-1v-6z" fill="rgb(16,16,16)"/>
<path d="M43 54h1v2h-1v-2z" fill="rgb(205,172,123)"/>
<path d="M44 54h1v2h1v5h-1v1h-1v2h-1v3h-3v-1h-2v-1h-1v-1h-1v-2h-1v-2h1v1h3v-1h2v-1h1v-1
	h1v-2h1v-2z" fill="rgb(180,139,90)"/>
<path d="M62 54h1v1h-1v-1z" fill="rgb(255,164,0)"/>
<path d="M64 54h1v1h-1v-1z" fill="rgb(255,164,0)"/>
<path d="M67 54h1v1h-1v-1z" fill="rgb(255,65,0)"/>
<path d="M68 54h1v4h-1v2h-1v-2h-1v-1h1v-2h1v-1z" fill="rgb(148,32,16)"/>
<path d="M23 55h1v3h-1v-3z" fill="rgb(16,16,16)"/>
<path d="M24 55h1v1h-1v-1z" fill="rgb(180,180,180)"/>
<path d="M25 55h2v1h-1v1h-2v-1h1v-1z" fill="rgb(255,255,255)"/>
<path d="M28 55h1v1h-1v-1z" fill="rgb(106,106,106)"/>
<path d="M56 55h1v1h-1v-1z" fill="rgb(148,32,16)"/>
<path d="M64 55h1v1h2v1h-1v1h-1v-1h-1v-2z" fill="rgb(255,65,0)"/>
<path d="M66 55h1v1h-1v-1z" fill="rgb(255,164,0)"/>
<path d="M26 56h1v2h-2v-1h1v-1z" fill="rgb(16,16,16)"/>
<path d="M28 56h1v2h1v1h-2v-3z" fill="rgb(16,16,16)"/>
<path d="M30 56h1v1h-1v-1z" fill="rgb(180,180,180)"/>
<path d="M42 56h1v2h-1v-2z" fill="rgb(205,172,123)"/>
<path d="M51 56h1v1h-1v-1z" fill="rgb(16,16,16)"/>
<path d="M56 56h1v1h-1v-1z" fill="rgb(180,180,180)"/>
<path d="M63 56h1v1h-1v-1z" fill="rgb(255,164,0)"/>
<path d="M70 56h1v1h-1v-1z" fill="rgb(255,164,0)"/>
<path d="M24 57h1v1h-1v-1z" fill="rgb(180,180,180)"/>
<path d="M29 57h1v1h-1v-1z" fill="rgb(180,180,180)"/>
<path d="M30 57h1v1h-1v-1z" fill="rgb(16,16,16)"/>
<path d="M50 57h1v3h-1v-3z" fill="rgb(16,16,16)"/>
<path d="M51 57h1v1h1v2h-1v-1h-1v-2z" fill="rgb(255,255,255)"/>
<path d="M52 57h1v1h-1v-1z" fill="rgb(106,106,106)"/>
<path d="M55 57h2v1h1v1h-2v-1h-1v-1z" fill="rgb(255,255,255)"/>
<path d="M57 57h1v1h-1v-1z" fill="rgb(180,180,180)"/>
<path d="M58 57h1v4h-1v1h-1v-2h1v-3z" fill="rgb(16,16,16)"/>
<path d="M64 57h1v1h-1v-1z" fill="rgb(255,164,0)"/>
<path d="M24 58h1v2h-1v-2z" fill="rgb(16,16,16)"/>
<path d="M25 58h1v1h-1v-1z" fill="rgb(106,106,106)"/>
<path d="M26 58h1v3h-1v-1h-1v-1h1v-1z" fill="rgb(180,180,180)"/>
<path d="M27 58h1v1h-1v-1z" fill="rgb(106,106,106)"/>
<path d="M41 58h1v1h-1v-1z" fill="rgb(205,172,123)"/>
<path d="M53 58h1v1h-1v-1z" fill="rgb(106,106,106)"/>
<path d="M55 58h1v1h1v1h-2v-2z" fill="rgb(16,16,16)"/>
<path d="M65 58h1v1h-1v-1z" fill="rgb(148,32,16)"/>
<path d="M66 58h1v2h-1v1h-1v1h-2v1h-2v1h-3v1h-4v-2h1v1h1v-1h4v-1h2v-1h2v-1h1v-1h1v-1z" fill="rgb(255,82,74)"/>
<path d="M68 58h1v1h-1v-1z" fill="rgb(255,131,106)"/>
<path d="M27 59h1v2h-1v-2z" fill="rgb(16,16,16)"/>
<path d="M33 59h1v1h-1v-1z" fill="rgb(148,32,16)"/>
<path d="M35 59h1v1h-1v-1z" fill="rgb(205,172,123)"/>
<path d="M40 59h1v1h-1v-1z" fill="rgb(205,172,123)"/>
<path d="M51 59h1v1h-1v-1z" fill="rgb(180,180,180)"/>
<path d="M53 59h1v2h-1v-2z" fill="rgb(16,16,16)"/>
<path d="M57 59h1v1h-1v-1z" fill="rgb(180,180,180)"/>
<path d="M64 59h1v1h-1v-1z" fill="rgb(148,32,16)"/>
<path d="M25 60h1v1h-1v-1z" fill="rgb(16,16,16)"/>
<path d="M32 60h1v1h-1v-1z" fill="rgb(148,32,16)"/>
<path d="M33 60h1v2h1v2h-1v1h-2v-1h1v-1h-1v-1h1v-2z" fill="rgb(255,82,74)"/>
<path d="M34 60h1v2h-1v-2z" fill="rgb(148,32,16)"/>
<path d="M36 60h3v1h-3v-1z" fill="rgb(205,172,123)"/>
<path d="M47 60h2v1h1v1h1v5h-1v-1h-1v2h-1v1h-3v-1h-1v-2h2v-1h1v-1h-1v-1h-1v-1h1v-1h1v-1z" fill="rgb(255,82,74)"/>
<path d="M51 60h1v1h-1v-1z" fill="rgb(16,16,16)"/>
<path d="M52 60h1v1h-1v-1z" fill="rgb(180,180,180)"/>
<path d="M54 60h1v1h-1v-1z" fill="rgb(106,106,106)"/>
<path d="M55 60h1v1h1v1h-1v1h-1v-3z" fill="rgb(255,255,255)"/>
<path d="M56 60h1v1h-1v-1z" fill="rgb(106,106,106)"/>
<path d="M62 60h2v1h-2v-1z" fill="rgb(148,32,16)"/>
<path d="M66 60h1v2h-1v-2z" fill="rgb(148,32,16)"/>
<path d="M26 61h1v1h-1v-1z" fill="rgb(16,16,16)"/>
<path d="M31 61h1v1h-1v-1z" fill="rgb(148,32,16)"/>
<path d="M32 61h1v1h-1v-1z" fill="rgb(255,131,106)"/>
<path d="M45 61h1v1h-1v-1z" fill="rgb(148,32,16)"/>
<path d="M52 61h1v1h-1v-1z" fill="rgb(16,16,16)"/>
<path d="M54 61h1v2h-1v-2z" fill="rgb(16,16,16)"/>
<path d="M60 61h2v1h-2v-1z" fill="rgb(148,32,16)"/>
<path d="M65 61h1v1h-1v-1z" fill="rgb(205,57,57)"/>
<path d="M30 62h1v1h-1v-1z" fill="rgb(148,32,16)"/>
<path d="M31 62h1v1h-1v-1z" fill="rgb(255,131,106)"/>
<path d="M35 62h1v2h-1v-2z" fill="rgb(148,32,16)"/>
<path d="M44 62h1v2h-1v-2z" fill="rgb(148,32,16)"/>
<path d="M56 62h1v1h-1v-1z" fill="rgb(16,16,16)"/>
<path d="M57 62h3v1h-3v-1z" fill="rgb(148,32,16)"/>
<path d="M63 62h2v1h-2v-1z" fill="rgb(205,57,57)"/>
<path d="M65 62h1v1h-1v-1z" fill="rgb(148,32,16)"/>
<path d="M29 63h1v3h-1v-3z" fill="rgb(16,16,16)"/>
<path d="M30 63h2v1h-1v1h-1v-2z" fill="rgb(255,82,74)"/>
<path d="M32 63h1v1h-1v-1z" fill="rgb(205,57,57)"/>
<path d="M45 63h1v1h1v1h-1v1h-2v-2h1v-1z" fill="rgb(255,131,106)"/>
<path d="M53 63h1v3h-1v-3z" fill="rgb(16,16,16)"/>
<path d="M55 63h1v1h-1v-1z" fill="rgb(16,16,16)"/>
<path d="M61 63h2v1h-1v1h-1v1h-3v1h-5v-1h1v-1h4v-1h3v-1z" fill="rgb(205,57,57)"/>
<path d="M63 63h1v1h-1v-1z" fill="rgb(180,139,90)"/>
<path d="M64 63h1v1h-1v-1z" fill="rgb(148,32,16)"/>
<path d="M31 64h1v1h2v-1h2v1h1v1h1v1h-1v1h1v1h1v1h-1v1h-2v1h-2v1h-1v-1h-1v-1h2v-1h-1v-2
	h-1v-1h-1v-1h-1v-1h1v-1z" fill="rgb(205,57,57)"/>
<path d="M36 64h1v1h-1v-1z" fill="rgb(148,32,16)"/>
<path d="M43 64h1v2h-1v-2z" fill="rgb(148,32,16)"/>
<path d="M62 64h1v1h-1v-1z" fill="rgb(180,139,90)"/>
<path d="M63 64h1v1h-1v-1z" fill="rgb(148,32,16)"/>
<path d="M37 65h1v1h-1v-1z" fill="rgb(16,16,16)"/>
<path d="M61 65h1v1h-1v-1z" fill="rgb(180,139,90)"/>
<path d="M62 65h1v1h-1v-1z" fill="rgb(16,16,16)"/>
<path d="M30 66h1v1h-1v-1z" fill="rgb(16,16,16)"/>
<path d="M38 66h2v1h-2v-1z" fill="rgb(16,16,16)"/>
<path d="M43 66h1v3h-1v-1h-3v-1h3v-1z" fill="rgb(16,16,16)"/>
<path d="M49 66h1v2h-1v-2z" fill="rgb(148,32,16)"/>
<path d="M52 66h1v3h4v1h-3v4h-1v-4h-1v-4z" fill="rgb(16,16,16)"/>
<path d="M58 66h3v1h-2v1h-2v1h-4v-2h5v-1z" fill="rgb(180,139,90)"/>
<path d="M61 66h1v1h-1v-1z" fill="rgb(16,16,16)"/>
<path d="M31 67h1v1h-1v-1z" fill="rgb(16,16,16)"/>
<path d="M37 67h1v1h-1v-1z" fill="rgb(16,16,16)"/>
<path d="M59 67h2v1h-2v-1z" fill="rgb(16,16,16)"/>
<path d="M31 68h1v1h-1v-1z" fill="rgb(148,32,16)"/>
<path d="M32 68h1v1h-1v-1z" fill="rgb(16,16,16)"/>
<path d="M38 68h1v1h-1v-1z" fill="rgb(16,16,16)"/>
<path d="M44 68h1v1h-1v-1z" fill="rgb(205,57,57)"/>
<path d="M48 68h1v1h-1v-1z" fill="rgb(148,32,16)"/>
<path d="M57 68h2v1h-2v-1z" fill="rgb(16,16,16)"/>
<path d="M30 69h1v1h-1v-1z" fill="rgb(16,16,16)"/>
<path d="M31 69h2v1h1v1h-4v-1h1v-1z" fill="rgb(255,82,74)"/>
<path d="M39 69h1v2h-1v-2z" fill="rgb(16,16,16)"/>
<path d="M44 69h1v1h-1v-1z" fill="rgb(16,16,16)"/>
<path d="M28 70h2v1h1v1h-1v1h4v1h-5v-1h-2v-2h1v-1z" fill="rgb(16,16,16)"/>
<path d="M38 70h1v1h-1v-1z" fill="rgb(148,32,16)"/>
<path d="M45 70h1v2h-1v-2z" fill="rgb(16,16,16)"/>
<path d="M28 71h1v1h-1v-1z" fill="rgb(255,255,255)"/>
<path d="M31 71h1v2h-2v-1h1v-1z" fill="rgb(255,255,255)"/>
<path d="M36 71h3v1h-3v-1z" fill="rgb(16,16,16)"/>
<path d="M46 71h3v1h-1v1h-2v-2z" fill="rgb(255,82,74)"/>
<path d="M32 72h1v1h-1v-1z" fill="rgb(106,106,106)"/>
<path d="M34 72h2v1h-2v-1z" fill="rgb(16,16,16)"/>
<path d="M44 72h1v1h-1v-1z" fill="rgb(16,16,16)"/>
<path d="M45 72h1v1h1v1h-2v-2z" fill="rgb(205,57,57)"/>
<path d="M43 73h1v3h-1v-3z" fill="rgb(16,16,16)"/>
<path d="M44 73h1v1h-1v-1z" fill="rgb(180,180,180)"/>
<path d="M47 73h1v1h-1v-1z" fill="rgb(180,180,180)"/>
<path d="M50 73h2v1h-2v-1z" fill="rgb(180,180,180)"/>
<path d="M52 73h1v1h-1v-1z" fill="rgb(148,32,16)"/>
<path d="M44 74h1v2h-1v-2z" fill="rgb(255,255,255)"/>
<path d="M45 74h1v1h-1v-1z" fill="rgb(180,180,180)"/>
<path d="M46 74h1v1h-1v-1z" fill="rgb(148,32,16)"/>
<path d="M47 74h1v3h-1v-3z" fill="rgb(255,255,255)"/>
<path d="M48 74h1v1h-1v-1z" fill="rgb(180,180,180)"/>
<path d="M49 74h1v1h-1v-1z" fill="rgb(148,32,16)"/>
<path d="M50 74h2v2h-1v-1h-1v-1z" fill="rgb(255,255,255)"/>
<path d="M52 74h1v2h-1v-2z" fill="rgb(16,16,16)"/>
<path d="M45 75h2v2h-1v-1h-1v-1z" fill="rgb(16,16,16)"/>
<path d="M48 75h1v1h-1v-1z" fill="rgb(106,106,106)"/>
<path d="M49 75h2v1h-1v1h-2v-1h1v-1z" fill="rgb(16,16,16)"/>
<path d="M44 76h1v1h-1v-1z" fill="rgb(16,16,16)"/>
<path d="M51 76h1v1h-1v-1z" fill="rgb(16,16,16)"/>
<path d="M47 77h1v1h-1v-1z" fill="rgb(16,16,16)"/>
</svg>
