<?xml version="1.0" encoding="utf-8"?>
<!-- generated at drububu.com  -->
<!DOCTYPE svg PUBLIC "-//W3C//DTD SVG 1.1//EN" "http://www.w3.org/Graphics/SVG/1.1/DTD/svg11.dtd">
<svg version="1.1" preserveAspectRatio="xMinYMin meet" xmlns="http://www.w3.org/2000/svg" xmlns:xlink="http://www.w3.org/1999/xlink" x="0px" y="0px" width="96px" height="96px" viewBox="0 0 96 96">
<path d="M0 0h96v96h-96v-96z" fill="transparent"/>
<path d="M44 37h1v1h-1v-1z" fill="rgb(197,115,65)"/>
<path d="M45 37h1v1h-1v-1z" fill="rgb(164,90,90)"/>
<path d="M46 37h4v1h-4v-1z" fill="rgb(90,49,24)"/>
<path d="M42 38h2v1h-2v-1z" fill="rgb(164,90,90)"/>
<path d="M44 38h2v1h1v2h-1v1h-4v-1h-1v-1h1v-1h2v-1z" fill="rgb(222,156,90)"/>
<path d="M46 38h4v1h1v1h1v1h1v1h-1v1h1v1h-1v1h1v1h-1v1h-1v1h1v1h-1v1h-1v1h-1v1h-1v-4h-1
	v-1h-1v-1h-5v1h-1v3h-1v-6h1v-3h2v4h1v-3h3v-1h1v-2h-1v-1z" fill="rgb(197,115,65)"/>
<path d="M50 38h2v1h-2v-1z" fill="rgb(90,49,24)"/>
<path d="M41 39h1v1h-1v-1z" fill="rgb(164,90,90)"/>
<path d="M51 39h1v1h-1v-1z" fill="rgb(164,90,90)"/>
<path d="M52 39h1v1h-1v-1z" fill="rgb(16,16,16)"/>
<path d="M40 40h1v1h-1v-1z" fill="rgb(164,90,90)"/>
<path d="M52 40h1v1h-1v-1z" fill="rgb(164,90,90)"/>
<path d="M53 40h1v1h-1v-1z" fill="rgb(16,16,16)"/>
<path d="M39 41h1v1h-1v-1z" fill="rgb(164,90,90)"/>
<path d="M53 41h1v1h-1v-1z" fill="rgb(90,49,24)"/>
<path d="M39 42h1v2h-1v-2z" fill="rgb(90,49,24)"/>
<path d="M42 42h1v1h-1v-1z" fill="rgb(255,255,255)"/>
<path d="M46 42h1v1h-1v-1z" fill="rgb(255,255,255)"/>
<path d="M52 42h1v1h-1v-1z" fill="rgb(164,90,90)"/>
<path d="M53 42h1v1h-1v-1z" fill="rgb(197,115,65)"/>
<path d="M54 42h1v2h-1v-2z" fill="rgb(16,16,16)"/>
<path d="M42 43h1v2h-1v-2z" fill="rgb(16,16,16)"/>
<path d="M46 43h1v2h-1v-2z" fill="rgb(16,16,16)"/>
<path d="M53 43h1v1h-1v-1z" fill="rgb(164,90,90)"/>
<path d="M38 44h1v1h-1v-1z" fill="rgb(164,90,90)"/>
<path d="M52 44h1v1h-1v-1z" fill="rgb(164,90,90)"/>
<path d="M53 44h1v1h-1v-1z" fill="rgb(197,115,65)"/>
<path d="M54 44h1v9h-2v1h-1v1h-1v1h-4v1h-1v-1h-4v-1h-1v-1h-2v-4h1v1h1v1h1v-1h5v-1h1v2h1
	v-1h1v-1h1v-1h1v-1h1v-1h1v-1h-1v-1h1v-1z" fill="rgb(164,90,90)"/>
<path d="M55 44h1v10h-2v-1h1v-9z" fill="rgb(16,16,16)"/>
<path d="M38 45h1v9h-1v-9z" fill="rgb(16,16,16)"/>
<path d="M41 46h1v1h-1v-1z" fill="rgb(213,57,74)"/>
<path d="M42 46h4v1h-4v-1z" fill="rgb(115,0,24)"/>
<path d="M52 46h1v1h-1v-1z" fill="rgb(164,90,90)"/>
<path d="M53 46h1v1h-1v-1z" fill="rgb(197,115,65)"/>
<path d="M40 47h1v1h-1v-1z" fill="rgb(213,57,74)"/>
<path d="M41 47h2v2h-2v-2z" fill="rgb(255,172,148)"/>
<path d="M43 47h2v2h-2v-2z" fill="rgb(255,106,90)"/>
<path d="M45 47h1v1h1v1h-1v1h-3v-1h2v-2z" fill="rgb(213,57,74)"/>
<path d="M46 47h1v1h-1v-1z" fill="rgb(115,0,24)"/>
<path d="M51 47h1v1h-1v-1z" fill="rgb(164,90,90)"/>
<path d="M52 47h1v1h-1v-1z" fill="rgb(197,115,65)"/>
<path d="M40 48h1v2h-1v-2z" fill="rgb(115,0,24)"/>
<path d="M47 48h1v2h-1v1h-1v-2h1v-1z" fill="rgb(115,0,24)"/>
<path d="M41 49h1v1h-1v-1z" fill="rgb(213,57,74)"/>
<path d="M42 49h1v1h-1v-1z" fill="rgb(255,106,90)"/>
<path d="M52 49h1v1h-1v-1z" fill="rgb(197,115,65)"/>
<path d="M56 49h3v1h-2v2h1v1h2v1h-1v1h-1v-1h-1v1h-1v-6z" fill="rgb(90,82,32)"/>
<path d="M36 50h2v1h-2v-1z" fill="rgb(90,82,32)"/>
<path d="M40 50h1v1h-1v-1z" fill="rgb(197,115,65)"/>
<path d="M41 50h1v1h-1v-1z" fill="rgb(115,0,24)"/>
<path d="M42 50h4v1h-4v-1z" fill="rgb(16,16,16)"/>
<path d="M57 50h2v1h1v1h-3v-2z" fill="rgb(180,172,115)"/>
<path d="M59 50h1v1h-1v-1z" fill="rgb(90,82,32)"/>
<path d="M35 51h1v1h-1v-1z" fill="rgb(131,123,74)"/>
<path d="M36 51h2v2h-3v-1h1v-1z" fill="rgb(180,172,115)"/>
<path d="M41 51h1v1h-1v-1z" fill="rgb(197,115,65)"/>
<path d="M60 51h4v1h-3v1h-1v-2z" fill="rgb(90,82,32)"/>
<path d="M34 52h1v1h1v1h-1v1h-1v-3z" fill="rgb(131,123,74)"/>
<path d="M42 52h5v1h-5v-1z" fill="rgb(197,115,65)"/>
<path d="M58 52h2v1h-2v-1z" fill="rgb(131,123,74)"/>
<path d="M61 52h3v1h-1v2h-1v1h-2v-3h1v-1z" fill="rgb(180,172,115)"/>
<path d="M64 52h2v1h-2v-1z" fill="rgb(90,82,32)"/>
<path d="M36 53h2v1h-2v-1z" fill="rgb(90,82,32)"/>
<path d="M53 53h1v1h-1v-1z" fill="rgb(90,82,32)"/>
<path d="M63 53h3v4h-1v-1h-2v1h-2v-1h1v-1h1v-2z" fill="rgb(131,123,74)"/>
<path d="M66 53h1v1h-1v-1z" fill="rgb(90,82,32)"/>
<path d="M35 54h3v3h-1v1h-2v-1h-1v-2h1v-1z" fill="rgb(230,230,180)"/>
<path d="M38 54h1v1h-1v-1z" fill="rgb(90,82,32)"/>
<path d="M39 54h2v1h-2v-1z" fill="rgb(16,16,16)"/>
<path d="M52 54h1v1h-1v-1z" fill="rgb(90,82,32)"/>
<path d="M53 54h2v4h-2v1h-1v-1h-1v-2h1v-1h1v-1z" fill="rgb(180,172,115)"/>
<path d="M55 54h1v1h1v1h1v3h-3v1h-3v-1h1v-1h2v-4z" fill="rgb(131,123,74)"/>
<path d="M57 54h1v1h-1v-1z" fill="rgb(16,16,16)"/>
<path d="M59 54h1v2h-1v-2z" fill="rgb(131,123,74)"/>
<path d="M66 54h1v2h-1v-2z" fill="rgb(16,16,16)"/>
<path d="M32 55h1v2h-2v-1h1v-1z" fill="rgb(90,82,32)"/>
<path d="M33 55h1v2h-1v-2z" fill="rgb(131,123,74)"/>
<path d="M38 55h1v1h1v1h-1v1h-2v-1h1v-2z" fill="rgb(180,172,115)"/>
<path d="M39 55h2v1h-2v-1z" fill="rgb(131,123,74)"/>
<path d="M41 55h1v2h-1v-2z" fill="rgb(16,16,16)"/>
<path d="M51 55h1v1h-1v-1z" fill="rgb(16,16,16)"/>
<path d="M57 55h1v1h-1v-1z" fill="rgb(90,82,32)"/>
<path d="M58 55h1v3h-1v-3z" fill="rgb(16,16,16)"/>
<path d="M67 55h2v1h-2v-1z" fill="rgb(90,82,32)"/>
<path d="M40 56h1v1h-1v-1z" fill="rgb(90,82,32)"/>
<path d="M42 56h1v1h-1v-1z" fill="rgb(131,123,74)"/>
<path d="M43 56h3v1h-3v-1z" fill="rgb(90,82,32)"/>
<path d="M47 56h1v1h-1v-1z" fill="rgb(90,82,32)"/>
<path d="M48 56h3v2h-1v-1h-2v-1z" fill="rgb(16,16,16)"/>
<path d="M59 56h2v2h-1v-1h-1v-1z" fill="rgb(90,82,32)"/>
<path d="M63 56h2v1h-2v-1z" fill="rgb(16,16,16)"/>
<path d="M66 56h2v1h-2v-1z" fill="rgb(180,172,115)"/>
<path d="M31 57h3v1h3v1h1v1h-2v-1h-1v1h-1v-1h-1v-1h-2v-1z" fill="rgb(180,172,115)"/>
<path d="M34 57h1v1h-1v-1z" fill="rgb(131,123,74)"/>
<path d="M39 57h1v1h-1v-1z" fill="rgb(131,123,74)"/>
<path d="M40 57h1v1h-1v-1z" fill="rgb(16,16,16)"/>
<path d="M41 57h1v1h-1v-1z" fill="rgb(131,123,74)"/>
<path d="M42 57h3v1h-1v1h-2v-2z" fill="rgb(230,230,180)"/>
<path d="M45 57h1v2h-1v1h1v1h3v1h-1v1h-1v-1h-1v1h-1v-1h-1v-1h-1v1h-1v-1h-2v-2h1v-1h1v1h2
	v-1h1v-1z" fill="rgb(180,172,115)"/>
<path d="M46 57h1v3h-1v-3z" fill="rgb(16,16,16)"/>
<path d="M47 57h2v1h-1v1h-1v-2z" fill="rgb(180,172,115)"/>
<path d="M49 57h1v1h1v2h-1v1h-4v-1h1v-1h1v-1h1v-1z" fill="rgb(131,123,74)"/>
<path d="M59 57h1v1h4v1h-1v1h-1v-1h-1v1h-1v1h-1v-1h-1v-1h1v-2z" fill="rgb(180,172,115)"/>
<path d="M61 57h2v1h-2v-1z" fill="rgb(16,16,16)"/>
<path d="M63 57h1v1h-1v-1z" fill="rgb(131,123,74)"/>
<path d="M64 57h2v1h-2v-1z" fill="rgb(180,172,115)"/>
<path d="M37 58h2v2h-1v-1h-1v-1z" fill="rgb(131,123,74)"/>
<path d="M39 58h1v2h-1v-2z" fill="rgb(16,16,16)"/>
<path d="M40 58h1v1h-1v-1z" fill="rgb(131,123,74)"/>
<path d="M51 58h1v1h-1v-1z" fill="rgb(90,82,32)"/>
<path d="M58 58h1v1h-1v-1z" fill="rgb(90,82,32)"/>
<path d="M32 59h1v1h-1v-1z" fill="rgb(180,172,115)"/>
<path d="M33 59h1v1h-1v-1z" fill="transparent"/>
<path d="M35 59h1v1h-1v-1z" fill="transparent"/>
<path d="M45 59h1v1h-1v-1z" fill="rgb(131,123,74)"/>
<path d="M51 59h1v1h-1v-1z" fill="rgb(16,16,16)"/>
<path d="M55 59h1v1h-1v-1z" fill="rgb(90,82,32)"/>
<path d="M56 59h1v1h-1v-1z" fill="rgb(16,16,16)"/>
<path d="M57 59h1v1h-1v-1z" fill="rgb(90,82,32)"/>
<path d="M61 59h1v1h-1v-1z" fill="transparent"/>
<path d="M63 59h1v1h-1v-1z" fill="transparent"/>
<path d="M64 59h1v1h-1v-1z" fill="rgb(180,172,115)"/>
<path d="M33 60h1v1h-1v-1z" fill="rgb(180,172,115)"/>
<path d="M35 60h1v1h-1v-1z" fill="rgb(180,172,115)"/>
<path d="M38 60h1v1h-1v-1z" fill="rgb(180,172,115)"/>
<path d="M39 60h1v1h-1v-1z" fill="rgb(131,123,74)"/>
<path d="M50 60h1v1h-1v-1z" fill="rgb(90,82,32)"/>
<path d="M51 60h1v1h-1v-1z" fill="rgb(131,123,74)"/>
<path d="M52 60h6v1h-1v1h-1v-1h-1v1h-1v-1h-2v-1z" fill="rgb(180,172,115)"/>
<path d="M58 60h1v1h-1v-1z" fill="transparent"/>
<path d="M61 60h1v1h-1v-1z" fill="rgb(180,172,115)"/>
<path d="M62 60h1v1h-1v-1z" fill="transparent"/>
<path d="M63 60h1v1h-1v-1z" fill="rgb(180,172,115)"/>
<path d="M37 61h1v1h-1v-1z" fill="rgb(180,172,115)"/>
<path d="M39 61h1v1h-1v-1z" fill="rgb(180,172,115)"/>
<path d="M43 61h1v1h-1v-1z" fill="transparent"/>
<path d="M49 61h1v1h-1v-1z" fill="transparent"/>
<path d="M50 61h1v1h-1v-1z" fill="rgb(180,172,115)"/>
<path d="M58 61h1v1h-1v-1z" fill="rgb(180,172,115)"/>
<path d="M62 61h1v1h-1v-1z" fill="rgb(180,172,115)"/>
<path d="M41 62h1v1h-1v-1z" fill="rgb(180,172,115)"/>
<path d="M43 62h1v1h-1v-1z" fill="rgb(180,172,115)"/>
<path d="M44 62h1v1h-1v-1z" fill="transparent"/>
<path d="M46 62h1v1h-1v-1z" fill="transparent"/>
<path d="M49 62h1v1h-1v-1z" fill="rgb(180,172,115)"/>
<path d="M51 62h1v1h-1v-1z" fill="rgb(180,172,115)"/>
<path d="M44 63h1v1h-1v-1z" fill="rgb(180,172,115)"/>
<path d="M46 63h1v1h-1v-1z" fill="rgb(180,172,115)"/>
</svg>
