<?xml version="1.0" encoding="utf-8"?>
<!-- generated at drububu.com  -->
<!DOCTYPE svg PUBLIC "-//W3C//DTD SVG 1.1//EN" "http://www.w3.org/Graphics/SVG/1.1/DTD/svg11.dtd">
<svg version="1.1" preserveAspectRatio="xMinYMin meet" xmlns="http://www.w3.org/2000/svg" xmlns:xlink="http://www.w3.org/1999/xlink" x="0px" y="0px" width="96px" height="96px" viewBox="0 0 96 96">
<path d="M0 0h96v96h-96v-96z" fill="transparent"/>
<path d="M47 28h3v1h-3v-1z" fill="rgb(164,90,90)"/>
<path d="M50 28h3v1h-3v-1z" fill="rgb(90,49,24)"/>
<path d="M45 29h2v1h-1v1h-2v-1h1v-1z" fill="rgb(90,49,24)"/>
<path d="M47 29h6v1h1v2h-1v1h-1v1h-3v-2h-1v2h-2v-1h-1v-1h-1v-1h2v-1h1v-1z" fill="rgb(222,156,90)"/>
<path d="M53 29h2v1h-2v-1z" fill="rgb(90,49,24)"/>
<path d="M54 30h1v1h1v1h1v2h-1v1h-1v3h-1v2h-1v1h-2v1h-1v1h-1v1h-2v1h-1v2h-2v-1h-1v-1h-1
	v-5h5v-1h1v-3h-1v-1h-4v-2h1v-1h1v1h1v1h2v1h1v-1h3v-1h1v-1h1v-2z" fill="rgb(197,115,65)"/>
<path d="M55 30h1v1h-1v-1z" fill="rgb(90,49,24)"/>
<path d="M43 31h1v2h-1v-2z" fill="rgb(16,16,16)"/>
<path d="M56 31h1v1h-1v-1z" fill="rgb(90,49,24)"/>
<path d="M48 32h1v1h-1v-1z" fill="rgb(255,255,255)"/>
<path d="M57 32h1v2h-1v-2z" fill="rgb(90,49,24)"/>
<path d="M42 33h1v2h-1v-2z" fill="rgb(90,49,24)"/>
<path d="M48 33h1v2h-1v-2z" fill="rgb(16,16,16)"/>
<path d="M56 34h2v6h-4v-2h1v-3h1v-1z" fill="rgb(164,90,90)"/>
<path d="M58 34h1v7h-6v-1h5v-6z" fill="rgb(90,49,24)"/>
<path d="M41 35h6v1h1v1h-2v-1h-5v-1z" fill="rgb(115,0,24)"/>
<path d="M40 36h1v1h-1v-1z" fill="rgb(115,0,24)"/>
<path d="M41 36h1v2h3v-1h2v1h-1v1h-5v-3z" fill="rgb(213,57,74)"/>
<path d="M42 36h3v1h-3v-1z" fill="rgb(255,172,148)"/>
<path d="M45 36h1v1h-1v-1z" fill="rgb(255,106,90)"/>
<path d="M40 37h1v1h-1v-1z" fill="rgb(16,16,16)"/>
<path d="M42 37h3v1h-3v-1z" fill="rgb(255,106,90)"/>
<path d="M47 37h1v1h-1v-1z" fill="rgb(16,16,16)"/>
<path d="M40 38h1v1h-1v-1z" fill="rgb(115,0,24)"/>
<path d="M46 38h2v1h-1v1h-1v-2z" fill="rgb(115,0,24)"/>
<path d="M41 39h1v1h-1v-1z" fill="rgb(115,0,24)"/>
<path d="M42 39h4v1h-4v-1z" fill="rgb(16,16,16)"/>
<path d="M41 40h1v1h-1v-1z" fill="rgb(90,49,24)"/>
<path d="M41 41h1v3h-1v-3z" fill="rgb(16,16,16)"/>
<path d="M51 41h2v1h-2v-1z" fill="rgb(90,49,24)"/>
<path d="M53 41h6v1h1v1h-2v1h-2v1h1v2h-4v-2h1v-1h-1v-1h-1v3h-1v-1h-1v-2h1v-1h2v-1z" fill="rgb(222,156,90)"/>
<path d="M59 41h2v1h-2v-1z" fill="rgb(90,49,24)"/>
<path d="M50 42h1v1h-1v-1z" fill="rgb(90,49,24)"/>
<path d="M60 42h1v1h-1v-1z" fill="rgb(197,115,65)"/>
<path d="M61 42h1v2h-1v-2z" fill="rgb(90,49,24)"/>
<path d="M34 43h3v1h-3v-1z" fill="rgb(164,90,90)"/>
<path d="M37 43h3v1h-3v-1z" fill="rgb(90,49,24)"/>
<path d="M49 43h1v2h-1v-2z" fill="rgb(90,49,24)"/>
<path d="M52 43h1v1h-1v-1z" fill="rgb(90,49,24)"/>
<path d="M58 43h2v1h-2v-1z" fill="rgb(90,49,24)"/>
<path d="M60 43h1v1h1v1h-1v1h-2v1h-1v-2h1v-1h1v-1z" fill="rgb(222,156,90)"/>
<path d="M32 44h2v1h-2v-1z" fill="rgb(164,90,90)"/>
<path d="M34 44h6v1h1v1h1v3h-1v1h-2v1h-1v-3h-1v1h-1v1h1v1h-4v-1h1v-1h-1v-1h-1v-1h-1v-1h1
	v-1h2v-1z" fill="rgb(222,156,90)"/>
<path d="M40 44h2v1h-2v-1z" fill="rgb(90,49,24)"/>
<path d="M47 44h2v1h-1v3h-1v4h-1v-1h-1v-3h-1v-1h2v-2h1v-1z" fill="rgb(164,90,90)"/>
<path d="M52 44h1v1h-1v-1z" fill="rgb(255,255,255)"/>
<path d="M53 44h1v1h-1v-1z" fill="rgb(90,49,24)"/>
<path d="M56 44h2v1h-2v-1z" fill="rgb(90,49,24)"/>
<path d="M58 44h1v1h-1v-1z" fill="rgb(197,115,65)"/>
<path d="M62 44h1v2h-1v-2z" fill="rgb(90,49,24)"/>
<path d="M31 45h1v1h-1v-1z" fill="rgb(164,90,90)"/>
<path d="M41 45h1v1h-1v-1z" fill="rgb(197,115,65)"/>
<path d="M42 45h1v1h-1v-1z" fill="rgb(90,49,24)"/>
<path d="M48 45h1v3h-1v-3z" fill="rgb(90,49,24)"/>
<path d="M49 45h2v1h1v1h5v1h-5v1h-1v3h1v1h5v-1h1v-3h-1v-1h1v-1h1v-1h2v-1h1v6h-1v3h-1v1
	h-2v1h-6v-1h-2v-2h-1v-2h-1v-3h1v-3z" fill="rgb(197,115,65)"/>
<path d="M52 45h1v2h-1v-2z" fill="rgb(16,16,16)"/>
<path d="M57 45h1v1h-1v-1z" fill="rgb(255,255,255)"/>
<path d="M30 46h1v2h-1v-2z" fill="rgb(164,90,90)"/>
<path d="M42 46h1v2h1v2h-1v3h-1v2h-1v1h-1v1h-2v1h-5v-1h4v-1h1v-3h-1v-1h1v-1h1v-1h2v-1h1
	v-3z" fill="rgb(197,115,65)"/>
<path d="M43 46h1v2h-1v-2z" fill="rgb(90,49,24)"/>
<path d="M57 46h1v2h-1v-2z" fill="rgb(16,16,16)"/>
<path d="M62 46h1v9h-1v3h-4v1h-1v1h-4v1h-2v-1h-1v-1h-1v-1h-2v-3h1v-4h1v2h1v2h2v1h6v-1h2
	v-1h1v-3h1v-5z" fill="rgb(164,90,90)"/>
<path d="M63 46h1v4h-1v-4z" fill="rgb(90,49,24)"/>
<path d="M31 47h1v1h-1v-1z" fill="rgb(90,49,24)"/>
<path d="M38 47h1v1h-1v-1z" fill="rgb(90,49,24)"/>
<path d="M29 48h1v3h-1v-3z" fill="rgb(164,90,90)"/>
<path d="M30 48h2v2h-1v-1h-1v-1z" fill="rgb(222,156,90)"/>
<path d="M32 48h1v1h-1v-1z" fill="rgb(90,49,24)"/>
<path d="M37 48h1v1h-1v-1z" fill="rgb(90,49,24)"/>
<path d="M44 48h1v3h-1v-3z" fill="rgb(90,49,24)"/>
<path d="M47 48h1v3h-1v-3z" fill="rgb(90,49,24)"/>
<path d="M52 48h5v1h1v1h-2v-1h-4v-1z" fill="rgb(115,0,24)"/>
<path d="M30 49h1v1h1v3h-1v3h-1v-7z" fill="rgb(197,115,65)"/>
<path d="M32 49h1v1h-1v-1z" fill="rgb(255,255,255)"/>
<path d="M33 49h1v1h-1v-1z" fill="rgb(90,49,24)"/>
<path d="M36 49h1v1h-1v-1z" fill="rgb(90,49,24)"/>
<path d="M37 49h1v1h-1v-1z" fill="rgb(255,255,255)"/>
<path d="M51 49h1v1h-1v-1z" fill="rgb(115,0,24)"/>
<path d="M52 49h2v1h-2v-1z" fill="rgb(255,172,148)"/>
<path d="M54 49h2v2h-4v-1h2v-1z" fill="rgb(255,106,90)"/>
<path d="M32 50h1v2h-1v-2z" fill="rgb(16,16,16)"/>
<path d="M37 50h1v2h-1v-2z" fill="rgb(16,16,16)"/>
<path d="M43 50h1v1h1v6h1v1h-1v1h-1v1h-6v-1h-1v-1h1v-1h2v-1h1v-1h1v-2h1v-3z" fill="rgb(164,90,90)"/>
<path d="M51 50h1v1h-1v-1z" fill="rgb(213,57,74)"/>
<path d="M56 50h1v1h-1v-1z" fill="rgb(213,57,74)"/>
<path d="M57 50h1v1h-1v-1z" fill="rgb(16,16,16)"/>
<path d="M63 50h1v5h-1v-5z" fill="rgb(16,16,16)"/>
<path d="M29 51h1v2h-1v-2z" fill="rgb(90,49,24)"/>
<path d="M33 51h4v1h-4v-1z" fill="rgb(197,115,65)"/>
<path d="M45 51h1v3h1v4h-1v-2h-1v-5z" fill="rgb(16,16,16)"/>
<path d="M47 51h1v3h-1v-3z" fill="rgb(16,16,16)"/>
<path d="M51 51h1v1h-1v-1z" fill="rgb(115,0,24)"/>
<path d="M52 51h4v1h-4v-1z" fill="rgb(213,57,74)"/>
<path d="M56 51h2v1h-1v1h-1v-2z" fill="rgb(115,0,24)"/>
<path d="M32 52h5v1h1v1h-2v-1h-4v-1z" fill="rgb(115,0,24)"/>
<path d="M46 52h1v2h-1v-2z" fill="rgb(90,49,24)"/>
<path d="M52 52h4v1h-4v-1z" fill="rgb(16,16,16)"/>
<path d="M29 53h1v3h-1v-3z" fill="rgb(16,16,16)"/>
<path d="M31 53h1v1h-1v-1z" fill="rgb(115,0,24)"/>
<path d="M32 53h1v1h-1v-1z" fill="rgb(255,172,148)"/>
<path d="M33 53h3v1h-2v1h-2v-1h1v-1z" fill="rgb(255,106,90)"/>
<path d="M31 54h1v1h-1v-1z" fill="rgb(213,57,74)"/>
<path d="M34 54h3v1h-1v1h-4v-1h2v-1z" fill="rgb(213,57,74)"/>
<path d="M37 54h1v1h-1v-1z" fill="rgb(16,16,16)"/>
<path d="M47 54h1v1h-1v-1z" fill="rgb(90,49,24)"/>
<path d="M31 55h1v1h-1v-1z" fill="rgb(115,0,24)"/>
<path d="M36 55h2v1h-1v1h-1v-2z" fill="rgb(115,0,24)"/>
<path d="M62 55h1v3h1v3h-1v-2h-1v-4z" fill="rgb(16,16,16)"/>
<path d="M30 56h1v1h-1v-1z" fill="rgb(90,49,24)"/>
<path d="M31 56h1v1h-1v-1z" fill="rgb(197,115,65)"/>
<path d="M32 56h4v1h-4v-1z" fill="rgb(16,16,16)"/>
<path d="M45 56h1v1h-1v-1z" fill="rgb(90,49,24)"/>
<path d="M65 56h3v1h-3v-1z" fill="rgb(16,16,16)"/>
<path d="M28 57h2v1h-2v-1z" fill="rgb(90,82,32)"/>
<path d="M30 57h1v1h-1v-1z" fill="rgb(16,16,16)"/>
<path d="M31 57h1v2h-2v-1h1v-1z" fill="rgb(90,49,24)"/>
<path d="M32 57h1v1h1v1h-2v-2z" fill="rgb(164,90,90)"/>
<path d="M64 57h1v1h-1v-1z" fill="rgb(16,16,16)"/>
<path d="M65 57h1v1h-1v-1z" fill="rgb(90,82,32)"/>
<path d="M66 57h1v1h1v1h-1v1h-2v-2h1v-1z" fill="rgb(180,172,115)"/>
<path d="M67 57h1v1h-1v-1z" fill="rgb(131,123,74)"/>
<path d="M68 57h1v1h-1v-1z" fill="rgb(16,16,16)"/>
<path d="M27 58h1v1h-1v-1z" fill="rgb(90,82,32)"/>
<path d="M28 58h2v2h-1v1h-2v-2h1v-1z" fill="rgb(230,230,180)"/>
<path d="M34 58h3v1h-3v-1z" fill="rgb(90,82,32)"/>
<path d="M45 58h3v1h-3v-1z" fill="rgb(90,82,32)"/>
<path d="M48 58h1v1h-1v-1z" fill="rgb(16,16,16)"/>
<path d="M58 58h4v1h-4v-1z" fill="rgb(90,82,32)"/>
<path d="M64 58h1v2h2v-1h1v-1h1v4h1v-1h2v2h-2v1h-1v-1h-1v-1h-3v-1h-1v-3z" fill="rgb(131,123,74)"/>
<path d="M69 58h1v2h-1v-2z" fill="rgb(16,16,16)"/>
<path d="M26 59h1v1h-1v-1z" fill="rgb(131,123,74)"/>
<path d="M30 59h1v2h-1v1h-1v1h1v1h-1v1h-1v1h-1v-1h-2v-1h-1v-1h1v-1h3v-1h1v-1h1v-1z" fill="rgb(180,172,115)"/>
<path d="M31 59h3v1h-2v1h-1v-2z" fill="rgb(90,82,32)"/>
<path d="M34 59h3v2h-2v1h-3v-1h1v-1h1v-1z" fill="rgb(230,230,180)"/>
<path d="M37 59h1v1h-1v-1z" fill="rgb(90,82,32)"/>
<path d="M44 59h1v1h-1v-1z" fill="rgb(90,82,32)"/>
<path d="M45 59h2v1h1v2h-3v-3z" fill="rgb(230,230,180)"/>
<path d="M47 59h2v1h1v1h1v1h-2v1h-2v1h-2v-2h3v-2h-1v-1z" fill="rgb(180,172,115)"/>
<path d="M49 59h1v1h-1v-1z" fill="rgb(16,16,16)"/>
<path d="M57 59h1v1h-1v-1z" fill="rgb(90,82,32)"/>
<path d="M58 59h2v2h-1v1h-2v-2h1v-1z" fill="rgb(230,230,180)"/>
<path d="M60 59h2v2h-1v1h-1v1h-1v1h-2v-2h2v-1h1v-2z" fill="rgb(180,172,115)"/>
<path d="M62 59h1v1h-1v-1z" fill="rgb(90,82,32)"/>
<path d="M25 60h2v1h-2v-1z" fill="rgb(90,82,32)"/>
<path d="M32 60h1v1h-1v-1z" fill="rgb(131,123,74)"/>
<path d="M37 60h1v1h-1v-1z" fill="rgb(180,172,115)"/>
<path d="M38 60h6v1h-6v-1z" fill="rgb(90,82,32)"/>
<path d="M44 60h1v1h-1v-1z" fill="rgb(180,172,115)"/>
<path d="M50 60h1v1h-1v-1z" fill="rgb(90,82,32)"/>
<path d="M53 60h3v1h-3v-1z" fill="rgb(90,82,32)"/>
<path d="M56 60h1v3h-1v-3z" fill="rgb(16,16,16)"/>
<path d="M62 60h1v1h1v2h-2v1h-2v1h2v-1h2v-1h1v2h2v-2h1v1h1v4h-1v-1h-1v-1h-1v1h-1v-1h-1v1
	h-4v-1h-2v-1h-4v-1h-2v-2h1v1h2v-1h1v1h1v1h2v-1h1v-1h1v-1h1v-1z" fill="rgb(131,123,74)"/>
<path d="M69 60h1v2h-1v-2z" fill="rgb(90,82,32)"/>
<path d="M70 60h2v1h-2v-1z" fill="rgb(16,16,16)"/>
<path d="M24 61h1v1h-1v-1z" fill="rgb(90,82,32)"/>
<path d="M25 61h3v1h-3v-1z" fill="rgb(131,123,74)"/>
<path d="M30 61h1v1h-1v-1z" fill="rgb(90,82,32)"/>
<path d="M31 61h1v3h-2v-1h-1v-1h2v-1z" fill="rgb(131,123,74)"/>
<path d="M35 61h2v1h-1v2h-4v-2h3v-1z" fill="rgb(180,172,115)"/>
<path d="M37 61h1v3h-1v1h-5v-1h4v-2h1v-1z" fill="rgb(131,123,74)"/>
<path d="M38 61h1v3h-1v-3z" fill="rgb(16,16,16)"/>
<path d="M39 61h4v1h-1v1h-1v1h-1v-1h-1v-2z" fill="rgb(180,172,115)"/>
<path d="M43 61h1v1h-1v-1z" fill="rgb(16,16,16)"/>
<path d="M44 61h1v1h-1v-1z" fill="rgb(131,123,74)"/>
<path d="M51 61h2v1h-1v2h-1v-3z" fill="rgb(90,82,32)"/>
<path d="M53 61h3v1h-1v1h-2v-2z" fill="rgb(180,172,115)"/>
<path d="M64 61h1v1h-1v-1z" fill="rgb(90,82,32)"/>
<path d="M72 61h1v2h-1v-2z" fill="rgb(16,16,16)"/>
<path d="M73 61h1v1h-1v-1z" fill="rgb(131,123,74)"/>
<path d="M74 61h1v1h-1v-1z" fill="rgb(16,16,16)"/>
<path d="M42 62h2v2h3v-1h2v-1h2v3h-5v1h-1v1h-1v-1h-5v-1h1v-1h1v-1h1v-1z" fill="rgb(131,123,74)"/>
<path d="M44 62h1v2h-1v-2z" fill="rgb(16,16,16)"/>
<path d="M64 62h1v1h-1v-1z" fill="rgb(16,16,16)"/>
<path d="M65 62h2v1h-2v-1z" fill="rgb(90,82,32)"/>
<path d="M67 62h1v1h-1v-1z" fill="rgb(16,16,16)"/>
<path d="M73 62h2v2h-1v1h-1v-1h-1v1h-1v-1h-1v-1h3v-1z" fill="rgb(180,172,115)"/>
<path d="M75 62h1v1h-1v-1z" fill="rgb(16,16,16)"/>
<path d="M39 63h1v1h-1v-1z" fill="rgb(131,123,74)"/>
<path d="M62 63h1v1h-1v-1z" fill="rgb(90,82,32)"/>
<path d="M63 63h1v1h-1v-1z" fill="rgb(16,16,16)"/>
<path d="M65 63h2v2h-2v-2z" fill="rgb(180,172,115)"/>
<path d="M68 63h1v1h-1v-1z" fill="rgb(16,16,16)"/>
<path d="M29 64h1v1h-1v-1z" fill="transparent"/>
<path d="M30 64h2v1h5v-1h1v1h1v2h-1v1h-1v1h-3v-1h-1v-2h-2v-1h-1v-1z" fill="rgb(180,172,115)"/>
<path d="M38 64h1v1h-1v-1z" fill="rgb(131,123,74)"/>
<path d="M39 64h1v1h-1v-1z" fill="rgb(16,16,16)"/>
<path d="M51 64h3v1h4v1h-1v1h-1v-1h-1v1h-1v1h-1v-1h-1v1h-1v1h-3v-1h-1v-2h-1v-1h5v-1z" fill="rgb(180,172,115)"/>
<path d="M60 64h2v1h-2v-1z" fill="rgb(90,82,32)"/>
<path d="M69 64h1v1h-1v-1z" fill="rgb(16,16,16)"/>
<path d="M70 64h1v1h-1v-1z" fill="rgb(131,123,74)"/>
<path d="M72 64h1v1h-1v-1z" fill="transparent"/>
<path d="M28 65h1v1h-1v-1z" fill="transparent"/>
<path d="M29 65h1v1h-1v-1z" fill="rgb(180,172,115)"/>
<path d="M30 65h1v1h-1v-1z" fill="transparent"/>
<path d="M69 65h1v1h-1v-1z" fill="rgb(90,82,32)"/>
<path d="M70 65h1v1h-1v-1z" fill="rgb(180,172,115)"/>
<path d="M72 65h1v1h-1v-1z" fill="rgb(180,172,115)"/>
<path d="M28 66h1v1h-1v-1z" fill="rgb(180,172,115)"/>
<path d="M30 66h1v1h-1v-1z" fill="rgb(180,172,115)"/>
<path d="M40 66h1v1h-1v-1z" fill="rgb(180,172,115)"/>
<path d="M41 66h1v1h-1v-1z" fill="transparent"/>
<path d="M42 66h1v1h-1v-1z" fill="rgb(180,172,115)"/>
<path d="M43 66h1v1h-1v-1z" fill="transparent"/>
<path d="M45 66h1v2h-1v-2z" fill="rgb(180,172,115)"/>
<path d="M46 66h1v1h-1v-1z" fill="rgb(131,123,74)"/>
<path d="M55 66h1v1h-1v-1z" fill="transparent"/>
<path d="M57 66h1v1h-1v-1z" fill="transparent"/>
<path d="M58 66h1v1h-1v-1z" fill="rgb(180,172,115)"/>
<path d="M59 66h1v1h-1v-1z" fill="transparent"/>
<path d="M64 66h1v1h-1v-1z" fill="transparent"/>
<path d="M66 66h1v1h-1v-1z" fill="transparent"/>
<path d="M41 67h1v1h-1v-1z" fill="rgb(180,172,115)"/>
<path d="M43 67h1v1h-1v-1z" fill="rgb(180,172,115)"/>
<path d="M46 67h1v1h-1v-1z" fill="transparent"/>
<path d="M52 67h1v1h-1v-1z" fill="transparent"/>
<path d="M54 67h1v1h-1v-1z" fill="transparent"/>
<path d="M55 67h1v1h-1v-1z" fill="rgb(180,172,115)"/>
<path d="M57 67h1v1h-1v-1z" fill="rgb(180,172,115)"/>
<path d="M59 67h1v1h-1v-1z" fill="rgb(180,172,115)"/>
<path d="M64 67h1v1h-1v-1z" fill="rgb(131,123,74)"/>
<path d="M65 67h1v1h-1v-1z" fill="transparent"/>
<path d="M66 67h1v1h-1v-1z" fill="rgb(131,123,74)"/>
<path d="M46 68h1v1h-1v-1z" fill="rgb(180,172,115)"/>
<path d="M52 68h1v1h-1v-1z" fill="rgb(180,172,115)"/>
<path d="M54 68h1v1h-1v-1z" fill="rgb(180,172,115)"/>
<path d="M65 68h1v1h-1v-1z" fill="rgb(131,123,74)"/>
</svg>
