<?xml version="1.0" encoding="utf-8"?>
<!-- generated at drububu.com  -->
<!DOCTYPE svg PUBLIC "-//W3C//DTD SVG 1.1//EN" "http://www.w3.org/Graphics/SVG/1.1/DTD/svg11.dtd">
<svg version="1.1" preserveAspectRatio="xMinYMin meet" xmlns="http://www.w3.org/2000/svg" xmlns:xlink="http://www.w3.org/1999/xlink" x="0px" y="0px" width="96px" height="96px" viewBox="0 0 96 96">
<path d="M0 0h96v96h-96v-96z" fill="transparent"/>
<path d="M39 23h1v1h-1v-1z" fill="rgb(139,106,0)"/>
<path d="M38 24h1v9h-1v-9z" fill="rgb(139,106,0)"/>
<path d="M39 24h1v11h-1v-1h-1v-1h1v-9z" fill="rgb(255,230,131)"/>
<path d="M40 24h1v6h-1v-6z" fill="rgb(139,106,0)"/>
<path d="M50 24h1v1h-1v-1z" fill="rgb(139,106,0)"/>
<path d="M49 25h1v2h-1v-2z" fill="rgb(139,106,0)"/>
<path d="M50 25h1v2h-1v-2z" fill="rgb(255,230,131)"/>
<path d="M51 25h1v2h-1v-2z" fill="rgb(139,106,0)"/>
<path d="M33 27h3v1h2v4h-1v-1h-1v-1h-2v2h1v2h1v2h-1v1h-1v-2h-1v-3h-1v-4h1v-1z" fill="rgb(16,16,16)"/>
<path d="M48 27h1v3h-1v-3z" fill="rgb(139,106,0)"/>
<path d="M49 27h1v3h-1v-3z" fill="rgb(255,230,131)"/>
<path d="M50 27h1v3h-1v-3z" fill="rgb(139,106,0)"/>
<path d="M54 27h4v1h1v7h-1v3h-1v-1h-1v-1h-1v-2h1v-4h-2v1h-1v1h-1v1h-1v1h-1v-4h1v-1h1v-1
	h2v-1z" fill="rgb(16,16,16)"/>
<path d="M42 28h3v1h-3v-1z" fill="rgb(205,164,0)"/>
<path d="M41 29h1v1h-1v-1z" fill="rgb(205,164,0)"/>
<path d="M42 29h2v1h-1v1h-2v-1h1v-1z" fill="rgb(255,213,0)"/>
<path d="M44 29h1v1h1v1h-3v-1h1v-1z" fill="rgb(255,255,255)"/>
<path d="M45 29h1v1h-1v-1z" fill="rgb(205,164,0)"/>
<path d="M34 30h1v2h-1v-2z" fill="rgb(213,90,57)"/>
<path d="M35 30h1v1h1v1h1v1h-1v1h-1v-1h-1v-3z" fill="rgb(255,115,82)"/>
<path d="M40 30h1v1h2v1h-2v1h1v1h-1v1h1v1h-1v1h-1v-7z" fill="rgb(205,164,0)"/>
<path d="M46 30h1v3h-1v-1h-1v-1h1v-1z" fill="rgb(205,164,0)"/>
<path d="M47 30h1v3h-1v-3z" fill="rgb(139,106,0)"/>
<path d="M48 30h1v5h2v1h2v2h1v2h3v1h-2v2h-1v1h6v1h-7v1h-2v1h-3v-2h-8v-1h-1v-1h2v-2h5v2h1
	v1h2v1h2v-1h1v-1h1v-3h-1v-1h-1v-1h-2v-2h-1v-1h-1v-1h1v-4z" fill="rgb(255,230,131)"/>
<path d="M49 30h1v4h-1v-4z" fill="rgb(139,106,0)"/>
<path d="M54 30h2v1h-2v-1z" fill="rgb(213,90,57)"/>
<path d="M43 31h2v1h-2v-1z" fill="rgb(255,213,0)"/>
<path d="M53 31h1v1h-1v-1z" fill="rgb(213,90,57)"/>
<path d="M54 31h2v2h-1v2h-1v-1h-1v-2h1v-1z" fill="rgb(255,115,82)"/>
<path d="M41 32h1v1h-1v-1z" fill="rgb(255,213,0)"/>
<path d="M42 32h3v1h-3v-1z" fill="rgb(255,255,255)"/>
<path d="M45 32h1v1h-1v-1z" fill="rgb(255,213,0)"/>
<path d="M52 32h1v2h-2v-1h1v-1z" fill="rgb(213,90,57)"/>
<path d="M35 33h1v1h-1v-1z" fill="rgb(213,90,57)"/>
<path d="M37 33h1v1h-1v-1z" fill="rgb(139,106,0)"/>
<path d="M42 33h2v1h-2v-1z" fill="rgb(255,213,0)"/>
<path d="M44 33h2v1h-2v-1z" fill="rgb(205,164,0)"/>
<path d="M46 33h1v3h-1v-3z" fill="rgb(148,90,0)"/>
<path d="M47 33h1v1h-1v-1z" fill="rgb(222,189,57)"/>
<path d="M55 33h1v1h-1v-1z" fill="rgb(213,90,57)"/>
<path d="M36 34h1v2h-1v-2z" fill="rgb(139,106,0)"/>
<path d="M37 34h1v2h-1v-2z" fill="rgb(255,230,131)"/>
<path d="M38 34h1v1h1v2h1v1h4v-1h2v-2h1v1h1v2h-1v1h-1v1h-1v1h-5v-2h-1v-1h-1v-1h-2v-1h1
	v-2z" fill="rgb(255,255,180)"/>
<path d="M41 34h3v1h-3v-1z" fill="rgb(255,255,255)"/>
<path d="M44 34h2v1h-2v-1z" fill="rgb(255,213,0)"/>
<path d="M49 34h5v1h1v1h1v1h1v2h-3v-1h-1v-2h-2v-1h-2v-1z" fill="rgb(222,189,57)"/>
<path d="M28 35h2v1h-2v-1z" fill="rgb(139,106,0)"/>
<path d="M42 35h1v1h2v1h-4v-1h1v-1z" fill="rgb(255,213,0)"/>
<path d="M43 35h3v1h-3v-1z" fill="rgb(205,164,0)"/>
<path d="M27 36h1v1h-1v-1z" fill="rgb(16,16,16)"/>
<path d="M28 36h2v1h-2v-1z" fill="rgb(255,230,131)"/>
<path d="M30 36h3v1h-3v-1z" fill="rgb(139,106,0)"/>
<path d="M35 36h1v2h-1v1h-1v-1h-1v-1h2v-1z" fill="rgb(139,106,0)"/>
<path d="M36 36h1v1h1v1h-1v1h-1v4h-1v-5h1v-2z" fill="rgb(255,230,131)"/>
<path d="M45 36h1v1h-1v-1z" fill="rgb(148,90,0)"/>
<path d="M46 36h1v1h-1v-1z" fill="rgb(255,230,131)"/>
<path d="M28 37h2v1h-2v-1z" fill="rgb(16,16,16)"/>
<path d="M30 37h3v1h-3v-1z" fill="rgb(255,230,131)"/>
<path d="M38 37h1v1h-1v-1z" fill="rgb(139,106,0)"/>
<path d="M41 37h1v1h-1v-1z" fill="rgb(205,164,0)"/>
<path d="M42 37h3v1h-3v-1z" fill="rgb(148,90,0)"/>
<path d="M60 37h4v1h-4v-1z" fill="rgb(139,106,0)"/>
<path d="M30 38h3v1h-3v-1z" fill="rgb(16,16,16)"/>
<path d="M33 38h1v1h-1v-1z" fill="rgb(255,230,131)"/>
<path d="M37 38h1v1h-1v-1z" fill="rgb(139,106,0)"/>
<path d="M38 38h1v1h-1v-1z" fill="rgb(230,230,230)"/>
<path d="M39 38h1v1h-1v-1z" fill="rgb(139,106,0)"/>
<path d="M48 38h3v1h-3v-1z" fill="rgb(139,106,0)"/>
<path d="M57 38h3v1h-3v-1z" fill="rgb(139,106,0)"/>
<path d="M60 38h4v1h-4v-1z" fill="rgb(255,230,131)"/>
<path d="M64 38h1v1h-1v-1z" fill="rgb(16,16,16)"/>
<path d="M33 39h2v1h-2v-1z" fill="rgb(16,16,16)"/>
<path d="M36 39h1v4h-1v-4z" fill="rgb(222,189,57)"/>
<path d="M37 39h1v3h-1v-3z" fill="rgb(255,255,255)"/>
<path d="M38 39h1v1h-1v-1z" fill="rgb(139,106,0)"/>
<path d="M39 39h1v2h-1v-2z" fill="rgb(255,255,255)"/>
<path d="M40 39h1v4h-1v-4z" fill="rgb(139,106,0)"/>
<path d="M47 39h1v1h-1v-1z" fill="rgb(139,106,0)"/>
<path d="M48 39h1v1h-1v-1z" fill="rgb(230,230,230)"/>
<path d="M49 39h2v3h-1v1h-1v-4z" fill="rgb(255,255,255)"/>
<path d="M51 39h1v1h-1v-1z" fill="rgb(139,106,0)"/>
<path d="M54 39h3v1h-3v-1z" fill="rgb(139,106,0)"/>
<path d="M57 39h3v1h-3v-1z" fill="rgb(255,230,131)"/>
<path d="M60 39h4v1h-4v-1z" fill="rgb(16,16,16)"/>
<path d="M28 40h3v1h-3v-1z" fill="rgb(139,106,0)"/>
<path d="M34 40h1v3h-1v-1h-3v-1h3v-1z" fill="rgb(139,106,0)"/>
<path d="M38 40h1v3h-1v-3z" fill="rgb(16,16,16)"/>
<path d="M46 40h1v3h-1v-3z" fill="rgb(139,106,0)"/>
<path d="M47 40h1v3h-1v-3z" fill="rgb(255,255,255)"/>
<path d="M48 40h1v1h-1v-1z" fill="rgb(139,106,0)"/>
<path d="M51 40h1v3h-1v1h-2v-1h1v-1h1v-2z" fill="rgb(230,230,230)"/>
<path d="M52 40h1v3h-1v-3z" fill="rgb(139,106,0)"/>
<path d="M57 40h3v1h-2v2h-1v-1h-2v-1h2v-1z" fill="rgb(16,16,16)"/>
<path d="M60 40h1v1h-1v-1z" fill="transparent"/>
<path d="M61 40h4v1h-4v-1z" fill="rgb(148,65,0)"/>
<path d="M27 41h1v1h-1v-1z" fill="rgb(16,16,16)"/>
<path d="M28 41h3v1h-3v-1z" fill="rgb(255,230,131)"/>
<path d="M39 41h1v2h-1v-2z" fill="rgb(230,230,230)"/>
<path d="M48 41h1v3h-1v-3z" fill="rgb(16,16,16)"/>
<path d="M58 41h2v1h-1v1h-1v-2z" fill="transparent"/>
<path d="M60 41h1v1h-1v-1z" fill="rgb(148,65,0)"/>
<path d="M61 41h4v1h1v1h-2v-1h-3v-1z" fill="rgb(238,156,49)"/>
<path d="M65 41h1v1h-1v-1z" fill="rgb(148,65,0)"/>
<path d="M28 42h3v1h-3v-1z" fill="rgb(16,16,16)"/>
<path d="M31 42h3v1h-3v-1z" fill="rgb(255,230,131)"/>
<path d="M37 42h1v1h-1v-1z" fill="rgb(230,230,230)"/>
<path d="M55 42h2v1h-2v-1z" fill="rgb(222,189,57)"/>
<path d="M59 42h1v1h-1v-1z" fill="rgb(148,65,0)"/>
<path d="M60 42h4v1h-4v-1z" fill="rgb(139,106,0)"/>
<path d="M66 42h1v2h-1v-2z" fill="rgb(148,65,0)"/>
<path d="M31 43h4v1h-4v-1z" fill="rgb(16,16,16)"/>
<path d="M35 43h1v2h-1v-2z" fill="rgb(139,106,0)"/>
<path d="M36 43h1v1h-1v-1z" fill="rgb(255,230,131)"/>
<path d="M37 43h2v1h-2v-1z" fill="rgb(222,189,57)"/>
<path d="M47 43h1v1h-1v-1z" fill="rgb(222,189,57)"/>
<path d="M51 43h1v1h-1v-1z" fill="rgb(139,106,0)"/>
<path d="M54 43h6v1h-6v-1z" fill="rgb(139,106,0)"/>
<path d="M60 43h4v1h-4v-1z" fill="rgb(255,230,131)"/>
<path d="M64 43h1v1h-1v-1z" fill="rgb(16,16,16)"/>
<path d="M65 43h1v1h1v7h-1v2h-1v2h-2v-1h-1v-1h1v-2h1v-2h1v-1h1v-3h-1v-2z" fill="rgb(197,123,8)"/>
<path d="M36 44h1v1h-1v-1z" fill="rgb(222,189,57)"/>
<path d="M37 44h2v2h-1v-1h-1v-1z" fill="rgb(255,230,131)"/>
<path d="M39 44h1v1h-1v-1z" fill="rgb(139,106,0)"/>
<path d="M49 44h2v1h-2v-1z" fill="rgb(222,189,57)"/>
<path d="M60 44h4v1h-4v-1z" fill="rgb(16,16,16)"/>
<path d="M64 44h1v1h-1v-1z" fill="rgb(148,65,0)"/>
<path d="M67 44h1v2h-1v-2z" fill="rgb(148,65,0)"/>
<path d="M36 45h1v1h-1v-1z" fill="rgb(139,106,0)"/>
<path d="M37 45h1v1h1v-1h1v1h1v2h-2v-1h-2v-2z" fill="rgb(222,189,57)"/>
<path d="M40 45h2v1h-2v-1z" fill="rgb(139,106,0)"/>
<path d="M42 45h4v1h-4v-1z" fill="rgb(16,16,16)"/>
<path d="M46 45h2v1h-2v-1z" fill="rgb(139,106,0)"/>
<path d="M53 45h2v1h1v1h-2v-1h-1v-1z" fill="rgb(222,189,57)"/>
<path d="M55 45h5v1h-3v1h-1v-1h-1v-1z" fill="rgb(16,16,16)"/>
<path d="M60 45h2v2h1v-2h2v3h-1v1h-3v-1h-1v-1h-1v-1h1v-1z" fill="rgb(197,123,8)"/>
<path d="M62 45h1v2h-1v-2z" fill="rgb(148,65,0)"/>
<path d="M65 45h1v1h-1v-1z" fill="rgb(148,65,0)"/>
<path d="M36 46h1v1h-1v-1z" fill="rgb(16,16,16)"/>
<path d="M41 46h1v1h-1v-1z" fill="rgb(255,255,255)"/>
<path d="M42 46h2v1h-1v1h-1v-2z" fill="rgb(213,90,57)"/>
<path d="M44 46h2v1h1v1h-1v1h-3v-2h1v-1z" fill="rgb(255,115,82)"/>
<path d="M46 46h1v1h-1v-1z" fill="rgb(255,255,255)"/>
<path d="M47 46h1v1h-1v-1z" fill="rgb(16,16,16)"/>
<path d="M51 46h3v1h-3v-1z" fill="rgb(139,106,0)"/>
<path d="M57 46h1v1h1v1h1v1h1v1h2v1h-1v2h-1v1h-1v1h-1v1h-2v1h-2v1h-2v-2h-1v-2h1v1h4v-1h1
	v-1h1v-2h-1v-2h-1v-1h-1v-1h1v-1z" fill="transparent"/>
<path d="M58 46h1v1h-1v-1z" fill="rgb(148,65,0)"/>
<path d="M65 46h1v2h-1v-2z" fill="rgb(16,16,16)"/>
<path d="M67 46h1v5h-1v-5z" fill="rgb(16,16,16)"/>
<path d="M37 47h2v1h-2v-1z" fill="rgb(16,16,16)"/>
<path d="M41 47h1v1h-1v-1z" fill="rgb(139,106,0)"/>
<path d="M47 47h1v1h-1v-1z" fill="rgb(139,106,0)"/>
<path d="M48 47h2v1h-1v2h-3v-1h1v-1h1v-1z" fill="rgb(222,189,57)"/>
<path d="M50 47h1v1h-1v-1z" fill="rgb(139,106,0)"/>
<path d="M51 47h3v1h2v1h1v1h-1v1h-1v-2h-1v2h-2v-2h-1v1h-1v-2h1v-1z" fill="rgb(255,230,131)"/>
<path d="M54 47h2v1h-2v-1z" fill="rgb(139,106,0)"/>
<path d="M59 47h1v1h-1v-1z" fill="rgb(148,65,0)"/>
<path d="M34 48h3v1h-3v-1z" fill="rgb(139,106,0)"/>
<path d="M37 48h2v1h2v1h-1v1h-1v-1h-1v-1h-1v-1z" fill="transparent"/>
<path d="M39 48h2v1h-2v-1z" fill="rgb(16,16,16)"/>
<path d="M41 48h1v1h-1v-1z" fill="rgb(222,189,57)"/>
<path d="M42 48h1v1h-1v-1z" fill="rgb(139,106,0)"/>
<path d="M46 48h1v1h-1v-1z" fill="rgb(139,106,0)"/>
<path d="M49 48h1v1h-1v-1z" fill="rgb(139,106,0)"/>
<path d="M52 48h1v1h-1v-1z" fill="rgb(139,106,0)"/>
<path d="M56 48h1v1h-1v-1z" fill="rgb(139,106,0)"/>
<path d="M60 48h1v1h-1v-1z" fill="rgb(16,16,16)"/>
<path d="M64 48h1v1h-1v-1z" fill="rgb(16,16,16)"/>
<path d="M32 49h2v1h-2v-1z" fill="rgb(139,106,0)"/>
<path d="M34 49h3v1h1v2h-1v-1h-1v-1h-1v1h1v2h-2v-2h-1v2h-1v-1h-1v-1h1v-1h2v-1z" fill="rgb(255,230,131)"/>
<path d="M37 49h1v1h-1v-1z" fill="rgb(139,106,0)"/>
<path d="M41 49h1v1h-1v-1z" fill="rgb(16,16,16)"/>
<path d="M42 49h1v1h-1v-1z" fill="rgb(222,189,57)"/>
<path d="M43 49h3v1h-3v-1z" fill="rgb(139,106,0)"/>
<path d="M49 49h1v1h-1v-1z" fill="rgb(16,16,16)"/>
<path d="M51 49h1v2h-2v-1h1v-1z" fill="rgb(16,16,16)"/>
<path d="M54 49h1v2h-1v-2z" fill="rgb(139,106,0)"/>
<path d="M57 49h1v1h-1v-1z" fill="rgb(139,106,0)"/>
<path d="M61 49h3v2h-1v-1h-2v-1z" fill="rgb(16,16,16)"/>
<path d="M31 50h1v1h-1v-1z" fill="rgb(139,106,0)"/>
<path d="M35 50h1v1h-1v-1z" fill="rgb(139,106,0)"/>
<path d="M38 50h1v1h-1v-1z" fill="rgb(139,106,0)"/>
<path d="M40 50h2v2h-1v-1h-1v-1z" fill="rgb(139,106,0)"/>
<path d="M42 50h1v1h-1v-1z" fill="rgb(16,16,16)"/>
<path d="M43 50h3v1h-3v-1z" fill="rgb(222,189,57)"/>
<path d="M46 50h3v1h-3v-1z" fill="rgb(16,16,16)"/>
<path d="M49 50h1v1h2v1h2v1h3v1h-4v-1h-2v-1h-2v1h1v1h1v3h1v3h-1v4h1v1h1v1h1v1h-2v1h-1v1
	h-1v-2h1v-1h-1v-2h-1v-2h-6v2h-1v2h1v2h-1v-1h-1v-2h-1v-1h1v-5h4v-1h2v-2h1v-3h-1
	v-1h-1v-1h3v-1z" fill="rgb(222,189,57)"/>
<path d="M56 50h1v1h-1v-1z" fill="rgb(222,189,57)"/>
<path d="M57 50h1v1h-1v-1z" fill="rgb(16,16,16)"/>
<path d="M30 51h1v1h-1v-1z" fill="rgb(139,106,0)"/>
<path d="M33 51h1v2h-1v-2z" fill="rgb(139,106,0)"/>
<path d="M36 51h1v1h1v1h-2v-2z" fill="rgb(16,16,16)"/>
<path d="M38 51h1v1h-1v-1z" fill="rgb(16,16,16)"/>
<path d="M39 51h1v1h-1v-1z" fill="rgb(139,106,0)"/>
<path d="M40 51h1v1h-1v-1z" fill="rgb(255,230,131)"/>
<path d="M42 51h1v1h4v1h1v3h-1v2h-2v1h-4v-1h-1v-3h1v-3h1v-1z" fill="rgb(255,230,131)"/>
<path d="M43 51h3v1h-3v-1z" fill="rgb(16,16,16)"/>
<path d="M52 51h5v1h-5v-1z" fill="rgb(16,16,16)"/>
<path d="M57 51h1v2h-3v-1h2v-1z" fill="rgb(255,230,131)"/>
<path d="M58 51h1v1h-1v-1z" fill="rgb(139,106,0)"/>
<path d="M62 51h1v2h-1v-2z" fill="rgb(16,16,16)"/>
<path d="M66 51h1v2h-1v-2z" fill="rgb(16,16,16)"/>
<path d="M30 52h1v1h-1v-1z" fill="rgb(16,16,16)"/>
<path d="M31 52h1v1h-1v-1z" fill="rgb(222,189,57)"/>
<path d="M38 52h2v2h-1v-1h-1v-1z" fill="rgb(255,230,131)"/>
<path d="M40 52h1v3h-1v-3z" fill="rgb(139,106,0)"/>
<path d="M49 52h1v1h-1v-1z" fill="rgb(16,16,16)"/>
<path d="M50 52h1v1h-1v-1z" fill="rgb(139,106,0)"/>
<path d="M54 52h1v1h-1v-1z" fill="rgb(139,106,0)"/>
<path d="M58 52h1v1h-1v-1z" fill="rgb(16,16,16)"/>
<path d="M31 53h5v1h-5v-1z" fill="rgb(16,16,16)"/>
<path d="M36 53h3v1h1v1h-1v1h-3v-1h-2v-1h2v-1z" fill="rgb(222,189,57)"/>
<path d="M50 53h3v1h-1v2h-1v-2h-1v-1z" fill="rgb(16,16,16)"/>
<path d="M57 53h1v1h-1v-1z" fill="rgb(16,16,16)"/>
<path d="M61 53h1v1h-1v-1z" fill="rgb(16,16,16)"/>
<path d="M65 53h1v2h-1v-2z" fill="rgb(16,16,16)"/>
<path d="M33 54h1v1h-1v-1z" fill="rgb(139,106,0)"/>
<path d="M53 54h4v1h-4v-1z" fill="rgb(16,16,16)"/>
<path d="M60 54h1v1h-1v-1z" fill="rgb(139,106,0)"/>
<path d="M61 54h1v1h1v2h-2v1h-2v1h-1v-1h-1v-1h2v-1h1v-1h1v-1z" fill="rgb(255,230,131)"/>
<path d="M62 54h1v1h-1v-1z" fill="rgb(238,156,49)"/>
<path d="M34 55h2v1h-2v-1z" fill="rgb(139,106,0)"/>
<path d="M39 55h1v3h-1v-3z" fill="rgb(139,106,0)"/>
<path d="M59 55h1v1h-1v-1z" fill="rgb(139,106,0)"/>
<path d="M63 55h1v1h-1v-1z" fill="rgb(238,156,49)"/>
<path d="M64 55h1v1h-1v-1z" fill="rgb(16,16,16)"/>
<path d="M36 56h1v1h-1v-1z" fill="rgb(139,106,0)"/>
<path d="M37 56h2v1h-2v-1z" fill="rgb(16,16,16)"/>
<path d="M51 56h1v1h-1v-1z" fill="rgb(139,106,0)"/>
<path d="M52 56h1v4h4v1h-5v-5z" fill="rgb(16,16,16)"/>
<path d="M57 56h2v1h-2v-1z" fill="rgb(139,106,0)"/>
<path d="M63 56h1v1h-1v-1z" fill="rgb(16,16,16)"/>
<path d="M55 57h2v1h-2v-1z" fill="rgb(139,106,0)"/>
<path d="M61 57h1v1h-1v-1z" fill="rgb(222,189,57)"/>
<path d="M62 57h1v1h-1v-1z" fill="rgb(16,16,16)"/>
<path d="M39 58h1v2h-1v-2z" fill="rgb(16,16,16)"/>
<path d="M40 58h1v1h-1v-1z" fill="rgb(222,189,57)"/>
<path d="M53 58h2v1h-2v-1z" fill="rgb(139,106,0)"/>
<path d="M55 58h3v1h-1v1h-4v-1h2v-1z" fill="rgb(222,189,57)"/>
<path d="M59 58h1v1h-1v-1z" fill="rgb(222,189,57)"/>
<path d="M60 58h2v1h-2v-1z" fill="rgb(16,16,16)"/>
<path d="M40 59h1v1h-1v-1z" fill="rgb(139,106,0)"/>
<path d="M57 59h3v1h-3v-1z" fill="rgb(16,16,16)"/>
<path d="M40 60h1v3h-1v-3z" fill="rgb(16,16,16)"/>
<path d="M51 60h1v1h-1v-1z" fill="rgb(139,106,0)"/>
<path d="M51 61h1v2h-1v-2z" fill="rgb(16,16,16)"/>
<path d="M43 62h1v1h-1v-1z" fill="rgb(139,106,0)"/>
<path d="M44 62h4v1h-4v-1z" fill="rgb(16,16,16)"/>
<path d="M48 62h1v1h-1v-1z" fill="rgb(139,106,0)"/>
<path d="M39 63h1v2h-1v-2z" fill="rgb(16,16,16)"/>
<path d="M40 63h1v1h-1v-1z" fill="rgb(139,106,0)"/>
<path d="M43 63h1v1h-1v-1z" fill="rgb(16,16,16)"/>
<path d="M48 63h1v1h-1v-1z" fill="rgb(16,16,16)"/>
<path d="M51 63h1v1h-1v-1z" fill="rgb(139,106,0)"/>
<path d="M52 63h1v2h-1v-2z" fill="rgb(16,16,16)"/>
<path d="M42 64h1v2h-1v-2z" fill="rgb(16,16,16)"/>
<path d="M49 64h1v2h-1v-2z" fill="rgb(16,16,16)"/>
<path d="M36 65h3v1h-3v-1z" fill="rgb(139,106,0)"/>
<path d="M39 65h2v2h1v1h-3v-1h-1v-1h1v-1z" fill="rgb(255,230,131)"/>
<path d="M53 65h1v1h-1v-1z" fill="rgb(16,16,16)"/>
<path d="M33 66h3v1h-1v1h-1v-1h-1v-1z" fill="rgb(148,65,0)"/>
<path d="M36 66h2v2h1v1h-1v1h-2v-2h1v-1h-1v-1z" fill="rgb(197,123,8)"/>
<path d="M43 66h1v2h-1v-2z" fill="rgb(16,16,16)"/>
<path d="M50 66h1v1h-1v-1z" fill="rgb(16,16,16)"/>
<path d="M54 66h3v1h-3v-1z" fill="rgb(16,16,16)"/>
<path d="M32 67h1v1h-1v-1z" fill="rgb(148,65,0)"/>
<path d="M33 67h1v1h-1v-1z" fill="rgb(197,123,8)"/>
<path d="M35 67h1v1h-1v-1z" fill="rgb(197,123,8)"/>
<path d="M36 67h1v1h-1v-1z" fill="rgb(148,65,0)"/>
<path d="M38 67h1v1h-1v-1z" fill="rgb(238,156,49)"/>
<path d="M49 67h1v2h-1v-2z" fill="rgb(16,16,16)"/>
<path d="M52 67h3v1h-1v1h-3v-1h1v-1z" fill="rgb(255,230,131)"/>
<path d="M55 67h2v1h-1v1h1v2h-2v-1h-1v-1h1v-2z" fill="rgb(197,123,8)"/>
<path d="M57 67h3v1h-3v-1z" fill="rgb(16,16,16)"/>
<path d="M31 68h1v2h-1v-2z" fill="rgb(16,16,16)"/>
<path d="M32 68h1v2h-1v-2z" fill="rgb(197,123,8)"/>
<path d="M33 68h1v1h-1v-1z" fill="rgb(148,65,0)"/>
<path d="M34 68h1v2h-1v-2z" fill="rgb(197,123,8)"/>
<path d="M35 68h1v1h-1v-1z" fill="rgb(148,65,0)"/>
<path d="M39 68h1v1h-1v-1z" fill="rgb(238,156,49)"/>
<path d="M40 68h3v1h-3v-1z" fill="rgb(16,16,16)"/>
<path d="M54 68h1v1h-1v-1z" fill="rgb(238,156,49)"/>
<path d="M56 68h1v1h-1v-1z" fill="rgb(148,65,0)"/>
<path d="M57 68h1v1h-1v-1z" fill="rgb(197,123,8)"/>
<path d="M58 68h1v1h-1v-1z" fill="rgb(148,65,0)"/>
<path d="M59 68h1v1h-1v-1z" fill="rgb(197,123,8)"/>
<path d="M60 68h1v1h-1v-1z" fill="rgb(16,16,16)"/>
<path d="M33 69h1v1h1v-1h1v1h2v1h-6v-1h1v-1z" fill="rgb(16,16,16)"/>
<path d="M38 69h2v1h-2v-1z" fill="rgb(16,16,16)"/>
<path d="M50 69h3v1h-3v-1z" fill="rgb(16,16,16)"/>
<path d="M53 69h1v1h-1v-1z" fill="rgb(238,156,49)"/>
<path d="M57 69h1v1h-1v-1z" fill="rgb(148,65,0)"/>
<path d="M58 69h1v2h-1v-2z" fill="rgb(197,123,8)"/>
<path d="M59 69h1v1h-1v-1z" fill="rgb(148,65,0)"/>
<path d="M60 69h1v2h-1v-2z" fill="rgb(197,123,8)"/>
<path d="M61 69h1v2h-1v-2z" fill="rgb(16,16,16)"/>
<path d="M53 70h2v1h-2v-1z" fill="rgb(16,16,16)"/>
<path d="M57 70h1v1h1v-1h1v1h1v1h-6v-1h2v-1z" fill="rgb(16,16,16)"/>
</svg>
