<?xml version="1.0" encoding="utf-8"?>
<!-- generated at drububu.com  -->
<!DOCTYPE svg PUBLIC "-//W3C//DTD SVG 1.1//EN" "http://www.w3.org/Graphics/SVG/1.1/DTD/svg11.dtd">
<svg version="1.1" preserveAspectRatio="xMinYMin meet" xmlns="http://www.w3.org/2000/svg" xmlns:xlink="http://www.w3.org/1999/xlink" x="0px" y="0px" width="96px" height="96px" viewBox="0 0 96 96">
<path d="M0 0h96v96h-96v-96z" fill="transparent"/>
<path d="M41 18h4v1h1v1h1v4h-1v2h-1v-5h-1v-1h-2v1h-1v1h-1v1h-1v2h-1v1h-1v1h-1v-2h1v-3h1
	v-2h1v-1h2v-1z" fill="rgb(16,16,16)"/>
<path d="M42 20h2v1h1v1h-1v1h-2v1h-1v1h-2v-2h1v-1h1v-1h1v-1z" fill="rgb(148,123,32)"/>
<path d="M23 22h4v1h1v2h1v1h1v2h-1v-1h-1v-1h-1v-1h-1v-1h-2v3h1v1h1v1h-2v-1h-1v-2h-1v-3h1
	v-1z" fill="rgb(16,16,16)"/>
<path d="M44 22h1v3h-1v2h-2v-1h-1v-2h1v-1h2v-1z" fill="rgb(189,164,74)"/>
<path d="M28 23h1v1h-1v-1z" fill="rgb(131,82,0)"/>
<path d="M36 23h1v1h-1v-1z" fill="rgb(131,82,0)"/>
<path d="M24 24h2v1h1v1h1v1h-2v1h-1v-2h-1v-2z" fill="rgb(148,123,32)"/>
<path d="M28 24h1v1h-1v-1z" fill="rgb(222,180,106)"/>
<path d="M29 24h2v1h-2v-1z" fill="rgb(131,82,0)"/>
<path d="M34 24h2v1h-2v-1z" fill="rgb(131,82,0)"/>
<path d="M36 24h1v1h-1v-1z" fill="rgb(222,180,106)"/>
<path d="M29 25h1v1h-1v-1z" fill="rgb(222,180,106)"/>
<path d="M30 25h1v1h3v-1h1v1h1v1h1v-1h3v1h1v1h1v2h-1v-1h-3v1h-1v1h-1v1h-1v2h1v1h4v2h-1v1
	h-3v1h-3v-1h1v-1h-3v-1h1v-2h-1v-1h-1v-1h-1v-1h-1v-2h1v-1h1v-3z" fill="rgb(255,230,131)"/>
<path d="M31 25h3v1h-3v-1z" fill="rgb(131,82,0)"/>
<path d="M35 25h1v1h-1v-1z" fill="rgb(222,180,106)"/>
<path d="M38 25h3v1h1v1h2v1h1v2h-1v1h-1v2h3v1h-3v1h1v1h-1v1h-1v3h3v2h1v1h2v1h-1v1h-1v1
	h-1v2h-1v2h1v1h-1v1h1v1h-1v1h1v1h1v-1h1v1h1v1h1v1h1v5h-1v13h-1v3h-1v1h-2v-2h1v-1
	h1v-1h-1v-1h-3v-1h1v-8h-1v-4h-1v-4h-1v1h-1v-1h-1v-1h-1v-2h-1v-3h-1v3h-1v-6h1
	v-5h2v-1h-5v-1h-1v-1h5v-1h1v-1h1v-1h1v-2h-2v-1h2v-2h1v-2h1v-2h-1v-1h-1v-1h-2v-1z" fill="rgb(222,180,106)"/>
<path d="M44 25h1v1h-1v-1z" fill="rgb(148,123,32)"/>
<path d="M24 26h1v1h-1v-1z" fill="rgb(115,90,16)"/>
<path d="M44 26h1v2h-1v-2z" fill="rgb(16,16,16)"/>
<path d="M26 27h2v2h-2v-2z" fill="rgb(189,164,74)"/>
<path d="M28 27h1v1h-1v-1z" fill="rgb(148,123,32)"/>
<path d="M48 27h1v1h-1v-1z" fill="rgb(180,131,41)"/>
<path d="M49 27h1v1h-1v-1z" fill="rgb(131,82,0)"/>
<path d="M50 27h1v2h-1v-2z" fill="rgb(16,16,16)"/>
<path d="M28 28h1v1h-1v-1z" fill="rgb(222,180,106)"/>
<path d="M31 28h2v1h-2v-1z" fill="rgb(246,82,65)"/>
<path d="M45 28h1v1h-1v-1z" fill="rgb(16,16,16)"/>
<path d="M47 28h1v1h-1v-1z" fill="rgb(131,82,0)"/>
<path d="M48 28h2v1h-2v-1z" fill="rgb(255,230,131)"/>
<path d="M26 29h2v2h-1v-1h-1v-1z" fill="rgb(16,16,16)"/>
<path d="M30 29h1v2h-1v-2z" fill="rgb(246,82,65)"/>
<path d="M31 29h1v1h-1v-1z" fill="rgb(255,255,255)"/>
<path d="M32 29h1v1h-1v-1z" fill="rgb(255,189,156)"/>
<path d="M33 29h1v2h-1v-2z" fill="rgb(164,16,0)"/>
<path d="M38 29h1v1h-1v-1z" fill="rgb(180,131,41)"/>
<path d="M39 29h2v2h-1v-1h-1v-1z" fill="rgb(16,16,16)"/>
<path d="M45 29h2v1h-2v-1z" fill="rgb(131,82,0)"/>
<path d="M47 29h1v1h-1v-1z" fill="rgb(255,230,131)"/>
<path d="M48 29h2v1h-2v-1z" fill="rgb(16,16,16)"/>
<path d="M31 30h1v1h-1v-1z" fill="rgb(255,189,156)"/>
<path d="M32 30h1v1h-1v-1z" fill="rgb(246,82,65)"/>
<path d="M37 30h1v1h-1v-1z" fill="rgb(131,82,0)"/>
<path d="M38 30h2v2h-1v-1h-1v-1z" fill="rgb(222,222,222)"/>
<path d="M44 30h1v1h-1v-1z" fill="rgb(131,82,0)"/>
<path d="M45 30h2v1h-2v-1z" fill="rgb(255,230,131)"/>
<path d="M47 30h1v1h-1v-1z" fill="rgb(16,16,16)"/>
<path d="M28 31h1v5h-3v-1h2v-4z" fill="rgb(16,16,16)"/>
<path d="M31 31h2v1h-2v-1z" fill="rgb(164,16,0)"/>
<path d="M36 31h1v1h-1v-1z" fill="rgb(131,82,0)"/>
<path d="M37 31h1v1h-1v-1z" fill="rgb(222,222,222)"/>
<path d="M38 31h1v1h1v2h-2v-3z" fill="rgb(255,255,255)"/>
<path d="M40 31h1v1h-1v-1z" fill="rgb(131,82,0)"/>
<path d="M43 31h1v1h-1v-1z" fill="rgb(180,131,41)"/>
<path d="M44 31h1v1h-1v-1z" fill="rgb(255,230,131)"/>
<path d="M45 31h2v1h-1v1h-1v-2z" fill="rgb(16,16,16)"/>
<path d="M23 32h1v2h-1v-2z" fill="rgb(16,16,16)"/>
<path d="M24 32h2v1h-2v-1z" fill="rgb(131,82,0)"/>
<path d="M29 32h1v1h-1v-1z" fill="rgb(131,82,0)"/>
<path d="M35 32h1v1h-1v-1z" fill="rgb(131,82,0)"/>
<path d="M36 32h1v2h-1v-2z" fill="rgb(255,255,255)"/>
<path d="M37 32h1v1h-1v-1z" fill="rgb(164,16,0)"/>
<path d="M43 32h1v1h-1v-1z" fill="rgb(16,16,16)"/>
<path d="M44 32h1v1h-1v-1z" fill="rgb(131,82,0)"/>
<path d="M24 33h2v1h-2v-1z" fill="rgb(255,230,131)"/>
<path d="M26 33h2v1h-2v-1z" fill="rgb(131,82,0)"/>
<path d="M29 33h1v1h-1v-1z" fill="rgb(222,222,222)"/>
<path d="M30 33h1v1h-1v-1z" fill="rgb(131,82,0)"/>
<path d="M35 33h1v1h-1v-1z" fill="rgb(222,180,106)"/>
<path d="M37 33h1v1h-1v-1z" fill="rgb(246,82,65)"/>
<path d="M46 33h1v1h-1v-1z" fill="rgb(16,16,16)"/>
<path d="M47 33h5v1h-5v-1z" fill="rgb(131,82,0)"/>
<path d="M24 34h2v1h-2v-1z" fill="rgb(16,16,16)"/>
<path d="M26 34h2v1h-2v-1z" fill="rgb(222,180,106)"/>
<path d="M29 34h1v1h-1v-1z" fill="rgb(255,255,255)"/>
<path d="M30 34h1v1h-1v-1z" fill="rgb(164,16,0)"/>
<path d="M31 34h1v2h-1v-2z" fill="rgb(222,180,106)"/>
<path d="M36 34h1v1h-1v-1z" fill="rgb(222,180,106)"/>
<path d="M37 34h1v1h-1v-1z" fill="rgb(16,16,16)"/>
<path d="M43 34h1v1h-1v-1z" fill="rgb(180,131,41)"/>
<path d="M44 34h2v1h-2v-1z" fill="rgb(131,82,0)"/>
<path d="M46 34h1v1h-1v-1z" fill="rgb(180,131,41)"/>
<path d="M47 34h5v1h-5v-1z" fill="rgb(255,230,131)"/>
<path d="M52 34h1v1h-1v-1z" fill="rgb(16,16,16)"/>
<path d="M29 35h1v1h-1v-1z" fill="rgb(222,180,106)"/>
<path d="M30 35h1v1h-1v-1z" fill="rgb(246,82,65)"/>
<path d="M44 35h3v1h-3v-1z" fill="rgb(255,230,131)"/>
<path d="M47 35h5v1h-5v-1z" fill="rgb(16,16,16)"/>
<path d="M29 36h2v1h-2v-1z" fill="rgb(16,16,16)"/>
<path d="M43 36h4v1h-1v1h-1v-1h-2v-1z" fill="rgb(16,16,16)"/>
<path d="M77 36h7v1h-7v-1z" fill="rgb(131,82,0)"/>
<path d="M25 37h3v1h-3v-1z" fill="rgb(131,82,0)"/>
<path d="M28 37h1v2h-1v-2z" fill="rgb(16,16,16)"/>
<path d="M29 37h2v2h-2v-2z" fill="rgb(255,230,131)"/>
<path d="M31 37h2v1h-2v-1z" fill="rgb(16,16,16)"/>
<path d="M33 37h1v1h-1v-1z" fill="rgb(222,180,106)"/>
<path d="M42 37h1v1h-1v-1z" fill="rgb(180,131,41)"/>
<path d="M43 37h2v1h-2v-1z" fill="rgb(131,82,0)"/>
<path d="M75 37h2v1h-2v-1z" fill="rgb(131,82,0)"/>
<path d="M77 37h1v1h-1v-1z" fill="rgb(222,180,106)"/>
<path d="M78 37h5v1h2v1h1v1h1v1h1v1h1v2h1v3h-1v2h-1v1h-2v1h-3v-1h-1v-1h-1v-2h-1v-2h1v-1
	h1v-1h2v1h1v1h1v2h-2v1h-1v1h3v-1h1v-5h-1v-1h-1v-1h-1v-1h-8v1h-2v1h-1v1h-1v2h-1
	v1h-2v-1h1v-2h1v-2h2v-1h1v-1h2v-1h2v-1z" fill="rgb(255,230,131)"/>
<path d="M83 37h1v1h-1v-1z" fill="rgb(222,180,106)"/>
<path d="M84 37h2v1h-2v-1z" fill="rgb(131,82,0)"/>
<path d="M24 38h1v1h-1v-1z" fill="rgb(16,16,16)"/>
<path d="M25 38h2v1h-2v-1z" fill="rgb(255,230,131)"/>
<path d="M27 38h1v1h-1v-1z" fill="rgb(222,180,106)"/>
<path d="M31 38h1v2h-2v-1h1v-1z" fill="rgb(222,180,106)"/>
<path d="M32 38h1v1h-1v-1z" fill="rgb(131,82,0)"/>
<path d="M36 38h1v1h-1v-1z" fill="rgb(222,180,106)"/>
<path d="M37 38h1v1h-1v-1z" fill="rgb(131,82,0)"/>
<path d="M42 38h3v1h-3v-1z" fill="rgb(255,230,131)"/>
<path d="M45 38h3v1h-3v-1z" fill="rgb(131,82,0)"/>
<path d="M73 38h2v1h-2v-1z" fill="rgb(131,82,0)"/>
<path d="M75 38h1v1h-1v-1z" fill="rgb(222,180,106)"/>
<path d="M85 38h1v1h-1v-1z" fill="rgb(222,180,106)"/>
<path d="M86 38h1v1h-1v-1z" fill="rgb(131,82,0)"/>
<path d="M25 39h3v1h-3v-1z" fill="rgb(16,16,16)"/>
<path d="M28 39h1v1h-1v-1z" fill="rgb(222,180,106)"/>
<path d="M29 39h1v1h-1v-1z" fill="rgb(16,16,16)"/>
<path d="M32 39h4v1h-4v-1z" fill="rgb(16,16,16)"/>
<path d="M36 39h1v1h-1v-1z" fill="rgb(255,255,255)"/>
<path d="M42 39h3v1h-3v-1z" fill="rgb(16,16,16)"/>
<path d="M45 39h3v1h-3v-1z" fill="rgb(255,230,131)"/>
<path d="M48 39h2v1h-2v-1z" fill="rgb(131,82,0)"/>
<path d="M72 39h1v1h-1v-1z" fill="rgb(131,82,0)"/>
<path d="M73 39h1v1h-1v-1z" fill="rgb(222,180,106)"/>
<path d="M86 39h1v1h-1v-1z" fill="rgb(222,180,106)"/>
<path d="M87 39h1v1h-1v-1z" fill="rgb(16,16,16)"/>
<path d="M28 40h1v1h-1v-1z" fill="rgb(16,16,16)"/>
<path d="M29 40h1v1h-1v-1z" fill="rgb(222,180,106)"/>
<path d="M30 40h2v1h-1v1h-2v-1h1v-1z" fill="rgb(16,16,16)"/>
<path d="M40 40h1v1h-1v-1z" fill="rgb(180,131,41)"/>
<path d="M45 40h3v1h-3v-1z" fill="rgb(16,16,16)"/>
<path d="M48 40h2v1h-2v-1z" fill="rgb(255,230,131)"/>
<path d="M50 40h1v1h-1v-1z" fill="rgb(131,82,0)"/>
<path d="M71 40h1v1h-1v-1z" fill="rgb(131,82,0)"/>
<path d="M72 40h1v1h-1v-1z" fill="rgb(222,180,106)"/>
<path d="M76 40h1v1h-1v-1z" fill="rgb(222,180,106)"/>
<path d="M77 40h5v1h-5v-1z" fill="rgb(16,16,16)"/>
<path d="M82 40h2v1h1v1h-2v-1h-1v-1z" fill="rgb(222,180,106)"/>
<path d="M87 40h1v1h-1v-1z" fill="rgb(222,180,106)"/>
<path d="M88 40h1v1h-1v-1z" fill="rgb(16,16,16)"/>
<path d="M27 41h1v1h1v1h-2v-2z" fill="rgb(16,16,16)"/>
<path d="M28 41h1v1h-1v-1z" fill="rgb(222,180,106)"/>
<path d="M32 41h1v1h-1v-1z" fill="rgb(16,16,16)"/>
<path d="M38 41h1v1h-1v-1z" fill="rgb(16,16,16)"/>
<path d="M39 41h1v1h-1v-1z" fill="rgb(131,82,0)"/>
<path d="M45 41h1v1h-1v-1z" fill="rgb(131,82,0)"/>
<path d="M46 41h2v1h-2v-1z" fill="transparent"/>
<path d="M48 41h3v1h-3v-1z" fill="rgb(16,16,16)"/>
<path d="M70 41h1v1h-1v-1z" fill="rgb(131,82,0)"/>
<path d="M74 41h1v1h-1v-1z" fill="rgb(222,180,106)"/>
<path d="M75 41h2v1h-2v-1z" fill="rgb(16,16,16)"/>
<path d="M82 41h1v1h2v1h-4v-1h1v-1z" fill="rgb(16,16,16)"/>
<path d="M88 41h1v1h-1v-1z" fill="rgb(222,180,106)"/>
<path d="M89 41h1v2h-1v-2z" fill="rgb(16,16,16)"/>
<path d="M33 42h5v1h-2v5h-1v-5h-2v-1z" fill="rgb(16,16,16)"/>
<path d="M46 42h2v1h-2v-1z" fill="rgb(131,82,0)"/>
<path d="M69 42h1v2h-1v-2z" fill="rgb(131,82,0)"/>
<path d="M70 42h1v1h-1v-1z" fill="rgb(222,180,106)"/>
<path d="M73 42h1v1h-1v-1z" fill="rgb(222,180,106)"/>
<path d="M74 42h1v1h-1v-1z" fill="rgb(16,16,16)"/>
<path d="M85 42h1v1h-1v-1z" fill="rgb(222,180,106)"/>
<path d="M48 43h2v1h-2v-1z" fill="rgb(131,82,0)"/>
<path d="M72 43h1v1h-1v-1z" fill="rgb(222,180,106)"/>
<path d="M73 43h1v1h-1v-1z" fill="rgb(16,16,16)"/>
<path d="M80 43h1v2h-1v-2z" fill="rgb(16,16,16)"/>
<path d="M81 43h1v1h-1v-1z" fill="rgb(131,82,0)"/>
<path d="M84 43h1v1h-1v-1z" fill="rgb(222,180,106)"/>
<path d="M85 43h1v1h-1v-1z" fill="rgb(16,16,16)"/>
<path d="M86 43h1v1h-1v-1z" fill="rgb(222,180,106)"/>
<path d="M89 43h1v1h-1v-1z" fill="rgb(222,180,106)"/>
<path d="M90 43h1v5h-1v-5z" fill="rgb(16,16,16)"/>
<path d="M47 44h2v1h5v1h5v1h4v1h2v1h2v1h1v1h1v6h-1v2h-1v1h-2v1h-3v-1h-1v-2h-1v-3h-1v-1
	h-1v2h-2v1h-1v1h-3v-1h-1v-1h-1v1h-1v-1h-1v-1h-1v-1h-1v-1h1v-1h-1v-1h-1v-1h-1v-2
	h1v-2h1v-1h1v-1z" fill="rgb(255,230,131)"/>
<path d="M49 44h1v1h-1v-1z" fill="rgb(222,180,106)"/>
<path d="M50 44h4v1h-4v-1z" fill="rgb(131,82,0)"/>
<path d="M68 44h1v2h-1v-2z" fill="rgb(131,82,0)"/>
<path d="M69 44h1v1h-1v-1z" fill="rgb(222,180,106)"/>
<path d="M72 44h1v2h-1v-2z" fill="rgb(16,16,16)"/>
<path d="M85 44h1v1h-1v-1z" fill="rgb(222,180,106)"/>
<path d="M86 44h1v4h-1v-4z" fill="rgb(16,16,16)"/>
<path d="M54 45h2v1h-2v-1z" fill="rgb(131,82,0)"/>
<path d="M56 45h4v1h-4v-1z" fill="rgb(16,16,16)"/>
<path d="M71 45h1v1h-1v-1z" fill="rgb(222,180,106)"/>
<path d="M79 45h1v3h-1v-3z" fill="rgb(16,16,16)"/>
<path d="M59 46h1v1h-1v-1z" fill="rgb(222,180,106)"/>
<path d="M60 46h4v1h-4v-1z" fill="rgb(16,16,16)"/>
<path d="M67 46h1v1h-1v-1z" fill="rgb(131,82,0)"/>
<path d="M68 46h3v2h-1v1h-2v-1h-1v-1h1v-1z" fill="rgb(222,180,106)"/>
<path d="M71 46h1v2h-1v-2z" fill="rgb(16,16,16)"/>
<path d="M63 47h1v1h-1v-1z" fill="rgb(222,180,106)"/>
<path d="M64 47h2v1h-2v-1z" fill="rgb(16,16,16)"/>
<path d="M66 47h1v1h-1v-1z" fill="rgb(131,82,0)"/>
<path d="M80 47h1v1h-1v-1z" fill="rgb(222,180,106)"/>
<path d="M84 47h1v1h-1v-1z" fill="rgb(222,180,106)"/>
<path d="M85 47h1v1h-1v-1z" fill="rgb(131,82,0)"/>
<path d="M89 47h1v1h-1v-1z" fill="rgb(222,180,106)"/>
<path d="M34 48h1v6h-1v-6z" fill="rgb(16,16,16)"/>
<path d="M65 48h1v1h-1v-1z" fill="rgb(222,180,106)"/>
<path d="M66 48h2v1h-2v-1z" fill="rgb(16,16,16)"/>
<path d="M70 48h1v1h-1v-1z" fill="rgb(16,16,16)"/>
<path d="M80 48h1v2h-1v-2z" fill="rgb(16,16,16)"/>
<path d="M83 48h3v1h-3v-1z" fill="rgb(16,16,16)"/>
<path d="M89 48h1v2h-1v-2z" fill="rgb(16,16,16)"/>
<path d="M67 49h1v1h-1v-1z" fill="rgb(222,180,106)"/>
<path d="M68 49h2v3h-1v-2h-1v-1z" fill="rgb(16,16,16)"/>
<path d="M81 49h1v1h-1v-1z" fill="rgb(222,180,106)"/>
<path d="M88 49h1v1h-1v-1z" fill="rgb(222,180,106)"/>
<path d="M68 50h1v1h-1v-1z" fill="rgb(222,180,106)"/>
<path d="M81 50h2v1h-2v-1z" fill="rgb(16,16,16)"/>
<path d="M86 50h1v1h-1v-1z" fill="rgb(222,180,106)"/>
<path d="M87 50h2v1h-2v-1z" fill="rgb(16,16,16)"/>
<path d="M36 51h1v3h-1v-3z" fill="rgb(131,82,0)"/>
<path d="M44 51h1v1h-1v-1z" fill="rgb(255,230,131)"/>
<path d="M45 51h1v1h-1v-1z" fill="rgb(222,180,106)"/>
<path d="M83 51h4v1h-4v-1z" fill="rgb(16,16,16)"/>
<path d="M45 52h1v1h-1v-1z" fill="rgb(255,230,131)"/>
<path d="M46 52h1v1h-1v-1z" fill="rgb(222,180,106)"/>
<path d="M69 52h1v2h1v5h-1v5h1v2h1v4h-1v3h-1v4h-1v1h-1v-2h-1v2h-1v-2h-1v2h-1v-3h1v-1h1
	v-2h1v-5h-1v-1h-1v-1h-2v-1h-1v-2h-1v-2h1v1h3v-1h2v-1h1v-2h1v-5z" fill="rgb(222,180,106)"/>
<path d="M70 52h1v2h-1v-2z" fill="rgb(16,16,16)"/>
<path d="M44 53h1v1h-1v-1z" fill="rgb(255,230,131)"/>
<path d="M45 53h1v1h-1v-1z" fill="rgb(222,180,106)"/>
<path d="M35 54h1v3h-1v-3z" fill="rgb(16,16,16)"/>
<path d="M36 54h1v2h1v1h1v1h1v1h1v2h1v4h1v8h-2v-1h-2v-7h-1v-6h-1v-2h-1v-3z" fill="rgb(222,180,106)"/>
<path d="M37 54h1v2h-1v-2z" fill="rgb(131,82,0)"/>
<path d="M45 54h1v1h-1v-1z" fill="rgb(255,230,131)"/>
<path d="M58 54h1v1h-1v-1z" fill="rgb(131,82,0)"/>
<path d="M71 54h1v5h-1v-5z" fill="rgb(16,16,16)"/>
<path d="M51 55h1v1h-1v-1z" fill="rgb(222,180,106)"/>
<path d="M58 55h1v2h-3v-1h2v-1z" fill="rgb(222,180,106)"/>
<path d="M59 55h1v3h-1v-3z" fill="rgb(131,82,0)"/>
<path d="M38 56h1v1h-1v-1z" fill="rgb(131,82,0)"/>
<path d="M50 56h1v3h2v1h-2v2h-1v-6z" fill="rgb(16,16,16)"/>
<path d="M36 57h1v2h-1v-2z" fill="rgb(16,16,16)"/>
<path d="M39 57h1v1h-1v-1z" fill="rgb(131,82,0)"/>
<path d="M41 57h1v1h-1v-1z" fill="rgb(131,82,0)"/>
<path d="M51 57h1v1h1v1h-2v-2z" fill="rgb(222,180,106)"/>
<path d="M55 57h1v1h-1v-1z" fill="rgb(222,180,106)"/>
<path d="M56 57h3v1h-3v-1z" fill="rgb(16,16,16)"/>
<path d="M40 58h1v1h-1v-1z" fill="rgb(131,82,0)"/>
<path d="M41 58h1v3h-1v-3z" fill="rgb(16,16,16)"/>
<path d="M53 58h3v1h-1v3h-1v-3h-1v-1z" fill="rgb(16,16,16)"/>
<path d="M56 58h3v1h1v3h1v2h1v1h1v2h-1v3h-1v2h-1v1h-1v1h-2v-2h-1v2h-1v-3h2v-2h1v-4h-1v-1
	h-1v-2h-1v-3h1v-1z" fill="rgb(222,180,106)"/>
<path d="M59 58h1v1h-1v-1z" fill="rgb(16,16,16)"/>
<path d="M60 58h1v1h-1v-1z" fill="rgb(222,180,106)"/>
<path d="M37 59h1v6h-1v-6z" fill="rgb(16,16,16)"/>
<path d="M60 59h1v3h-1v-3z" fill="rgb(16,16,16)"/>
<path d="M70 59h1v5h-1v-5z" fill="rgb(16,16,16)"/>
<path d="M42 61h1v4h-1v-4z" fill="rgb(16,16,16)"/>
<path d="M49 62h1v13h-1v-13z" fill="rgb(16,16,16)"/>
<path d="M55 62h1v2h-1v-2z" fill="rgb(16,16,16)"/>
<path d="M61 62h1v2h-1v-2z" fill="rgb(16,16,16)"/>
<path d="M56 64h1v1h-1v-1z" fill="rgb(16,16,16)"/>
<path d="M62 64h1v1h-1v-1z" fill="rgb(16,16,16)"/>
<path d="M71 64h1v2h-1v-2z" fill="rgb(16,16,16)"/>
<path d="M38 65h1v8h-1v-8z" fill="rgb(16,16,16)"/>
<path d="M43 65h1v8h-1v-8z" fill="rgb(16,16,16)"/>
<path d="M57 65h1v4h-1v-4z" fill="rgb(16,16,16)"/>
<path d="M63 65h2v1h-1v1h-1v-2z" fill="rgb(16,16,16)"/>
<path d="M65 66h1v1h-1v-1z" fill="rgb(16,16,16)"/>
<path d="M72 66h1v4h-1v-4z" fill="rgb(16,16,16)"/>
<path d="M62 67h1v3h-1v-3z" fill="rgb(16,16,16)"/>
<path d="M66 67h1v5h-1v-5z" fill="rgb(16,16,16)"/>
<path d="M56 69h1v2h-2v-1h1v-1z" fill="rgb(16,16,16)"/>
<path d="M61 70h1v2h-1v-2z" fill="rgb(16,16,16)"/>
<path d="M71 70h1v3h-1v-3z" fill="rgb(16,16,16)"/>
<path d="M54 71h1v3h-1v-3z" fill="rgb(16,16,16)"/>
<path d="M39 72h2v1h1v1h-4v-1h1v-1z" fill="rgb(255,230,131)"/>
<path d="M56 72h1v2h-1v-2z" fill="rgb(131,82,0)"/>
<path d="M60 72h1v1h-1v-1z" fill="rgb(16,16,16)"/>
<path d="M65 72h1v2h-1v-2z" fill="rgb(16,16,16)"/>
<path d="M36 73h2v1h-2v-1z" fill="rgb(16,16,16)"/>
<path d="M42 73h1v1h-1v-1z" fill="rgb(16,16,16)"/>
<path d="M59 73h1v1h-1v-1z" fill="rgb(16,16,16)"/>
<path d="M70 73h1v4h-1v-4z" fill="rgb(16,16,16)"/>
<path d="M35 74h1v3h-1v-3z" fill="rgb(16,16,16)"/>
<path d="M36 74h2v1h-1v2h-1v-3z" fill="rgb(222,180,106)"/>
<path d="M38 74h1v1h-1v-1z" fill="rgb(131,82,0)"/>
<path d="M39 74h1v1h-1v-1z" fill="rgb(222,180,106)"/>
<path d="M40 74h2v1h-2v-1z" fill="rgb(16,16,16)"/>
<path d="M42 74h4v1h1v1h-6v-1h1v-1z" fill="rgb(255,230,131)"/>
<path d="M55 74h4v1h-4v-1z" fill="rgb(16,16,16)"/>
<path d="M64 74h1v1h-1v-1z" fill="rgb(16,16,16)"/>
<path d="M37 75h1v2h-1v-2z" fill="rgb(131,82,0)"/>
<path d="M38 75h1v2h-1v-2z" fill="rgb(222,180,106)"/>
<path d="M39 75h1v3h-4v-1h3v-2z" fill="rgb(16,16,16)"/>
<path d="M40 75h1v1h1v1h-1v1h-1v-3z" fill="rgb(222,180,106)"/>
<path d="M48 75h1v3h-1v-3z" fill="rgb(16,16,16)"/>
<path d="M63 75h1v3h-1v-3z" fill="rgb(16,16,16)"/>
<path d="M42 76h1v1h-1v-1z" fill="rgb(131,82,0)"/>
<path d="M43 76h2v1h-1v2h-2v-2h1v-1z" fill="rgb(222,180,106)"/>
<path d="M45 76h1v1h-1v-1z" fill="rgb(131,82,0)"/>
<path d="M65 76h1v2h-1v-2z" fill="rgb(131,82,0)"/>
<path d="M67 76h1v2h-1v-2z" fill="rgb(131,82,0)"/>
<path d="M41 77h1v1h-1v-1z" fill="rgb(131,82,0)"/>
<path d="M44 77h1v2h-1v-2z" fill="rgb(131,82,0)"/>
<path d="M69 77h1v1h-1v-1z" fill="rgb(16,16,16)"/>
<path d="M40 78h2v1h-2v-1z" fill="rgb(16,16,16)"/>
<path d="M47 78h1v1h-1v-1z" fill="rgb(16,16,16)"/>
<path d="M64 78h5v1h-5v-1z" fill="rgb(16,16,16)"/>
<path d="M42 79h5v1h-5v-1z" fill="rgb(16,16,16)"/>
</svg>
