<?xml version="1.0" encoding="utf-8"?>
<!-- generated at drububu.com  -->
<!DOCTYPE svg PUBLIC "-//W3C//DTD SVG 1.1//EN" "http://www.w3.org/Graphics/SVG/1.1/DTD/svg11.dtd">
<svg version="1.1" preserveAspectRatio="xMinYMin meet" xmlns="http://www.w3.org/2000/svg" xmlns:xlink="http://www.w3.org/1999/xlink" x="0px" y="0px" width="96px" height="96px" viewBox="0 0 96 96">
<path d="M0 0h96v96h-96v-96z" fill="transparent"/>
<path d="M52 24h1v2h-1v-2z" fill="rgb(123,123,123)"/>
<path d="M53 24h1v4h1v-1h1v2h-1v1h1v-1h2v-1h1v2h-2v1h-3v-1h-1v-2h-1v-2h1v-2z" fill="rgb(16,16,16)"/>
<path d="M56 24h1v1h-1v-1z" fill="rgb(123,123,123)"/>
<path d="M57 24h1v2h-1v1h-1v-2h1v-1z" fill="rgb(16,16,16)"/>
<path d="M55 26h1v1h-1v-1z" fill="rgb(123,123,123)"/>
<path d="M56 28h2v1h-2v-1z" fill="rgb(123,123,123)"/>
<path d="M39 29h1v1h-1v-1z" fill="rgb(148,90,16)"/>
<path d="M41 29h1v1h-1v-1z" fill="rgb(148,90,16)"/>
<path d="M44 29h8v1h-8v-1z" fill="rgb(148,90,16)"/>
<path d="M55 29h1v1h-1v-1z" fill="transparent"/>
<path d="M38 30h1v2h-1v-2z" fill="rgb(148,90,16)"/>
<path d="M39 30h1v2h-1v-2z" fill="rgb(230,164,82)"/>
<path d="M40 30h1v1h-1v-1z" fill="rgb(148,90,16)"/>
<path d="M41 30h1v1h-1v-1z" fill="rgb(230,164,82)"/>
<path d="M42 30h2v1h-2v-1z" fill="rgb(16,16,16)"/>
<path d="M44 30h8v1h2v1h2v1h1v2h-2v1h-1v-1h-4v1h-1v1h-1v2h1v1h-2v-1h-1v-1h-2v-2h-1v-1h-1
	v-1h-3v-1h1v-1h2v-1h2v-1z" fill="rgb(255,213,74)"/>
<path d="M52 30h2v1h-2v-1z" fill="rgb(148,90,16)"/>
<path d="M40 31h2v1h-2v-1z" fill="rgb(16,16,16)"/>
<path d="M44 31h4v1h1v1h-1v1h-4v-1h-1v-1h1v-1z" fill="rgb(255,230,164)"/>
<path d="M54 31h2v1h-2v-1z" fill="rgb(148,90,16)"/>
<path d="M37 32h1v1h-1v-1z" fill="rgb(148,90,16)"/>
<path d="M38 32h1v1h-1v-1z" fill="rgb(230,164,82)"/>
<path d="M39 32h1v1h-1v-1z" fill="rgb(16,16,16)"/>
<path d="M56 32h1v1h-1v-1z" fill="rgb(148,90,16)"/>
<path d="M36 33h1v1h-1v-1z" fill="rgb(148,90,16)"/>
<path d="M37 33h1v2h-1v5h1v2h-2v1h-1v-2h-1v-4h1v-2h1v-1h1v-1z" fill="rgb(230,164,82)"/>
<path d="M38 33h1v2h-1v-2z" fill="rgb(16,16,16)"/>
<path d="M57 33h1v2h-1v-2z" fill="rgb(148,90,16)"/>
<path d="M58 33h1v1h-1v-1z" fill="rgb(16,16,16)"/>
<path d="M35 34h1v1h-1v-1z" fill="rgb(148,90,16)"/>
<path d="M39 34h3v1h-3v-1z" fill="rgb(222,180,82)"/>
<path d="M58 34h1v1h2v1h-1v2h1v2h1v3h1v3h-2v1h-3v-1h-2v-3h1v-6h-1v-1h1v-1h1v-1z" fill="rgb(255,213,74)"/>
<path d="M59 34h1v1h-1v-1z" fill="rgb(16,16,16)"/>
<path d="M60 34h1v1h-1v-1z" fill="rgb(148,90,16)"/>
<path d="M61 34h1v2h-1v-2z" fill="rgb(16,16,16)"/>
<path d="M34 35h1v2h-1v-2z" fill="rgb(148,90,16)"/>
<path d="M37 35h1v5h-1v-5z" fill="rgb(16,16,16)"/>
<path d="M38 35h1v1h-1v-1z" fill="rgb(222,180,82)"/>
<path d="M39 35h3v1h1v2h-1v1h-3v-1h-1v-2h1v-1z" fill="rgb(255,255,255)"/>
<path d="M42 35h1v1h-1v-1z" fill="rgb(222,180,82)"/>
<path d="M50 35h4v1h-4v-1z" fill="rgb(222,180,82)"/>
<path d="M55 35h1v2h-1v-2z" fill="rgb(148,90,16)"/>
<path d="M56 35h1v1h-1v-1z" fill="rgb(16,16,16)"/>
<path d="M40 36h1v1h-1v-1z" fill="rgb(16,16,16)"/>
<path d="M43 36h1v2h-1v-2z" fill="rgb(222,180,82)"/>
<path d="M49 36h1v1h-1v-1z" fill="rgb(222,180,82)"/>
<path d="M50 36h4v1h1v2h-1v1h-4v-1h-1v-2h1v-1z" fill="rgb(255,255,255)"/>
<path d="M54 36h1v1h-1v-1z" fill="rgb(222,180,82)"/>
<path d="M60 36h1v2h-1v-2z" fill="rgb(16,16,16)"/>
<path d="M33 37h1v4h-1v-4z" fill="rgb(148,90,16)"/>
<path d="M48 37h1v2h-1v-2z" fill="rgb(222,180,82)"/>
<path d="M51 37h1v1h-1v-1z" fill="rgb(16,16,16)"/>
<path d="M55 37h1v2h-1v-2z" fill="rgb(222,180,82)"/>
<path d="M56 37h1v1h-1v-1z" fill="rgb(148,90,16)"/>
<path d="M38 38h1v1h-1v-1z" fill="rgb(222,180,82)"/>
<path d="M42 38h1v1h-1v-1z" fill="rgb(222,180,82)"/>
<path d="M43 38h3v1h-3v-1z" fill="rgb(131,90,0)"/>
<path d="M56 38h1v5h-1v-5z" fill="rgb(16,16,16)"/>
<path d="M61 38h1v2h-1v-2z" fill="rgb(16,16,16)"/>
<path d="M38 39h1v1h-1v-1z" fill="rgb(230,164,82)"/>
<path d="M39 39h3v1h-3v-1z" fill="rgb(222,180,82)"/>
<path d="M42 39h1v1h-1v-1z" fill="rgb(131,90,0)"/>
<path d="M43 39h3v1h-1v1h-1v1h-1v1h4v-1h2v2h-1v2h-1v2h-2v1h-7v-1h-2v-1h-1v-3h1v-1h2v-1h2
	v-1h1v1h1v-1h1v-2z" fill="rgb(255,238,189)"/>
<path d="M46 39h1v1h-1v-1z" fill="rgb(131,90,0)"/>
<path d="M49 39h1v1h-1v-1z" fill="rgb(222,180,82)"/>
<path d="M54 39h1v1h-1v-1z" fill="rgb(222,180,82)"/>
<path d="M55 39h1v4h-1v2h-3v1h-2v-1h1v-1h1v-2h-1v-1h3v-1h1v-1z" fill="rgb(230,164,82)"/>
<path d="M38 40h1v1h-1v-1z" fill="rgb(16,16,16)"/>
<path d="M39 40h1v1h-1v-1z" fill="rgb(230,164,82)"/>
<path d="M40 40h2v1h-2v-1z" fill="rgb(131,90,0)"/>
<path d="M42 40h1v1h-1v-1z" fill="rgb(222,180,82)"/>
<path d="M45 40h2v2h-1v-1h-1v-1z" fill="rgb(222,180,82)"/>
<path d="M47 40h1v1h-1v-1z" fill="rgb(131,90,0)"/>
<path d="M48 40h2v1h-2v-1z" fill="rgb(230,164,82)"/>
<path d="M50 40h4v1h-4v-1z" fill="rgb(222,180,82)"/>
<path d="M62 40h1v3h-1v-3z" fill="rgb(16,16,16)"/>
<path d="M34 41h1v2h-1v-2z" fill="rgb(148,90,16)"/>
<path d="M38 41h2v1h-2v-1z" fill="rgb(131,90,0)"/>
<path d="M41 41h1v1h-1v-1z" fill="rgb(222,180,82)"/>
<path d="M44 41h1v1h-1v-1z" fill="rgb(222,180,82)"/>
<path d="M45 41h1v1h-1v-1z" fill="rgb(131,90,0)"/>
<path d="M47 41h1v1h-1v-1z" fill="rgb(246,222,139)"/>
<path d="M48 41h3v1h-3v-1z" fill="rgb(131,90,0)"/>
<path d="M36 42h2v1h-2v-1z" fill="rgb(131,90,0)"/>
<path d="M43 42h1v1h-1v-1z" fill="rgb(222,180,82)"/>
<path d="M44 42h1v1h-1v-1z" fill="rgb(131,90,0)"/>
<path d="M45 42h1v1h-1v-1z" fill="rgb(222,180,82)"/>
<path d="M46 42h1v1h-1v-1z" fill="rgb(246,222,139)"/>
<path d="M49 42h1v2h-1v-2z" fill="rgb(246,222,139)"/>
<path d="M50 42h1v2h-1v-2z" fill="rgb(222,180,82)"/>
<path d="M51 42h1v2h-1v-2z" fill="rgb(16,16,16)"/>
<path d="M35 43h1v1h-1v-1z" fill="rgb(131,90,0)"/>
<path d="M55 43h1v4h-1v-4z" fill="rgb(16,16,16)"/>
<path d="M63 43h1v4h-1v-4z" fill="rgb(16,16,16)"/>
<path d="M34 44h1v2h-1v-2z" fill="rgb(131,90,0)"/>
<path d="M48 44h1v1h-1v-1z" fill="rgb(246,222,139)"/>
<path d="M49 44h1v1h-1v-1z" fill="rgb(222,180,82)"/>
<path d="M50 44h1v1h-1v-1z" fill="rgb(16,16,16)"/>
<path d="M48 45h1v2h-1v-2z" fill="rgb(222,180,82)"/>
<path d="M49 45h1v2h-1v-2z" fill="rgb(16,16,16)"/>
<path d="M52 45h3v1h-3v-1z" fill="rgb(148,90,16)"/>
<path d="M34 46h1v2h-1v-2z" fill="rgb(16,16,16)"/>
<path d="M47 46h1v1h-1v-1z" fill="rgb(246,222,139)"/>
<path d="M50 46h2v1h-2v-1z" fill="rgb(148,90,16)"/>
<path d="M52 46h3v3h1v1h1v-1h-1v-3h2v1h3v-1h2v1h-1v2h-1v1h-1v1h-2v1h2v2h1v4h-1v2h-1v2h-1
	v1h-2v1h-3v1h-10v-1h-2v-1h-2v-1h-2v-1h-1v-2h1v1h2v1h8v-1h4v-1h3v-1h2v-1h1v-1
	h-1v-1h-2v-1h-2v-1h-2v-1h-2v-1h-2v-1h2v-1h1v-2h3v-1z" fill="rgb(230,164,82)"/>
<path d="M35 47h1v1h-1v-1z" fill="rgb(222,180,82)"/>
<path d="M47 47h1v2h-2v-1h1v-1z" fill="rgb(222,180,82)"/>
<path d="M48 47h1v2h-1v-2z" fill="rgb(16,16,16)"/>
<path d="M55 47h1v2h-1v-2z" fill="rgb(148,90,16)"/>
<path d="M62 47h1v2h-1v-2z" fill="rgb(16,16,16)"/>
<path d="M35 48h1v1h-1v-1z" fill="rgb(16,16,16)"/>
<path d="M36 48h2v1h-2v-1z" fill="rgb(222,180,82)"/>
<path d="M45 48h1v1h-1v-1z" fill="rgb(246,222,139)"/>
<path d="M36 49h2v1h-2v-1z" fill="rgb(16,16,16)"/>
<path d="M38 49h8v1h-8v-1z" fill="rgb(222,180,82)"/>
<path d="M46 49h2v1h-2v-1z" fill="rgb(16,16,16)"/>
<path d="M56 49h1v1h-1v-1z" fill="rgb(148,90,16)"/>
<path d="M61 49h1v1h-1v-1z" fill="rgb(16,16,16)"/>
<path d="M36 50h1v1h-1v-1z" fill="rgb(148,90,16)"/>
<path d="M37 50h1v1h10v1h2v1h2v1h2v1h2v1h1v1h-1v1h-2v1h-3v1h-4v1h-8v-1h-2v-1h-2v-5h1v-3
	h1v-1z" fill="rgb(255,213,74)"/>
<path d="M38 50h8v1h-8v-1z" fill="rgb(16,16,16)"/>
<path d="M60 50h1v1h-1v-1z" fill="rgb(16,16,16)"/>
<path d="M35 51h1v3h-1v-3z" fill="rgb(148,90,16)"/>
<path d="M58 51h1v1h-1v-1z" fill="rgb(148,90,16)"/>
<path d="M59 51h1v1h-1v-1z" fill="rgb(16,16,16)"/>
<path d="M60 51h1v3h-1v-3z" fill="rgb(148,90,16)"/>
<path d="M34 54h1v5h-1v-5z" fill="rgb(148,90,16)"/>
<path d="M61 54h1v1h2v1h-2v2h-1v-4z" fill="rgb(148,90,16)"/>
<path d="M64 54h2v1h-2v-1z" fill="rgb(148,90,16)"/>
<path d="M64 55h2v2h-1v2h-1v1h-2v1h-1v1h-1v-2h1v-2h1v-2h2v-1z" fill="rgb(230,164,82)"/>
<path d="M66 55h1v2h-1v-2z" fill="rgb(148,90,16)"/>
<path d="M65 57h1v2h-1v-2z" fill="rgb(148,90,16)"/>
<path d="M60 58h1v1h-1v-1z" fill="rgb(148,90,16)"/>
<path d="M35 59h1v2h-1v-2z" fill="rgb(148,90,16)"/>
<path d="M60 59h1v1h-1v-1z" fill="rgb(16,16,16)"/>
<path d="M64 59h1v1h-1v-1z" fill="rgb(148,90,16)"/>
<path d="M59 60h1v1h-1v-1z" fill="rgb(148,90,16)"/>
<path d="M62 60h2v1h-2v-1z" fill="rgb(148,90,16)"/>
<path d="M36 61h1v1h-1v-1z" fill="rgb(16,16,16)"/>
<path d="M59 61h1v1h-1v-1z" fill="rgb(16,16,16)"/>
<path d="M61 61h1v1h-1v-1z" fill="rgb(148,90,16)"/>
<path d="M37 62h2v1h-2v-1z" fill="rgb(16,16,16)"/>
<path d="M58 62h1v1h-1v-1z" fill="rgb(16,16,16)"/>
<path d="M59 62h2v1h-2v-1z" fill="rgb(148,90,16)"/>
<path d="M34 63h3v1h-3v-1z" fill="rgb(131,90,0)"/>
<path d="M37 63h2v1h2v1h2v1h-1v1h-1v-1h-1v-1h-2v-1h-1v-1z" fill="rgb(222,180,82)"/>
<path d="M39 63h2v1h-2v-1z" fill="rgb(16,16,16)"/>
<path d="M56 63h2v1h-2v-1z" fill="rgb(16,16,16)"/>
<path d="M33 64h1v1h-1v-1z" fill="rgb(131,90,0)"/>
<path d="M34 64h4v1h2v1h-2v1h-1v-1h-1v-1h-2v-1z" fill="rgb(255,238,189)"/>
<path d="M41 64h2v1h-2v-1z" fill="rgb(16,16,16)"/>
<path d="M53 64h3v1h-3v-1z" fill="rgb(16,16,16)"/>
<path d="M56 64h2v1h2v1h-6v1h-1v-2h3v-1z" fill="rgb(222,180,82)"/>
<path d="M58 64h2v1h-2v-1z" fill="rgb(16,16,16)"/>
<path d="M34 65h2v1h-2v-1z" fill="rgb(16,16,16)"/>
<path d="M43 65h10v1h-10v-1z" fill="rgb(16,16,16)"/>
<path d="M60 65h2v1h-2v-1z" fill="rgb(16,16,16)"/>
<path d="M36 66h1v1h-1v-1z" fill="rgb(131,90,0)"/>
<path d="M38 66h3v1h-3v-1z" fill="rgb(16,16,16)"/>
<path d="M42 66h1v1h-1v-1z" fill="rgb(16,16,16)"/>
<path d="M52 66h1v2h-1v-2z" fill="rgb(131,90,0)"/>
<path d="M54 66h7v1h-3v1h-2v-1h-2v-1z" fill="rgb(255,238,189)"/>
<path d="M61 66h1v1h-1v-1z" fill="rgb(222,180,82)"/>
<path d="M62 66h1v1h-1v-1z" fill="rgb(16,16,16)"/>
<path d="M36 67h2v1h-2v-1z" fill="rgb(16,16,16)"/>
<path d="M41 67h1v1h-1v-1z" fill="rgb(16,16,16)"/>
<path d="M53 67h1v1h-1v-1z" fill="rgb(255,238,189)"/>
<path d="M54 67h1v1h-1v-1z" fill="rgb(16,16,16)"/>
<path d="M55 67h1v1h-1v-1z" fill="rgb(131,90,0)"/>
<path d="M58 67h1v2h-1v-2z" fill="rgb(16,16,16)"/>
<path d="M59 67h3v1h-3v-1z" fill="rgb(131,90,0)"/>
<path d="M53 68h1v1h-1v-1z" fill="rgb(16,16,16)"/>
<path d="M56 68h2v1h-2v-1z" fill="rgb(131,90,0)"/>
</svg>
