<?xml version="1.0" encoding="utf-8"?>
<!-- generated at drububu.com  -->
<!DOCTYPE svg PUBLIC "-//W3C//DTD SVG 1.1//EN" "http://www.w3.org/Graphics/SVG/1.1/DTD/svg11.dtd">
<svg version="1.1" preserveAspectRatio="xMinYMin meet" xmlns="http://www.w3.org/2000/svg" xmlns:xlink="http://www.w3.org/1999/xlink" x="0px" y="0px" width="96px" height="96px" viewBox="0 0 96 96">
<path d="M0 0h96v96h-96v-96z" fill="transparent"/>
<path d="M45 19h1v1h-1v-1z" fill="rgb(49,82,106)"/>
<path d="M44 20h1v2h-1v-2z" fill="rgb(49,82,106)"/>
<path d="M45 20h1v6h-1v1h1v-1h2v-1h1v-1h1v-1h1v-1h1v-1h1v3h-1v3h-1v2h3v1h-1v1h-2v1h-1v1
	h-2v1h-1v-2h-2v1h-2v1h-1v1h-4v-2h1v1h2v-2h1v-1h1v-1h1v-3h-1v-3h1v-2h1v-2z" fill="rgb(139,172,213)"/>
<path d="M46 20h1v5h-1v-5z" fill="rgb(16,16,16)"/>
<path d="M52 20h2v1h-2v-1z" fill="rgb(49,82,106)"/>
<path d="M38 21h1v1h-1v-1z" fill="rgb(16,16,16)"/>
<path d="M51 21h1v1h-1v-1z" fill="rgb(49,82,106)"/>
<path d="M53 21h1v3h-1v-3z" fill="rgb(16,16,16)"/>
<path d="M37 22h1v3h-1v-3z" fill="rgb(49,82,106)"/>
<path d="M38 22h1v2h1v1h1v1h-1v1h-2v1h-1v-3h1v-3z" fill="rgb(123,123,180)"/>
<path d="M39 22h1v2h-1v-2z" fill="rgb(16,16,16)"/>
<path d="M43 22h1v2h-1v-2z" fill="rgb(49,82,106)"/>
<path d="M50 22h1v1h-1v-1z" fill="rgb(49,82,106)"/>
<path d="M49 23h1v1h-1v-1z" fill="rgb(49,82,106)"/>
<path d="M40 24h1v1h-1v-1z" fill="rgb(16,16,16)"/>
<path d="M42 24h1v2h-1v-2z" fill="rgb(49,82,106)"/>
<path d="M48 24h1v1h-1v-1z" fill="rgb(49,82,106)"/>
<path d="M52 24h1v3h-1v-3z" fill="rgb(16,16,16)"/>
<path d="M36 25h1v5h-1v-5z" fill="rgb(49,82,106)"/>
<path d="M41 25h1v1h-1v-1z" fill="rgb(16,16,16)"/>
<path d="M46 25h2v1h-2v-1z" fill="rgb(49,82,106)"/>
<path d="M40 26h3v1h1v3h-1v1h-1v1h-1v-1h-2v1h-3v-2h1v-2h1v-1h2v-1z" fill="rgb(164,197,255)"/>
<path d="M45 26h1v1h-1v-1z" fill="rgb(49,82,106)"/>
<path d="M51 27h1v1h-1v-1z" fill="rgb(16,16,16)"/>
<path d="M54 27h4v1h-4v-1z" fill="rgb(49,82,106)"/>
<path d="M51 28h3v1h-3v-1z" fill="rgb(49,82,106)"/>
<path d="M54 28h1v1h-1v-1z" fill="rgb(139,172,213)"/>
<path d="M55 28h2v1h-1v1h-1v1h-1v1h-1v1h-1v1h-1v1h-1v2h-1v1h-2v1h2v-1h1v1h1v1h1v1h-2v1
	h-1v2h1v1h1v1h1v1h2v-1h2v1h-1v1h-2v1h-3v-1h-2v-1h-2v-1h-2v-1h-2v-1h-1v-2h2v-1h2
	v-1h1v-1h-1v-1h-3v-1h3v-1h1v-1h1v-1h1v-1h2v-1h1v-1h2v-1h1v-1h1v-1z" fill="rgb(123,123,180)"/>
<path d="M57 28h1v1h-1v-1z" fill="rgb(16,16,16)"/>
<path d="M56 29h1v1h-1v-1z" fill="rgb(16,16,16)"/>
<path d="M35 30h1v2h1v1h-1v5h-1v-8z" fill="rgb(16,16,16)"/>
<path d="M55 30h1v1h-1v-1z" fill="rgb(16,16,16)"/>
<path d="M39 31h2v1h-2v-1z" fill="rgb(222,24,24)"/>
<path d="M54 31h1v1h-1v-1z" fill="rgb(16,16,16)"/>
<path d="M37 32h1v1h-1v-1z" fill="rgb(139,172,213)"/>
<path d="M38 32h1v1h-1v-1z" fill="rgb(222,24,24)"/>
<path d="M39 32h1v1h-1v-1z" fill="rgb(255,255,255)"/>
<path d="M40 32h1v1h-1v-1z" fill="rgb(139,0,0)"/>
<path d="M45 32h2v1h-2v-1z" fill="rgb(16,16,16)"/>
<path d="M53 32h1v1h-1v-1z" fill="rgb(16,16,16)"/>
<path d="M36 33h1v1h-1v-1z" fill="rgb(213,213,213)"/>
<path d="M37 33h1v1h-1v-1z" fill="rgb(49,82,106)"/>
<path d="M39 33h1v1h-1v-1z" fill="rgb(222,24,24)"/>
<path d="M40 33h1v1h-1v-1z" fill="rgb(246,106,106)"/>
<path d="M43 33h2v1h-2v-1z" fill="rgb(16,16,16)"/>
<path d="M45 33h1v1h-1v-1z" fill="rgb(213,213,213)"/>
<path d="M46 33h1v2h-1v-2z" fill="rgb(49,82,106)"/>
<path d="M52 33h1v1h-1v-1z" fill="rgb(16,16,16)"/>
<path d="M72 33h1v1h-1v-1z" fill="rgb(49,82,106)"/>
<path d="M36 34h1v1h-1v-1z" fill="rgb(255,255,255)"/>
<path d="M37 34h1v1h-1v-1z" fill="rgb(222,24,24)"/>
<path d="M42 34h1v1h-1v-1z" fill="rgb(49,82,106)"/>
<path d="M43 34h1v1h-1v-1z" fill="rgb(255,255,255)"/>
<path d="M44 34h1v1h-1v-1z" fill="rgb(213,213,213)"/>
<path d="M45 34h1v2h-2v-1h1v-1z" fill="rgb(255,255,255)"/>
<path d="M51 34h1v1h-1v-1z" fill="rgb(16,16,16)"/>
<path d="M71 34h1v2h-1v-2z" fill="rgb(49,82,106)"/>
<path d="M72 34h1v9h-1v2h-1v1h-2v-5h1v-2h1v-3h1v-2z" fill="rgb(139,172,213)"/>
<path d="M73 34h1v9h-1v-9z" fill="rgb(49,82,106)"/>
<path d="M36 35h1v1h-1v-1z" fill="rgb(49,82,106)"/>
<path d="M37 35h1v1h-1v-1z" fill="rgb(139,0,0)"/>
<path d="M38 35h2v1h-2v-1z" fill="rgb(115,106,16)"/>
<path d="M40 35h1v1h-1v-1z" fill="rgb(123,123,180)"/>
<path d="M41 35h1v1h-1v-1z" fill="rgb(49,82,106)"/>
<path d="M42 35h1v1h-1v-1z" fill="rgb(213,213,213)"/>
<path d="M43 35h1v1h-1v-1z" fill="rgb(222,24,24)"/>
<path d="M50 35h1v2h-1v-2z" fill="rgb(16,16,16)"/>
<path d="M29 36h3v1h-3v-1z" fill="rgb(49,82,106)"/>
<path d="M36 36h1v1h-1v-1z" fill="rgb(123,123,180)"/>
<path d="M37 36h1v1h-1v-1z" fill="rgb(115,106,16)"/>
<path d="M38 36h2v1h-1v1h-1v1h2v1h-2v1h-4v1h-1v-2h1v-1h2v-1h1v-1h1v-1z" fill="rgb(255,255,164)"/>
<path d="M40 36h1v1h-1v-1z" fill="rgb(115,106,16)"/>
<path d="M41 36h1v1h-1v-1z" fill="rgb(123,123,180)"/>
<path d="M42 36h1v1h-1v-1z" fill="rgb(49,82,106)"/>
<path d="M43 36h1v1h-1v-1z" fill="rgb(139,0,0)"/>
<path d="M44 36h1v1h-1v-1z" fill="rgb(49,82,106)"/>
<path d="M70 36h1v3h-1v-3z" fill="rgb(49,82,106)"/>
<path d="M28 37h1v1h-1v-1z" fill="rgb(49,82,106)"/>
<path d="M29 37h3v1h2v1h-1v1h-2v-1h-2v-2z" fill="rgb(123,123,180)"/>
<path d="M32 37h3v1h-3v-1z" fill="rgb(49,82,106)"/>
<path d="M36 37h1v1h-1v-1z" fill="rgb(115,106,16)"/>
<path d="M39 37h1v1h-1v-1z" fill="rgb(164,164,57)"/>
<path d="M40 37h1v1h1v1h2v1h-2v1h-2v1h-6v-1h4v-1h2v-1h-1v-1h1v-1z" fill="rgb(213,213,106)"/>
<path d="M41 37h1v1h-1v-1z" fill="rgb(115,106,16)"/>
<path d="M49 37h1v1h-1v-1z" fill="rgb(16,16,16)"/>
<path d="M27 38h1v1h-1v-1z" fill="rgb(49,82,106)"/>
<path d="M28 38h1v1h2v2h-2v1h-1v1h-1v2h-1v-1h-1v1h-1v1h-1v-1h-1v-1h-1v-3h4v-1h2v-1h1v-1z" fill="rgb(139,172,213)"/>
<path d="M34 38h2v1h-2v-1z" fill="rgb(115,106,16)"/>
<path d="M38 38h1v1h-1v-1z" fill="rgb(115,106,16)"/>
<path d="M42 38h3v1h-3v-1z" fill="rgb(115,106,16)"/>
<path d="M47 38h1v1h-1v-1z" fill="rgb(49,82,106)"/>
<path d="M48 38h1v1h-1v-1z" fill="rgb(16,16,16)"/>
<path d="M50 38h1v1h-1v-1z" fill="rgb(49,82,106)"/>
<path d="M25 39h2v1h-2v-1z" fill="rgb(49,82,106)"/>
<path d="M33 39h1v1h-1v-1z" fill="rgb(115,106,16)"/>
<path d="M44 39h1v1h-1v-1z" fill="rgb(164,164,57)"/>
<path d="M45 39h1v1h-1v-1z" fill="rgb(115,106,16)"/>
<path d="M51 39h5v1h-5v-1z" fill="rgb(49,82,106)"/>
<path d="M69 39h1v2h-1v-2z" fill="rgb(49,82,106)"/>
<path d="M21 40h4v1h-4v-1z" fill="rgb(49,82,106)"/>
<path d="M31 40h1v1h-1v-1z" fill="rgb(49,82,106)"/>
<path d="M32 40h1v3h-1v-3z" fill="rgb(115,106,16)"/>
<path d="M42 40h1v1h-1v-1z" fill="rgb(164,164,57)"/>
<path d="M43 40h2v1h-2v-1z" fill="rgb(16,16,16)"/>
<path d="M52 40h4v1h11v1h1v3h-1v2h-1v1h-1v2h1v2h-2v-1h-2v1h-2v1h-2v-1h1v-1h1v-2h-3v-1h-1
	v-1h5v-1h1v-1h-1v-1h-6v1h-1v1h-1v1h-1v-1h-1v-1h-1v-3h1v1h1v1h2v-1h1v-1h-1v-1
	h-2v-1z" fill="rgb(139,172,213)"/>
<path d="M56 40h3v1h-3v-1z" fill="rgb(49,82,106)"/>
<path d="M59 40h4v1h-4v-1z" fill="rgb(123,123,180)"/>
<path d="M63 40h4v1h-4v-1z" fill="rgb(49,82,106)"/>
<path d="M20 41h1v1h-1v-1z" fill="rgb(49,82,106)"/>
<path d="M29 41h2v1h-2v-1z" fill="rgb(49,82,106)"/>
<path d="M40 41h1v1h-1v-1z" fill="rgb(164,164,57)"/>
<path d="M41 41h2v1h-2v-1z" fill="rgb(16,16,16)"/>
<path d="M50 41h1v1h-1v-1z" fill="rgb(49,82,106)"/>
<path d="M51 41h1v1h-1v-1z" fill="rgb(139,172,213)"/>
<path d="M52 41h2v1h1v1h-1v1h-2v-1h-1v-1h1v-1z" fill="rgb(164,197,255)"/>
<path d="M67 41h2v4h-1v-3h-1v-1z" fill="rgb(49,82,106)"/>
<path d="M18 42h2v1h-2v-1z" fill="rgb(123,123,180)"/>
<path d="M20 42h1v2h-1v1h-3v-1h1v-1h2v-1z" fill="rgb(164,197,255)"/>
<path d="M28 42h1v1h-1v-1z" fill="rgb(49,82,106)"/>
<path d="M33 42h1v1h-1v-1z" fill="rgb(213,213,106)"/>
<path d="M34 42h1v1h-1v-1z" fill="rgb(164,164,57)"/>
<path d="M35 42h6v1h-6v-1z" fill="rgb(16,16,16)"/>
<path d="M49 42h1v2h-1v-2z" fill="rgb(49,82,106)"/>
<path d="M63 42h1v1h-1v-1z" fill="rgb(123,123,180)"/>
<path d="M17 43h1v1h-1v-1z" fill="rgb(123,123,180)"/>
<path d="M27 43h1v2h-1v-2z" fill="rgb(49,82,106)"/>
<path d="M32 43h3v1h-3v-1z" fill="rgb(16,16,16)"/>
<path d="M38 43h1v1h-1v-1z" fill="rgb(49,82,106)"/>
<path d="M39 43h1v1h-1v-1z" fill="rgb(123,123,180)"/>
<path d="M40 43h1v3h-1v-1h-1v-1h1v-1z" fill="rgb(49,82,106)"/>
<path d="M62 43h1v2h-1v-2z" fill="rgb(123,123,180)"/>
<path d="M72 43h1v3h-1v-3z" fill="rgb(49,82,106)"/>
<path d="M16 44h1v1h-1v-1z" fill="rgb(123,123,180)"/>
<path d="M20 44h2v1h-2v-1z" fill="rgb(16,16,16)"/>
<path d="M25 44h1v5h-2v-4h1v-1z" fill="rgb(164,197,255)"/>
<path d="M41 44h1v1h2v1h2v1h2v1h2v1h2v1h-1v3h-1v1h-2v1h-3v1h-5v-1h-1v-4h1v1h2v-3h-1v-1
	h-1v-2h1v-2z" fill="rgb(139,172,213)"/>
<path d="M55 44h1v1h-1v-1z" fill="rgb(123,123,180)"/>
<path d="M56 44h5v1h-5v-1z" fill="rgb(49,82,106)"/>
<path d="M15 45h1v2h-1v-2z" fill="rgb(49,82,106)"/>
<path d="M16 45h2v1h-1v1h-1v-2z" fill="rgb(255,255,255)"/>
<path d="M18 45h2v1h-2v-1z" fill="rgb(16,16,16)"/>
<path d="M20 45h2v1h-2v-1z" fill="rgb(213,213,106)"/>
<path d="M22 45h1v1h-1v-1z" fill="rgb(16,16,16)"/>
<path d="M26 45h1v1h-1v-1z" fill="rgb(49,82,106)"/>
<path d="M54 45h2v1h-2v-1z" fill="rgb(49,82,106)"/>
<path d="M56 45h5v1h-5v-1z" fill="transparent"/>
<path d="M61 45h1v1h-1v-1z" fill="rgb(49,82,106)"/>
<path d="M67 45h1v2h-1v-2z" fill="rgb(49,82,106)"/>
<path d="M68 45h1v1h2v2h-1v2h-1v2h-2v-2h-1v-2h1v-1h1v-2z" fill="rgb(123,123,180)"/>
<path d="M71 45h1v1h-1v-1z" fill="rgb(123,123,180)"/>
<path d="M17 46h1v1h-1v-1z" fill="rgb(16,16,16)"/>
<path d="M18 46h1v1h-1v-1z" fill="rgb(115,106,16)"/>
<path d="M19 46h3v1h1v2h-1v-1h-2v-1h-1v-1z" fill="rgb(255,255,164)"/>
<path d="M22 46h1v1h-1v-1z" fill="rgb(213,213,106)"/>
<path d="M23 46h1v5h-1v-5z" fill="rgb(49,82,106)"/>
<path d="M26 46h1v3h-1v-3z" fill="rgb(16,16,16)"/>
<path d="M39 46h1v2h-1v-2z" fill="rgb(49,82,106)"/>
<path d="M53 46h1v1h-1v-1z" fill="rgb(49,82,106)"/>
<path d="M56 46h5v1h-5v-1z" fill="rgb(16,16,16)"/>
<path d="M71 46h1v2h-1v-2z" fill="rgb(49,82,106)"/>
<path d="M15 47h2v1h-2v-1z" fill="rgb(16,16,16)"/>
<path d="M17 47h1v2h-1v-2z" fill="rgb(213,213,213)"/>
<path d="M18 47h1v2h-1v-2z" fill="rgb(123,123,180)"/>
<path d="M19 47h1v1h-1v-1z" fill="rgb(115,106,16)"/>
<path d="M55 47h1v1h-1v-1z" fill="rgb(16,16,16)"/>
<path d="M66 47h1v1h-1v-1z" fill="rgb(49,82,106)"/>
<path d="M16 48h1v1h-1v-1z" fill="rgb(49,82,106)"/>
<path d="M20 48h2v1h-2v-1z" fill="rgb(115,106,16)"/>
<path d="M39 48h1v3h-1v-3z" fill="rgb(123,123,180)"/>
<path d="M40 48h1v1h1v3h-2v-4z" fill="rgb(164,197,255)"/>
<path d="M53 48h2v1h-2v-1z" fill="rgb(16,16,16)"/>
<path d="M55 48h2v1h-1v1h-1v1h-1v-1h-1v-1h2v-1z" fill="rgb(123,123,180)"/>
<path d="M65 48h1v2h-1v-2z" fill="rgb(49,82,106)"/>
<path d="M70 48h1v2h-1v-2z" fill="rgb(49,82,106)"/>
<path d="M17 49h1v1h-1v-1z" fill="rgb(16,16,16)"/>
<path d="M22 49h1v1h-1v-1z" fill="rgb(115,106,16)"/>
<path d="M24 49h1v2h-1v-2z" fill="rgb(255,255,255)"/>
<path d="M25 49h1v2h-1v-2z" fill="rgb(16,16,16)"/>
<path d="M52 49h1v1h-1v-1z" fill="rgb(16,16,16)"/>
<path d="M56 49h1v1h-1v-1z" fill="rgb(115,106,16)"/>
<path d="M57 49h2v1h-2v-1z" fill="rgb(49,82,106)"/>
<path d="M59 49h1v1h-1v-1z" fill="rgb(123,123,180)"/>
<path d="M51 50h1v2h-1v-2z" fill="rgb(16,16,16)"/>
<path d="M52 50h1v2h-1v-2z" fill="rgb(255,255,255)"/>
<path d="M53 50h1v1h-1v-1z" fill="rgb(213,213,213)"/>
<path d="M55 50h1v1h-1v-1z" fill="rgb(115,106,16)"/>
<path d="M56 50h2v2h-1v1h-1v-1h-1v-1h1v-1z" fill="rgb(255,255,164)"/>
<path d="M58 50h1v1h-1v-1z" fill="rgb(213,213,106)"/>
<path d="M59 50h1v1h-1v-1z" fill="rgb(49,82,106)"/>
<path d="M66 50h1v2h-1v-2z" fill="rgb(49,82,106)"/>
<path d="M69 50h1v2h-1v-2z" fill="rgb(49,82,106)"/>
<path d="M24 51h1v1h-1v-1z" fill="rgb(16,16,16)"/>
<path d="M38 51h1v5h-1v-5z" fill="rgb(49,82,106)"/>
<path d="M53 51h2v1h-2v-1z" fill="rgb(16,16,16)"/>
<path d="M58 51h1v1h-1v-1z" fill="rgb(49,82,106)"/>
<path d="M62 51h2v1h-2v-1z" fill="rgb(49,82,106)"/>
<path d="M51 52h1v1h1v-1h2v1h1v1h1v2h-1v1h-1v-1h-4v1h-1v3h-1v3h-4v-1h-2v-1h-2v-1h-1v-1
	h-1v-2h-2v-1h2v-1h1v1h5v-1h3v-1h2v-1h1v-1z" fill="rgb(123,123,180)"/>
<path d="M52 52h1v1h-1v-1z" fill="rgb(16,16,16)"/>
<path d="M55 52h1v1h-1v-1z" fill="rgb(16,16,16)"/>
<path d="M57 52h1v4h-1v-4z" fill="rgb(49,82,106)"/>
<path d="M60 52h1v1h-1v-1z" fill="rgb(123,123,180)"/>
<path d="M61 52h1v1h-1v-1z" fill="rgb(49,82,106)"/>
<path d="M62 52h2v1h-2v-1z" fill="rgb(213,213,106)"/>
<path d="M64 52h1v2h-1v-2z" fill="rgb(49,82,106)"/>
<path d="M65 52h2v3h-1v-1h-1v-2z" fill="rgb(123,123,180)"/>
<path d="M67 52h2v2h-1v1h-1v-3z" fill="rgb(49,82,106)"/>
<path d="M56 53h1v1h-1v-1z" fill="rgb(16,16,16)"/>
<path d="M58 53h2v2h-1v-1h-1v-1z" fill="rgb(123,123,180)"/>
<path d="M60 53h1v3h-1v-3z" fill="rgb(49,82,106)"/>
<path d="M61 53h3v2h-2v1h-1v-3z" fill="rgb(255,255,164)"/>
<path d="M58 54h1v3h-1v-3z" fill="rgb(255,255,255)"/>
<path d="M64 54h1v1h-1v-1z" fill="rgb(115,106,16)"/>
<path d="M65 54h1v1h-1v-1z" fill="rgb(49,82,106)"/>
<path d="M59 55h1v1h-1v-1z" fill="rgb(213,213,213)"/>
<path d="M62 55h3v1h-3v-1z" fill="rgb(16,16,16)"/>
<path d="M65 55h1v1h-1v-1z" fill="rgb(213,213,213)"/>
<path d="M66 55h1v2h-1v-2z" fill="rgb(255,255,255)"/>
<path d="M67 55h1v2h-1v-2z" fill="rgb(16,16,16)"/>
<path d="M51 56h1v1h-1v-1z" fill="rgb(49,82,106)"/>
<path d="M52 56h2v1h1v1h1v2h1v2h1v1h-2v1h-2v-1h-1v-1h-1v-1h-1v-4h1v-1z" fill="rgb(164,197,255)"/>
<path d="M54 56h1v1h-1v-1z" fill="rgb(139,172,213)"/>
<path d="M56 56h2v1h1v3h-1v-2h-1v-1h-1v-1z" fill="rgb(16,16,16)"/>
<path d="M59 56h3v1h-3v-1z" fill="rgb(16,16,16)"/>
<path d="M62 56h3v1h-1v1h-2v1h-2v-2h2v-1z" fill="rgb(123,123,180)"/>
<path d="M65 56h1v1h-1v-1z" fill="rgb(16,16,16)"/>
<path d="M36 57h1v1h-1v-1z" fill="rgb(123,123,180)"/>
<path d="M37 57h2v2h1v3h-2v1h-3v1h-1v-3h1v-2h1v-1h1v-1z" fill="rgb(164,197,255)"/>
<path d="M50 57h1v2h-1v-2z" fill="rgb(49,82,106)"/>
<path d="M55 57h2v1h1v2h1v2h-2v-2h-1v-2h-1v-1z" fill="rgb(139,172,213)"/>
<path d="M59 57h1v2h2v1h-3v-3z" fill="rgb(49,82,106)"/>
<path d="M64 57h1v1h-1v-1z" fill="rgb(49,82,106)"/>
<path d="M66 57h1v1h-1v-1z" fill="rgb(16,16,16)"/>
<path d="M35 58h1v1h-1v-1z" fill="rgb(123,123,180)"/>
<path d="M62 58h2v1h-2v-1z" fill="rgb(49,82,106)"/>
<path d="M34 59h1v2h-1v-2z" fill="rgb(123,123,180)"/>
<path d="M50 59h1v2h1v1h1v1h1v2h-1v-1h-2v-1h-1v-4z" fill="rgb(139,172,213)"/>
<path d="M40 60h1v1h-1v-1z" fill="rgb(49,82,106)"/>
<path d="M49 60h1v1h-1v-1z" fill="rgb(49,82,106)"/>
<path d="M59 60h1v3h-1v-3z" fill="rgb(16,16,16)"/>
<path d="M33 61h1v3h-1v-3z" fill="rgb(123,123,180)"/>
<path d="M40 61h1v1h1v1h-3v1h-3v-1h2v-1h2v-1z" fill="rgb(139,172,213)"/>
<path d="M41 61h1v1h-1v-1z" fill="rgb(49,82,106)"/>
<path d="M42 61h1v1h-1v-1z" fill="rgb(16,16,16)"/>
<path d="M49 61h1v2h1v1h-6v-1h4v-2z" fill="rgb(16,16,16)"/>
<path d="M42 62h1v1h-1v-1z" fill="rgb(49,82,106)"/>
<path d="M43 62h2v1h-2v-1z" fill="rgb(16,16,16)"/>
<path d="M58 62h1v1h1v3h1v3h1v1h-5v1h-2v-1h1v-2h-1v-2h-1v-2h2v-1h2v-1z" fill="rgb(123,123,180)"/>
<path d="M35 63h1v1h3v-1h2v2h1v1h1v1h1v1h-2v1h-1v1h-2v1h-1v-2h-2v-1h1v-1h-1v-2h-1v-2z" fill="rgb(123,123,180)"/>
<path d="M41 63h1v1h1v2h-1v-1h-1v-2z" fill="rgb(16,16,16)"/>
<path d="M60 63h1v3h-1v-3z" fill="rgb(16,16,16)"/>
<path d="M34 64h1v1h-1v-1z" fill="rgb(49,82,106)"/>
<path d="M51 64h2v1h-2v-1z" fill="rgb(16,16,16)"/>
<path d="M58 64h1v1h-1v-1z" fill="rgb(49,82,106)"/>
<path d="M35 65h1v2h-1v-2z" fill="rgb(49,82,106)"/>
<path d="M43 65h3v1h-2v1h-1v-2z" fill="rgb(49,82,106)"/>
<path d="M53 65h1v1h-1v-1z" fill="rgb(16,16,16)"/>
<path d="M55 65h1v1h-1v-1z" fill="rgb(49,82,106)"/>
<path d="M44 66h1v1h-1v-1z" fill="rgb(213,213,213)"/>
<path d="M45 66h1v2h-2v-1h1v-1z" fill="rgb(16,16,16)"/>
<path d="M54 66h1v2h-1v-2z" fill="rgb(16,16,16)"/>
<path d="M56 66h1v1h-1v-1z" fill="rgb(49,82,106)"/>
<path d="M61 66h1v3h-1v-3z" fill="rgb(16,16,16)"/>
<path d="M36 67h1v1h-1v-1z" fill="rgb(49,82,106)"/>
<path d="M34 68h2v1h-2v-1z" fill="rgb(49,82,106)"/>
<path d="M42 68h2v1h-2v-1z" fill="rgb(16,16,16)"/>
<path d="M55 68h1v2h-1v-2z" fill="rgb(16,16,16)"/>
<path d="M30 69h4v1h-4v-1z" fill="rgb(49,82,106)"/>
<path d="M34 69h1v1h-1v-1z" fill="rgb(123,123,180)"/>
<path d="M35 69h3v1h-3v-1z" fill="rgb(139,172,213)"/>
<path d="M41 69h1v1h-1v-1z" fill="rgb(16,16,16)"/>
<path d="M54 69h1v2h-1v-2z" fill="rgb(49,82,106)"/>
<path d="M62 69h1v1h-1v-1z" fill="rgb(16,16,16)"/>
<path d="M29 70h1v1h-1v-1z" fill="rgb(115,106,16)"/>
<path d="M30 70h2v1h-2v-1z" fill="rgb(213,213,106)"/>
<path d="M32 70h1v1h-1v-1z" fill="rgb(123,123,180)"/>
<path d="M33 70h2v1h-2v-1z" fill="rgb(139,172,213)"/>
<path d="M35 70h3v1h-2v1h-4v-1h3v-1z" fill="rgb(213,213,106)"/>
<path d="M39 70h1v2h-2v-1h1v-1z" fill="rgb(139,172,213)"/>
<path d="M40 70h1v2h-1v-2z" fill="rgb(16,16,16)"/>
<path d="M57 70h6v1h-1v1h-1v1h1v1h-2v-1h-1v-1h-2v1h-1v1h-2v-2h1v-1h2v-1z" fill="rgb(139,172,213)"/>
<path d="M63 70h1v1h-1v-1z" fill="rgb(16,16,16)"/>
<path d="M29 71h1v1h-1v-1z" fill="rgb(49,82,106)"/>
<path d="M30 71h2v1h-2v-1z" fill="rgb(123,123,180)"/>
<path d="M36 71h2v1h-2v-1z" fill="rgb(123,123,180)"/>
<path d="M53 71h1v2h-1v-2z" fill="rgb(49,82,106)"/>
<path d="M54 71h1v1h-1v-1z" fill="rgb(123,123,180)"/>
<path d="M62 71h1v1h-1v-1z" fill="rgb(123,123,180)"/>
<path d="M63 71h1v1h-1v-1z" fill="rgb(139,172,213)"/>
<path d="M64 71h1v1h-1v-1z" fill="rgb(16,16,16)"/>
<path d="M29 72h1v1h-1v-1z" fill="rgb(16,16,16)"/>
<path d="M30 72h2v1h-2v-1z" fill="rgb(213,213,213)"/>
<path d="M32 72h2v1h-2v-1z" fill="rgb(115,106,16)"/>
<path d="M34 72h1v1h-1v-1z" fill="rgb(16,16,16)"/>
<path d="M35 72h1v1h-1v-1z" fill="rgb(123,123,180)"/>
<path d="M36 72h2v1h-2v-1z" fill="rgb(139,172,213)"/>
<path d="M38 72h2v1h-2v-1z" fill="rgb(16,16,16)"/>
<path d="M57 72h2v1h-2v-1z" fill="rgb(123,123,180)"/>
<path d="M61 72h1v1h-1v-1z" fill="rgb(123,123,180)"/>
<path d="M62 72h1v1h-1v-1z" fill="rgb(213,213,106)"/>
<path d="M63 72h2v1h-2v-1z" fill="rgb(123,123,180)"/>
<path d="M65 72h1v2h-1v-2z" fill="rgb(16,16,16)"/>
<path d="M30 73h4v1h1v1h-2v-1h-3v-1z" fill="rgb(16,16,16)"/>
<path d="M34 73h1v1h-1v-1z" fill="rgb(213,213,213)"/>
<path d="M35 73h3v1h-3v-1z" fill="rgb(16,16,16)"/>
<path d="M53 73h1v4h-1v-4z" fill="rgb(16,16,16)"/>
<path d="M56 73h1v1h-1v-1z" fill="rgb(123,123,180)"/>
<path d="M57 73h2v1h-2v-1z" fill="rgb(213,213,106)"/>
<path d="M59 73h1v1h-1v-1z" fill="rgb(123,123,180)"/>
<path d="M62 73h1v2h-3v-1h2v-1z" fill="rgb(123,123,180)"/>
<path d="M63 73h1v2h-1v-2z" fill="rgb(49,82,106)"/>
<path d="M64 73h1v1h-1v-1z" fill="rgb(255,255,255)"/>
<path d="M54 74h2v1h-2v-1z" fill="rgb(123,123,180)"/>
<path d="M56 74h3v1h-2v1h-1v-2z" fill="rgb(255,255,164)"/>
<path d="M59 74h1v1h-1v-1z" fill="rgb(213,213,106)"/>
<path d="M64 74h1v1h-1v-1z" fill="rgb(16,16,16)"/>
<path d="M54 75h1v2h-1v-2z" fill="rgb(255,255,255)"/>
<path d="M55 75h1v2h-1v-2z" fill="rgb(16,16,16)"/>
<path d="M57 75h2v1h-2v-1z" fill="rgb(115,106,16)"/>
<path d="M59 75h1v1h-1v-1z" fill="rgb(255,255,164)"/>
<path d="M60 75h1v1h-1v-1z" fill="rgb(16,16,16)"/>
<path d="M61 75h1v1h-1v-1z" fill="rgb(213,213,213)"/>
<path d="M62 75h1v2h-1v-2z" fill="rgb(255,255,255)"/>
<path d="M63 75h1v2h-1v-2z" fill="rgb(16,16,16)"/>
<path d="M56 76h1v1h-1v-1z" fill="rgb(115,106,16)"/>
<path d="M59 76h2v1h-2v-1z" fill="rgb(115,106,16)"/>
<path d="M61 76h1v1h-1v-1z" fill="rgb(16,16,16)"/>
<path d="M54 77h1v1h-1v-1z" fill="rgb(16,16,16)"/>
<path d="M62 77h1v1h-1v-1z" fill="rgb(16,16,16)"/>
</svg>
