<?xml version="1.0" encoding="utf-8"?>
<!-- generated at drububu.com  -->
<!DOCTYPE svg PUBLIC "-//W3C//DTD SVG 1.1//EN" "http://www.w3.org/Graphics/SVG/1.1/DTD/svg11.dtd">
<svg version="1.1" preserveAspectRatio="xMinYMin meet" xmlns="http://www.w3.org/2000/svg" xmlns:xlink="http://www.w3.org/1999/xlink" x="0px" y="0px" width="96px" height="96px" viewBox="0 0 96 96">
<path d="M0 0h96v96h-96v-96z" fill="transparent"/>
<path d="M65 24h4v1h-4v-1z" fill="rgb(16,16,16)"/>
<path d="M64 25h1v1h-1v-1z" fill="rgb(16,16,16)"/>
<path d="M65 25h4v3h-1v-1h-1v2h-1v1h-1v-2h-1v-2h1v-1z" fill="rgb(255,197,131)"/>
<path d="M69 25h1v1h-1v-1z" fill="rgb(16,16,16)"/>
<path d="M63 26h1v2h-1v-2z" fill="rgb(16,16,16)"/>
<path d="M69 26h1v3h-1v2h-1v-2h-1v-1h2v-2z" fill="rgb(197,115,74)"/>
<path d="M70 26h1v3h-1v-3z" fill="rgb(16,16,16)"/>
<path d="M67 27h1v1h-1v-1z" fill="rgb(222,164,115)"/>
<path d="M62 28h1v4h-1v-4z" fill="rgb(16,16,16)"/>
<path d="M63 28h1v2h-1v-2z" fill="rgb(255,197,131)"/>
<path d="M64 28h1v1h-1v-1z" fill="rgb(222,164,115)"/>
<path d="M64 29h1v1h-1v-1z" fill="rgb(197,115,74)"/>
<path d="M66 29h1v3h-2v-2h1v-1z" fill="rgb(197,115,74)"/>
<path d="M67 29h1v3h-1v-3z" fill="rgb(115,65,0)"/>
<path d="M69 29h1v2h-1v-2z" fill="rgb(16,16,16)"/>
<path d="M70 29h1v3h1v2h-1v1h-2v-1h-1v-2h1v-1h1v-2z" fill="rgb(197,115,74)"/>
<path d="M71 29h1v3h-1v-3z" fill="rgb(16,16,16)"/>
<path d="M63 30h1v2h-1v-2z" fill="rgb(197,115,74)"/>
<path d="M64 30h1v2h-1v-2z" fill="rgb(115,65,0)"/>
<path d="M68 31h1v1h-1v-1z" fill="rgb(16,16,16)"/>
<path d="M63 32h5v2h-1v-1h-4v-1z" fill="rgb(16,16,16)"/>
<path d="M72 32h1v3h-1v-3z" fill="rgb(16,16,16)"/>
<path d="M53 33h1v1h-1v-1z" fill="rgb(106,74,41)"/>
<path d="M54 33h1v2h-1v-2z" fill="rgb(16,16,16)"/>
<path d="M38 34h4v1h-4v-1z" fill="rgb(106,74,41)"/>
<path d="M50 34h1v1h-1v-1z" fill="rgb(106,74,41)"/>
<path d="M52 34h1v1h-1v-1z" fill="rgb(106,74,41)"/>
<path d="M53 34h1v1h1v1h1v1h-1v2h-2v1h-1v-3h1v-3z" fill="rgb(213,172,156)"/>
<path d="M57 34h1v1h-1v-1z" fill="rgb(106,74,41)"/>
<path d="M59 34h1v1h-1v-1z" fill="rgb(16,16,16)"/>
<path d="M68 34h1v3h-1v-3z" fill="rgb(16,16,16)"/>
<path d="M71 34h1v1h1v4h-1v1h-2v1h-1v1h-1v1h-1v1h-1v1h-1v1h-1v2h1v1h-1v2h1v1h-1v1h-1v1
	h-1v1h-1v2h-2v1h-1v1h1v1h1v2h-1v-1h-1v-1h-1v-1h-1v-1h-1v2h-1v-1h-1v-1h-1v1h-1v1
	h-1v1h-1v-1h-1v-1h-3v-1h-3v-1h-1v-1h-1v-1h1v-1h1v1h1v-1h1v1h6v-1h2v1h1v-1h1v-1
	h1v1h1v1h1v-2h3v-1h1v-1h-1v-1h2v1h1v-2h-1v-2h-1v-1h1v-1h-1v-1h2v-1h2v-1h1v-1h1
	v-1h1v-3h1v-2h2v-1z" fill="rgb(213,172,156)"/>
<path d="M38 35h1v2h-1v-2z" fill="rgb(16,16,16)"/>
<path d="M39 35h2v1h-2v-1z" fill="rgb(213,172,156)"/>
<path d="M41 35h1v1h-1v-1z" fill="rgb(246,222,180)"/>
<path d="M42 35h2v1h-2v-1z" fill="rgb(16,16,16)"/>
<path d="M47 35h3v1h-3v-1z" fill="rgb(106,74,41)"/>
<path d="M50 35h1v1h1v-1h1v2h-1v2h-2v-1h-2v1h-1v-1h-1v-1h2v-1h2v-1z" fill="rgb(246,222,180)"/>
<path d="M51 35h1v1h-1v-1z" fill="rgb(106,74,41)"/>
<path d="M55 35h1v1h-1v-1z" fill="rgb(16,16,16)"/>
<path d="M56 35h1v2h-1v-2z" fill="rgb(106,74,41)"/>
<path d="M57 35h1v1h-1v-1z" fill="rgb(213,172,156)"/>
<path d="M58 35h1v1h-1v-1z" fill="rgb(16,16,16)"/>
<path d="M59 35h1v6h1v-1h1v1h2v-1h2v-1h1v-1h1v2h-1v1h-1v1h-1v1h-2v1h-2v1h1v1h-1v1h1v2h1
	v2h-1v-1h-2v1h1v1h-1v1h-3v-1h-1v1h1v2h-1v-1h-1v-1h-1v1h-1v1h-1v-1h-1v-4h3v-1h1
	v-4h1v-1h-4v1h-2v1h-1v-2h1v-1h2v-1h1v-3h2v-1h1v-1h1v-1h2v-1z" fill="rgb(246,222,180)"/>
<path d="M60 35h1v6h-1v-6z" fill="rgb(16,16,16)"/>
<path d="M73 35h1v4h-1v-4z" fill="rgb(16,16,16)"/>
<path d="M39 36h1v1h-1v-1z" fill="rgb(106,74,41)"/>
<path d="M40 36h1v3h-1v-3z" fill="rgb(197,115,74)"/>
<path d="M41 36h1v1h-1v-1z" fill="rgb(213,172,156)"/>
<path d="M42 36h2v1h1v1h1v2h-1v1h-1v2h3v1h1v2h-2v-2h-1v2h-1v-1h-1v-1h-1v-2h-2v-1h3v-1h1
	v-2h-1v-1h-1v-1z" fill="rgb(246,222,180)"/>
<path d="M44 36h1v1h-1v-1z" fill="rgb(16,16,16)"/>
<path d="M45 36h2v1h-2v-1z" fill="rgb(106,74,41)"/>
<path d="M47 36h1v1h-1v-1z" fill="rgb(213,172,156)"/>
<path d="M39 37h1v2h-1v-2z" fill="rgb(16,16,16)"/>
<path d="M41 37h1v1h1v2h-1v-1h-1v-2z" fill="rgb(115,65,0)"/>
<path d="M42 37h1v1h-1v-1z" fill="rgb(213,172,156)"/>
<path d="M45 37h1v1h-1v-1z" fill="rgb(213,172,156)"/>
<path d="M55 37h1v1h-1v-1z" fill="rgb(16,16,16)"/>
<path d="M58 37h1v5h-2v-1h1v-4z" fill="rgb(197,115,74)"/>
<path d="M67 37h1v1h-1v-1z" fill="rgb(16,16,16)"/>
<path d="M25 38h1v1h-1v-1z" fill="rgb(115,65,0)"/>
<path d="M26 38h2v1h-2v-1z" fill="rgb(16,16,16)"/>
<path d="M28 38h1v1h-1v-1z" fill="rgb(115,65,0)"/>
<path d="M43 38h1v2h-1v-2z" fill="rgb(213,172,156)"/>
<path d="M46 38h1v1h1v-1h2v1h2v1h1v2h-1v1h-2v1h-1v-1h-1v1h-1v-1h-3v-2h1v-1h1v-2z" fill="rgb(255,246,205)"/>
<path d="M57 38h1v3h-2v-2h1v-1z" fill="rgb(115,65,0)"/>
<path d="M66 38h1v1h-1v-1z" fill="rgb(16,16,16)"/>
<path d="M23 39h2v1h-2v-1z" fill="rgb(115,65,0)"/>
<path d="M25 39h4v2h-1v1h-1v1h-1v1h-1v-2h-1v2h-1v-2h-1v-1h1v-1h2v-1z" fill="rgb(255,197,131)"/>
<path d="M29 39h1v1h-1v-1z" fill="rgb(115,65,0)"/>
<path d="M40 39h1v2h-1v-2z" fill="rgb(16,16,16)"/>
<path d="M41 39h1v2h-1v-2z" fill="rgb(197,115,74)"/>
<path d="M61 39h1v1h-1v-1z" fill="rgb(106,74,41)"/>
<path d="M64 39h2v1h-2v-1z" fill="rgb(16,16,16)"/>
<path d="M72 39h1v1h-1v-1z" fill="rgb(16,16,16)"/>
<path d="M22 40h1v1h-1v-1z" fill="rgb(16,16,16)"/>
<path d="M29 40h1v2h1v2h1v2h-1v1h-1v-1h-1v-3h-1v-2h1v-1z" fill="rgb(197,115,74)"/>
<path d="M30 40h1v2h-1v-2z" fill="rgb(115,65,0)"/>
<path d="M42 40h1v1h-1v-1z" fill="rgb(213,172,156)"/>
<path d="M62 40h2v1h-2v-1z" fill="rgb(16,16,16)"/>
<path d="M70 40h2v1h-2v-1z" fill="rgb(16,16,16)"/>
<path d="M21 41h1v1h-1v-1z" fill="rgb(16,16,16)"/>
<path d="M39 41h1v1h1v1h-2v-2z" fill="rgb(106,74,41)"/>
<path d="M56 41h1v1h-1v-1z" fill="rgb(213,172,156)"/>
<path d="M69 41h1v1h-1v-1z" fill="rgb(16,16,16)"/>
<path d="M20 42h1v2h-1v-2z" fill="rgb(16,16,16)"/>
<path d="M21 42h2v1h-1v1h-1v-2z" fill="rgb(222,164,115)"/>
<path d="M24 42h1v1h-1v-1z" fill="rgb(222,164,115)"/>
<path d="M27 42h1v1h-1v-1z" fill="rgb(115,65,0)"/>
<path d="M31 42h1v2h-1v-2z" fill="rgb(115,65,0)"/>
<path d="M41 42h1v1h-1v-1z" fill="rgb(213,172,156)"/>
<path d="M68 42h1v1h-1v-1z" fill="rgb(16,16,16)"/>
<path d="M22 43h1v1h-1v-1z" fill="rgb(197,115,74)"/>
<path d="M24 43h1v1h-1v-1z" fill="rgb(197,115,74)"/>
<path d="M26 43h1v1h-1v-1z" fill="rgb(222,164,115)"/>
<path d="M27 43h1v2h-1v1h-2v-2h2v-1z" fill="rgb(197,115,74)"/>
<path d="M28 43h1v1h-1v-1z" fill="rgb(115,65,0)"/>
<path d="M38 43h1v2h-2v-1h1v-1z" fill="rgb(106,74,41)"/>
<path d="M39 43h2v5h1v1h2v1h-1v5h-1v-1h-1v1h-1v-2h-1v-1h-1v-1h-1v-1h1v-4h-1v-1h2v-2z" fill="rgb(246,222,180)"/>
<path d="M41 43h1v1h-1v-1z" fill="rgb(106,74,41)"/>
<path d="M48 43h1v1h-1v-1z" fill="rgb(246,222,180)"/>
<path d="M67 43h1v1h-1v-1z" fill="rgb(16,16,16)"/>
<path d="M76 43h4v1h-4v-1z" fill="rgb(106,74,41)"/>
<path d="M21 44h1v1h-1v-1z" fill="rgb(16,16,16)"/>
<path d="M22 44h1v1h-1v-1z" fill="rgb(115,65,0)"/>
<path d="M23 44h1v2h-1v-2z" fill="rgb(197,115,74)"/>
<path d="M24 44h1v2h-1v-2z" fill="rgb(115,65,0)"/>
<path d="M28 44h1v2h-1v-2z" fill="rgb(16,16,16)"/>
<path d="M32 44h1v2h-1v-2z" fill="rgb(115,65,0)"/>
<path d="M41 44h1v3h-1v-3z" fill="rgb(16,16,16)"/>
<path d="M42 44h1v1h-1v-1z" fill="rgb(106,74,41)"/>
<path d="M45 44h1v1h-1v-1z" fill="rgb(213,172,156)"/>
<path d="M48 44h1v1h-1v-1z" fill="rgb(213,172,156)"/>
<path d="M52 44h1v1h-1v-1z" fill="rgb(213,172,156)"/>
<path d="M53 44h2v1h-2v-1z" fill="rgb(106,74,41)"/>
<path d="M55 44h1v1h-1v-1z" fill="rgb(213,172,156)"/>
<path d="M66 44h1v1h-1v-1z" fill="rgb(16,16,16)"/>
<path d="M74 44h2v1h-2v-1z" fill="rgb(106,74,41)"/>
<path d="M76 44h4v1h1v2h1v5h-1v1h-1v-1h-1v-1h1v-4h-1v-1h-3v1h-1v1h-2v-2h1v-1h2v-1z" fill="rgb(197,115,74)"/>
<path d="M80 44h1v1h-1v-1z" fill="rgb(16,16,16)"/>
<path d="M22 45h1v1h-1v-1z" fill="rgb(16,16,16)"/>
<path d="M27 45h1v1h-1v-1z" fill="rgb(115,65,0)"/>
<path d="M35 45h2v1h-2v-1z" fill="rgb(106,74,41)"/>
<path d="M42 45h1v4h-1v-4z" fill="rgb(255,255,255)"/>
<path d="M43 45h1v1h-1v-1z" fill="rgb(213,172,156)"/>
<path d="M45 45h1v1h-1v-1z" fill="rgb(197,115,74)"/>
<path d="M48 45h1v1h-1v-1z" fill="rgb(197,115,74)"/>
<path d="M50 45h1v1h-1v-1z" fill="rgb(213,172,156)"/>
<path d="M51 45h1v1h-1v-1z" fill="rgb(106,74,41)"/>
<path d="M52 45h1v1h-1v-1z" fill="rgb(222,222,222)"/>
<path d="M53 45h1v4h-2v-2h-1v-1h2v-1z" fill="rgb(255,255,255)"/>
<path d="M54 45h1v2h-1v-2z" fill="rgb(16,16,16)"/>
<path d="M65 45h1v1h-1v-1z" fill="rgb(16,16,16)"/>
<path d="M73 45h1v1h-1v-1z" fill="rgb(106,74,41)"/>
<path d="M81 45h1v2h-1v-2z" fill="rgb(16,16,16)"/>
<path d="M23 46h4v1h-4v-1z" fill="rgb(16,16,16)"/>
<path d="M29 46h1v2h-1v-2z" fill="rgb(16,16,16)"/>
<path d="M31 46h2v1h2v-1h2v1h-1v1h-2v1h-2v-1h-1v-2z" fill="rgb(246,222,180)"/>
<path d="M33 46h2v1h-2v-1z" fill="rgb(106,74,41)"/>
<path d="M37 46h1v1h-1v-1z" fill="rgb(213,172,156)"/>
<path d="M43 46h1v1h-1v-1z" fill="rgb(106,74,41)"/>
<path d="M44 46h1v2h-1v-2z" fill="rgb(213,172,156)"/>
<path d="M45 46h1v2h-1v-2z" fill="rgb(115,65,0)"/>
<path d="M46 46h1v2h-1v-2z" fill="rgb(213,172,156)"/>
<path d="M47 46h1v1h-1v-1z" fill="rgb(197,115,74)"/>
<path d="M48 46h2v1h-1v1h-1v-2z" fill="rgb(213,172,156)"/>
<path d="M50 46h1v1h-1v-1z" fill="rgb(106,74,41)"/>
<path d="M64 46h1v1h-1v-1z" fill="rgb(16,16,16)"/>
<path d="M72 46h1v2h-1v-2z" fill="rgb(16,16,16)"/>
<path d="M76 46h2v1h-2v-1z" fill="rgb(16,16,16)"/>
<path d="M78 46h1v1h-1v-1z" fill="rgb(106,74,41)"/>
<path d="M30 47h1v1h-1v-1z" fill="rgb(213,172,156)"/>
<path d="M36 47h1v1h-1v-1z" fill="rgb(213,172,156)"/>
<path d="M37 47h1v1h-1v-1z" fill="rgb(106,74,41)"/>
<path d="M41 47h1v1h-1v-1z" fill="rgb(106,74,41)"/>
<path d="M43 47h1v2h-1v-2z" fill="rgb(16,16,16)"/>
<path d="M47 47h1v1h-1v-1z" fill="rgb(115,65,0)"/>
<path d="M49 47h1v1h-1v-1z" fill="rgb(106,74,41)"/>
<path d="M50 47h1v2h-1v-2z" fill="rgb(16,16,16)"/>
<path d="M51 47h1v2h-1v-2z" fill="rgb(238,115,98)"/>
<path d="M54 47h1v1h-1v-1z" fill="rgb(106,74,41)"/>
<path d="M64 47h1v1h-1v-1z" fill="rgb(106,74,41)"/>
<path d="M75 47h1v1h-1v-1z" fill="rgb(16,16,16)"/>
<path d="M79 47h1v4h-1v-4z" fill="rgb(106,74,41)"/>
<path d="M82 47h1v5h-1v-5z" fill="rgb(16,16,16)"/>
<path d="M30 48h1v1h-1v-1z" fill="rgb(16,16,16)"/>
<path d="M31 48h1v1h-1v-1z" fill="rgb(213,172,156)"/>
<path d="M34 48h2v1h1v1h-2v1h-3v-2h2v-1z" fill="rgb(213,172,156)"/>
<path d="M36 48h1v1h-1v-1z" fill="rgb(106,74,41)"/>
<path d="M37 48h1v1h-1v-1z" fill="rgb(213,172,156)"/>
<path d="M44 48h1v1h-1v-1z" fill="rgb(106,74,41)"/>
<path d="M45 48h2v1h-2v-1z" fill="rgb(180,65,49)"/>
<path d="M47 48h1v1h-1v-1z" fill="rgb(16,16,16)"/>
<path d="M48 48h1v1h-1v-1z" fill="rgb(180,65,49)"/>
<path d="M49 48h1v1h-1v-1z" fill="rgb(255,255,255)"/>
<path d="M54 48h1v1h-1v-1z" fill="rgb(213,172,156)"/>
<path d="M65 48h1v1h-1v-1z" fill="rgb(106,74,41)"/>
<path d="M73 48h2v1h-2v-1z" fill="rgb(16,16,16)"/>
<path d="M31 49h1v2h-1v-2z" fill="rgb(16,16,16)"/>
<path d="M37 49h1v1h-1v-1z" fill="rgb(106,74,41)"/>
<path d="M44 49h1v1h-1v-1z" fill="rgb(180,65,49)"/>
<path d="M45 49h2v2h-2v-2z" fill="rgb(238,180,139)"/>
<path d="M47 49h2v1h1v3h-1v1h-4v-1h-1v-3h1v2h1v-1h1v-2z" fill="rgb(238,115,98)"/>
<path d="M49 49h1v1h-1v-1z" fill="rgb(180,65,49)"/>
<path d="M50 49h4v1h-4v-1z" fill="rgb(213,172,156)"/>
<path d="M64 49h1v2h-1v-2z" fill="rgb(106,74,41)"/>
<path d="M35 50h2v1h-2v-1z" fill="rgb(16,16,16)"/>
<path d="M43 50h1v1h-1v-1z" fill="rgb(180,65,49)"/>
<path d="M50 50h1v1h-1v-1z" fill="rgb(180,65,49)"/>
<path d="M32 51h3v1h-3v-1z" fill="rgb(16,16,16)"/>
<path d="M37 51h1v2h-1v-2z" fill="rgb(106,74,41)"/>
<path d="M43 51h1v2h-1v-2z" fill="rgb(16,16,16)"/>
<path d="M45 51h1v1h-1v-1z" fill="rgb(180,65,49)"/>
<path d="M47 51h1v1h-1v-1z" fill="rgb(106,74,41)"/>
<path d="M50 51h1v2h-1v-2z" fill="rgb(16,16,16)"/>
<path d="M65 51h1v1h-1v-1z" fill="rgb(106,74,41)"/>
<path d="M78 51h1v2h-1v-2z" fill="rgb(106,74,41)"/>
<path d="M38 52h1v1h-1v-1z" fill="rgb(16,16,16)"/>
<path d="M56 52h1v1h-1v-1z" fill="rgb(213,172,156)"/>
<path d="M64 52h2v1h-2v-1z" fill="rgb(16,16,16)"/>
<path d="M79 52h1v1h1v1h-1v1h-1v1h-1v1h-2v1h-3v1h-6v-1h-2v-1h-3v-2h1v-1h1v1h2v1h2v1h4v-1
	h3v-1h2v-1h1v-1h1v-1z" fill="rgb(213,172,156)"/>
<path d="M81 52h1v2h-1v-2z" fill="rgb(16,16,16)"/>
<path d="M38 53h1v1h-1v-1z" fill="rgb(106,74,41)"/>
<path d="M39 53h1v2h-2v-1h1v-1z" fill="rgb(213,172,156)"/>
<path d="M43 53h2v2h-1v-1h-1v-1z" fill="rgb(180,65,49)"/>
<path d="M49 53h2v1h-1v1h-1v-2z" fill="rgb(180,65,49)"/>
<path d="M63 53h1v1h-1v-1z" fill="rgb(16,16,16)"/>
<path d="M77 53h1v1h-1v-1z" fill="rgb(106,74,41)"/>
<path d="M37 54h1v1h-1v-1z" fill="rgb(106,74,41)"/>
<path d="M45 54h4v1h-4v-1z" fill="rgb(16,16,16)"/>
<path d="M62 54h1v1h-1v-1z" fill="rgb(16,16,16)"/>
<path d="M64 54h2v1h-2v-1z" fill="rgb(106,74,41)"/>
<path d="M75 54h2v1h-2v-1z" fill="rgb(106,74,41)"/>
<path d="M80 54h1v1h-1v-1z" fill="rgb(16,16,16)"/>
<path d="M38 55h1v1h-1v-1z" fill="rgb(16,16,16)"/>
<path d="M39 55h1v1h-1v-1z" fill="rgb(106,74,41)"/>
<path d="M61 55h1v2h-1v-2z" fill="rgb(16,16,16)"/>
<path d="M66 55h2v1h-2v-1z" fill="rgb(106,74,41)"/>
<path d="M72 55h3v1h-3v-1z" fill="rgb(106,74,41)"/>
<path d="M79 55h1v1h-1v-1z" fill="rgb(16,16,16)"/>
<path d="M40 56h1v1h-1v-1z" fill="rgb(16,16,16)"/>
<path d="M68 56h4v1h-4v-1z" fill="rgb(106,74,41)"/>
<path d="M78 56h1v1h-1v-1z" fill="rgb(16,16,16)"/>
<path d="M39 57h1v1h-1v-1z" fill="rgb(106,74,41)"/>
<path d="M40 57h2v1h1v1h-1v1h-1v-1h-1v1h-2v-1h1v-1h1v-1z" fill="rgb(246,222,180)"/>
<path d="M59 57h2v1h1v3h-2v-1h-1v-1h-1v-1h1v-1z" fill="rgb(246,222,180)"/>
<path d="M61 57h1v1h-1v-1z" fill="rgb(213,172,156)"/>
<path d="M62 57h3v1h-2v1h-1v-2z" fill="rgb(16,16,16)"/>
<path d="M76 57h2v1h-2v-1z" fill="rgb(16,16,16)"/>
<path d="M38 58h1v1h-1v-1z" fill="rgb(106,74,41)"/>
<path d="M43 58h2v1h-2v-1z" fill="rgb(106,74,41)"/>
<path d="M52 58h1v1h-1v-1z" fill="rgb(106,74,41)"/>
<path d="M55 58h1v1h-1v-1z" fill="rgb(106,74,41)"/>
<path d="M65 58h2v1h-2v-1z" fill="rgb(16,16,16)"/>
<path d="M73 58h3v1h-3v-1z" fill="rgb(16,16,16)"/>
<path d="M37 59h1v1h-1v-1z" fill="rgb(106,74,41)"/>
<path d="M40 59h1v1h-1v-1z" fill="rgb(106,74,41)"/>
<path d="M42 59h3v1h-2v1h-1v1h-1v1h-2v-1h-1v-2h1v1h2v-1h1v-1z" fill="rgb(213,172,156)"/>
<path d="M45 59h2v1h-2v-1z" fill="rgb(16,16,16)"/>
<path d="M47 59h1v1h-1v-1z" fill="rgb(106,74,41)"/>
<path d="M51 59h2v1h-2v-1z" fill="rgb(16,16,16)"/>
<path d="M53 59h1v1h-1v-1z" fill="rgb(106,74,41)"/>
<path d="M55 59h1v2h-1v-2z" fill="rgb(16,16,16)"/>
<path d="M56 59h1v1h-1v-1z" fill="rgb(106,74,41)"/>
<path d="M62 59h1v1h1v3h-1v1h-3v-2h1v-1h1v-2z" fill="rgb(213,172,156)"/>
<path d="M63 59h1v1h-1v-1z" fill="rgb(16,16,16)"/>
<path d="M67 59h6v1h-6v-1z" fill="rgb(16,16,16)"/>
<path d="M37 60h1v2h-1v-2z" fill="rgb(16,16,16)"/>
<path d="M39 60h1v1h-1v-1z" fill="rgb(106,74,41)"/>
<path d="M40 60h1v1h-1v-1z" fill="rgb(246,222,180)"/>
<path d="M43 60h2v1h-2v-1z" fill="rgb(16,16,16)"/>
<path d="M48 60h1v1h-1v-1z" fill="rgb(106,74,41)"/>
<path d="M50 60h1v1h-1v-1z" fill="rgb(16,16,16)"/>
<path d="M54 60h1v1h-1v-1z" fill="rgb(106,74,41)"/>
<path d="M57 60h1v1h-1v-1z" fill="rgb(16,16,16)"/>
<path d="M64 60h1v3h-1v-3z" fill="rgb(16,16,16)"/>
<path d="M42 61h1v3h-1v-3z" fill="rgb(16,16,16)"/>
<path d="M49 61h1v1h-1v-1z" fill="rgb(106,74,41)"/>
<path d="M58 61h1v1h-1v-1z" fill="rgb(16,16,16)"/>
<path d="M60 61h1v1h-1v-1z" fill="rgb(106,74,41)"/>
<path d="M38 62h1v1h-1v-1z" fill="rgb(16,16,16)"/>
<path d="M41 62h1v1h-1v-1z" fill="rgb(106,74,41)"/>
<path d="M59 62h1v3h-1v-3z" fill="rgb(16,16,16)"/>
<path d="M61 62h1v1h-1v-1z" fill="rgb(106,74,41)"/>
<path d="M39 63h1v1h-1v-1z" fill="rgb(16,16,16)"/>
<path d="M40 63h2v1h1v1h1v-1h1v2h-2v1h-1v-1h-3v-2h1v-1z" fill="rgb(197,115,74)"/>
<path d="M43 63h2v1h-2v-1z" fill="rgb(115,65,0)"/>
<path d="M63 63h1v1h-1v-1z" fill="rgb(16,16,16)"/>
<path d="M36 64h3v1h-3v-1z" fill="rgb(106,74,41)"/>
<path d="M40 64h1v1h-1v-1z" fill="rgb(106,74,41)"/>
<path d="M43 64h1v1h-1v-1z" fill="rgb(16,16,16)"/>
<path d="M45 64h1v2h-1v-2z" fill="rgb(16,16,16)"/>
<path d="M58 64h1v1h-1v-1z" fill="rgb(115,65,0)"/>
<path d="M60 64h2v1h-1v1h1v-1h2v1h1v1h1v1h-2v1h-1v-1h-1v-1h-1v1h-1v-1h-2v-2h2v-1z" fill="rgb(197,115,74)"/>
<path d="M62 64h1v1h-1v-1z" fill="rgb(16,16,16)"/>
<path d="M34 65h2v1h-2v-1z" fill="rgb(106,74,41)"/>
<path d="M36 65h3v1h-1v1h-4v-1h2v-1z" fill="rgb(222,164,115)"/>
<path d="M57 65h1v1h-1v-1z" fill="rgb(115,65,0)"/>
<path d="M61 65h1v1h-1v-1z" fill="rgb(16,16,16)"/>
<path d="M64 65h1v1h-1v-1z" fill="rgb(16,16,16)"/>
<path d="M33 66h1v1h-1v-1z" fill="rgb(106,74,41)"/>
<path d="M38 66h2v2h-1v-1h-1v-1z" fill="rgb(16,16,16)"/>
<path d="M40 66h2v2h-1v1h-1v1h-1v-2h1v-2z" fill="rgb(222,164,115)"/>
<path d="M43 66h2v1h-2v-1z" fill="rgb(16,16,16)"/>
<path d="M57 66h1v1h-1v-1z" fill="rgb(16,16,16)"/>
<path d="M65 66h2v1h-2v-1z" fill="rgb(115,65,0)"/>
<path d="M33 67h1v1h-1v-1z" fill="rgb(16,16,16)"/>
<path d="M34 67h2v1h-2v-1z" fill="rgb(197,115,74)"/>
<path d="M36 67h2v1h-2v-1z" fill="rgb(16,16,16)"/>
<path d="M38 67h1v1h-1v-1z" fill="transparent"/>
<path d="M42 67h1v2h-1v-2z" fill="rgb(16,16,16)"/>
<path d="M58 67h2v1h-2v-1z" fill="rgb(16,16,16)"/>
<path d="M61 67h1v1h1v2h1v1h-2v-1h-1v-3z" fill="rgb(222,164,115)"/>
<path d="M66 67h1v1h2v2h-2v-1h-1v-2z" fill="rgb(222,164,115)"/>
<path d="M67 67h2v1h-2v-1z" fill="rgb(115,65,0)"/>
<path d="M34 68h2v1h-2v-1z" fill="rgb(16,16,16)"/>
<path d="M38 68h1v2h-1v-2z" fill="rgb(115,65,0)"/>
<path d="M41 68h1v1h-1v-1z" fill="rgb(197,115,74)"/>
<path d="M60 68h1v2h-1v-2z" fill="rgb(16,16,16)"/>
<path d="M64 68h2v1h-2v-1z" fill="rgb(16,16,16)"/>
<path d="M69 68h1v2h-1v-2z" fill="rgb(16,16,16)"/>
<path d="M40 69h1v1h-1v-1z" fill="rgb(197,115,74)"/>
<path d="M41 69h1v1h-1v-1z" fill="rgb(16,16,16)"/>
<path d="M63 69h1v1h-1v-1z" fill="rgb(115,65,0)"/>
<path d="M66 69h1v1h-1v-1z" fill="rgb(16,16,16)"/>
<path d="M39 70h2v1h-2v-1z" fill="rgb(16,16,16)"/>
<path d="M61 70h1v2h-1v-2z" fill="rgb(16,16,16)"/>
<path d="M64 70h1v1h-1v-1z" fill="rgb(115,65,0)"/>
<path d="M67 70h2v1h-2v-1z" fill="rgb(16,16,16)"/>
<path d="M62 71h2v1h-2v-1z" fill="rgb(197,115,74)"/>
<path d="M64 71h1v1h-1v-1z" fill="rgb(16,16,16)"/>
<path d="M62 72h2v1h-2v-1z" fill="rgb(16,16,16)"/>
</svg>
