<?xml version="1.0" encoding="utf-8"?>
<!-- generated at drububu.com  -->
<!DOCTYPE svg PUBLIC "-//W3C//DTD SVG 1.1//EN" "http://www.w3.org/Graphics/SVG/1.1/DTD/svg11.dtd">
<svg version="1.1" preserveAspectRatio="xMinYMin meet" xmlns="http://www.w3.org/2000/svg" xmlns:xlink="http://www.w3.org/1999/xlink" x="0px" y="0px" width="96px" height="96px" viewBox="0 0 96 96">
<path d="M0 0h96v96h-96v-96z" fill="transparent"/>
<path d="M51 21h1v1h-1v-1z" fill="rgb(156,106,106)"/>
<path d="M52 21h1v1h-1v-1z" fill="rgb(98,74,32)"/>
<path d="M48 22h1v1h-1v-1z" fill="rgb(98,74,32)"/>
<path d="M51 22h1v1h-1v-1z" fill="rgb(98,74,32)"/>
<path d="M52 22h1v2h-1v3h-1v1h-1v-2h1v-3h1v-1z" fill="rgb(255,255,213)"/>
<path d="M53 22h2v1h-1v1h-1v-2z" fill="rgb(98,74,32)"/>
<path d="M31 23h2v1h-1v2h-1v-3z" fill="rgb(156,106,106)"/>
<path d="M34 23h2v1h-2v-1z" fill="rgb(98,74,32)"/>
<path d="M42 23h1v1h-1v-1z" fill="rgb(98,74,32)"/>
<path d="M47 23h1v1h-1v-1z" fill="rgb(98,74,32)"/>
<path d="M48 23h1v2h-1v2h-1v1h-1v-2h1v-2h1v-1z" fill="rgb(255,255,213)"/>
<path d="M49 23h1v1h-1v-1z" fill="rgb(98,74,32)"/>
<path d="M50 23h1v3h-1v-3z" fill="rgb(156,106,106)"/>
<path d="M54 23h1v2h-1v-2z" fill="rgb(230,189,156)"/>
<path d="M55 23h1v2h-1v-2z" fill="rgb(98,74,32)"/>
<path d="M32 24h1v1h1v2h-1v-1h-1v-2z" fill="rgb(255,255,213)"/>
<path d="M33 24h1v1h-1v-1z" fill="rgb(98,74,32)"/>
<path d="M34 24h1v1h-1v-1z" fill="rgb(255,255,213)"/>
<path d="M35 24h1v1h-1v-1z" fill="rgb(230,189,156)"/>
<path d="M36 24h1v1h-1v-1z" fill="rgb(98,74,32)"/>
<path d="M42 24h1v1h-1v-1z" fill="rgb(0,0,0)"/>
<path d="M43 24h1v1h-1v-1z" fill="rgb(98,74,32)"/>
<path d="M46 24h1v2h-1v-2z" fill="rgb(98,74,32)"/>
<path d="M49 24h1v1h-1v-1z" fill="rgb(0,0,0)"/>
<path d="M52 24h2v1h1v2h-2v-2h-1v-1z" fill="rgb(255,230,180)"/>
<path d="M34 25h2v1h-2v-1z" fill="rgb(255,230,180)"/>
<path d="M36 25h1v1h-1v-1z" fill="rgb(230,189,156)"/>
<path d="M37 25h1v1h-1v-1z" fill="rgb(98,74,32)"/>
<path d="M42 25h1v1h-1v-1z" fill="rgb(98,74,32)"/>
<path d="M43 25h1v3h3v-1h1v4h1v-1h1v-2h1v4h2v1h5v-4h1v-1h2v1h-1v1h-1v2h3v2h-1v1h-1v1h-1
	v1h-1v1h-4v3h1v-2h3v1h-1v1h-1v1h1v1h1v1h1v1h-3v-1h-2v-1h-1v1h1v3h1v4h-1v-1h-1
	v-1h-1v5h-1v-1h-1v-1h-1v1h-1v-1h-1v1h-1v1h-1v-1h-1v-2h1v-3h1v-1h3v-1h1v-4h1v-2
	h-2v1h-2v1h-3v1h-2v-3h1v-2h2v-1h-1v-1h1v-3h-1v1h-1v-2h-1v-2h1v-1h-1v-2h1v-2z" fill="rgb(255,230,180)"/>
<path d="M44 25h1v1h-1v-1z" fill="rgb(98,74,32)"/>
<path d="M48 25h2v1h-1v2h-1v-3z" fill="rgb(230,189,156)"/>
<path d="M52 25h1v2h-1v-2z" fill="rgb(205,139,90)"/>
<path d="M55 25h1v4h1v4h-2v-4h-1v-2h1v-2z" fill="rgb(230,189,156)"/>
<path d="M56 25h1v2h-1v-2z" fill="rgb(98,74,32)"/>
<path d="M32 26h1v1h-1v-1z" fill="rgb(205,139,90)"/>
<path d="M34 26h2v1h-2v-1z" fill="rgb(205,139,90)"/>
<path d="M36 26h1v1h-1v-1z" fill="rgb(255,230,180)"/>
<path d="M37 26h1v1h-1v-1z" fill="rgb(230,189,156)"/>
<path d="M38 26h1v1h-1v-1z" fill="rgb(0,0,0)"/>
<path d="M41 26h1v2h-1v-2z" fill="rgb(0,0,0)"/>
<path d="M42 26h1v1h-1v-1z" fill="rgb(230,189,156)"/>
<path d="M44 26h1v2h-1v-2z" fill="rgb(230,189,156)"/>
<path d="M45 26h1v1h-1v-1z" fill="rgb(98,74,32)"/>
<path d="M49 26h1v2h-1v-2z" fill="rgb(156,106,106)"/>
<path d="M32 27h1v2h-1v-2z" fill="rgb(98,74,32)"/>
<path d="M33 27h1v2h-1v-2z" fill="rgb(230,189,156)"/>
<path d="M34 27h1v3h1v3h1v1h-1v1h-1v-4h-1v-4z" fill="rgb(255,230,180)"/>
<path d="M35 27h1v1h1v2h1v2h-1v1h-1v-3h-1v-3z" fill="rgb(255,148,90)"/>
<path d="M36 27h1v1h-1v-1z" fill="rgb(205,139,90)"/>
<path d="M37 27h1v1h-1v-1z" fill="rgb(255,230,180)"/>
<path d="M38 27h1v1h1v1h2v2h-3v-1h-1v-3z" fill="rgb(230,189,156)"/>
<path d="M39 27h1v1h-1v-1z" fill="rgb(0,0,0)"/>
<path d="M45 27h1v1h-1v-1z" fill="rgb(0,0,0)"/>
<path d="M51 27h1v1h-1v-1z" fill="rgb(255,230,180)"/>
<path d="M52 27h1v2h1v3h-1v-1h-2v-1h1v-3z" fill="rgb(255,148,90)"/>
<path d="M53 27h1v2h-1v-2z" fill="rgb(205,139,90)"/>
<path d="M56 27h1v2h-1v-2z" fill="rgb(0,0,0)"/>
<path d="M59 27h3v2h-1v-1h-2v-1z" fill="rgb(98,74,32)"/>
<path d="M18 28h2v1h-2v-1z" fill="rgb(156,106,106)"/>
<path d="M20 28h2v1h-2v-1z" fill="rgb(90,49,0)"/>
<path d="M37 28h1v2h-1v-2z" fill="rgb(205,139,90)"/>
<path d="M40 28h1v1h-1v-1z" fill="rgb(0,0,0)"/>
<path d="M41 28h1v1h-1v-1z" fill="rgb(98,74,32)"/>
<path d="M48 28h1v2h-1v-2z" fill="rgb(156,106,106)"/>
<path d="M49 28h1v2h-1v-2z" fill="rgb(255,255,213)"/>
<path d="M51 28h1v2h-1v-2z" fill="rgb(205,139,90)"/>
<path d="M57 28h2v1h-2v-1z" fill="rgb(98,74,32)"/>
<path d="M16 29h2v1h-2v-1z" fill="rgb(156,106,106)"/>
<path d="M18 29h2v1h1v3h-1v1h-1v2h-2v1h-3v-1h-1v-2h1v-2h2v1h2v-1h1v-2h-1v-1z" fill="rgb(205,139,90)"/>
<path d="M20 29h2v1h1v1h1v1h-1v1h-1v3h-1v2h-2v1h-5v-1h-1v-2h1v1h3v-1h2v-2h1v-1h1v-3h-1
	v-1z" fill="rgb(156,106,106)"/>
<path d="M22 29h1v1h-1v-1z" fill="rgb(90,49,0)"/>
<path d="M33 29h1v3h-1v-3z" fill="rgb(98,74,32)"/>
<path d="M42 29h1v1h-1v-1z" fill="rgb(98,74,32)"/>
<path d="M54 29h1v4h-1v-4z" fill="rgb(156,106,106)"/>
<path d="M57 29h1v2h-1v-2z" fill="rgb(0,0,0)"/>
<path d="M60 29h1v1h3v1h-4v-2z" fill="rgb(98,74,32)"/>
<path d="M15 30h1v1h-1v-1z" fill="rgb(0,0,0)"/>
<path d="M16 30h3v2h-1v1h-2v-1h-1v-1h1v-1z" fill="rgb(230,180,139)"/>
<path d="M23 30h1v1h-1v-1z" fill="rgb(90,49,0)"/>
<path d="M38 30h1v2h-1v-2z" fill="rgb(189,74,49)"/>
<path d="M48 30h1v1h-1v-1z" fill="rgb(205,139,90)"/>
<path d="M59 30h1v1h2v1h-3v-2z" fill="rgb(230,189,156)"/>
<path d="M14 31h1v1h-1v-1z" fill="rgb(0,0,0)"/>
<path d="M24 31h1v1h-1v-1z" fill="rgb(0,0,0)"/>
<path d="M34 31h1v1h-1v-1z" fill="rgb(230,189,156)"/>
<path d="M39 31h1v1h-1v-1z" fill="rgb(205,139,90)"/>
<path d="M40 31h1v1h-1v-1z" fill="rgb(255,230,180)"/>
<path d="M41 31h1v1h1v2h1v-1h1v3h-1v1h1v1h-3v1h-4v-1h-2v-1h-1v-2h1v-1h1v-1h2v-1h2v-1z" fill="rgb(255,255,213)"/>
<path d="M51 31h2v1h-2v-1z" fill="rgb(189,74,49)"/>
<path d="M57 31h1v2h-1v-2z" fill="rgb(98,74,32)"/>
<path d="M62 31h1v1h-1v-1z" fill="rgb(255,230,180)"/>
<path d="M63 31h1v2h-1v-2z" fill="rgb(0,0,0)"/>
<path d="M13 32h1v2h-1v-2z" fill="rgb(0,0,0)"/>
<path d="M23 32h1v1h-1v-1z" fill="rgb(90,49,0)"/>
<path d="M24 32h1v3h-1v1h-1v-3h1v-1z" fill="rgb(156,106,106)"/>
<path d="M25 32h2v1h-1v2h-1v-3z" fill="rgb(0,0,0)"/>
<path d="M34 32h1v1h-1v-1z" fill="rgb(205,139,90)"/>
<path d="M37 32h1v1h-1v-1z" fill="rgb(189,74,49)"/>
<path d="M38 32h1v1h-1v-1z" fill="rgb(255,230,180)"/>
<path d="M53 32h1v1h-1v-1z" fill="rgb(189,74,49)"/>
<path d="M62 32h1v1h-1v-1z" fill="rgb(230,189,156)"/>
<path d="M22 33h1v3h-1v-3z" fill="rgb(90,49,0)"/>
<path d="M26 33h1v2h-1v-2z" fill="rgb(123,123,123)"/>
<path d="M27 33h1v4h-1v-4z" fill="rgb(0,0,0)"/>
<path d="M34 33h1v2h-1v-2z" fill="rgb(0,0,0)"/>
<path d="M62 33h1v1h-1v-1z" fill="rgb(0,0,0)"/>
<path d="M12 34h1v4h-1v-4z" fill="rgb(0,0,0)"/>
<path d="M31 34h3v1h-3v-1z" fill="rgb(98,74,32)"/>
<path d="M52 34h1v1h-1v-1z" fill="rgb(230,189,156)"/>
<path d="M54 34h1v1h-1v-1z" fill="rgb(230,189,156)"/>
<path d="M61 34h2v1h4v1h-1v1h-1v1h1v1h-2v1h-1v1h-2v1h-1v4h1v1h-3v1h1v1h-2v1h1v2h1v1h1v1
	h3v-1h2v1h1v1h-3v1h-1v2h-1v-2h-1v-1h-2v1h-1v-1h-2v-1h-1v1h1v1h-1v2h1v2h-1v-1h-1
	v1h-1v1h-1v-1h-2v-1h-1v1h1v4h-1v-1h-1v-1h-1v-1h-1v-1h-1v1h1v1h-1v1h-1v-1h-1v-1
	h-1v-2h-1v2h-1v-2h-1v-1h-2v-2h-4v-1h1v-2h1v-1h-1v1h-4v-1h1v-1h1v-1h1v1h2v-1h2
	v1h1v1h5v-1h1v-1h1v-3h2v1h-1v3h-1v2h1v1h1v-1h1v-1h1v1h1v-1h1v1h1v1h1v-5h1v1h1v1
	h1v-4h-1v-3h2v1h3v-1h-1v-1h-1v-1h-1v-1h1v-1h1v-1h-2v-1h2v-1h1v-1h1v-1h1v-1z" fill="rgb(230,189,156)"/>
<path d="M63 34h4v1h-4v-1z" fill="rgb(98,74,32)"/>
<path d="M24 35h1v1h-1v-1z" fill="rgb(0,0,0)"/>
<path d="M25 35h2v2h-1v1h-2v1h-2v-1h1v-1h1v-1h1v-1z" fill="rgb(65,65,65)"/>
<path d="M31 35h1v1h-1v-1z" fill="rgb(0,0,0)"/>
<path d="M32 35h3v2h1v1h2v1h4v1h-1v2h-1v-2h-1v3h-1v-1h-1v-1h-1v-1h-1v-1h-1v-2h-1v-1h-1
	v-1z" fill="rgb(255,230,180)"/>
<path d="M52 35h1v1h-1v-1z" fill="rgb(205,139,90)"/>
<path d="M54 35h1v1h-1v-1z" fill="rgb(205,139,90)"/>
<path d="M67 35h1v1h-1v-1z" fill="rgb(98,74,32)"/>
<path d="M21 36h1v1h-1v-1z" fill="rgb(90,49,0)"/>
<path d="M22 36h1v1h-1v-1z" fill="rgb(156,106,106)"/>
<path d="M23 36h1v1h-1v-1z" fill="rgb(0,0,0)"/>
<path d="M32 36h1v1h-1v-1z" fill="rgb(0,0,0)"/>
<path d="M50 36h1v1h-1v-1z" fill="rgb(230,189,156)"/>
<path d="M51 36h1v1h-1v-1z" fill="rgb(205,139,90)"/>
<path d="M52 36h1v1h-1v-1z" fill="rgb(156,106,106)"/>
<path d="M54 36h1v1h-1v-1z" fill="rgb(156,106,106)"/>
<path d="M55 36h1v1h-1v-1z" fill="rgb(205,139,90)"/>
<path d="M56 36h1v1h-1v-1z" fill="rgb(230,189,156)"/>
<path d="M66 36h1v1h-1v-1z" fill="rgb(0,0,0)"/>
<path d="M21 37h2v1h-1v1h-3v-1h2v-1z" fill="rgb(0,0,0)"/>
<path d="M26 37h1v1h-1v-1z" fill="rgb(0,0,0)"/>
<path d="M27 37h1v1h1v3h-1v2h-1v-1h-1v-1h-1v-2h1v-1h1v-1z" fill="rgb(156,106,106)"/>
<path d="M28 37h1v1h-1v-1z" fill="rgb(0,0,0)"/>
<path d="M32 37h1v1h-1v-1z" fill="rgb(90,49,0)"/>
<path d="M33 37h1v1h-1v-1z" fill="rgb(0,0,0)"/>
<path d="M65 37h1v1h-1v-1z" fill="rgb(0,0,0)"/>
<path d="M13 38h1v1h-1v-1z" fill="rgb(0,0,0)"/>
<path d="M24 38h2v1h-2v-1z" fill="rgb(0,0,0)"/>
<path d="M29 38h3v1h-3v-1z" fill="rgb(0,0,0)"/>
<path d="M32 38h1v1h-1v-1z" fill="rgb(98,74,32)"/>
<path d="M33 38h1v1h-1v-1z" fill="rgb(205,139,90)"/>
<path d="M42 38h1v1h-1v-1z" fill="rgb(230,189,156)"/>
<path d="M50 38h1v1h-1v-1z" fill="rgb(230,189,156)"/>
<path d="M51 38h1v1h-1v-1z" fill="rgb(205,139,90)"/>
<path d="M52 38h1v1h-1v-1z" fill="rgb(156,106,106)"/>
<path d="M54 38h1v1h-1v-1z" fill="rgb(156,106,106)"/>
<path d="M55 38h1v1h-1v-1z" fill="rgb(205,139,90)"/>
<path d="M66 38h3v1h-3v-1z" fill="rgb(90,49,0)"/>
<path d="M14 39h5v1h-5v-1z" fill="rgb(0,0,0)"/>
<path d="M22 39h2v1h-2v-1z" fill="rgb(0,0,0)"/>
<path d="M24 39h1v2h-1v-2z" fill="rgb(90,49,0)"/>
<path d="M29 39h2v2h-1v1h-1v1h-1v-2h1v-2z" fill="rgb(205,139,90)"/>
<path d="M31 39h1v2h-1v-2z" fill="rgb(98,74,32)"/>
<path d="M32 39h1v1h1v5h1v5h-1v1h-2v-2h-1v-1h-1v-1h1v-1h1v-3h-2v-1h1v-1h1v-2z" fill="rgb(255,230,180)"/>
<path d="M33 39h1v1h-1v-1z" fill="rgb(230,189,156)"/>
<path d="M34 39h1v1h-1v-1z" fill="rgb(156,106,106)"/>
<path d="M42 39h1v1h-1v-1z" fill="rgb(205,139,90)"/>
<path d="M52 39h1v1h-1v-1z" fill="rgb(205,139,90)"/>
<path d="M54 39h1v1h-1v-1z" fill="rgb(205,139,90)"/>
<path d="M64 39h2v1h-2v-1z" fill="rgb(90,49,0)"/>
<path d="M66 39h2v1h-1v2h1v1h2v-1h2v3h-1v1h-5v-1h-1v-1h-1v-4h2v-1z" fill="rgb(205,139,90)"/>
<path d="M68 39h1v1h1v1h1v1h-1v1h-2v-1h-1v-2h1v-1z" fill="rgb(230,180,139)"/>
<path d="M69 39h2v1h-2v-1z" fill="rgb(90,49,0)"/>
<path d="M34 40h2v1h-2v-1z" fill="rgb(98,74,32)"/>
<path d="M39 40h1v1h-1v-1z" fill="rgb(230,189,156)"/>
<path d="M41 40h1v2h-1v-2z" fill="rgb(205,139,90)"/>
<path d="M49 40h1v1h-1v-1z" fill="rgb(98,74,32)"/>
<path d="M50 40h1v1h-1v-1z" fill="rgb(156,106,106)"/>
<path d="M52 40h1v1h-1v-1z" fill="rgb(230,189,156)"/>
<path d="M54 40h1v1h-1v-1z" fill="rgb(230,189,156)"/>
<path d="M63 40h1v1h-1v-1z" fill="rgb(0,0,0)"/>
<path d="M70 40h1v1h-1v-1z" fill="rgb(205,139,90)"/>
<path d="M71 40h1v2h-1v-2z" fill="rgb(90,49,0)"/>
<path d="M25 41h1v1h-1v-1z" fill="rgb(90,49,0)"/>
<path d="M30 41h1v1h-1v-1z" fill="rgb(98,74,32)"/>
<path d="M34 41h1v3h-1v-3z" fill="rgb(205,139,90)"/>
<path d="M35 41h1v1h-1v-1z" fill="rgb(197,197,197)"/>
<path d="M36 41h1v1h-1v-1z" fill="rgb(98,74,32)"/>
<path d="M39 41h1v1h-1v-1z" fill="rgb(205,139,90)"/>
<path d="M47 41h2v1h-2v-1z" fill="rgb(98,74,32)"/>
<path d="M49 41h1v5h-1v-5z" fill="rgb(205,139,90)"/>
<path d="M50 41h1v1h-1v-1z" fill="rgb(230,189,156)"/>
<path d="M61 41h1v1h-1v-1z" fill="rgb(0,0,0)"/>
<path d="M62 41h1v3h-1v-3z" fill="rgb(90,49,0)"/>
<path d="M63 41h1v3h-1v-3z" fill="rgb(156,106,106)"/>
<path d="M26 42h1v1h-1v-1z" fill="rgb(90,49,0)"/>
<path d="M29 42h1v1h-1v-1z" fill="rgb(98,74,32)"/>
<path d="M35 42h1v1h1v2h-2v-3z" fill="rgb(255,255,255)"/>
<path d="M36 42h1v1h-1v-1z" fill="rgb(197,197,197)"/>
<path d="M37 42h1v1h-1v-1z" fill="rgb(98,74,32)"/>
<path d="M39 42h1v1h-1v-1z" fill="rgb(98,74,32)"/>
<path d="M40 42h1v2h1v1h-2v-1h-1v-1h1v-1z" fill="rgb(230,189,156)"/>
<path d="M41 42h1v1h2v1h-3v-2z" fill="rgb(98,74,32)"/>
<path d="M44 42h1v1h-1v-1z" fill="rgb(156,106,106)"/>
<path d="M45 42h2v1h-2v-1z" fill="rgb(98,74,32)"/>
<path d="M47 42h1v1h-1v-1z" fill="rgb(197,197,197)"/>
<path d="M48 42h1v4h-4v-2h1v-1h2v-1z" fill="rgb(255,255,255)"/>
<path d="M60 42h1v4h-1v-4z" fill="rgb(0,0,0)"/>
<path d="M61 42h1v2h1v2h-2v-4z" fill="rgb(156,106,106)"/>
<path d="M72 42h1v2h-1v-2z" fill="rgb(90,49,0)"/>
<path d="M27 43h3v1h-3v-1z" fill="rgb(90,49,0)"/>
<path d="M30 43h1v1h-1v-1z" fill="rgb(98,74,32)"/>
<path d="M31 43h1v1h-1v-1z" fill="rgb(230,189,156)"/>
<path d="M37 43h1v1h-1v-1z" fill="rgb(0,0,0)"/>
<path d="M38 43h1v1h-1v-1z" fill="rgb(98,74,32)"/>
<path d="M44 43h2v1h-2v-1z" fill="rgb(197,197,197)"/>
<path d="M53 43h1v1h-1v-1z" fill="rgb(230,189,156)"/>
<path d="M31 44h1v2h-1v-2z" fill="rgb(98,74,32)"/>
<path d="M34 44h1v1h-1v-1z" fill="rgb(230,189,156)"/>
<path d="M37 44h1v1h-1v-1z" fill="rgb(123,123,123)"/>
<path d="M38 44h1v1h-1v-1z" fill="rgb(255,255,255)"/>
<path d="M39 44h1v1h-1v-1z" fill="rgb(98,74,32)"/>
<path d="M42 44h1v1h-1v-1z" fill="rgb(156,106,106)"/>
<path d="M43 44h1v2h-2v-1h1v-1z" fill="rgb(255,255,255)"/>
<path d="M44 44h1v1h-1v-1z" fill="rgb(0,0,0)"/>
<path d="M63 44h1v2h-1v-2z" fill="rgb(90,49,0)"/>
<path d="M64 44h1v1h1v1h5v-1h1v-1h1v4h-1v1h-1v1h-4v-1h-2v-1h-1v-4z" fill="rgb(156,106,106)"/>
<path d="M73 44h1v4h-1v-4z" fill="rgb(90,49,0)"/>
<path d="M35 45h2v1h-2v-1z" fill="rgb(205,139,90)"/>
<path d="M37 45h5v1h-5v-1z" fill="rgb(189,74,49)"/>
<path d="M44 45h1v1h-1v-1z" fill="rgb(123,123,123)"/>
<path d="M30 46h1v1h-1v-1z" fill="rgb(98,74,32)"/>
<path d="M35 46h1v1h-1v-1z" fill="rgb(230,189,156)"/>
<path d="M36 46h1v1h-1v-1z" fill="rgb(189,74,49)"/>
<path d="M37 46h5v1h1v3h-1v1h-5v-1h-1v-3h1v-1z" fill="rgb(255,148,90)"/>
<path d="M42 46h1v1h-1v-1z" fill="rgb(189,74,49)"/>
<path d="M43 46h5v1h-5v-1z" fill="rgb(205,139,90)"/>
<path d="M48 46h1v1h-1v-1z" fill="rgb(230,189,156)"/>
<path d="M61 46h3v2h-1v-1h-1v2h-1v-3z" fill="rgb(0,0,0)"/>
<path d="M29 47h1v1h-1v-1z" fill="rgb(98,74,32)"/>
<path d="M35 47h1v1h-1v-1z" fill="rgb(189,74,49)"/>
<path d="M37 47h1v2h-1v-2z" fill="rgb(189,74,49)"/>
<path d="M40 47h1v2h-1v-2z" fill="rgb(189,74,49)"/>
<path d="M43 47h1v1h-1v-1z" fill="rgb(189,74,49)"/>
<path d="M58 47h1v1h-1v-1z" fill="rgb(90,49,0)"/>
<path d="M59 47h2v2h1v1h1v1h1v1h-1v1h-3v-1h-1v-2h1v-2h-1v-1z" fill="rgb(156,106,106)"/>
<path d="M62 47h1v1h1v1h1v1h2v1h-3v-1h-1v-1h-1v-2z" fill="rgb(65,65,65)"/>
<path d="M29 48h1v1h-1v-1z" fill="rgb(0,0,0)"/>
<path d="M30 48h1v1h-1v-1z" fill="rgb(230,189,156)"/>
<path d="M35 48h1v1h-1v-1z" fill="rgb(0,0,0)"/>
<path d="M43 48h1v2h-1v-2z" fill="rgb(90,49,0)"/>
<path d="M59 48h1v2h-2v-1h1v-1z" fill="rgb(90,49,0)"/>
<path d="M64 48h1v1h-1v-1z" fill="rgb(0,0,0)"/>
<path d="M72 48h1v1h-1v-1z" fill="rgb(90,49,0)"/>
<path d="M30 49h1v1h-1v-1z" fill="rgb(0,0,0)"/>
<path d="M31 49h1v1h-1v-1z" fill="rgb(98,74,32)"/>
<path d="M35 49h1v1h-1v-1z" fill="rgb(90,49,0)"/>
<path d="M57 49h1v1h-1v-1z" fill="rgb(0,0,0)"/>
<path d="M62 49h1v1h-1v-1z" fill="rgb(0,0,0)"/>
<path d="M65 49h2v1h-2v-1z" fill="rgb(0,0,0)"/>
<path d="M71 49h1v1h-1v-1z" fill="rgb(90,49,0)"/>
<path d="M30 50h1v1h-1v-1z" fill="rgb(98,74,32)"/>
<path d="M36 50h1v1h-1v-1z" fill="rgb(90,49,0)"/>
<path d="M42 50h1v1h-1v-1z" fill="rgb(90,49,0)"/>
<path d="M58 50h1v2h-1v-2z" fill="rgb(0,0,0)"/>
<path d="M63 50h1v1h-1v-1z" fill="rgb(0,0,0)"/>
<path d="M67 50h4v1h-3v1h-3v1h-2v-1h1v-1h3v-1z" fill="rgb(0,0,0)"/>
<path d="M29 51h1v1h-1v-1z" fill="rgb(98,74,32)"/>
<path d="M37 51h5v1h-5v-1z" fill="rgb(90,49,0)"/>
<path d="M28 52h1v1h1v1h-2v-2z" fill="rgb(98,74,32)"/>
<path d="M33 52h1v1h-1v-1z" fill="rgb(205,139,90)"/>
<path d="M59 52h1v1h-1v-1z" fill="rgb(0,0,0)"/>
<path d="M30 53h2v1h-2v-1z" fill="rgb(0,0,0)"/>
<path d="M32 53h1v1h-1v-1z" fill="rgb(205,139,90)"/>
<path d="M60 53h3v1h-3v-1z" fill="rgb(0,0,0)"/>
<path d="M65 53h1v1h-1v-1z" fill="rgb(90,49,0)"/>
<path d="M32 54h1v1h-1v-1z" fill="rgb(90,49,0)"/>
<path d="M54 54h1v1h-1v-1z" fill="rgb(90,49,0)"/>
<path d="M66 54h1v1h-1v-1z" fill="rgb(90,49,0)"/>
<path d="M31 55h1v1h3v1h-5v-1h1v-1z" fill="rgb(90,49,0)"/>
<path d="M36 55h1v1h-1v-1z" fill="rgb(98,74,32)"/>
<path d="M55 55h1v1h-1v-1z" fill="rgb(90,49,0)"/>
<path d="M56 55h1v1h-1v-1z" fill="rgb(0,0,0)"/>
<path d="M58 55h1v1h-1v-1z" fill="rgb(0,0,0)"/>
<path d="M59 55h1v1h-1v-1z" fill="rgb(90,49,0)"/>
<path d="M63 55h3v1h-3v-1z" fill="rgb(90,49,0)"/>
<path d="M35 56h1v1h-1v-1z" fill="rgb(98,74,32)"/>
<path d="M54 56h1v2h-1v-2z" fill="rgb(90,49,0)"/>
<path d="M55 56h2v1h1v-1h2v2h-2v1h-1v1h-1v-2h-1v-2z" fill="rgb(156,106,106)"/>
<path d="M57 56h1v1h-1v-1z" fill="rgb(0,0,0)"/>
<path d="M60 56h1v2h-1v-2z" fill="rgb(0,0,0)"/>
<path d="M62 56h1v2h-1v-2z" fill="rgb(90,49,0)"/>
<path d="M29 57h1v3h-1v-3z" fill="rgb(90,49,0)"/>
<path d="M30 57h4v3h-2v-1h-2v-2z" fill="rgb(205,139,90)"/>
<path d="M34 57h1v2h-1v-2z" fill="rgb(156,106,106)"/>
<path d="M35 57h1v1h-1v-1z" fill="rgb(90,49,0)"/>
<path d="M32 58h1v1h-1v-1z" fill="rgb(156,106,106)"/>
<path d="M35 58h3v1h-1v2h-1v-2h-1v-1z" fill="rgb(0,0,0)"/>
<path d="M55 58h1v2h-1v-2z" fill="rgb(90,49,0)"/>
<path d="M58 58h2v2h1v1h-1v1h-2v-2h-1v-1h1v-1z" fill="rgb(205,139,90)"/>
<path d="M60 58h1v2h-1v-2z" fill="rgb(156,106,106)"/>
<path d="M61 58h1v1h-1v-1z" fill="rgb(90,49,0)"/>
<path d="M30 59h2v1h2v1h-3v-1h-1v-1z" fill="rgb(156,106,106)"/>
<path d="M34 59h1v2h-1v-2z" fill="rgb(0,0,0)"/>
<path d="M35 59h1v2h-1v-2z" fill="rgb(123,123,123)"/>
<path d="M37 59h1v2h-1v-2z" fill="transparent"/>
<path d="M38 59h1v2h-1v-2z" fill="rgb(98,74,32)"/>
<path d="M40 59h1v1h-1v-1z" fill="rgb(98,74,32)"/>
<path d="M48 59h1v1h-1v-1z" fill="rgb(0,0,0)"/>
<path d="M53 59h1v1h-1v-1z" fill="rgb(90,49,0)"/>
<path d="M61 59h1v1h2v1h-1v1h-1v-1h-1v-2z" fill="rgb(0,0,0)"/>
<path d="M28 60h1v4h-1v-4z" fill="rgb(0,0,0)"/>
<path d="M29 60h1v2h-1v-2z" fill="rgb(123,123,123)"/>
<path d="M30 60h1v1h3v1h-4v-2z" fill="rgb(0,0,0)"/>
<path d="M40 60h1v1h-1v-1z" fill="rgb(0,0,0)"/>
<path d="M44 60h1v1h-1v-1z" fill="rgb(0,0,0)"/>
<path d="M49 60h1v4h-1v-4z" fill="rgb(0,0,0)"/>
<path d="M50 60h1v1h-1v-1z" fill="rgb(90,49,0)"/>
<path d="M52 60h1v1h-1v-1z" fill="rgb(90,49,0)"/>
<path d="M54 60h1v1h-1v-1z" fill="rgb(0,0,0)"/>
<path d="M55 60h1v1h-1v-1z" fill="rgb(230,189,156)"/>
<path d="M56 60h1v2h-2v-1h1v-1z" fill="rgb(0,0,0)"/>
<path d="M57 60h1v2h-1v-2z" fill="rgb(156,106,106)"/>
<path d="M34 61h1v1h-1v-1z" fill="rgb(123,123,123)"/>
<path d="M35 61h2v2h-1v1h-1v1h-5v-1h-1v-2h1v1h4v-1h1v-1z" fill="rgb(65,65,65)"/>
<path d="M37 61h1v2h-1v-2z" fill="rgb(0,0,0)"/>
<path d="M39 61h1v1h-1v-1z" fill="rgb(98,74,32)"/>
<path d="M41 61h1v1h-1v-1z" fill="rgb(0,0,0)"/>
<path d="M45 61h1v1h-1v-1z" fill="rgb(0,0,0)"/>
<path d="M51 61h1v1h-1v-1z" fill="rgb(90,49,0)"/>
<path d="M60 61h1v2h-1v-2z" fill="rgb(90,49,0)"/>
<path d="M61 61h1v1h1v2h-1v1h-3v-2h-1v-1h2v1h1v-2z" fill="rgb(156,106,106)"/>
<path d="M63 61h1v1h-1v-1z" fill="rgb(123,123,123)"/>
<path d="M64 61h1v1h-1v-1z" fill="rgb(0,0,0)"/>
<path d="M30 62h4v1h-4v-1z" fill="rgb(123,123,123)"/>
<path d="M42 62h1v1h-1v-1z" fill="rgb(0,0,0)"/>
<path d="M44 62h1v1h-1v-1z" fill="rgb(0,0,0)"/>
<path d="M46 62h1v1h-1v-1z" fill="rgb(0,0,0)"/>
<path d="M57 62h1v1h1v1h-1v3h-1v-5z" fill="rgb(0,0,0)"/>
<path d="M63 62h1v2h-1v-2z" fill="rgb(0,0,0)"/>
<path d="M64 62h1v2h-1v-2z" fill="rgb(123,123,123)"/>
<path d="M65 62h1v2h-1v-2z" fill="rgb(0,0,0)"/>
<path d="M36 63h1v2h-2v-1h1v-1z" fill="rgb(0,0,0)"/>
<path d="M43 63h1v1h-1v-1z" fill="rgb(0,0,0)"/>
<path d="M47 63h1v1h-1v-1z" fill="rgb(0,0,0)"/>
<path d="M29 64h1v1h-1v-1z" fill="rgb(0,0,0)"/>
<path d="M48 64h1v1h-1v-1z" fill="rgb(0,0,0)"/>
<path d="M58 64h1v2h-1v-2z" fill="rgb(123,123,123)"/>
<path d="M62 64h1v1h-1v-1z" fill="rgb(0,0,0)"/>
<path d="M63 64h1v1h-1v-1z" fill="rgb(123,123,123)"/>
<path d="M64 64h2v3h-1v1h-2v1h-4v-2h3v-1h1v-1h1v-1z" fill="rgb(65,65,65)"/>
<path d="M66 64h1v3h-1v-3z" fill="rgb(0,0,0)"/>
<path d="M30 65h5v1h-5v-1z" fill="rgb(0,0,0)"/>
<path d="M35 65h2v2h-2v1h-1v1h-1v2h-2v1h-3v-3h1v1h2v-1h1v-1h1v-1h-3v-1h5v-1z" fill="rgb(156,106,106)"/>
<path d="M37 65h1v2h-1v-2z" fill="rgb(0,0,0)"/>
<path d="M59 65h3v1h-3v-1z" fill="rgb(0,0,0)"/>
<path d="M62 65h1v1h-1v-1z" fill="rgb(123,123,123)"/>
<path d="M28 66h2v1h-2v-1z" fill="rgb(0,0,0)"/>
<path d="M58 66h1v1h-1v-1z" fill="rgb(65,65,65)"/>
<path d="M59 66h3v1h-3v-1z" fill="rgb(123,123,123)"/>
<path d="M26 67h2v1h-2v-1z" fill="rgb(0,0,0)"/>
<path d="M28 67h5v1h-1v1h-1v1h-2v-1h1v-1h-2v-1z" fill="rgb(205,139,90)"/>
<path d="M35 67h2v1h-2v-1z" fill="rgb(0,0,0)"/>
<path d="M58 67h1v2h-1v-2z" fill="rgb(0,0,0)"/>
<path d="M65 67h1v1h-1v-1z" fill="rgb(0,0,0)"/>
<path d="M66 67h1v1h-1v-1z" fill="rgb(90,49,0)"/>
<path d="M25 68h1v3h-1v-3z" fill="rgb(0,0,0)"/>
<path d="M26 68h1v1h-1v-1z" fill="rgb(205,139,90)"/>
<path d="M27 68h1v1h-1v-1z" fill="rgb(156,106,106)"/>
<path d="M28 68h2v1h-2v-1z" fill="rgb(90,49,0)"/>
<path d="M34 68h1v1h-1v-1z" fill="rgb(0,0,0)"/>
<path d="M63 68h2v1h-2v-1z" fill="rgb(0,0,0)"/>
<path d="M65 68h2v1h-1v1h-2v1h-2v-1h1v-1h2v-1z" fill="rgb(156,106,106)"/>
<path d="M67 68h1v1h-1v-1z" fill="rgb(0,0,0)"/>
<path d="M26 69h1v2h-1v-2z" fill="rgb(156,106,106)"/>
<path d="M27 69h1v2h-1v-2z" fill="rgb(90,49,0)"/>
<path d="M33 69h1v2h-1v-2z" fill="rgb(0,0,0)"/>
<path d="M59 69h4v1h-1v1h-1v-1h-2v-1z" fill="rgb(0,0,0)"/>
<path d="M66 69h2v1h1v1h1v1h-4v2h-2v-2h-1v-1h1v-1h2v-1z" fill="rgb(205,139,90)"/>
<path d="M68 69h2v1h-2v-1z" fill="rgb(0,0,0)"/>
<path d="M69 70h1v1h-1v-1z" fill="rgb(156,106,106)"/>
<path d="M70 70h1v1h-1v-1z" fill="rgb(0,0,0)"/>
<path d="M26 71h2v1h-2v-1z" fill="rgb(0,0,0)"/>
<path d="M31 71h2v1h-2v-1z" fill="rgb(0,0,0)"/>
<path d="M62 71h1v1h-1v-1z" fill="rgb(0,0,0)"/>
<path d="M70 71h1v3h-1v1h-1v-2h-1v-1h2v-1z" fill="rgb(156,106,106)"/>
<path d="M71 71h1v3h-1v-3z" fill="rgb(0,0,0)"/>
<path d="M28 72h3v1h-3v-1z" fill="rgb(0,0,0)"/>
<path d="M63 72h1v3h-1v-3z" fill="rgb(0,0,0)"/>
<path d="M66 72h2v1h-2v-1z" fill="rgb(90,49,0)"/>
<path d="M66 73h2v2h-4v-1h2v-1z" fill="rgb(156,106,106)"/>
<path d="M68 73h1v1h-1v-1z" fill="rgb(90,49,0)"/>
<path d="M68 74h1v1h1v1h-6v-1h4v-1z" fill="rgb(0,0,0)"/>
<path d="M70 74h1v1h-1v-1z" fill="rgb(0,0,0)"/>
</svg>
