<?xml version="1.0" encoding="utf-8"?>
<!-- generated at drububu.com  -->
<!DOCTYPE svg PUBLIC "-//W3C//DTD SVG 1.1//EN" "http://www.w3.org/Graphics/SVG/1.1/DTD/svg11.dtd">
<svg version="1.1" preserveAspectRatio="xMinYMin meet" xmlns="http://www.w3.org/2000/svg" xmlns:xlink="http://www.w3.org/1999/xlink" x="0px" y="0px" width="96px" height="96px" viewBox="0 0 96 96">
<path d="M0 0h96v96h-96v-96z" fill="transparent"/>
<path d="M57 26h6v1h-6v-1z" fill="rgb(115,98,32)"/>
<path d="M55 27h2v1h-2v-1z" fill="rgb(115,98,32)"/>
<path d="M57 27h6v1h2v1h2v1h2v1h-3v1h-1v2h-1v-1h-1v1h-1v1h-2v1h-4v-1h-2v-1h-1v-3h1v-2h1
	v-1h2v-1z" fill="rgb(255,246,164)"/>
<path d="M63 27h2v1h-2v-1z" fill="rgb(115,98,32)"/>
<path d="M54 28h1v1h-1v-1z" fill="rgb(115,98,32)"/>
<path d="M65 28h2v1h-2v-1z" fill="rgb(115,98,32)"/>
<path d="M36 29h2v1h-2v-1z" fill="rgb(197,172,98)"/>
<path d="M38 29h1v2h2v1h-3v-3z" fill="rgb(115,98,32)"/>
<path d="M53 29h1v2h-1v-2z" fill="rgb(115,98,32)"/>
<path d="M67 29h2v1h-2v-1z" fill="rgb(115,98,32)"/>
<path d="M33 30h3v1h-3v-1z" fill="rgb(197,172,98)"/>
<path d="M36 30h2v2h3v-1h2v1h-1v1h-1v1h-1v1h-2v1h-3v1h-2v1h-1v1h-1v1h-1v-1h-1v-4h1v-2h1
	v-1h2v-1h3v-1z" fill="rgb(255,246,164)"/>
<path d="M41 30h3v1h-3v-1z" fill="rgb(115,98,32)"/>
<path d="M69 30h1v1h-1v-1z" fill="rgb(16,16,16)"/>
<path d="M31 31h2v1h-2v-1z" fill="rgb(197,172,98)"/>
<path d="M43 31h1v1h-1v-1z" fill="rgb(16,16,16)"/>
<path d="M52 31h1v5h-1v-5z" fill="rgb(16,16,16)"/>
<path d="M66 31h1v1h2v1h2v1h-1v1h-2v1h1v1h-2v-4h-1v4h-1v2h-1v1h-1v1h-1v-1h-2v-1h-2v-1h-4
	v-2h-1v-2h1v1h2v1h4v-1h2v1h1v-1h1v-1h1v-2h1v-1z" fill="rgb(222,205,123)"/>
<path d="M67 31h2v1h-2v-1z" fill="rgb(16,16,16)"/>
<path d="M30 32h1v1h-1v-1z" fill="rgb(197,172,98)"/>
<path d="M42 32h1v2h-1v-2z" fill="rgb(16,16,16)"/>
<path d="M69 32h2v1h-2v-1z" fill="rgb(115,98,32)"/>
<path d="M29 33h1v2h-1v-2z" fill="rgb(115,98,32)"/>
<path d="M41 33h1v1h-1v-1z" fill="rgb(222,205,123)"/>
<path d="M63 33h1v1h-1v-1z" fill="rgb(222,205,123)"/>
<path d="M66 33h1v1h-1v-1z" fill="rgb(197,172,98)"/>
<path d="M71 33h1v1h-1v-1z" fill="rgb(16,16,16)"/>
<path d="M40 34h1v1h3v1h-1v1h-2v1h-1v-1h-4v1h-3v-1h2v-1h3v-1h2v-1z" fill="rgb(222,205,123)"/>
<path d="M41 34h3v1h-3v-1z" fill="rgb(115,98,32)"/>
<path d="M62 34h1v1h-1v-1z" fill="rgb(222,205,123)"/>
<path d="M63 34h1v1h-1v-1z" fill="rgb(255,246,164)"/>
<path d="M66 34h1v2h-1v-2z" fill="rgb(115,98,32)"/>
<path d="M70 34h1v1h-1v-1z" fill="rgb(16,16,16)"/>
<path d="M28 35h1v4h-1v-4z" fill="rgb(115,98,32)"/>
<path d="M44 35h1v1h-1v-1z" fill="rgb(115,98,32)"/>
<path d="M62 35h1v1h-1v-1z" fill="rgb(255,246,164)"/>
<path d="M64 35h1v1h-1v-1z" fill="rgb(255,246,164)"/>
<path d="M68 35h2v1h-2v-1z" fill="rgb(16,16,16)"/>
<path d="M43 36h3v1h-3v-1z" fill="rgb(16,16,16)"/>
<path d="M53 36h1v2h-1v-2z" fill="rgb(16,16,16)"/>
<path d="M66 36h1v2h-1v-2z" fill="rgb(16,16,16)"/>
<path d="M69 36h1v1h-1v-1z" fill="rgb(115,98,32)"/>
<path d="M27 37h1v1h-1v-1z" fill="rgb(115,57,16)"/>
<path d="M36 37h1v1h-1v-1z" fill="rgb(115,98,32)"/>
<path d="M37 37h3v1h-3v-1z" fill="rgb(16,16,16)"/>
<path d="M41 37h2v1h-2v-1z" fill="rgb(115,57,16)"/>
<path d="M43 37h3v1h-3v-1z" fill="rgb(255,180,82)"/>
<path d="M46 37h1v1h-1v-1z" fill="rgb(16,16,16)"/>
<path d="M65 37h1v1h-1v-1z" fill="rgb(115,98,32)"/>
<path d="M67 37h2v1h-1v1h-1v-2z" fill="rgb(115,98,32)"/>
<path d="M26 38h1v1h-1v-1z" fill="rgb(115,57,16)"/>
<path d="M27 38h1v1h-1v-1z" fill="rgb(255,180,82)"/>
<path d="M32 38h1v1h-1v-1z" fill="rgb(222,205,123)"/>
<path d="M33 38h1v1h-1v-1z" fill="rgb(115,98,32)"/>
<path d="M34 38h2v1h-2v-1z" fill="rgb(16,16,16)"/>
<path d="M36 38h2v1h1v2h1v-2h1v-1h2v1h-1v1h-1v3h1v1h1v1h4v-1h1v-3h1v4h-1v1h-5v2h-1v1h-2
	v-1h-1v-3h-1v-3h-2v-1h-1v-1h-2v-1h3v-1z" fill="rgb(238,139,74)"/>
<path d="M38 38h2v1h-2v-1z" fill="rgb(197,82,82)"/>
<path d="M40 38h1v1h-1v-1z" fill="rgb(115,57,16)"/>
<path d="M43 38h1v1h-1v-1z" fill="rgb(197,82,82)"/>
<path d="M44 38h2v1h-2v-1z" fill="rgb(115,57,16)"/>
<path d="M46 38h1v1h-1v-1z" fill="rgb(255,180,82)"/>
<path d="M47 38h1v1h-1v-1z" fill="rgb(16,16,16)"/>
<path d="M52 38h6v1h-6v-1z" fill="rgb(115,57,16)"/>
<path d="M65 38h1v1h-1v-1z" fill="rgb(16,16,16)"/>
<path d="M66 38h1v1h-1v-1z" fill="rgb(222,205,123)"/>
<path d="M25 39h1v2h-1v-2z" fill="rgb(115,57,16)"/>
<path d="M26 39h1v2h-1v-2z" fill="rgb(255,180,82)"/>
<path d="M27 39h1v2h-1v-2z" fill="rgb(115,98,32)"/>
<path d="M28 39h1v1h-1v-1z" fill="rgb(115,57,16)"/>
<path d="M29 39h1v1h-1v-1z" fill="rgb(115,98,32)"/>
<path d="M31 39h1v1h-1v-1z" fill="rgb(222,205,123)"/>
<path d="M32 39h1v1h-1v-1z" fill="rgb(16,16,16)"/>
<path d="M39 39h1v1h-1v-1z" fill="rgb(115,57,16)"/>
<path d="M42 39h1v1h-1v-1z" fill="rgb(115,57,16)"/>
<path d="M43 39h3v1h1v2h-2v1h-1v1h-1v-1h-1v-3h1v-1z" fill="rgb(115,98,32)"/>
<path d="M46 39h1v1h-1v-1z" fill="rgb(115,57,16)"/>
<path d="M47 39h1v2h-1v-2z" fill="rgb(238,139,74)"/>
<path d="M48 39h1v2h-1v-2z" fill="rgb(16,16,16)"/>
<path d="M50 39h2v1h-2v-1z" fill="rgb(115,57,16)"/>
<path d="M52 39h2v1h2v1h2v1h1v1h1v1h-3v-1h-1v-1h-2v-1h-4v-1h2v-1z" fill="rgb(106,106,106)"/>
<path d="M54 39h4v1h2v1h2v1h-1v1h-2v-1h-1v-1h-2v-1h-2v-1z" fill="rgb(238,139,74)"/>
<path d="M58 39h2v1h-2v-1z" fill="rgb(115,57,16)"/>
<path d="M64 39h1v1h-1v-1z" fill="rgb(16,16,16)"/>
<path d="M65 39h2v1h-2v-1z" fill="rgb(115,98,32)"/>
<path d="M28 40h1v1h-1v-1z" fill="rgb(16,16,16)"/>
<path d="M29 40h1v1h2v-1h3v1h1v1h-1v1h-2v1h-4v-1h-1v-2h1v-1z" fill="rgb(255,180,82)"/>
<path d="M30 40h1v1h-1v-1z" fill="rgb(115,98,32)"/>
<path d="M31 40h1v1h-1v-1z" fill="rgb(16,16,16)"/>
<path d="M39 40h1v1h-1v-1z" fill="rgb(197,82,82)"/>
<path d="M41 40h1v2h-1v-2z" fill="rgb(115,57,16)"/>
<path d="M49 40h1v1h-1v-1z" fill="rgb(115,57,16)"/>
<path d="M60 40h2v1h-2v-1z" fill="rgb(115,57,16)"/>
<path d="M63 40h1v1h-1v-1z" fill="rgb(16,16,16)"/>
<path d="M24 41h1v3h-1v-3z" fill="rgb(115,57,16)"/>
<path d="M25 41h1v3h-1v-3z" fill="rgb(238,139,74)"/>
<path d="M26 41h1v2h-1v-2z" fill="rgb(115,98,32)"/>
<path d="M27 41h1v2h-1v-2z" fill="rgb(16,16,16)"/>
<path d="M47 41h1v3h-1v-3z" fill="rgb(115,57,16)"/>
<path d="M49 41h1v4h-1v-4z" fill="rgb(16,16,16)"/>
<path d="M50 41h4v1h2v1h1v1h1v1h-2v-1h-1v-1h-2v-1h-3v-1z" fill="rgb(238,139,74)"/>
<path d="M62 41h1v1h-1v-1z" fill="rgb(16,16,16)"/>
<path d="M35 42h2v1h-2v-1z" fill="rgb(16,16,16)"/>
<path d="M37 42h1v1h-1v-1z" fill="rgb(115,57,16)"/>
<path d="M41 42h1v1h-1v-1z" fill="rgb(197,82,82)"/>
<path d="M45 42h2v2h-1v1h-2v-2h1v-1z" fill="rgb(197,172,98)"/>
<path d="M50 42h3v1h2v2h-3v-1h-2v-2z" fill="rgb(106,106,106)"/>
<path d="M61 42h2v2h1v2h-1v3h-1v1h-2v1h1v1h2v-1h2v1h-1v1h-1v1h-1v1h2v1h2v-1h2v4h-1v2h-2
	v-2h-1v2h-1v-2h-1v-1h1v-1h-2v-1h-2v-1h-1v-3h-1v1h-1v1h-2v1h-2v2h-2v-1h-1v-1h-3
	v-1h1v-1h-1v-1h-2v-1h-1v-1h-2v-1h1v-1h1v-1h3v1h1v-1h2v1h1v1h1v-1h1v1h1v-2h-1v-1
	h3v1h1v-1h1v-1h2v-1h1v-1h1v-1z" fill="rgb(197,82,82)"/>
<path d="M63 42h1v2h-1v-2z" fill="rgb(16,16,16)"/>
<path d="M26 43h1v2h2v1h1v1h-1v1h-3v-1h1v-1h-1v-3z" fill="rgb(16,16,16)"/>
<path d="M27 43h2v1h4v2h-1v-1h-5v-2z" fill="rgb(238,139,74)"/>
<path d="M33 43h1v1h-1v-1z" fill="rgb(238,139,74)"/>
<path d="M34 43h1v1h-1v-1z" fill="rgb(16,16,16)"/>
<path d="M35 43h1v1h-1v-1z" fill="rgb(106,106,106)"/>
<path d="M36 43h1v1h-1v-1z" fill="rgb(255,255,246)"/>
<path d="M37 43h1v1h-1v-1z" fill="rgb(222,222,213)"/>
<path d="M42 43h1v1h-1v-1z" fill="rgb(115,57,16)"/>
<path d="M25 44h1v1h-1v-1z" fill="rgb(115,57,16)"/>
<path d="M33 44h1v1h-1v-1z" fill="rgb(16,16,16)"/>
<path d="M34 44h1v1h-1v-1z" fill="rgb(255,255,246)"/>
<path d="M35 44h1v3h-3v-1h1v-1h1v-1z" fill="rgb(16,16,16)"/>
<path d="M36 44h1v3h-1v-3z" fill="rgb(106,106,106)"/>
<path d="M37 44h1v3h-1v-3z" fill="rgb(255,255,246)"/>
<path d="M43 44h1v1h-1v-1z" fill="rgb(115,57,16)"/>
<path d="M46 44h1v1h-1v-1z" fill="rgb(115,57,16)"/>
<path d="M50 44h2v1h-2v-1z" fill="rgb(238,139,74)"/>
<path d="M55 44h1v1h1v1h-1v1h-1v-1h-1v-1h1v-1z" fill="rgb(16,16,16)"/>
<path d="M58 44h1v1h-1v-1z" fill="rgb(16,16,16)"/>
<path d="M64 44h1v4h1v3h1v1h1v3h-1v-1h-1v1h-1v1h-1v-1h-1v-1h1v-1h1v-3h-1v1h-1v1h-1v-1h-1
	v-1h1v-1h1v-1h1v-4z" fill="rgb(16,16,16)"/>
<path d="M29 45h2v1h-2v-1z" fill="rgb(115,57,16)"/>
<path d="M31 45h1v1h-1v-1z" fill="rgb(197,82,82)"/>
<path d="M33 45h1v1h-1v-1z" fill="rgb(115,57,16)"/>
<path d="M38 45h1v2h-1v-2z" fill="rgb(222,222,213)"/>
<path d="M48 45h1v1h-1v-1z" fill="rgb(16,16,16)"/>
<path d="M49 45h2v1h-1v1h-2v-1h1v-1z" fill="rgb(106,106,106)"/>
<path d="M51 45h1v1h-1v-1z" fill="rgb(115,57,16)"/>
<path d="M52 45h2v1h-2v-1z" fill="rgb(238,139,74)"/>
<path d="M25 46h1v1h-1v-1z" fill="rgb(16,16,16)"/>
<path d="M26 46h1v1h-1v-1z" fill="rgb(255,255,246)"/>
<path d="M30 46h2v1h1v1h6v2h-1v1h-2v1h-1v-1h-3v-1h-7v-3h1v1h3v-1h1v-1z" fill="rgb(255,246,164)"/>
<path d="M32 46h1v1h-1v-1z" fill="rgb(115,57,16)"/>
<path d="M43 46h1v1h-1v-1z" fill="rgb(115,57,16)"/>
<path d="M44 46h4v1h-4v-1z" fill="rgb(16,16,16)"/>
<path d="M50 46h2v2h-1v1h-1v-1h-1v-1h1v-1z" fill="rgb(16,16,16)"/>
<path d="M63 46h1v2h-1v-2z" fill="rgb(115,57,16)"/>
<path d="M24 47h1v3h-1v-3z" fill="rgb(115,98,32)"/>
<path d="M33 47h1v1h-1v-1z" fill="rgb(222,205,123)"/>
<path d="M34 47h5v1h-5v-1z" fill="rgb(115,98,32)"/>
<path d="M46 47h1v1h-1v-1z" fill="rgb(115,57,16)"/>
<path d="M52 47h1v1h-1v-1z" fill="rgb(115,57,16)"/>
<path d="M39 48h1v1h-1v-1z" fill="rgb(16,16,16)"/>
<path d="M52 48h1v1h-1v-1z" fill="rgb(16,16,16)"/>
<path d="M39 49h1v2h3v1h-1v1h4v1h-1v1h-1v1h1v1h1v1h-3v3h-2v1h-2v1h-1v-1h-1v-2h-1v-1h1v-1
	h2v1h2v-1h-1v-2h-1v-1h-3v1h-2v-1h-3v-1h3v-1h3v-1h1v-2h1v-1z" fill="rgb(222,205,123)"/>
<path d="M40 49h1v2h-1v-2z" fill="rgb(16,16,16)"/>
<path d="M25 50h1v1h-1v-1z" fill="rgb(115,98,32)"/>
<path d="M26 50h1v1h-1v-1z" fill="rgb(222,205,123)"/>
<path d="M27 50h4v1h-4v-1z" fill="rgb(115,98,32)"/>
<path d="M31 50h1v2h-1v-2z" fill="rgb(222,205,123)"/>
<path d="M41 50h2v1h-2v-1z" fill="rgb(115,98,32)"/>
<path d="M60 50h1v1h-1v-1z" fill="rgb(115,57,16)"/>
<path d="M64 50h1v1h-1v-1z" fill="rgb(115,57,16)"/>
<path d="M26 51h1v1h-1v-1z" fill="rgb(16,16,16)"/>
<path d="M27 51h1v1h-1v-1z" fill="rgb(222,205,123)"/>
<path d="M28 51h3v1h3v2h-5v-1h-1v-2z" fill="rgb(255,246,164)"/>
<path d="M32 51h1v1h-1v-1z" fill="rgb(115,98,32)"/>
<path d="M33 51h1v1h-1v-1z" fill="rgb(16,16,16)"/>
<path d="M34 51h1v1h-1v-1z" fill="rgb(222,205,123)"/>
<path d="M36 51h1v1h-1v-1z" fill="rgb(222,205,123)"/>
<path d="M37 51h1v1h-1v-1z" fill="rgb(115,98,32)"/>
<path d="M43 51h1v1h-1v-1z" fill="rgb(16,16,16)"/>
<path d="M61 51h1v1h-1v-1z" fill="rgb(115,57,16)"/>
<path d="M27 52h1v1h-1v-1z" fill="rgb(115,98,32)"/>
<path d="M34 52h1v1h-1v-1z" fill="rgb(115,98,32)"/>
<path d="M35 52h2v1h-2v-1z" fill="rgb(16,16,16)"/>
<path d="M42 52h1v1h-1v-1z" fill="rgb(16,16,16)"/>
<path d="M43 52h3v1h-3v-1z" fill="rgb(115,98,32)"/>
<path d="M57 52h1v1h-1v-1z" fill="rgb(115,57,16)"/>
<path d="M64 52h1v1h-1v-1z" fill="rgb(115,57,16)"/>
<path d="M28 53h1v1h-1v-1z" fill="rgb(115,98,32)"/>
<path d="M46 53h1v1h-1v-1z" fill="rgb(16,16,16)"/>
<path d="M56 53h1v2h-1v1h-2v1h-1v-2h2v-1h1v-1z" fill="rgb(222,205,123)"/>
<path d="M57 53h1v2h-1v-2z" fill="rgb(16,16,16)"/>
<path d="M63 53h1v1h-1v-1z" fill="rgb(115,57,16)"/>
<path d="M29 54h2v1h-2v-1z" fill="rgb(16,16,16)"/>
<path d="M45 54h1v1h-1v-1z" fill="rgb(16,16,16)"/>
<path d="M54 54h1v1h-1v-1z" fill="rgb(238,139,74)"/>
<path d="M62 54h1v1h-1v-1z" fill="rgb(115,57,16)"/>
<path d="M66 54h1v1h-1v-1z" fill="rgb(115,57,16)"/>
<path d="M30 55h1v2h-1v-2z" fill="rgb(115,98,32)"/>
<path d="M31 55h1v1h4v-1h3v1h1v2h1v1h-2v-1h-2v1h-1v1h-1v-2h-1v1h-1v1h-1v-3h-1v-2z" fill="rgb(255,246,164)"/>
<path d="M32 55h1v1h-1v-1z" fill="rgb(16,16,16)"/>
<path d="M33 55h1v1h-1v-1z" fill="rgb(115,98,32)"/>
<path d="M44 55h1v1h-1v-1z" fill="rgb(115,98,32)"/>
<path d="M45 55h1v1h-1v-1z" fill="rgb(197,82,82)"/>
<path d="M46 55h3v1h1v1h-1v1h-2v-1h-1v-2z" fill="rgb(238,139,74)"/>
<path d="M52 55h1v1h-1v-1z" fill="rgb(115,57,16)"/>
<path d="M56 55h1v1h-1v-1z" fill="rgb(16,16,16)"/>
<path d="M58 55h1v1h-1v-1z" fill="rgb(16,16,16)"/>
<path d="M65 55h1v1h-1v-1z" fill="rgb(115,57,16)"/>
<path d="M68 55h1v4h-1v-4z" fill="rgb(16,16,16)"/>
<path d="M45 56h1v1h-1v-1z" fill="rgb(115,98,32)"/>
<path d="M52 56h1v1h1v1h-2v3h-1v-1h-1v1h-1v1h-1v-2h1v-2h2v-1h1v-1z" fill="rgb(16,16,16)"/>
<path d="M54 56h1v1h-1v-1z" fill="rgb(16,16,16)"/>
<path d="M55 56h1v1h-1v-1z" fill="rgb(115,98,32)"/>
<path d="M59 56h1v1h-1v-1z" fill="rgb(16,16,16)"/>
<path d="M60 56h1v1h-1v-1z" fill="rgb(115,57,16)"/>
<path d="M31 57h1v3h-1v-3z" fill="rgb(115,98,32)"/>
<path d="M46 57h1v1h-1v-1z" fill="rgb(16,16,16)"/>
<path d="M49 57h1v1h-1v-1z" fill="rgb(197,82,82)"/>
<path d="M50 57h1v1h-1v-1z" fill="rgb(115,57,16)"/>
<path d="M61 57h2v1h-1v1h-1v-2z" fill="rgb(115,57,16)"/>
<path d="M34 58h1v2h-1v-2z" fill="rgb(197,172,98)"/>
<path d="M43 58h1v1h-1v-1z" fill="rgb(115,98,32)"/>
<path d="M44 58h2v1h-1v1h-1v-2z" fill="rgb(16,16,16)"/>
<path d="M46 58h1v1h-1v-1z" fill="rgb(238,139,74)"/>
<path d="M47 58h1v1h-1v-1z" fill="rgb(197,82,82)"/>
<path d="M48 58h1v2h-1v2h-1v1h-2v-1h-1v-2h1v-1h3v-1z" fill="rgb(106,106,106)"/>
<path d="M30 59h1v2h-1v-2z" fill="rgb(115,57,16)"/>
<path d="M33 59h1v1h-1v-1z" fill="rgb(115,98,32)"/>
<path d="M43 59h1v1h-1v-1z" fill="rgb(197,172,98)"/>
<path d="M60 59h1v2h-1v-2z" fill="rgb(16,16,16)"/>
<path d="M61 59h1v2h-1v-2z" fill="rgb(197,82,82)"/>
<path d="M62 59h1v1h-1v-1z" fill="rgb(115,57,16)"/>
<path d="M64 59h1v1h-1v-1z" fill="rgb(115,57,16)"/>
<path d="M67 59h1v2h-1v-2z" fill="rgb(16,16,16)"/>
<path d="M31 60h1v1h1v-1h1v2h1v2h-2v-1h-2v1h-1v-1h-1v-1h1v-1h1v-1z" fill="rgb(197,82,82)"/>
<path d="M32 60h1v1h-1v-1z" fill="rgb(115,98,32)"/>
<path d="M34 60h1v2h-1v-2z" fill="rgb(115,98,32)"/>
<path d="M35 60h1v2h-1v-2z" fill="rgb(222,205,123)"/>
<path d="M36 60h1v1h-1v-1z" fill="rgb(197,172,98)"/>
<path d="M43 60h1v2h-1v-2z" fill="rgb(16,16,16)"/>
<path d="M50 60h1v1h-1v-1z" fill="rgb(197,82,82)"/>
<path d="M62 60h1v1h1v-1h1v1h2v1h-6v-1h1v-1z" fill="rgb(16,16,16)"/>
<path d="M29 61h1v1h-1v-1z" fill="rgb(115,57,16)"/>
<path d="M36 61h1v1h-1v-1z" fill="rgb(115,98,32)"/>
<path d="M41 61h2v1h-2v-1z" fill="rgb(115,98,32)"/>
<path d="M49 61h1v3h-1v2h-1v-1h-2v1h-2v-1h-1v-2h4v-1h2v-1z" fill="rgb(197,82,82)"/>
<path d="M50 61h1v3h-1v-3z" fill="rgb(16,16,16)"/>
<path d="M28 62h1v1h-1v-1z" fill="rgb(115,57,16)"/>
<path d="M35 62h1v1h-1v-1z" fill="rgb(115,98,32)"/>
<path d="M36 62h1v1h-1v-1z" fill="rgb(16,16,16)"/>
<path d="M37 62h1v1h-1v-1z" fill="rgb(115,98,32)"/>
<path d="M39 62h2v1h-2v-1z" fill="rgb(16,16,16)"/>
<path d="M42 62h1v3h-1v-3z" fill="rgb(16,16,16)"/>
<path d="M43 62h2v1h-2v-1z" fill="rgb(238,139,74)"/>
<path d="M27 63h1v1h-1v-1z" fill="rgb(106,106,106)"/>
<path d="M28 63h1v1h-1v-1z" fill="rgb(222,222,213)"/>
<path d="M29 63h1v1h-1v-1z" fill="rgb(115,57,16)"/>
<path d="M31 63h2v1h-2v-1z" fill="rgb(115,57,16)"/>
<path d="M35 63h1v1h-1v-1z" fill="rgb(16,16,16)"/>
<path d="M38 63h1v1h-1v-1z" fill="rgb(16,16,16)"/>
<path d="M27 64h4v1h-4v-1z" fill="rgb(16,16,16)"/>
<path d="M31 64h2v1h-2v-1z" fill="rgb(222,222,213)"/>
<path d="M33 64h2v1h-2v-1z" fill="rgb(16,16,16)"/>
<path d="M49 64h1v2h-1v-2z" fill="rgb(16,16,16)"/>
<path d="M31 65h2v1h-2v-1z" fill="rgb(16,16,16)"/>
<path d="M41 65h1v2h2v1h-3v-3z" fill="rgb(16,16,16)"/>
<path d="M42 65h2v1h-2v-1z" fill="rgb(115,57,16)"/>
<path d="M46 65h2v1h-2v-1z" fill="rgb(115,57,16)"/>
<path d="M42 66h1v1h-1v-1z" fill="rgb(255,255,246)"/>
<path d="M43 66h1v1h-1v-1z" fill="rgb(222,222,213)"/>
<path d="M44 66h2v1h-2v-1z" fill="rgb(16,16,16)"/>
<path d="M46 66h2v1h-2v-1z" fill="rgb(255,255,246)"/>
<path d="M48 66h1v1h-1v-1z" fill="rgb(16,16,16)"/>
<path d="M46 67h2v1h-2v-1z" fill="rgb(16,16,16)"/>
</svg>
