<?xml version="1.0" encoding="utf-8"?>
<!-- generated at drububu.com  -->
<!DOCTYPE svg PUBLIC "-//W3C//DTD SVG 1.1//EN" "http://www.w3.org/Graphics/SVG/1.1/DTD/svg11.dtd">
<svg version="1.1" preserveAspectRatio="xMinYMin meet" xmlns="http://www.w3.org/2000/svg" xmlns:xlink="http://www.w3.org/1999/xlink" x="0px" y="0px" width="96px" height="96px" viewBox="0 0 96 96">
<path d="M0 0h96v96h-96v-96z" fill="transparent"/>
<path d="M33 15h4v1h-4v-1z" fill="rgb(98,74,41)"/>
<path d="M23 16h1v1h-1v-1z" fill="rgb(98,74,41)"/>
<path d="M27 16h2v2h-1v-1h-1v-1z" fill="rgb(98,74,41)"/>
<path d="M31 16h2v1h-2v-1z" fill="rgb(98,74,41)"/>
<path d="M33 16h3v1h-2v1h-2v1h-1v1h-1v1h-1v2h-1v1h-1v1h-1v-3h-1v1h-1v2h-1v4h-1v-1h-1v-1
	h-1v-5h1v-1h1v-2h1v-2h1v4h1v-2h1v-1h1v2h1v-1h2v-1h1v-1h2v-1z" fill="rgb(255,222,172)"/>
<path d="M36 16h1v1h-1v-1z" fill="rgb(98,65,32)"/>
<path d="M66 16h3v3h1v2h-1v-1h-2v-1h1v-2h-2v-1z" fill="rgb(98,74,41)"/>
<path d="M22 17h1v1h-1v-1z" fill="rgb(98,74,41)"/>
<path d="M24 17h1v1h1v1h-1v2h-1v-4z" fill="rgb(98,74,41)"/>
<path d="M26 17h1v1h-1v-1z" fill="rgb(98,74,41)"/>
<path d="M27 17h1v1h-1v-1z" fill="rgb(255,222,172)"/>
<path d="M30 17h1v1h-1v-1z" fill="rgb(98,74,41)"/>
<path d="M34 17h1v2h-1v1h1v-1h1v1h1v1h2v1h-6v1h-2v1h-1v1h-1v2h-1v3h-2v1h-2v1h-1v2h-1v1
	h-3v-2h-1v-2h-1v-3h2v1h1v-2h1v1h1v1h1v-4h1v-2h1v-1h1v3h1v-1h1v-1h1v-2h1v-1h1v-1
	h1v-1h2v-1z" fill="rgb(213,164,139)"/>
<path d="M35 17h1v1h-1v-1z" fill="rgb(98,65,32)"/>
<path d="M64 17h2v1h-2v-1z" fill="rgb(98,74,41)"/>
<path d="M66 17h2v1h-1v1h-1v1h-1v1h1v-1h2v1h-1v2h4v1h-1v1h-1v1h1v1h-1v1h-2v-1h-1v-1h-1v1
	h1v1h-1v1h1v3h-1v1h-1v1h-1v1h-2v1h-6v-1h-2v-2h-1v-4h1v-2h1v-2h1v-2h1v-1h1v-1h2
	v-2h1v1h2v-1h2v-1h2v-1z" fill="rgb(255,222,172)"/>
<path d="M21 18h1v2h-1v-2z" fill="rgb(98,74,41)"/>
<path d="M22 18h1v1h-1v-1z" fill="rgb(213,164,139)"/>
<path d="M27 18h1v1h-1v-1z" fill="rgb(98,74,41)"/>
<path d="M28 18h1v1h-1v-1z" fill="rgb(213,164,139)"/>
<path d="M29 18h1v1h-1v-1z" fill="rgb(98,74,41)"/>
<path d="M35 18h1v1h-1v-1z" fill="rgb(98,74,41)"/>
<path d="M58 18h2v1h-1v1h-1v-2z" fill="rgb(98,74,41)"/>
<path d="M62 18h2v1h-2v-1z" fill="rgb(98,74,41)"/>
<path d="M67 18h1v1h-1v-1z" fill="rgb(213,164,139)"/>
<path d="M18 19h1v1h-1v-1z" fill="rgb(98,74,41)"/>
<path d="M27 19h1v1h-1v-1z" fill="rgb(213,164,139)"/>
<path d="M34 19h1v1h-1v-1z" fill="rgb(98,74,41)"/>
<path d="M36 19h1v1h-1v-1z" fill="rgb(98,65,32)"/>
<path d="M60 19h2v1h-2v-1z" fill="rgb(98,74,41)"/>
<path d="M66 19h1v1h-1v-1z" fill="rgb(213,164,139)"/>
<path d="M17 20h1v1h-1v-1z" fill="rgb(98,74,41)"/>
<path d="M18 20h1v7h1v2h-1v-1h-1v-4h-1v-3h1v-1z" fill="rgb(255,222,172)"/>
<path d="M19 20h2v2h-1v-1h-1v-1z" fill="rgb(98,74,41)"/>
<path d="M21 20h1v1h-1v-1z" fill="rgb(213,164,139)"/>
<path d="M37 20h2v1h-2v-1z" fill="rgb(98,65,32)"/>
<path d="M57 20h1v1h-1v-1z" fill="rgb(98,65,32)"/>
<path d="M58 20h1v1h-1v-1z" fill="rgb(213,164,139)"/>
<path d="M65 20h1v1h-1v-1z" fill="rgb(213,164,139)"/>
<path d="M68 20h1v1h-1v-1z" fill="rgb(213,164,139)"/>
<path d="M16 21h1v4h-1v-4z" fill="rgb(16,16,16)"/>
<path d="M19 21h1v1h-1v-1z" fill="rgb(213,164,139)"/>
<path d="M39 21h2v1h-2v-1z" fill="rgb(98,65,32)"/>
<path d="M56 21h1v1h-1v-1z" fill="rgb(98,65,32)"/>
<path d="M67 21h1v1h-1v-1z" fill="rgb(213,164,139)"/>
<path d="M68 21h1v1h-1v-1z" fill="rgb(98,74,41)"/>
<path d="M14 22h2v1h-2v-1z" fill="rgb(98,65,32)"/>
<path d="M19 22h1v3h-1v-3z" fill="rgb(98,74,41)"/>
<path d="M33 22h4v1h-4v-1z" fill="rgb(98,65,32)"/>
<path d="M37 22h2v5h-1v-4h-1v-1z" fill="rgb(16,16,16)"/>
<path d="M39 22h2v1h1v1h-1v1h-1v1h1v1h1v1h1v1h-2v1h2v1h2v1h-1v1h1v2h1v1h1v1h1v1h-2v-1h-1
	v-1h-2v1h2v1h1v2h1v1h-1v1h-1v1h-2v-1h-2v-1h-2v-2h1v-1h1v-1h-1v-1h-1v-1h1v-1h1
	v-1h-1v-1h-2v-1h-1v1h1v1h2v1h-1v1h-3v-1h-3v-1h-3v-1h4v-1h2v-1h1v-1h1v-2h1v-5z" fill="rgb(213,164,139)"/>
<path d="M41 22h1v1h-1v-1z" fill="rgb(98,65,32)"/>
<path d="M55 22h1v1h-1v-1z" fill="rgb(98,65,32)"/>
<path d="M67 22h1v1h-1v-1z" fill="rgb(98,74,41)"/>
<path d="M68 22h1v1h-1v-1z" fill="rgb(213,164,139)"/>
<path d="M69 22h1v1h-1v-1z" fill="rgb(98,74,41)"/>
<path d="M70 22h1v1h-1v-1z" fill="rgb(16,16,16)"/>
<path d="M13 23h1v2h-1v-2z" fill="rgb(98,65,32)"/>
<path d="M14 23h2v3h-1v-2h-1v-1z" fill="rgb(255,156,106)"/>
<path d="M31 23h2v1h-2v-1z" fill="rgb(98,65,32)"/>
<path d="M33 23h2v1h-2v-1z" fill="rgb(238,115,49)"/>
<path d="M35 23h3v3h-1v-2h-2v-1z" fill="rgb(255,156,106)"/>
<path d="M42 23h1v1h-1v-1z" fill="rgb(98,65,32)"/>
<path d="M54 23h1v1h-1v-1z" fill="rgb(98,65,32)"/>
<path d="M71 23h2v1h-2v-1z" fill="rgb(16,16,16)"/>
<path d="M14 24h1v1h-1v-1z" fill="rgb(197,82,90)"/>
<path d="M17 24h1v1h-1v-1z" fill="rgb(213,164,139)"/>
<path d="M30 24h1v1h-1v-1z" fill="rgb(98,65,32)"/>
<path d="M31 24h2v1h-2v-1z" fill="rgb(238,115,49)"/>
<path d="M33 24h1v1h-1v-1z" fill="rgb(197,82,90)"/>
<path d="M34 24h3v1h-3v-1z" fill="rgb(98,74,41)"/>
<path d="M41 24h1v1h-1v-1z" fill="rgb(98,65,32)"/>
<path d="M53 24h1v2h-1v-2z" fill="rgb(98,65,32)"/>
<path d="M54 24h1v1h-1v-1z" fill="rgb(213,164,139)"/>
<path d="M70 24h1v1h-1v-1z" fill="rgb(213,164,139)"/>
<path d="M71 24h1v1h-1v-1z" fill="rgb(255,222,172)"/>
<path d="M72 24h1v1h1v1h1v2h1v2h1v5h1v-1h1v5h1v2h1v1h-3v-1h-1v1h1v3h-1v-1h-2v-1h-3v-1h-1
	v1h1v2h-1v-1h-2v-2h1v-8h-1v-2h-1v-2h-1v-1h-1v-2h1v1h2v-1h1v1h1v-1h1v-1h-1v-1h1
	v-1z" fill="rgb(213,164,139)"/>
<path d="M73 24h1v1h-1v-1z" fill="rgb(16,16,16)"/>
<path d="M14 25h1v2h-1v-2z" fill="rgb(98,65,32)"/>
<path d="M16 25h1v3h-1v-1h-1v-1h1v-1z" fill="rgb(197,82,90)"/>
<path d="M17 25h1v3h-1v-3z" fill="rgb(16,16,16)"/>
<path d="M19 25h1v2h-1v-2z" fill="rgb(213,164,139)"/>
<path d="M29 25h1v2h-1v-2z" fill="rgb(98,65,32)"/>
<path d="M30 25h1v2h-1v-2z" fill="rgb(238,115,49)"/>
<path d="M31 25h1v1h-1v-1z" fill="rgb(197,82,90)"/>
<path d="M32 25h2v1h-2v-1z" fill="rgb(98,74,41)"/>
<path d="M34 25h1v1h-1v-1z" fill="rgb(213,164,139)"/>
<path d="M35 25h1v2h-1v1h-1v1h-1v-2h1v-1h1v-1z" fill="rgb(255,222,172)"/>
<path d="M36 25h1v2h-1v-2z" fill="rgb(98,65,32)"/>
<path d="M40 25h1v1h-1v-1z" fill="rgb(98,65,32)"/>
<path d="M69 25h1v1h-1v-1z" fill="rgb(213,164,139)"/>
<path d="M70 25h1v1h-1v-1z" fill="rgb(255,222,172)"/>
<path d="M74 25h1v1h-1v-1z" fill="rgb(16,16,16)"/>
<path d="M31 26h1v2h-1v-2z" fill="rgb(98,74,41)"/>
<path d="M32 26h2v1h-1v2h-2v-1h1v-2z" fill="rgb(213,164,139)"/>
<path d="M37 26h1v1h-1v-1z" fill="rgb(197,82,90)"/>
<path d="M41 26h1v1h-1v-1z" fill="rgb(98,65,32)"/>
<path d="M52 26h1v2h-1v-2z" fill="rgb(98,65,32)"/>
<path d="M53 26h1v1h-1v-1z" fill="rgb(213,164,139)"/>
<path d="M65 26h1v1h-1v-1z" fill="rgb(213,164,139)"/>
<path d="M70 26h1v1h-1v-1z" fill="rgb(213,164,139)"/>
<path d="M71 26h1v1h-1v-1z" fill="rgb(255,222,172)"/>
<path d="M75 26h1v2h-1v-2z" fill="rgb(16,16,16)"/>
<path d="M15 27h1v2h-1v-2z" fill="rgb(98,65,32)"/>
<path d="M28 27h1v3h-1v-3z" fill="rgb(98,65,32)"/>
<path d="M29 27h1v3h-1v-3z" fill="rgb(238,115,49)"/>
<path d="M30 27h1v1h-1v-1z" fill="rgb(197,82,90)"/>
<path d="M35 27h1v1h-1v-1z" fill="rgb(98,65,32)"/>
<path d="M36 27h1v2h-1v1h-2v-1h1v-1h1v-1z" fill="rgb(197,82,90)"/>
<path d="M37 27h1v2h-1v-2z" fill="rgb(16,16,16)"/>
<path d="M42 27h1v1h-1v-1z" fill="rgb(98,65,32)"/>
<path d="M70 27h1v1h-1v-1z" fill="rgb(255,222,172)"/>
<path d="M16 28h1v3h-1v-3z" fill="rgb(16,16,16)"/>
<path d="M30 28h1v2h-1v-2z" fill="rgb(98,74,41)"/>
<path d="M34 28h1v1h-1v-1z" fill="rgb(98,65,32)"/>
<path d="M43 28h1v1h-1v-1z" fill="rgb(98,65,32)"/>
<path d="M51 28h1v3h-1v-3z" fill="rgb(98,65,32)"/>
<path d="M52 28h1v1h-1v-1z" fill="rgb(213,164,139)"/>
<path d="M65 28h1v1h-1v-1z" fill="rgb(98,74,41)"/>
<path d="M76 28h1v2h-1v-2z" fill="rgb(16,16,16)"/>
<path d="M31 29h3v1h-3v-1z" fill="rgb(98,65,32)"/>
<path d="M36 29h1v1h-1v-1z" fill="rgb(16,16,16)"/>
<path d="M41 29h1v1h-1v-1z" fill="rgb(98,74,41)"/>
<path d="M42 29h1v1h-1v-1z" fill="rgb(98,65,32)"/>
<path d="M66 29h1v1h-1v-1z" fill="rgb(98,74,41)"/>
<path d="M26 30h2v3h-1v-2h-1v-1z" fill="rgb(98,65,32)"/>
<path d="M28 30h6v1h-4v1h-1v1h-1v-3z" fill="rgb(197,82,90)"/>
<path d="M34 30h2v1h-2v-1z" fill="rgb(16,16,16)"/>
<path d="M43 30h2v1h-2v-1z" fill="rgb(98,65,32)"/>
<path d="M66 30h1v2h1v2h1v8h-1v3h-1v1h-1v1h-1v-2h-1v-1h-1v-1h-1v-1h-2v-1h-6v-1h-1v-1h-1
	v-2h-1v-6h1v2h1v2h2v1h6v-1h2v-1h1v-1h1v-1h1v-2z" fill="rgb(213,164,139)"/>
<path d="M67 30h1v2h-1v-2z" fill="rgb(98,74,41)"/>
<path d="M77 30h1v4h-1v-4z" fill="rgb(16,16,16)"/>
<path d="M17 31h1v4h-1v-4z" fill="rgb(16,16,16)"/>
<path d="M24 31h1v1h-1v-1z" fill="rgb(98,65,32)"/>
<path d="M25 31h1v3h-1v-1h-1v-1h1v-1z" fill="rgb(16,16,16)"/>
<path d="M26 31h1v1h-1v-1z" fill="rgb(222,222,213)"/>
<path d="M30 31h2v1h-2v-1z" fill="rgb(98,65,32)"/>
<path d="M32 31h2v1h-2v-1z" fill="rgb(16,16,16)"/>
<path d="M37 31h1v1h-1v-1z" fill="rgb(98,74,41)"/>
<path d="M45 31h1v1h-1v-1z" fill="rgb(98,65,32)"/>
<path d="M50 31h1v5h-1v-5z" fill="rgb(98,65,32)"/>
<path d="M23 32h1v1h-1v-1z" fill="rgb(98,65,32)"/>
<path d="M26 32h1v1h-1v-1z" fill="rgb(255,255,246)"/>
<path d="M29 32h1v1h-1v-1z" fill="rgb(98,65,32)"/>
<path d="M38 32h2v1h-2v-1z" fill="rgb(98,74,41)"/>
<path d="M44 32h1v1h-1v-1z" fill="rgb(98,65,32)"/>
<path d="M68 32h1v2h-1v-2z" fill="rgb(98,74,41)"/>
<path d="M78 32h2v1h-2v-1z" fill="rgb(98,74,41)"/>
<path d="M16 33h1v1h-1v-1z" fill="rgb(98,74,41)"/>
<path d="M18 33h1v2h-1v-2z" fill="rgb(197,82,90)"/>
<path d="M23 33h1v1h-1v-1z" fill="rgb(16,16,16)"/>
<path d="M24 33h1v1h-1v-1z" fill="rgb(255,255,246)"/>
<path d="M26 33h2v1h-2v-1z" fill="rgb(197,82,90)"/>
<path d="M28 33h1v1h-1v-1z" fill="rgb(98,65,32)"/>
<path d="M29 33h4v1h3v1h1v1h-3v1h-3v-1h-4v1h-1v1h-3v1h-4v-2h-1v-1h1v-1h3v1h4v-1h2v-1h1
	v-1z" fill="rgb(255,222,172)"/>
<path d="M40 33h1v1h-1v-1z" fill="rgb(98,74,41)"/>
<path d="M45 33h1v2h-1v-2z" fill="rgb(98,65,32)"/>
<path d="M78 33h2v1h1v1h-2v-1h-1v-1z" fill="rgb(255,222,172)"/>
<path d="M80 33h1v1h-1v-1z" fill="rgb(98,74,41)"/>
<path d="M15 34h1v1h-1v-1z" fill="rgb(98,74,41)"/>
<path d="M16 34h1v1h1v1h-3v-1h1v-1z" fill="rgb(213,164,139)"/>
<path d="M22 34h1v1h2v1h-3v-2z" fill="rgb(98,74,41)"/>
<path d="M23 34h2v1h-2v-1z" fill="rgb(197,82,90)"/>
<path d="M25 34h2v1h-2v-1z" fill="rgb(98,74,41)"/>
<path d="M27 34h1v1h-1v-1z" fill="rgb(213,164,139)"/>
<path d="M39 34h1v1h-1v-1z" fill="rgb(98,74,41)"/>
<path d="M69 34h1v8h-1v-8z" fill="rgb(98,74,41)"/>
<path d="M77 34h1v1h-1v-1z" fill="rgb(98,74,41)"/>
<path d="M81 34h1v1h-1v-1z" fill="rgb(98,74,41)"/>
<path d="M14 35h1v1h-1v-1z" fill="rgb(98,74,41)"/>
<path d="M18 35h1v1h-1v-1z" fill="rgb(16,16,16)"/>
<path d="M25 35h1v1h-1v-1z" fill="rgb(213,164,139)"/>
<path d="M37 35h2v1h-2v-1z" fill="rgb(98,74,41)"/>
<path d="M46 35h1v1h-1v-1z" fill="rgb(98,65,32)"/>
<path d="M79 35h2v2h-1v-1h-1v-1z" fill="rgb(98,74,41)"/>
<path d="M15 36h3v1h-3v-1z" fill="rgb(98,74,41)"/>
<path d="M27 36h4v1h3v-1h5v1h1v1h-6v2h1v2h3v1h2v2h1v1h-3v1h1v1h1v2h-1v1h1v1h-3v-1h-1v-1
	h-2v-1h1v-1h-1v-1h-1v-1h-1v-1h-1v1h-1v1h-2v1h-2v-1h-1v-1h-1v-1h-1v-1h2v-1h-4v-1
	h-3v-1h-1v-1h1v-1h5v-1h3v-1h1v-1z" fill="rgb(213,164,139)"/>
<path d="M39 36h1v1h-1v-1z" fill="rgb(98,74,41)"/>
<path d="M43 36h2v1h-2v-1z" fill="rgb(98,65,32)"/>
<path d="M47 36h1v1h-1v-1z" fill="rgb(98,74,41)"/>
<path d="M50 36h1v1h-1v-1z" fill="rgb(16,16,16)"/>
<path d="M79 36h1v1h1v1h1v1h-2v-1h-1v-2z" fill="rgb(255,222,172)"/>
<path d="M15 37h1v2h-1v-2z" fill="rgb(16,16,16)"/>
<path d="M16 37h1v1h-1v-1z" fill="rgb(222,222,213)"/>
<path d="M17 37h1v2h-2v-1h1v-1z" fill="rgb(131,106,98)"/>
<path d="M18 37h1v1h-1v-1z" fill="rgb(98,74,41)"/>
<path d="M40 37h1v1h-1v-1z" fill="rgb(98,74,41)"/>
<path d="M45 37h1v1h-1v-1z" fill="rgb(98,65,32)"/>
<path d="M48 37h1v1h-1v-1z" fill="rgb(98,74,41)"/>
<path d="M51 37h1v2h-1v-2z" fill="rgb(16,16,16)"/>
<path d="M81 37h1v1h-1v-1z" fill="rgb(98,74,41)"/>
<path d="M18 38h1v1h-1v-1z" fill="rgb(16,16,16)"/>
<path d="M28 38h1v1h-1v-1z" fill="rgb(98,74,41)"/>
<path d="M34 38h1v1h1v1h1v1h-2v-1h-1v-2z" fill="rgb(255,222,172)"/>
<path d="M35 38h1v1h-1v-1z" fill="rgb(98,74,41)"/>
<path d="M36 38h1v1h-1v-1z" fill="rgb(16,16,16)"/>
<path d="M37 38h3v1h-3v-1z" fill="rgb(98,74,41)"/>
<path d="M46 38h2v1h-1v1h-1v-2z" fill="rgb(98,65,32)"/>
<path d="M79 38h1v1h-1v-1z" fill="rgb(98,74,41)"/>
<path d="M82 38h1v1h-1v-1z" fill="rgb(98,74,41)"/>
<path d="M16 39h2v1h-1v1h-1v-2z" fill="rgb(16,16,16)"/>
<path d="M24 39h4v1h-2v1h-1v-1h-1v-1z" fill="rgb(98,74,41)"/>
<path d="M36 39h1v1h-1v-1z" fill="rgb(98,74,41)"/>
<path d="M37 39h1v1h-1v-1z" fill="rgb(197,82,90)"/>
<path d="M38 39h1v2h-1v-2z" fill="rgb(16,16,16)"/>
<path d="M52 39h1v1h-1v-1z" fill="rgb(16,16,16)"/>
<path d="M80 39h2v1h-1v1h-1v-2z" fill="rgb(98,74,41)"/>
<path d="M22 40h2v1h-2v-1z" fill="rgb(98,74,41)"/>
<path d="M24 40h1v1h-1v-1z" fill="rgb(255,255,246)"/>
<path d="M37 40h1v1h-1v-1z" fill="rgb(98,74,41)"/>
<path d="M47 40h1v1h-1v-1z" fill="rgb(98,65,32)"/>
<path d="M53 40h1v1h6v1h2v1h1v1h-2v2h-1v1h-1v1h-2v-2h-1v-1h1v-2h1v-1h-5v-2z" fill="rgb(16,16,16)"/>
<path d="M17 41h1v1h-1v-1z" fill="rgb(16,16,16)"/>
<path d="M21 41h1v1h-1v-1z" fill="rgb(98,74,41)"/>
<path d="M24 41h1v1h-1v-1z" fill="rgb(98,74,41)"/>
<path d="M35 41h2v1h-2v-1z" fill="rgb(98,74,41)"/>
<path d="M37 41h2v1h-2v-1z" fill="rgb(197,82,90)"/>
<path d="M39 41h2v1h-2v-1z" fill="rgb(16,16,16)"/>
<path d="M46 41h1v1h-1v-1z" fill="rgb(98,65,32)"/>
<path d="M77 41h1v1h-1v-1z" fill="rgb(98,74,41)"/>
<path d="M81 41h1v1h-1v-1z" fill="rgb(98,74,41)"/>
<path d="M18 42h3v1h-3v-1z" fill="rgb(16,16,16)"/>
<path d="M38 42h2v1h-2v-1z" fill="rgb(98,65,32)"/>
<path d="M40 42h1v1h1v1h1v1h2v1h2v1h-1v1h-1v1h-1v-1h-1v-1h-1v-2h-1v-1h-1v-2z" fill="rgb(197,82,90)"/>
<path d="M41 42h2v1h8v1h-3v1h2v1h-1v1h1v1h-2v-1h-1v-1h-2v-1h-2v-1h-1v-1h-1v-1z" fill="rgb(16,16,16)"/>
<path d="M45 42h1v1h-1v-1z" fill="rgb(98,65,32)"/>
<path d="M51 42h2v1h-2v-1z" fill="rgb(16,16,16)"/>
<path d="M53 42h4v2h-1v1h-1v2h2v1h-1v1h2v-1h2v-1h1v-2h1v-1h1v2h-1v2h-1v1h-1v2h-2v1h-1v1
	h-1v1h-2v3h-1v-2h-1v-1h-1v-2h-1v-1h-1v-1h-1v-1h-1v2h-1v-1h-1v-2h1v-1h2v1h2v1h1
	v-3h-1v-1h-1v-1h2v-1h2v-1z" fill="rgb(238,115,49)"/>
<path d="M57 42h1v1h-1v-1z" fill="rgb(197,82,90)"/>
<path d="M68 42h1v2h2v1h-3v-3z" fill="rgb(98,74,41)"/>
<path d="M71 42h1v1h-1v-1z" fill="rgb(98,74,41)"/>
<path d="M78 42h3v1h-2v3h-2v-1h1v-3z" fill="rgb(98,74,41)"/>
<path d="M21 43h4v1h-4v-1z" fill="rgb(16,16,16)"/>
<path d="M72 43h3v1h-2v2h-2v-1h1v-2z" fill="rgb(98,74,41)"/>
<path d="M22 44h1v1h-1v-1z" fill="rgb(98,74,41)"/>
<path d="M25 44h1v1h-1v-1z" fill="rgb(16,16,16)"/>
<path d="M40 44h1v1h-1v-1z" fill="rgb(98,65,32)"/>
<path d="M48 44h1v1h-1v-1z" fill="rgb(197,82,90)"/>
<path d="M56 44h1v1h-1v-1z" fill="rgb(197,82,90)"/>
<path d="M61 44h1v1h-1v-1z" fill="rgb(197,82,90)"/>
<path d="M63 44h1v1h-1v-1z" fill="rgb(16,16,16)"/>
<path d="M75 44h2v1h-2v-1z" fill="rgb(98,74,41)"/>
<path d="M21 45h1v1h-1v-1z" fill="rgb(98,74,41)"/>
<path d="M22 45h2v1h1v1h1v1h2v-1h2v-1h1v-1h1v1h1v1h-1v1h1v1h1v1h1v1h1v1h1v1h-2v-1h-2v-1
	h-1v5h-1v-1h-2v-2h-1v4h-1v-1h-1v1h-1v-1h-1v-1h-1v-3h-4v-1h1v-1h1v-1h1v-2h-1v-1
	h1v-1z" fill="rgb(255,222,172)"/>
<path d="M41 45h1v1h-1v-1z" fill="rgb(98,65,32)"/>
<path d="M55 45h1v1h-1v-1z" fill="rgb(197,82,90)"/>
<path d="M63 45h1v1h-1v-1z" fill="rgb(197,82,90)"/>
<path d="M64 45h1v1h-1v-1z" fill="rgb(98,65,32)"/>
<path d="M67 45h1v1h-1v-1z" fill="rgb(98,74,41)"/>
<path d="M20 46h1v1h-1v-1z" fill="rgb(98,74,41)"/>
<path d="M34 46h1v1h-1v-1z" fill="rgb(255,222,172)"/>
<path d="M38 46h2v1h-2v-1z" fill="rgb(98,74,41)"/>
<path d="M40 46h2v1h1v1h1v1h1v1h1v1h1v1h1v-2h1v1h1v1h1v2h-1v1h-1v2h-1v2h-1v1h-1v1h-1v1
	h-2v1h1v5h1v4h1v1h-1v8h-1v-6h-1v-1h-2v-1h1v-1h1v-1h1v-2h-1v1h-1v1h-1v1h-1v1h-1v1
	h-1v-1h-1v5h-1v-8h1v1h2v-2h1v-2h1v-1h1v-1h-1v-1h-1v-1h-1v-1h-1v-1h1v-1h-1v-1
	h-1v-1h-1v-1h-1v-1h1v-1h1v1h1v1h1v1h1v1h1v1h1v1h1v-2h1v-1h1v-2h1v-2h-1v-1h-1v-1
	h-1v-1h-1v-1h-1v-1h-1v-3z" fill="rgb(16,16,16)"/>
<path d="M49 46h1v1h-1v-1z" fill="rgb(197,82,90)"/>
<path d="M50 46h1v1h-1v-1z" fill="rgb(16,16,16)"/>
<path d="M55 46h1v1h-1v-1z" fill="rgb(16,16,16)"/>
<path d="M56 46h1v1h-1v-1z" fill="rgb(197,82,90)"/>
<path d="M60 46h1v1h-1v-1z" fill="rgb(197,82,90)"/>
<path d="M62 46h1v1h-1v-1z" fill="rgb(197,82,90)"/>
<path d="M63 46h2v1h1v6h-1v-3h-1v2h-1v1h-1v1h-1v-1h-2v-2h1v-1h1v-1h1v-2h1v-1z" fill="rgb(16,16,16)"/>
<path d="M66 46h1v1h-1v-1z" fill="rgb(98,74,41)"/>
<path d="M19 47h1v1h-1v-1z" fill="rgb(98,74,41)"/>
<path d="M20 47h1v1h-1v-1z" fill="rgb(255,222,172)"/>
<path d="M21 47h1v2h-3v-1h2v-1z" fill="rgb(213,164,139)"/>
<path d="M32 47h1v1h-1v-1z" fill="rgb(213,164,139)"/>
<path d="M33 47h1v1h-1v-1z" fill="rgb(255,222,172)"/>
<path d="M39 47h1v1h-1v-1z" fill="rgb(98,65,32)"/>
<path d="M50 47h1v1h-1v-1z" fill="rgb(197,82,90)"/>
<path d="M59 47h1v1h-1v-1z" fill="rgb(197,82,90)"/>
<path d="M18 48h1v1h-1v-1z" fill="rgb(98,74,41)"/>
<path d="M33 48h1v1h-1v-1z" fill="rgb(213,164,139)"/>
<path d="M34 48h1v1h-1v-1z" fill="rgb(255,222,172)"/>
<path d="M50 48h1v1h-1v-1z" fill="rgb(16,16,16)"/>
<path d="M56 48h1v1h-1v-1z" fill="rgb(16,16,16)"/>
<path d="M57 48h1v1h-1v-1z" fill="rgb(197,82,90)"/>
<path d="M61 48h1v1h-1v-1z" fill="rgb(197,82,90)"/>
<path d="M19 49h2v1h-1v1h-1v-2z" fill="rgb(98,74,41)"/>
<path d="M40 49h1v1h-1v-1z" fill="rgb(98,65,32)"/>
<path d="M47 49h1v1h-1v-1z" fill="rgb(16,16,16)"/>
<path d="M60 49h1v1h-1v-1z" fill="rgb(197,82,90)"/>
<path d="M23 50h1v2h-1v-2z" fill="rgb(213,164,139)"/>
<path d="M35 50h1v1h-1v-1z" fill="rgb(98,65,32)"/>
<path d="M39 50h1v1h-1v-1z" fill="rgb(98,65,32)"/>
<path d="M40 50h2v1h1v2h-1v1h-1v1h-1v3h-1v-1h-1v-1h-1v-3h3v-1h1v-1h-1v-1z" fill="rgb(197,82,90)"/>
<path d="M47 50h1v2h-1v-2z" fill="rgb(197,82,90)"/>
<path d="M64 50h1v3h-1v2h-1v1h-1v-3h1v-1h1v-2z" fill="rgb(197,82,90)"/>
<path d="M18 51h1v1h-1v-1z" fill="rgb(98,74,41)"/>
<path d="M32 51h1v1h2v1h1v2h-1v-1h-2v-1h-1v-2z" fill="rgb(213,164,139)"/>
<path d="M36 51h1v1h-1v-1z" fill="rgb(98,65,32)"/>
<path d="M40 51h1v1h-1v-1z" fill="rgb(98,65,32)"/>
<path d="M58 51h1v1h-1v-1z" fill="rgb(197,82,90)"/>
<path d="M19 52h1v1h-1v-1z" fill="rgb(98,74,41)"/>
<path d="M20 52h1v1h-1v-1z" fill="rgb(213,164,139)"/>
<path d="M21 52h1v1h-1v-1z" fill="rgb(98,74,41)"/>
<path d="M22 52h1v2h-1v1h-1v-2h1v-1z" fill="rgb(213,164,139)"/>
<path d="M37 52h1v1h-1v-1z" fill="rgb(16,16,16)"/>
<path d="M38 52h2v1h-2v-1z" fill="rgb(98,65,32)"/>
<path d="M43 52h1v1h1v3h-2v1h-1v2h-2v-4h1v-1h1v-1h1v-1z" fill="rgb(238,115,49)"/>
<path d="M57 52h1v1h-1v-1z" fill="rgb(255,156,106)"/>
<path d="M58 52h1v1h2v2h-1v1h-1v-1h-3v-1h1v-1h1v-1z" fill="rgb(131,106,98)"/>
<path d="M20 53h1v2h-1v-2z" fill="rgb(98,74,41)"/>
<path d="M28 53h1v2h2v1h1v-2h1v1h1v2h1v1h1v2h-3v-1h-1v1h1v5h-1v-1h-1v-1h-1v-2h-1v2h-1v-1
	h-1v-1h-1v-2h-1v-2h1v1h1v-1h1v-4z" fill="rgb(213,164,139)"/>
<path d="M32 53h1v1h-1v-1z" fill="rgb(98,74,41)"/>
<path d="M36 53h1v2h-1v-2z" fill="rgb(98,65,32)"/>
<path d="M56 53h1v1h-1v-1z" fill="rgb(255,156,106)"/>
<path d="M64 53h1v6h-1v1h-1v1h-2v-1h1v-1h-1v-1h1v-2h1v-1h1v-2z" fill="rgb(16,16,16)"/>
<path d="M22 54h1v1h-1v-1z" fill="rgb(98,65,32)"/>
<path d="M33 54h1v1h-1v-1z" fill="rgb(98,74,41)"/>
<path d="M34 54h1v1h-1v-1z" fill="rgb(98,65,32)"/>
<path d="M45 54h1v2h-1v-2z" fill="rgb(197,82,90)"/>
<path d="M50 54h1v1h1v3h-1v1h-2v1h-2v-1h1v-2h1v-2h1v-1z" fill="rgb(197,82,90)"/>
<path d="M51 54h1v1h-1v-1z" fill="rgb(98,65,32)"/>
<path d="M54 54h2v1h3v1h-1v1h1v-1h1v-1h1v1h1v1h-1v1h-1v1h-1v1h-3v-1h-1v-1h-1v-4z" fill="rgb(255,156,106)"/>
<path d="M61 54h1v2h-1v-2z" fill="rgb(238,115,49)"/>
<path d="M70 54h1v1h-1v-1z" fill="rgb(98,74,41)"/>
<path d="M21 55h1v1h-1v-1z" fill="rgb(98,74,41)"/>
<path d="M22 55h1v3h1v1h1v2h-1v2h-1v-3h-1v-5z" fill="rgb(16,16,16)"/>
<path d="M23 55h1v1h-1v-1z" fill="rgb(213,164,139)"/>
<path d="M34 55h1v1h-1v-1z" fill="rgb(16,16,16)"/>
<path d="M35 55h1v1h-1v-1z" fill="rgb(98,65,32)"/>
<path d="M52 55h1v2h-1v-2z" fill="rgb(98,65,32)"/>
<path d="M68 55h2v1h-2v-1z" fill="rgb(98,74,41)"/>
<path d="M70 55h1v1h-1v-1z" fill="rgb(255,222,172)"/>
<path d="M71 55h1v1h2v1h-3v-2z" fill="rgb(98,74,41)"/>
<path d="M23 56h1v2h-1v-2z" fill="rgb(197,82,90)"/>
<path d="M24 56h1v1h-1v-1z" fill="rgb(213,164,139)"/>
<path d="M26 56h1v1h-1v-1z" fill="rgb(213,164,139)"/>
<path d="M34 56h1v1h-1v-1z" fill="rgb(98,65,32)"/>
<path d="M43 56h1v1h-1v-1z" fill="rgb(98,65,32)"/>
<path d="M44 56h1v2h-1v1h-1v-2h1v-1z" fill="rgb(197,82,90)"/>
<path d="M58 56h1v1h-1v-1z" fill="rgb(131,106,98)"/>
<path d="M67 56h1v1h-1v-1z" fill="rgb(98,74,41)"/>
<path d="M68 56h2v1h-1v1h2v1h-3v1h-2v-1h-1v-1h2v-1h1v-1z" fill="rgb(255,222,172)"/>
<path d="M70 56h1v1h-1v-1z" fill="rgb(213,164,139)"/>
<path d="M24 57h1v2h-1v-2z" fill="rgb(98,65,32)"/>
<path d="M26 57h1v1h-1v-1z" fill="rgb(255,222,172)"/>
<path d="M35 57h1v1h-1v-1z" fill="rgb(98,65,32)"/>
<path d="M42 57h1v4h-1v-4z" fill="rgb(98,65,32)"/>
<path d="M52 57h1v2h-2v-1h1v-1z" fill="rgb(16,16,16)"/>
<path d="M53 57h1v1h1v1h1v1h5v1h-1v1h1v-1h2v-1h1v-1h1v3h-1v1h-2v1h-5v-1h-1v-1h-1v-1h-1
	v-2h-1v-2z" fill="rgb(197,82,90)"/>
<path d="M61 57h1v1h-1v-1z" fill="rgb(131,106,98)"/>
<path d="M65 57h2v1h-2v-1z" fill="rgb(98,74,41)"/>
<path d="M69 57h2v1h-2v-1z" fill="rgb(98,74,41)"/>
<path d="M71 57h3v1h-3v-1z" fill="rgb(255,222,172)"/>
<path d="M74 57h2v1h-2v-1z" fill="rgb(98,74,41)"/>
<path d="M36 58h1v2h-1v-2z" fill="rgb(98,65,32)"/>
<path d="M60 58h1v1h-1v-1z" fill="rgb(131,106,98)"/>
<path d="M71 58h5v1h-1v1h-1v1h-1v1h2v1h-1v1h-1v1h-1v1h2v1h-2v1h-3v1h-2v1h-3v1h-3v-1h-2
	v-1h-1v-1h-1v-3h3v1h1v1h2v1h4v-1h1v-1h1v-1h1v-1h1v-1h-2v-1h-2v-1h-1v-1h2v-1h3v-1
	z" fill="rgb(213,164,139)"/>
<path d="M76 58h1v1h-1v-1z" fill="rgb(16,16,16)"/>
<path d="M25 59h1v2h-1v-2z" fill="rgb(98,65,32)"/>
<path d="M32 59h1v1h-1v-1z" fill="rgb(98,74,41)"/>
<path d="M37 59h1v1h-1v-1z" fill="rgb(197,82,90)"/>
<path d="M41 59h1v1h-1v-1z" fill="rgb(197,82,90)"/>
<path d="M49 59h1v2h-1v1h-1v1h-1v1h-2v1h-1v-3h2v-1h1v-1h2v-1z" fill="rgb(255,222,172)"/>
<path d="M50 59h1v1h-1v-1z" fill="rgb(16,16,16)"/>
<path d="M51 59h2v2h1v2h-1v1h-1v1h2v1h-1v1h-1v1h2v6h-2v1h-2v-2h1v-1h-1v-1h1v-1h1v-1h-1
	v-1h-1v-1h-2v-1h1v-1h1v-1h-1v-2h1v-2h1v-1z" fill="rgb(197,82,90)"/>
<path d="M53 59h1v2h-1v-2z" fill="rgb(16,16,16)"/>
<path d="M59 59h1v1h-1v-1z" fill="rgb(131,106,98)"/>
<path d="M60 59h1v1h-1v-1z" fill="rgb(16,16,16)"/>
<path d="M61 59h1v1h-1v-1z" fill="rgb(197,82,90)"/>
<path d="M65 59h1v3h-1v-3z" fill="rgb(16,16,16)"/>
<path d="M75 59h1v1h-1v-1z" fill="rgb(16,16,16)"/>
<path d="M33 60h1v1h-1v-1z" fill="rgb(98,74,41)"/>
<path d="M34 60h2v1h-2v-1z" fill="rgb(98,65,32)"/>
<path d="M36 60h1v1h1v1h-1v1h-1v1h-2v-3h2v-1z" fill="rgb(197,82,90)"/>
<path d="M37 60h1v1h-1v-1z" fill="rgb(16,16,16)"/>
<path d="M38 60h1v1h-1v-1z" fill="rgb(197,82,90)"/>
<path d="M46 60h1v1h-1v-1z" fill="rgb(98,65,32)"/>
<path d="M74 60h1v2h-2v-1h1v-1z" fill="rgb(16,16,16)"/>
<path d="M24 61h2v1h1v1h1v1h-2v-1h-2v-2z" fill="rgb(197,82,90)"/>
<path d="M26 61h1v1h-1v-1z" fill="rgb(98,65,32)"/>
<path d="M29 61h1v2h-1v-2z" fill="rgb(98,65,32)"/>
<path d="M33 61h1v3h-1v-3z" fill="rgb(16,16,16)"/>
<path d="M45 61h1v1h-1v-1z" fill="rgb(213,164,139)"/>
<path d="M49 61h1v1h-1v-1z" fill="rgb(16,16,16)"/>
<path d="M54 61h1v1h-1v-1z" fill="rgb(16,16,16)"/>
<path d="M60 61h1v1h-1v-1z" fill="rgb(16,16,16)"/>
<path d="M66 61h1v1h-1v-1z" fill="rgb(98,74,41)"/>
<path d="M27 62h1v1h-1v-1z" fill="rgb(98,65,32)"/>
<path d="M37 62h2v1h1v1h1v1h1v1h-1v1h-1v-1h-2v-1h-2v1h-1v-2h1v-1h1v-1z" fill="rgb(238,115,49)"/>
<path d="M43 62h1v1h-1v-1z" fill="rgb(98,65,32)"/>
<path d="M48 62h1v1h-1v-1z" fill="rgb(16,16,16)"/>
<path d="M54 62h1v1h1v1h1v1h-1v3h-1v1h-1v-1h-2v-1h1v-1h1v-1h-2v-1h1v-1h1v-1z" fill="rgb(213,164,139)"/>
<path d="M55 62h1v1h-1v-1z" fill="rgb(16,16,16)"/>
<path d="M64 62h1v1h-1v-1z" fill="rgb(98,74,41)"/>
<path d="M65 62h2v1h-1v1h1v-1h1v-1h1v1h2v1h-1v1h-1v1h-1v1h-1v1h-4v-1h-2v-1h-1v-1h2v-1h2
	v-1h1v-1z" fill="rgb(255,222,172)"/>
<path d="M67 62h1v1h-1v-1z" fill="rgb(98,74,41)"/>
<path d="M75 62h1v1h-1v-1z" fill="rgb(16,16,16)"/>
<path d="M24 63h1v3h-1v-3z" fill="rgb(16,16,16)"/>
<path d="M25 63h1v1h2v1h1v1h-2v-1h-2v-2z" fill="rgb(238,115,49)"/>
<path d="M28 63h1v1h-1v-1z" fill="rgb(98,65,32)"/>
<path d="M29 63h1v2h-2v-1h1v-1z" fill="rgb(197,82,90)"/>
<path d="M30 63h1v1h-1v-1z" fill="rgb(98,65,32)"/>
<path d="M47 63h1v1h1v1h-1v1h-1v1h-2v1h-1v-3h1v-1h2v-1z" fill="rgb(213,164,139)"/>
<path d="M48 63h1v1h-1v-1z" fill="rgb(98,65,32)"/>
<path d="M56 63h1v1h-1v-1z" fill="rgb(16,16,16)"/>
<path d="M62 63h2v1h-2v-1z" fill="rgb(16,16,16)"/>
<path d="M66 63h1v1h-1v-1z" fill="rgb(98,74,41)"/>
<path d="M74 63h1v1h-1v-1z" fill="rgb(16,16,16)"/>
<path d="M30 64h1v1h1v1h1v3h1v7h-1v-4h-1v-1h-1v-2h-1v1h-1v1h-1v1h-1v2h-1v-5h1v1h1v-2h1
	v-3h1v-1z" fill="rgb(16,16,16)"/>
<path d="M31 64h1v1h-1v-1z" fill="rgb(98,65,32)"/>
<path d="M33 64h1v2h-2v-1h1v-1z" fill="rgb(98,65,32)"/>
<path d="M34 64h1v4h-1v-4z" fill="rgb(16,16,16)"/>
<path d="M49 64h1v1h-1v-1z" fill="rgb(98,65,32)"/>
<path d="M57 64h5v1h-5v-1z" fill="rgb(16,16,16)"/>
<path d="M73 64h1v2h-2v-1h1v-1z" fill="rgb(16,16,16)"/>
<path d="M25 65h1v1h-1v-1z" fill="rgb(197,82,90)"/>
<path d="M26 65h1v1h1v1h-1v1h-1v-3z" fill="rgb(255,156,106)"/>
<path d="M36 65h2v1h2v2h-1v1h-1v1h-1v-1h-1v-4z" fill="rgb(255,156,106)"/>
<path d="M48 65h1v1h-1v-1z" fill="rgb(98,65,32)"/>
<path d="M56 65h1v3h-1v-3z" fill="rgb(16,16,16)"/>
<path d="M25 66h1v3h-1v-3z" fill="rgb(16,16,16)"/>
<path d="M28 66h1v2h-1v2h-1v-1h-1v-1h1v-1h1v-1z" fill="rgb(131,106,98)"/>
<path d="M33 66h1v2h1v1h-2v-3z" fill="rgb(213,164,139)"/>
<path d="M35 66h1v2h-1v-2z" fill="rgb(131,106,98)"/>
<path d="M47 66h1v1h-1v-1z" fill="rgb(98,65,32)"/>
<path d="M74 66h1v1h-1v-1z" fill="rgb(16,16,16)"/>
<path d="M45 67h2v1h2v1h1v1h-3v-1h-1v-1h-1v-1z" fill="rgb(255,222,172)"/>
<path d="M47 67h1v1h-1v-1z" fill="rgb(213,164,139)"/>
<path d="M48 67h2v1h-2v-1z" fill="rgb(98,65,32)"/>
<path d="M72 67h2v1h-2v-1z" fill="rgb(16,16,16)"/>
<path d="M35 68h1v2h-1v-2z" fill="rgb(16,16,16)"/>
<path d="M39 68h1v1h-1v-1z" fill="rgb(131,106,98)"/>
<path d="M45 68h1v1h1v1h3v1h-2v1h-3v-4z" fill="rgb(213,164,139)"/>
<path d="M49 68h1v1h-1v-1z" fill="rgb(213,164,139)"/>
<path d="M50 68h1v1h-1v-1z" fill="rgb(98,65,32)"/>
<path d="M55 68h1v1h-1v-1z" fill="rgb(16,16,16)"/>
<path d="M57 68h1v1h-1v-1z" fill="rgb(16,16,16)"/>
<path d="M69 68h3v1h-3v-1z" fill="rgb(16,16,16)"/>
<path d="M30 69h1v2h-1v1h1v-1h1v1h1v4h-1v2h-2v1h-2v-2h2v-2h-2v-1h-1v-2h1v-1h1v-1h1v-1z" fill="rgb(197,82,90)"/>
<path d="M34 69h1v2h-1v-2z" fill="rgb(255,222,172)"/>
<path d="M36 69h1v1h-1v-1z" fill="rgb(131,106,98)"/>
<path d="M38 69h1v2h-2v-1h1v-1z" fill="rgb(131,106,98)"/>
<path d="M43 69h1v2h-1v1h-1v1h-1v1h2v1h-1v1h1v-1h1v6h-1v1h-1v1h-2v-2h2v-2h-1v-1h-3v-1h-1
	v-4h1v1h1v-1h1v-1h1v-1h1v-1h1v-1z" fill="rgb(197,82,90)"/>
<path d="M50 69h1v1h-1v-1z" fill="rgb(213,164,139)"/>
<path d="M51 69h1v1h-1v-1z" fill="rgb(98,65,32)"/>
<path d="M54 69h1v5h-1v-5z" fill="rgb(16,16,16)"/>
<path d="M58 69h1v1h-1v-1z" fill="rgb(16,16,16)"/>
<path d="M67 69h1v7h-1v1h-2v-2h2v-2h-4v-1h-2v-1h3v-1h3v-1z" fill="rgb(197,82,90)"/>
<path d="M68 69h1v7h-1v-7z" fill="rgb(16,16,16)"/>
<path d="M35 70h1v1h-1v-1z" fill="rgb(98,65,32)"/>
<path d="M50 70h1v1h-1v-1z" fill="rgb(98,65,32)"/>
<path d="M59 70h2v2h-1v-1h-1v-1z" fill="rgb(16,16,16)"/>
<path d="M30 71h1v1h-1v-1z" fill="rgb(16,16,16)"/>
<path d="M34 71h1v1h-1v-1z" fill="rgb(98,65,32)"/>
<path d="M48 71h2v1h-2v-1z" fill="rgb(98,65,32)"/>
<path d="M46 72h2v1h-2v-1z" fill="rgb(98,65,32)"/>
<path d="M48 72h2v1h-1v2h-2v-2h1v-1z" fill="rgb(197,82,90)"/>
<path d="M50 72h1v1h-1v-1z" fill="rgb(98,65,32)"/>
<path d="M60 72h1v1h-1v-1z" fill="rgb(98,65,32)"/>
<path d="M61 72h2v1h-1v1h-2v-1h1v-1z" fill="rgb(238,115,49)"/>
<path d="M46 73h1v2h-1v-2z" fill="rgb(16,16,16)"/>
<path d="M49 73h1v2h-1v-2z" fill="rgb(98,65,32)"/>
<path d="M59 73h1v2h-1v-2z" fill="rgb(98,65,32)"/>
<path d="M62 73h1v1h-1v-1z" fill="rgb(98,65,32)"/>
<path d="M63 73h2v1h-1v1h-2v-1h1v-1z" fill="rgb(238,115,49)"/>
<path d="M65 73h1v1h-1v-1z" fill="rgb(98,65,32)"/>
<path d="M66 73h1v2h-2v-1h1v-1z" fill="rgb(238,115,49)"/>
<path d="M24 74h2v1h-2v-1z" fill="rgb(16,16,16)"/>
<path d="M26 74h2v2h-1v1h-1v-3z" fill="rgb(255,156,106)"/>
<path d="M52 74h2v1h-2v-1z" fill="rgb(16,16,16)"/>
<path d="M60 74h1v2h-1v-2z" fill="rgb(197,82,90)"/>
<path d="M61 74h1v1h-1v-1z" fill="rgb(98,65,32)"/>
<path d="M64 74h1v1h-1v-1z" fill="rgb(98,65,32)"/>
<path d="M23 75h1v3h-1v-3z" fill="rgb(16,16,16)"/>
<path d="M24 75h1v1h-1v-1z" fill="rgb(255,156,106)"/>
<path d="M25 75h1v1h-1v-1z" fill="rgb(197,82,90)"/>
<path d="M28 75h1v1h-1v-1z" fill="rgb(98,65,32)"/>
<path d="M29 75h1v2h-2v-1h1v-1z" fill="rgb(255,156,106)"/>
<path d="M42 75h1v1h-1v-1z" fill="rgb(16,16,16)"/>
<path d="M47 75h5v1h-5v-1z" fill="rgb(16,16,16)"/>
<path d="M59 75h1v1h-1v-1z" fill="rgb(16,16,16)"/>
<path d="M61 75h1v2h2v-2h1v2h2v1h-6v-1h-1v-1h1v-1z" fill="rgb(16,16,16)"/>
<path d="M62 75h2v2h-2v-2z" fill="rgb(197,82,90)"/>
<path d="M24 76h1v2h-1v-2z" fill="rgb(197,82,90)"/>
<path d="M25 76h1v1h-1v-1z" fill="rgb(98,65,32)"/>
<path d="M27 76h1v1h-1v-1z" fill="rgb(197,82,90)"/>
<path d="M32 76h1v2h-1v-2z" fill="rgb(16,16,16)"/>
<path d="M67 76h1v1h-1v-1z" fill="rgb(16,16,16)"/>
<path d="M25 77h1v2h-2v-1h1v-1z" fill="rgb(16,16,16)"/>
<path d="M26 77h1v2h-1v-2z" fill="rgb(197,82,90)"/>
<path d="M27 77h1v1h-1v-1z" fill="rgb(98,65,32)"/>
<path d="M37 77h1v1h3v1h-1v1h-1v1h-1v-2h-1v1h-1v-2h1v-1z" fill="rgb(255,156,106)"/>
<path d="M27 78h1v1h2v1h-4v-1h1v-1z" fill="rgb(16,16,16)"/>
<path d="M30 78h2v1h-2v-1z" fill="rgb(16,16,16)"/>
<path d="M35 78h1v1h-1v-1z" fill="rgb(16,16,16)"/>
<path d="M34 79h1v3h-1v-3z" fill="rgb(16,16,16)"/>
<path d="M35 79h1v3h-1v-3z" fill="rgb(197,82,90)"/>
<path d="M37 79h1v1h-1v-1z" fill="rgb(98,65,32)"/>
<path d="M40 79h1v1h-1v-1z" fill="rgb(98,65,32)"/>
<path d="M41 79h1v2h-2v-1h1v-1z" fill="rgb(255,156,106)"/>
<path d="M36 80h1v1h-1v-1z" fill="rgb(98,65,32)"/>
<path d="M37 80h1v1h1v2h-2v-3z" fill="rgb(197,82,90)"/>
<path d="M39 80h1v1h-1v-1z" fill="rgb(98,65,32)"/>
<path d="M36 81h1v2h-2v-1h1v-1z" fill="rgb(16,16,16)"/>
<path d="M39 81h1v2h2v1h-5v-1h2v-2z" fill="rgb(16,16,16)"/>
<path d="M43 81h1v1h-1v-1z" fill="rgb(16,16,16)"/>
<path d="M42 82h1v1h-1v-1z" fill="rgb(16,16,16)"/>
</svg>
