<?xml version="1.0" encoding="utf-8"?>
<!-- generated at drububu.com  -->
<!DOCTYPE svg PUBLIC "-//W3C//DTD SVG 1.1//EN" "http://www.w3.org/Graphics/SVG/1.1/DTD/svg11.dtd">
<svg version="1.1" preserveAspectRatio="xMinYMin meet" xmlns="http://www.w3.org/2000/svg" xmlns:xlink="http://www.w3.org/1999/xlink" x="0px" y="0px" width="96px" height="96px" viewBox="0 0 96 96">
<path d="M0 0h96v96h-96v-96z" fill="transparent"/>
<path d="M34 8h1v2h2v-1h2v1h1v2h1v1h2v2h-1v-1h-2v1h-1v-1h-1v-1h-1v-1h-1v1h-1v-1h-1v-1h-1
	v-2h1v-1z" fill="rgb(230,65,16)"/>
<path d="M36 12h1v1h-1v-1z" fill="rgb(246,164,16)"/>
<path d="M36 13h1v2h1v2h1v2h-1v-1h-1v1h-1v3h-1v-4h1v-1h1v-1h-2v-2h1v-1z" fill="rgb(230,65,16)"/>
<path d="M37 13h1v1h-1v-1z" fill="rgb(255,213,16)"/>
<path d="M37 14h1v1h-1v-1z" fill="rgb(246,164,16)"/>
<path d="M38 14h1v1h2v-1h1v2h1v1h-1v2h-1v3h3v-1h1v-1h1v3h-1v2h-1v-1h-1v3h-1v1h-1v-1h-1
	v-2h-1v-3h-1v1h-1v-2h-1v-1h1v-2h1v2h1v-4h-1v-2z" fill="rgb(255,213,16)"/>
<path d="M40 14h1v1h-1v-1z" fill="rgb(246,164,16)"/>
<path d="M44 14h2v3h1v1h2v3h-1v3h-1v1h-2v-1h1v-5h-1v1h-1v2h-2v-1h-1v-1h1v-2h1v-3h1v-1z" fill="rgb(230,65,16)"/>
<path d="M52 14h2v1h-2v-1z" fill="rgb(131,49,24)"/>
<path d="M30 15h2v1h-2v-1z" fill="rgb(131,49,24)"/>
<path d="M42 15h1v1h-1v-1z" fill="rgb(246,164,16)"/>
<path d="M51 15h1v2h-1v-2z" fill="rgb(131,49,24)"/>
<path d="M52 15h2v2h-2v-2z" fill="rgb(238,180,90)"/>
<path d="M54 15h1v1h-1v-1z" fill="rgb(131,49,24)"/>
<path d="M29 16h1v1h-1v-1z" fill="rgb(131,49,24)"/>
<path d="M30 16h2v2h-2v-2z" fill="rgb(238,180,90)"/>
<path d="M32 16h1v2h-1v-2z" fill="rgb(131,49,24)"/>
<path d="M38 16h1v1h-1v-1z" fill="rgb(246,164,16)"/>
<path d="M54 16h2v1h-2v-1z" fill="rgb(205,82,65)"/>
<path d="M28 17h1v2h-1v-2z" fill="rgb(131,49,24)"/>
<path d="M29 17h1v1h-1v-1z" fill="rgb(205,82,65)"/>
<path d="M42 17h1v1h-1v-1z" fill="rgb(246,164,16)"/>
<path d="M51 17h1v1h-1v-1z" fill="rgb(0,0,0)"/>
<path d="M52 17h1v1h-1v-1z" fill="rgb(205,82,65)"/>
<path d="M53 17h2v1h2v1h4v-1h6v1h2v1h2v1h3v1h-1v1h-1v-1h-2v-1h-2v-1h-7v1h-3v1h-1v1h-1v9
	h-1v1h-1v-2h1v-9h-1v-3h-1v-2z" fill="rgb(238,131,41)"/>
<path d="M55 17h1v1h-1v-1z" fill="rgb(131,49,24)"/>
<path d="M56 17h1v1h-1v-1z" fill="rgb(205,82,65)"/>
<path d="M61 17h6v1h-6v-1z" fill="rgb(131,49,24)"/>
<path d="M29 18h2v2h-1v6h1v3h1v3h1v2h-1v-1h-1v-3h-1v-2h-1v-2h-1v-2h-2v-1h-5v1h-2v1h-1v1
	h-1v1h-1v1h-1v-1h-1v-1h2v-1h1v-1h1v-1h1v-1h2v-1h1v-1h3v1h2v-1h1v-1h1v-1z" fill="rgb(238,131,41)"/>
<path d="M31 18h1v3h-1v-3z" fill="rgb(131,49,24)"/>
<path d="M52 18h1v2h-1v-2z" fill="rgb(0,0,0)"/>
<path d="M57 18h1v1h-1v-1z" fill="rgb(205,82,65)"/>
<path d="M58 18h3v1h-3v-1z" fill="rgb(131,49,24)"/>
<path d="M67 18h2v1h-2v-1z" fill="rgb(131,49,24)"/>
<path d="M22 19h3v1h-3v-1z" fill="rgb(131,49,24)"/>
<path d="M27 19h1v1h-1v-1z" fill="rgb(131,49,24)"/>
<path d="M36 19h1v1h-1v-1z" fill="rgb(246,164,16)"/>
<path d="M38 19h1v1h-1v-1z" fill="rgb(246,164,16)"/>
<path d="M41 19h1v1h-1v-1z" fill="rgb(246,164,16)"/>
<path d="M45 19h1v1h-1v-1z" fill="rgb(246,164,16)"/>
<path d="M53 19h1v1h-1v-1z" fill="rgb(205,82,65)"/>
<path d="M69 19h2v1h-2v-1z" fill="rgb(205,82,65)"/>
<path d="M21 20h1v1h-1v-1z" fill="rgb(131,49,24)"/>
<path d="M25 20h2v1h-2v-1z" fill="rgb(131,49,24)"/>
<path d="M30 20h1v1h-1v-1z" fill="rgb(205,82,65)"/>
<path d="M44 20h1v1h-1v-1z" fill="rgb(246,164,16)"/>
<path d="M53 20h1v2h-1v-2z" fill="rgb(0,0,0)"/>
<path d="M61 20h1v1h-1v-1z" fill="rgb(205,82,65)"/>
<path d="M62 20h5v1h-5v-1z" fill="rgb(131,49,24)"/>
<path d="M67 20h1v1h-1v-1z" fill="rgb(205,82,65)"/>
<path d="M71 20h3v1h-3v-1z" fill="rgb(205,82,65)"/>
<path d="M19 21h2v1h-2v-1z" fill="rgb(131,49,24)"/>
<path d="M30 21h1v4h-1v-4z" fill="rgb(131,49,24)"/>
<path d="M36 21h1v1h-1v-1z" fill="rgb(246,164,16)"/>
<path d="M41 21h1v1h-1v-1z" fill="rgb(246,164,16)"/>
<path d="M58 21h3v1h-3v-1z" fill="rgb(0,0,0)"/>
<path d="M61 21h7v1h-4v1h-2v1h-1v3h1v3h1v3h1v3h1v2h1v3h1v2h1v2h-1v-1h-1v-1h-1v-1h-3v-1
	h-3v2h-2v-1h-1v-1h1v-1h-1v-1h-1v-1h-1v1h1v1h-1v1h1v1h-1v1h1v1h1v1h-1v1h-1v1h-1
	v-1h-4v-1h-1v-3h2v-2h1v-1h1v-2h1v-1h1v-1h1v-2h1v-1h1v-9h1v-1h3v-1z" fill="rgb(8,65,82)"/>
<path d="M68 21h1v1h-1v-1z" fill="rgb(131,49,24)"/>
<path d="M69 21h1v1h-1v-1z" fill="rgb(205,82,65)"/>
<path d="M74 21h2v1h-2v-1z" fill="rgb(205,82,65)"/>
<path d="M18 22h1v1h-1v-1z" fill="rgb(131,49,24)"/>
<path d="M36 22h1v1h-1v-1z" fill="rgb(230,65,16)"/>
<path d="M38 22h1v2h-1v-2z" fill="rgb(246,164,16)"/>
<path d="M54 22h1v8h-1v-8z" fill="rgb(131,49,24)"/>
<path d="M57 22h1v1h-1v-1z" fill="rgb(0,0,0)"/>
<path d="M64 22h5v1h2v1h2v1h1v2h1v6h-1v5h-3v1h-1v1h-1v1h-1v2h-1v-2h-1v-3h-1v-2h-1v-3h-1
	v-3h-1v-3h-1v-3h1v-1h2v-1z" fill="rgb(32,115,148)"/>
<path d="M69 22h2v1h-2v-1z" fill="rgb(8,65,82)"/>
<path d="M71 22h1v1h-1v-1z" fill="rgb(205,82,65)"/>
<path d="M73 22h3v1h1v1h-3v-1h-1v-1z" fill="rgb(238,180,90)"/>
<path d="M76 22h1v1h-1v-1z" fill="rgb(205,82,65)"/>
<path d="M17 23h1v1h-1v-1z" fill="rgb(131,49,24)"/>
<path d="M21 23h4v1h-4v-1z" fill="rgb(0,0,0)"/>
<path d="M25 23h1v1h-1v-1z" fill="rgb(205,82,65)"/>
<path d="M37 23h1v1h1v2h1v2h-1v-1h-2v-1h-1v-2h1v-1z" fill="rgb(230,65,16)"/>
<path d="M45 23h1v1h-1v-1z" fill="rgb(246,164,16)"/>
<path d="M56 23h1v9h-1v-9z" fill="rgb(0,0,0)"/>
<path d="M71 23h2v1h-2v-1z" fill="rgb(8,65,82)"/>
<path d="M73 23h1v1h-1v-1z" fill="rgb(205,82,65)"/>
<path d="M77 23h1v1h-1v-1z" fill="rgb(131,49,24)"/>
<path d="M16 24h1v1h-1v-1z" fill="rgb(131,49,24)"/>
<path d="M19 24h7v1h1v1h1v2h1v2h2v3h1v3h1v1h2v1h1v1h-1v1h-3v1h-1v-2h-1v-1h-1v-2h1v-2h-1
	v-1h-2v1h-1v1h-1v1h-1v1h-2v-4h-1v-1h-2v1h-1v2h-1v3h-1v2h-1v2h-1v1h-1v-1h-1v-3
	h-1v-3h1v-1h1v-1h1v-3h1v-3h1v-1h1v-1h1v-1h1v-1z" fill="rgb(8,65,82)"/>
<path d="M26 24h1v1h-1v-1z" fill="rgb(0,0,0)"/>
<path d="M27 24h1v1h-1v-1z" fill="rgb(205,82,65)"/>
<path d="M43 24h1v2h-1v-2z" fill="rgb(246,164,16)"/>
<path d="M73 24h1v1h-1v-1z" fill="rgb(8,65,82)"/>
<path d="M74 24h1v1h-1v-1z" fill="rgb(205,82,65)"/>
<path d="M75 24h2v2h1v3h1v3h1v3h1v2h1v1h-2v-2h-1v-3h-1v-3h-1v-3h-1v-2h-1v-1z" fill="rgb(238,131,41)"/>
<path d="M77 24h1v2h-1v-2z" fill="rgb(205,82,65)"/>
<path d="M14 25h2v1h-2v-1z" fill="rgb(131,49,24)"/>
<path d="M27 25h1v1h-1v-1z" fill="rgb(0,0,0)"/>
<path d="M30 25h1v1h-1v-1z" fill="rgb(205,82,65)"/>
<path d="M31 25h1v4h-1v-4z" fill="rgb(131,49,24)"/>
<path d="M39 25h1v1h-1v-1z" fill="rgb(246,164,16)"/>
<path d="M44 25h1v2h-1v1h-1v-2h1v-1z" fill="rgb(230,65,16)"/>
<path d="M74 25h1v2h-1v-2z" fill="rgb(8,65,82)"/>
<path d="M75 25h1v2h-1v-2z" fill="rgb(205,82,65)"/>
<path d="M13 26h1v4h-1v-4z" fill="rgb(131,49,24)"/>
<path d="M28 26h1v2h-1v-2z" fill="rgb(0,0,0)"/>
<path d="M78 26h1v1h-1v-1z" fill="rgb(131,49,24)"/>
<path d="M14 27h1v4h-1v3h-1v1h-1v1h-1v3h1v3h-1v-2h-1v-5h1v-1h1v-2h1v-2h1v-3z" fill="rgb(205,82,65)"/>
<path d="M40 27h1v2h-1v-2z" fill="rgb(131,49,24)"/>
<path d="M42 27h1v1h-1v-1z" fill="rgb(131,49,24)"/>
<path d="M75 27h1v2h1v3h1v3h1v2h1v2h1v9h-1v2h-1v-3h-1v-2h-1v-3h-1v-1h-1v-1h-1v-1h-3v-1h3
	v-5h1v-6z" fill="rgb(8,65,82)"/>
<path d="M76 27h1v2h-1v-2z" fill="rgb(205,82,65)"/>
<path d="M78 27h1v2h-1v-2z" fill="rgb(205,82,65)"/>
<path d="M29 28h1v2h-1v-2z" fill="rgb(0,0,0)"/>
<path d="M41 28h2v1h1v2h-2v-2h-1v-1z" fill="rgb(238,131,41)"/>
<path d="M43 28h1v1h-1v-1z" fill="rgb(131,49,24)"/>
<path d="M32 29h1v3h-1v-3z" fill="rgb(131,49,24)"/>
<path d="M41 29h1v2h-1v-2z" fill="rgb(131,49,24)"/>
<path d="M44 29h1v1h-1v-1z" fill="rgb(131,49,24)"/>
<path d="M79 29h1v1h-1v-1z" fill="rgb(131,49,24)"/>
<path d="M12 30h1v2h-1v-2z" fill="rgb(131,49,24)"/>
<path d="M44 30h1v1h1v1h1v1h2v1h2v2h-2v1h-1v-1h-2v-1h-1v-1h-1v-1h-1v-2h1v-1z" fill="rgb(205,82,65)"/>
<path d="M45 30h1v1h-1v-1z" fill="rgb(131,49,24)"/>
<path d="M53 30h1v3h-1v-3z" fill="rgb(131,49,24)"/>
<path d="M54 30h1v1h-1v-1z" fill="rgb(205,82,65)"/>
<path d="M77 30h1v2h-1v-2z" fill="rgb(205,82,65)"/>
<path d="M79 30h1v2h-1v-2z" fill="rgb(205,82,65)"/>
<path d="M42 31h1v2h-1v-2z" fill="rgb(131,49,24)"/>
<path d="M46 31h1v1h-1v-1z" fill="rgb(131,49,24)"/>
<path d="M11 32h1v2h-1v-2z" fill="rgb(131,49,24)"/>
<path d="M19 32h2v1h-2v-1z" fill="rgb(131,49,24)"/>
<path d="M33 32h1v2h-1v-2z" fill="rgb(131,49,24)"/>
<path d="M47 32h2v1h-2v-1z" fill="rgb(131,49,24)"/>
<path d="M55 32h1v1h-1v-1z" fill="rgb(205,82,65)"/>
<path d="M80 32h1v1h-1v-1z" fill="rgb(131,49,24)"/>
<path d="M18 33h1v2h-1v-2z" fill="rgb(131,49,24)"/>
<path d="M19 33h2v3h-1v3h-2v1h-1v-2h1v-3h1v-2z" fill="rgb(205,82,65)"/>
<path d="M21 33h1v3h-1v-3z" fill="rgb(0,0,0)"/>
<path d="M27 33h2v1h-2v-1z" fill="rgb(131,49,24)"/>
<path d="M43 33h1v1h-1v-1z" fill="rgb(131,49,24)"/>
<path d="M49 33h2v1h-2v-1z" fill="rgb(131,49,24)"/>
<path d="M52 33h1v1h-1v-1z" fill="rgb(0,0,0)"/>
<path d="M53 33h2v2h-1v1h-1v1h-1v1h-1v1h-1v-2h1v-1h1v-1h1v-2z" fill="rgb(205,82,65)"/>
<path d="M78 33h1v2h-1v-2z" fill="rgb(205,82,65)"/>
<path d="M80 33h1v2h-1v-2z" fill="rgb(205,82,65)"/>
<path d="M10 34h1v1h-1v-1z" fill="rgb(131,49,24)"/>
<path d="M26 34h1v1h-1v-1z" fill="rgb(131,49,24)"/>
<path d="M27 34h2v1h-1v2h-1v1h-1v2h-1v2h1v1h1v1h1v2h1v4h-2v-1h-4v2h-1v1h-1v1h-1v1h-1v1
	h-2v1h-1v1h-2v-1h-1v1h1v1h-2v-1h-1v-2h1v-1h1v-2h1v-1h3v-1h4v-1h1v-3h1v-1h-2v1h-2
	v-1h-3v1h-1v1h-3v-1h1v-2h1v-1h1v-1h1v-1h1v-1h3v-1h1v1h1v-1h1v-1h1v-1h1v-1h1v-1
	h1v-1z" fill="rgb(238,131,41)"/>
<path d="M29 34h1v2h-1v-2z" fill="rgb(0,0,0)"/>
<path d="M32 34h2v1h1v1h1v1h2v1h1v1h-3v-1h-1v-1h-1v-1h-1v-1h-1v-1z" fill="rgb(205,82,65)"/>
<path d="M34 34h1v1h-1v-1z" fill="rgb(0,0,0)"/>
<path d="M44 34h1v1h-1v-1z" fill="rgb(131,49,24)"/>
<path d="M51 34h2v1h-2v-1z" fill="rgb(131,49,24)"/>
<path d="M9 35h1v5h-1v-5z" fill="rgb(0,0,0)"/>
<path d="M17 35h1v3h-1v-3z" fill="rgb(131,49,24)"/>
<path d="M25 35h1v1h-1v-1z" fill="rgb(131,49,24)"/>
<path d="M28 35h1v1h-1v-1z" fill="rgb(205,82,65)"/>
<path d="M32 35h1v1h-1v-1z" fill="rgb(131,49,24)"/>
<path d="M35 35h1v1h-1v-1z" fill="rgb(0,0,0)"/>
<path d="M45 35h1v1h-1v-1z" fill="rgb(131,49,24)"/>
<path d="M51 35h1v1h-1v-1z" fill="rgb(0,0,0)"/>
<path d="M81 35h1v1h-1v-1z" fill="rgb(131,49,24)"/>
<path d="M20 36h1v3h-1v-3z" fill="rgb(0,0,0)"/>
<path d="M21 36h1v1h1v1h-2v-2z" fill="transparent"/>
<path d="M24 36h1v1h-1v-1z" fill="rgb(131,49,24)"/>
<path d="M28 36h1v1h-1v-1z" fill="rgb(0,0,0)"/>
<path d="M33 36h1v1h-1v-1z" fill="rgb(131,49,24)"/>
<path d="M36 36h2v1h-2v-1z" fill="rgb(0,0,0)"/>
<path d="M46 36h2v1h-2v-1z" fill="rgb(131,49,24)"/>
<path d="M49 36h2v1h-2v-1z" fill="rgb(0,0,0)"/>
<path d="M79 36h1v1h-1v-1z" fill="rgb(205,82,65)"/>
<path d="M81 36h1v1h-1v-1z" fill="rgb(205,82,65)"/>
<path d="M23 37h1v1h-1v-1z" fill="rgb(131,49,24)"/>
<path d="M27 37h1v1h-1v-1z" fill="rgb(0,0,0)"/>
<path d="M28 37h1v1h1v1h1v2h-2v1h-2v-1h-1v-1h1v-2h1v-1z" fill="transparent"/>
<path d="M38 37h1v1h-1v-1z" fill="rgb(131,49,24)"/>
<path d="M47 37h2v1h-2v-1z" fill="rgb(0,0,0)"/>
<path d="M49 37h1v2h-1v1h-2v-2h2v-1z" fill="rgb(238,131,41)"/>
<path d="M82 37h1v1h-1v-1z" fill="rgb(131,49,24)"/>
<path d="M16 38h1v2h-1v-2z" fill="rgb(0,0,0)"/>
<path d="M21 38h2v1h-2v-1z" fill="rgb(131,49,24)"/>
<path d="M26 38h1v1h-1v-1z" fill="rgb(131,49,24)"/>
<path d="M39 38h1v2h-1v-2z" fill="rgb(131,49,24)"/>
<path d="M46 38h1v1h-1v-1z" fill="rgb(0,0,0)"/>
<path d="M51 38h1v1h-1v-1z" fill="rgb(0,0,0)"/>
<path d="M54 38h1v1h-1v-1z" fill="rgb(32,115,148)"/>
<path d="M80 38h2v11h-1v2h-1v2h-1v-3h1v-2h1v-9h-1v-1z" fill="rgb(205,82,65)"/>
<path d="M82 38h1v10h-1v-10z" fill="rgb(0,0,0)"/>
<path d="M18 39h2v1h-2v-1z" fill="rgb(131,49,24)"/>
<path d="M21 39h1v1h-1v-1z" fill="rgb(205,82,65)"/>
<path d="M26 39h1v1h-1v-1z" fill="rgb(0,0,0)"/>
<path d="M35 39h4v1h-4v-1z" fill="rgb(0,0,0)"/>
<path d="M46 39h1v1h-1v-1z" fill="rgb(131,49,24)"/>
<path d="M49 39h1v1h-1v-1z" fill="rgb(205,82,65)"/>
<path d="M50 39h1v1h-1v-1z" fill="rgb(0,0,0)"/>
<path d="M55 39h1v1h-1v-1z" fill="rgb(32,115,148)"/>
<path d="M70 39h1v1h-1v-1z" fill="rgb(8,65,82)"/>
<path d="M73 39h1v1h-1v-1z" fill="rgb(0,0,0)"/>
<path d="M10 40h1v2h-1v-2z" fill="rgb(131,49,24)"/>
<path d="M15 40h1v2h-1v-2z" fill="rgb(0,0,0)"/>
<path d="M16 40h1v1h-1v-1z" fill="rgb(205,82,65)"/>
<path d="M25 40h1v1h1v1h-2v-2z" fill="rgb(0,0,0)"/>
<path d="M32 40h3v1h-3v-1z" fill="rgb(0,0,0)"/>
<path d="M35 40h4v1h2v1h2v1h2v1h2v1h1v1h1v1h-1v1h-1v1h1v-1h1v-1h4v1h2v1h1v1h3v1h2v2h-4
	v-1h-3v1h-1v1h-3v1h3v1h2v2h1v1h-2v3h1v1h1v1h2v2h2v1h2v1h1v6h-1v1h-2v1h-3v-1h-2
	v-1h-1v-1h-1v-2h-1v-3h-1v-3h-1v-2h-1v-2h-1v-1h-1v-1h-1v-1h-1v-1h-2v-1h-2v-1h-5
	v-1h2v-1h1v-1h2v-1h1v-3h-1v-1h-2v-1h-6v-2h-1v-1h-1v-1h1v-1h3v-1z" fill="rgb(238,131,41)"/>
<path d="M39 40h3v1h-3v-1z" fill="rgb(0,0,0)"/>
<path d="M45 40h1v2h-1v-2z" fill="rgb(131,49,24)"/>
<path d="M46 40h3v2h-1v2h-1v-1h-1v-3z" fill="rgb(205,82,65)"/>
<path d="M49 40h1v2h-1v-2z" fill="rgb(0,0,0)"/>
<path d="M54 40h1v1h-1v-1z" fill="rgb(32,115,148)"/>
<path d="M55 40h1v1h-1v-1z" fill="rgb(8,65,82)"/>
<path d="M56 40h1v1h-1v-1z" fill="rgb(32,115,148)"/>
<path d="M69 40h1v1h-1v-1z" fill="rgb(8,65,82)"/>
<path d="M74 40h1v1h-1v-1z" fill="rgb(0,0,0)"/>
<path d="M29 41h3v1h-2v1h-3v-1h2v-1z" fill="rgb(0,0,0)"/>
<path d="M41 41h1v1h-1v-1z" fill="rgb(205,82,65)"/>
<path d="M42 41h2v1h-2v-1z" fill="rgb(0,0,0)"/>
<path d="M55 41h1v1h-1v-1z" fill="rgb(32,115,148)"/>
<path d="M59 41h3v1h-3v-1z" fill="rgb(0,0,0)"/>
<path d="M68 41h1v2h-1v-2z" fill="rgb(8,65,82)"/>
<path d="M75 41h1v1h-1v-1z" fill="rgb(0,0,0)"/>
<path d="M11 42h1v2h-1v-2z" fill="rgb(131,49,24)"/>
<path d="M12 42h1v2h-1v-2z" fill="rgb(205,82,65)"/>
<path d="M14 42h1v1h-1v-1z" fill="rgb(0,0,0)"/>
<path d="M26 42h1v1h-1v-1z" fill="rgb(131,49,24)"/>
<path d="M30 42h1v1h1v1h1v2h-1v1h-2v1h-1v-2h-1v-3h2v-1z" fill="rgb(205,82,65)"/>
<path d="M43 42h1v1h-1v-1z" fill="rgb(205,82,65)"/>
<path d="M44 42h2v1h-2v-1z" fill="rgb(0,0,0)"/>
<path d="M54 42h1v1h-1v-1z" fill="rgb(32,115,148)"/>
<path d="M55 42h1v1h-1v-1z" fill="rgb(8,65,82)"/>
<path d="M56 42h1v1h-1v-1z" fill="rgb(32,115,148)"/>
<path d="M59 42h3v1h3v1h1v1h2v-1h1v1h1v1h1v1h1v1h1v2h1v1h1v2h1v2h1v3h1v5h-1v2h-1v1h-1v1
	h-1v1h-1v1h-2v1h-3v1h-2v-3h-1v-2h2v-1h2v-1h2v-1h2v-1h1v-2h-1v-1h1v-1h-1v-1h-1v1
	h-1v1h-1v-1h-2v1h-1v-2h1v-4h-1v-2h-1v-2h-1v-1h-1v-1h-1v-1h-1v-1h-1v-1h-1v-1h-1
	v-1z" fill="rgb(205,82,65)"/>
<path d="M62 42h3v1h-3v-1z" fill="rgb(0,0,0)"/>
<path d="M76 42h1v3h-1v-3z" fill="rgb(0,0,0)"/>
<path d="M13 43h1v1h-1v-1z" fill="rgb(0,0,0)"/>
<path d="M27 43h1v1h-1v-1z" fill="rgb(131,49,24)"/>
<path d="M45 43h1v1h-1v-1z" fill="rgb(205,82,65)"/>
<path d="M46 43h1v1h-1v-1z" fill="rgb(0,0,0)"/>
<path d="M55 43h1v1h-1v-1z" fill="rgb(32,115,148)"/>
<path d="M56 43h1v1h-1v-1z" fill="rgb(8,65,82)"/>
<path d="M57 43h2v1h1v1h1v1h1v1h1v1h1v1h1v2h1v2h1v4h-1v2h-1v1h-1v-5h-1v-4h-1v-1h-3v-1h-3
	v-1h-1v-1h-1v-1h1v-1h1v-1h1v-1z" fill="transparent"/>
<path d="M59 43h1v1h-1v-1z" fill="rgb(131,49,24)"/>
<path d="M65 43h1v1h-1v-1z" fill="rgb(0,0,0)"/>
<path d="M68 43h1v1h-1v-1z" fill="rgb(131,49,24)"/>
<path d="M12 44h1v2h-1v-2z" fill="rgb(0,0,0)"/>
<path d="M47 44h1v1h-1v-1z" fill="rgb(0,0,0)"/>
<path d="M60 44h1v1h-1v-1z" fill="rgb(0,0,0)"/>
<path d="M66 44h1v1h-1v-1z" fill="rgb(0,0,0)"/>
<path d="M69 44h1v1h-1v-1z" fill="rgb(131,49,24)"/>
<path d="M16 45h1v1h-1v-1z" fill="rgb(205,82,65)"/>
<path d="M17 45h2v1h-1v1h-2v-1h1v-1z" fill="rgb(238,180,90)"/>
<path d="M21 45h1v2h-1v-2z" fill="rgb(131,49,24)"/>
<path d="M22 45h1v1h-1v-1z" fill="rgb(205,82,65)"/>
<path d="M48 45h1v1h-1v-1z" fill="rgb(0,0,0)"/>
<path d="M61 45h1v1h-1v-1z" fill="rgb(0,0,0)"/>
<path d="M70 45h1v1h-1v-1z" fill="rgb(131,49,24)"/>
<path d="M77 45h1v2h-1v-2z" fill="rgb(0,0,0)"/>
<path d="M11 46h1v2h-1v-2z" fill="rgb(0,0,0)"/>
<path d="M15 46h1v2h-1v1h-2v-2h2v-1z" fill="rgb(205,82,65)"/>
<path d="M18 46h1v1h-1v-1z" fill="rgb(238,131,41)"/>
<path d="M19 46h1v1h-1v-1z" fill="rgb(205,82,65)"/>
<path d="M20 46h1v1h-1v-1z" fill="rgb(205,205,205)"/>
<path d="M32 46h1v1h-1v-1z" fill="rgb(131,49,24)"/>
<path d="M33 46h2v1h-2v-1z" fill="rgb(0,0,0)"/>
<path d="M35 46h4v1h2v1h1v3h-1v1h-2v1h-1v1h-2v1h-1v1h-2v-1h-1v1h-1v-2h-1v-3h2v-1h1v-1h2
	v1h1v-2h1v1h2v-1h-1v-1h-3v-1z" fill="rgb(205,82,65)"/>
<path d="M49 46h4v1h-4v-1z" fill="rgb(0,0,0)"/>
<path d="M62 46h1v1h-1v-1z" fill="rgb(0,0,0)"/>
<path d="M71 46h1v1h-1v-1z" fill="rgb(131,49,24)"/>
<path d="M12 47h1v1h-1v-1z" fill="rgb(131,49,24)"/>
<path d="M16 47h2v2h-2v-2z" fill="rgb(238,131,41)"/>
<path d="M18 47h1v1h-1v-1z" fill="rgb(205,82,65)"/>
<path d="M19 47h1v2h-1v-2z" fill="rgb(0,0,0)"/>
<path d="M20 47h2v1h-1v1h-1v-2z" fill="rgb(255,255,255)"/>
<path d="M30 47h2v1h-2v-1z" fill="rgb(131,49,24)"/>
<path d="M32 47h3v1h-2v1h-1v1h-2v-2h2v-1z" fill="transparent"/>
<path d="M35 47h2v1h-2v-1z" fill="rgb(0,0,0)"/>
<path d="M37 47h1v1h1v1h-2v-2z" fill="rgb(131,49,24)"/>
<path d="M48 47h1v1h-1v-1z" fill="rgb(131,49,24)"/>
<path d="M53 47h1v1h-1v-1z" fill="rgb(0,0,0)"/>
<path d="M54 47h1v1h-1v-1z" fill="rgb(131,49,24)"/>
<path d="M63 47h1v1h-1v-1z" fill="rgb(0,0,0)"/>
<path d="M72 47h1v1h-1v-1z" fill="rgb(131,49,24)"/>
<path d="M78 47h1v5h-1v-5z" fill="rgb(0,0,0)"/>
<path d="M12 48h1v1h-1v-1z" fill="rgb(0,0,0)"/>
<path d="M15 48h1v1h-1v-1z" fill="rgb(131,49,24)"/>
<path d="M18 48h1v1h-1v-1z" fill="rgb(32,115,148)"/>
<path d="M21 48h1v1h-1v-1z" fill="rgb(205,82,65)"/>
<path d="M29 48h1v2h2v1h-2v2h-1v-5z" fill="rgb(131,49,24)"/>
<path d="M33 48h3v2h-1v-1h-2v-1z" fill="rgb(131,49,24)"/>
<path d="M47 48h1v1h-1v-1z" fill="rgb(205,82,65)"/>
<path d="M55 48h1v1h-1v-1z" fill="rgb(131,49,24)"/>
<path d="M64 48h1v1h-1v-1z" fill="rgb(131,49,24)"/>
<path d="M73 48h1v1h-1v-1z" fill="rgb(0,0,0)"/>
<path d="M13 49h1v1h-1v-1z" fill="rgb(0,0,0)"/>
<path d="M14 49h1v2h-1v-2z" fill="rgb(131,49,24)"/>
<path d="M15 49h2v2h-2v-2z" fill="rgb(205,82,65)"/>
<path d="M17 49h3v1h-3v-1z" fill="rgb(131,49,24)"/>
<path d="M20 49h1v1h-1v-1z" fill="rgb(205,82,65)"/>
<path d="M23 49h1v1h-1v-1z" fill="rgb(205,82,65)"/>
<path d="M24 49h1v1h-1v-1z" fill="rgb(131,49,24)"/>
<path d="M25 49h1v3h-1v-1h-1v1h-1v-2h2v-1z" fill="rgb(0,0,0)"/>
<path d="M26 49h1v1h-1v-1z" fill="rgb(131,49,24)"/>
<path d="M32 49h1v1h-1v-1z" fill="rgb(131,49,24)"/>
<path d="M56 49h3v1h-3v-1z" fill="rgb(131,49,24)"/>
<path d="M65 49h1v2h-1v-2z" fill="rgb(131,49,24)"/>
<path d="M73 49h2v1h-2v-1z" fill="rgb(131,49,24)"/>
<path d="M81 49h1v1h-1v-1z" fill="rgb(0,0,0)"/>
<path d="M26 50h3v5h-1v2h-1v-6h-1v-1z" fill="rgb(205,82,65)"/>
<path d="M59 50h2v1h-2v-1z" fill="rgb(131,49,24)"/>
<path d="M61 50h1v1h-1v-1z" fill="rgb(0,0,0)"/>
<path d="M74 50h1v1h-1v-1z" fill="rgb(0,0,0)"/>
<path d="M13 51h1v1h-1v-1z" fill="rgb(131,49,24)"/>
<path d="M22 51h1v1h-1v-1z" fill="rgb(205,82,65)"/>
<path d="M24 51h1v1h1v4h-1v1h-1v1h-1v-4h-1v-1h1v-1h1v-1z" fill="rgb(230,65,16)"/>
<path d="M26 51h1v1h-1v-1z" fill="rgb(131,49,24)"/>
<path d="M61 51h1v4h1v5h1v2h1v2h-2v-1h-2v-1h1v-3h-2v-1h-1v-2h1v-2h-1v-1h2v-2z" fill="rgb(205,82,65)"/>
<path d="M62 51h1v4h-1v-4z" fill="rgb(0,0,0)"/>
<path d="M66 51h1v2h-1v-2z" fill="rgb(131,49,24)"/>
<path d="M75 51h1v1h-1v-1z" fill="rgb(0,0,0)"/>
<path d="M80 51h1v1h-1v-1z" fill="rgb(0,0,0)"/>
<path d="M12 52h1v2h-1v-2z" fill="rgb(131,49,24)"/>
<path d="M21 52h1v1h-1v-1z" fill="rgb(205,82,65)"/>
<path d="M22 52h1v1h-1v-1z" fill="rgb(0,0,0)"/>
<path d="M26 52h1v4h-1v-4z" fill="rgb(0,0,0)"/>
<path d="M34 52h1v1h-1v-1z" fill="rgb(131,49,24)"/>
<path d="M54 52h2v2h-1v-1h-1v-1z" fill="rgb(131,49,24)"/>
<path d="M56 52h1v1h-1v-1z" fill="rgb(0,0,0)"/>
<path d="M75 52h1v1h-1v-1z" fill="rgb(131,49,24)"/>
<path d="M20 53h2v1h-2v-1z" fill="rgb(0,0,0)"/>
<path d="M29 53h1v2h-1v-2z" fill="rgb(0,0,0)"/>
<path d="M33 53h1v2h-1v-2z" fill="rgb(131,49,24)"/>
<path d="M53 53h2v1h1v1h1v1h1v2h-3v-2h-2v-3z" fill="rgb(205,82,65)"/>
<path d="M56 53h1v1h-1v-1z" fill="transparent"/>
<path d="M57 53h2v1h-2v-1z" fill="rgb(131,49,24)"/>
<path d="M67 53h1v4h-1v-4z" fill="rgb(131,49,24)"/>
<path d="M76 53h1v1h-1v-1z" fill="rgb(0,0,0)"/>
<path d="M79 53h1v1h-1v-1z" fill="rgb(0,0,0)"/>
<path d="M11 54h1v1h-1v-1z" fill="rgb(131,49,24)"/>
<path d="M19 54h1v1h-1v-1z" fill="rgb(0,0,0)"/>
<path d="M20 54h2v3h-1v1h-2v-3h1v-1z" fill="transparent"/>
<path d="M22 54h1v3h-1v-3z" fill="rgb(0,0,0)"/>
<path d="M30 54h1v1h-1v-1z" fill="rgb(131,49,24)"/>
<path d="M50 54h1v1h-1v-1z" fill="rgb(205,82,65)"/>
<path d="M51 54h2v1h-2v-1z" fill="rgb(131,49,24)"/>
<path d="M56 54h1v1h-1v-1z" fill="rgb(131,49,24)"/>
<path d="M57 54h2v2h-1v-1h-1v-1z" fill="transparent"/>
<path d="M59 54h1v2h-1v-2z" fill="rgb(0,0,0)"/>
<path d="M76 54h1v1h-1v-1z" fill="rgb(131,49,24)"/>
<path d="M10 55h1v1h-1v-1z" fill="rgb(131,49,24)"/>
<path d="M14 55h1v1h-1v-1z" fill="rgb(131,49,24)"/>
<path d="M17 55h1v1h-1v-1z" fill="rgb(205,82,65)"/>
<path d="M18 55h1v3h-3v-1h2v-2z" fill="rgb(0,0,0)"/>
<path d="M28 55h1v2h-1v-2z" fill="rgb(0,0,0)"/>
<path d="M32 55h1v1h-1v-1z" fill="rgb(131,49,24)"/>
<path d="M35 55h1v1h-1v-1z" fill="rgb(238,131,41)"/>
<path d="M36 55h5v1h2v1h2v1h1v1h1v1h1v1h1v2h1v2h1v4h-1v1h-4v1h-8v-1h-3v-1h-1v-1h-1v-1h-1
	v-1h-1v-5h1v-2h1v-2h1v-1h2v-1z" fill="rgb(238,222,123)"/>
<path d="M57 55h1v1h-1v-1z" fill="rgb(131,49,24)"/>
<path d="M63 55h1v5h-1v-5z" fill="rgb(0,0,0)"/>
<path d="M77 55h1v1h-1v-1z" fill="rgb(0,0,0)"/>
<path d="M10 56h1v1h-1v-1z" fill="rgb(0,0,0)"/>
<path d="M13 56h1v1h-1v-1z" fill="rgb(205,82,65)"/>
<path d="M16 56h1v1h-1v-1z" fill="rgb(205,82,65)"/>
<path d="M17 56h1v1h-1v-1z" fill="rgb(255,255,255)"/>
<path d="M25 56h1v1h-1v-1z" fill="rgb(0,0,0)"/>
<path d="M26 56h1v1h-1v-1z" fill="rgb(131,49,24)"/>
<path d="M32 56h1v1h-1v-1z" fill="rgb(0,0,0)"/>
<path d="M33 56h1v1h-1v-1z" fill="rgb(238,131,41)"/>
<path d="M58 56h1v2h-1v-2z" fill="rgb(0,0,0)"/>
<path d="M77 56h1v2h-1v-2z" fill="rgb(131,49,24)"/>
<path d="M11 57h1v1h-1v-1z" fill="rgb(0,0,0)"/>
<path d="M14 57h2v1h-2v-1z" fill="rgb(205,82,65)"/>
<path d="M21 57h1v1h-1v-1z" fill="rgb(0,0,0)"/>
<path d="M22 57h1v1h-1v-1z" fill="rgb(131,49,24)"/>
<path d="M24 57h1v1h-1v-1z" fill="rgb(0,0,0)"/>
<path d="M25 57h1v1h-1v-1z" fill="rgb(255,255,255)"/>
<path d="M26 57h1v2h-1v-2z" fill="rgb(238,131,41)"/>
<path d="M27 57h2v1h-2v-1z" fill="rgb(131,49,24)"/>
<path d="M31 57h1v2h-1v-2z" fill="rgb(0,0,0)"/>
<path d="M32 57h1v1h-1v-1z" fill="rgb(205,82,65)"/>
<path d="M66 57h1v2h-1v-2z" fill="rgb(131,49,24)"/>
<path d="M72 57h1v1h-1v-1z" fill="rgb(238,131,41)"/>
<path d="M13 58h3v1h-3v-1z" fill="rgb(0,0,0)"/>
<path d="M18 58h2v1h-2v-1z" fill="rgb(131,49,24)"/>
<path d="M20 58h1v2h1v1h4v2h-2v-1h-3v2h-2v-1h-1v-2h1v-1h-1v-1h2v-1z" fill="rgb(205,82,65)"/>
<path d="M21 58h1v1h-1v-1z" fill="rgb(131,49,24)"/>
<path d="M22 58h1v1h-1v-1z" fill="rgb(255,255,255)"/>
<path d="M23 58h3v1h-3v-1z" fill="rgb(131,49,24)"/>
<path d="M27 58h1v1h-1v-1z" fill="rgb(0,0,0)"/>
<path d="M32 58h1v1h-1v-1z" fill="rgb(238,131,41)"/>
<path d="M56 58h1v1h-1v-1z" fill="rgb(0,0,0)"/>
<path d="M57 58h2v1h-2v-1z" fill="rgb(131,49,24)"/>
<path d="M59 58h1v1h2v3h-1v2h-3v-1h1v-2h-3v-2h3v-1z" fill="rgb(238,131,41)"/>
<path d="M68 58h2v1h1v1h1v1h1v-1h1v2h-1v1h-2v1h-2v1h-2v1h-1v-5h-1v-1h1v-1h2v-1z" fill="rgb(238,131,41)"/>
<path d="M71 58h1v1h-1v-1z" fill="rgb(238,131,41)"/>
<path d="M72 58h1v1h-1v-1z" fill="rgb(205,82,65)"/>
<path d="M73 58h1v1h-1v-1z" fill="rgb(238,131,41)"/>
<path d="M78 58h1v6h-1v-6z" fill="rgb(0,0,0)"/>
<path d="M17 59h1v1h-1v-1z" fill="rgb(131,49,24)"/>
<path d="M21 59h1v1h-1v-1z" fill="rgb(0,0,0)"/>
<path d="M22 59h4v1h-4v-1z" fill="rgb(238,131,41)"/>
<path d="M26 59h1v1h-1v-1z" fill="rgb(0,0,0)"/>
<path d="M30 59h1v3h-1v-3z" fill="rgb(0,0,0)"/>
<path d="M31 59h1v1h-1v-1z" fill="rgb(205,82,65)"/>
<path d="M54 59h1v1h-1v-1z" fill="rgb(131,49,24)"/>
<path d="M55 59h1v1h-1v-1z" fill="rgb(0,0,0)"/>
<path d="M65 59h1v1h-1v-1z" fill="rgb(131,49,24)"/>
<path d="M71 59h1v1h-1v-1z" fill="rgb(205,82,65)"/>
<path d="M72 59h1v1h-1v-1z" fill="rgb(238,131,41)"/>
<path d="M16 60h1v1h-1v-1z" fill="rgb(131,49,24)"/>
<path d="M17 60h1v1h-1v-1z" fill="rgb(205,82,65)"/>
<path d="M18 60h1v1h-1v-1z" fill="rgb(131,49,24)"/>
<path d="M22 60h4v1h-4v-1z" fill="rgb(0,0,0)"/>
<path d="M26 60h1v1h-1v-1z" fill="rgb(131,49,24)"/>
<path d="M31 60h1v1h-1v-1z" fill="rgb(238,131,41)"/>
<path d="M54 60h1v2h-1v-2z" fill="rgb(0,0,0)"/>
<path d="M55 60h1v1h1v1h-2v-2z" fill="rgb(205,82,65)"/>
<path d="M64 60h1v1h-1v-1z" fill="rgb(0,0,0)"/>
<path d="M72 60h1v1h-1v-1z" fill="rgb(205,82,65)"/>
<path d="M16 61h2v2h-1v-1h-1v-1z" fill="rgb(0,0,0)"/>
<path d="M26 61h1v2h-1v-2z" fill="rgb(0,0,0)"/>
<path d="M57 61h1v1h-1v-1z" fill="rgb(131,49,24)"/>
<path d="M58 61h1v1h-1v-1z" fill="rgb(0,0,0)"/>
<path d="M64 61h1v1h-1v-1z" fill="rgb(131,49,24)"/>
<path d="M65 61h1v5h-2v-1h1v-4z" fill="rgb(0,0,0)"/>
<path d="M21 62h1v1h-1v-1z" fill="rgb(0,0,0)"/>
<path d="M22 62h2v1h-2v-1z" fill="rgb(131,49,24)"/>
<path d="M29 62h1v2h-1v-2z" fill="rgb(0,0,0)"/>
<path d="M30 62h1v7h1v2h1v2h-1v1h-2v1h-4v-1h-1v-3h1v-3h1v-2h1v-1h1v-1h1v-2z" fill="rgb(238,131,41)"/>
<path d="M55 62h1v1h-1v-1z" fill="rgb(0,0,0)"/>
<path d="M56 62h1v1h-1v-1z" fill="rgb(205,205,205)"/>
<path d="M57 62h1v1h-1v-1z" fill="rgb(0,0,0)"/>
<path d="M58 62h1v1h-1v-1z" fill="rgb(205,82,65)"/>
<path d="M18 63h1v2h-1v-2z" fill="rgb(131,49,24)"/>
<path d="M21 63h1v1h-1v-1z" fill="rgb(131,49,24)"/>
<path d="M24 63h2v1h-2v-1z" fill="rgb(0,0,0)"/>
<path d="M56 63h1v1h-1v-1z" fill="rgb(205,82,65)"/>
<path d="M57 63h1v1h-1v-1z" fill="rgb(131,49,24)"/>
<path d="M61 63h1v1h1v1h-1v1h-1v-3z" fill="rgb(131,49,24)"/>
<path d="M62 63h1v1h-1v-1z" fill="rgb(0,0,0)"/>
<path d="M77 63h1v1h-1v-1z" fill="rgb(238,180,90)"/>
<path d="M19 64h2v1h-2v-1z" fill="rgb(0,0,0)"/>
<path d="M21 64h1v1h-1v-1z" fill="rgb(255,255,255)"/>
<path d="M22 64h1v1h-1v-1z" fill="rgb(131,49,24)"/>
<path d="M28 64h1v1h-1v-1z" fill="rgb(131,49,24)"/>
<path d="M58 64h1v2h-1v-2z" fill="rgb(131,49,24)"/>
<path d="M59 64h2v1h-2v-1z" fill="rgb(205,82,65)"/>
<path d="M63 64h1v1h-1v-1z" fill="rgb(0,0,0)"/>
<path d="M64 64h1v1h-1v-1z" fill="rgb(205,205,205)"/>
<path d="M77 64h1v2h-1v-2z" fill="rgb(0,0,0)"/>
<path d="M20 65h1v1h-1v-1z" fill="rgb(131,49,24)"/>
<path d="M21 65h2v1h-2v-1z" fill="rgb(0,0,0)"/>
<path d="M27 65h1v1h-1v-1z" fill="rgb(131,49,24)"/>
<path d="M59 65h1v1h-1v-1z" fill="rgb(0,0,0)"/>
<path d="M60 65h1v1h-1v-1z" fill="rgb(205,205,205)"/>
<path d="M62 65h1v1h-1v-1z" fill="rgb(238,131,41)"/>
<path d="M63 65h1v1h-1v-1z" fill="rgb(131,49,24)"/>
<path d="M76 65h1v1h-1v-1z" fill="rgb(238,180,90)"/>
<path d="M26 66h1v1h-1v-1z" fill="rgb(131,49,24)"/>
<path d="M31 66h1v1h-1v-1z" fill="rgb(205,82,65)"/>
<path d="M52 66h1v2h-1v-2z" fill="rgb(205,82,65)"/>
<path d="M60 66h2v1h-2v-1z" fill="rgb(0,0,0)"/>
<path d="M62 66h2v2h1v3h1v5h1v3h-1v1h-1v1h-1v1h-1v1h1v-1h1v1h1v-1h1v-1h1v2h-1v2h-1v-1h-2
	v1h-1v-1h-2v1h-2v-1h-1v-3h-1v-1h-1v-1h-1v-1h-2v-2h-1v-5h1v2h1v1h1v1h2v1h3v-1h2
	v-1h1v-6h-1v-2z" fill="rgb(205,82,65)"/>
<path d="M64 66h1v1h-1v-1z" fill="rgb(131,49,24)"/>
<path d="M75 66h1v2h-1v1h-1v1h-1v1h-1v1h-2v1h-2v1h-1v-3h2v-1h3v-1h1v-1h1v-1h1v-1z" fill="rgb(238,180,90)"/>
<path d="M76 66h1v2h-1v-2z" fill="rgb(0,0,0)"/>
<path d="M26 67h1v1h-1v-1z" fill="rgb(205,82,65)"/>
<path d="M31 67h1v2h-1v-2z" fill="rgb(131,49,24)"/>
<path d="M32 67h1v1h1v1h1v1h3v1h8v-1h4v-1h1v7h-1v1h-3v1h-3v-1h-3v-1h-2v-1h-2v-1h-1v-1h-1
	v-1h-1v-1h-1v-2h-1v-2z" fill="rgb(238,180,90)"/>
<path d="M64 67h1v1h-1v-1z" fill="rgb(0,0,0)"/>
<path d="M25 68h1v3h-1v-3z" fill="rgb(205,82,65)"/>
<path d="M51 68h1v1h-1v-1z" fill="rgb(205,82,65)"/>
<path d="M65 68h1v1h-1v-1z" fill="rgb(131,49,24)"/>
<path d="M75 68h1v1h-1v-1z" fill="rgb(0,0,0)"/>
<path d="M32 69h1v2h-1v-2z" fill="rgb(131,49,24)"/>
<path d="M51 69h1v3h-1v-3z" fill="rgb(131,49,24)"/>
<path d="M65 69h1v2h-1v-2z" fill="rgb(0,0,0)"/>
<path d="M71 69h1v1h-1v-1z" fill="rgb(238,131,41)"/>
<path d="M74 69h1v1h-1v-1z" fill="rgb(0,0,0)"/>
<path d="M68 70h1v1h-1v-1z" fill="rgb(238,131,41)"/>
<path d="M73 70h1v1h-1v-1z" fill="rgb(0,0,0)"/>
<path d="M24 71h1v5h-1v-5z" fill="rgb(131,49,24)"/>
<path d="M33 71h1v1h-1v-1z" fill="rgb(131,49,24)"/>
<path d="M66 71h1v3h1v1h-1v1h-1v-5z" fill="rgb(0,0,0)"/>
<path d="M72 71h1v1h-1v-1z" fill="rgb(0,0,0)"/>
<path d="M33 72h1v1h1v1h1v1h1v2h-1v1h-1v1h1v2h1v2h-3v-1h-1v-1h-4v-1h-1v-1h-1v-1h-1v-2h-1
	v-2h1v1h4v-1h2v-1h1v-1z" fill="rgb(205,82,65)"/>
<path d="M34 72h1v1h-1v-1z" fill="rgb(0,0,0)"/>
<path d="M51 72h1v4h-1v-4z" fill="rgb(0,0,0)"/>
<path d="M70 72h2v1h-2v-1z" fill="rgb(0,0,0)"/>
<path d="M35 73h1v1h-1v-1z" fill="rgb(0,0,0)"/>
<path d="M68 73h2v1h-2v-1z" fill="rgb(0,0,0)"/>
<path d="M36 74h1v1h-1v-1z" fill="rgb(0,0,0)"/>
<path d="M37 75h2v1h-2v-1z" fill="rgb(0,0,0)"/>
<path d="M25 76h1v2h-1v-2z" fill="rgb(131,49,24)"/>
<path d="M37 76h2v1h-2v-1z" fill="rgb(131,49,24)"/>
<path d="M39 76h2v1h-2v-1z" fill="rgb(0,0,0)"/>
<path d="M50 76h2v1h-2v-1z" fill="rgb(131,49,24)"/>
<path d="M52 76h1v2h-1v-2z" fill="rgb(0,0,0)"/>
<path d="M67 76h1v4h-1v-4z" fill="rgb(0,0,0)"/>
<path d="M36 77h1v1h-1v-1z" fill="rgb(131,49,24)"/>
<path d="M41 77h3v1h-3v-1z" fill="rgb(0,0,0)"/>
<path d="M47 77h3v1h-3v-1z" fill="rgb(131,49,24)"/>
<path d="M50 77h2v1h1v1h-6v-1h3v-1z" fill="rgb(238,180,90)"/>
<path d="M26 78h1v1h-1v-1z" fill="rgb(131,49,24)"/>
<path d="M35 78h1v1h-1v-1z" fill="rgb(131,49,24)"/>
<path d="M44 78h3v1h-3v-1z" fill="rgb(131,49,24)"/>
<path d="M53 78h2v1h-2v-1z" fill="rgb(0,0,0)"/>
<path d="M27 79h1v1h-1v-1z" fill="rgb(0,0,0)"/>
<path d="M36 79h1v2h-1v-2z" fill="rgb(0,0,0)"/>
<path d="M47 79h7v1h-7v-1z" fill="rgb(131,49,24)"/>
<path d="M55 79h1v1h-1v-1z" fill="rgb(0,0,0)"/>
<path d="M66 79h1v1h-1v-1z" fill="rgb(238,131,41)"/>
<path d="M28 80h1v1h-1v-1z" fill="rgb(0,0,0)"/>
<path d="M56 80h1v1h-1v-1z" fill="rgb(0,0,0)"/>
<path d="M65 80h1v1h-1v-1z" fill="rgb(238,131,41)"/>
<path d="M66 80h1v1h-1v-1z" fill="rgb(205,82,65)"/>
<path d="M67 80h1v1h-1v-1z" fill="rgb(238,131,41)"/>
<path d="M68 80h1v4h-1v-4z" fill="rgb(0,0,0)"/>
<path d="M27 81h1v1h-1v-1z" fill="rgb(98,98,98)"/>
<path d="M28 81h1v1h-1v-1z" fill="rgb(205,205,205)"/>
<path d="M29 81h1v1h-1v-1z" fill="rgb(0,0,0)"/>
<path d="M30 81h1v2h-1v1h-1v-2h1v-1z" fill="rgb(205,205,205)"/>
<path d="M31 81h2v1h-2v-1z" fill="rgb(131,49,24)"/>
<path d="M37 81h1v2h-1v-2z" fill="rgb(0,0,0)"/>
<path d="M57 81h1v3h1v1h1v1h-2v-1h-1v-4z" fill="rgb(0,0,0)"/>
<path d="M64 81h1v1h-1v-1z" fill="rgb(238,131,41)"/>
<path d="M65 81h1v1h-1v-1z" fill="rgb(205,82,65)"/>
<path d="M66 81h1v1h-1v-1z" fill="rgb(238,131,41)"/>
<path d="M26 82h1v1h-1v-1z" fill="rgb(98,98,98)"/>
<path d="M27 82h1v1h-1v-1z" fill="rgb(255,255,255)"/>
<path d="M28 82h1v1h-1v-1z" fill="rgb(98,98,98)"/>
<path d="M31 82h1v1h-1v-1z" fill="rgb(98,98,98)"/>
<path d="M32 82h2v1h-1v1h-1v-2z" fill="rgb(205,205,205)"/>
<path d="M63 82h1v1h-1v-1z" fill="rgb(238,131,41)"/>
<path d="M65 82h1v1h-1v-1z" fill="rgb(238,131,41)"/>
<path d="M26 83h2v1h2v1h-3v-1h-1v-1z" fill="rgb(0,0,0)"/>
<path d="M28 83h1v1h-1v-1z" fill="rgb(255,255,255)"/>
<path d="M30 83h1v1h-1v-1z" fill="rgb(0,0,0)"/>
<path d="M31 83h1v1h-1v-1z" fill="rgb(255,255,255)"/>
<path d="M33 83h4v1h-3v1h-3v-1h2v-1z" fill="rgb(0,0,0)"/>
<path d="M67 83h1v1h1v1h-2v-2z" fill="rgb(255,255,255)"/>
<path d="M61 84h1v1h-1v-1z" fill="rgb(205,205,205)"/>
<path d="M62 84h1v1h-1v-1z" fill="rgb(131,49,24)"/>
<path d="M64 84h1v1h-1v-1z" fill="rgb(205,205,205)"/>
<path d="M65 84h1v1h1v2h-1v-1h-2v-1h1v-1z" fill="rgb(255,255,255)"/>
<path d="M69 84h1v3h-3v-1h2v-2z" fill="rgb(0,0,0)"/>
<path d="M60 85h3v1h-1v1h-1v-1h-1v-1z" fill="rgb(255,255,255)"/>
<path d="M63 85h1v1h-1v-1z" fill="rgb(0,0,0)"/>
<path d="M67 85h1v1h-1v-1z" fill="rgb(98,98,98)"/>
<path d="M68 85h1v1h-1v-1z" fill="rgb(205,205,205)"/>
<path d="M60 86h1v1h-1v-1z" fill="rgb(0,0,0)"/>
<path d="M62 86h1v2h-2v-1h1v-1z" fill="rgb(0,0,0)"/>
<path d="M64 86h1v1h-1v-1z" fill="rgb(0,0,0)"/>
<path d="M65 86h1v1h-1v-1z" fill="rgb(205,205,205)"/>
<path d="M65 87h2v1h-2v-1z" fill="rgb(0,0,0)"/>
</svg>
