<?xml version="1.0" encoding="utf-8"?>
<!-- generated at drububu.com  -->
<!DOCTYPE svg PUBLIC "-//W3C//DTD SVG 1.1//EN" "http://www.w3.org/Graphics/SVG/1.1/DTD/svg11.dtd">
<svg version="1.1" preserveAspectRatio="xMinYMin meet" xmlns="http://www.w3.org/2000/svg" xmlns:xlink="http://www.w3.org/1999/xlink" x="0px" y="0px" width="96px" height="96px" viewBox="0 0 96 96">
<path d="M0 0h96v96h-96v-96z" fill="transparent"/>
<path d="M39 35h6v1h-6v-1z" fill="rgb(24,57,115)"/>
<path d="M37 36h2v1h-2v-1z" fill="rgb(24,57,115)"/>
<path d="M39 36h2v1h1v2h-1v1h-3v-1h-1v-2h2v-1z" fill="rgb(139,164,230)"/>
<path d="M41 36h4v1h2v1h2v1h1v1h1v1h1v2h1v2h1v3h-1v1h-1v1h-2v1h-2v-2h-1v-1h-2v-1h-2v-1h5
	v-1h1v-4h-1v-1h-1v-1h-1v-1h-2v1h-1v1h-1v4h-1v-1h-4v-3h-1v-2h1v1h1v1h3v-1h1v-2
	h-1v-1z" fill="rgb(82,131,197)"/>
<path d="M45 36h2v1h-2v-1z" fill="rgb(24,57,115)"/>
<path d="M35 37h2v1h-2v-1z" fill="rgb(24,57,115)"/>
<path d="M47 37h2v1h-2v-1z" fill="rgb(24,57,115)"/>
<path d="M34 38h1v1h1v1h-2v1h-1v1h-1v-2h1v-1h1v-1z" fill="rgb(24,57,115)"/>
<path d="M35 38h1v1h-1v-1z" fill="rgb(57,90,131)"/>
<path d="M44 38h2v1h-2v-1z" fill="rgb(24,57,115)"/>
<path d="M49 38h1v1h-1v-1z" fill="rgb(24,57,115)"/>
<path d="M43 39h1v1h-1v-1z" fill="rgb(24,57,115)"/>
<path d="M44 39h2v1h-2v-1z" fill="rgb(255,255,255)"/>
<path d="M46 39h1v1h-1v-1z" fill="rgb(24,57,115)"/>
<path d="M50 39h1v1h-1v-1z" fill="rgb(24,57,115)"/>
<path d="M34 40h1v1h-1v-1z" fill="rgb(255,255,255)"/>
<path d="M35 40h1v1h-1v-1z" fill="rgb(16,16,16)"/>
<path d="M36 40h1v1h-1v-1z" fill="rgb(24,57,115)"/>
<path d="M42 40h1v3h-1v-3z" fill="rgb(24,57,115)"/>
<path d="M43 40h1v1h-1v-1z" fill="rgb(98,98,98)"/>
<path d="M44 40h1v1h-1v-1z" fill="rgb(16,16,16)"/>
<path d="M45 40h1v1h-1v-1z" fill="rgb(98,98,98)"/>
<path d="M46 40h1v1h-1v-1z" fill="rgb(255,255,255)"/>
<path d="M47 40h1v1h-1v-1z" fill="rgb(24,57,115)"/>
<path d="M51 40h1v1h-1v-1z" fill="rgb(24,57,115)"/>
<path d="M33 41h1v3h-1v-3z" fill="rgb(255,255,255)"/>
<path d="M34 41h1v1h-1v-1z" fill="rgb(98,98,98)"/>
<path d="M35 41h1v1h-1v-1z" fill="rgb(255,255,255)"/>
<path d="M36 41h1v3h-1v1h-1v-1h-1v-2h2v-1z" fill="rgb(16,16,16)"/>
<path d="M43 41h1v2h1v-2h2v3h-1v1h-2v-1h-1v-3z" fill="rgb(16,16,16)"/>
<path d="M44 41h1v1h-1v-1z" fill="rgb(255,255,255)"/>
<path d="M47 41h1v1h-1v-1z" fill="rgb(180,172,189)"/>
<path d="M48 41h1v4h-1v-4z" fill="rgb(24,57,115)"/>
<path d="M52 41h1v2h-1v-2z" fill="rgb(24,57,115)"/>
<path d="M31 42h1v2h-1v-2z" fill="rgb(24,57,115)"/>
<path d="M32 42h1v2h-1v-2z" fill="rgb(57,90,131)"/>
<path d="M44 42h1v1h-1v-1z" fill="rgb(98,98,98)"/>
<path d="M47 42h1v2h-1v-2z" fill="rgb(255,255,255)"/>
<path d="M37 43h1v1h-1v-1z" fill="rgb(57,90,131)"/>
<path d="M38 43h3v1h-3v-1z" fill="rgb(24,57,115)"/>
<path d="M42 43h1v1h-1v-1z" fill="rgb(57,90,131)"/>
<path d="M53 43h1v2h-1v-2z" fill="rgb(24,57,115)"/>
<path d="M30 44h1v3h-1v-3z" fill="rgb(24,57,115)"/>
<path d="M31 44h1v2h3v-1h1v3h-1v1h-1v2h-1v1h-1v-1h-1v-1h-1v-3h1v-3z" fill="rgb(82,131,197)"/>
<path d="M32 44h1v1h-1v-1z" fill="rgb(24,57,115)"/>
<path d="M33 44h1v1h-1v-1z" fill="rgb(180,172,189)"/>
<path d="M34 44h1v1h-1v-1z" fill="rgb(255,255,255)"/>
<path d="M36 44h1v1h-1v-1z" fill="rgb(57,90,131)"/>
<path d="M37 44h1v1h-1v-1z" fill="rgb(24,57,115)"/>
<path d="M38 44h2v1h-1v1h-1v-2z" fill="rgb(255,189,172)"/>
<path d="M40 44h1v2h-2v-1h1v-1z" fill="rgb(255,106,106)"/>
<path d="M41 44h1v1h-1v-1z" fill="rgb(24,57,115)"/>
<path d="M42 44h1v1h-1v-1z" fill="rgb(82,131,197)"/>
<path d="M43 44h1v1h-1v-1z" fill="rgb(24,57,115)"/>
<path d="M46 44h1v1h-1v-1z" fill="rgb(255,255,255)"/>
<path d="M47 44h1v1h-1v-1z" fill="rgb(98,98,98)"/>
<path d="M32 45h1v1h-1v-1z" fill="rgb(57,90,131)"/>
<path d="M33 45h2v1h-2v-1z" fill="rgb(24,57,115)"/>
<path d="M36 45h1v3h-1v-3z" fill="rgb(24,57,115)"/>
<path d="M37 45h1v2h-1v-2z" fill="rgb(255,106,106)"/>
<path d="M41 45h1v3h-1v1h-3v-1h-1v-1h3v-1h1v-1z" fill="rgb(189,90,74)"/>
<path d="M42 45h1v3h-1v-3z" fill="rgb(24,57,115)"/>
<path d="M43 45h1v1h-1v-1z" fill="rgb(57,90,131)"/>
<path d="M44 45h4v1h-4v-1z" fill="rgb(24,57,115)"/>
<path d="M54 45h1v3h-1v-3z" fill="rgb(24,57,115)"/>
<path d="M38 46h2v1h-2v-1z" fill="rgb(16,16,16)"/>
<path d="M68 46h5v1h-5v-1z" fill="rgb(98,98,98)"/>
<path d="M29 47h1v5h-1v-5z" fill="rgb(24,57,115)"/>
<path d="M43 47h1v1h-1v-1z" fill="rgb(255,255,255)"/>
<path d="M44 47h1v1h-1v-1z" fill="rgb(205,205,205)"/>
<path d="M66 47h2v1h-2v-1z" fill="rgb(98,98,98)"/>
<path d="M68 47h1v1h-1v-1z" fill="rgb(205,205,205)"/>
<path d="M69 47h3v1h2v1h1v1h1v2h-1v2h-1v2h-1v1h-2v1h-3v-1h-1v-2h1v-1h1v-1h1v-1h1v-1h-2v1
	h-2v1h-1v1h-2v1h-2v-1h-1v-1h1v-1h1v-1h1v-1h1v-1h2v-1h2v-1z" fill="rgb(255,255,255)"/>
<path d="M72 47h1v1h-1v-1z" fill="rgb(205,205,205)"/>
<path d="M73 47h2v1h-2v-1z" fill="rgb(98,98,98)"/>
<path d="M35 48h1v1h-1v-1z" fill="rgb(180,172,189)"/>
<path d="M36 48h1v1h-1v-1z" fill="rgb(205,205,205)"/>
<path d="M37 48h1v1h-1v-1z" fill="rgb(24,57,115)"/>
<path d="M41 48h1v1h-1v-1z" fill="rgb(24,57,115)"/>
<path d="M42 48h1v1h-1v-1z" fill="rgb(98,98,98)"/>
<path d="M43 48h1v1h-1v-1z" fill="rgb(16,16,16)"/>
<path d="M44 48h1v1h-1v-1z" fill="rgb(180,172,189)"/>
<path d="M45 48h1v1h-1v-1z" fill="rgb(255,255,255)"/>
<path d="M46 48h1v1h-1v-1z" fill="rgb(205,205,205)"/>
<path d="M53 48h1v2h-1v1h-1v1h-2v1h-1v-2h1v-1h2v-1h1v-1z" fill="rgb(57,115,172)"/>
<path d="M54 48h1v7h-1v2h-1v1h-1v1h-2v1h-1v1h-3v1h-6v-1h5v-1h2v-1h1v-2h1v-4h1v-1h2v-1h1
	v-1h1v-2z" fill="rgb(57,90,131)"/>
<path d="M55 48h1v7h-1v-7z" fill="rgb(16,16,16)"/>
<path d="M64 48h2v1h-2v-1z" fill="rgb(98,98,98)"/>
<path d="M66 48h1v1h-1v-1z" fill="rgb(205,205,205)"/>
<path d="M74 48h1v1h-1v-1z" fill="rgb(205,205,205)"/>
<path d="M75 48h1v1h-1v-1z" fill="rgb(16,16,16)"/>
<path d="M34 49h1v1h-1v-1z" fill="rgb(180,172,189)"/>
<path d="M35 49h1v1h-1v-1z" fill="rgb(255,255,255)"/>
<path d="M36 49h2v1h-2v-1z" fill="rgb(16,16,16)"/>
<path d="M38 49h3v1h-3v-1z" fill="rgb(24,57,115)"/>
<path d="M41 49h3v1h-3v-1z" fill="rgb(255,255,255)"/>
<path d="M44 49h2v1h-2v-1z" fill="rgb(16,16,16)"/>
<path d="M46 49h1v1h-1v-1z" fill="rgb(180,172,189)"/>
<path d="M47 49h1v2h-1v-2z" fill="rgb(205,205,205)"/>
<path d="M63 49h1v1h-1v-1z" fill="rgb(98,98,98)"/>
<path d="M64 49h1v1h-1v-1z" fill="rgb(205,205,205)"/>
<path d="M75 49h1v1h-1v-1z" fill="rgb(205,205,205)"/>
<path d="M76 49h1v4h-1v-4z" fill="rgb(16,16,16)"/>
<path d="M30 50h1v1h1v1h1v2h-1v-1h-1v-1h-1v-2z" fill="rgb(57,115,172)"/>
<path d="M34 50h1v1h-1v-1z" fill="rgb(255,255,255)"/>
<path d="M35 50h1v1h-1v-1z" fill="rgb(16,16,16)"/>
<path d="M36 50h1v1h-1v-1z" fill="rgb(180,172,189)"/>
<path d="M37 50h1v1h-1v-1z" fill="rgb(255,255,255)"/>
<path d="M38 50h1v1h-1v-1z" fill="rgb(98,98,98)"/>
<path d="M39 50h3v1h-3v-1z" fill="rgb(16,16,16)"/>
<path d="M42 50h1v1h-1v-1z" fill="rgb(98,98,98)"/>
<path d="M43 50h1v1h-1v-1z" fill="rgb(180,172,189)"/>
<path d="M44 50h1v1h-1v-1z" fill="rgb(255,255,255)"/>
<path d="M45 50h1v1h-1v-1z" fill="rgb(180,172,189)"/>
<path d="M46 50h1v1h-1v-1z" fill="rgb(16,16,16)"/>
<path d="M62 50h1v1h-1v-1z" fill="rgb(98,98,98)"/>
<path d="M63 50h1v1h-1v-1z" fill="rgb(205,205,205)"/>
<path d="M33 51h2v1h-2v-1z" fill="rgb(180,172,189)"/>
<path d="M35 51h1v1h-1v-1z" fill="rgb(98,98,98)"/>
<path d="M36 51h1v1h-1v-1z" fill="rgb(255,255,255)"/>
<path d="M37 51h1v1h-1v-1z" fill="rgb(98,98,98)"/>
<path d="M38 51h5v1h1v2h-1v-1h-1v-1h-3v1h-1v1h-1v-2h1v-1z" fill="rgb(255,255,255)"/>
<path d="M43 51h1v1h-1v-1z" fill="rgb(16,16,16)"/>
<path d="M44 51h1v1h-1v-1z" fill="rgb(180,172,189)"/>
<path d="M45 51h1v2h-1v-2z" fill="rgb(255,255,255)"/>
<path d="M46 51h1v1h-1v-1z" fill="rgb(98,98,98)"/>
<path d="M47 51h1v1h-1v-1z" fill="rgb(180,172,189)"/>
<path d="M48 51h1v5h-1v-5z" fill="rgb(205,205,205)"/>
<path d="M61 51h1v2h-1v-2z" fill="rgb(98,98,98)"/>
<path d="M62 51h1v1h-1v-1z" fill="rgb(205,205,205)"/>
<path d="M69 51h2v1h-2v-1z" fill="rgb(57,90,131)"/>
<path d="M29 52h1v2h-1v-2z" fill="rgb(16,16,16)"/>
<path d="M30 52h1v1h1v1h1v3h1v1h1v1h1v1h-2v-1h-1v-1h-1v-2h-1v-2h-1v-2z" fill="rgb(57,90,131)"/>
<path d="M33 52h1v5h-1v-5z" fill="rgb(205,205,205)"/>
<path d="M34 52h1v1h-1v-1z" fill="rgb(98,98,98)"/>
<path d="M35 52h1v1h-1v-1z" fill="rgb(255,255,255)"/>
<path d="M36 52h1v1h-1v-1z" fill="rgb(98,98,98)"/>
<path d="M39 52h1v1h-1v-1z" fill="rgb(98,98,98)"/>
<path d="M40 52h1v1h-1v-1z" fill="rgb(16,16,16)"/>
<path d="M41 52h1v1h-1v-1z" fill="rgb(98,98,98)"/>
<path d="M44 52h1v4h-1v-4z" fill="rgb(16,16,16)"/>
<path d="M46 52h1v1h-1v-1z" fill="rgb(180,172,189)"/>
<path d="M47 52h1v4h-1v-4z" fill="rgb(16,16,16)"/>
<path d="M67 52h1v1h-1v-1z" fill="rgb(205,205,205)"/>
<path d="M68 52h1v1h-1v-1z" fill="rgb(57,90,131)"/>
<path d="M69 52h1v1h-1v-1z" fill="rgb(24,57,115)"/>
<path d="M75 52h1v1h-1v-1z" fill="rgb(205,205,205)"/>
<path d="M34 53h1v3h-1v-3z" fill="rgb(16,16,16)"/>
<path d="M35 53h1v4h-1v-4z" fill="rgb(205,205,205)"/>
<path d="M36 53h1v3h-1v-3z" fill="rgb(16,16,16)"/>
<path d="M38 53h1v3h-1v-3z" fill="rgb(16,16,16)"/>
<path d="M39 53h1v1h-1v-1z" fill="rgb(180,172,189)"/>
<path d="M40 53h1v1h-1v-1z" fill="rgb(205,205,205)"/>
<path d="M41 53h1v1h-1v-1z" fill="rgb(180,172,189)"/>
<path d="M42 53h1v1h-1v-1z" fill="rgb(98,98,98)"/>
<path d="M45 53h2v3h-1v2h-2v-1h1v-4z" fill="rgb(205,205,205)"/>
<path d="M60 53h1v1h-1v-1z" fill="rgb(98,98,98)"/>
<path d="M66 53h2v1h-1v1h-2v1h-2v1h-2v-1h1v-1h2v-1h2v-1z" fill="rgb(57,90,131)"/>
<path d="M68 53h1v1h-1v-1z" fill="rgb(24,57,115)"/>
<path d="M75 53h1v2h-1v-2z" fill="rgb(16,16,16)"/>
<path d="M30 54h1v2h-1v-2z" fill="rgb(16,16,16)"/>
<path d="M37 54h1v2h1v2h-1v-1h-1v-3z" fill="rgb(205,205,205)"/>
<path d="M39 54h1v1h1v1h1v-1h1v-1h1v2h-1v1h-3v-1h-1v-2z" fill="rgb(205,205,205)"/>
<path d="M40 54h1v1h-1v-1z" fill="rgb(16,16,16)"/>
<path d="M41 54h1v1h-1v-1z" fill="rgb(205,205,205)"/>
<path d="M42 54h1v1h-1v-1z" fill="rgb(16,16,16)"/>
<path d="M59 54h1v1h-1v-1z" fill="rgb(98,98,98)"/>
<path d="M60 54h2v2h-3v-1h1v-1z" fill="rgb(205,205,205)"/>
<path d="M67 54h1v1h-1v-1z" fill="rgb(24,57,115)"/>
<path d="M74 54h1v1h-1v-1z" fill="rgb(205,205,205)"/>
<path d="M41 55h1v1h-1v-1z" fill="rgb(98,98,98)"/>
<path d="M54 55h1v2h2v1h-4v-1h1v-2z" fill="rgb(16,16,16)"/>
<path d="M58 55h1v1h-1v-1z" fill="rgb(98,98,98)"/>
<path d="M65 55h2v1h-2v-1z" fill="rgb(24,57,115)"/>
<path d="M74 55h1v1h-1v-1z" fill="rgb(16,16,16)"/>
<path d="M31 56h1v2h-1v-2z" fill="rgb(16,16,16)"/>
<path d="M34 56h1v1h-1v-1z" fill="rgb(98,98,98)"/>
<path d="M36 56h1v1h-1v-1z" fill="rgb(98,98,98)"/>
<path d="M39 56h1v1h-1v-1z" fill="rgb(16,16,16)"/>
<path d="M43 56h1v1h-1v-1z" fill="rgb(16,16,16)"/>
<path d="M44 56h1v1h-1v-1z" fill="rgb(180,172,189)"/>
<path d="M46 56h1v1h-1v-1z" fill="rgb(98,98,98)"/>
<path d="M47 56h1v2h-1v-2z" fill="rgb(205,205,205)"/>
<path d="M48 56h1v1h-1v-1z" fill="rgb(180,172,189)"/>
<path d="M57 56h1v1h-1v-1z" fill="rgb(98,98,98)"/>
<path d="M58 56h1v1h-1v-1z" fill="rgb(180,172,189)"/>
<path d="M59 56h2v1h-2v-1z" fill="rgb(24,57,115)"/>
<path d="M63 56h2v1h-2v-1z" fill="rgb(24,57,115)"/>
<path d="M65 56h2v1h1v1h1v1h-6v-2h2v-1z" fill="rgb(205,205,205)"/>
<path d="M73 56h1v1h-1v-1z" fill="rgb(16,16,16)"/>
<path d="M34 57h1v1h-1v-1z" fill="rgb(205,205,205)"/>
<path d="M35 57h1v1h-1v-1z" fill="rgb(98,98,98)"/>
<path d="M36 57h1v2h1v1h-2v-1h-1v-1h1v-1z" fill="rgb(205,205,205)"/>
<path d="M37 57h1v1h-1v-1z" fill="rgb(16,16,16)"/>
<path d="M39 57h1v1h-1v-1z" fill="rgb(180,172,189)"/>
<path d="M40 57h3v1h-3v-1z" fill="rgb(16,16,16)"/>
<path d="M43 57h1v1h-1v-1z" fill="rgb(180,172,189)"/>
<path d="M46 57h1v1h-1v-1z" fill="rgb(16,16,16)"/>
<path d="M57 57h2v1h2v1h-6v1h-3v-1h1v-1h4v-1z" fill="rgb(24,57,115)"/>
<path d="M59 57h2v1h-2v-1z" fill="rgb(57,90,131)"/>
<path d="M61 57h2v1h-2v-1z" fill="rgb(24,57,115)"/>
<path d="M71 57h1v1h-1v-1z" fill="rgb(205,205,205)"/>
<path d="M72 57h1v1h-1v-1z" fill="rgb(16,16,16)"/>
<path d="M32 58h1v1h-1v-1z" fill="rgb(16,16,16)"/>
<path d="M37 58h1v1h-1v-1z" fill="rgb(180,172,189)"/>
<path d="M38 58h1v1h-1v-1z" fill="rgb(98,98,98)"/>
<path d="M39 58h5v1h-5v-1z" fill="rgb(205,205,205)"/>
<path d="M44 58h1v1h-1v-1z" fill="rgb(98,98,98)"/>
<path d="M45 58h1v1h-1v-1z" fill="rgb(16,16,16)"/>
<path d="M46 58h1v1h-1v-1z" fill="rgb(205,205,205)"/>
<path d="M47 58h1v1h-1v-1z" fill="rgb(180,172,189)"/>
<path d="M52 58h1v1h-1v-1z" fill="rgb(16,16,16)"/>
<path d="M61 58h2v1h2v1h-7v-1h3v-1z" fill="rgb(180,172,189)"/>
<path d="M69 58h3v1h-3v-1z" fill="rgb(16,16,16)"/>
<path d="M33 59h1v1h-1v-1z" fill="rgb(16,16,16)"/>
<path d="M38 59h1v1h-1v-1z" fill="rgb(180,172,189)"/>
<path d="M39 59h1v1h-1v-1z" fill="rgb(98,98,98)"/>
<path d="M40 59h3v1h-3v-1z" fill="rgb(16,16,16)"/>
<path d="M43 59h1v1h-1v-1z" fill="rgb(98,98,98)"/>
<path d="M44 59h1v1h-1v-1z" fill="rgb(180,172,189)"/>
<path d="M45 59h1v1h-1v-1z" fill="rgb(205,205,205)"/>
<path d="M46 59h1v1h-1v-1z" fill="rgb(180,172,189)"/>
<path d="M50 59h1v1h-1v-1z" fill="rgb(24,57,115)"/>
<path d="M51 59h1v1h3v1h-4v1h-1v-1h-1v-1h2v-1z" fill="rgb(16,16,16)"/>
<path d="M55 59h3v1h-3v-1z" fill="rgb(16,16,16)"/>
<path d="M65 59h4v1h-4v-1z" fill="rgb(16,16,16)"/>
<path d="M34 60h2v1h4v1h-1v2h-1v-2h-3v-1h-1v-1z" fill="rgb(16,16,16)"/>
<path d="M36 60h2v1h-2v-1z" fill="rgb(57,90,131)"/>
<path d="M38 60h7v1h-7v-1z" fill="rgb(205,205,205)"/>
<path d="M58 60h7v1h-7v-1z" fill="rgb(16,16,16)"/>
<path d="M46 61h2v4h-1v-3h-1v-1z" fill="rgb(16,16,16)"/>
<path d="M48 61h1v1h-1v-1z" fill="rgb(24,57,115)"/>
<path d="M49 61h1v1h1v1h1v1h-2v1h-2v-3h1v-1z" fill="rgb(57,90,131)"/>
<path d="M34 62h1v1h-1v-1z" fill="rgb(16,16,16)"/>
<path d="M35 62h3v2h-1v2h-1v1h-3v-2h1v1h1v-1h1v-2h-1v-1z" fill="rgb(57,90,131)"/>
<path d="M40 62h6v1h-6v-1z" fill="rgb(16,16,16)"/>
<path d="M51 62h1v1h-1v-1z" fill="rgb(16,16,16)"/>
<path d="M33 63h1v1h-1v-1z" fill="rgb(16,16,16)"/>
<path d="M34 63h2v2h-1v1h-1v-1h-1v-1h1v-1z" fill="rgb(82,131,197)"/>
<path d="M52 63h1v2h-1v-2z" fill="rgb(16,16,16)"/>
<path d="M32 64h1v3h-1v-3z" fill="rgb(16,16,16)"/>
<path d="M37 64h1v2h-1v-2z" fill="rgb(16,16,16)"/>
<path d="M50 64h2v2h-2v-2z" fill="rgb(82,131,197)"/>
<path d="M48 65h1v2h-1v-2z" fill="rgb(16,16,16)"/>
<path d="M49 65h1v1h-1v-1z" fill="rgb(57,115,172)"/>
<path d="M52 65h1v3h-3v-1h2v-2z" fill="rgb(57,90,131)"/>
<path d="M53 65h1v3h-1v-3z" fill="rgb(16,16,16)"/>
<path d="M36 66h1v1h-1v-1z" fill="rgb(16,16,16)"/>
<path d="M49 66h1v1h-1v-1z" fill="rgb(57,90,131)"/>
<path d="M50 66h2v1h-2v-1z" fill="rgb(57,115,172)"/>
<path d="M33 67h3v1h-3v-1z" fill="rgb(16,16,16)"/>
<path d="M49 67h1v1h-1v-1z" fill="rgb(16,16,16)"/>
<path d="M50 68h3v1h-3v-1z" fill="rgb(16,16,16)"/>
</svg>
