<?xml version="1.0" encoding="utf-8"?>
<!-- generated at drububu.com  -->
<!DOCTYPE svg PUBLIC "-//W3C//DTD SVG 1.1//EN" "http://www.w3.org/Graphics/SVG/1.1/DTD/svg11.dtd">
<svg version="1.1" preserveAspectRatio="xMinYMin meet" xmlns="http://www.w3.org/2000/svg" xmlns:xlink="http://www.w3.org/1999/xlink" x="0px" y="0px" width="96px" height="96px" viewBox="0 0 96 96">
<path d="M0 0h96v96h-96v-96z" fill="transparent"/>
<path d="M37 26h3v1h-3v-1z" fill="rgb(57,90,131)"/>
<path d="M54 26h2v1h-2v-1z" fill="rgb(57,90,131)"/>
<path d="M56 26h2v1h-2v-1z" fill="rgb(24,57,115)"/>
<path d="M35 27h2v1h-2v-1z" fill="rgb(57,90,131)"/>
<path d="M37 27h3v2h-4v-1h1v-1z" fill="rgb(82,131,197)"/>
<path d="M40 27h2v1h-2v-1z" fill="rgb(24,57,115)"/>
<path d="M52 27h2v1h-2v-1z" fill="rgb(57,90,131)"/>
<path d="M54 27h2v1h3v1h-5v-2z" fill="rgb(82,131,197)"/>
<path d="M56 27h1v1h-1v-1z" fill="rgb(57,115,172)"/>
<path d="M57 27h1v1h-1v-1z" fill="rgb(57,90,131)"/>
<path d="M58 27h2v1h-2v-1z" fill="rgb(24,57,115)"/>
<path d="M34 28h1v1h-1v-1z" fill="rgb(57,90,131)"/>
<path d="M35 28h1v2h-1v1h-1v-2h1v-1z" fill="rgb(139,164,230)"/>
<path d="M40 28h1v1h-1v-1z" fill="rgb(57,115,172)"/>
<path d="M41 28h1v1h1v2h-1v-1h-1v-2z" fill="rgb(57,90,131)"/>
<path d="M42 28h1v1h-1v-1z" fill="rgb(24,57,115)"/>
<path d="M51 28h1v1h-1v-1z" fill="rgb(57,90,131)"/>
<path d="M52 28h2v2h-1v1h-2v-2h1v-1z" fill="rgb(139,164,230)"/>
<path d="M59 28h1v1h-1v-1z" fill="rgb(57,115,172)"/>
<path d="M60 28h1v1h-1v-1z" fill="rgb(24,57,115)"/>
<path d="M33 29h1v2h-1v-2z" fill="rgb(57,90,131)"/>
<path d="M36 29h1v1h-1v-1z" fill="rgb(213,213,222)"/>
<path d="M37 29h1v1h-1v-1z" fill="rgb(255,255,255)"/>
<path d="M38 29h1v1h-1v-1z" fill="rgb(213,213,222)"/>
<path d="M39 29h1v1h-1v-1z" fill="rgb(57,115,172)"/>
<path d="M40 29h1v1h-1v-1z" fill="rgb(82,131,197)"/>
<path d="M43 29h8v2h-1v-1h-6v1h-1v-2z" fill="rgb(24,57,115)"/>
<path d="M54 29h1v1h-1v-1z" fill="rgb(57,115,172)"/>
<path d="M55 29h1v1h-1v-1z" fill="rgb(213,213,222)"/>
<path d="M56 29h1v1h-1v-1z" fill="rgb(255,255,255)"/>
<path d="M57 29h1v1h-1v-1z" fill="rgb(213,213,222)"/>
<path d="M58 29h1v1h-1v-1z" fill="rgb(57,115,172)"/>
<path d="M59 29h1v1h-1v-1z" fill="rgb(82,131,197)"/>
<path d="M60 29h1v2h1v3h-1v1h-1v1h-2v-1h1v-1h1v-5z" fill="rgb(57,90,131)"/>
<path d="M61 29h1v2h-1v-2z" fill="rgb(24,57,115)"/>
<path d="M35 30h1v1h-1v-1z" fill="rgb(255,255,255)"/>
<path d="M36 30h1v1h-1v-1z" fill="rgb(82,82,82)"/>
<path d="M37 30h1v1h-1v-1z" fill="rgb(16,16,16)"/>
<path d="M38 30h1v1h-1v-1z" fill="rgb(82,82,82)"/>
<path d="M39 30h1v1h-1v-1z" fill="rgb(255,255,255)"/>
<path d="M40 30h1v1h-1v-1z" fill="rgb(57,115,172)"/>
<path d="M41 30h1v1h3v-1h4v1h4v3h1v1h1v1h1v1h3v-1h2v-1h1v-1h1v1h1v2h1v1h-1v1h2v1h2v1h1v3
	h-1v1h-2v-1h-1v-1h-2v-1h-1v1h1v3h-1v2h-1v-1h-1v-3h-1v-2h-1v-1h-1v-1h-1v-1h-2
	v-1h-3v-1h-8v1h-3v1h-2v1h-1v1h-1v2h-1v3h-1v4h-1v-1h-1v-2h-1v-4h-1v1h-2v-3h1v-1h1
	v-1h1v-1h2v-2h1v-1h1v1h5v-1h1v-5z" fill="rgb(82,131,197)"/>
<path d="M44 30h1v1h-1v-1z" fill="rgb(57,115,172)"/>
<path d="M49 30h1v1h-1v-1z" fill="rgb(57,115,172)"/>
<path d="M53 30h1v1h-1v-1z" fill="rgb(57,115,172)"/>
<path d="M54 30h1v1h-1v-1z" fill="rgb(255,255,255)"/>
<path d="M55 30h1v1h-1v-1z" fill="rgb(82,82,82)"/>
<path d="M56 30h1v1h-1v-1z" fill="rgb(16,16,16)"/>
<path d="M57 30h1v1h-1v-1z" fill="rgb(82,82,82)"/>
<path d="M58 30h1v1h-1v-1z" fill="rgb(255,255,255)"/>
<path d="M59 30h1v1h-1v-1z" fill="rgb(57,115,172)"/>
<path d="M32 31h1v2h-1v-2z" fill="rgb(57,90,131)"/>
<path d="M33 31h1v4h-1v-4z" fill="rgb(82,131,197)"/>
<path d="M34 31h1v1h-1v-1z" fill="rgb(213,213,222)"/>
<path d="M35 31h1v1h-1v-1z" fill="rgb(82,82,82)"/>
<path d="M36 31h2v2h-2v-2z" fill="rgb(255,255,255)"/>
<path d="M38 31h1v1h1v1h-1v1h-1v1h-1v-1h-1v-1h2v-2z" fill="rgb(16,16,16)"/>
<path d="M39 31h1v1h-1v-1z" fill="rgb(82,82,82)"/>
<path d="M40 31h1v1h-1v-1z" fill="rgb(213,213,222)"/>
<path d="M53 31h1v1h-1v-1z" fill="rgb(213,213,222)"/>
<path d="M54 31h1v1h-1v-1z" fill="rgb(82,82,82)"/>
<path d="M55 31h2v2h-2v-2z" fill="rgb(255,255,255)"/>
<path d="M57 31h1v1h1v1h-1v1h-1v1h-1v-1h-1v-1h2v-2z" fill="rgb(16,16,16)"/>
<path d="M58 31h1v1h-1v-1z" fill="rgb(82,82,82)"/>
<path d="M59 31h1v1h-1v-1z" fill="rgb(213,213,222)"/>
<path d="M62 31h1v3h-1v-3z" fill="rgb(24,57,115)"/>
<path d="M34 32h1v1h-1v-1z" fill="rgb(255,255,255)"/>
<path d="M35 32h1v1h-1v-1z" fill="rgb(16,16,16)"/>
<path d="M40 32h1v1h-1v-1z" fill="rgb(255,255,255)"/>
<path d="M44 32h3v1h1v2h-1v1h-1v-1h-1v-1h-1v1h-1v-2h1v-1z" fill="rgb(139,164,230)"/>
<path d="M53 32h1v1h-1v-1z" fill="rgb(255,255,255)"/>
<path d="M54 32h1v1h-1v-1z" fill="rgb(16,16,16)"/>
<path d="M59 32h1v1h-1v-1z" fill="rgb(255,255,255)"/>
<path d="M32 33h1v2h-1v-2z" fill="rgb(24,57,115)"/>
<path d="M34 33h1v1h-1v-1z" fill="rgb(213,213,222)"/>
<path d="M35 33h1v1h-1v-1z" fill="rgb(82,82,82)"/>
<path d="M39 33h1v1h-1v-1z" fill="rgb(82,82,82)"/>
<path d="M40 33h1v1h-1v-1z" fill="rgb(213,213,222)"/>
<path d="M53 33h1v1h-1v-1z" fill="rgb(213,213,222)"/>
<path d="M54 33h1v1h-1v-1z" fill="rgb(82,82,82)"/>
<path d="M58 33h1v1h-1v-1z" fill="rgb(82,82,82)"/>
<path d="M59 33h1v1h-1v-1z" fill="rgb(213,213,222)"/>
<path d="M34 34h1v1h-1v-1z" fill="rgb(57,115,172)"/>
<path d="M35 34h1v1h-1v-1z" fill="rgb(255,255,255)"/>
<path d="M36 34h1v1h-1v-1z" fill="rgb(82,82,82)"/>
<path d="M38 34h1v1h-1v-1z" fill="rgb(82,82,82)"/>
<path d="M39 34h1v1h-1v-1z" fill="rgb(255,255,255)"/>
<path d="M40 34h1v1h-1v-1z" fill="rgb(57,115,172)"/>
<path d="M44 34h1v1h-1v-1z" fill="rgb(24,57,115)"/>
<path d="M48 34h1v1h-1v-1z" fill="rgb(24,57,115)"/>
<path d="M54 34h1v1h-1v-1z" fill="rgb(255,255,255)"/>
<path d="M55 34h1v1h-1v-1z" fill="rgb(82,82,82)"/>
<path d="M57 34h1v1h-1v-1z" fill="rgb(82,82,82)"/>
<path d="M58 34h1v1h-1v-1z" fill="rgb(255,255,255)"/>
<path d="M61 34h1v1h-1v-1z" fill="rgb(57,115,172)"/>
<path d="M63 34h1v1h-1v-1z" fill="rgb(16,16,16)"/>
<path d="M33 35h1v1h-1v-1z" fill="rgb(24,57,115)"/>
<path d="M35 35h1v1h-1v-1z" fill="rgb(57,115,172)"/>
<path d="M36 35h1v1h-1v-1z" fill="rgb(213,213,222)"/>
<path d="M37 35h2v1h-2v-1z" fill="rgb(255,255,255)"/>
<path d="M39 35h1v1h-1v-1z" fill="rgb(57,115,172)"/>
<path d="M44 35h1v1h-1v-1z" fill="rgb(139,164,230)"/>
<path d="M45 35h1v1h-1v-1z" fill="rgb(57,90,131)"/>
<path d="M47 35h1v1h-1v-1z" fill="rgb(57,90,131)"/>
<path d="M55 35h1v1h-1v-1z" fill="rgb(213,213,222)"/>
<path d="M56 35h1v1h-1v-1z" fill="rgb(255,255,255)"/>
<path d="M57 35h1v1h-1v-1z" fill="rgb(213,213,222)"/>
<path d="M60 35h1v1h-1v-1z" fill="rgb(57,115,172)"/>
<path d="M64 35h1v2h-1v-2z" fill="rgb(16,16,16)"/>
<path d="M32 36h1v2h-1v-2z" fill="rgb(57,90,131)"/>
<path d="M56 36h1v1h-1v-1z" fill="rgb(57,115,172)"/>
<path d="M57 36h1v1h-1v-1z" fill="rgb(57,90,131)"/>
<path d="M58 36h1v1h-1v-1z" fill="rgb(57,115,172)"/>
<path d="M31 37h1v1h-1v-1z" fill="rgb(24,57,115)"/>
<path d="M43 37h8v1h2v1h2v1h1v1h1v1h-2v-1h-1v-1h-2v-1h-10v1h-2v1h-1v1h-1v1h-1v1h-1v-2h1
	v-1h1v-1h1v-1h2v-1h2v-1z" fill="rgb(255,255,255)"/>
<path d="M65 37h1v1h-1v-1z" fill="rgb(16,16,16)"/>
<path d="M30 38h1v1h-1v-1z" fill="rgb(24,57,115)"/>
<path d="M40 38h1v1h-1v-1z" fill="rgb(213,213,222)"/>
<path d="M53 38h1v1h-1v-1z" fill="rgb(213,213,222)"/>
<path d="M64 38h2v1h-2v-1z" fill="rgb(24,57,115)"/>
<path d="M29 39h1v1h-1v-1z" fill="rgb(24,57,115)"/>
<path d="M38 39h1v1h-1v-1z" fill="rgb(213,213,222)"/>
<path d="M42 39h1v1h-1v-1z" fill="rgb(189,189,189)"/>
<path d="M43 39h8v1h2v1h2v1h1v1h-1v1h-1v-1h-1v-1h-2v-1h-8v1h-2v1h-1v1h-1v2h-2v-2h1v-2h1
	v-1h2v-1h2v-1z" fill="rgb(82,82,82)"/>
<path d="M51 39h1v1h-1v-1z" fill="rgb(189,189,189)"/>
<path d="M55 39h1v1h-1v-1z" fill="rgb(213,213,222)"/>
<path d="M66 39h2v1h-2v-1z" fill="rgb(24,57,115)"/>
<path d="M26 40h2v1h-2v-1z" fill="rgb(82,82,82)"/>
<path d="M28 40h1v1h-1v-1z" fill="rgb(24,57,115)"/>
<path d="M37 40h1v1h-1v-1z" fill="rgb(213,213,222)"/>
<path d="M40 40h1v1h-1v-1z" fill="rgb(189,189,189)"/>
<path d="M53 40h1v1h-1v-1z" fill="rgb(189,189,189)"/>
<path d="M56 40h1v1h-1v-1z" fill="rgb(213,213,222)"/>
<path d="M68 40h1v1h-1v-1z" fill="rgb(24,57,115)"/>
<path d="M25 41h1v1h-1v-1z" fill="rgb(82,82,82)"/>
<path d="M26 41h1v3h1v1h2v2h-1v1h-1v1h-1v2h-2v1h-3v-1h-1v-4h1v-2h1v-1h1v1h1v-3h1v-1z" fill="rgb(255,255,255)"/>
<path d="M27 41h1v1h-1v-1z" fill="rgb(24,57,115)"/>
<path d="M31 41h1v2h-1v-2z" fill="rgb(24,57,115)"/>
<path d="M36 41h1v1h-1v-1z" fill="rgb(213,213,222)"/>
<path d="M43 41h1v1h-1v-1z" fill="rgb(213,213,222)"/>
<path d="M44 41h6v1h2v1h2v2h-2v-1h-1v-1h-8v1h-1v1h-1v1h-1v6h-1v-2h-1v-3h1v-2h1v-2h2v-1h2
	v-1z" fill="rgb(255,255,255)"/>
<path d="M50 41h1v1h-1v-1z" fill="rgb(213,213,222)"/>
<path d="M57 41h1v1h-1v-1z" fill="rgb(213,213,222)"/>
<path d="M69 41h1v3h-1v-3z" fill="rgb(24,57,115)"/>
<path d="M70 41h1v1h-1v-1z" fill="rgb(16,16,16)"/>
<path d="M24 42h1v2h-1v-2z" fill="rgb(16,16,16)"/>
<path d="M27 42h1v2h-1v-2z" fill="rgb(57,90,131)"/>
<path d="M41 42h1v1h-1v-1z" fill="rgb(213,213,222)"/>
<path d="M52 42h1v1h-1v-1z" fill="rgb(213,213,222)"/>
<path d="M56 42h1v1h-1v-1z" fill="rgb(213,213,222)"/>
<path d="M57 42h1v1h-1v-1z" fill="rgb(255,255,255)"/>
<path d="M58 42h1v1h-1v-1z" fill="rgb(213,213,222)"/>
<path d="M62 42h1v1h-1v-1z" fill="rgb(57,115,172)"/>
<path d="M70 42h1v1h-1v-1z" fill="rgb(189,189,189)"/>
<path d="M71 42h1v1h-1v-1z" fill="rgb(16,16,16)"/>
<path d="M23 43h1v1h-1v-1z" fill="rgb(82,82,82)"/>
<path d="M30 43h1v8h-1v-8z" fill="rgb(24,57,115)"/>
<path d="M35 43h1v1h-1v-1z" fill="rgb(213,213,222)"/>
<path d="M37 43h1v1h-1v-1z" fill="rgb(189,189,189)"/>
<path d="M43 43h1v1h-1v-1z" fill="rgb(213,213,222)"/>
<path d="M44 43h6v1h2v1h-1v1h-1v-1h-6v1h-1v1h-1v1h-2v-1h1v-2h1v-1h2v-1z" fill="rgb(82,82,82)"/>
<path d="M50 43h1v1h-1v-1z" fill="rgb(213,213,222)"/>
<path d="M55 43h1v1h-1v-1z" fill="rgb(16,16,16)"/>
<path d="M56 43h1v1h-1v-1z" fill="rgb(82,82,82)"/>
<path d="M57 43h1v1h-1v-1z" fill="rgb(189,189,189)"/>
<path d="M58 43h1v2h-1v-2z" fill="rgb(255,255,255)"/>
<path d="M63 43h2v1h-2v-1z" fill="rgb(24,57,115)"/>
<path d="M70 43h1v1h-1v-1z" fill="rgb(213,213,222)"/>
<path d="M71 43h1v1h-1v-1z" fill="rgb(189,189,189)"/>
<path d="M72 43h1v3h-1v-3z" fill="rgb(82,82,82)"/>
<path d="M22 44h1v1h-1v-1z" fill="rgb(82,82,82)"/>
<path d="M24 44h1v1h-1v-1z" fill="rgb(164,164,164)"/>
<path d="M28 44h2v1h-2v-1z" fill="rgb(57,90,131)"/>
<path d="M35 44h1v8h-1v-8z" fill="rgb(255,255,255)"/>
<path d="M36 44h1v1h-1v-1z" fill="rgb(213,213,222)"/>
<path d="M39 44h1v1h-1v-1z" fill="rgb(213,213,222)"/>
<path d="M54 44h1v1h-1v-1z" fill="rgb(213,213,222)"/>
<path d="M55 44h1v1h-1v-1z" fill="rgb(82,82,82)"/>
<path d="M56 44h1v1h1v2h1v5h-1v2h-1v1h-1v-2h1v-7h-1v-2z" fill="rgb(16,16,16)"/>
<path d="M57 44h1v1h-1v-1z" fill="rgb(82,82,82)"/>
<path d="M59 44h1v1h-1v-1z" fill="rgb(213,213,222)"/>
<path d="M63 44h2v2h-1v1h1v2h-1v1h-1v3h1v2h-1v1h-1v1h-1v1h-1v1h-1v4h1v1h1v1h-3v1h-1v4h-1
	v-1h-1v-3h1v-1h1v-3h-1v-1h-3v-1h2v-1h2v-1h1v-1h1v-1h1v-3h1v-4h1v-2h1v-3z" fill="rgb(57,90,131)"/>
<path d="M65 44h1v1h-1v-1z" fill="rgb(24,57,115)"/>
<path d="M68 44h1v1h-1v-1z" fill="rgb(24,57,115)"/>
<path d="M69 44h2v1h1v1h-1v1h1v1h1v5h-1v1h-3v-2h-1v-2h-1v2h1v3h-3v-2h-1v-3h1v-1h4v-1h-3
	v-1h-1v-1h3v-1h1v-1z" fill="rgb(255,255,255)"/>
<path d="M71 44h1v1h-1v-1z" fill="rgb(213,213,222)"/>
<path d="M73 44h1v1h-1v-1z" fill="rgb(16,16,16)"/>
<path d="M21 45h1v2h-1v-2z" fill="rgb(82,82,82)"/>
<path d="M25 45h1v1h-1v-1z" fill="rgb(189,189,189)"/>
<path d="M36 45h1v1h-1v-1z" fill="rgb(164,164,164)"/>
<path d="M44 45h5v1h-4v1h-1v-2z" fill="rgb(255,255,255)"/>
<path d="M49 45h1v1h-1v-1z" fill="rgb(213,213,222)"/>
<path d="M51 45h1v1h-1v-1z" fill="rgb(16,16,16)"/>
<path d="M52 45h1v1h-1v-1z" fill="rgb(82,82,82)"/>
<path d="M53 45h1v1h-1v-1z" fill="rgb(213,213,222)"/>
<path d="M54 45h2v2h1v4h-1v1h-2v-7z" fill="rgb(255,255,255)"/>
<path d="M58 45h1v1h-1v-1z" fill="rgb(164,164,164)"/>
<path d="M59 45h1v6h-1v-6z" fill="rgb(255,255,255)"/>
<path d="M65 45h1v1h-1v-1z" fill="rgb(16,16,16)"/>
<path d="M66 45h2v1h-2v-1z" fill="rgb(24,57,115)"/>
<path d="M73 45h1v1h2v1h1v2h1v4h-1v2h-1v1h-2v1h-5v-1h-1v-1h4v-1h1v-1h1v-5h-1v-1h-1v-1h1
	v-1z" fill="rgb(189,189,189)"/>
<path d="M74 45h2v1h-2v-1z" fill="rgb(16,16,16)"/>
<path d="M26 46h1v1h-1v-1z" fill="rgb(189,189,189)"/>
<path d="M34 46h1v6h-1v-6z" fill="rgb(213,213,222)"/>
<path d="M36 46h1v1h-1v-1z" fill="rgb(82,82,82)"/>
<path d="M37 46h1v6h1v2h-1v-1h-1v-2h-1v-4h1v-1z" fill="rgb(16,16,16)"/>
<path d="M38 46h1v1h-1v-1z" fill="rgb(213,213,222)"/>
<path d="M40 46h1v1h-1v-1z" fill="rgb(213,213,222)"/>
<path d="M43 46h1v1h-1v-1z" fill="rgb(213,213,222)"/>
<path d="M45 46h3v1h-3v-1z" fill="rgb(82,82,82)"/>
<path d="M48 46h1v1h-1v-1z" fill="rgb(213,213,222)"/>
<path d="M49 46h1v1h-1v-1z" fill="rgb(255,255,255)"/>
<path d="M50 46h1v1h-1v-1z" fill="rgb(213,213,222)"/>
<path d="M51 46h1v1h-1v-1z" fill="rgb(82,82,82)"/>
<path d="M52 46h1v2h1v4h-1v2h-1v-8z" fill="rgb(16,16,16)"/>
<path d="M53 46h1v1h-1v-1z" fill="rgb(164,164,164)"/>
<path d="M56 46h1v1h-1v-1z" fill="rgb(82,82,82)"/>
<path d="M58 46h1v1h-1v-1z" fill="rgb(82,82,82)"/>
<path d="M62 46h1v1h-1v-1z" fill="rgb(57,115,172)"/>
<path d="M64 46h1v1h-1v-1z" fill="rgb(82,82,82)"/>
<path d="M71 46h1v1h-1v-1z" fill="rgb(164,164,164)"/>
<path d="M76 46h1v1h-1v-1z" fill="rgb(16,16,16)"/>
<path d="M20 47h1v4h-1v-4z" fill="rgb(82,82,82)"/>
<path d="M29 47h1v1h-1v-1z" fill="rgb(82,82,82)"/>
<path d="M31 47h1v1h-1v-1z" fill="rgb(57,115,172)"/>
<path d="M42 47h1v1h-1v-1z" fill="rgb(213,213,222)"/>
<path d="M43 47h1v1h-1v-1z" fill="rgb(255,255,255)"/>
<path d="M44 47h1v1h-1v-1z" fill="rgb(82,82,82)"/>
<path d="M45 47h3v1h-3v-1z" fill="rgb(16,16,16)"/>
<path d="M48 47h1v1h-1v-1z" fill="rgb(82,82,82)"/>
<path d="M49 47h1v1h-1v-1z" fill="rgb(213,213,222)"/>
<path d="M50 47h1v1h1v4h-1v1h-1v1h-1v-2h1v-5z" fill="rgb(255,255,255)"/>
<path d="M51 47h1v1h-1v-1z" fill="rgb(213,213,222)"/>
<path d="M53 47h1v1h-1v-1z" fill="rgb(82,82,82)"/>
<path d="M60 47h1v3h-1v-3z" fill="rgb(213,213,222)"/>
<path d="M65 47h1v2h-1v-2z" fill="rgb(82,82,82)"/>
<path d="M72 47h1v1h-1v-1z" fill="rgb(213,213,222)"/>
<path d="M77 47h1v2h-1v-2z" fill="rgb(16,16,16)"/>
<path d="M28 48h2v1h-2v-1z" fill="rgb(189,189,189)"/>
<path d="M31 48h1v2h1v1h1v2h1v2h1v2h-1v-1h-1v-1h-1v-2h-1v-2h-1v-3z" fill="rgb(57,90,131)"/>
<path d="M40 48h2v4h-1v-2h-1v-2z" fill="rgb(16,16,16)"/>
<path d="M42 48h1v2h-1v-2z" fill="rgb(255,255,255)"/>
<path d="M43 48h1v2h-1v-2z" fill="rgb(82,82,82)"/>
<path d="M44 48h1v2h-1v-2z" fill="rgb(16,16,16)"/>
<path d="M45 48h1v1h-1v-1z" fill="rgb(164,164,164)"/>
<path d="M46 48h1v1h1v2h-1v1h-3v-1h2v-3z" fill="rgb(255,255,255)"/>
<path d="M47 48h1v1h-1v-1z" fill="rgb(164,164,164)"/>
<path d="M48 48h1v1h1v2h-1v1h-1v-4z" fill="rgb(16,16,16)"/>
<path d="M49 48h1v1h-1v-1z" fill="rgb(82,82,82)"/>
<path d="M61 48h1v1h-1v-1z" fill="rgb(57,115,172)"/>
<path d="M66 48h1v1h-1v-1z" fill="rgb(123,123,123)"/>
<path d="M67 48h1v1h-1v-1z" fill="rgb(164,164,164)"/>
<path d="M68 48h1v1h-1v-1z" fill="rgb(213,213,222)"/>
<path d="M73 48h1v5h-1v-5z" fill="rgb(213,213,222)"/>
<path d="M27 49h1v2h-1v-2z" fill="rgb(213,213,222)"/>
<path d="M28 49h2v2h1v3h-2v-1h-1v-4z" fill="rgb(255,255,255)"/>
<path d="M32 49h1v1h-1v-1z" fill="rgb(57,115,172)"/>
<path d="M45 49h1v2h-2v-1h1v-1z" fill="rgb(82,82,82)"/>
<path d="M64 49h1v1h-1v-1z" fill="rgb(82,82,82)"/>
<path d="M78 49h1v4h-1v-4z" fill="rgb(16,16,16)"/>
<path d="M33 50h1v1h-1v-1z" fill="rgb(57,115,172)"/>
<path d="M38 50h1v1h-1v-1z" fill="rgb(164,164,164)"/>
<path d="M40 50h1v1h-1v-1z" fill="rgb(82,82,82)"/>
<path d="M42 50h1v1h-1v-1z" fill="rgb(164,164,164)"/>
<path d="M43 50h1v1h-1v-1z" fill="rgb(255,255,255)"/>
<path d="M60 50h1v3h-1v2h-1v1h-1v1h-1v1h-1v1h-1v1h-3v-1h2v-1h1v-1h1v-1h1v-1h1v-1h1v-2h1
	v-2z" fill="rgb(189,189,189)"/>
<path d="M63 50h1v3h-1v-3z" fill="rgb(82,82,82)"/>
<path d="M67 50h1v2h-1v-2z" fill="rgb(189,189,189)"/>
<path d="M21 51h1v2h-1v-2z" fill="rgb(82,82,82)"/>
<path d="M25 51h2v1h-2v-1z" fill="rgb(213,213,222)"/>
<path d="M27 51h1v2h-1v-2z" fill="rgb(82,82,82)"/>
<path d="M31 51h1v2h-1v-2z" fill="rgb(24,57,115)"/>
<path d="M36 51h1v1h-1v-1z" fill="rgb(82,82,82)"/>
<path d="M38 51h1v1h-1v-1z" fill="rgb(82,82,82)"/>
<path d="M40 51h1v1h-1v-1z" fill="rgb(164,164,164)"/>
<path d="M42 51h1v1h-1v-1z" fill="rgb(82,82,82)"/>
<path d="M43 51h1v1h-1v-1z" fill="rgb(164,164,164)"/>
<path d="M47 51h1v1h-1v-1z" fill="rgb(82,82,82)"/>
<path d="M49 51h1v1h-1v-1z" fill="rgb(82,82,82)"/>
<path d="M56 51h1v1h-1v-1z" fill="rgb(164,164,164)"/>
<path d="M59 51h1v1h-1v-1z" fill="rgb(213,213,222)"/>
<path d="M22 52h3v1h-3v-1z" fill="rgb(213,213,222)"/>
<path d="M25 52h2v1h1v1h1v1h-4v-1h-2v-1h2v-1z" fill="rgb(189,189,189)"/>
<path d="M34 52h1v1h-1v-1z" fill="rgb(189,189,189)"/>
<path d="M35 52h1v1h-1v-1z" fill="rgb(213,213,222)"/>
<path d="M36 52h1v1h-1v-1z" fill="rgb(164,164,164)"/>
<path d="M39 52h1v1h-1v-1z" fill="rgb(213,213,222)"/>
<path d="M40 52h1v1h-1v-1z" fill="rgb(255,255,255)"/>
<path d="M41 52h1v1h-1v-1z" fill="rgb(82,82,82)"/>
<path d="M42 52h6v1h-1v1h-3v-1h-2v-1z" fill="rgb(16,16,16)"/>
<path d="M48 52h1v1h-1v-1z" fill="rgb(82,82,82)"/>
<path d="M51 52h1v1h-1v-1z" fill="rgb(213,213,222)"/>
<path d="M53 52h1v1h-1v-1z" fill="rgb(82,82,82)"/>
<path d="M54 52h2v1h-2v-1z" fill="rgb(213,213,222)"/>
<path d="M56 52h1v1h-1v-1z" fill="rgb(82,82,82)"/>
<path d="M58 52h1v1h-1v-1z" fill="rgb(82,82,82)"/>
<path d="M68 52h1v3h-1v-3z" fill="rgb(82,82,82)"/>
<path d="M22 53h1v1h-1v-1z" fill="rgb(82,82,82)"/>
<path d="M28 53h1v1h-1v-1z" fill="rgb(16,16,16)"/>
<path d="M31 53h1v1h-1v-1z" fill="rgb(82,82,82)"/>
<path d="M32 53h1v2h-1v-2z" fill="rgb(24,57,115)"/>
<path d="M35 53h2v1h1v1h1v1h1v1h2v1h6v2h4v1h-9v-1h-2v-1h-2v-1h-1v-1h-1v-2h-1v-1h-1v-1z" fill="rgb(189,189,189)"/>
<path d="M37 53h1v1h-1v-1z" fill="rgb(82,82,82)"/>
<path d="M39 53h1v1h-1v-1z" fill="rgb(82,82,82)"/>
<path d="M40 53h1v1h-1v-1z" fill="rgb(213,213,222)"/>
<path d="M41 53h1v1h-1v-1z" fill="rgb(255,255,255)"/>
<path d="M42 53h1v1h-1v-1z" fill="rgb(164,164,164)"/>
<path d="M43 53h1v1h-1v-1z" fill="rgb(82,82,82)"/>
<path d="M47 53h1v1h-1v-1z" fill="rgb(82,82,82)"/>
<path d="M48 53h1v1h-1v-1z" fill="rgb(164,164,164)"/>
<path d="M50 53h1v1h-1v-1z" fill="rgb(213,213,222)"/>
<path d="M51 53h1v1h-1v-1z" fill="rgb(82,82,82)"/>
<path d="M53 53h1v1h-1v-1z" fill="rgb(164,164,164)"/>
<path d="M54 53h2v1h-1v1h-1v1h-1v1h-2v-1h1v-1h1v-1h1v-1z" fill="rgb(189,189,189)"/>
<path d="M58 53h1v1h-1v-1z" fill="rgb(164,164,164)"/>
<path d="M64 53h1v2h-1v-2z" fill="rgb(82,82,82)"/>
<path d="M72 53h1v1h-1v-1z" fill="rgb(213,213,222)"/>
<path d="M77 53h1v2h-1v-2z" fill="rgb(16,16,16)"/>
<path d="M23 54h2v1h-2v-1z" fill="rgb(82,82,82)"/>
<path d="M29 54h2v1h-2v-1z" fill="rgb(16,16,16)"/>
<path d="M35 54h1v1h-1v-1z" fill="rgb(164,164,164)"/>
<path d="M38 54h1v1h-1v-1z" fill="rgb(82,82,82)"/>
<path d="M39 54h1v1h-1v-1z" fill="rgb(16,16,16)"/>
<path d="M40 54h1v1h-1v-1z" fill="rgb(82,82,82)"/>
<path d="M41 54h9v1h-9v-1z" fill="rgb(213,213,222)"/>
<path d="M50 54h1v1h-1v-1z" fill="rgb(82,82,82)"/>
<path d="M51 54h1v1h-1v-1z" fill="rgb(16,16,16)"/>
<path d="M52 54h1v1h-1v-1z" fill="rgb(82,82,82)"/>
<path d="M55 54h1v1h-1v-1z" fill="rgb(82,82,82)"/>
<path d="M57 54h1v1h-1v-1z" fill="rgb(82,82,82)"/>
<path d="M69 54h3v1h-3v-1z" fill="rgb(213,213,222)"/>
<path d="M25 55h4v1h-4v-1z" fill="rgb(82,82,82)"/>
<path d="M33 55h1v1h-1v-1z" fill="rgb(16,16,16)"/>
<path d="M36 55h1v2h-1v-2z" fill="rgb(164,164,164)"/>
<path d="M39 55h1v1h-1v-1z" fill="rgb(82,82,82)"/>
<path d="M40 55h2v1h7v-1h2v1h-1v1h-2v1h-5v-1h-2v-1h-1v-1z" fill="rgb(16,16,16)"/>
<path d="M42 55h1v1h-1v-1z" fill="rgb(82,82,82)"/>
<path d="M43 55h5v1h-5v-1z" fill="rgb(189,189,189)"/>
<path d="M48 55h1v1h-1v-1z" fill="rgb(82,82,82)"/>
<path d="M51 55h1v1h-1v-1z" fill="rgb(82,82,82)"/>
<path d="M54 55h1v1h-1v-1z" fill="rgb(82,82,82)"/>
<path d="M55 55h1v1h-1v-1z" fill="rgb(16,16,16)"/>
<path d="M56 55h1v1h-1v-1z" fill="rgb(82,82,82)"/>
<path d="M59 55h1v1h-1v-1z" fill="rgb(164,164,164)"/>
<path d="M63 55h1v1h-1v-1z" fill="rgb(16,16,16)"/>
<path d="M65 55h3v1h1v1h-2v-1h-2v-1z" fill="rgb(16,16,16)"/>
<path d="M76 55h1v1h-1v-1z" fill="rgb(16,16,16)"/>
<path d="M34 56h1v1h-1v-1z" fill="rgb(16,16,16)"/>
<path d="M40 56h1v1h-1v-1z" fill="rgb(82,82,82)"/>
<path d="M50 56h1v1h-1v-1z" fill="rgb(82,82,82)"/>
<path d="M53 56h1v1h-1v-1z" fill="rgb(82,82,82)"/>
<path d="M54 56h1v1h-1v-1z" fill="rgb(16,16,16)"/>
<path d="M55 56h1v1h-1v-1z" fill="rgb(82,82,82)"/>
<path d="M58 56h1v1h-1v-1z" fill="rgb(164,164,164)"/>
<path d="M62 56h1v1h-1v-1z" fill="rgb(16,16,16)"/>
<path d="M74 56h2v1h-2v-1z" fill="rgb(16,16,16)"/>
<path d="M35 57h1v1h-1v-1z" fill="rgb(16,16,16)"/>
<path d="M36 57h1v1h-1v-1z" fill="rgb(57,90,131)"/>
<path d="M37 57h1v1h-1v-1z" fill="rgb(164,164,164)"/>
<path d="M42 57h1v1h-1v-1z" fill="rgb(82,82,82)"/>
<path d="M48 57h1v1h-1v-1z" fill="rgb(82,82,82)"/>
<path d="M49 57h2v1h-2v-1z" fill="rgb(189,189,189)"/>
<path d="M51 57h1v1h-1v-1z" fill="rgb(164,164,164)"/>
<path d="M52 57h1v1h-1v-1z" fill="rgb(82,82,82)"/>
<path d="M53 57h1v1h-1v-1z" fill="rgb(16,16,16)"/>
<path d="M54 57h1v1h-1v-1z" fill="rgb(82,82,82)"/>
<path d="M57 57h1v1h-1v-1z" fill="rgb(164,164,164)"/>
<path d="M61 57h1v1h-1v-1z" fill="rgb(16,16,16)"/>
<path d="M69 57h5v1h-5v-1z" fill="rgb(16,16,16)"/>
<path d="M36 58h1v1h-1v-1z" fill="rgb(16,16,16)"/>
<path d="M37 58h1v1h-1v-1z" fill="rgb(57,90,131)"/>
<path d="M38 58h1v1h-1v-1z" fill="rgb(164,164,164)"/>
<path d="M48 58h1v1h-1v-1z" fill="rgb(164,164,164)"/>
<path d="M49 58h2v1h-2v-1z" fill="rgb(82,82,82)"/>
<path d="M51 58h2v1h-2v-1z" fill="rgb(16,16,16)"/>
<path d="M53 58h1v1h-1v-1z" fill="rgb(82,82,82)"/>
<path d="M56 58h1v1h-1v-1z" fill="rgb(164,164,164)"/>
<path d="M60 58h1v1h-1v-1z" fill="rgb(16,16,16)"/>
<path d="M37 59h1v3h-1v-3z" fill="rgb(24,57,115)"/>
<path d="M38 59h2v1h2v1h-2v2h1v3h-2v1h-2v1h-6v-1h4v-1h1v-1h-1v-1h-1v-1h3v-1h1v-3z" fill="rgb(57,90,131)"/>
<path d="M40 59h1v1h-1v-1z" fill="rgb(164,164,164)"/>
<path d="M48 59h1v1h-1v-1z" fill="rgb(82,82,82)"/>
<path d="M49 59h2v1h-2v-1z" fill="rgb(16,16,16)"/>
<path d="M51 59h1v1h-1v-1z" fill="rgb(82,82,82)"/>
<path d="M59 59h1v4h-1v-4z" fill="rgb(16,16,16)"/>
<path d="M42 60h1v1h-1v-1z" fill="rgb(164,164,164)"/>
<path d="M52 60h1v1h-1v-1z" fill="rgb(164,164,164)"/>
<path d="M56 60h1v1h-1v-1z" fill="rgb(16,16,16)"/>
<path d="M40 61h4v1h-3v1h-1v-2z" fill="rgb(16,16,16)"/>
<path d="M44 61h9v1h-9v-1z" fill="rgb(57,90,131)"/>
<path d="M53 61h3v1h-3v-1z" fill="rgb(16,16,16)"/>
<path d="M34 62h3v1h-3v-1z" fill="rgb(24,57,115)"/>
<path d="M44 62h9v1h-9v-1z" fill="rgb(16,16,16)"/>
<path d="M56 62h1v3h-1v-3z" fill="rgb(24,57,115)"/>
<path d="M31 63h3v1h-3v-1z" fill="rgb(24,57,115)"/>
<path d="M41 63h1v3h-1v-3z" fill="rgb(16,16,16)"/>
<path d="M60 63h1v1h-1v-1z" fill="rgb(16,16,16)"/>
<path d="M30 64h1v1h-1v-1z" fill="rgb(24,57,115)"/>
<path d="M31 64h4v1h1v1h-1v1h-5v-2h1v-1z" fill="rgb(57,115,172)"/>
<path d="M61 64h2v1h-2v-1z" fill="rgb(16,16,16)"/>
<path d="M29 65h1v2h-1v-2z" fill="rgb(24,57,115)"/>
<path d="M55 65h1v1h-1v-1z" fill="rgb(24,57,115)"/>
<path d="M58 65h1v1h-1v-1z" fill="rgb(57,115,172)"/>
<path d="M59 65h3v1h1v1h2v2h-2v1h-5v-1h-1v-2h1v-1h1v-1z" fill="rgb(82,131,197)"/>
<path d="M62 65h1v1h-1v-1z" fill="rgb(57,115,172)"/>
<path d="M63 65h1v1h-1v-1z" fill="rgb(16,16,16)"/>
<path d="M39 66h2v1h-2v-1z" fill="rgb(16,16,16)"/>
<path d="M54 66h1v3h-1v-3z" fill="rgb(24,57,115)"/>
<path d="M57 66h1v1h-1v-1z" fill="rgb(57,115,172)"/>
<path d="M63 66h1v1h-1v-1z" fill="rgb(57,115,172)"/>
<path d="M64 66h1v1h-1v-1z" fill="rgb(16,16,16)"/>
<path d="M30 67h1v1h-1v-1z" fill="rgb(24,57,115)"/>
<path d="M37 67h2v1h-2v-1z" fill="rgb(16,16,16)"/>
<path d="M59 67h3v2h-3v-2z" fill="rgb(139,164,230)"/>
<path d="M65 67h1v3h-1v-3z" fill="rgb(16,16,16)"/>
<path d="M31 68h6v1h-6v-1z" fill="rgb(16,16,16)"/>
<path d="M55 69h1v1h-1v-1z" fill="rgb(24,57,115)"/>
<path d="M57 69h1v1h-1v-1z" fill="rgb(57,115,172)"/>
<path d="M63 69h1v1h-1v-1z" fill="rgb(57,115,172)"/>
<path d="M64 69h1v1h-1v-1z" fill="rgb(57,90,131)"/>
<path d="M56 70h2v1h-2v-1z" fill="rgb(16,16,16)"/>
<path d="M58 70h6v1h-6v-1z" fill="rgb(57,90,131)"/>
<path d="M64 70h1v1h-1v-1z" fill="rgb(16,16,16)"/>
<path d="M58 71h6v1h-6v-1z" fill="rgb(16,16,16)"/>
</svg>
