<?xml version="1.0" encoding="utf-8"?>
<!-- generated at drububu.com  -->
<!DOCTYPE svg PUBLIC "-//W3C//DTD SVG 1.1//EN" "http://www.w3.org/Graphics/SVG/1.1/DTD/svg11.dtd">
<svg version="1.1" preserveAspectRatio="xMinYMin meet" xmlns="http://www.w3.org/2000/svg" xmlns:xlink="http://www.w3.org/1999/xlink" x="0px" y="0px" width="96px" height="96px" viewBox="0 0 96 96">
<path d="M0 0h96v96h-96v-96z" fill="transparent"/>
<path d="M54 20h3v1h-3v-1z" fill="rgb(57,90,131)"/>
<path d="M35 21h3v1h-3v-1z" fill="rgb(57,90,131)"/>
<path d="M52 21h2v1h-2v-1z" fill="rgb(57,90,131)"/>
<path d="M54 21h3v1h-3v-1z" fill="rgb(82,131,197)"/>
<path d="M57 21h2v1h-2v-1z" fill="rgb(24,57,115)"/>
<path d="M33 22h2v1h-1v1h-1v1h-1v-2h1v-1z" fill="rgb(57,90,131)"/>
<path d="M35 22h3v1h-3v-1z" fill="rgb(82,131,197)"/>
<path d="M38 22h1v1h-1v-1z" fill="rgb(24,57,115)"/>
<path d="M39 22h1v1h-1v-1z" fill="rgb(16,16,16)"/>
<path d="M51 22h1v1h-1v-1z" fill="rgb(24,57,115)"/>
<path d="M52 22h2v1h-1v1h-1v1h-1v4h1v2h2v1h-3v1h-2v1h-7v-1h-2v-1h-3v-1h1v-1h1v-1h1v-3h-1
	v-2h-1v-1h2v1h2v2h-1v1h1v1h3v-1h1v-1h-1v-1h5v-1h1v-1h1v-1z" fill="rgb(82,131,197)"/>
<path d="M54 22h1v2h-1v-2z" fill="rgb(57,90,131)"/>
<path d="M55 22h2v1h-2v-1z" fill="rgb(24,57,115)"/>
<path d="M57 22h1v1h-1v-1z" fill="rgb(57,90,131)"/>
<path d="M58 22h1v1h-1v-1z" fill="rgb(82,131,197)"/>
<path d="M59 22h1v1h-1v-1z" fill="rgb(16,16,16)"/>
<path d="M34 23h1v1h-1v-1z" fill="rgb(82,131,197)"/>
<path d="M35 23h3v1h-3v-1z" fill="rgb(24,57,115)"/>
<path d="M40 23h2v1h-2v-1z" fill="rgb(16,16,16)"/>
<path d="M50 23h1v1h-1v-1z" fill="rgb(24,57,115)"/>
<path d="M53 23h1v1h-1v-1z" fill="rgb(24,57,115)"/>
<path d="M55 23h3v1h-1v1h-3v1h-1v-2h2v-1z" fill="rgb(82,131,197)"/>
<path d="M58 23h1v2h-2v-1h1v-1z" fill="rgb(24,57,115)"/>
<path d="M59 23h1v1h-1v-1z" fill="rgb(82,131,197)"/>
<path d="M60 23h1v1h-1v-1z" fill="rgb(16,16,16)"/>
<path d="M33 24h1v1h-1v-1z" fill="rgb(82,131,197)"/>
<path d="M34 24h1v1h1v1h-2v-2z" fill="rgb(57,90,131)"/>
<path d="M35 24h3v2h-2v-1h-1v-1z" fill="rgb(82,131,197)"/>
<path d="M38 24h1v1h-1v-1z" fill="rgb(24,57,115)"/>
<path d="M42 24h7v1h-7v-1z" fill="rgb(24,57,115)"/>
<path d="M49 24h1v1h-1v-1z" fill="rgb(57,90,131)"/>
<path d="M52 24h1v1h-1v-1z" fill="rgb(24,57,115)"/>
<path d="M59 24h1v1h-1v-1z" fill="rgb(57,90,131)"/>
<path d="M60 24h1v2h1v1h1v1h1v1h1v1h2v1h1v1h2v1h1v1h1v2h-1v2h-1v2h-1v-1h-2v-1h-1v-1h-1
	v-1h-1v1h-1v1h-1v-1h-1v1h-1v-1h-1v-2h-1v-1h-1v-1h-2v-1h2v-1h1v-1h1v-1h1v-5z" fill="rgb(82,131,197)"/>
<path d="M61 24h1v2h-1v-2z" fill="rgb(16,16,16)"/>
<path d="M31 25h1v2h-1v-2z" fill="rgb(57,90,131)"/>
<path d="M32 25h1v2h-1v-2z" fill="rgb(82,131,197)"/>
<path d="M33 25h1v1h-1v-1z" fill="rgb(24,57,115)"/>
<path d="M38 25h1v1h-1v-1z" fill="rgb(57,90,131)"/>
<path d="M42 25h3v1h1v1h-1v1h-3v-1h-1v-1h1v-1z" fill="rgb(139,164,230)"/>
<path d="M51 25h2v1h-2v-1z" fill="rgb(57,90,131)"/>
<path d="M54 25h2v1h-2v-1z" fill="rgb(24,57,115)"/>
<path d="M56 25h2v1h1v2h-1v2h-2v1h-2v-1h-1v-1h-1v-1h1v-1h1v1h1v-2h1v-1z" fill="rgb(255,255,255)"/>
<path d="M58 25h1v1h-1v-1z" fill="rgb(164,164,164)"/>
<path d="M59 25h1v3h-1v-3z" fill="rgb(16,16,16)"/>
<path d="M33 26h1v1h-1v-1z" fill="rgb(57,90,131)"/>
<path d="M34 26h2v2h1v-1h1v1h1v1h-1v1h-1v1h-2v-1h-1v-1h-1v-2h1v-1z" fill="rgb(255,255,255)"/>
<path d="M36 26h1v2h-1v-2z" fill="rgb(16,16,16)"/>
<path d="M37 26h1v1h-1v-1z" fill="rgb(57,90,131)"/>
<path d="M38 26h1v1h-1v-1z" fill="rgb(82,131,197)"/>
<path d="M39 26h1v2h-1v-2z" fill="rgb(24,57,115)"/>
<path d="M51 26h1v1h1v1h-1v1h-1v-3z" fill="rgb(24,57,115)"/>
<path d="M52 26h1v1h-1v-1z" fill="rgb(82,131,197)"/>
<path d="M53 26h1v1h-1v-1z" fill="rgb(24,57,115)"/>
<path d="M54 26h1v2h-1v-2z" fill="rgb(16,16,16)"/>
<path d="M62 26h1v1h-1v-1z" fill="rgb(16,16,16)"/>
<path d="M30 27h1v3h-1v-3z" fill="rgb(24,57,115)"/>
<path d="M31 27h1v3h1v1h1v1h1v1h-1v1h-1v1h-1v2h-1v3h-1v-1h-1v-2h-1v2h-1v2h-1v1h-1v-1h-2
	v-1h1v-2h1v-2h1v-1h1v-1h1v-1h1v-1h1v-2h1v-3z" fill="rgb(82,131,197)"/>
<path d="M32 27h1v2h-1v-2z" fill="rgb(24,57,115)"/>
<path d="M38 27h1v1h-1v-1z" fill="rgb(57,90,131)"/>
<path d="M63 27h1v1h-1v-1z" fill="rgb(16,16,16)"/>
<path d="M39 28h1v1h-1v-1z" fill="rgb(57,90,131)"/>
<path d="M58 28h1v1h-1v-1z" fill="rgb(164,164,164)"/>
<path d="M59 28h1v1h-1v-1z" fill="rgb(24,57,115)"/>
<path d="M64 28h1v1h-1v-1z" fill="rgb(16,16,16)"/>
<path d="M32 29h1v1h-1v-1z" fill="rgb(57,90,131)"/>
<path d="M33 29h1v1h-1v-1z" fill="rgb(164,164,164)"/>
<path d="M38 29h1v1h-1v-1z" fill="rgb(57,90,131)"/>
<path d="M52 29h1v2h-1v-2z" fill="rgb(57,90,131)"/>
<path d="M58 29h1v1h-1v-1z" fill="rgb(24,57,115)"/>
<path d="M65 29h2v1h-2v-1z" fill="rgb(16,16,16)"/>
<path d="M76 29h4v1h-4v-1z" fill="rgb(82,82,82)"/>
<path d="M29 30h1v1h-1v-1z" fill="rgb(24,57,115)"/>
<path d="M33 30h1v1h-1v-1z" fill="rgb(24,57,115)"/>
<path d="M34 30h1v1h-1v-1z" fill="rgb(213,213,222)"/>
<path d="M37 30h1v1h-1v-1z" fill="rgb(57,90,131)"/>
<path d="M42 30h1v1h-1v-1z" fill="rgb(16,16,16)"/>
<path d="M46 30h1v1h-1v-1z" fill="rgb(16,16,16)"/>
<path d="M53 30h1v1h-1v-1z" fill="rgb(24,57,115)"/>
<path d="M56 30h1v1h-1v-1z" fill="rgb(164,164,164)"/>
<path d="M57 30h1v1h-1v-1z" fill="rgb(24,57,115)"/>
<path d="M67 30h2v1h-2v-1z" fill="rgb(16,16,16)"/>
<path d="M75 30h1v1h-1v-1z" fill="rgb(82,82,82)"/>
<path d="M76 30h1v1h-1v-1z" fill="rgb(189,189,189)"/>
<path d="M77 30h3v1h2v1h1v2h1v2h1v7h-1v2h-2v-1h-2v-1h-1v-2h2v-1h-3v-2h-1v-3h1v-1h2v-1h-3
	v-1h-1v-1h1v-1z" fill="rgb(255,255,255)"/>
<path d="M80 30h2v1h-2v-1z" fill="rgb(82,82,82)"/>
<path d="M28 31h1v2h-1v-2z" fill="rgb(24,57,115)"/>
<path d="M29 31h1v1h-1v-1z" fill="rgb(57,90,131)"/>
<path d="M34 31h1v1h-1v-1z" fill="rgb(57,90,131)"/>
<path d="M35 31h2v1h-2v-1z" fill="rgb(24,57,115)"/>
<path d="M42 31h1v1h-1v-1z" fill="rgb(57,90,131)"/>
<path d="M46 31h1v1h-1v-1z" fill="rgb(57,90,131)"/>
<path d="M54 31h3v1h-3v-1z" fill="rgb(24,57,115)"/>
<path d="M68 31h1v1h-1v-1z" fill="rgb(57,90,131)"/>
<path d="M69 31h1v1h-1v-1z" fill="rgb(16,16,16)"/>
<path d="M74 31h1v1h-1v-1z" fill="rgb(82,82,82)"/>
<path d="M75 31h1v1h-1v-1z" fill="rgb(213,213,222)"/>
<path d="M82 31h1v1h-1v-1z" fill="rgb(82,82,82)"/>
<path d="M35 32h5v1h-5v-1z" fill="rgb(57,90,131)"/>
<path d="M51 32h4v1h-4v-1z" fill="rgb(57,90,131)"/>
<path d="M70 32h1v1h-1v-1z" fill="rgb(16,16,16)"/>
<path d="M73 32h1v2h-1v-2z" fill="rgb(82,82,82)"/>
<path d="M74 32h2v1h1v1h-2v1h-1v-3z" fill="rgb(189,189,189)"/>
<path d="M76 32h1v1h-1v-1z" fill="rgb(213,213,222)"/>
<path d="M83 32h1v2h-1v-2z" fill="rgb(82,82,82)"/>
<path d="M27 33h1v1h-1v-1z" fill="rgb(24,57,115)"/>
<path d="M34 33h1v1h-1v-1z" fill="rgb(57,90,131)"/>
<path d="M35 33h1v1h-1v-1z" fill="rgb(213,213,222)"/>
<path d="M36 33h3v1h2v1h9v-1h2v-1h2v1h2v1h2v3h1v2h-1v1h-2v1h-2v-1h-1v-2h-1v-2h-2v-1h-10
	v1h-2v1h-1v1h-1v1h-1v-1h-1v-1h-1v-2h1v-2h2v-1z" fill="rgb(255,255,255)"/>
<path d="M39 33h1v1h-1v-1z" fill="rgb(213,213,222)"/>
<path d="M40 33h2v1h-2v-1z" fill="rgb(57,90,131)"/>
<path d="M49 33h2v1h-2v-1z" fill="rgb(57,90,131)"/>
<path d="M51 33h1v1h-1v-1z" fill="rgb(213,213,222)"/>
<path d="M54 33h1v1h-1v-1z" fill="rgb(213,213,222)"/>
<path d="M55 33h2v1h-2v-1z" fill="rgb(24,57,115)"/>
<path d="M71 33h1v1h-1v-1z" fill="rgb(16,16,16)"/>
<path d="M77 33h3v1h-3v-1z" fill="rgb(16,16,16)"/>
<path d="M14 34h4v1h-4v-1z" fill="rgb(82,82,82)"/>
<path d="M26 34h1v1h-1v-1z" fill="rgb(24,57,115)"/>
<path d="M33 34h1v1h-1v-1z" fill="rgb(24,57,115)"/>
<path d="M41 34h1v1h-1v-1z" fill="rgb(213,213,222)"/>
<path d="M42 34h7v1h-7v-1z" fill="rgb(57,90,131)"/>
<path d="M49 34h1v1h-1v-1z" fill="rgb(213,213,222)"/>
<path d="M56 34h1v1h-1v-1z" fill="rgb(213,213,222)"/>
<path d="M57 34h1v1h-1v-1z" fill="rgb(24,57,115)"/>
<path d="M72 34h1v2h-1v-2z" fill="rgb(16,16,16)"/>
<path d="M73 34h1v2h-1v-2z" fill="rgb(123,123,123)"/>
<path d="M75 34h2v1h-2v-1z" fill="rgb(16,16,16)"/>
<path d="M77 34h1v1h-1v-1z" fill="rgb(189,189,189)"/>
<path d="M80 34h2v1h-2v-1z" fill="rgb(123,123,123)"/>
<path d="M84 34h1v2h-1v-2z" fill="rgb(82,82,82)"/>
<path d="M11 35h3v1h-3v-1z" fill="rgb(82,82,82)"/>
<path d="M14 35h1v1h-1v-1z" fill="rgb(189,189,189)"/>
<path d="M15 35h3v4h-1v1h-1v1h-1v1h-1v-1h-1v-2h-1v2h1v1h1v1h-1v1h-1v1h-1v1h-1v-2h-1v2h1
	v1h1v1h-1v1h-1v1h-1v-3h-1v-4h1v-3h1v-2h1v-1h2v-1h3v-1z" fill="rgb(255,255,255)"/>
<path d="M18 35h2v1h-2v-1z" fill="rgb(82,82,82)"/>
<path d="M25 35h1v1h-1v-1z" fill="rgb(24,57,115)"/>
<path d="M29 35h1v2h-1v-2z" fill="rgb(16,16,16)"/>
<path d="M32 35h1v2h-1v-2z" fill="rgb(24,57,115)"/>
<path d="M33 35h1v1h-1v-1z" fill="rgb(189,189,189)"/>
<path d="M58 35h1v2h-1v-2z" fill="rgb(24,57,115)"/>
<path d="M74 35h1v1h-1v-1z" fill="rgb(16,16,16)"/>
<path d="M75 35h1v3h1v3h-1v1h-1v-1h-1v-5h1v-1z" fill="rgb(189,189,189)"/>
<path d="M76 35h1v3h-1v-3z" fill="rgb(213,213,222)"/>
<path d="M81 35h1v1h-1v-1z" fill="rgb(189,189,189)"/>
<path d="M82 35h1v1h-1v-1z" fill="rgb(123,123,123)"/>
<path d="M9 36h2v1h-2v-1z" fill="rgb(82,82,82)"/>
<path d="M11 36h1v1h-1v-1z" fill="rgb(189,189,189)"/>
<path d="M18 36h1v3h-1v-3z" fill="rgb(213,213,222)"/>
<path d="M19 36h1v2h1v5h-1v1h-3v-1h-2v-1h1v-1h1v-1h1v-1h1v-3z" fill="rgb(189,189,189)"/>
<path d="M20 36h1v2h-1v-2z" fill="rgb(16,16,16)"/>
<path d="M24 36h1v2h-1v-2z" fill="rgb(24,57,115)"/>
<path d="M40 36h1v1h-1v-1z" fill="rgb(82,82,82)"/>
<path d="M41 36h7v1h2v1h1v1h-2v-1h-3v-1h-4v1h-2v1h-1v1h-1v1h-1v6h1v1h1v2h-1v-1h-1v-1h-1
	v-2h-1v-4h1v-2h1v-1h1v-1h1v-1h2v-1z" fill="rgb(16,16,16)"/>
<path d="M48 36h1v1h-1v-1z" fill="rgb(82,82,82)"/>
<path d="M49 36h1v1h-1v-1z" fill="rgb(213,213,222)"/>
<path d="M64 36h1v1h-1v-1z" fill="rgb(57,90,131)"/>
<path d="M71 36h1v2h-1v-2z" fill="rgb(16,16,16)"/>
<path d="M72 36h1v3h-1v2h-1v-3h1v-2z" fill="rgb(255,255,255)"/>
<path d="M73 36h1v5h-1v-5z" fill="rgb(16,16,16)"/>
<path d="M85 36h1v3h-1v-3z" fill="rgb(82,82,82)"/>
<path d="M8 37h1v2h-1v-2z" fill="rgb(82,82,82)"/>
<path d="M9 37h1v1h-1v-1z" fill="rgb(189,189,189)"/>
<path d="M28 37h1v2h-1v-2z" fill="rgb(16,16,16)"/>
<path d="M31 37h1v7h-1v-7z" fill="rgb(24,57,115)"/>
<path d="M32 37h1v1h-1v-1z" fill="rgb(213,213,222)"/>
<path d="M38 37h1v1h-1v-1z" fill="rgb(82,82,82)"/>
<path d="M42 37h4v1h-4v-1z" fill="rgb(82,82,82)"/>
<path d="M50 37h1v1h-1v-1z" fill="rgb(82,82,82)"/>
<path d="M51 37h1v1h-1v-1z" fill="rgb(213,213,222)"/>
<path d="M58 37h1v1h-1v-1z" fill="rgb(213,213,222)"/>
<path d="M59 37h1v2h-1v-2z" fill="rgb(24,57,115)"/>
<path d="M61 37h1v1h-1v-1z" fill="rgb(57,90,131)"/>
<path d="M63 37h1v1h-1v-1z" fill="rgb(57,90,131)"/>
<path d="M64 37h1v1h-1v-1z" fill="rgb(82,131,197)"/>
<path d="M65 37h1v1h-1v-1z" fill="rgb(57,90,131)"/>
<path d="M21 38h1v2h1v1h-1v2h-1v-5z" fill="rgb(16,16,16)"/>
<path d="M23 38h1v2h-1v-2z" fill="rgb(24,57,115)"/>
<path d="M32 38h1v1h-1v-1z" fill="rgb(255,255,255)"/>
<path d="M33 38h1v1h-1v-1z" fill="rgb(213,213,222)"/>
<path d="M37 38h1v1h-1v-1z" fill="rgb(82,82,82)"/>
<path d="M40 38h1v1h-1v-1z" fill="rgb(82,82,82)"/>
<path d="M41 38h6v1h-6v-1z" fill="rgb(255,255,255)"/>
<path d="M47 38h1v1h-1v-1z" fill="rgb(213,213,222)"/>
<path d="M48 38h1v1h-1v-1z" fill="rgb(82,82,82)"/>
<path d="M51 38h1v1h-1v-1z" fill="rgb(82,82,82)"/>
<path d="M60 38h1v1h-1v-1z" fill="rgb(57,90,131)"/>
<path d="M61 38h1v1h-1v-1z" fill="rgb(82,131,197)"/>
<path d="M62 38h1v1h1v1h1v-1h1v-1h1v1h2v1h1v2h1v2h1v1h1v1h-3v-1h-2v-1h-1v-1h-1v-1h-1v-1
	h-1v1h1v1h1v6h-1v3h-1v2h-1v1h-1v2h1v3h1v3h1v2h1v2h1v1h-2v1h-2v1h2v1h-1v2h1v1h6
	v-1h1v-2h1v1h1v3h-1v1h-8v-1h-3v-1h-2v-1h-1v-4h1v-2h-1v-2h-1v-2h-1v-2h-1v-1h-1
	v-1h-3v1h-10v-1h-3v-1h-2v1h2v1h1v1h-1v1h-1v1h-1v2h-1v3h1v3h-1v1h-2v1h-3v1h-7v-1
	h-2v-3h1v1h1v1h6v-1h1v-1h1v-2h-1v-1h-2v-1h1v-1h1v-2h1v-2h1v-2h1v-3h-1v-1h-1v-1
	h-1v-1h-1v-2h-1v-3h-1v-9h2v1h1v4h1v3h1v2h1v1h1v1h1v1h1v1h2v1h2v1h9v-1h3v-1h2v-1
	h1v-1h1v-1h1v-2h1v-1h1v-2h1v-6h1v-1z" fill="rgb(57,90,131)"/>
<path d="M63 38h1v1h-1v-1z" fill="rgb(82,131,197)"/>
<path d="M64 38h1v1h-1v-1z" fill="rgb(57,90,131)"/>
<path d="M65 38h1v1h-1v-1z" fill="rgb(82,131,197)"/>
<path d="M70 38h1v4h-1v-4z" fill="rgb(16,16,16)"/>
<path d="M77 38h1v2h-1v-2z" fill="rgb(213,213,222)"/>
<path d="M7 39h1v1h-1v-1z" fill="rgb(82,82,82)"/>
<path d="M8 39h1v1h-1v-1z" fill="rgb(189,189,189)"/>
<path d="M12 39h1v1h-1v-1z" fill="rgb(189,189,189)"/>
<path d="M17 39h1v1h-1v-1z" fill="rgb(213,213,222)"/>
<path d="M27 39h1v9h-1v-9z" fill="rgb(16,16,16)"/>
<path d="M32 39h1v1h-1v-1z" fill="rgb(213,213,222)"/>
<path d="M33 39h1v1h-1v-1z" fill="rgb(255,255,255)"/>
<path d="M34 39h1v1h-1v-1z" fill="rgb(213,213,222)"/>
<path d="M36 39h1v1h-1v-1z" fill="rgb(82,82,82)"/>
<path d="M39 39h2v1h-1v1h-1v3h-1v2h-1v-4h1v-2h1v-1z" fill="rgb(255,255,255)"/>
<path d="M41 39h1v1h-1v-1z" fill="rgb(82,82,82)"/>
<path d="M42 39h4v1h2v1h1v1h1v2h-1v-1h-1v-1h-1v-1h-5v1h-1v1h-1v-2h1v-1h1v-1z" fill="rgb(16,16,16)"/>
<path d="M46 39h1v1h-1v-1z" fill="rgb(82,82,82)"/>
<path d="M47 39h2v1h-2v-1z" fill="rgb(255,255,255)"/>
<path d="M49 39h1v1h-1v-1z" fill="rgb(213,213,222)"/>
<path d="M50 39h1v1h-1v-1z" fill="rgb(82,82,82)"/>
<path d="M51 39h1v1h1v2h1v5h-1v-3h-1v-3h-1v-2z" fill="rgb(16,16,16)"/>
<path d="M52 39h1v1h-1v-1z" fill="rgb(82,82,82)"/>
<path d="M59 39h1v6h-1v2h-1v1h-1v2h-1v1h-1v1h-2v1h-3v1h-9v-1h-2v-1h-2v-1h-1v-1h-1v-1h-1
	v-2h-1v-3h-1v-3h1v1h1v1h1v4h1v2h1v1h1v1h2v1h7v-1h2v-1h1v-2h1v3h2v-2h1v-7h2v-1h2
	v-1h1v-1z" fill="rgb(213,213,222)"/>
<path d="M60 39h1v6h-1v-6z" fill="rgb(24,57,115)"/>
<path d="M64 39h1v1h-1v-1z" fill="rgb(82,131,197)"/>
<path d="M72 39h1v2h1v1h1v4h-1v-1h-1v-1h-1v-2h-1v-1h1v-2z" fill="rgb(189,189,189)"/>
<path d="M85 39h1v4h-1v-4z" fill="rgb(16,16,16)"/>
<path d="M7 40h1v3h-1v-3z" fill="rgb(16,16,16)"/>
<path d="M12 40h1v1h-1v-1z" fill="rgb(16,16,16)"/>
<path d="M16 40h1v1h-1v-1z" fill="rgb(213,213,222)"/>
<path d="M32 40h1v1h-1v-1z" fill="rgb(255,255,255)"/>
<path d="M33 40h1v1h-1v-1z" fill="rgb(213,213,222)"/>
<path d="M34 40h1v1h-1v-1z" fill="rgb(255,255,255)"/>
<path d="M35 40h1v1h-1v-1z" fill="rgb(213,213,222)"/>
<path d="M40 40h1v1h-1v-1z" fill="rgb(82,82,82)"/>
<path d="M48 40h1v1h-1v-1z" fill="rgb(82,82,82)"/>
<path d="M49 40h1v1h-1v-1z" fill="rgb(255,255,255)"/>
<path d="M50 40h1v2h1v6h-1v-5h-1v-3z" fill="rgb(213,213,222)"/>
<path d="M77 40h3v1h-3v-1z" fill="rgb(16,16,16)"/>
<path d="M80 40h1v1h-1v-1z" fill="rgb(123,123,123)"/>
<path d="M13 41h1v1h-1v-1z" fill="rgb(16,16,16)"/>
<path d="M15 41h1v1h-1v-1z" fill="rgb(213,213,222)"/>
<path d="M22 41h1v1h2v3h-2v-2h-1v-2z" fill="rgb(82,131,197)"/>
<path d="M23 41h2v1h-2v-1z" fill="rgb(16,16,16)"/>
<path d="M26 41h1v7h1v2h-1v1h-5v-1h-2v-1h1v-1h1v-1h1v-2h2v-1h1v-3z" fill="rgb(57,90,131)"/>
<path d="M33 41h1v1h-1v-1z" fill="rgb(255,255,255)"/>
<path d="M34 41h1v1h-1v-1z" fill="rgb(213,213,222)"/>
<path d="M35 41h1v1h-1v-1z" fill="rgb(82,82,82)"/>
<path d="M37 41h1v1h-1v-1z" fill="rgb(82,82,82)"/>
<path d="M39 41h1v2h-1v-2z" fill="rgb(82,82,82)"/>
<path d="M42 41h4v1h-3v1h-1v-2z" fill="rgb(213,213,222)"/>
<path d="M46 41h1v1h-1v-1z" fill="rgb(82,82,82)"/>
<path d="M49 41h1v1h-1v-1z" fill="rgb(82,82,82)"/>
<path d="M51 41h1v1h-1v-1z" fill="rgb(82,82,82)"/>
<path d="M53 41h1v1h-1v-1z" fill="rgb(82,82,82)"/>
<path d="M64 41h1v1h-1v-1z" fill="rgb(16,16,16)"/>
<path d="M74 41h1v1h-1v-1z" fill="rgb(16,16,16)"/>
<path d="M76 41h1v1h-1v-1z" fill="rgb(16,16,16)"/>
<path d="M77 41h1v1h-1v-1z" fill="rgb(123,123,123)"/>
<path d="M78 41h1v2h-1v-2z" fill="rgb(213,213,222)"/>
<path d="M81 41h1v1h-1v-1z" fill="rgb(123,123,123)"/>
<path d="M14 42h1v1h-1v-1z" fill="rgb(16,16,16)"/>
<path d="M25 42h1v2h-1v-2z" fill="rgb(16,16,16)"/>
<path d="M34 42h1v1h-1v-1z" fill="rgb(255,255,255)"/>
<path d="M41 42h1v2h-1v-2z" fill="rgb(255,255,255)"/>
<path d="M43 42h1v1h2v1h-3v-2z" fill="rgb(16,16,16)"/>
<path d="M44 42h2v1h-2v-1z" fill="rgb(82,82,82)"/>
<path d="M46 42h2v2h1v4h-1v1h-1v1h-7v-1h-1v-1h-1v-4h1v3h1v1h1v1h5v-1h1v-5h-1v-1z" fill="rgb(213,213,222)"/>
<path d="M65 42h1v1h-1v-1z" fill="rgb(16,16,16)"/>
<path d="M71 42h1v2h-1v-2z" fill="rgb(16,16,16)"/>
<path d="M75 42h1v4h1v1h-7v-1h3v-1h1v1h1v-4z" fill="rgb(16,16,16)"/>
<path d="M76 42h2v1h1v1h2v1h2v1h-2v1h-4v-1h-1v-4z" fill="rgb(189,189,189)"/>
<path d="M6 43h1v5h-1v-5z" fill="rgb(16,16,16)"/>
<path d="M13 43h1v1h-1v-1z" fill="rgb(213,213,222)"/>
<path d="M14 43h1v1h2v1h1v2h-1v1h-4v-1h-1v-2h1v-1h1v-1z" fill="rgb(189,189,189)"/>
<path d="M15 43h2v1h-2v-1z" fill="rgb(16,16,16)"/>
<path d="M20 43h1v1h-1v-1z" fill="rgb(16,16,16)"/>
<path d="M21 43h1v4h-1v1h-1v1h-3v-1h1v-1h1v-2h1v-1h1v-1z" fill="rgb(189,189,189)"/>
<path d="M22 43h1v4h-1v-4z" fill="rgb(16,16,16)"/>
<path d="M39 43h1v3h1v1h-2v-4z" fill="rgb(16,16,16)"/>
<path d="M40 43h1v3h-1v-3z" fill="rgb(82,82,82)"/>
<path d="M42 43h1v1h-1v-1z" fill="rgb(82,82,82)"/>
<path d="M46 43h1v1h-1v-1z" fill="rgb(82,82,82)"/>
<path d="M48 43h1v1h-1v-1z" fill="rgb(82,82,82)"/>
<path d="M50 43h1v1h-1v-1z" fill="rgb(82,82,82)"/>
<path d="M66 43h1v1h1v1h-1v4h-1v-6z" fill="rgb(16,16,16)"/>
<path d="M79 43h1v1h-1v-1z" fill="rgb(213,213,222)"/>
<path d="M84 43h1v2h-1v-2z" fill="rgb(16,16,16)"/>
<path d="M9 44h1v2h-1v-2z" fill="rgb(189,189,189)"/>
<path d="M12 44h1v1h-1v-1z" fill="rgb(213,213,222)"/>
<path d="M17 44h3v1h-1v2h-1v-2h-1v-1z" fill="rgb(16,16,16)"/>
<path d="M32 44h1v3h-1v-3z" fill="rgb(24,57,115)"/>
<path d="M41 44h1v1h1v1h1v-2h1v1h1v1h-1v1h-3v-1h-1v-2z" fill="rgb(213,213,222)"/>
<path d="M42 44h1v1h-1v-1z" fill="rgb(16,16,16)"/>
<path d="M43 44h1v2h-1v-2z" fill="rgb(82,82,82)"/>
<path d="M45 44h1v1h-1v-1z" fill="rgb(82,82,82)"/>
<path d="M46 44h1v3h-1v1h-1v-2h1v-2z" fill="rgb(16,16,16)"/>
<path d="M49 44h1v3h-1v-3z" fill="rgb(82,82,82)"/>
<path d="M50 44h1v3h-1v-3z" fill="rgb(16,16,16)"/>
<path d="M52 44h1v3h-1v-3z" fill="rgb(82,82,82)"/>
<path d="M72 44h1v1h-1v-1z" fill="rgb(16,16,16)"/>
<path d="M81 44h1v1h-1v-1z" fill="rgb(213,213,222)"/>
<path d="M11 45h1v2h-1v-2z" fill="rgb(213,213,222)"/>
<path d="M59 45h1v2h-1v-2z" fill="rgb(24,57,115)"/>
<path d="M68 45h2v1h-2v-1z" fill="rgb(16,16,16)"/>
<path d="M83 45h1v1h-1v-1z" fill="rgb(16,16,16)"/>
<path d="M10 46h1v1h-1v-1z" fill="rgb(16,16,16)"/>
<path d="M35 46h1v1h-1v-1z" fill="rgb(82,82,82)"/>
<path d="M37 46h1v1h-1v-1z" fill="rgb(82,82,82)"/>
<path d="M41 46h1v1h-1v-1z" fill="rgb(82,82,82)"/>
<path d="M81 46h2v1h-2v-1z" fill="rgb(16,16,16)"/>
<path d="M7 47h1v1h-1v-1z" fill="rgb(189,189,189)"/>
<path d="M11 47h2v1h-2v-1z" fill="rgb(16,16,16)"/>
<path d="M17 47h1v1h-1v-1z" fill="rgb(16,16,16)"/>
<path d="M21 47h1v1h-1v-1z" fill="rgb(16,16,16)"/>
<path d="M33 47h1v2h-1v-2z" fill="rgb(24,57,115)"/>
<path d="M40 47h1v1h-1v-1z" fill="rgb(82,82,82)"/>
<path d="M41 47h1v1h-1v-1z" fill="rgb(16,16,16)"/>
<path d="M42 47h3v1h-3v-1z" fill="rgb(82,82,82)"/>
<path d="M46 47h1v1h-1v-1z" fill="rgb(82,82,82)"/>
<path d="M49 47h1v2h-1v1h-1v1h-2v-1h1v-1h1v-1h1v-1z" fill="rgb(16,16,16)"/>
<path d="M50 47h1v1h-1v-1z" fill="rgb(82,82,82)"/>
<path d="M52 47h1v2h-1v-2z" fill="rgb(16,16,16)"/>
<path d="M53 47h1v2h-1v-2z" fill="rgb(82,82,82)"/>
<path d="M58 47h1v1h-1v-1z" fill="rgb(24,57,115)"/>
<path d="M77 47h4v1h-4v-1z" fill="rgb(16,16,16)"/>
<path d="M7 48h1v2h-1v-2z" fill="rgb(16,16,16)"/>
<path d="M10 48h2v1h-2v-1z" fill="rgb(213,213,222)"/>
<path d="M12 48h1v1h3v1h-2v1h-4v-2h2v-1z" fill="rgb(189,189,189)"/>
<path d="M13 48h4v1h2v1h-3v-1h-3v-1z" fill="rgb(16,16,16)"/>
<path d="M20 48h1v1h-1v-1z" fill="rgb(16,16,16)"/>
<path d="M28 48h1v3h-2v-1h1v-2z" fill="rgb(16,16,16)"/>
<path d="M36 48h1v1h-1v-1z" fill="rgb(82,82,82)"/>
<path d="M41 48h1v1h-1v-1z" fill="rgb(82,82,82)"/>
<path d="M42 48h3v1h-3v-1z" fill="rgb(16,16,16)"/>
<path d="M45 48h1v1h-1v-1z" fill="rgb(82,82,82)"/>
<path d="M51 48h1v1h-1v-1z" fill="rgb(82,82,82)"/>
<path d="M57 48h1v2h-1v-2z" fill="rgb(24,57,115)"/>
<path d="M9 49h1v1h-1v-1z" fill="rgb(213,213,222)"/>
<path d="M19 49h1v1h-1v-1z" fill="rgb(24,57,115)"/>
<path d="M34 49h1v1h-1v-1z" fill="rgb(24,57,115)"/>
<path d="M37 49h1v1h-1v-1z" fill="rgb(82,82,82)"/>
<path d="M39 49h1v1h-1v-1z" fill="rgb(82,82,82)"/>
<path d="M49 49h1v1h-1v-1z" fill="rgb(82,82,82)"/>
<path d="M51 49h1v1h-1v-1z" fill="rgb(16,16,16)"/>
<path d="M52 49h1v2h-2v-1h1v-1z" fill="rgb(82,82,82)"/>
<path d="M65 49h1v3h-1v-3z" fill="rgb(16,16,16)"/>
<path d="M8 50h1v1h-1v-1z" fill="rgb(16,16,16)"/>
<path d="M9 50h1v1h-1v-1z" fill="rgb(123,123,123)"/>
<path d="M14 50h2v1h-2v-1z" fill="rgb(16,16,16)"/>
<path d="M19 50h3v1h-3v-1z" fill="rgb(16,16,16)"/>
<path d="M35 50h1v1h-1v-1z" fill="rgb(24,57,115)"/>
<path d="M38 50h1v1h-1v-1z" fill="rgb(82,82,82)"/>
<path d="M39 50h3v1h4v1h-5v-1h-2v-1z" fill="rgb(16,16,16)"/>
<path d="M42 50h4v1h-4v-1z" fill="rgb(82,82,82)"/>
<path d="M48 50h1v1h-1v-1z" fill="rgb(82,82,82)"/>
<path d="M56 50h1v1h-1v-1z" fill="rgb(24,57,115)"/>
<path d="M9 51h5v1h-5v-1z" fill="rgb(16,16,16)"/>
<path d="M22 51h5v1h-5v-1z" fill="rgb(16,16,16)"/>
<path d="M29 51h1v2h-1v-2z" fill="rgb(16,16,16)"/>
<path d="M36 51h1v1h-1v-1z" fill="rgb(24,57,115)"/>
<path d="M40 51h1v1h-1v-1z" fill="rgb(82,82,82)"/>
<path d="M46 51h1v1h-1v-1z" fill="rgb(82,82,82)"/>
<path d="M55 51h1v1h-1v-1z" fill="rgb(24,57,115)"/>
<path d="M37 52h2v1h-2v-1z" fill="rgb(24,57,115)"/>
<path d="M53 52h2v1h-2v-1z" fill="rgb(24,57,115)"/>
<path d="M64 52h1v2h-1v-2z" fill="rgb(16,16,16)"/>
<path d="M30 53h1v1h-1v-1z" fill="rgb(16,16,16)"/>
<path d="M39 53h2v1h-2v-1z" fill="rgb(24,57,115)"/>
<path d="M50 53h3v1h-3v-1z" fill="rgb(24,57,115)"/>
<path d="M31 54h1v1h-1v-1z" fill="rgb(16,16,16)"/>
<path d="M41 54h9v1h-9v-1z" fill="rgb(24,57,115)"/>
<path d="M63 54h1v1h-1v-1z" fill="rgb(16,16,16)"/>
<path d="M32 55h1v1h-1v-1z" fill="rgb(16,16,16)"/>
<path d="M62 55h1v2h-1v-2z" fill="rgb(16,16,16)"/>
<path d="M33 56h1v3h-1v-3z" fill="rgb(16,16,16)"/>
<path d="M63 57h1v3h-1v-3z" fill="rgb(16,16,16)"/>
<path d="M37 58h2v1h-2v-1z" fill="rgb(24,57,115)"/>
<path d="M32 59h1v2h-1v-2z" fill="rgb(16,16,16)"/>
<path d="M39 59h1v1h-1v-1z" fill="rgb(24,57,115)"/>
<path d="M40 59h2v1h-1v1h-1v-2z" fill="rgb(16,16,16)"/>
<path d="M52 59h3v1h-3v-1z" fill="rgb(16,16,16)"/>
<path d="M42 60h10v1h-10v-1z" fill="rgb(16,16,16)"/>
<path d="M55 60h1v1h-1v-1z" fill="rgb(16,16,16)"/>
<path d="M64 60h1v3h-1v-3z" fill="rgb(16,16,16)"/>
<path d="M31 61h1v2h-1v-2z" fill="rgb(16,16,16)"/>
<path d="M39 61h1v1h-1v-1z" fill="rgb(16,16,16)"/>
<path d="M56 61h1v2h-1v-2z" fill="rgb(16,16,16)"/>
<path d="M38 62h1v1h-1v-1z" fill="rgb(16,16,16)"/>
<path d="M30 63h1v2h-1v-2z" fill="rgb(16,16,16)"/>
<path d="M37 63h1v2h-1v-2z" fill="rgb(16,16,16)"/>
<path d="M57 63h1v2h-1v-2z" fill="rgb(16,16,16)"/>
<path d="M65 63h1v2h-1v-2z" fill="rgb(16,16,16)"/>
<path d="M29 65h1v1h-1v-1z" fill="rgb(16,16,16)"/>
<path d="M36 65h1v3h-1v-3z" fill="rgb(16,16,16)"/>
<path d="M58 65h1v2h-1v-2z" fill="rgb(16,16,16)"/>
<path d="M66 65h1v2h-1v-2z" fill="rgb(16,16,16)"/>
<path d="M26 66h1v1h-1v-1z" fill="rgb(24,57,115)"/>
<path d="M27 66h2v1h-2v-1z" fill="rgb(16,16,16)"/>
<path d="M24 67h2v1h-2v-1z" fill="rgb(24,57,115)"/>
<path d="M26 67h1v1h-1v-1z" fill="rgb(57,90,131)"/>
<path d="M27 67h4v1h1v2h-1v1h-1v1h-6v-1h2v-1h1v-1h-1v-1h1v-1z" fill="rgb(82,131,197)"/>
<path d="M59 67h1v2h-1v-2z" fill="rgb(16,16,16)"/>
<path d="M67 67h1v1h-1v-1z" fill="rgb(16,16,16)"/>
<path d="M23 68h1v1h-1v-1z" fill="rgb(24,57,115)"/>
<path d="M24 68h2v1h1v1h-1v1h-2v-1h-1v-1h1v-1z" fill="rgb(139,164,230)"/>
<path d="M37 68h1v3h-1v-3z" fill="rgb(16,16,16)"/>
<path d="M65 68h5v1h-5v-1z" fill="rgb(24,57,115)"/>
<path d="M22 69h1v1h-1v-1z" fill="rgb(24,57,115)"/>
<path d="M58 69h1v4h-1v-4z" fill="rgb(16,16,16)"/>
<path d="M63 69h2v1h-2v-1z" fill="rgb(24,57,115)"/>
<path d="M65 69h1v1h-1v-1z" fill="rgb(57,90,131)"/>
<path d="M66 69h3v1h2v1h1v2h-1v1h-6v-1h2v-1h1v-1h-1v-1h-1v-1z" fill="rgb(82,131,197)"/>
<path d="M69 69h1v1h-1v-1z" fill="rgb(57,115,172)"/>
<path d="M70 69h2v1h-2v-1z" fill="rgb(24,57,115)"/>
<path d="M21 70h1v3h-1v-3z" fill="rgb(24,57,115)"/>
<path d="M23 70h1v1h-1v-1z" fill="rgb(82,131,197)"/>
<path d="M65 70h2v1h1v1h-1v1h-2v-1h-1v-1h1v-1z" fill="rgb(139,164,230)"/>
<path d="M71 70h1v1h-1v-1z" fill="rgb(57,115,172)"/>
<path d="M72 70h1v1h-1v-1z" fill="rgb(24,57,115)"/>
<path d="M36 71h1v1h-1v-1z" fill="rgb(16,16,16)"/>
<path d="M73 71h1v1h-1v-1z" fill="rgb(24,57,115)"/>
<path d="M34 72h2v1h-2v-1z" fill="rgb(16,16,16)"/>
<path d="M64 72h1v1h-1v-1z" fill="rgb(82,131,197)"/>
<path d="M74 72h1v3h-1v-3z" fill="rgb(24,57,115)"/>
<path d="M22 73h2v1h-2v-1z" fill="rgb(16,16,16)"/>
<path d="M31 73h3v1h-3v-1z" fill="rgb(16,16,16)"/>
<path d="M59 73h1v1h-1v-1z" fill="rgb(16,16,16)"/>
<path d="M24 74h7v1h-7v-1z" fill="rgb(16,16,16)"/>
<path d="M60 74h2v1h-2v-1z" fill="rgb(16,16,16)"/>
<path d="M62 75h3v1h-3v-1z" fill="rgb(16,16,16)"/>
<path d="M73 75h1v1h-1v-1z" fill="rgb(16,16,16)"/>
<path d="M65 76h8v1h-8v-1z" fill="rgb(16,16,16)"/>
</svg>
