<?xml version="1.0" encoding="utf-8"?>
<!-- generated at drububu.com  -->
<!DOCTYPE svg PUBLIC "-//W3C//DTD SVG 1.1//EN" "http://www.w3.org/Graphics/SVG/1.1/DTD/svg11.dtd">
<svg version="1.1" preserveAspectRatio="xMinYMin meet" xmlns="http://www.w3.org/2000/svg" xmlns:xlink="http://www.w3.org/1999/xlink" x="0px" y="0px" width="96px" height="96px" viewBox="0 0 96 96">
<path d="M0 0h96v96h-96v-96z" fill="transparent"/>
<path d="M45 26h2v1h-2v-1z" fill="rgb(131,90,16)"/>
<path d="M44 27h1v3h-1v-3z" fill="rgb(131,90,16)"/>
<path d="M45 27h2v1h2v1h1v1h1v1h3v1h3v1h2v-1h3v1h-1v1h-1v2h-1v3h-1v1h-3v1h-2v1h-1v1h-1v1
	h-3v1h-1v-1h-1v-2h-1v-2h-1v-1h-1v-3h1v-2h1v-1h2v2h1v1h2v-1h1v-1h1v-1h-1v-1h-3
	v-2h-1v-1h-1v-1h-1v-1z" fill="rgb(255,230,41)"/>
<path d="M47 27h1v1h-1v-1z" fill="rgb(131,90,16)"/>
<path d="M48 27h1v1h-1v-1z" fill="rgb(16,16,16)"/>
<path d="M45 28h1v1h-1v-1z" fill="rgb(205,189,32)"/>
<path d="M49 28h1v1h-1v-1z" fill="rgb(131,90,16)"/>
<path d="M45 29h1v1h-1v-1z" fill="rgb(246,246,164)"/>
<path d="M46 29h1v2h-1v-2z" fill="rgb(205,189,32)"/>
<path d="M50 29h1v1h-1v-1z" fill="rgb(131,90,16)"/>
<path d="M45 30h1v1h-1v-1z" fill="rgb(131,90,16)"/>
<path d="M47 30h1v2h-1v-2z" fill="rgb(172,139,24)"/>
<path d="M51 30h3v1h-3v-1z" fill="rgb(131,90,16)"/>
<path d="M62 30h3v1h-3v-1z" fill="rgb(131,90,16)"/>
<path d="M45 31h1v2h-1v-2z" fill="rgb(16,16,16)"/>
<path d="M46 31h1v1h-1v-1z" fill="rgb(246,246,164)"/>
<path d="M54 31h1v1h-1v-1z" fill="rgb(131,90,16)"/>
<path d="M55 31h2v1h-2v-1z" fill="rgb(16,16,16)"/>
<path d="M59 31h3v1h-3v-1z" fill="rgb(131,90,16)"/>
<path d="M62 31h2v1h-2v-1z" fill="rgb(255,230,41)"/>
<path d="M64 31h1v1h-1v-1z" fill="rgb(172,131,41)"/>
<path d="M65 31h1v2h-1v-2z" fill="rgb(16,16,16)"/>
<path d="M46 32h1v1h-1v-1z" fill="rgb(172,139,24)"/>
<path d="M47 32h1v1h-1v-1z" fill="rgb(255,230,41)"/>
<path d="M48 32h3v1h1v1h-1v1h-1v1h-2v-1h-1v-2h1v-1z" fill="rgb(246,246,164)"/>
<path d="M57 32h1v1h-1v-1z" fill="rgb(16,16,16)"/>
<path d="M58 32h1v1h-1v-1z" fill="rgb(131,90,16)"/>
<path d="M62 32h1v1h-1v-1z" fill="rgb(205,189,32)"/>
<path d="M63 32h1v1h-1v-1z" fill="rgb(172,131,41)"/>
<path d="M64 32h1v1h-1v-1z" fill="rgb(246,246,164)"/>
<path d="M44 33h1v1h-1v-1z" fill="rgb(172,139,24)"/>
<path d="M61 33h1v1h-1v-1z" fill="rgb(205,189,32)"/>
<path d="M62 33h2v2h-1v2h-2v-3h1v-1z" fill="rgb(246,246,164)"/>
<path d="M64 33h1v2h-1v-2z" fill="rgb(90,57,8)"/>
<path d="M43 34h1v2h-1v-2z" fill="rgb(172,139,24)"/>
<path d="M60 34h1v1h-1v-1z" fill="rgb(172,131,41)"/>
<path d="M60 35h1v2h1v3h1v3h-2v1h-2v1h-5v1h-2v-1h-1v-2h2v1h3v-1h1v-1h-2v-1h3v-2h1v-2h1
	v-2z" fill="rgb(205,189,32)"/>
<path d="M63 35h1v2h-1v-2z" fill="rgb(90,57,8)"/>
<path d="M42 36h1v1h-1v-1z" fill="rgb(131,90,16)"/>
<path d="M59 36h1v1h-1v-1z" fill="rgb(172,131,41)"/>
<path d="M42 37h1v1h-1v-1z" fill="rgb(90,57,8)"/>
<path d="M45 37h1v1h-1v-1z" fill="rgb(172,131,41)"/>
<path d="M62 37h1v3h-1v-3z" fill="rgb(16,16,16)"/>
<path d="M70 37h3v2h-1v-1h-2v-1z" fill="rgb(172,139,24)"/>
<path d="M42 38h1v1h-1v-1z" fill="rgb(16,16,16)"/>
<path d="M46 38h1v2h-1v-2z" fill="rgb(16,16,16)"/>
<path d="M69 38h1v1h-1v-1z" fill="rgb(172,139,24)"/>
<path d="M70 38h1v1h-1v-1z" fill="rgb(205,189,32)"/>
<path d="M71 38h1v1h-1v-1z" fill="rgb(255,230,41)"/>
<path d="M43 39h1v2h-1v-2z" fill="rgb(16,16,16)"/>
<path d="M68 39h1v1h-1v-1z" fill="rgb(172,139,24)"/>
<path d="M69 39h2v2h-1v2h-1v-1h-1v-1h1v-2z" fill="rgb(255,230,41)"/>
<path d="M71 39h1v1h-1v-1z" fill="rgb(172,139,24)"/>
<path d="M44 40h1v1h-1v-1z" fill="rgb(172,131,41)"/>
<path d="M47 40h1v1h-1v-1z" fill="rgb(16,16,16)"/>
<path d="M55 40h2v1h-2v-1z" fill="rgb(16,16,16)"/>
<path d="M57 40h1v1h-1v-1z" fill="rgb(131,90,16)"/>
<path d="M63 40h1v3h-1v-3z" fill="rgb(16,16,16)"/>
<path d="M68 40h1v1h-1v-1z" fill="rgb(90,57,8)"/>
<path d="M71 40h1v2h-1v-2z" fill="rgb(131,90,16)"/>
<path d="M44 41h1v1h-1v-1z" fill="rgb(16,16,16)"/>
<path d="M47 41h1v1h-1v-1z" fill="rgb(172,131,41)"/>
<path d="M53 41h2v1h-2v-1z" fill="rgb(16,16,16)"/>
<path d="M67 41h1v2h-1v-2z" fill="rgb(90,57,8)"/>
<path d="M70 41h1v1h-1v-1z" fill="rgb(205,189,32)"/>
<path d="M45 42h1v2h-1v-2z" fill="rgb(16,16,16)"/>
<path d="M47 42h1v1h-1v-1z" fill="rgb(205,189,32)"/>
<path d="M52 42h1v1h-1v-1z" fill="rgb(131,90,16)"/>
<path d="M53 42h1v1h-1v-1z" fill="rgb(205,189,32)"/>
<path d="M54 42h3v1h-1v1h-3v-1h1v-1z" fill="rgb(255,230,41)"/>
<path d="M68 42h1v1h-1v-1z" fill="rgb(172,139,24)"/>
<path d="M70 42h1v1h-1v-1z" fill="rgb(131,90,16)"/>
<path d="M43 43h2v1h-2v-1z" fill="rgb(90,57,0)"/>
<path d="M61 43h1v1h-1v-1z" fill="rgb(16,16,16)"/>
<path d="M62 43h1v1h-1v-1z" fill="rgb(90,57,8)"/>
<path d="M66 43h1v3h-1v-3z" fill="rgb(90,57,8)"/>
<path d="M67 43h3v2h-3v-2z" fill="rgb(172,131,41)"/>
<path d="M70 43h1v5h-1v-5z" fill="rgb(90,57,8)"/>
<path d="M42 44h1v1h-1v-1z" fill="rgb(90,57,0)"/>
<path d="M43 44h2v2h-2v-2z" fill="rgb(172,131,41)"/>
<path d="M45 44h1v2h1v1h-1v1h-2v-1h-2v-2h1v1h2v-2z" fill="rgb(131,98,8)"/>
<path d="M46 44h1v2h-1v-2z" fill="rgb(16,16,16)"/>
<path d="M48 44h3v1h-1v1h1v1h-2v-1h-2v-1h1v-1z" fill="rgb(246,246,164)"/>
<path d="M59 44h1v1h-1v-1z" fill="rgb(16,16,16)"/>
<path d="M60 44h1v1h-1v-1z" fill="rgb(90,57,8)"/>
<path d="M41 45h1v2h-1v-2z" fill="rgb(90,57,0)"/>
<path d="M50 45h1v1h-1v-1z" fill="rgb(172,131,41)"/>
<path d="M51 45h1v1h-1v-1z" fill="rgb(246,246,164)"/>
<path d="M54 45h1v1h-1v-1z" fill="rgb(90,57,8)"/>
<path d="M55 45h2v1h-1v3h1v2h-2v-1h-1v-1h-1v-2h-2v-1h4v-1z" fill="rgb(16,16,16)"/>
<path d="M57 45h2v1h-2v-1z" fill="rgb(90,57,8)"/>
<path d="M59 45h2v1h1v2h-3v-1h-1v-1h1v-1z" fill="rgb(172,131,41)"/>
<path d="M61 45h1v1h-1v-1z" fill="rgb(90,57,0)"/>
<path d="M67 45h2v1h1v3h-1v2h-1v1h-2v-1h-1v-1h1v-4h1v-1z" fill="rgb(255,230,41)"/>
<path d="M69 45h1v1h-1v-1z" fill="rgb(131,98,8)"/>
<path d="M47 46h1v1h-1v-1z" fill="rgb(90,57,8)"/>
<path d="M48 46h1v1h-1v-1z" fill="rgb(205,189,32)"/>
<path d="M56 46h2v1h1v1h1v1h-3v-1h-1v-2z" fill="rgb(131,98,8)"/>
<path d="M62 46h1v1h-1v-1z" fill="rgb(90,57,0)"/>
<path d="M65 46h1v4h-1v-4z" fill="rgb(90,57,8)"/>
<path d="M42 47h2v1h-2v-1z" fill="rgb(16,16,16)"/>
<path d="M46 47h3v1h-1v1h-4v-1h2v-1z" fill="rgb(16,16,16)"/>
<path d="M49 47h2v1h-2v-1z" fill="rgb(90,57,8)"/>
<path d="M51 47h1v1h-1v-1z" fill="rgb(131,98,8)"/>
<path d="M52 47h1v1h-1v-1z" fill="rgb(90,57,0)"/>
<path d="M62 47h1v1h-1v-1z" fill="rgb(16,16,16)"/>
<path d="M48 48h1v1h-1v-1z" fill="rgb(90,57,0)"/>
<path d="M49 48h4v2h1v1h-3v-1h-3v-1h1v-1z" fill="rgb(172,131,41)"/>
<path d="M56 48h1v1h-1v-1z" fill="rgb(90,57,0)"/>
<path d="M60 48h2v1h-2v-1z" fill="rgb(16,16,16)"/>
<path d="M70 48h1v4h-1v-4z" fill="rgb(16,16,16)"/>
<path d="M44 49h1v1h-1v-1z" fill="rgb(90,57,8)"/>
<path d="M45 49h1v1h-1v-1z" fill="rgb(205,189,32)"/>
<path d="M46 49h1v1h-1v-1z" fill="rgb(90,57,0)"/>
<path d="M47 49h1v1h-1v-1z" fill="rgb(131,98,8)"/>
<path d="M53 49h1v1h-1v-1z" fill="rgb(90,57,0)"/>
<path d="M57 49h1v1h-1v-1z" fill="rgb(90,57,0)"/>
<path d="M58 49h2v1h-2v-1z" fill="rgb(16,16,16)"/>
<path d="M60 49h1v1h-1v-1z" fill="rgb(90,57,8)"/>
<path d="M69 49h1v4h-1v3h-1v2h-1v1h-1v-1h-1v-3h-1v-1h-1v-1h1v-1h1v-1h1v1h2v-1h1v-2z" fill="rgb(205,189,32)"/>
<path d="M43 50h1v2h-1v-2z" fill="rgb(90,57,8)"/>
<path d="M44 50h1v3h-2v-1h1v-2z" fill="rgb(205,189,32)"/>
<path d="M45 50h1v2h-1v-2z" fill="rgb(131,98,8)"/>
<path d="M46 50h2v1h-2v-1z" fill="rgb(172,131,41)"/>
<path d="M48 50h3v1h-3v-1z" fill="rgb(90,57,0)"/>
<path d="M54 50h1v1h-1v-1z" fill="rgb(90,57,0)"/>
<path d="M57 50h2v1h-2v-1z" fill="rgb(205,189,32)"/>
<path d="M59 50h1v1h-1v-1z" fill="rgb(90,57,8)"/>
<path d="M64 50h1v1h-1v-1z" fill="rgb(16,16,16)"/>
<path d="M27 51h2v1h-2v-1z" fill="rgb(172,139,24)"/>
<path d="M29 51h1v1h-1v-1z" fill="rgb(131,90,16)"/>
<path d="M46 51h1v1h-1v-1z" fill="rgb(90,57,0)"/>
<path d="M47 51h1v1h-1v-1z" fill="rgb(131,98,8)"/>
<path d="M48 51h2v1h2v3h-2v1h-2v1h-2v-1h-1v-2h1v1h2v-2h-2v-1h2v-1z" fill="rgb(255,230,41)"/>
<path d="M50 51h1v1h-1v-1z" fill="rgb(205,189,32)"/>
<path d="M51 51h2v1h-2v-1z" fill="rgb(90,57,0)"/>
<path d="M53 51h3v1h-1v1h-1v-1h-1v-1z" fill="rgb(131,98,8)"/>
<path d="M56 51h1v1h-1v-1z" fill="rgb(90,57,0)"/>
<path d="M57 51h2v1h-2v-1z" fill="rgb(90,57,8)"/>
<path d="M59 51h1v1h-1v-1z" fill="rgb(172,139,24)"/>
<path d="M60 51h1v2h-2v-1h1v-1z" fill="rgb(90,57,8)"/>
<path d="M64 51h1v1h-1v-1z" fill="rgb(90,57,8)"/>
<path d="M26 52h1v1h-1v-1z" fill="rgb(131,90,16)"/>
<path d="M27 52h3v2h-2v-1h-1v-1z" fill="rgb(255,230,41)"/>
<path d="M30 52h1v1h-1v-1z" fill="rgb(16,16,16)"/>
<path d="M41 52h1v1h-1v-1z" fill="rgb(90,57,8)"/>
<path d="M42 52h1v1h-1v-1z" fill="rgb(16,16,16)"/>
<path d="M45 52h1v1h-1v-1z" fill="rgb(16,16,16)"/>
<path d="M52 52h1v1h1v2h-2v-3z" fill="rgb(205,189,32)"/>
<path d="M53 52h1v1h-1v-1z" fill="rgb(90,57,0)"/>
<path d="M55 52h1v1h-1v-1z" fill="rgb(16,16,16)"/>
<path d="M56 52h3v1h-2v1h-1v-2z" fill="rgb(255,230,41)"/>
<path d="M61 52h1v1h1v1h-2v-2z" fill="rgb(16,16,16)"/>
<path d="M62 52h1v1h-1v-1z" fill="rgb(90,57,8)"/>
<path d="M63 52h1v1h-1v-1z" fill="rgb(131,90,16)"/>
<path d="M70 52h1v1h-1v-1z" fill="rgb(90,57,8)"/>
<path d="M23 53h2v1h-2v-1z" fill="rgb(172,139,24)"/>
<path d="M25 53h1v1h-1v-1z" fill="rgb(131,90,16)"/>
<path d="M26 53h1v1h-1v-1z" fill="transparent"/>
<path d="M27 53h1v1h-1v-1z" fill="rgb(90,57,8)"/>
<path d="M30 53h1v1h-1v-1z" fill="rgb(131,90,16)"/>
<path d="M39 53h2v1h-2v-1z" fill="rgb(90,57,8)"/>
<path d="M41 53h2v1h1v1h-2v1h-3v-2h2v-1z" fill="rgb(205,189,32)"/>
<path d="M43 53h2v2h-1v-1h-1v-1z" fill="rgb(16,16,16)"/>
<path d="M45 53h1v1h-1v-1z" fill="rgb(205,189,32)"/>
<path d="M46 53h2v2h-2v-2z" fill="rgb(246,246,164)"/>
<path d="M54 53h1v2h-1v-2z" fill="rgb(16,16,16)"/>
<path d="M55 53h1v1h1v2h-2v-3z" fill="rgb(205,189,32)"/>
<path d="M57 53h1v1h-1v-1z" fill="rgb(205,189,32)"/>
<path d="M58 53h1v1h-1v-1z" fill="rgb(90,57,8)"/>
<path d="M59 53h2v1h-2v-1z" fill="rgb(172,139,24)"/>
<path d="M69 53h1v1h-1v-1z" fill="rgb(90,57,8)"/>
<path d="M22 54h1v1h-1v-1z" fill="rgb(131,90,16)"/>
<path d="M23 54h2v1h-2v-1z" fill="rgb(255,230,41)"/>
<path d="M25 54h1v1h1v1h1v1h-1v1h-1v-2h-1v-2z" fill="rgb(205,189,32)"/>
<path d="M26 54h1v1h-1v-1z" fill="rgb(131,90,16)"/>
<path d="M27 54h1v1h-1v-1z" fill="transparent"/>
<path d="M28 54h1v2h-2v-1h1v-1z" fill="rgb(90,57,8)"/>
<path d="M29 54h1v1h-1v-1z" fill="rgb(172,139,24)"/>
<path d="M30 54h1v2h-2v-1h1v-1z" fill="rgb(205,189,32)"/>
<path d="M31 54h1v2h-1v-2z" fill="rgb(16,16,16)"/>
<path d="M38 54h1v1h-1v-1z" fill="rgb(90,57,8)"/>
<path d="M57 54h1v1h1v1h-2v-2z" fill="rgb(16,16,16)"/>
<path d="M58 54h1v1h-1v-1z" fill="rgb(172,139,24)"/>
<path d="M59 54h2v1h-2v-1z" fill="rgb(16,16,16)"/>
<path d="M61 54h2v1h1v1h-4v-1h1v-1z" fill="rgb(255,230,41)"/>
<path d="M63 54h1v1h-1v-1z" fill="rgb(16,16,16)"/>
<path d="M69 54h1v1h-1v-1z" fill="rgb(16,16,16)"/>
<path d="M23 55h1v1h-1v-1z" fill="rgb(90,57,8)"/>
<path d="M24 55h1v1h-1v-1z" fill="rgb(131,90,16)"/>
<path d="M36 55h3v1h-3v-1z" fill="rgb(172,139,24)"/>
<path d="M42 55h2v2h1v3h1v1h-4v-1h2v-1h-1v-3h-1v-1z" fill="rgb(16,16,16)"/>
<path d="M44 55h1v1h-1v-1z" fill="rgb(205,189,32)"/>
<path d="M50 55h3v1h-3v-1z" fill="rgb(131,90,16)"/>
<path d="M53 55h1v4h-1v-4z" fill="rgb(16,16,16)"/>
<path d="M54 55h1v1h1v5h-1v2h-1v1h-1v-4h1v-5z" fill="rgb(255,230,41)"/>
<path d="M59 55h1v1h2v1h-1v1h-1v-1h-1v1h1v2h-1v3h-1v2h-1v1h-1v-1h-1v1h-1v-1h-1v-1h1v-1h1
	v-2h1v-4h2v-1h1v-1z" fill="rgb(205,189,32)"/>
<path d="M64 55h1v2h-3v-1h2v-1z" fill="rgb(16,16,16)"/>
<path d="M69 55h1v1h-1v-1z" fill="rgb(90,57,8)"/>
<path d="M25 56h1v1h-1v-1z" fill="rgb(131,90,16)"/>
<path d="M28 56h1v1h-1v-1z" fill="rgb(131,90,16)"/>
<path d="M29 56h2v1h1v6h-1v-1h-3v-3h-1v-1h1v-1h1v-1z" fill="rgb(255,230,41)"/>
<path d="M31 56h1v1h-1v-1z" fill="rgb(131,90,16)"/>
<path d="M35 56h1v1h-1v-1z" fill="rgb(172,139,24)"/>
<path d="M36 56h2v1h1v1h-2v1h-3v-1h1v-1h1v-1z" fill="rgb(255,230,41)"/>
<path d="M38 56h1v1h-1v-1z" fill="rgb(205,189,32)"/>
<path d="M39 56h1v2h-1v-2z" fill="rgb(16,16,16)"/>
<path d="M40 56h2v1h-2v-1z" fill="rgb(90,57,0)"/>
<path d="M42 56h1v3h1v1h-2v-1h-1v-1h-1v-1h2v-1z" fill="rgb(205,189,32)"/>
<path d="M44 56h1v1h-1v-1z" fill="rgb(131,90,16)"/>
<path d="M45 56h1v1h2v4h-2v-1h-1v-4z" fill="rgb(205,189,32)"/>
<path d="M48 56h1v1h-1v-1z" fill="rgb(205,189,32)"/>
<path d="M49 56h1v1h-1v-1z" fill="rgb(131,90,16)"/>
<path d="M50 56h2v1h-2v-1z" fill="rgb(16,16,16)"/>
<path d="M52 56h1v4h-1v1h-1v-1h-1v-2h1v-1h1v-1z" fill="rgb(255,230,41)"/>
<path d="M56 56h2v1h-2v-1z" fill="rgb(131,90,16)"/>
<path d="M68 56h1v1h-1v-1z" fill="rgb(16,16,16)"/>
<path d="M25 57h1v1h-1v-1z" fill="rgb(90,57,8)"/>
<path d="M27 57h1v1h-1v-1z" fill="rgb(172,139,24)"/>
<path d="M32 57h1v2h-1v-2z" fill="rgb(16,16,16)"/>
<path d="M33 57h2v1h-2v-1z" fill="rgb(131,90,16)"/>
<path d="M48 57h1v1h-1v-1z" fill="rgb(131,90,16)"/>
<path d="M49 57h1v5h-4v-1h3v-1h-1v-2h1v-1z" fill="rgb(16,16,16)"/>
<path d="M50 57h1v1h-1v-1z" fill="rgb(131,90,16)"/>
<path d="M59 57h1v1h-1v-1z" fill="rgb(131,90,16)"/>
<path d="M61 57h1v1h-1v-1z" fill="rgb(16,16,16)"/>
<path d="M62 57h2v1h1v2h-1v1h-1v-1h-2v-2h1v-1z" fill="rgb(205,189,32)"/>
<path d="M64 57h1v1h-1v-1z" fill="rgb(90,57,8)"/>
<path d="M68 57h1v1h-1v-1z" fill="rgb(90,57,8)"/>
<path d="M26 58h1v2h-1v-2z" fill="rgb(16,16,16)"/>
<path d="M33 58h1v1h3v-1h3v3h-2v1h-4v-1h-1v-3z" fill="rgb(205,189,32)"/>
<path d="M40 58h1v1h-1v-1z" fill="rgb(131,90,16)"/>
<path d="M60 58h1v2h-1v-2z" fill="rgb(16,16,16)"/>
<path d="M65 58h1v2h-1v-2z" fill="rgb(90,57,8)"/>
<path d="M67 58h1v1h-1v-1z" fill="rgb(16,16,16)"/>
<path d="M27 59h1v1h-1v-1z" fill="rgb(205,189,32)"/>
<path d="M32 59h1v1h-1v-1z" fill="rgb(131,90,16)"/>
<path d="M40 59h1v1h-1v-1z" fill="rgb(90,57,8)"/>
<path d="M41 59h1v1h-1v-1z" fill="rgb(16,16,16)"/>
<path d="M53 59h1v1h-1v-1z" fill="rgb(131,90,16)"/>
<path d="M66 59h1v1h-1v-1z" fill="rgb(16,16,16)"/>
<path d="M27 60h1v1h-1v-1z" fill="rgb(131,90,16)"/>
<path d="M32 60h1v1h-1v-1z" fill="rgb(172,139,24)"/>
<path d="M40 60h1v1h-1v-1z" fill="rgb(16,16,16)"/>
<path d="M48 60h1v1h-1v-1z" fill="rgb(172,139,24)"/>
<path d="M50 60h1v1h-1v-1z" fill="rgb(205,189,32)"/>
<path d="M52 60h1v4h-2v-1h1v-3z" fill="rgb(16,16,16)"/>
<path d="M59 60h1v2h1v-1h1v2h-3v-3z" fill="rgb(16,16,16)"/>
<path d="M60 60h1v2h-1v-2z" fill="rgb(172,139,24)"/>
<path d="M61 60h2v1h-2v-1z" fill="rgb(131,90,16)"/>
<path d="M64 60h2v1h-2v-1z" fill="rgb(131,90,16)"/>
<path d="M27 61h1v1h-1v-1z" fill="rgb(16,16,16)"/>
<path d="M32 61h1v2h-1v-2z" fill="rgb(205,189,32)"/>
<path d="M33 61h1v1h-1v-1z" fill="rgb(172,139,24)"/>
<path d="M38 61h2v1h-2v-1z" fill="rgb(16,16,16)"/>
<path d="M50 61h1v1h-1v-1z" fill="rgb(131,90,16)"/>
<path d="M51 61h1v2h-1v-2z" fill="rgb(205,189,32)"/>
<path d="M62 61h1v1h1v1h-2v-2z" fill="rgb(205,189,32)"/>
<path d="M63 61h1v1h-1v-1z" fill="rgb(90,57,8)"/>
<path d="M64 61h2v1h-2v-1z" fill="rgb(205,189,32)"/>
<path d="M66 61h1v1h-1v-1z" fill="rgb(90,57,8)"/>
<path d="M28 62h1v1h-1v-1z" fill="rgb(16,16,16)"/>
<path d="M29 62h1v1h-1v-1z" fill="rgb(172,139,24)"/>
<path d="M30 62h1v1h-1v-1z" fill="rgb(205,189,32)"/>
<path d="M33 62h5v1h-4v1h-1v-2z" fill="rgb(16,16,16)"/>
<path d="M50 62h1v1h-1v-1z" fill="rgb(16,16,16)"/>
<path d="M64 62h3v1h-3v-1z" fill="rgb(16,16,16)"/>
<path d="M28 63h1v1h-1v-1z" fill="rgb(131,90,16)"/>
<path d="M29 63h2v2h-1v1h-3v-1h1v-1h1v-1z" fill="rgb(255,230,41)"/>
<path d="M31 63h1v2h-1v-2z" fill="rgb(205,189,32)"/>
<path d="M32 63h1v1h-1v-1z" fill="rgb(131,90,16)"/>
<path d="M58 63h1v3h-1v-3z" fill="rgb(16,16,16)"/>
<path d="M62 63h2v1h-2v-1z" fill="rgb(16,16,16)"/>
<path d="M27 64h1v1h-1v-1z" fill="rgb(131,90,16)"/>
<path d="M32 64h1v1h-1v-1z" fill="rgb(16,16,16)"/>
<path d="M52 64h1v1h-1v-1z" fill="rgb(90,57,8)"/>
<path d="M26 65h1v1h-1v-1z" fill="rgb(131,90,16)"/>
<path d="M30 65h1v1h-1v-1z" fill="rgb(131,90,16)"/>
<path d="M31 65h1v1h-1v-1z" fill="rgb(16,16,16)"/>
<path d="M53 65h1v2h-1v-2z" fill="rgb(16,16,16)"/>
<path d="M55 65h1v1h-1v-1z" fill="rgb(131,90,16)"/>
<path d="M57 65h1v1h-1v-1z" fill="rgb(131,90,16)"/>
<path d="M27 66h3v1h-3v-1z" fill="rgb(16,16,16)"/>
<path d="M54 66h1v1h-1v-1z" fill="rgb(131,90,16)"/>
<path d="M55 66h2v1h1v2h-1v-1h-2v-2z" fill="rgb(255,230,41)"/>
<path d="M57 66h1v1h-1v-1z" fill="rgb(90,57,8)"/>
<path d="M54 67h1v1h-1v-1z" fill="rgb(16,16,16)"/>
<path d="M58 67h1v3h-3v-1h2v-2z" fill="rgb(16,16,16)"/>
<path d="M55 68h1v1h-1v-1z" fill="rgb(16,16,16)"/>
<path d="M56 68h1v1h-1v-1z" fill="rgb(205,189,32)"/>
</svg>
