<?xml version="1.0" encoding="utf-8"?>
<!-- generated at drububu.com  -->
<!DOCTYPE svg PUBLIC "-//W3C//DTD SVG 1.1//EN" "http://www.w3.org/Graphics/SVG/1.1/DTD/svg11.dtd">
<svg version="1.1" preserveAspectRatio="xMinYMin meet" xmlns="http://www.w3.org/2000/svg" xmlns:xlink="http://www.w3.org/1999/xlink" x="0px" y="0px" width="96px" height="96px" viewBox="0 0 96 96">
<path d="M0 0h96v96h-96v-96z" fill="transparent"/>
<path d="M29 22h2v1h-2v-1z" fill="rgb(139,115,16)"/>
<path d="M50 22h2v1h-2v-1z" fill="rgb(98,74,8)"/>
<path d="M29 23h1v2h-1v-2z" fill="rgb(98,74,8)"/>
<path d="M30 23h1v1h1v1h1v1h1v1h1v1h1v1h2v1h-3v1h-2v-3h-1v-2h-1v-1h-1v-2z" fill="rgb(255,238,41)"/>
<path d="M31 23h2v1h-2v-1z" fill="rgb(139,115,16)"/>
<path d="M48 23h2v1h-2v-1z" fill="rgb(139,115,16)"/>
<path d="M50 23h1v2h-1v1h-1v1h-1v-1h-1v-1h1v-1h2v-1z" fill="rgb(255,238,41)"/>
<path d="M51 23h1v3h-1v-3z" fill="rgb(16,16,16)"/>
<path d="M32 24h1v1h-1v-1z" fill="rgb(213,189,8)"/>
<path d="M33 24h1v1h-1v-1z" fill="rgb(98,74,8)"/>
<path d="M47 24h1v1h-1v-1z" fill="rgb(139,115,16)"/>
<path d="M29 25h1v2h-1v-2z" fill="rgb(16,16,16)"/>
<path d="M30 25h1v2h-1v-2z" fill="rgb(213,189,8)"/>
<path d="M33 25h1v1h-1v-1z" fill="rgb(213,189,8)"/>
<path d="M34 25h1v1h-1v-1z" fill="rgb(98,74,8)"/>
<path d="M46 25h1v1h-1v-1z" fill="rgb(139,115,16)"/>
<path d="M50 25h1v1h-1v-1z" fill="rgb(213,189,8)"/>
<path d="M31 26h1v2h-1v-2z" fill="rgb(139,115,16)"/>
<path d="M34 26h1v1h-1v-1z" fill="rgb(213,189,8)"/>
<path d="M35 26h1v2h-1v-2z" fill="rgb(98,74,8)"/>
<path d="M45 26h1v1h-1v-1z" fill="rgb(98,74,8)"/>
<path d="M46 26h1v1h-1v-1z" fill="rgb(255,238,41)"/>
<path d="M47 26h1v1h-1v-1z" fill="rgb(255,255,189)"/>
<path d="M49 26h1v1h-1v-1z" fill="rgb(139,115,16)"/>
<path d="M50 26h1v1h-1v-1z" fill="rgb(255,238,41)"/>
<path d="M51 26h1v1h-1v-1z" fill="rgb(98,74,8)"/>
<path d="M30 27h1v1h-1v-1z" fill="rgb(98,74,8)"/>
<path d="M43 27h2v1h-2v-1z" fill="rgb(98,74,8)"/>
<path d="M45 27h1v1h-1v-1z" fill="rgb(255,238,41)"/>
<path d="M46 27h1v1h-1v-1z" fill="rgb(255,255,189)"/>
<path d="M47 27h1v1h-1v-1z" fill="rgb(255,238,41)"/>
<path d="M48 27h1v1h-1v-1z" fill="rgb(139,115,16)"/>
<path d="M49 27h1v2h-1v2h-2v-1h1v-2h1v-1z" fill="rgb(213,189,8)"/>
<path d="M50 27h1v3h-1v-3z" fill="rgb(16,16,16)"/>
<path d="M30 28h1v2h-1v-2z" fill="rgb(16,16,16)"/>
<path d="M31 28h1v2h-1v-2z" fill="rgb(213,189,8)"/>
<path d="M32 28h1v2h-1v-2z" fill="rgb(139,115,16)"/>
<path d="M36 28h1v1h-1v-1z" fill="rgb(98,74,8)"/>
<path d="M37 28h1v1h-1v-1z" fill="rgb(139,115,16)"/>
<path d="M41 28h2v1h-2v-1z" fill="rgb(98,74,8)"/>
<path d="M43 28h1v1h-1v-1z" fill="rgb(255,238,41)"/>
<path d="M44 28h2v2h-3v-1h1v-1z" fill="rgb(255,255,189)"/>
<path d="M46 28h1v2h-1v-2z" fill="rgb(255,238,41)"/>
<path d="M47 28h1v2h-1v-2z" fill="rgb(139,115,16)"/>
<path d="M38 29h3v1h-3v-1z" fill="rgb(139,115,16)"/>
<path d="M41 29h2v1h3v1h1v1h1v2h-1v-1h-1v1h1v1h-1v1h-3v1h-2v1h-2v2h-1v7h-2v-8h-1v-1h-1
	v-1h-1v-2h1v1h1v-1h1v2h1v-1h1v1h1v-2h1v-1h-2v-2h2v-1h1v-2z" fill="rgb(255,238,41)"/>
<path d="M49 29h1v1h-1v-1z" fill="rgb(255,238,41)"/>
<path d="M64 29h2v1h-2v-1z" fill="rgb(98,74,8)"/>
<path d="M66 29h1v1h-1v-1z" fill="rgb(16,16,16)"/>
<path d="M31 30h1v1h-1v-1z" fill="rgb(98,74,8)"/>
<path d="M32 30h1v1h-1v-1z" fill="rgb(213,189,8)"/>
<path d="M35 30h6v1h-1v1h-2v-1h-1v2h-1v1h-2v1h-1v-4h2v-1z" fill="rgb(255,255,189)"/>
<path d="M46 30h1v1h-1v-1z" fill="rgb(139,115,16)"/>
<path d="M49 30h1v2h-1v-2z" fill="rgb(16,16,16)"/>
<path d="M63 30h1v1h-1v-1z" fill="rgb(139,115,16)"/>
<path d="M64 30h3v2h-1v-1h-2v-1z" fill="rgb(255,238,41)"/>
<path d="M67 30h1v2h-1v-2z" fill="rgb(16,16,16)"/>
<path d="M70 30h2v1h-2v-1z" fill="rgb(98,74,8)"/>
<path d="M18 31h4v1h-4v-1z" fill="rgb(16,16,16)"/>
<path d="M31 31h1v2h-1v-2z" fill="rgb(16,16,16)"/>
<path d="M32 31h1v1h-1v-1z" fill="rgb(139,115,16)"/>
<path d="M37 31h1v1h-1v-1z" fill="rgb(255,238,41)"/>
<path d="M47 31h2v1h-2v-1z" fill="rgb(139,115,16)"/>
<path d="M51 31h6v1h-6v-1z" fill="rgb(90,57,8)"/>
<path d="M62 31h1v3h-1v-3z" fill="rgb(90,90,90)"/>
<path d="M63 31h2v1h-1v1h-1v-2z" fill="rgb(255,255,255)"/>
<path d="M65 31h1v1h-1v-1z" fill="rgb(139,115,16)"/>
<path d="M69 31h1v1h-1v-1z" fill="rgb(139,115,16)"/>
<path d="M70 31h2v3h-1v-1h-1v-2z" fill="rgb(255,238,41)"/>
<path d="M72 31h1v1h-1v-1z" fill="rgb(98,74,8)"/>
<path d="M17 32h1v2h-1v-2z" fill="rgb(16,16,16)"/>
<path d="M18 32h1v1h-1v-1z" fill="rgb(90,90,90)"/>
<path d="M19 32h2v1h-2v-1z" fill="rgb(180,180,180)"/>
<path d="M21 32h1v1h-1v-1z" fill="rgb(90,90,90)"/>
<path d="M22 32h1v2h-1v-2z" fill="rgb(16,16,16)"/>
<path d="M28 32h3v2h-1v-1h-2v-1z" fill="rgb(90,57,8)"/>
<path d="M32 32h1v3h-1v-1h-1v-1h1v-1z" fill="rgb(255,238,41)"/>
<path d="M37 32h1v2h2v1h-1v2h-1v-1h-1v1h-1v-2h-1v-1h2v-2z" fill="rgb(230,57,41)"/>
<path d="M48 32h1v1h1v2h1v1h1v3h-1v1h-2v1h-2v1h-2v1h-1v1h-1v-1h-2v1h2v1h2v1h2v1h-1v1h-2
	v-1h-1v-1h-1v-1h-2v1h1v1h-1v1h-1v-1h-1v-1h1v-5h3v-1h4v-3h1v-1h1v-4z" fill="rgb(213,189,8)"/>
<path d="M49 32h2v2h-1v-1h-1v-1z" fill="rgb(90,57,8)"/>
<path d="M51 32h2v1h-1v2h-1v-3z" fill="rgb(123,82,8)"/>
<path d="M53 32h4v1h2v2h-1v1h-4v-1h-2v-2h1v-1z" fill="rgb(164,115,41)"/>
<path d="M57 32h2v1h-2v-1z" fill="rgb(90,57,8)"/>
<path d="M64 32h1v1h-1v-1z" fill="rgb(222,222,222)"/>
<path d="M65 32h1v1h-1v-1z" fill="rgb(16,16,16)"/>
<path d="M66 32h1v1h1v3h-2v-2h-1v-1h1v-1z" fill="rgb(213,189,8)"/>
<path d="M67 32h1v1h-1v-1z" fill="rgb(255,238,41)"/>
<path d="M68 32h1v1h-1v-1z" fill="rgb(98,74,8)"/>
<path d="M69 32h1v1h-1v-1z" fill="rgb(213,189,8)"/>
<path d="M72 32h1v2h-1v-2z" fill="rgb(16,16,16)"/>
<path d="M18 33h1v1h-1v-1z" fill="rgb(222,222,222)"/>
<path d="M19 33h1v2h-1v2h-1v-3h1v-1z" fill="rgb(255,255,255)"/>
<path d="M20 33h2v6h-1v1h-2v-1h-1v-2h1v-2h1v-2z" fill="rgb(222,222,222)"/>
<path d="M26 33h2v1h-2v-1z" fill="rgb(90,57,8)"/>
<path d="M28 33h2v2h-1v1h-1v3h-3v-1h-1v-1h1v-2h1v-1h2v-1z" fill="rgb(164,115,41)"/>
<path d="M36 33h1v1h-1v-1z" fill="rgb(255,238,41)"/>
<path d="M46 33h1v1h-1v-1z" fill="rgb(213,189,8)"/>
<path d="M59 33h1v1h-1v-1z" fill="rgb(90,57,8)"/>
<path d="M63 33h2v1h-2v-1z" fill="rgb(16,16,16)"/>
<path d="M68 33h1v3h-1v-3z" fill="rgb(90,90,90)"/>
<path d="M69 33h1v3h-1v-3z" fill="rgb(255,255,255)"/>
<path d="M70 33h1v1h-1v-1z" fill="rgb(139,115,16)"/>
<path d="M16 34h1v4h-1v-4z" fill="rgb(16,16,16)"/>
<path d="M17 34h1v4h-1v-4z" fill="rgb(180,180,180)"/>
<path d="M22 34h1v4h-1v-4z" fill="rgb(180,180,180)"/>
<path d="M23 34h1v4h-1v-4z" fill="rgb(16,16,16)"/>
<path d="M25 34h1v1h-1v-1z" fill="rgb(90,57,8)"/>
<path d="M30 34h1v1h-1v-1z" fill="rgb(98,74,8)"/>
<path d="M31 34h1v1h-1v-1z" fill="rgb(213,189,8)"/>
<path d="M34 34h1v1h-1v-1z" fill="rgb(255,238,41)"/>
<path d="M47 34h1v1h-1v-1z" fill="rgb(139,115,16)"/>
<path d="M50 34h1v1h-1v-1z" fill="rgb(16,16,16)"/>
<path d="M59 34h1v2h1v1h1v1h-1v1h-3v1h-3v1h-2v1h-4v-1h2v-1h1v-1h1v-3h-1v-1h2v1h4v-1h1v-1
	z" fill="rgb(123,82,8)"/>
<path d="M60 34h1v2h-1v-2z" fill="rgb(90,57,8)"/>
<path d="M65 34h1v2h-1v-2z" fill="rgb(16,16,16)"/>
<path d="M70 34h1v1h-1v-1z" fill="rgb(222,222,222)"/>
<path d="M71 34h1v1h-1v-1z" fill="rgb(16,16,16)"/>
<path d="M72 34h1v1h-1v-1z" fill="rgb(98,74,8)"/>
<path d="M24 35h1v2h-1v-2z" fill="rgb(90,57,8)"/>
<path d="M29 35h1v1h-1v-1z" fill="rgb(90,57,8)"/>
<path d="M30 35h1v4h2v1h1v1h1v2h-1v-1h-1v-1h-2v-1h-1v-1h-1v-2h1v-2z" fill="rgb(255,238,41)"/>
<path d="M31 35h1v4h-1v-4z" fill="rgb(139,115,16)"/>
<path d="M32 35h1v1h-1v-1z" fill="rgb(213,189,8)"/>
<path d="M34 35h1v1h-1v-1z" fill="rgb(255,255,189)"/>
<path d="M46 35h1v1h-1v-1z" fill="rgb(213,189,8)"/>
<path d="M47 35h1v1h-1v-1z" fill="rgb(98,74,8)"/>
<path d="M51 35h1v1h-1v-1z" fill="rgb(16,16,16)"/>
<path d="M70 35h1v1h-1v-1z" fill="rgb(16,16,16)"/>
<path d="M71 35h2v3h-1v2h-2v1h-3v2h-1v1h-1v1h-2v-1h-1v-1h1v-1h3v-1h-2v-1h4v-1h1v-1h1v-2
	h1v-1z" fill="rgb(213,189,8)"/>
<path d="M73 35h1v1h-1v-1z" fill="rgb(98,74,8)"/>
<path d="M28 36h1v3h-1v-3z" fill="rgb(90,57,8)"/>
<path d="M29 36h1v1h-1v-1z" fill="rgb(213,189,8)"/>
<path d="M32 36h1v1h-1v-1z" fill="rgb(98,74,8)"/>
<path d="M43 36h1v1h-1v-1z" fill="rgb(213,189,8)"/>
<path d="M44 36h3v1h-3v-1z" fill="rgb(98,74,8)"/>
<path d="M52 36h1v3h-1v-3z" fill="rgb(16,16,16)"/>
<path d="M61 36h1v1h-1v-1z" fill="rgb(90,57,8)"/>
<path d="M65 36h1v1h-1v-1z" fill="rgb(98,74,8)"/>
<path d="M66 36h2v1h2v1h-1v1h-1v1h-4v-2h1v-1h1v-1z" fill="rgb(255,238,41)"/>
<path d="M68 36h1v1h-1v-1z" fill="rgb(213,189,8)"/>
<path d="M69 36h1v1h-1v-1z" fill="rgb(16,16,16)"/>
<path d="M73 36h1v2h-1v-2z" fill="rgb(16,16,16)"/>
<path d="M32 37h1v2h-1v-2z" fill="rgb(255,255,255)"/>
<path d="M33 37h1v1h-1v-1z" fill="rgb(139,115,16)"/>
<path d="M41 37h1v1h-1v-1z" fill="rgb(213,189,8)"/>
<path d="M42 37h2v1h-2v-1z" fill="rgb(98,74,8)"/>
<path d="M44 37h1v1h-1v-1z" fill="rgb(222,222,222)"/>
<path d="M45 37h1v1h-1v-1z" fill="rgb(16,16,16)"/>
<path d="M62 37h1v1h-1v-1z" fill="rgb(90,57,8)"/>
<path d="M63 37h1v1h-1v-1z" fill="rgb(16,16,16)"/>
<path d="M64 37h1v1h-1v-1z" fill="rgb(98,74,8)"/>
<path d="M17 38h1v2h-1v-2z" fill="rgb(16,16,16)"/>
<path d="M22 38h1v2h2v1h4v1h-3v2h-1v-2h-1v-1h-3v-1h1v-2z" fill="rgb(16,16,16)"/>
<path d="M23 38h2v1h4v1h1v1h1v1h2v1h1v1h-2v-1h-2v-1h-1v-1h-4v-1h-2v-2z" fill="rgb(123,82,8)"/>
<path d="M33 38h1v2h-1v-2z" fill="rgb(16,16,16)"/>
<path d="M34 38h1v1h-1v-1z" fill="rgb(139,115,16)"/>
<path d="M39 38h1v1h-1v-1z" fill="rgb(213,189,8)"/>
<path d="M40 38h1v1h-1v-1z" fill="rgb(98,74,8)"/>
<path d="M41 38h1v2h-1v-2z" fill="rgb(16,16,16)"/>
<path d="M42 38h3v1h-1v1h-2v-2z" fill="rgb(255,255,255)"/>
<path d="M45 38h1v2h-2v-1h1v-1z" fill="rgb(139,115,16)"/>
<path d="M61 38h2v1h-2v-1z" fill="rgb(16,16,16)"/>
<path d="M63 38h1v1h-1v-1z" fill="rgb(180,180,180)"/>
<path d="M72 38h1v2h-1v-2z" fill="rgb(16,16,16)"/>
<path d="M18 39h1v1h-1v-1z" fill="rgb(180,180,180)"/>
<path d="M21 39h1v1h-1v-1z" fill="rgb(180,180,180)"/>
<path d="M29 39h1v1h-1v-1z" fill="rgb(16,16,16)"/>
<path d="M34 39h1v1h-1v-1z" fill="rgb(255,255,255)"/>
<path d="M35 39h1v1h-1v-1z" fill="rgb(213,189,8)"/>
<path d="M39 39h1v2h-1v-2z" fill="rgb(98,74,8)"/>
<path d="M40 39h1v2h-1v-2z" fill="rgb(180,180,180)"/>
<path d="M51 39h1v1h-1v-1z" fill="rgb(16,16,16)"/>
<path d="M58 39h3v1h-3v-1z" fill="rgb(16,16,16)"/>
<path d="M61 39h3v1h-3v-1z" fill="rgb(255,255,255)"/>
<path d="M18 40h1v1h-1v-1z" fill="rgb(16,16,16)"/>
<path d="M19 40h2v2h-1v1h-1v-3z" fill="rgb(180,180,180)"/>
<path d="M30 40h1v1h-1v-1z" fill="rgb(16,16,16)"/>
<path d="M34 40h1v1h-1v-1z" fill="rgb(213,189,8)"/>
<path d="M35 40h1v3h-1v-3z" fill="rgb(139,115,16)"/>
<path d="M38 40h1v1h-1v-1z" fill="rgb(213,189,8)"/>
<path d="M41 40h1v1h-1v-1z" fill="rgb(139,115,16)"/>
<path d="M49 40h2v1h-2v-1z" fill="rgb(16,16,16)"/>
<path d="M55 40h3v1h-2v1h-3v-1h2v-1z" fill="rgb(16,16,16)"/>
<path d="M58 40h2v1h-2v-1z" fill="rgb(139,115,16)"/>
<path d="M60 40h1v1h1v2h-3v-1h-2v-1h3v-1z" fill="rgb(213,189,8)"/>
<path d="M61 40h1v1h-1v-1z" fill="rgb(16,16,16)"/>
<path d="M62 40h2v1h-2v-1z" fill="rgb(222,222,222)"/>
<path d="M70 40h2v1h-2v-1z" fill="rgb(16,16,16)"/>
<path d="M16 41h2v1h-2v-1z" fill="rgb(98,74,8)"/>
<path d="M18 41h1v1h-1v-1z" fill="rgb(213,189,8)"/>
<path d="M21 41h1v1h-1v-1z" fill="rgb(90,90,90)"/>
<path d="M22 41h2v2h-2v1h-2v-1h1v-1h1v-1z" fill="rgb(255,238,41)"/>
<path d="M31 41h2v1h-2v-1z" fill="rgb(16,16,16)"/>
<path d="M38 41h1v5h-1v-5z" fill="rgb(139,115,16)"/>
<path d="M47 41h2v1h-2v-1z" fill="rgb(16,16,16)"/>
<path d="M56 41h1v1h-1v-1z" fill="rgb(139,115,16)"/>
<path d="M62 41h4v1h-4v-1z" fill="rgb(16,16,16)"/>
<path d="M67 41h3v1h-2v1h-1v-2z" fill="rgb(16,16,16)"/>
<path d="M15 42h1v2h-1v-2z" fill="rgb(98,74,8)"/>
<path d="M16 42h2v1h1v1h-1v1h-1v-1h-1v-2z" fill="rgb(255,238,41)"/>
<path d="M18 42h1v1h-1v-1z" fill="rgb(16,16,16)"/>
<path d="M20 42h1v1h-1v-1z" fill="rgb(90,90,90)"/>
<path d="M24 42h1v2h-2v1h-1v-2h2v-1z" fill="rgb(213,189,8)"/>
<path d="M26 42h3v1h1v1h-1v1h-1v-2h-2v-1z" fill="rgb(139,115,16)"/>
<path d="M29 42h1v1h-1v-1z" fill="rgb(90,57,8)"/>
<path d="M33 42h1v1h-1v-1z" fill="rgb(16,16,16)"/>
<path d="M45 42h2v1h-2v-1z" fill="rgb(16,16,16)"/>
<path d="M47 42h2v1h2v2h-1v1h-1v1h-1v-1h-1v-1h-2v-2h2v-1z" fill="rgb(123,82,8)"/>
<path d="M49 42h4v1h-1v2h-1v-2h-2v-1z" fill="rgb(16,16,16)"/>
<path d="M53 42h3v1h3v1h-1v1h-6v-2h1v-1z" fill="transparent"/>
<path d="M56 42h3v1h-3v-1z" fill="rgb(16,16,16)"/>
<path d="M62 42h1v1h-1v-1z" fill="rgb(98,74,8)"/>
<path d="M68 42h2v1h-2v-1z" fill="rgb(98,74,8)"/>
<path d="M19 43h1v1h-1v-1z" fill="rgb(16,16,16)"/>
<path d="M26 43h2v2h-1v1h-1v-1h-1v-1h1v-1z" fill="rgb(213,189,8)"/>
<path d="M30 43h2v1h-2v-1z" fill="rgb(16,16,16)"/>
<path d="M34 43h1v1h-1v-1z" fill="rgb(16,16,16)"/>
<path d="M35 43h1v2h-1v1h-1v-2h1v-1z" fill="rgb(213,189,8)"/>
<path d="M41 43h1v1h-1v-1z" fill="rgb(139,115,16)"/>
<path d="M42 43h1v1h-1v-1z" fill="rgb(98,74,8)"/>
<path d="M44 43h1v2h-1v-2z" fill="rgb(16,16,16)"/>
<path d="M59 43h3v1h-3v-1z" fill="rgb(16,16,16)"/>
<path d="M66 43h1v1h-1v-1z" fill="rgb(98,74,8)"/>
<path d="M67 43h2v1h2v1h1v1h1v3h1v3h1v1h1v1h2v1h1v1h-2v-1h-2v-1h-1v-1h-1v-1h-1v-1h-1v-1
	h-2v-1h-2v-1h-3v-1h-4v-1h-2v-1h1v-1h3v1h1v1h2v-1h1v-1h1v-1z" fill="rgb(255,238,41)"/>
<path d="M69 43h1v1h-1v-1z" fill="rgb(213,189,8)"/>
<path d="M70 43h1v1h-1v-1z" fill="rgb(139,115,16)"/>
<path d="M16 44h1v1h-1v-1z" fill="rgb(98,74,8)"/>
<path d="M18 44h1v2h-1v-2z" fill="rgb(16,16,16)"/>
<path d="M19 44h2v1h-1v1h-1v-2z" fill="rgb(255,255,255)"/>
<path d="M21 44h1v1h-1v-1z" fill="rgb(164,115,41)"/>
<path d="M23 44h2v1h-2v-1z" fill="rgb(16,16,16)"/>
<path d="M29 44h1v1h-1v-1z" fill="rgb(16,16,16)"/>
<path d="M30 44h2v1h-1v1h-2v-1h1v-1z" fill="transparent"/>
<path d="M32 44h1v2h-2v-1h1v-1z" fill="rgb(16,16,16)"/>
<path d="M33 44h1v1h-1v-1z" fill="rgb(98,74,8)"/>
<path d="M43 44h1v1h-1v-1z" fill="rgb(98,74,8)"/>
<path d="M58 44h1v1h-1v-1z" fill="rgb(98,74,8)"/>
<path d="M62 44h1v1h-1v-1z" fill="rgb(16,16,16)"/>
<path d="M65 44h1v1h-1v-1z" fill="rgb(98,74,8)"/>
<path d="M71 44h1v1h-1v-1z" fill="rgb(139,115,16)"/>
<path d="M15 45h1v1h-1v-1z" fill="rgb(98,74,8)"/>
<path d="M16 45h1v1h-1v-1z" fill="rgb(255,238,41)"/>
<path d="M17 45h1v1h-1v-1z" fill="rgb(139,115,16)"/>
<path d="M20 45h1v1h-1v-1z" fill="rgb(164,115,41)"/>
<path d="M21 45h2v3h-1v-2h-1v-1z" fill="rgb(16,16,16)"/>
<path d="M23 45h2v2h-1v2h-2v-1h1v-3z" fill="rgb(213,189,8)"/>
<path d="M25 45h1v1h1v1h-1v1h-1v1h-1v-2h1v-2z" fill="rgb(16,16,16)"/>
<path d="M27 45h2v1h-2v-1z" fill="rgb(16,16,16)"/>
<path d="M33 45h1v1h-1v-1z" fill="rgb(255,238,41)"/>
<path d="M35 45h1v3h-1v-1h-1v-1h1v-1z" fill="rgb(98,74,8)"/>
<path d="M40 45h2v1h-2v-1z" fill="rgb(139,115,16)"/>
<path d="M45 45h2v1h-2v-1z" fill="rgb(16,16,16)"/>
<path d="M50 45h2v5h-1v-1h-1v-1h-1v-2h1v-1z" fill="rgb(90,57,8)"/>
<path d="M52 45h1v5h-1v-5z" fill="rgb(16,16,16)"/>
<path d="M53 45h5v1h-5v-1z" fill="rgb(98,74,8)"/>
<path d="M63 45h2v1h-2v-1z" fill="rgb(16,16,16)"/>
<path d="M72 45h1v1h-1v-1z" fill="rgb(139,115,16)"/>
<path d="M15 46h1v1h-1v-1z" fill="rgb(16,16,16)"/>
<path d="M16 46h3v1h1v1h-2v-1h-2v-1z" fill="rgb(213,189,8)"/>
<path d="M19 46h1v1h-1v-1z" fill="rgb(16,16,16)"/>
<path d="M20 46h1v1h-1v-1z" fill="rgb(222,222,222)"/>
<path d="M21 46h1v1h-1v-1z" fill="rgb(90,90,90)"/>
<path d="M27 46h2v1h-1v1h-1v1h-1v2h-1v2h-1v-1h-1v-2h1v-1h1v-1h1v-1h1v-1z" fill="transparent"/>
<path d="M29 46h2v1h-2v-1z" fill="rgb(16,16,16)"/>
<path d="M31 46h2v2h-1v1h-1v3h-1v1h-2v-1h-2v-1h1v-2h1v-1h1v-1h2v-1z" fill="rgb(255,238,41)"/>
<path d="M33 46h1v1h-1v-1z" fill="rgb(213,189,8)"/>
<path d="M41 46h1v1h-1v-1z" fill="rgb(98,74,8)"/>
<path d="M42 46h1v1h-1v-1z" fill="rgb(16,16,16)"/>
<path d="M47 46h1v1h-1v-1z" fill="rgb(16,16,16)"/>
<path d="M53 46h3v1h2v1h2v1h1v1h-1v1h-3v-1h-1v-1h-1v-1h-2v-2z" fill="rgb(164,115,41)"/>
<path d="M56 46h1v1h-1v-1z" fill="rgb(213,189,8)"/>
<path d="M57 46h1v1h-1v-1z" fill="rgb(255,238,41)"/>
<path d="M58 46h2v1h-2v-1z" fill="rgb(98,74,8)"/>
<path d="M73 46h1v1h-1v-1z" fill="rgb(98,74,8)"/>
<path d="M16 47h2v1h-2v-1z" fill="rgb(16,16,16)"/>
<path d="M20 47h2v1h-2v-1z" fill="rgb(255,255,255)"/>
<path d="M28 47h1v1h-1v-1z" fill="rgb(139,115,16)"/>
<path d="M33 47h1v1h-1v-1z" fill="rgb(98,74,8)"/>
<path d="M34 47h1v1h-1v-1z" fill="rgb(123,82,8)"/>
<path d="M36 47h2v1h1v1h-2v-1h-1v-1z" fill="rgb(213,189,8)"/>
<path d="M38 47h1v1h-1v-1z" fill="rgb(139,115,16)"/>
<path d="M40 47h1v1h-1v-1z" fill="rgb(98,74,8)"/>
<path d="M41 47h2v1h1v1h1v1h-1v1h-6v-1h1v-1h1v-1h1v-1z" fill="rgb(123,82,8)"/>
<path d="M43 47h1v1h-1v-1z" fill="rgb(16,16,16)"/>
<path d="M46 47h2v1h1v1h1v1h1v2h1v1h-2v1h-2v1h-1v-5h-1v-1h-1v-1h1v-1z" fill="rgb(255,238,41)"/>
<path d="M48 47h1v1h-1v-1z" fill="rgb(16,16,16)"/>
<path d="M58 47h1v1h-1v-1z" fill="rgb(213,189,8)"/>
<path d="M59 47h1v1h-1v-1z" fill="rgb(255,238,41)"/>
<path d="M60 47h1v1h-1v-1z" fill="rgb(139,115,16)"/>
<path d="M61 47h3v1h3v1h2v1h2v1h1v1h1v1h1v1h1v1h2v1h2v-1h1v1h2v-1h2v1h-1v1h-1v1h-1v1h-2
	v1h-3v1h-7v-1h-2v-6h-1v-2h-1v-1h-1v-1h-1v1h1v1h1v2h1v6h-1v2h-1v1h-1v-2h1v-7h-1
	v-2h-1v-2h-1v-3z" fill="rgb(213,189,8)"/>
<path d="M73 47h1v1h-1v-1z" fill="rgb(16,16,16)"/>
<path d="M16 48h1v1h-1v-1z" fill="rgb(98,74,8)"/>
<path d="M17 48h1v1h-1v-1z" fill="rgb(213,189,8)"/>
<path d="M18 48h4v1h2v1h-1v2h-1v-2h-1v-1h-3v-1z" fill="rgb(16,16,16)"/>
<path d="M27 48h1v1h-1v-1z" fill="rgb(139,115,16)"/>
<path d="M32 48h1v1h-1v-1z" fill="rgb(98,74,8)"/>
<path d="M33 48h1v1h-1v-1z" fill="rgb(16,16,16)"/>
<path d="M34 48h1v1h-1v-1z" fill="rgb(90,57,8)"/>
<path d="M35 48h1v1h-1v-1z" fill="rgb(123,82,8)"/>
<path d="M36 48h1v1h-1v-1z" fill="rgb(98,74,8)"/>
<path d="M39 48h1v1h-1v-1z" fill="rgb(98,74,8)"/>
<path d="M44 48h1v1h-1v-1z" fill="rgb(16,16,16)"/>
<path d="M49 48h1v1h-1v-1z" fill="rgb(16,16,16)"/>
<path d="M53 48h1v1h2v1h1v1h1v1h-2v1h-2v1h-1v-2h-1v-2h1v-2z" fill="rgb(255,238,41)"/>
<path d="M54 48h1v1h-1v-1z" fill="rgb(213,189,8)"/>
<path d="M60 48h1v1h-1v-1z" fill="rgb(255,238,41)"/>
<path d="M73 48h1v1h-1v-1z" fill="rgb(213,189,8)"/>
<path d="M74 48h1v1h-1v-1z" fill="rgb(98,74,8)"/>
<path d="M17 49h1v1h-1v-1z" fill="rgb(16,16,16)"/>
<path d="M18 49h1v1h-1v-1z" fill="rgb(213,189,8)"/>
<path d="M19 49h2v1h-2v-1z" fill="rgb(90,90,90)"/>
<path d="M26 49h1v1h-1v-1z" fill="rgb(139,115,16)"/>
<path d="M31 49h1v1h-1v-1z" fill="rgb(213,189,8)"/>
<path d="M32 49h2v2h1v1h1v1h1v2h-1v1h-2v1h-1v1h-1v2h-1v-7h1v-4z" fill="transparent"/>
<path d="M34 49h1v2h-1v-2z" fill="rgb(16,16,16)"/>
<path d="M35 49h1v1h2v1h1v1h-3v-1h-1v-2z" fill="rgb(90,57,8)"/>
<path d="M36 49h1v1h-1v-1z" fill="rgb(123,82,8)"/>
<path d="M37 49h2v1h-2v-1z" fill="rgb(98,74,8)"/>
<path d="M45 49h1v1h-1v-1z" fill="rgb(98,74,8)"/>
<path d="M50 49h1v1h-1v-1z" fill="rgb(16,16,16)"/>
<path d="M74 49h1v2h-1v-2z" fill="rgb(16,16,16)"/>
<path d="M18 50h2v1h-2v-1z" fill="rgb(16,16,16)"/>
<path d="M20 50h2v2h1v2h-2v-2h-1v-2z" fill="rgb(180,180,180)"/>
<path d="M26 50h1v1h-1v-1z" fill="rgb(98,74,8)"/>
<path d="M31 50h1v1h-1v-1z" fill="rgb(98,74,8)"/>
<path d="M44 50h1v1h-1v-1z" fill="rgb(90,57,8)"/>
<path d="M45 50h1v1h-1v-1z" fill="rgb(16,16,16)"/>
<path d="M46 50h1v1h-1v-1z" fill="rgb(213,189,8)"/>
<path d="M51 50h1v2h-1v-2z" fill="rgb(16,16,16)"/>
<path d="M60 50h2v2h1v2h1v7h-1v2h-2v-2h-1v-6h-1v-2h-1v-2h2v-1z" fill="rgb(123,82,8)"/>
<path d="M63 50h1v1h-1v-1z" fill="rgb(139,115,16)"/>
<path d="M19 51h1v1h-1v-1z" fill="rgb(90,90,90)"/>
<path d="M25 51h1v1h-1v-1z" fill="rgb(139,115,16)"/>
<path d="M31 51h1v1h-1v-1z" fill="rgb(16,16,16)"/>
<path d="M35 51h1v1h-1v-1z" fill="rgb(16,16,16)"/>
<path d="M39 51h6v1h-6v-1z" fill="rgb(16,16,16)"/>
<path d="M45 51h1v1h-1v-1z" fill="rgb(90,57,8)"/>
<path d="M46 51h1v2h-2v-1h1v-1z" fill="rgb(16,16,16)"/>
<path d="M64 51h1v1h-1v-1z" fill="rgb(98,74,8)"/>
<path d="M74 51h1v1h-1v-1z" fill="rgb(213,189,8)"/>
<path d="M75 51h1v1h-1v-1z" fill="rgb(98,74,8)"/>
<path d="M20 52h1v1h-1v-1z" fill="rgb(90,90,90)"/>
<path d="M23 52h1v1h1v2h-1v-1h-1v-2z" fill="rgb(16,16,16)"/>
<path d="M25 52h1v1h-1v-1z" fill="rgb(98,74,8)"/>
<path d="M26 52h1v1h-1v-1z" fill="rgb(255,255,189)"/>
<path d="M27 52h1v1h-1v-1z" fill="rgb(213,189,8)"/>
<path d="M30 52h1v1h-1v-1z" fill="rgb(213,189,8)"/>
<path d="M31 52h1v1h-1v-1z" fill="rgb(98,74,8)"/>
<path d="M36 52h3v1h-1v1h-1v-1h-1v-1z" fill="rgb(16,16,16)"/>
<path d="M39 52h6v1h-1v2h-1v-2h-1v2h-1v-2h-1v3h1v1h1v-2h1v2h1v-2h1v2h1v-2h1v4h-2v-1h-2v1
	h-1v-1h-2v-1h-1v-2h-1v-2h1v-1z" fill="rgb(213,189,8)"/>
<path d="M52 52h1v1h-1v-1z" fill="rgb(139,115,16)"/>
<path d="M56 52h2v1h1v2h1v5h-1v-1h-2v-1h-1v-1h-2v-2h-1v-1h1v-1h2v-1z" fill="rgb(213,189,8)"/>
<path d="M65 52h1v2h-1v-2z" fill="rgb(98,74,8)"/>
<path d="M75 52h1v1h-1v-1z" fill="rgb(16,16,16)"/>
<path d="M20 53h1v1h-1v-1z" fill="rgb(16,16,16)"/>
<path d="M25 53h1v4h-1v-4z" fill="rgb(255,255,189)"/>
<path d="M26 53h1v1h-1v-1z" fill="rgb(255,238,41)"/>
<path d="M27 53h1v1h-1v-1z" fill="rgb(139,115,16)"/>
<path d="M28 53h2v10h-1v-2h-1v-3h-1v-4h1v-1z" fill="rgb(255,255,189)"/>
<path d="M30 53h1v1h-1v-1z" fill="rgb(98,74,8)"/>
<path d="M40 53h1v2h1v2h-1v-1h-1v-3z" fill="rgb(230,57,41)"/>
<path d="M42 53h1v2h-1v-2z" fill="rgb(230,57,41)"/>
<path d="M44 53h1v2h-1v-2z" fill="rgb(230,57,41)"/>
<path d="M45 53h1v2h-1v-2z" fill="rgb(213,189,8)"/>
<path d="M46 53h1v2h-1v-2z" fill="rgb(98,74,8)"/>
<path d="M50 53h2v2h-1v-1h-1v-1z" fill="rgb(255,255,189)"/>
<path d="M52 53h1v1h-1v-1z" fill="rgb(16,16,16)"/>
<path d="M76 53h1v1h-1v-1z" fill="rgb(98,74,8)"/>
<path d="M77 53h1v1h-1v-1z" fill="rgb(16,16,16)"/>
<path d="M21 54h2v1h-2v-1z" fill="rgb(16,16,16)"/>
<path d="M26 54h1v1h-1v-1z" fill="rgb(139,115,16)"/>
<path d="M30 54h1v7h-1v-7z" fill="rgb(16,16,16)"/>
<path d="M37 54h1v1h-1v-1z" fill="rgb(98,74,8)"/>
<path d="M48 54h2v2h1v4h-1v3h-1v1h-1v-10z" fill="rgb(255,255,189)"/>
<path d="M50 54h1v2h-1v-2z" fill="rgb(139,115,16)"/>
<path d="M52 54h1v1h-1v-1z" fill="rgb(139,115,16)"/>
<path d="M66 54h1v3h-1v-3z" fill="rgb(98,74,8)"/>
<path d="M78 54h2v1h-2v-1z" fill="rgb(16,16,16)"/>
<path d="M82 54h2v1h-2v-1z" fill="rgb(98,74,8)"/>
<path d="M24 55h1v1h-1v-1z" fill="rgb(98,74,8)"/>
<path d="M26 55h1v2h-1v-2z" fill="rgb(16,16,16)"/>
<path d="M36 55h1v1h-1v-1z" fill="rgb(139,115,16)"/>
<path d="M37 55h1v2h1v1h-1v1h-2v1h-3v-2h1v-1h2v-1h1v-1z" fill="rgb(255,238,41)"/>
<path d="M38 55h1v2h-1v-2z" fill="rgb(98,74,8)"/>
<path d="M43 55h1v2h-1v-2z" fill="rgb(230,57,41)"/>
<path d="M45 55h1v2h-1v-2z" fill="rgb(230,57,41)"/>
<path d="M47 55h1v1h-1v-1z" fill="rgb(139,115,16)"/>
<path d="M51 55h1v1h-1v-1z" fill="rgb(255,238,41)"/>
<path d="M52 55h1v4h-1v-4z" fill="rgb(255,255,189)"/>
<path d="M53 55h1v1h-1v-1z" fill="rgb(139,115,16)"/>
<path d="M80 55h1v1h-1v-1z" fill="rgb(16,16,16)"/>
<path d="M81 55h1v1h-1v-1z" fill="rgb(98,74,8)"/>
<path d="M84 55h1v1h-1v-1z" fill="rgb(98,74,8)"/>
<path d="M34 56h1v1h-1v-1z" fill="rgb(98,74,8)"/>
<path d="M35 56h1v1h-1v-1z" fill="rgb(139,115,16)"/>
<path d="M47 56h1v8h-1v-8z" fill="rgb(98,74,8)"/>
<path d="M51 56h1v1h-1v-1z" fill="rgb(139,115,16)"/>
<path d="M53 56h1v1h2v1h-3v-2z" fill="rgb(16,16,16)"/>
<path d="M83 56h1v1h-1v-1z" fill="rgb(16,16,16)"/>
<path d="M25 57h1v1h-1v-1z" fill="rgb(98,74,8)"/>
<path d="M26 57h1v1h-1v-1z" fill="rgb(139,115,16)"/>
<path d="M33 57h1v1h-1v-1z" fill="rgb(98,74,8)"/>
<path d="M39 57h1v1h-1v-1z" fill="rgb(16,16,16)"/>
<path d="M51 57h1v2h-1v-2z" fill="rgb(16,16,16)"/>
<path d="M66 57h1v3h-1v-3z" fill="rgb(16,16,16)"/>
<path d="M82 57h1v1h-1v-1z" fill="rgb(98,74,8)"/>
<path d="M25 58h1v1h-1v-1z" fill="rgb(139,115,16)"/>
<path d="M27 58h1v1h-1v-1z" fill="rgb(139,115,16)"/>
<path d="M32 58h1v2h-1v-2z" fill="rgb(139,115,16)"/>
<path d="M38 58h2v1h-1v1h-2v1h-2v-1h1v-1h2v-1z" fill="rgb(213,189,8)"/>
<path d="M40 58h1v1h-1v-1z" fill="rgb(16,16,16)"/>
<path d="M41 58h1v2h-1v-2z" fill="rgb(139,115,16)"/>
<path d="M43 58h2v1h-2v-1z" fill="rgb(98,74,8)"/>
<path d="M53 58h1v1h-1v-1z" fill="rgb(139,115,16)"/>
<path d="M54 58h1v1h1v1h-1v1h-1v1h-1v-3h1v-1z" fill="rgb(255,238,41)"/>
<path d="M55 58h1v1h-1v-1z" fill="rgb(213,189,8)"/>
<path d="M56 58h1v1h-1v-1z" fill="rgb(16,16,16)"/>
<path d="M81 58h1v1h-1v-1z" fill="rgb(16,16,16)"/>
<path d="M27 59h1v2h-1v-2z" fill="rgb(16,16,16)"/>
<path d="M39 59h1v1h-1v-1z" fill="rgb(16,16,16)"/>
<path d="M40 59h1v1h-1v-1z" fill="rgb(213,189,8)"/>
<path d="M42 59h1v1h-1v-1z" fill="rgb(98,74,8)"/>
<path d="M43 59h2v1h-2v-1z" fill="rgb(255,238,41)"/>
<path d="M45 59h2v1h-2v-1z" fill="rgb(16,16,16)"/>
<path d="M51 59h2v1h-2v-1z" fill="rgb(139,115,16)"/>
<path d="M56 59h1v1h-1v-1z" fill="rgb(139,115,16)"/>
<path d="M57 59h2v1h-2v-1z" fill="rgb(16,16,16)"/>
<path d="M79 59h2v1h-2v-1z" fill="rgb(98,74,8)"/>
<path d="M31 60h1v1h-1v-1z" fill="rgb(139,115,16)"/>
<path d="M32 60h1v1h2v2h-1v1h-1v1h-2v-1h-1v-1h1v-2h1v-1z" fill="rgb(255,238,41)"/>
<path d="M33 60h2v1h-2v-1z" fill="rgb(98,74,8)"/>
<path d="M37 60h2v1h-2v-1z" fill="rgb(16,16,16)"/>
<path d="M40 60h1v1h-1v-1z" fill="rgb(16,16,16)"/>
<path d="M41 60h2v1h1v1h3v2h1v1h1v-1h1v-1h3v2h1v2h-5v-1h-3v-1h-2v-1h-1v-1h-1v-1h-1v-2z" fill="rgb(213,189,8)"/>
<path d="M43 60h1v1h-1v-1z" fill="rgb(98,74,8)"/>
<path d="M44 60h3v1h-3v-1z" fill="rgb(213,189,8)"/>
<path d="M50 60h1v3h-1v-3z" fill="rgb(16,16,16)"/>
<path d="M51 60h2v2h-2v-2z" fill="rgb(213,189,8)"/>
<path d="M55 60h1v1h-1v-1z" fill="rgb(139,115,16)"/>
<path d="M56 60h3v1h1v2h1v3h-1v2h1v1h1v-1h1v1h1v1h1v2h-1v1h-2v-1h-2v-2h-1v-2h-2v-1h2v-2
	h-1v-3h-1v-1h-1v-1z" fill="rgb(213,189,8)"/>
<path d="M59 60h1v1h-1v-1z" fill="rgb(16,16,16)"/>
<path d="M65 60h1v2h-1v-2z" fill="rgb(16,16,16)"/>
<path d="M66 60h3v1h-3v-1z" fill="rgb(98,74,8)"/>
<path d="M76 60h1v1h-1v-1z" fill="rgb(98,74,8)"/>
<path d="M77 60h2v1h-2v-1z" fill="rgb(16,16,16)"/>
<path d="M28 61h1v2h-1v-2z" fill="rgb(16,16,16)"/>
<path d="M30 61h1v2h-1v-2z" fill="rgb(98,74,8)"/>
<path d="M35 61h1v1h-1v-1z" fill="rgb(98,74,8)"/>
<path d="M36 61h1v3h-1v-3z" fill="rgb(16,16,16)"/>
<path d="M40 61h1v1h-1v-1z" fill="rgb(98,74,8)"/>
<path d="M44 61h2v1h-2v-1z" fill="rgb(16,16,16)"/>
<path d="M46 61h1v1h-1v-1z" fill="rgb(139,115,16)"/>
<path d="M54 61h1v2h-1v-2z" fill="rgb(139,115,16)"/>
<path d="M55 61h2v1h1v3h1v2h-3v-1h-1v-5z" fill="rgb(255,238,41)"/>
<path d="M60 61h1v2h-1v-2z" fill="rgb(16,16,16)"/>
<path d="M69 61h1v1h-1v-1z" fill="rgb(98,74,8)"/>
<path d="M70 61h5v1h-5v-1z" fill="rgb(16,16,16)"/>
<path d="M75 61h1v1h-1v-1z" fill="rgb(98,74,8)"/>
<path d="M35 62h1v2h-2v-1h1v-1z" fill="rgb(213,189,8)"/>
<path d="M41 62h1v1h-1v-1z" fill="rgb(98,74,8)"/>
<path d="M51 62h1v1h-1v-1z" fill="rgb(139,115,16)"/>
<path d="M52 62h2v1h-2v-1z" fill="rgb(98,74,8)"/>
<path d="M64 62h1v1h-1v-1z" fill="rgb(16,16,16)"/>
<path d="M29 63h1v2h-1v-2z" fill="rgb(139,115,16)"/>
<path d="M42 63h1v1h-1v-1z" fill="rgb(16,16,16)"/>
<path d="M49 63h1v1h-1v-1z" fill="rgb(16,16,16)"/>
<path d="M53 63h1v2h-1v-2z" fill="rgb(16,16,16)"/>
<path d="M54 63h1v2h-1v-2z" fill="rgb(213,189,8)"/>
<path d="M61 63h1v1h1v1h-1v1h-1v-3z" fill="rgb(16,16,16)"/>
<path d="M62 63h1v1h-1v-1z" fill="rgb(213,189,8)"/>
<path d="M63 63h1v1h-1v-1z" fill="rgb(16,16,16)"/>
<path d="M30 64h1v1h-1v-1z" fill="rgb(213,189,8)"/>
<path d="M33 64h1v1h1v2h2v1h1v1h2v1h-1v1h-2v2h-1v-3h-1v-1h-2v-1h-1v-2h-1v-1h2v-1z" fill="rgb(213,189,8)"/>
<path d="M34 64h1v1h-1v-1z" fill="rgb(139,115,16)"/>
<path d="M35 64h1v3h-1v-3z" fill="rgb(16,16,16)"/>
<path d="M43 64h1v1h-1v-1z" fill="rgb(16,16,16)"/>
<path d="M48 64h1v1h-1v-1z" fill="rgb(98,74,8)"/>
<path d="M30 65h1v2h-1v-2z" fill="rgb(16,16,16)"/>
<path d="M44 65h2v1h-2v-1z" fill="rgb(16,16,16)"/>
<path d="M54 65h1v1h-1v-1z" fill="rgb(98,74,8)"/>
<path d="M31 66h1v2h-1v-2z" fill="rgb(98,74,8)"/>
<path d="M36 66h1v1h-1v-1z" fill="rgb(139,115,16)"/>
<path d="M46 66h3v1h-3v-1z" fill="rgb(16,16,16)"/>
<path d="M54 66h1v1h-1v-1z" fill="rgb(123,82,8)"/>
<path d="M55 66h1v1h-1v-1z" fill="rgb(98,74,8)"/>
<path d="M60 66h1v1h2v1h-3v-2z" fill="rgb(16,16,16)"/>
<path d="M37 67h2v1h-2v-1z" fill="rgb(16,16,16)"/>
<path d="M39 67h1v1h-1v-1z" fill="rgb(98,74,8)"/>
<path d="M40 67h2v1h-2v-1z" fill="rgb(90,90,90)"/>
<path d="M49 67h7v1h-7v-1z" fill="rgb(16,16,16)"/>
<path d="M56 67h1v1h-1v-1z" fill="rgb(98,74,8)"/>
<path d="M29 68h1v1h-1v-1z" fill="rgb(98,74,8)"/>
<path d="M30 68h2v1h-2v-1z" fill="rgb(16,16,16)"/>
<path d="M32 68h1v1h-1v-1z" fill="rgb(98,74,8)"/>
<path d="M38 68h1v1h-1v-1z" fill="rgb(255,238,41)"/>
<path d="M39 68h1v1h-1v-1z" fill="rgb(90,90,90)"/>
<path d="M40 68h2v1h-2v-1z" fill="rgb(222,222,222)"/>
<path d="M42 68h1v1h-1v-1z" fill="rgb(16,16,16)"/>
<path d="M57 68h1v1h-1v-1z" fill="rgb(16,16,16)"/>
<path d="M58 68h1v2h-1v-2z" fill="rgb(98,74,8)"/>
<path d="M61 68h1v1h-1v-1z" fill="rgb(98,74,8)"/>
<path d="M63 68h1v1h-1v-1z" fill="rgb(16,16,16)"/>
<path d="M28 69h2v1h-2v-1z" fill="rgb(90,90,90)"/>
<path d="M30 69h3v1h-1v1h-1v-1h-1v-1z" fill="rgb(255,238,41)"/>
<path d="M33 69h2v1h-2v-1z" fill="rgb(139,115,16)"/>
<path d="M40 69h2v1h-1v1h-2v-1h1v-1z" fill="rgb(16,16,16)"/>
<path d="M56 69h1v1h-1v-1z" fill="rgb(98,74,8)"/>
<path d="M57 69h1v1h2v2h-1v1h-2v1h-1v-2h1v-3z" fill="rgb(255,238,41)"/>
<path d="M64 69h1v1h-1v-1z" fill="rgb(16,16,16)"/>
<path d="M27 70h1v1h-1v-1z" fill="rgb(90,90,90)"/>
<path d="M28 70h2v1h-1v1h-2v-1h1v-1z" fill="rgb(255,255,255)"/>
<path d="M30 70h1v1h1v1h-2v-2z" fill="rgb(213,189,8)"/>
<path d="M32 70h1v1h-1v-1z" fill="rgb(16,16,16)"/>
<path d="M33 70h3v2h-1v-1h-2v-1z" fill="rgb(255,238,41)"/>
<path d="M56 70h1v2h-1v-2z" fill="rgb(16,16,16)"/>
<path d="M65 70h1v2h-1v-2z" fill="rgb(16,16,16)"/>
<path d="M26 71h1v1h-1v-1z" fill="rgb(90,90,90)"/>
<path d="M29 71h1v1h-1v-1z" fill="rgb(222,222,222)"/>
<path d="M32 71h1v1h-1v-1z" fill="rgb(98,74,8)"/>
<path d="M33 71h2v1h-2v-1z" fill="rgb(90,90,90)"/>
<path d="M37 71h2v1h-1v1h-1v-2z" fill="rgb(16,16,16)"/>
<path d="M26 72h6v1h-6v-1z" fill="rgb(16,16,16)"/>
<path d="M32 72h1v1h-1v-1z" fill="rgb(90,90,90)"/>
<path d="M33 72h2v1h-1v1h-1v1h-1v-2h1v-1z" fill="rgb(255,255,255)"/>
<path d="M35 72h1v1h-1v-1z" fill="rgb(90,90,90)"/>
<path d="M55 72h1v2h-1v-2z" fill="rgb(16,16,16)"/>
<path d="M59 72h1v2h-1v-2z" fill="rgb(213,189,8)"/>
<path d="M60 72h1v2h-1v-2z" fill="rgb(16,16,16)"/>
<path d="M61 72h1v1h-1v-1z" fill="rgb(98,74,8)"/>
<path d="M64 72h2v1h-2v-1z" fill="rgb(90,90,90)"/>
<path d="M66 72h1v5h-2v-1h1v-4z" fill="rgb(16,16,16)"/>
<path d="M31 73h1v2h-1v-2z" fill="rgb(90,90,90)"/>
<path d="M34 73h1v1h-1v-1z" fill="rgb(222,222,222)"/>
<path d="M35 73h2v1h-1v1h-2v-1h1v-1z" fill="rgb(16,16,16)"/>
<path d="M57 73h2v1h-2v-1z" fill="rgb(90,90,90)"/>
<path d="M62 73h1v1h-1v-1z" fill="rgb(98,74,8)"/>
<path d="M63 73h1v2h-1v-2z" fill="rgb(90,90,90)"/>
<path d="M64 73h1v1h1v2h-1v-1h-1v-2z" fill="rgb(255,255,255)"/>
<path d="M65 73h1v1h-1v-1z" fill="rgb(222,222,222)"/>
<path d="M33 74h1v1h-1v-1z" fill="rgb(222,222,222)"/>
<path d="M55 74h1v1h-1v-1z" fill="rgb(98,74,8)"/>
<path d="M56 74h1v2h-1v-2z" fill="rgb(90,90,90)"/>
<path d="M57 74h2v1h-1v2h-1v-3z" fill="rgb(255,255,255)"/>
<path d="M59 74h1v2h-1v-2z" fill="rgb(16,16,16)"/>
<path d="M31 75h3v1h-3v-1z" fill="rgb(16,16,16)"/>
<path d="M58 75h1v1h-1v-1z" fill="rgb(222,222,222)"/>
<path d="M64 75h1v1h-1v-1z" fill="rgb(90,90,90)"/>
<path d="M56 76h1v1h-1v-1z" fill="rgb(16,16,16)"/>
<path d="M58 76h1v1h-1v-1z" fill="rgb(16,16,16)"/>
<path d="M57 77h1v1h-1v-1z" fill="rgb(16,16,16)"/>
</svg>
