<?xml version="1.0" encoding="utf-8"?>
<!-- generated at drububu.com  -->
<!DOCTYPE svg PUBLIC "-//W3C//DTD SVG 1.1//EN" "http://www.w3.org/Graphics/SVG/1.1/DTD/svg11.dtd">
<svg version="1.1" preserveAspectRatio="xMinYMin meet" xmlns="http://www.w3.org/2000/svg" xmlns:xlink="http://www.w3.org/1999/xlink" x="0px" y="0px" width="96px" height="96px" viewBox="0 0 96 96">
<path d="M0 0h96v96h-96v-96z" fill="transparent"/>
<path d="M32 15h1v4h-1v-4z" fill="rgb(16,16,16)"/>
<path d="M33 15h1v1h-1v-1z" fill="rgb(115,90,8)"/>
<path d="M33 16h1v1h1v1h1v3h1v2h1v2h1v2h3v-1h5v1h2v-1h2v-1h1v-1h1v-1h1v-1h1v-1h1v-1h1v2
	h-1v1h-1v2h-1v1h-1v1h-1v1h-2v1h1v2h1v3h-1v2h-1v1h-2v1h-2v1h-1v1h-1v2h-1v2h-1v3
	h-2v-7h-1v-2h-1v-1h-1v-1h-1v-2h-1v-2h1v-2h1v-1h-1v-5h-1v-3h-1v-3h-1v-2z" fill="rgb(255,238,24)"/>
<path d="M34 16h1v1h-1v-1z" fill="rgb(115,90,8)"/>
<path d="M75 16h3v1h-3v-1z" fill="rgb(90,90,90)"/>
<path d="M35 17h1v1h-1v-1z" fill="rgb(115,90,8)"/>
<path d="M58 17h1v1h-1v-1z" fill="rgb(115,90,8)"/>
<path d="M59 17h1v3h-1v-3z" fill="rgb(16,16,16)"/>
<path d="M74 17h1v2h-1v-2z" fill="rgb(90,90,90)"/>
<path d="M75 17h2v1h-2v-1z" fill="rgb(222,222,222)"/>
<path d="M77 17h1v1h-1v-1z" fill="rgb(180,180,180)"/>
<path d="M78 17h1v1h-1v-1z" fill="rgb(16,16,16)"/>
<path d="M33 18h1v1h-1v-1z" fill="rgb(205,180,16)"/>
<path d="M36 18h1v1h-1v-1z" fill="rgb(115,90,8)"/>
<path d="M57 18h1v1h-1v-1z" fill="rgb(115,90,8)"/>
<path d="M58 18h1v2h-1v-2z" fill="rgb(205,180,16)"/>
<path d="M75 18h2v2h-2v-2z" fill="rgb(255,255,255)"/>
<path d="M77 18h1v1h1v1h1v2h-1v1h-1v1h-2v-1h-1v-2h-1v-2h1v1h2v-2z" fill="rgb(222,222,222)"/>
<path d="M78 18h1v1h-1v-1z" fill="rgb(180,180,180)"/>
<path d="M79 18h1v2h-1v-2z" fill="rgb(16,16,16)"/>
<path d="M33 19h1v3h-1v-3z" fill="rgb(16,16,16)"/>
<path d="M36 19h1v1h1v1h1v1h1v1h1v1h1v2h-2v1h-1v-2h-1v-2h-1v-2h-1v-2z" fill="rgb(205,180,16)"/>
<path d="M37 19h1v1h-1v-1z" fill="rgb(115,90,8)"/>
<path d="M56 19h1v1h-1v-1z" fill="rgb(115,90,8)"/>
<path d="M57 19h1v1h-1v-1z" fill="rgb(255,238,24)"/>
<path d="M73 19h1v2h-1v-2z" fill="rgb(90,90,90)"/>
<path d="M10 20h1v1h-1v-1z" fill="rgb(16,16,16)"/>
<path d="M11 20h3v1h-3v-1z" fill="rgb(90,90,90)"/>
<path d="M38 20h1v1h-1v-1z" fill="rgb(16,16,16)"/>
<path d="M55 20h1v1h-1v-1z" fill="rgb(115,90,8)"/>
<path d="M57 20h1v3h-1v4h-1v5h-1v3h1v2h1v2h-1v1h-1v1h-2v1h-3v1h-2v1h-1v1h-2v1h5v2h-3v-1
	h-2v1h-1v1h-1v1h-3v-3h2v-1h1v-2h1v-2h4v-1h1v-1h1v-2h1v-2h1v-5h-1v-2h-1v-1h2v-1
	h1v-1h1v-1h1v-2h1v-1h1v-2z" fill="rgb(205,180,16)"/>
<path d="M58 20h1v3h-1v-3z" fill="rgb(16,16,16)"/>
<path d="M80 20h1v3h-1v-3z" fill="rgb(16,16,16)"/>
<path d="M9 21h1v5h-1v-5z" fill="rgb(16,16,16)"/>
<path d="M10 21h1v1h-1v-1z" fill="rgb(180,180,180)"/>
<path d="M11 21h2v1h1v1h-1v1h-2v-3z" fill="rgb(255,255,255)"/>
<path d="M13 21h1v1h-1v-1z" fill="rgb(180,180,180)"/>
<path d="M14 21h1v1h-1v-1z" fill="rgb(90,90,90)"/>
<path d="M34 21h1v1h-1v-1z" fill="rgb(205,180,16)"/>
<path d="M39 21h1v1h-1v-1z" fill="rgb(16,16,16)"/>
<path d="M54 21h1v1h-1v-1z" fill="rgb(115,90,8)"/>
<path d="M71 21h3v3h-1v-2h-2v-1z" fill="rgb(16,16,16)"/>
<path d="M74 21h1v2h1v1h2v-1h1v2h-1v1h-3v-2h-1v-3z" fill="rgb(180,180,180)"/>
<path d="M10 22h1v2h-1v-2z" fill="rgb(222,222,222)"/>
<path d="M14 22h1v4h-3v-1h-1v-1h2v-1h1v-1z" fill="rgb(222,222,222)"/>
<path d="M15 22h1v2h-1v-2z" fill="rgb(90,90,90)"/>
<path d="M34 22h1v3h-1v-3z" fill="rgb(16,16,16)"/>
<path d="M40 22h1v1h-1v-1z" fill="rgb(16,16,16)"/>
<path d="M53 22h1v1h-1v-1z" fill="rgb(115,90,8)"/>
<path d="M70 22h1v3h-1v-3z" fill="rgb(16,16,16)"/>
<path d="M71 22h2v5h-1v-2h-1v-3z" fill="rgb(255,238,24)"/>
<path d="M79 22h1v1h-1v-1z" fill="rgb(180,180,180)"/>
<path d="M41 23h1v1h-1v-1z" fill="rgb(16,16,16)"/>
<path d="M52 23h1v1h-1v-1z" fill="rgb(115,90,8)"/>
<path d="M57 23h1v4h-1v-4z" fill="rgb(16,16,16)"/>
<path d="M79 23h1v2h-1v-2z" fill="rgb(16,16,16)"/>
<path d="M10 24h1v1h1v1h3v-2h1v5h1v1h-2v-1h-2v-1h-2v-2h-1v-2z" fill="rgb(180,180,180)"/>
<path d="M16 24h1v5h-1v-5z" fill="rgb(16,16,16)"/>
<path d="M35 24h1v1h-1v-1z" fill="rgb(205,180,16)"/>
<path d="M42 24h1v1h-1v-1z" fill="rgb(16,16,16)"/>
<path d="M51 24h1v1h-1v-1z" fill="rgb(115,90,8)"/>
<path d="M73 24h1v3h-1v-3z" fill="rgb(205,180,16)"/>
<path d="M74 24h1v2h-1v-2z" fill="rgb(16,16,16)"/>
<path d="M35 25h1v4h1v1h-1v2h-1v-7z" fill="rgb(16,16,16)"/>
<path d="M42 25h5v1h-5v-1z" fill="rgb(115,90,8)"/>
<path d="M49 25h2v1h-2v-1z" fill="rgb(115,90,8)"/>
<path d="M71 25h1v1h-1v-1z" fill="rgb(16,16,16)"/>
<path d="M78 25h1v1h-1v-1z" fill="rgb(16,16,16)"/>
<path d="M10 26h1v2h-1v-2z" fill="rgb(16,16,16)"/>
<path d="M40 26h2v1h-2v-1z" fill="rgb(115,90,8)"/>
<path d="M47 26h2v1h-2v-1z" fill="rgb(115,90,8)"/>
<path d="M71 26h1v1h-1v-1z" fill="rgb(115,90,8)"/>
<path d="M74 26h2v1h-2v-1z" fill="rgb(115,90,8)"/>
<path d="M76 26h2v1h-2v-1z" fill="rgb(16,16,16)"/>
<path d="M56 27h1v5h-1v-5z" fill="rgb(16,16,16)"/>
<path d="M70 27h1v1h-1v-1z" fill="rgb(16,16,16)"/>
<path d="M71 27h1v1h-1v-1z" fill="rgb(255,238,24)"/>
<path d="M72 27h1v1h-1v-1z" fill="rgb(205,180,16)"/>
<path d="M73 27h1v1h-1v-1z" fill="rgb(16,16,16)"/>
<path d="M74 27h4v1h1v1h1v2h-1v1h-1v3h-2v-1h-1v-1h-1v-2h2v1h1v-3h-2v1h-1v-3z" fill="rgb(255,238,24)"/>
<path d="M78 27h1v1h-1v-1z" fill="rgb(16,16,16)"/>
<path d="M11 28h2v1h-2v-1z" fill="rgb(16,16,16)"/>
<path d="M18 28h3v1h-3v-1z" fill="rgb(16,16,16)"/>
<path d="M37 28h1v1h-1v-1z" fill="rgb(16,16,16)"/>
<path d="M39 28h5v1h1v4h-1v1h-5v-1h-1v-4h1v-1z" fill="rgb(255,246,172)"/>
<path d="M69 28h1v3h-1v-3z" fill="rgb(16,16,16)"/>
<path d="M70 28h1v2h-1v-2z" fill="rgb(255,238,24)"/>
<path d="M71 28h1v1h-1v-1z" fill="rgb(205,180,16)"/>
<path d="M72 28h1v1h-1v-1z" fill="rgb(16,16,16)"/>
<path d="M73 28h1v2h-1v1h-1v-2h1v-1z" fill="rgb(205,180,16)"/>
<path d="M79 28h1v1h-1v-1z" fill="rgb(16,16,16)"/>
<path d="M13 29h2v1h2v-1h1v2h-4v-1h-1v-1z" fill="rgb(16,16,16)"/>
<path d="M18 29h3v3h-1v-1h-2v-2z" fill="rgb(255,238,24)"/>
<path d="M21 29h1v2h-1v-2z" fill="rgb(16,16,16)"/>
<path d="M33 29h2v1h-2v-1z" fill="rgb(82,49,8)"/>
<path d="M71 29h1v2h-1v-2z" fill="rgb(16,16,16)"/>
<path d="M75 29h1v1h-1v-1z" fill="rgb(205,180,16)"/>
<path d="M76 29h1v1h-1v-1z" fill="rgb(115,90,8)"/>
<path d="M80 29h1v2h-1v-2z" fill="rgb(16,16,16)"/>
<path d="M31 30h2v1h-2v-1z" fill="rgb(82,49,8)"/>
<path d="M33 30h2v2h-1v1h-1v1h-1v1h-2v-1h-1v-1h1v-1h1v-1h2v-1z" fill="rgb(213,180,82)"/>
<path d="M57 30h1v1h-1v-1z" fill="rgb(82,49,8)"/>
<path d="M70 30h1v1h-1v-1z" fill="rgb(115,90,8)"/>
<path d="M73 30h1v1h-1v-1z" fill="rgb(16,16,16)"/>
<path d="M74 30h2v1h-2v-1z" fill="rgb(115,90,8)"/>
<path d="M76 30h1v1h-1v-1z" fill="rgb(205,180,16)"/>
<path d="M13 31h1v1h-1v-1z" fill="rgb(16,16,16)"/>
<path d="M14 31h4v1h-2v1h-1v2h-1v-1h-1v-2h1v-1z" fill="rgb(255,238,24)"/>
<path d="M18 31h1v1h2v1h-3v-2z" fill="rgb(16,16,16)"/>
<path d="M19 31h1v1h-1v-1z" fill="rgb(205,180,16)"/>
<path d="M21 31h1v2h-1v-2z" fill="rgb(205,180,16)"/>
<path d="M22 31h1v2h-1v-2z" fill="rgb(16,16,16)"/>
<path d="M30 31h1v1h-1v-1z" fill="rgb(82,49,8)"/>
<path d="M57 31h1v1h2v1h1v1h1v1h1v2h-1v1h-2v1h-2v-2h-1v-2h-1v-3h1v-1z" fill="rgb(180,131,41)"/>
<path d="M58 31h2v1h-2v-1z" fill="rgb(16,16,16)"/>
<path d="M68 31h1v1h-1v-1z" fill="rgb(16,16,16)"/>
<path d="M69 31h1v1h1v3h-1v3h1v3h-1v2h-1v1h-1v1h-2v-3h1v-6h1v-4h1v-1z" fill="rgb(180,131,41)"/>
<path d="M70 31h1v1h-1v-1z" fill="rgb(16,16,16)"/>
<path d="M71 31h1v1h-1v-1z" fill="rgb(180,131,41)"/>
<path d="M72 31h1v1h-1v-1z" fill="rgb(16,16,16)"/>
<path d="M73 31h1v2h-2v-1h1v-1z" fill="rgb(205,180,16)"/>
<path d="M76 31h1v1h-1v-1z" fill="rgb(115,90,8)"/>
<path d="M79 31h1v1h-1v-1z" fill="rgb(16,16,16)"/>
<path d="M12 32h1v4h-1v-4z" fill="rgb(16,16,16)"/>
<path d="M16 32h2v1h-2v-1z" fill="rgb(205,180,16)"/>
<path d="M29 32h1v1h-1v-1z" fill="rgb(16,16,16)"/>
<path d="M34 32h1v2h-1v-2z" fill="rgb(16,16,16)"/>
<path d="M55 32h1v3h-1v-3z" fill="rgb(16,16,16)"/>
<path d="M60 32h1v1h-1v-1z" fill="rgb(16,16,16)"/>
<path d="M67 32h1v4h-1v-4z" fill="rgb(16,16,16)"/>
<path d="M71 32h1v1h2v1h-2v1h-1v-3z" fill="rgb(16,16,16)"/>
<path d="M78 32h1v3h-1v-3z" fill="rgb(16,16,16)"/>
<path d="M15 33h1v1h-1v-1z" fill="rgb(205,180,16)"/>
<path d="M16 33h2v2h-1v-1h-1v-1z" fill="rgb(16,16,16)"/>
<path d="M18 33h1v1h-1v-1z" fill="rgb(205,180,16)"/>
<path d="M19 33h2v1h-1v2h-1v1h-1v-1h-1v-1h1v-1h1v-1z" fill="rgb(255,238,24)"/>
<path d="M21 33h1v3h-2v-1h1v-2z" fill="rgb(16,16,16)"/>
<path d="M28 33h1v2h-1v-2z" fill="rgb(16,16,16)"/>
<path d="M33 33h1v1h-1v-1z" fill="rgb(180,131,41)"/>
<path d="M61 33h1v1h-1v-1z" fill="rgb(16,16,16)"/>
<path d="M74 33h1v1h-1v-1z" fill="rgb(205,180,16)"/>
<path d="M13 34h1v1h2v2h1v-1h1v1h1v1h1v1h-4v-1h-1v-1h-1v-1h-1v-2z" fill="rgb(205,180,16)"/>
<path d="M15 34h1v1h-1v-1z" fill="rgb(115,90,8)"/>
<path d="M16 34h1v1h-1v-1z" fill="rgb(205,180,16)"/>
<path d="M20 34h1v1h-1v-1z" fill="rgb(205,180,16)"/>
<path d="M22 34h1v1h-1v-1z" fill="rgb(82,49,8)"/>
<path d="M29 34h1v1h2v1h-1v1h-2v-1h-1v-1h1v-1z" fill="rgb(180,131,41)"/>
<path d="M32 34h1v1h-1v-1z" fill="rgb(180,131,41)"/>
<path d="M33 34h1v1h-1v-1z" fill="rgb(16,16,16)"/>
<path d="M34 34h1v2h1v2h-3v-1h-1v-1h1v-1h1v-1z" fill="rgb(255,238,24)"/>
<path d="M35 34h1v2h-1v-2z" fill="rgb(205,180,16)"/>
<path d="M51 34h1v2h-1v-2z" fill="rgb(115,90,8)"/>
<path d="M62 34h1v1h-1v-1z" fill="rgb(16,16,16)"/>
<path d="M72 34h2v2h-1v-1h-1v-1z" fill="rgb(180,180,180)"/>
<path d="M74 34h1v2h2v3h-1v-2h-2v1h-1v-2h1v-2z" fill="rgb(16,16,16)"/>
<path d="M75 34h1v1h1v1h-2v-2z" fill="rgb(205,180,16)"/>
<path d="M16 35h1v2h-1v-2z" fill="rgb(16,16,16)"/>
<path d="M22 35h1v1h-1v-1z" fill="rgb(180,131,41)"/>
<path d="M23 35h1v1h-1v-1z" fill="rgb(82,49,8)"/>
<path d="M27 35h1v3h-1v-3z" fill="rgb(16,16,16)"/>
<path d="M32 35h1v1h-1v-1z" fill="rgb(16,16,16)"/>
<path d="M56 35h1v2h-1v-2z" fill="rgb(16,16,16)"/>
<path d="M63 35h1v2h-1v-2z" fill="rgb(16,16,16)"/>
<path d="M70 35h1v3h-1v-3z" fill="rgb(16,16,16)"/>
<path d="M71 35h2v3h-2v-3z" fill="rgb(222,222,222)"/>
<path d="M77 35h1v1h-1v-1z" fill="rgb(16,16,16)"/>
<path d="M13 36h1v1h-1v-1z" fill="rgb(16,16,16)"/>
<path d="M19 36h1v2h-1v-2z" fill="rgb(16,16,16)"/>
<path d="M20 36h1v2h-1v-2z" fill="rgb(180,180,180)"/>
<path d="M21 36h1v1h1v1h1v2h-2v-1h-1v-3z" fill="rgb(222,222,222)"/>
<path d="M22 36h2v2h-1v-1h-1v-1z" fill="rgb(16,16,16)"/>
<path d="M28 36h1v1h1v2h1v1h2v1h2v1h2v1h1v1h-1v1h-2v-1h-2v-1h-1v-1h-1v-1h-1v-1h-1v-2h-1
	v-2z" fill="rgb(123,90,8)"/>
<path d="M31 36h1v1h-1v-1z" fill="rgb(16,16,16)"/>
<path d="M36 36h1v1h-1v-1z" fill="rgb(115,90,8)"/>
<path d="M50 36h1v1h-1v-1z" fill="rgb(16,16,16)"/>
<path d="M66 36h1v6h-1v-6z" fill="rgb(16,16,16)"/>
<path d="M14 37h1v1h1v1h-1v3h-1v-5z" fill="rgb(16,16,16)"/>
<path d="M24 37h1v1h-1v-1z" fill="rgb(82,49,8)"/>
<path d="M30 37h1v2h-1v-2z" fill="rgb(16,16,16)"/>
<path d="M31 37h2v1h3v2h1v1h-2v-1h-2v-1h-2v-2z" fill="rgb(205,180,16)"/>
<path d="M36 37h1v2h-1v-2z" fill="rgb(16,16,16)"/>
<path d="M37 37h1v1h-1v-1z" fill="rgb(115,90,8)"/>
<path d="M48 37h3v1h-3v-1z" fill="rgb(115,90,8)"/>
<path d="M57 37h1v2h-1v-2z" fill="rgb(16,16,16)"/>
<path d="M62 37h2v4h-1v1h-1v1h-1v1h-2v1h-2v1h-4v1h-1v-1h-2v-1h-2v-1h2v-1h3v-1h5v-1h1v-2
	h1v-1h2v-1z" fill="rgb(123,90,8)"/>
<path d="M64 37h1v4h-1v-4z" fill="rgb(16,16,16)"/>
<path d="M74 37h2v2h-1v2h-1v2h-1v2h-1v1h-1v1h-4v-1h-1v-1h2v-1h1v-1h1v-2h1v-2h2v-1h1v-1z" fill="rgb(123,90,8)"/>
<path d="M20 38h1v1h-1v-1z" fill="rgb(16,16,16)"/>
<path d="M24 38h1v2h-1v-2z" fill="rgb(16,16,16)"/>
<path d="M28 38h1v2h-1v-2z" fill="rgb(16,16,16)"/>
<path d="M37 38h1v1h-1v-1z" fill="rgb(222,222,222)"/>
<path d="M38 38h1v1h-1v-1z" fill="rgb(115,90,8)"/>
<path d="M46 38h2v1h-2v-1z" fill="rgb(115,90,8)"/>
<path d="M48 38h1v1h-1v-1z" fill="rgb(222,222,222)"/>
<path d="M49 38h1v1h-1v-1z" fill="rgb(16,16,16)"/>
<path d="M71 38h2v1h-2v-1z" fill="rgb(16,16,16)"/>
<path d="M15 39h1v1h4v2h1v2h1v1h1v1h2v-1h1v-1h1v4h-1v1h-2v-1h-2v-1h-2v-1h-2v-1h-1v-1h-1
	v-2h-1v-3z" fill="rgb(123,90,8)"/>
<path d="M16 39h4v1h-4v-1z" fill="rgb(16,16,16)"/>
<path d="M20 39h1v1h1v1h2v-1h1v2h1v3h-1v1h-2v-1h-1v-1h-1v-2h-1v-3z" fill="rgb(180,131,41)"/>
<path d="M21 39h1v1h-1v-1z" fill="rgb(16,16,16)"/>
<path d="M25 39h1v1h-1v-1z" fill="rgb(82,49,8)"/>
<path d="M31 39h2v1h-2v-1z" fill="rgb(16,16,16)"/>
<path d="M36 39h1v1h-1v-1z" fill="rgb(115,90,8)"/>
<path d="M37 39h1v1h-1v-1z" fill="rgb(255,255,255)"/>
<path d="M38 39h1v1h-1v-1z" fill="rgb(16,16,16)"/>
<path d="M45 39h1v1h-1v-1z" fill="rgb(115,90,8)"/>
<path d="M46 39h1v1h-1v-1z" fill="rgb(16,16,16)"/>
<path d="M47 39h2v1h-1v1h-1v-2z" fill="rgb(255,255,255)"/>
<path d="M49 39h1v1h-1v-1z" fill="rgb(115,90,8)"/>
<path d="M56 39h2v2h-3v-1h1v-1z" fill="rgb(255,238,24)"/>
<path d="M58 39h1v2h-1v-2z" fill="rgb(16,16,16)"/>
<path d="M75 39h1v2h-1v-2z" fill="rgb(16,16,16)"/>
<path d="M22 40h2v1h-2v-1z" fill="rgb(16,16,16)"/>
<path d="M25 40h1v2h-1v-2z" fill="rgb(16,16,16)"/>
<path d="M29 40h1v1h-1v-1z" fill="rgb(16,16,16)"/>
<path d="M33 40h2v1h-2v-1z" fill="rgb(16,16,16)"/>
<path d="M37 40h1v1h-1v-1z" fill="rgb(115,90,8)"/>
<path d="M38 40h1v1h-1v-1z" fill="rgb(255,255,255)"/>
<path d="M39 40h1v2h-1v-2z" fill="rgb(115,90,8)"/>
<path d="M44 40h1v1h-1v-1z" fill="rgb(115,90,8)"/>
<path d="M45 40h1v1h-1v-1z" fill="rgb(255,255,255)"/>
<path d="M46 40h1v1h-1v-1z" fill="rgb(115,90,8)"/>
<path d="M48 40h1v1h-1v-1z" fill="rgb(255,238,24)"/>
<path d="M28 41h1v1h-1v-1z" fill="rgb(16,16,16)"/>
<path d="M29 41h1v2h-1v1h-2v-1h1v-1h1v-1z" fill="rgb(255,238,24)"/>
<path d="M30 41h1v1h-1v-1z" fill="rgb(16,16,16)"/>
<path d="M35 41h2v1h-2v-1z" fill="rgb(16,16,16)"/>
<path d="M37 41h2v1h1v5h-1v-1h-1v1h-1v2h-2v-2h1v-1h1v-1h2v-2h-1v-1h-1v-1z" fill="rgb(205,180,16)"/>
<path d="M44 41h1v1h-1v-1z" fill="rgb(16,16,16)"/>
<path d="M45 41h1v1h-1v-1z" fill="rgb(115,90,8)"/>
<path d="M46 41h2v1h-2v-1z" fill="rgb(255,238,24)"/>
<path d="M53 41h5v1h-5v-1z" fill="rgb(16,16,16)"/>
<path d="M63 41h1v2h-2v-1h1v-1z" fill="rgb(16,16,16)"/>
<path d="M74 41h1v2h-1v-2z" fill="rgb(16,16,16)"/>
<path d="M15 42h1v2h-1v-2z" fill="rgb(16,16,16)"/>
<path d="M26 42h2v1h-1v1h-1v-2z" fill="rgb(82,49,8)"/>
<path d="M30 42h1v2h-1v1h-1v1h-1v-2h1v-1h1v-1z" fill="rgb(205,180,16)"/>
<path d="M31 42h1v1h1v1h-2v-2z" fill="rgb(16,16,16)"/>
<path d="M37 42h1v1h-1v-1z" fill="rgb(16,16,16)"/>
<path d="M43 42h1v2h-1v-2z" fill="rgb(115,90,8)"/>
<path d="M50 42h3v1h-3v-1z" fill="rgb(16,16,16)"/>
<path d="M65 42h1v4h-1v-2h-1v-1h1v-1z" fill="rgb(16,16,16)"/>
<path d="M38 43h1v2h-2v-1h1v-1z" fill="rgb(16,16,16)"/>
<path d="M48 43h2v1h-2v-1z" fill="rgb(16,16,16)"/>
<path d="M61 43h1v1h-1v-1z" fill="rgb(16,16,16)"/>
<path d="M62 43h2v1h1v2h1v1h1v1h-2v-1h-2v-1h-1v-1h-1v-1h1v-1z" fill="rgb(205,180,16)"/>
<path d="M73 43h1v2h-1v-2z" fill="rgb(16,16,16)"/>
<path d="M16 44h1v1h-1v-1z" fill="rgb(16,16,16)"/>
<path d="M27 44h1v2h-1v-2z" fill="rgb(82,49,8)"/>
<path d="M30 44h1v1h-1v-1z" fill="rgb(16,16,16)"/>
<path d="M33 44h2v1h-2v-1z" fill="rgb(16,16,16)"/>
<path d="M42 44h1v2h-1v-2z" fill="rgb(115,90,8)"/>
<path d="M47 44h1v1h2v1h-3v-2z" fill="rgb(16,16,16)"/>
<path d="M59 44h2v1h1v1h-2v-1h-1v-1z" fill="rgb(16,16,16)"/>
<path d="M17 45h1v1h-1v-1z" fill="rgb(16,16,16)"/>
<path d="M29 45h1v1h-1v-1z" fill="rgb(16,16,16)"/>
<path d="M35 45h2v1h-1v1h-1v-2z" fill="rgb(16,16,16)"/>
<path d="M45 45h2v1h-2v-1z" fill="rgb(115,90,8)"/>
<path d="M57 45h2v1h-2v-1z" fill="rgb(16,16,16)"/>
<path d="M72 45h1v1h-1v-1z" fill="rgb(16,16,16)"/>
<path d="M18 46h2v1h-2v-1z" fill="rgb(16,16,16)"/>
<path d="M27 46h2v1h-1v1h-1v-2z" fill="rgb(16,16,16)"/>
<path d="M38 46h1v1h-1v-1z" fill="rgb(16,16,16)"/>
<path d="M50 46h2v1h-2v-1z" fill="rgb(16,16,16)"/>
<path d="M53 46h4v1h-3v1h-2v-1h1v-1z" fill="rgb(16,16,16)"/>
<path d="M62 46h1v1h-1v-1z" fill="rgb(16,16,16)"/>
<path d="M66 46h1v1h-1v-1z" fill="rgb(16,16,16)"/>
<path d="M71 46h1v1h-1v-1z" fill="rgb(16,16,16)"/>
<path d="M20 47h2v1h-2v-1z" fill="rgb(16,16,16)"/>
<path d="M34 47h1v1h-1v-1z" fill="rgb(16,16,16)"/>
<path d="M37 47h1v2h-1v-2z" fill="rgb(16,16,16)"/>
<path d="M38 47h1v3h1v1h1v1h-1v1h-1v3h-1v2h-3v-2h1v-4h1v-3h1v-2z" fill="transparent"/>
<path d="M39 47h1v3h-1v-3z" fill="rgb(16,16,16)"/>
<path d="M45 47h2v1h-2v-1z" fill="rgb(16,16,16)"/>
<path d="M50 47h2v1h2v1h1v1h1v2h1v1h1v1h2v1h4v1h-1v1h2v1h-1v1h-1v1h1v1h-1v1h-2v-1h-1v-1
	h-1v-1h-1v-1h-1v-2h-1v-1h-1v-2h-1v-1h-1v-2h-2v-1h-2v-1h1v-1z" fill="rgb(255,238,24)"/>
<path d="M63 47h2v1h-2v-1z" fill="rgb(16,16,16)"/>
<path d="M67 47h4v1h-4v-1z" fill="rgb(16,16,16)"/>
<path d="M22 48h2v1h-2v-1z" fill="rgb(16,16,16)"/>
<path d="M26 48h1v1h-1v-1z" fill="rgb(16,16,16)"/>
<path d="M33 48h1v2h-1v-2z" fill="rgb(16,16,16)"/>
<path d="M34 48h1v1h1v3h-1v4h-1v3h-1v1h-2v2h-1v1h-2v-1h-2v-1h1v-1h1v-1h-2v-1h4v-2h1v-1h1
	v-2h1v-3h1v-2z" fill="rgb(255,238,24)"/>
<path d="M41 48h1v1h-1v-1z" fill="rgb(115,90,8)"/>
<path d="M44 48h1v1h-1v-1z" fill="rgb(16,16,16)"/>
<path d="M45 48h2v1h2v1h2v2h-1v1h-1v1h-2v-1h-1v-2h-2v1h-2v-1h1v-1h1v-1h1v-1z" fill="rgb(123,90,8)"/>
<path d="M47 48h2v1h-2v-1z" fill="rgb(16,16,16)"/>
<path d="M54 48h1v1h-1v-1z" fill="rgb(16,16,16)"/>
<path d="M65 48h2v1h-2v-1z" fill="rgb(16,16,16)"/>
<path d="M24 49h2v1h-2v-1z" fill="rgb(16,16,16)"/>
<path d="M36 49h1v3h-1v-3z" fill="rgb(16,16,16)"/>
<path d="M43 49h1v1h-1v-1z" fill="rgb(16,16,16)"/>
<path d="M49 49h2v1h-2v-1z" fill="rgb(16,16,16)"/>
<path d="M55 49h1v1h-1v-1z" fill="rgb(16,16,16)"/>
<path d="M32 50h1v3h-1v-3z" fill="rgb(16,16,16)"/>
<path d="M40 50h3v1h-1v3h-1v-1h-1v-1h1v-1h-1v-1z" fill="rgb(16,16,16)"/>
<path d="M51 50h1v1h1v1h-1v1h-2v-1h1v-2z" fill="rgb(16,16,16)"/>
<path d="M52 50h1v1h-1v-1z" fill="rgb(205,180,16)"/>
<path d="M56 50h1v2h-1v-2z" fill="rgb(16,16,16)"/>
<path d="M44 51h2v2h1v2h-4v-1h-1v-2h2v-1z" fill="rgb(180,131,41)"/>
<path d="M35 52h1v4h-1v-4z" fill="rgb(16,16,16)"/>
<path d="M52 52h1v1h-1v-1z" fill="transparent"/>
<path d="M53 52h1v1h-1v-1z" fill="rgb(16,16,16)"/>
<path d="M57 52h1v1h-1v-1z" fill="rgb(16,16,16)"/>
<path d="M69 52h2v1h-2v-1z" fill="rgb(115,90,8)"/>
<path d="M31 53h1v2h-1v-2z" fill="rgb(115,90,8)"/>
<path d="M39 53h1v2h-1v-2z" fill="rgb(16,16,16)"/>
<path d="M40 53h1v1h1v1h1v1h4v-1h1v2h-1v1h-4v-1h-1v-1h-1v-1h-1v-2z" fill="rgb(255,238,24)"/>
<path d="M49 53h1v1h-1v-1z" fill="rgb(16,16,16)"/>
<path d="M50 53h2v1h1v1h-2v1h-1v1h-1v4h-1v1h-4v-1h-1v-2h-1v-2h1v1h4v-1h1v-2h1v-1h1v-1z" fill="rgb(205,180,16)"/>
<path d="M52 53h1v1h-1v-1z" fill="rgb(16,16,16)"/>
<path d="M53 53h1v1h-1v-1z" fill="transparent"/>
<path d="M54 53h1v2h-1v2h-1v-1h-2v-1h2v-1h1v-1z" fill="rgb(16,16,16)"/>
<path d="M58 53h2v1h-2v-1z" fill="rgb(16,16,16)"/>
<path d="M67 53h2v1h-2v-1z" fill="rgb(115,90,8)"/>
<path d="M69 53h2v1h1v1h-1v1h-1v1h-1v2h1v2h1v1h-2v1h-1v2h-2v-1h-1v-1h-2v-2h1v-1h-1v-1h1
	v-1h1v-1h-2v-1h1v-1h3v-1h2v-1z" fill="rgb(255,246,172)"/>
<path d="M71 53h1v1h-1v-1z" fill="rgb(16,16,16)"/>
<path d="M42 54h1v1h-1v-1z" fill="rgb(16,16,16)"/>
<path d="M47 54h2v1h-2v-1z" fill="rgb(16,16,16)"/>
<path d="M60 54h3v1h-3v-1z" fill="rgb(16,16,16)"/>
<path d="M63 54h4v1h-4v-1z" fill="rgb(115,90,8)"/>
<path d="M72 54h1v1h-1v-1z" fill="rgb(16,16,16)"/>
<path d="M20 55h3v1h-2v1h-1v-2z" fill="rgb(115,90,8)"/>
<path d="M30 55h1v1h-1v-1z" fill="rgb(115,90,8)"/>
<path d="M39 55h1v1h-1v-1z" fill="rgb(115,90,8)"/>
<path d="M40 55h1v2h-1v-2z" fill="rgb(16,16,16)"/>
<path d="M43 55h4v1h-4v-1z" fill="rgb(16,16,16)"/>
<path d="M54 55h1v1h1v2h1v1h1v1h-2v-1h-1v-2h-1v-2z" fill="transparent"/>
<path d="M55 55h1v1h-1v-1z" fill="rgb(16,16,16)"/>
<path d="M71 55h1v1h-1v-1z" fill="rgb(16,16,16)"/>
<path d="M21 56h2v1h2v1h1v1h2v1h-1v1h-1v1h2v1h1v1h-3v1h-5v-1h1v-1h-1v-1h-2v-1h1v-1h1v-1
	h1v-2h-1v-1z" fill="rgb(255,246,172)"/>
<path d="M23 56h3v1h-3v-1z" fill="rgb(115,90,8)"/>
<path d="M29 56h1v1h-1v-1z" fill="rgb(115,90,8)"/>
<path d="M34 56h1v2h2v1h-1v1h-1v-1h-1v-3z" fill="rgb(16,16,16)"/>
<path d="M38 56h1v2h-1v-2z" fill="rgb(115,90,8)"/>
<path d="M39 56h1v1h1v2h1v1h-1v1h-2v1h-2v1h-1v-1h-1v-2h2v-1h1v-1h1v-2z" fill="rgb(205,180,16)"/>
<path d="M41 56h1v1h-1v-1z" fill="rgb(205,180,16)"/>
<path d="M50 56h1v1h-1v-1z" fill="rgb(16,16,16)"/>
<path d="M51 56h2v1h1v2h-2v-1h-2v-1h1v-1z" fill="rgb(205,180,16)"/>
<path d="M56 56h1v2h-1v-2z" fill="rgb(16,16,16)"/>
<path d="M70 56h1v1h-1v-1z" fill="rgb(16,16,16)"/>
<path d="M21 57h1v2h-1v-2z" fill="rgb(115,90,8)"/>
<path d="M25 57h1v1h-1v-1z" fill="rgb(205,180,16)"/>
<path d="M26 57h3v1h-3v-1z" fill="rgb(115,90,8)"/>
<path d="M29 57h1v1h-1v-1z" fill="rgb(205,180,16)"/>
<path d="M41 57h1v2h-1v-2z" fill="rgb(16,16,16)"/>
<path d="M49 57h1v4h-1v-4z" fill="rgb(16,16,16)"/>
<path d="M54 57h1v2h-1v-2z" fill="rgb(16,16,16)"/>
<path d="M69 57h1v2h-1v-2z" fill="rgb(16,16,16)"/>
<path d="M37 58h1v1h-1v-1z" fill="rgb(115,90,8)"/>
<path d="M50 58h2v1h2v1h1v1h-1v1h-2v-1h-2v-3z" fill="rgb(255,238,24)"/>
<path d="M57 58h1v1h-1v-1z" fill="rgb(16,16,16)"/>
<path d="M20 59h1v1h-1v-1z" fill="rgb(115,90,8)"/>
<path d="M33 59h1v1h-1v-1z" fill="rgb(16,16,16)"/>
<path d="M34 59h1v1h-1v-1z" fill="rgb(123,90,8)"/>
<path d="M36 59h1v1h-1v-1z" fill="rgb(115,90,8)"/>
<path d="M42 59h1v2h-2v-1h1v-1z" fill="rgb(16,16,16)"/>
<path d="M54 59h1v1h-1v-1z" fill="rgb(205,180,16)"/>
<path d="M55 59h1v1h2v-1h1v1h1v1h1v1h-2v-1h-4v-2z" fill="rgb(16,16,16)"/>
<path d="M70 59h1v2h-1v-2z" fill="rgb(16,16,16)"/>
<path d="M19 60h1v1h-1v-1z" fill="rgb(115,90,8)"/>
<path d="M31 60h1v2h-1v-2z" fill="rgb(205,180,16)"/>
<path d="M32 60h1v2h-1v-2z" fill="rgb(16,16,16)"/>
<path d="M33 60h1v2h1v2h-1v1h-2v-1h-1v-1h1v-1h1v-2z" fill="rgb(180,131,41)"/>
<path d="M34 60h1v2h-1v-2z" fill="rgb(16,16,16)"/>
<path d="M18 61h1v1h-1v-1z" fill="rgb(115,90,8)"/>
<path d="M39 61h2v2h-1v-1h-1v-1z" fill="rgb(16,16,16)"/>
<path d="M43 61h1v1h-1v-1z" fill="rgb(16,16,16)"/>
<path d="M48 61h1v1h-1v-1z" fill="rgb(16,16,16)"/>
<path d="M50 61h2v1h-2v-1z" fill="rgb(16,16,16)"/>
<path d="M54 61h1v1h-1v-1z" fill="rgb(16,16,16)"/>
<path d="M55 61h2v2h-1v1h1v1h1v1h-3v-1h-1v-3h1v-1z" fill="rgb(180,131,41)"/>
<path d="M57 61h2v1h2v1h1v4h-1v1h-4v-1h-1v-1h2v-1h1v-2h-1v-1h-1v-1z" fill="rgb(115,90,8)"/>
<path d="M71 61h1v1h-1v-1z" fill="rgb(16,16,16)"/>
<path d="M18 62h3v1h-3v-1z" fill="rgb(16,16,16)"/>
<path d="M30 62h1v1h-1v-1z" fill="rgb(205,180,16)"/>
<path d="M31 62h1v1h-1v-1z" fill="rgb(16,16,16)"/>
<path d="M35 62h1v1h-1v-1z" fill="rgb(16,16,16)"/>
<path d="M37 62h2v1h-2v-1z" fill="rgb(16,16,16)"/>
<path d="M39 62h1v1h-1v-1z" fill="rgb(123,90,8)"/>
<path d="M44 62h4v1h-4v-1z" fill="rgb(16,16,16)"/>
<path d="M52 62h1v1h-1v-1z" fill="rgb(16,16,16)"/>
<path d="M53 62h1v1h-1v-1z" fill="rgb(115,90,8)"/>
<path d="M57 62h1v1h1v2h-2v-1h-1v-1h1v-1z" fill="rgb(213,180,82)"/>
<path d="M61 62h2v1h2v1h-2v1h-1v-2h-1v-1z" fill="rgb(16,16,16)"/>
<path d="M69 62h2v1h-2v-1z" fill="rgb(16,16,16)"/>
<path d="M21 63h1v1h-1v-1z" fill="rgb(16,16,16)"/>
<path d="M29 63h2v2h-1v-1h-1v-1z" fill="rgb(16,16,16)"/>
<path d="M35 63h1v1h2v2h-5v-1h1v-1h1v-1z" fill="rgb(123,90,8)"/>
<path d="M36 63h1v1h-1v-1z" fill="rgb(16,16,16)"/>
<path d="M37 63h1v1h-1v-1z" fill="rgb(82,49,8)"/>
<path d="M38 63h1v1h-1v-1z" fill="rgb(123,90,8)"/>
<path d="M39 63h1v2h-1v-2z" fill="rgb(16,16,16)"/>
<path d="M40 63h1v1h1v3h1v2h-2v1h-1v1h-1v1h-1v1h-2v1h-2v-3h2v-1h-2v-2h-1v-1h5v-1h1v-1h1
	v-2z" fill="rgb(205,180,16)"/>
<path d="M41 63h1v1h-1v-1z" fill="rgb(16,16,16)"/>
<path d="M53 63h1v3h-1v-3z" fill="rgb(16,16,16)"/>
<path d="M68 63h1v2h-1v-2z" fill="rgb(16,16,16)"/>
<path d="M20 64h1v1h-1v-1z" fill="rgb(115,90,8)"/>
<path d="M26 64h3v1h-3v-1z" fill="rgb(16,16,16)"/>
<path d="M31 64h1v1h-1v-1z" fill="rgb(82,49,8)"/>
<path d="M38 64h1v1h-1v-1z" fill="rgb(82,49,8)"/>
<path d="M42 64h1v1h3v1h-4v-2z" fill="rgb(16,16,16)"/>
<path d="M65 64h1v1h-1v-1z" fill="rgb(16,16,16)"/>
<path d="M21 65h5v1h-5v-1z" fill="rgb(16,16,16)"/>
<path d="M31 65h1v1h-1v-1z" fill="rgb(16,16,16)"/>
<path d="M32 65h1v1h-1v-1z" fill="rgb(82,49,8)"/>
<path d="M38 65h1v1h-1v-1z" fill="rgb(16,16,16)"/>
<path d="M54 65h1v1h-1v-1z" fill="rgb(82,49,8)"/>
<path d="M62 65h1v2h-1v-2z" fill="rgb(82,49,8)"/>
<path d="M66 65h2v1h-2v-1z" fill="rgb(16,16,16)"/>
<path d="M32 66h6v1h-5v1h-3v-1h2v-1z" fill="rgb(16,16,16)"/>
<path d="M42 66h1v1h-1v-1z" fill="rgb(123,90,8)"/>
<path d="M43 66h3v1h-1v1h-1v-1h-1v-1z" fill="rgb(255,255,255)"/>
<path d="M46 66h1v1h-1v-1z" fill="rgb(16,16,16)"/>
<path d="M54 66h1v1h-1v-1z" fill="rgb(16,16,16)"/>
<path d="M55 66h1v1h-1v-1z" fill="rgb(123,90,8)"/>
<path d="M43 67h1v1h-1v-1z" fill="rgb(123,90,8)"/>
<path d="M45 67h1v1h-1v-1z" fill="rgb(16,16,16)"/>
<path d="M53 67h1v2h-1v-2z" fill="rgb(16,16,16)"/>
<path d="M54 67h1v1h2v1h4v3h1v3h-1v1h1v1h-1v1h-1v1h-2v-1h-1v-2h-1v-4h-1v-3h-1v-2z" fill="rgb(255,238,24)"/>
<path d="M55 67h2v1h-2v-1z" fill="rgb(16,16,16)"/>
<path d="M61 67h1v1h-1v-1z" fill="rgb(16,16,16)"/>
<path d="M62 67h1v1h1v4h1v2h-1v1h1v1h2v1h-1v1h-3v-2h-1v-4h-1v-4h1v-1z" fill="rgb(205,180,16)"/>
<path d="M63 67h1v1h-1v-1z" fill="rgb(16,16,16)"/>
<path d="M29 68h1v1h-1v-1z" fill="rgb(90,90,90)"/>
<path d="M30 68h1v2h-2v-1h1v-1z" fill="rgb(255,255,255)"/>
<path d="M31 68h2v2h1v1h-2v-1h-1v-2z" fill="rgb(205,180,16)"/>
<path d="M33 68h1v2h-1v-2z" fill="rgb(16,16,16)"/>
<path d="M43 68h2v1h-2v-1z" fill="rgb(16,16,16)"/>
<path d="M57 68h4v1h-4v-1z" fill="rgb(16,16,16)"/>
<path d="M64 68h1v4h-1v-4z" fill="rgb(16,16,16)"/>
<path d="M28 69h1v1h-1v-1z" fill="rgb(90,90,90)"/>
<path d="M41 69h2v1h-2v-1z" fill="rgb(16,16,16)"/>
<path d="M54 69h1v3h-2v-1h1v-2z" fill="rgb(16,16,16)"/>
<path d="M28 70h4v1h-4v-1z" fill="rgb(16,16,16)"/>
<path d="M34 70h1v1h-1v-1z" fill="rgb(16,16,16)"/>
<path d="M35 70h1v1h-1v-1z" fill="rgb(115,90,8)"/>
<path d="M40 70h1v1h-1v-1z" fill="rgb(16,16,16)"/>
<path d="M32 71h2v1h-2v-1z" fill="rgb(16,16,16)"/>
<path d="M39 71h1v1h-1v-1z" fill="rgb(16,16,16)"/>
<path d="M31 72h1v1h-1v-1z" fill="rgb(16,16,16)"/>
<path d="M32 72h2v2h-3v-1h1v-1z" fill="rgb(255,255,255)"/>
<path d="M38 72h1v1h-1v-1z" fill="rgb(16,16,16)"/>
<path d="M52 72h1v1h-1v-1z" fill="rgb(16,16,16)"/>
<path d="M53 72h2v2h-1v-1h-1v-1z" fill="rgb(255,255,255)"/>
<path d="M55 72h1v1h-1v-1z" fill="rgb(16,16,16)"/>
<path d="M65 72h1v2h-1v-2z" fill="rgb(16,16,16)"/>
<path d="M30 73h1v1h5v1h-6v-2z" fill="rgb(16,16,16)"/>
<path d="M36 73h2v1h-2v-1z" fill="rgb(16,16,16)"/>
<path d="M53 73h1v1h-1v-1z" fill="rgb(16,16,16)"/>
<path d="M55 73h1v2h-1v-2z" fill="rgb(123,90,8)"/>
<path d="M54 74h1v1h-1v-1z" fill="rgb(16,16,16)"/>
<path d="M64 74h2v1h2v1h-3v-1h-1v-1z" fill="rgb(255,238,24)"/>
<path d="M66 74h2v1h-2v-1z" fill="rgb(16,16,16)"/>
<path d="M55 75h1v1h-1v-1z" fill="rgb(16,16,16)"/>
<path d="M61 75h1v1h-1v-1z" fill="rgb(115,90,8)"/>
<path d="M68 75h1v1h-1v-1z" fill="rgb(16,16,16)"/>
<path d="M56 76h1v2h-1v-2z" fill="rgb(16,16,16)"/>
<path d="M62 76h1v1h-1v-1z" fill="rgb(115,90,8)"/>
<path d="M67 76h1v1h-1v-1z" fill="rgb(90,90,90)"/>
<path d="M68 76h1v1h1v2h-1v-1h-2v-1h1v-1z" fill="rgb(255,255,255)"/>
<path d="M69 76h1v1h-1v-1z" fill="rgb(16,16,16)"/>
<path d="M61 77h1v1h-1v-1z" fill="rgb(205,180,16)"/>
<path d="M62 77h1v1h-1v-1z" fill="rgb(90,90,90)"/>
<path d="M66 77h1v1h-1v-1z" fill="rgb(90,90,90)"/>
<path d="M70 77h1v3h-3v-1h2v-2z" fill="rgb(16,16,16)"/>
<path d="M57 78h1v1h-1v-1z" fill="rgb(16,16,16)"/>
<path d="M60 78h1v2h-1v-2z" fill="rgb(90,90,90)"/>
<path d="M61 78h2v3h-1v-1h-1v-2z" fill="rgb(255,255,255)"/>
<path d="M63 78h1v1h-1v-1z" fill="rgb(90,90,90)"/>
<path d="M64 78h4v1h-4v-1z" fill="rgb(16,16,16)"/>
<path d="M68 78h1v1h-1v-1z" fill="rgb(180,180,180)"/>
<path d="M58 79h2v1h-2v-1z" fill="rgb(16,16,16)"/>
<path d="M63 79h1v3h-2v-1h1v-2z" fill="rgb(16,16,16)"/>
<path d="M60 80h2v1h-2v-1z" fill="rgb(16,16,16)"/>
</svg>
