<?xml version="1.0" encoding="utf-8"?>
<!-- generated at drububu.com  -->
<!DOCTYPE svg PUBLIC "-//W3C//DTD SVG 1.1//EN" "http://www.w3.org/Graphics/SVG/1.1/DTD/svg11.dtd">
<svg version="1.1" preserveAspectRatio="xMinYMin meet" xmlns="http://www.w3.org/2000/svg" xmlns:xlink="http://www.w3.org/1999/xlink" x="0px" y="0px" width="96px" height="96px" viewBox="0 0 96 96">
<path d="M0 0h96v96h-96v-96z" fill="transparent"/>
<path d="M45 23h3v1h-3v-1z" fill="rgb(106,82,32)"/>
<path d="M43 24h2v1h-1v1h-1v2h-1v-2h-1v-1h2v-1z" fill="rgb(106,82,32)"/>
<path d="M45 24h2v1h-2v-1z" fill="rgb(238,230,139)"/>
<path d="M47 24h1v1h-1v-1z" fill="rgb(172,156,90)"/>
<path d="M48 24h3v1h-3v-1z" fill="rgb(106,82,32)"/>
<path d="M44 25h1v1h-1v-1z" fill="rgb(238,230,139)"/>
<path d="M45 25h1v1h-1v-1z" fill="rgb(205,189,98)"/>
<path d="M46 25h1v1h-1v-1z" fill="rgb(172,156,90)"/>
<path d="M47 25h1v1h-1v-1z" fill="rgb(106,82,32)"/>
<path d="M48 25h1v1h-1v-1z" fill="rgb(238,230,139)"/>
<path d="M49 25h2v1h-2v-1z" fill="rgb(205,189,98)"/>
<path d="M51 25h1v1h-1v-1z" fill="rgb(0,0,0)"/>
<path d="M40 26h1v1h-1v-1z" fill="rgb(106,82,32)"/>
<path d="M41 26h1v1h-1v-1z" fill="rgb(205,189,98)"/>
<path d="M43 26h1v1h-1v-1z" fill="rgb(238,230,139)"/>
<path d="M44 26h2v1h-1v1h-1v-2z" fill="rgb(172,156,90)"/>
<path d="M46 26h1v1h-1v-1z" fill="rgb(106,82,32)"/>
<path d="M47 26h1v1h-1v-1z" fill="rgb(238,230,139)"/>
<path d="M48 26h3v1h1v2h-1v-1h-3v1h-1v1h-1v2h-1v-3h1v-1h1v-1h1v-1z" fill="rgb(172,156,90)"/>
<path d="M51 26h1v1h-1v-1z" fill="rgb(106,82,32)"/>
<path d="M39 27h1v3h-1v-3z" fill="rgb(106,82,32)"/>
<path d="M40 27h1v5h-1v-5z" fill="rgb(205,189,98)"/>
<path d="M41 27h1v1h-1v-1z" fill="rgb(172,156,90)"/>
<path d="M43 27h1v1h-1v-1z" fill="rgb(205,189,98)"/>
<path d="M45 27h1v1h-1v-1z" fill="rgb(106,82,32)"/>
<path d="M46 27h1v1h-1v-1z" fill="rgb(238,230,139)"/>
<path d="M52 27h1v3h-1v-3z" fill="rgb(0,0,0)"/>
<path d="M41 28h1v2h-1v-2z" fill="rgb(106,82,32)"/>
<path d="M42 28h1v1h-1v-1z" fill="rgb(205,189,98)"/>
<path d="M43 28h1v3h-1v1h-1v-3h1v-1z" fill="rgb(172,156,90)"/>
<path d="M44 28h1v2h-1v-2z" fill="rgb(106,82,32)"/>
<path d="M45 28h1v1h-1v-1z" fill="rgb(205,189,98)"/>
<path d="M48 28h3v1h-3v-1z" fill="rgb(0,0,0)"/>
<path d="M47 29h1v1h-1v-1z" fill="rgb(0,0,0)"/>
<path d="M48 29h3v1h2v2h1v3h1v4h-1v1h-1v1h-1v1h-2v1h-1v-2h1v-1h1v-2h-1v-1h1v-4h-1v-1h-4
	v-1h1v-1h1v-1z" fill="rgb(148,189,189)"/>
<path d="M51 29h1v1h-1v-1z" fill="rgb(106,82,32)"/>
<path d="M39 30h1v2h-1v-2z" fill="rgb(0,0,0)"/>
<path d="M41 30h1v2h-1v-2z" fill="rgb(0,0,0)"/>
<path d="M44 30h1v2h1v1h-2v-3z" fill="rgb(0,0,0)"/>
<path d="M46 30h1v1h-1v-1z" fill="rgb(0,0,0)"/>
<path d="M53 30h1v1h-1v-1z" fill="rgb(90,123,106)"/>
<path d="M43 31h1v1h-1v-1z" fill="rgb(106,82,32)"/>
<path d="M53 31h1v1h-1v-1z" fill="rgb(0,0,0)"/>
<path d="M38 32h1v5h-1v-5z" fill="rgb(90,123,106)"/>
<path d="M39 32h1v1h-1v-1z" fill="rgb(148,189,189)"/>
<path d="M40 32h1v1h-1v-1z" fill="rgb(0,0,0)"/>
<path d="M41 32h1v1h1v-1h1v1h2v-1h2v1h-1v1h-1v4h1v1h1v1h-9v-1h-1v-2h1v1h1v1h1v-7z" fill="rgb(172,213,197)"/>
<path d="M42 32h1v1h-1v-1z" fill="rgb(0,0,0)"/>
<path d="M48 32h2v1h-2v-1z" fill="rgb(41,74,82)"/>
<path d="M54 32h1v1h-1v-1z" fill="rgb(90,123,106)"/>
<path d="M39 33h1v1h-1v-1z" fill="rgb(255,255,255)"/>
<path d="M40 33h1v2h-1v-2z" fill="rgb(90,123,106)"/>
<path d="M47 33h1v1h-1v-1z" fill="rgb(41,74,82)"/>
<path d="M48 33h1v1h-1v-1z" fill="rgb(255,255,255)"/>
<path d="M49 33h1v1h-1v-1z" fill="rgb(172,213,197)"/>
<path d="M50 33h1v1h-1v-1z" fill="rgb(90,123,106)"/>
<path d="M54 33h1v2h-1v-2z" fill="rgb(0,0,0)"/>
<path d="M39 34h1v1h-1v-1z" fill="rgb(238,82,82)"/>
<path d="M46 34h1v4h-1v-4z" fill="rgb(41,74,82)"/>
<path d="M47 34h1v1h1v3h-1v-2h-1v-2z" fill="rgb(180,0,0)"/>
<path d="M48 34h1v1h-1v-1z" fill="rgb(238,82,82)"/>
<path d="M49 34h1v4h-1v-4z" fill="rgb(255,255,255)"/>
<path d="M50 34h1v2h-1v-2z" fill="rgb(41,74,82)"/>
<path d="M39 35h1v3h-1v-3z" fill="rgb(180,0,0)"/>
<path d="M40 35h1v3h-1v-3z" fill="rgb(148,189,189)"/>
<path d="M55 35h1v4h-1v-4z" fill="rgb(0,0,0)"/>
<path d="M30 36h3v1h-3v-1z" fill="rgb(90,123,106)"/>
<path d="M47 36h1v2h-1v-2z" fill="rgb(0,0,0)"/>
<path d="M50 36h1v1h-1v-1z" fill="rgb(90,123,106)"/>
<path d="M28 37h2v1h-2v-1z" fill="rgb(90,123,106)"/>
<path d="M30 37h3v1h1v1h-3v1h-3v-2h2v-1z" fill="rgb(172,213,197)"/>
<path d="M33 37h2v1h-2v-1z" fill="rgb(90,123,106)"/>
<path d="M61 37h3v1h-3v-1z" fill="rgb(90,123,106)"/>
<path d="M27 38h1v1h-1v-1z" fill="rgb(41,74,82)"/>
<path d="M34 38h1v1h1v3h-2v1h-2v-1h-2v1h1v3h-1v-1h-1v-1h-1v1h-1v-1h-1v-1h1v-1h1v-2h3v-1
	h3v-1z" fill="rgb(148,189,189)"/>
<path d="M35 38h1v1h-1v-1z" fill="rgb(41,74,82)"/>
<path d="M36 38h2v1h-2v-1z" fill="rgb(90,123,106)"/>
<path d="M40 38h1v1h-1v-1z" fill="rgb(90,123,106)"/>
<path d="M43 38h1v1h-1v-1z" fill="rgb(90,123,106)"/>
<path d="M47 38h3v1h-3v-1z" fill="rgb(148,189,189)"/>
<path d="M50 38h1v2h-1v-2z" fill="rgb(90,123,106)"/>
<path d="M59 38h2v1h-2v-1z" fill="rgb(90,123,106)"/>
<path d="M61 38h3v1h2v2h-3v-1h-3v-1h1v-1z" fill="rgb(172,213,197)"/>
<path d="M64 38h2v1h-2v-1z" fill="rgb(90,123,106)"/>
<path d="M25 39h1v1h-1v-1z" fill="rgb(90,123,106)"/>
<path d="M26 39h1v1h-1v-1z" fill="rgb(0,0,0)"/>
<path d="M27 39h1v1h-1v-1z" fill="rgb(148,189,189)"/>
<path d="M36 39h1v2h1v1h3v1h1v1h1v2h1v1h-3v-2h-1v2h-1v-1h-1v-1h-2v-1h-2v-2h2v-3z" fill="rgb(115,164,164)"/>
<path d="M37 39h1v1h1v1h-2v-2z" fill="rgb(0,0,0)"/>
<path d="M38 39h1v1h-1v-1z" fill="rgb(115,164,164)"/>
<path d="M48 39h1v1h-1v-1z" fill="rgb(115,164,164)"/>
<path d="M49 39h1v1h-1v-1z" fill="rgb(0,0,0)"/>
<path d="M54 39h1v1h-1v-1z" fill="rgb(0,0,0)"/>
<path d="M57 39h1v1h-1v-1z" fill="rgb(90,123,106)"/>
<path d="M58 39h1v1h-1v-1z" fill="rgb(41,74,82)"/>
<path d="M59 39h1v1h3v1h3v2h1v1h1v1h-1v1h-1v-1h-1v1h-1v1h-1v-3h1v-1h-2v1h-2v-1h-2v-3h1
	v-1z" fill="rgb(148,189,189)"/>
<path d="M66 39h1v1h-1v-1z" fill="rgb(41,74,82)"/>
<path d="M24 40h1v1h-1v-1z" fill="rgb(90,123,106)"/>
<path d="M25 40h3v2h-1v1h-4v-1h1v-1h1v-1z" fill="rgb(172,213,197)"/>
<path d="M39 40h2v1h-2v-1z" fill="rgb(115,164,164)"/>
<path d="M41 40h1v1h-1v-1z" fill="rgb(90,123,106)"/>
<path d="M42 40h3v1h-3v-1z" fill="rgb(41,74,82)"/>
<path d="M45 40h2v1h-2v-1z" fill="rgb(115,164,164)"/>
<path d="M47 40h1v1h-1v-1z" fill="rgb(90,123,106)"/>
<path d="M48 40h1v1h-1v-1z" fill="rgb(0,0,0)"/>
<path d="M49 40h1v1h-1v-1z" fill="rgb(41,74,82)"/>
<path d="M53 40h1v1h-1v-1z" fill="rgb(0,0,0)"/>
<path d="M54 40h3v1h-3v-1z" fill="rgb(41,74,82)"/>
<path d="M57 40h1v3h2v2h-2v1h-2v-1h-2v-1h1v-1h-3v-1h2v-1h3v-1z" fill="rgb(115,164,164)"/>
<path d="M66 40h1v1h-1v-1z" fill="rgb(148,189,189)"/>
<path d="M67 40h1v1h-1v-1z" fill="rgb(0,0,0)"/>
<path d="M68 40h1v1h-1v-1z" fill="rgb(90,123,106)"/>
<path d="M23 41h1v1h-1v-1z" fill="rgb(90,123,106)"/>
<path d="M38 41h1v1h-1v-1z" fill="rgb(41,74,82)"/>
<path d="M39 41h3v2h-1v-1h-2v-1z" fill="rgb(0,0,0)"/>
<path d="M42 41h1v2h-1v-2z" fill="rgb(180,0,0)"/>
<path d="M43 41h5v2h-2v-1h-3v-1z" fill="rgb(238,82,82)"/>
<path d="M48 41h1v2h-1v-2z" fill="rgb(180,0,0)"/>
<path d="M52 41h1v1h-1v-1z" fill="rgb(0,0,0)"/>
<path d="M53 41h1v1h-1v-1z" fill="rgb(41,74,82)"/>
<path d="M66 41h3v1h1v1h1v1h-4v-1h-1v-2z" fill="rgb(172,213,197)"/>
<path d="M69 41h1v1h-1v-1z" fill="rgb(90,123,106)"/>
<path d="M22 42h1v1h-1v-1z" fill="rgb(90,123,106)"/>
<path d="M30 42h1v1h-1v-1z" fill="rgb(41,74,82)"/>
<path d="M31 42h1v1h-1v-1z" fill="rgb(90,123,106)"/>
<path d="M43 42h3v1h1v1h-3v-1h-1v-1z" fill="rgb(255,131,139)"/>
<path d="M50 42h1v1h-1v-1z" fill="rgb(90,123,106)"/>
<path d="M51 42h1v1h-1v-1z" fill="rgb(0,0,0)"/>
<path d="M70 42h1v1h-1v-1z" fill="rgb(90,123,106)"/>
<path d="M22 43h1v2h-1v-2z" fill="rgb(41,74,82)"/>
<path d="M23 43h3v1h1v1h1v2h-2v-1h-1v-1h-2v-2z" fill="rgb(115,164,164)"/>
<path d="M31 43h3v1h-2v2h-1v-3z" fill="rgb(0,0,0)"/>
<path d="M42 43h1v1h-1v-1z" fill="rgb(0,0,0)"/>
<path d="M43 43h1v1h-1v-1z" fill="rgb(180,0,0)"/>
<path d="M47 43h1v1h-1v-1z" fill="rgb(180,0,0)"/>
<path d="M48 43h1v1h-1v-1z" fill="rgb(148,189,189)"/>
<path d="M49 43h1v1h-1v-1z" fill="rgb(41,74,82)"/>
<path d="M50 43h5v1h-1v1h1v1h-1v2h-2v1h-7v2h-1v1h1v1h1v2h1v1h2v1h1v1h-1v2h-5v-1h-3v-1h-2
	v-1h-1v-2h2v-2h1v-3h-1v-3h4v-1h4v-1h1v1h3v-1h1v-1h-3v-1z" fill="rgb(148,189,189)"/>
<path d="M62 43h1v1h-1v-1z" fill="rgb(90,123,106)"/>
<path d="M63 43h1v1h-1v-1z" fill="rgb(41,74,82)"/>
<path d="M71 43h1v1h-1v-1z" fill="rgb(90,123,106)"/>
<path d="M28 44h1v1h1v1h-1v1h-1v-3z" fill="rgb(41,74,82)"/>
<path d="M34 44h1v1h-1v-1z" fill="rgb(41,74,82)"/>
<path d="M35 44h1v1h-1v-1z" fill="rgb(0,0,0)"/>
<path d="M43 44h1v2h-1v-2z" fill="rgb(0,0,0)"/>
<path d="M44 44h3v1h-3v-1z" fill="rgb(180,0,0)"/>
<path d="M47 44h1v1h-1v-1z" fill="rgb(115,164,164)"/>
<path d="M48 44h1v1h-1v-1z" fill="rgb(0,0,0)"/>
<path d="M49 44h1v1h-1v-1z" fill="rgb(148,189,189)"/>
<path d="M50 44h3v1h-1v1h-3v-1h1v-1z" fill="rgb(172,213,197)"/>
<path d="M60 44h3v3h-1v-2h-2v-1z" fill="rgb(0,0,0)"/>
<path d="M68 44h3v2h-2v1h-1v1h-2v-2h1v-1h1v-1z" fill="rgb(115,164,164)"/>
<path d="M71 44h1v2h-1v-2z" fill="rgb(41,74,82)"/>
<path d="M23 45h1v1h-1v-1z" fill="rgb(41,74,82)"/>
<path d="M24 45h1v2h-1v-2z" fill="rgb(0,0,0)"/>
<path d="M36 45h1v1h-1v-1z" fill="rgb(0,0,0)"/>
<path d="M37 45h1v1h-1v-1z" fill="rgb(41,74,82)"/>
<path d="M40 45h1v2h-1v-2z" fill="rgb(41,74,82)"/>
<path d="M44 45h1v1h-1v-1z" fill="rgb(41,74,82)"/>
<path d="M45 45h2v1h-2v-1z" fill="rgb(0,0,0)"/>
<path d="M47 45h1v1h-1v-1z" fill="rgb(41,74,82)"/>
<path d="M55 45h1v1h-1v-1z" fill="rgb(41,74,82)"/>
<path d="M58 45h1v1h-1v-1z" fill="rgb(0,0,0)"/>
<path d="M59 45h1v1h-1v-1z" fill="rgb(41,74,82)"/>
<path d="M65 45h1v3h-1v-1h-1v-1h1v-1z" fill="rgb(41,74,82)"/>
<path d="M25 46h1v1h-1v-1z" fill="rgb(90,123,106)"/>
<path d="M29 46h1v1h-1v-1z" fill="rgb(115,164,164)"/>
<path d="M30 46h1v1h-1v-1z" fill="rgb(0,0,0)"/>
<path d="M38 46h1v1h-1v-1z" fill="rgb(41,74,82)"/>
<path d="M54 46h1v1h-1v-1z" fill="rgb(115,164,164)"/>
<path d="M55 46h3v1h-3v-1z" fill="rgb(0,0,0)"/>
<path d="M69 46h1v2h-1v-2z" fill="rgb(0,0,0)"/>
<path d="M70 46h1v1h-1v-1z" fill="rgb(41,74,82)"/>
<path d="M25 47h1v1h-1v-1z" fill="rgb(41,74,82)"/>
<path d="M26 47h4v1h-4v-1z" fill="rgb(0,0,0)"/>
<path d="M39 47h1v1h-1v-1z" fill="rgb(0,0,0)"/>
<path d="M54 47h1v2h-1v-2z" fill="rgb(41,74,82)"/>
<path d="M63 47h1v1h-1v-1z" fill="rgb(0,0,0)"/>
<path d="M64 47h1v1h-1v-1z" fill="rgb(115,164,164)"/>
<path d="M68 47h1v1h-1v-1z" fill="rgb(90,123,106)"/>
<path d="M39 48h1v1h-1v-1z" fill="rgb(41,74,82)"/>
<path d="M52 48h2v1h-1v6h1v5h-1v1h-1v1h-2v1h-7v1h-3v1h-1v2h-1v2h-1v1h-2v-1h-3v-2h1v-1h2
	v-1h1v-1h1v-1h1v-2h-1v-1h-1v-1h1v-2h2v1h2v1h3v1h5v-2h1v-1h2v-1h-3v-1h-3v-2h-1
	v-1h-1v-1h1v-2h7v-1z" fill="rgb(115,164,164)"/>
<path d="M64 48h4v1h-4v-1z" fill="rgb(0,0,0)"/>
<path d="M68 48h1v1h-1v-1z" fill="rgb(41,74,82)"/>
<path d="M39 49h1v1h-1v-1z" fill="rgb(0,0,0)"/>
<path d="M53 49h1v4h-1v-4z" fill="rgb(41,74,82)"/>
<path d="M38 50h1v2h-1v-2z" fill="rgb(41,74,82)"/>
<path d="M39 50h1v1h-1v-1z" fill="rgb(148,189,189)"/>
<path d="M40 50h1v1h-1v-1z" fill="rgb(41,74,82)"/>
<path d="M50 50h1v1h-1v-1z" fill="rgb(0,0,0)"/>
<path d="M51 50h1v1h-1v-1z" fill="rgb(41,74,82)"/>
<path d="M39 51h1v1h-1v-1z" fill="rgb(90,123,106)"/>
<path d="M40 51h1v1h-1v-1z" fill="rgb(0,0,0)"/>
<path d="M49 51h1v1h-1v-1z" fill="rgb(0,0,0)"/>
<path d="M37 52h1v1h-1v-1z" fill="rgb(41,74,82)"/>
<path d="M38 52h2v1h-1v1h-1v-2z" fill="rgb(148,189,189)"/>
<path d="M40 52h1v1h-1v-1z" fill="rgb(115,164,164)"/>
<path d="M37 53h1v1h-1v-1z" fill="rgb(0,0,0)"/>
<path d="M39 53h1v1h-1v-1z" fill="rgb(115,164,164)"/>
<path d="M49 53h1v1h-1v-1z" fill="rgb(90,123,106)"/>
<path d="M50 53h2v1h-2v-1z" fill="rgb(41,74,82)"/>
<path d="M53 53h1v2h-1v-2z" fill="rgb(0,0,0)"/>
<path d="M37 54h3v1h-3v-1z" fill="rgb(90,123,106)"/>
<path d="M37 55h1v1h-1v-1z" fill="rgb(0,0,0)"/>
<path d="M47 55h2v1h-2v-1z" fill="rgb(41,74,82)"/>
<path d="M54 55h1v2h-1v-2z" fill="rgb(0,0,0)"/>
<path d="M37 56h1v1h-1v-1z" fill="rgb(41,74,82)"/>
<path d="M49 56h1v1h-1v-1z" fill="rgb(90,123,106)"/>
<path d="M50 56h2v1h-2v-1z" fill="rgb(41,74,82)"/>
<path d="M36 57h1v2h-1v-2z" fill="rgb(41,74,82)"/>
<path d="M54 57h1v1h-1v-1z" fill="rgb(41,74,82)"/>
<path d="M54 58h1v2h1v1h1v1h1v2h1v3h1v1h-1v1h2v-1h1v3h-6v-2h-1v-1h-1v-2h-1v-1h-1v-1h-4
	v-1h2v-1h2v-1h1v-1h1v-2z" fill="rgb(90,123,106)"/>
<path d="M55 58h1v2h-1v-2z" fill="rgb(0,0,0)"/>
<path d="M35 59h1v1h-1v-1z" fill="rgb(41,74,82)"/>
<path d="M34 60h1v1h-1v-1z" fill="rgb(41,74,82)"/>
<path d="M35 60h2v1h1v2h-1v1h-1v1h-1v1h-2v-1h-1v-1h1v-1h1v-2h1v-1z" fill="rgb(148,189,189)"/>
<path d="M56 60h1v1h-1v-1z" fill="rgb(0,0,0)"/>
<path d="M33 61h1v1h-1v-1z" fill="rgb(41,74,82)"/>
<path d="M57 61h1v1h-1v-1z" fill="rgb(41,74,82)"/>
<path d="M32 62h1v2h-1v-2z" fill="rgb(0,0,0)"/>
<path d="M33 62h1v1h-1v-1z" fill="rgb(90,123,106)"/>
<path d="M58 62h1v2h-1v-2z" fill="rgb(41,74,82)"/>
<path d="M43 63h1v1h-1v-1z" fill="rgb(41,74,82)"/>
<path d="M44 63h4v1h-4v-1z" fill="rgb(0,0,0)"/>
<path d="M31 64h1v1h-1v-1z" fill="rgb(41,74,82)"/>
<path d="M40 64h1v1h-1v-1z" fill="rgb(0,0,0)"/>
<path d="M41 64h1v1h-1v-1z" fill="rgb(41,74,82)"/>
<path d="M50 64h1v1h-1v-1z" fill="rgb(0,0,0)"/>
<path d="M51 64h1v1h-1v-1z" fill="rgb(41,74,82)"/>
<path d="M59 64h1v1h-1v-1z" fill="rgb(41,74,82)"/>
<path d="M30 65h1v2h-1v-2z" fill="rgb(0,0,0)"/>
<path d="M31 65h1v1h-1v-1z" fill="rgb(148,189,189)"/>
<path d="M32 65h1v1h-1v-1z" fill="rgb(115,164,164)"/>
<path d="M39 65h1v2h-1v-2z" fill="rgb(0,0,0)"/>
<path d="M52 65h1v1h-1v-1z" fill="rgb(0,0,0)"/>
<path d="M59 65h1v1h-1v-1z" fill="rgb(0,0,0)"/>
<path d="M31 66h1v1h-1v-1z" fill="rgb(41,74,82)"/>
<path d="M32 66h1v1h-1v-1z" fill="rgb(148,189,189)"/>
<path d="M53 66h1v1h-1v-1z" fill="rgb(0,0,0)"/>
<path d="M59 66h1v1h-1v-1z" fill="rgb(41,74,82)"/>
<path d="M60 66h1v1h-1v-1z" fill="rgb(0,0,0)"/>
<path d="M29 67h2v1h-2v-1z" fill="rgb(41,74,82)"/>
<path d="M31 67h1v2h3v1h1v2h-7v-1h-1v-2h1v-1h2v-1z" fill="rgb(148,189,189)"/>
<path d="M38 67h1v1h-1v-1z" fill="rgb(41,74,82)"/>
<path d="M53 67h1v1h-1v-1z" fill="rgb(41,74,82)"/>
<path d="M60 67h1v1h-1v-1z" fill="rgb(41,74,82)"/>
<path d="M61 67h1v1h-1v-1z" fill="rgb(0,0,0)"/>
<path d="M28 68h1v1h-1v-1z" fill="rgb(41,74,82)"/>
<path d="M38 68h1v1h-1v-1z" fill="rgb(0,0,0)"/>
<path d="M54 68h1v1h-1v-1z" fill="rgb(41,74,82)"/>
<path d="M59 68h2v1h-2v-1z" fill="rgb(115,164,164)"/>
<path d="M62 68h1v1h-1v-1z" fill="rgb(41,74,82)"/>
<path d="M27 69h1v1h-1v-1z" fill="rgb(41,74,82)"/>
<path d="M37 69h1v1h-1v-1z" fill="rgb(41,74,82)"/>
<path d="M55 69h1v1h-1v-1z" fill="rgb(41,74,82)"/>
<path d="M62 69h1v2h-1v-2z" fill="rgb(0,0,0)"/>
<path d="M27 70h1v2h-1v-2z" fill="rgb(0,0,0)"/>
<path d="M36 70h1v1h-1v-1z" fill="rgb(41,74,82)"/>
<path d="M55 70h1v1h-1v-1z" fill="rgb(0,0,0)"/>
<path d="M28 71h1v1h-1v-1z" fill="rgb(41,74,82)"/>
<path d="M36 71h1v1h-1v-1z" fill="rgb(0,0,0)"/>
<path d="M56 71h6v1h-6v-1z" fill="rgb(0,0,0)"/>
<path d="M28 72h8v1h-8v-1z" fill="rgb(0,0,0)"/>
</svg>
