<?xml version="1.0" encoding="utf-8"?>
<!-- generated at drububu.com  -->
<!DOCTYPE svg PUBLIC "-//W3C//DTD SVG 1.1//EN" "http://www.w3.org/Graphics/SVG/1.1/DTD/svg11.dtd">
<svg version="1.1" preserveAspectRatio="xMinYMin meet" xmlns="http://www.w3.org/2000/svg" xmlns:xlink="http://www.w3.org/1999/xlink" x="0px" y="0px" width="96px" height="96px" viewBox="0 0 96 96">
<path d="M0 0h96v96h-96v-96z" fill="transparent"/>
<path d="M55 13h3v1h-3v-1z" fill="rgb(98,74,131)"/>
<path d="M52 14h2v1h-2v-1z" fill="rgb(0,0,0)"/>
<path d="M54 14h1v1h-1v-1z" fill="rgb(98,74,131)"/>
<path d="M55 14h1v1h-1v-1z" fill="rgb(164,139,205)"/>
<path d="M56 14h2v1h-2v-1z" fill="rgb(139,115,180)"/>
<path d="M58 14h1v1h-1v-1z" fill="rgb(98,74,131)"/>
<path d="M51 15h1v2h-1v-2z" fill="rgb(0,0,0)"/>
<path d="M52 15h3v1h-1v1h-1v-1h-1v-1z" fill="rgb(164,139,205)"/>
<path d="M55 15h1v1h-1v-1z" fill="rgb(0,0,0)"/>
<path d="M56 15h1v1h-1v-1z" fill="rgb(98,74,131)"/>
<path d="M57 15h2v2h1v1h1v1h1v1h2v1h2v1h-2v1h-1v-1h-1v1h1v1h1v1h1v1h1v1h1v1h1v1h1v-2h1v1
	h1v-2h1v2h1v1h-3v1h-1v1h-1v2h-2v-1h-2v-1h-1v-2h-1v-2h-1v-1h-1v-3h-1v1h-3v-1h-2
	v-1h-1v-3h-1v-1h2v-1h2v-1h1v-1z" fill="rgb(189,156,230)"/>
<path d="M59 15h2v1h-1v1h-1v-2z" fill="rgb(98,74,131)"/>
<path d="M50 16h1v1h-1v-1z" fill="rgb(98,74,131)"/>
<path d="M52 16h1v1h-1v-1z" fill="rgb(98,74,131)"/>
<path d="M54 16h2v1h-2v-1z" fill="rgb(139,115,180)"/>
<path d="M60 16h1v1h-1v-1z" fill="rgb(139,115,180)"/>
<path d="M61 16h1v2h-1v-2z" fill="rgb(98,74,131)"/>
<path d="M49 17h1v1h-1v-1z" fill="rgb(98,74,131)"/>
<path d="M50 17h3v1h-1v1h-2v1h-1v-2h1v-1z" fill="rgb(164,139,205)"/>
<path d="M53 17h1v1h-1v-1z" fill="rgb(98,74,131)"/>
<path d="M60 17h1v1h-1v-1z" fill="rgb(0,0,0)"/>
<path d="M48 18h1v2h-1v-2z" fill="rgb(0,0,0)"/>
<path d="M56 18h1v1h-1v-1z" fill="rgb(139,115,180)"/>
<path d="M57 18h1v1h-1v-1z" fill="rgb(164,139,205)"/>
<path d="M61 18h2v1h-2v-1z" fill="rgb(0,0,0)"/>
<path d="M50 19h3v1h-3v-1z" fill="rgb(0,0,0)"/>
<path d="M58 19h1v1h-1v-1z" fill="rgb(164,139,205)"/>
<path d="M62 19h1v1h-1v-1z" fill="rgb(139,115,180)"/>
<path d="M63 19h1v1h-1v-1z" fill="rgb(0,0,0)"/>
<path d="M49 20h1v1h-1v-1z" fill="rgb(98,74,131)"/>
<path d="M50 20h1v1h-1v-1z" fill="rgb(139,115,180)"/>
<path d="M51 20h1v2h-2v-1h1v-1z" fill="rgb(189,156,230)"/>
<path d="M52 20h1v1h-1v-1z" fill="rgb(164,139,205)"/>
<path d="M64 20h2v1h-2v-1z" fill="rgb(98,74,131)"/>
<path d="M48 21h1v1h-1v-1z" fill="rgb(98,74,131)"/>
<path d="M49 21h1v1h1v1h-2v-2z" fill="rgb(164,139,205)"/>
<path d="M52 21h1v1h-1v-1z" fill="rgb(139,115,180)"/>
<path d="M66 21h1v1h-1v-1z" fill="rgb(139,115,180)"/>
<path d="M67 21h1v1h-1v-1z" fill="rgb(98,74,131)"/>
<path d="M48 22h1v1h-1v-1z" fill="rgb(0,0,0)"/>
<path d="M51 22h2v1h-2v-1z" fill="rgb(0,0,0)"/>
<path d="M53 22h1v1h-1v-1z" fill="rgb(98,74,131)"/>
<path d="M60 22h1v1h-1v-1z" fill="rgb(164,139,205)"/>
<path d="M62 22h1v1h-1v-1z" fill="rgb(139,115,180)"/>
<path d="M64 22h2v1h-2v-1z" fill="rgb(197,0,0)"/>
<path d="M66 22h1v1h-1v-1z" fill="rgb(189,156,230)"/>
<path d="M67 22h1v1h-1v-1z" fill="rgb(139,115,180)"/>
<path d="M68 22h1v1h-1v-1z" fill="rgb(0,0,0)"/>
<path d="M49 23h2v1h-2v-1z" fill="rgb(0,0,0)"/>
<path d="M54 23h2v1h-2v-1z" fill="rgb(0,0,0)"/>
<path d="M59 23h1v1h-1v-1z" fill="rgb(164,139,205)"/>
<path d="M63 23h1v1h-1v-1z" fill="rgb(139,115,180)"/>
<path d="M64 23h1v1h-1v-1z" fill="rgb(189,156,230)"/>
<path d="M65 23h2v1h-2v-1z" fill="rgb(156,57,123)"/>
<path d="M67 23h1v1h-1v-1z" fill="rgb(197,0,0)"/>
<path d="M68 23h1v1h-1v-1z" fill="rgb(189,156,230)"/>
<path d="M69 23h1v1h-1v-1z" fill="rgb(0,0,0)"/>
<path d="M31 24h4v1h-4v-1z" fill="rgb(98,74,131)"/>
<path d="M56 24h3v1h-3v-1z" fill="rgb(0,0,0)"/>
<path d="M59 24h1v1h-1v-1z" fill="rgb(139,115,180)"/>
<path d="M64 24h1v1h-1v-1z" fill="rgb(156,57,123)"/>
<path d="M65 24h2v1h-2v-1z" fill="rgb(189,156,230)"/>
<path d="M67 24h1v1h-1v-1z" fill="rgb(156,57,123)"/>
<path d="M68 24h1v1h-1v-1z" fill="rgb(197,0,0)"/>
<path d="M69 24h1v1h-1v-1z" fill="rgb(189,156,230)"/>
<path d="M70 24h1v1h-1v-1z" fill="rgb(0,0,0)"/>
<path d="M28 25h2v1h-2v-1z" fill="rgb(98,74,131)"/>
<path d="M30 25h1v1h-1v-1z" fill="rgb(139,115,180)"/>
<path d="M31 25h4v2h-1v-1h-2v1h2v1h1v1h1v1h-2v-1h-1v2h1v1h-2v-1h-1v1h-2v-1h-3v-2h-1v2h1
	v1h2v9h-1v1h-1v1h-2v-3h-1v4h-3v-4h-1v-2h1v-2h1v-2h1v-2h1v-1h1v-3h1v-1h3v-1h3v-1
	z" fill="rgb(189,156,230)"/>
<path d="M35 25h1v1h-1v-1z" fill="rgb(98,74,131)"/>
<path d="M59 25h1v1h-1v-1z" fill="rgb(98,74,131)"/>
<path d="M65 25h1v1h-1v-1z" fill="rgb(156,57,123)"/>
<path d="M66 25h1v1h-1v-1z" fill="rgb(197,0,0)"/>
<path d="M67 25h1v1h-1v-1z" fill="rgb(189,156,230)"/>
<path d="M68 25h1v1h-1v-1z" fill="rgb(156,57,123)"/>
<path d="M69 25h1v1h-1v-1z" fill="rgb(197,0,0)"/>
<path d="M70 25h1v1h-1v-1z" fill="rgb(189,156,230)"/>
<path d="M71 25h1v1h-1v-1z" fill="rgb(0,0,0)"/>
<path d="M25 26h2v1h-2v-1z" fill="rgb(98,74,131)"/>
<path d="M27 26h1v1h-1v-1z" fill="rgb(139,115,180)"/>
<path d="M32 26h2v1h-2v-1z" fill="rgb(164,139,205)"/>
<path d="M35 26h1v1h-1v-1z" fill="rgb(164,139,205)"/>
<path d="M36 26h1v1h-1v-1z" fill="rgb(0,0,0)"/>
<path d="M46 26h3v1h-3v-1z" fill="rgb(82,57,0)"/>
<path d="M60 26h1v1h-1v-1z" fill="rgb(0,0,0)"/>
<path d="M66 26h1v1h-1v-1z" fill="rgb(156,57,123)"/>
<path d="M67 26h1v1h-1v-1z" fill="rgb(197,0,0)"/>
<path d="M68 26h1v1h-1v-1z" fill="rgb(189,156,230)"/>
<path d="M69 26h1v1h-1v-1z" fill="rgb(156,57,123)"/>
<path d="M70 26h1v2h-1v-2z" fill="rgb(197,0,0)"/>
<path d="M72 26h1v1h-1v-1z" fill="rgb(0,0,0)"/>
<path d="M24 27h1v1h-1v-1z" fill="rgb(98,74,131)"/>
<path d="M34 27h1v1h-1v-1z" fill="rgb(164,139,205)"/>
<path d="M35 27h2v1h1v2h-1v-1h-1v-1h-1v-1z" fill="rgb(139,115,180)"/>
<path d="M37 27h1v1h-1v-1z" fill="rgb(0,0,0)"/>
<path d="M43 27h3v1h-3v-1z" fill="rgb(82,57,0)"/>
<path d="M46 27h2v2h-1v-1h-1v-1z" fill="rgb(205,189,98)"/>
<path d="M48 27h1v1h-1v-1z" fill="rgb(131,115,41)"/>
<path d="M49 27h3v1h-3v-1z" fill="rgb(82,57,0)"/>
<path d="M61 27h1v1h-1v-1z" fill="rgb(98,74,131)"/>
<path d="M67 27h1v1h-1v-1z" fill="rgb(156,57,123)"/>
<path d="M68 27h1v1h-1v-1z" fill="rgb(197,0,0)"/>
<path d="M72 27h1v1h-1v-1z" fill="rgb(98,74,131)"/>
<path d="M23 28h1v1h-1v-1z" fill="rgb(98,74,131)"/>
<path d="M35 28h1v1h-1v-1z" fill="rgb(98,74,131)"/>
<path d="M38 28h1v2h-1v-2z" fill="rgb(0,0,0)"/>
<path d="M42 28h1v2h-1v-2z" fill="rgb(82,57,0)"/>
<path d="M43 28h3v1h1v1h1v1h-2v-1h-1v-1h-2v-1z" fill="rgb(238,230,139)"/>
<path d="M46 28h1v1h-1v-1z" fill="rgb(131,115,41)"/>
<path d="M48 28h1v1h-1v-1z" fill="rgb(238,230,139)"/>
<path d="M49 28h1v1h-1v-1z" fill="rgb(131,115,41)"/>
<path d="M50 28h1v1h-1v-1z" fill="rgb(205,189,98)"/>
<path d="M51 28h1v1h-1v-1z" fill="rgb(238,230,139)"/>
<path d="M52 28h1v1h-1v-1z" fill="rgb(82,57,0)"/>
<path d="M61 28h1v1h-1v-1z" fill="rgb(0,0,0)"/>
<path d="M68 28h1v1h-1v-1z" fill="rgb(156,57,123)"/>
<path d="M73 28h1v2h-1v-2z" fill="rgb(98,74,131)"/>
<path d="M22 29h1v1h-1v-1z" fill="rgb(98,74,131)"/>
<path d="M23 29h1v1h-1v-1z" fill="rgb(156,57,123)"/>
<path d="M25 29h1v1h-1v-1z" fill="rgb(164,139,205)"/>
<path d="M33 29h1v1h-1v-1z" fill="rgb(139,115,180)"/>
<path d="M36 29h1v3h-1v-3z" fill="rgb(98,74,131)"/>
<path d="M43 29h2v1h1v1h-3v-2z" fill="rgb(205,189,98)"/>
<path d="M47 29h1v1h-1v-1z" fill="rgb(131,115,41)"/>
<path d="M48 29h1v1h-1v-1z" fill="rgb(205,189,98)"/>
<path d="M49 29h1v1h-1v-1z" fill="rgb(238,230,139)"/>
<path d="M50 29h1v1h-1v-1z" fill="rgb(131,115,41)"/>
<path d="M51 29h1v1h-1v-1z" fill="rgb(205,189,98)"/>
<path d="M52 29h1v3h-1v-3z" fill="rgb(238,230,139)"/>
<path d="M53 29h1v3h-1v-3z" fill="rgb(131,115,41)"/>
<path d="M62 29h1v1h-1v-1z" fill="rgb(98,74,131)"/>
<path d="M70 29h2v1h-2v-1z" fill="rgb(164,139,205)"/>
<path d="M72 29h1v2h-1v1h-1v1h1v1h-1v1h-1v2h-1v2h-1v2h-1v1h-2v1h-1v1h-1v2h-1v1h-1v2h-1v2
	h-1v1h-1v1h-1v-1h-1v2h-1v1h-4v1h4v-1h1v-1h2v2h-1v1h-16v-1h3v-1h-3v-1h-2v-1h-1
	v-1h2v1h6v-1h1v2h1v-2h1v1h5v-1h1v-1h1v-1h1v1h1v-2h1v-4h1v-2h1v-1h-1v-1h-1v-3h-1
	v-1h2v3h3v-2h1v-1h1v-1h1v-2h2v-2h1v1h1v-3h2v-1z" fill="rgb(139,115,180)"/>
<path d="M22 30h1v2h-1v-2z" fill="rgb(156,57,123)"/>
<path d="M23 30h1v1h-1v-1z" fill="rgb(197,0,0)"/>
<path d="M25 30h1v1h-1v-1z" fill="rgb(98,74,131)"/>
<path d="M33 30h1v1h-1v-1z" fill="rgb(98,74,131)"/>
<path d="M34 30h1v1h-1v-1z" fill="rgb(139,115,180)"/>
<path d="M35 30h1v1h-1v-1z" fill="rgb(164,139,205)"/>
<path d="M37 30h1v2h-1v-2z" fill="rgb(0,0,0)"/>
<path d="M42 30h1v1h-1v-1z" fill="rgb(98,74,131)"/>
<path d="M48 30h1v1h-1v-1z" fill="rgb(131,115,41)"/>
<path d="M49 30h1v1h-1v-1z" fill="rgb(205,189,98)"/>
<path d="M50 30h1v2h-1v-2z" fill="rgb(238,230,139)"/>
<path d="M51 30h1v2h-1v-2z" fill="rgb(131,115,41)"/>
<path d="M62 30h1v2h-2v-1h1v-1z" fill="rgb(0,0,0)"/>
<path d="M69 30h1v3h-1v-3z" fill="rgb(98,74,131)"/>
<path d="M73 30h1v2h-1v-2z" fill="rgb(0,0,0)"/>
<path d="M21 31h1v1h-1v-1z" fill="rgb(98,74,131)"/>
<path d="M26 31h1v1h-1v-1z" fill="rgb(98,74,131)"/>
<path d="M27 31h1v1h-1v-1z" fill="rgb(0,0,0)"/>
<path d="M28 31h1v1h-1v-1z" fill="rgb(139,115,180)"/>
<path d="M31 31h1v3h-1v-3z" fill="rgb(98,74,131)"/>
<path d="M34 31h1v2h-1v-2z" fill="rgb(98,74,131)"/>
<path d="M35 31h1v2h-1v-2z" fill="rgb(139,115,180)"/>
<path d="M41 31h1v1h-1v-1z" fill="rgb(82,57,0)"/>
<path d="M42 31h1v1h3v1h-2v1h-1v3h1v1h-2v2h1v1h2v1h2v1h3v-1h4v1h-2v1h-6v-1h-3v-1h-1v-1
	h-1v-1h-2v-1h1v-2h1v-3h1v-3z" fill="rgb(139,115,180)"/>
<path d="M43 31h3v1h-3v-1z" fill="rgb(98,74,131)"/>
<path d="M46 31h2v1h-2v-1z" fill="rgb(205,189,98)"/>
<path d="M48 31h1v2h-1v-2z" fill="rgb(238,230,139)"/>
<path d="M49 31h1v2h-1v-2z" fill="rgb(131,115,41)"/>
<path d="M63 31h1v1h-1v-1z" fill="rgb(164,139,205)"/>
<path d="M68 31h1v1h-1v-1z" fill="rgb(164,139,205)"/>
<path d="M72 31h1v2h-2v-1h1v-1z" fill="rgb(98,74,131)"/>
<path d="M21 32h1v1h-1v-1z" fill="rgb(156,57,123)"/>
<path d="M24 32h1v1h-1v-1z" fill="rgb(197,0,0)"/>
<path d="M28 32h1v2h-1v-2z" fill="rgb(0,0,0)"/>
<path d="M29 32h1v1h-1v-1z" fill="rgb(98,74,131)"/>
<path d="M30 32h1v1h-1v-1z" fill="rgb(164,139,205)"/>
<path d="M32 32h1v1h-1v-1z" fill="rgb(164,139,205)"/>
<path d="M33 32h1v2h-2v-1h1v-1z" fill="rgb(139,115,180)"/>
<path d="M36 32h1v1h-1v-1z" fill="rgb(0,0,0)"/>
<path d="M41 32h1v2h-1v-2z" fill="rgb(0,0,0)"/>
<path d="M46 32h2v1h-2v-1z" fill="rgb(98,74,131)"/>
<path d="M50 32h1v1h-1v-1z" fill="rgb(205,189,98)"/>
<path d="M51 32h1v3h-1v-3z" fill="rgb(238,230,139)"/>
<path d="M52 32h1v1h-1v-1z" fill="rgb(205,189,98)"/>
<path d="M53 32h1v1h-1v-1z" fill="rgb(139,115,180)"/>
<path d="M54 32h1v2h-1v-2z" fill="rgb(98,74,131)"/>
<path d="M60 32h1v1h-1v-1z" fill="rgb(98,74,131)"/>
<path d="M61 32h1v1h-1v-1z" fill="rgb(164,139,205)"/>
<path d="M62 32h1v2h-1v-2z" fill="rgb(156,57,123)"/>
<path d="M63 32h1v1h-1v-1z" fill="rgb(0,0,0)"/>
<path d="M64 32h1v1h-1v-1z" fill="rgb(164,139,205)"/>
<path d="M65 32h1v1h-1v-1z" fill="rgb(139,115,180)"/>
<path d="M20 33h1v1h-1v-1z" fill="rgb(98,74,131)"/>
<path d="M21 33h1v1h-1v-1z" fill="rgb(197,0,0)"/>
<path d="M23 33h1v1h-1v-1z" fill="rgb(156,57,123)"/>
<path d="M29 33h2v1h-2v-1z" fill="rgb(139,115,180)"/>
<path d="M34 33h2v1h-2v-1z" fill="rgb(0,0,0)"/>
<path d="M44 33h4v2h1v1h3v-1h1v2h-3v1h-1v1h1v1h1v-1h2v1h1v-1h-1v-1h1v-1h1v1h1v3h-6v1h-3
	v-1h-2v-1h-2v-2h5v-2h-1v-1h-1v-1h-2v-1z" fill="rgb(189,156,230)"/>
<path d="M48 33h1v1h-1v-1z" fill="rgb(82,57,0)"/>
<path d="M49 33h1v2h-1v-2z" fill="rgb(238,230,139)"/>
<path d="M50 33h1v2h-1v-2z" fill="rgb(131,115,41)"/>
<path d="M52 33h1v2h-1v-2z" fill="rgb(82,57,0)"/>
<path d="M53 33h1v2h-1v-2z" fill="rgb(189,156,230)"/>
<path d="M59 33h1v1h-1v-1z" fill="rgb(0,0,0)"/>
<path d="M60 33h1v1h-1v-1z" fill="rgb(189,156,230)"/>
<path d="M61 33h1v1h-1v-1z" fill="rgb(197,0,0)"/>
<path d="M63 33h1v1h-1v-1z" fill="rgb(164,139,205)"/>
<path d="M64 33h2v3h-1v-2h-1v-1z" fill="rgb(98,74,131)"/>
<path d="M66 33h2v1h-2v-1z" fill="rgb(164,139,205)"/>
<path d="M72 33h1v1h-1v-1z" fill="rgb(0,0,0)"/>
<path d="M20 34h1v1h-1v-1z" fill="rgb(156,57,123)"/>
<path d="M23 34h1v1h-1v-1z" fill="rgb(197,0,0)"/>
<path d="M28 34h1v2h-1v-2z" fill="rgb(98,74,131)"/>
<path d="M29 34h2v1h-2v-1z" fill="rgb(0,0,0)"/>
<path d="M31 34h1v1h-1v-1z" fill="transparent"/>
<path d="M32 34h2v1h4v1h-5v-1h-1v-1z" fill="rgb(0,0,0)"/>
<path d="M40 34h1v3h-1v-1h-1v-1h1v-1z" fill="rgb(0,0,0)"/>
<path d="M43 34h3v1h1v1h-2v-1h-2v-1z" fill="rgb(0,0,0)"/>
<path d="M48 34h1v1h-1v-1z" fill="rgb(139,115,180)"/>
<path d="M54 34h2v1h-2v-1z" fill="rgb(0,0,0)"/>
<path d="M59 34h1v1h-1v-1z" fill="rgb(98,74,131)"/>
<path d="M60 34h1v2h-1v-2z" fill="rgb(197,0,0)"/>
<path d="M61 34h1v1h-1v-1z" fill="rgb(156,57,123)"/>
<path d="M62 34h1v1h-1v-1z" fill="rgb(189,156,230)"/>
<path d="M63 34h1v1h-1v-1z" fill="rgb(197,0,0)"/>
<path d="M64 34h1v1h-1v-1z" fill="rgb(156,57,123)"/>
<path d="M71 34h1v1h-1v-1z" fill="rgb(98,74,131)"/>
<path d="M19 35h1v3h-1v-3z" fill="rgb(98,74,131)"/>
<path d="M20 35h1v1h-1v-1z" fill="rgb(197,0,0)"/>
<path d="M22 35h1v1h-1v-1z" fill="rgb(156,57,123)"/>
<path d="M29 35h2v1h-2v-1z" fill="transparent"/>
<path d="M31 35h2v1h-2v-1z" fill="rgb(98,74,131)"/>
<path d="M43 35h1v1h-1v-1z" fill="rgb(205,222,238)"/>
<path d="M44 35h1v1h-1v-1z" fill="rgb(197,0,0)"/>
<path d="M49 35h1v1h-1v-1z" fill="rgb(82,57,0)"/>
<path d="M50 35h1v1h-1v-1z" fill="rgb(139,115,180)"/>
<path d="M51 35h1v1h-1v-1z" fill="rgb(82,57,0)"/>
<path d="M53 35h1v1h-1v-1z" fill="rgb(98,74,131)"/>
<path d="M54 35h1v2h-1v-2z" fill="rgb(156,57,123)"/>
<path d="M55 35h1v1h2v1h-1v1h-1v-1h-1v-2z" fill="rgb(139,115,180)"/>
<path d="M56 35h3v2h-1v-1h-2v-1z" fill="rgb(0,0,0)"/>
<path d="M59 35h1v1h1v-1h1v2h-1v2h1v1h-2v-3h-1v-2z" fill="rgb(189,156,230)"/>
<path d="M62 35h1v2h-1v-2z" fill="rgb(197,0,0)"/>
<path d="M63 35h1v1h-1v-1z" fill="rgb(156,57,123)"/>
<path d="M64 35h1v2h-1v-2z" fill="rgb(164,139,205)"/>
<path d="M70 35h1v2h-1v-2z" fill="rgb(0,0,0)"/>
<path d="M22 36h1v1h-1v-1z" fill="rgb(197,0,0)"/>
<path d="M28 36h1v3h-1v-3z" fill="rgb(164,139,205)"/>
<path d="M29 36h1v3h-1v-3z" fill="rgb(0,0,0)"/>
<path d="M30 36h1v1h-1v-1z" fill="rgb(98,74,131)"/>
<path d="M31 36h4v1h1v1h2v1h1v1h1v2h-1v1h-1v2h-2v-4h-1v2h-2v-2h-1v-2h-1v-1h-1v-1h1v-1z" fill="rgb(189,156,230)"/>
<path d="M35 36h3v1h1v2h-1v-1h-2v-1h-1v-1z" fill="rgb(139,115,180)"/>
<path d="M38 36h1v1h-1v-1z" fill="rgb(0,0,0)"/>
<path d="M39 36h1v1h-1v-1z" fill="rgb(139,115,180)"/>
<path d="M43 36h1v1h-1v-1z" fill="rgb(255,255,255)"/>
<path d="M44 36h1v2h-1v-2z" fill="rgb(0,0,0)"/>
<path d="M45 36h1v1h-1v-1z" fill="rgb(197,0,0)"/>
<path d="M46 36h1v1h-1v-1z" fill="rgb(205,222,238)"/>
<path d="M47 36h1v1h-1v-1z" fill="rgb(0,0,0)"/>
<path d="M53 36h1v1h-1v-1z" fill="rgb(0,0,0)"/>
<path d="M63 36h1v1h-1v-1z" fill="rgb(189,156,230)"/>
<path d="M21 37h1v2h-1v-2z" fill="rgb(156,57,123)"/>
<path d="M39 37h1v2h-1v-2z" fill="rgb(0,0,0)"/>
<path d="M45 37h1v1h-1v-1z" fill="rgb(156,57,123)"/>
<path d="M46 37h1v1h-1v-1z" fill="rgb(255,255,255)"/>
<path d="M47 37h1v1h-1v-1z" fill="rgb(139,115,180)"/>
<path d="M50 37h4v1h-4v-1z" fill="rgb(139,115,180)"/>
<path d="M55 37h1v1h-1v-1z" fill="rgb(98,74,131)"/>
<path d="M57 37h1v1h-1v-1z" fill="rgb(98,74,131)"/>
<path d="M61 37h1v2h-1v-2z" fill="rgb(197,0,0)"/>
<path d="M62 37h1v2h-1v-2z" fill="rgb(189,156,230)"/>
<path d="M63 37h1v1h-1v-1z" fill="rgb(164,139,205)"/>
<path d="M69 37h1v1h-1v-1z" fill="rgb(98,74,131)"/>
<path d="M18 38h1v2h-1v-2z" fill="rgb(98,74,131)"/>
<path d="M30 38h1v2h-1v-2z" fill="rgb(139,115,180)"/>
<path d="M42 38h1v1h-1v-1z" fill="rgb(98,74,131)"/>
<path d="M49 38h4v1h-4v-1z" fill="rgb(205,189,230)"/>
<path d="M56 38h1v3h-1v-3z" fill="rgb(98,74,131)"/>
<path d="M57 38h1v2h1v1h1v1h-1v3h-1v4h-1v-3h-1v-1h-1v-1h-1v-1h1v-1h1v-1h1v-3z" fill="rgb(164,139,205)"/>
<path d="M58 38h1v2h-1v-2z" fill="rgb(98,74,131)"/>
<path d="M69 38h1v1h-1v-1z" fill="rgb(0,0,0)"/>
<path d="M21 39h1v2h-1v-2z" fill="rgb(197,0,0)"/>
<path d="M28 39h1v1h-1v-1z" fill="rgb(0,0,0)"/>
<path d="M29 39h1v1h-1v-1z" fill="rgb(189,156,230)"/>
<path d="M31 39h1v1h-1v-1z" fill="rgb(164,139,205)"/>
<path d="M42 39h1v1h-1v-1z" fill="rgb(0,0,0)"/>
<path d="M50 39h1v1h-1v-1z" fill="rgb(139,115,180)"/>
<path d="M53 39h1v1h-1v-1z" fill="rgb(139,115,180)"/>
<path d="M62 39h1v1h-1v-1z" fill="rgb(164,139,205)"/>
<path d="M68 39h1v2h-1v-2z" fill="rgb(0,0,0)"/>
<path d="M18 40h1v2h-1v-2z" fill="rgb(0,0,0)"/>
<path d="M19 40h1v1h-1v-1z" fill="rgb(164,139,205)"/>
<path d="M23 40h1v1h-1v-1z" fill="rgb(139,115,180)"/>
<path d="M28 40h1v1h-1v-1z" fill="rgb(98,74,131)"/>
<path d="M29 40h1v1h-1v-1z" fill="rgb(197,0,0)"/>
<path d="M30 40h1v2h-3v-1h2v-1z" fill="rgb(189,156,230)"/>
<path d="M31 40h1v2h-1v-2z" fill="rgb(139,115,180)"/>
<path d="M40 40h1v2h1v1h1v1h-2v-1h-2v-1h1v-2z" fill="rgb(164,139,205)"/>
<path d="M43 40h1v1h-1v-1z" fill="rgb(0,0,0)"/>
<path d="M44 40h1v1h-1v-1z" fill="rgb(98,74,131)"/>
<path d="M19 41h1v1h-1v-1z" fill="rgb(139,115,180)"/>
<path d="M23 41h1v2h-1v-2z" fill="rgb(98,74,131)"/>
<path d="M27 41h1v1h-1v-1z" fill="rgb(0,0,0)"/>
<path d="M32 41h1v2h1v1h-2v-1h-4v-1h4v-1z" fill="rgb(164,139,205)"/>
<path d="M35 41h1v1h-1v-1z" fill="rgb(164,139,205)"/>
<path d="M41 41h1v1h-1v-1z" fill="rgb(98,74,131)"/>
<path d="M45 41h1v1h-1v-1z" fill="rgb(0,0,0)"/>
<path d="M46 41h1v1h-1v-1z" fill="rgb(98,74,131)"/>
<path d="M50 41h2v1h-2v-1z" fill="rgb(98,74,131)"/>
<path d="M52 41h2v1h-2v-1z" fill="rgb(0,0,0)"/>
<path d="M54 41h1v1h-1v-1z" fill="rgb(164,139,205)"/>
<path d="M55 41h1v1h-1v-1z" fill="rgb(0,0,0)"/>
<path d="M61 41h2v1h-2v-1z" fill="rgb(98,74,131)"/>
<path d="M67 41h1v1h-1v-1z" fill="rgb(0,0,0)"/>
<path d="M19 42h1v1h-1v-1z" fill="rgb(98,74,131)"/>
<path d="M26 42h1v1h-1v-1z" fill="rgb(164,139,205)"/>
<path d="M27 42h1v1h-1v-1z" fill="rgb(98,74,131)"/>
<path d="M35 42h1v4h1v-1h1v2h-2v1h-5v-1h-4v-1h-3v-2h3v-1h5v1h2v-1h1v-1z" fill="rgb(139,115,180)"/>
<path d="M42 42h1v1h-1v-1z" fill="rgb(98,74,131)"/>
<path d="M47 42h1v1h-1v-1z" fill="rgb(0,0,0)"/>
<path d="M48 42h2v1h-2v-1z" fill="rgb(98,74,131)"/>
<path d="M54 42h1v1h-1v-1z" fill="rgb(0,0,0)"/>
<path d="M59 42h1v1h-1v-1z" fill="rgb(139,115,180)"/>
<path d="M60 42h1v1h-1v-1z" fill="rgb(98,74,131)"/>
<path d="M65 42h2v1h-2v-1z" fill="rgb(0,0,0)"/>
<path d="M19 43h1v1h-1v-1z" fill="rgb(0,0,0)"/>
<path d="M23 43h1v2h-2v-1h1v-1z" fill="rgb(164,139,205)"/>
<path d="M24 43h1v1h-1v-1z" fill="rgb(98,74,131)"/>
<path d="M25 43h1v1h-1v-1z" fill="rgb(164,139,205)"/>
<path d="M26 43h1v1h-1v-1z" fill="rgb(98,74,131)"/>
<path d="M38 43h1v1h-1v-1z" fill="rgb(164,139,205)"/>
<path d="M39 43h2v1h-2v-1z" fill="rgb(139,115,180)"/>
<path d="M43 43h2v1h-2v-1z" fill="rgb(0,0,0)"/>
<path d="M45 43h1v1h-1v-1z" fill="rgb(98,74,131)"/>
<path d="M52 43h2v1h-2v-1z" fill="rgb(98,74,131)"/>
<path d="M59 43h1v2h-1v-2z" fill="rgb(98,74,131)"/>
<path d="M64 43h1v1h-1v-1z" fill="rgb(0,0,0)"/>
<path d="M20 44h1v1h-1v-1z" fill="rgb(0,0,0)"/>
<path d="M21 44h1v1h-1v-1z" fill="rgb(98,74,131)"/>
<path d="M38 44h1v1h-1v-1z" fill="rgb(139,115,180)"/>
<path d="M39 44h2v1h1v1h4v1h1v2h1v-3h3v-1h3v-1h1v1h1v1h1v3h-1v1h-1v1h-2v1h-3v-1h-2v-1h-1
	v1h-2v1h-5v-1h-2v-1h-1v-2h1v-3h1v-1z" fill="rgb(189,156,230)"/>
<path d="M41 44h5v1h3v1h-4v-1h-4v-1z" fill="rgb(139,115,180)"/>
<path d="M46 44h1v1h-1v-1z" fill="rgb(98,74,131)"/>
<path d="M47 44h5v1h-5v-1z" fill="rgb(0,0,0)"/>
<path d="M52 44h2v1h-2v-1z" fill="rgb(164,139,205)"/>
<path d="M63 44h1v2h-1v-2z" fill="rgb(0,0,0)"/>
<path d="M22 45h2v1h-2v-1z" fill="rgb(0,0,0)"/>
<path d="M36 45h1v1h-1v-1z" fill="rgb(164,139,205)"/>
<path d="M42 45h3v1h-3v-1z" fill="rgb(164,139,205)"/>
<path d="M49 45h2v1h-2v-1z" fill="rgb(164,139,205)"/>
<path d="M58 45h1v4h-1v-4z" fill="rgb(98,74,131)"/>
<path d="M24 46h2v1h-2v-1z" fill="rgb(0,0,0)"/>
<path d="M26 46h1v1h-1v-1z" fill="rgb(98,74,131)"/>
<path d="M46 46h2v3h-1v-2h-1v-1z" fill="rgb(164,139,205)"/>
<path d="M62 46h1v1h-1v-1z" fill="rgb(0,0,0)"/>
<path d="M27 47h3v1h-3v-1z" fill="rgb(0,0,0)"/>
<path d="M30 47h1v1h-1v-1z" fill="rgb(98,74,131)"/>
<path d="M36 47h1v2h-1v-2z" fill="rgb(98,74,131)"/>
<path d="M37 47h1v1h-1v-1z" fill="rgb(164,139,205)"/>
<path d="M61 47h1v2h-1v-2z" fill="rgb(0,0,0)"/>
<path d="M31 48h5v1h-5v-1z" fill="rgb(0,0,0)"/>
<path d="M36 49h1v2h-1v-2z" fill="rgb(0,0,0)"/>
<path d="M56 49h1v1h-1v-1z" fill="rgb(164,139,205)"/>
<path d="M57 49h1v2h-1v-2z" fill="rgb(98,74,131)"/>
<path d="M60 49h1v2h-1v-2z" fill="rgb(0,0,0)"/>
<path d="M37 50h1v1h-1v-1z" fill="rgb(164,139,205)"/>
<path d="M47 50h1v1h-1v-1z" fill="rgb(164,139,205)"/>
<path d="M55 50h1v1h-1v-1z" fill="rgb(164,139,205)"/>
<path d="M37 51h1v2h-1v-2z" fill="rgb(0,0,0)"/>
<path d="M38 51h2v1h-2v-1z" fill="rgb(164,139,205)"/>
<path d="M45 51h2v1h-1v1h-6v-1h5v-1z" fill="rgb(164,139,205)"/>
<path d="M47 51h1v3h-1v-3z" fill="rgb(98,74,131)"/>
<path d="M48 51h2v1h3v-1h2v1h-1v1h-5v-1h-1v-1z" fill="rgb(164,139,205)"/>
<path d="M59 51h1v1h-1v-1z" fill="rgb(0,0,0)"/>
<path d="M56 52h1v1h1v1h-2v-2z" fill="rgb(98,74,131)"/>
<path d="M58 52h1v4h-1v-4z" fill="rgb(0,0,0)"/>
<path d="M38 53h1v2h-1v-2z" fill="rgb(0,0,0)"/>
<path d="M39 54h2v1h-2v-1z" fill="rgb(98,74,131)"/>
<path d="M55 54h1v1h-1v-1z" fill="rgb(98,74,131)"/>
<path d="M39 55h1v1h-1v-1z" fill="rgb(0,0,0)"/>
<path d="M40 55h1v1h-1v-1z" fill="rgb(139,115,180)"/>
<path d="M41 55h3v1h-3v-1z" fill="rgb(98,74,131)"/>
<path d="M45 55h5v1h-5v-1z" fill="rgb(98,74,131)"/>
<path d="M51 55h4v1h-4v-1z" fill="rgb(98,74,131)"/>
<path d="M40 56h1v1h3v1h-3v2h-1v-4z" fill="rgb(0,0,0)"/>
<path d="M57 56h1v7h-1v-5h-1v-1h1v-1z" fill="rgb(0,0,0)"/>
<path d="M44 57h1v1h-1v-1z" fill="rgb(82,57,0)"/>
<path d="M45 57h1v1h-1v-1z" fill="rgb(131,115,41)"/>
<path d="M46 57h1v1h-1v-1z" fill="rgb(205,189,98)"/>
<path d="M47 57h1v2h-1v-2z" fill="rgb(197,0,0)"/>
<path d="M48 57h1v1h-1v-1z" fill="rgb(205,189,98)"/>
<path d="M49 57h1v1h-1v-1z" fill="rgb(131,115,41)"/>
<path d="M50 57h1v1h-1v-1z" fill="rgb(82,57,0)"/>
<path d="M51 57h3v1h-3v-1z" fill="rgb(0,0,0)"/>
<path d="M54 57h2v1h-2v-1z" fill="rgb(98,74,131)"/>
<path d="M41 58h1v2h-1v-2z" fill="rgb(74,74,98)"/>
<path d="M42 58h1v1h-1v-1z" fill="rgb(82,57,0)"/>
<path d="M43 58h1v1h-1v-1z" fill="rgb(238,230,139)"/>
<path d="M44 58h1v1h-1v-1z" fill="rgb(131,115,41)"/>
<path d="M45 58h1v1h-1v-1z" fill="rgb(205,189,98)"/>
<path d="M46 58h1v1h-1v-1z" fill="rgb(238,230,139)"/>
<path d="M48 58h1v1h-1v-1z" fill="rgb(238,230,139)"/>
<path d="M49 58h1v1h-1v-1z" fill="rgb(205,189,98)"/>
<path d="M50 58h1v1h-1v-1z" fill="rgb(131,115,41)"/>
<path d="M51 58h1v1h-1v-1z" fill="rgb(205,189,98)"/>
<path d="M52 58h1v1h-1v-1z" fill="rgb(82,57,0)"/>
<path d="M53 58h4v1h-1v1h1v3h-1v1h-1v1h-2v1h-1v1h-3v-1h-3v-1h-1v-1h4v-1h4v-5z" fill="rgb(74,74,98)"/>
<path d="M36 59h4v1h-4v-1z" fill="rgb(98,74,131)"/>
<path d="M42 59h1v3h-1v-3z" fill="rgb(0,0,0)"/>
<path d="M43 59h1v2h-1v-2z" fill="rgb(131,115,41)"/>
<path d="M44 59h1v2h-1v-2z" fill="rgb(205,189,98)"/>
<path d="M45 59h1v2h-1v-2z" fill="rgb(238,230,139)"/>
<path d="M46 59h1v2h-1v-2z" fill="rgb(131,115,41)"/>
<path d="M47 59h1v2h-1v-2z" fill="rgb(238,230,139)"/>
<path d="M48 59h1v2h-1v-2z" fill="rgb(131,115,41)"/>
<path d="M49 59h1v2h-1v-2z" fill="rgb(238,230,139)"/>
<path d="M50 59h1v2h-1v-2z" fill="rgb(205,189,98)"/>
<path d="M51 59h1v2h-1v-2z" fill="rgb(131,115,41)"/>
<path d="M52 59h1v4h-2v-1h1v-3z" fill="rgb(0,0,0)"/>
<path d="M54 59h1v2h-1v-2z" fill="rgb(205,189,98)"/>
<path d="M56 59h1v1h-1v-1z" fill="rgb(131,115,41)"/>
<path d="M34 60h1v1h-1v-1z" fill="rgb(98,74,131)"/>
<path d="M35 60h1v1h-1v-1z" fill="rgb(139,115,180)"/>
<path d="M36 60h3v1h2v2h1v1h-1v1h-2v2h-1v2h-4v-2h-1v-2h1v1h2v-1h1v-2h-2v1h-1v-1h-1v-1h1
	v-1h1v1h1v-2z" fill="rgb(189,156,230)"/>
<path d="M39 60h2v1h-2v-1z" fill="rgb(139,115,180)"/>
<path d="M41 60h1v1h-1v-1z" fill="rgb(98,74,131)"/>
<path d="M33 61h1v1h-1v-1z" fill="rgb(98,74,131)"/>
<path d="M35 61h1v1h-1v-1z" fill="rgb(164,139,205)"/>
<path d="M41 61h1v1h1v4h-1v-3h-1v-2z" fill="rgb(139,115,180)"/>
<path d="M43 61h1v1h-1v-1z" fill="rgb(205,189,98)"/>
<path d="M44 61h1v1h-1v-1z" fill="rgb(131,115,41)"/>
<path d="M45 61h1v1h-1v-1z" fill="rgb(205,189,98)"/>
<path d="M46 61h1v1h-1v-1z" fill="rgb(238,230,139)"/>
<path d="M47 61h1v1h-1v-1z" fill="rgb(131,115,41)"/>
<path d="M48 61h1v1h-1v-1z" fill="rgb(238,230,139)"/>
<path d="M49 61h1v1h-1v-1z" fill="rgb(205,189,98)"/>
<path d="M50 61h1v1h-1v-1z" fill="rgb(131,115,41)"/>
<path d="M51 61h1v1h-1v-1z" fill="rgb(205,189,98)"/>
<path d="M32 62h1v1h-1v-1z" fill="rgb(98,74,131)"/>
<path d="M43 62h1v1h-1v-1z" fill="rgb(0,0,0)"/>
<path d="M44 62h1v1h-1v-1z" fill="rgb(82,57,0)"/>
<path d="M45 62h1v1h-1v-1z" fill="rgb(131,115,41)"/>
<path d="M46 62h3v1h-3v-1z" fill="rgb(205,189,98)"/>
<path d="M49 62h1v1h-1v-1z" fill="rgb(131,115,41)"/>
<path d="M50 62h1v1h-1v-1z" fill="rgb(82,57,0)"/>
<path d="M31 63h1v2h-1v-2z" fill="rgb(139,115,180)"/>
<path d="M32 63h1v2h-1v-2z" fill="rgb(189,156,230)"/>
<path d="M33 63h1v2h-1v-2z" fill="rgb(139,115,180)"/>
<path d="M35 63h2v2h-1v1h-2v-2h1v-1z" fill="rgb(205,189,230)"/>
<path d="M43 63h1v2h1v1h-1v1h-1v1h-1v-2h1v-3z" fill="rgb(98,74,131)"/>
<path d="M44 63h5v1h-4v1h-1v-2z" fill="rgb(0,0,0)"/>
<path d="M56 63h1v2h-2v-1h1v-1z" fill="rgb(0,0,0)"/>
<path d="M57 63h1v2h-1v-2z" fill="rgb(98,74,131)"/>
<path d="M58 63h1v2h-1v-2z" fill="rgb(0,0,0)"/>
<path d="M41 64h1v2h-1v-2z" fill="rgb(98,74,131)"/>
<path d="M30 65h1v2h-1v-2z" fill="rgb(98,74,131)"/>
<path d="M31 65h1v2h-1v-2z" fill="rgb(164,139,205)"/>
<path d="M32 65h1v2h-1v-2z" fill="rgb(139,115,180)"/>
<path d="M39 65h1v1h-1v-1z" fill="rgb(164,139,205)"/>
<path d="M40 65h1v1h-1v-1z" fill="rgb(139,115,180)"/>
<path d="M45 65h1v1h3v1h3v1h-1v1h-1v2h1v2h-1v2h-1v-5h-3v1h-1v-2h1v-2h-1v-2z" fill="rgb(0,0,0)"/>
<path d="M53 65h2v1h-2v-1z" fill="rgb(0,0,0)"/>
<path d="M55 65h1v1h-1v-1z" fill="rgb(98,74,131)"/>
<path d="M56 65h3v1h1v1h1v1h1v2h1v2h-1v-1h-2v1h-2v1h-1v2h-1v-1h-1v-3h-1v-2h-1v-2h1v-1h2
	v-1z" fill="rgb(139,115,180)"/>
<path d="M59 65h1v1h-1v-1z" fill="rgb(0,0,0)"/>
<path d="M39 66h1v1h-1v-1z" fill="rgb(139,115,180)"/>
<path d="M40 66h1v1h1v2h-1v1h-2v-3h1v-1z" fill="rgb(189,156,230)"/>
<path d="M41 66h1v1h-1v-1z" fill="rgb(139,115,180)"/>
<path d="M44 66h1v2h1v1h-1v1h-1v1h-1v-4h1v-1z" fill="rgb(139,115,180)"/>
<path d="M52 66h1v1h-1v-1z" fill="rgb(0,0,0)"/>
<path d="M53 66h1v1h-1v-1z" fill="rgb(98,74,131)"/>
<path d="M60 66h1v1h-1v-1z" fill="rgb(0,0,0)"/>
<path d="M31 67h1v1h-1v-1z" fill="rgb(98,74,131)"/>
<path d="M32 67h1v1h-1v-1z" fill="rgb(164,139,205)"/>
<path d="M33 67h1v2h-1v-2z" fill="rgb(98,74,131)"/>
<path d="M38 67h1v4h2v1h-1v2h1v1h-2v-1h-3v-2h-1v-2h2v-1h1v-2z" fill="rgb(139,115,180)"/>
<path d="M45 67h1v1h-1v-1z" fill="rgb(98,74,131)"/>
<path d="M52 67h1v2h-1v-2z" fill="rgb(98,74,131)"/>
<path d="M61 67h1v1h-1v-1z" fill="rgb(0,0,0)"/>
<path d="M31 68h1v1h-1v-1z" fill="rgb(0,0,0)"/>
<path d="M32 68h1v1h-1v-1z" fill="rgb(139,115,180)"/>
<path d="M42 68h1v3h1v1h-2v4h-1v-5h1v-3z" fill="rgb(0,0,0)"/>
<path d="M51 68h1v1h1v2h1v2h-1v2h-1v-2h-1v-5z" fill="rgb(139,115,180)"/>
<path d="M62 68h1v1h-1v-1z" fill="rgb(0,0,0)"/>
<path d="M32 69h1v1h-1v-1z" fill="rgb(98,74,131)"/>
<path d="M33 69h1v1h-1v-1z" fill="rgb(139,115,180)"/>
<path d="M34 69h1v2h-1v-2z" fill="rgb(98,74,131)"/>
<path d="M35 69h2v1h-2v-1z" fill="rgb(164,139,205)"/>
<path d="M41 69h1v1h-1v-1z" fill="rgb(164,139,205)"/>
<path d="M50 69h1v2h-1v-2z" fill="rgb(98,74,131)"/>
<path d="M53 69h1v2h-1v-2z" fill="rgb(98,74,131)"/>
<path d="M62 69h1v1h-1v-1z" fill="rgb(98,74,131)"/>
<path d="M33 70h1v1h-1v-1z" fill="rgb(0,0,0)"/>
<path d="M39 70h2v1h-2v-1z" fill="rgb(164,139,205)"/>
<path d="M41 70h1v1h-1v-1z" fill="rgb(139,115,180)"/>
<path d="M44 70h1v1h-1v-1z" fill="rgb(98,74,131)"/>
<path d="M63 70h1v1h-1v-1z" fill="rgb(0,0,0)"/>
<path d="M34 71h1v1h-1v-1z" fill="rgb(0,0,0)"/>
<path d="M54 71h1v2h-1v-2z" fill="rgb(98,74,131)"/>
<path d="M60 71h2v1h-2v-1z" fill="rgb(164,139,205)"/>
<path d="M63 71h1v1h-1v-1z" fill="rgb(98,74,131)"/>
<path d="M35 72h1v2h-1v-2z" fill="rgb(98,74,131)"/>
<path d="M40 72h1v2h-1v-2z" fill="rgb(98,74,131)"/>
<path d="M58 72h2v1h-2v-1z" fill="rgb(164,139,205)"/>
<path d="M60 72h2v1h2v6h-1v1h-3v-1h-1v-1h-1v1h1v1h-2v-2h-1v-1h-1v-3h1v1h1v-1h1v-1h2v-1z" fill="rgb(189,156,230)"/>
<path d="M62 72h2v1h-2v-1z" fill="rgb(164,139,205)"/>
<path d="M64 72h1v3h-1v-3z" fill="rgb(98,74,131)"/>
<path d="M50 73h1v2h1v1h2v1h1v1h-1v2h-1v-2h-1v-1h-1v1h1v1h-1v1h-1v-2h-1v-3h1v-2z" fill="rgb(98,74,131)"/>
<path d="M51 73h1v2h-1v-2z" fill="rgb(0,0,0)"/>
<path d="M53 73h2v3h-1v-1h-1v-2z" fill="rgb(164,139,205)"/>
<path d="M57 73h1v1h-1v-1z" fill="rgb(164,139,205)"/>
<path d="M35 74h1v1h-1v-1z" fill="rgb(0,0,0)"/>
<path d="M36 74h3v1h-3v-1z" fill="rgb(164,139,205)"/>
<path d="M34 75h1v1h-1v-1z" fill="rgb(98,74,131)"/>
<path d="M35 75h5v1h1v1h-2v1h-1v-1h-4v-1h1v-1z" fill="rgb(189,156,230)"/>
<path d="M40 75h1v1h-1v-1z" fill="rgb(164,139,205)"/>
<path d="M48 75h1v3h-1v-3z" fill="rgb(0,0,0)"/>
<path d="M52 75h1v1h-1v-1z" fill="rgb(0,0,0)"/>
<path d="M53 75h1v1h-1v-1z" fill="rgb(139,115,180)"/>
<path d="M64 75h1v4h-1v-4z" fill="rgb(164,139,205)"/>
<path d="M65 75h1v3h-1v-3z" fill="rgb(98,74,131)"/>
<path d="M32 76h2v1h-2v-1z" fill="rgb(98,74,131)"/>
<path d="M41 76h1v3h-1v-3z" fill="rgb(164,139,205)"/>
<path d="M42 76h1v4h-1v-4z" fill="rgb(0,0,0)"/>
<path d="M54 76h1v1h-1v-1z" fill="rgb(139,115,180)"/>
<path d="M31 77h1v1h-1v-1z" fill="rgb(98,74,131)"/>
<path d="M32 77h6v1h-6v-1z" fill="rgb(164,139,205)"/>
<path d="M39 77h2v1h-2v-1z" fill="rgb(139,115,180)"/>
<path d="M51 77h1v1h-1v-1z" fill="rgb(0,0,0)"/>
<path d="M55 77h1v2h-1v-2z" fill="rgb(139,115,180)"/>
<path d="M30 78h1v1h-1v-1z" fill="rgb(98,74,131)"/>
<path d="M31 78h1v1h-1v-1z" fill="rgb(139,115,180)"/>
<path d="M32 78h1v1h-1v-1z" fill="rgb(98,74,131)"/>
<path d="M33 78h1v1h-1v-1z" fill="rgb(205,189,230)"/>
<path d="M34 78h1v1h-1v-1z" fill="rgb(98,74,131)"/>
<path d="M35 78h1v1h-1v-1z" fill="rgb(205,189,230)"/>
<path d="M36 78h1v1h-1v-1z" fill="rgb(98,74,131)"/>
<path d="M37 78h1v1h-1v-1z" fill="rgb(205,189,230)"/>
<path d="M38 78h1v1h-1v-1z" fill="rgb(98,74,131)"/>
<path d="M39 78h2v1h-2v-1z" fill="rgb(205,189,230)"/>
<path d="M49 78h1v2h-1v-2z" fill="rgb(0,0,0)"/>
<path d="M52 78h1v2h-1v-2z" fill="rgb(0,0,0)"/>
<path d="M54 78h1v1h-1v-1z" fill="rgb(0,0,0)"/>
<path d="M56 78h1v1h-1v-1z" fill="rgb(164,139,205)"/>
<path d="M58 78h1v1h-1v-1z" fill="rgb(164,139,205)"/>
<path d="M65 78h1v1h-1v-1z" fill="rgb(0,0,0)"/>
<path d="M30 79h1v1h-1v-1z" fill="rgb(0,0,0)"/>
<path d="M31 79h1v1h-1v-1z" fill="rgb(98,74,131)"/>
<path d="M32 79h1v1h-1v-1z" fill="rgb(139,115,180)"/>
<path d="M33 79h1v1h-1v-1z" fill="rgb(98,74,131)"/>
<path d="M34 79h1v1h-1v-1z" fill="rgb(139,115,180)"/>
<path d="M35 79h1v1h-1v-1z" fill="rgb(0,0,0)"/>
<path d="M36 79h2v1h-2v-1z" fill="rgb(139,115,180)"/>
<path d="M38 79h1v1h-1v-1z" fill="rgb(0,0,0)"/>
<path d="M39 79h3v1h-3v-1z" fill="rgb(139,115,180)"/>
<path d="M51 79h1v1h-1v-1z" fill="rgb(139,115,180)"/>
<path d="M54 79h1v1h-1v-1z" fill="rgb(139,115,180)"/>
<path d="M55 79h1v1h-1v-1z" fill="rgb(0,0,0)"/>
<path d="M56 79h1v1h-1v-1z" fill="rgb(139,115,180)"/>
<path d="M59 79h1v1h1v1h-2v-2z" fill="rgb(139,115,180)"/>
<path d="M63 79h1v1h-1v-1z" fill="rgb(164,139,205)"/>
<path d="M64 79h1v1h-1v-1z" fill="rgb(0,0,0)"/>
<path d="M31 80h4v1h-4v-1z" fill="rgb(0,0,0)"/>
<path d="M36 80h2v1h-2v-1z" fill="rgb(0,0,0)"/>
<path d="M39 80h3v1h-3v-1z" fill="rgb(0,0,0)"/>
<path d="M50 80h2v1h-2v-1z" fill="rgb(0,0,0)"/>
<path d="M53 80h2v1h-2v-1z" fill="rgb(0,0,0)"/>
<path d="M56 80h2v1h-2v-1z" fill="rgb(0,0,0)"/>
<path d="M58 80h1v1h-1v-1z" fill="rgb(98,74,131)"/>
<path d="M61 80h2v1h-2v-1z" fill="rgb(164,139,205)"/>
<path d="M63 80h1v1h-1v-1z" fill="rgb(0,0,0)"/>
<path d="M59 81h4v1h-4v-1z" fill="rgb(0,0,0)"/>
</svg>
