<?xml version="1.0" encoding="utf-8"?>
<!-- generated at drububu.com  -->
<!DOCTYPE svg PUBLIC "-//W3C//DTD SVG 1.1//EN" "http://www.w3.org/Graphics/SVG/1.1/DTD/svg11.dtd">
<svg version="1.1" preserveAspectRatio="xMinYMin meet" xmlns="http://www.w3.org/2000/svg" xmlns:xlink="http://www.w3.org/1999/xlink" x="0px" y="0px" width="96px" height="96px" viewBox="0 0 96 96">
<path d="M0 0h96v96h-96v-96z" fill="transparent"/>
<path d="M22 15h2v1h-2v-1z" fill="rgb(65,82,98)"/>
<path d="M61 15h1v1h-1v-1z" fill="rgb(0,0,0)"/>
<path d="M62 15h2v1h-2v-1z" fill="rgb(65,82,98)"/>
<path d="M21 16h1v1h-1v-1z" fill="rgb(0,0,0)"/>
<path d="M22 16h2v1h1v1h-2v-1h-1v-1z" fill="rgb(197,213,222)"/>
<path d="M24 16h2v1h-2v-1z" fill="rgb(65,82,98)"/>
<path d="M42 16h1v1h-1v-1z" fill="rgb(172,156,65)"/>
<path d="M43 16h2v1h-2v-1z" fill="rgb(131,115,41)"/>
<path d="M59 16h1v1h-1v-1z" fill="rgb(0,0,0)"/>
<path d="M60 16h1v1h-1v-1z" fill="rgb(65,82,98)"/>
<path d="M61 16h1v1h-1v-1z" fill="rgb(164,180,180)"/>
<path d="M62 16h2v1h-2v-1z" fill="rgb(197,213,222)"/>
<path d="M64 16h1v1h-1v-1z" fill="rgb(65,82,98)"/>
<path d="M65 16h1v1h-1v-1z" fill="rgb(0,0,0)"/>
<path d="M19 17h1v1h-1v-1z" fill="rgb(65,82,98)"/>
<path d="M20 17h1v1h-1v-1z" fill="rgb(0,0,0)"/>
<path d="M21 17h2v1h-2v-1z" fill="rgb(164,180,180)"/>
<path d="M25 17h1v1h1v2h-2v-1h-1v-1h1v-1z" fill="rgb(164,180,180)"/>
<path d="M26 17h1v1h-1v-1z" fill="rgb(65,82,98)"/>
<path d="M41 17h1v1h-1v-1z" fill="rgb(172,156,65)"/>
<path d="M42 17h3v1h-3v-1z" fill="rgb(246,238,156)"/>
<path d="M45 17h1v1h-1v-1z" fill="rgb(82,65,0)"/>
<path d="M58 17h1v1h-1v-1z" fill="rgb(65,82,98)"/>
<path d="M59 17h3v1h-2v1h-2v-1h1v-1z" fill="rgb(197,213,222)"/>
<path d="M62 17h3v1h-3v-1z" fill="rgb(164,180,180)"/>
<path d="M65 17h1v1h-1v-1z" fill="rgb(131,139,148)"/>
<path d="M66 17h1v1h-1v-1z" fill="rgb(0,0,0)"/>
<path d="M18 18h1v1h-1v-1z" fill="rgb(65,82,98)"/>
<path d="M19 18h2v1h-2v-1z" fill="rgb(164,180,180)"/>
<path d="M21 18h2v2h-1v-1h-1v-1z" fill="rgb(197,213,222)"/>
<path d="M23 18h1v1h-1v-1z" fill="rgb(131,139,148)"/>
<path d="M27 18h1v1h-1v-1z" fill="rgb(65,82,98)"/>
<path d="M37 18h1v1h-1v-1z" fill="rgb(172,156,65)"/>
<path d="M38 18h1v1h-1v-1z" fill="rgb(131,115,41)"/>
<path d="M40 18h1v1h-1v-1z" fill="rgb(172,156,65)"/>
<path d="M41 18h1v1h-1v-1z" fill="rgb(246,238,156)"/>
<path d="M42 18h1v1h-1v-1z" fill="rgb(205,197,98)"/>
<path d="M43 18h3v1h-1v1h-1v1h-1v2h-1v1h-1v2h-1v1h-1v-3h1v-2h1v-2h1v-1h1v-1z" fill="rgb(172,156,65)"/>
<path d="M46 18h1v1h-1v-1z" fill="rgb(82,65,0)"/>
<path d="M47 18h2v1h-2v-1z" fill="rgb(131,115,41)"/>
<path d="M57 18h1v1h-1v-1z" fill="rgb(65,82,98)"/>
<path d="M60 18h1v1h-1v-1z" fill="rgb(164,180,180)"/>
<path d="M61 18h1v1h-1v-1z" fill="rgb(131,139,148)"/>
<path d="M62 18h3v1h-1v1h-2v1h-2v-1h1v-1h1v-1z" fill="rgb(197,213,222)"/>
<path d="M65 18h2v1h1v1h1v2h1v1h-2v1h-1v-2h1v-1h-2v-1h-1v-2z" fill="rgb(164,180,180)"/>
<path d="M67 18h1v1h-1v-1z" fill="rgb(65,82,98)"/>
<path d="M16 19h2v1h-2v-1z" fill="rgb(65,82,98)"/>
<path d="M18 19h2v2h-1v-1h-1v-1z" fill="rgb(197,213,222)"/>
<path d="M20 19h1v1h-1v-1z" fill="rgb(131,139,148)"/>
<path d="M21 19h1v1h-1v-1z" fill="rgb(164,180,180)"/>
<path d="M23 19h1v2h-2v-1h1v-1z" fill="rgb(164,180,180)"/>
<path d="M24 19h1v1h-1v-1z" fill="rgb(65,82,98)"/>
<path d="M27 19h1v3h-1v-3z" fill="rgb(0,0,0)"/>
<path d="M36 19h1v1h-1v-1z" fill="rgb(172,156,65)"/>
<path d="M37 19h1v1h-1v-1z" fill="rgb(246,238,156)"/>
<path d="M38 19h1v1h-1v-1z" fill="rgb(205,197,98)"/>
<path d="M39 19h1v1h-1v-1z" fill="rgb(131,115,41)"/>
<path d="M40 19h1v2h-1v-2z" fill="rgb(246,238,156)"/>
<path d="M41 19h1v1h-1v-1z" fill="rgb(205,197,98)"/>
<path d="M45 19h1v1h-1v-1z" fill="rgb(131,115,41)"/>
<path d="M46 19h2v1h-2v-1z" fill="rgb(246,238,156)"/>
<path d="M48 19h1v1h-1v-1z" fill="rgb(205,197,98)"/>
<path d="M49 19h1v1h-1v-1z" fill="rgb(131,115,41)"/>
<path d="M57 19h1v2h-1v-2z" fill="rgb(0,0,0)"/>
<path d="M58 19h1v2h-1v-2z" fill="rgb(131,139,148)"/>
<path d="M59 19h1v1h-1v-1z" fill="rgb(164,180,180)"/>
<path d="M60 19h1v1h-1v-1z" fill="rgb(65,82,98)"/>
<path d="M64 19h1v1h-1v-1z" fill="rgb(131,139,148)"/>
<path d="M68 19h1v1h-1v-1z" fill="rgb(0,0,0)"/>
<path d="M15 20h1v1h-1v-1z" fill="rgb(65,82,98)"/>
<path d="M16 20h2v2h-2v-2z" fill="rgb(197,213,222)"/>
<path d="M18 20h1v1h-1v-1z" fill="rgb(164,180,180)"/>
<path d="M20 20h1v1h1v1h-1v1h-1v-1h-1v-1h1v-1z" fill="rgb(164,180,180)"/>
<path d="M21 20h1v1h-1v-1z" fill="rgb(65,82,98)"/>
<path d="M24 20h1v3h-2v-2h1v-1z" fill="rgb(131,139,148)"/>
<path d="M25 20h1v2h1v1h-2v-3z" fill="rgb(0,0,0)"/>
<path d="M26 20h1v2h-1v-2z" fill="rgb(131,139,148)"/>
<path d="M35 20h1v1h-1v-1z" fill="rgb(172,156,65)"/>
<path d="M36 20h1v2h-1v-2z" fill="rgb(246,238,156)"/>
<path d="M37 20h1v1h-1v-1z" fill="rgb(205,197,98)"/>
<path d="M38 20h2v1h-2v-1z" fill="rgb(172,156,65)"/>
<path d="M44 20h1v1h-1v-1z" fill="rgb(131,115,41)"/>
<path d="M45 20h1v1h-1v-1z" fill="rgb(246,238,156)"/>
<path d="M46 20h1v1h-1v-1z" fill="rgb(205,197,98)"/>
<path d="M47 20h2v1h1v2h-1v-1h-2v1h-2v-1h1v-1h1v-1z" fill="rgb(172,156,65)"/>
<path d="M49 20h1v1h-1v-1z" fill="rgb(205,197,98)"/>
<path d="M50 20h1v1h-1v-1z" fill="rgb(131,115,41)"/>
<path d="M59 20h1v2h-1v-2z" fill="rgb(65,82,98)"/>
<path d="M62 20h1v1h-1v-1z" fill="rgb(164,180,180)"/>
<path d="M63 20h1v1h-1v-1z" fill="rgb(65,82,98)"/>
<path d="M64 20h2v1h-1v1h-2v-1h1v-1z" fill="rgb(197,213,222)"/>
<path d="M69 20h1v1h-1v-1z" fill="rgb(0,0,0)"/>
<path d="M14 21h1v1h-1v-1z" fill="rgb(65,82,98)"/>
<path d="M15 21h1v1h2v1h-2v2h-1v-4z" fill="rgb(164,180,180)"/>
<path d="M18 21h1v1h1v1h-2v-2z" fill="rgb(131,139,148)"/>
<path d="M22 21h1v3h-1v-3z" fill="rgb(65,82,98)"/>
<path d="M35 21h1v1h-1v-1z" fill="rgb(131,115,41)"/>
<path d="M37 21h1v4h-1v-1h-1v-1h1v-2z" fill="rgb(172,156,65)"/>
<path d="M38 21h1v2h-1v-2z" fill="rgb(131,115,41)"/>
<path d="M39 21h1v2h-1v-2z" fill="rgb(246,238,156)"/>
<path d="M40 21h1v1h-1v-1z" fill="rgb(205,197,98)"/>
<path d="M43 21h1v2h-1v-2z" fill="rgb(131,115,41)"/>
<path d="M44 21h1v1h-1v-1z" fill="rgb(246,238,156)"/>
<path d="M45 21h1v1h-1v-1z" fill="rgb(205,197,98)"/>
<path d="M50 21h1v3h-1v-3z" fill="rgb(82,65,0)"/>
<path d="M58 21h1v1h-1v-1z" fill="rgb(0,0,0)"/>
<path d="M60 21h1v1h1v1h-2v-2z" fill="rgb(131,139,148)"/>
<path d="M61 21h1v1h-1v-1z" fill="rgb(164,180,180)"/>
<path d="M62 21h1v3h-1v-3z" fill="rgb(65,82,98)"/>
<path d="M65 21h1v1h-1v-1z" fill="rgb(164,180,180)"/>
<path d="M66 21h1v1h-1v-1z" fill="rgb(131,139,148)"/>
<path d="M67 21h1v1h-1v-1z" fill="rgb(197,213,222)"/>
<path d="M69 21h1v1h-1v-1z" fill="rgb(131,139,148)"/>
<path d="M70 21h1v2h-1v-2z" fill="rgb(65,82,98)"/>
<path d="M14 22h1v4h-1v-4z" fill="rgb(0,0,0)"/>
<path d="M21 22h1v2h-1v1h-1v-2h1v-1z" fill="rgb(131,139,148)"/>
<path d="M35 22h1v2h-1v-2z" fill="rgb(82,65,0)"/>
<path d="M36 22h1v1h-1v-1z" fill="rgb(205,197,98)"/>
<path d="M44 22h1v1h-1v-1z" fill="rgb(205,197,98)"/>
<path d="M47 22h2v1h-2v-1z" fill="rgb(131,115,41)"/>
<path d="M58 22h1v3h-1v-3z" fill="rgb(65,82,98)"/>
<path d="M59 22h1v1h-1v-1z" fill="rgb(0,0,0)"/>
<path d="M63 22h1v2h-1v-2z" fill="rgb(131,139,148)"/>
<path d="M64 22h1v1h-1v-1z" fill="rgb(164,180,180)"/>
<path d="M65 22h1v1h-1v-1z" fill="rgb(65,82,98)"/>
<path d="M66 22h1v1h-1v-1z" fill="rgb(197,213,222)"/>
<path d="M16 23h1v1h-1v-1z" fill="rgb(131,139,148)"/>
<path d="M17 23h1v2h-1v-2z" fill="rgb(65,82,98)"/>
<path d="M18 23h1v1h-1v-1z" fill="rgb(164,180,180)"/>
<path d="M19 23h1v1h-1v-1z" fill="rgb(65,82,98)"/>
<path d="M23 23h2v1h-1v2h-1v-1h-1v-1h1v-1z" fill="rgb(0,0,0)"/>
<path d="M25 23h1v1h-1v-1z" fill="rgb(131,139,148)"/>
<path d="M26 23h1v2h-2v-1h1v-1z" fill="rgb(164,180,180)"/>
<path d="M27 23h1v1h-1v-1z" fill="rgb(65,82,98)"/>
<path d="M38 23h1v2h-1v-2z" fill="rgb(82,65,0)"/>
<path d="M39 23h1v1h-1v-1z" fill="rgb(205,197,98)"/>
<path d="M42 23h1v2h-1v-2z" fill="rgb(131,115,41)"/>
<path d="M43 23h1v1h-1v-1z" fill="rgb(246,238,156)"/>
<path d="M44 23h1v2h-1v-2z" fill="rgb(172,156,65)"/>
<path d="M45 23h1v1h-1v-1z" fill="rgb(131,115,41)"/>
<path d="M46 23h2v1h-2v-1z" fill="rgb(82,65,0)"/>
<path d="M48 23h2v1h-2v-1z" fill="rgb(0,0,0)"/>
<path d="M59 23h1v1h1v1h-2v-2z" fill="rgb(164,180,180)"/>
<path d="M60 23h2v1h-2v-1z" fill="rgb(0,0,0)"/>
<path d="M64 23h1v2h-1v-2z" fill="rgb(65,82,98)"/>
<path d="M65 23h2v2h-2v-2z" fill="rgb(131,139,148)"/>
<path d="M68 23h1v1h-1v-1z" fill="rgb(65,82,98)"/>
<path d="M69 23h2v2h-1v1h1v1h1v2h1v1h1v2h1v3h1v4h-1v1h-2v1h-5v-1h-2v-1h-1v-1h-1v-2h-1v-1
	h-1v-1h-1v-1h-2v-1h-3v1h-1v1h-1v1h-1v2h2v1h3v1h-1v1h-1v2h1v1h1v1h2v1h2v1h-1v1
	h-2v-1h-2v-1h-1v-1h-1v-2h-1v-2h-2v-2h-4v1h-3v1h-2v1h-1v4h-1v1h2v1h1v1h7v-1h2v-1
	h1v-2h1v2h1v2h-1v2h-3v1h-7v-1h-3v-1h-3v1h-1v1h-1v-1h-2v-2h3v-2h1v-1h1v-1h1v-2
	h-1v-2h-1v-1h-1v-1h9v-1h3v-1h1v-1h-1v-3h1v-2h1v-1h1v1h1v1h1v-1h1v1h4v-1h1v2h1
	v-1h2v1h1v4h1v2h3v-1h1v-3h-1v-2h-1v-1h-1v-1h-1v-1h2v-1h-3v-1h-2v-1h-1v-1h2v1h3
	v-1h1v-1h1v-1z" fill="rgb(131,139,148)"/>
<path d="M71 23h1v4h-1v-4z" fill="rgb(0,0,0)"/>
<path d="M16 24h1v2h-1v-2z" fill="rgb(0,0,0)"/>
<path d="M18 24h1v2h-2v-1h1v-1z" fill="rgb(131,139,148)"/>
<path d="M19 24h1v1h1v1h-2v-2z" fill="rgb(0,0,0)"/>
<path d="M21 24h1v1h-1v-1z" fill="rgb(65,82,98)"/>
<path d="M24 24h1v1h1v1h-2v-2z" fill="rgb(131,139,148)"/>
<path d="M27 24h1v1h-1v-1z" fill="rgb(0,0,0)"/>
<path d="M36 24h1v1h-1v-1z" fill="rgb(82,65,0)"/>
<path d="M41 24h1v1h-1v-1z" fill="rgb(82,65,0)"/>
<path d="M43 24h1v1h-1v-1z" fill="rgb(205,197,98)"/>
<path d="M45 24h1v1h-1v-1z" fill="rgb(82,65,0)"/>
<path d="M46 24h3v1h2v2h-1v-1h-2v1h-2v-1h-1v-1h1v-1z" fill="rgb(131,139,148)"/>
<path d="M49 24h1v1h-1v-1z" fill="rgb(65,82,98)"/>
<path d="M50 24h1v1h-1v-1z" fill="rgb(0,0,0)"/>
<path d="M61 24h1v1h-1v-1z" fill="rgb(131,139,148)"/>
<path d="M62 24h2v1h-2v-1z" fill="rgb(0,0,0)"/>
<path d="M67 24h1v1h-1v-1z" fill="rgb(0,0,0)"/>
<path d="M15 25h1v1h-1v-1z" fill="rgb(131,139,148)"/>
<path d="M21 25h2v1h1v1h-3v1h-2v1h-2v-1h-1v-2h1v1h2v-1h2v-1z" fill="rgb(131,139,148)"/>
<path d="M26 25h1v1h-1v-1z" fill="rgb(65,82,98)"/>
<path d="M36 25h1v1h-1v-1z" fill="rgb(131,115,41)"/>
<path d="M37 25h1v2h-1v-2z" fill="rgb(82,65,0)"/>
<path d="M38 25h1v1h-1v-1z" fill="rgb(0,0,0)"/>
<path d="M41 25h1v1h-1v-1z" fill="rgb(0,0,0)"/>
<path d="M42 25h1v1h1v1h-2v-2z" fill="rgb(82,65,0)"/>
<path d="M43 25h1v1h-1v-1z" fill="rgb(172,156,65)"/>
<path d="M44 25h1v1h-1v-1z" fill="rgb(82,65,0)"/>
<path d="M51 25h1v1h-1v-1z" fill="rgb(0,0,0)"/>
<path d="M59 25h1v1h-1v-1z" fill="rgb(65,82,98)"/>
<path d="M60 25h2v1h-2v-1z" fill="rgb(0,0,0)"/>
<path d="M64 25h3v1h-3v-1z" fill="rgb(0,0,0)"/>
<path d="M70 25h1v1h-1v-1z" fill="rgb(65,82,98)"/>
<path d="M15 26h1v1h-1v-1z" fill="rgb(65,82,98)"/>
<path d="M17 26h2v1h-2v-1z" fill="rgb(0,0,0)"/>
<path d="M24 26h1v1h-1v-1z" fill="rgb(65,82,98)"/>
<path d="M25 26h1v2h-1v-2z" fill="rgb(0,0,0)"/>
<path d="M33 26h3v1h-3v-1z" fill="rgb(65,82,98)"/>
<path d="M36 26h1v2h-1v-2z" fill="rgb(255,255,255)"/>
<path d="M38 26h1v1h-1v-1z" fill="rgb(65,82,98)"/>
<path d="M40 26h1v1h-1v-1z" fill="rgb(82,65,0)"/>
<path d="M41 26h1v1h-1v-1z" fill="rgb(131,139,148)"/>
<path d="M44 26h2v1h-2v-1z" fill="rgb(205,222,238)"/>
<path d="M48 26h2v1h-2v-1z" fill="rgb(131,115,41)"/>
<path d="M51 26h1v1h-1v-1z" fill="rgb(65,82,98)"/>
<path d="M52 26h3v1h-2v1h-1v-2z" fill="rgb(0,0,0)"/>
<path d="M55 26h3v1h-3v-1z" fill="rgb(65,82,98)"/>
<path d="M62 26h1v1h-1v-1z" fill="rgb(0,0,0)"/>
<path d="M15 27h1v1h-1v-1z" fill="rgb(0,0,0)"/>
<path d="M21 27h1v1h-1v-1z" fill="rgb(65,82,98)"/>
<path d="M22 27h2v1h-2v-1z" fill="rgb(0,0,0)"/>
<path d="M24 27h1v1h1v2h1v1h1v1h-1v1h-1v2h-1v1h1v-1h1v-2h1v-1h1v-1h1v1h2v-1h2v-1h1v1h1v1
	h-3v1h-2v1h-1v1h-1v2h-1v2h-1v1h-1v-1h-2v-1h-2v-1h1v-3h-1v-2h-1v-1h-2v-2h2v-1h1
	v1h1v-1h1v-1z" fill="rgb(131,139,148)"/>
<path d="M31 27h2v1h-2v-1z" fill="rgb(65,82,98)"/>
<path d="M33 27h1v1h-1v-1z" fill="rgb(131,139,148)"/>
<path d="M34 27h1v1h-1v-1z" fill="rgb(82,65,0)"/>
<path d="M35 27h1v2h-1v-2z" fill="rgb(246,238,156)"/>
<path d="M37 27h1v1h-1v-1z" fill="rgb(189,0,0)"/>
<path d="M38 27h1v1h2v-1h1v3h-4v-3z" fill="rgb(164,180,180)"/>
<path d="M39 27h1v1h-1v-1z" fill="rgb(131,115,41)"/>
<path d="M40 27h1v1h-1v-1z" fill="rgb(131,139,148)"/>
<path d="M42 27h1v2h-1v-2z" fill="rgb(0,0,0)"/>
<path d="M43 27h1v1h1v1h-2v-2z" fill="rgb(189,0,0)"/>
<path d="M44 27h1v1h-1v-1z" fill="rgb(255,74,57)"/>
<path d="M45 27h1v1h-1v-1z" fill="rgb(255,255,255)"/>
<path d="M46 27h2v1h-2v-1z" fill="rgb(131,115,41)"/>
<path d="M48 27h2v2h-2v-2z" fill="rgb(205,197,98)"/>
<path d="M50 27h1v1h-1v-1z" fill="rgb(0,0,0)"/>
<path d="M51 27h1v1h-1v-1z" fill="rgb(131,139,148)"/>
<path d="M53 27h3v1h-1v2h-1v-2h-1v-1z" fill="rgb(131,139,148)"/>
<path d="M56 27h2v1h2v1h1v1h-1v1h-4v-1h-1v-2h1v-1z" fill="rgb(164,180,180)"/>
<path d="M58 27h2v1h-2v-1z" fill="rgb(65,82,98)"/>
<path d="M63 27h2v1h-2v-1z" fill="rgb(0,0,0)"/>
<path d="M68 27h1v1h-1v-1z" fill="rgb(65,82,98)"/>
<path d="M72 27h1v2h-1v-2z" fill="rgb(0,0,0)"/>
<path d="M16 28h1v1h-1v-1z" fill="rgb(0,0,0)"/>
<path d="M19 28h1v1h-1v-1z" fill="rgb(65,82,98)"/>
<path d="M20 28h1v1h-1v-1z" fill="rgb(0,0,0)"/>
<path d="M22 28h1v1h-1v-1z" fill="rgb(65,82,98)"/>
<path d="M26 28h1v2h-1v-2z" fill="rgb(0,0,0)"/>
<path d="M30 28h1v1h-1v-1z" fill="rgb(65,82,98)"/>
<path d="M31 28h1v1h-1v-1z" fill="rgb(131,139,148)"/>
<path d="M32 28h2v3h-2v1h-2v-2h1v-1h1v-1z" fill="rgb(164,180,180)"/>
<path d="M34 28h1v1h-1v-1z" fill="rgb(0,0,0)"/>
<path d="M36 28h1v1h-1v-1z" fill="rgb(205,197,98)"/>
<path d="M37 28h1v1h-1v-1z" fill="rgb(0,0,0)"/>
<path d="M45 28h1v1h-1v-1z" fill="rgb(205,197,98)"/>
<path d="M46 28h2v1h-1v1h-4v1h-6v-1h5v-1h4v-1z" fill="rgb(246,238,156)"/>
<path d="M50 28h1v2h-1v1h-1v3h-1v1h-1v1h-2v-1h1v-1h1v-3h1v-1h1v-1h1v-1z" fill="rgb(172,156,65)"/>
<path d="M51 28h1v2h-1v-2z" fill="rgb(0,0,0)"/>
<path d="M52 28h1v1h-1v-1z" fill="rgb(65,82,98)"/>
<path d="M53 28h1v1h-1v-1z" fill="rgb(0,0,0)"/>
<path d="M60 28h1v1h-1v-1z" fill="rgb(0,0,0)"/>
<path d="M65 28h1v7h-1v-3h-1v-1h1v-3z" fill="rgb(0,0,0)"/>
<path d="M66 28h2v1h-2v-1z" fill="rgb(65,82,98)"/>
<path d="M17 29h2v2h-1v-1h-1v-1z" fill="rgb(0,0,0)"/>
<path d="M29 29h1v1h-1v-1z" fill="rgb(65,82,98)"/>
<path d="M30 29h1v1h-1v-1z" fill="rgb(131,139,148)"/>
<path d="M34 29h1v1h-1v-1z" fill="rgb(82,65,0)"/>
<path d="M35 29h1v1h-1v-1z" fill="rgb(205,197,98)"/>
<path d="M36 29h1v1h-1v-1z" fill="rgb(246,238,156)"/>
<path d="M37 29h1v1h-1v-1z" fill="rgb(205,197,98)"/>
<path d="M47 29h1v1h-1v-1z" fill="rgb(205,197,98)"/>
<path d="M48 29h1v1h-1v-1z" fill="rgb(82,65,0)"/>
<path d="M53 29h1v1h-1v-1z" fill="rgb(65,82,98)"/>
<path d="M61 29h1v1h-1v-1z" fill="rgb(0,0,0)"/>
<path d="M73 29h1v1h-1v-1z" fill="rgb(0,0,0)"/>
<path d="M27 30h1v1h-1v-1z" fill="rgb(0,0,0)"/>
<path d="M29 30h1v1h-1v-1z" fill="rgb(0,0,0)"/>
<path d="M35 30h2v1h-2v-1z" fill="rgb(0,0,0)"/>
<path d="M43 30h1v1h-1v-1z" fill="rgb(205,197,98)"/>
<path d="M44 30h1v1h-1v-1z" fill="rgb(131,115,41)"/>
<path d="M45 30h2v1h-2v-1z" fill="rgb(0,0,0)"/>
<path d="M47 30h1v1h-1v-1z" fill="rgb(82,65,0)"/>
<path d="M50 30h1v1h-1v-1z" fill="rgb(82,65,0)"/>
<path d="M54 30h1v1h-1v-1z" fill="rgb(65,82,98)"/>
<path d="M61 30h1v2h-1v-2z" fill="rgb(65,82,98)"/>
<path d="M62 30h2v1h-2v-1z" fill="rgb(0,0,0)"/>
<path d="M66 30h1v1h1v1h1v2h1v3h-1v1h-2v-2h-1v-6z" fill="rgb(164,180,180)"/>
<path d="M74 30h1v2h-1v-2z" fill="rgb(0,0,0)"/>
<path d="M19 31h1v1h-1v-1z" fill="rgb(65,82,98)"/>
<path d="M20 31h1v1h1v2h1v3h-1v-1h-1v-2h-1v-3z" fill="rgb(164,180,180)"/>
<path d="M28 31h1v1h-1v-1z" fill="rgb(0,0,0)"/>
<path d="M36 31h1v2h-1v-2z" fill="rgb(82,65,0)"/>
<path d="M37 31h1v1h-1v-1z" fill="rgb(0,0,0)"/>
<path d="M38 31h3v1h-3v-1z" fill="rgb(205,197,98)"/>
<path d="M41 31h1v1h-1v-1z" fill="rgb(131,115,41)"/>
<path d="M42 31h2v1h-2v-1z" fill="rgb(0,0,0)"/>
<path d="M44 31h2v2h-1v-1h-1v-1z" fill="rgb(189,0,0)"/>
<path d="M46 31h1v2h-1v-2z" fill="rgb(82,65,0)"/>
<path d="M49 31h1v1h-1v-1z" fill="rgb(82,65,0)"/>
<path d="M50 31h1v1h-1v-1z" fill="rgb(65,82,98)"/>
<path d="M19 32h1v2h-1v-2z" fill="rgb(0,0,0)"/>
<path d="M27 32h1v1h-1v-1z" fill="rgb(65,82,98)"/>
<path d="M33 32h1v1h-1v-1z" fill="rgb(65,82,98)"/>
<path d="M34 32h2v1h-2v-1z" fill="rgb(0,0,0)"/>
<path d="M37 32h1v2h-1v-2z" fill="rgb(172,156,65)"/>
<path d="M38 32h3v1h-3v-1z" fill="rgb(0,0,0)"/>
<path d="M41 32h4v1h-1v1h-4v-1h1v-1z" fill="rgb(255,74,57)"/>
<path d="M49 32h1v2h-1v-2z" fill="rgb(0,0,0)"/>
<path d="M56 32h1v1h-1v-1z" fill="rgb(65,82,98)"/>
<path d="M57 32h2v1h-2v-1z" fill="rgb(0,0,0)"/>
<path d="M75 32h1v3h-1v-3z" fill="rgb(0,0,0)"/>
<path d="M26 33h1v2h-1v-2z" fill="rgb(65,82,98)"/>
<path d="M31 33h2v1h-2v-1z" fill="rgb(65,82,98)"/>
<path d="M33 33h3v3h-2v1h1v1h3v1h1v1h1v5h-1v1h-1v1h-4v-1h-1v-1h-1v-4h1v-2h1v-1h-2v1h-1v1
	h-1v1h1v3h-1v1h-2v-2h-1v1h-1v2h1v1h1v1h1v1h-2v-1h-1v1h1v1h2v1h1v1h1v1h1v2h-1v1
	h-2v-1h-2v-1h-1v-1h-1v-1h-1v-1h-1v-1h-1v-4h1v-1h1v-2h1v-1h1v-1h1v-1h2v-3h3v-1
	h1v-1h1v-1h-1v-1z" fill="rgb(164,180,180)"/>
<path d="M36 33h1v1h-1v-1z" fill="rgb(0,0,0)"/>
<path d="M38 33h1v1h-1v-1z" fill="rgb(82,65,0)"/>
<path d="M39 33h1v1h-1v-1z" fill="rgb(189,0,0)"/>
<path d="M44 33h1v1h-1v-1z" fill="rgb(189,0,0)"/>
<path d="M45 33h1v1h-1v-1z" fill="rgb(82,65,0)"/>
<path d="M46 33h1v1h-1v-1z" fill="rgb(131,115,41)"/>
<path d="M55 33h4v1h-2v1h1v1h3v-1h1v1h1v2h-1v1h2v1h2v1h1v2h1v1h1v1h1v3h-1v1h-1v1h-1v1h-1
	v1h-2v1h-2v1h-1v1h-2v-1h-1v-2h1v-1h2v-1h2v-1h1v-1h-2v-1h1v-1h1v-1h1v-2h-1v-1
	h-1v-1h-1v1h1v2h-1v1h-2v-1h-2v-1h-1v-1h-1v-2h1v-1h1v-1h-3v-1h-2v-2h1v-1h1v-1z" fill="rgb(164,180,180)"/>
<path d="M59 33h1v1h-1v-1z" fill="rgb(65,82,98)"/>
<path d="M60 33h1v1h-1v-1z" fill="rgb(0,0,0)"/>
<path d="M20 34h1v1h-1v-1z" fill="rgb(65,82,98)"/>
<path d="M30 34h1v1h-1v-1z" fill="rgb(65,82,98)"/>
<path d="M31 34h3v1h-1v1h-1v1h-2v-2h1v-1z" fill="rgb(197,213,222)"/>
<path d="M36 34h1v2h-1v-2z" fill="rgb(131,139,148)"/>
<path d="M37 34h1v1h-1v-1z" fill="rgb(82,65,0)"/>
<path d="M38 34h1v1h6v1h-7v-2z" fill="rgb(205,197,98)"/>
<path d="M39 34h5v1h-5v-1z" fill="rgb(82,65,0)"/>
<path d="M44 34h1v1h-1v-1z" fill="rgb(131,115,41)"/>
<path d="M45 34h1v1h-1v-1z" fill="rgb(205,197,98)"/>
<path d="M48 34h1v1h-1v-1z" fill="rgb(0,0,0)"/>
<path d="M49 34h1v1h-1v-1z" fill="rgb(65,82,98)"/>
<path d="M57 34h3v1h1v1h-3v-1h-1v-1z" fill="rgb(197,213,222)"/>
<path d="M60 34h1v1h-1v-1z" fill="rgb(164,180,180)"/>
<path d="M61 34h1v1h-1v-1z" fill="rgb(0,0,0)"/>
<path d="M20 35h1v2h-1v-2z" fill="rgb(0,0,0)"/>
<path d="M25 35h1v1h-1v-1z" fill="rgb(65,82,98)"/>
<path d="M29 35h1v1h-1v-1z" fill="rgb(0,0,0)"/>
<path d="M37 35h1v1h-1v-1z" fill="rgb(0,0,0)"/>
<path d="M47 35h1v1h-1v-1z" fill="rgb(0,0,0)"/>
<path d="M48 35h1v1h1v1h-3v-1h1v-1z" fill="rgb(65,82,98)"/>
<path d="M49 35h1v1h-1v-1z" fill="rgb(131,139,148)"/>
<path d="M50 35h1v1h-1v-1z" fill="rgb(65,82,98)"/>
<path d="M62 35h1v1h-1v-1z" fill="rgb(0,0,0)"/>
<path d="M65 35h1v1h-1v-1z" fill="rgb(65,82,98)"/>
<path d="M76 35h1v4h-1v-4z" fill="rgb(0,0,0)"/>
<path d="M21 36h1v1h-1v-1z" fill="rgb(131,139,148)"/>
<path d="M29 36h1v1h-1v-1z" fill="rgb(65,82,98)"/>
<path d="M34 36h1v1h-1v-1z" fill="rgb(131,139,148)"/>
<path d="M35 36h2v1h-2v-1z" fill="rgb(65,82,98)"/>
<path d="M37 36h1v1h-1v-1z" fill="rgb(131,139,148)"/>
<path d="M38 36h1v1h-1v-1z" fill="rgb(0,0,0)"/>
<path d="M39 36h6v1h-6v-1z" fill="rgb(172,156,65)"/>
<path d="M45 36h2v1h-2v-1z" fill="rgb(0,0,0)"/>
<path d="M63 36h1v1h-1v-1z" fill="rgb(0,0,0)"/>
<path d="M66 36h1v2h-1v-2z" fill="rgb(65,82,98)"/>
<path d="M21 37h1v1h-1v-1z" fill="rgb(0,0,0)"/>
<path d="M28 37h1v1h-1v-1z" fill="rgb(0,0,0)"/>
<path d="M35 37h2v1h-2v-1z" fill="rgb(131,139,148)"/>
<path d="M37 37h2v1h-2v-1z" fill="rgb(65,82,98)"/>
<path d="M39 37h1v1h-1v-1z" fill="rgb(82,65,0)"/>
<path d="M40 37h4v1h-4v-1z" fill="rgb(0,0,0)"/>
<path d="M44 37h1v1h-1v-1z" fill="rgb(82,65,0)"/>
<path d="M45 37h2v1h-2v-1z" fill="rgb(65,82,98)"/>
<path d="M63 37h1v1h-1v-1z" fill="rgb(65,82,98)"/>
<path d="M22 38h1v1h-1v-1z" fill="rgb(0,0,0)"/>
<path d="M23 38h1v1h-1v-1z" fill="rgb(65,82,98)"/>
<path d="M28 38h1v1h-1v-1z" fill="rgb(65,82,98)"/>
<path d="M32 38h1v1h-1v-1z" fill="rgb(131,139,148)"/>
<path d="M33 38h1v1h-1v-1z" fill="rgb(65,82,98)"/>
<path d="M48 38h4v2h1v4h-1v1h-1v1h-2v1h-6v-1h-1v-5h1v-1h2v-1h3v-1z" fill="rgb(164,180,180)"/>
<path d="M62 38h2v1h-2v-1z" fill="rgb(131,139,148)"/>
<path d="M64 38h1v1h-1v-1z" fill="rgb(0,0,0)"/>
<path d="M24 39h2v1h-2v-1z" fill="rgb(0,0,0)"/>
<path d="M27 39h1v1h-1v-1z" fill="rgb(65,82,98)"/>
<path d="M28 39h1v1h-1v-1z" fill="rgb(131,139,148)"/>
<path d="M31 39h1v2h-2v-1h1v-1z" fill="rgb(131,139,148)"/>
<path d="M32 39h1v2h-1v-2z" fill="rgb(65,82,98)"/>
<path d="M64 39h1v1h-1v-1z" fill="rgb(131,139,148)"/>
<path d="M65 39h1v1h-1v-1z" fill="rgb(0,0,0)"/>
<path d="M75 39h1v1h-1v-1z" fill="rgb(0,0,0)"/>
<path d="M25 40h2v1h-2v-1z" fill="rgb(65,82,98)"/>
<path d="M34 40h1v1h1v1h1v2h-1v1h-2v-1h-1v-3h1v-1z" fill="rgb(197,213,222)"/>
<path d="M53 40h1v2h-1v-2z" fill="rgb(65,82,98)"/>
<path d="M66 40h1v1h-1v-1z" fill="rgb(0,0,0)"/>
<path d="M67 40h1v1h-1v-1z" fill="rgb(65,82,98)"/>
<path d="M73 40h2v1h-2v-1z" fill="rgb(0,0,0)"/>
<path d="M24 41h1v1h-1v-1z" fill="rgb(0,0,0)"/>
<path d="M25 41h1v1h-1v-1z" fill="rgb(131,139,148)"/>
<path d="M31 41h1v3h-1v-3z" fill="rgb(65,82,98)"/>
<path d="M62 41h1v1h-1v-1z" fill="rgb(131,139,148)"/>
<path d="M67 41h6v1h-4v1h-1v-1h-1v-1z" fill="rgb(0,0,0)"/>
<path d="M24 42h1v1h-1v-1z" fill="rgb(65,82,98)"/>
<path d="M28 42h1v1h-1v-1z" fill="rgb(131,139,148)"/>
<path d="M40 42h1v2h-1v-2z" fill="rgb(65,82,98)"/>
<path d="M43 42h2v1h1v1h1v1h-3v-1h-1v-2z" fill="rgb(197,213,222)"/>
<path d="M53 42h1v1h-1v-1z" fill="rgb(131,139,148)"/>
<path d="M54 42h1v1h-1v-1z" fill="rgb(65,82,98)"/>
<path d="M63 42h1v1h1v2h-1v-1h-1v-2z" fill="rgb(131,139,148)"/>
<path d="M67 42h1v1h-1v-1z" fill="rgb(131,139,148)"/>
<path d="M23 43h1v1h-1v-1z" fill="rgb(0,0,0)"/>
<path d="M27 43h1v2h2v-1h1v3h-2v-1h-2v-1h-1v-1h1v-1z" fill="rgb(131,139,148)"/>
<path d="M53 43h1v1h-1v-1z" fill="rgb(65,82,98)"/>
<path d="M54 43h1v1h-1v-1z" fill="rgb(0,0,0)"/>
<path d="M68 43h1v1h-1v-1z" fill="rgb(65,82,98)"/>
<path d="M23 44h1v1h-1v-1z" fill="rgb(65,82,98)"/>
<path d="M31 44h1v2h-1v-2z" fill="rgb(0,0,0)"/>
<path d="M52 44h1v1h-1v-1z" fill="rgb(131,139,148)"/>
<path d="M53 44h1v1h-1v-1z" fill="rgb(0,0,0)"/>
<path d="M55 44h1v1h-1v-1z" fill="rgb(0,0,0)"/>
<path d="M62 44h1v1h-1v-1z" fill="rgb(131,139,148)"/>
<path d="M63 44h1v1h-1v-1z" fill="rgb(65,82,98)"/>
<path d="M69 44h1v1h-1v-1z" fill="rgb(0,0,0)"/>
<path d="M22 45h1v1h-1v-1z" fill="rgb(65,82,98)"/>
<path d="M26 45h1v1h-1v-1z" fill="rgb(65,82,98)"/>
<path d="M32 45h1v1h-1v-1z" fill="rgb(131,139,148)"/>
<path d="M41 45h1v1h-1v-1z" fill="rgb(65,82,98)"/>
<path d="M51 45h1v1h-1v-1z" fill="rgb(131,139,148)"/>
<path d="M52 45h2v1h-2v-1z" fill="rgb(65,82,98)"/>
<path d="M55 45h1v1h-1v-1z" fill="rgb(65,82,98)"/>
<path d="M56 45h1v1h-1v-1z" fill="rgb(0,0,0)"/>
<path d="M62 45h1v1h-1v-1z" fill="rgb(65,82,98)"/>
<path d="M63 45h1v1h-1v-1z" fill="rgb(131,139,148)"/>
<path d="M70 45h1v1h-1v-1z" fill="rgb(0,0,0)"/>
<path d="M21 46h1v1h-1v-1z" fill="rgb(65,82,98)"/>
<path d="M27 46h2v1h-2v-1z" fill="rgb(65,82,98)"/>
<path d="M31 46h1v1h-1v-1z" fill="rgb(65,82,98)"/>
<path d="M32 46h1v1h-1v-1z" fill="rgb(0,0,0)"/>
<path d="M33 46h1v1h-1v-1z" fill="rgb(131,139,148)"/>
<path d="M49 46h2v1h-2v-1z" fill="rgb(131,139,148)"/>
<path d="M51 46h1v1h-1v-1z" fill="rgb(65,82,98)"/>
<path d="M52 46h1v1h-1v-1z" fill="rgb(0,0,0)"/>
<path d="M56 46h1v1h-1v-1z" fill="rgb(65,82,98)"/>
<path d="M57 46h2v1h-2v-1z" fill="rgb(0,0,0)"/>
<path d="M61 46h1v1h-1v-1z" fill="rgb(0,0,0)"/>
<path d="M62 46h1v1h-1v-1z" fill="rgb(131,139,148)"/>
<path d="M70 46h1v1h-1v-1z" fill="rgb(65,82,98)"/>
<path d="M21 47h1v3h-1v-3z" fill="rgb(0,0,0)"/>
<path d="M28 47h1v1h-1v-1z" fill="rgb(131,139,148)"/>
<path d="M29 47h1v1h-1v-1z" fill="rgb(0,0,0)"/>
<path d="M30 47h1v1h-1v-1z" fill="rgb(65,82,98)"/>
<path d="M31 47h1v1h-1v-1z" fill="rgb(0,0,0)"/>
<path d="M32 47h1v1h1v2h1v1h1v2h-2v-1h-1v-1h-1v-2h-1v-1h1v-1z" fill="transparent"/>
<path d="M33 47h1v1h-1v-1z" fill="rgb(0,0,0)"/>
<path d="M34 47h4v1h-4v-1z" fill="rgb(65,82,98)"/>
<path d="M44 47h4v1h-4v-1z" fill="rgb(65,82,98)"/>
<path d="M48 47h3v1h-3v-1z" fill="rgb(0,0,0)"/>
<path d="M56 47h1v2h-1v-2z" fill="rgb(0,0,0)"/>
<path d="M57 47h2v1h1v1h-1v1h-1v1h-1v1h-1v1h-1v-3h1v-1h1v-2z" fill="transparent"/>
<path d="M59 47h2v2h-1v-1h-1v-1z" fill="rgb(0,0,0)"/>
<path d="M61 47h1v1h-1v-1z" fill="rgb(65,82,98)"/>
<path d="M64 47h2v1h-2v-1z" fill="rgb(131,139,148)"/>
<path d="M70 47h1v3h-1v2h-2v1h-3v1h-1v1h-2v1h-1v1h-1v1h1v1h1v1h-4v-1h-2v-2h-1v-2h1v-2h1
	v-1h1v2h1v1h2v-1h1v-1h2v-1h2v-1h1v-1h1v-1h1v-1h1v-1z" fill="rgb(131,139,148)"/>
<path d="M71 47h1v3h-1v-3z" fill="rgb(0,0,0)"/>
<path d="M26 48h1v1h-1v-1z" fill="rgb(131,139,148)"/>
<path d="M29 48h1v1h-1v-1z" fill="rgb(131,139,148)"/>
<path d="M30 48h1v1h-1v-1z" fill="rgb(0,0,0)"/>
<path d="M34 48h1v2h-1v-2z" fill="rgb(0,0,0)"/>
<path d="M55 48h1v1h-1v-1z" fill="rgb(65,82,98)"/>
<path d="M61 48h3v1h-1v1h-1v-1h-1v-1z" fill="rgb(131,139,148)"/>
<path d="M27 49h2v1h-2v-1z" fill="rgb(131,139,148)"/>
<path d="M29 49h1v1h-1v-1z" fill="rgb(65,82,98)"/>
<path d="M30 49h1v1h-1v-1z" fill="rgb(131,139,148)"/>
<path d="M31 49h1v2h-1v-2z" fill="rgb(0,0,0)"/>
<path d="M39 49h3v1h-3v-1z" fill="rgb(82,65,0)"/>
<path d="M55 49h1v1h-1v-1z" fill="rgb(0,0,0)"/>
<path d="M59 49h1v1h-1v-1z" fill="rgb(0,0,0)"/>
<path d="M60 49h2v1h-2v-1z" fill="rgb(65,82,98)"/>
<path d="M22 50h1v1h-1v-1z" fill="rgb(65,82,98)"/>
<path d="M29 50h1v1h-1v-1z" fill="rgb(131,139,148)"/>
<path d="M30 50h1v1h-1v-1z" fill="rgb(65,82,98)"/>
<path d="M35 50h1v1h-1v-1z" fill="rgb(0,0,0)"/>
<path d="M36 50h1v1h-1v-1z" fill="rgb(65,82,98)"/>
<path d="M38 50h1v1h-1v-1z" fill="rgb(82,65,0)"/>
<path d="M39 50h1v1h-1v-1z" fill="rgb(246,238,156)"/>
<path d="M40 50h2v3h-2v-3z" fill="rgb(189,0,0)"/>
<path d="M42 50h1v1h-1v-1z" fill="rgb(172,156,65)"/>
<path d="M43 50h1v1h-1v-1z" fill="rgb(82,65,0)"/>
<path d="M44 50h1v1h-1v-1z" fill="rgb(65,82,98)"/>
<path d="M52 50h2v1h-2v-1z" fill="rgb(65,82,98)"/>
<path d="M54 50h1v3h1v1h-1v3h-1v-1h-2v1h-2v1h-2v1h-1v2h-1v3h-3v1h-2v-1h1v-1h-1v-1h-1v-2
	h2v-1h1v-2h-4v1h-1v-1h-1v-1h-2v-1h4v1h4v-1h10v-1h1v-2h-2v-1h2v-1z" fill="rgb(0,0,0)"/>
<path d="M58 50h1v1h-1v-1z" fill="rgb(0,0,0)"/>
<path d="M59 50h1v1h-1v-1z" fill="rgb(65,82,98)"/>
<path d="M60 50h1v1h-1v-1z" fill="rgb(131,139,148)"/>
<path d="M70 50h1v1h-1v-1z" fill="rgb(65,82,98)"/>
<path d="M22 51h1v1h-1v-1z" fill="rgb(0,0,0)"/>
<path d="M23 51h1v1h-1v-1z" fill="rgb(131,139,148)"/>
<path d="M30 51h1v1h-1v-1z" fill="rgb(131,139,148)"/>
<path d="M31 51h1v1h-1v-1z" fill="rgb(65,82,98)"/>
<path d="M32 51h1v1h-1v-1z" fill="rgb(0,0,0)"/>
<path d="M36 51h2v1h-2v-1z" fill="rgb(0,0,0)"/>
<path d="M38 51h1v2h-1v-2z" fill="rgb(246,238,156)"/>
<path d="M39 51h1v1h-1v-1z" fill="rgb(205,197,98)"/>
<path d="M42 51h1v1h-1v-1z" fill="rgb(205,197,98)"/>
<path d="M43 51h1v1h-1v-1z" fill="rgb(172,156,65)"/>
<path d="M44 51h1v1h-1v-1z" fill="rgb(82,65,0)"/>
<path d="M45 51h2v1h-2v-1z" fill="rgb(0,0,0)"/>
<path d="M47 51h5v1h-5v-1z" fill="rgb(65,82,98)"/>
<path d="M57 51h1v1h-1v-1z" fill="rgb(0,0,0)"/>
<path d="M58 51h1v1h-1v-1z" fill="rgb(131,139,148)"/>
<path d="M70 51h1v1h-1v-1z" fill="rgb(0,0,0)"/>
<path d="M23 52h1v1h-1v-1z" fill="rgb(0,0,0)"/>
<path d="M24 52h1v1h-1v-1z" fill="rgb(131,139,148)"/>
<path d="M31 52h2v1h1v1h1v2h-2v1h-2v1h-1v-1h-1v-1h2v-1h1v-2h-1v-1z" fill="rgb(131,139,148)"/>
<path d="M33 52h1v1h-1v-1z" fill="rgb(0,0,0)"/>
<path d="M36 52h1v3h-1v-3z" fill="rgb(82,65,0)"/>
<path d="M37 52h1v2h-1v-2z" fill="rgb(172,156,65)"/>
<path d="M39 52h1v2h-1v-2z" fill="rgb(131,115,41)"/>
<path d="M42 52h1v2h-1v-2z" fill="rgb(131,115,41)"/>
<path d="M43 52h1v2h-1v-2z" fill="rgb(205,197,98)"/>
<path d="M44 52h1v1h-1v-1z" fill="rgb(0,0,0)"/>
<path d="M45 52h1v1h-1v-1z" fill="rgb(205,197,98)"/>
<path d="M46 52h8v1h-1v2h-7v-3z" fill="rgb(74,74,98)"/>
<path d="M56 52h1v1h-1v-1z" fill="rgb(0,0,0)"/>
<path d="M68 52h1v1h-1v-1z" fill="rgb(65,82,98)"/>
<path d="M69 52h1v1h-1v-1z" fill="rgb(0,0,0)"/>
<path d="M24 53h1v1h-1v-1z" fill="rgb(0,0,0)"/>
<path d="M25 53h1v1h-1v-1z" fill="rgb(131,139,148)"/>
<path d="M34 53h1v1h-1v-1z" fill="rgb(65,82,98)"/>
<path d="M35 53h1v1h-1v-1z" fill="rgb(0,0,0)"/>
<path d="M38 53h1v1h-1v-1z" fill="rgb(205,197,98)"/>
<path d="M40 53h2v1h-2v-1z" fill="rgb(205,197,98)"/>
<path d="M44 53h1v2h-1v-2z" fill="rgb(82,65,0)"/>
<path d="M45 53h1v1h-1v-1z" fill="rgb(246,238,156)"/>
<path d="M47 53h1v1h-1v-1z" fill="rgb(205,197,98)"/>
<path d="M49 53h1v1h-1v-1z" fill="rgb(205,197,98)"/>
<path d="M51 53h1v1h-1v-1z" fill="rgb(172,156,65)"/>
<path d="M53 53h1v1h-1v-1z" fill="rgb(172,156,65)"/>
<path d="M65 53h1v1h-1v-1z" fill="rgb(65,82,98)"/>
<path d="M66 53h2v1h-2v-1z" fill="rgb(0,0,0)"/>
<path d="M25 54h1v1h-1v-1z" fill="rgb(0,0,0)"/>
<path d="M26 54h1v1h-1v-1z" fill="rgb(65,82,98)"/>
<path d="M35 54h1v1h-1v-1z" fill="rgb(65,82,98)"/>
<path d="M37 54h1v1h-1v-1z" fill="rgb(131,115,41)"/>
<path d="M38 54h1v1h-1v-1z" fill="rgb(172,156,65)"/>
<path d="M39 54h1v1h-1v-1z" fill="rgb(205,197,98)"/>
<path d="M40 54h2v1h-2v-1z" fill="rgb(131,115,41)"/>
<path d="M42 54h1v1h-1v-1z" fill="rgb(205,197,98)"/>
<path d="M43 54h1v1h-1v-1z" fill="rgb(172,156,65)"/>
<path d="M45 54h1v1h-1v-1z" fill="rgb(205,197,98)"/>
<path d="M55 54h1v1h-1v-1z" fill="rgb(65,82,98)"/>
<path d="M64 54h1v1h-1v-1z" fill="rgb(0,0,0)"/>
<path d="M27 55h1v1h-1v-1z" fill="rgb(0,0,0)"/>
<path d="M28 55h1v1h-1v-1z" fill="rgb(65,82,98)"/>
<path d="M39 55h1v1h-1v-1z" fill="rgb(172,156,65)"/>
<path d="M40 55h2v1h-2v-1z" fill="rgb(205,197,98)"/>
<path d="M42 55h1v1h-1v-1z" fill="rgb(172,156,65)"/>
<path d="M62 55h1v1h-1v-1z" fill="rgb(65,82,98)"/>
<path d="M63 55h1v1h-1v-1z" fill="rgb(0,0,0)"/>
<path d="M28 56h1v1h-1v-1z" fill="rgb(0,0,0)"/>
<path d="M33 56h2v1h-2v-1z" fill="rgb(0,0,0)"/>
<path d="M35 56h2v1h-2v-1z" fill="rgb(131,139,148)"/>
<path d="M52 56h2v1h-2v-1z" fill="rgb(65,82,98)"/>
<path d="M61 56h1v2h-2v-1h1v-1z" fill="rgb(65,82,98)"/>
<path d="M62 56h1v2h-1v-2z" fill="rgb(0,0,0)"/>
<path d="M29 57h1v1h1v1h-1v1h-1v-3z" fill="rgb(0,0,0)"/>
<path d="M31 57h1v1h-1v-1z" fill="rgb(0,0,0)"/>
<path d="M32 57h1v1h-1v-1z" fill="rgb(65,82,98)"/>
<path d="M33 57h4v1h1v4h-2v1h-1v1h1v-1h2v1h-1v1h-2v1h-2v-1h-2v1h-1v1h-1v2h-2v-1h-1v-3h1
	v-1h2v-1h1v-1h-2v-1h1v-1h1v-1h2v-1h1v-1z" fill="rgb(164,180,180)"/>
<path d="M37 57h1v1h-1v-1z" fill="rgb(131,139,148)"/>
<path d="M39 57h4v2h-1v1h-2v-2h-1v-1z" fill="rgb(74,74,98)"/>
<path d="M50 57h1v1h-1v-1z" fill="rgb(65,82,98)"/>
<path d="M51 57h4v2h1v1h2v1h2v1h1v1h-2v-1h-2v-1h-2v-1h-2v1h-1v1h-1v2h-1v-1h-1v-2h-1v-2h1
	v-1h2v-1z" fill="rgb(131,139,148)"/>
<path d="M55 57h1v1h-1v-1z" fill="rgb(65,82,98)"/>
<path d="M31 58h1v1h-1v-1z" fill="rgb(131,139,148)"/>
<path d="M38 58h1v1h-1v-1z" fill="rgb(65,82,98)"/>
<path d="M39 58h1v2h-1v-2z" fill="rgb(0,0,0)"/>
<path d="M48 58h1v1h-1v-1z" fill="rgb(65,82,98)"/>
<path d="M55 58h1v1h-1v-1z" fill="rgb(0,0,0)"/>
<path d="M61 58h1v1h-1v-1z" fill="rgb(0,0,0)"/>
<path d="M62 58h1v2h-1v-2z" fill="rgb(65,82,98)"/>
<path d="M63 58h1v2h-1v-2z" fill="rgb(0,0,0)"/>
<path d="M38 59h1v2h-1v-2z" fill="rgb(131,139,148)"/>
<path d="M47 59h1v2h1v2h-1v-1h-1v2h-1v-3h1v-2z" fill="rgb(65,82,98)"/>
<path d="M56 59h1v1h-1v-1z" fill="rgb(0,0,0)"/>
<path d="M57 59h1v1h-1v-1z" fill="rgb(65,82,98)"/>
<path d="M28 60h1v1h-1v-1z" fill="rgb(65,82,98)"/>
<path d="M39 60h1v2h-2v-1h1v-1z" fill="rgb(65,82,98)"/>
<path d="M53 60h2v1h2v1h2v1h2v1h1v2h-1v-1h-2v1h-1v1h1v1h3v-2h1v3h-1v1h-3v-1h-1v-1h-3v-1
	h-1v-1h-1v-1h-1v-1h-1v-2h1v-1h1v-1z" fill="rgb(164,180,180)"/>
<path d="M58 60h2v1h-2v-1z" fill="rgb(0,0,0)"/>
<path d="M60 60h2v1h-2v-1z" fill="rgb(65,82,98)"/>
<path d="M62 60h1v1h-1v-1z" fill="rgb(0,0,0)"/>
<path d="M27 61h1v1h-1v-1z" fill="rgb(65,82,98)"/>
<path d="M60 61h2v2h-1v-1h-1v-1z" fill="rgb(0,0,0)"/>
<path d="M27 62h1v1h-1v-1z" fill="rgb(131,139,148)"/>
<path d="M28 62h2v1h-1v1h-2v-1h1v-1z" fill="rgb(197,213,222)"/>
<path d="M36 62h4v1h1v2h-2v1h-1v1h-2v1h-4v1h-2v2h1v2h-1v-1h-1v-1h-1v-1h-1v-1h2v-2h1v-1h1
	v-1h2v1h2v-1h2v-1h1v-1h-2v-1z" fill="rgb(131,139,148)"/>
<path d="M40 62h1v1h-1v-1z" fill="rgb(65,82,98)"/>
<path d="M47 62h1v1h1v1h1v1h1v1h1v-1h1v2h2v1h3v1h-1v1h-3v-1h-2v-1h-1v-1h-2v-1h-1v-1h-1
	v-3z" fill="rgb(131,139,148)"/>
<path d="M26 63h1v2h-1v-2z" fill="rgb(131,139,148)"/>
<path d="M35 63h1v1h-1v-1z" fill="rgb(131,139,148)"/>
<path d="M41 63h1v1h-1v-1z" fill="rgb(65,82,98)"/>
<path d="M49 63h1v1h-1v-1z" fill="rgb(65,82,98)"/>
<path d="M61 63h1v1h-1v-1z" fill="rgb(131,139,148)"/>
<path d="M62 63h1v1h-1v-1z" fill="rgb(0,0,0)"/>
<path d="M33 64h1v1h-1v-1z" fill="rgb(131,139,148)"/>
<path d="M46 64h1v1h-1v-1z" fill="rgb(0,0,0)"/>
<path d="M50 64h1v1h-1v-1z" fill="rgb(65,82,98)"/>
<path d="M51 64h1v1h-1v-1z" fill="rgb(131,139,148)"/>
<path d="M62 64h1v1h-1v-1z" fill="rgb(65,82,98)"/>
<path d="M25 65h1v2h-1v-2z" fill="rgb(131,139,148)"/>
<path d="M39 65h1v1h-1v-1z" fill="rgb(65,82,98)"/>
<path d="M40 65h1v1h-1v-1z" fill="rgb(0,0,0)"/>
<path d="M47 65h1v1h-1v-1z" fill="rgb(0,0,0)"/>
<path d="M51 65h1v1h-1v-1z" fill="rgb(65,82,98)"/>
<path d="M59 65h2v1h1v2h-3v-1h-1v-1h1v-1z" fill="rgb(197,213,222)"/>
<path d="M62 65h1v1h-1v-1z" fill="rgb(131,139,148)"/>
<path d="M63 65h1v1h-1v-1z" fill="rgb(0,0,0)"/>
<path d="M38 66h1v1h-1v-1z" fill="rgb(0,0,0)"/>
<path d="M48 66h1v1h-1v-1z" fill="rgb(0,0,0)"/>
<path d="M53 66h1v1h-1v-1z" fill="rgb(65,82,98)"/>
<path d="M63 66h1v1h-1v-1z" fill="rgb(65,82,98)"/>
<path d="M64 66h1v2h-1v-2z" fill="rgb(0,0,0)"/>
<path d="M25 67h1v1h-1v-1z" fill="rgb(65,82,98)"/>
<path d="M36 67h2v1h-2v-1z" fill="rgb(0,0,0)"/>
<path d="M49 67h1v1h-1v-1z" fill="rgb(0,0,0)"/>
<path d="M50 67h1v1h-1v-1z" fill="rgb(65,82,98)"/>
<path d="M63 67h1v2h-1v-2z" fill="rgb(131,139,148)"/>
<path d="M26 68h1v1h-1v-1z" fill="rgb(65,82,98)"/>
<path d="M32 68h1v1h3v4h-1v-3h-3v2h1v1h2v2h1v1h1v1h1v2h-4v-1h-1v-1h-2v-1h-2v-1h2v-1h1v-1
	h-1v-2h-1v-2h2v-1z" fill="rgb(65,82,98)"/>
<path d="M33 68h3v1h-3v-1z" fill="rgb(0,0,0)"/>
<path d="M51 68h1v1h-1v-1z" fill="rgb(0,0,0)"/>
<path d="M64 68h1v1h-1v-1z" fill="rgb(65,82,98)"/>
<path d="M26 69h1v1h-1v-1z" fill="rgb(0,0,0)"/>
<path d="M36 69h1v4h-1v-4z" fill="rgb(0,0,0)"/>
<path d="M52 69h1v1h-1v-1z" fill="rgb(0,0,0)"/>
<path d="M53 69h1v1h-1v-1z" fill="rgb(65,82,98)"/>
<path d="M57 69h1v1h-1v-1z" fill="rgb(65,82,98)"/>
<path d="M58 69h1v1h-1v-1z" fill="rgb(131,139,148)"/>
<path d="M62 69h1v2h-1v1h-2v-1h-1v-1h3v-1z" fill="rgb(131,139,148)"/>
<path d="M63 69h1v4h1v1h-1v3h-2v1h-1v1h-1v1h-1v-2h1v-2h-1v-1h-1v-2h-1v-1h2v1h1v-1h2v-1h1
	v-2z" fill="rgb(65,82,98)"/>
<path d="M64 69h1v4h-1v-4z" fill="rgb(131,139,148)"/>
<path d="M65 69h1v4h-1v-4z" fill="rgb(0,0,0)"/>
<path d="M27 70h1v1h-1v-1z" fill="rgb(65,82,98)"/>
<path d="M32 70h3v3h-2v-1h-1v-2z" fill="rgb(131,139,148)"/>
<path d="M54 70h2v1h-2v-1z" fill="rgb(0,0,0)"/>
<path d="M56 70h1v1h-1v-1z" fill="rgb(65,82,98)"/>
<path d="M57 70h1v1h-1v-1z" fill="rgb(131,139,148)"/>
<path d="M58 70h1v1h-1v-1z" fill="rgb(65,82,98)"/>
<path d="M28 71h1v1h-1v-1z" fill="rgb(0,0,0)"/>
<path d="M56 71h3v1h-2v1h-1v-2z" fill="rgb(0,0,0)"/>
<path d="M59 71h1v1h-1v-1z" fill="rgb(65,82,98)"/>
<path d="M29 72h1v1h-1v-1z" fill="rgb(65,82,98)"/>
<path d="M59 72h1v1h-1v-1z" fill="rgb(0,0,0)"/>
<path d="M29 73h1v1h-1v-1z" fill="rgb(0,0,0)"/>
<path d="M30 73h1v1h-1v-1z" fill="rgb(65,82,98)"/>
<path d="M31 73h1v1h-1v-1z" fill="rgb(131,139,148)"/>
<path d="M35 73h1v2h-1v-2z" fill="rgb(0,0,0)"/>
<path d="M57 73h1v2h-1v-2z" fill="rgb(0,0,0)"/>
<path d="M30 74h1v1h-1v-1z" fill="rgb(0,0,0)"/>
<path d="M64 74h1v3h-1v-3z" fill="rgb(0,0,0)"/>
<path d="M36 75h1v1h-1v-1z" fill="rgb(0,0,0)"/>
<path d="M58 75h1v1h-1v-1z" fill="rgb(0,0,0)"/>
<path d="M26 76h3v1h-3v-1z" fill="rgb(65,82,98)"/>
<path d="M29 76h2v1h2v1h1v1h-2v-1h-4v-1h1v-1z" fill="rgb(131,139,148)"/>
<path d="M37 76h1v1h-1v-1z" fill="rgb(0,0,0)"/>
<path d="M59 76h1v2h-1v-2z" fill="rgb(0,0,0)"/>
<path d="M24 77h2v1h-2v-1z" fill="rgb(65,82,98)"/>
<path d="M26 77h2v1h-2v-1z" fill="rgb(164,180,180)"/>
<path d="M38 77h1v2h-1v-2z" fill="rgb(0,0,0)"/>
<path d="M62 77h2v1h2v1h-1v1h-1v-1h-3v-1h1v-1z" fill="rgb(131,139,148)"/>
<path d="M64 77h1v1h-1v-1z" fill="rgb(65,82,98)"/>
<path d="M65 77h1v1h-1v-1z" fill="rgb(0,0,0)"/>
<path d="M24 78h1v1h-1v-1z" fill="rgb(0,0,0)"/>
<path d="M25 78h3v1h-3v-1z" fill="rgb(131,139,148)"/>
<path d="M28 78h1v1h-1v-1z" fill="rgb(0,0,0)"/>
<path d="M29 78h1v1h-1v-1z" fill="rgb(65,82,98)"/>
<path d="M30 78h2v1h-1v1h-3v-1h2v-1z" fill="rgb(164,180,180)"/>
<path d="M58 78h1v2h-1v-2z" fill="rgb(0,0,0)"/>
<path d="M66 78h1v1h-1v-1z" fill="rgb(65,82,98)"/>
<path d="M25 79h3v2h-1v-1h-2v-1z" fill="rgb(0,0,0)"/>
<path d="M31 79h1v1h-1v-1z" fill="rgb(131,139,148)"/>
<path d="M32 79h2v1h-2v-1z" fill="rgb(65,82,98)"/>
<path d="M34 79h4v1h-4v-1z" fill="rgb(0,0,0)"/>
<path d="M60 79h1v1h1v1h2v1h-3v-1h-1v-2z" fill="rgb(131,139,148)"/>
<path d="M61 79h1v1h-1v-1z" fill="rgb(164,180,180)"/>
<path d="M62 79h2v1h-2v-1z" fill="rgb(65,82,98)"/>
<path d="M65 79h2v1h2v1h-3v-1h-1v-1z" fill="rgb(164,180,180)"/>
<path d="M67 79h2v1h-2v-1z" fill="rgb(65,82,98)"/>
<path d="M28 80h3v1h-3v-1z" fill="rgb(131,139,148)"/>
<path d="M31 80h3v1h-3v-1z" fill="rgb(0,0,0)"/>
<path d="M59 80h1v1h-1v-1z" fill="rgb(0,0,0)"/>
<path d="M62 80h2v1h-2v-1z" fill="rgb(164,180,180)"/>
<path d="M64 80h1v2h-1v-2z" fill="rgb(65,82,98)"/>
<path d="M65 80h1v1h-1v-1z" fill="rgb(131,139,148)"/>
<path d="M69 80h1v2h-1v-2z" fill="rgb(0,0,0)"/>
<path d="M28 81h3v1h-3v-1z" fill="rgb(0,0,0)"/>
<path d="M60 81h1v1h-1v-1z" fill="rgb(0,0,0)"/>
<path d="M65 81h1v1h-1v-1z" fill="rgb(0,0,0)"/>
<path d="M66 81h3v1h-3v-1z" fill="rgb(131,139,148)"/>
<path d="M61 82h4v1h-4v-1z" fill="rgb(0,0,0)"/>
<path d="M66 82h3v1h-3v-1z" fill="rgb(0,0,0)"/>
</svg>
