<?xml version="1.0" encoding="utf-8"?>
<!-- generated at drububu.com  -->
<!DOCTYPE svg PUBLIC "-//W3C//DTD SVG 1.1//EN" "http://www.w3.org/Graphics/SVG/1.1/DTD/svg11.dtd">
<svg version="1.1" preserveAspectRatio="xMinYMin meet" xmlns="http://www.w3.org/2000/svg" xmlns:xlink="http://www.w3.org/1999/xlink" x="0px" y="0px" width="96px" height="96px" viewBox="0 0 96 96">
<path d="M0 0h96v96h-96v-96z" fill="transparent"/>
<path d="M43 26h6v1h-6v-1z" fill="rgb(172,123,65)"/>
<path d="M41 27h2v1h-2v-1z" fill="rgb(172,123,65)"/>
<path d="M43 27h3v1h2v1h1v4h-1v1h-3v2h1v1h-2v1h-2v1h-1v1h-1v-1h-1v-1h-2v-2h1v-1h2v-2h-1
	v-3h1v2h1v1h3v-1h1v-3h-1v-1h-1v-1z" fill="rgb(246,230,115)"/>
<path d="M46 27h3v1h2v1h1v1h1v2h1v4h-1v2h-1v1h-1v1h-3v1h-3v1h-2v1h-1v-2h-1v-2h1v-1h2v-1
	h2v-1h1v-2h1v-1h1v-4h-1v-1h-2v-1z" fill="rgb(213,189,98)"/>
<path d="M49 27h1v1h-1v-1z" fill="rgb(172,123,65)"/>
<path d="M50 27h1v1h-1v-1z" fill="rgb(90,57,0)"/>
<path d="M40 28h1v1h-1v-1z" fill="rgb(172,123,65)"/>
<path d="M41 28h3v1h1v3h-1v1h-3v-1h-1v-3h1v-1z" fill="rgb(255,255,255)"/>
<path d="M51 28h1v1h-1v-1z" fill="rgb(90,57,0)"/>
<path d="M39 29h1v1h-1v-1z" fill="rgb(172,123,65)"/>
<path d="M52 29h1v1h-1v-1z" fill="rgb(0,0,0)"/>
<path d="M38 30h1v2h-1v-2z" fill="rgb(172,123,65)"/>
<path d="M53 30h1v1h-1v-1z" fill="rgb(90,57,0)"/>
<path d="M53 31h1v1h-1v-1z" fill="rgb(0,0,0)"/>
<path d="M37 32h1v2h-1v-2z" fill="rgb(172,123,65)"/>
<path d="M38 32h1v1h-1v-1z" fill="rgb(213,189,98)"/>
<path d="M54 32h1v1h-1v-1z" fill="rgb(90,57,0)"/>
<path d="M38 33h1v1h-1v-1z" fill="rgb(255,255,255)"/>
<path d="M39 33h1v1h-1v-1z" fill="rgb(0,0,0)"/>
<path d="M54 33h1v4h-1v-4z" fill="rgb(0,0,0)"/>
<path d="M37 34h1v2h-1v-2z" fill="rgb(148,106,65)"/>
<path d="M38 34h1v1h-1v-1z" fill="rgb(0,0,0)"/>
<path d="M39 34h1v1h-1v-1z" fill="rgb(148,106,65)"/>
<path d="M45 34h1v1h-1v-1z" fill="rgb(255,255,255)"/>
<path d="M46 34h1v1h-1v-1z" fill="rgb(0,0,0)"/>
<path d="M45 35h1v1h-1v-1z" fill="rgb(0,0,0)"/>
<path d="M46 35h1v1h-1v-1z" fill="rgb(90,57,0)"/>
<path d="M36 36h1v1h-1v-1z" fill="rgb(148,106,65)"/>
<path d="M53 36h1v1h-1v-1z" fill="rgb(172,123,65)"/>
<path d="M36 37h1v1h-1v-1z" fill="rgb(90,57,0)"/>
<path d="M53 37h1v1h-1v-1z" fill="rgb(90,57,0)"/>
<path d="M35 38h4v2h-1v-1h-3v-1z" fill="rgb(180,65,49)"/>
<path d="M52 38h1v1h-1v-1z" fill="rgb(172,123,65)"/>
<path d="M53 38h1v1h-1v-1z" fill="rgb(0,0,0)"/>
<path d="M34 39h1v2h-1v-2z" fill="rgb(180,65,49)"/>
<path d="M35 39h1v2h-1v-2z" fill="rgb(213,98,106)"/>
<path d="M36 39h1v1h-1v-1z" fill="rgb(230,139,148)"/>
<path d="M37 39h1v1h-1v-1z" fill="rgb(213,98,106)"/>
<path d="M39 39h1v1h-1v-1z" fill="rgb(115,32,0)"/>
<path d="M51 39h2v1h-1v1h-4v-1h3v-1z" fill="rgb(0,0,0)"/>
<path d="M36 40h1v1h1v2h-1v-1h-1v-2z" fill="rgb(115,32,0)"/>
<path d="M37 40h1v1h-1v-1z" fill="rgb(0,0,0)"/>
<path d="M38 40h2v2h-1v-1h-1v-1z" fill="rgb(213,98,106)"/>
<path d="M40 40h1v1h-1v-1z" fill="rgb(0,0,0)"/>
<path d="M52 40h2v2h1v1h-1v4h-1v1h-1v1h-1v1h-1v1h-1v1h-1v1h-1v-2h1v-1h1v-1h1v-1h1v-1h1
	v-2h1v-4h-1v-1z" fill="rgb(90,57,0)"/>
<path d="M34 41h1v1h1v1h-2v-2z" fill="rgb(115,32,0)"/>
<path d="M35 41h1v1h-1v-1z" fill="rgb(180,65,49)"/>
<path d="M38 41h1v2h-1v-2z" fill="rgb(0,0,0)"/>
<path d="M40 41h1v1h-1v-1z" fill="rgb(180,65,49)"/>
<path d="M41 41h1v1h-1v-1z" fill="rgb(115,32,0)"/>
<path d="M45 41h3v1h-3v-1z" fill="rgb(0,0,0)"/>
<path d="M48 41h4v1h1v3h-1v2h-1v1h-2v-1h-1v-1h-2v-1h-4v-1h1v-1h2v-1h3v-1z" fill="transparent"/>
<path d="M52 41h1v1h-1v-1z" fill="rgb(0,0,0)"/>
<path d="M36 42h1v1h1v1h1v-2h1v1h1v1h-1v1h-3v-1h-1v-2z" fill="rgb(180,65,49)"/>
<path d="M40 42h1v1h-1v-1z" fill="rgb(213,98,106)"/>
<path d="M41 42h1v1h1v1h-1v1h-1v-3z" fill="rgb(0,0,0)"/>
<path d="M43 42h2v1h-2v-1z" fill="rgb(0,0,0)"/>
<path d="M35 43h1v1h-1v-1z" fill="rgb(0,0,0)"/>
<path d="M38 43h1v1h-1v-1z" fill="rgb(115,32,0)"/>
<path d="M54 43h1v3h-1v-3z" fill="rgb(0,0,0)"/>
<path d="M36 44h1v1h-1v-1z" fill="rgb(0,0,0)"/>
<path d="M40 44h1v1h-1v-1z" fill="rgb(115,32,0)"/>
<path d="M37 45h4v1h-4v-1z" fill="rgb(0,0,0)"/>
<path d="M41 45h1v1h-1v-1z" fill="transparent"/>
<path d="M42 45h1v1h-1v-1z" fill="rgb(98,164,65)"/>
<path d="M43 45h3v1h-3v-1z" fill="rgb(65,106,16)"/>
<path d="M40 46h2v1h-2v-1z" fill="rgb(98,164,65)"/>
<path d="M42 46h3v1h-2v1h-1v1h-1v1h-2v1h-2v-1h1v-1h1v-1h1v-1h2v-1z" fill="rgb(123,197,82)"/>
<path d="M45 46h1v1h-1v-1z" fill="rgb(98,164,65)"/>
<path d="M46 46h1v1h1v1h1v1h-2v-1h-3v-1h2v-1z" fill="rgb(65,106,16)"/>
<path d="M47 46h1v1h-1v-1z" fill="rgb(0,0,0)"/>
<path d="M39 47h1v1h-1v-1z" fill="rgb(98,164,65)"/>
<path d="M43 47h1v1h-1v-1z" fill="rgb(98,164,65)"/>
<path d="M48 47h1v1h-1v-1z" fill="rgb(0,0,0)"/>
<path d="M53 47h1v1h-1v-1z" fill="rgb(0,0,0)"/>
<path d="M54 47h3v1h-2v1h1v1h-2v-1h-1v-1h1v-1z" fill="rgb(65,106,16)"/>
<path d="M38 48h1v1h-1v-1z" fill="rgb(98,164,65)"/>
<path d="M42 48h2v1h-2v-1z" fill="rgb(65,106,16)"/>
<path d="M44 48h1v1h-1v-1z" fill="rgb(98,164,65)"/>
<path d="M45 48h1v2h-1v1h-1v1h-2v1h-3v-1h1v-1h2v-1h1v-1h2v-1z" fill="rgb(123,197,82)"/>
<path d="M46 48h1v1h1v1h-1v1h-1v1h-1v1h-1v1h-2v1h-4v-1h-2v-1h-1v-1h4v1h3v-1h2v-1h1v-1h1
	v-2z" fill="rgb(98,164,65)"/>
<path d="M49 48h1v1h-1v-1z" fill="rgb(0,0,0)"/>
<path d="M52 48h1v1h-1v-1z" fill="rgb(0,0,0)"/>
<path d="M55 48h2v1h-2v-1z" fill="rgb(98,164,65)"/>
<path d="M57 48h2v1h-2v-1z" fill="rgb(65,106,16)"/>
<path d="M37 49h1v1h-1v-1z" fill="rgb(65,106,16)"/>
<path d="M41 49h1v1h-1v-1z" fill="rgb(65,106,16)"/>
<path d="M42 49h1v1h-1v-1z" fill="rgb(98,164,65)"/>
<path d="M48 49h1v1h-1v-1z" fill="rgb(0,0,0)"/>
<path d="M51 49h1v1h-1v-1z" fill="rgb(0,0,0)"/>
<path d="M52 49h1v1h-1v-1z" fill="rgb(65,106,16)"/>
<path d="M53 49h1v1h-1v-1z" fill="rgb(98,164,65)"/>
<path d="M56 49h3v2h1v3h-1v-2h-1v-1h-1v-1h-1v-1z" fill="rgb(123,197,82)"/>
<path d="M59 49h1v1h-1v-1z" fill="rgb(65,106,16)"/>
<path d="M36 50h1v1h2v1h-6v-1h3v-1z" fill="rgb(65,106,16)"/>
<path d="M39 50h2v1h-2v-1z" fill="rgb(65,106,16)"/>
<path d="M41 50h1v1h-1v-1z" fill="rgb(98,164,65)"/>
<path d="M47 50h1v1h-1v-1z" fill="rgb(0,0,0)"/>
<path d="M50 50h1v5h-1v-3h-1v-1h1v-1z" fill="rgb(0,0,0)"/>
<path d="M51 50h1v1h-1v-1z" fill="rgb(65,106,16)"/>
<path d="M52 50h1v1h-1v-1z" fill="rgb(98,164,65)"/>
<path d="M53 50h1v1h-1v-1z" fill="rgb(123,197,82)"/>
<path d="M54 50h1v1h1v1h1v1h-1v1h-2v-1h-1v-2h1v-1z" fill="rgb(172,238,148)"/>
<path d="M55 50h1v1h-1v-1z" fill="rgb(123,197,82)"/>
<path d="M56 50h1v1h-1v-1z" fill="rgb(65,106,16)"/>
<path d="M59 50h1v1h-1v-1z" fill="rgb(98,164,65)"/>
<path d="M60 50h1v3h-1v-3z" fill="rgb(65,106,16)"/>
<path d="M32 51h1v1h-1v-1z" fill="rgb(0,0,0)"/>
<path d="M39 51h1v1h-1v-1z" fill="rgb(98,164,65)"/>
<path d="M46 51h1v1h-1v-1z" fill="rgb(0,0,0)"/>
<path d="M51 51h1v3h1v1h2v1h2v1h2v-1h1v1h1v1h1v1h-7v-1h-2v-1h-1v-2h-1v-4z" fill="rgb(98,164,65)"/>
<path d="M52 51h1v2h1v1h2v-1h2v2h1v2h-2v-1h-2v-1h-2v-1h-1v-3z" fill="rgb(123,197,82)"/>
<path d="M56 51h1v1h-1v-1z" fill="rgb(123,197,82)"/>
<path d="M57 51h1v1h-1v-1z" fill="rgb(65,106,16)"/>
<path d="M34 52h1v1h-1v-1z" fill="rgb(0,0,0)"/>
<path d="M45 52h1v1h-1v-1z" fill="rgb(90,57,0)"/>
<path d="M46 52h1v1h-1v-1z" fill="rgb(172,123,65)"/>
<path d="M48 52h1v1h-1v-1z" fill="rgb(0,0,0)"/>
<path d="M57 52h2v1h-2v-1z" fill="rgb(98,164,65)"/>
<path d="M35 53h1v1h-1v-1z" fill="rgb(0,0,0)"/>
<path d="M44 53h1v2h-1v-2z" fill="rgb(90,57,0)"/>
<path d="M45 53h1v2h-1v-2z" fill="rgb(172,123,65)"/>
<path d="M46 53h1v1h-1v-1z" fill="rgb(90,57,0)"/>
<path d="M47 53h1v1h-1v-1z" fill="rgb(0,0,0)"/>
<path d="M58 53h1v1h-1v-1z" fill="rgb(65,106,16)"/>
<path d="M60 53h1v2h1v1h1v1h-2v-1h-1v-3z" fill="rgb(98,164,65)"/>
<path d="M61 53h1v2h-1v-2z" fill="rgb(65,106,16)"/>
<path d="M36 54h2v1h-2v-1z" fill="rgb(0,0,0)"/>
<path d="M42 54h1v1h-1v-1z" fill="rgb(65,106,16)"/>
<path d="M43 54h1v1h-1v-1z" fill="rgb(0,0,0)"/>
<path d="M46 54h1v2h-1v-2z" fill="rgb(0,0,0)"/>
<path d="M58 54h1v1h-1v-1z" fill="rgb(98,164,65)"/>
<path d="M59 54h1v2h-1v-2z" fill="rgb(65,106,16)"/>
<path d="M38 55h2v1h-2v-1z" fill="rgb(0,0,0)"/>
<path d="M40 55h2v1h-2v-1z" fill="rgb(65,106,16)"/>
<path d="M42 55h1v1h-1v-1z" fill="transparent"/>
<path d="M43 55h1v2h-1v-2z" fill="rgb(90,57,0)"/>
<path d="M44 55h1v2h-1v-2z" fill="rgb(172,123,65)"/>
<path d="M45 55h1v1h-1v-1z" fill="rgb(90,57,0)"/>
<path d="M51 55h1v2h-1v-2z" fill="rgb(0,0,0)"/>
<path d="M62 55h1v1h-1v-1z" fill="rgb(65,106,16)"/>
<path d="M42 56h1v1h-1v-1z" fill="rgb(0,0,0)"/>
<path d="M45 56h1v2h-1v-2z" fill="rgb(0,0,0)"/>
<path d="M60 56h1v1h-1v-1z" fill="rgb(65,106,16)"/>
<path d="M63 56h1v1h-1v-1z" fill="rgb(65,106,16)"/>
<path d="M42 57h1v2h-1v-2z" fill="rgb(90,57,0)"/>
<path d="M43 57h1v2h-1v-2z" fill="rgb(172,123,65)"/>
<path d="M44 57h1v2h-1v-2z" fill="rgb(148,106,65)"/>
<path d="M52 57h1v1h-1v-1z" fill="rgb(0,0,0)"/>
<path d="M61 57h2v2h-1v-1h-1v-1z" fill="rgb(65,106,16)"/>
<path d="M63 57h1v1h-1v-1z" fill="rgb(98,164,65)"/>
<path d="M64 57h1v1h-1v-1z" fill="rgb(65,106,16)"/>
<path d="M37 58h2v1h1v1h-4v1h-1v1h-1v2h1v1h1v1h1v1h-2v-1h-1v-1h-1v4h-1v-3h-1v1h-1v1h-1
	v-2h1v-1h1v-1h1v-1h1v-2h1v-1h1v-1h2v-1z" fill="rgb(90,57,0)"/>
<path d="M39 58h3v1h1v1h-3v-1h-1v-1z" fill="rgb(0,0,0)"/>
<path d="M45 58h1v3h1v1h1v1h2v1h2v-1h2v-1h2v-1h5v1h-2v1h1v1h1v2h-1v-1h-1v2h-1v-3h-1v-1
	h-2v1h-2v1h-5v-1h-2v-1h-1v-1h-1v-1h-1v-1h1v-1h1v-1z" fill="rgb(90,57,0)"/>
<path d="M53 58h1v1h-1v-1z" fill="rgb(0,0,0)"/>
<path d="M54 58h1v1h-1v-1z" fill="rgb(65,106,16)"/>
<path d="M63 58h2v1h-2v-1z" fill="rgb(0,0,0)"/>
<path d="M65 58h1v1h-1v-1z" fill="rgb(65,106,16)"/>
<path d="M43 59h1v1h-1v-1z" fill="rgb(148,106,65)"/>
<path d="M55 59h1v1h-1v-1z" fill="rgb(65,106,16)"/>
<path d="M56 59h5v1h-5v-1z" fill="rgb(0,0,0)"/>
<path d="M61 59h1v1h-1v-1z" fill="rgb(65,106,16)"/>
<path d="M36 60h2v1h-2v-1z" fill="rgb(0,0,0)"/>
<path d="M46 60h1v1h-1v-1z" fill="rgb(0,0,0)"/>
<path d="M35 61h1v1h-1v-1z" fill="rgb(0,0,0)"/>
<path d="M43 61h1v1h-1v-1z" fill="rgb(0,0,0)"/>
<path d="M47 61h1v1h-1v-1z" fill="rgb(0,0,0)"/>
<path d="M55 61h1v1h-1v-1z" fill="rgb(0,0,0)"/>
<path d="M34 62h1v1h-1v-1z" fill="rgb(0,0,0)"/>
<path d="M44 62h1v1h-1v-1z" fill="rgb(0,0,0)"/>
<path d="M48 62h2v1h-2v-1z" fill="rgb(0,0,0)"/>
<path d="M52 62h2v1h-2v-1z" fill="rgb(0,0,0)"/>
<path d="M61 62h2v1h-2v-1z" fill="rgb(90,57,0)"/>
<path d="M50 63h2v1h-2v-1z" fill="rgb(0,0,0)"/>
<path d="M33 65h1v2h-1v-2z" fill="rgb(0,0,0)"/>
<path d="M61 66h1v2h-1v-2z" fill="rgb(90,57,0)"/>
<path d="M37 67h1v1h-1v-1z" fill="rgb(90,57,0)"/>
<path d="M57 67h1v1h-1v-1z" fill="rgb(90,57,0)"/>
<path d="M33 69h1v1h-1v-1z" fill="rgb(90,57,0)"/>
</svg>
