<?xml version="1.0" encoding="utf-8"?>
<!-- generated at drububu.com  -->
<!DOCTYPE svg PUBLIC "-//W3C//DTD SVG 1.1//EN" "http://www.w3.org/Graphics/SVG/1.1/DTD/svg11.dtd">
<svg version="1.1" preserveAspectRatio="xMinYMin meet" xmlns="http://www.w3.org/2000/svg" xmlns:xlink="http://www.w3.org/1999/xlink" x="0px" y="0px" width="96px" height="96px" viewBox="0 0 96 96">
<path d="M0 0h96v96h-96v-96z" fill="transparent"/>
<path d="M40 29h4v1h-4v-1z" fill="rgb(90,156,164)"/>
<path d="M44 29h2v1h-2v-1z" fill="rgb(41,115,131)"/>
<path d="M38 30h2v1h-2v-1z" fill="rgb(90,156,164)"/>
<path d="M40 30h4v1h-2v1h-1v1h-1v1h-3v-2h1v-1h2v-1z" fill="rgb(180,230,238)"/>
<path d="M44 30h2v1h2v1h1v1h1v3h-1v1h-1v-1h-1v-1h-3v-1h-1v1h-1v1h1v5h2v1h-1v1h-5v1h-2v-1
	h-1v-1h1v-1h-1v-2h1v-2h-1v-4h1v1h3v-1h1v-1h1v-1h2v-1z" fill="rgb(139,197,205)"/>
<path d="M46 30h2v1h-2v-1z" fill="rgb(41,115,131)"/>
<path d="M37 31h1v1h-1v-1z" fill="rgb(90,156,164)"/>
<path d="M48 31h1v1h-1v-1z" fill="rgb(41,115,131)"/>
<path d="M36 32h1v1h-1v-1z" fill="rgb(41,115,131)"/>
<path d="M49 32h1v1h-1v-1z" fill="rgb(41,115,131)"/>
<path d="M35 33h1v2h-1v-2z" fill="rgb(41,115,131)"/>
<path d="M50 33h1v2h-1v-2z" fill="rgb(41,115,131)"/>
<path d="M43 34h1v1h-1v-1z" fill="rgb(90,156,164)"/>
<path d="M34 35h1v5h-1v-5z" fill="rgb(41,115,131)"/>
<path d="M35 35h1v1h-1v-1z" fill="rgb(90,156,164)"/>
<path d="M42 35h1v1h-1v-1z" fill="rgb(90,156,164)"/>
<path d="M43 35h1v1h-1v-1z" fill="rgb(139,197,205)"/>
<path d="M44 35h3v1h-3v-1z" fill="rgb(90,156,164)"/>
<path d="M50 35h1v7h-1v2h-1v1h-2v1h-2v1h-6v-1h5v-1h2v-1h1v-2h-1v1h-2v-1h1v-1h2v-1h1v-3h1
	v-1h1v-1z" fill="rgb(90,156,164)"/>
<path d="M51 35h1v1h-1v-1z" fill="rgb(41,115,131)"/>
<path d="M35 36h1v1h-1v-1z" fill="rgb(131,41,0)"/>
<path d="M43 36h1v1h-1v-1z" fill="rgb(90,156,164)"/>
<path d="M44 36h1v1h1v1h-1v3h-1v-2h-1v-2h1v-1z" fill="rgb(16,16,16)"/>
<path d="M45 36h2v2h-1v-1h-1v-1z" fill="rgb(213,205,205)"/>
<path d="M47 36h1v1h-1v-1z" fill="rgb(90,156,164)"/>
<path d="M51 36h1v6h-1v-6z" fill="rgb(16,16,16)"/>
<path d="M35 37h1v1h-1v-1z" fill="rgb(255,255,255)"/>
<path d="M36 37h1v2h-1v-2z" fill="rgb(90,156,164)"/>
<path d="M47 37h1v3h-1v-3z" fill="rgb(41,115,131)"/>
<path d="M35 38h1v1h-1v-1z" fill="rgb(131,41,0)"/>
<path d="M45 38h1v3h-1v-3z" fill="rgb(131,41,0)"/>
<path d="M46 38h1v3h-1v-3z" fill="rgb(255,255,255)"/>
<path d="M35 39h1v1h-1v-1z" fill="rgb(16,16,16)"/>
<path d="M43 39h1v1h-1v-1z" fill="rgb(255,255,255)"/>
<path d="M33 40h1v1h-1v-1z" fill="rgb(41,115,131)"/>
<path d="M34 40h2v1h-1v1h-1v-2z" fill="rgb(180,230,238)"/>
<path d="M43 40h1v1h-1v-1z" fill="rgb(131,41,0)"/>
<path d="M33 41h1v1h-1v-1z" fill="rgb(16,16,16)"/>
<path d="M35 41h1v1h-1v-1z" fill="rgb(139,197,205)"/>
<path d="M36 41h1v1h-1v-1z" fill="rgb(90,156,164)"/>
<path d="M38 41h1v1h-1v-1z" fill="rgb(90,156,164)"/>
<path d="M34 42h1v1h-1v-1z" fill="rgb(16,16,16)"/>
<path d="M35 42h1v1h-1v-1z" fill="rgb(41,115,131)"/>
<path d="M46 42h1v1h-1v-1z" fill="rgb(41,115,131)"/>
<path d="M50 42h1v1h-1v-1z" fill="rgb(16,16,16)"/>
<path d="M53 42h1v1h-1v-1z" fill="rgb(90,156,164)"/>
<path d="M54 42h3v1h-3v-1z" fill="rgb(41,115,131)"/>
<path d="M30 43h1v1h-1v-1z" fill="rgb(90,156,164)"/>
<path d="M32 43h1v2h-1v-2z" fill="rgb(90,156,164)"/>
<path d="M35 43h2v1h-1v1h-2v-1h1v-1z" fill="rgb(16,16,16)"/>
<path d="M39 43h1v1h-1v-1z" fill="rgb(90,156,164)"/>
<path d="M40 43h5v1h-5v-1z" fill="rgb(41,115,131)"/>
<path d="M45 43h2v1h-1v1h-2v-1h1v-1z" fill="rgb(131,41,0)"/>
<path d="M50 43h1v1h-1v-1z" fill="rgb(41,115,131)"/>
<path d="M52 43h1v1h-1v-1z" fill="rgb(90,156,164)"/>
<path d="M53 43h2v1h-1v1h-1v2h-1v1h-1v1h-2v-2h1v-2h1v-1h2v-1z" fill="rgb(139,197,205)"/>
<path d="M55 43h2v1h-1v2h-1v-3z" fill="rgb(90,156,164)"/>
<path d="M57 43h1v1h-1v-1z" fill="rgb(16,16,16)"/>
<path d="M30 44h1v1h-1v-1z" fill="rgb(41,115,131)"/>
<path d="M31 44h1v1h2v1h3v2h-5v-1h-2v-2h1v-1z" fill="rgb(139,197,205)"/>
<path d="M33 44h1v1h-1v-1z" fill="rgb(41,115,131)"/>
<path d="M36 44h1v1h-1v-1z" fill="rgb(90,156,164)"/>
<path d="M37 44h2v1h-2v-1z" fill="rgb(16,16,16)"/>
<path d="M39 44h1v1h4v1h-5v-2z" fill="rgb(131,41,0)"/>
<path d="M40 44h4v1h-4v-1z" fill="rgb(205,123,41)"/>
<path d="M49 44h1v1h-1v-1z" fill="rgb(16,16,16)"/>
<path d="M50 44h1v1h-1v-1z" fill="rgb(90,156,164)"/>
<path d="M54 44h1v2h-2v-1h1v-1z" fill="rgb(41,115,131)"/>
<path d="M56 44h1v2h-1v-2z" fill="rgb(16,16,16)"/>
<path d="M29 45h1v1h-1v-1z" fill="rgb(90,156,164)"/>
<path d="M34 45h2v1h-2v-1z" fill="rgb(90,156,164)"/>
<path d="M36 45h1v1h-1v-1z" fill="rgb(16,16,16)"/>
<path d="M37 45h2v1h-2v-1z" fill="rgb(90,156,164)"/>
<path d="M47 45h1v1h-1v-1z" fill="rgb(41,115,131)"/>
<path d="M48 45h1v1h-1v-1z" fill="rgb(16,16,16)"/>
<path d="M49 45h1v1h-1v-1z" fill="rgb(41,115,131)"/>
<path d="M29 46h1v1h-1v-1z" fill="rgb(41,115,131)"/>
<path d="M37 46h1v1h-1v-1z" fill="rgb(16,16,16)"/>
<path d="M38 46h1v1h-1v-1z" fill="rgb(41,115,131)"/>
<path d="M45 46h2v1h-2v-1z" fill="rgb(16,16,16)"/>
<path d="M47 46h1v1h-1v-1z" fill="rgb(205,123,41)"/>
<path d="M48 46h1v1h-1v-1z" fill="rgb(213,205,205)"/>
<path d="M49 46h1v1h-1v-1z" fill="rgb(90,156,164)"/>
<path d="M53 46h2v2h-1v1h-1v1h-1v1h-3v-1h-1v-2h1v1h2v-1h1v-1h1v-1z" fill="rgb(90,156,164)"/>
<path d="M55 46h1v2h-1v-2z" fill="rgb(16,16,16)"/>
<path d="M30 47h1v1h-1v-1z" fill="rgb(41,115,131)"/>
<path d="M31 47h1v1h-1v-1z" fill="rgb(90,156,164)"/>
<path d="M37 47h2v1h-1v1h-1v2h-1v-1h-2v-1h-2v-1h5v-1z" fill="rgb(90,156,164)"/>
<path d="M39 47h1v1h-1v-1z" fill="rgb(41,115,131)"/>
<path d="M40 47h5v1h-5v-1z" fill="rgb(16,16,16)"/>
<path d="M45 47h3v1h-1v1h-3v-1h1v-1z" fill="rgb(230,172,90)"/>
<path d="M48 47h1v1h-1v-1z" fill="rgb(41,115,131)"/>
<path d="M31 48h1v1h-1v-1z" fill="rgb(41,115,131)"/>
<path d="M38 48h1v2h-1v1h-1v-2h1v-1z" fill="rgb(205,123,41)"/>
<path d="M39 48h1v1h-1v-1z" fill="rgb(230,172,90)"/>
<path d="M40 48h4v1h-1v1h-4v-1h1v-1z" fill="rgb(255,213,106)"/>
<path d="M47 48h1v2h-1v-2z" fill="rgb(41,115,131)"/>
<path d="M54 48h1v1h-1v-1z" fill="rgb(16,16,16)"/>
<path d="M32 49h2v1h-2v-1z" fill="rgb(41,115,131)"/>
<path d="M43 49h4v1h-4v-1z" fill="rgb(205,123,41)"/>
<path d="M53 49h1v1h-1v-1z" fill="rgb(16,16,16)"/>
<path d="M54 49h1v1h-1v-1z" fill="rgb(98,41,0)"/>
<path d="M60 49h4v1h-4v-1z" fill="rgb(41,115,131)"/>
<path d="M34 50h2v1h-2v-1z" fill="rgb(16,16,16)"/>
<path d="M38 50h1v2h1v3h-1v-1h-2v-3h1v-1z" fill="rgb(255,230,156)"/>
<path d="M39 50h4v1h-4v-1z" fill="rgb(205,123,41)"/>
<path d="M43 50h1v1h-1v-1z" fill="rgb(230,172,90)"/>
<path d="M44 50h3v2h-1v2h-1v-3h-1v-1z" fill="rgb(255,213,106)"/>
<path d="M47 50h1v2h-1v-2z" fill="rgb(205,123,41)"/>
<path d="M48 50h1v1h-1v-1z" fill="rgb(41,115,131)"/>
<path d="M52 50h1v1h-1v-1z" fill="rgb(16,16,16)"/>
<path d="M53 50h2v4h-1v1h-1v-5z" fill="rgb(189,106,0)"/>
<path d="M55 50h1v3h-1v-3z" fill="rgb(98,41,0)"/>
<path d="M58 50h2v1h-2v-1z" fill="rgb(41,115,131)"/>
<path d="M60 50h3v1h1v1h1v3h-1v-1h-1v-1h-2v1h-2v-1h-1v-1h1v-1h1v-1z" fill="rgb(139,197,205)"/>
<path d="M63 50h1v1h-1v-1z" fill="rgb(90,156,164)"/>
<path d="M64 50h1v1h-1v-1z" fill="rgb(41,115,131)"/>
<path d="M36 51h1v3h1v1h-1v3h-1v-7z" fill="rgb(205,123,41)"/>
<path d="M39 51h1v1h-1v-1z" fill="rgb(255,213,106)"/>
<path d="M40 51h1v3h-1v-3z" fill="rgb(230,172,90)"/>
<path d="M41 51h4v3h-1v1h-3v-4z" fill="rgb(255,230,156)"/>
<path d="M48 51h1v1h1v5h-1v-2h-1v-2h-2v-1h2v-1z" fill="rgb(230,172,90)"/>
<path d="M49 51h3v1h-3v-1z" fill="rgb(16,16,16)"/>
<path d="M52 51h1v5h1v2h-1v-1h-1v-2h-1v-3h1v-1z" fill="rgb(213,205,205)"/>
<path d="M57 51h1v1h-1v-1z" fill="rgb(41,115,131)"/>
<path d="M58 51h1v1h-1v-1z" fill="rgb(90,156,164)"/>
<path d="M64 51h1v1h-1v-1z" fill="rgb(90,156,164)"/>
<path d="M65 51h1v2h-1v-2z" fill="rgb(41,115,131)"/>
<path d="M50 52h1v2h-1v-2z" fill="rgb(98,41,0)"/>
<path d="M56 52h1v1h-1v-1z" fill="rgb(41,115,131)"/>
<path d="M57 52h1v1h1v1h1v1h-1v3h1v1h1v1h-2v1h-4v-2h1v-6h1v-1z" fill="rgb(90,156,164)"/>
<path d="M46 53h1v1h-1v-1z" fill="rgb(205,123,41)"/>
<path d="M47 53h1v2h1v2h-2v-1h-1v-2h1v-1z" fill="rgb(255,213,106)"/>
<path d="M55 53h1v1h-1v-1z" fill="rgb(16,16,16)"/>
<path d="M61 53h2v1h-2v-1z" fill="rgb(41,115,131)"/>
<path d="M65 53h1v3h-1v2h-1v1h-3v-1h-1v-3h1v1h3v-1h1v-2z" fill="rgb(90,156,164)"/>
<path d="M66 53h1v3h-1v-3z" fill="rgb(16,16,16)"/>
<path d="M38 54h1v1h-1v-1z" fill="rgb(255,213,106)"/>
<path d="M40 54h1v1h1v1h-1v1h-1v-1h-1v-1h1v-1z" fill="rgb(205,123,41)"/>
<path d="M44 54h1v1h-1v-1z" fill="rgb(255,213,106)"/>
<path d="M45 54h1v2h-2v-1h1v-1z" fill="rgb(205,123,41)"/>
<path d="M50 54h1v1h-1v-1z" fill="rgb(189,106,0)"/>
<path d="M54 54h1v1h-1v-1z" fill="rgb(16,16,16)"/>
<path d="M55 54h1v2h-1v-2z" fill="rgb(98,41,0)"/>
<path d="M60 54h1v1h-1v-1z" fill="rgb(41,115,131)"/>
<path d="M61 54h2v1h1v1h-3v-2z" fill="rgb(139,197,205)"/>
<path d="M63 54h1v1h-1v-1z" fill="rgb(41,115,131)"/>
<path d="M37 55h1v1h2v2h-2v-1h-1v-2z" fill="rgb(255,230,156)"/>
<path d="M38 55h1v1h-1v-1z" fill="rgb(230,172,90)"/>
<path d="M42 55h2v1h-2v-1z" fill="rgb(230,172,90)"/>
<path d="M50 55h1v2h-1v-2z" fill="rgb(205,123,41)"/>
<path d="M51 55h1v1h-1v-1z" fill="rgb(189,106,0)"/>
<path d="M53 55h1v1h-1v-1z" fill="rgb(213,148,82)"/>
<path d="M54 55h1v3h-1v-3z" fill="rgb(189,106,0)"/>
<path d="M59 55h1v1h-1v-1z" fill="rgb(41,115,131)"/>
<path d="M41 56h3v1h1v2h-3v-1h-1v-2z" fill="rgb(255,230,156)"/>
<path d="M44 56h1v1h-1v-1z" fill="rgb(255,213,106)"/>
<path d="M45 56h1v1h-1v-1z" fill="rgb(230,172,90)"/>
<path d="M46 56h1v1h-1v-1z" fill="rgb(205,123,41)"/>
<path d="M51 56h1v1h-1v-1z" fill="rgb(98,41,0)"/>
<path d="M55 56h1v3h-1v-3z" fill="rgb(16,16,16)"/>
<path d="M59 56h1v2h-1v-2z" fill="rgb(16,16,16)"/>
<path d="M65 56h1v2h-1v-2z" fill="rgb(16,16,16)"/>
<path d="M35 57h1v1h-1v-1z" fill="rgb(90,156,164)"/>
<path d="M37 57h1v1h-1v-1z" fill="rgb(255,213,106)"/>
<path d="M40 57h1v2h-1v-2z" fill="rgb(230,172,90)"/>
<path d="M45 57h1v2h-1v-2z" fill="rgb(255,213,106)"/>
<path d="M46 57h1v1h1v1h-1v2h-3v-1h-2v-1h4v-2z" fill="rgb(230,172,90)"/>
<path d="M47 57h1v1h-1v-1z" fill="rgb(205,123,41)"/>
<path d="M48 57h1v1h-1v-1z" fill="rgb(230,172,90)"/>
<path d="M49 57h2v1h-2v-1z" fill="rgb(90,156,164)"/>
<path d="M51 57h2v1h-2v-1z" fill="rgb(41,115,131)"/>
<path d="M34 58h1v1h-1v-1z" fill="rgb(90,156,164)"/>
<path d="M35 58h2v2h1v2h-1v1h-2v-1h-1v-3h1v-1z" fill="rgb(139,197,205)"/>
<path d="M37 58h1v2h-1v-2z" fill="rgb(205,123,41)"/>
<path d="M38 58h2v1h-2v-1z" fill="rgb(255,213,106)"/>
<path d="M41 58h1v1h-1v-1z" fill="rgb(255,213,106)"/>
<path d="M48 58h1v1h-1v-1z" fill="rgb(90,156,164)"/>
<path d="M49 58h3v1h1v3h-1v1h-3v-1h-1v-3h1v-1z" fill="rgb(139,197,205)"/>
<path d="M52 58h1v1h-1v-1z" fill="rgb(90,156,164)"/>
<path d="M53 58h1v1h-1v-1z" fill="rgb(41,115,131)"/>
<path d="M54 58h1v1h-1v-1z" fill="rgb(213,205,205)"/>
<path d="M60 58h1v1h-1v-1z" fill="rgb(16,16,16)"/>
<path d="M64 58h1v1h-1v-1z" fill="rgb(16,16,16)"/>
<path d="M33 59h1v2h-1v-2z" fill="rgb(90,156,164)"/>
<path d="M38 59h2v1h-2v-1z" fill="rgb(230,172,90)"/>
<path d="M40 59h2v1h-2v-1z" fill="rgb(205,123,41)"/>
<path d="M47 59h1v1h-1v-1z" fill="rgb(90,156,164)"/>
<path d="M53 59h1v3h1v3h1v1h-4v1h-1v-1h-1v-1h-1v-2h3v-1h1v-3z" fill="rgb(90,156,164)"/>
<path d="M54 59h1v1h-1v-1z" fill="rgb(41,115,131)"/>
<path d="M61 59h3v1h-2v1h-3v-1h2v-1z" fill="rgb(16,16,16)"/>
<path d="M38 60h2v1h-2v-1z" fill="rgb(205,123,41)"/>
<path d="M40 60h2v1h2v1h2v1h-4v-1h-2v-2z" fill="rgb(230,172,90)"/>
<path d="M42 60h2v1h-2v-1z" fill="rgb(205,123,41)"/>
<path d="M47 60h1v2h-1v-2z" fill="rgb(41,115,131)"/>
<path d="M54 60h1v1h-1v-1z" fill="rgb(16,16,16)"/>
<path d="M33 61h1v1h-1v-1z" fill="rgb(41,115,131)"/>
<path d="M38 61h1v1h1v1h1v1h-1v1h-1v1h-1v-1h-2v1h-1v-3h2v-1h1v-1z" fill="rgb(90,156,164)"/>
<path d="M39 61h1v1h-1v-1z" fill="rgb(131,41,0)"/>
<path d="M44 61h3v2h-1v-1h-2v-1z" fill="rgb(205,123,41)"/>
<path d="M54 61h1v1h-1v-1z" fill="rgb(41,115,131)"/>
<path d="M55 61h4v1h-3v3h-1v-4z" fill="rgb(16,16,16)"/>
<path d="M33 62h1v1h-1v-1z" fill="rgb(16,16,16)"/>
<path d="M34 62h1v1h-1v-1z" fill="rgb(90,156,164)"/>
<path d="M40 62h2v1h-2v-1z" fill="rgb(131,41,0)"/>
<path d="M47 62h1v2h-4v-1h3v-1z" fill="rgb(16,16,16)"/>
<path d="M48 62h1v1h-1v-1z" fill="rgb(90,156,164)"/>
<path d="M34 63h1v1h-1v-1z" fill="rgb(16,16,16)"/>
<path d="M41 63h1v2h-1v1h-2v-1h1v-1h1v-1z" fill="rgb(16,16,16)"/>
<path d="M42 63h2v1h-2v-1z" fill="rgb(131,41,0)"/>
<path d="M48 63h1v1h-1v-1z" fill="rgb(41,115,131)"/>
<path d="M34 64h1v1h-1v-1z" fill="rgb(41,115,131)"/>
<path d="M48 64h1v1h-1v-1z" fill="rgb(16,16,16)"/>
<path d="M33 65h1v1h-1v-1z" fill="rgb(41,115,131)"/>
<path d="M34 65h1v1h-1v-1z" fill="rgb(139,197,205)"/>
<path d="M36 65h1v1h-1v-1z" fill="rgb(41,115,131)"/>
<path d="M37 65h1v1h-1v-1z" fill="rgb(139,197,205)"/>
<path d="M49 65h1v2h-1v-2z" fill="rgb(16,16,16)"/>
<path d="M56 65h1v2h-2v-1h1v-1z" fill="rgb(16,16,16)"/>
<path d="M34 66h2v1h-2v-1z" fill="rgb(16,16,16)"/>
<path d="M37 66h2v1h-2v-1z" fill="rgb(16,16,16)"/>
<path d="M50 66h1v1h-1v-1z" fill="rgb(139,197,205)"/>
<path d="M52 66h1v1h-1v-1z" fill="rgb(16,16,16)"/>
<path d="M53 66h1v1h-1v-1z" fill="rgb(139,197,205)"/>
<path d="M54 66h1v1h-1v-1z" fill="rgb(41,115,131)"/>
<path d="M50 67h2v1h-2v-1z" fill="rgb(16,16,16)"/>
<path d="M53 67h2v1h-2v-1z" fill="rgb(16,16,16)"/>
</svg>
