<?xml version="1.0" encoding="utf-8"?>
<!-- generated at drububu.com  -->
<!DOCTYPE svg PUBLIC "-//W3C//DTD SVG 1.1//EN" "http://www.w3.org/Graphics/SVG/1.1/DTD/svg11.dtd">
<svg version="1.1" preserveAspectRatio="xMinYMin meet" xmlns="http://www.w3.org/2000/svg" xmlns:xlink="http://www.w3.org/1999/xlink" x="0px" y="0px" width="96px" height="96px" viewBox="0 0 96 96">
<path d="M0 0h96v96h-96v-96z" fill="transparent"/>
<path d="M47 20h5v1h2v2h-1v-1h-2v-1h-4v-1z" fill="rgb(98,74,49)"/>
<path d="M45 21h2v1h-2v-1z" fill="rgb(98,74,49)"/>
<path d="M47 21h4v1h-3v1h-1v1h-1v-1h-1v-1h2v-1z" fill="rgb(164,123,49)"/>
<path d="M44 22h1v1h-1v-1z" fill="rgb(98,74,49)"/>
<path d="M48 22h3v1h-2v1h-1v1h-2v-1h1v-1h1v-1z" fill="rgb(98,74,49)"/>
<path d="M51 22h2v1h-2v-1z" fill="rgb(0,0,0)"/>
<path d="M42 23h3v1h-3v-1z" fill="rgb(164,123,49)"/>
<path d="M45 23h1v1h-1v-1z" fill="rgb(98,74,49)"/>
<path d="M49 23h2v1h-2v-1z" fill="rgb(0,0,0)"/>
<path d="M53 23h1v1h-1v-1z" fill="rgb(0,0,0)"/>
<path d="M54 23h1v1h-1v-1z" fill="rgb(98,74,49)"/>
<path d="M41 24h1v1h-1v-1z" fill="rgb(164,123,49)"/>
<path d="M42 24h4v2h-2v-1h-2v-1z" fill="rgb(255,230,106)"/>
<path d="M48 24h1v2h-1v-2z" fill="rgb(0,0,0)"/>
<path d="M54 24h1v1h-1v-1z" fill="rgb(0,0,0)"/>
<path d="M38 25h6v1h-6v-1z" fill="rgb(98,74,49)"/>
<path d="M46 25h2v1h1v3h-1v-1h-1v-2h-1v-1z" fill="rgb(213,197,82)"/>
<path d="M36 26h2v1h-2v-1z" fill="rgb(164,123,49)"/>
<path d="M38 26h1v1h-1v-1z" fill="rgb(213,197,82)"/>
<path d="M39 26h4v1h1v1h1v2h1v6h-1v2h-1v2h-1v-1h-1v-1h-5v1h-1v1h-1v5h1v1h4v1h-1v1h-1v1
	h-1v1h-2v-1h-1v-1h-1v-1h-1v-1h-2v-1h-4v-1h4v-2h1v-4h-1v-3h1v2h1v1h4v-1h1v-1h2v-6
	h-1v-1h-1v-1h-1v-1h3v-1z" fill="rgb(255,230,106)"/>
<path d="M43 26h1v1h-1v-1z" fill="rgb(213,197,82)"/>
<path d="M44 26h2v1h-2v-1z" fill="rgb(98,74,49)"/>
<path d="M46 26h1v1h-1v-1z" fill="rgb(255,230,106)"/>
<path d="M49 26h1v3h-1v-3z" fill="rgb(0,0,0)"/>
<path d="M17 27h3v1h-3v-1z" fill="rgb(57,156,82)"/>
<path d="M34 27h2v1h-2v-1z" fill="rgb(213,197,82)"/>
<path d="M44 27h2v1h1v1h1v2h1v2h1v3h-1v1h-1v1h-1v1h-1v1h-1v2h-1v3h-1v4h1v2h1v1h1v1h1v1h1
	v1h-1v2h-1v2h-1v1h-1v1h-1v1h-1v1h-2v1h-1v-2h1v-4h-1v-3h-1v-2h-1v-2h-1v-1h1v-1
	h1v-1h1v-1h1v-1h1v-1h1v-1h1v-4h1v-2h1v-2h1v-6h-1v-2h-1v-1z" fill="rgb(213,197,82)"/>
<path d="M46 27h1v1h-1v-1z" fill="rgb(98,74,49)"/>
<path d="M16 28h1v1h-1v-1z" fill="rgb(8,90,49)"/>
<path d="M17 28h3v1h4v1h2v2h-1v1h-1v1h1v1h-1v1h-2v-1h-2v-1h-1v-3h-1v-2h-1v-1z" fill="rgb(156,222,131)"/>
<path d="M20 28h4v1h-4v-1z" fill="rgb(57,156,82)"/>
<path d="M33 28h1v1h-1v-1z" fill="rgb(213,197,82)"/>
<path d="M34 28h3v1h1v1h1v4h-2v3h-1v1h-4v-1h-1v-2h1v-4h3v-2h-1v-1z" fill="rgb(255,246,172)"/>
<path d="M47 28h1v1h-1v-1z" fill="rgb(98,74,49)"/>
<path d="M17 29h1v2h-1v-2z" fill="rgb(8,90,49)"/>
<path d="M24 29h2v1h-2v-1z" fill="rgb(57,156,82)"/>
<path d="M32 29h1v2h-1v-2z" fill="rgb(213,197,82)"/>
<path d="M33 29h2v2h-2v-2z" fill="rgb(106,197,82)"/>
<path d="M48 29h1v2h-1v-2z" fill="rgb(98,74,49)"/>
<path d="M26 30h1v1h-1v-1z" fill="rgb(8,90,49)"/>
<path d="M18 31h1v4h-1v-4z" fill="rgb(8,90,49)"/>
<path d="M26 31h1v1h-1v-1z" fill="rgb(106,197,82)"/>
<path d="M27 31h1v2h-1v-2z" fill="rgb(8,90,49)"/>
<path d="M31 31h1v2h-1v-2z" fill="rgb(213,197,82)"/>
<path d="M49 31h1v2h-1v-2z" fill="rgb(98,74,49)"/>
<path d="M25 32h1v1h-1v-1z" fill="rgb(106,197,82)"/>
<path d="M26 32h1v1h-1v-1z" fill="rgb(156,222,131)"/>
<path d="M58 32h5v1h-5v-1z" fill="rgb(8,90,49)"/>
<path d="M24 33h1v1h-1v-1z" fill="rgb(106,197,82)"/>
<path d="M25 33h1v1h-1v-1z" fill="rgb(156,222,131)"/>
<path d="M26 33h2v2h1v2h-1v1h-1v1h-1v5h-1v1h-1v-1h-3v-1h-1v-2h-1v-7h1v1h2v1h2v-1h1v-1h1
	v-1z" fill="rgb(106,197,82)"/>
<path d="M28 33h1v2h-1v-2z" fill="rgb(8,90,49)"/>
<path d="M30 33h1v1h-1v-1z" fill="rgb(106,197,82)"/>
<path d="M31 33h1v2h-2v-1h1v-1z" fill="rgb(57,156,82)"/>
<path d="M50 33h1v2h-1v-2z" fill="rgb(98,74,49)"/>
<path d="M55 33h3v1h-3v-1z" fill="rgb(57,156,82)"/>
<path d="M58 33h5v2h-1v1h-1v1h-1v1h-1v1h-1v1h-3v1h-3v-1h1v-1h-1v-1h-1v-1h-1v-1h2v-1h3v-1
	h3v-1z" fill="rgb(156,222,131)"/>
<path d="M63 33h3v1h-3v-1z" fill="rgb(8,90,49)"/>
<path d="M26 34h1v1h-1v-1z" fill="rgb(156,222,131)"/>
<path d="M37 34h2v2h-2v-2z" fill="rgb(57,156,82)"/>
<path d="M52 34h3v1h-3v-1z" fill="rgb(57,156,82)"/>
<path d="M63 34h3v1h-2v1h-1v1h-1v1h-1v1h-1v2h-1v3h-1v2h-1v2h-1v1h-1v2h-1v1h-2v1h-5v-1h-1
	v-1h-1v-2h1v1h1v1h5v-1h2v-2h1v-2h1v-1h1v-3h1v-2h1v-2h1v-1h1v-1h1v-1h1v-1z" fill="rgb(57,156,82)"/>
<path d="M66 34h1v1h-1v-1z" fill="rgb(0,0,0)"/>
<path d="M17 35h1v4h-1v-4z" fill="rgb(8,90,49)"/>
<path d="M18 35h1v6h1v2h1v1h3v2h-2v-1h-2v-1h-1v-2h-1v-7z" fill="rgb(57,156,82)"/>
<path d="M29 35h1v2h-1v-2z" fill="rgb(213,197,82)"/>
<path d="M50 35h2v1h-2v-1z" fill="rgb(57,156,82)"/>
<path d="M64 35h2v1h-2v-1z" fill="rgb(0,0,0)"/>
<path d="M49 36h1v1h-1v-1z" fill="rgb(8,90,49)"/>
<path d="M63 36h1v1h-1v-1z" fill="rgb(0,0,0)"/>
<path d="M28 37h2v1h-2v-1z" fill="rgb(164,123,49)"/>
<path d="M48 37h1v1h-1v-1z" fill="rgb(8,90,49)"/>
<path d="M49 37h1v1h-1v-1z" fill="rgb(156,222,131)"/>
<path d="M50 37h1v1h-1v-1z" fill="rgb(106,197,82)"/>
<path d="M62 37h1v1h-1v-1z" fill="rgb(0,0,0)"/>
<path d="M27 38h1v1h-1v-1z" fill="rgb(164,123,49)"/>
<path d="M28 38h2v1h-2v-1z" fill="rgb(255,255,255)"/>
<path d="M30 38h1v2h-1v-2z" fill="rgb(164,123,49)"/>
<path d="M37 38h4v1h-4v-1z" fill="rgb(164,123,49)"/>
<path d="M41 38h1v1h-1v-1z" fill="rgb(213,197,82)"/>
<path d="M47 38h1v1h-1v-1z" fill="rgb(8,90,49)"/>
<path d="M48 38h1v1h-1v-1z" fill="rgb(156,222,131)"/>
<path d="M49 38h1v1h-1v-1z" fill="rgb(106,197,82)"/>
<path d="M50 38h1v1h-1v-1z" fill="rgb(156,222,131)"/>
<path d="M51 38h1v1h-1v-1z" fill="rgb(106,197,82)"/>
<path d="M61 38h1v1h-1v-1z" fill="rgb(0,0,0)"/>
<path d="M17 39h1v3h-1v-3z" fill="rgb(0,0,0)"/>
<path d="M26 39h1v4h-1v-4z" fill="rgb(164,123,49)"/>
<path d="M27 39h1v3h1v1h-2v-4z" fill="rgb(255,255,255)"/>
<path d="M28 39h1v1h-1v-1z" fill="rgb(98,74,49)"/>
<path d="M29 39h1v4h-1v-2h-1v-1h1v-1z" fill="rgb(0,0,0)"/>
<path d="M36 39h1v1h-1v-1z" fill="rgb(164,123,49)"/>
<path d="M37 39h4v1h1v4h-1v1h-4v-1h2v-1h1v-2h-1v-1h-2v-1z" fill="rgb(255,255,255)"/>
<path d="M41 39h1v1h-1v-1z" fill="rgb(164,123,49)"/>
<path d="M42 39h1v1h-1v-1z" fill="rgb(213,197,82)"/>
<path d="M46 39h1v1h-1v-1z" fill="rgb(8,90,49)"/>
<path d="M47 39h2v1h1v-1h1v1h1v1h3v-1h3v2h-1v3h-1v1h-1v2h-1v2h-2v1h-5v-1h-1v-1h-2v-4h1
	v-3h1v-2h1v-1z" fill="rgb(106,197,82)"/>
<path d="M49 39h1v1h-1v-1z" fill="rgb(156,222,131)"/>
<path d="M51 39h1v1h-1v-1z" fill="rgb(156,222,131)"/>
<path d="M52 39h1v1h-1v-1z" fill="rgb(106,197,82)"/>
<path d="M58 39h1v1h-1v-1z" fill="rgb(106,197,82)"/>
<path d="M60 39h1v2h-1v-2z" fill="rgb(0,0,0)"/>
<path d="M30 40h1v2h-1v-2z" fill="rgb(98,74,49)"/>
<path d="M35 40h1v3h-1v-3z" fill="rgb(164,123,49)"/>
<path d="M36 40h1v1h-1v-1z" fill="rgb(255,255,255)"/>
<path d="M37 40h2v1h-2v-1z" fill="rgb(98,74,49)"/>
<path d="M42 40h1v2h-1v-2z" fill="rgb(98,74,49)"/>
<path d="M45 40h1v2h-1v-2z" fill="rgb(8,90,49)"/>
<path d="M28 41h1v1h-1v-1z" fill="rgb(98,74,49)"/>
<path d="M36 41h3v3h-2v-1h-1v-2z" fill="rgb(0,0,0)"/>
<path d="M39 41h1v2h-1v-2z" fill="rgb(98,74,49)"/>
<path d="M59 41h1v3h-1v-3z" fill="rgb(0,0,0)"/>
<path d="M18 42h1v2h-1v-2z" fill="rgb(0,0,0)"/>
<path d="M42 42h1v2h-1v-2z" fill="rgb(0,0,0)"/>
<path d="M44 42h1v3h-1v-3z" fill="rgb(8,90,49)"/>
<path d="M26 43h1v1h-1v-1z" fill="rgb(98,74,49)"/>
<path d="M27 43h1v1h-1v-1z" fill="rgb(164,123,49)"/>
<path d="M28 43h1v1h-1v-1z" fill="rgb(98,74,49)"/>
<path d="M29 43h1v1h-1v-1z" fill="rgb(213,197,82)"/>
<path d="M35 43h1v1h-1v-1z" fill="rgb(98,74,49)"/>
<path d="M36 43h1v1h-1v-1z" fill="rgb(255,255,255)"/>
<path d="M19 44h1v1h-1v-1z" fill="rgb(0,0,0)"/>
<path d="M25 44h1v1h-1v-1z" fill="rgb(98,74,49)"/>
<path d="M35 44h1v1h-1v-1z" fill="rgb(213,197,82)"/>
<path d="M36 44h1v1h-1v-1z" fill="rgb(98,74,49)"/>
<path d="M41 44h1v1h-1v-1z" fill="rgb(0,0,0)"/>
<path d="M58 44h1v2h-1v-2z" fill="rgb(0,0,0)"/>
<path d="M20 45h2v1h-2v-1z" fill="rgb(0,0,0)"/>
<path d="M24 45h1v1h-1v-1z" fill="rgb(98,74,49)"/>
<path d="M25 45h5v1h-5v-1z" fill="rgb(180,65,74)"/>
<path d="M36 45h1v1h-1v-1z" fill="rgb(213,197,82)"/>
<path d="M37 45h1v1h-1v-1z" fill="rgb(98,74,49)"/>
<path d="M38 45h3v1h-3v-1z" fill="rgb(0,0,0)"/>
<path d="M43 45h1v4h-1v-4z" fill="rgb(8,90,49)"/>
<path d="M22 46h1v1h-1v-1z" fill="rgb(0,0,0)"/>
<path d="M23 46h1v1h-1v-1z" fill="rgb(180,65,74)"/>
<path d="M24 46h6v1h2v1h1v1h1v1h1v3h-2v-1h-1v-1h-1v-1h-2v-1h-4v1h-1v1h-1v2h-1v-4h1v-2h1
	v-1z" fill="rgb(238,156,172)"/>
<path d="M30 46h2v1h-2v-1z" fill="rgb(180,65,74)"/>
<path d="M57 46h1v2h-1v-2z" fill="rgb(0,0,0)"/>
<path d="M22 47h1v2h-1v-2z" fill="rgb(180,65,74)"/>
<path d="M32 47h1v1h-1v-1z" fill="rgb(180,65,74)"/>
<path d="M33 48h1v1h-1v-1z" fill="rgb(180,65,74)"/>
<path d="M56 48h1v1h-1v-1z" fill="rgb(0,0,0)"/>
<path d="M21 49h1v4h-1v-4z" fill="rgb(123,41,41)"/>
<path d="M25 49h4v1h-4v-1z" fill="rgb(123,41,41)"/>
<path d="M34 49h1v1h-1v-1z" fill="rgb(180,65,74)"/>
<path d="M44 49h1v2h-1v-2z" fill="rgb(8,90,49)"/>
<path d="M55 49h1v2h-1v-2z" fill="rgb(0,0,0)"/>
<path d="M24 50h1v1h-1v-1z" fill="rgb(123,41,41)"/>
<path d="M25 50h4v4h1v3h1v1h1v2h3v2h-1v1h-1v1h-1v-1h-1v-1h-1v-1h-1v-2h-1v-3h-1v-3h-1v-2
	h-1v-1z" fill="rgb(0,0,0)"/>
<path d="M29 50h2v1h-2v-1z" fill="rgb(123,41,41)"/>
<path d="M35 50h1v1h-1v-1z" fill="rgb(123,41,41)"/>
<path d="M23 51h1v1h-1v-1z" fill="rgb(180,65,74)"/>
<path d="M24 51h1v1h1v2h1v3h1v3h1v2h1v1h-2v-1h-1v1h-1v-4h-1v-2h-1v-2h-1v-3h1v-1z" fill="rgb(205,106,131)"/>
<path d="M25 51h1v1h-1v-1z" fill="rgb(123,41,41)"/>
<path d="M29 51h2v1h1v1h1v2h1v2h1v3h-2v-1h-1v-2h-1v-1h-1v-3h-1v-2z" fill="rgb(180,65,74)"/>
<path d="M31 51h1v1h-1v-1z" fill="rgb(123,41,41)"/>
<path d="M35 51h1v2h1v2h1v3h1v4h-1v3h-1v1h-2v-1h1v-2h-1v-1h1v-5h-1v-2h-1v-2h1v-2z" fill="rgb(205,106,131)"/>
<path d="M36 51h1v2h-1v-2z" fill="rgb(123,41,41)"/>
<path d="M45 51h1v1h-1v-1z" fill="rgb(8,90,49)"/>
<path d="M54 51h1v1h-1v-1z" fill="rgb(0,0,0)"/>
<path d="M32 52h1v1h-1v-1z" fill="rgb(123,41,41)"/>
<path d="M46 52h1v1h-1v-1z" fill="rgb(8,90,49)"/>
<path d="M52 52h2v1h-2v-1z" fill="rgb(0,0,0)"/>
<path d="M22 53h1v2h-1v-2z" fill="rgb(123,41,41)"/>
<path d="M26 53h1v1h-1v-1z" fill="rgb(123,41,41)"/>
<path d="M29 53h1v1h-1v-1z" fill="rgb(123,41,41)"/>
<path d="M33 53h1v2h-1v-2z" fill="rgb(123,41,41)"/>
<path d="M37 53h1v2h-1v-2z" fill="rgb(123,41,41)"/>
<path d="M47 53h5v1h-5v-1z" fill="rgb(0,0,0)"/>
<path d="M48 54h1v1h-1v-1z" fill="rgb(98,74,49)"/>
<path d="M23 55h1v2h-1v-2z" fill="rgb(123,41,41)"/>
<path d="M34 55h1v2h-1v-2z" fill="rgb(123,41,41)"/>
<path d="M38 55h1v3h-1v-3z" fill="rgb(123,41,41)"/>
<path d="M47 55h1v2h-1v-2z" fill="rgb(98,74,49)"/>
<path d="M27 56h1v1h-1v-1z" fill="rgb(123,41,41)"/>
<path d="M30 56h1v1h-1v-1z" fill="rgb(123,41,41)"/>
<path d="M24 57h1v2h-1v-2z" fill="rgb(123,41,41)"/>
<path d="M31 57h1v1h-1v-1z" fill="rgb(123,41,41)"/>
<path d="M35 57h1v5h-1v-5z" fill="rgb(123,41,41)"/>
<path d="M46 57h1v2h-1v-2z" fill="rgb(98,74,49)"/>
<path d="M39 58h1v2h-1v-2z" fill="rgb(123,41,41)"/>
<path d="M25 59h1v4h-1v-4z" fill="rgb(123,41,41)"/>
<path d="M28 59h1v1h-1v-1z" fill="rgb(123,41,41)"/>
<path d="M32 59h1v1h-1v-1z" fill="rgb(123,41,41)"/>
<path d="M45 59h1v1h-1v-1z" fill="rgb(98,74,49)"/>
<path d="M39 60h1v2h-1v-2z" fill="rgb(0,0,0)"/>
<path d="M44 60h1v1h-1v-1z" fill="rgb(98,74,49)"/>
<path d="M29 61h1v1h-1v-1z" fill="rgb(123,41,41)"/>
<path d="M43 61h1v1h-1v-1z" fill="rgb(98,74,49)"/>
<path d="M27 62h1v1h2v1h4v-1h2v2h-1v1h-6v-1h-1v-1h-1v-2z" fill="rgb(238,156,172)"/>
<path d="M30 62h1v1h-1v-1z" fill="rgb(123,41,41)"/>
<path d="M34 62h1v1h-1v-1z" fill="rgb(123,41,41)"/>
<path d="M38 62h1v2h-1v-2z" fill="rgb(123,41,41)"/>
<path d="M42 62h1v1h-1v-1z" fill="rgb(0,0,0)"/>
<path d="M26 63h1v2h-1v-2z" fill="rgb(123,41,41)"/>
<path d="M30 63h1v1h-1v-1z" fill="rgb(205,106,131)"/>
<path d="M31 63h1v1h-1v-1z" fill="rgb(123,41,41)"/>
<path d="M33 63h1v1h-1v-1z" fill="rgb(123,41,41)"/>
<path d="M40 63h2v1h-2v-1z" fill="rgb(0,0,0)"/>
<path d="M27 64h1v1h-1v-1z" fill="rgb(205,106,131)"/>
<path d="M38 64h2v1h-2v-1z" fill="rgb(0,0,0)"/>
<path d="M27 65h1v1h-1v-1z" fill="rgb(123,41,41)"/>
<path d="M28 65h1v1h-1v-1z" fill="rgb(205,106,131)"/>
<path d="M37 65h1v1h-1v-1z" fill="rgb(0,0,0)"/>
<path d="M28 66h2v1h-2v-1z" fill="rgb(0,0,0)"/>
<path d="M30 66h5v1h-5v-1z" fill="rgb(205,106,131)"/>
<path d="M35 66h2v1h-2v-1z" fill="rgb(0,0,0)"/>
<path d="M30 67h5v1h-5v-1z" fill="rgb(0,0,0)"/>
</svg>
