<?xml version="1.0" encoding="utf-8"?>
<!-- generated at drububu.com  -->
<!DOCTYPE svg PUBLIC "-//W3C//DTD SVG 1.1//EN" "http://www.w3.org/Graphics/SVG/1.1/DTD/svg11.dtd">
<svg version="1.1" preserveAspectRatio="xMinYMin meet" xmlns="http://www.w3.org/2000/svg" xmlns:xlink="http://www.w3.org/1999/xlink" x="0px" y="0px" width="96px" height="96px" viewBox="0 0 96 96">
<path d="M0 0h96v96h-96v-96z" fill="transparent"/>
<path d="M35 14h6v1h-6v-1z" fill="rgb(74,164,123)"/>
<path d="M49 14h3v1h2v1h-3v-1h-2v-1z" fill="rgb(98,82,41)"/>
<path d="M52 14h2v1h-2v-1z" fill="rgb(0,0,0)"/>
<path d="M32 15h2v1h-2v-1z" fill="rgb(16,98,57)"/>
<path d="M34 15h1v1h-1v-1z" fill="rgb(74,164,123)"/>
<path d="M35 15h6v1h2v1h1v1h1v2h-1v2h-1v1h-1v2h1v-2h1v-1h1v-1h2v-1h1v-1h2v-1h3v1h1v3h-1
	v1h-1v1h-2v1h-2v1h-2v1h-3v1h-3v-1h-1v-2h-1v-1h-1v-3h1v-1h1v-1h1v-1h-3v-1h-5v-1
	h3v-1z" fill="rgb(139,197,123)"/>
<path d="M41 15h1v1h-1v-1z" fill="rgb(74,164,123)"/>
<path d="M42 15h2v1h-2v-1z" fill="rgb(16,98,57)"/>
<path d="M47 15h2v1h-2v-1z" fill="rgb(98,82,41)"/>
<path d="M49 15h2v1h-1v1h-2v1h-1v1h-1v-2h1v-1h2v-1z" fill="rgb(164,123,49)"/>
<path d="M54 15h2v1h-2v-1z" fill="rgb(0,0,0)"/>
<path d="M30 16h2v1h-2v-1z" fill="rgb(16,98,57)"/>
<path d="M43 16h1v1h-1v-1z" fill="rgb(74,164,123)"/>
<path d="M44 16h1v1h-1v-1z" fill="rgb(16,98,57)"/>
<path d="M46 16h1v1h-1v-1z" fill="rgb(98,82,41)"/>
<path d="M50 16h6v1h-6v-1z" fill="rgb(16,98,57)"/>
<path d="M56 16h1v1h-1v-1z" fill="rgb(0,0,0)"/>
<path d="M29 17h1v1h-1v-1z" fill="rgb(16,98,57)"/>
<path d="M30 17h7v2h-3v-1h-4v-1z" fill="rgb(74,164,123)"/>
<path d="M44 17h1v1h-1v-1z" fill="rgb(74,164,123)"/>
<path d="M45 17h1v3h-1v-3z" fill="rgb(98,82,41)"/>
<path d="M48 17h2v1h-2v-1z" fill="rgb(16,98,57)"/>
<path d="M50 17h6v1h2v1h2v1h1v1h1v1h3v1h-4v-1h-3v-1h-1v3h-1v1h-1v1h-3v1h-3v1h-6v-1h3v-1
	h2v-1h2v-1h2v-1h1v-1h1v-3h-1v-1h-3v-1z" fill="rgb(74,164,123)"/>
<path d="M56 17h2v1h-2v-1z" fill="rgb(16,98,57)"/>
<path d="M30 18h1v1h-1v-1z" fill="rgb(16,98,57)"/>
<path d="M31 18h2v1h-2v-1z" fill="rgb(0,0,0)"/>
<path d="M33 18h1v1h-1v-1z" fill="rgb(16,98,57)"/>
<path d="M37 18h2v1h-2v-1z" fill="rgb(16,98,57)"/>
<path d="M39 18h1v1h-1v-1z" fill="rgb(74,164,123)"/>
<path d="M47 18h1v1h-1v-1z" fill="rgb(0,0,0)"/>
<path d="M48 18h2v1h-2v-1z" fill="rgb(74,164,123)"/>
<path d="M58 18h2v1h-2v-1z" fill="rgb(16,98,57)"/>
<path d="M34 19h3v1h-3v-1z" fill="rgb(0,0,0)"/>
<path d="M37 19h2v1h-1v1h-1v3h1v1h1v2h-1v-1h-1v-1h-2v-1h-1v-3h1v-1h2v-1z" fill="rgb(74,164,123)"/>
<path d="M46 19h1v1h-1v-1z" fill="rgb(0,0,0)"/>
<path d="M47 19h1v1h-1v-1z" fill="rgb(74,164,123)"/>
<path d="M60 19h1v1h-1v-1z" fill="rgb(16,98,57)"/>
<path d="M34 20h1v1h-1v-1z" fill="rgb(16,98,57)"/>
<path d="M44 20h1v1h-1v-1z" fill="rgb(74,164,123)"/>
<path d="M45 20h1v1h-1v-1z" fill="rgb(16,98,57)"/>
<path d="M46 20h1v1h-1v-1z" fill="rgb(74,164,123)"/>
<path d="M61 20h1v1h-1v-1z" fill="rgb(16,98,57)"/>
<path d="M33 21h1v1h-1v-1z" fill="rgb(16,98,57)"/>
<path d="M44 21h1v1h-1v-1z" fill="rgb(16,98,57)"/>
<path d="M57 21h1v1h-1v-1z" fill="rgb(16,98,57)"/>
<path d="M62 21h3v1h-3v-1z" fill="rgb(16,98,57)"/>
<path d="M33 22h1v1h-1v-1z" fill="rgb(0,0,0)"/>
<path d="M43 22h1v1h-1v-1z" fill="rgb(74,164,123)"/>
<path d="M57 22h3v1h-2v1h-1v-2z" fill="rgb(0,0,0)"/>
<path d="M60 22h1v1h-1v-1z" fill="rgb(16,98,57)"/>
<path d="M65 22h1v1h-1v-1z" fill="rgb(16,98,57)"/>
<path d="M33 23h1v1h-1v-1z" fill="rgb(16,98,57)"/>
<path d="M42 23h1v2h-1v-2z" fill="rgb(74,164,123)"/>
<path d="M58 23h2v1h1v1h1v1h1v2h-1v-1h-2v-1h-1v-2h-1v-1z" fill="rgb(98,82,41)"/>
<path d="M60 23h6v1h-4v1h-1v-1h-1v-1z" fill="rgb(0,0,0)"/>
<path d="M34 24h1v1h-1v-1z" fill="rgb(16,98,57)"/>
<path d="M56 24h1v1h-1v-1z" fill="rgb(16,98,57)"/>
<path d="M57 24h1v2h1v1h1v2h1v2h1v7h-1v2h-1v1h-1v1h-1v1h-1v1h-1v1h-1v-4h1v-3h1v-5h1v-3
	h-1v-2h-1v-2h1v-2z" fill="transparent"/>
<path d="M58 24h1v2h-1v-2z" fill="rgb(0,0,0)"/>
<path d="M35 25h2v1h-2v-1z" fill="rgb(16,98,57)"/>
<path d="M55 25h1v1h-1v-1z" fill="rgb(16,98,57)"/>
<path d="M56 25h1v1h-1v-1z" fill="rgb(0,0,0)"/>
<path d="M62 25h1v1h-1v-1z" fill="rgb(0,0,0)"/>
<path d="M37 26h1v1h-1v-1z" fill="rgb(16,98,57)"/>
<path d="M52 26h1v1h-1v-1z" fill="rgb(16,98,57)"/>
<path d="M53 26h3v1h-3v-1z" fill="rgb(0,0,0)"/>
<path d="M59 26h1v1h-1v-1z" fill="rgb(0,0,0)"/>
<path d="M63 26h1v2h-1v-2z" fill="rgb(0,0,0)"/>
<path d="M37 27h1v2h-2v-1h1v-1z" fill="rgb(131,24,0)"/>
<path d="M38 27h1v1h-1v-1z" fill="rgb(16,98,57)"/>
<path d="M39 27h1v1h-1v-1z" fill="rgb(74,164,123)"/>
<path d="M49 27h1v1h-1v-1z" fill="rgb(16,98,57)"/>
<path d="M50 27h3v1h-3v-1z" fill="rgb(0,0,0)"/>
<path d="M53 27h2v1h1v2h1v3h-1v2h-1v2h-2v-1h-1v-1h1v-2h1v-2h-1v-2h-2v-1h2v-1z" fill="rgb(197,90,32)"/>
<path d="M55 27h1v1h-1v-1z" fill="rgb(131,24,0)"/>
<path d="M60 27h1v2h-1v-2z" fill="rgb(0,0,0)"/>
<path d="M61 27h1v1h-1v-1z" fill="rgb(164,123,49)"/>
<path d="M38 28h1v1h1v2h-1v1h-1v2h-2v-1h-1v-2h1v-2h2v-1z" fill="rgb(197,90,32)"/>
<path d="M39 28h1v1h-1v-1z" fill="rgb(16,98,57)"/>
<path d="M40 28h3v1h-3v-1z" fill="rgb(74,164,123)"/>
<path d="M43 28h1v1h-1v-1z" fill="rgb(16,98,57)"/>
<path d="M44 28h6v1h2v1h1v4h-1v2h-1v1h-1v1h-1v-1h-1v-1h-1v-1h2v1h1v-1h1v-2h-1v-1h-4v1h-2
	v1h-1v1h-1v3h4v-2h1v3h-6v-1h-1v-3h-1v1h-1v-3h1v-2h2v-1h-1v-1h4v-1z" fill="rgb(0,0,0)"/>
<path d="M50 28h1v1h-1v-1z" fill="rgb(131,24,0)"/>
<path d="M56 28h1v2h-1v-2z" fill="rgb(131,24,0)"/>
<path d="M61 28h1v1h-1v-1z" fill="rgb(98,82,41)"/>
<path d="M62 28h1v1h1v2h1v8h-1v1h-1v1h-1v-3h1v-7h-1v-3z" fill="rgb(164,123,49)"/>
<path d="M63 28h1v1h-1v-1z" fill="rgb(98,82,41)"/>
<path d="M64 28h1v3h-1v-3z" fill="rgb(0,0,0)"/>
<path d="M35 29h1v2h-1v-2z" fill="rgb(131,24,0)"/>
<path d="M52 29h1v1h-1v-1z" fill="rgb(131,24,0)"/>
<path d="M61 29h1v2h-1v-2z" fill="rgb(0,0,0)"/>
<path d="M40 30h1v1h-1v-1z" fill="rgb(131,24,0)"/>
<path d="M57 30h1v3h-1v-3z" fill="rgb(0,0,0)"/>
<path d="M34 31h1v2h-1v-2z" fill="rgb(131,24,0)"/>
<path d="M53 31h1v2h-1v-2z" fill="rgb(131,24,0)"/>
<path d="M62 31h1v1h-1v-1z" fill="rgb(98,82,41)"/>
<path d="M65 31h1v1h-1v-1z" fill="rgb(98,82,41)"/>
<path d="M38 32h1v1h-1v-1z" fill="rgb(131,24,0)"/>
<path d="M46 32h4v1h1v2h-1v1h-1v-1h-2v1h-1v2h-4v-3h1v-1h1v-1h2v-1z" fill="rgb(98,82,41)"/>
<path d="M62 32h1v6h-1v-6z" fill="rgb(0,0,0)"/>
<path d="M65 32h1v7h-1v-7z" fill="rgb(0,0,0)"/>
<path d="M32 33h1v1h-1v-1z" fill="rgb(74,164,123)"/>
<path d="M33 33h1v4h-1v-4z" fill="rgb(131,24,0)"/>
<path d="M34 33h1v1h-1v-1z" fill="rgb(197,90,32)"/>
<path d="M35 33h1v1h1v3h1v1h1v1h2v1h7v-1h2v-1h1v-1h1v-1h1v1h1v1h-1v1h-1v1h-2v1h-3v1h-6
	v-1h-3v-1h-2v-1h-1v-2h-1v-3h1v-1z" fill="rgb(238,139,82)"/>
<path d="M56 33h1v5h-1v3h-1v-6h1v-2z" fill="rgb(0,0,0)"/>
<path d="M30 34h1v1h-1v-1z" fill="rgb(16,98,57)"/>
<path d="M31 34h1v1h-1v-1z" fill="rgb(74,164,123)"/>
<path d="M32 34h1v2h-1v5h-1v2h-1v2h-1v1h-1v1h-1v-5h-1v5h-2v1h-2v-3h1v-3h1v-2h1v-1h1v-1h2
	v-1h1v-1h1v-1h2v-1z" fill="rgb(139,197,123)"/>
<path d="M37 34h1v3h-1v-3z" fill="rgb(131,24,0)"/>
<path d="M52 34h1v1h-1v-1z" fill="rgb(131,24,0)"/>
<path d="M29 35h1v1h-1v-1z" fill="rgb(16,98,57)"/>
<path d="M39 35h1v2h-1v-2z" fill="rgb(255,255,255)"/>
<path d="M27 36h2v1h-2v-1z" fill="rgb(16,98,57)"/>
<path d="M32 36h1v1h-1v-1z" fill="rgb(16,98,57)"/>
<path d="M38 36h1v1h-1v-1z" fill="rgb(189,197,197)"/>
<path d="M47 36h1v1h1v1h-1v1h-1v-3z" fill="rgb(189,197,197)"/>
<path d="M51 36h1v1h-1v-1z" fill="rgb(131,24,0)"/>
<path d="M26 37h1v1h-1v-1z" fill="rgb(16,98,57)"/>
<path d="M27 37h1v1h-1v-1z" fill="rgb(74,164,123)"/>
<path d="M32 37h1v2h-1v-2z" fill="rgb(0,0,0)"/>
<path d="M33 37h1v2h1v1h1v3h-1v-1h-1v-2h-1v-3z" fill="transparent"/>
<path d="M34 37h1v2h-1v-2z" fill="rgb(131,24,0)"/>
<path d="M38 37h1v1h-1v-1z" fill="rgb(131,24,0)"/>
<path d="M39 37h1v1h-1v-1z" fill="rgb(189,197,197)"/>
<path d="M50 37h1v1h-1v-1z" fill="rgb(131,24,0)"/>
<path d="M54 37h1v2h-1v-2z" fill="rgb(131,24,0)"/>
<path d="M25 38h1v1h-1v-1z" fill="rgb(74,164,123)"/>
<path d="M39 38h2v1h-2v-1z" fill="rgb(131,24,0)"/>
<path d="M48 38h2v1h-2v-1z" fill="rgb(131,24,0)"/>
<path d="M53 38h1v1h-1v-1z" fill="rgb(197,90,32)"/>
<path d="M61 38h1v2h-1v-2z" fill="rgb(0,0,0)"/>
<path d="M24 39h1v1h-1v-1z" fill="rgb(74,164,123)"/>
<path d="M32 39h1v1h-1v-1z" fill="rgb(16,98,57)"/>
<path d="M35 39h1v1h-1v-1z" fill="rgb(131,24,0)"/>
<path d="M41 39h7v1h-7v-1z" fill="rgb(131,24,0)"/>
<path d="M52 39h1v1h-1v-1z" fill="rgb(197,90,32)"/>
<path d="M53 39h1v1h-1v-1z" fill="rgb(131,24,0)"/>
<path d="M54 39h1v2h-1v4h1v1h-1v1h-1v1h-1v2h-1v3h-1v2h-1v5h1v3h-1v4h-2v1h-3v1h-10v-1h-2
	v-1h-1v-1h-1v-1h2v-2h-1v-1h-1v3h-1v-3h-1v-5h1v1h1v1h1v1h1v1h3v1h3v-1h3v-1h2v-1
	h1v-1h3v-1h1v-2h-1v-4h-1v-1h-1v-1h-2v-1h-8v-1h1v-2h2v1h2v-1h1v-1h3v1h1v1h1v1h2
	v-1h1v-1h1v-1h1v-3h2v-1h1v-1z" fill="rgb(222,189,82)"/>
<path d="M64 39h1v2h-1v-2z" fill="rgb(0,0,0)"/>
<path d="M23 40h1v2h-1v-2z" fill="rgb(74,164,123)"/>
<path d="M27 40h1v2h-1v-2z" fill="rgb(74,164,123)"/>
<path d="M32 40h1v2h1v2h2v1h-1v1h-1v2h-1v1h-1v1h-1v1h-1v1h-1v-1h-1v1h1v2h-1v3h-1v-1h-2
	v-1h-1v-2h-1v-3h-1v-2h2v-1h2v1h1v-1h1v-1h1v-1h1v-2h1v-2h1v-1z" fill="rgb(74,164,123)"/>
<path d="M33 40h1v1h-1v-1z" fill="rgb(0,0,0)"/>
<path d="M36 40h2v1h-2v-1z" fill="rgb(131,24,0)"/>
<path d="M50 40h1v1h-1v-1z" fill="rgb(197,90,32)"/>
<path d="M51 40h2v1h-2v-1z" fill="rgb(131,24,0)"/>
<path d="M60 40h1v1h-1v-1z" fill="rgb(0,0,0)"/>
<path d="M61 40h1v1h1v1h-1v1h-2v1h-2v-1h1v-1h1v-1h1v-1z" fill="rgb(98,82,41)"/>
<path d="M63 40h1v1h-1v-1z" fill="rgb(98,82,41)"/>
<path d="M33 41h1v1h-1v-1z" fill="rgb(16,98,57)"/>
<path d="M36 41h1v3h-2v-1h1v-2z" fill="rgb(0,0,0)"/>
<path d="M37 41h1v1h1v1h-2v-2z" fill="rgb(189,197,197)"/>
<path d="M38 41h3v1h-3v-1z" fill="rgb(131,24,0)"/>
<path d="M47 41h1v1h-1v-1z" fill="rgb(197,90,32)"/>
<path d="M48 41h3v1h-3v-1z" fill="rgb(131,24,0)"/>
<path d="M54 41h1v4h-1v-4z" fill="rgb(0,0,0)"/>
<path d="M59 41h1v1h-1v-1z" fill="rgb(0,0,0)"/>
<path d="M63 41h1v1h-1v-1z" fill="rgb(0,0,0)"/>
<path d="M22 42h1v3h-1v-3z" fill="rgb(74,164,123)"/>
<path d="M26 42h1v3h-1v-3z" fill="rgb(74,164,123)"/>
<path d="M34 42h1v1h-1v-1z" fill="rgb(0,0,0)"/>
<path d="M39 42h1v1h-1v-1z" fill="rgb(0,0,0)"/>
<path d="M40 42h1v1h-1v-1z" fill="rgb(98,82,41)"/>
<path d="M41 42h7v1h-7v-1z" fill="rgb(131,24,0)"/>
<path d="M48 42h2v2h-1v-1h-1v-1z" fill="rgb(189,197,197)"/>
<path d="M50 42h1v1h-1v-1z" fill="rgb(98,82,41)"/>
<path d="M58 42h1v1h-1v-1z" fill="rgb(0,0,0)"/>
<path d="M62 42h1v1h-1v-1z" fill="rgb(0,0,0)"/>
<path d="M34 43h1v1h-1v-1z" fill="rgb(16,98,57)"/>
<path d="M37 43h1v1h-1v-1z" fill="rgb(98,82,41)"/>
<path d="M38 43h1v1h1v1h-2v-2z" fill="rgb(255,255,255)"/>
<path d="M39 43h1v1h-1v-1z" fill="rgb(98,82,41)"/>
<path d="M40 43h1v1h-1v-1z" fill="rgb(189,197,197)"/>
<path d="M41 43h3v1h-3v-1z" fill="rgb(98,82,41)"/>
<path d="M44 43h2v1h-2v-1z" fill="rgb(189,197,197)"/>
<path d="M46 43h1v2h-1v-2z" fill="rgb(0,0,0)"/>
<path d="M47 43h1v1h-1v-1z" fill="rgb(189,197,197)"/>
<path d="M48 43h1v2h-1v1h-2v-1h1v-1h1v-1z" fill="rgb(255,255,255)"/>
<path d="M50 43h1v1h-1v-1z" fill="rgb(164,123,49)"/>
<path d="M57 43h1v1h-1v-1z" fill="rgb(0,0,0)"/>
<path d="M60 43h10v1h-10v-1z" fill="rgb(16,98,57)"/>
<path d="M36 44h1v1h-1v-1z" fill="rgb(98,82,41)"/>
<path d="M37 44h1v1h-1v-1z" fill="rgb(0,0,0)"/>
<path d="M40 44h1v1h-1v-1z" fill="rgb(98,82,41)"/>
<path d="M44 44h1v1h-1v-1z" fill="rgb(98,82,41)"/>
<path d="M45 44h1v1h-1v-1z" fill="rgb(255,255,255)"/>
<path d="M49 44h1v1h-1v-1z" fill="rgb(0,0,0)"/>
<path d="M56 44h1v1h-1v-1z" fill="rgb(0,0,0)"/>
<path d="M57 44h3v1h-3v-1z" fill="rgb(16,98,57)"/>
<path d="M60 44h8v1h1v1h-6v1h-4v1h-4v-1h1v-1h1v-1h3v-1z" fill="rgb(139,197,123)"/>
<path d="M68 44h2v1h3v1h-4v-1h-1v-1z" fill="rgb(74,164,123)"/>
<path d="M70 44h3v1h-3v-1z" fill="rgb(0,0,0)"/>
<path d="M21 45h1v3h-1v-3z" fill="rgb(16,98,57)"/>
<path d="M26 45h1v3h-1v-3z" fill="rgb(16,98,57)"/>
<path d="M35 45h1v2h-1v1h-1v-2h1v-1z" fill="rgb(98,82,41)"/>
<path d="M38 45h2v1h-2v-1z" fill="rgb(98,82,41)"/>
<path d="M45 45h1v1h-1v-1z" fill="rgb(98,82,41)"/>
<path d="M48 45h1v1h-1v-1z" fill="rgb(164,123,49)"/>
<path d="M55 45h2v1h-2v-1z" fill="rgb(16,98,57)"/>
<path d="M73 45h2v1h-2v-1z" fill="rgb(0,0,0)"/>
<path d="M46 46h2v1h-2v-1z" fill="rgb(98,82,41)"/>
<path d="M54 46h1v1h-1v-1z" fill="rgb(0,0,0)"/>
<path d="M55 46h1v1h-1v-1z" fill="rgb(74,164,123)"/>
<path d="M63 46h5v1h-5v-1z" fill="rgb(74,164,123)"/>
<path d="M68 46h7v1h-7v-1z" fill="rgb(16,98,57)"/>
<path d="M75 46h1v1h-1v-1z" fill="rgb(0,0,0)"/>
<path d="M53 47h1v1h-1v-1z" fill="rgb(0,0,0)"/>
<path d="M54 47h1v2h-1v1h-1v-2h1v-1z" fill="rgb(74,164,123)"/>
<path d="M59 47h4v1h-4v-1z" fill="rgb(74,164,123)"/>
<path d="M63 47h5v1h-1v2h-1v1h-1v1h-1v2h-1v1h-1v1h-1v1h-2v1h-3v-1h-2v-1h-1v-4h1v-2h2v-1
	h3v-1h4v-1z" fill="rgb(139,197,123)"/>
<path d="M68 47h5v1h-2v1h-1v1h-1v1h-1v3h-1v3h-1v2h-1v2h-2v1h-1v1h-1v1h-2v1h-5v-1h-2v-2
	h-1v-2h-1v-5h1v-2h1v-1h1v4h1v1h2v1h3v-1h2v-1h1v-1h1v-1h1v-2h1v-1h1v-1h1v-2h1v-1z" fill="rgb(74,164,123)"/>
<path d="M73 47h2v1h-2v-1z" fill="rgb(0,0,0)"/>
<path d="M21 48h1v2h-1v-2z" fill="rgb(0,0,0)"/>
<path d="M27 48h1v1h-1v-1z" fill="rgb(16,98,57)"/>
<path d="M33 48h1v1h-1v-1z" fill="rgb(98,82,41)"/>
<path d="M34 48h1v1h-1v-1z" fill="rgb(222,189,82)"/>
<path d="M35 48h2v1h-2v-1z" fill="rgb(238,213,106)"/>
<path d="M37 48h5v1h2v1h2v2h1v2h-2v1h-1v1h-1v2h1v1h-1v1h-2v1h-3v-1h1v-3h-4v1h-1v3h-1v-1
	h-2v-1h-1v-2h-1v-3h1v-1h2v1h2v-2h1v-1h-1v-2h3v-1z" fill="rgb(246,238,148)"/>
<path d="M42 48h1v1h-1v-1z" fill="rgb(238,213,106)"/>
<path d="M52 48h1v2h-1v-2z" fill="rgb(0,0,0)"/>
<path d="M55 48h2v1h-2v-1z" fill="rgb(16,98,57)"/>
<path d="M57 48h2v1h-2v-1z" fill="rgb(74,164,123)"/>
<path d="M71 48h2v1h-2v-1z" fill="rgb(0,0,0)"/>
<path d="M32 49h1v1h-1v-1z" fill="rgb(98,82,41)"/>
<path d="M33 49h1v1h-1v-1z" fill="rgb(238,213,106)"/>
<path d="M44 49h1v1h-1v-1z" fill="rgb(238,213,106)"/>
<path d="M48 49h2v2h-2v-2z" fill="rgb(74,164,123)"/>
<path d="M54 49h1v1h-1v-1z" fill="rgb(16,98,57)"/>
<path d="M55 49h1v1h-1v-1z" fill="rgb(74,164,123)"/>
<path d="M70 49h1v1h-1v-1z" fill="rgb(0,0,0)"/>
<path d="M22 50h1v3h-1v-3z" fill="rgb(0,0,0)"/>
<path d="M31 50h1v1h-1v-1z" fill="rgb(98,82,41)"/>
<path d="M32 50h2v1h1v1h-1v2h-2v-1h-1v-2h1v-1z" fill="rgb(139,197,123)"/>
<path d="M51 50h1v2h-1v-2z" fill="rgb(0,0,0)"/>
<path d="M52 50h1v1h-1v-1z" fill="rgb(74,164,123)"/>
<path d="M53 50h1v1h-1v-1z" fill="rgb(16,98,57)"/>
<path d="M69 50h1v1h-1v-1z" fill="rgb(0,0,0)"/>
<path d="M28 51h1v1h-1v-1z" fill="rgb(16,98,57)"/>
<path d="M30 51h1v1h-1v-1z" fill="rgb(0,0,0)"/>
<path d="M46 51h1v1h-1v-1z" fill="rgb(238,213,106)"/>
<path d="M52 51h1v1h-1v-1z" fill="rgb(16,98,57)"/>
<path d="M53 51h1v1h-1v-1z" fill="rgb(74,164,123)"/>
<path d="M68 51h1v2h-1v-2z" fill="rgb(0,0,0)"/>
<path d="M29 52h2v1h-2v-1z" fill="rgb(98,82,41)"/>
<path d="M51 52h1v1h-1v-1z" fill="rgb(16,98,57)"/>
<path d="M23 53h1v2h-1v-2z" fill="rgb(0,0,0)"/>
<path d="M29 53h1v1h-1v-1z" fill="rgb(0,0,0)"/>
<path d="M50 53h1v2h-1v-2z" fill="rgb(16,98,57)"/>
<path d="M28 54h1v1h-1v-1z" fill="rgb(98,82,41)"/>
<path d="M45 54h2v3h-2v1h-2v-2h1v-1h1v-1z" fill="rgb(139,197,123)"/>
<path d="M67 54h1v3h-1v-3z" fill="rgb(0,0,0)"/>
<path d="M24 55h1v1h-1v-1z" fill="rgb(0,0,0)"/>
<path d="M28 55h1v2h-1v-2z" fill="rgb(0,0,0)"/>
<path d="M47 55h1v2h-1v-2z" fill="rgb(74,164,123)"/>
<path d="M49 55h1v5h-1v-5z" fill="rgb(16,98,57)"/>
<path d="M25 56h2v1h-2v-1z" fill="rgb(0,0,0)"/>
<path d="M27 57h1v5h-1v-5z" fill="rgb(0,0,0)"/>
<path d="M29 57h1v1h-1v-1z" fill="rgb(238,213,106)"/>
<path d="M35 57h4v3h-1v1h-4v-3h1v-1z" fill="rgb(139,197,123)"/>
<path d="M45 57h2v1h-2v-1z" fill="rgb(74,164,123)"/>
<path d="M66 57h1v2h-1v-2z" fill="rgb(0,0,0)"/>
<path d="M65 59h1v2h-1v-2z" fill="rgb(0,0,0)"/>
<path d="M32 60h1v1h-1v-1z" fill="rgb(238,213,106)"/>
<path d="M50 60h1v2h-1v-2z" fill="rgb(16,98,57)"/>
<path d="M35 61h3v1h-3v-1z" fill="rgb(74,164,123)"/>
<path d="M63 61h2v1h-2v-1z" fill="rgb(0,0,0)"/>
<path d="M28 62h1v3h-1v-3z" fill="rgb(0,0,0)"/>
<path d="M30 62h1v1h1v2h-2v-3z" fill="rgb(74,164,123)"/>
<path d="M50 62h1v3h-1v1h-1v-3h1v-1z" fill="rgb(74,164,123)"/>
<path d="M51 62h1v2h2v1h-3v-3z" fill="rgb(0,0,0)"/>
<path d="M62 62h1v1h-1v-1z" fill="rgb(0,0,0)"/>
<path d="M61 63h1v1h-1v-1z" fill="rgb(0,0,0)"/>
<path d="M59 64h2v1h-2v-1z" fill="rgb(0,0,0)"/>
<path d="M29 65h1v1h-1v-1z" fill="rgb(0,0,0)"/>
<path d="M41 65h2v3h-3v-2h1v-1z" fill="rgb(74,164,123)"/>
<path d="M50 65h1v1h-1v-1z" fill="rgb(0,0,0)"/>
<path d="M54 65h5v1h-5v-1z" fill="rgb(0,0,0)"/>
<path d="M28 66h1v1h-1v-1z" fill="rgb(0,0,0)"/>
<path d="M29 66h1v1h1v1h-1v1h-1v2h-2v-3h1v-1h1v-1z" fill="rgb(98,82,41)"/>
<path d="M30 66h1v1h-1v-1z" fill="rgb(0,0,0)"/>
<path d="M49 66h1v1h-1v-1z" fill="rgb(0,0,0)"/>
<path d="M27 67h1v1h-1v-1z" fill="rgb(0,0,0)"/>
<path d="M31 67h1v1h-1v-1z" fill="rgb(0,0,0)"/>
<path d="M47 67h2v1h-2v-1z" fill="rgb(0,0,0)"/>
<path d="M26 68h1v2h-1v-2z" fill="rgb(0,0,0)"/>
<path d="M30 68h1v1h-1v-1z" fill="rgb(0,0,0)"/>
<path d="M32 68h2v1h-2v-1z" fill="rgb(0,0,0)"/>
<path d="M44 68h3v1h-3v-1z" fill="rgb(0,0,0)"/>
<path d="M29 69h1v2h-1v-2z" fill="rgb(0,0,0)"/>
<path d="M34 69h10v1h-10v-1z" fill="rgb(0,0,0)"/>
<path d="M25 70h1v4h-1v-4z" fill="rgb(0,0,0)"/>
<path d="M26 70h1v1h1v2h1v2h1v2h-2v-2h-1v-2h-1v-3z" fill="rgb(164,123,49)"/>
<path d="M28 71h1v2h-1v-2z" fill="rgb(0,0,0)"/>
<path d="M26 73h1v1h-1v-1z" fill="rgb(98,82,41)"/>
<path d="M29 73h1v2h-1v-2z" fill="rgb(98,82,41)"/>
<path d="M26 74h1v2h-1v-2z" fill="rgb(0,0,0)"/>
<path d="M32 74h4v1h-4v-1z" fill="rgb(164,123,49)"/>
<path d="M27 75h1v1h-1v-1z" fill="rgb(98,82,41)"/>
<path d="M30 75h2v1h-1v1h-1v-2z" fill="rgb(98,82,41)"/>
<path d="M32 75h1v1h-1v-1z" fill="rgb(238,213,106)"/>
<path d="M33 75h2v1h1v1h-1v2h-1v1h-2v-1h-1v-2h1v-1h1v-1z" fill="rgb(246,238,148)"/>
<path d="M35 75h1v1h-1v-1z" fill="rgb(238,213,106)"/>
<path d="M36 75h2v1h-2v-1z" fill="rgb(164,123,49)"/>
<path d="M27 76h1v1h-1v-1z" fill="rgb(0,0,0)"/>
<path d="M31 76h1v1h-1v-1z" fill="rgb(222,189,82)"/>
<path d="M36 76h2v1h2v1h1v1h-2v-1h-3v2h2v2h-1v-1h-5v-1h2v-1h1v-2h1v-1z" fill="rgb(238,213,106)"/>
<path d="M38 76h1v1h-1v-1z" fill="rgb(164,123,49)"/>
<path d="M39 76h1v1h-1v-1z" fill="rgb(98,82,41)"/>
<path d="M28 77h1v1h-1v-1z" fill="rgb(0,0,0)"/>
<path d="M29 77h1v2h-1v-2z" fill="rgb(98,82,41)"/>
<path d="M30 77h1v2h-1v-2z" fill="rgb(222,189,82)"/>
<path d="M40 77h1v1h-1v-1z" fill="rgb(98,82,41)"/>
<path d="M36 78h3v1h5v1h3v1h-1v1h-2v1h-2v1h-7v-1h-2v-1h-1v-1h5v1h1v-2h-2v-2z" fill="rgb(222,189,82)"/>
<path d="M41 78h2v1h-2v-1z" fill="rgb(98,82,41)"/>
<path d="M43 78h1v1h-1v-1z" fill="rgb(0,0,0)"/>
<path d="M30 79h1v2h-1v-2z" fill="rgb(98,82,41)"/>
<path d="M31 79h1v1h-1v-1z" fill="rgb(238,213,106)"/>
<path d="M44 79h2v1h-2v-1z" fill="rgb(0,0,0)"/>
<path d="M46 79h1v1h-1v-1z" fill="rgb(98,82,41)"/>
<path d="M31 80h1v1h-1v-1z" fill="rgb(222,189,82)"/>
<path d="M47 80h1v1h-1v-1z" fill="rgb(0,0,0)"/>
<path d="M31 81h1v1h-1v-1z" fill="rgb(98,82,41)"/>
<path d="M46 81h1v1h-1v-1z" fill="rgb(0,0,0)"/>
<path d="M32 82h1v1h-1v-1z" fill="rgb(0,0,0)"/>
<path d="M44 82h2v1h-2v-1z" fill="rgb(0,0,0)"/>
<path d="M33 83h2v1h-2v-1z" fill="rgb(0,0,0)"/>
<path d="M42 83h2v1h-2v-1z" fill="rgb(0,0,0)"/>
<path d="M35 84h7v1h-7v-1z" fill="rgb(0,0,0)"/>
</svg>
