<?xml version="1.0" encoding="utf-8"?>
<!-- generated at drububu.com  -->
<!DOCTYPE svg PUBLIC "-//W3C//DTD SVG 1.1//EN" "http://www.w3.org/Graphics/SVG/1.1/DTD/svg11.dtd">
<svg version="1.1" preserveAspectRatio="xMinYMin meet" xmlns="http://www.w3.org/2000/svg" xmlns:xlink="http://www.w3.org/1999/xlink" x="0px" y="0px" width="96px" height="96px" viewBox="0 0 96 96">
<path d="M0 0h96v96h-96v-96z" fill="transparent"/>
<path d="M40 22h2v1h-2v-1z" fill="rgb(65,148,172)"/>
<path d="M42 22h4v1h-4v-1z" fill="rgb(32,82,131)"/>
<path d="M38 23h2v1h-2v-1z" fill="rgb(65,148,172)"/>
<path d="M40 23h5v1h3v1h-1v1h-2v1h-1v2h-1v-1h-1v-1h-4v1h-1v1h-1v-2h1v-2h1v-1h2v-1z" fill="rgb(106,180,230)"/>
<path d="M45 23h1v1h-1v-1z" fill="rgb(65,148,172)"/>
<path d="M46 23h2v1h-2v-1z" fill="rgb(32,82,131)"/>
<path d="M36 24h1v1h-1v-1z" fill="rgb(65,148,172)"/>
<path d="M37 24h1v1h-1v-1z" fill="rgb(32,82,131)"/>
<path d="M48 24h2v1h-2v-1z" fill="rgb(65,148,172)"/>
<path d="M50 24h1v1h-1v-1z" fill="rgb(32,82,131)"/>
<path d="M36 25h1v1h-1v-1z" fill="rgb(32,82,131)"/>
<path d="M47 25h6v1h-6v-1z" fill="rgb(106,16,16)"/>
<path d="M34 26h1v1h-1v-1z" fill="rgb(106,16,16)"/>
<path d="M35 26h2v1h-1v2h-1v6h-1v4h-1v1h-1v-1h-1v-5h2v-1h1v-6h1v-1z" fill="rgb(180,41,32)"/>
<path d="M45 26h1v1h-1v-1z" fill="rgb(131,213,246)"/>
<path d="M46 26h1v1h-1v-1z" fill="rgb(106,16,16)"/>
<path d="M47 26h6v1h2v1h1v1h-1v1h1v5h-1v2h-1v1h-3v1h-1v-1h-1v-1h-1v-1h-1v-2h-1v-3h1v1h3
	v-1h1v-3h-1v-1h-3v-1z" fill="rgb(180,41,32)"/>
<path d="M53 26h2v1h-2v-1z" fill="rgb(106,16,16)"/>
<path d="M33 27h1v2h-2v-1h1v-1z" fill="rgb(106,16,16)"/>
<path d="M38 27h4v1h1v1h1v-2h1v7h1v2h1v2h-1v-1h-1v-2h-1v-3h-1v2h-2v1h-4v-1h-1v-5h1v-1h1
	v-1z" fill="rgb(131,213,246)"/>
<path d="M45 27h1v1h-1v-1z" fill="rgb(106,16,16)"/>
<path d="M46 27h1v1h-1v-1z" fill="rgb(180,41,32)"/>
<path d="M47 27h1v1h-1v-1z" fill="rgb(255,197,189)"/>
<path d="M48 27h1v1h1v1h1v1h-1v1h-1v1h-1v-1h-1v-1h-1v-1h1v-1h1v-1z" fill="rgb(255,255,255)"/>
<path d="M49 27h1v1h-1v-1z" fill="rgb(255,197,189)"/>
<path d="M55 27h1v1h-1v-1z" fill="rgb(106,16,16)"/>
<path d="M45 28h1v5h-1v-5z" fill="rgb(0,0,0)"/>
<path d="M46 28h1v1h-1v-1z" fill="rgb(255,197,189)"/>
<path d="M50 28h1v1h-1v-1z" fill="rgb(255,197,189)"/>
<path d="M56 28h1v2h-1v-2z" fill="rgb(106,16,16)"/>
<path d="M32 29h1v1h-1v-1z" fill="rgb(180,41,32)"/>
<path d="M33 29h1v1h-1v-1z" fill="rgb(255,82,74)"/>
<path d="M35 29h1v5h1v1h4v-1h2v-2h1v5h1v2h1v1h1v1h1v1h1v1h1v2h-1v1h-1v1h-2v-1h-1v-1h-1v1
	h1v1h-2v1h-3v-2h-1v1h-3v-2h-1v-1h-1v-2h-2v-2h2v-1h1v-10z" fill="rgb(106,180,230)"/>
<path d="M55 29h1v1h-1v-1z" fill="rgb(255,82,74)"/>
<path d="M31 30h1v2h-1v-2z" fill="rgb(255,82,74)"/>
<path d="M32 30h1v1h1v1h-1v1h-1v-3z" fill="rgb(255,255,255)"/>
<path d="M33 30h1v1h-1v-1z" fill="rgb(255,197,189)"/>
<path d="M46 30h1v1h-1v-1z" fill="rgb(255,197,189)"/>
<path d="M50 30h1v1h-1v-1z" fill="rgb(255,197,189)"/>
<path d="M56 30h1v2h1v5h-1v1h-1v1h-5v-1h3v-1h1v-2h1v-5z" fill="rgb(255,82,74)"/>
<path d="M57 30h1v2h-1v-2z" fill="rgb(106,16,16)"/>
<path d="M47 31h1v1h-1v-1z" fill="rgb(255,197,189)"/>
<path d="M49 31h1v1h-1v-1z" fill="rgb(255,197,189)"/>
<path d="M30 32h1v2h-1v-2z" fill="rgb(180,41,32)"/>
<path d="M31 32h1v1h1v1h-2v-2z" fill="rgb(255,197,189)"/>
<path d="M33 32h1v1h-1v-1z" fill="rgb(255,197,189)"/>
<path d="M51 32h2v2h-2v-2z" fill="rgb(255,197,189)"/>
<path d="M58 32h1v1h-1v-1z" fill="rgb(106,16,16)"/>
<path d="M45 33h1v1h-1v-1z" fill="rgb(106,16,16)"/>
<path d="M58 33h1v3h-1v-3z" fill="rgb(0,0,0)"/>
<path d="M30 34h1v2h-1v-2z" fill="rgb(106,16,16)"/>
<path d="M46 34h1v1h-1v-1z" fill="rgb(106,16,16)"/>
<path d="M34 35h1v3h-1v-3z" fill="rgb(32,82,131)"/>
<path d="M44 35h1v2h-1v-2z" fill="rgb(65,148,172)"/>
<path d="M46 35h1v1h-1v-1z" fill="rgb(0,0,0)"/>
<path d="M30 36h1v3h-1v-3z" fill="rgb(0,0,0)"/>
<path d="M47 36h1v1h-1v-1z" fill="rgb(106,16,16)"/>
<path d="M58 36h1v1h-1v-1z" fill="rgb(106,16,16)"/>
<path d="M45 37h1v1h-1v-1z" fill="rgb(65,148,172)"/>
<path d="M47 37h1v1h-1v-1z" fill="rgb(0,0,0)"/>
<path d="M48 37h1v1h-1v-1z" fill="rgb(106,16,16)"/>
<path d="M57 37h1v1h-1v-1z" fill="rgb(180,41,32)"/>
<path d="M58 37h1v3h-1v-1h-1v-1h1v-1z" fill="rgb(0,0,0)"/>
<path d="M34 38h1v1h-1v-1z" fill="rgb(65,148,172)"/>
<path d="M39 38h2v1h-2v-1z" fill="rgb(65,148,172)"/>
<path d="M45 38h1v1h-1v-1z" fill="rgb(32,82,131)"/>
<path d="M46 38h1v1h-1v-1z" fill="rgb(106,180,230)"/>
<path d="M47 38h1v1h-1v-1z" fill="rgb(131,213,246)"/>
<path d="M48 38h1v1h-1v-1z" fill="rgb(0,0,0)"/>
<path d="M49 38h1v1h-1v-1z" fill="rgb(106,16,16)"/>
<path d="M56 38h1v1h-1v-1z" fill="rgb(180,41,32)"/>
<path d="M31 39h1v3h-1v-3z" fill="rgb(0,0,0)"/>
<path d="M33 39h1v1h-1v-1z" fill="rgb(32,82,131)"/>
<path d="M38 39h1v1h-1v-1z" fill="rgb(32,82,131)"/>
<path d="M46 39h1v1h-1v-1z" fill="rgb(32,82,131)"/>
<path d="M47 39h2v1h1v1h-2v-1h-1v-1z" fill="rgb(106,180,230)"/>
<path d="M49 39h2v1h-2v-1z" fill="rgb(0,0,0)"/>
<path d="M51 39h5v1h-5v-1z" fill="rgb(180,41,32)"/>
<path d="M56 39h1v1h-1v-1z" fill="rgb(0,0,0)"/>
<path d="M57 39h1v1h-1v-1z" fill="rgb(65,148,172)"/>
<path d="M37 40h1v3h-1v-3z" fill="rgb(32,82,131)"/>
<path d="M38 40h1v1h-1v-1z" fill="rgb(65,148,172)"/>
<path d="M39 40h3v1h-3v-1z" fill="rgb(106,16,16)"/>
<path d="M47 40h1v1h-1v-1z" fill="rgb(32,82,131)"/>
<path d="M50 40h1v1h-1v-1z" fill="rgb(65,148,172)"/>
<path d="M51 40h4v1h-4v-1z" fill="rgb(0,0,0)"/>
<path d="M55 40h1v1h-1v-1z" fill="rgb(32,82,131)"/>
<path d="M56 40h1v1h-1v-1z" fill="rgb(65,148,172)"/>
<path d="M57 40h1v6h-1v-4h-1v-1h1v-1z" fill="rgb(0,0,0)"/>
<path d="M38 41h1v3h-1v-3z" fill="rgb(106,16,16)"/>
<path d="M39 41h1v1h-1v-1z" fill="rgb(255,255,255)"/>
<path d="M40 41h2v1h-1v1h-1v1h-1v-2h1v-1z" fill="rgb(180,41,32)"/>
<path d="M42 41h1v1h-1v-1z" fill="rgb(106,16,16)"/>
<path d="M48 41h2v1h1v1h5v-1h1v4h-1v2h-1v1h-2v-1h-1v-1h-3v1h-2v-1h1v-1h1v-1h1v-2h-1v-1
	h-1v-1z" fill="rgb(65,148,172)"/>
<path d="M50 41h3v1h-3v-1z" fill="rgb(106,180,230)"/>
<path d="M53 41h3v1h-3v-1z" fill="rgb(65,148,172)"/>
<path d="M32 42h2v2h-1v-1h-1v-1z" fill="rgb(0,0,0)"/>
<path d="M41 42h1v1h-1v-1z" fill="rgb(255,82,74)"/>
<path d="M42 42h1v2h-1v-2z" fill="rgb(0,0,0)"/>
<path d="M51 42h3v1h-3v-1z" fill="rgb(32,82,131)"/>
<path d="M54 42h2v1h-2v-1z" fill="rgb(0,0,0)"/>
<path d="M37 43h1v1h-1v-1z" fill="rgb(65,148,172)"/>
<path d="M40 43h1v1h-1v-1z" fill="rgb(255,82,74)"/>
<path d="M41 43h1v1h-1v-1z" fill="rgb(180,41,32)"/>
<path d="M34 44h1v1h-1v-1z" fill="rgb(32,82,131)"/>
<path d="M38 44h1v1h-1v-1z" fill="rgb(65,148,172)"/>
<path d="M39 44h1v1h-1v-1z" fill="rgb(106,16,16)"/>
<path d="M40 44h2v1h-2v-1z" fill="rgb(0,0,0)"/>
<path d="M35 45h1v1h-1v-1z" fill="rgb(32,82,131)"/>
<path d="M44 45h1v1h-1v-1z" fill="rgb(65,148,172)"/>
<path d="M35 46h1v1h-1v-1z" fill="rgb(0,0,0)"/>
<path d="M39 46h1v1h-1v-1z" fill="rgb(65,148,172)"/>
<path d="M45 46h1v1h-1v-1z" fill="rgb(32,82,131)"/>
<path d="M56 46h1v2h-1v-2z" fill="rgb(0,0,0)"/>
<path d="M57 46h1v1h1v1h1v2h-1v2h-1v-1h-3v-2h1v-1h1v-2z" fill="rgb(65,148,172)"/>
<path d="M58 46h1v1h-1v-1z" fill="rgb(32,82,131)"/>
<path d="M36 47h1v2h-1v-2z" fill="rgb(0,0,0)"/>
<path d="M37 47h2v2h-2v-2z" fill="rgb(65,148,172)"/>
<path d="M39 47h1v1h-1v-1z" fill="rgb(32,82,131)"/>
<path d="M43 47h3v2h-1v1h-1v1h-2v-1h-1v-1h-1v-1h3v-1z" fill="rgb(65,148,172)"/>
<path d="M46 47h1v1h-1v-1z" fill="rgb(32,82,131)"/>
<path d="M49 47h2v1h-2v-1z" fill="rgb(0,0,0)"/>
<path d="M51 47h1v1h-1v-1z" fill="rgb(32,82,131)"/>
<path d="M59 47h1v1h-1v-1z" fill="rgb(32,82,131)"/>
<path d="M60 47h3v1h-3v-1z" fill="rgb(0,0,0)"/>
<path d="M63 47h1v1h-1v-1z" fill="rgb(32,82,131)"/>
<path d="M39 48h1v2h-1v1h-1v-1h-1v-1h2v-1z" fill="rgb(0,0,0)"/>
<path d="M46 48h3v2h-1v-1h-2v-1z" fill="rgb(0,0,0)"/>
<path d="M49 48h2v2h-1v-1h-1v-1z" fill="rgb(213,213,213)"/>
<path d="M51 48h1v1h-1v-1z" fill="rgb(0,0,0)"/>
<path d="M52 48h1v1h-1v-1z" fill="rgb(32,82,131)"/>
<path d="M55 48h1v1h-1v-1z" fill="rgb(0,0,0)"/>
<path d="M60 48h4v1h2v2h-2v1h-1v1h-4v-3h1v-2z" fill="rgb(106,180,230)"/>
<path d="M64 48h2v1h-2v-1z" fill="rgb(32,82,131)"/>
<path d="M40 49h1v1h-1v-1z" fill="rgb(32,82,131)"/>
<path d="M45 49h1v1h-1v-1z" fill="rgb(0,0,0)"/>
<path d="M46 49h2v1h-2v-1z" fill="rgb(213,213,213)"/>
<path d="M49 49h1v1h-1v-1z" fill="rgb(255,255,255)"/>
<path d="M51 49h1v1h-1v-1z" fill="rgb(32,82,131)"/>
<path d="M52 49h1v1h1v1h1v1h-4v1h-2v1h-1v-2h2v-1h1v-1h1v-1z" fill="rgb(65,148,172)"/>
<path d="M53 49h2v2h-1v-1h-1v-1z" fill="rgb(0,0,0)"/>
<path d="M66 49h1v2h-1v-2z" fill="rgb(0,0,0)"/>
<path d="M36 50h1v1h-1v-1z" fill="rgb(32,82,131)"/>
<path d="M37 50h1v3h-1v1h-1v1h-2v-1h-1v-1h1v-1h2v-1h1v-1z" fill="rgb(106,180,230)"/>
<path d="M39 50h1v1h-1v-1z" fill="rgb(213,213,213)"/>
<path d="M40 50h1v1h-1v-1z" fill="rgb(0,0,0)"/>
<path d="M41 50h1v1h-1v-1z" fill="rgb(32,82,131)"/>
<path d="M44 50h1v1h-1v-1z" fill="rgb(0,0,0)"/>
<path d="M45 50h2v1h-2v-1z" fill="rgb(32,82,131)"/>
<path d="M47 50h2v1h-2v-1z" fill="rgb(255,255,255)"/>
<path d="M49 50h1v1h-1v-1z" fill="rgb(213,213,213)"/>
<path d="M50 50h1v1h-1v-1z" fill="rgb(32,82,131)"/>
<path d="M34 51h2v1h-2v-1z" fill="rgb(32,82,131)"/>
<path d="M38 51h2v1h-1v1h-1v-2z" fill="rgb(32,82,131)"/>
<path d="M40 51h2v1h-2v-1z" fill="rgb(213,213,213)"/>
<path d="M42 51h1v1h-1v-1z" fill="rgb(32,82,131)"/>
<path d="M43 51h1v1h-1v-1z" fill="rgb(0,0,0)"/>
<path d="M44 51h3v1h-1v3h-1v-3h-1v-1z" fill="rgb(65,148,172)"/>
<path d="M47 51h3v1h-3v-1z" fill="rgb(32,82,131)"/>
<path d="M55 51h3v1h1v1h2v1h-2v1h-2v-1h-1v-1h-2v1h1v1h2v1h-3v1h-4v-1h-2v-2h1v-1h2v-1h4
	v-1z" fill="rgb(0,0,0)"/>
<path d="M64 51h1v1h-1v-1z" fill="rgb(32,82,131)"/>
<path d="M33 52h1v1h-1v-1z" fill="rgb(32,82,131)"/>
<path d="M39 52h1v2h-1v-2z" fill="rgb(106,180,230)"/>
<path d="M40 52h2v1h-2v-1z" fill="rgb(32,82,131)"/>
<path d="M42 52h2v2h1v2h-1v-1h-1v-1h-1v-2z" fill="rgb(106,180,230)"/>
<path d="M44 52h1v1h-1v-1z" fill="rgb(0,0,0)"/>
<path d="M46 52h2v2h-1v2h-1v-4z" fill="rgb(106,180,230)"/>
<path d="M63 52h1v1h-1v-1z" fill="rgb(32,82,131)"/>
<path d="M32 53h1v1h-1v-1z" fill="rgb(32,82,131)"/>
<path d="M37 53h2v1h4v1h1v1h-1v1h-3v-1h-1v-1h-3v-1h1v-1z" fill="rgb(0,0,0)"/>
<path d="M40 53h2v1h-2v-1z" fill="rgb(65,148,172)"/>
<path d="M44 53h1v1h-1v-1z" fill="rgb(32,82,131)"/>
<path d="M54 53h2v1h1v1h-2v-1h-1v-1z" fill="rgb(82,82,32)"/>
<path d="M61 53h1v1h-1v-1z" fill="rgb(32,82,131)"/>
<path d="M32 54h1v1h-1v-1z" fill="rgb(0,0,0)"/>
<path d="M33 54h1v1h-1v-1z" fill="rgb(65,148,172)"/>
<path d="M47 54h1v2h-1v-2z" fill="rgb(65,148,172)"/>
<path d="M33 55h3v1h-3v-1z" fill="rgb(0,0,0)"/>
<path d="M40 55h1v1h-1v-1z" fill="rgb(82,82,32)"/>
<path d="M45 55h1v3h-1v-3z" fill="rgb(32,82,131)"/>
<path d="M57 55h2v1h-2v-1z" fill="rgb(82,82,32)"/>
<path d="M59 55h2v1h-2v-1z" fill="rgb(0,0,0)"/>
<path d="M38 56h1v1h-1v-1z" fill="rgb(0,0,0)"/>
<path d="M39 56h1v1h-1v-1z" fill="rgb(82,82,32)"/>
<path d="M44 56h1v1h-1v-1z" fill="rgb(0,0,0)"/>
<path d="M46 56h1v1h-1v-1z" fill="rgb(65,148,172)"/>
<path d="M47 56h1v1h-1v-1z" fill="rgb(0,0,0)"/>
<path d="M49 56h1v1h-1v-1z" fill="rgb(32,82,131)"/>
<path d="M54 56h1v1h-1v-1z" fill="rgb(32,82,131)"/>
<path d="M57 56h2v1h-2v-1z" fill="rgb(0,0,0)"/>
<path d="M59 56h2v1h-2v-1z" fill="rgb(131,131,65)"/>
<path d="M61 56h2v1h-2v-1z" fill="rgb(0,0,0)"/>
<path d="M37 57h1v1h-1v-1z" fill="rgb(0,0,0)"/>
<path d="M38 57h1v1h-1v-1z" fill="rgb(82,82,32)"/>
<path d="M39 57h1v1h-1v-1z" fill="rgb(0,0,0)"/>
<path d="M46 57h1v1h-1v-1z" fill="rgb(0,0,0)"/>
<path d="M59 57h2v1h-2v-1z" fill="rgb(0,0,0)"/>
<path d="M61 57h2v1h-2v-1z" fill="rgb(180,172,115)"/>
<path d="M63 57h2v1h-2v-1z" fill="rgb(0,0,0)"/>
<path d="M65 57h1v1h-1v-1z" fill="rgb(82,82,32)"/>
<path d="M35 58h1v1h-1v-1z" fill="rgb(82,82,32)"/>
<path d="M36 58h1v1h-1v-1z" fill="rgb(0,0,0)"/>
<path d="M37 58h1v1h-1v-1z" fill="rgb(131,131,65)"/>
<path d="M38 58h1v1h-1v-1z" fill="rgb(0,0,0)"/>
<path d="M61 58h2v1h-2v-1z" fill="rgb(0,0,0)"/>
<path d="M63 58h3v1h2v1h1v1h1v1h1v2h-1v-1h-1v-1h-1v-1h-1v-1h-2v-1h-2v-1z" fill="rgb(180,172,115)"/>
<path d="M66 58h2v1h-2v-1z" fill="rgb(82,82,32)"/>
<path d="M33 59h2v1h-2v-1z" fill="rgb(82,82,32)"/>
<path d="M35 59h2v1h-2v-1z" fill="rgb(131,131,65)"/>
<path d="M37 59h1v1h-1v-1z" fill="rgb(0,0,0)"/>
<path d="M63 59h2v1h-2v-1z" fill="rgb(0,0,0)"/>
<path d="M68 59h2v1h1v1h1v2h-1v-1h-1v-1h-1v-1h-1v-1z" fill="rgb(82,82,32)"/>
<path d="M30 60h3v1h-3v-1z" fill="rgb(82,82,32)"/>
<path d="M33 60h1v1h-1v-1z" fill="rgb(180,172,115)"/>
<path d="M34 60h1v1h-1v-1z" fill="rgb(131,131,65)"/>
<path d="M35 60h2v1h-2v-1z" fill="rgb(0,0,0)"/>
<path d="M65 60h2v1h-2v-1z" fill="rgb(0,0,0)"/>
<path d="M28 61h2v1h-2v-1z" fill="rgb(82,82,32)"/>
<path d="M30 61h3v1h-2v1h-2v1h-1v-2h2v-1z" fill="rgb(180,172,115)"/>
<path d="M33 61h2v1h-2v-1z" fill="rgb(0,0,0)"/>
<path d="M67 61h1v1h-1v-1z" fill="rgb(0,0,0)"/>
<path d="M27 62h1v1h-1v-1z" fill="rgb(82,82,32)"/>
<path d="M31 62h2v1h-2v-1z" fill="rgb(0,0,0)"/>
<path d="M68 62h1v1h-1v-1z" fill="rgb(0,0,0)"/>
<path d="M26 63h1v1h-1v-1z" fill="rgb(131,131,65)"/>
<path d="M27 63h1v1h-1v-1z" fill="rgb(213,197,148)"/>
<path d="M29 63h2v1h-2v-1z" fill="rgb(0,0,0)"/>
<path d="M69 63h1v1h-1v-1z" fill="rgb(0,0,0)"/>
<path d="M71 63h1v3h-1v1h-1v1h-1v1h-1v1h-2v1h-1v-1h-1v-1h1v-1h2v-1h2v-1h1v-2h1v-1z" fill="rgb(213,197,148)"/>
<path d="M72 63h1v3h-1v-3z" fill="rgb(82,82,32)"/>
<path d="M25 64h1v1h-1v-1z" fill="rgb(131,131,65)"/>
<path d="M26 64h1v1h-1v-1z" fill="rgb(213,197,148)"/>
<path d="M27 64h1v1h-1v-1z" fill="rgb(180,172,115)"/>
<path d="M28 64h1v1h-1v-1z" fill="rgb(0,0,0)"/>
<path d="M69 64h1v1h-1v-1z" fill="rgb(82,82,32)"/>
<path d="M24 65h1v2h-1v-2z" fill="rgb(82,82,32)"/>
<path d="M25 65h1v2h-1v-2z" fill="rgb(213,197,148)"/>
<path d="M26 65h1v1h-1v-1z" fill="rgb(180,172,115)"/>
<path d="M27 65h1v1h-1v-1z" fill="rgb(0,0,0)"/>
<path d="M68 65h1v1h-1v-1z" fill="rgb(82,82,32)"/>
<path d="M69 65h1v1h-1v-1z" fill="rgb(180,172,115)"/>
<path d="M26 66h1v2h-1v-2z" fill="rgb(0,0,0)"/>
<path d="M66 66h2v1h-2v-1z" fill="rgb(131,131,65)"/>
<path d="M68 66h1v1h-1v-1z" fill="rgb(180,172,115)"/>
<path d="M71 66h1v2h-1v-2z" fill="rgb(82,82,32)"/>
<path d="M23 67h1v1h-1v-1z" fill="rgb(82,82,32)"/>
<path d="M24 67h1v2h1v1h1v2h3v1h-1v1h-1v-1h-2v-2h-1v-1h-1v-3z" fill="rgb(213,197,148)"/>
<path d="M25 67h1v1h1v1h-2v-2z" fill="rgb(180,172,115)"/>
<path d="M64 67h1v1h-1v-1z" fill="rgb(82,82,32)"/>
<path d="M65 67h1v1h-1v-1z" fill="rgb(131,131,65)"/>
<path d="M66 67h1v1h-1v-1z" fill="rgb(180,172,115)"/>
<path d="M70 67h1v1h-1v-1z" fill="rgb(180,172,115)"/>
<path d="M23 68h1v2h-1v-2z" fill="rgb(0,0,0)"/>
<path d="M27 68h2v1h-2v-1z" fill="rgb(82,82,32)"/>
<path d="M62 68h2v1h-2v-1z" fill="rgb(82,82,32)"/>
<path d="M64 68h1v1h-1v-1z" fill="rgb(180,172,115)"/>
<path d="M69 68h1v1h-1v-1z" fill="rgb(180,172,115)"/>
<path d="M70 68h1v1h-1v-1z" fill="rgb(82,82,32)"/>
<path d="M26 69h1v1h-1v-1z" fill="rgb(131,131,65)"/>
<path d="M27 69h2v1h2v1h-3v-1h-1v-1z" fill="rgb(180,172,115)"/>
<path d="M29 69h2v1h-2v-1z" fill="rgb(82,82,32)"/>
<path d="M60 69h2v1h-2v-1z" fill="rgb(82,82,32)"/>
<path d="M62 69h2v1h-2v-1z" fill="rgb(180,172,115)"/>
<path d="M68 69h1v1h-1v-1z" fill="rgb(180,172,115)"/>
<path d="M69 69h1v1h-1v-1z" fill="rgb(82,82,32)"/>
<path d="M24 70h1v1h-1v-1z" fill="rgb(82,82,32)"/>
<path d="M27 70h1v1h-1v-1z" fill="rgb(131,131,65)"/>
<path d="M31 70h1v1h-1v-1z" fill="rgb(82,82,32)"/>
<path d="M59 70h1v1h-1v-1z" fill="rgb(82,82,32)"/>
<path d="M60 70h2v1h-2v-1z" fill="rgb(180,172,115)"/>
<path d="M62 70h2v1h-2v-1z" fill="rgb(131,131,65)"/>
<path d="M64 70h1v2h-1v1h-4v-1h2v-1h2v-1z" fill="rgb(180,172,115)"/>
<path d="M66 70h1v1h-1v-1z" fill="rgb(180,172,115)"/>
<path d="M67 70h2v1h-2v-1z" fill="rgb(0,0,0)"/>
<path d="M24 71h1v1h-1v-1z" fill="rgb(0,0,0)"/>
<path d="M25 71h1v1h-1v-1z" fill="rgb(180,172,115)"/>
<path d="M27 71h1v1h-1v-1z" fill="rgb(180,172,115)"/>
<path d="M28 71h3v1h-3v-1z" fill="rgb(82,82,32)"/>
<path d="M31 71h1v3h-1v1h-4v-1h3v-1h1v-2z" fill="rgb(0,0,0)"/>
<path d="M58 71h1v1h-1v-1z" fill="rgb(82,82,32)"/>
<path d="M59 71h1v1h-1v-1z" fill="rgb(180,172,115)"/>
<path d="M60 71h1v1h-1v-1z" fill="rgb(0,0,0)"/>
<path d="M61 71h1v1h-1v-1z" fill="rgb(82,82,32)"/>
<path d="M65 71h1v1h-1v-1z" fill="rgb(131,131,65)"/>
<path d="M66 71h1v1h-1v-1z" fill="rgb(0,0,0)"/>
<path d="M25 72h1v1h-1v-1z" fill="rgb(0,0,0)"/>
<path d="M30 72h1v1h-1v-1z" fill="rgb(131,131,65)"/>
<path d="M58 72h2v1h-1v1h-1v-2z" fill="rgb(0,0,0)"/>
<path d="M64 72h2v1h-2v-1z" fill="rgb(0,0,0)"/>
<path d="M26 73h1v1h-1v-1z" fill="rgb(0,0,0)"/>
<path d="M27 73h1v1h-1v-1z" fill="rgb(180,172,115)"/>
<path d="M29 73h1v1h-1v-1z" fill="rgb(180,172,115)"/>
<path d="M59 73h1v1h-1v-1z" fill="rgb(82,82,32)"/>
<path d="M60 73h2v1h-2v-1z" fill="rgb(131,131,65)"/>
<path d="M62 73h2v1h-2v-1z" fill="rgb(0,0,0)"/>
<path d="M59 74h3v1h-3v-1z" fill="rgb(0,0,0)"/>
</svg>
