<?xml version="1.0" encoding="utf-8"?>
<!-- generated at drububu.com  -->
<!DOCTYPE svg PUBLIC "-//W3C//DTD SVG 1.1//EN" "http://www.w3.org/Graphics/SVG/1.1/DTD/svg11.dtd">
<svg version="1.1" preserveAspectRatio="xMinYMin meet" xmlns="http://www.w3.org/2000/svg" xmlns:xlink="http://www.w3.org/1999/xlink" x="0px" y="0px" width="96px" height="96px" viewBox="0 0 96 96">
<path d="M0 0h96v96h-96v-96z" fill="transparent"/>
<path d="M45 19h6v1h-6v-1z" fill="rgb(32,82,131)"/>
<path d="M43 20h1v1h-1v-1z" fill="rgb(32,82,131)"/>
<path d="M44 20h1v1h-1v-1z" fill="rgb(65,148,172)"/>
<path d="M45 20h1v1h-1v-1z" fill="rgb(106,180,230)"/>
<path d="M46 20h2v1h1v1h-1v1h-1v1h-1v3h-1v1h-3v-1h-1v-1h1v-4h1v-1h3v-1z" fill="rgb(131,205,230)"/>
<path d="M48 20h3v1h-1v1h-1v-1h-1v-1z" fill="rgb(106,180,230)"/>
<path d="M51 20h1v1h-1v-1z" fill="rgb(32,82,131)"/>
<path d="M38 21h4v1h-4v-1z" fill="rgb(16,16,16)"/>
<path d="M42 21h1v1h-1v-1z" fill="rgb(32,82,131)"/>
<path d="M50 21h5v1h-5v-1z" fill="rgb(131,16,16)"/>
<path d="M35 22h1v1h-1v-1z" fill="rgb(131,16,16)"/>
<path d="M36 22h2v1h-2v-1z" fill="rgb(16,16,16)"/>
<path d="M38 22h3v1h-3v-1z" fill="rgb(246,65,82)"/>
<path d="M41 22h1v1h-1v-1z" fill="rgb(32,82,131)"/>
<path d="M48 22h1v1h-1v-1z" fill="rgb(65,148,172)"/>
<path d="M49 22h6v1h-6v-1z" fill="rgb(246,65,82)"/>
<path d="M55 22h2v1h-2v-1z" fill="rgb(131,16,16)"/>
<path d="M34 23h1v1h-1v-1z" fill="rgb(131,16,16)"/>
<path d="M35 23h1v1h-1v-1z" fill="rgb(180,41,32)"/>
<path d="M36 23h1v1h-1v-1z" fill="rgb(246,65,82)"/>
<path d="M37 23h3v1h-1v1h-3v-1h1v-1z" fill="rgb(255,255,255)"/>
<path d="M40 23h1v2h-1v2h-2v1h-2v1h-1v1h-1v4h-1v1h-1v1h-2v-1h-1v-2h1v-1h1v-2h1v-2h1v-1h1
	v-1h1v-1h4v-1h1v-1z" fill="rgb(180,41,32)"/>
<path d="M41 23h1v2h-1v-2z" fill="rgb(65,148,172)"/>
<path d="M47 23h1v1h-1v-1z" fill="rgb(65,148,172)"/>
<path d="M48 23h4v2h1v1h2v1h4v1h1v2h1v2h2v4h-1v1h-1v1h-4v-2h-1v-3h-1v-2h-1v-1h-1v-1h-2
	v-1h-1v-1h-3v-2h1v-2z" fill="rgb(180,41,32)"/>
<path d="M52 23h3v1h-2v1h-1v-2z" fill="rgb(255,189,172)"/>
<path d="M55 23h2v1h-2v-1z" fill="rgb(246,65,82)"/>
<path d="M57 23h1v1h-1v-1z" fill="rgb(131,16,16)"/>
<path d="M33 24h1v1h-1v-1z" fill="rgb(131,16,16)"/>
<path d="M34 24h2v1h-1v1h-1v1h-1v1h-1v-2h1v-1h1v-1z" fill="rgb(246,65,82)"/>
<path d="M46 24h1v1h-1v-1z" fill="rgb(106,180,230)"/>
<path d="M47 24h1v1h-1v-1z" fill="rgb(32,82,131)"/>
<path d="M53 24h3v1h1v1h-3v-1h-1v-1z" fill="rgb(255,255,255)"/>
<path d="M56 24h1v1h-1v-1z" fill="rgb(255,189,172)"/>
<path d="M57 24h1v1h-1v-1z" fill="rgb(246,65,82)"/>
<path d="M58 24h1v1h-1v-1z" fill="rgb(131,16,16)"/>
<path d="M32 25h1v1h-1v-1z" fill="rgb(131,16,16)"/>
<path d="M40 25h1v2h-1v-2z" fill="rgb(32,82,131)"/>
<path d="M41 25h1v1h-1v-1z" fill="rgb(106,180,230)"/>
<path d="M46 25h1v1h-1v-1z" fill="rgb(65,148,172)"/>
<path d="M53 25h1v1h-1v-1z" fill="rgb(255,189,172)"/>
<path d="M57 25h1v2h-3v-1h2v-1z" fill="rgb(255,189,172)"/>
<path d="M58 25h1v1h1v1h1v2h1v3h-1v-2h-1v-2h-1v-1h-1v-2z" fill="rgb(246,65,82)"/>
<path d="M59 25h1v1h-1v-1z" fill="rgb(131,16,16)"/>
<path d="M31 26h1v1h-1v-1z" fill="rgb(180,41,32)"/>
<path d="M46 26h1v3h-1v-3z" fill="rgb(32,82,131)"/>
<path d="M60 26h1v1h-1v-1z" fill="rgb(16,16,16)"/>
<path d="M31 27h1v1h-1v-1z" fill="rgb(131,16,16)"/>
<path d="M38 27h2v2h-1v1h-1v1h-1v1h-1v1h-1v1h-1v-4h1v-1h1v-1h2v-1z" fill="rgb(131,16,16)"/>
<path d="M40 27h1v1h-1v-1z" fill="rgb(65,148,172)"/>
<path d="M41 27h1v1h3v-1h1v3h1v2h1v2h-1v1h-1v1h-1v-1h-1v-1h-4v1h-2v-3h1v-2h1v-2h1v-1z" fill="rgb(106,180,230)"/>
<path d="M47 27h3v1h1v1h2v1h1v1h1v2h1v3h1v2h-2v-1h-2v-1h-1v-1h-1v-1h-1v-1h-1v-2h-1v-1h-1
	v-3z" fill="rgb(131,16,16)"/>
<path d="M61 27h1v2h-1v-2z" fill="rgb(16,16,16)"/>
<path d="M30 28h1v2h-1v-2z" fill="rgb(131,16,16)"/>
<path d="M31 28h1v2h-1v-2z" fill="rgb(246,65,82)"/>
<path d="M39 29h1v1h-1v-1z" fill="rgb(65,148,172)"/>
<path d="M46 29h1v1h-1v-1z" fill="rgb(65,148,172)"/>
<path d="M57 29h2v2h-2v-2z" fill="rgb(255,189,172)"/>
<path d="M62 29h1v2h-1v-2z" fill="rgb(16,16,16)"/>
<path d="M29 30h1v3h-1v-3z" fill="rgb(131,16,16)"/>
<path d="M30 30h1v2h-1v-2z" fill="rgb(246,65,82)"/>
<path d="M38 30h1v1h-1v-1z" fill="rgb(32,82,131)"/>
<path d="M47 30h1v1h-1v-1z" fill="rgb(32,82,131)"/>
<path d="M37 31h1v1h-1v-1z" fill="rgb(16,16,16)"/>
<path d="M38 31h1v1h-1v-1z" fill="rgb(65,148,172)"/>
<path d="M47 31h1v1h-1v-1z" fill="rgb(65,148,172)"/>
<path d="M48 31h1v2h-1v-2z" fill="rgb(32,82,131)"/>
<path d="M62 31h1v1h-1v-1z" fill="rgb(131,16,16)"/>
<path d="M63 31h1v3h-1v-3z" fill="rgb(16,16,16)"/>
<path d="M28 32h1v2h-1v-2z" fill="rgb(32,82,131)"/>
<path d="M36 32h1v1h-1v-1z" fill="rgb(16,16,16)"/>
<path d="M37 32h1v2h-1v-2z" fill="rgb(65,148,172)"/>
<path d="M35 33h1v1h-1v-1z" fill="rgb(16,16,16)"/>
<path d="M36 33h1v1h-1v-1z" fill="rgb(32,82,131)"/>
<path d="M48 33h1v1h-1v-1z" fill="rgb(16,16,16)"/>
<path d="M49 33h1v1h-1v-1z" fill="rgb(32,82,131)"/>
<path d="M64 33h1v1h-1v-1z" fill="rgb(32,82,131)"/>
<path d="M26 34h2v2h-1v-1h-1v-1z" fill="rgb(32,82,131)"/>
<path d="M28 34h1v2h1v1h3v-1h1v-1h2v-1h1v2h1v1h1v2h1v1h1v4h-1v1h-1v1h-1v-2h-1v-2h-1v-1
	h-1v-1h-1v1h-1v1h-1v1h-3v-3h-3v-1h-3v-2h1v-1h2v-1h1v1h1v-2z" fill="rgb(106,180,230)"/>
<path d="M33 34h1v1h-1v-1z" fill="rgb(131,16,16)"/>
<path d="M34 34h1v1h-1v-1z" fill="rgb(32,82,131)"/>
<path d="M35 34h1v1h-1v-1z" fill="rgb(65,148,172)"/>
<path d="M37 34h1v1h-1v-1z" fill="rgb(32,82,131)"/>
<path d="M40 34h4v1h-4v-1z" fill="rgb(131,16,16)"/>
<path d="M47 34h1v1h-1v-1z" fill="rgb(32,82,131)"/>
<path d="M48 34h2v1h1v1h1v1h1v1h2v1h5v1h1v3h-1v1h-4v-1h-1v-1h-2v-1h-4v1h-2v1h-1v1h-1v1
	h-1v-1h-2v-4h2v-1h1v-2h1v-1h1v-1h1v-1z" fill="rgb(106,180,230)"/>
<path d="M50 34h1v1h-1v-1z" fill="rgb(32,82,131)"/>
<path d="M63 34h1v2h-1v-2z" fill="rgb(131,16,16)"/>
<path d="M64 34h1v3h-1v-3z" fill="rgb(106,180,230)"/>
<path d="M65 34h2v1h-1v1h-1v-2z" fill="rgb(32,82,131)"/>
<path d="M24 35h2v1h-2v-1z" fill="rgb(32,82,131)"/>
<path d="M29 35h1v1h-1v-1z" fill="rgb(32,82,131)"/>
<path d="M32 35h1v1h-1v-1z" fill="rgb(32,82,131)"/>
<path d="M33 35h1v1h-1v-1z" fill="rgb(65,148,172)"/>
<path d="M37 35h1v1h-1v-1z" fill="rgb(131,205,230)"/>
<path d="M38 35h1v1h-1v-1z" fill="rgb(32,82,131)"/>
<path d="M39 35h1v1h-1v-1z" fill="rgb(131,16,16)"/>
<path d="M40 35h1v1h-1v-1z" fill="rgb(180,41,32)"/>
<path d="M41 35h1v1h-1v-1z" fill="rgb(255,255,255)"/>
<path d="M42 35h2v4h-2v-1h1v-2h-1v-1z" fill="rgb(180,41,32)"/>
<path d="M44 35h1v1h-1v-1z" fill="rgb(131,16,16)"/>
<path d="M46 35h1v1h-1v-1z" fill="rgb(32,82,131)"/>
<path d="M51 35h1v1h-1v-1z" fill="rgb(32,82,131)"/>
<path d="M66 35h1v1h2v1h1v1h1v2h-3v-1h-2v-1h-1v-1h1v-2z" fill="rgb(106,180,230)"/>
<path d="M67 35h2v1h-2v-1z" fill="rgb(32,82,131)"/>
<path d="M23 36h1v1h-1v-1z" fill="rgb(32,82,131)"/>
<path d="M30 36h2v1h-2v-1z" fill="rgb(32,82,131)"/>
<path d="M32 36h1v1h-1v-1z" fill="rgb(65,148,172)"/>
<path d="M38 36h1v1h-1v-1z" fill="rgb(131,205,230)"/>
<path d="M39 36h1v2h-1v-2z" fill="rgb(16,16,16)"/>
<path d="M40 36h3v2h-1v-1h-2v-1z" fill="rgb(246,65,82)"/>
<path d="M44 36h2v1h-1v1h-1v-2z" fill="rgb(16,16,16)"/>
<path d="M52 36h1v1h-1v-1z" fill="rgb(32,82,131)"/>
<path d="M62 36h1v1h-1v-1z" fill="rgb(131,16,16)"/>
<path d="M63 36h1v1h1v1h1v1h2v1h3v-1h1v2h-1v1h-2v-1h-3v1h-2v1h-1v1h-1v1h-5v-1h3v-1h1v-3
	h-1v-1h1v-1h1v-1h1v-1z" fill="rgb(65,148,172)"/>
<path d="M65 36h1v1h-1v-1z" fill="rgb(65,148,172)"/>
<path d="M69 36h1v1h-1v-1z" fill="rgb(32,82,131)"/>
<path d="M22 37h1v2h-1v-2z" fill="rgb(32,82,131)"/>
<path d="M40 37h2v2h-1v1h-1v-1h-1v-1h1v-1z" fill="rgb(131,16,16)"/>
<path d="M53 37h1v1h-1v-1z" fill="rgb(65,148,172)"/>
<path d="M54 37h1v1h-1v-1z" fill="rgb(32,82,131)"/>
<path d="M61 37h1v1h-1v-1z" fill="rgb(131,16,16)"/>
<path d="M70 37h1v1h-1v-1z" fill="rgb(32,82,131)"/>
<path d="M44 38h1v1h-1v-1z" fill="rgb(131,16,16)"/>
<path d="M55 38h1v1h-1v-1z" fill="rgb(65,148,172)"/>
<path d="M56 38h5v1h-5v-1z" fill="rgb(32,82,131)"/>
<path d="M71 38h1v1h-1v-1z" fill="rgb(32,82,131)"/>
<path d="M23 39h3v1h-3v-1z" fill="rgb(16,16,16)"/>
<path d="M41 39h2v1h-1v1h-1v-2z" fill="rgb(16,16,16)"/>
<path d="M43 39h1v1h-1v-1z" fill="rgb(131,16,16)"/>
<path d="M72 39h1v1h-1v-1z" fill="rgb(32,82,131)"/>
<path d="M26 40h2v1h-2v-1z" fill="rgb(16,16,16)"/>
<path d="M28 40h1v1h-1v-1z" fill="rgb(65,148,172)"/>
<path d="M34 40h1v1h1v1h-2v1h-1v1h-3v-1h2v-1h1v-1h1v-1z" fill="rgb(65,148,172)"/>
<path d="M72 40h1v1h-1v-1z" fill="rgb(16,16,16)"/>
<path d="M28 41h1v2h-1v-2z" fill="rgb(16,16,16)"/>
<path d="M41 41h1v1h-1v-1z" fill="rgb(32,82,131)"/>
<path d="M49 41h4v1h2v1h-6v1h-2v1h-1v1h-2v1h-3v-1h2v-1h2v-1h1v-1h1v-1h2v-1z" fill="rgb(65,148,172)"/>
<path d="M66 41h3v1h-3v-1z" fill="rgb(16,16,16)"/>
<path d="M71 41h1v1h-1v-1z" fill="rgb(16,16,16)"/>
<path d="M34 42h1v4h1v1h1v-1h1v2h1v2h-1v2h-1v-1h-1v-1h-1v-1h-1v-2h-1v-2h-3v-1h3v-1h1v-1z" fill="rgb(16,16,16)"/>
<path d="M35 42h1v1h-1v-1z" fill="rgb(32,82,131)"/>
<path d="M36 42h1v1h-1v-1z" fill="rgb(65,148,172)"/>
<path d="M41 42h1v2h-1v-2z" fill="rgb(65,148,172)"/>
<path d="M64 42h2v1h-2v-1z" fill="rgb(16,16,16)"/>
<path d="M69 42h2v1h-2v-1z" fill="rgb(16,16,16)"/>
<path d="M29 43h1v1h-1v-1z" fill="rgb(16,16,16)"/>
<path d="M35 43h1v2h1v2h-1v-1h-1v-3z" fill="rgb(189,189,189)"/>
<path d="M36 43h1v2h-1v-2z" fill="rgb(32,82,131)"/>
<path d="M49 43h6v1h1v1h1v1h4v1h-2v1h-3v1h-2v1h1v1h-2v-1h-2v1h-1v1h2v1h-3v1h-4v-2h1v-1
	h-1v-1h-1v-1h-1v-2h1v-1h2v-1h1v-1h2v-1z" fill="rgb(16,16,16)"/>
<path d="M55 43h1v1h-1v-1z" fill="rgb(65,148,172)"/>
<path d="M63 43h1v1h-1v-1z" fill="rgb(16,16,16)"/>
<path d="M37 44h1v1h-1v-1z" fill="rgb(65,148,172)"/>
<path d="M40 44h1v1h-1v-1z" fill="rgb(65,148,172)"/>
<path d="M41 44h1v1h-1v-1z" fill="rgb(106,180,230)"/>
<path d="M42 44h2v1h-1v1h-2v-1h1v-1z" fill="rgb(131,205,230)"/>
<path d="M50 44h3v2h-1v-1h-2v-1z" fill="rgb(189,189,189)"/>
<path d="M56 44h1v1h-1v-1z" fill="rgb(32,82,131)"/>
<path d="M62 44h1v1h-1v-1z" fill="rgb(16,16,16)"/>
<path d="M37 45h1v1h-1v-1z" fill="rgb(32,82,131)"/>
<path d="M39 45h1v1h-1v-1z" fill="rgb(131,205,230)"/>
<path d="M40 45h1v2h2v2h-1v-1h-3v-1h1v-2z" fill="rgb(32,82,131)"/>
<path d="M48 45h1v1h-1v-1z" fill="rgb(189,189,189)"/>
<path d="M50 45h2v1h-1v1h-1v-2z" fill="rgb(255,255,255)"/>
<path d="M57 45h4v1h-4v-1z" fill="rgb(32,82,131)"/>
<path d="M61 45h1v1h-1v-1z" fill="rgb(16,16,16)"/>
<path d="M38 46h2v1h-2v-1z" fill="rgb(65,148,172)"/>
<path d="M46 46h1v1h-1v-1z" fill="rgb(189,189,189)"/>
<path d="M47 46h2v1h-2v-1z" fill="rgb(255,255,255)"/>
<path d="M51 46h1v1h-1v-1z" fill="rgb(189,189,189)"/>
<path d="M32 47h2v1h-2v-1z" fill="rgb(82,82,90)"/>
<path d="M38 47h1v1h-1v-1z" fill="rgb(189,189,189)"/>
<path d="M47 47h3v1h-3v-1z" fill="rgb(189,189,189)"/>
<path d="M30 48h2v1h-2v-1z" fill="rgb(82,82,90)"/>
<path d="M32 48h2v1h-1v1h-2v-1h1v-1z" fill="rgb(115,106,123)"/>
<path d="M39 48h3v1h1v1h2v3h-1v1h-1v2h-1v2h-1v4h-1v3h1v4h1v3h1v3h-1v-1h-1v-1h-1v-1h-1v-2
	h-1v-1h1v-4h-1v-8h1v-2h1v-2h1v-3h-1v-1h-1v-1z" fill="rgb(65,148,172)"/>
<path d="M56 48h3v1h-3v-1z" fill="rgb(115,106,123)"/>
<path d="M59 48h3v1h-3v-1z" fill="rgb(16,16,16)"/>
<path d="M29 49h1v1h-1v-1z" fill="rgb(82,82,90)"/>
<path d="M30 49h1v2h-2v-1h1v-1z" fill="rgb(156,148,164)"/>
<path d="M33 49h2v1h-2v-1z" fill="rgb(82,82,90)"/>
<path d="M39 49h1v1h1v3h-1v2h-1v2h-1v1h-3v-1h1v-2h1v-1h1v-3h1v-2z" fill="rgb(131,205,230)"/>
<path d="M43 49h1v1h-1v-1z" fill="rgb(32,82,131)"/>
<path d="M54 49h2v1h2v1h1v1h-3v-1h-1v-1h-1v-1z" fill="rgb(115,106,123)"/>
<path d="M56 49h2v1h-2v-1z" fill="rgb(16,16,16)"/>
<path d="M58 49h1v1h-1v-1z" fill="rgb(82,82,90)"/>
<path d="M59 49h2v1h-2v-1z" fill="rgb(156,148,164)"/>
<path d="M61 49h1v1h-1v-1z" fill="rgb(115,106,123)"/>
<path d="M62 49h2v1h-2v-1z" fill="rgb(16,16,16)"/>
<path d="M28 50h1v1h7v1h-1v2h-2v1h-13v-1h1v-1h2v1h5v-1h6v-1h-8v-1h2v-1z" fill="rgb(82,82,90)"/>
<path d="M31 50h2v1h-2v-1z" fill="rgb(16,16,16)"/>
<path d="M33 50h3v1h-3v-1z" fill="transparent"/>
<path d="M38 50h1v1h-1v-1z" fill="rgb(32,82,131)"/>
<path d="M51 50h2v1h2v1h1v1h1v1h-3v-1h-2v-1h-2v-1h1v-1z" fill="rgb(115,106,123)"/>
<path d="M58 50h1v1h-1v-1z" fill="rgb(16,16,16)"/>
<path d="M59 50h2v1h-2v-1z" fill="rgb(82,82,90)"/>
<path d="M61 50h2v1h1v1h1v1h1v1h1v1h1v2h1v2h1v1h-1v3h-1v-3h-1v-2h-1v-2h-1v-2h-1v-1h-1v-1
	h-1v-1h-1v-1z" fill="rgb(156,148,164)"/>
<path d="M63 50h1v1h-1v-1z" fill="rgb(115,106,123)"/>
<path d="M64 50h1v1h-1v-1z" fill="rgb(16,16,16)"/>
<path d="M36 51h1v3h-1v1h-1v1h-1v1h-2v-1h1v-1h1v-1h1v-2h1v-1z" fill="rgb(156,148,164)"/>
<path d="M45 51h1v1h-1v-1z" fill="rgb(32,82,131)"/>
<path d="M55 51h1v1h-1v-1z" fill="rgb(16,16,16)"/>
<path d="M59 51h1v1h-1v-1z" fill="rgb(16,16,16)"/>
<path d="M60 51h1v1h-1v-1z" fill="transparent"/>
<path d="M61 51h1v1h-1v-1z" fill="rgb(82,82,90)"/>
<path d="M64 51h1v1h-1v-1z" fill="rgb(115,106,123)"/>
<path d="M65 51h1v1h-1v-1z" fill="rgb(16,16,16)"/>
<path d="M23 52h3v1h-3v-1z" fill="rgb(82,82,90)"/>
<path d="M26 52h8v1h-8v-1z" fill="rgb(156,148,164)"/>
<path d="M37 52h1v2h-1v-2z" fill="rgb(32,82,131)"/>
<path d="M56 52h1v1h-1v-1z" fill="rgb(16,16,16)"/>
<path d="M57 52h1v1h-1v-1z" fill="rgb(82,82,90)"/>
<path d="M58 52h2v1h1v1h1v1h1v2h1v11h-1v2h-1v1h-1v-3h1v-2h1v-7h-1v-3h-1v-1h-1v-1h-1v-1
	h-1v-1z" fill="rgb(156,148,164)"/>
<path d="M60 52h1v1h-1v-1z" fill="rgb(16,16,16)"/>
<path d="M61 52h1v1h-1v-1z" fill="transparent"/>
<path d="M62 52h1v1h-1v-1z" fill="rgb(82,82,90)"/>
<path d="M65 52h1v1h-1v-1z" fill="rgb(115,106,123)"/>
<path d="M66 52h1v1h-1v-1z" fill="rgb(16,16,16)"/>
<path d="M23 53h3v1h-3v-1z" fill="rgb(156,148,164)"/>
<path d="M26 53h2v1h-2v-1z" fill="rgb(115,106,123)"/>
<path d="M44 53h1v1h-1v-1z" fill="rgb(32,82,131)"/>
<path d="M49 53h2v1h-1v1h-1v1h-1v1h-2v1h-2v1h-2v-1h1v-2h1v-2h5v-1z" fill="transparent"/>
<path d="M51 53h1v1h-1v-1z" fill="rgb(82,82,90)"/>
<path d="M52 53h2v1h-2v-1z" fill="rgb(16,16,16)"/>
<path d="M57 53h1v1h-1v-1z" fill="rgb(16,16,16)"/>
<path d="M58 53h1v1h-1v-1z" fill="rgb(82,82,90)"/>
<path d="M61 53h1v1h-1v-1z" fill="rgb(16,16,16)"/>
<path d="M62 53h1v1h-1v-1z" fill="transparent"/>
<path d="M63 53h1v1h-1v-1z" fill="rgb(82,82,90)"/>
<path d="M66 53h1v1h-1v-1z" fill="rgb(115,106,123)"/>
<path d="M67 53h1v1h-1v-1z" fill="rgb(16,16,16)"/>
<path d="M33 54h1v1h-1v-1z" fill="rgb(16,16,16)"/>
<path d="M36 54h1v1h-1v-1z" fill="rgb(32,82,131)"/>
<path d="M43 54h1v1h-1v-1z" fill="rgb(32,82,131)"/>
<path d="M50 54h1v1h-1v-1z" fill="rgb(82,82,90)"/>
<path d="M51 54h1v1h-1v-1z" fill="rgb(115,106,123)"/>
<path d="M52 54h1v1h-1v-1z" fill="rgb(82,82,90)"/>
<path d="M53 54h1v1h-1v-1z" fill="rgb(115,106,123)"/>
<path d="M54 54h1v1h-1v-1z" fill="rgb(16,16,16)"/>
<path d="M55 54h2v2h-1v-1h-1v-1z" fill="rgb(156,148,164)"/>
<path d="M57 54h1v2h-1v-2z" fill="rgb(115,106,123)"/>
<path d="M58 54h1v2h-1v-2z" fill="rgb(16,16,16)"/>
<path d="M59 54h1v1h-1v-1z" fill="rgb(82,82,90)"/>
<path d="M62 54h1v1h-1v-1z" fill="rgb(16,16,16)"/>
<path d="M63 54h1v1h-1v-1z" fill="transparent"/>
<path d="M64 54h1v2h-1v-2z" fill="rgb(82,82,90)"/>
<path d="M67 54h1v1h-1v-1z" fill="rgb(115,106,123)"/>
<path d="M68 54h1v2h-1v-2z" fill="rgb(16,16,16)"/>
<path d="M16 55h4v1h-4v-1z" fill="rgb(82,82,90)"/>
<path d="M20 55h12v1h-1v1h-1v-1h-10v-1z" fill="rgb(156,148,164)"/>
<path d="M32 55h1v1h-1v-1z" fill="rgb(16,16,16)"/>
<path d="M35 55h1v2h-1v-2z" fill="rgb(32,82,131)"/>
<path d="M43 55h1v1h-1v-1z" fill="rgb(16,16,16)"/>
<path d="M49 55h1v1h-1v-1z" fill="rgb(82,82,90)"/>
<path d="M50 55h1v1h-1v-1z" fill="rgb(115,106,123)"/>
<path d="M51 55h1v1h-1v-1z" fill="rgb(82,82,90)"/>
<path d="M52 55h1v2h-1v1h-1v1h-1v1h-1v1h-2v1h-2v1h-4v-1h3v-1h2v-1h2v-1h1v-1h1v-1h1v-1h1
	v-1z" fill="rgb(115,106,123)"/>
<path d="M53 55h1v2h-1v-2z" fill="rgb(16,16,16)"/>
<path d="M54 55h1v1h1v2h-1v1h-1v1h-1v-3h1v-2z" fill="rgb(65,148,172)"/>
<path d="M55 55h1v1h-1v-1z" fill="rgb(16,16,16)"/>
<path d="M59 55h1v1h-1v-1z" fill="transparent"/>
<path d="M60 55h1v1h-1v-1z" fill="rgb(82,82,90)"/>
<path d="M63 55h1v2h-1v-2z" fill="rgb(16,16,16)"/>
<path d="M14 56h2v1h-2v-1z" fill="rgb(82,82,90)"/>
<path d="M16 56h2v1h-2v-1z" fill="rgb(189,189,189)"/>
<path d="M18 56h2v1h-2v-1z" fill="rgb(156,148,164)"/>
<path d="M20 56h3v1h-3v-1z" fill="rgb(115,106,123)"/>
<path d="M23 56h7v1h-7v-1z" fill="rgb(82,82,90)"/>
<path d="M31 56h1v1h-1v-1z" fill="rgb(16,16,16)"/>
<path d="M34 56h1v1h-1v-1z" fill="rgb(115,106,123)"/>
<path d="M42 56h1v1h-1v-1z" fill="rgb(32,82,131)"/>
<path d="M48 56h1v1h-1v-1z" fill="rgb(82,82,90)"/>
<path d="M49 56h1v1h-1v-1z" fill="rgb(115,106,123)"/>
<path d="M50 56h1v1h-1v-1z" fill="rgb(82,82,90)"/>
<path d="M56 56h1v2h-1v-2z" fill="rgb(16,16,16)"/>
<path d="M57 56h1v1h1v3h-1v-2h-1v-2z" fill="rgb(156,148,164)"/>
<path d="M58 56h1v1h-1v-1z" fill="rgb(115,106,123)"/>
<path d="M59 56h1v1h-1v-1z" fill="rgb(16,16,16)"/>
<path d="M60 56h1v1h-1v-1z" fill="transparent"/>
<path d="M61 56h1v3h-1v-3z" fill="rgb(82,82,90)"/>
<path d="M64 56h1v1h-1v-1z" fill="transparent"/>
<path d="M65 56h1v2h-1v-2z" fill="rgb(82,82,90)"/>
<path d="M68 56h1v1h-1v-1z" fill="rgb(115,106,123)"/>
<path d="M69 56h1v2h-1v-2z" fill="rgb(16,16,16)"/>
<path d="M13 57h1v2h-1v-2z" fill="rgb(82,82,90)"/>
<path d="M14 57h5v1h-2v1h-3v-2z" fill="rgb(115,106,123)"/>
<path d="M19 57h4v1h-4v-1z" fill="rgb(82,82,90)"/>
<path d="M29 57h2v1h-2v-1z" fill="rgb(16,16,16)"/>
<path d="M31 57h1v1h-1v-1z" fill="rgb(156,148,164)"/>
<path d="M32 57h2v1h-2v-1z" fill="rgb(115,106,123)"/>
<path d="M34 57h1v5h-1v-5z" fill="rgb(32,82,131)"/>
<path d="M42 57h1v1h-1v-1z" fill="rgb(16,16,16)"/>
<path d="M46 57h2v1h-2v-1z" fill="rgb(82,82,90)"/>
<path d="M48 57h1v1h-1v-1z" fill="rgb(115,106,123)"/>
<path d="M49 57h1v1h-1v-1z" fill="rgb(82,82,90)"/>
<path d="M52 57h1v1h-1v-1z" fill="rgb(16,16,16)"/>
<path d="M59 57h1v3h-1v-3z" fill="rgb(115,106,123)"/>
<path d="M60 57h1v3h-1v-3z" fill="rgb(16,16,16)"/>
<path d="M64 57h1v3h-1v-3z" fill="rgb(16,16,16)"/>
<path d="M17 58h2v1h-2v-1z" fill="rgb(82,82,90)"/>
<path d="M20 58h2v1h-2v-1z" fill="rgb(16,16,16)"/>
<path d="M28 58h1v1h-1v-1z" fill="rgb(16,16,16)"/>
<path d="M29 58h2v1h-1v1h-2v-1h1v-1z" fill="rgb(156,148,164)"/>
<path d="M31 58h1v1h-1v-1z" fill="rgb(115,106,123)"/>
<path d="M32 58h2v1h-2v-1z" fill="rgb(16,16,16)"/>
<path d="M35 58h3v7h1v4h-1v-1h-1v-2h-1v-2h-1v-6z" fill="rgb(106,180,230)"/>
<path d="M41 58h1v1h-1v-1z" fill="rgb(32,82,131)"/>
<path d="M44 58h2v1h-2v-1z" fill="rgb(82,82,90)"/>
<path d="M46 58h2v1h-2v-1z" fill="rgb(115,106,123)"/>
<path d="M48 58h1v1h-1v-1z" fill="rgb(82,82,90)"/>
<path d="M51 58h1v1h-1v-1z" fill="rgb(16,16,16)"/>
<path d="M52 58h1v3h-1v-3z" fill="rgb(32,82,131)"/>
<path d="M55 58h1v1h-1v-1z" fill="rgb(82,82,90)"/>
<path d="M56 58h1v2h-1v1h-1v1h-1v1h-2v1h-6v-1h5v-1h2v-1h1v-1h1v-1h1v-1z" fill="rgb(115,106,123)"/>
<path d="M57 58h1v2h-1v-2z" fill="rgb(16,16,16)"/>
<path d="M65 58h1v2h-1v-2z" fill="transparent"/>
<path d="M66 58h1v2h-1v-2z" fill="rgb(82,82,90)"/>
<path d="M69 58h1v1h-1v-1z" fill="rgb(115,106,123)"/>
<path d="M70 58h1v3h-1v-3z" fill="rgb(16,16,16)"/>
<path d="M14 59h3v1h-3v-1z" fill="rgb(82,82,90)"/>
<path d="M26 59h2v1h-2v-1z" fill="rgb(16,16,16)"/>
<path d="M30 59h1v1h-1v-1z" fill="rgb(115,106,123)"/>
<path d="M31 59h1v1h-1v-1z" fill="rgb(16,16,16)"/>
<path d="M41 59h1v3h-1v-3z" fill="rgb(16,16,16)"/>
<path d="M42 59h2v1h-2v-1z" fill="rgb(82,82,90)"/>
<path d="M44 59h2v1h-2v-1z" fill="rgb(115,106,123)"/>
<path d="M46 59h2v1h-2v-1z" fill="rgb(82,82,90)"/>
<path d="M50 59h1v1h-1v-1z" fill="rgb(16,16,16)"/>
<path d="M51 59h1v2h-1v1h-2v-1h1v-1h1v-1z" fill="transparent"/>
<path d="M54 59h1v1h-1v-1z" fill="rgb(82,82,90)"/>
<path d="M61 59h1v1h-1v-1z" fill="transparent"/>
<path d="M62 59h1v7h-1v-7z" fill="rgb(82,82,90)"/>
<path d="M24 60h2v1h-2v-1z" fill="rgb(16,16,16)"/>
<path d="M26 60h2v1h-1v1h-2v1h-2v1h-2v1h-2v1h-3v1h-5v-1h1v-1h3v-1h3v-1h3v-1h3v-1h2v-1z" fill="rgb(156,148,164)"/>
<path d="M28 60h2v1h-2v-1z" fill="rgb(115,106,123)"/>
<path d="M30 60h1v1h-1v-1z" fill="rgb(16,16,16)"/>
<path d="M42 60h2v1h-2v-1z" fill="rgb(115,106,123)"/>
<path d="M44 60h2v1h-2v-1z" fill="rgb(82,82,90)"/>
<path d="M49 60h1v1h-1v-1z" fill="rgb(16,16,16)"/>
<path d="M53 60h1v1h-1v-1z" fill="rgb(82,82,90)"/>
<path d="M56 60h1v1h-1v-1z" fill="rgb(16,16,16)"/>
<path d="M57 60h1v5h-1v2h-1v1h-2v-1h1v-1h1v-2h1v-4z" fill="transparent"/>
<path d="M58 60h1v5h-1v-5z" fill="rgb(16,16,16)"/>
<path d="M59 60h1v6h-1v2h-1v1h-1v1h-1v1h-1v1h-1v1h-1v1h-1v2h-1v-3h1v-3h2v-1h2v-1h1v-1h1
	v-2h1v-5z" fill="rgb(156,148,164)"/>
<path d="M60 60h1v6h-1v-6z" fill="rgb(115,106,123)"/>
<path d="M61 60h1v6h-1v-6z" fill="rgb(16,16,16)"/>
<path d="M64 60h1v8h-1v-8z" fill="rgb(115,106,123)"/>
<path d="M65 60h1v8h-1v-8z" fill="rgb(16,16,16)"/>
<path d="M67 60h1v4h-1v-4z" fill="rgb(82,82,90)"/>
<path d="M69 60h1v1h1v2h-2v-3z" fill="rgb(189,189,189)"/>
<path d="M21 61h3v1h-3v-1z" fill="rgb(16,16,16)"/>
<path d="M27 61h1v1h-1v-1z" fill="rgb(115,106,123)"/>
<path d="M28 61h2v1h-2v-1z" fill="rgb(16,16,16)"/>
<path d="M42 61h2v1h-2v-1z" fill="rgb(82,82,90)"/>
<path d="M47 61h2v1h-2v-1z" fill="rgb(16,16,16)"/>
<path d="M51 61h2v1h-2v-1z" fill="rgb(82,82,90)"/>
<path d="M55 61h1v1h-1v-1z" fill="rgb(16,16,16)"/>
<path d="M56 61h1v3h-1v-3z" fill="rgb(32,82,131)"/>
<path d="M71 61h1v5h-1v-5z" fill="rgb(16,16,16)"/>
<path d="M18 62h3v1h-3v-1z" fill="rgb(82,82,90)"/>
<path d="M25 62h2v1h-2v-1z" fill="rgb(115,106,123)"/>
<path d="M27 62h1v1h-1v-1z" fill="rgb(16,16,16)"/>
<path d="M34 62h1v2h-1v-2z" fill="rgb(16,16,16)"/>
<path d="M40 62h1v3h-1v-3z" fill="rgb(32,82,131)"/>
<path d="M45 62h1v1h-1v-1z" fill="rgb(16,16,16)"/>
<path d="M46 62h5v1h-5v-1z" fill="rgb(82,82,90)"/>
<path d="M54 62h1v1h-1v-1z" fill="rgb(16,16,16)"/>
<path d="M55 62h1v2h-1v2h-1v1h-1v2h-1v1h-1v-2h1v-3h1v-1h1v-1h1v-1z" fill="rgb(65,148,172)"/>
<path d="M15 63h3v1h-3v-1z" fill="rgb(82,82,90)"/>
<path d="M23 63h2v1h-2v-1z" fill="rgb(115,106,123)"/>
<path d="M25 63h2v1h-2v-1z" fill="rgb(16,16,16)"/>
<path d="M41 63h5v1h-5v-1z" fill="rgb(82,82,90)"/>
<path d="M52 63h2v1h-2v-1z" fill="rgb(16,16,16)"/>
<path d="M68 63h2v1h1v2h-2v-2h-1v-1z" fill="rgb(115,106,123)"/>
<path d="M70 63h1v1h-1v-1z" fill="rgb(156,148,164)"/>
<path d="M9 64h6v1h-6v-1z" fill="rgb(82,82,90)"/>
<path d="M21 64h2v1h-2v-1z" fill="rgb(115,106,123)"/>
<path d="M23 64h2v1h-2v-1z" fill="rgb(16,16,16)"/>
<path d="M33 64h1v1h-1v-1z" fill="rgb(82,82,90)"/>
<path d="M34 64h1v1h-1v-1z" fill="rgb(115,106,123)"/>
<path d="M35 64h1v2h-2v-1h1v-1z" fill="rgb(16,16,16)"/>
<path d="M41 64h5v1h-5v-1z" fill="rgb(115,106,123)"/>
<path d="M46 64h6v1h-6v-1z" fill="rgb(16,16,16)"/>
<path d="M52 64h1v1h-1v-1z" fill="rgb(32,82,131)"/>
<path d="M55 64h1v2h-1v-2z" fill="rgb(32,82,131)"/>
<path d="M68 64h1v1h-1v-1z" fill="rgb(82,82,90)"/>
<path d="M7 65h2v1h-2v-1z" fill="rgb(82,82,90)"/>
<path d="M9 65h3v1h-1v1h-2v1h-1v1h-2v-1h-1v-1h2v-1h2v-1z" fill="rgb(189,189,189)"/>
<path d="M19 65h2v1h-2v-1z" fill="rgb(115,106,123)"/>
<path d="M21 65h2v1h-2v-1z" fill="rgb(16,16,16)"/>
<path d="M41 65h1v4h-1v-4z" fill="rgb(32,82,131)"/>
<path d="M42 65h4v1h-4v-1z" fill="rgb(16,16,16)"/>
<path d="M51 65h1v3h-1v-3z" fill="rgb(32,82,131)"/>
<path d="M57 65h1v2h-1v-2z" fill="rgb(16,16,16)"/>
<path d="M68 65h1v1h-1v-1z" fill="rgb(16,16,16)"/>
<path d="M5 66h2v1h-2v-1z" fill="rgb(82,82,90)"/>
<path d="M16 66h3v1h-3v-1z" fill="rgb(115,106,123)"/>
<path d="M19 66h2v1h-2v-1z" fill="rgb(16,16,16)"/>
<path d="M34 66h1v1h-1v-1z" fill="rgb(82,82,90)"/>
<path d="M35 66h1v2h-1v-2z" fill="rgb(156,148,164)"/>
<path d="M36 66h1v2h-1v-2z" fill="rgb(16,16,16)"/>
<path d="M54 66h1v1h-1v-1z" fill="rgb(32,82,131)"/>
<path d="M59 66h1v2h-1v-2z" fill="rgb(115,106,123)"/>
<path d="M60 66h1v2h-1v-2z" fill="rgb(16,16,16)"/>
<path d="M61 66h1v2h-1v-2z" fill="rgb(82,82,90)"/>
<path d="M69 66h2v1h-2v-1z" fill="rgb(16,16,16)"/>
<path d="M4 67h1v1h-1v-1z" fill="rgb(82,82,90)"/>
<path d="M9 67h1v1h-1v-1z" fill="rgb(156,148,164)"/>
<path d="M10 67h6v1h-3v1h-2v1h-2v1h-2v1h-4v-3h1v-1h1v1h3v-1h2v-1z" fill="rgb(115,106,123)"/>
<path d="M16 67h3v1h-3v-1z" fill="rgb(16,16,16)"/>
<path d="M33 67h1v2h-1v-2z" fill="rgb(82,82,90)"/>
<path d="M34 67h1v1h1v1h-2v-2z" fill="rgb(115,106,123)"/>
<path d="M53 67h1v2h-1v-2z" fill="rgb(32,82,131)"/>
<path d="M56 67h1v1h-1v-1z" fill="rgb(82,82,90)"/>
<path d="M3 68h1v1h-1v-1z" fill="rgb(82,82,90)"/>
<path d="M5 68h1v1h-1v-1z" fill="rgb(156,148,164)"/>
<path d="M13 68h3v1h-3v-1z" fill="rgb(16,16,16)"/>
<path d="M36 68h1v1h-1v-1z" fill="rgb(82,82,90)"/>
<path d="M37 68h1v2h-1v-2z" fill="rgb(16,16,16)"/>
<path d="M50 68h1v3h-1v-3z" fill="rgb(32,82,131)"/>
<path d="M54 68h2v1h-2v-1z" fill="rgb(82,82,90)"/>
<path d="M58 68h1v1h-1v-1z" fill="rgb(115,106,123)"/>
<path d="M59 68h1v1h-1v-1z" fill="rgb(16,16,16)"/>
<path d="M60 68h1v5h-1v-5z" fill="rgb(82,82,90)"/>
<path d="M63 68h1v4h-2v-2h1v-2z" fill="rgb(189,189,189)"/>
<path d="M64 68h1v4h-1v-4z" fill="rgb(16,16,16)"/>
<path d="M2 69h1v2h-1v-2z" fill="rgb(82,82,90)"/>
<path d="M11 69h2v1h-2v-1z" fill="rgb(16,16,16)"/>
<path d="M34 69h2v1h-2v-1z" fill="rgb(82,82,90)"/>
<path d="M42 69h1v3h-1v-3z" fill="rgb(32,82,131)"/>
<path d="M52 69h2v1h-2v-1z" fill="rgb(82,82,90)"/>
<path d="M57 69h1v1h-1v-1z" fill="rgb(115,106,123)"/>
<path d="M58 69h1v1h-1v-1z" fill="rgb(16,16,16)"/>
<path d="M9 70h2v1h-2v-1z" fill="rgb(16,16,16)"/>
<path d="M38 70h1v2h-1v-2z" fill="rgb(16,16,16)"/>
<path d="M51 70h1v1h-1v-1z" fill="rgb(82,82,90)"/>
<path d="M56 70h1v1h-1v-1z" fill="rgb(115,106,123)"/>
<path d="M57 70h1v1h-1v-1z" fill="rgb(16,16,16)"/>
<path d="M2 71h1v1h-1v-1z" fill="rgb(16,16,16)"/>
<path d="M7 71h2v1h-2v-1z" fill="rgb(16,16,16)"/>
<path d="M50 71h1v1h-1v-1z" fill="rgb(82,82,90)"/>
<path d="M51 71h1v2h-1v5h-1v1h-1v-1h-1v-3h1v-2h1v-1h1v-1z" fill="rgb(189,189,189)"/>
<path d="M55 71h1v1h-1v-1z" fill="rgb(115,106,123)"/>
<path d="M56 71h1v1h-1v-1z" fill="rgb(16,16,16)"/>
<path d="M61 71h1v2h1v1h-2v-3z" fill="rgb(115,106,123)"/>
<path d="M3 72h4v1h-4v-1z" fill="rgb(16,16,16)"/>
<path d="M39 72h1v1h-1v-1z" fill="rgb(16,16,16)"/>
<path d="M43 72h1v3h-1v-3z" fill="rgb(32,82,131)"/>
<path d="M49 72h1v1h-1v-1z" fill="rgb(82,82,90)"/>
<path d="M54 72h1v2h-1v2h-1v3h-1v2h-3v-1h-1v-1h3v-3h1v-2h1v-1h1v-1z" fill="rgb(115,106,123)"/>
<path d="M55 72h1v2h-1v-2z" fill="rgb(16,16,16)"/>
<path d="M62 72h1v1h-1v-1z" fill="rgb(156,148,164)"/>
<path d="M63 72h1v2h-1v-2z" fill="rgb(16,16,16)"/>
<path d="M40 73h1v1h-1v-1z" fill="rgb(16,16,16)"/>
<path d="M48 73h1v2h-1v-2z" fill="rgb(82,82,90)"/>
<path d="M60 73h1v1h-1v-1z" fill="rgb(16,16,16)"/>
<path d="M41 74h1v1h-1v-1z" fill="rgb(16,16,16)"/>
<path d="M54 74h1v2h-1v-2z" fill="rgb(16,16,16)"/>
<path d="M61 74h2v1h-2v-1z" fill="rgb(16,16,16)"/>
<path d="M42 75h2v1h-2v-1z" fill="rgb(16,16,16)"/>
<path d="M47 75h1v5h-1v-5z" fill="rgb(82,82,90)"/>
<path d="M53 76h1v3h-1v-3z" fill="rgb(16,16,16)"/>
<path d="M48 78h1v1h-1v-1z" fill="rgb(156,148,164)"/>
<path d="M50 78h1v1h-1v-1z" fill="rgb(156,148,164)"/>
<path d="M52 79h1v2h-1v-2z" fill="rgb(16,16,16)"/>
<path d="M48 80h1v1h-1v-1z" fill="rgb(16,16,16)"/>
<path d="M49 81h3v1h-3v-1z" fill="rgb(16,16,16)"/>
</svg>
