<?xml version="1.0" encoding="utf-8"?>
<!-- generated at drububu.com  -->
<!DOCTYPE svg PUBLIC "-//W3C//DTD SVG 1.1//EN" "http://www.w3.org/Graphics/SVG/1.1/DTD/svg11.dtd">
<svg version="1.1" preserveAspectRatio="xMinYMin meet" xmlns="http://www.w3.org/2000/svg" xmlns:xlink="http://www.w3.org/1999/xlink" x="0px" y="0px" width="96px" height="96px" viewBox="0 0 96 96">
<path d="M0 0h96v96h-96v-96z" fill="transparent"/>
<path d="M50 35h4v1h-4v-1z" fill="rgb(106,106,82)"/>
<path d="M43 36h1v1h-1v-1z" fill="rgb(106,106,82)"/>
<path d="M44 36h2v1h-2v-1z" fill="rgb(65,57,49)"/>
<path d="M48 36h1v1h-1v-1z" fill="rgb(65,57,49)"/>
<path d="M49 36h1v1h-1v-1z" fill="rgb(106,106,82)"/>
<path d="M50 36h3v1h1v2h1v1h-1v1h-3v-2h1v-1h-2v1h-2v1h-3v-1h-1v-1h1v-1h1v1h2v-1h2v-1z" fill="rgb(180,180,156)"/>
<path d="M53 36h1v1h-1v-1z" fill="rgb(156,148,131)"/>
<path d="M54 36h1v1h-1v-1z" fill="rgb(65,57,49)"/>
<path d="M55 36h1v1h-1v-1z" fill="rgb(16,16,16)"/>
<path d="M41 37h2v1h-2v-1z" fill="rgb(106,106,82)"/>
<path d="M43 37h2v1h-1v1h-2v1h-2v-1h1v-1h2v-1z" fill="rgb(197,213,172)"/>
<path d="M46 37h1v1h-1v-1z" fill="rgb(65,57,49)"/>
<path d="M47 37h1v1h-1v-1z" fill="rgb(16,16,16)"/>
<path d="M54 37h1v1h-1v-1z" fill="rgb(156,148,131)"/>
<path d="M55 37h1v1h-1v-1z" fill="rgb(106,106,82)"/>
<path d="M56 37h1v1h-1v-1z" fill="rgb(16,16,16)"/>
<path d="M57 37h1v1h-1v-1z" fill="rgb(65,57,49)"/>
<path d="M40 38h1v1h-1v-1z" fill="rgb(106,106,82)"/>
<path d="M50 38h2v1h-2v-1z" fill="rgb(106,106,82)"/>
<path d="M54 38h1v1h-1v-1z" fill="rgb(65,57,49)"/>
<path d="M55 38h1v1h-1v-1z" fill="rgb(156,148,131)"/>
<path d="M56 38h2v2h-2v-2z" fill="rgb(180,180,156)"/>
<path d="M58 38h1v1h-1v-1z" fill="rgb(65,57,49)"/>
<path d="M29 39h2v1h-2v-1z" fill="rgb(65,57,49)"/>
<path d="M39 39h1v2h-1v-2z" fill="rgb(106,106,82)"/>
<path d="M42 39h2v1h1v1h-2v-1h-1v-1z" fill="rgb(180,180,156)"/>
<path d="M44 39h1v1h-1v-1z" fill="rgb(106,106,82)"/>
<path d="M48 39h2v1h-2v-1z" fill="rgb(106,106,82)"/>
<path d="M50 39h1v2h-2v-1h1v-1z" fill="rgb(197,213,172)"/>
<path d="M55 39h1v1h-1v-1z" fill="rgb(65,57,49)"/>
<path d="M58 39h1v2h-1v2h2v5h1v1h-1v1h1v2h2v-1h2v3h-1v1h-2v-1h-1v-1h-1v-1h-1v-2h-3v1h-2
	v-1h-2v-1h1v-1h1v-1h1v-1h-2v-1h2v-2h1v-1h1v-2h1v-1z" fill="rgb(156,148,131)"/>
<path d="M59 39h1v2h-1v-2z" fill="rgb(65,57,49)"/>
<path d="M66 39h2v1h-2v-1z" fill="rgb(106,106,82)"/>
<path d="M68 39h2v1h-2v-1z" fill="rgb(65,57,49)"/>
<path d="M27 40h1v1h-1v-1z" fill="rgb(65,57,49)"/>
<path d="M28 40h1v1h-1v-1z" fill="rgb(106,106,82)"/>
<path d="M29 40h2v1h2v1h1v1h-1v1h-1v-1h-1v-1h-1v1h1v1h1v2h-2v-1h-1v-1h-1v1h1v2h-2v-1h-1
	v1h1v2h-2v1h1v1h2v-1h1v-1h1v1h1v1h-1v1h1v1h2v1h1v1h-1v1h-2v-1h-1v-1h-2v-1h-2v-1
	h-2v-1h-1v-2h-1v-1h2v-1h1v-3h2v-2h2v-2z" fill="rgb(180,180,156)"/>
<path d="M31 40h1v1h-1v-1z" fill="rgb(106,106,82)"/>
<path d="M32 40h1v1h-1v-1z" fill="rgb(65,57,49)"/>
<path d="M40 40h1v1h-1v-1z" fill="rgb(180,180,156)"/>
<path d="M41 40h1v1h-1v-1z" fill="rgb(16,16,16)"/>
<path d="M42 40h1v1h-1v-1z" fill="rgb(106,106,82)"/>
<path d="M45 40h1v1h-1v-1z" fill="rgb(106,106,82)"/>
<path d="M46 40h1v2h1v1h-1v1h-3v-1h1v-1h1v-2z" fill="rgb(156,148,131)"/>
<path d="M47 40h1v2h-1v-2z" fill="rgb(65,57,49)"/>
<path d="M48 40h1v1h1v1h-2v-2z" fill="rgb(180,180,156)"/>
<path d="M54 40h2v2h-1v-1h-1v-1z" fill="rgb(156,148,131)"/>
<path d="M56 40h1v1h-1v-1z" fill="rgb(65,57,49)"/>
<path d="M64 40h2v1h-2v-1z" fill="rgb(106,106,82)"/>
<path d="M66 40h4v2h-2v-1h-1v1h-2v-1h1v-1z" fill="rgb(197,213,172)"/>
<path d="M70 40h1v1h-1v-1z" fill="rgb(65,57,49)"/>
<path d="M26 41h1v1h-1v-1z" fill="rgb(65,57,49)"/>
<path d="M27 41h2v1h-2v-1z" fill="rgb(197,213,172)"/>
<path d="M33 41h1v1h-1v-1z" fill="rgb(16,16,16)"/>
<path d="M39 41h1v2h-1v-2z" fill="rgb(16,16,16)"/>
<path d="M40 41h1v1h-1v-1z" fill="rgb(65,57,49)"/>
<path d="M41 41h1v1h-1v-1z" fill="rgb(205,222,205)"/>
<path d="M42 41h1v1h-1v-1z" fill="rgb(16,16,16)"/>
<path d="M43 41h1v1h-1v-1z" fill="rgb(106,106,82)"/>
<path d="M44 41h1v1h-1v-1z" fill="rgb(156,148,131)"/>
<path d="M45 41h1v1h-1v-1z" fill="rgb(65,57,49)"/>
<path d="M50 41h1v1h-1v-1z" fill="rgb(156,148,131)"/>
<path d="M51 41h3v1h-3v-1z" fill="rgb(16,16,16)"/>
<path d="M54 41h1v1h-1v-1z" fill="rgb(65,57,49)"/>
<path d="M56 41h1v1h-1v-1z" fill="rgb(106,106,82)"/>
<path d="M58 41h1v1h1v1h-2v-2z" fill="rgb(106,106,82)"/>
<path d="M59 41h1v1h-1v-1z" fill="rgb(16,16,16)"/>
<path d="M63 41h1v1h-1v-1z" fill="rgb(65,57,49)"/>
<path d="M64 41h1v2h-1v1h-1v-2h1v-1z" fill="rgb(180,180,156)"/>
<path d="M67 41h1v1h3v2h2v2h1v1h2v3h-1v1h-1v-3h-1v1h-2v-2h-1v1h-2v-1h-1v-1h-2v-3h1v-1h1
	v-1z" fill="rgb(180,180,156)"/>
<path d="M70 41h1v1h-1v-1z" fill="rgb(156,148,131)"/>
<path d="M71 41h1v1h-1v-1z" fill="rgb(65,57,49)"/>
<path d="M25 42h1v1h-1v-1z" fill="rgb(106,106,82)"/>
<path d="M26 42h1v2h-2v-1h1v-1z" fill="rgb(197,213,172)"/>
<path d="M30 42h1v1h-1v-1z" fill="rgb(106,106,82)"/>
<path d="M34 42h1v3h-1v-3z" fill="rgb(16,16,16)"/>
<path d="M40 42h1v1h-1v-1z" fill="rgb(180,180,156)"/>
<path d="M41 42h1v2h-1v-2z" fill="rgb(255,255,255)"/>
<path d="M42 42h1v2h-1v-2z" fill="rgb(205,222,205)"/>
<path d="M43 42h2v1h-1v1h-1v-2z" fill="rgb(16,16,16)"/>
<path d="M48 42h3v2h-1v-1h-1v1h-1v-2z" fill="rgb(16,16,16)"/>
<path d="M51 42h1v1h-1v-1z" fill="rgb(148,156,156)"/>
<path d="M52 42h2v2h-1v-1h-1v-1z" fill="rgb(205,222,205)"/>
<path d="M54 42h1v1h-1v-1z" fill="rgb(16,16,16)"/>
<path d="M55 42h1v1h-1v-1z" fill="rgb(65,57,49)"/>
<path d="M60 42h1v2h-1v-2z" fill="rgb(16,16,16)"/>
<path d="M62 42h1v3h1v2h-1v-1h-2v-1h1v-3z" fill="rgb(65,57,49)"/>
<path d="M65 42h1v1h-1v-1z" fill="rgb(106,106,82)"/>
<path d="M71 42h1v1h1v1h-2v-2z" fill="rgb(197,213,172)"/>
<path d="M72 42h1v1h-1v-1z" fill="rgb(106,106,82)"/>
<path d="M24 43h1v1h-1v-1z" fill="rgb(106,106,82)"/>
<path d="M31 43h1v1h-1v-1z" fill="rgb(106,106,82)"/>
<path d="M33 43h1v2h-1v-2z" fill="rgb(156,148,131)"/>
<path d="M39 43h1v1h-1v-1z" fill="rgb(65,57,49)"/>
<path d="M40 43h1v2h-2v-1h1v-1z" fill="rgb(197,213,172)"/>
<path d="M47 43h1v1h1v1h2v1h4v1h-1v1h-1v1h-2v-1h-1v-1h-10v1h-2v-2h1v-1h5v-1h3v-1z" fill="rgb(180,180,156)"/>
<path d="M49 43h1v1h-1v-1z" fill="rgb(205,222,205)"/>
<path d="M51 43h2v1h1v1h-3v-2z" fill="rgb(255,255,255)"/>
<path d="M54 43h1v2h-1v-2z" fill="rgb(106,106,82)"/>
<path d="M64 43h1v1h-1v-1z" fill="rgb(65,57,49)"/>
<path d="M73 43h1v1h-1v-1z" fill="rgb(106,106,82)"/>
<path d="M23 44h1v1h-1v-1z" fill="rgb(106,106,82)"/>
<path d="M24 44h1v3h-1v1h-2v-1h1v-2h1v-1z" fill="rgb(197,213,172)"/>
<path d="M28 44h1v1h-1v-1z" fill="rgb(106,106,82)"/>
<path d="M32 44h1v1h-1v-1z" fill="rgb(65,57,49)"/>
<path d="M38 44h1v1h-1v-1z" fill="rgb(65,57,49)"/>
<path d="M41 44h1v1h-1v-1z" fill="rgb(156,148,131)"/>
<path d="M42 44h1v1h-1v-1z" fill="rgb(106,106,82)"/>
<path d="M43 44h1v1h-1v-1z" fill="rgb(148,156,156)"/>
<path d="M49 44h1v1h-1v-1z" fill="rgb(106,106,82)"/>
<path d="M50 44h1v1h-1v-1z" fill="rgb(148,156,156)"/>
<path d="M60 44h1v2h-1v-2z" fill="rgb(106,106,82)"/>
<path d="M61 44h1v1h-1v-1z" fill="rgb(16,16,16)"/>
<path d="M63 44h1v1h-1v-1z" fill="rgb(156,148,131)"/>
<path d="M64 44h1v1h-1v-1z" fill="rgb(106,106,82)"/>
<path d="M68 44h1v1h-1v-1z" fill="rgb(106,106,82)"/>
<path d="M73 44h1v1h1v2h-1v-1h-1v-2z" fill="rgb(197,213,172)"/>
<path d="M74 44h1v1h-1v-1z" fill="rgb(65,57,49)"/>
<path d="M22 45h1v2h-1v-2z" fill="rgb(106,106,82)"/>
<path d="M29 45h1v1h-1v-1z" fill="rgb(106,106,82)"/>
<path d="M32 45h1v1h-1v-1z" fill="rgb(156,148,131)"/>
<path d="M33 45h1v1h-1v-1z" fill="rgb(16,16,16)"/>
<path d="M37 45h1v2h-1v-2z" fill="rgb(65,57,49)"/>
<path d="M38 45h1v1h-1v-1z" fill="rgb(197,213,172)"/>
<path d="M51 45h2v1h-2v-1z" fill="rgb(106,106,82)"/>
<path d="M64 45h1v1h1v1h-2v-2z" fill="rgb(156,148,131)"/>
<path d="M67 45h1v1h-1v-1z" fill="rgb(65,57,49)"/>
<path d="M75 45h1v2h-1v-2z" fill="rgb(65,57,49)"/>
<path d="M26 46h1v1h-1v-1z" fill="rgb(106,106,82)"/>
<path d="M29 46h1v2h-2v-1h1v-1z" fill="rgb(156,148,131)"/>
<path d="M30 46h1v1h-1v-1z" fill="rgb(65,57,49)"/>
<path d="M31 46h1v1h-1v-1z" fill="rgb(156,148,131)"/>
<path d="M32 46h1v1h-1v-1z" fill="rgb(65,57,49)"/>
<path d="M33 46h1v3h-1v1h-2v-2h1v-1h1v-1z" fill="rgb(156,148,131)"/>
<path d="M34 46h1v1h-1v-1z" fill="rgb(65,57,49)"/>
<path d="M60 46h1v2h-1v-2z" fill="rgb(65,57,49)"/>
<path d="M61 46h2v1h1v1h-1v1h-1v-1h-1v-2z" fill="rgb(180,180,156)"/>
<path d="M66 46h1v1h-1v-1z" fill="rgb(65,57,49)"/>
<path d="M71 46h1v1h-1v-1z" fill="rgb(106,106,82)"/>
<path d="M21 47h1v2h-1v-2z" fill="rgb(106,106,82)"/>
<path d="M27 47h1v1h-1v-1z" fill="rgb(65,57,49)"/>
<path d="M30 47h2v1h-1v2h-1v-1h-1v-1h1v-1z" fill="rgb(16,16,16)"/>
<path d="M34 47h1v2h-1v-2z" fill="rgb(16,16,16)"/>
<path d="M37 47h1v1h-1v-1z" fill="rgb(16,16,16)"/>
<path d="M40 47h2v1h-1v1h-2v-1h1v-1z" fill="rgb(156,148,131)"/>
<path d="M42 47h1v1h-1v-1z" fill="rgb(106,106,82)"/>
<path d="M43 47h5v1h-5v-1z" fill="rgb(65,57,49)"/>
<path d="M48 47h2v1h-2v-1z" fill="rgb(106,106,82)"/>
<path d="M64 47h2v1h-1v1h-1v-2z" fill="rgb(16,16,16)"/>
<path d="M66 47h1v1h-1v-1z" fill="rgb(106,106,82)"/>
<path d="M67 47h1v1h1v1h-2v-2z" fill="rgb(156,148,131)"/>
<path d="M70 47h1v1h-1v-1z" fill="rgb(106,106,82)"/>
<path d="M76 47h1v3h-1v-3z" fill="rgb(65,57,49)"/>
<path d="M27 48h1v2h-2v-1h1v-1z" fill="rgb(156,148,131)"/>
<path d="M28 48h1v1h-1v-1z" fill="rgb(65,57,49)"/>
<path d="M38 48h1v2h-1v-2z" fill="rgb(16,16,16)"/>
<path d="M41 48h1v1h-1v-1z" fill="rgb(106,106,82)"/>
<path d="M42 48h7v1h-1v1h-5v-1h-1v-1z" fill="rgb(180,180,156)"/>
<path d="M49 48h1v1h1v1h1v1h2v1h2v-1h2v1h1v2h-2v1h-2v1h-10v-1h-2v-1h-1v-1h-1v-3h1v-1h1v1
	h5v-1h1v-1z" fill="rgb(156,148,131)"/>
<path d="M50 48h1v1h-1v-1z" fill="rgb(65,57,49)"/>
<path d="M61 48h1v1h-1v-1z" fill="rgb(65,57,49)"/>
<path d="M63 48h1v1h-1v-1z" fill="rgb(106,106,82)"/>
<path d="M65 48h1v1h1v1h3v1h2v-1h2v2h-1v1h-1v2h-1v1h-1v-1h-1v1h-4v-1h1v-2h2v1h3v-1h-2v-1
	h-2v-1h-2v-1h-1v-1h1v-1z" fill="rgb(156,148,131)"/>
<path d="M66 48h1v1h-1v-1z" fill="rgb(16,16,16)"/>
<path d="M69 48h1v2h-1v-2z" fill="rgb(65,57,49)"/>
<path d="M70 48h1v1h1v1h-2v-2z" fill="rgb(156,148,131)"/>
<path d="M73 48h1v2h-2v-1h1v-1z" fill="rgb(16,16,16)"/>
<path d="M22 49h1v2h-1v-2z" fill="rgb(106,106,82)"/>
<path d="M25 49h1v1h-1v-1z" fill="rgb(106,106,82)"/>
<path d="M28 49h1v1h-1v-1z" fill="rgb(16,16,16)"/>
<path d="M33 49h1v1h-1v-1z" fill="rgb(16,16,16)"/>
<path d="M39 49h1v1h-1v-1z" fill="rgb(65,57,49)"/>
<path d="M40 49h1v1h-1v-1z" fill="rgb(106,106,82)"/>
<path d="M41 49h1v1h-1v-1z" fill="rgb(16,16,16)"/>
<path d="M51 49h1v1h-1v-1z" fill="rgb(65,57,49)"/>
<path d="M60 49h1v1h-1v-1z" fill="rgb(65,57,49)"/>
<path d="M61 49h1v1h1v1h-2v-2z" fill="rgb(180,180,156)"/>
<path d="M62 49h2v1h-2v-1z" fill="rgb(16,16,16)"/>
<path d="M67 49h2v1h-2v-1z" fill="rgb(16,16,16)"/>
<path d="M26 50h2v1h-2v-1z" fill="rgb(16,16,16)"/>
<path d="M31 50h2v1h-2v-1z" fill="rgb(16,16,16)"/>
<path d="M33 50h1v1h1v2h1v1h1v1h1v-1h-1v-1h4v1h-1v1h-1v2h-1v1h-2v-1h-2v-1h-1v-1h1v-1h-1
	v-1h-2v-2h2v-1z" fill="rgb(156,148,131)"/>
<path d="M34 50h1v1h-1v-1z" fill="rgb(16,16,16)"/>
<path d="M39 50h1v1h-1v-1z" fill="rgb(16,16,16)"/>
<path d="M40 50h1v3h-1v-3z" fill="rgb(65,57,49)"/>
<path d="M52 50h1v1h-1v-1z" fill="rgb(65,57,49)"/>
<path d="M53 50h1v1h-1v-1z" fill="rgb(106,106,82)"/>
<path d="M56 50h2v1h-2v-1z" fill="rgb(65,57,49)"/>
<path d="M58 50h1v1h-1v-1z" fill="rgb(106,106,82)"/>
<path d="M63 50h1v1h-1v-1z" fill="rgb(106,106,82)"/>
<path d="M64 50h1v1h-1v-1z" fill="rgb(65,57,49)"/>
<path d="M70 50h2v1h-2v-1z" fill="rgb(16,16,16)"/>
<path d="M75 50h1v1h-1v-1z" fill="rgb(65,57,49)"/>
<path d="M23 51h1v1h-1v-1z" fill="rgb(65,57,49)"/>
<path d="M30 51h1v1h-1v-1z" fill="rgb(106,106,82)"/>
<path d="M35 51h1v2h-1v-2z" fill="rgb(16,16,16)"/>
<path d="M38 51h1v1h-1v-1z" fill="rgb(16,16,16)"/>
<path d="M39 51h1v2h-2v-1h1v-1z" fill="rgb(180,180,156)"/>
<path d="M54 51h2v1h-2v-1z" fill="rgb(65,57,49)"/>
<path d="M58 51h1v1h-1v-1z" fill="rgb(65,57,49)"/>
<path d="M61 51h2v1h-2v-1z" fill="rgb(106,106,82)"/>
<path d="M65 51h2v1h-2v-1z" fill="rgb(65,57,49)"/>
<path d="M74 51h1v1h-1v-1z" fill="rgb(65,57,49)"/>
<path d="M24 52h2v1h-2v-1z" fill="rgb(65,57,49)"/>
<path d="M37 52h1v1h-1v-1z" fill="rgb(16,16,16)"/>
<path d="M45 52h6v1h-6v-1z" fill="rgb(106,106,82)"/>
<path d="M59 52h1v1h-1v-1z" fill="rgb(106,106,82)"/>
<path d="M65 52h1v1h-1v-1z" fill="rgb(16,16,16)"/>
<path d="M66 52h3v2h-1v-1h-2v-1z" fill="rgb(106,106,82)"/>
<path d="M73 52h1v1h-1v-1z" fill="rgb(16,16,16)"/>
<path d="M26 53h2v1h-2v-1z" fill="rgb(65,57,49)"/>
<path d="M36 53h1v1h-1v-1z" fill="rgb(16,16,16)"/>
<path d="M41 53h1v1h-1v-1z" fill="rgb(65,57,49)"/>
<path d="M44 53h1v1h-1v-1z" fill="rgb(106,106,82)"/>
<path d="M52 53h1v1h-1v-1z" fill="rgb(106,106,82)"/>
<path d="M59 53h1v1h-1v-1z" fill="rgb(16,16,16)"/>
<path d="M60 53h1v1h-1v-1z" fill="rgb(65,57,49)"/>
<path d="M65 53h1v2h-1v-2z" fill="rgb(65,57,49)"/>
<path d="M69 53h2v1h-2v-1z" fill="rgb(180,180,156)"/>
<path d="M72 53h1v2h-1v-2z" fill="rgb(16,16,16)"/>
<path d="M28 54h2v1h-2v-1z" fill="rgb(16,16,16)"/>
<path d="M37 54h1v1h-1v-1z" fill="rgb(16,16,16)"/>
<path d="M40 54h1v1h-1v-1z" fill="rgb(65,57,49)"/>
<path d="M42 54h1v1h-1v-1z" fill="rgb(65,57,49)"/>
<path d="M53 54h1v1h-1v-1z" fill="rgb(106,106,82)"/>
<path d="M57 54h1v1h-1v-1z" fill="rgb(16,16,16)"/>
<path d="M58 54h1v1h-1v-1z" fill="rgb(65,57,49)"/>
<path d="M61 54h1v1h-1v-1z" fill="rgb(65,57,49)"/>
<path d="M64 54h1v2h3v1h1v1h-4v-1h-1v-3z" fill="rgb(180,180,156)"/>
<path d="M30 55h1v1h-1v-1z" fill="rgb(16,16,16)"/>
<path d="M39 55h1v2h-1v-2z" fill="rgb(16,16,16)"/>
<path d="M43 55h1v1h-1v-1z" fill="rgb(65,57,49)"/>
<path d="M44 55h1v1h-1v-1z" fill="rgb(16,16,16)"/>
<path d="M55 55h1v1h-1v-1z" fill="rgb(16,16,16)"/>
<path d="M56 55h1v1h-1v-1z" fill="rgb(65,57,49)"/>
<path d="M62 55h2v2h-1v-1h-1v-1z" fill="rgb(65,57,49)"/>
<path d="M69 55h1v1h-1v-1z" fill="rgb(106,106,82)"/>
<path d="M71 55h1v1h-1v-1z" fill="rgb(16,16,16)"/>
<path d="M31 56h1v1h-1v-1z" fill="rgb(65,57,49)"/>
<path d="M32 56h2v1h-2v-1z" fill="rgb(16,16,16)"/>
<path d="M45 56h1v1h-1v-1z" fill="rgb(106,106,82)"/>
<path d="M46 56h1v1h-1v-1z" fill="rgb(65,57,49)"/>
<path d="M47 56h7v1h-7v-1z" fill="rgb(16,16,16)"/>
<path d="M54 56h1v1h-1v-1z" fill="rgb(65,57,49)"/>
<path d="M68 56h1v1h-1v-1z" fill="rgb(106,106,82)"/>
<path d="M69 56h1v1h-1v-1z" fill="rgb(180,180,156)"/>
<path d="M70 56h1v1h-1v-1z" fill="rgb(16,16,16)"/>
<path d="M34 57h1v1h-1v-1z" fill="rgb(65,57,49)"/>
<path d="M35 57h1v1h-1v-1z" fill="rgb(16,16,16)"/>
<path d="M38 57h1v1h-1v-1z" fill="rgb(65,57,49)"/>
<path d="M64 57h1v1h-1v-1z" fill="rgb(65,57,49)"/>
<path d="M69 57h1v1h-1v-1z" fill="rgb(16,16,16)"/>
<path d="M36 58h2v1h-2v-1z" fill="rgb(16,16,16)"/>
<path d="M65 58h2v1h-2v-1z" fill="rgb(65,57,49)"/>
<path d="M67 58h2v1h-2v-1z" fill="rgb(16,16,16)"/>
</svg>
