<?xml version="1.0" encoding="utf-8"?>
<!-- generated at drububu.com  -->
<!DOCTYPE svg PUBLIC "-//W3C//DTD SVG 1.1//EN" "http://www.w3.org/Graphics/SVG/1.1/DTD/svg11.dtd">
<svg version="1.1" preserveAspectRatio="xMinYMin meet" xmlns="http://www.w3.org/2000/svg" xmlns:xlink="http://www.w3.org/1999/xlink" x="0px" y="0px" width="96px" height="96px" viewBox="0 0 96 96">
<path d="M0 0h96v96h-96v-96z" fill="transparent"/>
<path d="M46 26h3v1h-3v-1z" fill="rgb(74,65,49)"/>
<path d="M49 26h1v1h-1v-1z" fill="rgb(0,0,0)"/>
<path d="M37 27h3v1h-3v-1z" fill="rgb(74,65,49)"/>
<path d="M40 27h1v1h-1v-1z" fill="rgb(0,0,0)"/>
<path d="M44 27h2v1h-2v-1z" fill="rgb(74,65,49)"/>
<path d="M46 27h3v1h-1v2h-1v1h-1v1h-3v-1h-1v-1h-1v-1h6v-1h-1v-1z" fill="rgb(180,180,156)"/>
<path d="M49 27h1v1h-1v-1z" fill="rgb(148,139,123)"/>
<path d="M50 27h1v1h-1v-1z" fill="rgb(0,0,0)"/>
<path d="M36 28h1v1h-1v-1z" fill="rgb(74,65,49)"/>
<path d="M37 28h2v1h-1v1h-1v1h-1v-2h1v-1z" fill="rgb(180,180,156)"/>
<path d="M39 28h2v1h-2v-1z" fill="rgb(106,106,82)"/>
<path d="M41 28h1v1h-1v-1z" fill="rgb(74,65,49)"/>
<path d="M42 28h2v1h-2v-1z" fill="rgb(0,0,0)"/>
<path d="M44 28h3v1h-3v-1z" fill="rgb(106,106,82)"/>
<path d="M48 28h1v1h-1v-1z" fill="rgb(148,139,123)"/>
<path d="M49 28h2v1h-2v-1z" fill="rgb(106,106,82)"/>
<path d="M51 28h1v1h-1v-1z" fill="rgb(74,65,49)"/>
<path d="M52 28h1v1h-1v-1z" fill="rgb(0,0,0)"/>
<path d="M35 29h1v1h-1v-1z" fill="rgb(74,65,49)"/>
<path d="M38 29h1v1h-1v-1z" fill="rgb(148,139,123)"/>
<path d="M39 29h2v1h-2v-1z" fill="rgb(74,65,49)"/>
<path d="M48 29h1v1h-1v-1z" fill="rgb(74,65,49)"/>
<path d="M49 29h1v1h-1v-1z" fill="rgb(0,0,0)"/>
<path d="M50 29h3v1h2v1h2v1h1v1h1v1h1v1h1v1h-1v1h3v1h-1v1h-1v1h-1v3h1v-1h3v1h-2v1h-2v3
	h-1v1h-1v1h-2v1h-1v1h-2v-1h-4v1h-1v2h-1v1h-2v-1h-2v-1h-4v1h-2v-1h-1v-2h-1v-1h-3
	v-2h-1v-1h-1v-1h-1v-3h1v-2h1v-1h1v1h1v1h1v-2h1v-1h-1v-1h2v-1h-1v-1h2v1h1v-1h1
	v-2h1v-1h-1v-2h1v1h1v1h1v1h4v1h1v-1h1v-1h1v-1h2v-1h-1v-1z" fill="rgb(180,180,156)"/>
<path d="M53 29h1v1h-1v-1z" fill="rgb(74,65,49)"/>
<path d="M54 29h4v1h-4v-1z" fill="rgb(0,0,0)"/>
<path d="M34 30h1v1h-1v-1z" fill="rgb(74,65,49)"/>
<path d="M35 30h1v2h-1v-2z" fill="rgb(0,0,0)"/>
<path d="M37 30h1v1h-1v-1z" fill="rgb(148,139,123)"/>
<path d="M38 30h1v1h-1v-1z" fill="rgb(74,65,49)"/>
<path d="M40 30h1v1h-1v-1z" fill="rgb(106,106,82)"/>
<path d="M41 30h1v1h-1v-1z" fill="rgb(74,65,49)"/>
<path d="M47 30h1v1h-1v-1z" fill="rgb(74,65,49)"/>
<path d="M48 30h1v1h-1v-1z" fill="rgb(180,180,156)"/>
<path d="M49 30h1v1h-1v-1z" fill="rgb(213,213,172)"/>
<path d="M50 30h1v1h-1v-1z" fill="rgb(0,0,0)"/>
<path d="M55 30h1v1h-1v-1z" fill="rgb(74,65,49)"/>
<path d="M56 30h2v1h1v1h-2v-1h-1v-1z" fill="rgb(106,106,82)"/>
<path d="M58 30h1v1h-1v-1z" fill="rgb(0,0,0)"/>
<path d="M18 31h2v1h-2v-1z" fill="rgb(74,65,49)"/>
<path d="M33 31h1v1h-1v-1z" fill="rgb(74,65,49)"/>
<path d="M34 31h1v1h-1v-1z" fill="rgb(148,139,123)"/>
<path d="M36 31h1v1h-1v-1z" fill="rgb(106,106,82)"/>
<path d="M37 31h1v1h-1v-1z" fill="rgb(74,65,49)"/>
<path d="M38 31h1v1h1v1h-2v-2z" fill="rgb(213,213,172)"/>
<path d="M41 31h1v1h-1v-1z" fill="rgb(106,106,82)"/>
<path d="M42 31h1v1h-1v-1z" fill="rgb(0,0,0)"/>
<path d="M46 31h1v1h-1v-1z" fill="rgb(74,65,49)"/>
<path d="M47 31h2v1h-1v1h-1v1h-1v-2h1v-1z" fill="rgb(213,213,172)"/>
<path d="M51 31h1v2h-1v-2z" fill="rgb(0,0,0)"/>
<path d="M59 31h1v1h-1v-1z" fill="rgb(0,0,0)"/>
<path d="M17 32h1v1h-1v-1z" fill="rgb(74,65,49)"/>
<path d="M18 32h2v1h1v1h-3v-2z" fill="rgb(180,180,156)"/>
<path d="M20 32h1v1h-1v-1z" fill="rgb(0,0,0)"/>
<path d="M32 32h1v1h-1v-1z" fill="rgb(74,65,49)"/>
<path d="M33 32h1v1h-1v-1z" fill="rgb(148,139,123)"/>
<path d="M34 32h1v1h-1v-1z" fill="rgb(74,65,49)"/>
<path d="M35 32h1v1h-1v-1z" fill="rgb(180,180,156)"/>
<path d="M36 32h1v1h-1v-1z" fill="rgb(74,65,49)"/>
<path d="M37 32h1v1h-1v-1z" fill="rgb(0,0,0)"/>
<path d="M42 32h1v1h-1v-1z" fill="rgb(74,65,49)"/>
<path d="M43 32h1v1h-1v-1z" fill="rgb(0,0,0)"/>
<path d="M44 32h2v1h-2v-1z" fill="rgb(74,65,49)"/>
<path d="M50 32h1v1h-1v-1z" fill="rgb(106,106,82)"/>
<path d="M52 32h2v1h-2v-1z" fill="rgb(74,65,49)"/>
<path d="M58 32h1v1h-1v-1z" fill="rgb(148,139,123)"/>
<path d="M59 32h1v2h-1v-2z" fill="rgb(74,65,49)"/>
<path d="M60 32h1v1h-1v-1z" fill="rgb(0,0,0)"/>
<path d="M16 33h1v2h-1v-2z" fill="rgb(74,65,49)"/>
<path d="M17 33h1v1h4v2h-1v1h-1v-1h-1v-1h-2v-2z" fill="rgb(148,139,123)"/>
<path d="M21 33h1v1h-1v-1z" fill="rgb(0,0,0)"/>
<path d="M31 33h1v1h-1v-1z" fill="rgb(74,65,49)"/>
<path d="M32 33h1v2h-1v-2z" fill="rgb(148,139,123)"/>
<path d="M33 33h1v2h-1v-2z" fill="rgb(74,65,49)"/>
<path d="M34 33h2v1h1v1h-2v-1h-1v-1z" fill="rgb(213,213,172)"/>
<path d="M36 33h1v1h-1v-1z" fill="rgb(180,180,156)"/>
<path d="M37 33h1v1h-1v-1z" fill="rgb(74,65,49)"/>
<path d="M38 33h1v1h-1v-1z" fill="rgb(0,0,0)"/>
<path d="M40 33h1v1h-1v-1z" fill="rgb(213,213,172)"/>
<path d="M49 33h1v1h-1v-1z" fill="rgb(106,106,82)"/>
<path d="M50 33h1v1h-1v-1z" fill="rgb(0,0,0)"/>
<path d="M51 33h1v1h-1v-1z" fill="rgb(74,65,49)"/>
<path d="M52 33h1v1h-1v-1z" fill="rgb(180,180,156)"/>
<path d="M53 33h1v1h-1v-1z" fill="rgb(213,213,172)"/>
<path d="M54 33h1v1h-1v-1z" fill="rgb(0,0,0)"/>
<path d="M60 33h1v2h-1v-2z" fill="rgb(106,106,82)"/>
<path d="M61 33h1v1h-1v-1z" fill="rgb(0,0,0)"/>
<path d="M73 33h2v1h-2v-1z" fill="rgb(74,65,49)"/>
<path d="M22 34h1v2h-1v-2z" fill="rgb(0,0,0)"/>
<path d="M31 34h1v2h-2v-1h1v-1z" fill="rgb(0,0,0)"/>
<path d="M34 34h1v1h-1v-1z" fill="rgb(180,180,156)"/>
<path d="M37 34h1v1h-1v-1z" fill="rgb(180,180,156)"/>
<path d="M38 34h1v1h-1v-1z" fill="rgb(74,65,49)"/>
<path d="M49 34h1v1h-1v-1z" fill="rgb(74,65,49)"/>
<path d="M50 34h1v1h-1v-1z" fill="rgb(180,180,156)"/>
<path d="M51 34h2v1h-1v1h-2v-1h1v-1z" fill="rgb(213,213,172)"/>
<path d="M53 34h1v1h-1v-1z" fill="rgb(180,180,156)"/>
<path d="M54 34h1v1h-1v-1z" fill="rgb(148,139,123)"/>
<path d="M55 34h1v2h-1v-2z" fill="rgb(0,0,0)"/>
<path d="M61 34h1v1h-1v-1z" fill="rgb(74,65,49)"/>
<path d="M72 34h1v1h-1v-1z" fill="rgb(74,65,49)"/>
<path d="M73 34h2v2h-3v-1h1v-1z" fill="rgb(180,180,156)"/>
<path d="M75 34h1v1h-1v-1z" fill="rgb(74,65,49)"/>
<path d="M15 35h1v1h-1v-1z" fill="rgb(74,65,49)"/>
<path d="M16 35h1v1h-1v-1z" fill="rgb(148,139,123)"/>
<path d="M17 35h1v1h1v2h-1v-1h-2v-1h1v-1z" fill="rgb(74,65,49)"/>
<path d="M18 35h1v1h-1v-1z" fill="rgb(0,0,0)"/>
<path d="M23 35h2v1h-2v-1z" fill="rgb(74,65,49)"/>
<path d="M32 35h1v1h-1v-1z" fill="rgb(106,106,82)"/>
<path d="M33 35h1v1h-1v-1z" fill="rgb(0,0,0)"/>
<path d="M34 35h1v1h-1v-1z" fill="rgb(74,65,49)"/>
<path d="M37 35h1v1h-1v-1z" fill="rgb(213,213,172)"/>
<path d="M40 35h1v2h-1v-2z" fill="rgb(106,106,82)"/>
<path d="M41 35h1v1h-1v-1z" fill="rgb(213,213,172)"/>
<path d="M53 35h1v1h-1v-1z" fill="rgb(148,139,123)"/>
<path d="M54 35h1v1h-1v-1z" fill="rgb(106,106,82)"/>
<path d="M61 35h1v1h-1v-1z" fill="rgb(148,139,123)"/>
<path d="M62 35h1v1h-1v-1z" fill="rgb(0,0,0)"/>
<path d="M71 35h1v1h-1v-1z" fill="rgb(74,65,49)"/>
<path d="M75 35h1v2h-2v1h-1v1h-1v-1h-1v-2h4v-1z" fill="rgb(148,139,123)"/>
<path d="M76 35h1v2h-1v-2z" fill="rgb(74,65,49)"/>
<path d="M14 36h1v1h-1v-1z" fill="rgb(74,65,49)"/>
<path d="M15 36h1v1h-1v-1z" fill="rgb(148,139,123)"/>
<path d="M19 36h1v1h1v1h-1v3h-1v-5z" fill="rgb(0,0,0)"/>
<path d="M21 36h1v3h-1v-3z" fill="rgb(74,65,49)"/>
<path d="M22 36h3v2h-2v-1h-1v-1z" fill="rgb(180,180,156)"/>
<path d="M25 36h1v3h-1v-3z" fill="rgb(74,65,49)"/>
<path d="M29 36h1v3h-2v-1h1v-2z" fill="rgb(0,0,0)"/>
<path d="M30 36h1v1h-1v-1z" fill="rgb(180,180,156)"/>
<path d="M31 36h1v1h-1v-1z" fill="rgb(106,106,82)"/>
<path d="M32 36h1v1h-1v-1z" fill="rgb(74,65,49)"/>
<path d="M33 36h1v1h-1v-1z" fill="rgb(180,180,156)"/>
<path d="M34 36h1v1h-1v-1z" fill="rgb(0,0,0)"/>
<path d="M35 36h1v1h-1v-1z" fill="rgb(106,106,82)"/>
<path d="M41 36h1v1h-1v-1z" fill="rgb(74,65,49)"/>
<path d="M53 36h1v1h-1v-1z" fill="rgb(106,106,82)"/>
<path d="M54 36h2v1h-2v-1z" fill="rgb(74,65,49)"/>
<path d="M56 36h1v1h-1v-1z" fill="rgb(0,0,0)"/>
<path d="M60 36h3v1h-3v-1z" fill="rgb(74,65,49)"/>
<path d="M70 36h1v2h-1v-2z" fill="rgb(0,0,0)"/>
<path d="M13 37h1v4h-1v-4z" fill="rgb(74,65,49)"/>
<path d="M14 37h1v1h-1v-1z" fill="rgb(148,139,123)"/>
<path d="M15 37h2v2h-2v-2z" fill="rgb(180,180,156)"/>
<path d="M17 37h1v2h-1v-2z" fill="rgb(148,139,123)"/>
<path d="M22 37h1v1h2v1h-3v-2z" fill="rgb(148,139,123)"/>
<path d="M30 37h1v1h-1v-1z" fill="rgb(148,139,123)"/>
<path d="M31 37h1v2h-1v-2z" fill="rgb(0,0,0)"/>
<path d="M32 37h1v1h1v1h-2v-2z" fill="rgb(180,180,156)"/>
<path d="M33 37h1v1h-1v-1z" fill="rgb(213,213,172)"/>
<path d="M53 37h1v1h-1v-1z" fill="rgb(74,65,49)"/>
<path d="M54 37h2v1h-1v1h-2v-1h1v-1z" fill="rgb(213,213,172)"/>
<path d="M57 37h1v3h-1v-3z" fill="rgb(0,0,0)"/>
<path d="M63 37h1v1h-1v-1z" fill="rgb(74,65,49)"/>
<path d="M68 37h2v1h-2v-1z" fill="rgb(74,65,49)"/>
<path d="M74 37h1v1h-1v-1z" fill="rgb(0,0,0)"/>
<path d="M75 37h1v1h1v1h-2v1h-1v-2h1v-1z" fill="rgb(74,65,49)"/>
<path d="M76 37h1v1h-1v-1z" fill="rgb(148,139,123)"/>
<path d="M77 37h1v1h-1v-1z" fill="rgb(74,65,49)"/>
<path d="M14 38h1v1h-1v-1z" fill="rgb(106,106,82)"/>
<path d="M18 38h1v3h-2v-2h1v-1z" fill="rgb(106,106,82)"/>
<path d="M20 38h1v1h1v1h-1v1h-1v-3z" fill="rgb(106,106,82)"/>
<path d="M30 38h1v1h-1v-1z" fill="rgb(106,106,82)"/>
<path d="M34 38h1v1h-1v-1z" fill="rgb(213,213,172)"/>
<path d="M38 38h2v1h1v1h-2v-1h-1v-1z" fill="rgb(213,213,172)"/>
<path d="M45 38h1v1h-1v-1z" fill="rgb(106,106,82)"/>
<path d="M46 38h3v1h-1v1h-2v1h-2v-1h1v-1h1v-1z" fill="rgb(213,213,172)"/>
<path d="M62 38h1v1h-1v-1z" fill="rgb(106,106,82)"/>
<path d="M63 38h2v1h-2v-1z" fill="rgb(0,0,0)"/>
<path d="M67 38h1v3h-1v-3z" fill="rgb(74,65,49)"/>
<path d="M68 38h3v2h-3v-2z" fill="rgb(180,180,156)"/>
<path d="M71 38h1v3h-1v-3z" fill="rgb(74,65,49)"/>
<path d="M73 38h1v5h-1v-3h-1v-1h1v-1z" fill="rgb(0,0,0)"/>
<path d="M77 38h1v1h-1v-1z" fill="rgb(148,139,123)"/>
<path d="M78 38h1v1h-1v-1z" fill="rgb(74,65,49)"/>
<path d="M14 39h1v2h-1v-2z" fill="rgb(148,139,123)"/>
<path d="M15 39h1v1h-1v-1z" fill="rgb(0,0,0)"/>
<path d="M16 39h1v1h-1v-1z" fill="rgb(148,139,123)"/>
<path d="M22 39h1v1h-1v-1z" fill="rgb(74,65,49)"/>
<path d="M23 39h2v1h-1v1h-1v-2z" fill="rgb(0,0,0)"/>
<path d="M27 39h1v1h-1v-1z" fill="rgb(0,0,0)"/>
<path d="M28 39h1v1h-1v-1z" fill="rgb(148,139,123)"/>
<path d="M29 39h1v3h-1v-3z" fill="rgb(74,65,49)"/>
<path d="M30 39h1v1h-1v-1z" fill="rgb(148,139,123)"/>
<path d="M32 39h1v1h-1v-1z" fill="rgb(0,0,0)"/>
<path d="M33 39h1v1h-1v-1z" fill="rgb(74,65,49)"/>
<path d="M35 39h1v1h-1v-1z" fill="rgb(106,106,82)"/>
<path d="M36 39h1v1h-1v-1z" fill="rgb(0,0,0)"/>
<path d="M37 39h1v1h-1v-1z" fill="rgb(74,65,49)"/>
<path d="M38 39h1v1h-1v-1z" fill="rgb(180,180,156)"/>
<path d="M44 39h1v1h-1v-1z" fill="rgb(106,106,82)"/>
<path d="M56 39h1v1h-1v-1z" fill="rgb(74,65,49)"/>
<path d="M61 39h1v1h-1v-1z" fill="rgb(106,106,82)"/>
<path d="M62 39h2v1h-1v1h-2v-1h1v-1z" fill="rgb(180,180,156)"/>
<path d="M64 39h1v1h-1v-1z" fill="rgb(148,139,123)"/>
<path d="M65 39h1v2h-2v-1h1v-1z" fill="rgb(74,65,49)"/>
<path d="M75 39h1v2h-1v-2z" fill="rgb(148,139,123)"/>
<path d="M76 39h2v2h-2v-2z" fill="rgb(180,180,156)"/>
<path d="M78 39h1v1h-1v-1z" fill="rgb(148,139,123)"/>
<path d="M79 39h1v4h-1v-4z" fill="rgb(74,65,49)"/>
<path d="M15 40h1v1h-1v-1z" fill="rgb(106,106,82)"/>
<path d="M16 40h1v1h-1v-1z" fill="rgb(0,0,0)"/>
<path d="M21 40h1v3h-2v1h-2v-1h-2v-1h-1v-1h2v1h2v-1h2v-1z" fill="rgb(148,139,123)"/>
<path d="M22 40h1v1h-1v-1z" fill="rgb(106,106,82)"/>
<path d="M26 40h1v1h-1v-1z" fill="rgb(0,0,0)"/>
<path d="M27 40h1v1h-1v-1z" fill="rgb(180,180,156)"/>
<path d="M28 40h1v2h-1v-2z" fill="rgb(106,106,82)"/>
<path d="M33 40h1v1h-1v-1z" fill="rgb(106,106,82)"/>
<path d="M36 40h2v1h-2v-1z" fill="rgb(222,213,222)"/>
<path d="M38 40h2v1h-2v-1z" fill="rgb(74,65,49)"/>
<path d="M43 40h1v2h-1v-2z" fill="rgb(74,65,49)"/>
<path d="M46 40h1v1h-1v-1z" fill="rgb(180,180,156)"/>
<path d="M47 40h1v1h-1v-1z" fill="rgb(106,106,82)"/>
<path d="M48 40h2v1h-2v-1z" fill="rgb(74,65,49)"/>
<path d="M50 40h2v2h-1v-1h-1v-1z" fill="rgb(0,0,0)"/>
<path d="M52 40h1v1h-1v-1z" fill="rgb(106,106,82)"/>
<path d="M54 40h1v1h-1v-1z" fill="rgb(74,65,49)"/>
<path d="M55 40h1v1h-1v-1z" fill="rgb(0,0,0)"/>
<path d="M60 40h1v1h-1v-1z" fill="rgb(106,106,82)"/>
<path d="M63 40h1v2h-3v1h-1v-2h3v-1z" fill="rgb(148,139,123)"/>
<path d="M68 40h3v1h-3v-1z" fill="rgb(106,106,82)"/>
<path d="M72 40h1v3h-1v-1h-1v-1h1v-1z" fill="rgb(106,106,82)"/>
<path d="M74 40h1v1h1v2h-2v-3z" fill="rgb(106,106,82)"/>
<path d="M78 40h1v1h-1v-1z" fill="rgb(106,106,82)"/>
<path d="M14 41h1v1h-1v-1z" fill="rgb(0,0,0)"/>
<path d="M17 41h2v1h-2v-1z" fill="rgb(74,65,49)"/>
<path d="M22 41h1v2h-1v-2z" fill="rgb(0,0,0)"/>
<path d="M23 41h1v1h1v2h-1v-1h-1v-2z" fill="rgb(148,139,123)"/>
<path d="M24 41h2v3h-1v-2h-1v-1z" fill="rgb(0,0,0)"/>
<path d="M26 41h1v1h-1v-1z" fill="rgb(180,180,156)"/>
<path d="M27 41h1v1h-1v-1z" fill="rgb(148,139,123)"/>
<path d="M36 41h1v1h-1v-1z" fill="rgb(148,139,123)"/>
<path d="M37 41h2v1h-2v-1z" fill="rgb(255,255,255)"/>
<path d="M39 41h1v1h-1v-1z" fill="rgb(0,0,0)"/>
<path d="M40 41h1v1h-1v-1z" fill="rgb(74,65,49)"/>
<path d="M44 41h1v1h-1v-1z" fill="rgb(180,180,156)"/>
<path d="M45 41h2v1h-2v-1z" fill="rgb(74,65,49)"/>
<path d="M47 41h2v1h-2v-1z" fill="rgb(222,213,222)"/>
<path d="M49 41h2v1h-1v1h-3v-1h2v-1z" fill="rgb(255,255,255)"/>
<path d="M64 41h2v2h1v3h-1v-1h-2v1h-3v-1h2v-2h1v-2z" fill="rgb(106,106,82)"/>
<path d="M66 41h1v2h-1v-2z" fill="rgb(74,65,49)"/>
<path d="M67 41h1v1h1v1h-2v-2z" fill="transparent"/>
<path d="M68 41h2v2h-1v-1h-1v-1z" fill="rgb(0,0,0)"/>
<path d="M70 41h1v1h-1v-1z" fill="rgb(74,65,49)"/>
<path d="M76 41h1v1h-1v-1z" fill="rgb(148,139,123)"/>
<path d="M77 41h1v1h-1v-1z" fill="rgb(0,0,0)"/>
<path d="M78 41h1v2h-1v-2z" fill="rgb(148,139,123)"/>
<path d="M15 42h1v1h-1v-1z" fill="rgb(0,0,0)"/>
<path d="M26 42h1v1h-1v-1z" fill="rgb(148,139,123)"/>
<path d="M27 42h1v1h-1v-1z" fill="rgb(106,106,82)"/>
<path d="M28 42h1v1h-1v-1z" fill="rgb(0,0,0)"/>
<path d="M35 42h1v1h-1v-1z" fill="rgb(106,106,82)"/>
<path d="M42 42h1v1h-1v-1z" fill="rgb(148,139,123)"/>
<path d="M44 42h1v1h-1v-1z" fill="rgb(74,65,49)"/>
<path d="M45 42h1v1h-1v-1z" fill="rgb(255,255,255)"/>
<path d="M46 42h1v1h-1v-1z" fill="rgb(0,0,0)"/>
<path d="M50 42h1v1h-1v-1z" fill="rgb(222,213,222)"/>
<path d="M51 42h1v1h-1v-1z" fill="rgb(106,106,82)"/>
<path d="M55 42h1v1h-1v-1z" fill="rgb(106,106,82)"/>
<path d="M56 42h1v1h-1v-1z" fill="rgb(74,65,49)"/>
<path d="M70 42h1v1h-1v-1z" fill="rgb(106,106,82)"/>
<path d="M71 42h1v1h2v1h2v-1h2v1h-1v1h-2v1h-2v-1h-2v-3z" fill="rgb(148,139,123)"/>
<path d="M76 42h1v1h-1v-1z" fill="rgb(0,0,0)"/>
<path d="M77 42h1v1h-1v-1z" fill="rgb(106,106,82)"/>
<path d="M16 43h1v1h-1v-1z" fill="rgb(74,65,49)"/>
<path d="M17 43h1v1h-1v-1z" fill="rgb(0,0,0)"/>
<path d="M20 43h1v1h-1v-1z" fill="rgb(106,106,82)"/>
<path d="M21 43h1v1h-1v-1z" fill="rgb(0,0,0)"/>
<path d="M22 43h2v1h2v2h-1v1h-1v-1h-1v-1h-2v-1h1v-1z" fill="rgb(106,106,82)"/>
<path d="M26 43h1v1h-1v-1z" fill="rgb(106,106,82)"/>
<path d="M27 43h1v2h-1v-2z" fill="rgb(180,180,156)"/>
<path d="M28 43h1v1h-1v-1z" fill="rgb(74,65,49)"/>
<path d="M31 43h2v1h-2v-1z" fill="rgb(213,213,172)"/>
<path d="M35 43h1v1h-1v-1z" fill="rgb(74,65,49)"/>
<path d="M54 43h1v1h-1v-1z" fill="rgb(106,106,82)"/>
<path d="M55 43h1v1h-1v-1z" fill="rgb(213,213,172)"/>
<path d="M56 43h1v1h-1v-1z" fill="rgb(180,180,156)"/>
<path d="M57 43h1v2h-1v-2z" fill="rgb(74,65,49)"/>
<path d="M62 43h1v2h-3v-1h2v-1z" fill="rgb(148,139,123)"/>
<path d="M67 43h1v1h-1v-1z" fill="rgb(74,65,49)"/>
<path d="M68 43h1v1h-1v-1z" fill="rgb(0,0,0)"/>
<path d="M69 43h1v2h-1v1h-1v-2h1v-1z" fill="rgb(148,139,123)"/>
<path d="M70 43h1v2h-1v-2z" fill="rgb(0,0,0)"/>
<path d="M74 43h2v1h-2v-1z" fill="rgb(74,65,49)"/>
<path d="M78 43h1v1h-1v-1z" fill="rgb(0,0,0)"/>
<path d="M17 44h1v1h-1v-1z" fill="rgb(74,65,49)"/>
<path d="M18 44h2v1h-2v-1z" fill="rgb(0,0,0)"/>
<path d="M20 44h1v1h-1v-1z" fill="rgb(74,65,49)"/>
<path d="M26 44h1v2h-1v-2z" fill="rgb(0,0,0)"/>
<path d="M28 44h1v4h1v2h1v1h1v1h-4v-1h-1v-1h1v-2h-1v-2h1v-2z" fill="rgb(148,139,123)"/>
<path d="M31 44h1v1h-1v-1z" fill="rgb(106,106,82)"/>
<path d="M35 44h3v1h-3v-1z" fill="rgb(106,106,82)"/>
<path d="M38 44h7v2h-1v-1h-2v1h-1v-1h-3v-1z" fill="rgb(74,65,49)"/>
<path d="M45 44h1v1h-1v-1z" fill="rgb(106,106,82)"/>
<path d="M52 44h1v2h-1v-2z" fill="rgb(74,65,49)"/>
<path d="M54 44h1v1h-1v-1z" fill="rgb(74,65,49)"/>
<path d="M55 44h1v1h-1v-1z" fill="rgb(180,180,156)"/>
<path d="M56 44h1v2h-2v-1h1v-1z" fill="rgb(148,139,123)"/>
<path d="M67 44h1v2h-1v-2z" fill="rgb(0,0,0)"/>
<path d="M77 44h1v1h-1v-1z" fill="rgb(0,0,0)"/>
<path d="M17 45h1v2h-1v-2z" fill="rgb(0,0,0)"/>
<path d="M18 45h3v1h-3v-1z" fill="rgb(106,106,82)"/>
<path d="M21 45h2v1h1v1h1v2h-2v-1h-2v-1h-1v1h-1v-1h-1v-1h3v-1z" fill="rgb(148,139,123)"/>
<path d="M27 45h1v1h-1v-1z" fill="rgb(74,65,49)"/>
<path d="M29 45h1v2h-1v-2z" fill="rgb(106,106,82)"/>
<path d="M32 45h1v1h-1v-1z" fill="rgb(106,106,82)"/>
<path d="M33 45h1v1h-1v-1z" fill="rgb(74,65,49)"/>
<path d="M37 45h1v1h-1v-1z" fill="rgb(74,65,49)"/>
<path d="M38 45h1v1h-1v-1z" fill="rgb(222,213,222)"/>
<path d="M39 45h2v2h-1v-1h-1v-1z" fill="rgb(255,255,255)"/>
<path d="M42 45h2v3h-1v-1h-1v-2z" fill="rgb(255,255,255)"/>
<path d="M45 45h1v1h-1v-1z" fill="rgb(222,213,222)"/>
<path d="M46 45h1v1h-1v-1z" fill="rgb(131,123,131)"/>
<path d="M47 45h4v1h-4v-1z" fill="rgb(74,65,49)"/>
<path d="M51 45h1v1h-1v-1z" fill="rgb(0,0,0)"/>
<path d="M60 45h1v1h-1v-1z" fill="rgb(74,65,49)"/>
<path d="M64 45h1v1h-1v-1z" fill="rgb(74,65,49)"/>
<path d="M65 45h1v1h-1v-1z" fill="rgb(0,0,0)"/>
<path d="M69 45h2v1h1v1h-2v1h-1v1h-1v-1h-1v-2h2v-1z" fill="rgb(106,106,82)"/>
<path d="M71 45h1v1h-1v-1z" fill="rgb(0,0,0)"/>
<path d="M72 45h1v1h-1v-1z" fill="rgb(106,106,82)"/>
<path d="M75 45h1v1h-1v-1z" fill="rgb(0,0,0)"/>
<path d="M76 45h1v1h-1v-1z" fill="rgb(74,65,49)"/>
<path d="M25 46h2v1h-1v1h-1v-2z" fill="rgb(74,65,49)"/>
<path d="M30 46h1v1h-1v-1z" fill="rgb(74,65,49)"/>
<path d="M38 46h1v1h-1v-1z" fill="rgb(74,65,49)"/>
<path d="M39 46h1v1h-1v-1z" fill="rgb(131,123,131)"/>
<path d="M41 46h1v1h-1v-1z" fill="rgb(131,123,131)"/>
<path d="M44 46h1v2h-1v-2z" fill="rgb(131,123,131)"/>
<path d="M45 46h3v1h-1v1h-2v-2z" fill="rgb(255,255,255)"/>
<path d="M48 46h2v1h-2v-1z" fill="rgb(222,213,222)"/>
<path d="M50 46h1v1h-1v-1z" fill="rgb(0,0,0)"/>
<path d="M60 46h1v2h1v1h1v1h1v2h-1v1h-1v2h-1v-1h-1v2h-1v1h-3v1h-3v1h-2v-2h2v-1h2v-1h2v-2
	h2v-1h1v-1h1v-1h-1v-2h-1v-1h1v-1z" fill="rgb(148,139,123)"/>
<path d="M61 46h2v1h-2v-1z" fill="rgb(74,65,49)"/>
<path d="M63 46h1v1h-1v-1z" fill="rgb(0,0,0)"/>
<path d="M64 46h2v3h-1v2h-1v-3h-1v-1h1v-1z" fill="rgb(106,106,82)"/>
<path d="M66 46h1v3h-1v-3z" fill="rgb(0,0,0)"/>
<path d="M72 46h1v1h-1v-1z" fill="rgb(74,65,49)"/>
<path d="M73 46h2v1h-2v-1z" fill="rgb(0,0,0)"/>
<path d="M75 46h1v1h-1v-1z" fill="rgb(74,65,49)"/>
<path d="M17 47h2v2h-1v-1h-1v-1z" fill="rgb(74,65,49)"/>
<path d="M20 47h1v2h-1v-2z" fill="rgb(74,65,49)"/>
<path d="M26 47h1v2h-1v-2z" fill="rgb(180,180,156)"/>
<path d="M29 47h2v2h-1v-1h-1v-1z" fill="rgb(180,180,156)"/>
<path d="M31 47h1v2h-1v-2z" fill="rgb(74,65,49)"/>
<path d="M40 47h1v1h-1v-1z" fill="rgb(0,0,0)"/>
<path d="M41 47h1v1h-1v-1z" fill="rgb(74,65,49)"/>
<path d="M42 47h1v1h-1v-1z" fill="rgb(131,123,131)"/>
<path d="M47 47h1v1h-1v-1z" fill="rgb(131,123,131)"/>
<path d="M48 47h1v1h-1v-1z" fill="rgb(0,0,0)"/>
<path d="M49 47h1v1h-1v-1z" fill="rgb(74,65,49)"/>
<path d="M61 47h2v1h1v2h-1v-1h-1v-1h-1v-1z" fill="rgb(180,180,156)"/>
<path d="M70 47h2v1h3v1h-1v1h-1v-1h-1v1h-2v1h-2v-2h1v-1h1v-1z" fill="rgb(148,139,123)"/>
<path d="M72 47h3v1h-3v-1z" fill="rgb(106,106,82)"/>
<path d="M75 47h1v2h-1v-2z" fill="rgb(0,0,0)"/>
<path d="M19 48h1v1h-1v-1z" fill="rgb(106,106,82)"/>
<path d="M21 48h2v1h1v2h-2v-2h-1v-1z" fill="rgb(106,106,82)"/>
<path d="M25 48h1v2h-1v-2z" fill="rgb(0,0,0)"/>
<path d="M27 48h1v2h-1v-2z" fill="rgb(106,106,82)"/>
<path d="M42 48h1v1h-1v-1z" fill="rgb(106,106,82)"/>
<path d="M43 48h1v1h-1v-1z" fill="rgb(74,65,49)"/>
<path d="M44 48h2v1h-2v-1z" fill="rgb(0,0,0)"/>
<path d="M46 48h1v1h-1v-1z" fill="rgb(74,65,49)"/>
<path d="M47 48h1v1h-1v-1z" fill="rgb(148,139,123)"/>
<path d="M58 48h1v1h-1v-1z" fill="rgb(0,0,0)"/>
<path d="M59 48h1v1h-1v-1z" fill="rgb(74,65,49)"/>
<path d="M67 48h1v2h-1v-2z" fill="rgb(74,65,49)"/>
<path d="M19 49h1v1h-1v-1z" fill="rgb(74,65,49)"/>
<path d="M20 49h1v1h-1v-1z" fill="rgb(106,106,82)"/>
<path d="M21 49h1v1h-1v-1z" fill="rgb(74,65,49)"/>
<path d="M24 49h1v1h-1v-1z" fill="rgb(74,65,49)"/>
<path d="M26 49h1v1h-1v-1z" fill="rgb(148,139,123)"/>
<path d="M30 49h2v1h-2v-1z" fill="rgb(106,106,82)"/>
<path d="M32 49h3v1h-3v-1z" fill="rgb(74,65,49)"/>
<path d="M39 49h1v1h-1v-1z" fill="rgb(106,106,82)"/>
<path d="M40 49h1v1h-1v-1z" fill="rgb(74,65,49)"/>
<path d="M41 49h1v1h-1v-1z" fill="rgb(148,139,123)"/>
<path d="M56 49h1v1h-1v-1z" fill="rgb(148,139,123)"/>
<path d="M57 49h1v1h-1v-1z" fill="rgb(0,0,0)"/>
<path d="M58 49h2v1h-1v1h-1v1h-1v-2h1v-1z" fill="rgb(180,180,156)"/>
<path d="M65 49h1v1h-1v-1z" fill="rgb(74,65,49)"/>
<path d="M66 49h1v1h-1v-1z" fill="rgb(106,106,82)"/>
<path d="M72 49h1v2h-1v-2z" fill="rgb(74,65,49)"/>
<path d="M74 49h1v1h-1v-1z" fill="rgb(106,106,82)"/>
<path d="M75 49h1v1h-1v-1z" fill="rgb(74,65,49)"/>
<path d="M20 50h2v1h-2v-1z" fill="rgb(0,0,0)"/>
<path d="M24 50h1v1h-1v-1z" fill="rgb(0,0,0)"/>
<path d="M26 50h1v1h-1v-1z" fill="rgb(74,65,49)"/>
<path d="M31 50h3v2h-1v1h2v1h1v2h-1v-1h-2v1h1v1h1v1h-2v-1h-2v-1h1v-3h-1v-1h1v-1h-1v-1z" fill="rgb(180,180,156)"/>
<path d="M34 50h1v2h-1v-2z" fill="rgb(148,139,123)"/>
<path d="M35 50h1v1h-1v-1z" fill="rgb(74,65,49)"/>
<path d="M41 50h1v1h-1v-1z" fill="rgb(74,65,49)"/>
<path d="M42 50h2v1h-2v-1z" fill="rgb(0,0,0)"/>
<path d="M44 50h1v1h-1v-1z" fill="rgb(74,65,49)"/>
<path d="M49 50h4v1h-4v-1z" fill="rgb(74,65,49)"/>
<path d="M55 50h1v1h-1v-1z" fill="rgb(148,139,123)"/>
<path d="M56 50h1v1h-1v-1z" fill="rgb(0,0,0)"/>
<path d="M59 50h1v1h-1v-1z" fill="rgb(148,139,123)"/>
<path d="M60 50h1v1h-1v-1z" fill="rgb(74,65,49)"/>
<path d="M65 50h3v2h-1v-1h-2v-1z" fill="rgb(0,0,0)"/>
<path d="M70 50h2v1h-1v2h-2v-2h1v-1z" fill="rgb(106,106,82)"/>
<path d="M73 50h1v1h-1v-1z" fill="rgb(106,106,82)"/>
<path d="M74 50h1v1h-1v-1z" fill="rgb(74,65,49)"/>
<path d="M22 51h2v1h-2v-1z" fill="rgb(0,0,0)"/>
<path d="M26 51h1v2h-1v-2z" fill="rgb(0,0,0)"/>
<path d="M27 51h1v1h-1v-1z" fill="rgb(106,106,82)"/>
<path d="M35 51h1v2h-2v-1h1v-1z" fill="rgb(0,0,0)"/>
<path d="M48 51h1v1h-1v-1z" fill="rgb(74,65,49)"/>
<path d="M49 51h3v1h4v1h1v2h-2v1h-4v1h-3v-1h2v-1h3v-1h-1v-1h-2v-1h-1v-1z" fill="rgb(180,180,156)"/>
<path d="M52 51h1v1h-1v-1z" fill="rgb(148,139,123)"/>
<path d="M53 51h4v1h-4v-1z" fill="rgb(74,65,49)"/>
<path d="M58 51h1v1h-1v-1z" fill="rgb(148,139,123)"/>
<path d="M59 51h1v1h-1v-1z" fill="rgb(74,65,49)"/>
<path d="M64 51h1v1h-1v-1z" fill="rgb(74,65,49)"/>
<path d="M68 51h1v2h-1v-2z" fill="rgb(74,65,49)"/>
<path d="M71 51h1v1h-1v-1z" fill="rgb(74,65,49)"/>
<path d="M72 51h1v1h-1v-1z" fill="rgb(106,106,82)"/>
<path d="M73 51h1v1h-1v-1z" fill="rgb(0,0,0)"/>
<path d="M27 52h1v1h-1v-1z" fill="rgb(74,65,49)"/>
<path d="M28 52h2v2h-1v1h-1v-3z" fill="rgb(180,180,156)"/>
<path d="M30 52h1v1h-1v-1z" fill="rgb(106,106,82)"/>
<path d="M33 52h1v1h-1v-1z" fill="rgb(74,65,49)"/>
<path d="M36 52h1v1h-1v-1z" fill="rgb(148,139,123)"/>
<path d="M39 52h4v1h2v1h2v-1h2v1h-1v1h-1v2h1v2h1v1h4v-1h3v-1h3v1h-1v2h-6v2h-4v-2h-4v1h-1
	v1h-2v-2h-1v-1h-2v-1h-2v-1h1v-2h1v-2h-1v-1h2v-1z" fill="rgb(148,139,123)"/>
<path d="M48 52h1v1h-1v-1z" fill="rgb(0,0,0)"/>
<path d="M49 52h1v1h-1v-1z" fill="rgb(148,139,123)"/>
<path d="M56 52h1v1h-1v-1z" fill="rgb(148,139,123)"/>
<path d="M57 52h1v1h-1v-1z" fill="rgb(74,65,49)"/>
<path d="M58 52h1v1h-1v-1z" fill="rgb(106,106,82)"/>
<path d="M63 52h1v1h-1v-1z" fill="rgb(74,65,49)"/>
<path d="M64 52h1v3h-1v-3z" fill="rgb(0,0,0)"/>
<path d="M71 52h1v1h-1v-1z" fill="rgb(0,0,0)"/>
<path d="M72 52h1v1h-1v-1z" fill="rgb(74,65,49)"/>
<path d="M27 53h1v2h-1v-2z" fill="rgb(0,0,0)"/>
<path d="M30 53h1v3h-2v-2h1v-1z" fill="rgb(148,139,123)"/>
<path d="M31 53h1v2h-1v-2z" fill="rgb(106,106,82)"/>
<path d="M35 53h2v1h-2v-1z" fill="rgb(74,65,49)"/>
<path d="M49 53h1v1h-1v-1z" fill="rgb(0,0,0)"/>
<path d="M50 53h2v1h-2v-1z" fill="rgb(74,65,49)"/>
<path d="M62 53h1v1h-1v-1z" fill="rgb(74,65,49)"/>
<path d="M63 53h1v2h-1v-2z" fill="rgb(148,139,123)"/>
<path d="M69 53h2v1h-2v-1z" fill="rgb(0,0,0)"/>
<path d="M36 54h1v2h-1v-2z" fill="rgb(148,139,123)"/>
<path d="M37 54h1v2h-1v-2z" fill="rgb(0,0,0)"/>
<path d="M48 54h2v1h-2v-1z" fill="rgb(74,65,49)"/>
<path d="M50 54h1v1h-1v-1z" fill="rgb(0,0,0)"/>
<path d="M51 54h2v1h-2v-1z" fill="rgb(148,139,123)"/>
<path d="M60 54h1v2h-1v-2z" fill="rgb(74,65,49)"/>
<path d="M62 54h1v1h-1v-1z" fill="rgb(0,0,0)"/>
<path d="M28 55h1v1h-1v-1z" fill="rgb(0,0,0)"/>
<path d="M31 55h1v1h-1v-1z" fill="rgb(74,65,49)"/>
<path d="M33 55h1v1h-1v-1z" fill="rgb(106,106,82)"/>
<path d="M34 55h1v1h-1v-1z" fill="rgb(74,65,49)"/>
<path d="M47 55h1v1h-1v-1z" fill="rgb(74,65,49)"/>
<path d="M48 55h2v1h-2v-1z" fill="rgb(148,139,123)"/>
<path d="M61 55h1v1h-1v-1z" fill="rgb(0,0,0)"/>
<path d="M62 55h1v2h-1v1h-3v-1h2v-1h1v-1z" fill="rgb(148,139,123)"/>
<path d="M63 55h1v3h-1v-3z" fill="rgb(0,0,0)"/>
<path d="M29 56h1v1h-1v-1z" fill="rgb(0,0,0)"/>
<path d="M30 56h1v1h-1v-1z" fill="rgb(74,65,49)"/>
<path d="M34 56h1v1h-1v-1z" fill="rgb(148,139,123)"/>
<path d="M35 56h1v1h-1v-1z" fill="rgb(74,65,49)"/>
<path d="M36 56h1v2h-1v-2z" fill="rgb(0,0,0)"/>
<path d="M43 56h3v1h-2v1h-1v1h-1v-2h1v-1z" fill="rgb(180,180,156)"/>
<path d="M47 56h1v1h-1v-1z" fill="rgb(0,0,0)"/>
<path d="M51 56h1v1h-1v-1z" fill="rgb(74,65,49)"/>
<path d="M52 56h1v1h-1v-1z" fill="rgb(106,106,82)"/>
<path d="M59 56h1v1h-1v-1z" fill="rgb(74,65,49)"/>
<path d="M60 56h1v1h-1v-1z" fill="rgb(0,0,0)"/>
<path d="M30 57h2v1h-2v-1z" fill="rgb(0,0,0)"/>
<path d="M32 57h1v1h-1v-1z" fill="rgb(106,106,82)"/>
<path d="M35 57h1v1h-1v-1z" fill="rgb(148,139,123)"/>
<path d="M48 57h2v1h-2v-1z" fill="rgb(0,0,0)"/>
<path d="M50 57h1v1h-1v-1z" fill="rgb(74,65,49)"/>
<path d="M56 57h1v1h-1v-1z" fill="rgb(74,65,49)"/>
<path d="M57 57h2v1h-2v-1z" fill="rgb(0,0,0)"/>
<path d="M62 57h1v1h-1v-1z" fill="rgb(74,65,49)"/>
<path d="M31 58h2v1h-2v-1z" fill="rgb(74,65,49)"/>
<path d="M33 58h3v1h-3v-1z" fill="rgb(0,0,0)"/>
<path d="M41 58h1v1h-1v-1z" fill="rgb(74,65,49)"/>
<path d="M46 58h1v1h-1v-1z" fill="rgb(74,65,49)"/>
<path d="M48 58h1v1h-1v-1z" fill="rgb(74,65,49)"/>
<path d="M49 58h2v1h-2v-1z" fill="rgb(180,180,156)"/>
<path d="M53 58h1v1h-1v-1z" fill="rgb(74,65,49)"/>
<path d="M54 58h2v1h-2v-1z" fill="rgb(0,0,0)"/>
<path d="M59 58h1v1h-1v-1z" fill="rgb(106,106,82)"/>
<path d="M60 58h1v1h-1v-1z" fill="rgb(74,65,49)"/>
<path d="M61 58h1v1h-1v-1z" fill="rgb(106,106,82)"/>
<path d="M62 58h1v1h-1v-1z" fill="rgb(0,0,0)"/>
<path d="M33 59h2v1h-2v-1z" fill="rgb(74,65,49)"/>
<path d="M35 59h3v1h1v1h1v1h-2v-1h-1v-1h-2v-1z" fill="rgb(106,106,82)"/>
<path d="M42 59h2v1h-2v-1z" fill="rgb(74,65,49)"/>
<path d="M44 59h2v1h-2v-1z" fill="rgb(0,0,0)"/>
<path d="M49 59h4v1h-4v-1z" fill="rgb(0,0,0)"/>
<path d="M58 59h1v1h-1v-1z" fill="rgb(106,106,82)"/>
<path d="M59 59h1v1h-1v-1z" fill="rgb(74,65,49)"/>
<path d="M60 59h2v1h-2v-1z" fill="rgb(0,0,0)"/>
<path d="M35 60h1v1h1v1h-2v-2z" fill="rgb(74,65,49)"/>
<path d="M36 60h1v1h-1v-1z" fill="rgb(0,0,0)"/>
<path d="M39 60h1v1h-1v-1z" fill="rgb(74,65,49)"/>
<path d="M58 60h1v1h1v1h-3v-1h1v-1z" fill="rgb(0,0,0)"/>
<path d="M37 61h1v1h-1v-1z" fill="rgb(0,0,0)"/>
<path d="M40 61h1v1h-1v-1z" fill="rgb(74,65,49)"/>
<path d="M44 61h4v1h-4v-1z" fill="rgb(106,106,82)"/>
<path d="M52 61h1v1h-1v-1z" fill="rgb(74,65,49)"/>
<path d="M53 61h3v1h-3v-1z" fill="rgb(106,106,82)"/>
<path d="M56 61h1v1h-1v-1z" fill="rgb(74,65,49)"/>
<path d="M36 62h2v1h3v1h1v1h1v2h-3v1h-2v-2h-1v-1h-2v-1h2v-1h-1v-1z" fill="rgb(106,106,82)"/>
<path d="M38 62h1v1h-1v-1z" fill="rgb(74,65,49)"/>
<path d="M39 62h2v1h-2v-1z" fill="rgb(0,0,0)"/>
<path d="M43 62h1v1h-1v-1z" fill="rgb(74,65,49)"/>
<path d="M44 62h3v1h-3v-1z" fill="rgb(0,0,0)"/>
<path d="M47 62h1v1h-1v-1z" fill="rgb(74,65,49)"/>
<path d="M52 62h2v1h-2v-1z" fill="rgb(0,0,0)"/>
<path d="M54 62h2v1h-2v-1z" fill="rgb(74,65,49)"/>
<path d="M56 62h4v1h-2v1h-1v2h-2v-1h-3v-2h4v-1z" fill="rgb(106,106,82)"/>
<path d="M60 62h2v1h-2v-1z" fill="rgb(0,0,0)"/>
<path d="M35 63h2v1h-2v-1z" fill="rgb(74,65,49)"/>
<path d="M41 63h2v2h-1v-1h-1v-1z" fill="rgb(0,0,0)"/>
<path d="M48 63h4v2h-1v-1h-3v-1z" fill="rgb(0,0,0)"/>
<path d="M58 63h4v1h1v1h1v2h-2v-2h-1v-1h-2v1h2v2h-4v-3h1v-1z" fill="rgb(148,139,123)"/>
<path d="M62 63h1v1h-1v-1z" fill="rgb(0,0,0)"/>
<path d="M33 64h1v1h-1v-1z" fill="rgb(0,0,0)"/>
<path d="M34 64h1v1h-1v-1z" fill="rgb(74,65,49)"/>
<path d="M59 64h2v1h-2v-1z" fill="rgb(74,65,49)"/>
<path d="M63 64h1v1h-1v-1z" fill="rgb(0,0,0)"/>
<path d="M32 65h1v1h-1v-1z" fill="rgb(0,0,0)"/>
<path d="M33 65h4v1h1v3h-4v-2h-1v2h-2v-2h1v-1h1v-1z" fill="rgb(148,139,123)"/>
<path d="M43 65h1v2h-1v-2z" fill="rgb(0,0,0)"/>
<path d="M52 65h3v1h-3v-1z" fill="rgb(0,0,0)"/>
<path d="M61 65h1v1h-1v-1z" fill="rgb(74,65,49)"/>
<path d="M64 65h1v2h-1v-2z" fill="rgb(0,0,0)"/>
<path d="M31 66h1v1h-1v-1z" fill="rgb(0,0,0)"/>
<path d="M34 66h2v1h-2v-1z" fill="rgb(74,65,49)"/>
<path d="M55 66h2v1h4v-1h1v1h2v1h-8v-1h-1v-1z" fill="rgb(0,0,0)"/>
<path d="M30 67h1v2h-1v-2z" fill="rgb(0,0,0)"/>
<path d="M33 67h1v1h-1v-1z" fill="rgb(74,65,49)"/>
<path d="M40 67h3v1h-3v-1z" fill="rgb(0,0,0)"/>
<path d="M33 68h1v1h4v-1h2v1h-1v1h-8v-1h2v-1z" fill="rgb(0,0,0)"/>
</svg>
