<?xml version="1.0" encoding="utf-8"?>
<!-- generated at drububu.com  -->
<!DOCTYPE svg PUBLIC "-//W3C//DTD SVG 1.1//EN" "http://www.w3.org/Graphics/SVG/1.1/DTD/svg11.dtd">
<svg version="1.1" preserveAspectRatio="xMinYMin meet" xmlns="http://www.w3.org/2000/svg" xmlns:xlink="http://www.w3.org/1999/xlink" x="0px" y="0px" width="96px" height="96px" viewBox="0 0 96 96">
<path d="M0 0h96v96h-96v-96z" fill="transparent"/>
<path d="M51 22h2v1h-2v-1z" fill="rgb(65,74,16)"/>
<path d="M53 22h1v1h-1v-1z" fill="rgb(98,106,32)"/>
<path d="M41 23h2v1h-2v-1z" fill="rgb(16,16,16)"/>
<path d="M43 23h4v1h-4v-1z" fill="rgb(65,74,16)"/>
<path d="M49 23h2v1h-2v-1z" fill="rgb(65,74,16)"/>
<path d="M51 23h3v1h2v1h3v1h1v1h-1v1h-1v1h-6v-1h-2v-1h-2v-1h1v-1h1v-1h1v-1z" fill="rgb(180,189,98)"/>
<path d="M54 23h2v1h-2v-1z" fill="rgb(98,106,32)"/>
<path d="M40 24h1v1h-1v-1z" fill="rgb(16,16,16)"/>
<path d="M41 24h1v1h-1v-1z" fill="rgb(98,106,32)"/>
<path d="M42 24h5v2h-5v-2z" fill="rgb(180,189,98)"/>
<path d="M47 24h1v1h-1v-1z" fill="rgb(65,74,16)"/>
<path d="M48 24h1v1h-1v-1z" fill="rgb(16,16,16)"/>
<path d="M49 24h1v1h-1v-1z" fill="rgb(139,148,65)"/>
<path d="M56 24h1v1h-1v-1z" fill="rgb(139,148,65)"/>
<path d="M57 24h2v1h-2v-1z" fill="rgb(98,106,32)"/>
<path d="M36 25h2v1h-2v-1z" fill="rgb(65,74,16)"/>
<path d="M38 25h2v2h-1v-1h-1v-1z" fill="rgb(16,16,16)"/>
<path d="M40 25h1v1h-1v-1z" fill="rgb(98,106,32)"/>
<path d="M41 25h1v1h-1v-1z" fill="rgb(139,148,65)"/>
<path d="M47 25h1v1h-1v-1z" fill="rgb(16,16,16)"/>
<path d="M48 25h1v1h-1v-1z" fill="rgb(139,148,65)"/>
<path d="M59 25h1v1h-1v-1z" fill="rgb(65,74,16)"/>
<path d="M34 26h1v1h-1v-1z" fill="rgb(98,106,32)"/>
<path d="M35 26h1v1h-1v-1z" fill="rgb(65,74,16)"/>
<path d="M36 26h1v1h1v1h-2v1h-2v1h-2v1h-2v-1h1v-1h2v-1h1v-1h2v-1z" fill="rgb(180,189,98)"/>
<path d="M37 26h1v1h-1v-1z" fill="rgb(139,148,65)"/>
<path d="M38 26h1v1h-1v-1z" fill="rgb(65,74,16)"/>
<path d="M40 26h3v1h1v1h-3v-1h-1v-1z" fill="rgb(65,74,16)"/>
<path d="M43 26h3v1h-1v1h-1v-1h-1v-1z" fill="rgb(98,106,32)"/>
<path d="M46 26h1v1h-1v-1z" fill="rgb(16,16,16)"/>
<path d="M47 26h1v1h2v1h2v1h-1v1h-4v-1h-1v-2h1v-1z" fill="rgb(139,148,65)"/>
<path d="M60 26h1v1h-1v-1z" fill="rgb(65,74,16)"/>
<path d="M33 27h1v1h-1v-1z" fill="rgb(98,106,32)"/>
<path d="M38 27h2v2h-1v-1h-1v-1z" fill="rgb(98,106,32)"/>
<path d="M40 27h1v1h4v1h-5v-2z" fill="rgb(16,16,16)"/>
<path d="M45 27h1v1h-1v-1z" fill="rgb(16,16,16)"/>
<path d="M59 27h2v4h-1v-1h-1v-1h-1v-1h1v-1z" fill="rgb(139,148,65)"/>
<path d="M61 27h1v1h-1v-1z" fill="rgb(65,74,16)"/>
<path d="M31 28h1v1h-1v-1z" fill="rgb(65,74,16)"/>
<path d="M32 28h1v1h-1v-1z" fill="rgb(98,106,32)"/>
<path d="M36 28h1v1h-1v-1z" fill="rgb(139,148,65)"/>
<path d="M37 28h1v1h-1v-1z" fill="rgb(98,106,32)"/>
<path d="M38 28h1v2h-2v-1h1v-1z" fill="rgb(65,74,16)"/>
<path d="M45 28h1v1h1v1h-2v-2z" fill="rgb(65,74,16)"/>
<path d="M61 28h1v3h-1v-3z" fill="rgb(16,16,16)"/>
<path d="M30 29h1v1h-1v-1z" fill="rgb(65,74,16)"/>
<path d="M34 29h1v1h-1v-1z" fill="rgb(139,148,65)"/>
<path d="M35 29h2v1h-1v1h-2v2h-3v-1h-1v-1h3v-1h2v-1z" fill="rgb(98,106,32)"/>
<path d="M39 29h1v1h-1v-1z" fill="rgb(16,16,16)"/>
<path d="M40 29h5v1h-5v-1z" fill="rgb(139,148,65)"/>
<path d="M51 29h7v1h1v2h-8v-1h-1v-1h1v-1z" fill="rgb(98,106,32)"/>
<path d="M58 29h1v1h-1v-1z" fill="rgb(65,74,16)"/>
<path d="M29 30h1v1h-1v-1z" fill="rgb(65,74,16)"/>
<path d="M32 30h1v1h-1v-1z" fill="rgb(139,148,65)"/>
<path d="M36 30h1v1h-1v-1z" fill="rgb(65,74,16)"/>
<path d="M37 30h1v1h-1v-1z" fill="rgb(98,106,32)"/>
<path d="M38 30h1v1h-1v-1z" fill="rgb(139,148,65)"/>
<path d="M39 30h8v1h2v1h1v2h-1v3h-4v1h-6v-2h-1v-2h-1v-3h2v-1z" fill="rgb(180,189,98)"/>
<path d="M47 30h3v1h-3v-1z" fill="rgb(65,74,16)"/>
<path d="M59 30h1v1h2v1h-2v1h-8v-1h7v-2z" fill="rgb(65,74,16)"/>
<path d="M29 31h1v1h1v1h-2v-2z" fill="rgb(16,16,16)"/>
<path d="M34 31h1v1h-1v-1z" fill="rgb(65,74,16)"/>
<path d="M35 31h2v1h-1v5h-1v-2h-1v-1h-1v-1h1v-1h1v-1z" fill="rgb(16,16,16)"/>
<path d="M49 31h1v1h-1v-1z" fill="rgb(139,148,65)"/>
<path d="M50 31h1v1h-1v-1z" fill="rgb(65,74,16)"/>
<path d="M36 32h1v1h-1v-1z" fill="rgb(98,106,32)"/>
<path d="M50 32h1v1h-1v-1z" fill="rgb(139,148,65)"/>
<path d="M51 32h1v1h-1v-1z" fill="rgb(16,16,16)"/>
<path d="M60 32h3v1h-3v-1z" fill="rgb(16,16,16)"/>
<path d="M28 33h1v1h-1v-1z" fill="rgb(16,16,16)"/>
<path d="M29 33h4v1h-4v-1z" fill="rgb(65,74,16)"/>
<path d="M36 33h1v1h1v2h1v2h6v-1h4v3h-11v-2h-1v-3h-1v-2z" fill="rgb(139,148,65)"/>
<path d="M50 33h1v1h-1v-1z" fill="rgb(65,74,16)"/>
<path d="M51 33h1v4h-1v2h-1v-3h-1v-1h1v-1h1v-1z" fill="rgb(98,106,32)"/>
<path d="M52 33h2v1h-1v2h-1v-3z" fill="rgb(16,16,16)"/>
<path d="M54 33h1v1h-1v-1z" fill="rgb(98,106,32)"/>
<path d="M55 33h6v1h1v1h1v3h-1v1h-2v-1h-2v-1h-2v-1h-2v-1h1v-2z" fill="rgb(180,189,98)"/>
<path d="M61 33h2v1h1v3h-1v-2h-1v-1h-1v-1z" fill="rgb(139,148,65)"/>
<path d="M63 33h1v1h-1v-1z" fill="rgb(16,16,16)"/>
<path d="M67 33h3v1h-3v-1z" fill="rgb(90,74,16)"/>
<path d="M27 34h1v1h-1v-1z" fill="rgb(16,16,16)"/>
<path d="M28 34h1v1h-1v-1z" fill="rgb(139,148,65)"/>
<path d="M29 34h3v2h1v2h1v1h-1v2h-2v1h-2v-1h-1v-2h-1v-2h1v-2h1v-1z" fill="rgb(180,189,98)"/>
<path d="M32 34h1v1h-1v-1z" fill="rgb(98,106,32)"/>
<path d="M33 34h1v1h1v2h1v4h-1v1h-2v-1h1v-5h-1v-2z" fill="rgb(65,74,16)"/>
<path d="M49 34h1v1h-1v-1z" fill="rgb(139,148,65)"/>
<path d="M53 34h1v2h1v1h2v1h2v1h2v2h-5v-1h-2v-1h-1v-5z" fill="rgb(98,106,32)"/>
<path d="M54 34h1v1h-1v-1z" fill="rgb(139,148,65)"/>
<path d="M64 34h1v2h1v1h-2v-3z" fill="rgb(16,16,16)"/>
<path d="M66 34h1v1h-1v-1z" fill="rgb(90,74,16)"/>
<path d="M67 34h3v1h-1v1h-1v2h-1v1h-1v2h-1v1h-1v1h-1v-1h-1v-3h3v-1h1v-2h1v-2z" fill="rgb(213,180,90)"/>
<path d="M70 34h2v1h-2v-1z" fill="rgb(16,16,16)"/>
<path d="M27 35h1v1h-1v-1z" fill="rgb(65,74,16)"/>
<path d="M32 35h1v1h-1v-1z" fill="rgb(139,148,65)"/>
<path d="M36 35h1v1h-1v-1z" fill="rgb(98,106,32)"/>
<path d="M66 35h1v1h-1v-1z" fill="rgb(16,16,16)"/>
<path d="M69 35h1v1h-1v-1z" fill="rgb(156,139,82)"/>
<path d="M70 35h1v1h1v2h-1v-1h-2v-1h1v-1z" fill="rgb(255,255,255)"/>
<path d="M71 35h1v1h-1v-1z" fill="rgb(205,205,205)"/>
<path d="M72 35h1v1h1v1h-1v2h-2v-1h1v-3z" fill="rgb(16,16,16)"/>
<path d="M26 36h1v3h-1v-3z" fill="rgb(65,74,16)"/>
<path d="M27 36h1v1h-1v-1z" fill="rgb(139,148,65)"/>
<path d="M33 36h1v1h-1v-1z" fill="rgb(98,106,32)"/>
<path d="M36 36h1v1h-1v-1z" fill="rgb(65,74,16)"/>
<path d="M49 36h1v3h-1v-3z" fill="rgb(65,74,16)"/>
<path d="M52 36h1v2h-2v-1h1v-1z" fill="rgb(65,74,16)"/>
<path d="M55 36h1v1h-1v-1z" fill="rgb(139,148,65)"/>
<path d="M68 36h1v1h-1v-1z" fill="rgb(115,115,115)"/>
<path d="M74 36h1v1h-1v-1z" fill="rgb(115,115,115)"/>
<path d="M33 37h1v1h-1v-1z" fill="rgb(139,148,65)"/>
<path d="M36 37h1v2h1v2h1v1h2v1h-1v1h-1v1h-1v-2h-5v2h-1v-1h-1v-1h-2v-1h6v-1h1v-4z" fill="rgb(16,16,16)"/>
<path d="M57 37h1v1h-1v-1z" fill="rgb(139,148,65)"/>
<path d="M63 37h1v1h1v1h-2v-2z" fill="rgb(16,16,16)"/>
<path d="M64 37h1v1h-1v-1z" fill="rgb(90,74,16)"/>
<path d="M65 37h1v1h-1v-1z" fill="rgb(156,139,82)"/>
<path d="M68 37h1v1h2v2h-1v2h-2v-1h-2v-2h1v-1h1v-1z" fill="rgb(156,139,82)"/>
<path d="M69 37h1v1h-1v-1z" fill="rgb(115,115,115)"/>
<path d="M70 37h1v1h-1v-1z" fill="rgb(16,16,16)"/>
<path d="M73 37h2v1h1v1h1v1h-2v-1h-1v-1h-1v-1z" fill="rgb(255,255,255)"/>
<path d="M75 37h1v1h-1v-1z" fill="rgb(115,115,115)"/>
<path d="M37 38h1v1h-1v-1z" fill="rgb(98,106,32)"/>
<path d="M51 38h2v1h1v1h2v1h-3v1h-2v-1h-1v-2h1v-1z" fill="rgb(16,16,16)"/>
<path d="M59 38h1v1h-1v-1z" fill="rgb(139,148,65)"/>
<path d="M62 38h1v1h-1v-1z" fill="rgb(90,74,16)"/>
<path d="M73 38h1v1h1v1h-2v-2z" fill="rgb(205,205,205)"/>
<path d="M76 38h1v1h-1v-1z" fill="rgb(16,16,16)"/>
<path d="M25 39h1v1h-1v-1z" fill="rgb(65,74,16)"/>
<path d="M26 39h1v2h-1v-2z" fill="rgb(16,16,16)"/>
<path d="M27 39h1v1h-1v-1z" fill="rgb(139,148,65)"/>
<path d="M33 39h1v1h-1v-1z" fill="rgb(139,148,65)"/>
<path d="M49 39h1v2h-1v-2z" fill="rgb(98,106,32)"/>
<path d="M61 39h1v2h-1v-2z" fill="rgb(90,74,16)"/>
<path d="M71 39h1v1h1v2h-1v1h-2v1h-1v-2h1v-2h1v-1z" fill="rgb(213,180,90)"/>
<path d="M72 39h1v1h-1v-1z" fill="rgb(115,115,115)"/>
<path d="M77 39h1v2h-5v-1h4v-1z" fill="rgb(16,16,16)"/>
<path d="M24 40h1v1h-1v-1z" fill="rgb(65,74,16)"/>
<path d="M25 40h1v1h-1v-1z" fill="rgb(139,148,65)"/>
<path d="M27 40h1v1h-1v-1z" fill="rgb(98,106,32)"/>
<path d="M33 40h1v1h-1v-1z" fill="rgb(98,106,32)"/>
<path d="M38 40h5v1h-5v-1z" fill="rgb(98,106,32)"/>
<path d="M43 40h1v1h-1v-1z" fill="rgb(90,74,16)"/>
<path d="M44 40h3v1h-3v-1z" fill="rgb(16,16,16)"/>
<path d="M47 40h2v1h-2v-1z" fill="rgb(90,74,16)"/>
<path d="M23 41h1v5h-1v-5z" fill="rgb(65,74,16)"/>
<path d="M24 41h1v1h-1v-1z" fill="rgb(139,148,65)"/>
<path d="M25 41h1v1h1v2h-1v1h-1v1h-1v-4h1v-1z" fill="rgb(180,189,98)"/>
<path d="M26 41h1v1h-1v-1z" fill="rgb(139,148,65)"/>
<path d="M27 41h1v1h-1v-1z" fill="rgb(16,16,16)"/>
<path d="M28 41h1v1h-1v-1z" fill="rgb(65,74,16)"/>
<path d="M31 41h1v1h-1v-1z" fill="rgb(139,148,65)"/>
<path d="M32 41h1v1h-1v-1z" fill="rgb(98,106,32)"/>
<path d="M39 41h2v1h-2v-1z" fill="rgb(65,74,16)"/>
<path d="M41 41h1v1h-1v-1z" fill="rgb(16,16,16)"/>
<path d="M42 41h1v1h-1v-1z" fill="rgb(90,74,16)"/>
<path d="M43 41h6v1h-1v1h-1v2h1v1h1v2h1v1h2v2h-1v3h-3v-1h-1v-1h-1v-2h-1v-1h-1v-1h-1v-1
	h-1v-1h-1v-3h1v-1h1v-1z" fill="rgb(213,180,90)"/>
<path d="M49 41h1v1h-1v-1z" fill="rgb(156,139,82)"/>
<path d="M50 41h1v1h-1v-1z" fill="rgb(90,74,16)"/>
<path d="M53 41h3v1h-3v-1z" fill="rgb(98,106,32)"/>
<path d="M56 41h2v1h-2v-1z" fill="rgb(65,74,16)"/>
<path d="M58 41h4v2h1v1h-1v2h-1v-2h-1v-2h-2v-1z" fill="rgb(16,16,16)"/>
<path d="M65 41h1v1h-1v-1z" fill="rgb(156,139,82)"/>
<path d="M66 41h2v1h-2v-1z" fill="rgb(16,16,16)"/>
<path d="M73 41h1v1h-1v-1z" fill="rgb(90,74,16)"/>
<path d="M27 42h2v1h-1v1h-1v-2z" fill="rgb(90,74,16)"/>
<path d="M41 42h1v1h-1v-1z" fill="rgb(156,139,82)"/>
<path d="M48 42h3v1h1v1h1v1h1v1h-1v2h-1v1h-2v-1h-1v-2h-1v-1h-1v-2h1v-1z" fill="rgb(246,222,139)"/>
<path d="M51 42h1v1h-1v-1z" fill="rgb(213,180,90)"/>
<path d="M52 42h1v1h-1v-1z" fill="rgb(90,74,16)"/>
<path d="M53 42h5v1h1v1h1v1h-2v1h-3v-1h-1v-2h-1v-1z" fill="rgb(139,148,65)"/>
<path d="M58 42h1v1h-1v-1z" fill="rgb(98,106,32)"/>
<path d="M59 42h1v1h-1v-1z" fill="rgb(65,74,16)"/>
<path d="M62 42h1v1h-1v-1z" fill="rgb(156,139,82)"/>
<path d="M64 42h1v1h-1v-1z" fill="rgb(156,139,82)"/>
<path d="M65 42h1v1h-1v-1z" fill="rgb(205,205,205)"/>
<path d="M66 42h2v2h1v1h-2v-1h-2v-1h1v-1z" fill="rgb(255,255,255)"/>
<path d="M68 42h1v1h-1v-1z" fill="rgb(16,16,16)"/>
<path d="M72 42h1v1h-1v-1z" fill="rgb(90,74,16)"/>
<path d="M28 43h2v1h1v1h1v1h-2v-1h-3v-1h1v-1z" fill="rgb(156,139,82)"/>
<path d="M30 43h1v1h-1v-1z" fill="rgb(90,74,16)"/>
<path d="M33 43h3v1h-3v-1z" fill="rgb(98,106,32)"/>
<path d="M36 43h2v1h-2v-1z" fill="rgb(65,74,16)"/>
<path d="M40 43h1v1h-1v-1z" fill="rgb(156,139,82)"/>
<path d="M52 43h1v1h-1v-1z" fill="rgb(213,180,90)"/>
<path d="M53 43h1v1h-1v-1z" fill="rgb(90,74,16)"/>
<path d="M59 43h1v1h-1v-1z" fill="rgb(98,106,32)"/>
<path d="M63 43h1v1h-1v-1z" fill="rgb(156,139,82)"/>
<path d="M64 43h1v2h-2v-1h1v-1z" fill="rgb(16,16,16)"/>
<path d="M68 43h1v1h-1v-1z" fill="rgb(115,115,115)"/>
<path d="M70 43h2v1h-2v-1z" fill="rgb(90,74,16)"/>
<path d="M26 44h1v1h-1v-1z" fill="rgb(90,74,16)"/>
<path d="M31 44h1v1h-1v-1z" fill="rgb(90,74,16)"/>
<path d="M33 44h3v1h2v1h-3v-1h-2v-1z" fill="rgb(65,74,16)"/>
<path d="M36 44h2v1h-2v-1z" fill="rgb(98,106,32)"/>
<path d="M39 44h1v2h1v5h-1v1h1v2h-1v-1h-1v-1h-1v-6h1v-2z" fill="rgb(156,139,82)"/>
<path d="M40 44h1v2h-1v-2z" fill="rgb(90,74,16)"/>
<path d="M53 44h1v1h-1v-1z" fill="rgb(156,139,82)"/>
<path d="M60 44h1v2h1v1h-3v2h-1v1h-2v-4h2v-1h2v-1z" fill="rgb(98,106,32)"/>
<path d="M62 44h1v1h2v2h-2v-1h-1v-2z" fill="rgb(156,139,82)"/>
<path d="M65 44h2v1h-2v-1z" fill="rgb(205,205,205)"/>
<path d="M69 44h1v2h-2v2h-1v1h1v6h-1v-5h-1v-1h-2v-1h-4v1h-1v-2h3v-1h1v1h4v-1h-2v-1h4v-1z" fill="rgb(16,16,16)"/>
<path d="M25 45h1v1h-1v-1z" fill="rgb(90,74,16)"/>
<path d="M26 45h1v1h-1v-1z" fill="rgb(156,139,82)"/>
<path d="M27 45h3v1h-1v2h-2v1h-1v-1h-1v-2h2v-1z" fill="rgb(213,180,90)"/>
<path d="M32 45h1v2h-1v-2z" fill="rgb(98,106,32)"/>
<path d="M33 45h2v1h-2v-1z" fill="rgb(139,148,65)"/>
<path d="M38 45h1v1h-1v-1z" fill="rgb(90,74,16)"/>
<path d="M54 45h1v2h-1v-2z" fill="rgb(90,74,16)"/>
<path d="M21 46h4v2h-1v-1h-3v-1z" fill="rgb(90,74,16)"/>
<path d="M29 46h1v1h-1v-1z" fill="rgb(156,139,82)"/>
<path d="M30 46h2v5h-1v-4h-1v-1z" fill="rgb(16,16,16)"/>
<path d="M33 46h3v2h-2v1h-2v-2h1v-1z" fill="rgb(180,189,98)"/>
<path d="M36 46h1v3h-1v2h-1v1h-3v2h-2v-1h1v-2h1v-2h2v-1h2v-2z" fill="rgb(139,148,65)"/>
<path d="M37 46h1v6h1v2h1v1h1v1h1v1h-2v3h-1v-4h-1v-1h-1v-1h-5v-1h3v-1h1v-1h1v-5z" fill="rgb(16,16,16)"/>
<path d="M41 46h1v1h-1v-1z" fill="rgb(16,16,16)"/>
<path d="M53 46h1v1h-1v-1z" fill="rgb(213,180,90)"/>
<path d="M55 46h1v1h-1v-1z" fill="rgb(16,16,16)"/>
<path d="M65 46h2v1h-2v-1z" fill="rgb(90,74,16)"/>
<path d="M19 47h2v1h-2v-1z" fill="rgb(16,16,16)"/>
<path d="M21 47h3v2h1v2h1v1h3v3h-1v1h-1v-1h-1v-1h-1v-2h-1v-1h-1v-2h-1v-1h-1v-1z" fill="rgb(213,180,90)"/>
<path d="M29 47h1v1h-1v-1z" fill="rgb(16,16,16)"/>
<path d="M30 47h1v3h-1v1h-3v-2h1v-1h2v-1z" fill="rgb(156,139,82)"/>
<path d="M41 47h1v1h-1v-1z" fill="rgb(255,255,255)"/>
<path d="M42 47h1v1h-1v-1z" fill="rgb(90,74,16)"/>
<path d="M53 47h1v1h-1v-1z" fill="rgb(98,106,32)"/>
<path d="M54 47h1v2h-1v-2z" fill="rgb(156,139,82)"/>
<path d="M55 47h1v1h-1v-1z" fill="rgb(90,74,16)"/>
<path d="M18 48h1v3h1v1h-2v-2h-1v-1h1v-1z" fill="rgb(16,16,16)"/>
<path d="M19 48h1v1h-1v-1z" fill="rgb(205,205,205)"/>
<path d="M20 48h1v1h1v1h-2v1h-1v-2h1v-1z" fill="rgb(255,255,255)"/>
<path d="M21 48h1v1h-1v-1z" fill="rgb(156,139,82)"/>
<path d="M24 48h1v1h-1v-1z" fill="rgb(16,16,16)"/>
<path d="M25 48h1v1h-1v-1z" fill="rgb(90,74,16)"/>
<path d="M27 48h1v1h-1v-1z" fill="rgb(90,74,16)"/>
<path d="M41 48h2v3h-1v-2h-1v-1z" fill="rgb(255,82,82)"/>
<path d="M43 48h1v1h-1v-1z" fill="rgb(16,16,16)"/>
<path d="M52 48h1v1h-1v-1z" fill="rgb(213,180,90)"/>
<path d="M53 48h1v1h-1v-1z" fill="rgb(90,74,16)"/>
<path d="M55 48h1v2h2v-1h1v2h-1v2h-1v-2h-1v1h-1v-4z" fill="rgb(16,16,16)"/>
<path d="M60 48h4v1h-4v-1z" fill="rgb(65,74,16)"/>
<path d="M16 49h1v1h-1v-1z" fill="rgb(115,115,115)"/>
<path d="M22 49h1v1h-1v-1z" fill="rgb(115,115,115)"/>
<path d="M25 49h1v1h-1v-1z" fill="rgb(16,16,16)"/>
<path d="M26 49h1v2h-1v-2z" fill="rgb(90,74,16)"/>
<path d="M36 49h1v2h-1v-2z" fill="rgb(98,106,32)"/>
<path d="M41 49h1v1h-1v-1z" fill="rgb(16,16,16)"/>
<path d="M43 49h1v1h-1v-1z" fill="rgb(255,255,255)"/>
<path d="M44 49h1v1h-1v-1z" fill="rgb(90,74,16)"/>
<path d="M52 49h1v1h-1v-1z" fill="rgb(255,82,82)"/>
<path d="M53 49h1v1h-1v-1z" fill="rgb(255,255,255)"/>
<path d="M54 49h1v2h-1v-2z" fill="rgb(213,180,90)"/>
<path d="M59 49h1v1h-1v-1z" fill="rgb(65,74,16)"/>
<path d="M60 49h6v1h-2v1h-3v-1h-1v-1z" fill="rgb(98,106,32)"/>
<path d="M15 50h1v1h-1v-1z" fill="rgb(115,115,115)"/>
<path d="M16 50h2v1h-1v1h-1v1h-2v-1h1v-1h1v-1z" fill="rgb(255,255,255)"/>
<path d="M20 50h1v1h-1v-1z" fill="rgb(16,16,16)"/>
<path d="M21 50h1v1h-1v-1z" fill="rgb(115,115,115)"/>
<path d="M22 50h1v1h1v1h1v2h-2v1h-2v-2h-1v-2h2v-1z" fill="rgb(156,139,82)"/>
<path d="M25 50h1v1h-1v-1z" fill="rgb(156,139,82)"/>
<path d="M30 50h1v1h-1v-1z" fill="rgb(90,74,16)"/>
<path d="M41 50h1v1h-1v-1z" fill="rgb(115,115,115)"/>
<path d="M43 50h1v1h-1v-1z" fill="rgb(205,205,205)"/>
<path d="M44 50h1v1h-1v-1z" fill="rgb(16,16,16)"/>
<path d="M45 50h1v1h-1v-1z" fill="rgb(156,139,82)"/>
<path d="M52 50h1v1h-1v-1z" fill="rgb(16,16,16)"/>
<path d="M53 50h1v1h-1v-1z" fill="rgb(205,205,205)"/>
<path d="M59 50h1v1h1v3h1v2h1v1h-3v-1h-1v-1h-1v-4h1v-1z" fill="rgb(98,106,32)"/>
<path d="M60 50h1v1h-1v-1z" fill="rgb(65,74,16)"/>
<path d="M64 50h3v5h-1v1h-2v1h-1v-1h-1v-2h-1v-3h3v-1z" fill="rgb(65,74,16)"/>
<path d="M14 51h1v1h-1v-1z" fill="rgb(16,16,16)"/>
<path d="M17 51h1v2h-2v-1h1v-1z" fill="rgb(205,205,205)"/>
<path d="M26 51h2v1h-2v-1z" fill="rgb(16,16,16)"/>
<path d="M28 51h2v5h-1v-4h-1v-1z" fill="rgb(90,74,16)"/>
<path d="M30 51h1v2h-1v-2z" fill="rgb(16,16,16)"/>
<path d="M35 51h1v1h-1v-1z" fill="rgb(98,106,32)"/>
<path d="M40 51h1v1h-1v-1z" fill="rgb(90,74,16)"/>
<path d="M41 51h4v1h1v2h1v1h2v1h-3v-1h-1v-1h-1v-1h-2v-1h-1v-1z" fill="rgb(156,139,82)"/>
<path d="M45 51h1v1h-1v-1z" fill="rgb(90,74,16)"/>
<path d="M51 51h1v1h-1v-1z" fill="rgb(156,139,82)"/>
<path d="M52 51h1v1h-1v-1z" fill="rgb(90,74,16)"/>
<path d="M53 51h1v3h-1v1h-1v2h-1v-1h-2v-1h2v-1h1v-2h1v-1z" fill="rgb(213,180,90)"/>
<path d="M54 51h1v1h-1v-1z" fill="rgb(90,74,16)"/>
<path d="M56 51h1v3h-1v-3z" fill="rgb(98,106,32)"/>
<path d="M13 52h1v1h4v1h-5v-2z" fill="rgb(16,16,16)"/>
<path d="M18 52h1v1h-1v-1z" fill="rgb(115,115,115)"/>
<path d="M19 52h1v1h1v2h1v2h-1v-1h-2v-1h-1v-2h1v-1z" fill="rgb(213,180,90)"/>
<path d="M32 52h3v1h-3v-1z" fill="rgb(98,106,32)"/>
<path d="M41 52h1v1h2v1h-3v-2z" fill="rgb(16,16,16)"/>
<path d="M46 52h1v2h-1v-2z" fill="rgb(90,74,16)"/>
<path d="M51 52h1v1h-1v-1z" fill="rgb(90,74,16)"/>
<path d="M54 52h1v2h-1v-2z" fill="rgb(16,16,16)"/>
<path d="M55 52h1v2h-1v-2z" fill="rgb(65,74,16)"/>
<path d="M39 53h1v1h-1v-1z" fill="rgb(90,74,16)"/>
<path d="M47 53h1v1h-1v-1z" fill="rgb(156,139,82)"/>
<path d="M51 53h1v1h-1v-1z" fill="rgb(156,139,82)"/>
<path d="M57 53h1v1h-1v-1z" fill="rgb(65,74,16)"/>
<path d="M17 54h1v1h-1v-1z" fill="rgb(90,74,16)"/>
<path d="M23 54h2v1h-2v-1z" fill="rgb(16,16,16)"/>
<path d="M25 54h1v1h-1v-1z" fill="rgb(156,139,82)"/>
<path d="M30 54h4v1h4v6h-3v1h-1v1h-1v-2h1v-1h-1v-1h-1v1h-1v1h-1v-1h-1v-1h1v-1h-1v-2h1v-2
	z" fill="rgb(98,106,32)"/>
<path d="M34 54h3v1h-3v-1z" fill="rgb(65,74,16)"/>
<path d="M40 54h2v1h-2v-1z" fill="rgb(90,74,16)"/>
<path d="M42 54h2v1h1v3h-1v-1h-1v-2h-1v-1z" fill="rgb(180,0,0)"/>
<path d="M44 54h1v1h-1v-1z" fill="rgb(16,16,16)"/>
<path d="M47 54h4v1h-4v-1z" fill="rgb(90,74,16)"/>
<path d="M53 54h1v1h-1v-1z" fill="rgb(90,74,16)"/>
<path d="M54 54h1v1h1v2h1v2h-1v1h-1v1h-3v-3h1v-2h1v-2z" fill="rgb(98,106,32)"/>
<path d="M55 54h3v1h1v1h1v1h-3v-1h-1v-1h-1v-1z" fill="rgb(16,16,16)"/>
<path d="M18 55h1v1h-1v-1z" fill="rgb(90,74,16)"/>
<path d="M22 55h1v1h-1v-1z" fill="rgb(16,16,16)"/>
<path d="M23 55h2v1h1v1h-2v1h-2v-1h1v-2z" fill="rgb(255,255,255)"/>
<path d="M25 55h1v1h-1v-1z" fill="rgb(205,205,205)"/>
<path d="M26 55h1v1h-1v-1z" fill="rgb(156,139,82)"/>
<path d="M28 55h1v1h-1v-1z" fill="rgb(156,139,82)"/>
<path d="M41 55h1v1h-1v-1z" fill="rgb(156,139,82)"/>
<path d="M42 55h1v1h-1v-1z" fill="rgb(16,16,16)"/>
<path d="M45 55h1v1h-1v-1z" fill="rgb(90,74,16)"/>
<path d="M52 55h1v1h-1v-1z" fill="rgb(90,74,16)"/>
<path d="M53 55h1v1h-1v-1z" fill="rgb(16,16,16)"/>
<path d="M66 55h1v1h-1v-1z" fill="rgb(16,16,16)"/>
<path d="M19 56h2v1h-2v-1z" fill="rgb(90,74,16)"/>
<path d="M22 56h1v1h-1v-1z" fill="rgb(115,115,115)"/>
<path d="M26 56h1v1h1v-1h1v4h-1v-1h-7v-2h1v1h4v-2z" fill="rgb(16,16,16)"/>
<path d="M27 56h1v1h-1v-1z" fill="rgb(156,139,82)"/>
<path d="M38 56h1v4h-1v-4z" fill="rgb(65,74,16)"/>
<path d="M42 56h1v1h-1v-1z" fill="rgb(156,139,82)"/>
<path d="M45 56h5v1h-5v-1z" fill="rgb(16,16,16)"/>
<path d="M50 56h1v1h-1v-1z" fill="rgb(90,74,16)"/>
<path d="M52 56h1v1h-1v-1z" fill="rgb(16,16,16)"/>
<path d="M56 56h1v1h-1v-1z" fill="rgb(65,74,16)"/>
<path d="M64 56h2v1h-1v1h-4v-1h3v-1z" fill="rgb(16,16,16)"/>
<path d="M24 57h2v1h-2v-1z" fill="rgb(205,205,205)"/>
<path d="M40 57h2v2h-1v2h-1v1h-2v-1h1v-1h1v-3z" fill="rgb(65,74,16)"/>
<path d="M42 57h1v1h-1v-1z" fill="rgb(90,74,16)"/>
<path d="M43 57h1v2h-1v-2z" fill="rgb(156,139,82)"/>
<path d="M45 57h1v1h-1v-1z" fill="rgb(115,115,115)"/>
<path d="M46 57h4v1h-1v1h-2v-1h-1v-1z" fill="rgb(180,0,0)"/>
<path d="M50 57h1v1h-1v-1z" fill="rgb(115,115,115)"/>
<path d="M51 57h1v2h-1v-2z" fill="rgb(16,16,16)"/>
<path d="M52 57h1v1h-1v-1z" fill="rgb(90,74,16)"/>
<path d="M57 57h4v1h-3v2h-1v-3z" fill="rgb(65,74,16)"/>
<path d="M29 58h1v1h-1v-1z" fill="rgb(139,148,65)"/>
<path d="M42 58h1v1h-1v-1z" fill="rgb(16,16,16)"/>
<path d="M44 58h1v1h-1v-1z" fill="rgb(16,16,16)"/>
<path d="M45 58h1v1h-1v-1z" fill="rgb(255,255,255)"/>
<path d="M46 58h1v1h-1v-1z" fill="rgb(115,115,115)"/>
<path d="M49 58h1v1h-1v-1z" fill="rgb(115,115,115)"/>
<path d="M50 58h1v1h-1v-1z" fill="rgb(255,255,255)"/>
<path d="M58 58h2v1h-2v-1z" fill="rgb(16,16,16)"/>
<path d="M60 58h5v1h1v2h1v1h1v4h-4v-1h-2v-1h-2v-2h-1v-2h-1v-1h2v-1z" fill="rgb(213,180,90)"/>
<path d="M65 58h1v1h-1v-1z" fill="rgb(90,74,16)"/>
<path d="M32 59h1v1h-1v-1z" fill="rgb(139,148,65)"/>
<path d="M34 59h1v1h-1v-1z" fill="rgb(139,148,65)"/>
<path d="M41 59h2v1h1v1h6v-1h1v2h-1v1h-10v-2h1v-2z" fill="rgb(98,106,32)"/>
<path d="M43 59h1v1h-1v-1z" fill="rgb(16,16,16)"/>
<path d="M44 59h1v1h-1v-1z" fill="rgb(156,139,82)"/>
<path d="M45 59h5v1h-5v-1z" fill="rgb(213,180,90)"/>
<path d="M50 59h1v1h-1v-1z" fill="rgb(16,16,16)"/>
<path d="M51 59h1v1h-1v-1z" fill="rgb(65,74,16)"/>
<path d="M56 59h1v2h-1v1h-1v4h-1v1h-2v-2h1v-2h1v-2h1v-1h1v-1z" fill="rgb(16,16,16)"/>
<path d="M66 59h1v1h-1v-1z" fill="rgb(90,74,16)"/>
<path d="M26 60h2v1h-2v-1z" fill="rgb(90,74,16)"/>
<path d="M28 60h1v1h1v1h1v1h1v1h-1v1h-2v1h-3v-1h-1v-3h1v-1h2v-1z" fill="rgb(213,180,90)"/>
<path d="M29 60h1v1h-1v-1z" fill="rgb(16,16,16)"/>
<path d="M31 60h1v1h-1v-1z" fill="rgb(139,148,65)"/>
<path d="M32 60h1v1h-1v-1z" fill="rgb(98,106,32)"/>
<path d="M33 60h1v1h-1v-1z" fill="rgb(139,148,65)"/>
<path d="M38 60h1v1h-1v-1z" fill="rgb(16,16,16)"/>
<path d="M44 60h6v1h-6v-1z" fill="rgb(16,16,16)"/>
<path d="M51 60h1v3h-1v1h1v1h-11v-1h-2v-1h-1v1h-1v1h-1v-1h-4v-1h-1v-1h2v1h2v-1h1v-1h2v1
	h2v1h10v-1h1v-2z" fill="rgb(16,16,16)"/>
<path d="M57 60h2v2h1v2h2v1h2v1h3v2h-1v3h-1v1h-3v1h-1v1h-3v1h-1v-2h-1v-2h1v-1h1v-3h-2v-1
	h-1v-4h1v-1h1v-1z" fill="rgb(156,139,82)"/>
<path d="M66 60h1v1h-1v-1z" fill="rgb(156,139,82)"/>
<path d="M25 61h1v1h-1v-1z" fill="rgb(90,74,16)"/>
<path d="M30 61h1v1h-1v-1z" fill="rgb(16,16,16)"/>
<path d="M31 61h1v1h-1v-1z" fill="rgb(98,106,32)"/>
<path d="M32 61h1v1h-1v-1z" fill="rgb(139,148,65)"/>
<path d="M35 61h1v1h-1v-1z" fill="rgb(139,148,65)"/>
<path d="M52 61h2v2h-1v2h-1v-1h-1v-1h1v-2z" fill="rgb(65,74,16)"/>
<path d="M67 61h1v1h-1v-1z" fill="rgb(90,74,16)"/>
<path d="M24 62h1v2h-1v-2z" fill="rgb(90,74,16)"/>
<path d="M34 62h1v1h-1v-1z" fill="rgb(65,74,16)"/>
<path d="M68 62h1v4h-1v-4z" fill="rgb(90,74,16)"/>
<path d="M38 63h1v1h2v1h11v2h-8v1h-1v-1h-1v1h-1v-1h-1v-1h-2v-1h-1v-1h1v-1z" fill="rgb(65,74,16)"/>
<path d="M23 64h1v1h-1v-1z" fill="rgb(90,74,16)"/>
<path d="M24 64h1v1h1v1h3v-1h2v-1h5v2h-1v1h1v3h1v2h-2v1h-3v1h-2v-1h-1v-1h1v-1h1v-1h-3v-1
	h-2v-1h-1v-1h-1v-3z" fill="rgb(156,139,82)"/>
<path d="M23 65h1v2h-1v-2z" fill="rgb(16,16,16)"/>
<path d="M36 65h1v1h-1v-1z" fill="rgb(90,74,16)"/>
<path d="M37 65h1v1h-1v-1z" fill="rgb(16,16,16)"/>
<path d="M57 65h1v1h-1v-1z" fill="rgb(213,180,90)"/>
<path d="M35 66h1v1h-1v-1z" fill="rgb(90,74,16)"/>
<path d="M38 66h2v1h-2v-1z" fill="rgb(16,16,16)"/>
<path d="M55 66h1v1h-1v-1z" fill="rgb(16,16,16)"/>
<path d="M58 66h1v1h-1v-1z" fill="rgb(213,180,90)"/>
<path d="M67 66h1v2h-1v-2z" fill="rgb(90,74,16)"/>
<path d="M24 67h1v1h-1v-1z" fill="rgb(90,74,16)"/>
<path d="M36 67h1v1h-1v-1z" fill="rgb(90,74,16)"/>
<path d="M42 67h1v1h-1v-1z" fill="rgb(16,16,16)"/>
<path d="M44 67h5v1h-5v-1z" fill="rgb(98,106,32)"/>
<path d="M49 67h3v1h-3v-1z" fill="rgb(16,16,16)"/>
<path d="M56 67h1v1h-1v-1z" fill="rgb(16,16,16)"/>
<path d="M57 67h1v1h-1v-1z" fill="rgb(213,180,90)"/>
<path d="M24 68h2v1h1v1h-2v-1h-1v-1z" fill="rgb(16,16,16)"/>
<path d="M33 68h1v1h-1v-1z" fill="rgb(90,74,16)"/>
<path d="M36 68h2v1h-1v1h-1v-2z" fill="rgb(16,16,16)"/>
<path d="M44 68h1v1h-1v-1z" fill="rgb(65,74,16)"/>
<path d="M45 68h4v1h-4v-1z" fill="rgb(16,16,16)"/>
<path d="M57 68h1v1h-1v-1z" fill="rgb(16,16,16)"/>
<path d="M66 68h1v1h-1v-1z" fill="rgb(90,74,16)"/>
<path d="M27 69h1v1h-1v-1z" fill="rgb(90,74,16)"/>
<path d="M31 69h2v1h-2v-1z" fill="rgb(90,74,16)"/>
<path d="M37 69h1v1h1v1h-2v-2z" fill="rgb(205,205,205)"/>
<path d="M38 69h1v1h-1v-1z" fill="rgb(16,16,16)"/>
<path d="M57 69h1v1h-1v-1z" fill="rgb(90,74,16)"/>
<path d="M66 69h1v1h-1v-1z" fill="rgb(16,16,16)"/>
<path d="M23 70h1v1h-1v-1z" fill="rgb(90,74,16)"/>
<path d="M24 70h1v1h-1v-1z" fill="rgb(16,16,16)"/>
<path d="M25 70h1v1h-1v-1z" fill="rgb(156,139,82)"/>
<path d="M26 70h1v1h-1v-1z" fill="rgb(90,74,16)"/>
<path d="M27 70h4v1h-1v1h-1v-1h-2v-1z" fill="rgb(16,16,16)"/>
<path d="M39 70h1v1h-1v-1z" fill="rgb(16,16,16)"/>
<path d="M56 70h1v1h-1v-1z" fill="rgb(16,16,16)"/>
<path d="M66 70h1v1h-1v-1z" fill="rgb(90,74,16)"/>
<path d="M67 70h1v1h-1v-1z" fill="rgb(16,16,16)"/>
<path d="M22 71h1v1h-1v-1z" fill="rgb(90,74,16)"/>
<path d="M23 71h1v1h-1v-1z" fill="rgb(205,205,205)"/>
<path d="M24 71h1v2h-1v-2z" fill="rgb(115,115,115)"/>
<path d="M25 71h1v1h-1v-1z" fill="rgb(90,74,16)"/>
<path d="M26 71h3v1h-1v1h-1v-1h-1v-1z" fill="rgb(156,139,82)"/>
<path d="M37 71h2v1h-2v-1z" fill="rgb(16,16,16)"/>
<path d="M55 71h1v2h-1v-2z" fill="rgb(16,16,16)"/>
<path d="M65 71h3v2h-3v1h-4v-1h1v-1h3v-1z" fill="rgb(213,180,90)"/>
<path d="M68 71h1v2h-1v-2z" fill="rgb(16,16,16)"/>
<path d="M22 72h2v2h2v1h-3v-2h-1v-1z" fill="rgb(16,16,16)"/>
<path d="M25 72h1v2h-1v-2z" fill="rgb(205,205,205)"/>
<path d="M26 72h1v1h-1v-1z" fill="rgb(115,115,115)"/>
<path d="M28 72h1v1h-1v-1z" fill="rgb(16,16,16)"/>
<path d="M35 72h2v1h-2v-1z" fill="rgb(16,16,16)"/>
<path d="M24 73h1v1h-1v-1z" fill="rgb(255,255,255)"/>
<path d="M26 73h2v2h2v1h-3v-2h-1v-1z" fill="rgb(16,16,16)"/>
<path d="M28 73h1v1h-1v-1z" fill="rgb(115,115,115)"/>
<path d="M29 73h1v1h-1v-1z" fill="rgb(205,205,205)"/>
<path d="M32 73h3v1h-3v-1z" fill="rgb(16,16,16)"/>
<path d="M56 73h1v2h-1v-2z" fill="rgb(16,16,16)"/>
<path d="M65 73h1v1h-1v-1z" fill="rgb(115,115,115)"/>
<path d="M66 73h1v1h-1v-1z" fill="rgb(16,16,16)"/>
<path d="M67 73h1v1h-1v-1z" fill="rgb(115,115,115)"/>
<path d="M68 73h1v1h-1v-1z" fill="rgb(255,255,255)"/>
<path d="M69 73h1v1h-1v-1z" fill="rgb(16,16,16)"/>
<path d="M28 74h2v1h-2v-1z" fill="rgb(255,255,255)"/>
<path d="M30 74h2v1h-2v-1z" fill="rgb(16,16,16)"/>
<path d="M58 74h2v1h-2v-1z" fill="rgb(90,74,16)"/>
<path d="M60 74h1v1h-1v-1z" fill="rgb(115,115,115)"/>
<path d="M61 74h1v1h-1v-1z" fill="rgb(156,139,82)"/>
<path d="M62 74h1v1h-1v-1z" fill="rgb(115,115,115)"/>
<path d="M63 74h1v1h-1v-1z" fill="rgb(16,16,16)"/>
<path d="M64 74h1v1h-1v-1z" fill="rgb(115,115,115)"/>
<path d="M65 74h1v1h-1v-1z" fill="rgb(205,205,205)"/>
<path d="M66 74h1v1h-1v-1z" fill="rgb(255,255,255)"/>
<path d="M67 74h1v1h-1v-1z" fill="rgb(16,16,16)"/>
<path d="M68 74h1v1h-1v-1z" fill="rgb(205,205,205)"/>
<path d="M69 74h1v1h-1v-1z" fill="rgb(255,255,255)"/>
<path d="M70 74h1v2h-3v-1h2v-1z" fill="rgb(16,16,16)"/>
<path d="M57 75h1v2h-1v-2z" fill="rgb(16,16,16)"/>
<path d="M58 75h2v1h-1v1h-1v-2z" fill="rgb(205,205,205)"/>
<path d="M60 75h1v1h1v1h-1v1h-1v-3z" fill="rgb(16,16,16)"/>
<path d="M61 75h1v1h-1v-1z" fill="rgb(115,115,115)"/>
<path d="M62 75h2v1h-2v-1z" fill="rgb(205,205,205)"/>
<path d="M64 75h2v1h-1v2h-1v-3z" fill="rgb(16,16,16)"/>
<path d="M66 75h1v1h-1v-1z" fill="rgb(205,205,205)"/>
<path d="M67 75h1v1h-1v-1z" fill="rgb(255,255,255)"/>
<path d="M59 76h1v2h-1v-2z" fill="rgb(255,255,255)"/>
<path d="M62 76h2v2h-1v-1h-1v-1z" fill="rgb(255,255,255)"/>
<path d="M66 76h2v1h-2v-1z" fill="rgb(16,16,16)"/>
<path d="M58 77h1v1h-1v-1z" fill="rgb(16,16,16)"/>
<path d="M62 77h1v1h-1v-1z" fill="rgb(16,16,16)"/>
<path d="M59 78h1v1h-1v-1z" fill="rgb(16,16,16)"/>
<path d="M63 78h1v1h-1v-1z" fill="rgb(16,16,16)"/>
</svg>
