<?xml version="1.0" encoding="utf-8"?>
<!-- generated at drububu.com  -->
<!DOCTYPE svg PUBLIC "-//W3C//DTD SVG 1.1//EN" "http://www.w3.org/Graphics/SVG/1.1/DTD/svg11.dtd">
<svg version="1.1" preserveAspectRatio="xMinYMin meet" xmlns="http://www.w3.org/2000/svg" xmlns:xlink="http://www.w3.org/1999/xlink" x="0px" y="0px" width="96px" height="96px" viewBox="0 0 96 96">
<path d="M0 0h96v96h-96v-96z" fill="transparent"/>
<path d="M38 20h1v1h-1v-1z" fill="rgb(230,90,41)"/>
<path d="M37 21h1v1h4v1h1v2h-2v-1h-3v1h-2v-1h1v-1h-2v-1h2v-1z" fill="rgb(230,90,41)"/>
<path d="M33 23h2v1h-2v-1z" fill="rgb(230,90,41)"/>
<path d="M35 23h2v1h-1v1h-1v-2z" fill="rgb(255,156,24)"/>
<path d="M32 24h1v1h-1v-1z" fill="rgb(230,90,41)"/>
<path d="M33 24h1v1h-1v-1z" fill="rgb(255,156,24)"/>
<path d="M34 24h1v2h2v-1h5v1h-2v1h-2v1h-1v1h-1v-2h-1v1h-1v2h-1v4h-1v-2h-1v-4h1v-2h1v-1h1
	v-1z" fill="rgb(255,222,82)"/>
<path d="M38 24h3v1h-3v-1z" fill="rgb(255,156,24)"/>
<path d="M31 25h1v2h-1v-2z" fill="rgb(230,90,41)"/>
<path d="M32 25h1v1h-1v-1z" fill="rgb(255,156,24)"/>
<path d="M35 25h1v1h-1v-1z" fill="rgb(230,90,41)"/>
<path d="M36 25h1v1h-1v-1z" fill="rgb(255,156,24)"/>
<path d="M42 25h1v2h-3v-1h2v-1z" fill="rgb(255,156,24)"/>
<path d="M43 25h1v1h3v1h1v2h1v1h-1v1h-2v1h-2v2h-1v2h1v1h2v1h-1v2h-2v-2h-1v-6h1v-3h-4v1
	h-1v1h-2v1h-1v1h-1v3h-2v-1h1v-3h1v-1h1v-1h1v-1h1v-1h2v-1h4v-2z" fill="rgb(230,90,41)"/>
<path d="M52 25h1v2h-1v2h-1v1h-1v1h-1v1h-3v-1h2v-1h1v-1h-1v-2h1v1h1v-1h1v-1h1v-1z" fill="rgb(238,49,49)"/>
<path d="M30 27h1v6h-1v-6z" fill="rgb(230,90,41)"/>
<path d="M31 27h1v1h-1v-1z" fill="rgb(255,156,24)"/>
<path d="M35 27h1v2h-1v2h-1v1h-1v-2h1v-2h1v-1z" fill="rgb(255,156,24)"/>
<path d="M38 27h1v1h-1v-1z" fill="rgb(255,156,24)"/>
<path d="M43 27h3v1h-3v-1z" fill="rgb(255,156,24)"/>
<path d="M49 27h1v1h-1v-1z" fill="rgb(230,90,41)"/>
<path d="M27 28h2v1h-2v-1z" fill="rgb(139,82,49)"/>
<path d="M27 29h1v2h-1v-2z" fill="rgb(115,49,49)"/>
<path d="M28 29h1v1h1v1h-2v-2z" fill="rgb(255,238,205)"/>
<path d="M29 29h1v1h-1v-1z" fill="rgb(139,82,49)"/>
<path d="M35 29h1v1h-1v-1z" fill="rgb(255,222,82)"/>
<path d="M39 29h1v1h-1v-1z" fill="rgb(139,82,49)"/>
<path d="M40 29h3v3h-1v-2h-2v-1z" fill="rgb(0,0,0)"/>
<path d="M38 30h1v1h-1v-1z" fill="rgb(139,82,49)"/>
<path d="M39 30h2v1h-1v1h-2v2h-3v1h-1v-2h1v-1h1v-1h3v-1z" fill="rgb(255,238,205)"/>
<path d="M41 30h1v2h-1v-2z" fill="rgb(139,82,49)"/>
<path d="M28 31h1v1h-1v-1z" fill="rgb(139,82,49)"/>
<path d="M29 31h1v1h-1v-1z" fill="rgb(230,205,139)"/>
<path d="M40 31h1v1h-1v-1z" fill="rgb(115,49,49)"/>
<path d="M28 32h1v2h-1v-2z" fill="rgb(115,49,49)"/>
<path d="M29 32h1v1h-1v-1z" fill="rgb(197,156,106)"/>
<path d="M31 32h1v1h-1v-1z" fill="rgb(255,156,24)"/>
<path d="M38 32h1v2h1v1h1v3h1v4h1v2h1v1h-1v1h-1v1h-1v1h-2v1h-2v-1h-1v-6h2v-1h-3v1h-2v1
	h-3v-1h2v-1h2v-1h1v-1h2v-1h1v-3h-3v-1h3v-2z" fill="rgb(230,205,139)"/>
<path d="M39 32h1v2h-1v-2z" fill="rgb(115,49,49)"/>
<path d="M40 32h1v3h-1v-3z" fill="rgb(139,82,49)"/>
<path d="M41 32h1v3h-1v-3z" fill="rgb(115,49,49)"/>
<path d="M44 32h2v1h-2v-1z" fill="rgb(238,49,49)"/>
<path d="M66 32h3v1h-3v-1z" fill="rgb(230,90,41)"/>
<path d="M29 33h1v2h-1v-2z" fill="rgb(139,82,49)"/>
<path d="M30 33h1v2h1v1h2v1h-1v1h1v1h1v1h-1v1h-2v1h-1v-1h-1v1h-1v-1h-1v-1h1v-2h1v-5z" fill="rgb(255,238,205)"/>
<path d="M31 33h1v2h-1v-2z" fill="rgb(230,90,41)"/>
<path d="M65 33h1v1h-1v-1z" fill="rgb(230,90,41)"/>
<path d="M66 33h3v1h1v1h2v2h-1v2h-1v-2h-1v-1h-2v1h-1v1h-1v1h-1v1h2v1h-2v1h-1v1h-2v1h-1
	v-3h1v-1h1v-2h-1v-2h3v-1h1v-1h1v-1z" fill="rgb(255,222,82)"/>
<path d="M69 33h1v1h-1v-1z" fill="rgb(230,90,41)"/>
<path d="M32 34h1v1h-1v-1z" fill="rgb(255,156,24)"/>
<path d="M64 34h1v1h-1v-1z" fill="rgb(230,90,41)"/>
<path d="M70 34h2v1h-2v-1z" fill="rgb(230,90,41)"/>
<path d="M29 35h1v1h-1v-1z" fill="rgb(0,0,0)"/>
<path d="M34 35h1v1h-1v-1z" fill="rgb(230,205,139)"/>
<path d="M35 35h1v1h-1v-1z" fill="rgb(115,49,49)"/>
<path d="M36 35h2v3h-1v-1h-1v-2z" fill="rgb(0,0,0)"/>
<path d="M41 35h1v3h-1v-3z" fill="rgb(0,0,0)"/>
<path d="M61 35h3v1h-3v-1z" fill="rgb(230,90,41)"/>
<path d="M72 35h1v3h1v2h1v1h1v1h-2v1h-1v1h1v2h-1v2h-3v-1h-4v-1h-2v2h-4v1h-1v-1h-1v-1h-1
	v-1h-1v-1h-6v1h-2v1h-1v-1h-2v-2h-1v-2h1v1h1v1h1v-1h1v1h1v-1h1v-2h1v1h1v-1h1v2
	h-1v1h2v-1h1v1h1v-1h1v2h1v-1h1v-3h1v4h-1v1h2v-2h1v-1h1v-1h2v-1h1v-1h1v-1h-1v-2h3
	v1h1v2h1v-2h1v-3z" fill="rgb(230,90,41)"/>
<path d="M29 36h1v1h-1v-1z" fill="rgb(115,49,49)"/>
<path d="M34 36h1v2h-2v-1h1v-1z" fill="rgb(0,0,0)"/>
<path d="M35 36h1v1h-1v-1z" fill="rgb(255,255,255)"/>
<path d="M60 36h1v2h-1v-2z" fill="rgb(230,90,41)"/>
<path d="M67 36h2v1h-2v-1z" fill="rgb(255,156,24)"/>
<path d="M28 37h1v1h-1v-1z" fill="rgb(139,82,49)"/>
<path d="M29 37h1v1h-1v-1z" fill="rgb(230,205,139)"/>
<path d="M35 37h2v1h-2v-1z" fill="rgb(115,49,49)"/>
<path d="M69 37h1v1h-1v-1z" fill="rgb(255,156,24)"/>
<path d="M71 37h1v1h-1v-1z" fill="rgb(255,156,24)"/>
<path d="M28 38h1v1h-1v-1z" fill="rgb(197,156,106)"/>
<path d="M34 38h1v1h-1v-1z" fill="rgb(115,49,49)"/>
<path d="M35 38h2v1h-2v-1z" fill="rgb(0,0,0)"/>
<path d="M42 38h1v4h-1v-4z" fill="rgb(0,0,0)"/>
<path d="M61 38h1v2h-1v-2z" fill="rgb(230,90,41)"/>
<path d="M65 38h1v1h-1v-1z" fill="rgb(255,156,24)"/>
<path d="M27 39h1v1h-1v-1z" fill="rgb(197,156,106)"/>
<path d="M28 39h1v1h-1v-1z" fill="rgb(230,205,139)"/>
<path d="M45 39h1v1h-1v-1z" fill="rgb(255,156,24)"/>
<path d="M46 39h1v1h-1v-1z" fill="rgb(230,90,41)"/>
<path d="M64 39h1v1h-1v-1z" fill="rgb(255,156,24)"/>
<path d="M65 39h1v1h-1v-1z" fill="rgb(230,90,41)"/>
<path d="M66 39h1v1h-1v-1z" fill="rgb(255,156,24)"/>
<path d="M70 39h1v1h-1v-1z" fill="rgb(255,156,24)"/>
<path d="M27 40h1v1h-1v-1z" fill="rgb(139,82,49)"/>
<path d="M38 40h1v1h-1v-1z" fill="rgb(139,82,49)"/>
<path d="M43 40h2v1h-2v-1z" fill="rgb(255,156,24)"/>
<path d="M45 40h1v2h-1v-2z" fill="rgb(230,90,41)"/>
<path d="M49 40h1v1h-1v-1z" fill="rgb(230,90,41)"/>
<path d="M60 40h1v1h-1v-1z" fill="rgb(230,90,41)"/>
<path d="M27 41h1v1h-1v-1z" fill="rgb(115,49,49)"/>
<path d="M28 41h1v1h-1v-1z" fill="rgb(230,205,139)"/>
<path d="M30 41h1v1h-1v-1z" fill="rgb(139,82,49)"/>
<path d="M35 41h2v1h-2v-1z" fill="rgb(0,0,0)"/>
<path d="M37 41h1v1h-1v-1z" fill="rgb(115,49,49)"/>
<path d="M43 41h2v1h-2v-1z" fill="rgb(255,222,82)"/>
<path d="M48 41h1v1h-1v-1z" fill="rgb(230,90,41)"/>
<path d="M49 41h1v1h-1v-1z" fill="rgb(255,222,82)"/>
<path d="M64 41h1v1h-1v-1z" fill="rgb(255,156,24)"/>
<path d="M28 42h1v1h-1v-1z" fill="rgb(115,49,49)"/>
<path d="M29 42h1v1h-1v-1z" fill="rgb(197,156,106)"/>
<path d="M33 42h2v1h-2v-1z" fill="rgb(0,0,0)"/>
<path d="M35 42h1v9h-1v-9z" fill="rgb(115,49,49)"/>
<path d="M43 42h1v2h-1v-2z" fill="rgb(0,0,0)"/>
<path d="M48 42h1v1h-1v-1z" fill="rgb(255,222,82)"/>
<path d="M49 42h1v1h-1v-1z" fill="rgb(255,156,24)"/>
<path d="M53 42h1v2h-2v-1h1v-1z" fill="rgb(255,156,24)"/>
<path d="M57 42h1v1h-1v-1z" fill="rgb(230,90,41)"/>
<path d="M29 43h1v1h-1v-1z" fill="rgb(115,49,49)"/>
<path d="M30 43h3v1h-3v-1z" fill="rgb(0,0,0)"/>
<path d="M48 43h1v1h-1v-1z" fill="rgb(255,156,24)"/>
<path d="M61 43h1v1h-1v-1z" fill="rgb(255,156,24)"/>
<path d="M44 44h1v2h-1v-2z" fill="rgb(0,0,0)"/>
<path d="M60 44h1v2h-2v-1h1v-1z" fill="rgb(255,156,24)"/>
<path d="M43 45h1v1h1v1h3v-1h3v-1h2v1h2v1h1v1h1v1h1v1h1v6h-1v1h-3v-1h-1v-3h-1v1h-2v1h-2
	v1h-4v2h-1v4h1v3h-1v1h-1v-3h-1v-2h-1v-3h-1v-3h-1v1h-1v-1h-2v-1h-1v-3h1v-3h1v1h2
	v-1h2v-1h1v-1h1v-1z" fill="rgb(255,238,205)"/>
<path d="M50 45h1v1h-1v-1z" fill="rgb(230,205,139)"/>
<path d="M53 45h1v1h-1v-1z" fill="rgb(230,205,139)"/>
<path d="M54 45h2v1h-2v-1z" fill="rgb(115,49,49)"/>
<path d="M45 46h2v1h-2v-1z" fill="rgb(0,0,0)"/>
<path d="M55 46h1v1h-1v-1z" fill="rgb(230,205,139)"/>
<path d="M56 46h1v1h-1v-1z" fill="rgb(0,0,0)"/>
<path d="M64 46h2v1h-2v-1z" fill="rgb(238,49,49)"/>
<path d="M73 46h1v1h1v1h1v-1h1v-1h2v1h-1v2h-1v1h-1v1h-4v-2h-4v-1h-2v-1h4v1h3v-2z" fill="rgb(238,49,49)"/>
<path d="M56 47h1v1h-1v-1z" fill="rgb(230,205,139)"/>
<path d="M57 47h1v1h-1v-1z" fill="rgb(0,0,0)"/>
<path d="M57 48h1v1h-1v-1z" fill="rgb(230,205,139)"/>
<path d="M58 48h1v2h-1v-2z" fill="rgb(0,0,0)"/>
<path d="M68 49h2v1h-2v-1z" fill="rgb(230,90,41)"/>
<path d="M71 49h1v1h-1v-1z" fill="rgb(230,90,41)"/>
<path d="M59 50h1v2h-1v-2z" fill="rgb(0,0,0)"/>
<path d="M63 50h3v1h-1v1h-1v-1h-1v-1z" fill="rgb(230,90,41)"/>
<path d="M34 51h1v1h-1v-1z" fill="rgb(115,49,49)"/>
<path d="M60 51h1v1h-1v-1z" fill="rgb(139,82,49)"/>
<path d="M61 51h2v1h-2v-1z" fill="rgb(230,90,41)"/>
<path d="M63 51h1v2h-1v-2z" fill="rgb(255,156,24)"/>
<path d="M34 52h1v6h-1v-6z" fill="rgb(0,0,0)"/>
<path d="M59 52h1v2h-1v-2z" fill="rgb(230,205,139)"/>
<path d="M60 52h1v2h1v1h1v-2h1v1h1v1h-1v1h-1v2h-1v1h2v-1h1v2h-2v1h-2v-1h-1v-1h1v-2h-2v-1
	h1v-1h-1v-1h1v-2z" fill="rgb(230,90,41)"/>
<path d="M61 52h1v1h-1v-1z" fill="rgb(255,156,24)"/>
<path d="M62 52h1v2h-2v-1h1v-1z" fill="rgb(255,222,82)"/>
<path d="M53 53h1v3h1v1h3v-1h1v1h2v2h-1v1h1v2h1v3h-1v7h-2v-1h-1v-2h1v-6h-2v-1h-1v-1h-1
	v-3h-1v-1h-1v-2h-2v-1h2v-1z" fill="rgb(230,205,139)"/>
<path d="M35 54h1v1h2v1h1v3h-1v-1h-1v-2h-1v2h-1v-4z" fill="rgb(230,205,139)"/>
<path d="M62 54h1v1h-1v-1z" fill="rgb(255,156,24)"/>
<path d="M39 55h1v2h-1v-2z" fill="rgb(197,156,106)"/>
<path d="M49 55h2v1h-1v1h-2v-1h1v-1z" fill="rgb(230,205,139)"/>
<path d="M51 55h2v1h-2v-1z" fill="rgb(197,156,106)"/>
<path d="M59 55h1v1h-1v-1z" fill="rgb(230,205,139)"/>
<path d="M36 56h1v2h-1v-2z" fill="rgb(139,82,49)"/>
<path d="M45 56h1v1h-1v-1z" fill="rgb(230,205,139)"/>
<path d="M46 56h2v1h3v1h-1v1h-1v-1h-2v-1h-1v-1z" fill="rgb(230,90,41)"/>
<path d="M50 56h1v1h-1v-1z" fill="rgb(197,156,106)"/>
<path d="M51 56h2v1h-2v-1z" fill="rgb(0,0,0)"/>
<path d="M39 57h1v2h-1v-2z" fill="rgb(139,82,49)"/>
<path d="M45 57h1v1h-1v-1z" fill="rgb(230,90,41)"/>
<path d="M46 57h1v2h-2v-1h1v-1z" fill="rgb(255,222,82)"/>
<path d="M51 57h2v2h1v2h1v1h-1v1h-1v-1h-3v-1h1v-1h-2v-1h1v-1h1v-1z" fill="rgb(139,82,49)"/>
<path d="M53 57h1v2h-1v-2z" fill="rgb(0,0,0)"/>
<path d="M63 57h2v1h-2v-1z" fill="rgb(255,156,24)"/>
<path d="M65 57h1v1h-1v-1z" fill="rgb(230,90,41)"/>
<path d="M35 58h1v3h-1v-3z" fill="rgb(0,0,0)"/>
<path d="M36 58h1v1h-1v-1z" fill="rgb(230,205,139)"/>
<path d="M37 58h1v1h-1v-1z" fill="rgb(0,0,0)"/>
<path d="M40 58h1v2h-1v-2z" fill="rgb(230,205,139)"/>
<path d="M44 58h1v1h1v1h2v3h-2v-1h-1v-1h-1v-3z" fill="rgb(230,90,41)"/>
<path d="M47 58h2v1h-1v1h-2v-1h1v-1z" fill="rgb(255,156,24)"/>
<path d="M54 58h1v1h-1v-1z" fill="rgb(197,156,106)"/>
<path d="M62 58h2v1h-2v-1z" fill="rgb(255,222,82)"/>
<path d="M36 59h2v1h1v1h1v1h1v3h-1v7h-1v-1h-1v-7h-1v-3h-1v-2z" fill="rgb(197,156,106)"/>
<path d="M38 59h1v1h-1v-1z" fill="rgb(0,0,0)"/>
<path d="M39 59h1v1h-1v-1z" fill="rgb(115,49,49)"/>
<path d="M48 59h1v1h-1v-1z" fill="rgb(230,90,41)"/>
<path d="M51 59h1v1h-1v-1z" fill="rgb(230,90,41)"/>
<path d="M54 59h1v2h-1v-2z" fill="rgb(0,0,0)"/>
<path d="M39 60h1v1h-1v-1z" fill="rgb(0,0,0)"/>
<path d="M40 60h1v1h-1v-1z" fill="rgb(115,49,49)"/>
<path d="M48 60h2v1h-2v-1z" fill="rgb(255,222,82)"/>
<path d="M50 60h1v1h-1v-1z" fill="rgb(255,156,24)"/>
<path d="M36 61h1v3h-1v-3z" fill="rgb(0,0,0)"/>
<path d="M40 61h1v1h-1v-1z" fill="rgb(0,0,0)"/>
<path d="M41 61h1v1h-1v-1z" fill="rgb(230,205,139)"/>
<path d="M44 61h1v1h-1v-1z" fill="rgb(230,205,139)"/>
<path d="M48 61h2v1h-2v-1z" fill="rgb(255,156,24)"/>
<path d="M55 61h1v1h-1v-1z" fill="rgb(0,0,0)"/>
<path d="M61 61h1v1h-1v-1z" fill="rgb(0,0,0)"/>
<path d="M41 62h1v2h-1v-2z" fill="rgb(0,0,0)"/>
<path d="M45 62h1v2h1v3h-1v7h-1v-1h-1v-6h1v-5z" fill="rgb(230,205,139)"/>
<path d="M50 62h1v1h-1v-1z" fill="rgb(115,49,49)"/>
<path d="M51 62h2v1h1v6h-1v1h-1v-1h-1v-1h1v-5h-1v-1z" fill="rgb(197,156,106)"/>
<path d="M54 62h1v7h-1v-7z" fill="rgb(115,49,49)"/>
<path d="M56 62h1v1h-1v-1z" fill="rgb(0,0,0)"/>
<path d="M62 62h1v3h-1v-3z" fill="rgb(0,0,0)"/>
<path d="M42 63h1v1h-1v-1z" fill="rgb(230,205,139)"/>
<path d="M46 63h1v1h-1v-1z" fill="rgb(0,0,0)"/>
<path d="M51 63h1v5h-1v-5z" fill="rgb(115,49,49)"/>
<path d="M57 63h1v1h-1v-1z" fill="rgb(0,0,0)"/>
<path d="M58 63h1v1h-1v-1z" fill="rgb(139,82,49)"/>
<path d="M37 64h1v7h-1v-7z" fill="rgb(0,0,0)"/>
<path d="M41 64h1v1h-1v-1z" fill="rgb(115,49,49)"/>
<path d="M42 64h1v3h-1v-3z" fill="rgb(0,0,0)"/>
<path d="M47 64h1v3h-1v-3z" fill="rgb(0,0,0)"/>
<path d="M58 64h1v5h-1v-5z" fill="rgb(0,0,0)"/>
<path d="M40 65h1v6h-1v-6z" fill="rgb(0,0,0)"/>
<path d="M44 65h1v2h-1v-2z" fill="rgb(197,156,106)"/>
<path d="M61 65h1v7h-1v-7z" fill="rgb(0,0,0)"/>
<path d="M43 66h1v1h-1v-1z" fill="rgb(230,205,139)"/>
<path d="M43 67h1v6h-1v-6z" fill="rgb(0,0,0)"/>
<path d="M46 67h1v9h-1v-9z" fill="rgb(0,0,0)"/>
<path d="M50 68h1v1h-1v-1z" fill="rgb(115,49,49)"/>
<path d="M49 69h1v2h-1v-2z" fill="rgb(65,74,131)"/>
<path d="M50 69h1v2h-1v-2z" fill="rgb(115,123,164)"/>
<path d="M51 69h1v1h1v1h-2v-2z" fill="rgb(65,74,131)"/>
<path d="M53 69h1v2h-1v-2z" fill="rgb(0,0,0)"/>
<path d="M57 69h1v2h-1v-2z" fill="rgb(0,0,0)"/>
<path d="M37 71h2v1h1v2h-2v-2h-1v-1z" fill="rgb(65,74,131)"/>
<path d="M40 71h1v1h-1v-1z" fill="rgb(115,49,49)"/>
<path d="M49 71h4v1h-4v-1z" fill="rgb(0,0,0)"/>
<path d="M57 71h1v1h-1v-1z" fill="rgb(115,49,49)"/>
<path d="M58 71h1v1h-1v-1z" fill="rgb(65,74,131)"/>
<path d="M36 72h1v2h-1v-2z" fill="rgb(65,74,131)"/>
<path d="M37 72h1v1h-1v-1z" fill="rgb(197,197,213)"/>
<path d="M40 72h1v2h-1v-2z" fill="rgb(0,0,0)"/>
<path d="M56 72h1v2h-1v-2z" fill="rgb(65,74,131)"/>
<path d="M57 72h1v1h-1v-1z" fill="rgb(197,197,213)"/>
<path d="M58 72h1v1h-1v-1z" fill="rgb(115,123,164)"/>
<path d="M59 72h1v2h-2v-1h1v-1z" fill="rgb(65,74,131)"/>
<path d="M60 72h1v2h-1v-2z" fill="rgb(0,0,0)"/>
<path d="M37 73h1v1h-1v-1z" fill="rgb(115,123,164)"/>
<path d="M43 73h1v1h-1v-1z" fill="rgb(115,49,49)"/>
<path d="M44 73h1v1h1v2h-2v-3z" fill="rgb(65,74,131)"/>
<path d="M57 73h1v1h-1v-1z" fill="rgb(115,123,164)"/>
<path d="M36 74h4v1h-4v-1z" fill="rgb(0,0,0)"/>
<path d="M42 74h1v2h-1v-2z" fill="rgb(65,74,131)"/>
<path d="M43 74h1v1h-1v-1z" fill="rgb(197,197,213)"/>
<path d="M56 74h4v1h-4v-1z" fill="rgb(0,0,0)"/>
<path d="M43 75h1v1h-1v-1z" fill="rgb(115,123,164)"/>
<path d="M42 76h4v1h-4v-1z" fill="rgb(0,0,0)"/>
</svg>
