<?xml version="1.0" encoding="utf-8"?>
<!-- generated at drububu.com  -->
<!DOCTYPE svg PUBLIC "-//W3C//DTD SVG 1.1//EN" "http://www.w3.org/Graphics/SVG/1.1/DTD/svg11.dtd">
<svg version="1.1" preserveAspectRatio="xMinYMin meet" xmlns="http://www.w3.org/2000/svg" xmlns:xlink="http://www.w3.org/1999/xlink" x="0px" y="0px" width="96px" height="96px" viewBox="0 0 96 96">
<path d="M0 0h96v96h-96v-96z" fill="transparent"/>
<path d="M26 13h5v1h2v1h2v1h2v-1h1v2h1v2h-1v2h-1v-2h-2v-1h-2v1h-1v-1h-1v-1h1v-1h-1v-1h-1
	v-1h-4v-1z" fill="rgb(230,98,41)"/>
<path d="M23 14h1v1h-1v-1z" fill="rgb(255,156,24)"/>
<path d="M24 14h2v1h-2v-1z" fill="rgb(230,98,41)"/>
<path d="M26 14h4v1h1v1h1v1h-1v1h-1v-1h-4v1h-1v3h-2v-1h-1v-4h1v-1h3v-1z" fill="rgb(255,222,82)"/>
<path d="M38 14h2v1h-2v-1z" fill="rgb(255,156,24)"/>
<path d="M22 15h1v1h-1v-1z" fill="rgb(255,156,24)"/>
<path d="M38 15h2v1h3v2h1v3h-1v1h-2v1h-1v-1h-1v-1h-1v-1h1v-1h1v-2h-1v-1h-1v-1z" fill="rgb(255,222,82)"/>
<path d="M40 15h3v1h-3v-1z" fill="rgb(255,156,24)"/>
<path d="M21 16h1v4h-1v-4z" fill="rgb(255,156,24)"/>
<path d="M38 16h1v1h-1v-1z" fill="rgb(255,156,24)"/>
<path d="M43 16h1v2h-1v-2z" fill="rgb(255,156,24)"/>
<path d="M26 17h4v1h2v1h1v1h1v2h-1v2h-1v-4h-1v-1h-2v1h-1v4h-1v2h-3v-1h-1v-2h1v-2h1v-3h1
	v-1z" fill="rgb(255,156,24)"/>
<path d="M39 17h1v2h-1v-2z" fill="rgb(255,156,24)"/>
<path d="M33 18h2v1h-2v-1z" fill="rgb(255,156,24)"/>
<path d="M44 18h1v3h-1v-3z" fill="rgb(255,156,24)"/>
<path d="M29 19h2v1h-1v1h-1v1h-1v-2h1v-1z" fill="rgb(230,98,41)"/>
<path d="M33 19h3v1h1v2h2v1h-1v2h-1v1h-1v1h-1v-1h-1v-2h-1v-2h1v-2h-1v-1z" fill="rgb(255,222,82)"/>
<path d="M36 19h1v1h-1v-1z" fill="rgb(255,156,24)"/>
<path d="M38 19h1v1h-1v-1z" fill="rgb(255,156,24)"/>
<path d="M22 20h1v1h-1v-1z" fill="rgb(255,156,24)"/>
<path d="M30 20h1v1h-1v-1z" fill="rgb(115,49,49)"/>
<path d="M31 20h1v1h-1v-1z" fill="rgb(230,98,41)"/>
<path d="M23 21h1v2h-1v-2z" fill="rgb(230,98,41)"/>
<path d="M29 21h1v2h-1v-2z" fill="rgb(115,49,49)"/>
<path d="M30 21h1v2h-1v-2z" fill="rgb(255,230,197)"/>
<path d="M31 21h1v3h-1v-3z" fill="rgb(115,49,49)"/>
<path d="M37 21h1v1h-1v-1z" fill="rgb(255,156,24)"/>
<path d="M38 21h1v1h-1v-1z" fill="rgb(230,98,41)"/>
<path d="M43 21h1v1h-1v-1z" fill="rgb(255,156,24)"/>
<path d="M55 21h3v1h-3v-1z" fill="rgb(230,98,41)"/>
<path d="M18 22h2v1h-1v1h-1v-2z" fill="rgb(139,82,49)"/>
<path d="M28 22h1v1h-1v-1z" fill="rgb(222,16,16)"/>
<path d="M39 22h1v1h1v-1h1v2h1v2h2v-1h4v1h3v-1h1v-1h2v1h3v-1h3v1h2v1h-4v1h-2v1h-3v1h-1v2
	h-3v1h-1v-1h-3v1h-1v1h-4v-1h-1v-1h-1v-2h-1v-1h-1v-1h1v-1h-1v-1h1v-2h1v-1z" fill="rgb(255,156,24)"/>
<path d="M42 22h1v2h-1v-2z" fill="rgb(230,98,41)"/>
<path d="M53 22h2v1h-2v-1z" fill="rgb(230,98,41)"/>
<path d="M55 22h3v1h2v1h-2v1h-3v-1h-2v-1h2v-1z" fill="rgb(255,222,82)"/>
<path d="M58 22h2v1h-2v-1z" fill="rgb(230,98,41)"/>
<path d="M19 23h1v1h-1v-1z" fill="rgb(255,230,197)"/>
<path d="M20 23h1v1h-1v-1z" fill="rgb(139,82,49)"/>
<path d="M22 23h1v2h-1v-2z" fill="rgb(230,98,41)"/>
<path d="M28 23h1v4h-1v-4z" fill="rgb(115,49,49)"/>
<path d="M29 23h1v3h-1v-3z" fill="rgb(255,230,197)"/>
<path d="M30 23h1v1h-1v-1z" fill="rgb(197,148,106)"/>
<path d="M52 23h1v2h-1v-2z" fill="rgb(230,98,41)"/>
<path d="M60 23h1v1h-1v-1z" fill="rgb(230,98,41)"/>
<path d="M61 23h3v1h-3v-1z" fill="rgb(222,16,16)"/>
<path d="M19 24h1v1h-1v-1z" fill="rgb(197,148,106)"/>
<path d="M20 24h1v1h1v2h-1v-1h-1v-2z" fill="rgb(255,230,197)"/>
<path d="M21 24h1v1h-1v-1z" fill="rgb(139,82,49)"/>
<path d="M27 24h1v3h-3v-1h2v-2z" fill="rgb(230,98,41)"/>
<path d="M30 24h1v3h-1v-3z" fill="rgb(222,16,16)"/>
<path d="M31 24h1v2h-1v-2z" fill="rgb(238,197,139)"/>
<path d="M32 24h1v3h-1v-3z" fill="rgb(115,49,49)"/>
<path d="M33 24h1v2h1v1h1v1h-2v-1h-1v-3z" fill="rgb(255,156,24)"/>
<path d="M43 24h1v1h1v1h-2v-2z" fill="rgb(230,98,41)"/>
<path d="M45 24h4v1h-4v-1z" fill="rgb(230,98,41)"/>
<path d="M61 24h2v1h-2v-1z" fill="rgb(255,222,82)"/>
<path d="M63 24h1v1h-1v-1z" fill="rgb(230,98,41)"/>
<path d="M64 24h1v1h-1v-1z" fill="rgb(222,16,16)"/>
<path d="M67 24h2v1h-2v-1z" fill="rgb(222,16,16)"/>
<path d="M19 25h1v1h-1v-1z" fill="rgb(115,49,49)"/>
<path d="M22 25h1v1h-1v-1z" fill="rgb(139,82,49)"/>
<path d="M23 25h1v1h-1v-1z" fill="rgb(115,49,49)"/>
<path d="M49 25h3v1h-3v-1z" fill="rgb(230,98,41)"/>
<path d="M63 25h1v1h-1v-1z" fill="rgb(222,16,16)"/>
<path d="M66 25h1v1h1v1h-2v1h3v-1h2v-1h2v1h-1v2h-3v1h-4v-1h-3v-2h-2v-1h3v1h1v-1h2v-1z" fill="rgb(222,16,16)"/>
<path d="M67 25h2v1h2v1h-2v1h-3v-1h2v-1h-1v-1z" fill="rgb(230,98,41)"/>
<path d="M69 25h1v1h-1v-1z" fill="rgb(222,16,16)"/>
<path d="M73 25h3v1h-3v-1z" fill="rgb(222,16,16)"/>
<path d="M16 26h3v1h-2v1h-1v-2z" fill="rgb(115,49,49)"/>
<path d="M19 26h1v1h-1v-1z" fill="transparent"/>
<path d="M20 26h1v1h-1v-1z" fill="rgb(115,49,49)"/>
<path d="M22 26h1v1h2v1h1v1h-1v1h-2v-2h-1v-2z" fill="rgb(238,197,139)"/>
<path d="M23 26h1v1h-1v-1z" fill="rgb(197,148,106)"/>
<path d="M24 26h1v1h-1v-1z" fill="rgb(115,49,49)"/>
<path d="M29 26h1v3h-1v-3z" fill="rgb(238,197,139)"/>
<path d="M31 26h1v1h-1v-1z" fill="rgb(197,148,106)"/>
<path d="M36 26h1v1h-1v-1z" fill="rgb(255,156,24)"/>
<path d="M37 26h1v1h-1v-1z" fill="rgb(230,98,41)"/>
<path d="M59 26h1v1h-1v-1z" fill="rgb(230,98,41)"/>
<path d="M63 26h1v1h-1v-1z" fill="rgb(230,98,41)"/>
<path d="M73 26h3v2h-1v1h-1v-1h-2v-1h1v-1z" fill="rgb(230,98,41)"/>
<path d="M76 26h1v3h-2v-1h1v-2z" fill="rgb(222,16,16)"/>
<path d="M17 27h2v1h-2v-1z" fill="rgb(255,230,197)"/>
<path d="M19 27h2v1h-2v-1z" fill="rgb(0,0,0)"/>
<path d="M21 27h1v1h-1v-1z" fill="rgb(115,49,49)"/>
<path d="M25 27h1v1h-1v-1z" fill="rgb(0,0,0)"/>
<path d="M26 27h1v1h-1v-1z" fill="rgb(222,16,16)"/>
<path d="M27 27h1v1h-1v-1z" fill="rgb(115,49,49)"/>
<path d="M28 27h1v1h-1v-1z" fill="rgb(197,148,106)"/>
<path d="M30 27h1v1h-1v-1z" fill="rgb(230,98,41)"/>
<path d="M31 27h1v2h-1v-2z" fill="rgb(222,16,16)"/>
<path d="M32 27h1v4h1v3h1v4h1v4h1v2h1v1h1v1h1v1h-1v1h-1v2h-1v2h-1v1h-1v1h-1v1h1v1h-1v1h1
	v-1h1v1h1v4h-3v-1h-1v-1h-1v-2h-1v-2h-1v-5h-1v-5h1v-1h1v-3h1v-3h-1v2h-1v3h-2v-1
	h-1v1h1v1h-2v-1h-1v-1h1v-1h1v-2h1v-3h3v-4h-1v-3h1v1h1v-3z" fill="rgb(238,197,139)"/>
<path d="M33 27h1v1h-1v-1z" fill="rgb(115,49,49)"/>
<path d="M36 27h1v1h-1v-1z" fill="rgb(230,98,41)"/>
<path d="M39 27h2v1h-2v-1z" fill="rgb(230,98,41)"/>
<path d="M57 27h2v1h1v2h-2v-1h-3v1h-1v2h-1v-3h1v-1h3v-1z" fill="rgb(230,98,41)"/>
<path d="M59 27h1v1h-1v-1z" fill="rgb(222,16,16)"/>
<path d="M17 28h1v1h-1v-1z" fill="rgb(115,49,49)"/>
<path d="M18 28h1v1h-1v-1z" fill="rgb(222,16,16)"/>
<path d="M19 28h1v1h-1v-1z" fill="rgb(255,230,197)"/>
<path d="M20 28h1v1h-1v-1z" fill="rgb(238,197,139)"/>
<path d="M21 28h1v1h-1v-1z" fill="rgb(0,0,0)"/>
<path d="M22 28h1v1h-1v-1z" fill="rgb(197,148,106)"/>
<path d="M26 28h3v1h1v3h-2v3h-1v-2h-1v2h1v1h1v3h-1v2h-1v1h-1v-1h-1v-5h-1v-5h2v-1h1v-2z" fill="rgb(255,230,197)"/>
<path d="M30 28h1v1h-1v-1z" fill="rgb(197,148,106)"/>
<path d="M33 28h1v2h-1v-2z" fill="rgb(0,0,0)"/>
<path d="M34 28h2v1h1v1h1v-1h1v2h1v1h1v1h4v-1h1v-1h3v1h1v1h-2v-1h-1v1h-1v1h-5v1h-1v-1h-2
	v1h-2v-2h-1v-3h-1v-2z" fill="rgb(230,98,41)"/>
<path d="M36 28h1v1h-1v-1z" fill="rgb(255,156,24)"/>
<path d="M37 28h1v1h-1v-1z" fill="rgb(230,98,41)"/>
<path d="M39 28h1v1h-1v-1z" fill="rgb(222,16,16)"/>
<path d="M60 28h1v2h-1v-2z" fill="rgb(222,16,16)"/>
<path d="M73 28h1v1h1v1h-2v-2z" fill="rgb(222,16,16)"/>
<path d="M18 29h1v1h-1v-1z" fill="rgb(115,49,49)"/>
<path d="M19 29h1v1h-1v-1z" fill="rgb(222,16,16)"/>
<path d="M20 29h1v1h-1v-1z" fill="rgb(139,82,49)"/>
<path d="M21 29h1v3h-1v-3z" fill="rgb(238,197,139)"/>
<path d="M22 29h1v1h-1v-1z" fill="rgb(0,0,0)"/>
<path d="M25 29h1v1h-1v-1z" fill="rgb(197,148,106)"/>
<path d="M31 29h1v1h-1v-1z" fill="rgb(197,148,106)"/>
<path d="M37 29h1v1h-1v-1z" fill="rgb(255,156,24)"/>
<path d="M55 29h3v1h2v1h2v3h-1v1h-2v1h-4v-1h-2v-1h-1v1h-2v-1h-1v2h-1v1h2v-1h2v2h-1v1h-2
	v-1h-1v1h-3v1h-2v-1h-2v-1h-1v1h-2v1h-1v-3h-1v-2h2v-1h2v1h1v-1h5v1h1v-1h1v-1h2
	v-1h2v-1h1v1h1v-2h1v-1z" fill="rgb(222,16,16)"/>
<path d="M19 30h1v1h-1v-1z" fill="rgb(115,49,49)"/>
<path d="M20 30h1v1h-1v-1z" fill="rgb(222,16,16)"/>
<path d="M22 30h1v3h-2v-1h1v-2z" fill="rgb(197,148,106)"/>
<path d="M23 30h1v1h-1v-1z" fill="rgb(0,0,0)"/>
<path d="M24 30h1v1h-1v-1z" fill="rgb(115,49,49)"/>
<path d="M33 30h1v1h-1v-1z" fill="rgb(197,148,106)"/>
<path d="M34 30h1v2h-1v-2z" fill="rgb(0,0,0)"/>
<path d="M20 31h1v2h-1v-2z" fill="rgb(115,49,49)"/>
<path d="M50 31h2v1h-2v-1z" fill="rgb(230,98,41)"/>
<path d="M55 31h1v1h-1v-1z" fill="rgb(230,98,41)"/>
<path d="M28 32h1v2h-1v-2z" fill="rgb(238,197,139)"/>
<path d="M29 32h1v2h-1v-2z" fill="rgb(115,49,49)"/>
<path d="M30 32h1v1h-1v-1z" fill="rgb(197,148,106)"/>
<path d="M34 32h1v1h-1v-1z" fill="rgb(115,49,49)"/>
<path d="M38 32h1v1h-1v-1z" fill="rgb(222,16,16)"/>
<path d="M47 32h1v1h-1v-1z" fill="rgb(222,16,16)"/>
<path d="M54 32h1v1h-1v-1z" fill="rgb(230,98,41)"/>
<path d="M56 32h1v1h-1v-1z" fill="rgb(230,98,41)"/>
<path d="M21 33h1v2h-1v-2z" fill="rgb(0,0,0)"/>
<path d="M22 33h1v2h-1v-2z" fill="rgb(238,197,139)"/>
<path d="M26 33h1v2h-1v-2z" fill="rgb(197,148,106)"/>
<path d="M30 33h1v1h-1v-1z" fill="rgb(197,197,197)"/>
<path d="M34 33h1v1h-1v-1z" fill="rgb(197,148,106)"/>
<path d="M35 33h1v4h-1v-4z" fill="rgb(0,0,0)"/>
<path d="M46 33h1v1h-1v-1z" fill="rgb(222,16,16)"/>
<path d="M47 33h1v1h-1v-1z" fill="rgb(230,98,41)"/>
<path d="M85 33h1v2h-2v1h-1v1h-1v-2h1v-1h2v-1z" fill="rgb(222,16,16)"/>
<path d="M28 34h1v1h-1v-1z" fill="rgb(115,49,49)"/>
<path d="M29 34h1v1h-1v-1z" fill="rgb(222,16,16)"/>
<path d="M30 34h1v1h-1v-1z" fill="rgb(255,255,255)"/>
<path d="M46 34h1v1h-1v-1z" fill="rgb(230,98,41)"/>
<path d="M49 34h1v1h-1v-1z" fill="rgb(230,98,41)"/>
<path d="M22 35h1v2h-1v-2z" fill="rgb(115,49,49)"/>
<path d="M27 35h1v1h-1v-1z" fill="rgb(238,197,139)"/>
<path d="M28 35h1v1h-1v-1z" fill="rgb(0,0,0)"/>
<path d="M29 35h1v1h-1v-1z" fill="rgb(115,49,49)"/>
<path d="M30 35h1v1h-1v-1z" fill="rgb(197,148,106)"/>
<path d="M38 35h1v1h-1v-1z" fill="rgb(230,98,41)"/>
<path d="M66 35h2v1h-1v1h-1v-2z" fill="rgb(230,98,41)"/>
<path d="M84 35h1v1h-1v-1z" fill="rgb(230,98,41)"/>
<path d="M23 36h1v1h-1v-1z" fill="rgb(197,148,106)"/>
<path d="M32 36h1v2h-1v-2z" fill="rgb(139,82,49)"/>
<path d="M67 36h1v1h1v1h-1v1h1v1h-2v-1h-2v1h-1v1h-1v-2h1v-1h2v-1h1v-1z" fill="rgb(255,222,82)"/>
<path d="M68 36h2v1h1v1h-2v-1h-1v-1z" fill="rgb(230,98,41)"/>
<path d="M71 36h2v4h-2v-1h1v-2h-1v-1z" fill="rgb(230,98,41)"/>
<path d="M76 36h2v1h-2v-1z" fill="rgb(230,98,41)"/>
<path d="M83 36h1v1h-1v-1z" fill="rgb(230,98,41)"/>
<path d="M84 36h1v1h-1v-1z" fill="rgb(255,156,24)"/>
<path d="M85 36h2v2h-1v-1h-1v-1z" fill="rgb(222,16,16)"/>
<path d="M23 37h1v1h-1v-1z" fill="rgb(0,0,0)"/>
<path d="M35 37h1v1h-1v-1z" fill="rgb(197,148,106)"/>
<path d="M36 37h1v3h-1v-3z" fill="rgb(0,0,0)"/>
<path d="M64 37h2v1h-2v-1z" fill="rgb(255,156,24)"/>
<path d="M71 37h1v1h-1v-1z" fill="rgb(255,222,82)"/>
<path d="M75 37h1v1h-1v-1z" fill="rgb(230,98,41)"/>
<path d="M76 37h2v2h-2v1h-1v-2h1v-1z" fill="rgb(255,222,82)"/>
<path d="M78 37h1v1h-1v-1z" fill="rgb(222,16,16)"/>
<path d="M83 37h1v2h1v-1h1v2h-2v2h1v1h-1v1h-1v1h-3v-1h-1v1h-1v-2h1v-1h1v-1h1v-2h2v-2z" fill="rgb(222,16,16)"/>
<path d="M84 37h2v1h-1v1h-1v-2z" fill="rgb(230,98,41)"/>
<path d="M23 38h1v2h-1v-2z" fill="rgb(115,49,49)"/>
<path d="M31 38h1v2h-1v-2z" fill="rgb(139,82,49)"/>
<path d="M63 38h1v1h-1v-1z" fill="rgb(255,156,24)"/>
<path d="M68 38h2v1h1v2h-1v-1h-1v-1h-1v-1z" fill="rgb(255,156,24)"/>
<path d="M70 38h1v1h-1v-1z" fill="rgb(255,222,82)"/>
<path d="M71 38h1v1h-1v-1z" fill="rgb(255,156,24)"/>
<path d="M74 38h1v2h-1v-2z" fill="rgb(222,16,16)"/>
<path d="M78 38h1v1h1v1h-1v2h-1v1h-1v2h1v1h1v2h-3v-1h-2v-1h-1v-1h1v-1h1v-1h-1v-1h-1v-1h2
	v-1h1v-1h2v-1z" fill="rgb(255,156,24)"/>
<path d="M79 38h1v1h-1v-1z" fill="rgb(230,98,41)"/>
<path d="M80 38h1v1h-1v-1z" fill="rgb(222,16,16)"/>
<path d="M52 39h3v1h-3v-1z" fill="rgb(230,98,41)"/>
<path d="M62 39h1v2h-1v-2z" fill="rgb(255,156,24)"/>
<path d="M65 39h2v1h2v1h1v1h3v1h1v1h-1v1h-1v-1h-2v1h-1v1h-2v-1h-3v-1h-2v1h-1v-3h2v-1h1
	v-1h1v-1z" fill="rgb(255,156,24)"/>
<path d="M80 39h1v2h-1v1h-1v-2h1v-1z" fill="rgb(230,98,41)"/>
<path d="M23 40h1v1h-1v-1z" fill="rgb(139,82,49)"/>
<path d="M30 40h1v1h-1v-1z" fill="rgb(139,82,49)"/>
<path d="M31 40h1v1h-1v-1z" fill="rgb(197,148,106)"/>
<path d="M36 40h1v1h-1v-1z" fill="rgb(115,49,49)"/>
<path d="M51 40h1v2h-1v-2z" fill="rgb(230,98,41)"/>
<path d="M52 40h3v1h-1v1h2v1h-1v1h1v1h-4v-1h-3v1h-3v-1h1v-1h4v-1h1v-2z" fill="rgb(255,222,82)"/>
<path d="M55 40h1v2h-2v-1h1v-1z" fill="rgb(230,98,41)"/>
<path d="M59 40h2v1h-2v-1z" fill="rgb(230,98,41)"/>
<path d="M69 40h1v1h-1v-1z" fill="rgb(255,222,82)"/>
<path d="M71 40h1v1h-1v-1z" fill="rgb(222,16,16)"/>
<path d="M72 40h1v1h-1v-1z" fill="transparent"/>
<path d="M73 40h1v1h-1v-1z" fill="rgb(222,16,16)"/>
<path d="M74 40h1v1h-1v-1z" fill="rgb(230,98,41)"/>
<path d="M23 41h1v1h-1v-1z" fill="rgb(115,49,49)"/>
<path d="M24 41h1v1h-1v-1z" fill="rgb(238,197,139)"/>
<path d="M30 41h1v2h-1v-2z" fill="rgb(0,0,0)"/>
<path d="M36 41h1v1h-1v-1z" fill="rgb(197,148,106)"/>
<path d="M37 41h1v2h-1v-2z" fill="rgb(115,49,49)"/>
<path d="M58 41h1v1h-1v-1z" fill="rgb(230,98,41)"/>
<path d="M59 41h2v1h-1v1h1v1h-1v1h-1v-1h-2v-1h1v-1h1v-1z" fill="rgb(255,222,82)"/>
<path d="M61 41h1v1h-1v-1z" fill="rgb(222,16,16)"/>
<path d="M62 41h1v1h-1v-1z" fill="rgb(230,98,41)"/>
<path d="M70 41h2v1h-2v-1z" fill="rgb(230,98,41)"/>
<path d="M72 41h1v1h-1v-1z" fill="rgb(222,16,16)"/>
<path d="M24 42h1v1h-1v-1z" fill="rgb(115,49,49)"/>
<path d="M27 42h1v1h-1v-1z" fill="rgb(139,82,49)"/>
<path d="M47 42h2v1h-2v-1z" fill="rgb(230,98,41)"/>
<path d="M49 42h2v1h-2v-1z" fill="rgb(255,156,24)"/>
<path d="M56 42h2v1h-2v-1z" fill="rgb(230,98,41)"/>
<path d="M60 42h1v1h-1v-1z" fill="rgb(222,16,16)"/>
<path d="M73 42h1v1h-1v-1z" fill="rgb(230,98,41)"/>
<path d="M78 42h1v1h-1v-1z" fill="rgb(230,98,41)"/>
<path d="M25 43h1v1h-1v-1z" fill="rgb(115,49,49)"/>
<path d="M28 43h1v1h-1v-1z" fill="rgb(197,148,106)"/>
<path d="M29 43h1v1h-1v-1z" fill="rgb(0,0,0)"/>
<path d="M30 43h1v1h-1v-1z" fill="rgb(197,148,106)"/>
<path d="M37 43h1v1h-1v-1z" fill="rgb(197,148,106)"/>
<path d="M38 43h1v2h-1v-2z" fill="rgb(115,49,49)"/>
<path d="M46 43h1v1h-1v-1z" fill="rgb(230,98,41)"/>
<path d="M55 43h2v1h2v1h-1v1h-1v1h-1v-1h-3v1h-5v1h-1v-1h-1v1h-2v-1h-1v-1h1v-1h1v1h1v-1h3
	v-1h3v1h4v-1h-1v-1z" fill="rgb(255,156,24)"/>
<path d="M74 43h1v1h-1v-1z" fill="rgb(230,98,41)"/>
<path d="M77 43h1v2h-1v-2z" fill="rgb(230,98,41)"/>
<path d="M26 44h3v1h-3v-1z" fill="rgb(0,0,0)"/>
<path d="M29 44h1v1h-1v-1z" fill="rgb(197,148,106)"/>
<path d="M41 44h2v1h1v1h-1v1h-1v-1h-2v-1h1v-1z" fill="rgb(230,98,41)"/>
<path d="M44 44h2v1h-2v-1z" fill="rgb(230,98,41)"/>
<path d="M60 44h1v1h-1v-1z" fill="rgb(222,16,16)"/>
<path d="M62 44h2v1h-2v-1z" fill="rgb(230,98,41)"/>
<path d="M70 44h2v1h-2v-1z" fill="rgb(230,98,41)"/>
<path d="M73 44h1v1h-1v-1z" fill="rgb(230,98,41)"/>
<path d="M28 45h1v5h-1v-5z" fill="rgb(115,49,49)"/>
<path d="M39 45h1v1h-1v-1z" fill="rgb(0,0,0)"/>
<path d="M45 45h1v1h-1v-1z" fill="rgb(255,222,82)"/>
<path d="M58 45h2v1h-2v-1z" fill="rgb(222,16,16)"/>
<path d="M60 45h2v1h-1v1h-1v1h-2v-2h2v-1z" fill="rgb(230,98,41)"/>
<path d="M62 45h2v1h3v1h2v-1h1v-1h2v1h1v1h-1v2h2v-1h2v1h2v1h-2v1h-1v1h-3v-1h-1v-1h-2v1
	h-1v-2h-1v-1h-1v3h2v1h-1v1h-5v-1h-1v-1h-1v-1h-1v-2h1v-1h1v-1h1v-1z" fill="rgb(222,16,16)"/>
<path d="M64 45h3v1h-3v-1z" fill="rgb(230,98,41)"/>
<path d="M69 45h1v1h-1v-1z" fill="rgb(230,98,41)"/>
<path d="M72 45h1v1h-1v-1z" fill="rgb(230,98,41)"/>
<path d="M75 45h1v1h-1v-1z" fill="rgb(230,98,41)"/>
<path d="M78 45h1v1h-1v-1z" fill="rgb(230,98,41)"/>
<path d="M40 46h2v1h-2v-1z" fill="rgb(222,16,16)"/>
<path d="M53 46h1v1h-1v-1z" fill="rgb(222,16,16)"/>
<path d="M54 46h2v1h-2v-1z" fill="rgb(230,98,41)"/>
<path d="M57 46h1v2h-2v-1h1v-1z" fill="rgb(222,16,16)"/>
<path d="M67 46h2v1h-2v-1z" fill="rgb(230,98,41)"/>
<path d="M73 46h1v1h-1v-1z" fill="rgb(230,98,41)"/>
<path d="M79 46h1v2h-1v-2z" fill="rgb(230,98,41)"/>
<path d="M39 47h3v1h1v1h1v1h2v-1h2v-1h5v-1h1v1h3v1h1v1h1v1h1v1h1v1h1v2h-1v1h-1v-1h-1v1
	h-1v-1h-1v1h-1v1h-5v1h-3v1h-2v1h-1v2h-1v2h-1v2h-1v2h-1v2h-2v-1h-1v-7h-1v-4h1v-3
	h-2v-1h-1v-1h1v-1h1v-2h1v-2h1v-1z" fill="rgb(255,230,197)"/>
<path d="M42 47h1v1h-1v-1z" fill="rgb(238,197,139)"/>
<path d="M43 47h1v1h-1v-1z" fill="rgb(230,98,41)"/>
<path d="M46 47h1v2h-3v-1h2v-1z" fill="rgb(230,98,41)"/>
<path d="M48 47h2v1h-2v-1z" fill="rgb(238,197,139)"/>
<path d="M50 47h2v1h-2v-1z" fill="rgb(230,98,41)"/>
<path d="M52 47h1v1h-1v-1z" fill="rgb(238,197,139)"/>
<path d="M54 47h2v1h-2v-1z" fill="rgb(238,197,139)"/>
<path d="M72 47h1v1h1v1h-2v-2z" fill="rgb(230,98,41)"/>
<path d="M73 47h1v1h-1v-1z" fill="rgb(222,16,16)"/>
<path d="M74 47h2v1h-2v-1z" fill="rgb(230,98,41)"/>
<path d="M43 48h1v1h-1v-1z" fill="rgb(238,197,139)"/>
<path d="M47 48h1v1h-1v-1z" fill="rgb(238,197,139)"/>
<path d="M57 48h1v1h-1v-1z" fill="rgb(238,197,139)"/>
<path d="M58 48h1v2h-1v-2z" fill="rgb(139,82,49)"/>
<path d="M66 48h1v1h1v2h-2v-3z" fill="rgb(230,98,41)"/>
<path d="M76 48h2v1h-2v-1z" fill="rgb(230,98,41)"/>
<path d="M78 48h1v1h-1v-1z" fill="rgb(222,16,16)"/>
<path d="M44 49h2v1h-2v-1z" fill="rgb(238,197,139)"/>
<path d="M29 50h1v4h-1v-4z" fill="rgb(115,49,49)"/>
<path d="M59 50h1v1h-1v-1z" fill="rgb(139,82,49)"/>
<path d="M60 51h1v1h-1v-1z" fill="rgb(139,82,49)"/>
<path d="M24 52h2v2h-1v2h-1v-1h-1v-2h1v-1z" fill="rgb(230,98,41)"/>
<path d="M61 52h1v1h-1v-1z" fill="rgb(139,82,49)"/>
<path d="M62 53h1v2h-1v-2z" fill="rgb(139,82,49)"/>
<path d="M28 54h1v1h-1v-1z" fill="rgb(115,49,49)"/>
<path d="M29 54h1v3h1v2h1v1h1v2h-3v1h-2v1h-2v-2h-1v-2h1v-1h1v-1h1v-2h1v-2z" fill="rgb(197,148,106)"/>
<path d="M34 54h1v1h-1v-1z" fill="rgb(255,230,197)"/>
<path d="M35 54h1v1h-1v-1z" fill="rgb(238,197,139)"/>
<path d="M38 54h1v1h-1v-1z" fill="rgb(197,148,106)"/>
<path d="M25 55h1v1h-1v-1z" fill="rgb(255,156,24)"/>
<path d="M26 55h1v3h-1v-3z" fill="rgb(230,98,41)"/>
<path d="M28 55h1v1h-1v-1z" fill="rgb(139,82,49)"/>
<path d="M30 55h1v2h-1v-2z" fill="rgb(139,82,49)"/>
<path d="M35 55h1v1h-1v-1z" fill="rgb(255,230,197)"/>
<path d="M36 55h2v1h-2v-1z" fill="rgb(238,197,139)"/>
<path d="M57 55h1v1h-1v-1z" fill="rgb(238,197,139)"/>
<path d="M59 55h1v1h-1v-1z" fill="rgb(238,197,139)"/>
<path d="M61 55h2v4h-1v8h-1v1h-4v-1h-1v-1h-1v-1h-1v-2h-1v-2h-3v1h-3v1h-1v-4h2v-1h3v-1h5
	v1h1v1h1v-1h1v1h1v-1h1v-1h-1v-1h1v-1z" fill="rgb(238,197,139)"/>
<path d="M63 55h1v5h-1v-5z" fill="rgb(0,0,0)"/>
<path d="M24 56h1v1h-1v-1z" fill="rgb(255,156,24)"/>
<path d="M25 56h1v4h-1v-2h-1v-1h1v-1z" fill="rgb(255,222,82)"/>
<path d="M27 56h1v2h-1v-2z" fill="rgb(139,82,49)"/>
<path d="M34 56h1v1h-1v-1z" fill="rgb(255,230,197)"/>
<path d="M36 56h1v1h-1v-1z" fill="rgb(255,230,197)"/>
<path d="M37 56h1v2h-1v-2z" fill="rgb(197,148,106)"/>
<path d="M56 56h1v1h-1v-1z" fill="rgb(238,197,139)"/>
<path d="M57 56h1v1h-1v-1z" fill="rgb(255,230,197)"/>
<path d="M58 56h1v1h-1v-1z" fill="rgb(238,197,139)"/>
<path d="M59 56h1v1h-1v-1z" fill="rgb(255,230,197)"/>
<path d="M22 57h2v2h1v1h-2v-1h-1v-2z" fill="rgb(230,98,41)"/>
<path d="M31 57h1v2h-1v-2z" fill="rgb(139,82,49)"/>
<path d="M56 57h1v1h-1v-1z" fill="rgb(255,230,197)"/>
<path d="M57 57h1v1h-1v-1z" fill="rgb(238,197,139)"/>
<path d="M58 57h1v1h-1v-1z" fill="rgb(255,230,197)"/>
<path d="M59 57h1v1h-1v-1z" fill="rgb(238,197,139)"/>
<path d="M60 57h1v1h-1v-1z" fill="rgb(255,230,197)"/>
<path d="M24 58h1v1h-1v-1z" fill="rgb(255,156,24)"/>
<path d="M26 58h1v1h-1v-1z" fill="rgb(139,82,49)"/>
<path d="M57 58h1v1h-1v-1z" fill="rgb(255,230,197)"/>
<path d="M59 58h1v1h-1v-1z" fill="rgb(255,230,197)"/>
<path d="M32 59h1v1h-1v-1z" fill="rgb(0,0,0)"/>
<path d="M55 59h1v1h-1v-1z" fill="rgb(197,148,106)"/>
<path d="M62 59h1v1h-1v-1z" fill="rgb(197,148,106)"/>
<path d="M24 60h1v1h-1v-1z" fill="rgb(139,82,49)"/>
<path d="M33 60h1v1h1v1h-2v-2z" fill="rgb(0,0,0)"/>
<path d="M45 60h1v1h-1v-1z" fill="rgb(197,148,106)"/>
<path d="M53 60h2v2h-1v-1h-1v-1z" fill="rgb(197,148,106)"/>
<path d="M62 60h1v1h-1v-1z" fill="rgb(115,49,49)"/>
<path d="M23 61h1v1h-1v-1z" fill="rgb(115,49,49)"/>
<path d="M24 61h1v1h1v2h-1v1h-1v-1h-1v1h-1v2h-1v-3h1v-1h1v-1h1v-1z" fill="rgb(255,230,197)"/>
<path d="M35 61h1v1h-1v-1z" fill="rgb(197,148,106)"/>
<path d="M36 61h1v2h-1v-2z" fill="rgb(139,82,49)"/>
<path d="M45 61h1v1h-1v-1z" fill="rgb(139,82,49)"/>
<path d="M50 61h3v1h-3v-1z" fill="rgb(139,82,49)"/>
<path d="M62 61h1v3h-1v-3z" fill="rgb(0,0,0)"/>
<path d="M22 62h1v1h-1v-1z" fill="rgb(115,49,49)"/>
<path d="M30 62h3v1h-3v-1z" fill="rgb(0,0,0)"/>
<path d="M35 62h1v1h-1v-1z" fill="rgb(0,0,0)"/>
<path d="M37 62h1v1h-1v-1z" fill="rgb(197,148,106)"/>
<path d="M44 62h1v1h-1v-1z" fill="rgb(139,82,49)"/>
<path d="M45 62h1v1h-1v-1z" fill="rgb(197,148,106)"/>
<path d="M47 62h1v1h-1v-1z" fill="rgb(139,82,49)"/>
<path d="M48 62h2v1h-2v-1z" fill="rgb(0,0,0)"/>
<path d="M50 62h2v1h1v2h1v4h1v2h-1v2h-1v2h-3v-1h1v-2h-1v-1h1v-2h-1v-2h-1v-2h-1v-2h2v-1z" fill="rgb(197,148,106)"/>
<path d="M52 62h1v1h-1v-1z" fill="rgb(0,0,0)"/>
<path d="M55 62h1v2h-1v-2z" fill="rgb(197,148,106)"/>
<path d="M21 63h1v1h-1v-1z" fill="rgb(115,49,49)"/>
<path d="M28 63h2v1h-2v-1z" fill="rgb(0,0,0)"/>
<path d="M30 63h2v1h-1v1h-1v-2z" fill="rgb(222,16,16)"/>
<path d="M37 63h1v2h-1v-2z" fill="rgb(139,82,49)"/>
<path d="M44 63h1v1h-1v-1z" fill="rgb(115,49,49)"/>
<path d="M45 63h3v2h-1v-1h-2v-1z" fill="rgb(0,0,0)"/>
<path d="M53 63h1v2h-1v-2z" fill="rgb(0,0,0)"/>
<path d="M20 64h1v4h-1v-4z" fill="rgb(115,49,49)"/>
<path d="M23 64h1v1h-1v-1z" fill="rgb(197,148,106)"/>
<path d="M25 64h1v1h-1v-1z" fill="rgb(197,148,106)"/>
<path d="M26 64h2v1h-2v-1z" fill="rgb(0,0,0)"/>
<path d="M28 64h2v1h-1v1h-3v-1h2v-1z" fill="rgb(230,98,41)"/>
<path d="M31 64h1v1h-1v-1z" fill="rgb(230,98,41)"/>
<path d="M43 64h1v2h-1v-2z" fill="rgb(238,197,139)"/>
<path d="M44 64h1v2h-1v-2z" fill="rgb(0,0,0)"/>
<path d="M45 64h2v1h1v2h1v1h-1v1h-2v1h-1v-1h-1v1h-1v-2h1v-2h1v-2z" fill="transparent"/>
<path d="M62 64h1v1h-1v-1z" fill="rgb(115,49,49)"/>
<path d="M22 65h1v2h-1v-2z" fill="rgb(197,148,106)"/>
<path d="M23 65h2v4h1v1h1v2h-1v1h-1v-1h-1v-2h-1v-1h-1v-1h-1v-1h2v-2z" fill="rgb(238,197,139)"/>
<path d="M25 65h1v1h-1v-1z" fill="rgb(139,82,49)"/>
<path d="M29 65h1v2h1v1h-3v2h-1v-1h-1v-3h3v-1z" fill="rgb(222,16,16)"/>
<path d="M37 65h1v7h-1v-7z" fill="rgb(115,49,49)"/>
<path d="M48 65h1v2h-1v-2z" fill="rgb(0,0,0)"/>
<path d="M54 65h1v2h-1v-2z" fill="rgb(0,0,0)"/>
<path d="M62 65h1v2h1v2h1v4h1v2h-1v2h1v2h-1v-1h-1v-5h-1v-2h-1v-1h-3v-1h-2v-1h4v-1h1v-2z" fill="rgb(197,148,106)"/>
<path d="M63 65h1v1h-1v-1z" fill="rgb(0,0,0)"/>
<path d="M71 65h2v1h-2v-1z" fill="rgb(255,156,24)"/>
<path d="M25 66h1v3h-1v-3z" fill="rgb(0,0,0)"/>
<path d="M30 66h1v1h-1v-1z" fill="rgb(230,98,41)"/>
<path d="M42 66h1v2h-1v-2z" fill="rgb(238,197,139)"/>
<path d="M43 66h1v1h-1v-1z" fill="rgb(115,49,49)"/>
<path d="M55 66h1v1h-1v-1z" fill="rgb(197,148,106)"/>
<path d="M63 66h1v1h-1v-1z" fill="rgb(115,49,49)"/>
<path d="M70 66h1v1h-1v-1z" fill="rgb(255,156,24)"/>
<path d="M71 66h2v2h-2v1h-1v2h1v1h-3v1h-1v-2h1v-1h-1v-1h2v-1h1v-1h1v-1z" fill="rgb(255,222,82)"/>
<path d="M73 66h1v2h-1v-2z" fill="rgb(255,156,24)"/>
<path d="M43 67h1v1h-1v-1z" fill="rgb(0,0,0)"/>
<path d="M49 67h1v1h-1v-1z" fill="rgb(0,0,0)"/>
<path d="M54 67h1v1h-1v-1z" fill="rgb(115,49,49)"/>
<path d="M55 67h1v1h-1v-1z" fill="rgb(0,0,0)"/>
<path d="M56 67h1v1h-1v-1z" fill="rgb(197,148,106)"/>
<path d="M64 67h1v1h-1v-1z" fill="rgb(0,0,0)"/>
<path d="M69 67h1v1h-1v-1z" fill="rgb(255,156,24)"/>
<path d="M21 68h1v1h-1v-1z" fill="rgb(115,49,49)"/>
<path d="M28 68h1v1h-1v-1z" fill="rgb(230,98,41)"/>
<path d="M41 68h1v2h-1v-2z" fill="rgb(238,197,139)"/>
<path d="M42 68h1v1h-1v-1z" fill="rgb(115,49,49)"/>
<path d="M48 68h2v1h-2v-1z" fill="rgb(230,98,41)"/>
<path d="M54 68h2v1h1v3h1v1h-1v2h-2v-1h-1v1h-1v-2h1v-2h1v-2h-1v-1z" fill="rgb(230,98,41)"/>
<path d="M56 68h1v1h-1v-1z" fill="rgb(0,0,0)"/>
<path d="M64 68h1v1h-1v-1z" fill="rgb(115,49,49)"/>
<path d="M67 68h2v1h-2v-1z" fill="rgb(255,156,24)"/>
<path d="M71 68h2v2h-1v2h-1v-1h-1v-2h1v-1z" fill="rgb(255,156,24)"/>
<path d="M75 68h2v1h-1v1h2v2h-1v-1h-2v-3z" fill="rgb(255,156,24)"/>
<path d="M22 69h1v1h-1v-1z" fill="rgb(115,49,49)"/>
<path d="M26 69h1v1h-1v-1z" fill="rgb(0,0,0)"/>
<path d="M38 69h1v1h-1v-1z" fill="rgb(238,197,139)"/>
<path d="M42 69h1v1h-1v-1z" fill="rgb(0,0,0)"/>
<path d="M44 69h1v1h-1v-1z" fill="rgb(230,98,41)"/>
<path d="M46 69h2v1h-2v-1z" fill="rgb(230,98,41)"/>
<path d="M48 69h2v1h-2v-1z" fill="rgb(255,222,82)"/>
<path d="M50 69h1v1h-1v-1z" fill="rgb(230,98,41)"/>
<path d="M57 69h2v1h-2v-1z" fill="rgb(0,0,0)"/>
<path d="M65 69h1v1h-1v-1z" fill="rgb(115,49,49)"/>
<path d="M66 69h1v1h-1v-1z" fill="rgb(255,156,24)"/>
<path d="M73 69h2v2h-2v2h-1v1h-1v-2h1v-2h1v-1z" fill="rgb(230,98,41)"/>
<path d="M76 69h2v1h-2v-1z" fill="rgb(255,222,82)"/>
<path d="M78 69h1v1h-1v-1z" fill="rgb(255,156,24)"/>
<path d="M23 70h1v2h-1v-2z" fill="rgb(115,49,49)"/>
<path d="M27 70h1v1h-1v-1z" fill="rgb(0,0,0)"/>
<path d="M38 70h1v3h-1v-3z" fill="rgb(197,148,106)"/>
<path d="M39 70h2v2h-1v2h-1v2h1v1h-1v4h-3v-3h1v-6h1v1h1v-3z" fill="rgb(238,197,139)"/>
<path d="M41 70h1v1h-1v-1z" fill="rgb(0,0,0)"/>
<path d="M42 70h1v1h-1v-1z" fill="transparent"/>
<path d="M43 70h1v2h-3v-1h2v-1z" fill="rgb(230,98,41)"/>
<path d="M44 70h1v1h1v1h2v1h-3v1h-1v1h-1v1h-2v-2h1v-1h-1v-1h3v-2z" fill="rgb(255,156,24)"/>
<path d="M45 70h1v1h-1v-1z" fill="rgb(230,98,41)"/>
<path d="M46 70h2v1h1v1h-3v-2z" fill="rgb(255,222,82)"/>
<path d="M48 70h3v1h-3v-1z" fill="rgb(222,16,16)"/>
<path d="M57 70h2v1h2v1h-1v1h-2v-1h-1v-2z" fill="rgb(255,156,24)"/>
<path d="M59 70h2v1h-2v-1z" fill="rgb(0,0,0)"/>
<path d="M61 70h1v1h-1v-1z" fill="rgb(115,49,49)"/>
<path d="M65 70h2v1h-2v-1z" fill="rgb(230,98,41)"/>
<path d="M67 70h1v1h-1v-1z" fill="rgb(255,156,24)"/>
<path d="M27 71h1v2h-2v-1h1v-1z" fill="rgb(197,148,106)"/>
<path d="M28 71h1v1h-1v-1z" fill="rgb(0,0,0)"/>
<path d="M49 71h1v1h-1v-1z" fill="rgb(230,98,41)"/>
<path d="M62 71h1v1h-1v-1z" fill="rgb(115,49,49)"/>
<path d="M65 71h1v1h1v2h1v1h1v1h-1v1h1v1h-1v1h-2v-2h-1v-2h1v-2h-1v-2z" fill="rgb(222,16,16)"/>
<path d="M66 71h1v1h-1v-1z" fill="rgb(255,156,24)"/>
<path d="M73 71h2v1h-2v-1z" fill="rgb(255,156,24)"/>
<path d="M75 71h2v1h1v1h-2v-1h-1v-1z" fill="rgb(230,98,41)"/>
<path d="M24 72h1v1h-1v-1z" fill="rgb(115,49,49)"/>
<path d="M28 72h1v3h-2v-1h-1v-1h2v-1z" fill="rgb(65,74,82)"/>
<path d="M29 72h1v3h-1v-3z" fill="rgb(0,0,0)"/>
<path d="M36 72h1v6h-1v-6z" fill="rgb(115,49,49)"/>
<path d="M40 72h1v1h1v1h-1v3h-1v-1h-1v-2h1v-2z" fill="rgb(230,98,41)"/>
<path d="M48 72h1v1h-1v-1z" fill="rgb(230,98,41)"/>
<path d="M49 72h1v1h-1v-1z" fill="rgb(222,16,16)"/>
<path d="M50 72h1v2h-1v-2z" fill="rgb(115,49,49)"/>
<path d="M60 72h1v1h-1v-1z" fill="rgb(230,98,41)"/>
<path d="M62 72h1v1h-1v-1z" fill="rgb(0,0,0)"/>
<path d="M68 72h3v1h-3v-1z" fill="rgb(255,156,24)"/>
<path d="M78 72h1v2h-2v-1h1v-1z" fill="rgb(255,156,24)"/>
<path d="M24 73h1v1h-1v-1z" fill="rgb(0,0,0)"/>
<path d="M25 73h1v1h-1v-1z" fill="rgb(197,148,106)"/>
<path d="M45 73h1v1h-1v-1z" fill="rgb(230,98,41)"/>
<path d="M46 73h2v1h-2v-1z" fill="rgb(222,16,16)"/>
<path d="M59 73h1v1h-1v-1z" fill="rgb(230,98,41)"/>
<path d="M63 73h1v1h-1v-1z" fill="rgb(115,49,49)"/>
<path d="M67 73h1v1h-1v-1z" fill="rgb(255,156,24)"/>
<path d="M68 73h1v1h-1v-1z" fill="rgb(222,16,16)"/>
<path d="M69 73h1v1h-1v-1z" fill="rgb(230,98,41)"/>
<path d="M70 73h1v1h-1v-1z" fill="rgb(222,16,16)"/>
<path d="M25 74h1v2h-1v-2z" fill="rgb(0,0,0)"/>
<path d="M26 74h1v1h-1v-1z" fill="rgb(197,197,197)"/>
<path d="M44 74h1v1h-1v-1z" fill="rgb(230,98,41)"/>
<path d="M49 74h1v1h-1v-1z" fill="rgb(115,49,49)"/>
<path d="M63 74h1v4h-1v-4z" fill="rgb(0,0,0)"/>
<path d="M68 74h1v1h-1v-1z" fill="rgb(230,98,41)"/>
<path d="M69 74h1v1h-1v-1z" fill="rgb(222,16,16)"/>
<path d="M70 74h1v1h-1v-1z" fill="rgb(230,98,41)"/>
<path d="M26 75h2v1h-2v-1z" fill="rgb(115,123,131)"/>
<path d="M28 75h1v1h-1v-1z" fill="rgb(0,0,0)"/>
<path d="M43 75h1v1h-1v-1z" fill="rgb(230,98,41)"/>
<path d="M44 75h1v1h1v2h-2v-1h-1v2h-3v1h-1v-2h1v-1h1v-1h3v-1z" fill="rgb(222,16,16)"/>
<path d="M48 75h1v1h-1v-1z" fill="rgb(0,0,0)"/>
<path d="M49 75h3v1h-3v-1z" fill="rgb(139,82,49)"/>
<path d="M52 75h1v1h-1v-1z" fill="rgb(0,0,0)"/>
<path d="M69 75h1v1h-1v-1z" fill="rgb(230,98,41)"/>
<path d="M70 75h1v1h-1v-1z" fill="rgb(222,16,16)"/>
<path d="M71 75h1v1h1v1h-1v1h-2v-2h1v-1z" fill="rgb(230,98,41)"/>
<path d="M26 76h2v1h-2v-1z" fill="rgb(0,0,0)"/>
<path d="M47 76h1v2h3v1h-4v-3z" fill="rgb(0,0,0)"/>
<path d="M48 76h3v2h-3v-2z" fill="rgb(65,74,82)"/>
<path d="M51 76h1v2h-1v-2z" fill="rgb(0,0,0)"/>
<path d="M68 76h1v1h-1v-1z" fill="rgb(230,98,41)"/>
<path d="M69 76h1v1h-1v-1z" fill="rgb(222,16,16)"/>
<path d="M39 77h1v1h-1v-1z" fill="rgb(230,98,41)"/>
<path d="M35 78h1v2h-1v-2z" fill="rgb(115,49,49)"/>
<path d="M62 78h1v2h-1v-2z" fill="rgb(0,0,0)"/>
<path d="M63 78h2v1h-2v-1z" fill="rgb(139,82,49)"/>
<path d="M40 79h1v1h-1v-1z" fill="rgb(230,98,41)"/>
<path d="M63 79h1v1h-1v-1z" fill="rgb(197,197,197)"/>
<path d="M64 79h1v1h-1v-1z" fill="rgb(115,123,131)"/>
<path d="M65 79h1v1h-1v-1z" fill="rgb(139,82,49)"/>
<path d="M66 79h1v2h-1v-2z" fill="rgb(0,0,0)"/>
<path d="M34 80h1v1h-1v-1z" fill="rgb(115,49,49)"/>
<path d="M35 80h1v1h-1v-1z" fill="rgb(197,148,106)"/>
<path d="M39 80h1v1h-1v-1z" fill="rgb(230,98,41)"/>
<path d="M61 80h1v2h3v-1h1v2h-5v-3z" fill="rgb(0,0,0)"/>
<path d="M62 80h1v1h1v-1h2v1h-1v1h-3v-2z" fill="rgb(65,74,82)"/>
<path d="M63 80h1v1h-1v-1z" fill="rgb(115,123,131)"/>
<path d="M34 81h1v1h-1v-1z" fill="rgb(0,0,0)"/>
<path d="M35 81h1v1h-1v-1z" fill="rgb(65,74,82)"/>
<path d="M36 81h2v1h-2v-1z" fill="rgb(197,148,106)"/>
<path d="M38 81h1v2h-1v-2z" fill="rgb(115,49,49)"/>
<path d="M33 82h1v3h4v1h-5v-4z" fill="rgb(0,0,0)"/>
<path d="M34 82h1v1h1v1h1v-2h1v3h-4v-3z" fill="rgb(65,74,82)"/>
<path d="M35 82h1v1h-1v-1z" fill="rgb(197,197,197)"/>
<path d="M36 82h1v2h-1v-2z" fill="rgb(115,123,131)"/>
<path d="M38 83h1v2h-1v-2z" fill="rgb(0,0,0)"/>
</svg>
