<?xml version="1.0" encoding="utf-8"?>
<!-- generated at drububu.com  -->
<!DOCTYPE svg PUBLIC "-//W3C//DTD SVG 1.1//EN" "http://www.w3.org/Graphics/SVG/1.1/DTD/svg11.dtd">
<svg version="1.1" preserveAspectRatio="xMinYMin meet" xmlns="http://www.w3.org/2000/svg" xmlns:xlink="http://www.w3.org/1999/xlink" x="0px" y="0px" width="96px" height="96px" viewBox="0 0 96 96">
<path d="M0 0h96v96h-96v-96z" fill="transparent"/>
<path d="M47 27h4v1h-4v-1z" fill="rgb(106,98,98)"/>
<path d="M51 27h3v1h-3v-1z" fill="rgb(222,98,123)"/>
<path d="M54 27h2v1h-2v-1z" fill="rgb(172,65,82)"/>
<path d="M44 28h3v1h-3v-1z" fill="rgb(106,98,98)"/>
<path d="M47 28h4v1h-1v2h-2v1h-4v-1h-1v-1h1v-1h3v-1z" fill="rgb(255,255,255)"/>
<path d="M51 28h1v1h-1v-1z" fill="rgb(255,164,164)"/>
<path d="M52 28h4v1h4v1h3v1h2v1h2v1h1v1h1v1h1v2h1v2h-1v1h-1v1h-3v-1h-2v-1h-2v-1h-1v-1h-2
	v-1h-1v-1h-1v-1h-3v-1h-3v-1h-1v-1h1v-2h1v-1z" fill="rgb(255,131,148)"/>
<path d="M56 28h2v1h-2v-1z" fill="rgb(222,98,123)"/>
<path d="M58 28h2v1h-2v-1z" fill="rgb(172,65,82)"/>
<path d="M42 29h2v1h-2v-1z" fill="rgb(106,98,98)"/>
<path d="M50 29h1v2h-1v-2z" fill="rgb(255,164,164)"/>
<path d="M60 29h1v1h-1v-1z" fill="rgb(222,98,123)"/>
<path d="M61 29h2v1h-2v-1z" fill="rgb(172,65,82)"/>
<path d="M41 30h1v1h-1v-1z" fill="rgb(106,98,98)"/>
<path d="M42 30h1v1h1v1h-1v1h-3v-1h1v-1h1v-1z" fill="rgb(213,205,205)"/>
<path d="M63 30h1v1h-1v-1z" fill="rgb(222,98,123)"/>
<path d="M64 30h1v1h-1v-1z" fill="rgb(172,65,82)"/>
<path d="M40 31h1v1h-1v-1z" fill="rgb(106,98,98)"/>
<path d="M48 31h1v1h-1v-1z" fill="rgb(213,205,205)"/>
<path d="M49 31h1v1h-1v-1z" fill="rgb(255,164,164)"/>
<path d="M65 31h1v1h-1v-1z" fill="rgb(222,98,123)"/>
<path d="M66 31h1v1h-1v-1z" fill="rgb(172,65,82)"/>
<path d="M39 32h1v2h-1v-2z" fill="rgb(106,98,98)"/>
<path d="M43 32h1v1h-1v-1z" fill="rgb(106,98,98)"/>
<path d="M44 32h6v1h-6v-1z" fill="rgb(16,16,16)"/>
<path d="M50 32h1v1h-1v-1z" fill="rgb(222,98,123)"/>
<path d="M67 32h1v1h-1v-1z" fill="rgb(172,65,82)"/>
<path d="M40 33h3v1h-3v-1z" fill="rgb(16,16,16)"/>
<path d="M50 33h3v1h-3v-1z" fill="rgb(16,16,16)"/>
<path d="M53 33h1v1h-1v-1z" fill="rgb(172,65,82)"/>
<path d="M68 33h1v1h-1v-1z" fill="rgb(172,65,82)"/>
<path d="M53 34h3v1h-3v-1z" fill="rgb(16,16,16)"/>
<path d="M56 34h1v1h-1v-1z" fill="rgb(222,98,123)"/>
<path d="M69 34h1v1h-1v-1z" fill="rgb(172,65,82)"/>
<path d="M56 35h2v1h-2v-1z" fill="rgb(16,16,16)"/>
<path d="M70 35h1v2h-1v-2z" fill="rgb(172,65,82)"/>
<path d="M58 36h1v1h-1v-1z" fill="rgb(16,16,16)"/>
<path d="M59 37h1v1h-1v-1z" fill="rgb(16,16,16)"/>
<path d="M60 37h1v1h-1v-1z" fill="rgb(222,98,123)"/>
<path d="M71 37h1v2h-1v-2z" fill="rgb(172,65,82)"/>
<path d="M60 38h1v2h-1v-2z" fill="rgb(16,16,16)"/>
<path d="M61 38h1v1h2v1h2v1h3v-1h1v-1h2v9h-1v3h-1v2h-1v2h-1v1h-2v-2h-1v-2h-1v-1h-1v-1h-1
	v-1h-1v-1h-1v-1h-1v-1h1v-1h1v-2h1v-3h-1v-2z" fill="rgb(222,98,123)"/>
<path d="M61 40h1v2h-1v-2z" fill="rgb(16,16,16)"/>
<path d="M72 40h1v3h-1v-3z" fill="rgb(172,65,82)"/>
<path d="M61 42h1v1h-1v-1z" fill="rgb(123,32,49)"/>
<path d="M43 43h9v1h-9v-1z" fill="rgb(222,98,123)"/>
<path d="M60 43h1v1h-1v-1z" fill="rgb(123,32,49)"/>
<path d="M72 43h1v5h-1v-5z" fill="rgb(16,16,16)"/>
<path d="M40 44h3v1h-3v-1z" fill="rgb(222,98,123)"/>
<path d="M43 44h9v1h-1v1h-3v-1h-4v1h-2v-1h1v-1z" fill="rgb(255,164,164)"/>
<path d="M52 44h3v1h-3v-1z" fill="rgb(222,98,123)"/>
<path d="M60 44h1v1h-1v-1z" fill="rgb(16,16,16)"/>
<path d="M27 45h1v1h-1v-1z" fill="rgb(222,98,123)"/>
<path d="M28 45h2v1h-2v-1z" fill="rgb(172,65,82)"/>
<path d="M30 45h1v1h-1v-1z" fill="rgb(123,32,49)"/>
<path d="M38 45h2v1h-2v-1z" fill="rgb(222,98,123)"/>
<path d="M40 45h2v1h1v1h-3v-2z" fill="rgb(255,131,148)"/>
<path d="M44 45h2v1h-2v-1z" fill="rgb(172,65,82)"/>
<path d="M46 45h2v1h-2v-1z" fill="rgb(123,32,49)"/>
<path d="M51 45h4v1h2v1h1v1h1v1h1v2h1v2h-1v2h-1v1h-2v1h-8v-2h-1v-1h1v-1h1v-1h1v-4h-1v-2
	h1v-1z" fill="rgb(255,131,148)"/>
<path d="M55 45h1v1h-1v-1z" fill="rgb(222,98,123)"/>
<path d="M56 45h1v1h-1v-1z" fill="rgb(172,65,82)"/>
<path d="M58 45h2v1h-2v-1z" fill="rgb(16,16,16)"/>
<path d="M26 46h1v1h-1v-1z" fill="rgb(222,98,123)"/>
<path d="M27 46h2v2h-1v1h-2v-2h1v-1z" fill="rgb(255,131,148)"/>
<path d="M29 46h2v1h3v1h-2v1h-2v1h-2v1h-2v-2h2v-1h1v-2z" fill="rgb(222,98,123)"/>
<path d="M31 46h1v1h-1v-1z" fill="rgb(123,32,49)"/>
<path d="M34 46h2v1h-2v-1z" fill="rgb(222,98,123)"/>
<path d="M36 46h2v1h-2v-1z" fill="rgb(172,65,82)"/>
<path d="M38 46h2v1h-2v-1z" fill="rgb(123,32,49)"/>
<path d="M43 46h1v1h-1v-1z" fill="rgb(172,65,82)"/>
<path d="M44 46h4v2h-2v1h-1v-1h-1v-2z" fill="rgb(255,131,148)"/>
<path d="M48 46h1v1h-1v-1z" fill="rgb(123,32,49)"/>
<path d="M49 46h1v1h-1v-1z" fill="rgb(172,65,82)"/>
<path d="M57 46h2v1h-2v-1z" fill="rgb(172,65,82)"/>
<path d="M25 47h1v1h-1v-1z" fill="rgb(222,98,123)"/>
<path d="M34 47h3v2h-1v1h-1v1h-2v1h-3v-1h-1v-1h1v-1h2v-1h2v-1z" fill="rgb(255,164,164)"/>
<path d="M37 47h3v1h2v1h1v3h-1v-1h-4v1h-1v1h-1v2h-1v-1h-4v-1h-1v-1h3v-1h2v-1h1v-1h1v-2z" fill="rgb(255,131,148)"/>
<path d="M40 47h1v1h-1v-1z" fill="rgb(123,32,49)"/>
<path d="M41 47h1v1h-1v-1z" fill="rgb(16,16,16)"/>
<path d="M42 47h1v2h-1v-2z" fill="rgb(123,32,49)"/>
<path d="M43 47h1v1h1v4h1v1h1v2h1v3h1v-1h8v-1h2v-1h1v-2h1v-2h-1v-2h1v1h1v1h1v1h1v2h1v2h1
	v3h1v5h-1v2h-1v1h-2v1h-5v-1h3v-1h-1v-1h-1v-1h-1v-3h-1v4h-1v3h-4v1h-2v1h-7v-1
	h-2v-2h5v-1h1v-2h-1v-1h2v-1h-3v-2h-1v-1h-2v-2h1v-4h-1v-1h1v-5z" fill="rgb(222,98,123)"/>
<path d="M48 47h1v1h1v4h-1v1h-2v-1h-1v-3h2v-2z" fill="rgb(222,98,123)"/>
<path d="M49 47h1v1h-1v-1z" fill="rgb(123,32,49)"/>
<path d="M58 47h1v1h-1v-1z" fill="rgb(222,98,123)"/>
<path d="M59 47h1v1h-1v-1z" fill="rgb(172,65,82)"/>
<path d="M25 48h1v1h-1v-1z" fill="rgb(172,65,82)"/>
<path d="M46 48h2v1h-2v-1z" fill="rgb(123,32,49)"/>
<path d="M50 48h1v2h-1v-2z" fill="rgb(123,32,49)"/>
<path d="M59 48h1v1h-1v-1z" fill="rgb(222,98,123)"/>
<path d="M60 48h1v1h-1v-1z" fill="rgb(172,65,82)"/>
<path d="M71 48h1v3h-1v-3z" fill="rgb(16,16,16)"/>
<path d="M25 49h1v2h-1v-2z" fill="rgb(123,32,49)"/>
<path d="M45 49h1v1h-1v-1z" fill="rgb(123,32,49)"/>
<path d="M48 49h1v1h-1v-1z" fill="rgb(123,32,49)"/>
<path d="M61 49h1v1h-1v-1z" fill="rgb(123,32,49)"/>
<path d="M28 50h1v1h-1v-1z" fill="rgb(172,65,82)"/>
<path d="M45 50h1v2h-1v-2z" fill="rgb(16,16,16)"/>
<path d="M50 50h1v2h-1v-2z" fill="rgb(16,16,16)"/>
<path d="M62 50h1v1h-1v-1z" fill="rgb(123,32,49)"/>
<path d="M26 51h1v1h-1v-1z" fill="rgb(123,32,49)"/>
<path d="M27 51h1v1h-1v-1z" fill="rgb(16,16,16)"/>
<path d="M28 51h1v1h-1v-1z" fill="rgb(222,98,123)"/>
<path d="M29 51h1v1h-1v-1z" fill="rgb(255,131,148)"/>
<path d="M38 51h4v1h-4v-1z" fill="rgb(222,98,123)"/>
<path d="M63 51h1v1h-1v-1z" fill="rgb(123,32,49)"/>
<path d="M70 51h1v2h-1v-2z" fill="rgb(16,16,16)"/>
<path d="M26 52h1v1h-1v-1z" fill="rgb(16,16,16)"/>
<path d="M27 52h2v1h1v2h-2v-1h-1v-2z" fill="rgb(255,255,255)"/>
<path d="M29 52h1v1h-1v-1z" fill="rgb(222,98,123)"/>
<path d="M37 52h1v1h-1v-1z" fill="rgb(222,98,123)"/>
<path d="M38 52h3v1h1v1h1v2h-1v1h-1v1h-1v-1h-2v-1h-1v-3h1v-1z" fill="rgb(255,255,255)"/>
<path d="M41 52h1v1h-1v-1z" fill="rgb(213,205,205)"/>
<path d="M46 52h1v1h-1v-1z" fill="rgb(16,16,16)"/>
<path d="M49 52h1v1h-1v-1z" fill="rgb(16,16,16)"/>
<path d="M64 52h1v1h-1v-1z" fill="rgb(16,16,16)"/>
<path d="M26 53h1v1h-1v-1z" fill="rgb(222,98,123)"/>
<path d="M30 53h1v1h-1v-1z" fill="rgb(222,98,123)"/>
<path d="M36 53h1v2h-1v-2z" fill="rgb(222,98,123)"/>
<path d="M42 53h1v1h-1v-1z" fill="rgb(213,205,205)"/>
<path d="M47 53h2v1h-2v-1z" fill="rgb(16,16,16)"/>
<path d="M64 53h1v1h-1v-1z" fill="rgb(123,32,49)"/>
<path d="M69 53h1v2h-1v-2z" fill="rgb(16,16,16)"/>
<path d="M25 54h1v2h-1v-2z" fill="rgb(172,65,82)"/>
<path d="M26 54h1v1h1v1h-2v-2z" fill="rgb(255,255,255)"/>
<path d="M27 54h1v1h-1v-1z" fill="rgb(16,16,16)"/>
<path d="M30 54h2v1h-2v-1z" fill="rgb(222,164,98)"/>
<path d="M32 54h3v1h-3v-1z" fill="rgb(139,90,24)"/>
<path d="M39 54h1v1h-1v-1z" fill="rgb(16,16,16)"/>
<path d="M47 54h1v1h-1v-1z" fill="rgb(123,32,49)"/>
<path d="M65 54h1v1h-1v-1z" fill="rgb(123,32,49)"/>
<path d="M28 55h1v1h-1v-1z" fill="rgb(238,197,139)"/>
<path d="M29 55h1v1h-1v-1z" fill="rgb(222,164,98)"/>
<path d="M30 55h4v1h2v1h1v1h3v1h-1v1h-2v1h-3v-1h-1v-1h-2v1h-1v-1h-2v1h-1v1h-2v-1h-1v-1h1
	v-1h1v-1h2v-1h2v-1z" fill="rgb(255,230,180)"/>
<path d="M34 55h1v1h-1v-1z" fill="rgb(238,197,139)"/>
<path d="M35 55h2v1h-2v-1z" fill="rgb(139,90,24)"/>
<path d="M48 55h1v3h-1v-3z" fill="rgb(123,32,49)"/>
<path d="M65 55h1v1h-1v-1z" fill="rgb(16,16,16)"/>
<path d="M68 55h1v1h-1v-1z" fill="rgb(16,16,16)"/>
<path d="M25 56h1v1h-1v-1z" fill="rgb(123,32,49)"/>
<path d="M26 56h2v1h-2v-1z" fill="rgb(238,197,139)"/>
<path d="M36 56h1v1h-1v-1z" fill="rgb(238,197,139)"/>
<path d="M37 56h1v1h-1v-1z" fill="rgb(139,90,24)"/>
<path d="M42 56h1v1h-1v-1z" fill="rgb(213,205,205)"/>
<path d="M66 56h1v1h-1v-1z" fill="rgb(123,32,49)"/>
<path d="M67 56h1v1h-1v-1z" fill="rgb(16,16,16)"/>
<path d="M25 57h1v1h-1v-1z" fill="rgb(139,90,24)"/>
<path d="M37 57h1v1h-1v-1z" fill="rgb(238,197,139)"/>
<path d="M38 57h1v1h-1v-1z" fill="rgb(139,90,24)"/>
<path d="M39 57h1v1h-1v-1z" fill="rgb(222,164,98)"/>
<path d="M41 57h1v1h-1v-1z" fill="rgb(213,205,205)"/>
<path d="M60 57h1v1h-1v-1z" fill="rgb(172,65,82)"/>
<path d="M66 57h1v2h-1v-2z" fill="rgb(16,16,16)"/>
<path d="M24 58h1v1h-1v-1z" fill="rgb(139,90,24)"/>
<path d="M40 58h1v1h-1v-1z" fill="rgb(139,90,24)"/>
<path d="M41 58h1v1h-1v-1z" fill="rgb(16,16,16)"/>
<path d="M59 58h1v1h-1v-1z" fill="rgb(172,65,82)"/>
<path d="M60 58h1v1h-1v-1z" fill="rgb(222,98,123)"/>
<path d="M61 58h2v1h1v1h-1v1h-2v-1h-1v-1h1v-1z" fill="rgb(255,131,148)"/>
<path d="M23 59h1v2h-1v-2z" fill="rgb(139,90,24)"/>
<path d="M28 59h1v1h-1v-1z" fill="rgb(139,90,24)"/>
<path d="M29 59h1v2h-2v1h-4v-2h1v1h2v-1h2v-1z" fill="rgb(238,197,139)"/>
<path d="M31 59h1v1h-1v-1z" fill="rgb(139,90,24)"/>
<path d="M32 59h1v1h-1v-1z" fill="rgb(238,197,139)"/>
<path d="M39 59h1v1h-1v-1z" fill="rgb(238,197,139)"/>
<path d="M40 59h2v1h1v1h1v1h-4v1h-2v-1h-3v-1h3v-1h2v-1z" fill="rgb(222,164,98)"/>
<path d="M42 59h1v1h-1v-1z" fill="rgb(139,90,24)"/>
<path d="M43 59h1v1h-1v-1z" fill="rgb(16,16,16)"/>
<path d="M58 59h1v2h-1v-2z" fill="rgb(123,32,49)"/>
<path d="M67 59h1v2h-1v-2z" fill="rgb(123,32,49)"/>
<path d="M30 60h3v1h-3v-1z" fill="rgb(222,164,98)"/>
<path d="M33 60h1v1h-1v-1z" fill="rgb(238,197,139)"/>
<path d="M37 60h1v1h-1v-1z" fill="rgb(238,197,139)"/>
<path d="M43 60h1v1h-1v-1z" fill="rgb(139,90,24)"/>
<path d="M44 60h1v2h2v1h-4v-1h1v-2z" fill="rgb(16,16,16)"/>
<path d="M23 61h1v1h-1v-1z" fill="rgb(16,16,16)"/>
<path d="M28 61h1v1h-1v-1z" fill="rgb(222,164,98)"/>
<path d="M29 61h1v1h-1v-1z" fill="rgb(139,90,24)"/>
<path d="M30 61h3v1h-1v1h-4v-1h2v-1z" fill="rgb(16,16,16)"/>
<path d="M33 61h2v1h-2v-1z" fill="rgb(139,90,24)"/>
<path d="M57 61h1v1h-1v-1z" fill="rgb(123,32,49)"/>
<path d="M67 61h1v3h-1v-3z" fill="rgb(16,16,16)"/>
<path d="M21 62h1v1h-1v-1z" fill="rgb(16,16,16)"/>
<path d="M22 62h1v1h-1v-1z" fill="rgb(123,32,49)"/>
<path d="M23 62h1v1h1v2h-1v1h-2v-2h-1v-1h2v-1z" fill="rgb(255,131,148)"/>
<path d="M24 62h1v1h-1v-1z" fill="rgb(16,16,16)"/>
<path d="M25 62h2v1h-2v-1z" fill="rgb(222,164,98)"/>
<path d="M27 62h1v1h-1v-1z" fill="rgb(139,90,24)"/>
<path d="M32 62h1v1h-1v-1z" fill="rgb(139,90,24)"/>
<path d="M33 62h2v1h1v1h2v3h-1v1h-1v-2h-1v-1h-4v-1h1v-1h1v-1z" fill="rgb(222,98,123)"/>
<path d="M35 62h2v1h-2v-1z" fill="rgb(16,16,16)"/>
<path d="M37 62h1v1h-1v-1z" fill="rgb(139,90,24)"/>
<path d="M40 62h2v1h-2v-1z" fill="rgb(172,65,82)"/>
<path d="M42 62h1v1h-1v-1z" fill="rgb(123,32,49)"/>
<path d="M47 62h1v1h-1v-1z" fill="rgb(123,32,49)"/>
<path d="M50 62h1v1h-1v-1z" fill="rgb(172,65,82)"/>
<path d="M57 62h1v2h-1v-2z" fill="rgb(16,16,16)"/>
<path d="M19 63h2v1h-2v-1z" fill="rgb(106,98,98)"/>
<path d="M25 63h2v1h-2v-1z" fill="rgb(16,16,16)"/>
<path d="M27 63h1v1h-1v-1z" fill="rgb(255,255,255)"/>
<path d="M28 63h2v1h-1v1h-1v1h-1v-2h1v-1z" fill="rgb(139,90,24)"/>
<path d="M30 63h1v1h-1v-1z" fill="rgb(222,164,98)"/>
<path d="M31 63h1v1h-1v-1z" fill="rgb(139,90,24)"/>
<path d="M36 63h1v1h-1v-1z" fill="rgb(255,255,255)"/>
<path d="M37 63h1v1h-1v-1z" fill="rgb(213,205,205)"/>
<path d="M38 63h1v1h-1v-1z" fill="rgb(139,90,24)"/>
<path d="M39 63h1v1h-1v-1z" fill="rgb(123,32,49)"/>
<path d="M40 63h1v1h-1v-1z" fill="rgb(222,98,123)"/>
<path d="M41 63h5v1h1v2h-1v1h-4v-2h-1v-2z" fill="rgb(255,131,148)"/>
<path d="M48 63h1v1h-1v-1z" fill="rgb(16,16,16)"/>
<path d="M49 63h1v1h-1v-1z" fill="rgb(123,32,49)"/>
<path d="M18 64h1v1h-1v-1z" fill="rgb(106,98,98)"/>
<path d="M19 64h2v2h-1v1h-2v-2h1v-1z" fill="rgb(255,255,255)"/>
<path d="M21 64h1v2h-1v-2z" fill="rgb(213,205,205)"/>
<path d="M25 64h2v4h-6v-2h3v-1h1v-1z" fill="rgb(222,98,123)"/>
<path d="M29 64h1v2h-2v-1h1v-1z" fill="rgb(222,164,98)"/>
<path d="M30 64h1v1h-1v-1z" fill="rgb(16,16,16)"/>
<path d="M38 64h1v2h-1v-2z" fill="rgb(106,98,98)"/>
<path d="M39 64h1v1h2v2h-2v-1h-1v-2z" fill="rgb(255,255,255)"/>
<path d="M40 64h1v1h-1v-1z" fill="rgb(213,205,205)"/>
<path d="M57 64h2v1h-2v-1z" fill="rgb(106,98,98)"/>
<path d="M66 64h1v2h-1v-2z" fill="rgb(16,16,16)"/>
<path d="M17 65h1v2h-1v-2z" fill="rgb(16,16,16)"/>
<path d="M30 65h1v2h-2v-1h1v-1z" fill="rgb(139,90,24)"/>
<path d="M31 65h4v1h1v2h-3v-1h-2v-2z" fill="rgb(255,131,148)"/>
<path d="M56 65h1v2h-1v-2z" fill="rgb(106,98,98)"/>
<path d="M57 65h2v1h-2v-1z" fill="rgb(255,255,255)"/>
<path d="M59 65h1v1h1v1h-4v-1h2v-1z" fill="rgb(213,205,205)"/>
<path d="M20 66h1v1h-1v-1z" fill="rgb(106,98,98)"/>
<path d="M27 66h1v2h1v1h-8v-1h6v-2z" fill="rgb(16,16,16)"/>
<path d="M28 66h1v1h1v1h1v1h-2v-1h-1v-2z" fill="rgb(238,197,139)"/>
<path d="M38 66h1v1h-1v-1z" fill="rgb(16,16,16)"/>
<path d="M39 66h1v1h-1v-1z" fill="rgb(213,205,205)"/>
<path d="M65 66h1v1h-1v-1z" fill="rgb(16,16,16)"/>
<path d="M18 67h3v1h-3v-1z" fill="rgb(16,16,16)"/>
<path d="M30 67h1v1h-1v-1z" fill="rgb(16,16,16)"/>
<path d="M31 67h1v1h-1v-1z" fill="rgb(139,90,24)"/>
<path d="M32 67h1v1h-1v-1z" fill="rgb(222,98,123)"/>
<path d="M37 67h2v1h-1v1h-1v-2z" fill="rgb(139,90,24)"/>
<path d="M39 67h1v1h-1v-1z" fill="rgb(16,16,16)"/>
<path d="M40 67h1v1h-1v-1z" fill="rgb(106,98,98)"/>
<path d="M56 67h2v1h-2v-1z" fill="rgb(16,16,16)"/>
<path d="M63 67h2v1h-2v-1z" fill="rgb(16,16,16)"/>
<path d="M31 68h1v1h-1v-1z" fill="rgb(222,164,98)"/>
<path d="M32 68h3v1h-3v-1z" fill="rgb(139,90,24)"/>
<path d="M35 68h2v1h-2v-1z" fill="rgb(16,16,16)"/>
<path d="M38 68h2v1h-1v1h-4v-1h3v-1z" fill="rgb(222,164,98)"/>
<path d="M40 68h1v1h2v1h-4v-1h1v-1z" fill="rgb(16,16,16)"/>
<path d="M52 68h1v1h-1v-1z" fill="rgb(123,32,49)"/>
<path d="M53 68h3v1h-3v-1z" fill="rgb(16,16,16)"/>
<path d="M58 68h5v1h-5v-1z" fill="rgb(16,16,16)"/>
<path d="M29 69h2v1h-2v-1z" fill="rgb(16,16,16)"/>
<path d="M31 69h4v1h-4v-1z" fill="rgb(238,197,139)"/>
<path d="M50 69h3v1h-3v-1z" fill="rgb(16,16,16)"/>
<path d="M31 70h8v1h-8v-1z" fill="rgb(16,16,16)"/>
<path d="M43 70h7v1h-7v-1z" fill="rgb(16,16,16)"/>
</svg>
