<?xml version="1.0" encoding="utf-8"?>
<!-- generated at drububu.com  -->
<!DOCTYPE svg PUBLIC "-//W3C//DTD SVG 1.1//EN" "http://www.w3.org/Graphics/SVG/1.1/DTD/svg11.dtd">
<svg version="1.1" preserveAspectRatio="xMinYMin meet" xmlns="http://www.w3.org/2000/svg" xmlns:xlink="http://www.w3.org/1999/xlink" x="0px" y="0px" width="96px" height="96px" viewBox="0 0 96 96">
<path d="M0 0h96v96h-96v-96z" fill="transparent"/>
<path d="M29 21h2v1h-2v-1z" fill="rgb(139,172,246)"/>
<path d="M28 22h1v3h-1v-3z" fill="rgb(139,172,246)"/>
<path d="M29 22h2v2h-1v3h-1v-5z" fill="rgb(255,255,255)"/>
<path d="M31 22h1v1h-1v-1z" fill="rgb(16,16,16)"/>
<path d="M54 22h2v1h-2v-1z" fill="rgb(139,172,246)"/>
<path d="M56 22h1v1h-1v-1z" fill="rgb(98,123,197)"/>
<path d="M31 23h1v2h-1v-2z" fill="rgb(189,197,230)"/>
<path d="M32 23h1v2h-1v-2z" fill="rgb(16,16,16)"/>
<path d="M52 23h2v1h-2v-1z" fill="rgb(139,172,246)"/>
<path d="M54 23h3v1h-3v-1z" fill="rgb(255,255,255)"/>
<path d="M57 23h1v1h-1v-1z" fill="rgb(41,65,106)"/>
<path d="M30 24h1v1h-1v-1z" fill="rgb(98,123,197)"/>
<path d="M51 24h1v1h-1v-1z" fill="rgb(139,172,246)"/>
<path d="M52 24h2v1h-1v1h-1v1h-1v1h-1v1h-1v3h-1v1h-1v-3h1v-2h1v-1h1v-1h1v-1h1v-1z" fill="rgb(255,255,255)"/>
<path d="M54 24h1v1h-1v-1z" fill="rgb(139,172,246)"/>
<path d="M55 24h2v2h-1v1h-2v1h-2v-1h1v-1h1v-1h1v-1z" fill="rgb(189,197,230)"/>
<path d="M57 24h1v2h-1v-2z" fill="rgb(16,16,16)"/>
<path d="M28 25h1v2h-1v-2z" fill="rgb(41,65,106)"/>
<path d="M30 25h1v3h1v6h-1v2h-1v2h-1v-1h-1v-1h1v-1h1v-5h-1v-2h1v-3z" fill="rgb(189,197,230)"/>
<path d="M31 25h1v3h-1v-3z" fill="rgb(98,123,197)"/>
<path d="M32 25h1v3h-1v-3z" fill="rgb(189,197,230)"/>
<path d="M33 25h1v3h-1v-3z" fill="rgb(16,16,16)"/>
<path d="M50 25h1v1h-1v-1z" fill="rgb(139,172,246)"/>
<path d="M53 25h1v1h-1v-1z" fill="rgb(139,172,246)"/>
<path d="M49 26h1v1h-1v-1z" fill="rgb(139,172,246)"/>
<path d="M52 26h1v1h-1v-1z" fill="rgb(139,172,246)"/>
<path d="M56 26h1v1h-1v-1z" fill="rgb(16,16,16)"/>
<path d="M27 27h1v3h-1v-3z" fill="rgb(41,65,106)"/>
<path d="M28 27h1v3h-1v-3z" fill="rgb(255,255,255)"/>
<path d="M29 27h1v1h-1v-1z" fill="rgb(139,172,246)"/>
<path d="M48 27h1v1h-1v-1z" fill="rgb(98,123,197)"/>
<path d="M51 27h1v1h-1v-1z" fill="rgb(139,172,246)"/>
<path d="M54 27h1v1h-1v-1z" fill="rgb(139,172,246)"/>
<path d="M55 27h1v1h-1v-1z" fill="rgb(16,16,16)"/>
<path d="M32 28h1v5h-1v-5z" fill="rgb(98,123,197)"/>
<path d="M33 28h1v4h-1v-4z" fill="rgb(189,197,230)"/>
<path d="M34 28h1v4h-1v-4z" fill="rgb(16,16,16)"/>
<path d="M47 28h1v2h-1v-2z" fill="rgb(41,65,106)"/>
<path d="M50 28h1v2h-1v-2z" fill="rgb(139,172,246)"/>
<path d="M51 28h1v1h-1v-1z" fill="rgb(189,197,230)"/>
<path d="M52 28h3v2h-1v2h-1v1h1v2h-2v1h-1v1h-2v-4h1v-3h1v-1h1v-1z" fill="rgb(213,238,246)"/>
<path d="M55 28h1v3h-1v2h-2v-1h1v-2h1v-2z" fill="rgb(189,197,230)"/>
<path d="M56 28h1v3h-1v-3z" fill="rgb(16,16,16)"/>
<path d="M49 29h1v1h-1v-1z" fill="rgb(189,197,230)"/>
<path d="M28 30h1v4h-1v-4z" fill="rgb(41,65,106)"/>
<path d="M29 30h1v4h-1v-4z" fill="rgb(255,255,255)"/>
<path d="M37 30h4v1h-4v-1z" fill="rgb(41,65,106)"/>
<path d="M41 30h3v1h-3v-1z" fill="rgb(16,16,16)"/>
<path d="M46 30h1v2h-1v-2z" fill="rgb(41,65,106)"/>
<path d="M49 30h1v3h-1v-3z" fill="rgb(139,172,246)"/>
<path d="M35 31h2v1h-2v-1z" fill="rgb(41,65,106)"/>
<path d="M37 31h5v1h2v1h1v2h1v3h1v3h-1v-1h-1v-1h-2v1h-1v1h-1v1h-1v1h-1v-2h-1v2h1v1h1v-1
	h1v1h1v2h1v1h1v1h-4v1h-7v-1h-1v-1h-1v-1h3v-5h-1v-1h-1v-1h-1v-2h1v1h2v-1h1v-3h-1
	v-1h1v-1h2v-1z" fill="rgb(139,172,246)"/>
<path d="M42 31h2v1h-2v-1z" fill="rgb(98,123,197)"/>
<path d="M44 31h2v1h-2v-1z" fill="rgb(16,16,16)"/>
<path d="M55 31h1v2h-1v-2z" fill="rgb(16,16,16)"/>
<path d="M33 32h2v1h-2v-1z" fill="rgb(41,65,106)"/>
<path d="M44 32h2v3h-1v-2h-1v-1z" fill="rgb(98,123,197)"/>
<path d="M46 32h1v3h1v2h3v-1h1v1h1v1h-1v1h-1v1h-3v-1h-1v-2h-1v-5z" fill="rgb(189,197,230)"/>
<path d="M48 32h1v1h-1v-1z" fill="rgb(189,197,230)"/>
<path d="M32 33h1v1h-1v-1z" fill="rgb(41,65,106)"/>
<path d="M33 33h1v1h1v3h-1v1h-2v-1h-1v-1h1v-2h1v-1z" fill="rgb(172,197,255)"/>
<path d="M47 33h1v2h-1v-2z" fill="rgb(213,238,246)"/>
<path d="M48 33h1v4h-1v-4z" fill="rgb(139,172,246)"/>
<path d="M54 33h1v3h-1v-3z" fill="rgb(16,16,16)"/>
<path d="M27 34h1v3h-1v-3z" fill="rgb(41,65,106)"/>
<path d="M28 34h1v2h-1v-2z" fill="rgb(255,255,255)"/>
<path d="M29 34h1v1h-1v-1z" fill="rgb(41,65,106)"/>
<path d="M31 34h1v2h-1v-2z" fill="rgb(41,65,106)"/>
<path d="M52 35h2v1h-2v-1z" fill="rgb(189,197,230)"/>
<path d="M30 36h1v2h-1v-2z" fill="rgb(41,65,106)"/>
<path d="M52 36h1v1h-1v-1z" fill="rgb(139,172,246)"/>
<path d="M53 36h1v2h-1v-2z" fill="rgb(16,16,16)"/>
<path d="M28 37h1v1h-1v-1z" fill="rgb(41,65,106)"/>
<path d="M46 37h1v1h-1v-1z" fill="rgb(98,123,197)"/>
<path d="M66 37h5v1h-4v1h-2v-1h1v-1z" fill="rgb(139,172,246)"/>
<path d="M29 38h1v2h-1v-2z" fill="rgb(41,65,106)"/>
<path d="M30 38h1v4h-1v-4z" fill="rgb(98,123,197)"/>
<path d="M52 38h1v1h-1v-1z" fill="rgb(16,16,16)"/>
<path d="M67 38h1v1h-1v-1z" fill="rgb(213,238,246)"/>
<path d="M68 38h3v1h1v1h1v1h1v4h-2v1h-4v-1h-1v-1h1v-1h1v-1h1v1h1v1h1v-2h-1v-1h-3v1h-1v1
	h-1v6h-1v2h-3v-3h1v-6h1v-1h1v-1h1v-1h2v-1z" fill="rgb(255,255,255)"/>
<path d="M71 38h2v1h-2v-1z" fill="rgb(139,172,246)"/>
<path d="M31 39h1v1h-1v-1z" fill="rgb(41,65,106)"/>
<path d="M43 39h1v1h-1v-1z" fill="rgb(98,123,197)"/>
<path d="M44 39h1v1h-1v-1z" fill="rgb(41,65,106)"/>
<path d="M47 39h1v1h-1v-1z" fill="rgb(41,65,106)"/>
<path d="M51 39h1v1h-1v-1z" fill="rgb(41,65,106)"/>
<path d="M64 39h1v1h-1v-1z" fill="rgb(139,172,246)"/>
<path d="M65 39h1v1h-1v-1z" fill="rgb(213,238,246)"/>
<path d="M72 39h1v1h-1v-1z" fill="rgb(213,238,246)"/>
<path d="M73 39h1v2h-1v-2z" fill="rgb(98,123,197)"/>
<path d="M29 40h1v2h-1v-2z" fill="rgb(16,16,16)"/>
<path d="M31 40h1v3h-1v-3z" fill="rgb(189,197,230)"/>
<path d="M32 40h1v1h-1v-1z" fill="rgb(41,65,106)"/>
<path d="M42 40h2v1h-2v-1z" fill="rgb(41,65,106)"/>
<path d="M44 40h1v1h1v4h-1v-3h-1v-2z" fill="rgb(189,197,230)"/>
<path d="M45 40h1v1h-1v-1z" fill="rgb(41,65,106)"/>
<path d="M47 40h1v1h2v3h-1v2h-1v2h-1v-2h-1v1h-1v1h-1v-1h-1v-1h2v-1h1v-1h1v-2h-1v-1h1v-1z" fill="rgb(98,123,197)"/>
<path d="M48 40h3v4h-1v-3h-2v-1z" fill="rgb(41,65,106)"/>
<path d="M63 40h1v2h-1v-2z" fill="rgb(139,172,246)"/>
<path d="M64 40h1v1h-1v-1z" fill="rgb(213,238,246)"/>
<path d="M32 41h1v1h-1v-1z" fill="rgb(16,16,16)"/>
<path d="M33 41h1v1h-1v-1z" fill="rgb(41,65,106)"/>
<path d="M38 41h1v2h-1v-2z" fill="rgb(98,123,197)"/>
<path d="M41 41h1v1h-1v-1z" fill="rgb(41,65,106)"/>
<path d="M42 41h2v2h-2v-2z" fill="rgb(16,16,16)"/>
<path d="M51 41h1v1h-1v-1z" fill="rgb(16,16,16)"/>
<path d="M68 41h3v1h-3v-1z" fill="rgb(139,172,246)"/>
<path d="M74 41h1v1h-1v-1z" fill="rgb(98,123,197)"/>
<path d="M30 42h1v3h-1v-3z" fill="rgb(16,16,16)"/>
<path d="M32 42h1v1h-1v-1z" fill="rgb(255,255,255)"/>
<path d="M33 42h1v1h-1v-1z" fill="rgb(16,16,16)"/>
<path d="M40 42h1v1h-1v-1z" fill="rgb(41,65,106)"/>
<path d="M41 42h1v2h-1v-2z" fill="rgb(98,123,197)"/>
<path d="M44 42h1v4h-1v-4z" fill="rgb(255,255,255)"/>
<path d="M46 42h1v2h-1v-2z" fill="rgb(41,65,106)"/>
<path d="M51 42h1v3h-2v-1h1v-2z" fill="rgb(189,197,230)"/>
<path d="M52 42h1v2h-1v-2z" fill="rgb(16,16,16)"/>
<path d="M62 42h1v5h-1v-5z" fill="rgb(139,172,246)"/>
<path d="M67 42h1v1h-1v-1z" fill="rgb(139,172,246)"/>
<path d="M68 42h1v1h-1v-1z" fill="rgb(213,238,246)"/>
<path d="M70 42h1v1h-1v-1z" fill="rgb(213,238,246)"/>
<path d="M71 42h1v1h-1v-1z" fill="rgb(139,172,246)"/>
<path d="M74 42h1v3h-1v-3z" fill="rgb(41,65,106)"/>
<path d="M31 43h1v2h-1v-2z" fill="rgb(255,255,255)"/>
<path d="M32 43h1v1h-1v-1z" fill="rgb(16,16,16)"/>
<path d="M33 43h1v2h-1v-2z" fill="rgb(41,65,106)"/>
<path d="M39 43h1v1h-1v-1z" fill="rgb(98,123,197)"/>
<path d="M42 43h1v1h-1v-1z" fill="rgb(255,255,255)"/>
<path d="M43 43h1v2h-1v-2z" fill="rgb(106,74,24)"/>
<path d="M66 43h1v1h-1v-1z" fill="rgb(139,172,246)"/>
<path d="M67 43h1v1h-1v-1z" fill="rgb(213,238,246)"/>
<path d="M71 43h1v1h-1v-1z" fill="rgb(98,123,197)"/>
<path d="M32 44h1v1h-1v-1z" fill="rgb(148,98,98)"/>
<path d="M42 44h1v1h-1v-1z" fill="rgb(16,16,16)"/>
<path d="M49 44h1v2h-1v-2z" fill="rgb(41,65,106)"/>
<path d="M52 44h1v1h-1v-1z" fill="rgb(106,74,24)"/>
<path d="M53 44h1v1h-1v-1z" fill="rgb(16,16,16)"/>
<path d="M66 44h1v1h-1v-1z" fill="rgb(98,123,197)"/>
<path d="M29 45h1v3h-1v-3z" fill="rgb(16,16,16)"/>
<path d="M30 45h2v1h-1v2h-1v-3z" fill="rgb(98,123,197)"/>
<path d="M32 45h1v1h-1v-1z" fill="rgb(189,197,230)"/>
<path d="M33 45h1v1h-1v-1z" fill="rgb(148,98,98)"/>
<path d="M42 45h2v1h-2v-1z" fill="rgb(148,98,98)"/>
<path d="M50 45h3v1h-3v-1z" fill="rgb(16,16,16)"/>
<path d="M53 45h1v1h-1v-1z" fill="rgb(148,98,98)"/>
<path d="M54 45h2v1h-2v-1z" fill="rgb(16,16,16)"/>
<path d="M66 45h1v2h-1v-2z" fill="rgb(41,65,106)"/>
<path d="M67 45h1v1h-1v-1z" fill="rgb(213,238,246)"/>
<path d="M72 45h2v1h-1v1h-2v1h-1v-1h-2v-1h4v-1z" fill="rgb(213,238,246)"/>
<path d="M74 45h1v1h-1v-1z" fill="rgb(16,16,16)"/>
<path d="M46 46h1v1h-1v-1z" fill="rgb(16,16,16)"/>
<path d="M48 46h1v1h-1v-1z" fill="rgb(41,65,106)"/>
<path d="M49 46h1v1h-1v-1z" fill="rgb(16,16,16)"/>
<path d="M50 46h3v1h-2v1h-1v2h1v1h2v1h3v1h-1v2h2v-1h1v-2h1v-1h3v1h-1v3h-2v1h-5v-1h-3v-1
	h-1v-2h-1v-5h1v-1z" fill="rgb(98,123,197)"/>
<path d="M53 46h2v1h-2v-1z" fill="rgb(41,65,106)"/>
<path d="M55 46h1v1h-1v-1z" fill="rgb(148,98,98)"/>
<path d="M56 46h1v1h-1v-1z" fill="rgb(16,16,16)"/>
<path d="M67 46h1v1h-1v-1z" fill="rgb(189,197,230)"/>
<path d="M73 46h1v1h-1v-1z" fill="rgb(16,16,16)"/>
<path d="M31 47h1v1h-1v-1z" fill="rgb(41,65,106)"/>
<path d="M34 47h1v1h-1v-1z" fill="rgb(98,123,197)"/>
<path d="M36 47h1v1h-1v-1z" fill="rgb(41,65,106)"/>
<path d="M45 47h1v1h-1v-1z" fill="rgb(16,16,16)"/>
<path d="M46 47h1v2h-1v-2z" fill="rgb(41,65,106)"/>
<path d="M48 47h1v5h-1v-3h-1v-1h1v-1z" fill="rgb(16,16,16)"/>
<path d="M51 47h3v1h1v1h3v1h1v2h-6v-1h-2v-1h-1v-2h1v-1z" fill="rgb(139,172,246)"/>
<path d="M54 47h1v1h-1v-1z" fill="rgb(98,123,197)"/>
<path d="M55 47h1v1h-1v-1z" fill="rgb(41,65,106)"/>
<path d="M56 47h1v1h-1v-1z" fill="rgb(148,98,98)"/>
<path d="M57 47h1v1h-1v-1z" fill="rgb(16,16,16)"/>
<path d="M61 47h1v1h-1v-1z" fill="rgb(139,172,246)"/>
<path d="M62 47h1v1h-1v-1z" fill="rgb(189,197,230)"/>
<path d="M66 47h1v2h1v4h-1v3h-1v2h-1v2h-1v1h-1v1h-1v1h-2v-2h1v-6h1v-1h1v-1h1v-2h1v-2h1
	v-2z" fill="rgb(213,238,246)"/>
<path d="M67 47h1v1h-1v-1z" fill="rgb(41,65,106)"/>
<path d="M68 47h2v1h-2v-1z" fill="rgb(189,197,230)"/>
<path d="M71 47h1v1h-1v-1z" fill="rgb(189,197,230)"/>
<path d="M72 47h1v1h-1v-1z" fill="rgb(16,16,16)"/>
<path d="M73 47h1v1h-1v-1z" fill="rgb(41,65,106)"/>
<path d="M30 48h1v1h-1v-1z" fill="rgb(16,16,16)"/>
<path d="M31 48h1v1h-1v-1z" fill="rgb(189,197,230)"/>
<path d="M32 48h1v1h-1v-1z" fill="rgb(41,65,106)"/>
<path d="M40 48h1v1h4v1h-2v1h-7v-1h4v-2z" fill="rgb(98,123,197)"/>
<path d="M41 48h4v1h-4v-1z" fill="rgb(41,65,106)"/>
<path d="M45 48h1v1h-1v-1z" fill="rgb(255,255,255)"/>
<path d="M55 48h1v1h-1v-1z" fill="rgb(98,123,197)"/>
<path d="M56 48h6v3h-1v-2h-1v1h-1v-1h-3v-1z" fill="rgb(41,65,106)"/>
<path d="M67 48h1v1h-1v-1z" fill="rgb(189,197,230)"/>
<path d="M68 48h2v1h-1v1h-1v-2z" fill="rgb(41,65,106)"/>
<path d="M70 48h2v1h-2v-1z" fill="rgb(16,16,16)"/>
<path d="M72 48h2v3h-3v1h-1v1h-1v-2h1v-1h1v-1h1v-1z" fill="rgb(213,238,246)"/>
<path d="M74 48h1v3h-1v-3z" fill="rgb(41,65,106)"/>
<path d="M29 49h3v1h-3v-1z" fill="rgb(41,65,106)"/>
<path d="M32 49h1v1h-1v-1z" fill="rgb(16,16,16)"/>
<path d="M33 49h7v1h-7v-1z" fill="rgb(41,65,106)"/>
<path d="M45 49h1v1h-1v-1z" fill="rgb(41,65,106)"/>
<path d="M46 49h1v1h-1v-1z" fill="rgb(16,16,16)"/>
<path d="M47 49h1v3h1v2h1v1h1v1h2v3h-2v1h-1v-2h-1v-2h-1v-1h-1v-1h-1v-1h-2v-1h1v-1h1v-1h1
	v-1z" fill="rgb(172,139,98)"/>
<path d="M58 49h1v1h-1v-1z" fill="rgb(98,123,197)"/>
<path d="M60 49h1v1h-1v-1z" fill="rgb(255,255,255)"/>
<path d="M69 49h2v1h-1v1h-1v-2z" fill="rgb(189,197,230)"/>
<path d="M25 50h4v1h-4v-1z" fill="rgb(41,65,106)"/>
<path d="M29 50h3v2h-1v1h-6v1h-1v-2h1v-1h4v-1z" fill="rgb(139,172,246)"/>
<path d="M32 50h1v1h1v2h-1v4h-8v-1h-1v-2h1v1h1v1h1v-1h1v-2h3v-1h1v-2z" fill="rgb(98,123,197)"/>
<path d="M33 50h3v1h-1v2h-1v-2h-1v-1z" fill="rgb(16,16,16)"/>
<path d="M43 50h3v1h-1v1h-1v-1h-1v-1z" fill="rgb(16,16,16)"/>
<path d="M59 50h1v1h-1v-1z" fill="rgb(255,255,255)"/>
<path d="M60 50h1v1h-1v-1z" fill="rgb(189,197,230)"/>
<path d="M68 50h1v2h-1v-2z" fill="rgb(98,123,197)"/>
<path d="M22 51h3v1h-3v-1z" fill="rgb(41,65,106)"/>
<path d="M35 51h1v1h1v1h-2v-2z" fill="rgb(172,139,98)"/>
<path d="M36 51h7v1h-7v-1z" fill="rgb(16,16,16)"/>
<path d="M43 51h1v1h-1v-1z" fill="rgb(49,65,74)"/>
<path d="M62 51h2v1h-2v-1z" fill="rgb(41,65,106)"/>
<path d="M71 51h4v1h-4v-1z" fill="rgb(98,123,197)"/>
<path d="M21 52h1v1h-1v-1z" fill="rgb(16,16,16)"/>
<path d="M22 52h2v1h-2v-1z" fill="rgb(255,255,255)"/>
<path d="M37 52h1v1h-1v-1z" fill="rgb(106,74,24)"/>
<path d="M38 52h5v1h-2v1h-2v-1h-1v-1z" fill="rgb(49,65,74)"/>
<path d="M43 52h1v1h-1v-1z" fill="rgb(16,16,16)"/>
<path d="M49 52h1v2h-1v-2z" fill="rgb(16,16,16)"/>
<path d="M56 52h1v1h-1v-1z" fill="rgb(255,255,255)"/>
<path d="M57 52h1v1h-1v-1z" fill="rgb(189,197,230)"/>
<path d="M61 52h2v1h-1v1h-1v-2z" fill="rgb(189,197,230)"/>
<path d="M63 52h1v1h-1v-1z" fill="rgb(16,16,16)"/>
<path d="M68 52h1v1h-1v-1z" fill="rgb(139,172,246)"/>
<path d="M70 52h1v1h-1v-1z" fill="rgb(98,123,197)"/>
<path d="M71 52h1v1h-1v-1z" fill="rgb(213,238,246)"/>
<path d="M72 52h2v1h1v1h1v2h-1v2h-1v1h-1v1h-2v-3h2v-1h1v-2h-1v1h-2v-1h-1v-1h2v-1z" fill="rgb(255,255,255)"/>
<path d="M74 52h1v1h-1v-1z" fill="rgb(213,238,246)"/>
<path d="M75 52h1v1h-1v-1z" fill="rgb(41,65,106)"/>
<path d="M22 53h1v1h-1v-1z" fill="rgb(16,16,16)"/>
<path d="M23 53h1v1h-1v-1z" fill="rgb(189,197,230)"/>
<path d="M25 53h2v2h-1v-1h-1v-1z" fill="rgb(189,197,230)"/>
<path d="M27 53h1v2h-1v-2z" fill="rgb(41,65,106)"/>
<path d="M33 53h1v8h-1v-3h-10v-1h10v-4z" fill="rgb(16,16,16)"/>
<path d="M34 53h1v1h-1v-1z" fill="rgb(172,139,98)"/>
<path d="M35 53h2v1h2v5h1v2h-3v-1h-2v-1h-1v-5h1v-1z" fill="rgb(222,197,139)"/>
<path d="M37 53h1v1h-1v-1z" fill="rgb(172,139,98)"/>
<path d="M38 53h1v1h-1v-1z" fill="rgb(106,74,24)"/>
<path d="M41 53h2v1h-2v-1z" fill="rgb(16,16,16)"/>
<path d="M43 53h3v1h1v1h1v1h1v2h1v2h-4v1h-5v-2h-1v-4h2v-1h1v-1z" fill="rgb(222,197,139)"/>
<path d="M55 53h1v1h1v1h-2v-2z" fill="rgb(41,65,106)"/>
<path d="M56 53h1v1h-1v-1z" fill="rgb(189,197,230)"/>
<path d="M57 53h1v1h-1v-1z" fill="rgb(41,65,106)"/>
<path d="M62 53h1v1h-1v-1z" fill="rgb(16,16,16)"/>
<path d="M67 53h1v3h-1v-3z" fill="rgb(139,172,246)"/>
<path d="M68 53h1v1h-1v-1z" fill="rgb(189,197,230)"/>
<path d="M69 53h1v2h-1v-2z" fill="rgb(98,123,197)"/>
<path d="M75 53h1v1h-1v-1z" fill="rgb(213,238,246)"/>
<path d="M76 53h1v2h-1v-2z" fill="rgb(41,65,106)"/>
<path d="M23 54h1v2h-1v-2z" fill="rgb(16,16,16)"/>
<path d="M25 54h1v1h-1v-1z" fill="rgb(41,65,106)"/>
<path d="M39 54h1v1h-1v-1z" fill="rgb(106,74,24)"/>
<path d="M40 54h1v1h-1v-1z" fill="rgb(16,16,16)"/>
<path d="M41 54h1v1h-1v-1z" fill="rgb(172,139,98)"/>
<path d="M50 54h1v1h-1v-1z" fill="rgb(16,16,16)"/>
<path d="M61 54h1v1h-1v-1z" fill="rgb(16,16,16)"/>
<path d="M68 54h1v2h1v1h1v3h2v-1h1v3h-1v1h-1v1h-1v1h-3v-1h1v-3h-1v1h-1v1h-1v1h-2v-1h1v-2
	h1v-2h1v-2h1v-3z" fill="rgb(213,238,246)"/>
<path d="M70 54h1v1h-1v-1z" fill="rgb(213,238,246)"/>
<path d="M73 54h1v1h-1v-1z" fill="rgb(139,172,246)"/>
<path d="M26 55h1v1h-1v-1z" fill="rgb(41,65,106)"/>
<path d="M39 55h1v4h-1v-4z" fill="rgb(172,139,98)"/>
<path d="M51 55h2v1h-2v-1z" fill="rgb(16,16,16)"/>
<path d="M53 55h1v1h-1v-1z" fill="rgb(41,65,106)"/>
<path d="M59 55h2v6h-1v-5h-1v-1z" fill="rgb(16,16,16)"/>
<path d="M69 55h1v1h-1v-1z" fill="rgb(41,65,106)"/>
<path d="M70 55h1v1h-1v-1z" fill="rgb(189,197,230)"/>
<path d="M71 55h1v1h-1v-1z" fill="rgb(213,238,246)"/>
<path d="M72 55h1v1h-1v-1z" fill="rgb(189,197,230)"/>
<path d="M73 55h1v1h-1v-1z" fill="rgb(98,123,197)"/>
<path d="M76 55h1v3h-1v-3z" fill="rgb(16,16,16)"/>
<path d="M22 56h1v1h-1v-1z" fill="rgb(16,16,16)"/>
<path d="M23 56h2v1h-2v-1z" fill="rgb(189,197,230)"/>
<path d="M53 56h1v5h-1v-1h-2v-1h2v-3z" fill="rgb(106,74,24)"/>
<path d="M54 56h1v1h-1v-1z" fill="rgb(41,65,106)"/>
<path d="M55 56h4v1h-4v-1z" fill="rgb(16,16,16)"/>
<path d="M59 56h1v2h-1v2h-1v1h-1v-2h-1v-2h3v-1z" fill="rgb(148,98,98)"/>
<path d="M66 56h1v2h-1v-2z" fill="rgb(139,172,246)"/>
<path d="M67 56h1v1h-1v-1z" fill="rgb(189,197,230)"/>
<path d="M70 56h3v1h-3v-1z" fill="rgb(41,65,106)"/>
<path d="M75 56h1v1h-1v-1z" fill="rgb(213,238,246)"/>
<path d="M54 57h1v2h1v2h1v1h-2v-1h-1v-4z" fill="rgb(189,197,230)"/>
<path d="M55 57h1v2h-1v-2z" fill="rgb(106,74,24)"/>
<path d="M75 57h1v1h-1v-1z" fill="rgb(189,197,230)"/>
<path d="M59 58h1v2h-1v-2z" fill="rgb(106,74,24)"/>
<path d="M65 58h1v2h-1v-2z" fill="rgb(139,172,246)"/>
<path d="M66 58h1v1h-1v-1z" fill="rgb(189,197,230)"/>
<path d="M74 58h1v1h-1v-1z" fill="rgb(213,238,246)"/>
<path d="M75 58h1v2h-1v-2z" fill="rgb(16,16,16)"/>
<path d="M34 59h1v1h2v1h-3v-2z" fill="rgb(172,139,98)"/>
<path d="M40 59h1v2h5v1h-4v3h-1v-3h-4v-1h3v-2z" fill="rgb(172,139,98)"/>
<path d="M56 59h1v2h-1v-2z" fill="rgb(106,74,24)"/>
<path d="M69 59h1v2h-1v-2z" fill="rgb(139,172,246)"/>
<path d="M74 59h1v1h-1v-1z" fill="rgb(189,197,230)"/>
<path d="M46 60h4v1h-4v-1z" fill="rgb(172,139,98)"/>
<path d="M50 60h1v1h-1v-1z" fill="rgb(106,74,24)"/>
<path d="M51 60h2v1h1v1h-2v1h-1v1h-1v2h-1v2h-2v-1h1v-2h1v-3h1v-1h1v-1z" fill="rgb(172,139,98)"/>
<path d="M58 60h1v1h-1v-1z" fill="rgb(106,74,24)"/>
<path d="M59 60h1v1h-1v-1z" fill="rgb(148,98,98)"/>
<path d="M64 60h1v1h-1v-1z" fill="rgb(139,172,246)"/>
<path d="M65 60h1v1h-1v-1z" fill="rgb(189,197,230)"/>
<path d="M74 60h1v2h-1v-2z" fill="rgb(16,16,16)"/>
<path d="M34 61h1v3h-1v-3z" fill="rgb(16,16,16)"/>
<path d="M35 61h2v1h4v3h1v2h-1v1h-3v-2h-1v-1h-1v-2h-1v-2z" fill="rgb(222,197,139)"/>
<path d="M46 61h4v1h-1v3h-1v2h-3v-1h-2v-1h-1v-3h4v-1z" fill="rgb(222,197,139)"/>
<path d="M54 61h1v1h-1v-1z" fill="rgb(106,74,24)"/>
<path d="M57 61h1v1h-1v-1z" fill="rgb(106,74,24)"/>
<path d="M58 61h1v1h-1v-1z" fill="rgb(148,98,98)"/>
<path d="M59 61h1v3h-1v-3z" fill="rgb(16,16,16)"/>
<path d="M63 61h1v1h-1v-1z" fill="rgb(139,172,246)"/>
<path d="M64 61h1v2h-1v1h2v1h-1v1h-2v1h-3v-2h1v-1h1v-1h1v-1h1v-1z" fill="rgb(189,197,230)"/>
<path d="M68 61h1v2h-1v-2z" fill="rgb(139,172,246)"/>
<path d="M52 62h3v1h-3v-1z" fill="rgb(41,65,106)"/>
<path d="M55 62h2v1h-2v-1z" fill="rgb(16,16,16)"/>
<path d="M57 62h1v1h-1v-1z" fill="rgb(189,197,230)"/>
<path d="M58 62h1v2h-1v-2z" fill="rgb(106,74,24)"/>
<path d="M62 62h1v1h-1v-1z" fill="rgb(139,172,246)"/>
<path d="M67 62h1v1h-1v-1z" fill="rgb(189,197,230)"/>
<path d="M73 62h1v1h-1v-1z" fill="rgb(16,16,16)"/>
<path d="M35 63h1v1h-1v-1z" fill="rgb(172,139,98)"/>
<path d="M51 63h1v1h-1v-1z" fill="rgb(41,65,106)"/>
<path d="M52 63h5v1h1v5h-1v2h-2v1h-3v-1h-1v-1h3v-1h1v-4h-1v-1h-2v-1z" fill="rgb(139,172,246)"/>
<path d="M57 63h1v1h-1v-1z" fill="rgb(16,16,16)"/>
<path d="M60 63h2v1h-2v-1z" fill="rgb(139,172,246)"/>
<path d="M66 63h1v1h-1v-1z" fill="rgb(189,197,230)"/>
<path d="M67 63h1v1h-1v-1z" fill="rgb(139,172,246)"/>
<path d="M68 63h1v1h-1v-1z" fill="rgb(189,197,230)"/>
<path d="M72 63h1v1h-1v-1z" fill="rgb(16,16,16)"/>
<path d="M33 64h1v1h-1v-1z" fill="rgb(41,65,106)"/>
<path d="M34 64h1v5h-1v1h-2v-3h1v-2h1v-1z" fill="rgb(172,197,255)"/>
<path d="M35 64h1v2h-1v-2z" fill="rgb(16,16,16)"/>
<path d="M50 64h1v2h-1v-2z" fill="rgb(41,65,106)"/>
<path d="M51 64h1v1h-1v-1z" fill="rgb(139,172,246)"/>
<path d="M52 64h2v1h1v4h-1v1h-3v-1h-1v-3h1v-1h1v-1z" fill="rgb(172,197,255)"/>
<path d="M58 64h1v1h-1v-1z" fill="rgb(16,16,16)"/>
<path d="M59 64h2v1h-2v-1z" fill="rgb(213,238,246)"/>
<path d="M66 64h1v1h-1v-1z" fill="rgb(139,172,246)"/>
<path d="M67 64h1v1h2v1h-2v1h-1v1h-2v1h-2v1h-1v-1h-1v-1h2v-1h2v-1h1v-1h1v-1z" fill="rgb(189,197,230)"/>
<path d="M71 64h1v1h-1v-1z" fill="rgb(16,16,16)"/>
<path d="M32 65h1v2h-1v-2z" fill="rgb(41,65,106)"/>
<path d="M36 65h1v1h-1v-1z" fill="rgb(172,139,98)"/>
<path d="M42 65h1v1h2v1h-3v-2z" fill="rgb(172,139,98)"/>
<path d="M58 65h1v2h1v2h1v3h1v3h-1v1h-6v-2h-1v-1h-1v-1h2v-1h2v-2h1v-4z" fill="rgb(98,123,197)"/>
<path d="M59 65h1v2h-1v-2z" fill="rgb(16,16,16)"/>
<path d="M65 65h1v1h-1v-1z" fill="rgb(139,172,246)"/>
<path d="M70 65h1v1h-1v-1z" fill="rgb(16,16,16)"/>
<path d="M35 66h1v1h1v2h-1v1h-1v1h-3v-1h2v-1h1v-3z" fill="rgb(139,172,246)"/>
<path d="M36 66h1v1h-1v-1z" fill="rgb(16,16,16)"/>
<path d="M37 66h1v1h-1v-1z" fill="rgb(172,139,98)"/>
<path d="M49 66h1v4h-1v-4z" fill="rgb(41,65,106)"/>
<path d="M63 66h2v1h-2v-1z" fill="rgb(139,172,246)"/>
<path d="M68 66h2v1h-2v-1z" fill="rgb(16,16,16)"/>
<path d="M31 67h1v3h-1v-3z" fill="rgb(41,65,106)"/>
<path d="M37 67h1v1h-1v-1z" fill="rgb(16,16,16)"/>
<path d="M41 67h1v1h-1v-1z" fill="rgb(172,139,98)"/>
<path d="M42 67h3v1h-1v1h-3v-1h1v-1z" fill="rgb(222,197,139)"/>
<path d="M45 67h2v1h-2v-1z" fill="rgb(139,90,32)"/>
<path d="M60 67h1v2h-1v-2z" fill="rgb(16,16,16)"/>
<path d="M61 67h2v1h-2v-1z" fill="rgb(139,172,246)"/>
<path d="M67 67h1v1h-1v-1z" fill="rgb(16,16,16)"/>
<path d="M37 68h1v1h1v1h2v2h-1v2h-1v1h-6v-1h1v-1h-1v-2h2v-1h1v-1h1v-1z" fill="rgb(98,123,197)"/>
<path d="M38 68h1v1h-1v-1z" fill="rgb(16,16,16)"/>
<path d="M39 68h1v1h-1v-1z" fill="rgb(172,139,98)"/>
<path d="M40 68h1v1h-1v-1z" fill="rgb(139,90,32)"/>
<path d="M44 68h3v1h2v1h1v1h-6v-1h-3v-1h3v-1z" fill="rgb(172,139,98)"/>
<path d="M47 68h2v1h-2v-1z" fill="rgb(139,90,32)"/>
<path d="M65 68h2v1h-2v-1z" fill="rgb(16,16,16)"/>
<path d="M39 69h2v1h-2v-1z" fill="rgb(16,16,16)"/>
<path d="M50 69h1v1h-1v-1z" fill="rgb(139,172,246)"/>
<path d="M61 69h1v3h-1v-3z" fill="rgb(16,16,16)"/>
<path d="M63 69h2v1h-2v-1z" fill="rgb(41,65,106)"/>
<path d="M31 70h1v1h-1v-1z" fill="rgb(16,16,16)"/>
<path d="M41 70h3v1h-2v1h-1v-2z" fill="rgb(16,16,16)"/>
<path d="M50 70h1v1h-1v-1z" fill="rgb(16,16,16)"/>
<path d="M62 70h1v1h-1v-1z" fill="rgb(41,65,106)"/>
<path d="M32 71h1v2h-1v-2z" fill="rgb(16,16,16)"/>
<path d="M44 71h5v1h-5v-1z" fill="rgb(16,16,16)"/>
<path d="M49 71h2v1h-2v-1z" fill="rgb(189,197,230)"/>
<path d="M51 71h1v1h-1v-1z" fill="rgb(16,16,16)"/>
<path d="M40 72h1v2h-1v-2z" fill="rgb(16,16,16)"/>
<path d="M49 72h3v1h-3v-1z" fill="rgb(41,65,106)"/>
<path d="M52 72h1v1h-1v-1z" fill="rgb(16,16,16)"/>
<path d="M62 72h1v3h-1v-3z" fill="rgb(16,16,16)"/>
<path d="M31 73h1v1h-1v-1z" fill="rgb(16,16,16)"/>
<path d="M32 73h1v1h-1v-1z" fill="rgb(98,123,197)"/>
<path d="M33 73h1v1h-1v-1z" fill="rgb(41,65,106)"/>
<path d="M53 73h1v1h-1v-1z" fill="rgb(16,16,16)"/>
<path d="M30 74h1v1h1v1h-2v-2z" fill="rgb(16,16,16)"/>
<path d="M31 74h2v1h-2v-1z" fill="rgb(139,172,246)"/>
<path d="M39 74h1v2h-1v-2z" fill="rgb(16,16,16)"/>
<path d="M54 74h1v2h-1v-2z" fill="rgb(16,16,16)"/>
<path d="M32 75h1v1h-1v-1z" fill="rgb(41,65,106)"/>
<path d="M33 75h2v1h-2v-1z" fill="rgb(139,172,246)"/>
<path d="M35 75h1v1h-1v-1z" fill="rgb(16,16,16)"/>
<path d="M36 75h2v1h-2v-1z" fill="rgb(139,172,246)"/>
<path d="M38 75h1v1h-1v-1z" fill="rgb(41,65,106)"/>
<path d="M61 75h2v1h-2v-1z" fill="rgb(139,172,246)"/>
<path d="M63 75h1v2h-2v-1h1v-1z" fill="rgb(16,16,16)"/>
<path d="M32 76h3v1h-3v-1z" fill="rgb(16,16,16)"/>
<path d="M36 76h3v1h-3v-1z" fill="rgb(16,16,16)"/>
<path d="M55 76h1v1h-1v-1z" fill="rgb(16,16,16)"/>
<path d="M56 76h2v1h-2v-1z" fill="rgb(139,172,246)"/>
<path d="M58 76h1v1h-1v-1z" fill="rgb(16,16,16)"/>
<path d="M59 76h2v1h-2v-1z" fill="rgb(139,172,246)"/>
<path d="M61 76h1v1h-1v-1z" fill="rgb(41,65,106)"/>
<path d="M56 77h2v1h-2v-1z" fill="rgb(16,16,16)"/>
<path d="M59 77h3v1h-3v-1z" fill="rgb(16,16,16)"/>
</svg>
