<?xml version="1.0" encoding="utf-8"?>
<!-- generated at drububu.com  -->
<!DOCTYPE svg PUBLIC "-//W3C//DTD SVG 1.1//EN" "http://www.w3.org/Graphics/SVG/1.1/DTD/svg11.dtd">
<svg version="1.1" preserveAspectRatio="xMinYMin meet" xmlns="http://www.w3.org/2000/svg" xmlns:xlink="http://www.w3.org/1999/xlink" x="0px" y="0px" width="96px" height="96px" viewBox="0 0 96 96">
<path d="M0 0h96v96h-96v-96z" fill="transparent"/>
<path d="M29 20h3v1h-3v-1z" fill="rgb(123,49,49)"/>
<path d="M28 21h1v1h-1v-1z" fill="rgb(123,49,49)"/>
<path d="M29 21h3v1h1v2h-2v1h-1v1h-1v-1h-1v-3h1v-1z" fill="rgb(230,106,123)"/>
<path d="M32 21h1v1h-1v-1z" fill="rgb(123,49,49)"/>
<path d="M45 21h4v1h-4v-1z" fill="rgb(123,49,49)"/>
<path d="M27 22h1v1h-1v-1z" fill="rgb(123,49,49)"/>
<path d="M33 22h1v1h-1v-1z" fill="rgb(123,49,49)"/>
<path d="M44 22h1v1h-1v-1z" fill="rgb(123,49,49)"/>
<path d="M45 22h3v2h-2v1h-2v-2h1v-1z" fill="rgb(255,148,148)"/>
<path d="M48 22h1v1h1v4h-1v1h-2v-1h-1v-2h2v-3z" fill="rgb(230,106,123)"/>
<path d="M49 22h1v1h-1v-1z" fill="rgb(24,24,24)"/>
<path d="M27 23h1v2h-1v-2z" fill="rgb(24,24,24)"/>
<path d="M33 23h8v1h-8v-1z" fill="rgb(24,24,24)"/>
<path d="M43 23h1v2h-3v-1h2v-1z" fill="rgb(123,49,49)"/>
<path d="M50 23h1v4h-1v-4z" fill="rgb(24,24,24)"/>
<path d="M31 24h2v1h-2v-1z" fill="rgb(123,49,49)"/>
<path d="M33 24h4v1h1v1h-1v1h-4v-1h-1v-1h1v-1z" fill="rgb(255,189,172)"/>
<path d="M37 24h4v1h2v2h-4v1h-1v4h-1v-1h-2v-1h-4v-2h-1v-2h1v-1h1v1h1v1h4v-1h1v-1h-1v-1z" fill="rgb(255,148,148)"/>
<path d="M46 24h2v1h-2v-1z" fill="rgb(123,49,49)"/>
<path d="M28 25h1v1h-1v-1z" fill="rgb(24,24,24)"/>
<path d="M30 25h1v1h-1v-1z" fill="rgb(24,24,24)"/>
<path d="M43 25h2v2h1v1h1v2h1v3h1v3h1v3h1v4h1v4h1v3h1v3h1v2h1v2h1v1h1v2h1v6h-1v3h-1v1h-1
	v1h-2v1h-3v1h-2v-1h-2v-2h-1v-1h-1v-2h-1v-6h1v4h1v2h4v-1h2v-1h1v-2h1v-5h-1v-1
	h-1v-1h-4v1h-1v1h-2v-1h-1v1h-4v-1h-1v-1h-1v-3h1v1h1v1h3v-1h1v-1h1v-1h1v-2h1v-3
	h-1v-1h-3v1h-1v1h-2v1h-1v2h-1v-1h-1v-1h-1v-1h-1v-1h-2v-1h5v-1h2v-1h1v-1h1v-1h2
	v-1h1v-1h1v-3h-1v-1h-1v-1h-1v-1h-1v-1h1v-5h-1v-1h1v-2z" fill="rgb(230,106,123)"/>
<path d="M45 25h1v2h-1v-2z" fill="rgb(123,49,49)"/>
<path d="M48 25h1v1h-1v-1z" fill="rgb(123,49,49)"/>
<path d="M29 26h1v1h-1v-1z" fill="rgb(24,24,24)"/>
<path d="M28 27h1v2h-1v-2z" fill="rgb(24,24,24)"/>
<path d="M29 27h1v1h1v2h-1v-1h-1v-2z" fill="rgb(255,255,255)"/>
<path d="M39 27h1v1h-1v-1z" fill="rgb(222,222,213)"/>
<path d="M40 27h1v1h1v1h1v2h-1v2h-3v-2h-1v-2h1v-1h1v-1z" fill="rgb(255,255,255)"/>
<path d="M41 27h1v1h-1v-1z" fill="rgb(222,222,213)"/>
<path d="M46 27h1v1h-1v-1z" fill="rgb(123,49,49)"/>
<path d="M49 27h1v1h-1v-1z" fill="rgb(24,24,24)"/>
<path d="M38 28h1v1h-1v-1z" fill="rgb(222,222,213)"/>
<path d="M42 28h1v1h-1v-1z" fill="rgb(222,222,213)"/>
<path d="M47 28h2v1h-1v1h-1v-2z" fill="rgb(24,24,24)"/>
<path d="M66 28h2v1h-2v-1z" fill="rgb(24,24,24)"/>
<path d="M27 29h1v3h-1v-3z" fill="rgb(24,24,24)"/>
<path d="M28 29h1v1h1v1h-2v-2z" fill="rgb(255,255,255)"/>
<path d="M29 29h1v1h-1v-1z" fill="rgb(82,82,90)"/>
<path d="M40 29h1v1h-1v-1z" fill="rgb(24,24,24)"/>
<path d="M60 29h1v4h-1v-4z" fill="rgb(24,24,24)"/>
<path d="M61 29h1v1h-1v-1z" fill="rgb(82,82,90)"/>
<path d="M65 29h1v1h-1v-1z" fill="rgb(24,24,24)"/>
<path d="M66 29h2v5h1v3h-1v-1h-1v-1h-2v-1h1v-1h1v-2h-2v-1h1v-1z" fill="rgb(139,148,148)"/>
<path d="M68 29h1v4h-1v-4z" fill="rgb(24,24,24)"/>
<path d="M30 30h5v1h-5v-1z" fill="rgb(131,90,32)"/>
<path d="M48 30h1v3h-1v-3z" fill="rgb(24,24,24)"/>
<path d="M61 30h1v1h1v1h-1v1h-1v-3z" fill="rgb(139,148,148)"/>
<path d="M62 30h1v1h-1v-1z" fill="rgb(82,82,90)"/>
<path d="M64 30h1v1h-1v-1z" fill="rgb(24,24,24)"/>
<path d="M28 31h1v1h-1v-1z" fill="rgb(222,222,213)"/>
<path d="M29 31h1v1h-1v-1z" fill="rgb(131,90,32)"/>
<path d="M30 31h4v1h2v1h2v1h1v2h-1v1h-11v-1h-1v-3h3v-1h1v-1z" fill="rgb(255,238,180)"/>
<path d="M34 31h1v1h-1v-1z" fill="rgb(238,213,131)"/>
<path d="M35 31h2v1h-2v-1z" fill="rgb(131,90,32)"/>
<path d="M38 31h1v2h-1v-2z" fill="rgb(222,222,213)"/>
<path d="M42 31h1v2h-1v-2z" fill="rgb(222,222,213)"/>
<path d="M63 31h1v1h-1v-1z" fill="rgb(24,24,24)"/>
<path d="M64 31h1v1h-1v-1z" fill="rgb(139,148,148)"/>
<path d="M65 31h2v2h-1v1h-4v-1h1v-1h2v-1z" fill="rgb(180,189,189)"/>
<path d="M26 32h2v1h-2v-1z" fill="rgb(131,90,32)"/>
<path d="M28 32h1v1h-1v-1z" fill="rgb(205,164,98)"/>
<path d="M36 32h1v1h-1v-1z" fill="rgb(238,213,131)"/>
<path d="M37 32h1v1h-1v-1z" fill="rgb(24,24,24)"/>
<path d="M62 32h1v1h-1v-1z" fill="rgb(24,24,24)"/>
<path d="M69 32h1v1h-1v-1z" fill="rgb(82,82,90)"/>
<path d="M70 32h1v1h-1v-1z" fill="rgb(24,24,24)"/>
<path d="M71 32h1v1h-1v-1z" fill="rgb(82,82,90)"/>
<path d="M72 32h1v2h-1v-2z" fill="rgb(24,24,24)"/>
<path d="M25 33h1v1h-1v-1z" fill="rgb(131,90,32)"/>
<path d="M38 33h1v1h-1v-1z" fill="rgb(205,164,98)"/>
<path d="M39 33h2v1h-2v-1z" fill="rgb(24,24,24)"/>
<path d="M41 33h1v1h-1v-1z" fill="rgb(222,222,213)"/>
<path d="M49 33h1v3h-1v-3z" fill="rgb(24,24,24)"/>
<path d="M55 33h1v1h-1v-1z" fill="rgb(24,24,24)"/>
<path d="M61 33h1v1h-1v-1z" fill="rgb(24,24,24)"/>
<path d="M68 33h1v1h-1v-1z" fill="rgb(82,82,90)"/>
<path d="M69 33h1v2h1v1h-1v4h-1v-2h-1v-1h1v-4z" fill="rgb(24,24,24)"/>
<path d="M70 33h2v1h-1v1h-1v-2z" fill="rgb(139,148,148)"/>
<path d="M24 34h1v3h-1v-3z" fill="rgb(24,24,24)"/>
<path d="M25 34h1v2h1v2h-1v-1h-1v-3z" fill="rgb(238,213,131)"/>
<path d="M29 34h1v1h-1v-1z" fill="rgb(205,164,98)"/>
<path d="M32 34h1v1h-1v-1z" fill="rgb(131,90,32)"/>
<path d="M39 34h2v1h1v2h-1v1h-5v-1h2v-1h1v-2z" fill="rgb(238,213,131)"/>
<path d="M41 34h2v1h-2v-1z" fill="rgb(24,24,24)"/>
<path d="M54 34h1v2h-1v-2z" fill="rgb(24,24,24)"/>
<path d="M55 34h1v1h1v2h-2v-3z" fill="rgb(180,189,189)"/>
<path d="M56 34h1v1h-1v-1z" fill="rgb(82,82,90)"/>
<path d="M60 34h1v1h-1v-1z" fill="rgb(24,24,24)"/>
<path d="M61 34h4v1h-4v-1z" fill="rgb(82,82,90)"/>
<path d="M71 34h1v1h-1v-1z" fill="rgb(24,24,24)"/>
<path d="M42 35h1v1h1v1h1v3h-1v1h-2v1h-1v1h-1v1h-2v1h-6v-1h5v-1h2v-1h1v-1h1v-1h1v-1h-3
	v-1h2v-1h1v-2z" fill="rgb(205,164,98)"/>
<path d="M43 35h1v1h-1v-1z" fill="rgb(24,24,24)"/>
<path d="M57 35h1v1h-1v-1z" fill="rgb(82,82,90)"/>
<path d="M58 35h2v1h-2v-1z" fill="rgb(24,24,24)"/>
<path d="M60 35h1v1h-1v-1z" fill="rgb(139,148,148)"/>
<path d="M61 35h3v1h3v2h-1v2h-1v1h-3v-1h-2v-2h-1v2h-3v-2h1v-1h2v-1h2v-1z" fill="rgb(180,189,189)"/>
<path d="M64 35h1v1h-1v-1z" fill="rgb(139,148,148)"/>
<path d="M65 35h2v1h-2v-1z" fill="rgb(24,24,24)"/>
<path d="M44 36h1v1h-1v-1z" fill="rgb(24,24,24)"/>
<path d="M50 36h1v3h-1v-3z" fill="rgb(24,24,24)"/>
<path d="M53 36h1v4h1v1h-2v-5z" fill="rgb(24,24,24)"/>
<path d="M54 36h1v1h1v1h-1v2h-1v-4z" fill="rgb(139,148,148)"/>
<path d="M57 36h1v1h-1v-1z" fill="rgb(24,24,24)"/>
<path d="M58 36h1v1h-1v-1z" fill="rgb(139,148,148)"/>
<path d="M67 36h1v1h-1v-1z" fill="rgb(24,24,24)"/>
<path d="M25 37h1v1h-1v-1z" fill="rgb(24,24,24)"/>
<path d="M27 37h1v1h-1v-1z" fill="rgb(205,164,98)"/>
<path d="M28 37h1v1h-1v-1z" fill="rgb(131,90,32)"/>
<path d="M29 37h6v1h-5v1h-1v-2z" fill="rgb(24,24,24)"/>
<path d="M35 37h1v1h-1v-1z" fill="rgb(205,164,98)"/>
<path d="M45 37h1v3h-1v-3z" fill="rgb(131,90,32)"/>
<path d="M56 37h1v1h-1v-1z" fill="rgb(24,24,24)"/>
<path d="M67 37h1v1h-1v-1z" fill="rgb(139,148,148)"/>
<path d="M26 38h2v1h1v1h-1v1h-1v-2h-1v-1z" fill="rgb(24,24,24)"/>
<path d="M28 38h1v1h-1v-1z" fill="rgb(255,255,255)"/>
<path d="M30 38h5v1h1v1h-2v1h-2v1h-2v-2h-1v-1h1v-1z" fill="rgb(123,49,49)"/>
<path d="M35 38h3v1h-1v1h-1v-1h-1v-1z" fill="rgb(24,24,24)"/>
<path d="M38 38h1v1h-1v-1z" fill="rgb(131,90,32)"/>
<path d="M42 38h1v1h-1v-1z" fill="rgb(24,24,24)"/>
<path d="M55 38h1v2h-1v-2z" fill="rgb(24,24,24)"/>
<path d="M59 38h1v2h-1v-2z" fill="rgb(139,148,148)"/>
<path d="M66 38h2v3h-1v-1h-1v-2z" fill="rgb(82,82,90)"/>
<path d="M68 38h1v2h1v4h-1v-1h-1v-1h-2v-1h-1v-1h2v1h1v-3z" fill="rgb(139,148,148)"/>
<path d="M37 39h1v1h-1v-1z" fill="rgb(255,255,255)"/>
<path d="M38 39h4v1h-4v-1z" fill="rgb(24,24,24)"/>
<path d="M51 39h1v2h1v1h-1v1h-1v-4z" fill="rgb(24,24,24)"/>
<path d="M28 40h1v1h-1v-1z" fill="rgb(131,90,32)"/>
<path d="M29 40h1v2h-1v1h-1v-2h1v-1z" fill="rgb(24,24,24)"/>
<path d="M34 40h3v1h2v1h-2v1h-5v-2h2v-1z" fill="rgb(230,82,41)"/>
<path d="M37 40h1v1h-1v-1z" fill="rgb(24,24,24)"/>
<path d="M38 40h3v1h-1v1h-1v-1h-1v-1z" fill="rgb(123,49,49)"/>
<path d="M44 40h1v1h-1v-1z" fill="rgb(131,90,32)"/>
<path d="M55 40h7v1h-7v-1z" fill="rgb(82,82,90)"/>
<path d="M70 40h1v4h-1v-4z" fill="rgb(24,24,24)"/>
<path d="M42 41h2v1h-2v-1z" fill="rgb(131,90,32)"/>
<path d="M53 41h1v1h-1v-1z" fill="rgb(139,148,148)"/>
<path d="M54 41h7v1h4v1h1v2h-1v1h-5v-1h-7v-3h1v-1z" fill="rgb(180,189,189)"/>
<path d="M61 41h1v1h-1v-1z" fill="rgb(139,148,148)"/>
<path d="M62 41h2v1h-2v-1z" fill="rgb(82,82,90)"/>
<path d="M64 41h2v1h-2v-1z" fill="rgb(24,24,24)"/>
<path d="M29 42h1v1h-1v-1z" fill="rgb(205,164,98)"/>
<path d="M30 42h2v1h-2v-1z" fill="rgb(24,24,24)"/>
<path d="M37 42h2v1h-2v-1z" fill="rgb(123,49,49)"/>
<path d="M41 42h1v1h-1v-1z" fill="rgb(24,24,24)"/>
<path d="M52 42h1v1h-1v-1z" fill="rgb(139,148,148)"/>
<path d="M58 42h2v2h-2v-2z" fill="rgb(139,148,148)"/>
<path d="M65 42h1v1h-1v-1z" fill="rgb(139,148,148)"/>
<path d="M66 42h2v1h-2v-1z" fill="rgb(24,24,24)"/>
<path d="M29 43h1v1h2v1h-3v-2z" fill="rgb(24,24,24)"/>
<path d="M30 43h2v1h-2v-1z" fill="rgb(205,164,98)"/>
<path d="M32 43h5v1h-5v-1z" fill="rgb(123,49,49)"/>
<path d="M40 43h1v1h-1v-1z" fill="rgb(24,24,24)"/>
<path d="M52 43h1v4h-1v-4z" fill="rgb(24,24,24)"/>
<path d="M66 43h2v1h1v1h-2v1h1v1h1v-2h1v2h1v4h-2v-1h-1v-1h-1v-1h-2v-1h-2v-1h2v-1h1v-2z" fill="rgb(139,148,148)"/>
<path d="M68 43h1v1h-1v-1z" fill="rgb(24,24,24)"/>
<path d="M38 44h2v1h-2v-1z" fill="rgb(24,24,24)"/>
<path d="M69 44h1v1h-1v-1z" fill="rgb(24,24,24)"/>
<path d="M74 44h1v1h-1v-1z" fill="rgb(82,82,90)"/>
<path d="M75 44h1v3h-1v-3z" fill="rgb(24,24,24)"/>
<path d="M28 45h1v1h-1v-1z" fill="rgb(24,24,24)"/>
<path d="M29 45h3v1h1v1h2v1h1v1h1v1h1v3h-1v2h-4v-4h-1v-3h-1v-1h-1v2h1v4h-1v1h-1v1h-2v-1
	h-1v-2h1v-3h1v-2h1v-2z" fill="rgb(255,148,148)"/>
<path d="M32 45h6v1h-6v-1z" fill="rgb(24,24,24)"/>
<path d="M53 45h7v1h-7v-1z" fill="rgb(82,82,90)"/>
<path d="M67 45h2v2h-1v-1h-1v-1z" fill="rgb(82,82,90)"/>
<path d="M70 45h1v2h-1v-2z" fill="rgb(24,24,24)"/>
<path d="M72 45h2v1h-2v-1z" fill="rgb(82,82,90)"/>
<path d="M74 45h1v1h-1v-1z" fill="rgb(180,189,189)"/>
<path d="M27 46h1v2h-1v-2z" fill="rgb(24,24,24)"/>
<path d="M28 46h1v1h-1v-1z" fill="rgb(230,106,123)"/>
<path d="M43 46h3v1h1v3h-1v2h-1v1h-1v1h-1v1h-3v-1h-1v-2h1v-2h1v-2h1v-1h1v-1z" fill="rgb(255,148,148)"/>
<path d="M53 46h6v1h3v1h2v2h-2v1h-2v1h-1v-2h-1v2h1v2h-2v-1h-2v-3h-1v-3h-1v-1z" fill="rgb(180,189,189)"/>
<path d="M59 46h1v1h-1v-1z" fill="rgb(139,148,148)"/>
<path d="M60 46h2v1h-2v-1z" fill="rgb(82,82,90)"/>
<path d="M62 46h1v1h-1v-1z" fill="rgb(24,24,24)"/>
<path d="M71 46h1v1h-1v-1z" fill="rgb(82,82,90)"/>
<path d="M72 46h1v1h1v2h-1v1h-1v-4z" fill="rgb(139,148,148)"/>
<path d="M73 46h1v1h-1v-1z" fill="rgb(180,189,189)"/>
<path d="M74 46h1v1h-1v-1z" fill="rgb(139,148,148)"/>
<path d="M30 47h1v1h-1v-1z" fill="rgb(123,49,49)"/>
<path d="M49 47h1v3h-1v-3z" fill="rgb(123,49,49)"/>
<path d="M53 47h1v3h-1v-3z" fill="rgb(24,24,24)"/>
<path d="M62 47h1v1h-1v-1z" fill="rgb(139,148,148)"/>
<path d="M63 47h2v1h-2v-1z" fill="rgb(24,24,24)"/>
<path d="M71 47h1v3h1v1h-1v1h-1v-5z" fill="rgb(24,24,24)"/>
<path d="M74 47h1v2h-1v-2z" fill="rgb(24,24,24)"/>
<path d="M26 48h1v3h-1v-3z" fill="rgb(24,24,24)"/>
<path d="M27 48h1v1h-1v-1z" fill="rgb(230,106,123)"/>
<path d="M30 48h1v1h-1v-1z" fill="rgb(230,106,123)"/>
<path d="M31 48h1v3h-1v-3z" fill="rgb(123,49,49)"/>
<path d="M40 48h1v1h-1v-1z" fill="rgb(123,49,49)"/>
<path d="M64 48h1v1h2v1h1v1h1v1h1v2h1v2h-1v2h1v-2h1v4h-1v2h-1v2h-1v-6h-1v-1h-1v-1h-5v1
	h-5v-2h-1v-2h1v1h2v-1h1v1h2v1h3v-2h1v-3h-2v-2z" fill="rgb(139,148,148)"/>
<path d="M65 48h2v1h-2v-1z" fill="rgb(24,24,24)"/>
<path d="M39 49h1v2h-1v-2z" fill="rgb(123,49,49)"/>
<path d="M40 49h1v1h-1v-1z" fill="rgb(230,106,123)"/>
<path d="M67 49h1v1h-1v-1z" fill="rgb(24,24,24)"/>
<path d="M69 49h1v1h-1v-1z" fill="rgb(82,82,90)"/>
<path d="M73 49h1v1h-1v-1z" fill="rgb(24,24,24)"/>
<path d="M48 50h1v1h-1v-1z" fill="rgb(123,49,49)"/>
<path d="M54 50h1v3h-1v-3z" fill="rgb(24,24,24)"/>
<path d="M58 50h1v2h-1v-2z" fill="rgb(82,82,90)"/>
<path d="M62 50h3v1h-3v-1z" fill="rgb(24,24,24)"/>
<path d="M65 50h1v1h-1v-1z" fill="rgb(82,82,90)"/>
<path d="M68 50h1v1h-1v-1z" fill="rgb(24,24,24)"/>
<path d="M25 51h1v5h-1v-5z" fill="rgb(24,24,24)"/>
<path d="M26 51h1v1h-1v-1z" fill="rgb(230,106,123)"/>
<path d="M31 51h1v3h-1v2h-2v1h-2v-1h-1v-2h1v1h2v-1h1v-1h1v-2z" fill="rgb(230,106,123)"/>
<path d="M32 51h1v3h-1v-3z" fill="rgb(123,49,49)"/>
<path d="M38 51h1v2h-1v-2z" fill="rgb(123,49,49)"/>
<path d="M39 51h1v1h-1v-1z" fill="rgb(230,106,123)"/>
<path d="M48 51h1v1h-1v-1z" fill="rgb(24,24,24)"/>
<path d="M60 51h2v1h-2v-1z" fill="rgb(24,24,24)"/>
<path d="M62 51h1v1h-1v-1z" fill="rgb(139,148,148)"/>
<path d="M63 51h3v2h-1v1h-3v-1h1v-2z" fill="rgb(255,255,255)"/>
<path d="M69 51h1v1h-1v-1z" fill="rgb(24,24,24)"/>
<path d="M70 51h1v1h-1v-1z" fill="rgb(82,82,90)"/>
<path d="M47 52h1v2h-1v-2z" fill="rgb(24,24,24)"/>
<path d="M59 52h1v1h-1v-1z" fill="rgb(24,24,24)"/>
<path d="M60 52h2v1h-2v-1z" fill="rgb(255,255,255)"/>
<path d="M62 52h1v1h-1v-1z" fill="rgb(24,24,24)"/>
<path d="M70 52h1v1h-1v-1z" fill="rgb(24,24,24)"/>
<path d="M37 53h1v3h-1v-3z" fill="rgb(123,49,49)"/>
<path d="M55 53h1v2h-1v-2z" fill="rgb(24,24,24)"/>
<path d="M60 53h2v1h-2v-1z" fill="rgb(82,82,90)"/>
<path d="M67 53h2v3h-1v-1h-1v-2z" fill="rgb(82,82,90)"/>
<path d="M70 53h1v1h-1v-1z" fill="rgb(82,82,90)"/>
<path d="M71 53h1v3h-1v-3z" fill="rgb(24,24,24)"/>
<path d="M31 54h2v2h-1v-1h-1v-1z" fill="rgb(24,24,24)"/>
<path d="M46 54h1v1h-1v-1z" fill="rgb(24,24,24)"/>
<path d="M62 54h3v1h-3v-1z" fill="rgb(82,82,90)"/>
<path d="M31 55h1v1h-1v-1z" fill="rgb(255,255,255)"/>
<path d="M33 55h3v1h-3v-1z" fill="rgb(131,90,32)"/>
<path d="M36 55h1v2h-1v-2z" fill="rgb(24,24,24)"/>
<path d="M45 55h1v2h-1v-2z" fill="rgb(24,24,24)"/>
<path d="M56 55h1v2h-1v-2z" fill="rgb(24,24,24)"/>
<path d="M26 56h1v1h1v1h-1v2h-1v-4z" fill="rgb(24,24,24)"/>
<path d="M29 56h1v1h-1v-1z" fill="rgb(24,24,24)"/>
<path d="M30 56h1v1h-1v-1z" fill="rgb(123,49,49)"/>
<path d="M31 56h1v1h-1v-1z" fill="rgb(222,222,213)"/>
<path d="M32 56h1v1h-1v-1z" fill="rgb(255,255,255)"/>
<path d="M33 56h1v2h-2v1h-1v-1h-1v-1h3v-1z" fill="rgb(24,24,24)"/>
<path d="M34 56h2v1h-1v2h-3v-1h2v-2z" fill="rgb(238,213,131)"/>
<path d="M37 56h1v1h-1v-1z" fill="rgb(255,255,255)"/>
<path d="M38 56h1v1h-1v-1z" fill="rgb(123,49,49)"/>
<path d="M48 56h4v1h1v1h1v5h-1v2h-1v1h-2v1h-4v-2h-1v-5h1v-2h1v-1h1v-1z" fill="rgb(255,148,148)"/>
<path d="M62 56h5v1h-2v2h-1v-2h-2v-1z" fill="rgb(24,24,24)"/>
<path d="M70 56h1v2h-1v-2z" fill="rgb(82,82,90)"/>
<path d="M72 56h1v7h-1v-7z" fill="rgb(24,24,24)"/>
<path d="M28 57h1v1h-1v-1z" fill="rgb(123,49,49)"/>
<path d="M29 57h1v1h-1v-1z" fill="rgb(255,255,255)"/>
<path d="M35 57h1v1h2v2h1v-1h1v2h1v1h-2v-1h-2v-2h-2v-2z" fill="rgb(24,24,24)"/>
<path d="M36 57h1v1h-1v-1z" fill="rgb(255,255,255)"/>
<path d="M37 57h1v1h-1v-1z" fill="rgb(222,222,213)"/>
<path d="M38 57h1v1h-1v-1z" fill="rgb(24,24,24)"/>
<path d="M39 57h1v1h-1v-1z" fill="rgb(123,49,49)"/>
<path d="M44 57h1v1h-1v-1z" fill="rgb(24,24,24)"/>
<path d="M57 57h5v2h-1v-1h-2v2h-1v-2h-1v-1z" fill="rgb(24,24,24)"/>
<path d="M62 57h2v1h-2v-1z" fill="rgb(255,255,255)"/>
<path d="M65 57h1v3h2v3h-1v1h-1v1h-2v-1h1v-2h-1v-1h-2v-1h-1v-1h1v-1h1v2h1v-1h1v-2z" fill="rgb(123,49,49)"/>
<path d="M66 57h1v1h1v1h-1v1h-1v-3z" fill="rgb(139,148,148)"/>
<path d="M67 57h1v1h-1v-1z" fill="rgb(24,24,24)"/>
<path d="M27 58h1v2h-1v-2z" fill="rgb(222,222,213)"/>
<path d="M28 58h1v1h2v1h-3v-2z" fill="rgb(24,24,24)"/>
<path d="M29 58h1v1h-1v-1z" fill="rgb(222,222,213)"/>
<path d="M30 58h1v1h-1v-1z" fill="rgb(255,255,255)"/>
<path d="M38 58h1v1h-1v-1z" fill="rgb(222,222,213)"/>
<path d="M39 58h1v1h-1v-1z" fill="rgb(255,255,255)"/>
<path d="M40 58h1v1h-1v-1z" fill="rgb(24,24,24)"/>
<path d="M41 58h1v1h-1v-1z" fill="rgb(123,49,49)"/>
<path d="M42 58h2v1h-1v1h-1v-2z" fill="rgb(24,24,24)"/>
<path d="M44 58h1v1h-1v-1z" fill="rgb(131,90,32)"/>
<path d="M45 58h1v1h-1v-1z" fill="rgb(24,24,24)"/>
<path d="M59 58h1v1h-1v-1z" fill="rgb(255,255,255)"/>
<path d="M60 58h1v1h-1v-1z" fill="rgb(222,222,213)"/>
<path d="M63 58h1v1h-1v-1z" fill="rgb(139,148,148)"/>
<path d="M68 58h1v7h-1v-1h-1v-1h1v-3h-1v-1h1v-1z" fill="rgb(24,24,24)"/>
<path d="M31 59h1v1h5v1h2v2h-7v-1h-2v-1h-1v-1h2v-1z" fill="rgb(238,213,131)"/>
<path d="M32 59h5v1h-5v-1z" fill="rgb(205,164,98)"/>
<path d="M38 59h1v1h-1v-1z" fill="rgb(255,255,255)"/>
<path d="M40 59h1v1h-1v-1z" fill="rgb(222,222,213)"/>
<path d="M41 59h1v1h-1v-1z" fill="rgb(255,255,255)"/>
<path d="M43 59h1v2h-1v1h-2v-1h1v-1h1v-1z" fill="rgb(205,164,98)"/>
<path d="M44 59h1v2h-1v-2z" fill="rgb(24,24,24)"/>
<path d="M45 59h1v1h-1v-1z" fill="rgb(230,106,123)"/>
<path d="M59 59h1v1h-1v-1z" fill="rgb(222,222,213)"/>
<path d="M60 59h1v1h-1v-1z" fill="rgb(24,24,24)"/>
<path d="M63 59h1v1h-1v-1z" fill="rgb(24,24,24)"/>
<path d="M25 60h1v2h-1v-2z" fill="rgb(123,49,49)"/>
<path d="M26 60h1v1h1v2h-1v1h-1v-1h-1v-1h1v-2z" fill="rgb(255,189,172)"/>
<path d="M27 60h2v1h-2v-1z" fill="rgb(131,90,32)"/>
<path d="M40 60h1v1h-1v-1z" fill="rgb(255,255,255)"/>
<path d="M41 60h1v1h-1v-1z" fill="rgb(24,24,24)"/>
<path d="M47 60h2v1h1v3h-1v1h-2v-1h-1v-3h1v-1z" fill="rgb(255,189,172)"/>
<path d="M59 60h1v6h-1v-6z" fill="rgb(24,24,24)"/>
<path d="M60 60h2v1h2v1h1v2h-1v1h-1v1h-2v1h-2v-1h1v-6z" fill="rgb(230,106,123)"/>
<path d="M71 60h1v3h-1v2h-1v2h-1v1h-2v-1h1v-2h1v-1h1v-2h1v-2z" fill="rgb(82,82,90)"/>
<path d="M28 61h1v2h-1v-2z" fill="rgb(24,24,24)"/>
<path d="M29 61h1v1h-1v-1z" fill="rgb(205,164,98)"/>
<path d="M43 61h1v6h-1v-6z" fill="rgb(24,24,24)"/>
<path d="M24 62h1v2h-1v-2z" fill="rgb(123,49,49)"/>
<path d="M29 62h1v1h-1v-1z" fill="rgb(131,90,32)"/>
<path d="M30 62h2v1h-2v-1z" fill="rgb(205,164,98)"/>
<path d="M39 62h2v1h-2v-1z" fill="rgb(205,164,98)"/>
<path d="M41 62h2v1h-2v-1z" fill="rgb(131,90,32)"/>
<path d="M25 63h1v1h1v-1h2v3h-1v1h-1v1h-3v-4h1v-1z" fill="rgb(255,148,148)"/>
<path d="M29 63h1v2h-1v-2z" fill="rgb(24,24,24)"/>
<path d="M30 63h2v1h6v1h-2v1h-4v-1h-1v-1h-1v-1z" fill="rgb(238,213,131)"/>
<path d="M32 63h6v1h-6v-1z" fill="rgb(205,164,98)"/>
<path d="M38 63h3v1h-3v-1z" fill="rgb(131,90,32)"/>
<path d="M41 63h2v3h-2v1h-6v-1h1v-1h2v-1h3v-1z" fill="rgb(205,164,98)"/>
<path d="M71 63h1v2h-1v-2z" fill="rgb(24,24,24)"/>
<path d="M23 64h1v4h-1v-4z" fill="rgb(24,24,24)"/>
<path d="M30 64h1v1h-1v-1z" fill="rgb(205,164,98)"/>
<path d="M66 64h1v1h-1v-1z" fill="rgb(24,24,24)"/>
<path d="M67 64h1v1h-1v-1z" fill="rgb(82,82,90)"/>
<path d="M29 65h1v1h1v1h1v1h1v1h2v1h2v1h-1v1h-1v1h1v-1h1v1h1v2h-2v1h-3v1h-3v-1h-1v-1h2
	v-1h1v-1h-2v-1h-2v-1h-2v-1h-1v-2h2v-1h1v-1h1v-1z" fill="rgb(230,106,123)"/>
<path d="M30 65h1v1h-1v-1z" fill="rgb(24,24,24)"/>
<path d="M31 65h1v1h-1v-1z" fill="rgb(131,90,32)"/>
<path d="M63 65h1v1h-1v-1z" fill="rgb(123,49,49)"/>
<path d="M64 65h2v1h-2v-1z" fill="rgb(24,24,24)"/>
<path d="M66 65h1v1h-1v-1z" fill="rgb(139,148,148)"/>
<path d="M67 65h1v2h-1v-2z" fill="rgb(24,24,24)"/>
<path d="M70 65h1v2h-1v-2z" fill="rgb(24,24,24)"/>
<path d="M31 66h1v1h-1v-1z" fill="rgb(24,24,24)"/>
<path d="M32 66h3v1h-3v-1z" fill="rgb(131,90,32)"/>
<path d="M41 66h2v1h-2v-1z" fill="rgb(131,90,32)"/>
<path d="M58 66h1v1h3v1h-3v1h-1v-3z" fill="rgb(24,24,24)"/>
<path d="M61 66h1v1h-1v-1z" fill="rgb(123,49,49)"/>
<path d="M62 66h2v1h-2v-1z" fill="rgb(24,24,24)"/>
<path d="M64 66h2v2h-1v1h-2v1h-5v-1h1v-1h3v-1h2v-1z" fill="rgb(139,148,148)"/>
<path d="M66 66h1v1h-1v-1z" fill="rgb(82,82,90)"/>
<path d="M32 67h1v1h-1v-1z" fill="rgb(24,24,24)"/>
<path d="M33 67h2v1h-2v-1z" fill="rgb(205,164,98)"/>
<path d="M35 67h6v1h-6v-1z" fill="rgb(131,90,32)"/>
<path d="M41 67h3v2h1v1h-8v-1h-2v-1h6v-1z" fill="rgb(205,164,98)"/>
<path d="M44 67h1v2h-1v-2z" fill="rgb(24,24,24)"/>
<path d="M66 67h1v1h2v1h-3v-2z" fill="rgb(24,24,24)"/>
<path d="M69 67h1v1h-1v-1z" fill="rgb(24,24,24)"/>
<path d="M24 68h1v2h-1v-2z" fill="rgb(24,24,24)"/>
<path d="M33 68h2v1h-2v-1z" fill="rgb(24,24,24)"/>
<path d="M65 68h1v1h-1v-1z" fill="rgb(82,82,90)"/>
<path d="M35 69h2v1h-2v-1z" fill="rgb(24,24,24)"/>
<path d="M45 69h1v1h-1v-1z" fill="rgb(24,24,24)"/>
<path d="M57 69h1v1h-1v-1z" fill="rgb(24,24,24)"/>
<path d="M63 69h2v1h-2v-1z" fill="rgb(82,82,90)"/>
<path d="M65 69h1v1h-1v-1z" fill="rgb(24,24,24)"/>
<path d="M25 70h1v1h-1v-1z" fill="rgb(24,24,24)"/>
<path d="M37 70h4v1h-3v2h-1v-3z" fill="rgb(24,24,24)"/>
<path d="M41 70h4v1h-4v-1z" fill="rgb(131,90,32)"/>
<path d="M45 70h1v1h-1v-1z" fill="rgb(205,164,98)"/>
<path d="M46 70h1v2h-6v-1h5v-1z" fill="rgb(24,24,24)"/>
<path d="M56 70h1v1h-1v-1z" fill="rgb(24,24,24)"/>
<path d="M57 70h6v1h-2v1h-5v-1h1v-1z" fill="rgb(82,82,90)"/>
<path d="M63 70h2v1h-2v-1z" fill="rgb(24,24,24)"/>
<path d="M26 71h2v1h-2v-1z" fill="rgb(24,24,24)"/>
<path d="M36 71h1v1h-1v-1z" fill="rgb(123,49,49)"/>
<path d="M54 71h1v1h-1v-1z" fill="rgb(123,49,49)"/>
<path d="M55 71h1v1h-1v-1z" fill="rgb(24,24,24)"/>
<path d="M61 71h2v1h-2v-1z" fill="rgb(24,24,24)"/>
<path d="M28 72h1v1h-1v-1z" fill="rgb(24,24,24)"/>
<path d="M29 72h1v1h-1v-1z" fill="rgb(123,49,49)"/>
<path d="M35 72h1v1h-1v-1z" fill="rgb(123,49,49)"/>
<path d="M47 72h1v2h-1v-2z" fill="rgb(24,24,24)"/>
<path d="M48 72h1v1h-1v-1z" fill="rgb(123,49,49)"/>
<path d="M51 72h3v1h-3v-1z" fill="rgb(123,49,49)"/>
<path d="M54 72h2v2h1v2h-1v-1h-1v-1h-1v-2z" fill="rgb(230,106,123)"/>
<path d="M56 72h5v1h-4v1h-1v-2z" fill="rgb(24,24,24)"/>
<path d="M26 73h2v1h-2v-1z" fill="rgb(24,24,24)"/>
<path d="M28 73h2v1h1v1h-2v-1h-1v-1z" fill="rgb(255,148,148)"/>
<path d="M30 73h2v1h-2v-1z" fill="rgb(123,49,49)"/>
<path d="M38 73h1v2h-1v-2z" fill="rgb(24,24,24)"/>
<path d="M48 73h1v1h-1v-1z" fill="rgb(230,106,123)"/>
<path d="M49 73h5v1h1v1h-2v1h-2v-1h-3v-1h1v-1z" fill="rgb(255,148,148)"/>
<path d="M25 74h1v1h-1v-1z" fill="rgb(24,24,24)"/>
<path d="M26 74h1v1h-1v-1z" fill="rgb(222,222,213)"/>
<path d="M27 74h2v2h-1v-1h-1v-1z" fill="rgb(123,49,49)"/>
<path d="M46 74h1v4h-1v-4z" fill="rgb(24,24,24)"/>
<path d="M47 74h1v2h-1v-2z" fill="rgb(230,106,123)"/>
<path d="M57 74h1v4h-1v-4z" fill="rgb(24,24,24)"/>
<path d="M24 75h1v1h1v1h7v1h-8v-1h-1v-2z" fill="rgb(24,24,24)"/>
<path d="M25 75h1v1h-1v-1z" fill="rgb(222,222,213)"/>
<path d="M26 75h1v1h-1v-1z" fill="rgb(123,49,49)"/>
<path d="M27 75h1v1h1v1h-3v-1h1v-1z" fill="rgb(255,255,255)"/>
<path d="M36 75h2v1h-2v-1z" fill="rgb(24,24,24)"/>
<path d="M48 75h2v1h-2v-1z" fill="rgb(123,49,49)"/>
<path d="M50 75h1v1h-1v-1z" fill="rgb(230,106,123)"/>
<path d="M53 75h1v1h-1v-1z" fill="rgb(230,106,123)"/>
<path d="M54 75h2v1h-2v-1z" fill="rgb(123,49,49)"/>
<path d="M29 76h1v1h-1v-1z" fill="rgb(123,49,49)"/>
<path d="M33 76h3v1h-3v-1z" fill="rgb(24,24,24)"/>
<path d="M47 76h1v1h-1v-1z" fill="rgb(123,49,49)"/>
<path d="M48 76h2v3h-2v-3z" fill="rgb(255,255,255)"/>
<path d="M50 76h1v1h-1v-1z" fill="rgb(123,49,49)"/>
<path d="M51 76h2v1h-2v-1z" fill="rgb(230,106,123)"/>
<path d="M53 76h1v1h-1v-1z" fill="rgb(123,49,49)"/>
<path d="M54 76h2v3h-2v-3z" fill="rgb(255,255,255)"/>
<path d="M56 76h1v1h-1v-1z" fill="rgb(123,49,49)"/>
<path d="M47 77h1v1h-1v-1z" fill="rgb(222,222,213)"/>
<path d="M50 77h1v1h-1v-1z" fill="rgb(222,222,213)"/>
<path d="M51 77h2v1h-2v-1z" fill="rgb(123,49,49)"/>
<path d="M53 77h1v1h-1v-1z" fill="rgb(222,222,213)"/>
<path d="M56 77h1v1h-1v-1z" fill="rgb(222,222,213)"/>
<path d="M47 78h1v1h-1v-1z" fill="rgb(24,24,24)"/>
<path d="M50 78h4v1h-4v-1z" fill="rgb(24,24,24)"/>
<path d="M56 78h1v1h-1v-1z" fill="rgb(24,24,24)"/>
<path d="M48 79h2v1h-2v-1z" fill="rgb(24,24,24)"/>
<path d="M54 79h2v1h-2v-1z" fill="rgb(24,24,24)"/>
</svg>
