<?xml version="1.0" encoding="utf-8"?>
<!-- generated at drububu.com  -->
<!DOCTYPE svg PUBLIC "-//W3C//DTD SVG 1.1//EN" "http://www.w3.org/Graphics/SVG/1.1/DTD/svg11.dtd">
<svg version="1.1" preserveAspectRatio="xMinYMin meet" xmlns="http://www.w3.org/2000/svg" xmlns:xlink="http://www.w3.org/1999/xlink" x="0px" y="0px" width="96px" height="96px" viewBox="0 0 96 96">
<path d="M0 0h96v96h-96v-96z" fill="transparent"/>
<path d="M42 36h3v1h-3v-1z" fill="rgb(139,139,139)"/>
<path d="M40 37h1v1h-1v-1z" fill="rgb(180,180,180)"/>
<path d="M41 37h1v1h-1v-1z" fill="rgb(139,139,139)"/>
<path d="M42 37h2v1h-2v-1z" fill="rgb(213,213,213)"/>
<path d="M44 37h1v1h-1v-1z" fill="rgb(180,180,180)"/>
<path d="M45 37h1v1h-1v-1z" fill="rgb(82,74,74)"/>
<path d="M60 37h2v1h-2v-1z" fill="rgb(57,49,49)"/>
<path d="M39 38h1v1h1v1h-2v-2z" fill="rgb(180,180,180)"/>
<path d="M40 38h1v1h-1v-1z" fill="rgb(255,255,255)"/>
<path d="M41 38h1v1h-1v-1z" fill="rgb(213,213,213)"/>
<path d="M42 38h2v1h-1v1h-2v-1h1v-1z" fill="rgb(82,74,74)"/>
<path d="M44 38h1v1h-1v-1z" fill="rgb(139,139,139)"/>
<path d="M45 38h1v1h-1v-1z" fill="rgb(16,16,16)"/>
<path d="M58 38h2v1h-2v-1z" fill="rgb(57,49,49)"/>
<path d="M60 38h2v2h-1v1h-1v-1h-1v-1h1v-1z" fill="rgb(41,131,172)"/>
<path d="M62 38h1v1h-1v-1z" fill="rgb(57,49,49)"/>
<path d="M38 39h1v1h-1v-1z" fill="rgb(139,139,139)"/>
<path d="M43 39h2v1h-1v1h-2v1h-3v-1h2v-1h2v-1z" fill="rgb(16,16,16)"/>
<path d="M56 39h2v1h-2v-1z" fill="rgb(57,49,49)"/>
<path d="M58 39h1v2h-2v1h-1v2h1v1h2v-1h2v-1h1v2h-2v1h-2v1h-1v-1h-2v-1h-1v-3h1v-1h1v-1h2
	v-1z" fill="rgb(82,74,74)"/>
<path d="M62 39h1v1h-1v-1z" fill="rgb(16,16,16)"/>
<path d="M38 40h1v1h-1v-1z" fill="rgb(82,74,74)"/>
<path d="M39 40h2v1h-2v-1z" fill="rgb(139,139,139)"/>
<path d="M44 40h3v1h-3v-1z" fill="rgb(82,74,74)"/>
<path d="M47 40h3v1h-3v-1z" fill="rgb(16,16,16)"/>
<path d="M55 40h1v1h-1v-1z" fill="rgb(57,49,49)"/>
<path d="M59 40h1v1h-1v-1z" fill="rgb(57,49,49)"/>
<path d="M61 40h1v1h-1v-1z" fill="rgb(16,16,16)"/>
<path d="M42 41h2v1h-2v-1z" fill="rgb(90,131,98)"/>
<path d="M44 41h4v1h-4v-1z" fill="rgb(139,180,164)"/>
<path d="M48 41h1v1h-1v-1z" fill="rgb(213,246,222)"/>
<path d="M49 41h1v1h1v2h1v3h-1v2h-1v1h-1v1h-2v1h-3v-1h-2v-1h-1v-1h-1v-3h1v2h1v1h1v1h5v-1
	h1v-1h1v-5h-1v-2z" fill="rgb(180,213,189)"/>
<path d="M50 41h2v1h-2v-1z" fill="rgb(16,16,16)"/>
<path d="M54 41h1v1h-1v-1z" fill="rgb(57,49,49)"/>
<path d="M57 41h2v1h-2v-1z" fill="rgb(57,49,49)"/>
<path d="M59 41h2v1h-2v-1z" fill="rgb(16,16,16)"/>
<path d="M63 41h2v1h-2v-1z" fill="rgb(57,49,49)"/>
<path d="M41 42h1v1h-1v-1z" fill="rgb(90,131,98)"/>
<path d="M42 42h1v1h-1v-1z" fill="rgb(139,180,164)"/>
<path d="M43 42h1v1h-1v-1z" fill="rgb(213,213,213)"/>
<path d="M44 42h3v1h1v1h1v3h-1v1h-1v1h-3v-1h-1v-1h-1v-3h1v-1h1v-1z" fill="rgb(255,255,255)"/>
<path d="M47 42h1v1h-1v-1z" fill="rgb(213,213,213)"/>
<path d="M48 42h1v1h-1v-1z" fill="rgb(90,131,98)"/>
<path d="M51 42h1v1h1v3h1v1h1v2h-3v1h-1v3h1v1h1v1h-1v1h-6v-2h-1v-1h-3v1h-2v-2h-1v-6h1v3
	h1v1h1v1h2v1h3v-1h2v-1h1v-1h1v-2h1v-3h-1v-2z" fill="rgb(139,180,164)"/>
<path d="M52 42h1v1h-1v-1z" fill="rgb(16,16,16)"/>
<path d="M53 42h1v3h-1v-3z" fill="rgb(57,49,49)"/>
<path d="M56 42h1v2h-1v-2z" fill="rgb(57,49,49)"/>
<path d="M57 42h2v1h-1v1h-1v-2z" fill="rgb(16,16,16)"/>
<path d="M59 42h2v1h-2v-1z" fill="transparent"/>
<path d="M61 42h2v1h-2v-1z" fill="rgb(57,49,49)"/>
<path d="M63 42h2v2h-1v1h-1v-1h-1v-1h1v-1z" fill="rgb(238,24,0)"/>
<path d="M65 42h1v1h-1v-1z" fill="rgb(57,49,49)"/>
<path d="M40 43h1v1h-1v-1z" fill="rgb(82,74,74)"/>
<path d="M41 43h1v1h-1v-1z" fill="rgb(213,246,222)"/>
<path d="M42 43h1v1h-1v-1z" fill="rgb(213,213,213)"/>
<path d="M48 43h1v1h-1v-1z" fill="rgb(213,213,213)"/>
<path d="M49 43h1v1h-1v-1z" fill="rgb(139,180,164)"/>
<path d="M58 43h1v1h-1v-1z" fill="transparent"/>
<path d="M59 43h2v1h-2v-1z" fill="rgb(57,49,49)"/>
<path d="M65 43h1v1h-1v-1z" fill="rgb(16,16,16)"/>
<path d="M39 44h1v2h-1v-2z" fill="rgb(82,74,74)"/>
<path d="M40 44h1v2h-1v-2z" fill="rgb(213,246,222)"/>
<path d="M41 44h1v2h-1v-2z" fill="rgb(139,180,164)"/>
<path d="M49 44h1v3h-1v-3z" fill="rgb(90,131,98)"/>
<path d="M57 44h2v1h-2v-1z" fill="rgb(57,49,49)"/>
<path d="M62 44h1v1h-1v-1z" fill="rgb(57,49,49)"/>
<path d="M64 44h1v1h-1v-1z" fill="rgb(16,16,16)"/>
<path d="M44 45h1v1h-1v-1z" fill="rgb(16,16,16)"/>
<path d="M53 45h1v1h-1v-1z" fill="rgb(90,131,98)"/>
<path d="M54 45h1v1h-1v-1z" fill="rgb(57,49,49)"/>
<path d="M60 45h1v1h-1v-1z" fill="rgb(57,49,49)"/>
<path d="M61 45h3v1h-2v1h-2v1h-4v2h-1v-3h4v-1h2v-1z" fill="rgb(16,16,16)"/>
<path d="M38 46h1v1h-1v-1z" fill="rgb(82,74,74)"/>
<path d="M41 46h1v1h-1v-1z" fill="rgb(90,131,98)"/>
<path d="M54 46h1v1h-1v-1z" fill="rgb(16,16,16)"/>
<path d="M55 46h2v1h-2v-1z" fill="rgb(57,49,49)"/>
<path d="M58 46h1v1h-1v-1z" fill="rgb(57,49,49)"/>
<path d="M38 47h1v2h-1v-2z" fill="rgb(57,49,49)"/>
<path d="M41 47h1v1h-1v-1z" fill="rgb(139,180,164)"/>
<path d="M42 47h1v1h-1v-1z" fill="rgb(213,213,213)"/>
<path d="M48 47h1v1h-1v-1z" fill="rgb(213,213,213)"/>
<path d="M49 47h1v1h-1v-1z" fill="rgb(139,180,164)"/>
<path d="M42 48h1v1h-1v-1z" fill="rgb(90,131,98)"/>
<path d="M43 48h1v1h-1v-1z" fill="rgb(213,213,213)"/>
<path d="M47 48h1v1h-1v-1z" fill="rgb(213,213,213)"/>
<path d="M48 48h1v1h-1v-1z" fill="rgb(90,131,98)"/>
<path d="M38 49h1v3h-1v-3z" fill="rgb(16,16,16)"/>
<path d="M43 49h1v1h-1v-1z" fill="rgb(139,180,164)"/>
<path d="M44 49h3v1h-3v-1z" fill="rgb(90,131,98)"/>
<path d="M47 49h1v1h-1v-1z" fill="rgb(139,180,164)"/>
<path d="M52 49h1v1h-1v-1z" fill="rgb(139,139,139)"/>
<path d="M53 49h2v1h-1v2h-1v-3z" fill="rgb(82,74,74)"/>
<path d="M36 50h2v1h-2v-1z" fill="rgb(57,49,49)"/>
<path d="M51 50h1v1h-1v-1z" fill="rgb(139,139,139)"/>
<path d="M52 50h1v1h-1v-1z" fill="rgb(213,213,213)"/>
<path d="M54 50h1v1h-1v-1z" fill="rgb(213,213,213)"/>
<path d="M55 50h1v3h-1v-3z" fill="rgb(82,74,74)"/>
<path d="M34 51h2v1h-2v-1z" fill="rgb(57,49,49)"/>
<path d="M36 51h2v1h-1v1h-1v1h-2v-2h2v-1z" fill="rgb(82,74,74)"/>
<path d="M51 51h1v2h-1v-2z" fill="rgb(82,74,74)"/>
<path d="M52 51h1v1h-1v-1z" fill="rgb(16,16,16)"/>
<path d="M54 51h1v1h-1v-1z" fill="rgb(16,16,16)"/>
<path d="M32 52h2v1h-2v-1z" fill="rgb(57,49,49)"/>
<path d="M37 52h2v1h-2v-1z" fill="rgb(57,49,49)"/>
<path d="M39 52h1v2h-4v-1h3v-1z" fill="rgb(16,16,16)"/>
<path d="M52 52h1v1h-1v-1z" fill="rgb(213,213,213)"/>
<path d="M53 52h1v1h-1v-1z" fill="rgb(16,16,16)"/>
<path d="M54 52h1v1h-1v-1z" fill="rgb(180,180,180)"/>
<path d="M31 53h1v2h-1v-2z" fill="rgb(57,49,49)"/>
<path d="M32 53h2v2h-2v-2z" fill="rgb(238,24,0)"/>
<path d="M42 53h1v1h-1v-1z" fill="rgb(139,139,139)"/>
<path d="M43 53h2v1h-1v2h-1v-3z" fill="rgb(82,74,74)"/>
<path d="M52 53h3v1h-3v-1z" fill="rgb(82,74,74)"/>
<path d="M34 54h2v1h-2v-1z" fill="rgb(16,16,16)"/>
<path d="M36 54h2v1h-2v-1z" fill="transparent"/>
<path d="M38 54h2v1h1v2h-3v-1h-2v-1h2v-1z" fill="rgb(57,49,49)"/>
<path d="M40 54h1v1h-1v-1z" fill="rgb(16,16,16)"/>
<path d="M41 54h1v1h-1v-1z" fill="rgb(139,139,139)"/>
<path d="M42 54h1v1h-1v-1z" fill="rgb(213,213,213)"/>
<path d="M44 54h1v1h-1v-1z" fill="rgb(213,213,213)"/>
<path d="M45 54h1v3h-1v-3z" fill="rgb(82,74,74)"/>
<path d="M53 54h1v1h-1v-1z" fill="rgb(16,16,16)"/>
<path d="M32 55h2v1h-2v-1z" fill="rgb(16,16,16)"/>
<path d="M34 55h2v1h-2v-1z" fill="transparent"/>
<path d="M41 55h1v2h-1v-2z" fill="rgb(82,74,74)"/>
<path d="M42 55h1v1h-1v-1z" fill="rgb(16,16,16)"/>
<path d="M44 55h1v1h-1v-1z" fill="rgb(16,16,16)"/>
<path d="M52 55h1v1h-1v-1z" fill="rgb(16,16,16)"/>
<path d="M34 56h2v1h-2v-1z" fill="rgb(57,49,49)"/>
<path d="M36 56h2v2h-2v-2z" fill="rgb(82,74,74)"/>
<path d="M42 56h1v1h-1v-1z" fill="rgb(213,213,213)"/>
<path d="M43 56h1v1h-1v-1z" fill="rgb(16,16,16)"/>
<path d="M44 56h1v1h-1v-1z" fill="rgb(180,180,180)"/>
<path d="M46 56h4v1h-4v-1z" fill="rgb(180,213,189)"/>
<path d="M50 56h2v1h-2v-1z" fill="rgb(16,16,16)"/>
<path d="M33 57h1v2h-1v-2z" fill="rgb(57,49,49)"/>
<path d="M34 57h2v2h-2v-2z" fill="rgb(41,131,172)"/>
<path d="M38 57h2v1h-2v-1z" fill="rgb(16,16,16)"/>
<path d="M42 57h3v1h-3v-1z" fill="rgb(82,74,74)"/>
<path d="M45 57h2v1h-2v-1z" fill="rgb(16,16,16)"/>
<path d="M47 57h3v1h-3v-1z" fill="rgb(82,74,74)"/>
<path d="M36 58h2v1h-2v-1z" fill="rgb(16,16,16)"/>
<path d="M34 59h2v1h-2v-1z" fill="rgb(16,16,16)"/>
</svg>
