<?xml version="1.0" encoding="utf-8"?>
<!-- generated at drububu.com  -->
<!DOCTYPE svg PUBLIC "-//W3C//DTD SVG 1.1//EN" "http://www.w3.org/Graphics/SVG/1.1/DTD/svg11.dtd">
<svg version="1.1" preserveAspectRatio="xMinYMin meet" xmlns="http://www.w3.org/2000/svg" xmlns:xlink="http://www.w3.org/1999/xlink" x="0px" y="0px" width="96px" height="96px" viewBox="0 0 96 96">
<path d="M0 0h96v96h-96v-96z" fill="transparent"/>
<path d="M52 20h2v1h-2v-1z" fill="rgb(57,49,49)"/>
<path d="M51 21h1v2h-1v-2z" fill="rgb(57,49,49)"/>
<path d="M52 21h1v1h-1v-1z" fill="rgb(213,213,213)"/>
<path d="M53 21h1v1h-1v-1z" fill="rgb(255,255,255)"/>
<path d="M54 21h1v1h-1v-1z" fill="rgb(57,49,49)"/>
<path d="M55 21h1v1h-1v-1z" fill="rgb(139,139,139)"/>
<path d="M32 22h1v1h-1v-1z" fill="rgb(82,74,74)"/>
<path d="M33 22h1v1h-1v-1z" fill="rgb(16,16,16)"/>
<path d="M52 22h1v1h-1v-1z" fill="rgb(139,139,139)"/>
<path d="M53 22h1v1h-1v-1z" fill="rgb(180,180,180)"/>
<path d="M54 22h1v2h-1v-2z" fill="rgb(139,139,139)"/>
<path d="M55 22h1v1h-1v-1z" fill="rgb(213,213,213)"/>
<path d="M56 22h1v1h-1v-1z" fill="rgb(139,139,139)"/>
<path d="M31 23h1v2h-1v-2z" fill="rgb(82,74,74)"/>
<path d="M32 23h2v1h1v2h-2v-1h-1v-2z" fill="rgb(238,24,0)"/>
<path d="M34 23h1v1h-1v-1z" fill="rgb(82,74,74)"/>
<path d="M35 23h1v1h-1v-1z" fill="rgb(16,16,16)"/>
<path d="M52 23h1v1h-1v-1z" fill="rgb(57,49,49)"/>
<path d="M53 23h1v1h2v1h-3v-2z" fill="rgb(82,74,74)"/>
<path d="M55 23h2v1h-2v-1z" fill="rgb(180,180,180)"/>
<path d="M57 23h1v1h-1v-1z" fill="rgb(139,139,139)"/>
<path d="M35 24h1v1h2v1h2v1h2v1h-1v1h-1v2h-1v1h-2v-1h1v-1h1v-1h-1v-1h-2v-1h-1v-3z" fill="rgb(57,49,49)"/>
<path d="M36 24h2v1h-2v-1z" fill="rgb(16,16,16)"/>
<path d="M52 24h1v1h-1v-1z" fill="rgb(16,16,16)"/>
<path d="M56 24h1v1h-1v-1z" fill="rgb(139,139,139)"/>
<path d="M57 24h1v1h-1v-1z" fill="rgb(16,16,16)"/>
<path d="M30 25h1v2h-1v-2z" fill="rgb(82,74,74)"/>
<path d="M31 25h2v1h1v2h-1v-1h-1v-1h-1v-1z" fill="rgb(255,139,74)"/>
<path d="M38 25h2v1h-2v-1z" fill="rgb(16,16,16)"/>
<path d="M45 25h6v1h-6v-1z" fill="rgb(90,131,98)"/>
<path d="M51 25h1v1h-1v-1z" fill="rgb(16,16,16)"/>
<path d="M52 25h2v1h-2v-1z" fill="rgb(139,139,139)"/>
<path d="M54 25h1v1h-1v-1z" fill="rgb(57,49,49)"/>
<path d="M55 25h2v1h-2v-1z" fill="rgb(16,16,16)"/>
<path d="M31 26h1v1h-1v-1z" fill="rgb(238,24,0)"/>
<path d="M34 26h1v1h-1v-1z" fill="rgb(82,74,74)"/>
<path d="M40 26h1v1h-1v-1z" fill="rgb(16,16,16)"/>
<path d="M43 26h2v1h-2v-1z" fill="rgb(90,131,98)"/>
<path d="M45 26h1v1h-1v-1z" fill="rgb(180,213,189)"/>
<path d="M46 26h3v1h-3v-1z" fill="rgb(213,246,222)"/>
<path d="M49 26h3v1h-3v-1z" fill="rgb(139,180,164)"/>
<path d="M52 26h2v1h-2v-1z" fill="rgb(16,16,16)"/>
<path d="M31 27h2v1h-2v-1z" fill="rgb(57,49,49)"/>
<path d="M34 27h2v1h2v1h1v1h-2v-1h-2v-1h-1v-1z" fill="rgb(139,139,139)"/>
<path d="M42 27h1v1h-1v-1z" fill="rgb(90,131,98)"/>
<path d="M43 27h1v1h-1v-1z" fill="rgb(180,213,189)"/>
<path d="M44 27h1v1h-1v-1z" fill="rgb(139,180,164)"/>
<path d="M45 27h3v1h-3v-1z" fill="rgb(90,131,98)"/>
<path d="M48 27h1v1h-1v-1z" fill="rgb(139,180,164)"/>
<path d="M49 27h2v1h1v1h1v3h1v3h-1v2h-1v1h-1v-1h-3v1h-1v1h-4v-1h-1v-1h-1v-7h1v4h1v1h1v1
	h5v-1h1v-1h1v-5h-1v-1h-1v-1z" fill="rgb(213,246,222)"/>
<path d="M51 27h1v1h-1v-1z" fill="rgb(180,213,189)"/>
<path d="M52 27h2v1h1v1h1v2h1v3h-2v1h-1v-4h-1v-3h-1v-1z" fill="rgb(139,180,164)"/>
<path d="M54 27h1v1h-1v-1z" fill="rgb(90,131,98)"/>
<path d="M29 28h2v1h-2v-1z" fill="rgb(16,16,16)"/>
<path d="M31 28h2v1h-2v-1z" fill="transparent"/>
<path d="M33 28h2v1h-2v-1z" fill="rgb(57,49,49)"/>
<path d="M41 28h1v1h-1v-1z" fill="rgb(90,131,98)"/>
<path d="M42 28h1v1h-1v-1z" fill="rgb(180,213,189)"/>
<path d="M43 28h1v1h-1v-1z" fill="rgb(139,180,164)"/>
<path d="M44 28h1v1h-1v-1z" fill="rgb(213,213,213)"/>
<path d="M45 28h3v1h1v1h1v3h-1v1h-1v1h-3v-1h-1v-1h-1v-3h1v-1h1v-1z" fill="rgb(255,255,255)"/>
<path d="M48 28h1v1h-1v-1z" fill="rgb(213,213,213)"/>
<path d="M49 28h1v1h-1v-1z" fill="rgb(90,131,98)"/>
<path d="M52 28h1v1h-1v-1z" fill="rgb(180,213,189)"/>
<path d="M55 28h1v1h-1v-1z" fill="rgb(90,131,98)"/>
<path d="M28 29h1v2h-1v-2z" fill="rgb(82,74,74)"/>
<path d="M29 29h2v1h1v2h-2v-1h-1v-2z" fill="rgb(41,131,172)"/>
<path d="M31 29h2v1h-2v-1z" fill="rgb(16,16,16)"/>
<path d="M33 29h2v1h-2v-1z" fill="transparent"/>
<path d="M35 29h2v1h-2v-1z" fill="rgb(16,16,16)"/>
<path d="M40 29h1v2h-1v-2z" fill="rgb(90,131,98)"/>
<path d="M41 29h1v1h-1v-1z" fill="rgb(180,213,189)"/>
<path d="M42 29h1v1h-1v-1z" fill="rgb(139,180,164)"/>
<path d="M43 29h1v1h-1v-1z" fill="rgb(213,213,213)"/>
<path d="M49 29h1v1h-1v-1z" fill="rgb(213,213,213)"/>
<path d="M50 29h1v1h-1v-1z" fill="rgb(139,180,164)"/>
<path d="M56 29h1v2h-1v-2z" fill="rgb(90,131,98)"/>
<path d="M32 30h1v1h2v1h2v1h-1v2h-2v-1h-1v-1h-1v-3z" fill="rgb(57,49,49)"/>
<path d="M33 30h2v1h-2v-1z" fill="rgb(16,16,16)"/>
<path d="M35 30h2v1h-2v-1z" fill="transparent"/>
<path d="M37 30h1v1h-1v-1z" fill="rgb(16,16,16)"/>
<path d="M42 30h1v3h-1v-3z" fill="rgb(90,131,98)"/>
<path d="M50 30h1v3h-1v-3z" fill="rgb(90,131,98)"/>
<path d="M27 31h1v2h-1v-2z" fill="rgb(82,74,74)"/>
<path d="M28 31h2v1h1v2h-1v-1h-1v-1h-1v-1z" fill="rgb(82,205,246)"/>
<path d="M35 31h2v1h-2v-1z" fill="rgb(16,16,16)"/>
<path d="M39 31h1v1h-1v-1z" fill="rgb(90,131,98)"/>
<path d="M40 31h1v2h-1v-2z" fill="rgb(180,213,189)"/>
<path d="M45 31h1v1h-1v-1z" fill="rgb(16,16,16)"/>
<path d="M53 31h1v1h-1v-1z" fill="rgb(180,213,189)"/>
<path d="M57 31h1v2h-1v-2z" fill="rgb(90,131,98)"/>
<path d="M28 32h1v1h-1v-1z" fill="rgb(41,131,172)"/>
<path d="M31 32h1v1h-1v-1z" fill="rgb(82,74,74)"/>
<path d="M37 32h1v1h-1v-1z" fill="rgb(139,139,139)"/>
<path d="M38 32h2v1h-2v-1z" fill="rgb(180,180,180)"/>
<path d="M28 33h2v1h-2v-1z" fill="rgb(57,49,49)"/>
<path d="M31 33h1v1h-1v-1z" fill="rgb(139,139,139)"/>
<path d="M32 33h1v1h-1v-1z" fill="rgb(82,74,74)"/>
<path d="M36 33h1v1h-1v-1z" fill="rgb(139,139,139)"/>
<path d="M37 33h1v1h-1v-1z" fill="rgb(213,213,213)"/>
<path d="M38 33h1v1h-1v-1z" fill="rgb(16,16,16)"/>
<path d="M39 33h1v1h-1v-1z" fill="rgb(255,255,255)"/>
<path d="M40 33h1v1h-1v-1z" fill="rgb(180,180,180)"/>
<path d="M42 33h1v1h-1v-1z" fill="rgb(139,180,164)"/>
<path d="M43 33h1v1h-1v-1z" fill="rgb(213,213,213)"/>
<path d="M49 33h1v1h-1v-1z" fill="rgb(213,213,213)"/>
<path d="M50 33h1v1h-1v-1z" fill="rgb(139,180,164)"/>
<path d="M57 33h2v1h-2v-1z" fill="rgb(57,49,49)"/>
<path d="M59 33h2v1h-2v-1z" fill="rgb(82,74,74)"/>
<path d="M30 34h2v1h-2v-1z" fill="rgb(82,74,74)"/>
<path d="M32 34h2v1h-2v-1z" fill="rgb(139,139,139)"/>
<path d="M36 34h1v1h-1v-1z" fill="rgb(82,74,74)"/>
<path d="M37 34h1v1h-1v-1z" fill="rgb(16,16,16)"/>
<path d="M38 34h1v1h-1v-1z" fill="rgb(82,74,74)"/>
<path d="M39 34h1v1h-1v-1z" fill="rgb(16,16,16)"/>
<path d="M40 34h1v1h-1v-1z" fill="rgb(139,139,139)"/>
<path d="M43 34h1v1h-1v-1z" fill="rgb(139,180,164)"/>
<path d="M44 34h1v1h-1v-1z" fill="rgb(213,213,213)"/>
<path d="M48 34h1v1h-1v-1z" fill="rgb(213,213,213)"/>
<path d="M49 34h1v1h-1v-1z" fill="rgb(139,180,164)"/>
<path d="M55 34h1v1h-1v-1z" fill="rgb(16,16,16)"/>
<path d="M56 34h2v1h-2v-1z" fill="rgb(82,74,74)"/>
<path d="M58 34h3v1h-3v-1z" fill="rgb(139,139,139)"/>
<path d="M61 34h3v1h-3v-1z" fill="rgb(82,74,74)"/>
<path d="M32 35h2v1h-2v-1z" fill="rgb(82,74,74)"/>
<path d="M34 35h2v1h-2v-1z" fill="rgb(139,139,139)"/>
<path d="M36 35h1v1h-1v-1z" fill="rgb(57,49,49)"/>
<path d="M37 35h1v1h-1v-1z" fill="rgb(180,180,180)"/>
<path d="M38 35h1v1h1v2h-1v-1h-2v-1h1v-1z" fill="rgb(16,16,16)"/>
<path d="M39 35h1v1h-1v-1z" fill="rgb(180,180,180)"/>
<path d="M40 35h1v1h-1v-1z" fill="rgb(82,74,74)"/>
<path d="M44 35h1v1h-1v-1z" fill="rgb(139,180,164)"/>
<path d="M45 35h3v1h-3v-1z" fill="rgb(90,131,98)"/>
<path d="M48 35h1v1h-1v-1z" fill="rgb(139,180,164)"/>
<path d="M53 35h1v1h-1v-1z" fill="rgb(180,213,189)"/>
<path d="M54 35h1v2h-1v-2z" fill="rgb(16,16,16)"/>
<path d="M55 35h4v1h3v1h3v1h-1v2h-1v-1h-2v-1h-4v1h-1v1h1v2h2v1h3v1h-1v2h-1v-1h-2v-1h-2
	v-1h-1v-1h-1v-5h1v-2z" fill="rgb(57,49,49)"/>
<path d="M59 35h2v1h-2v-1z" fill="rgb(82,74,74)"/>
<path d="M61 35h3v1h1v1h-2v-1h-2v-1z" fill="rgb(139,139,139)"/>
<path d="M64 35h2v1h-2v-1z" fill="rgb(82,74,74)"/>
<path d="M34 36h1v1h-1v-1z" fill="rgb(57,49,49)"/>
<path d="M35 36h1v1h-1v-1z" fill="rgb(16,16,16)"/>
<path d="M36 36h1v1h-1v-1z" fill="rgb(139,139,139)"/>
<path d="M40 36h1v2h-1v-2z" fill="rgb(139,180,164)"/>
<path d="M53 36h1v1h-1v-1z" fill="rgb(139,180,164)"/>
<path d="M62 36h1v1h-1v-1z" fill="rgb(82,74,74)"/>
<path d="M65 36h1v1h2v2h-1v-1h-2v-2z" fill="rgb(255,139,74)"/>
<path d="M66 36h2v1h-2v-1z" fill="rgb(82,74,74)"/>
<path d="M41 37h1v1h-1v-1z" fill="rgb(180,213,189)"/>
<path d="M48 37h1v1h-1v-1z" fill="rgb(139,139,139)"/>
<path d="M49 37h2v1h-2v-1z" fill="rgb(180,180,180)"/>
<path d="M52 37h1v1h-1v-1z" fill="rgb(180,213,189)"/>
<path d="M53 37h1v5h1v1h-3v-1h1v-5z" fill="rgb(16,16,16)"/>
<path d="M68 37h1v2h-1v-2z" fill="rgb(82,74,74)"/>
<path d="M40 38h1v2h-1v-2z" fill="rgb(16,16,16)"/>
<path d="M41 38h1v1h2v1h3v1h1v1h2v1h-5v-1h-2v-1h-1v-1h-1v-2z" fill="rgb(139,180,164)"/>
<path d="M42 38h1v1h-1v-1z" fill="rgb(180,213,189)"/>
<path d="M47 38h1v1h-1v-1z" fill="rgb(139,139,139)"/>
<path d="M48 38h1v1h-1v-1z" fill="rgb(213,213,213)"/>
<path d="M49 38h1v1h-1v-1z" fill="rgb(16,16,16)"/>
<path d="M50 38h1v1h-1v-1z" fill="rgb(255,255,255)"/>
<path d="M51 38h1v1h-1v-1z" fill="rgb(180,180,180)"/>
<path d="M52 38h1v2h-1v-2z" fill="rgb(139,180,164)"/>
<path d="M57 38h2v1h-1v1h-2v-1h1v-1z" fill="rgb(82,74,74)"/>
<path d="M59 38h2v1h-2v-1z" fill="rgb(16,16,16)"/>
<path d="M64 38h3v3h-2v-1h-1v-2z" fill="rgb(238,24,0)"/>
<path d="M32 39h3v1h-3v-1z" fill="rgb(139,180,164)"/>
<path d="M35 39h4v1h-4v-1z" fill="rgb(90,131,98)"/>
<path d="M44 39h3v1h-3v-1z" fill="rgb(180,213,189)"/>
<path d="M47 39h1v1h-1v-1z" fill="rgb(82,74,74)"/>
<path d="M48 39h1v1h-1v-1z" fill="rgb(16,16,16)"/>
<path d="M49 39h1v1h-1v-1z" fill="rgb(82,74,74)"/>
<path d="M50 39h1v1h-1v-1z" fill="rgb(16,16,16)"/>
<path d="M51 39h1v1h-1v-1z" fill="rgb(139,139,139)"/>
<path d="M58 39h1v1h-1v-1z" fill="rgb(57,49,49)"/>
<path d="M59 39h2v1h-2v-1z" fill="transparent"/>
<path d="M61 39h2v1h-2v-1z" fill="rgb(16,16,16)"/>
<path d="M67 39h1v2h-1v-2z" fill="rgb(57,49,49)"/>
<path d="M30 40h2v1h-2v-1z" fill="rgb(139,180,164)"/>
<path d="M32 40h4v1h-4v-1z" fill="rgb(180,213,189)"/>
<path d="M36 40h3v1h-3v-1z" fill="rgb(139,180,164)"/>
<path d="M39 40h2v1h-2v-1z" fill="rgb(90,131,98)"/>
<path d="M41 40h1v1h-1v-1z" fill="rgb(16,16,16)"/>
<path d="M47 40h1v1h-1v-1z" fill="rgb(57,49,49)"/>
<path d="M48 40h1v1h-1v-1z" fill="rgb(180,180,180)"/>
<path d="M49 40h1v1h1v1h-3v-1h1v-1z" fill="rgb(16,16,16)"/>
<path d="M50 40h1v1h-1v-1z" fill="rgb(180,180,180)"/>
<path d="M51 40h1v1h-1v-1z" fill="rgb(82,74,74)"/>
<path d="M52 40h1v2h-1v1h-2v-1h1v-1h1v-1z" fill="rgb(180,213,189)"/>
<path d="M57 40h2v1h2v1h1v1h-2v-1h-2v-1h-1v-1z" fill="rgb(139,139,139)"/>
<path d="M59 40h2v1h-2v-1z" fill="rgb(82,74,74)"/>
<path d="M61 40h2v1h-2v-1z" fill="transparent"/>
<path d="M63 40h1v1h-1v-1z" fill="rgb(16,16,16)"/>
<path d="M64 40h1v1h-1v-1z" fill="rgb(57,49,49)"/>
<path d="M29 41h1v1h-1v-1z" fill="rgb(139,180,164)"/>
<path d="M30 41h1v1h1v1h1v1h-1v1h-1v1h-1v-1h-1v-1h-1v-1h1v-1h1v-1z" fill="rgb(255,255,255)"/>
<path d="M31 41h5v1h-1v3h1v1h2v1h1v2h1v2h-1v-1h-2v-2h-1v-1h-1v-1h-4v-1h1v-1h1v-1h-1v-1
	h-1v-1z" fill="rgb(213,246,222)"/>
<path d="M36 41h1v1h-1v-1z" fill="rgb(139,139,139)"/>
<path d="M37 41h2v1h-2v-1z" fill="rgb(180,180,180)"/>
<path d="M39 41h2v1h1v1h1v2h1v7h-1v2h-2v-2h-1v-4h-1v-3h1v-3h-1v-1z" fill="rgb(139,180,164)"/>
<path d="M41 41h1v1h-1v-1z" fill="rgb(90,131,98)"/>
<path d="M42 41h1v1h-1v-1z" fill="rgb(16,16,16)"/>
<path d="M57 41h1v1h-1v-1z" fill="rgb(82,74,74)"/>
<path d="M61 41h2v1h-2v-1z" fill="rgb(82,74,74)"/>
<path d="M63 41h2v1h-2v-1z" fill="transparent"/>
<path d="M65 41h2v1h-2v-1z" fill="rgb(16,16,16)"/>
<path d="M28 42h1v1h-1v-1z" fill="rgb(139,180,164)"/>
<path d="M35 42h1v1h-1v-1z" fill="rgb(139,139,139)"/>
<path d="M36 42h1v1h-1v-1z" fill="rgb(213,213,213)"/>
<path d="M37 42h1v1h-1v-1z" fill="rgb(16,16,16)"/>
<path d="M38 42h1v1h-1v-1z" fill="rgb(255,255,255)"/>
<path d="M39 42h1v1h-1v-1z" fill="rgb(180,180,180)"/>
<path d="M42 42h1v1h-1v-1z" fill="rgb(90,131,98)"/>
<path d="M43 42h2v1h-2v-1z" fill="rgb(16,16,16)"/>
<path d="M59 42h1v1h-1v-1z" fill="rgb(82,74,74)"/>
<path d="M62 42h1v1h2v2h-1v-1h-2v-2z" fill="rgb(82,205,246)"/>
<path d="M63 42h2v1h-2v-1z" fill="rgb(82,74,74)"/>
<path d="M25 43h1v1h-1v-1z" fill="rgb(82,74,74)"/>
<path d="M26 43h1v1h-1v-1z" fill="rgb(57,49,49)"/>
<path d="M27 43h1v2h-1v-2z" fill="rgb(139,180,164)"/>
<path d="M35 43h1v1h-1v-1z" fill="rgb(82,74,74)"/>
<path d="M36 43h1v1h-1v-1z" fill="rgb(16,16,16)"/>
<path d="M37 43h1v1h-1v-1z" fill="rgb(82,74,74)"/>
<path d="M38 43h1v1h-1v-1z" fill="rgb(16,16,16)"/>
<path d="M39 43h1v1h-1v-1z" fill="rgb(139,139,139)"/>
<path d="M43 43h1v2h-1v-2z" fill="rgb(90,131,98)"/>
<path d="M44 43h1v1h4v1h-1v1h-1v1h-1v2h-1v-4h-1v-2z" fill="transparent"/>
<path d="M45 43h6v1h-6v-1z" fill="rgb(16,16,16)"/>
<path d="M51 43h4v1h-4v-1z" fill="rgb(139,180,164)"/>
<path d="M55 43h1v1h-1v-1z" fill="rgb(16,16,16)"/>
<path d="M65 43h1v2h-1v-2z" fill="rgb(82,74,74)"/>
<path d="M23 44h2v1h-2v-1z" fill="rgb(82,74,74)"/>
<path d="M25 44h2v1h-1v1h-2v1h-2v-1h1v-1h2v-1z" fill="rgb(139,139,139)"/>
<path d="M28 44h1v1h1v2h-1v1h-1v3h-1v-5h1v-2z" fill="rgb(213,246,222)"/>
<path d="M35 44h1v1h-1v-1z" fill="rgb(57,49,49)"/>
<path d="M36 44h1v1h-1v-1z" fill="rgb(180,180,180)"/>
<path d="M37 44h1v1h1v1h-3v-1h1v-1z" fill="rgb(16,16,16)"/>
<path d="M38 44h1v1h-1v-1z" fill="rgb(180,180,180)"/>
<path d="M39 44h1v1h-1v-1z" fill="rgb(82,74,74)"/>
<path d="M49 44h2v1h-2v-1z" fill="rgb(139,180,164)"/>
<path d="M51 44h1v1h-1v-1z" fill="rgb(180,213,189)"/>
<path d="M52 44h3v1h-1v1h-1v1h-1v1h-1v-1h-2v-1h1v-1h2v-1z" fill="rgb(213,246,222)"/>
<path d="M55 44h1v1h-1v-1z" fill="rgb(180,213,189)"/>
<path d="M56 44h2v1h-2v-1z" fill="rgb(16,16,16)"/>
<path d="M61 44h3v3h-2v-1h-1v-2z" fill="rgb(41,131,172)"/>
<path d="M22 45h1v1h-1v-1z" fill="rgb(82,74,74)"/>
<path d="M26 45h1v3h-1v-3z" fill="rgb(139,180,164)"/>
<path d="M27 45h1v1h-1v-1z" fill="rgb(180,213,189)"/>
<path d="M44 45h1v7h-1v-7z" fill="rgb(16,16,16)"/>
<path d="M48 45h1v1h-1v-1z" fill="rgb(139,180,164)"/>
<path d="M49 45h1v1h-1v-1z" fill="rgb(180,213,189)"/>
<path d="M54 45h1v1h1v1h1v1h-1v1h-1v1h-1v-1h-1v-1h-1v-1h1v-1h1v-1z" fill="rgb(255,255,255)"/>
<path d="M55 45h2v1h1v1h1v2h1v2h-1v-1h-4v-1h1v-1h1v-1h-1v-1h-1v-1z" fill="rgb(213,246,222)"/>
<path d="M57 45h1v1h-1v-1z" fill="rgb(180,213,189)"/>
<path d="M58 45h2v1h-2v-1z" fill="rgb(16,16,16)"/>
<path d="M64 45h1v2h-1v-2z" fill="rgb(57,49,49)"/>
<path d="M20 46h2v1h-2v-1z" fill="rgb(82,74,74)"/>
<path d="M24 46h1v1h-1v-1z" fill="rgb(82,74,74)"/>
<path d="M25 46h1v3h-1v1h-2v-3h2v-1z" fill="rgb(57,49,49)"/>
<path d="M30 46h1v1h-1v-1z" fill="rgb(139,180,164)"/>
<path d="M31 46h3v1h-3v-1z" fill="rgb(90,131,98)"/>
<path d="M34 46h1v1h-1v-1z" fill="rgb(139,180,164)"/>
<path d="M38 46h1v1h-1v-1z" fill="rgb(180,213,189)"/>
<path d="M47 46h1v1h-1v-1z" fill="rgb(139,180,164)"/>
<path d="M48 46h1v1h-1v-1z" fill="rgb(180,213,189)"/>
<path d="M58 46h1v1h-1v-1z" fill="rgb(180,213,189)"/>
<path d="M59 46h1v1h2v2h1v4h-1v5h-1v1h-1v1h-2v1h-4v-2h5v-1h1v-1h1v-4h-1v-5h-1v-2z" fill="rgb(139,180,164)"/>
<path d="M60 46h1v1h-1v-1z" fill="rgb(16,16,16)"/>
<path d="M61 46h1v1h-1v-1z" fill="rgb(57,49,49)"/>
<path d="M19 47h1v1h-1v-1z" fill="rgb(82,74,74)"/>
<path d="M20 47h2v1h-1v4h-2v-4h1v-1z" fill="rgb(82,205,246)"/>
<path d="M22 47h1v3h-1v1h-1v-3h1v-1z" fill="rgb(41,131,172)"/>
<path d="M29 47h1v1h-1v-1z" fill="rgb(139,180,164)"/>
<path d="M30 47h1v1h-1v-1z" fill="rgb(213,213,213)"/>
<path d="M31 47h3v1h1v1h1v1h-1v1h-2v1h-1v1h-2v-1h-1v-3h1v-1h1v-1z" fill="rgb(255,255,255)"/>
<path d="M34 47h1v1h-1v-1z" fill="rgb(213,213,213)"/>
<path d="M35 47h1v1h-1v-1z" fill="rgb(90,131,98)"/>
<path d="M46 47h1v2h-1v-2z" fill="rgb(139,180,164)"/>
<path d="M47 47h1v1h-1v-1z" fill="rgb(180,213,189)"/>
<path d="M48 47h1v1h-1v-1z" fill="rgb(139,139,139)"/>
<path d="M49 47h2v1h-2v-1z" fill="rgb(180,180,180)"/>
<path d="M62 47h2v1h-2v-1z" fill="rgb(16,16,16)"/>
<path d="M18 48h1v4h-1v-4z" fill="rgb(82,74,74)"/>
<path d="M26 48h1v4h-1v-4z" fill="rgb(90,131,98)"/>
<path d="M28 48h1v1h-1v-1z" fill="rgb(139,180,164)"/>
<path d="M29 48h1v1h-1v-1z" fill="rgb(213,213,213)"/>
<path d="M35 48h1v1h-1v-1z" fill="rgb(213,213,213)"/>
<path d="M36 48h1v1h-1v-1z" fill="rgb(139,180,164)"/>
<path d="M39 48h1v1h-1v-1z" fill="rgb(180,213,189)"/>
<path d="M47 48h1v1h-1v-1z" fill="rgb(139,139,139)"/>
<path d="M48 48h1v1h-1v-1z" fill="rgb(213,213,213)"/>
<path d="M49 48h1v1h-1v-1z" fill="rgb(16,16,16)"/>
<path d="M50 48h1v1h-1v-1z" fill="rgb(255,255,255)"/>
<path d="M51 48h1v1h-1v-1z" fill="rgb(180,180,180)"/>
<path d="M52 48h1v1h-1v-1z" fill="rgb(213,246,222)"/>
<path d="M59 48h1v1h-1v-1z" fill="rgb(180,213,189)"/>
<path d="M62 48h1v1h-1v-1z" fill="rgb(90,131,98)"/>
<path d="M25 49h1v1h-1v-1z" fill="rgb(16,16,16)"/>
<path d="M28 49h1v4h-1v1h-1v-2h1v-3z" fill="rgb(90,131,98)"/>
<path d="M36 49h1v1h-1v-1z" fill="rgb(90,131,98)"/>
<path d="M45 49h1v3h-1v-3z" fill="rgb(139,180,164)"/>
<path d="M46 49h1v2h1v1h1v1h2v1h1v3h1v1h-2v-1h-3v-1h-1v-1h-1v-6z" fill="rgb(213,246,222)"/>
<path d="M47 49h1v1h-1v-1z" fill="rgb(82,74,74)"/>
<path d="M48 49h1v1h-1v-1z" fill="rgb(16,16,16)"/>
<path d="M49 49h1v1h-1v-1z" fill="rgb(82,74,74)"/>
<path d="M50 49h1v1h-1v-1z" fill="rgb(16,16,16)"/>
<path d="M51 49h1v1h-1v-1z" fill="rgb(139,139,139)"/>
<path d="M52 49h1v1h1v1h-1v1h-1v2h-1v-1h-2v-1h2v-1h1v-2z" fill="rgb(180,213,189)"/>
<path d="M53 49h1v1h-1v-1z" fill="rgb(213,246,222)"/>
<path d="M63 49h1v2h-1v-2z" fill="rgb(90,131,98)"/>
<path d="M22 50h1v1h-1v-1z" fill="rgb(57,49,49)"/>
<path d="M23 50h2v1h-2v-1z" fill="rgb(16,16,16)"/>
<path d="M25 50h1v1h-1v-1z" fill="rgb(82,74,74)"/>
<path d="M31 50h1v1h-1v-1z" fill="rgb(16,16,16)"/>
<path d="M35 50h2v1h-2v-1z" fill="rgb(82,74,74)"/>
<path d="M37 50h2v1h-2v-1z" fill="rgb(57,49,49)"/>
<path d="M47 50h1v1h-1v-1z" fill="rgb(57,49,49)"/>
<path d="M48 50h1v1h-1v-1z" fill="rgb(180,180,180)"/>
<path d="M49 50h1v1h1v1h-3v-1h1v-1z" fill="rgb(16,16,16)"/>
<path d="M50 50h1v1h-1v-1z" fill="rgb(180,180,180)"/>
<path d="M51 50h1v1h-1v-1z" fill="rgb(82,74,74)"/>
<path d="M54 50h1v1h-1v-1z" fill="rgb(139,180,164)"/>
<path d="M55 50h3v1h-3v-1z" fill="rgb(90,131,98)"/>
<path d="M58 50h1v1h-1v-1z" fill="rgb(139,180,164)"/>
<path d="M64 50h1v1h-1v-1z" fill="rgb(16,16,16)"/>
<path d="M65 50h3v1h-3v-1z" fill="rgb(82,74,74)"/>
<path d="M21 51h1v1h-1v-1z" fill="rgb(82,74,74)"/>
<path d="M22 51h1v1h-1v-1z" fill="rgb(16,16,16)"/>
<path d="M23 51h1v1h-1v-1z" fill="transparent"/>
<path d="M24 51h1v1h-1v-1z" fill="rgb(82,74,74)"/>
<path d="M25 51h1v2h-1v1h-2v-1h1v-1h1v-1z" fill="rgb(139,139,139)"/>
<path d="M27 51h1v1h-1v-1z" fill="rgb(180,213,189)"/>
<path d="M33 51h2v1h-2v-1z" fill="rgb(82,74,74)"/>
<path d="M35 51h3v1h-2v1h-2v1h-2v-1h1v-1h2v-1z" fill="rgb(139,139,139)"/>
<path d="M38 51h1v1h-1v-1z" fill="rgb(82,74,74)"/>
<path d="M39 51h1v2h1v6h-1v2h-1v1h-1v1h-1v-1h-1v-2h2v-2h1v-3h-1v1h-1v2h-1v-2h-1v1h-1v-1
	h-1v-2h2v-1h1v-1h3v-1z" fill="rgb(57,49,49)"/>
<path d="M53 51h1v1h-1v-1z" fill="rgb(139,180,164)"/>
<path d="M54 51h1v1h-1v-1z" fill="rgb(213,213,213)"/>
<path d="M55 51h3v1h1v1h1v3h-1v1h-1v1h-3v-1h-1v-1h-1v-3h1v-1h1v-1z" fill="rgb(255,255,255)"/>
<path d="M58 51h1v1h-1v-1z" fill="rgb(213,213,213)"/>
<path d="M59 51h1v1h-1v-1z" fill="rgb(90,131,98)"/>
<path d="M63 51h1v2h-1v-2z" fill="rgb(16,16,16)"/>
<path d="M64 51h1v1h-1v-1z" fill="rgb(82,74,74)"/>
<path d="M65 51h3v1h2v1h-3v-1h-2v-1z" fill="rgb(139,139,139)"/>
<path d="M68 51h2v1h-2v-1z" fill="rgb(82,74,74)"/>
<path d="M19 52h2v1h-2v-1z" fill="rgb(16,16,16)"/>
<path d="M21 52h2v1h-2v-1z" fill="transparent"/>
<path d="M23 52h1v1h-1v-1z" fill="rgb(82,74,74)"/>
<path d="M26 52h1v1h-1v-1z" fill="rgb(82,74,74)"/>
<path d="M29 52h1v1h-1v-1z" fill="rgb(213,213,213)"/>
<path d="M32 52h1v1h-1v-1z" fill="rgb(82,74,74)"/>
<path d="M40 52h1v1h-1v-1z" fill="rgb(16,16,16)"/>
<path d="M43 52h1v2h-1v-2z" fill="rgb(16,16,16)"/>
<path d="M45 52h1v4h-1v-4z" fill="rgb(90,131,98)"/>
<path d="M52 52h1v1h-1v-1z" fill="rgb(139,180,164)"/>
<path d="M53 52h1v1h-1v-1z" fill="rgb(213,213,213)"/>
<path d="M59 52h1v1h-1v-1z" fill="rgb(213,213,213)"/>
<path d="M64 52h2v1h1v1h1v2h-1v-1h-1v-1h-2v1h1v1h-1v2h1v2h1v1h1v1h1v2h-2v-1h-1v-1h-1v-2
	h-1v-7h1v-1z" fill="rgb(57,49,49)"/>
<path d="M66 52h1v1h-1v-1z" fill="rgb(82,74,74)"/>
<path d="M70 52h2v1h-2v-1z" fill="rgb(82,74,74)"/>
<path d="M21 53h2v1h-2v-1z" fill="rgb(82,74,74)"/>
<path d="M25 53h1v1h-1v-1z" fill="rgb(82,74,74)"/>
<path d="M26 53h1v1h1v1h-1v1h-1v1h-2v-3h2v-1z" fill="rgb(57,49,49)"/>
<path d="M28 53h1v1h-1v-1z" fill="rgb(139,180,164)"/>
<path d="M29 53h1v1h-1v-1z" fill="rgb(90,131,98)"/>
<path d="M30 53h2v1h-2v-1z" fill="rgb(82,74,74)"/>
<path d="M34 53h1v1h-1v-1z" fill="rgb(82,74,74)"/>
<path d="M52 53h1v4h-1v-4z" fill="rgb(90,131,98)"/>
<path d="M60 53h1v4h-1v-4z" fill="rgb(90,131,98)"/>
<path d="M62 53h1v7h-1v-7z" fill="rgb(16,16,16)"/>
<path d="M67 53h1v1h-1v-1z" fill="rgb(82,74,74)"/>
<path d="M68 53h1v1h1v3h-1v-1h-1v-3z" fill="rgb(41,131,172)"/>
<path d="M69 53h2v1h1v4h-2v-4h-1v-1z" fill="rgb(82,205,246)"/>
<path d="M71 53h1v1h-1v-1z" fill="rgb(41,131,172)"/>
<path d="M72 53h1v3h-1v-3z" fill="rgb(82,74,74)"/>
<path d="M20 54h1v1h-1v-1z" fill="rgb(82,74,74)"/>
<path d="M21 54h2v1h-1v4h-2v-4h1v-1z" fill="rgb(255,139,74)"/>
<path d="M23 54h1v3h-1v1h-1v-3h1v-1z" fill="rgb(238,24,0)"/>
<path d="M28 54h1v1h-1v-1z" fill="rgb(90,131,98)"/>
<path d="M29 54h1v1h-1v-1z" fill="rgb(16,16,16)"/>
<path d="M30 54h2v1h-1v2h1v2h-2v-2h-1v-2h1v-1z" fill="rgb(82,205,246)"/>
<path d="M32 54h1v2h1v1h-1v1h-1v-1h-1v-2h1v-1z" fill="rgb(41,131,172)"/>
<path d="M41 54h2v1h-1v4h-1v-5z" fill="rgb(16,16,16)"/>
<path d="M64 54h2v1h-2v-1z" fill="rgb(16,16,16)"/>
<path d="M19 55h1v1h-1v-1z" fill="rgb(82,74,74)"/>
<path d="M27 55h1v1h-1v-1z" fill="rgb(16,16,16)"/>
<path d="M28 55h1v2h-1v-2z" fill="rgb(82,74,74)"/>
<path d="M38 55h1v1h-1v-1z" fill="rgb(82,74,74)"/>
<path d="M46 55h1v1h-1v-1z" fill="rgb(180,213,189)"/>
<path d="M57 55h1v1h-1v-1z" fill="rgb(16,16,16)"/>
<path d="M65 55h1v1h1v1h-2v1h-1v-2h1v-1z" fill="rgb(82,74,74)"/>
<path d="M66 55h1v1h-1v-1z" fill="rgb(16,16,16)"/>
<path d="M19 56h1v3h-1v-3z" fill="rgb(57,49,49)"/>
<path d="M26 56h1v1h-1v-1z" fill="rgb(16,16,16)"/>
<path d="M35 56h1v2h-3v-1h2v-1z" fill="rgb(16,16,16)"/>
<path d="M37 56h1v1h-1v-1z" fill="rgb(82,74,74)"/>
<path d="M38 56h1v2h-1v1h-1v1h-2v-1h1v-1h1v-1h1v-1z" fill="rgb(139,139,139)"/>
<path d="M46 56h1v2h-1v-2z" fill="rgb(90,131,98)"/>
<path d="M47 56h1v1h-1v-1z" fill="rgb(180,213,189)"/>
<path d="M53 56h1v1h-1v-1z" fill="rgb(213,213,213)"/>
<path d="M59 56h1v1h-1v-1z" fill="rgb(213,213,213)"/>
<path d="M67 56h1v1h-1v-1z" fill="rgb(16,16,16)"/>
<path d="M68 56h1v1h-1v-1z" fill="rgb(57,49,49)"/>
<path d="M72 56h1v1h-1v-1z" fill="rgb(57,49,49)"/>
<path d="M23 57h1v1h-1v-1z" fill="rgb(57,49,49)"/>
<path d="M24 57h2v1h-2v-1z" fill="rgb(16,16,16)"/>
<path d="M29 57h1v1h-1v-1z" fill="rgb(82,74,74)"/>
<path d="M47 57h4v1h-4v-1z" fill="rgb(16,16,16)"/>
<path d="M53 57h1v1h-1v-1z" fill="rgb(90,131,98)"/>
<path d="M54 57h1v1h-1v-1z" fill="rgb(213,213,213)"/>
<path d="M58 57h1v1h-1v-1z" fill="rgb(213,213,213)"/>
<path d="M59 57h1v1h-1v-1z" fill="rgb(90,131,98)"/>
<path d="M65 57h1v1h1v1h1v1h2v1h-3v-1h-1v-1h-1v-2z" fill="rgb(139,139,139)"/>
<path d="M66 57h1v1h-1v-1z" fill="rgb(16,16,16)"/>
<path d="M67 57h1v1h-1v-1z" fill="transparent"/>
<path d="M68 57h2v1h-2v-1z" fill="rgb(16,16,16)"/>
<path d="M72 57h1v1h-1v-1z" fill="rgb(16,16,16)"/>
<path d="M22 58h1v1h-1v-1z" fill="rgb(82,74,74)"/>
<path d="M23 58h1v1h-1v-1z" fill="rgb(16,16,16)"/>
<path d="M29 58h1v1h-1v-1z" fill="rgb(57,49,49)"/>
<path d="M32 58h1v1h-1v-1z" fill="rgb(16,16,16)"/>
<path d="M33 58h2v1h-2v-1z" fill="transparent"/>
<path d="M35 58h1v1h-1v-1z" fill="rgb(57,49,49)"/>
<path d="M45 58h1v1h-1v-1z" fill="rgb(57,49,49)"/>
<path d="M46 58h1v2h-1v-2z" fill="rgb(82,74,74)"/>
<path d="M47 58h1v1h-1v-1z" fill="rgb(139,139,139)"/>
<path d="M48 58h1v1h-1v-1z" fill="rgb(82,74,74)"/>
<path d="M49 58h2v1h2v2h1v4h-1v2h-1v1h-2v-2h1v-4h-3v1h-1v1h-1v1h-2v-2h1v-2h1v-1h1v-1h2
	v-1z" fill="rgb(57,49,49)"/>
<path d="M51 58h2v1h-2v-1z" fill="rgb(16,16,16)"/>
<path d="M53 58h1v1h-1v-1z" fill="rgb(213,246,222)"/>
<path d="M54 58h5v1h-5v-1z" fill="rgb(90,131,98)"/>
<path d="M61 58h1v1h-1v-1z" fill="rgb(90,131,98)"/>
<path d="M67 58h1v1h-1v-1z" fill="rgb(82,74,74)"/>
<path d="M68 58h2v1h-2v-1z" fill="transparent"/>
<path d="M70 58h2v1h-2v-1z" fill="rgb(16,16,16)"/>
<path d="M20 59h1v1h-1v-1z" fill="rgb(57,49,49)"/>
<path d="M21 59h1v1h-1v-1z" fill="rgb(16,16,16)"/>
<path d="M30 59h2v1h-2v-1z" fill="rgb(16,16,16)"/>
<path d="M32 59h1v1h-1v-1z" fill="transparent"/>
<path d="M33 59h1v1h-1v-1z" fill="rgb(82,74,74)"/>
<path d="M34 59h1v1h-1v-1z" fill="rgb(57,49,49)"/>
<path d="M37 59h1v1h-1v-1z" fill="rgb(82,74,74)"/>
<path d="M40 59h1v2h-1v-2z" fill="rgb(16,16,16)"/>
<path d="M44 59h1v1h-1v-1z" fill="rgb(57,49,49)"/>
<path d="M45 59h1v1h-1v-1z" fill="rgb(139,139,139)"/>
<path d="M53 59h1v2h-1v-2z" fill="rgb(16,16,16)"/>
<path d="M60 59h1v1h-1v-1z" fill="rgb(90,131,98)"/>
<path d="M61 59h1v1h1v1h-2v-2z" fill="transparent"/>
<path d="M65 59h1v1h-1v-1z" fill="rgb(82,74,74)"/>
<path d="M68 59h1v1h-1v-1z" fill="rgb(82,74,74)"/>
<path d="M69 59h1v1h-1v-1z" fill="rgb(57,49,49)"/>
<path d="M32 60h1v1h-1v-1z" fill="rgb(82,74,74)"/>
<path d="M33 60h2v1h-1v2h1v2h-2v-2h-1v-2h1v-1z" fill="rgb(255,139,74)"/>
<path d="M35 60h1v2h1v1h-1v1h-1v-1h-1v-2h1v-1z" fill="rgb(238,24,0)"/>
<path d="M43 60h1v2h-1v-2z" fill="rgb(57,49,49)"/>
<path d="M44 60h1v2h-1v-2z" fill="rgb(139,139,139)"/>
<path d="M45 60h1v1h-1v-1z" fill="rgb(82,74,74)"/>
<path d="M58 60h1v1h-1v-1z" fill="rgb(90,131,98)"/>
<path d="M59 60h2v1h-2v-1z" fill="rgb(16,16,16)"/>
<path d="M63 60h1v2h-1v-2z" fill="rgb(16,16,16)"/>
<path d="M66 60h1v1h-1v-1z" fill="rgb(82,74,74)"/>
<path d="M70 60h2v1h-2v-1z" fill="rgb(57,49,49)"/>
<path d="M31 61h1v2h-1v-2z" fill="rgb(57,49,49)"/>
<path d="M39 61h1v1h-1v-1z" fill="rgb(16,16,16)"/>
<path d="M54 61h5v2h-1v-1h-3v3h-1v-4z" fill="rgb(16,16,16)"/>
<path d="M59 61h1v1h-1v-1z" fill="rgb(82,74,74)"/>
<path d="M60 61h1v1h-1v-1z" fill="rgb(180,180,180)"/>
<path d="M61 61h1v1h-1v-1z" fill="rgb(82,74,74)"/>
<path d="M62 61h1v1h-1v-1z" fill="rgb(57,49,49)"/>
<path d="M67 61h1v1h-1v-1z" fill="rgb(82,74,74)"/>
<path d="M68 61h1v1h1v3h-1v-1h-1v-3z" fill="rgb(238,24,0)"/>
<path d="M69 61h2v1h1v4h-2v-4h-1v-1z" fill="rgb(255,139,74)"/>
<path d="M71 61h1v1h-1v-1z" fill="rgb(238,24,0)"/>
<path d="M72 61h1v3h-1v-3z" fill="rgb(57,49,49)"/>
<path d="M38 62h1v1h-1v-1z" fill="rgb(16,16,16)"/>
<path d="M42 62h1v2h-1v-2z" fill="rgb(57,49,49)"/>
<path d="M43 62h1v2h-1v-2z" fill="rgb(139,139,139)"/>
<path d="M44 62h1v1h-1v-1z" fill="rgb(82,74,74)"/>
<path d="M48 62h1v1h-1v-1z" fill="rgb(16,16,16)"/>
<path d="M49 62h2v1h-2v-1z" fill="rgb(82,74,74)"/>
<path d="M59 62h1v1h-1v-1z" fill="rgb(139,139,139)"/>
<path d="M60 62h1v1h-1v-1z" fill="rgb(82,74,74)"/>
<path d="M61 62h2v1h-2v-1z" fill="rgb(180,180,180)"/>
<path d="M63 62h1v2h-1v-2z" fill="rgb(57,49,49)"/>
<path d="M64 62h1v1h-1v-1z" fill="rgb(16,16,16)"/>
<path d="M32 63h1v2h-1v-2z" fill="rgb(57,49,49)"/>
<path d="M36 63h2v1h-2v-1z" fill="rgb(16,16,16)"/>
<path d="M47 63h1v1h-1v-1z" fill="rgb(16,16,16)"/>
<path d="M49 63h1v1h-1v-1z" fill="rgb(16,16,16)"/>
<path d="M50 63h1v2h-1v-2z" fill="rgb(139,139,139)"/>
<path d="M59 63h1v1h-1v-1z" fill="rgb(16,16,16)"/>
<path d="M60 63h1v2h-1v-2z" fill="rgb(180,180,180)"/>
<path d="M61 63h1v1h-1v-1z" fill="rgb(139,139,139)"/>
<path d="M62 63h1v1h-1v-1z" fill="rgb(16,16,16)"/>
<path d="M65 63h1v1h-1v-1z" fill="rgb(16,16,16)"/>
<path d="M35 64h1v1h-1v-1z" fill="rgb(16,16,16)"/>
<path d="M41 64h1v2h-1v-2z" fill="rgb(57,49,49)"/>
<path d="M42 64h1v2h-1v-2z" fill="rgb(255,139,74)"/>
<path d="M43 64h1v1h2v1h-1v2h-2v-1h-1v-1h1v-2z" fill="rgb(238,24,0)"/>
<path d="M46 64h1v2h-1v-2z" fill="rgb(16,16,16)"/>
<path d="M49 64h1v1h-1v-1z" fill="rgb(57,49,49)"/>
<path d="M59 64h1v1h-1v-1z" fill="rgb(57,49,49)"/>
<path d="M61 64h1v2h-1v-2z" fill="rgb(16,16,16)"/>
<path d="M62 64h1v1h-1v-1z" fill="rgb(139,139,139)"/>
<path d="M63 64h1v1h-1v-1z" fill="rgb(82,74,74)"/>
<path d="M66 64h2v1h-2v-1z" fill="rgb(16,16,16)"/>
<path d="M68 64h1v1h-1v-1z" fill="rgb(57,49,49)"/>
<path d="M72 64h1v2h-1v-2z" fill="rgb(16,16,16)"/>
<path d="M33 65h2v1h-2v-1z" fill="rgb(16,16,16)"/>
<path d="M48 65h1v2h-1v-2z" fill="rgb(82,74,74)"/>
<path d="M49 65h1v2h-1v-2z" fill="rgb(139,139,139)"/>
<path d="M50 65h1v1h-1v-1z" fill="rgb(82,74,74)"/>
<path d="M53 65h1v2h-1v-2z" fill="rgb(16,16,16)"/>
<path d="M60 65h1v1h-1v-1z" fill="rgb(57,49,49)"/>
<path d="M62 65h1v1h-1v-1z" fill="rgb(82,74,74)"/>
<path d="M68 65h2v1h-2v-1z" fill="rgb(16,16,16)"/>
<path d="M40 66h1v2h-1v-2z" fill="rgb(57,49,49)"/>
<path d="M41 66h1v1h1v1h1v1h-2v-1h-1v-2z" fill="rgb(255,139,74)"/>
<path d="M45 66h1v2h-1v-2z" fill="rgb(16,16,16)"/>
<path d="M70 66h2v1h-2v-1z" fill="rgb(16,16,16)"/>
<path d="M47 67h1v2h-1v-2z" fill="rgb(82,74,74)"/>
<path d="M48 67h1v2h-1v-2z" fill="rgb(82,205,246)"/>
<path d="M49 67h1v1h2v1h-1v2h-2v-1h-1v-1h1v-2z" fill="rgb(41,131,172)"/>
<path d="M52 67h1v2h-1v-2z" fill="rgb(16,16,16)"/>
<path d="M40 68h1v1h-1v-1z" fill="rgb(82,74,74)"/>
<path d="M41 68h1v1h-1v-1z" fill="rgb(57,49,49)"/>
<path d="M44 68h1v1h-1v-1z" fill="rgb(16,16,16)"/>
<path d="M42 69h2v1h-2v-1z" fill="rgb(57,49,49)"/>
<path d="M46 69h1v2h-1v-2z" fill="rgb(57,49,49)"/>
<path d="M47 69h1v1h1v1h1v1h-2v-1h-1v-2z" fill="rgb(82,205,246)"/>
<path d="M51 69h1v2h-1v-2z" fill="rgb(16,16,16)"/>
<path d="M46 71h1v1h-1v-1z" fill="rgb(82,74,74)"/>
<path d="M47 71h1v1h-1v-1z" fill="rgb(57,49,49)"/>
<path d="M50 71h1v1h-1v-1z" fill="rgb(16,16,16)"/>
<path d="M48 72h2v1h-2v-1z" fill="rgb(57,49,49)"/>
</svg>
