<?xml version="1.0" encoding="utf-8"?>
<!-- generated at drububu.com  -->
<!DOCTYPE svg PUBLIC "-//W3C//DTD SVG 1.1//EN" "http://www.w3.org/Graphics/SVG/1.1/DTD/svg11.dtd">
<svg version="1.1" preserveAspectRatio="xMinYMin meet" xmlns="http://www.w3.org/2000/svg" xmlns:xlink="http://www.w3.org/1999/xlink" x="0px" y="0px" width="96px" height="96px" viewBox="0 0 96 96">
<path d="M0 0h96v96h-96v-96z" fill="transparent"/>
<path d="M43 26h1v1h-1v-1z" fill="rgb(131,106,32)"/>
<path d="M44 26h1v1h-1v-1z" fill="rgb(90,57,0)"/>
<path d="M42 27h1v2h-1v-2z" fill="rgb(131,106,32)"/>
<path d="M43 27h2v1h1v2h-1v3h-1v1h1v1h1v1h1v2h-2v1h-1v-2h1v-1h-2v1h-1v1h-1v-1h-1v-1h2v-1
	h-1v-1h-1v-2h-1v-2h2v2h1v2h1v-7z" fill="rgb(180,148,82)"/>
<path d="M45 27h1v1h-1v-1z" fill="rgb(90,57,0)"/>
<path d="M55 27h3v1h-3v-1z" fill="rgb(16,16,16)"/>
<path d="M46 28h1v1h-1v-1z" fill="rgb(90,57,0)"/>
<path d="M54 28h1v5h-1v-3h-2v-1h2v-1z" fill="rgb(16,16,16)"/>
<path d="M55 28h3v5h-1v1h-1v-1h-1v-5z" fill="rgb(0,156,32)"/>
<path d="M58 28h1v9h-1v-9z" fill="rgb(16,16,16)"/>
<path d="M39 29h2v1h-2v-1z" fill="rgb(90,57,0)"/>
<path d="M42 29h1v2h-1v-2z" fill="rgb(90,57,0)"/>
<path d="M46 29h1v2h-1v-2z" fill="rgb(16,16,16)"/>
<path d="M30 30h2v1h-2v-1z" fill="rgb(131,106,32)"/>
<path d="M38 30h1v2h-1v-2z" fill="rgb(90,57,0)"/>
<path d="M41 30h1v1h-1v-1z" fill="rgb(16,16,16)"/>
<path d="M45 30h1v1h-1v-1z" fill="rgb(131,106,32)"/>
<path d="M51 30h1v3h-1v-3z" fill="rgb(16,16,16)"/>
<path d="M52 30h2v3h1v1h-2v-1h-1v-3z" fill="rgb(0,156,32)"/>
<path d="M29 31h1v1h-1v-1z" fill="rgb(131,106,32)"/>
<path d="M30 31h2v4h1v2h-1v1h-1v1h-1v-3h-1v-4h1v-1z" fill="rgb(230,230,164)"/>
<path d="M32 31h1v2h-1v-2z" fill="rgb(90,57,0)"/>
<path d="M41 31h1v1h-1v-1z" fill="rgb(131,106,32)"/>
<path d="M42 31h1v2h-1v-2z" fill="rgb(16,16,16)"/>
<path d="M45 31h1v1h-1v-1z" fill="rgb(90,57,0)"/>
<path d="M46 31h1v1h-1v-1z" fill="transparent"/>
<path d="M47 31h2v1h-2v-1z" fill="rgb(90,57,0)"/>
<path d="M28 32h1v3h-1v-3z" fill="rgb(131,106,32)"/>
<path d="M39 32h1v1h-1v-1z" fill="rgb(90,57,0)"/>
<path d="M45 32h1v1h-1v-1z" fill="rgb(16,16,16)"/>
<path d="M46 32h1v1h-1v-1z" fill="rgb(90,57,0)"/>
<path d="M47 32h2v2h-1v1h-1v1h-1v-1h-1v-1h1v-1h1v-1z" fill="rgb(131,106,32)"/>
<path d="M49 32h1v2h-1v-2z" fill="rgb(16,16,16)"/>
<path d="M32 33h1v2h-1v-2z" fill="rgb(180,148,82)"/>
<path d="M33 33h1v3h-1v-3z" fill="rgb(90,57,0)"/>
<path d="M39 33h1v1h-1v-1z" fill="rgb(16,16,16)"/>
<path d="M42 33h1v1h-1v-1z" fill="rgb(90,57,0)"/>
<path d="M44 33h1v1h-1v-1z" fill="rgb(131,106,32)"/>
<path d="M45 33h1v1h-1v-1z" fill="rgb(90,57,0)"/>
<path d="M52 33h1v3h-1v-3z" fill="rgb(16,16,16)"/>
<path d="M55 33h1v3h-1v-3z" fill="rgb(16,16,16)"/>
<path d="M57 33h1v6h1v3h-1v-1h-1v1h-2v-3h-1v-3h-1v-2h2v3h1v-3h1v-1z" fill="rgb(65,222,65)"/>
<path d="M40 34h1v1h-1v-1z" fill="rgb(16,16,16)"/>
<path d="M48 34h1v2h-1v-2z" fill="rgb(16,16,16)"/>
<path d="M28 35h1v2h-1v-2z" fill="rgb(90,57,0)"/>
<path d="M39 35h1v1h-1v-1z" fill="rgb(131,106,32)"/>
<path d="M40 35h1v1h-1v-1z" fill="rgb(90,57,0)"/>
<path d="M41 35h1v1h-1v-1z" fill="rgb(131,106,32)"/>
<path d="M47 35h1v1h-1v-1z" fill="rgb(90,57,0)"/>
<path d="M29 36h1v1h-1v-1z" fill="rgb(197,205,131)"/>
<path d="M33 36h1v3h-1v-3z" fill="rgb(180,148,82)"/>
<path d="M34 36h1v1h-1v-1z" fill="rgb(90,57,0)"/>
<path d="M38 36h1v1h-1v-1z" fill="rgb(131,106,32)"/>
<path d="M39 36h1v1h-1v-1z" fill="rgb(90,57,0)"/>
<path d="M43 36h1v1h-1v-1z" fill="rgb(131,106,32)"/>
<path d="M44 36h1v1h-1v-1z" fill="rgb(90,57,0)"/>
<path d="M47 36h2v1h1v2h1v5h-1v2h1v2h-1v1h-2v-1h-2v-1h1v-2h-1v-1h2v-5h-1v-3z" fill="rgb(131,106,32)"/>
<path d="M49 36h1v1h-1v-1z" fill="rgb(16,16,16)"/>
<path d="M53 36h1v1h-1v-1z" fill="rgb(0,156,32)"/>
<path d="M55 36h1v1h-1v-1z" fill="rgb(0,156,32)"/>
<path d="M66 36h1v1h-1v-1z" fill="rgb(131,106,32)"/>
<path d="M67 36h1v1h-1v-1z" fill="rgb(90,57,0)"/>
<path d="M26 37h2v1h-2v-1z" fill="rgb(131,106,32)"/>
<path d="M28 37h1v1h-1v-1z" fill="transparent"/>
<path d="M29 37h1v1h-1v-1z" fill="rgb(90,57,0)"/>
<path d="M32 37h1v2h1v3h1v2h1v1h-2v1h-1v2h1v1h4v1h-1v2h-1v3h-4v-1h-3v-2h1v-2h-2v-1h2v-2
	h2v-1h-2v-1h-1v-1h1v-2h1v1h1v-2h-1v-1h-1v-1h1v-1h1v-1z" fill="rgb(197,205,131)"/>
<path d="M34 37h1v2h-1v-2z" fill="rgb(16,16,16)"/>
<path d="M37 37h1v1h-1v-1z" fill="rgb(131,106,32)"/>
<path d="M38 37h1v2h-1v-2z" fill="rgb(180,148,82)"/>
<path d="M39 37h1v1h-1v-1z" fill="rgb(16,16,16)"/>
<path d="M40 37h1v1h-1v-1z" fill="rgb(131,106,32)"/>
<path d="M42 37h1v1h-1v-1z" fill="rgb(131,106,32)"/>
<path d="M43 37h1v1h-1v-1z" fill="rgb(16,16,16)"/>
<path d="M50 37h1v2h-1v-2z" fill="rgb(16,16,16)"/>
<path d="M53 37h1v2h-1v-2z" fill="rgb(16,16,16)"/>
<path d="M58 37h1v2h-1v-2z" fill="rgb(0,156,32)"/>
<path d="M65 37h1v1h-1v-1z" fill="rgb(131,106,32)"/>
<path d="M66 37h2v2h-2v1h-1v1h-1v1h-1v1h-2v1h-1v-2h2v-1h1v-1h1v-1h1v-1h1v-1z" fill="rgb(180,148,82)"/>
<path d="M68 37h1v1h-1v-1z" fill="rgb(90,57,0)"/>
<path d="M25 38h1v2h-1v-2z" fill="rgb(131,106,32)"/>
<path d="M26 38h2v1h1v2h1v3h-2v-1h-1v-2h-1v-3z" fill="rgb(230,230,164)"/>
<path d="M28 38h1v1h-1v-1z" fill="rgb(90,57,0)"/>
<path d="M29 38h1v1h-1v-1z" fill="rgb(16,16,16)"/>
<path d="M37 38h1v1h-1v-1z" fill="rgb(90,57,0)"/>
<path d="M39 38h1v1h-1v-1z" fill="rgb(131,106,32)"/>
<path d="M40 38h1v1h1v2h-1v-1h-1v-2z" fill="rgb(16,16,16)"/>
<path d="M41 38h1v1h-1v-1z" fill="rgb(90,57,0)"/>
<path d="M42 38h1v1h-1v-1z" fill="rgb(16,16,16)"/>
<path d="M43 38h1v1h-1v-1z" fill="rgb(90,57,0)"/>
<path d="M45 38h1v1h-1v-1z" fill="rgb(90,57,0)"/>
<path d="M46 38h1v1h-1v-1z" fill="rgb(16,16,16)"/>
<path d="M59 38h1v7h-1v-7z" fill="rgb(16,16,16)"/>
<path d="M64 38h1v1h-1v-1z" fill="rgb(131,106,32)"/>
<path d="M68 38h1v4h-1v-4z" fill="rgb(16,16,16)"/>
<path d="M29 39h1v1h-1v-1z" fill="rgb(90,57,0)"/>
<path d="M34 39h1v2h-1v-2z" fill="rgb(131,106,32)"/>
<path d="M35 39h1v2h-1v-2z" fill="rgb(16,16,16)"/>
<path d="M36 39h1v2h-1v-2z" fill="rgb(90,57,0)"/>
<path d="M37 39h1v1h-1v-1z" fill="rgb(213,213,213)"/>
<path d="M38 39h1v1h-1v-1z" fill="rgb(90,57,0)"/>
<path d="M39 39h1v1h-1v-1z" fill="rgb(180,148,82)"/>
<path d="M42 39h1v1h-1v-1z" fill="rgb(90,57,0)"/>
<path d="M43 39h1v2h-1v1h-1v-2h1v-1z" fill="rgb(180,148,82)"/>
<path d="M44 39h1v2h-1v-2z" fill="rgb(90,57,0)"/>
<path d="M45 39h1v1h-1v-1z" fill="rgb(180,148,82)"/>
<path d="M46 39h1v1h-1v-1z" fill="rgb(213,213,213)"/>
<path d="M47 39h1v1h-1v-1z" fill="rgb(180,148,82)"/>
<path d="M51 39h1v5h-1v-5z" fill="rgb(16,16,16)"/>
<path d="M54 39h1v1h-1v-1z" fill="rgb(0,156,32)"/>
<path d="M63 39h1v1h-1v-1z" fill="rgb(131,106,32)"/>
<path d="M66 39h1v1h-1v-1z" fill="rgb(222,189,115)"/>
<path d="M67 39h1v3h-1v1h-1v1h-1v1h-2v1h-3v-2h2v-1h1v-1h1v-1h2v-1h1v-1z" fill="rgb(230,230,164)"/>
<path d="M25 40h1v2h-1v-2z" fill="rgb(90,57,0)"/>
<path d="M29 40h1v1h-1v-1z" fill="rgb(131,106,32)"/>
<path d="M30 40h1v1h-1v-1z" fill="rgb(16,16,16)"/>
<path d="M37 40h1v3h-1v-3z" fill="rgb(255,255,255)"/>
<path d="M38 40h1v3h-1v-3z" fill="rgb(16,16,16)"/>
<path d="M39 40h1v2h-1v-2z" fill="rgb(131,106,32)"/>
<path d="M40 40h1v1h-1v-1z" fill="rgb(180,148,82)"/>
<path d="M45 40h1v1h-1v-1z" fill="rgb(16,16,16)"/>
<path d="M46 40h1v4h-1v-2h-1v-1h1v-1z" fill="rgb(255,255,255)"/>
<path d="M47 40h1v3h-1v-3z" fill="rgb(213,213,213)"/>
<path d="M54 40h1v2h-1v-2z" fill="rgb(16,16,16)"/>
<path d="M61 40h1v1h-1v-1z" fill="rgb(90,57,0)"/>
<path d="M62 40h1v1h-1v-1z" fill="rgb(131,106,32)"/>
<path d="M65 40h1v1h-1v-1z" fill="rgb(222,189,115)"/>
<path d="M26 41h1v1h-1v-1z" fill="rgb(197,205,131)"/>
<path d="M30 41h1v1h-1v-1z" fill="rgb(90,57,0)"/>
<path d="M31 41h1v2h-1v-2z" fill="rgb(131,106,32)"/>
<path d="M34 41h1v1h-1v-1z" fill="rgb(180,148,82)"/>
<path d="M35 41h1v2h-1v-2z" fill="rgb(131,106,32)"/>
<path d="M36 41h1v2h-1v-2z" fill="rgb(16,16,16)"/>
<path d="M40 41h2v1h-2v-1z" fill="rgb(90,57,0)"/>
<path d="M43 41h1v2h-1v-2z" fill="rgb(131,106,32)"/>
<path d="M44 41h1v1h1v2h-1v-1h-1v-2z" fill="rgb(16,16,16)"/>
<path d="M57 41h1v1h1v4h1v4h-1v1h-1v-4h-1v-3h-1v-2h1v-1z" fill="rgb(205,255,139)"/>
<path d="M60 41h1v1h-1v-1z" fill="rgb(90,57,0)"/>
<path d="M61 41h1v1h-1v-1z" fill="rgb(131,106,32)"/>
<path d="M26 42h1v1h-1v-1z" fill="rgb(90,57,0)"/>
<path d="M39 42h1v1h-1v-1z" fill="rgb(90,57,0)"/>
<path d="M40 42h2v2h-1v1h-3v-1h1v-1h1v-1z" fill="rgb(255,222,106)"/>
<path d="M42 42h1v1h-1v-1z" fill="rgb(90,57,0)"/>
<path d="M55 42h1v1h-1v-1z" fill="rgb(0,156,32)"/>
<path d="M67 42h1v1h-1v-1z" fill="rgb(90,57,0)"/>
<path d="M26 43h1v1h-1v-1z" fill="rgb(16,16,16)"/>
<path d="M27 43h1v1h-1v-1z" fill="rgb(131,106,32)"/>
<path d="M32 43h1v1h-1v-1z" fill="rgb(131,106,32)"/>
<path d="M35 43h1v1h-1v-1z" fill="rgb(180,148,82)"/>
<path d="M36 43h1v1h-1v-1z" fill="rgb(131,106,32)"/>
<path d="M37 43h1v1h-1v-1z" fill="rgb(16,16,16)"/>
<path d="M38 43h1v1h-1v-1z" fill="rgb(90,57,0)"/>
<path d="M42 43h1v1h2v1h-1v1h-3v1h-3v1h-4v-2h2v-1h5v-1h1v-1z" fill="rgb(246,180,65)"/>
<path d="M43 43h1v1h-1v-1z" fill="rgb(16,16,16)"/>
<path d="M44 43h1v1h-1v-1z" fill="rgb(90,57,0)"/>
<path d="M47 43h1v1h-1v-1z" fill="rgb(180,148,82)"/>
<path d="M55 43h1v1h-1v-1z" fill="rgb(16,16,16)"/>
<path d="M61 43h1v1h-1v-1z" fill="rgb(222,189,115)"/>
<path d="M66 43h1v1h-1v-1z" fill="rgb(197,205,131)"/>
<path d="M67 43h1v1h-1v-1z" fill="rgb(16,16,16)"/>
<path d="M25 44h2v1h-2v-1z" fill="rgb(131,106,32)"/>
<path d="M27 44h1v1h-1v-1z" fill="rgb(90,57,0)"/>
<path d="M28 44h1v1h-1v-1z" fill="rgb(131,106,32)"/>
<path d="M36 44h1v1h-1v-1z" fill="rgb(90,57,0)"/>
<path d="M37 44h1v1h-1v-1z" fill="rgb(189,115,24)"/>
<path d="M45 44h1v2h-2v-1h1v-1z" fill="rgb(90,57,0)"/>
<path d="M50 44h1v2h-1v-2z" fill="rgb(16,16,16)"/>
<path d="M54 44h2v1h-2v-1z" fill="rgb(90,57,0)"/>
<path d="M56 44h1v1h-1v-1z" fill="rgb(0,156,32)"/>
<path d="M65 44h1v1h-1v-1z" fill="rgb(197,205,131)"/>
<path d="M66 44h1v1h-1v-1z" fill="rgb(16,16,16)"/>
<path d="M24 45h1v3h-1v-3z" fill="rgb(90,57,0)"/>
<path d="M25 45h2v1h2v1h1v2h-2v-1h-2v-1h-1v-2z" fill="rgb(230,230,164)"/>
<path d="M27 45h1v1h-1v-1z" fill="rgb(197,205,131)"/>
<path d="M28 45h1v1h-1v-1z" fill="rgb(90,57,0)"/>
<path d="M29 45h1v1h-1v-1z" fill="rgb(16,16,16)"/>
<path d="M34 45h2v1h-2v-1z" fill="rgb(189,115,24)"/>
<path d="M46 45h1v2h-1v-2z" fill="rgb(16,16,16)"/>
<path d="M52 45h1v1h-1v-1z" fill="rgb(16,16,16)"/>
<path d="M53 45h1v1h-1v-1z" fill="rgb(90,57,0)"/>
<path d="M54 45h1v1h-1v-1z" fill="rgb(131,106,32)"/>
<path d="M55 45h1v1h-1v-1z" fill="rgb(180,148,82)"/>
<path d="M56 45h1v3h-1v-3z" fill="rgb(16,16,16)"/>
<path d="M59 45h1v1h-1v-1z" fill="rgb(0,156,32)"/>
<path d="M63 45h2v1h-1v1h-1v1h-1v1h-1v-3h2v-1z" fill="rgb(197,205,131)"/>
<path d="M65 45h1v1h-1v-1z" fill="rgb(16,16,16)"/>
<path d="M29 46h1v1h-1v-1z" fill="rgb(197,205,131)"/>
<path d="M30 46h1v1h-1v-1z" fill="rgb(90,57,0)"/>
<path d="M31 46h1v1h-1v-1z" fill="rgb(131,106,32)"/>
<path d="M33 46h1v1h-1v-1z" fill="rgb(189,115,24)"/>
<path d="M41 46h2v1h-2v-1z" fill="rgb(16,16,16)"/>
<path d="M43 46h1v1h-1v-1z" fill="rgb(90,57,0)"/>
<path d="M44 46h2v1h-1v1h-2v1h-5v-1h3v-1h3v-1z" fill="rgb(189,115,24)"/>
<path d="M51 46h1v1h-1v-1z" fill="rgb(16,16,16)"/>
<path d="M52 46h1v1h-1v-1z" fill="rgb(131,106,32)"/>
<path d="M53 46h2v1h-1v1h-2v1h-2v-1h1v-1h2v-1z" fill="rgb(180,148,82)"/>
<path d="M55 46h1v1h-1v-1z" fill="rgb(222,189,115)"/>
<path d="M60 46h1v2h-1v-2z" fill="rgb(16,16,16)"/>
<path d="M64 46h1v1h-1v-1z" fill="rgb(16,16,16)"/>
<path d="M25 47h1v1h-1v-1z" fill="rgb(197,205,131)"/>
<path d="M33 47h1v1h-1v-1z" fill="rgb(90,57,0)"/>
<path d="M38 47h2v1h-2v-1z" fill="rgb(16,16,16)"/>
<path d="M40 47h1v1h-1v-1z" fill="rgb(90,57,0)"/>
<path d="M45 47h1v1h-1v-1z" fill="rgb(90,57,0)"/>
<path d="M54 47h1v1h-1v-1z" fill="rgb(222,189,115)"/>
<path d="M55 47h1v2h-3v-1h2v-1z" fill="rgb(230,230,164)"/>
<path d="M57 47h1v1h-1v-1z" fill="rgb(65,222,65)"/>
<path d="M63 47h1v1h-1v-1z" fill="rgb(16,16,16)"/>
<path d="M25 48h1v1h-1v-1z" fill="rgb(90,57,0)"/>
<path d="M26 48h2v1h-2v-1z" fill="rgb(197,205,131)"/>
<path d="M34 48h2v1h-2v-1z" fill="rgb(90,57,0)"/>
<path d="M36 48h2v1h-2v-1z" fill="rgb(16,16,16)"/>
<path d="M43 48h2v1h-2v-1z" fill="rgb(90,57,0)"/>
<path d="M45 48h1v2h1v1h1v-1h2v-1h3v1h-1v1h-1v2h-1v4h-1v2h-1v1h-2v1h-4v-1h-2v-1h-1v-1h-1
	v-1h-1v-5h1v-1h1v-1h4v-1h2v-1z" fill="rgb(230,230,164)"/>
<path d="M46 48h1v1h-1v-1z" fill="rgb(222,189,115)"/>
<path d="M47 48h1v1h2v1h-4v-1h1v-1z" fill="rgb(180,148,82)"/>
<path d="M52 48h1v1h-1v-1z" fill="rgb(222,189,115)"/>
<path d="M56 48h1v4h-2v1h-2v1h-1v2h1v1h1v1h-2v-1h-2v-4h1v-2h1v-1h1v-1h3v-1z" fill="rgb(197,205,131)"/>
<path d="M57 48h1v1h-1v-1z" fill="rgb(0,156,32)"/>
<path d="M60 48h1v2h-1v-2z" fill="rgb(0,156,32)"/>
<path d="M62 48h1v1h-1v-1z" fill="rgb(16,16,16)"/>
<path d="M63 48h1v1h-1v-1z" fill="rgb(90,57,0)"/>
<path d="M26 49h1v1h-1v-1z" fill="rgb(16,16,16)"/>
<path d="M27 49h1v1h-1v-1z" fill="rgb(90,57,0)"/>
<path d="M38 49h5v1h-5v-1z" fill="rgb(16,16,16)"/>
<path d="M57 49h1v2h-1v-2z" fill="rgb(16,16,16)"/>
<path d="M61 49h1v1h-1v-1z" fill="rgb(90,57,0)"/>
<path d="M62 49h2v4h-1v1h-1v1h-2v-1h-1v-3h1v-1h2v-1z" fill="rgb(131,106,32)"/>
<path d="M64 49h1v2h-1v-2z" fill="rgb(90,57,0)"/>
<path d="M27 50h1v1h-1v-1z" fill="rgb(131,106,32)"/>
<path d="M28 50h1v1h-1v-1z" fill="rgb(90,57,0)"/>
<path d="M29 50h1v1h-1v-1z" fill="rgb(131,106,32)"/>
<path d="M37 50h1v1h-1v-1z" fill="rgb(90,57,0)"/>
<path d="M38 50h1v1h-1v-1z" fill="rgb(197,205,131)"/>
<path d="M47 50h1v1h-1v-1z" fill="rgb(222,189,115)"/>
<path d="M59 50h1v1h-1v-1z" fill="rgb(90,57,0)"/>
<path d="M26 51h1v2h-1v-2z" fill="rgb(90,57,0)"/>
<path d="M27 51h3v1h-1v1h-2v-2z" fill="rgb(230,230,164)"/>
<path d="M37 51h1v1h-1v-1z" fill="rgb(131,106,32)"/>
<path d="M57 51h2v1h-2v-1z" fill="rgb(90,57,0)"/>
<path d="M64 51h1v2h-1v-2z" fill="rgb(16,16,16)"/>
<path d="M36 52h1v2h-1v-2z" fill="rgb(131,106,32)"/>
<path d="M55 52h2v1h-2v-1z" fill="rgb(90,57,0)"/>
<path d="M57 52h2v2h1v2h-2v1h-3v-1h-1v-2h1v-1h2v-1z" fill="rgb(180,148,82)"/>
<path d="M27 53h1v1h-1v-1z" fill="rgb(16,16,16)"/>
<path d="M28 53h1v1h-1v-1z" fill="rgb(90,57,0)"/>
<path d="M53 53h1v1h-1v-1z" fill="rgb(16,16,16)"/>
<path d="M54 53h1v1h-1v-1z" fill="rgb(90,57,0)"/>
<path d="M63 53h1v1h-1v-1z" fill="rgb(16,16,16)"/>
<path d="M29 54h2v1h-2v-1z" fill="rgb(16,16,16)"/>
<path d="M31 54h1v1h-1v-1z" fill="rgb(90,57,0)"/>
<path d="M36 54h1v3h-1v-1h-1v-1h1v-1z" fill="rgb(90,57,0)"/>
<path d="M52 54h1v2h-1v-2z" fill="rgb(16,16,16)"/>
<path d="M53 54h1v2h-1v-2z" fill="rgb(131,106,32)"/>
<path d="M62 54h1v1h-1v-1z" fill="rgb(16,16,16)"/>
<path d="M63 54h1v3h-2v1h-1v-1h-1v-1h2v-1h1v-1z" fill="rgb(131,106,32)"/>
<path d="M64 54h1v2h-1v-2z" fill="rgb(90,57,0)"/>
<path d="M32 55h3v1h-3v-1z" fill="rgb(16,16,16)"/>
<path d="M60 55h1v1h-1v-1z" fill="rgb(90,57,0)"/>
<path d="M61 55h1v1h-1v-1z" fill="rgb(16,16,16)"/>
<path d="M53 56h1v1h-1v-1z" fill="rgb(16,16,16)"/>
<path d="M54 56h1v1h-1v-1z" fill="rgb(131,106,32)"/>
<path d="M58 56h1v1h-1v-1z" fill="rgb(90,57,0)"/>
<path d="M59 56h1v1h-1v-1z" fill="rgb(16,16,16)"/>
<path d="M64 56h1v1h-1v-1z" fill="rgb(16,16,16)"/>
<path d="M37 57h1v2h-1v-2z" fill="rgb(90,57,0)"/>
<path d="M49 57h1v1h2v1h1v1h2v1h-1v1h-3v1h-7v-1h-3v-1h-1v-1h2v1h4v-1h2v-1h1v-2z" fill="rgb(197,205,131)"/>
<path d="M50 57h1v1h-1v-1z" fill="rgb(131,106,32)"/>
<path d="M51 57h1v1h-1v-1z" fill="rgb(90,57,0)"/>
<path d="M54 57h2v1h-1v1h-1v-2z" fill="rgb(16,16,16)"/>
<path d="M56 57h2v1h-2v-1z" fill="rgb(90,57,0)"/>
<path d="M58 57h1v1h-1v-1z" fill="rgb(131,106,32)"/>
<path d="M59 57h2v1h-2v-1z" fill="rgb(180,148,82)"/>
<path d="M62 57h1v1h-1v-1z" fill="rgb(90,57,0)"/>
<path d="M63 57h1v2h-1v-2z" fill="rgb(16,16,16)"/>
<path d="M38 58h1v1h-1v-1z" fill="rgb(197,205,131)"/>
<path d="M52 58h2v1h-2v-1z" fill="rgb(90,57,0)"/>
<path d="M55 58h2v1h-2v-1z" fill="rgb(131,106,32)"/>
<path d="M57 58h2v1h-2v-1z" fill="rgb(180,148,82)"/>
<path d="M59 58h1v1h-1v-1z" fill="rgb(131,106,32)"/>
<path d="M60 58h1v1h-1v-1z" fill="rgb(90,57,0)"/>
<path d="M61 58h1v1h-1v-1z" fill="rgb(16,16,16)"/>
<path d="M62 58h1v1h-1v-1z" fill="rgb(131,106,32)"/>
<path d="M38 59h1v1h-1v-1z" fill="rgb(90,57,0)"/>
<path d="M39 59h1v1h-1v-1z" fill="rgb(197,205,131)"/>
<path d="M53 59h1v1h-1v-1z" fill="rgb(180,148,82)"/>
<path d="M54 59h1v1h-1v-1z" fill="rgb(131,106,32)"/>
<path d="M55 59h3v1h-1v1h-1v-1h-1v-1z" fill="rgb(16,16,16)"/>
<path d="M58 59h2v1h-2v-1z" fill="rgb(90,57,0)"/>
<path d="M60 59h2v1h-2v-1z" fill="rgb(131,106,32)"/>
<path d="M62 59h1v1h-1v-1z" fill="rgb(90,57,0)"/>
<path d="M39 60h1v1h-1v-1z" fill="rgb(90,57,0)"/>
<path d="M55 60h1v1h-1v-1z" fill="rgb(131,106,32)"/>
<path d="M57 60h3v1h-3v-1z" fill="rgb(131,106,32)"/>
<path d="M60 60h2v1h-2v-1z" fill="rgb(90,57,0)"/>
<path d="M62 60h1v1h-1v-1z" fill="rgb(16,16,16)"/>
<path d="M40 61h1v1h-1v-1z" fill="rgb(90,57,0)"/>
<path d="M54 61h2v1h-2v-1z" fill="rgb(16,16,16)"/>
<path d="M57 61h3v1h-3v-1z" fill="rgb(16,16,16)"/>
<path d="M60 61h2v1h1v5h-1v-4h-2v-2z" fill="rgb(213,213,213)"/>
<path d="M62 61h1v1h-1v-1z" fill="rgb(0,156,32)"/>
<path d="M41 62h1v1h-1v-1z" fill="rgb(16,16,16)"/>
<path d="M42 62h1v1h-1v-1z" fill="rgb(90,57,0)"/>
<path d="M43 62h1v1h-1v-1z" fill="rgb(131,106,32)"/>
<path d="M51 62h1v1h-1v-1z" fill="rgb(131,106,32)"/>
<path d="M52 62h1v1h-1v-1z" fill="rgb(90,57,0)"/>
<path d="M53 62h1v1h-1v-1z" fill="rgb(16,16,16)"/>
<path d="M59 62h1v2h-1v-2z" fill="rgb(0,156,32)"/>
<path d="M63 62h1v5h-1v-5z" fill="rgb(16,16,16)"/>
<path d="M42 63h1v1h-1v-1z" fill="rgb(16,16,16)"/>
<path d="M43 63h1v3h1v1h-1v1h-1v-1h-1v-1h-1v-1h1v-1h1v-1z" fill="rgb(189,115,24)"/>
<path d="M44 63h5v1h-4v2h-1v-3z" fill="rgb(16,16,16)"/>
<path d="M49 63h2v1h-2v-1z" fill="rgb(90,57,0)"/>
<path d="M51 63h1v4h1v1h-1v1h-2v-1h-1v-1h1v-3h1v-1z" fill="rgb(189,115,24)"/>
<path d="M52 63h1v4h-1v-4z" fill="rgb(16,16,16)"/>
<path d="M60 63h2v2h-2v1h-1v-2h1v-1z" fill="rgb(255,255,255)"/>
<path d="M39 64h2v1h-2v-1z" fill="rgb(189,115,24)"/>
<path d="M41 64h1v1h-1v-1z" fill="rgb(16,16,16)"/>
<path d="M49 64h1v3h-1v-3z" fill="rgb(16,16,16)"/>
<path d="M58 64h1v2h-1v-2z" fill="rgb(16,16,16)"/>
<path d="M36 65h3v1h-3v-1z" fill="rgb(189,115,24)"/>
<path d="M39 65h2v1h-2v-1z" fill="rgb(246,180,65)"/>
<path d="M60 65h2v2h-2v-2z" fill="rgb(222,189,115)"/>
<path d="M35 66h1v1h-1v-1z" fill="rgb(189,115,24)"/>
<path d="M36 66h3v1h-3v-1z" fill="rgb(246,180,65)"/>
<path d="M39 66h2v1h-2v-1z" fill="rgb(255,222,106)"/>
<path d="M41 66h1v1h-1v-1z" fill="rgb(246,180,65)"/>
<path d="M45 66h1v2h-2v-1h1v-1z" fill="rgb(16,16,16)"/>
<path d="M58 66h1v1h-1v-1z" fill="rgb(0,156,32)"/>
<path d="M59 66h1v1h-1v-1z" fill="rgb(213,213,213)"/>
<path d="M35 67h1v1h-1v-1z" fill="rgb(16,16,16)"/>
<path d="M36 67h1v1h-1v-1z" fill="rgb(189,115,24)"/>
<path d="M37 67h2v1h-2v-1z" fill="rgb(255,222,106)"/>
<path d="M39 67h1v1h-1v-1z" fill="rgb(246,180,65)"/>
<path d="M40 67h1v1h-1v-1z" fill="rgb(189,115,24)"/>
<path d="M41 67h1v2h-2v-1h1v-1z" fill="rgb(255,222,106)"/>
<path d="M42 67h1v1h-1v-1z" fill="rgb(246,180,65)"/>
<path d="M48 67h1v1h-1v-1z" fill="rgb(16,16,16)"/>
<path d="M53 67h1v1h-1v-1z" fill="rgb(16,16,16)"/>
<path d="M59 67h1v1h-1v-1z" fill="rgb(0,156,32)"/>
<path d="M60 67h3v1h-3v-1z" fill="rgb(16,16,16)"/>
<path d="M36 68h3v1h-3v-1z" fill="rgb(16,16,16)"/>
<path d="M39 68h1v1h-1v-1z" fill="rgb(189,115,24)"/>
<path d="M42 68h2v1h-2v-1z" fill="rgb(16,16,16)"/>
<path d="M47 68h1v1h-1v-1z" fill="rgb(189,115,24)"/>
<path d="M48 68h1v1h2v1h1v1h-1v1h-1v-1h-1v-1h-2v-1h1v-1z" fill="rgb(255,222,106)"/>
<path d="M49 68h1v1h-1v-1z" fill="rgb(246,180,65)"/>
<path d="M52 68h1v3h-1v-1h-1v-1h1v-1z" fill="rgb(246,180,65)"/>
<path d="M53 68h1v1h-1v-1z" fill="rgb(189,115,24)"/>
<path d="M54 68h1v1h-1v-1z" fill="rgb(16,16,16)"/>
<path d="M39 69h1v1h1v1h-2v-2z" fill="rgb(16,16,16)"/>
<path d="M40 69h1v1h-1v-1z" fill="rgb(246,180,65)"/>
<path d="M41 69h1v1h-1v-1z" fill="rgb(16,16,16)"/>
<path d="M46 69h1v1h-1v-1z" fill="rgb(189,115,24)"/>
<path d="M53 69h1v1h-1v-1z" fill="rgb(255,222,106)"/>
<path d="M54 69h1v1h-1v-1z" fill="rgb(246,180,65)"/>
<path d="M55 69h1v1h-1v-1z" fill="rgb(16,16,16)"/>
<path d="M45 70h1v1h-1v-1z" fill="rgb(189,115,24)"/>
<path d="M46 70h1v1h-1v-1z" fill="rgb(255,222,106)"/>
<path d="M47 70h1v1h-1v-1z" fill="rgb(246,180,65)"/>
<path d="M48 70h1v1h-1v-1z" fill="rgb(189,115,24)"/>
<path d="M53 70h1v1h-1v-1z" fill="rgb(189,115,24)"/>
<path d="M54 70h1v1h-1v-1z" fill="rgb(255,222,106)"/>
<path d="M55 70h1v1h-1v-1z" fill="rgb(246,180,65)"/>
<path d="M56 70h1v2h-5v-1h4v-1z" fill="rgb(16,16,16)"/>
<path d="M45 71h4v1h-4v-1z" fill="rgb(16,16,16)"/>
<path d="M49 71h1v1h-1v-1z" fill="rgb(246,180,65)"/>
<path d="M51 71h1v1h-1v-1z" fill="rgb(246,180,65)"/>
<path d="M49 72h1v1h-1v-1z" fill="rgb(16,16,16)"/>
<path d="M50 72h1v1h-1v-1z" fill="rgb(246,180,65)"/>
<path d="M51 72h1v1h-1v-1z" fill="rgb(16,16,16)"/>
<path d="M50 73h1v1h-1v-1z" fill="rgb(16,16,16)"/>
</svg>
