<?xml version="1.0" encoding="utf-8"?>
<!-- generated at drububu.com  -->
<!DOCTYPE svg PUBLIC "-//W3C//DTD SVG 1.1//EN" "http://www.w3.org/Graphics/SVG/1.1/DTD/svg11.dtd">
<svg version="1.1" preserveAspectRatio="xMinYMin meet" xmlns="http://www.w3.org/2000/svg" xmlns:xlink="http://www.w3.org/1999/xlink" x="0px" y="0px" width="96px" height="96px" viewBox="0 0 96 96">
<path d="M0 0h96v96h-96v-96z" fill="transparent"/>
<path d="M58 21h1v1h-1v-1z" fill="rgb(82,57,24)"/>
<path d="M56 22h2v1h-2v-1z" fill="rgb(82,57,24)"/>
<path d="M58 22h1v1h2v1h1v1h-1v2h-1v-2h-1v-1h-1v1h-1v2h1v1h1v-1h1v2h-3v-1h-1v1h-1v-1h-1
	v-1h-1v-1h1v-2h3v-1h1v-1z" fill="rgb(222,172,115)"/>
<path d="M59 22h2v1h-2v-1z" fill="rgb(148,106,90)"/>
<path d="M61 22h1v1h2v1h-3v-2z" fill="rgb(82,57,24)"/>
<path d="M54 23h1v1h-1v-1z" fill="rgb(148,106,90)"/>
<path d="M55 23h1v1h-1v-1z" fill="rgb(82,57,24)"/>
<path d="M56 23h1v1h-1v-1z" fill="rgb(189,139,82)"/>
<path d="M68 23h2v1h-2v-1z" fill="rgb(164,131,74)"/>
<path d="M53 24h1v1h-1v-1z" fill="rgb(148,106,90)"/>
<path d="M58 24h1v1h-1v-1z" fill="rgb(98,98,98)"/>
<path d="M62 24h2v1h-1v1h-2v-1h1v-1z" fill="rgb(189,139,82)"/>
<path d="M64 24h1v1h-1v-1z" fill="rgb(16,16,16)"/>
<path d="M66 24h1v1h-1v-1z" fill="rgb(98,82,16)"/>
<path d="M67 24h1v1h-1v-1z" fill="rgb(164,131,74)"/>
<path d="M68 24h2v1h2v1h-3v1h-5v1h-3v-1h2v-1h3v-1h2v-1z" fill="rgb(238,222,172)"/>
<path d="M70 24h1v1h-1v-1z" fill="rgb(164,131,74)"/>
<path d="M71 24h1v1h-1v-1z" fill="rgb(98,82,16)"/>
<path d="M53 25h1v1h-1v-1z" fill="rgb(82,57,24)"/>
<path d="M57 25h1v1h-1v-1z" fill="rgb(98,98,98)"/>
<path d="M58 25h1v1h-1v-1z" fill="rgb(255,255,255)"/>
<path d="M59 25h1v2h-1v-2z" fill="rgb(16,16,16)"/>
<path d="M63 25h3v1h-3v-1z" fill="rgb(98,82,16)"/>
<path d="M72 25h1v1h-1v-1z" fill="rgb(164,131,74)"/>
<path d="M52 26h1v1h-1v-1z" fill="rgb(148,106,90)"/>
<path d="M57 26h1v1h-1v-1z" fill="rgb(16,16,16)"/>
<path d="M58 26h1v1h-1v-1z" fill="rgb(98,98,98)"/>
<path d="M61 26h2v1h-2v-1z" fill="rgb(98,82,16)"/>
<path d="M69 26h1v2h-1v-2z" fill="rgb(98,82,16)"/>
<path d="M70 26h2v1h-2v-1z" fill="rgb(16,16,16)"/>
<path d="M72 26h1v1h-1v-1z" fill="rgb(98,82,16)"/>
<path d="M52 27h1v1h-1v-1z" fill="rgb(82,57,24)"/>
<path d="M53 27h1v1h1v1h1v-1h1v1h4v1h1v2h-2v-1h-2v1h-1v-1h-2v1h-1v1h-1v-2h-1v-1h1v-1h-1
	v-1h1v-1z" fill="rgb(189,139,82)"/>
<path d="M58 27h1v1h-1v-1z" fill="rgb(16,16,16)"/>
<path d="M60 27h1v1h-1v-1z" fill="rgb(98,82,16)"/>
<path d="M64 27h3v1h-3v-1z" fill="rgb(222,189,139)"/>
<path d="M67 27h2v1h-2v-1z" fill="rgb(16,16,16)"/>
<path d="M51 28h1v1h-1v-1z" fill="rgb(82,57,24)"/>
<path d="M60 28h1v1h-1v-1z" fill="rgb(16,16,16)"/>
<path d="M61 28h2v1h1v1h-2v-1h-1v-1z" fill="rgb(222,189,139)"/>
<path d="M63 28h2v1h-2v-1z" fill="rgb(164,131,74)"/>
<path d="M65 28h2v1h-2v-1z" fill="rgb(98,82,16)"/>
<path d="M52 29h1v1h-1v-1z" fill="rgb(148,106,90)"/>
<path d="M61 29h1v1h-1v-1z" fill="rgb(98,82,16)"/>
<path d="M64 29h1v1h-1v-1z" fill="rgb(98,82,16)"/>
<path d="M65 29h1v1h-1v-1z" fill="rgb(16,16,16)"/>
<path d="M51 30h1v1h-1v-1z" fill="rgb(82,57,24)"/>
<path d="M62 30h2v1h-2v-1z" fill="rgb(16,16,16)"/>
<path d="M64 30h2v2h-1v1h-1v1h-1v1h-2v1h-1v-1h-1v1h-2v-1h-1v1h-1v-1h-1v-3h1v-1h2v1h1v-1
	h2v1h2v-1h2v-1z" fill="rgb(148,106,90)"/>
<path d="M52 31h1v2h-1v-2z" fill="rgb(82,57,24)"/>
<path d="M66 31h1v1h-1v-1z" fill="rgb(16,16,16)"/>
<path d="M32 32h1v1h-1v-1z" fill="rgb(148,106,90)"/>
<path d="M33 32h1v1h-1v-1z" fill="rgb(82,57,24)"/>
<path d="M36 32h1v1h-1v-1z" fill="rgb(82,57,24)"/>
<path d="M65 32h1v1h-1v-1z" fill="rgb(16,16,16)"/>
<path d="M29 33h2v1h-2v-1z" fill="rgb(148,106,90)"/>
<path d="M31 33h1v1h-1v-1z" fill="rgb(189,139,82)"/>
<path d="M32 33h2v1h1v1h1v2h-2v1h-1v1h-1v-1h-1v1h-1v-1h-1v-1h-1v-1h1v-1h1v-1h2v-1z" fill="rgb(222,172,115)"/>
<path d="M34 33h1v1h-1v-1z" fill="rgb(82,57,24)"/>
<path d="M35 33h1v1h-1v-1z" fill="rgb(148,106,90)"/>
<path d="M36 33h1v2h1v1h1v3h-1v2h-1v1h-1v-1h-1v-1h-1v1h-1v2h-1v-1h-1v-1h-3v-3h-1v-1h2v1
	h1v1h1v-1h1v1h1v-1h1v-1h2v-2h-1v-1h1v-1z" fill="rgb(189,139,82)"/>
<path d="M37 33h1v2h-1v-2z" fill="rgb(82,57,24)"/>
<path d="M53 33h1v1h-1v-1z" fill="rgb(82,57,24)"/>
<path d="M64 33h1v1h-1v-1z" fill="rgb(82,57,24)"/>
<path d="M29 34h1v1h-1v-1z" fill="rgb(82,57,24)"/>
<path d="M53 34h1v1h-1v-1z" fill="rgb(16,16,16)"/>
<path d="M63 34h2v1h-2v-1z" fill="rgb(16,16,16)"/>
<path d="M28 35h1v1h-1v-1z" fill="rgb(148,106,90)"/>
<path d="M38 35h1v1h-1v-1z" fill="rgb(82,57,24)"/>
<path d="M52 35h1v1h-1v-1z" fill="rgb(16,16,16)"/>
<path d="M53 35h1v2h-1v2h-1v-3h1v-1z" fill="rgb(98,98,98)"/>
<path d="M54 35h1v2h-1v-2z" fill="rgb(16,16,16)"/>
<path d="M56 35h1v1h-1v-1z" fill="rgb(82,57,24)"/>
<path d="M59 35h1v1h-1v-1z" fill="rgb(82,57,24)"/>
<path d="M61 35h1v1h-1v-1z" fill="rgb(82,57,24)"/>
<path d="M62 35h1v1h-1v-1z" fill="rgb(16,16,16)"/>
<path d="M26 36h1v1h-1v-1z" fill="rgb(189,139,82)"/>
<path d="M27 36h1v1h-1v-1z" fill="rgb(148,106,90)"/>
<path d="M39 36h1v2h-1v-2z" fill="rgb(82,57,24)"/>
<path d="M51 36h1v3h1v7h-1v1h-1v-1h-1v-6h1v-4z" fill="rgb(16,16,16)"/>
<path d="M57 36h2v1h-2v-1z" fill="rgb(16,16,16)"/>
<path d="M60 36h1v1h-1v-1z" fill="rgb(82,57,24)"/>
<path d="M26 37h1v2h-1v-2z" fill="rgb(148,106,90)"/>
<path d="M53 37h1v2h-1v-2z" fill="rgb(16,16,16)"/>
<path d="M27 38h1v1h-1v-1z" fill="rgb(98,98,98)"/>
<path d="M39 38h1v3h-1v1h1v1h-1v2h-1v1h-2v1h-1v-1h-1v1h-2v-1h1v-2h-1v-1h2v1h1v-1h1v-1h1
	v-1h1v-2h1v-1z" fill="rgb(148,106,90)"/>
<path d="M40 38h1v1h-1v-1z" fill="rgb(82,57,24)"/>
<path d="M48 38h1v1h-1v-1z" fill="rgb(82,57,24)"/>
<path d="M50 38h1v1h-1v-1z" fill="rgb(82,57,24)"/>
<path d="M25 39h1v2h-1v-2z" fill="rgb(148,106,90)"/>
<path d="M26 39h1v1h-1v-1z" fill="rgb(255,255,255)"/>
<path d="M27 39h1v2h-1v1h-1v-2h1v-1z" fill="rgb(16,16,16)"/>
<path d="M40 39h1v2h-1v-2z" fill="rgb(16,16,16)"/>
<path d="M43 39h2v1h-2v-1z" fill="rgb(148,106,90)"/>
<path d="M46 39h2v1h-2v-1z" fill="rgb(82,57,24)"/>
<path d="M48 39h3v1h-1v5h-1v1h-2v-2h-1v-1h-1v-1h-1v-2h1v1h1v-1h2v-1z" fill="rgb(222,172,115)"/>
<path d="M53 39h1v1h-1v-1z" fill="rgb(82,57,24)"/>
<path d="M54 39h1v1h-1v-1z" fill="rgb(148,106,90)"/>
<path d="M34 40h1v1h-1v-1z" fill="rgb(98,98,98)"/>
<path d="M43 40h1v1h-1v-1z" fill="rgb(82,57,24)"/>
<path d="M45 40h1v1h-1v-1z" fill="rgb(82,57,24)"/>
<path d="M53 40h1v1h1v-1h1v1h1v1h1v1h1v1h1v3h-1v-1h-3v1h-1v2h-1v1h1v1h-2v1h-1v1h-2v1h-5
	v-1h-2v-1h-1v-1h-1v-2h1v1h3v-2h3v-2h1v-1h1v2h1v1h1v-1h1v-1h1v-1h-1v-5z" fill="rgb(189,139,82)"/>
<path d="M54 40h1v1h-1v-1z" fill="rgb(82,57,24)"/>
<path d="M56 40h1v1h-1v-1z" fill="rgb(82,57,24)"/>
<path d="M25 41h1v2h-1v-2z" fill="rgb(82,57,24)"/>
<path d="M27 41h1v1h-1v-1z" fill="rgb(189,139,82)"/>
<path d="M28 41h3v1h-3v-1z" fill="rgb(98,82,16)"/>
<path d="M33 41h1v1h-1v-1z" fill="rgb(98,98,98)"/>
<path d="M34 41h1v1h-1v-1z" fill="rgb(255,255,255)"/>
<path d="M35 41h1v2h-1v-2z" fill="rgb(16,16,16)"/>
<path d="M39 41h1v1h-1v-1z" fill="rgb(189,139,82)"/>
<path d="M40 41h1v1h-1v-1z" fill="rgb(148,106,90)"/>
<path d="M41 41h2v1h2v1h1v1h1v2h1v2h-2v-1h-1v-1h-1v-1h-1v-1h-3v1h-1v-2h3v-1h-1v-1z" fill="rgb(16,16,16)"/>
<path d="M43 41h1v1h-1v-1z" fill="rgb(148,106,90)"/>
<path d="M57 41h1v1h-1v-1z" fill="rgb(82,57,24)"/>
<path d="M26 42h2v1h-2v-1z" fill="rgb(148,106,90)"/>
<path d="M28 42h3v2h-1v1h-1v1h-1v2h-1v1h-1v1h-2v-1h1v-1h1v-2h1v-2h1v-2z" fill="rgb(238,222,172)"/>
<path d="M31 42h1v1h-1v-1z" fill="rgb(98,82,16)"/>
<path d="M33 42h1v1h-1v-1z" fill="rgb(16,16,16)"/>
<path d="M34 42h1v1h-1v-1z" fill="rgb(98,98,98)"/>
<path d="M40 42h1v1h-1v-1z" fill="rgb(82,57,24)"/>
<path d="M41 42h1v1h-1v-1z" fill="rgb(98,98,98)"/>
<path d="M58 42h1v1h-1v-1z" fill="rgb(148,106,90)"/>
<path d="M59 42h1v2h-1v-2z" fill="rgb(82,57,24)"/>
<path d="M26 43h1v1h-1v-1z" fill="rgb(82,57,24)"/>
<path d="M27 43h1v1h-1v-1z" fill="rgb(98,82,16)"/>
<path d="M31 43h1v2h-2v-1h1v-1z" fill="rgb(222,189,139)"/>
<path d="M34 43h1v1h-1v-1z" fill="rgb(16,16,16)"/>
<path d="M26 44h1v1h-1v-1z" fill="rgb(98,82,16)"/>
<path d="M32 44h1v1h-1v-1z" fill="rgb(98,82,16)"/>
<path d="M40 44h1v1h-1v-1z" fill="transparent"/>
<path d="M41 44h1v1h-1v-1z" fill="rgb(148,106,90)"/>
<path d="M42 44h1v1h1v3h1v2h-3v-1h-1v-4h1v-1z" fill="rgb(222,172,115)"/>
<path d="M60 44h1v1h-1v-1z" fill="rgb(82,57,24)"/>
<path d="M26 45h1v1h-1v-1z" fill="rgb(164,131,74)"/>
<path d="M29 45h1v1h-1v-1z" fill="rgb(222,189,139)"/>
<path d="M30 45h1v1h-1v-1z" fill="rgb(98,82,16)"/>
<path d="M31 45h2v1h-2v-1z" fill="rgb(16,16,16)"/>
<path d="M38 45h1v1h-1v-1z" fill="rgb(82,57,24)"/>
<path d="M40 45h1v2h-1v-2z" fill="rgb(82,57,24)"/>
<path d="M53 45h1v1h-1v-1z" fill="rgb(82,57,24)"/>
<path d="M60 45h1v1h-1v-1z" fill="rgb(16,16,16)"/>
<path d="M25 46h1v1h-1v-1z" fill="rgb(98,82,16)"/>
<path d="M28 46h1v1h-1v-1z" fill="rgb(222,189,139)"/>
<path d="M29 46h1v1h-1v-1z" fill="rgb(16,16,16)"/>
<path d="M30 46h1v1h-1v-1z" fill="rgb(164,131,74)"/>
<path d="M31 46h1v2h-1v2h-1v1h-1v-2h1v-2h1v-1z" fill="rgb(222,189,139)"/>
<path d="M34 46h1v1h-1v-1z" fill="rgb(82,57,24)"/>
<path d="M36 46h1v1h-1v-1z" fill="rgb(82,57,24)"/>
<path d="M37 46h1v1h-1v-1z" fill="rgb(16,16,16)"/>
<path d="M44 46h1v1h-1v-1z" fill="rgb(189,139,82)"/>
<path d="M50 46h1v1h-1v-1z" fill="rgb(148,106,90)"/>
<path d="M52 46h1v1h-1v-1z" fill="rgb(148,106,90)"/>
<path d="M56 46h3v1h1v1h1v1h-1v1h1v1h-1v2h-1v2h-1v1h-1v1h-3v1h-1v1h-3v-1h-4v-1h-2v-2h-1
	v-1h-2v-3h1v1h1v1h2v1h5v-1h2v-1h1v-1h2v1h1v-1h1v1h1v-1h1v-1h-1v-1h-1v1h-1v-1h-1
	v-2h1v-1z" fill="rgb(148,106,90)"/>
<path d="M60 46h1v1h-1v-1z" fill="rgb(82,57,24)"/>
<path d="M24 47h1v2h-1v-2z" fill="rgb(164,131,74)"/>
<path d="M25 47h1v1h-1v-1z" fill="rgb(222,189,139)"/>
<path d="M28 47h1v1h-1v-1z" fill="rgb(16,16,16)"/>
<path d="M29 47h1v2h-1v-2z" fill="rgb(164,131,74)"/>
<path d="M32 47h2v1h-2v-1z" fill="rgb(82,57,24)"/>
<path d="M35 47h1v1h-1v-1z" fill="rgb(16,16,16)"/>
<path d="M39 47h1v1h-1v-1z" fill="rgb(148,106,90)"/>
<path d="M40 47h1v1h-1v-1z" fill="rgb(189,139,82)"/>
<path d="M44 47h2v1h-2v-1z" fill="rgb(82,57,24)"/>
<path d="M51 47h1v1h-1v-1z" fill="rgb(148,106,90)"/>
<path d="M60 47h1v1h-1v-1z" fill="rgb(189,139,82)"/>
<path d="M61 47h1v2h-1v-2z" fill="rgb(82,57,24)"/>
<path d="M27 48h2v2h-1v-1h-1v-1z" fill="rgb(98,82,16)"/>
<path d="M31 48h2v1h-1v1h-1v-2z" fill="rgb(16,16,16)"/>
<path d="M40 48h1v1h-1v-1z" fill="rgb(82,57,24)"/>
<path d="M23 49h1v1h-1v-1z" fill="rgb(98,82,16)"/>
<path d="M26 49h1v1h-1v-1z" fill="rgb(16,16,16)"/>
<path d="M27 49h1v1h-1v-1z" fill="transparent"/>
<path d="M39 49h1v1h-1v-1z" fill="rgb(82,57,24)"/>
<path d="M40 49h1v2h-1v-2z" fill="rgb(148,106,90)"/>
<path d="M54 49h1v1h-1v-1z" fill="rgb(148,106,90)"/>
<path d="M55 49h1v1h-1v-1z" fill="rgb(189,139,82)"/>
<path d="M57 49h1v1h-1v-1z" fill="rgb(189,139,82)"/>
<path d="M60 49h1v1h-1v-1z" fill="rgb(82,57,24)"/>
<path d="M22 50h1v1h-1v-1z" fill="rgb(98,82,16)"/>
<path d="M23 50h1v2h-1v1h-1v-2h1v-1z" fill="rgb(238,222,172)"/>
<path d="M24 50h1v1h-1v-1z" fill="rgb(222,189,139)"/>
<path d="M25 50h1v1h-1v-1z" fill="rgb(16,16,16)"/>
<path d="M26 50h1v1h-1v-1z" fill="transparent"/>
<path d="M27 50h1v1h-1v-1z" fill="rgb(98,82,16)"/>
<path d="M28 50h1v1h-1v-1z" fill="rgb(164,131,74)"/>
<path d="M30 50h1v1h-1v-1z" fill="rgb(16,16,16)"/>
<path d="M39 50h1v1h-1v-1z" fill="rgb(16,16,16)"/>
<path d="M55 50h1v1h-1v-1z" fill="rgb(148,106,90)"/>
<path d="M56 50h1v1h-1v-1z" fill="rgb(189,139,82)"/>
<path d="M57 50h1v1h-1v-1z" fill="rgb(148,106,90)"/>
<path d="M58 50h1v1h-1v-1z" fill="rgb(189,139,82)"/>
<path d="M61 50h1v1h-1v-1z" fill="rgb(82,57,24)"/>
<path d="M21 51h1v2h-1v-2z" fill="rgb(98,82,16)"/>
<path d="M24 51h1v1h-1v-1z" fill="rgb(16,16,16)"/>
<path d="M26 51h1v2h-1v-2z" fill="rgb(98,82,16)"/>
<path d="M27 51h2v1h-2v-1z" fill="rgb(222,189,139)"/>
<path d="M29 51h1v1h-1v-1z" fill="rgb(16,16,16)"/>
<path d="M40 51h1v2h-1v-2z" fill="rgb(82,57,24)"/>
<path d="M55 51h1v1h-1v-1z" fill="rgb(189,139,82)"/>
<path d="M57 51h1v1h-1v-1z" fill="rgb(189,139,82)"/>
<path d="M60 51h1v2h-1v-2z" fill="rgb(16,16,16)"/>
<path d="M23 52h1v1h-1v-1z" fill="rgb(16,16,16)"/>
<path d="M27 52h2v1h-2v-1z" fill="rgb(16,16,16)"/>
<path d="M21 53h1v1h-1v-1z" fill="rgb(16,16,16)"/>
<path d="M22 53h1v1h-1v-1z" fill="rgb(98,82,16)"/>
<path d="M40 53h1v1h-1v-1z" fill="rgb(16,16,16)"/>
<path d="M59 53h1v3h-1v-3z" fill="rgb(82,57,24)"/>
<path d="M41 54h2v1h-2v-1z" fill="rgb(82,57,24)"/>
<path d="M43 55h1v2h-1v-2z" fill="rgb(82,57,24)"/>
<path d="M58 55h1v1h-1v-1z" fill="rgb(16,16,16)"/>
<path d="M57 56h1v1h-1v-1z" fill="rgb(82,57,24)"/>
<path d="M44 57h2v1h-2v-1z" fill="rgb(82,57,24)"/>
<path d="M54 57h2v1h-1v1h-1v-2z" fill="rgb(82,57,24)"/>
<path d="M56 57h2v3h-1v-2h-1v-1z" fill="rgb(16,16,16)"/>
<path d="M46 58h1v1h-1v-1z" fill="rgb(82,57,24)"/>
<path d="M47 58h1v1h-1v-1z" fill="rgb(16,16,16)"/>
<path d="M48 58h1v1h-1v-1z" fill="rgb(82,57,24)"/>
<path d="M49 58h1v1h-1v-1z" fill="rgb(16,16,16)"/>
<path d="M53 58h1v1h-1v-1z" fill="rgb(16,16,16)"/>
<path d="M55 58h2v2h1v1h1v3h-1v-1h-1v-1h-1v-2h-1v-2z" fill="rgb(164,131,74)"/>
<path d="M48 59h1v2h-1v-2z" fill="rgb(16,16,16)"/>
<path d="M49 59h2v2h1v2h-1v1h-1v1h-1v1h-1v-2h1v-1h1v-2h-1v-2z" fill="rgb(164,131,74)"/>
<path d="M51 59h2v1h-1v1h-1v-2z" fill="rgb(16,16,16)"/>
<path d="M53 59h1v1h1v2h1v2h-1v2h-1v2h-2v-1h-2v-2h1v-1h1v-1h1v-2h-1v-1h1v-1z" fill="transparent"/>
<path d="M54 59h1v1h-1v-1z" fill="rgb(16,16,16)"/>
<path d="M55 60h1v2h-1v-2z" fill="rgb(16,16,16)"/>
<path d="M58 60h1v1h-1v-1z" fill="rgb(16,16,16)"/>
<path d="M49 61h1v2h-1v-2z" fill="rgb(16,16,16)"/>
<path d="M52 61h1v2h-1v-2z" fill="rgb(98,82,16)"/>
<path d="M59 61h1v3h-1v-3z" fill="rgb(16,16,16)"/>
<path d="M56 62h1v1h-1v-1z" fill="rgb(16,16,16)"/>
<path d="M48 63h1v1h-1v-1z" fill="rgb(98,82,16)"/>
<path d="M51 63h1v1h-1v-1z" fill="rgb(16,16,16)"/>
<path d="M56 63h1v1h-1v-1z" fill="rgb(98,82,16)"/>
<path d="M57 63h1v3h-1v-3z" fill="rgb(222,189,139)"/>
<path d="M47 64h1v1h-1v-1z" fill="rgb(98,82,16)"/>
<path d="M50 64h1v1h-1v-1z" fill="rgb(16,16,16)"/>
<path d="M55 64h1v2h-1v-2z" fill="rgb(98,82,16)"/>
<path d="M56 64h1v3h-1v2h1v1h-4v-1h1v-1h1v-2h1v-2z" fill="rgb(238,222,172)"/>
<path d="M58 64h1v1h-1v-1z" fill="rgb(16,16,16)"/>
<path d="M46 65h1v1h-1v-1z" fill="rgb(16,16,16)"/>
<path d="M47 65h1v1h1v1h1v1h1v1h-4v-1h-1v-2h1v-1z" fill="rgb(222,189,139)"/>
<path d="M49 65h1v2h-1v-2z" fill="rgb(16,16,16)"/>
<path d="M58 65h1v1h-1v-1z" fill="rgb(98,82,16)"/>
<path d="M41 66h1v1h-1v-1z" fill="rgb(98,98,98)"/>
<path d="M42 66h4v1h-4v-1z" fill="rgb(16,16,16)"/>
<path d="M54 66h1v2h-1v-2z" fill="rgb(16,16,16)"/>
<path d="M57 66h1v3h-1v-3z" fill="rgb(16,16,16)"/>
<path d="M40 67h1v1h-1v-1z" fill="rgb(98,98,98)"/>
<path d="M41 67h1v1h-1v-1z" fill="rgb(255,255,255)"/>
<path d="M42 67h1v1h-1v-1z" fill="rgb(222,189,139)"/>
<path d="M43 67h2v1h-2v-1z" fill="rgb(98,82,16)"/>
<path d="M45 67h1v1h-1v-1z" fill="rgb(238,222,172)"/>
<path d="M47 67h1v1h-1v-1z" fill="rgb(98,82,16)"/>
<path d="M50 67h2v1h-2v-1z" fill="rgb(98,82,16)"/>
<path d="M56 67h1v1h-1v-1z" fill="rgb(222,189,139)"/>
<path d="M39 68h1v1h-1v-1z" fill="rgb(98,98,98)"/>
<path d="M40 68h1v1h-1v-1z" fill="rgb(255,255,255)"/>
<path d="M41 68h1v1h-1v-1z" fill="rgb(16,16,16)"/>
<path d="M42 68h1v1h-1v-1z" fill="rgb(98,98,98)"/>
<path d="M43 68h1v1h-1v-1z" fill="rgb(164,131,74)"/>
<path d="M44 68h1v1h-1v-1z" fill="rgb(222,189,139)"/>
<path d="M45 68h1v1h-1v-1z" fill="rgb(164,131,74)"/>
<path d="M46 68h1v1h-1v-1z" fill="rgb(98,98,98)"/>
<path d="M51 68h1v1h-1v-1z" fill="rgb(164,131,74)"/>
<path d="M52 68h2v1h-2v-1z" fill="rgb(16,16,16)"/>
<path d="M56 68h1v1h-1v-1z" fill="rgb(164,131,74)"/>
<path d="M39 69h2v1h-2v-1z" fill="rgb(16,16,16)"/>
<path d="M41 69h1v2h-1v-2z" fill="rgb(98,98,98)"/>
<path d="M42 69h2v1h-1v1h-1v-2z" fill="rgb(255,255,255)"/>
<path d="M44 69h1v1h-1v-1z" fill="rgb(16,16,16)"/>
<path d="M45 69h1v2h-1v-2z" fill="rgb(98,98,98)"/>
<path d="M46 69h2v1h-1v1h-1v-2z" fill="rgb(255,255,255)"/>
<path d="M48 69h1v1h-1v-1z" fill="rgb(16,16,16)"/>
<path d="M49 69h1v1h-1v-1z" fill="rgb(164,131,74)"/>
<path d="M50 69h1v1h-1v-1z" fill="rgb(16,16,16)"/>
<path d="M51 69h1v1h-1v-1z" fill="rgb(238,222,172)"/>
<path d="M52 69h1v1h-1v-1z" fill="rgb(98,82,16)"/>
<path d="M57 69h1v1h-1v-1z" fill="rgb(164,131,74)"/>
<path d="M58 69h2v1h-2v-1z" fill="rgb(16,16,16)"/>
<path d="M43 70h1v1h-1v-1z" fill="rgb(16,16,16)"/>
<path d="M47 70h1v1h-1v-1z" fill="rgb(16,16,16)"/>
<path d="M48 70h1v1h-1v-1z" fill="rgb(98,98,98)"/>
<path d="M49 70h2v1h-2v-1z" fill="rgb(255,255,255)"/>
<path d="M51 70h1v1h-1v-1z" fill="rgb(98,82,16)"/>
<path d="M52 70h2v2h-1v-1h-1v-1z" fill="rgb(164,131,74)"/>
<path d="M54 70h1v1h-1v-1z" fill="rgb(98,82,16)"/>
<path d="M55 70h2v2h-1v-1h-1v-1z" fill="rgb(164,131,74)"/>
<path d="M57 70h2v1h-2v-1z" fill="rgb(238,222,172)"/>
<path d="M59 70h1v1h-1v-1z" fill="rgb(222,189,139)"/>
<path d="M60 70h1v1h-1v-1z" fill="rgb(98,98,98)"/>
<path d="M41 71h2v1h-2v-1z" fill="rgb(16,16,16)"/>
<path d="M45 71h2v1h-2v-1z" fill="rgb(16,16,16)"/>
<path d="M48 71h4v2h-1v-1h-3v-1z" fill="rgb(16,16,16)"/>
<path d="M52 71h1v2h-1v-2z" fill="rgb(255,255,255)"/>
<path d="M54 71h1v2h-2v-1h1v-1z" fill="rgb(16,16,16)"/>
<path d="M55 71h1v2h-1v-2z" fill="rgb(255,255,255)"/>
<path d="M57 71h2v1h-2v-1z" fill="rgb(16,16,16)"/>
<path d="M59 71h2v1h-2v-1z" fill="rgb(255,255,255)"/>
<path d="M61 71h1v1h-1v-1z" fill="rgb(98,98,98)"/>
<path d="M56 72h1v1h-1v-1z" fill="rgb(16,16,16)"/>
<path d="M59 72h3v1h-3v-1z" fill="rgb(16,16,16)"/>
<path d="M52 73h1v1h-1v-1z" fill="rgb(16,16,16)"/>
<path d="M55 73h1v1h-1v-1z" fill="rgb(16,16,16)"/>
</svg>
