<?xml version="1.0" encoding="utf-8"?>
<!-- generated at drububu.com  -->
<!DOCTYPE svg PUBLIC "-//W3C//DTD SVG 1.1//EN" "http://www.w3.org/Graphics/SVG/1.1/DTD/svg11.dtd">
<svg version="1.1" preserveAspectRatio="xMinYMin meet" xmlns="http://www.w3.org/2000/svg" xmlns:xlink="http://www.w3.org/1999/xlink" x="0px" y="0px" width="96px" height="96px" viewBox="0 0 96 96">
<path d="M0 0h96v96h-96v-96z" fill="transparent"/>
<path d="M38 11h1v2h-1v-2z" fill="rgb(65,65,65)"/>
<path d="M37 13h1v3h-1v-3z" fill="rgb(65,65,65)"/>
<path d="M38 13h1v2h1v4h-1v-1h-1v-5z" fill="rgb(131,131,131)"/>
<path d="M39 13h1v2h-1v-2z" fill="rgb(65,65,65)"/>
<path d="M40 15h1v3h-1v-3z" fill="rgb(0,0,0)"/>
<path d="M50 15h4v1h-4v-1z" fill="rgb(65,65,65)"/>
<path d="M54 15h1v1h-1v-1z" fill="rgb(0,0,0)"/>
<path d="M37 16h1v2h-1v-2z" fill="rgb(0,0,0)"/>
<path d="M44 16h1v1h-1v-1z" fill="rgb(90,65,32)"/>
<path d="M47 16h3v1h-3v-1z" fill="rgb(65,65,65)"/>
<path d="M50 16h3v1h-1v1h-2v1h-2v1h-1v-1h-1v-1h1v-1h3v-1z" fill="rgb(131,131,131)"/>
<path d="M53 16h1v1h-1v-1z" fill="rgb(0,0,0)"/>
<path d="M42 17h2v1h-2v-1z" fill="rgb(90,65,32)"/>
<path d="M44 17h1v2h-1v-2z" fill="rgb(205,156,82)"/>
<path d="M45 17h1v1h-1v-1z" fill="rgb(164,123,90)"/>
<path d="M46 17h1v1h-1v-1z" fill="rgb(65,65,65)"/>
<path d="M52 17h1v1h-1v-1z" fill="rgb(0,0,0)"/>
<path d="M38 18h1v2h-1v-2z" fill="rgb(0,0,0)"/>
<path d="M40 18h1v3h-1v-1h-1v-1h1v-1z" fill="rgb(65,65,65)"/>
<path d="M41 18h1v5h1v-3h1v2h1v1h-1v1h-1v1h-1v-1h-1v-1h-1v-1h-1v-2h1v1h1v-3z" fill="rgb(0,0,0)"/>
<path d="M42 18h1v1h1v1h-1v1h-1v-3z" fill="rgb(205,156,82)"/>
<path d="M43 18h1v1h-1v-1z" fill="rgb(164,123,90)"/>
<path d="M45 18h1v1h1v2h-2v1h-1v-2h1v-2z" fill="rgb(65,65,65)"/>
<path d="M50 18h1v1h-1v-1z" fill="rgb(65,65,65)"/>
<path d="M51 18h1v1h-1v-1z" fill="rgb(0,0,0)"/>
<path d="M44 19h1v1h-1v-1z" fill="rgb(0,0,0)"/>
<path d="M48 19h1v1h-1v-1z" fill="rgb(65,65,65)"/>
<path d="M49 19h2v1h-2v-1z" fill="rgb(0,0,0)"/>
<path d="M69 19h6v1h-6v-1z" fill="rgb(65,65,65)"/>
<path d="M37 20h1v2h-1v-2z" fill="rgb(90,65,32)"/>
<path d="M38 20h1v2h1v1h1v1h1v1h1v-1h1v-1h1v-1h2v-1h3v3h-1v2h-1v-2h-2v1h-2v1h-4v-2h-4v-1
	h1v-1h1v-2z" fill="rgb(205,156,82)"/>
<path d="M47 20h2v1h-2v-1z" fill="rgb(0,0,0)"/>
<path d="M49 20h2v1h1v1h1v1h-1v2h1v1h-1v1h-1v1h-1v1h1v1h-1v1h-1v1h-1v-1h-1v1h-1v1h-1v-1
	h-1v-1h1v-1h1v-2h1v-1h1v-1h1v-2h1v-3h-1v-1z" fill="rgb(164,123,90)"/>
<path d="M51 20h1v1h-1v-1z" fill="rgb(90,65,32)"/>
<path d="M66 20h3v1h-3v-1z" fill="rgb(65,65,65)"/>
<path d="M69 20h2v1h-2v-1z" fill="rgb(131,131,131)"/>
<path d="M71 20h2v1h-2v-1z" fill="rgb(0,0,0)"/>
<path d="M77 20h1v4h-1v-4z" fill="rgb(0,0,0)"/>
<path d="M42 21h1v1h-1v-1z" fill="rgb(164,123,90)"/>
<path d="M45 21h2v1h-2v-1z" fill="rgb(0,0,0)"/>
<path d="M52 21h1v1h-1v-1z" fill="rgb(90,65,32)"/>
<path d="M64 21h2v1h-2v-1z" fill="rgb(65,65,65)"/>
<path d="M66 21h3v1h-2v1h-1v1h-1v1h-1v-1h-1v-1h1v-1h2v-1z" fill="rgb(131,131,131)"/>
<path d="M69 21h2v1h-2v-1z" fill="rgb(0,0,0)"/>
<path d="M76 21h1v1h-1v-1z" fill="rgb(65,65,65)"/>
<path d="M36 22h1v1h-1v-1z" fill="rgb(90,65,32)"/>
<path d="M42 22h1v1h-1v-1z" fill="rgb(90,65,32)"/>
<path d="M53 22h1v1h-1v-1z" fill="rgb(90,65,32)"/>
<path d="M63 22h1v1h-1v-1z" fill="rgb(65,65,65)"/>
<path d="M67 22h2v1h-2v-1z" fill="rgb(0,0,0)"/>
<path d="M73 22h3v1h-3v-1z" fill="rgb(65,65,65)"/>
<path d="M76 22h1v2h-1v1h-2v1h-4v-1h1v-1h2v-1h3v-1z" fill="rgb(131,131,131)"/>
<path d="M35 23h1v1h-1v-1z" fill="rgb(90,65,32)"/>
<path d="M52 23h1v1h-1v-1z" fill="rgb(0,0,0)"/>
<path d="M62 23h1v1h-1v-1z" fill="rgb(65,65,65)"/>
<path d="M66 23h1v1h-1v-1z" fill="rgb(0,0,0)"/>
<path d="M71 23h2v1h-2v-1z" fill="rgb(65,65,65)"/>
<path d="M36 24h1v2h-1v-2z" fill="rgb(90,65,32)"/>
<path d="M37 24h1v1h-1v-1z" fill="rgb(164,123,90)"/>
<path d="M38 24h1v1h-1v-1z" fill="rgb(90,65,32)"/>
<path d="M39 24h1v1h-1v-1z" fill="rgb(164,123,90)"/>
<path d="M46 24h2v1h-2v-1z" fill="rgb(90,65,32)"/>
<path d="M52 24h1v1h-1v-1z" fill="rgb(90,65,32)"/>
<path d="M62 24h1v3h-1v-3z" fill="rgb(0,0,0)"/>
<path d="M63 24h1v3h-1v-3z" fill="rgb(65,65,65)"/>
<path d="M65 24h1v1h-1v-1z" fill="rgb(0,0,0)"/>
<path d="M69 24h1v1h-1v-1z" fill="rgb(0,0,0)"/>
<path d="M70 24h1v1h-1v-1z" fill="rgb(65,65,65)"/>
<path d="M76 24h1v1h-1v-1z" fill="rgb(0,0,0)"/>
<path d="M37 25h1v1h-1v-1z" fill="rgb(205,156,82)"/>
<path d="M38 25h1v1h-1v-1z" fill="rgb(255,255,255)"/>
<path d="M39 25h1v1h-1v-1z" fill="rgb(90,65,32)"/>
<path d="M44 25h2v1h-2v-1z" fill="rgb(90,65,32)"/>
<path d="M46 25h2v1h-1v1h-1v-2z" fill="rgb(255,255,255)"/>
<path d="M53 25h1v1h-1v-1z" fill="rgb(90,65,32)"/>
<path d="M64 25h1v2h1v-1h1v-1h2v1h-1v1h3v1h-5v1h-1v-1h-2v-1h1v-2z" fill="rgb(0,0,0)"/>
<path d="M69 25h1v1h1v1h-3v-1h1v-1z" fill="rgb(65,65,65)"/>
<path d="M74 25h1v1h-1v-1z" fill="rgb(65,65,65)"/>
<path d="M75 25h1v1h-1v-1z" fill="rgb(0,0,0)"/>
<path d="M37 26h1v1h-1v-1z" fill="rgb(90,65,32)"/>
<path d="M38 26h1v1h-1v-1z" fill="rgb(213,205,205)"/>
<path d="M39 26h1v1h-1v-1z" fill="rgb(255,255,255)"/>
<path d="M40 26h1v1h-1v-1z" fill="rgb(0,0,0)"/>
<path d="M41 26h2v1h-2v-1z" fill="rgb(98,90,65)"/>
<path d="M43 26h1v1h-1v-1z" fill="rgb(164,123,90)"/>
<path d="M44 26h1v1h-1v-1z" fill="rgb(255,255,255)"/>
<path d="M45 26h1v1h-1v-1z" fill="rgb(0,0,0)"/>
<path d="M47 26h1v1h-1v-1z" fill="rgb(205,156,82)"/>
<path d="M52 26h1v1h-1v-1z" fill="rgb(0,0,0)"/>
<path d="M53 26h2v1h-2v-1z" fill="rgb(98,90,65)"/>
<path d="M71 26h3v1h-3v-1z" fill="rgb(0,0,0)"/>
<path d="M36 27h1v1h-1v-1z" fill="rgb(90,65,32)"/>
<path d="M37 27h2v2h-1v-1h-1v-1z" fill="rgb(205,156,82)"/>
<path d="M39 27h1v1h-1v-1z" fill="rgb(164,123,90)"/>
<path d="M40 27h1v1h-1v-1z" fill="rgb(98,90,65)"/>
<path d="M41 27h2v1h1v1h-2v1h-1v1h-1v1h-1v1h-1v1h-1v1h-1v1h-1v1h-1v-3h1v-1h2v-1h1v-1h1
	v-1h1v-2h1v-1z" fill="rgb(238,222,172)"/>
<path d="M43 27h2v2h-1v-1h-1v-1z" fill="rgb(98,90,65)"/>
<path d="M45 27h2v1h-2v-1z" fill="rgb(205,156,82)"/>
<path d="M51 27h1v1h-1v-1z" fill="rgb(98,90,65)"/>
<path d="M52 27h1v1h-1v-1z" fill="rgb(180,164,123)"/>
<path d="M53 27h2v1h2v1h2v1h2v1h2v2h-1v-1h-2v-1h-2v-1h-2v-1h-4v-1h1v-1z" fill="rgb(238,222,172)"/>
<path d="M55 27h2v1h-2v-1z" fill="rgb(98,90,65)"/>
<path d="M37 28h1v1h-1v-1z" fill="rgb(90,65,32)"/>
<path d="M39 28h1v1h-1v-1z" fill="rgb(98,90,65)"/>
<path d="M45 28h1v2h-1v-2z" fill="rgb(0,0,0)"/>
<path d="M50 28h1v1h-1v-1z" fill="rgb(0,0,0)"/>
<path d="M51 28h1v1h-1v-1z" fill="rgb(180,164,123)"/>
<path d="M57 28h2v1h-2v-1z" fill="rgb(98,90,65)"/>
<path d="M61 28h2v1h-2v-1z" fill="rgb(90,65,32)"/>
<path d="M63 28h1v1h-1v-1z" fill="rgb(164,123,90)"/>
<path d="M64 28h1v1h-1v-1z" fill="rgb(90,65,32)"/>
<path d="M66 28h1v1h-1v-1z" fill="rgb(90,65,32)"/>
<path d="M67 28h1v1h-1v-1z" fill="rgb(164,123,90)"/>
<path d="M68 28h2v1h1v1h-2v-1h-1v-1z" fill="rgb(90,65,32)"/>
<path d="M38 29h1v2h-1v-2z" fill="rgb(98,90,65)"/>
<path d="M39 29h1v1h-1v-1z" fill="rgb(180,164,123)"/>
<path d="M42 29h3v1h-3v-1z" fill="rgb(180,164,123)"/>
<path d="M51 29h4v1h-3v1h-2v-1h1v-1z" fill="rgb(0,0,0)"/>
<path d="M55 29h1v1h-1v-1z" fill="rgb(180,164,123)"/>
<path d="M59 29h2v1h-2v-1z" fill="rgb(98,90,65)"/>
<path d="M61 29h1v1h-1v-1z" fill="rgb(164,123,90)"/>
<path d="M62 29h2v2h-1v-1h-1v-1z" fill="rgb(205,156,82)"/>
<path d="M64 29h2v1h-2v-1z" fill="rgb(164,123,90)"/>
<path d="M66 29h3v2h2v4h-3v1h-4v-1h-1v-2h2v1h3v-1h1v-1h-2v-1h-2v-1h1v-1z" fill="rgb(205,156,82)"/>
<path d="M41 30h1v1h-1v-1z" fill="rgb(180,164,123)"/>
<path d="M42 30h2v1h-2v-1z" fill="rgb(238,222,172)"/>
<path d="M44 30h1v1h-1v-1z" fill="rgb(0,0,0)"/>
<path d="M52 30h3v1h2v1h1v1h1v1h-1v2h-1v1h1v1h1v1h1v1h1v1h2v1h-1v1h-1v1h-2v-1h-1v-1h-1v1
	h-2v-1h-1v-1h-2v1h-2v-1h-1v1h-1v-3h-1v-4h1v-2h2v-2h2v-1z" fill="transparent"/>
<path d="M55 30h2v1h-2v-1z" fill="rgb(0,0,0)"/>
<path d="M57 30h1v1h-1v-1z" fill="rgb(180,164,123)"/>
<path d="M61 30h2v1h-2v-1z" fill="rgb(98,90,65)"/>
<path d="M64 30h1v1h-1v-1z" fill="rgb(90,65,32)"/>
<path d="M69 30h2v1h-2v-1z" fill="rgb(164,123,90)"/>
<path d="M71 30h1v1h-1v-1z" fill="rgb(90,65,32)"/>
<path d="M72 30h1v1h-1v-1z" fill="rgb(0,0,0)"/>
<path d="M37 31h1v1h-1v-1z" fill="rgb(98,90,65)"/>
<path d="M40 31h1v1h-1v-1z" fill="rgb(180,164,123)"/>
<path d="M41 31h1v1h-1v-1z" fill="rgb(238,222,172)"/>
<path d="M42 31h2v1h-2v-1z" fill="rgb(0,0,0)"/>
<path d="M47 31h1v2h-2v-1h1v-1z" fill="rgb(90,65,32)"/>
<path d="M49 31h1v1h-1v-1z" fill="rgb(90,65,32)"/>
<path d="M57 31h1v1h-1v-1z" fill="rgb(0,0,0)"/>
<path d="M58 31h1v1h-1v-1z" fill="rgb(180,164,123)"/>
<path d="M59 31h1v1h-1v-1z" fill="rgb(98,90,65)"/>
<path d="M63 31h1v2h-1v-2z" fill="rgb(98,90,65)"/>
<path d="M64 31h1v2h-1v-2z" fill="rgb(255,255,255)"/>
<path d="M65 31h2v1h-2v-1z" fill="rgb(90,65,32)"/>
<path d="M71 31h2v1h-1v1h1v3h-1v1h1v1h-2v2h-2v1h-2v-1h-3v-1h-1v1h-2v-2h-2v-1h-1v-1h1v-2
	h1v1h2v-1h1v1h1v1h4v-1h3v-4z" fill="rgb(164,123,90)"/>
<path d="M73 31h1v1h-1v-1z" fill="rgb(0,0,0)"/>
<path d="M35 32h2v1h-2v-1z" fill="rgb(98,90,65)"/>
<path d="M39 32h1v1h-1v-1z" fill="rgb(180,164,123)"/>
<path d="M40 32h2v1h-2v-1z" fill="rgb(0,0,0)"/>
<path d="M43 32h2v1h-2v-1z" fill="rgb(90,65,32)"/>
<path d="M48 32h2v1h-2v-1z" fill="rgb(0,0,0)"/>
<path d="M58 32h1v1h-1v-1z" fill="rgb(0,0,0)"/>
<path d="M59 32h2v1h1v1h-2v-1h-1v-1z" fill="rgb(180,164,123)"/>
<path d="M61 32h1v1h-1v-1z" fill="rgb(98,90,65)"/>
<path d="M65 32h1v1h-1v-1z" fill="rgb(0,0,0)"/>
<path d="M66 32h1v2h-2v-1h1v-1z" fill="rgb(255,255,255)"/>
<path d="M67 32h2v1h-2v-1z" fill="rgb(90,65,32)"/>
<path d="M72 32h1v1h-1v-1z" fill="rgb(0,0,0)"/>
<path d="M34 33h1v1h-1v-1z" fill="rgb(98,90,65)"/>
<path d="M38 33h1v1h-1v-1z" fill="rgb(180,164,123)"/>
<path d="M39 33h1v1h-1v-1z" fill="rgb(0,0,0)"/>
<path d="M44 33h1v1h1v-1h2v2h-1v4h-1v-1h-1v1h-1v2h-1v-6h1v-2z" fill="rgb(0,0,0)"/>
<path d="M45 33h1v1h-1v-1z" fill="rgb(90,65,32)"/>
<path d="M59 33h1v1h-1v-1z" fill="rgb(0,0,0)"/>
<path d="M62 33h1v1h-1v-1z" fill="rgb(0,0,0)"/>
<path d="M67 33h1v1h-1v-1z" fill="rgb(238,197,115)"/>
<path d="M73 33h1v1h-1v-1z" fill="rgb(90,65,32)"/>
<path d="M22 34h1v1h-1v-1z" fill="rgb(65,65,65)"/>
<path d="M33 34h1v3h-1v-3z" fill="rgb(98,90,65)"/>
<path d="M37 34h2v1h-2v-1z" fill="rgb(0,0,0)"/>
<path d="M58 34h1v1h-1v-1z" fill="rgb(0,0,0)"/>
<path d="M60 34h1v1h-1v-1z" fill="rgb(98,90,65)"/>
<path d="M61 34h1v1h-1v-1z" fill="rgb(0,0,0)"/>
<path d="M73 34h1v2h-1v-2z" fill="rgb(0,0,0)"/>
<path d="M21 35h1v1h-1v-1z" fill="rgb(65,65,65)"/>
<path d="M22 35h1v9h-1v-9z" fill="rgb(0,0,0)"/>
<path d="M36 35h1v1h-1v-1z" fill="rgb(0,0,0)"/>
<path d="M58 35h1v1h-1v-1z" fill="rgb(90,65,32)"/>
<path d="M20 36h1v2h-1v-2z" fill="rgb(65,65,65)"/>
<path d="M21 36h1v5h-1v1h-1v-4h1v-2z" fill="rgb(131,131,131)"/>
<path d="M30 36h1v1h-1v-1z" fill="rgb(65,65,65)"/>
<path d="M31 36h1v2h-1v-2z" fill="rgb(0,0,0)"/>
<path d="M35 36h1v1h-1v-1z" fill="rgb(0,0,0)"/>
<path d="M57 36h1v1h-1v-1z" fill="rgb(90,65,32)"/>
<path d="M72 36h1v1h-1v-1z" fill="rgb(0,0,0)"/>
<path d="M28 37h2v1h-2v-1z" fill="rgb(65,65,65)"/>
<path d="M30 37h1v1h-1v-1z" fill="rgb(131,131,131)"/>
<path d="M33 37h2v1h-2v-1z" fill="rgb(0,0,0)"/>
<path d="M58 37h1v1h-1v-1z" fill="rgb(90,65,32)"/>
<path d="M73 37h1v2h-2v-1h1v-1z" fill="rgb(0,0,0)"/>
<path d="M19 38h1v2h-1v-2z" fill="rgb(65,65,65)"/>
<path d="M27 38h1v1h-1v-1z" fill="rgb(65,65,65)"/>
<path d="M28 38h2v2h-1v2h-2v-1h-1v-1h1v-1h1v-1z" fill="rgb(131,131,131)"/>
<path d="M30 38h1v2h-1v-2z" fill="rgb(0,0,0)"/>
<path d="M45 38h1v1h1v3h1v3h1v2h-2v-1h-1v-2h-1v-3h-1v-2h1v-1z" fill="rgb(65,65,65)"/>
<path d="M59 38h1v1h-1v-1z" fill="rgb(0,0,0)"/>
<path d="M60 38h1v1h-1v-1z" fill="rgb(90,65,32)"/>
<path d="M71 38h1v1h-1v-1z" fill="rgb(90,65,32)"/>
<path d="M26 39h1v1h-1v-1z" fill="rgb(65,65,65)"/>
<path d="M47 39h1v3h-1v-3z" fill="rgb(0,0,0)"/>
<path d="M60 39h1v1h-1v-1z" fill="rgb(0,0,0)"/>
<path d="M63 39h1v1h-1v-1z" fill="rgb(90,65,32)"/>
<path d="M71 39h1v2h-2v-1h1v-1z" fill="rgb(0,0,0)"/>
<path d="M19 40h1v3h-1v-3z" fill="rgb(0,0,0)"/>
<path d="M25 40h1v1h-1v-1z" fill="rgb(65,65,65)"/>
<path d="M29 40h1v2h-1v-2z" fill="rgb(0,0,0)"/>
<path d="M61 40h1v1h-1v-1z" fill="rgb(90,65,32)"/>
<path d="M62 40h3v1h1v-1h1v1h2v1h-3v2h-1v1h-1v1h-1v1h-1v1h-3v-1h2v-1h-1v-1h-3v-1h1v-1h1
	v1h2v-1h1v-1h1v-1h-1v-1z" fill="rgb(0,0,0)"/>
<path d="M65 40h1v1h-1v-1z" fill="rgb(90,65,32)"/>
<path d="M69 40h1v1h-1v-1z" fill="rgb(90,65,32)"/>
<path d="M21 41h1v3h1v2h-1v-1h-1v-2h-1v-1h1v-1z" fill="rgb(65,65,65)"/>
<path d="M23 41h1v1h-1v-1z" fill="rgb(90,65,32)"/>
<path d="M24 41h1v1h-1v-1z" fill="rgb(164,123,90)"/>
<path d="M25 41h1v1h-1v-1z" fill="rgb(0,0,0)"/>
<path d="M26 41h1v1h1v2h-1v1h-1v1h-2v-1h1v-3h1v-1z" fill="rgb(65,65,65)"/>
<path d="M44 41h1v3h-1v-3z" fill="rgb(0,0,0)"/>
<path d="M49 41h1v1h-1v-1z" fill="rgb(90,65,32)"/>
<path d="M52 41h2v1h-2v-1z" fill="rgb(90,65,32)"/>
<path d="M23 42h1v3h-1v-3z" fill="rgb(205,156,82)"/>
<path d="M24 42h1v3h-1v-3z" fill="rgb(0,0,0)"/>
<path d="M28 42h1v2h-1v-2z" fill="rgb(0,0,0)"/>
<path d="M29 42h1v1h-1v-1z" fill="rgb(164,123,90)"/>
<path d="M30 42h1v1h-1v-1z" fill="rgb(90,65,32)"/>
<path d="M48 42h1v3h-1v-3z" fill="rgb(0,0,0)"/>
<path d="M49 42h1v1h1v1h1v-1h1v-1h1v2h-1v1h1v1h-1v4h2v1h1v1h-2v-1h-1v1h1v2h-2v-1h-1v1h-1
	v-2h-1v1h-1v2h-1v1h-1v-1h-1v-2h-1v1h-1v1h-1v-2h-3v-1h1v-1h1v-1h2v1h1v-2h1v-2
	h-1v-1h-1v-1h1v-1h1v2h1v1h1v1h2v-1h1v-1h1v-1h-2v-3z" fill="rgb(205,156,82)"/>
<path d="M50 42h2v1h-2v-1z" fill="rgb(90,65,32)"/>
<path d="M52 42h1v1h-1v-1z" fill="rgb(164,123,90)"/>
<path d="M54 42h1v1h-1v-1z" fill="rgb(0,0,0)"/>
<path d="M57 42h1v1h-1v-1z" fill="rgb(90,65,32)"/>
<path d="M20 43h1v2h-1v-2z" fill="rgb(0,0,0)"/>
<path d="M29 43h2v2h1v2h-1v1h-3v1h-1v1h-1v1h-4v-1h-1v-1h-1v2h-1v-2h-1v-1h1v-2h1v-1h1v1h1
	v1h1v1h2v-1h1v-1h1v-1h1v-1h1v-1z" fill="rgb(205,156,82)"/>
<path d="M31 43h1v1h2v-1h5v1h-2v1h1v1h1v1h-5v1h-1v-3h-2v-2z" fill="rgb(0,0,0)"/>
<path d="M43 43h1v1h-1v-1z" fill="rgb(90,65,32)"/>
<path d="M51 43h1v1h-1v-1z" fill="rgb(164,123,90)"/>
<path d="M54 43h1v1h2v1h-4v-1h1v-1z" fill="rgb(164,123,90)"/>
<path d="M55 43h1v1h-1v-1z" fill="rgb(0,0,0)"/>
<path d="M56 43h1v1h-1v-1z" fill="rgb(90,65,32)"/>
<path d="M57 43h1v1h-1v-1z" fill="rgb(164,123,90)"/>
<path d="M19 44h1v2h-1v-2z" fill="rgb(90,65,32)"/>
<path d="M27 44h1v1h-1v-1z" fill="rgb(0,0,0)"/>
<path d="M37 44h3v1h2v1h1v1h1v2h-1v1h-1v-2h-1v-1h-2v-1h-1v-1h-1v-1z" fill="rgb(65,65,65)"/>
<path d="M40 44h3v2h-1v-1h-2v-1z" fill="rgb(0,0,0)"/>
<path d="M43 44h1v1h-1v-1z" fill="rgb(164,123,90)"/>
<path d="M45 44h1v2h-1v-2z" fill="rgb(0,0,0)"/>
<path d="M21 45h1v1h-1v-1z" fill="rgb(0,0,0)"/>
<path d="M23 45h1v1h2v1h-2v1h-1v-1h-1v-1h1v-1z" fill="rgb(0,0,0)"/>
<path d="M26 45h1v1h-1v-1z" fill="rgb(0,0,0)"/>
<path d="M32 45h1v1h-1v-1z" fill="rgb(90,65,32)"/>
<path d="M49 45h1v1h-1v-1z" fill="rgb(0,0,0)"/>
<path d="M50 45h1v1h-1v-1z" fill="rgb(164,123,90)"/>
<path d="M54 45h2v1h-2v-1z" fill="rgb(0,0,0)"/>
<path d="M56 45h4v1h1v1h-2v1h-3v1h-2v-1h-1v-1h1v-1h2v-1z" fill="rgb(65,65,65)"/>
<path d="M18 46h1v2h-1v-2z" fill="rgb(90,65,32)"/>
<path d="M32 46h1v2h-1v2h1v1h-1v1h-1v1h-1v1h-2v1h-1v-2h-1v-1h3v-4h2v-1h1v-1z" fill="rgb(164,123,90)"/>
<path d="M43 46h1v1h-1v-1z" fill="rgb(0,0,0)"/>
<path d="M46 46h1v1h-1v-1z" fill="rgb(0,0,0)"/>
<path d="M49 46h1v1h-1v-1z" fill="rgb(164,123,90)"/>
<path d="M53 46h1v1h-1v-1z" fill="rgb(0,0,0)"/>
<path d="M24 47h1v1h-1v-1z" fill="rgb(65,65,65)"/>
<path d="M39 47h2v1h-2v-1z" fill="rgb(0,0,0)"/>
<path d="M44 47h1v1h-1v-1z" fill="rgb(0,0,0)"/>
<path d="M47 47h2v1h-2v-1z" fill="rgb(164,123,90)"/>
<path d="M17 48h1v1h-1v-1z" fill="rgb(90,65,32)"/>
<path d="M28 48h1v1h-1v-1z" fill="rgb(90,65,32)"/>
<path d="M32 48h1v2h-1v-2z" fill="rgb(90,65,32)"/>
<path d="M40 48h1v1h-1v-1z" fill="rgb(90,65,32)"/>
<path d="M41 48h1v2h-1v-2z" fill="rgb(0,0,0)"/>
<path d="M44 48h1v1h-1v-1z" fill="rgb(164,123,90)"/>
<path d="M53 48h1v2h-1v-2z" fill="rgb(164,123,90)"/>
<path d="M56 48h3v1h-3v-1z" fill="rgb(0,0,0)"/>
<path d="M59 48h2v1h2v1h-1v1h-1v1h1v1h1v1h-1v3h-1v2h-1v1h-1v-2h-1v-2h-1v3h-1v1h-1v-1h-1
	v1h-2v-2h-1v-3h-1v2h-1v3h-1v-1h-1v1h-1v-1h-1v-2h-1v-4h1v2h1v1h1v-1h1v-2h1v-1h1
	v2h1v-1h1v1h2v-2h2v-1h-1v-1h2v1h2v-1h-1v-1h1v-1z" fill="rgb(164,123,90)"/>
<path d="M61 48h2v1h-2v-1z" fill="rgb(90,65,32)"/>
<path d="M18 49h1v2h-1v-2z" fill="rgb(90,65,32)"/>
<path d="M20 49h1v1h-1v-1z" fill="rgb(90,65,32)"/>
<path d="M27 49h1v1h-1v-1z" fill="rgb(90,65,32)"/>
<path d="M28 49h1v2h-1v-2z" fill="rgb(255,255,255)"/>
<path d="M33 49h1v1h-1v-1z" fill="rgb(0,0,0)"/>
<path d="M39 49h1v3h-1v-3z" fill="rgb(90,65,32)"/>
<path d="M40 49h1v1h-1v-1z" fill="rgb(205,156,82)"/>
<path d="M43 49h1v2h-1v-2z" fill="rgb(164,123,90)"/>
<path d="M49 49h1v1h-1v-1z" fill="rgb(164,123,90)"/>
<path d="M54 49h2v1h-2v-1z" fill="rgb(0,0,0)"/>
<path d="M56 49h1v1h-1v-1z" fill="rgb(90,65,32)"/>
<path d="M57 49h1v1h1v1h-2v-2z" fill="rgb(205,156,82)"/>
<path d="M63 49h1v1h-1v-1z" fill="rgb(0,0,0)"/>
<path d="M17 50h1v1h-1v-1z" fill="rgb(0,0,0)"/>
<path d="M20 50h1v1h1v1h-2v-2z" fill="rgb(255,255,255)"/>
<path d="M21 50h1v1h-1v-1z" fill="rgb(0,0,0)"/>
<path d="M26 50h1v1h-1v-1z" fill="rgb(90,65,32)"/>
<path d="M27 50h1v1h-1v-1z" fill="rgb(0,0,0)"/>
<path d="M33 50h1v1h-1v-1z" fill="rgb(90,65,32)"/>
<path d="M40 50h1v1h-1v-1z" fill="rgb(164,123,90)"/>
<path d="M47 50h2v1h-1v1h-1v-2z" fill="rgb(164,123,90)"/>
<path d="M62 50h1v1h-1v-1z" fill="rgb(90,65,32)"/>
<path d="M17 51h1v1h-1v-1z" fill="rgb(90,65,32)"/>
<path d="M18 51h2v1h1v1h-2v-1h-1v-1z" fill="rgb(164,123,90)"/>
<path d="M22 51h1v1h-1v-1z" fill="rgb(164,123,90)"/>
<path d="M23 51h2v1h-2v-1z" fill="rgb(98,90,65)"/>
<path d="M25 51h1v1h-1v-1z" fill="rgb(90,65,32)"/>
<path d="M26 51h2v1h-2v-1z" fill="rgb(255,255,255)"/>
<path d="M28 51h1v1h-1v-1z" fill="rgb(213,205,205)"/>
<path d="M32 51h1v1h-1v-1z" fill="rgb(0,0,0)"/>
<path d="M53 51h1v1h-1v-1z" fill="rgb(164,123,90)"/>
<path d="M61 51h1v1h-1v-1z" fill="rgb(90,65,32)"/>
<path d="M62 51h1v1h-1v-1z" fill="rgb(0,0,0)"/>
<path d="M18 52h1v1h-1v-1z" fill="rgb(0,0,0)"/>
<path d="M21 52h1v1h-1v-1z" fill="rgb(205,156,82)"/>
<path d="M22 52h1v7h-1v-7z" fill="rgb(98,90,65)"/>
<path d="M23 52h1v1h1v1h1v3h-1v3h-1v4h-1v-1h-1v-3h1v-8z" fill="rgb(238,222,172)"/>
<path d="M24 52h1v1h-1v-1z" fill="rgb(180,164,123)"/>
<path d="M25 52h1v1h-1v-1z" fill="rgb(98,90,65)"/>
<path d="M31 52h1v1h-1v-1z" fill="rgb(90,65,32)"/>
<path d="M38 52h1v1h-1v-1z" fill="rgb(90,65,32)"/>
<path d="M42 52h1v1h-1v-1z" fill="rgb(164,123,90)"/>
<path d="M62 52h1v1h-1v-1z" fill="rgb(90,65,32)"/>
<path d="M19 53h1v1h-1v-1z" fill="rgb(0,0,0)"/>
<path d="M20 53h1v1h-1v-1z" fill="rgb(90,65,32)"/>
<path d="M21 53h1v1h-1v-1z" fill="rgb(164,123,90)"/>
<path d="M25 53h1v1h-1v-1z" fill="rgb(180,164,123)"/>
<path d="M26 53h1v1h-1v-1z" fill="rgb(98,90,65)"/>
<path d="M30 53h1v1h-1v-1z" fill="rgb(90,65,32)"/>
<path d="M31 53h1v1h-1v-1z" fill="rgb(0,0,0)"/>
<path d="M38 53h1v1h-1v-1z" fill="rgb(0,0,0)"/>
<path d="M39 53h1v2h-1v-2z" fill="rgb(90,65,32)"/>
<path d="M40 53h2v2h1v3h-2v-2h-2v-1h1v-2z" fill="rgb(164,123,90)"/>
<path d="M57 53h2v1h1v1h-2v-1h-1v-1z" fill="rgb(205,156,82)"/>
<path d="M63 53h1v1h-1v-1z" fill="rgb(0,0,0)"/>
<path d="M20 54h2v1h-2v-1z" fill="rgb(0,0,0)"/>
<path d="M26 54h1v1h1v1h-1v2h-1v-4z" fill="rgb(0,0,0)"/>
<path d="M28 54h1v1h-1v-1z" fill="rgb(90,65,32)"/>
<path d="M29 54h2v1h-2v-1z" fill="rgb(0,0,0)"/>
<path d="M43 54h1v2h-1v-2z" fill="rgb(90,65,32)"/>
<path d="M54 54h1v1h-1v-1z" fill="rgb(205,156,82)"/>
<path d="M62 54h1v2h-1v-2z" fill="rgb(0,0,0)"/>
<path d="M38 55h1v1h-1v-1z" fill="rgb(0,0,0)"/>
<path d="M50 55h1v1h-1v-1z" fill="rgb(90,65,32)"/>
<path d="M39 56h1v1h-1v-1z" fill="rgb(0,0,0)"/>
<path d="M40 56h1v1h-1v-1z" fill="rgb(90,65,32)"/>
<path d="M43 56h1v1h1v2h-1v-1h-1v-2z" fill="rgb(0,0,0)"/>
<path d="M50 56h1v1h-1v-1z" fill="rgb(0,0,0)"/>
<path d="M57 56h1v1h-1v-1z" fill="rgb(90,65,32)"/>
<path d="M62 56h3v1h-3v-1z" fill="rgb(180,65,65)"/>
<path d="M25 57h1v1h-1v-1z" fill="rgb(180,164,123)"/>
<path d="M40 57h1v2h-1v-2z" fill="rgb(0,0,0)"/>
<path d="M49 57h1v1h-1v-1z" fill="rgb(90,65,32)"/>
<path d="M50 57h1v3h1v1h2v-1h1v1h1v1h-1v1h-1v1h-2v-1h-1v-1h-1v-1h-2v-1h2v-3z" fill="rgb(131,131,131)"/>
<path d="M57 57h1v2h-1v-2z" fill="rgb(0,0,0)"/>
<path d="M61 57h1v2h-1v-2z" fill="rgb(0,0,0)"/>
<path d="M62 57h3v1h4v1h2v1h1v1h-1v1h-5v-1h-2v-1h-2v-3z" fill="rgb(246,131,164)"/>
<path d="M65 57h4v1h-4v-1z" fill="rgb(180,65,65)"/>
<path d="M25 58h1v1h-1v-1z" fill="rgb(98,90,65)"/>
<path d="M41 58h1v1h-1v-1z" fill="rgb(65,65,65)"/>
<path d="M42 58h1v2h-1v-2z" fill="rgb(0,0,0)"/>
<path d="M43 58h1v1h1v1h3v1h-1v1h-1v-1h-2v-1h-1v-2z" fill="rgb(65,65,65)"/>
<path d="M49 58h1v2h-1v-2z" fill="rgb(0,0,0)"/>
<path d="M51 58h1v1h-1v-1z" fill="rgb(90,65,32)"/>
<path d="M58 58h1v1h-1v-1z" fill="rgb(90,65,32)"/>
<path d="M69 58h7v1h-7v-1z" fill="rgb(180,65,65)"/>
<path d="M22 59h1v1h-1v-1z" fill="rgb(180,164,123)"/>
<path d="M25 59h1v2h-1v-2z" fill="rgb(0,0,0)"/>
<path d="M45 59h1v1h-1v-1z" fill="rgb(0,0,0)"/>
<path d="M47 59h1v1h-1v-1z" fill="rgb(0,0,0)"/>
<path d="M51 59h1v1h-1v-1z" fill="rgb(0,0,0)"/>
<path d="M54 59h1v1h-1v-1z" fill="rgb(90,65,32)"/>
<path d="M56 59h1v1h-1v-1z" fill="rgb(0,0,0)"/>
<path d="M57 59h2v3h-1v2h-1v2h-1v1h-1v-2h-1v-2h1v-1h1v-2h1v-1z" fill="rgb(65,65,65)"/>
<path d="M60 59h1v2h-1v-2z" fill="rgb(0,0,0)"/>
<path d="M61 59h1v1h-1v-1z" fill="rgb(180,65,65)"/>
<path d="M71 59h4v1h1v2h-1v1h-6v-1h2v-1h1v-1h-1v-1z" fill="rgb(255,213,230)"/>
<path d="M75 59h1v1h-1v-1z" fill="rgb(246,131,164)"/>
<path d="M76 59h1v1h-1v-1z" fill="rgb(180,65,65)"/>
<path d="M21 60h1v3h-1v-3z" fill="rgb(98,90,65)"/>
<path d="M24 60h1v1h-1v-1z" fill="rgb(180,164,123)"/>
<path d="M43 60h1v1h-1v-1z" fill="rgb(0,0,0)"/>
<path d="M52 60h2v1h-2v-1z" fill="rgb(0,0,0)"/>
<path d="M55 60h1v1h-1v-1z" fill="rgb(0,0,0)"/>
<path d="M59 60h1v1h-1v-1z" fill="rgb(90,65,32)"/>
<path d="M61 60h1v1h2v1h2v1h3v2h-5v-1h-2v-1h-1v-1h-1v-1h1v-1z" fill="rgb(246,131,164)"/>
<path d="M62 60h2v1h-2v-1z" fill="rgb(180,65,65)"/>
<path d="M76 60h1v2h-1v-2z" fill="rgb(0,0,0)"/>
<path d="M24 61h1v1h-1v-1z" fill="rgb(98,90,65)"/>
<path d="M44 61h2v1h-2v-1z" fill="rgb(0,0,0)"/>
<path d="M47 61h2v1h-2v-1z" fill="rgb(0,0,0)"/>
<path d="M49 61h1v1h-1v-1z" fill="rgb(65,65,65)"/>
<path d="M59 61h1v1h-1v-1z" fill="rgb(0,0,0)"/>
<path d="M64 61h2v1h-2v-1z" fill="rgb(180,65,65)"/>
<path d="M24 62h1v2h-1v-2z" fill="rgb(0,0,0)"/>
<path d="M46 62h1v1h-1v-1z" fill="rgb(0,0,0)"/>
<path d="M47 62h2v1h1v1h-1v1h-1v-2h-1v-1z" fill="rgb(65,65,65)"/>
<path d="M49 62h2v1h1v1h-1v3h-1v-4h-1v-1z" fill="rgb(0,0,0)"/>
<path d="M58 62h1v2h-1v-2z" fill="rgb(0,0,0)"/>
<path d="M59 62h1v1h-1v-1z" fill="rgb(246,131,164)"/>
<path d="M60 62h1v1h-1v-1z" fill="rgb(180,65,65)"/>
<path d="M66 62h3v1h-3v-1z" fill="rgb(180,65,65)"/>
<path d="M75 62h1v1h-1v-1z" fill="rgb(180,65,65)"/>
<path d="M22 63h1v1h-1v-1z" fill="rgb(98,90,65)"/>
<path d="M47 63h1v2h-1v-2z" fill="rgb(0,0,0)"/>
<path d="M59 63h1v1h-1v-1z" fill="rgb(180,65,65)"/>
<path d="M60 63h1v1h1v1h2v1h2v1h-4v-1h-1v-1h-1v-2z" fill="rgb(246,131,164)"/>
<path d="M61 63h1v1h-1v-1z" fill="rgb(180,65,65)"/>
<path d="M69 63h5v1h-5v-1z" fill="rgb(180,65,65)"/>
<path d="M74 63h2v2h-1v-1h-1v-1z" fill="rgb(0,0,0)"/>
<path d="M23 64h1v1h-1v-1z" fill="rgb(98,90,65)"/>
<path d="M49 64h1v3h-2v-1h-1v-1h2v-1z" fill="rgb(180,164,123)"/>
<path d="M52 64h2v1h-2v-1z" fill="rgb(0,0,0)"/>
<path d="M57 64h1v4h-1v-4z" fill="rgb(0,0,0)"/>
<path d="M59 64h1v1h-1v-1z" fill="rgb(0,0,0)"/>
<path d="M62 64h2v1h-2v-1z" fill="rgb(180,65,65)"/>
<path d="M69 64h6v1h-1v1h-7v-1h2v-1z" fill="rgb(255,213,230)"/>
<path d="M45 65h2v1h-2v-1z" fill="rgb(98,90,65)"/>
<path d="M54 65h1v2h-1v-2z" fill="rgb(0,0,0)"/>
<path d="M60 65h1v1h-1v-1z" fill="rgb(0,0,0)"/>
<path d="M64 65h3v1h-3v-1z" fill="rgb(180,65,65)"/>
<path d="M74 65h1v1h-1v-1z" fill="rgb(0,0,0)"/>
<path d="M43 66h2v1h-2v-1z" fill="rgb(98,90,65)"/>
<path d="M45 66h1v1h-1v-1z" fill="rgb(180,164,123)"/>
<path d="M46 66h2v1h-1v1h-2v1h-2v1h-1v1h-1v1h-1v1h-3v-1h1v-1h1v-1h2v-1h1v-1h2v-1h2v-1z" fill="rgb(238,222,172)"/>
<path d="M56 66h1v2h1v3h-2v-5z" fill="rgb(180,164,123)"/>
<path d="M61 66h1v1h-1v-1z" fill="rgb(0,0,0)"/>
<path d="M66 66h1v1h3v1h-1v1h-3v-1h-2v-1h2v-1z" fill="rgb(255,213,230)"/>
<path d="M67 66h5v1h-5v-1z" fill="rgb(180,65,65)"/>
<path d="M72 66h2v1h-2v-1z" fill="rgb(0,0,0)"/>
<path d="M42 67h1v1h-1v-1z" fill="rgb(98,90,65)"/>
<path d="M43 67h1v1h-1v-1z" fill="rgb(180,164,123)"/>
<path d="M47 67h1v1h-1v-1z" fill="rgb(98,90,65)"/>
<path d="M48 67h2v1h-2v-1z" fill="rgb(0,0,0)"/>
<path d="M55 67h1v4h-1v-4z" fill="rgb(0,0,0)"/>
<path d="M62 67h1v1h-1v-1z" fill="rgb(0,0,0)"/>
<path d="M63 67h1v1h-1v-1z" fill="rgb(180,65,65)"/>
<path d="M70 67h1v1h-1v-1z" fill="rgb(0,0,0)"/>
<path d="M41 68h1v1h-1v-1z" fill="rgb(98,90,65)"/>
<path d="M45 68h2v1h-2v-1z" fill="rgb(0,0,0)"/>
<path d="M58 68h1v3h-1v-3z" fill="rgb(0,0,0)"/>
<path d="M64 68h1v1h-1v-1z" fill="rgb(0,0,0)"/>
<path d="M65 68h1v1h-1v-1z" fill="rgb(180,65,65)"/>
<path d="M69 68h1v1h-1v-1z" fill="rgb(0,0,0)"/>
<path d="M36 69h5v1h-5v-1z" fill="rgb(98,90,65)"/>
<path d="M43 69h1v1h-1v-1z" fill="rgb(180,164,123)"/>
<path d="M44 69h1v1h-1v-1z" fill="rgb(0,0,0)"/>
<path d="M66 69h3v1h-3v-1z" fill="rgb(0,0,0)"/>
<path d="M34 70h2v1h-2v-1z" fill="rgb(98,90,65)"/>
<path d="M36 70h1v1h-1v-1z" fill="rgb(238,222,172)"/>
<path d="M37 70h2v1h-1v1h-2v-1h1v-1z" fill="rgb(180,164,123)"/>
<path d="M42 70h2v1h-1v1h-1v-2z" fill="rgb(65,65,65)"/>
<path d="M33 71h1v1h-1v-1z" fill="rgb(98,90,65)"/>
<path d="M34 71h2v1h-1v1h-2v-1h1v-1z" fill="rgb(238,222,172)"/>
<path d="M41 71h1v1h-1v-1z" fill="rgb(180,164,123)"/>
<path d="M54 71h1v3h-1v-3z" fill="rgb(98,90,65)"/>
<path d="M55 71h1v1h-1v-1z" fill="rgb(180,164,123)"/>
<path d="M56 71h1v3h-1v2h-1v5h1v1h-2v-1h-1v1h-2v1h-1v-2h-2v-1h1v-1h1v1h1v-1h1v-1h1v-2h1
	v-2h1v-2h1v-1z" fill="rgb(238,222,172)"/>
<path d="M57 71h1v1h-1v-1z" fill="rgb(98,90,65)"/>
<path d="M32 72h1v1h-1v-1z" fill="rgb(98,90,65)"/>
<path d="M35 72h1v1h-1v-1z" fill="rgb(180,164,123)"/>
<path d="M36 72h1v1h-1v-1z" fill="rgb(98,90,65)"/>
<path d="M40 72h1v1h-1v-1z" fill="rgb(180,164,123)"/>
<path d="M41 72h2v1h-2v-1z" fill="rgb(255,255,255)"/>
<path d="M43 72h1v2h-1v-2z" fill="rgb(65,65,65)"/>
<path d="M57 72h1v2h-1v-2z" fill="rgb(0,0,0)"/>
<path d="M32 73h1v2h-1v-2z" fill="rgb(0,0,0)"/>
<path d="M33 73h1v1h-1v-1z" fill="rgb(98,90,65)"/>
<path d="M34 73h1v2h-1v-2z" fill="rgb(180,164,123)"/>
<path d="M35 73h1v2h-1v-2z" fill="rgb(98,90,65)"/>
<path d="M36 73h1v1h-1v-1z" fill="rgb(238,222,172)"/>
<path d="M37 73h1v1h-1v-1z" fill="rgb(180,164,123)"/>
<path d="M38 73h1v1h-1v-1z" fill="rgb(98,90,65)"/>
<path d="M39 73h2v1h-2v-1z" fill="rgb(0,0,0)"/>
<path d="M41 73h1v1h-1v-1z" fill="rgb(65,65,65)"/>
<path d="M42 73h1v1h-1v-1z" fill="rgb(213,205,205)"/>
<path d="M33 74h1v1h-1v-1z" fill="rgb(255,255,255)"/>
<path d="M36 74h1v1h-1v-1z" fill="rgb(180,164,123)"/>
<path d="M37 74h1v1h-1v-1z" fill="rgb(255,255,255)"/>
<path d="M38 74h1v1h-1v-1z" fill="rgb(0,0,0)"/>
<path d="M42 74h2v1h-2v-1z" fill="rgb(0,0,0)"/>
<path d="M53 74h1v2h-1v-2z" fill="rgb(98,90,65)"/>
<path d="M56 74h1v1h-1v-1z" fill="rgb(98,90,65)"/>
<path d="M33 75h1v1h-1v-1z" fill="rgb(0,0,0)"/>
<path d="M34 75h1v1h-1v-1z" fill="rgb(255,255,255)"/>
<path d="M35 75h1v1h-1v-1z" fill="rgb(213,205,205)"/>
<path d="M36 75h1v1h-1v-1z" fill="rgb(131,131,131)"/>
<path d="M37 75h1v1h-1v-1z" fill="rgb(213,205,205)"/>
<path d="M38 75h1v1h-1v-1z" fill="rgb(255,255,255)"/>
<path d="M39 75h1v2h-2v-1h1v-1z" fill="rgb(0,0,0)"/>
<path d="M56 75h1v1h-1v-1z" fill="rgb(0,0,0)"/>
<path d="M34 76h1v1h-1v-1z" fill="rgb(131,131,131)"/>
<path d="M35 76h1v1h-1v-1z" fill="rgb(0,0,0)"/>
<path d="M37 76h1v1h-1v-1z" fill="rgb(131,131,131)"/>
<path d="M52 76h1v1h-1v-1z" fill="rgb(98,90,65)"/>
<path d="M55 76h1v3h-1v-3z" fill="rgb(98,90,65)"/>
<path d="M51 77h1v1h-1v-1z" fill="rgb(98,90,65)"/>
<path d="M52 77h1v1h-1v-1z" fill="rgb(180,164,123)"/>
<path d="M56 77h1v1h-1v-1z" fill="rgb(65,65,65)"/>
<path d="M49 78h2v1h-2v-1z" fill="rgb(98,90,65)"/>
<path d="M51 78h1v1h-1v-1z" fill="rgb(180,164,123)"/>
<path d="M56 78h1v1h-1v-1z" fill="rgb(213,205,205)"/>
<path d="M57 78h1v1h-1v-1z" fill="rgb(65,65,65)"/>
<path d="M46 79h2v1h-2v-1z" fill="rgb(98,90,65)"/>
<path d="M48 79h1v1h-1v-1z" fill="rgb(180,164,123)"/>
<path d="M50 79h1v1h-1v-1z" fill="rgb(180,164,123)"/>
<path d="M55 79h1v1h-1v-1z" fill="rgb(180,164,123)"/>
<path d="M56 79h1v1h-1v-1z" fill="rgb(0,0,0)"/>
<path d="M45 80h1v1h-1v-1z" fill="rgb(131,131,131)"/>
<path d="M46 80h1v1h-1v-1z" fill="rgb(213,205,205)"/>
<path d="M47 80h1v2h-1v-2z" fill="rgb(180,164,123)"/>
<path d="M55 80h1v1h-1v-1z" fill="rgb(65,65,65)"/>
<path d="M44 81h1v1h-1v-1z" fill="rgb(131,131,131)"/>
<path d="M45 81h2v1h-1v1h-1v-2z" fill="rgb(255,255,255)"/>
<path d="M48 81h1v1h-1v-1z" fill="rgb(0,0,0)"/>
<path d="M49 81h1v1h-1v-1z" fill="rgb(98,90,65)"/>
<path d="M53 81h1v1h-1v-1z" fill="rgb(180,164,123)"/>
<path d="M56 81h1v1h-1v-1z" fill="rgb(65,65,65)"/>
<path d="M44 82h1v1h1v1h-2v-2z" fill="rgb(0,0,0)"/>
<path d="M46 82h2v1h-2v-1z" fill="rgb(0,0,0)"/>
<path d="M48 82h1v1h-1v-1z" fill="rgb(65,65,65)"/>
<path d="M49 82h1v1h-1v-1z" fill="rgb(180,164,123)"/>
<path d="M51 82h1v1h-1v-1z" fill="rgb(180,164,123)"/>
<path d="M52 82h2v1h-2v-1z" fill="rgb(0,0,0)"/>
<path d="M54 82h2v1h-2v-1z" fill="rgb(180,164,123)"/>
<path d="M56 82h1v1h-1v-1z" fill="rgb(98,90,65)"/>
<path d="M47 83h1v1h-1v-1z" fill="rgb(131,131,131)"/>
<path d="M48 83h1v1h-1v-1z" fill="rgb(213,205,205)"/>
<path d="M49 83h1v1h-1v-1z" fill="rgb(255,255,255)"/>
<path d="M50 83h1v1h-1v-1z" fill="rgb(180,164,123)"/>
<path d="M51 83h1v1h-1v-1z" fill="rgb(0,0,0)"/>
<path d="M54 83h1v2h-1v-2z" fill="rgb(0,0,0)"/>
<path d="M55 83h1v1h-1v-1z" fill="rgb(255,255,255)"/>
<path d="M56 83h1v1h-1v-1z" fill="rgb(213,205,205)"/>
<path d="M57 83h1v1h-1v-1z" fill="rgb(98,90,65)"/>
<path d="M47 84h1v2h-1v-2z" fill="rgb(65,65,65)"/>
<path d="M48 84h1v1h-1v-1z" fill="rgb(255,255,255)"/>
<path d="M49 84h1v1h-1v-1z" fill="rgb(213,205,205)"/>
<path d="M50 84h1v1h-1v-1z" fill="rgb(0,0,0)"/>
<path d="M55 84h1v1h-1v-1z" fill="rgb(213,205,205)"/>
<path d="M56 84h1v1h-1v-1z" fill="rgb(255,255,255)"/>
<path d="M57 84h1v1h-1v-1z" fill="rgb(65,65,65)"/>
<path d="M48 85h1v1h-1v-1z" fill="rgb(213,205,205)"/>
<path d="M49 85h1v1h-1v-1z" fill="rgb(0,0,0)"/>
<path d="M55 85h1v1h-1v-1z" fill="rgb(0,0,0)"/>
<path d="M56 85h1v1h-1v-1z" fill="rgb(213,205,205)"/>
<path d="M57 85h1v1h-1v-1z" fill="rgb(0,0,0)"/>
<path d="M47 86h2v1h-2v-1z" fill="rgb(0,0,0)"/>
<path d="M56 86h1v1h-1v-1z" fill="rgb(0,0,0)"/>
</svg>
