<?xml version="1.0" encoding="utf-8"?>
<!-- generated at drububu.com  -->
<!DOCTYPE svg PUBLIC "-//W3C//DTD SVG 1.1//EN" "http://www.w3.org/Graphics/SVG/1.1/DTD/svg11.dtd">
<svg version="1.1" preserveAspectRatio="xMinYMin meet" xmlns="http://www.w3.org/2000/svg" xmlns:xlink="http://www.w3.org/1999/xlink" x="0px" y="0px" width="96px" height="96px" viewBox="0 0 96 96">
<path d="M0 0h96v96h-96v-96z" fill="transparent"/>
<path d="M42 26h1v1h-1v-1z" fill="rgb(65,82,131)"/>
<path d="M41 27h1v1h-1v-1z" fill="rgb(65,82,131)"/>
<path d="M42 27h1v6h1v1h1v-1h5v3h1v1h1v4h-1v2h-2v-1h-1v-5h1v-1h-1v-1h-3v1h-1v5h-2v1h-1
	v-1h-1v-1h-2v1h-1v-2h1v-3h1v-1h-1v-1h-1v-1h2v-1h2v-3h1v-2z" fill="rgb(230,230,246)"/>
<path d="M43 27h1v2h-1v-2z" fill="rgb(65,82,131)"/>
<path d="M41 28h1v1h-1v-1z" fill="rgb(148,156,180)"/>
<path d="M40 29h1v2h-1v-2z" fill="rgb(65,82,131)"/>
<path d="M43 29h1v2h1v3h-1v-1h-1v-4z" fill="rgb(213,205,238)"/>
<path d="M44 29h1v1h-1v-1z" fill="rgb(16,16,16)"/>
<path d="M44 30h1v1h-1v-1z" fill="rgb(65,82,131)"/>
<path d="M39 31h1v1h-1v-1z" fill="rgb(65,82,131)"/>
<path d="M40 31h1v1h-1v-1z" fill="rgb(148,156,180)"/>
<path d="M45 31h2v1h-2v-1z" fill="rgb(16,16,16)"/>
<path d="M47 31h1v1h-1v-1z" fill="rgb(65,82,131)"/>
<path d="M37 32h1v1h-1v-1z" fill="rgb(65,82,131)"/>
<path d="M38 32h1v1h-1v-1z" fill="rgb(148,156,180)"/>
<path d="M45 32h1v1h-1v-1z" fill="rgb(148,156,180)"/>
<path d="M46 32h2v1h-2v-1z" fill="rgb(213,205,238)"/>
<path d="M48 32h2v1h-2v-1z" fill="rgb(65,82,131)"/>
<path d="M36 33h1v1h-1v-1z" fill="rgb(65,82,131)"/>
<path d="M50 33h1v1h-1v-1z" fill="rgb(65,82,131)"/>
<path d="M35 34h1v1h-1v-1z" fill="rgb(65,82,131)"/>
<path d="M36 34h2v1h-2v-1z" fill="rgb(148,156,180)"/>
<path d="M50 34h1v1h1v2h-1v-1h-1v-2z" fill="rgb(213,205,238)"/>
<path d="M51 34h1v1h-1v-1z" fill="rgb(65,82,131)"/>
<path d="M34 35h1v2h-1v-2z" fill="rgb(65,82,131)"/>
<path d="M35 35h1v1h-1v-1z" fill="rgb(148,156,180)"/>
<path d="M36 35h2v1h-2v-1z" fill="rgb(230,230,246)"/>
<path d="M38 35h1v1h-1v-1z" fill="rgb(213,205,238)"/>
<path d="M45 35h2v1h-2v-1z" fill="rgb(148,156,180)"/>
<path d="M47 35h1v1h-1v-1z" fill="rgb(65,82,131)"/>
<path d="M52 35h1v2h-1v-2z" fill="rgb(65,82,131)"/>
<path d="M35 36h1v1h-1v-1z" fill="rgb(230,230,246)"/>
<path d="M36 36h1v1h-1v-1z" fill="rgb(16,16,16)"/>
<path d="M37 36h1v1h-1v-1z" fill="rgb(148,156,180)"/>
<path d="M44 36h1v1h-1v-1z" fill="rgb(148,156,180)"/>
<path d="M45 36h3v1h-3v-1z" fill="rgb(230,230,246)"/>
<path d="M48 36h1v1h-1v-1z" fill="rgb(65,82,131)"/>
<path d="M34 37h1v1h-1v-1z" fill="rgb(148,156,180)"/>
<path d="M35 37h1v1h-1v-1z" fill="rgb(65,82,131)"/>
<path d="M36 37h1v1h-1v-1z" fill="rgb(255,255,255)"/>
<path d="M37 37h1v1h-1v-1z" fill="rgb(65,82,131)"/>
<path d="M44 37h1v1h-1v-1z" fill="rgb(213,205,238)"/>
<path d="M45 37h2v1h1v2h-1v-1h-1v-1h-1v-1z" fill="rgb(16,16,16)"/>
<path d="M47 37h1v1h-1v-1z" fill="rgb(213,205,238)"/>
<path d="M52 37h1v3h1v6h1v3h1v2h1v1h1v2h1v1h1v5h-1v1h-1v-1h-1v1h1v1h-3v1h-1v2h-2v-1h-1v1
	h1v1h1v1h1v1h-1v1h-2v1h-7v-1h-3v-1h-2v-1h3v-1h2v-1h1v-1h1v-1h1v-1h1v-4h-2v-1
	h-2v-1h-2v-1h-1v-1h-1v-1h-2v-1h3v-1h6v-1h2v-1h2v-1h1v-1h-1v-3h-1v-1h1v-2h1v-4z" fill="rgb(213,205,238)"/>
<path d="M53 37h1v2h-1v-2z" fill="rgb(16,16,16)"/>
<path d="M33 38h1v1h-1v-1z" fill="rgb(148,156,180)"/>
<path d="M34 38h1v2h-1v-2z" fill="rgb(230,230,246)"/>
<path d="M35 38h2v1h-2v-1z" fill="rgb(16,16,16)"/>
<path d="M37 38h1v1h-1v-1z" fill="rgb(148,156,180)"/>
<path d="M44 38h1v2h-1v-2z" fill="rgb(65,82,131)"/>
<path d="M45 38h1v1h-1v-1z" fill="rgb(255,255,255)"/>
<path d="M33 39h1v1h-1v-1z" fill="rgb(65,82,131)"/>
<path d="M35 39h1v1h-1v-1z" fill="rgb(148,156,180)"/>
<path d="M36 39h1v1h-1v-1z" fill="rgb(65,82,131)"/>
<path d="M45 39h1v1h-1v-1z" fill="rgb(16,16,16)"/>
<path d="M46 39h1v2h-2v-1h1v-1z" fill="rgb(65,82,131)"/>
<path d="M53 39h1v1h-1v-1z" fill="rgb(65,82,131)"/>
<path d="M62 39h4v1h-4v-1z" fill="rgb(65,82,131)"/>
<path d="M33 40h3v1h-3v-1z" fill="rgb(106,90,16)"/>
<path d="M36 40h1v1h-1v-1z" fill="rgb(148,156,180)"/>
<path d="M38 40h1v1h-1v-1z" fill="rgb(65,82,131)"/>
<path d="M39 40h1v1h-1v-1z" fill="rgb(148,156,180)"/>
<path d="M44 40h1v1h-1v-1z" fill="rgb(213,205,238)"/>
<path d="M47 40h1v1h-1v-1z" fill="rgb(213,205,238)"/>
<path d="M54 40h1v5h-1v-5z" fill="rgb(16,16,16)"/>
<path d="M61 40h1v1h-1v-1z" fill="rgb(65,82,131)"/>
<path d="M62 40h2v1h-2v-1z" fill="rgb(148,156,180)"/>
<path d="M64 40h2v1h-2v-1z" fill="rgb(213,205,238)"/>
<path d="M66 40h1v1h-1v-1z" fill="rgb(148,156,180)"/>
<path d="M67 40h1v1h-1v-1z" fill="rgb(65,82,131)"/>
<path d="M32 41h1v1h-1v-1z" fill="rgb(106,90,16)"/>
<path d="M33 41h1v1h-1v-1z" fill="rgb(180,148,65)"/>
<path d="M34 41h2v1h1v1h5v-1h5v1h-2v1h-1v1h-4v-1h-6v-1h-1v-1h1v-1z" fill="rgb(246,230,189)"/>
<path d="M36 41h1v1h-1v-1z" fill="rgb(180,148,65)"/>
<path d="M37 41h3v1h-3v-1z" fill="rgb(16,16,16)"/>
<path d="M40 41h1v1h-1v-1z" fill="rgb(213,205,238)"/>
<path d="M42 41h1v1h-1v-1z" fill="rgb(148,156,180)"/>
<path d="M43 41h5v1h-5v-1z" fill="rgb(180,148,65)"/>
<path d="M60 41h1v1h-1v-1z" fill="rgb(148,156,180)"/>
<path d="M61 41h2v1h-2v-1z" fill="rgb(230,230,246)"/>
<path d="M63 41h1v1h-1v-1z" fill="rgb(213,205,238)"/>
<path d="M64 41h2v1h-2v-1z" fill="rgb(148,156,180)"/>
<path d="M66 41h2v2h1v2h-1v1h-1v1h-1v-2h-1v-1h1v-1h1v-1h-1v-1z" fill="rgb(213,205,238)"/>
<path d="M68 41h1v1h-1v-1z" fill="rgb(65,82,131)"/>
<path d="M31 42h1v2h-1v-2z" fill="rgb(65,82,131)"/>
<path d="M32 42h1v1h-1v-1z" fill="rgb(148,156,180)"/>
<path d="M37 42h1v1h-1v-1z" fill="rgb(222,197,115)"/>
<path d="M38 42h1v1h-1v-1z" fill="rgb(106,90,16)"/>
<path d="M39 42h2v1h-2v-1z" fill="rgb(180,148,65)"/>
<path d="M41 42h1v1h-1v-1z" fill="rgb(222,197,115)"/>
<path d="M47 42h1v1h-1v-1z" fill="rgb(222,197,115)"/>
<path d="M48 42h1v1h-1v-1z" fill="rgb(106,90,16)"/>
<path d="M59 42h1v1h-1v-1z" fill="rgb(148,156,180)"/>
<path d="M60 42h1v1h-1v-1z" fill="rgb(65,82,131)"/>
<path d="M61 42h2v1h-2v-1z" fill="rgb(148,156,180)"/>
<path d="M63 42h2v1h-2v-1z" fill="rgb(230,230,246)"/>
<path d="M65 42h1v1h-1v-1z" fill="rgb(213,205,238)"/>
<path d="M66 42h1v1h-1v-1z" fill="rgb(148,156,180)"/>
<path d="M68 42h1v1h-1v-1z" fill="rgb(148,156,180)"/>
<path d="M32 43h1v2h-1v-2z" fill="rgb(255,255,255)"/>
<path d="M33 43h1v1h-1v-1z" fill="rgb(65,82,131)"/>
<path d="M45 43h2v1h-2v-1z" fill="rgb(148,156,180)"/>
<path d="M47 43h2v1h-1v1h-1v-2z" fill="rgb(246,230,189)"/>
<path d="M49 43h1v1h-1v-1z" fill="rgb(106,90,16)"/>
<path d="M58 43h1v1h-1v-1z" fill="rgb(148,156,180)"/>
<path d="M59 43h1v1h-1v-1z" fill="rgb(213,205,238)"/>
<path d="M60 43h3v1h2v1h1v2h2v-1h1v-1h3v-1h4v1h1v1h-2v1h1v1h-2v1h-6v1h-2v-2h-1v-1h-1v-1
	h-3v-1h-2v-1h1v-1z" fill="rgb(230,230,246)"/>
<path d="M63 43h2v1h-2v-1z" fill="rgb(148,156,180)"/>
<path d="M65 43h1v1h-1v-1z" fill="rgb(230,230,246)"/>
<path d="M69 43h1v1h-1v-1z" fill="rgb(65,82,131)"/>
<path d="M72 43h4v1h-4v-1z" fill="rgb(65,82,131)"/>
<path d="M31 44h1v2h-1v-2z" fill="rgb(16,16,16)"/>
<path d="M33 44h1v2h-2v-1h1v-1z" fill="rgb(213,205,238)"/>
<path d="M34 44h1v1h-1v-1z" fill="rgb(65,82,131)"/>
<path d="M35 44h2v1h-2v-1z" fill="rgb(222,197,115)"/>
<path d="M37 44h2v1h-2v-1z" fill="rgb(106,90,16)"/>
<path d="M39 44h1v1h-1v-1z" fill="rgb(180,148,65)"/>
<path d="M44 44h1v1h-1v-1z" fill="rgb(148,156,180)"/>
<path d="M45 44h1v3h-2v-2h1v-1z" fill="rgb(255,255,255)"/>
<path d="M46 44h1v1h-1v-1z" fill="rgb(65,82,131)"/>
<path d="M48 44h2v3h-1v1h-1v1h-2v-1h1v-3h1v-1z" fill="rgb(222,197,115)"/>
<path d="M50 44h1v2h-1v-2z" fill="rgb(106,90,16)"/>
<path d="M58 44h1v1h-1v-1z" fill="rgb(65,82,131)"/>
<path d="M69 44h1v1h-1v-1z" fill="rgb(16,16,16)"/>
<path d="M70 44h1v1h-1v-1z" fill="rgb(65,82,131)"/>
<path d="M71 44h1v1h-1v-1z" fill="rgb(148,156,180)"/>
<path d="M76 44h1v1h-1v-1z" fill="rgb(148,156,180)"/>
<path d="M77 44h1v1h-1v-1z" fill="rgb(65,82,131)"/>
<path d="M34 45h1v1h-1v-1z" fill="rgb(16,16,16)"/>
<path d="M35 45h1v1h-1v-1z" fill="rgb(106,90,16)"/>
<path d="M36 45h3v1h-3v-1z" fill="rgb(213,115,90)"/>
<path d="M39 45h3v1h-3v-1z" fill="rgb(139,49,32)"/>
<path d="M42 45h1v1h-1v-1z" fill="rgb(222,197,115)"/>
<path d="M43 45h1v1h-1v-1z" fill="rgb(148,156,180)"/>
<path d="M46 45h1v3h-1v-3z" fill="rgb(16,16,16)"/>
<path d="M54 45h1v1h-1v-1z" fill="rgb(65,82,131)"/>
<path d="M58 45h1v1h-1v-1z" fill="rgb(16,16,16)"/>
<path d="M59 45h2v1h-2v-1z" fill="rgb(213,205,238)"/>
<path d="M68 45h1v1h-1v-1z" fill="rgb(65,82,131)"/>
<path d="M77 45h1v1h1v2h-1v-1h-3v-1h2v-1z" fill="rgb(213,205,238)"/>
<path d="M78 45h1v1h-1v-1z" fill="rgb(65,82,131)"/>
<path d="M32 46h1v1h-1v-1z" fill="rgb(16,16,16)"/>
<path d="M33 46h1v1h-1v-1z" fill="rgb(65,82,131)"/>
<path d="M34 46h1v1h-1v-1z" fill="rgb(222,197,115)"/>
<path d="M35 46h1v1h-1v-1z" fill="rgb(139,49,32)"/>
<path d="M36 46h2v2h1v-2h2v1h1v2h-1v1h-1v1h-4v-1h-1v-3h1v-1z" fill="rgb(255,172,172)"/>
<path d="M38 46h1v1h-1v-1z" fill="rgb(139,49,32)"/>
<path d="M41 46h1v1h-1v-1z" fill="rgb(213,115,90)"/>
<path d="M42 46h1v1h-1v-1z" fill="rgb(16,16,16)"/>
<path d="M43 46h1v1h-1v-1z" fill="rgb(65,82,131)"/>
<path d="M50 46h1v2h-1v-2z" fill="rgb(16,16,16)"/>
<path d="M52 46h1v1h-1v-1z" fill="rgb(148,156,180)"/>
<path d="M55 46h1v2h-1v-2z" fill="rgb(16,16,16)"/>
<path d="M59 46h1v1h-1v-1z" fill="rgb(16,16,16)"/>
<path d="M60 46h1v1h-1v-1z" fill="rgb(148,156,180)"/>
<path d="M61 46h3v1h-3v-1z" fill="rgb(213,205,238)"/>
<path d="M67 46h1v1h-1v-1z" fill="rgb(148,156,180)"/>
<path d="M79 46h1v1h-1v-1z" fill="rgb(65,82,131)"/>
<path d="M33 47h1v1h-1v-1z" fill="rgb(106,90,16)"/>
<path d="M34 47h1v3h-1v-3z" fill="rgb(139,49,32)"/>
<path d="M38 47h1v1h-1v-1z" fill="rgb(213,115,90)"/>
<path d="M42 47h1v3h-1v-3z" fill="rgb(139,49,32)"/>
<path d="M43 47h1v2h-1v-2z" fill="rgb(16,16,16)"/>
<path d="M44 47h1v1h-1v-1z" fill="rgb(213,205,238)"/>
<path d="M45 47h1v1h-1v-1z" fill="rgb(148,156,180)"/>
<path d="M49 47h1v1h-1v-1z" fill="rgb(106,90,16)"/>
<path d="M51 47h1v1h-1v-1z" fill="rgb(148,156,180)"/>
<path d="M60 47h2v1h-2v-1z" fill="rgb(16,16,16)"/>
<path d="M62 47h1v1h-1v-1z" fill="rgb(65,82,131)"/>
<path d="M63 47h1v1h-1v-1z" fill="rgb(148,156,180)"/>
<path d="M64 47h1v1h-1v-1z" fill="rgb(213,205,238)"/>
<path d="M76 47h2v1h-2v-1z" fill="rgb(148,156,180)"/>
<path d="M79 47h1v1h-1v-1z" fill="rgb(148,156,180)"/>
<path d="M80 47h1v1h-1v-1z" fill="rgb(65,82,131)"/>
<path d="M44 48h2v1h-2v-1z" fill="rgb(65,82,131)"/>
<path d="M48 48h1v1h-1v-1z" fill="rgb(180,148,65)"/>
<path d="M49 48h1v1h-1v-1z" fill="rgb(16,16,16)"/>
<path d="M50 48h1v1h-1v-1z" fill="rgb(148,156,180)"/>
<path d="M55 48h1v1h-1v-1z" fill="rgb(65,82,131)"/>
<path d="M63 48h1v1h-1v-1z" fill="rgb(16,16,16)"/>
<path d="M64 48h1v1h-1v-1z" fill="rgb(65,82,131)"/>
<path d="M65 48h1v1h-1v-1z" fill="rgb(213,205,238)"/>
<path d="M74 48h2v1h-2v-1z" fill="rgb(148,156,180)"/>
<path d="M76 48h2v1h1v1h1v1h-1v1h-1v-2h-1v-1h-1v-1z" fill="rgb(213,205,238)"/>
<path d="M78 48h1v1h-1v-1z" fill="rgb(148,156,180)"/>
<path d="M79 48h1v1h-1v-1z" fill="rgb(213,205,238)"/>
<path d="M80 48h1v3h-1v-3z" fill="rgb(16,16,16)"/>
<path d="M41 49h1v1h-1v-1z" fill="rgb(213,115,90)"/>
<path d="M43 49h3v1h-3v-1z" fill="rgb(180,148,65)"/>
<path d="M46 49h1v1h-1v-1z" fill="rgb(106,90,16)"/>
<path d="M47 49h2v1h-2v-1z" fill="rgb(16,16,16)"/>
<path d="M56 49h1v1h-1v-1z" fill="rgb(16,16,16)"/>
<path d="M65 49h1v1h-1v-1z" fill="rgb(16,16,16)"/>
<path d="M68 49h8v1h1v3h-3v-1h-1v-1h-1v-1h-2v1h-1v1h-2v1h-1v1h-1v-2h1v-2h2v-1z" fill="rgb(213,205,238)"/>
<path d="M76 49h1v1h-1v-1z" fill="rgb(148,156,180)"/>
<path d="M79 49h1v1h-1v-1z" fill="rgb(65,82,131)"/>
<path d="M35 50h1v1h-1v-1z" fill="rgb(139,49,32)"/>
<path d="M40 50h1v1h-1v-1z" fill="rgb(213,115,90)"/>
<path d="M41 50h1v1h-1v-1z" fill="rgb(139,49,32)"/>
<path d="M42 50h2v1h-2v-1z" fill="rgb(65,82,131)"/>
<path d="M44 50h3v1h-3v-1z" fill="rgb(148,156,180)"/>
<path d="M56 50h1v1h-1v-1z" fill="rgb(65,82,131)"/>
<path d="M65 50h1v1h-1v-1z" fill="rgb(65,82,131)"/>
<path d="M70 50h2v1h-2v-1z" fill="rgb(148,156,180)"/>
<path d="M77 50h1v1h-1v-1z" fill="rgb(148,156,180)"/>
<path d="M36 51h5v1h-5v-1z" fill="rgb(139,49,32)"/>
<path d="M57 51h1v1h-1v-1z" fill="rgb(16,16,16)"/>
<path d="M64 51h1v1h-1v-1z" fill="rgb(65,82,131)"/>
<path d="M65 51h1v1h-1v-1z" fill="rgb(148,156,180)"/>
<path d="M69 51h3v1h-3v-1z" fill="rgb(16,16,16)"/>
<path d="M72 51h1v1h-1v-1z" fill="rgb(65,82,131)"/>
<path d="M77 51h1v2h-1v-2z" fill="rgb(65,82,131)"/>
<path d="M79 51h1v1h-1v-1z" fill="rgb(148,156,180)"/>
<path d="M80 51h1v1h-1v-1z" fill="rgb(65,82,131)"/>
<path d="M37 52h1v1h-1v-1z" fill="rgb(148,156,180)"/>
<path d="M58 52h1v1h-1v-1z" fill="rgb(16,16,16)"/>
<path d="M63 52h1v1h-1v-1z" fill="rgb(65,82,131)"/>
<path d="M64 52h1v2h-1v1h1v-1h1v-1h1v-1h1v2h-1v6h-1v2h-5v-1h-2v-1h1v-5h-1v-1h4v-1h1v-1z" fill="rgb(148,156,180)"/>
<path d="M68 52h1v2h-1v-2z" fill="rgb(16,16,16)"/>
<path d="M73 52h1v1h-1v-1z" fill="rgb(16,16,16)"/>
<path d="M78 52h1v1h-1v-1z" fill="rgb(16,16,16)"/>
<path d="M79 52h1v1h-1v-1z" fill="rgb(65,82,131)"/>
<path d="M36 53h1v1h-1v-1z" fill="rgb(65,82,131)"/>
<path d="M37 53h3v1h1v1h1v1h2v1h2v1h2v4h-1v1h-1v1h-1v1h-1v1h-2v1h-3v-1h-1v-1h-2v-2h-1v-7
	h1v-2h1v-1z" fill="rgb(230,230,246)"/>
<path d="M58 53h1v1h-1v-1z" fill="rgb(148,156,180)"/>
<path d="M59 53h1v1h-1v-1z" fill="rgb(65,82,131)"/>
<path d="M60 53h3v1h-3v-1z" fill="rgb(16,16,16)"/>
<path d="M74 53h3v1h-3v-1z" fill="rgb(16,16,16)"/>
<path d="M35 54h1v2h-1v-2z" fill="rgb(65,82,131)"/>
<path d="M64 54h1v1h-1v-1z" fill="rgb(213,205,238)"/>
<path d="M67 54h1v6h-1v-6z" fill="rgb(16,16,16)"/>
<path d="M34 56h1v6h-1v-6z" fill="rgb(65,82,131)"/>
<path d="M32 60h2v1h-2v-1z" fill="rgb(148,156,180)"/>
<path d="M57 60h1v1h-1v-1z" fill="rgb(148,156,180)"/>
<path d="M66 60h1v1h-1v-1z" fill="rgb(65,82,131)"/>
<path d="M29 61h3v1h-3v-1z" fill="rgb(148,156,180)"/>
<path d="M32 61h2v1h-2v-1z" fill="rgb(213,205,238)"/>
<path d="M58 61h1v1h-1v-1z" fill="rgb(148,156,180)"/>
<path d="M59 61h2v1h-2v-1z" fill="rgb(65,82,131)"/>
<path d="M66 61h1v1h-1v-1z" fill="rgb(16,16,16)"/>
<path d="M27 62h2v1h-2v-1z" fill="rgb(148,156,180)"/>
<path d="M29 62h5v3h-2v1h-2v1h-2v-2h2v-1h-3v-1h2v-1z" fill="rgb(230,230,246)"/>
<path d="M34 62h1v1h-1v-1z" fill="rgb(148,156,180)"/>
<path d="M55 62h4v1h5v1h4v1h1v1h-2v-1h-2v1h1v1h-2v-1h-2v1h2v1h1v1h-5v-1h-2v-1h-2v-1h-1
	v-1h-1v-2h1v-1z" fill="rgb(230,230,246)"/>
<path d="M59 62h1v1h-1v-1z" fill="rgb(213,205,238)"/>
<path d="M60 62h1v1h-1v-1z" fill="rgb(148,156,180)"/>
<path d="M61 62h4v1h-4v-1z" fill="rgb(65,82,131)"/>
<path d="M65 62h1v1h-1v-1z" fill="rgb(16,16,16)"/>
<path d="M26 63h1v1h-1v-1z" fill="rgb(148,156,180)"/>
<path d="M30 63h2v1h-2v-1z" fill="rgb(148,156,180)"/>
<path d="M34 63h1v2h1v1h-1v1h-1v1h-2v1h-3v-1h-1v-1h2v-1h2v-1h2v-2z" fill="rgb(213,205,238)"/>
<path d="M35 63h1v1h-1v-1z" fill="rgb(65,82,131)"/>
<path d="M64 63h1v1h-1v-1z" fill="rgb(148,156,180)"/>
<path d="M65 63h3v1h-3v-1z" fill="rgb(65,82,131)"/>
<path d="M26 64h1v2h-1v-2z" fill="rgb(65,82,131)"/>
<path d="M27 64h1v1h-1v-1z" fill="rgb(213,205,238)"/>
<path d="M28 64h2v1h-2v-1z" fill="rgb(148,156,180)"/>
<path d="M35 64h1v1h-1v-1z" fill="rgb(148,156,180)"/>
<path d="M51 64h1v1h-1v-1z" fill="rgb(148,156,180)"/>
<path d="M68 64h1v1h-1v-1z" fill="rgb(65,82,131)"/>
<path d="M27 65h1v1h-1v-1z" fill="rgb(148,156,180)"/>
<path d="M36 65h1v1h-1v-1z" fill="rgb(65,82,131)"/>
<path d="M37 65h1v1h-1v-1z" fill="rgb(213,205,238)"/>
<path d="M52 65h1v1h-1v-1z" fill="rgb(65,82,131)"/>
<path d="M53 65h1v1h-1v-1z" fill="rgb(148,156,180)"/>
<path d="M54 65h1v1h-1v-1z" fill="rgb(213,205,238)"/>
<path d="M65 65h1v1h-1v-1z" fill="rgb(65,82,131)"/>
<path d="M66 65h1v1h-1v-1z" fill="rgb(148,156,180)"/>
<path d="M69 65h1v4h-1v-4z" fill="rgb(16,16,16)"/>
<path d="M27 66h1v2h-1v-2z" fill="rgb(65,82,131)"/>
<path d="M35 66h1v1h-1v-1z" fill="rgb(148,156,180)"/>
<path d="M36 66h2v1h-2v-1z" fill="rgb(16,16,16)"/>
<path d="M38 66h1v1h-1v-1z" fill="rgb(213,205,238)"/>
<path d="M53 66h1v1h-1v-1z" fill="rgb(16,16,16)"/>
<path d="M54 66h1v1h-1v-1z" fill="rgb(148,156,180)"/>
<path d="M55 66h1v1h-1v-1z" fill="rgb(213,205,238)"/>
<path d="M62 66h2v1h-2v-1z" fill="rgb(148,156,180)"/>
<path d="M66 66h1v1h-1v-1z" fill="rgb(213,205,238)"/>
<path d="M67 66h1v1h-1v-1z" fill="rgb(148,156,180)"/>
<path d="M68 66h1v3h-1v-3z" fill="rgb(213,205,238)"/>
<path d="M34 67h1v1h-1v-1z" fill="rgb(148,156,180)"/>
<path d="M35 67h1v1h-1v-1z" fill="rgb(16,16,16)"/>
<path d="M38 67h1v1h-1v-1z" fill="rgb(16,16,16)"/>
<path d="M54 67h2v1h-2v-1z" fill="rgb(65,82,131)"/>
<path d="M56 67h2v1h2v1h5v1h-1v1h-3v-1h-2v-1h-2v-1h-1v-1z" fill="rgb(213,205,238)"/>
<path d="M64 67h1v1h-1v-1z" fill="rgb(148,156,180)"/>
<path d="M65 67h1v1h-1v-1z" fill="rgb(213,205,238)"/>
<path d="M66 67h1v1h-1v-1z" fill="rgb(230,230,246)"/>
<path d="M67 67h1v3h-1v-3z" fill="rgb(65,82,131)"/>
<path d="M28 68h1v1h-1v-1z" fill="rgb(65,82,131)"/>
<path d="M32 68h1v1h-1v-1z" fill="rgb(65,82,131)"/>
<path d="M33 68h2v1h-2v-1z" fill="rgb(16,16,16)"/>
<path d="M39 68h2v1h-2v-1z" fill="rgb(16,16,16)"/>
<path d="M53 68h3v1h-3v-1z" fill="rgb(148,156,180)"/>
<path d="M56 68h1v1h-1v-1z" fill="rgb(16,16,16)"/>
<path d="M65 68h1v3h-1v-3z" fill="rgb(65,82,131)"/>
<path d="M66 68h1v2h-1v-2z" fill="rgb(213,205,238)"/>
<path d="M29 69h3v1h-3v-1z" fill="rgb(16,16,16)"/>
<path d="M41 69h3v1h-3v-1z" fill="rgb(16,16,16)"/>
<path d="M51 69h2v1h-2v-1z" fill="rgb(148,156,180)"/>
<path d="M53 69h3v1h-3v-1z" fill="rgb(16,16,16)"/>
<path d="M57 69h1v1h-1v-1z" fill="rgb(16,16,16)"/>
<path d="M58 69h1v1h-1v-1z" fill="rgb(65,82,131)"/>
<path d="M68 69h1v1h-1v-1z" fill="rgb(16,16,16)"/>
<path d="M44 70h9v1h-9v-1z" fill="rgb(16,16,16)"/>
<path d="M59 70h1v1h-1v-1z" fill="rgb(16,16,16)"/>
<path d="M60 70h1v1h-1v-1z" fill="rgb(65,82,131)"/>
<path d="M64 70h1v1h-1v-1z" fill="rgb(148,156,180)"/>
<path d="M66 70h1v1h-1v-1z" fill="rgb(16,16,16)"/>
<path d="M61 71h4v1h-4v-1z" fill="rgb(16,16,16)"/>
</svg>
