<?xml version="1.0" encoding="utf-8"?>
<!-- generated at drububu.com  -->
<!DOCTYPE svg PUBLIC "-//W3C//DTD SVG 1.1//EN" "http://www.w3.org/Graphics/SVG/1.1/DTD/svg11.dtd">
<svg version="1.1" preserveAspectRatio="xMinYMin meet" xmlns="http://www.w3.org/2000/svg" xmlns:xlink="http://www.w3.org/1999/xlink" x="0px" y="0px" width="96px" height="96px" viewBox="0 0 96 96">
<path d="M0 0h96v96h-96v-96z" fill="transparent"/>
<path d="M56 16h2v1h-2v-1z" fill="rgb(106,123,164)"/>
<path d="M55 17h1v2h-1v-2z" fill="rgb(106,123,164)"/>
<path d="M56 17h2v3h1v4h-2v-1h-1v-1h-1v-3h1v-2z" fill="rgb(230,230,246)"/>
<path d="M58 17h1v3h-1v-3z" fill="rgb(65,82,98)"/>
<path d="M54 19h1v1h-1v-1z" fill="rgb(106,123,164)"/>
<path d="M54 20h1v1h-1v-1z" fill="rgb(65,82,98)"/>
<path d="M59 20h1v2h-1v-2z" fill="rgb(106,123,164)"/>
<path d="M53 21h1v1h-1v-1z" fill="rgb(65,82,98)"/>
<path d="M54 21h1v1h1v2h-1v-1h-2v-1h1v-1z" fill="rgb(213,205,238)"/>
<path d="M52 22h1v1h-1v-1z" fill="rgb(106,123,164)"/>
<path d="M59 22h1v1h1v2h1v1h1v1h1v1h1v2h1v1h2v1h2v1h2v3h-2v-1h-2v-1h-1v-1h-2v-1h-2v-1h-6
	v-1h-3v-2h-1v-1h2v1h4v-1h2v-1h-2v-1h-1v-1h1v-2z" fill="rgb(213,205,238)"/>
<path d="M60 22h1v1h-1v-1z" fill="rgb(106,123,164)"/>
<path d="M50 23h2v1h-2v-1z" fill="rgb(156,164,189)"/>
<path d="M52 23h3v1h1v1h1v1h1v1h1v1h-4v-1h-2v1h1v2h3v1h1v1h-2v1h-3v1h-3v-2h1v-2h1v-3h-1
	v-1h-1v-2h2v-1z" fill="rgb(230,230,246)"/>
<path d="M56 23h1v1h-1v-1z" fill="rgb(156,164,189)"/>
<path d="M61 23h1v1h-1v-1z" fill="rgb(106,123,164)"/>
<path d="M49 24h1v2h-1v-2z" fill="rgb(156,164,189)"/>
<path d="M56 24h1v1h-1v-1z" fill="rgb(213,205,238)"/>
<path d="M57 24h1v1h-1v-1z" fill="rgb(156,164,189)"/>
<path d="M61 24h1v1h-1v-1z" fill="rgb(65,82,98)"/>
<path d="M57 25h1v1h-1v-1z" fill="rgb(213,205,238)"/>
<path d="M58 25h1v1h-1v-1z" fill="rgb(156,164,189)"/>
<path d="M62 25h1v1h-1v-1z" fill="rgb(65,82,98)"/>
<path d="M50 26h1v1h-1v-1z" fill="rgb(156,164,189)"/>
<path d="M58 26h1v1h-1v-1z" fill="rgb(213,205,238)"/>
<path d="M59 26h2v1h-2v-1z" fill="rgb(156,164,189)"/>
<path d="M63 26h1v1h-1v-1z" fill="rgb(65,82,98)"/>
<path d="M40 27h1v1h-1v-1z" fill="rgb(106,123,164)"/>
<path d="M41 27h1v1h-1v-1z" fill="rgb(65,82,98)"/>
<path d="M51 27h1v1h-1v-1z" fill="rgb(156,164,189)"/>
<path d="M64 27h1v1h-1v-1z" fill="rgb(16,16,16)"/>
<path d="M39 28h1v1h-1v-1z" fill="rgb(156,164,189)"/>
<path d="M40 28h1v2h-1v2h-1v1h2v1h2v1h1v2h1v4h-1v2h-1v1h-1v1h-3v1h-5v-1h-1v-1h-2v-1h-4
	v-1h-3v-1h-1v-2h1v-1h3v1h2v-1h1v-5h1v1h1v1h3v-1h1v-1h-1v-1h3v-2h1v-1h1v-1z" fill="rgb(230,230,246)"/>
<path d="M41 28h1v4h-1v-4z" fill="rgb(16,16,16)"/>
<path d="M51 28h1v2h-1v-2z" fill="rgb(106,123,164)"/>
<path d="M65 28h1v2h-1v-2z" fill="rgb(16,16,16)"/>
<path d="M38 29h1v1h-1v-1z" fill="rgb(156,164,189)"/>
<path d="M37 30h1v1h-1v-1z" fill="rgb(106,123,164)"/>
<path d="M40 30h1v2h-1v-2z" fill="rgb(213,205,238)"/>
<path d="M50 30h1v2h-1v-2z" fill="rgb(106,123,164)"/>
<path d="M66 30h1v1h-1v-1z" fill="rgb(65,82,98)"/>
<path d="M67 30h1v1h-1v-1z" fill="rgb(16,16,16)"/>
<path d="M32 31h1v1h-1v-1z" fill="rgb(106,123,164)"/>
<path d="M33 31h3v1h-3v-1z" fill="rgb(65,82,98)"/>
<path d="M36 31h1v1h-1v-1z" fill="rgb(106,123,164)"/>
<path d="M37 31h1v1h-1v-1z" fill="rgb(156,164,189)"/>
<path d="M58 31h2v1h-2v-1z" fill="rgb(156,164,189)"/>
<path d="M60 31h3v1h-3v-1z" fill="rgb(106,123,164)"/>
<path d="M68 31h2v1h-2v-1z" fill="rgb(16,16,16)"/>
<path d="M30 32h2v1h-2v-1z" fill="rgb(65,82,98)"/>
<path d="M32 32h1v1h-1v-1z" fill="rgb(230,230,246)"/>
<path d="M33 32h2v1h1v1h-1v1h-3v-1h-1v-1h2v-1z" fill="rgb(255,255,255)"/>
<path d="M39 32h1v1h-1v-1z" fill="rgb(213,205,238)"/>
<path d="M40 32h2v1h-2v-1z" fill="rgb(65,82,98)"/>
<path d="M49 32h1v2h-1v-2z" fill="rgb(156,164,189)"/>
<path d="M56 32h2v1h-2v-1z" fill="rgb(156,164,189)"/>
<path d="M58 32h5v1h2v2h-2v1h-1v1h-1v1h-1v2h-1v2h-1v1h-1v-3h1v-2h1v-1h1v-1h-3v1h-2v1h-3
	v-2h-1v-1h-1v-1h3v-1h5v-1z" fill="rgb(213,205,238)"/>
<path d="M63 32h2v1h-2v-1z" fill="rgb(106,123,164)"/>
<path d="M70 32h2v1h-2v-1z" fill="rgb(65,82,98)"/>
<path d="M29 33h1v1h-1v-1z" fill="rgb(65,82,98)"/>
<path d="M41 33h1v1h-1v-1z" fill="rgb(213,205,238)"/>
<path d="M42 33h1v1h-1v-1z" fill="rgb(65,82,98)"/>
<path d="M65 33h1v1h-1v-1z" fill="rgb(106,123,164)"/>
<path d="M66 33h1v1h-1v-1z" fill="rgb(65,82,98)"/>
<path d="M72 33h1v1h-1v-1z" fill="rgb(65,82,98)"/>
<path d="M28 34h1v1h-1v-1z" fill="rgb(65,82,98)"/>
<path d="M29 34h1v1h-1v-1z" fill="rgb(213,205,238)"/>
<path d="M43 34h1v1h-1v-1z" fill="rgb(65,82,98)"/>
<path d="M49 34h1v1h-1v-1z" fill="rgb(65,82,98)"/>
<path d="M65 34h3v1h-3v-1z" fill="rgb(16,16,16)"/>
<path d="M72 34h1v1h1v1h1v2h1v2h1v1h1v3h1v4h1v8h-1v3h-1v1h-1v1h-1v1h-1v1h-2v1h-2v1h-6v-1
	h-1v-2h-1v-1h-3v1h-1v-1h-1v-1h-1v-2h-1v-1h1v-1h1v-1h5v-1h1v-1h2v-1h1v-1h1v-1h1
	v-1h1v-1h1v-3h1v-8h-1v-1h1v-2z" fill="rgb(230,230,246)"/>
<path d="M73 34h1v1h-1v-1z" fill="rgb(65,82,98)"/>
<path d="M27 35h1v1h-1v-1z" fill="rgb(65,82,98)"/>
<path d="M28 35h1v1h-1v-1z" fill="rgb(255,255,255)"/>
<path d="M29 35h1v2h-1v2h-2v-1h-1v-2h3v-1z" fill="rgb(16,16,16)"/>
<path d="M44 35h1v1h-1v-1z" fill="rgb(65,82,98)"/>
<path d="M50 35h1v1h-1v-1z" fill="rgb(65,82,98)"/>
<path d="M63 35h2v1h-2v-1z" fill="rgb(16,16,16)"/>
<path d="M68 35h2v1h-2v-1z" fill="rgb(16,16,16)"/>
<path d="M74 35h1v1h-1v-1z" fill="rgb(65,82,98)"/>
<path d="M44 36h1v1h-1v-1z" fill="rgb(213,205,238)"/>
<path d="M45 36h1v2h-1v-2z" fill="rgb(65,82,98)"/>
<path d="M51 36h1v2h-1v-2z" fill="rgb(65,82,98)"/>
<path d="M57 36h3v1h-1v1h-1v2h-1v2h-1v-1h-1v-1h-2v-2h2v-1h2v-1z" fill="rgb(230,230,246)"/>
<path d="M62 36h1v1h-1v-1z" fill="rgb(16,16,16)"/>
<path d="M70 36h1v2h-1v-2z" fill="rgb(16,16,16)"/>
<path d="M75 36h1v1h-1v-1z" fill="rgb(65,82,98)"/>
<path d="M24 37h2v1h-2v-1z" fill="rgb(65,82,98)"/>
<path d="M29 37h1v1h-1v-1z" fill="rgb(131,123,123)"/>
<path d="M61 37h1v1h-1v-1z" fill="rgb(65,82,98)"/>
<path d="M71 37h1v1h-1v-1z" fill="rgb(213,205,238)"/>
<path d="M75 37h1v1h-1v-1z" fill="rgb(106,123,164)"/>
<path d="M76 37h1v2h-1v-2z" fill="rgb(65,82,98)"/>
<path d="M23 38h1v1h-1v-1z" fill="rgb(65,82,98)"/>
<path d="M38 38h2v1h1v2h-1v2h-2v-1h-1v-2h2v-1h-1v-1z" fill="rgb(16,16,16)"/>
<path d="M40 38h1v1h-1v-1z" fill="rgb(213,205,238)"/>
<path d="M45 38h1v3h1v2h1v3h1v2h1v2h1v2h1v1h1v2h-1v-1h-1v1h1v1h1v1h-1v1h1v-1h1v1h1v1h1
	v-1h1v2h1v1h1v1h-7v-1h-1v-1h-1v-2h-1v2h-2v1h2v1h2v1h4v1h-1v1h-2v-1h-2v-1h-1v1h-2
	v-1h-1v-1h-1v1h-1v2h1v2h1v1h1v1h1v1h1v1h2v1h1v1h2v1h5v1h5v1h-1v2h1v3h-1v1h-4
	v-1h-2v-1h-2v-1h-2v-1h-2v-1h-1v-1h-1v-1h-2v-1h-1v-2h-1v-2h-1v-2h-1v-3h-1v-3h-1v1
	h-3v-1h-2v-1h-1v-1h-1v-1h-1v-1h-1v-1h-1v-2h-1v-2h1v1h4v-1h-3v-1h-2v-3h1v1h5v-1
	h1v-1h1v-1h2v-1h-1v-1h3v-1h1v-1h1v-2h1v-3z" fill="rgb(213,205,238)"/>
<path d="M46 38h1v1h-1v-1z" fill="rgb(65,82,98)"/>
<path d="M52 38h1v2h-1v-2z" fill="rgb(106,123,164)"/>
<path d="M60 38h1v2h-1v-2z" fill="rgb(65,82,98)"/>
<path d="M71 38h1v5h-1v-5z" fill="rgb(16,16,16)"/>
<path d="M22 39h1v2h-1v-2z" fill="rgb(16,16,16)"/>
<path d="M29 39h1v1h-1v-1z" fill="rgb(156,164,189)"/>
<path d="M30 39h2v1h1v1h-2v-1h-1v-1z" fill="rgb(16,16,16)"/>
<path d="M32 39h1v1h-1v-1z" fill="rgb(213,205,238)"/>
<path d="M37 39h1v1h-1v-1z" fill="rgb(131,123,123)"/>
<path d="M38 39h1v1h-1v-1z" fill="rgb(255,255,255)"/>
<path d="M46 39h1v2h-1v-2z" fill="rgb(16,16,16)"/>
<path d="M76 39h1v1h-1v-1z" fill="rgb(213,205,238)"/>
<path d="M77 39h1v1h-1v-1z" fill="rgb(65,82,98)"/>
<path d="M30 40h1v1h-1v-1z" fill="rgb(156,164,189)"/>
<path d="M36 40h1v2h-1v-2z" fill="rgb(131,123,123)"/>
<path d="M53 40h2v1h-2v-1z" fill="rgb(106,123,164)"/>
<path d="M59 40h1v2h-1v-2z" fill="rgb(65,82,98)"/>
<path d="M77 40h1v1h-1v-1z" fill="rgb(16,16,16)"/>
<path d="M23 41h1v1h1v1h-2v-2z" fill="rgb(16,16,16)"/>
<path d="M40 41h1v1h-1v-1z" fill="rgb(131,123,123)"/>
<path d="M47 41h1v1h-1v-1z" fill="rgb(65,82,98)"/>
<path d="M55 41h1v1h-1v-1z" fill="rgb(106,123,164)"/>
<path d="M78 41h1v2h-1v-2z" fill="rgb(16,16,16)"/>
<path d="M25 42h1v1h-1v-1z" fill="rgb(65,82,98)"/>
<path d="M26 42h1v1h-1v-1z" fill="rgb(156,164,189)"/>
<path d="M37 42h1v1h-1v-1z" fill="rgb(213,205,238)"/>
<path d="M47 42h1v1h-1v-1z" fill="rgb(16,16,16)"/>
<path d="M56 42h1v1h-1v-1z" fill="rgb(106,123,164)"/>
<path d="M58 42h1v2h-2v-1h1v-1z" fill="rgb(65,82,98)"/>
<path d="M23 43h1v1h-1v-1z" fill="rgb(65,82,98)"/>
<path d="M24 43h2v2h-1v-1h-1v-1z" fill="rgb(213,205,205)"/>
<path d="M26 43h3v1h-3v-1z" fill="rgb(65,82,98)"/>
<path d="M29 43h2v1h-2v-1z" fill="rgb(16,16,16)"/>
<path d="M48 43h1v2h-1v-2z" fill="rgb(16,16,16)"/>
<path d="M71 43h1v1h-1v-1z" fill="rgb(65,82,98)"/>
<path d="M78 43h1v1h-1v-1z" fill="rgb(213,205,238)"/>
<path d="M79 43h1v1h-1v-1z" fill="rgb(65,82,98)"/>
<path d="M23 44h1v2h-1v-2z" fill="rgb(16,16,16)"/>
<path d="M24 44h1v2h-1v-2z" fill="rgb(255,255,255)"/>
<path d="M26 44h3v1h-3v-1z" fill="rgb(16,16,16)"/>
<path d="M29 44h2v2h-1v1h-1v-3z" fill="rgb(156,0,0)"/>
<path d="M31 44h1v1h-1v-1z" fill="rgb(16,16,16)"/>
<path d="M32 44h1v1h-1v-1z" fill="rgb(156,164,189)"/>
<path d="M70 44h1v3h-1v-3z" fill="rgb(65,82,98)"/>
<path d="M71 44h1v1h-1v-1z" fill="rgb(213,205,238)"/>
<path d="M79 44h1v3h-1v-3z" fill="rgb(16,16,16)"/>
<path d="M25 45h1v1h-1v-1z" fill="rgb(16,16,16)"/>
<path d="M26 45h1v1h-1v-1z" fill="rgb(156,164,189)"/>
<path d="M27 45h1v3h-1v-3z" fill="rgb(213,205,238)"/>
<path d="M28 45h1v1h-1v-1z" fill="rgb(65,82,98)"/>
<path d="M31 45h1v1h2v3h-3v-1h-1v-2h1v-1z" fill="rgb(213,41,32)"/>
<path d="M32 45h1v1h-1v-1z" fill="rgb(65,82,98)"/>
<path d="M33 45h1v1h-1v-1z" fill="rgb(16,16,16)"/>
<path d="M48 45h1v1h-1v-1z" fill="rgb(65,82,98)"/>
<path d="M24 46h1v1h-1v-1z" fill="rgb(16,16,16)"/>
<path d="M26 46h1v2h-1v-2z" fill="rgb(16,16,16)"/>
<path d="M28 46h1v1h-1v-1z" fill="rgb(106,123,164)"/>
<path d="M34 46h1v2h-1v-2z" fill="rgb(131,123,123)"/>
<path d="M35 46h1v1h-1v-1z" fill="rgb(65,82,98)"/>
<path d="M36 46h3v1h-1v1h-1v-1h-1v-1z" fill="rgb(16,16,16)"/>
<path d="M39 46h1v1h-1v-1z" fill="rgb(65,82,98)"/>
<path d="M49 46h1v2h-1v-2z" fill="rgb(16,16,16)"/>
<path d="M28 47h1v2h-1v-2z" fill="rgb(230,230,246)"/>
<path d="M29 47h1v1h-1v-1z" fill="rgb(65,82,98)"/>
<path d="M35 47h1v2h-1v-2z" fill="rgb(255,255,255)"/>
<path d="M36 47h1v1h-1v-1z" fill="rgb(213,205,205)"/>
<path d="M69 47h1v2h-1v-2z" fill="rgb(65,82,98)"/>
<path d="M70 47h1v1h-1v-1z" fill="rgb(213,205,238)"/>
<path d="M79 47h1v1h-1v-1z" fill="rgb(213,205,238)"/>
<path d="M80 47h1v4h-1v-4z" fill="rgb(65,82,98)"/>
<path d="M27 48h1v1h-1v-1z" fill="rgb(16,16,16)"/>
<path d="M29 48h1v1h-1v-1z" fill="rgb(213,205,238)"/>
<path d="M30 48h1v1h-1v-1z" fill="rgb(156,0,0)"/>
<path d="M34 48h1v1h1v1h-3v-1h1v-1z" fill="rgb(16,16,16)"/>
<path d="M36 48h1v1h-1v-1z" fill="rgb(16,16,16)"/>
<path d="M50 48h1v2h-1v-2z" fill="rgb(16,16,16)"/>
<path d="M28 49h1v2h-1v-2z" fill="rgb(16,16,16)"/>
<path d="M29 49h1v2h-1v-2z" fill="rgb(230,230,246)"/>
<path d="M31 49h1v1h-1v-1z" fill="rgb(106,123,164)"/>
<path d="M32 49h1v1h-1v-1z" fill="rgb(65,82,98)"/>
<path d="M68 49h1v1h-1v-1z" fill="rgb(65,82,98)"/>
<path d="M51 50h1v2h-1v-2z" fill="rgb(16,16,16)"/>
<path d="M67 50h1v1h-1v-1z" fill="rgb(106,123,164)"/>
<path d="M29 51h1v1h-1v-1z" fill="rgb(16,16,16)"/>
<path d="M66 51h1v1h-1v-1z" fill="rgb(106,123,164)"/>
<path d="M80 51h1v6h-1v-6z" fill="rgb(16,16,16)"/>
<path d="M28 52h1v3h-1v-3z" fill="rgb(65,82,98)"/>
<path d="M29 52h1v1h-1v-1z" fill="rgb(213,205,238)"/>
<path d="M30 52h1v1h-1v-1z" fill="rgb(16,16,16)"/>
<path d="M31 52h1v2h-1v-2z" fill="rgb(65,82,98)"/>
<path d="M52 52h1v1h-1v-1z" fill="rgb(16,16,16)"/>
<path d="M64 52h1v1h-1v-1z" fill="rgb(65,82,98)"/>
<path d="M65 52h1v1h-1v-1z" fill="rgb(106,123,164)"/>
<path d="M29 53h1v2h1v2h1v1h1v1h1v1h1v1h1v1h2v1h3v2h1v3h1v2h-1v1h-2v1h-1v1h-1v-1h-1v1h-1
	v-1h-1v-1h-1v1h-1v-1h-1v-1h-1v-1h-1v-2h-1v-4h-1v-7h1v-3z" fill="rgb(230,230,246)"/>
<path d="M32 53h2v1h-2v-1z" fill="rgb(16,16,16)"/>
<path d="M34 53h1v1h-1v-1z" fill="rgb(65,82,98)"/>
<path d="M53 53h2v1h-2v-1z" fill="rgb(65,82,98)"/>
<path d="M62 53h1v1h-1v-1z" fill="rgb(65,82,98)"/>
<path d="M63 53h1v1h-1v-1z" fill="rgb(106,123,164)"/>
<path d="M51 54h1v1h-1v-1z" fill="rgb(230,230,246)"/>
<path d="M53 54h1v1h-1v-1z" fill="rgb(230,230,246)"/>
<path d="M54 54h1v1h-1v-1z" fill="rgb(213,205,238)"/>
<path d="M55 54h7v1h-7v-1z" fill="rgb(65,82,98)"/>
<path d="M62 54h1v1h-1v-1z" fill="rgb(213,205,238)"/>
<path d="M27 55h1v2h-1v-2z" fill="rgb(65,82,98)"/>
<path d="M28 55h1v1h-1v-1z" fill="rgb(213,205,238)"/>
<path d="M52 55h1v1h-1v-1z" fill="rgb(230,230,246)"/>
<path d="M53 55h1v1h-1v-1z" fill="rgb(213,205,238)"/>
<path d="M54 55h1v1h-1v-1z" fill="rgb(230,230,246)"/>
<path d="M55 55h1v1h-1v-1z" fill="rgb(213,205,238)"/>
<path d="M56 55h1v1h-1v-1z" fill="rgb(230,230,246)"/>
<path d="M57 55h1v1h-1v-1z" fill="rgb(213,205,238)"/>
<path d="M53 56h1v1h-1v-1z" fill="rgb(230,230,246)"/>
<path d="M54 56h1v1h-1v-1z" fill="rgb(213,205,238)"/>
<path d="M55 56h1v1h-1v-1z" fill="rgb(230,230,246)"/>
<path d="M56 56h1v1h-1v-1z" fill="rgb(213,205,238)"/>
<path d="M79 56h1v1h-1v-1z" fill="rgb(213,205,238)"/>
<path d="M27 57h1v6h-1v-4h-1v-1h1v-1z" fill="rgb(16,16,16)"/>
<path d="M52 57h1v1h-1v-1z" fill="rgb(230,230,246)"/>
<path d="M54 57h1v1h-1v-1z" fill="rgb(230,230,246)"/>
<path d="M55 57h1v1h-1v-1z" fill="rgb(213,205,238)"/>
<path d="M79 57h1v3h-1v-3z" fill="rgb(16,16,16)"/>
<path d="M49 58h1v1h-1v-1z" fill="rgb(156,164,189)"/>
<path d="M55 58h1v1h-1v-1z" fill="rgb(230,230,246)"/>
<path d="M25 59h1v1h-1v-1z" fill="rgb(65,82,98)"/>
<path d="M26 59h1v4h-1v2h-1v1h-2v1h-2v1h-3v1h-2v-2h2v-1h2v-1h2v-1h1v-1h1v-1h1v-1h1v-2z" fill="rgb(230,230,246)"/>
<path d="M49 59h1v1h-1v-1z" fill="rgb(106,123,164)"/>
<path d="M78 59h1v1h-1v-1z" fill="rgb(213,205,238)"/>
<path d="M24 60h1v1h-1v-1z" fill="rgb(106,123,164)"/>
<path d="M25 60h1v1h-1v-1z" fill="rgb(213,205,238)"/>
<path d="M47 60h2v1h-2v-1z" fill="rgb(65,82,98)"/>
<path d="M49 60h1v1h-1v-1z" fill="rgb(213,205,238)"/>
<path d="M50 60h1v1h-1v-1z" fill="rgb(106,123,164)"/>
<path d="M77 60h1v3h-1v2h-1v2h-1v1h-1v2h-1v1h-1v1h-1v1h-1v1h-2v1h-2v-2h1v-4h-1v-1h-2v-1
	h-1v-2h1v-1h1v1h6v-1h2v-1h2v-1h1v-1h1v-1z" fill="rgb(213,205,238)"/>
<path d="M78 60h1v3h-1v-3z" fill="rgb(16,16,16)"/>
<path d="M24 61h1v1h-1v-1z" fill="rgb(65,82,98)"/>
<path d="M49 61h2v1h-2v-1z" fill="rgb(65,82,98)"/>
<path d="M51 61h1v1h-1v-1z" fill="rgb(106,123,164)"/>
<path d="M60 61h3v1h-3v-1z" fill="rgb(156,164,189)"/>
<path d="M23 62h1v1h-1v-1z" fill="rgb(65,82,98)"/>
<path d="M41 62h1v2h-1v-2z" fill="rgb(106,123,164)"/>
<path d="M45 62h1v1h1v1h3v1h2v1h2v1h5v-1h-3v-1h-2v-1h1v-1h5v-1h3v3h-1v2h1v1h1v1h2v4h-1v2
	h-1v-1h-5v-1h-3v-1h-2v-1h-1v1h1v1h-2v-1h-1v-1h-1v-1h-1v-1h-1v-1h-1v-2h-1v-2h-1
	v-2z" fill="rgb(230,230,246)"/>
<path d="M51 62h1v1h-1v-1z" fill="rgb(156,164,189)"/>
<path d="M52 62h1v1h-1v-1z" fill="rgb(106,123,164)"/>
<path d="M53 62h2v1h-2v-1z" fill="rgb(65,82,98)"/>
<path d="M55 62h3v1h-3v-1z" fill="rgb(106,123,164)"/>
<path d="M58 62h2v1h-2v-1z" fill="rgb(156,164,189)"/>
<path d="M63 62h1v1h-1v-1z" fill="rgb(106,123,164)"/>
<path d="M22 63h1v1h-1v-1z" fill="rgb(106,123,164)"/>
<path d="M26 63h2v1h-1v1h-1v-2z" fill="rgb(65,82,98)"/>
<path d="M28 63h1v1h-1v-1z" fill="rgb(213,205,238)"/>
<path d="M44 63h1v1h-1v-1z" fill="rgb(156,164,189)"/>
<path d="M49 63h1v1h-1v-1z" fill="rgb(156,164,189)"/>
<path d="M63 63h1v2h-1v-2z" fill="rgb(16,16,16)"/>
<path d="M77 63h1v2h-1v-2z" fill="rgb(16,16,16)"/>
<path d="M20 64h2v1h-2v-1z" fill="rgb(106,123,164)"/>
<path d="M27 64h1v6h-1v1h-1v2h-1v2h-1v-1h-1v-1h-3v-4h-2v-1h3v1h1v-1h2v-1h1v-1h1v-1h1v-1z" fill="rgb(213,205,238)"/>
<path d="M28 64h1v1h-1v-1z" fill="rgb(65,82,98)"/>
<path d="M41 64h1v1h-1v-1z" fill="rgb(65,82,98)"/>
<path d="M44 64h1v1h-1v-1z" fill="rgb(106,123,164)"/>
<path d="M45 64h1v1h-1v-1z" fill="rgb(213,205,238)"/>
<path d="M50 64h2v1h-2v-1z" fill="rgb(106,123,164)"/>
<path d="M18 65h2v1h-2v-1z" fill="rgb(106,123,164)"/>
<path d="M25 65h1v1h-1v-1z" fill="rgb(65,82,98)"/>
<path d="M28 65h1v3h-1v-3z" fill="rgb(16,16,16)"/>
<path d="M42 65h1v1h-1v-1z" fill="rgb(106,123,164)"/>
<path d="M45 65h1v2h-1v-2z" fill="rgb(106,123,164)"/>
<path d="M52 65h2v1h-2v-1z" fill="rgb(106,123,164)"/>
<path d="M54 65h1v1h-1v-1z" fill="rgb(156,164,189)"/>
<path d="M55 65h1v1h-1v-1z" fill="rgb(213,205,238)"/>
<path d="M62 65h1v1h-1v-1z" fill="rgb(16,16,16)"/>
<path d="M76 65h1v2h-1v-2z" fill="rgb(16,16,16)"/>
<path d="M16 66h2v1h-2v-1z" fill="rgb(156,164,189)"/>
<path d="M23 66h1v1h-1v-1z" fill="rgb(213,205,238)"/>
<path d="M24 66h1v1h-1v-1z" fill="rgb(106,123,164)"/>
<path d="M42 66h1v2h-1v-2z" fill="rgb(65,82,98)"/>
<path d="M46 66h1v1h-1v-1z" fill="rgb(213,205,238)"/>
<path d="M54 66h1v1h-1v-1z" fill="rgb(213,205,238)"/>
<path d="M55 66h3v1h-3v-1z" fill="rgb(156,164,189)"/>
<path d="M58 66h1v1h-1v-1z" fill="rgb(213,205,238)"/>
<path d="M62 66h1v1h-1v-1z" fill="rgb(65,82,98)"/>
<path d="M15 67h1v1h-1v-1z" fill="rgb(156,164,189)"/>
<path d="M21 67h1v1h-1v-1z" fill="rgb(213,205,238)"/>
<path d="M22 67h2v1h-2v-1z" fill="rgb(156,164,189)"/>
<path d="M29 67h1v1h-1v-1z" fill="rgb(213,205,238)"/>
<path d="M46 67h1v1h-1v-1z" fill="rgb(106,123,164)"/>
<path d="M63 67h1v1h-1v-1z" fill="rgb(65,82,98)"/>
<path d="M75 67h1v2h-1v-2z" fill="rgb(16,16,16)"/>
<path d="M15 68h1v1h-1v-1z" fill="rgb(65,82,98)"/>
<path d="M21 68h1v1h-1v-1z" fill="rgb(156,164,189)"/>
<path d="M28 68h1v1h-1v-1z" fill="rgb(65,82,98)"/>
<path d="M29 68h1v2h-1v-2z" fill="rgb(16,16,16)"/>
<path d="M43 68h1v2h-1v-2z" fill="rgb(65,82,98)"/>
<path d="M47 68h1v1h-1v-1z" fill="rgb(156,164,189)"/>
<path d="M64 68h2v1h-2v-1z" fill="rgb(65,82,98)"/>
<path d="M74 68h1v1h-1v-1z" fill="rgb(106,123,164)"/>
<path d="M16 69h1v1h-1v-1z" fill="rgb(65,82,98)"/>
<path d="M17 69h2v1h-2v-1z" fill="rgb(106,123,164)"/>
<path d="M19 69h1v4h-1v-4z" fill="rgb(65,82,98)"/>
<path d="M28 69h1v1h-1v-1z" fill="rgb(106,123,164)"/>
<path d="M30 69h1v1h-1v-1z" fill="rgb(213,205,238)"/>
<path d="M48 69h1v1h-1v-1z" fill="rgb(156,164,189)"/>
<path d="M66 69h1v1h-1v-1z" fill="rgb(65,82,98)"/>
<path d="M74 69h1v1h-1v-1z" fill="rgb(16,16,16)"/>
<path d="M27 70h1v1h-1v-1z" fill="rgb(106,123,164)"/>
<path d="M28 70h1v2h-1v2h-2v-1h1v-2h1v-1z" fill="rgb(213,205,238)"/>
<path d="M29 70h1v2h-1v-2z" fill="rgb(230,230,246)"/>
<path d="M30 70h1v1h-1v-1z" fill="rgb(16,16,16)"/>
<path d="M31 70h1v1h-1v-1z" fill="rgb(213,205,238)"/>
<path d="M42 70h2v3h1v1h1v1h1v1h2v1h1v1h1v1h-7v-1h-4v-1h-3v-1h-2v-1h-1v-2h1v1h1v1h1v-1h1
	v-1h1v-1h1v-1h2v-1z" fill="rgb(213,205,238)"/>
<path d="M44 70h1v3h-1v-3z" fill="rgb(65,82,98)"/>
<path d="M49 70h1v1h-1v-1z" fill="rgb(156,164,189)"/>
<path d="M66 70h1v3h-1v-3z" fill="rgb(16,16,16)"/>
<path d="M73 70h1v1h-1v-1z" fill="rgb(16,16,16)"/>
<path d="M26 71h1v1h-1v-1z" fill="rgb(106,123,164)"/>
<path d="M30 71h1v1h-1v-1z" fill="rgb(65,82,98)"/>
<path d="M31 71h1v1h-1v-1z" fill="rgb(230,230,246)"/>
<path d="M32 71h1v1h-1v-1z" fill="rgb(213,205,238)"/>
<path d="M34 71h1v1h-1v-1z" fill="rgb(213,205,238)"/>
<path d="M53 71h1v1h-1v-1z" fill="rgb(213,205,238)"/>
<path d="M72 71h1v1h-1v-1z" fill="rgb(16,16,16)"/>
<path d="M26 72h1v1h-1v-1z" fill="rgb(156,164,189)"/>
<path d="M28 72h1v2h-1v-2z" fill="rgb(230,230,246)"/>
<path d="M29 72h1v2h-1v-2z" fill="rgb(16,16,16)"/>
<path d="M31 72h1v1h-1v-1z" fill="rgb(16,16,16)"/>
<path d="M32 72h1v1h-1v-1z" fill="rgb(230,230,246)"/>
<path d="M33 72h1v1h-1v-1z" fill="rgb(213,205,238)"/>
<path d="M34 72h1v1h-1v-1z" fill="rgb(230,230,246)"/>
<path d="M35 72h1v1h-1v-1z" fill="rgb(213,205,238)"/>
<path d="M37 72h1v1h-1v-1z" fill="rgb(213,205,238)"/>
<path d="M45 72h1v1h-1v-1z" fill="rgb(156,164,189)"/>
<path d="M54 72h2v1h-2v-1z" fill="rgb(156,164,189)"/>
<path d="M71 72h1v1h-1v-1z" fill="rgb(16,16,16)"/>
<path d="M20 73h1v1h-1v-1z" fill="rgb(65,82,98)"/>
<path d="M21 73h2v1h-2v-1z" fill="rgb(16,16,16)"/>
<path d="M25 73h1v2h-1v-2z" fill="rgb(156,164,189)"/>
<path d="M32 73h1v1h-1v-1z" fill="rgb(16,16,16)"/>
<path d="M33 73h1v1h-1v-1z" fill="rgb(230,230,246)"/>
<path d="M35 73h1v1h-1v-1z" fill="rgb(230,230,246)"/>
<path d="M36 73h1v1h-1v-1z" fill="rgb(213,205,238)"/>
<path d="M37 73h1v1h-1v-1z" fill="rgb(230,230,246)"/>
<path d="M45 73h1v1h-1v-1z" fill="rgb(65,82,98)"/>
<path d="M54 73h2v1h-2v-1z" fill="rgb(230,230,246)"/>
<path d="M56 73h3v1h-3v-1z" fill="rgb(156,164,189)"/>
<path d="M65 73h1v1h-1v-1z" fill="rgb(65,82,98)"/>
<path d="M70 73h1v1h-1v-1z" fill="rgb(16,16,16)"/>
<path d="M23 74h1v1h-1v-1z" fill="rgb(16,16,16)"/>
<path d="M26 74h3v1h-3v-1z" fill="rgb(16,16,16)"/>
<path d="M33 74h1v1h-1v-1z" fill="rgb(16,16,16)"/>
<path d="M36 74h1v1h-1v-1z" fill="rgb(230,230,246)"/>
<path d="M46 74h1v1h-1v-1z" fill="rgb(65,82,98)"/>
<path d="M59 74h1v1h-1v-1z" fill="rgb(156,164,189)"/>
<path d="M60 74h3v1h-3v-1z" fill="rgb(106,123,164)"/>
<path d="M63 74h1v1h-1v-1z" fill="rgb(156,164,189)"/>
<path d="M65 74h1v1h-1v-1z" fill="rgb(16,16,16)"/>
<path d="M68 74h2v1h-2v-1z" fill="rgb(16,16,16)"/>
<path d="M24 75h2v1h-2v-1z" fill="rgb(16,16,16)"/>
<path d="M34 75h1v1h-1v-1z" fill="rgb(16,16,16)"/>
<path d="M47 75h2v1h-2v-1z" fill="rgb(16,16,16)"/>
<path d="M64 75h1v1h1v1h-2v1h-1v-2h1v-1z" fill="rgb(16,16,16)"/>
<path d="M65 75h1v1h-1v-1z" fill="rgb(213,205,238)"/>
<path d="M66 75h2v1h-2v-1z" fill="rgb(16,16,16)"/>
<path d="M35 76h2v1h-2v-1z" fill="rgb(16,16,16)"/>
<path d="M49 76h1v1h-1v-1z" fill="rgb(16,16,16)"/>
<path d="M37 77h3v1h-3v-1z" fill="rgb(16,16,16)"/>
<path d="M50 77h1v1h-1v-1z" fill="rgb(16,16,16)"/>
<path d="M40 78h4v1h-4v-1z" fill="rgb(16,16,16)"/>
<path d="M51 78h2v1h-2v-1z" fill="rgb(16,16,16)"/>
<path d="M64 78h1v3h-1v-3z" fill="rgb(16,16,16)"/>
<path d="M44 79h4v1h-4v-1z" fill="rgb(16,16,16)"/>
<path d="M48 79h5v1h-5v-1z" fill="rgb(65,82,98)"/>
<path d="M53 79h2v1h-2v-1z" fill="rgb(16,16,16)"/>
<path d="M55 80h2v1h-2v-1z" fill="rgb(16,16,16)"/>
<path d="M57 81h2v1h-2v-1z" fill="rgb(16,16,16)"/>
<path d="M63 81h1v1h-1v-1z" fill="rgb(16,16,16)"/>
<path d="M59 82h4v1h-4v-1z" fill="rgb(16,16,16)"/>
</svg>
