<?xml version="1.0" encoding="utf-8"?>
<!-- generated at drububu.com  -->
<!DOCTYPE svg PUBLIC "-//W3C//DTD SVG 1.1//EN" "http://www.w3.org/Graphics/SVG/1.1/DTD/svg11.dtd">
<svg version="1.1" preserveAspectRatio="xMinYMin meet" xmlns="http://www.w3.org/2000/svg" xmlns:xlink="http://www.w3.org/1999/xlink" x="0px" y="0px" width="96px" height="96px" viewBox="0 0 96 96">
<path d="M0 0h96v96h-96v-96z" fill="transparent"/>
<path d="M41 29h7v1h-7v-1z" fill="rgb(90,49,115)"/>
<path d="M23 30h2v1h-2v-1z" fill="rgb(148,74,156)"/>
<path d="M25 30h2v1h-2v-1z" fill="rgb(90,49,115)"/>
<path d="M39 30h1v1h-1v-1z" fill="rgb(90,49,115)"/>
<path d="M40 30h1v1h-1v-1z" fill="rgb(148,74,156)"/>
<path d="M41 30h1v1h-1v-1z" fill="rgb(205,139,197)"/>
<path d="M42 30h4v1h1v1h-2v1h-1v1h-1v1h-1v1h-4v-2h-1v-1h1v-1h2v-1h2v-1z" fill="rgb(238,172,230)"/>
<path d="M46 30h1v1h-1v-1z" fill="rgb(205,139,197)"/>
<path d="M47 30h1v1h-1v-1z" fill="rgb(189,123,189)"/>
<path d="M48 30h1v1h-1v-1z" fill="rgb(148,74,156)"/>
<path d="M49 30h1v1h-1v-1z" fill="rgb(90,49,115)"/>
<path d="M21 31h1v1h-1v-1z" fill="rgb(205,139,197)"/>
<path d="M22 31h1v1h-1v-1z" fill="rgb(148,74,156)"/>
<path d="M23 31h2v1h-1v1h-3v-1h2v-1z" fill="rgb(238,172,230)"/>
<path d="M25 31h1v1h1v1h-1v1h-1v-1h-1v-1h1v-1z" fill="rgb(205,139,197)"/>
<path d="M26 31h1v1h-1v-1z" fill="rgb(189,123,189)"/>
<path d="M27 31h1v1h-1v-1z" fill="rgb(148,74,156)"/>
<path d="M28 31h2v1h-2v-1z" fill="rgb(16,16,16)"/>
<path d="M38 31h1v1h-1v-1z" fill="rgb(90,49,115)"/>
<path d="M39 31h1v1h-1v-1z" fill="rgb(205,139,197)"/>
<path d="M47 31h2v1h1v1h-2v-1h-1v-1z" fill="rgb(205,139,197)"/>
<path d="M49 31h1v1h-1v-1z" fill="rgb(189,123,189)"/>
<path d="M50 31h1v1h-1v-1z" fill="rgb(148,74,156)"/>
<path d="M51 31h1v1h-1v-1z" fill="rgb(90,49,115)"/>
<path d="M20 32h1v1h-1v-1z" fill="rgb(205,139,197)"/>
<path d="M27 32h1v1h-1v-1z" fill="rgb(189,123,189)"/>
<path d="M28 32h2v1h1v4h-1v-1h-2v1h-3v-1h2v-1h1v-1h-1v-1h1v-1z" fill="rgb(205,139,197)"/>
<path d="M30 32h1v1h-1v-1z" fill="rgb(16,16,16)"/>
<path d="M37 32h1v1h-1v-1z" fill="rgb(90,49,115)"/>
<path d="M45 32h1v1h-1v-1z" fill="rgb(189,123,189)"/>
<path d="M46 32h1v1h-1v-1z" fill="rgb(90,49,115)"/>
<path d="M47 32h1v1h-1v-1z" fill="rgb(189,123,189)"/>
<path d="M50 32h1v2h-1v-2z" fill="rgb(189,123,189)"/>
<path d="M51 32h1v1h1v3h-4v1h-1v-3h-1v-1h3v1h1v-2z" fill="rgb(148,74,156)"/>
<path d="M52 32h1v1h-1v-1z" fill="rgb(90,49,115)"/>
<path d="M20 33h1v1h-1v-1z" fill="rgb(148,74,156)"/>
<path d="M21 33h3v1h-1v1h-2v-2z" fill="rgb(205,139,197)"/>
<path d="M24 33h1v1h-1v-1z" fill="rgb(90,49,115)"/>
<path d="M26 33h1v1h1v1h-1v1h-2v-1h-1v-1h2v-1z" fill="rgb(238,172,230)"/>
<path d="M31 33h1v2h-1v-2z" fill="rgb(16,16,16)"/>
<path d="M36 33h1v1h-1v-1z" fill="rgb(90,49,115)"/>
<path d="M44 33h1v1h-1v-1z" fill="rgb(189,123,189)"/>
<path d="M45 33h2v1h1v2h-1v1h-1v1h-2v-1h1v-1h-1v-2h1v-1z" fill="rgb(255,255,255)"/>
<path d="M53 33h1v2h-1v-2z" fill="rgb(90,49,115)"/>
<path d="M20 34h1v1h-1v-1z" fill="rgb(16,16,16)"/>
<path d="M23 34h1v2h1v1h-2v-1h-2v-1h2v-1z" fill="rgb(16,16,16)"/>
<path d="M35 34h1v1h-1v-1z" fill="rgb(90,49,115)"/>
<path d="M36 34h1v2h-1v1h-1v-2h1v-1z" fill="rgb(255,255,255)"/>
<path d="M37 34h1v2h-1v-2z" fill="rgb(189,123,189)"/>
<path d="M43 34h1v1h-1v-1z" fill="rgb(205,139,197)"/>
<path d="M24 35h1v1h-1v-1z" fill="rgb(205,139,197)"/>
<path d="M31 35h1v1h-1v-1z" fill="rgb(148,74,156)"/>
<path d="M32 35h1v2h-1v-2z" fill="rgb(16,16,16)"/>
<path d="M34 35h1v2h-1v-2z" fill="rgb(148,74,156)"/>
<path d="M42 35h1v1h-1v-1z" fill="rgb(205,139,197)"/>
<path d="M43 35h1v1h-1v-1z" fill="rgb(213,213,222)"/>
<path d="M53 35h1v1h-1v-1z" fill="rgb(189,123,189)"/>
<path d="M54 35h1v2h-1v-2z" fill="rgb(90,49,115)"/>
<path d="M20 36h2v1h-2v-1z" fill="rgb(148,74,156)"/>
<path d="M22 36h1v1h-1v-1z" fill="rgb(205,139,197)"/>
<path d="M28 36h2v1h-2v-1z" fill="rgb(90,49,115)"/>
<path d="M31 36h1v1h-1v-1z" fill="rgb(189,123,189)"/>
<path d="M36 36h1v1h-1v-1z" fill="rgb(16,16,16)"/>
<path d="M37 36h2v1h2v-1h2v1h1v1h1v1h-2v-1h-1v1h-3v-1h-2v-2z" fill="rgb(148,74,156)"/>
<path d="M39 36h2v1h-2v-1z" fill="rgb(205,139,197)"/>
<path d="M43 36h1v1h-1v-1z" fill="rgb(255,255,255)"/>
<path d="M44 36h1v1h-1v-1z" fill="rgb(16,16,16)"/>
<path d="M47 36h1v1h-1v-1z" fill="rgb(90,49,115)"/>
<path d="M49 36h4v3h-1v-1h-3v1h-2v1h-1v1h-1v-1h-2v-1h2v-1h2v-1h2v-1z" fill="rgb(189,123,189)"/>
<path d="M53 36h1v1h1v1h-1v1h-1v-3z" fill="rgb(205,139,197)"/>
<path d="M19 37h1v1h-1v-1z" fill="rgb(148,74,156)"/>
<path d="M20 37h3v1h-1v1h-2v-2z" fill="rgb(238,172,230)"/>
<path d="M23 37h2v1h3v-1h2v1h1v-1h1v3h-1v1h-5v-1h-1v-1h-3v-1h1v-1z" fill="rgb(205,139,197)"/>
<path d="M25 37h3v1h-3v-1z" fill="rgb(16,16,16)"/>
<path d="M30 37h1v1h-1v-1z" fill="rgb(148,74,156)"/>
<path d="M32 37h1v3h1v1h-1v2h-1v1h-2v1h-1v-1h-1v-3h1v1h2v-1h1v-4z" fill="rgb(148,74,156)"/>
<path d="M33 37h1v2h-1v-2z" fill="rgb(90,49,115)"/>
<path d="M34 37h1v1h-1v-1z" fill="rgb(205,139,197)"/>
<path d="M35 37h2v1h-2v-1z" fill="rgb(213,213,222)"/>
<path d="M46 37h1v1h-1v-1z" fill="rgb(213,213,222)"/>
<path d="M55 37h1v2h-1v-2z" fill="rgb(90,49,115)"/>
<path d="M19 38h1v2h-1v-2z" fill="rgb(16,16,16)"/>
<path d="M34 38h1v1h1v1h7v1h-1v1h-5v-1h-2v-1h-1v-2z" fill="rgb(238,172,230)"/>
<path d="M35 38h1v1h-1v-1z" fill="rgb(205,139,197)"/>
<path d="M36 38h1v1h-1v-1z" fill="rgb(189,123,189)"/>
<path d="M37 38h1v1h5v1h-7v-1h1v-1z" fill="rgb(205,139,197)"/>
<path d="M38 38h1v1h-1v-1z" fill="rgb(189,123,189)"/>
<path d="M42 38h1v1h-1v-1z" fill="rgb(189,123,189)"/>
<path d="M49 38h3v1h-1v1h2v-1h3v2h-1v1h-4v1h-2v1h-2v-1h1v-2h1v-3z" fill="rgb(148,74,156)"/>
<path d="M54 38h1v1h-1v-1z" fill="rgb(189,123,189)"/>
<path d="M20 39h2v1h-2v-1z" fill="rgb(205,139,197)"/>
<path d="M22 39h1v1h-1v-1z" fill="rgb(189,123,189)"/>
<path d="M23 39h1v1h-1v-1z" fill="rgb(90,49,115)"/>
<path d="M24 39h1v1h-1v-1z" fill="rgb(16,16,16)"/>
<path d="M33 39h1v1h-1v-1z" fill="rgb(16,16,16)"/>
<path d="M47 39h2v2h-1v-1h-1v-1z" fill="rgb(90,49,115)"/>
<path d="M51 39h1v1h-1v-1z" fill="rgb(189,123,189)"/>
<path d="M52 39h1v1h-1v-1z" fill="rgb(205,139,197)"/>
<path d="M56 39h1v1h-1v-1z" fill="rgb(90,49,115)"/>
<path d="M20 40h3v1h-3v-1z" fill="rgb(16,16,16)"/>
<path d="M25 40h1v1h-1v-1z" fill="rgb(16,16,16)"/>
<path d="M31 40h1v1h-1v-1z" fill="rgb(189,123,189)"/>
<path d="M34 40h1v1h-1v-1z" fill="rgb(16,16,16)"/>
<path d="M43 40h2v1h-2v-1z" fill="rgb(205,139,197)"/>
<path d="M46 40h1v1h-1v-1z" fill="rgb(90,49,115)"/>
<path d="M47 40h1v3h-1v-1h-2v-1h2v-1z" fill="rgb(16,16,16)"/>
<path d="M56 40h1v1h1v2h1v1h-1v1h1v3h-3v1h-5v-1h-2v1h-1v-2h-2v-2h1v-1h2v-1h2v-1h4v-1h1
	v-1z" fill="rgb(189,123,189)"/>
<path d="M57 40h1v1h-1v-1z" fill="rgb(90,49,115)"/>
<path d="M26 41h2v3h-1v-2h-1v-1z" fill="rgb(90,49,115)"/>
<path d="M29 41h2v1h-2v-1z" fill="rgb(189,123,189)"/>
<path d="M33 41h2v1h-2v-1z" fill="rgb(189,123,189)"/>
<path d="M35 41h2v1h-2v-1z" fill="rgb(16,16,16)"/>
<path d="M42 41h1v1h-1v-1z" fill="rgb(205,139,197)"/>
<path d="M43 41h1v1h-1v-1z" fill="rgb(148,74,156)"/>
<path d="M44 41h1v1h-1v-1z" fill="rgb(90,49,115)"/>
<path d="M58 41h1v2h-1v-2z" fill="rgb(90,49,115)"/>
<path d="M33 42h1v2h-1v1h-1v1h-1v-1h-1v-1h2v-1h1v-1z" fill="rgb(205,139,197)"/>
<path d="M34 42h1v1h-1v-1z" fill="rgb(148,74,156)"/>
<path d="M35 42h2v1h-2v-1z" fill="rgb(189,123,189)"/>
<path d="M37 42h8v1h-5v1h-1v1h-2v1h-1v-2h1v-2z" fill="rgb(16,16,16)"/>
<path d="M45 42h2v1h-2v-1z" fill="rgb(65,74,90)"/>
<path d="M34 43h1v1h-1v-1z" fill="rgb(90,49,115)"/>
<path d="M35 43h1v1h-1v-1z" fill="rgb(238,172,230)"/>
<path d="M36 43h1v1h-1v-1z" fill="rgb(148,74,156)"/>
<path d="M40 43h6v2h-2v-1h-2v1h-1v-1h-1v-1z" fill="rgb(131,139,156)"/>
<path d="M46 43h1v1h-1v-1z" fill="rgb(16,16,16)"/>
<path d="M59 43h1v1h1v1h-2v-2z" fill="rgb(90,49,115)"/>
<path d="M28 44h1v1h-1v-1z" fill="rgb(90,49,115)"/>
<path d="M33 44h1v2h-1v-2z" fill="rgb(90,49,115)"/>
<path d="M34 44h1v2h-1v-2z" fill="rgb(238,172,230)"/>
<path d="M35 44h1v2h-1v-2z" fill="rgb(148,74,156)"/>
<path d="M39 44h1v1h-1v-1z" fill="rgb(131,139,156)"/>
<path d="M40 44h1v1h1v-1h2v1h1v1h-2v1h-4v-1h-1v-1h2v-1z" fill="rgb(172,180,189)"/>
<path d="M46 44h1v1h-1v-1z" fill="rgb(90,49,115)"/>
<path d="M55 44h2v1h-2v-1z" fill="rgb(205,139,197)"/>
<path d="M58 44h1v1h-1v-1z" fill="rgb(148,74,156)"/>
<path d="M29 45h2v3h-1v-2h-1v-1z" fill="rgb(90,49,115)"/>
<path d="M32 45h1v2h-2v-1h1v-1z" fill="rgb(189,123,189)"/>
<path d="M37 45h1v1h-1v-1z" fill="rgb(65,74,90)"/>
<path d="M45 45h1v1h-1v-1z" fill="rgb(16,16,16)"/>
<path d="M54 45h2v1h-2v-1z" fill="rgb(148,74,156)"/>
<path d="M59 45h1v3h-1v-3z" fill="rgb(148,74,156)"/>
<path d="M60 45h1v1h-1v-1z" fill="rgb(189,123,189)"/>
<path d="M61 45h1v1h-1v-1z" fill="rgb(90,49,115)"/>
<path d="M33 46h1v3h-2v-1h-1v-1h2v-1z" fill="rgb(148,74,156)"/>
<path d="M34 46h1v2h-1v-2z" fill="rgb(90,49,115)"/>
<path d="M35 46h1v1h2v1h3v1h1v-1h2v1h-1v1h-1v1h-2v-1h-2v-1h-2v-1h-1v-2z" fill="rgb(238,172,230)"/>
<path d="M36 46h1v1h-1v-1z" fill="rgb(148,74,156)"/>
<path d="M37 46h1v1h-1v-1z" fill="rgb(16,16,16)"/>
<path d="M38 46h1v1h-1v-1z" fill="rgb(131,139,156)"/>
<path d="M43 46h2v1h-2v-1z" fill="rgb(90,49,115)"/>
<path d="M45 46h1v3h-2v-1h-1v-1h2v-1z" fill="rgb(205,139,197)"/>
<path d="M52 46h2v1h-2v-1z" fill="rgb(148,74,156)"/>
<path d="M60 46h2v2h-1v-1h-1v-1z" fill="rgb(205,139,197)"/>
<path d="M62 46h1v3h1v1h-1v1h-1v-2h-1v-1h1v-2z" fill="rgb(90,49,115)"/>
<path d="M38 47h3v1h-3v-1z" fill="rgb(16,16,16)"/>
<path d="M41 47h2v1h-2v-1z" fill="rgb(148,74,156)"/>
<path d="M46 47h2v2h-1v-1h-1v-1z" fill="rgb(148,74,156)"/>
<path d="M51 47h1v1h-1v-1z" fill="rgb(148,74,156)"/>
<path d="M60 47h1v1h-1v-1z" fill="rgb(90,49,115)"/>
<path d="M31 48h1v1h-1v-1z" fill="rgb(90,49,115)"/>
<path d="M34 48h1v1h-1v-1z" fill="rgb(189,123,189)"/>
<path d="M35 48h1v1h1v1h-2v-2z" fill="rgb(90,49,115)"/>
<path d="M41 48h1v1h-1v-1z" fill="rgb(205,139,197)"/>
<path d="M46 48h1v1h-1v-1z" fill="rgb(90,49,115)"/>
<path d="M49 48h2v1h-1v1h-1v3h-1v1h-3v1h-6v-1h-2v-1h-1v-1h-1v-1h-1v-2h1v1h3v2h1v1h3v-2h4
	v-1h2v-1h1v-1z" fill="rgb(148,74,156)"/>
<path d="M56 48h4v1h1v1h-2v-1h-3v-1z" fill="rgb(205,139,197)"/>
<path d="M60 48h1v1h-1v-1z" fill="rgb(189,123,189)"/>
<path d="M32 49h1v2h-1v-2z" fill="rgb(90,49,115)"/>
<path d="M33 49h1v2h-1v-2z" fill="rgb(189,123,189)"/>
<path d="M37 49h1v1h-1v-1z" fill="rgb(16,16,16)"/>
<path d="M43 49h1v2h-2v-1h1v-1z" fill="rgb(205,139,197)"/>
<path d="M44 49h1v1h-1v-1z" fill="rgb(148,74,156)"/>
<path d="M45 49h1v1h-1v-1z" fill="rgb(90,49,115)"/>
<path d="M46 49h2v1h-2v-1z" fill="rgb(189,123,189)"/>
<path d="M50 49h4v1h-3v1h-2v-1h1v-1z" fill="rgb(90,49,115)"/>
<path d="M54 49h4v1h-4v-1z" fill="rgb(148,74,156)"/>
<path d="M58 49h1v1h-1v-1z" fill="rgb(189,123,189)"/>
<path d="M61 49h1v1h-1v-1z" fill="rgb(189,123,189)"/>
<path d="M64 49h1v1h-1v-1z" fill="rgb(16,16,16)"/>
<path d="M38 50h1v2h-1v-2z" fill="rgb(16,16,16)"/>
<path d="M39 50h1v1h1v1h-2v-2z" fill="rgb(205,139,197)"/>
<path d="M44 50h1v1h-1v-1z" fill="rgb(90,49,115)"/>
<path d="M45 50h1v1h-1v-1z" fill="rgb(189,123,189)"/>
<path d="M51 50h2v2h-3v-1h1v-1z" fill="rgb(238,172,230)"/>
<path d="M53 50h1v1h1v3h-1v-1h-4v-1h3v-2z" fill="rgb(205,139,197)"/>
<path d="M54 50h1v1h-1v-1z" fill="rgb(90,49,115)"/>
<path d="M55 50h2v1h-2v-1z" fill="rgb(16,16,16)"/>
<path d="M57 50h1v1h-1v-1z" fill="rgb(90,49,115)"/>
<path d="M58 50h2v1h1v1h1v2h1v2h-1v1h-2v1h-2v1h-2v-1h1v-1h2v-1h1v-3h-1v-2h-1v-1z" fill="rgb(148,74,156)"/>
<path d="M60 50h1v1h-1v-1z" fill="rgb(189,123,189)"/>
<path d="M61 50h1v2h-1v-2z" fill="rgb(205,139,197)"/>
<path d="M63 50h2v2h-1v-1h-1v-1z" fill="rgb(189,123,189)"/>
<path d="M65 50h1v1h-1v-1z" fill="rgb(16,16,16)"/>
<path d="M33 51h1v1h-1v-1z" fill="rgb(90,49,115)"/>
<path d="M34 51h1v1h1v1h1v1h2v1h6v-1h3v1h-1v1h-1v1h-4v-1h-4v-1h-2v-1h-2v-3z" fill="rgb(189,123,189)"/>
<path d="M41 51h1v2h-3v-1h2v-1z" fill="rgb(16,16,16)"/>
<path d="M49 51h1v1h-1v-1z" fill="rgb(16,16,16)"/>
<path d="M55 51h1v1h-1v-1z" fill="rgb(189,123,189)"/>
<path d="M56 51h3v2h1v2h-2v-1h-1v-2h-1v-1z" fill="rgb(205,139,197)"/>
<path d="M62 51h1v1h-1v-1z" fill="rgb(189,123,189)"/>
<path d="M63 51h1v2h-1v-2z" fill="rgb(90,49,115)"/>
<path d="M65 51h1v1h2v1h1v1h-1v1h-2v1h-2v-2h1v-3z" fill="rgb(148,74,156)"/>
<path d="M66 51h2v1h-2v-1z" fill="rgb(90,49,115)"/>
<path d="M33 52h1v1h-1v-1z" fill="rgb(16,16,16)"/>
<path d="M49 52h1v1h-1v-1z" fill="rgb(90,49,115)"/>
<path d="M55 52h1v1h1v1h1v1h-2v-1h-1v-2z" fill="rgb(148,74,156)"/>
<path d="M56 52h1v1h-1v-1z" fill="rgb(189,123,189)"/>
<path d="M62 52h1v1h-1v-1z" fill="rgb(205,139,197)"/>
<path d="M64 52h1v2h-1v-2z" fill="rgb(205,139,197)"/>
<path d="M68 52h1v1h-1v-1z" fill="rgb(90,49,115)"/>
<path d="M33 53h1v1h-1v-1z" fill="rgb(90,49,115)"/>
<path d="M48 53h2v1h-2v-1z" fill="rgb(189,123,189)"/>
<path d="M50 53h2v1h-2v-1z" fill="rgb(90,49,115)"/>
<path d="M52 53h1v1h-1v-1z" fill="rgb(148,74,156)"/>
<path d="M53 53h1v1h-1v-1z" fill="rgb(189,123,189)"/>
<path d="M62 53h1v1h-1v-1z" fill="rgb(189,123,189)"/>
<path d="M63 53h1v3h-1v-3z" fill="rgb(16,16,16)"/>
<path d="M69 53h1v1h-1v-1z" fill="rgb(90,49,115)"/>
<path d="M34 54h2v1h2v1h4v1h4v-1h1v1h1v1h-1v1h6v1h3v1h-2v1h-1v1h-3v-1h-5v-1h-2v1h-1v1h-3
	v-1h-3v-1h1v-1h1v1h4v-1h3v-1h-3v-1h-4v-1h-2v-1h-2v-2z" fill="rgb(148,74,156)"/>
<path d="M48 54h1v1h-1v-1z" fill="rgb(16,16,16)"/>
<path d="M49 54h1v1h-1v-1z" fill="rgb(90,49,115)"/>
<path d="M50 54h3v1h-1v1h-1v1h-1v-1h-1v-1h1v-1z" fill="rgb(189,123,189)"/>
<path d="M53 54h3v1h-3v-1z" fill="rgb(90,49,115)"/>
<path d="M68 54h1v1h-1v-1z" fill="rgb(205,139,197)"/>
<path d="M69 54h1v2h-1v-2z" fill="rgb(16,16,16)"/>
<path d="M47 55h1v1h-1v-1z" fill="rgb(90,49,115)"/>
<path d="M48 55h1v1h1v1h-2v-2z" fill="rgb(205,139,197)"/>
<path d="M52 55h1v1h-1v-1z" fill="rgb(90,49,115)"/>
<path d="M53 55h2v2h-3v-1h1v-1z" fill="rgb(238,172,230)"/>
<path d="M55 55h3v1h1v1h-3v1h-1v1h-2v-1h-1v-1h3v-2z" fill="rgb(205,139,197)"/>
<path d="M58 55h1v1h-1v-1z" fill="rgb(148,74,156)"/>
<path d="M59 55h1v1h-1v-1z" fill="rgb(189,123,189)"/>
<path d="M66 55h1v2h-3v1h-2v-1h1v-1h3v-1z" fill="rgb(189,123,189)"/>
<path d="M67 55h1v1h-1v-1z" fill="rgb(205,139,197)"/>
<path d="M68 55h1v1h-1v-1z" fill="rgb(148,74,156)"/>
<path d="M33 56h1v3h1v1h1v1h-3v-1h-1v-1h1v-3z" fill="rgb(148,74,156)"/>
<path d="M34 56h1v1h-1v-1z" fill="rgb(205,139,197)"/>
<path d="M35 56h1v1h-1v-1z" fill="rgb(189,123,189)"/>
<path d="M47 56h1v1h-1v-1z" fill="rgb(16,16,16)"/>
<path d="M51 56h1v1h-1v-1z" fill="rgb(90,49,115)"/>
<path d="M62 56h1v1h-1v-1z" fill="rgb(16,16,16)"/>
<path d="M67 56h1v1h-1v-1z" fill="rgb(148,74,156)"/>
<path d="M68 56h1v1h-1v-1z" fill="rgb(16,16,16)"/>
<path d="M69 56h2v1h-2v-1z" fill="rgb(90,49,115)"/>
<path d="M34 57h1v1h-1v-1z" fill="rgb(189,123,189)"/>
<path d="M35 57h2v1h4v1h2v1h-2v1h-3v-1h-2v-2h-1v-1z" fill="rgb(205,139,197)"/>
<path d="M37 57h1v1h-1v-1z" fill="rgb(189,123,189)"/>
<path d="M48 57h1v1h-1v-1z" fill="rgb(16,16,16)"/>
<path d="M49 57h1v1h-1v-1z" fill="rgb(189,123,189)"/>
<path d="M50 57h1v1h-1v-1z" fill="rgb(148,74,156)"/>
<path d="M51 57h1v1h1v1h-4v-1h2v-1z" fill="rgb(16,16,16)"/>
<path d="M56 57h1v1h-1v-1z" fill="rgb(90,49,115)"/>
<path d="M60 57h2v1h-2v-1z" fill="rgb(16,16,16)"/>
<path d="M64 57h2v2h-1v1h-2v1h-5v-2h2v-1h4v-1z" fill="rgb(148,74,156)"/>
<path d="M66 57h2v1h-2v-1z" fill="rgb(16,16,16)"/>
<path d="M68 57h1v1h-1v-1z" fill="rgb(189,123,189)"/>
<path d="M69 57h2v1h-1v1h-2v-1h1v-1z" fill="rgb(205,139,197)"/>
<path d="M71 57h1v1h-1v-1z" fill="rgb(90,49,115)"/>
<path d="M32 58h1v1h-1v-1z" fill="rgb(90,49,115)"/>
<path d="M34 58h1v1h-1v-1z" fill="rgb(90,49,115)"/>
<path d="M35 58h1v1h-1v-1z" fill="rgb(189,123,189)"/>
<path d="M41 58h1v1h-1v-1z" fill="rgb(189,123,189)"/>
<path d="M47 58h2v1h-2v-1z" fill="rgb(189,123,189)"/>
<path d="M55 58h1v1h-1v-1z" fill="rgb(90,49,115)"/>
<path d="M58 58h2v1h-2v-1z" fill="rgb(16,16,16)"/>
<path d="M66 58h2v2h-1v1h-1v1h-2v-1h-1v-1h2v-1h1v-1z" fill="rgb(189,123,189)"/>
<path d="M70 58h1v1h-1v-1z" fill="rgb(148,74,156)"/>
<path d="M71 58h1v1h-1v-1z" fill="rgb(16,16,16)"/>
<path d="M30 59h2v1h-2v-1z" fill="rgb(90,49,115)"/>
<path d="M35 59h1v1h-1v-1z" fill="rgb(90,49,115)"/>
<path d="M43 59h2v1h-2v-1z" fill="rgb(189,123,189)"/>
<path d="M53 59h5v1h-5v-1z" fill="rgb(16,16,16)"/>
<path d="M68 59h1v1h-1v-1z" fill="rgb(148,74,156)"/>
<path d="M69 59h2v1h-2v-1z" fill="rgb(16,16,16)"/>
<path d="M29 60h1v1h-1v-1z" fill="rgb(90,49,115)"/>
<path d="M30 60h3v1h3v1h-1v1h-2v-1h-3v-2z" fill="rgb(189,123,189)"/>
<path d="M36 60h1v1h-1v-1z" fill="rgb(90,49,115)"/>
<path d="M41 60h1v1h-1v-1z" fill="rgb(189,123,189)"/>
<path d="M56 60h2v1h1v1h-5v-1h2v-1z" fill="rgb(189,123,189)"/>
<path d="M67 60h2v1h-2v-1z" fill="rgb(16,16,16)"/>
<path d="M29 61h1v1h-1v-1z" fill="rgb(16,16,16)"/>
<path d="M43 61h1v1h-1v-1z" fill="rgb(189,123,189)"/>
<path d="M44 61h1v1h4v1h2v1h-2v1h-6v-1h-2v-1h2v-1h1v-1z" fill="rgb(205,139,197)"/>
<path d="M59 61h5v2h-5v-2z" fill="rgb(205,139,197)"/>
<path d="M66 61h1v1h-1v-1z" fill="rgb(16,16,16)"/>
<path d="M30 62h2v1h-2v-1z" fill="rgb(16,16,16)"/>
<path d="M32 62h1v1h-1v-1z" fill="rgb(148,74,156)"/>
<path d="M35 62h4v1h-4v-1z" fill="rgb(16,16,16)"/>
<path d="M42 62h1v1h-1v-1z" fill="rgb(189,123,189)"/>
<path d="M49 62h1v1h-1v-1z" fill="rgb(189,123,189)"/>
<path d="M53 62h2v1h-2v-1z" fill="rgb(90,49,115)"/>
<path d="M55 62h4v1h-4v-1z" fill="rgb(16,16,16)"/>
<path d="M64 62h1v1h-1v-1z" fill="rgb(16,16,16)"/>
<path d="M65 62h1v1h-1v-1z" fill="rgb(90,49,115)"/>
<path d="M32 63h3v1h-3v-1z" fill="rgb(16,16,16)"/>
<path d="M39 63h2v1h-2v-1z" fill="rgb(16,16,16)"/>
<path d="M51 63h2v1h-2v-1z" fill="rgb(16,16,16)"/>
<path d="M59 63h1v1h-1v-1z" fill="rgb(90,49,115)"/>
<path d="M60 63h3v1h-3v-1z" fill="rgb(16,16,16)"/>
<path d="M63 63h1v1h-1v-1z" fill="rgb(90,49,115)"/>
<path d="M41 64h2v1h-2v-1z" fill="rgb(16,16,16)"/>
<path d="M49 64h2v1h-2v-1z" fill="rgb(16,16,16)"/>
<path d="M43 65h6v1h-6v-1z" fill="rgb(16,16,16)"/>
</svg>
