<?xml version="1.0" encoding="utf-8"?>
<!-- generated at drububu.com  -->
<!DOCTYPE svg PUBLIC "-//W3C//DTD SVG 1.1//EN" "http://www.w3.org/Graphics/SVG/1.1/DTD/svg11.dtd">
<svg version="1.1" preserveAspectRatio="xMinYMin meet" xmlns="http://www.w3.org/2000/svg" xmlns:xlink="http://www.w3.org/1999/xlink" x="0px" y="0px" width="96px" height="96px" viewBox="0 0 96 96">
<path d="M0 0h96v96h-96v-96z" fill="transparent"/>
<path d="M71 20h6v1h-6v-1z" fill="rgb(148,74,156)"/>
<path d="M68 21h3v1h-3v-1z" fill="rgb(148,74,156)"/>
<path d="M71 21h6v1h3v1h1v2h-1v3h-1v1h-2v-1h-1v-1h-1v-1h-6v-1h-1v-2h1v-1h2v-1z" fill="rgb(238,172,230)"/>
<path d="M77 21h3v1h-3v-1z" fill="rgb(148,74,156)"/>
<path d="M66 22h2v1h-2v-1z" fill="rgb(90,49,115)"/>
<path d="M68 22h1v1h-1v-1z" fill="rgb(189,123,189)"/>
<path d="M80 22h2v1h-2v-1z" fill="rgb(148,74,156)"/>
<path d="M63 23h3v1h-3v-1z" fill="rgb(90,49,115)"/>
<path d="M66 23h2v1h-1v1h-1v2h-1v-2h-2v-1h3v-1z" fill="rgb(189,123,189)"/>
<path d="M81 23h1v1h2v1h1v1h1v2h1v6h-1v2h-1v1h-1v1h-1v-2h1v-2h1v-1h1v-4h-1v1h-2v-2h-1v-1
	h-1v-4z" fill="rgb(205,139,197)"/>
<path d="M82 23h1v1h-1v-1z" fill="rgb(148,74,156)"/>
<path d="M83 23h1v1h-1v-1z" fill="rgb(16,16,16)"/>
<path d="M59 24h4v1h-4v-1z" fill="rgb(90,49,115)"/>
<path d="M67 24h1v1h-1v-1z" fill="rgb(148,74,156)"/>
<path d="M84 24h1v1h-1v-1z" fill="rgb(16,16,16)"/>
<path d="M58 25h1v1h-1v-1z" fill="rgb(90,49,115)"/>
<path d="M59 25h4v2h-1v1h-3v-1h-1v-1h1v-1z" fill="rgb(238,172,230)"/>
<path d="M63 25h2v2h-1v1h-2v-1h1v-2z" fill="rgb(205,139,197)"/>
<path d="M66 25h1v2h-1v-2z" fill="rgb(148,74,156)"/>
<path d="M67 25h2v1h6v1h-2v1h-4v-1h-1v-1h-1v-1z" fill="rgb(205,139,197)"/>
<path d="M80 25h1v2h-1v-2z" fill="rgb(189,123,189)"/>
<path d="M85 25h1v1h-1v-1z" fill="rgb(16,16,16)"/>
<path d="M57 26h1v3h-1v-3z" fill="rgb(90,49,115)"/>
<path d="M67 26h1v1h1v1h4v-1h3v2h1v3h-1v-1h-1v-2h-2v1h-1v2h-1v1h-1v-3h-1v-1h-3v-2h1v-1z" fill="rgb(189,123,189)"/>
<path d="M86 26h1v2h-1v-2z" fill="rgb(16,16,16)"/>
<path d="M58 27h1v1h-1v-1z" fill="rgb(205,139,197)"/>
<path d="M64 27h1v1h-1v-1z" fill="rgb(189,123,189)"/>
<path d="M65 27h1v2h-1v1h-5v-1h4v-1h1v-1z" fill="rgb(148,74,156)"/>
<path d="M80 27h1v2h1v3h-1v1h-3v-1h-1v-3h2v-1h1v-1z" fill="rgb(205,139,197)"/>
<path d="M81 27h1v1h-1v-1z" fill="rgb(148,74,156)"/>
<path d="M58 28h2v1h-2v-1z" fill="rgb(148,74,156)"/>
<path d="M60 28h2v1h-2v-1z" fill="rgb(205,139,197)"/>
<path d="M62 28h2v1h-2v-1z" fill="rgb(189,123,189)"/>
<path d="M76 28h1v1h-1v-1z" fill="rgb(205,139,197)"/>
<path d="M81 28h1v1h-1v-1z" fill="rgb(189,123,189)"/>
<path d="M82 28h1v2h-1v-2z" fill="rgb(148,74,156)"/>
<path d="M87 28h1v6h-1v-6z" fill="rgb(16,16,16)"/>
<path d="M58 29h2v1h-2v-1z" fill="rgb(16,16,16)"/>
<path d="M65 29h1v1h-1v-1z" fill="rgb(205,139,197)"/>
<path d="M66 29h1v1h1v1h1v2h-1v1h-3v-1h-1v-2h1v-1h1v-1z" fill="rgb(238,172,230)"/>
<path d="M67 29h2v1h1v3h-1v-2h-1v-1h-1v-1z" fill="rgb(205,139,197)"/>
<path d="M73 29h2v1h-2v-1z" fill="rgb(148,74,156)"/>
<path d="M85 29h1v1h-1v-1z" fill="rgb(148,74,156)"/>
<path d="M60 30h3v1h-3v-1z" fill="rgb(16,16,16)"/>
<path d="M63 30h1v1h-1v-1z" fill="rgb(90,49,115)"/>
<path d="M64 30h1v1h-1v-1z" fill="rgb(189,123,189)"/>
<path d="M72 30h1v1h-1v-1z" fill="rgb(148,74,156)"/>
<path d="M73 30h2v1h-2v-1z" fill="rgb(16,16,16)"/>
<path d="M82 30h1v4h-1v1h-4v-1h-1v-2h1v1h3v-1h1v-2z" fill="rgb(189,123,189)"/>
<path d="M83 30h1v1h-1v-1z" fill="rgb(148,74,156)"/>
<path d="M84 30h1v2h-1v-2z" fill="rgb(189,123,189)"/>
<path d="M85 30h1v1h-1v-1z" fill="rgb(90,49,115)"/>
<path d="M62 31h1v3h-1v-3z" fill="rgb(90,49,115)"/>
<path d="M63 31h1v2h-1v-2z" fill="rgb(189,123,189)"/>
<path d="M72 31h1v1h-1v-1z" fill="rgb(16,16,16)"/>
<path d="M73 31h2v2h1v2h1v1h1v1h4v-1h1v2h-2v1h-3v1h-4v-1h-2v-1h-1v-1h-1v-1h-1v-1h1v-1h1
	v-1h1v-1h1v-1z" fill="rgb(189,123,189)"/>
<path d="M75 31h1v2h-1v-2z" fill="rgb(16,16,16)"/>
<path d="M83 31h1v1h-1v-1z" fill="rgb(90,49,115)"/>
<path d="M85 31h1v2h-1v-2z" fill="rgb(16,16,16)"/>
<path d="M45 32h10v1h-10v-1z" fill="rgb(90,49,115)"/>
<path d="M71 32h1v1h-1v-1z" fill="rgb(16,16,16)"/>
<path d="M76 32h1v1h-1v-1z" fill="rgb(148,74,156)"/>
<path d="M83 32h1v1h1v1h-1v1h-1v-3z" fill="rgb(16,16,16)"/>
<path d="M84 32h1v1h-1v-1z" fill="rgb(148,74,156)"/>
<path d="M42 33h3v1h-3v-1z" fill="rgb(90,49,115)"/>
<path d="M45 33h9v1h3v1h2v1h2v1h1v1h1v1h1v1h1v2h1v4h1v1h1v1h1v1h1v1h2v1h5v1h-1v1h-1v3h1
	v-1h1v1h1v2h-2v1h-1v1h-2v1h-3v-1h-1v-1h-3v-1h1v-1h3v-1h4v-1h-2v-1h-4v1h-1v1h-3
	v1h-3v-4h-1v-2h6v1h4v-1h-2v-1h-1v-1h-2v-1h-6v-1h-1v-1h-4v1h-1v1h-3v-1h-5v1h-2v1
	h-5v-1h-3v-1h-2v-2h3v1h2v1h5v-1h2v-1h2v-1h8v-1h4v1h3v-1h1v-1h1v-1h-2v1h-2v-1
	h-3v-1h-5v1h-3v1h-1v-2h2v-1h2v-3h-1v-1h-1v-1h-5v-1z" fill="rgb(189,123,189)"/>
<path d="M54 33h1v1h-1v-1z" fill="rgb(148,74,156)"/>
<path d="M55 33h3v1h-3v-1z" fill="rgb(90,49,115)"/>
<path d="M63 33h1v1h-1v-1z" fill="rgb(148,74,156)"/>
<path d="M64 33h1v1h-1v-1z" fill="rgb(189,123,189)"/>
<path d="M68 33h1v1h-1v-1z" fill="rgb(205,139,197)"/>
<path d="M69 33h1v1h-1v-1z" fill="rgb(189,123,189)"/>
<path d="M70 33h1v1h-1v-1z" fill="rgb(16,16,16)"/>
<path d="M76 33h1v2h-1v-2z" fill="rgb(16,16,16)"/>
<path d="M40 34h2v1h-2v-1z" fill="rgb(90,49,115)"/>
<path d="M42 34h1v1h-1v-1z" fill="rgb(148,74,156)"/>
<path d="M43 34h1v1h-1v-1z" fill="rgb(189,123,189)"/>
<path d="M44 34h6v1h1v1h1v3h-2v1h-3v1h-2v1h-3v1h-3v-1h-2v-1h-1v-2h1v-1h2v1h1v1h5v-1h2v-1
	h1v-1h2v-1h-3v1h-6v-1h1v-1h2v-1z" fill="rgb(205,139,197)"/>
<path d="M57 34h1v1h-1v-1z" fill="rgb(148,74,156)"/>
<path d="M58 34h2v1h-2v-1z" fill="rgb(90,49,115)"/>
<path d="M63 34h1v1h-1v-1z" fill="rgb(16,16,16)"/>
<path d="M64 34h5v1h-5v-1z" fill="rgb(148,74,156)"/>
<path d="M69 34h1v1h-1v-1z" fill="rgb(16,16,16)"/>
<path d="M77 34h1v1h-1v-1z" fill="rgb(148,74,156)"/>
<path d="M82 34h1v1h-1v-1z" fill="rgb(148,74,156)"/>
<path d="M86 34h1v3h-1v-3z" fill="rgb(16,16,16)"/>
<path d="M39 35h1v1h-1v-1z" fill="rgb(90,49,115)"/>
<path d="M40 35h1v2h1v1h3v1h-5v-1h-1v-2h1v-1z" fill="rgb(148,74,156)"/>
<path d="M41 35h1v1h-1v-1z" fill="rgb(189,123,189)"/>
<path d="M59 35h1v1h-1v-1z" fill="rgb(148,74,156)"/>
<path d="M60 35h1v1h-1v-1z" fill="rgb(16,16,16)"/>
<path d="M64 35h5v1h-5v-1z" fill="rgb(16,16,16)"/>
<path d="M77 35h1v1h-1v-1z" fill="rgb(16,16,16)"/>
<path d="M78 35h4v1h-4v-1z" fill="rgb(148,74,156)"/>
<path d="M82 35h1v1h-1v-1z" fill="rgb(16,16,16)"/>
<path d="M83 35h1v1h-1v-1z" fill="rgb(189,123,189)"/>
<path d="M37 36h2v1h-2v-1z" fill="rgb(90,49,115)"/>
<path d="M47 36h3v1h-2v1h-1v-2z" fill="rgb(189,123,189)"/>
<path d="M61 36h1v1h-1v-1z" fill="rgb(16,16,16)"/>
<path d="M68 36h1v3h-1v-3z" fill="rgb(90,49,115)"/>
<path d="M69 36h1v1h1v1h1v1h2v1h4v-1h3v-1h3v-1h1v3h-1v1h-2v1h-2v1h-8v-1h-2v-2h-2v-1h1v-3
	z" fill="rgb(148,74,156)"/>
<path d="M78 36h4v1h-4v-1z" fill="rgb(16,16,16)"/>
<path d="M85 36h1v1h-1v-1z" fill="rgb(148,74,156)"/>
<path d="M36 37h1v1h-1v-1z" fill="rgb(90,49,115)"/>
<path d="M37 37h1v1h-1v-1z" fill="rgb(148,74,156)"/>
<path d="M38 37h1v1h-1v-1z" fill="rgb(189,123,189)"/>
<path d="M42 37h3v1h-3v-1z" fill="rgb(189,123,189)"/>
<path d="M45 37h2v1h-2v-1z" fill="rgb(148,74,156)"/>
<path d="M62 37h1v1h-1v-1z" fill="rgb(16,16,16)"/>
<path d="M85 37h1v5h-1v-5z" fill="rgb(16,16,16)"/>
<path d="M35 38h1v1h-1v-1z" fill="rgb(90,49,115)"/>
<path d="M36 38h1v1h-1v-1z" fill="rgb(189,123,189)"/>
<path d="M39 38h1v1h-1v-1z" fill="rgb(189,123,189)"/>
<path d="M45 38h2v1h-2v-1z" fill="rgb(189,123,189)"/>
<path d="M63 38h1v1h-1v-1z" fill="rgb(16,16,16)"/>
<path d="M34 39h1v1h-1v-1z" fill="rgb(90,49,115)"/>
<path d="M35 39h1v2h-1v-2z" fill="rgb(189,123,189)"/>
<path d="M40 39h5v1h-5v-1z" fill="rgb(189,123,189)"/>
<path d="M64 39h1v1h-1v-1z" fill="rgb(16,16,16)"/>
<path d="M67 39h1v1h-1v-1z" fill="rgb(90,49,115)"/>
<path d="M33 40h1v1h-1v-1z" fill="rgb(90,49,115)"/>
<path d="M34 40h1v1h1v1h2v1h1v1h3v-1h3v-1h1v-1h1v1h1v1h7v1h-8v1h-2v1h-2v1h-5v-1h-2v-1h-3
	v2h2v1h3v1h-5v-1h-1v-1h-1v1h1v1h1v1h1v1h1v1h1v4h-1v2h-1v-5h-1v-1h-1v-1h-2v-2
	h-1v-3h1v-2h1v-1h1v-1h1v-1h1v-1z" fill="rgb(148,74,156)"/>
<path d="M47 40h1v1h-1v-1z" fill="rgb(148,74,156)"/>
<path d="M52 40h4v1h-4v-1z" fill="rgb(90,49,115)"/>
<path d="M56 40h1v1h-1v-1z" fill="rgb(148,74,156)"/>
<path d="M65 40h1v1h-1v-1z" fill="rgb(16,16,16)"/>
<path d="M66 40h1v1h-1v-1z" fill="rgb(90,49,115)"/>
<path d="M67 40h1v4h1v2h2v1h2v1h5v-1h2v-1h2v1h-1v1h-1v2h-3v1h-5v-1h-2v-1h-1v-1h-1v-1h-1
	v-1h-1v-5h1v-1z" fill="rgb(148,74,156)"/>
<path d="M68 40h2v2h2v1h8v-1h2v2h-1v1h-1v1h-1v1h-1v1h-5v-1h-2v-1h-2v-2h-1v-4z" fill="rgb(189,123,189)"/>
<path d="M84 40h1v2h-1v3h-1v1h-3v-1h1v-1h1v-3h2v-1z" fill="rgb(205,139,197)"/>
<path d="M32 41h1v1h-1v-1z" fill="rgb(90,49,115)"/>
<path d="M36 41h1v1h-1v-1z" fill="rgb(189,123,189)"/>
<path d="M45 41h1v1h-1v-1z" fill="rgb(189,123,189)"/>
<path d="M47 41h1v1h-1v-1z" fill="rgb(90,49,115)"/>
<path d="M49 41h3v1h-3v-1z" fill="rgb(90,49,115)"/>
<path d="M52 41h3v1h-3v-1z" fill="rgb(172,180,189)"/>
<path d="M55 41h1v1h2v-1h2v1h2v-1h2v1h-1v1h-1v1h-3v-1h-4v-2z" fill="rgb(148,74,156)"/>
<path d="M56 41h2v1h-2v-1z" fill="rgb(90,49,115)"/>
<path d="M65 41h1v1h-1v-1z" fill="rgb(90,49,115)"/>
<path d="M31 42h1v1h-1v-1z" fill="rgb(90,49,115)"/>
<path d="M38 42h1v1h-1v-1z" fill="rgb(189,123,189)"/>
<path d="M42 42h3v1h-3v-1z" fill="rgb(189,123,189)"/>
<path d="M48 42h1v1h-1v-1z" fill="rgb(90,49,115)"/>
<path d="M49 42h1v1h-1v-1z" fill="rgb(172,180,189)"/>
<path d="M50 42h1v1h-1v-1z" fill="rgb(255,255,255)"/>
<path d="M51 42h1v1h-1v-1z" fill="rgb(16,16,16)"/>
<path d="M52 42h3v1h-3v-1z" fill="rgb(255,255,255)"/>
<path d="M84 42h1v3h-1v-3z" fill="rgb(16,16,16)"/>
<path d="M30 43h1v1h-1v-1z" fill="rgb(90,49,115)"/>
<path d="M39 43h3v1h-3v-1z" fill="rgb(189,123,189)"/>
<path d="M29 44h1v2h-1v-2z" fill="rgb(90,49,115)"/>
<path d="M83 45h1v1h-1v-1z" fill="rgb(16,16,16)"/>
<path d="M28 46h1v3h-1v-3z" fill="rgb(90,49,115)"/>
<path d="M54 46h1v1h-1v-1z" fill="rgb(205,139,197)"/>
<path d="M55 46h2v1h-2v-1z" fill="rgb(90,49,115)"/>
<path d="M57 46h1v1h-1v-1z" fill="rgb(148,74,156)"/>
<path d="M79 46h1v1h-1v-1z" fill="rgb(205,139,197)"/>
<path d="M82 46h1v1h-1v-1z" fill="rgb(16,16,16)"/>
<path d="M31 47h1v1h-1v-1z" fill="rgb(90,49,115)"/>
<path d="M45 47h4v1h-4v-1z" fill="rgb(90,49,115)"/>
<path d="M49 47h1v1h-1v-1z" fill="rgb(205,139,197)"/>
<path d="M53 47h1v1h-1v-1z" fill="rgb(205,139,197)"/>
<path d="M54 47h1v1h-1v-1z" fill="rgb(90,49,115)"/>
<path d="M55 47h2v1h1v3h1v2h1v2h-1v-1h-2v-1h-4v-2h1v-3h1v-1z" fill="rgb(16,16,16)"/>
<path d="M57 47h1v1h-1v-1z" fill="rgb(90,49,115)"/>
<path d="M58 47h1v1h-1v-1z" fill="rgb(148,74,156)"/>
<path d="M81 47h1v1h-1v-1z" fill="rgb(16,16,16)"/>
<path d="M32 48h1v1h-1v-1z" fill="rgb(90,49,115)"/>
<path d="M43 48h2v1h-2v-1z" fill="rgb(90,49,115)"/>
<path d="M45 48h4v2h1v4h-3v1h-3v1h-2v1h-1v1h-1v1h-1v1h-1v2h-1v2h-2v-1h-1v-4h1v-2h1v-1h1
	v-4h-1v-1h-1v-1h-1v-1h3v1h6v-1h2v-1z" fill="rgb(16,16,16)"/>
<path d="M49 48h1v2h-1v-2z" fill="rgb(90,49,115)"/>
<path d="M50 48h3v3h-1v7h1v2h1v1h-3v1h-1v-3h1v-9h-1v-2z" fill="rgb(205,139,197)"/>
<path d="M53 48h1v3h-1v-3z" fill="rgb(90,49,115)"/>
<path d="M58 48h1v3h-1v-3z" fill="rgb(90,49,115)"/>
<path d="M59 48h6v1h2v1h1v1h2v1h-4v-1h-7v-3z" fill="rgb(148,74,156)"/>
<path d="M80 48h1v4h-1v-4z" fill="rgb(16,16,16)"/>
<path d="M29 49h1v2h-1v-2z" fill="rgb(16,16,16)"/>
<path d="M33 49h1v1h-1v-1z" fill="rgb(90,49,115)"/>
<path d="M37 49h6v1h-6v-1z" fill="rgb(90,49,115)"/>
<path d="M34 50h1v1h-1v-1z" fill="rgb(90,49,115)"/>
<path d="M50 50h1v9h-1v-9z" fill="rgb(90,49,115)"/>
<path d="M77 50h1v1h-1v-1z" fill="rgb(189,123,189)"/>
<path d="M78 50h2v2h-3v-1h1v-1z" fill="rgb(205,139,197)"/>
<path d="M28 51h1v1h-1v-1z" fill="rgb(90,49,115)"/>
<path d="M29 51h1v1h-1v-1z" fill="rgb(148,74,156)"/>
<path d="M30 51h2v1h-2v-1z" fill="rgb(16,16,16)"/>
<path d="M35 51h1v1h-1v-1z" fill="rgb(90,49,115)"/>
<path d="M52 51h1v7h-1v-7z" fill="rgb(90,49,115)"/>
<path d="M59 51h1v2h-1v-2z" fill="rgb(90,49,115)"/>
<path d="M27 52h1v1h-1v-1z" fill="rgb(90,49,115)"/>
<path d="M28 52h4v3h-1v2h-1v-1h-1v-1h-1v-1h-1v-1h1v-1z" fill="rgb(205,139,197)"/>
<path d="M32 52h1v1h-1v-1z" fill="rgb(16,16,16)"/>
<path d="M36 52h1v4h-1v-4z" fill="rgb(90,49,115)"/>
<path d="M76 52h1v1h-1v-1z" fill="rgb(205,139,197)"/>
<path d="M77 52h3v1h-3v-1z" fill="rgb(16,16,16)"/>
<path d="M26 53h1v1h-1v-1z" fill="rgb(90,49,115)"/>
<path d="M32 53h1v4h-2v-2h1v-2z" fill="rgb(189,123,189)"/>
<path d="M33 53h1v4h-1v-4z" fill="rgb(16,16,16)"/>
<path d="M53 53h4v1h-4v-1z" fill="rgb(65,74,90)"/>
<path d="M60 53h1v3h-1v-3z" fill="rgb(90,49,115)"/>
<path d="M75 53h1v2h-1v-2z" fill="rgb(205,139,197)"/>
<path d="M76 53h1v2h-1v-2z" fill="rgb(16,16,16)"/>
<path d="M24 54h2v1h-2v-1z" fill="rgb(90,49,115)"/>
<path d="M26 54h2v1h1v1h1v1h2v2h-1v2h-2v-1h-1v-1h-1v-1h-1v-1h-1v-1h-1v-1h2v-1z" fill="rgb(148,74,156)"/>
<path d="M47 54h3v1h-3v-1z" fill="rgb(65,74,90)"/>
<path d="M53 54h4v1h2v3h-1v2h-1v1h-2v-1h-1v-2h-1v-4z" fill="rgb(131,139,156)"/>
<path d="M57 54h2v1h-2v-1z" fill="rgb(65,74,90)"/>
<path d="M68 54h4v1h2v1h-4v1h-3v1h-1v1h-3v1h-3v-1h-1v-1h1v-2h1v1h3v-1h3v-1h1v-1z" fill="rgb(148,74,156)"/>
<path d="M22 55h2v1h-2v-1z" fill="rgb(90,49,115)"/>
<path d="M44 55h3v1h-3v-1z" fill="rgb(65,74,90)"/>
<path d="M47 55h3v3h-2v-1h-4v-1h3v-1z" fill="rgb(131,139,156)"/>
<path d="M59 55h1v1h-1v-1z" fill="rgb(65,74,90)"/>
<path d="M75 55h1v1h-1v-1z" fill="rgb(16,16,16)"/>
<path d="M77 55h1v1h-1v-1z" fill="rgb(16,16,16)"/>
<path d="M20 56h2v1h-2v-1z" fill="rgb(90,49,115)"/>
<path d="M22 56h3v1h1v1h1v1h1v1h1v2h-1v1h-1v-2h-2v-1h-1v-1h-2v-1h-2v-1h2v-1z" fill="rgb(205,139,197)"/>
<path d="M35 56h1v1h-1v-1z" fill="rgb(90,49,115)"/>
<path d="M42 56h2v1h-2v-1z" fill="rgb(65,74,90)"/>
<path d="M59 56h1v2h-1v-2z" fill="rgb(90,49,115)"/>
<path d="M78 56h1v2h-1v-2z" fill="rgb(16,16,16)"/>
<path d="M19 57h1v1h-1v-1z" fill="rgb(90,49,115)"/>
<path d="M32 57h1v2h-1v-2z" fill="rgb(16,16,16)"/>
<path d="M33 57h1v6h1v1h1v1h9v-1h3v1h-2v1h-3v1h-8v-1h-1v-1h-1v-2h-1v-4h1v-2z" fill="rgb(205,139,197)"/>
<path d="M41 57h1v1h-1v-1z" fill="rgb(65,74,90)"/>
<path d="M42 57h1v1h-1v-1z" fill="rgb(131,139,156)"/>
<path d="M43 57h5v1h2v1h-1v3h-1v1h-9v-2h1v-1h1v-1h1v-1h1v-1z" fill="rgb(172,180,189)"/>
<path d="M18 58h1v1h-1v-1z" fill="rgb(90,49,115)"/>
<path d="M19 58h3v1h2v1h1v1h2v2h1v2h1v2h2v1h1v1h2v1h2v1h10v-1h4v-1h4v-1h4v1h2v1h6v1h-2v1
	h-6v-1h-6v1h-4v1h-2v1h-3v1h-5v-1h-3v-1h-2v1h-1v-1h-1v-1h-1v-2h-1v-1h-1v-2h-1v1
	h-1v1h-1v1h-1v-1h-1v-2h-1v-1h-2v-1h-3v-1h1v-1h-1v-3h1v-1h1v-1z" fill="rgb(148,74,156)"/>
<path d="M34 58h1v1h-1v-1z" fill="rgb(90,49,115)"/>
<path d="M40 58h1v1h-1v-1z" fill="rgb(65,74,90)"/>
<path d="M41 58h1v1h-1v-1z" fill="rgb(131,139,156)"/>
<path d="M53 58h1v2h-1v-2z" fill="rgb(90,49,115)"/>
<path d="M58 58h1v2h-1v-2z" fill="rgb(90,49,115)"/>
<path d="M76 58h2v1h-2v-1z" fill="rgb(90,49,115)"/>
<path d="M78 58h1v1h-1v-1z" fill="rgb(148,74,156)"/>
<path d="M79 58h1v1h-1v-1z" fill="rgb(16,16,16)"/>
<path d="M17 59h1v1h-1v-1z" fill="rgb(90,49,115)"/>
<path d="M31 59h1v4h-1v-4z" fill="rgb(16,16,16)"/>
<path d="M39 59h1v1h-1v-1z" fill="rgb(65,74,90)"/>
<path d="M40 59h1v1h-1v-1z" fill="rgb(131,139,156)"/>
<path d="M49 59h1v3h-1v-3z" fill="rgb(90,49,115)"/>
<path d="M59 59h1v1h3v-1h3v1h-1v1h-1v2h-2v1h-2v1h5v-1h1v-1h7v-1h2v-1h1v-1h2v-1h2v1h1v1
	h-1v1h-1v1h-3v1h-2v1h-2v2h-1v1h2v-1h1v-1h5v-1h1v-1h1v-1h1v-1h2v1h1v1h-1v2h-1v1
	h-1v1h-6v1h-3v1h-2v1h-1v1h-2v1h-1v1h-2v1h-4v-1h-2v-1h-7v1h-2v1h-2v1h-3v1h-6v-1
	h-2v-1h-2v-1h3v1h5v-1h3v-1h2v-1h4v-1h6v1h6v-1h2v-1h-2v-1h2v-2h1v-1h1v-1h-2v1h-1
	v1h-2v1h-3v-1h-1v-1h-3v1h-2v1h-3v-1h-2v1h-4v1h-6v-1h-3v-1h7v-1h3v-1h2v-1h1v-1h1
	v-1h1v-1h3v1h3v-1h2v-2z" fill="rgb(189,123,189)"/>
<path d="M66 59h3v1h-3v-1z" fill="rgb(90,49,115)"/>
<path d="M75 59h1v1h-1v-1z" fill="rgb(90,49,115)"/>
<path d="M76 59h2v1h-2v-1z" fill="rgb(148,74,156)"/>
<path d="M80 59h2v1h-2v-1z" fill="rgb(16,16,16)"/>
<path d="M16 60h1v3h-1v-3z" fill="rgb(90,49,115)"/>
<path d="M38 60h1v2h-1v-2z" fill="rgb(65,74,90)"/>
<path d="M39 60h1v1h-1v-1z" fill="rgb(131,139,156)"/>
<path d="M54 60h1v1h-1v-1z" fill="rgb(90,49,115)"/>
<path d="M57 60h1v1h-1v-1z" fill="rgb(90,49,115)"/>
<path d="M58 60h1v1h-1v-1z" fill="rgb(148,74,156)"/>
<path d="M65 60h1v1h-1v-1z" fill="rgb(90,49,115)"/>
<path d="M66 60h3v1h1v1h3v1h-7v1h-1v1h-5v-1h2v-1h2v-1h1v-1h1v-1z" fill="rgb(148,74,156)"/>
<path d="M69 60h1v1h-1v-1z" fill="rgb(90,49,115)"/>
<path d="M73 60h2v1h-2v-1z" fill="rgb(90,49,115)"/>
<path d="M75 60h1v1h-1v-1z" fill="rgb(148,74,156)"/>
<path d="M81 60h1v1h1v1h-1v1h-1v1h-1v1h-1v1h-5v1h-1v1h-2v-1h1v-2h2v-1h2v-1h3v-1h1v-1h1
	v-1z" fill="rgb(148,74,156)"/>
<path d="M82 60h1v1h-1v-1z" fill="rgb(16,16,16)"/>
<path d="M29 61h2v3h1v1h1v1h1v1h1v1h1v1h3v1h6v-1h4v-1h1v2h-4v1h-10v-1h-2v-1h-2v-1h-1v-1
	h-2v-2h-1v-3h1v-1z" fill="rgb(189,123,189)"/>
<path d="M54 61h1v1h-1v-1z" fill="rgb(205,139,197)"/>
<path d="M55 61h2v1h-2v-1z" fill="rgb(90,49,115)"/>
<path d="M64 61h1v1h-1v-1z" fill="rgb(90,49,115)"/>
<path d="M70 61h3v1h-3v-1z" fill="rgb(90,49,115)"/>
<path d="M73 61h2v1h-2v-1z" fill="rgb(148,74,156)"/>
<path d="M83 61h1v1h-1v-1z" fill="rgb(16,16,16)"/>
<path d="M18 62h3v1h-3v-1z" fill="rgb(90,49,115)"/>
<path d="M37 62h1v2h-1v-2z" fill="rgb(65,74,90)"/>
<path d="M38 62h1v1h6v1h-7v-2z" fill="rgb(131,139,156)"/>
<path d="M48 62h1v1h-1v-1z" fill="rgb(90,49,115)"/>
<path d="M49 62h1v1h-1v-1z" fill="rgb(205,139,197)"/>
<path d="M84 62h1v1h-1v-1z" fill="rgb(16,16,16)"/>
<path d="M17 63h1v1h-1v-1z" fill="rgb(90,49,115)"/>
<path d="M21 63h2v1h-2v-1z" fill="rgb(90,49,115)"/>
<path d="M31 63h1v1h-1v-1z" fill="rgb(148,74,156)"/>
<path d="M32 63h1v2h-1v-2z" fill="rgb(16,16,16)"/>
<path d="M45 63h3v1h-3v-1z" fill="rgb(90,49,115)"/>
<path d="M48 63h1v1h-1v-1z" fill="rgb(205,139,197)"/>
<path d="M85 63h1v3h-1v-3z" fill="rgb(16,16,16)"/>
<path d="M16 64h1v1h-1v-1z" fill="rgb(90,49,115)"/>
<path d="M36 64h9v1h-9v-1z" fill="rgb(90,49,115)"/>
<path d="M84 64h1v2h-1v-2z" fill="rgb(148,74,156)"/>
<path d="M14 65h2v1h-2v-1z" fill="rgb(90,49,115)"/>
<path d="M16 65h1v1h-1v-1z" fill="rgb(148,74,156)"/>
<path d="M17 65h3v1h2v1h1v2h1v4h-3v-1h-1v-1h-1v-1h1v-2h-1v-1h-4v-1h2v-1z" fill="rgb(189,123,189)"/>
<path d="M33 65h1v1h-1v-1z" fill="rgb(16,16,16)"/>
<path d="M66 65h2v1h-1v1h-1v2h-2v1h-4v-1h-2v-1h-4v-1h2v-1h3v1h1v1h3v-1h2v-1h1v-1z" fill="rgb(205,139,197)"/>
<path d="M12 66h2v1h-2v-1z" fill="rgb(90,49,115)"/>
<path d="M14 66h1v1h-1v-1z" fill="rgb(148,74,156)"/>
<path d="M34 66h1v1h-1v-1z" fill="rgb(16,16,16)"/>
<path d="M51 66h1v1h-1v-1z" fill="rgb(16,16,16)"/>
<path d="M83 66h1v1h-1v-1z" fill="rgb(148,74,156)"/>
<path d="M84 66h1v1h-1v-1z" fill="rgb(16,16,16)"/>
<path d="M11 67h1v1h-1v-1z" fill="rgb(90,49,115)"/>
<path d="M12 67h3v1h-3v-1z" fill="rgb(189,123,189)"/>
<path d="M15 67h4v1h1v2h-1v1h-2v1h-2v1h-2v-1h-1v-3h1v-1h2v-1z" fill="rgb(205,139,197)"/>
<path d="M27 67h1v2h-1v-2z" fill="rgb(16,16,16)"/>
<path d="M35 67h1v1h-1v-1z" fill="rgb(16,16,16)"/>
<path d="M49 67h2v1h-2v-1z" fill="rgb(16,16,16)"/>
<path d="M82 67h1v1h-1v-1z" fill="rgb(148,74,156)"/>
<path d="M83 67h1v1h-1v-1z" fill="rgb(16,16,16)"/>
<path d="M10 68h1v3h-1v-3z" fill="rgb(90,49,115)"/>
<path d="M11 68h2v1h-1v2h-1v-3z" fill="rgb(148,74,156)"/>
<path d="M26 68h1v1h-1v-1z" fill="rgb(90,49,115)"/>
<path d="M36 68h3v1h-3v-1z" fill="rgb(16,16,16)"/>
<path d="M45 68h4v1h-4v-1z" fill="rgb(16,16,16)"/>
<path d="M50 68h4v1h-4v-1z" fill="rgb(205,139,197)"/>
<path d="M76 68h4v1h-4v-1z" fill="rgb(148,74,156)"/>
<path d="M80 68h3v1h-3v-1z" fill="rgb(16,16,16)"/>
<path d="M25 69h1v1h-1v-1z" fill="rgb(90,49,115)"/>
<path d="M28 69h1v1h-1v-1z" fill="rgb(16,16,16)"/>
<path d="M39 69h6v1h-6v-1z" fill="rgb(16,16,16)"/>
<path d="M73 69h2v1h-1v1h-2v1h-2v-1h1v-1h2v-1z" fill="rgb(148,74,156)"/>
<path d="M75 69h5v1h-5v-1z" fill="rgb(16,16,16)"/>
<path d="M24 70h1v2h-1v-2z" fill="rgb(90,49,115)"/>
<path d="M29 70h1v2h-1v-2z" fill="rgb(16,16,16)"/>
<path d="M74 70h1v1h-1v-1z" fill="rgb(16,16,16)"/>
<path d="M11 71h1v1h-1v-1z" fill="rgb(16,16,16)"/>
<path d="M17 71h3v1h-3v-1z" fill="rgb(148,74,156)"/>
<path d="M72 71h2v1h-2v-1z" fill="rgb(16,16,16)"/>
<path d="M12 72h1v1h-1v-1z" fill="rgb(16,16,16)"/>
<path d="M15 72h1v1h-1v-1z" fill="rgb(148,74,156)"/>
<path d="M16 72h4v1h-4v-1z" fill="rgb(16,16,16)"/>
<path d="M20 72h1v1h-1v-1z" fill="rgb(148,74,156)"/>
<path d="M24 72h1v1h-1v-1z" fill="rgb(16,16,16)"/>
<path d="M30 72h1v1h-1v-1z" fill="rgb(16,16,16)"/>
<path d="M68 72h1v1h-1v-1z" fill="rgb(148,74,156)"/>
<path d="M69 72h3v1h-3v-1z" fill="rgb(16,16,16)"/>
<path d="M13 73h3v1h-3v-1z" fill="rgb(16,16,16)"/>
<path d="M20 73h4v1h-4v-1z" fill="rgb(16,16,16)"/>
<path d="M31 73h1v1h-1v-1z" fill="rgb(16,16,16)"/>
<path d="M33 73h2v1h-2v-1z" fill="rgb(189,123,189)"/>
<path d="M52 73h1v1h-1v-1z" fill="rgb(148,74,156)"/>
<path d="M53 73h5v1h-5v-1z" fill="rgb(16,16,16)"/>
<path d="M58 73h1v1h-1v-1z" fill="rgb(148,74,156)"/>
<path d="M67 73h1v1h-1v-1z" fill="rgb(148,74,156)"/>
<path d="M68 73h1v1h-1v-1z" fill="rgb(16,16,16)"/>
<path d="M32 74h2v1h-2v-1z" fill="rgb(16,16,16)"/>
<path d="M34 74h1v1h-1v-1z" fill="rgb(148,74,156)"/>
<path d="M50 74h1v1h-1v-1z" fill="rgb(148,74,156)"/>
<path d="M51 74h2v1h-2v-1z" fill="rgb(16,16,16)"/>
<path d="M58 74h2v1h-2v-1z" fill="rgb(16,16,16)"/>
<path d="M60 74h1v1h-1v-1z" fill="rgb(148,74,156)"/>
<path d="M65 74h1v1h-1v-1z" fill="rgb(148,74,156)"/>
<path d="M66 74h2v1h-2v-1z" fill="rgb(16,16,16)"/>
<path d="M34 75h2v1h-2v-1z" fill="rgb(16,16,16)"/>
<path d="M36 75h1v1h-1v-1z" fill="rgb(148,74,156)"/>
<path d="M48 75h1v1h-1v-1z" fill="rgb(148,74,156)"/>
<path d="M49 75h2v1h-2v-1z" fill="rgb(16,16,16)"/>
<path d="M60 75h6v1h-6v-1z" fill="rgb(16,16,16)"/>
<path d="M36 76h2v1h-2v-1z" fill="rgb(16,16,16)"/>
<path d="M38 76h1v1h-1v-1z" fill="rgb(148,74,156)"/>
<path d="M45 76h1v1h-1v-1z" fill="rgb(148,74,156)"/>
<path d="M46 76h3v1h-3v-1z" fill="rgb(16,16,16)"/>
<path d="M38 77h8v1h-8v-1z" fill="rgb(16,16,16)"/>
</svg>
