<?xml version="1.0" encoding="utf-8"?>
<!-- generated at drububu.com  -->
<!DOCTYPE svg PUBLIC "-//W3C//DTD SVG 1.1//EN" "http://www.w3.org/Graphics/SVG/1.1/DTD/svg11.dtd">
<svg version="1.1" preserveAspectRatio="xMinYMin meet" xmlns="http://www.w3.org/2000/svg" xmlns:xlink="http://www.w3.org/1999/xlink" x="0px" y="0px" width="96px" height="96px" viewBox="0 0 96 96">
<path d="M0 0h96v96h-96v-96z" fill="transparent"/>
<path d="M26 18h2v1h-2v-1z" fill="rgb(8,57,98)"/>
<path d="M43 18h2v1h-2v-1z" fill="rgb(32,98,172)"/>
<path d="M22 19h3v1h-3v-1z" fill="rgb(74,74,74)"/>
<path d="M25 19h1v2h-1v-2z" fill="rgb(8,57,98)"/>
<path d="M26 19h2v1h1v1h-1v1h-1v-1h-1v-2z" fill="rgb(90,139,205)"/>
<path d="M28 19h2v1h1v1h-2v-1h-1v-1z" fill="rgb(8,57,98)"/>
<path d="M32 19h6v1h-6v-1z" fill="rgb(32,98,172)"/>
<path d="M41 19h2v1h-2v-1z" fill="rgb(8,57,98)"/>
<path d="M43 19h2v1h-1v1h-1v-2z" fill="rgb(148,172,230)"/>
<path d="M45 19h1v1h-1v-1z" fill="rgb(8,57,98)"/>
<path d="M21 20h1v1h-1v-1z" fill="rgb(74,74,74)"/>
<path d="M22 20h3v2h1v2h-1v1h-1v-1h-2v-1h-1v-2h1v-1z" fill="rgb(205,205,213)"/>
<path d="M31 20h1v1h-1v-1z" fill="rgb(32,98,172)"/>
<path d="M32 20h6v1h2v1h-1v1h1v-1h1v-1h1v1h1v-1h1v-1h1v2h-1v1h-1v3h2v-4h1v4h1v2h1v4h-1v1
	h-1v1h-2v-1h-1v-1h-1v2h-1v1h-4v1h-2v1h-5v-1h1v-1h-3v1h-2v-1h-2v-2h1v-1h5v-1h10
	v-1h1v-1h1v-1h-1v-1h-1v-1h1v-1h-2v1h-1v1h-1v1h-1v1h-3v-2h-1v2h-4v-2h-1v2h-1v-1
	h-1v-2h1v-1h1v-2h1v-1h1v-1h3v-1z" fill="rgb(90,139,205)"/>
<path d="M38 20h2v1h-2v-1z" fill="rgb(32,98,172)"/>
<path d="M40 20h1v2h-1v-2z" fill="rgb(8,57,98)"/>
<path d="M41 20h1v1h-1v-1z" fill="rgb(32,98,172)"/>
<path d="M42 20h1v1h-1v-1z" fill="rgb(90,139,205)"/>
<path d="M45 20h1v2h-1v-2z" fill="rgb(16,16,16)"/>
<path d="M20 21h1v2h-1v-2z" fill="rgb(16,16,16)"/>
<path d="M25 21h1v1h-1v-1z" fill="rgb(16,16,16)"/>
<path d="M26 21h1v1h1v1h-2v-2z" fill="rgb(32,98,172)"/>
<path d="M28 21h1v1h-1v-1z" fill="rgb(8,57,98)"/>
<path d="M42 21h1v1h-1v-1z" fill="rgb(148,172,230)"/>
<path d="M39 22h1v1h-1v-1z" fill="rgb(32,98,172)"/>
<path d="M44 22h1v1h-1v-1z" fill="rgb(74,74,74)"/>
<path d="M46 22h1v3h-1v-3z" fill="rgb(16,16,16)"/>
<path d="M19 23h1v3h-1v-3z" fill="rgb(16,16,16)"/>
<path d="M20 23h2v1h2v1h1v1h-1v2h-1v-1h-2v-1h-1v-3z" fill="rgb(148,148,148)"/>
<path d="M26 23h1v1h-1v-1z" fill="rgb(8,57,98)"/>
<path d="M43 23h1v1h-1v-1z" fill="rgb(74,74,74)"/>
<path d="M44 23h1v3h-2v-2h1v-1z" fill="rgb(16,16,16)"/>
<path d="M47 23h8v1h-3v1h-2v-1h-3v-1z" fill="rgb(90,57,24)"/>
<path d="M25 24h1v1h-1v-1z" fill="rgb(8,57,98)"/>
<path d="M26 24h1v1h-1v-1z" fill="rgb(32,98,172)"/>
<path d="M47 24h2v1h2v1h2v1h1v1h1v1h1v2h1v2h2v1h1v1h2v1h1v1h1v2h1v3h-3v-2h-1v-1h-1v-1h-1
	v-1h-1v-1h-7v-2h1v-1h1v-3h-1v-1h-1v-1h-2v-1h-1v-2h-1v-1z" fill="rgb(255,255,255)"/>
<path d="M49 24h1v1h-1v-1z" fill="rgb(205,205,213)"/>
<path d="M52 24h3v1h3v1h1v1h-1v2h-2v-1h-2v-2h-1v-1h-1v-1z" fill="rgb(139,98,65)"/>
<path d="M55 24h3v1h-3v-1z" fill="rgb(90,57,24)"/>
<path d="M61 24h5v1h-5v-1z" fill="rgb(16,16,16)"/>
<path d="M66 24h1v1h-1v-1z" fill="rgb(90,57,24)"/>
<path d="M25 25h1v1h-1v-1z" fill="rgb(16,16,16)"/>
<path d="M34 25h2v1h-1v1h-2v-1h1v-1z" fill="rgb(148,172,230)"/>
<path d="M39 25h1v1h-1v-1z" fill="rgb(8,57,98)"/>
<path d="M40 25h1v1h-1v-1z" fill="rgb(32,98,172)"/>
<path d="M46 25h1v1h-1v-1z" fill="rgb(32,98,172)"/>
<path d="M47 25h1v2h-1v-2z" fill="rgb(16,16,16)"/>
<path d="M51 25h1v1h-1v-1z" fill="rgb(205,205,213)"/>
<path d="M52 25h1v1h-1v-1z" fill="rgb(90,57,24)"/>
<path d="M58 25h2v1h-2v-1z" fill="rgb(90,57,24)"/>
<path d="M60 25h1v1h-1v-1z" fill="rgb(16,16,16)"/>
<path d="M61 25h2v1h-1v1h-1v1h-1v-2h1v-1z" fill="rgb(139,98,65)"/>
<path d="M63 25h1v1h-1v-1z" fill="rgb(90,57,24)"/>
<path d="M64 25h3v1h1v1h1v1h1v1h1v1h-3v-1h-1v-1h-1v-1h-1v1h-1v1h-1v1h-1v1h-2v-2h1v-1h1
	v-1h1v-1h1v-1z" fill="rgb(213,172,74)"/>
<path d="M67 25h1v1h-1v-1z" fill="rgb(90,57,24)"/>
<path d="M20 26h1v1h-1v-1z" fill="rgb(16,16,16)"/>
<path d="M24 26h1v2h-1v-2z" fill="rgb(16,16,16)"/>
<path d="M38 26h1v1h-1v-1z" fill="rgb(8,57,98)"/>
<path d="M39 26h1v1h-1v-1z" fill="rgb(32,98,172)"/>
<path d="M53 26h1v1h-1v-1z" fill="rgb(90,57,24)"/>
<path d="M59 26h1v1h-1v-1z" fill="rgb(16,16,16)"/>
<path d="M62 26h1v1h-1v-1z" fill="rgb(90,57,24)"/>
<path d="M68 26h1v1h-1v-1z" fill="rgb(90,57,24)"/>
<path d="M21 27h1v1h-1v-1z" fill="rgb(16,16,16)"/>
<path d="M22 27h1v2h-1v-2z" fill="rgb(74,74,74)"/>
<path d="M27 27h1v1h-1v-1z" fill="rgb(32,98,172)"/>
<path d="M32 27h1v1h-1v-1z" fill="rgb(32,98,172)"/>
<path d="M37 27h1v1h-1v-1z" fill="rgb(16,16,16)"/>
<path d="M38 27h2v1h1v2h-1v-1h-2v-2z" fill="rgb(205,205,213)"/>
<path d="M40 27h1v1h-1v-1z" fill="rgb(32,98,172)"/>
<path d="M47 27h1v1h-1v-1z" fill="rgb(32,98,172)"/>
<path d="M48 27h1v1h-1v-1z" fill="rgb(16,16,16)"/>
<path d="M58 27h2v1h-2v-1z" fill="rgb(90,57,24)"/>
<path d="M61 27h1v1h-1v-1z" fill="rgb(90,57,24)"/>
<path d="M65 27h1v1h-1v-1z" fill="rgb(139,98,65)"/>
<path d="M69 27h1v1h-1v-1z" fill="rgb(90,57,24)"/>
<path d="M23 28h1v1h-1v-1z" fill="rgb(16,16,16)"/>
<path d="M24 28h1v1h-1v-1z" fill="rgb(148,148,148)"/>
<path d="M25 28h1v1h-1v-1z" fill="rgb(16,16,16)"/>
<path d="M27 28h1v2h-2v2h-3v-1h2v-2h2v-1z" fill="rgb(8,57,98)"/>
<path d="M32 28h1v2h-1v-2z" fill="rgb(8,57,98)"/>
<path d="M36 28h1v1h-1v-1z" fill="rgb(32,98,172)"/>
<path d="M37 28h1v1h-1v-1z" fill="rgb(213,172,74)"/>
<path d="M41 28h1v1h-1v-1z" fill="rgb(32,98,172)"/>
<path d="M48 28h1v3h-1v-3z" fill="rgb(8,57,98)"/>
<path d="M49 28h1v1h2v1h1v2h-1v1h-1v1h-1v1h-1v1h-1v1h-1v2h-2v1h-1v1h-1v1h-2v-1h1v-1h1v-1
	h1v-1h1v-2h2v-2h1v-3h1v-3z" fill="rgb(16,16,16)"/>
<path d="M50 28h1v1h-1v-1z" fill="rgb(148,148,148)"/>
<path d="M55 28h1v1h-1v-1z" fill="rgb(90,57,24)"/>
<path d="M58 28h1v1h-1v-1z" fill="rgb(16,16,16)"/>
<path d="M59 28h1v1h-1v-1z" fill="rgb(139,98,65)"/>
<path d="M60 28h1v1h-1v-1z" fill="rgb(90,57,24)"/>
<path d="M64 28h1v1h-1v-1z" fill="rgb(90,57,24)"/>
<path d="M65 28h1v1h1v1h1v1h-1v1h-1v-1h-3v-1h1v-1h1v-1z" fill="rgb(16,16,16)"/>
<path d="M66 28h1v1h-1v-1z" fill="rgb(90,57,24)"/>
<path d="M70 28h1v1h-1v-1z" fill="rgb(90,57,24)"/>
<path d="M24 29h1v1h-1v-1z" fill="rgb(74,74,74)"/>
<path d="M28 29h4v1h1v1h-3v1h-2v-3z" fill="rgb(32,98,172)"/>
<path d="M33 29h2v1h-2v-1z" fill="rgb(32,98,172)"/>
<path d="M35 29h1v1h-1v-1z" fill="rgb(8,57,98)"/>
<path d="M36 29h1v2h-1v-2z" fill="rgb(16,16,16)"/>
<path d="M37 29h1v2h-1v-2z" fill="rgb(139,98,65)"/>
<path d="M38 29h2v2h-2v-2z" fill="rgb(255,255,255)"/>
<path d="M56 29h2v2h-1v-1h-1v-1z" fill="rgb(90,57,24)"/>
<path d="M58 29h1v1h-1v-1z" fill="rgb(139,98,65)"/>
<path d="M59 29h1v1h-1v-1z" fill="rgb(90,57,24)"/>
<path d="M63 29h1v1h-1v-1z" fill="rgb(90,57,24)"/>
<path d="M67 29h1v1h-1v-1z" fill="rgb(90,57,24)"/>
<path d="M71 29h1v1h-1v-1z" fill="rgb(90,57,24)"/>
<path d="M26 30h1v2h-1v-2z" fill="rgb(205,205,213)"/>
<path d="M27 30h1v1h-1v-1z" fill="rgb(16,16,16)"/>
<path d="M33 30h2v1h-2v-1z" fill="rgb(8,57,98)"/>
<path d="M35 30h1v1h-1v-1z" fill="rgb(205,205,213)"/>
<path d="M56 30h1v1h-1v-1z" fill="rgb(205,205,213)"/>
<path d="M58 30h1v1h-1v-1z" fill="rgb(16,16,16)"/>
<path d="M59 30h1v1h1v1h-1v1h-1v-3z" fill="rgb(139,98,65)"/>
<path d="M62 30h1v1h-1v-1z" fill="rgb(90,57,24)"/>
<path d="M68 30h3v1h-3v-1z" fill="rgb(74,74,74)"/>
<path d="M71 30h1v1h-1v-1z" fill="rgb(213,172,74)"/>
<path d="M72 30h1v1h-1v-1z" fill="rgb(90,57,24)"/>
<path d="M16 31h3v1h-3v-1z" fill="rgb(74,74,74)"/>
<path d="M19 31h1v1h-1v-1z" fill="rgb(16,16,16)"/>
<path d="M27 31h1v1h-1v-1z" fill="rgb(90,57,24)"/>
<path d="M57 31h1v1h-1v-1z" fill="rgb(74,74,74)"/>
<path d="M58 31h1v1h-1v-1z" fill="rgb(90,57,24)"/>
<path d="M61 31h1v1h-1v-1z" fill="rgb(90,57,24)"/>
<path d="M62 31h1v1h-1v-1z" fill="rgb(16,16,16)"/>
<path d="M63 31h3v1h-2v1h-1v1h-1v-2h1v-1z" fill="rgb(74,74,74)"/>
<path d="M67 31h1v1h-1v-1z" fill="rgb(148,148,148)"/>
<path d="M68 31h1v1h-1v-1z" fill="rgb(205,205,213)"/>
<path d="M69 31h2v1h3v1h2v1h-5v1h-1v1h-1v1h-1v-1h-2v-3h1v-1h2v-1z" fill="rgb(255,255,255)"/>
<path d="M71 31h3v1h-3v-1z" fill="rgb(74,74,74)"/>
<path d="M14 32h1v2h-1v-2z" fill="rgb(74,74,74)"/>
<path d="M15 32h2v1h-2v-1z" fill="rgb(16,16,16)"/>
<path d="M17 32h1v1h-1v-1z" fill="rgb(255,255,255)"/>
<path d="M18 32h1v1h-1v-1z" fill="rgb(205,205,213)"/>
<path d="M19 32h1v1h1v1h-1v2h-2v-2h1v-2z" fill="rgb(32,98,172)"/>
<path d="M20 32h3v1h-1v1h-1v-1h-1v-1z" fill="rgb(8,57,98)"/>
<path d="M23 32h1v1h-1v-1z" fill="rgb(32,98,172)"/>
<path d="M24 32h1v1h-1v-1z" fill="rgb(16,16,16)"/>
<path d="M42 32h1v2h-1v-2z" fill="rgb(8,57,98)"/>
<path d="M47 32h1v1h-1v-1z" fill="rgb(32,98,172)"/>
<path d="M52 32h1v1h-1v-1z" fill="rgb(148,148,148)"/>
<path d="M57 32h1v1h-1v-1z" fill="rgb(205,205,213)"/>
<path d="M58 32h1v1h-1v-1z" fill="rgb(74,74,74)"/>
<path d="M60 32h1v1h-1v-1z" fill="rgb(90,57,24)"/>
<path d="M61 32h1v2h-1v-2z" fill="rgb(16,16,16)"/>
<path d="M64 32h1v1h-1v-1z" fill="rgb(148,148,148)"/>
<path d="M65 32h1v1h-1v-1z" fill="rgb(16,16,16)"/>
<path d="M66 32h1v1h-1v-1z" fill="rgb(205,205,213)"/>
<path d="M74 32h2v1h-2v-1z" fill="rgb(74,74,74)"/>
<path d="M13 33h1v2h-1v-2z" fill="rgb(16,16,16)"/>
<path d="M15 33h2v1h-1v1h-2v-1h1v-1z" fill="rgb(205,205,213)"/>
<path d="M17 33h1v1h-1v-1z" fill="rgb(16,16,16)"/>
<path d="M18 33h1v1h-1v-1z" fill="rgb(8,57,98)"/>
<path d="M22 33h1v2h1v3h-2v-1h-2v-1h1v-2h1v-1z" fill="rgb(32,98,172)"/>
<path d="M23 33h1v2h-1v-2z" fill="rgb(16,16,16)"/>
<path d="M43 33h1v1h-1v-1z" fill="rgb(32,98,172)"/>
<path d="M46 33h1v2h-1v1h-1v-1h-1v-1h2v-1z" fill="rgb(32,98,172)"/>
<path d="M47 33h1v1h-1v-1z" fill="rgb(8,57,98)"/>
<path d="M51 33h1v1h-1v-1z" fill="rgb(148,148,148)"/>
<path d="M59 33h2v1h-2v-1z" fill="rgb(74,74,74)"/>
<path d="M63 33h1v2h-1v-2z" fill="rgb(148,148,148)"/>
<path d="M64 33h1v2h-1v-2z" fill="rgb(16,16,16)"/>
<path d="M65 33h1v1h-1v-1z" fill="rgb(148,148,148)"/>
<path d="M76 33h1v1h-1v-1z" fill="rgb(74,74,74)"/>
<path d="M16 34h1v1h-1v-1z" fill="rgb(148,148,148)"/>
<path d="M17 34h1v2h1v4h1v1h-2v-1h-1v-1h-1v-4h1v-1z" fill="rgb(8,57,98)"/>
<path d="M20 34h1v2h-1v-2z" fill="rgb(8,57,98)"/>
<path d="M41 34h1v1h-1v-1z" fill="rgb(8,57,98)"/>
<path d="M42 34h2v1h1v2h-1v2h-1v1h-6v-1h-2v-1h1v-1h2v-1h3v-1h1v-1z" fill="rgb(246,213,156)"/>
<path d="M50 34h1v1h-1v-1z" fill="rgb(148,148,148)"/>
<path d="M60 34h1v1h-1v-1z" fill="rgb(205,205,213)"/>
<path d="M61 34h1v1h-1v-1z" fill="rgb(74,74,74)"/>
<path d="M62 34h1v1h-1v-1z" fill="rgb(16,16,16)"/>
<path d="M65 34h1v2h2v1h1v-1h1v4h1v1h4v1h-5v-1h-2v-1h-2v-2h-1v-4z" fill="rgb(205,205,213)"/>
<path d="M71 34h1v1h-1v-1z" fill="rgb(205,205,213)"/>
<path d="M72 34h1v1h-1v-1z" fill="rgb(74,74,74)"/>
<path d="M73 34h1v1h2v2h-1v1h-1v1h-2v1h-1v-2h-1v-1h1v-2h2v-1z" fill="rgb(16,16,16)"/>
<path d="M74 34h1v1h-1v-1z" fill="rgb(74,74,74)"/>
<path d="M75 34h1v1h-1v-1z" fill="rgb(205,205,213)"/>
<path d="M76 34h1v2h-1v-2z" fill="rgb(255,255,255)"/>
<path d="M77 34h1v2h-1v-2z" fill="rgb(74,74,74)"/>
<path d="M14 35h2v2h-1v-1h-1v-1z" fill="rgb(16,16,16)"/>
<path d="M24 35h1v1h2v1h-2v1h-1v-3z" fill="rgb(16,16,16)"/>
<path d="M25 35h1v1h-1v-1z" fill="rgb(32,98,172)"/>
<path d="M28 35h1v1h-1v-1z" fill="rgb(16,16,16)"/>
<path d="M29 35h1v1h-1v-1z" fill="rgb(8,57,98)"/>
<path d="M30 35h1v1h-1v-1z" fill="rgb(32,98,172)"/>
<path d="M37 35h1v1h-1v-1z" fill="rgb(32,98,172)"/>
<path d="M38 35h3v1h-3v-1z" fill="rgb(8,57,98)"/>
<path d="M46 35h1v1h-1v-1z" fill="rgb(8,57,98)"/>
<path d="M49 35h1v1h-1v-1z" fill="rgb(148,148,148)"/>
<path d="M50 35h1v1h-1v-1z" fill="rgb(205,205,213)"/>
<path d="M62 35h1v1h-1v-1z" fill="rgb(74,74,74)"/>
<path d="M63 35h1v1h-1v-1z" fill="rgb(16,16,16)"/>
<path d="M64 35h1v1h-1v-1z" fill="rgb(74,74,74)"/>
<path d="M70 35h1v1h-1v-1z" fill="rgb(205,205,213)"/>
<path d="M13 36h1v2h-1v-2z" fill="rgb(16,16,16)"/>
<path d="M14 36h1v1h1v2h-1v-1h-1v-2z" fill="rgb(205,205,213)"/>
<path d="M19 36h1v4h-1v-4z" fill="rgb(16,16,16)"/>
<path d="M27 36h1v1h-1v-1z" fill="rgb(8,57,98)"/>
<path d="M28 36h2v1h3v1h-7v-1h2v-1z" fill="rgb(32,98,172)"/>
<path d="M35 36h1v1h-1v-1z" fill="rgb(32,98,172)"/>
<path d="M36 36h1v1h-1v-1z" fill="rgb(8,57,98)"/>
<path d="M37 36h1v1h-1v-1z" fill="rgb(213,172,74)"/>
<path d="M48 36h1v1h1v-1h2v1h-1v1h-1v1h-1v2h-1v2h-2v-3h1v-2h1v-2z" fill="rgb(148,148,148)"/>
<path d="M49 36h1v1h-1v-1z" fill="rgb(205,205,213)"/>
<path d="M52 36h1v1h-1v-1z" fill="rgb(74,74,74)"/>
<path d="M53 36h4v1h-4v-1z" fill="rgb(8,57,98)"/>
<path d="M57 36h1v1h-1v-1z" fill="rgb(74,74,74)"/>
<path d="M63 36h1v1h-1v-1z" fill="rgb(74,74,74)"/>
<path d="M64 36h1v2h-1v-2z" fill="rgb(16,16,16)"/>
<path d="M70 36h1v1h-1v-1z" fill="rgb(74,74,74)"/>
<path d="M76 36h1v3h-1v1h-1v1h-1v-1h-1v1h-1v-2h2v-1h1v-1h1v-1z" fill="rgb(74,74,74)"/>
<path d="M77 36h1v3h-1v-3z" fill="rgb(255,255,255)"/>
<path d="M78 36h1v3h-1v-3z" fill="rgb(74,74,74)"/>
<path d="M20 37h2v1h3v4h1v1h-3v-1h-2v-2h-1v-3z" fill="rgb(8,57,98)"/>
<path d="M25 37h1v1h-1v-1z" fill="rgb(8,57,98)"/>
<path d="M33 37h2v1h-2v-1z" fill="rgb(8,57,98)"/>
<path d="M35 37h1v1h-1v-1z" fill="rgb(213,172,74)"/>
<path d="M44 37h1v1h-1v-1z" fill="rgb(213,172,74)"/>
<path d="M47 37h1v1h-1v-1z" fill="rgb(74,74,74)"/>
<path d="M51 37h2v1h-2v-1z" fill="rgb(8,57,98)"/>
<path d="M53 37h1v1h-1v-1z" fill="rgb(32,98,172)"/>
<path d="M54 37h3v1h-1v1h-1v1h-1v3h-1v-1h-4v-1h1v-2h1v-1h3v-1z" fill="rgb(90,139,205)"/>
<path d="M57 37h2v1h-2v-1z" fill="rgb(32,98,172)"/>
<path d="M14 38h1v1h-1v-1z" fill="rgb(16,16,16)"/>
<path d="M25 38h1v1h1v1h1v1h-2v1h-1v-4z" fill="rgb(16,16,16)"/>
<path d="M26 38h1v1h-1v-1z" fill="rgb(8,57,98)"/>
<path d="M27 38h4v1h-4v-1z" fill="rgb(16,16,16)"/>
<path d="M31 38h1v1h-1v-1z" fill="rgb(8,57,98)"/>
<path d="M32 38h1v1h-1v-1z" fill="rgb(90,57,24)"/>
<path d="M33 38h2v1h1v1h2v1h2v1h-2v1h-6v-1h-2v-1h-2v-1h-1v-1h6v-1z" fill="rgb(213,172,74)"/>
<path d="M50 38h1v1h-1v-1z" fill="rgb(8,57,98)"/>
<path d="M56 38h3v1h1v1h1v3h-1v1h-1v1h-3v-1h-1v-1h-1v-3h1v-1h1v-1z" fill="rgb(148,172,230)"/>
<path d="M59 38h1v1h-1v-1z" fill="rgb(32,98,172)"/>
<path d="M64 38h1v1h-1v-1z" fill="rgb(74,74,74)"/>
<path d="M65 38h1v2h-1v-2z" fill="rgb(16,16,16)"/>
<path d="M70 38h1v1h-1v-1z" fill="rgb(74,74,74)"/>
<path d="M15 39h2v1h1v1h-2v-1h-1v-1z" fill="rgb(16,16,16)"/>
<path d="M36 39h1v1h-1v-1z" fill="rgb(230,197,115)"/>
<path d="M45 39h1v1h-1v-1z" fill="rgb(213,172,74)"/>
<path d="M46 39h1v1h-1v-1z" fill="rgb(74,74,74)"/>
<path d="M49 39h1v2h-1v-2z" fill="rgb(8,57,98)"/>
<path d="M60 39h1v1h-1v-1z" fill="rgb(32,98,172)"/>
<path d="M70 39h1v1h-1v-1z" fill="rgb(148,148,148)"/>
<path d="M76 39h1v1h-1v-1z" fill="rgb(255,255,255)"/>
<path d="M77 39h1v1h-1v-1z" fill="rgb(74,74,74)"/>
<path d="M20 40h1v2h-3v-1h2v-1z" fill="rgb(16,16,16)"/>
<path d="M38 40h3v1h-3v-1z" fill="rgb(230,197,115)"/>
<path d="M41 40h1v1h-1v-1z" fill="rgb(213,172,74)"/>
<path d="M44 40h1v2h-1v1h-1v1h-1v1h-1v1h-2v1h-2v1h-2v-1h-3v-1h-1v-2h8v-1h2v-1h2v-1h1v-1z" fill="rgb(213,172,74)"/>
<path d="M45 40h1v3h-1v-3z" fill="rgb(74,74,74)"/>
<path d="M61 40h1v2h-1v-2z" fill="rgb(32,98,172)"/>
<path d="M65 40h1v1h-1v-1z" fill="rgb(148,148,148)"/>
<path d="M66 40h1v1h-1v-1z" fill="rgb(16,16,16)"/>
<path d="M67 40h1v1h-1v-1z" fill="rgb(148,148,148)"/>
<path d="M71 40h1v1h-1v-1z" fill="rgb(148,148,148)"/>
<path d="M73 40h1v1h-1v-1z" fill="rgb(16,16,16)"/>
<path d="M75 40h2v1h-2v-1z" fill="rgb(205,205,213)"/>
<path d="M77 40h1v1h-1v-1z" fill="rgb(16,16,16)"/>
<path d="M26 41h2v1h2v1h1v1h-3v-1h-1v-1h-1v-1z" fill="rgb(8,57,98)"/>
<path d="M28 41h1v1h-1v-1z" fill="rgb(16,16,16)"/>
<path d="M29 41h1v1h-1v-1z" fill="rgb(90,57,24)"/>
<path d="M40 41h1v2h-1v-2z" fill="rgb(90,57,24)"/>
<path d="M48 41h1v1h-1v-1z" fill="rgb(8,57,98)"/>
<path d="M65 41h1v5h-1v2h-1v1h-1v-1h-1v-1h1v-5h2v-1z" fill="rgb(205,205,213)"/>
<path d="M66 41h1v4h-1v-4z" fill="rgb(74,74,74)"/>
<path d="M67 41h2v1h-2v-1z" fill="rgb(16,16,16)"/>
<path d="M69 41h1v1h-1v-1z" fill="rgb(148,148,148)"/>
<path d="M75 41h1v1h-1v-1z" fill="rgb(74,74,74)"/>
<path d="M76 41h1v1h-1v-1z" fill="rgb(16,16,16)"/>
<path d="M21 42h2v1h-2v-1z" fill="rgb(16,16,16)"/>
<path d="M26 42h1v1h1v1h-5v-1h3v-1z" fill="rgb(16,16,16)"/>
<path d="M30 42h1v1h-1v-1z" fill="rgb(16,16,16)"/>
<path d="M31 42h1v1h-1v-1z" fill="rgb(90,57,24)"/>
<path d="M38 42h1v2h-1v-2z" fill="rgb(90,57,24)"/>
<path d="M39 42h1v1h-1v-1z" fill="rgb(16,16,16)"/>
<path d="M44 42h1v3h-1v2h-1v1h-6v-1h2v-1h2v-1h1v-1h1v-1h1v-1z" fill="rgb(246,213,156)"/>
<path d="M48 42h1v1h-1v-1z" fill="rgb(16,16,16)"/>
<path d="M49 42h3v1h-3v-1z" fill="rgb(8,57,98)"/>
<path d="M52 42h1v1h-1v-1z" fill="rgb(32,98,172)"/>
<path d="M61 42h1v5h-1v1h-1v2h-1v1h-1v-4h-1v-2h2v-1h1v-1h1v-1z" fill="rgb(90,139,205)"/>
<path d="M62 42h1v4h-1v-4z" fill="rgb(8,57,98)"/>
<path d="M67 42h2v1h4v5h-4v-1h-1v-2h-1v-3z" fill="rgb(90,57,24)"/>
<path d="M69 42h6v1h-1v6h-1v5h-1v-5h-3v-1h4v-5h-4v-1z" fill="rgb(16,16,16)"/>
<path d="M31 43h7v1h-7v-1z" fill="rgb(16,16,16)"/>
<path d="M45 43h2v1h-1v1h-1v-2z" fill="rgb(16,16,16)"/>
<path d="M47 43h1v1h-1v-1z" fill="rgb(8,57,98)"/>
<path d="M48 43h5v1h-2v1h-1v2h-1v-1h-4v-1h1v-1h2v-1z" fill="rgb(90,139,205)"/>
<path d="M53 43h2v1h-2v-1z" fill="rgb(32,98,172)"/>
<path d="M28 44h3v3h-1v-2h-2v-1z" fill="rgb(16,16,16)"/>
<path d="M51 44h4v1h1v3h-1v1h-3v-1h-1v-1h-1v-2h1v-1z" fill="rgb(148,172,230)"/>
<path d="M55 44h1v1h-1v-1z" fill="rgb(32,98,172)"/>
<path d="M44 45h1v2h-1v-2z" fill="rgb(16,16,16)"/>
<path d="M56 45h1v2h-1v-2z" fill="rgb(32,98,172)"/>
<path d="M66 45h2v2h-1v-1h-1v-1z" fill="rgb(16,16,16)"/>
<path d="M31 46h1v1h-1v-1z" fill="rgb(90,57,24)"/>
<path d="M45 46h2v1h-2v-1z" fill="rgb(8,57,98)"/>
<path d="M47 46h2v1h-2v-1z" fill="rgb(32,98,172)"/>
<path d="M62 46h1v1h-1v-1z" fill="rgb(16,16,16)"/>
<path d="M65 46h1v2h-1v-2z" fill="rgb(74,74,74)"/>
<path d="M66 46h1v1h1v1h1v1h3v5h-1v2h-2v-2h-1v-1h-1v-1h-1v-2h-1v-2h1v-2z" fill="rgb(90,57,24)"/>
<path d="M29 47h1v1h-1v-1z" fill="rgb(90,57,24)"/>
<path d="M30 47h1v1h1v1h2v1h2v1h1v3h1v1h1v1h1v1h2v1h5v1h-8v-1h-3v-1h-2v-1h-1v-1h-1v-2h-1
	v-3h-1v-3z" fill="rgb(213,172,74)"/>
<path d="M31 47h1v1h-1v-1z" fill="rgb(246,213,156)"/>
<path d="M32 47h2v1h-2v-1z" fill="rgb(90,57,24)"/>
<path d="M34 47h1v2h-1v-2z" fill="rgb(139,98,65)"/>
<path d="M43 47h1v1h-1v-1z" fill="rgb(8,57,98)"/>
<path d="M44 47h1v1h-1v-1z" fill="rgb(32,98,172)"/>
<path d="M45 47h2v1h-1v2h1v1h-3v1h-1v-1h-1v-2h1v-1h2v-1z" fill="rgb(90,139,205)"/>
<path d="M47 47h2v1h2v1h1v2h-1v1h-2v-1h-2v-1h-1v-2h1v-1z" fill="rgb(148,172,230)"/>
<path d="M49 47h2v1h-2v-1z" fill="rgb(32,98,172)"/>
<path d="M56 47h1v4h-1v2h-2v-2h-1v-2h2v-1h1v-1z" fill="rgb(90,139,205)"/>
<path d="M57 47h1v1h-1v-1z" fill="rgb(32,98,172)"/>
<path d="M61 47h1v1h-1v-1z" fill="rgb(8,57,98)"/>
<path d="M68 47h1v1h-1v-1z" fill="rgb(16,16,16)"/>
<path d="M29 48h1v3h-1v-3z" fill="rgb(16,16,16)"/>
<path d="M32 48h2v1h-2v-1z" fill="rgb(246,213,156)"/>
<path d="M35 48h7v1h-7v-1z" fill="rgb(90,57,24)"/>
<path d="M42 48h1v1h-1v-1z" fill="rgb(8,57,98)"/>
<path d="M51 48h1v1h-1v-1z" fill="rgb(32,98,172)"/>
<path d="M57 48h1v4h-1v-4z" fill="rgb(8,57,98)"/>
<path d="M60 48h1v1h-1v-1z" fill="rgb(32,98,172)"/>
<path d="M61 48h1v1h-1v-1z" fill="rgb(16,16,16)"/>
<path d="M62 48h1v2h-2v-1h1v-1z" fill="rgb(148,148,148)"/>
<path d="M64 48h1v1h-1v-1z" fill="rgb(74,74,74)"/>
<path d="M34 49h7v1h-1v1h-1v3h3v3h-1v-1h-2v-1h-1v-2h-1v-3h-3v-1z" fill="rgb(246,213,156)"/>
<path d="M41 49h1v1h-1v-1z" fill="rgb(8,57,98)"/>
<path d="M52 49h1v2h-1v-2z" fill="rgb(32,98,172)"/>
<path d="M60 49h1v1h-1v-1z" fill="rgb(8,57,98)"/>
<path d="M63 49h1v1h-1v-1z" fill="rgb(74,74,74)"/>
<path d="M64 49h1v1h-1v-1z" fill="rgb(16,16,16)"/>
<path d="M30 50h1v1h-1v-1z" fill="rgb(139,98,65)"/>
<path d="M36 50h1v1h-1v-1z" fill="rgb(230,197,115)"/>
<path d="M40 50h1v1h-1v-1z" fill="rgb(74,74,74)"/>
<path d="M41 50h1v3h-2v-2h1v-1z" fill="rgb(205,205,213)"/>
<path d="M59 50h1v1h-1v-1z" fill="rgb(16,16,16)"/>
<path d="M60 50h1v1h-1v-1z" fill="rgb(148,148,148)"/>
<path d="M61 50h2v1h-2v-1z" fill="rgb(74,74,74)"/>
<path d="M63 50h2v2h-1v1h-2v-2h1v-1z" fill="rgb(148,148,148)"/>
<path d="M65 50h1v2h-1v-2z" fill="rgb(16,16,16)"/>
<path d="M30 51h1v3h1v2h-1v-1h-1v-4z" fill="rgb(16,16,16)"/>
<path d="M39 51h1v1h-1v-1z" fill="rgb(74,74,74)"/>
<path d="M42 51h1v1h-1v-1z" fill="rgb(148,148,148)"/>
<path d="M44 51h3v1h-3v-1z" fill="rgb(8,57,98)"/>
<path d="M47 51h2v1h2v-1h2v3h-1v1h-1v-1h-1v-1h-2v-1h-1v-1z" fill="rgb(90,139,205)"/>
<path d="M53 51h1v1h-1v-1z" fill="rgb(32,98,172)"/>
<path d="M56 51h1v1h-1v-1z" fill="rgb(32,98,172)"/>
<path d="M58 51h1v1h-1v-1z" fill="rgb(16,16,16)"/>
<path d="M59 51h2v1h-2v-1z" fill="rgb(74,74,74)"/>
<path d="M61 51h1v1h-1v-1z" fill="rgb(16,16,16)"/>
<path d="M39 52h1v1h2v1h-3v-2z" fill="rgb(16,16,16)"/>
<path d="M42 52h1v1h-1v-1z" fill="rgb(8,57,98)"/>
<path d="M43 52h1v1h-1v-1z" fill="rgb(74,74,74)"/>
<path d="M44 52h3v2h-2v1h-2v-1h1v-2z" fill="rgb(255,255,255)"/>
<path d="M47 52h1v2h-1v-2z" fill="rgb(8,57,98)"/>
<path d="M53 52h1v2h-1v-2z" fill="rgb(8,57,98)"/>
<path d="M56 52h1v1h-1v-1z" fill="rgb(8,57,98)"/>
<path d="M57 52h1v1h-1v-1z" fill="rgb(16,16,16)"/>
<path d="M58 52h1v1h-1v-1z" fill="rgb(74,74,74)"/>
<path d="M59 52h1v2h-2v1h-1v1h-2v-1h-1v-1h2v-1h3v-1z" fill="rgb(213,172,74)"/>
<path d="M60 52h1v1h-1v-1z" fill="rgb(230,197,115)"/>
<path d="M61 52h1v1h-1v-1z" fill="rgb(74,74,74)"/>
<path d="M64 52h2v1h1v1h1v2h1v1h1v2h-1v-1h-1v-1h-1v-1h-1v-1h-2v-1h-1v-1h1v-1z" fill="rgb(205,205,213)"/>
<path d="M66 52h1v1h-1v-1z" fill="rgb(16,16,16)"/>
<path d="M31 53h1v1h-1v-1z" fill="rgb(139,98,65)"/>
<path d="M37 53h1v1h-1v-1z" fill="rgb(230,197,115)"/>
<path d="M42 53h1v3h-1v-3z" fill="rgb(74,74,74)"/>
<path d="M43 53h1v1h-1v-1z" fill="rgb(205,205,213)"/>
<path d="M48 53h2v1h-2v-1z" fill="rgb(32,98,172)"/>
<path d="M54 53h1v1h-1v-1z" fill="rgb(16,16,16)"/>
<path d="M55 53h1v1h-1v-1z" fill="rgb(8,57,98)"/>
<path d="M60 53h1v1h-1v-1z" fill="rgb(139,98,65)"/>
<path d="M61 53h1v1h-1v-1z" fill="rgb(213,172,74)"/>
<path d="M62 53h1v2h-3v-1h2v-1z" fill="rgb(16,16,16)"/>
<path d="M67 53h1v1h-1v-1z" fill="rgb(16,16,16)"/>
<path d="M45 54h1v1h-1v-1z" fill="rgb(148,148,148)"/>
<path d="M46 54h1v2h-1v-2z" fill="rgb(8,57,98)"/>
<path d="M47 54h1v3h-1v-3z" fill="rgb(74,74,74)"/>
<path d="M48 54h1v1h-1v-1z" fill="rgb(205,205,213)"/>
<path d="M49 54h1v2h-2v-1h1v-1z" fill="rgb(255,255,255)"/>
<path d="M50 54h1v1h-1v-1z" fill="rgb(32,98,172)"/>
<path d="M52 54h1v1h-1v-1z" fill="rgb(32,98,172)"/>
<path d="M53 54h1v1h-1v-1z" fill="rgb(16,16,16)"/>
<path d="M58 54h1v1h-1v-1z" fill="rgb(139,98,65)"/>
<path d="M59 54h1v1h-1v-1z" fill="rgb(8,57,98)"/>
<path d="M63 54h1v1h-1v-1z" fill="rgb(8,57,98)"/>
<path d="M68 54h1v2h-1v-2z" fill="rgb(16,16,16)"/>
<path d="M71 54h1v2h-1v-2z" fill="rgb(16,16,16)"/>
<path d="M29 55h1v1h-1v-1z" fill="rgb(16,16,16)"/>
<path d="M30 55h1v1h1v2h-1v-1h-2v-1h1v-1z" fill="rgb(8,57,98)"/>
<path d="M32 55h1v1h-1v-1z" fill="rgb(139,98,65)"/>
<path d="M43 55h1v1h-1v-1z" fill="rgb(205,205,213)"/>
<path d="M44 55h2v1h-2v-1z" fill="rgb(16,16,16)"/>
<path d="M50 55h3v1h-3v-1z" fill="rgb(16,16,16)"/>
<path d="M53 55h2v2h-3v1h-3v-1h2v-1h2v-1z" fill="rgb(246,213,156)"/>
<path d="M57 55h2v1h-2v-1z" fill="rgb(8,57,98)"/>
<path d="M59 55h5v1h2v1h1v1h1v3h1v4h-1v1h-1v1h-1v1h-4v-1h-2v-1h-1v-1h-1v-1h-1v-1h-1v-5h1
	v-1h1v-1h1v-1z" fill="rgb(90,139,205)"/>
<path d="M64 55h2v1h-2v-1z" fill="rgb(8,57,98)"/>
<path d="M28 56h1v1h-1v-1z" fill="rgb(16,16,16)"/>
<path d="M32 56h1v2h-1v-2z" fill="rgb(16,16,16)"/>
<path d="M33 56h1v1h-1v-1z" fill="rgb(90,57,24)"/>
<path d="M40 56h1v1h-1v-1z" fill="rgb(230,197,115)"/>
<path d="M42 56h2v1h-2v-1z" fill="rgb(16,16,16)"/>
<path d="M44 56h3v2h-4v-1h1v-1z" fill="rgb(246,213,156)"/>
<path d="M48 56h1v1h-1v-1z" fill="rgb(205,205,213)"/>
<path d="M49 56h1v1h-1v-1z" fill="rgb(16,16,16)"/>
<path d="M50 56h1v1h-1v-1z" fill="rgb(8,57,98)"/>
<path d="M55 56h2v1h-2v-1z" fill="rgb(8,57,98)"/>
<path d="M57 56h1v1h-1v-1z" fill="rgb(32,98,172)"/>
<path d="M66 56h1v1h-1v-1z" fill="rgb(8,57,98)"/>
<path d="M69 56h2v1h1v1h-1v1h-1v-2h-1v-1z" fill="rgb(16,16,16)"/>
<path d="M28 57h1v1h-1v-1z" fill="rgb(8,57,98)"/>
<path d="M29 57h2v1h1v1h1v1h1v1h-1v1h-1v1h-1v1h-4v-4h1v-2h1v-1z" fill="rgb(32,98,172)"/>
<path d="M33 57h1v1h-1v-1z" fill="rgb(213,172,74)"/>
<path d="M34 57h2v1h-2v-1z" fill="rgb(90,57,24)"/>
<path d="M42 57h1v1h-1v-1z" fill="rgb(230,197,115)"/>
<path d="M47 57h2v1h-2v-1z" fill="rgb(16,16,16)"/>
<path d="M52 57h2v1h-2v-1z" fill="rgb(139,98,65)"/>
<path d="M54 57h1v1h-1v-1z" fill="rgb(16,16,16)"/>
<path d="M55 57h2v1h-1v5h1v1h1v1h1v1h1v1h2v1h4v-1h1v-1h1v-1h1v2h-1v2h-1v1h-1v1h-4v-1h-2
	v-1h-2v-1h-1v-1h-2v-1h-1v-2h-1v-4h1v-2h1v-1z" fill="rgb(32,98,172)"/>
<path d="M67 57h1v1h-1v-1z" fill="rgb(8,57,98)"/>
<path d="M27 58h1v1h-1v-1z" fill="rgb(16,16,16)"/>
<path d="M32 58h1v1h-1v-1z" fill="rgb(8,57,98)"/>
<path d="M33 58h1v1h-1v-1z" fill="rgb(16,16,16)"/>
<path d="M34 58h2v1h3v1h9v-1h4v-1h1v2h-1v2h-1v2h-11v-1h-2v-1h-1v-1h-1v-1h-1v-1h-1v-1z" fill="rgb(213,172,74)"/>
<path d="M36 58h2v1h-2v-1z" fill="rgb(90,57,24)"/>
<path d="M38 58h1v1h-1v-1z" fill="rgb(139,98,65)"/>
<path d="M47 58h1v1h-1v-1z" fill="rgb(230,197,115)"/>
<path d="M48 58h1v1h-1v-1z" fill="rgb(139,98,65)"/>
<path d="M49 58h2v1h-2v-1z" fill="rgb(90,57,24)"/>
<path d="M51 58h1v1h-1v-1z" fill="rgb(139,98,65)"/>
<path d="M53 58h1v2h-1v-2z" fill="rgb(16,16,16)"/>
<path d="M68 58h1v2h1v-1h1v-1h1v1h2v1h1v2h-1v1h-1v1h-3v-3h-2v-3z" fill="rgb(8,57,98)"/>
<path d="M72 58h1v1h-1v-1z" fill="rgb(16,16,16)"/>
<path d="M27 59h1v1h-1v-1z" fill="rgb(8,57,98)"/>
<path d="M33 59h1v1h-1v-1z" fill="rgb(8,57,98)"/>
<path d="M34 59h1v1h-1v-1z" fill="rgb(16,16,16)"/>
<path d="M39 59h1v1h-1v-1z" fill="rgb(139,98,65)"/>
<path d="M40 59h7v1h-7v-1z" fill="rgb(90,57,24)"/>
<path d="M47 59h1v1h-1v-1z" fill="rgb(139,98,65)"/>
<path d="M69 59h1v1h-1v-1z" fill="rgb(16,16,16)"/>
<path d="M74 59h1v1h-1v-1z" fill="rgb(16,16,16)"/>
<path d="M26 60h1v1h-1v-1z" fill="rgb(8,57,98)"/>
<path d="M34 60h1v1h1v1h-1v2h-1v1h-2v1h-4v-2h3v-1h1v-1h1v-1h1v-1z" fill="rgb(8,57,98)"/>
<path d="M35 60h1v1h-1v-1z" fill="rgb(16,16,16)"/>
<path d="M52 60h1v2h-1v-2z" fill="rgb(16,16,16)"/>
<path d="M75 60h1v2h-1v-2z" fill="rgb(16,16,16)"/>
<path d="M26 61h1v2h-1v-2z" fill="rgb(16,16,16)"/>
<path d="M36 61h1v1h-1v-1z" fill="rgb(16,16,16)"/>
<path d="M69 61h1v3h-1v-3z" fill="rgb(16,16,16)"/>
<path d="M35 62h1v2h-1v-2z" fill="rgb(16,16,16)"/>
<path d="M36 62h1v1h1v1h2v1h1v1h3v1h-1v2h-1v1h-2v1h-4v1h-1v-1h-1v-1h-3v1h-1v-2h-1v-2h3
	v-1h2v-1h1v-1h1v-2z" fill="rgb(8,57,98)"/>
<path d="M37 62h1v1h-1v-1z" fill="rgb(16,16,16)"/>
<path d="M51 62h1v6h-5v-1h4v-5z" fill="rgb(16,16,16)"/>
<path d="M52 62h1v2h-1v-2z" fill="rgb(8,57,98)"/>
<path d="M74 62h1v1h-1v-1z" fill="rgb(16,16,16)"/>
<path d="M26 63h1v1h-1v-1z" fill="rgb(8,57,98)"/>
<path d="M38 63h2v1h-2v-1z" fill="rgb(16,16,16)"/>
<path d="M73 63h1v1h-1v-1z" fill="rgb(16,16,16)"/>
<path d="M27 64h1v2h-1v-2z" fill="rgb(16,16,16)"/>
<path d="M34 64h1v1h-1v-1z" fill="rgb(16,16,16)"/>
<path d="M40 64h2v1h2v1h-3v-1h-1v-1z" fill="rgb(16,16,16)"/>
<path d="M42 64h7v1h-7v-1z" fill="rgb(90,57,24)"/>
<path d="M49 64h2v3h-4v-1h-3v-1h5v-1z" fill="rgb(139,98,65)"/>
<path d="M52 64h1v2h1v1h1v1h2v1h1v1h2v1h2v1h4v-1h1v-1h1v-1h1v4h-2v2h-1v-1h-2v1h-2v1h-1
	v-1h-1v-1h-2v1h-1v1h-1v-1h-1v-4h-1v-2h-1v-1h-1v-4z" fill="rgb(32,98,172)"/>
<path d="M53 64h1v1h-1v-1z" fill="rgb(8,57,98)"/>
<path d="M69 64h1v3h-1v-3z" fill="rgb(8,57,98)"/>
<path d="M70 64h3v1h-2v4h-1v-5z" fill="rgb(16,16,16)"/>
<path d="M32 65h2v1h-2v-1z" fill="rgb(16,16,16)"/>
<path d="M53 65h1v1h-1v-1z" fill="rgb(16,16,16)"/>
<path d="M28 66h4v1h-3v1h-1v-2z" fill="rgb(16,16,16)"/>
<path d="M44 66h3v1h-3v-1z" fill="rgb(16,16,16)"/>
<path d="M54 66h1v1h-1v-1z" fill="rgb(16,16,16)"/>
<path d="M43 67h1v1h-1v-1z" fill="rgb(16,16,16)"/>
<path d="M55 67h1v1h-1v-1z" fill="rgb(16,16,16)"/>
<path d="M56 67h1v1h-1v-1z" fill="rgb(8,57,98)"/>
<path d="M68 67h1v2h-1v-2z" fill="rgb(8,57,98)"/>
<path d="M69 67h1v2h-1v-2z" fill="rgb(32,98,172)"/>
<path d="M26 68h2v1h-2v-1z" fill="rgb(74,74,74)"/>
<path d="M28 68h1v1h1v2h-4v-2h2v-1z" fill="rgb(148,148,148)"/>
<path d="M43 68h1v2h-2v-1h1v-1z" fill="rgb(148,148,148)"/>
<path d="M44 68h1v2h-1v-2z" fill="rgb(74,74,74)"/>
<path d="M52 68h1v1h-1v-1z" fill="rgb(16,16,16)"/>
<path d="M57 68h1v1h-1v-1z" fill="rgb(8,57,98)"/>
<path d="M25 69h1v1h-1v-1z" fill="rgb(74,74,74)"/>
<path d="M53 69h1v2h-1v-2z" fill="rgb(16,16,16)"/>
<path d="M58 69h1v1h-1v-1z" fill="rgb(8,57,98)"/>
<path d="M59 69h1v1h-1v-1z" fill="rgb(16,16,16)"/>
<path d="M67 69h1v1h-1v-1z" fill="rgb(8,57,98)"/>
<path d="M69 69h1v1h-1v-1z" fill="rgb(8,57,98)"/>
<path d="M25 70h1v1h-1v-1z" fill="rgb(16,16,16)"/>
<path d="M31 70h1v1h-1v-1z" fill="rgb(16,16,16)"/>
<path d="M32 70h1v1h-1v-1z" fill="rgb(148,148,148)"/>
<path d="M33 70h1v1h1v1h-1v1h-3v-2h2v-1z" fill="rgb(205,205,213)"/>
<path d="M40 70h4v1h-4v-1z" fill="rgb(16,16,16)"/>
<path d="M60 70h1v1h-1v-1z" fill="rgb(8,57,98)"/>
<path d="M61 70h1v1h-1v-1z" fill="rgb(16,16,16)"/>
<path d="M66 70h1v1h-1v-1z" fill="rgb(8,57,98)"/>
<path d="M69 70h1v3h-1v-3z" fill="rgb(16,16,16)"/>
<path d="M26 71h5v2h-1v-1h-4v-1z" fill="rgb(16,16,16)"/>
<path d="M36 71h4v1h-4v-1z" fill="rgb(16,16,16)"/>
<path d="M54 71h1v4h-1v-4z" fill="rgb(16,16,16)"/>
<path d="M62 71h1v1h-1v-1z" fill="rgb(8,57,98)"/>
<path d="M63 71h2v1h-2v-1z" fill="rgb(16,16,16)"/>
<path d="M65 71h1v1h-1v-1z" fill="rgb(8,57,98)"/>
<path d="M34 72h2v1h-2v-1z" fill="rgb(16,16,16)"/>
<path d="M31 73h3v1h-3v-1z" fill="rgb(16,16,16)"/>
<path d="M67 73h2v1h-2v-1z" fill="rgb(8,57,98)"/>
<path d="M69 73h1v1h-1v-1z" fill="rgb(148,148,148)"/>
<path d="M70 73h1v1h-1v-1z" fill="rgb(16,16,16)"/>
<path d="M58 74h2v1h-2v-1z" fill="rgb(8,57,98)"/>
<path d="M64 74h2v1h-2v-1z" fill="rgb(8,57,98)"/>
<path d="M67 74h1v1h-1v-1z" fill="rgb(16,16,16)"/>
<path d="M68 74h2v1h1v1h-3v-2z" fill="rgb(205,205,213)"/>
<path d="M70 74h2v1h-2v-1z" fill="rgb(74,74,74)"/>
<path d="M55 75h1v1h-1v-1z" fill="rgb(16,16,16)"/>
<path d="M57 75h1v1h-1v-1z" fill="rgb(8,57,98)"/>
<path d="M58 75h2v1h1v1h-1v1h-2v-1h-1v-1h1v-1z" fill="rgb(255,255,255)"/>
<path d="M60 75h1v1h-1v-1z" fill="rgb(8,57,98)"/>
<path d="M62 75h2v1h-2v-1z" fill="rgb(8,57,98)"/>
<path d="M64 75h2v1h1v2h-1v1h-1v-1h-1v-1h-1v-1h1v-1z" fill="rgb(255,255,255)"/>
<path d="M66 75h1v1h-1v-1z" fill="rgb(8,57,98)"/>
<path d="M67 75h1v1h-1v-1z" fill="rgb(74,74,74)"/>
<path d="M71 75h1v1h-1v-1z" fill="rgb(16,16,16)"/>
<path d="M56 76h1v2h-1v-2z" fill="rgb(16,16,16)"/>
<path d="M61 76h1v1h-1v-1z" fill="rgb(8,57,98)"/>
<path d="M62 76h1v1h1v1h-2v-2z" fill="rgb(205,205,213)"/>
<path d="M67 76h1v1h-1v-1z" fill="rgb(205,205,213)"/>
<path d="M68 76h3v1h-3v-1z" fill="rgb(16,16,16)"/>
<path d="M57 77h1v1h-1v-1z" fill="rgb(205,205,213)"/>
<path d="M60 77h1v1h-1v-1z" fill="rgb(74,74,74)"/>
<path d="M61 77h1v1h-1v-1z" fill="rgb(16,16,16)"/>
<path d="M67 77h2v1h-2v-1z" fill="rgb(74,74,74)"/>
<path d="M57 78h3v1h-3v-1z" fill="rgb(74,74,74)"/>
<path d="M62 78h2v1h-2v-1z" fill="rgb(16,16,16)"/>
<path d="M64 78h1v1h-1v-1z" fill="rgb(205,205,213)"/>
<path d="M66 78h1v1h-1v-1z" fill="rgb(205,205,213)"/>
<path d="M67 78h1v1h-1v-1z" fill="rgb(16,16,16)"/>
<path d="M64 79h3v1h-3v-1z" fill="rgb(16,16,16)"/>
</svg>
