<?xml version="1.0" encoding="utf-8"?>
<!-- generated at drububu.com  -->
<!DOCTYPE svg PUBLIC "-//W3C//DTD SVG 1.1//EN" "http://www.w3.org/Graphics/SVG/1.1/DTD/svg11.dtd">
<svg version="1.1" preserveAspectRatio="xMinYMin meet" xmlns="http://www.w3.org/2000/svg" xmlns:xlink="http://www.w3.org/1999/xlink" x="0px" y="0px" width="96px" height="96px" viewBox="0 0 96 96">
<path d="M0 0h96v96h-96v-96z" fill="transparent"/>
<path d="M33 33h2v1h-2v-1z" fill="rgb(115,90,139)"/>
<path d="M32 34h1v1h-1v-1z" fill="rgb(115,90,139)"/>
<path d="M33 34h2v1h1v1h-2v-1h-1v-1z" fill="rgb(222,222,246)"/>
<path d="M35 34h1v1h-1v-1z" fill="rgb(115,90,139)"/>
<path d="M32 35h1v1h-1v-1z" fill="rgb(74,57,98)"/>
<path d="M33 35h1v1h-1v-1z" fill="rgb(197,189,238)"/>
<path d="M36 35h1v1h-1v-1z" fill="rgb(74,57,98)"/>
<path d="M45 35h3v1h-3v-1z" fill="rgb(115,90,139)"/>
<path d="M48 35h4v1h-4v-1z" fill="rgb(74,57,98)"/>
<path d="M54 35h3v1h-3v-1z" fill="rgb(115,90,139)"/>
<path d="M57 35h2v1h-2v-1z" fill="rgb(74,57,98)"/>
<path d="M33 36h1v1h-1v-1z" fill="rgb(115,90,139)"/>
<path d="M34 36h3v1h1v2h-3v-1h-1v-2z" fill="rgb(197,189,238)"/>
<path d="M37 36h1v1h-1v-1z" fill="rgb(74,57,98)"/>
<path d="M42 36h3v1h-3v-1z" fill="rgb(115,90,139)"/>
<path d="M45 36h5v1h-3v1h-1v-1h-1v-1z" fill="rgb(156,139,197)"/>
<path d="M50 36h2v1h-2v-1z" fill="rgb(115,90,139)"/>
<path d="M52 36h3v1h-3v-1z" fill="rgb(74,57,98)"/>
<path d="M55 36h4v1h-1v1h-1v-1h-2v-1z" fill="rgb(156,139,197)"/>
<path d="M59 36h1v1h1v1h-1v1h-1v-3z" fill="rgb(74,57,98)"/>
<path d="M62 36h2v1h-2v-1z" fill="rgb(115,90,139)"/>
<path d="M33 37h1v1h-1v-1z" fill="rgb(74,57,98)"/>
<path d="M38 37h1v1h-1v-1z" fill="rgb(74,57,98)"/>
<path d="M40 37h2v1h-2v-1z" fill="rgb(115,90,139)"/>
<path d="M42 37h1v1h-1v-1z" fill="rgb(156,139,197)"/>
<path d="M43 37h3v1h-1v1h-2v1h-1v1h-1v1h-1v1h-4v-1h1v-1h1v-1h1v-1h2v-1h2v-1z" fill="rgb(197,189,238)"/>
<path d="M47 37h3v1h-3v-1z" fill="rgb(115,90,139)"/>
<path d="M50 37h5v1h2v1h-3v1h-1v-1h-1v-1h-2v-1z" fill="rgb(156,139,197)"/>
<path d="M55 37h2v1h-2v-1z" fill="rgb(74,57,98)"/>
<path d="M58 37h1v2h-1v-2z" fill="rgb(115,90,139)"/>
<path d="M61 37h1v1h-1v-1z" fill="rgb(115,90,139)"/>
<path d="M62 37h2v2h-3v-1h1v-1z" fill="rgb(222,222,246)"/>
<path d="M64 37h1v1h-1v-1z" fill="rgb(115,90,139)"/>
<path d="M34 38h1v1h-1v-1z" fill="rgb(74,57,98)"/>
<path d="M38 38h1v1h-1v-1z" fill="rgb(156,139,197)"/>
<path d="M39 38h1v1h-1v-1z" fill="rgb(115,90,139)"/>
<path d="M40 38h1v1h-1v-1z" fill="rgb(156,139,197)"/>
<path d="M45 38h2v1h-2v-1z" fill="rgb(115,90,139)"/>
<path d="M47 38h5v1h1v1h-2v1h-1v1h-1v1h-1v1h-2v-1h-4v-1h1v-1h1v-1h1v-1h2v-1z" fill="rgb(197,189,238)"/>
<path d="M57 38h1v1h-1v-1z" fill="rgb(74,57,98)"/>
<path d="M60 38h1v1h-1v-1z" fill="rgb(115,90,139)"/>
<path d="M64 38h1v1h-1v-1z" fill="rgb(74,57,98)"/>
<path d="M34 39h1v1h-1v-1z" fill="rgb(115,90,139)"/>
<path d="M35 39h2v1h-2v-1z" fill="rgb(156,139,197)"/>
<path d="M37 39h2v1h-2v-1z" fill="rgb(115,90,139)"/>
<path d="M43 39h1v1h-1v-1z" fill="rgb(156,139,197)"/>
<path d="M44 39h1v1h-1v-1z" fill="rgb(115,90,139)"/>
<path d="M54 39h4v1h-1v1h-1v-1h-2v-1z" fill="rgb(115,90,139)"/>
<path d="M58 39h1v1h-1v-1z" fill="rgb(74,57,98)"/>
<path d="M59 39h1v1h1v-1h2v1h-1v1h-2v1h-1v1h-1v-1h-1v-1h1v-1h1v-1z" fill="rgb(197,189,238)"/>
<path d="M60 39h1v1h-1v-1z" fill="rgb(222,222,246)"/>
<path d="M63 39h1v1h-1v-1z" fill="rgb(74,57,98)"/>
<path d="M64 39h1v1h-1v-1z" fill="rgb(16,16,16)"/>
<path d="M35 40h1v2h-1v-2z" fill="rgb(74,57,98)"/>
<path d="M36 40h1v1h-1v-1z" fill="rgb(115,90,139)"/>
<path d="M37 40h1v1h-1v-1z" fill="rgb(156,139,197)"/>
<path d="M42 40h1v1h-1v-1z" fill="rgb(156,139,197)"/>
<path d="M43 40h1v1h-1v-1z" fill="rgb(115,90,139)"/>
<path d="M51 40h1v1h-1v-1z" fill="rgb(156,139,197)"/>
<path d="M52 40h2v1h-2v-1z" fill="rgb(115,90,139)"/>
<path d="M54 40h2v1h1v1h1v1h1v2h2v1h-1v1h-2v1h-1v1h-1v1h-2v-1h-1v-1h-1v-1h-2v-1h-1v-2h1
	v1h5v-1h1v-2h-1v-1h-1v-1z" fill="rgb(156,139,197)"/>
<path d="M57 40h1v1h-1v-1z" fill="rgb(156,139,197)"/>
<path d="M62 40h1v1h-1v-1z" fill="rgb(16,16,16)"/>
<path d="M63 40h2v1h-1v1h-1v1h-1v-2h1v-1z" fill="rgb(156,139,197)"/>
<path d="M65 40h1v2h-1v-2z" fill="rgb(16,16,16)"/>
<path d="M34 41h1v1h-1v-1z" fill="rgb(115,90,139)"/>
<path d="M36 41h1v1h-1v-1z" fill="rgb(156,139,197)"/>
<path d="M41 41h1v1h-1v-1z" fill="rgb(156,139,197)"/>
<path d="M42 41h1v1h-1v-1z" fill="rgb(74,57,98)"/>
<path d="M50 41h1v1h-1v-1z" fill="rgb(156,139,197)"/>
<path d="M51 41h1v1h-1v-1z" fill="rgb(115,90,139)"/>
<path d="M52 41h3v1h1v2h-1v1h-5v-2h1v-1h1v-1z" fill="rgb(197,189,238)"/>
<path d="M60 41h1v1h-1v-1z" fill="rgb(156,139,197)"/>
<path d="M61 41h1v1h-1v-1z" fill="rgb(16,16,16)"/>
<path d="M64 41h1v1h-1v-1z" fill="rgb(115,90,139)"/>
<path d="M33 42h1v1h-1v-1z" fill="rgb(115,90,139)"/>
<path d="M34 42h1v1h-1v-1z" fill="rgb(156,139,197)"/>
<path d="M35 42h1v1h-1v-1z" fill="rgb(115,90,139)"/>
<path d="M40 42h1v1h-1v-1z" fill="rgb(156,139,197)"/>
<path d="M41 42h1v1h-1v-1z" fill="rgb(74,57,98)"/>
<path d="M49 42h1v1h-1v-1z" fill="rgb(156,139,197)"/>
<path d="M50 42h1v1h-1v-1z" fill="rgb(115,90,139)"/>
<path d="M59 42h1v1h-1v-1z" fill="rgb(156,139,197)"/>
<path d="M60 42h1v1h-1v-1z" fill="rgb(16,16,16)"/>
<path d="M61 42h1v1h-1v-1z" fill="rgb(74,57,98)"/>
<path d="M63 42h1v1h-1v-1z" fill="rgb(115,90,139)"/>
<path d="M64 42h1v2h-2v-1h1v-1z" fill="rgb(16,16,16)"/>
<path d="M32 43h1v1h-1v-1z" fill="rgb(115,90,139)"/>
<path d="M33 43h1v1h-1v-1z" fill="rgb(156,139,197)"/>
<path d="M34 43h1v1h-1v-1z" fill="rgb(115,90,139)"/>
<path d="M35 43h1v1h-1v-1z" fill="rgb(197,189,238)"/>
<path d="M36 43h4v1h-2v1h2v1h-2v1h-3v-1h2v-1h-2v-1h1v-1z" fill="rgb(156,139,197)"/>
<path d="M40 43h1v1h3v1h-3v1h3v1h-5v-1h1v-3z" fill="rgb(74,57,98)"/>
<path d="M41 43h1v1h-1v-1z" fill="rgb(115,90,139)"/>
<path d="M42 43h4v1h2v1h-2v1h2v1h-3v-1h-4v-1h4v-1h-3v-1z" fill="rgb(156,139,197)"/>
<path d="M48 43h1v1h-1v-1z" fill="rgb(156,139,197)"/>
<path d="M49 43h1v1h-1v-1z" fill="rgb(74,57,98)"/>
<path d="M59 43h1v1h-1v-1z" fill="rgb(16,16,16)"/>
<path d="M60 43h2v2h-3v-1h1v-1z" fill="rgb(115,90,139)"/>
<path d="M62 43h1v2h-1v-2z" fill="rgb(74,57,98)"/>
<path d="M31 44h1v2h-1v-2z" fill="rgb(115,90,139)"/>
<path d="M32 44h2v1h-1v1h-1v-2z" fill="rgb(197,189,238)"/>
<path d="M34 44h1v1h1v1h-1v1h-1v-3z" fill="rgb(74,57,98)"/>
<path d="M38 44h2v1h-2v-1z" fill="rgb(115,90,139)"/>
<path d="M44 44h1v1h-1v-1z" fill="rgb(115,90,139)"/>
<path d="M48 44h1v1h-1v-1z" fill="rgb(115,90,139)"/>
<path d="M63 44h2v1h-2v-1z" fill="rgb(156,139,197)"/>
<path d="M65 44h1v2h-1v-2z" fill="rgb(16,16,16)"/>
<path d="M33 45h1v1h-1v-1z" fill="rgb(156,139,197)"/>
<path d="M36 45h1v1h-1v-1z" fill="rgb(115,90,139)"/>
<path d="M46 45h2v1h-2v-1z" fill="rgb(115,90,139)"/>
<path d="M48 45h1v1h1v1h-1v1h-3v-1h2v-2z" fill="rgb(74,57,98)"/>
<path d="M61 45h1v1h-1v-1z" fill="rgb(16,16,16)"/>
<path d="M62 45h1v1h-1v-1z" fill="rgb(156,139,197)"/>
<path d="M63 45h2v1h-2v-1z" fill="rgb(115,90,139)"/>
<path d="M30 46h1v1h-1v-1z" fill="rgb(115,90,139)"/>
<path d="M31 46h1v1h-1v-1z" fill="rgb(156,139,197)"/>
<path d="M32 46h1v1h-1v-1z" fill="rgb(74,57,98)"/>
<path d="M33 46h1v1h-1v-1z" fill="rgb(115,90,139)"/>
<path d="M38 46h1v1h-1v-1z" fill="rgb(115,90,139)"/>
<path d="M44 46h1v1h-1v-1z" fill="rgb(115,90,139)"/>
<path d="M60 46h1v1h-1v-1z" fill="rgb(16,16,16)"/>
<path d="M61 46h1v1h-1v-1z" fill="rgb(115,90,139)"/>
<path d="M62 46h3v1h-3v-1z" fill="rgb(16,16,16)"/>
<path d="M30 47h1v1h-1v-1z" fill="rgb(74,57,98)"/>
<path d="M31 47h1v1h-1v-1z" fill="rgb(115,90,139)"/>
<path d="M32 47h2v1h-2v-1z" fill="rgb(156,139,197)"/>
<path d="M34 47h1v1h-1v-1z" fill="rgb(115,90,139)"/>
<path d="M35 47h3v1h-3v-1z" fill="rgb(74,57,98)"/>
<path d="M38 47h1v1h-1v-1z" fill="rgb(106,106,106)"/>
<path d="M39 47h6v1h-1v5h1v1h5v-1h1v-3h1v1h1v1h1v2h-1v1h-1v1h-2v1h-3v1h-3v-2h-1v-1h-2v-1
	h-2v1h-2v-1h-1v-2h3v-5z" fill="rgb(16,16,16)"/>
<path d="M45 47h1v1h-1v-1z" fill="rgb(115,90,139)"/>
<path d="M49 47h1v1h-1v-1z" fill="rgb(156,139,197)"/>
<path d="M50 47h2v1h-2v-1z" fill="rgb(115,90,139)"/>
<path d="M58 47h1v1h-1v-1z" fill="rgb(115,90,139)"/>
<path d="M59 47h1v1h-1v-1z" fill="rgb(16,16,16)"/>
<path d="M60 47h1v3h-1v-3z" fill="rgb(115,90,139)"/>
<path d="M61 47h1v3h-1v-3z" fill="rgb(16,16,16)"/>
<path d="M30 48h1v1h-1v-1z" fill="rgb(16,16,16)"/>
<path d="M31 48h1v1h-1v-1z" fill="rgb(156,139,197)"/>
<path d="M32 48h1v1h-1v-1z" fill="rgb(115,90,139)"/>
<path d="M33 48h3v4h-1v-3h-2v-1z" fill="rgb(16,16,16)"/>
<path d="M36 48h3v1h-3v-1z" fill="rgb(222,222,246)"/>
<path d="M44 48h1v1h-1v-1z" fill="rgb(106,106,106)"/>
<path d="M45 48h3v1h2v1h1v2h-1v-1h-1v-1h-4v2h-1v-3h1v-1z" fill="rgb(222,222,246)"/>
<path d="M48 48h2v1h-2v-1z" fill="rgb(115,90,139)"/>
<path d="M50 48h2v1h-2v-1z" fill="rgb(156,139,197)"/>
<path d="M52 48h1v1h-1v-1z" fill="rgb(115,90,139)"/>
<path d="M57 48h1v1h-1v-1z" fill="rgb(74,57,98)"/>
<path d="M58 48h1v1h-1v-1z" fill="rgb(16,16,16)"/>
<path d="M59 48h1v1h-1v-1z" fill="rgb(74,57,98)"/>
<path d="M31 49h2v1h-2v-1z" fill="rgb(16,16,16)"/>
<path d="M36 49h3v2h-1v-1h-1v1h-1v-2z" fill="rgb(255,255,255)"/>
<path d="M50 49h1v1h-1v-1z" fill="rgb(115,90,139)"/>
<path d="M51 49h1v1h-1v-1z" fill="rgb(74,57,98)"/>
<path d="M52 49h1v1h-1v-1z" fill="rgb(156,139,197)"/>
<path d="M53 49h1v1h-1v-1z" fill="rgb(115,90,139)"/>
<path d="M56 49h1v1h-1v-1z" fill="rgb(16,16,16)"/>
<path d="M57 49h2v1h-2v-1z" fill="rgb(115,90,139)"/>
<path d="M59 49h1v3h-1v1h-2v-2h1v-1h1v-1z" fill="rgb(156,139,197)"/>
<path d="M37 50h1v1h-1v-1z" fill="rgb(16,16,16)"/>
<path d="M45 50h4v1h1v2h-2v1h-1v-1h-2v-3z" fill="rgb(255,255,255)"/>
<path d="M52 50h1v1h-1v-1z" fill="rgb(74,57,98)"/>
<path d="M53 50h1v1h-1v-1z" fill="rgb(156,139,197)"/>
<path d="M54 50h1v1h-1v-1z" fill="rgb(115,90,139)"/>
<path d="M55 50h1v1h-1v-1z" fill="rgb(16,16,16)"/>
<path d="M56 50h1v1h-1v-1z" fill="rgb(115,90,139)"/>
<path d="M57 50h1v1h-1v-1z" fill="rgb(74,57,98)"/>
<path d="M60 50h1v3h-1v-3z" fill="rgb(16,16,16)"/>
<path d="M36 51h1v1h-1v-1z" fill="rgb(106,106,106)"/>
<path d="M37 51h1v1h-1v-1z" fill="rgb(255,255,255)"/>
<path d="M38 51h1v1h-1v-1z" fill="rgb(106,106,106)"/>
<path d="M46 51h1v1h-1v-1z" fill="rgb(16,16,16)"/>
<path d="M53 51h1v1h-1v-1z" fill="rgb(74,57,98)"/>
<path d="M54 51h1v1h-1v-1z" fill="rgb(16,16,16)"/>
<path d="M55 51h1v1h-1v-1z" fill="rgb(156,139,197)"/>
<path d="M56 51h1v1h-1v-1z" fill="rgb(74,57,98)"/>
<path d="M34 52h1v1h-1v-1z" fill="rgb(74,57,98)"/>
<path d="M35 52h1v1h-1v-1z" fill="rgb(197,189,238)"/>
<path d="M44 52h1v1h-1v-1z" fill="rgb(106,106,106)"/>
<path d="M50 52h1v1h-1v-1z" fill="rgb(106,106,106)"/>
<path d="M54 52h1v5h-1v-5z" fill="rgb(156,139,197)"/>
<path d="M55 52h2v1h2v1h-1v1h-1v1h-1v-3h-1v-1z" fill="rgb(115,90,139)"/>
<path d="M59 52h1v1h-1v-1z" fill="rgb(115,90,139)"/>
<path d="M33 53h1v1h-1v-1z" fill="rgb(74,57,98)"/>
<path d="M34 53h1v1h-1v-1z" fill="rgb(197,189,238)"/>
<path d="M35 53h1v1h1v2h-2v-3z" fill="rgb(74,57,98)"/>
<path d="M45 53h1v1h-1v-1z" fill="rgb(106,106,106)"/>
<path d="M46 53h1v1h-1v-1z" fill="rgb(222,222,246)"/>
<path d="M48 53h1v1h-1v-1z" fill="rgb(222,222,246)"/>
<path d="M49 53h1v1h-1v-1z" fill="rgb(106,106,106)"/>
<path d="M55 53h1v4h-1v-4z" fill="rgb(74,57,98)"/>
<path d="M59 53h1v1h-1v-1z" fill="rgb(16,16,16)"/>
<path d="M60 53h1v1h1v1h1v2h-1v-1h-1v-1h-1v-2z" fill="rgb(156,139,197)"/>
<path d="M61 53h1v1h-1v-1z" fill="rgb(74,57,98)"/>
<path d="M32 54h1v1h-1v-1z" fill="rgb(74,57,98)"/>
<path d="M33 54h1v1h-1v-1z" fill="rgb(197,189,238)"/>
<path d="M34 54h1v2h-1v-2z" fill="rgb(115,90,139)"/>
<path d="M39 54h1v3h-1v1h-1v2h-3v-1h2v-1h-2v-1h2v-1h1v-1h1v-1z" fill="rgb(205,74,32)"/>
<path d="M40 54h1v3h-1v-3z" fill="rgb(123,32,16)"/>
<path d="M53 54h1v1h-1v-1z" fill="rgb(74,57,98)"/>
<path d="M58 54h1v2h-2v-1h1v-1z" fill="rgb(16,16,16)"/>
<path d="M59 54h1v1h1v1h-2v-2z" fill="rgb(115,90,139)"/>
<path d="M62 54h1v1h-1v-1z" fill="rgb(74,57,98)"/>
<path d="M32 55h1v2h-1v-2z" fill="rgb(16,16,16)"/>
<path d="M33 55h1v1h1v1h-2v-2z" fill="rgb(156,139,197)"/>
<path d="M37 55h1v1h-1v-1z" fill="rgb(123,32,16)"/>
<path d="M41 55h2v4h-1v2h-1v1h-2v-1h1v-2h-1v-1h1v-1h1v-2z" fill="rgb(205,74,32)"/>
<path d="M52 55h1v1h-1v-1z" fill="rgb(74,57,98)"/>
<path d="M53 55h1v2h1v2h-1v1h-2v-2h-3v-1h2v-1h2v-1z" fill="rgb(115,90,139)"/>
<path d="M63 55h1v1h-1v-1z" fill="rgb(74,57,98)"/>
<path d="M35 56h2v1h-2v-1z" fill="rgb(123,32,16)"/>
<path d="M43 56h1v3h-1v-3z" fill="rgb(123,32,16)"/>
<path d="M50 56h1v1h-1v-1z" fill="rgb(74,57,98)"/>
<path d="M56 56h1v1h-1v-1z" fill="rgb(16,16,16)"/>
<path d="M59 56h2v1h-2v-1z" fill="rgb(16,16,16)"/>
<path d="M61 56h1v1h-1v-1z" fill="rgb(115,90,139)"/>
<path d="M63 56h1v1h-1v-1z" fill="rgb(16,16,16)"/>
<path d="M33 57h2v1h-2v-1z" fill="rgb(123,32,16)"/>
<path d="M39 57h1v1h-1v-1z" fill="rgb(123,32,16)"/>
<path d="M47 57h2v1h-2v-1z" fill="rgb(74,57,98)"/>
<path d="M55 57h1v1h-1v-1z" fill="rgb(156,139,197)"/>
<path d="M56 57h1v2h-1v-2z" fill="rgb(74,57,98)"/>
<path d="M61 57h2v1h-2v-1z" fill="rgb(16,16,16)"/>
<path d="M31 58h1v1h-1v-1z" fill="rgb(123,32,16)"/>
<path d="M32 58h1v1h-1v-1z" fill="rgb(205,74,32)"/>
<path d="M33 58h4v1h-2v1h3v-1h2v2h-1v1h-4v-1h-2v-1h-1v-1h1v-1z" fill="rgb(255,123,65)"/>
<path d="M38 58h1v1h-1v-1z" fill="rgb(123,32,16)"/>
<path d="M44 58h5v1h-2v1h-4v-1h1v-1z" fill="rgb(115,90,139)"/>
<path d="M49 58h3v1h-3v-1z" fill="rgb(74,57,98)"/>
<path d="M55 58h1v2h-1v-2z" fill="rgb(197,189,238)"/>
<path d="M30 59h1v1h-1v-1z" fill="rgb(123,32,16)"/>
<path d="M31 59h1v1h1v1h2v1h4v1h-5v-1h-2v-1h-1v-2z" fill="rgb(205,74,32)"/>
<path d="M42 59h1v1h-1v-1z" fill="rgb(123,32,16)"/>
<path d="M47 59h1v1h-1v-1z" fill="rgb(74,57,98)"/>
<path d="M48 59h4v1h-4v-1z" fill="rgb(156,139,197)"/>
<path d="M54 59h1v1h-1v-1z" fill="rgb(156,139,197)"/>
<path d="M56 59h1v1h-1v-1z" fill="rgb(16,16,16)"/>
<path d="M30 60h1v1h-1v-1z" fill="rgb(16,16,16)"/>
<path d="M42 60h1v1h-1v-1z" fill="rgb(16,16,16)"/>
<path d="M43 60h3v1h-3v-1z" fill="rgb(74,57,98)"/>
<path d="M46 60h2v1h-2v-1z" fill="rgb(156,139,197)"/>
<path d="M48 60h4v1h-4v-1z" fill="rgb(16,16,16)"/>
<path d="M52 60h3v1h-3v-1z" fill="rgb(197,189,238)"/>
<path d="M55 60h1v1h-1v-1z" fill="rgb(16,16,16)"/>
<path d="M31 61h1v1h-1v-1z" fill="rgb(16,16,16)"/>
<path d="M41 61h1v1h-1v-1z" fill="rgb(16,16,16)"/>
<path d="M42 61h4v1h-4v-1z" fill="rgb(156,139,197)"/>
<path d="M46 61h2v1h-2v-1z" fill="rgb(16,16,16)"/>
<path d="M52 61h3v1h-3v-1z" fill="rgb(16,16,16)"/>
<path d="M32 62h2v1h-2v-1z" fill="rgb(16,16,16)"/>
<path d="M39 62h2v1h-2v-1z" fill="rgb(16,16,16)"/>
<path d="M42 62h4v1h-4v-1z" fill="rgb(16,16,16)"/>
<path d="M34 63h5v1h-5v-1z" fill="rgb(16,16,16)"/>
</svg>
