<?xml version="1.0" encoding="utf-8"?>
<!-- generated at drububu.com  -->
<!DOCTYPE svg PUBLIC "-//W3C//DTD SVG 1.1//EN" "http://www.w3.org/Graphics/SVG/1.1/DTD/svg11.dtd">
<svg version="1.1" preserveAspectRatio="xMinYMin meet" xmlns="http://www.w3.org/2000/svg" xmlns:xlink="http://www.w3.org/1999/xlink" x="0px" y="0px" width="96px" height="96px" viewBox="0 0 96 96">
<path d="M0 0h96v96h-96v-96z" fill="transparent"/>
<path d="M70 15h2v1h-2v-1z" fill="rgb(123,82,131)"/>
<path d="M69 16h1v1h-1v-1z" fill="rgb(123,82,131)"/>
<path d="M70 16h1v2h-1v1h-1v1h-1v1h-1v1h-1v1h-1v2h-1v1h-1v1h-1v1h-1v1h-2v-1h-1v-3h1v-1h1
	v-1h2v-1h1v-1h2v-1h1v-1h1v-1h2v-1h1v-1z" fill="rgb(205,164,238)"/>
<path d="M71 16h1v2h-1v-2z" fill="rgb(172,123,189)"/>
<path d="M72 16h1v2h-1v-2z" fill="rgb(74,32,82)"/>
<path d="M67 17h2v1h-2v-1z" fill="rgb(123,82,131)"/>
<path d="M66 18h1v1h-1v-1z" fill="rgb(123,82,131)"/>
<path d="M70 18h1v2h-1v2h-1v2h-1v2h-1v2h-1v1h-1v1h-1v1h-2v-1h-2v-1h1v-1h1v-1h1v-1h1v-1h1
	v-2h1v-1h1v-1h1v-1h1v-1h1v-1z" fill="rgb(172,123,189)"/>
<path d="M71 18h1v2h-1v-2z" fill="rgb(74,32,82)"/>
<path d="M64 19h2v1h-2v-1z" fill="rgb(123,82,131)"/>
<path d="M63 20h1v1h-1v-1z" fill="rgb(123,82,131)"/>
<path d="M64 20h1v1h-1v-1z" fill="rgb(172,123,189)"/>
<path d="M70 20h1v1h-1v-1z" fill="rgb(74,32,82)"/>
<path d="M61 21h2v1h-2v-1z" fill="rgb(123,82,131)"/>
<path d="M70 21h1v1h-1v-1z" fill="rgb(16,16,16)"/>
<path d="M60 22h1v1h-1v-1z" fill="rgb(123,82,131)"/>
<path d="M61 22h1v1h-1v-1z" fill="rgb(172,123,189)"/>
<path d="M69 22h1v1h-1v-1z" fill="rgb(74,32,82)"/>
<path d="M15 23h2v1h-2v-1z" fill="rgb(74,32,82)"/>
<path d="M58 23h1v1h-1v-1z" fill="rgb(74,32,82)"/>
<path d="M59 23h1v1h-1v-1z" fill="rgb(123,82,131)"/>
<path d="M69 23h1v1h-1v-1z" fill="rgb(16,16,16)"/>
<path d="M14 24h1v2h-1v-2z" fill="rgb(123,82,131)"/>
<path d="M15 24h1v1h-1v-1z" fill="rgb(205,164,238)"/>
<path d="M16 24h1v1h-1v-1z" fill="rgb(172,123,189)"/>
<path d="M17 24h2v1h-2v-1z" fill="rgb(74,32,82)"/>
<path d="M57 24h1v1h-1v-1z" fill="rgb(74,32,82)"/>
<path d="M58 24h1v1h-1v-1z" fill="rgb(172,123,189)"/>
<path d="M68 24h1v2h-1v-2z" fill="rgb(16,16,16)"/>
<path d="M15 25h1v1h-1v-1z" fill="rgb(172,123,189)"/>
<path d="M16 25h1v1h1v1h1v1h1v1h1v1h1v1h1v1h1v1h-1v2h-2v-1h-1v-2h-1v-1h-1v-2h-1v-1h-1v-3
	z" fill="rgb(205,164,238)"/>
<path d="M17 25h2v1h1v1h2v1h2v1h1v1h1v1h-1v1h-2v-1h-1v-1h-1v-1h-1v-1h-1v-1h-1v-1h-1v-1z" fill="rgb(172,123,189)"/>
<path d="M19 25h1v1h-1v-1z" fill="rgb(74,32,82)"/>
<path d="M36 25h3v2h-1v-1h-2v-1z" fill="rgb(123,82,131)"/>
<path d="M43 25h4v1h-4v-1z" fill="rgb(123,82,131)"/>
<path d="M56 25h1v4h-1v-4z" fill="rgb(74,32,82)"/>
<path d="M57 25h1v2h-1v-2z" fill="rgb(172,123,189)"/>
<path d="M15 26h1v2h-1v-2z" fill="rgb(123,82,131)"/>
<path d="M20 26h1v1h-1v-1z" fill="rgb(123,82,131)"/>
<path d="M21 26h1v1h-1v-1z" fill="rgb(74,32,82)"/>
<path d="M35 26h1v1h-1v-1z" fill="rgb(123,82,131)"/>
<path d="M36 26h1v1h-1v-1z" fill="rgb(205,164,238)"/>
<path d="M37 26h1v1h-1v-1z" fill="rgb(172,123,189)"/>
<path d="M39 26h1v1h-1v-1z" fill="rgb(74,32,82)"/>
<path d="M42 26h1v1h-1v-1z" fill="rgb(123,82,131)"/>
<path d="M43 26h2v4h1v1h1v2h1v1h1v2h-2v-1h-1v-2h-1v-2h-1v-2h-1v-3z" fill="rgb(205,164,238)"/>
<path d="M45 26h2v1h1v1h1v2h1v1h1v1h1v2h1v-1h1v-1h2v-1h2v1h-1v1h-1v1h-1v1h-1v1h2v1h2v1
	h-1v1h2v4h1v3h1v1h1v-1h4v1h-3v1h-1v1h3v-1h2v-1h3v-1h3v1h-2v1h-2v1h-3v1h-3v1h-1v1
	h-1v2h-1v1h-1v-1h-1v1h1v1h1v1h2v1h-2v1h-2v-1h-2v3h-1v-2h-1v-4h2v-1h1v-1h1v-1h1
	v-4h-1v-2h-1v-2h-1v-2h-1v-4h-1v-1h-1v-1h-2v-1h-1v-1h-1v-1h-1v-2h-1v-1h-1v-3h-1
	v-1z" fill="rgb(172,123,189)"/>
<path d="M47 26h1v1h-1v-1z" fill="rgb(74,32,82)"/>
<path d="M67 26h1v2h-1v-2z" fill="rgb(16,16,16)"/>
<path d="M22 27h2v1h-2v-1z" fill="rgb(74,32,82)"/>
<path d="M34 27h1v2h-1v-2z" fill="rgb(123,82,131)"/>
<path d="M35 27h1v2h-1v-2z" fill="rgb(205,164,238)"/>
<path d="M36 27h1v1h-1v-1z" fill="rgb(172,123,189)"/>
<path d="M37 27h2v1h-2v-1z" fill="rgb(74,32,82)"/>
<path d="M39 27h1v1h1v1h1v1h1v2h1v1h-1v1h-1v-1h-2v-1h-2v-1h-2v-1h1v-2h2v-1z" fill="rgb(123,82,131)"/>
<path d="M40 27h1v1h-1v-1z" fill="rgb(16,16,16)"/>
<path d="M42 27h1v3h-1v-3z" fill="rgb(74,32,82)"/>
<path d="M45 27h1v3h-1v-3z" fill="rgb(123,82,131)"/>
<path d="M48 27h1v1h-1v-1z" fill="rgb(74,32,82)"/>
<path d="M57 27h1v1h1v1h1v1h2v1h-2v2h-1v4h1v-1h1v1h1v1h1v4h3v3h-3v1h-1v1h-1v-1h-1v-1h1
	v-1h1v-4h-1v-1h-1v-1h-2v-1h-2v-1h-2v-1h1v-1h1v-1h1v-1h1v-3h-1v-2z" fill="rgb(123,82,131)"/>
<path d="M16 28h1v1h-1v-1z" fill="rgb(123,82,131)"/>
<path d="M24 28h1v1h-1v-1z" fill="rgb(16,16,16)"/>
<path d="M36 28h1v2h-1v-2z" fill="rgb(74,32,82)"/>
<path d="M41 28h1v1h-1v-1z" fill="rgb(16,16,16)"/>
<path d="M49 28h1v2h-1v-2z" fill="rgb(74,32,82)"/>
<path d="M66 28h1v2h-1v-2z" fill="rgb(16,16,16)"/>
<path d="M17 29h1v2h-1v-2z" fill="rgb(123,82,131)"/>
<path d="M25 29h2v1h-2v-1z" fill="rgb(16,16,16)"/>
<path d="M33 29h1v1h-1v-1z" fill="rgb(74,32,82)"/>
<path d="M34 29h2v1h-2v-1z" fill="rgb(172,123,189)"/>
<path d="M43 29h1v1h-1v-1z" fill="rgb(172,123,189)"/>
<path d="M57 29h1v1h-1v-1z" fill="rgb(74,32,82)"/>
<path d="M65 29h1v1h-1v-1z" fill="rgb(123,82,131)"/>
<path d="M26 30h1v1h1v3h1v1h-2v1h-1v1h-4v-1h1v-2h1v-2h1v-1h1v-1z" fill="rgb(123,82,131)"/>
<path d="M27 30h1v1h-1v-1z" fill="rgb(16,16,16)"/>
<path d="M32 30h1v1h-1v-1z" fill="rgb(98,98,98)"/>
<path d="M33 30h3v1h-2v1h-1v-2z" fill="rgb(16,16,16)"/>
<path d="M43 30h1v2h-1v-2z" fill="rgb(74,32,82)"/>
<path d="M46 30h1v1h-1v-1z" fill="rgb(123,82,131)"/>
<path d="M50 30h1v1h-1v-1z" fill="rgb(74,32,82)"/>
<path d="M56 30h1v1h-1v-1z" fill="rgb(74,32,82)"/>
<path d="M57 30h1v1h-1v-1z" fill="rgb(16,16,16)"/>
<path d="M64 30h1v1h-1v-1z" fill="rgb(123,82,131)"/>
<path d="M65 30h1v1h-1v-1z" fill="rgb(16,16,16)"/>
<path d="M18 31h1v1h-1v-1z" fill="rgb(123,82,131)"/>
<path d="M28 31h1v3h-1v-3z" fill="rgb(16,16,16)"/>
<path d="M32 31h1v5h-1v-5z" fill="rgb(74,32,82)"/>
<path d="M34 31h2v1h1v1h2v1h2v1h1v3h-3v-1h-1v-1h-1v-1h-1v-1h-1v-2h-1v-1z" fill="rgb(255,255,255)"/>
<path d="M36 31h2v1h-2v-1z" fill="rgb(16,16,16)"/>
<path d="M44 31h1v1h-1v-1z" fill="rgb(172,123,189)"/>
<path d="M47 31h1v2h-1v-2z" fill="rgb(123,82,131)"/>
<path d="M51 31h2v1h-2v-1z" fill="rgb(74,32,82)"/>
<path d="M54 31h1v1h-1v-1z" fill="rgb(123,82,131)"/>
<path d="M55 31h1v1h-1v-1z" fill="rgb(74,32,82)"/>
<path d="M60 31h1v1h-1v-1z" fill="rgb(74,32,82)"/>
<path d="M61 31h4v1h-4v-1z" fill="rgb(16,16,16)"/>
<path d="M19 32h1v2h-1v-2z" fill="rgb(123,82,131)"/>
<path d="M33 32h1v5h-1v-5z" fill="rgb(205,164,238)"/>
<path d="M34 32h1v1h-1v-1z" fill="rgb(16,16,16)"/>
<path d="M37 32h1v1h-1v-1z" fill="rgb(197,197,197)"/>
<path d="M38 32h1v1h-1v-1z" fill="rgb(16,16,16)"/>
<path d="M39 32h1v1h-1v-1z" fill="rgb(65,65,65)"/>
<path d="M44 32h1v1h-1v-1z" fill="rgb(74,32,82)"/>
<path d="M52 32h1v2h-1v-2z" fill="rgb(123,82,131)"/>
<path d="M53 32h1v1h-1v-1z" fill="rgb(74,32,82)"/>
<path d="M60 32h1v1h-1v-1z" fill="rgb(16,16,16)"/>
<path d="M23 33h1v1h-1v-1z" fill="rgb(172,123,189)"/>
<path d="M34 33h1v1h-1v-1z" fill="rgb(65,65,65)"/>
<path d="M39 33h1v1h-1v-1z" fill="rgb(197,197,197)"/>
<path d="M40 33h1v1h-1v-1z" fill="rgb(65,65,65)"/>
<path d="M41 33h1v1h-1v-1z" fill="rgb(16,16,16)"/>
<path d="M43 33h2v1h-2v-1z" fill="rgb(65,65,65)"/>
<path d="M45 33h1v1h-1v-1z" fill="rgb(172,123,189)"/>
<path d="M48 33h1v1h-1v-1z" fill="rgb(123,82,131)"/>
<path d="M59 33h1v1h-1v-1z" fill="rgb(74,32,82)"/>
<path d="M20 34h1v2h-1v-2z" fill="rgb(74,32,82)"/>
<path d="M29 34h2v1h-2v-1z" fill="rgb(16,16,16)"/>
<path d="M34 34h1v4h-1v-4z" fill="rgb(74,32,82)"/>
<path d="M35 34h1v1h-1v-1z" fill="rgb(65,65,65)"/>
<path d="M41 34h1v1h-1v-1z" fill="rgb(197,197,197)"/>
<path d="M42 34h1v1h-1v-1z" fill="rgb(65,65,65)"/>
<path d="M43 34h2v1h-2v-1z" fill="rgb(148,148,148)"/>
<path d="M45 34h1v1h-1v-1z" fill="rgb(74,32,82)"/>
<path d="M49 34h1v1h-1v-1z" fill="rgb(123,82,131)"/>
<path d="M59 34h1v2h-1v-2z" fill="rgb(16,16,16)"/>
<path d="M60 34h1v1h-1v-1z" fill="rgb(123,82,131)"/>
<path d="M21 35h1v1h-1v-1z" fill="rgb(123,82,131)"/>
<path d="M22 35h1v1h-1v-1z" fill="rgb(172,123,189)"/>
<path d="M27 35h2v1h1v1h1v1h-3v-1h-1v-2z" fill="rgb(172,123,189)"/>
<path d="M29 35h2v2h-1v-1h-1v-1z" fill="rgb(123,82,131)"/>
<path d="M31 35h1v2h-1v-2z" fill="rgb(16,16,16)"/>
<path d="M35 35h1v2h1v1h1v2h-1v1h-1v3h-1v1h-1v1h-1v1h-1v1h-1v4h1v2h1v2h1v3h-1v2h-1v-1h-2
	v-1h-1v-4h-1v-1h2v-8h-1v-4h1v-1h2v-1h1v-1h1v-1h1v-3z" fill="rgb(123,82,131)"/>
<path d="M36 35h1v1h-1v-1z" fill="rgb(65,65,65)"/>
<path d="M42 35h1v2h-1v-2z" fill="rgb(197,197,197)"/>
<path d="M43 35h1v1h-1v-1z" fill="rgb(65,65,65)"/>
<path d="M44 35h1v1h-1v-1z" fill="rgb(16,16,16)"/>
<path d="M45 35h1v1h-1v-1z" fill="rgb(148,148,148)"/>
<path d="M46 35h1v1h-1v-1z" fill="rgb(74,32,82)"/>
<path d="M49 35h1v1h1v1h2v1h-3v-1h-2v-1h1v-1z" fill="rgb(172,123,189)"/>
<path d="M50 35h1v1h-1v-1z" fill="rgb(74,32,82)"/>
<path d="M60 35h1v1h-1v-1z" fill="rgb(172,123,189)"/>
<path d="M61 35h1v1h-1v-1z" fill="rgb(123,82,131)"/>
<path d="M67 35h1v1h-1v-1z" fill="rgb(74,32,82)"/>
<path d="M68 35h2v1h-2v-1z" fill="rgb(123,82,131)"/>
<path d="M21 36h1v1h-1v-1z" fill="rgb(74,32,82)"/>
<path d="M26 36h1v1h-1v-1z" fill="rgb(74,32,82)"/>
<path d="M32 36h1v1h1v1h-1v1h-1v1h-1v-2h1v-2z" fill="rgb(172,123,189)"/>
<path d="M36 36h1v1h-1v-1z" fill="rgb(16,16,16)"/>
<path d="M37 36h1v1h-1v-1z" fill="rgb(197,197,197)"/>
<path d="M43 36h2v1h1v3h1v1h-5v1h-1v-1h-1v-1h-1v-1h2v-1h1v-1h1v-1z" fill="rgb(148,148,148)"/>
<path d="M45 36h1v1h-1v-1z" fill="rgb(16,16,16)"/>
<path d="M46 36h1v1h-1v-1z" fill="rgb(148,148,148)"/>
<path d="M47 36h1v1h-1v-1z" fill="rgb(74,32,82)"/>
<path d="M51 36h2v1h-2v-1z" fill="rgb(74,32,82)"/>
<path d="M59 36h1v1h-1v-1z" fill="rgb(74,32,82)"/>
<path d="M61 36h1v1h-1v-1z" fill="rgb(172,123,189)"/>
<path d="M62 36h1v2h-1v-2z" fill="rgb(74,32,82)"/>
<path d="M66 36h1v1h-1v-1z" fill="rgb(74,32,82)"/>
<path d="M67 36h3v1h1v1h-1v1h-2v1h-2v1h-1v-2h1v-2h1v-1z" fill="rgb(172,123,189)"/>
<path d="M70 36h1v1h-1v-1z" fill="rgb(74,32,82)"/>
<path d="M22 37h4v1h-4v-1z" fill="rgb(74,32,82)"/>
<path d="M26 37h1v1h-1v-1z" fill="rgb(16,16,16)"/>
<path d="M27 37h1v1h-1v-1z" fill="rgb(123,82,131)"/>
<path d="M31 37h1v1h-1v-1z" fill="rgb(74,32,82)"/>
<path d="M37 37h1v1h-1v-1z" fill="rgb(16,16,16)"/>
<path d="M38 37h1v1h-1v-1z" fill="rgb(197,197,197)"/>
<path d="M46 37h1v2h-1v-2z" fill="rgb(16,16,16)"/>
<path d="M47 37h1v3h-1v-3z" fill="rgb(148,148,148)"/>
<path d="M48 37h1v1h-1v-1z" fill="rgb(74,32,82)"/>
<path d="M49 37h1v1h-1v-1z" fill="rgb(123,82,131)"/>
<path d="M53 37h1v1h-1v-1z" fill="rgb(123,82,131)"/>
<path d="M65 37h1v2h-1v-2z" fill="rgb(16,16,16)"/>
<path d="M71 37h1v1h-1v-1z" fill="rgb(123,82,131)"/>
<path d="M27 38h1v1h-1v-1z" fill="rgb(16,16,16)"/>
<path d="M28 38h2v1h-1v1h-1v-2z" fill="rgb(123,82,131)"/>
<path d="M30 38h1v1h-1v-1z" fill="rgb(74,32,82)"/>
<path d="M33 38h1v1h-1v-1z" fill="rgb(74,32,82)"/>
<path d="M38 38h1v2h-1v-2z" fill="rgb(16,16,16)"/>
<path d="M39 38h2v1h-2v-1z" fill="rgb(197,197,197)"/>
<path d="M48 38h1v2h-1v-2z" fill="rgb(16,16,16)"/>
<path d="M49 38h2v1h-2v-1z" fill="rgb(74,32,82)"/>
<path d="M51 38h3v5h-1v-2h-1v-2h-1v-1z" fill="rgb(205,164,238)"/>
<path d="M54 38h1v4h-1v-4z" fill="rgb(123,82,131)"/>
<path d="M57 38h1v1h-1v-1z" fill="rgb(74,32,82)"/>
<path d="M58 38h1v1h-1v-1z" fill="rgb(16,16,16)"/>
<path d="M59 38h1v1h-1v-1z" fill="rgb(74,32,82)"/>
<path d="M63 38h1v1h1v1h-2v-2z" fill="rgb(16,16,16)"/>
<path d="M70 38h1v1h1v2h-1v2h1v1h-4v1h-1v-3h-1v-2h2v-1h2v-1z" fill="rgb(123,82,131)"/>
<path d="M71 38h1v1h-1v-1z" fill="rgb(74,32,82)"/>
<path d="M29 39h2v1h-2v-1z" fill="rgb(205,164,238)"/>
<path d="M32 39h1v1h-1v-1z" fill="rgb(74,32,82)"/>
<path d="M46 39h1v1h-1v-1z" fill="rgb(65,65,65)"/>
<path d="M49 39h2v2h-1v-1h-1v-1z" fill="rgb(98,98,98)"/>
<path d="M51 39h1v3h-1v-3z" fill="rgb(74,32,82)"/>
<path d="M59 39h1v2h1v3h-1v-1h-1v-4z" fill="rgb(123,82,131)"/>
<path d="M60 39h1v1h-1v-1z" fill="rgb(74,32,82)"/>
<path d="M72 39h1v2h-1v-2z" fill="rgb(16,16,16)"/>
<path d="M27 40h1v1h-1v-1z" fill="rgb(123,82,131)"/>
<path d="M28 40h1v2h-1v1h-1v1h-1v-2h1v-1h1v-1z" fill="rgb(205,164,238)"/>
<path d="M29 40h1v1h-1v-1z" fill="rgb(172,123,189)"/>
<path d="M30 40h2v1h-2v-1z" fill="rgb(74,32,82)"/>
<path d="M37 40h1v1h-1v-1z" fill="rgb(65,65,65)"/>
<path d="M38 40h1v1h-1v-1z" fill="rgb(197,197,197)"/>
<path d="M39 40h1v1h-1v-1z" fill="rgb(16,16,16)"/>
<path d="M47 40h1v2h-6v-1h5v-1z" fill="rgb(16,16,16)"/>
<path d="M48 40h1v1h1v1h-2v-2z" fill="rgb(197,197,197)"/>
<path d="M49 40h1v1h-1v-1z" fill="rgb(65,65,65)"/>
<path d="M60 40h1v1h-1v-1z" fill="rgb(16,16,16)"/>
<path d="M61 40h1v1h-1v-1z" fill="rgb(74,32,82)"/>
<path d="M63 40h2v1h-2v-1z" fill="rgb(74,32,82)"/>
<path d="M26 41h1v1h-1v-1z" fill="rgb(123,82,131)"/>
<path d="M29 41h1v1h-1v-1z" fill="rgb(74,32,82)"/>
<path d="M36 41h1v1h-1v-1z" fill="rgb(65,65,65)"/>
<path d="M37 41h1v3h-1v-3z" fill="rgb(197,197,197)"/>
<path d="M38 41h1v1h-1v-1z" fill="rgb(148,148,148)"/>
<path d="M39 41h1v2h-1v1h-1v-2h1v-1z" fill="rgb(98,98,98)"/>
<path d="M40 41h1v1h1v1h-2v-2z" fill="rgb(16,16,16)"/>
<path d="M50 41h1v1h-1v-1z" fill="rgb(65,65,65)"/>
<path d="M52 41h1v1h-1v-1z" fill="rgb(172,123,189)"/>
<path d="M61 41h1v3h-1v-3z" fill="rgb(16,16,16)"/>
<path d="M63 41h2v1h-2v-1z" fill="rgb(172,123,189)"/>
<path d="M65 41h1v1h-1v-1z" fill="rgb(74,32,82)"/>
<path d="M71 41h1v2h-1v-2z" fill="rgb(16,16,16)"/>
<path d="M25 42h1v1h-1v-1z" fill="rgb(123,82,131)"/>
<path d="M28 42h1v4h-1v-4z" fill="rgb(74,32,82)"/>
<path d="M36 42h1v2h-1v-2z" fill="rgb(16,16,16)"/>
<path d="M42 42h6v2h1v1h-2v1h-1v1h-2v-3h-1v-1h-1v-1z" fill="rgb(106,65,131)"/>
<path d="M48 42h2v1h1v1h-2v-1h-1v-1z" fill="rgb(16,16,16)"/>
<path d="M50 42h2v2h-1v-1h-1v-1z" fill="rgb(148,148,148)"/>
<path d="M52 42h1v2h-1v-2z" fill="rgb(74,32,82)"/>
<path d="M54 42h1v2h1v2h1v2h1v4h-1v-1h-1v-3h-1v-2h-1v-2h-1v-1h1v-1z" fill="rgb(172,123,189)"/>
<path d="M55 42h1v2h-1v-2z" fill="rgb(123,82,131)"/>
<path d="M66 42h1v1h-1v-1z" fill="rgb(74,32,82)"/>
<path d="M25 43h1v2h-1v-2z" fill="rgb(74,32,82)"/>
<path d="M27 43h1v3h1v5h-1v-4h-1v-2h-1v-1h1v-1z" fill="rgb(172,123,189)"/>
<path d="M39 43h1v1h-1v-1z" fill="rgb(16,16,16)"/>
<path d="M40 43h3v1h1v4h-1v1h-1v1h-2v-1h-1v-1h-1v-3h1v2h1v1h1v-1h1v-2h-1v-1h-1v-1z" fill="rgb(131,90,164)"/>
<path d="M48 43h1v1h-1v-1z" fill="rgb(82,41,90)"/>
<path d="M66 43h1v2h1v1h-3v-1h1v-2z" fill="rgb(16,16,16)"/>
<path d="M72 43h1v1h1v1h-6v-1h4v-1z" fill="rgb(16,16,16)"/>
<path d="M35 44h1v1h-1v-1z" fill="rgb(65,65,65)"/>
<path d="M36 44h1v1h-1v-1z" fill="rgb(197,197,197)"/>
<path d="M37 44h1v1h-1v-1z" fill="rgb(98,98,98)"/>
<path d="M38 44h1v1h-1v-1z" fill="rgb(16,16,16)"/>
<path d="M39 44h1v1h-1v-1z" fill="rgb(131,90,164)"/>
<path d="M40 44h1v1h1v2h-1v1h-1v-1h-1v-2h1v-1z" fill="rgb(164,123,189)"/>
<path d="M49 44h1v1h-1v-1z" fill="rgb(197,197,197)"/>
<path d="M50 44h1v1h-1v-1z" fill="rgb(82,41,90)"/>
<path d="M51 44h1v4h-1v-4z" fill="rgb(16,16,16)"/>
<path d="M52 44h1v5h-1v2h1v1h-2v-4h1v-4z" fill="rgb(148,148,148)"/>
<path d="M53 44h1v1h-1v-1z" fill="rgb(123,82,131)"/>
<path d="M56 44h1v1h-1v-1z" fill="rgb(123,82,131)"/>
<path d="M60 44h1v1h-1v-1z" fill="rgb(16,16,16)"/>
<path d="M24 45h1v2h-1v-2z" fill="rgb(123,82,131)"/>
<path d="M25 45h1v2h1v1h-2v-3z" fill="rgb(172,123,189)"/>
<path d="M26 45h1v1h-1v-1z" fill="rgb(123,82,131)"/>
<path d="M34 45h1v1h-1v-1z" fill="rgb(98,98,98)"/>
<path d="M35 45h1v1h-1v-1z" fill="rgb(197,197,197)"/>
<path d="M36 45h1v2h-1v2h-1v3h-1v-1h-1v-1h1v-2h1v-2h1v-1z" fill="rgb(98,98,98)"/>
<path d="M37 45h1v2h-1v-2z" fill="rgb(16,16,16)"/>
<path d="M47 45h1v1h-1v-1z" fill="rgb(197,197,197)"/>
<path d="M48 45h2v4h-1v1h-2v-2h-1v1h-2v-1h1v-1h1v-1h2v-1z" fill="rgb(255,255,255)"/>
<path d="M50 45h1v3h-1v-3z" fill="rgb(197,197,197)"/>
<path d="M53 45h1v1h-1v-1z" fill="rgb(74,32,82)"/>
<path d="M56 45h1v1h-1v-1z" fill="rgb(74,32,82)"/>
<path d="M63 45h2v1h-2v-1z" fill="rgb(74,32,82)"/>
<path d="M68 45h1v1h-1v-1z" fill="rgb(123,82,131)"/>
<path d="M69 45h1v1h-1v-1z" fill="rgb(172,123,189)"/>
<path d="M70 45h3v1h-3v-1z" fill="rgb(205,164,238)"/>
<path d="M73 45h2v1h-2v-1z" fill="rgb(74,32,82)"/>
<path d="M26 46h1v1h-1v-1z" fill="rgb(74,32,82)"/>
<path d="M29 46h1v8h-1v-8z" fill="rgb(74,32,82)"/>
<path d="M33 46h1v1h-1v-1z" fill="rgb(98,98,98)"/>
<path d="M34 46h1v1h-1v-1z" fill="rgb(197,197,197)"/>
<path d="M53 46h1v2h1v2h-1v1h-2v-1h1v-4z" fill="rgb(65,65,65)"/>
<path d="M54 46h1v2h-1v-2z" fill="rgb(16,16,16)"/>
<path d="M57 46h1v1h-1v-1z" fill="rgb(123,82,131)"/>
<path d="M66 46h4v1h-3v1h-2v1h-3v-1h1v-1h3v-1z" fill="rgb(205,164,238)"/>
<path d="M73 46h1v2h-2v1h-2v1h-2v1h-2v1h-3v-2h3v-1h3v-1h2v-1h2v-1z" fill="rgb(123,82,131)"/>
<path d="M74 46h1v3h-1v1h-1v-2h1v-2z" fill="rgb(16,16,16)"/>
<path d="M24 47h1v2h-1v-2z" fill="rgb(74,32,82)"/>
<path d="M27 47h1v1h-1v-1z" fill="rgb(123,82,131)"/>
<path d="M32 47h1v1h-1v-1z" fill="rgb(98,98,98)"/>
<path d="M33 47h1v2h-1v3h-1v-4h1v-1z" fill="rgb(197,197,197)"/>
<path d="M34 47h1v1h-1v-1z" fill="rgb(148,148,148)"/>
<path d="M36 47h1v2h-1v-2z" fill="rgb(16,16,16)"/>
<path d="M37 47h1v1h-1v-1z" fill="rgb(106,65,131)"/>
<path d="M44 47h1v1h-1v-1z" fill="rgb(197,197,197)"/>
<path d="M57 47h1v1h-1v-1z" fill="rgb(74,32,82)"/>
<path d="M25 48h2v2h-1v-1h-1v-1z" fill="rgb(123,82,131)"/>
<path d="M27 48h1v2h-1v-2z" fill="rgb(74,32,82)"/>
<path d="M31 48h1v2h-1v-2z" fill="rgb(65,65,65)"/>
<path d="M37 48h1v1h1v1h-1v2h-1v-1h-1v-2h1v-1z" fill="rgb(255,255,255)"/>
<path d="M38 48h1v1h-1v-1z" fill="rgb(148,148,148)"/>
<path d="M43 48h1v1h1v1h2v1h-2v1h-6v-1h1v-1h2v-1h1v-1z" fill="rgb(106,65,131)"/>
<path d="M46 48h1v1h-1v-1z" fill="rgb(98,98,98)"/>
<path d="M50 48h1v2h-1v-2z" fill="rgb(65,65,65)"/>
<path d="M55 48h1v3h-1v1h-2v-1h1v-1h1v-2z" fill="rgb(16,16,16)"/>
<path d="M58 48h1v2h-1v-2z" fill="rgb(123,82,131)"/>
<path d="M72 48h1v1h-1v-1z" fill="rgb(74,32,82)"/>
<path d="M25 49h1v1h-1v-1z" fill="rgb(74,32,82)"/>
<path d="M33 49h1v1h-1v-1z" fill="rgb(148,148,148)"/>
<path d="M35 49h1v5h-1v-5z" fill="rgb(16,16,16)"/>
<path d="M39 49h1v1h-1v-1z" fill="rgb(148,148,148)"/>
<path d="M45 49h1v1h-1v-1z" fill="rgb(197,197,197)"/>
<path d="M46 49h1v1h-1v-1z" fill="rgb(16,16,16)"/>
<path d="M49 49h1v3h1v1h-1v1h-1v3h1v2h1v1h-2v1h-7v-1h-2v-1h-1v-1h-1v-2h-1v-2h-1v-2h8v1
	h-4v1h1v1h1v-1h1v1h3v-1h1v-1h1v-2h-1v-1h2v-1z" fill="rgb(82,41,90)"/>
<path d="M52 49h1v1h-1v-1z" fill="rgb(16,16,16)"/>
<path d="M70 49h2v1h-2v-1z" fill="rgb(16,16,16)"/>
<path d="M72 49h1v1h-1v-1z" fill="rgb(123,82,131)"/>
<path d="M26 50h1v1h-1v-1z" fill="rgb(74,32,82)"/>
<path d="M27 50h1v2h-1v-2z" fill="rgb(123,82,131)"/>
<path d="M31 50h1v2h-1v-2z" fill="rgb(16,16,16)"/>
<path d="M38 50h1v1h-1v-1z" fill="rgb(98,98,98)"/>
<path d="M39 50h1v1h-1v-1z" fill="rgb(255,255,255)"/>
<path d="M50 50h1v2h-1v-2z" fill="rgb(16,16,16)"/>
<path d="M58 50h1v2h-1v-2z" fill="rgb(74,32,82)"/>
<path d="M68 50h2v1h-2v-1z" fill="rgb(16,16,16)"/>
<path d="M70 50h2v1h-2v-1z" fill="rgb(123,82,131)"/>
<path d="M72 50h1v2h-3v-1h2v-1z" fill="rgb(172,123,189)"/>
<path d="M73 50h1v2h-1v-2z" fill="rgb(74,32,82)"/>
<path d="M28 51h1v3h-1v3h-1v1h-1v-4h1v-2h1v-1z" fill="rgb(205,164,238)"/>
<path d="M33 51h1v1h-1v-1z" fill="rgb(148,148,148)"/>
<path d="M36 51h1v1h-1v-1z" fill="rgb(148,148,148)"/>
<path d="M38 51h1v1h-1v-1z" fill="rgb(16,16,16)"/>
<path d="M45 51h2v1h-2v-1z" fill="rgb(82,41,90)"/>
<path d="M47 51h1v1h-1v-1z" fill="rgb(197,197,197)"/>
<path d="M55 51h1v1h-1v-1z" fill="rgb(172,123,189)"/>
<path d="M56 51h1v2h-2v1h-1v1h-1v1h-1v1h-2v-2h1v-1h1v-1h2v-1h2v-1z" fill="rgb(205,164,238)"/>
<path d="M62 51h1v1h-1v-1z" fill="rgb(74,32,82)"/>
<path d="M66 51h2v1h-2v-1z" fill="rgb(16,16,16)"/>
<path d="M68 51h2v1h3v1h-1v2h-1v3h1v3h-1v1h-4v-1h-1v-2h1v-4h-2v2h1v2h-1v2h-2v1h-1v2h-1v1
	h1v1h1v2h-1v2h-2v-1h-2v-1h-2v1h1v2h-2v1h-1v1h-3v-1h-1v-1h1v-3h1v1h1v1h1v-1h1
	v-2h1v-2h1v-1h1v-1h1v-1h2v-1h1v-1h1v-3h-1v-1h-1v-1h-1v-1h1v-2h2v1h3v-1h2v-1z" fill="rgb(123,82,131)"/>
<path d="M26 52h1v2h-1v-2z" fill="rgb(123,82,131)"/>
<path d="M32 52h1v2h-1v-2z" fill="rgb(65,65,65)"/>
<path d="M33 52h1v1h1v3h-1v-2h-1v-2z" fill="rgb(197,197,197)"/>
<path d="M34 52h1v1h-1v-1z" fill="rgb(148,148,148)"/>
<path d="M44 52h1v1h-1v-1z" fill="rgb(197,197,197)"/>
<path d="M45 52h1v2h-1v-2z" fill="rgb(148,148,148)"/>
<path d="M46 52h1v1h-1v-1z" fill="rgb(255,255,255)"/>
<path d="M47 52h1v1h-1v-1z" fill="rgb(98,98,98)"/>
<path d="M51 52h2v1h-1v1h-2v-1h1v-1z" fill="rgb(16,16,16)"/>
<path d="M53 52h1v1h-1v-1z" fill="rgb(172,123,189)"/>
<path d="M57 52h1v1h-1v-1z" fill="rgb(74,32,82)"/>
<path d="M63 52h1v1h-1v-1z" fill="rgb(74,32,82)"/>
<path d="M64 52h2v1h-2v-1z" fill="rgb(16,16,16)"/>
<path d="M40 53h2v2h-1v-1h-1v-1z" fill="rgb(255,255,255)"/>
<path d="M42 53h1v1h-1v-1z" fill="rgb(148,148,148)"/>
<path d="M43 53h2v1h-1v1h-1v-2z" fill="rgb(255,255,255)"/>
<path d="M46 53h1v1h-1v-1z" fill="rgb(197,197,197)"/>
<path d="M55 53h1v1h-1v-1z" fill="rgb(172,123,189)"/>
<path d="M56 53h1v1h-1v-1z" fill="rgb(74,32,82)"/>
<path d="M72 53h1v2h-1v-2z" fill="rgb(16,16,16)"/>
<path d="M23 54h3v2h-1v-1h-2v-1z" fill="rgb(123,82,131)"/>
<path d="M33 54h1v1h-1v-1z" fill="rgb(16,16,16)"/>
<path d="M35 54h1v2h-1v-2z" fill="rgb(98,98,98)"/>
<path d="M36 54h1v2h-1v-2z" fill="rgb(16,16,16)"/>
<path d="M44 54h1v1h-1v-1z" fill="rgb(197,197,197)"/>
<path d="M45 54h1v1h-1v-1z" fill="rgb(98,98,98)"/>
<path d="M49 54h1v3h-1v-3z" fill="rgb(16,16,16)"/>
<path d="M50 54h1v1h-1v-1z" fill="rgb(172,123,189)"/>
<path d="M54 54h2v1h-2v-1z" fill="rgb(123,82,131)"/>
<path d="M58 54h1v1h-1v-1z" fill="rgb(123,82,131)"/>
<path d="M20 55h3v1h-3v-1z" fill="rgb(123,82,131)"/>
<path d="M23 55h2v2h-3v1h-2v-2h3v-1z" fill="rgb(205,164,238)"/>
<path d="M28 55h1v4h-1v-4z" fill="rgb(74,32,82)"/>
<path d="M33 55h1v1h-1v-1z" fill="rgb(65,65,65)"/>
<path d="M53 55h1v3h-1v-3z" fill="rgb(74,32,82)"/>
<path d="M59 55h2v1h-2v-1z" fill="rgb(74,32,82)"/>
<path d="M65 55h1v2h-1v-2z" fill="rgb(172,123,189)"/>
<path d="M66 55h1v2h-1v-2z" fill="rgb(74,32,82)"/>
<path d="M71 55h1v3h-1v-3z" fill="rgb(16,16,16)"/>
<path d="M19 56h1v2h-1v-2z" fill="rgb(123,82,131)"/>
<path d="M25 56h1v1h-1v-1z" fill="rgb(74,32,82)"/>
<path d="M34 56h1v2h-1v-2z" fill="rgb(16,16,16)"/>
<path d="M35 56h1v3h-1v-3z" fill="rgb(197,197,197)"/>
<path d="M36 56h1v2h1v1h1v1h1v1h-2v1h-2v-1h-1v-2h1v-3z" fill="rgb(98,98,98)"/>
<path d="M37 56h1v2h-1v-2z" fill="rgb(16,16,16)"/>
<path d="M52 56h1v3h1v2h1v2h-2v-3h-1v-2h-1v-1h1v-1z" fill="rgb(172,123,189)"/>
<path d="M60 56h1v1h-1v-1z" fill="rgb(123,82,131)"/>
<path d="M61 56h1v1h-1v-1z" fill="rgb(74,32,82)"/>
<path d="M22 57h3v2h-2v-1h-1v-1z" fill="rgb(172,123,189)"/>
<path d="M25 57h1v2h-1v-2z" fill="rgb(16,16,16)"/>
<path d="M27 57h1v2h1v1h1v1h2v1h-1v1h-1v-1h-2v-1h-1v-2h-1v-1h1v-1z" fill="rgb(172,123,189)"/>
<path d="M50 57h1v2h-1v-2z" fill="rgb(16,16,16)"/>
<path d="M62 57h1v2h-1v-2z" fill="rgb(74,32,82)"/>
<path d="M66 57h1v2h-1v-2z" fill="rgb(16,16,16)"/>
<path d="M20 58h2v1h-2v-1z" fill="rgb(74,32,82)"/>
<path d="M22 58h1v1h-1v-1z" fill="rgb(123,82,131)"/>
<path d="M34 58h1v1h-1v-1z" fill="rgb(65,65,65)"/>
<path d="M38 58h1v1h-1v-1z" fill="rgb(16,16,16)"/>
<path d="M51 58h1v1h-1v-1z" fill="rgb(123,82,131)"/>
<path d="M53 58h1v1h-1v-1z" fill="rgb(123,82,131)"/>
<path d="M56 58h2v1h2v-1h2v2h-1v1h-4v2h-1v-5z" fill="rgb(123,82,131)"/>
<path d="M72 58h1v3h-1v-3z" fill="rgb(16,16,16)"/>
<path d="M23 59h1v1h-1v-1z" fill="rgb(123,82,131)"/>
<path d="M24 59h2v1h-2v-1z" fill="rgb(74,32,82)"/>
<path d="M26 59h1v2h-1v-2z" fill="rgb(16,16,16)"/>
<path d="M29 59h1v1h-1v-1z" fill="rgb(74,32,82)"/>
<path d="M33 59h1v3h-1v-3z" fill="rgb(65,65,65)"/>
<path d="M34 59h1v2h1v1h-2v-3z" fill="rgb(197,197,197)"/>
<path d="M39 59h1v1h-1v-1z" fill="rgb(16,16,16)"/>
<path d="M51 59h1v4h-1v-2h-2v-1h2v-1z" fill="rgb(16,16,16)"/>
<path d="M54 59h1v1h-1v-1z" fill="rgb(74,32,82)"/>
<path d="M62 59h1v1h-1v-1z" fill="rgb(16,16,16)"/>
<path d="M65 59h1v1h-1v-1z" fill="rgb(74,32,82)"/>
<path d="M30 60h2v1h-2v-1z" fill="rgb(74,32,82)"/>
<path d="M40 60h2v1h-2v-1z" fill="rgb(16,16,16)"/>
<path d="M52 60h1v3h-1v-3z" fill="rgb(123,82,131)"/>
<path d="M54 60h1v1h-1v-1z" fill="rgb(123,82,131)"/>
<path d="M61 60h1v1h-1v-1z" fill="rgb(16,16,16)"/>
<path d="M65 60h1v1h-1v-1z" fill="rgb(16,16,16)"/>
<path d="M27 61h1v1h-1v-1z" fill="rgb(74,32,82)"/>
<path d="M32 61h1v1h-1v-1z" fill="rgb(74,32,82)"/>
<path d="M38 61h4v1h3v2h-1v3h-1v-1h-1v-1h-1v-1h-1v-1h-2v-2z" fill="rgb(148,148,148)"/>
<path d="M42 61h7v1h-7v-1z" fill="rgb(16,16,16)"/>
<path d="M49 61h1v1h-1v-1z" fill="rgb(98,98,98)"/>
<path d="M50 61h1v2h-1v-2z" fill="rgb(148,148,148)"/>
<path d="M55 61h1v2h-1v-2z" fill="rgb(74,32,82)"/>
<path d="M57 61h2v2h-2v-2z" fill="rgb(74,32,82)"/>
<path d="M59 61h2v1h-2v-1z" fill="rgb(16,16,16)"/>
<path d="M63 61h2v1h-2v-1z" fill="rgb(16,16,16)"/>
<path d="M65 61h2v2h-1v-1h-1v-1z" fill="rgb(74,32,82)"/>
<path d="M71 61h1v1h-1v-1z" fill="rgb(16,16,16)"/>
<path d="M28 62h2v1h-1v2h-1v-3z" fill="rgb(74,32,82)"/>
<path d="M31 62h1v1h1v1h1v3h1v1h-2v-2h-1v-2h-1v-2z" fill="rgb(205,164,238)"/>
<path d="M32 62h1v1h-1v-1z" fill="rgb(172,123,189)"/>
<path d="M33 62h1v2h-1v-2z" fill="rgb(74,32,82)"/>
<path d="M34 62h2v1h-2v-1z" fill="rgb(65,65,65)"/>
<path d="M36 62h2v1h-2v-1z" fill="rgb(197,197,197)"/>
<path d="M45 62h4v1h-1v1h-1v2h1v1h-1v1h-1v-1h-2v-3h1v-2z" fill="rgb(98,98,98)"/>
<path d="M49 62h1v1h-1v-1z" fill="rgb(16,16,16)"/>
<path d="M62 62h1v2h-1v-2z" fill="rgb(16,16,16)"/>
<path d="M67 62h4v1h-4v-1z" fill="rgb(16,16,16)"/>
<path d="M29 63h1v1h1v2h-1v-1h-1v-2z" fill="rgb(123,82,131)"/>
<path d="M30 63h1v1h-1v-1z" fill="rgb(74,32,82)"/>
<path d="M34 63h2v1h2v1h2v2h1v1h2v1h4v4h-2v1h-3v-2h-1v-2h-1v-1h-2v-1h-2v-1h-1v-3h-1v-1z" fill="rgb(123,82,131)"/>
<path d="M36 63h1v1h-1v-1z" fill="rgb(65,65,65)"/>
<path d="M37 63h1v1h-1v-1z" fill="rgb(16,16,16)"/>
<path d="M38 63h2v1h-2v-1z" fill="rgb(197,197,197)"/>
<path d="M48 63h1v1h-1v-1z" fill="rgb(16,16,16)"/>
<path d="M49 63h1v1h-1v-1z" fill="rgb(197,197,197)"/>
<path d="M50 63h1v1h-1v-1z" fill="rgb(65,65,65)"/>
<path d="M51 63h1v1h-1v-1z" fill="rgb(74,32,82)"/>
<path d="M52 63h2v2h-1v1h-1v1h-1v1h-1v-2h1v-1h1v-2z" fill="rgb(205,164,238)"/>
<path d="M54 63h2v1h-2v-1z" fill="rgb(123,82,131)"/>
<path d="M56 63h2v1h-1v1h-1v2h-1v2h-1v1h-1v-1h-1v-1h1v-2h1v-1h1v-1h1v-1z" fill="rgb(172,123,189)"/>
<path d="M31 64h1v3h-2v-1h1v-2z" fill="rgb(74,32,82)"/>
<path d="M34 64h1v3h-1v-3z" fill="rgb(74,32,82)"/>
<path d="M38 64h1v1h-1v-1z" fill="rgb(65,65,65)"/>
<path d="M39 64h1v1h-1v-1z" fill="rgb(16,16,16)"/>
<path d="M40 64h1v1h-1v-1z" fill="rgb(197,197,197)"/>
<path d="M47 64h1v2h-1v-2z" fill="rgb(16,16,16)"/>
<path d="M48 64h1v2h-1v-2z" fill="rgb(197,197,197)"/>
<path d="M49 64h1v2h-1v-2z" fill="rgb(65,65,65)"/>
<path d="M50 64h1v1h-1v-1z" fill="rgb(74,32,82)"/>
<path d="M51 64h1v1h-1v-1z" fill="rgb(172,123,189)"/>
<path d="M54 64h1v1h-1v-1z" fill="rgb(74,32,82)"/>
<path d="M61 64h1v1h-1v-1z" fill="rgb(16,16,16)"/>
<path d="M29 65h1v1h-1v-1z" fill="rgb(74,32,82)"/>
<path d="M40 65h1v2h-1v-2z" fill="rgb(16,16,16)"/>
<path d="M41 65h1v1h1v1h-2v-2z" fill="rgb(197,197,197)"/>
<path d="M50 65h1v1h-1v-1z" fill="rgb(172,123,189)"/>
<path d="M53 65h1v1h-1v-1z" fill="rgb(74,32,82)"/>
<path d="M62 65h1v1h-1v-1z" fill="rgb(16,16,16)"/>
<path d="M32 66h1v1h-1v-1z" fill="rgb(172,123,189)"/>
<path d="M48 66h1v1h-1v-1z" fill="rgb(16,16,16)"/>
<path d="M49 66h1v1h-1v-1z" fill="rgb(74,32,82)"/>
<path d="M52 66h1v1h-1v-1z" fill="rgb(74,32,82)"/>
<path d="M63 66h1v1h-1v-1z" fill="rgb(16,16,16)"/>
<path d="M32 67h1v2h-1v-2z" fill="rgb(74,32,82)"/>
<path d="M35 67h1v1h-1v-1z" fill="rgb(74,32,82)"/>
<path d="M41 67h2v1h-2v-1z" fill="rgb(65,65,65)"/>
<path d="M43 67h2v1h-2v-1z" fill="rgb(197,197,197)"/>
<path d="M45 67h1v1h-1v-1z" fill="rgb(148,148,148)"/>
<path d="M47 67h1v3h-1v-1h-3v-1h3v-1z" fill="rgb(16,16,16)"/>
<path d="M48 67h1v1h-1v-1z" fill="rgb(74,32,82)"/>
<path d="M49 67h1v1h-1v-1z" fill="rgb(172,123,189)"/>
<path d="M51 67h1v1h-1v-1z" fill="rgb(74,32,82)"/>
<path d="M52 67h1v1h-1v-1z" fill="rgb(123,82,131)"/>
<path d="M63 67h1v1h1v1h1v1h1v2h-2v-1h-2v-1h-1v-2h1v-1z" fill="rgb(172,123,189)"/>
<path d="M64 67h1v1h-1v-1z" fill="rgb(74,32,82)"/>
<path d="M33 68h3v1h2v1h2v2h1v2h1v1h2v1h-3v-1h-1v-1h-1v-1h-1v-2h-2v-1h-2v-1h-1v-1z" fill="rgb(172,123,189)"/>
<path d="M36 68h2v1h-2v-1z" fill="rgb(74,32,82)"/>
<path d="M43 68h1v1h-1v-1z" fill="rgb(65,65,65)"/>
<path d="M48 68h1v1h-1v-1z" fill="rgb(172,123,189)"/>
<path d="M49 68h1v3h-1v1h-1v-3h1v-1z" fill="rgb(205,164,238)"/>
<path d="M50 68h1v3h-1v-3z" fill="rgb(74,32,82)"/>
<path d="M56 68h1v1h-1v-1z" fill="rgb(74,32,82)"/>
<path d="M57 68h1v1h2v1h-2v1h-1v-3z" fill="rgb(16,16,16)"/>
<path d="M65 68h1v1h-1v-1z" fill="rgb(74,32,82)"/>
<path d="M33 69h1v1h-1v-1z" fill="rgb(74,32,82)"/>
<path d="M38 69h2v1h-2v-1z" fill="rgb(74,32,82)"/>
<path d="M66 69h1v1h-1v-1z" fill="rgb(16,16,16)"/>
<path d="M32 70h1v3h-1v-3z" fill="rgb(74,32,82)"/>
<path d="M33 70h1v1h1v1h1v1h-2v-1h-1v-2z" fill="rgb(123,82,131)"/>
<path d="M34 70h1v1h-1v-1z" fill="rgb(74,32,82)"/>
<path d="M35 70h1v1h-1v-1z" fill="rgb(123,82,131)"/>
<path d="M40 70h1v2h-1v-2z" fill="rgb(74,32,82)"/>
<path d="M47 70h1v2h-1v-2z" fill="rgb(74,32,82)"/>
<path d="M60 70h2v1h-2v-1z" fill="rgb(16,16,16)"/>
<path d="M62 70h1v1h-1v-1z" fill="rgb(123,82,131)"/>
<path d="M67 70h1v2h-1v-2z" fill="rgb(16,16,16)"/>
<path d="M35 71h2v1h-2v-1z" fill="rgb(74,32,82)"/>
<path d="M37 71h1v1h-1v-1z" fill="rgb(123,82,131)"/>
<path d="M49 71h1v2h-2v-1h1v-1z" fill="rgb(172,123,189)"/>
<path d="M55 71h1v1h-1v-1z" fill="rgb(74,32,82)"/>
<path d="M56 71h1v1h-1v-1z" fill="rgb(16,16,16)"/>
<path d="M62 71h2v1h-2v-1z" fill="rgb(16,16,16)"/>
<path d="M64 71h1v1h-1v-1z" fill="rgb(123,82,131)"/>
<path d="M33 72h1v1h1v1h-1v2h-2v-3h1v-1z" fill="rgb(172,123,189)"/>
<path d="M36 72h2v1h-2v-1z" fill="rgb(16,16,16)"/>
<path d="M41 72h1v2h-1v-2z" fill="rgb(74,32,82)"/>
<path d="M47 72h1v1h-1v-1z" fill="rgb(16,16,16)"/>
<path d="M50 72h1v1h2v1h-3v-2z" fill="rgb(74,32,82)"/>
<path d="M54 72h1v1h-1v-1z" fill="rgb(74,32,82)"/>
<path d="M64 72h3v1h-3v-1z" fill="rgb(16,16,16)"/>
<path d="M31 73h1v2h-1v-2z" fill="rgb(74,32,82)"/>
<path d="M35 73h1v1h-1v-1z" fill="rgb(74,32,82)"/>
<path d="M38 73h1v1h-1v-1z" fill="rgb(74,32,82)"/>
<path d="M45 73h1v1h-1v-1z" fill="rgb(74,32,82)"/>
<path d="M46 73h1v1h-1v-1z" fill="rgb(16,16,16)"/>
<path d="M48 73h1v1h-1v-1z" fill="rgb(74,32,82)"/>
<path d="M49 73h1v1h-1v-1z" fill="rgb(123,82,131)"/>
<path d="M53 73h1v1h-1v-1z" fill="rgb(16,16,16)"/>
<path d="M34 74h1v1h-1v-1z" fill="rgb(123,82,131)"/>
<path d="M35 74h1v1h-1v-1z" fill="rgb(16,16,16)"/>
<path d="M39 74h1v1h-1v-1z" fill="rgb(74,32,82)"/>
<path d="M42 74h1v1h-1v-1z" fill="rgb(74,32,82)"/>
<path d="M43 74h3v1h-1v1h-1v-1h-1v-1z" fill="rgb(16,16,16)"/>
<path d="M49 74h1v1h-1v-1z" fill="rgb(74,32,82)"/>
<path d="M50 74h2v1h-2v-1z" fill="rgb(16,16,16)"/>
<path d="M31 75h1v1h-1v-1z" fill="rgb(16,16,16)"/>
<path d="M34 75h1v1h-1v-1z" fill="rgb(16,16,16)"/>
<path d="M39 75h1v1h-1v-1z" fill="rgb(16,16,16)"/>
<path d="M40 75h1v1h-1v-1z" fill="rgb(123,82,131)"/>
<path d="M32 76h2v1h-2v-1z" fill="rgb(16,16,16)"/>
<path d="M40 76h1v1h-1v-1z" fill="rgb(74,32,82)"/>
<path d="M41 76h2v1h-2v-1z" fill="rgb(16,16,16)"/>
<path d="M43 76h1v1h-1v-1z" fill="rgb(74,32,82)"/>
</svg>
