<?xml version="1.0" encoding="utf-8"?>
<!-- generated at drububu.com  -->
<!DOCTYPE svg PUBLIC "-//W3C//DTD SVG 1.1//EN" "http://www.w3.org/Graphics/SVG/1.1/DTD/svg11.dtd">
<svg version="1.1" preserveAspectRatio="xMinYMin meet" xmlns="http://www.w3.org/2000/svg" xmlns:xlink="http://www.w3.org/1999/xlink" x="0px" y="0px" width="96px" height="96px" viewBox="0 0 96 96">
<path d="M0 0h96v96h-96v-96z" fill="transparent"/>
<path d="M55 21h4v1h1v4h-1v1h-4v-1h-1v-4h1v-1z" fill="rgb(213,172,205)"/>
<path d="M57 23h2v2h-1v1h-2v-2h1v-1z" fill="rgb(189,148,180)"/>
<path d="M31 24h2v1h-2v-1z" fill="rgb(213,172,205)"/>
<path d="M30 25h1v2h-1v-2z" fill="rgb(213,172,205)"/>
<path d="M31 25h2v2h-2v-2z" fill="rgb(189,148,180)"/>
<path d="M33 25h1v2h-1v-2z" fill="rgb(213,172,205)"/>
<path d="M42 26h2v1h1v1h1v1h1v-1h1v1h1v1h1v1h1v-1h1v-1h4v1h2v1h2v1h-1v1h1v-1h1v1h1v1h1v3
	h1v1h1v1h1v-1h1v1h1v1h1v2h1v3h1v2h-2v1h-1v2h1v1h1v1h1v-1h1v2h1v2h1v2h-1v-1h-1
	v1h-3v1h-1v1h2v3h-1v1h-1v1h-1v-1h-1v1h-1v1h-1v-1h-2v-1h-2v1h-1v1h-1v2h-1v2h-1
	v-1h-1v1h-1v1h-1v1h-1v-1h-1v1h-1v-1h-3v-1h-2v-1h-1v-1h-1v-1h-3v1h-5v-1h-2v-1h-1
	v-1h-1v-1h1v-1h-1v1h-1v-4h-1v-2h-1v-1h-2v-1h-1v-3h1v-2h1v-3h1v-3h-1v-2h-1v-4h1
	v-2h1v-1h2v-1h3v-1h1v-1h1v-1h1v-1h1v-1h3v-2h2v-1z" fill="rgb(213,172,205)"/>
<path d="M45 26h1v1h-1v-1z" fill="rgb(213,172,205)"/>
<path d="M47 26h1v1h-1v-1z" fill="rgb(213,172,205)"/>
<path d="M68 26h2v2h-2v-2z" fill="rgb(213,172,205)"/>
<path d="M31 27h2v1h-2v-1z" fill="rgb(213,172,205)"/>
<path d="M45 27h1v1h-1v-1z" fill="transparent"/>
<path d="M46 27h1v1h-1v-1z" fill="rgb(213,172,205)"/>
<path d="M47 27h1v1h-1v-1z" fill="transparent"/>
<path d="M48 27h1v1h-1v-1z" fill="rgb(213,172,205)"/>
<path d="M46 28h1v1h-1v-1z" fill="transparent"/>
<path d="M48 28h1v1h-1v-1z" fill="transparent"/>
<path d="M49 28h1v1h-1v-1z" fill="rgb(213,172,205)"/>
<path d="M37 31h1v1h-1v-1z" fill="rgb(189,148,180)"/>
<path d="M40 31h6v1h-3v1h-3v1h-2v-2h2v-1z" fill="rgb(189,148,180)"/>
<path d="M61 31h1v1h-1v-1z" fill="rgb(213,172,205)"/>
<path d="M32 32h1v1h-1v-1z" fill="rgb(213,172,205)"/>
<path d="M43 32h4v1h2v1h1v1h2v-1h1v1h1v1h1v-1h1v1h2v1h1v2h-1v1h2v1h1v1h1v1h1v1h1v1h-1v1
	h1v1h-1v1h-1v1h1v1h-2v1h-1v2h-1v1h1v1h-1v1h1v1h-1v2h-2v1h-1v1h-1v-1h-1v1h1v3h-1
	v-1h-1v1h-1v-1h-1v-1h-1v1h-1v1h1v1h-1v1h-1v-1h-1v-1h-1v-1h-2v-1h-1v1h-1v-1h-3
	v-2h-1v2h-1v-1h-1v1h-1v-3h-2v-2h-1v-1h1v-2h-1v-1h-1v-1h-1v1h-1v-2h1v-2h1v-6h-1
	v-3h1v-1h1v-1h1v1h1v-1h1v-1h1v-1h1v-1h1v-1h2v-1h3v-1z" fill="rgb(139,98,131)"/>
<path d="M59 32h1v1h-1v-1z" fill="transparent"/>
<path d="M61 32h1v1h-1v-1z" fill="transparent"/>
<path d="M62 32h1v1h-1v-1z" fill="rgb(213,172,205)"/>
<path d="M34 33h1v1h-1v-1z" fill="transparent"/>
<path d="M35 33h1v1h-1v-1z" fill="rgb(139,98,131)"/>
<path d="M37 33h1v1h-1v-1z" fill="rgb(139,98,131)"/>
<path d="M49 33h2v1h1v1h-2v-1h-1v-1z" fill="rgb(189,148,180)"/>
<path d="M51 33h1v1h-1v-1z" fill="rgb(139,98,131)"/>
<path d="M53 33h1v1h-1v-1z" fill="rgb(139,98,131)"/>
<path d="M55 33h1v1h-1v-1z" fill="rgb(139,98,131)"/>
<path d="M56 33h2v1h2v1h1v1h1v3h-1v1h1v1h1v-1h1v1h1v1h1v1h-2v1h-1v-1h-1v-1h-1v-1h-1v-1
	h-2v-1h1v-2h-1v-1h-2v-1h1v-1h-1v-1z" fill="rgb(189,148,180)"/>
<path d="M62 33h1v1h-1v-1z" fill="transparent"/>
<path d="M63 33h1v1h-1v-1z" fill="rgb(213,172,205)"/>
<path d="M17 34h2v1h1v2h-1v1h-2v-1h-1v-2h1v-1z" fill="rgb(213,172,205)"/>
<path d="M34 34h1v1h-1v-1z" fill="rgb(139,98,131)"/>
<path d="M35 34h1v1h-1v-1z" fill="rgb(213,172,205)"/>
<path d="M36 34h1v1h-1v-1z" fill="rgb(139,98,131)"/>
<path d="M37 34h1v1h-1v-1z" fill="rgb(189,148,180)"/>
<path d="M53 34h1v1h-1v-1z" fill="rgb(213,172,205)"/>
<path d="M54 34h1v1h-1v-1z" fill="rgb(139,98,131)"/>
<path d="M55 34h1v1h-1v-1z" fill="rgb(189,148,180)"/>
<path d="M56 34h1v1h-1v-1z" fill="rgb(139,98,131)"/>
<path d="M68 34h2v1h-2v-1z" fill="rgb(213,172,205)"/>
<path d="M35 35h1v1h-1v-1z" fill="rgb(139,98,131)"/>
<path d="M36 35h1v1h-1v-1z" fill="rgb(189,148,180)"/>
<path d="M42 35h7v1h-7v-1z" fill="rgb(57,41,57)"/>
<path d="M54 35h1v1h-1v-1z" fill="rgb(189,148,180)"/>
<path d="M67 35h1v2h-1v-2z" fill="rgb(213,172,205)"/>
<path d="M68 35h2v2h-2v-2z" fill="rgb(189,148,180)"/>
<path d="M70 35h1v2h-1v-2z" fill="rgb(213,172,205)"/>
<path d="M32 36h1v1h-1v-1z" fill="rgb(139,98,131)"/>
<path d="M33 36h1v1h-1v-1z" fill="rgb(189,148,180)"/>
<path d="M34 36h1v1h-1v-1z" fill="rgb(139,98,131)"/>
<path d="M35 36h1v1h-1v-1z" fill="rgb(189,148,180)"/>
<path d="M40 36h3v1h-3v-1z" fill="rgb(16,16,16)"/>
<path d="M43 36h2v1h-1v1h-1v-2z" fill="rgb(115,74,106)"/>
<path d="M45 36h4v1h1v1h1v2h-1v1h-5v-1h-1v-1h1v-1h-1v-1h1v-1z" fill="rgb(139,98,131)"/>
<path d="M49 36h3v1h1v1h1v1h1v1h1v2h1v3h1v6h-1v3h-1v2h-1v1h-1v1h-2v1h-3v-1h1v-1h-3v1h-1
	v-1h-5v-1h-3v-1h-2v-1h4v-1h1v-1h-1v-2h1v-3h-3v-2h-1v-2h-1v-1h-2v-1h2v-1h1v-1h1
	v-1h2v2h1v1h2v1h6v-1h2v-1h1v-2h-1v-1h-2v-1z" fill="rgb(57,41,57)"/>
<path d="M30 37h1v1h1v1h-1v1h-1v3h1v6h-1v-5h-1v-5h1v-2z" fill="rgb(189,148,180)"/>
<path d="M31 37h1v1h-1v-1z" fill="rgb(139,98,131)"/>
<path d="M32 37h1v1h-1v-1z" fill="rgb(189,148,180)"/>
<path d="M33 37h1v1h-1v-1z" fill="rgb(139,98,131)"/>
<path d="M34 37h1v1h-1v-1z" fill="rgb(189,148,180)"/>
<path d="M38 37h2v1h-2v-1z" fill="rgb(16,16,16)"/>
<path d="M40 37h1v1h-1v-1z" fill="rgb(57,41,57)"/>
<path d="M41 37h1v1h1v1h-1v1h1v-1h1v1h1v1h4v1h-6v-1h-2v-1h-1v-2h1v-1z" fill="rgb(115,74,106)"/>
<path d="M42 37h1v1h-1v-1z" fill="rgb(139,98,131)"/>
<path d="M50 37h1v1h-1v-1z" fill="rgb(115,74,106)"/>
<path d="M53 37h1v1h-1v-1z" fill="rgb(16,16,16)"/>
<path d="M68 37h2v1h-1v1h-1v-2z" fill="rgb(213,172,205)"/>
<path d="M33 38h1v1h-1v-1z" fill="rgb(189,148,180)"/>
<path d="M37 38h1v1h-1v-1z" fill="rgb(16,16,16)"/>
<path d="M43 38h1v1h-1v-1z" fill="rgb(139,98,131)"/>
<path d="M44 38h1v1h-1v-1z" fill="rgb(115,74,106)"/>
<path d="M51 38h1v2h-1v-2z" fill="rgb(115,74,106)"/>
<path d="M54 38h1v1h-1v-1z" fill="rgb(16,16,16)"/>
<path d="M36 39h1v1h-1v-1z" fill="rgb(16,16,16)"/>
<path d="M42 39h1v1h-1v-1z" fill="rgb(139,98,131)"/>
<path d="M55 39h1v1h-1v-1z" fill="rgb(16,16,16)"/>
<path d="M68 39h1v1h-1v-1z" fill="transparent"/>
<path d="M69 39h1v1h-1v-1z" fill="rgb(213,172,205)"/>
<path d="M19 40h3v1h1v4h-1v1h-3v-1h-1v-4h1v-1z" fill="rgb(213,172,205)"/>
<path d="M50 40h1v1h-1v-1z" fill="rgb(115,74,106)"/>
<path d="M56 40h1v2h-1v-2z" fill="rgb(16,16,16)"/>
<path d="M52 41h2v1h-2v-1z" fill="rgb(16,16,16)"/>
<path d="M20 42h2v2h-2v-2z" fill="rgb(189,148,180)"/>
<path d="M33 42h1v2h-1v-2z" fill="rgb(16,16,16)"/>
<path d="M34 42h1v1h-1v-1z" fill="rgb(213,172,205)"/>
<path d="M35 42h1v2h1v2h1v2h1v2h1v2h-2v-1h-1v1h-2v-1h-1v-2h-1v-4h1v-2h1v-1z" fill="rgb(255,255,255)"/>
<path d="M51 42h1v1h-1v-1z" fill="rgb(16,16,16)"/>
<path d="M52 42h1v1h-1v-1z" fill="rgb(189,148,180)"/>
<path d="M53 42h1v1h-1v-1z" fill="rgb(222,222,222)"/>
<path d="M57 42h1v3h-1v-3z" fill="rgb(16,16,16)"/>
<path d="M36 43h1v1h-1v-1z" fill="rgb(213,172,205)"/>
<path d="M50 43h1v1h-1v-1z" fill="rgb(16,16,16)"/>
<path d="M51 43h1v1h-1v-1z" fill="rgb(189,148,180)"/>
<path d="M52 43h2v2h1v2h1v2h-1v2h-1v1h-1v1h-2v1h-5v-1h-1v-1h-1v-1h1v-1h1v-2h1v-1h1v-1h2
	v-1h1v-1h1v-1z" fill="rgb(255,255,255)"/>
<path d="M54 43h1v1h-1v-1z" fill="rgb(189,148,180)"/>
<path d="M64 43h1v1h-1v-1z" fill="rgb(139,98,131)"/>
<path d="M65 43h1v1h-1v-1z" fill="rgb(213,172,205)"/>
<path d="M66 43h1v1h-1v-1z" fill="rgb(189,148,180)"/>
<path d="M32 44h1v4h-1v-4z" fill="rgb(57,41,57)"/>
<path d="M33 44h1v1h-1v-1z" fill="rgb(213,172,205)"/>
<path d="M49 44h1v1h-1v-1z" fill="rgb(16,16,16)"/>
<path d="M50 44h1v1h-1v-1z" fill="rgb(189,148,180)"/>
<path d="M54 44h1v1h-1v-1z" fill="rgb(222,222,222)"/>
<path d="M64 44h2v1h-2v-1z" fill="rgb(189,148,180)"/>
<path d="M37 45h1v1h-1v-1z" fill="rgb(213,172,205)"/>
<path d="M48 45h1v1h-1v-1z" fill="rgb(16,16,16)"/>
<path d="M49 45h1v1h-1v-1z" fill="rgb(222,222,222)"/>
<path d="M55 45h1v1h-1v-1z" fill="rgb(189,148,180)"/>
<path d="M58 45h1v6h-1v-6z" fill="rgb(16,16,16)"/>
<path d="M63 45h1v1h-1v-1z" fill="rgb(189,148,180)"/>
<path d="M64 45h1v1h-1v-1z" fill="rgb(139,98,131)"/>
<path d="M65 45h1v1h-1v-1z" fill="rgb(213,172,205)"/>
<path d="M66 45h1v1h-1v-1z" fill="rgb(189,148,180)"/>
<path d="M74 45h3v1h1v1h1v3h-1v1h-1v1h-3v-1h-1v-1h-1v-3h1v-1h1v-1z" fill="rgb(213,172,205)"/>
<path d="M47 46h1v1h-1v-1z" fill="rgb(16,16,16)"/>
<path d="M55 46h1v1h-1v-1z" fill="rgb(222,222,222)"/>
<path d="M64 46h2v2h-1v-1h-1v-1z" fill="rgb(189,148,180)"/>
<path d="M38 47h1v1h-1v-1z" fill="rgb(213,172,205)"/>
<path d="M39 47h1v2h-1v-2z" fill="rgb(16,16,16)"/>
<path d="M40 47h1v3h-1v-3z" fill="rgb(180,41,16)"/>
<path d="M44 47h1v1h-1v-1z" fill="rgb(180,41,16)"/>
<path d="M46 47h1v1h-1v-1z" fill="rgb(16,16,16)"/>
<path d="M63 47h1v1h-1v-1z" fill="rgb(189,148,180)"/>
<path d="M64 47h1v1h-1v-1z" fill="rgb(139,98,131)"/>
<path d="M75 47h2v2h-1v1h-2v-2h1v-1z" fill="rgb(189,148,180)"/>
<path d="M32 48h1v2h-1v-2z" fill="rgb(16,16,16)"/>
<path d="M43 48h1v3h-1v-3z" fill="rgb(180,41,16)"/>
<path d="M44 48h1v1h-1v-1z" fill="rgb(57,41,57)"/>
<path d="M45 48h1v1h-1v-1z" fill="rgb(16,16,16)"/>
<path d="M62 48h1v1h-1v-1z" fill="rgb(189,148,180)"/>
<path d="M63 48h1v1h-1v-1z" fill="rgb(139,98,131)"/>
<path d="M64 48h1v2h1v1h-1v1h-1v2h1v2h1v1h1v1h-1v1h-1v-1h-1v-1h-1v1h1v1h-1v1h-1v-1h-1v2
	h-1v1h-2v1h-1v2h-1v1h-1v1h-2v1h-4v-1h-2v-1h-2v-1h-1v-1h-2v-1h1v-1h1v1h2v1h1v1h1
	v1h1v-1h1v1h1v-1h1v1h1v-1h1v-1h1v-3h1v-1h1v-1h2v-2h1v-1h1v-1h-1v-1h1v-1h-1v-2
	h1v-1h2v-1h1v-1z" fill="rgb(189,148,180)"/>
<path d="M29 49h1v2h-1v-2z" fill="rgb(189,148,180)"/>
<path d="M33 49h1v1h-1v-1z" fill="rgb(222,222,222)"/>
<path d="M39 49h1v1h-1v-1z" fill="rgb(213,172,205)"/>
<path d="M44 49h1v2h-1v-2z" fill="rgb(16,16,16)"/>
<path d="M45 49h1v1h-1v-1z" fill="rgb(189,148,180)"/>
<path d="M55 49h1v1h-1v-1z" fill="rgb(222,222,222)"/>
<path d="M66 49h1v1h-1v-1z" fill="rgb(189,148,180)"/>
<path d="M69 49h1v1h-1v-1z" fill="rgb(213,172,205)"/>
<path d="M33 50h1v2h-1v-2z" fill="rgb(16,16,16)"/>
<path d="M69 50h1v1h-1v-1z" fill="transparent"/>
<path d="M70 50h1v1h-1v-1z" fill="rgb(213,172,205)"/>
<path d="M34 51h1v1h-1v-1z" fill="rgb(222,222,222)"/>
<path d="M37 51h1v1h-1v-1z" fill="rgb(115,74,106)"/>
<path d="M46 51h1v1h-1v-1z" fill="rgb(115,74,106)"/>
<path d="M54 51h1v1h-1v-1z" fill="rgb(222,222,222)"/>
<path d="M57 51h1v3h-1v-3z" fill="rgb(16,16,16)"/>
<path d="M65 51h1v1h-1v-1z" fill="rgb(213,172,205)"/>
<path d="M66 51h1v1h-1v-1z" fill="rgb(189,148,180)"/>
<path d="M70 51h1v1h-1v-1z" fill="transparent"/>
<path d="M28 52h1v1h1v1h1v1h1v-1h1v2h-3v-1h-2v-3z" fill="rgb(189,148,180)"/>
<path d="M30 52h1v1h-1v-1z" fill="rgb(189,148,180)"/>
<path d="M34 52h1v1h-1v-1z" fill="rgb(16,16,16)"/>
<path d="M35 52h2v1h1v1h-2v-1h-1v-1z" fill="rgb(222,222,222)"/>
<path d="M37 52h1v1h-1v-1z" fill="rgb(57,41,57)"/>
<path d="M38 52h1v1h-1v-1z" fill="rgb(222,222,222)"/>
<path d="M39 52h1v1h-1v-1z" fill="rgb(213,172,205)"/>
<path d="M40 52h1v1h-1v-1z" fill="rgb(180,41,16)"/>
<path d="M43 52h1v1h-1v-1z" fill="rgb(180,41,16)"/>
<path d="M44 52h1v1h-1v-1z" fill="rgb(222,222,222)"/>
<path d="M46 52h1v1h-1v-1z" fill="rgb(57,41,57)"/>
<path d="M53 52h1v2h-2v1h-2v1h-2v-1h-2v-1h5v-1h2v-1z" fill="rgb(222,222,222)"/>
<path d="M54 52h1v1h-1v-1z" fill="rgb(189,148,180)"/>
<path d="M65 52h1v1h-1v-1z" fill="rgb(189,148,180)"/>
<path d="M67 52h1v1h-1v-1z" fill="rgb(189,148,180)"/>
<path d="M30 53h1v1h-1v-1z" fill="rgb(139,98,131)"/>
<path d="M31 53h1v1h-1v-1z" fill="rgb(189,148,180)"/>
<path d="M35 53h1v1h-1v-1z" fill="rgb(57,41,57)"/>
<path d="M38 53h1v1h-1v-1z" fill="rgb(189,148,180)"/>
<path d="M39 53h1v1h-1v-1z" fill="rgb(180,41,16)"/>
<path d="M44 53h1v1h-1v-1z" fill="rgb(180,41,16)"/>
<path d="M45 53h1v1h-1v-1z" fill="rgb(222,222,222)"/>
<path d="M59 53h1v1h-1v-1z" fill="rgb(189,148,180)"/>
<path d="M60 53h1v1h-1v-1z" fill="rgb(139,98,131)"/>
<path d="M69 53h1v1h-1v-1z" fill="transparent"/>
<path d="M31 54h1v1h-1v-1z" fill="rgb(139,98,131)"/>
<path d="M35 54h1v3h1v1h-2v-4z" fill="rgb(16,16,16)"/>
<path d="M45 54h1v1h-1v-1z" fill="rgb(189,148,180)"/>
<path d="M52 54h1v1h-1v-1z" fill="rgb(189,148,180)"/>
<path d="M56 54h1v2h-1v-2z" fill="rgb(16,16,16)"/>
<path d="M68 54h1v1h-1v-1z" fill="transparent"/>
<path d="M69 54h1v1h-1v-1z" fill="rgb(213,172,205)"/>
<path d="M70 54h1v1h-1v-1z" fill="transparent"/>
<path d="M74 54h2v1h-2v-1z" fill="rgb(213,172,205)"/>
<path d="M36 55h2v1h-2v-1z" fill="rgb(222,222,222)"/>
<path d="M47 55h1v1h-1v-1z" fill="rgb(189,148,180)"/>
<path d="M50 55h1v1h-1v-1z" fill="rgb(189,148,180)"/>
<path d="M59 55h1v1h-1v-1z" fill="rgb(189,148,180)"/>
<path d="M60 55h1v1h-1v-1z" fill="rgb(139,98,131)"/>
<path d="M69 55h1v1h-1v-1z" fill="transparent"/>
<path d="M74 55h2v2h-2v-2z" fill="rgb(189,148,180)"/>
<path d="M76 55h1v2h-1v-2z" fill="rgb(213,172,205)"/>
<path d="M36 56h1v1h-1v-1z" fill="rgb(255,255,255)"/>
<path d="M37 56h2v1h-2v-1z" fill="rgb(16,16,16)"/>
<path d="M39 56h2v1h2v1h-3v-1h-1v-1z" fill="rgb(180,41,16)"/>
<path d="M55 56h1v1h-1v-1z" fill="rgb(16,16,16)"/>
<path d="M32 57h1v1h-1v-1z" fill="rgb(189,148,180)"/>
<path d="M38 57h1v1h-1v-1z" fill="rgb(57,41,57)"/>
<path d="M39 57h1v1h-1v-1z" fill="rgb(16,16,16)"/>
<path d="M43 57h3v1h1v1h-4v-2z" fill="rgb(222,82,57)"/>
<path d="M47 57h1v1h-1v-1z" fill="rgb(255,255,255)"/>
<path d="M48 57h1v1h-1v-1z" fill="rgb(222,222,222)"/>
<path d="M49 57h1v1h-1v-1z" fill="rgb(222,82,57)"/>
<path d="M54 57h1v1h-1v-1z" fill="rgb(16,16,16)"/>
<path d="M63 57h1v1h-1v-1z" fill="rgb(213,172,205)"/>
<path d="M74 57h2v1h-2v-1z" fill="rgb(213,172,205)"/>
<path d="M39 58h4v1h4v1h-6v-1h-2v-1z" fill="rgb(57,41,57)"/>
<path d="M47 58h1v2h1v1h-5v-1h3v-2z" fill="rgb(16,16,16)"/>
<path d="M48 58h1v1h-1v-1z" fill="rgb(255,255,255)"/>
<path d="M52 58h2v1h-2v-1z" fill="rgb(16,16,16)"/>
<path d="M64 58h1v1h-1v-1z" fill="rgb(213,172,205)"/>
<path d="M33 59h2v3h1v1h1v-1h1v2h-1v1h-1v-1h-2v-3h-1v-2z" fill="rgb(189,148,180)"/>
<path d="M48 59h1v1h-1v-1z" fill="rgb(57,41,57)"/>
<path d="M49 59h3v1h-3v-1z" fill="rgb(16,16,16)"/>
<path d="M64 59h1v1h-1v-1z" fill="rgb(189,148,180)"/>
<path d="M66 59h1v1h-1v-1z" fill="rgb(189,148,180)"/>
<path d="M38 60h1v2h-1v-2z" fill="rgb(189,148,180)"/>
<path d="M54 60h1v1h-1v-1z" fill="rgb(189,148,180)"/>
<path d="M36 61h1v1h-1v-1z" fill="rgb(189,148,180)"/>
<path d="M56 61h1v1h-1v-1z" fill="rgb(139,98,131)"/>
<path d="M31 62h1v1h-1v-1z" fill="transparent"/>
<path d="M36 62h1v1h-1v-1z" fill="rgb(139,98,131)"/>
<path d="M38 62h1v1h-1v-1z" fill="rgb(139,98,131)"/>
<path d="M39 62h1v1h-1v-1z" fill="rgb(213,172,205)"/>
<path d="M40 62h2v1h-2v-1z" fill="rgb(189,148,180)"/>
<path d="M50 62h1v1h-1v-1z" fill="rgb(189,148,180)"/>
<path d="M38 63h1v1h-1v-1z" fill="rgb(213,172,205)"/>
<path d="M39 63h1v1h-1v-1z" fill="rgb(189,148,180)"/>
<path d="M49 63h1v1h-1v-1z" fill="rgb(189,148,180)"/>
<path d="M50 63h1v1h-1v-1z" fill="rgb(139,98,131)"/>
<path d="M51 63h1v1h-1v-1z" fill="rgb(189,148,180)"/>
<path d="M53 63h1v1h-1v-1z" fill="rgb(189,148,180)"/>
<path d="M66 63h1v1h-1v-1z" fill="transparent"/>
<path d="M68 63h1v1h-1v-1z" fill="transparent"/>
<path d="M69 63h1v1h-1v-1z" fill="rgb(213,172,205)"/>
<path d="M30 64h1v1h-1v-1z" fill="rgb(213,172,205)"/>
<path d="M31 64h1v1h-1v-1z" fill="transparent"/>
<path d="M38 64h1v1h-1v-1z" fill="rgb(189,148,180)"/>
<path d="M50 64h1v1h-1v-1z" fill="rgb(189,148,180)"/>
<path d="M51 64h1v1h-1v-1z" fill="rgb(139,98,131)"/>
<path d="M52 64h1v1h-1v-1z" fill="rgb(189,148,180)"/>
<path d="M53 64h1v1h-1v-1z" fill="rgb(139,98,131)"/>
<path d="M66 64h1v1h-1v-1z" fill="rgb(213,172,205)"/>
<path d="M67 64h1v1h-1v-1z" fill="transparent"/>
<path d="M68 64h1v1h-1v-1z" fill="rgb(213,172,205)"/>
<path d="M31 65h1v1h-1v-1z" fill="rgb(213,172,205)"/>
<path d="M50 65h1v1h-1v-1z" fill="rgb(139,98,131)"/>
<path d="M52 65h1v1h-1v-1z" fill="rgb(139,98,131)"/>
<path d="M67 65h1v1h-1v-1z" fill="rgb(213,172,205)"/>
<path d="M74 66h3v1h2v1h1v2h1v2h-1v2h-1v1h-1v1h-5v-1h-1v-1h-1v-2h-1v-2h1v-2h1v-1h2v-1z" fill="rgb(213,172,205)"/>
<path d="M32 67h2v1h1v2h-1v1h-2v-1h-1v-2h1v-1z" fill="rgb(213,172,205)"/>
<path d="M55 68h1v1h-1v-1z" fill="transparent"/>
<path d="M54 69h1v1h-1v-1z" fill="transparent"/>
<path d="M55 69h1v1h-1v-1z" fill="rgb(213,172,205)"/>
<path d="M56 69h1v1h-1v-1z" fill="transparent"/>
<path d="M57 69h1v1h-1v-1z" fill="rgb(213,172,205)"/>
<path d="M61 69h3v1h1v3h-1v1h-3v-1h-1v-3h1v-1z" fill="rgb(213,172,205)"/>
<path d="M74 69h3v1h1v3h-1v1h-3v-1h-1v-3h1v-1z" fill="rgb(189,148,180)"/>
<path d="M53 70h1v1h-1v-1z" fill="transparent"/>
<path d="M54 70h1v1h-1v-1z" fill="rgb(213,172,205)"/>
<path d="M55 70h1v1h-1v-1z" fill="transparent"/>
<path d="M56 70h1v1h-1v-1z" fill="rgb(213,172,205)"/>
<path d="M62 70h1v1h1v1h-1v1h-1v-1h-1v-1h1v-1z" fill="rgb(189,148,180)"/>
<path d="M53 71h1v1h-1v-1z" fill="rgb(213,172,205)"/>
<path d="M55 71h1v1h-1v-1z" fill="rgb(213,172,205)"/>
</svg>
