<?xml version="1.0" encoding="utf-8"?>
<!-- generated at drububu.com  -->
<!DOCTYPE svg PUBLIC "-//W3C//DTD SVG 1.1//EN" "http://www.w3.org/Graphics/SVG/1.1/DTD/svg11.dtd">
<svg version="1.1" preserveAspectRatio="xMinYMin meet" xmlns="http://www.w3.org/2000/svg" xmlns:xlink="http://www.w3.org/1999/xlink" x="0px" y="0px" width="96px" height="96px" viewBox="0 0 96 96">
<path d="M0 0h96v96h-96v-96z" fill="transparent"/>
<path d="M34 21h1v1h-1v-1z" fill="rgb(131,90,106)"/>
<path d="M67 21h1v1h-1v-1z" fill="rgb(131,90,106)"/>
<path d="M68 21h2v2h-1v-1h-1v-1z" fill="rgb(82,65,98)"/>
<path d="M33 22h1v4h-1v-4z" fill="rgb(131,90,106)"/>
<path d="M34 22h1v1h-1v-1z" fill="rgb(172,106,205)"/>
<path d="M35 22h1v1h-1v-1z" fill="rgb(131,90,106)"/>
<path d="M64 22h2v1h-2v-1z" fill="rgb(131,90,106)"/>
<path d="M66 22h1v1h-1v-1z" fill="rgb(82,65,98)"/>
<path d="M67 22h1v1h-1v-1z" fill="rgb(172,106,205)"/>
<path d="M68 22h1v2h-1v2h-1v2h-1v2h-1v2h-1v1h-1v1h-1v2h-1v2h1v-2h4v1h-1v1h-1v1h1v-1h4v1
	h-1v1h-1v1h3v1h-1v1h-1v1h-1v1h-2v-1h-1v-1h-3v1h-2v1h-2v1h-1v1h-1v-1h-1v1h-1v1
	h-1v1h-3v2h-2v-1h-1v-1h2v-3h1v-1h1v-5h1v-1h-2v-1h2v-1h1v-1h1v-1h1v-1h1v-1h1v2h1
	v-1h2v-1h1v-1h1v-2h1v-1h-1v-1h1v-1h2v-1h1v-1h1v-1h1v-1h1v-1z" fill="rgb(131,90,106)"/>
<path d="M34 23h1v3h1v3h1v2h1v1h-2v2h-1v4h1v-2h1v4h1v-1h1v2h1v-1h1v-2h1v-1h1v-2h1v3h1v-2
	h1v-1h1v-2h1v-1h1v-1h2v-1h1v-1h1v1h2v-1h1v-1h1v-1h2v-1h1v-1h1v-1h3v-1h2v1h-1v1
	h-1v1h-1v1h-1v1h-1v1h-1v1h-1v1h-1v1h-2v1h-2v1h-1v1h-1v1h-1v2h-2v1h-2v1h-2v1h-2
	v1h-1v1h-2v1h-1v1h-4v-1h-1v-1h-1v-1h-1v-1h-1v-1h-1v-2h1v-2h1v-4h1v-5h1v-4z" fill="rgb(197,139,205)"/>
<path d="M35 23h1v1h1v1h1v2h1v1h1v2h-1v1h-2v-2h-1v-3h-1v-3z" fill="rgb(172,106,205)"/>
<path d="M36 23h1v1h-1v-1z" fill="rgb(131,90,106)"/>
<path d="M61 23h1v1h-1v-1z" fill="rgb(131,90,106)"/>
<path d="M62 23h2v1h-2v-1z" fill="rgb(82,65,98)"/>
<path d="M66 23h1v1h-1v-1z" fill="rgb(172,106,205)"/>
<path d="M69 23h1v1h-1v-1z" fill="rgb(16,16,16)"/>
<path d="M37 24h1v1h-1v-1z" fill="rgb(82,65,98)"/>
<path d="M58 24h1v1h-1v-1z" fill="rgb(131,90,106)"/>
<path d="M59 24h2v1h-2v-1z" fill="rgb(82,65,98)"/>
<path d="M65 24h1v1h-1v-1z" fill="rgb(172,106,205)"/>
<path d="M68 24h1v2h-1v-2z" fill="rgb(16,16,16)"/>
<path d="M38 25h1v2h-1v-2z" fill="rgb(82,65,98)"/>
<path d="M56 25h2v1h-2v-1z" fill="rgb(131,90,106)"/>
<path d="M58 25h2v1h-1v1h-2v1h-1v1h-1v1h-2v-1h1v-2h2v-1h2v-1z" fill="rgb(172,106,205)"/>
<path d="M64 25h1v1h-1v-1z" fill="rgb(172,106,205)"/>
<path d="M32 26h1v1h-1v-1z" fill="rgb(131,90,106)"/>
<path d="M33 26h1v1h-1v-1z" fill="rgb(172,106,205)"/>
<path d="M54 26h2v1h-2v-1z" fill="rgb(131,90,106)"/>
<path d="M63 26h1v1h-1v-1z" fill="rgb(172,106,205)"/>
<path d="M67 26h1v1h-1v-1z" fill="rgb(16,16,16)"/>
<path d="M32 27h1v5h-1v4h-1v-5h1v-4z" fill="rgb(82,65,98)"/>
<path d="M39 27h1v1h-1v-1z" fill="rgb(82,65,98)"/>
<path d="M52 27h2v1h-2v-1z" fill="rgb(131,90,106)"/>
<path d="M40 28h1v1h-1v-1z" fill="rgb(82,65,98)"/>
<path d="M43 28h1v1h-1v-1z" fill="rgb(131,90,106)"/>
<path d="M44 28h4v1h-4v-1z" fill="rgb(82,65,98)"/>
<path d="M50 28h2v1h-2v-1z" fill="rgb(131,90,106)"/>
<path d="M52 28h1v1h-1v-1z" fill="rgb(172,106,205)"/>
<path d="M53 28h1v1h-1v-1z" fill="rgb(197,139,205)"/>
<path d="M66 28h1v1h-1v-1z" fill="rgb(16,16,16)"/>
<path d="M40 29h1v1h-1v-1z" fill="rgb(16,16,16)"/>
<path d="M41 29h2v1h-2v-1z" fill="rgb(82,65,98)"/>
<path d="M43 29h5v1h2v-1h2v1h-1v1h-2v1h-1v1h-1v2h-1v1h-1v2h-1v-3h-1v2h-1v1h-1v2h-1v1h-1
	v-2h-1v1h-1v-4h-1v2h-1v-4h1v-2h3v-1h1v-1h3v-1z" fill="rgb(172,106,205)"/>
<path d="M48 29h2v1h-2v-1z" fill="rgb(82,65,98)"/>
<path d="M60 29h1v1h-1v-1z" fill="rgb(131,90,106)"/>
<path d="M61 29h1v1h-1v-1z" fill="rgb(172,106,205)"/>
<path d="M39 30h1v1h-1v-1z" fill="rgb(82,65,98)"/>
<path d="M59 30h1v1h-1v-1z" fill="rgb(131,90,106)"/>
<path d="M60 30h1v2h-1v1h-1v1h-2v1h-1v-3h2v-1h2v-1z" fill="rgb(172,106,205)"/>
<path d="M38 31h1v1h-1v-1z" fill="rgb(131,90,106)"/>
<path d="M54 33h1v1h-1v-1z" fill="rgb(172,106,205)"/>
<path d="M63 33h1v1h-1v-1z" fill="rgb(16,16,16)"/>
<path d="M26 34h3v1h-3v-1z" fill="rgb(82,65,98)"/>
<path d="M53 34h1v1h-1v-1z" fill="rgb(172,106,205)"/>
<path d="M62 34h1v2h-1v-2z" fill="rgb(16,16,16)"/>
<path d="M68 34h6v1h-6v-1z" fill="rgb(82,65,98)"/>
<path d="M26 35h1v1h-1v-1z" fill="rgb(16,16,16)"/>
<path d="M27 35h2v1h1v1h-2v-1h-1v-1z" fill="rgb(172,106,205)"/>
<path d="M29 35h1v1h-1v-1z" fill="rgb(82,65,98)"/>
<path d="M30 35h1v3h-1v-3z" fill="rgb(16,16,16)"/>
<path d="M52 35h1v1h-1v-1z" fill="rgb(172,106,205)"/>
<path d="M55 35h1v1h-1v-1z" fill="rgb(172,106,205)"/>
<path d="M63 35h1v1h-1v-1z" fill="rgb(82,65,98)"/>
<path d="M64 35h2v1h-2v-1z" fill="rgb(16,16,16)"/>
<path d="M66 35h2v1h-2v-1z" fill="rgb(82,65,98)"/>
<path d="M68 35h1v1h-1v-1z" fill="rgb(131,90,106)"/>
<path d="M69 35h3v1h-1v1h-2v1h-4v-1h1v-1h3v-1z" fill="rgb(172,106,205)"/>
<path d="M72 35h1v1h-1v-1z" fill="rgb(131,90,106)"/>
<path d="M73 35h1v1h-1v-1z" fill="rgb(16,16,16)"/>
<path d="M27 36h1v1h-1v-1z" fill="rgb(16,16,16)"/>
<path d="M51 36h1v1h-1v-1z" fill="rgb(172,106,205)"/>
<path d="M61 36h1v1h-1v-1z" fill="rgb(16,16,16)"/>
<path d="M71 36h1v1h-1v-1z" fill="rgb(131,90,106)"/>
<path d="M72 36h1v1h-1v-1z" fill="rgb(16,16,16)"/>
<path d="M27 37h2v1h-2v-1z" fill="rgb(82,65,98)"/>
<path d="M29 37h1v1h-1v-1z" fill="rgb(131,90,106)"/>
<path d="M61 37h1v1h-1v-1z" fill="rgb(82,65,98)"/>
<path d="M69 37h2v1h-2v-1z" fill="rgb(131,90,106)"/>
<path d="M71 37h1v1h-1v-1z" fill="rgb(16,16,16)"/>
<path d="M28 38h2v2h-1v-1h-1v-1z" fill="rgb(16,16,16)"/>
<path d="M64 38h1v1h-1v-1z" fill="rgb(172,106,205)"/>
<path d="M69 38h1v1h-1v-1z" fill="rgb(16,16,16)"/>
<path d="M47 39h1v1h-1v-1z" fill="rgb(131,90,106)"/>
<path d="M48 39h3v1h-3v-1z" fill="rgb(82,65,98)"/>
<path d="M68 39h1v1h-1v-1z" fill="rgb(16,16,16)"/>
<path d="M30 40h1v6h-1v-6z" fill="rgb(82,65,98)"/>
<path d="M45 40h2v1h-1v1h-1v1h-1v1h-2v1h-1v1h-5v-1h3v-1h1v-1h2v-1h1v-1h2v-1z" fill="rgb(172,106,205)"/>
<path d="M47 40h1v1h-1v-1z" fill="rgb(82,65,98)"/>
<path d="M48 40h1v1h-1v-1z" fill="rgb(213,213,213)"/>
<path d="M49 40h1v2h-1v-2z" fill="rgb(16,16,16)"/>
<path d="M67 40h1v1h-1v-1z" fill="rgb(16,16,16)"/>
<path d="M68 40h3v2h-1v-1h-2v-1z" fill="rgb(82,65,98)"/>
<path d="M31 41h1v1h-1v-1z" fill="rgb(131,90,106)"/>
<path d="M46 41h1v1h-1v-1z" fill="rgb(82,65,98)"/>
<path d="M47 41h1v1h-1v-1z" fill="rgb(213,213,213)"/>
<path d="M48 41h1v4h-1v1h-3v-2h1v-1h1v-1h1v-1z" fill="rgb(255,255,255)"/>
<path d="M31 42h1v1h1v2h-2v-3z" fill="rgb(255,255,255)"/>
<path d="M32 42h1v1h-1v-1z" fill="rgb(82,65,98)"/>
<path d="M45 42h1v1h-1v-1z" fill="rgb(82,65,98)"/>
<path d="M46 42h1v1h-1v-1z" fill="rgb(213,213,213)"/>
<path d="M49 42h1v3h-1v-3z" fill="rgb(82,65,98)"/>
<path d="M66 42h1v1h-1v-1z" fill="rgb(16,16,16)"/>
<path d="M69 42h1v1h-1v-1z" fill="rgb(82,65,98)"/>
<path d="M27 43h2v1h-2v-1z" fill="rgb(82,65,98)"/>
<path d="M29 43h1v3h-1v-1h-1v-1h1v-1z" fill="rgb(131,90,106)"/>
<path d="M33 43h1v1h-1v-1z" fill="rgb(82,65,98)"/>
<path d="M44 43h1v3h-1v-1h-1v-1h1v-1z" fill="rgb(16,16,16)"/>
<path d="M45 43h1v1h-1v-1z" fill="rgb(213,213,213)"/>
<path d="M61 43h3v1h-3v-1z" fill="rgb(180,24,24)"/>
<path d="M65 43h1v1h-1v-1z" fill="rgb(16,16,16)"/>
<path d="M68 43h1v1h-1v-1z" fill="rgb(16,16,16)"/>
<path d="M27 44h1v1h-1v-1z" fill="rgb(16,16,16)"/>
<path d="M33 44h1v2h-1v-2z" fill="rgb(16,16,16)"/>
<path d="M34 44h1v1h-1v-1z" fill="rgb(172,106,205)"/>
<path d="M42 44h1v1h-1v-1z" fill="rgb(131,90,106)"/>
<path d="M59 44h2v1h-2v-1z" fill="rgb(180,24,24)"/>
<path d="M61 44h3v1h-3v-1z" fill="rgb(82,65,98)"/>
<path d="M64 44h1v1h-1v-1z" fill="rgb(180,24,24)"/>
<path d="M67 44h1v2h-1v-2z" fill="rgb(16,16,16)"/>
<path d="M28 45h1v1h-1v-1z" fill="rgb(16,16,16)"/>
<path d="M31 45h2v1h1v1h-2v-1h-1v-1z" fill="rgb(213,213,213)"/>
<path d="M34 45h1v3h-3v-1h2v-2z" fill="rgb(82,65,98)"/>
<path d="M35 45h1v1h5v2h-6v-3z" fill="rgb(131,90,106)"/>
<path d="M41 45h1v1h-1v-1z" fill="rgb(131,90,106)"/>
<path d="M42 45h1v1h-1v-1z" fill="rgb(16,16,16)"/>
<path d="M43 45h1v1h-1v-1z" fill="rgb(213,213,213)"/>
<path d="M48 45h1v1h-1v-1z" fill="rgb(213,213,213)"/>
<path d="M57 45h1v1h-1v-1z" fill="rgb(222,74,49)"/>
<path d="M58 45h1v1h-1v-1z" fill="rgb(180,24,24)"/>
<path d="M59 45h2v1h-2v-1z" fill="rgb(82,65,98)"/>
<path d="M61 45h3v1h1v1h2v1h1v5h1v2h-1v1h-2v1h-2v-1h1v-1h1v-3h1v-3h-1v2h-1v-1h-2v-1h-1
	v-2h-1v1h-1v-1h-1v-1h2v-1z" fill="rgb(131,90,106)"/>
<path d="M64 45h1v1h-1v-1z" fill="rgb(82,65,98)"/>
<path d="M65 45h2v1h-2v-1z" fill="rgb(180,24,24)"/>
<path d="M29 46h1v1h-1v-1z" fill="rgb(16,16,16)"/>
<path d="M30 46h1v1h-1v-1z" fill="rgb(131,90,106)"/>
<path d="M31 46h1v1h-1v-1z" fill="rgb(82,65,98)"/>
<path d="M41 46h1v1h1v1h-2v-2z" fill="rgb(16,16,16)"/>
<path d="M42 46h1v1h-1v-1z" fill="rgb(213,213,213)"/>
<path d="M43 46h2v1h-2v-1z" fill="rgb(255,255,255)"/>
<path d="M45 46h1v1h-1v-1z" fill="rgb(213,213,213)"/>
<path d="M46 46h2v1h-2v-1z" fill="rgb(82,65,98)"/>
<path d="M54 46h1v1h-1v-1z" fill="rgb(82,65,98)"/>
<path d="M56 46h1v1h-1v-1z" fill="rgb(222,74,49)"/>
<path d="M57 46h2v1h-2v-1z" fill="rgb(82,65,98)"/>
<path d="M65 46h2v1h-2v-1z" fill="rgb(16,16,16)"/>
<path d="M67 46h3v1h-3v-1z" fill="rgb(180,24,24)"/>
<path d="M70 46h2v1h-2v-1z" fill="rgb(222,74,49)"/>
<path d="M30 47h1v1h-1v-1z" fill="rgb(16,16,16)"/>
<path d="M31 47h1v1h-1v-1z" fill="rgb(172,106,205)"/>
<path d="M43 47h1v1h-1v-1z" fill="rgb(82,65,98)"/>
<path d="M44 47h2v1h-2v-1z" fill="rgb(131,90,106)"/>
<path d="M46 47h2v2h-2v1h-5v1h-5v-1h-2v-1h-2v-1h14v-1z" fill="rgb(172,106,205)"/>
<path d="M53 47h1v1h-1v-1z" fill="rgb(16,16,16)"/>
<path d="M54 47h1v1h-1v-1z" fill="rgb(131,90,106)"/>
<path d="M55 47h1v1h-1v-1z" fill="rgb(222,74,49)"/>
<path d="M56 47h2v1h1v1h-1v1h-2v-3z" fill="rgb(213,164,222)"/>
<path d="M58 47h2v1h-2v-1z" fill="rgb(197,139,205)"/>
<path d="M61 47h1v1h-1v-1z" fill="rgb(82,65,98)"/>
<path d="M67 47h1v1h-1v-1z" fill="rgb(172,106,205)"/>
<path d="M68 47h3v1h-1v1h-1v-1h-1v-1z" fill="rgb(197,139,205)"/>
<path d="M71 47h2v1h-2v-1z" fill="rgb(131,90,106)"/>
<path d="M73 47h1v2h-1v-2z" fill="rgb(222,74,49)"/>
<path d="M31 48h1v2h-1v-2z" fill="rgb(16,16,16)"/>
<path d="M52 48h1v1h-1v-1z" fill="rgb(16,16,16)"/>
<path d="M53 48h1v4h1v1h2v1h1v1h1v1h1v-1h1v-2h1v1h1v1h-1v1h-1v1h1v1h1v1h-2v-1h-1v1h1v1h2
	v1h1v1h1v1h1v2h-1v-1h-2v1h-1v-1h-1v-1h-2v1h-1v-1h-2v-1h-3v-1h-2v-1h1v-1h-2v1
	h-9v-1h-2v-2h3v1h2v-1h4v-1h1v-1h1v-1h1v-2h1v-3h1v-1z" fill="rgb(131,90,106)"/>
<path d="M54 48h1v4h-1v-4z" fill="rgb(222,74,49)"/>
<path d="M55 48h1v2h-1v-2z" fill="rgb(131,90,106)"/>
<path d="M59 48h1v2h-1v-2z" fill="rgb(131,90,106)"/>
<path d="M60 48h2v1h-2v-1z" fill="rgb(16,16,16)"/>
<path d="M68 48h1v2h-1v-2z" fill="rgb(172,106,205)"/>
<path d="M70 48h1v1h1v2h-1v1h-2v-3h1v-1z" fill="rgb(213,164,222)"/>
<path d="M71 48h1v1h-1v-1z" fill="rgb(197,139,205)"/>
<path d="M72 48h1v1h1v1h-1v1h-1v-3z" fill="rgb(82,65,98)"/>
<path d="M20 49h4v1h-4v-1z" fill="rgb(222,74,49)"/>
<path d="M32 49h2v1h-2v-1z" fill="rgb(131,90,106)"/>
<path d="M49 49h1v1h-1v-1z" fill="rgb(82,65,98)"/>
<path d="M50 49h2v2h-1v-1h-1v-1z" fill="rgb(16,16,16)"/>
<path d="M58 49h1v1h-1v-1z" fill="rgb(197,139,205)"/>
<path d="M60 49h3v1h2v1h1v3h-1v-1h-1v-1h-2v-1h-1v1h-1v-3z" fill="rgb(82,65,98)"/>
<path d="M66 49h1v1h-1v-1z" fill="rgb(82,65,98)"/>
<path d="M74 49h1v1h-1v-1z" fill="rgb(180,24,24)"/>
<path d="M19 50h1v1h-1v-1z" fill="rgb(222,74,49)"/>
<path d="M20 50h2v1h-2v-1z" fill="rgb(82,65,98)"/>
<path d="M22 50h2v1h-2v-1z" fill="rgb(131,90,106)"/>
<path d="M24 50h3v1h-3v-1z" fill="rgb(222,74,49)"/>
<path d="M32 50h1v1h-1v-1z" fill="rgb(16,16,16)"/>
<path d="M33 50h1v4h-1v-4z" fill="rgb(82,65,98)"/>
<path d="M34 50h2v2h-1v-1h-1v-1z" fill="rgb(131,90,106)"/>
<path d="M41 50h4v1h-1v1h-2v-1h-1v-1z" fill="rgb(131,90,106)"/>
<path d="M45 50h2v1h-2v-1z" fill="rgb(16,16,16)"/>
<path d="M49 50h1v1h-1v-1z" fill="rgb(16,16,16)"/>
<path d="M50 50h1v2h-1v2h-1v1h-1v1h-3v-1h-1v1h-1v1h-1v-1h-1v-1h-2v-2h1v-1h5v-1h2v1h2v-1
	h1v-1z" fill="rgb(222,74,49)"/>
<path d="M55 50h1v2h-1v-2z" fill="rgb(82,65,98)"/>
<path d="M56 50h1v1h-1v-1z" fill="rgb(172,106,205)"/>
<path d="M57 50h1v1h-1v-1z" fill="rgb(197,139,205)"/>
<path d="M58 50h1v1h-1v-1z" fill="rgb(172,106,205)"/>
<path d="M59 50h1v2h-1v-2z" fill="rgb(16,16,16)"/>
<path d="M66 50h1v2h-1v-2z" fill="rgb(16,16,16)"/>
<path d="M68 50h1v2h-1v-2z" fill="rgb(197,139,205)"/>
<path d="M73 50h1v2h-1v-2z" fill="rgb(197,139,205)"/>
<path d="M74 50h1v1h-1v-1z" fill="rgb(82,65,98)"/>
<path d="M75 50h1v1h-1v-1z" fill="rgb(222,74,49)"/>
<path d="M19 51h1v1h-1v-1z" fill="rgb(180,24,24)"/>
<path d="M20 51h1v1h-1v-1z" fill="rgb(16,16,16)"/>
<path d="M21 51h1v1h-1v-1z" fill="rgb(172,106,205)"/>
<path d="M22 51h2v1h-2v-1z" fill="rgb(213,164,222)"/>
<path d="M24 51h3v1h-3v-1z" fill="rgb(131,90,106)"/>
<path d="M27 51h2v1h-2v-1z" fill="rgb(222,74,49)"/>
<path d="M34 51h1v1h1v-1h6v1h-5v1h-1v1h-1v-1h-1v-2z" fill="rgb(16,16,16)"/>
<path d="M44 51h1v1h-1v-1z" fill="rgb(16,16,16)"/>
<path d="M47 51h2v1h-2v-1z" fill="rgb(16,16,16)"/>
<path d="M51 51h1v1h-1v-1z" fill="rgb(82,65,98)"/>
<path d="M56 51h3v2h-1v-1h-2v-1z" fill="rgb(131,90,106)"/>
<path d="M61 51h1v1h-1v-1z" fill="rgb(16,16,16)"/>
<path d="M71 51h1v1h-1v-1z" fill="rgb(82,65,98)"/>
<path d="M72 51h1v1h-1v-1z" fill="rgb(131,90,106)"/>
<path d="M74 51h1v3h-2v-2h1v-1z" fill="rgb(213,164,222)"/>
<path d="M75 51h1v1h-1v-1z" fill="rgb(82,65,98)"/>
<path d="M76 51h1v4h-1v-4z" fill="rgb(222,74,49)"/>
<path d="M20 52h1v1h-1v-1z" fill="rgb(180,24,24)"/>
<path d="M21 52h1v1h-1v-1z" fill="rgb(16,16,16)"/>
<path d="M22 52h1v1h-1v-1z" fill="rgb(82,65,98)"/>
<path d="M23 52h1v1h-1v-1z" fill="rgb(131,90,106)"/>
<path d="M24 52h1v1h-1v-1z" fill="rgb(172,106,205)"/>
<path d="M25 52h2v1h-2v-1z" fill="rgb(213,164,222)"/>
<path d="M27 52h2v1h-2v-1z" fill="rgb(131,90,106)"/>
<path d="M29 52h1v1h-1v-1z" fill="rgb(222,74,49)"/>
<path d="M37 52h3v1h-1v4h-1v-1h-1v-4z" fill="rgb(180,24,24)"/>
<path d="M50 52h1v1h-1v-1z" fill="rgb(16,16,16)"/>
<path d="M55 52h1v1h-1v-1z" fill="rgb(222,74,49)"/>
<path d="M56 52h1v1h-1v-1z" fill="rgb(180,24,24)"/>
<path d="M57 52h1v1h-1v-1z" fill="rgb(82,65,98)"/>
<path d="M59 52h1v1h-1v-1z" fill="rgb(82,65,98)"/>
<path d="M60 52h1v1h-1v-1z" fill="rgb(16,16,16)"/>
<path d="M61 52h1v1h-1v-1z" fill="rgb(180,24,24)"/>
<path d="M62 52h2v1h-2v-1z" fill="rgb(16,16,16)"/>
<path d="M68 52h1v1h-1v-1z" fill="rgb(172,106,205)"/>
<path d="M69 52h2v1h-2v-1z" fill="rgb(197,139,205)"/>
<path d="M71 52h1v3h1v1h-1v1h-1v1h-2v-1h1v-2h1v-3z" fill="rgb(131,90,106)"/>
<path d="M72 52h1v2h-1v-2z" fill="rgb(197,139,205)"/>
<path d="M75 52h1v1h-1v-1z" fill="rgb(131,90,106)"/>
<path d="M21 53h1v1h-1v-1z" fill="rgb(180,24,24)"/>
<path d="M22 53h1v1h-1v-1z" fill="rgb(16,16,16)"/>
<path d="M23 53h2v1h-2v-1z" fill="rgb(82,65,98)"/>
<path d="M25 53h2v1h-2v-1z" fill="rgb(131,90,106)"/>
<path d="M27 53h1v1h-1v-1z" fill="rgb(172,106,205)"/>
<path d="M28 53h1v1h-1v-1z" fill="rgb(213,164,222)"/>
<path d="M29 53h1v1h-1v-1z" fill="rgb(82,65,98)"/>
<path d="M30 53h2v1h-2v-1z" fill="rgb(222,74,49)"/>
<path d="M34 53h1v1h-1v-1z" fill="rgb(131,90,106)"/>
<path d="M36 53h1v2h-1v-2z" fill="rgb(106,0,0)"/>
<path d="M50 53h1v1h-1v-1z" fill="rgb(82,65,98)"/>
<path d="M57 53h1v1h-1v-1z" fill="rgb(180,24,24)"/>
<path d="M58 53h2v2h-1v-1h-1v-1z" fill="rgb(16,16,16)"/>
<path d="M60 53h1v2h-1v-2z" fill="rgb(180,24,24)"/>
<path d="M62 53h2v1h-2v-1z" fill="rgb(180,24,24)"/>
<path d="M64 53h1v1h-1v-1z" fill="rgb(16,16,16)"/>
<path d="M69 53h1v1h-1v-1z" fill="rgb(172,106,205)"/>
<path d="M70 53h1v1h-1v-1z" fill="rgb(16,16,16)"/>
<path d="M75 53h1v1h-1v-1z" fill="rgb(82,65,98)"/>
<path d="M22 54h1v1h-1v-1z" fill="rgb(180,24,24)"/>
<path d="M23 54h2v1h-2v-1z" fill="rgb(16,16,16)"/>
<path d="M25 54h2v1h1v1h1v1h1v1h1v1h1v2h1v2h3v1h-5v-1h-2v-1h-5v-1h2v-1h1v-1h1v-1h-1v-2
	h-1v-1h-1v-1z" fill="rgb(82,65,98)"/>
<path d="M27 54h3v1h2v1h1v1h1v1h2v1h1v1h-1v2h2v1h-1v1h-1v-1h-3v-2h-1v-2h-1v-1h-1v-1h-1
	v-1h-1v-1h-1v-1z" fill="rgb(131,90,106)"/>
<path d="M30 54h2v1h-2v-1z" fill="rgb(82,65,98)"/>
<path d="M32 54h1v1h-1v-1z" fill="rgb(222,74,49)"/>
<path d="M33 54h1v1h-1v-1z" fill="transparent"/>
<path d="M34 54h1v1h-1v-1z" fill="rgb(16,16,16)"/>
<path d="M35 54h1v1h-1v-1z" fill="rgb(82,65,98)"/>
<path d="M49 54h1v1h-1v-1z" fill="rgb(82,65,98)"/>
<path d="M58 54h1v1h-1v-1z" fill="rgb(180,24,24)"/>
<path d="M63 54h1v1h-1v-1z" fill="rgb(82,65,98)"/>
<path d="M64 54h1v1h-1v-1z" fill="rgb(180,24,24)"/>
<path d="M65 54h1v1h-1v-1z" fill="rgb(16,16,16)"/>
<path d="M69 54h1v3h-1v-1h-1v-1h1v-1z" fill="rgb(16,16,16)"/>
<path d="M70 54h1v1h-1v-1z" fill="rgb(82,65,98)"/>
<path d="M72 54h1v1h-1v-1z" fill="rgb(172,106,205)"/>
<path d="M73 54h2v1h-2v-1z" fill="rgb(197,139,205)"/>
<path d="M75 54h1v1h-1v-1z" fill="rgb(16,16,16)"/>
<path d="M23 55h2v1h-2v-1z" fill="rgb(180,24,24)"/>
<path d="M25 55h1v1h-1v-1z" fill="rgb(16,16,16)"/>
<path d="M32 55h1v1h-1v-1z" fill="rgb(16,16,16)"/>
<path d="M33 55h1v1h-1v-1z" fill="rgb(222,74,49)"/>
<path d="M34 55h1v1h-1v-1z" fill="transparent"/>
<path d="M35 55h1v1h-1v-1z" fill="rgb(16,16,16)"/>
<path d="M36 55h1v1h-1v-1z" fill="rgb(82,65,98)"/>
<path d="M39 55h1v2h-1v-2z" fill="rgb(16,16,16)"/>
<path d="M40 55h1v1h-1v-1z" fill="rgb(82,65,98)"/>
<path d="M44 55h1v1h-1v-1z" fill="rgb(82,65,98)"/>
<path d="M48 55h1v1h-1v-1z" fill="rgb(82,65,98)"/>
<path d="M59 55h1v1h-1v-1z" fill="rgb(180,24,24)"/>
<path d="M62 55h1v1h-1v-1z" fill="rgb(82,65,98)"/>
<path d="M63 55h1v1h-1v-1z" fill="rgb(180,24,24)"/>
<path d="M64 55h1v1h-1v-1z" fill="rgb(16,16,16)"/>
<path d="M73 55h1v1h-1v-1z" fill="rgb(172,106,205)"/>
<path d="M74 55h1v1h-1v-1z" fill="rgb(16,16,16)"/>
<path d="M75 55h1v1h-1v-1z" fill="rgb(222,74,49)"/>
<path d="M25 56h1v1h-1v-1z" fill="rgb(180,24,24)"/>
<path d="M26 56h1v2h-1v-2z" fill="rgb(16,16,16)"/>
<path d="M33 56h1v1h-1v-1z" fill="rgb(16,16,16)"/>
<path d="M34 56h2v1h-2v-1z" fill="rgb(222,74,49)"/>
<path d="M36 56h1v1h-1v-1z" fill="rgb(172,106,205)"/>
<path d="M37 56h1v1h-1v-1z" fill="rgb(82,65,98)"/>
<path d="M40 56h1v1h-1v-1z" fill="rgb(172,106,205)"/>
<path d="M41 56h1v1h-1v-1z" fill="rgb(82,65,98)"/>
<path d="M43 56h1v1h-1v-1z" fill="rgb(16,16,16)"/>
<path d="M44 56h1v1h-1v-1z" fill="rgb(172,106,205)"/>
<path d="M45 56h1v1h-1v-1z" fill="rgb(16,16,16)"/>
<path d="M46 56h2v1h-2v-1z" fill="rgb(82,65,98)"/>
<path d="M61 56h1v1h-1v-1z" fill="rgb(82,65,98)"/>
<path d="M62 56h1v1h-1v-1z" fill="rgb(180,24,24)"/>
<path d="M63 56h1v1h-1v-1z" fill="rgb(16,16,16)"/>
<path d="M66 56h2v1h-2v-1z" fill="rgb(16,16,16)"/>
<path d="M68 56h1v1h-1v-1z" fill="rgb(180,24,24)"/>
<path d="M72 56h2v1h-2v-1z" fill="rgb(16,16,16)"/>
<path d="M74 56h1v1h-1v-1z" fill="rgb(180,24,24)"/>
<path d="M23 57h2v1h-2v-1z" fill="rgb(222,74,49)"/>
<path d="M25 57h1v1h-1v-1z" fill="rgb(82,65,98)"/>
<path d="M34 57h1v1h-1v-1z" fill="rgb(16,16,16)"/>
<path d="M35 57h1v1h-1v-1z" fill="rgb(82,65,98)"/>
<path d="M36 57h2v1h-2v-1z" fill="rgb(222,74,49)"/>
<path d="M38 57h1v1h-1v-1z" fill="rgb(16,16,16)"/>
<path d="M42 57h1v1h-1v-1z" fill="rgb(16,16,16)"/>
<path d="M43 57h1v1h-1v-1z" fill="rgb(82,65,98)"/>
<path d="M53 57h1v1h-1v-1z" fill="rgb(82,65,98)"/>
<path d="M62 57h1v1h-1v-1z" fill="rgb(82,65,98)"/>
<path d="M63 57h1v1h-1v-1z" fill="rgb(180,24,24)"/>
<path d="M64 57h2v1h-2v-1z" fill="rgb(16,16,16)"/>
<path d="M66 57h2v2h-1v-1h-1v-1z" fill="rgb(180,24,24)"/>
<path d="M68 57h1v1h2v1h-3v-2z" fill="rgb(16,16,16)"/>
<path d="M71 57h1v1h-1v-1z" fill="rgb(16,16,16)"/>
<path d="M72 57h2v1h-2v-1z" fill="rgb(180,24,24)"/>
<path d="M21 58h2v1h-2v-1z" fill="rgb(222,74,49)"/>
<path d="M23 58h2v1h-2v-1z" fill="rgb(82,65,98)"/>
<path d="M25 58h2v2h-1v1h-2v-1h1v-2z" fill="rgb(131,90,106)"/>
<path d="M27 58h1v1h-1v-1z" fill="rgb(16,16,16)"/>
<path d="M36 58h2v1h-2v-1z" fill="rgb(82,65,98)"/>
<path d="M38 58h1v1h-1v-1z" fill="rgb(222,74,49)"/>
<path d="M52 58h1v1h-1v-1z" fill="rgb(82,65,98)"/>
<path d="M60 58h1v1h-1v-1z" fill="rgb(82,65,98)"/>
<path d="M63 58h1v2h-3v-1h2v-1z" fill="rgb(82,65,98)"/>
<path d="M64 58h2v1h-2v-1z" fill="rgb(180,24,24)"/>
<path d="M71 58h1v1h-1v-1z" fill="rgb(180,24,24)"/>
<path d="M20 59h1v1h-1v-1z" fill="rgb(222,74,49)"/>
<path d="M21 59h2v1h-2v-1z" fill="rgb(131,90,106)"/>
<path d="M23 59h1v1h-1v-1z" fill="rgb(213,164,222)"/>
<path d="M24 59h1v1h-1v-1z" fill="rgb(172,106,205)"/>
<path d="M37 59h1v1h1v1h1v2h-1v-1h-1v-1h-1v-2z" fill="rgb(213,164,222)"/>
<path d="M38 59h1v1h-1v-1z" fill="rgb(82,65,98)"/>
<path d="M39 59h1v1h-1v-1z" fill="rgb(222,74,49)"/>
<path d="M40 59h1v1h-1v-1z" fill="rgb(16,16,16)"/>
<path d="M50 59h2v1h-1v1h-4v-1h3v-1z" fill="rgb(82,65,98)"/>
<path d="M68 59h3v1h-3v-1z" fill="rgb(180,24,24)"/>
<path d="M19 60h1v1h-1v-1z" fill="rgb(222,74,49)"/>
<path d="M20 60h1v1h-1v-1z" fill="rgb(131,90,106)"/>
<path d="M21 60h2v1h-2v-1z" fill="rgb(213,164,222)"/>
<path d="M23 60h1v1h-1v-1z" fill="rgb(172,106,205)"/>
<path d="M36 60h1v1h1v1h-2v-2z" fill="rgb(172,106,205)"/>
<path d="M39 60h1v1h-1v-1z" fill="rgb(82,65,98)"/>
<path d="M40 60h1v1h-1v-1z" fill="rgb(222,74,49)"/>
<path d="M41 60h6v1h-6v-1z" fill="rgb(16,16,16)"/>
<path d="M18 61h1v1h-1v-1z" fill="rgb(222,74,49)"/>
<path d="M19 61h1v1h-1v-1z" fill="rgb(131,90,106)"/>
<path d="M20 61h1v1h-1v-1z" fill="rgb(213,164,222)"/>
<path d="M21 61h1v1h-1v-1z" fill="rgb(172,106,205)"/>
<path d="M22 61h2v1h-2v-1z" fill="rgb(131,90,106)"/>
<path d="M40 61h1v1h-1v-1z" fill="rgb(16,16,16)"/>
<path d="M41 61h1v2h-1v-2z" fill="rgb(222,74,49)"/>
<path d="M49 61h2v1h-2v-1z" fill="rgb(16,16,16)"/>
<path d="M51 61h2v1h-2v-1z" fill="rgb(82,65,98)"/>
<path d="M17 62h1v1h-1v-1z" fill="rgb(222,74,49)"/>
<path d="M18 62h1v1h-1v-1z" fill="rgb(82,65,98)"/>
<path d="M19 62h1v1h-1v-1z" fill="rgb(213,164,222)"/>
<path d="M20 62h2v1h-2v-1z" fill="rgb(131,90,106)"/>
<path d="M22 62h1v1h-1v-1z" fill="rgb(82,65,98)"/>
<path d="M23 62h6v1h-6v-1z" fill="rgb(16,16,16)"/>
<path d="M38 62h1v1h-1v-1z" fill="rgb(172,106,205)"/>
<path d="M40 62h1v1h-1v-1z" fill="rgb(82,65,98)"/>
<path d="M53 62h3v1h-3v-1z" fill="rgb(82,65,98)"/>
<path d="M16 63h1v1h-1v-1z" fill="rgb(222,74,49)"/>
<path d="M17 63h1v2h-1v-2z" fill="rgb(82,65,98)"/>
<path d="M18 63h1v1h-1v-1z" fill="rgb(172,106,205)"/>
<path d="M19 63h1v1h-1v-1z" fill="rgb(131,90,106)"/>
<path d="M20 63h1v1h-1v-1z" fill="rgb(82,65,98)"/>
<path d="M21 63h2v1h-2v-1z" fill="rgb(16,16,16)"/>
<path d="M23 63h6v1h-6v-1z" fill="rgb(180,24,24)"/>
<path d="M29 63h2v1h-2v-1z" fill="rgb(16,16,16)"/>
<path d="M37 63h1v1h-1v-1z" fill="rgb(82,65,98)"/>
<path d="M38 63h1v1h-1v-1z" fill="rgb(131,90,106)"/>
<path d="M39 63h1v1h-1v-1z" fill="rgb(172,106,205)"/>
<path d="M40 63h1v1h-1v-1z" fill="rgb(213,164,222)"/>
<path d="M41 63h1v4h-1v-4z" fill="rgb(16,16,16)"/>
<path d="M42 63h1v2h-1v-2z" fill="rgb(222,74,49)"/>
<path d="M59 63h2v1h-2v-1z" fill="rgb(82,65,98)"/>
<path d="M16 64h1v2h2v1h-3v-3z" fill="rgb(180,24,24)"/>
<path d="M18 64h1v1h-1v-1z" fill="rgb(131,90,106)"/>
<path d="M19 64h2v1h-2v-1z" fill="rgb(16,16,16)"/>
<path d="M21 64h2v1h-2v-1z" fill="rgb(180,24,24)"/>
<path d="M29 64h2v1h-2v-1z" fill="rgb(180,24,24)"/>
<path d="M31 64h7v1h-7v-1z" fill="rgb(16,16,16)"/>
<path d="M38 64h1v1h-1v-1z" fill="rgb(82,65,98)"/>
<path d="M39 64h1v1h1v2h-1v-1h-1v-2z" fill="rgb(131,90,106)"/>
<path d="M40 64h1v1h-1v-1z" fill="rgb(172,106,205)"/>
<path d="M63 64h2v1h-2v-1z" fill="rgb(82,65,98)"/>
<path d="M17 65h2v1h-2v-1z" fill="rgb(16,16,16)"/>
<path d="M19 65h2v1h-2v-1z" fill="rgb(180,24,24)"/>
<path d="M31 65h7v1h-7v-1z" fill="rgb(180,24,24)"/>
<path d="M38 65h1v1h-1v-1z" fill="rgb(16,16,16)"/>
<path d="M42 65h1v2h-1v-2z" fill="rgb(180,24,24)"/>
<path d="M38 66h1v1h-1v-1z" fill="rgb(180,24,24)"/>
<path d="M39 66h1v1h-1v-1z" fill="rgb(16,16,16)"/>
<path d="M39 67h1v1h-1v-1z" fill="rgb(180,24,24)"/>
<path d="M40 67h1v1h-1v-1z" fill="rgb(16,16,16)"/>
<path d="M41 67h1v1h-1v-1z" fill="rgb(180,24,24)"/>
<path d="M40 68h1v1h-1v-1z" fill="rgb(180,24,24)"/>
</svg>
