<?xml version="1.0" encoding="utf-8"?>
<!-- generated at drububu.com  -->
<!DOCTYPE svg PUBLIC "-//W3C//DTD SVG 1.1//EN" "http://www.w3.org/Graphics/SVG/1.1/DTD/svg11.dtd">
<svg version="1.1" preserveAspectRatio="xMinYMin meet" xmlns="http://www.w3.org/2000/svg" xmlns:xlink="http://www.w3.org/1999/xlink" x="0px" y="0px" width="96px" height="96px" viewBox="0 0 96 96">
<path d="M0 0h96v96h-96v-96z" fill="transparent"/>
<path d="M63 20h1v1h-1v-1z" fill="rgb(90,74,156)"/>
<path d="M61 21h2v1h-2v-1z" fill="rgb(90,74,156)"/>
<path d="M63 21h1v1h-1v-1z" fill="rgb(180,139,189)"/>
<path d="M64 21h1v4h-1v-4z" fill="rgb(16,16,16)"/>
<path d="M59 22h2v1h-2v-1z" fill="rgb(90,74,156)"/>
<path d="M61 22h2v1h-1v1h-1v1h-1v1h-1v2h-1v1h-1v1h-1v-1h-1v1h-1v1h-1v-1h-1v-2h1v-1h2v-1
	h1v-1h2v-1h1v-1h2v-1z" fill="rgb(180,139,189)"/>
<path d="M63 22h1v1h-1v-1z" fill="rgb(148,115,180)"/>
<path d="M46 23h1v1h-1v-1z" fill="rgb(90,74,156)"/>
<path d="M47 23h1v6h-1v-6z" fill="rgb(74,41,74)"/>
<path d="M58 23h1v1h-1v-1z" fill="rgb(90,74,156)"/>
<path d="M62 23h1v1h-1v-1z" fill="rgb(148,115,180)"/>
<path d="M63 23h1v1h-1v-1z" fill="rgb(123,98,164)"/>
<path d="M45 24h1v1h-1v-1z" fill="rgb(90,74,156)"/>
<path d="M46 24h1v5h2v-1h1v-1h1v3h2v1h1v1h1v-1h1v-1h1v-1h1v-1h1v-2h1v-1h1v-1h1v2h-1v2h-1
	v2h-1v1h-1v2h-1v2h-1v2h-1v6h-1v2h-1v1h-1v1h-1v1h-2v-1h1v-1h1v-5h-1v-1h-2v1h-1
	v1h-1v1h-1v-2h-2v1h-1v4h1v1h1v1h5v1h-2v1h-3v1h-10v-1h-2v-1h4v-1h1v-2h-1v-1h-1
	v-1h-2v-1h-1v-1h-1v-1h-1v1h1v1h-1v3h1v2h1v1h-2v-2h-1v2h1v2h1v2h1v1h1v1h1v1h1v1h2
	v1h8v-1h2v-1h2v-1h1v-1h1v-1h1v-2h1v-2h1v-4h1v-2h1v2h1v6h-1v3h-1v2h-1v2h-1v1h-1
	v1h-1v1h-1v1h-2v1h-3v1h-6v-1h-3v-1h-2v-1h-1v-1h-2v-2h-1v-2h-1v-3h-1v-10h1v-3h1
	v-2h1v1h1v1h5v-1h2v-1h1v-3h1v1h1v-1h1v-1h-1v-1h-1v1h-1v-1h-5v1h-2v-1h1v-3h1v1
	h1v-2h1v2h1v-2h1v-1h1v2h1v-1h1v-1h1v-1h1v-1h1v-1h1v-1z" fill="rgb(148,115,180)"/>
<path d="M56 24h2v1h-2v-1z" fill="rgb(90,74,156)"/>
<path d="M62 24h1v1h-1v-1z" fill="rgb(123,98,164)"/>
<path d="M63 24h1v1h-1v-1z" fill="rgb(90,74,156)"/>
<path d="M44 25h1v1h-1v-1z" fill="rgb(90,74,156)"/>
<path d="M55 25h1v1h-1v-1z" fill="rgb(90,74,156)"/>
<path d="M62 25h1v3h-1v4h-1v3h-1v2h1v2h-1v6h1v2h5v-1h2v1h-1v1h-2v1h-2v1h2v-1h1v7h-1v3h-1
	v2h1v-2h1v-2h1v1h1v1h3v2h-1v1h-1v1h-2v1h-2v1h-1v-1h-1v-1h-1v-1h-1v1h-6v1h-2v2
	h-1v1h-2v1h-7v-1h-3v-1h-2v-1h-2v-1h-1v1h1v1h2v1h2v1h1v1h-1v2h-1v-2h-2v-1h-2v-1
	h-4v-4h1v-2h1v1h2v1h3v1h8v-1h3v-1h2v-1h1v-1h1v-1h1v-2h1v-2h1v-3h1v-8h-1v-2h-1
	v-3h1v-3h1v-2h1v-2h1v-1h1v-2h1v-2h1v-2z" fill="rgb(90,74,156)"/>
<path d="M63 25h1v3h-1v-3z" fill="rgb(16,16,16)"/>
<path d="M22 26h2v1h-2v-1z" fill="rgb(90,74,156)"/>
<path d="M33 26h1v2h-1v-2z" fill="rgb(90,74,156)"/>
<path d="M34 26h1v1h-1v-1z" fill="rgb(74,41,74)"/>
<path d="M37 26h1v3h-1v-3z" fill="rgb(90,74,156)"/>
<path d="M38 26h1v1h-1v-1z" fill="rgb(74,41,74)"/>
<path d="M43 26h1v1h-1v-1z" fill="rgb(90,74,156)"/>
<path d="M50 26h1v1h-1v-1z" fill="rgb(90,74,156)"/>
<path d="M51 26h1v3h-1v-3z" fill="rgb(74,41,74)"/>
<path d="M53 26h2v1h-2v-1z" fill="rgb(90,74,156)"/>
<path d="M61 26h1v1h-1v-1z" fill="rgb(123,98,164)"/>
<path d="M21 27h1v2h-1v-2z" fill="rgb(74,41,74)"/>
<path d="M22 27h2v1h1v1h1v1h1v2h1v1h1v1h1v-1h1v1h1v1h-1v1h-1v2h-1v-1h-1v-1h-1v-2h-1v-1
	h-1v-1h-1v-2h-1v-1h-1v-2z" fill="rgb(148,115,180)"/>
<path d="M24 27h3v1h-3v-1z" fill="rgb(90,74,156)"/>
<path d="M34 27h1v1h1v3h-1v-1h-1v-3z" fill="rgb(180,139,189)"/>
<path d="M35 27h1v1h-1v-1z" fill="rgb(74,41,74)"/>
<path d="M38 27h1v2h-1v-2z" fill="rgb(180,139,189)"/>
<path d="M39 27h1v1h-1v-1z" fill="rgb(74,41,74)"/>
<path d="M42 27h1v1h-1v-1z" fill="rgb(90,74,156)"/>
<path d="M49 27h1v1h-1v-1z" fill="rgb(90,74,156)"/>
<path d="M52 27h1v1h-1v-1z" fill="rgb(90,74,156)"/>
<path d="M25 28h2v1h4v1h2v4h-2v-1h-1v-1h-1v1h-1v-1h-1v-2h-1v-1h-1v-1z" fill="rgb(180,139,189)"/>
<path d="M27 28h4v1h-4v-1z" fill="rgb(90,74,156)"/>
<path d="M33 28h1v5h-1v-5z" fill="rgb(74,41,74)"/>
<path d="M36 28h1v1h-1v-1z" fill="rgb(74,41,74)"/>
<path d="M40 28h1v1h-1v-1z" fill="rgb(74,41,74)"/>
<path d="M41 28h1v1h-1v-1z" fill="rgb(90,74,156)"/>
<path d="M48 28h1v1h-1v-1z" fill="rgb(90,74,156)"/>
<path d="M60 28h1v1h-1v-1z" fill="rgb(123,98,164)"/>
<path d="M62 28h1v4h-1v-4z" fill="rgb(16,16,16)"/>
<path d="M22 29h1v1h-1v-1z" fill="rgb(74,41,74)"/>
<path d="M31 29h2v1h-2v-1z" fill="rgb(90,74,156)"/>
<path d="M37 29h1v1h-1v-1z" fill="rgb(74,41,74)"/>
<path d="M40 29h1v1h-1v-1z" fill="rgb(90,74,156)"/>
<path d="M51 29h1v1h-1v-1z" fill="rgb(90,74,156)"/>
<path d="M55 29h1v1h-1v-1z" fill="rgb(148,115,180)"/>
<path d="M23 30h1v2h-1v-2z" fill="rgb(74,41,74)"/>
<path d="M37 30h1v1h-1v-1z" fill="rgb(90,74,156)"/>
<path d="M54 30h1v1h-1v-1z" fill="rgb(148,115,180)"/>
<path d="M55 30h1v1h-1v-1z" fill="rgb(180,139,189)"/>
<path d="M59 30h1v1h-1v-1z" fill="rgb(123,98,164)"/>
<path d="M54 31h1v1h-1v-1z" fill="rgb(180,139,189)"/>
<path d="M58 31h1v1h-1v-1z" fill="rgb(123,98,164)"/>
<path d="M24 32h1v1h-1v-1z" fill="rgb(74,41,74)"/>
<path d="M29 32h1v1h-1v-1z" fill="rgb(148,115,180)"/>
<path d="M61 32h1v3h-1v-3z" fill="rgb(16,16,16)"/>
<path d="M25 33h1v1h-1v-1z" fill="rgb(74,41,74)"/>
<path d="M29 33h1v1h-1v-1z" fill="rgb(180,139,189)"/>
<path d="M35 33h5v1h-1v1h1v3h-1v1h-2v1h-5v-1h-1v-3h1v-1h1v-1h2v-1z" fill="rgb(180,139,189)"/>
<path d="M41 33h1v1h-1v-1z" fill="rgb(180,139,189)"/>
<path d="M57 33h1v1h-1v-1z" fill="rgb(123,98,164)"/>
<path d="M26 34h1v2h-1v-2z" fill="rgb(74,41,74)"/>
<path d="M32 34h1v1h-1v-1z" fill="rgb(90,74,156)"/>
<path d="M39 34h1v1h-1v-1z" fill="rgb(148,115,180)"/>
<path d="M40 34h1v1h-1v-1z" fill="rgb(180,139,189)"/>
<path d="M41 34h1v1h-1v-1z" fill="rgb(148,115,180)"/>
<path d="M42 34h1v1h-1v-1z" fill="rgb(180,139,189)"/>
<path d="M70 34h1v1h-1v-1z" fill="rgb(74,41,74)"/>
<path d="M31 35h1v1h-1v-1z" fill="rgb(74,41,74)"/>
<path d="M41 35h1v1h-1v-1z" fill="rgb(180,139,189)"/>
<path d="M56 35h1v1h-1v-1z" fill="rgb(123,98,164)"/>
<path d="M60 35h1v2h-1v-2z" fill="rgb(16,16,16)"/>
<path d="M61 35h1v1h-1v-1z" fill="rgb(74,41,74)"/>
<path d="M69 35h1v1h-1v-1z" fill="rgb(16,16,16)"/>
<path d="M70 35h1v2h1v1h2v1h-1v2h-2v-2h-1v-1h-1v-2h1v-1z" fill="rgb(148,115,180)"/>
<path d="M71 35h1v2h-1v-2z" fill="rgb(74,41,74)"/>
<path d="M27 36h1v1h-1v-1z" fill="rgb(74,41,74)"/>
<path d="M30 36h1v2h-1v-2z" fill="rgb(16,16,16)"/>
<path d="M67 36h2v1h-2v-1z" fill="rgb(16,16,16)"/>
<path d="M19 37h1v1h-1v-1z" fill="rgb(16,16,16)"/>
<path d="M22 37h1v1h-1v-1z" fill="rgb(16,16,16)"/>
<path d="M28 37h1v2h-1v-2z" fill="rgb(74,41,74)"/>
<path d="M55 37h1v2h-1v-2z" fill="rgb(123,98,164)"/>
<path d="M61 37h1v2h-1v-2z" fill="rgb(74,41,74)"/>
<path d="M65 37h2v1h-2v-1z" fill="rgb(16,16,16)"/>
<path d="M67 37h2v2h-1v1h1v-1h1v2h2v1h-2v1h-2v-1h-2v-1h-1v-1h1v-1h-1v-1h2v-1z" fill="rgb(180,139,189)"/>
<path d="M72 37h3v1h-3v-1z" fill="rgb(74,41,74)"/>
<path d="M18 38h1v2h-1v-2z" fill="rgb(74,41,74)"/>
<path d="M19 38h1v1h2v-1h1v1h1v1h1v2h-3v-1h-2v-1h-1v-2z" fill="rgb(180,139,189)"/>
<path d="M20 38h1v1h-1v-1z" fill="rgb(16,16,16)"/>
<path d="M21 38h1v1h-1v-1z" fill="rgb(74,41,74)"/>
<path d="M23 38h1v1h-1v-1z" fill="rgb(74,41,74)"/>
<path d="M29 38h1v2h-1v-2z" fill="rgb(16,16,16)"/>
<path d="M62 38h3v1h-3v-1z" fill="rgb(16,16,16)"/>
<path d="M69 38h1v1h-1v-1z" fill="rgb(74,41,74)"/>
<path d="M74 38h1v1h-1v-1z" fill="rgb(16,16,16)"/>
<path d="M24 39h2v1h-2v-1z" fill="rgb(74,41,74)"/>
<path d="M50 39h1v1h-1v-1z" fill="rgb(90,74,156)"/>
<path d="M60 39h1v1h-1v-1z" fill="rgb(74,41,74)"/>
<path d="M61 39h3v1h-1v1h1v1h-1v1h1v-1h1v-1h1v1h2v1h2v-1h1v2h-2v1h-2v1h-2v1h-3v-1h-1v-2
	h-1v-4h1v-1z" fill="rgb(148,115,180)"/>
<path d="M64 39h1v1h-1v-1z" fill="rgb(180,139,189)"/>
<path d="M65 39h1v1h-1v-1z" fill="rgb(148,115,180)"/>
<path d="M68 39h1v1h-1v-1z" fill="rgb(74,41,74)"/>
<path d="M70 39h1v2h-1v-2z" fill="rgb(74,41,74)"/>
<path d="M73 39h1v2h-1v-2z" fill="rgb(16,16,16)"/>
<path d="M19 40h1v2h-1v-2z" fill="rgb(74,41,74)"/>
<path d="M25 40h1v1h1v2h-1v-1h-1v-2z" fill="rgb(148,115,180)"/>
<path d="M26 40h2v1h-2v-1z" fill="rgb(74,41,74)"/>
<path d="M28 40h1v2h-1v-2z" fill="rgb(16,16,16)"/>
<path d="M48 40h2v1h-2v-1z" fill="rgb(74,41,74)"/>
<path d="M63 40h1v1h-1v-1z" fill="rgb(180,139,189)"/>
<path d="M64 40h1v1h-1v-1z" fill="rgb(148,115,180)"/>
<path d="M20 41h2v1h3v1h1v1h-1v1h-1v1h-3v-1h-1v-1h-2v-1h1v-1h1v-1z" fill="rgb(148,115,180)"/>
<path d="M27 41h1v1h-1v-1z" fill="rgb(123,98,164)"/>
<path d="M30 41h1v1h-1v-1z" fill="rgb(74,41,74)"/>
<path d="M43 41h2v2h-1v2h-2v-3h1v-1z" fill="rgb(180,139,189)"/>
<path d="M47 41h1v1h-1v-1z" fill="rgb(74,41,74)"/>
<path d="M48 41h2v5h-1v-2h-1v-1h-1v-1h1v-1z" fill="rgb(255,90,90)"/>
<path d="M50 41h1v5h-1v-5z" fill="rgb(90,74,156)"/>
<path d="M64 41h1v1h-1v-1z" fill="rgb(180,139,189)"/>
<path d="M72 41h1v1h-1v-1z" fill="rgb(16,16,16)"/>
<path d="M18 42h1v1h-1v-1z" fill="rgb(74,41,74)"/>
<path d="M25 42h1v1h-1v-1z" fill="rgb(180,139,189)"/>
<path d="M27 42h1v4h-1v4h-1v-1h-2v-1h-1v-2h2v-1h1v-1h1v-2z" fill="rgb(90,74,156)"/>
<path d="M28 42h1v1h-1v-1z" fill="rgb(74,41,74)"/>
<path d="M31 42h1v1h-1v-1z" fill="rgb(74,41,74)"/>
<path d="M46 42h1v1h-1v-1z" fill="rgb(74,41,74)"/>
<path d="M55 42h1v1h-1v-1z" fill="rgb(123,98,164)"/>
<path d="M63 42h1v1h-1v-1z" fill="rgb(180,139,189)"/>
<path d="M71 42h1v2h-1v-2z" fill="rgb(16,16,16)"/>
<path d="M17 43h1v1h-1v-1z" fill="rgb(74,41,74)"/>
<path d="M26 43h1v1h-1v-1z" fill="rgb(123,98,164)"/>
<path d="M30 43h1v3h-1v-3z" fill="rgb(90,74,156)"/>
<path d="M31 43h1v1h1v1h-1v1h-1v-3z" fill="rgb(255,90,90)"/>
<path d="M32 43h1v1h-1v-1z" fill="rgb(74,41,74)"/>
<path d="M44 43h1v1h-1v-1z" fill="rgb(148,115,180)"/>
<path d="M45 43h1v3h-1v-1h-1v-1h1v-1z" fill="rgb(16,16,16)"/>
<path d="M46 43h2v1h1v2h-1v1h-4v-1h2v-3z" fill="rgb(255,148,148)"/>
<path d="M54 43h1v1h-1v-1z" fill="rgb(90,74,156)"/>
<path d="M18 44h2v1h-2v-1z" fill="rgb(74,41,74)"/>
<path d="M25 44h1v1h-1v-1z" fill="rgb(123,98,164)"/>
<path d="M33 44h1v1h-1v-1z" fill="rgb(74,41,74)"/>
<path d="M34 44h1v1h-1v-1z" fill="rgb(90,74,156)"/>
<path d="M54 44h1v1h-1v-1z" fill="rgb(74,41,74)"/>
<path d="M56 44h1v1h-1v-1z" fill="rgb(123,98,164)"/>
<path d="M60 44h1v1h-1v-1z" fill="rgb(123,98,164)"/>
<path d="M69 44h1v1h-1v-1z" fill="rgb(123,98,164)"/>
<path d="M70 44h1v1h-1v-1z" fill="rgb(16,16,16)"/>
<path d="M20 45h1v1h-1v-1z" fill="rgb(74,41,74)"/>
<path d="M24 45h1v1h-1v-1z" fill="rgb(123,98,164)"/>
<path d="M32 45h2v2h2v1h-3v-1h-1v-2z" fill="rgb(255,148,148)"/>
<path d="M34 45h1v2h-1v-2z" fill="rgb(16,16,16)"/>
<path d="M35 45h1v1h-1v-1z" fill="rgb(74,41,74)"/>
<path d="M42 45h1v1h-1v-1z" fill="rgb(90,74,156)"/>
<path d="M43 45h1v1h-1v-1z" fill="rgb(74,41,74)"/>
<path d="M44 45h1v1h-1v-1z" fill="rgb(255,90,90)"/>
<path d="M53 45h1v1h-1v-1z" fill="rgb(74,41,74)"/>
<path d="M67 45h1v1h-1v-1z" fill="rgb(123,98,164)"/>
<path d="M68 45h1v1h-1v-1z" fill="rgb(90,74,156)"/>
<path d="M69 45h1v1h-1v-1z" fill="rgb(16,16,16)"/>
<path d="M21 46h1v1h-1v-1z" fill="rgb(74,41,74)"/>
<path d="M22 46h1v1h-1v-1z" fill="rgb(123,98,164)"/>
<path d="M27 46h1v1h-1v-1z" fill="rgb(74,41,74)"/>
<path d="M31 46h1v2h-1v-2z" fill="rgb(90,74,156)"/>
<path d="M35 46h1v1h-1v-1z" fill="rgb(255,90,90)"/>
<path d="M36 46h1v1h-1v-1z" fill="rgb(74,41,74)"/>
<path d="M43 46h1v1h-1v-1z" fill="rgb(90,74,156)"/>
<path d="M48 46h1v1h-1v-1z" fill="rgb(255,90,90)"/>
<path d="M49 46h1v1h-1v-1z" fill="rgb(90,74,156)"/>
<path d="M52 46h1v1h-1v-1z" fill="rgb(74,41,74)"/>
<path d="M53 46h1v3h-1v-3z" fill="rgb(16,16,16)"/>
<path d="M61 46h1v1h-1v-1z" fill="rgb(123,98,164)"/>
<path d="M65 46h1v1h-1v-1z" fill="rgb(123,98,164)"/>
<path d="M68 46h1v1h-1v-1z" fill="rgb(16,16,16)"/>
<path d="M22 47h1v1h-1v-1z" fill="rgb(74,41,74)"/>
<path d="M27 47h1v6h-1v-6z" fill="rgb(16,16,16)"/>
<path d="M29 47h1v1h-1v-1z" fill="rgb(90,74,156)"/>
<path d="M32 47h1v1h-1v-1z" fill="rgb(255,90,90)"/>
<path d="M36 47h1v1h-1v-1z" fill="rgb(90,74,156)"/>
<path d="M44 47h1v1h-1v-1z" fill="rgb(90,74,156)"/>
<path d="M45 47h3v1h-3v-1z" fill="rgb(255,90,90)"/>
<path d="M48 47h1v1h-1v-1z" fill="rgb(90,74,156)"/>
<path d="M51 47h1v1h-1v-1z" fill="rgb(74,41,74)"/>
<path d="M52 47h1v1h-1v-1z" fill="rgb(189,172,189)"/>
<path d="M67 47h1v1h-1v-1z" fill="rgb(16,16,16)"/>
<path d="M23 48h1v1h-1v-1z" fill="rgb(74,41,74)"/>
<path d="M29 48h1v1h-1v-1z" fill="rgb(74,41,74)"/>
<path d="M32 48h1v1h-1v-1z" fill="rgb(90,74,156)"/>
<path d="M33 48h2v1h-2v-1z" fill="rgb(255,90,90)"/>
<path d="M35 48h1v1h-1v-1z" fill="rgb(90,74,156)"/>
<path d="M49 48h2v1h-2v-1z" fill="rgb(74,41,74)"/>
<path d="M51 48h1v1h-1v-1z" fill="rgb(189,172,189)"/>
<path d="M52 48h1v1h-1v-1z" fill="rgb(255,246,255)"/>
<path d="M65 48h2v2h-1v-1h-1v-1z" fill="rgb(16,16,16)"/>
<path d="M24 49h2v1h-2v-1z" fill="rgb(74,41,74)"/>
<path d="M30 49h2v1h-2v-1z" fill="rgb(74,41,74)"/>
<path d="M47 49h2v1h-2v-1z" fill="rgb(74,41,74)"/>
<path d="M49 49h1v1h-1v-1z" fill="rgb(189,172,189)"/>
<path d="M50 49h2v2h-1v2h-1v1h-1v-2h-1v-2h2v-1z" fill="rgb(255,246,255)"/>
<path d="M52 49h1v2h-1v-2z" fill="rgb(16,16,16)"/>
<path d="M63 49h1v1h-1v-1z" fill="rgb(74,41,74)"/>
<path d="M64 49h1v1h-1v-1z" fill="rgb(16,16,16)"/>
<path d="M26 50h1v1h-1v-1z" fill="rgb(74,41,74)"/>
<path d="M30 50h1v1h-1v-1z" fill="rgb(90,74,156)"/>
<path d="M31 50h1v1h-1v-1z" fill="rgb(189,172,189)"/>
<path d="M32 50h2v1h-2v-1z" fill="rgb(74,41,74)"/>
<path d="M44 50h3v1h-3v-1z" fill="rgb(74,41,74)"/>
<path d="M47 50h1v2h-1v-2z" fill="rgb(106,98,123)"/>
<path d="M66 50h1v7h-1v2h-1v-3h1v-6z" fill="rgb(74,41,74)"/>
<path d="M31 51h1v2h-1v-2z" fill="rgb(90,74,156)"/>
<path d="M32 51h1v2h-1v-2z" fill="rgb(255,246,255)"/>
<path d="M33 51h1v3h-1v-3z" fill="rgb(106,98,123)"/>
<path d="M34 51h10v1h-10v-1z" fill="rgb(74,41,74)"/>
<path d="M44 51h1v1h-1v-1z" fill="rgb(189,172,189)"/>
<path d="M45 51h2v2h1v2h-1v1h-2v1h-1v-3h-1v-2h2v-1z" fill="rgb(255,246,255)"/>
<path d="M51 51h1v2h-1v-2z" fill="rgb(16,16,16)"/>
<path d="M56 51h1v1h-1v-1z" fill="rgb(123,98,164)"/>
<path d="M34 52h3v3h1v2h-1v-1h-2v-1h-1v-3z" fill="rgb(255,246,255)"/>
<path d="M37 52h1v2h-1v-2z" fill="rgb(106,98,123)"/>
<path d="M38 52h4v3h1v2h-4v-3h-1v-2z" fill="rgb(255,246,255)"/>
<path d="M42 52h1v2h-1v-2z" fill="rgb(106,98,123)"/>
<path d="M47 52h1v1h-1v-1z" fill="rgb(189,172,189)"/>
<path d="M48 52h1v1h-1v-1z" fill="rgb(222,213,222)"/>
<path d="M28 53h1v1h-1v-1z" fill="rgb(74,41,74)"/>
<path d="M32 53h1v1h-1v-1z" fill="rgb(90,74,156)"/>
<path d="M48 53h1v2h-1v-2z" fill="rgb(106,98,123)"/>
<path d="M50 53h1v1h-1v-1z" fill="rgb(16,16,16)"/>
<path d="M28 54h1v2h-1v-2z" fill="rgb(16,16,16)"/>
<path d="M33 54h1v1h-1v-1z" fill="rgb(90,74,156)"/>
<path d="M37 54h1v1h-1v-1z" fill="rgb(189,172,189)"/>
<path d="M38 54h1v1h-1v-1z" fill="rgb(222,213,222)"/>
<path d="M42 54h1v1h-1v-1z" fill="rgb(189,172,189)"/>
<path d="M43 54h1v1h-1v-1z" fill="rgb(222,213,222)"/>
<path d="M49 54h1v1h-1v-1z" fill="rgb(16,16,16)"/>
<path d="M55 54h1v1h-1v-1z" fill="rgb(123,98,164)"/>
<path d="M34 55h1v1h-1v-1z" fill="rgb(74,41,74)"/>
<path d="M38 55h1v2h-1v-2z" fill="rgb(106,98,123)"/>
<path d="M43 55h1v2h-1v-2z" fill="rgb(106,98,123)"/>
<path d="M47 55h2v1h-2v-1z" fill="rgb(74,41,74)"/>
<path d="M29 56h1v1h-1v-1z" fill="rgb(74,41,74)"/>
<path d="M35 56h2v1h-2v-1z" fill="rgb(74,41,74)"/>
<path d="M45 56h2v1h-2v-1z" fill="rgb(74,41,74)"/>
<path d="M54 56h1v1h-1v-1z" fill="rgb(123,98,164)"/>
<path d="M29 57h1v1h-1v-1z" fill="rgb(16,16,16)"/>
<path d="M37 57h8v1h-8v-1z" fill="rgb(74,41,74)"/>
<path d="M67 57h1v1h-1v-1z" fill="rgb(74,41,74)"/>
<path d="M30 58h1v1h-1v-1z" fill="rgb(74,41,74)"/>
<path d="M53 58h1v1h-1v-1z" fill="rgb(123,98,164)"/>
<path d="M68 58h3v1h-3v-1z" fill="rgb(74,41,74)"/>
<path d="M30 59h1v1h-1v-1z" fill="rgb(16,16,16)"/>
<path d="M52 59h1v1h-1v-1z" fill="rgb(123,98,164)"/>
<path d="M64 59h1v2h-1v-2z" fill="rgb(74,41,74)"/>
<path d="M71 59h1v2h-1v-2z" fill="rgb(16,16,16)"/>
<path d="M31 60h1v2h-1v-2z" fill="rgb(16,16,16)"/>
<path d="M32 60h1v1h-1v-1z" fill="rgb(123,98,164)"/>
<path d="M51 60h1v1h-1v-1z" fill="rgb(123,98,164)"/>
<path d="M33 61h1v1h-1v-1z" fill="rgb(123,98,164)"/>
<path d="M50 61h1v1h-1v-1z" fill="rgb(123,98,164)"/>
<path d="M70 61h1v1h-1v-1z" fill="rgb(16,16,16)"/>
<path d="M31 62h1v1h-1v-1z" fill="rgb(74,41,74)"/>
<path d="M35 62h1v1h-1v-1z" fill="rgb(123,98,164)"/>
<path d="M48 62h1v1h-1v-1z" fill="rgb(123,98,164)"/>
<path d="M61 62h1v1h-1v-1z" fill="rgb(74,41,74)"/>
<path d="M69 62h1v1h-1v-1z" fill="rgb(16,16,16)"/>
<path d="M30 63h1v4h-1v-4z" fill="rgb(74,41,74)"/>
<path d="M38 63h1v1h-1v-1z" fill="rgb(123,98,164)"/>
<path d="M45 63h1v1h-1v-1z" fill="rgb(123,98,164)"/>
<path d="M55 63h1v1h-1v-1z" fill="rgb(123,98,164)"/>
<path d="M56 63h6v1h1v2h1v5h-1v1h-1v1h1v1h-2v-1h-1v1h1v1h-2v-1h-3v-2h-1v-1h-1v-1h-1v-1
	h-1v-2h1v-2h1v-1h2v-1z" fill="rgb(148,115,180)"/>
<path d="M62 63h1v1h-1v-1z" fill="rgb(16,16,16)"/>
<path d="M67 63h2v1h-2v-1z" fill="rgb(16,16,16)"/>
<path d="M35 64h1v1h-1v-1z" fill="rgb(74,41,74)"/>
<path d="M53 64h1v1h-1v-1z" fill="rgb(123,98,164)"/>
<path d="M63 64h1v1h1v6h-1v-5h-1v-2z" fill="rgb(16,16,16)"/>
<path d="M65 64h2v1h-2v-1z" fill="rgb(16,16,16)"/>
<path d="M36 65h2v1h-2v-1z" fill="rgb(74,41,74)"/>
<path d="M59 65h2v1h1v3h-1v1h-1v-1h-1v-1h-1v-2h1v-1z" fill="rgb(180,139,189)"/>
<path d="M38 66h2v1h-2v-1z" fill="rgb(16,16,16)"/>
<path d="M52 66h1v1h-1v-1z" fill="rgb(123,98,164)"/>
<path d="M31 67h1v2h-1v-2z" fill="rgb(74,41,74)"/>
<path d="M32 67h2v1h2v1h2v1h1v1h-2v1h-2v-1h-1v-1h-1v-1h-1v-2z" fill="rgb(148,115,180)"/>
<path d="M34 67h1v1h-1v-1z" fill="rgb(123,98,164)"/>
<path d="M40 67h3v1h-3v-1z" fill="rgb(16,16,16)"/>
<path d="M50 67h1v1h-1v-1z" fill="rgb(16,16,16)"/>
<path d="M51 67h1v2h-1v-2z" fill="rgb(74,41,74)"/>
<path d="M36 68h1v1h-1v-1z" fill="rgb(123,98,164)"/>
<path d="M41 68h1v1h-1v-1z" fill="rgb(74,41,74)"/>
<path d="M43 68h7v1h-7v-1z" fill="rgb(16,16,16)"/>
<path d="M32 69h1v1h-1v-1z" fill="rgb(74,41,74)"/>
<path d="M38 69h1v1h-1v-1z" fill="rgb(123,98,164)"/>
<path d="M40 69h1v2h-1v-2z" fill="rgb(16,16,16)"/>
<path d="M52 69h1v1h-1v-1z" fill="rgb(74,41,74)"/>
<path d="M31 70h1v1h-1v-1z" fill="rgb(74,41,74)"/>
<path d="M32 70h1v1h-1v-1z" fill="rgb(148,115,180)"/>
<path d="M33 70h1v1h-1v-1z" fill="rgb(90,74,156)"/>
<path d="M35 70h1v1h-1v-1z" fill="rgb(90,74,156)"/>
<path d="M53 70h1v1h-1v-1z" fill="rgb(74,41,74)"/>
<path d="M31 71h1v1h-1v-1z" fill="rgb(16,16,16)"/>
<path d="M32 71h1v1h-1v-1z" fill="rgb(74,41,74)"/>
<path d="M33 71h1v1h-1v-1z" fill="rgb(148,115,180)"/>
<path d="M34 71h1v1h-1v-1z" fill="rgb(74,41,74)"/>
<path d="M37 71h3v1h-3v-1z" fill="rgb(16,16,16)"/>
<path d="M54 71h1v1h-1v-1z" fill="rgb(74,41,74)"/>
<path d="M63 71h1v2h-1v-2z" fill="rgb(16,16,16)"/>
<path d="M32 72h5v1h-5v-1z" fill="rgb(16,16,16)"/>
<path d="M55 72h1v2h-1v-2z" fill="rgb(74,41,74)"/>
<path d="M62 72h1v1h-1v-1z" fill="rgb(90,74,156)"/>
<path d="M60 73h1v1h-1v-1z" fill="rgb(90,74,156)"/>
<path d="M63 73h1v1h-1v-1z" fill="rgb(90,74,156)"/>
<path d="M56 74h1v1h-1v-1z" fill="rgb(74,41,74)"/>
<path d="M57 74h2v1h-2v-1z" fill="rgb(16,16,16)"/>
<path d="M61 74h1v1h-1v-1z" fill="rgb(74,41,74)"/>
<path d="M62 74h2v1h-2v-1z" fill="rgb(16,16,16)"/>
<path d="M59 75h3v1h-3v-1z" fill="rgb(16,16,16)"/>
</svg>
