<?xml version="1.0" encoding="utf-8"?>
<!-- generated at drububu.com  -->
<!DOCTYPE svg PUBLIC "-//W3C//DTD SVG 1.1//EN" "http://www.w3.org/Graphics/SVG/1.1/DTD/svg11.dtd">
<svg version="1.1" preserveAspectRatio="xMinYMin meet" xmlns="http://www.w3.org/2000/svg" xmlns:xlink="http://www.w3.org/1999/xlink" x="0px" y="0px" width="96px" height="96px" viewBox="0 0 96 96">
<path d="M0 0h96v96h-96v-96z" fill="transparent"/>
<path d="M23 11h1v2h-1v-2z" fill="rgb(189,180,180)"/>
<path d="M24 11h1v1h-1v-1z" fill="rgb(131,123,123)"/>
<path d="M25 11h1v5h-1v-5z" fill="rgb(82,74,74)"/>
<path d="M24 12h1v9h-1v-9z" fill="rgb(222,213,213)"/>
<path d="M23 13h1v7h-1v-7z" fill="rgb(131,123,123)"/>
<path d="M25 16h1v1h-1v-1z" fill="rgb(131,123,123)"/>
<path d="M25 17h1v6h1v4h-1v1h-1v2h-1v3h1v1h-1v1h-2v-1h1v-6h1v-7h1v-4z" fill="rgb(189,180,180)"/>
<path d="M26 17h1v1h-1v-1z" fill="rgb(131,123,123)"/>
<path d="M26 18h1v4h-1v-4z" fill="rgb(82,74,74)"/>
<path d="M53 18h1v1h-1v-1z" fill="rgb(131,123,123)"/>
<path d="M54 18h7v1h-7v-1z" fill="rgb(82,74,74)"/>
<path d="M61 18h1v1h-1v-1z" fill="rgb(131,123,123)"/>
<path d="M52 19h1v1h-1v-1z" fill="rgb(82,74,74)"/>
<path d="M53 19h2v1h1v2h1v1h-3v1h-1v-1h-2v-2h1v-1h1v-1z" fill="rgb(222,213,213)"/>
<path d="M55 19h1v1h-1v-1z" fill="rgb(131,123,123)"/>
<path d="M56 19h6v1h2v1h-3v1h-3v-1h-1v-1h-1v-1z" fill="rgb(222,213,213)"/>
<path d="M62 19h1v1h-1v-1z" fill="rgb(131,123,123)"/>
<path d="M63 19h1v1h-1v-1z" fill="rgb(82,74,74)"/>
<path d="M64 19h1v1h-1v-1z" fill="rgb(131,123,123)"/>
<path d="M23 20h1v1h-1v-1z" fill="rgb(189,180,180)"/>
<path d="M51 20h1v1h-1v-1z" fill="rgb(82,74,74)"/>
<path d="M56 20h1v1h1v1h-2v-2z" fill="rgb(189,180,180)"/>
<path d="M64 20h1v1h2v2h1v3h-1v-1h-2v-1h-2v-1h-1v1h1v1h1v1h1v1h1v3h-1v1h-1v-1h-1v-1h-2v1
	h-1v1h-1v-1h-1v-1h-1v-1h-1v-2h-1v-1h-1v-1h3v-1h3v-1h1v-1h3v-1z" fill="rgb(189,180,180)"/>
<path d="M65 20h1v1h-1v-1z" fill="rgb(16,16,16)"/>
<path d="M66 20h1v1h-1v-1z" fill="rgb(82,74,74)"/>
<path d="M22 21h1v6h-1v-6z" fill="rgb(131,123,123)"/>
<path d="M23 21h1v7h-1v-7z" fill="rgb(222,213,213)"/>
<path d="M40 21h8v1h-8v-1z" fill="rgb(131,123,123)"/>
<path d="M50 21h1v1h-1v-1z" fill="rgb(16,16,16)"/>
<path d="M67 21h1v1h-1v-1z" fill="rgb(82,74,74)"/>
<path d="M26 22h1v1h-1v-1z" fill="rgb(131,123,123)"/>
<path d="M36 22h4v1h-4v-1z" fill="rgb(131,123,123)"/>
<path d="M40 22h8v1h3v1h2v1h-1v1h-1v1h-2v1h-1v1h-6v-1h-2v-1h-2v-1h-1v-1h-1v-2h4v-1z" fill="rgb(222,213,213)"/>
<path d="M48 22h1v1h-1v-1z" fill="rgb(131,123,123)"/>
<path d="M49 22h1v1h-1v-1z" fill="rgb(16,16,16)"/>
<path d="M50 22h1v1h-1v-1z" fill="rgb(82,74,74)"/>
<path d="M57 22h3v1h-3v-1z" fill="rgb(131,123,123)"/>
<path d="M67 22h1v1h-1v-1z" fill="rgb(16,16,16)"/>
<path d="M27 23h1v1h-1v-1z" fill="rgb(131,123,123)"/>
<path d="M35 23h1v2h-2v-1h1v-1z" fill="rgb(131,123,123)"/>
<path d="M51 23h1v1h-1v-1z" fill="rgb(82,74,74)"/>
<path d="M52 23h1v1h-1v-1z" fill="rgb(16,16,16)"/>
<path d="M54 23h3v1h-3v-1z" fill="rgb(131,123,123)"/>
<path d="M62 23h1v1h-1v-1z" fill="rgb(131,123,123)"/>
<path d="M68 23h1v2h-1v-2z" fill="rgb(16,16,16)"/>
<path d="M27 24h1v2h-1v-2z" fill="rgb(82,74,74)"/>
<path d="M53 24h1v1h-1v-1z" fill="rgb(16,16,16)"/>
<path d="M63 24h2v1h2v1h1v1h-2v-1h-2v-1h-1v-1z" fill="rgb(131,123,123)"/>
<path d="M33 25h1v1h-1v-1z" fill="rgb(82,74,74)"/>
<path d="M34 25h2v1h1v2h-4v-2h1v-1z" fill="rgb(222,213,213)"/>
<path d="M36 25h1v1h-1v-1z" fill="rgb(189,180,180)"/>
<path d="M52 25h1v1h-1v-1z" fill="rgb(82,74,74)"/>
<path d="M53 25h1v1h1v2h1v2h1v4h-1v1h-1v1h-1v1h-1v1h-1v-1h-2v-1h-3v1h-1v-1h-1v-1h-1v-1h1
	v-2h1v-2h2v-1h1v-1h2v-1h1v-1h1v-1z" fill="rgb(189,180,180)"/>
<path d="M54 25h1v1h-1v-1z" fill="rgb(16,16,16)"/>
<path d="M68 25h1v1h1v6h-1v-1h-1v-1h-1v-2h-1v-1h2v-2z" fill="rgb(82,74,74)"/>
<path d="M69 25h1v1h-1v-1z" fill="rgb(16,16,16)"/>
<path d="M27 26h1v1h-1v-1z" fill="rgb(16,16,16)"/>
<path d="M32 26h1v1h-1v-1z" fill="rgb(82,74,74)"/>
<path d="M37 26h1v1h-1v-1z" fill="rgb(189,180,180)"/>
<path d="M51 26h1v1h-1v-1z" fill="rgb(82,74,74)"/>
<path d="M55 26h1v2h-1v-2z" fill="rgb(16,16,16)"/>
<path d="M65 26h1v1h-1v-1z" fill="rgb(82,74,74)"/>
<path d="M70 26h1v5h2v1h-3v-6z" fill="rgb(16,16,16)"/>
<path d="M22 27h1v1h-1v-1z" fill="rgb(189,180,180)"/>
<path d="M26 27h1v1h-1v-1z" fill="rgb(16,16,16)"/>
<path d="M27 27h2v1h-1v1h-1v-2z" fill="rgb(131,123,123)"/>
<path d="M32 27h1v1h-1v-1z" fill="rgb(16,16,16)"/>
<path d="M37 27h1v1h-1v-1z" fill="rgb(82,74,74)"/>
<path d="M38 27h2v1h-2v-1z" fill="rgb(131,123,123)"/>
<path d="M49 27h1v1h-1v-1z" fill="rgb(131,123,123)"/>
<path d="M50 27h1v1h-1v-1z" fill="rgb(82,74,74)"/>
<path d="M21 28h1v3h-1v-3z" fill="rgb(131,123,123)"/>
<path d="M22 28h1v6h-1v-6z" fill="rgb(222,213,213)"/>
<path d="M25 28h1v1h-1v-1z" fill="rgb(82,74,74)"/>
<path d="M26 28h1v1h1v3h-1v1h-2v-3h1v-2z" fill="rgb(189,180,180)"/>
<path d="M28 28h2v1h-2v-1z" fill="rgb(82,74,74)"/>
<path d="M30 28h2v1h-2v-1z" fill="rgb(16,16,16)"/>
<path d="M32 28h1v1h-1v-1z" fill="rgb(82,74,74)"/>
<path d="M33 28h3v1h-3v-1z" fill="rgb(189,180,180)"/>
<path d="M36 28h1v1h-1v-1z" fill="rgb(82,74,74)"/>
<path d="M37 28h3v1h2v1h3v2h-1v1h-2v-1h-1v-1h-1v-1h-2v-1h-1v-1z" fill="rgb(189,180,180)"/>
<path d="M40 28h1v1h-1v-1z" fill="rgb(131,123,123)"/>
<path d="M41 28h1v1h-1v-1z" fill="rgb(82,74,74)"/>
<path d="M48 28h1v1h-1v-1z" fill="rgb(131,123,123)"/>
<path d="M56 28h1v2h-1v-2z" fill="rgb(16,16,16)"/>
<path d="M66 28h1v2h1v1h1v4h-1v1h-1v1h-1v1h-3v-1h-1v-1h-1v-2h-1v-3h1v-1h2v1h2v-1h1v-2z" fill="rgb(131,123,123)"/>
<path d="M25 29h1v1h-1v-1z" fill="rgb(131,123,123)"/>
<path d="M28 29h1v2h-1v-2z" fill="rgb(131,123,123)"/>
<path d="M29 29h1v2h-1v-2z" fill="rgb(16,16,16)"/>
<path d="M30 29h3v1h4v1h1v2h-1v1h-1v1h-1v1h-1v-1h-2v1h1v1h1v1h-1v1h-1v1h-2v-1h1v-1h-3v-1
	h-3v-1h-1v-1h1v-1h2v-1h1v-1h1v-1h1v-2z" fill="rgb(189,180,180)"/>
<path d="M33 29h3v1h-3v-1z" fill="rgb(82,74,74)"/>
<path d="M36 29h1v1h-1v-1z" fill="rgb(16,16,16)"/>
<path d="M37 29h1v1h-1v-1z" fill="rgb(131,123,123)"/>
<path d="M42 29h2v1h-2v-1z" fill="rgb(131,123,123)"/>
<path d="M44 29h1v1h-1v-1z" fill="rgb(82,74,74)"/>
<path d="M45 29h1v1h-1v-1z" fill="rgb(189,180,180)"/>
<path d="M46 29h1v1h-1v-1z" fill="rgb(82,74,74)"/>
<path d="M47 29h1v1h-1v-1z" fill="rgb(131,123,123)"/>
<path d="M57 29h1v1h-1v-1z" fill="rgb(131,123,123)"/>
<path d="M61 29h2v1h-2v-1z" fill="rgb(82,74,74)"/>
<path d="M24 30h1v1h-1v-1z" fill="rgb(131,123,123)"/>
<path d="M37 30h2v1h-2v-1z" fill="rgb(82,74,74)"/>
<path d="M39 30h1v1h-1v-1z" fill="rgb(131,123,123)"/>
<path d="M45 30h1v2h-1v-2z" fill="rgb(82,74,74)"/>
<path d="M57 30h1v5h-1v-5z" fill="rgb(16,16,16)"/>
<path d="M58 30h1v1h1v3h1v3h2v1h2v1h-1v1h-1v1h-5v-1h-2v-1h1v-4h1v-5z" fill="rgb(82,74,74)"/>
<path d="M60 30h1v1h-1v-1z" fill="rgb(82,74,74)"/>
<path d="M63 30h1v1h-1v-1z" fill="rgb(82,74,74)"/>
<path d="M20 31h1v1h-1v-1z" fill="rgb(131,123,123)"/>
<path d="M21 31h1v3h-1v-3z" fill="rgb(82,74,74)"/>
<path d="M24 31h1v2h-1v-2z" fill="rgb(82,74,74)"/>
<path d="M28 31h1v1h-1v-1z" fill="rgb(16,16,16)"/>
<path d="M38 31h1v1h-1v-1z" fill="rgb(131,123,123)"/>
<path d="M39 31h1v1h-1v-1z" fill="rgb(16,16,16)"/>
<path d="M40 31h1v1h-1v-1z" fill="rgb(131,123,123)"/>
<path d="M19 32h1v1h-1v-1z" fill="rgb(131,123,123)"/>
<path d="M20 32h1v1h-1v-1z" fill="rgb(246,238,238)"/>
<path d="M27 32h1v1h-1v-1z" fill="rgb(82,74,74)"/>
<path d="M32 32h3v1h-3v-1z" fill="rgb(131,123,123)"/>
<path d="M38 32h1v1h-1v-1z" fill="rgb(16,16,16)"/>
<path d="M39 32h1v2h-1v-2z" fill="rgb(82,74,74)"/>
<path d="M40 32h1v2h-1v-2z" fill="rgb(16,16,16)"/>
<path d="M41 32h1v1h2v1h-1v1h-1v-1h-1v-2z" fill="rgb(131,123,123)"/>
<path d="M44 32h1v1h-1v-1z" fill="rgb(131,123,123)"/>
<path d="M63 32h1v2h-1v-2z" fill="rgb(82,74,74)"/>
<path d="M69 32h1v3h-1v-3z" fill="rgb(16,16,16)"/>
<path d="M70 32h3v1h1v2h1v5h-1v1h-1v-2h-1v-1h-1v-1h-2v-2h1v-3z" fill="rgb(82,74,74)"/>
<path d="M73 32h1v1h-1v-1z" fill="rgb(16,16,16)"/>
<path d="M18 33h1v1h-1v-1z" fill="rgb(131,123,123)"/>
<path d="M19 33h1v2h-1v-2z" fill="rgb(246,238,238)"/>
<path d="M20 33h1v2h1v1h3v1h3v1h3v1h-1v1h-3v1h-4v-2h-1v2h1v1h-1v2h-1v3h-1v2h-1v3h1v1h-1
	v1h-2v-3h1v-4h1v-4h1v-4h-1v2h-2v-1h-1v-1h-1v-2h1v-1h2v1h1v-2h1v-2z" fill="rgb(222,213,213)"/>
<path d="M25 33h1v1h-1v-1z" fill="rgb(16,16,16)"/>
<path d="M26 33h1v1h-1v-1z" fill="rgb(82,74,74)"/>
<path d="M31 33h1v1h-1v-1z" fill="rgb(131,123,123)"/>
<path d="M37 33h1v1h-1v-1z" fill="rgb(82,74,74)"/>
<path d="M38 33h1v1h1v1h2v1h1v1h1v2h1v1h1v2h1v4h-1v1h-1v1h-1v1h-1v-1h-3v-1h-1v-1h-1v-3h1
	v-2h1v-1h-2v-1h-1v1h-2v1h-1v1h-2v-2h1v-1h1v-1h1v-1h-1v-1h1v-1h2v-1h1v-1z" fill="rgb(131,123,123)"/>
<path d="M44 33h1v1h-1v-1z" fill="rgb(82,74,74)"/>
<path d="M74 33h1v2h-1v-2z" fill="rgb(16,16,16)"/>
<path d="M17 34h1v1h-1v-1z" fill="rgb(131,123,123)"/>
<path d="M18 34h1v1h-1v-1z" fill="rgb(82,74,74)"/>
<path d="M21 34h1v1h-1v-1z" fill="rgb(131,123,123)"/>
<path d="M24 34h1v1h-1v-1z" fill="rgb(16,16,16)"/>
<path d="M31 34h1v1h-1v-1z" fill="rgb(82,74,74)"/>
<path d="M36 34h1v1h-1v-1z" fill="rgb(82,74,74)"/>
<path d="M40 34h1v1h-1v-1z" fill="rgb(82,74,74)"/>
<path d="M41 34h1v1h-1v-1z" fill="rgb(16,16,16)"/>
<path d="M43 34h1v1h1v2h-1v-1h-1v-2z" fill="rgb(82,74,74)"/>
<path d="M56 34h1v1h-1v-1z" fill="rgb(131,123,123)"/>
<path d="M62 34h1v1h-1v-1z" fill="rgb(82,74,74)"/>
<path d="M16 35h1v1h-1v-1z" fill="rgb(131,123,123)"/>
<path d="M17 35h1v1h-1v-1z" fill="rgb(189,180,180)"/>
<path d="M18 35h1v2h-1v-2z" fill="rgb(131,123,123)"/>
<path d="M22 35h1v1h-1v-1z" fill="rgb(131,123,123)"/>
<path d="M23 35h1v1h-1v-1z" fill="rgb(82,74,74)"/>
<path d="M32 35h1v1h-1v-1z" fill="rgb(82,74,74)"/>
<path d="M33 35h1v1h-1v-1z" fill="rgb(131,123,123)"/>
<path d="M42 35h1v1h-1v-1z" fill="rgb(16,16,16)"/>
<path d="M55 35h1v4h-1v3h-1v1h-1v1h-1v1h-2v1h-2v-1h1v-2h1v-3h-1v-1h-1v-1h-1v-1h3v1h2v2h1
	v-3h1v-1h1v-1z" fill="rgb(131,123,123)"/>
<path d="M56 35h1v4h-1v-4z" fill="rgb(16,16,16)"/>
<path d="M62 35h1v1h-1v-1z" fill="rgb(16,16,16)"/>
<path d="M68 35h1v2h-1v-2z" fill="rgb(16,16,16)"/>
<path d="M75 35h1v5h-1v-5z" fill="rgb(16,16,16)"/>
<path d="M15 36h1v1h-1v-1z" fill="rgb(131,123,123)"/>
<path d="M33 36h1v1h-1v-1z" fill="rgb(82,74,74)"/>
<path d="M43 36h1v1h-1v-1z" fill="rgb(16,16,16)"/>
<path d="M45 36h1v1h-1v-1z" fill="rgb(131,123,123)"/>
<path d="M47 36h3v1h-3v-1z" fill="rgb(82,74,74)"/>
<path d="M61 36h1v1h-1v-1z" fill="rgb(16,16,16)"/>
<path d="M67 36h1v1h-1v-1z" fill="rgb(82,74,74)"/>
<path d="M14 37h1v1h-1v-1z" fill="rgb(131,123,123)"/>
<path d="M17 37h1v1h-1v-1z" fill="rgb(131,123,123)"/>
<path d="M34 37h1v1h-1v-1z" fill="rgb(82,74,74)"/>
<path d="M44 37h1v2h-1v-2z" fill="rgb(16,16,16)"/>
<path d="M45 37h2v1h1v1h1v1h1v3h-1v2h-1v-3h-1v-2h-1v-1h-1v-2z" fill="rgb(82,74,74)"/>
<path d="M50 37h2v1h-2v-1z" fill="rgb(82,74,74)"/>
<path d="M66 37h2v1h-2v-1z" fill="rgb(16,16,16)"/>
<path d="M68 37h1v1h-1v-1z" fill="rgb(82,74,74)"/>
<path d="M69 37h2v1h1v1h1v2h-1v1h-1v1h-1v1h-3v-1h-1v-1h-2v-2h1v-1h2v-1h2v-1z" fill="rgb(131,123,123)"/>
<path d="M14 38h1v2h-1v-2z" fill="rgb(82,74,74)"/>
<path d="M17 38h1v1h-1v-1z" fill="rgb(189,180,180)"/>
<path d="M33 38h1v1h-1v-1z" fill="rgb(82,74,74)"/>
<path d="M41 38h1v1h-1v-1z" fill="rgb(82,74,74)"/>
<path d="M52 38h1v2h-1v-2z" fill="rgb(82,74,74)"/>
<path d="M65 38h1v1h-1v-1z" fill="rgb(16,16,16)"/>
<path d="M66 38h1v1h-1v-1z" fill="rgb(82,74,74)"/>
<path d="M15 39h1v1h-1v-1z" fill="rgb(189,180,180)"/>
<path d="M19 39h1v1h-1v-1z" fill="rgb(189,180,180)"/>
<path d="M22 39h1v1h-1v-1z" fill="rgb(189,180,180)"/>
<path d="M32 39h1v1h-1v-1z" fill="rgb(16,16,16)"/>
<path d="M37 39h1v1h1v1h-1v2h-1v2h-2v1h-2v1h-2v1h-1v-1h-3v-1h-1v-1h4v-1h1v-1h3v-1h1v-1h1
	v-1h1v-1z" fill="rgb(189,180,180)"/>
<path d="M40 39h1v1h-1v-1z" fill="rgb(82,74,74)"/>
<path d="M45 39h1v1h-1v-1z" fill="rgb(16,16,16)"/>
<path d="M55 39h1v1h2v1h-2v1h-1v-3z" fill="rgb(16,16,16)"/>
<path d="M64 39h1v1h-1v-1z" fill="rgb(16,16,16)"/>
<path d="M15 40h1v3h-1v-3z" fill="rgb(82,74,74)"/>
<path d="M16 40h1v1h-1v-1z" fill="rgb(131,123,123)"/>
<path d="M19 40h1v1h-1v-1z" fill="rgb(131,123,123)"/>
<path d="M22 40h1v1h-1v-1z" fill="rgb(131,123,123)"/>
<path d="M27 40h1v1h-1v-1z" fill="rgb(189,180,180)"/>
<path d="M28 40h1v1h-1v-1z" fill="rgb(131,123,123)"/>
<path d="M29 40h1v1h-1v-1z" fill="rgb(82,74,74)"/>
<path d="M30 40h2v1h-2v-1z" fill="rgb(16,16,16)"/>
<path d="M35 40h1v1h-1v-1z" fill="rgb(82,74,74)"/>
<path d="M39 40h1v1h-1v-1z" fill="rgb(82,74,74)"/>
<path d="M46 40h1v2h-1v-2z" fill="rgb(16,16,16)"/>
<path d="M63 40h1v1h-1v-1z" fill="rgb(16,16,16)"/>
<path d="M74 40h1v1h-1v-1z" fill="rgb(16,16,16)"/>
<path d="M75 40h1v2h1v3h1v6h-1v2h-2v-5h-1v-1h-1v-1h-1v-1h-2v-1h2v-1h1v-1h1v-1h1v-1z" fill="rgb(82,74,74)"/>
<path d="M76 40h1v2h-1v-2z" fill="rgb(16,16,16)"/>
<path d="M16 41h1v1h-1v-1z" fill="rgb(222,213,213)"/>
<path d="M17 41h1v1h-1v-1z" fill="rgb(82,74,74)"/>
<path d="M18 41h1v1h-1v-1z" fill="rgb(189,180,180)"/>
<path d="M19 41h1v1h-1v-1z" fill="rgb(82,74,74)"/>
<path d="M23 41h1v1h-1v-1z" fill="rgb(82,74,74)"/>
<path d="M24 41h1v1h-1v-1z" fill="rgb(189,180,180)"/>
<path d="M25 41h1v1h-1v-1z" fill="rgb(131,123,123)"/>
<path d="M26 41h1v1h-1v-1z" fill="rgb(82,74,74)"/>
<path d="M27 41h1v1h-1v-1z" fill="rgb(131,123,123)"/>
<path d="M28 41h1v1h-1v-1z" fill="rgb(222,213,213)"/>
<path d="M29 41h1v1h1v1h-2v1h-1v-2h1v-1z" fill="rgb(255,255,255)"/>
<path d="M30 41h1v1h-1v-1z" fill="rgb(222,213,213)"/>
<path d="M31 41h1v1h-1v-1z" fill="rgb(82,74,74)"/>
<path d="M34 41h1v1h-1v-1z" fill="rgb(82,74,74)"/>
<path d="M38 41h1v2h-1v-2z" fill="rgb(82,74,74)"/>
<path d="M58 41h5v1h-2v2h-1v-2h-2v-1z" fill="rgb(16,16,16)"/>
<path d="M63 41h1v1h-1v-1z" fill="rgb(189,180,180)"/>
<path d="M72 41h1v1h-1v-1z" fill="rgb(82,74,74)"/>
<path d="M73 41h1v1h-1v-1z" fill="rgb(16,16,16)"/>
<path d="M14 42h1v2h-1v-2z" fill="rgb(131,123,123)"/>
<path d="M16 42h1v2h-1v-2z" fill="rgb(255,255,255)"/>
<path d="M17 42h1v1h-1v-1z" fill="rgb(222,213,213)"/>
<path d="M18 42h1v3h-3v-1h2v-2z" fill="rgb(82,74,74)"/>
<path d="M19 42h1v1h-1v-1z" fill="rgb(189,180,180)"/>
<path d="M22 42h1v1h-1v-1z" fill="rgb(189,180,180)"/>
<path d="M23 42h1v4h-1v1h-1v1h-1v-3h1v-2h1v-1z" fill="rgb(131,123,123)"/>
<path d="M24 42h1v1h-1v-1z" fill="rgb(82,74,74)"/>
<path d="M25 42h1v1h-1v-1z" fill="rgb(16,16,16)"/>
<path d="M26 42h2v1h-2v-1z" fill="rgb(222,213,213)"/>
<path d="M31 42h1v1h-1v-1z" fill="rgb(16,16,16)"/>
<path d="M32 42h2v1h-2v-1z" fill="rgb(82,74,74)"/>
<path d="M47 42h1v3h-1v-3z" fill="rgb(16,16,16)"/>
<path d="M54 42h1v1h-1v-1z" fill="rgb(16,16,16)"/>
<path d="M61 42h2v1h-2v-1z" fill="rgb(189,180,180)"/>
<path d="M63 42h1v1h-1v-1z" fill="rgb(16,16,16)"/>
<path d="M64 42h2v1h1v1h-2v-1h-1v-1z" fill="rgb(189,180,180)"/>
<path d="M71 42h1v1h-1v-1z" fill="rgb(82,74,74)"/>
<path d="M72 42h1v1h-1v-1z" fill="rgb(16,16,16)"/>
<path d="M77 42h1v3h-1v-3z" fill="rgb(16,16,16)"/>
<path d="M15 43h1v1h-1v-1z" fill="rgb(16,16,16)"/>
<path d="M17 43h1v1h-1v-1z" fill="rgb(16,16,16)"/>
<path d="M24 43h1v1h-1v-1z" fill="rgb(16,16,16)"/>
<path d="M25 43h1v1h-1v-1z" fill="rgb(222,213,213)"/>
<path d="M26 43h1v1h-1v-1z" fill="rgb(255,255,255)"/>
<path d="M27 43h1v1h-1v-1z" fill="rgb(16,16,16)"/>
<path d="M29 43h1v1h-1v-1z" fill="rgb(222,213,213)"/>
<path d="M30 43h1v1h-1v-1z" fill="rgb(131,123,123)"/>
<path d="M37 43h1v1h-1v-1z" fill="rgb(82,74,74)"/>
<path d="M53 43h1v1h-1v-1z" fill="rgb(16,16,16)"/>
<path d="M61 43h2v1h1v1h1v2h1v1h-1v1h-2v1h-1v1h-1v-2h-1v-5h1v-1z" fill="rgb(222,213,213)"/>
<path d="M63 43h1v1h-1v-1z" fill="rgb(189,180,180)"/>
<path d="M64 43h1v1h-1v-1z" fill="rgb(16,16,16)"/>
<path d="M70 43h2v1h-2v-1z" fill="rgb(16,16,16)"/>
<path d="M14 44h1v2h-1v-2z" fill="rgb(82,74,74)"/>
<path d="M15 44h1v1h-1v-1z" fill="rgb(189,180,180)"/>
<path d="M21 44h1v1h-1v-1z" fill="rgb(189,180,180)"/>
<path d="M24 44h1v1h-1v-1z" fill="rgb(82,74,74)"/>
<path d="M25 44h2v1h-2v-1z" fill="rgb(16,16,16)"/>
<path d="M27 44h2v1h-2v-1z" fill="rgb(82,74,74)"/>
<path d="M29 44h1v1h-1v-1z" fill="rgb(131,123,123)"/>
<path d="M37 44h1v2h-1v-2z" fill="rgb(16,16,16)"/>
<path d="M52 44h1v1h-1v-1z" fill="rgb(16,16,16)"/>
<path d="M59 44h1v1h-1v-1z" fill="rgb(82,74,74)"/>
<path d="M64 44h1v1h-1v-1z" fill="rgb(189,180,180)"/>
<path d="M65 44h5v1h-5v-1z" fill="rgb(16,16,16)"/>
<path d="M15 45h3v2h-1v1h-1v-1h-1v-2z" fill="rgb(222,213,213)"/>
<path d="M18 45h1v2h-1v-2z" fill="rgb(131,123,123)"/>
<path d="M24 45h1v1h-1v-1z" fill="rgb(16,16,16)"/>
<path d="M25 45h1v1h-1v-1z" fill="rgb(131,123,123)"/>
<path d="M35 45h1v1h-1v-1z" fill="rgb(16,16,16)"/>
<path d="M36 45h1v1h1v1h1v1h1v1h3v1h-4v-1h-1v-1h-1v-1h-2v-1h1v-1z" fill="rgb(131,123,123)"/>
<path d="M47 45h1v1h-1v-1z" fill="rgb(82,74,74)"/>
<path d="M50 45h2v1h-2v-1z" fill="rgb(16,16,16)"/>
<path d="M59 45h1v4h-1v-2h-1v-1h1v-1z" fill="rgb(16,16,16)"/>
<path d="M65 45h4v1h2v1h-1v1h-2v1h-1v-1h-1v-1h-1v-2z" fill="rgb(189,180,180)"/>
<path d="M69 45h3v1h1v1h1v1h1v5h-2v1h-1v1h-4v-1h-1v-2h-1v-1h1v-1h1v-2h2v-1h1v-1h-2v-1z" fill="rgb(131,123,123)"/>
<path d="M78 45h1v6h-1v-6z" fill="rgb(16,16,16)"/>
<path d="M14 46h1v2h-1v-2z" fill="rgb(131,123,123)"/>
<path d="M23 46h1v1h-1v-1z" fill="rgb(16,16,16)"/>
<path d="M24 46h1v1h-1v-1z" fill="rgb(189,180,180)"/>
<path d="M25 46h2v1h3v1h-1v1h-2v1h-2v1h-2v1h-3v-1h1v-1h1v-1h1v-2h2v-1z" fill="rgb(222,213,213)"/>
<path d="M33 46h2v1h-2v-1z" fill="rgb(82,74,74)"/>
<path d="M38 46h1v1h-1v-1z" fill="rgb(16,16,16)"/>
<path d="M46 46h4v1h-4v-1z" fill="rgb(16,16,16)"/>
<path d="M57 46h1v1h-1v-1z" fill="rgb(82,74,74)"/>
<path d="M15 47h1v1h1v3h-1v-1h-1v-1h-1v-1h1v-1z" fill="rgb(246,238,238)"/>
<path d="M17 47h1v1h-1v-1z" fill="rgb(189,180,180)"/>
<path d="M20 47h1v1h-1v-1z" fill="rgb(189,180,180)"/>
<path d="M22 47h1v1h-1v-1z" fill="rgb(82,74,74)"/>
<path d="M31 47h1v1h1v-1h2v1h-1v1h-2v1h-1v1h-1v1h-1v-1h-1v-1h1v-2h1v1h1v-2z" fill="rgb(131,123,123)"/>
<path d="M32 47h1v1h-1v-1z" fill="rgb(82,74,74)"/>
<path d="M35 47h2v1h1v1h-2v2h-1v2h-1v2h-1v2h-1v2h-2v1h-5v-2h-1v-2h-1v2h-1v-3h3v-1h2v-1h2
	v-1h1v-1h1v-1h1v-1h2v-1h1v-1z" fill="rgb(16,16,16)"/>
<path d="M39 47h1v1h-1v-1z" fill="rgb(82,74,74)"/>
<path d="M45 47h1v1h-1v-1z" fill="rgb(16,16,16)"/>
<path d="M55 47h1v1h-1v-1z" fill="rgb(131,123,123)"/>
<path d="M56 47h1v1h-1v-1z" fill="rgb(16,16,16)"/>
<path d="M57 47h2v2h-1v-1h-1v-1z" fill="rgb(131,123,123)"/>
<path d="M13 48h1v2h-1v-2z" fill="rgb(131,123,123)"/>
<path d="M17 48h1v3h-1v-3z" fill="rgb(131,123,123)"/>
<path d="M20 48h1v2h-1v-2z" fill="rgb(131,123,123)"/>
<path d="M21 48h1v2h-1v-2z" fill="rgb(82,74,74)"/>
<path d="M22 48h1v1h-1v-1z" fill="rgb(189,180,180)"/>
<path d="M30 48h1v1h-1v-1z" fill="rgb(82,74,74)"/>
<path d="M40 48h1v1h-1v-1z" fill="rgb(82,74,74)"/>
<path d="M41 48h2v1h-2v-1z" fill="rgb(16,16,16)"/>
<path d="M44 48h1v1h-1v-1z" fill="rgb(16,16,16)"/>
<path d="M53 48h1v1h-1v-1z" fill="rgb(131,123,123)"/>
<path d="M54 48h1v1h-1v-1z" fill="rgb(82,74,74)"/>
<path d="M55 48h3v2h-1v2h-1v2h1v2h1v1h-2v1h-2v-1h-1v-2h-1v-5h1v-1h2v-1z" fill="rgb(222,213,213)"/>
<path d="M65 48h1v1h-1v-1z" fill="rgb(131,123,123)"/>
<path d="M66 48h1v1h-1v-1z" fill="rgb(82,74,74)"/>
<path d="M14 49h1v1h-1v-1z" fill="rgb(189,180,180)"/>
<path d="M19 49h1v1h-1v-1z" fill="rgb(189,180,180)"/>
<path d="M27 49h1v1h-1v-1z" fill="rgb(131,123,123)"/>
<path d="M28 49h1v1h-1v-1z" fill="rgb(82,74,74)"/>
<path d="M36 49h2v1h1v1h1v2h-1v-1h-1v-1h-2v-2z" fill="rgb(82,74,74)"/>
<path d="M38 49h1v1h-1v-1z" fill="rgb(16,16,16)"/>
<path d="M43 49h1v1h-1v-1z" fill="rgb(16,16,16)"/>
<path d="M52 49h1v1h-1v-1z" fill="rgb(131,123,123)"/>
<path d="M58 49h1v1h1v1h1v3h-1v1h-1v1h-1v-2h-1v-4h1v-1z" fill="rgb(189,180,180)"/>
<path d="M59 49h1v1h-1v-1z" fill="rgb(82,74,74)"/>
<path d="M60 49h1v2h-1v-2z" fill="rgb(16,16,16)"/>
<path d="M63 49h2v1h-2v-1z" fill="rgb(131,123,123)"/>
<path d="M65 49h2v2h-1v3h-2v-1h-2v-2h1v-1h2v-1z" fill="rgb(189,180,180)"/>
<path d="M67 49h1v1h-1v-1z" fill="rgb(82,74,74)"/>
<path d="M13 50h1v2h-1v-2z" fill="rgb(82,74,74)"/>
<path d="M14 50h1v1h-1v-1z" fill="rgb(222,213,213)"/>
<path d="M15 50h1v1h-1v-1z" fill="rgb(131,123,123)"/>
<path d="M19 50h1v1h-1v-1z" fill="rgb(131,123,123)"/>
<path d="M20 50h1v1h-1v-1z" fill="rgb(82,74,74)"/>
<path d="M25 50h2v1h-2v-1z" fill="rgb(131,123,123)"/>
<path d="M27 50h1v1h1v1h-1v1h-2v1h-5v1h-4v-1h2v-1h4v-1h2v-1h2v-1z" fill="rgb(189,180,180)"/>
<path d="M39 50h4v1h-2v2h-1v-2h-1v-1z" fill="rgb(16,16,16)"/>
<path d="M51 50h1v1h-1v-1z" fill="rgb(131,123,123)"/>
<path d="M62 50h1v1h-1v-1z" fill="rgb(131,123,123)"/>
<path d="M14 51h2v1h1v2h-1v-1h-1v-1h-1v-1z" fill="rgb(189,180,180)"/>
<path d="M16 51h1v1h-1v-1z" fill="rgb(131,123,123)"/>
<path d="M19 51h1v1h-1v-1z" fill="rgb(82,74,74)"/>
<path d="M23 51h2v1h-2v-1z" fill="rgb(131,123,123)"/>
<path d="M35 51h1v1h-1v-1z" fill="rgb(82,74,74)"/>
<path d="M36 51h1v5h-1v2h-1v1h-1v1h-1v1h-5v-1h4v-1h1v-2h1v-2h1v-2h1v-2z" fill="rgb(189,180,180)"/>
<path d="M37 51h1v3h-1v-3z" fill="rgb(131,123,123)"/>
<path d="M51 51h1v3h-1v-3z" fill="rgb(82,74,74)"/>
<path d="M61 51h1v2h-1v-2z" fill="rgb(16,16,16)"/>
<path d="M77 51h1v2h-1v-2z" fill="rgb(16,16,16)"/>
<path d="M14 52h1v1h-1v-1z" fill="rgb(82,74,74)"/>
<path d="M20 52h1v1h-1v-1z" fill="rgb(131,123,123)"/>
<path d="M21 52h2v1h-2v-1z" fill="rgb(82,74,74)"/>
<path d="M28 52h1v1h-1v-1z" fill="rgb(131,123,123)"/>
<path d="M35 52h1v1h-1v-1z" fill="rgb(131,123,123)"/>
<path d="M38 52h1v2h-1v-2z" fill="rgb(189,180,180)"/>
<path d="M56 52h1v2h-1v-2z" fill="rgb(131,123,123)"/>
<path d="M66 52h1v2h-1v-2z" fill="rgb(82,74,74)"/>
<path d="M15 53h1v1h-1v-1z" fill="rgb(82,74,74)"/>
<path d="M26 53h1v1h-1v-1z" fill="rgb(82,74,74)"/>
<path d="M34 53h1v2h-1v-2z" fill="rgb(82,74,74)"/>
<path d="M39 53h1v2h-1v-2z" fill="rgb(16,16,16)"/>
<path d="M61 53h1v1h1v1h3v1h3v1h-1v1h-1v2h-1v1h-1v-1h-2v-1h-1v-1h-1v-1h-1v-3h1v-1z" fill="rgb(82,74,74)"/>
<path d="M62 53h1v1h-1v-1z" fill="rgb(16,16,16)"/>
<path d="M63 53h1v1h-1v-1z" fill="rgb(131,123,123)"/>
<path d="M73 53h2v1h-2v-1z" fill="rgb(82,74,74)"/>
<path d="M75 53h2v1h-2v-1z" fill="rgb(16,16,16)"/>
<path d="M16 54h1v1h-1v-1z" fill="rgb(16,16,16)"/>
<path d="M21 54h4v1h-4v-1z" fill="rgb(82,74,74)"/>
<path d="M37 54h1v2h-1v-2z" fill="rgb(82,74,74)"/>
<path d="M38 54h1v1h-1v-1z" fill="rgb(131,123,123)"/>
<path d="M49 54h1v1h-1v-1z" fill="rgb(82,74,74)"/>
<path d="M50 54h2v1h-2v-1z" fill="rgb(16,16,16)"/>
<path d="M57 54h1v1h-1v-1z" fill="rgb(131,123,123)"/>
<path d="M63 54h4v1h6v1h-3v1h-1v-1h-3v-1h-3v-1z" fill="rgb(16,16,16)"/>
<path d="M67 54h1v1h-1v-1z" fill="rgb(82,74,74)"/>
<path d="M72 54h1v1h-1v-1z" fill="rgb(82,74,74)"/>
<path d="M73 54h2v1h-2v-1z" fill="rgb(16,16,16)"/>
<path d="M17 55h1v1h-1v-1z" fill="rgb(82,74,74)"/>
<path d="M18 55h2v1h-2v-1z" fill="rgb(16,16,16)"/>
<path d="M20 55h1v1h-1v-1z" fill="rgb(82,74,74)"/>
<path d="M33 55h1v2h-1v-2z" fill="rgb(82,74,74)"/>
<path d="M38 55h1v1h-1v-1z" fill="rgb(16,16,16)"/>
<path d="M47 55h1v1h-1v-1z" fill="rgb(82,74,74)"/>
<path d="M48 55h1v1h-1v-1z" fill="rgb(16,16,16)"/>
<path d="M49 55h3v3h-1v-1h-1v-1h-1v-1z" fill="rgb(131,123,123)"/>
<path d="M52 55h1v1h-1v-1z" fill="rgb(82,74,74)"/>
<path d="M57 55h1v1h-1v-1z" fill="rgb(82,74,74)"/>
<path d="M59 55h1v2h1v1h1v1h1v1h2v1h-2v1h-6v-1h-2v-1h-1v-2h2v-1h3v-2z" fill="rgb(131,123,123)"/>
<path d="M23 56h1v2h-1v-2z" fill="rgb(82,74,74)"/>
<path d="M36 56h1v1h-1v-1z" fill="rgb(131,123,123)"/>
<path d="M37 56h1v1h-1v-1z" fill="rgb(16,16,16)"/>
<path d="M46 56h1v1h-1v-1z" fill="rgb(82,74,74)"/>
<path d="M47 56h3v1h1v1h1v4h-1v1h-2v-1h-1v-1h-1v-1h-1v-3h1v-1z" fill="rgb(222,213,213)"/>
<path d="M52 56h1v2h-1v-2z" fill="rgb(16,16,16)"/>
<path d="M58 56h1v1h-1v-1z" fill="rgb(82,74,74)"/>
<path d="M81 56h3v1h-3v-1z" fill="rgb(16,16,16)"/>
<path d="M32 57h1v1h-1v-1z" fill="rgb(82,74,74)"/>
<path d="M36 57h1v2h-1v-2z" fill="rgb(16,16,16)"/>
<path d="M45 57h1v1h-1v-1z" fill="rgb(131,123,123)"/>
<path d="M53 57h1v1h-1v-1z" fill="rgb(131,123,123)"/>
<path d="M68 57h1v1h-1v-1z" fill="rgb(16,16,16)"/>
<path d="M80 57h1v1h-1v-1z" fill="rgb(16,16,16)"/>
<path d="M81 57h1v1h-1v-1z" fill="rgb(189,180,180)"/>
<path d="M82 57h1v1h-1v-1z" fill="rgb(131,123,123)"/>
<path d="M83 57h1v4h-2v-3h1v-1z" fill="rgb(82,74,74)"/>
<path d="M84 57h1v4h-1v-4z" fill="rgb(16,16,16)"/>
<path d="M22 58h1v1h-1v-1z" fill="rgb(82,74,74)"/>
<path d="M23 58h1v1h-1v-1z" fill="rgb(131,123,123)"/>
<path d="M24 58h1v1h-1v-1z" fill="rgb(82,74,74)"/>
<path d="M32 58h1v1h-1v-1z" fill="rgb(131,123,123)"/>
<path d="M35 58h1v1h-1v-1z" fill="rgb(131,123,123)"/>
<path d="M45 58h1v1h-1v-1z" fill="rgb(82,74,74)"/>
<path d="M52 58h1v1h-1v-1z" fill="rgb(131,123,123)"/>
<path d="M53 58h1v1h-1v-1z" fill="rgb(82,74,74)"/>
<path d="M67 58h1v2h-1v-2z" fill="rgb(16,16,16)"/>
<path d="M78 58h1v1h-1v-1z" fill="rgb(82,74,74)"/>
<path d="M79 58h1v1h-1v-1z" fill="rgb(16,16,16)"/>
<path d="M80 58h2v2h-1v-1h-1v-1z" fill="rgb(131,123,123)"/>
<path d="M23 59h1v1h-1v-1z" fill="rgb(16,16,16)"/>
<path d="M24 59h1v1h1v1h-2v-2z" fill="rgb(189,180,180)"/>
<path d="M30 59h1v1h-1v-1z" fill="rgb(82,74,74)"/>
<path d="M31 59h1v1h-1v-1z" fill="rgb(131,123,123)"/>
<path d="M34 59h1v1h-1v-1z" fill="rgb(131,123,123)"/>
<path d="M35 59h1v1h-1v-1z" fill="rgb(16,16,16)"/>
<path d="M45 59h1v1h-1v-1z" fill="rgb(131,123,123)"/>
<path d="M52 59h1v2h-1v-2z" fill="rgb(189,180,180)"/>
<path d="M53 59h1v1h-1v-1z" fill="rgb(16,16,16)"/>
<path d="M76 59h1v1h-1v-1z" fill="rgb(131,123,123)"/>
<path d="M77 59h1v1h-1v-1z" fill="rgb(82,74,74)"/>
<path d="M78 59h1v1h-1v-1z" fill="rgb(189,180,180)"/>
<path d="M79 59h1v3h-1v1h-1v1h-2v1h-2v-2h1v-1h1v-1h2v-1h1v-1z" fill="rgb(131,123,123)"/>
<path d="M80 59h1v1h-1v-1z" fill="rgb(16,16,16)"/>
<path d="M23 60h1v1h-1v-1z" fill="rgb(82,74,74)"/>
<path d="M26 60h2v1h3v1h-6v-1h1v-1z" fill="rgb(222,213,213)"/>
<path d="M33 60h2v1h-2v-1z" fill="rgb(16,16,16)"/>
<path d="M44 60h1v3h-1v-3z" fill="rgb(82,74,74)"/>
<path d="M45 60h2v2h-1v-1h-1v-1z" fill="rgb(189,180,180)"/>
<path d="M53 60h1v1h1v1h2v1h1v2h-1v1h-1v1h-1v-1h-1v-2h-1v-2h-1v-1h1v-1z" fill="rgb(82,74,74)"/>
<path d="M54 60h1v1h-1v-1z" fill="rgb(16,16,16)"/>
<path d="M66 60h1v1h-1v-1z" fill="rgb(16,16,16)"/>
<path d="M75 60h1v1h-1v-1z" fill="rgb(131,123,123)"/>
<path d="M76 60h2v1h-2v-1z" fill="rgb(189,180,180)"/>
<path d="M80 60h1v4h-1v1h-1v1h-2v1h-1v-1h-1v-1h1v-1h2v-1h1v-1h1v-2z" fill="rgb(82,74,74)"/>
<path d="M81 60h1v1h2v1h-2v2h-1v-4z" fill="rgb(16,16,16)"/>
<path d="M24 61h1v1h-1v-1z" fill="rgb(82,74,74)"/>
<path d="M31 61h2v1h-2v-1z" fill="rgb(16,16,16)"/>
<path d="M43 61h1v1h-1v-1z" fill="rgb(16,16,16)"/>
<path d="M45 61h1v1h1v3h-1v-1h-1v-3z" fill="rgb(222,213,213)"/>
<path d="M47 61h1v1h-1v-1z" fill="rgb(131,123,123)"/>
<path d="M55 61h2v1h-2v-1z" fill="rgb(16,16,16)"/>
<path d="M63 61h3v1h-3v-1z" fill="rgb(16,16,16)"/>
<path d="M74 61h1v1h-1v-1z" fill="rgb(131,123,123)"/>
<path d="M75 61h1v1h-1v-1z" fill="rgb(189,180,180)"/>
<path d="M25 62h2v1h-2v-1z" fill="rgb(131,123,123)"/>
<path d="M27 62h2v1h-2v-1z" fill="rgb(82,74,74)"/>
<path d="M29 62h2v1h-2v-1z" fill="rgb(16,16,16)"/>
<path d="M42 62h1v1h-1v-1z" fill="rgb(82,74,74)"/>
<path d="M43 62h1v2h-1v-2z" fill="rgb(189,180,180)"/>
<path d="M47 62h1v2h-1v-2z" fill="rgb(189,180,180)"/>
<path d="M48 62h1v1h-1v-1z" fill="rgb(131,123,123)"/>
<path d="M51 62h1v1h-1v-1z" fill="rgb(189,180,180)"/>
<path d="M52 62h1v2h-1v1h1v-1h1v2h1v1h-3v-1h-3v-2h1v-1h2v-1z" fill="rgb(131,123,123)"/>
<path d="M57 62h6v1h-4v2h-1v-2h-1v-1z" fill="rgb(16,16,16)"/>
<path d="M73 62h1v1h-1v-1z" fill="rgb(131,123,123)"/>
<path d="M74 62h1v1h-1v-1z" fill="rgb(189,180,180)"/>
<path d="M41 63h1v1h-1v-1z" fill="rgb(131,123,123)"/>
<path d="M42 63h1v1h1v1h2v1h2v2h-1v1h-1v1h-2v-1h-1v-1h-1v-5z" fill="rgb(222,213,213)"/>
<path d="M44 63h1v1h-1v-1z" fill="rgb(16,16,16)"/>
<path d="M48 63h1v3h-1v-3z" fill="rgb(82,74,74)"/>
<path d="M49 63h1v1h-1v-1z" fill="rgb(189,180,180)"/>
<path d="M72 63h1v1h-1v-1z" fill="rgb(82,74,74)"/>
<path d="M73 63h1v1h-1v-1z" fill="rgb(189,180,180)"/>
<path d="M41 64h1v1h-1v-1z" fill="rgb(82,74,74)"/>
<path d="M44 64h1v1h-1v-1z" fill="rgb(189,180,180)"/>
<path d="M45 64h1v1h-1v-1z" fill="rgb(82,74,74)"/>
<path d="M47 64h1v1h-1v-1z" fill="rgb(131,123,123)"/>
<path d="M52 64h1v1h-1v-1z" fill="rgb(82,74,74)"/>
<path d="M72 64h1v1h-1v-1z" fill="rgb(16,16,16)"/>
<path d="M73 64h1v1h-1v-1z" fill="rgb(82,74,74)"/>
<path d="M80 64h1v1h-1v-1z" fill="rgb(16,16,16)"/>
<path d="M41 65h1v2h-1v-2z" fill="rgb(16,16,16)"/>
<path d="M46 65h1v1h-1v-1z" fill="rgb(82,74,74)"/>
<path d="M47 65h1v1h-1v-1z" fill="rgb(16,16,16)"/>
<path d="M57 65h1v1h-1v-1z" fill="rgb(16,16,16)"/>
<path d="M71 65h3v1h1v1h-1v1h-3v-1h2v-1h-2v-1z" fill="rgb(131,123,123)"/>
<path d="M74 65h1v1h-1v-1z" fill="rgb(16,16,16)"/>
<path d="M79 65h1v1h-1v-1z" fill="rgb(16,16,16)"/>
<path d="M48 66h3v1h-3v-1z" fill="rgb(16,16,16)"/>
<path d="M51 66h1v1h-1v-1z" fill="rgb(82,74,74)"/>
<path d="M56 66h1v1h-1v-1z" fill="rgb(16,16,16)"/>
<path d="M70 66h1v1h-1v-1z" fill="rgb(82,74,74)"/>
<path d="M71 66h2v1h-2v-1z" fill="rgb(189,180,180)"/>
<path d="M75 66h1v1h1v1h-1v1h-1v-3z" fill="rgb(16,16,16)"/>
<path d="M77 66h2v1h-2v-1z" fill="rgb(16,16,16)"/>
<path d="M41 67h1v2h-1v-2z" fill="rgb(82,74,74)"/>
<path d="M48 67h3v1h2v2h-2v-1h-1v-1h-2v-1z" fill="rgb(82,74,74)"/>
<path d="M51 67h5v1h-2v2h-1v-2h-2v-1z" fill="rgb(16,16,16)"/>
<path d="M70 67h1v1h1v1h-2v-2z" fill="rgb(16,16,16)"/>
<path d="M74 67h1v2h-1v1h-1v-1h-1v-1h2v-1z" fill="rgb(82,74,74)"/>
<path d="M42 68h1v1h-1v-1z" fill="rgb(131,123,123)"/>
<path d="M47 68h1v1h-1v-1z" fill="rgb(82,74,74)"/>
<path d="M48 68h2v1h1v1h1v1h-1v1h-3v-2h-2v-1h2v-1z" fill="rgb(131,123,123)"/>
<path d="M68 68h2v1h-2v-1z" fill="rgb(82,74,74)"/>
<path d="M42 69h1v2h-1v-2z" fill="rgb(82,74,74)"/>
<path d="M43 69h1v1h3v1h1v1h1v1h-3v-1h-2v-1h-1v-2z" fill="rgb(189,180,180)"/>
<path d="M67 69h1v1h-1v-1z" fill="rgb(82,74,74)"/>
<path d="M68 69h1v1h-1v-1z" fill="rgb(189,180,180)"/>
<path d="M69 69h1v1h1v3h-1v-1h-2v-2h1v-1z" fill="rgb(131,123,123)"/>
<path d="M70 69h2v1h1v3h-1v1h-2v-1h1v-3h-1v-1z" fill="rgb(82,74,74)"/>
<path d="M72 69h1v1h-1v-1z" fill="rgb(16,16,16)"/>
<path d="M74 69h1v1h-1v-1z" fill="rgb(16,16,16)"/>
<path d="M47 70h1v1h-1v-1z" fill="rgb(82,74,74)"/>
<path d="M52 70h1v1h-1v-1z" fill="rgb(16,16,16)"/>
<path d="M64 70h1v1h-1v-1z" fill="rgb(131,123,123)"/>
<path d="M65 70h1v1h-1v-1z" fill="rgb(82,74,74)"/>
<path d="M66 70h1v1h-1v-1z" fill="rgb(16,16,16)"/>
<path d="M67 70h1v1h-1v-1z" fill="rgb(189,180,180)"/>
<path d="M73 70h1v3h-1v-3z" fill="rgb(16,16,16)"/>
<path d="M43 71h1v1h-1v-1z" fill="rgb(82,74,74)"/>
<path d="M51 71h1v1h1v1h-3v-1h1v-1z" fill="rgb(16,16,16)"/>
<path d="M62 71h2v1h-2v-1z" fill="rgb(131,123,123)"/>
<path d="M64 71h2v1h-2v-1z" fill="rgb(189,180,180)"/>
<path d="M66 71h1v3h-1v-1h-1v1h1v1h1v1h-1v1h-3v-1h-1v-1h-1v-2h3v-1h2v-1z" fill="rgb(131,123,123)"/>
<path d="M67 71h1v1h-1v-1z" fill="rgb(16,16,16)"/>
<path d="M44 72h1v1h-1v-1z" fill="rgb(16,16,16)"/>
<path d="M45 72h1v1h-1v-1z" fill="rgb(82,74,74)"/>
<path d="M49 72h1v1h-1v-1z" fill="rgb(82,74,74)"/>
<path d="M61 72h1v1h-1v-1z" fill="rgb(82,74,74)"/>
<path d="M62 72h2v1h-2v-1z" fill="rgb(189,180,180)"/>
<path d="M67 72h1v1h1v5h-1v1h-1v1h-4v-1h-1v-2h-1v-2h1v1h1v1h3v-1h1v-1h1v-1h-1v-2z" fill="rgb(82,74,74)"/>
<path d="M68 72h1v1h-1v-1z" fill="rgb(16,16,16)"/>
<path d="M69 72h1v1h-1v-1z" fill="rgb(82,74,74)"/>
<path d="M44 73h1v1h-1v-1z" fill="rgb(82,74,74)"/>
<path d="M45 73h1v1h-1v-1z" fill="rgb(131,123,123)"/>
<path d="M46 73h4v1h-4v-1z" fill="rgb(16,16,16)"/>
<path d="M50 73h3v1h1v2h-1v-1h-1v-1h-2v-1z" fill="rgb(82,74,74)"/>
<path d="M53 73h1v1h-1v-1z" fill="rgb(16,16,16)"/>
<path d="M55 73h1v1h-1v-1z" fill="rgb(131,123,123)"/>
<path d="M56 73h2v1h-2v-1z" fill="rgb(82,74,74)"/>
<path d="M58 73h1v1h-1v-1z" fill="rgb(16,16,16)"/>
<path d="M60 73h1v1h-1v-1z" fill="rgb(16,16,16)"/>
<path d="M65 73h1v1h-1v-1z" fill="rgb(82,74,74)"/>
<path d="M69 73h1v1h2v1h-2v3h-1v-5z" fill="rgb(16,16,16)"/>
<path d="M72 73h1v1h-1v-1z" fill="rgb(16,16,16)"/>
<path d="M43 74h1v1h-1v-1z" fill="rgb(131,123,123)"/>
<path d="M44 74h2v1h-1v2h1v2h1v2h-2v-3h-1v-4z" fill="rgb(222,213,213)"/>
<path d="M46 74h3v1h-1v1h1v1h1v2h-1v1h-1v1h-1v-2h-1v-2h-1v-2h1v-1z" fill="rgb(189,180,180)"/>
<path d="M49 74h3v1h1v1h1v2h-1v1h-2v-2h1v-1h-2v-1h-1v-1z" fill="rgb(131,123,123)"/>
<path d="M54 74h1v5h-1v-5z" fill="rgb(16,16,16)"/>
<path d="M55 74h1v1h-1v-1z" fill="rgb(82,74,74)"/>
<path d="M56 74h3v1h1v3h-1v1h-1v1h-2v-1h-1v-4h1v-1z" fill="rgb(131,123,123)"/>
<path d="M59 74h1v1h-1v-1z" fill="rgb(16,16,16)"/>
<path d="M60 74h1v1h-1v-1z" fill="rgb(82,74,74)"/>
<path d="M66 74h1v1h-1v-1z" fill="rgb(82,74,74)"/>
<path d="M67 74h1v1h-1v-1z" fill="rgb(16,16,16)"/>
<path d="M43 75h1v2h-1v-2z" fill="rgb(82,74,74)"/>
<path d="M48 75h1v1h-1v-1z" fill="rgb(131,123,123)"/>
<path d="M49 75h1v1h-1v-1z" fill="rgb(189,180,180)"/>
<path d="M60 75h1v2h-1v-2z" fill="rgb(16,16,16)"/>
<path d="M49 76h1v1h-1v-1z" fill="rgb(131,123,123)"/>
<path d="M50 76h1v1h-1v-1z" fill="rgb(189,180,180)"/>
<path d="M51 76h1v1h-1v-1z" fill="rgb(82,74,74)"/>
<path d="M43 77h1v2h-1v-2z" fill="rgb(131,123,123)"/>
<path d="M50 77h1v2h2v1h-1v1h-1v1h-4v-1h2v-1h1v-3z" fill="rgb(82,74,74)"/>
<path d="M60 77h1v4h-1v1h-2v1h-4v-1h-2v-1h1v-1h1v-1h1v1h3v-1h1v-1h1v-1z" fill="rgb(82,74,74)"/>
<path d="M61 77h1v2h1v1h-1v1h-1v-4z" fill="rgb(16,16,16)"/>
<path d="M44 78h1v1h-1v-1z" fill="rgb(189,180,180)"/>
<path d="M53 78h1v1h-1v-1z" fill="rgb(82,74,74)"/>
<path d="M68 78h1v1h-1v-1z" fill="rgb(16,16,16)"/>
<path d="M44 79h1v1h-1v-1z" fill="rgb(131,123,123)"/>
<path d="M49 79h1v1h-1v-1z" fill="rgb(131,123,123)"/>
<path d="M53 79h1v1h-1v-1z" fill="rgb(16,16,16)"/>
<path d="M55 79h1v1h-1v-1z" fill="rgb(16,16,16)"/>
<path d="M67 79h1v1h-1v-1z" fill="rgb(16,16,16)"/>
<path d="M44 80h1v1h-1v-1z" fill="rgb(82,74,74)"/>
<path d="M48 80h1v1h-1v-1z" fill="rgb(131,123,123)"/>
<path d="M52 80h1v1h-1v-1z" fill="rgb(16,16,16)"/>
<path d="M63 80h4v1h-4v-1z" fill="rgb(16,16,16)"/>
<path d="M45 81h2v1h-2v-1z" fill="rgb(16,16,16)"/>
<path d="M51 81h1v1h-1v-1z" fill="rgb(16,16,16)"/>
<path d="M60 81h1v1h-1v-1z" fill="rgb(16,16,16)"/>
<path d="M47 82h4v1h-4v-1z" fill="rgb(16,16,16)"/>
<path d="M52 82h2v1h-2v-1z" fill="rgb(16,16,16)"/>
<path d="M58 82h2v1h-2v-1z" fill="rgb(16,16,16)"/>
<path d="M54 83h4v1h-4v-1z" fill="rgb(16,16,16)"/>
</svg>
