<?xml version="1.0" encoding="utf-8"?>
<!-- generated at drububu.com  -->
<!DOCTYPE svg PUBLIC "-//W3C//DTD SVG 1.1//EN" "http://www.w3.org/Graphics/SVG/1.1/DTD/svg11.dtd">
<svg version="1.1" preserveAspectRatio="xMinYMin meet" xmlns="http://www.w3.org/2000/svg" xmlns:xlink="http://www.w3.org/1999/xlink" x="0px" y="0px" width="96px" height="96px" viewBox="0 0 96 96">
<path d="M0 0h96v96h-96v-96z" fill="transparent"/>
<path d="M38 22h1v1h-1v-1z" fill="rgb(172,139,0)"/>
<path d="M39 22h2v1h-2v-1z" fill="rgb(115,90,0)"/>
<path d="M37 23h1v1h-1v-1z" fill="rgb(0,0,0)"/>
<path d="M38 23h3v1h-1v2h-1v-2h-1v-1z" fill="rgb(246,222,0)"/>
<path d="M41 23h1v1h-1v-1z" fill="rgb(115,90,0)"/>
<path d="M45 23h6v1h-6v-1z" fill="rgb(172,139,0)"/>
<path d="M55 23h3v1h-3v-1z" fill="rgb(172,139,0)"/>
<path d="M58 23h3v1h-3v-1z" fill="rgb(115,90,0)"/>
<path d="M37 24h2v1h-2v-1z" fill="rgb(115,90,0)"/>
<path d="M40 24h2v1h-2v-1z" fill="rgb(213,180,74)"/>
<path d="M42 24h3v1h-3v-1z" fill="rgb(172,139,0)"/>
<path d="M45 24h6v1h-6v-1z" fill="rgb(213,180,74)"/>
<path d="M51 24h2v1h-2v-1z" fill="rgb(172,139,0)"/>
<path d="M53 24h2v1h-2v-1z" fill="rgb(115,90,0)"/>
<path d="M55 24h5v1h-4v1h-2v1h-1v-2h2v-1z" fill="rgb(246,222,0)"/>
<path d="M60 24h1v2h-1v-2z" fill="rgb(213,180,74)"/>
<path d="M61 24h1v2h-1v-2z" fill="rgb(0,0,0)"/>
<path d="M25 25h6v1h-6v-1z" fill="rgb(115,90,0)"/>
<path d="M38 25h1v1h-1v-1z" fill="rgb(0,0,0)"/>
<path d="M40 25h1v1h-1v-1z" fill="rgb(197,164,32)"/>
<path d="M41 25h1v1h-1v-1z" fill="rgb(172,139,0)"/>
<path d="M42 25h2v1h1v2h-1v1h-1v1h-5v-2h1v-1h1v-1h2v-1z" fill="rgb(255,238,115)"/>
<path d="M44 25h8v2h-1v2h1v-2h1v3h-1v1h2v1h1v1h1v2h1v3h-1v2h-1v1h-4v1h-1v1h-2v1h-1v1h-3
	v-1h1v-1h1v-2h1v-1h1v-1h-5v1h-4v1h-1v1h-1v2h-2v-1h1v-1h-2v-2h2v-1h-2v-2h3v-1h-2
	v-2h1v-3h1v-2h1v1h5v-1h1v-1h1v-2h-1v-1z" fill="rgb(246,222,0)"/>
<path d="M52 25h1v2h-1v-2z" fill="rgb(115,90,0)"/>
<path d="M56 25h1v1h-1v-1z" fill="rgb(213,180,74)"/>
<path d="M57 25h2v1h-2v-1z" fill="rgb(82,57,32)"/>
<path d="M59 25h1v2h-1v-2z" fill="rgb(131,90,65)"/>
<path d="M24 26h1v1h-1v-1z" fill="rgb(172,139,0)"/>
<path d="M25 26h1v2h-1v2h-1v-3h1v-1z" fill="rgb(246,222,0)"/>
<path d="M26 26h1v1h-1v-1z" fill="rgb(197,164,32)"/>
<path d="M27 26h1v1h-1v-1z" fill="rgb(172,139,0)"/>
<path d="M28 26h3v1h1v1h1v1h2v1h1v1h-1v1h-2v-1h-1v-1h-1v-1h-1v-2h-1v1h-1v2h-1v-3h1v-1z" fill="rgb(246,222,0)"/>
<path d="M31 26h1v1h-1v-1z" fill="rgb(115,90,0)"/>
<path d="M38 26h1v1h-1v-1z" fill="rgb(115,90,0)"/>
<path d="M39 26h1v1h-1v-1z" fill="rgb(197,164,32)"/>
<path d="M54 26h1v1h-1v-1z" fill="rgb(213,180,74)"/>
<path d="M55 26h2v1h-2v-1z" fill="rgb(82,57,32)"/>
<path d="M57 26h1v1h-1v-1z" fill="rgb(131,90,65)"/>
<path d="M58 26h1v2h-1v1h-1v1h-1v-2h1v-1h1v-1z" fill="rgb(164,131,90)"/>
<path d="M60 26h1v2h-1v-2z" fill="rgb(0,0,0)"/>
<path d="M22 27h1v1h-1v-1z" fill="rgb(172,139,0)"/>
<path d="M23 27h1v3h-1v-3z" fill="rgb(115,90,0)"/>
<path d="M26 27h1v1h-1v-1z" fill="rgb(172,139,0)"/>
<path d="M29 27h1v1h-1v-1z" fill="rgb(213,180,74)"/>
<path d="M32 27h1v1h-1v-1z" fill="rgb(115,90,0)"/>
<path d="M38 27h1v1h-1v-1z" fill="rgb(197,164,32)"/>
<path d="M51 27h1v1h-1v-1z" fill="rgb(115,90,0)"/>
<path d="M53 27h1v1h-1v-1z" fill="rgb(213,180,74)"/>
<path d="M54 27h1v1h-1v-1z" fill="rgb(82,57,32)"/>
<path d="M55 27h2v1h-1v2h1v1h-2v-1h-1v-2h1v-1z" fill="rgb(131,90,65)"/>
<path d="M59 27h1v1h-1v-1z" fill="rgb(213,180,74)"/>
<path d="M21 28h1v1h-1v-1z" fill="rgb(172,139,0)"/>
<path d="M22 28h1v1h-1v-1z" fill="rgb(213,180,74)"/>
<path d="M25 28h1v1h-1v-1z" fill="rgb(197,164,32)"/>
<path d="M26 28h1v1h-1v-1z" fill="rgb(115,90,0)"/>
<path d="M28 28h1v1h-1v-1z" fill="rgb(197,164,32)"/>
<path d="M29 28h1v1h-1v-1z" fill="rgb(0,0,0)"/>
<path d="M33 28h2v1h-2v-1z" fill="rgb(115,90,0)"/>
<path d="M37 28h1v1h-1v-1z" fill="rgb(115,90,0)"/>
<path d="M51 28h1v1h-1v-1z" fill="rgb(172,139,0)"/>
<path d="M53 28h1v2h-1v-2z" fill="rgb(82,57,32)"/>
<path d="M58 28h1v2h-1v1h1v-1h1v1h1v1h1v1h1v1h1v2h1v1h1v2h1v2h1v2h1v3h1v2h-1v3h-1v1h-2
	v-1h-1v-1h-3v-1h-4v1h-2v-1h-2v-1h5v-1h2v-1h1v-2h-1v-1h-1v-2h-1v1h-1v1h-3v1h-5v1
	h-2v-1h1v-1h1v-1h1v-1h4v-1h1v-2h1v-3h-1v-2h-1v-1h-1v-1h-2v-1h3v1h2v-2h1v-1z" fill="rgb(213,180,74)"/>
<path d="M59 28h1v1h-1v-1z" fill="rgb(115,90,0)"/>
<path d="M21 29h2v1h-2v-1z" fill="rgb(0,0,0)"/>
<path d="M25 29h1v1h-1v-1z" fill="rgb(115,90,0)"/>
<path d="M26 29h1v1h1v1h-4v-1h2v-1z" fill="rgb(0,0,0)"/>
<path d="M28 29h1v1h-1v-1z" fill="rgb(0,0,0)"/>
<path d="M29 29h2v1h1v1h1v1h2v2h-1v3h-1v-1h-1v-1h-1v-1h-1v-2h-1v-1h-1v-1h1v-1z" fill="rgb(213,180,74)"/>
<path d="M35 29h2v2h-1v-1h-1v-1z" fill="rgb(115,90,0)"/>
<path d="M59 29h1v1h-1v-1z" fill="rgb(0,0,0)"/>
<path d="M58 30h1v1h-1v-1z" fill="rgb(115,90,0)"/>
<path d="M60 30h1v1h-1v-1z" fill="rgb(115,90,0)"/>
<path d="M28 31h1v1h-1v-1z" fill="rgb(115,90,0)"/>
<path d="M35 31h1v3h-1v-3z" fill="rgb(115,90,0)"/>
<path d="M61 31h1v1h-1v-1z" fill="rgb(115,90,0)"/>
<path d="M29 32h1v2h-1v-2z" fill="rgb(115,90,0)"/>
<path d="M44 32h1v1h-1v-1z" fill="rgb(172,139,0)"/>
<path d="M46 32h3v1h-3v-1z" fill="rgb(115,90,0)"/>
<path d="M62 32h1v1h-1v-1z" fill="rgb(115,90,0)"/>
<path d="M43 33h1v2h-1v-2z" fill="rgb(172,139,0)"/>
<path d="M44 33h1v1h-1v-1z" fill="rgb(246,222,0)"/>
<path d="M45 33h1v1h-1v-1z" fill="rgb(115,90,0)"/>
<path d="M46 33h3v2h-2v-1h-1v-1z" fill="rgb(255,255,255)"/>
<path d="M49 33h1v1h-1v-1z" fill="rgb(172,139,0)"/>
<path d="M63 33h1v1h-1v-1z" fill="rgb(82,57,32)"/>
<path d="M30 34h1v1h-1v-1z" fill="rgb(115,90,0)"/>
<path d="M34 34h1v3h-1v-3z" fill="rgb(115,90,0)"/>
<path d="M44 34h1v1h-1v-1z" fill="rgb(115,90,0)"/>
<path d="M45 34h1v1h-1v-1z" fill="rgb(255,255,255)"/>
<path d="M46 34h1v1h-1v-1z" fill="rgb(0,0,0)"/>
<path d="M50 34h1v1h-1v-1z" fill="rgb(172,139,0)"/>
<path d="M64 34h1v1h-1v-1z" fill="rgb(82,57,32)"/>
<path d="M31 35h1v1h-1v-1z" fill="rgb(0,0,0)"/>
<path d="M44 35h5v1h-5v-1z" fill="rgb(197,164,32)"/>
<path d="M64 35h2v1h-2v-1z" fill="rgb(115,90,0)"/>
<path d="M32 36h1v1h-1v-1z" fill="rgb(0,0,0)"/>
<path d="M35 36h2v1h-2v-1z" fill="rgb(172,139,0)"/>
<path d="M65 36h1v1h-1v-1z" fill="rgb(82,57,32)"/>
<path d="M33 37h1v3h-1v-3z" fill="rgb(115,90,0)"/>
<path d="M37 37h1v1h-1v-1z" fill="rgb(197,164,32)"/>
<path d="M38 37h1v1h-1v-1z" fill="rgb(213,180,74)"/>
<path d="M48 37h1v1h-1v-1z" fill="rgb(213,180,74)"/>
<path d="M66 37h1v2h-1v-2z" fill="rgb(82,57,32)"/>
<path d="M48 38h1v1h-1v-1z" fill="rgb(172,139,0)"/>
<path d="M34 39h2v1h-2v-1z" fill="rgb(172,139,0)"/>
<path d="M43 39h1v1h-1v-1z" fill="rgb(115,90,0)"/>
<path d="M44 39h3v1h-3v-1z" fill="rgb(0,0,0)"/>
<path d="M47 39h1v1h-1v-1z" fill="rgb(115,90,0)"/>
<path d="M67 39h1v2h-1v-2z" fill="rgb(82,57,32)"/>
<path d="M32 40h1v2h1v1h-1v1h-1v-4z" fill="rgb(115,90,0)"/>
<path d="M33 40h1v2h-1v-2z" fill="rgb(213,180,74)"/>
<path d="M36 40h1v1h-1v-1z" fill="rgb(213,180,74)"/>
<path d="M39 40h1v1h-1v-1z" fill="rgb(213,180,74)"/>
<path d="M40 40h3v1h-3v-1z" fill="rgb(0,0,0)"/>
<path d="M43 40h4v1h-3v1h-1v2h-1v-1h-1v-2h2v-1z" fill="rgb(139,32,57)"/>
<path d="M38 41h1v1h-1v-1z" fill="rgb(213,180,74)"/>
<path d="M39 41h1v1h-1v-1z" fill="rgb(0,0,0)"/>
<path d="M40 41h1v2h-1v-2z" fill="rgb(197,164,32)"/>
<path d="M44 41h2v2h-1v1h-2v-2h1v-1z" fill="rgb(238,57,57)"/>
<path d="M59 41h1v1h-1v-1z" fill="rgb(172,139,0)"/>
<path d="M68 41h1v1h-1v-1z" fill="rgb(82,57,32)"/>
<path d="M34 42h1v1h-1v-1z" fill="rgb(172,139,0)"/>
<path d="M35 42h1v1h-1v-1z" fill="rgb(213,180,74)"/>
<path d="M37 42h1v1h-1v-1z" fill="rgb(213,180,74)"/>
<path d="M38 42h1v1h-1v-1z" fill="rgb(0,0,0)"/>
<path d="M39 42h1v1h-1v-1z" fill="rgb(115,90,0)"/>
<path d="M58 42h1v1h-1v-1z" fill="rgb(115,90,0)"/>
<path d="M59 42h1v1h1v1h1v2h-1v1h-2v1h-6v1h-1v-2h-1v2h-1v1h-1v-2h-2v-1h1v-1h2v-1h5v-1h3
	v-1h1v-1z" fill="rgb(246,222,0)"/>
<path d="M68 42h1v1h-1v-1z" fill="rgb(0,0,0)"/>
<path d="M33 43h2v1h2v1h-3v-1h-1v-1z" fill="rgb(213,180,74)"/>
<path d="M37 43h1v1h-1v-1z" fill="rgb(115,90,0)"/>
<path d="M38 43h2v2h-2v-2z" fill="rgb(213,180,74)"/>
<path d="M40 43h1v1h-1v-1z" fill="rgb(115,90,0)"/>
<path d="M41 43h1v1h2v1h1v1h-3v-1h-1v-2z" fill="rgb(213,180,74)"/>
<path d="M48 43h1v1h-1v-1z" fill="rgb(115,90,0)"/>
<path d="M55 43h3v1h-3v-1z" fill="rgb(115,90,0)"/>
<path d="M69 43h1v1h-1v-1z" fill="rgb(82,57,32)"/>
<path d="M33 44h1v1h-1v-1z" fill="rgb(0,0,0)"/>
<path d="M37 44h1v1h-1v-1z" fill="rgb(0,0,0)"/>
<path d="M40 44h1v1h-1v-1z" fill="rgb(0,0,0)"/>
<path d="M47 44h1v1h-1v-1z" fill="rgb(0,0,0)"/>
<path d="M50 44h1v1h-1v-1z" fill="rgb(172,139,0)"/>
<path d="M51 44h4v1h-4v-1z" fill="rgb(115,90,0)"/>
<path d="M69 44h1v2h-1v-2z" fill="rgb(0,0,0)"/>
<path d="M34 45h3v1h-3v-1z" fill="rgb(0,0,0)"/>
<path d="M38 45h1v2h-1v-2z" fill="rgb(172,139,0)"/>
<path d="M39 45h1v1h2v1h2v1h2v2h2v1h2v-1h1v1h2v-1h2v1h1v1h-4v1h-1v1h-3v-1h-1v-1h-1v-1h-3
	v1h-1v1h-2v-1h-1v-2h-1v-3h1v-2z" fill="rgb(246,222,0)"/>
<path d="M40 45h1v1h-1v-1z" fill="rgb(213,180,74)"/>
<path d="M41 45h1v1h-1v-1z" fill="rgb(0,0,0)"/>
<path d="M45 45h2v1h-2v-1z" fill="rgb(0,0,0)"/>
<path d="M47 45h3v1h-3v-1z" fill="rgb(172,139,0)"/>
<path d="M42 46h3v1h-3v-1z" fill="rgb(0,0,0)"/>
<path d="M45 46h2v1h-1v1h-2v-1h1v-1z" fill="rgb(213,180,74)"/>
<path d="M47 46h1v1h-1v-1z" fill="rgb(115,90,0)"/>
<path d="M70 46h1v3h-1v-3z" fill="rgb(0,0,0)"/>
<path d="M37 47h1v3h-1v-3z" fill="rgb(82,57,32)"/>
<path d="M46 47h1v3h-1v-3z" fill="rgb(115,90,0)"/>
<path d="M49 47h1v1h-1v-1z" fill="rgb(172,139,0)"/>
<path d="M51 47h1v1h-1v-1z" fill="rgb(172,139,0)"/>
<path d="M63 47h1v1h-1v-1z" fill="rgb(172,139,0)"/>
<path d="M47 48h1v1h-1v-1z" fill="rgb(213,180,74)"/>
<path d="M48 48h1v2h1v1h-2v-3z" fill="rgb(115,90,0)"/>
<path d="M51 48h1v1h-1v-1z" fill="rgb(115,90,0)"/>
<path d="M53 48h1v1h-1v-1z" fill="rgb(172,139,0)"/>
<path d="M62 48h1v1h-1v-1z" fill="rgb(0,0,0)"/>
<path d="M69 48h1v1h1v8h-1v-2h-1v-1h-1v1h1v2h1v7h-1v2h-1v3h1v3h-1v-1h-1v-1h-2v-1h-5v-1
	h-1v-1h-2v-1h-1v-1h-1v-1h2v1h4v-1h1v-1h1v-1h2v-1h2v-3h-1v-2h-2v-1h-5v1h-2v1h-2v1
	h-1v-2h1v-4h1v1h4v-1h1v-1h1v-1h3v1h1v1h2v-1h1v-3z" fill="rgb(131,90,65)"/>
<path d="M47 49h1v1h-1v-1z" fill="rgb(0,0,0)"/>
<path d="M50 49h1v1h-1v-1z" fill="rgb(115,90,0)"/>
<path d="M51 49h1v1h1v1h-2v-2z" fill="rgb(0,0,0)"/>
<path d="M52 49h1v1h-1v-1z" fill="rgb(197,164,32)"/>
<path d="M53 49h3v1h-3v-1z" fill="rgb(0,0,0)"/>
<path d="M58 49h2v1h-2v-1z" fill="rgb(197,164,32)"/>
<path d="M60 49h2v1h-2v-1z" fill="rgb(0,0,0)"/>
<path d="M71 49h1v1h-1v-1z" fill="rgb(82,57,32)"/>
<path d="M36 50h1v1h-1v-1z" fill="rgb(82,57,32)"/>
<path d="M37 50h2v2h1v1h2v-1h1v-1h3v1h1v1h1v1h3v-1h1v-1h3v4h-1v2h-1v2h-2v1h-2v1h-6v-1h-2
	v-1h-1v-1h-1v-1h-1v-3h-1v-5z" fill="rgb(164,131,90)"/>
<path d="M55 50h1v1h-1v-1z" fill="rgb(213,180,74)"/>
<path d="M56 50h3v1h-3v-1z" fill="rgb(0,0,0)"/>
<path d="M59 50h1v1h-1v-1z" fill="rgb(115,90,0)"/>
<path d="M60 50h2v1h-1v1h-1v1h-4v-2h4v-1z" fill="rgb(213,180,74)"/>
<path d="M71 50h1v9h-1v-9z" fill="rgb(0,0,0)"/>
<path d="M36 51h1v3h-1v-3z" fill="rgb(0,0,0)"/>
<path d="M35 54h2v1h-2v-1z" fill="rgb(82,57,32)"/>
<path d="M68 54h1v1h-1v-1z" fill="rgb(82,57,32)"/>
<path d="M34 55h1v1h-1v-1z" fill="rgb(82,57,32)"/>
<path d="M35 55h2v1h-2v-1z" fill="rgb(164,131,90)"/>
<path d="M37 55h1v1h-1v-1z" fill="rgb(82,57,32)"/>
<path d="M59 55h5v1h2v2h1v3h-2v1h-2v1h-1v1h-1v1h-4v-1h-2v-1h-1v-3h1v-2h1v2h1v1h3v-1h1v-3
	h-4v-1h2v-1z" fill="rgb(164,131,90)"/>
<path d="M69 55h1v2h-1v-2z" fill="rgb(82,57,32)"/>
<path d="M33 56h1v2h-1v-2z" fill="rgb(82,57,32)"/>
<path d="M34 56h1v1h-1v-1z" fill="rgb(164,131,90)"/>
<path d="M35 56h2v2h1v1h-1v1h-3v-1h-1v-1h1v-1h1v-1z" fill="rgb(180,156,123)"/>
<path d="M37 56h1v2h-1v-2z" fill="rgb(0,0,0)"/>
<path d="M55 57h1v1h-1v-1z" fill="rgb(82,57,32)"/>
<path d="M56 57h1v1h-1v-1z" fill="rgb(164,131,90)"/>
<path d="M57 57h4v3h-1v1h-3v-1h-1v-2h1v-1z" fill="rgb(180,156,123)"/>
<path d="M70 57h1v2h-1v-2z" fill="rgb(82,57,32)"/>
<path d="M32 58h1v3h-1v-3z" fill="rgb(0,0,0)"/>
<path d="M38 58h1v1h-1v-1z" fill="rgb(82,57,32)"/>
<path d="M53 58h1v2h-1v-2z" fill="rgb(131,90,65)"/>
<path d="M54 58h1v2h-1v-2z" fill="rgb(82,57,32)"/>
<path d="M33 59h1v1h3v-1h1v1h1v1h1v1h-1v1h-4v-1h-1v-1h-1v-2z" fill="rgb(164,131,90)"/>
<path d="M38 59h1v1h-1v-1z" fill="rgb(0,0,0)"/>
<path d="M39 59h1v1h-1v-1z" fill="rgb(131,90,65)"/>
<path d="M70 59h1v5h-1v-5z" fill="rgb(0,0,0)"/>
<path d="M39 60h1v1h-1v-1z" fill="rgb(0,0,0)"/>
<path d="M40 60h1v1h-1v-1z" fill="rgb(131,90,65)"/>
<path d="M51 60h2v4h1v1h-7v-1h-3v-1h-2v-1h-1v-1h2v1h6v-1h2v-1z" fill="rgb(131,90,65)"/>
<path d="M53 60h1v1h-1v-1z" fill="rgb(82,57,32)"/>
<path d="M33 61h1v2h-1v-2z" fill="rgb(0,0,0)"/>
<path d="M40 61h1v1h-1v-1z" fill="rgb(0,0,0)"/>
<path d="M53 61h1v3h-1v-3z" fill="rgb(0,0,0)"/>
<path d="M34 62h1v1h-1v-1z" fill="rgb(131,90,65)"/>
<path d="M39 62h2v1h1v1h2v1h3v1h-1v3h-4v1h-2v-2h-2v-1h-1v1h-1v-2h3v-1h-2v-1h-2v-1h4v-1z" fill="rgb(131,90,65)"/>
<path d="M41 62h1v1h-1v-1z" fill="rgb(0,0,0)"/>
<path d="M34 63h1v1h-1v-1z" fill="rgb(0,0,0)"/>
<path d="M42 63h2v1h-2v-1z" fill="rgb(0,0,0)"/>
<path d="M54 63h1v1h-1v-1z" fill="rgb(131,90,65)"/>
<path d="M35 64h2v1h-2v-1z" fill="rgb(0,0,0)"/>
<path d="M44 64h3v1h-3v-1z" fill="rgb(0,0,0)"/>
<path d="M54 64h1v1h1v1h-9v-1h7v-1z" fill="rgb(0,0,0)"/>
<path d="M69 64h1v2h-1v-2z" fill="rgb(0,0,0)"/>
<path d="M36 65h1v1h-1v-1z" fill="rgb(82,57,32)"/>
<path d="M37 65h2v1h-2v-1z" fill="rgb(0,0,0)"/>
<path d="M35 66h1v1h-1v-1z" fill="rgb(82,57,32)"/>
<path d="M46 66h1v3h-1v-3z" fill="rgb(0,0,0)"/>
<path d="M56 66h1v1h-1v-1z" fill="rgb(0,0,0)"/>
<path d="M68 66h1v3h-1v-3z" fill="rgb(0,0,0)"/>
<path d="M34 67h1v1h-1v-1z" fill="rgb(131,90,65)"/>
<path d="M35 67h1v1h-1v-1z" fill="rgb(213,180,74)"/>
<path d="M37 67h1v1h1v1h1v1h-4v-2h1v-1z" fill="rgb(246,222,0)"/>
<path d="M57 67h2v1h-2v-1z" fill="rgb(0,0,0)"/>
<path d="M33 68h1v1h-1v-1z" fill="rgb(82,57,32)"/>
<path d="M34 68h1v1h-1v-1z" fill="rgb(213,180,74)"/>
<path d="M35 68h1v2h-1v-2z" fill="rgb(131,90,65)"/>
<path d="M39 68h1v1h-1v-1z" fill="rgb(213,180,74)"/>
<path d="M59 68h1v1h-1v-1z" fill="rgb(0,0,0)"/>
<path d="M33 69h2v1h-2v-1z" fill="rgb(0,0,0)"/>
<path d="M42 69h4v1h-4v-1z" fill="rgb(0,0,0)"/>
<path d="M58 69h1v1h-1v-1z" fill="rgb(82,57,32)"/>
<path d="M59 69h1v1h-1v-1z" fill="rgb(131,90,65)"/>
<path d="M60 69h2v1h-2v-1z" fill="rgb(0,0,0)"/>
<path d="M62 69h1v2h-1v-2z" fill="rgb(82,57,32)"/>
<path d="M63 69h2v1h-2v-1z" fill="rgb(0,0,0)"/>
<path d="M69 69h1v3h-1v-3z" fill="rgb(0,0,0)"/>
<path d="M35 70h7v1h-7v-1z" fill="rgb(0,0,0)"/>
<path d="M58 70h2v1h-1v1h-1v-2z" fill="rgb(0,0,0)"/>
<path d="M60 70h1v3h-1v-1h-1v-1h1v-1z" fill="rgb(246,222,0)"/>
<path d="M61 70h1v1h-1v-1z" fill="rgb(213,180,74)"/>
<path d="M63 70h2v1h1v1h-2v1h-2v-2h1v-1z" fill="rgb(246,222,0)"/>
<path d="M65 70h2v1h-2v-1z" fill="rgb(82,57,32)"/>
<path d="M61 71h1v1h-1v-1z" fill="rgb(131,90,65)"/>
<path d="M66 71h1v1h-1v-1z" fill="rgb(213,180,74)"/>
<path d="M67 71h1v1h-1v-1z" fill="rgb(82,57,32)"/>
<path d="M59 72h1v1h-1v-1z" fill="rgb(0,0,0)"/>
<path d="M61 72h1v1h4v1h-6v-1h1v-1z" fill="rgb(0,0,0)"/>
<path d="M64 72h2v1h-2v-1z" fill="rgb(213,180,74)"/>
<path d="M66 72h2v1h-2v-1z" fill="rgb(0,0,0)"/>
</svg>
