<?xml version="1.0" encoding="utf-8"?>
<!-- generated at drububu.com  -->
<!DOCTYPE svg PUBLIC "-//W3C//DTD SVG 1.1//EN" "http://www.w3.org/Graphics/SVG/1.1/DTD/svg11.dtd">
<svg version="1.1" preserveAspectRatio="xMinYMin meet" xmlns="http://www.w3.org/2000/svg" xmlns:xlink="http://www.w3.org/1999/xlink" x="0px" y="0px" width="96px" height="96px" viewBox="0 0 96 96">
<path d="M0 0h96v96h-96v-96z" fill="transparent"/>
<path d="M38 15h1v1h-1v-1z" fill="rgb(139,98,49)"/>
<path d="M37 16h1v3h-1v-3z" fill="rgb(164,131,90)"/>
<path d="M38 16h1v1h1v2h1v2h-2v1h-1v1h-1v-3h1v-4z" fill="rgb(246,222,0)"/>
<path d="M39 16h1v1h-1v-1z" fill="rgb(139,98,49)"/>
<path d="M40 17h1v1h-1v-1z" fill="rgb(90,65,41)"/>
<path d="M54 17h2v1h-2v-1z" fill="rgb(139,98,49)"/>
<path d="M40 18h1v1h-1v-1z" fill="rgb(139,98,49)"/>
<path d="M53 18h1v1h-1v-1z" fill="rgb(139,98,49)"/>
<path d="M54 18h1v1h-1v-1z" fill="rgb(255,238,115)"/>
<path d="M55 18h1v1h-1v-1z" fill="rgb(222,189,65)"/>
<path d="M56 18h1v1h-1v-1z" fill="rgb(90,65,41)"/>
<path d="M37 19h1v1h-1v-1z" fill="rgb(180,148,32)"/>
<path d="M41 19h1v1h-1v-1z" fill="rgb(90,65,41)"/>
<path d="M52 19h1v1h-1v-1z" fill="rgb(139,98,49)"/>
<path d="M53 19h1v1h-1v-1z" fill="rgb(255,238,115)"/>
<path d="M54 19h1v1h-1v-1z" fill="rgb(246,222,0)"/>
<path d="M55 19h1v6h-1v6h-1v-2h-1v-2h1v-3h1v-5z" fill="rgb(180,148,32)"/>
<path d="M56 19h1v6h-1v-6z" fill="rgb(0,0,0)"/>
<path d="M36 20h1v2h-1v-2z" fill="rgb(164,131,90)"/>
<path d="M41 20h1v1h-1v-1z" fill="rgb(164,131,90)"/>
<path d="M42 20h2v1h-2v-1z" fill="rgb(139,98,49)"/>
<path d="M44 20h3v1h-3v-1z" fill="rgb(90,65,41)"/>
<path d="M51 20h1v1h-1v-1z" fill="rgb(139,98,49)"/>
<path d="M52 20h1v1h-1v-1z" fill="rgb(255,238,115)"/>
<path d="M53 20h1v2h-1v2h-1v1h-1v1h-1v1h1v1h1v1h1v2h-1v2h-2v-1h-1v-1h-3v1h-1v1h-1v1h6v1
	h-1v1h-1v1h-2v-1h-1v-1h-2v1h-1v2h-1v1h-2v1h-3v-1h-1v-2h1v1h1v-1h3v-3h-2v-4h-1
	v-1h3v-1h2v-1h2v-1h1v-3h-1v-1h-3v-1h5v1h2v1h1v1h1v-1h1v-1h1v-1h1v-1z" fill="rgb(246,222,0)"/>
<path d="M54 20h1v1h-1v-1z" fill="rgb(164,131,90)"/>
<path d="M39 21h2v1h-2v-1z" fill="rgb(164,131,90)"/>
<path d="M46 21h1v1h-1v-1z" fill="rgb(180,148,32)"/>
<path d="M47 21h1v1h-1v-1z" fill="rgb(139,98,49)"/>
<path d="M48 21h1v1h-1v-1z" fill="rgb(90,65,41)"/>
<path d="M50 21h1v2h-1v-2z" fill="rgb(139,98,49)"/>
<path d="M51 21h1v1h-1v-1z" fill="rgb(255,238,115)"/>
<path d="M54 21h1v2h-1v-2z" fill="rgb(139,98,49)"/>
<path d="M36 22h1v2h-1v-2z" fill="rgb(139,98,49)"/>
<path d="M38 22h1v1h-1v-1z" fill="rgb(180,148,32)"/>
<path d="M39 22h5v1h1v3h-1v1h-2v1h-2v1h-3v-1h-1v-3h1v-1h1v-1h1v-1z" fill="rgb(255,238,115)"/>
<path d="M48 22h1v1h-1v-1z" fill="rgb(222,189,65)"/>
<path d="M49 22h1v1h-1v-1z" fill="rgb(90,65,41)"/>
<path d="M53 22h1v1h-1v-1z" fill="rgb(164,131,90)"/>
<path d="M37 23h1v1h-1v-1z" fill="rgb(180,148,32)"/>
<path d="M49 23h1v1h-1v-1z" fill="rgb(139,98,49)"/>
<path d="M53 23h1v3h-1v1h-1v-1h-1v-1h1v-1h1v-1z" fill="rgb(139,98,49)"/>
<path d="M54 23h1v1h-1v-1z" fill="rgb(164,131,90)"/>
<path d="M36 24h1v1h-1v-1z" fill="rgb(164,131,90)"/>
<path d="M35 25h1v2h-1v-2z" fill="rgb(164,131,90)"/>
<path d="M55 25h1v1h-1v-1z" fill="rgb(90,65,41)"/>
<path d="M63 25h2v1h-2v-1z" fill="rgb(139,98,49)"/>
<path d="M65 25h1v1h-1v-1z" fill="rgb(90,65,41)"/>
<path d="M50 26h1v1h-1v-1z" fill="rgb(222,189,65)"/>
<path d="M51 26h1v1h-1v-1z" fill="rgb(164,131,90)"/>
<path d="M53 26h1v1h-1v-1z" fill="rgb(164,131,90)"/>
<path d="M55 26h1v8h-1v-8z" fill="rgb(0,0,0)"/>
<path d="M62 26h1v1h-1v-1z" fill="rgb(139,98,49)"/>
<path d="M63 26h1v2h1v-1h1v2h-1v1h-1v-1h-2v-1h1v-2z" fill="rgb(246,222,0)"/>
<path d="M64 26h2v1h-1v1h-1v-2z" fill="rgb(255,238,115)"/>
<path d="M66 26h1v1h-1v-1z" fill="rgb(90,65,41)"/>
<path d="M67 26h1v1h-1v-1z" fill="rgb(139,98,49)"/>
<path d="M68 26h1v1h-1v-1z" fill="rgb(90,65,41)"/>
<path d="M34 27h1v1h-1v-1z" fill="rgb(164,131,90)"/>
<path d="M35 27h1v1h1v1h-2v-2z" fill="rgb(246,222,0)"/>
<path d="M51 27h1v1h-1v-1z" fill="rgb(222,189,65)"/>
<path d="M52 27h1v1h-1v-1z" fill="rgb(164,131,90)"/>
<path d="M62 27h1v1h-1v-1z" fill="rgb(180,148,32)"/>
<path d="M66 27h1v1h-1v-1z" fill="rgb(164,131,90)"/>
<path d="M67 27h1v2h-1v-2z" fill="rgb(255,238,115)"/>
<path d="M68 27h1v3h-1v1h-2v-2h2v-2z" fill="rgb(246,222,0)"/>
<path d="M69 27h1v1h-1v-1z" fill="rgb(139,98,49)"/>
<path d="M70 27h1v1h-1v-1z" fill="rgb(90,65,41)"/>
<path d="M34 28h1v2h-1v-2z" fill="rgb(139,98,49)"/>
<path d="M52 28h1v1h-1v-1z" fill="rgb(222,189,65)"/>
<path d="M61 28h1v3h-1v-3z" fill="rgb(90,65,41)"/>
<path d="M66 28h1v1h-1v-1z" fill="rgb(180,148,32)"/>
<path d="M69 28h1v2h-1v-2z" fill="rgb(180,148,32)"/>
<path d="M70 28h1v1h-1v-1z" fill="rgb(255,238,115)"/>
<path d="M71 28h1v1h-1v-1z" fill="rgb(90,65,41)"/>
<path d="M35 29h1v1h-1v-1z" fill="rgb(180,148,32)"/>
<path d="M36 29h1v1h-1v-1z" fill="rgb(106,82,0)"/>
<path d="M53 29h1v2h1v2h-1v3h-1v2h-1v1h-2v1h-2v-1h-2v-1h-1v-2h1v1h2v-1h1v-1h1v-2h2v-2h1
	v-2z" fill="rgb(222,189,65)"/>
<path d="M62 29h1v1h2v1h-1v1h-2v-3z" fill="rgb(180,148,32)"/>
<path d="M63 29h1v1h-1v-1z" fill="rgb(222,189,65)"/>
<path d="M65 29h1v1h-1v-1z" fill="rgb(139,98,49)"/>
<path d="M70 29h1v3h-2v-2h1v-1z" fill="rgb(246,222,0)"/>
<path d="M71 29h1v1h-1v-1z" fill="rgb(180,148,32)"/>
<path d="M72 29h1v1h-1v-1z" fill="rgb(139,98,49)"/>
<path d="M34 30h1v2h-1v-2z" fill="rgb(90,65,41)"/>
<path d="M35 30h1v1h-1v-1z" fill="rgb(255,255,255)"/>
<path d="M36 30h1v1h-1v-1z" fill="rgb(205,222,238)"/>
<path d="M37 30h1v1h-1v-1z" fill="rgb(180,148,32)"/>
<path d="M65 30h1v1h-1v-1z" fill="rgb(90,65,41)"/>
<path d="M68 30h1v1h-1v-1z" fill="rgb(180,148,32)"/>
<path d="M71 30h2v1h-2v-1z" fill="rgb(222,189,65)"/>
<path d="M73 30h1v4h-1v-4z" fill="rgb(0,0,0)"/>
<path d="M35 31h1v1h-1v-1z" fill="rgb(180,148,32)"/>
<path d="M36 31h1v1h-1v-1z" fill="rgb(255,255,255)"/>
<path d="M37 31h1v1h-1v-1z" fill="rgb(0,0,0)"/>
<path d="M46 31h2v1h-2v-1z" fill="rgb(106,82,0)"/>
<path d="M48 31h1v1h-1v-1z" fill="rgb(180,148,32)"/>
<path d="M60 31h1v2h-1v-2z" fill="rgb(0,0,0)"/>
<path d="M61 31h1v1h-1v-1z" fill="rgb(139,98,49)"/>
<path d="M64 31h1v2h-2v-1h1v-1z" fill="rgb(0,0,0)"/>
<path d="M65 31h2v2h-2v-2z" fill="rgb(180,148,32)"/>
<path d="M67 31h1v1h-1v-1z" fill="rgb(222,189,65)"/>
<path d="M68 31h1v1h-1v-1z" fill="rgb(139,98,49)"/>
<path d="M71 31h1v1h-1v-1z" fill="rgb(180,148,32)"/>
<path d="M72 31h1v2h-1v-2z" fill="rgb(246,222,0)"/>
<path d="M33 32h1v4h-1v-4z" fill="rgb(90,65,41)"/>
<path d="M34 32h2v1h1v1h-1v1h-2v-3z" fill="rgb(246,222,0)"/>
<path d="M36 32h1v1h-1v-1z" fill="rgb(180,148,32)"/>
<path d="M37 32h1v1h-1v-1z" fill="rgb(106,82,0)"/>
<path d="M45 32h1v1h-1v-1z" fill="rgb(106,82,0)"/>
<path d="M46 32h3v1h1v1h-3v-1h-1v-1z" fill="rgb(255,255,255)"/>
<path d="M49 32h1v1h-1v-1z" fill="rgb(106,82,0)"/>
<path d="M61 32h1v1h-1v-1z" fill="rgb(180,148,32)"/>
<path d="M62 32h1v1h-1v-1z" fill="rgb(90,65,41)"/>
<path d="M67 32h1v1h-1v-1z" fill="rgb(90,65,41)"/>
<path d="M68 32h1v1h1v1h-3v-1h1v-1z" fill="rgb(180,148,32)"/>
<path d="M69 32h2v1h-2v-1z" fill="rgb(222,189,65)"/>
<path d="M71 32h1v1h-1v-1z" fill="rgb(139,98,49)"/>
<path d="M37 33h1v1h-1v-1z" fill="rgb(164,131,90)"/>
<path d="M44 33h1v1h-1v-1z" fill="rgb(106,82,0)"/>
<path d="M45 33h1v1h-1v-1z" fill="rgb(255,255,255)"/>
<path d="M46 33h1v1h-1v-1z" fill="rgb(0,0,0)"/>
<path d="M54 33h1v1h-1v-1z" fill="rgb(90,65,41)"/>
<path d="M60 33h1v1h-1v-1z" fill="rgb(90,65,41)"/>
<path d="M61 33h1v1h1v1h-2v-2z" fill="rgb(222,189,65)"/>
<path d="M62 33h1v1h-1v-1z" fill="rgb(180,148,32)"/>
<path d="M63 33h1v3h-1v-3z" fill="rgb(205,222,238)"/>
<path d="M64 33h1v1h-1v-1z" fill="rgb(106,82,0)"/>
<path d="M65 33h2v1h-1v1h-2v-1h1v-1z" fill="rgb(0,0,0)"/>
<path d="M70 33h1v1h-1v-1z" fill="rgb(90,65,41)"/>
<path d="M71 33h2v1h-2v-1z" fill="rgb(222,189,65)"/>
<path d="M36 34h1v1h-1v-1z" fill="rgb(106,82,0)"/>
<path d="M37 34h3v3h-3v1h-1v-3h1v-1z" fill="rgb(255,238,115)"/>
<path d="M54 34h1v2h-1v-2z" fill="rgb(0,0,0)"/>
<path d="M55 34h1v1h-1v-1z" fill="rgb(90,65,41)"/>
<path d="M56 34h1v1h-1v-1z" fill="rgb(0,0,0)"/>
<path d="M57 34h1v1h-1v-1z" fill="rgb(82,90,106)"/>
<path d="M60 34h1v1h-1v-1z" fill="rgb(139,98,49)"/>
<path d="M66 34h1v1h-1v-1z" fill="rgb(139,98,49)"/>
<path d="M67 34h1v1h-1v-1z" fill="rgb(90,65,41)"/>
<path d="M68 34h1v1h3v1h-6v-1h2v-1z" fill="rgb(0,0,0)"/>
<path d="M69 34h1v1h-1v-1z" fill="rgb(106,82,0)"/>
<path d="M70 34h2v1h-2v-1z" fill="rgb(180,148,32)"/>
<path d="M72 34h1v1h-1v-1z" fill="rgb(0,0,0)"/>
<path d="M34 35h1v1h-1v-1z" fill="rgb(222,189,65)"/>
<path d="M35 35h1v2h-1v-2z" fill="rgb(106,82,0)"/>
<path d="M43 35h1v1h-1v-1z" fill="rgb(180,148,32)"/>
<path d="M44 35h1v1h-1v-1z" fill="rgb(222,189,65)"/>
<path d="M55 35h2v1h1v1h1v2h-3v-1h-1v-3z" fill="rgb(205,222,238)"/>
<path d="M57 35h1v1h-1v-1z" fill="rgb(156,172,189)"/>
<path d="M58 35h1v2h-1v-2z" fill="rgb(82,90,106)"/>
<path d="M61 35h1v8h-1v-3h-1v-1h1v-4z" fill="rgb(90,65,41)"/>
<path d="M62 35h1v5h-1v-5z" fill="rgb(180,148,32)"/>
<path d="M64 35h2v1h-1v1h-1v-2z" fill="rgb(180,148,32)"/>
<path d="M31 36h1v1h-1v-1z" fill="rgb(0,0,0)"/>
<path d="M32 36h1v2h-1v-2z" fill="rgb(82,90,106)"/>
<path d="M33 36h1v1h-1v-1z" fill="rgb(205,222,238)"/>
<path d="M34 36h1v1h-1v-1z" fill="rgb(180,148,32)"/>
<path d="M42 36h2v2h-2v-2z" fill="rgb(222,189,65)"/>
<path d="M44 36h1v1h-1v-1z" fill="rgb(139,98,49)"/>
<path d="M53 36h1v1h-1v-1z" fill="rgb(90,65,41)"/>
<path d="M54 36h1v2h1v1h1v1h-1v2h1v4h-1v-2h-1v-1h-2v-1h-3v1h-3v1h-1v-1h-1v1h-2v1h-1v-2h1
	v-1h6v-1h2v-1h1v-1h1v-1h1v-2z" fill="rgb(156,172,189)"/>
<path d="M63 36h1v5h-1v-5z" fill="rgb(255,255,255)"/>
<path d="M65 36h4v1h1v1h-1v4h-1v2h-1v-1h-1v-1h-1v-1h-1v-4h1v-1z" fill="rgb(222,189,65)"/>
<path d="M69 36h2v1h-2v-1z" fill="rgb(180,148,32)"/>
<path d="M28 37h3v1h-3v-1z" fill="rgb(0,0,0)"/>
<path d="M31 37h1v1h-1v-1z" fill="rgb(222,189,65)"/>
<path d="M33 37h1v1h-1v-1z" fill="rgb(255,255,255)"/>
<path d="M34 37h1v3h-1v-3z" fill="rgb(106,82,0)"/>
<path d="M44 37h1v1h-1v-1z" fill="rgb(90,65,41)"/>
<path d="M53 37h1v1h-1v-1z" fill="rgb(0,0,0)"/>
<path d="M59 37h1v2h-1v-2z" fill="rgb(0,0,0)"/>
<path d="M70 37h1v2h-1v-2z" fill="rgb(0,0,0)"/>
<path d="M25 38h3v1h-3v-1z" fill="rgb(0,0,0)"/>
<path d="M28 38h3v2h1v2h-1v1h1v1h-2v1h-1v-1h-1v-2h-1v-1h-1v-1h-1v-1h3v-1z" fill="rgb(222,189,65)"/>
<path d="M31 38h1v1h1v1h-2v-2z" fill="rgb(82,90,106)"/>
<path d="M32 38h1v1h-1v-1z" fill="rgb(255,255,255)"/>
<path d="M33 38h1v1h-1v-1z" fill="rgb(205,222,238)"/>
<path d="M41 38h1v1h-1v-1z" fill="rgb(222,189,65)"/>
<path d="M42 38h2v1h-2v-1z" fill="rgb(90,65,41)"/>
<path d="M44 38h2v1h2v1h1v1h-5v1h-2v-1h-1v-1h1v-1h2v-1z" fill="rgb(180,148,32)"/>
<path d="M52 38h1v1h-1v-1z" fill="rgb(0,0,0)"/>
<path d="M69 38h1v1h-1v-1z" fill="rgb(180,148,32)"/>
<path d="M24 39h1v1h-1v-1z" fill="rgb(0,0,0)"/>
<path d="M33 39h1v1h-1v-1z" fill="rgb(255,255,255)"/>
<path d="M35 39h1v1h-1v-1z" fill="rgb(222,189,65)"/>
<path d="M39 39h1v1h-1v-1z" fill="rgb(222,189,65)"/>
<path d="M40 39h1v1h-1v-1z" fill="rgb(90,65,41)"/>
<path d="M41 39h1v1h-1v-1z" fill="rgb(0,0,0)"/>
<path d="M50 39h1v1h-1v-1z" fill="rgb(180,148,32)"/>
<path d="M51 39h1v1h-1v-1z" fill="rgb(0,0,0)"/>
<path d="M57 39h1v1h-1v-1z" fill="rgb(90,65,41)"/>
<path d="M58 39h1v2h-1v-2z" fill="rgb(0,0,0)"/>
<path d="M59 39h1v1h1v5h-1v-1h-1v-1h1v-2h-1v-2z" fill="rgb(180,148,32)"/>
<path d="M69 39h1v3h-1v-3z" fill="rgb(0,0,0)"/>
<path d="M23 40h1v1h-1v-1z" fill="rgb(0,0,0)"/>
<path d="M24 40h2v1h1v1h1v2h1v2h-1v2h-1v2h-1v4h-2v2h-2v-2h-1v2h-1v-3h-1v-1h-1v1h-1v-3h1
	v-1h1v-1h1v-2h1v-1h1v-2h1v-1h1v-2z" fill="rgb(246,222,0)"/>
<path d="M32 40h1v1h-1v-1z" fill="rgb(0,0,0)"/>
<path d="M33 40h1v1h-1v-1z" fill="rgb(156,172,189)"/>
<path d="M34 40h1v1h-1v-1z" fill="rgb(0,0,0)"/>
<path d="M35 40h1v1h-1v-1z" fill="rgb(106,82,0)"/>
<path d="M36 40h3v1h-3v-1z" fill="rgb(222,189,65)"/>
<path d="M39 40h1v1h-1v-1z" fill="rgb(0,0,0)"/>
<path d="M40 40h1v1h-1v-1z" fill="rgb(139,98,49)"/>
<path d="M49 40h1v1h-1v-1z" fill="rgb(90,65,41)"/>
<path d="M50 40h1v1h-1v-1z" fill="rgb(0,0,0)"/>
<path d="M56 40h2v1h1v2h-1v1h1v1h-1v2h-1v-5h-1v-2z" fill="rgb(131,148,164)"/>
<path d="M62 40h1v5h-1v-5z" fill="rgb(246,222,0)"/>
<path d="M23 41h1v1h-1v-1z" fill="rgb(106,82,0)"/>
<path d="M32 41h1v1h-1v-1z" fill="rgb(82,90,106)"/>
<path d="M33 41h2v1h4v-1h2v1h1v4h1v-1h1v-1h2v1h2v-1h2v1h1v-1h1v2h-2v1h-6v1h-2v-1h-4v-2
	h-2v1h-1v1h-1v-3h1v-1h-3v-1h1v-1z" fill="rgb(255,255,255)"/>
<path d="M35 41h4v1h-4v-1z" fill="rgb(0,0,0)"/>
<path d="M41 41h1v1h-1v-1z" fill="rgb(139,98,49)"/>
<path d="M44 41h1v1h-1v-1z" fill="rgb(139,98,49)"/>
<path d="M45 41h2v1h-2v-1z" fill="rgb(90,65,41)"/>
<path d="M47 41h1v1h-1v-1z" fill="rgb(0,0,0)"/>
<path d="M48 41h1v1h-1v-1z" fill="rgb(82,90,106)"/>
<path d="M59 41h1v2h-1v-2z" fill="rgb(0,0,0)"/>
<path d="M63 41h1v2h-1v-2z" fill="rgb(205,222,238)"/>
<path d="M64 41h1v1h1v1h1v1h1v1h-1v2h-1v-1h-2v-5z" fill="rgb(246,222,0)"/>
<path d="M22 42h1v1h-1v-1z" fill="rgb(106,82,0)"/>
<path d="M31 42h1v1h-1v-1z" fill="rgb(82,90,106)"/>
<path d="M42 42h1v1h-1v-1z" fill="rgb(205,222,238)"/>
<path d="M50 42h3v1h2v1h1v3h-1v1h-2v-1h-2v1h1v1h1v1h-2v-1h-2v1h-1v-3h2v-1h2v-2h-1v-1h-1
	v-1z" fill="rgb(205,222,238)"/>
<path d="M68 42h1v3h-1v-3z" fill="rgb(0,0,0)"/>
<path d="M21 43h1v1h-1v-1z" fill="rgb(106,82,0)"/>
<path d="M32 43h1v2h-1v-2z" fill="rgb(0,0,0)"/>
<path d="M33 43h2v1h-1v1h-1v-2z" fill="rgb(156,172,189)"/>
<path d="M45 43h1v1h-1v-1z" fill="rgb(205,222,238)"/>
<path d="M47 43h2v1h-1v1h-2v-1h1v-1z" fill="rgb(205,222,238)"/>
<path d="M49 43h1v1h-1v-1z" fill="rgb(131,148,164)"/>
<path d="M50 43h1v1h-1v-1z" fill="rgb(156,172,189)"/>
<path d="M58 43h1v1h-1v-1z" fill="rgb(0,0,0)"/>
<path d="M61 43h1v1h-1v-1z" fill="rgb(139,98,49)"/>
<path d="M63 43h1v1h-1v-1z" fill="rgb(156,172,189)"/>
<path d="M21 44h1v1h-1v-1z" fill="rgb(139,98,49)"/>
<path d="M30 44h2v1h-2v-1z" fill="rgb(90,65,41)"/>
<path d="M43 44h1v1h-1v-1z" fill="rgb(205,222,238)"/>
<path d="M50 44h1v1h-1v-1z" fill="rgb(205,222,238)"/>
<path d="M59 44h1v1h-1v-1z" fill="rgb(0,0,0)"/>
<path d="M61 44h1v1h1v1h-2v1h-1v-2h1v-1z" fill="rgb(222,189,65)"/>
<path d="M63 44h1v2h-1v-2z" fill="rgb(131,148,164)"/>
<path d="M20 45h1v1h-1v-1z" fill="rgb(106,82,0)"/>
<path d="M29 45h1v1h-1v-1z" fill="rgb(0,0,0)"/>
<path d="M33 45h1v2h-1v-2z" fill="rgb(0,0,0)"/>
<path d="M36 45h2v1h-2v-1z" fill="rgb(156,172,189)"/>
<path d="M42 45h1v1h-1v-1z" fill="rgb(205,222,238)"/>
<path d="M58 45h1v2h-1v-2z" fill="rgb(0,0,0)"/>
<path d="M59 45h1v2h-1v-2z" fill="rgb(180,148,32)"/>
<path d="M67 45h1v2h-1v-2z" fill="rgb(0,0,0)"/>
<path d="M19 46h1v1h-1v-1z" fill="rgb(139,98,49)"/>
<path d="M28 46h1v1h-1v-1z" fill="rgb(90,65,41)"/>
<path d="M35 46h2v1h-1v2h-1v-1h-1v-1h1v-1z" fill="rgb(82,90,106)"/>
<path d="M37 46h1v2h-1v1h-1v-2h1v-1z" fill="rgb(205,222,238)"/>
<path d="M56 46h1v2h-1v-2z" fill="rgb(82,90,106)"/>
<path d="M61 46h2v1h-2v-1z" fill="rgb(82,90,106)"/>
<path d="M63 46h1v5h-1v-5z" fill="rgb(0,0,0)"/>
<path d="M64 46h1v1h-1v-1z" fill="rgb(82,90,106)"/>
<path d="M65 46h1v1h-1v-1z" fill="rgb(0,0,0)"/>
<path d="M18 47h1v1h-1v-1z" fill="rgb(139,98,49)"/>
<path d="M19 47h1v1h-1v-1z" fill="rgb(222,189,65)"/>
<path d="M28 47h1v1h-1v-1z" fill="rgb(0,0,0)"/>
<path d="M38 47h1v1h-1v-1z" fill="rgb(156,172,189)"/>
<path d="M39 47h3v1h-1v2h-1v-1h-1v-2z" fill="rgb(205,222,238)"/>
<path d="M44 47h3v2h-1v2h-1v-1h-1v1h-1v-2h-1v-1h2v-1z" fill="rgb(205,222,238)"/>
<path d="M47 47h1v1h-1v-1z" fill="rgb(156,172,189)"/>
<path d="M51 47h1v1h-1v-1z" fill="rgb(156,172,189)"/>
<path d="M52 47h1v1h-1v-1z" fill="rgb(82,90,106)"/>
<path d="M55 47h1v4h-1v-2h-1v-1h1v-1z" fill="rgb(0,0,0)"/>
<path d="M57 47h1v1h-1v-1z" fill="rgb(0,0,0)"/>
<path d="M59 47h1v1h-1v-1z" fill="rgb(0,0,0)"/>
<path d="M60 47h1v1h-1v-1z" fill="rgb(82,90,106)"/>
<path d="M61 47h2v1h-2v-1z" fill="rgb(205,222,238)"/>
<path d="M64 47h2v1h-2v-1z" fill="rgb(156,172,189)"/>
<path d="M66 47h1v1h-1v-1z" fill="rgb(0,0,0)"/>
<path d="M18 48h1v1h-1v-1z" fill="rgb(180,148,32)"/>
<path d="M27 48h1v1h-1v-1z" fill="rgb(90,65,41)"/>
<path d="M37 48h1v1h-1v-1z" fill="rgb(0,0,0)"/>
<path d="M38 48h1v1h-1v-1z" fill="rgb(131,148,164)"/>
<path d="M41 48h1v1h-1v-1z" fill="rgb(156,172,189)"/>
<path d="M47 48h1v2h-1v-2z" fill="rgb(82,90,106)"/>
<path d="M52 48h1v1h-1v-1z" fill="rgb(156,172,189)"/>
<path d="M53 48h1v1h-1v-1z" fill="rgb(82,90,106)"/>
<path d="M59 48h1v5h-1v-5z" fill="rgb(82,90,106)"/>
<path d="M60 48h1v1h-1v-1z" fill="rgb(205,222,238)"/>
<path d="M61 48h2v1h-1v4h3v-4h-1v-1h2v1h1v4h-1v1h-5v-1h-1v-2h1v-3z" fill="rgb(131,148,164)"/>
<path d="M66 48h1v1h-1v-1z" fill="rgb(156,172,189)"/>
<path d="M67 48h1v3h-1v-3z" fill="rgb(82,90,106)"/>
<path d="M17 49h1v1h-1v-1z" fill="rgb(139,98,49)"/>
<path d="M27 49h1v1h-1v-1z" fill="rgb(0,0,0)"/>
<path d="M35 49h1v2h-1v-2z" fill="rgb(0,0,0)"/>
<path d="M36 49h1v1h-1v-1z" fill="rgb(82,90,106)"/>
<path d="M37 49h1v1h2v1h1v-1h1v1h1v1h1v-1h1v1h2v1h2v1h1v1h1v1h-2v1h-6v-1h-2v-1h-2v-1h-1
	v-1h-1v-4z" fill="rgb(246,222,0)"/>
<path d="M38 49h1v1h-1v-1z" fill="rgb(82,90,106)"/>
<path d="M39 49h1v1h-1v-1z" fill="rgb(0,0,0)"/>
<path d="M41 49h1v1h-1v-1z" fill="rgb(82,90,106)"/>
<path d="M42 49h1v1h-1v-1z" fill="rgb(156,172,189)"/>
<path d="M46 49h1v1h-1v-1z" fill="rgb(156,172,189)"/>
<path d="M49 49h1v1h-1v-1z" fill="rgb(0,0,0)"/>
<path d="M50 49h1v1h-1v-1z" fill="rgb(82,90,106)"/>
<path d="M53 49h1v2h-2v-1h1v-1z" fill="rgb(0,0,0)"/>
<path d="M54 49h1v2h-1v-2z" fill="rgb(222,189,65)"/>
<path d="M60 49h1v2h-1v-2z" fill="rgb(156,172,189)"/>
<path d="M62 49h1v2h1v-2h1v3h-3v-3z" fill="rgb(82,90,106)"/>
<path d="M16 50h1v2h-1v-2z" fill="rgb(139,98,49)"/>
<path d="M26 50h1v2h-1v-2z" fill="rgb(90,65,41)"/>
<path d="M36 50h1v3h1v1h1v1h2v1h2v1h6v-1h2v-1h-1v-1h-1v-1h-2v-1h-1v-1h1v-1h1v1h1v-1h2v1
	h3v5h1v1h1v1h1v1h1v1h2v2h1v3h-1v1h-4v-1h-2v-1h-2v-1h-2v-1h-2v-1h-5v-1h-1v1h-2v1
	h-1v2h-2v1h-1v-1h-2v-1h2v-1h1v-1h1v-5h-1v-1h-2v-2h1v-3z" fill="rgb(222,189,65)"/>
<path d="M40 50h1v1h-1v-1z" fill="rgb(0,0,0)"/>
<path d="M42 50h1v1h-1v-1z" fill="rgb(82,90,106)"/>
<path d="M44 50h1v1h-1v-1z" fill="rgb(0,0,0)"/>
<path d="M46 50h1v1h-1v-1z" fill="rgb(0,0,0)"/>
<path d="M48 50h1v1h-1v-1z" fill="rgb(0,0,0)"/>
<path d="M51 50h1v1h-1v-1z" fill="rgb(82,90,106)"/>
<path d="M35 51h1v2h-1v-2z" fill="rgb(90,65,41)"/>
<path d="M43 51h1v1h-1v-1z" fill="rgb(82,90,106)"/>
<path d="M45 51h1v1h-1v-1z" fill="rgb(0,0,0)"/>
<path d="M54 51h1v1h-1v-1z" fill="rgb(90,65,41)"/>
<path d="M67 51h1v2h-1v-2z" fill="rgb(0,0,0)"/>
<path d="M16 52h1v1h-1v-1z" fill="rgb(90,65,41)"/>
<path d="M18 52h1v1h-1v-1z" fill="rgb(180,148,32)"/>
<path d="M26 52h1v4h-1v1h-1v-2h1v-3z" fill="rgb(222,189,65)"/>
<path d="M27 52h1v4h-1v-4z" fill="rgb(0,0,0)"/>
<path d="M54 52h1v3h-1v-3z" fill="rgb(0,0,0)"/>
<path d="M62 52h1v1h-1v-1z" fill="rgb(156,172,189)"/>
<path d="M63 52h2v1h-2v-1z" fill="rgb(205,222,238)"/>
<path d="M16 53h1v2h-1v-2z" fill="rgb(0,0,0)"/>
<path d="M17 53h1v1h-1v-1z" fill="rgb(180,148,32)"/>
<path d="M18 53h1v2h-1v-2z" fill="rgb(246,222,0)"/>
<path d="M19 53h1v1h-1v-1z" fill="rgb(222,189,65)"/>
<path d="M34 53h1v2h-1v-2z" fill="rgb(139,98,49)"/>
<path d="M60 53h1v1h-1v-1z" fill="rgb(82,90,106)"/>
<path d="M66 53h1v1h-1v-1z" fill="rgb(0,0,0)"/>
<path d="M17 54h1v1h-1v-1z" fill="rgb(90,65,41)"/>
<path d="M19 54h1v1h-1v-1z" fill="rgb(180,148,32)"/>
<path d="M21 54h1v2h-1v-2z" fill="rgb(180,148,32)"/>
<path d="M24 54h1v1h-1v-1z" fill="rgb(164,131,90)"/>
<path d="M25 54h1v1h-1v-1z" fill="rgb(139,98,49)"/>
<path d="M61 54h1v1h-1v-1z" fill="rgb(82,90,106)"/>
<path d="M62 54h4v1h-4v-1z" fill="rgb(0,0,0)"/>
<path d="M17 55h1v1h-1v-1z" fill="rgb(0,0,0)"/>
<path d="M18 55h1v1h-1v-1z" fill="rgb(180,148,32)"/>
<path d="M19 55h1v2h-1v-2z" fill="rgb(90,65,41)"/>
<path d="M24 55h1v1h-1v-1z" fill="rgb(139,98,49)"/>
<path d="M33 55h1v1h-1v-1z" fill="rgb(139,98,49)"/>
<path d="M34 55h1v1h-1v-1z" fill="rgb(222,189,65)"/>
<path d="M35 55h2v1h1v5h-1v1h-1v1h-2v1h-3v-2h-1v1h-1v-2h1v-2h1v-1h1v-1h2v-1h1v-1z" fill="rgb(246,222,0)"/>
<path d="M54 55h1v1h-1v-1z" fill="rgb(90,65,41)"/>
<path d="M18 56h1v1h-1v-1z" fill="rgb(0,0,0)"/>
<path d="M20 56h1v1h-1v-1z" fill="rgb(180,148,32)"/>
<path d="M21 56h1v1h-1v-1z" fill="rgb(90,65,41)"/>
<path d="M22 56h2v2h-2v-2z" fill="rgb(222,189,65)"/>
<path d="M24 56h1v2h-1v-2z" fill="rgb(90,65,41)"/>
<path d="M26 56h1v1h-1v-1z" fill="rgb(0,0,0)"/>
<path d="M32 56h1v1h-1v-1z" fill="rgb(139,98,49)"/>
<path d="M33 56h1v1h-1v-1z" fill="rgb(222,189,65)"/>
<path d="M55 56h1v1h-1v-1z" fill="rgb(0,0,0)"/>
<path d="M20 57h2v1h-2v-1z" fill="rgb(0,0,0)"/>
<path d="M25 57h1v1h-1v-1z" fill="rgb(0,0,0)"/>
<path d="M31 57h1v1h-1v-1z" fill="rgb(139,98,49)"/>
<path d="M56 57h1v1h-1v-1z" fill="rgb(0,0,0)"/>
<path d="M22 58h2v1h-2v-1z" fill="rgb(0,0,0)"/>
<path d="M30 58h1v1h-1v-1z" fill="rgb(90,65,41)"/>
<path d="M57 58h1v1h-1v-1z" fill="rgb(139,98,49)"/>
<path d="M58 58h1v1h-1v-1z" fill="rgb(90,65,41)"/>
<path d="M29 59h1v1h-1v-1z" fill="rgb(90,65,41)"/>
<path d="M58 59h1v1h-1v-1z" fill="rgb(180,148,32)"/>
<path d="M59 59h1v1h-1v-1z" fill="rgb(0,0,0)"/>
<path d="M29 60h1v1h-1v-1z" fill="rgb(139,98,49)"/>
<path d="M42 60h1v1h-1v-1z" fill="rgb(180,148,32)"/>
<path d="M60 60h1v1h-1v-1z" fill="rgb(0,0,0)"/>
<path d="M28 61h1v2h-1v-2z" fill="rgb(90,65,41)"/>
<path d="M40 61h1v1h-1v-1z" fill="rgb(180,148,32)"/>
<path d="M41 61h7v1h-7v-1z" fill="rgb(0,0,0)"/>
<path d="M60 61h1v1h-1v-1z" fill="rgb(180,148,32)"/>
<path d="M61 61h1v5h-1v-5z" fill="rgb(0,0,0)"/>
<path d="M30 62h1v1h-1v-1z" fill="rgb(180,148,32)"/>
<path d="M39 62h1v1h-1v-1z" fill="rgb(180,148,32)"/>
<path d="M40 62h1v1h-1v-1z" fill="rgb(0,0,0)"/>
<path d="M48 62h1v1h-1v-1z" fill="rgb(0,0,0)"/>
<path d="M49 62h1v1h-1v-1z" fill="rgb(90,65,41)"/>
<path d="M28 63h1v1h-1v-1z" fill="rgb(0,0,0)"/>
<path d="M29 63h1v1h-1v-1z" fill="rgb(222,189,65)"/>
<path d="M30 63h1v2h-1v-2z" fill="rgb(106,82,0)"/>
<path d="M39 63h1v1h-1v-1z" fill="rgb(0,0,0)"/>
<path d="M50 63h1v1h-1v-1z" fill="rgb(0,0,0)"/>
<path d="M51 63h1v1h-1v-1z" fill="rgb(90,65,41)"/>
<path d="M29 64h1v2h-1v-2z" fill="rgb(0,0,0)"/>
<path d="M31 64h3v1h-3v-1z" fill="rgb(222,189,65)"/>
<path d="M34 64h2v1h1v-1h1v2h1v3h1v2h-2v-1h-3v1h-1v1h-2v-4h-1v-2h1v-1h2v-1z" fill="rgb(180,148,32)"/>
<path d="M38 64h1v1h-1v-1z" fill="rgb(0,0,0)"/>
<path d="M52 64h1v2h-1v-2z" fill="rgb(0,0,0)"/>
<path d="M53 64h1v1h-1v-1z" fill="rgb(180,148,32)"/>
<path d="M30 65h1v1h-1v-1z" fill="rgb(180,148,32)"/>
<path d="M31 65h1v1h-1v-1z" fill="rgb(106,82,0)"/>
<path d="M38 65h1v1h-1v-1z" fill="rgb(90,65,41)"/>
<path d="M51 65h1v1h-1v-1z" fill="rgb(90,65,41)"/>
<path d="M53 65h1v1h-1v-1z" fill="rgb(106,82,0)"/>
<path d="M54 65h2v1h3v1h-1v1h-1v1h1v1h1v1h-1v1h-1v-1h-1v-1h-2v1h-2v1h-2v-2h-1v-3h2v-1h3
	v-1z" fill="rgb(180,148,32)"/>
<path d="M60 65h1v1h-1v-1z" fill="rgb(139,98,49)"/>
<path d="M30 66h1v2h-1v-2z" fill="rgb(0,0,0)"/>
<path d="M39 66h1v2h-1v-2z" fill="rgb(0,0,0)"/>
<path d="M49 66h1v1h-1v-1z" fill="rgb(90,65,41)"/>
<path d="M50 66h1v1h-1v-1z" fill="rgb(139,98,49)"/>
<path d="M59 66h1v1h-1v-1z" fill="rgb(139,98,49)"/>
<path d="M60 66h1v1h-1v-1z" fill="rgb(0,0,0)"/>
<path d="M48 67h1v1h-1v-1z" fill="rgb(90,65,41)"/>
<path d="M58 67h2v1h-2v-1z" fill="rgb(0,0,0)"/>
<path d="M31 68h1v1h-1v-1z" fill="rgb(90,65,41)"/>
<path d="M39 68h1v1h-1v-1z" fill="rgb(90,65,41)"/>
<path d="M48 68h1v2h-1v-2z" fill="rgb(0,0,0)"/>
<path d="M57 68h1v1h-1v-1z" fill="rgb(0,0,0)"/>
<path d="M31 69h1v1h-1v-1z" fill="rgb(0,0,0)"/>
<path d="M40 69h1v1h-1v-1z" fill="rgb(0,0,0)"/>
<path d="M58 69h1v1h-1v-1z" fill="rgb(90,65,41)"/>
<path d="M30 70h1v1h-1v-1z" fill="rgb(90,65,41)"/>
<path d="M31 70h1v2h-2v-1h1v-1z" fill="rgb(222,189,65)"/>
<path d="M35 70h3v1h2v1h1v3h-2v-1h-1v-1h-2v-1h-2v-1h1v-1z" fill="rgb(222,189,65)"/>
<path d="M40 70h1v1h-1v-1z" fill="rgb(90,65,41)"/>
<path d="M49 70h1v2h-1v-2z" fill="rgb(0,0,0)"/>
<path d="M54 70h2v1h1v1h2v1h-1v1h-2v-2h-1v-1h-1v-1z" fill="rgb(222,189,65)"/>
<path d="M59 70h2v1h-2v-1z" fill="rgb(90,65,41)"/>
<path d="M28 71h1v1h-1v-1z" fill="rgb(139,98,49)"/>
<path d="M29 71h1v1h-1v-1z" fill="rgb(90,65,41)"/>
<path d="M40 71h1v1h-1v-1z" fill="rgb(180,148,32)"/>
<path d="M41 71h1v4h-1v-4z" fill="rgb(0,0,0)"/>
<path d="M52 71h2v1h1v2h-3v-1h-1v-1h1v-1z" fill="rgb(222,189,65)"/>
<path d="M54 71h1v1h-1v-1z" fill="rgb(139,98,49)"/>
<path d="M58 71h1v1h-1v-1z" fill="rgb(139,98,49)"/>
<path d="M59 71h2v2h-1v-1h-1v-1z" fill="rgb(180,148,32)"/>
<path d="M61 71h1v1h-1v-1z" fill="rgb(90,65,41)"/>
<path d="M27 72h1v1h-1v-1z" fill="rgb(139,98,49)"/>
<path d="M28 72h3v1h-1v1h-2v-2z" fill="rgb(246,222,0)"/>
<path d="M31 72h1v1h-1v-1z" fill="rgb(139,98,49)"/>
<path d="M32 72h1v1h-1v-1z" fill="rgb(164,131,90)"/>
<path d="M33 72h3v1h-1v1h-1v1h-3v-2h2v-1z" fill="rgb(246,222,0)"/>
<path d="M50 72h1v2h-1v-2z" fill="rgb(0,0,0)"/>
<path d="M55 72h1v1h-1v-1z" fill="rgb(139,98,49)"/>
<path d="M59 72h1v1h-1v-1z" fill="rgb(90,65,41)"/>
<path d="M61 72h1v1h-1v-1z" fill="rgb(0,0,0)"/>
<path d="M27 73h1v1h-1v-1z" fill="rgb(90,65,41)"/>
<path d="M30 73h1v1h-1v-1z" fill="rgb(139,98,49)"/>
<path d="M35 73h1v1h-1v-1z" fill="rgb(139,98,49)"/>
<path d="M36 73h2v1h1v1h-1v1h-1v-1h-2v-1h1v-1z" fill="rgb(246,222,0)"/>
<path d="M51 73h1v1h-1v-1z" fill="rgb(139,98,49)"/>
<path d="M55 73h1v1h-1v-1z" fill="rgb(90,65,41)"/>
<path d="M58 73h1v1h-1v-1z" fill="rgb(180,148,32)"/>
<path d="M59 73h2v1h-2v-1z" fill="rgb(0,0,0)"/>
<path d="M27 74h1v1h-1v-1z" fill="rgb(0,0,0)"/>
<path d="M28 74h2v1h-2v-1z" fill="rgb(222,189,65)"/>
<path d="M30 74h1v2h-3v-1h2v-1z" fill="rgb(0,0,0)"/>
<path d="M34 74h1v1h-1v-1z" fill="rgb(90,65,41)"/>
<path d="M51 74h8v1h-8v-1z" fill="rgb(0,0,0)"/>
<path d="M31 75h3v1h-3v-1z" fill="rgb(222,189,65)"/>
<path d="M34 75h1v1h4v1h-8v-1h3v-1z" fill="rgb(0,0,0)"/>
<path d="M35 75h2v1h-2v-1z" fill="rgb(222,189,65)"/>
<path d="M38 75h1v1h-1v-1z" fill="rgb(222,189,65)"/>
<path d="M39 75h1v1h-1v-1z" fill="rgb(90,65,41)"/>
<path d="M40 75h1v1h-1v-1z" fill="rgb(0,0,0)"/>
</svg>
