<?xml version="1.0" encoding="utf-8"?>
<!-- generated at drububu.com  -->
<!DOCTYPE svg PUBLIC "-//W3C//DTD SVG 1.1//EN" "http://www.w3.org/Graphics/SVG/1.1/DTD/svg11.dtd">
<svg version="1.1" preserveAspectRatio="xMinYMin meet" xmlns="http://www.w3.org/2000/svg" xmlns:xlink="http://www.w3.org/1999/xlink" x="0px" y="0px" width="96px" height="96px" viewBox="0 0 96 96">
<path d="M0 0h96v96h-96v-96z" fill="transparent"/>
<path d="M33 30h1v1h-1v-1z" fill="rgb(131,49,16)"/>
<path d="M34 30h4v1h-4v-1z" fill="rgb(222,82,74)"/>
<path d="M31 31h2v1h-2v-1z" fill="rgb(131,49,16)"/>
<path d="M33 31h5v1h1v1h1v1h-4v1h-3v-1h-1v-2h1v-1z" fill="rgb(255,164,98)"/>
<path d="M38 31h1v1h-1v-1z" fill="rgb(222,82,74)"/>
<path d="M30 32h1v1h-1v-1z" fill="rgb(131,49,16)"/>
<path d="M31 32h1v2h1v1h1v1h-1v3h-3v-1h-1v-3h1v-2h1v-1z" fill="rgb(255,115,49)"/>
<path d="M39 32h1v1h-1v-1z" fill="rgb(222,82,74)"/>
<path d="M59 32h3v1h-3v-1z" fill="rgb(222,82,74)"/>
<path d="M29 33h1v2h-1v-2z" fill="rgb(131,49,16)"/>
<path d="M40 33h1v1h-1v-1z" fill="rgb(131,49,16)"/>
<path d="M57 33h2v1h-2v-1z" fill="rgb(222,82,74)"/>
<path d="M59 33h3v1h2v3h-1v1h-3v-1h-5v-1h1v-1h1v-1h2v-1z" fill="rgb(255,164,98)"/>
<path d="M62 33h2v1h-2v-1z" fill="rgb(222,82,74)"/>
<path d="M36 34h1v1h-1v-1z" fill="rgb(255,115,49)"/>
<path d="M37 34h4v1h-4v-1z" fill="rgb(16,16,16)"/>
<path d="M56 34h1v1h-1v-1z" fill="rgb(222,82,74)"/>
<path d="M64 34h1v1h-1v-1z" fill="rgb(131,49,16)"/>
<path d="M28 35h1v2h-1v-2z" fill="rgb(131,49,16)"/>
<path d="M34 35h1v1h-1v-1z" fill="rgb(131,49,16)"/>
<path d="M35 35h2v1h-1v3h-1v-2h-1v-1h1v-1z" fill="rgb(16,16,16)"/>
<path d="M55 35h1v1h-1v-1z" fill="rgb(222,82,74)"/>
<path d="M64 35h1v1h1v2h1v3h-1v1h-1v1h-1v2h-2v-6h-1v-1h2v-1h1v-2z" fill="rgb(255,115,49)"/>
<path d="M65 35h1v1h-1v-1z" fill="rgb(131,49,16)"/>
<path d="M33 36h1v1h-1v-1z" fill="rgb(131,49,16)"/>
<path d="M54 36h1v1h-1v-1z" fill="rgb(222,82,74)"/>
<path d="M66 36h1v2h-1v-2z" fill="rgb(131,49,16)"/>
<path d="M27 37h1v3h-1v-3z" fill="rgb(131,49,16)"/>
<path d="M28 37h1v1h1v1h3v1h1v3h-1v1h-4v-1h-1v-6z" fill="rgb(222,82,74)"/>
<path d="M33 37h1v3h-1v-3z" fill="rgb(16,16,16)"/>
<path d="M34 37h1v2h1v2h-1v-1h-1v-3z" fill="rgb(90,65,32)"/>
<path d="M54 37h5v1h1v1h1v2h-1v1h-1v-2h-1v-1h-1v-1h-3v-1z" fill="rgb(16,16,16)"/>
<path d="M59 37h1v1h-1v-1z" fill="rgb(131,49,16)"/>
<path d="M37 38h1v1h-1v-1z" fill="rgb(16,16,16)"/>
<path d="M60 38h1v1h-1v-1z" fill="rgb(131,49,16)"/>
<path d="M67 38h1v2h-1v-2z" fill="rgb(131,49,16)"/>
<path d="M36 39h1v1h-1v-1z" fill="rgb(16,16,16)"/>
<path d="M37 39h1v1h1v3h-2v-4z" fill="rgb(255,115,49)"/>
<path d="M38 39h1v1h-1v-1z" fill="rgb(16,16,16)"/>
<path d="M44 39h1v1h-1v-1z" fill="rgb(222,82,74)"/>
<path d="M61 39h1v5h-1v-5z" fill="rgb(131,49,16)"/>
<path d="M27 40h1v3h-1v-3z" fill="rgb(16,16,16)"/>
<path d="M34 40h1v2h-1v-2z" fill="rgb(16,16,16)"/>
<path d="M36 40h1v1h-1v-1z" fill="rgb(131,49,16)"/>
<path d="M39 40h1v3h-1v-3z" fill="rgb(16,16,16)"/>
<path d="M43 40h1v2h-1v-2z" fill="rgb(131,49,16)"/>
<path d="M44 40h1v2h-1v-2z" fill="rgb(255,164,98)"/>
<path d="M45 40h1v1h-1v-1z" fill="rgb(131,49,16)"/>
<path d="M51 40h1v1h-1v-1z" fill="rgb(222,82,74)"/>
<path d="M67 40h1v6h-1v2h-1v1h-4v-1h-1v-4h1v1h2v-2h1v-1h1v-1h1v-1z" fill="rgb(222,82,74)"/>
<path d="M68 40h1v2h-1v-2z" fill="rgb(131,49,16)"/>
<path d="M35 41h1v1h-1v-1z" fill="rgb(131,49,16)"/>
<path d="M36 41h1v2h1v2h-2v1h-4v-1h1v-1h1v-1h1v-1h1v-1z" fill="rgb(222,82,74)"/>
<path d="M45 41h1v3h-1v-3z" fill="rgb(16,16,16)"/>
<path d="M50 41h1v2h-1v-2z" fill="rgb(131,49,16)"/>
<path d="M51 41h1v2h-1v-2z" fill="rgb(255,164,98)"/>
<path d="M52 41h1v1h-1v-1z" fill="rgb(131,49,16)"/>
<path d="M55 41h1v1h-1v-1z" fill="rgb(16,16,16)"/>
<path d="M60 41h1v3h-1v2h-1v-1h-1v-2h1v-1h1v-1z" fill="rgb(90,65,32)"/>
<path d="M34 42h1v1h-1v-1z" fill="rgb(131,49,16)"/>
<path d="M42 42h1v2h-1v-2z" fill="rgb(131,49,16)"/>
<path d="M43 42h1v3h1v1h-3v1h-1v1h-1v-2h1v-1h1v-1h1v-2z" fill="rgb(222,82,74)"/>
<path d="M44 42h1v2h1v1h1v1h3v1h2v2h-5v-1h-1v-1h-1v-2h-1v-3z" fill="rgb(255,115,49)"/>
<path d="M52 42h1v4h-1v-4z" fill="rgb(16,16,16)"/>
<path d="M54 42h1v5h-2v-1h1v-4z" fill="rgb(16,16,16)"/>
<path d="M55 42h1v1h1v4h-2v-5z" fill="rgb(255,115,49)"/>
<path d="M56 42h1v1h-1v-1z" fill="rgb(16,16,16)"/>
<path d="M58 42h1v1h-1v-1z" fill="rgb(16,16,16)"/>
<path d="M68 42h1v4h-1v-4z" fill="rgb(16,16,16)"/>
<path d="M28 43h1v1h-1v-1z" fill="rgb(16,16,16)"/>
<path d="M33 43h1v1h-1v-1z" fill="rgb(131,49,16)"/>
<path d="M38 43h1v2h-1v-2z" fill="rgb(16,16,16)"/>
<path d="M49 43h1v2h-1v-2z" fill="rgb(131,49,16)"/>
<path d="M50 43h2v3h1v1h2v2h1v1h1v1h2v1h1v1h1v1h-1v2h-1v-1h-2v1h-1v1h-2v-1h-1v-3h1v-3h-2
	v-3h-2v-1h-1v-1h1v-2z" fill="rgb(222,82,74)"/>
<path d="M57 43h1v2h-1v-2z" fill="rgb(16,16,16)"/>
<path d="M27 44h1v2h-1v-2z" fill="rgb(16,16,16)"/>
<path d="M28 44h1v1h1v1h1v1h1v1h-2v-1h-1v-1h-1v-2z" fill="rgb(255,222,189)"/>
<path d="M29 44h1v1h-1v-1z" fill="rgb(16,16,16)"/>
<path d="M30 44h3v1h-3v-1z" fill="rgb(131,49,16)"/>
<path d="M41 44h1v1h-1v-1z" fill="rgb(16,16,16)"/>
<path d="M46 44h1v1h-1v-1z" fill="rgb(131,49,16)"/>
<path d="M60 44h1v3h-1v-3z" fill="rgb(131,49,16)"/>
<path d="M30 45h1v1h-1v-1z" fill="rgb(16,16,16)"/>
<path d="M31 45h1v1h1v1h-2v-2z" fill="rgb(90,65,32)"/>
<path d="M36 45h2v1h-2v-1z" fill="rgb(16,16,16)"/>
<path d="M40 45h1v1h-1v-1z" fill="rgb(16,16,16)"/>
<path d="M47 45h2v1h-2v-1z" fill="rgb(131,49,16)"/>
<path d="M57 45h1v1h1v1h1v1h1v1h1v1h1v1h-4v-1h-2v-1h-1v-2h1v-2z" fill="rgb(222,82,74)"/>
<path d="M58 45h1v1h-1v-1z" fill="rgb(16,16,16)"/>
<path d="M28 46h1v1h-1v-1z" fill="rgb(115,82,16)"/>
<path d="M33 46h3v1h-3v-1z" fill="rgb(16,16,16)"/>
<path d="M36 46h1v1h-1v-1z" fill="rgb(255,222,189)"/>
<path d="M37 46h1v1h-1v-1z" fill="rgb(230,189,139)"/>
<path d="M38 46h2v1h-2v-1z" fill="rgb(131,49,16)"/>
<path d="M42 46h3v1h1v1h1v2h-1v1h-1v1h-3v-3h-1v-2h1v-1z" fill="rgb(255,164,98)"/>
<path d="M59 46h1v1h-1v-1z" fill="rgb(16,16,16)"/>
<path d="M67 46h1v2h-1v-2z" fill="rgb(16,16,16)"/>
<path d="M28 47h1v2h-1v-2z" fill="rgb(16,16,16)"/>
<path d="M29 47h1v1h-1v-1z" fill="rgb(115,82,16)"/>
<path d="M32 47h1v1h-1v-1z" fill="rgb(16,16,16)"/>
<path d="M33 47h2v2h-2v-2z" fill="transparent"/>
<path d="M35 47h1v2h-1v-2z" fill="rgb(115,82,16)"/>
<path d="M36 47h1v1h-1v-1z" fill="rgb(230,189,139)"/>
<path d="M37 47h1v1h-1v-1z" fill="rgb(131,49,16)"/>
<path d="M38 47h2v1h-2v-1z" fill="rgb(222,222,222)"/>
<path d="M55 47h1v2h-1v-2z" fill="rgb(16,16,16)"/>
<path d="M60 47h1v1h-1v-1z" fill="rgb(16,16,16)"/>
<path d="M29 48h1v1h-1v-1z" fill="rgb(255,222,189)"/>
<path d="M30 48h3v1h-3v-1z" fill="rgb(115,82,16)"/>
<path d="M36 48h1v1h-1v-1z" fill="rgb(131,49,16)"/>
<path d="M37 48h1v3h-1v-3z" fill="rgb(222,222,222)"/>
<path d="M38 48h2v1h1v2h-1v-1h-1v1h-1v-3z" fill="rgb(255,255,255)"/>
<path d="M40 48h1v1h-1v-1z" fill="rgb(222,222,222)"/>
<path d="M61 48h1v1h-1v-1z" fill="rgb(16,16,16)"/>
<path d="M66 48h1v1h-1v-1z" fill="rgb(16,16,16)"/>
<path d="M29 49h1v1h-1v-1z" fill="rgb(16,16,16)"/>
<path d="M30 49h3v2h-1v-1h-2v-1z" fill="rgb(255,222,189)"/>
<path d="M33 49h2v1h-2v-1z" fill="rgb(16,16,16)"/>
<path d="M35 49h1v1h-1v-1z" fill="rgb(131,49,16)"/>
<path d="M36 49h1v1h-1v-1z" fill="rgb(115,82,16)"/>
<path d="M41 49h1v3h-1v-3z" fill="rgb(131,49,16)"/>
<path d="M47 49h1v1h-1v-1z" fill="rgb(222,82,74)"/>
<path d="M48 49h4v1h-4v-1z" fill="rgb(222,222,222)"/>
<path d="M56 49h1v1h-1v-1z" fill="rgb(16,16,16)"/>
<path d="M62 49h2v1h-2v-1z" fill="rgb(16,16,16)"/>
<path d="M64 49h1v1h-1v-1z" fill="rgb(115,82,16)"/>
<path d="M65 49h1v1h-1v-1z" fill="rgb(16,16,16)"/>
<path d="M66 49h1v2h-1v1h-1v1h-4v-1h2v-1h2v-1h1v-1z" fill="rgb(255,222,189)"/>
<path d="M67 49h1v2h-1v-2z" fill="rgb(16,16,16)"/>
<path d="M30 50h2v1h-2v-1z" fill="rgb(16,16,16)"/>
<path d="M33 50h2v1h-2v-1z" fill="rgb(230,189,139)"/>
<path d="M35 50h1v3h-1v-3z" fill="rgb(115,82,16)"/>
<path d="M36 50h1v1h-1v-1z" fill="rgb(180,131,65)"/>
<path d="M39 50h1v1h-1v-1z" fill="rgb(16,16,16)"/>
<path d="M46 50h1v1h-1v-1z" fill="rgb(222,82,74)"/>
<path d="M47 50h1v1h-1v-1z" fill="rgb(222,222,222)"/>
<path d="M48 50h4v1h1v2h-2v1h-3v-1h-1v-2h1v-1z" fill="rgb(255,255,255)"/>
<path d="M52 50h1v1h-1v-1z" fill="rgb(222,222,222)"/>
<path d="M53 50h1v3h-1v-3z" fill="rgb(131,49,16)"/>
<path d="M57 50h2v1h-2v-1z" fill="rgb(16,16,16)"/>
<path d="M63 50h1v1h-1v-1z" fill="rgb(90,65,32)"/>
<path d="M64 50h1v1h-1v-1z" fill="rgb(230,189,139)"/>
<path d="M30 51h1v1h-1v-1z" fill="rgb(180,131,65)"/>
<path d="M31 51h1v1h-1v-1z" fill="rgb(255,222,189)"/>
<path d="M32 51h3v1h-3v-1z" fill="rgb(16,16,16)"/>
<path d="M36 51h1v3h1v1h2v1h1v1h5v-1h3v1h-1v1h1v-1h1v-1h1v-2h1v3h2v1h-4v1h-9v-1h-3v-1h-1
	v-2h-1v-4z" fill="rgb(255,222,189)"/>
<path d="M37 51h1v3h-1v-3z" fill="rgb(180,131,65)"/>
<path d="M38 51h1v1h-1v-1z" fill="rgb(222,222,222)"/>
<path d="M39 51h1v1h-1v-1z" fill="rgb(255,255,255)"/>
<path d="M40 51h1v1h-1v-1z" fill="rgb(222,222,222)"/>
<path d="M45 51h1v1h-1v-1z" fill="rgb(222,82,74)"/>
<path d="M46 51h1v2h1v1h-2v-3z" fill="rgb(222,222,222)"/>
<path d="M59 51h4v1h-2v1h-1v-1h-1v-1z" fill="rgb(16,16,16)"/>
<path d="M66 51h1v2h-1v-2z" fill="rgb(16,16,16)"/>
<path d="M29 52h1v2h-1v-2z" fill="rgb(180,131,65)"/>
<path d="M30 52h1v2h-1v-2z" fill="rgb(255,222,189)"/>
<path d="M31 52h1v2h-1v-2z" fill="rgb(230,189,139)"/>
<path d="M32 52h1v2h-1v-2z" fill="rgb(115,82,16)"/>
<path d="M38 52h3v1h-3v-1z" fill="rgb(131,49,16)"/>
<path d="M41 52h4v2h-3v-1h-1v-1z" fill="rgb(255,115,49)"/>
<path d="M45 52h1v2h-1v-2z" fill="rgb(131,49,16)"/>
<path d="M48 52h1v1h-1v-1z" fill="rgb(16,16,16)"/>
<path d="M65 52h1v1h-1v-1z" fill="rgb(115,82,16)"/>
<path d="M67 52h1v1h-1v-1z" fill="rgb(180,131,65)"/>
<path d="M34 53h1v4h-1v-4z" fill="rgb(16,16,16)"/>
<path d="M35 53h1v2h-1v-2z" fill="rgb(230,189,139)"/>
<path d="M38 53h1v1h-1v-1z" fill="rgb(115,82,16)"/>
<path d="M39 53h3v1h4v2h-5v-1h-1v-1h-1v-1z" fill="rgb(222,82,74)"/>
<path d="M51 53h1v1h-1v-1z" fill="rgb(180,131,65)"/>
<path d="M52 53h1v1h-1v-1z" fill="rgb(131,49,16)"/>
<path d="M61 53h5v7h-1v-6h-3v1h-1v-2z" fill="rgb(16,16,16)"/>
<path d="M66 53h1v1h-1v-1z" fill="rgb(180,131,65)"/>
<path d="M67 53h1v2h1v2h1v3h-2v-3h-1v-4z" fill="rgb(230,189,139)"/>
<path d="M68 53h1v2h-1v-2z" fill="rgb(180,131,65)"/>
<path d="M28 54h1v2h-1v-2z" fill="rgb(180,131,65)"/>
<path d="M29 54h1v2h-1v-2z" fill="rgb(255,222,189)"/>
<path d="M30 54h1v3h-2v-1h1v-2z" fill="rgb(230,189,139)"/>
<path d="M31 54h1v3h-1v-3z" fill="rgb(115,82,16)"/>
<path d="M38 54h1v1h-1v-1z" fill="rgb(230,189,139)"/>
<path d="M39 54h1v1h-1v-1z" fill="rgb(115,82,16)"/>
<path d="M46 54h4v1h-4v-1z" fill="rgb(131,49,16)"/>
<path d="M50 54h1v1h-1v-1z" fill="rgb(115,82,16)"/>
<path d="M52 54h1v1h-1v-1z" fill="rgb(115,82,16)"/>
<path d="M60 54h1v2h-1v-2z" fill="rgb(131,49,16)"/>
<path d="M62 54h3v1h-3v-1z" fill="rgb(230,189,139)"/>
<path d="M66 54h1v3h-1v-3z" fill="rgb(90,65,32)"/>
<path d="M35 55h1v1h-1v-1z" fill="rgb(180,131,65)"/>
<path d="M36 55h1v1h-1v-1z" fill="rgb(230,189,139)"/>
<path d="M40 55h1v1h-1v-1z" fill="rgb(115,82,16)"/>
<path d="M46 55h2v1h-2v-1z" fill="rgb(115,82,16)"/>
<path d="M48 55h2v1h-2v-1z" fill="rgb(222,82,74)"/>
<path d="M50 55h1v1h-1v-1z" fill="rgb(180,131,65)"/>
<path d="M52 55h1v1h1v1h-2v-2z" fill="rgb(16,16,16)"/>
<path d="M57 55h2v1h-2v-1z" fill="rgb(131,49,16)"/>
<path d="M61 55h1v1h-1v-1z" fill="rgb(115,82,16)"/>
<path d="M62 55h1v3h-1v-3z" fill="rgb(16,16,16)"/>
<path d="M63 55h2v5h-2v-5z" fill="rgb(255,222,189)"/>
<path d="M69 55h1v2h-1v-2z" fill="rgb(180,131,65)"/>
<path d="M26 56h3v1h-3v-1z" fill="rgb(115,82,16)"/>
<path d="M35 56h1v1h-1v-1z" fill="rgb(230,189,139)"/>
<path d="M36 56h1v1h-1v-1z" fill="rgb(180,131,65)"/>
<path d="M41 56h1v1h-1v-1z" fill="rgb(180,131,65)"/>
<path d="M42 56h3v1h-3v-1z" fill="rgb(115,82,16)"/>
<path d="M45 56h1v1h-1v-1z" fill="rgb(180,131,65)"/>
<path d="M49 56h1v1h-1v-1z" fill="rgb(180,131,65)"/>
<path d="M56 56h1v1h-1v-1z" fill="rgb(131,49,16)"/>
<path d="M57 56h1v1h-1v-1z" fill="rgb(230,189,139)"/>
<path d="M58 56h2v1h-2v-1z" fill="rgb(90,65,32)"/>
<path d="M60 56h1v1h-1v-1z" fill="rgb(115,82,16)"/>
<path d="M61 56h1v2h-1v-2z" fill="rgb(180,131,65)"/>
<path d="M25 57h1v1h2v1h-3v-2z" fill="rgb(16,16,16)"/>
<path d="M26 57h3v1h-3v-1z" fill="rgb(255,222,189)"/>
<path d="M29 57h2v2h-1v-1h-1v-1z" fill="rgb(115,82,16)"/>
<path d="M35 57h1v2h-1v-2z" fill="rgb(16,16,16)"/>
<path d="M36 57h1v1h1v1h-2v-2z" fill="rgb(230,189,139)"/>
<path d="M37 57h1v1h-1v-1z" fill="rgb(115,82,16)"/>
<path d="M48 57h1v1h-1v-1z" fill="rgb(230,189,139)"/>
<path d="M54 57h1v1h-1v-1z" fill="rgb(16,16,16)"/>
<path d="M55 57h1v1h-1v-1z" fill="rgb(115,82,16)"/>
<path d="M56 57h1v1h-1v-1z" fill="rgb(230,189,139)"/>
<path d="M57 57h1v1h-1v-1z" fill="rgb(115,82,16)"/>
<path d="M58 57h3v1h1v1h-2v-1h-2v-1z" fill="rgb(255,222,189)"/>
<path d="M67 57h1v2h-1v-2z" fill="rgb(90,65,32)"/>
<path d="M70 57h1v2h-1v-2z" fill="rgb(180,131,65)"/>
<path d="M28 58h2v1h-2v-1z" fill="rgb(230,189,139)"/>
<path d="M38 58h1v1h-1v-1z" fill="rgb(180,131,65)"/>
<path d="M39 58h2v1h8v1h-2v1h-2v1h-2v-1h-3v-2h-1v-1z" fill="rgb(230,189,139)"/>
<path d="M50 58h5v1h-5v-1z" fill="rgb(230,189,139)"/>
<path d="M55 58h1v1h-1v-1z" fill="rgb(180,131,65)"/>
<path d="M56 58h1v1h-1v-1z" fill="rgb(115,82,16)"/>
<path d="M57 58h2v1h4v1h-5v-1h-1v-1z" fill="rgb(16,16,16)"/>
<path d="M59 58h1v1h-1v-1z" fill="rgb(115,82,16)"/>
<path d="M62 58h1v1h-1v-1z" fill="rgb(180,131,65)"/>
<path d="M28 59h2v1h-2v-1z" fill="rgb(16,16,16)"/>
<path d="M36 59h2v1h-2v-1z" fill="rgb(16,16,16)"/>
<path d="M38 59h1v1h-1v-1z" fill="rgb(115,82,16)"/>
<path d="M39 59h1v1h-1v-1z" fill="rgb(180,131,65)"/>
<path d="M49 59h2v1h-2v-1z" fill="rgb(115,82,16)"/>
<path d="M51 59h4v1h-4v-1z" fill="rgb(180,131,65)"/>
<path d="M55 59h1v1h-1v-1z" fill="rgb(16,16,16)"/>
<path d="M56 59h1v1h-1v-1z" fill="rgb(180,131,65)"/>
<path d="M57 59h1v1h-1v-1z" fill="rgb(230,189,139)"/>
<path d="M67 59h1v2h-1v-2z" fill="rgb(16,16,16)"/>
<path d="M70 59h1v1h-1v-1z" fill="rgb(90,65,32)"/>
<path d="M71 59h1v1h-1v-1z" fill="rgb(180,131,65)"/>
<path d="M38 60h2v1h-2v-1z" fill="rgb(16,16,16)"/>
<path d="M47 60h1v1h-1v-1z" fill="rgb(180,131,65)"/>
<path d="M48 60h1v1h-1v-1z" fill="rgb(115,82,16)"/>
<path d="M49 60h6v1h-1v1h-1v1h-1v-1h-3v1h-2v-2h2v-1z" fill="rgb(230,189,139)"/>
<path d="M55 60h1v1h-1v-1z" fill="rgb(180,131,65)"/>
<path d="M56 60h2v1h-2v-1z" fill="rgb(16,16,16)"/>
<path d="M61 60h2v1h-1v2h-1v-3z" fill="rgb(90,65,32)"/>
<path d="M63 60h2v1h-2v-1z" fill="rgb(16,16,16)"/>
<path d="M68 60h2v1h-2v-1z" fill="rgb(90,65,32)"/>
<path d="M70 60h2v1h1v1h-4v-1h1v-1z" fill="rgb(230,189,139)"/>
<path d="M72 60h1v1h-1v-1z" fill="rgb(180,131,65)"/>
<path d="M40 61h3v1h-3v-1z" fill="rgb(16,16,16)"/>
<path d="M45 61h1v1h-1v-1z" fill="rgb(180,131,65)"/>
<path d="M46 61h1v1h-1v-1z" fill="rgb(115,82,16)"/>
<path d="M54 61h1v1h-1v-1z" fill="rgb(180,131,65)"/>
<path d="M55 61h1v1h-1v-1z" fill="rgb(16,16,16)"/>
<path d="M62 61h2v3h-1v-1h-1v-2z" fill="rgb(255,222,189)"/>
<path d="M64 61h1v1h-1v-1z" fill="rgb(90,65,32)"/>
<path d="M68 61h1v2h-1v-2z" fill="rgb(16,16,16)"/>
<path d="M73 61h1v1h-1v-1z" fill="rgb(180,131,65)"/>
<path d="M43 62h4v1h-4v-1z" fill="rgb(16,16,16)"/>
<path d="M49 62h3v1h-3v-1z" fill="rgb(255,222,189)"/>
<path d="M53 62h2v1h-2v-1z" fill="rgb(16,16,16)"/>
<path d="M64 62h1v2h-1v-2z" fill="rgb(230,189,139)"/>
<path d="M65 62h1v3h-1v-3z" fill="rgb(90,65,32)"/>
<path d="M69 62h2v1h-2v-1z" fill="rgb(180,131,65)"/>
<path d="M71 62h2v1h-2v-1z" fill="rgb(16,16,16)"/>
<path d="M73 62h1v1h-1v-1z" fill="rgb(230,189,139)"/>
<path d="M74 62h1v2h-2v-1h1v-1z" fill="rgb(16,16,16)"/>
<path d="M47 63h6v1h-6v-1z" fill="rgb(16,16,16)"/>
<path d="M62 63h1v4h-1v-4z" fill="rgb(90,65,32)"/>
<path d="M69 63h2v1h-2v-1z" fill="rgb(16,16,16)"/>
<path d="M63 64h1v1h-1v-1z" fill="rgb(115,82,16)"/>
<path d="M64 64h1v1h-1v-1z" fill="rgb(180,131,65)"/>
<path d="M63 65h2v1h1v1h-2v-1h-1v-1z" fill="rgb(255,222,189)"/>
<path d="M65 65h1v1h-1v-1z" fill="rgb(230,189,139)"/>
<path d="M66 65h1v1h-1v-1z" fill="rgb(90,65,32)"/>
<path d="M63 66h1v1h-1v-1z" fill="rgb(180,131,65)"/>
<path d="M66 66h1v2h-1v-2z" fill="rgb(230,189,139)"/>
<path d="M67 66h1v3h-2v-1h1v-2z" fill="rgb(16,16,16)"/>
<path d="M63 67h3v1h-3v-1z" fill="rgb(16,16,16)"/>
</svg>
