<?xml version="1.0" encoding="utf-8"?>
<!-- generated at drububu.com  -->
<!DOCTYPE svg PUBLIC "-//W3C//DTD SVG 1.1//EN" "http://www.w3.org/Graphics/SVG/1.1/DTD/svg11.dtd">
<svg version="1.1" preserveAspectRatio="xMinYMin meet" xmlns="http://www.w3.org/2000/svg" xmlns:xlink="http://www.w3.org/1999/xlink" x="0px" y="0px" width="96px" height="96px" viewBox="0 0 96 96">
<path d="M0 0h96v96h-96v-96z" fill="transparent"/>
<path d="M63 19h2v1h-2v-1z" fill="rgb(197,106,90)"/>
<path d="M65 19h2v1h-2v-1z" fill="rgb(131,41,8)"/>
<path d="M61 20h2v1h-2v-1z" fill="rgb(197,106,90)"/>
<path d="M63 20h4v1h1v1h1v1h-1v1h-2v-1h-2v2h-1v3h-1v1h-1v1h-1v1h-1v1h-2v-1h-1v-2h1v1h2
	v-1h1v-1h1v-2h1v-2h1v-2h1v-1h-1v-1z" fill="rgb(238,139,74)"/>
<path d="M67 20h1v1h-1v-1z" fill="rgb(131,41,8)"/>
<path d="M60 21h1v1h-1v-1z" fill="rgb(197,106,90)"/>
<path d="M61 21h3v1h-1v2h-1v2h-1v2h-1v1h-1v1h-2v-1h-1v-1h1v-3h1v-1h1v-1h1v-1h1v-1z" fill="rgb(246,197,139)"/>
<path d="M68 21h1v1h-1v-1z" fill="rgb(16,16,16)"/>
<path d="M59 22h1v1h-1v-1z" fill="rgb(197,106,90)"/>
<path d="M69 22h1v1h-1v-1z" fill="rgb(16,16,16)"/>
<path d="M58 23h1v1h-1v-1z" fill="rgb(197,106,90)"/>
<path d="M64 23h2v1h2v-1h2v2h2v1h1v1h1v2h1v2h1v3h1v2h1v1h1v2h1v4h-1v3h-1v1h-1v2h-1v1h-1
	v2h-1v-3h-1v-2h-1v-1h3v-1h1v-2h1v-5h-1v-1h-2v1h-2v1h-1v-1h-1v-1h-1v-1h-1v-1h-3
	v1h-2v1h-1v1h-1v1h-2v-2h-1v-2h-2v-4h1v1h2v-1h1v-1h1v-1h1v-1h1v-3h1v4h1v-5h-1v-1
	z" fill="rgb(197,106,90)"/>
<path d="M70 23h1v1h-1v-1z" fill="rgb(16,16,16)"/>
<path d="M57 24h1v1h-1v-1z" fill="rgb(197,106,90)"/>
<path d="M64 24h1v3h-1v-3z" fill="rgb(131,41,8)"/>
<path d="M70 24h2v1h-2v-1z" fill="rgb(131,41,8)"/>
<path d="M56 25h1v2h-1v-2z" fill="rgb(197,106,90)"/>
<path d="M72 25h1v1h-1v-1z" fill="rgb(131,41,8)"/>
<path d="M73 26h1v1h-1v-1z" fill="rgb(131,41,8)"/>
<path d="M55 27h1v2h-1v-2z" fill="rgb(197,106,90)"/>
<path d="M56 27h1v1h-1v-1z" fill="rgb(238,139,74)"/>
<path d="M64 27h1v2h-1v-2z" fill="rgb(16,16,16)"/>
<path d="M74 27h1v2h-1v-2z" fill="rgb(131,41,8)"/>
<path d="M55 29h1v2h-1v-2z" fill="rgb(131,41,8)"/>
<path d="M63 29h1v1h-1v-1z" fill="rgb(131,41,8)"/>
<path d="M75 29h1v2h-1v-2z" fill="rgb(131,41,8)"/>
<path d="M63 30h1v1h-1v-1z" fill="rgb(16,16,16)"/>
<path d="M55 31h1v3h-1v-3z" fill="rgb(16,16,16)"/>
<path d="M62 31h1v1h-1v-1z" fill="rgb(131,41,8)"/>
<path d="M76 31h1v1h-1v-1z" fill="rgb(16,16,16)"/>
<path d="M18 32h3v1h-3v-1z" fill="rgb(197,106,90)"/>
<path d="M21 32h3v1h-3v-1z" fill="rgb(131,41,8)"/>
<path d="M60 32h1v1h-1v-1z" fill="rgb(131,41,8)"/>
<path d="M61 32h1v1h-1v-1z" fill="rgb(16,16,16)"/>
<path d="M76 32h1v2h-1v-2z" fill="rgb(131,41,8)"/>
<path d="M17 33h1v1h-1v-1z" fill="rgb(197,106,90)"/>
<path d="M18 33h6v1h-3v1h-3v1h-1v-2h1v-1z" fill="rgb(246,197,139)"/>
<path d="M24 33h1v1h-1v-1z" fill="rgb(197,106,90)"/>
<path d="M25 33h1v1h-1v-1z" fill="rgb(131,41,8)"/>
<path d="M58 33h2v1h-2v-1z" fill="rgb(131,41,8)"/>
<path d="M16 34h1v1h-1v-1z" fill="rgb(197,106,90)"/>
<path d="M21 34h5v1h-4v1h-1v1h-1v1h-2v1h-2v1h-2v-2h1v-1h1v-2h1v1h1v-1h3v-1z" fill="rgb(238,139,74)"/>
<path d="M26 34h1v1h-1v-1z" fill="rgb(131,41,8)"/>
<path d="M55 34h1v5h-1v-5z" fill="rgb(131,41,8)"/>
<path d="M77 34h1v2h-1v-2z" fill="rgb(16,16,16)"/>
<path d="M15 35h1v1h-1v-1z" fill="rgb(131,41,8)"/>
<path d="M22 35h4v1h-4v-1z" fill="rgb(197,106,90)"/>
<path d="M26 35h1v1h-1v-1z" fill="rgb(238,139,74)"/>
<path d="M27 35h1v3h-2v-1h1v-2z" fill="rgb(131,41,8)"/>
<path d="M56 35h2v2h1v2h-1v-1h-1v-2h-1v-1z" fill="rgb(238,139,74)"/>
<path d="M65 35h3v1h-3v-1z" fill="rgb(16,16,16)"/>
<path d="M14 36h1v2h-1v-2z" fill="rgb(131,41,8)"/>
<path d="M15 36h1v1h-1v-1z" fill="rgb(197,106,90)"/>
<path d="M21 36h1v1h-1v-1z" fill="rgb(197,106,90)"/>
<path d="M22 36h1v1h-1v-1z" fill="rgb(131,41,8)"/>
<path d="M23 36h4v1h-4v-1z" fill="rgb(16,16,16)"/>
<path d="M56 36h1v2h1v1h1v3h-1v-1h-1v-2h-1v-3z" fill="rgb(246,197,139)"/>
<path d="M63 36h1v1h-1v-1z" fill="rgb(131,41,8)"/>
<path d="M64 36h1v1h-1v-1z" fill="rgb(16,16,16)"/>
<path d="M65 36h3v1h1v1h1v1h1v3h-2v1h-2v1h-2v1h-1v2h-1v-4h1v-3h-1v-1h-1v-1h2v-1h1v-1z" fill="rgb(74,49,32)"/>
<path d="M68 36h1v1h-1v-1z" fill="rgb(16,16,16)"/>
<path d="M78 36h1v1h-1v-1z" fill="rgb(16,16,16)"/>
<path d="M20 37h1v1h-1v-1z" fill="rgb(197,106,90)"/>
<path d="M21 37h2v1h-2v-1z" fill="rgb(16,16,16)"/>
<path d="M23 37h3v1h-2v1h-1v2h-1v-1h-1v-2h2v-1z" fill="rgb(90,65,49)"/>
<path d="M62 37h1v1h-1v-1z" fill="rgb(131,41,8)"/>
<path d="M63 37h1v1h-1v-1z" fill="rgb(16,16,16)"/>
<path d="M69 37h1v1h-1v-1z" fill="rgb(16,16,16)"/>
<path d="M74 37h2v1h1v5h-1v2h-1v1h-3v-1h-1v-2h1v-3h1v-2h1v-1z" fill="rgb(238,139,74)"/>
<path d="M79 37h1v1h-1v-1z" fill="rgb(16,16,16)"/>
<path d="M13 38h1v2h-1v-2z" fill="rgb(131,41,8)"/>
<path d="M18 38h2v1h-1v1h-1v3h-1v1h-2v-1h-1v-3h2v-1h2v-1z" fill="rgb(197,106,90)"/>
<path d="M20 38h1v2h-2v-1h1v-1z" fill="rgb(16,16,16)"/>
<path d="M24 38h1v1h-1v-1z" fill="rgb(197,106,90)"/>
<path d="M25 38h1v1h-1v-1z" fill="rgb(131,41,8)"/>
<path d="M41 38h2v1h-2v-1z" fill="rgb(131,41,8)"/>
<path d="M49 38h2v1h-2v-1z" fill="rgb(131,41,8)"/>
<path d="M61 38h1v1h-1v-1z" fill="rgb(16,16,16)"/>
<path d="M70 38h1v1h-1v-1z" fill="rgb(16,16,16)"/>
<path d="M72 38h1v1h-1v-1z" fill="rgb(131,41,8)"/>
<path d="M79 38h1v1h-1v-1z" fill="rgb(131,41,8)"/>
<path d="M23 39h1v1h-1v-1z" fill="rgb(197,106,90)"/>
<path d="M24 39h1v1h-1v-1z" fill="rgb(16,16,16)"/>
<path d="M40 39h1v7h-1v-7z" fill="rgb(131,41,8)"/>
<path d="M41 39h2v5h1v3h-3v-8z" fill="rgb(238,139,74)"/>
<path d="M43 39h1v1h-1v-1z" fill="rgb(131,41,8)"/>
<path d="M48 39h1v2h-1v-2z" fill="rgb(131,41,8)"/>
<path d="M49 39h2v3h-1v3h-1v2h-1v1h-3v-1h1v-1h1v-1h1v-3h1v-3z" fill="rgb(238,139,74)"/>
<path d="M51 39h1v1h-1v-1z" fill="rgb(197,106,90)"/>
<path d="M56 39h1v1h-1v-1z" fill="rgb(197,106,90)"/>
<path d="M59 39h1v2h-1v-2z" fill="rgb(238,139,74)"/>
<path d="M60 39h1v1h-1v-1z" fill="rgb(16,16,16)"/>
<path d="M61 39h1v2h-1v-2z" fill="transparent"/>
<path d="M62 39h1v2h-1v-2z" fill="rgb(16,16,16)"/>
<path d="M71 39h1v3h-1v-3z" fill="rgb(131,41,8)"/>
<path d="M72 39h1v1h-1v-1z" fill="rgb(197,106,90)"/>
<path d="M80 39h1v4h-1v-4z" fill="rgb(16,16,16)"/>
<path d="M13 40h1v4h-1v-4z" fill="rgb(16,16,16)"/>
<path d="M18 40h1v1h-1v-1z" fill="rgb(131,41,8)"/>
<path d="M19 40h2v1h1v1h1v1h1v3h-1v2h-1v2h-3v-1h-1v-2h1v-2h1v-3h-1v-2z" fill="rgb(197,106,90)"/>
<path d="M21 40h1v1h-1v-1z" fill="rgb(16,16,16)"/>
<path d="M23 40h1v2h-1v-2z" fill="rgb(16,16,16)"/>
<path d="M43 40h1v3h-1v-3z" fill="rgb(16,16,16)"/>
<path d="M51 40h1v2h-1v-2z" fill="rgb(131,41,8)"/>
<path d="M56 40h1v2h-1v-2z" fill="rgb(131,41,8)"/>
<path d="M60 40h1v1h-1v-1z" fill="rgb(131,41,8)"/>
<path d="M63 40h1v1h-1v-1z" fill="rgb(131,41,8)"/>
<path d="M18 41h1v1h-1v-1z" fill="rgb(16,16,16)"/>
<path d="M22 41h1v1h-1v-1z" fill="rgb(131,41,8)"/>
<path d="M34 41h2v1h-2v-1z" fill="rgb(131,41,8)"/>
<path d="M48 41h1v1h-1v-1z" fill="rgb(197,106,90)"/>
<path d="M57 41h1v1h-1v-1z" fill="rgb(16,16,16)"/>
<path d="M59 41h1v1h-1v-1z" fill="rgb(131,41,8)"/>
<path d="M60 41h1v2h-1v4h1v1h-1v1h-1v-1h-1v-3h1v-3h1v-1z" fill="transparent"/>
<path d="M61 41h1v2h-1v-2z" fill="rgb(131,41,8)"/>
<path d="M62 41h1v2h-1v-2z" fill="rgb(197,106,90)"/>
<path d="M63 41h1v2h-1v-2z" fill="rgb(16,16,16)"/>
<path d="M18 42h1v3h-1v2h-1v2h-1v-2h-1v-1h-1v-3h1v1h2v-1h1v-1z" fill="rgb(238,139,74)"/>
<path d="M19 42h1v3h-1v-3z" fill="rgb(16,16,16)"/>
<path d="M23 42h1v1h-1v-1z" fill="rgb(131,41,8)"/>
<path d="M33 42h1v2h-1v-2z" fill="rgb(131,41,8)"/>
<path d="M34 42h2v2h1v1h1v1h1v1h2v1h-1v1h-2v1h-6v-1h-1v-1h-1v-2h1v1h1v1h2v1h2v-3h-1v-2
	h-1v-2z" fill="rgb(238,139,74)"/>
<path d="M36 42h1v1h-1v-1z" fill="rgb(131,41,8)"/>
<path d="M47 42h1v3h-1v-3z" fill="rgb(131,41,8)"/>
<path d="M50 42h1v1h-1v-1z" fill="rgb(197,106,90)"/>
<path d="M55 42h1v2h-1v-2z" fill="rgb(131,41,8)"/>
<path d="M56 42h2v3h-1v2h-1v1h-1v1h-2v-1h-1v-1h2v-1h1v-2h1v-2z" fill="rgb(238,139,74)"/>
<path d="M58 42h1v1h-1v-1z" fill="rgb(16,16,16)"/>
<path d="M69 42h1v4h-1v1h-1v2h-1v1h-1v1h-2v-6h1v-1h2v-1h2v-1z" fill="rgb(90,65,49)"/>
<path d="M70 42h1v4h-1v-4z" fill="rgb(131,41,8)"/>
<path d="M71 42h1v1h-1v-1z" fill="rgb(197,106,90)"/>
<path d="M24 43h1v1h-1v-1z" fill="rgb(16,16,16)"/>
<path d="M36 43h1v1h-1v-1z" fill="rgb(197,106,90)"/>
<path d="M37 43h1v1h-1v-1z" fill="rgb(16,16,16)"/>
<path d="M43 43h1v1h-1v-1z" fill="rgb(131,41,8)"/>
<path d="M50 43h1v1h-1v-1z" fill="rgb(131,41,8)"/>
<path d="M58 43h1v1h-1v-1z" fill="rgb(131,41,8)"/>
<path d="M60 43h1v2h-1v-2z" fill="rgb(131,41,8)"/>
<path d="M61 43h1v1h-1v-1z" fill="rgb(197,106,90)"/>
<path d="M62 43h1v1h-1v-1z" fill="rgb(131,41,8)"/>
<path d="M79 43h1v1h-1v-1z" fill="rgb(131,41,8)"/>
<path d="M13 44h1v1h-1v-1z" fill="rgb(131,41,8)"/>
<path d="M24 44h1v2h-1v-2z" fill="rgb(131,41,8)"/>
<path d="M34 44h1v1h-1v-1z" fill="rgb(131,41,8)"/>
<path d="M37 44h1v1h-1v-1z" fill="rgb(131,41,8)"/>
<path d="M44 44h1v1h-1v-1z" fill="rgb(16,16,16)"/>
<path d="M50 44h1v2h-1v-2z" fill="rgb(16,16,16)"/>
<path d="M54 44h1v2h-1v-2z" fill="rgb(131,41,8)"/>
<path d="M58 44h1v1h-1v-1z" fill="rgb(16,16,16)"/>
<path d="M61 44h1v3h-1v-3z" fill="rgb(238,139,74)"/>
<path d="M62 44h1v2h-1v-2z" fill="rgb(16,16,16)"/>
<path d="M79 44h1v2h-1v-2z" fill="rgb(16,16,16)"/>
<path d="M12 45h1v2h-1v-2z" fill="rgb(131,41,8)"/>
<path d="M13 45h1v1h1v1h1v2h2v2h-3v-1h-1v-1h-1v-4z" fill="rgb(197,106,90)"/>
<path d="M18 45h1v1h-1v-1z" fill="rgb(131,41,8)"/>
<path d="M30 45h2v1h-2v-1z" fill="rgb(131,41,8)"/>
<path d="M34 45h1v1h-1v-1z" fill="rgb(16,16,16)"/>
<path d="M38 45h1v1h-1v-1z" fill="rgb(16,16,16)"/>
<path d="M44 45h1v1h-1v-1z" fill="rgb(131,41,8)"/>
<path d="M46 45h1v1h-1v-1z" fill="rgb(131,41,8)"/>
<path d="M49 45h1v1h1v1h1v1h1v1h2v-1h1v-1h1v1h1v2h1v1h-1v2h1v2h-1v-1h-1v-1h-1v-1h-2v-1
	h-2v-1h-5v-1h-1v-1h2v-1h1v-2z" fill="rgb(197,106,90)"/>
<path d="M57 45h1v1h-1v-1z" fill="rgb(131,41,8)"/>
<path d="M60 45h1v2h-1v-2z" fill="rgb(16,16,16)"/>
<path d="M71 45h1v1h-1v-1z" fill="rgb(197,106,90)"/>
<path d="M18 46h1v1h-1v-1z" fill="rgb(16,16,16)"/>
<path d="M23 46h1v2h-1v-2z" fill="rgb(131,41,8)"/>
<path d="M29 46h1v1h-1v-1z" fill="rgb(131,41,8)"/>
<path d="M31 46h1v1h-1v-1z" fill="rgb(197,106,90)"/>
<path d="M32 46h1v1h-1v-1z" fill="rgb(131,41,8)"/>
<path d="M35 46h1v1h-1v-1z" fill="rgb(131,41,8)"/>
<path d="M39 46h1v1h-1v-1z" fill="rgb(16,16,16)"/>
<path d="M40 46h1v1h-1v-1z" fill="rgb(197,106,90)"/>
<path d="M44 46h1v1h-1v-1z" fill="rgb(197,106,90)"/>
<path d="M45 46h1v1h-1v-1z" fill="rgb(16,16,16)"/>
<path d="M51 46h1v1h-1v-1z" fill="rgb(131,41,8)"/>
<path d="M52 46h1v1h-1v-1z" fill="rgb(16,16,16)"/>
<path d="M53 46h1v1h-1v-1z" fill="rgb(131,41,8)"/>
<path d="M57 46h1v1h-1v-1z" fill="rgb(16,16,16)"/>
<path d="M62 46h1v1h-1v-1z" fill="rgb(131,41,8)"/>
<path d="M69 46h1v1h-1v-1z" fill="rgb(16,16,16)"/>
<path d="M70 46h1v1h-1v-1z" fill="rgb(197,106,90)"/>
<path d="M71 46h1v1h-1v-1z" fill="rgb(131,41,8)"/>
<path d="M78 46h1v1h-1v-1z" fill="rgb(16,16,16)"/>
<path d="M12 47h1v2h-1v-2z" fill="rgb(16,16,16)"/>
<path d="M17 47h1v1h-1v-1z" fill="rgb(131,41,8)"/>
<path d="M29 47h1v1h-1v-1z" fill="rgb(16,16,16)"/>
<path d="M32 47h1v1h-1v-1z" fill="rgb(197,106,90)"/>
<path d="M33 47h1v1h-1v-1z" fill="rgb(16,16,16)"/>
<path d="M35 47h1v1h-1v-1z" fill="rgb(16,16,16)"/>
<path d="M41 47h2v1h-2v-1z" fill="rgb(197,106,90)"/>
<path d="M43 47h2v1h-2v-1z" fill="rgb(131,41,8)"/>
<path d="M57 47h1v1h-1v-1z" fill="rgb(131,41,8)"/>
<path d="M61 47h1v1h-1v-1z" fill="rgb(131,41,8)"/>
<path d="M62 47h1v3h-1v-3z" fill="rgb(197,106,90)"/>
<path d="M63 47h1v4h-1v-4z" fill="rgb(16,16,16)"/>
<path d="M68 47h1v2h-1v-2z" fill="rgb(16,16,16)"/>
<path d="M69 47h1v1h-1v-1z" fill="rgb(197,106,90)"/>
<path d="M70 47h2v3h-1v1h-1v1h-3v-1h1v-1h1v-2h1v-1z" fill="rgb(238,139,74)"/>
<path d="M72 47h1v1h-1v-1z" fill="rgb(16,16,16)"/>
<path d="M77 47h1v1h-1v-1z" fill="rgb(131,41,8)"/>
<path d="M17 48h1v1h-1v-1z" fill="rgb(16,16,16)"/>
<path d="M22 48h1v1h-1v-1z" fill="rgb(131,41,8)"/>
<path d="M30 48h1v1h-1v-1z" fill="rgb(131,41,8)"/>
<path d="M34 48h1v1h-1v-1z" fill="rgb(16,16,16)"/>
<path d="M35 48h1v1h-1v-1z" fill="rgb(197,106,90)"/>
<path d="M40 48h1v1h-1v-1z" fill="rgb(131,41,8)"/>
<path d="M41 48h1v1h-1v-1z" fill="rgb(238,139,74)"/>
<path d="M42 48h2v2h-1v1h-2v-2h1v-1z" fill="rgb(246,197,139)"/>
<path d="M44 48h1v1h1v1h1v2h-1v1h-1v2h-1v2h3v1h-2v1h-1v1h-4v-1h-1v-1h-1v-1h-1v1h-2v-1h-1
	v1h-1v-1h-1v-2h3v1h4v-2h-1v-3h1v-1h1v-1h1v2h2v-1h1v-2z" fill="rgb(238,139,74)"/>
<path d="M45 48h1v1h-1v-1z" fill="rgb(131,41,8)"/>
<path d="M58 48h1v1h-1v-1z" fill="rgb(16,16,16)"/>
<path d="M60 48h1v1h-1v-1z" fill="rgb(131,41,8)"/>
<path d="M61 48h1v1h-1v-1z" fill="rgb(16,16,16)"/>
<path d="M72 48h1v1h-1v-1z" fill="rgb(131,41,8)"/>
<path d="M77 48h1v1h-1v-1z" fill="rgb(16,16,16)"/>
<path d="M13 49h1v1h-1v-1z" fill="rgb(16,16,16)"/>
<path d="M18 49h1v2h-1v-2z" fill="rgb(131,41,8)"/>
<path d="M22 49h1v1h-1v-1z" fill="rgb(16,16,16)"/>
<path d="M30 49h1v1h-1v-1z" fill="rgb(16,16,16)"/>
<path d="M31 49h1v1h-1v-1z" fill="rgb(197,106,90)"/>
<path d="M38 49h1v1h-1v-1z" fill="rgb(131,41,8)"/>
<path d="M39 49h1v1h-1v-1z" fill="rgb(197,106,90)"/>
<path d="M46 49h1v1h-1v-1z" fill="rgb(16,16,16)"/>
<path d="M58 49h1v1h-1v-1z" fill="rgb(131,41,8)"/>
<path d="M59 49h1v1h-1v-1z" fill="rgb(16,16,16)"/>
<path d="M60 49h1v1h1v1h2v1h2v1h-1v1h-1v1h-4v-2h-1v-2h1v-2z" fill="rgb(238,139,74)"/>
<path d="M61 49h1v1h-1v-1z" fill="rgb(131,41,8)"/>
<path d="M67 49h1v1h-1v-1z" fill="rgb(16,16,16)"/>
<path d="M68 49h1v1h-1v-1z" fill="rgb(197,106,90)"/>
<path d="M72 49h1v5h-1v1h-2v1h-2v1h-1v1h-3v-1h-2v-1h-1v-1h3v-1h1v-1h1v-2h1v1h3v-1h1v-1h1
	v-1z" fill="rgb(197,106,90)"/>
<path d="M73 49h1v2h-1v-2z" fill="rgb(16,16,16)"/>
<path d="M76 49h1v1h-1v-1z" fill="rgb(16,16,16)"/>
<path d="M12 50h1v2h-1v-2z" fill="rgb(115,82,16)"/>
<path d="M13 50h1v1h1v2h-1v-1h-1v-2z" fill="rgb(255,230,180)"/>
<path d="M14 50h1v1h-1v-1z" fill="rgb(16,16,16)"/>
<path d="M19 50h3v1h-3v-1z" fill="rgb(16,16,16)"/>
<path d="M31 50h1v1h-1v-1z" fill="rgb(16,16,16)"/>
<path d="M32 50h1v1h-1v-1z" fill="rgb(197,106,90)"/>
<path d="M33 50h2v1h-2v-1z" fill="rgb(131,41,8)"/>
<path d="M35 50h2v1h-2v-1z" fill="rgb(197,106,90)"/>
<path d="M37 50h1v1h-1v-1z" fill="rgb(131,41,8)"/>
<path d="M38 50h1v1h-1v-1z" fill="rgb(197,106,90)"/>
<path d="M47 50h1v1h-1v-1z" fill="rgb(16,16,16)"/>
<path d="M48 50h2v1h-2v-1z" fill="rgb(131,41,8)"/>
<path d="M50 50h2v1h-2v-1z" fill="rgb(16,16,16)"/>
<path d="M59 50h1v1h-1v-1z" fill="rgb(131,41,8)"/>
<path d="M62 50h1v1h-1v-1z" fill="rgb(131,41,8)"/>
<path d="M66 50h1v1h-1v-1z" fill="rgb(16,16,16)"/>
<path d="M67 50h1v1h-1v-1z" fill="rgb(197,106,90)"/>
<path d="M75 50h1v1h-1v-1z" fill="rgb(131,41,8)"/>
<path d="M15 51h1v1h-1v-1z" fill="rgb(115,82,16)"/>
<path d="M16 51h2v1h-2v-1z" fill="rgb(16,16,16)"/>
<path d="M18 51h2v2h-1v1h-3v1h2v1h1v2h1v2h1v3h-1v-2h-1v-1h-2v-2h-1v-2h-1v-4h3v-1z" fill="rgb(238,189,139)"/>
<path d="M20 51h1v1h-1v-1z" fill="rgb(115,82,16)"/>
<path d="M30 51h1v1h-1v-1z" fill="rgb(180,123,90)"/>
<path d="M31 51h1v3h-1v-3z" fill="rgb(115,82,16)"/>
<path d="M32 51h1v1h-1v-1z" fill="rgb(131,41,8)"/>
<path d="M33 51h1v1h-1v-1z" fill="rgb(222,222,246)"/>
<path d="M34 51h2v1h1v1h1v3h-2v-1h-2v-1h-1v-2h1v-1z" fill="rgb(255,255,255)"/>
<path d="M36 51h1v1h-1v-1z" fill="rgb(222,222,246)"/>
<path d="M37 51h1v1h-1v-1z" fill="rgb(197,106,90)"/>
<path d="M47 51h1v1h-1v-1z" fill="rgb(197,106,90)"/>
<path d="M48 51h1v1h-1v-1z" fill="rgb(222,222,246)"/>
<path d="M49 51h2v1h2v3h-5v-1h-1v-2h2v-1z" fill="rgb(255,255,255)"/>
<path d="M51 51h1v1h-1v-1z" fill="rgb(222,222,246)"/>
<path d="M52 51h1v1h-1v-1z" fill="rgb(131,41,8)"/>
<path d="M53 51h1v1h-1v-1z" fill="rgb(16,16,16)"/>
<path d="M58 51h1v2h-1v-2z" fill="rgb(131,41,8)"/>
<path d="M64 51h1v1h-1v-1z" fill="rgb(131,41,8)"/>
<path d="M65 51h1v1h-1v-1z" fill="rgb(16,16,16)"/>
<path d="M73 51h1v2h-1v-2z" fill="rgb(131,41,8)"/>
<path d="M75 51h1v1h-1v-1z" fill="rgb(16,16,16)"/>
<path d="M76 51h1v2h-1v-2z" fill="rgb(115,82,16)"/>
<path d="M13 52h1v1h-1v-1z" fill="rgb(16,16,16)"/>
<path d="M20 52h1v1h-1v-1z" fill="rgb(16,16,16)"/>
<path d="M29 52h1v1h-1v-1z" fill="rgb(115,82,16)"/>
<path d="M30 52h1v6h1v2h1v-1h1v-1h1v2h2v-2h1v2h1v1h5v-1h1v-1h1v1h1v1h1v-1h1v-1h1v-1h1v1
	h1v1h1v1h1v-2h1v-1h1v-4h1v1h1v1h1v4h-1v1h-2v1h-1v1h-4v1h-2v1h-11v-1h-3v-1h-4v-1
	h-1v-1h-1v-7h1v-2z" fill="rgb(255,230,180)"/>
<path d="M32 52h1v2h-1v-2z" fill="rgb(222,222,246)"/>
<path d="M37 52h1v1h-1v-1z" fill="rgb(222,222,246)"/>
<path d="M46 52h1v1h-1v-1z" fill="rgb(131,41,8)"/>
<path d="M53 52h2v3h-1v-2h-1v-1z" fill="rgb(131,41,8)"/>
<path d="M55 52h1v1h-1v-1z" fill="rgb(16,16,16)"/>
<path d="M74 52h1v1h-1v-1z" fill="rgb(16,16,16)"/>
<path d="M75 52h1v2h1v2h-1v-1h-1v-1h-1v-1h1v-1z" fill="rgb(255,230,180)"/>
<path d="M14 53h1v1h-1v-1z" fill="rgb(16,16,16)"/>
<path d="M19 53h1v1h-1v-1z" fill="rgb(115,82,16)"/>
<path d="M29 53h1v1h-1v-1z" fill="rgb(180,123,90)"/>
<path d="M45 53h1v1h-1v-1z" fill="rgb(131,41,8)"/>
<path d="M46 53h1v1h-1v-1z" fill="rgb(222,222,246)"/>
<path d="M53 53h1v2h-1v-2z" fill="rgb(222,222,246)"/>
<path d="M55 53h1v1h-1v-1z" fill="rgb(197,106,90)"/>
<path d="M56 53h1v1h-1v-1z" fill="rgb(16,16,16)"/>
<path d="M59 53h1v1h-1v-1z" fill="rgb(131,41,8)"/>
<path d="M73 53h1v1h-1v-1z" fill="rgb(16,16,16)"/>
<path d="M76 53h1v1h-1v-1z" fill="rgb(180,123,90)"/>
<path d="M14 54h1v2h-1v-2z" fill="rgb(115,82,16)"/>
<path d="M16 54h2v1h-2v-1z" fill="rgb(180,123,90)"/>
<path d="M18 54h1v1h-1v-1z" fill="rgb(115,82,16)"/>
<path d="M19 54h1v3h-1v-3z" fill="rgb(16,16,16)"/>
<path d="M28 54h1v3h-1v-3z" fill="rgb(115,82,16)"/>
<path d="M31 54h1v2h-1v-2z" fill="rgb(16,16,16)"/>
<path d="M32 54h1v1h-1v-1z" fill="rgb(197,106,90)"/>
<path d="M33 54h1v1h-1v-1z" fill="rgb(222,222,246)"/>
<path d="M36 54h1v1h-1v-1z" fill="rgb(74,49,32)"/>
<path d="M38 54h1v1h-1v-1z" fill="rgb(131,41,8)"/>
<path d="M45 54h1v1h-1v-1z" fill="rgb(197,106,90)"/>
<path d="M46 54h1v1h1v1h-2v-2z" fill="rgb(255,255,255)"/>
<path d="M47 54h1v1h-1v-1z" fill="rgb(74,49,32)"/>
<path d="M55 54h1v3h-1v-3z" fill="rgb(115,82,16)"/>
<path d="M57 54h1v1h-1v-1z" fill="rgb(16,16,16)"/>
<path d="M59 54h1v1h-1v-1z" fill="rgb(16,16,16)"/>
<path d="M72 54h1v1h-1v-1z" fill="rgb(16,16,16)"/>
<path d="M73 54h2v1h1v1h1v1h-1v1h-3v-1h-1v-2h1v-1z" fill="rgb(238,189,139)"/>
<path d="M77 54h1v3h-1v-3z" fill="rgb(115,82,16)"/>
<path d="M18 55h1v1h-1v-1z" fill="rgb(180,123,90)"/>
<path d="M23 55h1v1h-1v-1z" fill="rgb(16,16,16)"/>
<path d="M24 55h2v1h-2v-1z" fill="rgb(115,82,16)"/>
<path d="M35 55h1v1h-1v-1z" fill="rgb(222,222,246)"/>
<path d="M38 55h1v1h-1v-1z" fill="rgb(197,106,90)"/>
<path d="M44 55h1v1h7v-1h3v3h-1v1h-1v-1h-2v-1h-1v1h-1v1h-3v-1h1v-1h-3v-2z" fill="rgb(197,106,90)"/>
<path d="M45 55h1v1h-1v-1z" fill="rgb(222,222,246)"/>
<path d="M48 55h2v1h-2v-1z" fill="rgb(222,222,246)"/>
<path d="M50 55h2v1h-2v-1z" fill="rgb(238,139,74)"/>
<path d="M58 55h1v1h-1v-1z" fill="rgb(16,16,16)"/>
<path d="M59 55h1v1h-1v-1z" fill="rgb(197,106,90)"/>
<path d="M60 55h1v1h-1v-1z" fill="rgb(16,16,16)"/>
<path d="M70 55h2v1h-2v-1z" fill="rgb(16,16,16)"/>
<path d="M15 56h1v1h-1v-1z" fill="rgb(115,82,16)"/>
<path d="M22 56h1v1h-1v-1z" fill="rgb(16,16,16)"/>
<path d="M23 56h1v1h-1v-1z" fill="rgb(180,123,90)"/>
<path d="M24 56h2v1h1v1h-2v-1h-1v-1z" fill="rgb(255,230,180)"/>
<path d="M26 56h1v1h-1v-1z" fill="rgb(115,82,16)"/>
<path d="M27 56h1v1h-1v-1z" fill="rgb(16,16,16)"/>
<path d="M31 56h1v1h-1v-1z" fill="rgb(115,82,16)"/>
<path d="M59 56h1v1h-1v-1z" fill="rgb(16,16,16)"/>
<path d="M60 56h1v1h-1v-1z" fill="rgb(197,106,90)"/>
<path d="M61 56h1v1h-1v-1z" fill="rgb(16,16,16)"/>
<path d="M68 56h1v1h-1v-1z" fill="rgb(131,41,8)"/>
<path d="M69 56h1v1h-1v-1z" fill="rgb(16,16,16)"/>
<path d="M70 56h2v1h1v1h-3v1h-2v1h-4v-1h3v-1h2v-1h1v-1z" fill="rgb(180,123,90)"/>
<path d="M15 57h1v1h-1v-1z" fill="rgb(16,16,16)"/>
<path d="M19 57h1v1h-1v-1z" fill="rgb(115,82,16)"/>
<path d="M22 57h1v1h-1v-1z" fill="rgb(115,82,16)"/>
<path d="M23 57h1v2h-2v-1h1v-1z" fill="rgb(238,189,139)"/>
<path d="M24 57h1v1h-1v-1z" fill="rgb(180,123,90)"/>
<path d="M27 57h1v1h-1v-1z" fill="rgb(115,82,16)"/>
<path d="M28 57h1v2h-1v-2z" fill="rgb(16,16,16)"/>
<path d="M31 57h1v1h-1v-1z" fill="rgb(238,189,139)"/>
<path d="M32 57h1v1h-1v-1z" fill="rgb(115,82,16)"/>
<path d="M34 57h1v1h-1v-1z" fill="rgb(115,82,16)"/>
<path d="M37 57h1v1h-1v-1z" fill="rgb(115,82,16)"/>
<path d="M50 57h1v1h-1v-1z" fill="rgb(115,82,16)"/>
<path d="M55 57h1v1h-1v-1z" fill="rgb(180,123,90)"/>
<path d="M59 57h2v1h-2v-1z" fill="rgb(115,82,16)"/>
<path d="M61 57h1v1h-1v-1z" fill="rgb(255,230,180)"/>
<path d="M62 57h1v1h-1v-1z" fill="rgb(16,16,16)"/>
<path d="M63 57h1v1h-1v-1z" fill="rgb(131,41,8)"/>
<path d="M67 57h1v1h-1v-1z" fill="rgb(131,41,8)"/>
<path d="M68 57h1v1h-1v-1z" fill="rgb(16,16,16)"/>
<path d="M76 57h1v1h-1v-1z" fill="rgb(115,82,16)"/>
<path d="M16 58h1v1h-1v-1z" fill="rgb(115,82,16)"/>
<path d="M20 58h1v1h-1v-1z" fill="rgb(16,16,16)"/>
<path d="M21 58h1v1h-1v-1z" fill="rgb(115,82,16)"/>
<path d="M24 58h2v1h-2v-1z" fill="rgb(115,82,16)"/>
<path d="M26 58h1v1h-1v-1z" fill="rgb(180,123,90)"/>
<path d="M27 58h1v1h-1v-1z" fill="rgb(255,230,180)"/>
<path d="M32 58h1v1h-1v-1z" fill="rgb(16,16,16)"/>
<path d="M33 58h1v1h-1v-1z" fill="rgb(115,82,16)"/>
<path d="M35 58h1v1h-1v-1z" fill="rgb(16,16,16)"/>
<path d="M36 58h1v1h-1v-1z" fill="rgb(115,82,16)"/>
<path d="M38 58h1v1h-1v-1z" fill="rgb(16,16,16)"/>
<path d="M45 58h1v1h-1v-1z" fill="rgb(115,82,16)"/>
<path d="M49 58h1v1h-1v-1z" fill="rgb(115,82,16)"/>
<path d="M51 58h1v1h-1v-1z" fill="rgb(115,82,16)"/>
<path d="M52 58h1v1h-1v-1z" fill="rgb(16,16,16)"/>
<path d="M54 58h1v1h-1v-1z" fill="rgb(115,82,16)"/>
<path d="M59 58h1v2h1v3h-1v1h-7v1h-3v1h-1v1h-1v1h-1v1h-8v-1h-1v-1h-2v-1h-2v-1h-4v-1h-1
	v-2h-1v-3h1v2h1v1h1v1h4v1h3v1h11v-1h2v-1h4v-1h1v-1h2v-1h1v-2z" fill="rgb(238,189,139)"/>
<path d="M60 58h1v1h-1v-1z" fill="rgb(16,16,16)"/>
<path d="M61 58h1v1h1v1h1v1h-2v-1h-1v-2z" fill="rgb(238,189,139)"/>
<path d="M62 58h1v1h-1v-1z" fill="rgb(115,82,16)"/>
<path d="M63 58h1v1h-1v-1z" fill="rgb(180,123,90)"/>
<path d="M64 58h3v1h-3v-1z" fill="rgb(16,16,16)"/>
<path d="M70 58h5v1h-2v1h-1v1h-1v-2h-1v-1z" fill="rgb(16,16,16)"/>
<path d="M75 58h1v1h-1v-1z" fill="rgb(115,82,16)"/>
<path d="M76 58h1v1h-1v-1z" fill="rgb(16,16,16)"/>
<path d="M16 59h1v1h-1v-1z" fill="rgb(16,16,16)"/>
<path d="M20 59h1v1h-1v-1z" fill="rgb(115,82,16)"/>
<path d="M21 59h1v2h-1v-2z" fill="rgb(16,16,16)"/>
<path d="M22 59h2v1h-2v-1z" fill="rgb(115,82,16)"/>
<path d="M24 59h3v2h-3v1h-1v-1h-1v-1h2v-1z" fill="rgb(255,230,180)"/>
<path d="M27 59h1v3h-1v-3z" fill="rgb(115,82,16)"/>
<path d="M32 59h1v1h-1v-1z" fill="rgb(180,123,90)"/>
<path d="M35 59h1v1h-1v-1z" fill="rgb(180,123,90)"/>
<path d="M36 59h1v1h-1v-1z" fill="rgb(238,189,139)"/>
<path d="M38 59h1v1h-1v-1z" fill="rgb(115,82,16)"/>
<path d="M39 59h1v1h-1v-1z" fill="rgb(16,16,16)"/>
<path d="M44 59h1v1h-1v-1z" fill="rgb(115,82,16)"/>
<path d="M46 59h1v1h-1v-1z" fill="rgb(16,16,16)"/>
<path d="M47 59h2v1h-2v-1z" fill="rgb(115,82,16)"/>
<path d="M52 59h1v1h-1v-1z" fill="rgb(115,82,16)"/>
<path d="M53 59h1v1h-1v-1z" fill="rgb(16,16,16)"/>
<path d="M60 59h1v1h-1v-1z" fill="rgb(115,82,16)"/>
<path d="M63 59h1v1h-1v-1z" fill="rgb(16,16,16)"/>
<path d="M68 59h2v1h-2v-1z" fill="rgb(16,16,16)"/>
<path d="M70 59h1v3h1v2h-1v-1h-1v2h-1v-2h-1v-1h-1v-1h1v-1h2v-1z" fill="rgb(180,123,90)"/>
<path d="M73 59h4v2h-1v1h-1v-1h-1v-1h-1v-1z" fill="rgb(180,123,90)"/>
<path d="M77 59h1v2h-1v-2z" fill="rgb(16,16,16)"/>
<path d="M17 60h1v2h-1v-2z" fill="rgb(115,82,16)"/>
<path d="M18 60h1v1h1v2h-1v-1h-1v-2z" fill="rgb(255,230,180)"/>
<path d="M39 60h1v1h-1v-1z" fill="rgb(180,123,90)"/>
<path d="M40 60h4v1h-4v-1z" fill="rgb(115,82,16)"/>
<path d="M47 60h1v1h-1v-1z" fill="rgb(16,16,16)"/>
<path d="M53 60h1v1h-1v-1z" fill="rgb(238,189,139)"/>
<path d="M61 60h1v2h-1v-2z" fill="rgb(115,82,16)"/>
<path d="M64 60h4v1h-4v-1z" fill="rgb(16,16,16)"/>
<path d="M73 60h1v1h-1v-1z" fill="rgb(16,16,16)"/>
<path d="M21 61h1v2h-1v-2z" fill="rgb(115,82,16)"/>
<path d="M22 61h1v1h-1v-1z" fill="rgb(238,189,139)"/>
<path d="M24 61h1v1h-1v-1z" fill="rgb(180,123,90)"/>
<path d="M25 61h2v1h-2v-1z" fill="rgb(16,16,16)"/>
<path d="M62 61h2v1h-2v-1z" fill="rgb(16,16,16)"/>
<path d="M64 61h3v2h-2v1h-2v1h-2v-2h1v-1h2v-1z" fill="rgb(238,189,139)"/>
<path d="M71 61h1v1h-1v-1z" fill="rgb(115,82,16)"/>
<path d="M74 61h1v1h-1v-1z" fill="rgb(16,16,16)"/>
<path d="M76 61h1v1h1v1h1v2h1v1h1v1h1v1h-1v1h-2v-2h-1v-2h-1v-2h-1v-2z" fill="rgb(238,189,139)"/>
<path d="M77 61h1v1h-1v-1z" fill="rgb(180,123,90)"/>
<path d="M78 61h1v1h-1v-1z" fill="rgb(16,16,16)"/>
<path d="M17 62h1v1h-1v-1z" fill="rgb(16,16,16)"/>
<path d="M18 62h1v1h-1v-1z" fill="rgb(238,189,139)"/>
<path d="M22 62h3v1h-1v1h-1v-1h-1v-1z" fill="rgb(16,16,16)"/>
<path d="M25 62h1v1h-1v-1z" fill="rgb(115,82,16)"/>
<path d="M26 62h1v1h1v1h-1v1h-1v2h-1v2h-2v-2h1v-2h1v-2h1v-1z" fill="rgb(180,123,90)"/>
<path d="M27 62h1v1h-1v-1z" fill="rgb(16,16,16)"/>
<path d="M28 62h1v1h-1v-1z" fill="rgb(180,123,90)"/>
<path d="M61 62h1v1h-1v-1z" fill="rgb(180,123,90)"/>
<path d="M67 62h1v1h-1v-1z" fill="rgb(115,82,16)"/>
<path d="M72 62h1v3h-1v-3z" fill="rgb(16,16,16)"/>
<path d="M75 62h1v2h-1v-2z" fill="rgb(16,16,16)"/>
<path d="M78 62h1v1h-1v-1z" fill="rgb(115,82,16)"/>
<path d="M18 63h1v2h-1v-2z" fill="rgb(16,16,16)"/>
<path d="M19 63h2v1h-2v-1z" fill="rgb(115,82,16)"/>
<path d="M21 63h1v1h-1v-1z" fill="rgb(180,123,90)"/>
<path d="M22 63h1v1h-1v-1z" fill="rgb(238,189,139)"/>
<path d="M24 63h1v2h-1v-2z" fill="rgb(115,82,16)"/>
<path d="M28 63h1v1h-1v-1z" fill="rgb(16,16,16)"/>
<path d="M60 63h1v1h-1v-1z" fill="rgb(115,82,16)"/>
<path d="M65 63h4v2h-1v-1h-3v-1z" fill="rgb(16,16,16)"/>
<path d="M70 63h1v1h1v2h1v3h1v2h1v1h-1v1h-1v1h-1v-1h-1v-4h-1v-6z" fill="rgb(238,189,139)"/>
<path d="M76 63h1v1h-1v-1z" fill="rgb(180,123,90)"/>
<path d="M79 63h1v1h-1v-1z" fill="rgb(16,16,16)"/>
<path d="M19 64h3v1h-1v2h-1v3h-3v-2h1v-2h1v-2z" fill="rgb(238,189,139)"/>
<path d="M22 64h1v1h-1v-1z" fill="rgb(16,16,16)"/>
<path d="M23 64h1v1h-1v-1z" fill="transparent"/>
<path d="M27 64h1v1h-1v-1z" fill="rgb(16,16,16)"/>
<path d="M29 64h1v1h-1v-1z" fill="rgb(16,16,16)"/>
<path d="M53 64h4v1h-4v-1z" fill="rgb(180,123,90)"/>
<path d="M57 64h3v1h-3v-1z" fill="rgb(115,82,16)"/>
<path d="M60 64h1v1h-1v-1z" fill="rgb(180,123,90)"/>
<path d="M63 64h2v1h-2v-1z" fill="rgb(16,16,16)"/>
<path d="M76 64h1v1h-1v-1z" fill="rgb(16,16,16)"/>
<path d="M79 64h1v1h-1v-1z" fill="rgb(115,82,16)"/>
<path d="M18 65h1v1h-1v-1z" fill="rgb(115,82,16)"/>
<path d="M21 65h1v2h-1v-2z" fill="rgb(16,16,16)"/>
<path d="M22 65h1v2h-1v-2z" fill="transparent"/>
<path d="M23 65h1v1h-1v-1z" fill="rgb(16,16,16)"/>
<path d="M26 65h1v2h-1v-2z" fill="rgb(16,16,16)"/>
<path d="M30 65h1v2h-1v-2z" fill="rgb(16,16,16)"/>
<path d="M31 65h1v1h-1v-1z" fill="rgb(115,82,16)"/>
<path d="M32 65h2v1h-2v-1z" fill="rgb(180,123,90)"/>
<path d="M50 65h3v1h-3v-1z" fill="rgb(180,123,90)"/>
<path d="M53 65h6v1h1v1h-1v1h-1v1h-2v1h-7v-1h-1v-1h1v-1h1v-1h3v-1z" fill="rgb(238,189,139)"/>
<path d="M59 65h1v1h-1v-1z" fill="rgb(180,123,90)"/>
<path d="M60 65h1v1h-1v-1z" fill="rgb(115,82,16)"/>
<path d="M61 65h2v1h-2v-1z" fill="rgb(16,16,16)"/>
<path d="M69 65h1v1h-1v-1z" fill="rgb(115,82,16)"/>
<path d="M72 65h1v1h-1v-1z" fill="rgb(115,82,16)"/>
<path d="M77 65h1v2h-1v-2z" fill="rgb(16,16,16)"/>
<path d="M80 65h1v1h-1v-1z" fill="rgb(115,82,16)"/>
<path d="M17 66h1v2h-1v-2z" fill="rgb(115,82,16)"/>
<path d="M23 66h1v1h-1v-1z" fill="rgb(115,82,16)"/>
<path d="M31 66h3v1h2v1h2v1h1v1h-4v-1h-2v-1h-1v-1h-1v-1z" fill="rgb(238,189,139)"/>
<path d="M34 66h2v1h-2v-1z" fill="rgb(180,123,90)"/>
<path d="M49 66h1v1h-1v-1z" fill="rgb(180,123,90)"/>
<path d="M60 66h1v1h-1v-1z" fill="rgb(16,16,16)"/>
<path d="M69 66h1v3h-1v-3z" fill="rgb(16,16,16)"/>
<path d="M73 66h1v3h-1v-3z" fill="rgb(16,16,16)"/>
<path d="M81 66h1v1h-1v-1z" fill="rgb(115,82,16)"/>
<path d="M20 67h1v3h-1v-3z" fill="rgb(16,16,16)"/>
<path d="M21 67h1v1h-1v-1z" fill="transparent"/>
<path d="M22 67h1v2h-1v-2z" fill="rgb(16,16,16)"/>
<path d="M25 67h1v3h-1v-3z" fill="rgb(16,16,16)"/>
<path d="M31 67h1v1h-1v-1z" fill="rgb(16,16,16)"/>
<path d="M36 67h1v1h-1v-1z" fill="rgb(180,123,90)"/>
<path d="M37 67h1v1h-1v-1z" fill="rgb(115,82,16)"/>
<path d="M48 67h1v1h-1v-1z" fill="rgb(115,82,16)"/>
<path d="M59 67h1v1h-1v-1z" fill="rgb(16,16,16)"/>
<path d="M78 67h1v2h-1v-2z" fill="rgb(16,16,16)"/>
<path d="M82 67h3v1h-3v-1z" fill="rgb(16,16,16)"/>
<path d="M85 67h1v1h-1v-1z" fill="rgb(115,82,16)"/>
<path d="M16 68h1v2h-1v-2z" fill="rgb(115,82,16)"/>
<path d="M21 68h1v1h-1v-1z" fill="rgb(115,82,16)"/>
<path d="M32 68h1v1h-1v-1z" fill="rgb(16,16,16)"/>
<path d="M38 68h1v1h-1v-1z" fill="rgb(115,82,16)"/>
<path d="M47 68h1v1h-1v-1z" fill="rgb(115,82,16)"/>
<path d="M58 68h1v1h-1v-1z" fill="rgb(16,16,16)"/>
<path d="M81 68h1v1h-1v-1z" fill="rgb(16,16,16)"/>
<path d="M82 68h4v1h1v2h-1v-1h-3v1h-2v-2h1v-1z" fill="rgb(238,189,139)"/>
<path d="M86 68h1v1h-1v-1z" fill="rgb(115,82,16)"/>
<path d="M13 69h2v1h-2v-1z" fill="rgb(115,82,16)"/>
<path d="M21 69h2v1h1v1h-4v-1h1v-1z" fill="rgb(180,123,90)"/>
<path d="M23 69h1v1h-1v-1z" fill="rgb(16,16,16)"/>
<path d="M24 69h1v1h-1v-1z" fill="rgb(115,82,16)"/>
<path d="M33 69h1v1h-1v-1z" fill="rgb(16,16,16)"/>
<path d="M34 69h1v1h-1v-1z" fill="rgb(115,82,16)"/>
<path d="M39 69h1v1h-1v-1z" fill="rgb(115,82,16)"/>
<path d="M40 69h8v1h-8v-1z" fill="rgb(16,16,16)"/>
<path d="M48 69h1v1h-1v-1z" fill="rgb(115,82,16)"/>
<path d="M56 69h1v1h-1v-1z" fill="rgb(115,82,16)"/>
<path d="M57 69h1v1h-1v-1z" fill="rgb(16,16,16)"/>
<path d="M70 69h1v5h-1v-5z" fill="rgb(16,16,16)"/>
<path d="M74 69h1v2h-1v-2z" fill="rgb(16,16,16)"/>
<path d="M79 69h2v2h-1v-1h-1v-1z" fill="rgb(16,16,16)"/>
<path d="M87 69h1v2h-1v-2z" fill="rgb(115,82,16)"/>
<path d="M12 70h1v1h-1v-1z" fill="rgb(115,82,16)"/>
<path d="M13 70h2v1h1v-1h1v1h1v1h-1v1h-2v-1h-2v1h-1v-2h1v-1z" fill="rgb(238,189,139)"/>
<path d="M15 70h1v1h-1v-1z" fill="rgb(115,82,16)"/>
<path d="M17 70h1v1h-1v-1z" fill="rgb(180,123,90)"/>
<path d="M18 70h1v1h-1v-1z" fill="rgb(115,82,16)"/>
<path d="M19 70h1v1h-1v-1z" fill="rgb(16,16,16)"/>
<path d="M24 70h1v1h-1v-1z" fill="rgb(16,16,16)"/>
<path d="M35 70h4v1h-4v-1z" fill="rgb(16,16,16)"/>
<path d="M49 70h7v1h-7v-1z" fill="rgb(16,16,16)"/>
<path d="M83 70h3v1h-3v-1z" fill="rgb(16,16,16)"/>
<path d="M11 71h1v2h-1v-2z" fill="rgb(115,82,16)"/>
<path d="M18 71h1v2h-1v-2z" fill="rgb(16,16,16)"/>
<path d="M20 71h4v1h-4v-1z" fill="rgb(16,16,16)"/>
<path d="M75 71h1v1h-1v-1z" fill="rgb(16,16,16)"/>
<path d="M81 71h2v1h-2v-1z" fill="rgb(16,16,16)"/>
<path d="M86 71h2v1h-2v-1z" fill="rgb(16,16,16)"/>
<path d="M13 72h1v1h-1v-1z" fill="rgb(16,16,16)"/>
<path d="M14 72h1v1h-1v-1z" fill="rgb(180,123,90)"/>
<path d="M17 72h1v1h-1v-1z" fill="rgb(180,123,90)"/>
<path d="M74 72h5v1h-5v-1z" fill="rgb(115,82,16)"/>
<path d="M11 73h2v1h-2v-1z" fill="rgb(16,16,16)"/>
<path d="M14 73h4v1h-4v-1z" fill="rgb(16,16,16)"/>
<path d="M71 73h1v1h-1v-1z" fill="rgb(115,82,16)"/>
<path d="M73 73h1v1h-1v-1z" fill="rgb(115,82,16)"/>
<path d="M74 73h5v2h-3v-1h-2v-1z" fill="rgb(255,230,180)"/>
<path d="M79 73h1v1h-1v-1z" fill="rgb(115,82,16)"/>
<path d="M71 74h1v1h-1v-1z" fill="rgb(16,16,16)"/>
<path d="M72 74h1v1h-1v-1z" fill="rgb(115,82,16)"/>
<path d="M73 74h3v2h-3v-2z" fill="rgb(238,189,139)"/>
<path d="M79 74h1v3h-1v-1h-1v-1h1v-1z" fill="rgb(238,189,139)"/>
<path d="M80 74h1v1h-1v-1z" fill="rgb(115,82,16)"/>
<path d="M72 75h1v1h-1v-1z" fill="rgb(16,16,16)"/>
<path d="M76 75h2v1h-2v-1z" fill="rgb(16,16,16)"/>
<path d="M80 75h1v3h-2v-1h1v-2z" fill="rgb(16,16,16)"/>
<path d="M73 76h3v1h-3v-1z" fill="rgb(16,16,16)"/>
<path d="M78 76h1v1h-1v-1z" fill="rgb(16,16,16)"/>
</svg>
