<svg data-name="Capa 1" xmlns="http://www.w3.org/2000/svg" viewBox="0 0 24 24"><path d="M22.69,9.42a8.66,8.66,0,0,0-.41-1.34h0a10.34,10.34,0,0,0-.91-1.86,11,11,0,0,0-18.72,0,10.34,10.34,0,0,0-.91,1.86h0a8.66,8.66,0,0,0-.41,1.34,11,11,0,0,0,0,5.1,10.22,10.22,0,0,0,.49,1.54A10.3,10.3,0,0,0,3,18.3a11,11,0,0,0,18,0A11.12,11.12,0,0,0,22.23,16a9.72,9.72,0,0,0,.48-1.53,11,11,0,0,0,0-5.1ZM12,3a9,9,0,0,1,7.15,3.55A54.93,54.93,0,0,1,12,7a54.93,54.93,0,0,1-7.15-.45A9,9,0,0,1,12,3ZM3.75,8.42A56.42,56.42,0,0,0,12,9a56.42,56.42,0,0,0,8.25-.58,8.34,8.34,0,0,1,.48,1.38,52.5,52.5,0,0,1-8.73.7,52.5,52.5,0,0,1-8.73-.7A8.34,8.34,0,0,1,3.75,8.42ZM12,21a9,9,0,0,1-6-2.3,58.66,58.66,0,0,0,6,.3,57.8,57.8,0,0,0,6-.3A9,9,0,0,1,12,21Zm7.81-4.53A55.33,55.33,0,0,1,12,17a56.1,56.1,0,0,1-7.8-.53,9,9,0,0,1-.72-1.58A58.13,58.13,0,0,0,12,15.5a58.13,58.13,0,0,0,8.52-.61A9.77,9.77,0,0,1,19.81,16.47Z" style="fill:#1e120d"/></svg>