<svg id="Capa_1" data-name="Capa 1" xmlns="http://www.w3.org/2000/svg" viewBox="0 0 24 24">
  <title>Sin título-1</title>
  <g>
    <path d="M12,22.67c-3.39,0-7.75-3-7.75-8.86S8.37,2,12,2s7.75,6,7.75,11.81S15.39,22.67,12,22.67Z" style="fill: none;stroke: #4D6478;stroke-miterlimit: 10;stroke-width: 2px"/>
    <path d="M9,8.66c-1.88-.24-2.63,6.58-1.32,7.89s3.86-.49,3.95-2.63S10.29,8.83,9,8.66Z" style="fill: #4D6478"/>
    <path d="M13.72,4.92C12.59,4,11.47,7,12.28,7.81S16,6.72,13.72,4.92Z" style="fill: #4D6478"/>
    <path d="M17,16a3.79,3.79,0,0,0-4,1c-1.06,1.25-.87,3.44,0,4s3.63,1.19,5-1S18.13,16.25,17,16Z" style="fill: #4D6478"/>
  </g>
</svg>
