<svg id="Capa_1" data-name="Capa 1" xmlns="http://www.w3.org/2000/svg" viewBox="0 0 321.34 422.68"><title>Mesa de trabajo 1</title><path d="M160.67,349.14a117.14,117.14,0,0,1-35-5.36l6-19.09a96.81,96.81,0,0,0,58,0l6,19.09A117.14,117.14,0,0,1,160.67,349.14Z" style="fill:#2ecc71"/><line x1="20" y1="305.34" x2="20" y2="143.12" style="fill:none;stroke:#2ecc71;stroke-miterlimit:10;stroke-width:20px"/><line x1="301.34" y1="305.34" x2="301.34" y2="143.12" style="fill:none;stroke:#2ecc71;stroke-miterlimit:10;stroke-width:20px"/><polygon points="311.34 305.34 311.34 344.68 243.34 412.68 78 412.68 10 344.68 10 305.34 56 305.34 101.34 359.01 101.34 379.34 220 379.34 220 359.01 265.34 305.34 311.34 305.34" style="fill:#202020;stroke:#202020;stroke-miterlimit:10;stroke-width:20px"/><polygon points="210 309.12 220 379.34 101.34 379.34 111.34 309.12 210 309.12" style="fill:none;stroke:#202020;stroke-miterlimit:10;stroke-width:20px"/><line x1="10" y1="305.34" x2="10" y2="253.78" style="fill:none;stroke:#202020;stroke-miterlimit:10;stroke-width:20px"/><line x1="311.34" y1="305.34" x2="311.34" y2="253.78" style="fill:none;stroke:#202020;stroke-miterlimit:10;stroke-width:20px"/><path d="M145.67,111.78H101.34L69,87.12,32.34,106.45v64H10V89.78L78.33,11.12S203,40.45,205,41.78s84.67-6.67,84.67-6.67l21.67,25.33v110H289v-64L252.33,87.12,220,111.78Z" style="fill:#202020;stroke:#202020;stroke-miterlimit:10;stroke-width:20px"/><circle cx="110.01" cy="223.67" r="15" transform="translate(-114.86 331.22) rotate(-89.37)" style="fill:#2ecc71"/><line x1="78" y1="194.12" x2="142" y2="194.12" style="fill:none;stroke:#202020;stroke-miterlimit:10;stroke-width:20px"/><circle cx="211.33" cy="225.23" r="15" transform="translate(-16.2 434.07) rotate(-89.37)" style="fill:#2ecc71"/><line x1="179.34" y1="194.12" x2="243.34" y2="194.12" style="fill:none;stroke:#202020;stroke-miterlimit:10;stroke-width:20px"/><rect x="151.34" y="365.68" width="18.66" height="27.44" style="fill:#202020;stroke:#202020;stroke-miterlimit:10;stroke-width:20px"/></svg>