<?xml version="1.0" encoding="UTF-8" standalone="no"?>
<svg width="30px" height="30px" viewBox="0 0 30 30" version="1.1" xmlns="http://www.w3.org/2000/svg" xmlns:xlink="http://www.w3.org/1999/xlink">
    <!-- Generator: Sketch 39.1 (31720) - http://www.bohemiancoding.com/sketch -->
    <title>pokeball_active</title>
    <desc>Created with Sketch.</desc>
    <defs></defs>
    <g id="iOS" stroke="none" stroke-width="1" fill="none" fill-rule="evenodd">
        <g id="Pokemon-grid_tab-Copy-3" transform="translate(-326.000000, -27.000000)">
            <g id="NavBar">
                <g id="pokeball_active" transform="translate(327.000000, 28.000000)">
                    <path d="M0,14 C0,6.2678 6.2678,0 14,0 C21.7322,0 28,6.2678 28,14 L0,14 Z" id="Fill-1" fill="#FF1C1C"></path>
                    <path d="M28,14 C28,21.7322 21.7322,28 14,28 C6.2678,28 0,21.7322 0,14 L28,14 Z" id="Fill-3" fill="#FFFFFF"></path>
                    <path d="M14,24.7333333 C7.3934,24.7333333 1.8592,20.1558 0.387333333,14 L0,14 C0,21.7322 6.2678,28 14,28 C21.7322,28 28,21.7322 28,14 L27.6126667,14 C26.1408,20.1558 20.6066,24.7333333 14,24.7333333" id="Fill-5" fill="#D8DADE"></path>
                    <path d="M28,14 C28,21.7322 21.7322,28 14,28 C6.2678,28 0,21.7322 0,14 C0,6.2678 6.2678,0 14,0 C21.7322,0 28,6.2678 28,14 L28,14 Z" id="Stroke-7" stroke="#2A3C4B" stroke-width="2"></path>
                    <g id="Group-12" transform="translate(0.746667, 14.000000)">
                        <path d="" id="Fill-9" fill="#FFFFFF"></path>
                        <path d="M0,0 L26.5066667,0" id="Stroke-11" stroke="#2A3C4B" stroke-width="2"></path>
                    </g>
                    <path d="M19,14 C19,16.7613636 16.7613636,19 14,19 C11.2386364,19 9,16.7613636 9,14 C9,11.2386364 11.2386364,9 14,9 C16.7613636,9 19,11.2386364 19,14" id="Fill-13" fill="#FFFFFF"></path>
                    <path d="M19,14 C19,16.7613636 16.7613636,19 14,19 C11.2386364,19 9,16.7613636 9,14 C9,11.2386364 11.2386364,9 14,9 C16.7613636,9 19,11.2386364 19,14 L19,14 Z" id="Stroke-15" stroke="#2A3C4B" stroke-width="2"></path>
                    <path d="M16,14 C16,15.104375 15.104375,16 14,16 C12.895625,16 12,15.104375 12,14 C12,12.895625 12.895625,12 14,12 C15.104375,12 16,12.895625 16,14" id="Fill-17" fill="#A6B0B6"></path>
                    <path d="M5.71671333,7.93324 C7.58524667,5.38664 10.5994467,3.73324 14.0000467,3.73324 C15.5288467,3.73324 16.9797133,4.06737333 18.28358,4.66704" id="Stroke-19" stroke="#FFFFFF" stroke-width="2" stroke-linecap="round"></path>
                </g>
            </g>
        </g>
    </g>
</svg>