<svg id="Capa_1" data-name="Capa 1" xmlns="http://www.w3.org/2000/svg" viewBox="0 0 24 24">
  <title>icons</title>
  <g>
    <path d="M18.17,10.07a12.76,12.76,0,0,1,.58,3.74,9.11,9.11,0,0,1-.52,3.08A2,2,0,0,0,17,16a3.78,3.78,0,0,0-4,1c-1.06,1.25-.88,3.44,0,4a3.42,3.42,0,0,0,.8.34,5.5,5.5,0,0,1-1.8.33,6.46,6.46,0,0,1-3.92-1.51L6.66,21.58A8.24,8.24,0,0,0,12,23.67c4.21,0,8.75-3.77,8.75-9.86a15.35,15.35,0,0,0-1-5.33Z" style="fill: #4D6478"/>
    <path d="M13.72,4.92c-1-.85-2.1,1.68-1.57,2.69a.69.69,0,0,0,.13.2c.72.72,3.11-.72,2-2.32A2.64,2.64,0,0,0,13.72,4.92Z" style="fill: #4D6478"/>
    <path d="M23.71,1.71,22.29.29,17.81,4.77a10.7,10.7,0,0,0-1.28-1.53A6.62,6.62,0,0,0,12,1C7.67,1,3.25,7.46,3.25,13.81a11.2,11.2,0,0,0,.26,2.44,9.35,9.35,0,0,0,.71,2.11h0L.29,22.29l1.42,1.42,3.58-3.58L18.9,6.52Zm-12.54,9.7a6.59,6.59,0,0,0-1-1.85A2,2,0,0,0,9,8.66c-1.06-.13-1.76,2-1.94,4.06a9.4,9.4,0,0,0,.12,2.7L5.74,16.84a8.45,8.45,0,0,1-.46-2.36c0-.22,0-.44,0-.67C5.25,8.34,9.12,3,12,3a4.7,4.7,0,0,1,3.1,1.66,10.64,10.64,0,0,1,1.27,1.55Z" style="fill: #4D6478"/>
  </g>
</svg>
