<svg id="Capa_1" data-name="Capa 1" xmlns="http://www.w3.org/2000/svg" viewBox="0 0 24 24">
  <title>icons</title>
  <g>
    <path d="M7.9,9.37L6,9.09a0.34,0.34,0,0,1-.25-0.18L4.9,7.19a0.34,0.34,0,0,0-.61,0L3.44,8.91a0.34,0.34,0,0,1-.25.18l-1.9.28a0.34,0.34,0,0,0-.19.58l1.38,1.34a0.34,0.34,0,0,1,.1.3L2.25,13.48a0.34,0.34,0,0,0,.49.36l1.7-.89a0.34,0.34,0,0,1,.31,0l1.7,0.89a0.34,0.34,0,0,0,.49-0.36L6.62,11.59a0.34,0.34,0,0,1,.1-0.3L8.09,9.95A0.34,0.34,0,0,0,7.9,9.37Z" style="fill: #4D6478"/>
    <path d="M22.71,9.37l-1.9-.28a0.34,0.34,0,0,1-.25-0.18L19.71,7.19a0.34,0.34,0,0,0-.61,0L18.25,8.91a0.34,0.34,0,0,1-.25.18l-1.9.28a0.34,0.34,0,0,0-.19.58l1.38,1.34a0.34,0.34,0,0,1,.1.3l-0.32,1.89a0.34,0.34,0,0,0,.49.36l1.7-.89a0.34,0.34,0,0,1,.31,0l1.7,0.89a0.34,0.34,0,0,0,.49-0.36l-0.32-1.89a0.34,0.34,0,0,1,.1-0.3L22.9,9.95A0.34,0.34,0,0,0,22.71,9.37Z" style="fill: #4D6478"/>
    <path d="M15.31,3.37l-1.9-.28a0.34,0.34,0,0,1-.25-0.18L12.3,1.19a0.34,0.34,0,0,0-.61,0L10.85,2.91a0.34,0.34,0,0,1-.25.18l-1.9.28a0.34,0.34,0,0,0-.19.58L9.88,5.29a0.34,0.34,0,0,1,.1.3L9.65,7.48a0.34,0.34,0,0,0,.49.36l1.7-.89a0.34,0.34,0,0,1,.31,0l1.7,0.89a0.34,0.34,0,0,0,.49-0.36L14,5.59a0.34,0.34,0,0,1,.1-0.3l1.38-1.34A0.34,0.34,0,0,0,15.31,3.37Z" style="fill: #4D6478"/>
    <rect x="2" y="16" width="5" height="7" rx="1" ry="1" style="fill: #4D6478"/>
    <rect x="9" y="10" width="6" height="13" rx="1" ry="1" style="fill: #4D6478"/>
    <rect x="17" y="16" width="5" height="7" rx="1" ry="1" style="fill: #4D6478"/>
  </g>
</svg>
