<svg id="Capa_1" data-name="Capa 1" xmlns="http://www.w3.org/2000/svg" viewBox="0 0 24 24">
  <title>Sin título-1</title>
  <path d="M12.81,3.21l2.27,4.6a0.9,0.9,0,0,0,.68.49L20.82,9a0.9,0.9,0,0,1,.5,1.54l-3.67,3.58a0.9,0.9,0,0,0-.26.8L18.26,20a0.9,0.9,0,0,1-1.31.95l-4.54-2.38a0.9,0.9,0,0,0-.84,0L7,20.95A0.9,0.9,0,0,1,5.74,20L6.6,14.95a0.9,0.9,0,0,0-.26-0.8L2.68,10.57A0.9,0.9,0,0,1,3.18,9L8.25,8.3a0.9,0.9,0,0,0,.68-0.49l2.27-4.6A0.9,0.9,0,0,1,12.81,3.21Z" style="fill: none;stroke: #4D6478;stroke-linecap: round;stroke-linejoin: round;stroke-width: 2px"/>
</svg>
